<?xml version="1.0" encoding="utf-8"?>
<svg xmlns="http://www.w3.org/2000/svg" xmlns:svg="http://www.w3.org/2000/svg" version="1.1" viewBox="0 0 681 117">
	<title>A score 2 staves long in 6/8 time, in the key of B♭ Major.</title>
	<path d="M489.684 32.775c0 .742.583 1.325 1.325 1.325s1.324-.583 1.324-1.325c0-.741-.582-1.325-1.324-1.325s-1.325.584-1.325 1.325m-97.82 43.022c0 .741.584 1.325 1.326 1.325.74 0 1.325-.584 1.325-1.325 0-.742-.584-1.325-1.325-1.325-.742 0-1.325.583-1.325 1.325m233.167 31.434 22.404 1.654v3.32l-22.404-1.655zm-568.875-1.655 44.146-3.309v3.319l-44.146 3.309zM574.26 39.392l37.699-1.654v3.312l-37.7 1.655zm-388.585 64.533 44.147-1.655v3.312l-44.147 1.655zm382.072-29.793 44.147-4.964v3.33l-44.147 4.964zM448.674 6.294l19.18 1.655v3.322l-19.18-1.655zm-351.201 33.1h37.7v3.31h-37.7zM383.638 2.99h37.7v3.31h-37.7zm-68.916 95.967 44.147-3.31v3.319l-44.147 3.31zm5.417-64.529 37.7-1.655v3.313l-37.7 1.655zm-111.333 1.656h37.7v3.31h-37.7zm276.307 71.15 44.147 1.655v3.311l-44.147-1.654zm-48.26-10.493c-.027-.027-.08-.08-.16-.185l-3.047-3.763a.3.3 0 0 1-.053-.159c0-.08.027-.186.053-.238l2.703-4.08a.5.5 0 0 0 .053-.187v-.238c0-.08-.027-.16-.08-.212l-4.292-5.803s-.107-.159-.265-.159c-.08 0-.133.026-.212.08a.32.32 0 0 0-.133.264c0 .16.08.292.08.292l2.013 2.756q.08.12.08.318a.6.6 0 0 1-.08.318l-2.676 4.08a.6.6 0 0 0-.053.212v.239c0 .079.026.159.08.212l2.968 3.683a2.7 2.7 0 0 0-.663-.08c-1.351 0-2.411 1.114-2.411 2.465 0 .37.079.742.291 1.033.556.848 2.544 3.365 2.544 3.365s.132.16.318.16c.053 0 .106 0 .159-.053.132-.107.185-.212.185-.318s-.053-.186-.079-.239c-.08-.133-.928-1.67-.928-1.67s-.185-.37-.185-.847c0-.848.636-1.537 1.484-1.537.345 0 .636.106.847.238l1.034.663s.106.053.212.053a.29.29 0 0 0 .265-.133c.053-.106.08-.159.08-.238 0-.08-.027-.133-.08-.212zM52.933 28.195c-1.802-.583-3.789-1.458-3.789-2.65 0-1.033.953-1.458 2.093-1.458 1.643 0 2.756.769 2.756 1.988 0 1.272-.583 1.881-1.06 2.12m-1.696 6.28c-1.696 0-3.153-.928-3.153-2.412 0-1.775 1.378-2.199 1.378-2.199 1.802.61 4.372 1.51 4.372 2.968 0 .715-.927 1.643-2.597 1.643m3.18-5.564c.874-.663 1.484-1.51 1.484-2.57 0-1.909-2.094-3.472-4.664-3.472s-4.664 1.563-4.664 3.471c0 1.06.265 2.014 1.511 2.808-1.193.69-1.855 1.67-1.855 2.943 0 2.146 2.252 3.868 5.008 3.868s5.008-1.722 5.008-3.868c0-1.273-.45-2.465-1.829-3.18m-2.942-7.185c-.874 0-1.59-1.192-1.59-2.676s.716-2.703 1.59-2.703 1.617 1.219 1.617 2.703-.742 2.676-1.617 2.676m.981-6.625c-1.616 0-2.2.477-2.57.875-.08-.557-.133-.98-.133-1.405 0-1.51.53-3.47 2.385-3.47.662 0 1.06.211 1.325.503-.556.238-1.007.954-1.007 1.563 0 .954.742 1.696 1.696 1.696s1.722-.742 1.722-1.696v-.08c0-.238-.052-.635-.159-.847-.344-.954-1.457-2.359-4.107-2.359-2.385 0-4.107 2.28-4.637 3.498a9.4 9.4 0 0 0-.662 3.418c0 1.617.45 3.445 2.014 4.823 1.536 1.166 2.517 1.219 3.445 1.219s4.398-1.087 4.398-4.16c0-2.597-2.04-3.578-3.71-3.578M37.732 11.86c0 2.094-1.086 3.207-2.623 4.425l.079-5.167c.053-.238.45-1.007 1.51-1.007.954 0 1.034.901 1.034 1.458zm-.318-3.047a2.98 2.98 0 0 0-2.226.98l.106-8.506a.36.36 0 0 0-.37-.37h-.319a.363.363 0 0 0-.371.37l.133 15.926c0 .212.159.37.37.37a.6.6 0 0 0 .212-.052c2.28-1.14 4.664-3.312 4.664-6.042 0-1.378-.636-2.676-2.2-2.676m-7.041 12.975c0 2.094-1.086 3.207-2.623 4.426l.079-5.168c.053-.238.45-1.007 1.51-1.007.955 0 1.034.901 1.034 1.458zm-.318-3.047a2.98 2.98 0 0 0-2.226.98l.106-8.505a.363.363 0 0 0-.371-.371h-.318a.36.36 0 0 0-.37.37l.131 15.926c0 .212.16.37.372.37a.6.6 0 0 0 .211-.052c2.28-1.14 4.664-3.312 4.664-6.042 0-1.378-.635-2.676-2.199-2.676m7.678 62.615c0 2.094-1.086 3.207-2.623 4.426l.079-5.168c.053-.237.45-1.006 1.51-1.006.954 0 1.034.9 1.034 1.457zm-.318-3.047a2.98 2.98 0 0 0-2.226.98l.106-8.505a.36.36 0 0 0-.37-.371h-.319a.363.363 0 0 0-.371.37l.133 15.926c0 .212.159.371.37.371.054 0 .16-.026.212-.053 2.28-1.14 4.664-3.312 4.664-6.041 0-1.378-.636-2.677-2.2-2.677m-7.041 12.976c0 2.093-1.086 3.206-2.623 4.425l.079-5.167c.053-.239.45-1.007 1.51-1.007.955 0 1.034.901 1.034 1.457zm-.318-3.048a2.98 2.98 0 0 0-2.226.98l.106-8.505c0-.212-.159-.37-.371-.37h-.318a.36.36 0 0 0-.37.37l.131 15.925c0 .212.16.37.372.37a.6.6 0 0 0 .211-.052c2.28-1.14 4.664-3.312 4.664-6.042 0-1.377-.635-2.676-2.199-2.676m-13.96 16.185a7.7 7.7 0 0 1-1.538.16c-3.789 0-7.022-2.65-7.022-6.652 0-3.233 2.28-6.12 4.611-8.135.45-.398.875-.769 1.272-1.166.238 1.43.424 2.677.61 3.763-2.412.715-4.055 3.259-4.055 5.75 0 1.854 1.458 4.398 3.577 4.398.212 0 .451-.105.451-.344 0-.238-.265-.371-.583-.583-1.033-.636-1.616-1.324-1.616-2.623 0-1.616 1.192-2.915 2.755-3.286zm-2.332-27.24c.239-1.06 1.458-3.842 2.836-3.842.397 0 1.033 1.298 1.033 3.127 0 2.755-2.04 4.822-3.869 6.624-.159-1.06-.291-2.093-.291-3.206 0-.98.08-1.882.291-2.703m6.095 22.338c0 1.881-.768 3.815-2.65 4.584a882 882 0 0 1-1.457-8.559c2.385 0 4.107 1.617 4.107 3.975m-11.66 13.037c0 1.748 1.352 4.054 4.93 4.054 1.245 0 2.331-.318 3.285-.9 1.431-1.008 1.802-2.757 1.802-4.426 0-1.034-.159-2.226-.424-3.736-.08-.53-.238-1.325-.397-2.359 2.597-.847 4.53-3.55 4.53-6.28 0-4.001-2.834-6.704-6.703-6.704-.265-1.59-.53-3.153-.769-4.637 2.81-2.942 4.744-6.253 4.744-10.467 0-2.411-.742-4.372-1.166-5.326-.636-1.351-1.405-2.279-1.882-2.279-.185 0-1.007.319-1.881 1.351-1.696 2.015-2.173 5.406-2.173 7.632 0 1.431.133 2.73.583 5.698-.026.026-1.404 1.43-1.96 1.88-2.412 2.253-5.75 5.459-5.75 10.759 0 4.955 4.318 8.85 9.247 8.85.768 0 1.484-.079 2.093-.185.504 2.544.795 4.399.795 5.803 0 2.755-1.404 4.213-4.08 4.213-.636 0-1.193-.133-1.246-.133-.026-.026-.08-.053-.08-.08 0-.052.054-.078.133-.105 1.246-.185 2.49-1.245 2.49-2.941 0-1.431-1.085-2.941-3.073-2.941-1.855 0-3.047 1.51-3.047 3.259m7.896-77.632a7.7 7.7 0 0 1-1.537.16c-3.789 0-7.022-2.65-7.022-6.651 0-3.234 2.28-6.122 4.611-8.135.45-.398.875-.769 1.272-1.166.238 1.43.424 2.676.61 3.762-2.412.716-4.055 3.26-4.055 5.75 0 1.855 1.458 4.4 3.577 4.4.212 0 .451-.107.451-.345 0-.239-.265-.372-.583-.583-1.033-.636-1.616-1.325-1.616-2.623 0-1.617 1.192-2.915 2.755-3.287zm-2.332-27.24c.239-1.06 1.458-3.842 2.836-3.842.397 0 1.033 1.299 1.033 3.127 0 2.756-2.04 4.823-3.869 6.625-.159-1.06-.291-2.094-.291-3.207 0-.98.08-1.881.291-2.703m6.095 22.339c0 1.881-.768 3.815-2.65 4.584a882 882 0 0 1-1.457-8.559c2.385 0 4.107 1.616 4.107 3.975M8.196 43.06c0 1.748 1.352 4.054 4.93 4.054 1.245 0 2.331-.318 3.285-.901 1.431-1.007 1.802-2.756 1.802-4.425 0-1.034-.159-2.226-.424-3.737-.08-.53-.238-1.325-.397-2.358 2.597-.848 4.53-3.55 4.53-6.28 0-4.001-2.834-6.704-6.703-6.704-.265-1.59-.53-3.153-.769-4.637 2.81-2.942 4.744-6.254 4.744-10.467 0-2.411-.742-4.372-1.166-5.326C17.392.927 16.623 0 16.146 0c-.185 0-1.007.318-1.881 1.351-1.696 2.014-2.173 5.406-2.173 7.632 0 1.43.133 2.73.583 5.697-.026.026-1.404 1.43-1.96 1.881-2.412 2.253-5.75 5.459-5.75 10.758 0 4.956 4.318 8.851 9.247 8.851.768 0 1.484-.08 2.093-.186.504 2.545.795 4.4.795 5.804 0 2.755-1.404 4.213-4.08 4.213-.636 0-1.193-.133-1.246-.133-.026-.026-.08-.053-.08-.08 0-.052.054-.079.133-.105 1.246-.186 2.49-1.246 2.49-2.941 0-1.432-1.085-2.941-3.073-2.941-1.855 0-3.047 1.51-3.047 3.259M611.298 17.34c0 1.14.821 2.412 2.968 2.412 2.756 0 5.644-2.253 5.644-4.584 0-1.564-1.325-2.438-2.967-2.438-2.57 0-5.645 2.173-5.645 4.61m-402.492 3.31c0 1.14.821 2.411 2.968 2.411 2.756 0 5.643-2.252 5.643-4.584 0-1.563-1.324-2.438-2.967-2.438-2.57 0-5.644 2.173-5.644 4.61M463.37 83.529c0 1.14.822 2.412 2.968 2.412 2.756 0 5.644-2.253 5.644-4.585 0-1.563-1.325-2.437-2.968-2.437-2.57 0-5.644 2.172-5.644 4.61M180.808 23.96c0 1.14.821 2.411 2.967 2.411 2.757 0 5.645-2.252 5.645-4.584 0-1.563-1.325-2.438-2.969-2.438-2.57 0-5.643 2.173-5.643 4.611m46.517-6.619c0 1.14.821 2.412 2.968 2.412 2.755 0 5.644-2.253 5.644-4.584 0-1.564-1.325-2.438-2.968-2.438-2.57 0-5.644 2.173-5.644 4.61m279.531 72.806c0 1.14.822 2.411 2.968 2.411 2.755 0 5.644-2.252 5.644-4.584 0-1.563-1.325-2.437-2.968-2.437-2.57 0-5.644 2.172-5.644 4.61M245.843 20.651c0 1.14.822 2.411 2.969 2.411 2.755 0 5.644-2.252 5.644-4.584 0-1.563-1.325-2.438-2.968-2.438-2.57 0-5.645 2.173-5.645 4.61m18.52 0c0 1.14.82 2.412 2.967 2.412 2.756 0 5.645-2.252 5.645-4.584 0-1.563-1.325-2.438-2.969-2.438-2.57 0-5.644 2.173-5.644 4.61M153.03 23.96c0 1.14.822 2.411 2.968 2.411 2.756 0 5.645-2.252 5.645-4.584 0-1.563-1.325-2.438-2.969-2.438-2.57 0-5.644 2.173-5.644 4.611m226.92 56.26c0 1.139.823 2.41 2.969 2.41 2.755 0 5.644-2.252 5.644-4.584 0-1.564-1.325-2.438-2.968-2.438-2.57 0-5.645 2.173-5.645 4.611m-87.808-59.568c0 1.14.82 2.411 2.968 2.411 2.755 0 5.644-2.252 5.644-4.584 0-1.563-1.325-2.438-2.968-2.438-2.57 0-5.644 2.173-5.644 4.61m66.066 56.26c0 1.14.822 2.411 2.968 2.411 2.756 0 5.645-2.253 5.645-4.584 0-1.563-1.325-2.438-2.969-2.438-2.57 0-5.644 2.173-5.644 4.61M320.14 17.342c0 1.14.821 2.412 2.968 2.412 2.756 0 5.644-2.253 5.644-4.584 0-1.564-1.325-2.438-2.968-2.438-2.57 0-5.644 2.173-5.644 4.61m16.326 62.878c0 1.14.822 2.412 2.968 2.412 2.755 0 5.644-2.253 5.644-4.585 0-1.564-1.325-2.438-2.968-2.438-2.57 0-5.644 2.173-5.644 4.611m192.133 13.237c0 1.14.822 2.412 2.968 2.412 2.756 0 5.644-2.252 5.644-4.584 0-1.564-1.325-2.438-2.968-2.438-2.57 0-5.644 2.173-5.644 4.61M134.51 23.96c0 1.14.822 2.411 2.968 2.411 2.756 0 5.645-2.252 5.645-4.584 0-1.563-1.325-2.438-2.968-2.438-2.57 0-5.645 2.173-5.645 4.611m180.212 59.568c0 1.14.823 2.412 2.969 2.412 2.755 0 5.644-2.253 5.644-4.585 0-1.563-1.325-2.437-2.968-2.437-2.57 0-5.645 2.172-5.645 4.61m23.936-69.496c0 1.14.821 2.411 2.968 2.411 2.755 0 5.643-2.252 5.643-4.584 0-1.563-1.324-2.438-2.967-2.438-2.57 0-5.644 2.173-5.644 4.611m18.519-3.31c0 1.14.821 2.412 2.968 2.412 2.755 0 5.643-2.252 5.643-4.584 0-1.563-1.324-2.438-2.967-2.438-2.57 0-5.644 2.173-5.644 4.61m18.518 16.548c0 1.139.822 2.41 2.969 2.41 2.755 0 5.644-2.252 5.644-4.583 0-1.564-1.325-2.438-2.968-2.438-2.57 0-5.645 2.173-5.645 4.61m-92.18 59.569c0 1.14.822 2.41 2.968 2.41 2.756 0 5.645-2.251 5.645-4.583 0-1.564-1.325-2.438-2.968-2.438-2.57 0-5.645 2.173-5.645 4.61M115.991 20.652c0 1.14.822 2.411 2.969 2.411 2.755 0 5.644-2.252 5.644-4.584 0-1.563-1.325-2.438-2.968-2.438-2.57 0-5.645 2.173-5.645 4.61m278.223 3.31c0 1.14.822 2.411 2.968 2.411 2.756 0 5.645-2.252 5.645-4.584 0-1.563-1.325-2.438-2.969-2.438-2.57 0-5.644 2.173-5.644 4.611M250.902 93.456c0 1.14.821 2.412 2.968 2.412 2.756 0 5.644-2.252 5.644-4.584 0-1.564-1.325-2.438-2.967-2.438-2.571 0-5.645 2.173-5.645 4.61M412.733 30.58c0 1.14.822 2.411 2.968 2.411 2.755 0 5.644-2.252 5.644-4.584 0-1.563-1.325-2.438-2.968-2.438-2.57 0-5.644 2.173-5.644 4.611M229.16 80.22c0 1.14.821 2.412 2.968 2.412 2.756 0 5.643-2.253 5.643-4.585 0-1.564-1.325-2.438-2.967-2.438-2.57 0-5.644 2.173-5.644 4.611m211.572-52.95c0 1.14.821 2.412 2.967 2.412 2.756 0 5.644-2.253 5.644-4.584 0-1.564-1.325-2.438-2.967-2.438-2.571 0-5.644 2.173-5.644 4.61M207.418 83.53c0 1.14.821 2.411 2.967 2.411 2.756 0 5.644-2.253 5.644-4.585 0-1.563-1.325-2.437-2.967-2.437-2.57 0-5.644 2.172-5.644 4.61m352.387 19.857c0 1.139.822 2.411 2.968 2.411 2.756 0 5.644-2.253 5.644-4.585 0-1.562-1.324-2.437-2.968-2.437-2.57 0-5.644 2.172-5.644 4.61M97.473 23.96c0 1.14.821 2.411 2.968 2.411 2.755 0 5.644-2.252 5.644-4.584 0-1.563-1.325-2.438-2.968-2.438-2.57 0-5.644 2.173-5.644 4.611m88.202 62.878c0 1.14.821 2.41 2.968 2.41 2.756 0 5.644-2.251 5.644-4.583 0-1.564-1.325-2.438-2.967-2.438-2.571 0-5.645 2.173-5.645 4.61M459.25 33.89c0 1.139.822 2.41 2.968 2.41 2.756 0 5.644-2.252 5.644-4.584 0-1.563-1.325-2.438-2.967-2.438-2.57 0-5.645 2.173-5.645 4.612m18.52 0c0 1.139.82 2.41 2.967 2.41 2.756 0 5.644-2.252 5.644-4.584 0-1.563-1.325-2.438-2.968-2.438-2.57 0-5.644 2.173-5.644 4.612m103.778 59.567c0 1.14.822 2.412 2.969 2.412 2.755 0 5.643-2.252 5.643-4.584 0-1.564-1.324-2.438-2.967-2.438-2.57 0-5.645 2.173-5.645 4.61m-427.55 3.31c0 1.14.822 2.411 2.968 2.411 2.755 0 5.644-2.253 5.644-4.584 0-1.563-1.325-2.438-2.968-2.438-2.57 0-5.644 2.173-5.644 4.61M542.582 27.27c0 1.139.822 2.41 2.969 2.41 2.755 0 5.643-2.252 5.643-4.583 0-1.564-1.324-2.438-2.967-2.438-2.57 0-5.645 2.173-5.645 4.61m31.679-3.309c0 1.14.821 2.411 2.967 2.411 2.756 0 5.644-2.252 5.644-4.584 0-1.563-1.325-2.438-2.968-2.438-2.57 0-5.643 2.173-5.643 4.611M121.384 96.766c0 1.14.821 2.411 2.967 2.411 2.756 0 5.644-2.253 5.644-4.584 0-1.563-1.325-2.438-2.967-2.438-2.57 0-5.644 2.173-5.644 4.61m-51.91-86.042c0 1.14.822 2.411 2.968 2.411 2.757 0 5.644-2.252 5.644-4.584 0-1.563-1.325-2.438-2.967-2.438-2.57 0-5.644 2.173-5.644 4.61M99.64 83.529c0 1.14.822 2.412 2.968 2.412 2.756 0 5.644-2.253 5.644-4.585 0-1.563-1.325-2.437-2.967-2.437-2.571 0-5.645 2.172-5.645 4.61M592.78 20.651c0 1.14.821 2.411 2.967 2.411 2.756 0 5.644-2.252 5.644-4.584 0-1.563-1.325-2.438-2.967-2.438-2.571 0-5.644 2.173-5.644 4.61M77.899 86.839c0 1.14.821 2.41 2.967 2.41 2.757 0 5.645-2.251 5.645-4.583 0-1.564-1.325-2.438-2.968-2.438-2.57 0-5.644 2.173-5.644 4.61M629.817 30.58c0 1.14.821 2.411 2.968 2.411 2.756 0 5.644-2.252 5.644-4.584 0-1.563-1.325-2.438-2.968-2.438-2.57 0-5.644 2.173-5.644 4.611M603.29 90.147c0 1.14.821 2.411 2.968 2.411 2.755 0 5.644-2.252 5.644-4.584 0-1.563-1.325-2.437-2.968-2.437-2.57 0-5.644 2.172-5.644 4.61m-547.133 0c0 1.14.821 2.411 2.967 2.411 2.756 0 5.644-2.252 5.644-4.584 0-1.563-1.325-2.437-2.967-2.437-2.57 0-5.644 2.172-5.644 4.61m601.438-59.568c0 1.14.822 2.411 2.968 2.411 2.756 0 5.644-2.252 5.644-4.584 0-1.563-1.324-2.438-2.967-2.438-2.57 0-5.645 2.173-5.645 4.611m-32.563 56.259c0 1.14.822 2.41 2.968 2.41 2.756 0 5.644-2.251 5.644-4.583 0-1.564-1.324-2.438-2.968-2.438-2.57 0-5.644 2.173-5.644 4.61m-139.919 0c0 1.14.822 2.412 2.968 2.412 2.756 0 5.645-2.252 5.645-4.584 0-1.564-1.325-2.438-2.968-2.438-2.57 0-5.645 2.173-5.645 4.61m161.661 6.62c0 1.139.822 2.41 2.969 2.41 2.755 0 5.643-2.251 5.643-4.583 0-1.564-1.324-2.438-2.967-2.438-2.57 0-5.645 2.173-5.645 4.61m-183.403 12.098c0 .186.16.345.344.345.133 0 .292-.106.318-.212 0-.026.239-.954.265-1.033.027-.107.265-1.113 1.22-2.677 1.033-1.722 2.623-2.968 3.948-4.823 1.298-1.855 2.093-3.603 2.093-5.935 0-2.411-.556-4.425-1.961-6.995-.08-.186-.238-.292-.397-.292-.053 0-.106 0-.133.027-.132.053-.185.158-.185.318 0 .079.026.212.08.317 1.06 2.464 1.483 3.87 1.483 5.777 0 2.2-.768 3.338-1.245 4.16-1.723 2.942-4.505 4.372-5.618 4.743-.185.08-.212.212-.212.292zm-171.23-64.532c0 .186.159.344.345.344.132 0 .291-.105.317-.212 0-.026.239-.953.265-1.032.027-.107.265-1.114 1.219-2.677 1.033-1.722 2.623-2.968 3.948-4.823 1.299-1.855 2.094-3.603 2.094-5.935 0-2.411-.557-4.426-1.961-6.996-.08-.185-.239-.291-.398-.291-.053 0-.106 0-.132.026-.133.053-.186.16-.186.318a.8.8 0 0 0 .08.318c1.06 2.464 1.484 3.869 1.484 5.777 0 2.2-.769 3.338-1.246 4.16-1.722 2.94-4.505 4.372-5.617 4.743-.186.08-.212.212-.212.291zm-111.333 3.309c0 .185.159.344.344.344.133 0 .292-.106.319-.212 0-.027.238-.954.264-1.034.027-.105.265-1.113 1.219-2.676 1.033-1.722 2.623-2.968 3.948-4.822 1.299-1.855 2.094-3.605 2.094-5.936 0-2.411-.557-4.425-1.96-6.995-.081-.186-.24-.292-.399-.292-.053 0-.105 0-.132.027-.133.053-.186.159-.186.318 0 .079.027.212.08.318 1.06 2.464 1.484 3.868 1.484 5.776 0 2.2-.769 3.339-1.246 4.16-1.722 2.941-4.504 4.373-5.617 4.743-.186.08-.212.213-.212.292zm102.707 64.532c0 .186.16.344.345.344.133 0 .292-.106.318-.211 0-.028.239-.955.265-1.034.027-.106.265-1.113 1.219-2.676 1.033-1.723 2.623-2.968 3.948-4.823 1.298-1.855 2.093-3.604 2.093-5.936 0-2.41-.556-4.425-1.96-6.995-.08-.186-.239-.292-.398-.292-.053 0-.106 0-.132.027-.133.053-.186.159-.186.318 0 .08.027.212.08.318 1.06 2.464 1.484 3.869 1.484 5.777 0 2.199-.769 3.338-1.246 4.16-1.722 2.941-4.505 4.372-5.617 4.742-.186.08-.213.213-.213.292zm382.023-96.548c0 .079.027.212.212.291 1.14.371 3.418 1.802 5.14 4.743.478.822 1.246 1.961 1.246 4.16 0 1.908-.503 3.87-1.192 5.777-.053.159-.106.292-.08.397 0 .16.106.265.265.265.185 0 .318-.105.424-.291 1.193-2.12 1.642-4.584 1.642-6.996-.132-3.418-2.092-5.935-2.092-5.935.08 0-2.439-3.26-3.154-4.372-.98-1.51-1.43-3.021-1.484-3.127-.026-.08-.265-1.034-.265-1.034-.026-.106-.159-.212-.318-.212a.35.35 0 0 0-.344.345zM550.525 10.66c0 .08.027.212.212.291 1.14.371 3.418 1.802 5.14 4.744.478.821 1.246 1.96 1.246 4.16 0 1.908-.503 3.869-1.192 5.776-.053.159-.106.292-.08.398 0 .159.106.265.265.265.185 0 .318-.106.424-.292 1.192-2.12 1.643-4.584 1.643-6.995-.133-3.418-2.093-5.936-2.093-5.936.079 0-2.439-3.26-3.154-4.372-.98-1.51-1.431-3.02-1.484-3.127-.026-.08-.265-1.033-.265-1.033-.026-.106-.158-.212-.318-.212a.35.35 0 0 0-.344.344zM69.475 32.749c0 .185.159.345.344.345.133 0 .291-.107.318-.213 0-.026.238-.954.265-1.033.027-.107.265-1.113 1.219-2.676 1.033-1.723 2.623-2.968 3.948-4.823 1.299-1.855 2.094-3.604 2.094-5.936 0-2.411-.557-4.425-1.962-6.995-.079-.186-.237-.292-.397-.292-.053 0-.105 0-.133.027-.132.053-.185.159-.185.318a.8.8 0 0 0 .08.318c1.06 2.464 1.484 3.869 1.484 5.776 0 2.2-.769 3.34-1.246 4.16-1.723 2.942-4.504 4.373-5.617 4.744-.186.08-.212.211-.212.291zm92.465 47.408c0 .08.026.212.212.291 1.139.372 3.418 1.802 5.14 4.744.477.821 1.246 1.961 1.246 4.16 0 1.908-.504 3.87-1.193 5.777-.053.158-.106.291-.08.397 0 .16.107.265.265.265.186 0 .318-.106.425-.292 1.192-2.12 1.643-4.583 1.643-6.995-.133-3.418-2.094-5.936-2.094-5.936.08 0-2.438-3.259-3.153-4.372-.98-1.51-1.43-3.02-1.484-3.127a57 57 0 0 1-.265-1.033c-.027-.106-.159-.212-.318-.212a.35.35 0 0 0-.345.345zm83.905-59.507v17.09h.662V20.65ZM99.64 83.527v20.424h.662V83.527ZM592.78 20.65v19.572h.662V20.65ZM129.326 74.142v20.452h.662V74.142Zm495.706 12.695v22.078h.662V86.837ZM574.26 23.959v17.075h.662V23.96Zm72.515 69.497v17.065h.662V93.456Zm-577.3-82.734v22.027h.661V10.722Zm92.464 63.473v20.399h.662V74.195ZM550.525 4.7v20.399h.662v-20.4ZM77.898 86.837v18.744h.662V86.837ZM611.232 70.87v17.105h.662V70.87ZM97.472 23.96v17.089h.663v-17.09ZM589.49 73.314v17.97h.662v-17.97Zm-21.742 2.445v25.453h.662V75.76ZM115.992 20.65v20.399h.662v-20.4Zm369.72-11.04v22.107h.662V9.61ZM185.675 86.837v18.732h.662V86.837ZM467.193 9.58v22.136h.662V9.58ZM207.417 83.527v21.227h.662V83.527Zm21.742-3.31v23.722h.663V80.218ZM448.674 7.985v17.114h.663V7.984ZM134.511 23.959v17.09h.662v-17.09Zm18.518 0v18.744h.662V23.96Zm97.873 69.497V112.2h.662V93.456Zm169.774-88.81v23.761h.662V4.646Zm244.862 1.707v22.054h.662V6.353ZM402.157 4.646v17.142h.662V4.646Zm-118.641 82.19v22.028h.662V86.837Zm245.082 6.62v17.077h.662V93.456Zm-144.96-88.81v20.452h.662V4.646Zm-327.482 85.5v17.065h.662V90.146Zm301.02-79.424v23.722h.663V10.722ZM180.809 23.959v20.373h.662V23.959zm157.85-9.928v21.227h.662V14.03zm-2.193 66.187v18.745h.662V80.218ZM637.76 6.3v22.106h.662V6.301ZM314.723 83.527v17.065h.662V83.527Zm43.484-6.618v20.424h.662V76.909ZM320.139 17.34v18.73h.662V17.34Zm186.717 72.806v19.572h.662V90.146ZM208.806 20.65v17.09h.662V20.65ZM379.95 80.218v22.053h.662V80.218ZM292.14 20.65v20.372h.662V20.65zm192.973 66.187v22.066h.662V86.837ZM264.363 20.65v20.399h.662v-20.4ZM463.37 83.527v22.027h.662V83.527ZM611.298 17.34v22.068h.662V17.34Zm-383.973 0v20.4h.662v-20.4ZM463.98 37.442a.2.2 0 0 0-.046.017.2.2 0 0 0-.048.009l-.009.013-.015.006a.2.2 0 0 0-.02.045.2.2 0 0 0-.025.056.2.2 0 0 0 .01.06.2.2 0 0 0 .01.048c1.76 2.748 5.254 4.103 8.736 4.103s6.977-1.355 8.737-4.103a.165.165 0 0 0-.259-.203c-1.662 1.752-5.068 2.666-8.478 2.666s-6.815-.914-8.477-2.666a.2.2 0 0 0-.045-.02.2.2 0 0 0-.056-.025zm16.135 1.213c-1.832 1.866-4.68 2.814-7.542 2.814s-5.71-.948-7.542-2.814c1.912 1.23 4.72 1.834 7.542 1.834s5.63-.605 7.542-1.834m-16.14-1.048c3.439 3.623 13.756 3.623 17.195 0-3.439 5.37-13.756 5.37-17.195 0m-42.683 41.135v27.203h1.191V78.742Zm-245.082 0v27.203h1.191V78.742ZM521.826 9.246v27.203h3.64V9.246Zm-3.64 0v27.203h1.19V9.246Zm-2.447 16.91c0-.768-.61-1.404-1.378-1.404s-1.378.636-1.378 1.405c0 .768.61 1.404 1.378 1.404s1.378-.636 1.378-1.404m0-6.62c0-.768-.61-1.404-1.378-1.404s-1.378.636-1.378 1.405c0 .768.61 1.404 1.378 1.404s1.378-.636 1.378-1.404M431.267 9.246v27.203h1.191V9.246ZM305.258 78.742v27.203h1.192V78.742ZM88.008 9.246v27.203H89.2V9.246Zm446.303 16.91c0-.768-.61-1.404-1.378-1.404s-1.378.636-1.378 1.405c0 .768.61 1.404 1.378 1.404.769 0 1.378-.636 1.378-1.404m0-6.62c0-.768-.61-1.404-1.378-1.404s-1.378.636-1.378 1.405c0 .768.61 1.404 1.378 1.404.769 0 1.378-.636 1.378-1.404m-6.396-10.292v27.203h1.192V9.246Zm-6.089 0v27.203h3.64V9.246Zm42.97 0v27.203h1.191V9.246Zm-365.455 0v27.203h1.191V9.246Zm111.333 0v27.203h1.191V9.246ZM677.36 78.742v27.203H681V78.742Zm-3.64 0v27.203h1.191V78.742Zm-2.447 16.911c0-.768-.61-1.405-1.378-1.405-.769 0-1.378.637-1.378 1.405 0 .769.61 1.404 1.378 1.404s1.378-.635 1.378-1.404m0-6.619c0-.768-.61-1.404-1.378-1.404-.769 0-1.378.636-1.378 1.404 0 .769.61 1.404 1.378 1.404s1.378-.635 1.378-1.404m8.536-79.788v27.203H681V9.246ZM550.34 78.742v27.203h1.191V78.742ZM0 105.217v.728h681v-.728zm0-6.618v.727h681V98.6zm0-6.62v.729h681v-.728zm0-6.618v.728h681v-.728zm0-6.619v.728h681v-.728Zm0-43.021v.727h681v-.727zm0-6.619v.728h681v-.728zm0-6.619v.728h681v-.728zm0-6.618v.727h681v-.727Zm0-6.619v.728h681v-.728Z"/>
</svg>
