<?xml version="1.0" encoding="utf-8"?>
<svg xmlns="http://www.w3.org/2000/svg" xmlns:svg="http://www.w3.org/2000/svg" version="1.1" viewBox="0 0 681 48">
	<title>A score 1 stave long in 3/4 time, in the key of D Major.</title>
	<path d="M126.466 12.92c0 .741.584 1.324 1.325 1.324.742 0 1.325-.583 1.325-1.325s-.583-1.325-1.325-1.325c-.741 0-1.325.583-1.325 1.325m323.046 0c0 .742.583 1.325 1.325 1.325s1.325-.583 1.325-1.325-.583-1.325-1.325-1.325-1.325.583-1.325 1.325m-159.45 6.619c0 .742.582 1.325 1.324 1.325s1.325-.583 1.325-1.325-.582-1.325-1.325-1.325c-.742 0-1.324.583-1.324 1.325M44.008 32.793v1.96H41.81c-.185 0-.37.16-.37.37v.504c0 .212.185.372.37.372h8.03c.211 0 .37-.16.37-.372v-.503c0-.212-.159-.37-.37-.37h-2.386v-1.961h2.385c.212 0 .372-.186.372-.398v-.504a.38.38 0 0 0-.372-.37h-2.385v-4.214c0-.16-.079-.291-.185-.344l-.318-.16c-.053-.026-.08-.026-.132-.026-.106 0-.213 0-.292.08l-2.411 2.2a.4.4 0 0 0-.107.29v2.174h-3.073s2.968-3.18 6.095-7.367a.58.58 0 0 0 .132-.37.44.44 0 0 0-.08-.266l-.582-.583c-.08-.053-.16-.106-.265-.106h-3.948c-.186 0-.318.159-.345.318 0 0-.133 1.961-.822 4.107-.688 2.147-1.483 3.472-2.173 4.452 0 0-.079.132-.079.292 0 .052 0 .105.027.158.079.186.265.477.265.477s.052.16.291.16zm2.74-16.83c2.12-.822 2.254-2.2 2.254-2.677v-.132c0-.239-.08-3.233-4.638-3.233s-4.425 3.233-4.425 3.233h.027l-.027.053c0 .954.769 1.696 1.722 1.696.955 0 1.697-.742 1.697-1.696 0-.769-.584-1.51-1.325-1.67l.079-.08c.37-.264.874-.397 1.378-.397 1.112 0 2.305.663 2.305 2.094 0 1.67-1.245 1.908-1.563 1.96-.318.054-1.802.16-2.12.16s-.344.37-.344.37v.53s.053.292.344.319c.45.026 1.06.026 1.908.159 1.166.159 1.775.953 1.775 2.808 0 1.776-1.193 2.253-2.305 2.253-.742 0-1.43-.212-1.722-.424.874-.053 1.59-.822 1.59-1.696 0-.954-.742-1.723-1.697-1.723-.953 0-1.722.769-1.722 1.723 0 2.173 1.987 3.26 3.949 3.26 2.543 0 5.3-.875 5.3-3.764 0-1.934-1.326-2.755-2.492-3.126zm-16.377 5.824c0 2.094-1.086 3.207-2.623 4.426l.079-5.168c.053-.238.45-1.007 1.51-1.007.955 0 1.034.901 1.034 1.458zm-.318-3.047a2.98 2.98 0 0 0-2.226.98l.106-8.505a.363.363 0 0 0-.371-.371h-.318a.36.36 0 0 0-.37.37l.131 15.926c0 .212.16.37.372.37a.6.6 0 0 0 .211-.052c2.28-1.14 4.664-3.312 4.664-6.042 0-1.378-.635-2.676-2.199-2.676m-13.96 16.184a7.7 7.7 0 0 1-1.538.16c-3.789 0-7.022-2.65-7.022-6.651 0-3.234 2.28-6.122 4.611-8.135.45-.398.875-.769 1.272-1.166.238 1.43.424 2.676.61 3.762-2.412.716-4.055 3.26-4.055 5.75 0 1.855 1.458 4.4 3.577 4.4.212 0 .451-.107.451-.345 0-.239-.265-.372-.583-.583-1.033-.636-1.616-1.325-1.616-2.623 0-1.617 1.192-2.915 2.755-3.287zm-2.332-27.24c.239-1.06 1.458-3.842 2.836-3.842.397 0 1.033 1.299 1.033 3.127 0 2.756-2.04 4.823-3.869 6.625-.159-1.06-.291-2.094-.291-3.207 0-.98.08-1.881.291-2.703m6.095 22.339c0 1.881-.768 3.815-2.65 4.584a882 882 0 0 1-1.457-8.559c2.385 0 4.107 1.616 4.107 3.975M8.196 43.06c0 1.748 1.352 4.054 4.93 4.054 1.245 0 2.331-.318 3.285-.901 1.431-1.007 1.802-2.756 1.802-4.425 0-1.034-.159-2.226-.424-3.737-.08-.53-.238-1.325-.397-2.358 2.597-.848 4.53-3.55 4.53-6.28 0-4.001-2.834-6.704-6.703-6.704-.265-1.59-.53-3.153-.769-4.637 2.81-2.942 4.744-6.254 4.744-10.467 0-2.411-.742-4.372-1.166-5.326C17.392.927 16.623 0 16.146 0c-.185 0-1.007.318-1.881 1.351-1.696 2.014-2.173 5.406-2.173 7.632 0 1.43.133 2.73.583 5.697-.026.026-1.404 1.43-1.96 1.881-2.412 2.253-5.75 5.459-5.75 10.758 0 4.956 4.318 8.851 9.247 8.851.768 0 1.484-.08 2.093-.186.504 2.545.795 4.4.795 5.804 0 2.755-1.404 4.213-4.08 4.213-.636 0-1.193-.133-1.246-.133-.026-.026-.08-.053-.08-.08 0-.052.054-.079.133-.105 1.246-.186 2.49-1.246 2.49-2.941 0-1.432-1.085-2.941-3.073-2.941-1.855 0-3.047 1.51-3.047 3.259m55.24-25.719c0 1.14.822 2.412 2.968 2.412 2.757 0 5.645-2.253 5.645-4.584 0-1.564-1.325-2.438-2.968-2.438-2.57 0-5.644 2.173-5.644 4.61m535.598-2.143a.99.99 0 0 1-1.06-.954c0-1.298 4.452-3.577 5.697-3.577.636 0 1.06.37 1.06.954 0 1.325-4.479 3.577-5.697 3.577m3.657-5.777c-2.57 0-5.645 2.147-5.645 4.611 0 1.14.822 2.411 2.968 2.411 2.756 0 5.644-2.252 5.644-4.584 0-1.563-1.324-2.438-2.967-2.438m-488.141 7.92c0 1.14.821 2.412 2.968 2.412 2.756 0 5.644-2.253 5.644-4.584 0-1.564-1.325-2.438-2.968-2.438-2.57 0-5.644 2.173-5.644 4.61m431.382-3.309c0 1.14.821 2.411 2.968 2.411 2.756 0 5.644-2.252 5.644-4.584 0-1.563-1.325-2.438-2.967-2.438-2.57 0-5.645 2.173-5.645 4.611m-366.586 0c0 1.14.822 2.411 2.968 2.411 2.755 0 5.644-2.252 5.644-4.584 0-1.563-1.325-2.438-2.968-2.438-2.57 0-5.644 2.173-5.644 4.611m323.046 3.31c0 1.139.821 2.41 2.968 2.41 2.755 0 5.643-2.252 5.643-4.583 0-1.564-1.325-2.438-2.967-2.438-2.57 0-5.644 2.173-5.644 4.61m-275.361 3.31c0 1.14.821 2.411 2.967 2.411 2.757 0 5.644-2.252 5.644-4.584 0-1.563-1.325-2.438-2.967-2.438-2.57 0-5.644 2.173-5.644 4.61m51.114 0c0 1.14.821 2.412 2.968 2.412 2.755 0 5.643-2.252 5.643-4.584 0-1.563-1.324-2.438-2.967-2.438-2.57 0-5.644 2.173-5.644 4.61m159.45-3.309c0 1.14.822 2.412 2.968 2.412 2.756 0 5.645-2.253 5.645-4.584 0-1.564-1.325-2.438-2.969-2.438-2.57 0-5.643 2.173-5.643 4.61m-51.115 0c0 1.14.822 2.412 2.968 2.412 2.756 0 5.645-2.253 5.645-4.584 0-1.564-1.325-2.438-2.969-2.438-2.57 0-5.644 2.173-5.644 4.61m-43.54 3.31c0 1.14.82 2.411 2.968 2.411 2.755 0 5.644-2.252 5.644-4.584 0-1.563-1.325-2.438-2.968-2.438-2.57 0-5.645 2.173-5.645 4.61m0 20.372c0 .186.16.344.346.344.132 0 .29-.105.317-.212 0-.026.239-.953.265-1.032.027-.107.265-1.114 1.219-2.677 1.033-1.722 2.623-2.968 3.948-4.823 1.299-1.855 2.093-3.603 2.093-5.935 0-2.411-.556-4.426-1.96-6.996-.08-.185-.239-.291-.398-.291-.053 0-.106 0-.132.026-.133.053-.186.16-.186.318a.8.8 0 0 0 .08.318c1.06 2.464 1.484 3.869 1.484 5.777 0 2.2-.769 3.338-1.246 4.16-1.722 2.94-4.505 4.372-5.617 4.743-.186.08-.213.212-.213.291zm159.452-1.656a.35.35 0 0 0 .344.345c.132 0 .291-.106.318-.212 0-.027.238-.954.265-1.033.026-.107.265-1.114 1.22-2.677 1.033-1.722 2.623-2.968 3.947-4.823 1.298-1.855 2.093-3.603 2.093-5.935 0-2.411-.556-4.425-1.96-6.996-.08-.185-.24-.291-.398-.291-.053 0-.106 0-.132.027-.133.053-.186.159-.186.317 0 .08.026.212.08.318 1.06 2.465 1.483 3.87 1.483 5.777 0 2.2-.768 3.339-1.245 4.16-1.722 2.941-4.504 4.373-5.618 4.743-.185.08-.211.212-.211.292zm-323.046-3.309a.35.35 0 0 0 .344.344c.133 0 .292-.105.318-.211 0-.027.239-.954.265-1.034.027-.106.265-1.112 1.22-2.676 1.033-1.723 2.623-2.968 3.948-4.823 1.297-1.855 2.092-3.603 2.092-5.935 0-2.412-.556-4.426-1.96-6.996-.08-.185-.239-.291-.397-.291-.054 0-.107 0-.133.026-.132.053-.186.16-.186.318 0 .08.027.212.08.318 1.06 2.464 1.484 3.869 1.484 5.777 0 2.199-.769 3.338-1.245 4.16-1.723 2.941-4.505 4.372-5.618 4.743-.185.08-.212.212-.212.292zM342.943 20.65v20.372h.662V20.65zm43.54-3.31v22.054h.663V17.34Zm51.114 0v22.054h.662V17.34Zm-159.45 3.31v20.399h.662v-20.4Zm224.247-3.31v22.028h.662V17.34zm-275.362 3.31v20.399h.662v-20.4ZM63.438 17.34v22.054h.662V17.34Zm115.91-3.309v22.027h.662V14.031Zm366.587 0v22.054h.662V14.03Zm51.114 0v22.054h.662V14.03Zm-482.498 3.31v22.053h.663V17.34Zm106.434.236 2.357-.477v4.372l-2.357.504zm4.106-.821c.16-.027.292-.212.292-.371V14.82a.36.36 0 0 0-.37-.37h-.054l-.875.185v-3.949h-.742v4.108l-2.357.477v-3.737h-.742v3.896l-1.034.212c-.16.026-.291.212-.291.37v1.537c0 .212.158.371.37.371h.08l.875-.185v4.372l-1.034.212c-.16.027-.291.212-.291.371v1.537c0 .212.158.371.37.371h.08l.875-.186v3.949h.742v-4.107l2.357-.477v3.736h.743v-3.896l1.007-.185c.159-.026.291-.212.291-.37v-1.564a.36.36 0 0 0-.37-.371h-.053l-.875.185v-4.372zm452.268-7.51v27.203H681V9.246Zm-3.64 0v27.203h1.191V9.246Zm-296.701 0v27.203h1.19V9.246Zm159.45 0v27.203h1.192V9.246Zm-323.045 0v27.203h1.191V9.246ZM0 35.72v.727h681v-.727zm0-6.619v.728h681v-.728zm0-6.619v.728h681v-.728zm0-6.618v.727h681v-.727Zm0-6.619v.728h681v-.728Z"/>
</svg>
