<?xml version="1.0" encoding="UTF-8" standalone="no"?>
<svg width="210.058mm" height="296.926mm" viewBox="0 0 9924 14028"
 xmlns="http://www.w3.org/2000/svg" xmlns:xlink="http://www.w3.org/1999/xlink" version="1.2" baseProfile="full">
<title>air_VI</title>
<desc>Generated by MuseScore Studio 4.7.3</desc>
<polyline class="StaffLines" fill="none" stroke="#000000" stroke-width="9.09" stroke-linejoin="bevel" points="708.661,828.424 9215.34,828.424" />
<polyline class="StaffLines" fill="none" stroke="#000000" stroke-width="9.09" stroke-linejoin="bevel" points="708.661,911.101 9215.34,911.101" />
<polyline class="StaffLines" fill="none" stroke="#000000" stroke-width="9.09" stroke-linejoin="bevel" points="708.661,993.778 9215.34,993.778" />
<polyline class="StaffLines" fill="none" stroke="#000000" stroke-width="9.09" stroke-linejoin="bevel" points="708.661,1076.46 9215.34,1076.46" />
<polyline class="StaffLines" fill="none" stroke="#000000" stroke-width="9.09" stroke-linejoin="bevel" points="708.661,1159.13 9215.34,1159.13" />
<polyline class="StaffLines" fill="none" stroke="#000000" stroke-width="9.09" stroke-linejoin="bevel" points="708.661,1696.53 9215.34,1696.53" />
<polyline class="StaffLines" fill="none" stroke="#000000" stroke-width="9.09" stroke-linejoin="bevel" points="708.661,1779.21 9215.34,1779.21" />
<polyline class="StaffLines" fill="none" stroke="#000000" stroke-width="9.09" stroke-linejoin="bevel" points="708.661,1861.89 9215.34,1861.89" />
<polyline class="StaffLines" fill="none" stroke="#000000" stroke-width="9.09" stroke-linejoin="bevel" points="708.661,1944.57 9215.34,1944.57" />
<polyline class="StaffLines" fill="none" stroke="#000000" stroke-width="9.09" stroke-linejoin="bevel" points="708.661,2027.24 9215.34,2027.24" />
<polyline class="StaffLines" fill="none" stroke="#000000" stroke-width="9.09" stroke-linejoin="bevel" points="708.661,2564.64 9215.34,2564.64" />
<polyline class="StaffLines" fill="none" stroke="#000000" stroke-width="9.09" stroke-linejoin="bevel" points="708.661,2647.32 9215.34,2647.32" />
<polyline class="StaffLines" fill="none" stroke="#000000" stroke-width="9.09" stroke-linejoin="bevel" points="708.661,2730 9215.34,2730" />
<polyline class="StaffLines" fill="none" stroke="#000000" stroke-width="9.09" stroke-linejoin="bevel" points="708.661,2812.68 9215.34,2812.68" />
<polyline class="StaffLines" fill="none" stroke="#000000" stroke-width="9.09" stroke-linejoin="bevel" points="708.661,2895.35 9215.34,2895.35" />
<polyline class="BarLine" fill="none" stroke="#000000" stroke-width="14.88" stroke-linejoin="bevel" points="7296.95,823.876 7296.95,1163.68" />
<polyline class="BarLine" fill="none" stroke="#000000" stroke-width="14.88" stroke-linejoin="bevel" points="7371.37,1691.99 7371.37,2031.79" />
<polyline class="BarLine" fill="none" stroke="#000000" stroke-width="14.88" stroke-linejoin="bevel" points="6144.06,1691.99 6144.06,2031.79" />
<polyline class="BarLine" fill="none" stroke="#000000" stroke-width="14.88" stroke-linejoin="bevel" points="2018.51,2560.1 2018.51,2899.9" />
<polyline class="BarLine" fill="none" stroke="#000000" stroke-width="14.88" stroke-linejoin="bevel" points="9131.84,2560.1 9131.84,2899.9" />
<polyline class="BarLine" fill="none" stroke="#000000" stroke-width="45.47" stroke-linejoin="bevel" points="9192.6,2560.1 9192.6,2899.9" />
<polyline class="BarLine" fill="none" stroke="#000000" stroke-width="14.88" stroke-linejoin="bevel" points="2216.23,823.876 2216.23,1163.68" />
<polyline class="BarLine" fill="none" stroke="#000000" stroke-width="14.88" stroke-linejoin="bevel" points="5185.85,1691.99 5185.85,2031.79" />
<polyline class="BarLine" fill="none" stroke="#000000" stroke-width="14.88" stroke-linejoin="bevel" points="8546.48,1691.99 8546.48,2031.79" />
<polyline class="BarLine" fill="none" stroke="#000000" stroke-width="14.88" stroke-linejoin="bevel" points="4367.63,1691.99 4367.63,2031.79" />
<polyline class="BarLine" fill="none" stroke="#000000" stroke-width="14.88" stroke-linejoin="bevel" points="3204.75,823.876 3204.75,1163.68" />
<polyline class="BarLine" fill="none" stroke="#000000" stroke-width="14.88" stroke-linejoin="bevel" points="9207.9,1691.99 9207.9,2031.79" />
<polyline class="BarLine" fill="none" stroke="#000000" stroke-width="14.88" stroke-linejoin="bevel" points="7384.18,2560.1 7384.18,2899.9" />
<polyline class="BarLine" fill="none" stroke="#000000" stroke-width="14.88" stroke-linejoin="bevel" points="3177.9,1691.99 3177.9,2031.79" />
<polyline class="BarLine" fill="none" stroke="#000000" stroke-width="14.88" stroke-linejoin="bevel" points="4985.53,2560.1 4985.53,2899.9" />
<polyline class="BarLine" fill="none" stroke="#000000" stroke-width="14.88" stroke-linejoin="bevel" points="6341.88,823.876 6341.88,1163.68" />
<polyline class="BarLine" fill="none" stroke="#000000" stroke-width="14.88" stroke-linejoin="bevel" points="4182.28,2560.1 4182.28,2899.9" />
<polyline class="BarLine" fill="none" stroke="#000000" stroke-width="14.88" stroke-linejoin="bevel" points="8418.2,823.876 8418.2,1163.68" />
<path class="BarLine" d="M9093.83,952.439 C9093.83,942.84 9086.22,934.896 9076.62,934.896 C9067.02,934.896 9059.41,942.84 9059.41,952.439 C9059.41,962.038 9067.02,969.982 9076.62,969.982 C9086.22,969.982 9093.83,962.038 9093.83,952.439"/>
<path class="BarLine" d="M9093.83,1035.12 C9093.83,1025.52 9086.22,1017.57 9076.62,1017.57 C9067.02,1017.57 9059.41,1025.52 9059.41,1035.12 C9059.41,1044.72 9067.02,1052.66 9076.62,1052.66 C9086.22,1052.66 9093.83,1044.72 9093.83,1035.12"/>
<polyline class="BarLine" fill="none" stroke="#000000" stroke-width="14.88" stroke-linejoin="bevel" points="9131.84,823.876 9131.84,1163.68" />
<polyline class="BarLine" fill="none" stroke="#000000" stroke-width="45.47" stroke-linejoin="bevel" points="9192.6,823.876 9192.6,1163.68" />
<polyline class="BarLine" fill="none" stroke="#000000" stroke-width="14.88" stroke-linejoin="bevel" points="5386.81,823.876 5386.81,1163.68" />
<polyline class="BarLine" fill="none" stroke="#000000" stroke-width="14.88" stroke-linejoin="bevel" points="4571.21,823.876 4571.21,1163.68" />
<polyline class="BarLine" fill="none" stroke="#000000" stroke-width="14.88" stroke-linejoin="bevel" points="6157.29,2560.1 6157.29,2899.9" />
<polyline class="BarLine" fill="none" stroke="#000000" stroke-width="14.88" stroke-linejoin="bevel" points="3010.52,2560.1 3010.52,2899.9" />
<polyline class="BarLine" fill="none" stroke="#000000" stroke-width="45.47" stroke-linejoin="bevel" points="1135.72,1691.99 1135.72,2031.79" />
<polyline class="BarLine" fill="none" stroke="#000000" stroke-width="14.88" stroke-linejoin="bevel" points="1196.48,1691.99 1196.48,2031.79" />
<path class="BarLine" d="M1268.93,1820.55 C1268.93,1810.95 1261.32,1803.01 1251.72,1803.01 C1242.12,1803.01 1234.51,1810.95 1234.51,1820.55 C1234.51,1830.15 1242.12,1838.09 1251.72,1838.09 C1261.32,1838.09 1268.93,1830.15 1268.93,1820.55"/>
<path class="BarLine" d="M1268.93,1903.23 C1268.93,1893.63 1261.32,1885.68 1251.72,1885.68 C1242.12,1885.68 1234.51,1893.63 1234.51,1903.23 C1234.51,1912.83 1242.12,1920.77 1251.72,1920.77 C1261.32,1920.77 1268.93,1912.83 1268.93,1903.23"/>
<polyline class="BarLine" fill="none" stroke="#000000" stroke-width="14.88" stroke-linejoin="bevel" points="2219.69,1691.99 2219.69,2031.79" />
<polyline class="BarLine" fill="none" stroke="#000000" stroke-width="14.88" stroke-linejoin="bevel" points="8492.58,2560.1 8492.58,2899.9" />
<path class="SlurSegment" stroke="#000000" stroke-width="4.13" stroke-linecap="round" stroke-linejoin="round" fill-rule="evenodd" d="M3369.28,892.085 C3411.66,786.161 3548.1,744.822 3642.14,809.408 C3555.24,768.397 3418.81,809.735 3369.28,892.085"/>
<path class="SlurSegment" stroke="#000000" stroke-width="4.13" stroke-linecap="round" stroke-linejoin="round" fill-rule="evenodd" d="M3828.11,878.03 C3880.06,809.319 3973.04,816.347 4014.07,892.085 C3971.48,836.976 3878.5,829.949 3828.11,878.03"/>
<path class="SlurSegment" stroke="#000000" stroke-width="4.13" stroke-linecap="round" stroke-linejoin="round" fill-rule="evenodd" d="M4200.04,878.03 C4277.22,829.672 4370.2,871.01 4386,960.707 C4361.52,890.536 4268.54,849.198 4200.04,878.03"/>
<path class="Accidental" d="M5781.07,1961.41 L5810.53,1955.45 L5810.53,2010.07 L5781.07,2016.36 L5781.07,1961.41 M5832.38,1951.15 C5834.36,1950.82 5836.02,1948.5 5836.02,1946.52 L5836.02,1926.99 C5836.02,1924.34 5834.03,1922.35 5831.38,1922.35 L5830.72,1922.35 L5819.8,1924.67 L5819.8,1875.35 L5810.53,1875.35 L5810.53,1926.66 L5781.07,1932.61 L5781.07,1885.94 L5771.8,1885.94 L5771.8,1934.6 L5758.9,1937.25 C5756.91,1937.58 5755.25,1939.9 5755.25,1941.88 L5755.25,1961.08 C5755.25,1963.73 5757.24,1965.71 5759.89,1965.71 L5760.88,1965.71 L5771.8,1963.4 L5771.8,2018.01 L5758.9,2020.66 C5756.91,2020.99 5755.25,2023.31 5755.25,2025.29 L5755.25,2044.49 C5755.25,2047.14 5757.24,2049.13 5759.89,2049.13 L5760.88,2049.13 L5771.8,2046.81 L5771.8,2096.13 L5781.07,2096.13 L5781.07,2044.82 L5810.53,2038.86 L5810.53,2085.54 L5819.8,2085.54 L5819.8,2036.88 L5832.38,2034.56 C5834.36,2034.23 5836.02,2031.91 5836.02,2029.93 L5836.02,2010.4 C5836.02,2007.75 5834.03,2005.76 5831.38,2005.76 L5830.72,2005.76 L5819.8,2008.08 L5819.8,1953.47 L5832.38,1951.15 "/>
<path class="Accidental" d="M7088.3,2014 C7088.3,2040.15 7074.73,2054.05 7055.53,2069.28 L7056.52,2004.73 C7057.18,2001.76 7062.15,1992.16 7075.39,1992.16 C7087.31,1992.16 7088.3,2003.41 7088.3,2010.36 L7088.3,2014 M7084.33,1975.94 C7067.78,1975.94 7058.18,1986.2 7056.52,1988.18 L7057.85,1881.93 C7057.85,1879.29 7055.86,1877.3 7053.21,1877.3 L7049.24,1877.3 C7046.59,1877.3 7044.61,1879.29 7044.61,1881.93 L7046.26,2080.86 C7046.26,2083.51 7048.25,2085.5 7050.9,2085.5 C7051.56,2085.5 7052.88,2085.17 7053.54,2084.84 C7082.01,2070.6 7111.8,2043.46 7111.8,2009.37 C7111.8,1992.16 7103.86,1975.94 7084.33,1975.94"/>
<path class="Accidental" d="M2105.5,2788.18 L2134.96,2782.22 L2134.96,2836.84 L2105.5,2843.13 L2105.5,2788.18 M2156.81,2777.92 C2158.8,2777.59 2160.45,2775.27 2160.45,2773.29 L2160.45,2753.76 C2160.45,2751.11 2158.46,2749.12 2155.82,2749.12 L2155.15,2749.12 L2144.23,2751.44 L2144.23,2702.12 L2134.96,2702.12 L2134.96,2753.43 L2105.5,2759.38 L2105.5,2712.71 L2096.24,2712.71 L2096.24,2761.37 L2083.33,2764.02 C2081.34,2764.35 2079.69,2766.67 2079.69,2768.65 L2079.69,2787.85 C2079.69,2790.5 2081.67,2792.48 2084.32,2792.48 L2085.31,2792.48 L2096.24,2790.17 L2096.24,2844.78 L2083.33,2847.43 C2081.34,2847.76 2079.69,2850.08 2079.69,2852.06 L2079.69,2871.26 C2079.69,2873.91 2081.67,2875.9 2084.32,2875.9 L2085.31,2875.9 L2096.24,2873.58 L2096.24,2922.9 L2105.5,2922.9 L2105.5,2871.59 L2134.96,2865.64 L2134.96,2912.31 L2144.23,2912.31 L2144.23,2863.65 L2156.81,2861.33 C2158.8,2861 2160.45,2858.68 2160.45,2856.7 L2160.45,2837.17 C2160.45,2834.52 2158.46,2832.54 2155.82,2832.54 L2155.15,2832.54 L2144.23,2834.85 L2144.23,2780.24 L2156.81,2777.92 "/>
<path class="Accidental" d="M7644.4,1961.41 L7673.86,1955.45 L7673.86,2010.07 L7644.4,2016.36 L7644.4,1961.41 M7695.71,1951.15 C7697.7,1950.82 7699.35,1948.5 7699.35,1946.52 L7699.35,1926.99 C7699.35,1924.34 7697.36,1922.35 7694.72,1922.35 L7694.05,1922.35 L7683.13,1924.67 L7683.13,1875.35 L7673.86,1875.35 L7673.86,1926.66 L7644.4,1932.61 L7644.4,1885.94 L7635.14,1885.94 L7635.14,1934.6 L7622.23,1937.25 C7620.24,1937.58 7618.59,1939.9 7618.59,1941.88 L7618.59,1961.08 C7618.59,1963.73 7620.57,1965.71 7623.22,1965.71 L7624.21,1965.71 L7635.14,1963.4 L7635.14,2018.01 L7622.23,2020.66 C7620.24,2020.99 7618.59,2023.31 7618.59,2025.29 L7618.59,2044.49 C7618.59,2047.14 7620.57,2049.13 7623.22,2049.13 L7624.21,2049.13 L7635.14,2046.81 L7635.14,2096.13 L7644.4,2096.13 L7644.4,2044.82 L7673.86,2038.86 L7673.86,2085.54 L7683.13,2085.54 L7683.13,2036.88 L7695.71,2034.56 C7697.7,2034.23 7699.35,2031.91 7699.35,2029.93 L7699.35,2010.4 C7699.35,2007.75 7697.36,2005.76 7694.72,2005.76 L7694.05,2005.76 L7683.13,2008.08 L7683.13,1953.47 L7695.71,1951.15 "/>
<path class="Accidental" d="M1387.5,2829.52 L1416.95,2823.56 L1416.95,2878.18 L1387.5,2884.47 L1387.5,2829.52 M1438.8,2819.26 C1440.79,2818.93 1442.44,2816.61 1442.44,2814.63 L1442.44,2795.1 C1442.44,2792.45 1440.46,2790.46 1437.81,2790.46 L1437.15,2790.46 L1426.22,2792.78 L1426.22,2743.46 L1416.95,2743.46 L1416.95,2794.77 L1387.5,2800.72 L1387.5,2754.05 L1378.23,2754.05 L1378.23,2802.71 L1365.32,2805.36 C1363.33,2805.69 1361.68,2808.01 1361.68,2809.99 L1361.68,2829.19 C1361.68,2831.84 1363.66,2833.82 1366.31,2833.82 L1367.3,2833.82 L1378.23,2831.51 L1378.23,2886.12 L1365.32,2888.77 C1363.33,2889.1 1361.68,2891.42 1361.68,2893.4 L1361.68,2912.6 C1361.68,2915.25 1363.66,2917.24 1366.31,2917.24 L1367.3,2917.24 L1378.23,2914.92 L1378.23,2964.24 L1387.5,2964.24 L1387.5,2912.93 L1416.95,2906.97 L1416.95,2953.65 L1426.22,2953.65 L1426.22,2904.99 L1438.8,2902.67 C1440.79,2902.34 1442.44,2900.02 1442.44,2898.04 L1442.44,2878.51 C1442.44,2875.86 1440.46,2873.87 1437.81,2873.87 L1437.15,2873.87 L1426.22,2876.19 L1426.22,2821.58 L1438.8,2819.26 "/>
<path class="Accidental" d="M7069.68,2788.18 L7099.14,2782.22 L7099.14,2836.84 L7069.68,2843.13 L7069.68,2788.18 M7120.98,2777.92 C7122.97,2777.59 7124.62,2775.27 7124.62,2773.29 L7124.62,2753.76 C7124.62,2751.11 7122.64,2749.12 7119.99,2749.12 L7119.33,2749.12 L7108.4,2751.44 L7108.4,2702.12 L7099.14,2702.12 L7099.14,2753.43 L7069.68,2759.38 L7069.68,2712.71 L7060.41,2712.71 L7060.41,2761.37 L7047.5,2764.02 C7045.51,2764.35 7043.86,2766.67 7043.86,2768.65 L7043.86,2787.85 C7043.86,2790.5 7045.85,2792.48 7048.49,2792.48 L7049.49,2792.48 L7060.41,2790.17 L7060.41,2844.78 L7047.5,2847.43 C7045.51,2847.76 7043.86,2850.08 7043.86,2852.06 L7043.86,2871.26 C7043.86,2873.91 7045.85,2875.9 7048.49,2875.9 L7049.49,2875.9 L7060.41,2873.58 L7060.41,2922.9 L7069.68,2922.9 L7069.68,2871.59 L7099.14,2865.64 L7099.14,2912.31 L7108.4,2912.31 L7108.4,2863.65 L7120.98,2861.33 C7122.97,2861 7124.62,2858.68 7124.62,2856.7 L7124.62,2837.17 C7124.62,2834.52 7122.64,2832.54 7119.99,2832.54 L7119.33,2832.54 L7108.4,2834.85 L7108.4,2780.24 L7120.98,2777.92 "/>
<path class="Accidental" d="M2303.23,1051.96 L2332.68,1046 L2332.68,1100.62 L2303.23,1106.91 L2303.23,1051.96 M2354.53,1041.7 C2356.52,1041.37 2358.17,1039.05 2358.17,1037.07 L2358.17,1017.54 C2358.17,1014.89 2356.19,1012.9 2353.54,1012.9 L2352.88,1012.9 L2341.95,1015.22 L2341.95,965.901 L2332.68,965.901 L2332.68,1017.21 L2303.23,1023.16 L2303.23,976.493 L2293.96,976.493 L2293.96,1025.15 L2281.05,1027.8 C2279.06,1028.13 2277.41,1030.45 2277.41,1032.43 L2277.41,1051.63 C2277.41,1054.28 2279.39,1056.26 2282.04,1056.26 L2283.03,1056.26 L2293.96,1053.95 L2293.96,1108.56 L2281.05,1111.21 C2279.06,1111.54 2277.41,1113.86 2277.41,1115.84 L2277.41,1135.04 C2277.41,1137.69 2279.39,1139.68 2282.04,1139.68 L2283.03,1139.68 L2293.96,1137.36 L2293.96,1186.68 L2303.23,1186.68 L2303.23,1135.37 L2332.68,1129.42 L2332.68,1176.09 L2341.95,1176.09 L2341.95,1127.43 L2354.53,1125.11 C2356.52,1124.78 2358.17,1122.46 2358.17,1120.48 L2358.17,1100.95 C2358.17,1098.3 2356.19,1096.32 2353.54,1096.32 L2352.88,1096.32 L2341.95,1098.63 L2341.95,1044.02 L2354.53,1041.7 "/>
<path class="Accidental" d="M6935.01,1051.96 L6964.47,1046 L6964.47,1100.62 L6935.01,1106.91 L6935.01,1051.96 M6986.31,1041.7 C6988.3,1041.37 6989.95,1039.05 6989.95,1037.07 L6989.95,1017.54 C6989.95,1014.89 6987.97,1012.9 6985.32,1012.9 L6984.66,1012.9 L6973.73,1015.22 L6973.73,965.901 L6964.47,965.901 L6964.47,1017.21 L6935.01,1023.16 L6935.01,976.493 L6925.74,976.493 L6925.74,1025.15 L6912.83,1027.8 C6910.84,1028.13 6909.19,1030.45 6909.19,1032.43 L6909.19,1051.63 C6909.19,1054.28 6911.17,1056.26 6913.82,1056.26 L6914.82,1056.26 L6925.74,1053.95 L6925.74,1108.56 L6912.83,1111.21 C6910.84,1111.54 6909.19,1113.86 6909.19,1115.84 L6909.19,1135.04 C6909.19,1137.69 6911.17,1139.68 6913.82,1139.68 L6914.82,1139.68 L6925.74,1137.36 L6925.74,1186.68 L6935.01,1186.68 L6935.01,1135.37 L6964.47,1129.42 L6964.47,1176.09 L6973.73,1176.09 L6973.73,1127.43 L6986.31,1125.11 C6988.3,1124.78 6989.95,1122.46 6989.95,1120.48 L6989.95,1100.95 C6989.95,1098.3 6987.97,1096.32 6985.32,1096.32 L6984.66,1096.32 L6973.73,1098.63 L6973.73,1044.02 L6986.31,1041.7 "/>
<polyline class="LedgerLine" fill="none" stroke="#000000" stroke-width="13.23" stroke-linejoin="bevel" points="4871.13,2109.92 5033.19,2109.92" />
<polyline class="Stem" fill="none" stroke="#000000" stroke-width="8.27" stroke-linejoin="bevel" points="7235.76,2014.01 7235.76,1779.21" />
<polyline class="Stem" fill="none" stroke="#000000" stroke-width="8.27" stroke-linejoin="bevel" points="6632.31,1875.78 6632.31,2109.92" />
<polyline class="Stem" fill="none" stroke="#000000" stroke-width="8.27" stroke-linejoin="bevel" points="7113.91,1063.23 7113.91,787.085" />
<polyline class="Stem" fill="none" stroke="#000000" stroke-width="8.27" stroke-linejoin="bevel" points="6834.96,1145.9 6834.96,869.762" />
<polyline class="Stem" fill="none" stroke="#000000" stroke-width="8.27" stroke-linejoin="bevel" points="7511.08,1021.89 7511.08,786.645" />
<polyline class="Stem" fill="none" stroke="#000000" stroke-width="8.27" stroke-linejoin="bevel" points="4297.2,2743.89 4297.2,2978.03" />
<polyline class="Stem" fill="none" stroke="#000000" stroke-width="8.27" stroke-linejoin="bevel" points="6456.8,966.329 6456.8,1221.14" />
<polyline class="Stem" fill="none" stroke="#000000" stroke-width="8.27" stroke-linejoin="bevel" points="7697.05,980.55 7697.05,766.856" />
<polyline class="Stem" fill="none" stroke="#000000" stroke-width="8.27" stroke-linejoin="bevel" points="5100.45,2743.89 5100.45,2956.91" />
<polyline class="Stem" fill="none" stroke="#000000" stroke-width="8.27" stroke-linejoin="bevel" points="7783.8,1007.67 7783.8,1241.81" />
<polyline class="Stem" fill="none" stroke="#000000" stroke-width="8.27" stroke-linejoin="bevel" points="5399.98,2014.01 5399.98,1737.87" />
<polyline class="Stem" fill="none" stroke="#000000" stroke-width="8.27" stroke-linejoin="bevel" points="6059.62,1007.67 6059.62,1241.81" />
<polyline class="Stem" fill="none" stroke="#000000" stroke-width="8.27" stroke-linejoin="bevel" points="7011.52,2014.01 7011.52,1779.21" />
<polyline class="Stem" fill="none" stroke="#000000" stroke-width="8.27" stroke-linejoin="bevel" points="8236.63,1021.89 8236.63,767.077" />
<polyline class="Stem" fill="none" stroke="#000000" stroke-width="8.27" stroke-linejoin="bevel" points="3582.12,2743.89 3582.12,2956.91" />
<polyline class="Stem" fill="none" stroke="#000000" stroke-width="8.27" stroke-linejoin="bevel" points="5283.12,2702.55 5283.12,2937.14" />
<polyline class="Stem" fill="none" stroke="#000000" stroke-width="8.27" stroke-linejoin="bevel" points="5879.89,1021.89 5879.89,766.416" />
<polyline class="Stem" fill="none" stroke="#000000" stroke-width="8.27" stroke-linejoin="bevel" points="8632.33,1021.89 8632.33,766.416" />
<polyline class="Stem" fill="none" stroke="#000000" stroke-width="8.27" stroke-linejoin="bevel" points="3399.45,2661.21 3399.45,2937.14" />
<polyline class="Stem" fill="none" stroke="#000000" stroke-width="8.27" stroke-linejoin="bevel" points="3224.66,2758.11 3224.66,2502.64" />
<polyline class="Stem" fill="none" stroke="#000000" stroke-width="8.27" stroke-linejoin="bevel" points="5465.79,2661.21 5465.79,2936.69" />
<polyline class="Stem" fill="none" stroke="#000000" stroke-width="8.27" stroke-linejoin="bevel" points="5501.73,883.652 5501.73,1159.13" />
<polyline class="Stem" fill="none" stroke="#000000" stroke-width="8.27" stroke-linejoin="bevel" points="5739.8,2702.55 5739.8,2937.14" />
<polyline class="Stem" fill="none" stroke="#000000" stroke-width="8.27" stroke-linejoin="bevel" points="5203.76,1145.9 5203.76,869.762" />
<polyline class="Stem" fill="none" stroke="#000000" stroke-width="8.27" stroke-linejoin="bevel" points="5922.47,2743.89 5922.47,2956.91" />
<polyline class="Stem" fill="none" stroke="#000000" stroke-width="8.27" stroke-linejoin="bevel" points="4686.13,1007.67 4686.13,1241.81" />
<polyline class="Stem" fill="none" stroke="#000000" stroke-width="8.27" stroke-linejoin="bevel" points="4336.39,1049.01 4336.39,1262.04" />
<polyline class="Stem" fill="none" stroke="#000000" stroke-width="8.27" stroke-linejoin="bevel" points="6272.21,2702.55 6272.21,2915.57" />
<polyline class="Stem" fill="none" stroke="#000000" stroke-width="8.27" stroke-linejoin="bevel" points="1475.61,1931.34 1475.61,1655.2" />
<polyline class="Stem" fill="none" stroke="#000000" stroke-width="8.27" stroke-linejoin="bevel" points="2733.21,2702.55 2733.21,2957.36" />
<polyline class="Stem" fill="none" stroke="#000000" stroke-width="8.27" stroke-linejoin="bevel" points="1755.6,2014.01 1755.6,1737.87" />
<polyline class="Stem" fill="none" stroke="#000000" stroke-width="8.27" stroke-linejoin="bevel" points="2558.41,2882.12 2558.41,2605.98" />
<polyline class="Stem" fill="none" stroke="#000000" stroke-width="8.27" stroke-linejoin="bevel" points="2035.6,1931.34 2035.6,1655.2" />
<polyline class="Stem" fill="none" stroke="#000000" stroke-width="8.27" stroke-linejoin="bevel" points="4150.43,966.329 4150.43,1242.25" />
<polyline class="Stem" fill="none" stroke="#000000" stroke-width="8.27" stroke-linejoin="bevel" points="6454.88,2661.21 6454.88,2895.8" />
<polyline class="Stem" fill="none" stroke="#000000" stroke-width="8.27" stroke-linejoin="bevel" points="3964.46,1007.67 3964.46,1220.7" />
<polyline class="Stem" fill="none" stroke="#000000" stroke-width="8.27" stroke-linejoin="bevel" points="2334.61,1834.44 2334.61,2089.25" />
<polyline class="Stem" fill="none" stroke="#000000" stroke-width="8.27" stroke-linejoin="bevel" points="2284.41,2799.45 2284.41,2523.31" />
<polyline class="Stem" fill="none" stroke="#000000" stroke-width="8.27" stroke-linejoin="bevel" points="2713.82,1931.34 2713.82,1655.2" />
<polyline class="Stem" fill="none" stroke="#000000" stroke-width="8.27" stroke-linejoin="bevel" points="6637.55,2619.87 6637.55,2895.35" />
<polyline class="Stem" fill="none" stroke="#000000" stroke-width="8.27" stroke-linejoin="bevel" points="2993.81,1890 2993.81,1634.53" />
<polyline class="Stem" fill="none" stroke="#000000" stroke-width="8.27" stroke-linejoin="bevel" points="7010.77,2758.11 7010.77,2544.32" />
<polyline class="Stem" fill="none" stroke="#000000" stroke-width="8.27" stroke-linejoin="bevel" points="3778.5,966.329 3778.5,1200.91" />
<polyline class="Stem" fill="none" stroke="#000000" stroke-width="8.27" stroke-linejoin="bevel" points="7248.58,2799.45 7248.58,2564.3" />
<polyline class="Stem" fill="none" stroke="#000000" stroke-width="8.27" stroke-linejoin="bevel" points="3392.04,2014.01 3392.04,1778.77" />
<polyline class="Stem" fill="none" stroke="#000000" stroke-width="8.27" stroke-linejoin="bevel" points="1741.19,2743.89 1741.19,2978.03" />
<polyline class="Stem" fill="none" stroke="#000000" stroke-width="8.27" stroke-linejoin="bevel" points="3592.53,924.991 3592.53,1201.08" />
<polyline class="Stem" fill="none" stroke="#000000" stroke-width="8.27" stroke-linejoin="bevel" points="3578.7,1972.68 3578.7,1758.98" />
<polyline class="Stem" fill="none" stroke="#000000" stroke-width="8.27" stroke-linejoin="bevel" points="1566.4,2840.79 1566.4,2564.64" />
<polyline class="Stem" fill="none" stroke="#000000" stroke-width="8.27" stroke-linejoin="bevel" points="3765.37,1931.34 3765.37,1655.2" />
<polyline class="Stem" fill="none" stroke="#000000" stroke-width="8.27" stroke-linejoin="bevel" points="1292.39,2758.11 1292.39,2502.64" />
<polyline class="Stem" fill="none" stroke="#000000" stroke-width="8.27" stroke-linejoin="bevel" points="4045.36,1972.68 4045.36,1758.98" />
<polyline class="Stem" fill="none" stroke="#000000" stroke-width="8.27" stroke-linejoin="bevel" points="3456.1,966.329 3456.1,1221.14" />
<polyline class="Stem" fill="none" stroke="#000000" stroke-width="8.27" stroke-linejoin="bevel" points="3319.67,1007.67 3319.67,1241.2" />
<polyline class="Stem" fill="none" stroke="#000000" stroke-width="8.27" stroke-linejoin="bevel" points="4232.03,2014.01 4232.03,1778.77" />
<polyline class="Stem" fill="none" stroke="#000000" stroke-width="8.27" stroke-linejoin="bevel" points="8760.62,2014.01 8760.62,1737.87" />
<polyline class="Stem" fill="none" stroke="#000000" stroke-width="8.27" stroke-linejoin="bevel" points="7598.32,2758.11 7598.32,2522.86" />
<polyline class="Stem" fill="none" stroke="#000000" stroke-width="8.27" stroke-linejoin="bevel" points="3021.71,1021.89 3021.71,766.416" />
<polyline class="Stem" fill="none" stroke="#000000" stroke-width="8.27" stroke-linejoin="bevel" points="4581.76,2055.35 4581.76,1779.21" />
<polyline class="Stem" fill="none" stroke="#000000" stroke-width="8.27" stroke-linejoin="bevel" points="7780.99,2716.77 7780.99,2503.08" />
<polyline class="Stem" fill="none" stroke="#000000" stroke-width="8.27" stroke-linejoin="bevel" points="5001.76,2096.69 5001.76,1820.55" />
<polyline class="Stem" fill="none" stroke="#000000" stroke-width="8.27" stroke-linejoin="bevel" points="2736.53,1007.67 2736.53,1262.15" />
<polyline class="Stem" fill="none" stroke="#000000" stroke-width="8.27" stroke-linejoin="bevel" points="3764.79,2702.55 3764.79,2978.48" />
<polyline class="Stem" fill="none" stroke="#000000" stroke-width="8.27" stroke-linejoin="bevel" points="7864.45,2743.89 7864.45,2978.03" />
<polyline class="Stem" fill="none" stroke="#000000" stroke-width="8.27" stroke-linejoin="bevel" points="3947.47,2785.23 3947.47,2998.25" />
<polyline class="Stem" fill="none" stroke="#000000" stroke-width="8.27" stroke-linejoin="bevel" points="2482.13,1063.23 2482.13,787.085" />
<polyline class="Stem" fill="none" stroke="#000000" stroke-width="8.27" stroke-linejoin="bevel" points="8311.01,2758.11 8311.01,2503.3" />
<polyline class="Stem" fill="none" stroke="#000000" stroke-width="8.27" stroke-linejoin="bevel" points="8364.91,2014.01 8364.91,1738.53" />
<polyline class="Stem" fill="none" stroke="#000000" stroke-width="8.27" stroke-linejoin="bevel" points="5679.98,1890 5679.98,1634.53" />
<polyline class="Stem" fill="none" stroke="#000000" stroke-width="8.27" stroke-linejoin="bevel" points="5959.97,1972.68 5959.97,1696.53" />
<polyline class="Stem" fill="none" stroke="#000000" stroke-width="8.27" stroke-linejoin="bevel" points="8009.97,1972.68 8009.97,1696.53" />
<polyline class="Stem" fill="none" stroke="#000000" stroke-width="8.27" stroke-linejoin="bevel" points="1933.97,1007.67 1933.97,1241.81" />
<polyline class="Stem" fill="none" stroke="#000000" stroke-width="8.27" stroke-linejoin="bevel" points="1754.24,1021.89 1754.24,766.416" />
<polyline class="Stem" fill="none" stroke="#000000" stroke-width="8.27" stroke-linejoin="bevel" points="1376.08,966.329 1376.08,1221.14" />
<polyline class="Stem" fill="none" stroke="#000000" stroke-width="8.27" stroke-linejoin="bevel" points="6358.2,1931.34 6358.2,1696.1" />
<polyline class="Stem" fill="none" stroke="#000000" stroke-width="8.27" stroke-linejoin="bevel" points="8706.72,2758.11 8706.72,2502.64" />
<polyline class="Stem" fill="none" stroke="#000000" stroke-width="8.27" stroke-linejoin="bevel" points="7823.31,1972.68 7823.31,1758.89" />
<polyline class="Stem" fill="none" stroke="#000000" stroke-width="8.27" stroke-linejoin="bevel" points="6544.86,1890 6544.86,1676.3" />
<polyline class="Stem" fill="none" stroke="#000000" stroke-width="8.27" stroke-linejoin="bevel" points="7585.5,2014.01 7585.5,1778.86" />
<polyline class="Stem" fill="none" stroke="#000000" stroke-width="8.27" stroke-linejoin="bevel" points="4807.43,2882.12 4807.43,2605.98" />
<path class="Hook" d="M8360.78,1813.01 C8360.78,1814 8361.11,1815.66 8363.43,1816.65 C8377.66,1821.28 8406.13,1839.16 8427.64,1875.9 C8433.6,1886.16 8443.2,1900.39 8443.2,1927.87 C8443.2,1951.7 8436.91,1976.19 8428.3,2000.02 C8427.64,2002.01 8426.98,2003.67 8427.31,2004.99 C8427.31,2006.98 8428.63,2008.3 8430.62,2008.3 C8432.94,2008.3 8434.59,2006.98 8435.92,2004.66 C8450.81,1978.18 8456.44,1947.4 8456.44,1917.27 C8454.78,1874.58 8430.29,1843.13 8430.29,1843.13 C8431.28,1843.13 8399.84,1802.42 8390.9,1788.52 C8378.65,1769.65 8373.03,1750.78 8372.36,1749.46 C8372.03,1748.46 8369.05,1736.55 8369.05,1736.55 C8368.72,1735.22 8367.07,1733.9 8365.08,1733.9 C8362.76,1733.9 8360.78,1735.89 8360.78,1738.2 L8360.78,1813.01 "/>
<path class="Hook" d="M8232.49,841.553 C8232.49,842.546 8232.83,844.201 8235.14,845.194 C8249.38,849.828 8277.84,867.702 8299.36,904.443 C8305.31,914.704 8314.91,928.937 8314.91,956.41 C8314.91,980.242 8308.62,1004.74 8300.02,1028.57 C8299.36,1030.55 8298.69,1032.21 8299.03,1033.53 C8299.03,1035.52 8300.35,1036.84 8302.34,1036.84 C8304.65,1036.84 8306.31,1035.52 8307.63,1033.2 C8322.53,1006.72 8328.15,975.939 8328.15,945.818 C8326.5,903.119 8302,871.674 8302,871.674 C8303,871.674 8271.55,830.961 8262.62,817.059 C8250.37,798.192 8244.74,779.325 8244.08,778.001 C8243.75,777.008 8240.77,765.092 8240.77,765.092 C8240.44,763.768 8238.78,762.444 8236.8,762.444 C8234.48,762.444 8232.49,764.43 8232.49,766.747 L8232.49,841.553 "/>
<path class="Hook" d="M8306.88,2577.77 C8306.88,2578.77 8307.21,2580.42 8309.52,2581.41 C8323.76,2586.05 8352.22,2603.92 8373.74,2640.66 C8379.7,2650.92 8389.3,2665.16 8389.3,2692.63 C8389.3,2716.46 8383.01,2740.96 8374.4,2764.79 C8373.74,2766.77 8373.08,2768.43 8373.41,2769.75 C8373.41,2771.74 8374.73,2773.06 8376.72,2773.06 C8379.03,2773.06 8380.69,2771.74 8382.01,2769.42 C8396.91,2742.94 8402.54,2712.16 8402.54,2682.04 C8400.88,2639.34 8376.39,2607.89 8376.39,2607.89 C8377.38,2607.89 8345.93,2567.18 8337,2553.28 C8324.75,2534.41 8319.12,2515.55 8318.46,2514.22 C8318.13,2513.23 8315.15,2501.31 8315.15,2501.31 C8314.82,2499.99 8313.17,2498.66 8311.18,2498.66 C8308.86,2498.66 8306.88,2500.65 8306.88,2502.97 L8306.88,2577.77 "/>
<path class="Hook" d="M2732.39,1262.15 C2732.39,1264.46 2734.38,1266.45 2736.7,1266.45 C2738.35,1266.45 2740.34,1265.13 2740.67,1263.8 C2740.67,1263.47 2743.65,1251.89 2743.98,1250.89 C2744.31,1249.57 2747.29,1236.99 2759.2,1217.46 C2772.11,1195.95 2791.97,1180.39 2808.52,1157.22 C2824.74,1134.05 2834.67,1112.2 2834.67,1083.08 C2834.67,1052.96 2827.72,1027.8 2810.18,995.693 C2809.19,993.376 2807.2,992.052 2805.21,992.052 C2804.55,992.052 2803.89,992.052 2803.56,992.383 C2801.9,993.045 2801.24,994.369 2801.24,996.355 C2801.24,997.348 2801.57,999.003 2802.23,1000.33 C2815.47,1031.11 2820.77,1048.65 2820.77,1072.48 C2820.77,1099.96 2811.17,1114.19 2805.21,1124.45 C2783.7,1161.19 2748.94,1179.07 2735.04,1183.7 C2732.72,1184.69 2732.39,1186.35 2732.39,1187.34 L2732.39,1262.15 "/>
<path class="Note" d="M8628.19,2799.8 C8617.27,2799.8 8614.95,2790.87 8614.95,2787.89 C8614.95,2771.67 8670.56,2743.2 8686.12,2743.2 C8694.06,2743.2 8699.36,2747.84 8699.36,2755.12 C8699.36,2771.67 8643.42,2799.8 8628.19,2799.8 M8673.87,2727.65 C8641.76,2727.65 8603.37,2754.46 8603.37,2785.24 C8603.37,2799.47 8613.63,2815.36 8640.44,2815.36 C8674.86,2815.36 8710.94,2787.23 8710.94,2758.1 C8710.94,2738.57 8694.39,2727.65 8673.87,2727.65"/>
<path class="Note" d="M6268.08,2702.56 C6268.08,2716.79 6278.34,2732.68 6305.15,2732.68 C6339.57,2732.68 6375.65,2704.55 6375.65,2675.42 C6375.65,2655.89 6359.1,2644.97 6338.58,2644.97 C6306.47,2644.97 6268.08,2672.11 6268.08,2702.56"/>
<path class="Note" d="M5296.64,2041.14 C5296.64,2055.38 5306.9,2071.27 5333.71,2071.27 C5368.13,2071.27 5404.21,2043.13 5404.21,2014 C5404.21,1994.47 5387.66,1983.55 5367.14,1983.55 C5335.03,1983.55 5296.64,2010.69 5296.64,2041.14"/>
<path class="Note" d="M6908.18,2041.14 C6908.18,2055.38 6918.44,2071.27 6945.25,2071.27 C6979.67,2071.27 7015.75,2043.13 7015.75,2014 C7015.75,1994.47 6999.2,1983.55 6978.68,1983.55 C6946.57,1983.55 6908.18,2010.69 6908.18,2041.14"/>
<path class="Note" d="M6628.18,1875.79 C6628.18,1890.02 6638.44,1905.91 6665.25,1905.91 C6699.68,1905.91 6735.75,1877.78 6735.75,1848.65 C6735.75,1829.12 6719.2,1818.2 6698.68,1818.2 C6666.58,1818.2 6628.18,1845.34 6628.18,1875.79"/>
<path class="Note" d="M6441.52,1917.13 C6441.52,1931.36 6451.78,1947.25 6478.59,1947.25 C6513.01,1947.25 6549.09,1919.11 6549.09,1889.99 C6549.09,1870.46 6532.54,1859.53 6512.02,1859.53 C6479.91,1859.53 6441.52,1886.68 6441.52,1917.13"/>
<path class="Note" d="M7482.16,2041.14 C7482.16,2055.38 7492.42,2071.27 7519.23,2071.27 C7553.65,2071.27 7589.73,2043.13 7589.73,2014 C7589.73,1994.47 7573.18,1983.55 7552.66,1983.55 C7520.55,1983.55 7482.16,2010.69 7482.16,2041.14"/>
<path class="Note" d="M1371.94,966.341 C1371.94,980.574 1382.2,996.462 1409.01,996.462 C1443.44,996.462 1479.52,968.327 1479.52,939.199 C1479.52,919.67 1462.97,908.747 1442.44,908.747 C1410.34,908.747 1371.94,935.889 1371.94,966.341"/>
<path class="Note" d="M1650.89,1049.02 C1650.89,1063.25 1661.15,1079.14 1687.96,1079.14 C1722.39,1079.14 1758.46,1051 1758.46,1021.88 C1758.46,1002.35 1741.91,991.425 1721.39,991.425 C1689.29,991.425 1650.89,1018.57 1650.89,1049.02"/>
<path class="Note" d="M7719.96,1999.81 C7719.96,2014.04 7730.22,2029.93 7757.03,2029.93 C7791.45,2029.93 7827.53,2001.79 7827.53,1972.66 C7827.53,1953.14 7810.98,1942.21 7790.46,1942.21 C7758.35,1942.21 7719.96,1969.35 7719.96,1999.81"/>
<path class="Note" d="M6254.85,1958.47 C6254.85,1972.7 6265.11,1988.59 6291.92,1988.59 C6326.35,1988.59 6362.43,1960.45 6362.43,1931.33 C6362.43,1911.8 6345.88,1900.87 6325.35,1900.87 C6293.25,1900.87 6254.85,1928.02 6254.85,1958.47"/>
<path class="Note" d="M5856.63,1999.81 C5856.63,2014.04 5866.89,2029.93 5893.7,2029.93 C5928.12,2029.93 5964.2,2001.79 5964.2,1972.66 C5964.2,1953.14 5947.65,1942.21 5927.13,1942.21 C5895.02,1942.21 5856.63,1969.35 5856.63,1999.81"/>
<path class="Note" d="M7906.62,1999.81 C7906.62,2014.04 7916.88,2029.93 7943.69,2029.93 C7978.12,2029.93 8014.2,2001.79 8014.2,1972.66 C8014.2,1953.14 7997.65,1942.21 7977.13,1942.21 C7945.02,1942.21 7906.62,1969.35 7906.62,1999.81"/>
<path class="Note" d="M8207.66,2785.24 C8207.66,2799.47 8217.93,2815.36 8244.74,2815.36 C8279.16,2815.36 8315.24,2787.23 8315.24,2758.1 C8315.24,2738.57 8298.69,2727.65 8278.17,2727.65 C8246.06,2727.65 8207.66,2754.79 8207.66,2785.24"/>
<path class="Note" d="M5576.63,1917.13 C5576.63,1931.36 5586.89,1947.25 5613.7,1947.25 C5648.13,1947.25 5684.21,1919.11 5684.21,1889.99 C5684.21,1870.46 5667.66,1859.53 5647.13,1859.53 C5615.03,1859.53 5576.63,1886.68 5576.63,1917.13"/>
<path class="Note" d="M1929.84,1007.68 C1929.84,1021.91 1940.1,1037.8 1966.91,1037.8 C2001.33,1037.8 2037.41,1009.67 2037.41,980.538 C2037.41,961.009 2020.86,950.086 2000.34,950.086 C1968.23,950.086 1929.84,977.228 1929.84,1007.68"/>
<path class="Note" d="M8261.57,2041.14 C8261.57,2055.38 8271.83,2071.27 8298.64,2071.27 C8333.06,2071.27 8369.14,2043.13 8369.14,2014 C8369.14,1994.47 8352.59,1983.55 8332.07,1983.55 C8299.96,1983.55 8261.57,2010.69 8261.57,2041.14"/>
<path class="Note" d="M4898.41,2123.82 C4898.41,2138.05 4908.67,2153.94 4935.48,2153.94 C4969.91,2153.94 5005.99,2125.81 5005.99,2096.68 C5005.99,2077.15 4989.44,2066.23 4968.91,2066.23 C4936.81,2066.23 4898.41,2093.37 4898.41,2123.82"/>
<path class="Note" d="M4503.24,2097.05 C4492.32,2097.05 4490,2088.11 4490,2085.13 C4490,2068.91 4545.61,2040.45 4561.17,2040.45 C4569.11,2040.45 4574.41,2045.08 4574.41,2052.36 C4574.41,2068.91 4518.47,2097.05 4503.24,2097.05 M4548.92,2024.89 C4516.81,2024.89 4478.42,2051.7 4478.42,2082.48 C4478.42,2096.72 4488.68,2112.6 4515.49,2112.6 C4549.91,2112.6 4585.99,2084.47 4585.99,2055.34 C4585.99,2035.81 4569.44,2024.89 4548.92,2024.89"/>
<path class="Note" d="M4128.68,2041.14 C4128.68,2055.38 4138.94,2071.27 4165.75,2071.27 C4200.18,2071.27 4236.25,2043.13 4236.25,2014 C4236.25,1994.47 4219.7,1983.55 4199.18,1983.55 C4167.08,1983.55 4128.68,2010.69 4128.68,2041.14"/>
<path class="Note" d="M8682.1,2055.71 C8671.17,2055.71 8668.86,2046.77 8668.86,2043.79 C8668.86,2027.57 8724.46,1999.11 8740.02,1999.11 C8747.96,1999.11 8753.26,2003.74 8753.26,2011.02 C8753.26,2027.57 8697.32,2055.71 8682.1,2055.71 M8727.77,1983.55 C8695.67,1983.55 8657.27,2010.36 8657.27,2041.14 C8657.27,2055.38 8667.53,2071.27 8694.34,2071.27 C8728.77,2071.27 8764.85,2043.13 8764.85,2014 C8764.85,1994.47 8748.3,1983.55 8727.77,1983.55"/>
<path class="Note" d="M2378.78,1090.36 C2378.78,1104.59 2389.04,1120.48 2415.85,1120.48 C2450.28,1120.48 2486.35,1092.34 2486.35,1063.22 C2486.35,1043.69 2469.8,1032.76 2449.28,1032.76 C2417.18,1032.76 2378.78,1059.91 2378.78,1090.36"/>
<path class="Note" d="M7860.31,2743.9 C7860.31,2758.13 7870.57,2774.02 7897.38,2774.02 C7931.81,2774.02 7967.89,2745.89 7967.89,2716.76 C7967.89,2697.23 7951.34,2686.31 7930.82,2686.31 C7898.71,2686.31 7860.31,2713.45 7860.31,2743.9"/>
<path class="Note" d="M3942.02,1999.81 C3942.02,2014.04 3952.28,2029.93 3979.09,2029.93 C4013.51,2029.93 4049.59,2001.79 4049.59,1972.66 C4049.59,1953.14 4033.04,1942.21 4012.52,1942.21 C3980.41,1942.21 3942.02,1969.35 3942.02,1999.81"/>
<path class="Note" d="M7677.64,2743.9 C7677.64,2758.13 7687.9,2774.02 7714.71,2774.02 C7749.14,2774.02 7785.22,2745.89 7785.22,2716.76 C7785.22,2697.23 7768.67,2686.31 7748.14,2686.31 C7716.04,2686.31 7677.64,2713.45 7677.64,2743.9"/>
<path class="Note" d="M2732.39,1007.68 C2732.39,1021.91 2742.65,1037.8 2769.47,1037.8 C2803.89,1037.8 2839.97,1009.67 2839.97,980.538 C2839.97,961.009 2823.42,950.086 2802.9,950.086 C2770.79,950.086 2732.39,977.228 2732.39,1007.68"/>
<path class="Note" d="M3662.02,1958.47 C3662.02,1972.7 3672.28,1988.59 3699.09,1988.59 C3733.52,1988.59 3769.59,1960.45 3769.59,1931.33 C3769.59,1911.8 3753.04,1900.87 3732.52,1900.87 C3700.42,1900.87 3662.02,1928.02 3662.02,1958.47"/>
<path class="Note" d="M1189.04,2785.24 C1189.04,2799.47 1199.3,2815.36 1226.11,2815.36 C1260.54,2815.36 1296.62,2787.23 1296.62,2758.1 C1296.62,2738.57 1280.07,2727.65 1259.54,2727.65 C1227.44,2727.65 1189.04,2754.79 1189.04,2785.24"/>
<path class="Note" d="M3475.36,1999.81 C3475.36,2014.04 3485.62,2029.93 3512.43,2029.93 C3546.85,2029.93 3582.93,2001.79 3582.93,1972.66 C3582.93,1953.14 3566.38,1942.21 3545.86,1942.21 C3513.75,1942.21 3475.36,1969.35 3475.36,1999.81"/>
<path class="Note" d="M1463.05,2867.92 C1463.05,2882.15 1473.31,2898.04 1500.12,2898.04 C1534.55,2898.04 1570.62,2869.9 1570.62,2840.77 C1570.62,2821.25 1554.07,2810.32 1533.55,2810.32 C1501.45,2810.32 1463.05,2837.46 1463.05,2867.92"/>
<path class="Note" d="M7494.97,2785.24 C7494.97,2799.47 7505.23,2815.36 7532.04,2815.36 C7566.47,2815.36 7602.54,2787.23 7602.54,2758.1 C7602.54,2738.57 7585.99,2727.65 7565.47,2727.65 C7533.37,2727.65 7494.97,2754.79 7494.97,2785.24"/>
<path class="Note" d="M3288.69,2041.14 C3288.69,2055.38 3298.95,2071.27 3325.76,2071.27 C3360.19,2071.27 3396.27,2043.13 3396.27,2014 C3396.27,1994.47 3379.72,1983.55 3359.19,1983.55 C3327.09,1983.55 3288.69,2010.69 3288.69,2041.14"/>
<path class="Note" d="M1737.06,2743.9 C1737.06,2758.13 1747.32,2774.02 1774.13,2774.02 C1808.55,2774.02 1844.63,2745.89 1844.63,2716.76 C1844.63,2697.23 1828.08,2686.31 1807.56,2686.31 C1775.45,2686.31 1737.06,2713.45 1737.06,2743.9"/>
<path class="Note" d="M2890.47,1917.13 C2890.47,1931.36 2900.73,1947.25 2927.54,1947.25 C2961.96,1947.25 2998.04,1919.11 2998.04,1889.99 C2998.04,1870.46 2981.49,1859.53 2960.97,1859.53 C2928.86,1859.53 2890.47,1886.68 2890.47,1917.13"/>
<path class="Note" d="M2610.47,1958.47 C2610.47,1972.7 2620.73,1988.59 2647.54,1988.59 C2681.97,1988.59 2718.05,1960.45 2718.05,1931.33 C2718.05,1911.8 2701.5,1900.87 2680.97,1900.87 C2648.87,1900.87 2610.47,1928.02 2610.47,1958.47"/>
<path class="Note" d="M2330.48,1834.45 C2330.48,1848.68 2340.74,1864.57 2367.55,1864.57 C2401.97,1864.57 2438.05,1836.44 2438.05,1807.31 C2438.05,1787.78 2421.5,1776.86 2400.98,1776.86 C2368.87,1776.86 2330.48,1804 2330.48,1834.45"/>
<path class="Note" d="M2181.06,2826.58 C2181.06,2840.81 2191.32,2856.7 2218.13,2856.7 C2252.55,2856.7 2288.63,2828.56 2288.63,2799.44 C2288.63,2779.91 2272.08,2768.98 2251.56,2768.98 C2219.45,2768.98 2181.06,2796.13 2181.06,2826.58"/>
<path class="Note" d="M1932.25,1958.47 C1932.25,1972.7 1942.51,1988.59 1969.32,1988.59 C2003.75,1988.59 2039.83,1960.45 2039.83,1931.33 C2039.83,1911.8 2023.28,1900.87 2002.75,1900.87 C1970.65,1900.87 1932.25,1928.02 1932.25,1958.47"/>
<path class="Note" d="M1652.25,2041.14 C1652.25,2055.38 1662.52,2071.27 1689.33,2071.27 C1723.75,2071.27 1759.83,2043.13 1759.83,2014 C1759.83,1994.47 1743.28,1983.55 1722.76,1983.55 C1690.65,1983.55 1652.25,2010.69 1652.25,2041.14"/>
<path class="Note" d="M2455.07,2909.25 C2455.07,2923.49 2465.33,2939.38 2492.14,2939.38 C2526.56,2939.38 2562.64,2911.24 2562.64,2882.11 C2562.64,2862.58 2546.09,2851.66 2525.57,2851.66 C2493.46,2851.66 2455.07,2878.8 2455.07,2909.25"/>
<path class="Note" d="M1372.26,1958.47 C1372.26,1972.7 1382.52,1988.59 1409.33,1988.59 C1443.75,1988.59 1479.83,1960.45 1479.83,1931.33 C1479.83,1911.8 1463.28,1900.87 1442.76,1900.87 C1410.65,1900.87 1372.26,1928.02 1372.26,1958.47"/>
<path class="Note" d="M2729.07,2702.56 C2729.07,2716.79 2739.33,2732.68 2766.15,2732.68 C2800.57,2732.68 2836.65,2704.55 2836.65,2675.42 C2836.65,2655.89 2820.1,2644.97 2799.58,2644.97 C2767.47,2644.97 2729.07,2672.11 2729.07,2702.56"/>
<path class="Note" d="M2918.36,1049.02 C2918.36,1063.25 2928.62,1079.14 2955.43,1079.14 C2989.85,1079.14 3025.93,1051 3025.93,1021.88 C3025.93,1002.35 3009.38,991.425 2988.86,991.425 C2956.75,991.425 2918.36,1018.57 2918.36,1049.02"/>
<path class="Note" d="M3315.54,1007.68 C3315.54,1021.91 3325.8,1037.8 3352.61,1037.8 C3387.03,1037.8 3423.11,1009.67 3423.11,980.538 C3423.11,961.009 3406.56,950.086 3386.04,950.086 C3353.93,950.086 3315.54,977.228 3315.54,1007.68"/>
<path class="Note" d="M3451.97,966.341 C3451.97,980.574 3462.23,996.462 3489.04,996.462 C3523.46,996.462 3559.54,968.327 3559.54,939.199 C3559.54,919.67 3542.99,908.747 3522.47,908.747 C3490.36,908.747 3451.97,935.889 3451.97,966.341"/>
<path class="Note" d="M3121.31,2785.24 C3121.31,2799.47 3131.57,2815.36 3158.38,2815.36 C3192.81,2815.36 3228.88,2787.23 3228.88,2758.1 C3228.88,2738.57 3212.33,2727.65 3191.81,2727.65 C3159.71,2727.65 3121.31,2754.79 3121.31,2785.24"/>
<path class="Note" d="M8553.81,1063.58 C8542.89,1063.58 8540.57,1054.65 8540.57,1051.67 C8540.57,1035.45 8596.18,1006.98 8611.74,1006.98 C8619.68,1006.98 8624.98,1011.62 8624.98,1018.9 C8624.98,1035.45 8569.04,1063.58 8553.81,1063.58 M8599.49,991.425 C8567.38,991.425 8528.99,1018.24 8528.99,1049.02 C8528.99,1063.25 8539.25,1079.14 8566.06,1079.14 C8600.48,1079.14 8636.56,1051 8636.56,1021.88 C8636.56,1002.35 8620.01,991.425 8599.49,991.425"/>
<path class="Note" d="M3395.32,2661.22 C3395.32,2675.46 3405.58,2691.34 3432.39,2691.34 C3466.81,2691.34 3502.89,2663.21 3502.89,2634.08 C3502.89,2614.55 3486.34,2603.63 3465.82,2603.63 C3433.71,2603.63 3395.32,2630.77 3395.32,2661.22"/>
<path class="Note" d="M7145.23,2826.58 C7145.23,2840.81 7155.49,2856.7 7182.3,2856.7 C7216.73,2856.7 7252.81,2828.56 7252.81,2799.44 C7252.81,2779.91 7236.26,2768.98 7215.73,2768.98 C7183.63,2768.98 7145.23,2796.13 7145.23,2826.58"/>
<path class="Note" d="M8133.28,1049.02 C8133.28,1063.25 8143.54,1079.14 8170.35,1079.14 C8204.78,1079.14 8240.86,1051 8240.86,1021.88 C8240.86,1002.35 8224.31,991.425 8203.78,991.425 C8171.68,991.425 8133.28,1018.57 8133.28,1049.02"/>
<path class="Note" d="M3577.99,2743.9 C3577.99,2758.13 3588.25,2774.02 3615.06,2774.02 C3649.48,2774.02 3685.56,2745.89 3685.56,2716.76 C3685.56,2697.23 3669.01,2686.31 3648.49,2686.31 C3616.38,2686.31 3577.99,2713.45 3577.99,2743.9"/>
<path class="Note" d="M3588.4,925.003 C3588.4,939.236 3598.66,955.124 3625.47,955.124 C3659.89,955.124 3695.97,926.989 3695.97,897.861 C3695.97,878.332 3679.42,867.409 3658.9,867.409 C3626.79,867.409 3588.4,894.551 3588.4,925.003"/>
<path class="Note" d="M3760.66,2702.56 C3760.66,2716.79 3770.92,2732.68 3797.73,2732.68 C3832.16,2732.68 3868.24,2704.55 3868.24,2675.42 C3868.24,2655.89 3851.69,2644.97 3831.16,2644.97 C3799.06,2644.97 3760.66,2672.11 3760.66,2702.56"/>
<path class="Note" d="M6907.43,2785.24 C6907.43,2799.47 6917.69,2815.36 6944.5,2815.36 C6978.92,2815.36 7015,2787.23 7015,2758.1 C7015,2738.57 6998.45,2727.65 6977.93,2727.65 C6945.82,2727.65 6907.43,2754.79 6907.43,2785.24"/>
<path class="Note" d="M7779.67,1007.68 C7779.67,1021.91 7789.93,1037.8 7816.74,1037.8 C7851.16,1037.8 7887.24,1009.67 7887.24,980.538 C7887.24,961.009 7870.69,950.086 7850.17,950.086 C7818.06,950.086 7779.67,977.228 7779.67,1007.68"/>
<path class="Note" d="M3943.33,2785.24 C3943.33,2799.47 3953.59,2815.36 3980.4,2815.36 C4014.83,2815.36 4050.91,2787.23 4050.91,2758.1 C4050.91,2738.57 4034.36,2727.65 4013.84,2727.65 C3981.73,2727.65 3943.33,2754.79 3943.33,2785.24"/>
<path class="Note" d="M7593.7,1007.68 C7593.7,1021.91 7603.96,1037.8 7630.77,1037.8 C7665.2,1037.8 7701.28,1009.67 7701.28,980.538 C7701.28,961.009 7684.73,950.086 7664.21,950.086 C7632.1,950.086 7593.7,977.228 7593.7,1007.68"/>
<path class="Note" d="M3774.36,966.341 C3774.36,980.574 3784.62,996.462 3811.43,996.462 C3845.86,996.462 3881.94,968.327 3881.94,939.199 C3881.94,919.67 3865.39,908.747 3844.86,908.747 C3812.76,908.747 3774.36,935.889 3774.36,966.341"/>
<path class="Note" d="M7407.74,1049.02 C7407.74,1063.25 7418,1079.14 7444.81,1079.14 C7479.23,1079.14 7515.31,1051 7515.31,1021.88 C7515.31,1002.35 7498.76,991.425 7478.24,991.425 C7446.13,991.425 7407.74,1018.57 7407.74,1049.02"/>
<path class="Note" d="M4317.9,2758.46 C4306.97,2758.46 4304.66,2749.53 4304.66,2746.55 C4304.66,2730.33 4360.26,2701.86 4375.82,2701.86 C4383.76,2701.86 4389.06,2706.5 4389.06,2713.78 C4389.06,2730.33 4333.12,2758.46 4317.9,2758.46 M4363.57,2686.31 C4331.47,2686.31 4293.07,2713.12 4293.07,2743.9 C4293.07,2758.13 4303.33,2774.02 4330.14,2774.02 C4364.57,2774.02 4400.65,2745.89 4400.65,2716.76 C4400.65,2697.23 4384.1,2686.31 4363.57,2686.31"/>
<path class="Note" d="M7010.56,1090.36 C7010.56,1104.59 7020.82,1120.48 7047.63,1120.48 C7082.06,1120.48 7118.14,1092.34 7118.14,1063.22 C7118.14,1043.69 7101.59,1032.76 7081.06,1032.76 C7048.96,1032.76 7010.56,1059.91 7010.56,1090.36"/>
<path class="Note" d="M4704.08,2909.25 C4704.08,2923.49 4714.34,2939.38 4741.15,2939.38 C4775.58,2939.38 4811.66,2911.24 4811.66,2882.11 C4811.66,2862.58 4795.11,2851.66 4774.58,2851.66 C4742.48,2851.66 4704.08,2878.8 4704.08,2909.25"/>
<path class="Note" d="M6731.61,1173.03 C6731.61,1187.27 6741.87,1203.16 6768.68,1203.16 C6803.11,1203.16 6839.19,1175.02 6839.19,1145.89 C6839.19,1126.36 6822.64,1115.44 6802.12,1115.44 C6770.01,1115.44 6731.61,1142.58 6731.61,1173.03"/>
<path class="Note" d="M6452.67,966.341 C6452.67,980.574 6462.93,996.462 6489.74,996.462 C6524.16,996.462 6560.24,968.327 6560.24,939.199 C6560.24,919.67 6543.69,908.747 6523.17,908.747 C6491.06,908.747 6452.67,935.889 6452.67,966.341"/>
<path class="Note" d="M6055.49,1007.68 C6055.49,1021.91 6065.75,1037.8 6092.56,1037.8 C6126.98,1037.8 6163.06,1009.67 6163.06,980.538 C6163.06,961.009 6146.51,950.086 6125.99,950.086 C6093.88,950.086 6055.49,977.228 6055.49,1007.68"/>
<path class="Note" d="M5096.32,2743.9 C5096.32,2758.13 5106.58,2774.02 5133.39,2774.02 C5167.81,2774.02 5203.89,2745.89 5203.89,2716.76 C5203.89,2697.23 5187.34,2686.31 5166.82,2686.31 C5134.71,2686.31 5096.32,2713.45 5096.32,2743.9"/>
<path class="Note" d="M6633.42,2619.88 C6633.42,2634.12 6643.68,2650.01 6670.49,2650.01 C6704.92,2650.01 6741,2621.87 6741,2592.74 C6741,2573.21 6724.45,2562.29 6703.92,2562.29 C6671.82,2562.29 6633.42,2589.43 6633.42,2619.88"/>
<path class="Note" d="M5776.54,1049.02 C5776.54,1063.25 5786.8,1079.14 5813.61,1079.14 C5848.04,1079.14 5884.12,1051 5884.12,1021.88 C5884.12,1002.35 5867.57,991.425 5847.04,991.425 C5814.94,991.425 5776.54,1018.57 5776.54,1049.02"/>
<path class="Note" d="M5278.99,2702.56 C5278.99,2716.79 5289.25,2732.68 5316.06,2732.68 C5350.48,2732.68 5386.56,2704.55 5386.56,2675.42 C5386.56,2655.89 5370.01,2644.97 5349.49,2644.97 C5317.38,2644.97 5278.99,2672.11 5278.99,2702.56"/>
<path class="Note" d="M5497.59,883.664 C5497.59,897.897 5507.85,913.785 5534.67,913.785 C5569.09,913.785 5605.17,885.65 5605.17,856.522 C5605.17,836.993 5588.62,826.07 5568.1,826.07 C5535.99,826.07 5497.59,853.212 5497.59,883.664"/>
<path class="Note" d="M5461.66,2661.22 C5461.66,2675.46 5471.92,2691.34 5498.73,2691.34 C5533.16,2691.34 5569.24,2663.21 5569.24,2634.08 C5569.24,2614.55 5552.69,2603.63 5532.16,2603.63 C5500.06,2603.63 5461.66,2630.77 5461.66,2661.22"/>
<path class="Note" d="M5100.42,1173.03 C5100.42,1187.27 5110.68,1203.16 5137.49,1203.16 C5171.91,1203.16 5207.99,1175.02 5207.99,1145.89 C5207.99,1126.36 5191.44,1115.44 5170.92,1115.44 C5138.81,1115.44 5100.42,1142.58 5100.42,1173.03"/>
<path class="Note" d="M5735.67,2702.56 C5735.67,2716.79 5745.93,2732.68 5772.74,2732.68 C5807.16,2732.68 5843.24,2704.55 5843.24,2675.42 C5843.24,2655.89 5826.69,2644.97 5806.17,2644.97 C5774.06,2644.97 5735.67,2672.11 5735.67,2702.56"/>
<path class="Note" d="M6450.75,2661.22 C6450.75,2675.46 6461.01,2691.34 6487.82,2691.34 C6522.25,2691.34 6558.32,2663.21 6558.32,2634.08 C6558.32,2614.55 6541.77,2603.63 6521.25,2603.63 C6489.15,2603.63 6450.75,2630.77 6450.75,2661.22"/>
<path class="Note" d="M4706.82,1022.24 C4695.9,1022.24 4693.58,1013.31 4693.58,1010.33 C4693.58,994.109 4749.19,965.643 4764.75,965.643 C4772.69,965.643 4777.99,970.277 4777.99,977.559 C4777.99,994.109 4722.05,1022.24 4706.82,1022.24 M4752.5,950.086 C4720.39,950.086 4682,976.897 4682,1007.68 C4682,1021.91 4692.26,1037.8 4719.07,1037.8 C4753.49,1037.8 4789.57,1009.67 4789.57,980.538 C4789.57,961.009 4773.02,950.086 4752.5,950.086"/>
<path class="Note" d="M5918.34,2743.9 C5918.34,2758.13 5928.6,2774.02 5955.41,2774.02 C5989.84,2774.02 6025.91,2745.89 6025.91,2716.76 C6025.91,2697.23 6009.36,2686.31 5988.84,2686.31 C5956.74,2686.31 5918.34,2713.45 5918.34,2743.9"/>
<path class="Note" d="M4332.26,1049.02 C4332.26,1063.25 4342.52,1079.14 4369.33,1079.14 C4403.75,1079.14 4439.83,1051 4439.83,1021.88 C4439.83,1002.35 4423.28,991.425 4402.76,991.425 C4370.65,991.425 4332.26,1018.57 4332.26,1049.02"/>
<path class="Note" d="M3960.33,1007.68 C3960.33,1021.91 3970.59,1037.8 3997.4,1037.8 C4031.82,1037.8 4067.9,1009.67 4067.9,980.538 C4067.9,961.009 4051.35,950.086 4030.83,950.086 C3998.72,950.086 3960.33,977.228 3960.33,1007.68"/>
<path class="Note" d="M4146.29,966.341 C4146.29,980.574 4156.55,996.462 4183.36,996.462 C4217.79,996.462 4253.87,968.327 4253.87,939.199 C4253.87,919.67 4237.32,908.747 4216.8,908.747 C4184.69,908.747 4146.29,935.889 4146.29,966.341"/>
<path class="Note" d="M7132.42,2041.14 C7132.42,2055.38 7142.68,2071.27 7169.49,2071.27 C7203.91,2071.27 7239.99,2043.13 7239.99,2014 C7239.99,1994.47 7223.44,1983.55 7202.92,1983.55 C7170.81,1983.55 7132.42,2010.69 7132.42,2041.14"/>
<path class="Clef" d="M909.689,2012.75 C903.069,2014.08 896.78,2014.74 890.491,2014.74 C843.158,2014.74 802.776,1981.64 802.776,1931.66 C802.776,1891.27 831.242,1855.2 860.37,1830.04 C865.997,1825.07 871.293,1820.44 876.258,1815.48 C879.237,1833.35 881.554,1848.91 883.871,1862.48 C853.75,1871.41 833.228,1903.19 833.228,1934.3 C833.228,1957.47 851.433,1989.25 877.913,1989.25 C880.561,1989.25 883.54,1987.93 883.54,1984.95 C883.54,1981.97 880.23,1980.31 876.258,1977.67 C863.349,1969.72 856.067,1961.12 856.067,1944.9 C856.067,1924.71 870.962,1908.49 890.491,1903.85 L909.689,2012.75 M880.561,1672.48 C883.54,1659.24 898.766,1624.49 915.978,1624.49 C920.943,1624.49 928.887,1640.71 928.887,1663.55 C928.887,1697.97 903.4,1723.79 880.561,1746.3 C878.575,1733.06 876.92,1720.15 876.92,1706.25 C876.92,1694 877.913,1682.74 880.561,1672.48 M956.691,1951.52 C956.691,1975.02 947.092,1999.18 923.591,2008.78 C916.64,1969.06 907.703,1916.43 905.386,1901.87 C935.176,1901.87 956.691,1922.06 956.691,1951.52 M811.051,2114.37 C811.051,2136.21 827.932,2165.01 872.617,2165.01 C888.174,2165.01 901.745,2161.04 913.661,2153.76 C931.535,2141.18 936.169,2119.33 936.169,2098.48 C936.169,2085.57 934.183,2070.68 930.873,2051.81 C929.88,2045.19 927.894,2035.26 925.908,2022.35 C958.346,2011.76 982.509,1978 982.509,1943.9 C982.509,1893.92 947.092,1860.16 898.766,1860.16 C895.456,1840.3 892.146,1820.77 889.167,1802.24 C924.253,1765.49 948.416,1724.12 948.416,1671.49 C948.416,1641.37 939.148,1616.88 933.852,1604.96 C925.908,1588.08 916.309,1576.49 910.351,1576.49 C908.034,1576.49 897.773,1580.47 886.85,1593.37 C865.666,1618.53 859.708,1660.9 859.708,1688.7 C859.708,1706.58 861.363,1722.8 866.99,1759.87 C866.659,1760.2 849.447,1777.74 842.496,1783.37 C812.375,1811.5 770.669,1851.55 770.669,1917.75 C770.669,1979.65 824.622,2028.31 886.188,2028.31 C895.787,2028.31 904.724,2027.32 912.337,2025.99 C918.626,2057.77 922.267,2080.94 922.267,2098.48 C922.267,2132.9 904.724,2151.11 871.293,2151.11 C863.349,2151.11 856.398,2149.45 855.736,2149.45 C855.405,2149.12 854.743,2148.79 854.743,2148.46 C854.743,2147.8 855.405,2147.47 856.398,2147.14 C871.955,2144.82 887.512,2131.58 887.512,2110.4 C887.512,2092.52 873.941,2073.66 849.116,2073.66 C825.946,2073.66 811.051,2092.52 811.051,2114.37"/>
<path class="Clef" d="M909.689,1144.64 C903.069,1145.97 896.78,1146.63 890.491,1146.63 C843.158,1146.63 802.776,1113.53 802.776,1063.55 C802.776,1023.16 831.242,987.085 860.37,961.929 C865.997,956.964 871.293,952.33 876.258,947.365 C879.237,965.239 881.554,980.796 883.871,994.367 C853.75,1003.3 833.228,1035.08 833.228,1066.19 C833.228,1089.36 851.433,1121.14 877.913,1121.14 C880.561,1121.14 883.54,1119.82 883.54,1116.84 C883.54,1113.86 880.23,1112.2 876.258,1109.56 C863.349,1101.61 856.067,1093.01 856.067,1076.79 C856.067,1056.6 870.962,1040.38 890.491,1035.74 L909.689,1144.64 M880.561,804.373 C883.54,791.133 898.766,756.378 915.978,756.378 C920.943,756.378 928.887,772.597 928.887,795.436 C928.887,829.86 903.4,855.678 880.561,878.186 C878.575,864.946 876.92,852.037 876.92,838.135 C876.92,825.888 877.913,814.634 880.561,804.373 M956.691,1083.41 C956.691,1106.91 947.092,1131.07 923.591,1140.67 C916.64,1100.95 907.703,1048.32 905.386,1033.76 C935.176,1033.76 956.691,1053.95 956.691,1083.41 M811.051,1246.26 C811.051,1268.1 827.932,1296.9 872.617,1296.9 C888.174,1296.9 901.745,1292.93 913.661,1285.65 C931.535,1273.07 936.169,1251.22 936.169,1230.37 C936.169,1217.46 934.183,1202.57 930.873,1183.7 C929.88,1177.08 927.894,1167.15 925.908,1154.24 C958.346,1143.65 982.509,1109.89 982.509,1075.79 C982.509,1025.81 947.092,992.05 898.766,992.05 C895.456,972.19 892.146,952.661 889.167,934.125 C924.253,897.384 948.416,856.009 948.416,803.38 C948.416,773.259 939.148,748.765 933.852,736.849 C925.908,719.968 916.309,708.383 910.351,708.383 C908.034,708.383 897.773,712.355 886.85,725.264 C865.666,750.42 859.708,792.788 859.708,820.592 C859.708,838.466 861.363,854.685 866.99,891.757 C866.659,892.088 849.447,909.631 842.496,915.258 C812.375,943.393 770.669,983.444 770.669,1049.64 C770.669,1111.54 824.622,1160.2 886.188,1160.2 C895.787,1160.2 904.724,1159.21 912.337,1157.88 C918.626,1189.66 922.267,1212.83 922.267,1230.37 C922.267,1264.79 904.724,1283 871.293,1283 C863.349,1283 856.398,1281.34 855.736,1281.34 C855.405,1281.01 854.743,1280.68 854.743,1280.35 C854.743,1279.69 855.405,1279.36 856.398,1279.03 C871.955,1276.71 887.512,1263.47 887.512,1242.29 C887.512,1224.41 873.941,1205.55 849.116,1205.55 C825.946,1205.55 811.051,1224.41 811.051,1246.26"/>
<path class="Clef" d="M909.689,2880.86 C903.069,2882.19 896.78,2882.85 890.491,2882.85 C843.158,2882.85 802.776,2849.75 802.776,2799.77 C802.776,2759.38 831.242,2723.31 860.37,2698.15 C865.997,2693.18 871.293,2688.55 876.258,2683.59 C879.237,2701.46 881.554,2717.02 883.871,2730.59 C853.75,2739.52 833.228,2771.3 833.228,2802.41 C833.228,2825.58 851.433,2857.36 877.913,2857.36 C880.561,2857.36 883.54,2856.04 883.54,2853.06 C883.54,2850.08 880.23,2848.42 876.258,2845.78 C863.349,2837.83 856.067,2829.23 856.067,2813.01 C856.067,2792.82 870.962,2776.6 890.491,2771.96 L909.689,2880.86 M880.561,2540.59 C883.54,2527.35 898.766,2492.6 915.978,2492.6 C920.943,2492.6 928.887,2508.82 928.887,2531.66 C928.887,2566.08 903.4,2591.9 880.561,2614.41 C878.575,2601.17 876.92,2588.26 876.92,2574.36 C876.92,2562.11 877.913,2550.85 880.561,2540.59 M956.691,2819.63 C956.691,2843.13 947.092,2867.29 923.591,2876.89 C916.64,2837.17 907.703,2784.54 905.386,2769.98 C935.176,2769.98 956.691,2790.17 956.691,2819.63 M811.051,2982.48 C811.051,3004.32 827.932,3033.12 872.617,3033.12 C888.174,3033.12 901.745,3029.15 913.661,3021.87 C931.535,3009.29 936.169,2987.44 936.169,2966.59 C936.169,2953.68 934.183,2938.79 930.873,2919.92 C929.88,2913.3 927.894,2903.37 925.908,2890.46 C958.346,2879.87 982.509,2846.11 982.509,2812.01 C982.509,2762.03 947.092,2728.27 898.766,2728.27 C895.456,2708.41 892.146,2688.88 889.167,2670.35 C924.253,2633.6 948.416,2592.23 948.416,2539.6 C948.416,2509.48 939.148,2484.99 933.852,2473.07 C925.908,2456.19 916.309,2444.6 910.351,2444.6 C908.034,2444.6 897.773,2448.58 886.85,2461.48 C865.666,2486.64 859.708,2529.01 859.708,2556.81 C859.708,2574.69 861.363,2590.91 866.99,2627.98 C866.659,2628.31 849.447,2645.85 842.496,2651.48 C812.375,2679.61 770.669,2719.66 770.669,2785.86 C770.669,2847.76 824.622,2896.42 886.188,2896.42 C895.787,2896.42 904.724,2895.43 912.337,2894.1 C918.626,2925.88 922.267,2949.05 922.267,2966.59 C922.267,3001.01 904.724,3019.22 871.293,3019.22 C863.349,3019.22 856.398,3017.56 855.736,3017.56 C855.405,3017.23 854.743,3016.9 854.743,3016.57 C854.743,3015.91 855.405,3015.58 856.398,3015.25 C871.955,3012.93 887.512,2999.69 887.512,2978.51 C887.512,2960.63 873.941,2941.77 849.116,2941.77 C825.946,2941.77 811.051,2960.63 811.051,2982.48"/>
<path class="TimeSig" d="M1163.47,907.779 C1189.95,897.518 1191.61,880.306 1191.61,874.348 L1191.61,872.693 C1191.61,869.714 1190.62,832.311 1133.68,832.311 C1076.75,832.311 1078.41,872.693 1078.41,872.693 L1078.74,872.693 L1078.41,873.355 C1078.41,885.271 1088.01,894.539 1099.92,894.539 C1111.84,894.539 1121.11,885.271 1121.11,873.355 C1121.11,863.756 1113.82,854.488 1104.56,852.502 L1105.55,851.509 C1110.18,848.199 1116.47,846.544 1122.76,846.544 C1136.66,846.544 1151.56,854.819 1151.56,872.693 C1151.56,893.546 1136,896.525 1132.03,897.187 C1128.06,897.849 1109.52,899.173 1105.55,899.173 C1101.58,899.173 1101.25,903.807 1101.25,903.807 L1101.25,910.427 C1101.25,910.427 1101.91,914.068 1105.55,914.399 C1111.18,914.73 1118.79,914.73 1129.38,916.385 C1143.95,918.371 1151.56,928.301 1151.56,951.471 C1151.56,973.648 1136.66,979.606 1122.76,979.606 C1113.49,979.606 1104.89,976.958 1101.25,974.31 C1112.17,973.648 1121.11,964.049 1121.11,953.126 C1121.11,941.21 1111.84,931.611 1099.92,931.611 C1088.01,931.611 1078.41,941.21 1078.41,953.126 C1078.41,980.268 1103.23,993.839 1127.73,993.839 C1159.5,993.839 1193.93,982.916 1193.93,946.837 C1193.93,922.674 1177.38,912.413 1162.81,907.779 L1163.47,907.779 "/>
<path class="TimeSig" d="M1129.24,1118.01 L1129.24,1142.5 L1101.77,1142.5 C1099.45,1142.5 1097.14,1144.49 1097.14,1147.13 L1097.14,1153.42 C1097.14,1156.07 1099.45,1158.06 1101.77,1158.06 L1202.06,1158.06 C1204.71,1158.06 1206.7,1156.07 1206.7,1153.42 L1206.7,1147.13 C1206.7,1144.49 1204.71,1142.5 1202.06,1142.5 L1172.27,1142.5 L1172.27,1118.01 L1202.06,1118.01 C1204.71,1118.01 1206.7,1115.69 1206.7,1113.04 L1206.7,1106.75 C1206.7,1104.44 1204.71,1102.12 1202.06,1102.12 L1172.27,1102.12 L1172.27,1049.49 C1172.27,1047.5 1171.28,1045.85 1169.96,1045.19 L1165.98,1043.2 C1165.32,1042.87 1164.99,1042.87 1164.33,1042.87 C1163.01,1042.87 1161.68,1042.87 1160.69,1043.86 L1130.57,1071.34 C1129.57,1072.33 1129.24,1073.65 1129.24,1074.98 L1129.24,1102.12 L1090.85,1102.12 C1090.85,1102.12 1127.92,1062.4 1166.98,1010.1 C1168.3,1008.45 1168.63,1006.79 1168.63,1005.47 C1168.63,1003.81 1167.97,1002.49 1167.64,1002.16 L1160.36,994.874 C1159.36,994.212 1158.37,993.55 1157.05,993.55 C1155.06,993.55 1110.38,993.55 1107.73,993.55 C1105.41,993.55 1103.76,995.536 1103.43,997.522 C1103.43,997.522 1101.77,1022.02 1093.16,1048.83 C1084.56,1075.64 1074.63,1092.19 1066.02,1104.44 C1066.02,1104.44 1065.03,1106.09 1065.03,1108.08 C1065.03,1108.74 1065.03,1109.4 1065.36,1110.06 C1066.35,1112.38 1068.67,1116.02 1068.67,1116.02 C1068.67,1116.02 1069.33,1118.01 1072.31,1118.01 L1129.24,1118.01 "/>
<path class="Beam" fill-rule="evenodd" d="M6268.08,2895.23 L6459.02,2874.56 L6459.02,2916.14 L6268.08,2936.81 L6268.08,2895.23 "/>
<path class="Beam" fill-rule="evenodd" d="M3395.32,2915.9 L3586.26,2936.57 L3586.26,2978.15 L3395.32,2957.48 L3395.32,2915.9 "/>
<path class="Beam" fill-rule="evenodd" d="M3315.54,1220.92 L3596.66,1179.58 L3596.66,1221.36 L3315.54,1262.7 L3315.54,1220.92 "/>
<path class="Beam" fill-rule="evenodd" d="M3315.54,1158.91 L3460.23,1137.63 L3460.23,1179.42 L3315.54,1200.69 L3315.54,1158.91 "/>
<path class="Beam" fill-rule="evenodd" d="M7006.64,2523.23 L7252.71,2543.9 L7252.71,2585.39 L7006.64,2564.72 L7006.64,2523.23 "/>
<path class="Beam" fill-rule="evenodd" d="M3760.66,2957.24 L3951.6,2977.91 L3951.6,3019.49 L3760.66,2998.82 L3760.66,2957.24 "/>
<path class="Beam" fill-rule="evenodd" d="M3387.9,1758.43 L3582.84,1737.76 L3582.84,1779.33 L3387.9,1800 L3387.9,1758.43 "/>
<path class="Beam" fill-rule="evenodd" d="M7594.18,2502.52 L7785.12,2481.85 L7785.12,2523.43 L7594.18,2544.1 L7594.18,2502.52 "/>
<path class="Beam" fill-rule="evenodd" d="M7506.95,766.299 L7701.18,745.63 L7701.18,787.202 L7506.95,807.871 L7506.95,766.299 "/>
<path class="Beam" fill-rule="evenodd" d="M5096.32,2936.57 L5287.26,2915.9 L5287.26,2957.48 L5096.32,2978.15 L5096.32,2936.57 "/>
<path class="Beam" fill-rule="evenodd" d="M4041.23,1737.76 L4236.16,1758.43 L4236.16,1800 L4041.23,1779.33 L4041.23,1737.76 "/>
<path class="Beam" fill-rule="evenodd" d="M3774.36,1179.68 L3968.59,1200.35 L3968.59,1241.93 L3774.36,1221.26 L3774.36,1179.68 "/>
<path class="Beam" fill-rule="evenodd" d="M6354.06,1675.75 L6549,1655.08 L6549,1696.65 L6354.06,1717.32 L6354.06,1675.75 "/>
<path class="Beam" fill-rule="evenodd" d="M7581.37,1758.47 L7827.44,1737.8 L7827.44,1779.28 L7581.37,1799.95 L7581.37,1758.47 "/>
<path class="Beam" fill-rule="evenodd" d="M5735.67,2915.9 L5926.61,2936.57 L5926.61,2978.15 L5735.67,2957.48 L5735.67,2915.9 "/>
<path class="Beam" fill-rule="evenodd" d="M4146.29,1221.02 L4340.53,1241.69 L4340.53,1283.26 L4146.29,1262.6 L4146.29,1221.02 "/>
<path class="Beam" fill-rule="evenodd" d="M7007.39,1758.54 L7239.9,1758.54 L7239.9,1799.88 L7007.39,1799.88 L7007.39,1758.54 "/>
<path class="NoteDot" d="M7928.5,952.439 C7928.5,961.707 7935.78,968.989 7945.05,968.989 C7954.32,968.989 7961.6,961.707 7961.6,952.439 C7961.6,943.171 7954.32,935.889 7945.05,935.889 C7935.78,935.889 7928.5,943.171 7928.5,952.439"/>
<path class="NoteDot" d="M8677.82,1035.12 C8677.82,1044.38 8685.1,1051.67 8694.37,1051.67 C8703.64,1051.67 8710.92,1044.38 8710.92,1035.12 C8710.92,1025.85 8703.64,1018.57 8694.37,1018.57 C8685.1,1018.57 8677.82,1025.85 8677.82,1035.12"/>
<path class="NoteDot" d="M2527.61,1035.12 C2527.61,1044.38 2534.89,1051.67 2544.16,1051.67 C2553.43,1051.67 2560.71,1044.38 2560.71,1035.12 C2560.71,1025.85 2553.43,1018.57 2544.16,1018.57 C2534.89,1018.57 2527.61,1025.85 2527.61,1035.12"/>
<path class="NoteDot" d="M8009.14,2688.66 C8009.14,2697.93 8016.43,2705.21 8025.69,2705.21 C8034.96,2705.21 8042.24,2697.93 8042.24,2688.66 C8042.24,2679.39 8034.96,2672.11 8025.69,2672.11 C8016.43,2672.11 8009.14,2679.39 8009.14,2688.66"/>
<path class="NoteDot" d="M8806.1,1985.9 C8806.1,1995.17 8813.38,2002.45 8822.65,2002.45 C8831.92,2002.45 8839.2,1995.17 8839.2,1985.9 C8839.2,1976.64 8831.92,1969.35 8822.65,1969.35 C8813.38,1969.35 8806.1,1976.64 8806.1,1985.9"/>
<path class="NoteDot" d="M8055.45,1985.9 C8055.45,1995.17 8062.74,2002.45 8072,2002.45 C8081.27,2002.45 8088.55,1995.17 8088.55,1985.9 C8088.55,1976.64 8081.27,1969.35 8072,1969.35 C8062.74,1969.35 8055.45,1976.64 8055.45,1985.9"/>
<path class="NoteDot" d="M8752.2,2771.34 C8752.2,2780.61 8759.48,2787.89 8768.75,2787.89 C8778.02,2787.89 8785.3,2780.61 8785.3,2771.34 C8785.3,2762.07 8778.02,2754.79 8768.75,2754.79 C8759.48,2754.79 8752.2,2762.07 8752.2,2771.34"/>
</svg>
