<?xml version="1.0" encoding="UTF-8" standalone="no"?>
<svg
   width="681"
   height="186.10622"
   version="1.2"
   id="svg168"
   xmlns="http://www.w3.org/2000/svg"
   xmlns:svg="http://www.w3.org/2000/svg"
   xmlns:rdf="http://www.w3.org/1999/02/22-rdf-syntax-ns#"
   xmlns:cc="http://creativecommons.org/ns#"
   xmlns:dc="http://purl.org/dc/elements/1.1/">
  <defs
     id="defs168" />
  <title
     id="title1">air_XIX</title>
  <desc
     id="desc1">Generated by MuseScore Studio 4.7.3</desc>
  <path
     id="path168"
     class="NoteDot"
     d="m 635.47929,171.76761 c 0,0.7421 0.5828,1.3249 1.32491,1.3249 0.7421,0 1.3249,-0.5828 1.3249,-1.3249 0,-0.74131 -0.5828,-1.32491 -1.3249,-1.32491 -0.74211,0 -1.32491,0.5836 -1.32491,1.32491 m -20.189,-82.733373 c 0,0.742107 0.5828,1.324906 1.3249,1.324906 0.74131,0 1.32491,-0.582799 1.32491,-1.324906 0,-0.742107 -0.5836,-1.324906 -1.32491,-1.324906 -0.7421,0 -1.3249,0.582799 -1.3249,1.324906 m -295.77344,0 c 0,0.742107 0.5828,1.324906 1.32491,1.324906 0.74211,0 1.3249,-0.582799 1.3249,-1.324906 0,-0.742107 -0.58279,-1.324906 -1.3249,-1.324906 -0.74211,0 -1.32491,0.582799 -1.32491,1.324906 M 632.08177,32.77497 c 0,0.742107 0.5828,1.324906 1.3249,1.324906 0.74211,0 1.32491,-0.582799 1.32491,-1.324906 0,-0.741307 -0.5828,-1.324906 -1.32491,-1.324906 -0.7421,0 -1.3249,0.583599 -1.3249,1.324906 M 51.369511,32.79258 v 1.96054 h -2.199104 c -0.185727,0 -0.371454,0.159309 -0.371454,0.370654 v 0.503544 c 0,0.212145 0.185727,0.371454 0.371454,0.371454 h 8.02869 c 0.212145,0 0.370653,-0.159309 0.370653,-0.371454 v -0.503544 c 0,-0.211345 -0.158508,-0.370654 -0.370653,-0.370654 h -2.384831 v -1.96054 h 2.384831 c 0.212145,0 0.370653,-0.185727 0.370653,-0.397872 v -0.503544 c 0,-0.184927 -0.158508,-0.370654 -0.370653,-0.370654 h -2.384831 v -4.213281 c 0,-0.159309 -0.07925,-0.291399 -0.185727,-0.344235 l -0.317817,-0.159309 c -0.05284,-0.02642 -0.07925,-0.02642 -0.13209,-0.02642 -0.106473,0 -0.212145,0 -0.2922,0.07925 l -2.411249,2.199904 c -0.07925,0.07925 -0.105672,0.184927 -0.105672,0.2914 v 2.172685 h -3.074102 c 0,0 2.96843,-3.179774 6.094567,-7.366637 0.106473,-0.13209 0.132891,-0.264981 0.132891,-0.370653 0,-0.132891 -0.05284,-0.238563 -0.07925,-0.264981 l -0.583599,-0.583279 c -0.07925,-0.053 -0.158509,-0.105993 -0.264981,-0.105993 -0.158509,0 -3.736155,0 -3.9483,0 -0.184926,0 -0.317817,0.158989 -0.344235,0.317978 0,0 -0.132091,1.961181 -0.821362,4.107448 -0.689271,2.146268 -1.484215,3.471174 -2.172686,4.451844 0,0 -0.07925,0.13209 -0.07925,0.291399 0,0.05284 0,0.105673 0.02642,0.158509 0.07925,0.185727 0.264982,0.477126 0.264982,0.477126 0,0 0.05284,0.159309 0.291399,0.159309 h 4.557516 m 2.740274,-16.829988 c 2.119849,-0.821441 2.25274,-2.199343 2.25274,-2.67631 v -0.13249 c 0,-0.238483 -0.08005,-3.2327705 -4.637571,-3.2327705 -4.557516,0 -4.425426,3.2327705 -4.425426,3.2327705 h 0.02642 l -0.02642,0.053 c 0,0.953932 0.768526,1.69588 1.722778,1.69588 0.953452,0 1.695559,-0.741948 1.695559,-1.69588 0,-0.768445 -0.582798,-1.510393 -1.324905,-1.669381 l 0.08005,-0.07949 c 0.370654,-0.264981 0.874198,-0.397471 1.377742,-0.397471 1.112761,0 2.304776,0.662452 2.304776,2.093351 0,1.669381 -1.244851,1.907864 -1.562668,1.960861 -0.318618,0.053 -1.802032,0.158988 -2.11985,0.158988 -0.318618,0 -0.345036,0.370974 -0.345036,0.370974 v 0.529962 c 0,0 0.05284,0.29148 0.345036,0.317978 0.449908,0.0265 1.059925,0.0265 1.907705,0.158988 1.165597,0.158989 1.774813,0.953933 1.774813,2.808801 0,1.775374 -1.192015,2.25234 -2.304776,2.25234 -0.742107,0 -1.431378,-0.211985 -1.722778,-0.42397 0.874999,-0.053 1.589887,-0.821442 1.589887,-1.695879 0,-0.953933 -0.742107,-1.722378 -1.695559,-1.722378 -0.954252,0 -1.722778,0.768445 -1.722778,1.722378 0,2.172845 1.987759,3.259268 3.9483,3.259268 2.544139,0 5.299623,-0.874438 5.299623,-3.762733 0,-1.934362 -1.324906,-2.755804 -2.490503,-3.126778 h 0.05284 M 37.732186,11.859229 c 0,2.093351 -1.086342,3.206272 -2.623393,4.425185 l 0.07925,-5.167133 c 0.05284,-0.238483 0.450708,-1.006928 1.510633,-1.006928 0.953452,0 1.033506,0.900936 1.033506,1.457396 v 0.29148 M 37.413569,8.8119451 c -1.324906,0 -2.092631,0.8214417 -2.225522,0.9804304 l 0.105672,-8.5058959 c 0,-0.2119849 -0.158508,-0.37097363 -0.370653,-0.37097363 h -0.317818 c -0.212145,0 -0.371454,0.15898873 -0.371454,0.37097363 l 0.132891,15.9253694 c 0,0.211985 0.159309,0.370973 0.370654,0.370973 0.05364,0 0.159309,-0.0265 0.212145,-0.053 2.279158,-1.139419 4.663989,-3.312265 4.663989,-6.041571 0,-1.377902 -0.636435,-2.6763099 -2.199904,-2.6763099 M 30.371954,21.787297 c 0,2.093591 -1.086343,3.206352 -2.623394,4.425586 l 0.07925,-5.167533 c 0.05284,-0.238483 0.450709,-1.006929 1.510633,-1.006929 0.954253,0 1.033507,0.900936 1.033507,1.457397 v 0.291479 m -0.317817,-3.047284 c -1.324906,0 -2.093432,0.821442 -2.226323,0.980431 l 0.106473,-8.505896 c 0,-0.211985 -0.159309,-0.370974 -0.371454,-0.370974 h -0.317817 c -0.212145,0 -0.370654,0.158989 -0.370654,0.370974 l 0.132091,15.925369 c 0,0.212145 0.159309,0.370653 0.371454,0.370653 0.05284,0 0.158508,-0.02642 0.211344,-0.05284 2.279159,-1.139179 4.663989,-3.311864 4.663989,-6.041411 0,-1.377902 -0.635634,-2.67631 -2.199103,-2.67631 M 37.732186,150.8517 c 0,2.09344 -1.086342,3.2062 -2.623393,4.42543 l 0.07925,-5.16753 c 0.05284,-0.23777 0.450708,-1.00629 1.510633,-1.00629 0.953452,0 1.033506,0.90061 1.033506,1.457 v 0.29139 m -0.318617,-3.04688 c -1.324906,0 -2.092631,0.82136 -2.225522,0.97987 l 0.105672,-8.50581 c 0,-0.21135 -0.158508,-0.37066 -0.370653,-0.37066 h -0.317818 c -0.212145,0 -0.371454,0.15931 -0.371454,0.37066 l 0.132891,15.92528 c 0,0.21215 0.159309,0.37146 0.370654,0.37146 0.05364,0 0.159309,-0.0264 0.212145,-0.0528 2.279158,-1.13998 4.663989,-3.31266 4.663989,-6.04173 0,-1.37774 -0.636435,-2.67623 -2.199904,-2.67623 m -7.041615,12.97527 c 0,2.09343 -1.086343,3.2062 -2.623394,4.42543 l 0.07925,-5.16753 c 0.05284,-0.23857 0.450709,-1.00709 1.510633,-1.00709 0.954253,0 1.033507,0.90141 1.033507,1.45779 v 0.2914 m -0.317817,-3.04768 c -1.324906,0 -2.093432,0.82136 -2.226323,0.98067 l 0.106473,-8.50582 c 0,-0.21214 -0.159309,-0.37065 -0.371454,-0.37065 h -0.317817 c -0.212145,0 -0.370654,0.15851 -0.370654,0.37065 l 0.132091,15.92529 c 0,0.21215 0.159309,0.37066 0.371454,0.37066 0.05284,0 0.158508,-0.0264 0.211344,-0.0528 2.279159,-1.13918 4.663989,-3.31186 4.663989,-6.04173 0,-1.37774 -0.635634,-2.67623 -2.199103,-2.67623 m 7.678049,-76.377023 c 0,2.093431 -1.086342,3.206192 -2.623393,4.425425 l 0.07925,-5.167533 c 0.05284,-0.237762 0.450708,-1.006288 1.510633,-1.006288 0.953452,0 1.033506,0.900616 1.033506,1.456996 v 0.2914 m -0.318617,-3.046884 c -1.324906,0 -2.092631,0.821362 -2.225522,0.97987 l 0.105672,-8.505816 c 0,-0.211344 -0.158508,-0.370653 -0.370653,-0.370653 h -0.317818 c -0.212145,0 -0.371454,0.159309 -0.371454,0.370653 l 0.132891,15.925289 c 0,0.212145 0.159309,0.371454 0.370654,0.371454 0.05364,0 0.159309,-0.02642 0.212145,-0.05284 2.279158,-1.139979 4.663989,-3.312665 4.663989,-6.041731 0,-1.377742 -0.636435,-2.67623 -2.199904,-2.67623 m -7.041615,12.975272 c 0,2.093431 -1.086343,3.206192 -2.623394,4.425426 l 0.07925,-5.167533 c 0.05284,-0.238563 0.450709,-1.007089 1.510633,-1.007089 0.954253,0 1.033507,0.901416 1.033507,1.457797 v 0.291399 m -0.317817,-3.047684 c -1.324906,0 -2.093432,0.821362 -2.226323,0.980671 l 0.106473,-8.505816 c 0,-0.212145 -0.159309,-0.370654 -0.371454,-0.370654 H 27.245 c -0.212145,0 -0.370654,0.158509 -0.370654,0.370654 l 0.132091,15.925289 c 0,0.212145 0.159309,0.370653 0.371454,0.370653 0.05284,0 0.158508,-0.02642 0.211344,-0.05284 2.279159,-1.139179 4.663989,-3.311864 4.663989,-6.041731 0,-1.377742 -0.635634,-2.67623 -2.199103,-2.67623 m -13.96081,85.680917 c -0.529962,0.10647 -1.033427,0.1593 -1.536891,0.1593 -3.789231,0 -7.0220012,-2.64981 -7.0220012,-6.65094 0,-3.23341 2.2788382,-6.12099 4.6106722,-8.13517 0.450468,-0.39787 0.874438,-0.76852 1.27191,-1.16559 0.238483,1.43058 0.42397,2.67623 0.609457,3.76257 -2.411329,0.71489 -4.0542123,3.25903 -4.0542123,5.74953 0,1.85487 1.4573963,4.39901 3.5772463,4.39901 0.211985,0 0.450468,-0.10567 0.450468,-0.34424 0,-0.23856 -0.264982,-0.37145 -0.582959,-0.58279 -1.033427,-0.63644 -1.616385,-1.32491 -1.616385,-2.6234 0,-1.6163 1.192415,-2.91479 2.755804,-3.28625 l 1.536891,8.71797 m -2.331834,-27.24023 c 0.238483,-1.05992 1.457396,-3.84183 2.835298,-3.84183 0.397472,0 1.033427,1.29849 1.033427,3.12694 0,2.75549 -2.040355,4.8225 -3.868725,6.62453 -0.158989,-1.05992 -0.29148,-2.09343 -0.29148,-3.20619 0,-0.98067 0.0795,-1.88209 0.29148,-2.70345 m 6.094567,22.33847 c 0,1.88129 -0.768446,3.81541 -2.649812,4.58394 -0.556461,-3.17978 -1.27191,-7.39306 -1.457397,-8.55865 2.384831,0 4.107209,1.6163 4.107209,3.97471 M 8.1968718,182.05224 c 0,1.74839 1.351404,4.05397 4.9286502,4.05397 1.245411,0 2.331834,-0.31782 3.285766,-0.90062 1.430899,-1.00708 1.801872,-2.75628 1.801872,-4.42542 0,-1.03351 -0.158988,-2.22552 -0.423969,-3.73616 -0.07949,-0.52996 -0.238484,-1.3249 -0.397472,-2.35841 2.596815,-0.84778 4.531178,-3.55043 4.531178,-6.28029 0,-4.00114 -2.835299,-6.70379 -6.704024,-6.70379 -0.264981,-1.58988 -0.529962,-3.15335 -0.768445,-4.63677 2.8088,-2.94201 4.743163,-6.25387 4.743163,-10.46715 0,-2.41125 -0.741948,-4.37179 -1.165917,-5.32605 -0.635955,-1.35132 -1.404401,-2.27915 -1.881367,-2.27915 -0.185487,0 -1.006928,0.31861 -1.881366,1.35132 -1.69588,2.01418 -2.172846,5.4061 -2.172846,7.63162 0,1.43138 0.132491,2.72986 0.582959,5.69749 -0.0265,0.0264 -1.404401,1.43058 -1.960861,1.88129 -2.4113287,2.25194 -5.7500916,5.45813 -5.7500916,10.75776 0,4.95538 4.3191932,8.85085 9.2478436,8.85085 0.768445,0 1.483894,-0.0793 2.093351,-0.18573 0.503464,2.54414 0.794943,4.39901 0.794943,5.80317 0,2.75548 -1.4044,4.21328 -4.08071,4.21328 -0.635955,0 -1.192415,-0.13289 -1.245411,-0.13289 -0.0265,-0.0264 -0.07949,-0.0528 -0.07949,-0.0793 0,-0.0528 0.053,-0.0792 0.132491,-0.10567 1.245412,-0.18573 2.490823,-1.24565 2.490823,-2.94121 0,-1.43138 -1.086423,-2.94121 -3.073782,-2.94121 -1.8548679,0 -3.0472832,1.50983 -3.0472832,3.25903 M 16.093311,34.924439 c -0.529962,0.106473 -1.033427,0.159309 -1.536891,0.159309 -3.789231,0 -7.0220012,-2.649811 -7.0220012,-6.650947 0,-3.233411 2.2788382,-6.121386 4.6106722,-8.135243 0.450468,-0.397471 0.874438,-0.768445 1.27191,-1.165917 0.238483,1.430899 0.42397,2.67631 0.609457,3.762733 -2.411329,0.715129 -4.0542123,3.259268 -4.0542123,5.749771 0,1.854869 1.4573963,4.399008 3.5772463,4.399008 0.211985,0 0.450468,-0.105672 0.450468,-0.344235 0,-0.238563 -0.264982,-0.371454 -0.582959,-0.582799 -1.033427,-0.636435 -1.616385,-1.324906 -1.616385,-2.623393 0,-1.616306 1.192415,-2.914793 2.755804,-3.286247 l 1.536891,8.71796 M 13.761477,7.6844542 c 0.238483,-1.0599247 1.457396,-3.8422271 2.835298,-3.8422271 0.397472,0 1.033427,1.2984078 1.033427,3.1267779 0,2.7558043 -2.040355,4.822658 -3.868725,6.62453 -0.158989,-1.059925 -0.29148,-2.093352 -0.29148,-3.206273 0,-0.9804301 0.0795,-1.8813661 0.29148,-2.7028078 m 6.094567,22.3382338 c 0,1.881286 -0.768446,3.815409 -2.649812,4.583934 -0.556461,-3.179774 -1.27191,-7.393055 -1.457397,-8.558652 2.384831,0 4.107209,1.616305 4.107209,3.974718 M 8.1968718,43.059602 c 0,1.748395 1.351404,4.053972 4.9286502,4.053972 1.245411,0 2.331834,-0.317818 3.285766,-0.900616 1.430899,-1.007089 1.801872,-2.756285 1.801872,-4.425426 0,-1.033507 -0.158988,-2.225522 -0.423969,-3.736154 -0.07949,-0.529963 -0.238484,-1.324906 -0.397472,-2.358413 2.596815,-0.84778 4.531178,-3.550428 4.531178,-6.280294 0,-4.001136 -2.835299,-6.703784 -6.704024,-6.703784 -0.264981,-1.589887 -0.529962,-3.153276 -0.768445,-4.637171 2.8088,-2.941291 4.743163,-6.253555 4.743163,-10.4667561 0,-2.4113288 -0.741948,-4.3721895 -1.165917,-5.3261218 C 17.391719,0.92743413 16.623273,0 16.146307,0 15.96082,0 15.139379,0.31797742 14.264941,1.351404 c -1.69588,2.013857 -2.172846,5.4056161 -2.172846,7.631458 0,1.430898 0.132491,2.729306 0.582959,5.697095 -0.0265,0.0265 -1.404401,1.430899 -1.960861,1.881367 -2.4113287,2.25234 -5.7500916,5.458612 -5.7500916,10.757915 0,4.955389 4.3191932,8.850852 9.2478436,8.850852 0.768445,0 1.483894,-0.07925 2.093351,-0.185727 0.503464,2.54414 0.794943,4.399008 0.794943,5.803168 0,2.755484 -1.4044,4.213281 -4.08071,4.213281 -0.635955,0 -1.192415,-0.132891 -1.245411,-0.132891 -0.0265,-0.02642 -0.07949,-0.05284 -0.07949,-0.07925 0,-0.05284 0.053,-0.07925 0.132491,-0.105672 1.245412,-0.185727 2.490823,-1.245652 2.490823,-2.941211 0,-1.431379 -1.086423,-2.941211 -3.073782,-2.941211 -1.8548679,0 -3.0472832,1.509832 -3.0472832,3.259028 m 7.8964392,61.361154 c -0.529962,0.10647 -1.033427,0.15931 -1.536891,0.15931 -3.789231,0 -7.0220012,-2.64982 -7.0220012,-6.650947 0,-3.233411 2.2788382,-6.120985 4.6106722,-8.135163 0.450468,-0.397872 0.874438,-0.768525 1.27191,-1.165597 0.238483,1.430579 0.42397,2.67623 0.609457,3.762573 -2.411329,0.714889 -4.0542123,3.259028 -4.0542123,5.749531 0,1.854869 1.4573963,4.399003 3.5772463,4.399003 0.211985,0 0.450468,-0.10567 0.450468,-0.34423 0,-0.23857 -0.264982,-0.37146 -0.582959,-0.5828 -1.033427,-0.63644 -1.616385,-1.32491 -1.616385,-2.623392 0,-1.616306 1.192415,-2.914793 2.755804,-3.286247 l 1.536891,8.717959 M 13.761477,77.180532 c 0.238483,-1.059925 1.457396,-3.841827 2.835298,-3.841827 0.397472,0 1.033427,1.298488 1.033427,3.126938 0,2.755484 -2.040355,4.822498 -3.868725,6.62453 -0.158989,-1.059925 -0.29148,-2.093432 -0.29148,-3.206193 0,-0.98067 0.0795,-1.882086 0.29148,-2.703448 m 6.094567,22.338474 c 0,1.881284 -0.768446,3.815404 -2.649812,4.583934 -0.556461,-3.17977 -1.27191,-7.393055 -1.457397,-8.558652 2.384831,0 4.107209,1.616305 4.107209,3.974718 M 8.1968718,112.55592 c 0,1.7484 1.351404,4.05397 4.9286502,4.05397 1.245411,0 2.331834,-0.31782 3.285766,-0.90061 1.430899,-1.00709 1.801872,-2.75629 1.801872,-4.42543 0,-1.03351 -0.158988,-2.22552 -0.423969,-3.73615 -0.07949,-0.52997 -0.238484,-1.32491 -0.397472,-2.35842 2.596815,-0.84778 4.531178,-3.55042 4.531178,-6.280291 0,-4.001136 -2.835299,-6.703784 -6.704024,-6.703784 -0.264981,-1.589887 -0.529962,-3.153356 -0.768445,-4.63677 2.8088,-2.942012 4.743163,-6.253876 4.743163,-10.467157 0,-2.411249 -0.741948,-4.371789 -1.165917,-5.326042 -0.635955,-1.351324 -1.404401,-2.279158 -1.881367,-2.279158 -0.185487,0 -1.006928,0.318618 -1.881366,1.351324 -1.69588,2.014177 -2.172846,5.406096 -2.172846,7.631618 0,1.431379 0.132491,2.729866 0.582959,5.697495 -0.0265,0.02642 -1.404401,1.430579 -1.960861,1.881287 -2.4113287,2.25194 -5.7500916,5.458132 -5.7500916,10.757755 0,4.955393 4.3191932,8.850853 9.2478436,8.850853 0.768445,0 1.483894,-0.0793 2.093351,-0.18573 0.503464,2.54414 0.794943,4.39901 0.794943,5.80317 0,2.75548 -1.4044,4.21328 -4.08071,4.21328 -0.635955,0 -1.192415,-0.13289 -1.245411,-0.13289 -0.0265,-0.0264 -0.07949,-0.0528 -0.07949,-0.0793 0,-0.0528 0.053,-0.0793 0.132491,-0.10568 1.245412,-0.18572 2.490823,-1.24565 2.490823,-2.94121 0,-1.43138 -1.086423,-2.94121 -3.073782,-2.94121 -1.8548679,0 -3.0472832,1.50983 -3.0472832,3.25903 M 603.37494,90.146998 c 0,1.139179 0.82136,2.411248 2.96763,2.411248 2.75628,0 5.64466,-2.251939 5.64466,-4.583934 0,-1.563469 -1.32491,-2.437667 -2.96763,-2.437667 -2.57056,0 -5.64466,2.172686 -5.64466,4.610353 M 302.61009,17.341457 c 0,1.139419 0.82136,2.411329 2.96763,2.411329 2.75549,0 5.64386,-2.25234 5.64386,-4.584175 0,-1.563388 -1.3249,-2.437826 -2.96763,-2.437826 -2.57056,0 -5.64386,2.172845 -5.64386,4.610672 M 512.31668,162.95278 c 0,1.13918 0.82136,2.41125 2.96763,2.41125 2.75628,0 5.64466,-2.25194 5.64466,-4.58394 0,-1.56347 -1.32491,-2.43766 -2.96763,-2.43766 -2.57056,0 -5.64466,2.17268 -5.64466,4.61035 M 328.03708,27.269606 c 0,1.139178 0.82136,2.411248 2.96763,2.411248 2.75548,0 5.64386,-2.25274 5.64386,-4.583934 0,-1.563469 -1.32491,-2.438067 -2.96763,-2.438067 -2.57056,0 -5.64386,2.173086 -5.64386,4.610753 M 474.73979,167.42784 c -0.875,0 -1.05993,-0.71489 -1.05993,-0.95345 0,-1.29849 4.45104,-3.57765 5.6967,-3.57765 0.63563,0 1.05992,0.37145 1.05992,0.95425 0,1.32491 -4.47826,3.57685 -5.69669,3.57685 m 3.6561,-5.77595 c -2.56976,0 -5.64386,2.14627 -5.64386,4.61035 0,1.13918 0.82136,2.41125 2.96763,2.41125 2.75628,0 5.64466,-2.25194 5.64466,-4.58393 0,-1.56347 -1.32491,-2.43767 -2.96843,-2.43767 M 353.46406,23.960143 c 0,1.139179 0.82137,2.411248 2.96763,2.411248 2.75629,0 5.64386,-2.251939 5.64386,-4.584094 0,-1.563389 -1.3249,-2.437827 -2.96763,-2.437827 -2.56975,0 -5.64386,2.172846 -5.64386,4.610673 m 34.89186,-3.309383 c 0,1.139419 0.82136,2.411329 2.96763,2.411329 2.75629,0 5.64386,-2.25234 5.64386,-4.584175 0,-1.563389 -1.32491,-2.437827 -2.96763,-2.437827 -2.56976,0 -5.64386,2.172846 -5.64386,4.610673 m 25.42699,13.237771 c 0,1.139179 0.82136,2.411249 2.96763,2.411249 2.75628,0 5.64466,-2.25274 5.64466,-4.584735 0,-1.563469 -1.32491,-2.437667 -2.96843,-2.437667 -2.56976,0 -5.64386,2.172686 -5.64386,4.611153 M 436.91072,169.5717 c 0,1.13918 0.82136,2.41125 2.96763,2.41125 2.75628,0 5.64466,-2.25274 5.64466,-4.58393 0,-1.56347 -1.32491,-2.43847 -2.96843,-2.43847 -2.56976,0 -5.64386,2.17349 -5.64386,4.61115 m 2.29917,-138.992632 c 0,1.139179 0.82136,2.411249 2.96763,2.411249 2.75629,0 5.64466,-2.25274 5.64466,-4.583934 0,-1.563469 -1.3249,-2.438468 -2.96763,-2.438468 -2.57056,0 -5.64466,2.173487 -5.64466,4.611153 m -28.6756,142.302102 c 0,1.13918 0.82136,2.41125 2.96762,2.41125 2.75629,0 5.64386,-2.25274 5.64386,-4.58474 0,-1.56267 -1.3249,-2.43767 -2.96763,-2.43767 -2.56975,0 -5.64385,2.17269 -5.64385,4.61116 M 476.08951,28.435202 c -0.875,0 -1.05993,-0.714888 -1.05993,-0.953451 0,-1.298488 4.45185,-3.577647 5.6967,-3.577647 0.63643,0 1.05992,0.371454 1.05992,0.954253 0,1.324906 -4.47826,3.576845 -5.69669,3.576845 m 3.6569,-5.776349 c -2.57056,0 -5.64466,2.146668 -5.64466,4.610753 0,1.139178 0.82136,2.411248 2.96763,2.411248 2.75628,0 5.64466,-2.25274 5.64466,-4.583934 0,-1.563469 -1.32491,-2.438067 -2.96763,-2.438067 M 384.15785,159.64332 c 0,1.13917 0.82136,2.41124 2.96763,2.41124 2.75548,0 5.64386,-2.25194 5.64386,-4.58393 0,-1.56347 -1.32491,-2.43767 -2.96763,-2.43767 -2.57056,0 -5.64386,2.17269 -5.64386,4.61036 M 512.24303,23.960143 c 0,1.139179 0.82136,2.411248 2.96763,2.411248 2.75548,0 5.64386,-2.251939 5.64386,-4.584094 0,-1.563389 -1.32491,-2.437827 -2.96763,-2.437827 -2.57056,0 -5.64386,2.172846 -5.64386,4.610673 m 34.89186,-3.309383 c 0,1.139419 0.82136,2.411329 2.96763,2.411329 2.75548,0 5.64385,-2.25234 5.64385,-4.584175 0,-1.563389 -1.3249,-2.437827 -2.96762,-2.437827 -2.57056,0 -5.64386,2.172846 -5.64386,4.610673 m 27.41394,24.331757 c -0.8742,0 -1.05992,-0.71569 -1.05992,-0.954253 0,-1.298488 4.45184,-3.577646 5.69749,-3.577646 0.63564,0 1.05993,0.371454 1.05993,0.954252 0,1.324906 -4.47827,3.577647 -5.6975,3.577647 m 3.6569,-5.77675 c -2.57056,0 -5.64386,2.146267 -5.64386,4.610352 0,1.139179 0.82136,2.411249 2.96763,2.411249 2.75548,0 5.64386,-2.25194 5.64386,-4.583934 0,-1.563469 -1.32491,-2.437667 -2.96763,-2.437667 M 348.31654,162.95278 c 0,1.13918 0.82137,2.41125 2.96763,2.41125 2.75549,0 5.64386,-2.25194 5.64386,-4.58394 0,-1.56347 -1.3249,-2.43766 -2.96763,-2.43766 -2.57055,0 -5.64386,2.17268 -5.64386,4.61035 M 622.15418,35.054128 c -0.8742,0 -1.05992,-0.715689 -1.05992,-0.954252 0,-1.298488 4.45184,-3.576846 5.69749,-3.576846 0.63564,0 1.05993,0.370653 1.05993,0.953452 0,1.324906 -4.47827,3.577646 -5.6975,3.577646 m 3.6569,-5.77675 c -2.57056,0 -5.64386,2.146268 -5.64386,4.611153 0,1.139179 0.82136,2.411249 2.96763,2.411249 2.75548,0 5.64386,-2.25274 5.64386,-4.584735 0,-1.563469 -1.32491,-2.437667 -2.96763,-2.437667 M 321.94011,166.26224 c 0,1.13918 0.82136,2.41125 2.96763,2.41125 2.75548,0 5.64386,-2.25194 5.64386,-4.58393 0,-1.56347 -1.32491,-2.43767 -2.96763,-2.43767 -2.57056,0 -5.64386,2.17268 -5.64386,4.61035 M 231.56472,11.888689 c -0.8742,0 -1.05993,-0.715449 -1.05993,-0.953932 0,-1.2984082 4.45184,-3.5772463 5.6967,-3.5772463 0.63643,0 1.05992,0.3709736 1.05992,0.9539322 0,1.3249059 -4.47826,3.5772461 -5.69669,3.5772461 m 3.6569,-5.7765899 c -2.57056,0 -5.64466,2.1463476 -5.64466,4.6106729 0,1.139419 0.82136,2.411328 2.96843,2.411328 2.75548,0 5.64386,-2.25234 5.64386,-4.584174 0,-1.563389 -1.32491,-2.4378269 -2.96763,-2.4378269 M 295.56287,156.33385 c 0,1.13998 0.82217,2.41125 2.96843,2.41125 2.75549,0 5.64386,-2.25194 5.64386,-4.58393 0,-1.56347 -1.3249,-2.43767 -2.96763,-2.43767 -2.57055,0 -5.64466,2.17269 -5.64466,4.61035 m 252.59512,3.30947 c 0,1.13917 0.82136,2.41124 2.96762,2.41124 2.75629,0 5.64466,-2.25194 5.64466,-4.58393 0,-1.56347 -1.3249,-2.43767 -2.96762,-2.43767 -2.57056,0 -5.64466,2.17269 -5.64466,4.61036 M 194.6851,20.65076 c 0,1.139419 0.82136,2.411329 2.96843,2.411329 2.75548,0 5.64386,-2.25234 5.64386,-4.584175 0,-1.563389 -1.32491,-2.437827 -2.96763,-2.437827 -2.57056,0 -5.64466,2.172846 -5.64466,4.610673 M 70.823613,80.21941 c 0,1.139179 0.822162,2.411249 2.968429,2.411249 2.755484,0 5.643859,-2.252741 5.643859,-4.584735 0,-1.563469 -1.324906,-2.437667 -2.967629,-2.437667 -2.570557,0 -5.644659,2.172686 -5.644659,4.611153 m 188.897957,79.42391 c 0,1.13917 0.82216,2.41124 2.96843,2.41124 2.75548,0 5.64386,-2.25194 5.64386,-4.58393 0,-1.56347 -1.32491,-2.43767 -2.96763,-2.43767 -2.57056,0 -5.64466,2.17269 -5.64466,4.61036 M 96.87182,83.528072 c 0,1.13998 0.821361,2.412049 2.967629,2.412049 2.756281,0 5.644661,-2.25274 5.644661,-4.584734 0,-1.563469 -1.32491,-2.437667 -2.96843,-2.437667 -2.569758,0 -5.64386,2.172685 -5.64386,4.610352 m 125.27285,67.353248 c -0.87499,0 -1.05992,-0.71568 -1.05992,-0.95425 0,-1.29769 4.45184,-3.57684 5.6967,-3.57684 0.63643,0 1.05992,0.37065 1.05992,0.95425 0,1.3249 -4.47826,3.57684 -5.6967,3.57684 m 3.65691,-5.77675 c -2.57056,0 -5.64466,2.14627 -5.64466,4.61116 0,1.13918 0.82136,2.41125 2.96762,2.41125 2.75629,0 5.64466,-2.25274 5.64466,-4.58474 0,-1.56267 -1.3249,-2.43767 -2.96762,-2.43767 M 122.92003,80.21941 c 0,1.139179 0.82136,2.411249 2.96763,2.411249 2.75548,0 5.64386,-2.252741 5.64386,-4.584735 0,-1.563469 -1.32491,-2.437667 -2.96763,-2.437667 -2.57056,0 -5.64386,2.172686 -5.64386,4.611153 m 37.50004,7.784522 c -0.8742,0 -1.05992,-0.715689 -1.05992,-0.954252 0,-1.298488 4.45184,-3.576846 5.69669,-3.576846 0.63644,0 1.05993,0.370654 1.05993,0.953452 0,1.324906 -4.47827,3.577646 -5.6967,3.577646 m 3.6569,-5.776749 c -2.57056,0 -5.64466,2.146267 -5.64466,4.610352 0,1.139979 0.82136,2.411249 2.96843,2.411249 2.75549,0 5.64386,-2.25194 5.64386,-4.583935 0,-1.563469 -1.32491,-2.437666 -2.96763,-2.437666 m 33.42766,7.919815 c 0,1.139179 0.82136,2.411248 2.96763,2.411248 2.75628,0 5.64386,-2.251939 5.64386,-4.583934 0,-1.563469 -1.32491,-2.437667 -2.96763,-2.437667 -2.56976,0 -5.64386,2.172686 -5.64386,4.610353 m -13.18902,69.496322 c 0,1.13917 0.82136,2.41124 2.96763,2.41124 2.75628,0 5.64466,-2.25194 5.64466,-4.58393 0,-1.56347 -1.32491,-2.43767 -2.96763,-2.43767 -2.57056,0 -5.64466,2.17269 -5.64466,4.61036 m 48.7013,-79.42391 c 0,1.139179 0.82216,2.411249 2.96843,2.411249 2.75548,0 5.64386,-2.252741 5.64386,-4.584735 0,-1.563469 -1.32491,-2.437667 -2.96763,-2.437667 -2.57056,0 -5.64466,2.172686 -5.64466,4.611153 m -86.27819,93.82735 c -0.875,0 -1.05993,-0.71569 -1.05993,-0.95425 0,-1.29769 4.45104,-3.57684 5.6967,-3.57684 0.63563,0 1.05992,0.37065 1.05992,0.95425 0,1.3249 -4.47826,3.57684 -5.69669,3.57684 m 3.6561,-5.77675 c -2.56976,0 -5.64386,2.14627 -5.64386,4.61116 0,1.13918 0.82136,2.41125 2.96763,2.41125 2.75628,0 5.64466,-2.25274 5.64466,-4.58474 0,-1.56267 -1.32491,-2.43767 -2.96843,-2.43767 M 261.05288,88.003932 c -0.875,0 -1.05993,-0.715689 -1.05993,-0.954252 0,-1.298488 4.45185,-3.576846 5.6967,-3.576846 0.63643,0 1.05992,0.370654 1.05992,0.953452 0,1.324906 -4.47826,3.577646 -5.69669,3.577646 m 3.6569,-5.776749 c -2.57056,0 -5.64466,2.146267 -5.64466,4.610352 0,1.139979 0.82136,2.411249 2.96763,2.411249 2.75628,0 5.64466,-2.25194 5.64466,-4.583935 0,-1.563469 -1.32491,-2.437666 -2.96763,-2.437666 m 44.87948,9.086212 c -0.87419,0 -1.05992,-0.715689 -1.05992,-0.954252 0,-1.298488 4.45184,-3.577646 5.6975,-3.577646 0.63563,0 1.05992,0.371454 1.05992,0.954252 0,1.324906 -4.47826,3.577646 -5.6975,3.577646 m 3.65691,-5.77675 c -2.57056,0 -5.64386,2.146268 -5.64386,4.610353 0,1.139179 0.82136,2.411248 2.96763,2.411248 2.75548,0 5.64385,-2.251939 5.64385,-4.583934 0,-1.563469 -1.3249,-2.437667 -2.96762,-2.437667 M 158.53238,35.054128 c -0.875,0 -1.05992,-0.715689 -1.05992,-0.954252 0,-1.298488 4.45104,-3.576846 5.69669,-3.576846 0.63564,0 1.05993,0.370653 1.05993,0.953452 0,1.324906 -4.47827,3.577646 -5.6967,3.577646 m 3.6561,-5.77675 c -2.56976,0 -5.64386,2.146268 -5.64386,4.611153 0,1.139179 0.82136,2.411249 2.96763,2.411249 2.75628,0 5.64466,-2.25274 5.64466,-4.584735 0,-1.563469 -1.32491,-2.437667 -2.96843,-2.437667 M 108.90965,169.5717 c 0,1.13918 0.82136,2.41125 2.96763,2.41125 2.75628,0 5.64466,-2.25274 5.64466,-4.58393 0,-1.56347 -1.32491,-2.43847 -2.96843,-2.43847 -2.56976,0 -5.64386,2.17349 -5.64386,4.61115 m 467.61253,14.40345 c -0.8742,0 -1.05993,-0.71569 -1.05993,-0.95425 0,-1.29849 4.45185,-3.57685 5.6967,-3.57685 0.63644,0 1.05992,0.37066 1.05992,0.95346 0,1.3249 -4.47746,3.57764 -5.69669,3.57764 m 3.6569,-5.77675 c -2.57056,0 -5.64466,2.14627 -5.64466,4.61036 0,1.13997 0.82216,2.41124 2.96843,2.41124 2.75548,0 5.64386,-2.25194 5.64386,-4.58393 0,-1.56347 -1.32491,-2.43767 -2.96763,-2.43767 M 82.533216,166.26224 c 0,1.13918 0.821361,2.41125 2.967629,2.41125 2.756285,0 5.643859,-2.25194 5.643859,-4.58393 0,-1.56347 -1.324906,-2.43767 -2.967629,-2.43767 -2.569757,0 -5.643859,2.17268 -5.643859,4.61035 M 366.59704,93.456461 c 0,1.139179 0.82137,2.411248 2.96763,2.411248 2.75629,0 5.64466,-2.251939 5.64466,-4.583934 0,-1.563469 -1.3249,-2.437667 -2.96843,-2.437667 -2.56975,0 -5.64386,2.172686 -5.64386,4.610353 M 56.156784,162.95278 c 0,1.13918 0.821362,2.41125 2.967629,2.41125 2.755484,0 5.643859,-2.25194 5.643859,-4.58394 0,-1.56347 -1.324906,-2.43766 -2.967629,-2.43766 -2.570557,0 -5.643859,2.17268 -5.643859,4.61035 M 392.64525,96.765923 c 0,1.139179 0.82137,2.411249 2.96763,2.411249 2.75549,0 5.64386,-2.25274 5.64386,-4.583934 0,-1.563469 -1.3249,-2.438467 -2.96763,-2.438467 -2.57055,0 -5.64386,2.173486 -5.64386,4.611152 M 121.65276,30.579068 c 0,1.139179 0.82137,2.411249 2.96763,2.411249 2.75629,0 5.64466,-2.25274 5.64466,-4.583934 0,-1.563469 -1.3249,-2.438468 -2.96843,-2.438468 -2.56975,0 -5.64386,2.173487 -5.64386,4.611153 M 96.225778,27.269606 c 0,1.139178 0.821362,2.411248 2.967629,2.411248 2.755483,0 5.643863,-2.25274 5.643863,-4.583934 0,-1.563469 -1.32491,-2.438067 -2.96763,-2.438067 -2.570561,0 -5.643862,2.173086 -5.643862,4.610753 M 418.69346,100.07539 c 0,1.13918 0.82137,2.41124 2.96763,2.41124 2.75549,0 5.64386,-2.25274 5.64386,-4.583929 0,-1.563469 -1.3249,-2.438468 -2.96763,-2.438468 -2.57055,0 -5.64386,2.173487 -5.64386,4.611157 m 37.50005,4.47506 c -0.875,0 -1.05993,-0.71569 -1.05993,-0.95426 0,-1.29768 4.45104,-3.57684 5.6967,-3.57684 0.63563,0 1.05992,0.37065 1.05992,0.95425 0,1.32491 -4.47826,3.57685 -5.69669,3.57685 m 3.65609,-5.776754 c -2.56975,0 -5.64385,2.146264 -5.64385,4.611154 0,1.13918 0.82136,2.41125 2.96763,2.41125 2.75628,0 5.64465,-2.25274 5.64465,-4.58474 0,-1.562665 -1.3249,-2.437664 -2.96843,-2.437664 m 193.91099,-8.626698 c 0,1.139179 0.82136,2.411248 2.96763,2.411248 2.75628,0 5.64466,-2.251939 5.64466,-4.583934 0,-1.563469 -1.32491,-2.437667 -2.96763,-2.437667 -2.57056,0 -5.64466,2.172686 -5.64466,4.610353 m -160.48253,9.928392 c 0,1.13918 0.82136,2.41124 2.96763,2.41124 2.75548,0 5.64386,-2.25274 5.64386,-4.583929 0,-1.563469 -1.32491,-2.438468 -2.96763,-2.438468 -2.57056,0 -5.64386,2.173487 -5.64386,4.611157 M 636.39512,86.837535 c 0,1.139979 0.82216,2.411249 2.96843,2.411249 2.75548,0 5.64386,-2.25194 5.64386,-4.583935 0,-1.563469 -1.32491,-2.437666 -2.96763,-2.437666 -2.57056,0 -5.64466,2.172685 -5.64466,4.610352 m -107.60478,9.928388 c 0,1.139179 0.82136,2.411249 2.96763,2.411249 2.75629,0 5.64466,-2.25274 5.64466,-4.583934 0,-1.563469 -1.3249,-2.438467 -2.96843,-2.438467 -2.56976,0 -5.64386,2.173486 -5.64386,4.611152 m 28.03517,-2.143865 c -0.8742,0 -1.05992,-0.714889 -1.05992,-0.953452 0,-1.298488 4.45184,-3.577647 5.69749,-3.577647 0.63564,0 1.05993,0.371454 1.05993,0.954253 0,1.324906 -4.47826,3.576846 -5.6975,3.576846 m 3.6569,-5.77595 c -2.57056,0 -5.64386,2.146268 -5.64386,4.610353 0,1.139179 0.82137,2.411248 2.96763,2.411248 2.75549,0 5.64386,-2.251939 5.64386,-4.583934 0,-1.563469 -1.3249,-2.437667 -2.96763,-2.437667 M 70.798796,23.960143 c 0,1.139179 0.821361,2.411248 2.967629,2.411248 2.755484,0 5.643859,-2.251939 5.643859,-4.584094 0,-1.563389 -1.324906,-2.437827 -2.967629,-2.437827 -2.570558,0 -5.643859,2.172846 -5.643859,4.610673 M 267.71824,20.65076 c 0,1.139419 0.82136,2.411329 2.96762,2.411329 2.75549,0 5.64386,-2.25234 5.64386,-4.584175 0,-1.563389 -1.3249,-2.437827 -2.96763,-2.437827 -2.57055,0 -5.64385,2.172846 -5.64385,4.610673 m 357.83346,153.396 c -0.87419,0 -1.05992,-0.71569 -1.05992,-0.95425 0,-1.29769 4.45184,-3.57684 5.69669,-3.57684 0.63644,0 1.05993,0.37065 1.05993,0.95425 0,1.3249 -4.47746,3.57684 -5.6967,3.57684 m 3.6569,-5.77675 c -2.57055,0 -5.64466,2.14627 -5.64466,4.61116 0,1.13918 0.82217,2.41125 2.96843,2.41125 2.75549,0 5.64386,-2.25274 5.64386,-4.58474 0,-1.56267 -1.3249,-2.43767 -2.96763,-2.43767 m 7.18652,-59.40621 c 0,0.18572 0.15931,0.34423 0.34503,0.34423 0.13209,0 0.2914,-0.10567 0.31782,-0.21134 0,-0.0272 0.23856,-0.95426 0.26498,-1.03351 0.0264,-0.10647 0.26498,-1.11356 1.21924,-2.67623 1.0327,-1.72278 2.62259,-2.96843 3.94749,-4.8233 1.29849,-1.854866 2.09344,-3.603262 2.09344,-5.935256 0,-2.411249 -0.55638,-4.425426 -1.96054,-6.995183 -0.0793,-0.185727 -0.23857,-0.2922 -0.39788,-0.2922 -0.0528,0 -0.10567,0 -0.13209,0.02722 -0.13289,0.05284 -0.18572,0.158509 -0.18572,0.317818 0,0.07925 0.0264,0.212145 0.0801,0.317817 1.05993,2.464085 1.48342,3.869045 1.48342,5.77675 0,2.199104 -0.76853,3.338282 -1.24566,4.159644 -1.72197,2.94201 -4.50468,4.37259 -5.61744,4.74324 -0.18492,0.0801 -0.21214,0.21215 -0.21214,0.2914 v 5.9889 M 580.50363,19.537875 v 22.106367 h 0.66217 V 19.537875 Z m 22.87173,70.608282 v 20.398783 h 0.66202 V 90.146157 Z m -48.53725,3.309447 v 18.744066 h 0.66202 V 93.455604 Z m 81.55734,-6.618902 V 108.8638 h 0.66216 V 86.836702 Z M 536.73293,74.142399 v 20.451639 h 0.66217 V 74.142399 Z M 70.798411,23.959334 v 18.744064 h 0.662013 V 23.959334 Z M 631.50663,148.60221 v 22.107 h 0.66201 v -22.107 z m 22.25443,-58.456053 v 20.398783 h 0.66202 V 90.146157 Z M 501.21989,75.797122 v 22.106363 h 0.66201 V 75.797122 Z M 104.16841,4.6458182 V 25.097769 h 0.66201 V 4.6458182 Z M 462.14834,79.105792 v 22.107148 h 0.66216 V 79.105792 Z M 129.59532,6.3005432 V 28.407223 h 0.66218 V 6.3005432 Z m 34.89199,3.3092939 V 31.71667 h 0.66201 V 9.6098371 Z m 30.19815,11.0398919 v 20.398946 h 0.66216 V 20.649729 Z M 426.6353,75.797122 v 22.106363 h 0.66202 V 75.797122 Z M 56.156368,162.95203 v 18.74391 h 0.662013 V 162.95203 Z M 400.58702,74.142399 v 20.451639 h 0.66217 V 74.142399 Z M 90.475919,143.63882 v 20.45149 h 0.66202 v -20.45149 z m 26.376321,1.65472 v 22.10622 h 0.66217 v -22.10622 z m 465.62477,13.23703 v 22.10636 h 0.66202 V 158.53057 Z M 229.57728,10.721691 v 22.053207 h 0.66217 V 10.721691 Z M 548.15839,159.64258 v 20.39863 h 0.66202 V 159.64258 Z M 267.71789,20.649729 v 20.398946 h 0.66201 V 20.649729 Z m 39.88399,69.496428 v 20.398783 h 0.66201 V 90.146157 Z m -4.99216,-72.805722 v 22.053517 h 0.66201 V 17.340435 Z M 335.97894,4.6458182 V 25.097769 h 0.66201 V 4.6458182 Z M 152.69362,148.60221 v 22.107 h 0.66201 v -22.107 z M 259.06557,86.836702 v 22.053518 h 0.66202 V 86.836702 Z m -74.74954,72.805878 v 20.39863 h 0.66201 v -20.39863 z m 48.70126,-79.424779 v 22.053519 h 0.66202 V 80.217801 Z m 279.29972,82.734229 v 18.74391 h 0.66217 V 162.95203 Z M 353.4637,23.959334 v 18.744064 h 0.66202 V 23.959334 Z M 480.69461,143.63882 v 20.45149 h 0.66217 V 143.63882 Z M 197.50426,90.146157 v 20.398783 h 0.66201 V 90.146157 Z M 388.35554,20.649729 v 20.398946 h 0.66201 V 20.649729 Z M 158.4327,86.836702 v 22.053518 h 0.66202 V 86.836702 Z M 421.72554,9.6098371 V 31.71667 h 0.66201 V 9.6098371 Z M 447.15245,6.3005432 V 28.407223 h 0.66217 V 6.3005432 Z M 220.15724,149.71407 v 22.05352 h 0.66218 V 149.71407 Z M 122.91967,80.217801 v 22.053519 h 0.66201 V 80.217801 Z m 321.93371,65.075739 v 22.10622 h 0.66202 v -22.10622 z m -185.13143,14.34904 v 20.39863 h 0.66202 V 159.64258 Z M 96.872172,83.527256 v 22.053514 h 0.662173 V 83.527256 Z M 482.04444,4.6458182 V 25.097769 h 0.66201 V 4.6458182 Z M 70.824053,80.217801 v 22.053519 h 0.662013 V 80.217801 Z M 418.47691,148.60221 v 22.107 h 0.66202 v -22.107 z M 512.24259,23.959334 v 18.744064 h 0.66216 V 23.959334 Z M 295.56334,156.33312 v 22.05337 h 0.66201 v -22.05337 z m 88.59417,3.30946 v 20.39863 h 0.66201 V 159.64258 Z M 547.13441,20.649729 v 20.398946 h 0.66217 V 20.649729 Z M 329.88196,143.63882 v 20.45149 h 0.66202 v -20.45149 z m 18.43417,19.31321 v 18.74391 h 0.66201 v -18.74391 z m 18.28124,-69.496426 v 18.744066 h 0.66217 V 93.455604 Z M 628.109,9.6098371 V 31.71667 h 0.66217 V 9.6098371 Z M 572.35056,181.16636 v 1.05916 h 12.97371 v -1.05916 z M 570.37718,42.17382 v 1.059164 h 12.97371 V 42.17382 Z M 90.769247,84.985869 v -4.345371 l 3.074102,-0.874999 v 4.37259 l -3.074102,0.84778 m 3.656901,-7.419473 c -0.05284,-0.05284 -0.132091,-0.07925 -0.212145,-0.07925 -0.02642,0 -0.07926,0.02642 -0.105673,0.02642 L 90.769247,78.4406 V 73.803823 H 90.02794 v 13.116168 c 0,0.212145 0.158509,0.345036 0.370654,0.345036 h 0.105672 l 3.339083,-0.927834 v 4.637571 h 0.715689 V 77.857795 c 0,-0.105672 -0.05284,-0.238563 -0.13289,-0.291399 m 203.711292,1.17602 v 27.202514 h 1.19128 V 78.742416 Z m 295.77349,0 v 27.202514 h 1.19112 V 78.742416 Z m -370.35808,0 v 27.202514 h 1.19113 V 78.742416 Z M 210.6928,148.23869 v 27.20266 h 1.19129 V 148.23869 Z M 378.89109,9.2458378 V 36.448658 h 1.19113 V 9.2458378 Z M 463.28708,148.23869 v 27.20266 h 1.19128 V 148.23869 Z M 148.96826,78.742416 v 27.202514 h 1.19112 V 78.742416 Z M 464.63769,9.2458378 V 36.448658 h 1.19113 V 9.2458378 Z M 286.09874,148.23869 v 27.20266 h 1.19129 V 148.23869 Z M 62.552357,95.653163 c 0,-0.768526 -0.609216,-1.404961 -1.377742,-1.404961 -0.768525,0 -1.377742,0.636435 -1.377742,1.404961 0,0.768525 0.609217,1.40416 1.377742,1.40416 0.768526,0 1.377742,-0.635635 1.377742,-1.40416 m 0,-6.618926 c 0,-0.768526 -0.609216,-1.40416 -1.377742,-1.40416 -0.768525,0 -1.377742,0.635634 -1.377742,1.40416 0,0.768525 0.609217,1.40416 1.377742,1.40416 0.768526,0 1.377742,-0.635635 1.377742,-1.40416 M 56.156832,78.742416 v 27.202514 h 1.191127 V 78.742416 Z m -6.089475,0 v 27.202514 h 3.640145 V 78.742416 Z M 537.66997,9.2458378 V 36.448658 h 1.19128 V 9.2458378 Z m 139.68957,0 V 36.448658 h 3.64015 V 9.2458378 Z m -3.63967,0 V 36.448658 H 674.911 V 9.2458378 Z m -2.44731,16.9110072 c 0,-0.768526 -0.60921,-1.404961 -1.37774,-1.404961 -0.76852,0 -1.37774,0.636435 -1.37774,1.404961 0,0.768525 0.60922,1.40416 1.37774,1.40416 0.76853,0 1.37774,-0.635635 1.37774,-1.40416 m 0,-6.619006 c 0,-0.768445 -0.60921,-1.4044 -1.37774,-1.4044 -0.76852,0 -1.37774,0.635955 -1.37774,1.4044 0,0.768445 0.60922,1.4044 1.37774,1.4044 0.76853,0 1.37774,-0.635955 1.37774,-1.4044 M 374.69291,148.23869 v 27.20266 h 1.19128 V 148.23869 Z M 293.14528,9.2458378 V 36.448658 h 1.19112 V 9.2458378 Z M 135.28609,148.23869 v 27.20266 h 1.19128 V 148.23869 Z M 220.11285,9.2458378 V 36.448658 h 1.19127 V 9.2458378 Z M 677.35954,148.23869 v 27.20266 h 3.64015 v -27.20266 z m -3.63967,0 v 27.20266 H 674.911 V 148.23869 Z M 444.7408,78.742416 v 27.202514 h 1.19129 V 78.742416 Z M 147.07978,9.2458378 V 36.448658 h 1.19113 V 9.2458378 Z M 614.09989,148.23869 v 27.20266 h 1.19113 V 148.23869 Z M 679.80887,78.742416 V 105.94493 H 681 V 78.742416 Z m -160.48347,0 v 27.202514 h 1.19128 V 78.742416 Z m 19.36855,69.496274 v 27.20266 h 1.19113 V 148.23869 Z M 357.13216,78.742416 v 27.202514 h 1.19127 V 78.742416 Z M 610.70241,9.2458378 V 36.448658 h 1.19112 V 9.2458378 Z M 0,174.7132 v 0.72768 h 681 v -0.72768 z m 0,-6.61812 v 0.72768 h 681 v -0.72768 z m 0,-6.6189 v 0.72768 h 681 v -0.72768 z m 0,-6.6189 v 0.72768 h 681 v -0.72768 z m 0,-6.61891 v 0.72769 h 681 v -0.72769 z m 0,-43.02144 v 0.72769 h 681 v -0.72769 z m 0,-6.618121 v 0.727681 h 681 v -0.727681 z m 0,-6.618902 v 0.727682 h 681 v -0.727682 z m 0,-6.619054 v 0.727842 h 681 v -0.727842 z m 0,-6.618901 v 0.727681 H 681 V 78.741952 Z M 0,35.720656 v 0.727689 h 681 v -0.727689 z m 0,-6.618269 v 0.727841 h 681 v -0.727841 z m 0,-6.61906 v 0.727685 h 681 v -0.727685 z m 0,-6.618588 v 0.727684 H 681 V 15.864739 Z M 0,9.2459947 V 9.9736795 H 681 V 9.2459947 Z"
     style="stroke-width:0.0800547" />
  <metadata
     id="metadata168">
    <rdf:RDF>
      <cc:Work
         rdf:about="">
        <dc:title>air_XIX</dc:title>
      </cc:Work>
    </rdf:RDF>
  </metadata>
</svg>
