<?xml version="1.0" encoding="UTF-8" standalone="no"?>
<svg width="210.058mm" height="296.926mm" viewBox="0 0 9924 14028"
 xmlns="http://www.w3.org/2000/svg" xmlns:xlink="http://www.w3.org/1999/xlink" version="1.2" baseProfile="full">
<title>air_XXX</title>
<desc>Generated by MuseScore Studio 4.7.3</desc>
<polyline class="StaffLines" fill="none" stroke="#000000" stroke-width="9.09" stroke-linejoin="bevel" points="708.661,911.706 9215.34,911.706" />
<polyline class="StaffLines" fill="none" stroke="#000000" stroke-width="9.09" stroke-linejoin="bevel" points="708.661,994.383 9215.34,994.383" />
<polyline class="StaffLines" fill="none" stroke="#000000" stroke-width="9.09" stroke-linejoin="bevel" points="708.661,1077.06 9215.34,1077.06" />
<polyline class="StaffLines" fill="none" stroke="#000000" stroke-width="9.09" stroke-linejoin="bevel" points="708.661,1159.74 9215.34,1159.74" />
<polyline class="StaffLines" fill="none" stroke="#000000" stroke-width="9.09" stroke-linejoin="bevel" points="708.661,1242.41 9215.34,1242.41" />
<polyline class="StaffLines" fill="none" stroke="#000000" stroke-width="9.09" stroke-linejoin="bevel" points="708.661,1779.82 9215.34,1779.82" />
<polyline class="StaffLines" fill="none" stroke="#000000" stroke-width="9.09" stroke-linejoin="bevel" points="708.661,1862.49 9215.34,1862.49" />
<polyline class="StaffLines" fill="none" stroke="#000000" stroke-width="9.09" stroke-linejoin="bevel" points="708.661,1945.17 9215.34,1945.17" />
<polyline class="StaffLines" fill="none" stroke="#000000" stroke-width="9.09" stroke-linejoin="bevel" points="708.661,2027.85 9215.34,2027.85" />
<polyline class="StaffLines" fill="none" stroke="#000000" stroke-width="9.09" stroke-linejoin="bevel" points="708.661,2110.52 9215.34,2110.52" />
<polyline class="BarLine" fill="none" stroke="#000000" stroke-width="14.88" stroke-linejoin="bevel" points="5571.31,1775.27 5571.31,2115.07" />
<polyline class="BarLine" fill="none" stroke="#000000" stroke-width="14.88" stroke-linejoin="bevel" points="9207.9,907.158 9207.9,1246.96" />
<polyline class="BarLine" fill="none" stroke="#000000" stroke-width="14.88" stroke-linejoin="bevel" points="1728.27,907.158 1728.27,1246.96" />
<polyline class="BarLine" fill="none" stroke="#000000" stroke-width="14.88" stroke-linejoin="bevel" points="8340.69,1775.27 8340.69,2115.07" />
<polyline class="BarLine" fill="none" stroke="#000000" stroke-width="14.88" stroke-linejoin="bevel" points="3172.37,1775.27 3172.37,2115.07" />
<polyline class="BarLine" fill="none" stroke="#000000" stroke-width="14.88" stroke-linejoin="bevel" points="6275,907.158 6275,1246.96" />
<polyline class="BarLine" fill="none" stroke="#000000" stroke-width="14.88" stroke-linejoin="bevel" points="4376.41,1775.27 4376.41,2115.07" />
<path class="BarLine" d="M6997.48,1035.72 C6997.48,1026.12 6989.87,1018.18 6980.27,1018.18 C6970.67,1018.18 6963.06,1026.12 6963.06,1035.72 C6963.06,1045.32 6970.67,1053.26 6980.27,1053.26 C6989.87,1053.26 6997.48,1045.32 6997.48,1035.72"/>
<path class="BarLine" d="M6997.48,1118.4 C6997.48,1108.8 6989.87,1100.86 6980.27,1100.86 C6970.67,1100.86 6963.06,1108.8 6963.06,1118.4 C6963.06,1128 6970.67,1135.94 6980.27,1135.94 C6989.87,1135.94 6997.48,1128 6997.48,1118.4"/>
<polyline class="BarLine" fill="none" stroke="#000000" stroke-width="14.88" stroke-linejoin="bevel" points="7035.49,907.158 7035.49,1246.96" />
<polyline class="BarLine" fill="none" stroke="#000000" stroke-width="45.47" stroke-linejoin="bevel" points="7096.26,907.158 7096.26,1246.96" />
<polyline class="BarLine" fill="none" stroke="#000000" stroke-width="14.88" stroke-linejoin="bevel" points="4609.73,907.158 4609.73,1246.96" />
<polyline class="BarLine" fill="none" stroke="#000000" stroke-width="45.47" stroke-linejoin="bevel" points="7096.26,907.158 7096.26,1246.96" />
<polyline class="BarLine" fill="none" stroke="#000000" stroke-width="14.88" stroke-linejoin="bevel" points="7157.02,907.158 7157.02,1246.96" />
<path class="BarLine" d="M7229.47,1035.72 C7229.47,1026.12 7221.86,1018.18 7212.26,1018.18 C7202.66,1018.18 7195.05,1026.12 7195.05,1035.72 C7195.05,1045.32 7202.66,1053.26 7212.26,1053.26 C7221.86,1053.26 7229.47,1045.32 7229.47,1035.72"/>
<path class="BarLine" d="M7229.47,1118.4 C7229.47,1108.8 7221.86,1100.86 7212.26,1100.86 C7202.66,1100.86 7195.05,1108.8 7195.05,1118.4 C7195.05,1128 7202.66,1135.94 7212.26,1135.94 C7221.86,1135.94 7229.47,1128 7229.47,1118.4"/>
<polyline class="BarLine" fill="none" stroke="#000000" stroke-width="14.88" stroke-linejoin="bevel" points="7774.14,907.158 7774.14,1246.96" />
<polyline class="BarLine" fill="none" stroke="#000000" stroke-width="14.88" stroke-linejoin="bevel" points="3428.96,907.158 3428.96,1246.96" />
<polyline class="BarLine" fill="none" stroke="#000000" stroke-width="14.88" stroke-linejoin="bevel" points="1977.47,1775.27 1977.47,2115.07" />
<polyline class="BarLine" fill="none" stroke="#000000" stroke-width="14.88" stroke-linejoin="bevel" points="9131.84,1775.27 9131.84,2115.07" />
<polyline class="BarLine" fill="none" stroke="#000000" stroke-width="45.47" stroke-linejoin="bevel" points="9192.6,1775.27 9192.6,2115.07" />
<polyline class="BarLine" fill="none" stroke="#000000" stroke-width="14.88" stroke-linejoin="bevel" points="7145.8,1775.27 7145.8,2115.07" />
<path class="Accidental" d="M3733.59,2292.72 L3763.05,2286.77 L3763.05,2341.38 L3733.59,2347.67 L3733.59,2292.72 M3784.89,2282.46 C3786.88,2282.13 3788.53,2279.81 3788.53,2277.83 L3788.53,2258.3 C3788.53,2255.65 3786.55,2253.67 3783.9,2253.67 L3783.24,2253.67 L3772.31,2255.98 L3772.31,2206.66 L3763.05,2206.66 L3763.05,2257.97 L3733.59,2263.93 L3733.59,2217.26 L3724.32,2217.26 L3724.32,2265.91 L3711.41,2268.56 C3709.42,2268.89 3707.77,2271.21 3707.77,2273.19 L3707.77,2292.39 C3707.77,2295.04 3709.76,2297.03 3712.4,2297.03 L3713.4,2297.03 L3724.32,2294.71 L3724.32,2349.32 L3711.41,2351.97 C3709.42,2352.3 3707.77,2354.62 3707.77,2356.61 L3707.77,2375.8 C3707.77,2378.45 3709.76,2380.44 3712.4,2380.44 L3713.4,2380.44 L3724.32,2378.12 L3724.32,2427.44 L3733.59,2427.44 L3733.59,2376.14 L3763.05,2370.18 L3763.05,2416.85 L3772.31,2416.85 L3772.31,2368.19 L3784.89,2365.87 C3786.88,2365.54 3788.53,2363.23 3788.53,2361.24 L3788.53,2341.71 C3788.53,2339.06 3786.55,2337.08 3783.9,2337.08 L3783.24,2337.08 L3772.31,2339.39 L3772.31,2284.78 L3784.89,2282.46 "/>
<path class="Accidental" d="M2507.29,1135.24 L2536.74,1129.29 L2536.74,1183.9 L2507.29,1190.19 L2507.29,1135.24 M2558.59,1124.98 C2560.58,1124.65 2562.23,1122.33 2562.23,1120.35 L2562.23,1100.82 C2562.23,1098.17 2560.25,1096.19 2557.6,1096.19 L2556.94,1096.19 L2546.01,1098.5 L2546.01,1049.18 L2536.74,1049.18 L2536.74,1100.49 L2507.29,1106.45 L2507.29,1059.78 L2498.02,1059.78 L2498.02,1108.43 L2485.11,1111.08 C2483.12,1111.41 2481.47,1113.73 2481.47,1115.71 L2481.47,1134.91 C2481.47,1137.56 2483.45,1139.55 2486.1,1139.55 L2487.09,1139.55 L2498.02,1137.23 L2498.02,1191.84 L2485.11,1194.49 C2483.12,1194.82 2481.47,1197.14 2481.47,1199.13 L2481.47,1218.32 C2481.47,1220.97 2483.45,1222.96 2486.1,1222.96 L2487.09,1222.96 L2498.02,1220.64 L2498.02,1269.96 L2507.29,1269.96 L2507.29,1218.66 L2536.74,1212.7 L2536.74,1259.37 L2546.01,1259.37 L2546.01,1210.71 L2558.59,1208.39 C2560.58,1208.06 2562.23,1205.75 2562.23,1203.76 L2562.23,1184.23 C2562.23,1181.58 2560.25,1179.6 2557.6,1179.6 L2556.94,1179.6 L2546.01,1181.91 L2546.01,1127.3 L2558.59,1124.98 "/>
<path class="Accidental" d="M7988.53,2003.35 L8017.99,1997.4 L8017.99,2052.01 L7988.53,2058.3 L7988.53,2003.35 M8039.83,1993.09 C8041.82,1992.76 8043.48,1990.44 8043.48,1988.46 L8043.48,1968.93 C8043.48,1966.28 8041.49,1964.3 8038.84,1964.3 L8038.18,1964.3 L8027.26,1966.61 L8027.26,1917.29 L8017.99,1917.29 L8017.99,1968.6 L7988.53,1974.56 L7988.53,1927.89 L7979.26,1927.89 L7979.26,1976.54 L7966.35,1979.19 C7964.37,1979.52 7962.71,1981.84 7962.71,1983.82 L7962.71,2003.02 C7962.71,2005.67 7964.7,2007.66 7967.35,2007.66 L7968.34,2007.66 L7979.26,2005.34 L7979.26,2059.95 L7966.35,2062.6 C7964.37,2062.93 7962.71,2065.25 7962.71,2067.24 L7962.71,2086.43 C7962.71,2089.08 7964.7,2091.07 7967.35,2091.07 L7968.34,2091.07 L7979.26,2088.75 L7979.26,2138.07 L7988.53,2138.07 L7988.53,2086.77 L8017.99,2080.81 L8017.99,2127.48 L8027.26,2127.48 L8027.26,2078.82 L8039.83,2076.5 C8041.82,2076.17 8043.48,2073.86 8043.48,2071.87 L8043.48,2052.34 C8043.48,2049.69 8041.49,2047.71 8038.84,2047.71 L8038.18,2047.71 L8027.26,2050.02 L8027.26,1995.41 L8039.83,1993.09 "/>
<path class="Accidental" d="M6382.68,2003.35 L6412.14,1997.4 L6412.14,2052.01 L6382.68,2058.3 L6382.68,2003.35 M6433.98,1993.09 C6435.97,1992.76 6437.63,1990.44 6437.63,1988.46 L6437.63,1968.93 C6437.63,1966.28 6435.64,1964.3 6432.99,1964.3 L6432.33,1964.3 L6421.41,1966.61 L6421.41,1917.29 L6412.14,1917.29 L6412.14,1968.6 L6382.68,1974.56 L6382.68,1927.89 L6373.41,1927.89 L6373.41,1976.54 L6360.5,1979.19 C6358.52,1979.52 6356.86,1981.84 6356.86,1983.82 L6356.86,2003.02 C6356.86,2005.67 6358.85,2007.66 6361.5,2007.66 L6362.49,2007.66 L6373.41,2005.34 L6373.41,2059.95 L6360.5,2062.6 C6358.52,2062.93 6356.86,2065.25 6356.86,2067.24 L6356.86,2086.43 C6356.86,2089.08 6358.85,2091.07 6361.5,2091.07 L6362.49,2091.07 L6373.41,2088.75 L6373.41,2138.07 L6382.68,2138.07 L6382.68,2086.77 L6412.14,2080.81 L6412.14,2127.48 L6421.41,2127.48 L6421.41,2078.82 L6433.98,2076.5 C6435.97,2076.17 6437.63,2073.86 6437.63,2071.87 L6437.63,2052.34 C6437.63,2049.69 6435.64,2047.71 6432.99,2047.71 L6432.33,2047.71 L6421.41,2050.02 L6421.41,1995.41 L6433.98,1993.09 "/>
<polyline class="LedgerLine" fill="none" stroke="#000000" stroke-width="13.23" stroke-linejoin="bevel" points="3816.05,1325.09 3978.11,1325.09" />
<polyline class="LedgerLine" fill="none" stroke="#000000" stroke-width="13.23" stroke-linejoin="bevel" points="3816.05,1407.77 3978.11,1407.77" />
<polyline class="LedgerLine" fill="none" stroke="#000000" stroke-width="13.23" stroke-linejoin="bevel" points="3803.35,2275.88 3965.42,2275.88" />
<polyline class="LedgerLine" fill="none" stroke="#000000" stroke-width="13.23" stroke-linejoin="bevel" points="3803.35,2193.2 3965.42,2193.2" />
<polyline class="LedgerLine" fill="none" stroke="#000000" stroke-width="13.23" stroke-linejoin="bevel" points="2599.31,2193.2 2761.37,2193.2" />
<polyline class="LedgerLine" fill="none" stroke="#000000" stroke-width="13.23" stroke-linejoin="bevel" points="2060.98,2193.2 2223.04,2193.2" />
<polyline class="LedgerLine" fill="none" stroke="#000000" stroke-width="13.23" stroke-linejoin="bevel" points="2868.48,2193.2 3030.54,2193.2" />
<polyline class="LedgerLine" fill="none" stroke="#000000" stroke-width="13.23" stroke-linejoin="bevel" points="3525.04,2193.2 3687.1,2193.2" />
<polyline class="LedgerLine" fill="none" stroke="#000000" stroke-width="13.23" stroke-linejoin="bevel" points="3255.87,2275.88 3417.93,2275.88" />
<polyline class="LedgerLine" fill="none" stroke="#000000" stroke-width="13.23" stroke-linejoin="bevel" points="3255.87,2193.2 3417.93,2193.2" />
<polyline class="LedgerLine" fill="none" stroke="#000000" stroke-width="13.23" stroke-linejoin="bevel" points="2330.14,2193.2 2492.2,2193.2" />
<polyline class="LedgerLine" fill="none" stroke="#000000" stroke-width="13.23" stroke-linejoin="bevel" points="3525.04,2275.88 3687.1,2275.88" />
<polyline class="Stem" fill="none" stroke="#000000" stroke-width="8.27" stroke-linejoin="bevel" points="5029.67,1959.06 5029.67,2193.2" />
<polyline class="Stem" fill="none" stroke="#000000" stroke-width="8.27" stroke-linejoin="bevel" points="2729.94,2221.31 2729.94,1945.17" />
<polyline class="Stem" fill="none" stroke="#000000" stroke-width="8.27" stroke-linejoin="bevel" points="5298.84,1959.06 5298.84,2193.2" />
<polyline class="Stem" fill="none" stroke="#000000" stroke-width="8.27" stroke-linejoin="bevel" points="5734.62,1105.17 5734.62,849.698" />
<polyline class="Stem" fill="none" stroke="#000000" stroke-width="8.27" stroke-linejoin="bevel" points="5329.84,1105.17 5329.84,869.961" />
<polyline class="Stem" fill="none" stroke="#000000" stroke-width="8.27" stroke-linejoin="bevel" points="5937.01,1063.83 5937.01,849.698" />
<polyline class="Stem" fill="none" stroke="#000000" stroke-width="8.27" stroke-linejoin="bevel" points="4760.5,1917.72 4760.5,2172.53" />
<polyline class="Stem" fill="none" stroke="#000000" stroke-width="8.27" stroke-linejoin="bevel" points="6139.4,1146.51 6139.4,849.698" />
<polyline class="Stem" fill="none" stroke="#000000" stroke-width="8.27" stroke-linejoin="bevel" points="4491.33,1917.72 4491.33,2172.53" />
<polyline class="Stem" fill="none" stroke="#000000" stroke-width="8.27" stroke-linejoin="bevel" points="5686.23,2000.4 5686.23,2213.87" />
<polyline class="Stem" fill="none" stroke="#000000" stroke-width="8.27" stroke-linejoin="bevel" points="5865.67,1917.72 5865.67,2213.87" />
<polyline class="Stem" fill="none" stroke="#000000" stroke-width="8.27" stroke-linejoin="bevel" points="6489.14,1105.17 6489.14,849.698" />
<polyline class="Stem" fill="none" stroke="#000000" stroke-width="8.27" stroke-linejoin="bevel" points="5127.45,1063.83 5127.45,850.103" />
<polyline class="Stem" fill="none" stroke="#000000" stroke-width="8.27" stroke-linejoin="bevel" points="6045.12,1959.06 6045.12,2213.87" />
<polyline class="Stem" fill="none" stroke="#000000" stroke-width="8.27" stroke-linejoin="bevel" points="4724.65,1049.61 4724.65,1304.42" />
<polyline class="Stem" fill="none" stroke="#000000" stroke-width="8.27" stroke-linejoin="bevel" points="6224.56,2000.4 6224.56,2213.87" />
<polyline class="Stem" fill="none" stroke="#000000" stroke-width="8.27" stroke-linejoin="bevel" points="4302.84,1090.95 4302.84,1325.09" />
<polyline class="Stem" fill="none" stroke="#000000" stroke-width="8.27" stroke-linejoin="bevel" points="7336.93,1090.95 7336.93,1304.42" />
<polyline class="Stem" fill="none" stroke="#000000" stroke-width="8.27" stroke-linejoin="bevel" points="4103.94,1959.06 4103.94,2193.2" />
<polyline class="Stem" fill="none" stroke="#000000" stroke-width="8.27" stroke-linejoin="bevel" points="6561.58,2014.62 6561.58,1738.48" />
<polyline class="Stem" fill="none" stroke="#000000" stroke-width="8.27" stroke-linejoin="bevel" points="3946.68,1394.54 3946.68,1077.06" />
<polyline class="Stem" fill="none" stroke="#000000" stroke-width="8.27" stroke-linejoin="bevel" points="7539.32,1090.95 7539.32,1304.42" />
<polyline class="Stem" fill="none" stroke="#000000" stroke-width="8.27" stroke-linejoin="bevel" points="6830.75,2055.96 6830.75,1842.28" />
<polyline class="Stem" fill="none" stroke="#000000" stroke-width="8.27" stroke-linejoin="bevel" points="3643.09,1105.17 3643.09,849.698" />
<polyline class="Stem" fill="none" stroke="#000000" stroke-width="8.27" stroke-linejoin="bevel" points="7010.19,2097.3 7010.19,1862.04" />
<polyline class="Stem" fill="none" stroke="#000000" stroke-width="8.27" stroke-linejoin="bevel" points="7889.06,1049.61 7889.06,1304.42" />
<polyline class="Stem" fill="none" stroke="#000000" stroke-width="8.27" stroke-linejoin="bevel" points="3933.98,2303.99 3933.98,1945.17" />
<polyline class="Stem" fill="none" stroke="#000000" stroke-width="8.27" stroke-linejoin="bevel" points="8192.65,1049.61 8192.65,1263.08" />
<polyline class="Stem" fill="none" stroke="#000000" stroke-width="8.27" stroke-linejoin="bevel" points="3293.35,1146.51 3293.35,849.698" />
<polyline class="Stem" fill="none" stroke="#000000" stroke-width="8.27" stroke-linejoin="bevel" points="3090.97,1063.83 3090.97,849.698" />
<polyline class="Stem" fill="none" stroke="#000000" stroke-width="8.27" stroke-linejoin="bevel" points="8395.03,1049.61 8395.03,1263.08" />
<polyline class="Stem" fill="none" stroke="#000000" stroke-width="8.27" stroke-linejoin="bevel" points="3655.67,2262.65 3655.67,1945.17" />
<polyline class="Stem" fill="none" stroke="#000000" stroke-width="8.27" stroke-linejoin="bevel" points="8696.64,1146.51 8696.64,870.367" />
<polyline class="Stem" fill="none" stroke="#000000" stroke-width="8.27" stroke-linejoin="bevel" points="2888.58,1105.17 2888.58,849.698" />
<polyline class="Stem" fill="none" stroke="#000000" stroke-width="8.27" stroke-linejoin="bevel" points="9000.22,1146.51 9000.22,870.367" />
<polyline class="Stem" fill="none" stroke="#000000" stroke-width="8.27" stroke-linejoin="bevel" points="7359.93,2055.96 7359.93,1779.82" />
<polyline class="Stem" fill="none" stroke="#000000" stroke-width="8.27" stroke-linejoin="bevel" points="7629.1,2138.63 7629.1,1862.49" />
<polyline class="Stem" fill="none" stroke="#000000" stroke-width="8.27" stroke-linejoin="bevel" points="2686.19,1146.51 2686.19,849.698" />
<polyline class="Stem" fill="none" stroke="#000000" stroke-width="8.27" stroke-linejoin="bevel" points="3386.5,2262.65 3386.5,1945.17" />
<polyline class="Stem" fill="none" stroke="#000000" stroke-width="8.27" stroke-linejoin="bevel" points="7898.26,2097.3 7898.26,1821.15" />
<polyline class="Stem" fill="none" stroke="#000000" stroke-width="8.27" stroke-linejoin="bevel" points="2448.38,1105.17 2448.38,869.961" />
<polyline class="Stem" fill="none" stroke="#000000" stroke-width="8.27" stroke-linejoin="bevel" points="8167.43,2014.62 8167.43,1738.48" />
<polyline class="Stem" fill="none" stroke="#000000" stroke-width="8.27" stroke-linejoin="bevel" points="1462.34,1917.72 1462.34,2172.53" />
<polyline class="Stem" fill="none" stroke="#000000" stroke-width="8.27" stroke-linejoin="bevel" points="2245.99,1063.83 2245.99,850.103" />
<polyline class="Stem" fill="none" stroke="#000000" stroke-width="8.27" stroke-linejoin="bevel" points="1843.2,1049.61 1843.2,1304.42" />
<polyline class="Stem" fill="none" stroke="#000000" stroke-width="8.27" stroke-linejoin="bevel" points="1387.65,1090.95 1387.65,1325.09" />
<polyline class="Stem" fill="none" stroke="#000000" stroke-width="8.27" stroke-linejoin="bevel" points="8554.83,1973.28 8554.83,1717.81" />
<polyline class="Stem" fill="none" stroke="#000000" stroke-width="8.27" stroke-linejoin="bevel" points="2191.61,2179.97 2191.61,1903.83" />
<polyline class="Stem" fill="none" stroke="#000000" stroke-width="8.27" stroke-linejoin="bevel" points="8823.99,1973.28 8823.99,1717.81" />
<polyline class="Stem" fill="none" stroke="#000000" stroke-width="8.27" stroke-linejoin="bevel" points="2999.11,2221.31 2999.11,1945.17" />
<polyline class="Stem" fill="none" stroke="#000000" stroke-width="8.27" stroke-linejoin="bevel" points="1193.18,1917.72 1193.18,2172.53" />
<polyline class="Stem" fill="none" stroke="#000000" stroke-width="8.27" stroke-linejoin="bevel" points="2460.77,2179.97 2460.77,1903.83" />
<polyline class="Stem" fill="none" stroke="#000000" stroke-width="8.27" stroke-linejoin="bevel" points="5532.23,1146.51 5532.23,849.698" />
<path class="Note" d="M1189.04,1917.73 C1189.04,1931.97 1199.3,1947.85 1226.11,1947.85 C1260.54,1947.85 1296.62,1919.72 1296.62,1890.59 C1296.62,1871.06 1280.07,1860.14 1259.54,1860.14 C1227.44,1860.14 1189.04,1887.28 1189.04,1917.73"/>
<path class="Note" d="M3190.01,1173.64 C3190.01,1187.87 3200.27,1203.76 3227.08,1203.76 C3261.5,1203.76 3297.58,1175.63 3297.58,1146.5 C3297.58,1126.97 3281.03,1116.05 3260.51,1116.05 C3228.4,1116.05 3190.01,1143.19 3190.01,1173.64"/>
<path class="Note" d="M8745.47,2014.97 C8734.55,2014.97 8732.23,2006.04 8732.23,2003.06 C8732.23,1986.84 8787.84,1958.37 8803.4,1958.37 C8811.34,1958.37 8816.64,1963.01 8816.64,1970.29 C8816.64,1986.84 8760.7,2014.97 8745.47,2014.97 M8791.15,1942.82 C8759.04,1942.82 8720.65,1969.63 8720.65,2000.41 C8720.65,2014.64 8730.91,2030.53 8757.72,2030.53 C8792.14,2030.53 8828.22,2002.4 8828.22,1973.27 C8828.22,1953.74 8811.67,1942.82 8791.15,1942.82"/>
<path class="Note" d="M2626.59,2248.44 C2626.59,2262.68 2636.86,2278.56 2663.67,2278.56 C2698.09,2278.56 2734.17,2250.43 2734.17,2221.3 C2734.17,2201.77 2717.62,2190.85 2697.1,2190.85 C2664.99,2190.85 2626.59,2217.99 2626.59,2248.44"/>
<path class="Note" d="M2088.26,2207.1 C2088.26,2221.34 2098.52,2237.22 2125.33,2237.22 C2159.76,2237.22 2195.84,2209.09 2195.84,2179.96 C2195.84,2160.43 2179.29,2149.51 2158.76,2149.51 C2126.66,2149.51 2088.26,2176.65 2088.26,2207.1"/>
<path class="Note" d="M8451.48,2000.41 C8451.48,2014.64 8461.74,2030.53 8488.55,2030.53 C8522.97,2030.53 8559.05,2002.4 8559.05,1973.27 C8559.05,1953.74 8542.5,1942.82 8521.98,1942.82 C8489.87,1942.82 8451.48,1969.96 8451.48,2000.41"/>
<path class="Note" d="M2895.76,2248.44 C2895.76,2262.68 2906.02,2278.56 2932.83,2278.56 C2967.26,2278.56 3003.34,2250.43 3003.34,2221.3 C3003.34,2201.77 2986.79,2190.85 2966.26,2190.85 C2934.16,2190.85 2895.76,2217.99 2895.76,2248.44"/>
<path class="Note" d="M1483.03,1932.3 C1472.11,1932.3 1469.79,1923.36 1469.79,1920.38 C1469.79,1904.16 1525.4,1875.7 1540.96,1875.7 C1548.9,1875.7 1554.2,1880.33 1554.2,1887.61 C1554.2,1904.16 1498.26,1932.3 1483.03,1932.3 M1528.71,1860.14 C1496.6,1860.14 1458.21,1886.95 1458.21,1917.73 C1458.21,1931.97 1468.47,1947.85 1495.28,1947.85 C1529.7,1947.85 1565.78,1919.72 1565.78,1890.59 C1565.78,1871.06 1549.23,1860.14 1528.71,1860.14"/>
<path class="Note" d="M1383.52,1090.96 C1383.52,1105.2 1393.78,1121.08 1420.59,1121.08 C1455.01,1121.08 1491.09,1092.95 1491.09,1063.82 C1491.09,1044.29 1474.54,1033.37 1454.02,1033.37 C1421.91,1033.37 1383.52,1060.51 1383.52,1090.96"/>
<path class="Note" d="M1839.06,1049.62 C1839.06,1063.86 1849.32,1079.74 1876.13,1079.74 C1910.56,1079.74 1946.64,1051.61 1946.64,1022.48 C1946.64,1002.95 1930.09,992.029 1909.57,992.029 C1877.46,992.029 1839.06,1019.17 1839.06,1049.62"/>
<path class="Note" d="M8896.87,1173.64 C8896.87,1187.87 8907.14,1203.76 8933.95,1203.76 C8968.37,1203.76 9004.45,1175.63 9004.45,1146.5 C9004.45,1126.97 8987.9,1116.05 8967.38,1116.05 C8935.27,1116.05 8896.87,1143.19 8896.87,1173.64"/>
<path class="Note" d="M8593.29,1173.64 C8593.29,1187.87 8603.55,1203.76 8630.36,1203.76 C8664.79,1203.76 8700.87,1175.63 8700.87,1146.5 C8700.87,1126.97 8684.32,1116.05 8663.79,1116.05 C8631.69,1116.05 8593.29,1143.19 8593.29,1173.64"/>
<path class="Note" d="M3283.16,2289.78 C3283.16,2304.01 3293.42,2319.9 3320.23,2319.9 C3354.65,2319.9 3390.73,2291.77 3390.73,2262.64 C3390.73,2243.11 3374.18,2232.19 3353.66,2232.19 C3321.55,2232.19 3283.16,2259.33 3283.16,2289.78"/>
<path class="Note" d="M8390.9,1049.62 C8390.9,1063.86 8401.16,1079.74 8427.97,1079.74 C8462.4,1079.74 8498.48,1051.61 8498.48,1022.48 C8498.48,1002.95 8481.93,992.029 8461.4,992.029 C8429.3,992.029 8390.9,1019.17 8390.9,1049.62"/>
<path class="Note" d="M2142.65,1090.96 C2142.65,1105.2 2152.91,1121.08 2179.72,1121.08 C2214.14,1121.08 2250.22,1092.95 2250.22,1063.82 C2250.22,1044.29 2233.67,1033.37 2213.15,1033.37 C2181.04,1033.37 2142.65,1060.51 2142.65,1090.96"/>
<path class="Note" d="M8188.51,1049.62 C8188.51,1063.86 8198.77,1079.74 8225.58,1079.74 C8260.01,1079.74 8296.09,1051.61 8296.09,1022.48 C8296.09,1002.95 8279.54,992.029 8259.01,992.029 C8226.91,992.029 8188.51,1019.17 8188.51,1049.62"/>
<path class="Note" d="M3552.32,2289.78 C3552.32,2304.01 3562.58,2319.9 3589.4,2319.9 C3623.82,2319.9 3659.9,2291.77 3659.9,2262.64 C3659.9,2243.11 3643.35,2232.19 3622.83,2232.19 C3590.72,2232.19 3552.32,2259.33 3552.32,2289.78"/>
<path class="Note" d="M7884.93,1049.62 C7884.93,1063.86 7895.19,1079.74 7922,1079.74 C7956.42,1079.74 7992.5,1051.61 7992.5,1022.48 C7992.5,1002.95 7975.95,992.029 7955.43,992.029 C7923.32,992.029 7884.93,1019.17 7884.93,1049.62"/>
<path class="Note" d="M7535.19,1090.96 C7535.19,1105.2 7545.45,1121.08 7572.26,1121.08 C7606.68,1121.08 7642.76,1092.95 7642.76,1063.82 C7642.76,1044.29 7626.21,1033.37 7605.69,1033.37 C7573.58,1033.37 7535.19,1060.51 7535.19,1090.96"/>
<path class="Note" d="M8064.08,2041.75 C8064.08,2055.98 8074.34,2071.87 8101.16,2071.87 C8135.58,2071.87 8171.66,2043.74 8171.66,2014.61 C8171.66,1995.08 8155.11,1984.16 8134.59,1984.16 C8102.48,1984.16 8064.08,2011.3 8064.08,2041.75"/>
<path class="Note" d="M3830.64,2331.12 C3830.64,2345.35 3840.9,2361.24 3867.71,2361.24 C3902.13,2361.24 3938.21,2333.11 3938.21,2303.98 C3938.21,2284.45 3921.66,2273.53 3901.14,2273.53 C3869.03,2273.53 3830.64,2300.67 3830.64,2331.12"/>
<path class="Note" d="M7794.92,2124.43 C7794.92,2138.66 7805.18,2154.55 7831.99,2154.55 C7866.41,2154.55 7902.49,2126.41 7902.49,2097.28 C7902.49,2077.76 7885.94,2066.83 7865.42,2066.83 C7833.31,2066.83 7794.92,2093.97 7794.92,2124.43"/>
<path class="Note" d="M7332.8,1090.96 C7332.8,1105.2 7343.06,1121.08 7369.87,1121.08 C7404.3,1121.08 7440.37,1092.95 7440.37,1063.82 C7440.37,1044.29 7423.82,1033.37 7403.3,1033.37 C7371.2,1033.37 7332.8,1060.51 7332.8,1090.96"/>
<path class="Note" d="M4099.81,1959.07 C4099.81,1973.31 4110.07,1989.19 4136.88,1989.19 C4171.3,1989.19 4207.38,1961.06 4207.38,1931.93 C4207.38,1912.4 4190.83,1901.48 4170.31,1901.48 C4138.2,1901.48 4099.81,1928.62 4099.81,1959.07"/>
<path class="Note" d="M2345.04,1132.3 C2345.04,1146.53 2355.3,1162.42 2382.11,1162.42 C2416.53,1162.42 2452.61,1134.29 2452.61,1105.16 C2452.61,1085.63 2436.06,1074.71 2415.54,1074.71 C2383.43,1074.71 2345.04,1101.85 2345.04,1132.3"/>
<path class="Note" d="M6410.62,1146.86 C6399.69,1146.86 6397.38,1137.93 6397.38,1134.95 C6397.38,1118.73 6452.98,1090.26 6468.54,1090.26 C6476.48,1090.26 6481.78,1094.9 6481.78,1102.18 C6481.78,1118.73 6425.84,1146.86 6410.62,1146.86 M6456.29,1074.71 C6424.19,1074.71 6385.79,1101.52 6385.79,1132.3 C6385.79,1146.53 6396.05,1162.42 6422.86,1162.42 C6457.29,1162.42 6493.37,1134.29 6493.37,1105.16 C6493.37,1085.63 6476.82,1074.71 6456.29,1074.71"/>
<path class="Note" d="M6036.05,1173.64 C6036.05,1187.87 6046.31,1203.76 6073.12,1203.76 C6107.55,1203.76 6143.63,1175.63 6143.63,1146.5 C6143.63,1126.97 6127.08,1116.05 6106.56,1116.05 C6074.45,1116.05 6036.05,1143.19 6036.05,1173.64"/>
<path class="Note" d="M4487.2,1917.73 C4487.2,1931.97 4497.46,1947.85 4524.27,1947.85 C4558.7,1947.85 4594.78,1919.72 4594.78,1890.59 C4594.78,1871.06 4578.23,1860.14 4557.7,1860.14 C4525.6,1860.14 4487.2,1887.28 4487.2,1917.73"/>
<path class="Note" d="M7525.75,2165.77 C7525.75,2180 7536.01,2195.89 7562.82,2195.89 C7597.25,2195.89 7633.32,2167.75 7633.32,2138.62 C7633.32,2119.09 7616.77,2108.17 7596.25,2108.17 C7564.15,2108.17 7525.75,2135.31 7525.75,2165.77"/>
<path class="Note" d="M5833.66,1090.96 C5833.66,1105.2 5843.92,1121.08 5870.73,1121.08 C5905.16,1121.08 5941.24,1092.95 5941.24,1063.82 C5941.24,1044.29 5924.69,1033.37 5904.17,1033.37 C5872.06,1033.37 5833.66,1060.51 5833.66,1090.96"/>
<path class="Note" d="M4756.37,1917.73 C4756.37,1931.97 4766.63,1947.85 4793.44,1947.85 C4827.86,1947.85 4863.94,1919.72 4863.94,1890.59 C4863.94,1871.06 4847.39,1860.14 4826.87,1860.14 C4794.76,1860.14 4756.37,1887.28 4756.37,1917.73"/>
<path class="Note" d="M5631.27,1132.3 C5631.27,1146.53 5641.53,1162.42 5668.35,1162.42 C5702.77,1162.42 5738.85,1134.29 5738.85,1105.16 C5738.85,1085.63 5722.3,1074.71 5701.78,1074.71 C5669.67,1074.71 5631.27,1101.85 5631.27,1132.3"/>
<path class="Note" d="M5025.53,1959.07 C5025.53,1973.31 5035.8,1989.19 5062.61,1989.19 C5097.03,1989.19 5133.11,1961.06 5133.11,1931.93 C5133.11,1912.4 5116.56,1901.48 5096.04,1901.48 C5063.93,1901.48 5025.53,1928.62 5025.53,1959.07"/>
<path class="Note" d="M2582.84,1173.64 C2582.84,1187.87 2593.1,1203.76 2619.91,1203.76 C2654.34,1203.76 2690.41,1175.63 2690.41,1146.5 C2690.41,1126.97 2673.86,1116.05 2653.34,1116.05 C2621.24,1116.05 2582.84,1143.19 2582.84,1173.64"/>
<path class="Note" d="M5294.7,1959.07 C5294.7,1973.31 5304.96,1989.19 5331.77,1989.19 C5366.2,1989.19 5402.28,1961.06 5402.28,1931.93 C5402.28,1912.4 5385.73,1901.48 5365.2,1901.48 C5333.1,1901.48 5294.7,1928.62 5294.7,1959.07"/>
<path class="Note" d="M5428.88,1173.64 C5428.88,1187.87 5439.14,1203.76 5465.96,1203.76 C5500.38,1203.76 5536.46,1175.63 5536.46,1146.5 C5536.46,1126.97 5519.91,1116.05 5499.39,1116.05 C5467.28,1116.05 5428.88,1143.19 5428.88,1173.64"/>
<path class="Note" d="M5226.49,1132.3 C5226.49,1146.53 5236.75,1162.42 5263.57,1162.42 C5297.99,1162.42 5334.07,1134.29 5334.07,1105.16 C5334.07,1085.63 5317.52,1074.71 5297,1074.71 C5264.89,1074.71 5226.49,1101.85 5226.49,1132.3"/>
<path class="Note" d="M7256.58,2083.09 C7256.58,2097.32 7266.84,2113.21 7293.65,2113.21 C7328.08,2113.21 7364.16,2085.07 7364.16,2055.95 C7364.16,2036.42 7347.61,2025.49 7327.09,2025.49 C7294.98,2025.49 7256.58,2052.64 7256.58,2083.09"/>
<path class="Note" d="M5682.1,2000.41 C5682.1,2014.64 5692.36,2030.53 5719.17,2030.53 C5753.59,2030.53 5789.67,2002.4 5789.67,1973.27 C5789.67,1953.74 5773.12,1942.82 5752.6,1942.82 C5720.49,1942.82 5682.1,1969.96 5682.1,2000.41"/>
<path class="Note" d="M2785.23,1132.3 C2785.23,1146.53 2795.49,1162.42 2822.3,1162.42 C2856.72,1162.42 2892.8,1134.29 2892.8,1105.16 C2892.8,1085.63 2876.25,1074.71 2855.73,1074.71 C2823.62,1074.71 2785.23,1101.85 2785.23,1132.3"/>
<path class="Note" d="M5024.1,1090.96 C5024.1,1105.2 5034.37,1121.08 5061.18,1121.08 C5095.6,1121.08 5131.68,1092.95 5131.68,1063.82 C5131.68,1044.29 5115.13,1033.37 5094.61,1033.37 C5062.5,1033.37 5024.1,1060.51 5024.1,1090.96"/>
<path class="Note" d="M5861.54,1917.73 C5861.54,1931.97 5871.8,1947.85 5898.61,1947.85 C5933.04,1947.85 5969.12,1919.72 5969.12,1890.59 C5969.12,1871.06 5952.57,1860.14 5932.04,1860.14 C5899.94,1860.14 5861.54,1887.28 5861.54,1917.73"/>
<path class="Note" d="M4720.52,1049.62 C4720.52,1063.86 4730.78,1079.74 4757.59,1079.74 C4792.02,1079.74 4828.09,1051.61 4828.09,1022.48 C4828.09,1002.95 4811.54,992.029 4791.02,992.029 C4758.92,992.029 4720.52,1019.17 4720.52,1049.62"/>
<path class="Note" d="M6040.99,1959.07 C6040.99,1973.31 6051.25,1989.19 6078.06,1989.19 C6112.48,1989.19 6148.56,1961.06 6148.56,1931.93 C6148.56,1912.4 6132.01,1901.48 6111.49,1901.48 C6079.38,1901.48 6040.99,1928.62 6040.99,1959.07"/>
<path class="Note" d="M4298.71,1090.96 C4298.71,1105.2 4308.97,1121.08 4335.78,1121.08 C4370.2,1121.08 4406.28,1092.95 4406.28,1063.82 C4406.28,1044.29 4389.73,1033.37 4369.21,1033.37 C4337.1,1033.37 4298.71,1060.51 4298.71,1090.96"/>
<path class="Note" d="M6220.43,2000.41 C6220.43,2014.64 6230.69,2030.53 6257.5,2030.53 C6291.93,2030.53 6328.01,2002.4 6328.01,1973.27 C6328.01,1953.74 6311.46,1942.82 6290.93,1942.82 C6258.83,1942.82 6220.43,1969.96 6220.43,2000.41"/>
<path class="Note" d="M2987.62,1090.96 C2987.62,1105.2 2997.88,1121.08 3024.69,1121.08 C3059.11,1121.08 3095.19,1092.95 3095.19,1063.82 C3095.19,1044.29 3078.64,1033.37 3058.12,1033.37 C3026.01,1033.37 2987.62,1060.51 2987.62,1090.96"/>
<path class="Note" d="M6458.23,2041.75 C6458.23,2055.98 6468.49,2071.87 6495.31,2071.87 C6529.73,2071.87 6565.81,2043.74 6565.81,2014.61 C6565.81,1995.08 6549.26,1984.16 6528.74,1984.16 C6496.63,1984.16 6458.23,2011.3 6458.23,2041.75"/>
<path class="Note" d="M3868.16,1436.23 C3857.23,1436.23 3854.92,1427.3 3854.92,1424.32 C3854.92,1408.1 3910.52,1379.63 3926.08,1379.63 C3934.02,1379.63 3939.32,1384.27 3939.32,1391.55 C3939.32,1408.1 3883.38,1436.23 3868.16,1436.23 M3913.83,1364.08 C3881.73,1364.08 3843.33,1390.89 3843.33,1421.67 C3843.33,1435.9 3853.59,1451.79 3880.4,1451.79 C3914.83,1451.79 3950.91,1423.66 3950.91,1394.53 C3950.91,1375 3934.36,1364.08 3913.83,1364.08"/>
<path class="Note" d="M3539.75,1132.3 C3539.75,1146.53 3550.01,1162.42 3576.82,1162.42 C3611.24,1162.42 3647.32,1134.29 3647.32,1105.16 C3647.32,1085.63 3630.77,1074.71 3610.25,1074.71 C3578.14,1074.71 3539.75,1101.85 3539.75,1132.3"/>
<path class="Note" d="M6727.4,2083.09 C6727.4,2097.32 6737.66,2113.21 6764.47,2113.21 C6798.9,2113.21 6834.98,2085.07 6834.98,2055.95 C6834.98,2036.42 6818.43,2025.49 6797.9,2025.49 C6765.8,2025.49 6727.4,2052.64 6727.4,2083.09"/>
<path class="Note" d="M6906.85,2124.43 C6906.85,2138.66 6917.11,2154.55 6943.92,2154.55 C6978.34,2154.55 7014.42,2126.41 7014.42,2097.28 C7014.42,2077.76 6997.87,2066.83 6977.35,2066.83 C6945.24,2066.83 6906.85,2093.97 6906.85,2124.43"/>
<path class="Note" d="M2357.43,2207.1 C2357.43,2221.34 2367.69,2237.22 2394.5,2237.22 C2428.92,2237.22 2465,2209.09 2465,2179.96 C2465,2160.43 2448.45,2149.51 2427.93,2149.51 C2395.82,2149.51 2357.43,2176.65 2357.43,2207.1"/>
<path class="Clef" d="M909.689,2096.03 C903.069,2097.36 896.78,2098.02 890.491,2098.02 C843.158,2098.02 802.776,2064.92 802.776,2014.94 C802.776,1974.56 831.242,1938.48 860.37,1913.32 C865.997,1908.36 871.293,1903.72 876.258,1898.76 C879.237,1916.63 881.554,1932.19 883.871,1945.76 C853.75,1954.7 833.228,1986.47 833.228,2017.59 C833.228,2040.76 851.433,2072.53 877.913,2072.53 C880.561,2072.53 883.54,2071.21 883.54,2068.23 C883.54,2065.25 880.23,2063.6 876.258,2060.95 C863.349,2053 856.067,2044.4 856.067,2028.18 C856.067,2007.99 870.962,1991.77 890.491,1987.13 L909.689,2096.03 M880.561,1755.77 C883.54,1742.53 898.766,1707.77 915.978,1707.77 C920.943,1707.77 928.887,1723.99 928.887,1746.83 C928.887,1781.25 903.4,1807.07 880.561,1829.58 C878.575,1816.34 876.92,1803.43 876.92,1789.53 C876.92,1777.28 877.913,1766.03 880.561,1755.77 M956.691,2034.8 C956.691,2058.3 947.092,2082.46 923.591,2092.06 C916.64,2052.34 907.703,1999.71 905.386,1985.15 C935.176,1985.15 956.691,2005.34 956.691,2034.8 M811.051,2197.65 C811.051,2219.5 827.932,2248.29 872.617,2248.29 C888.174,2248.29 901.745,2244.32 913.661,2237.04 C931.535,2224.46 936.169,2202.62 936.169,2181.76 C936.169,2168.85 934.183,2153.96 930.873,2135.09 C929.88,2128.47 927.894,2118.54 925.908,2105.63 C958.346,2095.04 982.509,2061.28 982.509,2027.19 C982.509,1977.2 947.092,1943.44 898.766,1943.44 C895.456,1923.58 892.146,1904.05 889.167,1885.52 C924.253,1848.78 948.416,1807.4 948.416,1754.77 C948.416,1724.65 939.148,1700.16 933.852,1688.24 C925.908,1671.36 916.309,1659.78 910.351,1659.78 C908.034,1659.78 897.773,1663.75 886.85,1676.66 C865.666,1701.81 859.708,1744.18 859.708,1771.98 C859.708,1789.86 861.363,1806.08 866.99,1843.15 C866.659,1843.48 849.447,1861.02 842.496,1866.65 C812.375,1894.79 770.669,1934.84 770.669,2001.04 C770.669,2062.93 824.622,2111.59 886.188,2111.59 C895.787,2111.59 904.724,2110.6 912.337,2109.27 C918.626,2141.05 922.267,2164.22 922.267,2181.76 C922.267,2216.19 904.724,2234.39 871.293,2234.39 C863.349,2234.39 856.398,2232.74 855.736,2232.74 C855.405,2232.41 854.743,2232.07 854.743,2231.74 C854.743,2231.08 855.405,2230.75 856.398,2230.42 C871.955,2228.1 887.512,2214.86 887.512,2193.68 C887.512,2175.8 873.941,2156.94 849.116,2156.94 C825.946,2156.94 811.051,2175.8 811.051,2197.65"/>
<path class="Clef" d="M909.689,1227.92 C903.069,1229.25 896.78,1229.91 890.491,1229.91 C843.158,1229.91 802.776,1196.81 802.776,1146.83 C802.776,1106.45 831.242,1070.37 860.37,1045.21 C865.997,1040.25 871.293,1035.61 876.258,1030.65 C879.237,1048.52 881.554,1064.08 883.871,1077.65 C853.75,1086.59 833.228,1118.36 833.228,1149.48 C833.228,1172.65 851.433,1204.42 877.913,1204.42 C880.561,1204.42 883.54,1203.1 883.54,1200.12 C883.54,1197.14 880.23,1195.49 876.258,1192.84 C863.349,1184.89 856.067,1176.29 856.067,1160.07 C856.067,1139.88 870.962,1123.66 890.491,1119.02 L909.689,1227.92 M880.561,887.655 C883.54,874.415 898.766,839.66 915.978,839.66 C920.943,839.66 928.887,855.879 928.887,878.718 C928.887,913.142 903.4,938.96 880.561,961.468 C878.575,948.228 876.92,935.319 876.92,921.417 C876.92,909.17 877.913,897.916 880.561,887.655 M956.691,1166.69 C956.691,1190.19 947.092,1214.35 923.591,1223.95 C916.64,1184.23 907.703,1131.6 905.386,1117.04 C935.176,1117.04 956.691,1137.23 956.691,1166.69 M811.051,1329.54 C811.051,1351.39 827.932,1380.18 872.617,1380.18 C888.174,1380.18 901.745,1376.21 913.661,1368.93 C931.535,1356.35 936.169,1334.51 936.169,1313.65 C936.169,1300.74 934.183,1285.85 930.873,1266.98 C929.88,1260.36 927.894,1250.43 925.908,1237.52 C958.346,1226.93 982.509,1193.17 982.509,1159.08 C982.509,1109.09 947.092,1075.33 898.766,1075.33 C895.456,1055.47 892.146,1035.94 889.167,1017.41 C924.253,980.666 948.416,939.291 948.416,886.662 C948.416,856.541 939.148,832.047 933.852,820.131 C925.908,803.25 916.309,791.665 910.351,791.665 C908.034,791.665 897.773,795.637 886.85,808.546 C865.666,833.702 859.708,876.07 859.708,903.874 C859.708,921.748 861.363,937.967 866.99,975.039 C866.659,975.37 849.447,992.913 842.496,998.54 C812.375,1026.68 770.669,1066.73 770.669,1132.93 C770.669,1194.82 824.622,1243.48 886.188,1243.48 C895.787,1243.48 904.724,1242.49 912.337,1241.16 C918.626,1272.94 922.267,1296.11 922.267,1313.65 C922.267,1348.08 904.724,1366.28 871.293,1366.28 C863.349,1366.28 856.398,1364.63 855.736,1364.63 C855.405,1364.3 854.743,1363.96 854.743,1363.63 C854.743,1362.97 855.405,1362.64 856.398,1362.31 C871.955,1359.99 887.512,1346.75 887.512,1325.57 C887.512,1307.69 873.941,1288.83 849.116,1288.83 C825.946,1288.83 811.051,1307.69 811.051,1329.54"/>
<path class="TimeSig" d="M1172.6,1017.81 C1164.33,1023.11 1158.37,1032.71 1158.37,1043.3 C1158.37,1044.62 1158.37,1045.95 1158.7,1047.27 C1160.35,1060.84 1171.28,1071.43 1184.85,1073.09 L1188.49,1073.09 C1205.04,1073.09 1218.28,1059.85 1218.28,1043.3 L1218.28,1041.31 C1218.28,1039.99 1217.95,1037.67 1217.62,1036.35 C1214.64,1022.11 1201.73,991.662 1145.46,991.662 C1073.3,991.662 1065.03,1051.57 1065.03,1073.09 C1065.03,1112.48 1069.99,1161.8 1152.74,1161.8 C1185.51,1161.8 1211,1142.6 1212.32,1107.18 C1212.32,1105.53 1211.33,1104.53 1209.67,1104.53 L1205.37,1104.53 C1204.05,1104.53 1202.72,1105.86 1202.72,1107.18 C1201.4,1134.65 1181.87,1151.2 1152.74,1151.2 C1123.94,1151.2 1110.04,1135.65 1110.04,1106.52 L1110.04,1043.3 C1110.04,1024.76 1117.32,1003.58 1146.78,1003.58 C1162.34,1003.58 1169.29,1009.21 1172.93,1014.83 C1173.26,1015.49 1173.26,1015.83 1173.26,1016.49 C1173.26,1016.82 1173.26,1017.48 1172.6,1017.81"/>
<path class="Beam" fill-rule="evenodd" d="M6826.61,1821.03 L7014.33,1841.7 L7014.33,1883.29 L6826.61,1862.62 L6826.61,1821.03 "/>
<path class="Beam" fill-rule="evenodd" d="M5682.1,2193.2 L6228.7,2193.2 L6228.7,2234.54 L5682.1,2234.54 L5682.1,2193.2 "/>
<path class="Beam" fill-rule="evenodd" d="M2682.05,829.029 L3297.49,829.029 L3297.49,870.367 L2682.05,870.367 L2682.05,829.029 "/>
<path class="Beam" fill-rule="evenodd" d="M5123.32,828.929 L5333.97,849.599 L5333.97,891.136 L5123.32,870.466 L5123.32,828.929 "/>
<path class="Beam" fill-rule="evenodd" d="M5528.1,829.029 L6143.53,829.029 L6143.53,870.367 L5528.1,870.367 L5528.1,829.029 "/>
<path class="Beam" fill-rule="evenodd" d="M7332.8,1283.75 L7543.46,1283.75 L7543.46,1325.09 L7332.8,1325.09 L7332.8,1283.75 "/>
<path class="Beam" fill-rule="evenodd" d="M2241.86,828.929 L2452.52,849.599 L2452.52,891.136 L2241.86,870.466 L2241.86,828.929 "/>
<path class="Beam" fill-rule="evenodd" d="M8188.51,1242.41 L8399.17,1242.41 L8399.17,1283.75 L8188.51,1283.75 L8188.51,1242.41 "/>
<path class="SystemText" d="M3906.01,805.854 L3875.45,728.366 C3874.62,726.195 3874.12,724.024 3874.12,723.189 C3874.12,720.183 3876.96,719.014 3884.47,719.014 L3891.15,719.014 L3891.15,711.165 L3839.05,711.165 L3839.05,719.014 L3842.39,719.014 C3850.07,719.181 3852.57,721.018 3855.25,728.366 L3897.5,834.244 L3904.18,834.244 L3942.59,735.38 C3947.6,722.354 3951.1,719.348 3960.79,719.014 L3962.46,719.014 L3962.46,711.165 L3917.2,711.165 L3917.2,719.014 L3920.38,719.014 C3928.89,719.014 3933.9,722.354 3933.9,727.698 C3933.9,730.036 3933.07,733.71 3931.9,737.05 L3906.01,805.854 M3986.33,712.334 C3980.98,712.334 3976.64,716.676 3976.64,722.02 C3976.64,727.364 3980.98,731.706 3986.16,731.706 C3991.67,731.706 3996.01,727.364 3996.01,722.02 C3996.01,716.676 3991.67,712.334 3986.33,712.334 M3994.18,753.917 L3962.78,755.754 L3962.78,762.935 L3971.3,762.935 C3977.64,763.102 3978.48,764.104 3978.48,771.285 L3978.48,819.047 C3978.31,821.552 3978.14,822.554 3977.48,823.389 C3976.31,824.892 3973.13,825.56 3965.95,825.727 L3964.78,825.727 L3964.78,831.739 L4008.04,831.739 L4008.04,825.727 L4006.87,825.727 C3995.68,825.393 3994.18,824.558 3994.18,818.546 L3994.18,753.917 M4054.45,751.412 C4033.91,751.412 4018.05,769.615 4018.05,792.995 C4018.05,815.874 4034.08,834.244 4054.12,834.244 C4074.16,834.244 4090.19,815.874 4090.19,792.828 C4090.19,769.949 4074.16,751.412 4054.45,751.412 M4054.45,758.593 C4066.14,758.593 4072.65,770.784 4072.65,792.828 C4072.65,815.039 4066.14,827.063 4054.12,827.063 C4042.09,827.063 4035.58,815.039 4035.58,792.995 C4035.58,770.283 4041.93,758.593 4054.45,758.593"/>
<path class="SystemText" d="M4565.59,1578.27 L4559.41,1578.27 L4552.73,1588.29 C4544.72,1580.78 4534.2,1576.77 4522.34,1576.77 C4500.29,1576.77 4485.77,1590.63 4485.77,1611.67 C4485.77,1629.88 4494.78,1638.89 4519.33,1645.24 L4535.2,1649.25 C4547.56,1652.42 4548.72,1652.76 4552.23,1655.43 C4557.24,1659.27 4559.91,1664.78 4559.91,1671.29 C4559.91,1677.97 4557.41,1683.48 4552.4,1688.16 C4546.89,1692.84 4541.38,1694.67 4532.19,1694.67 C4506.97,1694.67 4494.45,1676.14 4490.11,1653.59 L4482.93,1653.59 L4483.59,1701.19 L4490.11,1701.19 L4497.62,1689.83 C4508.81,1699.01 4518,1702.35 4532.69,1702.35 C4557.24,1702.35 4572.94,1687.99 4572.94,1665.61 C4572.94,1655.09 4569.6,1646.41 4562.92,1640.06 C4558.41,1635.72 4551.9,1632.88 4538.54,1629.54 L4520.67,1625.03 C4505.81,1621.19 4498.79,1614.68 4498.79,1604.49 C4498.79,1592.8 4508.31,1584.79 4522.51,1584.79 C4544.05,1584.79 4555.91,1602.66 4560.41,1621.69 L4567.6,1621.69 L4565.59,1578.27 M4623.37,1619.52 C4602.83,1619.52 4586.96,1637.73 4586.96,1661.11 C4586.96,1683.98 4602.99,1702.35 4623.03,1702.35 C4643.07,1702.35 4659.11,1683.98 4659.11,1660.94 C4659.11,1638.06 4643.07,1619.52 4623.37,1619.52 M4623.37,1626.7 C4635.06,1626.7 4641.57,1638.89 4641.57,1660.94 C4641.57,1683.15 4635.06,1695.17 4623.03,1695.17 C4611.01,1695.17 4604.5,1683.15 4604.5,1661.11 C4604.5,1638.39 4610.84,1626.7 4623.37,1626.7 M4698.18,1622.03 L4669.29,1623.86 L4669.29,1631.05 L4675.31,1631.05 C4681.65,1631.21 4682.49,1632.21 4682.49,1639.4 L4682.49,1687.16 C4682.32,1689.66 4682.15,1690.66 4681.48,1691.5 C4680.32,1693 4677.14,1693.67 4669.96,1693.84 L4669.29,1693.84 L4669.29,1699.85 L4711.54,1699.85 L4711.54,1693.84 L4710.88,1693.84 C4699.69,1693.5 4698.18,1692.67 4698.18,1686.66 L4698.18,1661.94 C4698.18,1653.76 4699.35,1646.24 4701.19,1642.4 C4704.7,1634.89 4712.21,1629.71 4719.39,1629.71 C4723.74,1629.71 4728.75,1632.05 4731.25,1635.55 C4733.76,1639.23 4734.92,1644.24 4734.92,1652.25 L4734.92,1687.16 C4734.76,1689.66 4734.59,1690.66 4733.92,1691.5 C4732.75,1693 4729.41,1693.67 4722.23,1693.84 L4721.56,1693.84 L4721.56,1699.85 L4763.82,1699.85 L4763.82,1693.84 L4763.15,1693.84 C4752.13,1693.5 4750.62,1692.67 4750.62,1686.66 L4750.62,1653.09 C4750.62,1641.07 4750.12,1638.06 4747.12,1632.38 C4742.94,1624.37 4734.59,1619.52 4724.57,1619.52 C4713.72,1619.52 4705.53,1624.53 4698.18,1635.55 L4698.18,1622.03 M4799.05,1687.49 C4789.86,1687.32 4789.36,1687.16 4787.36,1685.99 C4786.19,1685.32 4785.35,1683.48 4785.35,1681.65 C4785.35,1676.64 4789.86,1674.47 4801.05,1674.13 C4816.75,1673.8 4819.25,1673.46 4824.93,1670.96 C4834.95,1666.45 4840.46,1657.77 4840.46,1646.74 C4840.46,1640.06 4838.96,1635.89 4834.45,1630.38 C4837.29,1627.37 4838.79,1626.37 4840.13,1626.37 C4840.96,1626.37 4841.47,1626.87 4841.8,1628.71 C4842.47,1632.72 4845.14,1634.89 4849.31,1634.89 C4853.66,1634.89 4856.83,1631.38 4856.83,1626.87 C4856.83,1621.19 4852.32,1617.18 4845.81,1617.18 C4840.46,1617.18 4837.46,1618.85 4829.78,1625.87 C4822.76,1621.19 4817.42,1619.52 4809.07,1619.52 C4789.19,1619.52 4776.17,1630.54 4776.17,1647.24 C4776.17,1657.1 4781.51,1665.45 4790.2,1669.62 C4779.01,1672.13 4774.33,1677.14 4774.33,1686.32 C4774.33,1693.67 4777.67,1698.01 4785.52,1700.68 C4775.17,1704.53 4770.16,1709.7 4770.16,1716.55 C4770.16,1721.56 4773.5,1726.24 4778.84,1729.07 C4785.35,1732.41 4793.37,1733.75 4805.39,1733.75 C4833.28,1733.75 4847.14,1724.9 4847.14,1707.36 C4847.14,1699.01 4843.3,1692.33 4837.29,1689.83 C4832.78,1688.16 4827.44,1687.49 4816.08,1687.49 L4799.05,1687.49 M4808.9,1626.7 C4819.25,1626.7 4825.1,1633.88 4825.1,1646.91 C4825.1,1659.94 4818.75,1667.79 4808.23,1667.79 C4797.88,1667.79 4791.37,1659.94 4791.37,1647.41 C4791.37,1634.22 4797.71,1626.7 4808.9,1626.7 M4807.4,1701.85 C4821.26,1701.85 4822.26,1701.85 4824.6,1702.19 C4831.45,1702.86 4835.45,1706.53 4835.45,1711.87 C4835.45,1721.39 4824.6,1726.9 4806.06,1726.9 C4791.87,1726.9 4784.02,1722.73 4784.02,1715.21 C4784.02,1709.7 4787.02,1706.03 4795.04,1701.85 L4807.4,1701.85 "/>
<path class="SystemText" d="M7411.19,710.163 L7405.01,710.163 L7398.33,720.183 C7390.32,712.668 7379.79,708.66 7367.94,708.66 C7345.89,708.66 7331.36,722.521 7331.36,743.563 C7331.36,761.766 7340.38,770.784 7364.93,777.13 L7380.8,781.138 C7393.15,784.311 7394.32,784.645 7397.83,787.317 C7402.84,791.158 7405.51,796.669 7405.51,803.182 C7405.51,809.862 7403.01,815.373 7398,820.049 C7392.49,824.725 7386.98,826.562 7377.79,826.562 C7352.57,826.562 7340.05,808.025 7335.71,785.48 L7328.53,785.48 L7329.19,833.075 L7335.71,833.075 L7343.22,821.719 C7354.41,830.904 7363.6,834.244 7378.29,834.244 C7402.84,834.244 7418.54,819.882 7418.54,797.504 C7418.54,786.983 7415.2,778.299 7408.52,771.953 C7404.01,767.611 7397.5,764.772 7384.14,761.432 L7366.27,756.923 C7351.4,753.082 7344.39,746.569 7344.39,736.382 C7344.39,724.692 7353.91,716.676 7368.1,716.676 C7389.65,716.676 7401.5,734.545 7406.01,753.583 L7413.19,753.583 L7411.19,710.163 M7468.97,751.412 C7448.43,751.412 7432.56,769.615 7432.56,792.995 C7432.56,815.874 7448.59,834.244 7468.63,834.244 C7488.67,834.244 7504.71,815.874 7504.71,792.828 C7504.71,769.949 7488.67,751.412 7468.97,751.412 M7468.97,758.593 C7480.66,758.593 7487.17,770.784 7487.17,792.828 C7487.17,815.039 7480.66,827.063 7468.63,827.063 C7456.61,827.063 7450.1,815.039 7450.1,792.995 C7450.1,770.283 7456.44,758.593 7468.97,758.593 M7543.78,753.917 L7514.89,755.754 L7514.89,762.935 L7520.9,762.935 C7527.25,763.102 7528.09,764.104 7528.09,771.285 L7528.09,819.047 C7527.92,821.552 7527.75,822.554 7527.08,823.389 C7525.91,824.892 7522.74,825.56 7515.56,825.727 L7514.89,825.727 L7514.89,831.739 L7557.14,831.739 L7557.14,825.727 L7556.48,825.727 C7545.29,825.393 7543.78,824.558 7543.78,818.546 L7543.78,793.83 C7543.78,785.647 7544.95,778.132 7546.79,774.291 C7550.3,766.776 7557.81,761.599 7564.99,761.599 C7569.33,761.599 7574.34,763.937 7576.85,767.444 C7579.35,771.118 7580.52,776.128 7580.52,784.144 L7580.52,819.047 C7580.36,821.552 7580.19,822.554 7579.52,823.389 C7578.35,824.892 7575.01,825.56 7567.83,825.727 L7567.16,825.727 L7567.16,831.739 L7609.41,831.739 L7609.41,825.727 L7608.75,825.727 C7597.72,825.393 7596.22,824.558 7596.22,818.546 L7596.22,784.979 C7596.22,772.955 7595.72,769.949 7592.71,764.271 C7588.54,756.255 7580.19,751.412 7570.17,751.412 C7559.31,751.412 7551.13,756.422 7543.78,767.444 L7543.78,753.917 M7644.65,819.381 C7635.46,819.214 7634.96,819.047 7632.96,817.878 C7631.79,817.21 7630.95,815.373 7630.95,813.536 C7630.95,808.526 7635.46,806.355 7646.65,806.021 C7662.35,805.687 7664.85,805.353 7670.53,802.848 C7680.55,798.339 7686.06,789.655 7686.06,778.633 C7686.06,771.953 7684.56,767.778 7680.05,762.267 C7682.89,759.261 7684.39,758.259 7685.73,758.259 C7686.56,758.259 7687.06,758.76 7687.4,760.597 C7688.07,764.605 7690.74,766.776 7694.91,766.776 C7699.26,766.776 7702.43,763.269 7702.43,758.76 C7702.43,753.082 7697.92,749.074 7691.41,749.074 C7686.06,749.074 7683.06,750.744 7675.37,757.758 C7668.36,753.082 7663.02,751.412 7654.67,751.412 C7634.79,751.412 7621.77,762.434 7621.77,779.134 C7621.77,788.987 7627.11,797.337 7635.8,801.512 C7624.61,804.017 7619.93,809.027 7619.93,818.212 C7619.93,825.56 7623.27,829.902 7631.12,832.574 C7620.77,836.415 7615.76,841.592 7615.76,848.439 C7615.76,853.449 7619.1,858.125 7624.44,860.964 C7630.95,864.304 7638.97,865.64 7650.99,865.64 C7678.88,865.64 7692.74,856.789 7692.74,839.254 C7692.74,830.904 7688.9,824.224 7682.89,821.719 C7678.38,820.049 7673.04,819.381 7661.68,819.381 L7644.65,819.381 M7654.5,758.593 C7664.85,758.593 7670.7,765.774 7670.7,778.8 C7670.7,791.826 7664.35,799.675 7653.83,799.675 C7643.48,799.675 7636.96,791.826 7636.96,779.301 C7636.96,766.108 7643.31,758.593 7654.5,758.593 M7653,833.743 C7666.86,833.743 7667.86,833.743 7670.2,834.077 C7677.04,834.745 7681.05,838.419 7681.05,843.763 C7681.05,853.282 7670.2,858.793 7651.66,858.793 C7637.47,858.793 7629.62,854.618 7629.62,847.103 C7629.62,841.592 7632.62,837.918 7640.64,833.743 L7653,833.743 "/>
<path class="SystemText" d="M2150.94,1673.96 L2120.38,1596.48 C2119.55,1594.31 2119.05,1592.13 2119.05,1591.3 C2119.05,1588.29 2121.89,1587.12 2129.4,1587.12 L2136.08,1587.12 L2136.08,1579.28 L2083.98,1579.28 L2083.98,1587.12 L2087.32,1587.12 C2095,1587.29 2097.5,1589.13 2100.18,1596.48 L2142.43,1702.35 L2149.11,1702.35 L2187.52,1603.49 C2192.53,1590.46 2196.03,1587.46 2205.72,1587.12 L2207.39,1587.12 L2207.39,1579.28 L2162.13,1579.28 L2162.13,1587.12 L2165.31,1587.12 C2173.82,1587.12 2178.83,1590.46 2178.83,1595.81 C2178.83,1598.15 2178,1601.82 2176.83,1605.16 L2150.94,1673.96 M2231.26,1580.44 C2225.91,1580.44 2221.57,1584.79 2221.57,1590.13 C2221.57,1595.47 2225.91,1599.82 2231.09,1599.82 C2236.6,1599.82 2240.94,1595.47 2240.94,1590.13 C2240.94,1584.79 2236.6,1580.44 2231.26,1580.44 M2239.11,1622.03 L2207.71,1623.86 L2207.71,1631.05 L2216.23,1631.05 C2222.57,1631.21 2223.41,1632.21 2223.41,1639.4 L2223.41,1687.16 C2223.24,1689.66 2223.07,1690.66 2222.41,1691.5 C2221.24,1693 2218.06,1693.67 2210.88,1693.84 L2209.71,1693.84 L2209.71,1699.85 L2252.97,1699.85 L2252.97,1693.84 L2251.8,1693.84 C2240.61,1693.5 2239.11,1692.67 2239.11,1686.66 L2239.11,1622.03 M2299.38,1619.52 C2278.84,1619.52 2262.98,1637.73 2262.98,1661.11 C2262.98,1683.98 2279.01,1702.35 2299.05,1702.35 C2319.09,1702.35 2335.12,1683.98 2335.12,1660.94 C2335.12,1638.06 2319.09,1619.52 2299.38,1619.52 M2299.38,1626.7 C2311.07,1626.7 2317.58,1638.89 2317.58,1660.94 C2317.58,1683.15 2311.07,1695.17 2299.05,1695.17 C2287.02,1695.17 2280.51,1683.15 2280.51,1661.11 C2280.51,1638.39 2286.86,1626.7 2299.38,1626.7"/>
<path class="NoteDot" d="M6534.62,1118.4 C6534.62,1127.67 6541.9,1134.95 6551.17,1134.95 C6560.44,1134.95 6567.72,1127.67 6567.72,1118.4 C6567.72,1109.13 6560.44,1101.85 6551.17,1101.85 C6541.9,1101.85 6534.62,1109.13 6534.62,1118.4"/>
<path class="NoteDot" d="M1607.04,1903.83 C1607.04,1913.1 1614.32,1920.38 1623.59,1920.38 C1632.86,1920.38 1640.14,1913.1 1640.14,1903.83 C1640.14,1894.56 1632.86,1887.28 1623.59,1887.28 C1614.32,1887.28 1607.04,1894.56 1607.04,1903.83"/>
</svg>
