<?xml version="1.0" encoding="UTF-8" standalone="no"?>
<svg
   width="681"
   height="188.0891"
   version="1.2"
   id="svg251"
   xmlns="http://www.w3.org/2000/svg"
   xmlns:svg="http://www.w3.org/2000/svg"
   xmlns:rdf="http://www.w3.org/1999/02/22-rdf-syntax-ns#"
   xmlns:cc="http://creativecommons.org/ns#"
   xmlns:dc="http://purl.org/dc/elements/1.1/">
  <defs
     id="defs251" />
  <title
     id="title1">air_XXVII</title>
  <desc
     id="desc1">Generated by MuseScore Studio 4.7.3</desc>
  <path
     id="path251"
     class="NoteDot"
     d="m 347.91707,97.636038 c 0,0.742108 0.5836,1.324906 1.32491,1.324906 0.7421,0 1.3249,-0.582798 1.3249,-1.324906 0,-0.742107 -0.5828,-1.324906 -1.3249,-1.324906 -0.74131,0 -1.32491,0.582799 -1.32491,1.324906 m 301.4229,76.115242 c 0,0.74131 0.5828,1.32491 1.3249,1.32491 0.74211,0 1.32491,-0.5836 1.32491,-1.32491 0,-0.74211 -0.5828,-1.3249 -1.32491,-1.3249 -0.7421,0 -1.3249,0.58279 -1.3249,1.3249 m -217.46309,-6.61892 c 0,0.7421 0.5828,1.3249 1.3249,1.3249 0.74211,0 1.32491,-0.5828 1.32491,-1.3249 0,-0.74211 -0.5828,-1.32491 -1.32491,-1.32491 -0.7421,0 -1.3249,0.5828 -1.3249,1.32491 m 70.208,-145.611405 c 0,0.741947 0.5828,1.324906 1.32491,1.324906 0.74211,0 1.32491,-0.582959 1.32491,-1.324906 0,-0.741947 -0.5828,-1.324906 -1.32491,-1.324906 -0.74211,0 -1.32491,0.582959 -1.32491,1.324906 M 214.41379,173.75128 c 0,0.74131 0.5828,1.32491 1.3249,1.32491 0.74211,0 1.32491,-0.5836 1.32491,-1.32491 0,-0.74211 -0.5828,-1.3249 -1.32491,-1.3249 -0.7421,0 -1.3249,0.58279 -1.3249,1.3249 M 441.15362,74.470599 h 14.02159 v 3.309463 h -14.02159 v -3.309463 m 0,-4.964194 h 47.42043 v 3.309463 H 441.15362 V 69.506405 M 324.60593,180.36941 h 38.83616 v 3.30946 h -38.83616 v -3.30946 m -57.26075,-4.9634 h 38.83535 v 3.30867 h -38.83535 v -3.30867 m 240.60691,-95.972818 40.74066,1.654732 v 3.311864 l -40.74066,-1.654731 v -3.311865 m -160.53296,-67.841826 38.323,-1.6546518 v 3.3124248 l -38.323,1.654651 V 11.591366 M 221.58829,24.830258 H 259.9113 V 28.13972 H 221.58829 V 24.830258 M 155.632,9.9367142 193.955,11.591366 V 14.90379 L 155.632,13.249139 V 9.9367142 M 624.98251,4.9639541 638.19795,6.4348798 V 9.7646766 L 624.98251,8.2937508 V 4.9639541 m 0,-4.9639541 44.6001,4.9639541 V 8.2937508 L 624.98251,3.3297167 V 0 M 244.30303,79.434793 h 40.74065 v 3.309463 H 244.30303 V 79.434793 M 99.140571,4.9726801 137.46277,6.6273314 V 9.9397563 L 99.140571,8.2851049 V 4.9726801 m 85.044549,69.4963179 40.74066,1.654731 v 3.311865 L 184.18512,77.780862 V 74.468998 M 403.91056,9.9382352 h 38.323 v 3.3093828 h -38.323 V 9.9382352 m 146.10069,138.9912748 38.83616,1.65473 v 3.31187 l -38.83616,-1.65474 v -3.31186 m -500.129957,31.4399 h 38.836151 v 3.30946 H 49.881293 v -3.30946 m 7.943031,-95.982431 14.020787,1.654732 V 89.37439 L 57.824324,87.719658 v -3.332679 m 0,-4.964194 14.020787,1.654732 v 3.332678 L 57.824324,82.755464 v -3.332679 m 57.260746,67.853595 h 38.83616 v 3.30946 h -38.83616 v -3.30946 m 377.66543,-3.31106 38.83616,1.65473 v 3.31266 l -38.83616,-1.65473 v -3.31266 M 554.27177,36.411776 567.4872,35.921841 v 3.311064 l -13.21543,0.490736 v -3.311865 m 0,4.964195 44.60009,-1.654732 v 3.311865 l -44.60009,1.654731 V 41.375971 M 113.73455,88.947698 c -0.0264,0 -0.0793,-0.02642 -0.10567,-0.02642 -0.15931,0 -0.2914,0.07925 -0.34424,0.211344 -0.10647,0.159309 -0.92783,1.722778 -2.11985,2.596976 -0.34503,0.264981 -0.76852,0.450708 -1.19281,0.529962 0.2914,-0.344235 0.47712,-0.768525 0.47712,-1.27207 0,-1.032706 -0.84778,-1.881286 -1.88128,-1.881286 -1.05993,0 -1.90771,0.84858 -1.90771,1.881286 0,1.431379 1.40416,2.093432 2.64981,2.093432 1.40416,0 2.3312,-0.662053 3.23261,-1.642723 l -3.02126,9.433651 0.71569,0.21215 3.70973,-11.686397 c 0.0264,-0.02642 0.0264,-0.07925 0.0264,-0.13209 0,-0.132891 -0.0793,-0.238563 -0.23856,-0.317817 M 277.21193,19.45122 c -0.0264,0 -0.0793,-0.0265 -0.10568,-0.0265 -0.1593,0 -0.29139,0.07949 -0.34423,0.211985 -0.10647,0.158988 -0.92784,1.722377 -2.11985,2.596815 -0.34504,0.264981 -0.76853,0.450468 -1.19282,0.529962 0.2914,-0.344475 0.47713,-0.768445 0.47713,-1.271909 0,-1.033427 -0.84778,-1.881367 -1.88129,-1.881367 -1.05992,0 -1.9077,0.84794 -1.9077,1.881367 0,1.430898 1.40416,2.093031 2.64981,2.093031 1.40416,0 2.332,-0.662133 3.23261,-1.642563 l -3.02046,9.43349 0.71489,0.212145 3.70973,-11.68599 c 0.0264,-0.0265 0.0264,-0.0795 0.0264,-0.132491 0,-0.13249 -0.0793,-0.238483 -0.23856,-0.317977 m -143.43806,69.49648 c -0.0264,0 -0.0793,-0.02642 -0.10567,-0.02642 -0.15931,0 -0.2914,0.07925 -0.34424,0.211344 -0.10647,0.159309 -0.92783,1.722778 -2.11985,2.596976 -0.34503,0.264981 -0.76852,0.450708 -1.19281,0.529962 0.2914,-0.344235 0.47713,-0.768525 0.47713,-1.27207 0,-1.032706 -0.84778,-1.881286 -1.88129,-1.881286 -1.05993,0 -1.90771,0.84858 -1.90771,1.881286 0,1.431379 1.40416,2.093432 2.64982,2.093432 1.40416,0 2.33119,-0.662053 3.23261,-1.642723 l -3.02127,9.433651 0.71569,0.21215 3.70974,-11.686397 c 0.0264,-0.02642 0.0264,-0.07925 0.0264,-0.13209 0,-0.132891 -0.0793,-0.238563 -0.23856,-0.317817 m 513.03079,0 c -0.0264,0 -0.0793,-0.02642 -0.10568,-0.02642 -0.15931,0 -0.2914,0.07925 -0.34423,0.211344 -0.10648,0.159309 -0.92784,1.722778 -2.11985,2.596976 -0.34504,0.264981 -0.76853,0.450708 -1.19282,0.529962 0.2914,-0.344235 0.47713,-0.768525 0.47713,-1.27207 0,-1.032706 -0.84778,-1.881286 -1.88129,-1.881286 -1.05992,0 -1.9077,0.84858 -1.9077,1.881286 0,1.431379 1.40416,2.093432 2.64981,2.093432 1.40416,0 2.33199,-0.662053 3.23261,-1.642723 l -3.02047,9.433653 0.71489,0.21215 3.70974,-11.686399 c 0.0264,-0.02642 0.0264,-0.07925 0.0264,-0.13209 0,-0.132891 -0.0793,-0.238563 -0.23856,-0.317817 m -20.03931,0 c -0.0264,0 -0.0793,-0.02642 -0.10567,-0.02642 -0.15931,0 -0.2914,0.07925 -0.34423,0.211344 -0.10648,0.159309 -0.92784,1.722778 -2.11985,2.596976 -0.34504,0.264981 -0.76853,0.450708 -1.19282,0.529962 0.2914,-0.344235 0.47713,-0.768525 0.47713,-1.27207 0,-1.032706 -0.84778,-1.881286 -1.88129,-1.881286 -1.05992,0 -1.9077,0.84858 -1.9077,1.881286 0,1.431379 1.40416,2.093432 2.64981,2.093432 1.40416,0 2.33119,-0.662053 3.23261,-1.642723 l -3.02127,9.433645 0.71569,0.21215 3.70974,-11.686391 c 0.0264,-0.02642 0.0264,-0.07925 0.0264,-0.13209 0,-0.132891 -0.0793,-0.238563 -0.23857,-0.317817 M 296.0432,19.45122 c -0.0272,0 -0.0801,-0.0265 -0.10647,-0.0265 -0.15851,0 -0.2914,0.07949 -0.34424,0.211985 -0.10647,0.158988 -0.92783,1.722377 -2.11984,2.596815 -0.34424,0.264981 -0.76853,0.450468 -1.19282,0.529962 0.2914,-0.344475 0.47713,-0.768445 0.47713,-1.271909 0,-1.033427 -0.84778,-1.881367 -1.88129,-1.881367 -1.05993,0 -1.9077,0.84794 -1.9077,1.881367 0,1.430898 1.40416,2.093031 2.64981,2.093031 1.40416,0 2.33199,-0.662133 3.23261,-1.642563 l -3.02047,9.43349 0.71489,0.212145 3.70974,-11.68599 c 0.0264,-0.0265 0.0264,-0.0795 0.0264,-0.132491 0,-0.13249 -0.0793,-0.238483 -0.23777,-0.317977 M 46.657489,30.177914 c -1.801231,-0.582798 -3.788991,-1.456996 -3.788991,-2.649812 0,-1.033506 0.954253,-1.456996 2.093432,-1.456996 1.642723,0 2.755484,0.767725 2.755484,1.986959 0,1.272069 -0.582799,1.881286 -1.059925,2.119849 m -1.695559,6.280294 c -1.69556,0 -3.153356,-0.927834 -3.153356,-2.411248 0,-1.775615 1.377742,-2.199905 1.377742,-2.199905 1.802032,0.610017 4.372589,1.510633 4.372589,2.96843 0,0.714889 -0.927834,1.642723 -2.596975,1.642723 m 3.179774,-5.564605 c 0.874198,-0.662853 1.484215,-1.510632 1.484215,-2.570557 0,-1.907705 -2.093432,-3.471174 -4.663989,-3.471174 -2.570558,0 -4.663989,1.563469 -4.663989,3.471174 0,1.059925 0.264981,2.014177 1.510633,2.809121 -1.192015,0.68847 -1.854869,1.669141 -1.854869,2.941211 0,2.146267 2.252741,3.868244 5.008225,3.868244 2.755484,0 5.008224,-1.721977 5.008224,-3.868244 0,-1.27207 -0.450708,-2.464886 -1.82845,-3.179775 m -2.942012,-7.184912 c -0.874197,0 -1.589887,-1.192095 -1.589887,-2.67599 0,-1.483895 0.71569,-2.702808 1.589887,-2.702808 0.874198,0 1.616306,1.218913 1.616306,2.702808 0,1.483895 -0.742108,2.67599 -1.616306,2.67599 m 0.980671,-6.62421 c -1.616305,0 -2.199904,0.476967 -2.570558,0.874438 -0.07925,-0.55646 -0.13209,-0.98043 -0.13209,-1.4044 0,-1.510393 0.529962,-3.471253 2.384831,-3.471253 0.662052,0 1.059924,0.211985 1.324905,0.503464 -0.55718,0.238483 -1.007088,0.953932 -1.007088,1.563389 0,0.953932 0.742107,1.695879 1.695559,1.695879 0.954253,0 1.722778,-0.741947 1.722778,-1.695879 v -0.07949 c 0,-0.238484 -0.05364,-0.635955 -0.159309,-0.84794 -0.344235,-0.953933 -1.456996,-2.358333 -4.106808,-2.358333 -2.38483,0 -4.107608,2.278838 -4.637571,3.497752 -0.264981,0.635955 -0.662052,1.934362 -0.662052,3.418257 0,1.616385 0.449907,3.444755 2.013376,4.822658 1.537051,1.165596 2.517722,1.219233 3.444756,1.219233 0.927834,0 4.399007,-1.086343 4.399007,-4.160525 0,-2.596815 -2.040595,-3.577246 -3.709736,-3.577246 m -17.239788,62.043703 2.358413,-0.477127 v 4.37259 l -2.358413,0.503545 v -4.399008 m 4.107609,-0.821362 c 0.159309,-0.02642 0.291399,-0.212145 0.291399,-0.370653 V 76.3727 c 0,-0.212145 -0.159309,-0.371454 -0.370653,-0.371454 h -0.05364 l -0.874198,0.185727 v -3.9483 h -0.742107 v 4.107609 l -2.358413,0.477126 v -3.736955 h -0.741307 v 3.895463 l -1.033506,0.212145 c -0.159309,0.02642 -0.2914,0.212145 -0.2914,0.370654 v 1.537051 c 0,0.212145 0.158509,0.371454 0.370654,0.371454 h 0.07925 l 0.874998,-0.185727 v 4.371789 l -1.033506,0.212145 c -0.159309,0.02642 -0.2914,0.212145 -0.2914,0.371454 v 1.53625 c 0,0.212145 0.158509,0.371454 0.370654,0.371454 h 0.07925 l 0.874998,-0.185727 v 3.9483 h 0.741307 v -4.107609 l 2.358413,-0.476325 v 3.736154 h 0.742107 v -3.895463 l 1.007089,-0.185727 c 0.159309,-0.02642 0.291399,-0.211345 0.291399,-0.370654 v -1.563469 c 0,-0.212145 -0.159309,-0.370653 -0.370653,-0.370653 h -0.05364 l -0.874198,0.184926 v -4.371789 l 1.007089,-0.185727 m -4.107609,70.317678 2.358413,-0.47712 v 4.37259 l -2.358413,0.50354 v -4.39901 m 4.107609,-0.82136 c 0.159309,-0.0264 0.291399,-0.21215 0.291399,-0.37065 v -1.56347 c 0,-0.21215 -0.159309,-0.37146 -0.370653,-0.37146 h -0.05364 l -0.874198,0.18573 v -3.9483 h -0.742107 v 4.10761 l -2.358413,0.47713 v -3.73696 h -0.741307 v 3.89546 l -1.033506,0.21215 c -0.159309,0.0264 -0.2914,0.21214 -0.2914,0.37065 v 1.53705 c 0,0.21215 0.158509,0.37146 0.370654,0.37146 h 0.07925 l 0.874998,-0.18573 v 4.37179 l -1.033506,0.21214 c -0.159309,0.0264 -0.2914,0.21215 -0.2914,0.37146 v 1.53625 c 0,0.21214 0.158509,0.37145 0.370654,0.37145 h 0.07925 l 0.874998,-0.18572 v 3.9483 h 0.741307 v -4.10761 l 2.358413,-0.47633 v 3.73616 h 0.742107 v -3.89547 l 1.007089,-0.18572 c 0.159309,-0.0264 0.291399,-0.21135 0.291399,-0.37066 v -1.56347 c 0,-0.21214 -0.159309,-0.37065 -0.370653,-0.37065 h -0.05364 l -0.874198,0.18493 v -4.37179 l 1.007089,-0.18573 M 28.940575,9.6320259 31.298988,9.1550597 v 4.3721893 l -2.358413,0.503464 V 9.6320259 m 4.107609,-0.8214417 c 0.159309,-0.026498 0.291399,-0.2119849 0.291399,-0.3709736 v -1.563389 c 0,-0.2119849 -0.159309,-0.3709737 -0.370653,-0.3709737 H 32.91529 L 32.041095,6.6907348 V 2.7425152 H 31.298988 V 6.8497235 L 28.940575,7.3266896 V 3.590455 h -0.741307 v 3.8952233 l -1.033506,0.211985 c -0.159309,0.026498 -0.2914,0.2119849 -0.2914,0.3709736 v 1.5368909 c 0,0.2119849 0.158509,0.3709736 0.370654,0.3709736 h 0.07925 l 0.874998,-0.1854868 v 4.3721894 l -1.033506,0.211985 c -0.159309,0.0265 -0.2914,0.211985 -0.2914,0.370974 v 1.53689 c 0,0.211985 0.158509,0.370974 0.370654,0.370974 h 0.07925 L 28.19926,16.46854 v 3.94822 h 0.741307 v -4.107208 l 2.358413,-0.476967 v 3.736235 h 0.742107 v -3.895223 l 1.007089,-0.185487 c 0.159309,-0.0265 0.291399,-0.211985 0.291399,-0.370974 v -1.563389 c 0,-0.211985 -0.159309,-0.370973 -0.370653,-0.370973 h -0.05364 l -0.874198,0.185487 v -4.37219 l 1.0071,-0.1854868 M 16.093311,106.40363 c -0.529962,0.10648 -1.033427,0.15931 -1.536891,0.15931 -3.789231,0 -7.0220012,-2.64981 -7.0220012,-6.650945 0,-3.232611 2.2788382,-6.120986 4.6106722,-8.135163 0.450468,-0.397071 0.874438,-0.768525 1.27191,-1.165597 0.238483,1.430578 0.42397,2.67623 0.609457,3.762573 -2.411329,0.715689 -4.0542123,3.259028 -4.0542123,5.750332 0,1.85487 1.4573963,4.39821 3.5772463,4.39821 0.211985,0 0.450468,-0.10568 0.450468,-0.34424 0,-0.23856 -0.264982,-0.37065 -0.582959,-0.5828 -1.033427,-0.63643 -1.616385,-1.3249 -1.616385,-2.62339 0,-1.616306 1.192415,-2.914794 2.755804,-3.286248 l 1.536891,8.717958 M 13.761477,79.164208 c 0.238483,-1.059924 1.457396,-3.842627 2.835298,-3.842627 0.397472,0 1.033427,1.298488 1.033427,3.126938 0,2.755484 -2.040355,4.822497 -3.868725,6.624529 -0.158989,-1.059924 -0.29148,-2.093431 -0.29148,-3.206192 0,-0.98067 0.0795,-1.881286 0.29148,-2.702648 m 6.094567,22.337672 c 0,1.88129 -0.768446,3.81541 -2.649812,4.58394 -0.556461,-3.17978 -1.27191,-7.393059 -1.457397,-8.558656 2.384831,0 4.107209,1.616305 4.107209,3.974716 M 8.1968718,114.5388 c 0,1.74919 1.351404,4.05397 4.9286502,4.05397 1.245411,0 2.331834,-0.31782 3.285766,-0.90062 1.430899,-1.00709 1.801872,-2.75548 1.801872,-4.42542 0,-1.03351 -0.158988,-2.22553 -0.423969,-3.73616 -0.07949,-0.52996 -0.238484,-1.3249 -0.397472,-2.35841 2.596815,-0.84778 4.531178,-3.55043 4.531178,-6.27949 0,-4.001941 -2.835299,-6.704589 -6.704024,-6.704589 -0.264981,-1.589887 -0.529962,-3.153356 -0.768445,-4.636771 2.8088,-2.941211 4.743163,-6.253876 4.743163,-10.467156 0,-2.411249 -0.741948,-4.37179 -1.165917,-5.326042 -0.635955,-1.351324 -1.404401,-2.278358 -1.881367,-2.278358 -0.185487,0 -1.006928,0.317817 -1.881366,1.351324 -1.69588,2.013377 -2.172846,5.405296 -2.172846,7.630818 0,1.431378 0.132491,2.729866 0.582959,5.697495 -0.0265,0.02642 -1.404401,1.430578 -1.960861,1.881287 -2.4113287,2.25274 -5.7500916,5.458932 -5.7500916,10.758556 0,4.954586 4.3191932,8.850046 9.2478436,8.850046 0.768445,0 1.483894,-0.0793 2.093351,-0.18572 0.503464,2.54414 0.794943,4.39901 0.794943,5.80317 0,2.75628 -1.4044,4.21328 -4.08071,4.21328 -0.635955,0 -1.192415,-0.13209 -1.245411,-0.13209 -0.0265,-0.0264 -0.07949,-0.0536 -0.07949,-0.0801 0,-0.0528 0.053,-0.0793 0.132491,-0.10567 1.245412,-0.18573 2.490823,-1.24565 2.490823,-2.94121 0,-1.43138 -1.086423,-2.94121 -3.073782,-2.94121 -1.8548679,0 -3.0472832,1.50983 -3.0472832,3.25903 m 7.8964392,61.36115 c -0.529962,0.10647 -1.033427,0.15931 -1.536891,0.15931 -3.789231,0 -7.0220012,-2.64981 -7.0220012,-6.65095 0,-3.23261 2.2788382,-6.12098 4.6106722,-8.13516 0.450468,-0.39707 0.874438,-0.76853 1.27191,-1.1656 0.238483,1.43058 0.42397,2.67623 0.609457,3.76258 -2.411329,0.71569 -4.0542123,3.25902 -4.0542123,5.75033 0,1.85487 1.4573963,4.3982 3.5772463,4.3982 0.211985,0 0.450468,-0.10567 0.450468,-0.34423 0,-0.23856 -0.264982,-0.37065 -0.582959,-0.5828 -1.033427,-0.63643 -1.616385,-1.3249 -1.616385,-2.62339 0,-1.61631 1.192415,-2.9148 2.755804,-3.28545 l 1.536891,8.71716 m -2.331834,-27.23942 c 0.238483,-1.05993 1.457396,-3.84263 2.835298,-3.84263 0.397472,0 1.033427,1.29849 1.033427,3.12694 0,2.75548 -2.040355,4.82249 -3.868725,6.62453 -0.158989,-1.05993 -0.29148,-2.09343 -0.29148,-3.2062 0,-0.98067 0.0795,-1.88128 0.29148,-2.70264 m 6.094567,22.33767 c 0,1.88129 -0.768446,3.81541 -2.649812,4.58393 -0.556461,-3.17977 -1.27191,-7.39305 -1.457397,-8.55865 2.384831,0 4.107209,1.61631 4.107209,3.97472 M 8.1968718,184.03511 c 0,1.7492 1.351404,4.05398 4.9286502,4.05398 1.245411,0 2.331834,-0.31782 3.285766,-0.90062 1.430899,-1.00709 1.801872,-2.75548 1.801872,-4.42543 0,-1.0335 -0.158988,-2.22552 -0.423969,-3.73615 -0.07949,-0.52996 -0.238484,-1.32491 -0.397472,-2.35841 2.596815,-0.84778 4.531178,-3.55043 4.531178,-6.2795 0,-4.00113 -2.835299,-6.70458 -6.704024,-6.70458 -0.264981,-1.58989 -0.529962,-3.15336 -0.768445,-4.63677 2.8088,-2.94121 4.743163,-6.25388 4.743163,-10.46716 0,-2.41125 -0.741948,-4.37179 -1.165917,-5.32604 -0.635955,-1.35132 -1.404401,-2.27836 -1.881367,-2.27836 -0.185487,0 -1.006928,0.31782 -1.881366,1.35133 -1.69588,2.01337 -2.172846,5.40529 -2.172846,7.63161 0,1.43058 0.132491,2.72907 0.582959,5.6967 -0.0265,0.0264 -1.404401,1.43058 -1.960861,1.88129 -2.4113287,2.25274 -5.7500916,5.45893 -5.7500916,10.75855 0,4.95459 4.3191932,8.85005 9.2478436,8.85005 0.768445,0 1.483894,-0.0793 2.093351,-0.18572 0.503464,2.54414 0.794943,4.399 0.794943,5.80316 0,2.75629 -1.4044,4.21328 -4.08071,4.21328 -0.635955,0 -1.192415,-0.13209 -1.245411,-0.13209 -0.0265,-0.0264 -0.07949,-0.0528 -0.07949,-0.08 0,-0.0528 0.053,-0.0793 0.132491,-0.10567 1.245412,-0.18573 2.490823,-1.24565 2.490823,-2.94121 0,-1.43058 -1.086423,-2.94121 -3.073782,-2.94121 -1.8548679,0 -3.0472832,1.51063 -3.0472832,3.25902 M 16.093311,36.907315 c -0.529962,0.106473 -1.033427,0.159309 -1.536891,0.159309 -3.789231,0 -7.0220012,-2.649812 -7.0220012,-6.650947 0,-3.232611 2.2788382,-6.120986 4.6106722,-8.135003 0.450468,-0.397471 0.874438,-0.768445 1.27191,-1.165917 0.238483,1.430899 0.42397,2.67639 0.609457,3.762733 -2.411329,0.715689 -4.0542123,3.259028 -4.0542123,5.750332 0,1.854868 1.4573963,4.398207 3.5772463,4.398207 0.211985,0 0.450468,-0.105672 0.450468,-0.344235 0,-0.238564 -0.264982,-0.370654 -0.582959,-0.582799 -1.033427,-0.636435 -1.616385,-1.324906 -1.616385,-2.623394 0,-1.616305 1.192415,-2.914793 2.755804,-3.286247 l 1.536891,8.717961 M 13.761477,9.6675702 c 0.238483,-1.0599247 1.457396,-3.8422271 2.835298,-3.8422271 0.397472,0 1.033427,1.2984077 1.033427,3.1267779 0,2.755804 -2.040355,4.822657 -3.868725,6.624529 -0.158989,-1.059924 -0.29148,-2.093351 -0.29148,-3.206272 0,-0.98043 0.0795,-1.881366 0.29148,-2.7028078 m 6.094567,22.3379938 c 0,1.881286 -0.768446,3.815408 -2.649812,4.583934 -0.556461,-3.179774 -1.27191,-7.393055 -1.457397,-8.558652 2.384831,0 4.107209,1.616305 4.107209,3.974718 M 8.1968718,45.042478 c 0,1.749196 1.351404,4.053972 4.9286502,4.053972 1.245411,0 2.331834,-0.317818 3.285766,-0.900616 1.430899,-1.007089 1.801872,-2.755484 1.801872,-4.425426 0,-1.033507 -0.158988,-2.225522 -0.423969,-3.736155 -0.07949,-0.529962 -0.238484,-1.324906 -0.397472,-2.358412 2.596815,-0.84778 4.531178,-3.550428 4.531178,-6.279494 0,-4.001936 -2.835299,-6.704584 -6.704024,-6.704584 -0.264981,-1.589647 -0.529962,-3.153036 -0.768445,-4.636931 2.8088,-2.941291 4.743163,-6.253555 4.743163,-10.4667562 0,-2.4113287 -0.741948,-4.3721895 -1.165917,-5.3261217 -0.635955,-1.351404 -1.404401,-2.2788381 -1.881367,-2.2788381 -0.185487,0 -1.006928,0.3179774 -1.881366,1.351404 -1.69588,2.0138569 -2.172846,5.405616 -2.172846,7.631458 0,1.430898 0.132491,2.729306 0.582959,5.697095 -0.0265,0.0265 -1.404401,1.430899 -1.960861,1.881367 -2.4113287,2.25234 -5.7500916,5.458852 -5.7500916,10.758476 0,4.954587 4.3191932,8.850051 9.2478436,8.850051 0.768445,0 1.483894,-0.07925 2.093351,-0.185727 0.503464,2.54414 0.794943,4.399008 0.794943,5.803168 0,2.756285 -1.4044,4.213281 -4.08071,4.213281 -0.635955,0 -1.192415,-0.132091 -1.245411,-0.132091 -0.0265,-0.02642 -0.07949,-0.05364 -0.07949,-0.08005 0,-0.05284 0.053,-0.07925 0.132491,-0.105673 1.245412,-0.185727 2.490823,-1.245651 2.490823,-2.941211 0,-1.431378 -1.086423,-2.941211 -3.073782,-2.941211 -1.8548679,0 -3.0472832,1.509833 -3.0472832,3.259029 M 166.52024,35.871407 c 0,1.139179 0.82136,2.411249 2.96763,2.411249 2.75548,0 5.64386,-2.252741 5.64386,-4.583935 0,-1.563469 -1.32491,-2.438467 -2.96763,-2.438467 -2.57056,0 -5.64386,2.173486 -5.64386,4.611153 M 362.78003,161.62619 c 0,1.13998 0.82137,2.41205 2.96763,2.41205 2.75549,0 5.64386,-2.25274 5.64386,-4.58473 0,-1.56347 -1.3249,-2.43767 -2.96763,-2.43767 -2.57055,0 -5.64386,2.17268 -5.64386,4.61035 M 554.27177,22.633876 c 0,1.139659 0.82136,2.410928 2.96763,2.410928 2.75628,0 5.64465,-2.251939 5.64465,-4.583774 0,-1.563389 -1.3249,-2.437827 -2.96843,-2.437827 -2.56975,0 -5.64385,2.172846 -5.64385,4.610673 M 343.69258,164.93565 c 0,1.13998 0.82136,2.41125 2.96843,2.41125 2.75549,0 5.64386,-2.25194 5.64386,-4.58393 0,-1.56347 -1.3249,-2.43767 -2.96763,-2.43767 -2.57056,0 -5.64466,2.17269 -5.64466,4.61035 M 566.82515,19.324493 c 0,1.139419 0.82216,2.411329 2.96843,2.411329 2.75548,0 5.64386,-2.25234 5.64386,-4.584175 0,-1.563389 -1.32491,-2.437826 -2.96763,-2.437826 -2.57056,0 -5.64466,2.172845 -5.64466,4.610672 M 251.30701,49.108458 c 0,1.139979 0.82137,2.411248 2.96763,2.411248 2.75549,0 5.64386,-2.251939 5.64386,-4.583934 0,-1.563469 -1.3249,-2.437667 -2.96763,-2.437667 -2.57055,0 -5.64386,2.172686 -5.64386,4.610353 m 73.29892,112.517732 c 0,1.13998 0.82136,2.41205 2.96763,2.41205 2.75549,0 5.64386,-2.25274 5.64386,-4.58473 0,-1.56347 -1.32491,-2.43767 -2.96763,-2.43767 -2.57056,0 -5.64386,2.17268 -5.64386,4.61035 m 254.7734,-145.611 c 0,1.139419 0.82136,2.411329 2.96763,2.411329 2.75549,0 5.64386,-2.25234 5.64386,-4.584174 0,-1.563389 -1.3249,-2.437827 -2.96763,-2.437827 -2.57056,0 -5.64386,2.172845 -5.64386,4.610672 M 305.51848,155.00807 c 0,1.13918 0.82216,2.41125 2.96843,2.41125 2.75549,0 5.64386,-2.25275 5.64386,-4.58394 0,-1.56347 -1.32491,-2.43847 -2.96763,-2.43847 -2.57056,0 -5.64466,2.17349 -5.64466,4.61116 M 598.20981,19.324493 c 0,1.139419 0.82136,2.411329 2.96763,2.411329 2.75628,0 5.64386,-2.25234 5.64386,-4.584175 0,-1.563389 -1.32491,-2.437826 -2.96763,-2.437826 -2.56976,0 -5.64386,2.172845 -5.64386,4.610672 M 286.43183,158.31753 c 0,1.13918 0.82136,2.41125 2.96763,2.41125 2.75628,0 5.64386,-2.25274 5.64386,-4.58474 0,-1.56347 -1.32491,-2.43766 -2.96763,-2.43766 -2.56976,0 -5.64386,2.17268 -5.64386,4.61115 M 617.04028,22.633876 c 0,1.139659 0.82137,2.410928 2.96763,2.410928 2.75629,0 5.64466,-2.251939 5.64466,-4.583774 0,-1.563389 -1.3249,-2.437827 -2.96843,-2.437827 -2.56975,0 -5.64386,2.172846 -5.64386,4.610673 M 391.33156,168.24512 c 0,1.13918 0.82136,2.41125 2.96763,2.41125 2.75628,0 5.64465,-2.25194 5.64465,-4.58394 0,-1.56347 -1.3249,-2.43767 -2.96843,-2.43767 -2.56975,0 -5.64385,2.17269 -5.64385,4.61036 M 267.34518,155.00807 c 0,1.13918 0.82136,2.41125 2.96763,2.41125 2.75548,0 5.64386,-2.25275 5.64386,-4.58394 0,-1.56347 -1.32491,-2.43847 -2.96763,-2.43847 -2.57056,0 -5.64386,2.17349 -5.64386,4.61116 M 525.97642,25.943018 c 0,1.13998 0.82136,2.411249 2.96763,2.411249 2.75628,0 5.64466,-2.25194 5.64466,-4.583934 0,-1.563309 -1.32491,-2.437747 -2.96843,-2.437747 -2.56976,0 -5.64386,2.172766 -5.64386,4.610432 M 419.96233,168.24512 c 0,1.13918 0.82136,2.41125 2.96763,2.41125 2.75549,0 5.64386,-2.25194 5.64386,-4.58394 0,-1.56347 -1.32491,-2.43767 -2.96763,-2.43767 -2.57056,0 -5.64386,2.17269 -5.64386,4.61036 M 629.59367,25.943018 c 0,1.13998 0.82216,2.411249 2.96843,2.411249 2.75548,0 5.64386,-2.25194 5.64386,-4.583934 0,-1.563309 -1.32491,-2.437747 -2.96763,-2.437747 -2.57056,0 -5.64466,2.172766 -5.64466,4.610432 m 12.55418,3.309463 c 0,1.139179 0.82136,2.411249 2.96763,2.411249 2.75548,0 5.64386,-2.25194 5.64386,-4.583934 0,-1.563469 -1.32491,-2.437667 -2.96763,-2.437667 -2.57056,0 -5.64386,2.172686 -5.64386,4.610352 M 238.79286,158.31753 c 0,1.13918 0.82136,2.41125 2.96763,2.41125 2.75628,0 5.64466,-2.25274 5.64466,-4.58474 0,-1.56347 -1.32491,-2.43766 -2.96763,-2.43766 -2.57056,0 -5.64466,2.17268 -5.64466,4.61115 M 660.97833,32.561944 c 0,1.139179 0.82136,2.411249 2.96763,2.411249 2.75548,0 5.64385,-2.25194 5.64385,-4.583934 0,-1.563469 -1.3249,-2.437667 -2.96762,-2.437667 -2.57056,0 -5.64386,2.172685 -5.64386,4.610352 M 232.47654,52.417921 c 0,1.139179 0.82136,2.411248 2.96763,2.411248 2.75548,0 5.64386,-2.251939 5.64386,-4.583934 0,-1.563469 -1.32491,-2.437667 -2.96763,-2.437667 -2.57056,0 -5.64386,2.172686 -5.64386,4.610353 m 257.6938,-26.474903 c 0,1.13998 0.82136,2.411249 2.96763,2.411249 2.75548,0 5.64385,-2.25194 5.64385,-4.583934 0,-1.563309 -1.3249,-2.437747 -2.96762,-2.437747 -2.57056,0 -5.64386,2.172766 -5.64386,4.610432 M 202.49924,174.86404 c 0,1.13918 0.82136,2.41125 2.96763,2.41125 2.75549,0 5.64386,-2.25274 5.64386,-4.58393 0,-1.56347 -1.32491,-2.43847 -2.96763,-2.43847 -2.57056,0 -5.64386,2.17349 -5.64386,4.61115 m 253.75671,-13.23785 c 0,1.13998 0.82216,2.41205 2.96843,2.41205 2.75548,0 5.64386,-2.25274 5.64386,-4.58473 0,-1.56347 -1.32491,-2.43767 -2.96763,-2.43767 -2.57056,0 -5.64466,2.17268 -5.64466,4.61035 m -282.38748,13.23785 c 0,1.13918 0.82136,2.41125 2.96763,2.41125 2.75548,0 5.64385,-2.25274 5.64385,-4.58393 0,-1.56347 -1.3249,-2.43847 -2.96762,-2.43847 -2.57056,0 -5.64386,2.17349 -5.64386,4.61115 M 63.199199,25.943018 c 0,1.13998 0.822163,2.411249 2.96843,2.411249 2.755484,0 5.643859,-2.25194 5.643859,-4.583934 0,-1.563309 -1.324906,-2.437747 -2.967629,-2.437747 -2.570558,0 -5.64466,2.172766 -5.64466,4.610432 m 46.828821,3.309463 c 0,1.139179 0.82136,2.411249 2.96843,2.411249 2.75548,0 5.64385,-2.25194 5.64385,-4.583934 0,-1.563469 -1.3249,-2.437667 -2.96763,-2.437667 -2.57055,0 -5.64465,2.172686 -5.64465,4.610352 M 49.881293,105.36772 c 0,1.13918 0.821362,2.41125 2.96763,2.41125 2.756284,0 5.644659,-2.25274 5.644659,-4.58393 0,-1.56347 -1.324906,-2.43847 -2.967629,-2.43847 -2.570558,0 -5.64466,2.17349 -5.64466,4.61115 m 95.435647,62.8774 c 0,1.13918 0.82137,2.41125 2.96763,2.41125 2.75549,0 5.64386,-2.25194 5.64386,-4.58394 0,-1.56347 -1.3249,-2.43767 -2.96763,-2.43767 -2.57055,0 -5.64386,2.17269 -5.64386,4.61036 M 461.92462,25.943018 c 0,1.13998 0.82137,2.411249 2.96763,2.411249 2.75549,0 5.64386,-2.25194 5.64386,-4.583934 0,-1.563309 -1.3249,-2.437747 -2.96763,-2.437747 -2.57055,0 -5.64386,2.172766 -5.64386,4.610432 M 126.22949,171.55458 c 0,1.13918 0.82136,2.41125 2.96763,2.41125 2.75629,0 5.64466,-2.25194 5.64466,-4.58394 0,-1.56346 -1.3249,-2.43766 -2.96843,-2.43766 -2.56975,0 -5.64386,2.17268 -5.64386,4.61035 M 63.240828,108.67719 c 0,1.13918 0.821362,2.41125 2.96843,2.41125 2.755484,0 5.643859,-2.25274 5.643859,-4.58394 0,-1.56347 -1.324906,-2.43847 -2.96763,-2.43847 -2.570557,0 -5.644659,2.17349 -5.644659,4.61116 m 421.567442,56.25846 c 0,1.13998 0.82136,2.41125 2.96763,2.41125 2.75548,0 5.64386,-2.25194 5.64386,-4.58393 0,-1.56347 -1.32491,-2.43767 -2.96763,-2.43767 -2.57056,0 -5.64386,2.17269 -5.64386,4.61035 m -377.66543,3.30947 c 0,1.13918 0.82136,2.41125 2.96763,2.41125 2.75549,0 5.64386,-2.25194 5.64386,-4.58394 0,-1.56347 -1.32491,-2.43767 -2.96763,-2.43767 -2.57056,0 -5.64386,2.17269 -5.64386,4.61036 M 76.600363,111.98665 c 0,1.13918 0.822162,2.41125 2.968429,2.41125 2.755481,0 5.643856,-2.25274 5.643856,-4.58474 0,-1.56346 -1.324906,-2.43766 -2.967629,-2.43766 -2.570555,0 -5.644656,2.17268 -5.644656,4.61115 m 11.455029,49.63954 c 0,1.13998 0.821361,2.41205 2.967629,2.41205 2.756284,0 5.644659,-2.25274 5.644659,-4.58473 0,-1.56347 -1.324906,-2.43767 -2.967629,-2.43767 -2.570557,0 -5.644659,2.17268 -5.644659,4.61035 m 415.839528,6.61893 c 0,1.13918 0.82136,2.41125 2.96763,2.41125 2.75628,0 5.64466,-2.25194 5.64466,-4.58394 0,-1.56347 -1.32491,-2.43767 -2.96843,-2.43767 -2.56976,0 -5.64386,2.17269 -5.64386,4.61036 M 68.968744,164.93565 c 0,1.13998 0.821362,2.41125 2.96763,2.41125 2.755484,0 5.643858,-2.25194 5.643858,-4.58393 0,-1.56347 -1.324905,-2.43767 -2.967629,-2.43767 -2.570557,0 -5.643859,2.17269 -5.643859,4.61035 M 433.62928,39.18087 c 0,1.139179 0.82136,2.411249 2.96763,2.411249 2.75548,0 5.64385,-2.252741 5.64385,-4.584735 0,-1.562669 -1.3249,-2.437667 -2.96762,-2.437667 -2.57056,0 -5.64386,2.172686 -5.64386,4.611153 m 89.35309,132.37371 c 0,1.13918 0.82136,2.41125 2.96763,2.41125 2.75549,0 5.64386,-2.25194 5.64386,-4.58394 0,-1.56346 -1.32491,-2.43766 -2.96763,-2.43766 -2.57056,0 -5.64386,2.17268 -5.64386,4.61035 M 49.881293,161.62619 c 0,1.13998 0.821362,2.41205 2.96763,2.41205 2.756284,0 5.644659,-2.25274 5.644659,-4.58473 0,-1.56347 -1.324906,-2.43767 -2.967629,-2.43767 -2.570558,0 -5.64466,2.17268 -5.64466,4.61035 M 146.73872,88.821211 c 0,1.139179 0.82136,2.411249 2.96763,2.411249 2.75548,0 5.64385,-2.25274 5.64385,-4.584735 0,-1.563469 -1.3249,-2.437667 -2.96762,-2.437667 -2.57056,0 -5.64386,2.172686 -5.64386,4.611153 M 414.7988,32.561944 c 0,1.139179 0.82136,2.411249 2.96763,2.411249 2.75548,0 5.64386,-2.25194 5.64386,-4.583934 0,-1.563469 -1.32491,-2.437667 -2.96763,-2.437667 -2.57056,0 -5.64386,2.172685 -5.64386,4.610352 M 542.06902,171.55458 c 0,1.13918 0.82136,2.41125 2.96763,2.41125 2.75629,0 5.64466,-2.25194 5.64466,-4.58394 0,-1.56346 -1.3249,-2.43766 -2.96843,-2.43766 -2.56976,0 -5.64386,2.17268 -5.64386,4.61035 M 128.85849,32.561944 c 0,1.139179 0.82216,2.411249 2.96843,2.411249 2.75548,0 5.64386,-2.25194 5.64386,-4.583934 0,-1.563469 -1.32491,-2.437667 -2.96763,-2.437667 -2.57056,0 -5.64466,2.172685 -5.64466,4.610352 m 47.3844,62.877392 c 0,1.13998 0.82136,2.411249 2.96763,2.411249 2.75548,0 5.64386,-2.25194 5.64386,-4.583934 0,-1.563469 -1.32491,-2.437667 -2.96763,-2.437667 -2.57056,0 -5.64386,2.172686 -5.64386,4.610352 m 384.91358,79.424704 c 0,1.13918 0.82136,2.41125 2.96763,2.41125 2.75549,0 5.64386,-2.25274 5.64386,-4.58393 0,-1.56347 -1.3249,-2.43847 -2.96763,-2.43847 -2.57056,0 -5.64386,2.17349 -5.64386,4.61115 M 147.68977,32.561944 c 0,1.139179 0.82136,2.411249 2.96763,2.411249 2.75548,0 5.64385,-2.25194 5.64385,-4.583934 0,-1.563469 -1.3249,-2.437667 -2.96762,-2.437667 -2.57056,0 -5.64386,2.172685 -5.64386,4.610352 M 659.7695,95.439336 c 0,1.13998 0.82136,2.411249 2.96763,2.411249 2.75548,0 5.64386,-2.25194 5.64386,-4.583934 0,-1.563469 -1.32491,-2.437667 -2.96763,-2.437667 -2.57056,0 -5.64386,2.172686 -5.64386,4.610352 m -463.48731,3.309463 c 0,1.139179 0.82136,2.411251 2.96763,2.411251 2.75548,0 5.64386,-2.251942 5.64386,-4.583936 0,-1.563469 -1.32491,-2.437667 -2.96763,-2.437667 -2.57056,0 -5.64386,2.172685 -5.64386,4.610352 m 20.0393,3.309461 c 0,1.13918 0.82136,2.41125 2.96763,2.41125 2.75549,0 5.64386,-2.25194 5.64386,-4.583933 0,-1.56347 -1.3249,-2.437667 -2.96763,-2.437667 -2.57056,0 -5.64386,2.172685 -5.64386,4.61035 M 395.96833,35.871407 c 0,1.139179 0.82136,2.411249 2.96763,2.411249 2.75548,0 5.64385,-2.252741 5.64385,-4.583935 0,-1.563469 -1.3249,-2.438467 -2.96762,-2.438467 -2.57056,0 -5.64386,2.173486 -5.64386,4.611153 M 580.24312,178.17351 c 0,1.13917 0.82137,2.41124 2.96763,2.41124 2.75629,0 5.64466,-2.25274 5.64466,-4.58393 0,-1.56347 -1.3249,-2.43847 -2.96843,-2.43847 -2.56975,0 -5.64386,2.17349 -5.64386,4.61116 m 9.38882,-72.80579 c 0,1.13918 0.82136,2.41125 2.96763,2.41125 2.75549,0 5.64386,-2.25274 5.64386,-4.58393 0,-1.56347 -1.3249,-2.43847 -2.96763,-2.43847 -2.57056,0 -5.64386,2.17349 -5.64386,4.61115 m -353.27114,6.61893 c 0,1.13918 0.82136,2.41125 2.96762,2.41125 2.75629,0 5.64386,-2.25274 5.64386,-4.58474 0,-1.56346 -1.3249,-2.43766 -2.96763,-2.43766 -2.56975,0 -5.64385,2.17268 -5.64385,4.61115 M 569.59184,98.748799 c 0,1.139179 0.82216,2.411251 2.96843,2.411251 2.75548,0 5.64386,-2.251942 5.64386,-4.583936 0,-1.563469 -1.32491,-2.437667 -2.96763,-2.437667 -2.57056,0 -5.64466,2.172685 -5.64466,4.610352 M 377.13785,32.561944 c 0,1.139179 0.82136,2.411249 2.96763,2.411249 2.75548,0 5.64386,-2.25194 5.64386,-4.583934 0,-1.563469 -1.32491,-2.437667 -2.96763,-2.437667 -2.57056,0 -5.64386,2.172685 -5.64386,4.610352 M 256.4001,102.05826 c 0,1.13918 0.82136,2.41125 2.96763,2.41125 2.75628,0 5.64466,-2.25194 5.64466,-4.583933 0,-1.56347 -1.32491,-2.437667 -2.96843,-2.437667 -2.56976,0 -5.64386,2.172685 -5.64386,4.61035 M 358.30658,35.871407 c 0,1.139179 0.82216,2.411249 2.96842,2.411249 2.75549,0 5.64386,-2.252741 5.64386,-4.583935 0,-1.563469 -1.3249,-2.438467 -2.96763,-2.438467 -2.57055,0 -5.64465,2.173486 -5.64465,4.611153 M 276.4394,105.36772 c 0,1.13918 0.82136,2.41125 2.96763,2.41125 2.75628,0 5.64466,-2.25274 5.64466,-4.58393 0,-1.56347 -1.32491,-2.43847 -2.96843,-2.43847 -2.56976,0 -5.64386,2.17349 -5.64386,4.61115 m 263.64827,3.30947 c 0,1.13918 0.82216,2.41125 2.96843,2.41125 2.75548,0 5.64386,-2.25274 5.64386,-4.58394 0,-1.56347 -1.32491,-2.43847 -2.96763,-2.43847 -2.57056,0 -5.64466,2.17349 -5.64466,4.61116 m 68.70698,69.49632 c 0,1.13917 0.82136,2.41124 2.96843,2.41124 2.75548,0 5.64385,-2.25274 5.64385,-4.58393 0,-1.56347 -1.3249,-2.43847 -2.96762,-2.43847 -2.57056,0 -5.64466,2.17349 -5.64466,4.61116 m -88.74628,-72.80579 c 0,1.13918 0.82136,2.41125 2.96843,2.41125 2.75548,0 5.64385,-2.25274 5.64385,-4.58393 0,-1.56347 -1.3249,-2.43847 -2.96762,-2.43847 -2.57056,0 -5.64466,2.17349 -5.64466,4.61115 M 213.64606,49.108458 c 0,1.139979 0.82137,2.411248 2.96763,2.411248 2.75549,0 5.64386,-2.251939 5.64386,-4.583934 0,-1.563469 -1.3249,-2.437667 -2.96763,-2.437667 -2.57055,0 -5.64386,2.172686 -5.64386,4.610353 M 637.42542,178.17351 c 0,1.13917 0.82136,2.41124 2.96763,2.41124 2.75629,0 5.64466,-2.25274 5.64466,-4.58393 0,-1.56347 -1.32491,-2.43847 -2.96843,-2.43847 -2.56976,0 -5.64386,2.17349 -5.64386,4.61116 M 500.00906,102.05826 c 0,1.13918 0.82137,2.41125 2.96763,2.41125 2.75629,0 5.64466,-2.25194 5.64466,-4.583933 0,-1.56347 -1.3249,-2.437667 -2.96763,-2.437667 -2.57055,0 -5.64466,2.172685 -5.64466,4.61035 m -194.06549,0 c 0,1.13918 0.82136,2.41125 2.96763,2.41125 2.75629,0 5.64466,-2.25194 5.64466,-4.583933 0,-1.56347 -1.32491,-2.437667 -2.96843,-2.437667 -2.56976,0 -5.64386,2.172685 -5.64386,4.61035 m 174.02619,9.92839 c 0,1.13918 0.82136,2.41125 2.96763,2.41125 2.75629,0 5.64466,-2.25274 5.64466,-4.58474 0,-1.56346 -1.32491,-2.43766 -2.96843,-2.43766 -2.56976,0 -5.64386,2.17268 -5.64386,4.61115 m -143.96724,-9.92839 c 0,1.13918 0.82137,2.41125 2.96763,2.41125 2.75629,0 5.64466,-2.25194 5.64466,-4.583933 0,-1.56347 -1.3249,-2.437667 -2.96763,-2.437667 -2.57055,0 -5.64466,2.172685 -5.64466,4.61035 m 3.47358,-62.87739 c 0,1.139179 0.82216,2.411249 2.96843,2.411249 2.75548,0 5.64386,-2.252741 5.64386,-4.584735 0,-1.562669 -1.32491,-2.437667 -2.96763,-2.437667 -2.57056,0 -5.64466,2.172686 -5.64466,4.611153 m -154.12538,0 c 0,1.139179 0.82136,2.411249 2.96763,2.411249 2.75548,0 5.64386,-2.252741 5.64386,-4.584735 0,-1.562669 -1.32491,-2.437667 -2.96763,-2.437667 -2.57056,0 -5.64386,2.172686 -5.64386,4.611153 m 261.22021,52.949004 c 0,1.139979 0.82136,2.412049 2.96762,2.412049 2.75629,0 5.64466,-2.252741 5.64466,-4.584735 0,-1.563469 -1.3249,-2.437667 -2.96843,-2.437667 -2.56975,0 -5.64385,2.172686 -5.64385,4.610353 m -42.86371,3.309462 c 0,1.13998 0.82136,2.411249 2.96763,2.411249 2.75628,0 5.64466,-2.25194 5.64466,-4.583934 0,-1.563469 -1.32491,-2.437667 -2.96843,-2.437667 -2.56976,0 -5.64386,2.172686 -5.64386,4.610352 M 307.79844,49.108458 c 0,1.139979 0.82136,2.411248 2.96763,2.411248 2.75628,0 5.64386,-2.251939 5.64386,-4.583934 0,-1.563469 -1.32491,-2.437667 -2.96763,-2.437667 -2.56976,0 -5.64386,2.172686 -5.64386,4.610353 m 125.41295,46.330878 c 0,1.13998 0.82136,2.411249 2.96763,2.411249 2.75628,0 5.64386,-2.25194 5.64386,-4.583934 0,-1.563469 -1.32491,-2.437667 -2.96763,-2.437667 -2.56976,0 -5.64386,2.172686 -5.64386,4.610352 M 91.19754,25.943018 c 0,1.13998 0.821362,2.411249 2.967629,2.411249 2.756285,0 5.64466,-2.25194 5.64466,-4.583934 0,-1.563309 -1.324906,-2.437747 -2.967629,-2.437747 -2.570558,0 -5.64466,2.172766 -5.64466,4.610432 m 368.73292,62.878193 c 0,1.139179 0.82136,2.411249 2.96763,2.411249 2.75628,0 5.64466,-2.25274 5.64466,-4.584735 0,-1.563469 -1.32491,-2.437667 -2.96843,-2.437667 -2.56976,0 -5.64386,2.172686 -5.64386,4.611153 m -3.67451,93.176509 c 0,0.18573 0.15931,0.34504 0.34503,0.34504 0.13209,0 0.2914,-0.10648 0.31782,-0.21215 0,-0.0264 0.23856,-0.95425 0.26498,-1.03351 0.0264,-0.10647 0.26498,-1.11276 1.21924,-2.67623 1.0327,-1.72277 2.62259,-2.96762 3.94749,-4.82249 1.29849,-1.85487 2.09344,-3.60407 2.09344,-5.93606 0,-2.41125 -0.55638,-4.42543 -1.96054,-6.99518 -0.0793,-0.18573 -0.23857,-0.2914 -0.39788,-0.2914 -0.0528,0 -0.10567,0 -0.13209,0.0264 -0.13289,0.0528 -0.18572,0.15851 -0.18572,0.31782 0,0.0793 0.0264,0.21215 0.0801,0.31782 1.05993,2.46408 1.48342,3.86904 1.48342,5.77675 0,2.1991 -0.76853,3.33908 -1.24566,4.16044 -1.72197,2.94121 -4.50468,4.37179 -5.61744,4.74325 -0.18492,0.0793 -0.21214,0.21134 -0.21214,0.2914 v 5.98809 M 525.97642,46.314547 c 0,0.185727 0.15931,0.344236 0.34423,0.344236 0.1329,0 0.2922,-0.105672 0.31862,-0.211345 0,-0.02722 0.23857,-0.954252 0.26498,-1.033506 0.0264,-0.106473 0.26498,-1.113562 1.21844,-2.67623 1.0335,-1.722778 2.62339,-2.96843 3.9483,-4.823298 1.29848,-1.854868 2.09343,-3.603264 2.09343,-5.935258 0,-2.411249 -0.55638,-4.425426 -1.96054,-6.995183 -0.0801,-0.185727 -0.23857,-0.2922 -0.39788,-0.2922 -0.0528,0 -0.10567,0 -0.13209,0.02722 -0.13289,0.05284 -0.18572,0.158508 -0.18572,0.317817 0,0.07925 0.0264,0.212145 0.0793,0.317817 1.05993,2.464085 1.48422,3.869046 1.48422,5.77675 0,2.199104 -0.76853,3.338283 -1.24566,4.159644 -1.72197,2.942012 -4.50468,4.37259 -5.61744,4.743243 -0.18572,0.08006 -0.21214,0.212145 -0.21214,0.2914 v 5.988894 m -462.777221,0 c 0,0.185727 0.159309,0.344236 0.345036,0.344236 0.132091,0 0.2914,-0.105672 0.317818,-0.211345 0,-0.02722 0.238563,-0.954252 0.264981,-1.033506 0.02642,-0.106473 0.264981,-1.113562 1.219234,-2.67623 1.032706,-1.722778 2.622593,-2.96843 3.947499,-4.823298 1.298487,-1.854868 2.093431,-3.603264 2.093431,-5.935258 0,-2.411249 -0.55638,-4.425426 -1.960541,-6.995183 -0.07925,-0.185727 -0.238563,-0.2922 -0.397872,-0.2922 -0.05284,0 -0.105672,0 -0.13209,0.02722 -0.132891,0.05284 -0.185727,0.158508 -0.185727,0.317817 0,0.07925 0.02642,0.212145 0.08006,0.317817 1.059925,2.464085 1.483414,3.869046 1.483414,5.77675 0,2.199104 -0.768525,3.338283 -1.245652,4.159644 -1.721977,2.942012 -4.50468,4.37259 -5.61744,4.743243 -0.184927,0.08006 -0.212146,0.212145 -0.212146,0.2914 v 5.988894 M 403.70722,115.81087 c 0,0.18572 0.15931,0.34423 0.34423,0.34423 0.13289,0 0.2914,-0.10567 0.31862,-0.21134 0,-0.0272 0.23776,-0.95426 0.26498,-1.03351 0.0264,-0.10647 0.26498,-1.11356 1.21844,-2.67623 1.0335,-1.72278 2.62339,-2.96843 3.94829,-4.8233 1.29849,-1.85487 2.09344,-3.60326 2.09344,-5.93526 0,-2.411245 -0.55638,-4.425422 -1.96054,-6.995179 -0.0801,-0.185727 -0.23857,-0.2922 -0.39788,-0.2922 -0.0528,0 -0.10567,0 -0.13209,0.02722 -0.13289,0.05284 -0.18572,0.158509 -0.18572,0.317818 0,0.07925 0.0264,0.212145 0.0793,0.317817 1.05993,2.464085 1.48422,3.869046 1.48422,5.776744 0,2.19911 -0.76853,3.33829 -1.24566,4.15965 -1.72197,2.94201 -4.50468,4.37259 -5.61744,4.74324 -0.18572,0.0801 -0.21214,0.21215 -0.21214,0.2914 v 5.9889 m -164.91436,64.53212 c 0,0.18573 0.15931,0.34503 0.34503,0.34503 0.13209,0 0.2914,-0.10647 0.31782,-0.21214 0,-0.0264 0.23856,-0.95425 0.26498,-1.03351 0.0264,-0.10647 0.26498,-1.11276 1.21844,-2.67623 1.0335,-1.72277 2.62339,-2.96763 3.9483,-4.82249 1.29848,-1.85487 2.09343,-3.60407 2.09343,-5.93606 0,-2.41125 -0.55638,-4.42543 -1.96054,-6.99519 -0.0801,-0.18572 -0.23857,-0.29139 -0.39788,-0.29139 -0.0528,0 -0.10567,0 -0.13209,0.0264 -0.13289,0.0528 -0.18572,0.15851 -0.18572,0.31782 0,0.0793 0.0264,0.21215 0.0793,0.31782 1.05993,2.46408 1.48422,3.86904 1.48422,5.77675 0,2.1991 -0.76853,3.33908 -1.24566,4.16044 -1.72197,2.94121 -4.50468,4.37179 -5.61744,4.74325 -0.18572,0.0793 -0.21214,0.21134 -0.21214,0.29139 v 5.9881 m -92.05414,-69.49632 c 0,0.18573 0.1585,0.34504 0.34423,0.34504 0.13289,0 0.2914,-0.10648 0.31782,-0.21215 0,-0.0264 0.23856,-0.95425 0.26498,-1.0335 0.0264,-0.10648 0.26498,-1.11277 1.21923,-2.67623 1.03351,-1.72278 2.6234,-2.96763 3.9483,-4.8225 1.29849,-1.85487 2.09343,-3.604064 2.09343,-5.936059 0,-2.411248 -0.55638,-4.425426 -1.96134,-6.995183 -0.0793,-0.185727 -0.23856,-0.291399 -0.39707,-0.291399 -0.0528,0 -0.10647,0 -0.13289,0.02642 -0.13209,0.05284 -0.18493,0.158509 -0.18493,0.317818 0,0.07925 0.0264,0.212145 0.0793,0.317817 1.05992,2.464085 1.48341,3.869045 1.48341,5.77675 0,2.199103 -0.76772,3.339083 -1.24485,4.160444 -1.72278,2.941212 -4.50468,4.371782 -5.61744,4.743242 -0.18573,0.0793 -0.21214,0.21134 -0.21214,0.2914 v 5.98809 m 513.03078,4.9642 c 0,0.18572 0.15851,0.34423 0.34424,0.34423 0.13289,0 0.29139,-0.10567 0.31781,-0.21134 0,-0.0272 0.23857,-0.95426 0.26498,-1.03351 0.0264,-0.10647 0.26498,-1.11356 1.21924,-2.67623 1.0335,-1.72278 2.62339,-2.96843 3.9483,-4.8233 1.29848,-1.85487 2.09343,-3.60326 2.09343,-5.93526 0,-2.411241 -0.55638,-4.425418 -1.96134,-6.995175 -0.0793,-0.185727 -0.23857,-0.2922 -0.39707,-0.2922 -0.0528,0 -0.10648,0 -0.1329,0.02722 -0.13209,0.05284 -0.18492,0.158509 -0.18492,0.317818 0,0.07925 0.0264,0.212145 0.0793,0.317817 1.05993,2.464085 1.48422,3.869046 1.48422,5.77675 0,2.19911 -0.76853,3.33829 -1.24565,4.15965 -1.72278,2.94201 -4.50468,4.37259 -5.61745,4.74324 -0.18572,0.0801 -0.21214,0.21215 -0.21214,0.2914 v 5.9889 M 577.53487,82.140643 c 0,0.07926 0.0264,0.211345 0.21135,0.2914 1.13998,0.370653 3.41833,1.801231 5.14111,4.743243 0.47713,0.821361 1.24565,1.96054 1.24565,4.159644 0,1.907704 -0.50354,3.869045 -1.19281,5.77675 -0.0528,0.159309 -0.10567,0.291399 -0.0793,0.397872 0,0.158508 0.10568,0.264981 0.26498,0.264981 0.18493,0 0.31782,-0.106473 0.42349,-0.2922 1.19282,-2.119849 1.64353,-4.583934 1.64353,-6.995183 -0.13289,-3.418337 -2.09343,-5.935258 -2.09343,-5.935258 0.0793,0 -2.43847,-3.259829 -3.15336,-4.37259 -0.98067,-1.510632 -1.43138,-3.020465 -1.48421,-3.126938 -0.0264,-0.07925 -0.26499,-1.033506 -0.26499,-1.033506 -0.0264,-0.105673 -0.1585,-0.211345 -0.31781,-0.211345 -0.18573,0 -0.34424,0.158509 -0.34424,0.344236 v 5.988894 M 315.74067,30.845571 c 0,0.07925 0.0264,0.212145 0.21215,0.291399 1.13917,0.370653 3.41833,1.802032 5.14031,4.743243 0.47713,0.821362 1.24565,1.960541 1.24565,4.159644 0,1.908505 -0.50354,3.869046 -1.19201,5.77675 -0.0536,0.159309 -0.10648,0.291399 -0.0801,0.397872 0,0.158508 0.10648,0.264981 0.26498,0.264981 0.18573,0 0.31782,-0.106473 0.42429,-0.291399 1.19202,-2.119849 1.64273,-4.584735 1.64273,-6.995984 -0.13209,-3.418337 -2.09343,-5.935258 -2.09343,-5.935258 0.0793,0 -2.43767,-3.259028 -3.15336,-4.372589 -0.97987,-1.509833 -1.43058,-3.020466 -1.48341,-3.126138 -0.0264,-0.08006 -0.26499,-1.033507 -0.26499,-1.033507 -0.0264,-0.106472 -0.1593,-0.212145 -0.31861,-0.212145 -0.18493,0 -0.34424,0.158509 -0.34424,0.344236 v 5.988895 m 88.16956,-19.252708 v 22.106675 h 0.66202 V 11.592863 Z m 104.04145,69.509398 v 18.7841 h 0.66202 v -18.7841 z m 20.03933,0.814157 v 21.279392 h 0.66202 V 81.916418 Z M 315.74104,24.883046 v 22.053511 h 0.66201 V 24.883046 Z m 232.2893,57.847673 v 23.774541 h 0.66201 V 82.730719 Z M 174.4621,12.420304 v 21.279234 h 0.66201 V 12.420304 Z m 109.92,68.669293 v 22.106213 h 0.66201 V 81.089597 Z m 203.53025,-9.928501 v 38.653614 h 0.66202 V 71.161096 Z m -223.56958,9.928501 v 18.796764 h 0.66202 V 81.089597 Z m 313.19165,-4.911478 v 20.398787 h 0.66217 V 76.178119 Z m 20.03932,4.911478 v 22.106213 h 0.66201 V 81.089597 Z m -353.2703,0 v 28.725113 h 0.66202 V 81.089597 Z m 69.58274,-3.309607 v 22.106371 h 0.66201 V 77.77999 Z m -89.62206,-0.0136 v 22.119972 h 0.66202 V 77.766389 Z m 435.50496,17.672083 v 20.372367 h 0.66202 V 95.438472 Z M 204.22401,76.95224 v 19.624666 h 0.66202 V 76.95224 Z M 347.41879,13.233359 v 23.775634 h 0.66202 V 13.233359 Z M 155.63156,11.607248 v 18.782843 h 0.66202 V 11.607248 Z m 28.55312,64.53162 v 17.128591 h 0.66202 V 76.138868 Z m 56.23376,-49.653951 v 23.761095 h 0.66202 V 26.484917 Z M 645.36798,153.89532 v 22.10636 h 0.66217 v -22.10636 z m -595.486214,7.73013 v 20.39863 h 0.662012 V 161.62545 Z M 146.7383,88.81957 v 22.02709 h 0.66201 V 88.81957 Z m 74.84961,-62.334653 v 20.45164 h 0.66202 V 26.484917 Z M 68.968408,164.93489 v 17.08919 h 0.662013 v -17.08919 z m 19.087424,-3.30944 v 20.39863 h 0.662013 v -20.39863 z m 27.028788,-12.69431 v 17.14204 h 0.66218 V 148.93114 Z M 84.542958,87.707722 v 22.106988 h 0.662013 V 87.707722 Z m 49.629092,61.223418 v 20.45148 h 0.66217 V 148.93114 Z M 71.183515,82.705077 v 23.800183 h 0.662012 V 82.705077 Z m 82.075335,66.226063 v 17.14204 h 0.66202 V 148.93114 Z M 136.80119,8.2691836 V 30.390091 h 0.66202 V 8.2691836 Z M 57.823908,81.127911 v 22.067899 h 0.662021 V 81.127911 Z M 181.81102,150.58587 v 22.10636 h 0.66218 v -22.10636 z m 28.63005,0 v 22.10636 h 0.66202 V 150.58587 Z M 366.24917,12.420304 v 21.279234 h 0.66202 V 12.420304 Z m 101.62386,58.740792 v 15.488246 h 0.66217 V 71.161096 Z m 148.86429,82.734224 v 22.10636 h 0.66201 V 153.89532 Z M 259.24882,26.484917 v 20.45164 h 0.66201 V 26.484917 Z M 238.79327,158.316 v 22.02693 h 0.66202 V 158.316 Z M 668.92096,6.5921001 V 30.390091 h 0.66202 V 6.5921001 Z M 385.0797,11.607248 v 18.782843 h 0.66202 V 11.607248 Z M 650.08965,4.4961358 V 27.080636 h 0.66201 V 4.4961358 Z M 117.97066,7.4562846 V 27.080636 h 0.66201 V 7.4562846 Z M 637.53623,3.0989301 V 23.771189 h 0.66216 V 3.0989301 Z M 267.34482,155.00733 v 22.05336 h 0.66202 v -22.05336 z m 19.08665,3.30867 v 18.74469 h 0.66201 V 158.316 Z M 624.98295,1.7017252 V 20.462052 h 0.66202 V 1.7017252 Z M 305.5189,155.00733 v 22.05336 h 0.66201 V 155.00733 Z M 598.20934,19.323461 v 22.066183 h 0.66216 V 19.323461 Z M 324.60554,161.62545 v 20.39863 h 0.66201 V 161.62545 Z M 579.37896,16.014167 v 26.07345 h 0.66201 V 16.014167 Z M 343.69297,164.93489 v 17.08919 h 0.66201 V 164.93489 Z M 566.82553,19.323461 V 42.55356 h 0.66202 V 19.323461 Z M 362.77961,161.62545 v 20.39863 h 0.66201 V 161.62545 Z M 99.140131,6.6432287 V 23.771189 h 0.662165 V 6.6432287 Z M 554.27133,22.632911 V 43.01951 h 0.66216 V 22.632911 Z M 403.70681,95.438472 v 20.372368 h 0.66202 V 95.438472 Z m -4.43256,50.183218 v 20.45149 h 0.66201 v -20.45149 z m 28.62989,0 v 20.45149 h 0.66201 V 145.62169 Z M 525.97682,25.942202 v 20.372369 h 0.66201 V 25.942202 Z m -71.46324,45.218894 v 18.796909 h 0.66201 V 71.161096 Z M 193.29248,13.233359 v 23.775634 h 0.66216 V 13.233359 Z M 456.25633,161.62545 v 20.37221 h 0.66202 V 161.62545 Z M 490.16999,25.942202 v 18.744072 h 0.66202 V 25.942202 Z m -426.970374,0 v 20.372369 h 0.66202 V 25.942202 Z m 398.724654,0 v 18.744072 h 0.66202 V 25.942202 Z M 492.75004,145.6353 v 17.12843 h 0.66217 V 145.6353 Z m 19.08758,0.81336 v 19.62452 h 0.66202 v -19.62452 z m 19.08665,0.81337 v 22.12059 h 0.66201 V 147.26203 Z M 441.57114,11.592863 v 25.41613 h 0.66201 V 11.592863 Z M 550.01169,150.59947 v 18.78315 h 0.66202 V 150.59947 Z M 422.74061,11.592863 v 18.797228 h 0.66201 V 11.592863 Z M 569.09834,151.41284 v 21.27939 h 0.66201 v -21.27939 z m 19.08742,0.81336 v 23.77548 h 0.66202 V 152.2262 Z M 343.94517,77.77999 v 22.106371 h 0.66201 V 77.77999 Z m 97.20881,-6.618894 v 22.106363 h 0.66217 V 71.161096 Z M 230.29183,50.77559 v 1.059164 h 12.97372 V 50.77559 Z m 0,-6.618902 v 1.059164 h 12.97372 v -1.059164 z m 75.32276,0 v 1.059164 h 12.97356 v -1.059164 z m -94.15329,0 v 1.059164 h 12.97372 v -1.059164 z m 37.66106,0 v 1.059164 h 12.97356 v -1.059164 z m -16.37764,111.086742 2.35842,-0.47713 v 4.37259 l -2.35842,0.50355 v -4.39901 m 4.10681,-0.82136 c 0.15931,-0.0264 0.2914,-0.21215 0.2914,-0.37146 v -1.56267 c 0,-0.21214 -0.15851,-0.37145 -0.37065,-0.37145 h -0.0528 l -0.875,0.18573 v -3.9483 h -0.7413 v 4.1068 l -2.35842,0.47713 v -3.73615 h -0.7421 v 3.89546 l -1.03351,0.21214 c -0.15931,0.0264 -0.2914,0.21135 -0.2914,0.37066 v 1.53705 c 0,0.21214 0.15931,0.37065 0.37065,0.37065 h 0.0801 l 0.8742,-0.18492 v 4.37179 l -1.03351,0.21214 c -0.15931,0.0264 -0.2914,0.21215 -0.2914,0.37065 v 1.53705 c 0,0.21215 0.15931,0.37066 0.37065,0.37066 h 0.0801 l 0.8742,-0.18493 v 3.9483 h 0.7421 v -4.10761 l 2.35842,-0.47712 v 3.73615 h 0.7413 v -3.89466 l 1.00709,-0.18573 c 0.15931,-0.0264 0.2914,-0.21214 0.2914,-0.37065 v -1.56347 c 0,-0.21215 -0.15851,-0.37146 -0.37065,-0.37146 h -0.0528 l -0.875,0.18573 v -4.37179 l 1.00709,-0.18572 M 480.8655,14.82476 c -5.41865,0 -10.84681,1.668112 -13.58975,5.069716 a 0.16531304,0.16531304 0 0 0 0.0112,0.104916 0.16531304,0.16531304 0 0 0 -0.009,0.105697 0.16531304,0.16531304 0 0 0 0.0202,0.0017 0.16531304,0.16531304 0 0 0 0.002,0.02017 0.16531304,0.16531304 0 0 0 0.10538,-0.01141 0.16531304,0.16531304 0 0 0 0.10524,0.0088 c 2.63002,-2.227035 7.99313,-3.38028 13.35428,-3.38028 5.36115,0 10.72442,1.153245 13.35444,3.38028 a 0.16532957,0.16532957 0 0 0 0.23548,-0.229845 c -2.74292,-3.401605 -8.17124,-5.069717 -13.5899,-5.069717 z m 0,0.330695 c 4.67337,0 9.33876,1.2752 12.20507,3.780866 -2.96483,-1.696596 -7.58138,-2.522974 -12.20507,-2.522974 -4.62366,0 -9.24008,0.826393 -12.2049,2.522974 2.8663,-2.505666 7.53153,-3.780866 12.2049,-3.780866 z m -13.46113,4.842779 c 5.38448,-6.677446 21.53793,-6.677446 26.92241,0 -5.38448,-4.559438 -21.53793,-4.559438 -26.92241,0 M 178.60915,178.4188 a 0.16531304,0.16531304 0 0 0 -0.016,0.005 0.16531304,0.16531304 0 0 0 -0.0586,0.0182 0.16531304,0.16531304 0 0 0 -0.0463,0.0144 0.16531304,0.16531304 0 0 0 -0.008,0.0148 0.16531304,0.16531304 0 0 0 -0.0147,0.008 0.16531304,0.16531304 0 0 0 -0.0139,0.0466 0.16531304,0.16531304 0 0 0 -0.0173,0.0585 0.16531304,0.16531304 0 0 0 0.0181,0.0586 0.16531304,0.16531304 0 0 0 0.0144,0.0463 c 2.78271,3.3399 8.28596,4.97574 13.78036,4.97574 5.49441,0 10.99765,-1.63584 13.78036,-4.97574 a 0.16532957,0.16532957 0 0 0 -0.23126,-0.23407 c -2.66787,2.1673 -8.11015,3.29053 -13.5491,3.29053 -5.43895,0 -10.88124,-1.12323 -13.54911,-3.29053 a 0.16531304,0.16531304 0 0 0 -0.0464,-0.0138 0.16531304,0.16531304 0 0 0 -0.0427,-0.0225 z m 1.24085,1.19145 c 3.00551,1.65868 7.69744,2.4659 12.39738,2.4659 4.69994,0 9.39203,-0.80722 12.39755,-2.4659 -2.90611,2.46735 -7.64846,3.72394 -12.39755,3.72394 -4.74909,0 -9.49128,-1.25659 -12.39738,-3.72394 z m -1.2559,-1.02686 c 5.46133,4.43663 21.84533,4.43663 27.30667,0 -5.46134,6.55488 -21.84534,6.55488 -27.30667,0 m 132.08786,-72.97062 a 0.16531304,0.16531304 0 0 0 -0.12025,0.0392 0.16531304,0.16531304 0 0 0 -0.002,0.0202 0.16531304,0.16531304 0 0 0 -0.0202,0.002 0.16531304,0.16531304 0 0 0 0.005,0.1942 0.16531304,0.16531304 0 0 0 -10e-4,0.0166 c 2.92671,3.41592 8.71406,5.08863 14.49335,5.08863 5.77929,0 11.56664,-1.67271 14.49335,-5.08863 a 0.16532957,0.16532957 0 0 0 -0.22876,-0.23673 c -2.81057,2.24447 -8.53946,3.40608 -14.26459,3.40608 -5.72513,0 -11.45418,-1.16161 -14.26475,-3.40608 a 0.16531304,0.16531304 0 0 0 -0.0166,0.002 0.16531304,0.16531304 0 0 0 -0.0738,-0.0375 z m 1.29776,1.21396 c 3.15972,1.72026 8.10442,2.55831 13.05736,2.55831 4.95294,0 9.89749,-0.83805 13.05721,-2.55831 -3.05971,2.52846 -8.05524,3.81636 -13.05721,3.81636 -5.00196,0 -9.99765,-1.2879 -13.05736,-3.81636 z m -1.31052,-1.04912 c 5.74713,4.58953 22.98852,4.58953 28.73565,0 -5.74713,6.70778 -22.98852,6.70778 -28.73565,0 m 85.38426,66.02151 a 0.16531304,0.16531304 0 0 0 -0.0194,0.009 0.16531304,0.16531304 0 0 0 -0.056,0.0247 0.16531304,0.16531304 0 0 0 -0.0405,0.0178 0.16531304,0.16531304 0 0 0 -0.008,0.0197 0.16531304,0.16531304 0 0 0 -0.0166,0.013 0.16531304,0.16531304 0 0 0 0.005,0.0175 0.16531304,0.16531304 0 0 0 0.0249,0.18357 c 2.79037,2.6648 8.27973,3.95739 13.76738,3.95739 5.48764,0 10.97715,-1.29259 13.76753,-3.95739 a 0.16532957,0.16532957 0 0 0 -0.1956,-0.26331 c -2.66896,1.51366 -8.12623,2.30142 -13.57193,2.30142 -5.44571,0 -10.90283,-0.78776 -13.57179,-2.30142 a 0.16531304,0.16531304 0 0 0 -0.0436,-0.005 0.16531304,0.16531304 0 0 0 -0.0416,-0.0161 z m 1.17533,0.89421 c 2.99651,1.18494 7.73171,1.75948 12.48166,1.75948 4.74994,0 9.4853,-0.57454 12.48181,-1.75948 -2.89664,1.99247 -7.68705,3.01753 -12.48181,3.01753 -4.79477,0 -9.58502,-1.02506 -12.48166,-3.01753 z m -1.1716,-0.72887 c 5.46133,3.09732 21.84533,3.09732 27.30667,0 -5.46134,5.21557 -21.84534,5.21557 -27.30667,0 m 217.47809,9.7638 a 0.16531304,0.16531304 0 0 0 -0.12086,0.0375 0.16531304,0.16531304 0 0 0 -0.0114,0.0217 0.16531304,0.16531304 0 0 0 -0.0111,10e-4 0.16531304,0.16531304 0 0 0 -0.0139,0.0464 0.16531304,0.16531304 0 0 0 -0.0174,0.0588 0.16531304,0.16531304 0 0 0 0.0185,0.0591 0.16531304,0.16531304 0 0 0 0.0142,0.0457 c 2.78271,3.3399 8.28607,4.97574 13.78067,4.97574 5.49461,0 10.99812,-1.63584 13.78083,-4.97574 a 0.16532957,0.16532957 0 0 0 -0.23125,-0.23407 c -2.66788,2.16731 -8.11043,3.29053 -13.54958,3.29053 -5.43915,0 -10.88155,-1.12322 -13.54942,-3.29053 a 0.16531304,0.16531304 0 0 0 -0.0169,0.002 0.16531304,0.16531304 0 0 0 -0.0724,-0.038 z m 1.24085,1.19143 c 3.00556,1.65869 7.69774,2.46591 12.39785,2.46591 4.70011,0 9.3923,-0.80722 12.39785,-2.46591 -2.90614,2.46736 -7.64859,3.72396 -12.39785,3.72396 -4.74926,0 -9.49171,-1.2566 -12.39785,-3.72396 z m -1.25585,-1.02684 c 5.46133,4.43663 21.84613,4.43663 27.30747,0 -5.46134,6.55488 -21.84614,6.55488 -27.30747,0 M 574.18119,5.9594796 c -6.43575,0.066391 -12.87754,3.5576949 -15.75546,9.5329244 a 0.16531304,0.16531304 0 0 0 -0.003,0.05113 0.16531304,0.16531304 0 0 0 -0.003,0.06129 0.16531304,0.16531304 0 0 0 0.0331,0.05191 0.16531304,0.16531304 0 0 0 0.0275,0.043 0.16531304,0.16531304 0 0 0 0.0136,0.003 0.16531304,0.16531304 0 0 0 0.009,0.01032 0.16531304,0.16531304 0 0 0 0.0145,-0.005 0.16531304,0.16531304 0 0 0 0.19278,-0.04925 c 2.40534,-3.444765 6.7299,-6.00406 11.40749,-7.2371359 4.67758,-1.2330759 9.70212,-1.1382583 13.49328,0.6729601 a 0.16532957,0.16532957 0 0 0 0.16544,-0.2850389 C 580.92178,6.8296882 577.5523,5.924703 574.18119,5.9594788 Z m 0.002,0.3374187 c 2.67203,-0.029461 5.34061,0.5440408 7.74045,1.7857522 -3.58276,-1.1352843 -7.86327,-1.0422703 -11.89001,0.019232 -4.02696,1.0615627 -7.79711,3.0909135 -10.35442,5.8450905 3.13631,-4.8109073 8.82469,-7.5874562 14.50398,-7.6500747 z M 558.57471,15.564162 C 562.91287,6.5571234 575.46706,3.2478207 583.68228,8.9453964 576.00182,5.2760875 563.44764,8.5854703 558.57471,15.564162 M 54.133729,110.0544 a 0.16531304,0.16531304 0 0 0 -0.008,0.0155 0.16531304,0.16531304 0 0 0 -0.01657,-0.005 0.16531304,0.16531304 0 0 0 -0.07536,0.18388 0.16531304,0.16531304 0 0 0 -0.007,0.0138 c 1.01451,3.16704 3.229064,5.18972 5.791776,5.82446 2.562704,0.63473 5.465409,-0.12045 7.840985,-2.44809 a 0.16532957,0.16532957 0 0 0 -0.210928,-0.25329 c -4.204939,2.96164 -10.781028,1.33273 -13.117097,-3.24848 a 0.16531304,0.16531304 0 0 0 -0.101941,-0.0331 0.16531304,0.16531304 0 0 0 -0.09585,-0.0493 z m 0.92079,1.76199 c 2.575457,3.09934 7.24669,4.25623 10.971253,2.71671 -1.978881,1.33813 -4.158571,1.72029 -6.12779,1.23255 -1.96901,-0.48768 -3.717934,-1.84273 -4.843463,-3.94926 z m -0.870283,-1.60455 c 2.385631,4.6784 9.065398,6.33313 13.359534,3.30866 -4.6808,4.58634 -11.360568,2.9316 -13.359534,-3.30866 m 623.175304,40.00971 v 27.20267 h 3.64015 v -27.20267 z m -3.63967,0 v 27.20267 H 674.911 V 150.22155 Z M 423.74645,80.725292 v 27.202658 h 1.19128 V 80.725292 Z m -28.31049,16.910746 c 0,-0.768525 -0.61001,-1.40416 -1.37854,-1.40416 -0.76853,0 -1.37774,0.635635 -1.37774,1.40416 0,0.768526 0.60921,1.40416 1.37774,1.40416 0.76853,0 1.37854,-0.635634 1.37854,-1.40416 m 0,-6.618925 c 0,-0.768526 -0.61001,-1.40416 -1.37854,-1.40416 -0.76853,0 -1.37774,0.635634 -1.37774,1.40416 0,0.768525 0.60921,1.40496 1.37774,1.40496 0.76853,0 1.37854,-0.636435 1.37854,-1.40496 M 389.0396,80.725292 v 27.202658 h 1.19128 V 80.725292 Z m -6.08854,0 v 27.202658 h 3.63998 V 80.725292 Z M 204.18117,11.228864 v 27.202661 h 1.19128 V 11.228864 Z m 178.76989,69.496428 v 27.202658 h 3.63998 V 80.725292 Z m -3.64046,0 v 27.202658 h 1.19113 V 80.725292 Z m -2.44734,16.910746 c 0,-0.768525 -0.60921,-1.40416 -1.37774,-1.40416 -0.76852,0 -1.37774,0.635635 -1.37774,1.40416 0,0.768526 0.60922,1.40416 1.37774,1.40416 0.76853,0 1.37774,-0.635634 1.37774,-1.40416 m 0,-6.618925 c 0,-0.768526 -0.60921,-1.40416 -1.37774,-1.40416 -0.76852,0 -1.37774,0.635634 -1.37774,1.40416 0,0.768525 0.60922,1.40496 1.37774,1.40496 0.76853,0 1.37774,-0.636435 1.37774,-1.40496 M 296.47865,80.725292 v 27.202658 h 1.19128 V 80.725292 Z m -129.70056,0 v 27.202658 h 1.19113 V 80.725292 Z M 679.80887,11.228864 V 38.431525 H 681 V 11.228864 Z m -135.00199,0 v 27.202661 h 1.19128 V 11.228864 Z m -92.3472,0 v 27.202661 h 1.19128 V 11.228864 Z M 679.80887,80.725292 V 107.92795 H 681 V 80.725292 Z M 164.40366,150.22155 v 27.20267 h 1.19113 v -27.20267 z m 93.47672,0 v 27.20267 h 1.19113 v -27.20267 z m 123.98634,0 v 27.20267 h 1.19113 V 150.22155 Z M 81.733541,11.228864 v 27.202661 h 1.191127 V 11.228864 Z M 475.34345,150.22155 v 27.20267 h 1.19112 v -27.20267 z m 123.98712,0 v 27.20267 h 1.19128 V 150.22155 Z M 560.12783,80.725292 v 27.202658 h 1.19112 V 80.725292 Z M 330.01204,11.228864 v 27.202661 h 1.19113 V 11.228864 Z M 0,176.69685 v 0.72768 h 681 v -0.72768 z m 0,-6.6189 v 0.72768 h 681 v -0.72768 z m 0,-6.61891 v 0.72769 h 681 v -0.72769 z m 0,-6.6189 v 0.72769 h 681 v -0.72769 z m 0,-6.61811 v 0.72768 h 681 v -0.72768 z m 0,-43.02145 v 0.72768 h 681 v -0.72768 z m 0,-6.6189 v 0.72769 h 681 v -0.72769 z m 0,-6.618905 v 0.727689 h 681 v -0.727689 z m 0,-6.618902 v 0.72769 h 681 v -0.72769 z m 0,-6.618269 v 0.727842 H 681 V 80.725604 Z M 0,37.703532 v 0.727681 h 681 v -0.727681 z m 0,-6.618125 v 0.727689 h 681 v -0.727689 z m 0,-6.619054 v 0.727681 H 681 V 24.466353 Z M 0,17.847765 V 18.57545 H 681 V 17.847765 Z M 0,11.22902 v 0.727685 H 681 V 11.22902 Z"
     style="stroke-width:0.0800547" />
  <metadata
     id="metadata251">
    <rdf:RDF>
      <cc:Work
         rdf:about="">
        <dc:title>air_XXVII</dc:title>
      </cc:Work>
    </rdf:RDF>
  </metadata>
</svg>
