<?xml version="1.0" encoding="utf-8"?>
<svg xmlns="http://www.w3.org/2000/svg" xmlns:svg="http://www.w3.org/2000/svg" version="1.1" viewBox="0 0 681 123">
	<title>A score 2 staves long in 4/4 time, in the key of D Major.</title>
	<path d="M629.398 108.89c0 .742.582 1.325 1.324 1.325s1.325-.583 1.325-1.325-.582-1.325-1.325-1.325c-.742 0-1.324.583-1.324 1.325M591.53 32.775c0 .742.584 1.325 1.325 1.325.742 0 1.325-.583 1.325-1.325 0-.741-.583-1.325-1.325-1.325-.741 0-1.325.584-1.325 1.325M143.945 82.413l59.811 3.31v3.314l-59.811-3.31zm88.33 9.925 20.38-1.655v3.321l-20.38 1.654zM65.08 77.451l59.811 1.655v3.31L65.08 80.761zm91.218-69.5 23.684 1.655v3.317l-23.684-1.654zm46.042 0 23.684-1.655v3.318l-23.684 1.655zm283.67-4.964 69.725 4.964v3.318L486.01 6.305zm11.652 81.077 20.378-1.654v3.32l-20.378 1.655zM439.968 7.95l23.683 1.655v3.317l-23.683-1.654zm97.126 69.5 59.812 1.655v3.31l-59.812-1.655zm-139.47 19.29c-.026-.026-.079-.078-.159-.184l-3.047-3.763a.3.3 0 0 1-.052-.159c0-.08.026-.186.052-.238l2.703-4.08a.5.5 0 0 0 .053-.187v-.238c0-.08-.026-.16-.08-.212l-4.292-5.803s-.106-.159-.265-.159c-.08 0-.133.026-.212.08a.32.32 0 0 0-.133.264c0 .16.08.292.08.292l2.014 2.756q.08.12.08.318a.6.6 0 0 1-.08.318l-2.677 4.08a.6.6 0 0 0-.052.212v.239c0 .079.026.159.079.212l2.968 3.683a2.7 2.7 0 0 0-.663-.08c-1.35 0-2.41 1.114-2.41 2.465 0 .37.078.742.29 1.033.557.848 2.545 3.365 2.545 3.365s.132.16.317.16c.053 0 .106 0 .159-.053.133-.107.186-.212.186-.318s-.053-.186-.08-.239c-.079-.133-.927-1.67-.927-1.67s-.185-.37-.185-.847c0-.848.635-1.537 1.483-1.537.345 0 .637.106.848.238l1.033.663s.107.053.213.053a.29.29 0 0 0 .264-.133c.053-.106.08-.159.08-.238 0-.08-.027-.133-.08-.212zM55.82 18.104c-.663.424-1.14 1.192-1.14 2.04 0 .106 0 .212.026.318.133 1.087 1.007 1.935 2.093 2.067h.292a2.375 2.375 0 0 0 2.385-2.385v-.159c0-.106-.027-.291-.053-.397-.239-1.14-1.272-3.577-5.777-3.577-5.776 0-6.439 4.796-6.439 6.518 0 3.154.398 7.101 7.023 7.101 2.623 0 4.663-1.536 4.77-4.371 0-.133-.08-.213-.213-.213h-.344a.23.23 0 0 0-.212.213c-.107 2.199-1.67 3.524-4.001 3.524-2.306 0-3.419-1.245-3.419-3.577v-5.062c0-1.483.583-3.18 2.942-3.18 1.245 0 1.802.451 2.093.902.026.053.026.08.026.132 0 .027 0 .08-.052.106m-19.627-.527 2.359-.477v4.372l-2.359.504zm4.108-.821c.16-.027.291-.212.291-.371V14.82a.36.36 0 0 0-.37-.37h-.054l-.874.185v-3.949h-.742v4.108l-2.359.477v-3.737h-.741v3.896l-1.033.212c-.16.026-.292.212-.292.37v1.537c0 .212.159.371.37.371h.08l.875-.185v4.372l-1.033.212c-.16.027-.292.212-.292.371v1.537c0 .212.159.371.37.371h.08l.875-.186v3.949h.741v-4.107l2.359-.477v3.736h.742v-3.896l1.007-.185c.16-.026.291-.212.291-.37v-1.564a.36.36 0 0 0-.37-.371h-.054l-.874.185v-4.372zM28.94 7.649l2.358-.477v4.372l-2.358.504zm4.107-.821c.16-.027.292-.212.292-.371V4.893a.36.36 0 0 0-.371-.37h-.054l-.874.185V.759H31.3v4.108l-2.358.477V1.607h-.742v3.896l-1.033.212c-.16.026-.292.212-.292.37v1.537c0 .212.159.371.371.371h.08l.874-.185v4.372l-1.033.212c-.16.027-.292.212-.292.371V14.3c0 .212.159.371.371.371h.08l.874-.185v3.948h.742v-4.107l2.358-.477v3.736h.742V13.69l1.007-.186c.16-.026.292-.212.292-.37V11.57a.36.36 0 0 0-.371-.371h-.054l-.874.185V7.013zm3.146 80.246 2.359-.477v4.371l-2.359.504zm4.108-.822c.16-.027.291-.212.291-.371v-1.564c0-.212-.159-.37-.37-.37h-.054l-.874.185v-3.948h-.742v4.107l-2.359.477v-3.736h-.741v3.895l-1.033.212c-.16.026-.292.212-.292.371v1.536c0 .213.159.372.37.372h.08l.875-.186v4.373l-1.033.211c-.16.027-.292.212-.292.372v1.537c0 .211.159.37.37.37h.08l.875-.185v3.948h.741V93.75l2.359-.477v3.736h.742v-3.895l1.007-.185c.16-.027.291-.212.291-.372v-1.563c0-.212-.159-.37-.37-.37h-.054l-.874.185v-4.373zM28.94 77.145l2.358-.477v4.373l-2.358.503zm4.107-.821c.16-.026.292-.212.292-.372V74.39a.363.363 0 0 0-.371-.372h-.054l-.874.186v-3.948H31.3v4.107l-2.358.477v-3.736h-.742v3.895l-1.033.212c-.16.027-.292.212-.292.37v1.538c0 .212.159.37.371.37h.08l.874-.184v4.371l-1.033.213c-.16.026-.292.212-.292.37v1.537c0 .212.159.37.371.37h.08l.874-.184v3.948h.742v-4.107l2.358-.477v3.736h.742v-3.895l1.007-.186c.16-.026.292-.212.292-.37v-1.564a.363.363 0 0 0-.371-.371h-.054l-.874.185V76.51zm-16.955-41.4a7.7 7.7 0 0 1-1.537.16c-3.789 0-7.022-2.65-7.022-6.651 0-3.234 2.28-6.122 4.611-8.135.45-.398.875-.769 1.272-1.166.238 1.43.424 2.676.61 3.762-2.412.716-4.055 3.26-4.055 5.75 0 1.855 1.458 4.4 3.577 4.4.212 0 .451-.107.451-.345 0-.239-.265-.372-.583-.583-1.033-.636-1.616-1.325-1.616-2.623 0-1.617 1.192-2.915 2.755-3.287zm-2.332-27.24c.239-1.06 1.458-3.842 2.836-3.842.397 0 1.033 1.299 1.033 3.127 0 2.756-2.04 4.823-3.869 6.625-.159-1.06-.291-2.094-.291-3.207 0-.98.08-1.881.291-2.703m6.095 22.339c0 1.881-.768 3.815-2.65 4.584a882 882 0 0 1-1.457-8.559c2.385 0 4.107 1.616 4.107 3.975M8.196 43.06c0 1.748 1.352 4.054 4.93 4.054 1.245 0 2.331-.318 3.285-.901 1.431-1.007 1.802-2.756 1.802-4.425 0-1.034-.159-2.226-.424-3.737-.08-.53-.238-1.325-.397-2.358 2.597-.848 4.53-3.55 4.53-6.28 0-4.001-2.834-6.704-6.703-6.704-.265-1.59-.53-3.153-.769-4.637 2.81-2.942 4.744-6.254 4.744-10.467 0-2.411-.742-4.372-1.166-5.326C17.392.927 16.623 0 16.146 0c-.185 0-1.007.318-1.881 1.351-1.696 2.014-2.173 5.406-2.173 7.632 0 1.43.133 2.73.583 5.697-.026.026-1.404 1.43-1.96 1.881-2.412 2.253-5.75 5.459-5.75 10.758 0 4.956 4.318 8.851 9.247 8.851.768 0 1.484-.08 2.093-.186.504 2.545.795 4.4.795 5.804 0 2.755-1.404 4.213-4.08 4.213-.636 0-1.193-.133-1.246-.133-.026-.026-.08-.053-.08-.08 0-.052.054-.079.133-.105 1.246-.186 2.49-1.246 2.49-2.941 0-1.432-1.085-2.941-3.073-2.941-1.855 0-3.047 1.51-3.047 3.259m7.896 61.36a7.7 7.7 0 0 1-1.537.16c-3.789 0-7.022-2.65-7.022-6.65 0-3.234 2.28-6.122 4.611-8.136.45-.398.875-.769 1.272-1.166.238 1.43.424 2.677.61 3.763-2.412.715-4.055 3.259-4.055 5.75 0 1.854 1.458 4.398 3.577 4.398.212 0 .451-.105.451-.344 0-.238-.265-.371-.583-.583-1.033-.636-1.616-1.324-1.616-2.623 0-1.616 1.192-2.915 2.755-3.286zm-2.332-27.24c.239-1.06 1.458-3.842 2.836-3.842.397 0 1.033 1.298 1.033 3.127 0 2.755-2.04 4.822-3.869 6.624-.159-1.06-.291-2.093-.291-3.206 0-.98.08-1.882.291-2.703m6.095 22.338c0 1.881-.768 3.815-2.65 4.584a882 882 0 0 1-1.457-8.559c2.385 0 4.107 1.617 4.107 3.975m-11.66 13.037c0 1.748 1.352 4.054 4.93 4.054 1.245 0 2.331-.318 3.285-.9 1.431-1.008 1.802-2.757 1.802-4.426 0-1.034-.159-2.226-.424-3.736-.08-.53-.238-1.325-.397-2.359 2.597-.847 4.53-3.55 4.53-6.28 0-4.001-2.834-6.704-6.703-6.704-.265-1.59-.53-3.153-.769-4.637 2.81-2.942 4.744-6.253 4.744-10.467 0-2.411-.742-4.372-1.166-5.326-.636-1.351-1.405-2.279-1.882-2.279-.185 0-1.007.319-1.881 1.351-1.696 2.015-2.173 5.406-2.173 7.632 0 1.431.133 2.73.583 5.698-.026.026-1.404 1.43-1.96 1.88-2.412 2.253-5.75 5.459-5.75 10.759 0 4.955 4.318 8.85 9.247 8.85.768 0 1.484-.079 2.093-.185.504 2.544.795 4.399.795 5.803 0 2.755-1.404 4.213-4.08 4.213-.636 0-1.193-.133-1.246-.133-.026-.026-.08-.053-.08-.08 0-.052.054-.078.133-.105 1.246-.185 2.49-1.245 2.49-2.941 0-1.431-1.085-2.941-3.073-2.941-1.855 0-3.047 1.51-3.047 3.259m167.238-2.553c0 1.14.822 2.411 2.969 2.411 2.755 0 5.643-2.252 5.643-4.584 0-1.563-1.324-2.437-2.967-2.437-2.57 0-5.645 2.172-5.645 4.61m373.434-6.618c0 1.139.821 2.411 2.967 2.411 2.756 0 5.644-2.253 5.644-4.585 0-1.562-1.325-2.437-2.967-2.437-2.57 0-5.644 2.172-5.644 4.61M397.494 27.27c0 1.139.822 2.41 2.968 2.41 2.755 0 5.644-2.252 5.644-4.583 0-1.564-1.325-2.438-2.968-2.438-2.57 0-5.644 2.173-5.644 4.61m171.09 79.425c0 1.14.823 2.412 2.97 2.412 2.755 0 5.643-2.253 5.643-4.585 0-1.564-1.325-2.438-2.968-2.438-2.57 0-5.644 2.173-5.644 4.61m-39.433-6.618c0 1.14.822 2.412 2.968 2.412 2.756 0 5.644-2.253 5.644-4.584 0-1.564-1.325-2.439-2.968-2.439-2.57 0-5.644 2.174-5.644 4.611M432.025 30.58c0 1.14.821 2.411 2.968 2.411 2.756 0 5.644-2.252 5.644-4.584 0-1.563-1.325-2.438-2.967-2.438-2.57 0-5.645 2.173-5.645 4.611m77.41 72.806c0 1.139.822 2.411 2.968 2.411 2.756 0 5.645-2.253 5.645-4.585 0-1.562-1.325-2.437-2.969-2.437-2.57 0-5.643 2.172-5.643 4.61M286.422 28.436a.99.99 0 0 1-1.06-.953c0-1.299 4.452-3.578 5.698-3.578.635 0 1.06.372 1.06.954 0 1.325-4.479 3.577-5.698 3.577m3.657-5.776c-2.57 0-5.644 2.147-5.644 4.61 0 1.14.822 2.412 2.968 2.412 2.755 0 5.644-2.253 5.644-4.584 0-1.564-1.325-2.438-2.968-2.438m298.222 87.344c0 1.14.822 2.411 2.968 2.411 2.756 0 5.645-2.252 5.645-4.584 0-1.563-1.325-2.437-2.968-2.437-2.57 0-5.645 2.172-5.645 4.61m-98.582-3.31c0 1.14.821 2.413 2.968 2.413 2.756 0 5.644-2.253 5.644-4.585 0-1.564-1.325-2.438-2.968-2.438-2.57 0-5.644 2.173-5.644 4.61M455.046 33.89c0 1.139.822 2.41 2.968 2.41 2.755 0 5.644-2.252 5.644-4.584 0-1.563-1.325-2.438-2.968-2.438-2.57 0-5.644 2.173-5.644 4.612m5.098 76.114c0 1.14.822 2.411 2.968 2.411 2.756 0 5.644-2.252 5.644-4.584 0-1.563-1.324-2.437-2.968-2.437-2.57 0-5.644 2.172-5.644 4.61m17.923-86.043c0 1.14.821 2.411 2.968 2.411 2.756 0 5.644-2.252 5.644-4.584 0-1.563-1.325-2.438-2.967-2.438-2.571 0-5.645 2.173-5.645 4.611m-237.628 0c0 1.14.821 2.411 2.967 2.411 2.757 0 5.645-2.252 5.645-4.584 0-1.563-1.325-2.438-2.968-2.438-2.57 0-5.644 2.173-5.644 4.611m260.65 3.31c0 1.139.82 2.41 2.967 2.41 2.755 0 5.644-2.252 5.644-4.583 0-1.564-1.325-2.438-2.968-2.438-2.57 0-5.644 2.173-5.644 4.61m-79.983 86.043c0 1.14.821 2.412 2.967 2.412 2.757 0 5.645-2.252 5.645-4.584 0-1.564-1.325-2.438-2.968-2.438-2.57 0-5.644 2.173-5.644 4.61M524.109 30.58c0 1.14.821 2.411 2.968 2.411 2.756 0 5.644-2.252 5.644-4.584 0-1.563-1.325-2.438-2.968-2.438-2.57 0-5.644 2.173-5.644 4.611m23.021 3.31c0 1.139.821 2.41 2.968 2.41 2.755 0 5.644-2.252 5.644-4.584 0-1.563-1.325-2.438-2.968-2.438-2.57 0-5.644 2.173-5.644 4.612m-329.712-6.62c0 1.14.822 2.412 2.968 2.412 2.755 0 5.644-2.253 5.644-4.584 0-1.564-1.325-2.438-2.968-2.438-2.57 0-5.644 2.173-5.644 4.61m131.738 73.972a.99.99 0 0 1-1.06-.953c0-1.299 4.45-3.578 5.696-3.578.637 0 1.06.37 1.06.954 0 1.325-4.478 3.577-5.696 3.577m3.656-5.777c-2.57 0-5.644 2.147-5.644 4.611 0 1.14.821 2.412 2.967 2.412 2.757 0 5.645-2.253 5.645-4.584 0-1.564-1.325-2.439-2.968-2.439m228.791-57.1a.99.99 0 0 1-1.06-.955c0-1.298 4.451-3.577 5.697-3.577.636 0 1.06.371 1.06.954 0 1.325-4.478 3.578-5.697 3.578m3.656-5.777c-2.57 0-5.644 2.146-5.644 4.61 0 1.14.822 2.412 2.968 2.412 2.756 0 5.645-2.252 5.645-4.584 0-1.564-1.325-2.438-2.969-2.438m34.21 78.582a.99.99 0 0 1-1.059-.954c0-1.298 4.452-3.577 5.698-3.577.635 0 1.06.37 1.06.954 0 1.325-4.479 3.577-5.698 3.577m3.657-5.776c-2.57 0-5.644 2.146-5.644 4.61 0 1.14.821 2.411 2.968 2.411 2.755 0 5.643-2.252 5.643-4.584 0-1.563-1.324-2.437-2.967-2.437m22.15-78.123c0 1.139.822 2.41 2.968 2.41 2.756 0 5.644-2.252 5.644-4.583 0-1.564-1.324-2.438-2.968-2.438-2.57 0-5.644 2.173-5.644 4.61m-349.949 73.972a.99.99 0 0 1-1.06-.953c0-1.299 4.452-3.578 5.698-3.578.636 0 1.06.37 1.06.954 0 1.325-4.478 3.577-5.698 3.577m3.657-5.777c-2.57 0-5.644 2.147-5.644 4.611 0 1.14.822 2.412 2.968 2.412 2.755 0 5.644-2.253 5.644-4.584 0-1.564-1.325-2.439-2.968-2.439M194.397 30.58c0 1.14.821 2.411 2.968 2.411 2.756 0 5.644-2.252 5.644-4.584 0-1.563-1.325-2.438-2.968-2.438-2.57 0-5.644 2.173-5.644 4.611m69.369 79.424c0 1.14.822 2.411 2.968 2.411 2.756 0 5.644-2.252 5.644-4.584 0-1.563-1.325-2.437-2.967-2.437-2.571 0-5.645 2.172-5.645 4.61m-92.39-76.114c0 1.139.822 2.41 2.968 2.41 2.755 0 5.644-2.252 5.644-4.584 0-1.563-1.325-2.438-2.968-2.438-2.57 0-5.644 2.173-5.644 4.612m72.674 79.423c0 1.14.821 2.412 2.968 2.412 2.755 0 5.644-2.252 5.644-4.584 0-1.564-1.325-2.438-2.968-2.438-2.57 0-5.644 2.173-5.644 4.61M57.137 100.075c0 1.14.821 2.412 2.967 2.412 2.756 0 5.644-2.253 5.644-4.584 0-1.564-1.325-2.439-2.967-2.439-2.571 0-5.644 2.174-5.644 4.611m91.218-69.496c0 1.14.821 2.411 2.968 2.411 2.756 0 5.644-2.252 5.644-4.584 0-1.563-1.325-2.438-2.968-2.438-2.57 0-5.644 2.173-5.644 4.611m-34.532-3.31c0 1.14.822 2.412 2.969 2.412 2.755 0 5.644-2.253 5.644-4.584 0-1.564-1.325-2.438-2.968-2.438-2.57 0-5.645 2.173-5.645 4.61m110.51 92.662c0 1.14.822 2.412 2.968 2.412 2.755 0 5.644-2.253 5.644-4.584 0-1.564-1.325-2.439-2.968-2.439-2.57 0-5.644 2.174-5.644 4.611M96.57 106.694c0 1.14.822 2.412 2.968 2.412 2.756 0 5.645-2.253 5.645-4.585 0-1.564-1.325-2.438-2.968-2.438-2.57 0-5.645 2.173-5.645 4.61m19.717 3.31c0 1.14.821 2.411 2.968 2.411 2.756 0 5.644-2.252 5.644-4.584 0-1.563-1.325-2.437-2.968-2.437-2.57 0-5.644 2.172-5.644 4.61m19.717-6.618c0 1.139.82 2.411 2.967 2.411 2.756 0 5.644-2.253 5.644-4.585 0-1.562-1.325-2.437-2.968-2.437-2.57 0-5.643 2.172-5.643 4.61M72.705 40.508c0 1.14.821 2.41 2.968 2.41 2.756 0 5.644-2.251 5.644-4.583 0-1.563-1.325-2.438-2.967-2.438-2.571 0-5.645 2.173-5.645 4.61m83.014 66.188c0 1.14.822 2.412 2.968 2.412 2.755 0 5.644-2.253 5.644-4.585 0-1.564-1.325-2.438-2.968-2.438-2.57 0-5.644 2.173-5.644 4.61m39.433 6.62c0 1.139.821 2.41 2.967 2.41 2.757 0 5.645-2.251 5.645-4.583 0-1.564-1.325-2.438-2.968-2.438-2.57 0-5.644 2.173-5.644 4.61m143.067-94.805a.99.99 0 0 1-1.06-.954c0-1.298 4.452-3.577 5.698-3.577.635 0 1.06.371 1.06.954 0 1.325-4.479 3.577-5.698 3.577m3.657-5.776c-2.57 0-5.644 2.146-5.644 4.61 0 1.14.822 2.412 2.968 2.412 2.755 0 5.644-2.253 5.644-4.584 0-1.564-1.325-2.438-2.968-2.438M76.853 103.385c0 1.139.822 2.411 2.968 2.411 2.755 0 5.644-2.253 5.644-4.585 0-1.562-1.325-2.437-2.968-2.437-2.57 0-5.644 2.172-5.644 4.61m460.242-24.269v18.788h.662V79.115ZM183.378 86.27v21.561h.662V86.27Zm-78.866-6.063v24.315h.662V80.207Zm59.15 4.973v19.342h.661V85.18ZM80.646 16.229v22.106h.663V16.229ZM232.275 93.97v23.788h.662V93.971Zm-88.33-9.883v17.125h.662V84.088ZM462.99 11.241v20.476h.662V11.24Zm-338.76 69.51v27.08h.662v-27.08Zm373.433 4.947v18.824h.662V85.698ZM121.766 4.646v20.452h.662V4.646Zm34.532 4.987v18.774h.662V9.633ZM84.795 79.661v21.552h.662V79.66Zm167.197 12.71v18.77h.662V92.37ZM486.009 4.668v17.12h.663V4.668ZM65.08 79.115v18.788h.662V79.115Zm206.63 6.61v22.106h.662V85.725Zm29.574-9.928v22.106h.662V75.797ZM179.318 11.241v20.476h.662V11.24Zm23.022-1.654v18.82h.662V9.587Zm423.086 76.138v22.106h.662V85.725ZM225.36 7.978v17.12h.662V7.978Zm15.078 15.981v18.744h.662V23.96Zm51.94-19.313v20.452h.661V4.646Zm303.866 76.106v27.08h.662v-27.08ZM336.232 17.34v22.054h.662V17.34ZM653.22 4.646v20.452h.662V4.646Zm-76.693 75.56v24.316h.662V80.207ZM355.11 75.798v22.106h.662V75.797ZM587.558 12.92v22.106h.662V12.92ZM405.436 4.646v20.452h.662V4.646ZM556.811 79.66v21.552h.662V79.66Zm-127.764 9.373v22.107h.662V89.034ZM555.072 9.586v22.13h.662V9.587Zm-86.985 76.139v22.106h.662V85.725ZM532.05 7.947v20.46h.662V7.947Zm-92.083 1.686v18.774h.662V9.633Zm69.062-3.325v18.79h.662V6.308ZM203.094 87.361v23.78h.663V87.36Zm314.284-3.264v17.116h.662V84.097ZM241.865 111.67v1.06h12.974v-1.06zm-19.716 6.619v1.06h12.974v-1.06zm0-6.619v1.06h12.974v-1.06zm196.772 0v1.06h12.974v-1.06zm-225.953 0v1.06h12.974v-1.06zm105.183-8.018a.17.17 0 0 0-.106.028.17.17 0 0 0-.108.012l.002.015-.014.004a.165.165 0 0 0 .038.2l.002.014c5.314 4.186 15.832 6.24 26.354 6.24s21.04-2.054 26.354-6.24a.165.165 0 0 0-.186-.273c-5.188 3.041-15.684 4.594-26.168 4.594s-20.98-1.553-26.168-4.594zm50.212 1.404c-5.617 3.166-14.83 4.778-24.045 4.778-9.213 0-18.426-1.612-24.044-4.778 5.718 2.36 14.876 3.52 24.044 3.52 9.17 0 18.327-1.16 24.045-3.52m-50.296-1.261c10.5 6.154 42.002 6.154 52.503 0-10.5 8.272-42.002 8.272-52.503 0m-145.41-66.353a.17.17 0 0 0-.08.034l-.016-.003-.007.012-.013.006v.015a.165.165 0 0 0-.016.198c5.468 7.526 17.1 8.095 23.277 1.138a.165.165 0 0 0-.228-.238c-2.961 2.414-7.304 3.494-11.587 3.284-4.284-.209-8.5-1.707-11.212-4.398a.17.17 0 0 0-.117-.048zm1.376 1.54c2.711 1.969 6.302 3.059 9.937 3.237 3.636.177 7.316-.557 10.206-2.253-5.776 4.921-14.875 4.476-20.143-.984m-1.375-1.375c5.502 5.46 17.012 6.023 23.02 1.125-6.104 6.877-17.615 6.314-23.02-1.125m380.83 69.335a.17.17 0 0 0-.124.023l-.004.018-.017-.001a.17.17 0 0 0-.005.107.17.17 0 0 0-.022.105c4.609 7 14.607 7.57 19.981 1.14a.165.165 0 0 0-.235-.23c-2.56 2.215-6.284 3.194-9.945 2.985s-7.25-1.605-9.54-4.097l-.016-.001a.17.17 0 0 0-.073-.05zm1.21 1.503c2.297 1.789 5.32 2.798 8.4 2.974s6.2-.483 8.685-1.999c-4.976 4.45-12.648 4.013-17.085-.975m-1.243-1.342c4.656 5.065 14.514 5.628 19.716 1.125-5.307 6.35-15.166 5.787-19.716-1.125m-19.63.985a.165.165 0 0 0-.22.042c-2.032 2.747-5.492 4.542-9.154 5.157-3.662.614-7.518.047-10.336-1.886a.165.165 0 0 0-.197.022h-.016l-.005.013-.011.008.003.016a.165.165 0 0 0 .019.197c6.112 5.835 16.106 4.157 19.978-3.353a.165.165 0 0 0-.06-.216zm-1.182 1.61c-3.92 5.492-11.607 6.782-17.106 2.871 2.668 1.247 5.884 1.561 8.969 1.044 3.085-.518 6.022-1.866 8.137-3.915m-18.621 1.84c5.727 3.928 15.586 2.273 19.716-3.31-3.823 7.416-13.68 9.071-19.716 3.31M221.804 31.97a.165.165 0 0 0-.22.048c-2.235 3.197-6.213 5.491-10.497 6.514-4.285 1.022-8.87.771-12.31-1.072a.165.165 0 0 0-.193.044l-.015.002-.004.013-.011.009.005.015a.165.165 0 0 0 .04.194c7.526 5.755 19.153 2.98 23.27-5.552a.165.165 0 0 0-.065-.215m-1.192 1.745c-4.3 6.472-13.442 8.653-20.2 4.82 3.239 1.152 7.103 1.19 10.751.319 3.649-.871 7.08-2.648 9.449-5.139M198.7 37.607c6.975 3.738 18.485.991 23.02-5.493-4.07 8.435-15.58 11.182-23.02 5.493m237.627-.165a.17.17 0 0 0-.08.034l-.016-.003-.002.01-.019.008a.17.17 0 0 0 0 .107.17.17 0 0 0-.016.106c5.469 7.526 17.102 8.095 23.279 1.137a.165.165 0 0 0-.228-.237c-2.962 2.414-7.305 3.494-11.588 3.284-4.284-.209-8.5-1.707-11.213-4.398a.17.17 0 0 0-.117-.048zm1.375 1.54c2.712 1.969 6.302 3.059 9.938 3.237s7.316-.557 10.207-2.253c-5.777 4.921-14.876 4.476-20.145-.985m-1.374-1.375c5.502 5.46 17.012 6.023 23.021 1.125-6.106 6.877-17.616 6.314-23.021-1.125M179.662 114.7l-.005.017-.017-.003a.17.17 0 0 0-.016.106.17.17 0 0 0-.033.102c3.872 7.51 13.866 9.188 19.978 3.354a.165.165 0 0 0-.207-.256c-2.819 1.933-6.675 2.5-10.337 1.885-3.661-.614-7.121-2.41-9.154-5.157a.17.17 0 0 0-.106-.015.17.17 0 0 0-.102-.033zm1.171 1.617c2.116 2.05 5.053 3.397 8.137 3.915 3.085.517 6.301.202 8.97-1.044-5.5 3.911-13.186 2.62-17.107-2.871m-1.095-1.47c4.13 5.583 13.99 7.238 19.717 3.31-6.036 5.761-15.894 4.106-19.717-3.31M482.37 30.823a.17.17 0 0 0-.08.034l-.016-.003-.002.01-.019.008a.165.165 0 0 0-.014.198l-.002.015c5.469 7.526 17.101 8.095 23.279 1.138a.165.165 0 0 0-.228-.237c-2.962 2.413-7.305 3.493-11.589 3.284-4.283-.21-8.5-1.708-11.212-4.4a.17.17 0 0 0-.117-.047m1.376 1.54c2.711 1.97 6.302 3.06 9.937 3.237 3.636.178 7.316-.557 10.207-2.252-5.777 4.92-14.875 4.476-20.144-.984m-1.375-1.375c5.502 5.46 17.012 6.023 23.021 1.126-6.106 6.876-17.616 6.313-23.021-1.126m46.041 6.454a.17.17 0 0 0-.081.034l-.016-.003-.002.01-.018.008a.17.17 0 0 0 0 .107.17.17 0 0 0-.016.106c5.468 7.526 17.101 8.095 23.279 1.137a.165.165 0 0 0-.229-.237c-2.962 2.414-7.304 3.494-11.588 3.284-4.283-.209-8.5-1.707-11.212-4.398a.17.17 0 0 0-.117-.048zm1.375 1.54c2.711 1.969 6.302 3.059 9.938 3.237s7.316-.557 10.206-2.253c-5.776 4.921-14.876 4.476-20.144-.985m-1.374-1.375c5.502 5.46 17.012 6.023 23.021 1.125-6.106 6.877-17.616 6.314-23.021-1.125M61.446 106.938a.17.17 0 0 0-.083.03l-.015-.003-.002.01-.02.007a.165.165 0 0 0-.022.198l-.003.015c4.609 7 14.606 7.57 19.981 1.14a.165.165 0 0 0-.235-.231c-2.559 2.215-6.284 3.194-9.945 2.985-3.661-.208-7.25-1.605-9.541-4.097a.17.17 0 0 0-.115-.053zm1.236 1.507c2.297 1.789 5.321 2.798 8.401 2.974s6.2-.483 8.684-1.999c-4.976 4.45-12.647 4.013-17.085-.975m-1.243-1.342c4.657 5.065 14.515 5.628 19.716 1.125-5.307 6.35-15.165 5.787-19.716-1.125m39.458 4.271a.17.17 0 0 0-.086.021l-.015-.005-.003.01-.02.004a.17.17 0 0 0-.015.107.17.17 0 0 0-.033.102c3.872 7.51 13.866 9.188 19.978 3.353a.165.165 0 0 0-.208-.256c-2.818 1.933-6.674 2.5-10.336 1.886s-7.121-2.41-9.154-5.157a.17.17 0 0 0-.108-.065zm1.07 1.633c2.116 2.05 5.053 3.397 8.137 3.915s6.301.203 8.97-1.044c-5.499 3.912-13.186 2.622-17.106-2.87m-1.095-1.47c4.131 5.584 13.989 7.238 19.717 3.31-6.035 5.762-15.893 4.107-19.717-3.31m472.04-.163a.2.2 0 0 0-.05.012.2.2 0 0 0-.05.004l-.01.011-.013.003-.002.016a.165.165 0 0 0-.046.193c3.872 7.51 13.866 9.188 19.978 3.353a.165.165 0 0 0-.208-.256c-2.818 1.933-6.674 2.5-10.336 1.885-3.662-.614-7.121-2.41-9.154-5.156a.2.2 0 0 0-.044-.027.2.2 0 0 0-.052-.031zm1.07 1.633c2.116 2.05 5.053 3.397 8.138 3.915s6.3.203 8.97-1.043c-5.5 3.91-13.187 2.62-17.107-2.872m-1.094-1.47c4.13 5.584 13.99 7.238 19.716 3.31-6.035 5.762-15.893 4.107-19.716-3.31m-432.558-3.472a.17.17 0 0 0-.085.021l-.015-.005-.003.009-.02.005a.17.17 0 0 0-.016.106.17.17 0 0 0-.032.103c3.87 7.51 13.866 9.187 19.977 3.353a.165.165 0 0 0-.208-.256c-2.818 1.933-6.674 2.5-10.336 1.885-3.662-.614-7.121-2.41-9.154-5.156a.17.17 0 0 0-.108-.066zm1.07 1.632c2.116 2.05 5.053 3.398 8.138 3.916s6.3.203 8.969-1.044c-5.499 3.911-13.187 2.621-17.107-2.872m-1.094-1.469c4.13 5.583 13.988 7.238 19.715 3.31-6.034 5.761-15.893 4.106-19.715-3.31m467.712-29.486v27.203h1.191V78.742ZM274.97 9.246v27.203h1.192V9.246Zm404.839 0v27.203H681V9.246ZM337.703 78.742v27.203h1.191V78.742Zm50.326-69.496v27.203h1.191V9.246Zm182.122 0v27.203h1.19V9.246ZM677.36 78.742v27.203H681V78.742Zm-3.64 0v27.203h1.191V78.742ZM104.36 9.246v27.203h1.19V9.246Zm110.508 69.496v27.203h1.192V78.742Zm235.811 0v27.203h1.192V78.742ZM0 105.217v.728h681v-.728zm0-6.618v.727h681V98.6zm0-6.62v.729h681v-.728zm0-6.618v.728h681v-.728zm0-6.619v.728h681v-.728Zm0-43.021v.727h681v-.727zm0-6.619v.728h681v-.728zm0-6.619v.728h681v-.728zm0-6.618v.727h681v-.727Zm0-6.619v.728h681v-.728Z"/>
</svg>
