<?xml version="1.0" encoding="utf-8"?>
<svg xmlns="http://www.w3.org/2000/svg" xmlns:svg="http://www.w3.org/2000/svg" version="1.1" viewBox="0 0 681 120">
	<title>A score 2 staves long in 4/4 time, in the key of E Major.</title>
	<path d="M633.387 104.821c0 .743.583 1.325 1.325 1.325s1.325-.582 1.325-1.325c0-.742-.583-1.324-1.325-1.324s-1.325.582-1.325 1.324M218.25 22.088c0 .742.583 1.325 1.325 1.325s1.325-.583 1.325-1.325-.583-1.325-1.325-1.325-1.325.583-1.325 1.325M655.574 8.839l14.306 1.655v3.331l-14.306-1.654zm-509.97 71.154 16.945 1.655v3.325l-16.945-1.654zm44.281.007 49.508-1.654v3.31l-49.508 1.656zM572.59 45.254h41.593v3.308H572.59zM538.89 5.53l14.306 1.655v3.331L538.89 8.861zm-126.348 99.288 52.264 3.31v3.316l-52.264-3.31zM253.194 8.84l14.306 1.655v3.331l-14.306-1.654zm172.054 20.957c-.026-.027-.08-.08-.159-.186l-3.047-3.763a.3.3 0 0 1-.053-.158c0-.08.027-.186.053-.239l2.703-4.08a.5.5 0 0 0 .053-.186v-.239a.3.3 0 0 0-.08-.212l-4.292-5.803s-.107-.159-.265-.159c-.08 0-.133.027-.212.08a.32.32 0 0 0-.133.265c0 .159.08.291.08.291l2.013 2.756q.08.12.08.318a.63.63 0 0 1-.08.318l-2.676 4.08a.6.6 0 0 0-.053.213v.239a.3.3 0 0 0 .08.21l2.967 3.684a2.7 2.7 0 0 0-.662-.08c-1.351 0-2.411 1.114-2.411 2.465 0 .371.08.742.291 1.034.557.847 2.544 3.365 2.544 3.365s.132.16.318.16c.053 0 .106 0 .159-.054.133-.106.185-.212.185-.318s-.052-.186-.079-.239c-.08-.132-.928-1.669-.928-1.669s-.185-.37-.185-.848c0-.847.636-1.537 1.484-1.537a1.6 1.6 0 0 1 .848.239l1.033.662s.107.054.212.054a.3.3 0 0 0 .265-.133c.053-.106.08-.16.08-.239 0-.08-.027-.132-.08-.212zM63.075 20.655c-.662.424-1.14 1.192-1.14 2.04 0 .106 0 .212.027.318.132 1.087 1.007 1.935 2.094 2.067h.291a2.375 2.375 0 0 0 2.385-2.385v-.159c0-.106-.026-.291-.053-.397-.238-1.14-1.272-3.577-5.777-3.577-5.776 0-6.438 4.796-6.438 6.518 0 3.153.397 7.102 7.021 7.102 2.624 0 4.664-1.537 4.77-4.372 0-.133-.08-.212-.212-.212h-.344a.23.23 0 0 0-.213.212c-.105 2.199-1.669 3.524-4 3.524-2.306 0-3.42-1.246-3.42-3.578v-5.06c0-1.485.584-3.18 2.942-3.18 1.246 0 1.802.45 2.094.9.026.053.026.08.026.133 0 .026 0 .08-.053.106M43.45 76.386l2.358-.477v4.372l-2.358.503zm4.106-.821c.16-.027.293-.213.293-.372V73.63c0-.212-.16-.37-.372-.37h-.053l-.874.185v-3.949h-.742v4.107l-2.358.477v-3.736h-.742v3.896l-1.034.211c-.158.027-.291.212-.291.372v1.537c0 .21.159.37.371.37h.08l.874-.186v4.373l-1.034.212c-.158.027-.291.212-.291.37v1.538c0 .212.159.37.371.37h.08l.874-.184v3.947h.742v-4.107l2.358-.477v3.736h.742v-3.894l1.006-.186c.16-.026.293-.212.293-.371v-1.563a.363.363 0 0 0-.372-.372h-.053l-.874.186V75.75zM36.194 89.623l2.359-.477v4.373l-2.359.503zm4.108-.821c.16-.027.291-.212.291-.371v-1.563a.363.363 0 0 0-.37-.372h-.054l-.874.186v-3.948h-.742v4.107l-2.359.477v-3.737h-.741v3.896l-1.033.212c-.16.026-.292.212-.292.37v1.538c0 .212.159.371.37.371h.08l.875-.186v4.372l-1.033.212c-.16.027-.292.212-.292.372v1.536c0 .212.159.371.37.371h.08l.875-.185v3.948h.741V96.3l2.359-.476v3.736h.742v-3.895l1.007-.186c.16-.026.291-.211.291-.37v-1.564c0-.212-.159-.37-.37-.37h-.054l-.874.184v-4.372zM28.94 79.695l2.358-.477v4.372l-2.358.504zm4.107-.82c.16-.028.292-.213.292-.372v-1.564c0-.212-.16-.37-.371-.37h-.054l-.874.185v-3.948H31.3v4.107l-2.358.477v-3.736h-.742v3.895l-1.033.212c-.16.026-.292.212-.292.371v1.537c0 .211.159.37.371.37h.08l.874-.185v4.373l-1.033.212c-.16.026-.292.211-.292.37v1.537c0 .213.159.371.371.371h.08l.874-.186v3.949h.742v-4.107l2.358-.477v3.736h.742v-3.896l1.007-.185c.16-.026.292-.212.292-.371v-1.563c0-.212-.16-.371-.371-.371h-.054l-.874.186v-4.373zM43.45 6.89l2.358-.477v4.372l-2.358.503zm4.107-.822c.159-.026.292-.212.292-.37V4.133a.363.363 0 0 0-.372-.371h-.053l-.874.185V0h-.742v4.107l-2.358.477V.848h-.742v3.895l-1.034.212c-.158.027-.291.212-.291.371v1.537c0 .212.159.371.371.371h.08l.874-.186v4.373l-1.034.212c-.158.026-.291.212-.291.37v1.538c0 .212.159.37.371.37h.08l.874-.185v3.948h.742v-4.107l2.358-.477v3.736h.742v-3.895l1.006-.185c.16-.027.293-.212.293-.371V10.81a.363.363 0 0 0-.372-.37h-.053l-.874.185V6.254zM36.194 20.127l2.359-.477v4.372l-2.359.504zm4.108-.82c.16-.027.291-.213.291-.372v-1.563a.36.36 0 0 0-.37-.37h-.054l-.874.185v-3.949h-.742v4.108l-2.359.477v-3.737h-.741v3.896l-1.033.212c-.16.026-.292.212-.292.37V20.1c0 .212.159.371.37.371h.08l.875-.185v4.372l-1.033.212c-.16.026-.292.212-.292.371v1.537c0 .212.159.371.37.371h.08l.875-.186v3.949h.741v-4.108l2.359-.476v3.736h.742v-3.896l1.007-.185c.16-.027.291-.212.291-.37v-1.564c0-.213-.159-.371-.37-.371h-.054l-.874.185V19.49zM28.94 10.2l2.358-.477v4.372l-2.358.504zm4.107-.82c.16-.027.292-.213.292-.372V7.443a.36.36 0 0 0-.371-.371h-.054l-.874.186V3.309H31.3v4.108l-2.358.476V4.157h-.742v3.895l-1.033.212c-.16.027-.292.212-.292.371v1.537c0 .212.159.371.371.371h.08l.874-.185v4.372l-1.033.212c-.16.026-.292.212-.292.37v1.538c0 .212.159.37.371.37h.08l.874-.185v3.949h.742v-4.108l2.358-.477v3.737h.742V16.24l1.007-.185c.16-.027.292-.212.292-.371V14.12a.36.36 0 0 0-.371-.371h-.054l-.874.185V9.563zM16.093 37.475a7.8 7.8 0 0 1-1.537.158c-3.789 0-7.022-2.65-7.022-6.65 0-3.233 2.28-6.122 4.611-8.136.45-.397.875-.768 1.272-1.165.238 1.43.424 2.676.61 3.762-2.412.716-4.055 3.26-4.055 5.75 0 1.855 1.458 4.4 3.577 4.4.212 0 .451-.107.451-.346 0-.238-.265-.37-.583-.583-1.033-.635-1.616-1.324-1.616-2.623 0-1.616 1.192-2.915 2.755-3.285zm-2.332-27.24c.239-1.06 1.458-3.843 2.836-3.843.397 0 1.033 1.299 1.033 3.127 0 2.756-2.04 4.823-3.869 6.624-.159-1.06-.291-2.093-.291-3.206 0-.98.08-1.881.291-2.703m6.095 22.338c0 1.881-.768 3.816-2.65 4.585a877 877 0 0 1-1.457-8.56c2.385 0 4.107 1.617 4.107 3.975M8.196 45.609c0 1.75 1.352 4.055 4.93 4.055 1.245 0 2.331-.318 3.285-.902 1.431-1.006 1.802-2.755 1.802-4.424 0-1.034-.159-2.227-.424-3.736-.08-.53-.238-1.325-.397-2.359 2.597-.848 4.53-3.551 4.53-6.28 0-4.001-2.834-6.704-6.703-6.704-.265-1.59-.53-3.153-.769-4.637 2.81-2.942 4.744-6.254 4.744-10.467 0-2.411-.742-4.372-1.166-5.326-.636-1.352-1.405-2.28-1.882-2.28-.185 0-1.007.319-1.881 1.352-1.696 2.014-2.173 5.406-2.173 7.632 0 1.43.133 2.73.583 5.697-.026.026-1.404 1.43-1.96 1.881-2.412 2.253-5.75 5.459-5.75 10.758 0 4.956 4.318 8.85 9.247 8.85.768 0 1.484-.079 2.093-.184.504 2.543.795 4.398.795 5.803 0 2.755-1.404 4.213-4.08 4.213-.636 0-1.193-.133-1.246-.133-.026-.026-.08-.053-.08-.08 0-.052.054-.08.133-.106 1.246-.185 2.49-1.245 2.49-2.94 0-1.431-1.085-2.942-3.073-2.942-1.855 0-3.047 1.51-3.047 3.259m7.896 61.362a7.8 7.8 0 0 1-1.537.158c-3.789 0-7.022-2.65-7.022-6.65 0-3.233 2.28-6.122 4.611-8.135.45-.398.875-.768 1.272-1.166.238 1.431.424 2.676.61 3.762-2.412.716-4.055 3.26-4.055 5.75 0 1.855 1.458 4.4 3.577 4.4.212 0 .451-.107.451-.345s-.265-.371-.583-.583c-1.033-.636-1.616-1.325-1.616-2.624 0-1.616 1.192-2.914 2.755-3.285zm-2.332-27.24c.239-1.06 1.458-3.842 2.836-3.842.397 0 1.033 1.298 1.033 3.126 0 2.756-2.04 4.823-3.869 6.625-.159-1.06-.291-2.094-.291-3.207 0-.98.08-1.881.291-2.702m6.095 22.337c0 1.882-.768 3.817-2.65 4.585a877 877 0 0 1-1.457-8.56c2.385 0 4.107 1.617 4.107 3.975m-11.66 13.038c0 1.748 1.352 4.054 4.93 4.054 1.245 0 2.331-.318 3.285-.901 1.431-1.007 1.802-2.756 1.802-4.425 0-1.034-.159-2.226-.424-3.736-.08-.53-.238-1.325-.397-2.359 2.597-.847 4.53-3.55 4.53-6.28 0-4.001-2.834-6.704-6.703-6.704-.265-1.59-.53-3.153-.769-4.637 2.81-2.941 4.744-6.253 4.744-10.467 0-2.41-.742-4.372-1.166-5.326-.636-1.35-1.405-2.279-1.882-2.279-.185 0-1.007.318-1.881 1.352-1.696 2.014-2.173 5.406-2.173 7.631 0 1.43.133 2.73.583 5.697-.026.027-1.404 1.431-1.96 1.882-2.412 2.252-5.75 5.458-5.75 10.758 0 4.955 4.318 8.85 9.247 8.85.768 0 1.484-.08 2.093-.185.504 2.543.795 4.398.795 5.803 0 2.755-1.404 4.213-4.08 4.213-.636 0-1.193-.133-1.246-.133-.026-.026-.08-.052-.08-.079 0-.053.054-.08.133-.106 1.246-.185 2.49-1.245 2.49-2.941 0-1.431-1.085-2.942-3.073-2.942-1.855 0-3.047 1.51-3.047 3.26M647.632 29.82c0 1.139.821 2.411 2.967 2.411 2.756 0 5.644-2.253 5.644-4.585 0-1.563-1.325-2.437-2.968-2.437-2.57 0-5.643 2.172-5.643 4.61m-269.41 0c0 1.14.821 2.412 2.967 2.412 2.757 0 5.645-2.253 5.645-4.585 0-1.563-1.325-2.437-2.968-2.437-2.57 0-5.644 2.172-5.644 4.61m85.922 62.878c0 1.14.821 2.411 2.967 2.411 2.757 0 5.645-2.252 5.645-4.584 0-1.563-1.325-2.438-2.968-2.438-2.57 0-5.644 2.173-5.644 4.611m-65.456-59.569c0 1.14.821 2.412 2.967 2.412 2.756 0 5.644-2.252 5.644-4.584 0-1.564-1.325-2.438-2.967-2.438-2.57 0-5.644 2.173-5.644 4.61m-139.793 0c0 1.14.822 2.412 2.968 2.412 2.756 0 5.644-2.252 5.644-4.584 0-1.564-1.325-2.438-2.968-2.438-2.57 0-5.644 2.173-5.644 4.61m188.966 56.26c0 1.139.822 2.41 2.968 2.41 2.756 0 5.645-2.251 5.645-4.583 0-1.563-1.325-2.438-2.969-2.438-2.57 0-5.644 2.173-5.644 4.61M439.62 26.51c0 1.14.821 2.412 2.967 2.412 2.756 0 5.644-2.253 5.644-4.585 0-1.563-1.325-2.438-2.967-2.438-2.57 0-5.644 2.173-5.644 4.611m-10.796 59.568c0 1.14.822 2.411 2.968 2.411 2.755 0 5.644-2.251 5.644-4.583 0-1.564-1.325-2.438-2.968-2.438-2.57 0-5.644 2.173-5.644 4.61m76.025 13.238c0 1.14.822 2.411 2.969 2.411 2.755 0 5.643-2.252 5.643-4.584 0-1.564-1.324-2.438-2.967-2.438-2.57 0-5.645 2.173-5.645 4.611M79.96 26.51c0 1.14.822 2.412 2.968 2.412 2.755 0 5.644-2.253 5.644-4.585 0-1.563-1.325-2.438-2.968-2.438-2.57 0-5.644 2.173-5.644 4.611M412.542 82.77c0 1.14.821 2.411 2.968 2.411 2.755 0 5.644-2.252 5.644-4.584 0-1.563-1.325-2.438-2.968-2.438-2.57 0-5.644 2.173-5.644 4.61m57.008-59.567c0 1.139.821 2.411 2.967 2.411 2.757 0 5.645-2.253 5.645-4.584 0-1.564-1.325-2.438-2.967-2.438-2.571 0-5.645 2.173-5.645 4.61m-354.543-6.618c0 1.14.822 2.411 2.968 2.411 2.756 0 5.644-2.252 5.644-4.584 0-1.563-1.325-2.438-2.968-2.438-2.57 0-5.644 2.173-5.644 4.611m375.009 6.619c0 1.139.821 2.411 2.967 2.411 2.757 0 5.645-2.253 5.645-4.584 0-1.564-1.325-2.438-2.968-2.438-2.57 0-5.644 2.173-5.644 4.61M378.653 86.079c0 1.14.822 2.411 2.969 2.411 2.755 0 5.644-2.251 5.644-4.583 0-1.564-1.325-2.438-2.968-2.438-2.57 0-5.645 2.173-5.645 4.61m131.829-62.877c0 1.139.821 2.411 2.967 2.411 2.757 0 5.645-2.253 5.645-4.584 0-1.564-1.325-2.438-2.968-2.438-2.57 0-5.644 2.173-5.644 4.61M354.23 96.008c0 1.139.822 2.41 2.968 2.41 2.756 0 5.644-2.252 5.644-4.584 0-1.563-1.325-2.438-2.968-2.438-2.57 0-5.644 2.173-5.644 4.612M530.948 26.51c0 1.14.821 2.412 2.967 2.412 2.756 0 5.644-2.253 5.644-4.585 0-1.563-1.325-2.438-2.967-2.438-2.57 0-5.644 2.173-5.644 4.611M329.806 86.078c0 1.14.822 2.411 2.969 2.411 2.755 0 5.644-2.251 5.644-4.583 0-1.564-1.325-2.438-2.968-2.438-2.57 0-5.645 2.173-5.645 4.61m18.485-56.258c0 1.139.821 2.411 2.968 2.411 2.756 0 5.644-2.253 5.644-4.585 0-1.563-1.325-2.437-2.967-2.437-2.571 0-5.645 2.172-5.645 4.61m-42.908 66.188c0 1.139.822 2.41 2.968 2.41 2.756 0 5.644-2.252 5.644-4.584 0-1.563-1.324-2.438-2.968-2.438-2.57 0-5.644 2.173-5.644 4.612M544.592 29.82c0 1.139.82 2.411 2.967 2.411 2.756 0 5.645-2.253 5.645-4.585 0-1.563-1.325-2.437-2.969-2.437-2.57 0-5.643 2.172-5.643 4.61m-409.12 9.928c0 1.14.823 2.412 2.969 2.412 2.756 0 5.644-2.252 5.644-4.584 0-1.564-1.325-2.438-2.968-2.438-2.57 0-5.644 2.173-5.644 4.61m109.779-9.927c0 1.139.821 2.411 2.967 2.411 2.756 0 5.644-2.253 5.644-4.585 0-1.563-1.325-2.437-2.967-2.437-2.571 0-5.644 2.172-5.644 4.61m26.243 56.26c0 1.138.822 2.41 2.968 2.41 2.755 0 5.644-2.251 5.644-4.583 0-1.564-1.325-2.438-2.968-2.438-2.57 0-5.644 2.173-5.644 4.61M572.59 26.51c0 1.14.821 2.412 2.968 2.412 2.756 0 5.643-2.253 5.643-4.585 0-1.563-1.325-2.438-2.967-2.438-2.57 0-5.644 2.173-5.644 4.611M247.07 102.625c0 1.14.822 2.412 2.968 2.412 2.756 0 5.645-2.253 5.645-4.585 0-1.563-1.325-2.438-2.968-2.438-2.57 0-5.645 2.173-5.645 4.61m80.754-52.948c0 1.139.822 2.411 2.968 2.411 2.756 0 5.644-2.253 5.644-4.585 0-1.562-1.325-2.437-2.967-2.437-2.571 0-5.645 2.172-5.645 4.61m-97.036 49.641c0 1.14.821 2.411 2.968 2.411 2.756 0 5.644-2.252 5.644-4.584 0-1.564-1.325-2.438-2.967-2.438-2.57 0-5.645 2.173-5.645 4.611M586.234 29.82c0 1.139.821 2.411 2.967 2.411 2.757 0 5.645-2.253 5.645-4.585 0-1.563-1.325-2.437-2.969-2.437-2.57 0-5.643 2.172-5.643 4.61m-371.727 72.806c0 1.14.821 2.412 2.967 2.412 2.757 0 5.645-2.253 5.645-4.585 0-1.563-1.325-2.438-2.968-2.438-2.57 0-5.644 2.173-5.644 4.61m385.37-76.114c0 1.14.822 2.412 2.969 2.412 2.755 0 5.644-2.253 5.644-4.585 0-1.563-1.325-2.438-2.968-2.438-2.57 0-5.645 2.173-5.645 4.611m-401.653 79.424c0 1.14.822 2.411 2.969 2.411 2.755 0 5.644-2.252 5.644-4.583 0-1.564-1.325-2.438-2.968-2.438-2.57 0-5.645 2.173-5.645 4.61m415.298-82.733c0 1.139.821 2.411 2.968 2.411 2.755 0 5.643-2.253 5.643-4.584 0-1.564-1.325-2.438-2.967-2.438-2.57 0-5.644 2.173-5.644 4.61m-72.797 80.591a.99.99 0 0 1-1.06-.954c0-1.299 4.452-3.577 5.697-3.577.636 0 1.06.37 1.06.953 0 1.325-4.478 3.578-5.697 3.578m3.657-5.777c-2.57 0-5.644 2.147-5.644 4.61 0 1.14.821 2.413 2.968 2.413 2.755 0 5.643-2.253 5.643-4.585 0-1.563-1.324-2.438-2.967-2.438m-362.44 4.61c0 1.14.821 2.413 2.968 2.413 2.756 0 5.644-2.253 5.644-4.585 0-1.563-1.325-2.438-2.967-2.438-2.57 0-5.645 2.173-5.645 4.61M627.166 26.51c0 1.14.821 2.412 2.967 2.412 2.756 0 5.644-2.253 5.644-4.585 0-1.563-1.325-2.438-2.968-2.438-2.57 0-5.643 2.173-5.643 4.611m-471.227 6.618c0 1.14.821 2.412 2.968 2.412 2.756 0 5.644-2.252 5.644-4.584 0-1.564-1.325-2.438-2.968-2.438-2.57 0-5.644 2.173-5.644 4.61m130.955-3.308c0 1.139.821 2.411 2.967 2.411 2.756 0 5.644-2.253 5.644-4.585 0-1.563-1.325-2.437-2.967-2.437-2.57 0-5.644 2.172-5.644 4.61m-132.95 76.115c0 1.14.822 2.411 2.968 2.411 2.756 0 5.644-2.252 5.644-4.583 0-1.564-1.325-2.438-2.968-2.438-2.57 0-5.644 2.173-5.644 4.61m54.378-78.258a.99.99 0 0 1-1.06-.954c0-1.298 4.452-3.577 5.698-3.577.636 0 1.06.37 1.06.954 0 1.325-4.478 3.577-5.698 3.577m3.657-5.777c-2.57 0-5.644 2.146-5.644 4.611 0 1.14.822 2.412 2.968 2.412 2.756 0 5.644-2.253 5.644-4.585 0-1.563-1.325-2.438-2.968-2.438m365.381 85.202a.99.99 0 0 1-1.06-.955c0-1.298 4.452-3.577 5.697-3.577.637 0 1.06.371 1.06.954 0 1.325-4.477 3.578-5.697 3.578m3.657-5.777c-2.57 0-5.644 2.146-5.644 4.61 0 1.14.822 2.411 2.968 2.411 2.756 0 5.644-2.251 5.644-4.583 0-1.564-1.325-2.438-2.968-2.438M307.36 36.438c0 1.14.821 2.411 2.967 2.411 2.756 0 5.644-2.252 5.644-4.584 0-1.563-1.325-2.437-2.967-2.437-2.571 0-5.644 2.172-5.644 4.61m353.915-3.31c0 1.14.822 2.412 2.968 2.412 2.756 0 5.644-2.252 5.644-4.584 0-1.564-1.325-2.438-2.968-2.438-2.57 0-5.644 2.173-5.644 4.61M113.238 99.316c0 1.14.822 2.411 2.968 2.411 2.756 0 5.644-2.252 5.644-4.584 0-1.564-1.324-2.438-2.968-2.438-2.57 0-5.644 2.173-5.644 4.611m63.167-69.496c0 1.139.821 2.411 2.967 2.411 2.757 0 5.645-2.253 5.645-4.585 0-1.563-1.325-2.437-2.968-2.437-2.57 0-5.644 2.172-5.644 4.61m-87.59 69.497c0 1.14.821 2.411 2.968 2.411 2.755 0 5.644-2.252 5.644-4.584 0-1.564-1.325-2.438-2.968-2.438-2.57 0-5.644 2.173-5.644 4.611m534.646 11.094a.99.99 0 0 1-1.06-.954c0-1.299 4.45-3.578 5.696-3.578.636 0 1.06.372 1.06.954 0 1.325-4.478 3.578-5.696 3.578m3.656-5.777c-2.57 0-5.644 2.147-5.644 4.61 0 1.14.821 2.412 2.968 2.412 2.756 0 5.644-2.252 5.644-4.584 0-1.563-1.325-2.438-2.968-2.438M64.39 99.316c0 1.14.822 2.411 2.968 2.411 2.756 0 5.645-2.252 5.645-4.584 0-1.564-1.325-2.438-2.969-2.438-2.57 0-5.644 2.173-5.644 4.611m416.035-3.31c0 1.14.821 2.412 2.968 2.412 2.756 0 5.644-2.253 5.644-4.585 0-1.563-1.325-2.438-2.968-2.438-2.57 0-5.644 2.173-5.644 4.612m-342.764 6.618c0 1.14.821 2.412 2.968 2.412 2.755 0 5.644-2.253 5.644-4.585 0-1.563-1.325-2.438-2.968-2.438-2.57 0-5.644 2.173-5.644 4.61M72.334 76.693v20.452h.662V76.692Zm48.847 0v20.452h.662V76.692Zm85.154-50.183v18.744h.662V26.51Zm-60.731 55.18v18.764h.662V81.688ZM669.218 12.12v18.835h.662V12.121Zm-353.916.039v22.106h.662V12.16ZM161.886 83.279v20.483h.662V83.28Zm22.461-76.083v20.451h.662V7.196Zm5.538 74.449v18.808h.662V81.645Zm437.28-55.136v18.744h.662V26.51ZM206.167 81.1v22.662h.662V81.1Zm407.355-57.9v23.708h.662V23.2ZM222.449 80.557v19.896h.662V80.557Zm377.429-54.048v20.4h.662v-20.4ZM238.732 80.013v17.131h.662V80.013Zm347.502-50.195v17.09h.662v-17.09Zm-331.22 48.529v22.106h.662V78.347Zm16.48 7.73v22.054h.663V86.077ZM572.59 26.51v20.4h.662v-20.4ZM253.193 10.543v17.104h.663V10.543ZM163.881 8.85v22.106h.662V8.85Zm141.502 87.155v18.745h.662V96.005ZM552.534 8.812v18.835h.662V8.812ZM329.807 86.077v22.054h.662V86.077Zm24.423 9.928v18.745h.662V96.005ZM538.89 7.234v17.104h.663V7.234ZM378.654 86.077v22.054h.662V86.077ZM510.48 23.2v20.399h.663v-20.4Zm-367.066-7.731v22.106h.662V15.47Zm346.601 7.73v20.4h.662v-20.4Zm-77.474 59.569v23.73h.662v-23.73ZM469.55 23.2v20.399h.662v-20.4Zm-40.726 62.877v21.451h.662v-21.45ZM266.838 12.121v18.835h.662V12.121Zm181.023 77.266v19.347h.662V89.387Zm-8.242-62.878v18.744h.662V26.51ZM115.007 16.58v22.054h.662V16.58Zm349.136 76.115v17.069h.662V92.696ZM406.63 8.85v22.106h.663V8.85Zm73.796 87.155v18.745h.662V96.005Zm-94.262-88.81v20.452h.663V7.196Zm126.628 69.497v20.452h.662V76.692ZM294.836 7.196v20.451h.662V7.196ZM79.96 26.509v18.744h.662V26.51ZM356.234 7.196v20.451h.662V7.196Zm190.446 71.15v22.107h.662V78.347Zm36.635 3.31v22.106h.662V81.656Zm-247.547-56.26v22.108h.662V25.397Zm293.648 59.57v22.106h.662V84.965Zm-532.66-8.274v20.452h.663V76.692Zm558.817-66.149v17.104h.662V10.543Zm-329.932 34.18v1.06h12.974v-1.06zm116.172 41.59 2.359-.476v4.372l-2.359.504zm4.107-.82c.16-.027.291-.213.291-.371v-1.564a.36.36 0 0 0-.37-.37h-.053l-.875.184v-3.948h-.741v4.108l-2.359.477v-3.736h-.742v3.894l-1.033.212c-.16.027-.292.213-.292.371v1.537c0 .212.159.372.37.372h.081l.874-.186v4.372l-1.033.212c-.16.026-.292.212-.292.371v1.537c0 .212.159.371.371.371h.08l.874-.186V97.1h.742v-4.107l2.359-.477v3.736h.741v-3.896l1.007-.185c.16-.027.292-.212.292-.371v-1.564a.36.36 0 0 0-.371-.37h-.053l-.875.185v-4.372zm-12.727-13.629c-6.014.086-11.75 1.263-16.425 3.69a.165.165 0 0 0-.073.195l-.005.011.006.003.001.013a.17.17 0 0 0 .106.033.17.17 0 0 0 .1.045c7.186-2.8 17.23-2.972 26.882-1.115s18.915 5.745 24.548 11.01a.165.165 0 0 0 .238-.228c-5.504-6.38-14.72-10.8-24.423-12.667-3.64-.7-7.347-1.041-10.956-.99Zm.005.333c3.584-.052 7.27.286 10.887.982 8.461 1.628 16.542 5.215 22.068 10.322-5.731-4.305-13.87-7.464-22.305-9.087s-17.165-1.709-24.085.162c4.022-1.541 8.636-2.31 13.435-2.38m-16.354 3.503c14.863-7.715 40.664-2.75 51.602 9.929-11.338-10.6-37.14-15.564-51.602-9.929M196.871 11.796v27.203h1.19V11.796Zm482.938 0v27.203H681V11.796Zm-116.684 0v27.203h1.191V11.796Zm-103.04 0v27.203h1.192V11.796Zm-182.656 0v27.203h1.191V11.796ZM172.478 81.292v27.203h1.191V81.292Zm123.44 0v27.203h1.192V81.292Zm107.16 0v27.203h1.19V81.292ZM105.541 11.796v27.203h1.192V11.796Zm423.731 69.496v27.203h1.191V81.292Zm82.735 0v27.203h1.191V81.292Zm65.352 0v27.203H681V81.292Zm-3.64 0v27.203h1.191V81.292ZM368.757 11.796v27.203h1.191V11.796ZM0 107.767v.728h681v-.728zm0-6.619v.728h681v-.728zm0-6.619v.728h681v-.728zm0-6.618v.728h681v-.728zm0-6.619v.728h681v-.728Zm0-43.021v.727h681v-.727Zm0-6.62v.728h681v-.727Zm0-6.618v.728h681v-.728zm0-6.619v.728h681v-.728zm0-6.618v.728h681v-.728z"/>
</svg>
