<?xml version="1.0" encoding="UTF-8" standalone="no"?>
<svg width="210.058mm" height="296.926mm" viewBox="0 0 9924 14028"
 xmlns="http://www.w3.org/2000/svg" xmlns:xlink="http://www.w3.org/1999/xlink" version="1.2" baseProfile="full">
<title>air_XXVIII</title>
<desc>Generated by MuseScore Studio 4.7.3</desc>
<polyline class="StaffLines" fill="none" stroke="#000000" stroke-width="9.09" stroke-linejoin="bevel" points="708.661,860.47 9215.34,860.47" />
<polyline class="StaffLines" fill="none" stroke="#000000" stroke-width="9.09" stroke-linejoin="bevel" points="708.661,943.147 9215.34,943.147" />
<polyline class="StaffLines" fill="none" stroke="#000000" stroke-width="9.09" stroke-linejoin="bevel" points="708.661,1025.82 9215.34,1025.82" />
<polyline class="StaffLines" fill="none" stroke="#000000" stroke-width="9.09" stroke-linejoin="bevel" points="708.661,1108.5 9215.34,1108.5" />
<polyline class="StaffLines" fill="none" stroke="#000000" stroke-width="9.09" stroke-linejoin="bevel" points="708.661,1191.18 9215.34,1191.18" />
<polyline class="StaffLines" fill="none" stroke="#000000" stroke-width="9.09" stroke-linejoin="bevel" points="708.661,1728.58 9215.34,1728.58" />
<polyline class="StaffLines" fill="none" stroke="#000000" stroke-width="9.09" stroke-linejoin="bevel" points="708.661,1811.26 9215.34,1811.26" />
<polyline class="StaffLines" fill="none" stroke="#000000" stroke-width="9.09" stroke-linejoin="bevel" points="708.661,1893.93 9215.34,1893.93" />
<polyline class="StaffLines" fill="none" stroke="#000000" stroke-width="9.09" stroke-linejoin="bevel" points="708.661,1976.61 9215.34,1976.61" />
<polyline class="StaffLines" fill="none" stroke="#000000" stroke-width="9.09" stroke-linejoin="bevel" points="708.661,2059.29 9215.34,2059.29" />
<polyline class="BarLine" fill="none" stroke="#000000" stroke-width="14.88" stroke-linejoin="bevel" points="3995.92,855.923 3995.92,1195.73" />
<path class="BarLine" d="M9093.83,1852.6 C9093.83,1843 9086.22,1835.05 9076.62,1835.05 C9067.02,1835.05 9059.41,1843 9059.41,1852.6 C9059.41,1862.2 9067.02,1870.14 9076.62,1870.14 C9086.22,1870.14 9093.83,1862.2 9093.83,1852.6"/>
<path class="BarLine" d="M9093.83,1935.27 C9093.83,1925.67 9086.22,1917.73 9076.62,1917.73 C9067.02,1917.73 9059.41,1925.67 9059.41,1935.27 C9059.41,1944.87 9067.02,1952.82 9076.62,1952.82 C9086.22,1952.82 9093.83,1944.87 9093.83,1935.27"/>
<polyline class="BarLine" fill="none" stroke="#000000" stroke-width="14.88" stroke-linejoin="bevel" points="9131.84,1724.03 9131.84,2063.84" />
<polyline class="BarLine" fill="none" stroke="#000000" stroke-width="45.47" stroke-linejoin="bevel" points="9192.6,1724.03 9192.6,2063.84" />
<polyline class="BarLine" fill="none" stroke="#000000" stroke-width="14.88" stroke-linejoin="bevel" points="7604.18,1724.03 7604.18,2063.84" />
<polyline class="BarLine" fill="none" stroke="#000000" stroke-width="14.88" stroke-linejoin="bevel" points="5805.39,1724.03 5805.39,2063.84" />
<polyline class="BarLine" fill="none" stroke="#000000" stroke-width="14.88" stroke-linejoin="bevel" points="4006.61,1724.03 4006.61,2063.84" />
<polyline class="BarLine" fill="none" stroke="#000000" stroke-width="14.88" stroke-linejoin="bevel" points="2039.77,1724.03 2039.77,2063.84" />
<polyline class="BarLine" fill="none" stroke="#000000" stroke-width="14.88" stroke-linejoin="bevel" points="2011.76,855.923 2011.76,1195.73" />
<polyline class="BarLine" fill="none" stroke="#000000" stroke-width="45.47" stroke-linejoin="bevel" points="1459.67,1724.03 1459.67,2063.84" />
<polyline class="BarLine" fill="none" stroke="#000000" stroke-width="14.88" stroke-linejoin="bevel" points="1520.44,1724.03 1520.44,2063.84" />
<path class="BarLine" d="M1592.89,1852.6 C1592.89,1843 1585.28,1835.05 1575.68,1835.05 C1566.08,1835.05 1558.47,1843 1558.47,1852.6 C1558.47,1862.2 1566.08,1870.14 1575.68,1870.14 C1585.28,1870.14 1592.89,1862.2 1592.89,1852.6"/>
<path class="BarLine" d="M1592.89,1935.27 C1592.89,1925.67 1585.28,1917.73 1575.68,1917.73 C1566.08,1917.73 1558.47,1925.67 1558.47,1935.27 C1558.47,1944.87 1566.08,1952.82 1575.68,1952.82 C1585.28,1952.82 1592.89,1944.87 1592.89,1935.27"/>
<path class="BarLine" d="M9093.83,984.486 C9093.83,974.887 9086.22,966.943 9076.62,966.943 C9067.02,966.943 9059.41,974.887 9059.41,984.486 C9059.41,994.085 9067.02,1002.03 9076.62,1002.03 C9086.22,1002.03 9093.83,994.085 9093.83,984.486"/>
<path class="BarLine" d="M9093.83,1067.16 C9093.83,1057.56 9086.22,1049.62 9076.62,1049.62 C9067.02,1049.62 9059.41,1057.56 9059.41,1067.16 C9059.41,1076.76 9067.02,1084.71 9076.62,1084.71 C9086.22,1084.71 9093.83,1076.76 9093.83,1067.16"/>
<polyline class="BarLine" fill="none" stroke="#000000" stroke-width="14.88" stroke-linejoin="bevel" points="9131.84,855.923 9131.84,1195.73" />
<polyline class="BarLine" fill="none" stroke="#000000" stroke-width="45.47" stroke-linejoin="bevel" points="9192.6,855.923 9192.6,1195.73" />
<polyline class="BarLine" fill="none" stroke="#000000" stroke-width="14.88" stroke-linejoin="bevel" points="7794.62,855.923 7794.62,1195.73" />
<polyline class="BarLine" fill="none" stroke="#000000" stroke-width="14.88" stroke-linejoin="bevel" points="5980.09,855.923 5980.09,1195.73" />
<path class="TieSegment" stroke="#000000" stroke-width="4.13" stroke-linecap="round" stroke-linejoin="round" fill-rule="evenodd" d="M7783.42,1792.24 C7880.95,1724.71 8173.53,1724.71 8271.05,1792.24 C8173.53,1751.17 7880.95,1751.17 7783.42,1792.24"/>
<polyline class="Stem" fill="none" stroke="#000000" stroke-width="8.27" stroke-linejoin="bevel" points="2974.83,915.699 2974.83,1191.18" />
<polyline class="Stem" fill="none" stroke="#000000" stroke-width="8.27" stroke-linejoin="bevel" points="3653.36,915.699 3653.36,1191.18" />
<polyline class="Stem" fill="none" stroke="#000000" stroke-width="8.27" stroke-linejoin="bevel" points="4959,1039.71 4959,1273.86" />
<polyline class="Stem" fill="none" stroke="#000000" stroke-width="8.27" stroke-linejoin="bevel" points="8559.38,1783.81 8559.38,2059.29" />
<polyline class="Stem" fill="none" stroke="#000000" stroke-width="8.27" stroke-linejoin="bevel" points="5298.26,998.376 5298.26,1253.19" />
<polyline class="Stem" fill="none" stroke="#000000" stroke-width="8.27" stroke-linejoin="bevel" points="8223.26,1866.49 8223.26,2121.3" />
<polyline class="Stem" fill="none" stroke="#000000" stroke-width="8.27" stroke-linejoin="bevel" points="5637.52,957.037 5637.52,1232.52" />
<polyline class="Stem" fill="none" stroke="#000000" stroke-width="8.27" stroke-linejoin="bevel" points="7719.1,1866.49 7719.1,2121.3" />
<polyline class="Stem" fill="none" stroke="#000000" stroke-width="8.27" stroke-linejoin="bevel" points="2635.57,915.699 2635.57,1191.18" />
<polyline class="Stem" fill="none" stroke="#000000" stroke-width="8.27" stroke-linejoin="bevel" points="4619.74,998.376 4619.74,1253.19" />
<polyline class="Stem" fill="none" stroke="#000000" stroke-width="8.27" stroke-linejoin="bevel" points="6095.01,915.699 6095.01,1191.18" />
<polyline class="Stem" fill="none" stroke="#000000" stroke-width="8.27" stroke-linejoin="bevel" points="7264.76,1907.82 7264.76,2141.97" />
<polyline class="Stem" fill="none" stroke="#000000" stroke-width="8.27" stroke-linejoin="bevel" points="6703.11,1053.93 6703.11,798.462" />
<polyline class="Stem" fill="none" stroke="#000000" stroke-width="8.27" stroke-linejoin="bevel" points="6859.8,1922.05 6859.8,1666.57" />
<polyline class="Stem" fill="none" stroke="#000000" stroke-width="8.27" stroke-linejoin="bevel" points="7042.37,1053.93 7042.37,798.462" />
<polyline class="Stem" fill="none" stroke="#000000" stroke-width="8.27" stroke-linejoin="bevel" points="6523.69,1922.05 6523.69,1666.57" />
<polyline class="Stem" fill="none" stroke="#000000" stroke-width="8.27" stroke-linejoin="bevel" points="7452.05,1039.71 7452.05,1273.86" />
<polyline class="Stem" fill="none" stroke="#000000" stroke-width="8.27" stroke-linejoin="bevel" points="6019.53,2046.06 6019.53,1769.92" />
<polyline class="Stem" fill="none" stroke="#000000" stroke-width="8.27" stroke-linejoin="bevel" points="3314.1,874.36 3314.1,1149.84" />
<polyline class="Stem" fill="none" stroke="#000000" stroke-width="8.27" stroke-linejoin="bevel" points="5565.19,2046.06 5565.19,1769.92" />
<polyline class="Stem" fill="none" stroke="#000000" stroke-width="8.27" stroke-linejoin="bevel" points="7909.54,998.376 7909.54,1253.19" />
<polyline class="Stem" fill="none" stroke="#000000" stroke-width="8.27" stroke-linejoin="bevel" points="5061.02,2046.06 5061.02,1769.92" />
<polyline class="Stem" fill="none" stroke="#000000" stroke-width="8.27" stroke-linejoin="bevel" points="4724.91,1963.38 4724.91,1687.24" />
<polyline class="Stem" fill="none" stroke="#000000" stroke-width="8.27" stroke-linejoin="bevel" points="8554.65,915.699 8554.65,1191.18" />
<polyline class="Stem" fill="none" stroke="#000000" stroke-width="8.27" stroke-linejoin="bevel" points="4121.53,1907.82 4121.53,2141.97" />
<polyline class="Stem" fill="none" stroke="#000000" stroke-width="8.27" stroke-linejoin="bevel" points="2225.89,1053.93 2225.89,798.462" />
<polyline class="Stem" fill="none" stroke="#000000" stroke-width="8.27" stroke-linejoin="bevel" points="4110.85,957.037 4110.85,1232.52" />
<polyline class="Stem" fill="none" stroke="#000000" stroke-width="8.27" stroke-linejoin="bevel" points="1799.25,1053.93 1799.25,798.462" />
<polyline class="Stem" fill="none" stroke="#000000" stroke-width="8.27" stroke-linejoin="bevel" points="3667.19,1866.49 3667.19,2121.3" />
<polyline class="Stem" fill="none" stroke="#000000" stroke-width="8.27" stroke-linejoin="bevel" points="3331.08,1907.82 3331.08,2141.97" />
<polyline class="Stem" fill="none" stroke="#000000" stroke-width="8.27" stroke-linejoin="bevel" points="1700.35,1783.81 1700.35,2059.29" />
<polyline class="Stem" fill="none" stroke="#000000" stroke-width="8.27" stroke-linejoin="bevel" points="3094.18,1922.05 3094.18,1666.57" />
<polyline class="Stem" fill="none" stroke="#000000" stroke-width="8.27" stroke-linejoin="bevel" points="2658.86,1907.82 2658.86,2141.97" />
<polyline class="Stem" fill="none" stroke="#000000" stroke-width="8.27" stroke-linejoin="bevel" points="2154.69,1866.49 2154.69,2121.3" />
<path class="Note" d="M4615.6,998.388 C4615.6,1012.62 4625.86,1028.51 4652.68,1028.51 C4687.1,1028.51 4723.18,1000.37 4723.18,971.246 C4723.18,951.717 4706.63,940.794 4686.11,940.794 C4654,940.794 4615.6,967.936 4615.6,998.388"/>
<path class="Note" d="M7739.79,1881.06 C7728.87,1881.06 7726.55,1872.13 7726.55,1869.15 C7726.55,1852.93 7782.16,1824.46 7797.71,1824.46 C7805.66,1824.46 7810.95,1829.1 7810.95,1836.38 C7810.95,1852.93 7755.01,1881.06 7739.79,1881.06 M7785.47,1808.9 C7753.36,1808.9 7714.96,1835.72 7714.96,1866.5 C7714.96,1880.73 7725.22,1896.62 7752.04,1896.62 C7786.46,1896.62 7822.54,1868.48 7822.54,1839.36 C7822.54,1819.83 7805.99,1808.9 7785.47,1808.9"/>
<path class="Note" d="M3649.22,915.711 C3649.22,929.944 3659.48,945.832 3686.29,945.832 C3720.72,945.832 3756.8,917.697 3756.8,888.569 C3756.8,869.04 3740.25,858.117 3719.73,858.117 C3687.62,858.117 3649.22,885.259 3649.22,915.711"/>
<path class="Note" d="M2654.72,1907.84 C2654.72,1922.07 2664.99,1937.96 2691.8,1937.96 C2726.22,1937.96 2762.3,1909.82 2762.3,1880.69 C2762.3,1861.17 2745.75,1850.24 2725.23,1850.24 C2693.12,1850.24 2654.72,1877.38 2654.72,1907.84"/>
<path class="Note" d="M1696.22,1783.82 C1696.22,1798.05 1706.48,1813.94 1733.29,1813.94 C1767.71,1813.94 1803.79,1785.81 1803.79,1756.68 C1803.79,1737.15 1787.24,1726.23 1766.72,1726.23 C1734.61,1726.23 1696.22,1753.37 1696.22,1783.82"/>
<path class="Note" d="M2990.84,1949.18 C2990.84,1963.41 3001.1,1979.3 3027.91,1979.3 C3062.33,1979.3 3098.41,1951.16 3098.41,1922.03 C3098.41,1902.5 3081.86,1891.58 3061.34,1891.58 C3029.23,1891.58 2990.84,1918.72 2990.84,1949.18"/>
<path class="Note" d="M2631.44,915.711 C2631.44,929.944 2641.7,945.832 2668.51,945.832 C2702.94,945.832 2739.01,917.697 2739.01,888.569 C2739.01,869.04 2722.46,858.117 2701.94,858.117 C2669.84,858.117 2631.44,885.259 2631.44,915.711"/>
<path class="Note" d="M3326.95,1907.84 C3326.95,1922.07 3337.21,1937.96 3364.02,1937.96 C3398.44,1937.96 3434.52,1909.82 3434.52,1880.69 C3434.52,1861.17 3417.97,1850.24 3397.45,1850.24 C3365.34,1850.24 3326.95,1877.38 3326.95,1907.84"/>
<path class="Note" d="M8580.07,1798.39 C8569.14,1798.39 8566.83,1789.45 8566.83,1786.47 C8566.83,1770.25 8622.43,1741.78 8637.99,1741.78 C8645.94,1741.78 8651.23,1746.42 8651.23,1753.7 C8651.23,1770.25 8595.29,1798.39 8580.07,1798.39 M8625.74,1726.23 C8593.64,1726.23 8555.24,1753.04 8555.24,1783.82 C8555.24,1798.05 8565.5,1813.94 8592.31,1813.94 C8626.74,1813.94 8662.82,1785.81 8662.82,1756.68 C8662.82,1737.15 8646.27,1726.23 8625.74,1726.23"/>
<path class="Note" d="M3663.06,1866.5 C3663.06,1880.73 3673.32,1896.62 3700.13,1896.62 C3734.55,1896.62 3770.63,1868.48 3770.63,1839.36 C3770.63,1819.83 3754.08,1808.9 3733.56,1808.9 C3701.45,1808.9 3663.06,1836.05 3663.06,1866.5"/>
<path class="Note" d="M4954.86,1039.73 C4954.86,1053.96 4965.13,1069.85 4991.94,1069.85 C5026.36,1069.85 5062.44,1041.71 5062.44,1012.58 C5062.44,993.056 5045.89,982.133 5025.37,982.133 C4993.26,982.133 4954.86,1009.27 4954.86,1039.73"/>
<path class="Note" d="M3309.96,874.372 C3309.96,888.605 3320.22,904.493 3347.03,904.493 C3381.46,904.493 3417.54,876.358 3417.54,847.23 C3417.54,827.701 3400.99,816.778 3380.46,816.778 C3348.36,816.778 3309.96,843.92 3309.96,874.372"/>
<path class="Note" d="M8575.34,930.275 C8564.42,930.275 8562.1,921.338 8562.1,918.359 C8562.1,902.14 8617.71,873.674 8633.27,873.674 C8641.21,873.674 8646.51,878.308 8646.51,885.59 C8646.51,902.14 8590.57,930.275 8575.34,930.275 M8621.02,858.117 C8588.91,858.117 8550.52,884.928 8550.52,915.711 C8550.52,929.944 8560.78,945.832 8587.59,945.832 C8622.01,945.832 8658.09,917.697 8658.09,888.569 C8658.09,869.04 8641.54,858.117 8621.02,858.117"/>
<path class="Note" d="M4142.22,1922.4 C4131.3,1922.4 4128.98,1913.46 4128.98,1910.48 C4128.98,1894.27 4184.59,1865.8 4200.15,1865.8 C4208.09,1865.8 4213.39,1870.43 4213.39,1877.72 C4213.39,1894.27 4157.45,1922.4 4142.22,1922.4 M4187.9,1850.24 C4155.79,1850.24 4117.4,1877.05 4117.4,1907.84 C4117.4,1922.07 4127.66,1937.96 4154.47,1937.96 C4188.89,1937.96 4224.97,1909.82 4224.97,1880.69 C4224.97,1861.17 4208.42,1850.24 4187.9,1850.24"/>
<path class="Note" d="M8219.13,1866.5 C8219.13,1880.73 8229.39,1896.62 8256.2,1896.62 C8290.63,1896.62 8326.71,1868.48 8326.71,1839.36 C8326.71,1819.83 8310.16,1808.9 8289.63,1808.9 C8257.53,1808.9 8219.13,1836.05 8219.13,1866.5"/>
<path class="Note" d="M4621.56,1990.51 C4621.56,2004.75 4631.82,2020.64 4658.64,2020.64 C4693.06,2020.64 4729.14,1992.5 4729.14,1963.37 C4729.14,1943.84 4712.59,1932.92 4692.07,1932.92 C4659.96,1932.92 4621.56,1960.06 4621.56,1990.51"/>
<path class="Note" d="M7930.23,1012.95 C7919.31,1012.95 7916.99,1004.02 7916.99,1001.04 C7916.99,984.817 7972.6,956.351 7988.16,956.351 C7996.1,956.351 8001.4,960.985 8001.4,968.267 C8001.4,984.817 7945.46,1012.95 7930.23,1012.95 M7975.91,940.794 C7943.81,940.794 7905.41,967.605 7905.41,998.388 C7905.41,1012.62 7915.67,1028.51 7942.48,1028.51 C7976.91,1028.51 8012.98,1000.37 8012.98,971.246 C8012.98,951.717 7996.43,940.794 7975.91,940.794"/>
<path class="Note" d="M4982.5,2087.76 C4971.58,2087.76 4969.26,2078.82 4969.26,2075.84 C4969.26,2059.62 5024.87,2031.15 5040.42,2031.15 C5048.37,2031.15 5053.66,2035.79 5053.66,2043.07 C5053.66,2059.62 4997.73,2087.76 4982.5,2087.76 M5028.18,2015.6 C4996.07,2015.6 4957.67,2042.41 4957.67,2073.19 C4957.67,2087.42 4967.94,2103.31 4994.75,2103.31 C5029.17,2103.31 5065.25,2075.18 5065.25,2046.05 C5065.25,2026.52 5048.7,2015.6 5028.18,2015.6"/>
<path class="Note" d="M4131.54,971.613 C4120.61,971.613 4118.3,962.676 4118.3,959.697 C4118.3,943.478 4173.91,915.012 4189.46,915.012 C4197.41,915.012 4202.7,919.646 4202.7,926.928 C4202.7,943.478 4146.76,971.613 4131.54,971.613 M4177.22,899.455 C4145.11,899.455 4106.71,926.266 4106.71,957.049 C4106.71,971.282 4116.97,987.17 4143.78,987.17 C4178.21,987.17 4214.29,959.035 4214.29,929.907 C4214.29,910.378 4197.74,899.455 4177.22,899.455"/>
<path class="Note" d="M5461.84,2073.19 C5461.84,2087.42 5472.1,2103.31 5498.91,2103.31 C5533.34,2103.31 5569.42,2075.18 5569.42,2046.05 C5569.42,2026.52 5552.87,2015.6 5532.34,2015.6 C5500.24,2015.6 5461.84,2042.74 5461.84,2073.19"/>
<path class="Note" d="M2175.38,1881.06 C2164.46,1881.06 2162.14,1872.13 2162.14,1869.15 C2162.14,1852.93 2217.75,1824.46 2233.31,1824.46 C2241.25,1824.46 2246.55,1829.1 2246.55,1836.38 C2246.55,1852.93 2190.61,1881.06 2175.38,1881.06 M2221.06,1808.9 C2188.95,1808.9 2150.56,1835.72 2150.56,1866.5 C2150.56,1880.73 2160.82,1896.62 2187.63,1896.62 C2222.05,1896.62 2258.13,1868.48 2258.13,1839.36 C2258.13,1819.83 2241.58,1808.9 2221.06,1808.9"/>
<path class="Note" d="M2147.37,1095.63 C2136.45,1095.63 2134.13,1086.69 2134.13,1083.71 C2134.13,1067.49 2189.74,1039.03 2205.3,1039.03 C2213.24,1039.03 2218.54,1043.66 2218.54,1050.94 C2218.54,1067.49 2162.6,1095.63 2147.37,1095.63 M2193.05,1023.47 C2160.94,1023.47 2122.55,1050.28 2122.55,1081.07 C2122.55,1095.3 2132.81,1111.19 2159.62,1111.19 C2194.04,1111.19 2230.12,1083.05 2230.12,1053.92 C2230.12,1034.39 2213.57,1023.47 2193.05,1023.47"/>
<path class="Note" d="M7447.92,1039.73 C7447.92,1053.96 7458.18,1069.85 7484.99,1069.85 C7519.42,1069.85 7555.49,1041.71 7555.49,1012.58 C7555.49,993.056 7538.94,982.133 7518.42,982.133 C7486.32,982.133 7447.92,1009.27 7447.92,1039.73"/>
<path class="Note" d="M5941.01,2087.76 C5930.08,2087.76 5927.77,2078.82 5927.77,2075.84 C5927.77,2059.62 5983.37,2031.15 5998.93,2031.15 C6006.87,2031.15 6012.17,2035.79 6012.17,2043.07 C6012.17,2059.62 5956.23,2087.76 5941.01,2087.76 M5986.68,2015.6 C5954.58,2015.6 5916.18,2042.41 5916.18,2073.19 C5916.18,2087.42 5926.44,2103.31 5953.25,2103.31 C5987.68,2103.31 6023.76,2075.18 6023.76,2046.05 C6023.76,2026.52 6007.21,2015.6 5986.68,2015.6"/>
<path class="Note" d="M6963.85,1095.63 C6952.93,1095.63 6950.61,1086.69 6950.61,1083.71 C6950.61,1067.49 7006.22,1039.03 7021.78,1039.03 C7029.72,1039.03 7035.02,1043.66 7035.02,1050.94 C7035.02,1067.49 6979.08,1095.63 6963.85,1095.63 M7009.53,1023.47 C6977.42,1023.47 6939.03,1050.28 6939.03,1081.07 C6939.03,1095.3 6949.29,1111.19 6976.1,1111.19 C7010.52,1111.19 7046.6,1083.05 7046.6,1053.92 C7046.6,1034.39 7030.05,1023.47 7009.53,1023.47"/>
<path class="Note" d="M6420.35,1949.18 C6420.35,1963.41 6430.61,1979.3 6457.42,1979.3 C6491.84,1979.3 6527.92,1951.16 6527.92,1922.03 C6527.92,1902.5 6511.37,1891.58 6490.85,1891.58 C6458.74,1891.58 6420.35,1918.72 6420.35,1949.18"/>
<path class="Note" d="M6599.77,1081.07 C6599.77,1095.3 6610.03,1111.19 6636.84,1111.19 C6671.26,1111.19 6707.34,1083.05 6707.34,1053.92 C6707.34,1034.39 6690.79,1023.47 6670.27,1023.47 C6638.16,1023.47 6599.77,1050.61 6599.77,1081.07"/>
<path class="Note" d="M6781.28,1963.74 C6770.36,1963.74 6768.04,1954.8 6768.04,1951.82 C6768.04,1935.6 6823.65,1907.14 6839.21,1907.14 C6847.15,1907.14 6852.45,1911.77 6852.45,1919.05 C6852.45,1935.6 6796.51,1963.74 6781.28,1963.74 M6826.96,1891.58 C6794.85,1891.58 6756.46,1918.39 6756.46,1949.18 C6756.46,1963.41 6766.72,1979.3 6793.53,1979.3 C6827.95,1979.3 6864.03,1951.16 6864.03,1922.03 C6864.03,1902.5 6847.48,1891.58 6826.96,1891.58"/>
<path class="Note" d="M6115.7,930.275 C6104.78,930.275 6102.46,921.338 6102.46,918.359 C6102.46,902.14 6158.07,873.674 6173.63,873.674 C6181.57,873.674 6186.87,878.308 6186.87,885.59 C6186.87,902.14 6130.93,930.275 6115.7,930.275 M6161.38,858.117 C6129.27,858.117 6090.88,884.928 6090.88,915.711 C6090.88,929.944 6101.14,945.832 6127.95,945.832 C6162.37,945.832 6198.45,917.697 6198.45,888.569 C6198.45,869.04 6181.9,858.117 6161.38,858.117"/>
<path class="Note" d="M7260.62,1907.84 C7260.62,1922.07 7270.89,1937.96 7297.7,1937.96 C7332.12,1937.96 7368.2,1909.82 7368.2,1880.69 C7368.2,1861.17 7351.65,1850.24 7331.13,1850.24 C7299.02,1850.24 7260.62,1877.38 7260.62,1907.84"/>
<path class="Note" d="M5294.13,998.388 C5294.13,1012.62 5304.39,1028.51 5331.2,1028.51 C5365.62,1028.51 5401.7,1000.37 5401.7,971.246 C5401.7,951.717 5385.15,940.794 5364.63,940.794 C5332.52,940.794 5294.13,967.936 5294.13,998.388"/>
<path class="Note" d="M2970.7,915.711 C2970.7,929.944 2980.96,945.832 3007.77,945.832 C3042.2,945.832 3078.28,917.697 3078.28,888.569 C3078.28,869.04 3061.73,858.117 3041.2,858.117 C3009.1,858.117 2970.7,885.259 2970.7,915.711"/>
<path class="Note" d="M5633.39,957.049 C5633.39,971.282 5643.65,987.17 5670.46,987.17 C5704.88,987.17 5740.96,959.035 5740.96,929.907 C5740.96,910.378 5724.41,899.455 5703.89,899.455 C5671.78,899.455 5633.39,926.597 5633.39,957.049"/>
<path class="Note" d="M1695.9,1081.07 C1695.9,1095.3 1706.16,1111.19 1732.97,1111.19 C1767.4,1111.19 1803.48,1083.05 1803.48,1053.92 C1803.48,1034.39 1786.93,1023.47 1766.4,1023.47 C1734.3,1023.47 1695.9,1050.61 1695.9,1081.07"/>
<path class="Clef" d="M909.689,2044.8 C903.069,2046.12 896.78,2046.78 890.491,2046.78 C843.158,2046.78 802.776,2013.68 802.776,1963.7 C802.776,1923.32 831.242,1887.24 860.37,1862.09 C865.997,1857.12 871.293,1852.49 876.258,1847.52 C879.237,1865.4 881.554,1880.95 883.871,1894.52 C853.75,1903.46 833.228,1935.24 833.228,1966.35 C833.228,1989.52 851.433,2021.3 877.913,2021.3 C880.561,2021.3 883.54,2019.97 883.54,2016.99 C883.54,2014.02 880.23,2012.36 876.258,2009.71 C863.349,2001.77 856.067,1993.16 856.067,1976.94 C856.067,1956.75 870.962,1940.53 890.491,1935.9 L909.689,2044.8 M880.561,1704.53 C883.54,1691.29 898.766,1656.54 915.978,1656.54 C920.943,1656.54 928.887,1672.75 928.887,1695.59 C928.887,1730.02 903.4,1755.84 880.561,1778.34 C878.575,1765.1 876.92,1752.19 876.92,1738.29 C876.92,1726.05 877.913,1714.79 880.561,1704.53 M956.691,1983.56 C956.691,2007.06 947.092,2031.23 923.591,2040.83 C916.64,2001.11 907.703,1948.48 905.386,1933.91 C935.176,1933.91 956.691,1954.1 956.691,1983.56 M811.051,2146.42 C811.051,2168.26 827.932,2197.06 872.617,2197.06 C888.174,2197.06 901.745,2193.09 913.661,2185.8 C931.535,2173.23 936.169,2151.38 936.169,2130.53 C936.169,2117.62 934.183,2102.72 930.873,2083.86 C929.88,2077.24 927.894,2067.31 925.908,2054.4 C958.346,2043.81 982.509,2010.04 982.509,1975.95 C982.509,1925.97 947.092,1892.21 898.766,1892.21 C895.456,1872.35 892.146,1852.82 889.167,1834.28 C924.253,1797.54 948.416,1756.17 948.416,1703.54 C948.416,1673.42 939.148,1648.92 933.852,1637.01 C925.908,1620.13 916.309,1608.54 910.351,1608.54 C908.034,1608.54 897.773,1612.51 886.85,1625.42 C865.666,1650.58 859.708,1692.95 859.708,1720.75 C859.708,1738.62 861.363,1754.84 866.99,1791.91 C866.659,1792.25 849.447,1809.79 842.496,1815.42 C812.375,1843.55 770.669,1883.6 770.669,1949.8 C770.669,2011.7 824.622,2060.36 886.188,2060.36 C895.787,2060.36 904.724,2059.36 912.337,2058.04 C918.626,2089.81 922.267,2112.98 922.267,2130.53 C922.267,2164.95 904.724,2183.16 871.293,2183.16 C863.349,2183.16 856.398,2181.5 855.736,2181.5 C855.405,2181.17 854.743,2180.84 854.743,2180.51 C854.743,2179.85 855.405,2179.52 856.398,2179.18 C871.955,2176.87 887.512,2163.63 887.512,2142.44 C887.512,2124.57 873.941,2105.7 849.116,2105.7 C825.946,2105.7 811.051,2124.57 811.051,2146.42"/>
<path class="Clef" d="M909.689,1176.69 C903.069,1178.01 896.78,1178.67 890.491,1178.67 C843.158,1178.67 802.776,1145.57 802.776,1095.59 C802.776,1055.21 831.242,1019.13 860.37,993.976 C865.997,989.011 871.293,984.377 876.258,979.412 C879.237,997.286 881.554,1012.84 883.871,1026.41 C853.75,1035.35 833.228,1067.13 833.228,1098.24 C833.228,1121.41 851.433,1153.19 877.913,1153.19 C880.561,1153.19 883.54,1151.86 883.54,1148.88 C883.54,1145.9 880.23,1144.25 876.258,1141.6 C863.349,1133.66 856.067,1125.05 856.067,1108.83 C856.067,1088.64 870.962,1072.42 890.491,1067.79 L909.689,1176.69 M880.561,836.42 C883.54,823.18 898.766,788.425 915.978,788.425 C920.943,788.425 928.887,804.644 928.887,827.483 C928.887,861.907 903.4,887.725 880.561,910.233 C878.575,896.993 876.92,884.084 876.92,870.182 C876.92,857.935 877.913,846.681 880.561,836.42 M956.691,1115.45 C956.691,1138.95 947.092,1163.12 923.591,1172.72 C916.64,1133 907.703,1080.37 905.386,1065.8 C935.176,1065.8 956.691,1085.99 956.691,1115.45 M811.051,1278.3 C811.051,1300.15 827.932,1328.95 872.617,1328.95 C888.174,1328.95 901.745,1324.98 913.661,1317.69 C931.535,1305.12 936.169,1283.27 936.169,1262.42 C936.169,1249.51 934.183,1234.61 930.873,1215.75 C929.88,1209.13 927.894,1199.2 925.908,1186.29 C958.346,1175.69 982.509,1141.93 982.509,1107.84 C982.509,1057.86 947.092,1024.1 898.766,1024.1 C895.456,1004.24 892.146,984.708 889.167,966.172 C924.253,929.431 948.416,888.056 948.416,835.427 C948.416,805.306 939.148,780.812 933.852,768.896 C925.908,752.015 916.309,740.43 910.351,740.43 C908.034,740.43 897.773,744.402 886.85,757.311 C865.666,782.467 859.708,824.835 859.708,852.639 C859.708,870.513 861.363,886.732 866.99,923.804 C866.659,924.135 849.447,941.678 842.496,947.305 C812.375,975.44 770.669,1015.49 770.669,1081.69 C770.669,1143.59 824.622,1192.24 886.188,1192.24 C895.787,1192.24 904.724,1191.25 912.337,1189.93 C918.626,1221.7 922.267,1244.87 922.267,1262.42 C922.267,1296.84 904.724,1315.05 871.293,1315.05 C863.349,1315.05 856.398,1313.39 855.736,1313.39 C855.405,1313.06 854.743,1312.73 854.743,1312.4 C854.743,1311.74 855.405,1311.4 856.398,1311.07 C871.955,1308.76 887.512,1295.52 887.512,1274.33 C887.512,1256.46 873.941,1237.59 849.116,1237.59 C825.946,1237.59 811.051,1256.46 811.051,1278.3"/>
<path class="KeySig" d="M1070.17,835.976 L1099.63,830.018 L1099.63,884.633 L1070.17,890.922 L1070.17,835.976 M1121.48,825.715 C1123.47,825.384 1125.12,823.067 1125.12,821.081 L1125.12,801.552 C1125.12,798.904 1123.13,796.918 1120.49,796.918 L1119.82,796.918 L1108.9,799.235 L1108.9,749.916 L1099.63,749.916 L1099.63,801.221 L1070.17,807.179 L1070.17,760.508 L1060.91,760.508 L1060.91,809.165 L1048,811.813 C1046.01,812.144 1044.36,814.461 1044.36,816.447 L1044.36,835.645 C1044.36,838.293 1046.34,840.279 1048.99,840.279 L1049.98,840.279 L1060.91,837.962 L1060.91,892.577 L1048,895.225 C1046.01,895.556 1044.36,897.873 1044.36,899.859 L1044.36,919.057 C1044.36,921.705 1046.34,923.691 1048.99,923.691 L1049.98,923.691 L1060.91,921.374 L1060.91,970.693 L1070.17,970.693 L1070.17,919.388 L1099.63,913.43 L1099.63,960.101 L1108.9,960.101 L1108.9,911.444 L1121.48,909.127 C1123.47,908.796 1125.12,906.479 1125.12,904.493 L1125.12,884.964 C1125.12,882.316 1123.13,880.33 1120.49,880.33 L1119.82,880.33 L1108.9,882.647 L1108.9,828.032 L1121.48,825.715 "/>
<path class="KeySig" d="M1160.78,959.992 L1190.24,954.034 L1190.24,1008.65 L1160.78,1014.94 L1160.78,959.992 M1212.09,949.731 C1214.08,949.4 1215.73,947.083 1215.73,945.097 L1215.73,925.568 C1215.73,922.92 1213.74,920.934 1211.1,920.934 L1210.43,920.934 L1199.51,923.251 L1199.51,873.932 L1190.24,873.932 L1190.24,925.237 L1160.78,931.195 L1160.78,884.524 L1151.52,884.524 L1151.52,933.181 L1138.61,935.829 C1136.62,936.16 1134.97,938.477 1134.97,940.463 L1134.97,959.661 C1134.97,962.309 1136.95,964.295 1139.6,964.295 L1140.59,964.295 L1151.52,961.978 L1151.52,1016.59 L1138.61,1019.24 C1136.62,1019.57 1134.97,1021.89 1134.97,1023.88 L1134.97,1043.07 C1134.97,1045.72 1136.95,1047.71 1139.6,1047.71 L1140.59,1047.71 L1151.52,1045.39 L1151.52,1094.71 L1160.78,1094.71 L1160.78,1043.4 L1190.24,1037.45 L1190.24,1084.12 L1199.51,1084.12 L1199.51,1035.46 L1212.09,1033.14 C1214.08,1032.81 1215.73,1030.5 1215.73,1028.51 L1215.73,1008.98 C1215.73,1006.33 1213.74,1004.35 1211.1,1004.35 L1210.43,1004.35 L1199.51,1006.66 L1199.51,952.048 L1212.09,949.731 "/>
<path class="KeySig" d="M1251.41,794.638 L1280.87,788.68 L1280.87,843.295 L1251.41,849.584 L1251.41,794.638 M1302.71,784.377 C1304.7,784.046 1306.36,781.729 1306.36,779.743 L1306.36,760.214 C1306.36,757.566 1304.37,755.58 1301.72,755.58 L1301.06,755.58 L1290.14,757.897 L1290.14,708.578 L1280.87,708.578 L1280.87,759.883 L1251.41,765.841 L1251.41,719.17 L1242.14,719.17 L1242.14,767.827 L1229.23,770.475 C1227.25,770.806 1225.59,773.123 1225.59,775.109 L1225.59,794.307 C1225.59,796.955 1227.58,798.941 1230.23,798.941 L1231.22,798.941 L1242.14,796.624 L1242.14,851.239 L1229.23,853.887 C1227.25,854.218 1225.59,856.535 1225.59,858.521 L1225.59,877.719 C1225.59,880.367 1227.58,882.353 1230.23,882.353 L1231.22,882.353 L1242.14,880.036 L1242.14,929.355 L1251.41,929.355 L1251.41,878.05 L1280.87,872.092 L1280.87,918.763 L1290.14,918.763 L1290.14,870.106 L1302.71,867.789 C1304.7,867.458 1306.36,865.141 1306.36,863.155 L1306.36,843.626 C1306.36,840.978 1304.37,838.992 1301.72,838.992 L1301.06,838.992 L1290.14,841.309 L1290.14,786.694 L1302.71,784.377 "/>
<path class="KeySig" d="M1070.17,1704.09 L1099.63,1698.13 L1099.63,1752.74 L1070.17,1759.03 L1070.17,1704.09 M1121.48,1693.83 C1123.47,1693.49 1125.12,1691.18 1125.12,1689.19 L1125.12,1669.66 C1125.12,1667.01 1123.13,1665.03 1120.49,1665.03 L1119.82,1665.03 L1108.9,1667.35 L1108.9,1618.03 L1099.63,1618.03 L1099.63,1669.33 L1070.17,1675.29 L1070.17,1628.62 L1060.91,1628.62 L1060.91,1677.28 L1048,1679.92 C1046.01,1680.25 1044.36,1682.57 1044.36,1684.56 L1044.36,1703.76 C1044.36,1706.4 1046.34,1708.39 1048.99,1708.39 L1049.98,1708.39 L1060.91,1706.07 L1060.91,1760.69 L1048,1763.34 C1046.01,1763.67 1044.36,1765.98 1044.36,1767.97 L1044.36,1787.17 C1044.36,1789.82 1046.34,1791.8 1048.99,1791.8 L1049.98,1791.8 L1060.91,1789.48 L1060.91,1838.8 L1070.17,1838.8 L1070.17,1787.5 L1099.63,1781.54 L1099.63,1828.21 L1108.9,1828.21 L1108.9,1779.55 L1121.48,1777.24 C1123.47,1776.91 1125.12,1774.59 1125.12,1772.6 L1125.12,1753.07 C1125.12,1750.43 1123.13,1748.44 1120.49,1748.44 L1119.82,1748.44 L1108.9,1750.76 L1108.9,1696.14 L1121.48,1693.83 "/>
<path class="KeySig" d="M1160.78,1828.1 L1190.24,1822.14 L1190.24,1876.76 L1160.78,1883.05 L1160.78,1828.1 M1212.09,1817.84 C1214.08,1817.51 1215.73,1815.19 1215.73,1813.21 L1215.73,1793.68 C1215.73,1791.03 1213.74,1789.04 1211.1,1789.04 L1210.43,1789.04 L1199.51,1791.36 L1199.51,1742.04 L1190.24,1742.04 L1190.24,1793.35 L1160.78,1799.31 L1160.78,1752.63 L1151.52,1752.63 L1151.52,1801.29 L1138.61,1803.94 C1136.62,1804.27 1134.97,1806.59 1134.97,1808.57 L1134.97,1827.77 C1134.97,1830.42 1136.95,1832.41 1139.6,1832.41 L1140.59,1832.41 L1151.52,1830.09 L1151.52,1884.7 L1138.61,1887.35 C1136.62,1887.68 1134.97,1890 1134.97,1891.99 L1134.97,1911.18 C1134.97,1913.83 1136.95,1915.82 1139.6,1915.82 L1140.59,1915.82 L1151.52,1913.5 L1151.52,1962.82 L1160.78,1962.82 L1160.78,1911.51 L1190.24,1905.56 L1190.24,1952.23 L1199.51,1952.23 L1199.51,1903.57 L1212.09,1901.25 C1214.08,1900.92 1215.73,1898.61 1215.73,1896.62 L1215.73,1877.09 C1215.73,1874.44 1213.74,1872.46 1211.1,1872.46 L1210.43,1872.46 L1199.51,1874.77 L1199.51,1820.16 L1212.09,1817.84 "/>
<path class="KeySig" d="M1251.41,1662.75 L1280.87,1656.79 L1280.87,1711.4 L1251.41,1717.69 L1251.41,1662.75 M1302.71,1652.49 C1304.7,1652.16 1306.36,1649.84 1306.36,1647.85 L1306.36,1628.32 C1306.36,1625.68 1304.37,1623.69 1301.72,1623.69 L1301.06,1623.69 L1290.14,1626.01 L1290.14,1576.69 L1280.87,1576.69 L1280.87,1627.99 L1251.41,1633.95 L1251.41,1587.28 L1242.14,1587.28 L1242.14,1635.94 L1229.23,1638.58 C1227.25,1638.92 1225.59,1641.23 1225.59,1643.22 L1225.59,1662.42 C1225.59,1665.06 1227.58,1667.05 1230.23,1667.05 L1231.22,1667.05 L1242.14,1664.73 L1242.14,1719.35 L1229.23,1722 C1227.25,1722.33 1225.59,1724.64 1225.59,1726.63 L1225.59,1745.83 C1225.59,1748.48 1227.58,1750.46 1230.23,1750.46 L1231.22,1750.46 L1242.14,1748.15 L1242.14,1797.46 L1251.41,1797.46 L1251.41,1746.16 L1280.87,1740.2 L1280.87,1786.87 L1290.14,1786.87 L1290.14,1738.22 L1302.71,1735.9 C1304.7,1735.57 1306.36,1733.25 1306.36,1731.26 L1306.36,1711.74 C1306.36,1709.09 1304.37,1707.1 1301.72,1707.1 L1301.06,1707.1 L1290.14,1709.42 L1290.14,1654.8 L1302.71,1652.49 "/>
<path class="TimeSig" d="M1463.12,1011.82 C1452.19,1011.82 1443.26,996.923 1443.26,978.387 C1443.26,959.851 1452.19,944.625 1463.12,944.625 C1474.04,944.625 1483.31,959.851 1483.31,978.387 C1483.31,996.923 1474.04,1011.82 1463.12,1011.82 M1475.36,929.068 C1455.17,929.068 1447.89,935.026 1443.26,939.991 C1442.26,933.04 1441.6,927.744 1441.6,922.448 C1441.6,903.581 1448.22,879.087 1471.39,879.087 C1479.67,879.087 1484.63,881.735 1487.94,885.376 C1480.99,888.355 1475.36,897.292 1475.36,904.905 C1475.36,916.821 1484.63,926.089 1496.55,926.089 C1508.46,926.089 1518.06,916.821 1518.06,904.905 L1518.06,903.912 C1518.06,900.933 1517.4,895.968 1516.08,893.32 C1511.77,881.404 1497.87,863.861 1464.77,863.861 C1434.98,863.861 1413.47,892.327 1406.85,907.553 C1403.54,915.497 1398.57,931.716 1398.57,950.252 C1398.57,970.443 1404.2,993.282 1423.73,1010.49 C1442.92,1025.06 1455.17,1025.72 1466.76,1025.72 C1478.34,1025.72 1521.7,1012.15 1521.7,973.753 C1521.7,941.315 1496.22,929.068 1475.36,929.068"/>
<path class="TimeSig" d="M1453.2,1150.05 L1453.2,1174.55 L1425.73,1174.55 C1423.41,1174.55 1421.1,1176.53 1421.1,1179.18 L1421.1,1185.47 C1421.1,1188.12 1423.41,1190.1 1425.73,1190.1 L1526.02,1190.1 C1528.67,1190.1 1530.66,1188.12 1530.66,1185.47 L1530.66,1179.18 C1530.66,1176.53 1528.67,1174.55 1526.02,1174.55 L1496.23,1174.55 L1496.23,1150.05 L1526.02,1150.05 C1528.67,1150.05 1530.66,1147.74 1530.66,1145.09 L1530.66,1138.8 C1530.66,1136.48 1528.67,1134.16 1526.02,1134.16 L1496.23,1134.16 L1496.23,1081.54 C1496.23,1079.55 1495.24,1077.89 1493.92,1077.23 L1489.94,1075.25 C1489.28,1074.92 1488.95,1074.92 1488.29,1074.92 C1486.97,1074.92 1485.64,1074.92 1484.65,1075.91 L1454.53,1103.38 C1453.53,1104.37 1453.2,1105.7 1453.2,1107.02 L1453.2,1134.16 L1414.81,1134.16 C1414.81,1134.16 1451.88,1094.44 1490.94,1042.15 C1492.26,1040.49 1492.59,1038.84 1492.59,1037.51 C1492.59,1035.86 1491.93,1034.53 1491.6,1034.2 L1484.32,1026.92 C1483.32,1026.26 1482.33,1025.6 1481.01,1025.6 C1479.02,1025.6 1434.34,1025.6 1431.69,1025.6 C1429.37,1025.6 1427.72,1027.58 1427.39,1029.57 C1427.39,1029.57 1425.73,1054.06 1417.12,1080.87 C1408.52,1107.68 1398.59,1124.23 1389.98,1136.48 C1389.98,1136.48 1388.99,1138.14 1388.99,1140.12 C1388.99,1140.78 1388.99,1141.45 1389.32,1142.11 C1390.31,1144.43 1392.63,1148.07 1392.63,1148.07 C1392.63,1148.07 1393.29,1150.05 1396.27,1150.05 L1453.2,1150.05 "/>
<path class="NoteDot" d="M8054.24,984.486 C8054.24,993.754 8061.52,1001.04 8070.79,1001.04 C8080.06,1001.04 8087.34,993.754 8087.34,984.486 C8087.34,975.218 8080.06,967.936 8070.79,967.936 C8061.52,967.936 8054.24,975.218 8054.24,984.486"/>
</svg>
