<?xml version="1.0" encoding="utf-8"?>
<svg xmlns="http://www.w3.org/2000/svg" xmlns:svg="http://www.w3.org/2000/svg" version="1.1" viewBox="0 0 681 138">
	<title>The musical score for Air XXX</title>
	<path d="M71.92 95.679c0 .742.582 1.325 1.324 1.325s1.325-.583 1.325-1.325-.582-1.325-1.325-1.325c-.742 0-1.324.583-1.324 1.325m394.476-62.877c0 .742.582 1.325 1.325 1.325.742 0 1.324-.583 1.324-1.325s-.582-1.325-1.324-1.325-1.325.583-1.325 1.325M115.46 77.277l-2.446-6.203a1.6 1.6 0 0 1-.107-.414c0-.241.228-.335.829-.335h.535v-.628H110.1v.628h.267c.615.013.815.16 1.03.75l3.382 8.475h.535l3.075-7.915c.4-1.043.681-1.283 1.457-1.31h.133v-.628h-3.623v.628h.255c.681 0 1.082.267 1.082.696 0 .187-.066.48-.16.748zm6.43-7.487a.776.776 0 0 0-.013 1.552.78.78 0 0 0 .788-.776.776.776 0 0 0-.775-.776m.629 3.33-2.514.146v.576h.682c.508.012.575.093.575.668v3.824c-.014.2-.027.28-.08.347-.094.12-.348.174-.923.187h-.094v.481h3.463v-.48h-.093c-.896-.028-1.016-.094-1.016-.575zm4.825-.201c-1.645 0-2.914 1.457-2.914 3.33 0 1.83 1.283 3.3 2.887 3.3s2.888-1.47 2.888-3.314c0-1.832-1.284-3.316-2.861-3.316m0 .574c.935 0 1.457.976 1.457 2.742 0 1.778-.522 2.74-1.484 2.74-.963 0-1.484-.962-1.484-2.727 0-1.819.508-2.755 1.51-2.755M536.57.12h-.494l-.535.802C534.899.321 534.056 0 533.107 0c-1.765 0-2.929 1.11-2.929 2.794 0 1.457.723 2.18 2.688 2.687l1.27.321c.99.254 1.083.281 1.364.495.4.307.615.749.615 1.27 0 .535-.2.976-.602 1.35-.44.375-.882.522-1.618.522-2.019 0-3.02-1.484-3.368-3.29h-.575l.053 3.811h.522l.6-.91c.897.736 1.632 1.004 2.808 1.004 1.966 0 3.223-1.15 3.223-2.942 0-.842-.268-1.537-.803-2.045-.36-.348-.882-.575-1.951-.842l-1.43-.361c-1.191-.308-1.752-.83-1.752-1.645 0-.936.762-1.577 1.898-1.577 1.725 0 2.674 1.43 3.035 2.954h.574zm4.626 3.303c-1.645 0-2.915 1.457-2.915 3.328 0 1.832 1.283 3.303 2.888 3.303s2.888-1.471 2.888-3.316c0-1.832-1.284-3.315-2.861-3.315m0 .574c.936 0 1.457.976 1.457 2.741 0 1.778-.521 2.74-1.484 2.74s-1.484-.962-1.484-2.727c0-1.818.508-2.754 1.51-2.754m5.99-.374-2.313.147v.575h.481c.508.013.576.094.576.668v3.824c-.014.2-.028.28-.081.348-.094.12-.348.173-.922.187h-.054v.481h3.382v-.481h-.052c-.896-.027-1.017-.094-1.017-.575V6.818c0-.655.094-1.256.24-1.564.282-.602.883-1.016 1.458-1.016.347 0 .748.187.95.468.2.294.293.695.293 1.337v2.794c-.013.2-.026.28-.08.348-.094.12-.361.173-.936.187h-.053v.481h3.382v-.481h-.053c-.883-.027-1.003-.094-1.003-.575V6.11c0-.963-.04-1.204-.281-1.658-.334-.642-1.002-1.03-1.804-1.03-.87 0-1.525.402-2.113 1.284zm8.075 5.24c-.736-.013-.776-.026-.936-.12-.093-.053-.16-.2-.16-.347 0-.401.36-.575 1.256-.602 1.257-.027 1.457-.053 1.912-.254.802-.36 1.243-1.056 1.243-1.938 0-.535-.12-.87-.481-1.31.227-.241.347-.321.455-.321.066 0 .106.04.133.187.054.32.268.494.602.494.348 0 .602-.28.602-.641 0-.455-.361-.776-.883-.776-.428 0-.668.134-1.284.696-.56-.375-.988-.508-1.657-.508-1.591 0-2.634.882-2.634 2.219a1.95 1.95 0 0 0 1.124 1.791c-.896.2-1.27.602-1.27 1.337 0 .588.267.936.895 1.15-.829.307-1.23.722-1.23 1.27 0 .401.268.775.695 1.003.521.267 1.163.374 2.126.374 2.232 0 3.342-.709 3.342-2.112 0-.669-.308-1.204-.789-1.404-.36-.134-.788-.187-1.698-.187zm.789-4.867c.828 0 1.297.575 1.297 1.618s-.509 1.671-1.351 1.671c-.829 0-1.35-.628-1.35-1.63 0-1.057.508-1.659 1.404-1.659m-.12 6.016c1.11 0 1.19 0 1.376.027.548.054.87.348.87.776 0 .762-.87 1.203-2.354 1.203-1.136 0-1.764-.334-1.764-.936 0-.441.24-.735.882-1.07zM308.765 69.616h-.494l-.535.803c-.641-.602-1.483-.923-2.433-.923-1.765 0-2.927 1.11-2.927 2.794 0 1.458.72 2.18 2.686 2.688l1.27.32c.99.254 1.083.282 1.364.495.401.308.615.749.615 1.27 0 .535-.2.976-.601 1.35-.442.375-.883.522-1.618.522-2.02 0-3.022-1.484-3.369-3.289h-.575l.053 3.81h.522l.601-.909c.896.735 1.632 1.003 2.808 1.003 1.965 0 3.222-1.15 3.222-2.942 0-.842-.268-1.537-.802-2.045-.361-.347-.882-.575-1.952-.842l-1.43-.361c-1.19-.308-1.752-.829-1.752-1.645 0-.935.762-1.577 1.899-1.577 1.724 0 2.674 1.43 3.034 2.954h.575zm4.625 3.303c-1.644 0-2.915 1.457-2.915 3.33 0 1.83 1.284 3.3 2.888 3.3s2.888-1.47 2.888-3.314c0-1.832-1.284-3.316-2.86-3.316m0 .574c.935 0 1.456.976 1.456 2.742 0 1.778-.521 2.74-1.484 2.74-.962 0-1.484-.962-1.484-2.727 0-1.819.508-2.755 1.511-2.755m5.989-.373-2.313.146v.576h.482c.508.012.575.093.575.668v3.824c-.014.2-.027.28-.08.347-.094.12-.348.174-.923.187h-.054v.481h3.383v-.48h-.053c-.896-.028-1.017-.094-1.017-.575v-1.98c0-.654.094-1.256.241-1.564.281-.6.882-1.016 1.457-1.016.348 0 .75.188.95.468.2.295.293.696.293 1.337v2.795c-.013.2-.026.28-.08.347-.093.12-.36.174-.936.187h-.053v.481h3.383v-.48h-.054c-.882-.028-1.003-.094-1.003-.575v-2.688c0-.962-.04-1.203-.28-1.658-.335-.641-1.003-1.03-1.805-1.03-.869 0-1.524.402-2.113 1.284zm8.075 5.24c-.735-.014-.775-.026-.936-.12-.093-.054-.16-.201-.16-.348 0-.4.36-.574 1.256-.602 1.257-.026 1.457-.053 1.912-.253.802-.361 1.243-1.056 1.243-1.94 0-.534-.12-.868-.48-1.309.227-.24.347-.321.454-.321.066 0 .107.04.134.187.053.321.267.495.6.495.35 0 .603-.28.603-.642 0-.455-.361-.776-.882-.776-.429 0-.669.134-1.284.696-.562-.375-.99-.508-1.658-.508-1.591 0-2.633.882-2.633 2.219 0 .79.427 1.458 1.123 1.791-.896.201-1.27.602-1.27 1.337 0 .589.267.936.895 1.15-.828.308-1.23.722-1.23 1.27 0 .401.268.776.695 1.003.522.267 1.164.374 2.126.374 2.233 0 3.342-.708 3.342-2.112 0-.669-.307-1.204-.788-1.404-.361-.133-.789-.187-1.698-.187zm.789-4.867c.828 0 1.297.575 1.297 1.618s-.509 1.672-1.35 1.672c-.83 0-1.35-.629-1.35-1.632 0-1.056.507-1.658 1.403-1.658m-.12 6.017c1.11 0 1.19 0 1.377.027.548.053.868.347.868.775 0 .762-.868 1.203-2.353 1.203-1.135 0-1.764-.334-1.764-.936 0-.441.24-.735.882-1.07zM255.963 7.782l-2.446-6.203a1.6 1.6 0 0 1-.107-.415c0-.24.227-.334.829-.334h.534V.2h-4.17v.628h.267c.615.013.815.16 1.03.749l3.382 8.476h.534l3.075-7.915c.401-1.043.682-1.283 1.457-1.31h.134V.2h-3.623v.628h.254c.682 0 1.083.267 1.083.695 0 .187-.067.481-.16.749zm6.43-7.487a.776.776 0 0 0-.014 1.55.78.78 0 0 0 .789-.774.776.776 0 0 0-.775-.776m.628 3.329-2.513.147v.575h.682c.507.013.575.094.575.668v3.824c-.014.2-.028.28-.08.348-.094.12-.349.173-.924.187h-.093v.481h3.463v-.481h-.094c-.896-.027-1.016-.094-1.016-.575zm4.825-.2c-1.644 0-2.914 1.457-2.914 3.328 0 1.832 1.283 3.303 2.888 3.303s2.887-1.471 2.887-3.316c0-1.832-1.283-3.315-2.86-3.315m0 .574c.935 0 1.456.976 1.456 2.741 0 1.778-.521 2.74-1.483 2.74s-1.484-.962-1.484-2.727c0-1.818.508-2.754 1.51-2.754M598.797 42.73h16.865v3.31h-16.865zM122.74 9.63l16.864 1.654v3.325l-16.864-1.655zm407.554 36.41h16.864v3.31h-16.864zM385.819 9.637h49.268v3.31H385.82zm-32.405-.008 16.864 1.655v3.325l-16.864-1.655zm-195.435.008h49.27v3.31h-49.27zm240.168 109.208h43.758v3.31h-43.758zm91.624-29.794 15.028 1.655v3.33L489.77 92.38zM37.14 24.75c-.662.424-1.14 1.193-1.14 2.04 0 .106 0 .213.027.318.132 1.087 1.007 1.934 2.093 2.067h.292a2.375 2.375 0 0 0 2.384-2.384v-.16c0-.105-.026-.291-.052-.397-.239-1.14-1.272-3.577-5.777-3.577-5.777 0-6.439 4.796-6.439 6.518 0 3.154.397 7.102 7.022 7.102 2.623 0 4.664-1.537 4.77-4.373 0-.132-.08-.212-.213-.212h-.344c-.106 0-.212.107-.212.212-.106 2.2-1.67 3.524-4.001 3.524-2.306 0-3.419-1.244-3.419-3.576V26.79c0-1.485.583-3.18 2.942-3.18 1.245 0 1.802.45 2.093.9.026.053.026.08.026.133 0 .027 0 .08-.052.106m-21.048 16.82a7.7 7.7 0 0 1-1.537.16c-3.789 0-7.022-2.65-7.022-6.651 0-3.233 2.28-6.121 4.611-8.136.45-.397.875-.768 1.272-1.165.238 1.43.424 2.676.61 3.762-2.412.716-4.055 3.26-4.055 5.75 0 1.856 1.458 4.399 3.577 4.399.212 0 .451-.106.451-.344 0-.239-.265-.371-.583-.583-1.033-.637-1.616-1.325-1.616-2.623 0-1.617 1.192-2.915 2.755-3.287zm-2.332-27.24c.239-1.06 1.458-3.842 2.836-3.842.397 0 1.033 1.299 1.033 3.127 0 2.756-2.04 4.823-3.869 6.624-.159-1.06-.291-2.093-.291-3.206 0-.98.08-1.881.291-2.703m6.095 22.338c0 1.882-.768 3.816-2.65 4.584a882 882 0 0 1-1.457-8.558c2.385 0 4.107 1.616 4.107 3.974M8.196 49.704c0 1.75 1.352 4.054 4.93 4.054 1.245 0 2.331-.317 3.285-.9 1.431-1.007 1.802-2.756 1.802-4.426 0-1.033-.159-2.225-.424-3.736-.08-.53-.238-1.325-.397-2.358 2.597-.848 4.53-3.55 4.53-6.28 0-4.002-2.834-6.704-6.703-6.704-.265-1.59-.53-3.154-.769-4.637 2.81-2.942 4.744-6.254 4.744-10.467 0-2.411-.742-4.372-1.166-5.326-.636-1.352-1.405-2.28-1.882-2.28-.185 0-1.007.319-1.881 1.352-1.696 2.014-2.173 5.406-2.173 7.632 0 1.43.133 2.73.583 5.697-.026.026-1.404 1.43-1.96 1.881-2.412 2.253-5.75 5.46-5.75 10.759 0 4.954 4.318 8.85 9.247 8.85.768 0 1.484-.08 2.093-.186.504 2.544.795 4.4.795 5.803 0 2.757-1.404 4.214-4.08 4.214-.636 0-1.193-.132-1.246-.132-.026-.027-.08-.054-.08-.08 0-.053.054-.08.133-.106 1.246-.186 2.49-1.246 2.49-2.941 0-1.432-1.085-2.942-3.073-2.942-1.855 0-3.047 1.51-3.047 3.26m7.896 61.36a7.7 7.7 0 0 1-1.537.16c-3.789 0-7.022-2.65-7.022-6.651 0-3.233 2.28-6.121 4.611-8.135.45-.397.875-.769 1.272-1.166.238 1.43.424 2.676.61 3.763-2.412.715-4.055 3.259-4.055 5.75 0 1.855 1.458 4.398 3.577 4.398.212 0 .451-.105.451-.344s-.265-.37-.583-.583c-1.033-.636-1.616-1.325-1.616-2.623 0-1.616 1.192-2.915 2.755-3.286zm-2.332-27.24c.239-1.06 1.458-3.843 2.836-3.843.397 0 1.033 1.299 1.033 3.127 0 2.756-2.04 4.823-3.869 6.625-.159-1.06-.291-2.093-.291-3.206 0-.98.08-1.882.291-2.703m6.095 22.338c0 1.881-.768 3.815-2.65 4.584a882 882 0 0 1-1.457-8.559c2.385 0 4.107 1.616 4.107 3.975M8.196 119.2c0 1.749 1.352 4.054 4.93 4.054 1.245 0 2.331-.318 3.285-.9 1.431-1.008 1.802-2.756 1.802-4.426 0-1.034-.159-2.226-.424-3.737-.08-.53-.238-1.324-.397-2.358 2.597-.848 4.53-3.55 4.53-6.28 0-4.001-2.834-6.704-6.703-6.704-.265-1.59-.53-3.153-.769-4.637 2.81-2.941 4.744-6.254 4.744-10.467 0-2.411-.742-4.372-1.166-5.326-.636-1.351-1.405-2.278-1.882-2.278-.185 0-1.007.317-1.881 1.351-1.696 2.013-2.173 5.405-2.173 7.63 0 1.432.133 2.73.583 5.698-.026.027-1.404 1.43-1.96 1.882-2.412 2.252-5.75 5.459-5.75 10.758 0 4.955 4.318 8.85 9.247 8.85.768 0 1.484-.08 2.093-.186.504 2.545.795 4.4.795 5.804 0 2.756-1.404 4.213-4.08 4.213-.636 0-1.193-.132-1.246-.132-.026-.027-.08-.054-.08-.08 0-.053.054-.08.133-.106 1.246-.186 2.49-1.246 2.49-2.941 0-1.431-1.085-2.941-3.073-2.941-1.855 0-3.047 1.51-3.047 3.259m123.795.756c0 1.14.821 2.412 2.967 2.412 2.756 0 5.644-2.252 5.644-4.584 0-1.564-1.325-2.438-2.967-2.438-2.57 0-5.644 2.173-5.644 4.61m364.202-6.618c0 1.14.822 2.411 2.968 2.411 2.756 0 5.644-2.252 5.644-4.584 0-1.563-1.325-2.438-2.968-2.438-2.57 0-5.644 2.173-5.644 4.611m-14.365-3.31c0 1.14.821 2.412 2.967 2.412 2.757 0 5.645-2.253 5.645-4.584 0-1.563-1.325-2.438-2.969-2.438-2.57 0-5.643 2.173-5.643 4.61M226.642 33.915c0 1.14.822 2.412 2.968 2.412 2.755 0 5.644-2.252 5.644-4.584 0-1.564-1.325-2.438-2.968-2.438-2.57 0-5.644 2.173-5.644 4.61m26.29 24.331a.99.99 0 0 1-1.059-.953c0-1.299 4.451-3.578 5.697-3.578.635 0 1.06.372 1.06.955 0 1.324-4.479 3.576-5.697 3.576m3.656-5.776c-2.57 0-5.644 2.147-5.644 4.61 0 1.14.822 2.412 2.968 2.412 2.756 0 5.644-2.252 5.644-4.584 0-1.563-1.324-2.438-2.968-2.438M460.28 106.72c0 1.14.822 2.411 2.969 2.411 2.755 0 5.644-2.252 5.644-4.584 0-1.563-1.325-2.437-2.968-2.437-2.57 0-5.645 2.173-5.645 4.61M182.442 30.605c0 1.14.82 2.411 2.967 2.411 2.756 0 5.644-2.252 5.644-4.584 0-1.563-1.325-2.437-2.968-2.437-2.57 0-5.643 2.172-5.643 4.61m258.801 72.806c0 1.139.822 2.411 2.968 2.411 2.756 0 5.645-2.252 5.645-4.584 0-1.563-1.325-2.438-2.969-2.438-2.57 0-5.644 2.173-5.644 4.61M287.4 30.606c0 1.14.822 2.411 2.968 2.411 2.756 0 5.644-2.252 5.644-4.584 0-1.563-1.325-2.437-2.968-2.437-2.57 0-5.644 2.172-5.644 4.61M426.878 100.1c0 1.14.822 2.411 2.968 2.411 2.755 0 5.644-2.251 5.644-4.583 0-1.564-1.325-2.438-2.968-2.438-2.57 0-5.644 2.173-5.644 4.61m-105.71-72.806c0 1.14.822 2.412 2.968 2.412 2.756 0 5.644-2.252 5.644-4.584 0-1.564-1.325-2.438-2.968-2.438-2.57 0-5.644 2.173-5.644 4.61m91.344 69.497c0 1.14.822 2.411 2.968 2.411 2.756 0 5.645-2.252 5.645-4.584 0-1.563-1.325-2.438-2.969-2.438-2.57 0-5.644 2.173-5.644 4.61m-67.04-66.186c0 1.14.822 2.411 2.968 2.411 2.755 0 5.644-2.252 5.644-4.584 0-1.563-1.325-2.437-2.968-2.437-2.57 0-5.645 2.172-5.645 4.61m-179.232 3.31c0 1.139.822 2.41 2.968 2.41 2.755 0 5.644-2.251 5.644-4.583 0-1.564-1.325-2.438-2.968-2.438-2.57 0-5.644 2.173-5.644 4.61m231.908 69.497c0 1.139.822 2.411 2.968 2.411 2.756 0 5.644-2.252 5.644-4.584 0-1.563-1.325-2.438-2.968-2.438-2.57 0-5.644 2.173-5.644 4.61m126.045 6.62c0 1.139.821 2.41 2.968 2.41 2.756 0 5.644-2.252 5.644-4.583 0-1.564-1.325-2.439-2.967-2.439-2.57 0-5.645 2.174-5.645 4.612M361.674 33.914c0 1.14.821 2.412 2.968 2.412 2.756 0 5.644-2.252 5.644-4.584 0-1.564-1.325-2.438-2.968-2.438-2.57 0-5.644 2.173-5.644 4.61m16.202 3.31c0 1.139.821 2.411 2.968 2.411 2.756 0 5.644-2.252 5.644-4.584 0-1.563-1.325-2.438-2.967-2.438-2.57 0-5.645 2.173-5.645 4.61m-10.742 62.878c0 1.14.822 2.411 2.968 2.411 2.756 0 5.645-2.251 5.645-4.583 0-1.564-1.325-2.438-2.969-2.438-2.57 0-5.644 2.173-5.644 4.61M150.037 37.224c0 1.139.821 2.411 2.968 2.411 2.756 0 5.643-2.252 5.643-4.584 0-1.563-1.324-2.438-2.967-2.438-2.57 0-5.644 2.173-5.644 4.61m195.549 62.878c0 1.14.822 2.411 2.968 2.411 2.756 0 5.644-2.251 5.644-4.583 0-1.564-1.325-2.438-2.967-2.438-2.571 0-5.645 2.173-5.645 4.61m48.492-66.187c0 1.14.822 2.412 2.969 2.412 2.755 0 5.644-2.252 5.644-4.584 0-1.564-1.325-2.438-2.968-2.438-2.57 0-5.645 2.173-5.645 4.61m-70.04 62.878c0 1.14.822 2.411 2.968 2.411 2.755 0 5.644-2.252 5.644-4.584 0-1.563-1.325-2.438-2.968-2.438-2.57 0-5.644 2.173-5.644 4.61m86.243-66.186c0 1.14.82 2.411 2.967 2.411 2.756 0 5.645-2.252 5.645-4.584 0-1.563-1.325-2.437-2.968-2.437-2.57 0-5.644 2.172-5.644 4.61m135.46 86.044c0 1.139.82 2.41 2.967 2.41 2.756 0 5.644-2.252 5.644-4.584 0-1.563-1.325-2.438-2.968-2.438-2.57 0-5.644 2.173-5.644 4.612M302.49 96.792c0 1.14.821 2.411 2.968 2.411 2.756 0 5.644-2.252 5.644-4.584 0-1.563-1.325-2.438-2.968-2.438-2.57 0-5.644 2.173-5.644 4.61m123.993-59.567c0 1.139.821 2.411 2.967 2.411 2.757 0 5.645-2.252 5.645-4.584 0-1.563-1.325-2.438-2.968-2.438-2.57 0-5.644 2.173-5.644 4.61m29.986-2.143a.99.99 0 0 1-1.06-.953c0-1.299 4.451-3.578 5.697-3.578.635 0 1.06.371 1.06.954 0 1.325-4.479 3.577-5.697 3.577m3.656-5.776c-2.57 0-5.644 2.146-5.644 4.61 0 1.14.822 2.412 2.968 2.412 2.756 0 5.644-2.252 5.644-4.584 0-1.564-1.324-2.438-2.968-2.438M131 33.914c0 1.14.821 2.412 2.968 2.412 2.755 0 5.643-2.252 5.643-4.584 0-1.564-1.324-2.438-2.967-2.438-2.57 0-5.644 2.173-5.644 4.61m140.478 66.187c0 1.14.821 2.411 2.967 2.411 2.756 0 5.644-2.251 5.644-4.583 0-1.564-1.325-2.438-2.968-2.438-2.57 0-5.643 2.173-5.643 4.61m258.816-69.496c0 1.14.821 2.411 2.967 2.411 2.757 0 5.644-2.252 5.644-4.584 0-1.563-1.325-2.437-2.967-2.437-2.57 0-5.644 2.172-5.644 4.61m36.995 82.734c0 1.14.821 2.411 2.967 2.411 2.756 0 5.644-2.252 5.644-4.584 0-1.563-1.325-2.438-2.967-2.438-2.571 0-5.644 2.173-5.644 4.611m-317.36 16.547c0 1.139.822 2.41 2.968 2.41 2.755 0 5.644-2.251 5.644-4.583 0-1.564-1.325-2.438-2.968-2.438-2.57 0-5.644 2.173-5.644 4.61m338.907-23.165c0 1.14.822 2.411 2.969 2.411 2.755 0 5.643-2.252 5.643-4.584 0-1.563-1.324-2.437-2.967-2.437-2.57 0-5.645 2.173-5.645 4.61m-42.34-76.115c0 1.14.821 2.411 2.968 2.411 2.755 0 5.644-2.252 5.644-4.584 0-1.563-1.325-2.437-2.968-2.437-2.57 0-5.644 2.172-5.644 4.61m27.998-3.31c0 1.14.822 2.412 2.968 2.412 2.756 0 5.644-2.252 5.644-4.584 0-1.564-1.325-2.438-2.968-2.438-2.57 0-5.644 2.173-5.644 4.61m-346.846 99.281c0 1.14.822 2.411 2.969 2.411 2.755 0 5.644-2.252 5.644-4.584 0-1.563-1.325-2.437-2.968-2.437-2.57 0-5.645 2.172-5.645 4.61m371.15-99.28c0 1.14.82 2.41 2.967 2.41 2.756 0 5.645-2.251 5.645-4.583 0-1.564-1.325-2.438-2.969-2.438-2.57 0-5.644 2.173-5.644 4.61m-484 3.31c0 1.14.822 2.411 2.968 2.411 2.756 0 5.644-2.252 5.644-4.584 0-1.563-1.325-2.437-2.967-2.437-2.571 0-5.644 2.172-5.644 4.61M615 27.295c0 1.14.821 2.412 2.967 2.412 2.757 0 5.645-2.252 5.645-4.584 0-1.564-1.325-2.438-2.968-2.438-2.57 0-5.644 2.173-5.644 4.61m-408.9 99.281c0 1.14.822 2.411 2.969 2.411 2.755 0 5.643-2.252 5.643-4.584 0-1.563-1.325-2.437-2.967-2.437-2.57 0-5.644 2.172-5.644 4.61m425.101-89.352c0 1.139.821 2.411 2.968 2.411 2.756 0 5.644-2.252 5.644-4.584 0-1.563-1.325-2.438-2.968-2.438-2.57 0-5.644 2.173-5.644 4.61m24.303 0c0 1.14.822 2.412 2.968 2.412 2.756 0 5.644-2.252 5.644-4.584 0-1.563-1.325-2.438-2.967-2.438-2.57 0-5.645 2.173-5.645 4.61M90.494 27.296c0 1.14.821 2.412 2.967 2.412 2.757 0 5.645-2.252 5.645-4.584 0-1.564-1.325-2.438-2.967-2.438-2.571 0-5.645 2.173-5.645 4.61m-36.468 3.31c0 1.14.821 2.411 2.967 2.411 2.756 0 5.644-2.252 5.644-4.584 0-1.563-1.325-2.437-2.967-2.437-2.571 0-5.644 2.172-5.644 4.61m7.966 67.353a.99.99 0 0 1-1.06-.954c0-1.299 4.452-3.577 5.698-3.577.635 0 1.06.37 1.06.954 0 1.324-4.479 3.577-5.698 3.577m3.657-5.777c-2.57 0-5.644 2.147-5.644 4.61 0 1.14.821 2.412 2.968 2.412 2.755 0 5.644-2.252 5.644-4.584 0-1.563-1.325-2.438-2.968-2.438m109.439 31.086c0 1.14.821 2.41 2.967 2.41 2.757 0 5.645-2.251 5.645-4.583 0-1.563-1.325-2.438-2.968-2.438-2.57 0-5.644 2.173-5.644 4.61m444.761-19.855c0 1.139.822 2.411 2.968 2.411 2.756 0 5.644-2.252 5.644-4.584 0-1.563-1.325-2.438-2.968-2.438-2.57 0-5.644 2.173-5.644 4.61m-509.405 16.547c0 1.14.82 2.411 2.967 2.411 2.756 0 5.645-2.251 5.645-4.583 0-1.564-1.325-2.438-2.969-2.438-2.57 0-5.643 2.173-5.643 4.61m43.095 3.31c0 1.14.823 2.41 2.969 2.41 2.755 0 5.644-2.251 5.644-4.583 0-1.563-1.325-2.438-2.968-2.438-2.57 0-5.645 2.173-5.645 4.61m489.846-18.69a.99.99 0 0 1-1.06-.953c0-1.299 4.452-3.578 5.697-3.578.636 0 1.06.372 1.06.954 0 1.325-4.478 3.577-5.697 3.577m3.657-5.776c-2.571 0-5.644 2.147-5.644 4.61 0 1.14.821 2.412 2.967 2.412 2.756 0 5.644-2.252 5.644-4.584 0-1.563-1.325-2.438-2.967-2.438M198.644 37.224c0 1.139.821 2.411 2.967 2.411 2.756 0 5.644-2.252 5.644-4.584 0-1.563-1.325-2.438-2.967-2.438-2.57 0-5.644 2.173-5.644 4.61M38.457 96.793c0 1.14.821 2.411 2.967 2.411 2.757 0 5.645-2.252 5.645-4.584 0-1.563-1.325-2.438-2.968-2.438-2.57 0-5.644 2.173-5.644 4.61m347.362-85.5v23.761h.662V11.291ZM139.934 95.679v22.106h.662V95.68ZM38.457 96.791v20.399h.662V96.79Zm144.573 2.197v22.107h.662V98.988Zm466.31-18.2v20.45h.662v-20.45ZM118.386 95.678v22.106h.662V95.68Zm509.406-14.892v20.452h.662V80.787ZM54.025 30.604v18.744h.662V30.604Zm36.47-3.31v20.4h.661v-20.4Zm32.245-15.97v17.109h.662v-17.11ZM60.005 96.79v20.399h.662V96.79Zm536.774-14.349v22.106h.662V82.442Zm-457.837-69.53v18.83h.662v-18.83ZM575.23 89.06v22.107h.662V89.06Zm-361.188 9.928v25.416h.662V98.988ZM157.98 11.291v23.761h.662V11.291ZM553.683 92.37v22.106h.662V92.37Zm-21.548-6.619v22.107h.662V85.75Zm131.313-72.806v22.107h.662V12.945Zm-489.266-1.654v20.451h.662V11.291Zm464.963 1.654v22.107h.662V12.945ZM235.59 98.988v25.416h.662V98.988ZM615 27.295v17.089h.662v-17.09ZM190.384 11.29v17.142h.662V11.291Zm16.202 0v23.761h.662V11.291Zm392.212 16.004v17.089h.662v-17.09zM257.87 98.988v28.726h.662V98.988Zm316.623-71.693v20.398h.662V27.295Zm-70.358 65.038v18.834h.662V92.333ZM234.584 11.291v20.451h.662V11.291Zm255.187 79.46v17.107h.662V90.752Zm56.725-60.147v17.09h.662v-17.09Zm-287.608-1.112v25.416h.662V29.492Zm209.335 52.95v22.106h.662V82.442zM271.477 100.1v18.744h.662V100.1Zm258.816-69.496v17.09h.662v-17.09Zm-242.893 0v18.744h.662V30.604Zm153.843 72.806v17.09h.662v-17.09ZM321.168 27.295v20.398h.662V27.295Zm105.71 72.805v20.4h.662v-20.4Zm-73.464-88.777v17.11h.662v-17.11Zm109.01-.032v20.451h.662V11.291Zm-49.912 85.5v23.708h.662V96.791Zm-14.365 6.619v17.09h.662v-17.09zM302.49 96.79v20.399h.662V96.79Zm131.935-85.5v23.761h.662V11.291Zm-110.387 85.5v20.399h.662V96.79Zm94.185-85.5v17.142h.662V11.291Zm-48.607 1.622v18.83h.662v-18.83Zm32.405-1.622v20.451h.662V11.291Zm-34.886 88.81v18.743h.662V100.1Zm-205.653-1.113v22.107h.662V98.988Zm184.104 1.112v18.744h.662V100.1zm-120.122 24.834v1.059h12.974v-1.06zm-95.657-6.619v1.059h12.974v-1.059zm74.11 0v1.059h12.973v-1.059zm0 6.619v1.059h12.973v-1.06zm21.547-6.619v1.059h12.974v-1.059zm-52.56 0v1.059h12.973v-1.059zm-64.644 0v1.059h12.973v-1.059zm43.096 0v1.059h12.973v-1.059zm96.389 0v1.059h12.974v-1.059zm0 6.619v1.059h12.974v-1.06zm1.016-69.497v1.06h12.974v-1.06zm0-6.618v1.059h12.974v-1.06zm205.471 54.827 2.359-.476v4.372l-2.359.503zm4.107-.821c.16-.027.292-.212.292-.371v-1.563c0-.213-.16-.371-.371-.371h-.053l-.874.185v-3.948h-.742v4.107l-2.359.477v-3.736h-.742v3.895l-1.033.212c-.159.026-.292.212-.292.37v1.538c0 .212.16.371.372.371h.079l.874-.186v4.372l-1.033.212c-.159.027-.292.212-.292.372v1.536c0 .212.16.371.372.371h.079l.874-.185v3.948h.742v-4.107l2.359-.477v3.736h.742v-3.895l1.006-.186c.16-.026.292-.211.292-.37v-1.564c0-.212-.159-.37-.371-.37h-.053l-.874.184v-4.372zm124.45.821 2.358-.476v4.372l-2.359.503zm4.107-.821c.16-.027.292-.212.292-.371v-1.563c0-.213-.16-.371-.371-.371h-.053l-.874.185v-3.948h-.742v4.107l-2.359.477v-3.736h-.742v3.895l-1.033.212c-.159.026-.292.212-.292.37v1.538c0 .212.16.371.372.371h.079l.874-.186v4.372l-1.033.212c-.159.027-.292.212-.292.372v1.536c0 .212.16.371.372.371h.079l.874-.185v3.948h.742v-4.107l2.359-.477v3.736h.742v-3.895l1.006-.186c.16-.026.292-.211.292-.37v-1.564c0-.212-.159-.37-.371-.37h-.053l-.874.184v-4.372zM143.99 34.15l2.358-.477v4.372l-2.358.504zm4.107-.82c.16-.027.291-.213.291-.371v-1.564a.36.36 0 0 0-.37-.37h-.053l-.875.185V27.26h-.742v4.108l-2.358.477v-3.736h-.742v3.894l-1.033.213c-.16.026-.292.212-.292.37v1.537c0 .212.159.372.37.372h.08l.875-.186v4.372l-1.033.212c-.16.026-.292.212-.292.371v1.537c0 .212.159.371.37.371h.08l.875-.186v3.949h.742v-4.107l2.358-.477v3.736h.742V40.19l1.007-.185c.16-.027.291-.212.291-.37v-1.564a.36.36 0 0 0-.37-.371h-.053l-.875.185v-4.372zm94.064 93.484 2.359-.477v4.372l-2.359.504zm4.107-.82c.16-.027.292-.213.292-.372v-1.563a.36.36 0 0 0-.371-.37h-.053l-.875.184v-3.948h-.741v4.108l-2.359.477v-3.736h-.742v3.894l-1.033.212c-.16.027-.292.213-.292.371v1.537c0 .212.16.372.371.372h.08l.874-.186v4.372l-1.033.212c-.16.026-.291.212-.291.371v1.536c0 .213.159.372.37.372h.08l.874-.186v3.948h.743v-4.106l2.358-.477v3.736h.741v-3.896l1.007-.185c.16-.027.292-.212.292-.371v-1.564a.36.36 0 0 0-.37-.37h-.054l-.875.185v-4.372zm268.46-40.603v27.203h1.192V85.387Zm162.633 0v27.203H681V85.387Zm-3.64 0v27.203h1.191V85.387Zm-572.741 0v27.203h1.19V85.387Zm116.198-69.496v27.203h1.192V15.89Zm347.852 0v27.203h1.192V15.89ZM522.022 32.8c0-.768-.61-1.404-1.378-1.404-.769 0-1.378.636-1.378 1.405 0 .768.61 1.404 1.378 1.404s1.378-.636 1.378-1.404m0-6.62c0-.768-.61-1.403-1.378-1.403-.769 0-1.378.635-1.378 1.404s.61 1.404 1.378 1.404 1.378-.636 1.378-1.404m-6.396-10.292v27.203h1.191V15.89Zm-6.088 0v27.203h3.64V15.89Zm-197.835 0v27.203h1.192V15.89Zm197.835 0v27.203h3.64V15.89Zm-3.64 0v27.203h1.19V15.89ZM503.45 32.8c0-.768-.61-1.404-1.378-1.404s-1.378.636-1.378 1.405c0 .768.61 1.404 1.378 1.404.769 0 1.378-.636 1.378-1.404m0-6.62c0-.768-.61-1.403-1.378-1.403s-1.378.635-1.378 1.404.61 1.404 1.378 1.404c.769 0 1.378-.636 1.378-1.404M293.025 85.387v27.203h1.191V85.387Zm151.991-69.496v27.203h1.191V15.89Zm-248.38 69.496v27.203h1.191V85.387Zm413.749 0v27.203h1.19V85.387ZM81.029 15.891v27.203h1.191V15.89Zm598.78 0v27.203H681V15.89ZM388.682 85.387v27.203h1.192V85.387ZM0 111.862v.727h681v-.727zm0-6.618v.727h681v-.727zm0-6.62v.728h681v-.727zm0-6.618v.727h681v-.727zm0-6.618v.727h681v-.727Zm0-43.023v.728h681v-.728zm0-6.618v.728h681v-.728zm0-6.619v.728h681v-.728zm0-6.618v.727h681v-.727zm0-6.62v.729h681v-.728z"/>
</svg>
