<?xml version="1.0" encoding="UTF-8" standalone="no"?>
<svg
   width="681"
   height="186.603"
   version="1.2"
   id="svg265"
   xmlns="http://www.w3.org/2000/svg"
   xmlns:svg="http://www.w3.org/2000/svg"
   xmlns:rdf="http://www.w3.org/1999/02/22-rdf-syntax-ns#"
   xmlns:cc="http://creativecommons.org/ns#"
   xmlns:dc="http://purl.org/dc/elements/1.1/">
  <defs
     id="defs265" />
  <title
     id="title1">air_XL</title>
  <desc
     id="desc1">Generated by MuseScore Studio 4.7.3</desc>
  <path
     id="path265"
     class="NoteDot"
     d="m 534.45931,19.53001 c 0,0.74165 0.58336,1.324375 1.32437,1.324375 0.74181,0 1.32438,-0.582725 1.32438,-1.324375 0,-0.74165 -0.58257,-1.324375 -1.32438,-1.324375 -0.74101,0 -1.32437,0.582725 -1.32437,1.324375 m -424.22972,6.616353 c 0,0.74101 0.58257,1.324375 1.32438,1.324375 0.74181,0 1.32437,-0.583365 1.32437,-1.324375 0,-0.74181 -0.58256,-1.324375 -1.32437,-1.324375 -0.74181,0 -1.32438,0.582565 -1.32438,1.324375 M 354.42754,151.85075 c 0,0.74181 0.58256,1.32438 1.32437,1.32438 0.74101,0 1.32438,-0.58257 1.32438,-1.32438 0,-0.74181 -0.58337,-1.32437 -1.32438,-1.32437 -0.74181,0 -1.32437,0.58256 -1.32437,1.32437 M 244.8037,26.146363 c 0,0.74101 0.58336,1.324375 1.32437,1.324375 0.74181,0 1.32438,-0.583365 1.32438,-1.324375 0,-0.74181 -0.58257,-1.324375 -1.32438,-1.324375 -0.74101,0 -1.32437,0.582565 -1.32437,1.324375 M 579.92498,165.0833 c 0,0.74181 0.58257,1.32438 1.32438,1.32438 0.74181,0 1.32437,-0.58257 1.32437,-1.32438 0,-0.74181 -0.58256,-1.32437 -1.32437,-1.32437 -0.74181,0 -1.32438,0.58256 -1.32438,1.32437 M 645.37151,61.225895 c 0.12004,0 0.24007,0.04801 0.31209,0.240068 l 0.024,0.144041 c 0.14404,0.52815 0.43212,1.656469 1.4164,1.656469 0.79222,0 1.32037,-0.456129 1.32037,-1.296367 0,-1.608455 -1.27236,-2.112598 -2.73677,-2.112598 -1.34438,0 -2.85681,1.656469 -2.85681,3.553006 0,0.456129 0.096,0.936265 0.31209,1.416401 0.62417,1.416401 3.40896,3.120884 3.553,3.168897 0.072,0.04801 0.12004,0.09603 0.12004,0.168048 0,0.07202 -0.048,0.168047 -0.12004,0.312088 -0.14404,0.264075 -2.90482,5.233482 -2.90482,5.233482 -0.024,0.07202 -0.048,0.168047 -0.048,0.240068 0,0.192054 0.096,0.384109 0.26407,0.480136 0.096,0.07202 0.16805,0.09603 0.26408,0.09603 0.19205,0 0.38411,-0.120034 0.48013,-0.288082 0,0 2.97685,-5.377522 3.04887,-5.497556 0,0.02401 0.14404,-0.09603 0.21606,-0.09603 0.28808,0.04801 4.12917,1.176333 4.12917,3.000849 0,0.768218 -0.45613,1.248354 -1.10432,1.368388 h -0.072 c -0.38411,0 -0.7202,-0.264075 -0.7202,-0.864245 v -0.216061 c 0,-0.720204 -0.48014,-1.248354 -1.00829,-1.248354 -0.096,0 -0.16804,0 -0.24006,0.02401 -0.72021,0.168048 -1.36839,0.480136 -1.36839,1.248354 0,0.07202 0,0.168047 0.024,0.264074 0.14405,0.816232 1.00829,1.920544 2.30466,1.920544 1.82451,0 3.36095,-1.680476 3.36095,-3.480985 0,-0.168048 -0.024,-0.360102 -0.048,-0.552157 -0.28809,-2.112598 -3.31294,-3.841087 -3.55301,-3.937114 -0.21606,-0.144041 -0.31209,-0.216062 -0.31209,-0.312089 0,-0.04801 0.024,-0.07202 0.024,-0.120034 0.096,-0.144041 3.07287,-5.521563 3.07287,-5.521563 0.072,-0.09603 0.096,-0.168048 0.096,-0.264075 0,-0.192054 -0.12004,-0.384109 -0.28809,-0.480136 -0.096,-0.02401 -0.19205,-0.04801 -0.26407,-0.04801 -0.19206,0 -0.38411,0.09603 -0.48014,0.264075 0,0 -3.04886,5.521564 -3.16889,5.689611 -0.048,0.09603 -0.096,0.144041 -0.16805,0.144041 -0.048,0 -0.12004,-0.02401 -0.19206,-0.04801 -0.16804,-0.07202 -3.07287,-1.176333 -3.57701,-2.040577 -0.12003,-0.216062 -0.26407,-0.624177 -0.26407,-1.008286 0,-0.528149 0.24006,-1.056299 1.03229,-1.20034 h 0.12003 m 5.37752,3.817081 c 0,0.60017 0.50415,1.104313 1.10432,1.104313 0.60017,0 1.0803,-0.504143 1.0803,-1.104313 0,-0.60017 -0.48013,-1.080306 -1.0803,-1.080306 -0.60017,0 -1.10432,0.480136 -1.10432,1.080306 m -5.28149,3.889101 c 0,-0.60017 -0.48014,-1.104312 -1.10431,-1.104312 -0.57617,0 -1.08031,0.504142 -1.08031,1.104312 0,0.60017 0.50414,1.080306 1.08031,1.080306 0.62417,0 1.10431,-0.480136 1.10431,-1.080306 m 27.5622,61.762282 c 0.12004,0 0.24007,0.048 0.31209,0.24007 l 0.024,0.14404 c 0.14404,0.52815 0.43212,1.65647 1.4164,1.65647 0.79222,0 1.32037,-0.45613 1.32037,-1.29636 0,-1.60846 -1.27236,-2.1126 -2.73677,-2.1126 -1.34438,0 -2.85681,1.65647 -2.85681,3.553 0,0.45613 0.096,0.93627 0.31209,1.4164 0.62417,1.4164 3.40896,3.12089 3.553,3.1689 0.072,0.048 0.12004,0.096 0.12004,0.16805 0,0.072 -0.048,0.16805 -0.12004,0.31209 -0.14404,0.26407 -2.90482,5.23348 -2.90482,5.23348 -0.024,0.072 -0.048,0.16805 -0.048,0.24007 0,0.19205 0.096,0.38411 0.26407,0.48013 0.096,0.072 0.16805,0.096 0.26408,0.096 0.19205,0 0.38411,-0.12003 0.48013,-0.28808 0,0 2.97685,-5.37752 3.04887,-5.49756 0,0.024 0.14404,-0.096 0.21606,-0.096 0.28808,0.048 4.12917,1.17634 4.12917,3.00085 0,0.76822 -0.45613,1.24836 -1.10432,1.36839 h -0.072 c -0.3841,0 -0.7202,-0.26407 -0.7202,-0.86424 v -0.21606 c 0,-0.72021 -0.48014,-1.24836 -1.00829,-1.24836 -0.096,0 -0.16804,0 -0.24006,0.024 -0.72021,0.16805 -1.36839,0.48014 -1.36839,1.24835 0,0.072 0,0.16805 0.024,0.26408 0.14404,0.81623 1.00828,1.92054 2.30465,1.92054 1.82451,0 3.36095,-1.68047 3.36095,-3.48098 0,-0.16805 -0.024,-0.36011 -0.048,-0.55216 -0.28809,-2.1126 -3.31294,-3.84109 -3.55301,-3.93712 -0.21606,-0.14404 -0.31209,-0.21606 -0.31209,-0.31208 0,-0.048 0.024,-0.072 0.024,-0.12004 0.096,-0.14404 3.07287,-5.52156 3.07287,-5.52156 0.072,-0.096 0.096,-0.16805 0.096,-0.26408 0,-0.19205 -0.12004,-0.3841 -0.28809,-0.48013 -0.096,-0.024 -0.19205,-0.048 -0.26407,-0.048 -0.19205,0 -0.38411,0.096 -0.48014,0.26408 0,0 -3.04886,5.52156 -3.16889,5.68961 -0.048,0.096 -0.096,0.14404 -0.16805,0.14404 -0.048,0 -0.12003,-0.024 -0.19206,-0.048 -0.16804,-0.072 -3.07287,-1.17634 -3.57701,-2.04058 -0.12003,-0.21606 -0.26407,-0.62418 -0.26407,-1.00829 0,-0.52815 0.24007,-1.05629 1.03229,-1.20034 h 0.12003 m 5.37753,3.81709 c 0,0.60017 0.50414,1.10431 1.10431,1.10431 0.60017,0 1.0803,-0.50414 1.0803,-1.10431 0,-0.60017 -0.48013,-1.08031 -1.0803,-1.08031 -0.60017,0 -1.10431,0.48014 -1.10431,1.08031 m -5.2815,3.8891 c 0,-0.60017 -0.48014,-1.10432 -1.10431,-1.10432 -0.57617,0 -1.08031,0.50415 -1.08031,1.10432 0,0.60017 0.50414,1.0803 1.08031,1.0803 0.62417,0 1.10431,-0.48013 1.10431,-1.0803 m -120.4213,-64.298208 14.78259,-1.654068 v 3.328142 l -14.78259,1.654068 V 74.102341 M 283.44264,7.9398481 297.0969,9.5939164 V 12.92606 L 283.44264,11.272072 V 7.9398481 m 233.07959,99.2422619 14.78259,1.65407 v 3.32894 l -14.78259,-1.65407 v -3.32894 m 130.36651,1.65407 14.78339,-1.65407 v 3.32894 l -14.78339,1.65407 v -3.32894 m -172.47443,-1.65407 14.78258,1.65407 v 3.32894 l -14.78258,-1.65407 v -3.32894 m -41.89826,71.12173 14.30885,-1.65406 v 3.33054 l -14.30885,1.65407 v -3.33055 m 13.65506,-76.08314 14.78339,1.65327 v 3.32894 l -14.78339,-1.65407 v -3.32814 m -165.73012,71.12974 19.69117,-1.0635 v 3.31294 l -19.69117,1.0635 v -3.31294 m 0,4.96221 30.60866,-1.65407 v 3.31294 l -30.60866,1.65406 v -3.31293 m 237.7105,-31.4345 14.30805,-1.65407 v 3.32974 l -14.30805,1.65407 v -3.32974 m -427.348996,31.41929 11.579276,-1.70288 v 3.34415 l -11.579276,1.70208 v -3.34335 m 0,4.96221 22.496766,-3.30814 v 3.34335 l -22.496766,3.30813 v -3.34334 M 302.81292,108.84658 h 14.78339 v 3.30814 h -14.78339 v -3.30814 m 115.11579,-6.62588 14.78259,1.65327 v 3.32894 l -14.78259,-1.65407 v -3.32814 m -236.36292,72.77661 19.69118,-2.1278 v 3.32734 l -19.69118,2.1278 v -3.32734 m 0,4.9622 30.60867,-3.30813 v 3.32734 l -30.60867,3.30814 v -3.32735 M 655.95691,2.9778031 669.61118,4.6318715 V 7.9640949 L 655.95691,6.3100266 V 2.9778031 m -310.24064,34.7342349 13.65346,1.654068 v 3.332143 l -13.65346,-1.654068 v -3.332143 m 235.2306,38.044371 14.78259,1.654069 V 80.73862 L 580.94687,79.084552 V 75.756409 M 45.07595,32.779441 v 1.959755 h -2.198223 c -0.185652,0 -0.370504,0.159245 -0.370504,0.370505 v 0.503342 c 0,0.21206 0.184852,0.371305 0.370504,0.371305 H 50.9032 c 0.21206,0 0.371305,-0.159245 0.371305,-0.371305 v -0.503342 c 0,-0.21126 -0.159245,-0.370505 -0.371305,-0.370505 H 48.519325 V 32.779441 H 50.9032 c 0.21206,0 0.371305,-0.185653 0.371305,-0.397713 v -0.503342 c 0,-0.184852 -0.159245,-0.370505 -0.371305,-0.370505 h -2.383875 v -4.211592 c 0,-0.159246 -0.07922,-0.291283 -0.184853,-0.344098 l -0.317689,-0.159245 c -0.05362,-0.02641 -0.08002,-0.02641 -0.132838,-0.02641 -0.10563,0 -0.21206,0 -0.291283,0.07922 l -2.410282,2.199023 c -0.07922,0.07922 -0.10643,0.184852 -0.10643,0.291282 v 2.171815 h -3.07207 c 0,0 2.96644,-3.1785 6.092125,-7.363685 0.10563,-0.132037 0.132037,-0.264875 0.132037,-0.370505 0,-0.132837 -0.05282,-0.238467 -0.07922,-0.264875 l -0.582565,-0.583045 c -0.07922,-0.05297 -0.159245,-0.10595 -0.264875,-0.10595 -0.159245,0 -3.734657,0 -3.946718,0 -0.185652,0 -0.317689,0.158925 -0.344097,0.31785 0,0 -0.132838,1.960395 -0.821032,4.105803 -0.688995,2.145407 -1.48362,3.469782 -2.172616,4.45006 0,0 -0.07922,0.132037 -0.07922,0.291282 0,0.05281 0,0.10563 0.02641,0.158445 0.07922,0.185652 0.264875,0.476935 0.264875,0.476935 0,0 0.05282,0.159245 0.291283,0.159245 h 4.55569 m 2.739976,-16.823243 c 2.119,-0.821113 2.251037,-2.198463 2.251037,-2.675238 v -0.132437 c 0,-0.238388 -0.07922,-3.2314751 -4.634912,-3.2314751 -4.55649,0 -4.423653,3.2314751 -4.423653,3.2314751 h 0.02641 l -0.02641,0.05297 c 0,0.95355 0.768218,1.6952 1.721288,1.6952 0.95387,0 1.69568,-0.74165 1.69568,-1.6952 0,-0.768138 -0.582565,-1.509788 -1.324375,-1.668713 l 0.07922,-0.07946 c 0.370505,-0.264875 0.873848,-0.397313 1.37719,-0.397313 1.112315,0 2.304653,0.662188 2.304653,2.092513 0,1.668712 -1.245153,1.9071 -1.562843,1.960075 -0.31769,0.05297 -1.80131,0.158925 -2.119,0.158925 -0.31769,0 -0.344097,0.370825 -0.344097,0.370825 v 0.52975 c 0,0 0.05282,0.291362 0.344097,0.31785 0.450528,0.02649 1.0595,0.02649 1.90694,0.158925 1.16593,0.158925 1.774903,0.95355 1.774903,2.807675 0,1.774662 -1.192338,2.251437 -2.304653,2.251437 -0.74181,0 -1.430005,-0.2119 -1.721287,-0.4238 0.873847,-0.05297 1.58925,-0.821112 1.58925,-1.6952 0,-0.95355 -0.74181,-1.721687 -1.69568,-1.721687 -0.95307,0 -1.721288,0.768137 -1.721288,1.721687 0,2.171975 1.986163,3.257963 3.946718,3.257963 2.542319,0 5.2975,-0.874088 5.2975,-3.761225 0,-1.933588 -1.324375,-2.7547 -2.490306,-3.125525 h 0.05362 M 28.928978,7.6459248 31.286446,7.1691498 V 11.539587 L 28.928978,12.04285 V 7.6459248 m 4.105963,-0.8211124 c 0.159245,-0.026488 0.291282,-0.2119 0.291282,-0.370825 V 4.8912249 c 0,-0.2119 -0.159245,-0.370825 -0.370505,-0.370825 h -0.05362 L 32.028256,4.7058124 V 0.75917495 h -0.74181 V 4.8647374 l -2.357468,0.476775 V 1.6067749 h -0.74101 v 3.8936625 l -1.033092,0.2119 c -0.159245,0.026488 -0.291283,0.2119 -0.291283,0.370825 v 1.5362749 c 0,0.2119 0.158445,0.370825 0.370505,0.370825 h 0.07922 l 0.874647,-0.1854125 v 4.3704372 l -1.033092,0.2119 c -0.159245,0.02649 -0.291283,0.2119 -0.291283,0.370825 v 1.536275 c 0,0.2119 0.158445,0.370825 0.370505,0.370825 h 0.07922 L 28.187968,14.4797 v 3.946637 h 0.74101 V 14.320775 L 31.286446,13.844 v 3.734737 h 0.74181 v -3.893662 l 1.006685,-0.185413 c 0.159245,-0.02649 0.291282,-0.2119 0.291282,-0.370825 v -1.562762 c 0,-0.2119 -0.159245,-0.370825 -0.370505,-0.370825 h -0.05362 l -0.873847,0.185412 V 7.0102249 l 1.006685,-0.1854125 m -4.105963,70.2895816 2.357468,-0.476935 v 4.370837 l -2.357468,0.503343 v -4.397245 m 4.105963,-0.821033 c 0.159245,-0.02641 0.291282,-0.21206 0.291282,-0.371305 v -1.562042 c 0,-0.21206 -0.159245,-0.371305 -0.370505,-0.371305 h -0.05362 l -0.873847,0.185652 v -3.946717 h -0.74181 v 4.105162 l -2.357468,0.476935 v -3.734657 h -0.74101 v 3.893902 l -1.033092,0.212061 c -0.159245,0.02641 -0.291283,0.211259 -0.291283,0.370504 v 1.536435 c 0,0.21206 0.158445,0.370505 0.370505,0.370505 h 0.07922 l 0.874647,-0.184852 v 4.370037 l -1.033092,0.21206 c -0.159245,0.02641 -0.291283,0.21206 -0.291283,0.370505 v 1.536435 c 0,0.21206 0.158445,0.370505 0.370505,0.370505 h 0.07922 l 0.874647,-0.184852 v 3.946717 h 0.74101 v -4.105962 l 2.357468,-0.476935 v 3.734657 h 0.74181 v -3.893102 l 1.006685,-0.185653 c 0.159245,-0.02641 0.291282,-0.21206 0.291282,-0.370505 v -1.562842 c 0,-0.21206 -0.159245,-0.371305 -0.370505,-0.371305 h -0.05362 l -0.873847,0.185652 v -4.370037 l 1.006685,-0.185653 m -4.105963,70.289499 2.357468,-0.47693 v 4.37084 l -2.357468,0.50334 v -4.39725 m 4.105963,-0.82103 c 0.159245,-0.0264 0.291282,-0.21206 0.291282,-0.3705 v -1.56285 c 0,-0.21206 -0.159245,-0.3713 -0.370505,-0.3713 h -0.05362 l -0.873847,0.18565 v -3.94672 h -0.74181 v 4.10597 l -2.357468,0.47613 v -3.73466 h -0.74101 v 3.89391 l -1.033092,0.21206 c -0.159245,0.0264 -0.291283,0.21206 -0.291283,0.3705 v 1.53644 c 0,0.21206 0.158445,0.3705 0.370505,0.3705 h 0.07922 l 0.874647,-0.18485 v 4.37004 l -1.033092,0.21206 c -0.159245,0.0264 -0.291283,0.21206 -0.291283,0.3705 v 1.53644 c 0,0.21206 0.158445,0.3713 0.370505,0.3713 h 0.07922 l 0.874647,-0.18565 v 3.94672 h 0.74101 v -4.10597 l 2.357468,-0.47693 v 3.73546 h 0.74181 v -3.89391 l 1.006685,-0.18565 c 0.159245,-0.0264 0.291282,-0.21206 0.291282,-0.3705 v -1.56285 c 0,-0.21206 -0.159245,-0.3713 -0.370505,-0.3713 h -0.05362 l -0.873847,0.18565 v -4.37004 l 1.006685,-0.18565 m -16.948079,28.08555 c -0.52975,0.10643 -1.033013,0.15925 -1.536275,0.15925 -3.787712,0 -7.0191874,-2.64875 -7.0191874,-6.64828 0,-3.23212 2.277925,-6.11854 4.6088254,-8.13191 0.450287,-0.39771 0.874087,-0.76821 1.2714,-1.16513 0.238387,1.43001 0.4238,2.67516 0.609212,3.76107 -2.410362,0.7146 -4.0525874,3.25772 -4.0525874,5.74723 0,1.85412 1.4568124,4.39724 3.5758124,4.39724 0.2119,0 0.450288,-0.10563 0.450288,-0.3441 0,-0.23846 -0.264875,-0.3713 -0.582725,-0.58256 -1.033013,-0.63618 -1.615738,-1.32438 -1.615738,-2.62234 0,-1.61566 1.191938,-2.91363 2.7547,-3.28493 l 1.536275,8.71446 m -2.3309,-27.22931 c 0.238388,-1.0595 1.456812,-3.84028 2.834162,-3.84028 0.397313,0 1.033013,1.29796 1.033013,3.12568 0,2.75438 -2.039538,4.82057 -3.867175,6.62188 -0.158925,-1.0595 -0.291362,-2.0926 -0.291362,-3.20491 0,-0.98028 0.07946,-1.88133 0.291362,-2.70237 m 6.092125,22.32953 c 0,1.88053 -0.768138,3.81388 -2.64875,4.58209 -0.556238,-3.1785 -1.2714,-7.39009 -1.456813,-8.55522 2.383875,0 4.105563,1.61566 4.105563,3.97313 M 8.1935871,181.97928 c 0,1.7477 1.3508625,4.05235 4.9266749,4.05235 1.244913,0 2.3309,-0.31769 3.28445,-0.90025 1.430325,-1.00669 1.80115,-2.75518 1.80115,-4.42366 0,-1.03309 -0.158925,-2.22462 -0.4238,-3.73465 -0.07946,-0.52975 -0.238388,-1.32438 -0.397313,-2.35747 2.595775,-0.84744 4.529363,-3.549 4.529363,-6.27778 0,-3.99953 -2.834163,-6.70109 -6.701338,-6.70109 -0.264875,-1.58925 -0.529749,-3.1521 -0.768137,-4.63492 2.807675,-2.94083 4.741262,-6.25137 4.741262,-10.46296 0,-2.41028 -0.74165,-4.37004 -1.16545,-5.32391 -0.6357,-1.35078 -1.403837,-2.27824 -1.880612,-2.27824 -0.185413,0 -1.006525,0.31849 -1.880612,1.35078 -1.6952,2.01337 -2.171975,5.40393 -2.171975,7.62856 0,1.43081 0.132437,2.72877 0.582725,5.69521 -0.02649,0.0264 -1.403838,1.43001 -1.960075,1.88054 -2.4103629,2.25103 -5.7477878,5.45594 -5.7477878,10.75344 0,4.9534 4.3174624,8.84731 9.2441378,8.84731 0.768137,0 1.483299,-0.0792 2.092512,-0.18566 0.503262,2.54312 0.794625,4.39725 0.794625,5.80084 0,2.75438 -1.403838,4.2116 -4.079075,4.2116 -0.6357,0 -1.191937,-0.13284 -1.244912,-0.13284 -0.02649,-0.0264 -0.07946,-0.0528 -0.07946,-0.0792 0,-0.0528 0.05297,-0.0792 0.132438,-0.10563 1.244912,-0.18566 2.489825,-1.24516 2.489825,-2.94003 0,-1.43081 -1.085988,-2.94004 -3.07255,-2.94004 -1.8541254,0 -3.0460629,1.50923 -3.0460629,3.25772 m 7.8932749,-77.60037 c -0.52975,0.10643 -1.033013,0.15925 -1.536275,0.15925 -3.787712,0 -7.0191874,-2.64875 -7.0191874,-6.648284 0,-3.232115 2.277925,-6.118532 4.6088254,-8.131902 0.450287,-0.397713 0.874087,-0.768218 1.2714,-1.16513 0.238387,1.430005 0.4238,2.675157 0.609212,3.761065 -2.410362,0.714602 -4.0525874,3.257722 -4.0525874,5.747227 0,1.854125 1.4568124,4.397244 3.5758124,4.397244 0.2119,0 0.450288,-0.10563 0.450288,-0.3441 0,-0.23846 -0.264875,-0.3713 -0.582725,-0.58256 -1.033013,-0.63618 -1.615738,-1.32438 -1.615738,-2.622344 0,-1.615657 1.191938,-2.913625 2.7547,-3.28493 l 1.536275,8.714464 m -2.3309,-27.229306 c 0.238388,-1.0595 1.456812,-3.840287 2.834162,-3.840287 0.397313,0 1.033013,1.297967 1.033013,3.125685 0,2.754379 -2.039538,4.820564 -3.867175,6.621874 -0.158925,-1.0595 -0.291362,-2.092592 -0.291362,-3.204907 0,-0.980278 0.07946,-1.881333 0.291362,-2.702365 m 6.092125,22.329522 c 0,1.880534 -0.768138,3.813884 -2.64875,4.582094 -0.556238,-3.1785 -1.2714,-7.390089 -1.456813,-8.555219 2.383875,0 4.105563,1.615658 4.105563,3.973125 M 8.1935871,112.51082 c 0,1.74769 1.3508625,4.05234 4.9266749,4.05234 1.244913,0 2.3309,-0.31769 3.28445,-0.90025 1.430325,-1.00669 1.80115,-2.75518 1.80115,-4.42365 0,-1.0331 -0.158925,-2.22463 -0.4238,-3.73466 -0.07946,-0.52975 -0.238388,-1.32438 -0.397313,-2.35747 2.595775,-0.84744 4.529363,-3.549 4.529363,-6.277776 0,-3.999533 -2.834163,-6.701098 -6.701338,-6.701098 -0.264875,-1.58925 -0.529749,-3.152092 -0.768137,-4.634912 2.807675,-2.940833 4.741262,-6.25137 4.741262,-10.462963 0,-2.410282 -0.74165,-4.370037 -1.16545,-5.323907 -0.6357,-1.350782 -1.403837,-2.278245 -1.880612,-2.278245 -0.185413,0 -1.006525,0.31849 -1.880612,1.350782 -1.6952,2.013371 -2.171975,5.403931 -2.171975,7.62856 0,1.430805 0.132437,2.728773 0.582725,5.695213 -0.02649,0.02641 -1.403838,1.430005 -1.960075,1.880532 -2.4103629,2.251038 -5.7477878,5.455945 -5.7477878,10.753445 0,4.953399 4.3174624,8.847309 9.2441378,8.847309 0.768137,0 1.483299,-0.0792 2.092512,-0.18566 0.503262,2.54312 0.794625,4.39725 0.794625,5.80085 0,2.75438 -1.403838,4.21159 -4.079075,4.21159 -0.6357,0 -1.191937,-0.13284 -1.244912,-0.13284 -0.02649,-0.0264 -0.07946,-0.0528 -0.07946,-0.0792 0,-0.0528 0.05297,-0.0792 0.132438,-0.10563 1.244912,-0.18565 2.489825,-1.24515 2.489825,-2.94003 0,-1.43081 -1.085988,-2.94004 -3.07255,-2.94004 -1.8541254,0 -3.0460629,1.50923 -3.0460629,3.25773 M 16.086862,34.910444 c -0.52975,0.106431 -1.033013,0.159246 -1.536275,0.159246 -3.787712,0 -7.0191874,-2.64875 -7.0191874,-6.648283 0,-3.232115 2.277925,-6.118932 4.6088254,-8.131982 0.450287,-0.397313 0.874087,-0.768138 1.2714,-1.16545 0.238387,1.430325 0.4238,2.675237 0.609212,3.761225 -2.410362,0.714842 -4.0525874,3.257962 -4.0525874,5.747467 0,1.854125 1.4568124,4.397245 3.5758124,4.397245 0.2119,0 0.450288,-0.10563 0.450288,-0.344097 0,-0.238468 -0.264875,-0.371306 -0.582725,-0.582565 -1.033013,-0.636181 -1.615738,-1.324375 -1.615738,-2.622343 0,-1.615657 1.191938,-2.913625 2.7547,-3.28493 l 1.536275,8.714467 m -2.3309,-27.2290691 c 0.238388,-1.0595 1.456812,-3.8406875 2.834162,-3.8406875 0.397313,0 1.033013,1.2978875 1.033013,3.125525 0,2.7546999 -2.039538,4.8207246 -3.867175,6.6218746 -0.158925,-1.0595 -0.291362,-2.092512 -0.291362,-3.204987 0,-0.9800376 0.07946,-1.8806126 0.291362,-2.7017251 m 6.092125,22.3292821 c 0,1.880533 -0.768138,3.81388 -2.64875,4.582097 -0.556238,-3.178499 -1.2714,-7.390092 -1.456813,-8.555222 2.383875,0 4.105563,1.615658 4.105563,3.973125 M 8.1935871,43.042347 c 0,1.747695 1.3508625,4.052347 4.9266749,4.052347 1.244913,0 2.3309,-0.31769 3.28445,-0.900255 1.430325,-1.006685 1.80115,-2.75518 1.80115,-4.423652 0,-1.033093 -0.158925,-2.22463 -0.4238,-3.734658 -0.07946,-0.52975 -0.238388,-1.324375 -0.397313,-2.357467 2.595775,-0.84744 4.529363,-3.549005 4.529363,-6.277778 0,-3.999532 -2.834163,-6.701097 -6.701338,-6.701097 -0.264875,-1.58925 -0.529749,-3.152012 -0.768137,-4.635312 2.807675,-2.940113 4.741262,-6.25105 4.741262,-10.4625626 0,-2.4103625 -0.74165,-4.3704375 -1.16545,-5.3239874 C 17.384749,0.92706249 16.616612,0 16.139837,0 c -0.185413,0 -1.006525,0.31784999 -1.880612,1.3508625 -1.6952,2.0130499 -2.171975,5.4034499 -2.171975,7.6283999 0,1.4303246 0.132437,2.7282126 0.582725,5.6948126 -0.02649,0.02649 -1.403838,1.430325 -1.960075,1.880612 -2.4103629,2.251438 -5.7477878,5.456425 -5.7477878,10.753605 0,4.953402 4.3174624,8.847305 9.2441378,8.847305 0.768137,0 1.483299,-0.07922 2.092512,-0.185653 0.503262,2.54312 0.794625,4.397245 0.794625,5.800843 0,2.75438 -1.403838,4.211592 -4.079075,4.211592 -0.6357,0 -1.191937,-0.132837 -1.244912,-0.132837 -0.02649,-0.02641 -0.07946,-0.05282 -0.07946,-0.07922 0,-0.05282 0.05297,-0.07922 0.132438,-0.10563 1.244912,-0.185652 2.489825,-1.245152 2.489825,-2.940032 0,-1.430805 -1.085988,-2.940033 -3.07255,-2.940033 -1.8541254,0 -3.0460629,1.509228 -3.0460629,3.257723 M 558.88623,93.41901 c 0,1.138723 0.82103,2.410283 2.96644,2.410283 2.75518,0 5.64239,-2.251038 5.64239,-4.582098 0,-1.562842 -1.32437,-2.436689 -2.96724,-2.436689 -2.56872,0 -5.64159,2.171814 -5.64159,4.608504 m -506.866714,6.61627 c 0,1.13873 0.821032,2.41029 2.96644,2.41029 2.75438,0 5.641597,-2.25184 5.641597,-4.582101 0,-1.562843 -1.324375,-2.43749 -2.96644,-2.43749 -2.569527,0 -5.641597,2.172615 -5.641597,4.609301 m 394.143594,59.54406 c 0,1.13873 0.82103,2.41029 2.96644,2.41029 2.75518,0 5.6416,-2.25104 5.6416,-4.5821 0,-1.56284 -1.32438,-2.43669 -2.96644,-2.43669 -2.56873,0 -5.6416,2.17181 -5.6416,4.6085 M 73.201513,96.727147 c 0,1.138722 0.821033,2.410282 2.96644,2.410282 2.75438,0 5.641594,-2.251837 5.641594,-4.582097 0,-1.562842 -1.324375,-2.43749 -2.966436,-2.43749 -2.569528,0 -5.641598,2.172615 -5.641598,4.609305 M 489.74185,162.88748 c 0,1.13872 0.82103,2.41028 2.96644,2.41028 2.75438,0 5.6416,-2.25104 5.6416,-4.5821 0,-1.56284 -1.32438,-2.43669 -2.96644,-2.43669 -2.56953,0 -5.6416,2.17182 -5.6416,4.60851 m -57.2258,0 c 0,1.13872 0.82103,2.41028 2.96644,2.41028 2.75518,0 5.64239,-2.25104 5.64239,-4.5821 0,-1.56284 -1.32437,-2.43669 -2.96724,-2.43669 -2.56872,0 -5.64159,2.17182 -5.64159,4.60851 M 94.383507,93.41901 c 0,1.138723 0.821033,2.410283 2.96644,2.410283 2.754383,0 5.641593,-2.251038 5.641593,-4.582098 0,-1.562842 -1.32437,-2.436689 -2.96644,-2.436689 -2.569523,0 -5.641593,2.171814 -5.641593,4.608504 m 317.661943,59.54406 c 0,1.13952 0.82103,2.41108 2.96644,2.41108 2.75518,0 5.6424,-2.25184 5.6424,-4.5829 0,-1.56284 -1.32438,-2.43669 -2.96724,-2.43669 -2.56873,0 -5.6416,2.17182 -5.6416,4.60851 M 425.67251,17.334508 c 0,1.138963 0.82103,2.410362 2.96724,2.410362 2.75438,0 5.64159,-2.251437 5.64159,-4.582337 0,-1.562762 -1.32437,-2.43685 -2.96643,-2.43685 -2.56953,0 -5.6424,2.171975 -5.6424,4.608825 M 125.02578,90.110874 c 0,1.138722 0.82184,2.410282 2.96724,2.410282 2.75438,0 5.6416,-2.251037 5.6416,-4.582097 0,-1.562843 -1.32437,-2.43669 -2.96644,-2.43669 -2.56953,0 -5.6424,2.171815 -5.6424,4.608505 m -2.00136,-66.160333 c 0,1.138723 0.82183,2.410283 2.96724,2.410283 2.75438,0 5.64159,-2.251038 5.64159,-4.582258 0,-1.562762 -1.32437,-2.43685 -2.96644,-2.43685 -2.56952,0 -5.64239,2.171975 -5.64239,4.608825 M 382.11377,162.88748 c 0,1.13872 0.82184,2.41028 2.96724,2.41028 2.75438,0 5.6416,-2.25104 5.6416,-4.5821 0,-1.56284 -1.32437,-2.43669 -2.96644,-2.43669 -2.56953,0 -5.6424,2.17182 -5.6424,4.60851 M 146.20858,93.41901 c 0,1.138723 0.82103,2.410283 2.96644,2.410283 2.75438,0 5.6416,-2.251038 5.6416,-4.582098 0,-1.562842 -1.32438,-2.436689 -2.96644,-2.436689 -2.56953,0 -5.6416,2.171814 -5.6416,4.608504 m 21.182,-9.92441 c 0,1.139523 0.82103,2.411083 2.96644,2.411083 2.75438,0 5.6416,-2.251838 5.6416,-4.582898 0,-1.562842 -1.32438,-2.436689 -2.96644,-2.436689 -2.56953,0 -5.6416,2.171814 -5.6416,4.608504 m 201.07693,76.08474 c 0,1.13873 0.82103,2.41029 2.96644,2.41029 2.75438,0 5.6416,-2.25104 5.6416,-4.5821 0,-1.56284 -1.32438,-2.43669 -2.96644,-2.43669 -2.56953,0 -5.6416,2.17181 -5.6416,4.6085 M 406.18379,27.258678 c 0,1.138722 0.82103,2.410282 2.96724,2.410282 2.75438,0 5.6416,-2.251837 5.6416,-4.582097 0,-1.562842 -1.32438,-2.43709 -2.96644,-2.43709 -2.56953,0 -5.6424,2.172215 -5.6424,4.608905 M 198.03285,106.65076 c 0,1.13952 0.82184,2.41108 2.96724,2.41108 2.75438,0 5.6416,-2.25184 5.6416,-4.5829 0,-1.56284 -1.32437,-2.43669 -2.96644,-2.43669 -2.56953,0 -5.6424,2.17182 -5.6424,4.60851 M 454.6223,23.950541 c 0,1.138723 0.82104,2.410283 2.96644,2.410283 2.75518,0 5.6424,-2.251038 5.6424,-4.582258 0,-1.562762 -1.32437,-2.43685 -2.96644,-2.43685 -2.56953,0 -5.6424,2.171975 -5.6424,4.608825 m -318.6054,6.616274 c 0,1.138722 0.82183,2.410282 2.96724,2.410282 2.75438,0 5.64159,-2.251838 5.64159,-4.582097 0,-1.562843 -1.32437,-2.43749 -2.96644,-2.43749 -2.56952,0 -5.64239,2.172615 -5.64239,4.609305 M 342.51696,156.27121 c 0,1.13952 0.82184,2.41028 2.96724,2.41028 2.75438,0 5.6416,-2.25104 5.6416,-4.5821 0,-1.56284 -1.32437,-2.43669 -2.96644,-2.43669 -2.56953,0 -5.6424,2.17182 -5.6424,4.60851 M 219.21485,103.34342 c 0,1.13872 0.82183,2.41028 2.96724,2.41028 2.75438,0 5.6416,-2.25183 5.6416,-4.58289 0,-1.562047 -1.32438,-2.436695 -2.96644,-2.436695 -2.56953,0 -5.6424,2.171815 -5.6424,4.609305 m 21.182,-3.30814 c 0,1.13873 0.82183,2.41029 2.96724,2.41029 2.75438,0 5.6416,-2.25184 5.6416,-4.582101 0,-1.562843 -1.32438,-2.43749 -2.96644,-2.43749 -2.56953,0 -5.6424,2.172615 -5.6424,4.609301 M 164.96669,27.258678 c 0,1.138722 0.82103,2.410282 2.96724,2.410282 2.75438,0 5.6416,-2.251837 5.6416,-4.582097 0,-1.562842 -1.32438,-2.43709 -2.96644,-2.43709 -2.56953,0 -5.6424,2.172215 -5.6424,4.608905 M 310.38787,152.96307 c 0,1.13952 0.82103,2.41108 2.96644,2.41108 2.75518,0 5.64239,-2.25184 5.64239,-4.5829 0,-1.56284 -1.32437,-2.43669 -2.96724,-2.43669 -2.56872,0 -5.64159,2.17182 -5.64159,4.60851 m 76.3072,-125.704392 c 0,1.138722 0.82103,2.410282 2.96724,2.410282 2.75438,0 5.6416,-2.251837 5.6416,-4.582097 0,-1.562842 -1.32438,-2.43709 -2.96644,-2.43709 -2.56953,0 -5.6424,2.172215 -5.6424,4.608905 M 273.02689,104.50855 c -0.87385,0 -1.0595,-0.7154 -1.0595,-0.95387 0,-1.29717 4.45006,-3.575412 5.69441,-3.575412 0.63618,0 1.0595,0.370502 1.0595,0.953872 0,1.32437 -4.47647,3.57541 -5.69441,3.57541 m 3.65543,-5.774435 c -2.56952,0 -5.64239,2.145405 -5.64239,4.609305 0,1.13872 0.82103,2.41028 2.96724,2.41028 2.75438,0 5.64159,-2.25183 5.64159,-4.58289 0,-1.562047 -1.32437,-2.436695 -2.96644,-2.436695 m 22.78806,57.537095 c 0,1.13952 0.82103,2.41028 2.96643,2.41028 2.75519,0 5.6416,-2.25104 5.6416,-4.5821 0,-1.56284 -1.32437,-2.43669 -2.96644,-2.43669 -2.56872,0 -5.64159,2.17182 -5.64159,4.60851 m 3.34254,-62.8522 c 0,1.138723 0.82183,2.410283 2.96724,2.410283 2.75438,0 5.6416,-2.251038 5.6416,-4.582098 0,-1.562842 -1.32438,-2.436689 -2.96644,-2.436689 -2.56953,0 -5.6424,2.171814 -5.6424,4.608504 m 207.39872,76.08474 c 0,1.13873 0.82184,2.41029 2.96724,2.41029 2.75438,0 5.6416,-2.25184 5.6416,-4.5821 0,-1.56284 -1.32437,-2.43749 -2.96644,-2.43749 -2.56953,0 -5.6424,2.17261 -5.6424,4.6093 m -229.77065,-9.92441 c 0,1.13873 0.82103,2.41029 2.96644,2.41029 2.75438,0 5.64159,-2.25104 5.64159,-4.5821 0,-1.56284 -1.32437,-2.43669 -2.96644,-2.43669 -2.56952,0 -5.64159,2.17181 -5.64159,4.6085 M 661.01034,27.258678 c 0,1.138722 0.82103,2.410282 2.96644,2.410282 2.75518,0 5.6416,-2.251837 5.6416,-4.582097 0,-1.562842 -1.32438,-2.43709 -2.96644,-2.43709 -2.56873,0 -5.6416,2.172215 -5.6416,4.608905 m -476.55493,6.616273 c 0,1.138723 0.82103,2.410283 2.96724,2.410283 2.75438,0 5.6416,-2.251838 5.6416,-4.582898 0,-1.562842 -1.32438,-2.43669 -2.96644,-2.43669 -2.56953,0 -5.6424,2.171815 -5.6424,4.609305 m 75.51498,125.704389 c 0,1.13873 0.82103,2.41029 2.96644,2.41029 2.75438,0 5.6416,-2.25104 5.6416,-4.5821 0,-1.56284 -1.32438,-2.43669 -2.96644,-2.43669 -2.56953,0 -5.6416,2.17181 -5.6416,4.6085 m 56.96413,-66.16033 c 0,1.138723 0.82103,2.410283 2.96644,2.410283 2.75518,0 5.6424,-2.251038 5.6424,-4.582098 0,-1.562842 -1.32438,-2.436689 -2.96724,-2.436689 -2.56873,0 -5.6416,2.171814 -5.6416,4.608504 m -77.43472,62.8522 c 0,1.13952 0.82103,2.41028 2.96644,2.41028 2.75437,0 5.64159,-2.25104 5.64159,-4.5821 0,-1.56284 -1.32437,-2.43669 -2.96644,-2.43669 -2.56953,0 -5.64159,2.17182 -5.64159,4.60851 M 358.70875,23.950541 c 0,1.138723 0.82103,2.410283 2.96644,2.410283 2.75438,0 5.64159,-2.251038 5.64159,-4.582258 0,-1.562762 -1.32437,-2.43685 -2.96644,-2.43685 -2.56952,0 -5.64159,2.171975 -5.64159,4.608825 m -13.78711,66.160333 c 0,1.138722 0.82104,2.410282 2.96644,2.410282 2.75438,0 5.6416,-2.251037 5.6416,-4.582097 0,-1.562843 -1.32437,-2.43669 -2.96644,-2.43669 -2.56953,0 -5.6416,2.171815 -5.6416,4.608505 M 203.94413,23.950541 c 0,1.138723 0.82103,2.410283 2.96724,2.410283 2.75438,0 5.6416,-2.251038 5.6416,-4.582258 0,-1.562762 -1.32438,-2.43685 -2.96644,-2.43685 -2.56953,0 -5.6424,2.171975 -5.6424,4.608825 m 7.56854,132.320669 c 0,1.13952 0.82103,2.41028 2.96644,2.41028 2.75518,0 5.6424,-2.25104 5.6424,-4.5821 0,-1.56284 -1.32438,-2.43669 -2.96724,-2.43669 -2.56873,0 -5.6416,2.17182 -5.6416,4.60851 m 154.59097,-62.8522 c 0,1.138723 0.82103,2.410283 2.96644,2.410283 2.75518,0 5.6416,-2.251038 5.6416,-4.582098 0,-1.562842 -1.32438,-2.436689 -2.96644,-2.436689 -2.56873,0 -5.6416,2.171814 -5.6416,4.608504 m 21.182,-9.92441 c 0,1.139523 0.82103,2.411083 2.96644,2.411083 2.75518,0 5.6416,-2.251838 5.6416,-4.582898 0,-1.562842 -1.32438,-2.436689 -2.96644,-2.436689 -2.56873,0 -5.6416,2.171814 -5.6416,4.608504 m -186.69046,76.08474 c 0,1.13873 0.82103,2.41029 2.96644,2.41029 2.75518,0 5.6424,-2.25104 5.6424,-4.5821 0,-1.56284 -1.32438,-2.43669 -2.96724,-2.43669 -2.56873,0 -5.6416,2.17181 -5.6416,4.6085 m 323.26353,6.61628 c 0,1.13872 0.82103,2.41028 2.96724,2.41028 2.75438,0 5.6416,-2.25104 5.6416,-4.5821 0,-1.56284 -1.32438,-2.43669 -2.96644,-2.43669 -2.56953,0 -5.6424,2.17182 -5.6424,4.60851 m 14.22483,-3.30814 c 0,1.13872 0.82103,2.41028 2.96644,2.41028 2.75518,0 5.64159,-2.25104 5.64159,-4.5821 0,-1.56284 -1.32437,-2.43669 -2.96644,-2.43669 -2.56872,0 -5.64159,2.17182 -5.64159,4.60851 m -356.51775,0 c 0,1.13872 0.82103,2.41028 2.96644,2.41028 2.75438,0 5.6416,-2.25104 5.6416,-4.5821 0,-1.56284 -1.32438,-2.43669 -2.96644,-2.43669 -2.56953,0 -5.6416,2.17182 -5.6416,4.60851 M 345.71627,20.642485 c 0,1.138962 0.82103,2.410362 2.96644,2.410362 2.75438,0 5.6416,-2.251437 5.6416,-4.582337 0,-1.562763 -1.32438,-2.43685 -2.96644,-2.43685 -2.56953,0 -5.6416,2.171975 -5.6416,4.608825 M 161.0952,162.88748 c 0,1.13872 0.82103,2.41028 2.96644,2.41028 2.75438,0 5.64159,-2.25104 5.64159,-4.5821 0,-1.56284 -1.32437,-2.43669 -2.96644,-2.43669 -2.56952,0 -5.64159,2.17182 -5.64159,4.60851 M 417.92871,83.4946 c 0,1.139523 0.82104,2.411083 2.96644,2.411083 2.75438,0 5.6416,-2.251838 5.6416,-4.582898 0,-1.562842 -1.32437,-2.436689 -2.96644,-2.436689 -2.56953,0 -5.6416,2.171814 -5.6416,4.608504 M 140.6246,159.57934 c 0,1.13873 0.82103,2.41029 2.96644,2.41029 2.75518,0 5.6416,-2.25104 5.6416,-4.5821 0,-1.56284 -1.32438,-2.43669 -2.96644,-2.43669 -2.56873,0 -5.6416,2.17181 -5.6416,4.6085 M 98.319822,27.258678 c 0,1.138722 0.821032,2.410282 2.966438,2.410282 2.75438,0 5.6416,-2.251837 5.6416,-4.582097 0,-1.562842 -1.32438,-2.43709 -2.96644,-2.43709 -2.56953,0 -5.641598,2.172215 -5.641598,4.608905 m 134.574098,3.308137 c 0,1.138722 0.82104,2.410282 2.96644,2.410282 2.75518,0 5.6424,-2.251838 5.6424,-4.582097 0,-1.562843 -1.32437,-2.43749 -2.96644,-2.43749 -2.56953,0 -5.6424,2.172615 -5.6424,4.609305 m 415.12394,-6.616274 c 0,1.138723 0.82103,2.410283 2.96644,2.410283 2.75518,0 5.6416,-2.251038 5.6416,-4.582258 0,-1.562762 -1.32438,-2.43685 -2.96644,-2.43685 -2.56873,0 -5.6416,2.171975 -5.6416,4.608825 M 112.63748,159.57934 c 0,1.13873 0.82103,2.41029 2.96644,2.41029 2.75518,0 5.64239,-2.25104 5.64239,-4.5821 0,-1.56284 -1.32437,-2.43669 -2.96724,-2.43669 -2.56872,0 -5.64159,2.17181 -5.64159,4.6085 M 432.04951,86.802737 c 0,1.139523 0.82184,2.410282 2.96724,2.410282 2.75438,0 5.6416,-2.251037 5.6416,-4.582097 0,-1.562842 -1.32437,-2.43669 -2.96644,-2.43669 -2.56953,0 -5.6424,2.171815 -5.6424,4.608505 M 101.71998,162.88748 c 0,1.13872 0.82104,2.41028 2.96644,2.41028 2.75518,0 5.6424,-2.25104 5.6424,-4.5821 0,-1.56284 -1.32437,-2.43669 -2.96724,-2.43669 -2.56873,0 -5.6416,2.17182 -5.6416,4.60851 M 318.46935,38.348218 c -0.87384,0 -1.0595,-0.715403 -1.0595,-0.95387 0,-1.297968 4.45006,-3.575413 5.69522,-3.575413 0.63538,0 1.0595,0.370505 1.0595,0.95307 0,1.324375 -4.47647,3.576213 -5.69522,3.576213 m 3.65544,-5.774435 c -2.56953,0 -5.6416,2.145407 -5.6416,4.608505 0,1.139522 0.82103,2.411082 2.96644,2.411082 2.75438,0 5.6416,-2.251837 5.6416,-4.582897 0,-1.562843 -1.32438,-2.43669 -2.96644,-2.43669 m 151.98623,-2.006968 c 0,1.138722 0.82103,2.410282 2.96644,2.410282 2.75518,0 5.6424,-2.251838 5.6424,-4.582097 0,-1.562843 -1.32438,-2.43749 -2.96644,-2.43749 -2.56953,0 -5.6424,2.172615 -5.6424,4.609305 M 90.802494,166.19562 c 0,1.13872 0.821032,2.41028 2.966439,2.41028 2.755181,0 5.642398,-2.25104 5.642398,-4.5821 0,-1.56284 -1.324375,-2.43669 -2.96724,-2.43669 -2.568727,0 -5.641597,2.17182 -5.641597,4.60851 m 477.212716,3.30813 c 0,1.13873 0.82103,2.41029 2.96644,2.41029 2.75438,0 5.6416,-2.25184 5.6416,-4.5821 0,-1.56284 -1.32438,-2.43749 -2.96644,-2.43749 -2.56953,0 -5.6416,2.17261 -5.6416,4.6093 M 70.331901,166.19562 c 0,1.13872 0.821032,2.41028 2.96644,2.41028 2.75518,0 5.642397,-2.25104 5.642397,-4.5821 0,-1.56284 -1.324375,-2.43669 -2.96724,-2.43669 -2.568727,0 -5.641597,2.17182 -5.641597,4.60851 M 460.29271,86.802737 c 0,1.139523 0.82103,2.410282 2.96644,2.410282 2.75438,0 5.6416,-2.251037 5.6416,-4.582097 0,-1.562842 -1.32438,-2.43669 -2.96644,-2.43669 -2.56953,0 -5.6416,2.171815 -5.6416,4.608505 M 49.861305,166.19562 c 0,1.13872 0.821032,2.41028 2.96644,2.41028 2.75518,0 5.642397,-2.25104 5.642397,-4.5821 0,-1.56284 -1.324375,-2.43669 -2.96644,-2.43669 -2.569527,0 -5.642397,2.17182 -5.642397,4.60851 M 474.41431,90.110874 c 0,1.138722 0.82103,2.410282 2.96644,2.410282 2.75438,0 5.6416,-2.251037 5.6416,-4.582097 0,-1.562843 -1.32438,-2.43669 -2.96644,-2.43669 -2.56953,0 -5.6416,2.171815 -5.6416,4.608505 m 19.18543,-66.160333 c 0,1.138723 0.82103,2.410283 2.96644,2.410283 2.75518,0 5.6424,-2.251038 5.6424,-4.582258 0,-1.562762 -1.32438,-2.43685 -2.96644,-2.43685 -2.56953,0 -5.6424,2.171975 -5.6424,4.608825 m 97.58363,1.16513 c -0.87385,0 -1.0595,-0.714602 -1.0595,-0.95307 0,-1.298047 4.45006,-3.575972 5.69521,-3.575972 0.63538,0 1.0595,0.370825 1.0595,0.95355 0,1.324375 -4.47647,3.575492 -5.69521,3.575492 m 3.65543,-5.773955 c -2.56952,0 -5.64159,2.145488 -5.64159,4.608825 0,1.138723 0.82103,2.410283 2.96644,2.410283 2.75438,0 5.64159,-2.251038 5.64159,-4.582258 0,-1.562762 -1.32437,-2.43685 -2.96644,-2.43685 m -0.87384,153.470174 c 0,1.13872 0.82103,2.41028 2.96644,2.41028 2.75438,0 5.64159,-2.25184 5.64159,-4.5829 0,-1.56204 -1.32437,-2.43669 -2.96644,-2.43669 -2.56952,0 -5.64159,2.17182 -5.64159,4.60931 M 488.53511,93.41901 c 0,1.138723 0.82103,2.410283 2.96644,2.410283 2.75518,0 5.64239,-2.251038 5.64239,-4.582098 0,-1.562842 -1.32437,-2.436689 -2.96644,-2.436689 -2.56952,0 -5.64239,2.171814 -5.64239,4.608504 M 257.59932,33.874951 c 0,1.138723 0.82103,2.410283 2.96644,2.410283 2.75518,0 5.6424,-2.251838 5.6424,-4.582898 0,-1.562842 -1.32438,-2.43669 -2.96724,-2.43669 -2.56873,0 -5.6416,2.171815 -5.6416,4.609305 m 30.89675,0 c 0,1.138723 0.82103,2.410283 2.96644,2.410283 2.75438,0 5.6416,-2.251838 5.6416,-4.582898 0,-1.562842 -1.32438,-2.43669 -2.96644,-2.43669 -2.56953,0 -5.6416,2.171815 -5.6416,4.609305 m -12.99248,-3.308136 c 0,1.138722 0.82103,2.410282 2.96644,2.410282 2.75438,0 5.6416,-2.251838 5.6416,-4.582097 0,-1.562843 -1.32438,-2.43749 -2.96644,-2.43749 -2.56953,0 -5.6416,2.172615 -5.6416,4.609305 m 385.50675,59.544059 c 0,1.138722 0.82103,2.410282 2.96644,2.410282 2.75518,0 5.6416,-2.251037 5.6416,-4.582097 0,-1.562843 -1.32438,-2.43669 -2.96644,-2.43669 -2.56873,0 -5.6416,2.171815 -5.6416,4.608505 M 522.54954,23.950541 c 0,1.138723 0.82103,2.410283 2.96644,2.410283 2.75518,0 5.64239,-2.251038 5.64239,-4.582258 0,-1.562762 -1.32437,-2.43685 -2.96724,-2.43685 -2.56872,0 -5.64159,2.171975 -5.64159,4.608825 M 446.17111,83.4946 c 0,1.139523 0.82103,2.411083 2.96644,2.411083 2.75518,0 5.6424,-2.251838 5.6424,-4.582898 0,-1.562842 -1.32438,-2.436689 -2.96724,-2.436689 -2.56873,0 -5.6416,2.171814 -5.6416,4.608504 m 70.35112,6.616274 c 0,1.138722 0.82103,2.410282 2.96644,2.410282 2.75518,0 5.6424,-2.251037 5.6424,-4.582097 0,-1.562843 -1.32438,-2.43669 -2.96724,-2.43669 -2.56873,0 -5.6416,2.171815 -5.6416,4.608505 m 91.08979,86.008356 c 0,1.13952 0.82103,2.41108 2.96644,2.41108 2.75438,0 5.6416,-2.25184 5.6416,-4.5829 0,-1.56284 -1.32438,-2.43669 -2.96644,-2.43669 -2.56953,0 -5.6416,2.17182 -5.6416,4.60851 m 9.49069,-74.91882 c -0.87465,0 -1.0595,-0.7154 -1.0595,-0.95307 0,-1.297964 4.45006,-3.576209 5.69441,-3.576209 0.63618,0 1.0595,0.370505 1.0595,0.95387 0,1.324375 -4.47647,3.575409 -5.69441,3.575409 m 3.65543,-5.774431 c -2.56952,0 -5.64239,2.145407 -5.64239,4.609301 0,1.13873 0.82103,2.41029 2.96644,2.41029 2.75518,0 5.64239,-2.25184 5.64239,-4.582101 0,-1.562843 -1.32437,-2.43749 -2.96644,-2.43749 M 530.64383,93.41901 c 0,1.138723 0.82103,2.410283 2.96644,2.410283 2.75438,0 5.6416,-2.251038 5.6416,-4.582098 0,-1.562842 -1.32438,-2.436689 -2.96644,-2.436689 -2.56953,0 -5.6416,2.171814 -5.6416,4.608504 M 64.497449,23.950541 c 0,1.138723 0.821032,2.410283 2.96644,2.410283 2.75518,0 5.642397,-2.251038 5.642397,-4.582258 0,-1.562762 -1.324375,-2.43685 -2.96644,-2.43685 -2.569527,0 -5.642397,2.171975 -5.642397,4.608825 m 495.749961,3.308137 c 0,1.138722 0.82103,2.410282 2.96644,2.410282 2.75518,0 5.6424,-2.251837 5.6424,-4.582097 0,-1.562842 -1.32438,-2.43709 -2.96724,-2.43709 -2.56873,0 -5.6416,2.172215 -5.6416,4.608905 m -15.48278,69.468469 c 0,1.138722 0.82103,2.410282 2.96724,2.410282 2.75438,0 5.64159,-2.251837 5.64159,-4.582097 0,-1.562842 -1.32437,-2.43749 -2.96644,-2.43749 -2.56952,0 -5.64239,2.172615 -5.64239,4.609305 m 42.36399,3.308133 c 0,1.13873 0.82183,2.41029 2.96724,2.41029 2.75438,0 5.6416,-2.25184 5.6416,-4.582101 0,-1.562843 -1.32438,-2.43749 -2.96644,-2.43749 -2.56953,0 -5.6424,2.172615 -5.6424,4.609301 M 547.25493,20.642485 c 0,1.138962 0.82103,2.410362 2.96644,2.410362 2.75518,0 5.6424,-2.251437 5.6424,-4.582337 0,-1.562763 -1.32438,-2.43685 -2.96724,-2.43685 -2.56873,0 -5.6416,2.171975 -5.6416,4.608825 m 92.27493,156.642675 c -0.87385,0 -1.0595,-0.71541 -1.0595,-0.95387 0,-1.29797 4.45006,-3.57542 5.69441,-3.57542 0.63618,0 1.0595,0.37051 1.0595,0.95307 0,1.32438 -4.47567,3.57622 -5.69441,3.57622 m 3.65543,-5.77444 c -2.56952,0 -5.64239,2.14541 -5.64239,4.60851 0,1.13952 0.82183,2.41108 2.96724,2.41108 2.75438,0 5.64159,-2.25184 5.64159,-4.5829 0,-1.56284 -1.32437,-2.43669 -2.96644,-2.43669 M 573.00782,96.727147 c 0,1.138722 0.82104,2.410282 2.96644,2.410282 2.75438,0 5.6416,-2.251837 5.6416,-4.582097 0,-1.562842 -1.32437,-2.43749 -2.96644,-2.43749 -2.56953,0 -5.6416,2.172615 -5.6416,4.609305 M 459.81017,156.27121 c 0,1.13952 0.82104,2.41028 2.96644,2.41028 2.75438,0 5.6416,-2.25104 5.6416,-4.5821 0,-1.56284 -1.32437,-2.43669 -2.96644,-2.43669 -2.56953,0 -5.6416,2.17182 -5.6416,4.60851 m 187.07857,-62.8522 c 0,1.138723 0.82103,2.410283 2.96644,2.410283 2.75518,0 5.6424,-2.251038 5.6424,-4.582098 0,-1.562842 -1.32438,-2.436689 -2.96644,-2.436689 -2.56953,0 -5.6424,2.171814 -5.6424,4.608504 M 547.25493,41.00577 c 0,0.185653 0.15925,0.344098 0.3441,0.344098 0.13284,0 0.29128,-0.10563 0.31849,-0.21206 0,-0.02641 0.23767,-0.95307 0.26487,-1.032293 0.0264,-0.10643 0.26488,-1.113115 1.21795,-2.675957 1.03309,-1.721288 2.62234,-2.96644 3.94672,-4.820565 1.29796,-1.854125 2.09259,-3.60182 2.09259,-5.93288 0,-2.410282 -0.55616,-4.423572 -1.95976,-6.99286 -0.08,-0.185412 -0.23846,-0.291362 -0.39771,-0.291362 -0.0528,0 -0.10563,0 -0.13204,0.02649 -0.13283,0.05297 -0.18565,0.158925 -0.18565,0.31785 0,0.07946 0.0264,0.2119 0.0792,0.31785 1.0595,2.463338 1.48362,3.866855 1.48362,5.774595 0,2.198222 -0.76821,3.336945 -1.24515,4.157977 -1.72129,2.940033 -4.50287,4.370838 -5.61519,4.741343 -0.18565,0.08002 -0.21206,0.21206 -0.21206,0.291282 v 5.986495 m 54.64908,113.549747 c 0,0.0792 0.0264,0.21206 0.21206,0.29128 1.13872,0.37131 3.41696,1.80131 5.13825,4.74135 0.47693,0.82103 1.24515,1.96055 1.24515,4.15877 0,1.90694 -0.50334,3.8667 -1.19234,5.77444 -0.0528,0.15844 -0.10563,0.29128 -0.0792,0.39691 0,0.15925 0.10643,0.26488 0.26488,0.26488 0.18565,0 0.31769,-0.10563 0.42412,-0.29129 1.19153,-2.119 1.64206,-4.58209 1.64206,-6.99238 -0.13284,-3.41696 -2.09259,-5.93368 -2.09259,-5.93368 0.0792,0 -2.43669,-3.25772 -3.15209,-4.37003 -0.98028,-1.51003 -1.43001,-3.02006 -1.48282,-3.12569 -0.0272,-0.0792 -0.26488,-1.03309 -0.26488,-1.03309 -0.0272,-0.10563 -0.15924,-0.21206 -0.31849,-0.21206 -0.18485,0 -0.34409,0.15924 -0.34409,0.3449 v 5.98569 M 123.02442,44.313907 c 0,0.184852 0.15924,0.344097 0.34489,0.344097 0.13204,0 0.29129,-0.10563 0.31769,-0.21206 0,-0.02641 0.23847,-0.95307 0.26488,-1.033092 0.0264,-0.10563 0.26487,-1.112315 1.21874,-2.675158 1.0323,-1.721287 2.62155,-2.96644 3.94592,-4.820565 1.29797,-1.854125 2.09259,-3.60262 2.09259,-5.932879 0,-2.410283 -0.55615,-4.423653 -1.95975,-6.99294 -0.0792,-0.185413 -0.23847,-0.291363 -0.39771,-0.291363 -0.0528,0 -0.10563,0 -0.13204,0.02649 -0.13284,0.05297 -0.18565,0.158925 -0.18565,0.31785 0,0.07946 0.0264,0.2119 0.08,0.31809 1.0595,2.463097 1.48282,3.866695 1.48282,5.773634 0,2.199023 -0.76822,3.337746 -1.24515,4.158778 -1.72129,2.940032 -4.50288,4.370838 -5.61519,4.741342 -0.18486,0.07922 -0.21206,0.21206 -0.21206,0.291283 v 5.986495 M 368.46751,179.94271 c 0,0.18565 0.15845,0.3441 0.3441,0.3441 0.13204,0 0.29128,-0.10563 0.31769,-0.21206 0,-0.0264 0.23847,-0.95307 0.26487,-1.0323 0.0264,-0.10643 0.26488,-1.11311 1.21875,-2.67595 1.03309,-1.72129 2.62234,-2.96644 3.94672,-4.82057 1.29716,-1.85412 2.09179,-3.60182 2.09179,-5.93288 0,-2.41028 -0.55616,-4.42365 -1.95976,-6.99318 -0.0792,-0.18485 -0.23846,-0.29128 -0.39691,-0.29128 -0.0536,0 -0.10643,0 -0.13284,0.0264 -0.13203,0.0536 -0.18565,0.15924 -0.18565,0.31849 0,0.0792 0.0264,0.21126 0.08,0.31769 1.0595,2.46309 1.48282,3.86669 1.48282,5.77443 0,2.19822 -0.76821,3.33695 -1.24435,4.15798 -1.72209,2.94003 -4.50287,4.37084 -5.61599,4.74134 -0.18485,0.08 -0.21126,0.21206 -0.21126,0.29128 v 5.9865 M 265.53837,15.618662 c 0,0.07946 0.0264,0.2119 0.21206,0.291363 1.13872,0.370825 3.41697,1.80115 5.13905,4.741262 0.47614,0.821113 1.24436,1.960075 1.24436,4.158698 0,1.90694 -0.50335,3.866694 -1.19154,5.774435 -0.0528,0.158444 -0.10643,0.291282 -0.08,0.396912 0,0.159245 0.10643,0.264875 0.26487,0.264875 0.18565,0 0.31849,-0.10563 0.42412,-0.291283 1.19234,-2.118999 1.64207,-4.582097 1.64207,-6.992379 -0.13204,-3.417208 -2.0926,-5.93352 -2.0926,-5.93352 0.08,0 -2.43669,-3.257963 -3.15209,-4.370438 -0.97948,-1.509787 -1.43,-3.019575 -1.48282,-3.125525 -0.0264,-0.07946 -0.26487,-1.0330122 -0.26487,-1.0330122 -0.0264,-0.10595 -0.15925,-0.2119 -0.31769,-0.2119 -0.18566,0 -0.3449,0.158925 -0.3449,0.3443375 v 5.9861747 m 315.40814,61.839037 v 17.098433 h 0.66176 V 77.457699 Z m 65.94258,15.960455 V 110.46376 H 647.551 V 93.418154 Z m 14.12087,-3.308121 v 18.773287 h 0.66175 V 90.110033 Z m -144.48809,0 v 18.773287 h 0.66175 V 90.110033 Z M 283.44228,9.6459975 V 28.39584 h 0.66175 V 9.6459975 Z m 40.97958,3.2679565 v 22.097351 h 0.66174 V 12.913954 Z M 265.53878,9.65897 v 22.044991 h 0.66174 V 9.65897 Z m 222.99673,83.759184 v 17.045606 h 0.66174 V 93.418154 Z M 623.05515,75.766748 v 22.097505 h 0.66176 V 75.766748 Z M 57.800737,143.58126 v 20.44329 h 0.661755 V 143.58126 Z M 474.41385,90.110033 v 18.773287 h 0.66191 V 90.110033 Z M 78.271381,143.58126 v 20.44329 h 0.661747 V 143.58126 Z M 460.29235,86.801905 v 18.699675 h 0.66175 V 86.801905 Z M 90.802109,166.19486 v 18.68763 h 0.661756 v -18.68763 z m 10.917471,-3.30813 v 20.39046 h 0.66175 V 162.88673 Z M 345.71585,20.641454 v 18.776723 h 0.66175 V 20.641454 Z M 112.63783,159.57861 v 22.09344 h 0.66191 V 159.57861 Z M 432.04999,86.801905 v 18.699675 h 0.66174 V 86.801905 Z M 140.62418,159.57861 v 20.39046 h 0.66176 v -20.39046 z m 20.47065,3.30812 v 18.7364 h 0.66175 v -18.7364 z m 256.8335,-79.392946 v 20.428126 h 0.66175 V 83.493784 Z M 181.56546,162.88673 v 18.70045 h 0.66176 v -18.70045 z m 19.0293,-3.30812 v 19.95205 h 0.66175 V 159.57861 Z M 240.83334,6.2980184 V 28.39584 h 0.66175 V 6.2980184 Z M 387.28528,83.493784 v 22.044676 h 0.66175 V 83.493784 Z M 211.51223,156.27048 v 22.08063 h 0.6619 V 156.27048 Z M 366.10319,93.418154 v 18.736556 h 0.6619 V 93.418154 Z M 203.94446,23.949733 v 18.736553 h 0.6619 V 23.949733 Z m 140.97679,66.1603 V 110.50065 H 345.583 V 90.110033 Z m 13.78703,-66.1603 v 17.042481 h 0.6619 V 23.949733 Z M 239.49937,156.27048 v 22.04453 h 0.66175 v -22.04453 z m 20.47064,3.30813 v 20.39046 h 0.66175 V 159.57861 Z M 316.9341,93.418154 v 17.082496 h 0.66176 V 93.418154 Z m -36.49345,66.160456 v 20.37295 h 0.66175 v -20.37295 z m 19.02929,-3.30813 v 22.65267 h 0.66175 v -22.65267 z m 3.34345,-62.852326 v 17.082496 h 0.66175 V 93.418154 Z M 192.39479,9.6059862 V 31.703961 h 0.6619 V 9.6059862 Z M 278.9793,79.074093 v 22.098287 h 0.6619 V 79.074093 Z M 394.63454,4.6439565 V 25.087711 h 0.66175 V 4.6439565 Z M 310.38741,152.9622 v 25.37047 h 0.66191 V 152.9622 Z M 172.90614,4.6439565 V 25.087711 h 0.66175 V 4.6439565 Z m 75.43011,71.1227915 v 22.097505 h 0.66191 V 75.766748 Z m 94.18104,80.503732 v 22.04453 h 0.6619 V 156.27048 Z M 227.15432,79.074093 v 22.098287 h 0.66174 V 79.074093 Z m 325.54983,-3.344851 v 18.82689 h 0.66174 v -18.82689 z m -346.73178,6.652971 v 22.097517 h 0.66176 V 82.382213 Z M 414.12319,4.6439565 V 25.087711 h 0.66191 V 4.6439565 Z M 368.46713,159.57861 v 20.36404 h 0.66175 V 159.57861 Z M 143.95638,6.2980184 V 28.39584 h 0.66175 V 6.2980184 Z M 167.3902,83.493784 v 22.044676 h 0.66175 V 83.493784 Z m 214.72393,79.392946 v 18.7364 h 0.6619 v -18.7364 z M 146.20811,93.418154 v 18.736556 h 0.66191 V 93.418154 Z M 123.02483,23.949733 v 20.364206 h 0.66175 V 23.949733 Z m 2.00135,66.1603 v 20.390617 h 0.66175 V 90.110033 Z M 425.67287,17.333486 v 22.044679 h 0.6619 V 17.333486 Z M 412.04588,152.9622 v 22.04468 h 0.66175 V 152.9622 Z m 20.4697,9.92453 v 17.04405 h 0.66191 V 162.88673 Z M 94.383123,93.418154 v 18.736556 h 0.661756 V 93.418154 Z M 446.16272,159.57861 v 18.77484 h 0.66176 V 159.57861 Z M 81.140158,74.112688 v 20.443444 h 0.661747 V 74.112688 Z M 454.62278,23.949733 v 18.736553 h 0.66175 V 23.949733 Z m 5.18694,132.320747 v 22.04453 h 0.6619 V 156.27048 Z M 59.958228,75.766748 v 22.097505 h 0.661747 V 75.766748 Z M 296.43471,11.219881 v 20.48408 h 0.66175 V 11.219881 Z M 489.74147,162.88673 v 18.7364 h 0.66175 v -18.7364 z M 518.15108,148.505 v 18.82767 h 0.66175 V 148.505 Z M 482.05054,6.2980184 V 28.39584 h 0.66176 V 6.2980184 Z M 531.79823,146.9269 v 17.09765 h 0.66174 V 146.9269 Z M 668.94972,6.2578502 V 25.087711 h 0.6619 V 6.2578502 Z M 538.08313,162.88673 v 18.7364 h 0.66175 v -18.7364 z M 106.25852,4.6439565 V 25.087711 h 0.66175 V 4.6439565 Z m 549.69877,0.040167 V 21.779589 h 0.66174 V 4.6841238 Z M 575.95385,145.23532 v 22.09735 h 0.66175 V 145.23532 Z M 493.60007,23.949733 v 18.736553 h 0.6619 V 23.949733 Z m 101.46794,55.087629 v 18.826891 h 0.66191 V 79.037362 Z m 6.83553,69.558908 v 22.04453 h 0.66191 V 148.59627 Z M 589.19682,23.949733 v 18.736553 h 0.66175 V 23.949733 Z m -66.64762,0 v 18.736553 h 0.66175 V 23.949733 Z m 93.00148,127.901057 v 22.09735 h 0.66176 V 151.85079 Z M 64.497793,23.949733 V 42.686286 H 65.1597 V 23.949733 Z M 568.18681,4.6439565 V 25.087711 h 0.66191 V 4.6439565 Z M 645.48229,151.85079 v 22.09735 h 0.66191 V 151.85079 Z M 547.25448,20.641454 V 41.00581 h 0.6619 V 20.641454 Z m 19.57116,53.508116 v 17.098442 h 0.66175 V 74.14957 Z m -36.18228,19.268584 v 17.045606 h 0.66191 V 93.418154 Z m -84.47188,-9.92437 v 20.428126 h 0.66175 V 83.493784 Z m -109.70023,69.705356 2.35747,-0.47694 v 4.37004 l -2.35747,0.50334 v -4.39644 m 4.10516,-0.82104 c 0.15925,-0.0264 0.29209,-0.21206 0.29209,-0.3713 v -1.56284 c 0,-0.21126 -0.15925,-0.37051 -0.37131,-0.37051 h -0.0528 l -0.87385,0.18565 v -3.94671 h -0.74181 v 4.10516 l -2.35747,0.47693 v -3.73465 h -0.74181 v 3.8939 l -1.03309,0.21126 c -0.15845,0.0272 -0.29128,0.21206 -0.29128,0.3713 v 1.53644 c 0,0.21126 0.15924,0.3705 0.3713,0.3705 h 0.0792 l 0.87385,-0.18565 v 4.37084 l -1.03309,0.21206 c -0.15845,0.0264 -0.29128,0.21126 -0.29128,0.3705 v 1.53644 c 0,0.21206 0.15924,0.3705 0.3713,0.3705 h 0.0792 l 0.87385,-0.18485 v 3.94592 h 0.74181 v -4.10516 l 2.35747,-0.47694 v 3.73466 h 0.74181 v -3.8931 l 1.00588,-0.18566 c 0.15925,-0.0264 0.29209,-0.21206 0.29209,-0.3713 v -1.56204 c 0,-0.21206 -0.15925,-0.37131 -0.37131,-0.37131 h -0.0528 l -0.87385,0.18565 v -4.37083 l 1.00588,-0.18486 m -146.02694,4.12917 2.35667,-0.47693 v 4.37004 l -2.35667,0.50334 v -4.39645 m 4.10516,-0.82183 c 0.15925,-0.0264 0.29128,-0.21126 0.29128,-0.3705 v -1.56285 c 0,-0.21206 -0.15844,-0.3705 -0.3705,-0.3705 h -0.0528 l -0.87464,0.18485 v -3.94592 h -0.74181 v 4.10517 l -2.35667,0.47693 v -3.73466 h -0.74181 v 3.89311 l -1.03309,0.21206 c -0.15925,0.0264 -0.29129,0.21206 -0.29129,0.3713 v 1.53564 c 0,0.21206 0.15845,0.3713 0.37051,0.3713 h 0.0792 l 0.87465,-0.18565 v 4.37084 l -1.03309,0.21126 c -0.15925,0.0272 -0.29129,0.21206 -0.29129,0.3713 v 1.53644 c 0,0.21126 0.15845,0.3705 0.37051,0.3705 h 0.0792 l 0.87465,-0.18565 v 3.94672 h 0.74181 v -4.10517 l 2.35667,-0.47693 v 3.73466 h 0.74181 v -3.89391 l 1.00668,-0.18485 c 0.15925,-0.0264 0.29128,-0.21206 0.29128,-0.3713 v -1.56285 c 0,-0.21126 -0.15844,-0.3705 -0.3705,-0.3705 h -0.0528 l -0.87464,0.18565 v -4.37084 l 1.00668,-0.18565 m 55.26925,0.82183 2.35747,-0.47693 v 4.37004 l -2.35747,0.50334 v -4.39645 m 4.10596,-0.82183 c 0.15845,-0.0264 0.29128,-0.21126 0.29128,-0.3705 v -1.56285 c 0,-0.21206 -0.15924,-0.3705 -0.3705,-0.3705 h -0.0536 l -0.87384,0.18485 v -3.94592 h -0.74181 v 4.10517 l -2.35747,0.47693 v -3.73466 h -0.74101 v 3.89311 l -1.03309,0.21206 c -0.15925,0.0264 -0.29129,0.21206 -0.29129,0.3713 v 1.53564 c 0,0.21206 0.15845,0.3713 0.37051,0.3713 h 0.0792 l 0.87465,-0.18565 v 4.37084 l -1.03309,0.21126 c -0.15925,0.0272 -0.29129,0.21206 -0.29129,0.3713 v 1.53644 c 0,0.21126 0.15845,0.3705 0.37051,0.3705 h 0.0792 l 0.87465,-0.18565 v 3.94672 h 0.74101 v -4.10517 l 2.35747,-0.47693 v 3.73466 h 0.74181 v -3.89391 l 1.00668,-0.18485 c 0.15845,-0.0264 0.29128,-0.21206 0.29128,-0.3713 v -1.56285 c 0,-0.21126 -0.15924,-0.3705 -0.3705,-0.3705 h -0.0536 l -0.87384,0.18565 v -4.37084 l 1.00668,-0.18565 m 35.39482,-2.4863 2.35667,-0.47694 v 4.37004 l -2.35667,0.50334 v -4.39644 m 4.10517,-0.82104 c 0.15924,-0.0264 0.29128,-0.21206 0.29128,-0.3713 v -1.56284 c 0,-0.21126 -0.15845,-0.37051 -0.37051,-0.37051 h -0.0528 l -0.87465,0.18565 v -3.94671 h -0.74181 v 4.10516 l -2.35667,0.47693 v -3.73465 h -0.74181 v 3.8939 l -1.03309,0.21126 c -0.15924,0.0272 -0.29128,0.21206 -0.29128,0.3713 v 1.53644 c 0,0.21126 0.15844,0.3705 0.3705,0.3705 h 0.0792 l 0.87464,-0.18565 v 4.37084 l -1.03309,0.21206 c -0.15924,0.0264 -0.29128,0.21126 -0.29128,0.3705 v 1.53644 c 0,0.21206 0.15844,0.3705 0.3705,0.3705 h 0.0792 l 0.87464,-0.18485 v 3.94592 h 0.74181 v -4.10516 l 2.35667,-0.47694 v 3.73466 h 0.74181 v -3.8931 l 1.00669,-0.18566 c 0.15924,-0.0264 0.29128,-0.21206 0.29128,-0.3713 v -1.56204 c 0,-0.21206 -0.15845,-0.37131 -0.37051,-0.37131 h -0.0528 l -0.87465,0.18565 v -4.37083 l 1.00669,-0.18486 M 45.973004,96.962414 48.330471,96.485479 v 4.370841 l -2.357467,0.50334 v -4.397246 m 4.105962,-0.821033 c 0.158445,-0.02641 0.291283,-0.21206 0.291283,-0.370505 v -1.562842 c 0,-0.21206 -0.159245,-0.371305 -0.371305,-0.371305 h -0.05282 l -0.873848,0.185652 v -3.946717 h -0.74181 v 4.105962 l -2.357467,0.476135 v -3.734657 h -0.74181 v 3.893902 l -1.033093,0.21206 c -0.158445,0.02641 -0.291282,0.21206 -0.291282,0.370505 v 1.536435 c 0,0.21206 0.159245,0.370505 0.371305,0.370505 h 0.07922 l 0.873848,-0.184852 v 4.370041 l -1.033093,0.21206 c -0.158445,0.0264 -0.291282,0.21206 -0.291282,0.3705 v 1.53644 c 0,0.21206 0.159245,0.3713 0.371305,0.3713 h 0.07922 l 0.873848,-0.18565 v 3.94672 h 0.74181 v -4.10597 l 2.357467,-0.47613 v 3.73466 h 0.74181 v -3.89391 l 1.006685,-0.18565 c 0.158445,-0.0264 0.291283,-0.21206 0.291283,-0.3705 v -1.56285 c 0,-0.21206 -0.159245,-0.3705 -0.371305,-0.3705 h -0.05282 l -0.873848,0.18485 v -4.370036 l 1.006685,-0.185653 M 362.421,156.50727 l 2.35747,-0.47693 v 4.37004 l -2.35747,0.50334 v -4.39645 m 4.10596,-0.82183 c 0.15845,-0.0264 0.29128,-0.21126 0.29128,-0.3705 v -1.56285 c 0,-0.21206 -0.15924,-0.3705 -0.3713,-0.3705 h -0.0528 l -0.87384,0.18485 v -3.94592 h -0.74181 v 4.10517 l -2.35747,0.47693 v -3.73466 h -0.74181 v 3.89311 l -1.03309,0.21206 c -0.15845,0.0264 -0.29129,0.21206 -0.29129,0.3713 v 1.53564 c 0,0.21206 0.15925,0.3713 0.37131,0.3713 h 0.0792 l 0.87385,-0.18565 v 4.37084 l -1.03309,0.21126 c -0.15845,0.0272 -0.29129,0.21206 -0.29129,0.3713 v 1.53644 c 0,0.21126 0.15925,0.3705 0.37131,0.3705 h 0.0792 l 0.87385,-0.18565 v 3.94672 h 0.74181 v -4.10517 l 2.35747,-0.47693 v 3.73466 h 0.74181 v -3.89391 l 1.00668,-0.18485 c 0.15845,-0.0264 0.29128,-0.21206 0.29128,-0.3713 v -1.56285 c 0,-0.21126 -0.15924,-0.3705 -0.3713,-0.3705 h -0.0528 l -0.87384,0.18565 v -4.37084 l 1.00668,-0.18565 M 485.10703,79.202097 c -2.37986,0.127932 -4.75806,1.366091 -6.52497,3.743404 a 0.1652468,0.1652468 0 0 0 0.0144,0.198184 0.1652468,0.1652468 0 0 0 0,0.01547 0.1652468,0.1652468 0 0 0 0.0128,0.0056 0.1652468,0.1652468 0 0 0 0.007,0.01188 0.1652468,0.1652468 0 0 0 0.0153,-0.0022 0.1652468,0.1652468 0 0 0 0.19834,-0.01172 c 3.77226,-3.657803 10.72913,-3.103582 13.87424,1.105313 a 0.16526332,0.16526332 0 0 0 0.27883,-0.175201 c -1.56373,-3.002394 -4.15138,-4.662016 -6.85756,-4.877629 -0.33828,-0.02695 -0.67828,-0.03141 -1.01827,-0.01313 z m 0.0175,0.329781 c 0.32552,-0.01732 0.65083,-0.01297 0.97449,0.01282 2.09222,0.166695 4.10597,1.245953 5.60644,3.185742 -3.14312,-2.711656 -8.11401,-3.10764 -11.64689,-0.927607 1.51201,-1.418441 3.28709,-2.176336 5.06596,-2.270955 z m -6.40981,3.512195 c 3.97952,-5.354316 11.03992,-4.791757 14.12159,1.125118 -3.21051,-4.296416 -10.2709,-4.858975 -14.12159,-1.125118 M 196.71116,142.10804 c -2.36356,-0.0131 -4.75525,0.13933 -7.12592,0.45044 -9.48268,1.24439 -18.63472,5.0276 -24.30829,10.96497 a 0.1652468,0.1652468 0 0 0 -0.0198,0.0511 0.1652468,0.1652468 0 0 0 -0.0225,0.0578 0.1652468,0.1652468 0 0 0 0.0189,0.0596 0.1652468,0.1652468 0 0 0 0.0164,0.0521 0.1652468,0.1652468 0 0 0 0.008,0.004 0.1652468,0.1652468 0 0 0 0.004,0.009 0.1652468,0.1652468 0 0 0 0.0123,0 0.1652468,0.1652468 0 0 0 0.20803,0.007 c 5.73618,-4.81685 14.90232,-8.06623 24.33236,-9.30373 9.43004,-1.2375 19.12422,-0.46313 25.9089,2.71061 a 0.16526332,0.16526332 0 0 0 0.15598,-0.2907 c -5.26015,-3.2043 -12.09803,-4.73314 -19.18871,-4.77229 z m -0.002,0.33165 c 5.88707,0.0339 11.59229,1.10228 16.33838,3.29828 -6.58134,-2.24597 -15.01676,-2.68627 -23.25518,-1.60514 -8.23843,1.08113 -16.27467,3.68301 -22.05375,7.55104 5.62143,-4.68074 13.62636,-7.71323 21.88995,-8.79765 2.35602,-0.30917 4.73276,-0.46005 7.0806,-0.44653 z m -31.31243,11.19797 c 11.2728,-11.79694 36.48233,-15.10508 50.41748,-6.61627 -13.65987,-6.38981 -38.86861,-3.08168 -50.41748,6.61627 m -65.25228,-7.29655 c -0.420503,-0.004 -0.841286,8e-4 -1.261765,0.0141 -6.727641,0.2121 -13.390479,2.6179 -17.75221,7.16813 a 0.1652468,0.1652468 0 0 0 -0.0088,0.20287 0.1652468,0.1652468 0 0 0 -0.0015,0.0141 0.1652468,0.1652468 0 0 0 0.01032,0.006 0.1652468,0.1652468 0 0 0 0.0049,0.0109 0.1652468,0.1652468 0 0 0 0.04939,0.0192 0.1652468,0.1652468 0 0 0 0.05736,0.0223 0.1652468,0.1652468 0 0 0 0.0597,-0.017 0.1652468,0.1652468 0 0 0 0.05049,-0.0144 c 4.31551,-3.41943 10.926157,-5.28411 17.590604,-5.49421 6.664451,-0.2101 13.379561,1.23447 17.901941,4.3753 a 0.16526332,0.16526332 0 0 0 0.20601,-0.25726 c -4.34948,-3.99982 -10.59877,-5.99129 -16.90636,-6.04984 z m -0.003,0.33056 c 5.40041,0.0506 10.75116,1.53682 14.86358,4.48393 -4.45149,-2.34351 -10.28017,-3.39555 -16.072363,-3.21294 -5.791639,0.18258 -11.541972,1.59946 -15.836828,4.21822 4.220539,-3.44626 9.980946,-5.29193 15.797441,-5.4753 0.415982,-0.0131 0.832228,-0.0178 1.24817,-0.0139 z m -18.891621,6.96599 c 8.647248,-9.02095 26.491501,-9.58351 35.689301,-1.12512 -9.13138,-6.34179 -26.975634,-5.77923 -35.689301,1.12512 M 456.86436,72.58616 c -2.37993,0.127996 -4.7581,1.366115 -6.52467,3.743092 a 0.1652468,0.1652468 0 0 0 0.0158,0.10659 0.1652468,0.1652468 0 0 0 -0.002,0.107062 0.1652468,0.1652468 0 0 0 0.0186,0.0081 0.1652468,0.1652468 0 0 0 10e-4,0.0094 0.1652468,0.1652468 0 0 0 0.0153,-0.0022 0.1652468,0.1652468 0 0 0 0.19834,-0.01187 c 3.77144,-3.65778 10.72898,-3.103423 13.87409,1.105473 a 0.16526332,0.16526332 0 0 0 0.27898,-0.17521 c -1.56373,-3.002402 -4.1516,-4.661807 -6.85788,-4.877316 -0.33828,-0.02694 -0.67827,-0.03142 -1.01825,-0.01313 z m 0.0173,0.329781 c 0.32554,-0.01732 0.65097,-0.01296 0.97465,0.01282 2.0923,0.166615 4.10623,1.245697 5.60675,3.18543 -3.14293,-2.711392 -8.11365,-3.10756 -11.64612,-0.928231 1.51165,-1.417722 3.28615,-2.175368 5.06472,-2.270019 z m -6.40937,3.511859 c 3.97873,-5.353516 11.03992,-4.791757 14.1216,1.125118 -3.21051,-4.296416 -10.27171,-4.858976 -14.1216,-1.125118 m -154.88645,64.55569 c -2.36357,-0.013 -4.7551,0.13935 -7.12577,0.45044 -9.48267,1.2444 -18.63479,5.02755 -24.30876,10.96452 a 0.1652468,0.1652468 0 0 0 0.002,0.11019 0.1652468,0.1652468 0 0 0 -0.01,0.11018 0.1652468,0.1652468 0 0 0 0.0122,0.006 0.1652468,0.1652468 0 0 0 0,0.007 0.1652468,0.1652468 0 0 0 0.0123,0 0.1652468,0.1652468 0 0 0 0.20802,0.008 c 5.73658,-4.81646 14.903,-8.06576 24.33314,-9.30326 9.43014,-1.2375 19.12422,-0.4632 25.9089,2.71014 a 0.16526332,0.16526332 0 0 0 0.15598,-0.29087 c -5.26044,-3.20398 -12.09848,-4.73258 -19.18918,-4.77166 z m -0.002,0.33167 c 5.88702,0.0339 11.59229,1.10192 16.33853,3.29765 -6.58128,-2.24557 -15.01649,-2.68563 -23.25486,-1.60452 -8.2386,1.08114 -16.27514,3.68295 -22.05452,7.55073 5.62171,-4.68051 13.62674,-7.7129 21.89041,-8.79734 2.35602,-0.30917 4.7326,-0.46002 7.08044,-0.44652 z m -31.31274,11.19738 c 11.27359,-11.79614 36.48233,-15.10427 50.41827,-6.61627 -13.65986,-6.38901 -38.8686,-3.08087 -50.41827,6.61627 M 428.6218,72.58616 c -2.37987,0.127996 -4.75806,1.366131 -6.52498,3.743092 a 0.1652468,0.1652468 0 0 0 0.0142,0.197872 0.1652468,0.1652468 0 0 0 0,0.01578 0.1652468,0.1652468 0 0 0 0.013,0.0056 0.1652468,0.1652468 0 0 0 0.007,0.01188 0.1652468,0.1652468 0 0 0 0.0152,-0.0022 0.1652468,0.1652468 0 0 0 0.19834,-0.01172 c 3.77226,-3.657812 10.72912,-3.103591 13.87424,1.105313 a 0.16526332,0.16526332 0 0 0 0.27898,-0.17521 c -1.56373,-3.002394 -4.15138,-4.661807 -6.85757,-4.877316 -0.33827,-0.02694 -0.67827,-0.03142 -1.01825,-0.01313 z m 0.0174,0.329781 c 0.32552,-0.01732 0.65098,-0.01296 0.97465,0.01282 2.09211,0.166607 4.10568,1.245576 5.60612,3.185118 -3.1429,-2.711192 -8.11308,-3.107184 -11.6458,-0.927759 1.51186,-1.417834 3.28645,-2.175528 5.06503,-2.270179 z m -6.40973,3.511859 c 3.97953,-5.353516 11.03993,-4.791757 14.1216,1.125118 -3.21051,-4.296416 -10.27091,-4.858976 -14.1216,-1.125118 M 579.73617,9.2421328 V 36.434052 h 1.19066 V 9.2421328 Z m 99.80029,69.4687292 v 27.191608 h 1.19065 V 78.710862 Z M 223.43279,9.2421328 V 36.434052 h 1.19081 V 9.2421328 Z m 6.60593,138.9371472 v 27.19177 h 1.19081 V 148.17928 Z M 605.65554,78.710862 v 27.191608 h 1.19065 V 78.710862 Z M 307.02208,9.2421328 V 36.434052 h 1.19081 V 9.2421328 Z M 507.06122,78.710862 v 27.191608 h 1.19065 V 78.710862 Z M 328.9139,148.17928 v 27.19177 h 1.19081 v -27.19177 z m 79.55378,-69.468418 v 27.191608 h 1.19065 V 78.710862 Z m -73.00707,0 v 27.191608 h 1.19064 V 78.710862 Z M 155.50637,9.2421328 V 36.434052 h 1.1908 V 9.2421328 Z m 221.72841,0 V 36.434052 h 1.1908 V 9.2421328 Z M 261.57969,78.710862 v 27.191608 h 1.19065 V 78.710862 Z M 402.5843,148.17928 v 27.19177 h 1.1908 V 148.17928 Z M 188.57261,78.710862 v 27.191608 h 1.19065 V 78.710862 Z m 291.70822,69.468418 v 27.19177 h 1.19064 V 148.17928 Z M 115.56553,78.710862 v 27.191608 h 1.19065 V 78.710862 Z m 442.98855,69.468418 v 27.19177 h 1.1908 V 148.17928 Z M 445.16119,9.2421328 V 36.434052 H 446.352 V 9.2421328 Z m 234.37527,0 V 36.434052 h 1.19065 V 9.2421328 Z m -590.677709,0 V 36.434052 h 1.190801 V 9.2421328 Z M 628.08267,148.17928 v 27.19177 h 1.19065 V 148.17928 Z M 639.74992,26.146363 c 0,-0.768218 -0.60977,-1.404398 -1.37799,-1.404398 -0.76822,0 -1.37719,0.63618 -1.37719,1.404398 0,0.768218 0.60897,1.403597 1.37719,1.403597 0.76822,0 1.37799,-0.635379 1.37799,-1.403597 m 0,-6.616353 c 0,-0.768138 -0.60977,-1.403838 -1.37799,-1.403838 -0.76822,0 -1.37719,0.6357 -1.37719,1.403838 0,0.768137 0.60897,1.403837 1.37719,1.403837 0.76822,0 1.37799,-0.6357 1.37799,-1.403837 M 633.35604,9.2421328 V 36.434052 h 1.19081 V 9.2421328 Z m -6.08609,0 V 36.434052 h 3.63868 V 9.2421328 Z M 677.08811,148.17928 v 27.19177 h 3.63868 v -27.19177 z m -3.63822,0 v 27.19177 h 1.19065 v -27.19177 z m -2.44632,16.90402 c 0,-0.76822 -0.60897,-1.4044 -1.37719,-1.4044 -0.76822,0 -1.37719,0.63618 -1.37719,1.4044 0,0.76822 0.60897,1.4036 1.37719,1.4036 0.76822,0 1.37719,-0.63538 1.37719,-1.4036 m 0,-6.61627 c 0,-0.76822 -0.60897,-1.4036 -1.37719,-1.4036 -0.76822,0 -1.37719,0.63538 -1.37719,1.4036 0,0.76822 0.60897,1.4036 1.37719,1.4036 0.76822,0 1.37719,-0.63538 1.37719,-1.4036 M 627.26995,9.2421328 V 36.434052 h 3.63868 V 9.2421328 Z m -3.63901,0 V 36.434052 h 1.19081 V 9.2421328 Z m -2.44628,16.9042302 c 0,-0.768218 -0.60897,-1.404398 -1.37719,-1.404398 -0.76821,0 -1.37719,0.63618 -1.37719,1.404398 0,0.768218 0.60898,1.403597 1.37719,1.403597 0.76822,0 1.37719,-0.635379 1.37719,-1.403597 m 0,-6.616353 c 0,-0.768138 -0.60897,-1.403838 -1.37719,-1.403838 -0.76821,0 -1.37719,0.6357 -1.37719,1.403838 0,0.768137 0.60898,1.403837 1.37719,1.403837 0.76822,0 1.37719,-0.6357 1.37719,-1.403837 M 513.08839,9.2421328 V 36.434052 h 1.19081 V 9.2421328 Z M 131.16354,148.17928 v 27.19177 h 1.19065 V 148.17928 Z M 0,174.64318 v 0.72739 h 680.72711 v -0.72739 z m 0,-6.61546 v 0.72739 h 680.72711 v -0.72739 z m 0,-6.61625 v 0.72739 h 680.72711 v -0.72739 z m 0,-6.61625 v 0.72739 h 680.72711 v -0.72739 z m 0,-6.61625 v 0.72739 h 680.72711 v -0.72739 z m 0,-43.00421 v 0.7274 h 680.72711 v -0.7274 z m 0,-6.615462 v 0.72739 h 680.72711 v -0.72739 z m 0,-6.61625 v 0.72739 h 680.72711 v -0.72739 z m 0,-6.616401 v 0.72755 h 680.72711 v -0.72755 z m 0,-6.616249 v 0.72739 h 680.72711 v -0.72739 z M 0,35.706342 v 0.727398 h 680.72711 v -0.727398 z m 0,-6.615617 v 0.72755 h 680.72711 v -0.72755 z m 0,-6.616408 v 0.727394 h 680.72711 v -0.727394 z m 0,-6.615936 v 0.727393 H 680.72711 V 15.858381 Z M 0,9.2422896 V 9.9696828 H 680.72711 V 9.2422896 Z"
     style="stroke-width:0.0800227" />
  <metadata
     id="metadata265">
    <rdf:RDF>
      <cc:Work
         rdf:about="">
        <dc:title>air_XL</dc:title>
      </cc:Work>
    </rdf:RDF>
  </metadata>
</svg>
