<?xml version="1.0" encoding="UTF-8" standalone="no"?>
<svg width="210.058mm" height="296.926mm" viewBox="0 0 9924 14028"
 xmlns="http://www.w3.org/2000/svg" xmlns:xlink="http://www.w3.org/1999/xlink" version="1.2" baseProfile="full">
<title>air_XXXIV</title>
<desc>Generated by MuseScore Studio 4.7.3</desc>
<polyline class="StaffLines" fill="none" stroke="#000000" stroke-width="9.09" stroke-linejoin="bevel" points="708.661,828.424 9215.34,828.424" />
<polyline class="StaffLines" fill="none" stroke="#000000" stroke-width="9.09" stroke-linejoin="bevel" points="708.661,911.101 9215.34,911.101" />
<polyline class="StaffLines" fill="none" stroke="#000000" stroke-width="9.09" stroke-linejoin="bevel" points="708.661,993.778 9215.34,993.778" />
<polyline class="StaffLines" fill="none" stroke="#000000" stroke-width="9.09" stroke-linejoin="bevel" points="708.661,1076.46 9215.34,1076.46" />
<polyline class="StaffLines" fill="none" stroke="#000000" stroke-width="9.09" stroke-linejoin="bevel" points="708.661,1159.13 9215.34,1159.13" />
<polyline class="StaffLines" fill="none" stroke="#000000" stroke-width="9.09" stroke-linejoin="bevel" points="708.661,1696.53 9215.34,1696.53" />
<polyline class="StaffLines" fill="none" stroke="#000000" stroke-width="9.09" stroke-linejoin="bevel" points="708.661,1779.21 9215.34,1779.21" />
<polyline class="StaffLines" fill="none" stroke="#000000" stroke-width="9.09" stroke-linejoin="bevel" points="708.661,1861.89 9215.34,1861.89" />
<polyline class="StaffLines" fill="none" stroke="#000000" stroke-width="9.09" stroke-linejoin="bevel" points="708.661,1944.57 9215.34,1944.57" />
<polyline class="StaffLines" fill="none" stroke="#000000" stroke-width="9.09" stroke-linejoin="bevel" points="708.661,2027.24 9215.34,2027.24" />
<polyline class="BarLine" fill="none" stroke="#000000" stroke-width="14.88" stroke-linejoin="bevel" points="4414.41,823.876 4414.41,1163.68" />
<polyline class="BarLine" fill="none" stroke="#000000" stroke-width="14.88" stroke-linejoin="bevel" points="6926.94,1691.99 6926.94,2031.79" />
<polyline class="BarLine" fill="none" stroke="#000000" stroke-width="14.88" stroke-linejoin="bevel" points="4113.15,1691.99 4113.15,2031.79" />
<polyline class="BarLine" fill="none" stroke="#000000" stroke-width="14.88" stroke-linejoin="bevel" points="9207.9,823.876 9207.9,1163.68" />
<path class="BarLine" d="M9093.83,1820.55 C9093.83,1810.95 9086.22,1803.01 9076.62,1803.01 C9067.02,1803.01 9059.41,1810.95 9059.41,1820.55 C9059.41,1830.15 9067.02,1838.09 9076.62,1838.09 C9086.22,1838.09 9093.83,1830.15 9093.83,1820.55"/>
<path class="BarLine" d="M9093.83,1903.23 C9093.83,1893.63 9086.22,1885.68 9076.62,1885.68 C9067.02,1885.68 9059.41,1893.63 9059.41,1903.23 C9059.41,1912.83 9067.02,1920.77 9076.62,1920.77 C9086.22,1920.77 9093.83,1912.83 9093.83,1903.23"/>
<polyline class="BarLine" fill="none" stroke="#000000" stroke-width="14.88" stroke-linejoin="bevel" points="9131.84,1691.99 9131.84,2031.79" />
<polyline class="BarLine" fill="none" stroke="#000000" stroke-width="45.47" stroke-linejoin="bevel" points="9192.6,1691.99 9192.6,2031.79" />
<polyline class="BarLine" fill="none" stroke="#000000" stroke-width="14.88" stroke-linejoin="bevel" points="6843.25,823.876 6843.25,1163.68" />
<polyline class="BarLine" fill="none" stroke="#000000" stroke-width="14.88" stroke-linejoin="bevel" points="1985.58,823.876 1985.58,1163.68" />
<polyline class="Stem" fill="none" stroke="#000000" stroke-width="8.27" stroke-linejoin="bevel" points="5684.64,1007.67 5684.64,1241.81" />
<polyline class="Stem" fill="none" stroke="#000000" stroke-width="8.27" stroke-linejoin="bevel" points="2100.5,1007.67 2100.5,1241.81" />
<polyline class="Stem" fill="none" stroke="#000000" stroke-width="8.27" stroke-linejoin="bevel" points="3740.12,1021.89 3740.12,766.416" />
<polyline class="Stem" fill="none" stroke="#000000" stroke-width="8.27" stroke-linejoin="bevel" points="3255.8,1007.67 3255.8,1241.81" />
<polyline class="Stem" fill="none" stroke="#000000" stroke-width="8.27" stroke-linejoin="bevel" points="4125.22,1063.23 4125.22,787.085" />
<polyline class="Stem" fill="none" stroke="#000000" stroke-width="8.27" stroke-linejoin="bevel" points="6474.38,1875.78 6474.38,2109.92" />
<polyline class="Stem" fill="none" stroke="#000000" stroke-width="8.27" stroke-linejoin="bevel" points="7590.34,1890 7590.34,1634.53" />
<polyline class="Stem" fill="none" stroke="#000000" stroke-width="8.27" stroke-linejoin="bevel" points="2870.7,1007.67 2870.7,1241.81" />
<polyline class="Stem" fill="none" stroke="#000000" stroke-width="8.27" stroke-linejoin="bevel" points="4628.55,1021.89 4628.55,766.416" />
<polyline class="Stem" fill="none" stroke="#000000" stroke-width="8.27" stroke-linejoin="bevel" points="6124.33,1890 6124.33,1634.53" />
<polyline class="Stem" fill="none" stroke="#000000" stroke-width="8.27" stroke-linejoin="bevel" points="5013.65,1063.23 5013.65,787.085" />
<polyline class="Stem" fill="none" stroke="#000000" stroke-width="8.27" stroke-linejoin="bevel" points="5675.07,1931.34 5675.07,1655.2" />
<polyline class="Stem" fill="none" stroke="#000000" stroke-width="8.27" stroke-linejoin="bevel" points="5398.75,1104.57 5398.75,828.424" />
<polyline class="Stem" fill="none" stroke="#000000" stroke-width="8.27" stroke-linejoin="bevel" points="5225.8,1972.68 5225.8,1696.53" />
<polyline class="Stem" fill="none" stroke="#000000" stroke-width="8.27" stroke-linejoin="bevel" points="8039.6,1972.68 8039.6,1696.53" />
<polyline class="Stem" fill="none" stroke="#000000" stroke-width="8.27" stroke-linejoin="bevel" points="4776.54,1890 4776.54,1634.53" />
<polyline class="Stem" fill="none" stroke="#000000" stroke-width="8.27" stroke-linejoin="bevel" points="6168.95,1021.89 6168.95,766.416" />
<polyline class="Stem" fill="none" stroke="#000000" stroke-width="8.27" stroke-linejoin="bevel" points="4228.07,1834.44 4228.07,2089.25" />
<polyline class="Stem" fill="none" stroke="#000000" stroke-width="8.27" stroke-linejoin="bevel" points="6454.84,1007.67 6454.84,1241.81" />
<polyline class="Stem" fill="none" stroke="#000000" stroke-width="8.27" stroke-linejoin="bevel" points="2485.6,966.329 2485.6,1221.14" />
<polyline class="Stem" fill="none" stroke="#000000" stroke-width="8.27" stroke-linejoin="bevel" points="3660.58,1875.78 3660.58,2109.92" />
<polyline class="Stem" fill="none" stroke="#000000" stroke-width="8.27" stroke-linejoin="bevel" points="8389.65,1875.78 8389.65,2109.92" />
<polyline class="Stem" fill="none" stroke="#000000" stroke-width="8.27" stroke-linejoin="bevel" points="6958.17,966.329 6958.17,1221.14" />
<polyline class="Stem" fill="none" stroke="#000000" stroke-width="8.27" stroke-linejoin="bevel" points="3211.32,1793.1 3211.32,2068.58" />
<polyline class="Stem" fill="none" stroke="#000000" stroke-width="8.27" stroke-linejoin="bevel" points="7343.27,1007.67 7343.27,1241.81" />
<polyline class="Stem" fill="none" stroke="#000000" stroke-width="8.27" stroke-linejoin="bevel" points="2762.06,1710.42 2762.06,1985.9" />
<polyline class="Stem" fill="none" stroke="#000000" stroke-width="8.27" stroke-linejoin="bevel" points="7728.37,966.329 7728.37,1221.14" />
<polyline class="Stem" fill="none" stroke="#000000" stroke-width="8.27" stroke-linejoin="bevel" points="2312.79,1710.42 2312.79,1985.9" />
<polyline class="Stem" fill="none" stroke="#000000" stroke-width="8.27" stroke-linejoin="bevel" points="8113.47,924.991 8113.47,1200.47" />
<polyline class="Stem" fill="none" stroke="#000000" stroke-width="8.27" stroke-linejoin="bevel" points="1863.53,1669.09 1863.53,1944.57" />
<polyline class="Stem" fill="none" stroke="#000000" stroke-width="8.27" stroke-linejoin="bevel" points="8691.13,924.991 8691.13,1158.81" />
<polyline class="Stem" fill="none" stroke="#000000" stroke-width="8.27" stroke-linejoin="bevel" points="1696.38,1104.57 1696.38,828.424" />
<polyline class="Stem" fill="none" stroke="#000000" stroke-width="8.27" stroke-linejoin="bevel" points="1414.27,1710.42 1414.27,1985.9" />
<polyline class="Stem" fill="none" stroke="#000000" stroke-width="8.27" stroke-linejoin="bevel" points="8947.86,883.652 8947.86,1138.79" />
<polyline class="Stem" fill="none" stroke="#000000" stroke-width="8.27" stroke-linejoin="bevel" points="7041.87,1834.44 7041.87,2089.25" />
<path class="Note" d="M8686.99,925.003 C8686.99,939.236 8697.25,955.124 8724.06,955.124 C8758.49,955.124 8794.57,926.989 8794.57,897.861 C8794.57,878.332 8778.02,867.409 8757.49,867.409 C8725.39,867.409 8686.99,894.551 8686.99,925.003"/>
<path class="Note" d="M2866.57,1007.68 C2866.57,1021.91 2876.83,1037.8 2903.64,1037.8 C2938.06,1037.8 2974.14,1009.67 2974.14,980.538 C2974.14,961.009 2957.59,950.086 2937.07,950.086 C2904.96,950.086 2866.57,977.228 2866.57,1007.68"/>
<path class="Note" d="M8410.34,1890.35 C8399.42,1890.35 8397.1,1881.42 8397.1,1878.44 C8397.1,1862.22 8452.71,1833.75 8468.27,1833.75 C8476.21,1833.75 8481.51,1838.39 8481.51,1845.67 C8481.51,1862.22 8425.57,1890.35 8410.34,1890.35 M8456.02,1818.2 C8423.91,1818.2 8385.52,1845.01 8385.52,1875.79 C8385.52,1890.02 8395.78,1905.91 8422.59,1905.91 C8457.01,1905.91 8493.09,1877.78 8493.09,1848.65 C8493.09,1829.12 8476.54,1818.2 8456.02,1818.2"/>
<path class="Note" d="M2096.37,1007.68 C2096.37,1021.91 2106.63,1037.8 2133.44,1037.8 C2167.86,1037.8 2203.94,1009.67 2203.94,980.538 C2203.94,961.009 2187.39,950.086 2166.87,950.086 C2134.76,950.086 2096.37,977.228 2096.37,1007.68"/>
<path class="Note" d="M7936.25,1999.81 C7936.25,2014.04 7946.52,2029.93 7973.33,2029.93 C8007.75,2029.93 8043.83,2001.79 8043.83,1972.66 C8043.83,1953.14 8027.28,1942.21 8006.76,1942.21 C7974.65,1942.21 7936.25,1969.35 7936.25,1999.81"/>
<path class="Note" d="M1410.14,1710.44 C1410.14,1724.67 1420.4,1740.56 1447.21,1740.56 C1481.63,1740.56 1517.71,1712.42 1517.71,1683.29 C1517.71,1663.76 1501.16,1652.84 1480.64,1652.84 C1448.53,1652.84 1410.14,1679.98 1410.14,1710.44"/>
<path class="Note" d="M8134.16,939.567 C8123.24,939.567 8120.92,930.63 8120.92,927.651 C8120.92,911.432 8176.53,882.966 8192.09,882.966 C8200.03,882.966 8205.33,887.6 8205.33,894.882 C8205.33,911.432 8149.39,939.567 8134.16,939.567 M8179.84,867.409 C8147.74,867.409 8109.34,894.22 8109.34,925.003 C8109.34,939.236 8119.6,955.124 8146.41,955.124 C8180.84,955.124 8216.91,926.989 8216.91,897.861 C8216.91,878.332 8200.36,867.409 8179.84,867.409"/>
<path class="Note" d="M1859.4,1669.1 C1859.4,1683.33 1869.66,1699.22 1896.47,1699.22 C1930.89,1699.22 1966.97,1671.08 1966.97,1641.96 C1966.97,1622.43 1950.42,1611.5 1929.9,1611.5 C1897.79,1611.5 1859.4,1638.65 1859.4,1669.1"/>
<path class="Note" d="M7724.24,966.341 C7724.24,980.574 7734.5,996.462 7761.31,996.462 C7795.73,996.462 7831.81,968.327 7831.81,939.199 C7831.81,919.67 7815.26,908.747 7794.74,908.747 C7762.63,908.747 7724.24,935.889 7724.24,966.341"/>
<path class="Note" d="M2308.66,1710.44 C2308.66,1724.67 2318.92,1740.56 2345.73,1740.56 C2380.16,1740.56 2416.24,1712.42 2416.24,1683.29 C2416.24,1663.76 2399.69,1652.84 2379.16,1652.84 C2347.06,1652.84 2308.66,1679.98 2308.66,1710.44"/>
<path class="Note" d="M7339.14,1007.68 C7339.14,1021.91 7349.4,1037.8 7376.21,1037.8 C7410.63,1037.8 7446.71,1009.67 7446.71,980.538 C7446.71,961.009 7430.16,950.086 7409.64,950.086 C7377.53,950.086 7339.14,977.228 7339.14,1007.68"/>
<path class="Note" d="M2757.92,1710.44 C2757.92,1724.67 2768.18,1740.56 2794.99,1740.56 C2829.42,1740.56 2865.5,1712.42 2865.5,1683.29 C2865.5,1663.76 2848.95,1652.84 2828.42,1652.84 C2796.32,1652.84 2757.92,1679.98 2757.92,1710.44"/>
<path class="Note" d="M6954.04,966.341 C6954.04,980.574 6964.3,996.462 6991.11,996.462 C7025.53,996.462 7061.61,968.327 7061.61,939.199 C7061.61,919.67 7045.06,908.747 7024.54,908.747 C6992.43,908.747 6954.04,935.889 6954.04,966.341"/>
<path class="Note" d="M3207.18,1793.11 C3207.18,1807.35 3217.44,1823.23 3244.26,1823.23 C3278.68,1823.23 3314.76,1795.1 3314.76,1765.97 C3314.76,1746.44 3298.21,1735.52 3277.69,1735.52 C3245.58,1735.52 3207.18,1762.66 3207.18,1793.11"/>
<path class="Note" d="M1593.04,1131.7 C1593.04,1145.93 1603.3,1161.82 1630.11,1161.82 C1664.53,1161.82 1700.61,1133.68 1700.61,1104.55 C1700.61,1085.02 1684.06,1074.1 1663.54,1074.1 C1631.43,1074.1 1593.04,1101.24 1593.04,1131.7"/>
<path class="Note" d="M3656.44,1875.79 C3656.44,1890.02 3666.71,1905.91 3693.52,1905.91 C3727.94,1905.91 3764.02,1877.78 3764.02,1848.65 C3764.02,1829.12 3747.47,1818.2 3726.95,1818.2 C3694.84,1818.2 3656.44,1845.34 3656.44,1875.79"/>
<path class="Note" d="M2481.47,966.341 C2481.47,980.574 2491.73,996.462 2518.54,996.462 C2552.96,996.462 2589.04,968.327 2589.04,939.199 C2589.04,919.67 2572.49,908.747 2551.97,908.747 C2519.86,908.747 2481.47,935.889 2481.47,966.341"/>
<path class="Note" d="M6450.71,1007.68 C6450.71,1021.91 6460.97,1037.8 6487.78,1037.8 C6522.2,1037.8 6558.28,1009.67 6558.28,980.538 C6558.28,961.009 6541.73,950.086 6521.21,950.086 C6489.1,950.086 6450.71,977.228 6450.71,1007.68"/>
<path class="Note" d="M6065.61,1049.02 C6065.61,1063.25 6075.87,1079.14 6102.68,1079.14 C6137.1,1079.14 6173.18,1051 6173.18,1021.88 C6173.18,1002.35 6156.63,991.425 6136.11,991.425 C6104,991.425 6065.61,1018.57 6065.61,1049.02"/>
<path class="Note" d="M4223.93,1834.45 C4223.93,1848.68 4234.2,1864.57 4261.01,1864.57 C4295.43,1864.57 4331.51,1836.44 4331.51,1807.31 C4331.51,1787.78 4314.96,1776.86 4294.44,1776.86 C4262.33,1776.86 4223.93,1804 4223.93,1834.45"/>
<path class="Note" d="M5680.5,1007.68 C5680.5,1021.91 5690.77,1037.8 5717.58,1037.8 C5752,1037.8 5788.08,1009.67 5788.08,980.538 C5788.08,961.009 5771.53,950.086 5751.01,950.086 C5718.9,950.086 5680.5,977.228 5680.5,1007.68"/>
<path class="Note" d="M4673.2,1917.13 C4673.2,1931.36 4683.46,1947.25 4710.27,1947.25 C4744.69,1947.25 4780.77,1919.11 4780.77,1889.99 C4780.77,1870.46 4764.22,1859.53 4743.7,1859.53 C4711.59,1859.53 4673.2,1886.68 4673.2,1917.13"/>
<path class="Note" d="M5295.4,1131.7 C5295.4,1145.93 5305.66,1161.82 5332.48,1161.82 C5366.9,1161.82 5402.98,1133.68 5402.98,1104.55 C5402.98,1085.02 5386.43,1074.1 5365.91,1074.1 C5333.8,1074.1 5295.4,1101.24 5295.4,1131.7"/>
<path class="Note" d="M5122.46,1999.81 C5122.46,2014.04 5132.72,2029.93 5159.53,2029.93 C5193.95,2029.93 5230.03,2001.79 5230.03,1972.66 C5230.03,1953.14 5213.48,1942.21 5192.96,1942.21 C5160.85,1942.21 5122.46,1969.35 5122.46,1999.81"/>
<path class="Note" d="M4910.3,1090.36 C4910.3,1104.59 4920.56,1120.48 4947.37,1120.48 C4981.8,1120.48 5017.88,1092.34 5017.88,1063.22 C5017.88,1043.69 5001.33,1032.76 4980.81,1032.76 C4948.7,1032.76 4910.3,1059.91 4910.3,1090.36"/>
<path class="Note" d="M5571.72,1958.47 C5571.72,1972.7 5581.98,1988.59 5608.79,1988.59 C5643.21,1988.59 5679.29,1960.45 5679.29,1931.33 C5679.29,1911.8 5662.74,1900.87 5642.22,1900.87 C5610.11,1900.87 5571.72,1928.02 5571.72,1958.47"/>
<path class="Note" d="M4525.2,1049.02 C4525.2,1063.25 4535.46,1079.14 4562.27,1079.14 C4596.7,1079.14 4632.78,1051 4632.78,1021.88 C4632.78,1002.35 4616.23,991.425 4595.7,991.425 C4563.6,991.425 4525.2,1018.57 4525.2,1049.02"/>
<path class="Note" d="M6020.98,1917.13 C6020.98,1931.36 6031.24,1947.25 6058.05,1947.25 C6092.48,1947.25 6128.56,1919.11 6128.56,1889.99 C6128.56,1870.46 6112.01,1859.53 6091.48,1859.53 C6059.38,1859.53 6020.98,1886.68 6020.98,1917.13"/>
<path class="Note" d="M4021.87,1090.36 C4021.87,1104.59 4032.13,1120.48 4058.94,1120.48 C4093.37,1120.48 4129.45,1092.34 4129.45,1063.22 C4129.45,1043.69 4112.9,1032.76 4092.37,1032.76 C4060.27,1032.76 4021.87,1059.91 4021.87,1090.36"/>
<path class="Note" d="M6470.24,1875.79 C6470.24,1890.02 6480.5,1905.91 6507.31,1905.91 C6541.74,1905.91 6577.82,1877.78 6577.82,1848.65 C6577.82,1829.12 6561.27,1818.2 6540.74,1818.2 C6508.64,1818.2 6470.24,1845.34 6470.24,1875.79"/>
<path class="Note" d="M7486.99,1917.13 C7486.99,1931.36 7497.25,1947.25 7524.06,1947.25 C7558.49,1947.25 7594.57,1919.11 7594.57,1889.99 C7594.57,1870.46 7578.02,1859.53 7557.5,1859.53 C7525.39,1859.53 7486.99,1886.68 7486.99,1917.13"/>
<path class="Note" d="M3636.77,1049.02 C3636.77,1063.25 3647.03,1079.14 3673.84,1079.14 C3708.27,1079.14 3744.35,1051 3744.35,1021.88 C3744.35,1002.35 3727.8,991.425 3707.27,991.425 C3675.17,991.425 3636.77,1018.57 3636.77,1049.02"/>
<path class="Note" d="M3251.67,1007.68 C3251.67,1021.91 3261.93,1037.8 3288.74,1037.8 C3323.17,1037.8 3359.24,1009.67 3359.24,980.538 C3359.24,961.009 3342.69,950.086 3322.17,950.086 C3290.07,950.086 3251.67,977.228 3251.67,1007.68"/>
<path class="Note" d="M7037.73,1834.45 C7037.73,1848.68 7047.99,1864.57 7074.8,1864.57 C7109.23,1864.57 7145.31,1836.44 7145.31,1807.31 C7145.31,1787.78 7128.76,1776.86 7108.23,1776.86 C7076.13,1776.86 7037.73,1804 7037.73,1834.45"/>
<path class="Note" d="M8943.73,883.664 C8943.73,897.897 8953.99,913.785 8980.8,913.785 C9015.22,913.785 9051.3,885.65 9051.3,856.522 C9051.3,836.993 9034.75,826.07 9014.23,826.07 C8982.12,826.07 8943.73,853.212 8943.73,883.664"/>
<path class="Clef" d="M909.689,1144.64 C903.069,1145.97 896.78,1146.63 890.491,1146.63 C843.158,1146.63 802.776,1113.53 802.776,1063.55 C802.776,1023.16 831.242,987.085 860.37,961.929 C865.997,956.964 871.293,952.33 876.258,947.365 C879.237,965.239 881.554,980.796 883.871,994.367 C853.75,1003.3 833.228,1035.08 833.228,1066.19 C833.228,1089.36 851.433,1121.14 877.913,1121.14 C880.561,1121.14 883.54,1119.82 883.54,1116.84 C883.54,1113.86 880.23,1112.2 876.258,1109.56 C863.349,1101.61 856.067,1093.01 856.067,1076.79 C856.067,1056.6 870.962,1040.38 890.491,1035.74 L909.689,1144.64 M880.561,804.373 C883.54,791.133 898.766,756.378 915.978,756.378 C920.943,756.378 928.887,772.597 928.887,795.436 C928.887,829.86 903.4,855.678 880.561,878.186 C878.575,864.946 876.92,852.037 876.92,838.135 C876.92,825.888 877.913,814.634 880.561,804.373 M956.691,1083.41 C956.691,1106.91 947.092,1131.07 923.591,1140.67 C916.64,1100.95 907.703,1048.32 905.386,1033.76 C935.176,1033.76 956.691,1053.95 956.691,1083.41 M811.051,1246.26 C811.051,1268.1 827.932,1296.9 872.617,1296.9 C888.174,1296.9 901.745,1292.93 913.661,1285.65 C931.535,1273.07 936.169,1251.22 936.169,1230.37 C936.169,1217.46 934.183,1202.57 930.873,1183.7 C929.88,1177.08 927.894,1167.15 925.908,1154.24 C958.346,1143.65 982.509,1109.89 982.509,1075.79 C982.509,1025.81 947.092,992.05 898.766,992.05 C895.456,972.19 892.146,952.661 889.167,934.125 C924.253,897.384 948.416,856.009 948.416,803.38 C948.416,773.259 939.148,748.765 933.852,736.849 C925.908,719.968 916.309,708.383 910.351,708.383 C908.034,708.383 897.773,712.355 886.85,725.264 C865.666,750.42 859.708,792.788 859.708,820.592 C859.708,838.466 861.363,854.685 866.99,891.757 C866.659,892.088 849.447,909.631 842.496,915.258 C812.375,943.393 770.669,983.444 770.669,1049.64 C770.669,1111.54 824.622,1160.2 886.188,1160.2 C895.787,1160.2 904.724,1159.21 912.337,1157.88 C918.626,1189.66 922.267,1212.83 922.267,1230.37 C922.267,1264.79 904.724,1283 871.293,1283 C863.349,1283 856.398,1281.34 855.736,1281.34 C855.405,1281.01 854.743,1280.68 854.743,1280.35 C854.743,1279.69 855.405,1279.36 856.398,1279.03 C871.955,1276.71 887.512,1263.47 887.512,1242.29 C887.512,1224.41 873.941,1205.55 849.116,1205.55 C825.946,1205.55 811.051,1224.41 811.051,1246.26"/>
<path class="Clef" d="M909.689,2012.75 C903.069,2014.08 896.78,2014.74 890.491,2014.74 C843.158,2014.74 802.776,1981.64 802.776,1931.66 C802.776,1891.27 831.242,1855.2 860.37,1830.04 C865.997,1825.07 871.293,1820.44 876.258,1815.48 C879.237,1833.35 881.554,1848.91 883.871,1862.48 C853.75,1871.41 833.228,1903.19 833.228,1934.3 C833.228,1957.47 851.433,1989.25 877.913,1989.25 C880.561,1989.25 883.54,1987.93 883.54,1984.95 C883.54,1981.97 880.23,1980.31 876.258,1977.67 C863.349,1969.72 856.067,1961.12 856.067,1944.9 C856.067,1924.71 870.962,1908.49 890.491,1903.85 L909.689,2012.75 M880.561,1672.48 C883.54,1659.24 898.766,1624.49 915.978,1624.49 C920.943,1624.49 928.887,1640.71 928.887,1663.55 C928.887,1697.97 903.4,1723.79 880.561,1746.3 C878.575,1733.06 876.92,1720.15 876.92,1706.25 C876.92,1694 877.913,1682.74 880.561,1672.48 M956.691,1951.52 C956.691,1975.02 947.092,1999.18 923.591,2008.78 C916.64,1969.06 907.703,1916.43 905.386,1901.87 C935.176,1901.87 956.691,1922.06 956.691,1951.52 M811.051,2114.37 C811.051,2136.21 827.932,2165.01 872.617,2165.01 C888.174,2165.01 901.745,2161.04 913.661,2153.76 C931.535,2141.18 936.169,2119.33 936.169,2098.48 C936.169,2085.57 934.183,2070.68 930.873,2051.81 C929.88,2045.19 927.894,2035.26 925.908,2022.35 C958.346,2011.76 982.509,1978 982.509,1943.9 C982.509,1893.92 947.092,1860.16 898.766,1860.16 C895.456,1840.3 892.146,1820.77 889.167,1802.24 C924.253,1765.49 948.416,1724.12 948.416,1671.49 C948.416,1641.37 939.148,1616.88 933.852,1604.96 C925.908,1588.08 916.309,1576.49 910.351,1576.49 C908.034,1576.49 897.773,1580.47 886.85,1593.37 C865.666,1618.53 859.708,1660.9 859.708,1688.7 C859.708,1706.58 861.363,1722.8 866.99,1759.87 C866.659,1760.2 849.447,1777.74 842.496,1783.37 C812.375,1811.5 770.669,1851.55 770.669,1917.75 C770.669,1979.65 824.622,2028.31 886.188,2028.31 C895.787,2028.31 904.724,2027.32 912.337,2025.99 C918.626,2057.77 922.267,2080.94 922.267,2098.48 C922.267,2132.9 904.724,2151.11 871.293,2151.11 C863.349,2151.11 856.398,2149.45 855.736,2149.45 C855.405,2149.12 854.743,2148.79 854.743,2148.46 C854.743,2147.8 855.405,2147.47 856.398,2147.14 C871.955,2144.82 887.512,2131.58 887.512,2110.4 C887.512,2092.52 873.941,2073.66 849.116,2073.66 C825.946,2073.66 811.051,2092.52 811.051,2114.37"/>
<path class="KeySig" d="M1088.05,980.538 C1088.05,1006.69 1074.48,1020.59 1055.28,1035.82 L1056.27,971.27 C1056.93,968.291 1061.9,958.692 1075.14,958.692 C1087.06,958.692 1088.05,969.946 1088.05,976.897 L1088.05,980.538 M1084.08,942.473 C1067.53,942.473 1057.93,952.734 1056.27,954.72 L1057.6,848.469 C1057.6,845.821 1055.61,843.835 1052.96,843.835 L1048.99,843.835 C1046.34,843.835 1044.36,845.821 1044.36,848.469 L1046.01,1047.4 C1046.01,1050.05 1048,1052.03 1050.65,1052.03 C1051.31,1052.03 1052.63,1051.7 1053.29,1051.37 C1081.76,1037.14 1111.55,1010 1111.55,975.904 C1111.55,958.692 1103.61,942.473 1084.08,942.473"/>
<path class="KeySig" d="M1179.99,856.522 C1179.99,882.671 1166.42,896.573 1147.22,911.799 L1148.21,847.254 C1148.87,844.275 1153.84,834.676 1167.08,834.676 C1178.99,834.676 1179.99,845.93 1179.99,852.881 L1179.99,856.522 M1176.01,818.457 C1159.46,818.457 1149.87,828.718 1148.21,830.704 L1149.53,724.453 C1149.53,721.805 1147.55,719.819 1144.9,719.819 L1140.93,719.819 C1138.28,719.819 1136.29,721.805 1136.29,724.453 L1137.95,923.384 C1137.95,926.032 1139.94,928.018 1142.58,928.018 C1143.25,928.018 1144.57,927.687 1145.23,927.356 C1173.7,913.123 1203.49,885.981 1203.49,851.888 C1203.49,834.676 1195.54,818.457 1176.01,818.457"/>
<path class="KeySig" d="M1088.05,1848.65 C1088.05,1874.8 1074.48,1888.7 1055.28,1903.93 L1056.27,1839.38 C1056.93,1836.4 1061.9,1826.8 1075.14,1826.8 C1087.06,1826.8 1088.05,1838.06 1088.05,1845.01 L1088.05,1848.65 M1084.08,1810.58 C1067.53,1810.58 1057.93,1820.84 1056.27,1822.83 L1057.6,1716.58 C1057.6,1713.93 1055.61,1711.95 1052.96,1711.95 L1048.99,1711.95 C1046.34,1711.95 1044.36,1713.93 1044.36,1716.58 L1046.01,1915.51 C1046.01,1918.16 1048,1920.14 1050.65,1920.14 C1051.31,1920.14 1052.63,1919.81 1053.29,1919.48 C1081.76,1905.25 1111.55,1878.11 1111.55,1844.01 C1111.55,1826.8 1103.61,1810.58 1084.08,1810.58"/>
<path class="KeySig" d="M1179.99,1724.63 C1179.99,1750.78 1166.42,1764.68 1147.22,1779.91 L1148.21,1715.36 C1148.87,1712.39 1153.84,1702.79 1167.08,1702.79 C1178.99,1702.79 1179.99,1714.04 1179.99,1720.99 L1179.99,1724.63 M1176.01,1686.57 C1159.46,1686.57 1149.87,1696.83 1148.21,1698.81 L1149.53,1592.56 C1149.53,1589.92 1147.55,1587.93 1144.9,1587.93 L1140.93,1587.93 C1138.28,1587.93 1136.29,1589.92 1136.29,1592.56 L1137.95,1791.49 C1137.95,1794.14 1139.94,1796.13 1142.58,1796.13 C1143.25,1796.13 1144.57,1795.8 1145.23,1795.47 C1173.7,1781.23 1203.49,1754.09 1203.49,1720 C1203.49,1702.79 1195.54,1686.57 1176.01,1686.57"/>
<path class="TimeSig" d="M1360.25,979.772 C1349.33,979.772 1340.39,964.877 1340.39,946.341 C1340.39,927.805 1349.33,912.579 1360.25,912.579 C1371.17,912.579 1380.44,927.805 1380.44,946.341 C1380.44,964.877 1371.17,979.772 1360.25,979.772 M1372.5,897.022 C1352.31,897.022 1345.03,902.98 1340.39,907.945 C1339.4,900.994 1338.74,895.698 1338.74,890.402 C1338.74,871.535 1345.36,847.041 1368.53,847.041 C1376.8,847.041 1381.77,849.689 1385.08,853.33 C1378.13,856.309 1372.5,865.246 1372.5,872.859 C1372.5,884.775 1381.77,894.043 1393.68,894.043 C1405.6,894.043 1415.2,884.775 1415.2,872.859 L1415.2,871.866 C1415.2,868.887 1414.54,863.922 1413.21,861.274 C1408.91,849.358 1395.01,831.815 1361.91,831.815 C1332.12,831.815 1310.6,860.281 1303.98,875.507 C1300.67,883.451 1295.71,899.67 1295.71,918.206 C1295.71,938.397 1301.33,961.236 1320.86,978.448 C1340.06,993.012 1352.31,993.674 1363.89,993.674 C1375.48,993.674 1418.84,980.103 1418.84,941.707 C1418.84,909.269 1393.35,897.022 1372.5,897.022"/>
<path class="TimeSig" d="M1350.34,1118.01 L1350.34,1142.5 L1322.87,1142.5 C1320.55,1142.5 1318.23,1144.49 1318.23,1147.13 L1318.23,1153.42 C1318.23,1156.07 1320.55,1158.06 1322.87,1158.06 L1423.16,1158.06 C1425.81,1158.06 1427.79,1156.07 1427.79,1153.42 L1427.79,1147.13 C1427.79,1144.49 1425.81,1142.5 1423.16,1142.5 L1393.37,1142.5 L1393.37,1118.01 L1423.16,1118.01 C1425.81,1118.01 1427.79,1115.69 1427.79,1113.04 L1427.79,1106.75 C1427.79,1104.44 1425.81,1102.12 1423.16,1102.12 L1393.37,1102.12 L1393.37,1049.49 C1393.37,1047.5 1392.38,1045.85 1391.05,1045.19 L1387.08,1043.2 C1386.42,1042.87 1386.09,1042.87 1385.43,1042.87 C1384.1,1042.87 1382.78,1042.87 1381.78,1043.86 L1351.66,1071.34 C1350.67,1072.33 1350.34,1073.65 1350.34,1074.98 L1350.34,1102.12 L1311.94,1102.12 C1311.94,1102.12 1349.02,1062.4 1388.07,1010.1 C1389.4,1008.45 1389.73,1006.79 1389.73,1005.47 C1389.73,1003.81 1389.07,1002.49 1388.74,1002.16 L1381.45,994.874 C1380.46,994.212 1379.47,993.55 1378.14,993.55 C1376.16,993.55 1331.47,993.55 1328.82,993.55 C1326.51,993.55 1324.85,995.536 1324.52,997.522 C1324.52,997.522 1322.87,1022.02 1314.26,1048.83 C1305.65,1075.64 1295.72,1092.19 1287.12,1104.44 C1287.12,1104.44 1286.13,1106.09 1286.13,1108.08 C1286.13,1108.74 1286.13,1109.4 1286.46,1110.06 C1287.45,1112.38 1289.77,1116.02 1289.77,1116.02 C1289.77,1116.02 1290.43,1118.01 1293.41,1118.01 L1350.34,1118.01 "/>
<path class="Beam" fill-rule="evenodd" d="M8686.99,1138.4 L8951.99,1117.73 L8951.99,1159.2 L8686.99,1179.86 L8686.99,1138.4 "/>
</svg>
