<?xml version="1.0" encoding="UTF-8" standalone="no"?>
<svg width="210.058mm" height="296.926mm" viewBox="0 0 9924 14028"
 xmlns="http://www.w3.org/2000/svg" xmlns:xlink="http://www.w3.org/1999/xlink" version="1.2" baseProfile="full">
<title>air_X</title>
<desc>Generated by MuseScore Studio 4.7.3</desc>
<polyline class="StaffLines" fill="none" stroke="#000000" stroke-width="9.09" stroke-linejoin="bevel" points="708.661,828.424 9215.34,828.424" />
<polyline class="StaffLines" fill="none" stroke="#000000" stroke-width="9.09" stroke-linejoin="bevel" points="708.661,911.101 9215.34,911.101" />
<polyline class="StaffLines" fill="none" stroke="#000000" stroke-width="9.09" stroke-linejoin="bevel" points="708.661,993.778 9215.34,993.778" />
<polyline class="StaffLines" fill="none" stroke="#000000" stroke-width="9.09" stroke-linejoin="bevel" points="708.661,1076.46 9215.34,1076.46" />
<polyline class="StaffLines" fill="none" stroke="#000000" stroke-width="9.09" stroke-linejoin="bevel" points="708.661,1159.13 9215.34,1159.13" />
<polyline class="StaffLines" fill="none" stroke="#000000" stroke-width="9.09" stroke-linejoin="bevel" points="708.661,1696.53 9215.34,1696.53" />
<polyline class="StaffLines" fill="none" stroke="#000000" stroke-width="9.09" stroke-linejoin="bevel" points="708.661,1779.21 9215.34,1779.21" />
<polyline class="StaffLines" fill="none" stroke="#000000" stroke-width="9.09" stroke-linejoin="bevel" points="708.661,1861.89 9215.34,1861.89" />
<polyline class="StaffLines" fill="none" stroke="#000000" stroke-width="9.09" stroke-linejoin="bevel" points="708.661,1944.57 9215.34,1944.57" />
<polyline class="StaffLines" fill="none" stroke="#000000" stroke-width="9.09" stroke-linejoin="bevel" points="708.661,2027.24 9215.34,2027.24" />
<polyline class="StaffLines" fill="none" stroke="#000000" stroke-width="9.09" stroke-linejoin="bevel" points="708.661,2564.64 9215.34,2564.64" />
<polyline class="StaffLines" fill="none" stroke="#000000" stroke-width="9.09" stroke-linejoin="bevel" points="708.661,2647.32 9215.34,2647.32" />
<polyline class="StaffLines" fill="none" stroke="#000000" stroke-width="9.09" stroke-linejoin="bevel" points="708.661,2730 9215.34,2730" />
<polyline class="StaffLines" fill="none" stroke="#000000" stroke-width="9.09" stroke-linejoin="bevel" points="708.661,2812.68 9215.34,2812.68" />
<polyline class="StaffLines" fill="none" stroke="#000000" stroke-width="9.09" stroke-linejoin="bevel" points="708.661,2895.35 9215.34,2895.35" />
<polyline class="BarLine" fill="none" stroke="#000000" stroke-width="14.88" stroke-linejoin="bevel" points="3880.97,823.876 3880.97,1163.68" />
<path class="BarLine" d="M9093.83,952.439 C9093.83,942.84 9086.22,934.896 9076.62,934.896 C9067.02,934.896 9059.41,942.84 9059.41,952.439 C9059.41,962.038 9067.02,969.982 9076.62,969.982 C9086.22,969.982 9093.83,962.038 9093.83,952.439"/>
<path class="BarLine" d="M9093.83,1035.12 C9093.83,1025.52 9086.22,1017.57 9076.62,1017.57 C9067.02,1017.57 9059.41,1025.52 9059.41,1035.12 C9059.41,1044.72 9067.02,1052.66 9076.62,1052.66 C9086.22,1052.66 9093.83,1044.72 9093.83,1035.12"/>
<polyline class="BarLine" fill="none" stroke="#000000" stroke-width="14.88" stroke-linejoin="bevel" points="9131.84,823.876 9131.84,1163.68" />
<polyline class="BarLine" fill="none" stroke="#000000" stroke-width="45.47" stroke-linejoin="bevel" points="9192.6,823.876 9192.6,1163.68" />
<polyline class="BarLine" fill="none" stroke="#000000" stroke-width="14.88" stroke-linejoin="bevel" points="6118.07,1691.99 6118.07,2031.79" />
<polyline class="BarLine" fill="none" stroke="#000000" stroke-width="14.88" stroke-linejoin="bevel" points="8007.79,2560.1 8007.79,2899.9" />
<polyline class="BarLine" fill="none" stroke="#000000" stroke-width="14.88" stroke-linejoin="bevel" points="5676.52,823.876 5676.52,1163.68" />
<polyline class="BarLine" fill="none" stroke="#000000" stroke-width="14.88" stroke-linejoin="bevel" points="6368.32,2560.1 6368.32,2899.9" />
<polyline class="BarLine" fill="none" stroke="#000000" stroke-width="14.88" stroke-linejoin="bevel" points="1917.69,823.876 1917.69,1163.68" />
<polyline class="BarLine" fill="none" stroke="#000000" stroke-width="45.47" stroke-linejoin="bevel" points="1369.05,1691.99 1369.05,2031.79" />
<polyline class="BarLine" fill="none" stroke="#000000" stroke-width="14.88" stroke-linejoin="bevel" points="1429.82,1691.99 1429.82,2031.79" />
<path class="BarLine" d="M1502.27,1820.55 C1502.27,1810.95 1494.66,1803.01 1485.06,1803.01 C1475.46,1803.01 1467.85,1810.95 1467.85,1820.55 C1467.85,1830.15 1475.46,1838.09 1485.06,1838.09 C1494.66,1838.09 1502.27,1830.15 1502.27,1820.55"/>
<path class="BarLine" d="M1502.27,1903.23 C1502.27,1893.63 1494.66,1885.68 1485.06,1885.68 C1475.46,1885.68 1467.85,1893.63 1467.85,1903.23 C1467.85,1912.83 1475.46,1920.77 1485.06,1920.77 C1494.66,1920.77 1502.27,1912.83 1502.27,1903.23"/>
<polyline class="BarLine" fill="none" stroke="#000000" stroke-width="14.88" stroke-linejoin="bevel" points="1857.17,1691.99 1857.17,2031.79" />
<polyline class="BarLine" fill="none" stroke="#000000" stroke-width="14.88" stroke-linejoin="bevel" points="4590.54,2560.1 4590.54,2899.9" />
<polyline class="BarLine" fill="none" stroke="#000000" stroke-width="14.88" stroke-linejoin="bevel" points="3318.16,1691.99 3318.16,2031.79" />
<polyline class="BarLine" fill="none" stroke="#000000" stroke-width="14.88" stroke-linejoin="bevel" points="2951.07,2560.1 2951.07,2899.9" />
<polyline class="BarLine" fill="none" stroke="#000000" stroke-width="14.88" stroke-linejoin="bevel" points="4779.15,1691.99 4779.15,2031.79" />
<polyline class="BarLine" fill="none" stroke="#000000" stroke-width="14.88" stroke-linejoin="bevel" points="9207.9,1691.99 9207.9,2031.79" />
<path class="BarLine" d="M9093.83,2688.66 C9093.83,2679.06 9086.22,2671.12 9076.62,2671.12 C9067.02,2671.12 9059.41,2679.06 9059.41,2688.66 C9059.41,2698.26 9067.02,2706.2 9076.62,2706.2 C9086.22,2706.2 9093.83,2698.26 9093.83,2688.66"/>
<path class="BarLine" d="M9093.83,2771.34 C9093.83,2761.74 9086.22,2753.79 9076.62,2753.79 C9067.02,2753.79 9059.41,2761.74 9059.41,2771.34 C9059.41,2780.94 9067.02,2788.88 9076.62,2788.88 C9086.22,2788.88 9093.83,2780.94 9093.83,2771.34"/>
<polyline class="BarLine" fill="none" stroke="#000000" stroke-width="14.88" stroke-linejoin="bevel" points="9131.84,2560.1 9131.84,2899.9" />
<polyline class="BarLine" fill="none" stroke="#000000" stroke-width="45.47" stroke-linejoin="bevel" points="9192.6,2560.1 9192.6,2899.9" />
<polyline class="BarLine" fill="none" stroke="#000000" stroke-width="14.88" stroke-linejoin="bevel" points="7579.06,1691.99 7579.06,2031.79" />
<polyline class="BarLine" fill="none" stroke="#000000" stroke-width="14.88" stroke-linejoin="bevel" points="7639.8,823.876 7639.8,1163.68" />
<path class="SlurSegment" stroke="#000000" stroke-width="4.13" stroke-linecap="round" stroke-linejoin="round" fill-rule="evenodd" d="M1476.12,2628.31 C1624.81,2520.39 1901.4,2544.36 2029.31,2676.26 C1899.12,2570.72 1622.53,2546.74 1476.12,2628.31"/>
<path class="SlurSegment" stroke="#000000" stroke-width="4.13" stroke-linecap="round" stroke-linejoin="round" fill-rule="evenodd" d="M2387.92,1677.52 C2444.2,1591.54 2566.27,1584.51 2632.05,1663.46 C2567.59,1607.49 2445.53,1614.51 2387.92,1677.52"/>
<path class="SlurSegment" stroke="#000000" stroke-width="4.13" stroke-linecap="round" stroke-linejoin="round" fill-rule="evenodd" d="M3482.7,1677.52 C3538.99,1591.54 3661.05,1584.51 3726.84,1663.46 C3662.38,1607.49 3540.31,1614.51 3482.7,1677.52"/>
<path class="SlurSegment" stroke="#000000" stroke-width="4.13" stroke-linecap="round" stroke-linejoin="round" fill-rule="evenodd" d="M6526.75,1977.64 C6626.95,2094.72 6871.09,2156.73 7015.02,2101.65 C6864.58,2182.37 6620.44,2120.36 6526.75,1977.64"/>
<path class="SlurSegment" stroke="#000000" stroke-width="4.13" stroke-linecap="round" stroke-linejoin="round" fill-rule="evenodd" d="M8155.58,1677.52 C8292.91,1557.74 8567.57,1557.74 8704.89,1677.52 C8567.57,1584.19 8292.91,1584.19 8155.58,1677.52"/>
<path class="SlurSegment" stroke="#000000" stroke-width="4.13" stroke-linecap="round" stroke-linejoin="round" fill-rule="evenodd" d="M6176.52,1109.53 C6243.33,1199.4 6411.06,1240.74 6511.98,1192.2 C6404.73,1266.43 6237,1225.09 6176.52,1109.53"/>
<path class="TieSegment" stroke="#000000" stroke-width="4.13" stroke-linecap="round" stroke-linejoin="round" fill-rule="evenodd" d="M8154.51,850.741 C8218.3,768.194 8409.65,768.194 8473.44,850.741 C8409.65,794.18 8218.3,794.18 8154.51,850.741"/>
<path class="TieSegment" stroke="#000000" stroke-width="4.13" stroke-linecap="round" stroke-linejoin="round" fill-rule="evenodd" d="M8187.04,2586.96 C8266.71,2500.46 8505.72,2500.46 8585.39,2586.96 C8505.72,2526.92 8266.71,2526.92 8187.04,2586.96"/>
<polyline class="Stem" fill="none" stroke="#000000" stroke-width="8.27" stroke-linejoin="bevel" points="8105.97,1793.1 8105.97,2068.58" />
<polyline class="Stem" fill="none" stroke="#000000" stroke-width="8.27" stroke-linejoin="bevel" points="7693.99,1834.44 7693.99,2089.25" />
<polyline class="Stem" fill="none" stroke="#000000" stroke-width="8.27" stroke-linejoin="bevel" points="7412.22,2882.12 7412.22,2605.98" />
<polyline class="Stem" fill="none" stroke="#000000" stroke-width="8.27" stroke-linejoin="bevel" points="8090.19,924.991 8090.19,1200.47" />
<polyline class="Stem" fill="none" stroke="#000000" stroke-width="8.27" stroke-linejoin="bevel" points="7135.63,2840.79 7135.63,2564.64" />
<polyline class="Stem" fill="none" stroke="#000000" stroke-width="8.27" stroke-linejoin="bevel" points="8425.65,924.991 8425.65,1200.47" />
<polyline class="Stem" fill="none" stroke="#000000" stroke-width="8.27" stroke-linejoin="bevel" points="6859.04,2799.45 6859.04,2523.31" />
<polyline class="Stem" fill="none" stroke="#000000" stroke-width="8.27" stroke-linejoin="bevel" points="6582.45,2758.11 6582.45,2502.64" />
<polyline class="Stem" fill="none" stroke="#000000" stroke-width="8.27" stroke-linejoin="bevel" points="1708.62,1187.24 1708.62,911.101" />
<polyline class="Stem" fill="none" stroke="#000000" stroke-width="8.27" stroke-linejoin="bevel" points="6226.12,1021.89 6226.12,766.416" />
<polyline class="Stem" fill="none" stroke="#000000" stroke-width="8.27" stroke-linejoin="bevel" points="7827.11,2923.46 7827.11,2647.32" />
<polyline class="Stem" fill="none" stroke="#000000" stroke-width="8.27" stroke-linejoin="bevel" points="5890.65,1063.23 5890.65,787.085" />
<polyline class="Stem" fill="none" stroke="#000000" stroke-width="8.27" stroke-linejoin="bevel" points="6187.63,2758.11 6187.63,2502.64" />
<polyline class="Stem" fill="none" stroke="#000000" stroke-width="8.27" stroke-linejoin="bevel" points="5811.83,2661.21 5811.83,2936.69" />
<polyline class="Stem" fill="none" stroke="#000000" stroke-width="8.27" stroke-linejoin="bevel" points="5535.24,2743.89 5535.24,2978.03" />
<polyline class="Stem" fill="none" stroke="#000000" stroke-width="8.27" stroke-linejoin="bevel" points="1609.73,1793.1 1609.73,2068.58" />
<polyline class="Stem" fill="none" stroke="#000000" stroke-width="8.27" stroke-linejoin="bevel" points="5357.86,2758.11 5357.86,2502.64" />
<polyline class="Stem" fill="none" stroke="#000000" stroke-width="8.27" stroke-linejoin="bevel" points="5436.96,1021.89 5436.96,766.416" />
<polyline class="Stem" fill="none" stroke="#000000" stroke-width="8.27" stroke-linejoin="bevel" points="4982.06,2661.21 4982.06,2936.69" />
<polyline class="Stem" fill="none" stroke="#000000" stroke-width="8.27" stroke-linejoin="bevel" points="1972.09,1834.44 1972.09,2089.25" />
<polyline class="Stem" fill="none" stroke="#000000" stroke-width="8.27" stroke-linejoin="bevel" points="4705.47,2743.89 4705.47,2978.03" />
<polyline class="Stem" fill="none" stroke="#000000" stroke-width="8.27" stroke-linejoin="bevel" points="2338.3,1793.1 2338.3,2068.58" />
<polyline class="Stem" fill="none" stroke="#000000" stroke-width="8.27" stroke-linejoin="bevel" points="2131.82,1104.57 2131.82,828.424" />
<polyline class="Stem" fill="none" stroke="#000000" stroke-width="8.27" stroke-linejoin="bevel" points="2582.44,1751.76 2582.44,2027.24" />
<polyline class="Stem" fill="none" stroke="#000000" stroke-width="8.27" stroke-linejoin="bevel" points="4409.86,2923.46 4409.86,2647.32" />
<polyline class="Stem" fill="none" stroke="#000000" stroke-width="8.27" stroke-linejoin="bevel" points="2826.58,1793.1 2826.58,2068.58" />
<polyline class="Stem" fill="none" stroke="#000000" stroke-width="8.27" stroke-linejoin="bevel" points="3994.97,2882.12 3994.97,2605.98" />
<polyline class="Stem" fill="none" stroke="#000000" stroke-width="8.27" stroke-linejoin="bevel" points="3070.72,1834.44 3070.72,2089.25" />
<polyline class="Stem" fill="none" stroke="#000000" stroke-width="8.27" stroke-linejoin="bevel" points="3718.38,2840.79 3718.38,2564.64" />
<polyline class="Stem" fill="none" stroke="#000000" stroke-width="8.27" stroke-linejoin="bevel" points="4834.55,1007.67 4834.55,1241.81" />
<polyline class="Stem" fill="none" stroke="#000000" stroke-width="8.27" stroke-linejoin="bevel" points="3441.79,2799.45 3441.79,2523.31" />
<polyline class="Stem" fill="none" stroke="#000000" stroke-width="8.27" stroke-linejoin="bevel" points="3433.08,1793.1 3433.08,2068.58" />
<polyline class="Stem" fill="none" stroke="#000000" stroke-width="8.27" stroke-linejoin="bevel" points="3165.2,2758.11 3165.2,2502.64" />
<polyline class="Stem" fill="none" stroke="#000000" stroke-width="8.27" stroke-linejoin="bevel" points="3677.22,1751.76 3677.22,2027.24" />
<polyline class="Stem" fill="none" stroke="#000000" stroke-width="8.27" stroke-linejoin="bevel" points="2467.28,1063.23 2467.28,787.085" />
<polyline class="Stem" fill="none" stroke="#000000" stroke-width="8.27" stroke-linejoin="bevel" points="3921.36,1834.44 3921.36,2089.25" />
<polyline class="Stem" fill="none" stroke="#000000" stroke-width="8.27" stroke-linejoin="bevel" points="2671.17,2661.21 2671.17,2936.69" />
<polyline class="Stem" fill="none" stroke="#000000" stroke-width="8.27" stroke-linejoin="bevel" points="4165.5,1875.78 4165.5,2109.92" />
<polyline class="Stem" fill="none" stroke="#000000" stroke-width="8.27" stroke-linejoin="bevel" points="2256.28,2702.55 2256.28,2957.36" />
<polyline class="Stem" fill="none" stroke="#000000" stroke-width="8.27" stroke-linejoin="bevel" points="4630.92,1890 4630.92,1634.53" />
<polyline class="Stem" fill="none" stroke="#000000" stroke-width="8.27" stroke-linejoin="bevel" points="2078.91,2758.11 2078.91,2502.64" />
<polyline class="Stem" fill="none" stroke="#000000" stroke-width="8.27" stroke-linejoin="bevel" points="4499.09,966.329 4499.09,1221.14" />
<polyline class="Stem" fill="none" stroke="#000000" stroke-width="8.27" stroke-linejoin="bevel" points="1703.1,2702.55 1703.1,2957.36" />
<polyline class="Stem" fill="none" stroke="#000000" stroke-width="8.27" stroke-linejoin="bevel" points="4894.08,1834.44 4894.08,2089.25" />
<polyline class="Stem" fill="none" stroke="#000000" stroke-width="8.27" stroke-linejoin="bevel" points="1426.51,2743.89 1426.51,2978.03" />
<polyline class="Stem" fill="none" stroke="#000000" stroke-width="8.27" stroke-linejoin="bevel" points="5260.28,1793.1 5260.28,2068.58" />
<polyline class="Stem" fill="none" stroke="#000000" stroke-width="8.27" stroke-linejoin="bevel" points="2802.75,1021.89 2802.75,766.416" />
<polyline class="Stem" fill="none" stroke="#000000" stroke-width="8.27" stroke-linejoin="bevel" points="5504.42,1751.76 5504.42,2027.24" />
<polyline class="Stem" fill="none" stroke="#000000" stroke-width="8.27" stroke-linejoin="bevel" points="7400.24,1187.24 7400.24,911.101" />
<polyline class="Stem" fill="none" stroke="#000000" stroke-width="8.27" stroke-linejoin="bevel" points="3995.89,924.991 3995.89,1200.47" />
<polyline class="Stem" fill="none" stroke="#000000" stroke-width="8.27" stroke-linejoin="bevel" points="8122.72,2661.21 8122.72,2936.69" />
<polyline class="Stem" fill="none" stroke="#000000" stroke-width="8.27" stroke-linejoin="bevel" points="5969.84,1972.68 5969.84,1696.53" />
<polyline class="Stem" fill="none" stroke="#000000" stroke-width="8.27" stroke-linejoin="bevel" points="3641.41,1021.89 3641.41,766.416" />
<polyline class="Stem" fill="none" stroke="#000000" stroke-width="8.27" stroke-linejoin="bevel" points="6332.21,1931.34 6332.21,1655.2" />
<polyline class="Stem" fill="none" stroke="#000000" stroke-width="8.27" stroke-linejoin="bevel" points="6897.05,1145.9 6897.05,869.762" />
<polyline class="Stem" fill="none" stroke="#000000" stroke-width="8.27" stroke-linejoin="bevel" points="6576.35,1890 6576.35,1634.53" />
<polyline class="Stem" fill="none" stroke="#000000" stroke-width="8.27" stroke-linejoin="bevel" points="8537.6,2661.21 8537.6,2936.69" />
<polyline class="Stem" fill="none" stroke="#000000" stroke-width="8.27" stroke-linejoin="bevel" points="6820.49,1972.68 6820.49,1696.53" />
<polyline class="Stem" fill="none" stroke="#000000" stroke-width="8.27" stroke-linejoin="bevel" points="8929.94,1834.44 8929.94,2089.25" />
<polyline class="Stem" fill="none" stroke="#000000" stroke-width="8.27" stroke-linejoin="bevel" points="7064.62,2014.01 7064.62,1737.87" />
<polyline class="Stem" fill="none" stroke="#000000" stroke-width="8.27" stroke-linejoin="bevel" points="8655.28,1793.1 8655.28,2068.58" />
<polyline class="Stem" fill="none" stroke="#000000" stroke-width="8.27" stroke-linejoin="bevel" points="7430.83,2055.35 7430.83,1779.21" />
<polyline class="Stem" fill="none" stroke="#000000" stroke-width="8.27" stroke-linejoin="bevel" points="8380.63,1751.76 8380.63,2027.24" />
<polyline class="Stem" fill="none" stroke="#000000" stroke-width="8.27" stroke-linejoin="bevel" points="6561.58,1104.57 6561.58,828.424" />
<polyline class="Stem" fill="none" stroke="#000000" stroke-width="8.27" stroke-linejoin="bevel" points="3039,1007.67 3039,1241.81" />
<polyline class="Stem" fill="none" stroke="#000000" stroke-width="8.27" stroke-linejoin="bevel" points="7853.94,1187.24 7853.94,911.101" />
<path class="Note" d="M7714.68,1849.02 C7703.75,1849.02 7701.44,1840.08 7701.44,1837.1 C7701.44,1820.88 7757.05,1792.41 7772.6,1792.41 C7780.55,1792.41 7785.84,1797.05 7785.84,1804.33 C7785.84,1820.88 7729.9,1849.02 7714.68,1849.02 M7760.36,1776.86 C7728.25,1776.86 7689.85,1803.67 7689.85,1834.45 C7689.85,1848.68 7700.11,1864.57 7726.92,1864.57 C7761.35,1864.57 7797.43,1836.44 7797.43,1807.31 C7797.43,1787.78 7780.88,1776.86 7760.36,1776.86"/>
<path class="Note" d="M7296.9,1214.37 C7296.9,1228.61 7307.16,1244.49 7333.97,1244.49 C7368.39,1244.49 7404.47,1216.36 7404.47,1187.23 C7404.47,1167.7 7387.92,1156.78 7367.4,1156.78 C7335.29,1156.78 7296.9,1183.92 7296.9,1214.37"/>
<path class="Note" d="M8101.84,1793.11 C8101.84,1807.35 8112.1,1823.23 8138.91,1823.23 C8173.33,1823.23 8209.41,1795.1 8209.41,1765.97 C8209.41,1746.44 8192.86,1735.52 8172.34,1735.52 C8140.23,1735.52 8101.84,1762.66 8101.84,1793.11"/>
<path class="Note" d="M7327.49,2082.48 C7327.49,2096.72 7337.75,2112.6 7364.56,2112.6 C7398.98,2112.6 7435.06,2084.47 7435.06,2055.34 C7435.06,2035.81 7418.51,2024.89 7397.99,2024.89 C7365.88,2024.89 7327.49,2052.03 7327.49,2082.48"/>
<path class="Note" d="M8376.49,1751.77 C8376.49,1766.01 8386.75,1781.9 8413.56,1781.9 C8447.99,1781.9 8484.07,1753.76 8484.07,1724.63 C8484.07,1705.1 8467.52,1694.18 8446.99,1694.18 C8414.89,1694.18 8376.49,1721.32 8376.49,1751.77"/>
<path class="Note" d="M6986.1,2055.71 C6975.18,2055.71 6972.86,2046.77 6972.86,2043.79 C6972.86,2027.57 7028.47,1999.11 7044.03,1999.11 C7051.97,1999.11 7057.27,2003.74 7057.27,2011.02 C7057.27,2027.57 7001.33,2055.71 6986.1,2055.71 M7031.78,1983.55 C6999.67,1983.55 6961.28,2010.36 6961.28,2041.14 C6961.28,2055.38 6971.54,2071.27 6998.35,2071.27 C7032.77,2071.27 7068.85,2043.13 7068.85,2014 C7068.85,1994.47 7052.3,1983.55 7031.78,1983.55"/>
<path class="Note" d="M8651.15,1793.11 C8651.15,1807.35 8661.41,1823.23 8688.22,1823.23 C8722.64,1823.23 8758.72,1795.1 8758.72,1765.97 C8758.72,1746.44 8742.17,1735.52 8721.65,1735.52 C8689.54,1735.52 8651.15,1762.66 8651.15,1793.11"/>
<path class="Note" d="M6717.14,1999.81 C6717.14,2014.04 6727.4,2029.93 6754.21,2029.93 C6788.64,2029.93 6824.71,2001.79 6824.71,1972.66 C6824.71,1953.14 6808.16,1942.21 6787.64,1942.21 C6755.54,1942.21 6717.14,1969.35 6717.14,1999.81"/>
<path class="Note" d="M8925.8,1834.45 C8925.8,1848.68 8936.06,1864.57 8962.88,1864.57 C8997.3,1864.57 9033.38,1836.44 9033.38,1807.31 C9033.38,1787.78 9016.83,1776.86 8996.31,1776.86 C8964.2,1776.86 8925.8,1804 8925.8,1834.45"/>
<path class="Note" d="M2699.4,1049.02 C2699.4,1063.25 2709.66,1079.14 2736.47,1079.14 C2770.9,1079.14 2806.98,1051 2806.98,1021.88 C2806.98,1002.35 2790.43,991.425 2769.9,991.425 C2737.8,991.425 2699.4,1018.57 2699.4,1049.02"/>
<path class="Note" d="M6473,1917.13 C6473,1931.36 6483.26,1947.25 6510.07,1947.25 C6544.5,1947.25 6580.58,1919.11 6580.58,1889.99 C6580.58,1870.46 6564.03,1859.53 6543.5,1859.53 C6511.4,1859.53 6473,1886.68 6473,1917.13"/>
<path class="Note" d="M6228.86,1958.47 C6228.86,1972.7 6239.12,1988.59 6265.93,1988.59 C6300.36,1988.59 6336.44,1960.45 6336.44,1931.33 C6336.44,1911.8 6319.89,1900.87 6299.37,1900.87 C6267.26,1900.87 6228.86,1928.02 6228.86,1958.47"/>
<path class="Note" d="M3538.06,1049.02 C3538.06,1063.25 3548.32,1079.14 3575.14,1079.14 C3609.56,1079.14 3645.64,1051 3645.64,1021.88 C3645.64,1002.35 3629.09,991.425 3608.57,991.425 C3576.46,991.425 3538.06,1018.57 3538.06,1049.02"/>
<path class="Note" d="M5525.11,1766.34 C5514.19,1766.34 5511.87,1757.4 5511.87,1754.42 C5511.87,1738.2 5567.48,1709.74 5583.04,1709.74 C5590.98,1709.74 5596.28,1714.37 5596.28,1721.65 C5596.28,1738.2 5540.34,1766.34 5525.11,1766.34 M5570.79,1694.18 C5538.68,1694.18 5500.29,1720.99 5500.29,1751.77 C5500.29,1766.01 5510.55,1781.9 5537.36,1781.9 C5571.78,1781.9 5607.86,1753.76 5607.86,1724.63 C5607.86,1705.1 5591.31,1694.18 5570.79,1694.18"/>
<path class="Note" d="M5256.15,1793.11 C5256.15,1807.35 5266.41,1823.23 5293.22,1823.23 C5327.64,1823.23 5363.72,1795.1 5363.72,1765.97 C5363.72,1746.44 5347.17,1735.52 5326.65,1735.52 C5294.54,1735.52 5256.15,1762.66 5256.15,1793.11"/>
<path class="Note" d="M5866.5,1999.81 C5866.5,2014.04 5876.76,2029.93 5903.57,2029.93 C5937.99,2029.93 5974.07,2001.79 5974.07,1972.66 C5974.07,1953.14 5957.52,1942.21 5937,1942.21 C5904.89,1942.21 5866.5,1969.35 5866.5,1999.81"/>
<path class="Note" d="M8558.29,2675.79 C8547.37,2675.79 8545.05,2666.85 8545.05,2663.87 C8545.05,2647.65 8600.66,2619.19 8616.22,2619.19 C8624.16,2619.19 8629.46,2623.82 8629.46,2631.1 C8629.46,2647.65 8573.52,2675.79 8558.29,2675.79 M8603.97,2603.63 C8571.86,2603.63 8533.47,2630.44 8533.47,2661.22 C8533.47,2675.46 8543.73,2691.34 8570.54,2691.34 C8604.96,2691.34 8641.04,2663.21 8641.04,2634.08 C8641.04,2614.55 8624.49,2603.63 8603.97,2603.63"/>
<path class="Note" d="M4914.77,1849.02 C4903.84,1849.02 4901.53,1840.08 4901.53,1837.1 C4901.53,1820.88 4957.13,1792.41 4972.69,1792.41 C4980.64,1792.41 4985.93,1797.05 4985.93,1804.33 C4985.93,1820.88 4929.99,1849.02 4914.77,1849.02 M4960.44,1776.86 C4928.34,1776.86 4889.94,1803.67 4889.94,1834.45 C4889.94,1848.68 4900.2,1864.57 4927.01,1864.57 C4961.44,1864.57 4997.52,1836.44 4997.52,1807.31 C4997.52,1787.78 4980.97,1776.86 4960.44,1776.86"/>
<path class="Note" d="M1422.38,2743.9 C1422.38,2758.13 1432.64,2774.02 1459.45,2774.02 C1493.87,2774.02 1529.95,2745.89 1529.95,2716.76 C1529.95,2697.23 1513.4,2686.31 1492.88,2686.31 C1460.77,2686.31 1422.38,2713.45 1422.38,2743.9"/>
<path class="Note" d="M4016.58,939.567 C4005.66,939.567 4003.34,930.63 4003.34,927.651 C4003.34,911.432 4058.95,882.966 4074.51,882.966 C4082.45,882.966 4087.75,887.6 4087.75,894.882 C4087.75,911.432 4031.81,939.567 4016.58,939.567 M4062.26,867.409 C4030.15,867.409 3991.76,894.22 3991.76,925.003 C3991.76,939.236 4002.02,955.124 4028.83,955.124 C4063.25,955.124 4099.33,926.989 4099.33,897.861 C4099.33,878.332 4082.78,867.409 4062.26,867.409"/>
<path class="Note" d="M1698.97,2702.56 C1698.97,2716.79 1709.23,2732.68 1736.04,2732.68 C1770.46,2732.68 1806.54,2704.55 1806.54,2675.42 C1806.54,2655.89 1789.99,2644.97 1769.47,2644.97 C1737.36,2644.97 1698.97,2672.11 1698.97,2702.56"/>
<path class="Note" d="M4527.57,1917.13 C4527.57,1931.36 4537.84,1947.25 4564.65,1947.25 C4599.07,1947.25 4635.15,1919.11 4635.15,1889.99 C4635.15,1870.46 4618.6,1859.53 4598.08,1859.53 C4565.97,1859.53 4527.57,1886.68 4527.57,1917.13"/>
<path class="Note" d="M1975.56,2785.24 C1975.56,2799.47 1985.82,2815.36 2012.63,2815.36 C2047.05,2815.36 2083.13,2787.23 2083.13,2758.1 C2083.13,2738.57 2066.58,2727.65 2046.06,2727.65 C2013.95,2727.65 1975.56,2754.79 1975.56,2785.24"/>
<path class="Note" d="M4186.19,1890.35 C4175.27,1890.35 4172.95,1881.42 4172.95,1878.44 C4172.95,1862.22 4228.56,1833.75 4244.12,1833.75 C4252.06,1833.75 4257.36,1838.39 4257.36,1845.67 C4257.36,1862.22 4201.42,1890.35 4186.19,1890.35 M4231.87,1818.2 C4199.76,1818.2 4161.37,1845.01 4161.37,1875.79 C4161.37,1890.02 4171.63,1905.91 4198.44,1905.91 C4232.86,1905.91 4268.94,1877.78 4268.94,1848.65 C4268.94,1829.12 4252.39,1818.2 4231.87,1818.2"/>
<path class="Note" d="M2276.97,2717.13 C2266.05,2717.13 2263.73,2708.19 2263.73,2705.21 C2263.73,2688.99 2319.34,2660.52 2334.9,2660.52 C2342.84,2660.52 2348.14,2665.16 2348.14,2672.44 C2348.14,2688.99 2292.2,2717.13 2276.97,2717.13 M2322.65,2644.97 C2290.55,2644.97 2252.15,2671.78 2252.15,2702.56 C2252.15,2716.79 2262.41,2732.68 2289.22,2732.68 C2323.65,2732.68 2359.72,2704.55 2359.72,2675.42 C2359.72,2655.89 2343.17,2644.97 2322.65,2644.97"/>
<path class="Note" d="M3917.23,1834.45 C3917.23,1848.68 3927.49,1864.57 3954.3,1864.57 C3988.72,1864.57 4024.8,1836.44 4024.8,1807.31 C4024.8,1787.78 4008.25,1776.86 3987.73,1776.86 C3955.62,1776.86 3917.23,1804 3917.23,1834.45"/>
<path class="Note" d="M2667.04,2661.22 C2667.04,2675.46 2677.3,2691.34 2704.11,2691.34 C2738.53,2691.34 2774.61,2663.21 2774.61,2634.08 C2774.61,2614.55 2758.06,2603.63 2737.54,2603.63 C2705.43,2603.63 2667.04,2630.77 2667.04,2661.22"/>
<path class="Note" d="M2363.94,1090.36 C2363.94,1104.59 2374.2,1120.48 2401.01,1120.48 C2435.43,1120.48 2471.51,1092.34 2471.51,1063.22 C2471.51,1043.69 2454.96,1032.76 2434.44,1032.76 C2402.33,1032.76 2363.94,1059.91 2363.94,1090.36"/>
<path class="Note" d="M3673.09,1751.77 C3673.09,1766.01 3683.35,1781.9 3710.16,1781.9 C3744.59,1781.9 3780.66,1753.76 3780.66,1724.63 C3780.66,1705.1 3764.11,1694.18 3743.59,1694.18 C3711.49,1694.18 3673.09,1721.32 3673.09,1751.77"/>
<path class="Note" d="M3428.95,1793.11 C3428.95,1807.35 3439.21,1823.23 3466.02,1823.23 C3500.45,1823.23 3536.53,1795.1 3536.53,1765.97 C3536.53,1746.44 3519.98,1735.52 3499.45,1735.52 C3467.35,1735.52 3428.95,1762.66 3428.95,1793.11"/>
<path class="Note" d="M3061.85,2785.24 C3061.85,2799.47 3072.12,2815.36 3098.93,2815.36 C3133.35,2815.36 3169.43,2787.23 3169.43,2758.1 C3169.43,2738.57 3152.88,2727.65 3132.36,2727.65 C3100.25,2727.65 3061.85,2754.79 3061.85,2785.24"/>
<path class="Note" d="M4494.95,966.341 C4494.95,980.574 4505.21,996.462 4532.02,996.462 C4566.45,996.462 4602.53,968.327 4602.53,939.199 C4602.53,919.67 4585.98,908.747 4565.46,908.747 C4533.35,908.747 4494.95,935.889 4494.95,966.341"/>
<path class="Note" d="M3338.45,2826.58 C3338.45,2840.81 3348.71,2856.7 3375.52,2856.7 C3409.94,2856.7 3446.02,2828.56 3446.02,2799.44 C3446.02,2779.91 3429.47,2768.98 3408.95,2768.98 C3376.84,2768.98 3338.45,2796.13 3338.45,2826.58"/>
<path class="Note" d="M3066.58,1834.45 C3066.58,1848.68 3076.85,1864.57 3103.66,1864.57 C3138.08,1864.57 3174.16,1836.44 3174.16,1807.31 C3174.16,1787.78 3157.61,1776.86 3137.09,1776.86 C3104.98,1776.86 3066.58,1804 3066.58,1834.45"/>
<path class="Note" d="M3615.04,2867.92 C3615.04,2882.15 3625.3,2898.04 3652.11,2898.04 C3686.53,2898.04 3722.61,2869.9 3722.61,2840.77 C3722.61,2821.25 3706.06,2810.32 3685.54,2810.32 C3653.43,2810.32 3615.04,2837.46 3615.04,2867.92"/>
<path class="Note" d="M2822.45,1793.11 C2822.45,1807.35 2832.71,1823.23 2859.52,1823.23 C2893.94,1823.23 2930.02,1795.1 2930.02,1765.97 C2930.02,1746.44 2913.47,1735.52 2892.95,1735.52 C2860.84,1735.52 2822.45,1762.66 2822.45,1793.11"/>
<path class="Note" d="M3916.45,2923.82 C3905.53,2923.82 3903.21,2914.88 3903.21,2911.9 C3903.21,2895.68 3958.82,2867.22 3974.38,2867.22 C3982.32,2867.22 3987.62,2871.85 3987.62,2879.13 C3987.62,2895.68 3931.68,2923.82 3916.45,2923.82 M3962.13,2851.66 C3930.02,2851.66 3891.63,2878.47 3891.63,2909.25 C3891.63,2923.49 3901.89,2939.38 3928.7,2939.38 C3963.12,2939.38 3999.2,2911.24 3999.2,2882.11 C3999.2,2862.58 3982.65,2851.66 3962.13,2851.66"/>
<path class="Note" d="M2578.31,1751.77 C2578.31,1766.01 2588.57,1781.9 2615.38,1781.9 C2649.8,1781.9 2685.88,1753.76 2685.88,1724.63 C2685.88,1705.1 2669.33,1694.18 2648.81,1694.18 C2616.7,1694.18 2578.31,1721.32 2578.31,1751.77"/>
<path class="Note" d="M4306.51,2950.59 C4306.51,2964.83 4316.77,2980.71 4343.58,2980.71 C4378.01,2980.71 4414.09,2952.58 4414.09,2923.45 C4414.09,2903.92 4397.54,2893 4377.02,2893 C4344.91,2893 4306.51,2920.14 4306.51,2950.59"/>
<path class="Note" d="M2028.47,1131.7 C2028.47,1145.93 2038.73,1161.82 2065.54,1161.82 C2099.97,1161.82 2136.05,1133.68 2136.05,1104.55 C2136.05,1085.02 2119.5,1074.1 2098.98,1074.1 C2066.87,1074.1 2028.47,1101.24 2028.47,1131.7"/>
<path class="Note" d="M2334.17,1793.11 C2334.17,1807.35 2344.43,1823.23 2371.24,1823.23 C2405.66,1823.23 2441.74,1795.1 2441.74,1765.97 C2441.74,1746.44 2425.19,1735.52 2404.67,1735.52 C2372.56,1735.52 2334.17,1762.66 2334.17,1793.11"/>
<path class="Note" d="M1992.79,1849.02 C1981.86,1849.02 1979.55,1840.08 1979.55,1837.1 C1979.55,1820.88 2035.15,1792.41 2050.71,1792.41 C2058.65,1792.41 2063.95,1797.05 2063.95,1804.33 C2063.95,1820.88 2008.01,1849.02 1992.79,1849.02 M2038.46,1776.86 C2006.36,1776.86 1967.96,1803.67 1967.96,1834.45 C1967.96,1848.68 1978.22,1864.57 2005.03,1864.57 C2039.46,1864.57 2075.54,1836.44 2075.54,1807.31 C2075.54,1787.78 2058.99,1776.86 2038.46,1776.86"/>
<path class="Note" d="M4701.33,2743.9 C4701.33,2758.13 4711.59,2774.02 4738.4,2774.02 C4772.83,2774.02 4808.91,2745.89 4808.91,2716.76 C4808.91,2697.23 4792.36,2686.31 4771.84,2686.31 C4739.73,2686.31 4701.33,2713.45 4701.33,2743.9"/>
<path class="Note" d="M4855.24,1022.24 C4844.32,1022.24 4842,1013.31 4842,1010.33 C4842,994.109 4897.61,965.643 4913.17,965.643 C4921.11,965.643 4926.41,970.277 4926.41,977.559 C4926.41,994.109 4870.47,1022.24 4855.24,1022.24 M4900.92,950.086 C4868.81,950.086 4830.42,976.897 4830.42,1007.68 C4830.42,1021.91 4840.68,1037.8 4867.49,1037.8 C4901.91,1037.8 4937.99,1009.67 4937.99,980.538 C4937.99,961.009 4921.44,950.086 4900.92,950.086"/>
<path class="Note" d="M4977.92,2661.22 C4977.92,2675.46 4988.18,2691.34 5014.99,2691.34 C5049.42,2691.34 5085.5,2663.21 5085.5,2634.08 C5085.5,2614.55 5068.95,2603.63 5048.43,2603.63 C5016.32,2603.63 4977.92,2630.77 4977.92,2661.22"/>
<path class="Note" d="M1605.59,1793.11 C1605.59,1807.35 1615.86,1823.23 1642.67,1823.23 C1677.09,1823.23 1713.17,1795.1 1713.17,1765.97 C1713.17,1746.44 1696.62,1735.52 1676.1,1735.52 C1643.99,1735.52 1605.59,1762.66 1605.59,1793.11"/>
<path class="Note" d="M5254.51,2785.24 C5254.51,2799.47 5264.77,2815.36 5291.59,2815.36 C5326.01,2815.36 5362.09,2787.23 5362.09,2758.1 C5362.09,2738.57 5345.54,2727.65 5325.02,2727.65 C5292.91,2727.65 5254.51,2754.79 5254.51,2785.24"/>
<path class="Note" d="M5333.61,1049.02 C5333.61,1063.25 5343.88,1079.14 5370.69,1079.14 C5405.11,1079.14 5441.19,1051 5441.19,1021.88 C5441.19,1002.35 5424.64,991.425 5404.12,991.425 C5372.01,991.425 5333.61,1018.57 5333.61,1049.02"/>
<path class="Note" d="M5531.1,2743.9 C5531.1,2758.13 5541.37,2774.02 5568.18,2774.02 C5602.6,2774.02 5638.68,2745.89 5638.68,2716.76 C5638.68,2697.23 5622.13,2686.31 5601.61,2686.31 C5569.5,2686.31 5531.1,2713.45 5531.1,2743.9"/>
<path class="Note" d="M6458.24,1131.7 C6458.24,1145.93 6468.5,1161.82 6495.31,1161.82 C6529.73,1161.82 6565.81,1133.68 6565.81,1104.55 C6565.81,1085.02 6549.26,1074.1 6528.74,1074.1 C6496.63,1074.1 6458.24,1101.24 6458.24,1131.7"/>
<path class="Note" d="M5807.69,2661.22 C5807.69,2675.46 5817.96,2691.34 5844.77,2691.34 C5879.19,2691.34 5915.27,2663.21 5915.27,2634.08 C5915.27,2614.55 5898.72,2603.63 5878.2,2603.63 C5846.09,2603.63 5807.69,2630.77 5807.69,2661.22"/>
<path class="Note" d="M8143.41,2675.79 C8132.48,2675.79 8130.17,2666.85 8130.17,2663.87 C8130.17,2647.65 8185.78,2619.19 8201.33,2619.19 C8209.28,2619.19 8214.57,2623.82 8214.57,2631.1 C8214.57,2647.65 8158.63,2675.79 8143.41,2675.79 M8189.09,2603.63 C8156.98,2603.63 8118.58,2630.44 8118.58,2661.22 C8118.58,2675.46 8128.84,2691.34 8155.65,2691.34 C8190.08,2691.34 8226.16,2663.21 8226.16,2634.08 C8226.16,2614.55 8209.61,2603.63 8189.09,2603.63"/>
<path class="Note" d="M6084.29,2785.24 C6084.29,2799.47 6094.55,2815.36 6121.36,2815.36 C6155.78,2815.36 6191.86,2787.23 6191.86,2758.1 C6191.86,2738.57 6175.31,2727.65 6154.79,2727.65 C6122.68,2727.65 6084.29,2754.79 6084.29,2785.24"/>
<path class="Note" d="M1605.28,1214.37 C1605.28,1228.61 1615.54,1244.49 1642.35,1244.49 C1676.77,1244.49 1712.85,1216.36 1712.85,1187.23 C1712.85,1167.7 1696.3,1156.78 1675.78,1156.78 C1643.67,1156.78 1605.28,1183.92 1605.28,1214.37"/>
<path class="Note" d="M5787.31,1090.36 C5787.31,1104.59 5797.57,1120.48 5824.38,1120.48 C5858.8,1120.48 5894.88,1092.34 5894.88,1063.22 C5894.88,1043.69 5878.33,1032.76 5857.81,1032.76 C5825.7,1032.76 5787.31,1059.91 5787.31,1090.36"/>
<path class="Note" d="M6818.53,1187.6 C6807.6,1187.6 6805.29,1178.66 6805.29,1175.68 C6805.29,1159.46 6860.89,1131 6876.45,1131 C6884.39,1131 6889.69,1135.63 6889.69,1142.91 C6889.69,1159.46 6833.75,1187.6 6818.53,1187.6 M6864.2,1115.44 C6832.1,1115.44 6793.7,1142.25 6793.7,1173.03 C6793.7,1187.27 6803.96,1203.16 6830.77,1203.16 C6865.2,1203.16 6901.28,1175.02 6901.28,1145.89 C6901.28,1126.36 6884.73,1115.44 6864.2,1115.44"/>
<path class="Note" d="M6479.1,2785.24 C6479.1,2799.47 6489.37,2815.36 6516.18,2815.36 C6550.6,2815.36 6586.68,2787.23 6586.68,2758.1 C6586.68,2738.57 6570.13,2727.65 6549.61,2727.65 C6517.5,2727.65 6479.1,2754.79 6479.1,2785.24"/>
<path class="Note" d="M8446.34,939.567 C8435.42,939.567 8433.1,930.63 8433.1,927.651 C8433.1,911.432 8488.71,882.966 8504.27,882.966 C8512.21,882.966 8517.51,887.6 8517.51,894.882 C8517.51,911.432 8461.57,939.567 8446.34,939.567 M8492.02,867.409 C8459.92,867.409 8421.52,894.22 8421.52,925.003 C8421.52,939.236 8431.78,955.124 8458.59,955.124 C8493.02,955.124 8529.09,926.989 8529.09,897.861 C8529.09,878.332 8512.54,867.409 8492.02,867.409"/>
<path class="Note" d="M6755.7,2826.58 C6755.7,2840.81 6765.96,2856.7 6792.77,2856.7 C6827.19,2856.7 6863.27,2828.56 6863.27,2799.44 C6863.27,2779.91 6846.72,2768.98 6826.2,2768.98 C6794.09,2768.98 6755.7,2796.13 6755.7,2826.58"/>
<path class="Note" d="M8086.05,925.003 C8086.05,939.236 8096.32,955.124 8123.13,955.124 C8157.55,955.124 8193.63,926.989 8193.63,897.861 C8193.63,878.332 8177.08,867.409 8156.56,867.409 C8124.45,867.409 8086.05,894.551 8086.05,925.003"/>
<path class="Note" d="M7032.29,2867.92 C7032.29,2882.15 7042.55,2898.04 7069.36,2898.04 C7103.78,2898.04 7139.86,2869.9 7139.86,2840.77 C7139.86,2821.25 7123.31,2810.32 7102.79,2810.32 C7070.68,2810.32 7032.29,2837.46 7032.29,2867.92"/>
<path class="Note" d="M7750.59,1214.37 C7750.59,1228.61 7760.85,1244.49 7787.66,1244.49 C7822.09,1244.49 7858.17,1216.36 7858.17,1187.23 C7858.17,1167.7 7841.62,1156.78 7821.09,1156.78 C7788.99,1156.78 7750.59,1183.92 7750.59,1214.37"/>
<path class="Note" d="M7333.7,2923.82 C7322.78,2923.82 7320.46,2914.88 7320.46,2911.9 C7320.46,2895.68 7376.07,2867.22 7391.63,2867.22 C7399.57,2867.22 7404.87,2871.85 7404.87,2879.13 C7404.87,2895.68 7348.93,2923.82 7333.7,2923.82 M7379.38,2851.66 C7347.27,2851.66 7308.88,2878.47 7308.88,2909.25 C7308.88,2923.49 7319.14,2939.38 7345.95,2939.38 C7380.37,2939.38 7416.45,2911.24 7416.45,2882.11 C7416.45,2862.58 7399.9,2851.66 7379.38,2851.66"/>
<path class="Note" d="M6122.77,1049.02 C6122.77,1063.25 6133.03,1079.14 6159.84,1079.14 C6194.27,1079.14 6230.35,1051 6230.35,1021.88 C6230.35,1002.35 6213.8,991.425 6193.27,991.425 C6161.17,991.425 6122.77,1018.57 6122.77,1049.02"/>
<path class="Note" d="M7723.76,2950.59 C7723.76,2964.83 7734.02,2980.71 7760.84,2980.71 C7795.26,2980.71 7831.34,2952.58 7831.34,2923.45 C7831.34,2903.92 7814.79,2893 7794.27,2893 C7762.16,2893 7723.76,2920.14 7723.76,2950.59"/>
<path class="Note" d="M3059.69,1022.24 C3048.77,1022.24 3046.45,1013.31 3046.45,1010.33 C3046.45,994.109 3102.06,965.643 3117.62,965.643 C3125.56,965.643 3130.86,970.277 3130.86,977.559 C3130.86,994.109 3074.92,1022.24 3059.69,1022.24 M3105.37,950.086 C3073.26,950.086 3034.87,976.897 3034.87,1007.68 C3034.87,1021.91 3045.13,1037.8 3071.94,1037.8 C3106.36,1037.8 3142.44,1009.67 3142.44,980.538 C3142.44,961.009 3125.89,950.086 3105.37,950.086"/>
<path class="Clef" d="M909.689,2012.75 C903.069,2014.08 896.78,2014.74 890.491,2014.74 C843.158,2014.74 802.776,1981.64 802.776,1931.66 C802.776,1891.27 831.242,1855.2 860.37,1830.04 C865.997,1825.07 871.293,1820.44 876.258,1815.48 C879.237,1833.35 881.554,1848.91 883.871,1862.48 C853.75,1871.41 833.228,1903.19 833.228,1934.3 C833.228,1957.47 851.433,1989.25 877.913,1989.25 C880.561,1989.25 883.54,1987.93 883.54,1984.95 C883.54,1981.97 880.23,1980.31 876.258,1977.67 C863.349,1969.72 856.067,1961.12 856.067,1944.9 C856.067,1924.71 870.962,1908.49 890.491,1903.85 L909.689,2012.75 M880.561,1672.48 C883.54,1659.24 898.766,1624.49 915.978,1624.49 C920.943,1624.49 928.887,1640.71 928.887,1663.55 C928.887,1697.97 903.4,1723.79 880.561,1746.3 C878.575,1733.06 876.92,1720.15 876.92,1706.25 C876.92,1694 877.913,1682.74 880.561,1672.48 M956.691,1951.52 C956.691,1975.02 947.092,1999.18 923.591,2008.78 C916.64,1969.06 907.703,1916.43 905.386,1901.87 C935.176,1901.87 956.691,1922.06 956.691,1951.52 M811.051,2114.37 C811.051,2136.21 827.932,2165.01 872.617,2165.01 C888.174,2165.01 901.745,2161.04 913.661,2153.76 C931.535,2141.18 936.169,2119.33 936.169,2098.48 C936.169,2085.57 934.183,2070.68 930.873,2051.81 C929.88,2045.19 927.894,2035.26 925.908,2022.35 C958.346,2011.76 982.509,1978 982.509,1943.9 C982.509,1893.92 947.092,1860.16 898.766,1860.16 C895.456,1840.3 892.146,1820.77 889.167,1802.24 C924.253,1765.49 948.416,1724.12 948.416,1671.49 C948.416,1641.37 939.148,1616.88 933.852,1604.96 C925.908,1588.08 916.309,1576.49 910.351,1576.49 C908.034,1576.49 897.773,1580.47 886.85,1593.37 C865.666,1618.53 859.708,1660.9 859.708,1688.7 C859.708,1706.58 861.363,1722.8 866.99,1759.87 C866.659,1760.2 849.447,1777.74 842.496,1783.37 C812.375,1811.5 770.669,1851.55 770.669,1917.75 C770.669,1979.65 824.622,2028.31 886.188,2028.31 C895.787,2028.31 904.724,2027.32 912.337,2025.99 C918.626,2057.77 922.267,2080.94 922.267,2098.48 C922.267,2132.9 904.724,2151.11 871.293,2151.11 C863.349,2151.11 856.398,2149.45 855.736,2149.45 C855.405,2149.12 854.743,2148.79 854.743,2148.46 C854.743,2147.8 855.405,2147.47 856.398,2147.14 C871.955,2144.82 887.512,2131.58 887.512,2110.4 C887.512,2092.52 873.941,2073.66 849.116,2073.66 C825.946,2073.66 811.051,2092.52 811.051,2114.37"/>
<path class="Clef" d="M909.689,1144.64 C903.069,1145.97 896.78,1146.63 890.491,1146.63 C843.158,1146.63 802.776,1113.53 802.776,1063.55 C802.776,1023.16 831.242,987.085 860.37,961.929 C865.997,956.964 871.293,952.33 876.258,947.365 C879.237,965.239 881.554,980.796 883.871,994.367 C853.75,1003.3 833.228,1035.08 833.228,1066.19 C833.228,1089.36 851.433,1121.14 877.913,1121.14 C880.561,1121.14 883.54,1119.82 883.54,1116.84 C883.54,1113.86 880.23,1112.2 876.258,1109.56 C863.349,1101.61 856.067,1093.01 856.067,1076.79 C856.067,1056.6 870.962,1040.38 890.491,1035.74 L909.689,1144.64 M880.561,804.373 C883.54,791.133 898.766,756.378 915.978,756.378 C920.943,756.378 928.887,772.597 928.887,795.436 C928.887,829.86 903.4,855.678 880.561,878.186 C878.575,864.946 876.92,852.037 876.92,838.135 C876.92,825.888 877.913,814.634 880.561,804.373 M956.691,1083.41 C956.691,1106.91 947.092,1131.07 923.591,1140.67 C916.64,1100.95 907.703,1048.32 905.386,1033.76 C935.176,1033.76 956.691,1053.95 956.691,1083.41 M811.051,1246.26 C811.051,1268.1 827.932,1296.9 872.617,1296.9 C888.174,1296.9 901.745,1292.93 913.661,1285.65 C931.535,1273.07 936.169,1251.22 936.169,1230.37 C936.169,1217.46 934.183,1202.57 930.873,1183.7 C929.88,1177.08 927.894,1167.15 925.908,1154.24 C958.346,1143.65 982.509,1109.89 982.509,1075.79 C982.509,1025.81 947.092,992.05 898.766,992.05 C895.456,972.19 892.146,952.661 889.167,934.125 C924.253,897.384 948.416,856.009 948.416,803.38 C948.416,773.259 939.148,748.765 933.852,736.849 C925.908,719.968 916.309,708.383 910.351,708.383 C908.034,708.383 897.773,712.355 886.85,725.264 C865.666,750.42 859.708,792.788 859.708,820.592 C859.708,838.466 861.363,854.685 866.99,891.757 C866.659,892.088 849.447,909.631 842.496,915.258 C812.375,943.393 770.669,983.444 770.669,1049.64 C770.669,1111.54 824.622,1160.2 886.188,1160.2 C895.787,1160.2 904.724,1159.21 912.337,1157.88 C918.626,1189.66 922.267,1212.83 922.267,1230.37 C922.267,1264.79 904.724,1283 871.293,1283 C863.349,1283 856.398,1281.34 855.736,1281.34 C855.405,1281.01 854.743,1280.68 854.743,1280.35 C854.743,1279.69 855.405,1279.36 856.398,1279.03 C871.955,1276.71 887.512,1263.47 887.512,1242.29 C887.512,1224.41 873.941,1205.55 849.116,1205.55 C825.946,1205.55 811.051,1224.41 811.051,1246.26"/>
<path class="Clef" d="M909.689,2880.86 C903.069,2882.19 896.78,2882.85 890.491,2882.85 C843.158,2882.85 802.776,2849.75 802.776,2799.77 C802.776,2759.38 831.242,2723.31 860.37,2698.15 C865.997,2693.18 871.293,2688.55 876.258,2683.59 C879.237,2701.46 881.554,2717.02 883.871,2730.59 C853.75,2739.52 833.228,2771.3 833.228,2802.41 C833.228,2825.58 851.433,2857.36 877.913,2857.36 C880.561,2857.36 883.54,2856.04 883.54,2853.06 C883.54,2850.08 880.23,2848.42 876.258,2845.78 C863.349,2837.83 856.067,2829.23 856.067,2813.01 C856.067,2792.82 870.962,2776.6 890.491,2771.96 L909.689,2880.86 M880.561,2540.59 C883.54,2527.35 898.766,2492.6 915.978,2492.6 C920.943,2492.6 928.887,2508.82 928.887,2531.66 C928.887,2566.08 903.4,2591.9 880.561,2614.41 C878.575,2601.17 876.92,2588.26 876.92,2574.36 C876.92,2562.11 877.913,2550.85 880.561,2540.59 M956.691,2819.63 C956.691,2843.13 947.092,2867.29 923.591,2876.89 C916.64,2837.17 907.703,2784.54 905.386,2769.98 C935.176,2769.98 956.691,2790.17 956.691,2819.63 M811.051,2982.48 C811.051,3004.32 827.932,3033.12 872.617,3033.12 C888.174,3033.12 901.745,3029.15 913.661,3021.87 C931.535,3009.29 936.169,2987.44 936.169,2966.59 C936.169,2953.68 934.183,2938.79 930.873,2919.92 C929.88,2913.3 927.894,2903.37 925.908,2890.46 C958.346,2879.87 982.509,2846.11 982.509,2812.01 C982.509,2762.03 947.092,2728.27 898.766,2728.27 C895.456,2708.41 892.146,2688.88 889.167,2670.35 C924.253,2633.6 948.416,2592.23 948.416,2539.6 C948.416,2509.48 939.148,2484.99 933.852,2473.07 C925.908,2456.19 916.309,2444.6 910.351,2444.6 C908.034,2444.6 897.773,2448.58 886.85,2461.48 C865.666,2486.64 859.708,2529.01 859.708,2556.81 C859.708,2574.69 861.363,2590.91 866.99,2627.98 C866.659,2628.31 849.447,2645.85 842.496,2651.48 C812.375,2679.61 770.669,2719.66 770.669,2785.86 C770.669,2847.76 824.622,2896.42 886.188,2896.42 C895.787,2896.42 904.724,2895.43 912.337,2894.1 C918.626,2925.88 922.267,2949.05 922.267,2966.59 C922.267,3001.01 904.724,3019.22 871.293,3019.22 C863.349,3019.22 856.398,3017.56 855.736,3017.56 C855.405,3017.23 854.743,3016.9 854.743,3016.57 C854.743,3015.91 855.405,3015.58 856.398,3015.25 C871.955,3012.93 887.512,2999.69 887.512,2978.51 C887.512,2960.63 873.941,2941.77 849.116,2941.77 C825.946,2941.77 811.051,2960.63 811.051,2982.48"/>
<path class="KeySig" d="M1070.17,1672.04 L1099.63,1666.08 L1099.63,1720.7 L1070.17,1726.99 L1070.17,1672.04 M1121.48,1661.78 C1123.47,1661.45 1125.12,1659.13 1125.12,1657.14 L1125.12,1637.62 C1125.12,1634.97 1123.13,1632.98 1120.49,1632.98 L1119.82,1632.98 L1108.9,1635.3 L1108.9,1585.98 L1099.63,1585.98 L1099.63,1637.28 L1070.17,1643.24 L1070.17,1596.57 L1060.91,1596.57 L1060.91,1645.23 L1048,1647.88 C1046.01,1648.21 1044.36,1650.52 1044.36,1652.51 L1044.36,1671.71 C1044.36,1674.36 1046.34,1676.34 1048.99,1676.34 L1049.98,1676.34 L1060.91,1674.03 L1060.91,1728.64 L1048,1731.29 C1046.01,1731.62 1044.36,1733.94 1044.36,1735.92 L1044.36,1755.12 C1044.36,1757.77 1046.34,1759.75 1048.99,1759.75 L1049.98,1759.75 L1060.91,1757.44 L1060.91,1806.76 L1070.17,1806.76 L1070.17,1755.45 L1099.63,1749.49 L1099.63,1796.16 L1108.9,1796.16 L1108.9,1747.51 L1121.48,1745.19 C1123.47,1744.86 1125.12,1742.54 1125.12,1740.56 L1125.12,1721.03 C1125.12,1718.38 1123.13,1716.39 1120.49,1716.39 L1119.82,1716.39 L1108.9,1718.71 L1108.9,1664.1 L1121.48,1661.78 "/>
<path class="KeySig" d="M1160.78,1796.06 L1190.24,1790.1 L1190.24,1844.71 L1160.78,1851 L1160.78,1796.06 M1212.09,1785.79 C1214.08,1785.46 1215.73,1783.15 1215.73,1781.16 L1215.73,1761.63 C1215.73,1758.98 1213.74,1757 1211.1,1757 L1210.43,1757 L1199.51,1759.31 L1199.51,1710 L1190.24,1710 L1190.24,1761.3 L1160.78,1767.26 L1160.78,1720.59 L1151.52,1720.59 L1151.52,1769.24 L1138.61,1771.89 C1136.62,1772.22 1134.97,1774.54 1134.97,1776.53 L1134.97,1795.72 C1134.97,1798.37 1136.95,1800.36 1139.6,1800.36 L1140.59,1800.36 L1151.52,1798.04 L1151.52,1852.66 L1138.61,1855.3 C1136.62,1855.64 1134.97,1857.95 1134.97,1859.94 L1134.97,1879.14 C1134.97,1881.78 1136.95,1883.77 1139.6,1883.77 L1140.59,1883.77 L1151.52,1881.45 L1151.52,1930.77 L1160.78,1930.77 L1160.78,1879.47 L1190.24,1873.51 L1190.24,1920.18 L1199.51,1920.18 L1199.51,1871.52 L1212.09,1869.21 C1214.08,1868.88 1215.73,1866.56 1215.73,1864.57 L1215.73,1845.04 C1215.73,1842.4 1213.74,1840.41 1211.1,1840.41 L1210.43,1840.41 L1199.51,1842.73 L1199.51,1788.11 L1212.09,1785.79 "/>
<path class="KeySig" d="M1070.17,2540.15 L1099.63,2534.19 L1099.63,2588.81 L1070.17,2595.1 L1070.17,2540.15 M1121.48,2529.89 C1123.47,2529.56 1125.12,2527.24 1125.12,2525.26 L1125.12,2505.73 C1125.12,2503.08 1123.13,2501.09 1120.49,2501.09 L1119.82,2501.09 L1108.9,2503.41 L1108.9,2454.09 L1099.63,2454.09 L1099.63,2505.4 L1070.17,2511.35 L1070.17,2464.68 L1060.91,2464.68 L1060.91,2513.34 L1048,2515.99 C1046.01,2516.32 1044.36,2518.64 1044.36,2520.62 L1044.36,2539.82 C1044.36,2542.47 1046.34,2544.45 1048.99,2544.45 L1049.98,2544.45 L1060.91,2542.14 L1060.91,2596.75 L1048,2599.4 C1046.01,2599.73 1044.36,2602.05 1044.36,2604.03 L1044.36,2623.23 C1044.36,2625.88 1046.34,2627.87 1048.99,2627.87 L1049.98,2627.87 L1060.91,2625.55 L1060.91,2674.87 L1070.17,2674.87 L1070.17,2623.56 L1099.63,2617.6 L1099.63,2664.28 L1108.9,2664.28 L1108.9,2615.62 L1121.48,2613.3 C1123.47,2612.97 1125.12,2610.65 1125.12,2608.67 L1125.12,2589.14 C1125.12,2586.49 1123.13,2584.5 1120.49,2584.5 L1119.82,2584.5 L1108.9,2586.82 L1108.9,2532.21 L1121.48,2529.89 "/>
<path class="KeySig" d="M1160.78,2664.17 L1190.24,2658.21 L1190.24,2712.82 L1160.78,2719.11 L1160.78,2664.17 M1212.09,2653.9 C1214.08,2653.57 1215.73,2651.26 1215.73,2649.27 L1215.73,2629.74 C1215.73,2627.09 1213.74,2625.11 1211.1,2625.11 L1210.43,2625.11 L1199.51,2627.42 L1199.51,2578.11 L1190.24,2578.11 L1190.24,2629.41 L1160.78,2635.37 L1160.78,2588.7 L1151.52,2588.7 L1151.52,2637.35 L1138.61,2640 C1136.62,2640.33 1134.97,2642.65 1134.97,2644.64 L1134.97,2663.83 C1134.97,2666.48 1136.95,2668.47 1139.6,2668.47 L1140.59,2668.47 L1151.52,2666.15 L1151.52,2720.77 L1138.61,2723.41 C1136.62,2723.75 1134.97,2726.06 1134.97,2728.05 L1134.97,2747.25 C1134.97,2749.89 1136.95,2751.88 1139.6,2751.88 L1140.59,2751.88 L1151.52,2749.56 L1151.52,2798.88 L1160.78,2798.88 L1160.78,2747.58 L1190.24,2741.62 L1190.24,2788.29 L1199.51,2788.29 L1199.51,2739.63 L1212.09,2737.32 C1214.08,2736.99 1215.73,2734.67 1215.73,2732.68 L1215.73,2713.15 C1215.73,2710.51 1213.74,2708.52 1211.1,2708.52 L1210.43,2708.52 L1199.51,2710.84 L1199.51,2656.22 L1212.09,2653.9 "/>
<path class="KeySig" d="M1070.17,803.93 L1099.63,797.972 L1099.63,852.587 L1070.17,858.876 L1070.17,803.93 M1121.48,793.669 C1123.47,793.338 1125.12,791.021 1125.12,789.035 L1125.12,769.506 C1125.12,766.858 1123.13,764.872 1120.49,764.872 L1119.82,764.872 L1108.9,767.189 L1108.9,717.87 L1099.63,717.87 L1099.63,769.175 L1070.17,775.133 L1070.17,728.462 L1060.91,728.462 L1060.91,777.119 L1048,779.767 C1046.01,780.098 1044.36,782.415 1044.36,784.401 L1044.36,803.599 C1044.36,806.247 1046.34,808.233 1048.99,808.233 L1049.98,808.233 L1060.91,805.916 L1060.91,860.531 L1048,863.179 C1046.01,863.51 1044.36,865.827 1044.36,867.813 L1044.36,887.011 C1044.36,889.659 1046.34,891.645 1048.99,891.645 L1049.98,891.645 L1060.91,889.328 L1060.91,938.647 L1070.17,938.647 L1070.17,887.342 L1099.63,881.384 L1099.63,928.055 L1108.9,928.055 L1108.9,879.398 L1121.48,877.081 C1123.47,876.75 1125.12,874.433 1125.12,872.447 L1125.12,852.918 C1125.12,850.27 1123.13,848.284 1120.49,848.284 L1119.82,848.284 L1108.9,850.601 L1108.9,795.986 L1121.48,793.669 "/>
<path class="KeySig" d="M1160.78,927.945 L1190.24,921.987 L1190.24,976.602 L1160.78,982.891 L1160.78,927.945 M1212.09,917.684 C1214.08,917.353 1215.73,915.036 1215.73,913.05 L1215.73,893.521 C1215.73,890.873 1213.74,888.887 1211.1,888.887 L1210.43,888.887 L1199.51,891.204 L1199.51,841.885 L1190.24,841.885 L1190.24,893.19 L1160.78,899.148 L1160.78,852.477 L1151.52,852.477 L1151.52,901.134 L1138.61,903.782 C1136.62,904.113 1134.97,906.43 1134.97,908.416 L1134.97,927.614 C1134.97,930.262 1136.95,932.248 1139.6,932.248 L1140.59,932.248 L1151.52,929.931 L1151.52,984.546 L1138.61,987.194 C1136.62,987.525 1134.97,989.842 1134.97,991.828 L1134.97,1011.03 C1134.97,1013.67 1136.95,1015.66 1139.6,1015.66 L1140.59,1015.66 L1151.52,1013.34 L1151.52,1062.66 L1160.78,1062.66 L1160.78,1011.36 L1190.24,1005.4 L1190.24,1052.07 L1199.51,1052.07 L1199.51,1003.41 L1212.09,1001.1 C1214.08,1000.77 1215.73,998.448 1215.73,996.462 L1215.73,976.933 C1215.73,974.285 1213.74,972.299 1211.1,972.299 L1210.43,972.299 L1199.51,974.616 L1199.51,920.001 L1212.09,917.684 "/>
<path class="TimeSig" d="M1372.49,979.772 C1361.57,979.772 1352.63,964.877 1352.63,946.341 C1352.63,927.805 1361.57,912.579 1372.49,912.579 C1383.41,912.579 1392.68,927.805 1392.68,946.341 C1392.68,964.877 1383.41,979.772 1372.49,979.772 M1384.74,897.022 C1364.55,897.022 1357.26,902.98 1352.63,907.945 C1351.64,900.994 1350.98,895.698 1350.98,890.402 C1350.98,871.535 1357.6,847.041 1380.77,847.041 C1389.04,847.041 1394.01,849.689 1397.32,853.33 C1390.36,856.309 1384.74,865.246 1384.74,872.859 C1384.74,884.775 1394.01,894.043 1405.92,894.043 C1417.84,894.043 1427.44,884.775 1427.44,872.859 L1427.44,871.866 C1427.44,868.887 1426.77,863.922 1425.45,861.274 C1421.15,849.358 1407.25,831.815 1374.15,831.815 C1344.36,831.815 1322.84,860.281 1316.22,875.507 C1312.91,883.451 1307.95,899.67 1307.95,918.206 C1307.95,938.397 1313.57,961.236 1333.1,978.448 C1352.3,993.012 1364.55,993.674 1376.13,993.674 C1387.72,993.674 1431.08,980.103 1431.08,941.707 C1431.08,909.269 1405.59,897.022 1384.74,897.022"/>
<path class="TimeSig" d="M1362.58,1118.01 L1362.58,1142.5 L1335.11,1142.5 C1332.79,1142.5 1330.47,1144.49 1330.47,1147.13 L1330.47,1153.42 C1330.47,1156.07 1332.79,1158.06 1335.11,1158.06 L1435.4,1158.06 C1438.05,1158.06 1440.03,1156.07 1440.03,1153.42 L1440.03,1147.13 C1440.03,1144.49 1438.05,1142.5 1435.4,1142.5 L1405.61,1142.5 L1405.61,1118.01 L1435.4,1118.01 C1438.05,1118.01 1440.03,1115.69 1440.03,1113.04 L1440.03,1106.75 C1440.03,1104.44 1438.05,1102.12 1435.4,1102.12 L1405.61,1102.12 L1405.61,1049.49 C1405.61,1047.5 1404.62,1045.85 1403.29,1045.19 L1399.32,1043.2 C1398.66,1042.87 1398.33,1042.87 1397.66,1042.87 C1396.34,1042.87 1395.02,1042.87 1394.02,1043.86 L1363.9,1071.34 C1362.91,1072.33 1362.58,1073.65 1362.58,1074.98 L1362.58,1102.12 L1324.18,1102.12 C1324.18,1102.12 1361.25,1062.4 1400.31,1010.1 C1401.64,1008.45 1401.97,1006.79 1401.97,1005.47 C1401.97,1003.81 1401.31,1002.49 1400.97,1002.16 L1393.69,994.874 C1392.7,994.212 1391.71,993.55 1390.38,993.55 C1388.4,993.55 1343.71,993.55 1341.06,993.55 C1338.75,993.55 1337.09,995.536 1336.76,997.522 C1336.76,997.522 1335.11,1022.02 1326.5,1048.83 C1317.89,1075.64 1307.96,1092.19 1299.36,1104.44 C1299.36,1104.44 1298.36,1106.09 1298.36,1108.08 C1298.36,1108.74 1298.36,1109.4 1298.7,1110.06 C1299.69,1112.38 1302.01,1116.02 1302.01,1116.02 C1302.01,1116.02 1302.67,1118.01 1305.65,1118.01 L1362.58,1118.01 "/>
<path class="NoteDot" d="M8570.35,869.762 C8570.35,879.03 8577.63,886.312 8586.9,886.312 C8596.17,886.312 8603.45,879.03 8603.45,869.762 C8603.45,860.494 8596.17,853.212 8586.9,853.212 C8577.63,853.212 8570.35,860.494 8570.35,869.762"/>
<path class="NoteDot" d="M8682.3,2605.98 C8682.3,2615.25 8689.58,2622.53 8698.85,2622.53 C8708.12,2622.53 8715.4,2615.25 8715.4,2605.98 C8715.4,2596.71 8708.12,2589.43 8698.85,2589.43 C8689.58,2589.43 8682.3,2596.71 8682.3,2605.98"/>
</svg>
