<?xml version="1.0" encoding="UTF-8" standalone="no"?>
<svg width="210.058mm" height="296.926mm" viewBox="0 0 9924 14028"
 xmlns="http://www.w3.org/2000/svg" xmlns:xlink="http://www.w3.org/1999/xlink" version="1.2" baseProfile="full">
<title>air_LXVII</title>
<desc>Generated by MuseScore Studio 4.7.3</desc>
<polyline class="StaffLines" fill="none" stroke="#000000" stroke-width="9.09" stroke-linejoin="bevel" points="708.661,831.934 9215.34,831.934" />
<polyline class="StaffLines" fill="none" stroke="#000000" stroke-width="9.09" stroke-linejoin="bevel" points="708.661,914.611 9215.34,914.611" />
<polyline class="StaffLines" fill="none" stroke="#000000" stroke-width="9.09" stroke-linejoin="bevel" points="708.661,997.288 9215.34,997.288" />
<polyline class="StaffLines" fill="none" stroke="#000000" stroke-width="9.09" stroke-linejoin="bevel" points="708.661,1079.97 9215.34,1079.97" />
<polyline class="StaffLines" fill="none" stroke="#000000" stroke-width="9.09" stroke-linejoin="bevel" points="708.661,1162.64 9215.34,1162.64" />
<polyline class="StaffLines" fill="none" stroke="#000000" stroke-width="9.09" stroke-linejoin="bevel" points="708.661,1700.04 9215.34,1700.04" />
<polyline class="StaffLines" fill="none" stroke="#000000" stroke-width="9.09" stroke-linejoin="bevel" points="708.661,1782.72 9215.34,1782.72" />
<polyline class="StaffLines" fill="none" stroke="#000000" stroke-width="9.09" stroke-linejoin="bevel" points="708.661,1865.4 9215.34,1865.4" />
<polyline class="StaffLines" fill="none" stroke="#000000" stroke-width="9.09" stroke-linejoin="bevel" points="708.661,1948.08 9215.34,1948.08" />
<polyline class="StaffLines" fill="none" stroke="#000000" stroke-width="9.09" stroke-linejoin="bevel" points="708.661,2030.75 9215.34,2030.75" />
<polyline class="StaffLines" fill="none" stroke="#000000" stroke-width="9.09" stroke-linejoin="bevel" points="708.661,2568.15 9215.34,2568.15" />
<polyline class="StaffLines" fill="none" stroke="#000000" stroke-width="9.09" stroke-linejoin="bevel" points="708.661,2650.83 9215.34,2650.83" />
<polyline class="StaffLines" fill="none" stroke="#000000" stroke-width="9.09" stroke-linejoin="bevel" points="708.661,2733.51 9215.34,2733.51" />
<polyline class="StaffLines" fill="none" stroke="#000000" stroke-width="9.09" stroke-linejoin="bevel" points="708.661,2816.19 9215.34,2816.19" />
<polyline class="StaffLines" fill="none" stroke="#000000" stroke-width="9.09" stroke-linejoin="bevel" points="708.661,2898.86 9215.34,2898.86" />
<polyline class="StaffLines" fill="none" stroke="#000000" stroke-width="9.09" stroke-linejoin="bevel" points="708.661,3436.26 9215.34,3436.26" />
<polyline class="StaffLines" fill="none" stroke="#000000" stroke-width="9.09" stroke-linejoin="bevel" points="708.661,3518.94 9215.34,3518.94" />
<polyline class="StaffLines" fill="none" stroke="#000000" stroke-width="9.09" stroke-linejoin="bevel" points="708.661,3601.62 9215.34,3601.62" />
<polyline class="StaffLines" fill="none" stroke="#000000" stroke-width="9.09" stroke-linejoin="bevel" points="708.661,3684.3 9215.34,3684.3" />
<polyline class="StaffLines" fill="none" stroke="#000000" stroke-width="9.09" stroke-linejoin="bevel" points="708.661,3766.97 9215.34,3766.97" />
<polyline class="BarLine" fill="none" stroke="#000000" stroke-width="14.88" stroke-linejoin="bevel" points="8394.21,827.387 8394.21,1167.19" />
<polyline class="BarLine" fill="none" stroke="#000000" stroke-width="14.88" stroke-linejoin="bevel" points="9131.84,3431.72 9131.84,3771.52" />
<polyline class="BarLine" fill="none" stroke="#000000" stroke-width="45.47" stroke-linejoin="bevel" points="9192.6,3431.72 9192.6,3771.52" />
<polyline class="BarLine" fill="none" stroke="#000000" stroke-width="14.88" stroke-linejoin="bevel" points="9207.9,827.387 9207.9,1167.19" />
<polyline class="BarLine" fill="none" stroke="#000000" stroke-width="14.88" stroke-linejoin="bevel" points="2204.14,1695.5 2204.14,2035.3" />
<polyline class="BarLine" fill="none" stroke="#000000" stroke-width="14.88" stroke-linejoin="bevel" points="8560.83,3431.72 8560.83,3771.52" />
<polyline class="BarLine" fill="none" stroke="#000000" stroke-width="14.88" stroke-linejoin="bevel" points="7469.01,827.387 7469.01,1167.19" />
<polyline class="BarLine" fill="none" stroke="#000000" stroke-width="14.88" stroke-linejoin="bevel" points="1761.71,827.387 1761.71,1167.19" />
<polyline class="BarLine" fill="none" stroke="#000000" stroke-width="14.88" stroke-linejoin="bevel" points="3078.77,1695.5 3078.77,2035.3" />
<polyline class="BarLine" fill="none" stroke="#000000" stroke-width="14.88" stroke-linejoin="bevel" points="7572.39,3431.72 7572.39,3771.52" />
<polyline class="BarLine" fill="none" stroke="#000000" stroke-width="14.88" stroke-linejoin="bevel" points="4075.51,1695.5 4075.51,2035.3" />
<polyline class="BarLine" fill="none" stroke="#000000" stroke-width="14.88" stroke-linejoin="bevel" points="6332.98,3431.72 6332.98,3771.52" />
<polyline class="BarLine" fill="none" stroke="#000000" stroke-width="14.88" stroke-linejoin="bevel" points="5072.24,1695.5 5072.24,2035.3" />
<polyline class="BarLine" fill="none" stroke="#000000" stroke-width="14.88" stroke-linejoin="bevel" points="5325.07,3431.72 5325.07,3771.52" />
<polyline class="BarLine" fill="none" stroke="#000000" stroke-width="14.88" stroke-linejoin="bevel" points="6088.63,1695.5 6088.63,2035.3" />
<polyline class="BarLine" fill="none" stroke="#000000" stroke-width="14.88" stroke-linejoin="bevel" points="4457.5,3431.72 4457.5,3771.52" />
<polyline class="BarLine" fill="none" stroke="#000000" stroke-width="14.88" stroke-linejoin="bevel" points="2686.91,827.387 2686.91,1167.19" />
<polyline class="BarLine" fill="none" stroke="#000000" stroke-width="14.88" stroke-linejoin="bevel" points="7336.53,1695.5 7336.53,2035.3" />
<polyline class="BarLine" fill="none" stroke="#000000" stroke-width="14.88" stroke-linejoin="bevel" points="6294.25,827.387 6294.25,1167.19" />
<polyline class="BarLine" fill="none" stroke="#000000" stroke-width="14.88" stroke-linejoin="bevel" points="3449.59,3431.72 3449.59,3771.52" />
<polyline class="BarLine" fill="none" stroke="#000000" stroke-width="14.88" stroke-linejoin="bevel" points="8333.26,1695.5 8333.26,2035.3" />
<polyline class="BarLine" fill="none" stroke="#000000" stroke-width="14.88" stroke-linejoin="bevel" points="3500.6,827.387 3500.6,1167.19" />
<polyline class="BarLine" fill="none" stroke="#000000" stroke-width="14.88" stroke-linejoin="bevel" points="9207.9,1695.5 9207.9,2035.3" />
<polyline class="BarLine" fill="none" stroke="#000000" stroke-width="14.88" stroke-linejoin="bevel" points="2328.5,3431.72 2328.5,3771.52" />
<polyline class="BarLine" fill="none" stroke="#000000" stroke-width="14.88" stroke-linejoin="bevel" points="2236.93,2563.61 2236.93,2903.41" />
<polyline class="BarLine" fill="none" stroke="#000000" stroke-width="14.88" stroke-linejoin="bevel" points="9207.9,2563.61 9207.9,2903.41" />
<polyline class="BarLine" fill="none" stroke="#000000" stroke-width="14.88" stroke-linejoin="bevel" points="5350.99,827.387 5350.99,1167.19" />
<polyline class="BarLine" fill="none" stroke="#000000" stroke-width="14.88" stroke-linejoin="bevel" points="8321.74,2563.61 8321.74,2903.41" />
<polyline class="BarLine" fill="none" stroke="#000000" stroke-width="14.88" stroke-linejoin="bevel" points="3123.09,2563.61 3123.09,2903.41" />
<polyline class="BarLine" fill="none" stroke="#000000" stroke-width="14.88" stroke-linejoin="bevel" points="7311.47,2563.61 7311.47,2903.41" />
<polyline class="BarLine" fill="none" stroke="#000000" stroke-width="14.88" stroke-linejoin="bevel" points="4425.8,827.387 4425.8,1167.19" />
<polyline class="BarLine" fill="none" stroke="#000000" stroke-width="14.88" stroke-linejoin="bevel" points="4133.35,2563.61 4133.35,2903.41" />
<polyline class="BarLine" fill="none" stroke="#000000" stroke-width="14.88" stroke-linejoin="bevel" points="5019.52,2563.61 5019.52,2903.41" />
<polyline class="BarLine" fill="none" stroke="#000000" stroke-width="14.88" stroke-linejoin="bevel" points="6049.74,2563.61 6049.74,2903.41" />
<path class="SlurSegment" stroke="#000000" stroke-width="4.13" stroke-linecap="round" stroke-linejoin="round" fill-rule="evenodd" d="M6951.74,2049.77 C6997.86,2106.84 7097.66,2113.87 7151.33,2063.82 C7096.17,2135.05 6996.37,2128.02 6951.74,2049.77"/>
<path class="SlurSegment" stroke="#000000" stroke-width="4.13" stroke-linecap="round" stroke-linejoin="round" fill-rule="evenodd" d="M7189.48,3785.99 C7235.12,3842.8 7333.98,3849.82 7387.19,3800.04 C7332.47,3870.93 7233.62,3863.9 7189.48,3785.99"/>
<path class="SlurSegment" stroke="#000000" stroke-width="4.13" stroke-linecap="round" stroke-linejoin="round" fill-rule="evenodd" d="M1945.59,3717.37 C1973.54,3789.38 2072.4,3830.72 2143.29,3800.04 C2063.98,3850.83 1965.13,3809.49 1945.59,3717.37"/>
<path class="SlurSegment" stroke="#000000" stroke-width="4.13" stroke-linecap="round" stroke-linejoin="round" fill-rule="evenodd" d="M6552.55,1763.71 C6620.17,1701.94 6719.97,1725.91 6752.14,1811.66 C6714.96,1746.76 6615.16,1722.78 6552.55,1763.71"/>
<path class="SlurSegment" stroke="#000000" stroke-width="4.13" stroke-linecap="round" stroke-linejoin="round" fill-rule="evenodd" d="M5515.53,757.524 C5597.36,680.844 5734.86,701.513 5790.54,798.863 C5731.24,725.595 5593.74,704.926 5515.53,757.524"/>
<path class="SlurSegment" stroke="#000000" stroke-width="4.13" stroke-linecap="round" stroke-linejoin="round" fill-rule="evenodd" d="M6733.79,895.595 C6798.1,836.969 6889.77,860.945 6917.13,943.548 C6884.5,881.077 6792.83,857.1 6733.79,895.595"/>
<path class="SlurSegment" stroke="#000000" stroke-width="4.13" stroke-linecap="round" stroke-linejoin="round" fill-rule="evenodd" d="M7100.47,1181.66 C7142.38,1236.38 7234.05,1243.41 7283.81,1195.71 C7232.48,1263.93 7140.81,1256.9 7100.47,1181.66"/>
<path class="SlurSegment" stroke="#000000" stroke-width="4.13" stroke-linecap="round" stroke-linejoin="round" fill-rule="evenodd" d="M5489.6,3361.86 C5576.34,3281.79 5724.62,3302.46 5786.16,3403.19 C5721.14,3327.42 5572.86,3306.76 5489.6,3361.86"/>
<path class="SlurSegment" stroke="#000000" stroke-width="4.13" stroke-linecap="round" stroke-linejoin="round" fill-rule="evenodd" d="M6794.07,3499.93 C6861.3,3438.51 6960.15,3462.49 6991.78,3547.88 C6955.12,3483.25 6856.26,3459.28 6794.07,3499.93"/>
<path class="SlurSegment" stroke="#000000" stroke-width="4.13" stroke-linecap="round" stroke-linejoin="round" fill-rule="evenodd" d="M5236.77,1625.63 C5324.16,1545.14 5473.86,1565.8 5536.16,1666.97 C5470.39,1590.88 5320.7,1570.21 5236.77,1625.63"/>
<path class="SlurSegment" stroke="#000000" stroke-width="4.13" stroke-linecap="round" stroke-linejoin="round" fill-rule="evenodd" d="M5184.05,2617.76 C5264.3,2529.36 5416.3,2536.39 5488.05,2631.82 C5415.13,2561.76 5263.13,2554.74 5184.05,2617.76"/>
<path class="SlurSegment" stroke="#000000" stroke-width="4.13" stroke-linecap="round" stroke-linejoin="round" fill-rule="evenodd" d="M6214.28,2917.88 C6331.22,3020.61 6584.56,3048.31 6720.94,2973.27 C6581.68,3074.61 6328.35,3046.91 6214.28,2917.88"/>
<path class="SlurSegment" stroke="#000000" stroke-width="4.13" stroke-linecap="round" stroke-linejoin="round" fill-rule="evenodd" d="M6923.61,3014.61 C6963.35,3078.48 7064.69,3099.15 7126.27,3055.95 C7060.39,3120.21 6959.06,3099.55 6923.61,3014.61"/>
<path class="Accidental" d="M4631.85,2765.62 L4631.85,2711.33 L4670.25,2700.41 L4670.25,2755.02 L4631.85,2765.62 M4677.53,2672.94 C4676.87,2672.27 4675.87,2671.94 4674.88,2671.94 C4674.55,2671.94 4673.89,2672.27 4673.56,2672.27 L4631.85,2683.86 L4631.85,2625.93 L4622.58,2625.93 L4622.58,2789.78 C4622.58,2792.43 4624.57,2794.08 4627.22,2794.08 L4628.54,2794.08 L4670.25,2782.5 L4670.25,2840.42 L4679.18,2840.42 L4679.18,2676.58 C4679.18,2675.25 4678.52,2673.6 4677.53,2672.94"/>
<path class="Accidental" d="M5358.08,2765.62 L5358.08,2711.33 L5396.47,2700.41 L5396.47,2755.02 L5358.08,2765.62 M5403.75,2672.94 C5403.09,2672.27 5402.1,2671.94 5401.11,2671.94 C5400.77,2671.94 5400.11,2672.27 5399.78,2672.27 L5358.08,2683.86 L5358.08,2625.93 L5348.81,2625.93 L5348.81,2789.78 C5348.81,2792.43 5350.79,2794.08 5353.44,2794.08 L5354.77,2794.08 L5396.47,2782.5 L5396.47,2840.42 L5405.41,2840.42 L5405.41,2676.58 C5405.41,2675.25 5404.75,2673.6 5403.75,2672.94"/>
<path class="Accidental" d="M1849.26,2765.62 L1849.26,2711.33 L1887.66,2700.41 L1887.66,2755.02 L1849.26,2765.62 M1894.94,2672.94 C1894.28,2672.27 1893.28,2671.94 1892.29,2671.94 C1891.96,2671.94 1891.3,2672.27 1890.97,2672.27 L1849.26,2683.86 L1849.26,2625.93 L1839.99,2625.93 L1839.99,2789.78 C1839.99,2792.43 1841.98,2794.08 1844.63,2794.08 L1845.95,2794.08 L1887.66,2782.5 L1887.66,2840.42 L1896.59,2840.42 L1896.59,2676.58 C1896.59,2675.25 1895.93,2673.6 1894.94,2672.94"/>
<polyline class="LedgerLine" fill="none" stroke="#000000" stroke-width="13.23" stroke-linejoin="bevel" points="4159.01,2113.43 4321.07,2113.43" />
<polyline class="LedgerLine" fill="none" stroke="#000000" stroke-width="13.23" stroke-linejoin="bevel" points="3591.97,2485.48 3754.03,2485.48" />
<polyline class="LedgerLine" fill="none" stroke="#000000" stroke-width="13.23" stroke-linejoin="bevel" points="4509.3,1245.32 4671.36,1245.32" />
<polyline class="LedgerLine" fill="none" stroke="#000000" stroke-width="13.23" stroke-linejoin="bevel" points="8229.55,3849.65 8391.61,3849.65" />
<polyline class="LedgerLine" fill="none" stroke="#000000" stroke-width="13.23" stroke-linejoin="bevel" points="7045.24,2981.54 7207.3,2981.54" />
<polyline class="LedgerLine" fill="none" stroke="#000000" stroke-width="13.23" stroke-linejoin="bevel" points="7655.9,3849.65 7817.96,3849.65" />
<polyline class="LedgerLine" fill="none" stroke="#000000" stroke-width="13.23" stroke-linejoin="bevel" points="7780.35,2981.54 7942.41,2981.54" />
<polyline class="Stem" fill="none" stroke="#000000" stroke-width="8.27" stroke-linejoin="bevel" points="4712.21,2747.4 4712.21,2981.54" />
<polyline class="Stem" fill="none" stroke="#000000" stroke-width="8.27" stroke-linejoin="bevel" points="4889.34,845.824 4889.34,1121.3" />
<polyline class="Stem" fill="none" stroke="#000000" stroke-width="8.27" stroke-linejoin="bevel" points="7041.38,3629.73 7041.38,3374.26" />
<polyline class="Stem" fill="none" stroke="#000000" stroke-width="8.27" stroke-linejoin="bevel" points="6744.46,3615.51 6744.46,3849.65" />
<polyline class="Stem" fill="none" stroke="#000000" stroke-width="8.27" stroke-linejoin="bevel" points="7333.41,1108.08 7333.41,831.934" />
<polyline class="Stem" fill="none" stroke="#000000" stroke-width="8.27" stroke-linejoin="bevel" points="3193.69,1837.95 3193.69,2092.76" />
<polyline class="Stem" fill="none" stroke="#000000" stroke-width="8.27" stroke-linejoin="bevel" points="6447.9,3574.17 6447.9,3828.98" />
<polyline class="Stem" fill="none" stroke="#000000" stroke-width="8.27" stroke-linejoin="bevel" points="6033.11,3532.83 6033.11,3808.31" />
<polyline class="Stem" fill="none" stroke="#000000" stroke-width="8.27" stroke-linejoin="bevel" points="3573.22,1796.61 3573.22,2072.09" />
<polyline class="Stem" fill="none" stroke="#000000" stroke-width="8.27" stroke-linejoin="bevel" points="5736.55,3491.49 5736.55,3766.97" />
<polyline class="Stem" fill="none" stroke="#000000" stroke-width="8.27" stroke-linejoin="bevel" points="3772.81,1837.95 3772.81,2092.76" />
<polyline class="Stem" fill="none" stroke="#000000" stroke-width="8.27" stroke-linejoin="bevel" points="5439.99,3450.15 5439.99,3725.63" />
<polyline class="Stem" fill="none" stroke="#000000" stroke-width="8.27" stroke-linejoin="bevel" points="2324.47,1066.74 2324.47,790.595" />
<polyline class="Stem" fill="none" stroke="#000000" stroke-width="8.27" stroke-linejoin="bevel" points="7150.07,1066.74 7150.07,790.595" />
<polyline class="Stem" fill="none" stroke="#000000" stroke-width="8.27" stroke-linejoin="bevel" points="4289.64,2100.2 4289.64,1824.06" />
<polyline class="Stem" fill="none" stroke="#000000" stroke-width="8.27" stroke-linejoin="bevel" points="7239.08,3671.07 7239.08,3394.93" />
<polyline class="Stem" fill="none" stroke="#000000" stroke-width="8.27" stroke-linejoin="bevel" points="5025.2,3491.49 5025.2,3766.97" />
<polyline class="Stem" fill="none" stroke="#000000" stroke-width="8.27" stroke-linejoin="bevel" points="2507.81,1149.41 2507.81,873.272" />
<polyline class="Stem" fill="none" stroke="#000000" stroke-width="8.27" stroke-linejoin="bevel" points="4569.95,1713.93 4569.95,1989.41" />
<polyline class="Stem" fill="none" stroke="#000000" stroke-width="8.27" stroke-linejoin="bevel" points="4157.63,3615.51 4157.63,3849.65" />
<polyline class="Stem" fill="none" stroke="#000000" stroke-width="8.27" stroke-linejoin="bevel" points="4769.54,1755.27 4769.54,2030.75" />
<polyline class="Stem" fill="none" stroke="#000000" stroke-width="8.27" stroke-linejoin="bevel" points="3960.28,3629.73 3960.28,3374.26" />
<polyline class="Stem" fill="none" stroke="#000000" stroke-width="8.27" stroke-linejoin="bevel" points="3663.72,3671.07 3663.72,3394.93" />
<polyline class="Stem" fill="none" stroke="#000000" stroke-width="8.27" stroke-linejoin="bevel" points="6966.73,1025.4 6966.73,769.926" />
<polyline class="Stem" fill="none" stroke="#000000" stroke-width="8.27" stroke-linejoin="bevel" points="5187.16,1713.93 5187.16,1989.41" />
<polyline class="Stem" fill="none" stroke="#000000" stroke-width="8.27" stroke-linejoin="bevel" points="3321.5,1108.08 3321.5,831.934" />
<polyline class="Stem" fill="none" stroke="#000000" stroke-width="8.27" stroke-linejoin="bevel" points="5486.55,1755.27 5486.55,2030.75" />
<polyline class="Stem" fill="none" stroke="#000000" stroke-width="8.27" stroke-linejoin="bevel" points="3313.99,3629.73 3313.99,3374.26" />
<polyline class="Stem" fill="none" stroke="#000000" stroke-width="8.27" stroke-linejoin="bevel" points="5785.94,1796.61 5785.94,2072.09" />
<polyline class="Stem" fill="none" stroke="#000000" stroke-width="8.27" stroke-linejoin="bevel" points="3017.07,3615.51 3017.07,3849.65" />
<polyline class="Stem" fill="none" stroke="#000000" stroke-width="8.27" stroke-linejoin="bevel" points="2819.36,3574.17 2819.36,3828.98" />
<polyline class="Stem" fill="none" stroke="#000000" stroke-width="8.27" stroke-linejoin="bevel" points="6684.18,1011.18 6684.18,1245.32" />
<polyline class="Stem" fill="none" stroke="#000000" stroke-width="8.27" stroke-linejoin="bevel" points="6203.55,1837.95 6203.55,2092.76" />
<polyline class="Stem" fill="none" stroke="#000000" stroke-width="8.27" stroke-linejoin="bevel" points="2443.42,3615.51 2443.42,3849.65" />
<polyline class="Stem" fill="none" stroke="#000000" stroke-width="8.27" stroke-linejoin="bevel" points="6502.94,1879.29 6502.94,2113.43" />
<polyline class="Stem" fill="none" stroke="#000000" stroke-width="8.27" stroke-linejoin="bevel" points="3615.52,969.839 3615.52,1224.65" />
<polyline class="Stem" fill="none" stroke="#000000" stroke-width="8.27" stroke-linejoin="bevel" points="6801.74,1893.51 6801.74,1638.04" />
<polyline class="Stem" fill="none" stroke="#000000" stroke-width="8.27" stroke-linejoin="bevel" points="2192.89,3712.41 2192.89,3436.26" />
<polyline class="Stem" fill="none" stroke="#000000" stroke-width="8.27" stroke-linejoin="bevel" points="7001.34,1934.85 7001.34,1658.71" />
<polyline class="Stem" fill="none" stroke="#000000" stroke-width="8.27" stroke-linejoin="bevel" points="1995.19,3629.73 1995.19,3374.26" />
<polyline class="Stem" fill="none" stroke="#000000" stroke-width="8.27" stroke-linejoin="bevel" points="7200.93,1976.19 7200.93,1700.04" />
<polyline class="Stem" fill="none" stroke="#000000" stroke-width="8.27" stroke-linejoin="bevel" points="1797.48,3671.07 1797.48,3394.93" />
<polyline class="Stem" fill="none" stroke="#000000" stroke-width="8.27" stroke-linejoin="bevel" points="1421.54,3712.41 1421.54,3436.26" />
<polyline class="Stem" fill="none" stroke="#000000" stroke-width="8.27" stroke-linejoin="bevel" points="6409.17,969.839 6409.17,1224.65" />
<polyline class="Stem" fill="none" stroke="#000000" stroke-width="8.27" stroke-linejoin="bevel" points="7550.67,1934.85 7550.67,1658.71" />
<polyline class="Stem" fill="none" stroke="#000000" stroke-width="8.27" stroke-linejoin="bevel" points="7683.15,1066.74 7683.15,790.595" />
<polyline class="Stem" fill="none" stroke="#000000" stroke-width="8.27" stroke-linejoin="bevel" points="7436.79,3712.41 7436.79,3436.26" />
<polyline class="Stem" fill="none" stroke="#000000" stroke-width="8.27" stroke-linejoin="bevel" points="7930.19,1976.19 7930.19,1700.04" />
<polyline class="Stem" fill="none" stroke="#000000" stroke-width="8.27" stroke-linejoin="bevel" points="1975.85,1108.08 1975.85,831.934" />
<polyline class="Stem" fill="none" stroke="#000000" stroke-width="8.27" stroke-linejoin="bevel" points="8129.78,1934.85 8129.78,1658.71" />
<polyline class="Stem" fill="none" stroke="#000000" stroke-width="8.27" stroke-linejoin="bevel" points="8999.81,2844.3 8999.81,2568.15" />
<polyline class="Stem" fill="none" stroke="#000000" stroke-width="8.27" stroke-linejoin="bevel" points="3964.14,928.501 3964.14,1203.98" />
<polyline class="Stem" fill="none" stroke="#000000" stroke-width="8.27" stroke-linejoin="bevel" points="6015.93,928.501 6015.93,1203.98" />
<polyline class="Stem" fill="none" stroke="#000000" stroke-width="8.27" stroke-linejoin="bevel" points="8113.64,2926.97 8113.64,2650.83" />
<polyline class="Stem" fill="none" stroke="#000000" stroke-width="8.27" stroke-linejoin="bevel" points="8905.21,1837.95 8905.21,2092.76" />
<polyline class="Stem" fill="none" stroke="#000000" stroke-width="8.27" stroke-linejoin="bevel" points="2000.66,2017.52 2000.66,1741.38" />
<polyline class="Stem" fill="none" stroke="#000000" stroke-width="8.27" stroke-linejoin="bevel" points="7910.98,2968.31 7910.98,2692.17" />
<polyline class="Stem" fill="none" stroke="#000000" stroke-width="8.27" stroke-linejoin="bevel" points="7786.53,3836.42 7786.53,3560.28" />
<polyline class="Stem" fill="none" stroke="#000000" stroke-width="8.27" stroke-linejoin="bevel" points="1801.06,1934.85 1801.06,1658.71" />
<polyline class="Stem" fill="none" stroke="#000000" stroke-width="8.27" stroke-linejoin="bevel" points="5740.92,887.162 5740.92,1162.64" />
<polyline class="Stem" fill="none" stroke="#000000" stroke-width="8.27" stroke-linejoin="bevel" points="8162.47,3795.08 8162.47,3518.94" />
<polyline class="Stem" fill="none" stroke="#000000" stroke-width="8.27" stroke-linejoin="bevel" points="7525.61,2926.97 7525.61,2650.83" />
<polyline class="Stem" fill="none" stroke="#000000" stroke-width="8.27" stroke-linejoin="bevel" points="4147.48,969.839 4147.48,1224.65" />
<polyline class="Stem" fill="none" stroke="#000000" stroke-width="8.27" stroke-linejoin="bevel" points="1322.33,2706.06 1322.33,2960.87" />
<polyline class="Stem" fill="none" stroke="#000000" stroke-width="8.27" stroke-linejoin="bevel" points="1421.54,1976.19 1421.54,1700.04" />
<polyline class="Stem" fill="none" stroke="#000000" stroke-width="8.27" stroke-linejoin="bevel" points="7175.87,2968.31 7175.87,2692.17" />
<polyline class="Stem" fill="none" stroke="#000000" stroke-width="8.27" stroke-linejoin="bevel" points="1707.7,2664.72 1707.7,2940.2" />
<polyline class="Stem" fill="none" stroke="#000000" stroke-width="8.27" stroke-linejoin="bevel" points="6973.2,2926.97 6973.2,2650.83" />
<polyline class="Stem" fill="none" stroke="#000000" stroke-width="8.27" stroke-linejoin="bevel" points="1929.62,2747.4 1929.62,2981.54" />
<polyline class="Stem" fill="none" stroke="#000000" stroke-width="8.27" stroke-linejoin="bevel" points="6770.54,2885.63 6770.54,2609.49" />
<polyline class="Stem" fill="none" stroke="#000000" stroke-width="8.27" stroke-linejoin="bevel" points="8360.18,3836.42 8360.18,3560.28" />
<polyline class="Stem" fill="none" stroke="#000000" stroke-width="8.27" stroke-linejoin="bevel" points="6567.87,2844.3 6567.87,2568.15" />
<polyline class="Stem" fill="none" stroke="#000000" stroke-width="8.27" stroke-linejoin="bevel" points="5465.92,845.824 5465.92,1121.3" />
<polyline class="Stem" fill="none" stroke="#000000" stroke-width="8.27" stroke-linejoin="bevel" points="6263.87,2802.96 6263.87,2526.82" />
<polyline class="Stem" fill="none" stroke="#000000" stroke-width="8.27" stroke-linejoin="bevel" points="2815.79,2706.06 2815.79,2960.87" />
<polyline class="Stem" fill="none" stroke="#000000" stroke-width="8.27" stroke-linejoin="bevel" points="4639.93,1232.09 4639.93,955.95" />
<polyline class="Stem" fill="none" stroke="#000000" stroke-width="8.27" stroke-linejoin="bevel" points="1582.61,1108.08 1582.61,831.934" />
<polyline class="Stem" fill="none" stroke="#000000" stroke-width="8.27" stroke-linejoin="bevel" points="5072.68,887.162 5072.68,1162.64" />
<polyline class="Stem" fill="none" stroke="#000000" stroke-width="8.27" stroke-linejoin="bevel" points="3238.01,2540.71 3238.01,2816.19" />
<polyline class="Stem" fill="none" stroke="#000000" stroke-width="8.27" stroke-linejoin="bevel" points="5841.65,2761.62 5841.65,2506.15" />
<polyline class="Stem" fill="none" stroke="#000000" stroke-width="8.27" stroke-linejoin="bevel" points="8031.77,1108.08 8031.77,831.934" />
<polyline class="Stem" fill="none" stroke="#000000" stroke-width="8.27" stroke-linejoin="bevel" points="3623.38,2499.37 3623.38,2774.85" />
<polyline class="Stem" fill="none" stroke="#000000" stroke-width="8.27" stroke-linejoin="bevel" points="9028.8,1108.08 9028.8,831.934" />
<polyline class="Stem" fill="none" stroke="#000000" stroke-width="8.27" stroke-linejoin="bevel" points="5438.44,2747.4 5438.44,2981.54" />
<polyline class="Stem" fill="none" stroke="#000000" stroke-width="8.27" stroke-linejoin="bevel" points="3826.05,2540.71 3826.05,2816.19" />
<polyline class="Stem" fill="none" stroke="#000000" stroke-width="8.27" stroke-linejoin="bevel" points="5134.44,2706.06 5134.44,2960.87" />
<polyline class="Stem" fill="none" stroke="#000000" stroke-width="8.27" stroke-linejoin="bevel" points="8215.11,1066.74 8215.11,790.595" />
<polyline class="Stem" fill="none" stroke="#000000" stroke-width="8.27" stroke-linejoin="bevel" points="2875.29,1976.19 2875.29,1700.04" />
<path class="Note" d="M7928.42,1135.21 C7928.42,1149.44 7938.68,1165.33 7965.49,1165.33 C7999.92,1165.33 8036,1137.19 8036,1108.06 C8036,1088.53 8019.45,1077.61 7998.93,1077.61 C7966.82,1077.61 7928.42,1104.75 7928.42,1135.21"/>
<path class="Note" d="M6938.03,3656.86 C6938.03,3671.09 6948.29,3686.98 6975.1,3686.98 C7009.53,3686.98 7045.6,3658.85 7045.6,3629.72 C7045.6,3610.19 7029.05,3599.27 7008.53,3599.27 C6976.43,3599.27 6938.03,3626.41 6938.03,3656.86"/>
<path class="Note" d="M4732.9,2761.97 C4721.98,2761.97 4719.66,2753.04 4719.66,2750.06 C4719.66,2733.84 4775.27,2705.37 4790.83,2705.37 C4798.77,2705.37 4804.07,2710.01 4804.07,2717.29 C4804.07,2733.84 4748.13,2761.97 4732.9,2761.97 M4778.58,2689.82 C4746.47,2689.82 4708.08,2716.63 4708.08,2747.41 C4708.08,2761.64 4718.34,2777.53 4745.15,2777.53 C4779.57,2777.53 4815.65,2749.4 4815.65,2720.27 C4815.65,2700.74 4799.1,2689.82 4778.58,2689.82"/>
<path class="Note" d="M4885.2,845.836 C4885.2,860.069 4895.47,875.957 4922.28,875.957 C4956.7,875.957 4992.78,847.822 4992.78,818.694 C4992.78,799.165 4976.23,788.242 4955.71,788.242 C4923.6,788.242 4885.2,815.384 4885.2,845.836"/>
<path class="Note" d="M8136.59,1108.43 C8125.66,1108.43 8123.35,1099.49 8123.35,1096.52 C8123.35,1080.3 8178.95,1051.83 8194.51,1051.83 C8202.46,1051.83 8207.75,1056.46 8207.75,1063.75 C8207.75,1080.3 8151.81,1108.43 8136.59,1108.43 M8182.26,1036.27 C8150.16,1036.27 8111.76,1063.08 8111.76,1093.87 C8111.76,1108.1 8122.02,1123.99 8148.83,1123.99 C8183.26,1123.99 8219.34,1095.85 8219.34,1066.73 C8219.34,1047.2 8202.79,1036.27 8182.26,1036.27"/>
<path class="Note" d="M3846.74,2555.28 C3835.82,2555.28 3833.5,2546.34 3833.5,2543.37 C3833.5,2527.15 3889.11,2498.68 3904.66,2498.68 C3912.61,2498.68 3917.9,2503.31 3917.9,2510.6 C3917.9,2527.15 3861.97,2555.28 3846.74,2555.28 M3892.42,2483.12 C3860.31,2483.12 3821.91,2509.93 3821.91,2540.72 C3821.91,2554.95 3832.18,2570.84 3858.99,2570.84 C3893.41,2570.84 3929.49,2542.7 3929.49,2513.58 C3929.49,2494.05 3912.94,2483.12 3892.42,2483.12"/>
<path class="Note" d="M4561.41,1273.79 C4550.49,1273.79 4548.17,1264.85 4548.17,1261.87 C4548.17,1245.65 4603.78,1217.18 4619.33,1217.18 C4627.28,1217.18 4632.57,1221.82 4632.57,1229.1 C4632.57,1245.65 4576.63,1273.79 4561.41,1273.79 M4607.09,1201.63 C4574.98,1201.63 4536.58,1228.44 4536.58,1259.22 C4536.58,1273.45 4546.84,1289.34 4573.66,1289.34 C4608.08,1289.34 4644.16,1261.21 4644.16,1232.08 C4644.16,1212.55 4627.61,1201.63 4607.09,1201.63"/>
<path class="Note" d="M5155.13,2720.64 C5144.21,2720.64 5141.89,2711.7 5141.89,2708.72 C5141.89,2692.5 5197.5,2664.03 5213.05,2664.03 C5221,2664.03 5226.29,2668.67 5226.29,2675.95 C5226.29,2692.5 5170.36,2720.64 5155.13,2720.64 M5200.81,2648.48 C5168.7,2648.48 5130.3,2675.29 5130.3,2706.07 C5130.3,2720.3 5140.57,2736.19 5167.38,2736.19 C5201.8,2736.19 5237.88,2708.06 5237.88,2678.93 C5237.88,2659.4 5221.33,2648.48 5200.81,2648.48"/>
<path class="Note" d="M3619.25,2499.38 C3619.25,2513.61 3629.51,2529.5 3656.32,2529.5 C3690.74,2529.5 3726.82,2501.37 3726.82,2472.24 C3726.82,2452.71 3710.27,2441.79 3689.75,2441.79 C3657.64,2441.79 3619.25,2468.93 3619.25,2499.38"/>
<path class="Note" d="M5459.13,2761.97 C5448.2,2761.97 5445.89,2753.04 5445.89,2750.06 C5445.89,2733.84 5501.5,2705.37 5517.05,2705.37 C5525,2705.37 5530.29,2710.01 5530.29,2717.29 C5530.29,2733.84 5474.35,2761.97 5459.13,2761.97 M5504.81,2689.82 C5472.7,2689.82 5434.3,2716.63 5434.3,2747.41 C5434.3,2761.64 5444.56,2777.53 5471.37,2777.53 C5505.8,2777.53 5541.88,2749.4 5541.88,2720.27 C5541.88,2700.74 5525.33,2689.82 5504.81,2689.82"/>
<path class="Note" d="M8569.54,1072.39 C8560.28,1072.39 8553.99,1069.74 8549.68,1061.47 C8545.38,1053.19 8539.42,1032.01 8539.09,1023.07 C8538.43,1014.13 8541.74,1008.84 8549.68,1006.19 C8553.66,1004.86 8558.95,1004.2 8563.92,1004.2 C8573.18,1004.2 8579.14,1006.19 8583.78,1015.13 C8588.41,1024.06 8594.37,1045.25 8594.37,1053.52 C8594.37,1069.74 8583.11,1072.39 8569.54,1072.39 M8566.9,993.611 C8521.22,993.611 8505,1016.78 8505,1038.3 C8505,1059.81 8521.22,1082.98 8566.9,1082.98 C8612.57,1082.98 8628.46,1059.81 8628.46,1038.3 C8628.46,1016.78 8612.57,993.611 8566.9,993.611"/>
<path class="Note" d="M3258.7,2555.28 C3247.78,2555.28 3245.46,2546.34 3245.46,2543.37 C3245.46,2527.15 3301.07,2498.68 3316.63,2498.68 C3324.57,2498.68 3329.87,2503.31 3329.87,2510.6 C3329.87,2527.15 3273.93,2555.28 3258.7,2555.28 M3304.38,2483.12 C3272.27,2483.12 3233.88,2509.93 3233.88,2540.72 C3233.88,2554.95 3244.14,2570.84 3270.95,2570.84 C3305.37,2570.84 3341.45,2542.7 3341.45,2513.58 C3341.45,2494.05 3324.9,2483.12 3304.38,2483.12"/>
<path class="Note" d="M5763.13,2803.31 C5752.2,2803.31 5749.89,2794.38 5749.89,2791.4 C5749.89,2775.18 5805.49,2746.71 5821.05,2746.71 C5829,2746.71 5834.29,2751.35 5834.29,2758.63 C5834.29,2775.18 5778.35,2803.31 5763.13,2803.31 M5808.8,2731.16 C5776.7,2731.16 5738.3,2757.97 5738.3,2788.75 C5738.3,2802.98 5748.56,2818.87 5775.37,2818.87 C5809.8,2818.87 5845.88,2790.74 5845.88,2761.61 C5845.88,2742.08 5829.33,2731.16 5808.8,2731.16"/>
<path class="Note" d="M5093.37,901.738 C5082.45,901.738 5080.13,892.801 5080.13,889.822 C5080.13,873.603 5135.74,845.137 5151.29,845.137 C5159.24,845.137 5164.53,849.771 5164.53,857.053 C5164.53,873.603 5108.59,901.738 5093.37,901.738 M5139.05,829.58 C5106.94,829.58 5068.54,856.391 5068.54,887.174 C5068.54,901.407 5078.8,917.295 5105.62,917.295 C5140.04,917.295 5176.12,889.16 5176.12,860.032 C5176.12,840.503 5159.57,829.58 5139.05,829.58"/>
<path class="Note" d="M2836.48,2720.64 C2825.55,2720.64 2823.24,2711.7 2823.24,2708.72 C2823.24,2692.5 2878.84,2664.03 2894.4,2664.03 C2902.35,2664.03 2907.64,2668.67 2907.64,2675.95 C2907.64,2692.5 2851.7,2720.64 2836.48,2720.64 M2882.15,2648.48 C2850.05,2648.48 2811.65,2675.29 2811.65,2706.07 C2811.65,2720.3 2821.91,2736.19 2848.72,2736.19 C2883.15,2736.19 2919.23,2708.06 2919.23,2678.93 C2919.23,2659.4 2902.68,2648.48 2882.15,2648.48"/>
<path class="Note" d="M2412.26,2725.93 C2402.99,2725.93 2396.7,2723.28 2392.4,2715.01 C2388.1,2706.73 2382.14,2685.55 2381.81,2676.61 C2381.15,2667.68 2384.46,2662.38 2392.4,2659.73 C2396.37,2658.41 2401.67,2657.75 2406.63,2657.75 C2415.9,2657.75 2421.86,2659.73 2426.49,2668.67 C2431.13,2677.61 2437.09,2698.79 2437.09,2707.06 C2437.09,2723.28 2425.83,2725.93 2412.26,2725.93 M2409.61,2647.15 C2363.93,2647.15 2347.72,2670.32 2347.72,2691.84 C2347.72,2713.35 2363.93,2736.52 2409.61,2736.52 C2455.29,2736.52 2471.18,2713.35 2471.18,2691.84 C2471.18,2670.32 2455.29,2647.15 2409.61,2647.15"/>
<path class="Note" d="M6185.35,2844.65 C6174.43,2844.65 6172.11,2835.71 6172.11,2832.74 C6172.11,2816.52 6227.72,2788.05 6243.28,2788.05 C6251.22,2788.05 6256.52,2792.68 6256.52,2799.97 C6256.52,2816.52 6200.58,2844.65 6185.35,2844.65 M6231.03,2772.49 C6198.92,2772.49 6160.53,2799.3 6160.53,2830.09 C6160.53,2844.32 6170.79,2860.21 6197.6,2860.21 C6232.02,2860.21 6268.1,2832.07 6268.1,2802.95 C6268.1,2783.42 6251.55,2772.49 6231.03,2772.49"/>
<path class="Note" d="M5486.61,860.4 C5475.68,860.4 5473.37,851.463 5473.37,848.484 C5473.37,832.265 5528.97,803.799 5544.53,803.799 C5552.48,803.799 5557.77,808.433 5557.77,815.715 C5557.77,832.265 5501.83,860.4 5486.61,860.4 M5532.28,788.242 C5500.18,788.242 5461.78,815.053 5461.78,845.836 C5461.78,860.069 5472.04,875.957 5498.85,875.957 C5533.28,875.957 5569.36,847.822 5569.36,818.694 C5569.36,799.165 5552.81,788.242 5532.28,788.242"/>
<path class="Note" d="M6464.53,2871.43 C6464.53,2885.66 6474.79,2901.55 6501.6,2901.55 C6536.02,2901.55 6572.1,2873.41 6572.1,2844.28 C6572.1,2824.76 6555.55,2813.83 6535.03,2813.83 C6502.92,2813.83 6464.53,2840.97 6464.53,2871.43"/>
<path class="Note" d="M1950.31,2761.97 C1939.39,2761.97 1937.07,2753.04 1937.07,2750.06 C1937.07,2733.84 1992.68,2705.37 2008.24,2705.37 C2016.18,2705.37 2021.48,2710.01 2021.48,2717.29 C2021.48,2733.84 1965.54,2761.97 1950.31,2761.97 M1995.99,2689.82 C1963.88,2689.82 1925.49,2716.63 1925.49,2747.41 C1925.49,2761.64 1935.75,2777.53 1962.56,2777.53 C1996.98,2777.53 2033.06,2749.4 2033.06,2720.27 C2033.06,2700.74 2016.51,2689.82 1995.99,2689.82"/>
<path class="Note" d="M6667.19,2912.76 C6667.19,2927 6677.45,2942.89 6704.26,2942.89 C6738.69,2942.89 6774.77,2914.75 6774.77,2885.62 C6774.77,2866.09 6758.22,2855.17 6737.7,2855.17 C6705.59,2855.17 6667.19,2882.31 6667.19,2912.76"/>
<path class="Note" d="M1703.56,2664.73 C1703.56,2678.97 1713.82,2694.85 1740.63,2694.85 C1775.06,2694.85 1811.14,2666.72 1811.14,2637.59 C1811.14,2618.06 1794.59,2607.14 1774.07,2607.14 C1741.96,2607.14 1703.56,2634.28 1703.56,2664.73"/>
<path class="Note" d="M6869.86,2954.1 C6869.86,2968.34 6880.12,2984.22 6906.93,2984.22 C6941.35,2984.22 6977.43,2956.09 6977.43,2926.96 C6977.43,2907.43 6960.88,2896.51 6940.36,2896.51 C6908.25,2896.51 6869.86,2923.65 6869.86,2954.1"/>
<path class="Note" d="M8950.28,1149.77 C8939.35,1149.77 8937.04,1140.83 8937.04,1137.85 C8937.04,1121.63 8992.64,1093.17 9008.2,1093.17 C9016.14,1093.17 9021.44,1097.8 9021.44,1105.08 C9021.44,1121.63 8965.5,1149.77 8950.28,1149.77 M8995.95,1077.61 C8963.85,1077.61 8925.45,1104.42 8925.45,1135.21 C8925.45,1149.44 8935.71,1165.33 8962.52,1165.33 C8996.95,1165.33 9033.03,1137.19 9033.03,1108.06 C9033.03,1088.53 9016.48,1077.61 8995.95,1077.61"/>
<path class="Note" d="M1343.02,2720.64 C1332.09,2720.64 1329.78,2711.7 1329.78,2708.72 C1329.78,2692.5 1385.39,2664.03 1400.94,2664.03 C1408.89,2664.03 1414.18,2668.67 1414.18,2675.95 C1414.18,2692.5 1358.24,2720.64 1343.02,2720.64 M1388.7,2648.48 C1356.59,2648.48 1318.19,2675.29 1318.19,2706.07 C1318.19,2720.3 1328.45,2736.19 1355.26,2736.19 C1389.69,2736.19 1425.77,2708.06 1425.77,2678.93 C1425.77,2659.4 1409.22,2648.48 1388.7,2648.48"/>
<path class="Note" d="M7072.52,2995.44 C7072.52,3009.68 7082.78,3025.56 7109.6,3025.56 C7144.02,3025.56 7180.1,2997.43 7180.1,2968.3 C7180.1,2948.77 7163.55,2937.85 7143.03,2937.85 C7110.92,2937.85 7072.52,2964.99 7072.52,2995.44"/>
<path class="Note" d="M4168.17,984.416 C4157.25,984.416 4154.93,975.479 4154.93,972.5 C4154.93,956.281 4210.54,927.815 4226.1,927.815 C4234.04,927.815 4239.34,932.449 4239.34,939.731 C4239.34,956.281 4183.4,984.416 4168.17,984.416 M4213.85,912.258 C4181.74,912.258 4143.35,939.069 4143.35,969.852 C4143.35,984.085 4153.61,999.973 4180.42,999.973 C4214.84,999.973 4250.92,971.838 4250.92,942.71 C4250.92,923.181 4234.37,912.258 4213.85,912.258"/>
<path class="Note" d="M8736.16,3759.4 C8726.89,3759.4 8720.61,3756.75 8716.3,3748.47 C8712,3740.2 8706.04,3719.01 8705.71,3710.08 C8705.05,3701.14 8708.36,3695.84 8716.3,3693.2 C8720.27,3691.87 8725.57,3691.21 8730.54,3691.21 C8739.8,3691.21 8745.76,3693.2 8750.4,3702.13 C8755.03,3711.07 8760.99,3732.25 8760.99,3740.53 C8760.99,3756.75 8749.73,3759.4 8736.16,3759.4 M8733.51,3680.62 C8687.84,3680.62 8671.62,3703.79 8671.62,3725.3 C8671.62,3746.82 8687.84,3769.99 8733.51,3769.99 C8779.19,3769.99 8795.08,3746.82 8795.08,3725.3 C8795.08,3703.79 8779.19,3680.62 8733.51,3680.62"/>
<path class="Note" d="M8281.65,3878.12 C8270.73,3878.12 8268.41,3869.18 8268.41,3866.2 C8268.41,3849.98 8324.02,3821.52 8339.58,3821.52 C8347.52,3821.52 8352.82,3826.15 8352.82,3833.43 C8352.82,3849.98 8296.88,3878.12 8281.65,3878.12 M8327.33,3805.96 C8295.23,3805.96 8256.83,3832.77 8256.83,3863.55 C8256.83,3877.79 8267.09,3893.67 8293.9,3893.67 C8328.33,3893.67 8364.4,3865.54 8364.4,3836.41 C8364.4,3816.88 8347.85,3805.96 8327.33,3805.96"/>
<path class="Note" d="M7447.09,2968.67 C7436.16,2968.67 7433.85,2959.73 7433.85,2956.75 C7433.85,2940.53 7489.45,2912.07 7505.01,2912.07 C7512.96,2912.07 7518.25,2916.7 7518.25,2923.98 C7518.25,2940.53 7462.31,2968.67 7447.09,2968.67 M7492.76,2896.51 C7460.66,2896.51 7422.26,2923.32 7422.26,2954.1 C7422.26,2968.34 7432.52,2984.22 7459.33,2984.22 C7493.76,2984.22 7529.84,2956.09 7529.84,2926.96 C7529.84,2907.43 7513.29,2896.51 7492.76,2896.51"/>
<path class="Note" d="M8059.12,3822.21 C8059.12,3836.45 8069.38,3852.33 8096.19,3852.33 C8130.62,3852.33 8166.7,3824.2 8166.7,3795.07 C8166.7,3775.54 8150.15,3764.62 8129.63,3764.62 C8097.52,3764.62 8059.12,3791.76 8059.12,3822.21"/>
<path class="Note" d="M5761.62,901.738 C5750.69,901.738 5748.38,892.801 5748.38,889.822 C5748.38,873.603 5803.98,845.137 5819.54,845.137 C5827.48,845.137 5832.78,849.771 5832.78,857.053 C5832.78,873.603 5776.84,901.738 5761.62,901.738 M5807.29,829.58 C5775.19,829.58 5736.79,856.391 5736.79,887.174 C5736.79,901.407 5747.05,917.295 5773.86,917.295 C5808.29,917.295 5844.37,889.16 5844.37,860.032 C5844.37,840.503 5827.82,829.58 5807.29,829.58"/>
<path class="Note" d="M8925.9,1852.53 C8914.97,1852.53 8912.66,1843.59 8912.66,1840.61 C8912.66,1824.39 8968.26,1795.92 8983.82,1795.92 C8991.77,1795.92 8997.06,1800.56 8997.06,1807.84 C8997.06,1824.39 8941.12,1852.53 8925.9,1852.53 M8971.57,1780.37 C8939.47,1780.37 8901.07,1807.18 8901.07,1837.96 C8901.07,1852.19 8911.33,1868.08 8938.14,1868.08 C8972.57,1868.08 9008.65,1839.95 9008.65,1810.82 C9008.65,1791.29 8992.1,1780.37 8971.57,1780.37"/>
<path class="Note" d="M7807.63,2995.44 C7807.63,3009.68 7817.89,3025.56 7844.7,3025.56 C7879.13,3025.56 7915.21,2997.43 7915.21,2968.3 C7915.21,2948.77 7898.66,2937.85 7878.14,2937.85 C7846.03,2937.85 7807.63,2964.99 7807.63,2995.44"/>
<path class="Note" d="M8508.6,1940.5 C8499.33,1940.5 8493.04,1937.85 8488.74,1929.58 C8484.43,1921.3 8478.48,1900.12 8478.15,1891.18 C8477.48,1882.24 8480.79,1876.95 8488.74,1874.3 C8492.71,1872.97 8498.01,1872.31 8502.97,1872.31 C8512.24,1872.31 8518.2,1874.3 8522.83,1883.24 C8527.46,1892.17 8533.42,1913.36 8533.42,1921.63 C8533.42,1937.85 8522.17,1940.5 8508.6,1940.5 M8505.95,1861.72 C8460.27,1861.72 8444.05,1884.89 8444.05,1906.41 C8444.05,1927.92 8460.27,1951.09 8505.95,1951.09 C8551.63,1951.09 8567.52,1927.92 8567.52,1906.41 C8567.52,1884.89 8551.63,1861.72 8505.95,1861.72"/>
<path class="Note" d="M8035.12,2968.67 C8024.2,2968.67 8021.88,2959.73 8021.88,2956.75 C8021.88,2940.53 8077.49,2912.07 8093.05,2912.07 C8100.99,2912.07 8106.29,2916.7 8106.29,2923.98 C8106.29,2940.53 8050.35,2968.67 8035.12,2968.67 M8080.8,2896.51 C8048.69,2896.51 8010.3,2923.32 8010.3,2954.1 C8010.3,2968.34 8020.56,2984.22 8047.37,2984.22 C8081.79,2984.22 8117.87,2956.09 8117.87,2926.96 C8117.87,2907.43 8101.32,2896.51 8080.8,2896.51"/>
<path class="Note" d="M3960.01,928.513 C3960.01,942.746 3970.27,958.634 3997.08,958.634 C4031.5,958.634 4067.58,930.499 4067.58,901.371 C4067.58,881.842 4051.03,870.919 4030.51,870.919 C3998.4,870.919 3960.01,898.061 3960.01,928.513"/>
<path class="Note" d="M6036.62,943.077 C6025.7,943.077 6023.38,934.14 6023.38,931.161 C6023.38,914.942 6078.99,886.476 6094.55,886.476 C6102.49,886.476 6107.79,891.11 6107.79,898.392 C6107.79,914.942 6051.85,943.077 6036.62,943.077 M6082.3,870.919 C6050.2,870.919 6011.8,897.73 6011.8,928.513 C6011.8,942.746 6022.06,958.634 6048.87,958.634 C6083.3,958.634 6119.37,930.499 6119.37,901.371 C6119.37,881.842 6102.82,870.919 6082.3,870.919"/>
<path class="Note" d="M8497.07,2932.62 C8487.8,2932.62 8481.51,2929.98 8477.21,2921.7 C8472.91,2913.43 8466.95,2892.24 8466.62,2883.31 C8465.96,2874.37 8469.27,2869.07 8477.21,2866.42 C8481.18,2865.1 8486.48,2864.44 8491.44,2864.44 C8500.71,2864.44 8506.67,2866.42 8511.3,2875.36 C8515.94,2884.3 8521.89,2905.48 8521.89,2913.76 C8521.89,2929.98 8510.64,2932.62 8497.07,2932.62 M8494.42,2853.85 C8448.74,2853.85 8432.52,2877.02 8432.52,2898.53 C8432.52,2920.05 8448.74,2943.22 8494.42,2943.22 C8540.1,2943.22 8555.99,2920.05 8555.99,2898.53 C8555.99,2877.02 8540.1,2853.85 8494.42,2853.85"/>
<path class="Note" d="M8051.26,1976.54 C8040.34,1976.54 8038.02,1967.6 8038.02,1964.63 C8038.02,1948.41 8093.63,1919.94 8109.19,1919.94 C8117.13,1919.94 8122.43,1924.57 8122.43,1931.86 C8122.43,1948.41 8066.49,1976.54 8051.26,1976.54 M8096.94,1904.38 C8064.83,1904.38 8026.44,1931.19 8026.44,1961.98 C8026.44,1976.21 8036.7,1992.1 8063.51,1992.1 C8097.93,1992.1 8134.01,1963.96 8134.01,1934.84 C8134.01,1915.31 8117.46,1904.38 8096.94,1904.38"/>
<path class="Note" d="M8921.29,2885.99 C8910.36,2885.99 8908.05,2877.05 8908.05,2874.07 C8908.05,2857.86 8963.65,2829.39 8979.21,2829.39 C8987.15,2829.39 8992.45,2834.02 8992.45,2841.31 C8992.45,2857.86 8936.51,2885.99 8921.29,2885.99 M8966.96,2813.83 C8934.86,2813.83 8896.46,2840.64 8896.46,2871.43 C8896.46,2885.66 8906.72,2901.55 8933.53,2901.55 C8967.96,2901.55 9004.04,2873.41 9004.04,2844.28 C9004.04,2824.76 8987.49,2813.83 8966.96,2813.83"/>
<path class="Note" d="M1343.02,2017.88 C1332.09,2017.88 1329.78,2008.94 1329.78,2005.96 C1329.78,1989.75 1385.39,1961.28 1400.94,1961.28 C1408.89,1961.28 1414.18,1965.91 1414.18,1973.2 C1414.18,1989.75 1358.24,2017.88 1343.02,2017.88 M1388.7,1945.72 C1356.59,1945.72 1318.19,1972.53 1318.19,2003.32 C1318.19,2017.55 1328.45,2033.44 1355.26,2033.44 C1389.69,2033.44 1425.77,2005.3 1425.77,1976.17 C1425.77,1956.65 1409.22,1945.72 1388.7,1945.72"/>
<path class="Note" d="M7826.84,2003.32 C7826.84,2017.55 7837.11,2033.44 7863.92,2033.44 C7898.34,2033.44 7934.42,2005.3 7934.42,1976.17 C7934.42,1956.65 7917.87,1945.72 7897.35,1945.72 C7865.24,1945.72 7826.84,1972.86 7826.84,2003.32"/>
<path class="Note" d="M7708.01,3878.12 C7697.08,3878.12 7694.77,3869.18 7694.77,3866.2 C7694.77,3849.98 7750.37,3821.52 7765.93,3821.52 C7773.88,3821.52 7779.17,3826.15 7779.17,3833.43 C7779.17,3849.98 7723.23,3878.12 7708.01,3878.12 M7753.68,3805.96 C7721.58,3805.96 7683.18,3832.77 7683.18,3863.55 C7683.18,3877.79 7693.44,3893.67 7720.25,3893.67 C7754.68,3893.67 7790.76,3865.54 7790.76,3836.41 C7790.76,3816.88 7774.21,3805.96 7753.68,3805.96"/>
<path class="Note" d="M7472.14,1976.54 C7461.22,1976.54 7458.9,1967.6 7458.9,1964.63 C7458.9,1948.41 7514.51,1919.94 7530.07,1919.94 C7538.01,1919.94 7543.31,1924.57 7543.31,1931.86 C7543.31,1948.41 7487.37,1976.54 7472.14,1976.54 M7517.82,1904.38 C7485.72,1904.38 7447.32,1931.19 7447.32,1961.98 C7447.32,1976.21 7457.58,1992.1 7484.39,1992.1 C7518.82,1992.1 7554.89,1963.96 7554.89,1934.84 C7554.89,1915.31 7538.34,1904.38 7517.82,1904.38"/>
<path class="Note" d="M3636.21,984.416 C3625.29,984.416 3622.97,975.479 3622.97,972.5 C3622.97,956.281 3678.58,927.815 3694.14,927.815 C3702.08,927.815 3707.38,932.449 3707.38,939.731 C3707.38,956.281 3651.44,984.416 3636.21,984.416 M3681.89,912.258 C3649.78,912.258 3611.39,939.069 3611.39,969.852 C3611.39,984.085 3621.65,999.973 3648.46,999.973 C3682.88,999.973 3718.96,971.838 3718.96,942.71 C3718.96,923.181 3702.41,912.258 3681.89,912.258"/>
<path class="Note" d="M1697.72,1961.98 C1697.72,1976.21 1707.98,1992.1 1734.79,1992.1 C1769.21,1992.1 1805.29,1963.96 1805.29,1934.84 C1805.29,1915.31 1788.74,1904.38 1768.22,1904.38 C1736.11,1904.38 1697.72,1931.53 1697.72,1961.98"/>
<path class="Note" d="M1504.09,1149.77 C1493.16,1149.77 1490.85,1140.83 1490.85,1137.85 C1490.85,1121.63 1546.46,1093.17 1562.01,1093.17 C1569.96,1093.17 1575.25,1097.8 1575.25,1105.08 C1575.25,1121.63 1519.31,1149.77 1504.09,1149.77 M1549.77,1077.61 C1517.66,1077.61 1479.26,1104.42 1479.26,1135.21 C1479.26,1149.44 1489.52,1165.33 1516.33,1165.33 C1550.76,1165.33 1586.84,1137.19 1586.84,1108.06 C1586.84,1088.53 1570.29,1077.61 1549.77,1077.61"/>
<path class="Note" d="M6429.86,984.416 C6418.94,984.416 6416.62,975.479 6416.62,972.5 C6416.62,956.281 6472.23,927.815 6487.79,927.815 C6495.73,927.815 6501.03,932.449 6501.03,939.731 C6501.03,956.281 6445.09,984.416 6429.86,984.416 M6475.54,912.258 C6443.43,912.258 6405.04,939.069 6405.04,969.852 C6405.04,984.085 6415.3,999.973 6442.11,999.973 C6476.53,999.973 6512.61,971.838 6512.61,942.71 C6512.61,923.181 6496.06,912.258 6475.54,912.258"/>
<path class="Note" d="M1343.02,3754.1 C1332.09,3754.1 1329.78,3745.16 1329.78,3742.18 C1329.78,3725.97 1385.39,3697.5 1400.94,3697.5 C1408.89,3697.5 1414.18,3702.13 1414.18,3709.42 C1414.18,3725.97 1358.24,3754.1 1343.02,3754.1 M1388.7,3681.94 C1356.59,3681.94 1318.19,3708.75 1318.19,3739.54 C1318.19,3753.77 1328.45,3769.66 1355.26,3769.66 C1389.69,3769.66 1425.77,3741.52 1425.77,3712.39 C1425.77,3692.87 1409.22,3681.94 1388.7,3681.94"/>
<path class="Note" d="M1922.13,2059.22 C1911.21,2059.22 1908.89,2050.28 1908.89,2047.3 C1908.89,2031.08 1964.5,2002.62 1980.06,2002.62 C1988,2002.62 1993.3,2007.25 1993.3,2014.53 C1993.3,2031.08 1937.36,2059.22 1922.13,2059.22 M1967.81,1987.06 C1935.71,1987.06 1897.31,2013.87 1897.31,2044.65 C1897.31,2058.89 1907.57,2074.78 1934.38,2074.78 C1968.81,2074.78 2004.88,2046.64 2004.88,2017.51 C2004.88,1997.98 1988.33,1987.06 1967.81,1987.06"/>
<path class="Note" d="M7097.58,2003.32 C7097.58,2017.55 7107.84,2033.44 7134.65,2033.44 C7169.08,2033.44 7205.16,2005.3 7205.16,1976.17 C7205.16,1956.65 7188.61,1945.72 7168.08,1945.72 C7135.98,1945.72 7097.58,1972.86 7097.58,2003.32"/>
<path class="Note" d="M1694.13,3698.2 C1694.13,3712.43 1704.39,3728.32 1731.21,3728.32 C1765.63,3728.32 1801.71,3700.18 1801.71,3671.06 C1801.71,3651.53 1785.16,3640.6 1764.64,3640.6 C1732.53,3640.6 1694.13,3667.75 1694.13,3698.2"/>
<path class="Note" d="M6897.99,1961.98 C6897.99,1976.21 6908.25,1992.1 6935.06,1992.1 C6969.49,1992.1 7005.56,1963.96 7005.56,1934.84 C7005.56,1915.31 6989.01,1904.38 6968.49,1904.38 C6936.39,1904.38 6897.99,1931.53 6897.99,1961.98"/>
<path class="Note" d="M1891.84,3656.86 C1891.84,3671.09 1902.1,3686.98 1928.91,3686.98 C1963.34,3686.98 1999.42,3658.85 1999.42,3629.72 C1999.42,3610.19 1982.87,3599.27 1962.34,3599.27 C1930.24,3599.27 1891.84,3626.41 1891.84,3656.86"/>
<path class="Note" d="M6698.4,1920.64 C6698.4,1934.87 6708.66,1950.76 6735.47,1950.76 C6769.89,1950.76 6805.97,1922.62 6805.97,1893.5 C6805.97,1873.97 6789.42,1863.04 6768.9,1863.04 C6736.79,1863.04 6698.4,1890.19 6698.4,1920.64"/>
<path class="Note" d="M2089.55,3739.54 C2089.55,3753.77 2099.81,3769.66 2126.62,3769.66 C2161.04,3769.66 2197.12,3741.52 2197.12,3712.39 C2197.12,3692.87 2180.57,3681.94 2160.05,3681.94 C2127.94,3681.94 2089.55,3709.08 2089.55,3739.54"/>
<path class="Note" d="M6498.81,1879.3 C6498.81,1893.53 6509.07,1909.42 6535.88,1909.42 C6570.3,1909.42 6606.38,1881.29 6606.38,1852.16 C6606.38,1832.63 6589.83,1821.71 6569.31,1821.71 C6537.2,1821.71 6498.81,1848.85 6498.81,1879.3"/>
<path class="Note" d="M3242.97,1149.77 C3232.05,1149.77 3229.73,1140.83 3229.73,1137.85 C3229.73,1121.63 3285.34,1093.17 3300.9,1093.17 C3308.84,1093.17 3314.14,1097.8 3314.14,1105.08 C3314.14,1121.63 3258.2,1149.77 3242.97,1149.77 M3288.65,1077.61 C3256.54,1077.61 3218.15,1104.42 3218.15,1135.21 C3218.15,1149.44 3228.41,1165.33 3255.22,1165.33 C3289.64,1165.33 3325.72,1137.19 3325.72,1108.06 C3325.72,1088.53 3309.17,1077.61 3288.65,1077.61"/>
<path class="Note" d="M6224.24,1852.53 C6213.32,1852.53 6211,1843.59 6211,1840.61 C6211,1824.39 6266.61,1795.92 6282.17,1795.92 C6290.11,1795.92 6295.41,1800.56 6295.41,1807.84 C6295.41,1824.39 6239.47,1852.53 6224.24,1852.53 M6269.92,1780.37 C6237.81,1780.37 6199.42,1807.18 6199.42,1837.96 C6199.42,1852.19 6209.68,1868.08 6236.49,1868.08 C6270.91,1868.08 6306.99,1839.95 6306.99,1810.82 C6306.99,1791.29 6290.44,1780.37 6269.92,1780.37"/>
<path class="Note" d="M2464.11,3630.08 C2453.19,3630.08 2450.87,3621.15 2450.87,3618.17 C2450.87,3601.95 2506.48,3573.48 2522.03,3573.48 C2529.98,3573.48 2535.27,3578.12 2535.27,3585.4 C2535.27,3601.95 2479.34,3630.08 2464.11,3630.08 M2509.79,3557.93 C2477.68,3557.93 2439.28,3584.74 2439.28,3615.52 C2439.28,3629.75 2449.55,3645.64 2476.36,3645.64 C2510.78,3645.64 2546.86,3617.51 2546.86,3588.38 C2546.86,3568.85 2530.31,3557.93 2509.79,3557.93"/>
<path class="Note" d="M7333.44,3739.54 C7333.44,3753.77 7343.7,3769.66 7370.52,3769.66 C7404.94,3769.66 7441.02,3741.52 7441.02,3712.39 C7441.02,3692.87 7424.47,3681.94 7403.95,3681.94 C7371.84,3681.94 7333.44,3709.08 7333.44,3739.54"/>
<path class="Note" d="M6680.05,1011.19 C6680.05,1025.42 6690.31,1041.31 6717.12,1041.31 C6751.54,1041.31 6787.62,1013.18 6787.62,984.048 C6787.62,964.519 6771.07,953.596 6750.55,953.596 C6718.44,953.596 6680.05,980.738 6680.05,1011.19"/>
<path class="Note" d="M2815.23,3574.18 C2815.23,3588.42 2825.49,3604.3 2852.3,3604.3 C2886.72,3604.3 2922.8,3576.17 2922.8,3547.04 C2922.8,3527.51 2906.25,3516.59 2885.73,3516.59 C2853.62,3516.59 2815.23,3543.73 2815.23,3574.18"/>
<path class="Note" d="M5806.63,1811.19 C5795.7,1811.19 5793.39,1802.25 5793.39,1799.27 C5793.39,1783.05 5849,1754.59 5864.55,1754.59 C5872.5,1754.59 5877.79,1759.22 5877.79,1766.5 C5877.79,1783.05 5821.85,1811.19 5806.63,1811.19 M5852.31,1739.03 C5820.2,1739.03 5781.8,1765.84 5781.8,1796.62 C5781.8,1810.86 5792.06,1826.74 5818.87,1826.74 C5853.3,1826.74 5889.38,1798.61 5889.38,1769.48 C5889.38,1749.95 5872.83,1739.03 5852.31,1739.03"/>
<path class="Note" d="M3012.93,3615.52 C3012.93,3629.75 3023.19,3645.64 3050,3645.64 C3084.43,3645.64 3120.51,3617.51 3120.51,3588.38 C3120.51,3568.85 3103.96,3557.93 3083.44,3557.93 C3051.33,3557.93 3012.93,3585.07 3012.93,3615.52"/>
<path class="Note" d="M5507.24,1769.85 C5496.32,1769.85 5494,1760.91 5494,1757.93 C5494,1741.71 5549.61,1713.25 5565.16,1713.25 C5573.11,1713.25 5578.4,1717.88 5578.4,1725.16 C5578.4,1741.71 5522.47,1769.85 5507.24,1769.85 M5552.92,1697.69 C5520.81,1697.69 5482.41,1724.5 5482.41,1755.28 C5482.41,1769.52 5492.68,1785.41 5519.49,1785.41 C5553.91,1785.41 5589.99,1757.27 5589.99,1728.14 C5589.99,1708.61 5573.44,1697.69 5552.92,1697.69"/>
<path class="Note" d="M3210.64,3656.86 C3210.64,3671.09 3220.9,3686.98 3247.71,3686.98 C3282.14,3686.98 3318.21,3658.85 3318.21,3629.72 C3318.21,3610.19 3301.66,3599.27 3281.14,3599.27 C3249.04,3599.27 3210.64,3626.41 3210.64,3656.86"/>
<path class="Note" d="M5207.85,1728.51 C5196.93,1728.51 5194.61,1719.57 5194.61,1716.59 C5194.61,1700.37 5250.22,1671.91 5265.78,1671.91 C5273.72,1671.91 5279.02,1676.54 5279.02,1683.82 C5279.02,1700.37 5223.08,1728.51 5207.85,1728.51 M5253.53,1656.35 C5221.42,1656.35 5183.03,1683.16 5183.03,1713.95 C5183.03,1728.18 5193.29,1744.07 5220.1,1744.07 C5254.52,1744.07 5290.6,1715.93 5290.6,1686.8 C5290.6,1667.27 5274.05,1656.35 5253.53,1656.35"/>
<path class="Note" d="M2862.24,1155.07 C2852.97,1155.07 2846.69,1152.42 2842.38,1144.14 C2838.08,1135.87 2832.12,1114.68 2831.79,1105.75 C2831.13,1096.81 2834.44,1091.51 2842.38,1088.87 C2846.35,1087.54 2851.65,1086.88 2856.62,1086.88 C2865.88,1086.88 2871.84,1088.87 2876.48,1097.8 C2881.11,1106.74 2887.07,1127.92 2887.07,1136.2 C2887.07,1152.42 2875.81,1155.07 2862.24,1155.07 M2859.59,1076.29 C2813.92,1076.29 2797.7,1099.46 2797.7,1120.97 C2797.7,1142.49 2813.92,1165.66 2859.59,1165.66 C2905.27,1165.66 2921.16,1142.49 2921.16,1120.97 C2921.16,1099.46 2905.27,1076.29 2859.59,1076.29"/>
<path class="Note" d="M6863.38,1052.53 C6863.38,1066.76 6873.65,1082.65 6900.46,1082.65 C6934.88,1082.65 6970.96,1054.51 6970.96,1025.39 C6970.96,1005.86 6954.41,994.935 6933.89,994.935 C6901.78,994.935 6863.38,1022.08 6863.38,1052.53"/>
<path class="Note" d="M3585.2,3712.76 C3574.28,3712.76 3571.96,3703.82 3571.96,3700.85 C3571.96,3684.63 3627.57,3656.16 3643.13,3656.16 C3651.07,3656.16 3656.37,3660.79 3656.37,3668.08 C3656.37,3684.63 3600.43,3712.76 3585.2,3712.76 M3630.88,3640.6 C3598.77,3640.6 3560.38,3667.41 3560.38,3698.2 C3560.38,3712.43 3570.64,3728.32 3597.45,3728.32 C3631.87,3728.32 3667.95,3700.18 3667.95,3671.06 C3667.95,3651.53 3651.4,3640.6 3630.88,3640.6"/>
<path class="Note" d="M4790.24,1769.85 C4779.31,1769.85 4777,1760.91 4777,1757.93 C4777,1741.71 4832.6,1713.25 4848.16,1713.25 C4856.1,1713.25 4861.4,1717.88 4861.4,1725.16 C4861.4,1741.71 4805.46,1769.85 4790.24,1769.85 M4835.91,1697.69 C4803.81,1697.69 4765.41,1724.5 4765.41,1755.28 C4765.41,1769.52 4775.67,1785.41 4802.48,1785.41 C4836.91,1785.41 4872.99,1757.27 4872.99,1728.14 C4872.99,1708.61 4856.44,1697.69 4835.91,1697.69"/>
<path class="Note" d="M3881.76,3671.42 C3870.84,3671.42 3868.52,3662.49 3868.52,3659.51 C3868.52,3643.29 3924.13,3614.82 3939.69,3614.82 C3947.63,3614.82 3952.93,3619.46 3952.93,3626.74 C3952.93,3643.29 3896.99,3671.42 3881.76,3671.42 M3927.44,3599.27 C3895.33,3599.27 3856.94,3626.08 3856.94,3656.86 C3856.94,3671.09 3867.2,3686.98 3894.01,3686.98 C3928.43,3686.98 3964.51,3658.85 3964.51,3629.72 C3964.51,3610.19 3947.96,3599.27 3927.44,3599.27"/>
<path class="Note" d="M4565.82,1713.95 C4565.82,1728.18 4576.08,1744.07 4602.89,1744.07 C4637.32,1744.07 4673.39,1715.93 4673.39,1686.8 C4673.39,1667.27 4656.84,1656.35 4636.32,1656.35 C4604.22,1656.35 4565.82,1683.49 4565.82,1713.95"/>
<path class="Note" d="M4178.32,3630.08 C4167.4,3630.08 4165.08,3621.15 4165.08,3618.17 C4165.08,3601.95 4220.69,3573.48 4236.25,3573.48 C4244.19,3573.48 4249.49,3578.12 4249.49,3585.4 C4249.49,3601.95 4193.55,3630.08 4178.32,3630.08 M4224,3557.93 C4191.89,3557.93 4153.5,3584.74 4153.5,3615.52 C4153.5,3629.75 4163.76,3645.64 4190.57,3645.64 C4224.99,3645.64 4261.07,3617.51 4261.07,3588.38 C4261.07,3568.85 4244.52,3557.93 4224,3557.93"/>
<path class="Note" d="M2429.28,1191.11 C2418.36,1191.11 2416.04,1182.17 2416.04,1179.19 C2416.04,1162.97 2471.65,1134.51 2487.21,1134.51 C2495.15,1134.51 2500.45,1139.14 2500.45,1146.42 C2500.45,1162.97 2444.51,1191.11 2429.28,1191.11 M2474.96,1118.95 C2442.86,1118.95 2404.46,1145.76 2404.46,1176.54 C2404.46,1190.78 2414.72,1206.67 2441.53,1206.67 C2475.96,1206.67 2512.03,1178.53 2512.03,1149.4 C2512.03,1129.87 2495.48,1118.95 2474.96,1118.95"/>
<path class="Note" d="M7604.63,1108.43 C7593.7,1108.43 7591.39,1099.49 7591.39,1096.52 C7591.39,1080.3 7646.99,1051.83 7662.55,1051.83 C7670.5,1051.83 7675.79,1056.46 7675.79,1063.75 C7675.79,1080.3 7619.85,1108.43 7604.63,1108.43 M7650.3,1036.27 C7618.2,1036.27 7579.8,1063.08 7579.8,1093.87 C7579.8,1108.1 7590.06,1123.99 7616.87,1123.99 C7651.3,1123.99 7687.38,1095.85 7687.38,1066.73 C7687.38,1047.2 7670.83,1036.27 7650.3,1036.27"/>
<path class="Note" d="M4632.83,3594.04 C4623.56,3594.04 4617.27,3591.39 4612.97,3583.12 C4608.67,3574.84 4602.71,3553.66 4602.38,3544.72 C4601.72,3535.79 4605.03,3530.49 4612.97,3527.84 C4616.94,3526.52 4622.24,3525.86 4627.2,3525.86 C4636.47,3525.86 4642.43,3527.84 4647.06,3536.78 C4651.7,3545.72 4657.66,3566.9 4657.66,3575.18 C4657.66,3591.39 4646.4,3594.04 4632.83,3594.04 M4630.18,3515.26 C4584.51,3515.26 4568.29,3538.43 4568.29,3559.95 C4568.29,3581.46 4584.51,3604.63 4630.18,3604.63 C4675.86,3604.63 4691.75,3581.46 4691.75,3559.95 C4691.75,3538.43 4675.86,3515.26 4630.18,3515.26"/>
<path class="Note" d="M4211.12,2141.9 C4200.2,2141.9 4197.88,2132.96 4197.88,2129.98 C4197.88,2113.76 4253.49,2085.29 4269.04,2085.29 C4276.99,2085.29 4282.28,2089.93 4282.28,2097.21 C4282.28,2113.76 4226.34,2141.9 4211.12,2141.9 M4256.8,2069.74 C4224.69,2069.74 4186.29,2096.55 4186.29,2127.33 C4186.29,2141.56 4196.55,2157.45 4223.37,2157.45 C4257.79,2157.45 4293.87,2129.32 4293.87,2100.19 C4293.87,2080.66 4277.32,2069.74 4256.8,2069.74"/>
<path class="Note" d="M5045.89,3506.07 C5034.97,3506.07 5032.65,3497.13 5032.65,3494.15 C5032.65,3477.93 5088.26,3449.47 5103.81,3449.47 C5111.76,3449.47 5117.05,3454.1 5117.05,3461.38 C5117.05,3477.93 5061.12,3506.07 5045.89,3506.07 M5091.57,3433.91 C5059.46,3433.91 5021.06,3460.72 5021.06,3491.51 C5021.06,3505.74 5031.33,3521.63 5058.14,3521.63 C5092.56,3521.63 5128.64,3493.49 5128.64,3464.36 C5128.64,3444.83 5112.09,3433.91 5091.57,3433.91"/>
<path class="Note" d="M2221.12,1093.87 C2221.12,1108.1 2231.38,1123.99 2258.19,1123.99 C2292.62,1123.99 2328.7,1095.85 2328.7,1066.73 C2328.7,1047.2 2312.15,1036.27 2291.62,1036.27 C2259.52,1036.27 2221.12,1063.42 2221.12,1093.87"/>
<path class="Note" d="M7046.72,1093.87 C7046.72,1108.1 7056.99,1123.99 7083.8,1123.99 C7118.22,1123.99 7154.3,1095.85 7154.3,1066.73 C7154.3,1047.2 7137.75,1036.27 7117.23,1036.27 C7085.12,1036.27 7046.72,1063.42 7046.72,1093.87"/>
<path class="Note" d="M3793.5,1852.53 C3782.58,1852.53 3780.26,1843.59 3780.26,1840.61 C3780.26,1824.39 3835.87,1795.92 3851.43,1795.92 C3859.37,1795.92 3864.67,1800.56 3864.67,1807.84 C3864.67,1824.39 3808.73,1852.53 3793.5,1852.53 M3839.18,1780.37 C3807.07,1780.37 3768.68,1807.18 3768.68,1837.96 C3768.68,1852.19 3778.94,1868.08 3805.75,1868.08 C3840.17,1868.08 3876.25,1839.95 3876.25,1810.82 C3876.25,1791.29 3859.7,1780.37 3839.18,1780.37"/>
<path class="Note" d="M5460.68,3464.73 C5449.76,3464.73 5447.44,3455.79 5447.44,3452.81 C5447.44,3436.6 5503.05,3408.13 5518.6,3408.13 C5526.55,3408.13 5531.84,3412.76 5531.84,3420.05 C5531.84,3436.6 5475.9,3464.73 5460.68,3464.73 M5506.36,3392.57 C5474.25,3392.57 5435.85,3419.38 5435.85,3450.17 C5435.85,3464.4 5446.11,3480.29 5472.93,3480.29 C5507.35,3480.29 5543.43,3452.15 5543.43,3423.02 C5543.43,3403.5 5526.88,3392.57 5506.36,3392.57"/>
<path class="Note" d="M3569.09,1796.62 C3569.09,1810.86 3579.35,1826.74 3606.16,1826.74 C3640.58,1826.74 3676.66,1798.61 3676.66,1769.48 C3676.66,1749.95 3660.11,1739.03 3639.59,1739.03 C3607.48,1739.03 3569.09,1766.17 3569.09,1796.62"/>
<path class="Note" d="M5757.24,3506.07 C5746.32,3506.07 5744,3497.13 5744,3494.15 C5744,3477.93 5799.61,3449.47 5815.16,3449.47 C5823.11,3449.47 5828.4,3454.1 5828.4,3461.38 C5828.4,3477.93 5772.46,3506.07 5757.24,3506.07 M5802.92,3433.91 C5770.81,3433.91 5732.41,3460.72 5732.41,3491.51 C5732.41,3505.74 5742.67,3521.63 5769.49,3521.63 C5803.91,3521.63 5839.99,3493.49 5839.99,3464.36 C5839.99,3444.83 5823.44,3433.91 5802.92,3433.91"/>
<path class="Note" d="M7135.74,3698.2 C7135.74,3712.43 7146,3728.32 7172.81,3728.32 C7207.23,3728.32 7243.31,3700.18 7243.31,3671.06 C7243.31,3651.53 7226.76,3640.6 7206.24,3640.6 C7174.13,3640.6 7135.74,3667.75 7135.74,3698.2"/>
<path class="Note" d="M6053.8,3547.41 C6042.88,3547.41 6040.56,3538.47 6040.56,3535.49 C6040.56,3519.27 6096.17,3490.81 6111.72,3490.81 C6119.67,3490.81 6124.96,3495.44 6124.96,3502.72 C6124.96,3519.27 6069.03,3547.41 6053.8,3547.41 M6099.48,3475.25 C6067.37,3475.25 6028.97,3502.06 6028.97,3532.84 C6028.97,3547.08 6039.24,3562.96 6066.05,3562.96 C6100.47,3562.96 6136.55,3534.83 6136.55,3505.7 C6136.55,3486.17 6120,3475.25 6099.48,3475.25"/>
<path class="Note" d="M2379.47,2023.18 C2370.2,2023.18 2363.91,2020.53 2359.61,2012.25 C2355.31,2003.98 2349.35,1982.79 2349.02,1973.86 C2348.36,1964.92 2351.67,1959.62 2359.61,1956.98 C2363.58,1955.65 2368.88,1954.99 2373.84,1954.99 C2383.11,1954.99 2389.07,1956.98 2393.7,1965.91 C2398.34,1974.85 2404.3,1996.03 2404.3,2004.31 C2404.3,2020.53 2393.04,2023.18 2379.47,2023.18 M2376.82,1944.4 C2331.14,1944.4 2314.93,1967.57 2314.93,1989.08 C2314.93,2010.6 2331.14,2033.77 2376.82,2033.77 C2422.5,2033.77 2438.39,2010.6 2438.39,1989.08 C2438.39,1967.57 2422.5,1944.4 2376.82,1944.4"/>
<path class="Note" d="M1897.32,1149.77 C1886.4,1149.77 1884.08,1140.83 1884.08,1137.85 C1884.08,1121.63 1939.69,1093.17 1955.25,1093.17 C1963.19,1093.17 1968.49,1097.8 1968.49,1105.08 C1968.49,1121.63 1912.55,1149.77 1897.32,1149.77 M1943,1077.61 C1910.9,1077.61 1872.5,1104.42 1872.5,1135.21 C1872.5,1149.44 1882.76,1165.33 1909.57,1165.33 C1944,1165.33 1980.07,1137.19 1980.07,1108.06 C1980.07,1088.53 1963.52,1077.61 1943,1077.61"/>
<path class="Note" d="M3214.39,1852.53 C3203.46,1852.53 3201.15,1843.59 3201.15,1840.61 C3201.15,1824.39 3256.75,1795.92 3272.31,1795.92 C3280.25,1795.92 3285.55,1800.56 3285.55,1807.84 C3285.55,1824.39 3229.61,1852.53 3214.39,1852.53 M3260.06,1780.37 C3227.96,1780.37 3189.56,1807.18 3189.56,1837.96 C3189.56,1852.19 3199.82,1868.08 3226.63,1868.08 C3261.06,1868.08 3297.14,1839.95 3297.14,1810.82 C3297.14,1791.29 3280.59,1780.37 3260.06,1780.37"/>
<path class="Note" d="M6468.59,3588.75 C6457.66,3588.75 6455.35,3579.81 6455.35,3576.83 C6455.35,3560.61 6510.96,3532.15 6526.51,3532.15 C6534.46,3532.15 6539.75,3536.78 6539.75,3544.06 C6539.75,3560.61 6483.81,3588.75 6468.59,3588.75 M6514.27,3516.59 C6482.16,3516.59 6443.76,3543.4 6443.76,3574.18 C6443.76,3588.42 6454.02,3604.3 6480.83,3604.3 C6515.26,3604.3 6551.34,3576.17 6551.34,3547.04 C6551.34,3527.51 6534.79,3516.59 6514.27,3516.59"/>
<path class="Note" d="M7230.06,1135.21 C7230.06,1149.44 7240.32,1165.33 7267.14,1165.33 C7301.56,1165.33 7337.64,1137.19 7337.64,1108.06 C7337.64,1088.53 7321.09,1077.61 7300.57,1077.61 C7268.46,1077.61 7230.06,1104.75 7230.06,1135.21"/>
<path class="Note" d="M6740.32,3615.52 C6740.32,3629.75 6750.58,3645.64 6777.39,3645.64 C6811.82,3645.64 6847.9,3617.51 6847.9,3588.38 C6847.9,3568.85 6831.35,3557.93 6810.83,3557.93 C6778.72,3557.93 6740.32,3585.07 6740.32,3615.52"/>
<path class="Note" d="M2796.77,2017.88 C2785.85,2017.88 2783.53,2008.94 2783.53,2005.96 C2783.53,1989.75 2839.14,1961.28 2854.69,1961.28 C2862.64,1961.28 2867.93,1965.91 2867.93,1973.2 C2867.93,1989.75 2812,2017.88 2796.77,2017.88 M2842.45,1945.72 C2810.34,1945.72 2771.94,1972.53 2771.94,2003.32 C2771.94,2017.55 2782.21,2033.44 2809.02,2033.44 C2843.44,2033.44 2879.52,2005.3 2879.52,1976.17 C2879.52,1956.65 2862.97,1945.72 2842.45,1945.72"/>
<path class="Note" d="M4308.69,2849.95 C4299.42,2849.95 4293.13,2847.3 4288.83,2839.02 C4284.52,2830.75 4278.57,2809.57 4278.23,2800.63 C4277.57,2791.69 4280.88,2786.4 4288.83,2783.75 C4292.8,2782.42 4298.09,2781.76 4303.06,2781.76 C4312.33,2781.76 4318.29,2783.75 4322.92,2792.68 C4327.55,2801.62 4333.51,2822.81 4333.51,2831.08 C4333.51,2847.3 4322.26,2849.95 4308.69,2849.95 M4306.04,2771.17 C4260.36,2771.17 4244.14,2794.34 4244.14,2815.85 C4244.14,2837.37 4260.36,2860.54 4306.04,2860.54 C4351.72,2860.54 4367.6,2837.37 4367.6,2815.85 C4367.6,2794.34 4351.72,2771.17 4306.04,2771.17"/>
<path class="Clef" d="M909.689,3752.48 C903.069,3753.81 896.78,3754.47 890.491,3754.47 C843.158,3754.47 802.776,3721.37 802.776,3671.39 C802.776,3631 831.242,3594.93 860.37,3569.77 C865.997,3564.8 871.293,3560.17 876.258,3555.21 C879.237,3573.08 881.554,3588.64 883.871,3602.21 C853.75,3611.14 833.228,3642.92 833.228,3674.03 C833.228,3697.2 851.433,3728.98 877.913,3728.98 C880.561,3728.98 883.54,3727.66 883.54,3724.68 C883.54,3721.7 880.23,3720.04 876.258,3717.4 C863.349,3709.45 856.067,3700.85 856.067,3684.63 C856.067,3664.44 870.962,3648.22 890.491,3643.58 L909.689,3752.48 M880.561,3412.21 C883.54,3398.97 898.766,3364.22 915.978,3364.22 C920.943,3364.22 928.887,3380.44 928.887,3403.28 C928.887,3437.7 903.4,3463.52 880.561,3486.03 C878.575,3472.79 876.92,3459.88 876.92,3445.98 C876.92,3433.73 877.913,3422.47 880.561,3412.21 M956.691,3691.25 C956.691,3714.75 947.092,3738.91 923.591,3748.51 C916.64,3708.79 907.703,3656.16 905.386,3641.6 C935.176,3641.6 956.691,3661.79 956.691,3691.25 M811.051,3854.1 C811.051,3875.94 827.932,3904.74 872.617,3904.74 C888.174,3904.74 901.745,3900.77 913.661,3893.49 C931.535,3880.91 936.169,3859.06 936.169,3838.21 C936.169,3825.3 934.183,3810.41 930.873,3791.54 C929.88,3784.92 927.894,3774.99 925.908,3762.08 C958.346,3751.49 982.509,3717.73 982.509,3683.63 C982.509,3633.65 947.092,3599.89 898.766,3599.89 C895.456,3580.03 892.146,3560.5 889.167,3541.97 C924.253,3505.22 948.416,3463.85 948.416,3411.22 C948.416,3381.1 939.148,3356.61 933.852,3344.69 C925.908,3327.81 916.309,3316.22 910.351,3316.22 C908.034,3316.22 897.773,3320.2 886.85,3333.1 C865.666,3358.26 859.708,3400.63 859.708,3428.43 C859.708,3446.31 861.363,3462.53 866.99,3499.6 C866.659,3499.93 849.447,3517.47 842.496,3523.1 C812.375,3551.23 770.669,3591.28 770.669,3657.48 C770.669,3719.38 824.622,3768.04 886.188,3768.04 C895.787,3768.04 904.724,3767.05 912.337,3765.72 C918.626,3797.5 922.267,3820.67 922.267,3838.21 C922.267,3872.63 904.724,3890.84 871.293,3890.84 C863.349,3890.84 856.398,3889.18 855.736,3889.18 C855.405,3888.85 854.743,3888.52 854.743,3888.19 C854.743,3887.53 855.405,3887.2 856.398,3886.87 C871.955,3884.55 887.512,3871.31 887.512,3850.13 C887.512,3832.25 873.941,3813.39 849.116,3813.39 C825.946,3813.39 811.051,3832.25 811.051,3854.1"/>
<path class="Clef" d="M909.689,2016.26 C903.069,2017.59 896.78,2018.25 890.491,2018.25 C843.158,2018.25 802.776,1985.15 802.776,1935.17 C802.776,1894.78 831.242,1858.71 860.37,1833.55 C865.997,1828.58 871.293,1823.95 876.258,1818.99 C879.237,1836.86 881.554,1852.42 883.871,1865.99 C853.75,1874.92 833.228,1906.7 833.228,1937.81 C833.228,1960.98 851.433,1992.76 877.913,1992.76 C880.561,1992.76 883.54,1991.44 883.54,1988.46 C883.54,1985.48 880.23,1983.82 876.258,1981.18 C863.349,1973.23 856.067,1964.63 856.067,1948.41 C856.067,1928.22 870.962,1912 890.491,1907.36 L909.689,2016.26 M880.561,1675.99 C883.54,1662.75 898.766,1628 915.978,1628 C920.943,1628 928.887,1644.22 928.887,1667.06 C928.887,1701.48 903.4,1727.3 880.561,1749.81 C878.575,1736.57 876.92,1723.66 876.92,1709.76 C876.92,1697.51 877.913,1686.25 880.561,1675.99 M956.691,1955.03 C956.691,1978.53 947.092,2002.69 923.591,2012.29 C916.64,1972.57 907.703,1919.94 905.386,1905.38 C935.176,1905.38 956.691,1925.57 956.691,1955.03 M811.051,2117.88 C811.051,2139.72 827.932,2168.52 872.617,2168.52 C888.174,2168.52 901.745,2164.55 913.661,2157.27 C931.535,2144.69 936.169,2122.84 936.169,2101.99 C936.169,2089.08 934.183,2074.19 930.873,2055.32 C929.88,2048.7 927.894,2038.77 925.908,2025.86 C958.346,2015.27 982.509,1981.51 982.509,1947.41 C982.509,1897.43 947.092,1863.67 898.766,1863.67 C895.456,1843.81 892.146,1824.28 889.167,1805.75 C924.253,1769 948.416,1727.63 948.416,1675 C948.416,1644.88 939.148,1620.39 933.852,1608.47 C925.908,1591.59 916.309,1580 910.351,1580 C908.034,1580 897.773,1583.98 886.85,1596.88 C865.666,1622.04 859.708,1664.41 859.708,1692.21 C859.708,1710.09 861.363,1726.31 866.99,1763.38 C866.659,1763.71 849.447,1781.25 842.496,1786.88 C812.375,1815.01 770.669,1855.06 770.669,1921.26 C770.669,1983.16 824.622,2031.82 886.188,2031.82 C895.787,2031.82 904.724,2030.83 912.337,2029.5 C918.626,2061.28 922.267,2084.45 922.267,2101.99 C922.267,2136.41 904.724,2154.62 871.293,2154.62 C863.349,2154.62 856.398,2152.96 855.736,2152.96 C855.405,2152.63 854.743,2152.3 854.743,2151.97 C854.743,2151.31 855.405,2150.98 856.398,2150.65 C871.955,2148.33 887.512,2135.09 887.512,2113.91 C887.512,2096.03 873.941,2077.17 849.116,2077.17 C825.946,2077.17 811.051,2096.03 811.051,2117.88"/>
<path class="Clef" d="M909.689,2884.37 C903.069,2885.7 896.78,2886.36 890.491,2886.36 C843.158,2886.36 802.776,2853.26 802.776,2803.28 C802.776,2762.89 831.242,2726.82 860.37,2701.66 C865.997,2696.69 871.293,2692.06 876.258,2687.1 C879.237,2704.97 881.554,2720.53 883.871,2734.1 C853.75,2743.03 833.228,2774.81 833.228,2805.92 C833.228,2829.09 851.433,2860.87 877.913,2860.87 C880.561,2860.87 883.54,2859.55 883.54,2856.57 C883.54,2853.59 880.23,2851.93 876.258,2849.29 C863.349,2841.34 856.067,2832.74 856.067,2816.52 C856.067,2796.33 870.962,2780.11 890.491,2775.47 L909.689,2884.37 M880.561,2544.1 C883.54,2530.86 898.766,2496.11 915.978,2496.11 C920.943,2496.11 928.887,2512.33 928.887,2535.17 C928.887,2569.59 903.4,2595.41 880.561,2617.92 C878.575,2604.68 876.92,2591.77 876.92,2577.87 C876.92,2565.62 877.913,2554.36 880.561,2544.1 M956.691,2823.14 C956.691,2846.64 947.092,2870.8 923.591,2880.4 C916.64,2840.68 907.703,2788.05 905.386,2773.49 C935.176,2773.49 956.691,2793.68 956.691,2823.14 M811.051,2985.99 C811.051,3007.83 827.932,3036.63 872.617,3036.63 C888.174,3036.63 901.745,3032.66 913.661,3025.38 C931.535,3012.8 936.169,2990.95 936.169,2970.1 C936.169,2957.19 934.183,2942.3 930.873,2923.43 C929.88,2916.81 927.894,2906.88 925.908,2893.97 C958.346,2883.38 982.509,2849.62 982.509,2815.52 C982.509,2765.54 947.092,2731.78 898.766,2731.78 C895.456,2711.92 892.146,2692.39 889.167,2673.86 C924.253,2637.11 948.416,2595.74 948.416,2543.11 C948.416,2512.99 939.148,2488.5 933.852,2476.58 C925.908,2459.7 916.309,2448.11 910.351,2448.11 C908.034,2448.11 897.773,2452.09 886.85,2464.99 C865.666,2490.15 859.708,2532.52 859.708,2560.32 C859.708,2578.2 861.363,2594.42 866.99,2631.49 C866.659,2631.82 849.447,2649.36 842.496,2654.99 C812.375,2683.12 770.669,2723.17 770.669,2789.37 C770.669,2851.27 824.622,2899.93 886.188,2899.93 C895.787,2899.93 904.724,2898.94 912.337,2897.61 C918.626,2929.39 922.267,2952.56 922.267,2970.1 C922.267,3004.52 904.724,3022.73 871.293,3022.73 C863.349,3022.73 856.398,3021.07 855.736,3021.07 C855.405,3020.74 854.743,3020.41 854.743,3020.08 C854.743,3019.42 855.405,3019.09 856.398,3018.76 C871.955,3016.44 887.512,3003.2 887.512,2982.02 C887.512,2964.14 873.941,2945.28 849.116,2945.28 C825.946,2945.28 811.051,2964.14 811.051,2985.99"/>
<path class="Clef" d="M909.689,1148.15 C903.069,1149.48 896.78,1150.14 890.491,1150.14 C843.158,1150.14 802.776,1117.04 802.776,1067.06 C802.776,1026.67 831.242,990.595 860.37,965.439 C865.997,960.474 871.293,955.84 876.258,950.875 C879.237,968.749 881.554,984.306 883.871,997.877 C853.75,1006.81 833.228,1038.59 833.228,1069.7 C833.228,1092.87 851.433,1124.65 877.913,1124.65 C880.561,1124.65 883.54,1123.33 883.54,1120.35 C883.54,1117.37 880.23,1115.71 876.258,1113.07 C863.349,1105.12 856.067,1096.52 856.067,1080.3 C856.067,1060.11 870.962,1043.89 890.491,1039.25 L909.689,1148.15 M880.561,807.883 C883.54,794.643 898.766,759.888 915.978,759.888 C920.943,759.888 928.887,776.107 928.887,798.946 C928.887,833.37 903.4,859.188 880.561,881.696 C878.575,868.456 876.92,855.547 876.92,841.645 C876.92,829.398 877.913,818.144 880.561,807.883 M956.691,1086.92 C956.691,1110.42 947.092,1134.58 923.591,1144.18 C916.64,1104.46 907.703,1051.83 905.386,1037.27 C935.176,1037.27 956.691,1057.46 956.691,1086.92 M811.051,1249.77 C811.051,1271.61 827.932,1300.41 872.617,1300.41 C888.174,1300.41 901.745,1296.44 913.661,1289.16 C931.535,1276.58 936.169,1254.73 936.169,1233.88 C936.169,1220.97 934.183,1206.08 930.873,1187.21 C929.88,1180.59 927.894,1170.66 925.908,1157.75 C958.346,1147.16 982.509,1113.4 982.509,1079.3 C982.509,1029.32 947.092,995.56 898.766,995.56 C895.456,975.7 892.146,956.171 889.167,937.635 C924.253,900.894 948.416,859.519 948.416,806.89 C948.416,776.769 939.148,752.275 933.852,740.359 C925.908,723.478 916.309,711.893 910.351,711.893 C908.034,711.893 897.773,715.865 886.85,728.774 C865.666,753.93 859.708,796.298 859.708,824.102 C859.708,841.976 861.363,858.195 866.99,895.267 C866.659,895.598 849.447,913.141 842.496,918.768 C812.375,946.903 770.669,986.954 770.669,1053.15 C770.669,1115.05 824.622,1163.71 886.188,1163.71 C895.787,1163.71 904.724,1162.72 912.337,1161.39 C918.626,1193.17 922.267,1216.34 922.267,1233.88 C922.267,1268.3 904.724,1286.51 871.293,1286.51 C863.349,1286.51 856.398,1284.85 855.736,1284.85 C855.405,1284.52 854.743,1284.19 854.743,1283.86 C854.743,1283.2 855.405,1282.87 856.398,1282.54 C871.955,1280.22 887.512,1266.98 887.512,1245.8 C887.512,1227.92 873.941,1209.06 849.116,1209.06 C825.946,1209.06 811.051,1227.92 811.051,1249.77"/>
<path class="KeySig" d="M1088.05,3588.38 C1088.05,3614.53 1074.48,3628.43 1055.28,3643.66 L1056.27,3579.11 C1056.93,3576.13 1061.9,3566.53 1075.14,3566.53 C1087.06,3566.53 1088.05,3577.79 1088.05,3584.74 L1088.05,3588.38 M1084.08,3550.31 C1067.53,3550.31 1057.93,3560.57 1056.27,3562.56 L1057.6,3456.31 C1057.6,3453.66 1055.61,3451.68 1052.96,3451.68 L1048.99,3451.68 C1046.34,3451.68 1044.36,3453.66 1044.36,3456.31 L1046.01,3655.24 C1046.01,3657.89 1048,3659.87 1050.65,3659.87 C1051.31,3659.87 1052.63,3659.54 1053.29,3659.21 C1081.76,3644.98 1111.55,3617.84 1111.55,3583.74 C1111.55,3566.53 1103.61,3550.31 1084.08,3550.31"/>
<path class="KeySig" d="M1088.05,1852.16 C1088.05,1878.31 1074.48,1892.21 1055.28,1907.44 L1056.27,1842.89 C1056.93,1839.91 1061.9,1830.31 1075.14,1830.31 C1087.06,1830.31 1088.05,1841.57 1088.05,1848.52 L1088.05,1852.16 M1084.08,1814.09 C1067.53,1814.09 1057.93,1824.35 1056.27,1826.34 L1057.6,1720.09 C1057.6,1717.44 1055.61,1715.46 1052.96,1715.46 L1048.99,1715.46 C1046.34,1715.46 1044.36,1717.44 1044.36,1720.09 L1046.01,1919.02 C1046.01,1921.67 1048,1923.65 1050.65,1923.65 C1051.31,1923.65 1052.63,1923.32 1053.29,1922.99 C1081.76,1908.76 1111.55,1881.62 1111.55,1847.52 C1111.55,1830.31 1103.61,1814.09 1084.08,1814.09"/>
<path class="KeySig" d="M1088.05,2720.27 C1088.05,2746.42 1074.48,2760.32 1055.28,2775.55 L1056.27,2711 C1056.93,2708.02 1061.9,2698.42 1075.14,2698.42 C1087.06,2698.42 1088.05,2709.68 1088.05,2716.63 L1088.05,2720.27 M1084.08,2682.2 C1067.53,2682.2 1057.93,2692.46 1056.27,2694.45 L1057.6,2588.2 C1057.6,2585.55 1055.61,2583.57 1052.96,2583.57 L1048.99,2583.57 C1046.34,2583.57 1044.36,2585.55 1044.36,2588.2 L1046.01,2787.13 C1046.01,2789.78 1048,2791.76 1050.65,2791.76 C1051.31,2791.76 1052.63,2791.43 1053.29,2791.1 C1081.76,2776.87 1111.55,2749.73 1111.55,2715.63 C1111.55,2698.42 1103.61,2682.2 1084.08,2682.2"/>
<path class="KeySig" d="M1088.05,984.048 C1088.05,1010.2 1074.48,1024.1 1055.28,1039.33 L1056.27,974.78 C1056.93,971.801 1061.9,962.202 1075.14,962.202 C1087.06,962.202 1088.05,973.456 1088.05,980.407 L1088.05,984.048 M1084.08,945.983 C1067.53,945.983 1057.93,956.244 1056.27,958.23 L1057.6,851.979 C1057.6,849.331 1055.61,847.345 1052.96,847.345 L1048.99,847.345 C1046.34,847.345 1044.36,849.331 1044.36,851.979 L1046.01,1050.91 C1046.01,1053.56 1048,1055.54 1050.65,1055.54 C1051.31,1055.54 1052.63,1055.21 1053.29,1054.88 C1081.76,1040.65 1111.55,1013.51 1111.55,979.414 C1111.55,962.202 1103.61,945.983 1084.08,945.983"/>
<path class="TimeSig" d="M1281.39,911.289 C1307.87,901.028 1309.52,883.816 1309.52,877.858 L1309.52,876.203 C1309.52,873.224 1308.53,835.821 1251.6,835.821 C1194.67,835.821 1196.32,876.203 1196.32,876.203 L1196.65,876.203 L1196.32,876.865 C1196.32,888.781 1205.92,898.049 1217.84,898.049 C1229.75,898.049 1239.02,888.781 1239.02,876.865 C1239.02,867.266 1231.74,857.998 1222.47,856.012 L1223.46,855.019 C1228.1,851.709 1234.39,850.054 1240.67,850.054 C1254.58,850.054 1269.47,858.329 1269.47,876.203 C1269.47,897.056 1253.91,900.035 1249.94,900.697 C1245.97,901.359 1227.43,902.683 1223.46,902.683 C1219.49,902.683 1219.16,907.317 1219.16,907.317 L1219.16,913.937 C1219.16,913.937 1219.82,917.578 1223.46,917.909 C1229.09,918.24 1236.7,918.24 1247.29,919.895 C1261.86,921.881 1269.47,931.811 1269.47,954.981 C1269.47,977.158 1254.58,983.116 1240.67,983.116 C1231.41,983.116 1222.8,980.468 1219.16,977.82 C1230.08,977.158 1239.02,967.559 1239.02,956.636 C1239.02,944.72 1229.75,935.121 1217.84,935.121 C1205.92,935.121 1196.32,944.72 1196.32,956.636 C1196.32,983.778 1221.15,997.349 1245.64,997.349 C1277.42,997.349 1311.84,986.426 1311.84,950.347 C1311.84,926.184 1295.29,915.923 1280.73,911.289 L1281.39,911.289 "/>
<path class="TimeSig" d="M1302.42,1090.9 C1299.77,1098.18 1293.15,1122.01 1276.93,1122.01 C1255.42,1122.01 1250.78,1108.77 1232.91,1108.77 C1230.26,1108.77 1227.61,1109.11 1224.3,1109.77 C1224.3,1109.77 1232.58,1097.19 1267.66,1086.27 C1302.75,1075.34 1311.69,1058.13 1311.69,1038.27 C1311.69,1024.37 1305.4,996.896 1255.42,996.896 C1205.43,996.896 1196.17,1027.02 1196.17,1042.24 C1196.17,1055.81 1207.42,1066.74 1220.99,1066.74 C1234.56,1066.74 1245.49,1055.81 1245.49,1042.24 C1245.49,1032.98 1238.87,1022.71 1230.26,1019.4 C1229.27,1019.07 1227.94,1017.42 1227.94,1015.76 C1227.94,1013.78 1229.6,1011.46 1235.56,1009.81 C1237.21,1009.14 1241.84,1008.15 1246.81,1008.15 C1265.68,1008.15 1269.32,1019.74 1269.32,1036.62 C1269.32,1075.34 1223.31,1083.62 1204.11,1112.42 C1204.11,1112.42 1194.18,1126.32 1194.18,1141.87 C1194.18,1157.43 1202.12,1158.42 1206.1,1158.42 C1211.39,1158.42 1217.02,1154.12 1217.02,1148.16 C1217.02,1146.84 1216.69,1145.52 1216.03,1143.86 C1214.04,1139.23 1213.38,1135.59 1213.38,1132.94 C1213.38,1131.94 1213.38,1130.95 1213.71,1129.96 C1214.04,1127.97 1216.69,1124.66 1224.63,1124.66 C1234.23,1124.66 1237.87,1135.92 1243.83,1144.52 C1249.79,1153.13 1259.06,1158.42 1269.65,1158.42 C1280.24,1158.42 1294.47,1150.81 1300.43,1138.56 C1306.39,1126.32 1314,1101.49 1314,1092.56 C1314,1088.25 1311.35,1086.27 1308.38,1086.27 C1306.06,1086.27 1303.74,1087.59 1302.42,1090.9"/>
<path class="NoteDot" d="M2021.33,1121.3 C2021.33,1130.57 2028.61,1137.85 2037.88,1137.85 C2047.15,1137.85 2054.43,1130.57 2054.43,1121.3 C2054.43,1112.04 2047.15,1104.75 2037.88,1104.75 C2028.61,1104.75 2021.33,1112.04 2021.33,1121.3"/>
<path class="NoteDot" d="M3338.39,1824.06 C3338.39,1833.33 3345.68,1840.61 3354.94,1840.61 C3364.21,1840.61 3371.49,1833.33 3371.49,1824.06 C3371.49,1814.79 3364.21,1807.51 3354.94,1807.51 C3345.68,1807.51 3338.39,1814.79 3338.39,1824.06"/>
<path class="NoteDot" d="M4335.13,2072.09 C4335.13,2081.36 4342.41,2088.64 4351.68,2088.64 C4360.94,2088.64 4368.23,2081.36 4368.23,2072.09 C4368.23,2062.82 4360.94,2055.54 4351.68,2055.54 C4342.41,2055.54 4335.13,2062.82 4335.13,2072.09"/>
<path class="NoteDot" d="M2588.12,3560.28 C2588.12,3569.55 2595.4,3576.83 2604.67,3576.83 C2613.94,3576.83 2621.22,3569.55 2621.22,3560.28 C2621.22,3551.01 2613.94,3543.73 2604.67,3543.73 C2595.4,3543.73 2588.12,3551.01 2588.12,3560.28"/>
<path class="NoteDot" d="M1467.02,3725.63 C1467.02,3734.9 1474.31,3742.18 1483.57,3742.18 C1492.84,3742.18 1500.12,3734.9 1500.12,3725.63 C1500.12,3716.37 1492.84,3709.08 1483.57,3709.08 C1474.31,3709.08 1467.02,3716.37 1467.02,3725.63"/>
<path class="NoteDot" d="M1467.02,1989.41 C1467.02,1998.68 1474.31,2005.96 1483.57,2005.96 C1492.84,2005.96 1500.12,1998.68 1500.12,1989.41 C1500.12,1980.15 1492.84,1972.86 1483.57,1972.86 C1474.31,1972.86 1467.02,1980.15 1467.02,1989.41"/>
<path class="NoteDot" d="M7596.15,1906.74 C7596.15,1916 7603.43,1923.29 7612.7,1923.29 C7621.97,1923.29 7629.25,1916 7629.25,1906.74 C7629.25,1897.47 7621.97,1890.19 7612.7,1890.19 C7603.43,1890.19 7596.15,1897.47 7596.15,1906.74"/>
<path class="NoteDot" d="M7832.01,3808.31 C7832.01,3817.58 7839.3,3824.86 7848.56,3824.86 C7857.83,3824.86 7865.11,3817.58 7865.11,3808.31 C7865.11,3799.04 7857.83,3791.76 7848.56,3791.76 C7839.3,3791.76 7832.01,3799.04 7832.01,3808.31"/>
<path class="NoteDot" d="M3760.22,955.95 C3760.22,965.218 3767.5,972.5 3776.77,972.5 C3786.04,972.5 3793.32,965.218 3793.32,955.95 C3793.32,946.682 3786.04,939.4 3776.77,939.4 C3767.5,939.4 3760.22,946.682 3760.22,955.95"/>
<path class="NoteDot" d="M7571.09,2940.2 C7571.09,2949.47 7578.38,2956.75 7587.64,2956.75 C7596.91,2956.75 7604.19,2949.47 7604.19,2940.2 C7604.19,2930.93 7596.91,2923.65 7587.64,2923.65 C7578.38,2923.65 7571.09,2930.93 7571.09,2940.2"/>
<path class="NoteDot" d="M7728.63,1038.63 C7728.63,1047.89 7735.92,1055.18 7745.18,1055.18 C7754.45,1055.18 7761.73,1047.89 7761.73,1038.63 C7761.73,1029.36 7754.45,1022.08 7745.18,1022.08 C7735.92,1022.08 7728.63,1029.36 7728.63,1038.63"/>
<path class="NoteDot" d="M1467.02,2692.17 C1467.02,2701.44 1474.31,2708.72 1483.57,2708.72 C1492.84,2708.72 1500.12,2701.44 1500.12,2692.17 C1500.12,2682.9 1492.84,2675.62 1483.57,2675.62 C1474.31,2675.62 1467.02,2682.9 1467.02,2692.17"/>
<path class="NoteDot" d="M3382.71,2526.82 C3382.71,2536.08 3389.99,2543.37 3399.26,2543.37 C3408.53,2543.37 3415.81,2536.08 3415.81,2526.82 C3415.81,2517.55 3408.53,2510.27 3399.26,2510.27 C3389.99,2510.27 3382.71,2517.55 3382.71,2526.82"/>
<path class="NoteDot" d="M4685.42,1203.98 C4685.42,1213.25 4692.7,1220.53 4701.97,1220.53 C4711.23,1220.53 4718.52,1213.25 4718.52,1203.98 C4718.52,1194.71 4711.23,1187.43 4701.97,1187.43 C4692.7,1187.43 4685.42,1194.71 4685.42,1203.98"/>
</svg>
