<?xml version="1.0" encoding="UTF-8" standalone="no"?>
<svg width="210.058mm" height="296.926mm" viewBox="0 0 9924 14028"
 xmlns="http://www.w3.org/2000/svg" xmlns:xlink="http://www.w3.org/1999/xlink" version="1.2" baseProfile="full">
<title>air_II</title>
<desc>Generated by MuseScore Studio 4.7.3</desc>
<polyline class="StaffLines" fill="none" stroke="#000000" stroke-width="9.09" stroke-linejoin="bevel" points="708.661,828.424 9215.34,828.424" />
<polyline class="StaffLines" fill="none" stroke="#000000" stroke-width="9.09" stroke-linejoin="bevel" points="708.661,911.101 9215.34,911.101" />
<polyline class="StaffLines" fill="none" stroke="#000000" stroke-width="9.09" stroke-linejoin="bevel" points="708.661,993.778 9215.34,993.778" />
<polyline class="StaffLines" fill="none" stroke="#000000" stroke-width="9.09" stroke-linejoin="bevel" points="708.661,1076.46 9215.34,1076.46" />
<polyline class="StaffLines" fill="none" stroke="#000000" stroke-width="9.09" stroke-linejoin="bevel" points="708.661,1159.13 9215.34,1159.13" />
<polyline class="StaffLines" fill="none" stroke="#000000" stroke-width="9.09" stroke-linejoin="bevel" points="708.661,1696.53 9215.34,1696.53" />
<polyline class="StaffLines" fill="none" stroke="#000000" stroke-width="9.09" stroke-linejoin="bevel" points="708.661,1779.21 9215.34,1779.21" />
<polyline class="StaffLines" fill="none" stroke="#000000" stroke-width="9.09" stroke-linejoin="bevel" points="708.661,1861.89 9215.34,1861.89" />
<polyline class="StaffLines" fill="none" stroke="#000000" stroke-width="9.09" stroke-linejoin="bevel" points="708.661,1944.57 9215.34,1944.57" />
<polyline class="StaffLines" fill="none" stroke="#000000" stroke-width="9.09" stroke-linejoin="bevel" points="708.661,2027.24 9215.34,2027.24" />
<polyline class="StaffLines" fill="none" stroke="#000000" stroke-width="9.09" stroke-linejoin="bevel" points="708.661,2564.64 9215.34,2564.64" />
<polyline class="StaffLines" fill="none" stroke="#000000" stroke-width="9.09" stroke-linejoin="bevel" points="708.661,2647.32 9215.34,2647.32" />
<polyline class="StaffLines" fill="none" stroke="#000000" stroke-width="9.09" stroke-linejoin="bevel" points="708.661,2730 9215.34,2730" />
<polyline class="StaffLines" fill="none" stroke="#000000" stroke-width="9.09" stroke-linejoin="bevel" points="708.661,2812.68 9215.34,2812.68" />
<polyline class="StaffLines" fill="none" stroke="#000000" stroke-width="9.09" stroke-linejoin="bevel" points="708.661,2895.35 9215.34,2895.35" />
<polyline class="BarLine" fill="none" stroke="#000000" stroke-width="14.88" stroke-linejoin="bevel" points="4276.61,823.876 4276.61,1163.68" />
<polyline class="BarLine" fill="none" stroke="#000000" stroke-width="14.88" stroke-linejoin="bevel" points="4021.29,1691.99 4021.29,2031.79" />
<path class="BarLine" d="M9093.83,2688.66 C9093.83,2679.06 9086.22,2671.12 9076.62,2671.12 C9067.02,2671.12 9059.41,2679.06 9059.41,2688.66 C9059.41,2698.26 9067.02,2706.2 9076.62,2706.2 C9086.22,2706.2 9093.83,2698.26 9093.83,2688.66"/>
<path class="BarLine" d="M9093.83,2771.34 C9093.83,2761.74 9086.22,2753.79 9076.62,2753.79 C9067.02,2753.79 9059.41,2761.74 9059.41,2771.34 C9059.41,2780.94 9067.02,2788.88 9076.62,2788.88 C9086.22,2788.88 9093.83,2780.94 9093.83,2771.34"/>
<polyline class="BarLine" fill="none" stroke="#000000" stroke-width="14.88" stroke-linejoin="bevel" points="9131.84,2560.1 9131.84,2899.9" />
<polyline class="BarLine" fill="none" stroke="#000000" stroke-width="45.47" stroke-linejoin="bevel" points="9192.6,2560.1 9192.6,2899.9" />
<polyline class="BarLine" fill="none" stroke="#000000" stroke-width="14.88" stroke-linejoin="bevel" points="2756.83,1691.99 2756.83,2031.79" />
<polyline class="BarLine" fill="none" stroke="#000000" stroke-width="14.88" stroke-linejoin="bevel" points="1889.53,823.876 1889.53,1163.68" />
<polyline class="BarLine" fill="none" stroke="#000000" stroke-width="14.88" stroke-linejoin="bevel" points="5285.75,1691.99 5285.75,2031.79" />
<polyline class="BarLine" fill="none" stroke="#000000" stroke-width="14.88" stroke-linejoin="bevel" points="6550.21,1691.99 6550.21,2031.79" />
<polyline class="BarLine" fill="none" stroke="#000000" stroke-width="14.88" stroke-linejoin="bevel" points="9207.9,823.876 9207.9,1163.68" />
<polyline class="BarLine" fill="none" stroke="#000000" stroke-width="14.88" stroke-linejoin="bevel" points="6850.47,2560.1 6850.47,2899.9" />
<polyline class="BarLine" fill="none" stroke="#000000" stroke-width="14.88" stroke-linejoin="bevel" points="4840.61,2560.1 4840.61,2899.9" />
<polyline class="BarLine" fill="none" stroke="#000000" stroke-width="14.88" stroke-linejoin="bevel" points="3049.47,2560.1 3049.47,2899.9" />
<polyline class="BarLine" fill="none" stroke="#000000" stroke-width="14.88" stroke-linejoin="bevel" points="5581.37,823.876 5581.37,1163.68" />
<polyline class="BarLine" fill="none" stroke="#000000" stroke-width="14.88" stroke-linejoin="bevel" points="9207.9,1691.99 9207.9,2031.79" />
<polyline class="BarLine" fill="none" stroke="#000000" stroke-width="14.88" stroke-linejoin="bevel" points="6733.82,823.876 6733.82,1163.68" />
<polyline class="BarLine" fill="none" stroke="#000000" stroke-width="14.88" stroke-linejoin="bevel" points="3124.15,823.876 3124.15,1163.68" />
<polyline class="BarLine" fill="none" stroke="#000000" stroke-width="14.88" stroke-linejoin="bevel" points="7897.47,1691.99 7897.47,2031.79" />
<polyline class="BarLine" fill="none" stroke="#000000" stroke-width="14.88" stroke-linejoin="bevel" points="7932.25,823.876 7932.25,1163.68" />
<path class="Accidental" d="M8598.03,1191.24 L8598.03,1136.96 L8636.42,1126.03 L8636.42,1180.65 L8598.03,1191.24 M8643.7,1098.56 C8643.04,1097.9 8642.05,1097.57 8641.06,1097.57 C8640.73,1097.57 8640.06,1097.9 8639.73,1097.9 L8598.03,1109.48 L8598.03,1051.56 L8588.76,1051.56 L8588.76,1215.4 C8588.76,1218.05 8590.74,1219.71 8593.39,1219.71 L8594.72,1219.71 L8636.42,1208.12 L8636.42,1266.05 L8645.36,1266.05 L8645.36,1102.2 C8645.36,1100.88 8644.7,1099.22 8643.7,1098.56"/>
<path class="Accidental" d="M7288.24,1961.41 L7317.7,1955.45 L7317.7,2010.07 L7288.24,2016.36 L7288.24,1961.41 M7339.54,1951.15 C7341.53,1950.82 7343.19,1948.5 7343.19,1946.52 L7343.19,1926.99 C7343.19,1924.34 7341.2,1922.35 7338.55,1922.35 L7337.89,1922.35 L7326.97,1924.67 L7326.97,1875.35 L7317.7,1875.35 L7317.7,1926.66 L7288.24,1932.61 L7288.24,1885.94 L7278.97,1885.94 L7278.97,1934.6 L7266.06,1937.25 C7264.08,1937.58 7262.42,1939.9 7262.42,1941.88 L7262.42,1961.08 C7262.42,1963.73 7264.41,1965.71 7267.06,1965.71 L7268.05,1965.71 L7278.97,1963.4 L7278.97,2018.01 L7266.06,2020.66 C7264.08,2020.99 7262.42,2023.31 7262.42,2025.29 L7262.42,2044.49 C7262.42,2047.14 7264.41,2049.13 7267.06,2049.13 L7268.05,2049.13 L7278.97,2046.81 L7278.97,2096.13 L7288.24,2096.13 L7288.24,2044.82 L7317.7,2038.86 L7317.7,2085.54 L7326.97,2085.54 L7326.97,2036.88 L7339.54,2034.56 C7341.53,2034.23 7343.19,2031.91 7343.19,2029.93 L7343.19,2010.4 C7343.19,2007.75 7341.2,2005.76 7338.55,2005.76 L7337.89,2005.76 L7326.97,2008.08 L7326.97,1953.47 L7339.54,1951.15 "/>
<polyline class="LedgerLine" fill="none" stroke="#000000" stroke-width="13.23" stroke-linejoin="bevel" points="8895.7,1241.81 9057.76,1241.81" />
<polyline class="Stem" fill="none" stroke="#000000" stroke-width="8.27" stroke-linejoin="bevel" points="3590.96,1972.68 3590.96,1696.53" />
<polyline class="Stem" fill="none" stroke="#000000" stroke-width="8.27" stroke-linejoin="bevel" points="2970.97,1848.66 2970.97,1635.07" />
<polyline class="Stem" fill="none" stroke="#000000" stroke-width="8.27" stroke-linejoin="bevel" points="9026.33,2055.35 9026.33,1779.87" />
<polyline class="Stem" fill="none" stroke="#000000" stroke-width="8.27" stroke-linejoin="bevel" points="4041.8,800.975 4041.8,1076.12" />
<polyline class="Stem" fill="none" stroke="#000000" stroke-width="8.27" stroke-linejoin="bevel" points="6499.01,924.991 6499.01,1200.14" />
<polyline class="Stem" fill="none" stroke="#000000" stroke-width="8.27" stroke-linejoin="bevel" points="3784.8,842.313 3784.8,1117.79" />
<polyline class="Stem" fill="none" stroke="#000000" stroke-width="8.27" stroke-linejoin="bevel" points="3648.37,800.975 3648.37,1138.67" />
<polyline class="Stem" fill="none" stroke="#000000" stroke-width="8.27" stroke-linejoin="bevel" points="4391.53,842.313 4391.53,1138.67" />
<polyline class="Stem" fill="none" stroke="#000000" stroke-width="8.27" stroke-linejoin="bevel" points="4209.42,2758.11 4209.42,2502.64" />
<polyline class="Stem" fill="none" stroke="#000000" stroke-width="8.27" stroke-linejoin="bevel" points="3873.75,2743.89 3873.75,3019.37" />
<polyline class="Stem" fill="none" stroke="#000000" stroke-width="8.27" stroke-linejoin="bevel" points="4527.96,800.975 4527.96,1145.42" />
<polyline class="Stem" fill="none" stroke="#000000" stroke-width="8.27" stroke-linejoin="bevel" points="3637.3,2702.55 3637.3,3019.37" />
<polyline class="Stem" fill="none" stroke="#000000" stroke-width="8.27" stroke-linejoin="bevel" points="4664.39,842.313 4664.39,1152.17" />
<polyline class="Stem" fill="none" stroke="#000000" stroke-width="8.27" stroke-linejoin="bevel" points="3400.85,2826.57 3400.85,3019.37" />
<polyline class="Stem" fill="none" stroke="#000000" stroke-width="8.27" stroke-linejoin="bevel" points="4800.83,924.991 4800.83,1158.93" />
<polyline class="Stem" fill="none" stroke="#000000" stroke-width="8.27" stroke-linejoin="bevel" points="3164.39,2661.21 3164.39,3019.37" />
<polyline class="Stem" fill="none" stroke="#000000" stroke-width="8.27" stroke-linejoin="bevel" points="4937.26,883.652 4937.26,1200.68" />
<polyline class="Stem" fill="none" stroke="#000000" stroke-width="8.27" stroke-linejoin="bevel" points="4955.53,2743.89 4955.53,2957" />
<polyline class="Stem" fill="none" stroke="#000000" stroke-width="8.27" stroke-linejoin="bevel" points="3511.94,842.313 3511.94,1145.42" />
<polyline class="Stem" fill="none" stroke="#000000" stroke-width="8.27" stroke-linejoin="bevel" points="5073.69,924.991 5073.69,1207.43" />
<polyline class="Stem" fill="none" stroke="#000000" stroke-width="8.27" stroke-linejoin="bevel" points="2809.71,2661.21 2809.71,2936.36" />
<polyline class="Stem" fill="none" stroke="#000000" stroke-width="8.27" stroke-linejoin="bevel" points="5210.12,966.329 5210.12,1214.18" />
<polyline class="Stem" fill="none" stroke="#000000" stroke-width="8.27" stroke-linejoin="bevel" points="4136.21,1834.44 4136.21,2130.59" />
<polyline class="Stem" fill="none" stroke="#000000" stroke-width="8.27" stroke-linejoin="bevel" points="5346.55,1007.67 5346.55,1220.94" />
<polyline class="Stem" fill="none" stroke="#000000" stroke-width="8.27" stroke-linejoin="bevel" points="2360.09,2619.87 2360.09,2895.35" />
<polyline class="Stem" fill="none" stroke="#000000" stroke-width="8.27" stroke-linejoin="bevel" points="5191.99,2661.21 5191.99,2936.57" />
<polyline class="Stem" fill="none" stroke="#000000" stroke-width="8.27" stroke-linejoin="bevel" points="3375.51,883.652 3375.51,1152.17" />
<polyline class="Stem" fill="none" stroke="#000000" stroke-width="8.27" stroke-linejoin="bevel" points="5696.29,1049.01 5696.29,1262.07" />
<polyline class="Stem" fill="none" stroke="#000000" stroke-width="8.27" stroke-linejoin="bevel" points="2222.85,2799.45 2222.85,2502.64" />
<polyline class="Stem" fill="none" stroke="#000000" stroke-width="8.27" stroke-linejoin="bevel" points="1986.39,2716.77 1986.39,2502.64" />
<polyline class="Stem" fill="none" stroke="#000000" stroke-width="8.27" stroke-linejoin="bevel" points="5832.72,1007.67 5832.72,1248.56" />
<polyline class="Stem" fill="none" stroke="#000000" stroke-width="8.27" stroke-linejoin="bevel" points="1749.94,2758.11 1749.94,2502.64" />
<polyline class="Stem" fill="none" stroke="#000000" stroke-width="8.27" stroke-linejoin="bevel" points="5969.15,966.329 5969.15,1235.06" />
<polyline class="Stem" fill="none" stroke="#000000" stroke-width="8.27" stroke-linejoin="bevel" points="1513.48,2799.45 1513.48,2502.64" />
<polyline class="Stem" fill="none" stroke="#000000" stroke-width="8.27" stroke-linejoin="bevel" points="6105.58,924.991 6105.58,1221.55" />
<polyline class="Stem" fill="none" stroke="#000000" stroke-width="8.27" stroke-linejoin="bevel" points="5428.44,2702.55 5428.44,2916.14" />
<polyline class="Stem" fill="none" stroke="#000000" stroke-width="8.27" stroke-linejoin="bevel" points="6242.01,966.329 6242.01,1221.14" />
<polyline class="Stem" fill="none" stroke="#000000" stroke-width="8.27" stroke-linejoin="bevel" points="5664.9,2619.87 5664.9,2895.71" />
<polyline class="Stem" fill="none" stroke="#000000" stroke-width="8.27" stroke-linejoin="bevel" points="3435.96,1972.68 3435.96,1695.99" />
<polyline class="Stem" fill="none" stroke="#000000" stroke-width="8.27" stroke-linejoin="bevel" points="3786.47,1834.44 3786.47,2088.92" />
<polyline class="Stem" fill="none" stroke="#000000" stroke-width="8.27" stroke-linejoin="bevel" points="8181.45,2743.89 8181.45,2978.03" />
<polyline class="Stem" fill="none" stroke="#000000" stroke-width="8.27" stroke-linejoin="bevel" points="4291.21,1917.12 4291.21,2130.59" />
<polyline class="Stem" fill="none" stroke="#000000" stroke-width="8.27" stroke-linejoin="bevel" points="3239.08,924.991 3239.08,1158.93" />
<polyline class="Stem" fill="none" stroke="#000000" stroke-width="8.27" stroke-linejoin="bevel" points="5901.35,2661.21 5901.35,2895.23" />
<polyline class="Stem" fill="none" stroke="#000000" stroke-width="8.27" stroke-linejoin="bevel" points="6848.74,883.652 6848.74,1200.68" />
<polyline class="Stem" fill="none" stroke="#000000" stroke-width="8.27" stroke-linejoin="bevel" points="8731.6,1931.34 8731.6,1655.2" />
<polyline class="Stem" fill="none" stroke="#000000" stroke-width="8.27" stroke-linejoin="bevel" points="8576.6,1931.34 8576.6,1654.65" />
<polyline class="Stem" fill="none" stroke="#000000" stroke-width="8.27" stroke-linejoin="bevel" points="6985.17,924.991 6985.17,1207.43" />
<polyline class="Stem" fill="none" stroke="#000000" stroke-width="8.27" stroke-linejoin="bevel" points="8421.6,1890 8421.6,1634.35" />
<polyline class="Stem" fill="none" stroke="#000000" stroke-width="8.27" stroke-linejoin="bevel" points="7121.61,966.329 7121.61,1214.18" />
<polyline class="Stem" fill="none" stroke="#000000" stroke-width="8.27" stroke-linejoin="bevel" points="8266.61,1848.66 8266.61,1614.04" />
<polyline class="Stem" fill="none" stroke="#000000" stroke-width="8.27" stroke-linejoin="bevel" points="7258.04,1007.67 7258.04,1220.94" />
<polyline class="Stem" fill="none" stroke="#000000" stroke-width="8.27" stroke-linejoin="bevel" points="8111.61,1807.32 8111.61,1593.73" />
<polyline class="Stem" fill="none" stroke="#000000" stroke-width="8.27" stroke-linejoin="bevel" points="7493.68,1021.89 7493.68,766.416" />
<polyline class="Stem" fill="none" stroke="#000000" stroke-width="8.27" stroke-linejoin="bevel" points="2889.34,1007.67 2889.34,1220.55" />
<polyline class="Stem" fill="none" stroke="#000000" stroke-width="8.27" stroke-linejoin="bevel" points="6137.8,2578.53 6137.8,2888.42" />
<polyline class="Stem" fill="none" stroke="#000000" stroke-width="8.27" stroke-linejoin="bevel" points="3280.96,1931.34 3280.96,1675.68" />
<polyline class="Stem" fill="none" stroke="#000000" stroke-width="8.27" stroke-linejoin="bevel" points="7750.68,1021.89 7750.68,767.077" />
<polyline class="Stem" fill="none" stroke="#000000" stroke-width="8.27" stroke-linejoin="bevel" points="7662.66,1793.1 7662.66,2068.25" />
<polyline class="Stem" fill="none" stroke="#000000" stroke-width="8.27" stroke-linejoin="bevel" points="6374.26,2537.2 6374.26,2881.61" />
<polyline class="Stem" fill="none" stroke="#000000" stroke-width="8.27" stroke-linejoin="bevel" points="2752.91,966.329 2752.91,1201.06" />
<polyline class="Stem" fill="none" stroke="#000000" stroke-width="8.27" stroke-linejoin="bevel" points="8146.38,980.55 8146.38,766.62" />
<polyline class="Stem" fill="none" stroke="#000000" stroke-width="8.27" stroke-linejoin="bevel" points="4446.21,1834.44 4446.21,2130.59" />
<polyline class="Stem" fill="none" stroke="#000000" stroke-width="8.27" stroke-linejoin="bevel" points="6610.71,2578.53 6610.71,2874.8" />
<polyline class="Stem" fill="none" stroke="#000000" stroke-width="8.27" stroke-linejoin="bevel" points="8282.81,1021.89 8282.81,773.374" />
<polyline class="Stem" fill="none" stroke="#000000" stroke-width="8.27" stroke-linejoin="bevel" points="7467.14,1972.68 7467.14,1696.53" />
<polyline class="Stem" fill="none" stroke="#000000" stroke-width="8.27" stroke-linejoin="bevel" points="8419.24,1063.23 8419.24,780.127" />
<polyline class="Stem" fill="none" stroke="#000000" stroke-width="8.27" stroke-linejoin="bevel" points="7130.12,1917.12 7130.12,2151.26" />
<polyline class="Stem" fill="none" stroke="#000000" stroke-width="8.27" stroke-linejoin="bevel" points="8555.67,1104.57 8555.67,786.88" />
<polyline class="Stem" fill="none" stroke="#000000" stroke-width="8.27" stroke-linejoin="bevel" points="6975.13,1834.44 6975.13,2151.26" />
<polyline class="Stem" fill="none" stroke="#000000" stroke-width="8.27" stroke-linejoin="bevel" points="8769.33,1145.9 8769.33,869.762" />
<polyline class="Stem" fill="none" stroke="#000000" stroke-width="8.27" stroke-linejoin="bevel" points="6820.13,1958.46 6820.13,2151.26" />
<polyline class="Stem" fill="none" stroke="#000000" stroke-width="8.27" stroke-linejoin="bevel" points="2550.18,924.991 2550.18,1200.47" />
<polyline class="Stem" fill="none" stroke="#000000" stroke-width="8.27" stroke-linejoin="bevel" points="6665.13,1751.76 6665.13,2151.26" />
<polyline class="Stem" fill="none" stroke="#000000" stroke-width="8.27" stroke-linejoin="bevel" points="3125.96,1890 3125.96,1655.38" />
<polyline class="Stem" fill="none" stroke="#000000" stroke-width="8.27" stroke-linejoin="bevel" points="9026.33,1228.58 9026.33,953.101" />
<polyline class="Stem" fill="none" stroke="#000000" stroke-width="8.27" stroke-linejoin="bevel" points="2413.74,966.329 2413.74,1262.48" />
<polyline class="Stem" fill="none" stroke="#000000" stroke-width="8.27" stroke-linejoin="bevel" points="2277.31,1007.67 2277.31,1262.48" />
<polyline class="Stem" fill="none" stroke="#000000" stroke-width="8.27" stroke-linejoin="bevel" points="6965.4,2619.87 6965.4,2895.63" />
<polyline class="Stem" fill="none" stroke="#000000" stroke-width="8.27" stroke-linejoin="bevel" points="2140.88,1049.01 2140.88,1262.48" />
<polyline class="Stem" fill="none" stroke="#000000" stroke-width="8.27" stroke-linejoin="bevel" points="7269.41,2661.21 7269.41,2916.11" />
<polyline class="Stem" fill="none" stroke="#000000" stroke-width="8.27" stroke-linejoin="bevel" points="6315.39,1793.1 6315.39,2068.25" />
<polyline class="Stem" fill="none" stroke="#000000" stroke-width="8.27" stroke-linejoin="bevel" points="1513.48,1972.68 1513.48,1695.99" />
<polyline class="Stem" fill="none" stroke="#000000" stroke-width="8.27" stroke-linejoin="bevel" points="4601.21,1917.12 4601.21,2130.59" />
<polyline class="Stem" fill="none" stroke="#000000" stroke-width="8.27" stroke-linejoin="bevel" points="6020.66,1875.78 6020.66,2109.92" />
<polyline class="Stem" fill="none" stroke="#000000" stroke-width="8.27" stroke-linejoin="bevel" points="1668.48,1890 1668.48,1675.68" />
<polyline class="Stem" fill="none" stroke="#000000" stroke-width="8.27" stroke-linejoin="bevel" points="5865.67,1793.1 5865.67,2027.24" />
<polyline class="Stem" fill="none" stroke="#000000" stroke-width="8.27" stroke-linejoin="bevel" points="1823.48,1931.34 1823.48,1655.38" />
<polyline class="Stem" fill="none" stroke="#000000" stroke-width="8.27" stroke-linejoin="bevel" points="5710.67,1710.42 5710.67,2027.24" />
<polyline class="Stem" fill="none" stroke="#000000" stroke-width="8.27" stroke-linejoin="bevel" points="1978.48,1848.66 1978.48,1635.07" />
<polyline class="Stem" fill="none" stroke="#000000" stroke-width="8.27" stroke-linejoin="bevel" points="5555.67,1793.1 5555.67,2027.24" />
<polyline class="Stem" fill="none" stroke="#000000" stroke-width="8.27" stroke-linejoin="bevel" points="2057.02,1917.12 2057.02,2130.23" />
<polyline class="Stem" fill="none" stroke="#000000" stroke-width="8.27" stroke-linejoin="bevel" points="5400.67,1710.42 5400.67,2027.24" />
<polyline class="Stem" fill="none" stroke="#000000" stroke-width="8.27" stroke-linejoin="bevel" points="7573.42,2702.55 7573.42,2936.6" />
<polyline class="Stem" fill="none" stroke="#000000" stroke-width="8.27" stroke-linejoin="bevel" points="2212.02,1834.44 2212.02,2116.69" />
<polyline class="Stem" fill="none" stroke="#000000" stroke-width="8.27" stroke-linejoin="bevel" points="2004.45,1007.67 2004.45,1262.48" />
<polyline class="Stem" fill="none" stroke="#000000" stroke-width="8.27" stroke-linejoin="bevel" points="2367.02,1751.76 2367.02,2103.15" />
<polyline class="Stem" fill="none" stroke="#000000" stroke-width="8.27" stroke-linejoin="bevel" points="5050.93,1710.42 5050.93,1985.57" />
<polyline class="Stem" fill="none" stroke="#000000" stroke-width="8.27" stroke-linejoin="bevel" points="2522.01,1834.44 2522.01,2089.61" />
<polyline class="Stem" fill="none" stroke="#000000" stroke-width="8.27" stroke-linejoin="bevel" points="4855.42,1972.68 4855.42,1696.53" />
<polyline class="Stem" fill="none" stroke="#000000" stroke-width="8.27" stroke-linejoin="bevel" points="7877.43,2743.89 7877.43,2957.08" />
<polyline class="Stem" fill="none" stroke="#000000" stroke-width="8.27" stroke-linejoin="bevel" points="1707.96,1104.57 1707.96,829.085" />
<polyline class="Stem" fill="none" stroke="#000000" stroke-width="8.27" stroke-linejoin="bevel" points="4659.04,2840.79 4659.04,2565.31" />
<path class="Hook" d="M5046.8,1985.57 C5046.8,1987.89 5048.79,1989.88 5051.1,1989.88 C5052.76,1989.88 5054.74,1988.55 5055.07,1987.23 C5055.07,1986.9 5058.05,1975.31 5058.38,1974.32 C5058.72,1973 5061.69,1960.42 5073.61,1940.89 C5086.52,1919.37 5106.38,1903.82 5122.93,1880.65 C5139.15,1857.48 5149.08,1835.63 5149.08,1806.5 C5149.08,1776.38 5142.13,1751.23 5124.58,1719.12 C5123.59,1716.8 5121.61,1715.48 5119.62,1715.48 C5118.96,1715.48 5118.3,1715.48 5117.96,1715.81 C5116.31,1716.47 5115.65,1717.79 5115.65,1719.78 C5115.65,1720.77 5115.98,1722.43 5116.64,1723.75 C5129.88,1754.54 5135.18,1772.08 5135.18,1795.91 C5135.18,1823.38 5125.58,1837.62 5119.62,1847.88 C5098.1,1884.62 5063.35,1902.49 5049.45,1907.13 C5047.13,1908.12 5046.8,1909.77 5046.8,1910.77 L5046.8,1985.57 "/>
<path class="Hook" d="M6311.26,2068.25 C6311.26,2070.57 6313.25,2072.55 6315.56,2072.55 C6317.22,2072.55 6319.2,2071.23 6319.53,2069.91 C6319.53,2069.57 6322.51,2057.99 6322.84,2057 C6323.18,2055.67 6326.15,2043.09 6338.07,2023.57 C6350.98,2002.05 6370.84,1986.49 6387.39,1963.32 C6403.61,1940.15 6413.54,1918.31 6413.54,1889.18 C6413.54,1859.06 6406.59,1833.9 6389.04,1801.8 C6388.05,1799.48 6386.07,1798.15 6384.08,1798.15 C6383.42,1798.15 6382.76,1798.15 6382.42,1798.49 C6380.77,1799.15 6380.11,1800.47 6380.11,1802.46 C6380.11,1803.45 6380.44,1805.11 6381.1,1806.43 C6394.34,1837.21 6399.64,1854.76 6399.64,1878.59 C6399.64,1906.06 6390.04,1920.29 6384.08,1930.55 C6362.56,1967.3 6327.81,1985.17 6313.91,1989.8 C6311.59,1990.8 6311.26,1992.45 6311.26,1993.44 L6311.26,2068.25 "/>
<path class="Hook" d="M9022.2,1027.58 C9022.2,1028.57 9022.53,1030.22 9024.84,1031.22 C9039.08,1035.85 9067.54,1053.73 9089.06,1090.47 C9095.02,1100.73 9104.61,1114.96 9104.61,1142.43 C9104.61,1166.27 9098.33,1190.76 9089.72,1214.59 C9089.06,1216.58 9088.4,1218.23 9088.73,1219.56 C9088.73,1221.54 9090.05,1222.87 9092.04,1222.87 C9094.35,1222.87 9096.01,1221.54 9097.33,1219.23 C9112.23,1192.75 9117.85,1161.96 9117.85,1131.84 C9116.2,1089.14 9091.71,1057.7 9091.71,1057.7 C9092.7,1057.7 9061.25,1016.98 9052.32,1003.08 C9040.07,984.215 9034.44,965.348 9033.78,964.024 C9033.45,963.031 9030.47,951.115 9030.47,951.115 C9030.14,949.791 9028.48,948.467 9026.5,948.467 C9024.18,948.467 9022.2,950.453 9022.2,952.77 L9022.2,1027.58 "/>
<path class="Hook" d="M7658.52,2068.25 C7658.52,2070.57 7660.51,2072.55 7662.83,2072.55 C7664.48,2072.55 7666.47,2071.23 7666.8,2069.91 C7666.8,2069.57 7669.78,2057.99 7670.11,2057 C7670.44,2055.67 7673.42,2043.09 7685.33,2023.57 C7698.24,2002.05 7718.1,1986.49 7734.65,1963.32 C7750.87,1940.15 7760.8,1918.31 7760.8,1889.18 C7760.8,1859.06 7753.85,1833.9 7736.31,1801.8 C7735.32,1799.48 7733.33,1798.15 7731.34,1798.15 C7730.68,1798.15 7730.02,1798.15 7729.69,1798.49 C7728.03,1799.15 7727.37,1800.47 7727.37,1802.46 C7727.37,1803.45 7727.7,1805.11 7728.36,1806.43 C7741.6,1837.21 7746.9,1854.76 7746.9,1878.59 C7746.9,1906.06 7737.3,1920.29 7731.34,1930.55 C7709.83,1967.3 7675.07,1985.17 7661.17,1989.8 C7658.85,1990.8 7658.52,1992.45 7658.52,1993.44 L7658.52,2068.25 "/>
<path class="Hook" d="M7746.54,841.553 C7746.54,842.546 7746.87,844.201 7749.19,845.194 C7763.42,849.828 7791.89,867.702 7813.4,904.443 C7819.36,914.704 7828.96,928.937 7828.96,956.41 C7828.96,980.242 7822.67,1004.74 7814.07,1028.57 C7813.4,1030.55 7812.74,1032.21 7813.07,1033.53 C7813.07,1035.52 7814.4,1036.84 7816.38,1036.84 C7818.7,1036.84 7820.36,1035.52 7821.68,1033.2 C7836.57,1006.72 7842.2,975.939 7842.2,945.818 C7840.55,903.119 7816.05,871.674 7816.05,871.674 C7817.05,871.674 7785.6,830.961 7776.66,817.059 C7764.42,798.192 7758.79,779.325 7758.13,778.001 C7757.8,777.008 7754.82,765.092 7754.82,765.092 C7754.49,763.768 7752.83,762.444 7750.85,762.444 C7748.53,762.444 7746.54,764.43 7746.54,766.747 L7746.54,841.553 "/>
<path class="Hook" d="M9022.2,1854.35 C9022.2,1855.34 9022.53,1857 9024.84,1857.99 C9039.08,1862.62 9067.54,1880.5 9089.06,1917.24 C9095.02,1927.5 9104.61,1941.73 9104.61,1969.21 C9104.61,1993.04 9098.33,2017.53 9089.72,2041.36 C9089.06,2043.35 9088.4,2045 9088.73,2046.33 C9088.73,2048.31 9090.05,2049.64 9092.04,2049.64 C9094.35,2049.64 9096.01,2048.31 9097.33,2046 C9112.23,2019.52 9117.85,1988.73 9117.85,1958.61 C9116.2,1915.91 9091.71,1884.47 9091.71,1884.47 C9092.7,1884.47 9061.25,1843.76 9052.32,1829.85 C9040.07,1810.99 9034.44,1792.12 9033.78,1790.8 C9033.45,1789.8 9030.47,1777.89 9030.47,1777.89 C9030.14,1776.56 9028.48,1775.24 9026.5,1775.24 C9024.18,1775.24 9022.2,1777.23 9022.2,1779.54 L9022.2,1854.35 "/>
<path class="Hook" d="M1703.83,903.561 C1703.83,904.554 1704.16,906.209 1706.47,907.202 C1720.71,911.836 1749.17,929.71 1770.69,966.451 C1776.65,976.712 1786.24,990.945 1786.24,1018.42 C1786.24,1042.25 1779.96,1066.74 1771.35,1090.58 C1770.69,1092.56 1770.03,1094.22 1770.36,1095.54 C1770.36,1097.53 1771.68,1098.85 1773.67,1098.85 C1775.98,1098.85 1777.64,1097.53 1778.96,1095.21 C1793.86,1068.73 1799.48,1037.95 1799.48,1007.83 C1797.83,965.127 1773.34,933.682 1773.34,933.682 C1774.33,933.682 1742.88,892.969 1733.95,879.067 C1721.7,860.2 1716.07,841.333 1715.41,840.009 C1715.08,839.016 1712.1,827.1 1712.1,827.1 C1711.77,825.776 1710.11,824.452 1708.13,824.452 C1705.81,824.452 1703.83,826.438 1703.83,828.755 L1703.83,903.561 "/>
<path class="Hook" d="M6494.87,1200.14 C6494.87,1202.46 6496.86,1204.44 6499.18,1204.44 C6500.83,1204.44 6502.82,1203.12 6503.15,1201.79 C6503.15,1201.46 6506.13,1189.88 6506.46,1188.89 C6506.79,1187.56 6509.77,1174.98 6521.68,1155.45 C6534.59,1133.94 6554.45,1118.38 6571,1095.21 C6587.22,1072.04 6597.15,1050.2 6597.15,1021.07 C6597.15,990.948 6590.2,965.792 6572.66,933.685 C6571.66,931.368 6569.68,930.044 6567.69,930.044 C6567.03,930.044 6566.37,930.044 6566.04,930.375 C6564.38,931.037 6563.72,932.361 6563.72,934.347 C6563.72,935.34 6564.05,936.995 6564.71,938.319 C6577.95,969.102 6583.25,986.645 6583.25,1010.48 C6583.25,1037.95 6573.65,1052.18 6567.69,1062.44 C6546.18,1099.18 6511.42,1117.06 6497.52,1121.69 C6495.2,1122.69 6494.87,1124.34 6494.87,1125.33 L6494.87,1200.14 "/>
<path class="Hook" d="M2805.57,2936.36 C2805.57,2938.68 2807.56,2940.66 2809.88,2940.66 C2811.53,2940.66 2813.52,2939.34 2813.85,2938.02 C2813.85,2937.68 2816.83,2926.1 2817.16,2925.11 C2817.49,2923.78 2820.47,2911.2 2832.39,2891.68 C2845.29,2870.16 2865.15,2854.6 2881.7,2831.43 C2897.92,2808.26 2907.85,2786.42 2907.85,2757.29 C2907.85,2727.17 2900.9,2702.01 2883.36,2669.91 C2882.37,2667.59 2880.38,2666.26 2878.39,2666.26 C2877.73,2666.26 2877.07,2666.26 2876.74,2666.6 C2875.08,2667.26 2874.42,2668.58 2874.42,2670.57 C2874.42,2671.56 2874.75,2673.22 2875.42,2674.54 C2888.66,2705.32 2893.95,2722.87 2893.95,2746.7 C2893.95,2774.17 2884.35,2788.4 2878.39,2798.66 C2856.88,2835.41 2822.12,2853.28 2808.22,2857.91 C2805.91,2858.91 2805.57,2860.56 2805.57,2861.55 L2805.57,2936.36 "/>
<path class="Hook" d="M4654.91,2639.78 C4654.91,2640.77 4655.24,2642.43 4657.55,2643.42 C4671.79,2648.06 4700.25,2665.93 4721.77,2702.67 C4727.73,2712.93 4737.33,2727.17 4737.33,2754.64 C4737.33,2778.47 4731.04,2802.96 4722.43,2826.8 C4721.77,2828.78 4721.11,2830.44 4721.44,2831.76 C4721.44,2833.75 4722.76,2835.07 4724.75,2835.07 C4727.06,2835.07 4728.72,2833.75 4730.04,2831.43 C4744.94,2804.95 4750.57,2774.17 4750.57,2744.05 C4748.91,2701.35 4724.42,2669.9 4724.42,2669.9 C4725.41,2669.9 4693.96,2629.19 4685.03,2615.29 C4672.78,2596.42 4667.15,2577.55 4666.49,2576.23 C4666.16,2575.24 4663.18,2563.32 4663.18,2563.32 C4662.85,2562 4661.2,2560.67 4659.21,2560.67 C4656.89,2560.67 4654.91,2562.66 4654.91,2564.98 L4654.91,2639.78 "/>
<path class="Hook" d="M4037.66,1076.12 C4037.66,1078.44 4039.65,1080.43 4041.96,1080.43 C4043.62,1080.43 4045.61,1079.1 4045.94,1077.78 C4045.94,1077.45 4048.92,1065.86 4049.25,1064.87 C4049.58,1063.55 4052.56,1050.97 4064.47,1031.44 C4077.38,1009.92 4097.24,994.367 4113.79,971.197 C4130.01,948.027 4139.94,926.181 4139.94,897.053 C4139.94,866.932 4132.99,841.776 4115.45,809.669 C4114.45,807.352 4112.47,806.028 4110.48,806.028 C4109.82,806.028 4109.16,806.028 4108.83,806.359 C4107.17,807.021 4106.51,808.345 4106.51,810.331 C4106.51,811.324 4106.84,812.979 4107.5,814.303 C4120.74,845.086 4126.04,862.629 4126.04,886.461 C4126.04,913.934 4116.44,928.167 4110.48,938.428 C4088.97,975.169 4054.21,993.043 4040.31,997.677 C4037.99,998.67 4037.66,1000.33 4037.66,1001.32 L4037.66,1076.12 "/>
<path class="Hook" d="M3782.34,2088.92 C3782.34,2091.24 3784.33,2093.22 3786.64,2093.22 C3788.3,2093.22 3790.28,2091.9 3790.62,2090.57 C3790.62,2090.24 3793.59,2078.66 3793.93,2077.67 C3794.26,2076.34 3797.24,2063.76 3809.15,2044.23 C3822.06,2022.72 3841.92,2007.16 3858.47,1983.99 C3874.69,1960.82 3884.62,1938.98 3884.62,1909.85 C3884.62,1879.73 3877.67,1854.57 3860.13,1822.46 C3859.13,1820.15 3857.15,1818.82 3855.16,1818.82 C3854.5,1818.82 3853.84,1818.82 3853.51,1819.15 C3851.85,1819.82 3851.19,1821.14 3851.19,1823.13 C3851.19,1824.12 3851.52,1825.77 3852.18,1827.1 C3865.42,1857.88 3870.72,1875.42 3870.72,1899.26 C3870.72,1926.73 3861.12,1940.96 3855.16,1951.22 C3833.65,1987.96 3798.89,2005.84 3784.99,2010.47 C3782.67,2011.47 3782.34,2013.12 3782.34,2014.11 L3782.34,2088.92 "/>
<path class="Note" d="M8177.31,2743.9 C8177.31,2758.13 8187.57,2774.02 8214.38,2774.02 C8248.81,2774.02 8284.89,2745.89 8284.89,2716.76 C8284.89,2697.23 8268.34,2686.31 8247.82,2686.31 C8215.71,2686.31 8177.31,2713.45 8177.31,2743.9"/>
<path class="Note" d="M4106.07,2785.24 C4106.07,2799.47 4116.34,2815.36 4143.15,2815.36 C4177.57,2815.36 4213.65,2787.23 4213.65,2758.1 C4213.65,2738.57 4197.1,2727.65 4176.58,2727.65 C4144.47,2727.65 4106.07,2754.79 4106.07,2785.24"/>
<path class="Note" d="M8922.98,2082.48 C8922.98,2096.72 8933.24,2112.6 8960.05,2112.6 C8994.48,2112.6 9030.56,2084.47 9030.56,2055.34 C9030.56,2035.81 9014.01,2024.89 8993.49,2024.89 C8961.38,2024.89 8922.98,2052.03 8922.98,2082.48"/>
<path class="Note" d="M3487.61,1999.81 C3487.61,2014.04 3497.87,2029.93 3524.68,2029.93 C3559.11,2029.93 3595.19,2001.79 3595.19,1972.66 C3595.19,1953.14 3578.64,1942.21 3558.11,1942.21 C3526.01,1942.21 3487.61,1969.35 3487.61,1999.81"/>
<path class="Note" d="M3332.61,1999.81 C3332.61,2014.04 3342.87,2029.93 3369.68,2029.93 C3404.11,2029.93 3440.19,2001.79 3440.19,1972.66 C3440.19,1953.14 3423.64,1942.21 3403.12,1942.21 C3371.01,1942.21 3332.61,1969.35 3332.61,1999.81"/>
<path class="Note" d="M4132.08,1834.45 C4132.08,1848.68 4142.34,1864.57 4169.15,1864.57 C4203.57,1864.57 4239.65,1836.44 4239.65,1807.31 C4239.65,1787.78 4223.1,1776.86 4202.58,1776.86 C4170.47,1776.86 4132.08,1804 4132.08,1834.45"/>
<path class="Note" d="M7873.3,2743.9 C7873.3,2758.13 7883.56,2774.02 7910.37,2774.02 C7944.8,2774.02 7980.87,2745.89 7980.87,2716.76 C7980.87,2697.23 7964.32,2686.31 7943.8,2686.31 C7911.7,2686.31 7873.3,2713.45 7873.3,2743.9"/>
<path class="Note" d="M3177.61,1958.47 C3177.61,1972.7 3187.88,1988.59 3214.69,1988.59 C3249.11,1988.59 3285.19,1960.45 3285.19,1931.33 C3285.19,1911.8 3268.64,1900.87 3248.12,1900.87 C3216.01,1900.87 3177.61,1928.02 3177.61,1958.47"/>
<path class="Note" d="M4287.08,1917.13 C4287.08,1931.36 4297.34,1947.25 4324.15,1947.25 C4358.57,1947.25 4394.65,1919.11 4394.65,1889.99 C4394.65,1870.46 4378.1,1859.53 4357.58,1859.53 C4325.47,1859.53 4287.08,1886.68 4287.08,1917.13"/>
<path class="Note" d="M3022.62,1917.13 C3022.62,1931.36 3032.88,1947.25 3059.69,1947.25 C3094.11,1947.25 3130.19,1919.11 3130.19,1889.99 C3130.19,1870.46 3113.64,1859.53 3093.12,1859.53 C3061.01,1859.53 3022.62,1886.68 3022.62,1917.13"/>
<path class="Note" d="M4442.07,1834.45 C4442.07,1848.68 4452.34,1864.57 4479.15,1864.57 C4513.57,1864.57 4549.65,1836.44 4549.65,1807.31 C4549.65,1787.78 4533.1,1776.86 4512.58,1776.86 C4480.47,1776.86 4442.07,1804 4442.07,1834.45"/>
<path class="Note" d="M1604.61,1131.7 C1604.61,1145.93 1614.87,1161.82 1641.69,1161.82 C1676.11,1161.82 1712.19,1133.68 1712.19,1104.55 C1712.19,1085.02 1695.64,1074.1 1675.12,1074.1 C1643.01,1074.1 1604.61,1101.24 1604.61,1131.7"/>
<path class="Note" d="M4597.07,1917.13 C4597.07,1931.36 4607.33,1947.25 4634.14,1947.25 C4668.57,1947.25 4704.65,1919.11 4704.65,1889.99 C4704.65,1870.46 4688.1,1859.53 4667.58,1859.53 C4635.47,1859.53 4597.07,1886.68 4597.07,1917.13"/>
<path class="Note" d="M2867.62,1875.79 C2867.62,1890.02 2877.88,1905.91 2904.69,1905.91 C2939.11,1905.91 2975.19,1877.78 2975.19,1848.65 C2975.19,1829.12 2958.64,1818.2 2938.12,1818.2 C2906.01,1818.2 2867.62,1845.34 2867.62,1875.79"/>
<path class="Note" d="M4752.07,1999.81 C4752.07,2014.04 4762.33,2029.93 4789.14,2029.93 C4823.57,2029.93 4859.64,2001.79 4859.64,1972.66 C4859.64,1953.14 4843.09,1942.21 4822.57,1942.21 C4790.47,1942.21 4752.07,1969.35 4752.07,1999.81"/>
<path class="Note" d="M7569.29,2702.56 C7569.29,2716.79 7579.55,2732.68 7606.36,2732.68 C7640.78,2732.68 7676.86,2704.55 7676.86,2675.42 C7676.86,2655.89 7660.31,2644.97 7639.79,2644.97 C7607.68,2644.97 7569.29,2672.11 7569.29,2702.56"/>
<path class="Note" d="M2517.88,1834.45 C2517.88,1848.68 2528.14,1864.57 2554.95,1864.57 C2589.38,1864.57 2625.46,1836.44 2625.46,1807.31 C2625.46,1787.78 2608.91,1776.86 2588.38,1776.86 C2556.28,1776.86 2517.88,1804 2517.88,1834.45"/>
<path class="Note" d="M2362.88,1751.77 C2362.88,1766.01 2373.14,1781.9 2399.96,1781.9 C2434.38,1781.9 2470.46,1753.76 2470.46,1724.63 C2470.46,1705.1 2453.91,1694.18 2433.39,1694.18 C2401.28,1694.18 2362.88,1721.32 2362.88,1751.77"/>
<path class="Note" d="M5046.8,1710.44 C5046.8,1724.67 5057.06,1740.56 5083.87,1740.56 C5118.3,1740.56 5154.37,1712.42 5154.37,1683.29 C5154.37,1663.76 5137.82,1652.84 5117.3,1652.84 C5085.2,1652.84 5046.8,1679.98 5046.8,1710.44"/>
<path class="Note" d="M2207.89,1834.45 C2207.89,1848.68 2218.15,1864.57 2244.96,1864.57 C2279.38,1864.57 2315.46,1836.44 2315.46,1807.31 C2315.46,1787.78 2298.91,1776.86 2278.39,1776.86 C2246.28,1776.86 2207.89,1804 2207.89,1834.45"/>
<path class="Note" d="M2000.32,1007.68 C2000.32,1021.91 2010.58,1037.8 2037.39,1037.8 C2071.81,1037.8 2107.89,1009.67 2107.89,980.538 C2107.89,961.009 2091.34,950.086 2070.82,950.086 C2038.71,950.086 2000.32,977.228 2000.32,1007.68"/>
<path class="Note" d="M2052.89,1917.13 C2052.89,1931.36 2063.15,1947.25 2089.96,1947.25 C2124.38,1947.25 2160.46,1919.11 2160.46,1889.99 C2160.46,1870.46 2143.91,1859.53 2123.39,1859.53 C2091.28,1859.53 2052.89,1886.68 2052.89,1917.13"/>
<path class="Note" d="M5396.54,1710.44 C5396.54,1724.67 5406.8,1740.56 5433.61,1740.56 C5468.03,1740.56 5504.11,1712.42 5504.11,1683.29 C5504.11,1663.76 5487.56,1652.84 5467.04,1652.84 C5434.93,1652.84 5396.54,1679.98 5396.54,1710.44"/>
<path class="Note" d="M7265.27,2661.22 C7265.27,2675.46 7275.54,2691.34 7302.35,2691.34 C7336.77,2691.34 7372.85,2663.21 7372.85,2634.08 C7372.85,2614.55 7356.3,2603.63 7335.78,2603.63 C7303.67,2603.63 7265.27,2630.77 7265.27,2661.22"/>
<path class="Note" d="M1875.13,1875.79 C1875.13,1890.02 1885.39,1905.91 1912.2,1905.91 C1946.63,1905.91 1982.71,1877.78 1982.71,1848.65 C1982.71,1829.12 1966.16,1818.2 1945.63,1818.2 C1913.53,1818.2 1875.13,1845.34 1875.13,1875.79"/>
<path class="Note" d="M5551.54,1793.11 C5551.54,1807.35 5561.8,1823.23 5588.61,1823.23 C5623.03,1823.23 5659.11,1795.1 5659.11,1765.97 C5659.11,1746.44 5642.56,1735.52 5622.04,1735.52 C5589.93,1735.52 5551.54,1762.66 5551.54,1793.11"/>
<path class="Note" d="M1720.13,1958.47 C1720.13,1972.7 1730.39,1988.59 1757.21,1988.59 C1791.63,1988.59 1827.71,1960.45 1827.71,1931.33 C1827.71,1911.8 1811.16,1900.87 1790.64,1900.87 C1758.53,1900.87 1720.13,1928.02 1720.13,1958.47"/>
<path class="Note" d="M5706.53,1710.44 C5706.53,1724.67 5716.79,1740.56 5743.61,1740.56 C5778.03,1740.56 5814.11,1712.42 5814.11,1683.29 C5814.11,1663.76 5797.56,1652.84 5777.04,1652.84 C5744.93,1652.84 5706.53,1679.98 5706.53,1710.44"/>
<path class="Note" d="M1565.14,1917.13 C1565.14,1931.36 1575.4,1947.25 1602.21,1947.25 C1636.63,1947.25 1672.71,1919.11 1672.71,1889.99 C1672.71,1870.46 1656.16,1859.53 1635.64,1859.53 C1603.53,1859.53 1565.14,1886.68 1565.14,1917.13"/>
<path class="Note" d="M5861.53,1793.11 C5861.53,1807.35 5871.79,1823.23 5898.6,1823.23 C5933.03,1823.23 5969.11,1795.1 5969.11,1765.97 C5969.11,1746.44 5952.56,1735.52 5932.03,1735.52 C5899.93,1735.52 5861.53,1762.66 5861.53,1793.11"/>
<path class="Note" d="M6961.26,2619.88 C6961.26,2634.12 6971.52,2650.01 6998.33,2650.01 C7032.76,2650.01 7068.84,2621.87 7068.84,2592.74 C7068.84,2573.21 7052.29,2562.29 7031.76,2562.29 C6999.66,2562.29 6961.26,2589.43 6961.26,2619.88"/>
<path class="Note" d="M6016.53,1875.79 C6016.53,1890.02 6026.79,1905.91 6053.6,1905.91 C6088.03,1905.91 6124.1,1877.78 6124.1,1848.65 C6124.1,1829.12 6107.55,1818.2 6087.03,1818.2 C6054.93,1818.2 6016.53,1845.34 6016.53,1875.79"/>
<path class="Note" d="M2136.75,1049.02 C2136.75,1063.25 2147.01,1079.14 2173.82,1079.14 C2208.24,1079.14 2244.32,1051 2244.32,1021.88 C2244.32,1002.35 2227.77,991.425 2207.25,991.425 C2175.14,991.425 2136.75,1018.57 2136.75,1049.02"/>
<path class="Note" d="M1410.14,1999.81 C1410.14,2014.04 1420.4,2029.93 1447.21,2029.93 C1481.63,2029.93 1517.71,2001.79 1517.71,1972.66 C1517.71,1953.14 1501.16,1942.21 1480.64,1942.21 C1448.53,1942.21 1410.14,1969.35 1410.14,1999.81"/>
<path class="Note" d="M2273.18,1007.68 C2273.18,1021.91 2283.44,1037.8 2310.25,1037.8 C2344.68,1037.8 2380.75,1009.67 2380.75,980.538 C2380.75,961.009 2364.2,950.086 2343.68,950.086 C2311.58,950.086 2273.18,977.228 2273.18,1007.68"/>
<path class="Note" d="M6311.26,1793.11 C6311.26,1807.35 6321.52,1823.23 6348.33,1823.23 C6382.76,1823.23 6418.83,1795.1 6418.83,1765.97 C6418.83,1746.44 6402.28,1735.52 6381.76,1735.52 C6349.66,1735.52 6311.26,1762.66 6311.26,1793.11"/>
<path class="Note" d="M2409.61,966.341 C2409.61,980.574 2419.87,996.462 2446.68,996.462 C2481.11,996.462 2517.19,968.327 2517.19,939.199 C2517.19,919.67 2500.64,908.747 2480.11,908.747 C2448.01,908.747 2409.61,935.889 2409.61,966.341"/>
<path class="Note" d="M8922.98,1255.71 C8922.98,1269.94 8933.24,1285.83 8960.05,1285.83 C8994.48,1285.83 9030.56,1257.7 9030.56,1228.57 C9030.56,1209.04 9014.01,1198.12 8993.49,1198.12 C8961.38,1198.12 8922.98,1225.26 8922.98,1255.71"/>
<path class="Note" d="M6606.58,2578.55 C6606.58,2592.78 6616.84,2608.67 6643.65,2608.67 C6678.08,2608.67 6714.15,2580.53 6714.15,2551.4 C6714.15,2531.88 6697.6,2520.95 6677.08,2520.95 C6644.98,2520.95 6606.58,2548.09 6606.58,2578.55"/>
<path class="Note" d="M6661,1751.77 C6661,1766.01 6671.26,1781.9 6698.07,1781.9 C6732.49,1781.9 6768.57,1753.76 6768.57,1724.63 C6768.57,1705.1 6752.02,1694.18 6731.5,1694.18 C6699.39,1694.18 6661,1721.32 6661,1751.77"/>
<path class="Note" d="M2546.04,925.003 C2546.04,939.236 2556.3,955.124 2583.11,955.124 C2617.54,955.124 2653.62,926.989 2653.62,897.861 C2653.62,878.332 2637.07,867.409 2616.54,867.409 C2584.44,867.409 2546.04,894.551 2546.04,925.003"/>
<path class="Note" d="M8665.99,1173.03 C8665.99,1187.27 8676.25,1203.16 8703.06,1203.16 C8737.48,1203.16 8773.56,1175.02 8773.56,1145.89 C8773.56,1126.36 8757.01,1115.44 8736.49,1115.44 C8704.38,1115.44 8665.99,1142.58 8665.99,1173.03"/>
<path class="Note" d="M6815.99,1958.47 C6815.99,1972.7 6826.26,1988.59 6853.07,1988.59 C6887.49,1988.59 6923.57,1960.45 6923.57,1931.33 C6923.57,1911.8 6907.02,1900.87 6886.5,1900.87 C6854.39,1900.87 6815.99,1928.02 6815.99,1958.47"/>
<path class="Note" d="M8452.33,1131.7 C8452.33,1145.93 8462.59,1161.82 8489.4,1161.82 C8523.82,1161.82 8559.9,1133.68 8559.9,1104.55 C8559.9,1085.02 8543.35,1074.1 8522.83,1074.1 C8490.72,1074.1 8452.33,1101.24 8452.33,1131.7"/>
<path class="Note" d="M6970.99,1834.45 C6970.99,1848.68 6981.25,1864.57 7008.06,1864.57 C7042.49,1864.57 7078.57,1836.44 7078.57,1807.31 C7078.57,1787.78 7062.02,1776.86 7041.5,1776.86 C7009.39,1776.86 6970.99,1804 6970.99,1834.45"/>
<path class="Note" d="M8315.9,1090.36 C8315.9,1104.59 8326.16,1120.48 8352.97,1120.48 C8387.39,1120.48 8423.47,1092.34 8423.47,1063.22 C8423.47,1043.69 8406.92,1032.76 8386.4,1032.76 C8354.29,1032.76 8315.9,1059.91 8315.9,1090.36"/>
<path class="Note" d="M7125.99,1917.13 C7125.99,1931.36 7136.25,1947.25 7163.06,1947.25 C7197.49,1947.25 7233.57,1919.11 7233.57,1889.99 C7233.57,1870.46 7217.02,1859.53 7196.49,1859.53 C7164.39,1859.53 7125.99,1886.68 7125.99,1917.13"/>
<path class="Note" d="M8179.47,1049.02 C8179.47,1063.25 8189.73,1079.14 8216.54,1079.14 C8250.96,1079.14 8287.04,1051 8287.04,1021.88 C8287.04,1002.35 8270.49,991.425 8249.97,991.425 C8217.86,991.425 8179.47,1018.57 8179.47,1049.02"/>
<path class="Note" d="M7363.79,1999.81 C7363.79,2014.04 7374.05,2029.93 7400.87,2029.93 C7435.29,2029.93 7471.37,2001.79 7471.37,1972.66 C7471.37,1953.14 7454.82,1942.21 7434.3,1942.21 C7402.19,1942.21 7363.79,1969.35 7363.79,1999.81"/>
<path class="Note" d="M6370.12,2537.21 C6370.12,2551.44 6380.39,2567.33 6407.2,2567.33 C6441.62,2567.33 6477.7,2539.19 6477.7,2510.07 C6477.7,2490.54 6461.15,2479.61 6440.63,2479.61 C6408.52,2479.61 6370.12,2506.76 6370.12,2537.21"/>
<path class="Note" d="M2748.77,966.341 C2748.77,980.574 2759.03,996.462 2785.84,996.462 C2820.27,996.462 2856.35,968.327 2856.35,939.199 C2856.35,919.67 2839.8,908.747 2819.28,908.747 C2787.17,908.747 2748.77,935.889 2748.77,966.341"/>
<path class="Note" d="M8043.04,1007.68 C8043.04,1021.91 8053.3,1037.8 8080.11,1037.8 C8114.53,1037.8 8150.61,1009.67 8150.61,980.538 C8150.61,961.009 8134.06,950.086 8113.54,950.086 C8081.43,950.086 8043.04,977.228 8043.04,1007.68"/>
<path class="Note" d="M7647.33,1049.02 C7647.33,1063.25 7657.59,1079.14 7684.4,1079.14 C7718.83,1079.14 7754.91,1051 7754.91,1021.88 C7754.91,1002.35 7738.36,991.425 7717.83,991.425 C7685.73,991.425 7647.33,1018.57 7647.33,1049.02"/>
<path class="Note" d="M7658.52,1793.11 C7658.52,1807.35 7668.78,1823.23 7695.6,1823.23 C7730.02,1823.23 7766.1,1795.1 7766.1,1765.97 C7766.1,1746.44 7749.55,1735.52 7729.03,1735.52 C7696.92,1735.52 7658.52,1762.66 7658.52,1793.11"/>
<path class="Note" d="M6133.67,2578.55 C6133.67,2592.78 6143.93,2608.67 6170.74,2608.67 C6205.17,2608.67 6241.25,2580.53 6241.25,2551.4 C6241.25,2531.88 6224.7,2520.95 6204.17,2520.95 C6172.07,2520.95 6133.67,2548.09 6133.67,2578.55"/>
<path class="Note" d="M7390.33,1049.02 C7390.33,1063.25 7400.59,1079.14 7427.41,1079.14 C7461.83,1079.14 7497.91,1051 7497.91,1021.88 C7497.91,1002.35 7481.36,991.425 7460.84,991.425 C7428.73,991.425 7390.33,1018.57 7390.33,1049.02"/>
<path class="Note" d="M7253.9,1007.68 C7253.9,1021.91 7264.16,1037.8 7290.97,1037.8 C7325.4,1037.8 7361.48,1009.67 7361.48,980.538 C7361.48,961.009 7344.93,950.086 7324.41,950.086 C7292.3,950.086 7253.9,977.228 7253.9,1007.68"/>
<path class="Note" d="M8008.26,1834.45 C8008.26,1848.68 8018.52,1864.57 8045.33,1864.57 C8079.76,1864.57 8115.84,1836.44 8115.84,1807.31 C8115.84,1787.78 8099.29,1776.86 8078.76,1776.86 C8046.66,1776.86 8008.26,1804 8008.26,1834.45"/>
<path class="Note" d="M5897.22,2661.22 C5897.22,2675.46 5907.48,2691.34 5934.29,2691.34 C5968.71,2691.34 6004.79,2663.21 6004.79,2634.08 C6004.79,2614.55 5988.24,2603.63 5967.72,2603.63 C5935.61,2603.63 5897.22,2630.77 5897.22,2661.22"/>
<path class="Note" d="M7117.47,966.341 C7117.47,980.574 7127.73,996.462 7154.54,996.462 C7188.97,996.462 7225.05,968.327 7225.05,939.199 C7225.05,919.67 7208.5,908.747 7187.97,908.747 C7155.87,908.747 7117.47,935.889 7117.47,966.341"/>
<path class="Note" d="M8163.26,1875.79 C8163.26,1890.02 8173.52,1905.91 8200.33,1905.91 C8234.76,1905.91 8270.83,1877.78 8270.83,1848.65 C8270.83,1829.12 8254.28,1818.2 8233.76,1818.2 C8201.66,1818.2 8163.26,1845.34 8163.26,1875.79"/>
<path class="Note" d="M6981.04,925.003 C6981.04,939.236 6991.3,955.124 7018.11,955.124 C7052.54,955.124 7088.62,926.989 7088.62,897.861 C7088.62,878.332 7072.07,867.409 7051.54,867.409 C7019.44,867.409 6981.04,894.551 6981.04,925.003"/>
<path class="Note" d="M8318.26,1917.13 C8318.26,1931.36 8328.52,1947.25 8355.33,1947.25 C8389.75,1947.25 8425.83,1919.11 8425.83,1889.99 C8425.83,1870.46 8409.28,1859.53 8388.76,1859.53 C8356.65,1859.53 8318.26,1886.68 8318.26,1917.13"/>
<path class="Note" d="M2885.2,1007.68 C2885.2,1021.91 2895.46,1037.8 2922.28,1037.8 C2956.7,1037.8 2992.78,1009.67 2992.78,980.538 C2992.78,961.009 2976.23,950.086 2955.71,950.086 C2923.6,950.086 2885.2,977.228 2885.2,1007.68"/>
<path class="Note" d="M8473.26,1958.47 C8473.26,1972.7 8483.52,1988.59 8510.33,1988.59 C8544.75,1988.59 8580.83,1960.45 8580.83,1931.33 C8580.83,1911.8 8564.28,1900.87 8543.76,1900.87 C8511.65,1900.87 8473.26,1928.02 8473.26,1958.47"/>
<path class="Note" d="M6844.61,883.664 C6844.61,897.897 6854.87,913.785 6881.68,913.785 C6916.11,913.785 6952.19,885.65 6952.19,856.522 C6952.19,836.993 6935.64,826.07 6915.11,826.07 C6883.01,826.07 6844.61,853.212 6844.61,883.664"/>
<path class="Note" d="M8628.25,1958.47 C8628.25,1972.7 8638.51,1988.59 8665.33,1988.59 C8699.75,1988.59 8735.83,1960.45 8735.83,1931.33 C8735.83,1911.8 8719.28,1900.87 8698.76,1900.87 C8666.65,1900.87 8628.25,1928.02 8628.25,1958.47"/>
<path class="Note" d="M5660.76,2619.88 C5660.76,2634.12 5671.02,2650.01 5697.83,2650.01 C5732.26,2650.01 5768.34,2621.87 5768.34,2592.74 C5768.34,2573.21 5751.79,2562.29 5731.26,2562.29 C5699.16,2562.29 5660.76,2589.43 5660.76,2619.88"/>
<path class="Note" d="M6494.87,925.003 C6494.87,939.236 6505.13,955.124 6531.94,955.124 C6566.37,955.124 6602.45,926.989 6602.45,897.861 C6602.45,878.332 6585.9,867.409 6565.38,867.409 C6533.27,867.409 6494.87,894.551 6494.87,925.003"/>
<path class="Note" d="M3234.94,925.003 C3234.94,939.236 3245.2,955.124 3272.01,955.124 C3306.44,955.124 3342.52,926.989 3342.52,897.861 C3342.52,878.332 3325.97,867.409 3305.44,867.409 C3273.34,867.409 3234.94,894.551 3234.94,925.003"/>
<path class="Note" d="M6237.88,966.341 C6237.88,980.574 6248.14,996.462 6274.95,996.462 C6309.37,996.462 6345.45,968.327 6345.45,939.199 C6345.45,919.67 6328.9,908.747 6308.38,908.747 C6276.27,908.747 6237.88,935.889 6237.88,966.341"/>
<path class="Note" d="M3782.34,1834.45 C3782.34,1848.68 3792.6,1864.57 3819.41,1864.57 C3853.84,1864.57 3889.92,1836.44 3889.92,1807.31 C3889.92,1787.78 3873.37,1776.86 3852.84,1776.86 C3820.74,1776.86 3782.34,1804 3782.34,1834.45"/>
<path class="Note" d="M5424.31,2702.56 C5424.31,2716.79 5434.57,2732.68 5461.38,2732.68 C5495.8,2732.68 5531.88,2704.55 5531.88,2675.42 C5531.88,2655.89 5515.33,2644.97 5494.81,2644.97 C5462.7,2644.97 5424.31,2672.11 5424.31,2702.56"/>
<path class="Note" d="M5187.85,2661.22 C5187.85,2675.46 5198.11,2691.34 5224.93,2691.34 C5259.35,2691.34 5295.43,2663.21 5295.43,2634.08 C5295.43,2614.55 5278.88,2603.63 5258.36,2603.63 C5226.25,2603.63 5187.85,2630.77 5187.85,2661.22"/>
<path class="Note" d="M3371.37,883.664 C3371.37,897.897 3381.63,913.785 3408.44,913.785 C3442.87,913.785 3478.95,885.65 3478.95,856.522 C3478.95,836.993 3462.4,826.07 3441.88,826.07 C3409.77,826.07 3371.37,853.212 3371.37,883.664"/>
<path class="Note" d="M5965.01,966.341 C5965.01,980.574 5975.27,996.462 6002.09,996.462 C6036.51,996.462 6072.59,968.327 6072.59,939.199 C6072.59,919.67 6056.04,908.747 6035.52,908.747 C6003.41,908.747 5965.01,935.889 5965.01,966.341"/>
<path class="Note" d="M1410.14,2826.58 C1410.14,2840.81 1420.4,2856.7 1447.21,2856.7 C1481.63,2856.7 1517.71,2828.56 1517.71,2799.44 C1517.71,2779.91 1501.16,2768.98 1480.64,2768.98 C1448.53,2768.98 1410.14,2796.13 1410.14,2826.58"/>
<path class="Note" d="M4951.4,2743.9 C4951.4,2758.13 4961.66,2774.02 4988.47,2774.02 C5022.89,2774.02 5058.97,2745.89 5058.97,2716.76 C5058.97,2697.23 5042.42,2686.31 5021.9,2686.31 C4989.79,2686.31 4951.4,2713.45 4951.4,2743.9"/>
<path class="Note" d="M5828.58,1007.68 C5828.58,1021.91 5838.84,1037.8 5865.66,1037.8 C5900.08,1037.8 5936.16,1009.67 5936.16,980.538 C5936.16,961.009 5919.61,950.086 5899.09,950.086 C5866.98,950.086 5828.58,977.228 5828.58,1007.68"/>
<path class="Note" d="M1646.59,2785.24 C1646.59,2799.47 1656.85,2815.36 1683.66,2815.36 C1718.09,2815.36 1754.17,2787.23 1754.17,2758.1 C1754.17,2738.57 1737.62,2727.65 1717.09,2727.65 C1684.99,2727.65 1646.59,2754.79 1646.59,2785.24"/>
<path class="Note" d="M3507.8,842.326 C3507.8,856.559 3518.06,872.447 3544.87,872.447 C3579.3,872.447 3615.38,844.312 3615.38,815.184 C3615.38,795.655 3598.83,784.732 3578.31,784.732 C3546.2,784.732 3507.8,811.874 3507.8,842.326"/>
<path class="Note" d="M1883.05,2743.9 C1883.05,2758.13 1893.31,2774.02 1920.12,2774.02 C1954.54,2774.02 1990.62,2745.89 1990.62,2716.76 C1990.62,2697.23 1974.07,2686.31 1953.55,2686.31 C1921.44,2686.31 1883.05,2713.45 1883.05,2743.9"/>
<path class="Note" d="M5692.15,1049.02 C5692.15,1063.25 5702.41,1079.14 5729.22,1079.14 C5763.65,1079.14 5799.73,1051 5799.73,1021.88 C5799.73,1002.35 5783.18,991.425 5762.66,991.425 C5730.55,991.425 5692.15,1018.57 5692.15,1049.02"/>
<path class="Note" d="M2119.5,2826.58 C2119.5,2840.81 2129.76,2856.7 2156.57,2856.7 C2191,2856.7 2227.08,2828.56 2227.08,2799.44 C2227.08,2779.91 2210.53,2768.98 2190,2768.98 C2157.9,2768.98 2119.5,2796.13 2119.5,2826.58"/>
<path class="Note" d="M5342.41,1007.68 C5342.41,1021.91 5352.68,1037.8 5379.49,1037.8 C5413.91,1037.8 5449.99,1009.67 5449.99,980.538 C5449.99,961.009 5433.44,950.086 5412.92,950.086 C5380.81,950.086 5342.41,977.228 5342.41,1007.68"/>
<path class="Note" d="M2355.95,2619.88 C2355.95,2634.12 2366.22,2650.01 2393.03,2650.01 C2427.45,2650.01 2463.53,2621.87 2463.53,2592.74 C2463.53,2573.21 2446.98,2562.29 2426.46,2562.29 C2394.35,2562.29 2355.95,2589.43 2355.95,2619.88"/>
<path class="Note" d="M3644.23,800.987 C3644.23,815.22 3654.49,831.108 3681.31,831.108 C3715.73,831.108 3751.81,802.973 3751.81,773.845 C3751.81,754.316 3735.26,743.393 3714.74,743.393 C3682.63,743.393 3644.23,770.535 3644.23,800.987"/>
<path class="Note" d="M5205.98,966.341 C5205.98,980.574 5216.24,996.462 5243.06,996.462 C5277.48,996.462 5313.56,968.327 5313.56,939.199 C5313.56,919.67 5297.01,908.747 5276.49,908.747 C5244.38,908.747 5205.98,935.889 5205.98,966.341"/>
<path class="Note" d="M5069.55,925.003 C5069.55,939.236 5079.81,955.124 5106.63,955.124 C5141.05,955.124 5177.13,926.989 5177.13,897.861 C5177.13,878.332 5160.58,867.409 5140.06,867.409 C5107.95,867.409 5069.55,894.551 5069.55,925.003"/>
<path class="Note" d="M2805.57,2661.22 C2805.57,2675.46 2815.84,2691.34 2842.65,2691.34 C2877.07,2691.34 2913.15,2663.21 2913.15,2634.08 C2913.15,2614.55 2896.6,2603.63 2876.08,2603.63 C2843.97,2603.63 2805.57,2630.77 2805.57,2661.22"/>
<path class="Note" d="M3780.66,842.326 C3780.66,856.559 3790.93,872.447 3817.74,872.447 C3852.16,872.447 3888.24,844.312 3888.24,815.184 C3888.24,795.655 3871.69,784.732 3851.17,784.732 C3819.06,784.732 3780.66,811.874 3780.66,842.326"/>
<path class="Note" d="M4933.12,883.664 C4933.12,897.897 4943.38,913.785 4970.19,913.785 C5004.62,913.785 5040.7,885.65 5040.7,856.522 C5040.7,836.993 5024.15,826.07 5003.63,826.07 C4971.52,826.07 4933.12,853.212 4933.12,883.664"/>
<path class="Note" d="M4796.69,925.003 C4796.69,939.236 4806.95,955.124 4833.76,955.124 C4868.19,955.124 4904.27,926.989 4904.27,897.861 C4904.27,878.332 4887.72,867.409 4867.19,867.409 C4835.09,867.409 4796.69,894.551 4796.69,925.003"/>
<path class="Note" d="M3160.26,2661.22 C3160.26,2675.46 3170.52,2691.34 3197.33,2691.34 C3231.75,2691.34 3267.83,2663.21 3267.83,2634.08 C3267.83,2614.55 3251.28,2603.63 3230.76,2603.63 C3198.65,2603.63 3160.26,2630.77 3160.26,2661.22"/>
<path class="Note" d="M4555.69,2867.92 C4555.69,2882.15 4565.96,2898.04 4592.77,2898.04 C4627.19,2898.04 4663.27,2869.9 4663.27,2840.77 C4663.27,2821.25 4646.72,2810.32 4626.2,2810.32 C4594.09,2810.32 4555.69,2837.46 4555.69,2867.92"/>
<path class="Note" d="M4660.26,842.326 C4660.26,856.559 4670.52,872.447 4697.33,872.447 C4731.76,872.447 4767.84,844.312 4767.84,815.184 C4767.84,795.655 4751.29,784.732 4730.76,784.732 C4698.66,784.732 4660.26,811.874 4660.26,842.326"/>
<path class="Note" d="M3396.71,2826.58 C3396.71,2840.81 3406.97,2856.7 3433.78,2856.7 C3468.21,2856.7 3504.29,2828.56 3504.29,2799.44 C3504.29,2779.91 3487.74,2768.98 3467.21,2768.98 C3435.11,2768.98 3396.71,2796.13 3396.71,2826.58"/>
<path class="Note" d="M4523.83,800.987 C4523.83,815.22 4534.09,831.108 4560.9,831.108 C4595.33,831.108 4631.41,802.973 4631.41,773.845 C4631.41,754.316 4614.86,743.393 4594.33,743.393 C4562.23,743.393 4523.83,770.535 4523.83,800.987"/>
<path class="Note" d="M3633.17,2702.56 C3633.17,2716.79 3643.43,2732.68 3670.24,2732.68 C3704.66,2732.68 3740.74,2704.55 3740.74,2675.42 C3740.74,2655.89 3724.19,2644.97 3703.67,2644.97 C3671.56,2644.97 3633.17,2672.11 3633.17,2702.56"/>
<path class="Note" d="M4037.66,800.987 C4037.66,815.22 4047.92,831.108 4074.73,831.108 C4109.16,831.108 4145.24,802.973 4145.24,773.845 C4145.24,754.316 4128.69,743.393 4108.16,743.393 C4076.06,743.393 4037.66,770.535 4037.66,800.987"/>
<path class="Note" d="M3869.62,2743.9 C3869.62,2758.13 3879.88,2774.02 3906.69,2774.02 C3941.12,2774.02 3977.2,2745.89 3977.2,2716.76 C3977.2,2697.23 3960.65,2686.31 3940.12,2686.31 C3908.02,2686.31 3869.62,2713.45 3869.62,2743.9"/>
<path class="Note" d="M4387.4,842.326 C4387.4,856.559 4397.66,872.447 4424.47,872.447 C4458.9,872.447 4494.97,844.312 4494.97,815.184 C4494.97,795.655 4478.42,784.732 4457.9,784.732 C4425.8,784.732 4387.4,811.874 4387.4,842.326"/>
<path class="Note" d="M6101.44,925.003 C6101.44,939.236 6111.71,955.124 6138.52,955.124 C6172.94,955.124 6209.02,926.989 6209.02,897.861 C6209.02,878.332 6192.47,867.409 6171.95,867.409 C6139.84,867.409 6101.44,894.551 6101.44,925.003"/>
<path class="Clef" d="M909.689,2012.75 C903.069,2014.08 896.78,2014.74 890.491,2014.74 C843.158,2014.74 802.776,1981.64 802.776,1931.66 C802.776,1891.27 831.242,1855.2 860.37,1830.04 C865.997,1825.07 871.293,1820.44 876.258,1815.48 C879.237,1833.35 881.554,1848.91 883.871,1862.48 C853.75,1871.41 833.228,1903.19 833.228,1934.3 C833.228,1957.47 851.433,1989.25 877.913,1989.25 C880.561,1989.25 883.54,1987.93 883.54,1984.95 C883.54,1981.97 880.23,1980.31 876.258,1977.67 C863.349,1969.72 856.067,1961.12 856.067,1944.9 C856.067,1924.71 870.962,1908.49 890.491,1903.85 L909.689,2012.75 M880.561,1672.48 C883.54,1659.24 898.766,1624.49 915.978,1624.49 C920.943,1624.49 928.887,1640.71 928.887,1663.55 C928.887,1697.97 903.4,1723.79 880.561,1746.3 C878.575,1733.06 876.92,1720.15 876.92,1706.25 C876.92,1694 877.913,1682.74 880.561,1672.48 M956.691,1951.52 C956.691,1975.02 947.092,1999.18 923.591,2008.78 C916.64,1969.06 907.703,1916.43 905.386,1901.87 C935.176,1901.87 956.691,1922.06 956.691,1951.52 M811.051,2114.37 C811.051,2136.21 827.932,2165.01 872.617,2165.01 C888.174,2165.01 901.745,2161.04 913.661,2153.76 C931.535,2141.18 936.169,2119.33 936.169,2098.48 C936.169,2085.57 934.183,2070.68 930.873,2051.81 C929.88,2045.19 927.894,2035.26 925.908,2022.35 C958.346,2011.76 982.509,1978 982.509,1943.9 C982.509,1893.92 947.092,1860.16 898.766,1860.16 C895.456,1840.3 892.146,1820.77 889.167,1802.24 C924.253,1765.49 948.416,1724.12 948.416,1671.49 C948.416,1641.37 939.148,1616.88 933.852,1604.96 C925.908,1588.08 916.309,1576.49 910.351,1576.49 C908.034,1576.49 897.773,1580.47 886.85,1593.37 C865.666,1618.53 859.708,1660.9 859.708,1688.7 C859.708,1706.58 861.363,1722.8 866.99,1759.87 C866.659,1760.2 849.447,1777.74 842.496,1783.37 C812.375,1811.5 770.669,1851.55 770.669,1917.75 C770.669,1979.65 824.622,2028.31 886.188,2028.31 C895.787,2028.31 904.724,2027.32 912.337,2025.99 C918.626,2057.77 922.267,2080.94 922.267,2098.48 C922.267,2132.9 904.724,2151.11 871.293,2151.11 C863.349,2151.11 856.398,2149.45 855.736,2149.45 C855.405,2149.12 854.743,2148.79 854.743,2148.46 C854.743,2147.8 855.405,2147.47 856.398,2147.14 C871.955,2144.82 887.512,2131.58 887.512,2110.4 C887.512,2092.52 873.941,2073.66 849.116,2073.66 C825.946,2073.66 811.051,2092.52 811.051,2114.37"/>
<path class="Clef" d="M909.689,1144.64 C903.069,1145.97 896.78,1146.63 890.491,1146.63 C843.158,1146.63 802.776,1113.53 802.776,1063.55 C802.776,1023.16 831.242,987.085 860.37,961.929 C865.997,956.964 871.293,952.33 876.258,947.365 C879.237,965.239 881.554,980.796 883.871,994.367 C853.75,1003.3 833.228,1035.08 833.228,1066.19 C833.228,1089.36 851.433,1121.14 877.913,1121.14 C880.561,1121.14 883.54,1119.82 883.54,1116.84 C883.54,1113.86 880.23,1112.2 876.258,1109.56 C863.349,1101.61 856.067,1093.01 856.067,1076.79 C856.067,1056.6 870.962,1040.38 890.491,1035.74 L909.689,1144.64 M880.561,804.373 C883.54,791.133 898.766,756.378 915.978,756.378 C920.943,756.378 928.887,772.597 928.887,795.436 C928.887,829.86 903.4,855.678 880.561,878.186 C878.575,864.946 876.92,852.037 876.92,838.135 C876.92,825.888 877.913,814.634 880.561,804.373 M956.691,1083.41 C956.691,1106.91 947.092,1131.07 923.591,1140.67 C916.64,1100.95 907.703,1048.32 905.386,1033.76 C935.176,1033.76 956.691,1053.95 956.691,1083.41 M811.051,1246.26 C811.051,1268.1 827.932,1296.9 872.617,1296.9 C888.174,1296.9 901.745,1292.93 913.661,1285.65 C931.535,1273.07 936.169,1251.22 936.169,1230.37 C936.169,1217.46 934.183,1202.57 930.873,1183.7 C929.88,1177.08 927.894,1167.15 925.908,1154.24 C958.346,1143.65 982.509,1109.89 982.509,1075.79 C982.509,1025.81 947.092,992.05 898.766,992.05 C895.456,972.19 892.146,952.661 889.167,934.125 C924.253,897.384 948.416,856.009 948.416,803.38 C948.416,773.259 939.148,748.765 933.852,736.849 C925.908,719.968 916.309,708.383 910.351,708.383 C908.034,708.383 897.773,712.355 886.85,725.264 C865.666,750.42 859.708,792.788 859.708,820.592 C859.708,838.466 861.363,854.685 866.99,891.757 C866.659,892.088 849.447,909.631 842.496,915.258 C812.375,943.393 770.669,983.444 770.669,1049.64 C770.669,1111.54 824.622,1160.2 886.188,1160.2 C895.787,1160.2 904.724,1159.21 912.337,1157.88 C918.626,1189.66 922.267,1212.83 922.267,1230.37 C922.267,1264.79 904.724,1283 871.293,1283 C863.349,1283 856.398,1281.34 855.736,1281.34 C855.405,1281.01 854.743,1280.68 854.743,1280.35 C854.743,1279.69 855.405,1279.36 856.398,1279.03 C871.955,1276.71 887.512,1263.47 887.512,1242.29 C887.512,1224.41 873.941,1205.55 849.116,1205.55 C825.946,1205.55 811.051,1224.41 811.051,1246.26"/>
<path class="Clef" d="M909.689,2880.86 C903.069,2882.19 896.78,2882.85 890.491,2882.85 C843.158,2882.85 802.776,2849.75 802.776,2799.77 C802.776,2759.38 831.242,2723.31 860.37,2698.15 C865.997,2693.18 871.293,2688.55 876.258,2683.59 C879.237,2701.46 881.554,2717.02 883.871,2730.59 C853.75,2739.52 833.228,2771.3 833.228,2802.41 C833.228,2825.58 851.433,2857.36 877.913,2857.36 C880.561,2857.36 883.54,2856.04 883.54,2853.06 C883.54,2850.08 880.23,2848.42 876.258,2845.78 C863.349,2837.83 856.067,2829.23 856.067,2813.01 C856.067,2792.82 870.962,2776.6 890.491,2771.96 L909.689,2880.86 M880.561,2540.59 C883.54,2527.35 898.766,2492.6 915.978,2492.6 C920.943,2492.6 928.887,2508.82 928.887,2531.66 C928.887,2566.08 903.4,2591.9 880.561,2614.41 C878.575,2601.17 876.92,2588.26 876.92,2574.36 C876.92,2562.11 877.913,2550.85 880.561,2540.59 M956.691,2819.63 C956.691,2843.13 947.092,2867.29 923.591,2876.89 C916.64,2837.17 907.703,2784.54 905.386,2769.98 C935.176,2769.98 956.691,2790.17 956.691,2819.63 M811.051,2982.48 C811.051,3004.32 827.932,3033.12 872.617,3033.12 C888.174,3033.12 901.745,3029.15 913.661,3021.87 C931.535,3009.29 936.169,2987.44 936.169,2966.59 C936.169,2953.68 934.183,2938.79 930.873,2919.92 C929.88,2913.3 927.894,2903.37 925.908,2890.46 C958.346,2879.87 982.509,2846.11 982.509,2812.01 C982.509,2762.03 947.092,2728.27 898.766,2728.27 C895.456,2708.41 892.146,2688.88 889.167,2670.35 C924.253,2633.6 948.416,2592.23 948.416,2539.6 C948.416,2509.48 939.148,2484.99 933.852,2473.07 C925.908,2456.19 916.309,2444.6 910.351,2444.6 C908.034,2444.6 897.773,2448.58 886.85,2461.48 C865.666,2486.64 859.708,2529.01 859.708,2556.81 C859.708,2574.69 861.363,2590.91 866.99,2627.98 C866.659,2628.31 849.447,2645.85 842.496,2651.48 C812.375,2679.61 770.669,2719.66 770.669,2785.86 C770.669,2847.76 824.622,2896.42 886.188,2896.42 C895.787,2896.42 904.724,2895.43 912.337,2894.1 C918.626,2925.88 922.267,2949.05 922.267,2966.59 C922.267,3001.01 904.724,3019.22 871.293,3019.22 C863.349,3019.22 856.398,3017.56 855.736,3017.56 C855.405,3017.23 854.743,3016.9 854.743,3016.57 C854.743,3015.91 855.405,3015.58 856.398,3015.25 C871.955,3012.93 887.512,2999.69 887.512,2978.51 C887.512,2960.63 873.941,2941.77 849.116,2941.77 C825.946,2941.77 811.051,2960.63 811.051,2982.48"/>
<path class="KeySig" d="M1088.05,2716.76 C1088.05,2742.91 1074.48,2756.81 1055.28,2772.04 L1056.27,2707.49 C1056.93,2704.51 1061.9,2694.91 1075.14,2694.91 C1087.06,2694.91 1088.05,2706.17 1088.05,2713.12 L1088.05,2716.76 M1084.08,2678.69 C1067.53,2678.69 1057.93,2688.95 1056.27,2690.94 L1057.6,2584.69 C1057.6,2582.04 1055.61,2580.06 1052.96,2580.06 L1048.99,2580.06 C1046.34,2580.06 1044.36,2582.04 1044.36,2584.69 L1046.01,2783.62 C1046.01,2786.27 1048,2788.25 1050.65,2788.25 C1051.31,2788.25 1052.63,2787.92 1053.29,2787.59 C1081.76,2773.36 1111.55,2746.22 1111.55,2712.12 C1111.55,2694.91 1103.61,2678.69 1084.08,2678.69"/>
<path class="KeySig" d="M1179.99,2592.74 C1179.99,2618.89 1166.42,2632.79 1147.22,2648.02 L1148.21,2583.47 C1148.87,2580.5 1153.84,2570.9 1167.08,2570.9 C1178.99,2570.9 1179.99,2582.15 1179.99,2589.1 L1179.99,2592.74 M1176.01,2554.68 C1159.46,2554.68 1149.87,2564.94 1148.21,2566.92 L1149.53,2460.67 C1149.53,2458.03 1147.55,2456.04 1144.9,2456.04 L1140.93,2456.04 C1138.28,2456.04 1136.29,2458.03 1136.29,2460.67 L1137.95,2659.6 C1137.95,2662.25 1139.94,2664.24 1142.58,2664.24 C1143.25,2664.24 1144.57,2663.91 1145.23,2663.58 C1173.7,2649.34 1203.49,2622.2 1203.49,2588.11 C1203.49,2570.9 1195.54,2554.68 1176.01,2554.68"/>
<path class="KeySig" d="M1088.05,1848.65 C1088.05,1874.8 1074.48,1888.7 1055.28,1903.93 L1056.27,1839.38 C1056.93,1836.4 1061.9,1826.8 1075.14,1826.8 C1087.06,1826.8 1088.05,1838.06 1088.05,1845.01 L1088.05,1848.65 M1084.08,1810.58 C1067.53,1810.58 1057.93,1820.84 1056.27,1822.83 L1057.6,1716.58 C1057.6,1713.93 1055.61,1711.95 1052.96,1711.95 L1048.99,1711.95 C1046.34,1711.95 1044.36,1713.93 1044.36,1716.58 L1046.01,1915.51 C1046.01,1918.16 1048,1920.14 1050.65,1920.14 C1051.31,1920.14 1052.63,1919.81 1053.29,1919.48 C1081.76,1905.25 1111.55,1878.11 1111.55,1844.01 C1111.55,1826.8 1103.61,1810.58 1084.08,1810.58"/>
<path class="KeySig" d="M1179.99,1724.63 C1179.99,1750.78 1166.42,1764.68 1147.22,1779.91 L1148.21,1715.36 C1148.87,1712.39 1153.84,1702.79 1167.08,1702.79 C1178.99,1702.79 1179.99,1714.04 1179.99,1720.99 L1179.99,1724.63 M1176.01,1686.57 C1159.46,1686.57 1149.87,1696.83 1148.21,1698.81 L1149.53,1592.56 C1149.53,1589.92 1147.55,1587.93 1144.9,1587.93 L1140.93,1587.93 C1138.28,1587.93 1136.29,1589.92 1136.29,1592.56 L1137.95,1791.49 C1137.95,1794.14 1139.94,1796.13 1142.58,1796.13 C1143.25,1796.13 1144.57,1795.8 1145.23,1795.47 C1173.7,1781.23 1203.49,1754.09 1203.49,1720 C1203.49,1702.79 1195.54,1686.57 1176.01,1686.57"/>
<path class="KeySig" d="M1088.05,980.538 C1088.05,1006.69 1074.48,1020.59 1055.28,1035.82 L1056.27,971.27 C1056.93,968.291 1061.9,958.692 1075.14,958.692 C1087.06,958.692 1088.05,969.946 1088.05,976.897 L1088.05,980.538 M1084.08,942.473 C1067.53,942.473 1057.93,952.734 1056.27,954.72 L1057.6,848.469 C1057.6,845.821 1055.61,843.835 1052.96,843.835 L1048.99,843.835 C1046.34,843.835 1044.36,845.821 1044.36,848.469 L1046.01,1047.4 C1046.01,1050.05 1048,1052.03 1050.65,1052.03 C1051.31,1052.03 1052.63,1051.7 1053.29,1051.37 C1081.76,1037.14 1111.55,1010 1111.55,975.904 C1111.55,958.692 1103.61,942.473 1084.08,942.473"/>
<path class="KeySig" d="M1179.99,856.522 C1179.99,882.671 1166.42,896.573 1147.22,911.799 L1148.21,847.254 C1148.87,844.275 1153.84,834.676 1167.08,834.676 C1178.99,834.676 1179.99,845.93 1179.99,852.881 L1179.99,856.522 M1176.01,818.457 C1159.46,818.457 1149.87,828.718 1148.21,830.704 L1149.53,724.453 C1149.53,721.805 1147.55,719.819 1144.9,719.819 L1140.93,719.819 C1138.28,719.819 1136.29,721.805 1136.29,724.453 L1137.95,923.384 C1137.95,926.032 1139.94,928.018 1142.58,928.018 C1143.25,928.018 1144.57,927.687 1145.23,927.356 C1173.7,913.123 1203.49,885.981 1203.49,851.888 C1203.49,834.676 1195.54,818.457 1176.01,818.457"/>
<path class="TimeSig" d="M1393.7,934.529 C1385.42,939.825 1379.46,949.424 1379.46,960.016 C1379.46,961.34 1379.46,962.664 1379.79,963.988 C1381.45,977.559 1392.37,988.151 1405.94,989.806 L1409.58,989.806 C1426.13,989.806 1439.37,976.566 1439.37,960.016 L1439.37,958.03 C1439.37,956.706 1439.04,954.389 1438.71,953.065 C1435.73,938.832 1422.82,908.38 1366.55,908.38 C1294.4,908.38 1286.12,968.291 1286.12,989.806 C1286.12,1029.2 1291.09,1078.51 1373.84,1078.51 C1406.61,1078.51 1432.09,1059.32 1433.42,1023.9 C1433.42,1022.24 1432.42,1021.25 1430.77,1021.25 L1426.47,1021.25 C1425.14,1021.25 1423.82,1022.58 1423.82,1023.9 C1422.49,1051.37 1402.96,1067.92 1373.84,1067.92 C1345.04,1067.92 1331.14,1052.37 1331.14,1023.24 L1331.14,960.016 C1331.14,941.48 1338.42,920.296 1367.88,920.296 C1383.44,920.296 1390.39,925.923 1394.03,931.55 C1394.36,932.212 1394.36,932.543 1394.36,933.205 C1394.36,933.536 1394.36,934.198 1393.7,934.529"/>
<path class="Beam" fill-rule="evenodd" d="M1509.35,1675.69 L1982.61,1613.68 L1982.61,1655.37 L1509.35,1717.38 L1509.35,1675.69 "/>
<path class="Beam" fill-rule="evenodd" d="M4951.4,2936.61 L5669.03,2874.61 L5669.03,2916.1 L4951.4,2978.11 L4951.4,2936.61 "/>
<path class="Beam" fill-rule="evenodd" d="M1509.35,2481.97 L2226.98,2481.97 L2226.98,2523.31 L1509.35,2523.31 L1509.35,2481.97 "/>
<path class="Beam" fill-rule="evenodd" d="M5692.15,1241.71 L6109.71,1200.37 L6109.71,1241.91 L5692.15,1283.25 L5692.15,1241.71 "/>
<path class="Beam" fill-rule="evenodd" d="M3234.94,1138.44 L3652.5,1117.77 L3652.5,1159.16 L3234.94,1179.83 L3234.94,1138.44 "/>
<path class="Beam" fill-rule="evenodd" d="M4132.08,2109.92 L4605.34,2109.92 L4605.34,2151.26 L4132.08,2151.26 L4132.08,2109.92 "/>
<path class="Beam" fill-rule="evenodd" d="M2966.83,1613.68 L3440.09,1675.69 L3440.09,1717.38 L2966.83,1655.37 L2966.83,1613.68 "/>
<path class="Beam" fill-rule="evenodd" d="M2052.89,2109.84 L2526.15,2068.5 L2526.15,2110 L2052.89,2151.34 L2052.89,2109.84 "/>
<path class="Beam" fill-rule="evenodd" d="M6844.61,1179.78 L7262.17,1200.45 L7262.17,1241.83 L6844.61,1221.17 L6844.61,1179.78 "/>
<path class="Beam" fill-rule="evenodd" d="M8107.47,1572.34 L8580.74,1634.35 L8580.74,1676.04 L8107.47,1614.03 L8107.47,1572.34 "/>
<path class="Beam" fill-rule="evenodd" d="M5897.22,2874.67 L6614.85,2854.01 L6614.85,2895.36 L5897.22,2916.03 L5897.22,2874.67 "/>
<path class="Beam" fill-rule="evenodd" d="M2748.77,1179.59 L2893.47,1200.26 L2893.47,1242.02 L2748.77,1221.35 L2748.77,1179.59 "/>
<path class="Beam" fill-rule="evenodd" d="M4933.12,1179.78 L5350.68,1200.45 L5350.68,1241.83 L4933.12,1221.17 L4933.12,1179.78 "/>
<path class="Beam" fill-rule="evenodd" d="M5396.54,2006.57 L5869.8,2006.57 L5869.8,2047.91 L5396.54,2047.91 L5396.54,2006.57 "/>
<path class="Beam" fill-rule="evenodd" d="M8142.25,745.721 L8559.81,766.391 L8559.81,807.78 L8142.25,787.11 L8142.25,745.721 "/>
<path class="Beam" fill-rule="evenodd" d="M6661,2130.59 L7134.26,2130.59 L7134.26,2171.93 L6661,2171.93 L6661,2130.59 "/>
<path class="Beam" fill-rule="evenodd" d="M2000.32,1241.81 L2417.88,1241.81 L2417.88,1283.15 L2000.32,1283.15 L2000.32,1241.81 "/>
<path class="Beam" fill-rule="evenodd" d="M3160.26,2998.7 L3877.89,2998.7 L3877.89,3040.04 L3160.26,3040.04 L3160.26,2998.7 "/>
<path class="Beam" fill-rule="evenodd" d="M4387.4,1117.77 L4804.96,1138.44 L4804.96,1179.83 L4387.4,1159.16 L4387.4,1117.77 "/>
<path class="Beam" fill-rule="evenodd" d="M6961.26,2874.64 L7881.57,2936.64 L7881.57,2978.08 L6961.26,2916.07 L6961.26,2874.64 "/>
<path class="NoteDot" d="M7539.17,1035.12 C7539.17,1044.38 7546.45,1051.67 7555.72,1051.67 C7564.98,1051.67 7572.27,1044.38 7572.27,1035.12 C7572.27,1025.85 7564.98,1018.57 7555.72,1018.57 C7546.45,1018.57 7539.17,1025.85 7539.17,1035.12"/>
<path class="NoteDot" d="M6165.36,1820.55 C6165.36,1829.82 6172.64,1837.1 6181.91,1837.1 C6191.18,1837.1 6198.46,1829.82 6198.46,1820.55 C6198.46,1811.28 6191.18,1804 6181.91,1804 C6172.64,1804 6165.36,1811.28 6165.36,1820.55"/>
<path class="NoteDot" d="M8814.82,1117.79 C8814.82,1127.06 8822.1,1134.34 8831.37,1134.34 C8840.64,1134.34 8847.92,1127.06 8847.92,1117.79 C8847.92,1108.53 8840.64,1101.24 8831.37,1101.24 C8822.1,1101.24 8814.82,1108.53 8814.82,1117.79"/>
<path class="NoteDot" d="M7512.63,1985.9 C7512.63,1995.17 7519.91,2002.45 7529.18,2002.45 C7538.44,2002.45 7545.73,1995.17 7545.73,1985.9 C7545.73,1976.64 7538.44,1969.35 7529.18,1969.35 C7519.91,1969.35 7512.63,1976.64 7512.63,1985.9"/>
<path class="NoteDot" d="M8777.09,1903.23 C8777.09,1912.49 8784.37,1919.78 8793.64,1919.78 C8802.9,1919.78 8810.19,1912.49 8810.19,1903.23 C8810.19,1893.96 8802.9,1886.68 8793.64,1886.68 C8784.37,1886.68 8777.09,1893.96 8777.09,1903.23"/>
<path class="NoteDot" d="M4900.9,1985.9 C4900.9,1995.17 4908.18,2002.45 4917.45,2002.45 C4926.72,2002.45 4934,1995.17 4934,1985.9 C4934,1976.64 4926.72,1969.35 4917.45,1969.35 C4908.18,1969.35 4900.9,1976.64 4900.9,1985.9"/>
<path class="NoteDot" d="M6386.71,952.439 C6386.71,961.707 6393.99,968.989 6403.26,968.989 C6412.53,968.989 6419.81,961.707 6419.81,952.439 C6419.81,943.171 6412.53,935.889 6403.26,935.889 C6393.99,935.889 6386.71,943.171 6386.71,952.439"/>
<path class="NoteDot" d="M3636.44,1985.9 C3636.44,1995.17 3643.72,2002.45 3652.99,2002.45 C3662.26,2002.45 3669.54,1995.17 3669.54,1985.9 C3669.54,1976.64 3662.26,1969.35 3652.99,1969.35 C3643.72,1969.35 3636.44,1976.64 3636.44,1985.9"/>
<path class="NoteDot" d="M2504.79,2605.98 C2504.79,2615.25 2512.07,2622.53 2521.34,2622.53 C2530.61,2622.53 2537.89,2615.25 2537.89,2605.98 C2537.89,2596.71 2530.61,2589.43 2521.34,2589.43 C2512.07,2589.43 2504.79,2596.71 2504.79,2605.98"/>
<path class="NoteDot" d="M3929.5,787.085 C3929.5,796.353 3936.78,803.635 3946.05,803.635 C3955.31,803.635 3962.6,796.353 3962.6,787.085 C3962.6,777.817 3955.31,770.535 3946.05,770.535 C3936.78,770.535 3929.5,777.817 3929.5,787.085"/>
<path class="NoteDot" d="M8326.14,2688.66 C8326.14,2697.93 8333.43,2705.21 8342.69,2705.21 C8351.96,2705.21 8359.24,2697.93 8359.24,2688.66 C8359.24,2679.39 8351.96,2672.11 8342.69,2672.11 C8333.43,2672.11 8326.14,2679.39 8326.14,2688.66"/>
<path class="NoteDot" d="M4254.91,2771.34 C4254.91,2780.61 4262.19,2787.89 4271.46,2787.89 C4280.72,2787.89 4288.01,2780.61 4288.01,2771.34 C4288.01,2762.07 4280.72,2754.79 4271.46,2754.79 C4262.19,2754.79 4254.91,2762.07 4254.91,2771.34"/>
</svg>
