<?xml version="1.0" encoding="UTF-8" standalone="no"?>
<svg width="210.058mm" height="296.926mm" viewBox="0 0 9924 14028"
 xmlns="http://www.w3.org/2000/svg" xmlns:xlink="http://www.w3.org/1999/xlink" version="1.2" baseProfile="full">
<title>air_XLVI</title>
<desc>Generated by MuseScore Studio 4.7.3</desc>
<polyline class="StaffLines" fill="none" stroke="#000000" stroke-width="9.09" stroke-linejoin="bevel" points="708.661,828.424 9215.34,828.424" />
<polyline class="StaffLines" fill="none" stroke="#000000" stroke-width="9.09" stroke-linejoin="bevel" points="708.661,911.101 9215.34,911.101" />
<polyline class="StaffLines" fill="none" stroke="#000000" stroke-width="9.09" stroke-linejoin="bevel" points="708.661,993.778 9215.34,993.778" />
<polyline class="StaffLines" fill="none" stroke="#000000" stroke-width="9.09" stroke-linejoin="bevel" points="708.661,1076.46 9215.34,1076.46" />
<polyline class="StaffLines" fill="none" stroke="#000000" stroke-width="9.09" stroke-linejoin="bevel" points="708.661,1159.13 9215.34,1159.13" />
<polyline class="StaffLines" fill="none" stroke="#000000" stroke-width="9.09" stroke-linejoin="bevel" points="708.661,1696.53 9215.34,1696.53" />
<polyline class="StaffLines" fill="none" stroke="#000000" stroke-width="9.09" stroke-linejoin="bevel" points="708.661,1779.21 9215.34,1779.21" />
<polyline class="StaffLines" fill="none" stroke="#000000" stroke-width="9.09" stroke-linejoin="bevel" points="708.661,1861.89 9215.34,1861.89" />
<polyline class="StaffLines" fill="none" stroke="#000000" stroke-width="9.09" stroke-linejoin="bevel" points="708.661,1944.57 9215.34,1944.57" />
<polyline class="StaffLines" fill="none" stroke="#000000" stroke-width="9.09" stroke-linejoin="bevel" points="708.661,2027.24 9215.34,2027.24" />
<polyline class="StaffLines" fill="none" stroke="#000000" stroke-width="9.09" stroke-linejoin="bevel" points="708.661,2564.64 9215.34,2564.64" />
<polyline class="StaffLines" fill="none" stroke="#000000" stroke-width="9.09" stroke-linejoin="bevel" points="708.661,2647.32 9215.34,2647.32" />
<polyline class="StaffLines" fill="none" stroke="#000000" stroke-width="9.09" stroke-linejoin="bevel" points="708.661,2730 9215.34,2730" />
<polyline class="StaffLines" fill="none" stroke="#000000" stroke-width="9.09" stroke-linejoin="bevel" points="708.661,2812.68 9215.34,2812.68" />
<polyline class="StaffLines" fill="none" stroke="#000000" stroke-width="9.09" stroke-linejoin="bevel" points="708.661,2895.35 9215.34,2895.35" />
<polyline class="BarLine" fill="none" stroke="#000000" stroke-width="14.88" stroke-linejoin="bevel" points="3315.35,823.876 3315.35,1163.68" />
<polyline class="BarLine" fill="none" stroke="#000000" stroke-width="45.47" stroke-linejoin="bevel" points="4572.39,1691.99 4572.39,2031.79" />
<polyline class="BarLine" fill="none" stroke="#000000" stroke-width="14.88" stroke-linejoin="bevel" points="4633.15,1691.99 4633.15,2031.79" />
<path class="BarLine" d="M4705.6,1820.55 C4705.6,1810.95 4697.99,1803.01 4688.39,1803.01 C4678.79,1803.01 4671.18,1810.95 4671.18,1820.55 C4671.18,1830.15 4678.79,1838.09 4688.39,1838.09 C4697.99,1838.09 4705.6,1830.15 4705.6,1820.55"/>
<path class="BarLine" d="M4705.6,1903.23 C4705.6,1893.63 4697.99,1885.68 4688.39,1885.68 C4678.79,1885.68 4671.18,1893.63 4671.18,1903.23 C4671.18,1912.83 4678.79,1920.77 4688.39,1920.77 C4697.99,1920.77 4705.6,1912.83 4705.6,1903.23"/>
<polyline class="BarLine" fill="none" stroke="#000000" stroke-width="14.88" stroke-linejoin="bevel" points="9131.84,2560.1 9131.84,2899.9" />
<polyline class="BarLine" fill="none" stroke="#000000" stroke-width="45.47" stroke-linejoin="bevel" points="9192.6,2560.1 9192.6,2899.9" />
<path class="BarLine" d="M4473.61,1820.55 C4473.61,1810.95 4466,1803.01 4456.4,1803.01 C4446.8,1803.01 4439.19,1810.95 4439.19,1820.55 C4439.19,1830.15 4446.8,1838.09 4456.4,1838.09 C4466,1838.09 4473.61,1830.15 4473.61,1820.55"/>
<path class="BarLine" d="M4473.61,1903.23 C4473.61,1893.63 4466,1885.68 4456.4,1885.68 C4446.8,1885.68 4439.19,1893.63 4439.19,1903.23 C4439.19,1912.83 4446.8,1920.77 4456.4,1920.77 C4466,1920.77 4473.61,1912.83 4473.61,1903.23"/>
<polyline class="BarLine" fill="none" stroke="#000000" stroke-width="14.88" stroke-linejoin="bevel" points="4511.62,1691.99 4511.62,2031.79" />
<polyline class="BarLine" fill="none" stroke="#000000" stroke-width="45.47" stroke-linejoin="bevel" points="4572.39,1691.99 4572.39,2031.79" />
<polyline class="BarLine" fill="none" stroke="#000000" stroke-width="14.88" stroke-linejoin="bevel" points="3598.65,1691.99 3598.65,2031.79" />
<polyline class="BarLine" fill="none" stroke="#000000" stroke-width="14.88" stroke-linejoin="bevel" points="6470.31,1691.99 6470.31,2031.79" />
<polyline class="BarLine" fill="none" stroke="#000000" stroke-width="14.88" stroke-linejoin="bevel" points="2428.86,1691.99 2428.86,2031.79" />
<polyline class="BarLine" fill="none" stroke="#000000" stroke-width="14.88" stroke-linejoin="bevel" points="1783.03,823.876 1783.03,1163.68" />
<polyline class="BarLine" fill="none" stroke="#000000" stroke-width="14.88" stroke-linejoin="bevel" points="7785.47,1691.99 7785.47,2031.79" />
<polyline class="BarLine" fill="none" stroke="#000000" stroke-width="14.88" stroke-linejoin="bevel" points="9207.9,823.876 9207.9,1163.68" />
<polyline class="BarLine" fill="none" stroke="#000000" stroke-width="14.88" stroke-linejoin="bevel" points="9207.9,1691.99 9207.9,2031.79" />
<polyline class="BarLine" fill="none" stroke="#000000" stroke-width="14.88" stroke-linejoin="bevel" points="7963.26,2560.1 7963.26,2899.9" />
<polyline class="BarLine" fill="none" stroke="#000000" stroke-width="14.88" stroke-linejoin="bevel" points="7675.58,823.876 7675.58,1163.68" />
<polyline class="BarLine" fill="none" stroke="#000000" stroke-width="14.88" stroke-linejoin="bevel" points="5047.88,1691.99 5047.88,2031.79" />
<polyline class="BarLine" fill="none" stroke="#000000" stroke-width="14.88" stroke-linejoin="bevel" points="3037.54,2560.1 3037.54,2899.9" />
<polyline class="BarLine" fill="none" stroke="#000000" stroke-width="14.88" stroke-linejoin="bevel" points="6122.89,823.876 6122.89,1163.68" />
<polyline class="BarLine" fill="none" stroke="#000000" stroke-width="14.88" stroke-linejoin="bevel" points="4699.72,2560.1 4699.72,2899.9" />
<polyline class="BarLine" fill="none" stroke="#000000" stroke-width="14.88" stroke-linejoin="bevel" points="4719.12,823.876 4719.12,1163.68" />
<polyline class="BarLine" fill="none" stroke="#000000" stroke-width="14.88" stroke-linejoin="bevel" points="6331.49,2560.1 6331.49,2899.9" />
<path class="TieSegment" stroke="#000000" stroke-width="4.13" stroke-linecap="round" stroke-linejoin="round" fill-rule="evenodd" d="M8133.07,2873.04 C8222.4,2936.65 8490.39,2936.65 8579.73,2873.04 C8490.39,2963.11 8222.4,2963.11 8133.07,2873.04"/>
<path class="TieSegment" stroke="#000000" stroke-width="4.13" stroke-linecap="round" stroke-linejoin="round" fill-rule="evenodd" d="M4878.97,2462.95 C4993.09,2364.66 5335.47,2364.66 5449.6,2462.95 C5335.47,2391.11 4993.09,2391.11 4878.97,2462.95"/>
<path class="TieSegment" stroke="#000000" stroke-width="4.13" stroke-linecap="round" stroke-linejoin="round" fill-rule="evenodd" d="M3777.89,1718.85 C3838.95,1637.17 4022.11,1637.17 4083.16,1718.85 C4022.11,1662.61 3838.95,1662.61 3777.89,1718.85"/>
<polyline class="Stem" fill="none" stroke="#000000" stroke-width="8.27" stroke-linejoin="bevel" points="8973.08,1834.44 8973.08,2047.91" />
<polyline class="Stem" fill="none" stroke="#000000" stroke-width="8.27" stroke-linejoin="bevel" points="1644.68,2743.89 1644.68,2978.03" />
<polyline class="Stem" fill="none" stroke="#000000" stroke-width="8.27" stroke-linejoin="bevel" points="3152.46,2537.2 3152.46,2812.68" />
<polyline class="Stem" fill="none" stroke="#000000" stroke-width="8.27" stroke-linejoin="bevel" points="5862.47,966.329 5862.47,1220.81" />
<polyline class="Stem" fill="none" stroke="#000000" stroke-width="8.27" stroke-linejoin="bevel" points="5476.81,924.991 5476.81,1200.47" />
<polyline class="Stem" fill="none" stroke="#000000" stroke-width="8.27" stroke-linejoin="bevel" points="7063.99,2743.89 7063.99,2957.22" />
<polyline class="Stem" fill="none" stroke="#000000" stroke-width="8.27" stroke-linejoin="bevel" points="3924.44,2537.2 3924.44,2812.68" />
<polyline class="Stem" fill="none" stroke="#000000" stroke-width="8.27" stroke-linejoin="bevel" points="6337.02,980.55 6337.02,766.416" />
<polyline class="Stem" fill="none" stroke="#000000" stroke-width="8.27" stroke-linejoin="bevel" points="2639.94,980.55 2639.94,766.579" />
<polyline class="Stem" fill="none" stroke="#000000" stroke-width="8.27" stroke-linejoin="bevel" points="2725.44,2661.21 2725.44,2936.36" />
<polyline class="Stem" fill="none" stroke="#000000" stroke-width="8.27" stroke-linejoin="bevel" points="6594.13,1021.89 6594.13,766.416" />
<polyline class="Stem" fill="none" stroke="#000000" stroke-width="8.27" stroke-linejoin="bevel" points="2262.26,2743.89 2262.26,2978.03" />
<polyline class="Stem" fill="none" stroke="#000000" stroke-width="8.27" stroke-linejoin="bevel" points="6851.24,980.55 6851.24,766.416" />
<polyline class="Stem" fill="none" stroke="#000000" stroke-width="8.27" stroke-linejoin="bevel" points="1953.47,2785.23 1953.47,2998.43" />
<polyline class="Stem" fill="none" stroke="#000000" stroke-width="8.27" stroke-linejoin="bevel" points="7108.35,1063.23 7108.35,787.085" />
<polyline class="Stem" fill="none" stroke="#000000" stroke-width="8.27" stroke-linejoin="bevel" points="7471.99,2758.11 7471.99,2502.64" />
<polyline class="Stem" fill="none" stroke="#000000" stroke-width="8.27" stroke-linejoin="bevel" points="1335.89,2702.55 1335.89,2957.63" />
<polyline class="Stem" fill="none" stroke="#000000" stroke-width="8.27" stroke-linejoin="bevel" points="7494.01,1187.24 7494.01,911.762" />
<polyline class="Stem" fill="none" stroke="#000000" stroke-width="8.27" stroke-linejoin="bevel" points="5219.7,883.652 5219.7,1158.8" />
<polyline class="Stem" fill="none" stroke="#000000" stroke-width="8.27" stroke-linejoin="bevel" points="2382.83,1021.89 2382.83,767.077" />
<polyline class="Stem" fill="none" stroke="#000000" stroke-width="8.27" stroke-linejoin="bevel" points="4387.62,2661.21 4387.62,2936.36" />
<polyline class="Stem" fill="none" stroke="#000000" stroke-width="8.27" stroke-linejoin="bevel" points="7889.71,1063.23 7889.71,787.085" />
<polyline class="Stem" fill="none" stroke="#000000" stroke-width="8.27" stroke-linejoin="bevel" points="6755.2,2702.55 6755.2,2947.03" />
<polyline class="Stem" fill="none" stroke="#000000" stroke-width="8.27" stroke-linejoin="bevel" points="4834.04,842.313 4834.04,1117.79" />
<polyline class="Stem" fill="none" stroke="#000000" stroke-width="8.27" stroke-linejoin="bevel" points="8275.37,1021.89 8275.37,767.077" />
<polyline class="Stem" fill="none" stroke="#000000" stroke-width="8.27" stroke-linejoin="bevel" points="2897.04,1021.89 2897.04,776.75" />
<polyline class="Stem" fill="none" stroke="#000000" stroke-width="8.27" stroke-linejoin="bevel" points="8532.48,980.55 8532.48,766.579" />
<polyline class="Stem" fill="none" stroke="#000000" stroke-width="8.27" stroke-linejoin="bevel" points="8758.55,1793.1 8758.55,2047.91" />
<polyline class="Stem" fill="none" stroke="#000000" stroke-width="8.27" stroke-linejoin="bevel" points="8544.01,1834.44 8544.01,2047.91" />
<polyline class="Stem" fill="none" stroke="#000000" stroke-width="8.27" stroke-linejoin="bevel" points="8789.59,1021.89 8789.59,776.75" />
<polyline class="Stem" fill="none" stroke="#000000" stroke-width="8.27" stroke-linejoin="bevel" points="8329.47,1875.78 8329.47,2130.59" />
<polyline class="Stem" fill="none" stroke="#000000" stroke-width="8.27" stroke-linejoin="bevel" points="9046.7,1063.23 9046.7,786.922" />
<polyline class="Stem" fill="none" stroke="#000000" stroke-width="8.27" stroke-linejoin="bevel" points="8114.93,1917.12 8114.93,2130.59" />
<polyline class="Stem" fill="none" stroke="#000000" stroke-width="8.27" stroke-linejoin="bevel" points="1997.17,1063.23 1997.17,787.085" />
<polyline class="Stem" fill="none" stroke="#000000" stroke-width="8.27" stroke-linejoin="bevel" points="4458.71,800.975 4458.71,1076.12" />
<polyline class="Stem" fill="none" stroke="#000000" stroke-width="8.27" stroke-linejoin="bevel" points="7900.39,1834.44 7900.39,2130.59" />
<polyline class="Stem" fill="none" stroke="#000000" stroke-width="8.27" stroke-linejoin="bevel" points="4814.64,2537.2 4814.64,2812.68" />
<polyline class="Stem" fill="none" stroke="#000000" stroke-width="8.27" stroke-linejoin="bevel" points="1335.89,1793.1 1335.89,2068.58" />
<polyline class="Stem" fill="none" stroke="#000000" stroke-width="8.27" stroke-linejoin="bevel" points="5401.81,2537.2 5401.81,2792.28" />
<polyline class="Stem" fill="none" stroke="#000000" stroke-width="8.27" stroke-linejoin="bevel" points="7550.65,1834.44 7550.65,2088.92" />
<polyline class="Stem" fill="none" stroke="#000000" stroke-width="8.27" stroke-linejoin="bevel" points="1657.69,1793.1 1657.69,2068.25" />
<polyline class="Stem" fill="none" stroke="#000000" stroke-width="8.27" stroke-linejoin="bevel" points="7228.85,1834.44 7228.85,2089.25" />
<polyline class="Stem" fill="none" stroke="#000000" stroke-width="8.27" stroke-linejoin="bevel" points="1872.23,1793.1 1872.23,2068.58" />
<polyline class="Stem" fill="none" stroke="#000000" stroke-width="8.27" stroke-linejoin="bevel" points="7014.31,1875.78 7014.31,2089.06" />
<polyline class="Stem" fill="none" stroke="#000000" stroke-width="8.27" stroke-linejoin="bevel" points="6799.77,1834.44 6799.77,2078.92" />
<polyline class="Stem" fill="none" stroke="#000000" stroke-width="8.27" stroke-linejoin="bevel" points="2194.04,1669.09 2194.04,1944.23" />
<polyline class="Stem" fill="none" stroke="#000000" stroke-width="8.27" stroke-linejoin="bevel" points="6585.23,1793.1 6585.23,2068.78" />
<polyline class="Stem" fill="none" stroke="#000000" stroke-width="8.27" stroke-linejoin="bevel" points="8177.39,2799.45 8177.39,2523.31" />
<polyline class="Stem" fill="none" stroke="#000000" stroke-width="8.27" stroke-linejoin="bevel" points="4073.04,924.991 4073.04,1200.47" />
<polyline class="Stem" fill="none" stroke="#000000" stroke-width="8.27" stroke-linejoin="bevel" points="2543.78,1710.42 2543.78,2006.77" />
<polyline class="Stem" fill="none" stroke="#000000" stroke-width="8.27" stroke-linejoin="bevel" points="5710.6,2578.53 5710.6,2812.68" />
<polyline class="Stem" fill="none" stroke="#000000" stroke-width="8.27" stroke-linejoin="bevel" points="1601.46,1187.24 1601.46,911.762" />
<polyline class="Stem" fill="none" stroke="#000000" stroke-width="8.27" stroke-linejoin="bevel" points="2758.32,1751.76 2758.32,2016.91" />
<polyline class="Stem" fill="none" stroke="#000000" stroke-width="8.27" stroke-linejoin="bevel" points="6235.49,1793.1 6235.49,2027.24" />
<polyline class="Stem" fill="none" stroke="#000000" stroke-width="8.27" stroke-linejoin="bevel" points="2972.86,1793.1 2972.86,2027.05" />
<polyline class="Stem" fill="none" stroke="#000000" stroke-width="8.27" stroke-linejoin="bevel" points="6020.95,1751.76 6020.95,2027.24" />
<polyline class="Stem" fill="none" stroke="#000000" stroke-width="8.27" stroke-linejoin="bevel" points="3187.39,1751.76 3187.39,2027.24" />
<polyline class="Stem" fill="none" stroke="#000000" stroke-width="8.27" stroke-linejoin="bevel" points="5806.42,1793.1 5806.42,2027.24" />
<polyline class="Stem" fill="none" stroke="#000000" stroke-width="8.27" stroke-linejoin="bevel" points="5591.88,1834.44 5591.88,2089.25" />
<polyline class="Stem" fill="none" stroke="#000000" stroke-width="8.27" stroke-linejoin="bevel" points="8640.58,2799.45 8640.58,2523.31" />
<polyline class="Stem" fill="none" stroke="#000000" stroke-width="8.27" stroke-linejoin="bevel" points="3815.94,924.991 3815.94,1200.14" />
<polyline class="Stem" fill="none" stroke="#000000" stroke-width="8.27" stroke-linejoin="bevel" points="3713.57,1793.1 3713.57,2068.58" />
<polyline class="Stem" fill="none" stroke="#000000" stroke-width="8.27" stroke-linejoin="bevel" points="5377.34,1875.78 5377.34,2089.25" />
<polyline class="Stem" fill="none" stroke="#000000" stroke-width="8.27" stroke-linejoin="bevel" points="4035.38,1793.1 4035.38,2068.58" />
<polyline class="Stem" fill="none" stroke="#000000" stroke-width="8.27" stroke-linejoin="bevel" points="5162.8,1793.1 5162.8,2089.25" />
<polyline class="Stem" fill="none" stroke="#000000" stroke-width="8.27" stroke-linejoin="bevel" points="6019.39,2619.87 6019.39,2833.07" />
<polyline class="Stem" fill="none" stroke="#000000" stroke-width="8.27" stroke-linejoin="bevel" points="4813.06,1793.1 4813.06,2068.25" />
<polyline class="Stem" fill="none" stroke="#000000" stroke-width="8.27" stroke-linejoin="bevel" points="6446.41,2661.21 6446.41,2936.83" />
<polyline class="Stem" fill="none" stroke="#000000" stroke-width="8.27" stroke-linejoin="bevel" points="3430.28,924.991 3430.28,1200.47" />
<polyline class="Stem" fill="none" stroke="#000000" stroke-width="8.27" stroke-linejoin="bevel" points="3154.15,1063.23 3154.15,786.922" />
<polyline class="Stem" fill="none" stroke="#000000" stroke-width="8.27" stroke-linejoin="bevel" points="3615.65,2661.21 3615.65,2936.36" />
<path class="Hook" d="M4808.93,2068.25 C4808.93,2070.57 4810.92,2072.55 4813.23,2072.55 C4814.89,2072.55 4816.87,2071.23 4817.2,2069.91 C4817.2,2069.57 4820.18,2057.99 4820.51,2057 C4820.85,2055.67 4823.82,2043.09 4835.74,2023.57 C4848.65,2002.05 4868.51,1986.49 4885.06,1963.32 C4901.28,1940.15 4911.21,1918.31 4911.21,1889.18 C4911.21,1859.06 4904.26,1833.9 4886.71,1801.8 C4885.72,1799.48 4883.74,1798.15 4881.75,1798.15 C4881.09,1798.15 4880.43,1798.15 4880.09,1798.49 C4878.44,1799.15 4877.78,1800.47 4877.78,1802.46 C4877.78,1803.45 4878.11,1805.11 4878.77,1806.43 C4892.01,1837.21 4897.31,1854.76 4897.31,1878.59 C4897.31,1906.06 4887.71,1920.29 4881.75,1930.55 C4860.23,1967.3 4825.48,1985.17 4811.58,1989.8 C4809.26,1990.8 4808.93,1992.45 4808.93,1993.44 L4808.93,2068.25 "/>
<path class="Hook" d="M2189.91,1944.23 C2189.91,1946.55 2191.89,1948.54 2194.21,1948.54 C2195.86,1948.54 2197.85,1947.21 2198.18,1945.89 C2198.18,1945.56 2201.16,1933.97 2201.49,1932.98 C2201.82,1931.66 2204.8,1919.08 2216.72,1899.55 C2229.63,1878.03 2249.49,1862.48 2266.04,1839.31 C2282.26,1816.14 2292.19,1794.29 2292.19,1765.16 C2292.19,1735.04 2285.23,1709.89 2267.69,1677.78 C2266.7,1675.46 2264.71,1674.14 2262.73,1674.14 C2262.06,1674.14 2261.4,1674.14 2261.07,1674.47 C2259.42,1675.13 2258.75,1676.46 2258.75,1678.44 C2258.75,1679.43 2259.09,1681.09 2259.75,1682.41 C2272.99,1713.2 2278.28,1730.74 2278.28,1754.57 C2278.28,1782.04 2268.68,1796.28 2262.73,1806.54 C2241.21,1843.28 2206.46,1861.15 2192.55,1865.79 C2190.24,1866.78 2189.91,1868.44 2189.91,1869.43 L2189.91,1944.23 "/>
<path class="Hook" d="M1597.33,986.238 C1597.33,987.231 1597.66,988.886 1599.98,989.879 C1614.21,994.513 1642.67,1012.39 1664.19,1049.13 C1670.15,1059.39 1679.75,1073.62 1679.75,1101.09 C1679.75,1124.93 1673.46,1149.42 1664.85,1173.25 C1664.19,1175.24 1663.53,1176.89 1663.86,1178.22 C1663.86,1180.2 1665.18,1181.53 1667.17,1181.53 C1669.49,1181.53 1671.14,1180.2 1672.46,1177.89 C1687.36,1151.41 1692.99,1120.62 1692.99,1090.5 C1691.33,1047.8 1666.84,1016.36 1666.84,1016.36 C1667.83,1016.36 1636.39,975.646 1627.45,961.744 C1615.2,942.877 1609.57,924.01 1608.91,922.686 C1608.58,921.693 1605.6,909.777 1605.6,909.777 C1605.27,908.453 1603.62,907.129 1601.63,907.129 C1599.31,907.129 1597.33,909.115 1597.33,911.432 L1597.33,986.238 "/>
<path class="Hook" d="M2378.69,841.553 C2378.69,842.546 2379.03,844.201 2381.34,845.194 C2395.58,849.828 2424.04,867.702 2445.56,904.443 C2451.51,914.704 2461.11,928.937 2461.11,956.41 C2461.11,980.242 2454.82,1004.74 2446.22,1028.57 C2445.56,1030.55 2444.89,1032.21 2445.23,1033.53 C2445.23,1035.52 2446.55,1036.84 2448.54,1036.84 C2450.85,1036.84 2452.51,1035.52 2453.83,1033.2 C2468.73,1006.72 2474.35,975.939 2474.35,945.818 C2472.7,903.119 2448.2,871.674 2448.2,871.674 C2449.2,871.674 2417.75,830.961 2408.82,817.059 C2396.57,798.192 2390.94,779.325 2390.28,778.001 C2389.95,777.008 2386.97,765.092 2386.97,765.092 C2386.64,763.768 2384.98,762.444 2383,762.444 C2380.68,762.444 2378.69,764.43 2378.69,766.747 L2378.69,841.553 "/>
<path class="Hook" d="M3811.8,1200.14 C3811.8,1202.46 3813.79,1204.44 3816.11,1204.44 C3817.76,1204.44 3819.75,1203.12 3820.08,1201.79 C3820.08,1201.46 3823.06,1189.88 3823.39,1188.89 C3823.72,1187.56 3826.7,1174.98 3838.61,1155.45 C3851.52,1133.94 3871.38,1118.38 3887.93,1095.21 C3904.15,1072.04 3914.08,1050.2 3914.08,1021.07 C3914.08,990.948 3907.13,965.792 3889.59,933.685 C3888.59,931.368 3886.61,930.044 3884.62,930.044 C3883.96,930.044 3883.3,930.044 3882.97,930.375 C3881.31,931.037 3880.65,932.361 3880.65,934.347 C3880.65,935.34 3880.98,936.995 3881.64,938.319 C3894.88,969.102 3900.18,986.645 3900.18,1010.48 C3900.18,1037.95 3890.58,1052.18 3884.62,1062.44 C3863.11,1099.18 3828.35,1117.06 3814.45,1121.69 C3812.13,1122.69 3811.8,1124.34 3811.8,1125.33 L3811.8,1200.14 "/>
<path class="Hook" d="M4454.57,1076.12 C4454.57,1078.44 4456.56,1080.43 4458.88,1080.43 C4460.53,1080.43 4462.52,1079.1 4462.85,1077.78 C4462.85,1077.45 4465.83,1065.86 4466.16,1064.87 C4466.49,1063.55 4469.47,1050.97 4481.38,1031.44 C4494.29,1009.92 4514.15,994.367 4530.7,971.197 C4546.92,948.027 4556.85,926.181 4556.85,897.053 C4556.85,866.932 4549.9,841.776 4532.36,809.669 C4531.36,807.352 4529.38,806.028 4527.39,806.028 C4526.73,806.028 4526.07,806.028 4525.74,806.359 C4524.08,807.021 4523.42,808.345 4523.42,810.331 C4523.42,811.324 4523.75,812.979 4524.41,814.303 C4537.65,845.086 4542.95,862.629 4542.95,886.461 C4542.95,913.934 4533.35,928.167 4527.39,938.428 C4505.88,975.169 4471.12,993.043 4457.22,997.677 C4454.9,998.67 4454.57,1000.33 4454.57,1001.32 L4454.57,1076.12 "/>
<path class="Hook" d="M5215.57,1158.8 C5215.57,1161.12 5217.56,1163.1 5219.87,1163.1 C5221.53,1163.1 5223.51,1161.78 5223.85,1160.46 C5223.85,1160.13 5226.82,1148.54 5227.16,1147.55 C5227.49,1146.22 5230.47,1133.65 5242.38,1114.12 C5255.29,1092.6 5275.15,1077.04 5291.7,1053.87 C5307.92,1030.7 5317.85,1008.86 5317.85,979.73 C5317.85,949.609 5310.9,924.453 5293.36,892.346 C5292.36,890.029 5290.38,888.705 5288.39,888.705 C5287.73,888.705 5287.07,888.705 5286.74,889.036 C5285.08,889.698 5284.42,891.022 5284.42,893.008 C5284.42,894.001 5284.75,895.656 5285.41,896.98 C5298.65,927.763 5303.95,945.306 5303.95,969.138 C5303.95,996.611 5294.35,1010.84 5288.39,1021.11 C5266.88,1057.85 5232.12,1075.72 5218.22,1080.35 C5215.9,1081.35 5215.57,1083 5215.57,1084 L5215.57,1158.8 "/>
<path class="Hook" d="M4383.49,2936.36 C4383.49,2938.68 4385.48,2940.66 4387.79,2940.66 C4389.45,2940.66 4391.43,2939.34 4391.77,2938.02 C4391.77,2937.68 4394.74,2926.1 4395.08,2925.11 C4395.41,2923.78 4398.39,2911.2 4410.3,2891.68 C4423.21,2870.16 4443.07,2854.6 4459.62,2831.43 C4475.84,2808.26 4485.77,2786.42 4485.77,2757.29 C4485.77,2727.17 4478.82,2702.01 4461.28,2669.91 C4460.28,2667.59 4458.3,2666.26 4456.31,2666.26 C4455.65,2666.26 4454.99,2666.26 4454.66,2666.6 C4453,2667.26 4452.34,2668.58 4452.34,2670.57 C4452.34,2671.56 4452.67,2673.22 4453.33,2674.54 C4466.57,2705.32 4471.87,2722.87 4471.87,2746.7 C4471.87,2774.17 4462.27,2788.4 4456.31,2798.66 C4434.8,2835.41 4400.04,2853.28 4386.14,2857.91 C4383.82,2858.91 4383.49,2860.56 4383.49,2861.55 L4383.49,2936.36 "/>
<path class="Hook" d="M3611.51,2936.36 C3611.51,2938.68 3613.5,2940.66 3615.82,2940.66 C3617.47,2940.66 3619.46,2939.34 3619.79,2938.02 C3619.79,2937.68 3622.77,2926.1 3623.1,2925.11 C3623.43,2923.78 3626.41,2911.2 3638.33,2891.68 C3651.23,2870.16 3671.09,2854.6 3687.64,2831.43 C3703.86,2808.26 3713.79,2786.42 3713.79,2757.29 C3713.79,2727.17 3706.84,2702.01 3689.3,2669.91 C3688.31,2667.59 3686.32,2666.26 3684.33,2666.26 C3683.67,2666.26 3683.01,2666.26 3682.68,2666.6 C3681.02,2667.26 3680.36,2668.58 3680.36,2670.57 C3680.36,2671.56 3680.69,2673.22 3681.36,2674.54 C3694.6,2705.32 3699.89,2722.87 3699.89,2746.7 C3699.89,2774.17 3690.29,2788.4 3684.33,2798.66 C3662.82,2835.41 3628.06,2853.28 3614.16,2857.91 C3611.85,2858.91 3611.51,2860.56 3611.51,2861.55 L3611.51,2936.36 "/>
<path class="Hook" d="M5858.34,1220.81 C5858.34,1223.13 5860.33,1225.11 5862.64,1225.11 C5864.3,1225.11 5866.28,1223.79 5866.61,1222.46 C5866.61,1222.13 5869.59,1210.55 5869.92,1209.56 C5870.26,1208.23 5873.23,1195.65 5885.15,1176.12 C5898.06,1154.61 5917.92,1139.05 5934.47,1115.88 C5950.69,1092.71 5960.62,1070.87 5960.62,1041.74 C5960.62,1011.62 5953.67,986.461 5936.12,954.354 C5935.13,952.037 5933.15,950.713 5931.16,950.713 C5930.5,950.713 5929.84,950.713 5929.5,951.044 C5927.85,951.706 5927.19,953.03 5927.19,955.016 C5927.19,956.009 5927.52,957.664 5928.18,958.988 C5941.42,989.771 5946.72,1007.31 5946.72,1031.15 C5946.72,1058.62 5937.12,1072.85 5931.16,1083.11 C5909.64,1119.85 5874.89,1137.73 5860.99,1142.36 C5858.67,1143.36 5858.34,1145.01 5858.34,1146 L5858.34,1220.81 "/>
<path class="Hook" d="M2721.31,2936.36 C2721.31,2938.68 2723.3,2940.66 2725.61,2940.66 C2727.27,2940.66 2729.25,2939.34 2729.58,2938.02 C2729.58,2937.68 2732.56,2926.1 2732.89,2925.11 C2733.23,2923.78 2736.2,2911.2 2748.12,2891.68 C2761.03,2870.16 2780.89,2854.6 2797.44,2831.43 C2813.66,2808.26 2823.59,2786.42 2823.59,2757.29 C2823.59,2727.17 2816.64,2702.01 2799.09,2669.91 C2798.1,2667.59 2796.12,2666.26 2794.13,2666.26 C2793.47,2666.26 2792.81,2666.26 2792.47,2666.6 C2790.82,2667.26 2790.16,2668.58 2790.16,2670.57 C2790.16,2671.56 2790.49,2673.22 2791.15,2674.54 C2804.39,2705.32 2809.69,2722.87 2809.69,2746.7 C2809.69,2774.17 2800.09,2788.4 2794.13,2798.66 C2772.61,2835.41 2737.86,2853.28 2723.96,2857.91 C2721.64,2858.91 2721.31,2860.56 2721.31,2861.55 L2721.31,2936.36 "/>
<path class="Hook" d="M7489.87,986.238 C7489.87,987.231 7490.2,988.886 7492.52,989.879 C7506.75,994.513 7535.22,1012.39 7556.74,1049.13 C7562.69,1059.39 7572.29,1073.62 7572.29,1101.09 C7572.29,1124.93 7566,1149.42 7557.4,1173.25 C7556.74,1175.24 7556.07,1176.89 7556.4,1178.22 C7556.4,1180.2 7557.73,1181.53 7559.71,1181.53 C7562.03,1181.53 7563.69,1180.2 7565.01,1177.89 C7579.91,1151.41 7585.53,1120.62 7585.53,1090.5 C7583.88,1047.8 7559.38,1016.36 7559.38,1016.36 C7560.38,1016.36 7528.93,975.646 7519.99,961.744 C7507.75,942.877 7502.12,924.01 7501.46,922.686 C7501.13,921.693 7498.15,909.777 7498.15,909.777 C7497.82,908.453 7496.16,907.129 7494.18,907.129 C7491.86,907.129 7489.87,909.115 7489.87,911.432 L7489.87,986.238 "/>
<path class="Hook" d="M8271.24,841.553 C8271.24,842.546 8271.57,844.201 8273.89,845.194 C8288.12,849.828 8316.59,867.702 8338.1,904.443 C8344.06,914.704 8353.66,928.937 8353.66,956.41 C8353.66,980.242 8347.37,1004.74 8338.76,1028.57 C8338.1,1030.55 8337.44,1032.21 8337.77,1033.53 C8337.77,1035.52 8339.1,1036.84 8341.08,1036.84 C8343.4,1036.84 8345.05,1035.52 8346.38,1033.2 C8361.27,1006.72 8366.9,975.939 8366.9,945.818 C8365.24,903.119 8340.75,871.674 8340.75,871.674 C8341.74,871.674 8310.3,830.961 8301.36,817.059 C8289.11,798.192 8283.49,779.325 8282.83,778.001 C8282.49,777.008 8279.52,765.092 8279.52,765.092 C8279.18,763.768 8277.53,762.444 8275.54,762.444 C8273.23,762.444 8271.24,764.43 8271.24,766.747 L8271.24,841.553 "/>
<path class="Hook" d="M1653.56,2068.25 C1653.56,2070.57 1655.55,2072.55 1657.86,2072.55 C1659.52,2072.55 1661.5,2071.23 1661.84,2069.91 C1661.84,2069.57 1664.81,2057.99 1665.15,2057 C1665.48,2055.67 1668.46,2043.09 1680.37,2023.57 C1693.28,2002.05 1713.14,1986.49 1729.69,1963.32 C1745.91,1940.15 1755.84,1918.31 1755.84,1889.18 C1755.84,1859.06 1748.89,1833.9 1731.35,1801.8 C1730.35,1799.48 1728.37,1798.15 1726.38,1798.15 C1725.72,1798.15 1725.06,1798.15 1724.73,1798.49 C1723.07,1799.15 1722.41,1800.47 1722.41,1802.46 C1722.41,1803.45 1722.74,1805.11 1723.4,1806.43 C1736.64,1837.21 1741.94,1854.76 1741.94,1878.59 C1741.94,1906.06 1732.34,1920.29 1726.38,1930.55 C1704.87,1967.3 1670.11,1985.17 1656.21,1989.8 C1653.89,1990.8 1653.56,1992.45 1653.56,1993.44 L1653.56,2068.25 "/>
<path class="Hook" d="M7546.52,2088.92 C7546.52,2091.24 7548.51,2093.22 7550.82,2093.22 C7552.48,2093.22 7554.46,2091.9 7554.79,2090.57 C7554.79,2090.24 7557.77,2078.66 7558.1,2077.67 C7558.44,2076.34 7561.41,2063.76 7573.33,2044.23 C7586.24,2022.72 7606.1,2007.16 7622.65,1983.99 C7638.87,1960.82 7648.8,1938.98 7648.8,1909.85 C7648.8,1879.73 7641.85,1854.57 7624.3,1822.46 C7623.31,1820.15 7621.33,1818.82 7619.34,1818.82 C7618.68,1818.82 7618.02,1818.82 7617.68,1819.15 C7616.03,1819.82 7615.37,1821.14 7615.37,1823.13 C7615.37,1824.12 7615.7,1825.77 7616.36,1827.1 C7629.6,1857.88 7634.9,1875.42 7634.9,1899.26 C7634.9,1926.73 7625.3,1940.96 7619.34,1951.22 C7597.82,1987.96 7563.07,2005.84 7549.17,2010.47 C7546.85,2011.47 7546.52,2013.12 7546.52,2014.11 L7546.52,2088.92 "/>
<path class="Note" d="M4808.93,1793.11 C4808.93,1807.35 4819.19,1823.23 4846,1823.23 C4880.43,1823.23 4916.5,1795.1 4916.5,1765.97 C4916.5,1746.44 4899.95,1735.52 4879.43,1735.52 C4847.33,1735.52 4808.93,1762.66 4808.93,1793.11"/>
<path class="Note" d="M5706.47,2578.55 C5706.47,2592.78 5716.73,2608.67 5743.54,2608.67 C5777.96,2608.67 5814.04,2580.53 5814.04,2551.4 C5814.04,2531.88 5797.49,2520.95 5776.97,2520.95 C5744.86,2520.95 5706.47,2548.09 5706.47,2578.55"/>
<path class="Note" d="M8537.23,2826.58 C8537.23,2840.81 8547.49,2856.7 8574.3,2856.7 C8608.72,2856.7 8644.8,2828.56 8644.8,2799.44 C8644.8,2779.91 8628.25,2768.98 8607.73,2768.98 C8575.62,2768.98 8537.23,2796.13 8537.23,2826.58"/>
<path class="Note" d="M2539.64,1710.44 C2539.64,1724.67 2549.91,1740.56 2576.72,1740.56 C2611.14,1740.56 2647.22,1712.42 2647.22,1683.29 C2647.22,1663.76 2630.67,1652.84 2610.15,1652.84 C2578.04,1652.84 2539.64,1679.98 2539.64,1710.44"/>
<path class="Note" d="M2189.91,1669.1 C2189.91,1683.33 2200.17,1699.22 2226.98,1699.22 C2261.4,1699.22 2297.48,1671.08 2297.48,1641.96 C2297.48,1622.43 2280.93,1611.5 2260.41,1611.5 C2228.3,1611.5 2189.91,1638.65 2189.91,1669.1"/>
<path class="Note" d="M6581.1,1793.11 C6581.1,1807.35 6591.36,1823.23 6618.17,1823.23 C6652.59,1823.23 6688.67,1795.1 6688.67,1765.97 C6688.67,1746.44 6672.12,1735.52 6651.6,1735.52 C6619.49,1735.52 6581.1,1762.66 6581.1,1793.11"/>
<path class="Note" d="M8074.04,2826.58 C8074.04,2840.81 8084.3,2856.7 8111.12,2856.7 C8145.54,2856.7 8181.62,2828.56 8181.62,2799.44 C8181.62,2779.91 8165.07,2768.98 8144.55,2768.98 C8112.44,2768.98 8074.04,2796.13 8074.04,2826.58"/>
<path class="Note" d="M2754.18,1751.77 C2754.18,1766.01 2764.44,1781.9 2791.25,1781.9 C2825.68,1781.9 2861.76,1753.76 2861.76,1724.63 C2861.76,1705.1 2845.21,1694.18 2824.69,1694.18 C2792.58,1694.18 2754.18,1721.32 2754.18,1751.77"/>
<path class="Note" d="M6795.64,1834.45 C6795.64,1848.68 6805.9,1864.57 6832.71,1864.57 C6867.13,1864.57 6903.21,1836.44 6903.21,1807.31 C6903.21,1787.78 6886.66,1776.86 6866.14,1776.86 C6834.03,1776.86 6795.64,1804 6795.64,1834.45"/>
<path class="Note" d="M1868.1,1793.11 C1868.1,1807.35 1878.36,1823.23 1905.17,1823.23 C1939.59,1823.23 1975.67,1795.1 1975.67,1765.97 C1975.67,1746.44 1959.12,1735.52 1938.6,1735.52 C1906.49,1735.52 1868.1,1762.66 1868.1,1793.11"/>
<path class="Note" d="M7010.17,1875.79 C7010.17,1890.02 7020.43,1905.91 7047.25,1905.91 C7081.67,1905.91 7117.75,1877.78 7117.75,1848.65 C7117.75,1829.12 7101.2,1818.2 7080.68,1818.2 C7048.57,1818.2 7010.17,1845.34 7010.17,1875.79"/>
<path class="Note" d="M1653.56,1793.11 C1653.56,1807.35 1663.82,1823.23 1690.63,1823.23 C1725.06,1823.23 1761.14,1795.1 1761.14,1765.97 C1761.14,1746.44 1744.59,1735.52 1724.06,1735.52 C1691.96,1735.52 1653.56,1762.66 1653.56,1793.11"/>
<path class="Note" d="M7224.71,1834.45 C7224.71,1848.68 7234.97,1864.57 7261.78,1864.57 C7296.21,1864.57 7332.29,1836.44 7332.29,1807.31 C7332.29,1787.78 7315.74,1776.86 7295.22,1776.86 C7263.11,1776.86 7224.71,1804 7224.71,1834.45"/>
<path class="Note" d="M6016.82,1751.77 C6016.82,1766.01 6027.08,1781.9 6053.89,1781.9 C6088.32,1781.9 6124.4,1753.76 6124.4,1724.63 C6124.4,1705.1 6107.85,1694.18 6087.32,1694.18 C6055.22,1694.18 6016.82,1721.32 6016.82,1751.77"/>
<path class="Note" d="M2968.72,1793.11 C2968.72,1807.35 2978.98,1823.23 3005.79,1823.23 C3040.22,1823.23 3076.3,1795.1 3076.3,1765.97 C3076.3,1746.44 3059.75,1735.52 3039.22,1735.52 C3007.12,1735.52 2968.72,1762.66 2968.72,1793.11"/>
<path class="Note" d="M7546.52,1834.45 C7546.52,1848.68 7556.78,1864.57 7583.59,1864.57 C7618.02,1864.57 7654.09,1836.44 7654.09,1807.31 C7654.09,1787.78 7637.54,1776.86 7617.02,1776.86 C7584.92,1776.86 7546.52,1804 7546.52,1834.45"/>
<path class="Note" d="M1331.75,1793.11 C1331.75,1807.35 1342.01,1823.23 1368.82,1823.23 C1403.25,1823.23 1439.33,1795.1 1439.33,1765.97 C1439.33,1746.44 1422.78,1735.52 1402.26,1735.52 C1370.15,1735.52 1331.75,1762.66 1331.75,1793.11"/>
<path class="Note" d="M1498.11,1214.37 C1498.11,1228.61 1508.38,1244.49 1535.19,1244.49 C1569.61,1244.49 1605.69,1216.36 1605.69,1187.23 C1605.69,1167.7 1589.14,1156.78 1568.62,1156.78 C1536.51,1156.78 1498.11,1183.92 1498.11,1214.37"/>
<path class="Note" d="M1893.82,1090.36 C1893.82,1104.59 1904.08,1120.48 1930.89,1120.48 C1965.32,1120.48 2001.39,1092.34 2001.39,1063.22 C2001.39,1043.69 1984.84,1032.76 1964.32,1032.76 C1932.22,1032.76 1893.82,1059.91 1893.82,1090.36"/>
<path class="Note" d="M7896.26,1834.45 C7896.26,1848.68 7906.52,1864.57 7933.33,1864.57 C7967.75,1864.57 8003.83,1836.44 8003.83,1807.31 C8003.83,1787.78 7987.28,1776.86 7966.76,1776.86 C7934.65,1776.86 7896.26,1804 7896.26,1834.45"/>
<path class="Note" d="M4031.24,1793.11 C4031.24,1807.35 4041.5,1823.23 4068.31,1823.23 C4102.74,1823.23 4138.82,1795.1 4138.82,1765.97 C4138.82,1746.44 4122.27,1735.52 4101.74,1735.52 C4069.64,1735.52 4031.24,1762.66 4031.24,1793.11"/>
<path class="Note" d="M8943.35,1090.36 C8943.35,1104.59 8953.61,1120.48 8980.42,1120.48 C9014.85,1120.48 9050.93,1092.34 9050.93,1063.22 C9050.93,1043.69 9034.38,1032.76 9013.85,1032.76 C8981.75,1032.76 8943.35,1059.91 8943.35,1090.36"/>
<path class="Note" d="M8110.8,1917.13 C8110.8,1931.36 8121.06,1947.25 8147.87,1947.25 C8182.29,1947.25 8218.37,1919.11 8218.37,1889.99 C8218.37,1870.46 8201.82,1859.53 8181.3,1859.53 C8149.19,1859.53 8110.8,1886.68 8110.8,1917.13"/>
<path class="Note" d="M8686.24,1049.02 C8686.24,1063.25 8696.5,1079.14 8723.32,1079.14 C8757.74,1079.14 8793.82,1051 8793.82,1021.88 C8793.82,1002.35 8777.27,991.425 8756.75,991.425 C8724.64,991.425 8686.24,1018.57 8686.24,1049.02"/>
<path class="Note" d="M8325.33,1875.79 C8325.33,1890.02 8335.6,1905.91 8362.41,1905.91 C8396.83,1905.91 8432.91,1877.78 8432.91,1848.65 C8432.91,1829.12 8416.36,1818.2 8395.84,1818.2 C8363.73,1818.2 8325.33,1845.34 8325.33,1875.79"/>
<path class="Note" d="M7368.65,2785.24 C7368.65,2799.47 7378.91,2815.36 7405.72,2815.36 C7440.14,2815.36 7476.22,2787.23 7476.22,2758.1 C7476.22,2738.57 7459.67,2727.65 7439.15,2727.65 C7407.04,2727.65 7368.65,2754.79 7368.65,2785.24"/>
<path class="Note" d="M8539.87,1834.45 C8539.87,1848.68 8550.13,1864.57 8576.94,1864.57 C8611.37,1864.57 8647.45,1836.44 8647.45,1807.31 C8647.45,1787.78 8630.9,1776.86 8610.38,1776.86 C8578.27,1776.86 8539.87,1804 8539.87,1834.45"/>
<path class="Note" d="M2279.48,1049.02 C2279.48,1063.25 2289.74,1079.14 2316.55,1079.14 C2350.98,1079.14 2387.06,1051 2387.06,1021.88 C2387.06,1002.35 2370.51,991.425 2349.98,991.425 C2317.88,991.425 2279.48,1018.57 2279.48,1049.02"/>
<path class="Note" d="M8429.14,1007.68 C8429.14,1021.91 8439.4,1037.8 8466.21,1037.8 C8500.63,1037.8 8536.71,1009.67 8536.71,980.538 C8536.71,961.009 8520.16,950.086 8499.64,950.086 C8467.53,950.086 8429.14,977.228 8429.14,1007.68"/>
<path class="Note" d="M8754.41,1793.11 C8754.41,1807.35 8764.67,1823.23 8791.48,1823.23 C8825.91,1823.23 8861.99,1795.1 8861.99,1765.97 C8861.99,1746.44 8845.44,1735.52 8824.91,1735.52 C8792.81,1735.52 8754.41,1762.66 8754.41,1793.11"/>
<path class="Note" d="M8172.03,1049.02 C8172.03,1063.25 8182.29,1079.14 8209.1,1079.14 C8243.52,1079.14 8279.6,1051 8279.6,1021.88 C8279.6,1002.35 8263.05,991.425 8242.53,991.425 C8210.42,991.425 8172.03,1018.57 8172.03,1049.02"/>
<path class="Note" d="M8968.95,1834.45 C8968.95,1848.68 8979.21,1864.57 9006.02,1864.57 C9040.45,1864.57 9076.52,1836.44 9076.52,1807.31 C9076.52,1787.78 9059.97,1776.86 9039.45,1776.86 C9007.35,1776.86 8968.95,1804 8968.95,1834.45"/>
<path class="Note" d="M7059.86,2743.9 C7059.86,2758.13 7070.12,2774.02 7096.93,2774.02 C7131.35,2774.02 7167.43,2745.89 7167.43,2716.76 C7167.43,2697.23 7150.88,2686.31 7130.36,2686.31 C7098.25,2686.31 7059.86,2713.45 7059.86,2743.9"/>
<path class="Note" d="M7786.37,1090.36 C7786.37,1104.59 7796.63,1120.48 7823.44,1120.48 C7857.86,1120.48 7893.94,1092.34 7893.94,1063.22 C7893.94,1043.69 7877.39,1032.76 7856.87,1032.76 C7824.76,1032.76 7786.37,1059.91 7786.37,1090.36"/>
<path class="Note" d="M7390.66,1214.37 C7390.66,1228.61 7400.92,1244.49 7427.73,1244.49 C7462.16,1244.49 7498.24,1216.36 7498.24,1187.23 C7498.24,1167.7 7481.69,1156.78 7461.16,1156.78 C7429.06,1156.78 7390.66,1183.92 7390.66,1214.37"/>
<path class="Note" d="M2536.59,1007.68 C2536.59,1021.91 2546.85,1037.8 2573.66,1037.8 C2608.09,1037.8 2644.16,1009.67 2644.16,980.538 C2644.16,961.009 2627.61,950.086 2607.09,950.086 C2574.99,950.086 2536.59,977.228 2536.59,1007.68"/>
<path class="Note" d="M6751.07,2702.56 C6751.07,2716.79 6761.33,2732.68 6788.14,2732.68 C6822.56,2732.68 6858.64,2704.55 6858.64,2675.42 C6858.64,2655.89 6842.09,2644.97 6821.57,2644.97 C6789.46,2644.97 6751.07,2672.11 6751.07,2702.56"/>
<path class="Note" d="M5802.28,1793.11 C5802.28,1807.35 5812.54,1823.23 5839.35,1823.23 C5873.78,1823.23 5909.86,1795.1 5909.86,1765.97 C5909.86,1746.44 5893.31,1735.52 5872.79,1735.52 C5840.68,1735.52 5802.28,1762.66 5802.28,1793.11"/>
<path class="Note" d="M1331.75,2702.56 C1331.75,2716.79 1342.01,2732.68 1368.82,2732.68 C1403.25,2732.68 1439.33,2704.55 1439.33,2675.42 C1439.33,2655.89 1422.78,2644.97 1402.26,2644.97 C1370.15,2644.97 1331.75,2672.11 1331.75,2702.56"/>
<path class="Note" d="M6442.28,2661.22 C6442.28,2675.46 6452.54,2691.34 6479.35,2691.34 C6513.77,2691.34 6549.85,2663.21 6549.85,2634.08 C6549.85,2614.55 6533.3,2603.63 6512.78,2603.63 C6480.67,2603.63 6442.28,2630.77 6442.28,2661.22"/>
<path class="Note" d="M7005,1090.36 C7005,1104.59 7015.26,1120.48 7042.07,1120.48 C7076.5,1120.48 7112.57,1092.34 7112.57,1063.22 C7112.57,1043.69 7096.02,1032.76 7075.5,1032.76 C7043.4,1032.76 7005,1059.91 7005,1090.36"/>
<path class="Note" d="M1640.54,2743.9 C1640.54,2758.13 1650.8,2774.02 1677.62,2774.02 C1712.04,2774.02 1748.12,2745.89 1748.12,2716.76 C1748.12,2697.23 1731.57,2686.31 1711.05,2686.31 C1678.94,2686.31 1640.54,2713.45 1640.54,2743.9"/>
<path class="Note" d="M6747.89,1007.68 C6747.89,1021.91 6758.15,1037.8 6784.96,1037.8 C6819.39,1037.8 6855.47,1009.67 6855.47,980.538 C6855.47,961.009 6838.92,950.086 6818.39,950.086 C6786.29,950.086 6747.89,977.228 6747.89,1007.68"/>
<path class="Note" d="M1949.33,2785.24 C1949.33,2799.47 1959.59,2815.36 1986.41,2815.36 C2020.83,2815.36 2056.91,2787.23 2056.91,2758.1 C2056.91,2738.57 2040.36,2727.65 2019.84,2727.65 C1987.73,2727.65 1949.33,2754.79 1949.33,2785.24"/>
<path class="Note" d="M6490.78,1049.02 C6490.78,1063.25 6501.05,1079.14 6527.86,1079.14 C6562.28,1079.14 6598.36,1051 6598.36,1021.88 C6598.36,1002.35 6581.81,991.425 6561.29,991.425 C6529.18,991.425 6490.78,1018.57 6490.78,1049.02"/>
<path class="Note" d="M2258.12,2743.9 C2258.12,2758.13 2268.39,2774.02 2295.2,2774.02 C2329.62,2774.02 2365.7,2745.89 2365.7,2716.76 C2365.7,2697.23 2349.15,2686.31 2328.63,2686.31 C2296.52,2686.31 2258.12,2713.45 2258.12,2743.9"/>
<path class="Note" d="M3183.26,1751.77 C3183.26,1766.01 3193.52,1781.9 3220.33,1781.9 C3254.76,1781.9 3290.83,1753.76 3290.83,1724.63 C3290.83,1705.1 3274.28,1694.18 3253.76,1694.18 C3221.66,1694.18 3183.26,1721.32 3183.26,1751.77"/>
<path class="Note" d="M2793.7,1049.02 C2793.7,1063.25 2803.96,1079.14 2830.77,1079.14 C2865.19,1079.14 2901.27,1051 2901.27,1021.88 C2901.27,1002.35 2884.72,991.425 2864.2,991.425 C2832.09,991.425 2793.7,1018.57 2793.7,1049.02"/>
<path class="Note" d="M2721.31,2661.22 C2721.31,2675.46 2731.57,2691.34 2758.38,2691.34 C2792.81,2691.34 2828.88,2663.21 2828.88,2634.08 C2828.88,2614.55 2812.33,2603.63 2791.81,2603.63 C2759.71,2603.63 2721.31,2630.77 2721.31,2661.22"/>
<path class="Note" d="M6233.68,1007.68 C6233.68,1021.91 6243.94,1037.8 6270.75,1037.8 C6305.17,1037.8 6341.25,1009.67 6341.25,980.538 C6341.25,961.009 6324.7,950.086 6304.18,950.086 C6272.07,950.086 6233.68,977.228 6233.68,1007.68"/>
<path class="Note" d="M5858.34,966.341 C5858.34,980.574 5868.6,996.462 5895.41,996.462 C5929.84,996.462 5965.91,968.327 5965.91,939.199 C5965.91,919.67 5949.36,908.747 5928.84,908.747 C5896.74,908.747 5858.34,935.889 5858.34,966.341"/>
<path class="Note" d="M5587.74,1834.45 C5587.74,1848.68 5598,1864.57 5624.82,1864.57 C5659.24,1864.57 5695.32,1836.44 5695.32,1807.31 C5695.32,1787.78 5678.77,1776.86 5658.25,1776.86 C5626.14,1776.86 5587.74,1804 5587.74,1834.45"/>
<path class="Note" d="M3148.33,2537.21 C3148.33,2551.44 3158.59,2567.33 3185.4,2567.33 C3219.82,2567.33 3255.9,2539.19 3255.9,2510.07 C3255.9,2490.54 3239.35,2479.61 3218.83,2479.61 C3186.72,2479.61 3148.33,2506.76 3148.33,2537.21"/>
<path class="Note" d="M3050.81,1090.36 C3050.81,1104.59 3061.07,1120.48 3087.88,1120.48 C3122.3,1120.48 3158.38,1092.34 3158.38,1063.22 C3158.38,1043.69 3141.83,1032.76 3121.31,1032.76 C3089.2,1032.76 3050.81,1059.91 3050.81,1090.36"/>
<path class="Note" d="M5472.68,925.003 C5472.68,939.236 5482.94,955.124 5509.75,955.124 C5544.17,955.124 5580.25,926.989 5580.25,897.861 C5580.25,878.332 5563.7,867.409 5543.18,867.409 C5511.07,867.409 5472.68,894.551 5472.68,925.003"/>
<path class="Note" d="M3611.51,2661.22 C3611.51,2675.46 3621.78,2691.34 3648.59,2691.34 C3683.01,2691.34 3719.09,2663.21 3719.09,2634.08 C3719.09,2614.55 3702.54,2603.63 3682.02,2603.63 C3649.91,2603.63 3611.51,2630.77 3611.51,2661.22"/>
<path class="Note" d="M5215.57,883.664 C5215.57,897.897 5225.83,913.785 5252.64,913.785 C5287.07,913.785 5323.15,885.65 5323.15,856.522 C5323.15,836.993 5306.6,826.07 5286.07,826.07 C5253.97,826.07 5215.57,853.212 5215.57,883.664"/>
<path class="Note" d="M3920.3,2537.21 C3920.3,2551.44 3930.57,2567.33 3957.38,2567.33 C3991.8,2567.33 4027.88,2539.19 4027.88,2510.07 C4027.88,2490.54 4011.33,2479.61 3990.81,2479.61 C3958.7,2479.61 3920.3,2506.76 3920.3,2537.21"/>
<path class="Note" d="M5373.21,1875.79 C5373.21,1890.02 5383.47,1905.91 5410.28,1905.91 C5444.7,1905.91 5480.78,1877.78 5480.78,1848.65 C5480.78,1829.12 5464.23,1818.2 5443.71,1818.2 C5411.6,1818.2 5373.21,1845.34 5373.21,1875.79"/>
<path class="Note" d="M3709.43,1793.11 C3709.43,1807.35 3719.7,1823.23 3746.51,1823.23 C3780.93,1823.23 3817.01,1795.1 3817.01,1765.97 C3817.01,1746.44 3800.46,1735.52 3779.94,1735.52 C3747.83,1735.52 3709.43,1762.66 3709.43,1793.11"/>
<path class="Note" d="M4383.49,2661.22 C4383.49,2675.46 4393.75,2691.34 4420.56,2691.34 C4454.99,2691.34 4491.07,2663.21 4491.07,2634.08 C4491.07,2614.55 4474.52,2603.63 4453.99,2603.63 C4421.89,2603.63 4383.49,2630.77 4383.49,2661.22"/>
<path class="Note" d="M4829.91,842.326 C4829.91,856.559 4840.17,872.447 4866.98,872.447 C4901.4,872.447 4937.48,844.312 4937.48,815.184 C4937.48,795.655 4920.93,784.732 4900.41,784.732 C4868.3,784.732 4829.91,811.874 4829.91,842.326"/>
<path class="Note" d="M4454.57,800.987 C4454.57,815.22 4464.83,831.108 4491.64,831.108 C4526.07,831.108 4562.15,802.973 4562.15,773.845 C4562.15,754.316 4545.6,743.393 4525.08,743.393 C4492.97,743.393 4454.57,770.535 4454.57,800.987"/>
<path class="Note" d="M3426.14,925.003 C3426.14,939.236 3436.4,955.124 3463.21,955.124 C3497.64,955.124 3533.72,926.989 3533.72,897.861 C3533.72,878.332 3517.17,867.409 3496.64,867.409 C3464.54,867.409 3426.14,894.551 3426.14,925.003"/>
<path class="Note" d="M4810.51,2537.21 C4810.51,2551.44 4820.77,2567.33 4847.58,2567.33 C4882.01,2567.33 4918.08,2539.19 4918.08,2510.07 C4918.08,2490.54 4901.53,2479.61 4881.01,2479.61 C4848.91,2479.61 4810.51,2506.76 4810.51,2537.21"/>
<path class="Note" d="M6015.26,2619.88 C6015.26,2634.12 6025.52,2650.01 6052.33,2650.01 C6086.75,2650.01 6122.83,2621.87 6122.83,2592.74 C6122.83,2573.21 6106.28,2562.29 6085.76,2562.29 C6053.65,2562.29 6015.26,2589.43 6015.26,2619.88"/>
<path class="Note" d="M4068.91,925.003 C4068.91,939.236 4079.17,955.124 4105.98,955.124 C4140.41,955.124 4176.49,926.989 4176.49,897.861 C4176.49,878.332 4159.94,867.409 4139.41,867.409 C4107.31,867.409 4068.91,894.551 4068.91,925.003"/>
<path class="Note" d="M5397.68,2537.21 C5397.68,2551.44 5407.94,2567.33 5434.75,2567.33 C5469.17,2567.33 5505.25,2539.19 5505.25,2510.07 C5505.25,2490.54 5488.7,2479.61 5468.18,2479.61 C5436.07,2479.61 5397.68,2506.76 5397.68,2537.21"/>
<path class="Note" d="M5158.67,1793.11 C5158.67,1807.35 5168.93,1823.23 5195.74,1823.23 C5230.16,1823.23 5266.24,1795.1 5266.24,1765.97 C5266.24,1746.44 5249.69,1735.52 5229.17,1735.52 C5197.06,1735.52 5158.67,1762.66 5158.67,1793.11"/>
<path class="Note" d="M3811.8,925.003 C3811.8,939.236 3822.06,955.124 3848.87,955.124 C3883.3,955.124 3919.38,926.989 3919.38,897.861 C3919.38,878.332 3902.83,867.409 3882.31,867.409 C3850.2,867.409 3811.8,894.551 3811.8,925.003"/>
<path class="Note" d="M6231.36,1793.11 C6231.36,1807.35 6241.62,1823.23 6268.43,1823.23 C6302.86,1823.23 6338.93,1795.1 6338.93,1765.97 C6338.93,1746.44 6322.38,1735.52 6301.86,1735.52 C6269.76,1735.52 6231.36,1762.66 6231.36,1793.11"/>
<path class="Clef" d="M909.689,1144.64 C903.069,1145.97 896.78,1146.63 890.491,1146.63 C843.158,1146.63 802.776,1113.53 802.776,1063.55 C802.776,1023.16 831.242,987.085 860.37,961.929 C865.997,956.964 871.293,952.33 876.258,947.365 C879.237,965.239 881.554,980.796 883.871,994.367 C853.75,1003.3 833.228,1035.08 833.228,1066.19 C833.228,1089.36 851.433,1121.14 877.913,1121.14 C880.561,1121.14 883.54,1119.82 883.54,1116.84 C883.54,1113.86 880.23,1112.2 876.258,1109.56 C863.349,1101.61 856.067,1093.01 856.067,1076.79 C856.067,1056.6 870.962,1040.38 890.491,1035.74 L909.689,1144.64 M880.561,804.373 C883.54,791.133 898.766,756.378 915.978,756.378 C920.943,756.378 928.887,772.597 928.887,795.436 C928.887,829.86 903.4,855.678 880.561,878.186 C878.575,864.946 876.92,852.037 876.92,838.135 C876.92,825.888 877.913,814.634 880.561,804.373 M956.691,1083.41 C956.691,1106.91 947.092,1131.07 923.591,1140.67 C916.64,1100.95 907.703,1048.32 905.386,1033.76 C935.176,1033.76 956.691,1053.95 956.691,1083.41 M811.051,1246.26 C811.051,1268.1 827.932,1296.9 872.617,1296.9 C888.174,1296.9 901.745,1292.93 913.661,1285.65 C931.535,1273.07 936.169,1251.22 936.169,1230.37 C936.169,1217.46 934.183,1202.57 930.873,1183.7 C929.88,1177.08 927.894,1167.15 925.908,1154.24 C958.346,1143.65 982.509,1109.89 982.509,1075.79 C982.509,1025.81 947.092,992.05 898.766,992.05 C895.456,972.19 892.146,952.661 889.167,934.125 C924.253,897.384 948.416,856.009 948.416,803.38 C948.416,773.259 939.148,748.765 933.852,736.849 C925.908,719.968 916.309,708.383 910.351,708.383 C908.034,708.383 897.773,712.355 886.85,725.264 C865.666,750.42 859.708,792.788 859.708,820.592 C859.708,838.466 861.363,854.685 866.99,891.757 C866.659,892.088 849.447,909.631 842.496,915.258 C812.375,943.393 770.669,983.444 770.669,1049.64 C770.669,1111.54 824.622,1160.2 886.188,1160.2 C895.787,1160.2 904.724,1159.21 912.337,1157.88 C918.626,1189.66 922.267,1212.83 922.267,1230.37 C922.267,1264.79 904.724,1283 871.293,1283 C863.349,1283 856.398,1281.34 855.736,1281.34 C855.405,1281.01 854.743,1280.68 854.743,1280.35 C854.743,1279.69 855.405,1279.36 856.398,1279.03 C871.955,1276.71 887.512,1263.47 887.512,1242.29 C887.512,1224.41 873.941,1205.55 849.116,1205.55 C825.946,1205.55 811.051,1224.41 811.051,1246.26"/>
<path class="Clef" d="M909.689,2012.75 C903.069,2014.08 896.78,2014.74 890.491,2014.74 C843.158,2014.74 802.776,1981.64 802.776,1931.66 C802.776,1891.27 831.242,1855.2 860.37,1830.04 C865.997,1825.07 871.293,1820.44 876.258,1815.48 C879.237,1833.35 881.554,1848.91 883.871,1862.48 C853.75,1871.41 833.228,1903.19 833.228,1934.3 C833.228,1957.47 851.433,1989.25 877.913,1989.25 C880.561,1989.25 883.54,1987.93 883.54,1984.95 C883.54,1981.97 880.23,1980.31 876.258,1977.67 C863.349,1969.72 856.067,1961.12 856.067,1944.9 C856.067,1924.71 870.962,1908.49 890.491,1903.85 L909.689,2012.75 M880.561,1672.48 C883.54,1659.24 898.766,1624.49 915.978,1624.49 C920.943,1624.49 928.887,1640.71 928.887,1663.55 C928.887,1697.97 903.4,1723.79 880.561,1746.3 C878.575,1733.06 876.92,1720.15 876.92,1706.25 C876.92,1694 877.913,1682.74 880.561,1672.48 M956.691,1951.52 C956.691,1975.02 947.092,1999.18 923.591,2008.78 C916.64,1969.06 907.703,1916.43 905.386,1901.87 C935.176,1901.87 956.691,1922.06 956.691,1951.52 M811.051,2114.37 C811.051,2136.21 827.932,2165.01 872.617,2165.01 C888.174,2165.01 901.745,2161.04 913.661,2153.76 C931.535,2141.18 936.169,2119.33 936.169,2098.48 C936.169,2085.57 934.183,2070.68 930.873,2051.81 C929.88,2045.19 927.894,2035.26 925.908,2022.35 C958.346,2011.76 982.509,1978 982.509,1943.9 C982.509,1893.92 947.092,1860.16 898.766,1860.16 C895.456,1840.3 892.146,1820.77 889.167,1802.24 C924.253,1765.49 948.416,1724.12 948.416,1671.49 C948.416,1641.37 939.148,1616.88 933.852,1604.96 C925.908,1588.08 916.309,1576.49 910.351,1576.49 C908.034,1576.49 897.773,1580.47 886.85,1593.37 C865.666,1618.53 859.708,1660.9 859.708,1688.7 C859.708,1706.58 861.363,1722.8 866.99,1759.87 C866.659,1760.2 849.447,1777.74 842.496,1783.37 C812.375,1811.5 770.669,1851.55 770.669,1917.75 C770.669,1979.65 824.622,2028.31 886.188,2028.31 C895.787,2028.31 904.724,2027.32 912.337,2025.99 C918.626,2057.77 922.267,2080.94 922.267,2098.48 C922.267,2132.9 904.724,2151.11 871.293,2151.11 C863.349,2151.11 856.398,2149.45 855.736,2149.45 C855.405,2149.12 854.743,2148.79 854.743,2148.46 C854.743,2147.8 855.405,2147.47 856.398,2147.14 C871.955,2144.82 887.512,2131.58 887.512,2110.4 C887.512,2092.52 873.941,2073.66 849.116,2073.66 C825.946,2073.66 811.051,2092.52 811.051,2114.37"/>
<path class="Clef" d="M909.689,2880.86 C903.069,2882.19 896.78,2882.85 890.491,2882.85 C843.158,2882.85 802.776,2849.75 802.776,2799.77 C802.776,2759.38 831.242,2723.31 860.37,2698.15 C865.997,2693.18 871.293,2688.55 876.258,2683.59 C879.237,2701.46 881.554,2717.02 883.871,2730.59 C853.75,2739.52 833.228,2771.3 833.228,2802.41 C833.228,2825.58 851.433,2857.36 877.913,2857.36 C880.561,2857.36 883.54,2856.04 883.54,2853.06 C883.54,2850.08 880.23,2848.42 876.258,2845.78 C863.349,2837.83 856.067,2829.23 856.067,2813.01 C856.067,2792.82 870.962,2776.6 890.491,2771.96 L909.689,2880.86 M880.561,2540.59 C883.54,2527.35 898.766,2492.6 915.978,2492.6 C920.943,2492.6 928.887,2508.82 928.887,2531.66 C928.887,2566.08 903.4,2591.9 880.561,2614.41 C878.575,2601.17 876.92,2588.26 876.92,2574.36 C876.92,2562.11 877.913,2550.85 880.561,2540.59 M956.691,2819.63 C956.691,2843.13 947.092,2867.29 923.591,2876.89 C916.64,2837.17 907.703,2784.54 905.386,2769.98 C935.176,2769.98 956.691,2790.17 956.691,2819.63 M811.051,2982.48 C811.051,3004.32 827.932,3033.12 872.617,3033.12 C888.174,3033.12 901.745,3029.15 913.661,3021.87 C931.535,3009.29 936.169,2987.44 936.169,2966.59 C936.169,2953.68 934.183,2938.79 930.873,2919.92 C929.88,2913.3 927.894,2903.37 925.908,2890.46 C958.346,2879.87 982.509,2846.11 982.509,2812.01 C982.509,2762.03 947.092,2728.27 898.766,2728.27 C895.456,2708.41 892.146,2688.88 889.167,2670.35 C924.253,2633.6 948.416,2592.23 948.416,2539.6 C948.416,2509.48 939.148,2484.99 933.852,2473.07 C925.908,2456.19 916.309,2444.6 910.351,2444.6 C908.034,2444.6 897.773,2448.58 886.85,2461.48 C865.666,2486.64 859.708,2529.01 859.708,2556.81 C859.708,2574.69 861.363,2590.91 866.99,2627.98 C866.659,2628.31 849.447,2645.85 842.496,2651.48 C812.375,2679.61 770.669,2719.66 770.669,2785.86 C770.669,2847.76 824.622,2896.42 886.188,2896.42 C895.787,2896.42 904.724,2895.43 912.337,2894.1 C918.626,2925.88 922.267,2949.05 922.267,2966.59 C922.267,3001.01 904.724,3019.22 871.293,3019.22 C863.349,3019.22 856.398,3017.56 855.736,3017.56 C855.405,3017.23 854.743,3016.9 854.743,3016.57 C854.743,3015.91 855.405,3015.58 856.398,3015.25 C871.955,3012.93 887.512,2999.69 887.512,2978.51 C887.512,2960.63 873.941,2941.77 849.116,2941.77 C825.946,2941.77 811.051,2960.63 811.051,2982.48"/>
<path class="KeySig" d="M1070.17,2540.15 L1099.63,2534.19 L1099.63,2588.81 L1070.17,2595.1 L1070.17,2540.15 M1121.48,2529.89 C1123.47,2529.56 1125.12,2527.24 1125.12,2525.26 L1125.12,2505.73 C1125.12,2503.08 1123.13,2501.09 1120.49,2501.09 L1119.82,2501.09 L1108.9,2503.41 L1108.9,2454.09 L1099.63,2454.09 L1099.63,2505.4 L1070.17,2511.35 L1070.17,2464.68 L1060.91,2464.68 L1060.91,2513.34 L1048,2515.99 C1046.01,2516.32 1044.36,2518.64 1044.36,2520.62 L1044.36,2539.82 C1044.36,2542.47 1046.34,2544.45 1048.99,2544.45 L1049.98,2544.45 L1060.91,2542.14 L1060.91,2596.75 L1048,2599.4 C1046.01,2599.73 1044.36,2602.05 1044.36,2604.03 L1044.36,2623.23 C1044.36,2625.88 1046.34,2627.87 1048.99,2627.87 L1049.98,2627.87 L1060.91,2625.55 L1060.91,2674.87 L1070.17,2674.87 L1070.17,2623.56 L1099.63,2617.6 L1099.63,2664.28 L1108.9,2664.28 L1108.9,2615.62 L1121.48,2613.3 C1123.47,2612.97 1125.12,2610.65 1125.12,2608.67 L1125.12,2589.14 C1125.12,2586.49 1123.13,2584.5 1120.49,2584.5 L1119.82,2584.5 L1108.9,2586.82 L1108.9,2532.21 L1121.48,2529.89 "/>
<path class="KeySig" d="M1070.17,803.93 L1099.63,797.972 L1099.63,852.587 L1070.17,858.876 L1070.17,803.93 M1121.48,793.669 C1123.47,793.338 1125.12,791.021 1125.12,789.035 L1125.12,769.506 C1125.12,766.858 1123.13,764.872 1120.49,764.872 L1119.82,764.872 L1108.9,767.189 L1108.9,717.87 L1099.63,717.87 L1099.63,769.175 L1070.17,775.133 L1070.17,728.462 L1060.91,728.462 L1060.91,777.119 L1048,779.767 C1046.01,780.098 1044.36,782.415 1044.36,784.401 L1044.36,803.599 C1044.36,806.247 1046.34,808.233 1048.99,808.233 L1049.98,808.233 L1060.91,805.916 L1060.91,860.531 L1048,863.179 C1046.01,863.51 1044.36,865.827 1044.36,867.813 L1044.36,887.011 C1044.36,889.659 1046.34,891.645 1048.99,891.645 L1049.98,891.645 L1060.91,889.328 L1060.91,938.647 L1070.17,938.647 L1070.17,887.342 L1099.63,881.384 L1099.63,928.055 L1108.9,928.055 L1108.9,879.398 L1121.48,877.081 C1123.47,876.75 1125.12,874.433 1125.12,872.447 L1125.12,852.918 C1125.12,850.27 1123.13,848.284 1120.49,848.284 L1119.82,848.284 L1108.9,850.601 L1108.9,795.986 L1121.48,793.669 "/>
<path class="KeySig" d="M1070.17,1672.04 L1099.63,1666.08 L1099.63,1720.7 L1070.17,1726.99 L1070.17,1672.04 M1121.48,1661.78 C1123.47,1661.45 1125.12,1659.13 1125.12,1657.14 L1125.12,1637.62 C1125.12,1634.97 1123.13,1632.98 1120.49,1632.98 L1119.82,1632.98 L1108.9,1635.3 L1108.9,1585.98 L1099.63,1585.98 L1099.63,1637.28 L1070.17,1643.24 L1070.17,1596.57 L1060.91,1596.57 L1060.91,1645.23 L1048,1647.88 C1046.01,1648.21 1044.36,1650.52 1044.36,1652.51 L1044.36,1671.71 C1044.36,1674.36 1046.34,1676.34 1048.99,1676.34 L1049.98,1676.34 L1060.91,1674.03 L1060.91,1728.64 L1048,1731.29 C1046.01,1731.62 1044.36,1733.94 1044.36,1735.92 L1044.36,1755.12 C1044.36,1757.77 1046.34,1759.75 1048.99,1759.75 L1049.98,1759.75 L1060.91,1757.44 L1060.91,1806.76 L1070.17,1806.76 L1070.17,1755.45 L1099.63,1749.49 L1099.63,1796.16 L1108.9,1796.16 L1108.9,1747.51 L1121.48,1745.19 C1123.47,1744.86 1125.12,1742.54 1125.12,1740.56 L1125.12,1721.03 C1125.12,1718.38 1123.13,1716.39 1120.49,1716.39 L1119.82,1716.39 L1108.9,1718.71 L1108.9,1664.1 L1121.48,1661.78 "/>
<path class="TimeSig" d="M1273.27,979.772 C1262.35,979.772 1253.41,964.877 1253.41,946.341 C1253.41,927.805 1262.35,912.579 1273.27,912.579 C1284.19,912.579 1293.46,927.805 1293.46,946.341 C1293.46,964.877 1284.19,979.772 1273.27,979.772 M1285.52,897.022 C1265.33,897.022 1258.04,902.98 1253.41,907.945 C1252.42,900.994 1251.76,895.698 1251.76,890.402 C1251.76,871.535 1258.38,847.041 1281.55,847.041 C1289.82,847.041 1294.79,849.689 1298.1,853.33 C1291.14,856.309 1285.52,865.246 1285.52,872.859 C1285.52,884.775 1294.79,894.043 1306.7,894.043 C1318.62,894.043 1328.22,884.775 1328.22,872.859 L1328.22,871.866 C1328.22,868.887 1327.55,863.922 1326.23,861.274 C1321.93,849.358 1308.03,831.815 1274.93,831.815 C1245.14,831.815 1223.62,860.281 1217,875.507 C1213.69,883.451 1208.73,899.67 1208.73,918.206 C1208.73,938.397 1214.35,961.236 1233.88,978.448 C1253.08,993.012 1265.33,993.674 1276.91,993.674 C1288.5,993.674 1331.86,980.103 1331.86,941.707 C1331.86,909.269 1306.37,897.022 1285.52,897.022"/>
<path class="TimeSig" d="M1291.48,1060.58 C1268.98,1053.3 1244.15,1042.37 1244.15,1027.48 C1244.15,1014.57 1256.07,1009.27 1270.3,1009.27 C1290.82,1009.27 1304.72,1018.87 1304.72,1034.1 C1304.72,1049.99 1297.44,1057.6 1291.48,1060.58 M1270.3,1139.03 C1249.12,1139.03 1230.91,1127.44 1230.91,1108.9 C1230.91,1086.73 1248.12,1081.43 1248.12,1081.43 C1270.63,1089.04 1302.74,1100.3 1302.74,1118.5 C1302.74,1127.44 1291.15,1139.03 1270.3,1139.03 M1310.02,1069.52 C1320.94,1061.24 1328.56,1050.65 1328.56,1037.41 C1328.56,1013.58 1302.41,994.047 1270.3,994.047 C1238.19,994.047 1212.04,1013.58 1212.04,1037.41 C1212.04,1050.65 1215.35,1062.56 1230.91,1072.49 C1216.02,1081.1 1207.74,1093.35 1207.74,1109.24 C1207.74,1136.05 1235.88,1157.56 1270.3,1157.56 C1304.72,1157.56 1332.86,1136.05 1332.86,1109.24 C1332.86,1093.35 1327.23,1078.45 1310.02,1069.52"/>
<path class="Beam" fill-rule="evenodd" d="M8528.35,745.73 L9050.83,766.4 L9050.83,807.771 L8528.35,787.101 L8528.35,745.73 "/>
<path class="Beam" fill-rule="evenodd" d="M2635.8,745.73 L3158.29,766.4 L3158.29,807.771 L2635.8,787.101 L2635.8,745.73 "/>
<path class="Beam" fill-rule="evenodd" d="M6442.28,2916.01 L7068.12,2936.68 L7068.12,2978.04 L6442.28,2957.37 L6442.28,2916.01 "/>
<path class="Beam" fill-rule="evenodd" d="M5802.28,2006.57 L6239.63,2006.57 L6239.63,2047.91 L5802.28,2047.91 L5802.28,2006.57 "/>
<path class="Beam" fill-rule="evenodd" d="M8539.87,2027.24 L8977.22,2027.24 L8977.22,2068.58 L8539.87,2068.58 L8539.87,2027.24 "/>
<path class="Beam" fill-rule="evenodd" d="M1331.75,2936.65 L1957.6,2977.98 L1957.6,3019.41 L1331.75,2978.08 L1331.75,2936.65 "/>
<path class="Beam" fill-rule="evenodd" d="M7896.26,2109.92 L8333.6,2109.92 L8333.6,2151.26 L7896.26,2151.26 L7896.26,2109.92 "/>
<path class="Beam" fill-rule="evenodd" d="M6332.89,745.747 L6855.37,745.747 L6855.37,787.085 L6332.89,787.085 L6332.89,745.747 "/>
<path class="Beam" fill-rule="evenodd" d="M6581.1,2047.89 L7018.44,2068.56 L7018.44,2109.94 L6581.1,2089.27 L6581.1,2047.89 "/>
<path class="Beam" fill-rule="evenodd" d="M2539.64,1985.88 L2976.99,2006.55 L2976.99,2047.93 L2539.64,2027.27 L2539.64,1985.88 "/>
<path class="Beam" fill-rule="evenodd" d="M5158.67,2068.58 L5596.01,2068.58 L5596.01,2109.92 L5158.67,2109.92 L5158.67,2068.58 "/>
<path class="Beam" fill-rule="evenodd" d="M5397.68,2771.29 L6023.53,2812.63 L6023.53,2854.06 L5397.68,2812.72 L5397.68,2771.29 "/>
<path class="NoteDot" d="M7517.48,2771.34 C7517.48,2780.61 7524.76,2787.89 7534.03,2787.89 C7543.3,2787.89 7550.58,2780.61 7550.58,2771.34 C7550.58,2762.07 7543.3,2754.79 7534.03,2754.79 C7524.76,2754.79 7517.48,2762.07 7517.48,2771.34"/>
<path class="NoteDot" d="M3332.09,1737.87 C3332.09,1747.14 3339.37,1754.42 3348.64,1754.42 C3357.91,1754.42 3365.19,1747.14 3365.19,1737.87 C3365.19,1728.6 3357.91,1721.32 3348.64,1721.32 C3339.37,1721.32 3332.09,1728.6 3332.09,1737.87"/>
<path class="NoteDot" d="M4180.07,1737.87 C4180.07,1747.14 4187.36,1754.42 4196.62,1754.42 C4205.89,1754.42 4213.17,1747.14 4213.17,1737.87 C4213.17,1728.6 4205.89,1721.32 4196.62,1721.32 C4187.36,1721.32 4180.07,1728.6 4180.07,1737.87"/>
<path class="NoteDot" d="M8686.06,2771.34 C8686.06,2780.61 8693.34,2787.89 8702.61,2787.89 C8711.88,2787.89 8719.16,2780.61 8719.16,2771.34 C8719.16,2762.07 8711.88,2754.79 8702.61,2754.79 C8693.34,2754.79 8686.06,2762.07 8686.06,2771.34"/>
<path class="NoteDot" d="M4959.34,2523.31 C4959.34,2532.57 4966.62,2539.86 4975.89,2539.86 C4985.16,2539.86 4992.44,2532.57 4992.44,2523.31 C4992.44,2514.04 4985.16,2506.76 4975.89,2506.76 C4966.62,2506.76 4959.34,2514.04 4959.34,2523.31"/>
</svg>
