<?xml version="1.0" encoding="UTF-8" standalone="no"?>
<svg width="210.058mm" height="296.926mm" viewBox="0 0 9924 14028"
 xmlns="http://www.w3.org/2000/svg" xmlns:xlink="http://www.w3.org/1999/xlink" version="1.2" baseProfile="full">
<title>air_XLIII</title>
<desc>Generated by MuseScore Studio 4.7.3</desc>
<polyline class="StaffLines" fill="none" stroke="#000000" stroke-width="9.09" stroke-linejoin="bevel" points="708.661,828.424 9215.34,828.424" />
<polyline class="StaffLines" fill="none" stroke="#000000" stroke-width="9.09" stroke-linejoin="bevel" points="708.661,911.101 9215.34,911.101" />
<polyline class="StaffLines" fill="none" stroke="#000000" stroke-width="9.09" stroke-linejoin="bevel" points="708.661,993.778 9215.34,993.778" />
<polyline class="StaffLines" fill="none" stroke="#000000" stroke-width="9.09" stroke-linejoin="bevel" points="708.661,1076.46 9215.34,1076.46" />
<polyline class="StaffLines" fill="none" stroke="#000000" stroke-width="9.09" stroke-linejoin="bevel" points="708.661,1159.13 9215.34,1159.13" />
<polyline class="StaffLines" fill="none" stroke="#000000" stroke-width="9.09" stroke-linejoin="bevel" points="708.661,1696.53 9215.34,1696.53" />
<polyline class="StaffLines" fill="none" stroke="#000000" stroke-width="9.09" stroke-linejoin="bevel" points="708.661,1779.21 9215.34,1779.21" />
<polyline class="StaffLines" fill="none" stroke="#000000" stroke-width="9.09" stroke-linejoin="bevel" points="708.661,1861.89 9215.34,1861.89" />
<polyline class="StaffLines" fill="none" stroke="#000000" stroke-width="9.09" stroke-linejoin="bevel" points="708.661,1944.57 9215.34,1944.57" />
<polyline class="StaffLines" fill="none" stroke="#000000" stroke-width="9.09" stroke-linejoin="bevel" points="708.661,2027.24 9215.34,2027.24" />
<polyline class="StaffLines" fill="none" stroke="#000000" stroke-width="9.09" stroke-linejoin="bevel" points="708.661,2564.64 9215.34,2564.64" />
<polyline class="StaffLines" fill="none" stroke="#000000" stroke-width="9.09" stroke-linejoin="bevel" points="708.661,2647.32 9215.34,2647.32" />
<polyline class="StaffLines" fill="none" stroke="#000000" stroke-width="9.09" stroke-linejoin="bevel" points="708.661,2730 9215.34,2730" />
<polyline class="StaffLines" fill="none" stroke="#000000" stroke-width="9.09" stroke-linejoin="bevel" points="708.661,2812.68 9215.34,2812.68" />
<polyline class="StaffLines" fill="none" stroke="#000000" stroke-width="9.09" stroke-linejoin="bevel" points="708.661,2895.35 9215.34,2895.35" />
<polyline class="BarLine" fill="none" stroke="#000000" stroke-width="14.88" stroke-linejoin="bevel" points="5231.25,823.876 5231.25,1163.68" />
<polyline class="BarLine" fill="none" stroke="#000000" stroke-width="14.88" stroke-linejoin="bevel" points="7440.51,2560.1 7440.51,2899.9" />
<polyline class="BarLine" fill="none" stroke="#000000" stroke-width="14.88" stroke-linejoin="bevel" points="5479.04,2560.1 5479.04,2899.9" />
<polyline class="BarLine" fill="none" stroke="#000000" stroke-width="14.88" stroke-linejoin="bevel" points="1828.5,823.876 1828.5,1163.68" />
<polyline class="BarLine" fill="none" stroke="#000000" stroke-width="14.88" stroke-linejoin="bevel" points="3350,2560.1 3350,2899.9" />
<polyline class="BarLine" fill="none" stroke="#000000" stroke-width="14.88" stroke-linejoin="bevel" points="9207.9,1691.99 9207.9,2031.79" />
<polyline class="BarLine" fill="none" stroke="#000000" stroke-width="14.88" stroke-linejoin="bevel" points="7211.17,1691.99 7211.17,2031.79" />
<polyline class="BarLine" fill="none" stroke="#000000" stroke-width="14.88" stroke-linejoin="bevel" points="5043.66,1691.99 5043.66,2031.79" />
<path class="BarLine" d="M9093.83,2688.66 C9093.83,2679.06 9086.22,2671.12 9076.62,2671.12 C9067.02,2671.12 9059.41,2679.06 9059.41,2688.66 C9059.41,2698.26 9067.02,2706.2 9076.62,2706.2 C9086.22,2706.2 9093.83,2698.26 9093.83,2688.66"/>
<path class="BarLine" d="M9093.83,2771.34 C9093.83,2761.74 9086.22,2753.79 9076.62,2753.79 C9067.02,2753.79 9059.41,2761.74 9059.41,2771.34 C9059.41,2780.94 9067.02,2788.88 9076.62,2788.88 C9086.22,2788.88 9093.83,2780.94 9093.83,2771.34"/>
<polyline class="BarLine" fill="none" stroke="#000000" stroke-width="14.88" stroke-linejoin="bevel" points="9131.84,2560.1 9131.84,2899.9" />
<polyline class="BarLine" fill="none" stroke="#000000" stroke-width="45.47" stroke-linejoin="bevel" points="9192.6,2560.1 9192.6,2899.9" />
<polyline class="BarLine" fill="none" stroke="#000000" stroke-width="14.88" stroke-linejoin="bevel" points="7034.71,823.876 7034.71,1163.68" />
<path class="BarLine" d="M8558.74,952.439 C8558.74,942.84 8551.12,934.896 8541.53,934.896 C8531.93,934.896 8524.31,942.84 8524.31,952.439 C8524.31,962.038 8531.93,969.982 8541.53,969.982 C8551.12,969.982 8558.74,962.038 8558.74,952.439"/>
<path class="BarLine" d="M8558.74,1035.12 C8558.74,1025.52 8551.12,1017.57 8541.53,1017.57 C8531.93,1017.57 8524.31,1025.52 8524.31,1035.12 C8524.31,1044.72 8531.93,1052.66 8541.53,1052.66 C8551.12,1052.66 8558.74,1044.72 8558.74,1035.12"/>
<polyline class="BarLine" fill="none" stroke="#000000" stroke-width="14.88" stroke-linejoin="bevel" points="8596.74,823.876 8596.74,1163.68" />
<polyline class="BarLine" fill="none" stroke="#000000" stroke-width="45.47" stroke-linejoin="bevel" points="8657.51,823.876 8657.51,1163.68" />
<polyline class="BarLine" fill="none" stroke="#000000" stroke-width="45.47" stroke-linejoin="bevel" points="8657.51,823.876 8657.51,1163.68" />
<polyline class="BarLine" fill="none" stroke="#000000" stroke-width="14.88" stroke-linejoin="bevel" points="8718.28,823.876 8718.28,1163.68" />
<path class="BarLine" d="M8790.73,952.439 C8790.73,942.84 8783.12,934.896 8773.52,934.896 C8763.92,934.896 8756.31,942.84 8756.31,952.439 C8756.31,962.038 8763.92,969.982 8773.52,969.982 C8783.12,969.982 8790.73,962.038 8790.73,952.439"/>
<path class="BarLine" d="M8790.73,1035.12 C8790.73,1025.52 8783.12,1017.57 8773.52,1017.57 C8763.92,1017.57 8756.31,1025.52 8756.31,1035.12 C8756.31,1044.72 8763.92,1052.66 8773.52,1052.66 C8783.12,1052.66 8790.73,1044.72 8790.73,1035.12"/>
<polyline class="BarLine" fill="none" stroke="#000000" stroke-width="14.88" stroke-linejoin="bevel" points="9207.9,823.876 9207.9,1163.68" />
<polyline class="BarLine" fill="none" stroke="#000000" stroke-width="14.88" stroke-linejoin="bevel" points="3631.3,823.876 3631.3,1163.68" />
<polyline class="BarLine" fill="none" stroke="#000000" stroke-width="14.88" stroke-linejoin="bevel" points="3046.93,1691.99 3046.93,2031.79" />
<path class="Accidental" d="M3764.58,1728.64 L3764.58,1674.36 L3802.97,1663.43 L3802.97,1718.05 L3764.58,1728.64 M3810.26,1635.96 C3809.59,1635.3 3808.6,1634.97 3807.61,1634.97 C3807.28,1634.97 3806.62,1635.3 3806.28,1635.3 L3764.58,1646.88 L3764.58,1588.96 L3755.31,1588.96 L3755.31,1752.8 C3755.31,1755.45 3757.3,1757.11 3759.94,1757.11 L3761.27,1757.11 L3802.97,1745.52 L3802.97,1803.45 L3811.91,1803.45 L3811.91,1639.6 C3811.91,1638.28 3811.25,1636.62 3810.26,1635.96"/>
<polyline class="Stem" fill="none" stroke="#000000" stroke-width="8.27" stroke-linejoin="bevel" points="8660.05,2799.45 8660.05,2523.31" />
<polyline class="Stem" fill="none" stroke="#000000" stroke-width="8.27" stroke-linejoin="bevel" points="6866.31,1751.76 6866.31,2027.24" />
<polyline class="Stem" fill="none" stroke="#000000" stroke-width="8.27" stroke-linejoin="bevel" points="8324.92,2840.79 8324.92,2564.64" />
<polyline class="Stem" fill="none" stroke="#000000" stroke-width="8.27" stroke-linejoin="bevel" points="4645.31,966.329 4645.31,1221.14" />
<polyline class="Stem" fill="none" stroke="#000000" stroke-width="8.27" stroke-linejoin="bevel" points="7989.78,2799.45 7989.78,2523.31" />
<polyline class="Stem" fill="none" stroke="#000000" stroke-width="8.27" stroke-linejoin="bevel" points="5346.17,1007.67 5346.17,1241.81" />
<polyline class="Stem" fill="none" stroke="#000000" stroke-width="8.27" stroke-linejoin="bevel" points="7654.65,2758.11 7654.65,2502.64" />
<polyline class="Stem" fill="none" stroke="#000000" stroke-width="8.27" stroke-linejoin="bevel" points="5652.58,924.991 5652.58,1200.47" />
<polyline class="Stem" fill="none" stroke="#000000" stroke-width="8.27" stroke-linejoin="bevel" points="4186.49,1751.76 4186.49,2027.24" />
<polyline class="Stem" fill="none" stroke="#000000" stroke-width="8.27" stroke-linejoin="bevel" points="6058.2,1063.23 6058.2,787.085" />
<polyline class="Stem" fill="none" stroke="#000000" stroke-width="8.27" stroke-linejoin="bevel" points="4698.81,1793.1 4698.81,2068.58" />
<polyline class="Stem" fill="none" stroke="#000000" stroke-width="8.27" stroke-linejoin="bevel" points="6265.39,966.329 6265.39,1221.14" />
<polyline class="Stem" fill="none" stroke="#000000" stroke-width="8.27" stroke-linejoin="bevel" points="7102.07,2743.89 7102.07,2978.03" />
<polyline class="Stem" fill="none" stroke="#000000" stroke-width="8.27" stroke-linejoin="bevel" points="6724.99,1007.67 6724.99,1241.81" />
<polyline class="Stem" fill="none" stroke="#000000" stroke-width="8.27" stroke-linejoin="bevel" points="6599.37,2702.55 6599.37,2957.36" />
<polyline class="Stem" fill="none" stroke="#000000" stroke-width="8.27" stroke-linejoin="bevel" points="4438.12,1021.89 4438.12,766.416" />
<polyline class="Stem" fill="none" stroke="#000000" stroke-width="8.27" stroke-linejoin="bevel" points="6363.45,2799.45 6363.45,2523.31" />
<polyline class="Stem" fill="none" stroke="#000000" stroke-width="8.27" stroke-linejoin="bevel" points="7248.84,1021.89 7248.84,766.416" />
<polyline class="Stem" fill="none" stroke="#000000" stroke-width="8.27" stroke-linejoin="bevel" points="5929.1,2537.2 5929.1,2812.68" />
<polyline class="Stem" fill="none" stroke="#000000" stroke-width="8.27" stroke-linejoin="bevel" points="7555.24,1063.23 7555.24,787.085" />
<polyline class="Stem" fill="none" stroke="#000000" stroke-width="8.27" stroke-linejoin="bevel" points="5593.96,2619.87 5593.96,2895.35" />
<polyline class="Stem" fill="none" stroke="#000000" stroke-width="8.27" stroke-linejoin="bevel" points="7861.65,1104.57 7861.65,828.424" />
<polyline class="Stem" fill="none" stroke="#000000" stroke-width="8.27" stroke-linejoin="bevel" points="1618,1063.23 1618,787.085" />
<polyline class="Stem" fill="none" stroke="#000000" stroke-width="8.27" stroke-linejoin="bevel" points="8168.05,1063.23 8168.05,787.085" />
<polyline class="Stem" fill="none" stroke="#000000" stroke-width="8.27" stroke-linejoin="bevel" points="5140.6,2661.21 5140.6,2936.69" />
<polyline class="Stem" fill="none" stroke="#000000" stroke-width="8.27" stroke-linejoin="bevel" points="4134.64,1007.67 4134.64,1262.15" />
<polyline class="Stem" fill="none" stroke="#000000" stroke-width="8.27" stroke-linejoin="bevel" points="6524.77,1793.1 6524.77,2068.58" />
<polyline class="Stem" fill="none" stroke="#000000" stroke-width="8.27" stroke-linejoin="bevel" points="4805.47,2702.55 4805.47,2957.36" />
<polyline class="Stem" fill="none" stroke="#000000" stroke-width="8.27" stroke-linejoin="bevel" points="8898.19,842.313 8898.19,1117.79" />
<polyline class="Stem" fill="none" stroke="#000000" stroke-width="8.27" stroke-linejoin="bevel" points="4470.33,2743.89 4470.33,2978.03" />
<polyline class="Stem" fill="none" stroke="#000000" stroke-width="8.27" stroke-linejoin="bevel" points="4135.2,2702.55 4135.2,2957.36" />
<polyline class="Stem" fill="none" stroke="#000000" stroke-width="8.27" stroke-linejoin="bevel" points="3845.43,1021.89 3845.43,766.416" />
<polyline class="Stem" fill="none" stroke="#000000" stroke-width="8.27" stroke-linejoin="bevel" points="3800.06,2661.21 3800.06,2936.69" />
<polyline class="Stem" fill="none" stroke="#000000" stroke-width="8.27" stroke-linejoin="bevel" points="3464.93,2619.87 3464.93,2895.35" />
<polyline class="Stem" fill="none" stroke="#000000" stroke-width="8.27" stroke-linejoin="bevel" points="1335.89,1669.09 1335.89,1944.57" />
<polyline class="Stem" fill="none" stroke="#000000" stroke-width="8.27" stroke-linejoin="bevel" points="2042.63,1063.23 2042.63,787.085" />
<polyline class="Stem" fill="none" stroke="#000000" stroke-width="8.27" stroke-linejoin="bevel" points="1848.21,1710.42 1848.21,1985.9" />
<polyline class="Stem" fill="none" stroke="#000000" stroke-width="8.27" stroke-linejoin="bevel" points="3011.56,2661.21 3011.56,2936.69" />
<polyline class="Stem" fill="none" stroke="#000000" stroke-width="8.27" stroke-linejoin="bevel" points="2189.75,1669.09 2189.75,1944.57" />
<polyline class="Stem" fill="none" stroke="#000000" stroke-width="8.27" stroke-linejoin="bevel" points="2676.43,2702.55 2676.43,2957.36" />
<polyline class="Stem" fill="none" stroke="#000000" stroke-width="8.27" stroke-linejoin="bevel" points="2702.07,1793.1 2702.07,2068.58" />
<polyline class="Stem" fill="none" stroke="#000000" stroke-width="8.27" stroke-linejoin="bevel" points="2341.29,2743.89 2341.29,2978.03" />
<polyline class="Stem" fill="none" stroke="#000000" stroke-width="8.27" stroke-linejoin="bevel" points="2006.16,2702.55 2006.16,2957.36" />
<polyline class="Stem" fill="none" stroke="#000000" stroke-width="8.27" stroke-linejoin="bevel" points="3321.59,1007.67 3321.59,1241.81" />
<polyline class="Stem" fill="none" stroke="#000000" stroke-width="8.27" stroke-linejoin="bevel" points="3161.85,1793.1 3161.85,2068.58" />
<polyline class="Stem" fill="none" stroke="#000000" stroke-width="8.27" stroke-linejoin="bevel" points="1671.02,2661.21 1671.02,2936.69" />
<polyline class="Stem" fill="none" stroke="#000000" stroke-width="8.27" stroke-linejoin="bevel" points="3503.39,1751.76 3503.39,2027.24" />
<polyline class="Stem" fill="none" stroke="#000000" stroke-width="8.27" stroke-linejoin="bevel" points="1335.89,2619.87 1335.89,2895.35" />
<polyline class="Stem" fill="none" stroke="#000000" stroke-width="8.27" stroke-linejoin="bevel" points="3844.94,1710.42 3844.94,1985.9" />
<polyline class="Stem" fill="none" stroke="#000000" stroke-width="8.27" stroke-linejoin="bevel" points="8863.05,1793.1 8863.05,2068.58" />
<polyline class="Stem" fill="none" stroke="#000000" stroke-width="8.27" stroke-linejoin="bevel" points="8449.94,1890 8449.94,1634.53" />
<polyline class="Stem" fill="none" stroke="#000000" stroke-width="8.27" stroke-linejoin="bevel" points="2861.98,1007.67 2861.98,1241.81" />
<polyline class="Stem" fill="none" stroke="#000000" stroke-width="8.27" stroke-linejoin="bevel" points="8009.18,1875.78 8009.18,2109.92" />
<polyline class="Stem" fill="none" stroke="#000000" stroke-width="8.27" stroke-linejoin="bevel" points="7667.63,1834.44 7667.63,2089.25" />
<polyline class="Stem" fill="none" stroke="#000000" stroke-width="8.27" stroke-linejoin="bevel" points="7326.09,1793.1 7326.09,2068.58" />
<polyline class="Stem" fill="none" stroke="#000000" stroke-width="8.27" stroke-linejoin="bevel" points="2654.79,1063.23 2654.79,787.085" />
<polyline class="Stem" fill="none" stroke="#000000" stroke-width="8.27" stroke-linejoin="bevel" points="5841.67,1710.42 5841.67,1985.9" />
<polyline class="Stem" fill="none" stroke="#000000" stroke-width="8.27" stroke-linejoin="bevel" points="5158.58,1793.1 5158.58,2068.58" />
<polyline class="Stem" fill="none" stroke="#000000" stroke-width="8.27" stroke-linejoin="bevel" points="2431.05,1021.89 2431.05,767.077" />
<polyline class="Stem" fill="none" stroke="#000000" stroke-width="8.27" stroke-linejoin="bevel" points="5500.13,1751.76 5500.13,2027.24" />
<polyline class="Stem" fill="none" stroke="#000000" stroke-width="8.27" stroke-linejoin="bevel" points="6183.22,1669.09 6183.22,1944.57" />
<path class="Hook" d="M2426.92,841.553 C2426.92,842.546 2427.25,844.201 2429.57,845.194 C2443.8,849.828 2472.27,867.702 2493.78,904.443 C2499.74,914.704 2509.34,928.937 2509.34,956.41 C2509.34,980.242 2503.05,1004.74 2494.44,1028.57 C2493.78,1030.55 2493.12,1032.21 2493.45,1033.53 C2493.45,1035.52 2494.77,1036.84 2496.76,1036.84 C2499.08,1036.84 2500.73,1035.52 2502.06,1033.2 C2516.95,1006.72 2522.58,975.939 2522.58,945.818 C2520.92,903.119 2496.43,871.674 2496.43,871.674 C2497.42,871.674 2465.98,830.961 2457.04,817.059 C2444.79,798.192 2439.17,779.325 2438.5,778.001 C2438.17,777.008 2435.19,765.092 2435.19,765.092 C2434.86,763.768 2433.21,762.444 2431.22,762.444 C2428.9,762.444 2426.92,764.43 2426.92,766.747 L2426.92,841.553 "/>
<path class="Hook" d="M4130.51,1262.15 C4130.51,1264.46 4132.49,1266.45 4134.81,1266.45 C4136.46,1266.45 4138.45,1265.13 4138.78,1263.8 C4138.78,1263.47 4141.76,1251.89 4142.09,1250.89 C4142.42,1249.57 4145.4,1236.99 4157.32,1217.46 C4170.23,1195.95 4190.09,1180.39 4206.64,1157.22 C4222.86,1134.05 4232.79,1112.2 4232.79,1083.08 C4232.79,1052.96 4225.83,1027.8 4208.29,995.693 C4207.3,993.376 4205.31,992.052 4203.33,992.052 C4202.66,992.052 4202,992.052 4201.67,992.383 C4200.02,993.045 4199.35,994.369 4199.35,996.355 C4199.35,997.348 4199.69,999.003 4200.35,1000.33 C4213.59,1031.11 4218.88,1048.65 4218.88,1072.48 C4218.88,1099.96 4209.28,1114.19 4203.33,1124.45 C4181.81,1161.19 4147.06,1179.07 4133.15,1183.7 C4130.84,1184.69 4130.51,1186.35 4130.51,1187.34 L4130.51,1262.15 "/>
<path class="Note" d="M6862.18,1751.77 C6862.18,1766.01 6872.44,1781.9 6899.25,1781.9 C6933.68,1781.9 6969.75,1753.76 6969.75,1724.63 C6969.75,1705.1 6953.2,1694.18 6932.68,1694.18 C6900.58,1694.18 6862.18,1721.32 6862.18,1751.77"/>
<path class="Note" d="M5954.85,1090.36 C5954.85,1104.59 5965.11,1120.48 5991.92,1120.48 C6026.35,1120.48 6062.42,1092.34 6062.42,1063.22 C6062.42,1043.69 6045.87,1032.76 6025.35,1032.76 C5993.25,1032.76 5954.85,1059.91 5954.85,1090.36"/>
<path class="Note" d="M5837.54,1710.44 C5837.54,1724.67 5847.8,1740.56 5874.61,1740.56 C5909.04,1740.56 5945.11,1712.42 5945.11,1683.29 C5945.11,1663.76 5928.56,1652.84 5908.04,1652.84 C5875.94,1652.84 5837.54,1679.98 5837.54,1710.44"/>
<path class="Note" d="M4666.01,980.905 C4655.08,980.905 4652.77,971.968 4652.77,968.989 C4652.77,952.77 4708.37,924.304 4723.93,924.304 C4731.88,924.304 4737.17,928.938 4737.17,936.22 C4737.17,952.77 4681.23,980.905 4666.01,980.905 M4711.68,908.747 C4679.58,908.747 4641.18,935.558 4641.18,966.341 C4641.18,980.574 4651.44,996.462 4678.25,996.462 C4712.68,996.462 4748.76,968.327 4748.76,939.199 C4748.76,919.67 4732.21,908.747 4711.68,908.747"/>
<path class="Note" d="M5495.99,1751.77 C5495.99,1766.01 5506.25,1781.9 5533.07,1781.9 C5567.49,1781.9 5603.57,1753.76 5603.57,1724.63 C5603.57,1705.1 5587.02,1694.18 5566.5,1694.18 C5534.39,1694.18 5495.99,1721.32 5495.99,1751.77"/>
<path class="Note" d="M8221.57,2867.92 C8221.57,2882.15 8231.83,2898.04 8258.64,2898.04 C8293.07,2898.04 8329.15,2869.9 8329.15,2840.77 C8329.15,2821.25 8312.6,2810.32 8292.07,2810.32 C8259.97,2810.32 8221.57,2837.46 8221.57,2867.92"/>
<path class="Note" d="M5154.45,1793.11 C5154.45,1807.35 5164.71,1823.23 5191.52,1823.23 C5225.94,1823.23 5262.02,1795.1 5262.02,1765.97 C5262.02,1746.44 5245.47,1735.52 5224.95,1735.52 C5192.84,1735.52 5154.45,1762.66 5154.45,1793.11"/>
<path class="Note" d="M2327.71,1049.02 C2327.71,1063.25 2337.97,1079.14 2364.78,1079.14 C2399.2,1079.14 2435.28,1051 2435.28,1021.88 C2435.28,1002.35 2418.73,991.425 2398.21,991.425 C2366.1,991.425 2327.71,1018.57 2327.71,1049.02"/>
<path class="Note" d="M4694.67,1793.11 C4694.67,1807.35 4704.93,1823.23 4731.74,1823.23 C4766.17,1823.23 4802.25,1795.1 4802.25,1765.97 C4802.25,1746.44 4785.7,1735.52 4765.18,1735.52 C4733.07,1735.52 4694.67,1762.66 4694.67,1793.11"/>
<path class="Note" d="M7321.95,1793.11 C7321.95,1807.35 7332.21,1823.23 7359.03,1823.23 C7393.45,1823.23 7429.53,1795.1 7429.53,1765.97 C7429.53,1746.44 7412.98,1735.52 7392.46,1735.52 C7360.35,1735.52 7321.95,1762.66 7321.95,1793.11"/>
<path class="Note" d="M8581.53,2841.14 C8570.61,2841.14 8568.29,2832.2 8568.29,2829.23 C8568.29,2813.01 8623.9,2784.54 8639.46,2784.54 C8647.4,2784.54 8652.7,2789.17 8652.7,2796.46 C8652.7,2813.01 8596.76,2841.14 8581.53,2841.14 M8627.21,2768.98 C8595.1,2768.98 8556.71,2795.79 8556.71,2826.58 C8556.71,2840.81 8566.97,2856.7 8593.78,2856.7 C8628.2,2856.7 8664.28,2828.56 8664.28,2799.44 C8664.28,2779.91 8647.73,2768.98 8627.21,2768.98"/>
<path class="Note" d="M7663.5,1834.45 C7663.5,1848.68 7673.76,1864.57 7700.57,1864.57 C7735,1864.57 7771.08,1836.44 7771.08,1807.31 C7771.08,1787.78 7754.53,1776.86 7734,1776.86 C7701.9,1776.86 7663.5,1804 7663.5,1834.45"/>
<path class="Note" d="M2551.44,1090.36 C2551.44,1104.59 2561.7,1120.48 2588.51,1120.48 C2622.94,1120.48 2659.02,1092.34 2659.02,1063.22 C2659.02,1043.69 2642.47,1032.76 2621.95,1032.76 C2589.84,1032.76 2551.44,1059.91 2551.44,1090.36"/>
<path class="Note" d="M8005.05,1875.79 C8005.05,1890.02 8015.31,1905.91 8042.12,1905.91 C8076.54,1905.91 8112.62,1877.78 8112.62,1848.65 C8112.62,1829.12 8096.07,1818.2 8075.55,1818.2 C8043.44,1818.2 8005.05,1845.34 8005.05,1875.79"/>
<path class="Note" d="M2882.67,1022.24 C2871.75,1022.24 2869.43,1013.31 2869.43,1010.33 C2869.43,994.109 2925.04,965.643 2940.6,965.643 C2948.54,965.643 2953.84,970.277 2953.84,977.559 C2953.84,994.109 2897.9,1022.24 2882.67,1022.24 M2928.35,950.086 C2896.24,950.086 2857.85,976.897 2857.85,1007.68 C2857.85,1021.91 2868.11,1037.8 2894.92,1037.8 C2929.34,1037.8 2965.42,1009.67 2965.42,980.538 C2965.42,961.009 2948.87,950.086 2928.35,950.086"/>
<path class="Note" d="M8371.42,1931.69 C8360.5,1931.69 8358.18,1922.76 8358.18,1919.78 C8358.18,1903.56 8413.79,1875.09 8429.34,1875.09 C8437.29,1875.09 8442.58,1879.73 8442.58,1887.01 C8442.58,1903.56 8386.64,1931.69 8371.42,1931.69 M8417.1,1859.53 C8384.99,1859.53 8346.59,1886.35 8346.59,1917.13 C8346.59,1931.36 8356.85,1947.25 8383.67,1947.25 C8418.09,1947.25 8454.17,1919.11 8454.17,1889.99 C8454.17,1870.46 8437.62,1859.53 8417.1,1859.53"/>
<path class="Note" d="M3840.81,1710.44 C3840.81,1724.67 3851.07,1740.56 3877.88,1740.56 C3912.3,1740.56 3948.38,1712.42 3948.38,1683.29 C3948.38,1663.76 3931.83,1652.84 3911.31,1652.84 C3879.2,1652.84 3840.81,1679.98 3840.81,1710.44"/>
<path class="Note" d="M8858.91,1793.11 C8858.91,1807.35 8869.17,1823.23 8895.98,1823.23 C8930.41,1823.23 8966.49,1795.1 8966.49,1765.97 C8966.49,1746.44 8949.94,1735.52 8929.42,1735.52 C8897.31,1735.52 8858.91,1762.66 8858.91,1793.11"/>
<path class="Note" d="M6520.63,1793.11 C6520.63,1807.35 6530.89,1823.23 6557.7,1823.23 C6592.13,1823.23 6628.21,1795.1 6628.21,1765.97 C6628.21,1746.44 6611.66,1735.52 6591.14,1735.52 C6559.03,1735.52 6520.63,1762.66 6520.63,1793.11"/>
<path class="Note" d="M1939.29,1090.36 C1939.29,1104.59 1949.55,1120.48 1976.36,1120.48 C2010.78,1120.48 2046.86,1092.34 2046.86,1063.22 C2046.86,1043.69 2030.31,1032.76 2009.79,1032.76 C1977.68,1032.76 1939.29,1059.91 1939.29,1090.36"/>
<path class="Note" d="M7886.44,2826.58 C7886.44,2840.81 7896.7,2856.7 7923.51,2856.7 C7957.93,2856.7 7994.01,2828.56 7994.01,2799.44 C7994.01,2779.91 7977.46,2768.98 7956.94,2768.98 C7924.83,2768.98 7886.44,2796.13 7886.44,2826.58"/>
<path class="Note" d="M4334.78,1049.02 C4334.78,1063.25 4345.04,1079.14 4371.85,1079.14 C4406.27,1079.14 4442.35,1051 4442.35,1021.88 C4442.35,1002.35 4425.8,991.425 4405.28,991.425 C4373.17,991.425 4334.78,1018.57 4334.78,1049.02"/>
<path class="Note" d="M3499.26,1751.77 C3499.26,1766.01 3509.52,1781.9 3536.33,1781.9 C3570.76,1781.9 3606.83,1753.76 3606.83,1724.63 C3606.83,1705.1 3590.28,1694.18 3569.76,1694.18 C3537.66,1694.18 3499.26,1721.32 3499.26,1751.77"/>
<path class="Note" d="M1331.75,2619.88 C1331.75,2634.12 1342.01,2650.01 1368.82,2650.01 C1403.25,2650.01 1439.33,2621.87 1439.33,2592.74 C1439.33,2573.21 1422.78,2562.29 1402.26,2562.29 C1370.15,2562.29 1331.75,2589.43 1331.75,2619.88"/>
<path class="Note" d="M3157.71,1793.11 C3157.71,1807.35 3167.97,1823.23 3194.79,1823.23 C3229.21,1823.23 3265.29,1795.1 3265.29,1765.97 C3265.29,1746.44 3248.74,1735.52 3228.22,1735.52 C3196.11,1735.52 3157.71,1762.66 3157.71,1793.11"/>
<path class="Note" d="M1666.89,2661.22 C1666.89,2675.46 1677.15,2691.34 1703.96,2691.34 C1738.38,2691.34 1774.46,2663.21 1774.46,2634.08 C1774.46,2614.55 1757.91,2603.63 1737.39,2603.63 C1705.28,2603.63 1666.89,2630.77 1666.89,2661.22"/>
<path class="Note" d="M3317.45,1007.68 C3317.45,1021.91 3327.71,1037.8 3354.53,1037.8 C3388.95,1037.8 3425.03,1009.67 3425.03,980.538 C3425.03,961.009 3408.48,950.086 3387.96,950.086 C3355.85,950.086 3317.45,977.228 3317.45,1007.68"/>
<path class="Note" d="M2002.02,2702.56 C2002.02,2716.79 2012.28,2732.68 2039.09,2732.68 C2073.52,2732.68 2109.6,2704.55 2109.6,2675.42 C2109.6,2655.89 2093.05,2644.97 2072.53,2644.97 C2040.42,2644.97 2002.02,2672.11 2002.02,2702.56"/>
<path class="Note" d="M2697.94,1793.11 C2697.94,1807.35 2708.2,1823.23 2735.01,1823.23 C2769.43,1823.23 2805.51,1795.1 2805.51,1765.97 C2805.51,1746.44 2788.96,1735.52 2768.44,1735.52 C2736.33,1735.52 2697.94,1762.66 2697.94,1793.11"/>
<path class="Note" d="M2337.16,2743.9 C2337.16,2758.13 2347.42,2774.02 2374.23,2774.02 C2408.65,2774.02 2444.73,2745.89 2444.73,2716.76 C2444.73,2697.23 2428.18,2686.31 2407.66,2686.31 C2375.55,2686.31 2337.16,2713.45 2337.16,2743.9"/>
<path class="Note" d="M2210.44,1683.66 C2199.52,1683.66 2197.2,1674.72 2197.2,1671.75 C2197.2,1655.53 2252.81,1627.06 2268.37,1627.06 C2276.31,1627.06 2281.61,1631.69 2281.61,1638.98 C2281.61,1655.53 2225.67,1683.66 2210.44,1683.66 M2256.12,1611.5 C2224.01,1611.5 2185.62,1638.31 2185.62,1669.1 C2185.62,1683.33 2195.88,1699.22 2222.69,1699.22 C2257.11,1699.22 2293.19,1671.08 2293.19,1641.96 C2293.19,1622.43 2276.64,1611.5 2256.12,1611.5"/>
<path class="Note" d="M2672.29,2702.56 C2672.29,2716.79 2682.55,2732.68 2709.36,2732.68 C2743.79,2732.68 2779.87,2704.55 2779.87,2675.42 C2779.87,2655.89 2763.32,2644.97 2742.8,2644.97 C2710.69,2644.97 2672.29,2672.11 2672.29,2702.56"/>
<path class="Note" d="M1844.07,1710.44 C1844.07,1724.67 1854.33,1740.56 1881.14,1740.56 C1915.57,1740.56 1951.65,1712.42 1951.65,1683.29 C1951.65,1663.76 1935.1,1652.84 1914.58,1652.84 C1882.47,1652.84 1844.07,1679.98 1844.07,1710.44"/>
<path class="Note" d="M3007.43,2661.22 C3007.43,2675.46 3017.69,2691.34 3044.5,2691.34 C3078.92,2691.34 3115,2663.21 3115,2634.08 C3115,2614.55 3098.45,2603.63 3077.93,2603.63 C3045.82,2603.63 3007.43,2630.77 3007.43,2661.22"/>
<path class="Note" d="M1356.58,1683.66 C1345.65,1683.66 1343.34,1674.72 1343.34,1671.75 C1343.34,1655.53 1398.95,1627.06 1414.5,1627.06 C1422.45,1627.06 1427.74,1631.69 1427.74,1638.98 C1427.74,1655.53 1371.8,1683.66 1356.58,1683.66 M1402.26,1611.5 C1370.15,1611.5 1331.75,1638.31 1331.75,1669.1 C1331.75,1683.33 1342.01,1699.22 1368.82,1699.22 C1403.25,1699.22 1439.33,1671.08 1439.33,1641.96 C1439.33,1622.43 1422.78,1611.5 1402.26,1611.5"/>
<path class="Note" d="M1514.65,1090.36 C1514.65,1104.59 1524.91,1120.48 1551.72,1120.48 C1586.15,1120.48 1622.23,1092.34 1622.23,1063.22 C1622.23,1043.69 1605.68,1032.76 1585.16,1032.76 C1553.05,1032.76 1514.65,1059.91 1514.65,1090.36"/>
<path class="Note" d="M6179.09,1669.1 C6179.09,1683.33 6189.35,1699.22 6216.16,1699.22 C6250.58,1699.22 6286.66,1671.08 6286.66,1641.96 C6286.66,1622.43 6270.11,1611.5 6249.59,1611.5 C6217.48,1611.5 6179.09,1638.65 6179.09,1669.1"/>
<path class="Note" d="M3460.79,2619.88 C3460.79,2634.12 3471.05,2650.01 3497.86,2650.01 C3532.29,2650.01 3568.37,2621.87 3568.37,2592.74 C3568.37,2573.21 3551.82,2562.29 3531.29,2562.29 C3499.19,2562.29 3460.79,2589.43 3460.79,2619.88"/>
<path class="Note" d="M7551.3,2785.24 C7551.3,2799.47 7561.56,2815.36 7588.37,2815.36 C7622.8,2815.36 7658.88,2787.23 7658.88,2758.1 C7658.88,2738.57 7642.33,2727.65 7621.8,2727.65 C7589.7,2727.65 7551.3,2754.79 7551.3,2785.24"/>
<path class="Note" d="M3795.93,2661.22 C3795.93,2675.46 3806.19,2691.34 3833,2691.34 C3867.42,2691.34 3903.5,2663.21 3903.5,2634.08 C3903.5,2614.55 3886.95,2603.63 3866.43,2603.63 C3834.32,2603.63 3795.93,2630.77 3795.93,2661.22"/>
<path class="Note" d="M3742.09,1049.02 C3742.09,1063.25 3752.35,1079.14 3779.16,1079.14 C3813.58,1079.14 3849.66,1051 3849.66,1021.88 C3849.66,1002.35 3833.11,991.425 3812.59,991.425 C3780.48,991.425 3742.09,1018.57 3742.09,1049.02"/>
<path class="Note" d="M4131.06,2702.56 C4131.06,2716.79 4141.32,2732.68 4168.13,2732.68 C4202.56,2732.68 4238.64,2704.55 4238.64,2675.42 C4238.64,2655.89 4222.09,2644.97 4201.56,2644.97 C4169.46,2644.97 4131.06,2672.11 4131.06,2702.56"/>
<path class="Note" d="M8894.05,842.326 C8894.05,856.559 8904.32,872.447 8931.13,872.447 C8965.55,872.447 9001.63,844.312 9001.63,815.184 C9001.63,795.655 8985.08,784.732 8964.56,784.732 C8932.45,784.732 8894.05,811.874 8894.05,842.326"/>
<path class="Note" d="M4466.2,2743.9 C4466.2,2758.13 4476.46,2774.02 4503.27,2774.02 C4537.69,2774.02 4573.77,2745.89 4573.77,2716.76 C4573.77,2697.23 4557.22,2686.31 4536.7,2686.31 C4504.59,2686.31 4466.2,2713.45 4466.2,2743.9"/>
<path class="Note" d="M5342.04,1007.68 C5342.04,1021.91 5352.3,1037.8 5379.11,1037.8 C5413.54,1037.8 5449.61,1009.67 5449.61,980.538 C5449.61,961.009 5433.06,950.086 5412.54,950.086 C5380.44,950.086 5342.04,977.228 5342.04,1007.68"/>
<path class="Note" d="M4801.33,2702.56 C4801.33,2716.79 4811.59,2732.68 4838.4,2732.68 C4872.83,2732.68 4908.91,2704.55 4908.91,2675.42 C4908.91,2655.89 4892.36,2644.97 4871.83,2644.97 C4839.73,2644.97 4801.33,2672.11 4801.33,2702.56"/>
<path class="Note" d="M8089.53,1104.92 C8078.61,1104.92 8076.29,1095.98 8076.29,1093.01 C8076.29,1076.79 8131.9,1048.32 8147.46,1048.32 C8155.4,1048.32 8160.7,1052.95 8160.7,1060.24 C8160.7,1076.79 8104.76,1104.92 8089.53,1104.92 M8135.21,1032.76 C8103.1,1032.76 8064.71,1059.57 8064.71,1090.36 C8064.71,1104.59 8074.97,1120.48 8101.78,1120.48 C8136.2,1120.48 8172.28,1092.34 8172.28,1063.22 C8172.28,1043.69 8155.73,1032.76 8135.21,1032.76"/>
<path class="Note" d="M5136.47,2661.22 C5136.47,2675.46 5146.73,2691.34 5173.54,2691.34 C5207.96,2691.34 5244.04,2663.21 5244.04,2634.08 C5244.04,2614.55 5227.49,2603.63 5206.97,2603.63 C5174.86,2603.63 5136.47,2630.77 5136.47,2661.22"/>
<path class="Note" d="M7758.3,1131.7 C7758.3,1145.93 7768.56,1161.82 7795.37,1161.82 C7829.8,1161.82 7865.88,1133.68 7865.88,1104.55 C7865.88,1085.02 7849.33,1074.1 7828.81,1074.1 C7796.7,1074.1 7758.3,1101.24 7758.3,1131.7"/>
<path class="Note" d="M5648.44,925.003 C5648.44,939.236 5658.71,955.124 5685.52,955.124 C5719.94,955.124 5756.02,926.989 5756.02,897.861 C5756.02,878.332 5739.47,867.409 5718.95,867.409 C5686.84,867.409 5648.44,894.551 5648.44,925.003"/>
<path class="Note" d="M7451.9,1090.36 C7451.9,1104.59 7462.16,1120.48 7488.97,1120.48 C7523.39,1120.48 7559.47,1092.34 7559.47,1063.22 C7559.47,1043.69 7542.92,1032.76 7522.4,1032.76 C7490.29,1032.76 7451.9,1059.91 7451.9,1090.36"/>
<path class="Note" d="M5589.83,2619.88 C5589.83,2634.12 5600.09,2650.01 5626.9,2650.01 C5661.33,2650.01 5697.4,2621.87 5697.4,2592.74 C5697.4,2573.21 5680.85,2562.29 5660.33,2562.29 C5628.23,2562.29 5589.83,2589.43 5589.83,2619.88"/>
<path class="Note" d="M7145.49,1049.02 C7145.49,1063.25 7155.75,1079.14 7182.57,1079.14 C7216.99,1079.14 7253.07,1051 7253.07,1021.88 C7253.07,1002.35 7236.52,991.425 7216,991.425 C7183.89,991.425 7145.49,1018.57 7145.49,1049.02"/>
<path class="Note" d="M5924.96,2537.21 C5924.96,2551.44 5935.23,2567.33 5962.04,2567.33 C5996.46,2567.33 6032.54,2539.19 6032.54,2510.07 C6032.54,2490.54 6015.99,2479.61 5995.47,2479.61 C5963.36,2479.61 5924.96,2506.76 5924.96,2537.21"/>
<path class="Note" d="M4130.51,1007.68 C4130.51,1021.91 4140.77,1037.8 4167.58,1037.8 C4202,1037.8 4238.08,1009.67 4238.08,980.538 C4238.08,961.009 4221.53,950.086 4201.01,950.086 C4168.9,950.086 4130.51,977.228 4130.51,1007.68"/>
<path class="Note" d="M6260.1,2826.58 C6260.1,2840.81 6270.36,2856.7 6297.17,2856.7 C6331.6,2856.7 6367.67,2828.56 6367.67,2799.44 C6367.67,2779.91 6351.12,2768.98 6330.6,2768.98 C6298.5,2768.98 6260.1,2796.13 6260.1,2826.58"/>
<path class="Note" d="M6720.86,1007.68 C6720.86,1021.91 6731.12,1037.8 6757.93,1037.8 C6792.36,1037.8 6828.44,1009.67 6828.44,980.538 C6828.44,961.009 6811.89,950.086 6791.36,950.086 C6759.26,950.086 6720.86,977.228 6720.86,1007.68"/>
<path class="Note" d="M6620.06,2717.13 C6609.14,2717.13 6606.82,2708.19 6606.82,2705.21 C6606.82,2688.99 6662.43,2660.52 6677.98,2660.52 C6685.93,2660.52 6691.22,2665.16 6691.22,2672.44 C6691.22,2688.99 6635.29,2717.13 6620.06,2717.13 M6665.74,2644.97 C6633.63,2644.97 6595.23,2671.78 6595.23,2702.56 C6595.23,2716.79 6605.5,2732.68 6632.31,2732.68 C6666.73,2732.68 6702.81,2704.55 6702.81,2675.42 C6702.81,2655.89 6686.26,2644.97 6665.74,2644.97"/>
<path class="Note" d="M6286.08,980.905 C6275.16,980.905 6272.84,971.968 6272.84,968.989 C6272.84,952.77 6328.45,924.304 6344,924.304 C6351.95,924.304 6357.24,928.938 6357.24,936.22 C6357.24,952.77 6301.3,980.905 6286.08,980.905 M6331.76,908.747 C6299.65,908.747 6261.25,935.558 6261.25,966.341 C6261.25,980.574 6271.51,996.462 6298.33,996.462 C6332.75,996.462 6368.83,968.327 6368.83,939.199 C6368.83,919.67 6352.28,908.747 6331.76,908.747"/>
<path class="Note" d="M7097.94,2743.9 C7097.94,2758.13 7108.2,2774.02 7135.01,2774.02 C7169.43,2774.02 7205.51,2745.89 7205.51,2716.76 C7205.51,2697.23 7188.96,2686.31 7168.44,2686.31 C7136.33,2686.31 7097.94,2713.45 7097.94,2743.9"/>
<path class="Note" d="M4207.18,1766.34 C4196.25,1766.34 4193.94,1757.4 4193.94,1754.42 C4193.94,1738.2 4249.55,1709.74 4265.1,1709.74 C4273.05,1709.74 4278.34,1714.37 4278.34,1721.65 C4278.34,1738.2 4222.4,1766.34 4207.18,1766.34 M4252.86,1694.18 C4220.75,1694.18 4182.35,1720.99 4182.35,1751.77 C4182.35,1766.01 4192.61,1781.9 4219.42,1781.9 C4253.85,1781.9 4289.93,1753.76 4289.93,1724.63 C4289.93,1705.1 4273.38,1694.18 4252.86,1694.18"/>
<path class="Clef" d="M909.689,2012.75 C903.069,2014.08 896.78,2014.74 890.491,2014.74 C843.158,2014.74 802.776,1981.64 802.776,1931.66 C802.776,1891.27 831.242,1855.2 860.37,1830.04 C865.997,1825.07 871.293,1820.44 876.258,1815.48 C879.237,1833.35 881.554,1848.91 883.871,1862.48 C853.75,1871.41 833.228,1903.19 833.228,1934.3 C833.228,1957.47 851.433,1989.25 877.913,1989.25 C880.561,1989.25 883.54,1987.93 883.54,1984.95 C883.54,1981.97 880.23,1980.31 876.258,1977.67 C863.349,1969.72 856.067,1961.12 856.067,1944.9 C856.067,1924.71 870.962,1908.49 890.491,1903.85 L909.689,2012.75 M880.561,1672.48 C883.54,1659.24 898.766,1624.49 915.978,1624.49 C920.943,1624.49 928.887,1640.71 928.887,1663.55 C928.887,1697.97 903.4,1723.79 880.561,1746.3 C878.575,1733.06 876.92,1720.15 876.92,1706.25 C876.92,1694 877.913,1682.74 880.561,1672.48 M956.691,1951.52 C956.691,1975.02 947.092,1999.18 923.591,2008.78 C916.64,1969.06 907.703,1916.43 905.386,1901.87 C935.176,1901.87 956.691,1922.06 956.691,1951.52 M811.051,2114.37 C811.051,2136.21 827.932,2165.01 872.617,2165.01 C888.174,2165.01 901.745,2161.04 913.661,2153.76 C931.535,2141.18 936.169,2119.33 936.169,2098.48 C936.169,2085.57 934.183,2070.68 930.873,2051.81 C929.88,2045.19 927.894,2035.26 925.908,2022.35 C958.346,2011.76 982.509,1978 982.509,1943.9 C982.509,1893.92 947.092,1860.16 898.766,1860.16 C895.456,1840.3 892.146,1820.77 889.167,1802.24 C924.253,1765.49 948.416,1724.12 948.416,1671.49 C948.416,1641.37 939.148,1616.88 933.852,1604.96 C925.908,1588.08 916.309,1576.49 910.351,1576.49 C908.034,1576.49 897.773,1580.47 886.85,1593.37 C865.666,1618.53 859.708,1660.9 859.708,1688.7 C859.708,1706.58 861.363,1722.8 866.99,1759.87 C866.659,1760.2 849.447,1777.74 842.496,1783.37 C812.375,1811.5 770.669,1851.55 770.669,1917.75 C770.669,1979.65 824.622,2028.31 886.188,2028.31 C895.787,2028.31 904.724,2027.32 912.337,2025.99 C918.626,2057.77 922.267,2080.94 922.267,2098.48 C922.267,2132.9 904.724,2151.11 871.293,2151.11 C863.349,2151.11 856.398,2149.45 855.736,2149.45 C855.405,2149.12 854.743,2148.79 854.743,2148.46 C854.743,2147.8 855.405,2147.47 856.398,2147.14 C871.955,2144.82 887.512,2131.58 887.512,2110.4 C887.512,2092.52 873.941,2073.66 849.116,2073.66 C825.946,2073.66 811.051,2092.52 811.051,2114.37"/>
<path class="Clef" d="M909.689,2880.86 C903.069,2882.19 896.78,2882.85 890.491,2882.85 C843.158,2882.85 802.776,2849.75 802.776,2799.77 C802.776,2759.38 831.242,2723.31 860.37,2698.15 C865.997,2693.18 871.293,2688.55 876.258,2683.59 C879.237,2701.46 881.554,2717.02 883.871,2730.59 C853.75,2739.52 833.228,2771.3 833.228,2802.41 C833.228,2825.58 851.433,2857.36 877.913,2857.36 C880.561,2857.36 883.54,2856.04 883.54,2853.06 C883.54,2850.08 880.23,2848.42 876.258,2845.78 C863.349,2837.83 856.067,2829.23 856.067,2813.01 C856.067,2792.82 870.962,2776.6 890.491,2771.96 L909.689,2880.86 M880.561,2540.59 C883.54,2527.35 898.766,2492.6 915.978,2492.6 C920.943,2492.6 928.887,2508.82 928.887,2531.66 C928.887,2566.08 903.4,2591.9 880.561,2614.41 C878.575,2601.17 876.92,2588.26 876.92,2574.36 C876.92,2562.11 877.913,2550.85 880.561,2540.59 M956.691,2819.63 C956.691,2843.13 947.092,2867.29 923.591,2876.89 C916.64,2837.17 907.703,2784.54 905.386,2769.98 C935.176,2769.98 956.691,2790.17 956.691,2819.63 M811.051,2982.48 C811.051,3004.32 827.932,3033.12 872.617,3033.12 C888.174,3033.12 901.745,3029.15 913.661,3021.87 C931.535,3009.29 936.169,2987.44 936.169,2966.59 C936.169,2953.68 934.183,2938.79 930.873,2919.92 C929.88,2913.3 927.894,2903.37 925.908,2890.46 C958.346,2879.87 982.509,2846.11 982.509,2812.01 C982.509,2762.03 947.092,2728.27 898.766,2728.27 C895.456,2708.41 892.146,2688.88 889.167,2670.35 C924.253,2633.6 948.416,2592.23 948.416,2539.6 C948.416,2509.48 939.148,2484.99 933.852,2473.07 C925.908,2456.19 916.309,2444.6 910.351,2444.6 C908.034,2444.6 897.773,2448.58 886.85,2461.48 C865.666,2486.64 859.708,2529.01 859.708,2556.81 C859.708,2574.69 861.363,2590.91 866.99,2627.98 C866.659,2628.31 849.447,2645.85 842.496,2651.48 C812.375,2679.61 770.669,2719.66 770.669,2785.86 C770.669,2847.76 824.622,2896.42 886.188,2896.42 C895.787,2896.42 904.724,2895.43 912.337,2894.1 C918.626,2925.88 922.267,2949.05 922.267,2966.59 C922.267,3001.01 904.724,3019.22 871.293,3019.22 C863.349,3019.22 856.398,3017.56 855.736,3017.56 C855.405,3017.23 854.743,3016.9 854.743,3016.57 C854.743,3015.91 855.405,3015.58 856.398,3015.25 C871.955,3012.93 887.512,2999.69 887.512,2978.51 C887.512,2960.63 873.941,2941.77 849.116,2941.77 C825.946,2941.77 811.051,2960.63 811.051,2982.48"/>
<path class="Clef" d="M909.689,1144.64 C903.069,1145.97 896.78,1146.63 890.491,1146.63 C843.158,1146.63 802.776,1113.53 802.776,1063.55 C802.776,1023.16 831.242,987.085 860.37,961.929 C865.997,956.964 871.293,952.33 876.258,947.365 C879.237,965.239 881.554,980.796 883.871,994.367 C853.75,1003.3 833.228,1035.08 833.228,1066.19 C833.228,1089.36 851.433,1121.14 877.913,1121.14 C880.561,1121.14 883.54,1119.82 883.54,1116.84 C883.54,1113.86 880.23,1112.2 876.258,1109.56 C863.349,1101.61 856.067,1093.01 856.067,1076.79 C856.067,1056.6 870.962,1040.38 890.491,1035.74 L909.689,1144.64 M880.561,804.373 C883.54,791.133 898.766,756.378 915.978,756.378 C920.943,756.378 928.887,772.597 928.887,795.436 C928.887,829.86 903.4,855.678 880.561,878.186 C878.575,864.946 876.92,852.037 876.92,838.135 C876.92,825.888 877.913,814.634 880.561,804.373 M956.691,1083.41 C956.691,1106.91 947.092,1131.07 923.591,1140.67 C916.64,1100.95 907.703,1048.32 905.386,1033.76 C935.176,1033.76 956.691,1053.95 956.691,1083.41 M811.051,1246.26 C811.051,1268.1 827.932,1296.9 872.617,1296.9 C888.174,1296.9 901.745,1292.93 913.661,1285.65 C931.535,1273.07 936.169,1251.22 936.169,1230.37 C936.169,1217.46 934.183,1202.57 930.873,1183.7 C929.88,1177.08 927.894,1167.15 925.908,1154.24 C958.346,1143.65 982.509,1109.89 982.509,1075.79 C982.509,1025.81 947.092,992.05 898.766,992.05 C895.456,972.19 892.146,952.661 889.167,934.125 C924.253,897.384 948.416,856.009 948.416,803.38 C948.416,773.259 939.148,748.765 933.852,736.849 C925.908,719.968 916.309,708.383 910.351,708.383 C908.034,708.383 897.773,712.355 886.85,725.264 C865.666,750.42 859.708,792.788 859.708,820.592 C859.708,838.466 861.363,854.685 866.99,891.757 C866.659,892.088 849.447,909.631 842.496,915.258 C812.375,943.393 770.669,983.444 770.669,1049.64 C770.669,1111.54 824.622,1160.2 886.188,1160.2 C895.787,1160.2 904.724,1159.21 912.337,1157.88 C918.626,1189.66 922.267,1212.83 922.267,1230.37 C922.267,1264.79 904.724,1283 871.293,1283 C863.349,1283 856.398,1281.34 855.736,1281.34 C855.405,1281.01 854.743,1280.68 854.743,1280.35 C854.743,1279.69 855.405,1279.36 856.398,1279.03 C871.955,1276.71 887.512,1263.47 887.512,1242.29 C887.512,1224.41 873.941,1205.55 849.116,1205.55 C825.946,1205.55 811.051,1224.41 811.051,1246.26"/>
<path class="KeySig" d="M1070.17,2540.15 L1099.63,2534.19 L1099.63,2588.81 L1070.17,2595.1 L1070.17,2540.15 M1121.48,2529.89 C1123.47,2529.56 1125.12,2527.24 1125.12,2525.26 L1125.12,2505.73 C1125.12,2503.08 1123.13,2501.09 1120.49,2501.09 L1119.82,2501.09 L1108.9,2503.41 L1108.9,2454.09 L1099.63,2454.09 L1099.63,2505.4 L1070.17,2511.35 L1070.17,2464.68 L1060.91,2464.68 L1060.91,2513.34 L1048,2515.99 C1046.01,2516.32 1044.36,2518.64 1044.36,2520.62 L1044.36,2539.82 C1044.36,2542.47 1046.34,2544.45 1048.99,2544.45 L1049.98,2544.45 L1060.91,2542.14 L1060.91,2596.75 L1048,2599.4 C1046.01,2599.73 1044.36,2602.05 1044.36,2604.03 L1044.36,2623.23 C1044.36,2625.88 1046.34,2627.87 1048.99,2627.87 L1049.98,2627.87 L1060.91,2625.55 L1060.91,2674.87 L1070.17,2674.87 L1070.17,2623.56 L1099.63,2617.6 L1099.63,2664.28 L1108.9,2664.28 L1108.9,2615.62 L1121.48,2613.3 C1123.47,2612.97 1125.12,2610.65 1125.12,2608.67 L1125.12,2589.14 C1125.12,2586.49 1123.13,2584.5 1120.49,2584.5 L1119.82,2584.5 L1108.9,2586.82 L1108.9,2532.21 L1121.48,2529.89 "/>
<path class="KeySig" d="M1070.17,803.93 L1099.63,797.972 L1099.63,852.587 L1070.17,858.876 L1070.17,803.93 M1121.48,793.669 C1123.47,793.338 1125.12,791.021 1125.12,789.035 L1125.12,769.506 C1125.12,766.858 1123.13,764.872 1120.49,764.872 L1119.82,764.872 L1108.9,767.189 L1108.9,717.87 L1099.63,717.87 L1099.63,769.175 L1070.17,775.133 L1070.17,728.462 L1060.91,728.462 L1060.91,777.119 L1048,779.767 C1046.01,780.098 1044.36,782.415 1044.36,784.401 L1044.36,803.599 C1044.36,806.247 1046.34,808.233 1048.99,808.233 L1049.98,808.233 L1060.91,805.916 L1060.91,860.531 L1048,863.179 C1046.01,863.51 1044.36,865.827 1044.36,867.813 L1044.36,887.011 C1044.36,889.659 1046.34,891.645 1048.99,891.645 L1049.98,891.645 L1060.91,889.328 L1060.91,938.647 L1070.17,938.647 L1070.17,887.342 L1099.63,881.384 L1099.63,928.055 L1108.9,928.055 L1108.9,879.398 L1121.48,877.081 C1123.47,876.75 1125.12,874.433 1125.12,872.447 L1125.12,852.918 C1125.12,850.27 1123.13,848.284 1120.49,848.284 L1119.82,848.284 L1108.9,850.601 L1108.9,795.986 L1121.48,793.669 "/>
<path class="KeySig" d="M1070.17,1672.04 L1099.63,1666.08 L1099.63,1720.7 L1070.17,1726.99 L1070.17,1672.04 M1121.48,1661.78 C1123.47,1661.45 1125.12,1659.13 1125.12,1657.14 L1125.12,1637.62 C1125.12,1634.97 1123.13,1632.98 1120.49,1632.98 L1119.82,1632.98 L1108.9,1635.3 L1108.9,1585.98 L1099.63,1585.98 L1099.63,1637.28 L1070.17,1643.24 L1070.17,1596.57 L1060.91,1596.57 L1060.91,1645.23 L1048,1647.88 C1046.01,1648.21 1044.36,1650.52 1044.36,1652.51 L1044.36,1671.71 C1044.36,1674.36 1046.34,1676.34 1048.99,1676.34 L1049.98,1676.34 L1060.91,1674.03 L1060.91,1728.64 L1048,1731.29 C1046.01,1731.62 1044.36,1733.94 1044.36,1735.92 L1044.36,1755.12 C1044.36,1757.77 1046.34,1759.75 1048.99,1759.75 L1049.98,1759.75 L1060.91,1757.44 L1060.91,1806.76 L1070.17,1806.76 L1070.17,1755.45 L1099.63,1749.49 L1099.63,1796.16 L1108.9,1796.16 L1108.9,1747.51 L1121.48,1745.19 C1123.47,1744.86 1125.12,1742.54 1125.12,1740.56 L1125.12,1721.03 C1125.12,1718.38 1123.13,1716.39 1120.49,1716.39 L1119.82,1716.39 L1108.9,1718.71 L1108.9,1664.1 L1121.48,1661.78 "/>
<path class="TimeSig" d="M1281.87,979.772 C1270.94,979.772 1262.01,964.877 1262.01,946.341 C1262.01,927.805 1270.94,912.579 1281.87,912.579 C1292.79,912.579 1302.06,927.805 1302.06,946.341 C1302.06,964.877 1292.79,979.772 1281.87,979.772 M1294.11,897.022 C1273.92,897.022 1266.64,902.98 1262.01,907.945 C1261.01,900.994 1260.35,895.698 1260.35,890.402 C1260.35,871.535 1266.97,847.041 1290.14,847.041 C1298.42,847.041 1303.38,849.689 1306.69,853.33 C1299.74,856.309 1294.11,865.246 1294.11,872.859 C1294.11,884.775 1303.38,894.043 1315.3,894.043 C1327.21,894.043 1336.81,884.775 1336.81,872.859 L1336.81,871.866 C1336.81,868.887 1336.15,863.922 1334.83,861.274 C1330.52,849.358 1316.62,831.815 1283.52,831.815 C1253.73,831.815 1232.22,860.281 1225.6,875.507 C1222.29,883.451 1217.32,899.67 1217.32,918.206 C1217.32,938.397 1222.95,961.236 1242.48,978.448 C1261.68,993.012 1273.92,993.674 1285.51,993.674 C1297.09,993.674 1340.45,980.103 1340.45,941.707 C1340.45,909.269 1314.97,897.022 1294.11,897.022"/>
<path class="TimeSig" d="M1271.95,1118.01 L1271.95,1142.5 L1244.48,1142.5 C1242.16,1142.5 1239.85,1144.49 1239.85,1147.13 L1239.85,1153.42 C1239.85,1156.07 1242.16,1158.06 1244.48,1158.06 L1344.77,1158.06 C1347.42,1158.06 1349.41,1156.07 1349.41,1153.42 L1349.41,1147.13 C1349.41,1144.49 1347.42,1142.5 1344.77,1142.5 L1314.98,1142.5 L1314.98,1118.01 L1344.77,1118.01 C1347.42,1118.01 1349.41,1115.69 1349.41,1113.04 L1349.41,1106.75 C1349.41,1104.44 1347.42,1102.12 1344.77,1102.12 L1314.98,1102.12 L1314.98,1049.49 C1314.98,1047.5 1313.99,1045.85 1312.67,1045.19 L1308.7,1043.2 C1308.03,1042.87 1307.7,1042.87 1307.04,1042.87 C1305.72,1042.87 1304.39,1042.87 1303.4,1043.86 L1273.28,1071.34 C1272.29,1072.33 1271.95,1073.65 1271.95,1074.98 L1271.95,1102.12 L1233.56,1102.12 C1233.56,1102.12 1270.63,1062.4 1309.69,1010.1 C1311.01,1008.45 1311.34,1006.79 1311.34,1005.47 C1311.34,1003.81 1310.68,1002.49 1310.35,1002.16 L1303.07,994.874 C1302.08,994.212 1301.08,993.55 1299.76,993.55 C1297.77,993.55 1253.09,993.55 1250.44,993.55 C1248.12,993.55 1246.47,995.536 1246.14,997.522 C1246.14,997.522 1244.48,1022.02 1235.88,1048.83 C1227.27,1075.64 1217.34,1092.19 1208.73,1104.44 C1208.73,1104.44 1207.74,1106.09 1207.74,1108.08 C1207.74,1108.74 1207.74,1109.4 1208.07,1110.06 C1209.06,1112.38 1211.38,1116.02 1211.38,1116.02 C1211.38,1116.02 1212.04,1118.01 1215.02,1118.01 L1271.95,1118.01 "/>
<path class="NoteDot" d="M3890.92,1035.12 C3890.92,1044.38 3898.2,1051.67 3907.47,1051.67 C3916.74,1051.67 3924.02,1044.38 3924.02,1035.12 C3924.02,1025.85 3916.74,1018.57 3907.47,1018.57 C3898.2,1018.57 3890.92,1025.85 3890.92,1035.12"/>
<path class="NoteDot" d="M2088.12,1035.12 C2088.12,1044.38 2095.4,1051.67 2104.67,1051.67 C2113.94,1051.67 2121.22,1044.38 2121.22,1035.12 C2121.22,1025.85 2113.94,1018.57 2104.67,1018.57 C2095.4,1018.57 2088.12,1025.85 2088.12,1035.12"/>
<path class="NoteDot" d="M4790.01,952.439 C4790.01,961.707 4797.3,968.989 4806.56,968.989 C4815.83,968.989 4823.11,961.707 4823.11,952.439 C4823.11,943.171 4815.83,935.889 4806.56,935.889 C4797.3,935.889 4790.01,943.171 4790.01,952.439"/>
</svg>
