<?xml version="1.0" encoding="utf-8"?>
<svg xmlns="http://www.w3.org/2000/svg" xmlns:svg="http://www.w3.org/2000/svg" version="1.1" viewBox="0 0 681 117">
	<title>The musical score for Air XXV</title>
	<path d="M186.508 95.653c0 .741.582 1.325 1.324 1.325s1.325-.584 1.325-1.325c0-.742-.582-1.325-1.325-1.325-.742 0-1.324.583-1.324 1.325M583.322 6.3c0 .742.583 1.325 1.325 1.325.741 0 1.325-.583 1.325-1.325 0-.741-.584-1.324-1.325-1.324-.742 0-1.325.583-1.325 1.324M185.641 19.538c0 .742.582 1.325 1.324 1.325s1.325-.583 1.325-1.325-.582-1.325-1.325-1.325c-.742 0-1.324.583-1.324 1.325m117.867 6.619c0 .741.582 1.325 1.324 1.325s1.325-.584 1.325-1.325c0-.742-.583-1.325-1.325-1.325s-1.324.583-1.324 1.325m144.979 69.496c0 .741.582 1.325 1.325 1.325.742 0 1.324-.584 1.324-1.325 0-.742-.582-1.325-1.324-1.325s-1.325.583-1.325 1.325m167.869-13.246 16.028 1.654v3.327l-16.028-1.654zM530.11 29.454l13.96-1.654v3.332l-13.96 1.655zm-78.175-16.546 13.96 1.654v3.333l-13.96-1.655zM45.094 32.793v1.96h-2.2c-.185 0-.37.16-.37.37v.504c0 .212.185.372.37.372h8.03c.212 0 .371-.16.371-.372v-.503c0-.212-.16-.37-.371-.37h-2.385v-1.961h2.385c.212 0 .371-.186.371-.398v-.504a.38.38 0 0 0-.371-.37h-2.385v-4.214c0-.16-.08-.291-.185-.344l-.318-.16c-.054-.026-.08-.026-.133-.026-.106 0-.212 0-.291.08l-2.412 2.2a.4.4 0 0 0-.106.29v2.174h-3.073s2.967-3.18 6.094-7.367a.58.58 0 0 0 .132-.37.44.44 0 0 0-.079-.266l-.583-.583c-.079-.053-.159-.106-.265-.106h-3.948c-.186 0-.318.159-.344.318 0 0-.133 1.961-.822 4.107s-1.484 3.472-2.173 4.452c0 0-.08.132-.08.292 0 .052 0 .105.027.158.08.186.265.477.265.477s.053.16.292.16zm.794-11.067c-.875 0-1.59-1.192-1.59-2.676s.715-2.703 1.59-2.703c.874 0 1.616 1.219 1.616 2.703s-.742 2.676-1.616 2.676m.98-6.625c-1.616 0-2.2.477-2.57.875-.08-.557-.133-.98-.133-1.405 0-1.51.53-3.47 2.385-3.47.663 0 1.06.211 1.325.503-.556.238-1.007.954-1.007 1.563 0 .954.742 1.696 1.696 1.696s1.722-.742 1.722-1.696v-.08c0-.238-.052-.635-.158-.847-.345-.954-1.458-2.359-4.108-2.359-2.385 0-4.107 2.28-4.637 3.498a9.4 9.4 0 0 0-.662 3.418c0 1.617.45 3.445 2.014 4.823 1.537 1.166 2.517 1.219 3.445 1.219s4.398-1.087 4.398-4.16c0-2.597-2.04-3.578-3.71-3.578M28.941 77.145l2.358-.477v4.373l-2.358.503zm4.107-.821c.16-.026.292-.212.292-.372V74.39a.363.363 0 0 0-.371-.372h-.054l-.874.186v-3.948H31.3v4.107l-2.358.477v-3.736h-.742v3.895l-1.033.212c-.16.027-.292.212-.292.37v1.538c0 .212.159.37.371.37h.08l.874-.184v4.371l-1.033.213c-.16.026-.292.212-.292.37v1.537c0 .212.159.37.371.37h.08l.874-.184v3.948h.742v-4.107l2.358-.477v3.736h.742v-3.895l1.007-.186c.16-.026.292-.212.292-.37v-1.564a.363.363 0 0 0-.371-.371h-.054l-.874.185V76.51zM28.941 7.649l2.358-.477v4.372l-2.358.504zm4.107-.821c.16-.027.292-.212.292-.371V4.893a.36.36 0 0 0-.371-.37h-.054l-.874.185V.759H31.3v4.108l-2.358.477V1.607h-.742v3.896l-1.033.212c-.16.026-.292.212-.292.37v1.537c0 .212.159.371.371.371h.08l.874-.185v4.372l-1.033.212c-.16.027-.292.212-.292.371V14.3c0 .212.159.371.371.371h.08l.874-.185v3.948h.742v-4.107l2.358-.477v3.736h.742V13.69l1.007-.186c.16-.026.292-.212.292-.37V11.57a.36.36 0 0 0-.371-.371h-.054l-.874.185V7.013zM16.093 34.924a7.7 7.7 0 0 1-1.537.16c-3.789 0-7.022-2.65-7.022-6.651 0-3.234 2.28-6.122 4.611-8.135.45-.398.875-.769 1.272-1.166.238 1.43.424 2.676.61 3.762-2.412.716-4.055 3.26-4.055 5.75 0 1.855 1.458 4.4 3.577 4.4.212 0 .451-.107.451-.345 0-.239-.265-.372-.583-.583-1.033-.636-1.616-1.325-1.616-2.623 0-1.617 1.192-2.915 2.755-3.287zm-2.332-27.24c.239-1.06 1.458-3.842 2.836-3.842.397 0 1.033 1.299 1.033 3.127 0 2.756-2.04 4.823-3.869 6.625-.159-1.06-.291-2.094-.291-3.207 0-.98.08-1.881.291-2.703m6.095 22.339c0 1.881-.768 3.815-2.65 4.584a882 882 0 0 1-1.457-8.559c2.385 0 4.107 1.616 4.107 3.975M8.196 43.06c0 1.748 1.352 4.054 4.93 4.054 1.245 0 2.331-.318 3.285-.901 1.431-1.007 1.802-2.756 1.802-4.425 0-1.034-.159-2.226-.424-3.737-.08-.53-.238-1.325-.397-2.358 2.597-.848 4.53-3.55 4.53-6.28 0-4.001-2.834-6.704-6.703-6.704-.265-1.59-.53-3.153-.769-4.637 2.81-2.942 4.744-6.254 4.744-10.467 0-2.411-.742-4.372-1.166-5.326C17.392.927 16.623 0 16.146 0c-.185 0-1.007.318-1.881 1.351-1.696 2.014-2.173 5.406-2.173 7.632 0 1.43.133 2.73.583 5.697-.026.026-1.404 1.43-1.96 1.881-2.412 2.253-5.75 5.459-5.75 10.758 0 4.956 4.318 8.851 9.247 8.851.768 0 1.484-.08 2.093-.186.504 2.545.795 4.4.795 5.804 0 2.755-1.404 4.213-4.08 4.213-.636 0-1.193-.133-1.246-.133-.026-.026-.08-.053-.08-.08 0-.052.054-.079.133-.105 1.246-.186 2.49-1.246 2.49-2.941 0-1.432-1.085-2.941-3.073-2.941-1.855 0-3.047 1.51-3.047 3.259m7.896 61.36a7.7 7.7 0 0 1-1.537.16c-3.789 0-7.022-2.65-7.022-6.65 0-3.234 2.28-6.122 4.611-8.136.45-.398.875-.769 1.272-1.166.238 1.43.424 2.677.61 3.763-2.412.715-4.055 3.259-4.055 5.75 0 1.854 1.458 4.398 3.577 4.398.212 0 .451-.105.451-.344 0-.238-.265-.371-.583-.583-1.033-.636-1.616-1.324-1.616-2.623 0-1.616 1.192-2.915 2.755-3.286zm-2.332-27.24c.239-1.06 1.458-3.842 2.836-3.842.397 0 1.033 1.298 1.033 3.127 0 2.755-2.04 4.822-3.869 6.624-.159-1.06-.291-2.093-.291-3.206 0-.98.08-1.882.291-2.703m6.095 22.338c0 1.881-.768 3.815-2.65 4.584a882 882 0 0 1-1.457-8.559c2.385 0 4.107 1.617 4.107 3.975m-11.66 13.037c0 1.748 1.352 4.054 4.93 4.054 1.245 0 2.331-.318 3.285-.9 1.431-1.008 1.802-2.757 1.802-4.426 0-1.034-.159-2.226-.424-3.736-.08-.53-.238-1.325-.397-2.359 2.597-.847 4.53-3.55 4.53-6.28 0-4.001-2.834-6.704-6.703-6.704-.265-1.59-.53-3.153-.769-4.637 2.81-2.942 4.744-6.253 4.744-10.467 0-2.411-.742-4.372-1.166-5.326-.636-1.351-1.405-2.279-1.882-2.279-.185 0-1.007.319-1.881 1.351-1.696 2.015-2.173 5.406-2.173 7.632 0 1.431.133 2.73.583 5.698-.026.026-1.404 1.43-1.96 1.88-2.412 2.253-5.75 5.459-5.75 10.759 0 4.955 4.318 8.85 9.247 8.85.768 0 1.484-.079 2.093-.185.504 2.544.795 4.399.795 5.803 0 2.755-1.404 4.213-4.08 4.213-.636 0-1.193-.133-1.246-.133-.026-.026-.08-.053-.08-.08 0-.052.054-.078.133-.105 1.246-.185 2.49-1.245 2.49-2.941 0-1.431-1.085-2.941-3.073-2.941-1.855 0-3.047 1.51-3.047 3.259m601.795-98.524c0 1.14.822 2.411 2.968 2.411 2.756 0 5.645-2.252 5.645-4.584 0-1.563-1.325-2.438-2.969-2.438-2.57 0-5.644 2.173-5.644 4.611M508.738 84.694a.99.99 0 0 1-1.06-.954c0-1.298 4.452-3.577 5.698-3.577.635 0 1.06.371 1.06.954 0 1.325-4.479 3.577-5.698 3.577m3.657-5.776c-2.57 0-5.644 2.146-5.644 4.61 0 1.14.822 2.412 2.968 2.412 2.755 0 5.644-2.253 5.644-4.585 0-1.563-1.325-2.437-2.968-2.437M384.66 23.96c0 1.14.822 2.411 2.968 2.411 2.756 0 5.644-2.252 5.644-4.584 0-1.563-1.325-2.438-2.967-2.438-2.57 0-5.645 2.173-5.645 4.611m99.043 69.496c0 1.14.821 2.412 2.968 2.412 2.755 0 5.643-2.252 5.643-4.584 0-1.564-1.324-2.438-2.967-2.438-2.57 0-5.644 2.173-5.644 4.61M212.312 23.96c0 1.14.82 2.411 2.967 2.411 2.756 0 5.644-2.252 5.644-4.584 0-1.563-1.325-2.438-2.968-2.438-2.57 0-5.643 2.173-5.643 4.611M465.79 96.766c0 1.14.822 2.411 2.968 2.411 2.756 0 5.645-2.253 5.645-4.584 0-1.563-1.325-2.438-2.968-2.438-2.57 0-5.645 2.173-5.645 4.61m-49.731-65.02a.99.99 0 0 1-1.06-.954c0-1.298 4.452-3.577 5.697-3.577.636 0 1.06.37 1.06.954 0 1.325-4.478 3.577-5.697 3.577m3.657-5.777c-2.57 0-5.644 2.146-5.644 4.611 0 1.14.821 2.411 2.968 2.411 2.755 0 5.643-2.252 5.643-4.584 0-1.563-1.325-2.438-2.967-2.438m24.277 7.92c0 1.14.822 2.412 2.968 2.412 2.755 0 5.644-2.253 5.644-4.585 0-1.563-1.325-2.438-2.968-2.438-2.57 0-5.644 2.173-5.644 4.612m97.332 59.567c0 1.14.822 2.412 2.968 2.412 2.755 0 5.644-2.252 5.644-4.584 0-1.564-1.325-2.438-2.968-2.438-2.57 0-5.644 2.173-5.644 4.61m-104.754 6.62c0 1.139.822 2.41 2.969 2.41 2.755 0 5.644-2.252 5.644-4.583 0-1.564-1.325-2.439-2.968-2.439-2.57 0-5.645 2.174-5.645 4.611M334.791 23.96c0 1.14.82 2.411 2.967 2.411 2.756 0 5.644-2.252 5.644-4.584 0-1.563-1.325-2.438-2.968-2.438-2.57 0-5.644 2.173-5.644 4.611m-17.911 3.31c0 1.139.821 2.41 2.968 2.41 2.756 0 5.644-2.252 5.644-4.583 0-1.564-1.325-2.438-2.967-2.438-2.57 0-5.645 2.173-5.645 4.61m140.412 9.928c0 1.14.821 2.412 2.968 2.412 2.756 0 5.644-2.252 5.644-4.584 0-1.564-1.325-2.438-2.967-2.438-2.57 0-5.645 2.173-5.645 4.61m-53.233 66.188c0 1.139.821 2.411 2.967 2.411 2.756 0 5.644-2.253 5.644-4.585 0-1.562-1.325-2.437-2.967-2.437-2.57 0-5.644 2.172-5.644 4.61m68.519-65.02a.99.99 0 0 1-1.06-.955c0-1.298 4.452-3.577 5.697-3.577.636 0 1.06.371 1.06.954 0 1.325-4.478 3.578-5.697 3.578m3.657-5.777c-2.57 0-5.644 2.146-5.644 4.61 0 1.14.821 2.412 2.967 2.412 2.757 0 5.644-2.252 5.644-4.584 0-1.564-1.325-2.438-2.967-2.438M371.47 97.932a.99.99 0 0 1-1.06-.954c0-1.298 4.452-3.578 5.697-3.578.636 0 1.06.372 1.06.955 0 1.325-4.478 3.577-5.697 3.577m3.657-5.777c-2.57 0-5.644 2.147-5.644 4.61 0 1.14.821 2.412 2.967 2.412 2.756 0 5.644-2.253 5.644-4.584 0-1.563-1.325-2.438-2.967-2.438M199.013 20.65c0 1.14.821 2.411 2.967 2.411 2.757 0 5.645-2.252 5.645-4.584 0-1.563-1.325-2.438-2.968-2.438-2.57 0-5.644 2.173-5.644 4.61m147.421 72.806c0 1.14.822 2.412 2.968 2.412 2.756 0 5.644-2.252 5.644-4.584 0-1.564-1.325-2.438-2.968-2.438-2.57 0-5.644 2.173-5.644 4.61M530.11 14.032c0 1.14.822 2.411 2.968 2.411 2.756 0 5.645-2.252 5.645-4.584 0-1.563-1.325-2.438-2.969-2.438-2.57 0-5.644 2.173-5.644 4.611M313.847 88.004a.99.99 0 0 1-1.06-.954c0-1.299 4.452-3.577 5.698-3.577.636 0 1.06.37 1.06.953 0 1.325-4.478 3.578-5.698 3.578m3.657-5.777c-2.57 0-5.644 2.146-5.644 4.61 0 1.14.822 2.412 2.968 2.412 2.756 0 5.644-2.252 5.644-4.584 0-1.564-1.325-2.438-2.968-2.438m258.323 19.014a.99.99 0 0 1-1.06-.953c0-1.299 4.451-3.578 5.697-3.578.636 0 1.06.37 1.06.954 0 1.325-4.478 3.577-5.697 3.577m3.656-5.777c-2.57 0-5.643 2.147-5.643 4.611 0 1.14.82 2.412 2.967 2.412 2.756 0 5.644-2.253 5.644-4.584 0-1.564-1.325-2.439-2.968-2.439M66.511 31.744a.99.99 0 0 1-1.06-.953c0-1.298 4.452-3.577 5.697-3.577.636 0 1.06.37 1.06.954 0 1.325-4.479 3.577-5.697 3.577m3.657-5.777c-2.57 0-5.645 2.146-5.645 4.611 0 1.14.822 2.411 2.968 2.411 2.756 0 5.645-2.252 5.645-4.584 0-1.563-1.325-2.438-2.968-2.438m473.241-15.245c0 1.14.821 2.411 2.968 2.411 2.755 0 5.644-2.252 5.644-4.584 0-1.563-1.325-2.438-2.968-2.438-2.57 0-5.644 2.173-5.644 4.61M279.346 93.457c0 1.14.822 2.412 2.968 2.412 2.756 0 5.644-2.252 5.644-4.584 0-1.564-1.324-2.438-2.968-2.438-2.57 0-5.644 2.173-5.644 4.61m12.246-62.877c0 1.14.822 2.411 2.969 2.411 2.755 0 5.643-2.252 5.643-4.584 0-1.563-1.324-2.438-2.967-2.438-2.57 0-5.645 2.173-5.645 4.611M246.76 88.004a.99.99 0 0 1-1.06-.954c0-1.299 4.451-3.577 5.697-3.577.636 0 1.06.37 1.06.953 0 1.325-4.479 3.578-5.697 3.578m3.656-5.777c-2.57 0-5.644 2.146-5.644 4.61 0 1.14.822 2.412 2.968 2.412 2.756 0 5.644-2.252 5.644-4.584 0-1.564-1.324-2.438-2.968-2.438m320.99-74.814c0 1.14.823 2.412 2.97 2.412 2.755 0 5.643-2.253 5.643-4.584 0-1.564-1.325-2.438-2.968-2.438-2.57 0-5.644 2.173-5.644 4.61M221.723 93.456c0 1.14.821 2.412 2.967 2.412 2.757 0 5.645-2.252 5.645-4.584 0-1.564-1.325-2.438-2.968-2.438-2.57 0-5.644 2.173-5.644 4.61m386.69 9.929c0 1.139.822 2.411 2.968 2.411 2.756 0 5.644-2.253 5.644-4.585 0-1.562-1.325-2.437-2.968-2.437-2.57 0-5.644 2.172-5.644 4.61m-404.6-6.618c0 1.14.82 2.411 2.967 2.411 2.755 0 5.644-2.253 5.644-4.584 0-1.563-1.325-2.438-2.968-2.438-2.57 0-5.644 2.173-5.644 4.61m392.882-86.042c0 1.14.822 2.411 2.968 2.411 2.755 0 5.644-2.252 5.644-4.584 0-1.563-1.325-2.438-2.968-2.438-2.57 0-5.644 2.173-5.644 4.61M173.726 23.96c0 1.14.821 2.411 2.968 2.411 2.756 0 5.643-2.252 5.643-4.584 0-1.563-1.324-2.438-2.967-2.438-2.57 0-5.644 2.173-5.644 4.611m60.52 14.404a.99.99 0 0 1-1.06-.955c0-1.298 4.452-3.577 5.697-3.577.636 0 1.06.371 1.06.954 0 1.325-4.478 3.578-5.696 3.578m3.656-5.777c-2.57 0-5.644 2.146-5.644 4.61 0 1.14.821 2.412 2.967 2.412 2.757 0 5.645-2.252 5.645-4.584 0-1.564-1.325-2.438-2.968-2.438m-63.31 67.488c0 1.14.821 2.412 2.968 2.412 2.755 0 5.643-2.253 5.643-4.584 0-1.564-1.324-2.439-2.967-2.439-2.57 0-5.644 2.174-5.644 4.611m466.54 7.785a.99.99 0 0 1-1.06-.954c0-1.299 4.452-3.577 5.697-3.577.636 0 1.06.37 1.06.953 0 1.325-4.478 3.578-5.697 3.578m3.657-5.777c-2.57 0-5.644 2.146-5.644 4.61 0 1.14.821 2.413 2.967 2.413 2.756 0 5.644-2.253 5.644-4.585 0-1.564-1.325-2.438-2.967-2.438M94.445 37.197c0 1.14.82 2.412 2.968 2.412 2.755 0 5.644-2.252 5.644-4.584 0-1.564-1.325-2.438-2.968-2.438-2.57 0-5.644 2.173-5.644 4.61m537.482-18.69a.99.99 0 0 1-1.06-.954c0-1.298 4.452-3.577 5.697-3.577.636 0 1.06.371 1.06.954 0 1.325-4.478 3.577-5.697 3.577m3.657-5.776c-2.57 0-5.644 2.146-5.644 4.61 0 1.14.822 2.412 2.968 2.412 2.755 0 5.644-2.253 5.644-4.584 0-1.564-1.325-2.438-2.968-2.438M142.08 103.385c0 1.139.821 2.411 2.967 2.411 2.757 0 5.645-2.253 5.645-4.585 0-1.562-1.325-2.437-2.968-2.437-2.57 0-5.644 2.172-5.644 4.61m2.235-76.114c0 1.139.821 2.41 2.967 2.41 2.756 0 5.644-2.252 5.644-4.583 0-1.564-1.325-2.438-2.967-2.438-2.57 0-5.644 2.173-5.644 4.61m-34.822 80.59a.99.99 0 0 1-1.06-.953c0-1.299 4.452-3.577 5.697-3.577.637 0 1.06.37 1.06.953 0 1.325-4.478 3.578-5.697 3.578m3.657-5.777c-2.57 0-5.644 2.146-5.644 4.61 0 1.14.821 2.413 2.967 2.413 2.757 0 5.645-2.253 5.645-4.585 0-1.564-1.325-2.438-2.968-2.438m546.713-88.05c0 1.138.82 2.41 2.967 2.41 2.756 0 5.644-2.252 5.644-4.584 0-1.563-1.325-2.438-2.968-2.438-2.57 0-5.643 2.173-5.643 4.611M84.455 106.694c0 1.14.822 2.412 2.968 2.412 2.756 0 5.645-2.253 5.645-4.585 0-1.564-1.325-2.438-2.968-2.438-2.57 0-5.645 2.173-5.645 4.61m31.925-74.948a.99.99 0 0 1-1.06-.954c0-1.298 4.451-3.577 5.697-3.577.636 0 1.06.37 1.06.954 0 1.325-4.478 3.577-5.697 3.577m3.656-5.777c-2.57 0-5.643 2.146-5.643 4.611 0 1.14.821 2.411 2.967 2.411 2.756 0 5.644-2.252 5.644-4.584 0-1.563-1.325-2.438-2.968-2.438M51.87 84.694a.99.99 0 0 1-1.06-.954c0-1.298 4.452-3.577 5.697-3.577.636 0 1.06.371 1.06.954 0 1.325-4.479 3.577-5.697 3.577m3.657-5.776c-2.57 0-5.645 2.146-5.645 4.61 0 1.14.822 2.412 2.968 2.412 2.756 0 5.645-2.253 5.645-4.585 0-1.563-1.325-2.437-2.968-2.437m568.253 27.776c0 1.14.822 2.412 2.968 2.412 2.756 0 5.645-2.253 5.645-4.585 0-1.564-1.325-2.438-2.969-2.438-2.57 0-5.644 2.173-5.644 4.61M356.725 15.199a.99.99 0 0 1-1.06-.954c0-1.298 4.452-3.577 5.697-3.577.637 0 1.06.37 1.06.954 0 1.325-4.478 3.577-5.697 3.577m3.657-5.777c-2.57 0-5.644 2.147-5.644 4.611 0 1.14.821 2.411 2.968 2.411 2.756 0 5.644-2.252 5.644-4.584 0-1.563-1.325-2.438-2.968-2.438M262.18 33.89c0 1.139.821 2.41 2.968 2.41 2.756 0 5.644-2.252 5.644-4.584 0-1.563-1.325-2.438-2.968-2.438-2.57 0-5.644 2.173-5.644 4.612m62.642-23.228c0 .08.026.212.211.291 1.14.371 3.419 1.802 5.142 4.744.477.821 1.245 1.96 1.245 4.16 0 1.908-.503 3.869-1.193 5.776-.052.159-.105.292-.079.398 0 .159.106.265.265.265.185 0 .318-.106.424-.292 1.192-2.12 1.643-4.584 1.643-6.995-.133-3.418-2.093-5.936-2.093-5.936.079 0-2.439-3.26-3.154-4.372-.98-1.51-1.431-3.02-1.484-3.127-.026-.08-.265-1.033-.265-1.033-.026-.106-.158-.212-.318-.212a.35.35 0 0 0-.344.344zm148.91 69.496c0 .08.028.212.213.291 1.14.372 3.418 1.802 5.141 4.744.476.821 1.245 1.961 1.245 4.16 0 1.908-.504 3.87-1.192 5.777-.053.158-.107.291-.08.397 0 .16.106.265.266.265.184 0 .317-.106.423-.292 1.193-2.12 1.643-4.583 1.643-6.995-.132-3.418-2.094-5.936-2.094-5.936.08 0-2.437-3.259-3.152-4.372-.98-1.51-1.432-3.02-1.484-3.127a64 64 0 0 1-.265-1.033c-.027-.106-.16-.212-.318-.212a.35.35 0 0 0-.345.345zm-274.72-39.135c0 .186.16.344.344.344.133 0 .291-.105.319-.212 0-.026.237-.953.265-1.032.026-.107.265-1.114 1.218-2.677 1.034-1.722 2.624-2.968 3.948-4.823 1.299-1.855 2.094-3.603 2.094-5.935 0-2.411-.557-4.426-1.96-6.996-.08-.185-.24-.291-.399-.291-.052 0-.105 0-.132.026-.133.053-.185.16-.185.318a.8.8 0 0 0 .079.318c1.06 2.464 1.484 3.869 1.484 5.777 0 2.2-.768 3.338-1.246 4.16-1.721 2.94-4.504 4.372-5.617 4.743-.186.08-.212.212-.212.291zm397.681-8.274a.35.35 0 0 0 .345.345c.132 0 .291-.107.317-.213 0-.026.239-.954.265-1.033.027-.107.265-1.113 1.22-2.676 1.033-1.723 2.623-2.968 3.948-4.823 1.298-1.855 2.093-3.604 2.093-5.936 0-2.411-.557-4.425-1.96-6.995-.08-.186-.24-.292-.398-.292-.054 0-.106 0-.133.027-.132.053-.186.159-.186.318 0 .08.027.212.08.318 1.06 2.464 1.484 3.869 1.484 5.776 0 2.2-.769 3.34-1.245 4.16-1.723 2.942-4.505 4.373-5.618 4.744-.185.08-.212.211-.212.291zm-384.94 47.408c0 .08.027.212.213.291 1.139.372 3.418 1.802 5.14 4.744.477.821 1.246 1.961 1.246 4.16 0 1.908-.504 3.87-1.193 5.777-.053.158-.106.291-.08.397 0 .16.106.265.265.265.186 0 .318-.106.425-.292 1.192-2.12 1.642-4.583 1.642-6.995-.132-3.418-2.093-5.936-2.093-5.936.08 0-2.438-3.259-3.153-4.372-.981-1.51-1.43-3.02-1.485-3.127a64 64 0 0 1-.265-1.033c-.026-.106-.158-.212-.317-.212a.35.35 0 0 0-.345.345zm-161.872 3.37v22.054h.662V83.527Zm132.654-7.73v22.106h.662V75.797Zm-8.81-51.838v18.744h.662V23.96ZM150.02 79.106v22.107h.662V79.106Zm61.733-4.91v20.398h.662V74.195Zm384.94-63.474v22.027h.662V10.722Zm63.167 3.31v22.053h.662V14.03ZM221.723 93.455V112.2h.662V93.456Zm23.05-6.62v22.054h.662V86.837ZM571.407 7.413v22.054h.662V7.412Zm-292.06 86.044V112.2h.662V93.456Zm-163.9-11.04v22.106h.662V82.415Zm-13.06-69.497v22.106h.662V12.92Zm441.022-2.197v18.783h.662V10.722ZM311.86 86.837v22.053h.662V86.837Zm34.574 6.619V112.2h.662V93.456ZM530.11 14.03v17.05h.662v-17.05ZM199.012 20.65v20.372h.662V20.65zm178.414 53.492v20.452h.662V74.142ZM212.31 23.96v18.744h.662V23.96ZM412 79.106v22.107h.662V79.106Zm66.532-66.187v22.106h.662V12.92ZM72.466 6.301v22.106h.662V6.301Zm392.768 9.888v18.836h.662V16.19Zm-20.72 59.608v22.106h.662V75.797ZM152.256 4.646v20.452h.662V4.646Zm299.679 9.967v17.104h.662V14.613Zm21.798 59.582v20.399h.662V74.195Zm-51.72-67.894v22.106h.663V6.301Zm61.689 87.155V112.2h.662V93.456Zm-243.5-80.537v22.106h.661V12.92ZM506.75 83.527v22.054h.662V83.527ZM384.659 23.96v18.744h.662V23.96Zm156.666 69.497V112.2h.662V93.456ZM354.738 14.03v22.054h.662V14.03Zm275.202 3.31v22.053h.662V17.34Zm-295.15 6.618v18.744h.662V23.96Zm275.202-9.928v22.054h.662V14.03ZM324.822 4.7v20.399h.662v-20.4ZM92.398 82.415v22.107h.662V82.415Zm489.383-6.618v22.106h.662V75.797Zm34.574 8.308v17.108h.663V84.105ZM299.535 6.3v22.106h.662V6.301Zm332.187 79.39v18.83h.662v-18.83ZM270.122 9.61v22.107h.663V9.61ZM122.335 6.3v22.107h.662V6.301Zm524.754 76.115v22.107h.662V82.415ZM623.89 14.268l2.359-.477v4.372l-2.359.503zm4.108-.822c.158-.026.291-.212.291-.37v-1.564a.363.363 0 0 0-.371-.371h-.053l-.874.185V7.378h-.742v4.107l-2.359.477V8.226h-.742v3.895l-1.033.212c-.159.027-.292.212-.292.371v1.537c0 .212.16.371.372.371h.08l.873-.185v4.372l-1.033.212c-.159.026-.292.212-.292.37v1.538c0 .212.16.37.372.37h.08l.873-.185v3.948h.742v-4.107l2.359-.477v3.736h.742V20.31l1.007-.185c.159-.027.292-.212.292-.371v-1.564a.363.363 0 0 0-.372-.37h-.053l-.874.185v-4.372zm-223.392-4.2v27.203h1.191V9.246Zm104.747 0v27.203h3.64V9.246Zm-3.64 0v27.203h1.191V9.246Zm-2.448 16.91c0-.768-.609-1.404-1.377-1.404-.769 0-1.378.636-1.378 1.405 0 .768.61 1.404 1.378 1.404s1.377-.636 1.377-1.404m0-6.62c0-.768-.609-1.404-1.377-1.404-.769 0-1.378.636-1.378 1.405 0 .768.61 1.404 1.378 1.404s1.377-.636 1.377-1.404m18.573 6.619c0-.769-.61-1.405-1.378-1.405s-1.378.636-1.378 1.405c0 .768.61 1.404 1.378 1.404s1.378-.636 1.378-1.404m0-6.62c0-.768-.61-1.404-1.378-1.404s-1.378.636-1.378 1.405c0 .768.61 1.404 1.378 1.404s1.378-.636 1.378-1.404m-6.396-10.292v27.203h1.191V9.246Zm-6.089 0v27.203h3.64V9.246Zm52.589 0v27.203h1.19V9.246ZM677.36 78.742v27.203H681V78.742Zm-3.64 0v27.203h1.191V78.742ZM164.26 9.246v27.203h1.191V9.246Zm515.548 0v27.203H681V9.246Zm-514.68 69.496v27.203h1.19V78.742Zm137.267 0v27.203h1.19V78.742Zm124.711 0v27.203h1.191V78.742Zm137.268 0v27.203h1.19V78.742ZM282.128 9.246v27.203h1.191V9.246ZM0 105.216v.729h681v-.728zM0 98.6v.727h681V98.6zm0-6.62v.729h681v-.728zm0-6.618v.728h681v-.728zm0-6.619v.728h681v-.728Zm0-43.021v.727h681v-.727zm0-6.619v.728h681v-.728zm0-6.619v.728h681v-.728zm0-6.618v.727h681v-.727Zm0-6.619v.728h681v-.728Z"/>
</svg>
