<?xml version="1.0" encoding="UTF-8" standalone="no"?>
<svg
   width="681"
   height="186.10622"
   version="1.2"
   id="svg164"
   xmlns="http://www.w3.org/2000/svg"
   xmlns:svg="http://www.w3.org/2000/svg"
   xmlns:rdf="http://www.w3.org/1999/02/22-rdf-syntax-ns#"
   xmlns:cc="http://creativecommons.org/ns#"
   xmlns:dc="http://purl.org/dc/elements/1.1/">
  <defs
     id="defs164" />
  <title
     id="title1">air_VIII</title>
  <desc
     id="desc1">Generated by MuseScore Studio 4.7.3</desc>
  <path
     id="path164"
     class="NoteDot"
     d="m 619.2578,165.14948 c 0,0.74211 0.5828,1.32491 1.32491,1.32491 0.7421,0 1.3249,-0.5828 1.3249,-1.32491 0,-0.74211 -0.5828,-1.32491 -1.3249,-1.32491 -0.74211,0 -1.32491,0.5828 -1.32491,1.32491 m -111.89411,-6.61893 c 0,0.74211 0.5828,1.32491 1.32491,1.32491 0.74211,0 1.3249,-0.5828 1.3249,-1.32491 0,-0.7421 -0.58279,-1.3249 -1.3249,-1.3249 -0.74211,0 -1.32491,0.5828 -1.32491,1.3249 M 486.13158,19.537839 c 0,0.741947 0.58359,1.324906 1.3249,1.324906 0.74211,0 1.32491,-0.582959 1.32491,-1.324906 0,-0.741947 -0.5828,-1.324906 -1.32491,-1.324906 -0.74131,0 -1.3249,0.582959 -1.3249,1.324906 m -160.23597,84.383381 22.00705,1.65473 v 3.31907 l -22.00705,-1.65473 v -3.31907 M 645.06024,85.724774 h 22.00705 v 3.309463 h -22.00705 v -3.309463 m -419.34753,21.505906 22.00705,1.65473 v 3.31907 l -22.00705,-1.65473 v -3.31907 M 641.31208,39.388292 661.22249,37.73356 v 3.320671 l -19.91041,1.654731 v -3.32067 M 51.369511,32.792582 v 1.96054 h -2.199104 c -0.185727,0 -0.371454,0.159309 -0.371454,0.370654 v 0.503544 c 0,0.212145 0.185727,0.371454 0.371454,0.371454 h 8.02869 c 0.212145,0 0.370653,-0.159309 0.370653,-0.371454 v -0.503544 c 0,-0.211345 -0.158508,-0.370654 -0.370653,-0.370654 h -2.384831 v -1.96054 h 2.384831 c 0.212145,0 0.370653,-0.185727 0.370653,-0.397872 v -0.503544 c 0,-0.184927 -0.158508,-0.370654 -0.370653,-0.370654 h -2.384831 v -4.213281 c 0,-0.159309 -0.07925,-0.291399 -0.185727,-0.344235 l -0.317817,-0.159309 c -0.05284,-0.02642 -0.07925,-0.02642 -0.13209,-0.02642 -0.106473,0 -0.212145,0 -0.2922,0.07925 l -2.411249,2.199904 c -0.07925,0.07925 -0.105672,0.184927 -0.105672,0.2914 v 2.172685 h -3.074102 c 0,0 2.96843,-3.179774 6.094567,-7.366637 0.106473,-0.13209 0.132891,-0.264981 0.132891,-0.370653 0,-0.132891 -0.05284,-0.238563 -0.07925,-0.264981 l -0.583599,-0.583279 c -0.07925,-0.053 -0.158509,-0.105993 -0.264981,-0.105993 -0.158509,0 -3.736155,0 -3.9483,0 -0.184926,0 -0.317817,0.158989 -0.344235,0.317978 0,0 -0.132091,1.961181 -0.821362,4.107448 -0.689271,2.146268 -1.484215,3.471174 -2.172686,4.451844 0,0 -0.07925,0.13209 -0.07925,0.291399 0,0.05284 0,0.105673 0.02642,0.158509 0.07925,0.185727 0.264982,0.477126 0.264982,0.477126 0,0 0.05284,0.159309 0.291399,0.159309 h 4.557516 m 2.740274,-16.829988 c 2.119849,-0.821441 2.25274,-2.199343 2.25274,-2.67631 v -0.13249 c 0,-0.238483 -0.08005,-3.2327705 -4.637571,-3.2327705 -4.557516,0 -4.425426,3.2327705 -4.425426,3.2327705 h 0.02642 l -0.02642,0.053 c 0,0.953932 0.768526,1.69588 1.722778,1.69588 0.953452,0 1.695559,-0.741948 1.695559,-1.69588 0,-0.768445 -0.582798,-1.510393 -1.324905,-1.669381 l 0.08005,-0.07949 c 0.370654,-0.264981 0.874198,-0.397471 1.377742,-0.397471 1.112761,0 2.304776,0.662452 2.304776,2.093351 0,1.669381 -1.244851,1.907864 -1.562668,1.960861 -0.318618,0.053 -1.802032,0.158988 -2.11985,0.158988 -0.318618,0 -0.345036,0.370974 -0.345036,0.370974 v 0.529962 c 0,0 0.05284,0.29148 0.345036,0.317978 0.449908,0.0265 1.059925,0.0265 1.907705,0.158988 1.165597,0.158989 1.774813,0.953933 1.774813,2.808801 0,1.775374 -1.192015,2.25234 -2.304776,2.25234 -0.742107,0 -1.431378,-0.211985 -1.722778,-0.42397 0.874999,-0.053 1.589887,-0.821442 1.589887,-1.695879 0,-0.953933 -0.742107,-1.722378 -1.695559,-1.722378 -0.954252,0 -1.722778,0.768445 -1.722778,1.722378 0,2.172845 1.987759,3.259268 3.9483,3.259268 2.544139,0 5.299623,-0.874438 5.299623,-3.762733 0,-1.934362 -1.324906,-2.755804 -2.490503,-3.126778 h 0.05284 M 37.732186,11.859229 c 0,2.093351 -1.086342,3.206272 -2.623393,4.425185 l 0.07925,-5.167133 c 0.05284,-0.238483 0.450708,-1.006928 1.510633,-1.006928 0.953452,0 1.033506,0.900936 1.033506,1.457396 v 0.29148 M 37.413569,8.8119451 c -1.324906,0 -2.092631,0.8214417 -2.225522,0.9804304 l 0.105672,-8.5058959 c 0,-0.2119849 -0.158508,-0.37097363 -0.370653,-0.37097363 h -0.317818 c -0.212145,0 -0.371454,0.15898873 -0.371454,0.37097363 l 0.132891,15.9253694 c 0,0.211985 0.159309,0.370973 0.370654,0.370973 0.05364,0 0.159309,-0.0265 0.212145,-0.053 2.279158,-1.139419 4.663989,-3.312265 4.663989,-6.041571 0,-1.377902 -0.636435,-2.6763099 -2.199904,-2.6763099 M 30.371954,21.787297 c 0,2.093591 -1.086343,3.206352 -2.623394,4.425586 l 0.07925,-5.167533 c 0.05284,-0.238483 0.450709,-1.006929 1.510633,-1.006929 0.954253,0 1.033507,0.900936 1.033507,1.457397 v 0.291479 m -0.317817,-3.047284 c -1.324906,0 -2.093432,0.821442 -2.226323,0.980431 l 0.106473,-8.505896 c 0,-0.211985 -0.159309,-0.370974 -0.371454,-0.370974 h -0.317817 c -0.212145,0 -0.370654,0.158989 -0.370654,0.370974 l 0.132091,15.925369 c 0,0.212145 0.159309,0.370653 0.371454,0.370653 0.05284,0 0.158508,-0.02642 0.211344,-0.05284 2.279159,-1.139179 4.663989,-3.311864 4.663989,-6.041411 0,-1.377902 -0.635634,-2.67631 -2.199103,-2.67631 M 37.732186,150.8517 c 0,2.09344 -1.086342,3.2062 -2.623393,4.42543 l 0.07925,-5.16753 c 0.05284,-0.23777 0.450708,-1.00629 1.510633,-1.00629 0.953452,0 1.033506,0.90061 1.033506,1.457 v 0.29139 m -0.318617,-3.04688 c -1.324906,0 -2.092631,0.82136 -2.225522,0.97987 l 0.105672,-8.50581 c 0,-0.21135 -0.158508,-0.37066 -0.370653,-0.37066 h -0.317818 c -0.212145,0 -0.371454,0.15931 -0.371454,0.37066 l 0.132891,15.92528 c 0,0.21215 0.159309,0.37146 0.370654,0.37146 0.05364,0 0.159309,-0.0264 0.212145,-0.0528 2.279158,-1.13998 4.663989,-3.31266 4.663989,-6.04173 0,-1.37774 -0.636435,-2.67623 -2.199904,-2.67623 m -7.041615,12.97527 c 0,2.09343 -1.086343,3.2062 -2.623394,4.42543 l 0.07925,-5.16753 c 0.05284,-0.23857 0.450709,-1.00709 1.510633,-1.00709 0.954253,0 1.033507,0.90141 1.033507,1.45779 v 0.2914 m -0.317817,-3.04768 c -1.324906,0 -2.093432,0.82136 -2.226323,0.98067 l 0.106473,-8.50582 c 0,-0.21214 -0.159309,-0.37065 -0.371454,-0.37065 h -0.317817 c -0.212145,0 -0.370654,0.15851 -0.370654,0.37065 l 0.132091,15.92529 c 0,0.21215 0.159309,0.37066 0.371454,0.37066 0.05284,0 0.158508,-0.0264 0.211344,-0.0528 2.279159,-1.13918 4.663989,-3.31186 4.663989,-6.04173 0,-1.37774 -0.635634,-2.67623 -2.199103,-2.67623 m 7.678049,-76.377023 c 0,2.093431 -1.086342,3.206192 -2.623393,4.425425 l 0.07925,-5.167533 c 0.05284,-0.237762 0.450708,-1.006288 1.510633,-1.006288 0.953452,0 1.033506,0.900616 1.033506,1.456996 v 0.2914 m -0.318617,-3.046884 c -1.324906,0 -2.092631,0.821362 -2.225522,0.97987 l 0.105672,-8.505816 c 0,-0.211344 -0.158508,-0.370653 -0.370653,-0.370653 h -0.317818 c -0.212145,0 -0.371454,0.159309 -0.371454,0.370653 l 0.132891,15.925289 c 0,0.212145 0.159309,0.371454 0.370654,0.371454 0.05364,0 0.159309,-0.02642 0.212145,-0.05284 2.279158,-1.139979 4.663989,-3.312665 4.663989,-6.041731 0,-1.377742 -0.636435,-2.67623 -2.199904,-2.67623 m -7.041615,12.975272 c 0,2.093431 -1.086343,3.206192 -2.623394,4.425426 l 0.07925,-5.167533 c 0.05284,-0.238563 0.450709,-1.007089 1.510633,-1.007089 0.954253,0 1.033507,0.901416 1.033507,1.457797 v 0.291399 m -0.317817,-3.047684 c -1.324906,0 -2.093432,0.821362 -2.226323,0.980671 l 0.106473,-8.505816 c 0,-0.212145 -0.159309,-0.370654 -0.371454,-0.370654 H 27.245 c -0.212145,0 -0.370654,0.158509 -0.370654,0.370654 l 0.132091,15.925289 c 0,0.212145 0.159309,0.370653 0.371454,0.370653 0.05284,0 0.158508,-0.02642 0.211344,-0.05284 2.279159,-1.139179 4.663989,-3.311864 4.663989,-6.041731 0,-1.377742 -0.635634,-2.67623 -2.199103,-2.67623 M 16.093311,34.924439 c -0.529962,0.106473 -1.033427,0.159309 -1.536891,0.159309 -3.789231,0 -7.0220012,-2.649811 -7.0220012,-6.650947 0,-3.233411 2.2788382,-6.121386 4.6106722,-8.135243 0.450468,-0.397471 0.874438,-0.768445 1.27191,-1.165917 0.238483,1.430899 0.42397,2.67631 0.609457,3.762733 -2.411329,0.715129 -4.0542123,3.259268 -4.0542123,5.749771 0,1.854869 1.4573963,4.399008 3.5772463,4.399008 0.211985,0 0.450468,-0.105672 0.450468,-0.344235 0,-0.238563 -0.264982,-0.371454 -0.582959,-0.582799 -1.033427,-0.636435 -1.616385,-1.324906 -1.616385,-2.623393 0,-1.616306 1.192415,-2.914793 2.755804,-3.286247 l 1.536891,8.71796 M 13.761477,7.6844542 c 0.238483,-1.0599247 1.457396,-3.8422271 2.835298,-3.8422271 0.397472,0 1.033427,1.2984078 1.033427,3.1267779 0,2.7558043 -2.040355,4.822658 -3.868725,6.62453 -0.158989,-1.059925 -0.29148,-2.093352 -0.29148,-3.206273 0,-0.9804301 0.0795,-1.8813661 0.29148,-2.7028078 m 6.094567,22.3382338 c 0,1.881286 -0.768446,3.815409 -2.649812,4.583934 -0.556461,-3.179774 -1.27191,-7.393055 -1.457397,-8.558652 2.384831,0 4.107209,1.616305 4.107209,3.974718 M 8.1968718,43.059602 c 0,1.748395 1.351404,4.053972 4.9286502,4.053972 1.245411,0 2.331834,-0.317818 3.285766,-0.900616 1.430899,-1.007089 1.801872,-2.756285 1.801872,-4.425426 0,-1.033507 -0.158988,-2.225522 -0.423969,-3.736154 -0.07949,-0.529963 -0.238484,-1.324906 -0.397472,-2.358413 2.596815,-0.84778 4.531178,-3.550428 4.531178,-6.280294 0,-4.001136 -2.835299,-6.703784 -6.704024,-6.703784 -0.264981,-1.589887 -0.529962,-3.153276 -0.768445,-4.637171 2.8088,-2.941291 4.743163,-6.253555 4.743163,-10.4667561 0,-2.4113288 -0.741948,-4.3721895 -1.165917,-5.3261218 C 17.391719,0.92743413 16.623273,0 16.146307,0 15.96082,0 15.139379,0.31797742 14.264941,1.351404 c -1.69588,2.013857 -2.172846,5.4056161 -2.172846,7.631458 0,1.430898 0.132491,2.729306 0.582959,5.697095 -0.0265,0.0265 -1.404401,1.430899 -1.960861,1.881367 -2.4113287,2.25234 -5.7500916,5.458612 -5.7500916,10.757915 0,4.955389 4.3191932,8.850852 9.2478436,8.850852 0.768445,0 1.483894,-0.07925 2.093351,-0.185727 0.503464,2.54414 0.794943,4.399008 0.794943,5.803168 0,2.755484 -1.4044,4.213281 -4.08071,4.213281 -0.635955,0 -1.192415,-0.132891 -1.245411,-0.132891 -0.0265,-0.02642 -0.07949,-0.05284 -0.07949,-0.07925 0,-0.05284 0.053,-0.07925 0.132491,-0.105672 1.245412,-0.185727 2.490823,-1.245652 2.490823,-2.941211 0,-1.431379 -1.086423,-2.941211 -3.073782,-2.941211 -1.8548679,0 -3.0472832,1.509832 -3.0472832,3.259028 M 16.093311,173.91708 c -0.529962,0.10647 -1.033427,0.1593 -1.536891,0.1593 -3.789231,0 -7.0220012,-2.64981 -7.0220012,-6.65094 0,-3.23341 2.2788382,-6.12099 4.6106722,-8.13517 0.450468,-0.39787 0.874438,-0.76852 1.27191,-1.16559 0.238483,1.43058 0.42397,2.67623 0.609457,3.76257 -2.411329,0.71489 -4.0542123,3.25903 -4.0542123,5.74953 0,1.85487 1.4573963,4.39901 3.5772463,4.39901 0.211985,0 0.450468,-0.10567 0.450468,-0.34424 0,-0.23856 -0.264982,-0.37145 -0.582959,-0.58279 -1.033427,-0.63644 -1.616385,-1.32491 -1.616385,-2.6234 0,-1.6163 1.192415,-2.91479 2.755804,-3.28625 l 1.536891,8.71797 m -2.331834,-27.24023 c 0.238483,-1.05992 1.457396,-3.84183 2.835298,-3.84183 0.397472,0 1.033427,1.29849 1.033427,3.12694 0,2.75549 -2.040355,4.8225 -3.868725,6.62453 -0.158989,-1.05992 -0.29148,-2.09343 -0.29148,-3.20619 0,-0.98067 0.0795,-1.88209 0.29148,-2.70345 m 6.094567,22.33847 c 0,1.88129 -0.768446,3.81541 -2.649812,4.58394 -0.556461,-3.17978 -1.27191,-7.39306 -1.457397,-8.55865 2.384831,0 4.107209,1.6163 4.107209,3.97471 M 8.1968718,182.05224 c 0,1.74839 1.351404,4.05397 4.9286502,4.05397 1.245411,0 2.331834,-0.31782 3.285766,-0.90062 1.430899,-1.00708 1.801872,-2.75628 1.801872,-4.42542 0,-1.03351 -0.158988,-2.22552 -0.423969,-3.73616 -0.07949,-0.52996 -0.238484,-1.3249 -0.397472,-2.35841 2.596815,-0.84778 4.531178,-3.55043 4.531178,-6.28029 0,-4.00114 -2.835299,-6.70379 -6.704024,-6.70379 -0.264981,-1.58988 -0.529962,-3.15335 -0.768445,-4.63677 2.8088,-2.94201 4.743163,-6.25387 4.743163,-10.46715 0,-2.41125 -0.741948,-4.37179 -1.165917,-5.32605 -0.635955,-1.35132 -1.404401,-2.27915 -1.881367,-2.27915 -0.185487,0 -1.006928,0.31861 -1.881366,1.35132 -1.69588,2.01418 -2.172846,5.4061 -2.172846,7.63162 0,1.43138 0.132491,2.72986 0.582959,5.69749 -0.0265,0.0264 -1.404401,1.43058 -1.960861,1.88129 -2.4113287,2.25194 -5.7500916,5.45813 -5.7500916,10.75776 0,4.95538 4.3191932,8.85085 9.2478436,8.85085 0.768445,0 1.483894,-0.0793 2.093351,-0.18573 0.503464,2.54414 0.794943,4.39901 0.794943,5.80317 0,2.75548 -1.4044,4.21328 -4.08071,4.21328 -0.635955,0 -1.192415,-0.13289 -1.245411,-0.13289 -0.0265,-0.0264 -0.07949,-0.0528 -0.07949,-0.0793 0,-0.0528 0.053,-0.0792 0.132491,-0.10567 1.245412,-0.18573 2.490823,-1.24565 2.490823,-2.94121 0,-1.43138 -1.086423,-2.94121 -3.073782,-2.94121 -1.8548679,0 -3.0472832,1.50983 -3.0472832,3.25903 m 7.8964392,-77.63148 c -0.529962,0.10647 -1.033427,0.15931 -1.536891,0.15931 -3.789231,0 -7.0220012,-2.64982 -7.0220012,-6.650951 0,-3.233411 2.2788382,-6.120985 4.6106722,-8.135163 0.450468,-0.397872 0.874438,-0.768525 1.27191,-1.165597 0.238483,1.430579 0.42397,2.67623 0.609457,3.762573 -2.411329,0.714889 -4.0542123,3.259028 -4.0542123,5.749531 0,1.854869 1.4573963,4.399007 3.5772463,4.399007 0.211985,0 0.450468,-0.10567 0.450468,-0.34423 0,-0.23857 -0.264982,-0.37146 -0.582959,-0.5828 -1.033427,-0.63644 -1.616385,-1.32491 -1.616385,-2.623396 0,-1.616306 1.192415,-2.914793 2.755804,-3.286247 l 1.536891,8.717963 M 13.761477,77.180532 c 0.238483,-1.059925 1.457396,-3.841827 2.835298,-3.841827 0.397472,0 1.033427,1.298488 1.033427,3.126938 0,2.755484 -2.040355,4.822498 -3.868725,6.62453 -0.158989,-1.059925 -0.29148,-2.093432 -0.29148,-3.206193 0,-0.98067 0.0795,-1.882086 0.29148,-2.703448 m 6.094567,22.338474 c 0,1.881284 -0.768446,3.815404 -2.649812,4.583934 -0.556461,-3.17977 -1.27191,-7.393055 -1.457397,-8.558652 2.384831,0 4.107209,1.616305 4.107209,3.974718 M 8.1968718,112.55592 c 0,1.7484 1.351404,4.05397 4.9286502,4.05397 1.245411,0 2.331834,-0.31782 3.285766,-0.90061 1.430899,-1.00709 1.801872,-2.75629 1.801872,-4.42543 0,-1.03351 -0.158988,-2.22552 -0.423969,-3.73615 -0.07949,-0.52997 -0.238484,-1.32491 -0.397472,-2.35842 2.596815,-0.84778 4.531178,-3.55042 4.531178,-6.280291 0,-4.001136 -2.835299,-6.703784 -6.704024,-6.703784 -0.264981,-1.589887 -0.529962,-3.153356 -0.768445,-4.63677 2.8088,-2.942012 4.743163,-6.253876 4.743163,-10.467157 0,-2.411249 -0.741948,-4.371789 -1.165917,-5.326042 -0.635955,-1.351324 -1.404401,-2.279158 -1.881367,-2.279158 -0.185487,0 -1.006928,0.318618 -1.881366,1.351324 -1.69588,2.014177 -2.172846,5.406096 -2.172846,7.631618 0,1.431379 0.132491,2.729866 0.582959,5.697495 -0.0265,0.02642 -1.404401,1.430579 -1.960861,1.881287 -2.4113287,2.25194 -5.7500916,5.458132 -5.7500916,10.757755 0,4.955393 4.3191932,8.850853 9.2478436,8.850853 0.768445,0 1.483894,-0.0793 2.093351,-0.18573 0.503464,2.54414 0.794943,4.39901 0.794943,5.80317 0,2.75548 -1.4044,4.21328 -4.08071,4.21328 -0.635955,0 -1.192415,-0.13289 -1.245411,-0.13289 -0.0265,-0.0264 -0.07949,-0.0528 -0.07949,-0.0793 0,-0.0528 0.053,-0.0793 0.132491,-0.10568 1.245412,-0.18572 2.490823,-1.24565 2.490823,-2.94121 0,-1.43138 -1.086423,-2.94121 -3.073782,-2.94121 -1.8548679,0 -3.0472832,1.50983 -3.0472832,3.25903 M 442.08786,93.456461 c 0,1.139179 0.82136,2.411248 2.96763,2.411248 2.75628,0 5.64466,-2.251939 5.64466,-4.583934 0,-1.563469 -1.32491,-2.437667 -2.96843,-2.437667 -2.56976,0 -5.64386,2.172686 -5.64386,4.610353 M 339.79712,40.506656 c 0,1.13998 0.82136,2.411249 2.96843,2.411249 2.75548,0 5.64386,-2.25194 5.64386,-4.583934 0,-1.563469 -1.32491,-2.437667 -2.96763,-2.437667 -2.57056,0 -5.64466,2.172686 -5.64466,4.610352 M 451.07641,156.33385 c 0,1.13998 0.82216,2.41125 2.96843,2.41125 2.75548,0 5.64385,-2.25194 5.64385,-4.58393 0,-1.56347 -1.3249,-2.43767 -2.96762,-2.43767 -2.57056,0 -5.64466,2.17269 -5.64466,4.61035 M 378.13453,23.960143 c 0,1.139179 0.82136,2.411248 2.96763,2.411248 2.75629,0 5.64466,-2.251939 5.64466,-4.584094 0,-1.563389 -1.3249,-2.437827 -2.96843,-2.437827 -2.56976,0 -5.64386,2.172846 -5.64386,4.610673 m 38.03481,142.302097 c 0,1.13918 0.82136,2.41125 2.96763,2.41125 2.75628,0 5.64466,-2.25194 5.64466,-4.58393 0,-1.56347 -1.32491,-2.43767 -2.96763,-2.43767 -2.57056,0 -5.64466,2.17268 -5.64466,4.61035 M 407.00707,27.269606 c 0,1.139178 0.82137,2.411248 2.96763,2.411248 2.75629,0 5.64466,-2.25274 5.64466,-4.583934 0,-1.563469 -1.3249,-2.438067 -2.96763,-2.438067 -2.57055,0 -5.64466,2.173086 -5.64466,4.610753 m -25.7448,135.683174 c 0,1.13918 0.82136,2.41125 2.96763,2.41125 2.75628,0 5.64466,-2.25194 5.64466,-4.58394 0,-1.56347 -1.32491,-2.43766 -2.96843,-2.43766 -2.56976,0 -5.64386,2.17268 -5.64386,4.61035 M 435.87962,17.341457 c 0,1.139419 0.82136,2.411329 2.96762,2.411329 2.75629,0 5.64466,-2.25234 5.64466,-4.584175 0,-1.563388 -1.3249,-2.437826 -2.96762,-2.437826 -2.57056,0 -5.64466,2.172845 -5.64466,4.610672 m 38.33741,6.618686 c 0,1.139179 0.82136,2.411248 2.96763,2.411248 2.75628,0 5.64466,-2.251939 5.64466,-4.584094 0,-1.563389 -1.32491,-2.437827 -2.96843,-2.437827 -2.56976,0 -5.64386,2.172846 -5.64386,4.610673 m -216.06614,6.618925 c 0,1.139179 0.82217,2.411249 2.96843,2.411249 2.75549,0 5.64386,-2.25274 5.64386,-4.583934 0,-1.563469 -1.3249,-2.438468 -2.96763,-2.438468 -2.57055,0 -5.64466,2.173487 -5.64466,4.611153 m 78.73944,148.920222 c 0,1.13998 0.82136,2.41125 2.96763,2.41125 2.75629,0 5.64466,-2.25194 5.64466,-4.58393 0,-1.56347 -1.32491,-2.43767 -2.96843,-2.43767 -2.56976,0 -5.64386,2.17269 -5.64386,4.61035 M 510.81805,27.269606 c 0,1.139178 0.82137,2.411248 2.96763,2.411248 2.75629,0 5.64386,-2.25274 5.64386,-4.583934 0,-1.563469 -1.3249,-2.438067 -2.96763,-2.438067 -2.56975,0 -5.64386,2.173086 -5.64386,4.610753 M 286.51669,167.42784 c -0.8742,0 -1.05993,-0.71489 -1.05993,-0.95345 0,-1.29849 4.45185,-3.57765 5.6975,-3.57765 0.63563,0 1.05992,0.37145 1.05992,0.95425 0,1.32491 -4.47826,3.57685 -5.69749,3.57685 m 3.6569,-5.77595 c -2.57056,0 -5.64386,2.14627 -5.64386,4.61035 0,1.13918 0.82136,2.41125 2.96763,2.41125 2.75548,0 5.64386,-2.25194 5.64386,-4.58393 0,-1.56347 -1.32491,-2.43767 -2.96763,-2.43767 M 530.06642,30.579068 c 0,1.139179 0.82136,2.411249 2.96762,2.411249 2.75629,0 5.64386,-2.25274 5.64386,-4.583934 0,-1.563469 -1.3249,-2.438468 -2.96763,-2.438468 -2.56975,0 -5.64385,2.173487 -5.64385,4.611153 m 40.32437,1.165597 c -0.8742,0 -1.05993,-0.715689 -1.05993,-0.953452 0,-1.298487 4.45185,-3.577646 5.6975,-3.577646 0.63563,0 1.05992,0.370654 1.05992,0.954253 0,1.324906 -4.47826,3.576845 -5.69749,3.576845 m 3.6569,-5.77675 c -2.57056,0 -5.64386,2.146268 -5.64386,4.611153 0,1.139179 0.82136,2.411249 2.96763,2.411249 2.75548,0 5.64386,-2.25274 5.64386,-4.583934 0,-1.563469 -1.32491,-2.438468 -2.96763,-2.438468 m 67.26439,-2.007772 c 0,1.139179 0.82136,2.411248 2.96763,2.411248 2.75628,0 5.64386,-2.251939 5.64386,-4.584094 0,-1.563389 -1.32491,-2.437827 -2.96763,-2.437827 -2.56976,0 -5.64386,2.172846 -5.64386,4.610673 M 240.15779,169.5717 c 0,1.13918 0.82136,2.41125 2.96763,2.41125 2.75548,0 5.64386,-2.25274 5.64386,-4.58393 0,-1.56347 -1.32491,-2.43847 -2.96763,-2.43847 -2.57056,0 -5.64386,2.17349 -5.64386,4.61115 m 255.29136,-6.61892 c 0,1.13918 0.82136,2.41125 2.96763,2.41125 2.75548,0 5.64385,-2.25194 5.64385,-4.58394 0,-1.56347 -1.3249,-2.43766 -2.96762,-2.43766 -2.57056,0 -5.64386,2.17268 -5.64386,4.61035 m -290.19923,3.30946 c 0,1.13918 0.82217,2.41125 2.96843,2.41125 2.75549,0 5.64386,-2.25194 5.64386,-4.58393 0,-1.56347 -1.3249,-2.43767 -2.96763,-2.43767 -2.57055,0 -5.64466,2.17268 -5.64466,4.61035 M 660.56044,20.65076 c 0,1.139419 0.82136,2.411329 2.96763,2.411329 2.75628,0 5.64386,-2.25234 5.64386,-4.584175 0,-1.563389 -1.32491,-2.437827 -2.96763,-2.437827 -2.56976,0 -5.64386,2.172846 -5.64386,4.610673 M 170.34286,162.95278 c 0,1.13918 0.82136,2.41125 2.96762,2.41125 2.75629,0 5.64466,-2.25194 5.64466,-4.58394 0,-1.56347 -1.3249,-2.43766 -2.96762,-2.43766 -2.57056,0 -5.64466,2.17268 -5.64466,4.61035 M 229.27835,27.269606 c 0,1.139178 0.82216,2.411248 2.96843,2.411248 2.75549,0 5.64386,-2.25274 5.64386,-4.583934 0,-1.563469 -1.3249,-2.438067 -2.96763,-2.438067 -2.57056,0 -5.64466,2.173086 -5.64466,4.610753 m -28.87254,-3.309463 c 0,1.139179 0.82216,2.411248 2.96843,2.411248 2.75548,0 5.64386,-2.251939 5.64386,-4.584094 0,-1.563389 -1.32491,-2.437827 -2.96763,-2.437827 -2.57056,0 -5.64466,2.172846 -5.64466,4.610673 M 56.156784,86.837535 c 0,1.139979 0.821362,2.411249 2.967629,2.411249 2.755484,0 5.643859,-2.25194 5.643859,-4.583935 0,-1.563469 -1.324906,-2.437666 -2.967629,-2.437666 -2.570557,0 -5.643859,2.172685 -5.643859,4.610352 M 125.97092,169.5717 c 0,1.13918 0.82136,2.41125 2.96763,2.41125 2.75628,0 5.64465,-2.25274 5.64465,-4.58393 0,-1.56347 -1.3249,-2.43847 -2.96842,-2.43847 -2.56976,0 -5.64386,2.17349 -5.64386,4.61115 M 88.174673,86.837535 c 0,1.139979 0.821362,2.411249 2.967629,2.411249 2.756285,0 5.64466,-2.25194 5.64466,-4.583935 0,-1.563469 -1.324906,-2.437666 -2.96843,-2.437666 -2.569757,0 -5.643859,2.172685 -5.643859,4.610352 m 32.018697,13.237855 c 0,1.13918 0.82136,2.41124 2.96763,2.41124 2.75548,0 5.64385,-2.25274 5.64385,-4.583929 0,-1.563469 -1.3249,-2.438468 -2.96763,-2.438468 -2.57055,0 -5.64385,2.173487 -5.64385,4.611157 m -29.129521,72.80578 c 0,1.13918 0.821361,2.41125 2.967629,2.41125 2.756284,0 5.643859,-2.25274 5.643859,-4.58474 0,-1.56267 -1.324906,-2.43767 -2.967629,-2.43767 -2.569757,0 -5.643859,2.17269 -5.643859,4.61116 M 161.67613,83.528072 c 0,1.13998 0.82136,2.412049 2.96763,2.412049 2.75628,0 5.64386,-2.25274 5.64386,-4.584734 0,-1.563469 -1.32491,-2.437667 -2.96763,-2.437667 -2.56976,0 -5.64386,2.172685 -5.64386,4.610352 M 56.156784,169.5717 c 0,1.13918 0.821362,2.41125 2.967629,2.41125 2.755484,0 5.643859,-2.25274 5.643859,-4.58393 0,-1.56347 -1.324906,-2.43847 -2.967629,-2.43847 -2.570557,0 -5.643859,2.17349 -5.643859,4.61115 M 193.69402,86.837535 c 0,1.139979 0.82136,2.411249 2.96843,2.411249 2.75549,0 5.64386,-2.25194 5.64386,-4.583935 0,-1.563469 -1.32491,-2.437666 -2.96763,-2.437666 -2.57056,0 -5.64466,2.172685 -5.64466,4.610352 M 539.6994,166.26224 c 0,1.13918 0.82136,2.41125 2.96843,2.41125 2.75549,0 5.64386,-2.25194 5.64386,-4.58393 0,-1.56347 -1.32491,-2.43767 -2.96763,-2.43767 -2.57056,0 -5.64466,2.17268 -5.64466,4.61035 M 162.0692,30.579068 c 0,1.139179 0.82136,2.411249 2.96763,2.411249 2.75548,0 5.64386,-2.25274 5.64386,-4.583934 0,-1.563469 -1.32491,-2.438468 -2.96763,-2.438468 -2.57056,0 -5.64386,2.173487 -5.64386,4.611153 m 63.64351,59.56793 c 0,1.139179 0.82137,2.411248 2.96763,2.411248 2.75549,0 5.64386,-2.251939 5.64386,-4.583934 0,-1.563469 -1.3249,-2.437667 -2.96763,-2.437667 -2.57055,0 -5.64386,2.172686 -5.64386,4.610353 m 337.2586,79.424702 c 0,1.13918 0.82137,2.41125 2.96763,2.41125 2.75549,0 5.64386,-2.25274 5.64386,-4.58393 0,-1.56347 -1.3249,-2.43847 -2.96763,-2.43847 -2.57055,0 -5.64386,2.17349 -5.64386,4.61115 m 95.4917,-59.56873 c 0,1.13998 0.82136,2.41125 2.96843,2.41125 2.75548,0 5.64386,-2.25194 5.64386,-4.58393 0,-1.56347 -1.32491,-2.43767 -2.96763,-2.43767 -2.57056,0 -5.64466,2.17269 -5.64466,4.61035 M 247.05771,93.456461 c 0,1.139179 0.82216,2.411248 2.96843,2.411248 2.75548,0 5.64386,-2.251939 5.64386,-4.583934 0,-1.563469 -1.32491,-2.437667 -2.96763,-2.437667 -2.57056,0 -5.64466,2.172686 -5.64466,4.610353 M 133.19666,33.888531 c 0,1.139179 0.82136,2.411249 2.96763,2.411249 2.75548,0 5.64385,-2.25274 5.64385,-4.584735 0,-1.563469 -1.3249,-2.437667 -2.96762,-2.437667 -2.57056,0 -5.64386,2.172686 -5.64386,4.611153 m 503.92135,76.114439 c 0,1.13998 0.82136,2.41125 2.96763,2.41125 2.75548,0 5.64386,-2.25194 5.64386,-4.58393 0,-1.56347 -1.32491,-2.43767 -2.96763,-2.43767 -2.57056,0 -5.64386,2.17269 -5.64386,4.61035 M 104.32412,30.579068 c 0,1.139179 0.82136,2.411249 2.96762,2.411249 2.75549,0 5.64386,-2.25274 5.64386,-4.583934 0,-1.563469 -1.3249,-2.438468 -2.96763,-2.438468 -2.57055,0 -5.64385,2.173487 -5.64385,4.611153 M 591.07773,97.93152 c -0.8742,0 -1.05992,-0.714888 -1.05992,-0.953451 0,-1.298488 4.45184,-3.577647 5.69749,-3.577647 0.63564,0 1.05993,0.371454 1.05993,0.954253 0,1.324906 -4.47826,3.576845 -5.6975,3.576845 m 3.6569,-5.776749 c -2.57056,0 -5.64386,2.147068 -5.64386,4.611152 0,1.139179 0.82136,2.411249 2.96763,2.411249 2.75549,0 5.64386,-2.25274 5.64386,-4.583934 0,-1.563469 -1.3249,-2.438467 -2.96763,-2.438467 m -314.8793,-0.841376 c -0.87419,0 -1.05992,-0.715689 -1.05992,-0.954252 0,-1.298488 4.45184,-3.577646 5.6975,-3.577646 0.63563,0 1.05992,0.371454 1.05992,0.954252 0,1.324906 -4.47826,3.577646 -5.6975,3.577646 m 3.6569,-5.77675 c -2.56975,0 -5.64385,2.146268 -5.64385,4.610353 0,1.139179 0.82136,2.411248 2.96762,2.411248 2.75629,0 5.64386,-2.251939 5.64386,-4.583934 0,-1.563469 -1.3249,-2.437667 -2.96763,-2.437667 m 42.38338,1.30089 c 0,1.139979 0.82137,2.411249 2.96763,2.411249 2.75629,0 5.64466,-2.25194 5.64466,-4.583935 0,-1.563469 -1.3249,-2.437666 -2.96843,-2.437666 -2.56975,0 -5.64386,2.172685 -5.64386,4.610352 M 70.798796,40.506656 c 0,1.13998 0.821361,2.411249 2.967629,2.411249 2.755484,0 5.643859,-2.25194 5.643859,-4.583934 0,-1.563469 -1.324906,-2.437667 -2.967629,-2.437667 -2.570558,0 -5.643859,2.172686 -5.643859,4.610352 M 547.60721,93.456461 c 0,1.139179 0.82136,2.411248 2.96763,2.411248 2.75628,0 5.64466,-2.251939 5.64466,-4.583934 0,-1.563469 -1.32491,-2.437667 -2.96763,-2.437667 -2.57056,0 -5.64466,2.172686 -5.64466,4.610353 m -200.3658,-3.309463 c 0,1.139179 0.82136,2.411248 2.96763,2.411248 2.75548,0 5.64386,-2.251939 5.64386,-4.583934 0,-1.563469 -1.32491,-2.437667 -2.96763,-2.437667 -2.57056,0 -5.64386,2.172686 -5.64386,4.610353 m 168.34791,0 c 0,1.139179 0.82136,2.411248 2.96763,2.411248 2.75548,0 5.64385,-2.251939 5.64385,-4.583934 0,-1.563469 -1.3249,-2.437667 -2.96762,-2.437667 -2.57056,0 -5.64386,2.172686 -5.64386,4.610353 m -137.53804,3.309463 c 0,1.139179 0.82136,2.411248 2.96762,2.411248 2.75629,0 5.64466,-2.251939 5.64466,-4.583934 0,-1.563469 -1.3249,-2.437667 -2.96843,-2.437667 -2.56975,0 -5.64385,2.172686 -5.64385,4.610353 m 105.51934,6.618929 c 0,1.13918 0.82137,2.41124 2.96843,2.41124 2.75549,0 5.64386,-2.25274 5.64386,-4.583929 0,-1.563469 -1.3249,-2.438468 -2.96763,-2.438468 -2.57055,0 -5.64466,2.173487 -5.64466,4.611157 m -73.50065,-3.309467 c 0,1.139179 0.82136,2.411249 2.96763,2.411249 2.75548,0 5.64386,-2.25274 5.64386,-4.583934 0,-1.563469 -1.32491,-2.438467 -2.96763,-2.438467 -2.57056,0 -5.64386,2.173486 -5.64386,4.611152 M 298.47607,28.435202 c -0.8742,0 -1.05993,-0.714888 -1.05993,-0.953451 0,-1.298488 4.45185,-3.577647 5.6967,-3.577647 0.63643,0 1.05992,0.371454 1.05992,0.954253 0,1.324906 -4.47826,3.576845 -5.69669,3.576845 m 3.6569,-5.776349 c -2.57056,0 -5.64466,2.146668 -5.64466,4.610753 0,1.139178 0.82136,2.411248 2.96843,2.411248 2.75548,0 5.64386,-2.25274 5.64386,-4.583934 0,-1.563469 -1.32491,-2.438067 -2.96763,-2.438067 M 609.33021,170.7373 c -0.8742,0 -1.05992,-0.71569 -1.05992,-0.95345 0,-1.29849 4.45184,-3.57765 5.69749,-3.57765 0.63564,0 1.05993,0.37066 1.05993,0.95426 0,1.3249 -4.47826,3.57684 -5.6975,3.57684 m 3.6569,-5.77675 c -2.57056,0 -5.64386,2.14627 -5.64386,4.61115 0,1.13918 0.82136,2.41125 2.96763,2.41125 2.75549,0 5.64386,-2.25274 5.64386,-4.58393 0,-1.56347 -1.3249,-2.43847 -2.96763,-2.43847 M 518.76029,10.660889 c 0,0.0795 0.0264,0.211985 0.21214,0.29148 1.13918,0.370973 3.41834,1.801872 5.14031,4.743163 0.47713,0.821441 1.24566,1.960861 1.24566,4.160204 0,1.907865 -0.50355,3.869046 -1.19202,5.77675 -0.0536,0.158509 -0.10647,0.291399 -0.0801,0.397072 0,0.159309 0.10647,0.264981 0.26498,0.264981 0.18572,0 0.31782,-0.105672 0.42429,-0.291399 1.19201,-2.11985 1.64272,-4.584015 1.64272,-6.995343 -0.13209,-3.418258 -2.09343,-5.935579 -2.09343,-5.935579 0.0793,0 -2.43767,-3.2592684 -3.15336,-4.3721894 -0.97987,-1.5103927 -1.43057,-3.0207854 -1.48341,-3.1267779 -0.0264,-0.079494 -0.26498,-1.0334266 -0.26498,-1.0334266 -0.0264,-0.1059925 -0.15931,-0.211985 -0.31862,-0.211985 -0.18493,0 -0.34423,0.1589888 -0.34423,0.3444756 v 5.9885743 m 28.88214,138.992401 c 0,0.08 0.0264,0.21214 0.21135,0.29139 1.13998,0.37146 3.41833,1.80204 5.14111,4.74325 0.47713,0.82136 1.24565,1.96134 1.24565,4.16044 0,1.90771 -0.50354,3.86905 -1.19281,5.77675 -0.0528,0.15851 -0.10567,0.2914 -0.0793,0.39707 0,0.15931 0.10568,0.26498 0.26499,0.26498 0.18492,0 0.31781,-0.10567 0.42349,-0.29139 1.19281,-2.11985 1.64352,-4.58394 1.64352,-6.99519 -0.13289,-3.41833 -2.09343,-5.93606 -2.09343,-5.93606 0.0793,0 -2.43847,-3.25902 -3.15336,-4.37179 -0.98067,-1.51063 -1.43138,-3.02046 -1.48421,-3.12693 -0.0264,-0.0793 -0.26498,-1.03351 -0.26498,-1.03351 -0.0264,-0.10567 -0.15851,-0.21215 -0.31782,-0.21215 -0.18573,0 -0.34424,0.15931 -0.34424,0.34504 v 5.9881 m -202.80947,5.56783 v 22.10636 h 0.66202 v -22.10636 z m 73.17879,-81.078721 v 20.451639 h 0.66217 V 74.142399 Z m 97.57718,16.003758 v 20.398783 h 0.66202 V 90.146157 Z m -137.53732,3.309447 v 18.744066 h 0.66217 V 93.455604 Z M 266.0935,6.3005432 V 28.407223 h 0.66201 V 6.3005432 Z m 11.77446,83.8456138 v 20.398783 h 0.66201 V 90.146157 Z m 269.73959,3.309447 v 18.744066 h 0.66217 V 93.455604 Z M 347.24102,90.146157 v 17.064473 h 0.66201 V 90.146157 Z M 304.43096,4.6458182 V 25.097769 h 0.66201 V 4.6458182 Z m 43.30883,11.5827628 v 22.106206 h 0.66202 V 16.228581 Z m -21.84462,70.608121 v 18.768928 h 0.66217 V 86.836702 Z M 597.03259,74.142399 v 20.451639 h 0.66202 V 74.142399 Z m 48.02721,13.237179 v 20.451482 h 0.66202 V 87.379578 Z M 78.740554,16.228581 v 22.106206 h 0.662173 V 16.228581 Z M 442.08743,93.455604 v 18.744066 h 0.66201 V 93.455604 Z m 224.31822,-6.076026 v 20.451482 h 0.66202 V 87.379578 Z m -419.34751,6.076026 v 17.064486 h 0.66201 V 93.455604 Z m 368.22771,51.837936 v 22.10622 h 0.66201 V 145.29354 Z M 237.22094,4.6458182 V 25.097769 h 0.66202 V 4.6458182 Z M 225.7123,90.146157 v 18.768923 h 0.66201 V 90.146157 Z M 64.098671,145.29354 v 22.10622 h 0.662012 V 145.29354 Z M 193.69446,86.836702 v 22.053518 h 0.66202 V 86.836702 Z M 99.006439,148.60221 v 22.107 h 0.662021 v -22.107 z M 161.6757,83.527256 v 22.053514 h 0.66201 V 83.527256 Z M 378.13495,23.959334 v 18.744064 h 0.66202 V 23.959334 Z m 72.9419,132.373786 v 22.05337 h 0.66203 v -22.05337 z m 44.37191,6.61891 v 18.74391 h 0.66201 V 162.95203 Z M 128.13527,75.797122 v 22.106363 h 0.66201 V 75.797122 Z m 5.77832,69.496418 v 22.10622 h 0.66202 V 145.29354 Z M 88.17513,86.836702 v 22.053518 h 0.662012 V 86.836702 Z M 112.26598,6.3005432 V 28.407223 h 0.66201 V 6.3005432 Z M 56.156368,86.836702 v 22.053518 h 0.662013 V 86.836702 Z M 414.94966,4.6458182 V 25.097769 h 0.66217 V 4.6458182 Z M 170.34318,162.95203 v 18.74391 h 0.66218 v -18.74391 z m 253.76883,-19.31321 v 20.45149 h 0.66202 V 143.63882 Z M 435.88006,17.340435 v 22.053517 h 0.66202 V 17.340435 Z M 213.19248,143.63882 v 20.45149 h 0.66217 V 143.63882 Z M 660.56009,20.649729 v 18.771425 h 0.66202 V 20.649729 Z M 248.09964,145.29354 v 22.10622 h 0.66201 V 145.29354 Z M 141.13853,9.6098371 V 31.71667 h 0.66202 V 9.6098371 Z M 641.31162,23.959334 v 17.062138 h 0.66217 V 23.959334 Z M 518.76064,4.6986663 V 25.097769 h 0.66217 V 4.6986663 Z M 381.26193,162.95203 v 18.74391 h 0.66202 V 162.95203 Z M 170.01108,6.3005432 V 28.407223 h 0.66202 V 6.3005432 Z M 547.6421,143.69167 v 20.39864 h 0.66202 V 143.69167 Z M 576.34563,6.3005432 V 28.407223 h 0.66202 V 6.3005432 Z M 570.91317,145.29354 v 22.10622 h 0.66201 V 145.29354 Z M 474.21659,23.959334 v 18.744064 h 0.66216 V 23.959334 Z M 292.47154,143.63882 v 20.45149 h 0.66201 V 143.63882 Z M 538.00911,6.3005432 V 28.407223 h 0.66201 V 6.3005432 Z M 491.51325,75.797122 v 22.106363 h 0.66202 V 75.797122 Z M 200.40624,23.959334 v 18.744064 h 0.66202 V 23.959334 Z M 85.015713,169.80707 l 2.357612,-0.47713 v 4.37259 l -2.357612,0.50354 v -4.399 m 4.106808,-0.82137 c 0.159309,-0.0264 0.2914,-0.21214 0.2914,-0.37065 v -1.56347 c 0,-0.21214 -0.158509,-0.37145 -0.370654,-0.37145 h -0.05284 l -0.874998,0.18572 v -3.9483 h -0.742108 v 4.10761 l -2.357612,0.47633 v -3.73616 h -0.742107 v 3.89547 l -1.033507,0.21214 c -0.159309,0.0264 -0.291399,0.21215 -0.291399,0.37066 v 1.53705 c 0,0.21214 0.158508,0.37065 0.370653,0.37065 h 0.07925 l 0.874998,-0.18493 v 4.37179 l -1.033507,0.21215 c -0.159309,0.0264 -0.291399,0.21214 -0.291399,0.37065 v 1.53705 c 0,0.21215 0.158508,0.37146 0.370653,0.37146 h 0.07925 l 0.874998,-0.18573 v 3.9483 h 0.742107 v -4.10761 l 2.357612,-0.47713 v 3.73696 h 0.742108 v -3.89546 l 1.007088,-0.18573 c 0.159309,-0.0264 0.2914,-0.21215 0.2914,-0.37065 v -1.56347 c 0,-0.21215 -0.158509,-0.37146 -0.370654,-0.37146 h -0.05284 l -0.874998,0.18573 v -4.37179 l 1.007088,-0.18573 M 127.1477,30.814429 l 2.35841,-0.477126 v 4.37259 l -2.35841,0.503544 v -4.399008 m 4.10761,-0.821361 c 0.15851,-0.02642 0.2914,-0.212145 0.2914,-0.371454 v -1.562669 c 0,-0.212145 -0.15931,-0.371454 -0.37146,-0.371454 h -0.0528 l -0.8742,0.185727 v -3.948299 h -0.74211 v 4.106808 l -2.35841,0.477126 v -3.736155 h -0.74211 v 3.895464 l -1.0335,0.212145 c -0.15851,0.02642 -0.2914,0.211344 -0.2914,0.370653 v 1.537051 c 0,0.212145 0.15931,0.370654 0.37145,0.370654 h 0.0793 l 0.87419,-0.184927 v 4.371789 l -1.0335,0.212145 c -0.15851,0.02642 -0.2914,0.212146 -0.2914,0.370654 v 1.537051 c 0,0.212145 0.15931,0.370653 0.37145,0.370653 h 0.0793 l 0.87419,-0.184926 v 3.948299 h 0.74211 v -4.107608 l 2.35841,-0.477126 v 3.736154 h 0.74211 V 36.85616 l 1.00709,-0.185727 c 0.15851,-0.02642 0.2914,-0.212145 0.2914,-0.370653 v -1.563469 c 0,-0.212145 -0.15931,-0.371454 -0.37146,-0.371454 h -0.0528 l -0.8742,0.185727 v -4.371789 l 1.00709,-0.185727 M 485.98431,148.23869 v 27.20266 h 1.19114 V 148.23869 Z M 368.66973,9.2458378 V 36.448658 h 1.19113 V 9.2458378 Z m 96.08241,0 V 36.448658 h 1.19129 V 9.2458378 Z M 371.79734,148.23869 v 27.20266 h 1.19128 V 148.23869 Z M 558.93889,9.2458378 V 36.448658 h 1.19128 V 9.2458378 Z m -367.99709,0 V 36.448658 h 1.19113 V 9.2458378 Z M 474.10651,78.742416 v 27.202514 h 1.19128 V 78.742416 Z M 620.55586,9.2458378 V 36.448658 h 3.64015 V 9.2458378 Z m -3.64045,0 V 36.448658 h 1.19127 V 9.2458378 Z m -2.44728,16.9110072 c 0,-0.768526 -0.60922,-1.404961 -1.37775,-1.404961 -0.76852,0 -1.37774,0.636435 -1.37774,1.404961 0,0.768525 0.60922,1.40416 1.37774,1.40416 0.76853,0 1.37775,-0.635635 1.37775,-1.40416 m 0,-6.619006 c 0,-0.768445 -0.60922,-1.4044 -1.37775,-1.4044 -0.76852,0 -1.37774,0.635955 -1.37774,1.4044 0,0.768445 0.60922,1.4044 1.37774,1.4044 0.76853,0 1.37775,-0.635955 1.37775,-1.4044 m 18.57189,6.619006 c 0,-0.768526 -0.60921,-1.404961 -1.37774,-1.404961 -0.76852,0 -1.37774,0.636435 -1.37774,1.404961 0,0.768525 0.60922,1.40416 1.37774,1.40416 0.76853,0 1.37774,-0.635635 1.37774,-1.40416 m 0,-6.619006 c 0,-0.768445 -0.60921,-1.4044 -1.37774,-1.4044 -0.76852,0 -1.37774,0.635955 -1.37774,1.4044 0,0.768445 0.60922,1.4044 1.37774,1.4044 0.76853,0 1.37774,-0.635955 1.37774,-1.4044 M 626.6444,9.2458378 V 36.448658 h 1.19128 V 9.2458378 Z m -6.08854,0 V 36.448658 h 3.64015 V 9.2458378 Z M 597.87833,148.23869 v 27.20266 h 1.19128 v -27.20266 z m -322.81354,0 v 27.20266 h 1.19128 V 148.23869 Z M 679.80887,9.2458378 V 36.448658 H 681 V 9.2458378 Z M 160.87797,148.23869 v 27.20266 h 1.19128 v -27.20266 z m -8.66671,-69.496274 v 27.202514 h 1.19128 V 78.742416 Z M 94.859228,9.2458378 V 36.448658 h 1.191286 V 9.2458378 Z M 679.80887,78.742416 V 105.94493 H 681 V 78.742416 Z m -2.44933,69.496274 v 27.20266 h 3.64015 v -27.20266 z m -3.63967,0 v 27.20266 H 674.911 V 148.23869 Z M 579.62585,78.742416 v 27.202514 h 1.19128 V 78.742416 Z m -211.03946,0 v 27.202514 h 1.19128 V 78.742416 Z m -100.18287,0 v 27.202514 h 1.19113 V 78.742416 Z M 287.02422,9.2458378 V 36.448658 h 1.19128 V 9.2458378 Z M 0,174.7132 v 0.72768 h 681 v -0.72768 z m 0,-6.61812 v 0.72768 h 681 v -0.72768 z m 0,-6.6189 v 0.72768 h 681 v -0.72768 z m 0,-6.6189 v 0.72768 h 681 v -0.72768 z m 0,-6.61891 v 0.72769 h 681 v -0.72769 z m 0,-43.02144 v 0.72769 h 681 v -0.72769 z m 0,-6.618121 v 0.727681 h 681 v -0.727681 z m 0,-6.618902 v 0.727682 h 681 v -0.727682 z m 0,-6.619054 v 0.727842 h 681 v -0.727842 z m 0,-6.618901 v 0.727681 H 681 V 78.741952 Z M 0,35.720656 v 0.727689 h 681 v -0.727689 z m 0,-6.618269 v 0.727841 h 681 v -0.727841 z m 0,-6.61906 v 0.727685 h 681 v -0.727685 z m 0,-6.618588 v 0.727684 H 681 V 15.864739 Z M 0,9.2459947 V 9.9736795 H 681 V 9.2459947 Z"
     style="stroke-width:0.0800547" />
  <metadata
     id="metadata164">
    <rdf:RDF>
      <cc:Work
         rdf:about="">
        <dc:title>air_VIII</dc:title>
      </cc:Work>
    </rdf:RDF>
  </metadata>
</svg>
