<?xml version="1.0" encoding="UTF-8" standalone="no"?>
<svg
   width="679.46753"
   height="193.00014"
   version="1.2"
   id="svg203"
   xmlns="http://www.w3.org/2000/svg"
   xmlns:svg="http://www.w3.org/2000/svg"
   xmlns:rdf="http://www.w3.org/1999/02/22-rdf-syntax-ns#"
   xmlns:cc="http://creativecommons.org/ns#"
   xmlns:dc="http://purl.org/dc/elements/1.1/">
  <defs
     id="defs203" />
  <title
     id="title1">air_IV</title>
  <desc
     id="desc1">Generated by MuseScore Studio 4.7.3</desc>
  <path
     id="path203"
     class="NoteDot"
     d="m 355.76058,82.229846 c 0,0.740438 0.58149,1.321925 1.32193,1.321925 0.74044,0 1.32192,-0.581487 1.32192,-1.321925 0,-0.740437 -0.58148,-1.321924 -1.32192,-1.321924 -0.74044,0 -1.32193,0.581487 -1.32193,1.321924 M 633.27525,177.9851 c 0,0.74044 0.58148,1.32192 1.32192,1.32192 0.74043,0 1.32192,-0.58148 1.32192,-1.32192 0,-0.74044 -0.58149,-1.32192 -1.32192,-1.32192 -0.74044,0 -1.32192,0.58148 -1.32192,1.32192 m 13.5044,-158.491228 c 0,0.740277 0.58148,1.321924 1.32192,1.321924 0.74044,0 1.32192,-0.581647 1.32192,-1.321924 0,-0.740278 -0.58148,-1.321925 -1.32192,-1.321925 -0.74044,0 -1.32192,0.581647 -1.32192,1.321925 M 297.65582,151.56977 c 0,0.74044 0.58148,1.32193 1.32192,1.32193 0.74044,0 1.32193,-0.58149 1.32193,-1.32193 0,-0.74044 -0.58149,-1.32193 -1.32193,-1.32193 -0.74044,0 -1.32192,0.58149 -1.32192,1.32193 M 68.895811,95.437908 c 0,0.739638 0.581486,1.321925 1.321924,1.321925 0.740437,0 1.321925,-0.582287 1.321925,-1.321925 0,-0.740438 -0.581488,-1.321924 -1.321925,-1.321924 -0.740438,0 -1.321924,0.581486 -1.321924,1.321924 M 129.68116,49.779199 c 0.56312,-0.179718 0.79077,-0.275567 1.07831,-0.467266 0.56312,-0.371417 0.91058,-1.030382 0.91058,-1.701329 0,-1.138213 -0.91058,-1.905008 -2.25247,-1.905008 -1.30595,0 -2.40822,0.81472 -2.40822,1.797177 0,0.491229 0.29953,0.826703 0.75482,0.826703 0.39537,0 0.68293,-0.287549 0.68293,-0.682928 0,-0.203681 -0.0599,-0.347454 -0.25161,-0.539154 -0.11982,-0.107831 -0.16774,-0.191699 -0.16774,-0.275567 0,-0.287549 0.59906,-0.587078 1.16218,-0.587078 0.80274,0 1.28199,0.443304 1.28199,1.186137 0,1.066326 -0.75482,2.072746 -1.55756,2.072746 -0.0359,0 -0.14377,-0.01198 -0.27557,-0.02397 -0.34745,-0.02397 -0.34745,-0.02397 -0.41934,-0.02397 -0.26359,0 -0.40736,0.119812 -0.40736,0.335473 0,0.1917 0.13179,0.311511 0.34745,0.311511 0.0599,0 0.14378,-0.01198 0.23962,-0.02397 0.16774,-0.03594 0.34746,-0.04792 0.4553,-0.04792 0.56311,0 0.94651,0.503209 0.94651,1.246042 0,1.293969 -0.63501,2.540012 -2.08473,2.540012 -0.67094,0 -1.24605,-0.335473 -1.24605,-0.718871 0,-0.131793 0.0479,-0.179718 0.23963,-0.263586 0.34746,-0.155756 0.49123,-0.371417 0.49123,-0.694909 0,-0.419342 -0.33548,-0.742833 -0.76679,-0.742833 -0.51519,0 -0.85067,0.40736 -0.85067,1.030382 0,1.162175 0.8866,1.893027 2.32435,1.893027 1.80916,0 3.18699,-1.210099 3.18699,-2.815579 0,-0.934533 -0.57509,-1.461705 -1.41378,-1.725291 m 284.89189,138.67987 c 0.56311,-0.17971 0.79075,-0.27557 1.0783,-0.46726 0.56311,-0.37143 0.91057,-1.03039 0.91057,-1.70134 0,-1.13821 -0.91057,-1.905 -2.25246,-1.905 -1.30595,0 -2.40822,0.81472 -2.40822,1.79718 0,0.49123 0.29953,0.8267 0.75481,0.8267 0.39538,0 0.68293,-0.28755 0.68293,-0.68293 0,-0.20368 -0.0599,-0.34745 -0.2516,-0.53915 -0.11981,-0.10784 -0.16775,-0.1917 -0.16775,-0.27557 0,-0.28755 0.59906,-0.58708 1.16218,-0.58708 0.80274,0 1.28199,0.4433 1.28199,1.18614 0,1.06632 -0.75482,2.07274 -1.55756,2.07274 -0.0359,0 -0.14377,-0.012 -0.27556,-0.0239 -0.34746,-0.0239 -0.34746,-0.0239 -0.41935,-0.0239 -0.26358,0 -0.40735,0.11981 -0.40735,0.33547 0,0.1917 0.13179,0.31151 0.34745,0.31151 0.0599,0 0.14377,-0.012 0.23963,-0.0239 0.16773,-0.0359 0.34745,-0.0479 0.45528,-0.0479 0.56312,0 0.94651,0.50322 0.94651,1.24605 0,1.29397 -0.635,2.54001 -2.08472,2.54001 -0.67095,0 -1.24604,-0.33547 -1.24604,-0.71887 0,-0.1318 0.0479,-0.17972 0.23962,-0.26359 0.34745,-0.15575 0.49123,-0.37141 0.49123,-0.6949 0,-0.41935 -0.33547,-0.74284 -0.7668,-0.74284 -0.51519,0 -0.85066,0.40736 -0.85066,1.03038 0,1.16218 0.88661,1.89303 2.32434,1.89303 1.80916,0 3.18701,-1.2101 3.18701,-2.81558 0,-0.93453 -0.57511,-1.4617 -1.41378,-1.72529 M 264.82497,14.531983 280.5347,12.880975 v 3.320146 l -15.70973,1.650929 v -3.320067 m 30.09914,-6.6037915 15.71053,1.6509279 V 12.899187 L 294.92411,11.248258 V 7.9281915 m 108.86507,6.6037915 15.71052,-1.651008 v 3.320146 l -15.71052,1.650929 v -3.320067 m -287.02294,24.769268 24.40409,-1.651008 v 3.310004 l -24.40409,1.651007 v -3.310003 m 282.70891,137.030439 28.76842,1.65101 v 3.30681 l -28.76842,-1.65101 v -3.30681 m -47.36723,-10.46757 c -0.0263,-0.0263 -0.0791,-0.0791 -0.15815,-0.1845 l -3.04082,-3.7541 c -0.0263,-0.0271 -0.0527,-0.10624 -0.0527,-0.15895 0,-0.0791 0.0263,-0.18532 0.0527,-0.23804 l 2.69656,-4.07121 c 0.0271,-0.0535 0.0535,-0.13259 0.0535,-0.1853 v -0.23803 c 0,-0.0791 -0.0263,-0.15895 -0.0799,-0.21166 l -4.28288,-5.79011 c 0,0 -0.10543,-0.15816 -0.26438,-0.15816 -0.0791,0 -0.13179,0.0263 -0.21166,0.0791 -0.10544,0.0791 -0.13179,0.18531 -0.13179,0.26439 0,0.15895 0.0791,0.29074 0.0791,0.29074 l 2.00964,2.75008 c 0.0527,0.0791 0.0791,0.18451 0.0791,0.3171 0,0.10544 -0.0263,0.23803 -0.0791,0.31711 l -2.6702,4.07121 c -0.0263,0.0535 -0.0535,0.15895 -0.0535,0.21166 v 0.23802 c 0,0.0791 0.0271,0.15895 0.0799,0.21167 l 2.96094,3.67504 c -0.10543,-0.0263 -0.34346,-0.0799 -0.66136,-0.0799 -1.34828,0 -2.40582,1.11105 -2.40582,2.45934 0,0.36982 0.0799,0.74044 0.29074,1.03118 0.55593,0.84587 2.53842,3.35713 2.53842,3.35713 0,0 0.13259,0.15894 0.3171,0.15894 0.0527,0 0.10623,0 0.15895,-0.0527 0.13179,-0.10623 0.1853,-0.21167 0.1853,-0.3171 0,-0.10623 -0.0535,-0.18531 -0.0799,-0.23803 -0.0791,-0.13259 -0.92494,-1.66618 -0.92494,-1.66618 0,0 -0.18531,-0.36982 -0.18531,-0.84587 0,-0.84587 0.6342,-1.53359 1.48087,-1.53359 0.34346,0 0.63421,0.10623 0.84587,0.23802 l 1.03118,0.66136 c 0,0 0.10544,0.0527 0.21168,0.0527 0.10543,0 0.1845,-0.0263 0.26438,-0.13259 0.0527,-0.10543 0.0791,-0.15815 0.0791,-0.23723 0,-0.0798 -0.0263,-0.1326 -0.0791,-0.21167 l -0.0535,-0.0799 m 26.72444,0 c -0.0263,-0.0263 -0.0791,-0.0791 -0.15896,-0.1845 l -3.04002,-3.7541 c -0.0263,-0.0271 -0.0527,-0.10624 -0.0527,-0.15895 0,-0.0791 0.0263,-0.18532 0.0527,-0.23804 l 2.69657,-4.07121 c 0.0263,-0.0535 0.0527,-0.13259 0.0527,-0.1853 v -0.23803 c 0,-0.0791 -0.0263,-0.15895 -0.0791,-0.21166 l -4.28287,-5.79011 c 0,0 -0.10624,-0.15816 -0.26439,-0.15816 -0.0799,0 -0.1326,0.0263 -0.21167,0.0791 -0.10623,0.0791 -0.13259,0.18531 -0.13259,0.26439 0,0.15895 0.0799,0.29074 0.0799,0.29074 l 2.00885,2.75008 c 0.0527,0.0791 0.0799,0.18451 0.0799,0.3171 0,0.10544 -0.0271,0.23803 -0.0799,0.31711 l -2.67021,4.07121 c -0.0263,0.0535 -0.0527,0.15895 -0.0527,0.21166 v 0.23802 c 0,0.0791 0.0263,0.15895 0.0791,0.21168 l 2.96095,3.67503 c -0.10543,-0.0263 -0.34346,-0.0799 -0.66056,-0.0799 -1.34828,0 -2.40582,1.11105 -2.40582,2.45934 0,0.36982 0.0791,0.74044 0.29075,1.03118 0.55512,0.84587 2.53841,3.35713 2.53841,3.35713 0,0 0.13179,0.15894 0.31709,0.15894 0.0527,0 0.10545,0 0.15816,-0.0527 0.13259,-0.10623 0.18531,-0.21167 0.18531,-0.3171 0,-0.10623 -0.0527,-0.18531 -0.0791,-0.23803 -0.0798,-0.13259 -0.92574,-1.66618 -0.92574,-1.66618 0,0 -0.18452,-0.36982 -0.18452,-0.84587 0,-0.84587 0.63421,-1.53359 1.48008,-1.53359 0.34346,0 0.635,0.10623 0.84588,0.23802 l 1.03117,0.66136 c 0,0 0.10624,0.0527 0.21167,0.0527 0.10544,0 0.18532,-0.0263 0.26439,-0.13259 0.0527,-0.10543 0.0791,-0.15815 0.0791,-0.23723 0,-0.0798 -0.0263,-0.1326 -0.0791,-0.21167 l -0.0527,-0.0799 M 52.231576,32.718787 v 1.956128 h -2.194155 c -0.185309,0 -0.370619,0.15895 -0.370619,0.36982 v 0.502411 c 0,0.211667 0.18531,0.370618 0.370619,0.370618 h 8.010622 c 0.211668,0 0.369819,-0.158951 0.369819,-0.370618 v -0.502411 c 0,-0.21087 -0.158151,-0.36982 -0.369819,-0.36982 h -2.379464 v -1.956128 h 2.379464 c 0.211668,0 0.369819,-0.185309 0.369819,-0.396977 v -0.502411 c 0,-0.184511 -0.158151,-0.36982 -0.369819,-0.36982 H 55.668579 V 27.24578 c 0,-0.158951 -0.07907,-0.290743 -0.185309,-0.343461 l -0.317102,-0.15895 c -0.05272,-0.02636 -0.07907,-0.02636 -0.132592,-0.02636 -0.105434,0 -0.210868,0 -0.290743,0.07907 l -2.405823,2.194953 c -0.07907,0.07907 -0.105434,0.184511 -0.105434,0.290745 v 2.167795 h -3.067184 c 0,0 2.96095,-3.172618 6.080852,-7.350059 0.106233,-0.131793 0.132592,-0.264385 0.132592,-0.369819 0,-0.132592 -0.05272,-0.238026 -0.07988,-0.264385 l -0.581487,-0.581966 c -0.07907,-0.05288 -0.158152,-0.105754 -0.264384,-0.105754 -0.158153,0 -3.727748,0 -3.939415,0 -0.18451,0 -0.317102,0.158631 -0.343461,0.317262 0,0 -0.131793,1.956768 -0.819513,4.098205 -0.68772,2.141438 -1.480875,3.463362 -2.167797,4.441825 0,0 -0.07987,0.131793 -0.07987,0.290744 0,0.05272 0,0.105435 0.02716,0.158152 0.07908,0.185309 0.264386,0.476052 0.264386,0.476052 0,0 0.05272,0.158951 0.290743,0.158951 h 4.54726 m 2.734107,-16.792115 c 2.115079,-0.819592 2.246871,-2.194393 2.246871,-2.670287 v -0.132192 c 0,-0.237946 -0.07907,-3.2254954 -4.626335,-3.2254954 -4.54726,0 -4.415467,3.2254954 -4.415467,3.2254954 h 0.02636 l -0.02636,0.05288 c 0,0.951785 0.766796,1.692064 1.718901,1.692064 0.951306,0 1.691743,-0.740279 1.691743,-1.692064 0,-0.766716 -0.581486,-1.506994 -1.321924,-1.665624 l 0.07907,-0.07931 c 0.370619,-0.264385 0.873029,-0.396577 1.37544,-0.396577 1.110257,0 2.29959,0.660961 2.29959,2.08864 0,1.665624 -1.24205,1.903571 -1.559951,1.956449 -0.317102,0.05288 -1.797178,0.15863 -2.115079,0.15863 -0.317102,0 -0.343461,0.370139 -0.343461,0.370139 v 0.528769 c 0,0 0.05272,0.290824 0.343461,0.317263 0.449694,0.02644 1.057539,0.02644 1.904211,0.15863 1.162974,0.158631 1.770819,0.951786 1.770819,2.80248 0,1.771379 -1.189333,2.247272 -2.29959,2.247272 -0.740437,0 -1.428157,-0.211508 -1.718901,-0.423016 0.872231,-0.05288 1.586309,-0.819594 1.586309,-1.692063 0,-0.951786 -0.740437,-1.718502 -1.691743,-1.718502 -0.952105,0 -1.718901,0.766716 -1.718901,1.718502 0,2.167955 1.983286,3.251933 3.939415,3.251933 2.538413,0 5.287697,-0.87247 5.287697,-3.754265 0,-1.930009 -1.321925,-2.749602 -2.484899,-3.119742 h 0.05272 m -18.852798,1.610751 2.353105,-0.475892 v 4.362351 l -2.353105,0.502331 v -4.38879 m 4.098365,-0.819592 c 0.158949,-0.02644 0.290743,-0.211508 0.290743,-0.370139 v -1.559871 c 0,-0.211508 -0.15895,-0.370139 -0.36982,-0.370139 h -0.05352 L 39.20642,14.602753 V 10.66342 h -0.740437 v 4.097966 l -2.353105,0.475892 v -3.727827 h -0.739639 v 3.886458 l -1.031181,0.211508 c -0.15895,0.02644 -0.290744,0.211508 -0.290744,0.370139 v 1.533432 c 0,0.211508 0.158153,0.370139 0.36982,0.370139 h 0.07907 l 0.873029,-0.185069 v 4.36235 l -1.031181,0.211508 c -0.15895,0.02644 -0.290744,0.211507 -0.290744,0.370139 v 1.533751 c 0,0.21087 0.158153,0.369819 0.36982,0.369819 h 0.07907 l 0.873029,-0.185309 v 3.939415 h 0.739639 v -4.097566 l 2.353105,-0.476052 v 3.727746 h 0.740437 v -3.886697 l 1.004823,-0.18451 c 0.158949,-0.02636 0.290743,-0.211828 0.290743,-0.370458 V 21.45032 c 0,-0.211508 -0.15895,-0.370139 -0.36982,-0.370139 h -0.05352 L 39.20641,21.26525 V 16.9029 l 1.004823,-0.185069 M 28.875448,7.631777 31.228554,7.1558842 v 4.3623498 l -2.353106,0.502332 V 7.631777 m 4.098366,-0.8195932 c 0.15895,-0.026438 0.290743,-0.2115078 0.290743,-0.3701387 V 4.8821742 c 0,-0.2115078 -0.158951,-0.3701387 -0.369819,-0.3701387 h -0.05352 L 31.968991,4.6971049 V 0.75777018 H 31.228554 V 4.8557358 L 28.875448,5.3316285 V 1.6038018 h -0.739639 v 3.8864576 l -1.03118,0.211508 c -0.15895,0.026438 -0.290744,0.2115079 -0.290744,0.3701388 v 1.5334323 c 0,0.2115079 0.158152,0.3701388 0.36982,0.3701388 h 0.07907 l 0.873029,-0.1850694 v 4.3623501 l -1.03118,0.211508 c -0.15895,0.02644 -0.290744,0.211508 -0.290744,0.370139 v 1.533433 c 0,0.211508 0.158152,0.370138 0.36982,0.370138 h 0.07907 l 0.873029,-0.18507 v 3.939335 h 0.739639 v -4.097965 l 2.353106,-0.475893 v 3.727827 h 0.740437 v -3.886458 l 1.004823,-0.185069 c 0.15895,-0.02644 0.290743,-0.211508 0.290743,-0.37014 v -1.55987 c 0,-0.211507 -0.158951,-0.370138 -0.369819,-0.370138 h -0.05352 L 31.96898,11.359604 V 6.9972532 l 1.004823,-0.1850694 m 3.139071,149.4054862 2.353105,-0.47605 v 4.36196 l -2.353105,0.5024 v -4.38831 m 4.098365,-0.82031 c 0.158949,-0.0263 0.290743,-0.21086 0.290743,-0.36982 v -1.55995 c 0,-0.21167 -0.15895,-0.36981 -0.36982,-0.36981 h -0.05352 l -0.872231,0.1845 v -3.93862 h -0.740437 v 4.09757 l -2.353105,0.47606 v -3.72775 H 35.37323 v 3.8859 l -1.031181,0.21166 c -0.15895,0.0263 -0.290744,0.21168 -0.290744,0.37063 v 1.53279 c 0,0.21166 0.158153,0.37062 0.36982,0.37062 h 0.07907 l 0.873029,-0.18532 v 4.36275 l -1.031181,0.21088 c -0.15895,0.0271 -0.290744,0.21166 -0.290744,0.37061 v 1.53359 c 0,0.21088 0.158153,0.36983 0.36982,0.36983 h 0.07907 l 0.873029,-0.18531 v 3.93941 h 0.739639 v -4.09757 l 2.353105,-0.47605 v 3.72775 h 0.740437 v -3.8867 l 1.004823,-0.18451 c 0.158949,-0.0263 0.290743,-0.21167 0.290743,-0.37062 v -1.55994 c 0,-0.21088 -0.15895,-0.36983 -0.36982,-0.36983 h -0.05352 l -0.872231,0.18531 v -4.36275 l 1.004823,-0.18531 m -11.335802,-9.08573 2.353106,-0.47605 v 4.36275 l -2.353106,0.5024 v -4.3891 m 4.098366,-0.81952 c 0.15895,-0.0263 0.290743,-0.21166 0.290743,-0.36981 v -1.55996 c 0,-0.21166 -0.158951,-0.37061 -0.369819,-0.37061 h -0.05352 l -0.872231,0.1853 v -3.9394 h -0.740437 v 4.09835 l -2.353106,0.47526 v -3.72775 h -0.739639 v 3.8867 l -1.03118,0.21167 c -0.15895,0.0263 -0.290744,0.21167 -0.290744,0.36982 v 1.53359 c 0,0.21166 0.158152,0.36982 0.36982,0.36982 h 0.07907 l 0.873029,-0.18452 v 4.36196 l -1.03118,0.21167 c -0.15895,0.0263 -0.290744,0.21166 -0.290744,0.36981 v 1.5336 c 0,0.21167 0.158152,0.37062 0.36982,0.37062 h 0.07907 l 0.873028,-0.18531 v 3.93941 H 28.8754 v -4.09836 l 2.353106,-0.47605 v 3.72854 h 0.740437 v -3.88669 l 1.004823,-0.18532 c 0.15895,-0.0263 0.290743,-0.21167 0.290743,-0.36981 v -1.55995 c 0,-0.21168 -0.158951,-0.37063 -0.369819,-0.37063 h -0.05352 l -0.872231,0.18532 v -4.36196 l 1.004823,-0.18531 m 3.139071,-58.614362 2.353105,-0.476052 v 4.361951 l -2.353105,0.502412 v -4.388311 m 4.098365,-0.820311 c 0.15895,-0.02636 0.290743,-0.210869 0.290743,-0.369819 v -1.559951 c 0,-0.211668 -0.15895,-0.36982 -0.36982,-0.36982 h -0.05352 l -0.872231,0.184511 v -3.938616 h -0.740437 v 4.097567 l -2.353105,0.476052 v -3.727747 h -0.739639 v 3.885898 L 34.34202,84.94718 c -0.15895,0.02636 -0.290744,0.211667 -0.290744,0.370618 v 1.532794 c 0,0.211667 0.158153,0.370618 0.36982,0.370618 h 0.07907 l 0.873029,-0.185309 v 4.36275 l -1.031181,0.210868 c -0.15895,0.02716 -0.290744,0.211668 -0.290744,0.370618 v 1.533592 c 0,0.210869 0.158153,0.369819 0.36982,0.369819 h 0.07907 l 0.873029,-0.185309 v 3.939415 h 0.739639 v -4.097566 l 2.353105,-0.476052 v 3.727746 h 0.740437 v -3.886697 l 1.004876,-0.184511 c 0.158949,-0.02636 0.290743,-0.211667 0.290743,-0.370618 v -1.55995 c 0,-0.210869 -0.15895,-0.369819 -0.36982,-0.369819 h -0.05352 l -0.872231,0.185309 v -4.36275 l 1.004823,-0.185309 M 28.875444,76.971703 31.22855,76.495651 V 80.8584 l -2.353106,0.502412 v -4.389109 m 4.098366,-0.819514 c 0.15895,-0.02636 0.290743,-0.211667 0.290743,-0.370618 V 74.22242 c 0,-0.211668 -0.158951,-0.370618 -0.369819,-0.370618 h -0.05352 l -0.872231,0.185309 v -3.939415 h -0.740437 v 4.097566 l -2.353106,0.476052 v -3.727746 h -0.739639 v 3.886697 l -1.03118,0.211667 c -0.15895,0.02636 -0.290744,0.21087 -0.290744,0.36982 v 1.533592 c 0,0.211668 0.158152,0.369819 0.36982,0.369819 h 0.07907 l 0.873029,-0.18451 v 4.361951 l -1.03118,0.211668 c -0.15895,0.02636 -0.290744,0.211667 -0.290744,0.36982 v 1.533591 c 0,0.211668 0.158152,0.36982 0.36982,0.36982 h 0.07907 l 0.873029,-0.184511 v 3.939415 h 0.739639 v -4.098365 l 2.353106,-0.476053 v 3.727747 h 0.740437 v -3.885898 l 1.004823,-0.185309 c 0.15895,-0.02636 0.290743,-0.211668 0.290743,-0.369819 v -1.559952 c 0,-0.211667 -0.158951,-0.370617 -0.369819,-0.370617 H 32.8412 l -0.872231,0.185308 v -4.361951 l 1.004823,-0.185309 M 16.057095,34.845846 c -0.528769,0.106234 -1.031101,0.158951 -1.533432,0.158951 -3.780704,0 -7.0061994,-2.643848 -7.0061994,-6.63598 0,-3.226135 2.27371,-6.107611 4.6002964,-8.116936 0.449454,-0.396576 0.87247,-0.766716 1.269048,-1.163293 0.237946,1.427679 0.423016,2.670287 0.608085,3.754265 -2.405902,0.71352 -4.0450885,3.251934 -4.0450885,5.736832 0,1.850695 1.4541165,4.389109 3.5691965,4.389109 0.211508,0 0.449454,-0.105434 0.449454,-0.34346 0,-0.238027 -0.264386,-0.370619 -0.581647,-0.581488 -1.031102,-0.635003 -1.612748,-1.321924 -1.612748,-2.617489 0,-1.612669 1.189732,-2.908234 2.749603,-3.278852 l 1.533432,8.698341 M 13.730509,7.6671614 c 0.237946,-1.0575395 1.454116,-3.8335807 2.828917,-3.8335807 0.396578,0 1.031102,1.2954859 1.031102,3.1197415 0,2.7496027 -2.035764,4.8118048 -3.860019,6.6096228 -0.158632,-1.05754 -0.290824,-2.088642 -0.290824,-3.199058 0,-0.9782239 0.07932,-1.8771325 0.290824,-2.6967256 m 6.080852,22.2879646 c 0,1.877052 -0.766717,3.806823 -2.643849,4.573618 -0.555209,-3.172618 -1.269048,-7.376417 -1.454118,-8.539391 2.379465,0 4.097967,1.612667 4.097967,3.965773 M 8.1784258,42.962702 c 0,1.744461 1.3483629,4.044849 4.9175592,4.044849 1.242608,0 2.326586,-0.317103 3.278372,-0.898589 1.427679,-1.004823 1.797817,-2.750082 1.797817,-4.415467 0,-1.031181 -0.15863,-2.220514 -0.423015,-3.727746 -0.07931,-0.528771 -0.237947,-1.321925 -0.396578,-2.353106 2.590972,-0.845872 4.520981,-3.542438 4.520981,-6.266161 0,-3.992132 -2.828918,-6.688698 -6.688937,-6.688698 -0.264385,-1.586309 -0.528769,-3.14618 -0.766716,-4.626736 2.802479,-2.934672 4.732489,-6.239482 4.732489,-10.443202 0,-2.4059025 -0.740278,-4.3623505 -1.163293,-5.3141361 C 17.352581,0.92534706 16.585865,0 16.109972,0 15.924902,0 15.10531,0.31726185 14.23284,1.3483628 c -1.692064,2.0093251 -2.167957,5.3934515 -2.167957,7.6142845 0,1.4276777 0.132193,2.7231637 0.581648,5.6842747 -0.02644,0.02644 -1.401241,1.427679 -1.956449,1.877133 -2.4059022,2.247271 -5.7371516,5.446328 -5.7371516,10.733706 0,4.944237 4.3094734,8.830934 9.2270326,8.830934 0.766716,0 1.480555,-0.07907 2.08864,-0.185309 0.502331,2.538415 0.793154,4.389109 0.793154,5.790109 0,2.749283 -1.401239,4.203799 -4.071527,4.203799 -0.634524,0 -1.189731,-0.132592 -1.242608,-0.132592 -0.02644,-0.02636 -0.07931,-0.05272 -0.07931,-0.07907 0,-0.05272 0.05288,-0.07907 0.132193,-0.105434 1.242609,-0.185309 2.485217,-1.242849 2.485217,-2.934593 0,-1.428157 -1.083978,-2.934592 -3.066864,-2.934592 -1.8506942,0 -3.0404262,1.506435 -3.0404262,3.251694 M 16.057095,173.5257 c -0.528769,0.10623 -1.031101,0.15894 -1.533432,0.15894 -3.780704,0 -7.0061994,-2.64384 -7.0061994,-6.63597 0,-3.22613 2.27371,-6.10721 4.6002964,-8.11686 0.449454,-0.39698 0.87247,-0.76679 1.269048,-1.16297 0.237946,1.42736 0.423016,2.67021 0.608085,3.7541 -2.405902,0.71329 -4.0450885,3.2517 -4.0450885,5.7366 0,1.85069 1.4541165,4.38911 3.5691965,4.38911 0.211508,0 0.449454,-0.10544 0.449454,-0.34347 0,-0.23802 -0.264386,-0.37061 -0.581647,-0.58148 -1.031102,-0.635 -1.612748,-1.32193 -1.612748,-2.61749 0,-1.61267 1.189732,-2.90823 2.749603,-3.27886 l 1.533432,8.69835 m -2.326586,-27.17893 c 0.237946,-1.05753 1.454116,-3.83318 2.828917,-3.83318 0.396578,0 1.031102,1.29557 1.031102,3.1199 0,2.74929 -2.035764,4.81165 -3.860019,6.60962 -0.158632,-1.05753 -0.290824,-2.08871 -0.290824,-3.19897 0,-0.97846 0.07932,-1.87785 0.290824,-2.69737 m 6.080852,22.2882 c 0,1.87706 -0.766717,3.80683 -2.643849,4.57363 -0.555209,-3.17263 -1.269048,-7.37642 -1.454118,-8.53939 2.379465,0 4.097967,1.61266 4.097967,3.96576 M 8.1784258,181.64256 c 0,1.74445 1.3483629,4.04484 4.9175592,4.04484 1.242608,0 2.326586,-0.3171 3.278372,-0.89859 1.427679,-1.00481 1.797817,-2.75008 1.797817,-4.41546 0,-1.03119 -0.15863,-2.22051 -0.423015,-3.72775 -0.07931,-0.52877 -0.237947,-1.32192 -0.396578,-2.35311 2.590972,-0.84587 4.520981,-3.54244 4.520981,-6.26615 0,-3.99214 -2.828918,-6.68871 -6.688937,-6.68871 -0.264385,-1.5863 -0.528769,-3.14625 -0.766716,-4.62633 2.802479,-2.93539 4.732489,-6.2398 4.732489,-10.4436 0,-2.40582 -0.740278,-4.36195 -1.163293,-5.31406 -0.634524,-1.34828 -1.40124,-2.27402 -1.877133,-2.27402 -0.18507,0 -1.004662,0.31789 -1.877132,1.34828 -1.692064,2.00964 -2.167957,5.39393 -2.167957,7.61444 0,1.42816 0.132193,2.72372 0.581648,5.68467 -0.02644,0.0263 -1.401241,1.42736 -1.956449,1.87706 -2.4059022,2.24687 -5.7371516,5.44584 -5.7371516,10.73355 0,4.94423 4.3094734,8.83093 9.2270326,8.83093 0.766716,0 1.480555,-0.0791 2.08864,-0.18531 0.502331,2.53841 0.793154,4.38911 0.793154,5.79011 0,2.74928 -1.401239,4.2038 -4.071527,4.2038 -0.634524,0 -1.189731,-0.13259 -1.242608,-0.13259 -0.02644,-0.0263 -0.07931,-0.0527 -0.07931,-0.0791 0,-0.0527 0.05288,-0.079 0.132193,-0.10543 1.242609,-0.18531 2.485217,-1.24284 2.485217,-2.93459 0,-1.42816 -1.083978,-2.93459 -3.066864,-2.93459 -1.8506942,0 -3.0404262,1.50643 -3.0404262,3.2517 M 16.0571,104.18574 c -0.528769,0.10623 -1.031101,0.15895 -1.533432,0.15895 -3.780704,0 -7.0061994,-2.64386 -7.0061994,-6.635987 0,-3.226135 2.27371,-6.107211 4.6002964,-8.116856 0.449454,-0.396977 0.87247,-0.766796 1.269048,-1.162974 0.237946,1.42736 0.423016,2.670207 0.608085,3.754106 -2.405902,0.71328 -4.0450885,3.251694 -4.0450885,5.736592 0,1.850695 1.4541165,4.389109 3.5691965,4.389109 0.211508,0 0.449454,-0.10543 0.449454,-0.34346 0,-0.23803 -0.264386,-0.37062 -0.581647,-0.58148 -1.031102,-0.63501 -1.612748,-1.32193 -1.612748,-2.617497 0,-1.612669 1.189732,-2.908234 2.749603,-3.278852 L 16.0571,104.18574 M 13.730509,77.006848 c 0.237946,-1.05754 1.454116,-3.833182 2.828917,-3.833182 0.396578,0 1.031102,1.295566 1.031102,3.119901 0,2.749284 -2.035764,4.811646 -3.860019,6.609623 -0.158632,-1.05754 -0.290824,-2.088721 -0.290824,-3.198978 0,-0.978463 0.07932,-1.877851 0.290824,-2.697364 m 6.080852,22.288204 c 0,1.877048 -0.766717,3.806818 -2.643849,4.573618 -0.555209,-3.17261 -1.269048,-7.376418 -1.454118,-8.539392 2.379465,0 4.097967,1.612668 4.097967,3.965774 M 8.1784258,112.30263 c 0,1.74446 1.3483629,4.04485 4.9175592,4.04485 1.242608,0 2.326586,-0.31711 3.278372,-0.89859 1.427679,-1.00482 1.797817,-2.75009 1.797817,-4.41547 0,-1.03118 -0.15863,-2.22051 -0.423015,-3.72774 -0.07931,-0.52878 -0.237947,-1.32193 -0.396578,-2.35311 2.590972,-0.84588 4.520981,-3.54243 4.520981,-6.266162 0,-3.992132 -2.828918,-6.688698 -6.688937,-6.688698 -0.264385,-1.58631 -0.528769,-3.14626 -0.766716,-4.626336 2.802479,-2.935391 4.732489,-6.239802 4.732489,-10.443602 0,-2.405823 -0.740278,-4.361951 -1.163293,-5.314056 -0.634524,-1.348283 -1.40124,-2.27403 -1.877133,-2.27403 -0.18507,0 -1.004662,0.317901 -1.877132,1.348283 -1.692064,2.009645 -2.167957,5.393931 -2.167957,7.614445 0,1.428157 0.132193,2.723722 0.581648,5.684673 -0.02644,0.02636 -1.401241,1.42736 -1.956449,1.877054 -2.4059022,2.246872 -5.7371516,5.445849 -5.7371516,10.733546 0,4.944243 4.3094734,8.830933 9.2270326,8.830933 0.766716,0 1.480555,-0.0791 2.08864,-0.18531 0.502331,2.53841 0.793154,4.38911 0.793154,5.79011 0,2.74928 -1.401239,4.2038 -4.071527,4.2038 -0.634524,0 -1.189731,-0.13259 -1.242608,-0.13259 -0.02644,-0.0263 -0.07931,-0.0527 -0.07931,-0.0791 0,-0.0527 0.05288,-0.0791 0.132193,-0.10545 1.242609,-0.1853 2.485217,-1.24284 2.485217,-2.93459 0,-1.42816 -1.083978,-2.93459 -3.066864,-2.93459 -1.8506942,0 -3.0404262,1.50643 -3.0404262,3.2517 M 516.25339,86.642119 c 0,1.137413 0.81951,2.405823 2.96095,2.405823 2.74928,0 5.63116,-2.246873 5.63116,-4.57362 0,-1.55995 -1.32193,-2.43218 -2.96095,-2.43218 -2.56477,0 -5.63116,2.167796 -5.63116,4.599977 M 395.86482,37.113486 c 0,1.137414 0.81951,2.406622 2.96095,2.406622 2.74928,0 5.63115,-2.247672 5.63115,-4.574418 0,-1.559951 -1.32192,-2.432181 -2.96094,-2.432181 -2.56478,0 -5.63116,2.167796 -5.63116,4.599977 m 31.71899,125.472594 c 0,1.13661 0.81951,2.40582 2.96095,2.40582 2.74929,0 5.63116,-2.24687 5.63116,-4.57362 0,-1.55996 -1.32193,-2.43218 -2.96095,-2.43218 -2.56478,0 -5.63116,2.16779 -5.63116,4.59998 M 109.83792,106.45341 c 0,1.13742 0.82032,2.40662 2.96175,2.40662 2.74929,0 5.63116,-2.24767 5.63116,-4.57441 0,-1.55995 -1.32192,-2.43218 -2.96096,-2.43218 -2.56476,0 -5.63195,2.16779 -5.63195,4.59997 m 303.69116,52.83065 c 0,1.13661 0.82031,2.40582 2.96175,2.40582 2.74928,0 5.63116,-2.24687 5.63116,-4.57362 0,-1.55995 -1.32193,-2.43218 -2.96095,-2.43218 -2.56478,0 -5.63196,2.1678 -5.63196,4.59998 M 131.85935,86.642119 c 0,1.137413 0.81951,2.405823 2.96175,2.405823 2.74928,0 5.63115,-2.246873 5.63115,-4.57362 0,-1.55995 -1.32192,-2.43218 -2.96094,-2.43218 -2.56478,0 -5.63196,2.167796 -5.63196,4.599977 m 323.65901,79.245971 c 0,1.13662 0.82031,2.40582 2.96175,2.40582 2.74927,0 5.63114,-2.24687 5.63114,-4.57361 0,-1.55995 -1.32191,-2.43219 -2.96094,-2.43219 -2.56477,0 -5.63195,2.16779 -5.63195,4.59998 M 116.76624,23.906224 c 0,1.136615 0.81951,2.405822 2.96095,2.405822 2.75009,0 5.63116,-2.246872 5.63116,-4.573778 0,-1.559871 -1.32193,-2.432341 -2.96095,-2.432341 -2.56398,0 -5.63116,2.167956 -5.63116,4.600297 M 58.990563,97.711138 c -0.87223,0 -1.057539,-0.713279 -1.057539,-0.951305 0,-1.295566 4.441825,-3.569596 5.684674,-3.569596 0.634204,0 1.057539,0.370618 1.057539,0.952106 0,1.321924 -4.468184,3.568795 -5.684674,3.568795 m 3.648671,-5.763749 c -2.564772,0 -5.631158,2.142236 -5.631158,4.600775 0,1.136616 0.819513,2.405823 2.96095,2.405823 2.749284,0 5.631159,-2.24767 5.631159,-4.573618 0,-1.559951 -1.321925,-2.43298 -2.960951,-2.43298 M 399.47515,155.98204 c 0,1.13742 0.81951,2.40583 2.96095,2.40583 2.75008,0 5.63196,-2.24688 5.63196,-4.57362 0,-1.55995 -1.32193,-2.43218 -2.96095,-2.43218 -2.56478,0 -5.63196,2.1678 -5.63196,4.59997 M 153.88077,89.944134 c 0,1.136616 0.81951,2.405822 2.96175,2.405822 2.74928,0 5.63116,-2.246871 5.63116,-4.573618 0,-1.559951 -1.32193,-2.432182 -2.96095,-2.432182 -2.56478,0 -5.63196,2.167797 -5.63196,4.599978 m 328.36202,89.151216 c 0,1.13742 0.81951,2.40582 2.96095,2.40582 2.75008,0 5.63116,-2.24687 5.63116,-4.57361 0,-1.55995 -1.32193,-2.43218 -2.96095,-2.43218 -2.56398,0 -5.63116,2.1678 -5.63116,4.59997 m 26.72364,-9.90525 c 0,1.13662 0.81951,2.40583 2.96175,2.40583 2.74929,0 5.63116,-2.24767 5.63116,-4.57362 0,-1.55995 -1.32192,-2.43298 -2.96096,-2.43298 -2.56476,0 -5.63195,2.1686 -5.63195,4.60077 M 71.617138,17.302432 c 0,1.136855 0.819512,2.405903 2.960951,2.405903 2.749283,0 5.631155,-2.247271 5.631155,-4.573859 0,-1.55987 -1.321922,-2.43234 -2.960948,-2.43234 -2.564773,0 -5.631158,2.167955 -5.631158,4.600296 M 545.13444,172.49212 c 0,1.13662 0.81951,2.40583 2.96095,2.40583 2.74928,0 5.63116,-2.24767 5.63116,-4.57442 0,-1.55916 -1.32193,-2.43219 -2.96095,-2.43219 -2.56477,0 -5.63116,2.1678 -5.63116,4.60078 M 557.72428,27.208239 c 0,1.136615 0.81951,2.405822 2.96095,2.405822 2.75008,0 5.63196,-2.24767 5.63196,-4.573618 0,-1.559951 -1.32193,-2.432581 -2.96096,-2.432581 -2.56477,0 -5.63195,2.168196 -5.63195,4.600377 M 287.75058,157.14582 c -0.87224,0 -1.05755,-0.71408 -1.05755,-0.95211 0,-1.29556 4.44183,-3.5688 5.68468,-3.5688 0.6342,0 1.05753,0.36983 1.05753,0.95131 0,1.32193 -4.46818,3.5696 -5.68466,3.5696 m 3.64867,-5.76375 c -2.56398,0 -5.63116,2.14144 -5.63116,4.59997 0,1.13742 0.81951,2.40583 2.96095,2.40583 2.75008,0 5.63116,-2.24688 5.63116,-4.57362 0,-1.55995 -1.32193,-2.43218 -2.96095,-2.43218 M 363.84629,40.415501 c 0,1.137415 0.82032,2.405823 2.96175,2.405823 2.74929,0 5.63116,-2.246872 5.63116,-4.573618 0,-1.559951 -1.32192,-2.432182 -2.96096,-2.432182 -2.56476,0 -5.63195,2.167797 -5.63195,4.599977 M 185.34576,93.24615 c 0,1.136615 0.81952,2.405822 2.96096,2.405822 2.75007,0 5.63195,-2.246872 5.63195,-4.573619 0,-1.55995 -1.32193,-2.432181 -2.96175,-2.432181 -2.56397,0 -5.63116,2.167797 -5.63116,4.599978 M 128.638,20.604288 c 0,1.136855 0.81952,2.405903 2.96096,2.405903 2.75007,0 5.63195,-2.247272 5.63195,-4.573859 0,-1.559871 -1.32192,-2.432341 -2.96095,-2.432341 -2.56477,0 -5.63196,2.167956 -5.63196,4.600297 M 238.22194,160.44783 c -0.87303,0 -1.05754,-0.71408 -1.05754,-0.9521 0,-1.29557 4.44102,-3.5696 5.68388,-3.5696 0.6342,0 1.05753,0.37062 1.05753,0.95211 0,1.32192 -4.46818,3.56959 -5.68387,3.56959 m 3.64787,-5.76375 c -2.56397,0 -5.63115,2.14144 -5.63115,4.59998 0,1.13661 0.81951,2.40582 2.96094,2.40582 2.75009,0 5.63196,-2.24687 5.63196,-4.57362 0,-1.55995 -1.32192,-2.43218 -2.96175,-2.43218 m -32.51934,-53.67093 c -0.87303,0 -1.05754,-0.71408 -1.05754,-0.9513 0,-1.295567 4.44103,-3.569598 5.68388,-3.569598 0.6342,0 1.05753,0.36982 1.05753,0.952106 0,1.321925 -4.46818,3.568792 -5.68387,3.568792 m 3.64787,-5.763746 c -2.56397,0 -5.63115,2.141438 -5.63115,4.60078 0,1.136616 0.81951,2.405816 2.96095,2.405816 2.75007,0 5.63195,-2.24767 5.63195,-4.573616 0,-1.55995 -1.32192,-2.43298 -2.96175,-2.43298 m -3.48333,67.336676 c 0,1.13661 0.81951,2.40582 2.96095,2.40582 2.74929,0 5.63116,-2.24687 5.63116,-4.57362 0,-1.55996 -1.32193,-2.43218 -2.96095,-2.43218 -2.56477,0 -5.63116,2.16779 -5.63116,4.59998 M 331.96755,44.88129 c -0.87224,0 -1.05755,-0.71408 -1.05755,-0.952106 0,-1.295566 4.44183,-3.569595 5.68388,-3.569595 0.635,0 1.05754,0.370618 1.05754,0.952105 0,1.321924 -4.46739,3.569596 -5.68387,3.569596 m 3.64867,-5.76375 c -2.56478,0 -5.63196,2.141437 -5.63196,4.599977 0,1.136615 0.82031,2.405823 2.96175,2.405823 2.74928,0 5.63116,-2.246873 5.63116,-4.573619 0,-1.559951 -1.32193,-2.432181 -2.96095,-2.432181 m 90.34773,-8.607286 c 0,1.136615 0.82031,2.405823 2.96175,2.405823 2.74929,0 5.63116,-2.247671 5.63116,-4.573619 0,-1.55995 -1.32192,-2.43298 -2.96095,-2.43298 -2.56477,0 -5.63196,2.168596 -5.63196,4.600776 M 140.51056,17.302432 c 0,1.136855 0.81952,2.405903 2.96095,2.405903 2.74929,0 5.63116,-2.247271 5.63116,-4.573859 0,-1.55987 -1.32192,-2.43234 -2.96095,-2.43234 -2.56477,0 -5.63116,2.167955 -5.63116,4.600296 m 32.83645,148.585658 c 0,1.13662 0.81951,2.40582 2.96095,2.40582 2.75008,0 5.63196,-2.24687 5.63196,-4.57361 0,-1.55995 -1.32193,-2.43219 -2.96096,-2.43219 -2.56477,0 -5.63195,2.16779 -5.63195,4.59998 M 302.04972,37.113486 c 0,1.137414 0.81952,2.406622 2.96095,2.406622 2.74929,0 5.63116,-2.247672 5.63116,-4.574418 0,-1.559951 -1.32192,-2.432181 -2.96096,-2.432181 -2.56476,0 -5.63115,2.167796 -5.63115,4.599977 M 135.24443,170.35308 c -0.87303,0 -1.05754,-0.71408 -1.05754,-0.95131 0,-1.29556 4.44102,-3.56959 5.68388,-3.56959 0.635,0 1.05753,0.36982 1.05753,0.95211 0,1.32192 -4.46818,3.56879 -5.68387,3.56879 m 3.64788,-5.76375 c -2.56398,0 -5.63116,2.14144 -5.63116,4.60077 0,1.13662 0.81951,2.40583 2.96095,2.40583 2.75008,0 5.63196,-2.24767 5.63196,-4.57362 0,-1.55995 -1.32193,-2.43298 -2.96175,-2.43298 M 251.82538,97.711138 c -0.87223,0 -1.05754,-0.713279 -1.05754,-0.951305 0,-1.295566 4.44183,-3.569596 5.68468,-3.569596 0.6342,0 1.05753,0.370618 1.05753,0.952106 0,1.321924 -4.46818,3.568795 -5.68467,3.568795 m 3.64867,-5.763749 c -2.56477,0 -5.63116,2.142236 -5.63116,4.600775 0,1.136616 0.81952,2.405823 2.96096,2.405823 2.74928,0 5.63116,-2.24767 5.63116,-4.573618 0,-1.559951 -1.32193,-2.43298 -2.96096,-2.43298 m 56.9338,4.600775 c 0,1.136616 0.81952,2.405823 2.96095,2.405823 2.74929,0 5.63116,-2.24767 5.63116,-4.573618 0,-1.559951 -1.32191,-2.43298 -2.96095,-2.43298 -2.56476,0 -5.63116,2.168595 -5.63116,4.600775 M 170.42839,28.371212 c -0.87303,0 -1.05755,-0.713279 -1.05755,-0.951305 0,-1.295566 4.44184,-3.569596 5.68388,-3.569596 0.635,0 1.05754,0.370618 1.05754,0.952106 0,1.321924 -4.46818,3.568795 -5.68387,3.568795 m 3.64867,-5.76335 c -2.56478,0 -5.63196,2.141838 -5.63196,4.600377 0,1.136615 0.81951,2.405822 2.96095,2.405822 2.75008,0 5.63196,-2.24767 5.63196,-4.573618 0,-1.559951 -1.32193,-2.432581 -2.96095,-2.432581 M 85.714999,173.65509 c -0.87303,0 -1.05754,-0.71408 -1.05754,-0.9521 0,-1.29477 4.441027,-3.56879 5.683876,-3.56879 0.635002,0 1.057539,0.36981 1.057539,0.9521 0,1.32192 -4.468184,3.56879 -5.683875,3.56879 m 3.647871,-5.76375 c -2.563974,0 -5.631158,2.14144 -5.631158,4.60078 0,1.13662 0.819514,2.40583 2.960952,2.40583 2.750081,0 5.631956,-2.24767 5.631956,-4.57442 0,-1.55916 -1.321924,-2.43219 -2.96175,-2.43219 m 484.47849,9.06577 c -0.87303,0 -1.05753,-0.71408 -1.05753,-0.95211 0,-1.29556 4.44102,-3.56879 5.68387,-3.56879 0.63421,0 1.05755,0.36982 1.05755,0.9513 0,1.32193 -4.4682,3.5696 -5.68389,3.5696 m 3.64788,-5.76375 c -2.56398,0 -5.63116,2.14143 -5.63116,4.59998 0,1.13741 0.81951,2.40662 2.96095,2.40662 2.75009,0 5.63196,-2.24767 5.63196,-4.57442 0,-1.55995 -1.32192,-2.43218 -2.96175,-2.43218 m -520.481164,4.59998 c 0,1.13741 0.819513,2.40662 2.96095,2.40662 2.749284,0 5.631159,-2.24767 5.631159,-4.57442 0,-1.55995 -1.321925,-2.43218 -2.960951,-2.43218 -2.564772,0 -5.631158,2.16779 -5.631158,4.59998 M 286.99975,30.510254 c 0,1.136615 0.81951,2.405823 2.96095,2.405823 2.74929,0 5.63116,-2.247671 5.63116,-4.573619 0,-1.55995 -1.32193,-2.43298 -2.96095,-2.43298 -2.56478,0 -5.63116,2.168596 -5.63116,4.600776 M 580.29923,17.302432 c 0,1.136855 0.81951,2.405903 2.96095,2.405903 2.75008,0 5.63116,-2.247271 5.63116,-4.573859 0,-1.55987 -1.32193,-2.43234 -2.96095,-2.43234 -2.56398,0 -5.63116,2.167955 -5.63116,4.600296 m 43.07156,162.956698 c -0.87302,0 -1.05753,-0.71408 -1.05753,-0.95211 0,-1.29556 4.44102,-3.5688 5.68387,-3.5688 0.63421,0 1.05754,0.36983 1.05754,0.95131 0,1.32193 -4.46818,3.5696 -5.68388,3.5696 m 3.64788,-5.76375 c -2.56397,0 -5.63116,2.14144 -5.63116,4.59997 0,1.13742 0.81952,2.40582 2.96095,2.40582 2.75009,0 5.63196,-2.24687 5.63196,-4.57361 0,-1.55995 -1.32192,-2.43218 -2.96175,-2.43218 M 345.85534,87.805891 c -0.87223,0 -1.05754,-0.714078 -1.05754,-0.952105 0,-1.295565 4.44182,-3.568796 5.68388,-3.568796 0.635,0 1.05753,0.36982 1.05753,0.951306 0,1.321925 -4.46738,3.569595 -5.68387,3.569595 m 3.64867,-5.763749 c -2.56477,0 -5.63195,2.141437 -5.63195,4.599977 0,1.137413 0.82031,2.405823 2.96175,2.405823 2.74928,0 5.63115,-2.246873 5.63115,-4.57362 0,-1.55995 -1.32192,-2.43218 -2.96095,-2.43218 M 480.55744,33.812269 c 0,1.136616 0.81951,2.405823 2.96094,2.405823 2.74929,0 5.63116,-2.24767 5.63116,-4.574417 0,-1.559951 -1.32192,-2.432182 -2.96095,-2.432182 -2.56476,0 -5.63115,2.167797 -5.63115,4.600776 M 636.8752,25.069198 c -0.87303,0 -1.05755,-0.71328 -1.05755,-0.951306 0,-1.295646 4.44103,-3.569356 5.68388,-3.569356 0.6342,0 1.05754,0.370138 1.05754,0.951785 0,1.321925 -4.46819,3.568877 -5.68387,3.568877 m 3.64787,-5.763271 c -2.56398,0 -5.63116,2.141518 -5.63116,4.600297 0,1.136615 0.81951,2.405822 2.96095,2.405822 2.75008,0 5.63196,-2.246872 5.63196,-4.573778 0,-1.559871 -1.32193,-2.432341 -2.96175,-2.432341 m -137.39148,4.600297 c 0,1.136615 0.81952,2.405822 2.96095,2.405822 2.75009,0 5.63196,-2.246872 5.63196,-4.573778 0,-1.559871 -1.32192,-2.432341 -2.96175,-2.432341 -2.56397,0 -5.63116,2.167956 -5.63116,4.600297 m -231.18181,9.906045 c 0,1.136616 0.81952,2.405823 2.96096,2.405823 2.75007,0 5.63195,-2.24767 5.63195,-4.574417 0,-1.559951 -1.32193,-2.432182 -2.96175,-2.432182 -2.56397,0 -5.63116,2.167797 -5.63116,4.600776 m 253.75677,-6.60403 c 0,1.136615 0.81951,2.405822 2.96094,2.405822 2.74929,0 5.63116,-2.24767 5.63116,-4.573618 0,-1.559951 -1.32192,-2.432581 -2.96095,-2.432581 -2.56477,0 -5.63115,2.168196 -5.63115,4.600377 m -323.39942,3.302015 c 0,1.136615 0.81951,2.405823 2.96095,2.405823 2.75009,0 5.63196,-2.247671 5.63196,-4.573619 0,-1.55995 -1.32192,-2.43298 -2.96095,-2.43298 -2.56478,0 -5.63196,2.168596 -5.63196,4.600776 m 453.95043,79.245166 c 0,1.13742 0.81951,2.40583 2.96095,2.40583 2.75008,0 5.63116,-2.24688 5.63116,-4.57362 0,-1.55995 -1.32193,-2.43218 -2.96095,-2.43218 -2.56398,0 -5.63116,2.1678 -5.63116,4.59997 M 396.7027,86.642119 c 0,1.137413 0.81951,2.405823 2.96095,2.405823 2.75008,0 5.63196,-2.246873 5.63196,-4.57362 0,-1.55995 -1.32193,-2.43218 -2.96095,-2.43218 -2.56478,0 -5.63196,2.167796 -5.63196,4.599977 m 228.50601,1.163772 c -0.87303,0 -1.05754,-0.714078 -1.05754,-0.952105 0,-1.295565 4.44103,-3.568796 5.68387,-3.568796 0.63501,0 1.05755,0.36982 1.05755,0.951306 0,1.321925 -4.46818,3.569595 -5.68388,3.569595 m 3.64787,-5.763749 c -2.56397,0 -5.63116,2.141437 -5.63116,4.599977 0,1.137413 0.81952,2.405823 2.96095,2.405823 2.75009,0 5.63196,-2.246873 5.63196,-4.57362 0,-1.55995 -1.32192,-2.43218 -2.96175,-2.43218 M 410.91479,33.812269 c 0,1.136616 0.81951,2.405823 2.96095,2.405823 2.74928,0 5.63116,-2.24767 5.63116,-4.574417 0,-1.559951 -1.32193,-2.432182 -2.96095,-2.432182 -2.56478,0 -5.63116,2.167797 -5.63116,4.600776 m 7.80933,59.433881 c 0,1.136615 0.81951,2.405822 2.96095,2.405822 2.75008,0 5.63196,-2.246872 5.63196,-4.573619 0,-1.55995 -1.32193,-2.432181 -2.96175,-2.432181 -2.56398,0 -5.63116,2.167797 -5.63116,4.599978 M 234.32565,33.812269 c 0,1.136616 0.81952,2.405823 2.96095,2.405823 2.74929,0 5.63116,-2.24767 5.63116,-4.574417 0,-1.559951 -1.32192,-2.432182 -2.96095,-2.432182 -2.56476,0 -5.63116,2.167797 -5.63116,4.600776 m 357.43478,62.735895 c 0,1.136616 0.81951,2.405823 2.96175,2.405823 2.74928,0 5.63116,-2.24767 5.63116,-4.573618 0,-1.559951 -1.32193,-2.43298 -2.96095,-2.43298 -2.56478,0 -5.63196,2.168595 -5.63196,4.600775 m -151.01489,3.30202 c 0,1.136616 0.81952,2.405816 2.96096,2.405816 2.75008,0 5.63195,-2.24767 5.63195,-4.573616 0,-1.55995 -1.32191,-2.43298 -2.96175,-2.43298 -2.56397,0 -5.63116,2.168596 -5.63116,4.60078 M 569.73901,93.24615 c 0,1.136615 0.82031,2.405822 2.96175,2.405822 2.74928,0 5.63116,-2.246872 5.63116,-4.573619 0,-1.55995 -1.32193,-2.432181 -2.96095,-2.432181 -2.56478,0 -5.63196,2.167797 -5.63196,4.599978 M 448.53891,33.812269 c 0,1.136616 0.81951,2.405823 2.96095,2.405823 2.75009,0 5.63196,-2.24767 5.63196,-4.574417 0,-1.559951 -1.32192,-2.432182 -2.96175,-2.432182 -2.56398,0 -5.63116,2.167797 -5.63116,4.600776 m 99.17868,56.131865 c 0,1.136616 0.82031,2.405822 2.96175,2.405822 2.74927,0 5.63115,-2.246871 5.63115,-4.573618 0,-1.559951 -1.32192,-2.432182 -2.96095,-2.432182 -2.56477,0 -5.63195,2.167797 -5.63195,4.599978 m -75.50705,16.509276 c 0,1.13742 0.81952,2.40662 2.96095,2.40662 2.74929,0 5.63116,-2.24767 5.63116,-4.57441 0,-1.55995 -1.32192,-2.43218 -2.96095,-2.43218 -2.56477,0 -5.63116,2.16779 -5.63116,4.59997 m 22.02143,-23.113307 c 0,1.137415 0.81951,2.406621 2.96095,2.406621 2.74928,0 5.63115,-2.24767 5.63115,-4.574416 0,-1.559951 -1.32192,-2.432182 -2.96095,-2.432182 -2.56477,0 -5.63115,2.167796 -5.63115,4.599977 M 256.89981,37.113486 c 0,1.137414 0.81952,2.406622 2.96175,2.406622 2.74929,0 5.63116,-2.247672 5.63116,-4.574418 0,-1.559951 -1.32192,-2.432181 -2.96095,-2.432181 -2.56477,0 -5.63196,2.167796 -5.63196,4.599977 M 94.191289,27.208239 c 0,1.136615 0.819514,2.405822 2.96175,2.405822 2.749287,0 5.631161,-2.24767 5.631161,-4.573618 0,-1.559951 -1.32192,-2.432581 -2.960955,-2.432581 -2.564772,0 -5.631956,2.168196 -5.631956,4.600377 M 602.87418,20.604288 c 0,1.136855 0.81951,2.405903 2.96095,2.405903 2.74928,0 5.63116,-2.247272 5.63116,-4.573859 0,-1.559871 -1.32192,-2.432341 -2.96095,-2.432341 -2.56477,0 -5.63116,2.167956 -5.63116,4.600297 m -86.62119,66.037 v 22.003892 h 0.66053 V 86.641288 Z m -22.02135,-3.301999 v 22.003881 h 0.66052 V 83.339289 Z M 456.46359,9.5882115 V 31.645296 h 0.66068 V 9.5882115 Z M 480.13455,82.229775 V 104.2864 h 0.66053 V 82.229775 Z m 89.60493,11.01552 v 18.701885 h 0.66053 V 93.245295 Z M 279.87461,14.575692 v 17.069604 h 0.66053 V 14.575692 Z m 319.81051,59.39986 v 20.405615 h 0.66068 V 73.975552 Z m -151.01476,1.650999 v 22.056615 h 0.66052 V 75.626551 Z M 242.24963,9.5882115 V 31.645296 h 0.66052 V 9.5882115 Z M 418.72456,93.245295 v 18.701885 h 0.66053 V 93.245295 Z M 664.18229,85.531934 V 107.5884 h 0.66052 V 85.531934 Z m -267.47924,1.109354 v 22.003892 h 0.66069 V 86.641288 Z M 533.63055,4.6353634 V 25.04129 h 0.66053 V 4.6353634 Z M 294.92458,9.6228442 V 28.343296 h 0.66053 V 9.6228442 Z M 503.13204,23.905417 V 42.6073 h 0.66053 V 23.905417 Z M 210.23192,6.2863647 V 28.343296 h 0.66053 V 6.2863647 Z m 133.6405,80.3549233 v 22.003892 h 0.66067 V 86.641288 Z M 64.932106,151.56981 v 22.05646 h 0.660531 v -22.05646 z m 26.724291,-3.30201 v 22.05725 h 0.660675 V 148.2678 Z M 176.36979,4.6353634 V 25.04129 h 0.66068 V 4.6353634 Z M 320.33187,73.975552 v 20.405615 h 0.66052 V 73.975552 Z M 309.9736,11.204423 V 34.94652 h 0.66068 V 11.204423 Z M 141.18597,144.96658 v 22.05647 h 0.66052 v -22.05647 z m 40.0858,-1.651 v 20.40547 h 0.66053 V 143.31558 Z M 337.90896,19.493908 v 22.056619 h 0.66069 V 19.493908 Z m -80.14214,54.481644 v 20.405615 h 0.66053 V 73.975552 Z M 140.51016,17.301413 V 39.32761 h 0.66053 V 17.301413 Z m 69.00446,145.283917 v 18.70173 h 0.66052 V 162.58533 Z M 565.64903,4.6353634 V 25.04129 h 0.66052 V 4.6353634 Z M 236.23829,159.28333 v 20.35272 h 0.66052 V 159.28333 Z M 215.29196,75.626551 v 22.056615 h 0.66052 V 75.626551 Z M 128.63833,20.60326 V 40.131187 H 129.299 V 20.60326 Z m 56.70705,72.642035 v 18.701885 h 0.66053 V 93.245295 Z M 371.7711,16.192061 V 38.24852 h 0.66052 V 16.192061 Z M 285.7677,155.98131 v 22.00375 h 0.66053 v -22.00375 z m 113.70787,0 v 22.02293 h 0.66053 V 155.98131 Z M 153.88119,89.943295 v 20.352875 h 0.66052 V 89.943295 Z m 259.64825,69.340035 v 19.52761 h 0.66053 V 159.28333 Z M 131.85967,86.641288 v 22.003892 h 0.66069 V 86.641288 Z m 295.7238,75.944042 v 17.03153 h 0.66052 V 162.58533 Z M 117.76275,82.229775 V 104.2864 h 0.66052 V 82.229775 Z M 403.78958,16.157272 V 34.94652 h 0.66053 V 16.157272 Z M 116.76587,23.905417 V 40.93384 h 0.66053 V 23.905417 Z M 463.4431,143.31558 v 20.40547 h 0.66053 v -20.40547 z m 26.72445,11.55624 v 22.05661 h 0.66052 V 154.87182 Z M 64.932106,73.975552 v 20.405615 h 0.660531 V 73.975552 Z M 516.89121,144.96658 v 22.05647 h 0.66052 V 144.96658 Z M 102.11606,4.6353634 V 25.04129 h 0.66053 V 4.6353634 Z M 553.05833,148.2678 v 22.05725 h 0.66068 V 148.2678 Z m 26.72444,3.30201 v 22.05646 h 0.66068 v -22.05646 z m 0.51607,-134.268397 v 22.003888 h 0.66053 V 17.301413 Z m -508.68207,0 v 22.003888 h 0.660523 V 17.301413 Z m 531.25694,3.301847 v 20.353041 h 0.66067 V 20.60326 Z M 418.83876,14.575692 v 17.069604 h 0.66053 V 14.575692 Z M 629.31219,154.87182 v 22.05661 h 0.66068 V 154.87182 Z M 488.48144,9.5882115 V 31.645296 h 0.66053 V 9.5882115 Z M 634.89156,23.905417 V 42.6073 h 0.66053 V 23.905417 Z m -11.66653,62.735871 v 22.003892 h 0.66052 V 86.641288 Z M 433.88873,6.2863647 V 28.343296 h 0.66052 V 6.2863647 Z M 264.82449,16.157272 V 34.94652 h 0.66068 V 16.157272 Z m 282.89347,73.786023 v 20.352875 h 0.66053 V 89.943295 Z M 327.80529,42.078914 v 1.05678 h 12.94452 v -1.05678 z m -126.47262,54.704082 2.3523,-0.476053 v 4.362757 l -2.3523,0.5024 v -4.389104 m 4.09755,-0.819513 c 0.15896,-0.02636 0.29075,-0.211668 0.29075,-0.36982 v -1.55995 c 0,-0.211668 -0.15815,-0.370619 -0.36982,-0.370619 h -0.0527 l -0.87303,0.18531 V 89.90899 h -0.74043 v 4.098364 l -2.3523,0.475254 v -3.727747 h -0.74044 v 3.886698 l -1.03119,0.211667 c -0.15895,0.02636 -0.29074,0.211668 -0.29074,0.369819 v 1.533592 c 0,0.211668 0.15815,0.36982 0.36982,0.36982 h 0.0791 l 0.87303,-0.184511 v 4.361954 l -1.03119,0.21167 c -0.15895,0.0263 -0.29074,0.21166 -0.29074,0.36981 v 1.53359 c 0,0.21168 0.15815,0.37063 0.36982,0.37063 h 0.0791 l 0.87304,-0.18531 v 3.93941 h 0.74044 v -4.09836 l 2.3523,-0.47526 v 3.72775 h 0.74043 v -3.88669 l 1.00482,-0.18532 c 0.15896,-0.0263 0.29075,-0.21167 0.29075,-0.36982 v -1.55994 c 0,-0.21168 -0.15815,-0.36983 -0.36982,-0.36983 h -0.0527 l -0.87303,0.18451 v -4.361948 l 1.00482,-0.185309 m 169.66503,-21.57077 c -10.3238,0 -20.64368,2.036841 -25.85767,6.188874 a 0.16494103,0.16494103 0 0 0 -0.0122,0.107487 0.16494103,0.16494103 0 0 0 -0.0271,0.105459 0.16494103,0.16494103 0 0 0 0.0139,0.01046 0.16494103,0.16494103 0 0 0 -9.7e-4,0.0084 0.16494103,0.16494103 0 0 0 0.0463,0.02558 0.16494103,0.16494103 0 0 0 0.0535,0.02964 0.16494103,0.16494103 0 0 0 0.0615,-0.0087 0.16494103,0.16494103 0 0 0 0.0517,-0.0074 c 5.08892,-3.008452 15.38543,-4.544895 25.6711,-4.544895 10.28568,0 20.58213,1.536451 25.67064,4.544895 a 0.16495752,0.16495752 0 0 0 0.18658,-0.270982 c -5.2136,-4.152041 -15.5334,-6.188874 -25.85722,-6.188874 z m 0,0.329945 c 9.03877,0 18.07706,1.597939 23.58719,4.737721 -5.61075,-2.335229 -14.59356,-3.4825 -23.58719,-3.4825 -8.99361,0 -17.97643,1.147279 -23.5875,3.4825 5.51046,-3.139782 14.54876,-4.737721 23.5875,-4.737721 z m -25.75499,5.987974 c 10.30223,-8.203919 41.2081,-8.203919 51.50953,0 -10.30143,-6.090437 -41.2073,-6.090437 -51.50953,0 m 81.02057,-43.316235 a 0.16495752,0.16495752 0 0 0 -0.22387,0.01513 c -3.28731,3.497046 -8.68095,5.811084 -14.29584,6.63646 -5.61488,0.825368 -11.44624,0.161267 -15.6005,-2.242103 a 0.16494103,0.16494103 0 0 0 -0.0145,0.0039 0.16494103,0.16494103 0 0 0 -0.19687,0.03604 0.16494103,0.16494103 0 0 0 0.002,0.01606 0.16494103,0.16494103 0 0 0 -0.0158,0.0042 0.16494103,0.16494103 0 0 0 0.0277,0.104365 0.16494103,0.16494103 0 0 0 0.012,0.107175 c 8.79447,7.01993 23.93482,4.794024 30.33767,-4.459406 a 0.16495752,0.16495752 0 0 0 -0.0319,-0.221836 z m -1.5521,1.69406 c -6.38965,7.131994 -18.6417,8.93311 -26.81305,3.941156 4.01075,1.670697 9.03199,2.057514 13.8935,1.342891 4.86145,-0.714622 9.55897,-2.529979 12.91955,-5.284047 z m -28.65065,2.858241 c 8.40121,4.860367 23.45117,2.647842 30.09913,-4.424254 -6.34044,9.163212 -21.39041,11.375738 -30.09913,4.424254 M 517.20543,10.929854 c -3.52841,-0.04099 -7.07971,1.122379 -9.88994,3.619942 a 0.16494103,0.16494103 0 0 0 -9.6e-4,0.01528 0.16494103,0.16494103 0 0 0 -0.0287,0.196411 0.16494103,0.16494103 0 0 0 0.0166,0.01154 0.16494103,0.16494103 0 0 0 -8e-4,0.0097 0.16494103,0.16494103 0 0 0 0.0156,9.34e-4 0.16494103,0.16494103 0 0 0 0.1961,0.02871 c 3.20752,-2.036604 7.61888,-2.5911 11.81895,-1.878457 4.20005,0.712643 8.18142,2.691173 10.53735,5.671719 a 0.16495752,0.16495752 0 0 0 0.27348,-0.182525 c -2.67309,-4.800707 -7.78091,-7.433336 -12.93781,-7.493235 z m -0.002,0.331824 c 4.43279,0.05237 8.82602,2.049982 11.59866,5.715713 -2.44057,-2.264208 -5.85106,-3.764181 -9.41428,-4.368766 -3.56299,-0.604547 -7.27737,-0.313663 -10.32831,1.018557 2.45168,-1.630916 5.3041,-2.399056 8.14393,-2.365504 z m -9.77825,3.411443 c 6.83726,-6.076539 18.12434,-4.161386 22.57416,3.830226 -4.7797,-6.046906 -16.06677,-7.962058 -22.57416,-3.830226 m 70.9648,-8.5348055 c -4.60833,0.1478655 -8.80211,3.3465303 -9.92925,8.4996235 a 0.16494103,0.16494103 0 0 0 0.008,0.0131 0.16494103,0.16494103 0 0 0 0.092,0.175507 0.16494103,0.16494103 0 0 0 0.0203,-3.2e-4 0.16494103,0.16494103 0 0 0 0.005,0.008 0.16494103,0.16494103 0 0 0 0.013,-0.0083 0.16494103,0.16494103 0 0 0 0.17566,-0.0922 c 1.1228,-2.838652 3.65546,-5.082781 6.61493,-6.3065044 2.95947,-1.2237234 6.33737,-1.4234211 9.13691,-0.2065509 a 0.16495752,0.16495752 0 0 0 0.1549,-0.2901692 c -2.01696,-1.2964076 -4.19729,-1.8593972 -6.29199,-1.792186 z m 0.006,0.3193426 c 1.50281,-0.045764 3.05186,0.2492734 4.55192,0.9149698 -2.49399,-0.580729 -5.22933,-0.2650535 -7.68357,0.7497603 -2.45446,1.0149057 -4.6142,2.7234438 -5.96984,4.8962178 1.55089,-4.0119143 5.1628,-6.441009 9.10149,-6.5609479 z m -9.77384,8.2154629 C 570.23903,7.2784118 578.2249,3.9765562 584.5925,8.0693299 578.89264,5.5917801 570.90758,8.8936356 568.62157,14.673121 M 459.76497,170.56312 a 0.16494103,0.16494103 0 0 0 -0.0102,0.008 0.16494103,0.16494103 0 0 0 -0.0131,8e-4 0.16494103,0.16494103 0 0 0 -0.0351,0.0384 0.16494103,0.16494103 0 0 0 -0.0412,0.0449 0.16494103,0.16494103 0 0 0 -0.007,0.062 0.16494103,0.16494103 0 0 0 -0.005,0.0509 c 3.13571,10.64301 16.58192,17.28844 26.94176,13.31456 a 0.16495752,0.16495752 0 0 0 -0.0944,-0.31513 c -4.60829,1.00854 -10.24949,-0.12063 -15.23405,-2.58406 -4.98456,-2.46343 -9.30797,-6.25887 -11.30568,-10.5319 a 0.16494103,0.16494103 0 0 0 -0.0384,-0.0351 0.16494103,0.16494103 0 0 0 -0.0449,-0.0412 0.16494103,0.16494103 0 0 0 -0.062,-0.007 0.16494103,0.16494103 0 0 0 -0.0509,-0.005 z m 0.92231,2.07377 c 2.29449,3.59505 6.11973,6.71023 10.43331,8.84205 4.31376,2.13192 9.11229,3.27853 13.36229,2.91744 -9.15119,2.24648 -20.02149,-3.12584 -23.7956,-11.75949 z m -0.87567,-1.91559 c 4.04086,8.64323 17.40307,15.24726 26.72444,13.20726 -10.2575,3.93463 -23.61971,-2.6694 -26.72444,-13.20726 M 140.42529,74.271806 c -8.06184,0.09844 -15.78468,3.527677 -19.82699,9.650783 a 0.16494103,0.16494103 0 0 0 -0.0102,0.05257 0.16494103,0.16494103 0 0 0 -0.0116,0.06021 0.16494103,0.16494103 0 0 0 0.0276,0.05523 0.16494103,0.16494103 0 0 0 0.0238,0.04758 0.16494103,0.16494103 0 0 0 0.0106,0.0036 0.16494103,0.16494103 0 0 0 0.006,0.0094 0.16494103,0.16494103 0 0 0 0.0136,-0.0028 0.16494103,0.16494103 0 0 0 0.20203,-0.02684 c 3.73395,-4.311734 10.26443,-7.076114 17.25198,-7.806798 6.98755,-0.730693 14.42464,0.57036 19.96864,4.335064 a 0.16495752,0.16495752 0 0 0 0.19828,-0.263178 c -5.10804,-4.253021 -11.58349,-6.191354 -17.85381,-6.114786 z m 0.008,0.343365 c 5.18721,-0.06528 10.51455,1.267282 15.07087,4.163933 -5.19798,-2.574246 -11.47216,-3.415013 -17.4253,-2.792494 -6.08405,0.636209 -11.8292,2.795186 -15.74122,6.202293 4.21339,-4.807739 11.02094,-7.484688 18.09565,-7.573732 z m -19.69678,9.398276 c 7.11922,-10.783869 25.83863,-13.156943 37.43802,-3.500105 -11.17207,-7.586488 -29.89147,-5.214213 -37.43802,3.500105 M 445.69786,71.756531 c -8.55642,0.09396 -16.86831,1.996521 -22.76442,5.511195 a 0.16494103,0.16494103 0 0 0 -0.0617,0.19594 0.16494103,0.16494103 0 0 0 -0.005,0.01232 0.16494103,0.16494103 0 0 0 0.008,0.0074 0.16494103,0.16494103 0 0 0 0.002,0.01061 0.16494103,0.16494103 0 0 0 0.013,0.0033 0.16494103,0.16494103 0 0 0 0.19516,0.06319 c 6.62572,-2.919312 16.46189,-4.304457 26.22195,-3.819163 9.76006,0.485294 19.44573,2.842321 25.78124,7.355323 a 0.16495752,0.16495752 0 0 0 0.20483,-0.258027 c -6.38546,-5.635766 -16.11089,-8.523233 -25.91884,-9.011011 -1.22599,-0.06097 -2.45328,-0.0844 -3.67563,-0.07099 z m 0.004,0.330266 c 1.21569,-0.0136 2.43639,0.0096 3.65566,0.0702 8.54683,0.425061 17.02092,2.690368 23.22791,6.986686 -6.28492,-3.473003 -14.74638,-5.308497 -23.26238,-5.731936 -8.57289,-0.426266 -17.19658,0.577422 -23.70731,2.810899 5.56987,-2.624639 12.73538,-4.053643 20.08612,-4.135849 z m -22.68359,5.322619 c 13.39417,-7.984264 39.47722,-7.645596 52.16529,3.552821 -12.75597,-9.086532 -38.83901,-9.424402 -52.16529,-3.552821 m 84.18451,-7.025257 c -2.17295,-0.0012 -4.35789,0.2413 -6.48575,0.712009 -6.80915,1.506252 -13.04309,5.35016 -16.42983,11.049371 a 0.16494103,0.16494103 0 0 0 -0.008,0.05304 0.16494103,0.16494103 0 0 0 -0.009,0.061 0.16494103,0.16494103 0 0 0 0.0301,0.05336 0.16494103,0.16494103 0 0 0 0.0265,0.04695 0.16494103,0.16494103 0 0 0 0.0108,0.003 0.16494103,0.16494103 0 0 0 0.007,0.0087 0.16494103,0.16494103 0 0 0 0.013,-0.0033 0.16494103,0.16494103 0 0 0 0.20125,-0.03698 c 3.57878,-4.58207 9.86842,-7.883415 16.61157,-9.374969 6.74316,-1.491554 13.93467,-1.172622 19.30422,1.431193 a 0.16495752,0.16495752 0 0 0 0.16132,-0.287045 c -3.9301,-2.530858 -8.6528,-3.713681 -13.43329,-3.716356 z m -9.9e-4,0.330576 c 3.82577,0.0026 7.60938,0.77206 10.96482,2.386093 -5.08176,-1.706113 -11.23919,-1.755523 -17.06696,-0.466451 -5.85368,1.294799 -11.37017,3.937977 -15.12002,7.625523 3.50126,-4.47995 8.93326,-7.54179 14.8091,-8.841582 2.10468,-0.465581 4.26531,-0.705029 6.41306,-0.703583 z m -22.7723,11.515111 c 6.71585,-11.301455 24.7747,-15.295183 36.11769,-7.990653 -10.8334,-5.253351 -28.89224,-1.26042 -36.11769,7.990653 m 78.084,-4.207521 c -3.92162,0.0079 -7.84614,1.574879 -10.62691,4.759559 a 0.16494103,0.16494103 0 0 0 0.007,0.107487 0.16494103,0.16494103 0 0 0 -0.01,0.106233 0.16494103,0.16494103 0 0 0 0.0178,0.0094 0.16494103,0.16494103 0 0 0 8e-4,0.0097 0.16494103,0.16494103 0 0 0 0.0487,0.01638 0.16494103,0.16494103 0 0 0 0.0576,0.0195 0.16494103,0.16494103 0 0 0 0.0592,-0.01825 0.16494103,0.16494103 0 0 0 0.0484,-0.01482 c 2.83929,-2.353688 6.99485,-3.403216 11.09024,-3.19436 4.09539,0.208856 8.12286,1.675704 10.70834,4.306047 a 0.16495752,0.16495752 0 0 0 0.25225,-0.210918 c -2.76805,-3.911178 -7.2089,-5.904864 -11.65342,-5.895894 z m 10e-4,0.329946 c 3.73927,-0.0074 7.4728,1.439748 10.16419,4.279377 -2.58378,-1.904818 -5.99732,-2.96167 -9.45578,-3.138041 -3.45807,-0.176355 -6.96096,0.52754 -9.72472,2.159266 2.56094,-2.202206 5.78813,-3.294196 9.01631,-3.300602 z m -10.50392,4.538139 c 5.862,-6.71346 16.87271,-6.151941 22.02143,1.123037 -5.24776,-5.338818 -16.25847,-5.900336 -22.02143,-1.123037 m -137.84415,60.59724 c -3.73111,0.0108 -7.41928,1.00792 -10.49164,3.12588 a 0.16494103,0.16494103 0 0 0 -0.0194,0.10577 0.16494103,0.16494103 0 0 0 -0.0355,0.10187 0.16494103,0.16494103 0 0 0 0.0145,0.0128 0.16494103,0.16494103 0 0 0 -0.002,0.009 0.16494103,0.16494103 0 0 0 0.0427,0.0276 0.16494103,0.16494103 0 0 0 0.0521,0.0337 0.16494103,0.16494103 0 0 0 0.0609,-0.003 0.16494103,0.16494103 0 0 0 0.0518,-0.003 c 4.13381,-1.99743 9.70631,-2.18699 14.94763,-0.95554 5.24132,1.23148 10.1463,3.88265 12.95808,7.51196 a 0.16495752,0.16495752 0 0 0 0.27473,-0.18081 c -3.45137,-6.23237 -10.73111,-9.80651 -17.85415,-9.78588 z m 0.002,0.34071 c 6.31872,-0.0122 12.77131,2.84288 16.45853,7.88092 -2.9469,-2.91184 -7.23129,-5.02307 -11.76356,-6.08794 -4.5323,-1.06488 -9.30878,-1.08257 -13.24406,0.21232 2.61651,-1.35384 5.56736,-1.99952 8.54909,-2.0053 z m -10.39993,2.92099 c 8.84772,-6.09923 22.90165,-2.79722 28.10787,6.60402 -5.68946,-7.34367 -19.7434,-10.64568 -28.10787,-6.60402 M 135.71565,5.230834 c -6.12099,0.1095687 -12.18331,3.54772 -14.80659,9.3745 a 0.16494103,0.16494103 0 0 0 0.005,0.01451 0.16494103,0.16494103 0 0 0 0.0542,0.19095 0.16494103,0.16494103 0 0 0 0.017,-0.0034 0.16494103,0.16494103 0 0 0 0.006,0.01622 0.16494103,0.16494103 0 0 0 0.19018,-0.05647 0.16494103,0.16494103 0 0 0 0.0153,-0.0031 c 2.22005,-3.36082 6.28027,-5.8754194 10.70147,-7.1050949 4.42121,-1.2296749 9.1968,-1.1726356 12.83345,0.5592777 A 0.16495752,0.16495752 0 0 0 144.8964,7.9336736 C 142.14363,6.029352 138.92131,5.173507 135.71507,5.2308992 Z m 0.004,0.3346314 c 2.51689,-0.046486 5.04157,0.4842133 7.33053,1.6528736 -3.41512,-1.0550906 -7.45581,-0.9297299 -11.24001,0.122776 -3.78387,1.0524107 -7.30872,3.03099 -9.68854,5.697459 2.89676,-4.6592188 8.22516,-7.3738732 13.59802,-7.4731086 z M 121.05942,14.673121 C 125.01249,5.8928274 136.88426,2.5909718 144.80303,8.0693299 137.43139,4.5586822 125.55964,7.8606176 121.0595,14.673121 M 321.42203,137.45042 c -0.69369,0 -1.38796,0.0106 -2.08188,0.0318 -11.10282,0.34029 -22.12334,3.4139 -29.38091,9.13752 a 0.16494103,0.16494103 0 0 0 -0.0274,0.049 0.16494103,0.16494103 0 0 0 -0.0299,0.0535 0.16494103,0.16494103 0 0 0 0.0109,0.0621 0.16494103,0.16494103 0 0 0 0.01,0.0538 0.16494103,0.16494103 0 0 0 0.006,9.9e-4 0.16494103,0.16494103 0 0 0 0.003,0.012 0.16494103,0.16494103 0 0 0 0.20718,0.0343 0.16494103,0.16494103 0 0 0 0.0113,0.002 c 7.20785,-4.60864 18.19479,-7.15323 29.24862,-7.49213 11.05383,-0.33889 22.17612,1.52784 29.6528,5.68655 a 0.16495752,0.16495752 0 0 0 0.17427,-0.27957 c -7.11988,-4.93888 -17.39841,-7.35087 -27.80385,-7.35268 z m 0,0.32994 c 9.00329,0.003 17.90563,1.82501 24.7034,5.51026 -7.34395,-3.14277 -17.06485,-4.52083 -26.73676,-4.22431 -9.67253,0.29656 -19.29109,2.26786 -26.42882,5.85488 7.06225,-4.40926 16.69262,-6.81208 26.39043,-7.10931 0.69055,-0.0212 1.38148,-0.0317 2.07175,-0.0315 z m -31.36069,8.96899 c 14.43254,-11.38213 43.96777,-12.28711 59.07045,-1.81077 -15.03798,-8.36446 -44.57321,-7.45869 -59.07045,1.81077 M 625.44827,9.2250313 V 36.366635 h 1.18859 V 9.2250313 Z m -154.3344,0 V 36.366635 h 1.1886 V 9.2250313 Z M 613.78189,78.565217 v 27.141303 h 1.18845 V 78.565217 Z m -226.52276,0 v 27.141303 h 1.18861 V 78.565217 Z m -52.82987,0 v 27.141303 h 1.18861 V 78.565217 Z M 224.88205,9.2250313 V 36.366635 h 1.18861 V 9.2250313 Z m 453.397,69.3401857 v 27.141303 h 1.18845 V 78.565217 Z M 304.15442,95.437908 c 0,-0.766796 -0.60785,-1.401799 -1.37464,-1.401799 -0.7668,0 -1.37465,0.635003 -1.37465,1.401799 0,0.766796 0.60785,1.401001 1.37465,1.401001 0.76679,0 1.37464,-0.634205 1.37464,-1.401001 m 0,-6.604031 c 0,-0.766796 -0.60785,-1.401 -1.37464,-1.401 -0.7668,0 -1.37465,0.634204 -1.37465,1.401 0,0.766796 0.60785,1.401001 1.37465,1.401001 0.76679,0 1.37464,-0.634205 1.37464,-1.401001 m -6.38119,-10.26866 v 27.141303 h 1.1886 V 78.565217 Z m -6.07562,0 v 27.141303 h 3.6318 V 78.565217 Z m -167.88,69.339883 v 27.14144 h 1.18846 V 147.9051 Z m 167.88,-69.339883 v 27.141303 h 3.6318 V 78.565217 Z m -3.63149,0 v 27.141303 h 1.18845 V 78.565217 Z m -2.44181,16.872691 c 0,-0.766796 -0.60785,-1.401799 -1.37464,-1.401799 -0.7668,0 -1.37464,0.635003 -1.37464,1.401799 0,0.766796 0.60784,1.401001 1.37464,1.401001 0.76679,0 1.37464,-0.634205 1.37464,-1.401001 m 0,-6.604031 c 0,-0.766796 -0.60785,-1.401 -1.37464,-1.401 -0.7668,0 -1.37464,0.634204 -1.37464,1.401 0,0.766796 0.60784,1.401001 1.37464,1.401001 0.76679,0 1.37464,-0.634205 1.37464,-1.401001 M 320.54154,9.2250313 V 36.366635 h 1.18845 V 9.2250313 Z m -161.53917,0 V 36.366635 h 1.18845 V 9.2250313 Z M 200.07148,147.9051 v 27.14144 h 1.18845 V 147.9051 Z m 40.32777,-69.339883 v 27.141303 h 1.1886 V 78.565217 Z m 35.92531,69.339883 v 27.14144 h 1.18845 V 147.9051 Z M 175.90224,78.565217 v 27.141303 h 1.18844 V 78.565217 Z M 336.58432,147.9051 v 27.14144 h 1.18844 V 147.9051 Z m 339.25091,0 v 27.14144 h 3.63196 V 147.9051 Z m -3.63148,0 v 27.14144 h 1.18845 V 147.9051 Z M 386.42123,9.2250313 V 36.366635 h 1.1886 V 9.2250313 Z m 161.86023,0 V 36.366635 h 1.18859 V 9.2250313 Z M 446.07553,147.9051 v 27.14144 h 1.1886 V 147.9051 Z M 100.39517,78.565217 v 27.141303 h 1.18844 V 78.565217 Z M 535.69091,147.9051 v 27.14144 h 1.18845 V 147.9051 Z M 678.27905,9.2250313 V 36.366635 h 1.18845 V 9.2250313 Z M 611.944,147.9051 v 27.14144 h 1.18845 V 147.9051 Z M 538.27482,78.565217 v 27.141303 h 1.18845 V 78.565217 Z m -75.50784,0 v 27.141303 h 1.1886 V 78.565217 Z M 129.68116,49.779199 c 0.56312,-0.179718 0.79077,-0.275567 1.07831,-0.467266 0.56312,-0.371417 0.91058,-1.030382 0.91058,-1.701329 0,-1.138213 -0.91058,-1.905008 -2.25247,-1.905008 -1.30595,0 -2.40822,0.81472 -2.40822,1.797177 0,0.491229 0.29953,0.826703 0.75482,0.826703 0.39537,0 0.68293,-0.287549 0.68293,-0.682928 0,-0.203681 -0.0599,-0.347454 -0.25161,-0.539154 -0.11982,-0.107831 -0.16774,-0.191699 -0.16774,-0.275567 0,-0.287549 0.59906,-0.587078 1.16218,-0.587078 0.80274,0 1.28199,0.443304 1.28199,1.186137 0,1.066326 -0.75482,2.072746 -1.55756,2.072746 -0.0359,0 -0.14377,-0.01198 -0.27557,-0.02397 -0.34745,-0.02397 -0.34745,-0.02397 -0.41934,-0.02397 -0.26359,0 -0.40736,0.119812 -0.40736,0.335473 0,0.1917 0.13179,0.311511 0.34745,0.311511 0.0599,0 0.14378,-0.01198 0.23962,-0.02397 0.16774,-0.03594 0.34746,-0.04792 0.4553,-0.04792 0.56311,0 0.94651,0.503209 0.94651,1.246042 0,1.293969 -0.63501,2.540012 -2.08473,2.540012 -0.67094,0 -1.24605,-0.335473 -1.24605,-0.718871 0,-0.131793 0.0479,-0.179718 0.23963,-0.263586 0.34746,-0.155756 0.49123,-0.371417 0.49123,-0.694909 0,-0.419342 -0.33548,-0.742833 -0.76679,-0.742833 -0.51519,0 -0.85067,0.40736 -0.85067,1.030382 0,1.162175 0.8866,1.893027 2.32435,1.893027 1.80916,0 3.18699,-1.210099 3.18699,-2.815579 0,-0.934533 -0.57509,-1.461705 -1.41378,-1.725291 m 284.89189,138.67987 c 0.56311,-0.17971 0.79075,-0.27557 1.0783,-0.46726 0.56311,-0.37143 0.91057,-1.03039 0.91057,-1.70134 0,-1.13821 -0.91057,-1.905 -2.25246,-1.905 -1.30595,0 -2.40822,0.81472 -2.40822,1.79718 0,0.49123 0.29953,0.8267 0.75481,0.8267 0.39538,0 0.68293,-0.28755 0.68293,-0.68293 0,-0.20368 -0.0599,-0.34745 -0.2516,-0.53915 -0.11981,-0.10784 -0.16775,-0.1917 -0.16775,-0.27557 0,-0.28755 0.59906,-0.58708 1.16218,-0.58708 0.80274,0 1.28199,0.4433 1.28199,1.18614 0,1.06632 -0.75482,2.07274 -1.55756,2.07274 -0.0359,0 -0.14377,-0.012 -0.27556,-0.0239 -0.34746,-0.0239 -0.34746,-0.0239 -0.41935,-0.0239 -0.26358,0 -0.40735,0.11981 -0.40735,0.33547 0,0.1917 0.13179,0.31151 0.34745,0.31151 0.0599,0 0.14377,-0.012 0.23963,-0.0239 0.16773,-0.0359 0.34745,-0.0479 0.45528,-0.0479 0.56312,0 0.94651,0.50322 0.94651,1.24605 0,1.29397 -0.635,2.54001 -2.08472,2.54001 -0.67095,0 -1.24604,-0.33547 -1.24604,-0.71887 0,-0.1318 0.0479,-0.17972 0.23962,-0.26359 0.34745,-0.15575 0.49123,-0.37141 0.49123,-0.6949 0,-0.41935 -0.33547,-0.74284 -0.7668,-0.74284 -0.51519,0 -0.85066,0.40736 -0.85066,1.03038 0,1.16218 0.88661,1.89303 2.32434,1.89303 1.80916,0 3.18701,-1.2101 3.18701,-2.81558 0,-0.93453 -0.57511,-1.4617 -1.41378,-1.72529 M 0,174.32003 v 0.72604 h 679.4675 v -0.72604 z m 0,-6.60323 v 0.72605 h 679.4675 v -0.72605 z m 0,-6.604 v 0.72604 h 679.4675 v -0.72604 z m 0,-6.60401 v 0.72605 h 679.4675 v -0.72605 z m 0,-6.60401 v 0.72605 h 679.4675 v -0.72605 z m 0,-42.92463 v 0.72606 h 679.4675 v -0.72606 z m 0,-6.603224 v 0.726043 h 679.4675 v -0.726043 z m 0,-6.604007 v 0.726044 H 679.4675 V 91.772919 Z M 0,85.16876 v 0.726204 H 679.4675 V 85.16876 Z m 0,-6.604006 v 0.726043 H 679.4675 V 78.564754 Z M 0,35.640271 v 0.726052 h 679.4675 v -0.726052 z m 0,-6.603375 v 0.726203 h 679.4675 v -0.726203 z m 0,-6.604165 v 0.726048 h 679.4675 v -0.726048 z m 0,-6.603693 v 0.726046 H 679.4675 V 15.829038 Z M 0,9.2251878 V 9.9512351 H 679.4675 V 9.2251878 Z"
     style="stroke-width:0.0798745" />
  <metadata
     id="metadata203">
    <rdf:RDF>
      <cc:Work
         rdf:about="">
        <dc:title>air_IV</dc:title>
      </cc:Work>
    </rdf:RDF>
  </metadata>
</svg>
