<?xml version="1.0" encoding="UTF-8" standalone="no"?>
<svg width="210.058mm" height="296.926mm" viewBox="0 0 9924 14028"
 xmlns="http://www.w3.org/2000/svg" xmlns:xlink="http://www.w3.org/1999/xlink" version="1.2" baseProfile="full">
<title>air_XI</title>
<desc>Generated by MuseScore Studio 4.7.3</desc>
<polyline class="StaffLines" fill="none" stroke="#000000" stroke-width="9.09" stroke-linejoin="bevel" points="708.661,828.424 9215.34,828.424" />
<polyline class="StaffLines" fill="none" stroke="#000000" stroke-width="9.09" stroke-linejoin="bevel" points="708.661,911.101 9215.34,911.101" />
<polyline class="StaffLines" fill="none" stroke="#000000" stroke-width="9.09" stroke-linejoin="bevel" points="708.661,993.778 9215.34,993.778" />
<polyline class="StaffLines" fill="none" stroke="#000000" stroke-width="9.09" stroke-linejoin="bevel" points="708.661,1076.46 9215.34,1076.46" />
<polyline class="StaffLines" fill="none" stroke="#000000" stroke-width="9.09" stroke-linejoin="bevel" points="708.661,1159.13 9215.34,1159.13" />
<polyline class="StaffLines" fill="none" stroke="#000000" stroke-width="9.09" stroke-linejoin="bevel" points="708.661,1696.53 9215.34,1696.53" />
<polyline class="StaffLines" fill="none" stroke="#000000" stroke-width="9.09" stroke-linejoin="bevel" points="708.661,1779.21 9215.34,1779.21" />
<polyline class="StaffLines" fill="none" stroke="#000000" stroke-width="9.09" stroke-linejoin="bevel" points="708.661,1861.89 9215.34,1861.89" />
<polyline class="StaffLines" fill="none" stroke="#000000" stroke-width="9.09" stroke-linejoin="bevel" points="708.661,1944.57 9215.34,1944.57" />
<polyline class="StaffLines" fill="none" stroke="#000000" stroke-width="9.09" stroke-linejoin="bevel" points="708.661,2027.24 9215.34,2027.24" />
<polyline class="StaffLines" fill="none" stroke="#000000" stroke-width="9.09" stroke-linejoin="bevel" points="708.661,2564.64 9215.34,2564.64" />
<polyline class="StaffLines" fill="none" stroke="#000000" stroke-width="9.09" stroke-linejoin="bevel" points="708.661,2647.32 9215.34,2647.32" />
<polyline class="StaffLines" fill="none" stroke="#000000" stroke-width="9.09" stroke-linejoin="bevel" points="708.661,2730 9215.34,2730" />
<polyline class="StaffLines" fill="none" stroke="#000000" stroke-width="9.09" stroke-linejoin="bevel" points="708.661,2812.68 9215.34,2812.68" />
<polyline class="StaffLines" fill="none" stroke="#000000" stroke-width="9.09" stroke-linejoin="bevel" points="708.661,2895.35 9215.34,2895.35" />
<polyline class="StaffLines" fill="none" stroke="#000000" stroke-width="9.09" stroke-linejoin="bevel" points="708.661,3432.75 9215.34,3432.75" />
<polyline class="StaffLines" fill="none" stroke="#000000" stroke-width="9.09" stroke-linejoin="bevel" points="708.661,3515.43 9215.34,3515.43" />
<polyline class="StaffLines" fill="none" stroke="#000000" stroke-width="9.09" stroke-linejoin="bevel" points="708.661,3598.11 9215.34,3598.11" />
<polyline class="StaffLines" fill="none" stroke="#000000" stroke-width="9.09" stroke-linejoin="bevel" points="708.661,3680.79 9215.34,3680.79" />
<polyline class="StaffLines" fill="none" stroke="#000000" stroke-width="9.09" stroke-linejoin="bevel" points="708.661,3763.46 9215.34,3763.46" />
<polyline class="BarLine" fill="none" stroke="#000000" stroke-width="14.88" stroke-linejoin="bevel" points="2631.67,2560.1 2631.67,2899.9" />
<polyline class="BarLine" fill="none" stroke="#000000" stroke-width="14.88" stroke-linejoin="bevel" points="9131.84,3428.21 9131.84,3768.01" />
<polyline class="BarLine" fill="none" stroke="#000000" stroke-width="45.47" stroke-linejoin="bevel" points="9192.6,3428.21 9192.6,3768.01" />
<polyline class="BarLine" fill="none" stroke="#000000" stroke-width="14.88" stroke-linejoin="bevel" points="5698.51,823.876 5698.51,1163.68" />
<polyline class="BarLine" fill="none" stroke="#000000" stroke-width="14.88" stroke-linejoin="bevel" points="8149.16,823.876 8149.16,1163.68" />
<polyline class="BarLine" fill="none" stroke="#000000" stroke-width="14.88" stroke-linejoin="bevel" points="8190.83,3428.21 8190.83,3768.01" />
<polyline class="BarLine" fill="none" stroke="#000000" stroke-width="14.88" stroke-linejoin="bevel" points="9207.9,823.876 9207.9,1163.68" />
<polyline class="BarLine" fill="none" stroke="#000000" stroke-width="14.88" stroke-linejoin="bevel" points="6591.34,3428.21 6591.34,3768.01" />
<polyline class="BarLine" fill="none" stroke="#000000" stroke-width="14.88" stroke-linejoin="bevel" points="2676.84,1691.99 2676.84,2031.79" />
<polyline class="BarLine" fill="none" stroke="#000000" stroke-width="14.88" stroke-linejoin="bevel" points="1855.93,823.876 1855.93,1163.68" />
<polyline class="BarLine" fill="none" stroke="#000000" stroke-width="14.88" stroke-linejoin="bevel" points="3788.31,1691.99 3788.31,2031.79" />
<polyline class="BarLine" fill="none" stroke="#000000" stroke-width="14.88" stroke-linejoin="bevel" points="5408.45,3428.21 5408.45,3768.01" />
<polyline class="BarLine" fill="none" stroke="#000000" stroke-width="14.88" stroke-linejoin="bevel" points="5257.75,1691.99 5257.75,2031.79" />
<polyline class="BarLine" fill="none" stroke="#000000" stroke-width="14.88" stroke-linejoin="bevel" points="3959.85,3428.21 3959.85,3768.01" />
<polyline class="BarLine" fill="none" stroke="#000000" stroke-width="14.88" stroke-linejoin="bevel" points="6369.22,1691.99 6369.22,2031.79" />
<polyline class="BarLine" fill="none" stroke="#000000" stroke-width="14.88" stroke-linejoin="bevel" points="2776.95,3428.21 2776.95,3768.01" />
<polyline class="BarLine" fill="none" stroke="#000000" stroke-width="14.88" stroke-linejoin="bevel" points="4306.58,823.876 4306.58,1163.68" />
<polyline class="BarLine" fill="none" stroke="#000000" stroke-width="14.88" stroke-linejoin="bevel" points="9207.9,2560.1 9207.9,2899.9" />
<polyline class="BarLine" fill="none" stroke="#000000" stroke-width="14.88" stroke-linejoin="bevel" points="7726.69,1691.99 7726.69,2031.79" />
<polyline class="BarLine" fill="none" stroke="#000000" stroke-width="14.88" stroke-linejoin="bevel" points="7925.76,2560.1 7925.76,2899.9" />
<path class="BarLine" d="M8633.63,1820.55 C8633.63,1810.95 8626.02,1803.01 8616.42,1803.01 C8606.82,1803.01 8599.21,1810.95 8599.21,1820.55 C8599.21,1830.15 8606.82,1838.09 8616.42,1838.09 C8626.02,1838.09 8633.63,1830.15 8633.63,1820.55"/>
<path class="BarLine" d="M8633.63,1903.23 C8633.63,1893.63 8626.02,1885.68 8616.42,1885.68 C8606.82,1885.68 8599.21,1893.63 8599.21,1903.23 C8599.21,1912.83 8606.82,1920.77 8616.42,1920.77 C8626.02,1920.77 8633.63,1912.83 8633.63,1903.23"/>
<polyline class="BarLine" fill="none" stroke="#000000" stroke-width="14.88" stroke-linejoin="bevel" points="8671.64,1691.99 8671.64,2031.79" />
<polyline class="BarLine" fill="none" stroke="#000000" stroke-width="45.47" stroke-linejoin="bevel" points="8732.41,1691.99 8732.41,2031.79" />
<polyline class="BarLine" fill="none" stroke="#000000" stroke-width="14.88" stroke-linejoin="bevel" points="6382.76,2560.1 6382.76,2899.9" />
<polyline class="BarLine" fill="none" stroke="#000000" stroke-width="45.47" stroke-linejoin="bevel" points="8732.41,1691.99 8732.41,2031.79" />
<polyline class="BarLine" fill="none" stroke="#000000" stroke-width="14.88" stroke-linejoin="bevel" points="8793.17,1691.99 8793.17,2031.79" />
<path class="BarLine" d="M8865.63,1820.55 C8865.63,1810.95 8858.01,1803.01 8848.41,1803.01 C8838.81,1803.01 8831.2,1810.95 8831.2,1820.55 C8831.2,1830.15 8838.81,1838.09 8848.41,1838.09 C8858.01,1838.09 8865.63,1830.15 8865.63,1820.55"/>
<path class="BarLine" d="M8865.63,1903.23 C8865.63,1893.63 8858.01,1885.68 8848.41,1885.68 C8838.81,1885.68 8831.2,1893.63 8831.2,1903.23 C8831.2,1912.83 8838.81,1920.77 8848.41,1920.77 C8858.01,1920.77 8865.63,1912.83 8865.63,1903.23"/>
<polyline class="BarLine" fill="none" stroke="#000000" stroke-width="14.88" stroke-linejoin="bevel" points="5219.35,2560.1 5219.35,2899.9" />
<polyline class="BarLine" fill="none" stroke="#000000" stroke-width="14.88" stroke-linejoin="bevel" points="9207.9,1691.99 9207.9,2031.79" />
<polyline class="BarLine" fill="none" stroke="#000000" stroke-width="14.88" stroke-linejoin="bevel" points="3795.08,2560.1 3795.08,2899.9" />
<polyline class="BarLine" fill="none" stroke="#000000" stroke-width="14.88" stroke-linejoin="bevel" points="3247.85,823.876 3247.85,1163.68" />
<polyline class="BarLine" fill="none" stroke="#000000" stroke-width="14.88" stroke-linejoin="bevel" points="6757.24,823.876 6757.24,1163.68" />
<path class="SlurSegment" stroke="#000000" stroke-width="4.13" stroke-linecap="round" stroke-linejoin="round" fill-rule="evenodd" d="M1371.94,3413.74 C1512.08,3322.09 1753.96,3363.43 1855.71,3496.42 C1749.51,3389.51 1507.62,3348.17 1371.94,3413.74"/>
<path class="SlurSegment" stroke="#000000" stroke-width="4.13" stroke-linecap="round" stroke-linejoin="round" fill-rule="evenodd" d="M6921.78,892.085 C6973.89,815.665 7078.1,815.665 7130.21,892.085 C7078.1,837.231 6973.89,837.231 6921.78,892.085"/>
<path class="SlurSegment" stroke="#000000" stroke-width="4.13" stroke-linecap="round" stroke-linejoin="round" fill-rule="evenodd" d="M2645.77,1192.2 C2701.58,1243.48 2805.79,1236.46 2854.21,1178.15 C2807.25,1257.99 2703.03,1265.02 2645.77,1192.2"/>
<path class="SlurSegment" stroke="#000000" stroke-width="4.13" stroke-linecap="round" stroke-linejoin="round" fill-rule="evenodd" d="M6838.56,3544.37 C6858.59,3466.73 6938.19,3442.76 6997.77,3496.42 C6943.92,3461.79 6864.32,3485.77 6838.56,3544.37"/>
<path class="SlurSegment" stroke="#000000" stroke-width="4.13" stroke-linecap="round" stroke-linejoin="round" fill-rule="evenodd" d="M2228.9,1316.22 C2311.35,1336.21 2415.57,1274.2 2437.33,1192.2 C2427.29,1293.91 2323.07,1355.92 2228.9,1316.22"/>
<path class="SlurSegment" stroke="#000000" stroke-width="4.13" stroke-linecap="round" stroke-linejoin="round" fill-rule="evenodd" d="M6533.76,2101.65 C6600.17,2147.8 6712.14,2127.13 6757.7,2060.31 C6716.19,2149.1 6604.22,2169.77 6533.76,2101.65"/>
<path class="SlurSegment" stroke="#000000" stroke-width="4.13" stroke-linecap="round" stroke-linejoin="round" fill-rule="evenodd" d="M8624.51,2676.26 C8635.42,2601.97 8728.29,2573.2 8779.28,2628.31 C8734.12,2592.03 8641.25,2620.8 8624.51,2676.26"/>
<path class="SlurSegment" stroke="#000000" stroke-width="4.13" stroke-linecap="round" stroke-linejoin="round" fill-rule="evenodd" d="M2043.76,1977.64 C2140.52,2080.71 2364.46,2122.05 2491.64,2060.31 C2359.65,2148.07 2135.71,2106.73 2043.76,1977.64"/>
<path class="SlurSegment" stroke="#000000" stroke-width="4.13" stroke-linecap="round" stroke-linejoin="round" fill-rule="evenodd" d="M4124.38,3413.74 C4232.41,3287.08 4474.29,3259.38 4608.15,3358.34 C4477.3,3285.66 4235.42,3313.36 4124.38,3413.74"/>
<path class="SlurSegment" stroke="#000000" stroke-width="4.13" stroke-linecap="round" stroke-linejoin="round" fill-rule="evenodd" d="M1371.94,2060.31 C1499.12,2122.05 1723.06,2080.71 1819.82,1977.64 C1727.86,2106.73 1503.92,2148.07 1371.94,2060.31"/>
<path class="SlurSegment" stroke="#000000" stroke-width="4.13" stroke-linecap="round" stroke-linejoin="round" fill-rule="evenodd" d="M6547.3,2614.25 C6583.61,2517.32 6702.34,2483.01 6784.76,2545.63 C6708.76,2505.22 6590.03,2539.53 6547.3,2614.25"/>
<path class="SlurSegment" stroke="#000000" stroke-width="4.13" stroke-linecap="round" stroke-linejoin="round" fill-rule="evenodd" d="M3959.62,2525.79 C4011.53,2396.37 4130.26,2389.36 4197.08,2511.73 C4131.6,2412.07 4012.87,2419.07 3959.62,2525.79"/>
<path class="SlurSegment" stroke="#000000" stroke-width="4.13" stroke-linecap="round" stroke-linejoin="round" fill-rule="evenodd" d="M4471.12,1316.22 C4553.57,1336.21 4657.79,1274.2 4679.56,1192.2 C4669.51,1293.91 4565.29,1355.92 4471.12,1316.22"/>
<path class="TieSegment" stroke="#000000" stroke-width="4.13" stroke-linecap="round" stroke-linejoin="round" fill-rule="evenodd" d="M2810.91,2669.64 C2878.84,2585.51 3082.64,2585.51 3150.57,2669.64 C3082.64,2611.96 2878.84,2611.96 2810.91,2669.64"/>
<path class="TieSegment" stroke="#000000" stroke-width="4.13" stroke-linecap="round" stroke-linejoin="round" fill-rule="evenodd" d="M5389.17,2831.7 C5457.1,2870.36 5660.89,2870.36 5728.82,2831.7 C5660.89,2896.81 5457.1,2896.81 5389.17,2831.7"/>
<path class="TieSegment" stroke="#000000" stroke-width="4.13" stroke-linecap="round" stroke-linejoin="round" fill-rule="evenodd" d="M5427.57,2170.28 C5491.44,2224.05 5683.07,2224.05 5746.94,2170.28 C5683.07,2250.05 5491.44,2250.05 5427.57,2170.28"/>
<path class="TieSegment" stroke="#000000" stroke-width="4.13" stroke-linecap="round" stroke-linejoin="round" fill-rule="evenodd" d="M7905.93,1760.19 C7969.81,1696.18 8161.43,1696.18 8225.31,1760.19 C8161.43,1722.18 7969.81,1722.18 7905.93,1760.19"/>
<path class="TieSegment" stroke="#000000" stroke-width="4.13" stroke-linecap="round" stroke-linejoin="round" fill-rule="evenodd" d="M5587.69,3372.39 C5656.95,3290.07 5864.73,3290.07 5933.99,3372.39 C5864.73,3316.53 5656.95,3316.53 5587.69,3372.39"/>
<path class="TieSegment" stroke="#000000" stroke-width="4.13" stroke-linecap="round" stroke-linejoin="round" fill-rule="evenodd" d="M8360.65,3782.48 C8429.91,3838.35 8637.68,3838.35 8706.94,3782.48 C8637.68,3864.81 8429.91,3864.81 8360.65,3782.48"/>
<path class="Accidental" d="M7411.51,1894 L7411.51,1839.71 L7449.91,1828.79 L7449.91,1883.4 L7411.51,1894 M7457.19,1801.32 C7456.53,1800.65 7455.53,1800.32 7454.54,1800.32 C7454.21,1800.32 7453.55,1800.65 7453.22,1800.65 L7411.51,1812.24 L7411.51,1754.31 L7402.24,1754.31 L7402.24,1918.16 C7402.24,1920.81 7404.23,1922.46 7406.88,1922.46 L7408.2,1922.46 L7449.91,1910.88 L7449.91,1968.8 L7458.84,1968.8 L7458.84,1804.96 C7458.84,1803.63 7458.18,1801.98 7457.19,1801.32"/>
<path class="Accidental" d="M4099.21,2592.74 C4099.21,2618.89 4085.64,2632.79 4066.44,2648.02 L4067.44,2583.47 C4068.1,2580.5 4073.06,2570.9 4086.3,2570.9 C4098.22,2570.9 4099.21,2582.15 4099.21,2589.1 L4099.21,2592.74 M4095.24,2554.68 C4078.69,2554.68 4069.09,2564.94 4067.44,2566.92 L4068.76,2460.67 C4068.76,2458.03 4066.77,2456.04 4064.13,2456.04 L4060.15,2456.04 C4057.51,2456.04 4055.52,2458.03 4055.52,2460.67 L4057.17,2659.6 C4057.17,2662.25 4059.16,2664.24 4061.81,2664.24 C4062.47,2664.24 4063.79,2663.91 4064.46,2663.58 C4092.92,2649.34 4122.71,2622.2 4122.71,2588.11 C4122.71,2570.9 4114.77,2554.68 4095.24,2554.68"/>
<polyline class="LedgerLine" fill="none" stroke="#000000" stroke-width="13.23" stroke-linejoin="bevel" points="4040.35,1241.81 4202.41,1241.81" />
<polyline class="LedgerLine" fill="none" stroke="#000000" stroke-width="13.23" stroke-linejoin="bevel" points="3727.7,1241.81 3889.76,1241.81" />
<polyline class="LedgerLine" fill="none" stroke="#000000" stroke-width="13.23" stroke-linejoin="bevel" points="5677.16,2109.92 5839.22,2109.92" />
<polyline class="LedgerLine" fill="none" stroke="#000000" stroke-width="13.23" stroke-linejoin="bevel" points="2147.87,1241.81 2309.93,1241.81" />
<polyline class="LedgerLine" fill="none" stroke="#000000" stroke-width="13.23" stroke-linejoin="bevel" points="5341.25,2109.92 5503.31,2109.92" />
<polyline class="LedgerLine" fill="none" stroke="#000000" stroke-width="13.23" stroke-linejoin="bevel" points="4991.52,2109.92 5153.58,2109.92" />
<polyline class="LedgerLine" fill="none" stroke="#000000" stroke-width="13.23" stroke-linejoin="bevel" points="3320.41,3846.14 3482.47,3846.14" />
<polyline class="LedgerLine" fill="none" stroke="#000000" stroke-width="13.23" stroke-linejoin="bevel" points="3186.17,2109.92 3348.23,2109.92" />
<polyline class="LedgerLine" fill="none" stroke="#000000" stroke-width="13.23" stroke-linejoin="bevel" points="1473.81,1241.81 1635.87,1241.81" />
<polyline class="LedgerLine" fill="none" stroke="#000000" stroke-width="13.23" stroke-linejoin="bevel" points="1939.43,1324.49 2101.49,1324.49" />
<polyline class="LedgerLine" fill="none" stroke="#000000" stroke-width="13.23" stroke-linejoin="bevel" points="1473.81,1324.49 1635.87,1324.49" />
<polyline class="LedgerLine" fill="none" stroke="#000000" stroke-width="13.23" stroke-linejoin="bevel" points="1939.43,1241.81 2101.49,1241.81" />
<polyline class="LedgerLine" fill="none" stroke="#000000" stroke-width="13.23" stroke-linejoin="bevel" points="4390.09,1241.81 4552.15,1241.81" />
<polyline class="Stem" fill="none" stroke="#000000" stroke-width="8.27" stroke-linejoin="bevel" points="4898.21,2055.35 4898.21,1779.21" />
<polyline class="Stem" fill="none" stroke="#000000" stroke-width="8.27" stroke-linejoin="bevel" points="3910,2661.21 3910,2936.69" />
<polyline class="Stem" fill="none" stroke="#000000" stroke-width="8.27" stroke-linejoin="bevel" points="5886.2,3446.64 5886.2,3722.12" />
<polyline class="Stem" fill="none" stroke="#000000" stroke-width="8.27" stroke-linejoin="bevel" points="5523.37,3446.64 5523.37,3722.12" />
<polyline class="Stem" fill="none" stroke="#000000" stroke-width="8.27" stroke-linejoin="bevel" points="1421.54,1972.68 1421.54,1696.53" />
<polyline class="Stem" fill="none" stroke="#000000" stroke-width="8.27" stroke-linejoin="bevel" points="2070.06,1311.26 2070.06,993.778" />
<polyline class="Stem" fill="none" stroke="#000000" stroke-width="8.27" stroke-linejoin="bevel" points="1645.48,1931.34 1645.48,1655.2" />
<polyline class="Stem" fill="none" stroke="#000000" stroke-width="8.27" stroke-linejoin="bevel" points="5163.26,3446.64 5163.26,3722.12" />
<polyline class="Stem" fill="none" stroke="#000000" stroke-width="8.27" stroke-linejoin="bevel" points="1869.42,1890 1869.42,1634.53" />
<polyline class="Stem" fill="none" stroke="#000000" stroke-width="8.27" stroke-linejoin="bevel" points="4800.43,3487.98 4800.43,3763.46" />
<polyline class="Stem" fill="none" stroke="#000000" stroke-width="8.27" stroke-linejoin="bevel" points="2093.36,1890 2093.36,1634.53" />
<polyline class="Stem" fill="none" stroke="#000000" stroke-width="8.27" stroke-linejoin="bevel" points="4558.54,3446.64 4558.54,3722.12" />
<polyline class="Stem" fill="none" stroke="#000000" stroke-width="8.27" stroke-linejoin="bevel" points="2317.3,1931.34 2317.3,1655.2" />
<polyline class="Stem" fill="none" stroke="#000000" stroke-width="8.27" stroke-linejoin="bevel" points="4316.65,3487.98 4316.65,3763.46" />
<polyline class="Stem" fill="none" stroke="#000000" stroke-width="8.27" stroke-linejoin="bevel" points="2541.24,1972.68 2541.24,1696.53" />
<polyline class="Stem" fill="none" stroke="#000000" stroke-width="8.27" stroke-linejoin="bevel" points="4074.77,3529.32 4074.77,3804.8" />
<polyline class="Stem" fill="none" stroke="#000000" stroke-width="8.27" stroke-linejoin="bevel" points="5146.03,1021.89 5146.03,766.416" />
<polyline class="Stem" fill="none" stroke="#000000" stroke-width="8.27" stroke-linejoin="bevel" points="5255.25,1007.67 5255.25,1241.81" />
<polyline class="Stem" fill="none" stroke="#000000" stroke-width="8.27" stroke-linejoin="bevel" points="2791.76,1834.44 2791.76,2089.25" />
<polyline class="Stem" fill="none" stroke="#000000" stroke-width="8.27" stroke-linejoin="bevel" points="9072.3,1145.9 9072.3,869.762" />
<polyline class="Stem" fill="none" stroke="#000000" stroke-width="8.27" stroke-linejoin="bevel" points="3714.65,3570.66 3714.65,3825.47" />
<polyline class="Stem" fill="none" stroke="#000000" stroke-width="8.27" stroke-linejoin="bevel" points="3316.8,2096.69 3316.8,1820.55" />
<polyline class="Stem" fill="none" stroke="#000000" stroke-width="8.27" stroke-linejoin="bevel" points="8759.64,1187.24 8759.64,911.101" />
<polyline class="Stem" fill="none" stroke="#000000" stroke-width="8.27" stroke-linejoin="bevel" points="6805.48,3626.22 6805.48,3370.75" />
<polyline class="Stem" fill="none" stroke="#000000" stroke-width="8.27" stroke-linejoin="bevel" points="3652.71,2055.35 3652.71,1779.21" />
<polyline class="Stem" fill="none" stroke="#000000" stroke-width="8.27" stroke-linejoin="bevel" points="3451.04,3832.91 3451.04,3556.77" />
<polyline class="Stem" fill="none" stroke="#000000" stroke-width="8.27" stroke-linejoin="bevel" points="4937.59,1021.89 4937.59,766.416" />
<polyline class="Stem" fill="none" stroke="#000000" stroke-width="8.27" stroke-linejoin="bevel" points="2991.09,3750.23 2991.09,3474.09" />
<polyline class="Stem" fill="none" stroke="#000000" stroke-width="8.27" stroke-linejoin="bevel" points="4002.45,2014.01 4002.45,1737.87" />
<polyline class="Stem" fill="none" stroke="#000000" stroke-width="8.27" stroke-linejoin="bevel" points="2278.5,1228.58 2278.5,952.439" />
<polyline class="Stem" fill="none" stroke="#000000" stroke-width="8.27" stroke-linejoin="bevel" points="4226.39,1972.68 4226.39,1696.53" />
<polyline class="Stem" fill="none" stroke="#000000" stroke-width="8.27" stroke-linejoin="bevel" points="2630.97,3708.9 2630.97,3432.75" />
<polyline class="Stem" fill="none" stroke="#000000" stroke-width="8.27" stroke-linejoin="bevel" points="4450.33,1931.34 4450.33,1655.2" />
<polyline class="Stem" fill="none" stroke="#000000" stroke-width="8.27" stroke-linejoin="bevel" points="2389.08,3667.56 2389.08,3391.42" />
<polyline class="Stem" fill="none" stroke="#000000" stroke-width="8.27" stroke-linejoin="bevel" points="4674.27,2014.01 4674.27,1737.87" />
<polyline class="Stem" fill="none" stroke="#000000" stroke-width="8.27" stroke-linejoin="bevel" points="2147.2,3626.22 2147.2,3370.75" />
<polyline class="Stem" fill="none" stroke="#000000" stroke-width="8.27" stroke-linejoin="bevel" points="3112.24,1021.89 3112.24,766.416" />
<polyline class="Stem" fill="none" stroke="#000000" stroke-width="8.27" stroke-linejoin="bevel" points="1806.1,3612 1806.1,3846.14" />
<polyline class="Stem" fill="none" stroke="#000000" stroke-width="8.27" stroke-linejoin="bevel" points="5122.15,2096.69 5122.15,1820.55" />
<polyline class="Stem" fill="none" stroke="#000000" stroke-width="8.27" stroke-linejoin="bevel" points="6948.15,3612 6948.15,3846.14" />
<polyline class="Stem" fill="none" stroke="#000000" stroke-width="8.27" stroke-linejoin="bevel" points="1564.21,3570.66 1564.21,3825.47" />
<polyline class="Stem" fill="none" stroke="#000000" stroke-width="8.27" stroke-linejoin="bevel" points="4729.16,1104.57 4729.16,828.424" />
<polyline class="Stem" fill="none" stroke="#000000" stroke-width="8.27" stroke-linejoin="bevel" points="1322.33,3529.32 1322.33,3804.8" />
<polyline class="Stem" fill="none" stroke="#000000" stroke-width="8.27" stroke-linejoin="bevel" points="5471.88,2096.69 5471.88,1820.55" />
<polyline class="Stem" fill="none" stroke="#000000" stroke-width="8.27" stroke-linejoin="bevel" points="8264.08,924.991 8264.08,1200.47" />
<polyline class="Stem" fill="none" stroke="#000000" stroke-width="8.27" stroke-linejoin="bevel" points="7190.04,3570.66 7190.04,3825.47" />
<polyline class="Stem" fill="none" stroke="#000000" stroke-width="8.27" stroke-linejoin="bevel" points="5807.79,2096.69 5807.79,1820.55" />
<polyline class="Stem" fill="none" stroke="#000000" stroke-width="8.27" stroke-linejoin="bevel" points="5463.69,966.329 5463.69,1221.14" />
<polyline class="Stem" fill="none" stroke="#000000" stroke-width="8.27" stroke-linejoin="bevel" points="7531.14,3626.22 7531.14,3370.75" />
<polyline class="Stem" fill="none" stroke="#000000" stroke-width="8.27" stroke-linejoin="bevel" points="8013.56,1021.89 8013.56,766.416" />
<polyline class="Stem" fill="none" stroke="#000000" stroke-width="8.27" stroke-linejoin="bevel" points="6233.62,2055.35 6233.62,1779.21" />
<polyline class="Stem" fill="none" stroke="#000000" stroke-width="8.27" stroke-linejoin="bevel" points="7893.97,3667.56 7893.97,3433.26" />
<polyline class="Stem" fill="none" stroke="#000000" stroke-width="8.27" stroke-linejoin="bevel" points="7705.91,1007.67 7705.91,1241.81" />
<polyline class="Stem" fill="none" stroke="#000000" stroke-width="8.27" stroke-linejoin="bevel" points="4520.72,1228.58 4520.72,952.439" />
<polyline class="Stem" fill="none" stroke="#000000" stroke-width="8.27" stroke-linejoin="bevel" points="6583.35,2014.01 6583.35,1737.87" />
<polyline class="Stem" fill="none" stroke="#000000" stroke-width="8.27" stroke-linejoin="bevel" points="8055.23,3708.9 8055.23,3452.92" />
<polyline class="Stem" fill="none" stroke="#000000" stroke-width="8.27" stroke-linejoin="bevel" points="6807.29,1972.68 6807.29,1696.53" />
<polyline class="Stem" fill="none" stroke="#000000" stroke-width="8.27" stroke-linejoin="bevel" points="7497.47,966.329 7497.47,1221.14" />
<polyline class="Stem" fill="none" stroke="#000000" stroke-width="8.27" stroke-linejoin="bevel" points="7031.23,1931.34 7031.23,1655.2" />
<polyline class="Stem" fill="none" stroke="#000000" stroke-width="8.27" stroke-linejoin="bevel" points="8967.13,2702.55 8967.13,2957.36" />
<polyline class="Stem" fill="none" stroke="#000000" stroke-width="8.27" stroke-linejoin="bevel" points="7255.17,1931.34 7255.17,1655.2" />
<polyline class="Stem" fill="none" stroke="#000000" stroke-width="8.27" stroke-linejoin="bevel" points="8729.67,2743.89 8729.67,2978.03" />
<polyline class="Stem" fill="none" stroke="#000000" stroke-width="8.27" stroke-linejoin="bevel" points="7491.87,1875.78 7491.87,2109.92" />
<polyline class="Stem" fill="none" stroke="#000000" stroke-width="8.27" stroke-linejoin="bevel" points="8591.42,2758.11 8591.42,2502.64" />
<polyline class="Stem" fill="none" stroke="#000000" stroke-width="8.27" stroke-linejoin="bevel" points="1604.44,1311.26 1604.44,993.778" />
<polyline class="Stem" fill="none" stroke="#000000" stroke-width="8.27" stroke-linejoin="bevel" points="8139.89,2799.45 8139.89,2523.31" />
<polyline class="Stem" fill="none" stroke="#000000" stroke-width="8.27" stroke-linejoin="bevel" points="7289.04,966.329 7289.04,1221.14" />
<polyline class="Stem" fill="none" stroke="#000000" stroke-width="8.27" stroke-linejoin="bevel" points="7841.61,1834.44 7841.61,2089.25" />
<polyline class="Stem" fill="none" stroke="#000000" stroke-width="8.27" stroke-linejoin="bevel" points="2486.93,1104.57 2486.93,828.424" />
<polyline class="Stem" fill="none" stroke="#000000" stroke-width="8.27" stroke-linejoin="bevel" points="8177.52,1834.44 8177.52,2089.25" />
<polyline class="Stem" fill="none" stroke="#000000" stroke-width="8.27" stroke-linejoin="bevel" points="7784.2,2758.11 7784.2,2502.64" />
<polyline class="Stem" fill="none" stroke="#000000" stroke-width="8.27" stroke-linejoin="bevel" points="4170.98,1228.58 4170.98,952.439" />
<polyline class="Stem" fill="none" stroke="#000000" stroke-width="8.27" stroke-linejoin="bevel" points="7447.53,2743.89 7447.53,2978.03" />
<polyline class="Stem" fill="none" stroke="#000000" stroke-width="8.27" stroke-linejoin="bevel" points="7210.07,2702.55 7210.07,2957.36" />
<polyline class="Stem" fill="none" stroke="#000000" stroke-width="8.27" stroke-linejoin="bevel" points="8404.96,3708.9 8404.96,3432.75" />
<polyline class="Stem" fill="none" stroke="#000000" stroke-width="8.27" stroke-linejoin="bevel" points="8973.08,1834.44 8973.08,2089.25" />
<polyline class="Stem" fill="none" stroke="#000000" stroke-width="8.27" stroke-linejoin="bevel" points="6972.6,2702.55 6972.6,2957.36" />
<polyline class="Stem" fill="none" stroke="#000000" stroke-width="8.27" stroke-linejoin="bevel" points="3858.33,1228.58 3858.33,952.439" />
<polyline class="Stem" fill="none" stroke="#000000" stroke-width="8.27" stroke-linejoin="bevel" points="7080.6,1007.67 7080.6,1241.81" />
<polyline class="Stem" fill="none" stroke="#000000" stroke-width="8.27" stroke-linejoin="bevel" points="8767.79,3708.9 8767.79,3432.75" />
<polyline class="Stem" fill="none" stroke="#000000" stroke-width="8.27" stroke-linejoin="bevel" points="6872.16,1007.67 6872.16,1241.81" />
<polyline class="Stem" fill="none" stroke="#000000" stroke-width="8.27" stroke-linejoin="bevel" points="5912.64,1021.89 5912.64,766.416" />
<polyline class="Stem" fill="none" stroke="#000000" stroke-width="8.27" stroke-linejoin="bevel" points="6621.64,1063.23 6621.64,787.085" />
<polyline class="Stem" fill="none" stroke="#000000" stroke-width="8.27" stroke-linejoin="bevel" points="6735.14,2661.21 6735.14,2936.69" />
<polyline class="Stem" fill="none" stroke="#000000" stroke-width="8.27" stroke-linejoin="bevel" points="6497.68,2702.55 6497.68,2957.36" />
<polyline class="Stem" fill="none" stroke="#000000" stroke-width="8.27" stroke-linejoin="bevel" points="2695.37,1104.57 2695.37,828.424" />
<polyline class="Stem" fill="none" stroke="#000000" stroke-width="8.27" stroke-linejoin="bevel" points="1421.54,2799.45 1421.54,2523.31" />
<polyline class="Stem" fill="none" stroke="#000000" stroke-width="8.27" stroke-linejoin="bevel" points="6141.99,2743.89 6141.99,2978.03" />
<polyline class="Stem" fill="none" stroke="#000000" stroke-width="8.27" stroke-linejoin="bevel" points="1659,2758.11 1659,2502.64" />
<polyline class="Stem" fill="none" stroke="#000000" stroke-width="8.27" stroke-linejoin="bevel" points="5789.67,2758.11 5789.67,2502.64" />
<polyline class="Stem" fill="none" stroke="#000000" stroke-width="8.27" stroke-linejoin="bevel" points="1896.46,2799.45 1896.46,2523.31" />
<polyline class="Stem" fill="none" stroke="#000000" stroke-width="8.27" stroke-linejoin="bevel" points="5433.48,2758.11 5433.48,2502.64" />
<polyline class="Stem" fill="none" stroke="#000000" stroke-width="8.27" stroke-linejoin="bevel" points="2133.92,2799.45 2133.92,2523.31" />
<polyline class="Stem" fill="none" stroke="#000000" stroke-width="8.27" stroke-linejoin="bevel" points="2903.81,1063.23 2903.81,787.085" />
<polyline class="Stem" fill="none" stroke="#000000" stroke-width="8.27" stroke-linejoin="bevel" points="2490.11,2758.11 2490.11,2502.64" />
<polyline class="Stem" fill="none" stroke="#000000" stroke-width="8.27" stroke-linejoin="bevel" points="4978.58,2743.89 4978.58,2978.03" />
<polyline class="Stem" fill="none" stroke="#000000" stroke-width="8.27" stroke-linejoin="bevel" points="4622.39,2702.55 4622.39,2957.36" />
<polyline class="Stem" fill="none" stroke="#000000" stroke-width="8.27" stroke-linejoin="bevel" points="3461.98,1104.57 3461.98,828.424" />
<polyline class="Stem" fill="none" stroke="#000000" stroke-width="8.27" stroke-linejoin="bevel" points="3102.78,2743.89 3102.78,2978.03" />
<polyline class="Stem" fill="none" stroke="#000000" stroke-width="8.27" stroke-linejoin="bevel" points="6308.98,1104.57 6308.98,828.424" />
<polyline class="Stem" fill="none" stroke="#000000" stroke-width="8.27" stroke-linejoin="bevel" points="4384.93,2661.21 4384.93,2936.69" />
<polyline class="Stem" fill="none" stroke="#000000" stroke-width="8.27" stroke-linejoin="bevel" points="2746.59,2743.89 2746.59,2978.03" />
<polyline class="Stem" fill="none" stroke="#000000" stroke-width="8.27" stroke-linejoin="bevel" points="4147.47,2619.87 4147.47,2895.35" />
<polyline class="Stem" fill="none" stroke="#000000" stroke-width="8.27" stroke-linejoin="bevel" points="3554.31,2702.55 3554.31,2957.36" />
<polyline class="Stem" fill="none" stroke="#000000" stroke-width="8.27" stroke-linejoin="bevel" points="6445.36,3667.56 6445.36,3391.42" />
<path class="Note" d="M5834.12,1063.58 C5823.2,1063.58 5820.88,1054.65 5820.88,1051.67 C5820.88,1035.45 5876.49,1006.98 5892.04,1006.98 C5899.99,1006.98 5905.28,1011.62 5905.28,1018.9 C5905.28,1035.45 5849.34,1063.58 5834.12,1063.58 M5879.8,991.425 C5847.69,991.425 5809.29,1018.24 5809.29,1049.02 C5809.29,1063.25 5819.55,1079.14 5846.37,1079.14 C5880.79,1079.14 5916.87,1051 5916.87,1021.88 C5916.87,1002.35 5900.32,991.425 5879.8,991.425"/>
<path class="Note" d="M6944.02,3612.01 C6944.02,3626.24 6954.28,3642.13 6981.09,3642.13 C7015.51,3642.13 7051.59,3614 7051.59,3584.87 C7051.59,3565.34 7035.04,3554.42 7014.52,3554.42 C6982.41,3554.42 6944.02,3581.56 6944.02,3612.01"/>
<path class="Note" d="M3550.18,2702.56 C3550.18,2716.79 3560.44,2732.68 3587.25,2732.68 C3621.68,2732.68 3657.76,2704.55 3657.76,2675.42 C3657.76,2655.89 3641.21,2644.97 3620.68,2644.97 C3588.58,2644.97 3550.18,2672.11 3550.18,2702.56"/>
<path class="Note" d="M3905.87,2661.22 C3905.87,2675.46 3916.13,2691.34 3942.94,2691.34 C3977.37,2691.34 4013.45,2663.21 4013.45,2634.08 C4013.45,2614.55 3996.9,2603.63 3976.37,2603.63 C3944.27,2603.63 3905.87,2630.77 3905.87,2661.22"/>
<path class="Note" d="M2767.28,2758.46 C2756.36,2758.46 2754.04,2749.53 2754.04,2746.55 C2754.04,2730.33 2809.65,2701.86 2825.21,2701.86 C2833.15,2701.86 2838.45,2706.5 2838.45,2713.78 C2838.45,2730.33 2782.51,2758.46 2767.28,2758.46 M2812.96,2686.31 C2780.85,2686.31 2742.46,2713.12 2742.46,2743.9 C2742.46,2758.13 2752.72,2774.02 2779.53,2774.02 C2813.95,2774.02 2850.03,2745.89 2850.03,2716.76 C2850.03,2697.23 2833.48,2686.31 2812.96,2686.31"/>
<path class="Note" d="M4143.33,2619.88 C4143.33,2634.12 4153.59,2650.01 4180.4,2650.01 C4214.83,2650.01 4250.91,2621.87 4250.91,2592.74 C4250.91,2573.21 4234.36,2562.29 4213.83,2562.29 C4181.73,2562.29 4143.33,2589.43 4143.33,2619.88"/>
<path class="Note" d="M3123.47,2758.46 C3112.55,2758.46 3110.23,2749.53 3110.23,2746.55 C3110.23,2730.33 3165.84,2701.86 3181.4,2701.86 C3189.34,2701.86 3194.64,2706.5 3194.64,2713.78 C3194.64,2730.33 3138.7,2758.46 3123.47,2758.46 M3169.15,2686.31 C3137.04,2686.31 3098.65,2713.12 3098.65,2743.9 C3098.65,2758.13 3108.91,2774.02 3135.72,2774.02 C3170.14,2774.02 3206.22,2745.89 3206.22,2716.76 C3206.22,2697.23 3189.67,2686.31 3169.15,2686.31"/>
<path class="Note" d="M6230.46,1146.26 C6219.54,1146.26 6217.22,1137.32 6217.22,1134.34 C6217.22,1118.12 6272.83,1089.66 6288.39,1089.66 C6296.33,1089.66 6301.63,1094.29 6301.63,1101.57 C6301.63,1118.12 6245.69,1146.26 6230.46,1146.26 M6276.14,1074.1 C6244.03,1074.1 6205.64,1100.91 6205.64,1131.7 C6205.64,1145.93 6215.9,1161.82 6242.71,1161.82 C6277.13,1161.82 6313.21,1133.68 6313.21,1104.55 C6313.21,1085.02 6296.66,1074.1 6276.14,1074.1"/>
<path class="Note" d="M4380.79,2661.22 C4380.79,2675.46 4391.05,2691.34 4417.86,2691.34 C4452.29,2691.34 4488.37,2663.21 4488.37,2634.08 C4488.37,2614.55 4471.82,2603.63 4451.3,2603.63 C4419.19,2603.63 4380.79,2630.77 4380.79,2661.22"/>
<path class="Note" d="M3383.46,1146.26 C3372.54,1146.26 3370.22,1137.32 3370.22,1134.34 C3370.22,1118.12 3425.83,1089.66 3441.39,1089.66 C3449.33,1089.66 3454.63,1094.29 3454.63,1101.57 C3454.63,1118.12 3398.69,1146.26 3383.46,1146.26 M3429.14,1074.1 C3397.03,1074.1 3358.64,1100.91 3358.64,1131.7 C3358.64,1145.93 3368.9,1161.82 3395.71,1161.82 C3430.13,1161.82 3466.21,1133.68 3466.21,1104.55 C3466.21,1085.02 3449.66,1074.1 3429.14,1074.1"/>
<path class="Note" d="M4643.08,2717.13 C4632.16,2717.13 4629.84,2708.19 4629.84,2705.21 C4629.84,2688.99 4685.45,2660.52 4701,2660.52 C4708.95,2660.52 4714.24,2665.16 4714.24,2672.44 C4714.24,2688.99 4658.3,2717.13 4643.08,2717.13 M4688.76,2644.97 C4656.65,2644.97 4618.25,2671.78 4618.25,2702.56 C4618.25,2716.79 4628.51,2732.68 4655.33,2732.68 C4689.75,2732.68 4725.83,2704.55 4725.83,2675.42 C4725.83,2655.89 4709.28,2644.97 4688.76,2644.97"/>
<path class="Note" d="M2386.77,2785.24 C2386.77,2799.47 2397.03,2815.36 2423.84,2815.36 C2458.26,2815.36 2494.34,2787.23 2494.34,2758.1 C2494.34,2738.57 2477.79,2727.65 2457.27,2727.65 C2425.16,2727.65 2386.77,2754.79 2386.77,2785.24"/>
<path class="Note" d="M4974.44,2743.9 C4974.44,2758.13 4984.71,2774.02 5011.52,2774.02 C5045.94,2774.02 5082.02,2745.89 5082.02,2716.76 C5082.02,2697.23 5065.47,2686.31 5044.95,2686.31 C5012.84,2686.31 4974.44,2713.45 4974.44,2743.9"/>
<path class="Note" d="M2800.46,1090.36 C2800.46,1104.59 2810.72,1120.48 2837.53,1120.48 C2871.96,1120.48 2908.04,1092.34 2908.04,1063.22 C2908.04,1043.69 2891.49,1032.76 2870.96,1032.76 C2838.86,1032.76 2800.46,1059.91 2800.46,1090.36"/>
<path class="Note" d="M2055.4,2841.14 C2044.48,2841.14 2042.16,2832.2 2042.16,2829.23 C2042.16,2813.01 2097.77,2784.54 2113.32,2784.54 C2121.27,2784.54 2126.56,2789.17 2126.56,2796.46 C2126.56,2813.01 2070.63,2841.14 2055.4,2841.14 M2101.08,2768.98 C2068.97,2768.98 2030.57,2795.79 2030.57,2826.58 C2030.57,2840.81 2040.84,2856.7 2067.65,2856.7 C2102.07,2856.7 2138.15,2828.56 2138.15,2799.44 C2138.15,2779.91 2121.6,2768.98 2101.08,2768.98"/>
<path class="Note" d="M1793.11,2826.58 C1793.11,2840.81 1803.38,2856.7 1830.19,2856.7 C1864.61,2856.7 1900.69,2828.56 1900.69,2799.44 C1900.69,2779.91 1884.14,2768.98 1863.62,2768.98 C1831.51,2768.98 1793.11,2796.13 1793.11,2826.58"/>
<path class="Note" d="M5354.96,2799.8 C5344.04,2799.8 5341.72,2790.87 5341.72,2787.89 C5341.72,2771.67 5397.33,2743.2 5412.88,2743.2 C5420.83,2743.2 5426.12,2747.84 5426.12,2755.12 C5426.12,2771.67 5370.18,2799.8 5354.96,2799.8 M5400.64,2727.65 C5368.53,2727.65 5330.13,2754.46 5330.13,2785.24 C5330.13,2799.47 5340.39,2815.36 5367.21,2815.36 C5401.63,2815.36 5437.71,2787.23 5437.71,2758.1 C5437.71,2738.57 5421.16,2727.65 5400.64,2727.65"/>
<path class="Note" d="M1555.65,2785.24 C1555.65,2799.47 1565.91,2815.36 1592.73,2815.36 C1627.15,2815.36 1663.23,2787.23 1663.23,2758.1 C1663.23,2738.57 1646.68,2727.65 1626.16,2727.65 C1594.05,2727.65 1555.65,2754.79 1555.65,2785.24"/>
<path class="Note" d="M5711.15,2799.8 C5700.23,2799.8 5697.91,2790.87 5697.91,2787.89 C5697.91,2771.67 5753.52,2743.2 5769.08,2743.2 C5777.02,2743.2 5782.32,2747.84 5782.32,2755.12 C5782.32,2771.67 5726.38,2799.8 5711.15,2799.8 M5756.83,2727.65 C5724.72,2727.65 5686.33,2754.46 5686.33,2785.24 C5686.33,2799.47 5696.59,2815.36 5723.4,2815.36 C5757.82,2815.36 5793.9,2787.23 5793.9,2758.1 C5793.9,2738.57 5777.35,2727.65 5756.83,2727.65"/>
<path class="Note" d="M6518.29,1090.36 C6518.29,1104.59 6528.55,1120.48 6555.36,1120.48 C6589.79,1120.48 6625.87,1092.34 6625.87,1063.22 C6625.87,1043.69 6609.32,1032.76 6588.8,1032.76 C6556.69,1032.76 6518.29,1059.91 6518.29,1090.36"/>
<path class="Note" d="M1318.19,2826.58 C1318.19,2840.81 1328.45,2856.7 1355.26,2856.7 C1389.69,2856.7 1425.77,2828.56 1425.77,2799.44 C1425.77,2779.91 1409.22,2768.98 1388.7,2768.98 C1356.59,2768.98 1318.19,2796.13 1318.19,2826.58"/>
<path class="Note" d="M6137.86,2743.9 C6137.86,2758.13 6148.12,2774.02 6174.93,2774.02 C6209.36,2774.02 6245.43,2745.89 6245.43,2716.76 C6245.43,2697.23 6228.88,2686.31 6208.36,2686.31 C6176.26,2686.31 6137.86,2713.45 6137.86,2743.9"/>
<path class="Note" d="M2592.02,1131.7 C2592.02,1145.93 2602.29,1161.82 2629.1,1161.82 C2663.52,1161.82 2699.6,1133.68 2699.6,1104.55 C2699.6,1085.02 2683.05,1074.1 2662.53,1074.1 C2630.42,1074.1 2592.02,1101.24 2592.02,1131.7"/>
<path class="Note" d="M5459.56,966.341 C5459.56,980.574 5469.82,996.462 5496.63,996.462 C5531.05,996.462 5567.13,968.327 5567.13,939.199 C5567.13,919.67 5550.58,908.747 5530.06,908.747 C5497.95,908.747 5459.56,935.889 5459.56,966.341"/>
<path class="Note" d="M8689.27,3750.59 C8678.35,3750.59 8676.03,3741.65 8676.03,3738.67 C8676.03,3722.46 8731.64,3693.99 8747.2,3693.99 C8755.14,3693.99 8760.44,3698.62 8760.44,3705.91 C8760.44,3722.46 8704.5,3750.59 8689.27,3750.59 M8734.95,3678.43 C8702.84,3678.43 8664.45,3705.24 8664.45,3736.03 C8664.45,3750.26 8674.71,3766.15 8701.52,3766.15 C8735.94,3766.15 8772.02,3738.01 8772.02,3708.88 C8772.02,3689.36 8755.47,3678.43 8734.95,3678.43"/>
<path class="Note" d="M6493.55,2702.56 C6493.55,2716.79 6503.81,2732.68 6530.62,2732.68 C6565.04,2732.68 6601.12,2704.55 6601.12,2675.42 C6601.12,2655.89 6584.57,2644.97 6564.05,2644.97 C6531.94,2644.97 6493.55,2672.11 6493.55,2702.56"/>
<path class="Note" d="M6868.03,1007.68 C6868.03,1021.91 6878.29,1037.8 6905.1,1037.8 C6939.53,1037.8 6975.6,1009.67 6975.6,980.538 C6975.6,961.009 6959.05,950.086 6938.53,950.086 C6906.43,950.086 6868.03,977.228 6868.03,1007.68"/>
<path class="Note" d="M6731.01,2661.22 C6731.01,2675.46 6741.27,2691.34 6768.08,2691.34 C6802.51,2691.34 6838.58,2663.21 6838.58,2634.08 C6838.58,2614.55 6822.03,2603.63 6801.51,2603.63 C6769.41,2603.63 6731.01,2630.77 6731.01,2661.22"/>
<path class="Note" d="M8968.95,1834.45 C8968.95,1848.68 8979.21,1864.57 9006.02,1864.57 C9040.45,1864.57 9076.52,1836.44 9076.52,1807.31 C9076.52,1787.78 9059.97,1776.86 9039.45,1776.86 C9007.35,1776.86 8968.95,1804 8968.95,1834.45"/>
<path class="Note" d="M6968.47,2702.56 C6968.47,2716.79 6978.73,2732.68 7005.54,2732.68 C7039.97,2732.68 7076.05,2704.55 7076.05,2675.42 C7076.05,2655.89 7059.5,2644.97 7038.97,2644.97 C7006.87,2644.97 6968.47,2672.11 6968.47,2702.56"/>
<path class="Note" d="M8326.44,3750.59 C8315.52,3750.59 8313.2,3741.65 8313.2,3738.67 C8313.2,3722.46 8368.81,3693.99 8384.37,3693.99 C8392.31,3693.99 8397.61,3698.62 8397.61,3705.91 C8397.61,3722.46 8341.67,3750.59 8326.44,3750.59 M8372.12,3678.43 C8340.01,3678.43 8301.62,3705.24 8301.62,3736.03 C8301.62,3750.26 8311.88,3766.15 8338.69,3766.15 C8373.11,3766.15 8409.19,3738.01 8409.19,3708.88 C8409.19,3689.36 8392.64,3678.43 8372.12,3678.43"/>
<path class="Note" d="M7205.93,2702.56 C7205.93,2716.79 7216.19,2732.68 7243,2732.68 C7277.43,2732.68 7313.51,2704.55 7313.51,2675.42 C7313.51,2655.89 7296.96,2644.97 7276.43,2644.97 C7244.33,2644.97 7205.93,2672.11 7205.93,2702.56"/>
<path class="Note" d="M3779.8,1270.28 C3768.88,1270.28 3766.56,1261.34 3766.56,1258.36 C3766.56,1242.14 3822.17,1213.67 3837.73,1213.67 C3845.67,1213.67 3850.97,1218.31 3850.97,1225.59 C3850.97,1242.14 3795.03,1270.28 3779.8,1270.28 M3825.48,1198.12 C3793.38,1198.12 3754.98,1224.93 3754.98,1255.71 C3754.98,1269.94 3765.24,1285.83 3792.05,1285.83 C3826.48,1285.83 3862.55,1257.7 3862.55,1228.57 C3862.55,1209.04 3846,1198.12 3825.48,1198.12"/>
<path class="Note" d="M7443.39,2743.9 C7443.39,2758.13 7453.65,2774.02 7480.46,2774.02 C7514.89,2774.02 7550.97,2745.89 7550.97,2716.76 C7550.97,2697.23 7534.42,2686.31 7513.9,2686.31 C7481.79,2686.31 7443.39,2713.45 7443.39,2743.9"/>
<path class="Note" d="M8198.21,1849.02 C8187.29,1849.02 8184.97,1840.08 8184.97,1837.1 C8184.97,1820.88 8240.58,1792.41 8256.14,1792.41 C8264.08,1792.41 8269.38,1797.05 8269.38,1804.33 C8269.38,1820.88 8213.44,1849.02 8198.21,1849.02 M8243.89,1776.86 C8211.78,1776.86 8173.39,1803.67 8173.39,1834.45 C8173.39,1848.68 8183.65,1864.57 8210.46,1864.57 C8244.88,1864.57 8280.96,1836.44 8280.96,1807.31 C8280.96,1787.78 8264.41,1776.86 8243.89,1776.86"/>
<path class="Note" d="M7680.85,2785.24 C7680.85,2799.47 7691.11,2815.36 7717.93,2815.36 C7752.35,2815.36 7788.43,2787.23 7788.43,2758.1 C7788.43,2738.57 7771.88,2727.65 7751.36,2727.65 C7719.25,2727.65 7680.85,2754.79 7680.85,2785.24"/>
<path class="Note" d="M2383.59,1131.7 C2383.59,1145.93 2393.85,1161.82 2420.66,1161.82 C2455.08,1161.82 2491.16,1133.68 2491.16,1104.55 C2491.16,1085.02 2474.61,1074.1 2454.09,1074.1 C2421.98,1074.1 2383.59,1101.24 2383.59,1131.7"/>
<path class="Note" d="M7862.3,1849.02 C7851.38,1849.02 7849.06,1840.08 7849.06,1837.1 C7849.06,1820.88 7904.67,1792.41 7920.23,1792.41 C7928.17,1792.41 7933.47,1797.05 7933.47,1804.33 C7933.47,1820.88 7877.53,1849.02 7862.3,1849.02 M7907.98,1776.86 C7875.87,1776.86 7837.48,1803.67 7837.48,1834.45 C7837.48,1848.68 7847.74,1864.57 7874.55,1864.57 C7908.97,1864.57 7945.05,1836.44 7945.05,1807.31 C7945.05,1787.78 7928.5,1776.86 7907.98,1776.86"/>
<path class="Note" d="M4067.63,1255.71 C4067.63,1269.94 4077.9,1285.83 4104.71,1285.83 C4139.13,1285.83 4175.21,1257.7 4175.21,1228.57 C4175.21,1209.04 4158.66,1198.12 4138.14,1198.12 C4106.03,1198.12 4067.63,1225.26 4067.63,1255.71"/>
<path class="Note" d="M8061.37,2841.14 C8050.44,2841.14 8048.13,2832.2 8048.13,2829.23 C8048.13,2813.01 8103.74,2784.54 8119.29,2784.54 C8127.24,2784.54 8132.53,2789.17 8132.53,2796.46 C8132.53,2813.01 8076.59,2841.14 8061.37,2841.14 M8107.05,2768.98 C8074.94,2768.98 8036.54,2795.79 8036.54,2826.58 C8036.54,2840.81 8046.8,2856.7 8073.61,2856.7 C8108.04,2856.7 8144.12,2828.56 8144.12,2799.44 C8144.12,2779.91 8127.57,2768.98 8107.05,2768.98"/>
<path class="Note" d="M7076.47,1007.68 C7076.47,1021.91 7086.73,1037.8 7113.54,1037.8 C7147.96,1037.8 7184.04,1009.67 7184.04,980.538 C7184.04,961.009 7167.49,950.086 7146.97,950.086 C7114.86,950.086 7076.47,977.228 7076.47,1007.68"/>
<path class="Note" d="M7487.74,1875.79 C7487.74,1890.02 7498,1905.91 7524.81,1905.91 C7559.23,1905.91 7595.31,1877.78 7595.31,1848.65 C7595.31,1829.12 7578.76,1818.2 7558.24,1818.2 C7526.13,1818.2 7487.74,1845.34 7487.74,1875.79"/>
<path class="Note" d="M8488.08,2785.24 C8488.08,2799.47 8498.34,2815.36 8525.15,2815.36 C8559.57,2815.36 8595.65,2787.23 8595.65,2758.1 C8595.65,2738.57 8579.1,2727.65 8558.58,2727.65 C8526.47,2727.65 8488.08,2754.79 8488.08,2785.24"/>
<path class="Note" d="M7176.65,1973.03 C7165.73,1973.03 7163.41,1964.09 7163.41,1961.12 C7163.41,1944.9 7219.02,1916.43 7234.58,1916.43 C7242.52,1916.43 7247.82,1921.06 7247.82,1928.35 C7247.82,1944.9 7191.88,1973.03 7176.65,1973.03 M7222.33,1900.87 C7190.22,1900.87 7151.83,1927.68 7151.83,1958.47 C7151.83,1972.7 7162.09,1988.59 7188.9,1988.59 C7223.32,1988.59 7259.4,1960.45 7259.4,1931.33 C7259.4,1911.8 7242.85,1900.87 7222.33,1900.87"/>
<path class="Note" d="M8725.54,2743.9 C8725.54,2758.13 8735.8,2774.02 8762.61,2774.02 C8797.03,2774.02 8833.11,2745.89 8833.11,2716.76 C8833.11,2697.23 8816.56,2686.31 8796.04,2686.31 C8763.93,2686.31 8725.54,2713.45 8725.54,2743.9"/>
<path class="Note" d="M6927.89,1958.47 C6927.89,1972.7 6938.15,1988.59 6964.96,1988.59 C6999.38,1988.59 7035.46,1960.45 7035.46,1931.33 C7035.46,1911.8 7018.91,1900.87 6998.39,1900.87 C6966.28,1900.87 6927.89,1928.02 6927.89,1958.47"/>
<path class="Note" d="M8963,2702.56 C8963,2716.79 8973.26,2732.68 9000.07,2732.68 C9034.49,2732.68 9070.57,2704.55 9070.57,2675.42 C9070.57,2655.89 9054.02,2644.97 9033.5,2644.97 C9001.39,2644.97 8963,2672.11 8963,2702.56"/>
<path class="Note" d="M2175.15,1255.71 C2175.15,1269.94 2185.41,1285.83 2212.22,1285.83 C2246.65,1285.83 2282.73,1257.7 2282.73,1228.57 C2282.73,1209.04 2266.18,1198.12 2245.65,1198.12 C2213.55,1198.12 2175.15,1225.26 2175.15,1255.71"/>
<path class="Note" d="M6703.95,1999.81 C6703.95,2014.04 6714.21,2029.93 6741.02,2029.93 C6775.44,2029.93 6811.52,2001.79 6811.52,1972.66 C6811.52,1953.14 6794.97,1942.21 6774.45,1942.21 C6742.34,1942.21 6703.95,1969.35 6703.95,1999.81"/>
<path class="Note" d="M6480.01,2041.14 C6480.01,2055.38 6490.27,2071.27 6517.08,2071.27 C6551.5,2071.27 6587.58,2043.13 6587.58,2014 C6587.58,1994.47 6571.03,1983.55 6550.51,1983.55 C6518.4,1983.55 6480.01,2010.69 6480.01,2041.14"/>
<path class="Note" d="M6130.27,2082.48 C6130.27,2096.72 6140.53,2112.6 6167.34,2112.6 C6201.77,2112.6 6237.85,2084.47 6237.85,2055.34 C6237.85,2035.81 6221.3,2024.89 6200.77,2024.89 C6168.67,2024.89 6130.27,2052.03 6130.27,2082.48"/>
<path class="Note" d="M7284.9,966.341 C7284.9,980.574 7295.16,996.462 7321.98,996.462 C7356.4,996.462 7392.48,968.327 7392.48,939.199 C7392.48,919.67 7375.93,908.747 7355.41,908.747 C7323.3,908.747 7284.9,935.889 7284.9,966.341"/>
<path class="Note" d="M5729.27,2138.39 C5718.35,2138.39 5716.03,2129.45 5716.03,2126.47 C5716.03,2110.25 5771.64,2081.78 5787.2,2081.78 C5795.14,2081.78 5800.44,2086.42 5800.44,2093.7 C5800.44,2110.25 5744.5,2138.39 5729.27,2138.39 M5774.95,2066.23 C5742.84,2066.23 5704.45,2093.04 5704.45,2123.82 C5704.45,2138.05 5714.71,2153.94 5741.52,2153.94 C5775.94,2153.94 5812.02,2125.81 5812.02,2096.68 C5812.02,2077.15 5795.47,2066.23 5774.95,2066.23"/>
<path class="Note" d="M5393.36,2138.39 C5382.44,2138.39 5380.12,2129.45 5380.12,2126.47 C5380.12,2110.25 5435.73,2081.78 5451.29,2081.78 C5459.23,2081.78 5464.53,2086.42 5464.53,2093.7 C5464.53,2110.25 5408.59,2138.39 5393.36,2138.39 M5439.04,2066.23 C5406.93,2066.23 5368.54,2093.04 5368.54,2123.82 C5368.54,2138.05 5378.8,2153.94 5405.61,2153.94 C5440.03,2153.94 5476.11,2125.81 5476.11,2096.68 C5476.11,2077.15 5459.56,2066.23 5439.04,2066.23"/>
<path class="Note" d="M7951.88,3736.03 C7951.88,3750.26 7962.14,3766.15 7988.95,3766.15 C8023.38,3766.15 8059.45,3738.01 8059.45,3708.88 C8059.45,3689.36 8042.9,3678.43 8022.38,3678.43 C7990.28,3678.43 7951.88,3705.57 7951.88,3736.03"/>
<path class="Note" d="M7493.34,966.341 C7493.34,980.574 7503.6,996.462 7530.41,996.462 C7564.84,996.462 7600.91,968.327 7600.91,939.199 C7600.91,919.67 7584.36,908.747 7563.84,908.747 C7531.74,908.747 7493.34,935.889 7493.34,966.341"/>
<path class="Note" d="M4417.37,1255.71 C4417.37,1269.94 4427.63,1285.83 4454.44,1285.83 C4488.87,1285.83 4524.95,1257.7 4524.95,1228.57 C4524.95,1209.04 4508.4,1198.12 4487.88,1198.12 C4455.77,1198.12 4417.37,1225.26 4417.37,1255.71"/>
<path class="Note" d="M1318.19,3529.33 C1318.19,3543.57 1328.45,3559.45 1355.26,3559.45 C1389.69,3559.45 1425.77,3531.32 1425.77,3502.19 C1425.77,3482.66 1409.22,3471.74 1388.7,3471.74 C1356.59,3471.74 1318.19,3498.88 1318.19,3529.33"/>
<path class="Note" d="M5018.8,2123.82 C5018.8,2138.05 5029.06,2153.94 5055.87,2153.94 C5090.3,2153.94 5126.37,2125.81 5126.37,2096.68 C5126.37,2077.15 5109.82,2066.23 5089.3,2066.23 C5057.2,2066.23 5018.8,2093.37 5018.8,2123.82"/>
<path class="Note" d="M1560.08,3570.67 C1560.08,3584.91 1570.34,3600.79 1597.15,3600.79 C1631.57,3600.79 1667.65,3572.66 1667.65,3543.53 C1667.65,3524 1651.1,3513.08 1630.58,3513.08 C1598.47,3513.08 1560.08,3540.22 1560.08,3570.67"/>
<path class="Note" d="M4794.86,2082.48 C4794.86,2096.72 4805.12,2112.6 4831.93,2112.6 C4866.36,2112.6 4902.43,2084.47 4902.43,2055.34 C4902.43,2035.81 4885.88,2024.89 4865.36,2024.89 C4833.26,2024.89 4794.86,2052.03 4794.86,2082.48"/>
<path class="Note" d="M1801.97,3612.01 C1801.97,3626.24 1812.23,3642.13 1839.04,3642.13 C1873.46,3642.13 1909.54,3614 1909.54,3584.87 C1909.54,3565.34 1892.99,3554.42 1872.47,3554.42 C1840.36,3554.42 1801.97,3581.56 1801.97,3612.01"/>
<path class="Note" d="M4570.92,2041.14 C4570.92,2055.38 4581.18,2071.27 4607.99,2071.27 C4642.42,2071.27 4678.49,2043.13 4678.49,2014 C4678.49,1994.47 4661.94,1983.55 4641.42,1983.55 C4609.32,1983.55 4570.92,2010.69 4570.92,2041.14"/>
<path class="Note" d="M2043.85,3653.35 C2043.85,3667.58 2054.11,3683.47 2080.92,3683.47 C2115.35,3683.47 2151.43,3655.34 2151.43,3626.21 C2151.43,3606.68 2134.88,3595.76 2114.35,3595.76 C2082.25,3595.76 2043.85,3622.9 2043.85,3653.35"/>
<path class="Note" d="M4346.98,1958.47 C4346.98,1972.7 4357.24,1988.59 4384.05,1988.59 C4418.48,1988.59 4454.56,1960.45 4454.56,1931.33 C4454.56,1911.8 4438.01,1900.87 4417.48,1900.87 C4385.38,1900.87 4346.98,1928.02 4346.98,1958.47"/>
<path class="Note" d="M2285.74,3694.69 C2285.74,3708.92 2296,3724.81 2322.81,3724.81 C2357.23,3724.81 2393.31,3696.67 2393.31,3667.55 C2393.31,3648.02 2376.76,3637.09 2356.24,3637.09 C2324.13,3637.09 2285.74,3664.24 2285.74,3694.69"/>
<path class="Note" d="M4123.04,1999.81 C4123.04,2014.04 4133.3,2029.93 4160.11,2029.93 C4194.54,2029.93 4230.62,2001.79 4230.62,1972.66 C4230.62,1953.14 4214.07,1942.21 4193.54,1942.21 C4161.44,1942.21 4123.04,1969.35 4123.04,1999.81"/>
<path class="Note" d="M2527.62,3736.03 C2527.62,3750.26 2537.89,3766.15 2564.7,3766.15 C2599.12,3766.15 2635.2,3738.01 2635.2,3708.88 C2635.2,3689.36 2618.65,3678.43 2598.13,3678.43 C2566.02,3678.43 2527.62,3705.57 2527.62,3736.03"/>
<path class="Note" d="M3899.1,2041.14 C3899.1,2055.38 3909.36,2071.27 3936.17,2071.27 C3970.6,2071.27 4006.68,2043.13 4006.68,2014 C4006.68,1994.47 3990.13,1983.55 3969.6,1983.55 C3937.5,1983.55 3899.1,2010.69 3899.1,2041.14"/>
<path class="Note" d="M1966.71,1338.39 C1966.71,1352.62 1976.98,1368.51 2003.79,1368.51 C2038.21,1368.51 2074.29,1340.37 2074.29,1311.25 C2074.29,1291.72 2057.74,1280.79 2037.22,1280.79 C2005.11,1280.79 1966.71,1307.94 1966.71,1338.39"/>
<path class="Note" d="M4625.81,1131.7 C4625.81,1145.93 4636.07,1161.82 4662.88,1161.82 C4697.3,1161.82 4733.38,1133.68 4733.38,1104.55 C4733.38,1085.02 4716.83,1074.1 4696.31,1074.1 C4664.2,1074.1 4625.81,1101.24 4625.81,1131.7"/>
<path class="Note" d="M2912.56,3791.93 C2901.64,3791.93 2899.32,3782.99 2899.32,3780.01 C2899.32,3763.79 2954.93,3735.33 2970.49,3735.33 C2978.43,3735.33 2983.73,3739.96 2983.73,3747.24 C2983.73,3763.79 2927.79,3791.93 2912.56,3791.93 M2958.24,3719.77 C2926.14,3719.77 2887.74,3746.58 2887.74,3777.37 C2887.74,3791.6 2898,3807.49 2924.81,3807.49 C2959.24,3807.49 2995.31,3779.35 2995.31,3750.22 C2995.31,3730.69 2978.76,3719.77 2958.24,3719.77"/>
<path class="Note" d="M7790.62,3694.69 C7790.62,3708.92 7800.88,3724.81 7827.69,3724.81 C7862.12,3724.81 7898.2,3696.67 7898.2,3667.55 C7898.2,3648.02 7881.65,3637.09 7861.12,3637.09 C7829.02,3637.09 7790.62,3664.24 7790.62,3694.69"/>
<path class="Note" d="M3549.36,2082.48 C3549.36,2096.72 3559.62,2112.6 3586.43,2112.6 C3620.86,2112.6 3656.94,2084.47 3656.94,2055.34 C3656.94,2035.81 3640.39,2024.89 3619.87,2024.89 C3587.76,2024.89 3549.36,2052.03 3549.36,2082.48"/>
<path class="Note" d="M3238.28,2138.39 C3227.35,2138.39 3225.04,2129.45 3225.04,2126.47 C3225.04,2110.25 3280.65,2081.78 3296.2,2081.78 C3304.15,2081.78 3309.44,2086.42 3309.44,2093.7 C3309.44,2110.25 3253.5,2138.39 3238.28,2138.39 M3283.96,2066.23 C3251.85,2066.23 3213.45,2093.04 3213.45,2123.82 C3213.45,2138.05 3223.71,2153.94 3250.52,2153.94 C3284.95,2153.94 3321.03,2125.81 3321.03,2096.68 C3321.03,2077.15 3304.48,2066.23 3283.96,2066.23"/>
<path class="Note" d="M3372.51,3874.61 C3361.59,3874.61 3359.27,3865.67 3359.27,3862.69 C3359.27,3846.47 3414.88,3818.01 3430.44,3818.01 C3438.38,3818.01 3443.68,3822.64 3443.68,3829.92 C3443.68,3846.47 3387.74,3874.61 3372.51,3874.61 M3418.19,3802.45 C3386.09,3802.45 3347.69,3829.26 3347.69,3860.04 C3347.69,3874.28 3357.95,3890.16 3384.76,3890.16 C3419.19,3890.16 3455.26,3862.03 3455.26,3832.9 C3455.26,3813.37 3438.71,3802.45 3418.19,3802.45"/>
<path class="Note" d="M7701.78,1007.68 C7701.78,1021.91 7712.04,1037.8 7738.85,1037.8 C7773.27,1037.8 7809.35,1009.67 7809.35,980.538 C7809.35,961.009 7792.8,950.086 7772.28,950.086 C7740.17,950.086 7701.78,977.228 7701.78,1007.68"/>
<path class="Note" d="M3710.52,3570.67 C3710.52,3584.91 3720.78,3600.79 3747.59,3600.79 C3782.01,3600.79 3818.09,3572.66 3818.09,3543.53 C3818.09,3524 3801.54,3513.08 3781.02,3513.08 C3748.91,3513.08 3710.52,3540.22 3710.52,3570.67"/>
<path class="Note" d="M2812.45,1849.02 C2801.53,1849.02 2799.21,1840.08 2799.21,1837.1 C2799.21,1820.88 2854.82,1792.41 2870.38,1792.41 C2878.32,1792.41 2883.62,1797.05 2883.62,1804.33 C2883.62,1820.88 2827.68,1849.02 2812.45,1849.02 M2858.13,1776.86 C2826.03,1776.86 2787.63,1803.67 2787.63,1834.45 C2787.63,1848.68 2797.89,1864.57 2824.7,1864.57 C2859.13,1864.57 2895.2,1836.44 2895.2,1807.31 C2895.2,1787.78 2878.65,1776.86 2858.13,1776.86"/>
<path class="Note" d="M4834.25,1049.02 C4834.25,1063.25 4844.51,1079.14 4871.32,1079.14 C4905.74,1079.14 4941.82,1051 4941.82,1021.88 C4941.82,1002.35 4925.27,991.425 4904.75,991.425 C4872.64,991.425 4834.25,1018.57 4834.25,1049.02"/>
<path class="Note" d="M2437.89,1999.81 C2437.89,2014.04 2448.15,2029.93 2474.96,2029.93 C2509.39,2029.93 2545.47,2001.79 2545.47,1972.66 C2545.47,1953.14 2528.92,1942.21 2508.39,1942.21 C2476.29,1942.21 2437.89,1969.35 2437.89,1999.81"/>
<path class="Note" d="M4070.63,3529.33 C4070.63,3543.57 4080.89,3559.45 4107.71,3559.45 C4142.13,3559.45 4178.21,3531.32 4178.21,3502.19 C4178.21,3482.66 4161.66,3471.74 4141.14,3471.74 C4109.03,3471.74 4070.63,3498.88 4070.63,3529.33"/>
<path class="Note" d="M2213.95,1958.47 C2213.95,1972.7 2224.21,1988.59 2251.02,1988.59 C2285.45,1988.59 2321.53,1960.45 2321.53,1931.33 C2321.53,1911.8 2304.98,1900.87 2284.45,1900.87 C2252.35,1900.87 2213.95,1928.02 2213.95,1958.47"/>
<path class="Note" d="M4312.52,3487.99 C4312.52,3502.23 4322.78,3518.12 4349.59,3518.12 C4384.02,3518.12 4420.1,3489.98 4420.1,3460.85 C4420.1,3441.32 4403.55,3430.4 4383.02,3430.4 C4350.92,3430.4 4312.52,3457.54 4312.52,3487.99"/>
<path class="Note" d="M1990.01,1917.13 C1990.01,1931.36 2000.27,1947.25 2027.08,1947.25 C2061.51,1947.25 2097.59,1919.11 2097.59,1889.99 C2097.59,1870.46 2081.04,1859.53 2060.51,1859.53 C2028.41,1859.53 1990.01,1886.68 1990.01,1917.13"/>
<path class="Note" d="M4554.41,3446.66 C4554.41,3460.89 4564.67,3476.78 4591.48,3476.78 C4625.9,3476.78 4661.98,3448.64 4661.98,3419.51 C4661.98,3399.99 4645.43,3389.06 4624.91,3389.06 C4592.8,3389.06 4554.41,3416.2 4554.41,3446.66"/>
<path class="Note" d="M1766.07,1917.13 C1766.07,1931.36 1776.33,1947.25 1803.14,1947.25 C1837.57,1947.25 1873.65,1919.11 1873.65,1889.99 C1873.65,1870.46 1857.1,1859.53 1836.57,1859.53 C1804.47,1859.53 1766.07,1886.68 1766.07,1917.13"/>
<path class="Note" d="M4821.12,3502.56 C4810.2,3502.56 4807.88,3493.62 4807.88,3490.64 C4807.88,3474.42 4863.49,3445.96 4879.04,3445.96 C4886.99,3445.96 4892.28,3450.59 4892.28,3457.87 C4892.28,3474.42 4836.34,3502.56 4821.12,3502.56 M4866.8,3430.4 C4834.69,3430.4 4796.29,3457.21 4796.29,3487.99 C4796.29,3502.23 4806.55,3518.12 4833.37,3518.12 C4867.79,3518.12 4903.87,3489.98 4903.87,3460.85 C4903.87,3441.32 4887.32,3430.4 4866.8,3430.4"/>
<path class="Note" d="M1542.13,1958.47 C1542.13,1972.7 1552.39,1988.59 1579.2,1988.59 C1613.63,1988.59 1649.71,1960.45 1649.71,1931.33 C1649.71,1911.8 1633.16,1900.87 1612.63,1900.87 C1580.53,1900.87 1542.13,1928.02 1542.13,1958.47"/>
<path class="Note" d="M5159.12,3446.66 C5159.12,3460.89 5169.38,3476.78 5196.2,3476.78 C5230.62,3476.78 5266.7,3448.64 5266.7,3419.51 C5266.7,3399.99 5250.15,3389.06 5229.63,3389.06 C5197.52,3389.06 5159.12,3416.2 5159.12,3446.66"/>
<path class="Note" d="M1318.19,1999.81 C1318.19,2014.04 1328.45,2029.93 1355.26,2029.93 C1389.69,2029.93 1425.77,2001.79 1425.77,1972.66 C1425.77,1953.14 1409.22,1942.21 1388.7,1942.21 C1356.59,1942.21 1318.19,1969.35 1318.19,1999.81"/>
<path class="Note" d="M1501.09,1338.39 C1501.09,1352.62 1511.35,1368.51 1538.16,1368.51 C1572.59,1368.51 1608.67,1340.37 1608.67,1311.25 C1608.67,1291.72 1592.12,1280.79 1571.59,1280.79 C1539.49,1280.79 1501.09,1307.94 1501.09,1338.39"/>
<path class="Note" d="M7452.62,3667.91 C7441.69,3667.91 7439.38,3658.98 7439.38,3656 C7439.38,3639.78 7494.98,3611.31 7510.54,3611.31 C7518.49,3611.31 7523.78,3615.95 7523.78,3623.23 C7523.78,3639.78 7467.84,3667.91 7452.62,3667.91 M7498.29,3595.76 C7466.19,3595.76 7427.79,3622.57 7427.79,3653.35 C7427.79,3667.58 7438.05,3683.47 7464.86,3683.47 C7499.29,3683.47 7535.37,3655.34 7535.37,3626.21 C7535.37,3606.68 7518.82,3595.76 7498.29,3595.76"/>
<path class="Note" d="M5544.06,3461.22 C5533.14,3461.22 5530.82,3452.28 5530.82,3449.3 C5530.82,3433.09 5586.43,3404.62 5601.99,3404.62 C5609.93,3404.62 5615.23,3409.25 5615.23,3416.54 C5615.23,3433.09 5559.29,3461.22 5544.06,3461.22 M5589.74,3389.06 C5557.63,3389.06 5519.24,3415.87 5519.24,3446.66 C5519.24,3460.89 5529.5,3476.78 5556.31,3476.78 C5590.73,3476.78 5626.81,3448.64 5626.81,3419.51 C5626.81,3399.99 5610.26,3389.06 5589.74,3389.06"/>
<path class="Note" d="M7910.21,1049.02 C7910.21,1063.25 7920.47,1079.14 7947.29,1079.14 C7981.71,1079.14 8017.79,1051 8017.79,1021.88 C8017.79,1002.35 8001.24,991.425 7980.72,991.425 C7948.61,991.425 7910.21,1018.57 7910.21,1049.02"/>
<path class="Note" d="M5906.89,3461.22 C5895.97,3461.22 5893.65,3452.28 5893.65,3449.3 C5893.65,3433.09 5949.26,3404.62 5964.82,3404.62 C5972.76,3404.62 5978.06,3409.25 5978.06,3416.54 C5978.06,3433.09 5922.12,3461.22 5906.89,3461.22 M5952.57,3389.06 C5920.46,3389.06 5882.07,3415.87 5882.07,3446.66 C5882.07,3460.89 5892.33,3476.78 5919.14,3476.78 C5953.56,3476.78 5989.64,3448.64 5989.64,3419.51 C5989.64,3399.99 5973.09,3389.06 5952.57,3389.06"/>
<path class="Note" d="M7185.91,3570.67 C7185.91,3584.91 7196.17,3600.79 7222.98,3600.79 C7257.4,3600.79 7293.48,3572.66 7293.48,3543.53 C7293.48,3524 7276.93,3513.08 7256.41,3513.08 C7224.3,3513.08 7185.91,3540.22 7185.91,3570.67"/>
<path class="Note" d="M5042.68,1049.02 C5042.68,1063.25 5052.94,1079.14 5079.75,1079.14 C5114.18,1079.14 5150.26,1051 5150.26,1021.88 C5150.26,1002.35 5133.71,991.425 5113.19,991.425 C5081.08,991.425 5042.68,1018.57 5042.68,1049.02"/>
<path class="Note" d="M6342.02,3694.69 C6342.02,3708.92 6352.28,3724.81 6379.09,3724.81 C6413.51,3724.81 6449.59,3696.67 6449.59,3667.55 C6449.59,3648.02 6433.04,3637.09 6412.52,3637.09 C6380.41,3637.09 6342.02,3664.24 6342.02,3694.69"/>
<path class="Note" d="M8968.95,1173.03 C8968.95,1187.27 8979.21,1203.16 9006.02,1203.16 C9040.45,1203.16 9076.52,1175.02 9076.52,1145.89 C9076.52,1126.36 9059.97,1115.44 9039.45,1115.44 C9007.35,1115.44 8968.95,1142.58 8968.95,1173.03"/>
<path class="Note" d="M8681.12,1228.94 C8670.2,1228.94 8667.88,1220 8667.88,1217.02 C8667.88,1200.8 8723.49,1172.34 8739.04,1172.34 C8746.99,1172.34 8752.28,1176.97 8752.28,1184.25 C8752.28,1200.8 8696.35,1228.94 8681.12,1228.94 M8726.8,1156.78 C8694.69,1156.78 8656.29,1183.59 8656.29,1214.37 C8656.29,1228.61 8666.56,1244.49 8693.37,1244.49 C8727.79,1244.49 8763.87,1216.36 8763.87,1187.23 C8763.87,1167.7 8747.32,1156.78 8726.8,1156.78"/>
<path class="Note" d="M5251.12,1007.68 C5251.12,1021.91 5261.38,1037.8 5288.19,1037.8 C5322.61,1037.8 5358.69,1009.67 5358.69,980.538 C5358.69,961.009 5342.14,950.086 5321.62,950.086 C5289.51,950.086 5251.12,977.228 5251.12,1007.68"/>
<path class="Note" d="M6702.13,3653.35 C6702.13,3667.58 6712.39,3683.47 6739.2,3683.47 C6773.63,3683.47 6809.71,3655.34 6809.71,3626.21 C6809.71,3606.68 6793.16,3595.76 6772.64,3595.76 C6740.53,3595.76 6702.13,3622.9 6702.13,3653.35"/>
<path class="Note" d="M8284.78,939.567 C8273.85,939.567 8271.54,930.63 8271.54,927.651 C8271.54,911.432 8327.14,882.966 8342.7,882.966 C8350.64,882.966 8355.94,887.6 8355.94,894.882 C8355.94,911.432 8300,939.567 8284.78,939.567 M8330.45,867.409 C8298.35,867.409 8259.95,894.22 8259.95,925.003 C8259.95,939.236 8270.21,955.124 8297.02,955.124 C8331.45,955.124 8367.53,926.989 8367.53,897.861 C8367.53,878.332 8350.98,867.409 8330.45,867.409"/>
<path class="Note" d="M3008.9,1049.02 C3008.9,1063.25 3019.16,1079.14 3045.97,1079.14 C3080.39,1079.14 3116.47,1051 3116.47,1021.88 C3116.47,1002.35 3099.92,991.425 3079.4,991.425 C3047.29,991.425 3008.9,1018.57 3008.9,1049.02"/>
<path class="Clef" d="M909.689,2012.75 C903.069,2014.08 896.78,2014.74 890.491,2014.74 C843.158,2014.74 802.776,1981.64 802.776,1931.66 C802.776,1891.27 831.242,1855.2 860.37,1830.04 C865.997,1825.07 871.293,1820.44 876.258,1815.48 C879.237,1833.35 881.554,1848.91 883.871,1862.48 C853.75,1871.41 833.228,1903.19 833.228,1934.3 C833.228,1957.47 851.433,1989.25 877.913,1989.25 C880.561,1989.25 883.54,1987.93 883.54,1984.95 C883.54,1981.97 880.23,1980.31 876.258,1977.67 C863.349,1969.72 856.067,1961.12 856.067,1944.9 C856.067,1924.71 870.962,1908.49 890.491,1903.85 L909.689,2012.75 M880.561,1672.48 C883.54,1659.24 898.766,1624.49 915.978,1624.49 C920.943,1624.49 928.887,1640.71 928.887,1663.55 C928.887,1697.97 903.4,1723.79 880.561,1746.3 C878.575,1733.06 876.92,1720.15 876.92,1706.25 C876.92,1694 877.913,1682.74 880.561,1672.48 M956.691,1951.52 C956.691,1975.02 947.092,1999.18 923.591,2008.78 C916.64,1969.06 907.703,1916.43 905.386,1901.87 C935.176,1901.87 956.691,1922.06 956.691,1951.52 M811.051,2114.37 C811.051,2136.21 827.932,2165.01 872.617,2165.01 C888.174,2165.01 901.745,2161.04 913.661,2153.76 C931.535,2141.18 936.169,2119.33 936.169,2098.48 C936.169,2085.57 934.183,2070.68 930.873,2051.81 C929.88,2045.19 927.894,2035.26 925.908,2022.35 C958.346,2011.76 982.509,1978 982.509,1943.9 C982.509,1893.92 947.092,1860.16 898.766,1860.16 C895.456,1840.3 892.146,1820.77 889.167,1802.24 C924.253,1765.49 948.416,1724.12 948.416,1671.49 C948.416,1641.37 939.148,1616.88 933.852,1604.96 C925.908,1588.08 916.309,1576.49 910.351,1576.49 C908.034,1576.49 897.773,1580.47 886.85,1593.37 C865.666,1618.53 859.708,1660.9 859.708,1688.7 C859.708,1706.58 861.363,1722.8 866.99,1759.87 C866.659,1760.2 849.447,1777.74 842.496,1783.37 C812.375,1811.5 770.669,1851.55 770.669,1917.75 C770.669,1979.65 824.622,2028.31 886.188,2028.31 C895.787,2028.31 904.724,2027.32 912.337,2025.99 C918.626,2057.77 922.267,2080.94 922.267,2098.48 C922.267,2132.9 904.724,2151.11 871.293,2151.11 C863.349,2151.11 856.398,2149.45 855.736,2149.45 C855.405,2149.12 854.743,2148.79 854.743,2148.46 C854.743,2147.8 855.405,2147.47 856.398,2147.14 C871.955,2144.82 887.512,2131.58 887.512,2110.4 C887.512,2092.52 873.941,2073.66 849.116,2073.66 C825.946,2073.66 811.051,2092.52 811.051,2114.37"/>
<path class="Clef" d="M909.689,3748.97 C903.069,3750.3 896.78,3750.96 890.491,3750.96 C843.158,3750.96 802.776,3717.86 802.776,3667.88 C802.776,3627.49 831.242,3591.42 860.37,3566.26 C865.997,3561.29 871.293,3556.66 876.258,3551.7 C879.237,3569.57 881.554,3585.13 883.871,3598.7 C853.75,3607.63 833.228,3639.41 833.228,3670.52 C833.228,3693.69 851.433,3725.47 877.913,3725.47 C880.561,3725.47 883.54,3724.15 883.54,3721.17 C883.54,3718.19 880.23,3716.53 876.258,3713.89 C863.349,3705.94 856.067,3697.34 856.067,3681.12 C856.067,3660.93 870.962,3644.71 890.491,3640.07 L909.689,3748.97 M880.561,3408.7 C883.54,3395.46 898.766,3360.71 915.978,3360.71 C920.943,3360.71 928.887,3376.93 928.887,3399.77 C928.887,3434.19 903.4,3460.01 880.561,3482.52 C878.575,3469.28 876.92,3456.37 876.92,3442.47 C876.92,3430.22 877.913,3418.96 880.561,3408.7 M956.691,3687.74 C956.691,3711.24 947.092,3735.4 923.591,3745 C916.64,3705.28 907.703,3652.65 905.386,3638.09 C935.176,3638.09 956.691,3658.28 956.691,3687.74 M811.051,3850.59 C811.051,3872.43 827.932,3901.23 872.617,3901.23 C888.174,3901.23 901.745,3897.26 913.661,3889.98 C931.535,3877.4 936.169,3855.55 936.169,3834.7 C936.169,3821.79 934.183,3806.9 930.873,3788.03 C929.88,3781.41 927.894,3771.48 925.908,3758.57 C958.346,3747.98 982.509,3714.22 982.509,3680.12 C982.509,3630.14 947.092,3596.38 898.766,3596.38 C895.456,3576.52 892.146,3556.99 889.167,3538.46 C924.253,3501.71 948.416,3460.34 948.416,3407.71 C948.416,3377.59 939.148,3353.1 933.852,3341.18 C925.908,3324.3 916.309,3312.71 910.351,3312.71 C908.034,3312.71 897.773,3316.69 886.85,3329.59 C865.666,3354.75 859.708,3397.12 859.708,3424.92 C859.708,3442.8 861.363,3459.02 866.99,3496.09 C866.659,3496.42 849.447,3513.96 842.496,3519.59 C812.375,3547.72 770.669,3587.77 770.669,3653.97 C770.669,3715.87 824.622,3764.53 886.188,3764.53 C895.787,3764.53 904.724,3763.54 912.337,3762.21 C918.626,3793.99 922.267,3817.16 922.267,3834.7 C922.267,3869.12 904.724,3887.33 871.293,3887.33 C863.349,3887.33 856.398,3885.67 855.736,3885.67 C855.405,3885.34 854.743,3885.01 854.743,3884.68 C854.743,3884.02 855.405,3883.69 856.398,3883.36 C871.955,3881.04 887.512,3867.8 887.512,3846.62 C887.512,3828.74 873.941,3809.88 849.116,3809.88 C825.946,3809.88 811.051,3828.74 811.051,3850.59"/>
<path class="Clef" d="M909.689,1144.64 C903.069,1145.97 896.78,1146.63 890.491,1146.63 C843.158,1146.63 802.776,1113.53 802.776,1063.55 C802.776,1023.16 831.242,987.085 860.37,961.929 C865.997,956.964 871.293,952.33 876.258,947.365 C879.237,965.239 881.554,980.796 883.871,994.367 C853.75,1003.3 833.228,1035.08 833.228,1066.19 C833.228,1089.36 851.433,1121.14 877.913,1121.14 C880.561,1121.14 883.54,1119.82 883.54,1116.84 C883.54,1113.86 880.23,1112.2 876.258,1109.56 C863.349,1101.61 856.067,1093.01 856.067,1076.79 C856.067,1056.6 870.962,1040.38 890.491,1035.74 L909.689,1144.64 M880.561,804.373 C883.54,791.133 898.766,756.378 915.978,756.378 C920.943,756.378 928.887,772.597 928.887,795.436 C928.887,829.86 903.4,855.678 880.561,878.186 C878.575,864.946 876.92,852.037 876.92,838.135 C876.92,825.888 877.913,814.634 880.561,804.373 M956.691,1083.41 C956.691,1106.91 947.092,1131.07 923.591,1140.67 C916.64,1100.95 907.703,1048.32 905.386,1033.76 C935.176,1033.76 956.691,1053.95 956.691,1083.41 M811.051,1246.26 C811.051,1268.1 827.932,1296.9 872.617,1296.9 C888.174,1296.9 901.745,1292.93 913.661,1285.65 C931.535,1273.07 936.169,1251.22 936.169,1230.37 C936.169,1217.46 934.183,1202.57 930.873,1183.7 C929.88,1177.08 927.894,1167.15 925.908,1154.24 C958.346,1143.65 982.509,1109.89 982.509,1075.79 C982.509,1025.81 947.092,992.05 898.766,992.05 C895.456,972.19 892.146,952.661 889.167,934.125 C924.253,897.384 948.416,856.009 948.416,803.38 C948.416,773.259 939.148,748.765 933.852,736.849 C925.908,719.968 916.309,708.383 910.351,708.383 C908.034,708.383 897.773,712.355 886.85,725.264 C865.666,750.42 859.708,792.788 859.708,820.592 C859.708,838.466 861.363,854.685 866.99,891.757 C866.659,892.088 849.447,909.631 842.496,915.258 C812.375,943.393 770.669,983.444 770.669,1049.64 C770.669,1111.54 824.622,1160.2 886.188,1160.2 C895.787,1160.2 904.724,1159.21 912.337,1157.88 C918.626,1189.66 922.267,1212.83 922.267,1230.37 C922.267,1264.79 904.724,1283 871.293,1283 C863.349,1283 856.398,1281.34 855.736,1281.34 C855.405,1281.01 854.743,1280.68 854.743,1280.35 C854.743,1279.69 855.405,1279.36 856.398,1279.03 C871.955,1276.71 887.512,1263.47 887.512,1242.29 C887.512,1224.41 873.941,1205.55 849.116,1205.55 C825.946,1205.55 811.051,1224.41 811.051,1246.26"/>
<path class="Clef" d="M909.689,2880.86 C903.069,2882.19 896.78,2882.85 890.491,2882.85 C843.158,2882.85 802.776,2849.75 802.776,2799.77 C802.776,2759.38 831.242,2723.31 860.37,2698.15 C865.997,2693.18 871.293,2688.55 876.258,2683.59 C879.237,2701.46 881.554,2717.02 883.871,2730.59 C853.75,2739.52 833.228,2771.3 833.228,2802.41 C833.228,2825.58 851.433,2857.36 877.913,2857.36 C880.561,2857.36 883.54,2856.04 883.54,2853.06 C883.54,2850.08 880.23,2848.42 876.258,2845.78 C863.349,2837.83 856.067,2829.23 856.067,2813.01 C856.067,2792.82 870.962,2776.6 890.491,2771.96 L909.689,2880.86 M880.561,2540.59 C883.54,2527.35 898.766,2492.6 915.978,2492.6 C920.943,2492.6 928.887,2508.82 928.887,2531.66 C928.887,2566.08 903.4,2591.9 880.561,2614.41 C878.575,2601.17 876.92,2588.26 876.92,2574.36 C876.92,2562.11 877.913,2550.85 880.561,2540.59 M956.691,2819.63 C956.691,2843.13 947.092,2867.29 923.591,2876.89 C916.64,2837.17 907.703,2784.54 905.386,2769.98 C935.176,2769.98 956.691,2790.17 956.691,2819.63 M811.051,2982.48 C811.051,3004.32 827.932,3033.12 872.617,3033.12 C888.174,3033.12 901.745,3029.15 913.661,3021.87 C931.535,3009.29 936.169,2987.44 936.169,2966.59 C936.169,2953.68 934.183,2938.79 930.873,2919.92 C929.88,2913.3 927.894,2903.37 925.908,2890.46 C958.346,2879.87 982.509,2846.11 982.509,2812.01 C982.509,2762.03 947.092,2728.27 898.766,2728.27 C895.456,2708.41 892.146,2688.88 889.167,2670.35 C924.253,2633.6 948.416,2592.23 948.416,2539.6 C948.416,2509.48 939.148,2484.99 933.852,2473.07 C925.908,2456.19 916.309,2444.6 910.351,2444.6 C908.034,2444.6 897.773,2448.58 886.85,2461.48 C865.666,2486.64 859.708,2529.01 859.708,2556.81 C859.708,2574.69 861.363,2590.91 866.99,2627.98 C866.659,2628.31 849.447,2645.85 842.496,2651.48 C812.375,2679.61 770.669,2719.66 770.669,2785.86 C770.669,2847.76 824.622,2896.42 886.188,2896.42 C895.787,2896.42 904.724,2895.43 912.337,2894.1 C918.626,2925.88 922.267,2949.05 922.267,2966.59 C922.267,3001.01 904.724,3019.22 871.293,3019.22 C863.349,3019.22 856.398,3017.56 855.736,3017.56 C855.405,3017.23 854.743,3016.9 854.743,3016.57 C854.743,3015.91 855.405,3015.58 856.398,3015.25 C871.955,3012.93 887.512,2999.69 887.512,2978.51 C887.512,2960.63 873.941,2941.77 849.116,2941.77 C825.946,2941.77 811.051,2960.63 811.051,2982.48"/>
<path class="KeySig" d="M1088.05,1848.65 C1088.05,1874.8 1074.48,1888.7 1055.28,1903.93 L1056.27,1839.38 C1056.93,1836.4 1061.9,1826.8 1075.14,1826.8 C1087.06,1826.8 1088.05,1838.06 1088.05,1845.01 L1088.05,1848.65 M1084.08,1810.58 C1067.53,1810.58 1057.93,1820.84 1056.27,1822.83 L1057.6,1716.58 C1057.6,1713.93 1055.61,1711.95 1052.96,1711.95 L1048.99,1711.95 C1046.34,1711.95 1044.36,1713.93 1044.36,1716.58 L1046.01,1915.51 C1046.01,1918.16 1048,1920.14 1050.65,1920.14 C1051.31,1920.14 1052.63,1919.81 1053.29,1919.48 C1081.76,1905.25 1111.55,1878.11 1111.55,1844.01 C1111.55,1826.8 1103.61,1810.58 1084.08,1810.58"/>
<path class="KeySig" d="M1088.05,3584.87 C1088.05,3611.02 1074.48,3624.92 1055.28,3640.15 L1056.27,3575.6 C1056.93,3572.62 1061.9,3563.02 1075.14,3563.02 C1087.06,3563.02 1088.05,3574.28 1088.05,3581.23 L1088.05,3584.87 M1084.08,3546.8 C1067.53,3546.8 1057.93,3557.06 1056.27,3559.05 L1057.6,3452.8 C1057.6,3450.15 1055.61,3448.17 1052.96,3448.17 L1048.99,3448.17 C1046.34,3448.17 1044.36,3450.15 1044.36,3452.8 L1046.01,3651.73 C1046.01,3654.38 1048,3656.36 1050.65,3656.36 C1051.31,3656.36 1052.63,3656.03 1053.29,3655.7 C1081.76,3641.47 1111.55,3614.33 1111.55,3580.23 C1111.55,3563.02 1103.61,3546.8 1084.08,3546.8"/>
<path class="KeySig" d="M1088.05,2716.76 C1088.05,2742.91 1074.48,2756.81 1055.28,2772.04 L1056.27,2707.49 C1056.93,2704.51 1061.9,2694.91 1075.14,2694.91 C1087.06,2694.91 1088.05,2706.17 1088.05,2713.12 L1088.05,2716.76 M1084.08,2678.69 C1067.53,2678.69 1057.93,2688.95 1056.27,2690.94 L1057.6,2584.69 C1057.6,2582.04 1055.61,2580.06 1052.96,2580.06 L1048.99,2580.06 C1046.34,2580.06 1044.36,2582.04 1044.36,2584.69 L1046.01,2783.62 C1046.01,2786.27 1048,2788.25 1050.65,2788.25 C1051.31,2788.25 1052.63,2787.92 1053.29,2787.59 C1081.76,2773.36 1111.55,2746.22 1111.55,2712.12 C1111.55,2694.91 1103.61,2678.69 1084.08,2678.69"/>
<path class="KeySig" d="M1088.05,980.538 C1088.05,1006.69 1074.48,1020.59 1055.28,1035.82 L1056.27,971.27 C1056.93,968.291 1061.9,958.692 1075.14,958.692 C1087.06,958.692 1088.05,969.946 1088.05,976.897 L1088.05,980.538 M1084.08,942.473 C1067.53,942.473 1057.93,952.734 1056.27,954.72 L1057.6,848.469 C1057.6,845.821 1055.61,843.835 1052.96,843.835 L1048.99,843.835 C1046.34,843.835 1044.36,845.821 1044.36,848.469 L1046.01,1047.4 C1046.01,1050.05 1048,1052.03 1050.65,1052.03 C1051.31,1052.03 1052.63,1051.7 1053.29,1051.37 C1081.76,1037.14 1111.55,1010 1111.55,975.904 C1111.55,958.692 1103.61,942.473 1084.08,942.473"/>
<path class="TimeSig" d="M1268.31,979.772 C1257.38,979.772 1248.45,964.877 1248.45,946.341 C1248.45,927.805 1257.38,912.579 1268.31,912.579 C1279.23,912.579 1288.5,927.805 1288.5,946.341 C1288.5,964.877 1279.23,979.772 1268.31,979.772 M1280.55,897.022 C1260.36,897.022 1253.08,902.98 1248.45,907.945 C1247.45,900.994 1246.79,895.698 1246.79,890.402 C1246.79,871.535 1253.41,847.041 1276.58,847.041 C1284.86,847.041 1289.82,849.689 1293.13,853.33 C1286.18,856.309 1280.55,865.246 1280.55,872.859 C1280.55,884.775 1289.82,894.043 1301.74,894.043 C1313.65,894.043 1323.25,884.775 1323.25,872.859 L1323.25,871.866 C1323.25,868.887 1322.59,863.922 1321.27,861.274 C1316.96,849.358 1303.06,831.815 1269.96,831.815 C1240.17,831.815 1218.66,860.281 1212.04,875.507 C1208.73,883.451 1203.76,899.67 1203.76,918.206 C1203.76,938.397 1209.39,961.236 1228.92,978.448 C1248.11,993.012 1260.36,993.674 1271.95,993.674 C1283.53,993.674 1326.89,980.103 1326.89,941.707 C1326.89,909.269 1301.41,897.022 1280.55,897.022"/>
<path class="TimeSig" d="M1258.39,1118.01 L1258.39,1142.5 L1230.92,1142.5 C1228.6,1142.5 1226.29,1144.49 1226.29,1147.13 L1226.29,1153.42 C1226.29,1156.07 1228.6,1158.06 1230.92,1158.06 L1331.21,1158.06 C1333.86,1158.06 1335.85,1156.07 1335.85,1153.42 L1335.85,1147.13 C1335.85,1144.49 1333.86,1142.5 1331.21,1142.5 L1301.42,1142.5 L1301.42,1118.01 L1331.21,1118.01 C1333.86,1118.01 1335.85,1115.69 1335.85,1113.04 L1335.85,1106.75 C1335.85,1104.44 1333.86,1102.12 1331.21,1102.12 L1301.42,1102.12 L1301.42,1049.49 C1301.42,1047.5 1300.43,1045.85 1299.11,1045.19 L1295.13,1043.2 C1294.47,1042.87 1294.14,1042.87 1293.48,1042.87 C1292.16,1042.87 1290.83,1042.87 1289.84,1043.86 L1259.72,1071.34 C1258.72,1072.33 1258.39,1073.65 1258.39,1074.98 L1258.39,1102.12 L1220,1102.12 C1220,1102.12 1257.07,1062.4 1296.13,1010.1 C1297.45,1008.45 1297.78,1006.79 1297.78,1005.47 C1297.78,1003.81 1297.12,1002.49 1296.79,1002.16 L1289.51,994.874 C1288.51,994.212 1287.52,993.55 1286.2,993.55 C1284.21,993.55 1239.53,993.55 1236.88,993.55 C1234.56,993.55 1232.91,995.536 1232.58,997.522 C1232.58,997.522 1230.92,1022.02 1222.31,1048.83 C1213.71,1075.64 1203.78,1092.19 1195.17,1104.44 C1195.17,1104.44 1194.18,1106.09 1194.18,1108.08 C1194.18,1108.74 1194.18,1109.4 1194.51,1110.06 C1195.5,1112.38 1197.82,1116.02 1197.82,1116.02 C1197.82,1116.02 1198.48,1118.01 1201.46,1118.01 L1258.39,1118.01 "/>
<path class="Beam" fill-rule="evenodd" d="M7889.83,3411.93 L8059.36,3432.6 L8059.36,3474.25 L7889.83,3453.58 L7889.83,3411.93 "/>
<path class="NoteDot" d="M8408.78,869.762 C8408.78,879.03 8416.07,886.312 8425.33,886.312 C8434.6,886.312 8441.88,879.03 8441.88,869.762 C8441.88,860.494 8434.6,853.212 8425.33,853.212 C8416.07,853.212 8408.78,860.494 8408.78,869.762"/>
<path class="NoteDot" d="M6030.9,3391.42 C6030.9,3400.68 6038.18,3407.97 6047.45,3407.97 C6056.72,3407.97 6064,3400.68 6064,3391.42 C6064,3382.15 6056.72,3374.87 6047.45,3374.87 C6038.18,3374.87 6030.9,3382.15 6030.9,3391.42"/>
<path class="NoteDot" d="M2936.46,1820.55 C2936.46,1829.82 2943.74,1837.1 2953.01,1837.1 C2962.28,1837.1 2969.56,1829.82 2969.56,1820.55 C2969.56,1811.28 2962.28,1804 2953.01,1804 C2943.74,1804 2936.46,1811.28 2936.46,1820.55"/>
<path class="NoteDot" d="M3036.57,3722.12 C3036.57,3731.39 3043.85,3738.67 3053.12,3738.67 C3062.39,3738.67 3069.67,3731.39 3069.67,3722.12 C3069.67,3712.86 3062.39,3705.57 3053.12,3705.57 C3043.85,3705.57 3036.57,3712.86 3036.57,3722.12"/>
<path class="NoteDot" d="M5853.28,2068.58 C5853.28,2077.85 5860.56,2085.13 5869.83,2085.13 C5879.1,2085.13 5886.38,2077.85 5886.38,2068.58 C5886.38,2059.31 5879.1,2052.03 5869.83,2052.03 C5860.56,2052.03 5853.28,2059.31 5853.28,2068.58"/>
<path class="NoteDot" d="M8185.37,2771.34 C8185.37,2780.61 8192.66,2787.89 8201.92,2787.89 C8211.19,2787.89 8218.47,2780.61 8218.47,2771.34 C8218.47,2762.07 8211.19,2754.79 8201.92,2754.79 C8192.66,2754.79 8185.37,2762.07 8185.37,2771.34"/>
<path class="NoteDot" d="M3507.47,1117.79 C3507.47,1127.06 3514.75,1134.34 3524.02,1134.34 C3533.29,1134.34 3540.57,1127.06 3540.57,1117.79 C3540.57,1108.53 3533.29,1101.24 3524.02,1101.24 C3514.75,1101.24 3507.47,1108.53 3507.47,1117.79"/>
<path class="NoteDot" d="M8813.28,3722.12 C8813.28,3731.39 8820.56,3738.67 8829.83,3738.67 C8839.1,3738.67 8846.38,3731.39 8846.38,3722.12 C8846.38,3712.86 8839.1,3705.57 8829.83,3705.57 C8820.56,3705.57 8813.28,3712.86 8813.28,3722.12"/>
<path class="NoteDot" d="M5835.16,2771.34 C5835.16,2780.61 5842.44,2787.89 5851.71,2787.89 C5860.98,2787.89 5868.26,2780.61 5868.26,2771.34 C5868.26,2762.07 5860.98,2754.79 5851.71,2754.79 C5842.44,2754.79 5835.16,2762.07 5835.16,2771.34"/>
<path class="NoteDot" d="M5958.13,1035.12 C5958.13,1044.38 5965.41,1051.67 5974.68,1051.67 C5983.94,1051.67 5991.23,1044.38 5991.23,1035.12 C5991.23,1025.85 5983.94,1018.57 5974.68,1018.57 C5965.41,1018.57 5958.13,1025.85 5958.13,1035.12"/>
<path class="NoteDot" d="M8322.22,1820.55 C8322.22,1829.82 8329.5,1837.1 8338.77,1837.1 C8348.04,1837.1 8355.32,1829.82 8355.32,1820.55 C8355.32,1811.28 8348.04,1804 8338.77,1804 C8329.5,1804 8322.22,1811.28 8322.22,1820.55"/>
<path class="NoteDot" d="M3247.48,2688.66 C3247.48,2697.93 3254.76,2705.21 3264.03,2705.21 C3273.3,2705.21 3280.58,2697.93 3280.58,2688.66 C3280.58,2679.39 3273.3,2672.11 3264.03,2672.11 C3254.76,2672.11 3247.48,2679.39 3247.48,2688.66"/>
</svg>
