<?xml version="1.0" encoding="UTF-8" standalone="no"?>
<svg
   width="680.23553"
   height="187"
   version="1.2"
   id="svg164"
   xmlns="http://www.w3.org/2000/svg"
   xmlns:svg="http://www.w3.org/2000/svg"
   xmlns:rdf="http://www.w3.org/1999/02/22-rdf-syntax-ns#"
   xmlns:cc="http://creativecommons.org/ns#"
   xmlns:dc="http://purl.org/dc/elements/1.1/">
  <defs
     id="defs164" />
  <title
     id="title1">air_III.midi</title>
  <desc
     id="desc1">Generated by MuseScore Studio 4.7.3</desc>
  <path
     id="path164"
     class="NoteDot"
     d="m 469.94392,82.322793 c 0,0.741274 0.58215,1.323418 1.32342,1.323418 0.74127,0 1.32342,-0.582144 1.32342,-1.323418 0,-0.741274 -0.58215,-1.323419 -1.32342,-1.323419 -0.74127,0 -1.32342,0.582145 -1.32342,1.323419 m 111.10719,89.251997 c 0,0.74126 0.58214,1.32341 1.32342,1.32341 0.74128,0 1.32341,-0.58215 1.32341,-1.32341 0,-0.74048 -0.58213,-1.32343 -1.32341,-1.32343 -0.74128,0 -1.32342,0.58295 -1.32342,1.32343 M 153.57651,26.127482 c 0,0.740474 0.58215,1.323418 1.32343,1.323418 0.74126,0 1.32341,-0.582944 1.32341,-1.323418 0,-0.741275 -0.58215,-1.323419 -1.32341,-1.323419 -0.74128,0 -1.32343,0.582144 -1.32343,1.323419 m 410.44128,62.806806 c 0,0.741274 0.58214,1.323419 1.32342,1.323419 0.74128,0 1.32341,-0.582145 1.32341,-1.323419 0,-0.741274 -0.58213,-1.323418 -1.32341,-1.323418 -0.74128,0 -1.32342,0.582144 -1.32342,1.323418 M 240.25443,19.515906 c 0,0.741114 0.58294,1.323419 1.32342,1.323419 0.74128,0 1.32342,-0.582305 1.32342,-1.323419 0,-0.741114 -0.58214,-1.323419 -1.32342,-1.323419 -0.74048,0 -1.32342,0.582305 -1.32342,1.323419 M 76.352043,32.738177 c 0,0.741274 0.582944,1.323419 1.323418,1.323419 0.741275,0 1.323419,-0.582145 1.323419,-1.323419 0,-0.740475 -0.582144,-1.323418 -1.323419,-1.323418 -0.740474,0 -1.323418,0.582943 -1.323418,1.323418 m 469.192267,0 c 0,0.741274 0.58215,1.323419 1.32341,1.323419 0.74128,0 1.32343,-0.582145 1.32343,-1.323419 0,-0.740475 -0.58215,-1.323418 -1.32343,-1.323418 -0.74126,0 -1.32341,0.582943 -1.32341,1.323418 M 458.52014,19.515906 c 0,0.741114 0.58215,1.323419 1.32341,1.323419 0.74128,0 1.32343,-0.582305 1.32343,-1.323419 0,-0.741114 -0.58215,-1.323419 -1.32343,-1.323419 -0.74126,0 -1.32341,0.582305 -1.32341,1.323419 M 399.54765,158.35259 c 0,0.74127 0.58294,1.32342 1.32342,1.32342 0.74127,0 1.32341,-0.58215 1.32341,-1.32342 0,-0.74127 -0.58214,-1.32342 -1.32341,-1.32342 -0.74048,0 -1.32342,0.58215 -1.32342,1.32342 M 45.043398,32.755769 v 1.95834 h -2.196635 c -0.185519,0 -0.370237,0.15913 -0.370237,0.370237 v 0.502979 c 0,0.211907 0.184718,0.371037 0.370237,0.371037 h 8.019677 c 0.211907,0 0.371037,-0.15913 0.371037,-0.371037 v -0.502979 c 0,-0.211107 -0.15913,-0.370237 -0.371037,-0.370237 h -2.382154 v -1.95834 h 2.382154 c 0.211907,0 0.371037,-0.185518 0.371037,-0.397425 v -0.502979 c 0,-0.184719 -0.15913,-0.370238 -0.371037,-0.370238 h -2.382154 v -4.208551 c 0,-0.15913 -0.07916,-0.291072 -0.184718,-0.343848 l -0.317461,-0.159131 c -0.05358,-0.02639 -0.07997,-0.02639 -0.132742,-0.02639 -0.105553,0 -0.211906,0 -0.291071,0.07916 l -2.408543,2.197435 c -0.07916,0.07916 -0.106353,0.184719 -0.106353,0.291072 v 2.170246 h -3.069851 c 0,0 2.964298,-3.176204 6.087725,-7.358367 0.105554,-0.131942 0.131942,-0.264683 0.131942,-0.370237 0,-0.132742 -0.05278,-0.238295 -0.07916,-0.264683 L 47.53191,22.909208 c -0.07917,-0.05294 -0.15913,-0.105874 -0.264684,-0.105874 -0.15913,0 -3.73196,0 -3.943867,0 -0.185518,0 -0.317461,0.158811 -0.34385,0.317622 0,0 -0.132741,1.958979 -0.820438,4.102837 -0.688499,2.143858 -1.482549,3.467277 -2.171047,4.446846 0,0 -0.07917,0.131942 -0.07917,0.291072 0,0.05278 0,0.105554 0.02639,0.158331 0.07916,0.185518 0.264683,0.47659 0.264683,0.47659 0,0 0.05278,0.15913 0.291072,0.15913 h 4.5524 m 0.79325,-11.054182 c -0.874015,0 -1.588102,-1.191077 -1.588102,-2.673306 0,-1.482228 0.714087,-2.699774 1.588102,-2.699774 0.873217,0 1.614491,1.217546 1.614491,2.699774 0,1.482229 -0.741274,2.673306 -1.614491,2.673306 m 0.97877,-6.617093 c -1.61449,0 -2.196635,0.476431 -2.566872,0.873456 -0.07997,-0.555836 -0.132742,-0.97933 -0.132742,-1.402824 0,-1.508697 0.529369,-3.467356 2.382154,-3.467356 0.662109,0 1.058735,0.211747 1.323419,0.502899 -0.555756,0.238215 -1.005959,0.952861 -1.005959,1.561634 0,0.952861 0.741275,1.693976 1.694456,1.693976 0.952382,0 1.720044,-0.741115 1.720044,-1.693976 v -0.0794 c 0,-0.238215 -0.05278,-0.635241 -0.15833,-0.846988 -0.344649,-0.952861 -1.45616,-2.3556854 -4.102998,-2.3556854 -2.382153,0 -4.102198,2.2762794 -4.631565,3.4938254 -0.264683,0.635241 -0.662109,1.932191 -0.662109,3.41442 0,1.61457 0.450203,3.440887 2.011916,4.817244 1.535326,1.164608 2.514096,1.217544 3.440888,1.217544 0.925994,0 4.393271,-1.085203 4.393271,-4.155533 0,-2.593901 -2.037505,-3.573231 -3.705573,-3.573231 M 28.908087,7.6404033 31.263852,7.1639727 v 4.3672813 l -2.355765,0.502899 V 7.6404033 m 4.102997,-0.8205195 c 0.159131,-0.026468 0.291072,-0.211747 0.291072,-0.3705572 V 4.8876927 c 0,-0.211747 -0.15913,-0.3705572 -0.370237,-0.3705572 H 32.87834 L 32.005126,4.7024141 V 0.75862671 H 31.263852 V 4.8612243 L 28.908087,5.337655 V 1.6056146 h -0.740475 v 3.8908506 l -1.032346,0.211747 c -0.15913,0.026468 -0.291073,0.211747 -0.291073,0.3705572 V 7.613935 c 0,0.2117469 0.158331,0.3705571 0.370238,0.3705571 h 0.07916 l 0.874016,-0.1852785 v 4.3672814 l -1.032346,0.211747 c -0.15913,0.02647 -0.291073,0.211747 -0.291073,0.370557 v 1.535166 c 0,0.211747 0.158331,0.370557 0.370238,0.370557 h 0.07916 l 0.874016,-0.185279 v 3.943788 h 0.740475 v -4.102598 l 2.355765,-0.47643 v 3.732039 h 0.741274 v -3.89085 l 1.005958,-0.185279 c 0.159131,-0.02647 0.291072,-0.211747 0.291072,-0.370557 v -1.561634 c 0,-0.211746 -0.15913,-0.370557 -0.370237,-0.370557 h -0.05358 l -0.873217,0.185279 V 7.0051623 l 1.005969,-0.1852785 m -4.102997,139.6571262 2.355765,-0.47659 v 4.36768 l -2.355765,0.50297 v -4.39406 m 4.102997,-0.82045 c 0.159131,-0.0264 0.291072,-0.2119 0.291072,-0.37023 v -1.56171 c 0,-0.21191 -0.15913,-0.37104 -0.370237,-0.37104 h -0.05358 l -0.873217,0.18551 v -3.94385 h -0.741274 v 4.10298 l -2.355765,0.4758 v -3.73197 h -0.740475 v 3.8911 l -1.032346,0.2119 c -0.15913,0.0264 -0.291073,0.21191 -0.291073,0.37025 v 1.53532 c 0,0.2119 0.158331,0.37024 0.370238,0.37024 h 0.07916 l 0.874016,-0.18473 v 4.36689 l -1.032346,0.21191 c -0.15913,0.0264 -0.291073,0.2119 -0.291073,0.37023 v 1.53533 c 0,0.21191 0.158331,0.37104 0.370238,0.37104 h 0.07916 l 0.874016,-0.18552 v 3.94386 h 0.740475 v -4.10299 l 2.355765,-0.47659 v 3.73276 h 0.741274 v -3.89109 l 1.005958,-0.18552 c 0.159131,-0.0264 0.291072,-0.21191 0.291072,-0.37024 v -1.56171 c 0,-0.21191 -0.15913,-0.37104 -0.370237,-0.37104 h -0.05358 l -0.873217,0.18552 v -4.36688 l 1.005958,-0.18553 m -4.102997,-68.597854 2.355765,-0.476591 v 4.367681 l -2.355765,0.502979 v -4.394069 m 4.102997,-0.82044 c 0.159131,-0.02639 0.291072,-0.211907 0.291072,-0.371037 v -1.560914 c 0,-0.211907 -0.15913,-0.371037 -0.370237,-0.371037 h -0.05358 l -0.873217,0.185518 v -3.943867 h -0.741274 v 4.102197 l -2.355765,0.476591 v -3.73196 h -0.740475 v 3.89109 l -1.032346,0.211907 c -0.15913,0.02639 -0.291073,0.211108 -0.291073,0.370238 v 1.535325 c 0,0.211907 0.158331,0.370237 0.370238,0.370237 h 0.07916 l 0.874016,-0.184718 v 4.366881 l -1.032346,0.211907 c -0.15913,0.02639 -0.291073,0.211907 -0.291073,0.370238 v 1.535324 c 0,0.211908 0.158331,0.370238 0.370238,0.370238 h 0.07916 l 0.874016,-0.184719 v 3.943867 h 0.740475 v -4.102996 l 2.355765,-0.476592 v 3.731961 h 0.741274 v -3.890291 l 1.005959,-0.185518 c 0.15913,-0.02639 0.291071,-0.211907 0.291071,-0.370237 v -1.561715 c 0,-0.211907 -0.15913,-0.371036 -0.370237,-0.371036 h -0.05358 l -0.873217,0.185517 v -4.366881 l 1.005959,-0.185518 M 16.075245,34.885233 c -0.529367,0.106354 -1.032267,0.15913 -1.535166,0.15913 -3.784977,0 -7.0141183,-2.646836 -7.0141183,-6.64348 0,-3.229782 2.27628,-6.114515 4.6054963,-8.126111 0.449962,-0.397025 0.873456,-0.767582 1.270482,-1.164608 0.238216,1.429293 0.423494,2.673306 0.608773,3.758509 -2.408622,0.714326 -4.049661,3.255609 -4.049661,5.743316 0,1.852787 1.45576,4.39407 3.57323,4.39407 0.211748,0 0.449963,-0.105553 0.449963,-0.343848 0,-0.238296 -0.264685,-0.371037 -0.582305,-0.582145 -1.032267,-0.635721 -1.61457,-1.323419 -1.61457,-2.620448 0,-1.614492 1.191076,-2.911521 2.75271,-3.282558 l 1.535166,8.708173 M 13.746029,7.6758277 c 0.238215,-1.0587348 1.455759,-3.8379138 2.832115,-3.8379138 0.397025,0 1.032267,1.2969502 1.032267,3.1232678 0,2.7527106 -2.038065,4.8172443 -3.864382,6.6170933 -0.158811,-1.058735 -0.291153,-2.091002 -0.291153,-3.202674 0,-0.9793291 0.07941,-1.8792537 0.291153,-2.6997733 m 6.087725,22.3131573 c 0,1.879174 -0.767584,3.811126 -2.646838,4.578788 -0.555836,-3.176204 -1.270482,-7.384756 -1.45576,-8.549044 2.382153,0 4.102598,1.61449 4.102598,3.970256 M 8.1876701,43.011264 c 0,1.746432 1.3498869,4.049421 4.9231169,4.049421 1.244013,0 2.329217,-0.317461 3.282078,-0.899605 1.429293,-1.005959 1.799849,-2.753191 1.799849,-4.420458 0,-1.032347 -0.158809,-2.223024 -0.423493,-3.73196 -0.0794,-0.529368 -0.238216,-1.323419 -0.397026,-2.355766 2.5939,-0.846828 4.526092,-3.546442 4.526092,-6.273243 0,-3.996645 -2.832117,-6.696259 -6.696499,-6.696259 -0.264683,-1.588102 -0.529367,-3.149736 -0.767582,-4.631965 2.805647,-2.937989 4.737838,-6.246535 4.737838,-10.4550063 0,-2.4086219 -0.741115,-4.3672814 -1.164608,-5.3201428 C 17.372195,0.926393 16.604612,0 16.128181,0 c -0.185278,0 -1.005797,0.31762046 -1.879254,1.3498869 -1.693976,2.0115963 -2.170406,5.3995478 -2.170406,7.622891 0,1.4292921 0.132342,2.7262421 0.582304,5.6906991 -0.02647,0.02647 -1.402824,1.429293 -1.95866,1.879255 -2.4086214,2.249812 -5.7436362,5.452485 -5.7436362,10.745839 0,4.949826 4.3143445,8.840916 9.2374622,8.840916 0.767582,0 1.482228,-0.07916 2.091001,-0.185519 0.502899,2.541284 0.79405,4.39407 0.79405,5.796654 0,2.752391 -1.402823,4.208551 -4.076129,4.208551 -0.635241,0 -1.191076,-0.132742 -1.244012,-0.132742 -0.02647,-0.02639 -0.0794,-0.05278 -0.0794,-0.07916 0,-0.05278 0.05294,-0.07916 0.132342,-0.105553 1.244014,-0.185519 2.488027,-1.244254 2.488027,-2.937909 0,-1.429773 -1.085204,-2.93791 -3.070332,-2.93791 -1.8527852,0 -3.0438619,1.508137 -3.0438619,3.25537 M 16.075245,173.72184 c -0.529367,0.10635 -1.032267,0.15912 -1.535166,0.15912 -3.784977,0 -7.0141183,-2.64683 -7.0141183,-6.64347 0,-3.22978 2.27628,-6.11412 4.6054963,-8.12604 0.449962,-0.39742 0.873456,-0.76765 1.270482,-1.16428 0.238216,1.42898 0.423494,2.67323 0.608773,3.75835 -2.408622,0.71408 -4.049661,3.25537 -4.049661,5.74307 0,1.85279 1.45576,4.39407 3.57323,4.39407 0.211748,0 0.449963,-0.10555 0.449963,-0.34385 0,-0.23829 -0.264685,-0.37103 -0.582305,-0.58213 -1.032267,-0.63573 -1.61457,-1.32343 -1.61457,-2.62046 0,-1.61449 1.191076,-2.91152 2.75271,-3.28256 l 1.535166,8.70818 m -2.329216,-27.20965 c 0.238215,-1.05873 1.455759,-3.83751 2.832115,-3.83751 0.397025,0 1.032267,1.29703 1.032267,3.12342 0,2.7524 -2.038065,4.81709 -3.864382,6.6171 -0.158811,-1.05873 -0.291153,-2.09108 -0.291153,-3.20259 0,-0.97957 0.07941,-1.87998 0.291153,-2.70042 m 6.087725,22.3134 c 0,1.87917 -0.767584,3.81112 -2.646838,4.57879 -0.555836,-3.17621 -1.270482,-7.38476 -1.45576,-8.54904 2.382153,0 4.102598,1.61448 4.102598,3.97025 M 8.1876701,181.84787 c 0,1.74643 1.3498869,4.04942 4.9231169,4.04942 1.244013,0 2.329217,-0.31746 3.282078,-0.89961 1.429293,-1.00595 1.799849,-2.75319 1.799849,-4.42045 0,-1.03235 -0.158809,-2.22302 -0.423493,-3.73197 -0.0794,-0.52936 -0.238216,-1.32341 -0.397026,-2.35576 2.5939,-0.84683 4.526092,-3.54644 4.526092,-6.27324 0,-3.99665 -2.832117,-6.69626 -6.696499,-6.69626 -0.264683,-1.5881 -0.529367,-3.14981 -0.767582,-4.63157 2.805647,-2.93871 4.737838,-6.24685 4.737838,-10.4554 0,-2.40854 -0.741115,-4.36688 -1.164608,-5.32007 -0.635241,-1.3498 -1.402824,-2.27659 -1.879255,-2.27659 -0.185278,0 -1.005797,0.31825 -1.879254,1.3498 -1.693976,2.01192 -2.170406,5.40003 -2.170406,7.62305 0,1.42978 0.132342,2.7268 0.582304,5.6911 -0.02647,0.0264 -1.402824,1.42897 -1.95866,1.87918 -2.4086214,2.24941 -5.7436362,5.452 -5.7436362,10.74568 0,4.94982 4.3143445,8.84091 9.2374622,8.84091 0.767582,0 1.482228,-0.0792 2.091001,-0.18552 0.502899,2.54129 0.79405,4.39407 0.79405,5.79666 0,2.75238 -1.402823,4.20855 -4.076129,4.20855 -0.635241,0 -1.191076,-0.13274 -1.244012,-0.13274 -0.02647,-0.0264 -0.0794,-0.0527 -0.0794,-0.0792 0,-0.0527 0.05294,-0.0791 0.132342,-0.10555 1.244014,-0.18553 2.488027,-1.24426 2.488027,-2.93791 0,-1.42978 -1.085204,-2.93791 -3.070332,-2.93791 -1.8527852,0 -3.0438619,1.50813 -3.0438619,3.25537 M 16.07525,104.3035 c -0.529367,0.10635 -1.032267,0.15913 -1.535166,0.15913 -3.784977,0 -7.0141183,-2.64685 -7.0141183,-6.643485 0,-3.229781 2.27628,-6.114114 4.6054963,-8.126031 0.449962,-0.397425 0.873456,-0.767662 1.270482,-1.164288 0.238216,1.428973 0.423494,2.673226 0.608773,3.758349 -2.408622,0.714087 -4.049661,3.255369 -4.049661,5.743077 0,1.852786 1.45576,4.394068 3.57323,4.394068 0.211748,0 0.449963,-0.10555 0.449963,-0.34384 0,-0.23831 -0.264685,-0.37105 -0.582305,-0.58215 -1.032267,-0.63572 -1.61457,-1.32342 -1.61457,-2.62045 0,-1.614491 1.191076,-2.911521 2.75271,-3.282558 L 16.07525,104.3035 M 13.746029,77.09389 c 0.238215,-1.058735 1.455759,-3.837514 2.832115,-3.837514 0.397025,0 1.032267,1.29703 1.032267,3.123428 0,2.75239 -2.038065,4.817084 -3.864382,6.617093 -0.158811,-1.058735 -0.291153,-2.091082 -0.291153,-3.202594 0,-0.979569 0.07941,-1.879973 0.291153,-2.700413 m 6.087725,22.313397 c 0,1.879173 -0.767584,3.811123 -2.646838,4.578793 -0.555836,-3.17621 -1.270482,-7.38476 -1.45576,-8.549049 2.382153,0 4.102598,1.614491 4.102598,3.970256 M 8.1876701,112.42957 c 0,1.74643 1.3498869,4.04942 4.9231169,4.04942 1.244013,0 2.329217,-0.31747 3.282078,-0.8996 1.429293,-1.00596 1.799849,-2.7532 1.799849,-4.42047 0,-1.03235 -0.158809,-2.22302 -0.423493,-3.73195 -0.0794,-0.52938 -0.238216,-1.32342 -0.397026,-2.35577 2.5939,-0.84683 4.526092,-3.54644 4.526092,-6.273245 0,-3.996644 -2.832117,-6.696259 -6.696499,-6.696259 -0.264683,-1.588102 -0.529367,-3.149816 -0.767582,-4.631564 2.805647,-2.93871 4.737838,-6.246856 4.737838,-10.455407 0,-2.408542 -0.741115,-4.366881 -1.164608,-5.320063 -0.635241,-1.349807 -1.402824,-2.2766 -1.879255,-2.2766 -0.185278,0 -1.005797,0.318261 -1.879254,1.349808 -1.693976,2.011915 -2.170406,5.400027 -2.170406,7.62305 0,1.429772 0.132342,2.726802 0.582304,5.691099 -0.02647,0.02639 -1.402824,1.428973 -1.95866,1.879175 -2.4086214,2.249412 -5.7436362,5.452005 -5.7436362,10.745679 0,4.949827 4.3143445,8.840917 9.2374622,8.840917 0.767582,0 1.482228,-0.0792 2.091001,-0.18552 0.502899,2.54128 0.79405,4.39407 0.79405,5.79665 0,2.75239 -1.402823,4.20855 -4.076129,4.20855 -0.635241,0 -1.191076,-0.13274 -1.244012,-0.13274 -0.02647,-0.0264 -0.0794,-0.0527 -0.0794,-0.0792 0,-0.0527 0.05294,-0.0792 0.132342,-0.10556 1.244014,-0.18551 2.488027,-1.24425 2.488027,-2.93791 0,-1.42977 -1.085204,-2.93791 -3.070332,-2.93791 -1.8527852,0 -3.0438619,1.50814 -3.0438619,3.25538 M 387.93355,94.515836 c -0.87322,0 -1.05873,-0.714086 -1.05873,-0.952381 0,-1.297031 4.44684,-3.573631 5.6903,-3.573631 0.63572,0 1.05874,0.371037 1.05874,0.953182 0,1.323418 -4.47245,3.57283 -5.69031,3.57283 m 3.6528,-5.769466 c -2.56768,0 -5.63833,2.143859 -5.63833,4.605178 0,1.1379 0.82124,2.408541 2.9651,2.408541 2.7524,0 5.63752,-2.249411 5.63752,-4.578788 0,-1.561714 -1.32342,-2.434931 -2.96429,-2.434931 m 32.81278,74.02348 c 0,1.1379 0.82044,2.40854 2.9643,2.40854 2.75319,0 5.63752,-2.24941 5.63752,-4.57879 0,-1.56171 -1.32342,-2.43492 -2.9643,-2.43492 -2.56687,0 -5.63752,2.17024 -5.63752,4.60517 M 497.87166,30.54474 c 0,1.1379 0.82043,2.408542 2.96429,2.408542 2.75319,0 5.63752,-2.250211 5.63752,-4.578788 0,-1.561714 -1.32341,-2.43573 -2.9643,-2.43573 -2.56686,0 -5.63751,2.171047 -5.63751,4.605976 m 37.7562,7.775784 c -0.87321,0 -1.05873,-0.714885 -1.05873,-0.95318 0,-1.297031 4.44685,-3.572831 5.6911,-3.572831 0.63492,0 1.05874,0.370237 1.05874,0.952382 0,1.323418 -4.47324,3.573629 -5.69111,3.573629 m 3.6528,-5.770265 c -2.56688,0 -5.63752,2.143859 -5.63752,4.605177 0,1.1387 0.82043,2.409342 2.96429,2.409342 2.75319,0 5.63753,-2.250212 5.63753,-4.579588 0,-1.561714 -1.32342,-2.434931 -2.9643,-2.434931 M 443.72744,166.0756 c 0,1.1379 0.82043,2.40854 2.9643,2.40854 2.75239,0 5.63752,-2.24941 5.63752,-4.57879 0,-1.56171 -1.32342,-2.43493 -2.9643,-2.43493 -2.56767,0 -5.63752,2.17024 -5.63752,4.60518 m -56.08097,-3.30575 c 0,1.1379 0.82045,2.40854 2.9643,2.40854 2.7532,0 5.63833,-2.24941 5.63833,-4.57879 0,-1.56171 -1.32342,-2.43492 -2.9643,-2.43492 -2.56767,0 -5.63833,2.17024 -5.63833,4.60517 m 85.07303,9.91725 c 0,1.1379 0.82044,2.40854 2.9643,2.40854 2.75239,0 5.63753,-2.25021 5.63753,-4.57959 0,-1.56092 -1.32343,-2.43494 -2.9643,-2.43494 -2.56768,0 -5.63753,2.17025 -5.63753,4.60599 M 64.450872,37.155436 c 0,1.1387 0.820439,2.409342 2.964297,2.409342 2.753191,0 5.638323,-2.250212 5.638323,-4.579588 0,-1.561714 -1.323418,-2.434931 -2.964298,-2.434931 -2.567671,0 -5.638322,2.170247 -5.638322,4.605177 M 446.61897,23.933246 c 0,1.1379 0.82044,2.408541 2.9643,2.408541 2.75238,0 5.63752,-2.249411 5.63752,-4.578948 0,-1.561634 -1.32342,-2.43509 -2.9643,-2.43509 -2.56767,0 -5.63752,2.170406 -5.63752,4.605497 m -97.4188,135.530864 c 0,1.13789 0.82044,2.40853 2.9651,2.40853 2.75239,0 5.63752,-2.24941 5.63752,-4.57878 0,-1.56172 -1.32342,-2.43494 -2.9643,-2.43494 -2.56767,0 -5.63832,2.17025 -5.63832,4.60519 M 585.67067,31.709029 c -0.8732,0 -1.05873,-0.714886 -1.05873,-0.952382 0,-1.297029 4.44685,-3.57363 5.69111,-3.57363 0.63491,0 1.05873,0.370238 1.05873,0.953182 0,1.323419 -4.47323,3.57283 -5.69111,3.57283 m 3.65281,-5.770265 c -2.56768,0 -5.63753,2.143858 -5.63753,4.605976 0,1.1379 0.82044,2.408542 2.9643,2.408542 2.75239,0 5.63752,-2.250211 5.63752,-4.578788 0,-1.561714 -1.32342,-2.43573 -2.96429,-2.43573 M 307.6976,167.23989 c -0.87321,0 -1.05874,-0.71409 -1.05874,-0.95238 0,-1.29703 4.44686,-3.57364 5.69031,-3.57364 0.63571,0 1.05873,0.37104 1.05873,0.95318 0,1.32343 -4.47323,3.57284 -5.6903,3.57284 m 3.6528,-5.76947 c -2.56768,0 -5.63832,2.14386 -5.63832,4.60518 0,1.1379 0.82043,2.40854 2.96509,2.40854 2.75239,0 5.63753,-2.24941 5.63753,-4.57879 0,-1.56171 -1.32343,-2.43493 -2.9643,-2.43493 m 190.36116,7.91092 c 0,1.1379 0.82045,2.40854 2.9643,2.40854 2.7524,0 5.63752,-2.25021 5.63752,-4.57878 0,-1.56172 -1.32341,-2.43573 -2.96429,-2.43573 -2.56768,0 -5.63753,2.17105 -5.63753,4.60597 M 276.72001,166.0756 c 0,1.1379 0.82044,2.40854 2.9651,2.40854 2.75239,0 5.63752,-2.24941 5.63752,-4.57879 0,-1.56171 -1.32341,-2.43493 -2.9643,-2.43493 -2.56766,0 -5.63832,2.17024 -5.63832,4.60518 M 228.35327,23.933246 c 0,1.1379 0.82043,2.408541 2.96428,2.408541 2.7532,0 5.63833,-2.249411 5.63833,-4.578948 0,-1.561634 -1.32342,-2.43509 -2.9643,-2.43509 -2.56767,0 -5.63831,2.170406 -5.63831,4.605497 m 19.37468,145.448094 c 0,1.1379 0.82044,2.40854 2.9643,2.40854 2.75319,0 5.63832,-2.25021 5.63832,-4.57878 0,-1.56172 -1.32342,-2.43573 -2.9643,-2.43573 -2.56767,0 -5.63832,2.17105 -5.63832,4.60597 M 652.72842,30.54474 c 0,1.1379 0.82044,2.408542 2.9643,2.408542 2.75239,0 5.63752,-2.250211 5.63752,-4.578788 0,-1.561714 -1.32342,-2.43573 -2.96429,-2.43573 -2.56768,0 -5.63753,2.171047 -5.63753,4.605976 M 218.73588,166.0756 c 0,1.1379 0.82044,2.40854 2.9643,2.40854 2.7532,0 5.63833,-2.24941 5.63833,-4.57879 0,-1.56171 -1.32343,-2.43493 -2.9643,-2.43493 -2.56768,0 -5.63833,2.17024 -5.63833,4.60518 M 192.58178,27.238993 c 0,1.1379 0.82043,2.408542 2.9643,2.408542 2.75318,0 5.63832,-2.250211 5.63832,-4.578789 0,-1.561713 -1.32342,-2.43533 -2.9643,-2.43533 -2.56767,0 -5.63832,2.170647 -5.63832,4.605577 m 227.71915,9.916443 c 0,1.1387 0.82124,2.409342 2.9651,2.409342 2.75239,0 5.63753,-2.250212 5.63753,-4.579588 0,-1.561714 -1.32343,-2.434931 -2.9643,-2.434931 -2.56768,0 -5.63833,2.170247 -5.63833,4.605177 m 110.4027,142.142354 c 0,1.1387 0.82044,2.40854 2.9643,2.40854 2.75238,0 5.63752,-2.24941 5.63752,-4.57878 0,-1.56172 -1.32342,-2.43494 -2.9643,-2.43494 -2.56767,0 -5.63752,2.17025 -5.63752,4.60518 m -350.41405,-9.91645 c 0,1.1379 0.82124,2.40854 2.96509,2.40854 2.7524,0 5.63752,-2.25021 5.63752,-4.57878 0,-1.56172 -1.32341,-2.43573 -2.9643,-2.43573 -2.56766,0 -5.63831,2.17105 -5.63831,4.60597 M 49.825297,99.963047 c 0,1.137903 0.82044,2.408533 2.964298,2.408533 2.75319,0 5.638323,-2.25021 5.638323,-4.578783 0,-1.561714 -1.323419,-2.435731 -2.964298,-2.435731 -2.567672,0 -5.638323,2.171047 -5.638323,4.605981 m 88.961713,70.582583 c -0.87321,0 -1.05874,-0.71488 -1.05874,-0.95238 0,-1.29703 4.44686,-3.57363 5.69031,-3.57363 0.63571,0 1.05873,0.37024 1.05873,0.95319 0,1.32341 -4.47323,3.57282 -5.6903,3.57282 m 3.6528,-5.77026 c -2.56768,0 -5.63832,2.14386 -5.63832,4.60597 0,1.1379 0.82043,2.40854 2.96509,2.40854 2.75239,0 5.63753,-2.25021 5.63753,-4.57878 0,-1.56172 -1.32343,-2.43573 -2.9643,-2.43573 M 78.663028,103.26879 c 0,1.1379 0.820439,2.40854 2.964294,2.40854 2.753191,0 5.638323,-2.25021 5.638323,-4.57959 0,-1.560909 -1.323418,-2.434926 -2.964297,-2.434926 -2.567672,0 -5.63832,2.170246 -5.63832,4.605976 m 29.146392,66.11255 c 0,1.1379 0.82044,2.40854 2.9651,2.40854 2.75238,0 5.63752,-2.25021 5.63752,-4.57878 0,-1.56172 -1.32342,-2.43573 -2.9643,-2.43573 -2.56767,0 -5.63832,2.17105 -5.63832,4.60597 m -0.30866,-69.418293 c 0,1.137903 0.82043,2.408533 2.96429,2.408533 2.75319,0 5.63833,-2.25021 5.63833,-4.578783 0,-1.561714 -1.32343,-2.435731 -2.9651,-2.435731 -2.56688,0 -5.63752,2.171047 -5.63752,4.605981 M 78.81736,172.6871 c 0,1.1379 0.82044,2.40854 2.965094,2.40854 2.75239,0 5.637523,-2.25021 5.637523,-4.57959 0,-1.56092 -1.323419,-2.43494 -2.964298,-2.43494 -2.567671,0 -5.638319,2.17025 -5.638319,4.60599 m 59.50665,-71.55977 c -0.87401,0 -1.05874,-0.71489 -1.05874,-0.95238 0,-1.29703 4.44606,-3.57363 5.69031,-3.57363 0.63571,0 1.05873,0.370237 1.05873,0.953181 0,1.323419 -4.47323,3.572829 -5.6903,3.572829 m 3.652,-5.770264 c -2.56687,0 -5.63752,2.143859 -5.63752,4.605981 0,1.137903 0.82043,2.408533 2.96429,2.408533 2.75319,0 5.63833,-2.25021 5.63833,-4.578783 0,-1.561714 -1.32342,-2.435731 -2.9651,-2.435731 M 49.825297,169.38134 c 0,1.1379 0.82044,2.40854 2.964298,2.40854 2.75319,0 5.638323,-2.25021 5.638323,-4.57878 0,-1.56172 -1.323419,-2.43573 -2.964298,-2.43573 -2.567672,0 -5.638323,2.17105 -5.638323,4.60597 M 175.03668,23.933246 c 0,1.1379 0.82124,2.408541 2.9651,2.408541 2.75239,0 5.63753,-2.249411 5.63753,-4.578948 0,-1.561634 -1.32343,-2.43509 -2.9643,-2.43509 -2.56768,0 -5.63833,2.170406 -5.63833,4.605497 M 382.8102,38.320524 c -0.87321,0 -1.05873,-0.714885 -1.05873,-0.95318 0,-1.297031 4.44684,-3.572831 5.69109,-3.572831 0.63493,0 1.05874,0.370237 1.05874,0.952382 0,1.323418 -4.47323,3.573629 -5.6911,3.573629 m 3.65279,-5.770265 c -2.56766,0 -5.63751,2.143859 -5.63751,4.605177 0,1.1387 0.82044,2.409342 2.96429,2.409342 2.75239,0 5.63752,-2.250212 5.63752,-4.579588 0,-1.561714 -1.32341,-2.434931 -2.9643,-2.434931 M 261.7154,20.627578 c 0,1.13814 0.82044,2.408622 2.9643,2.408622 2.7524,0 5.63752,-2.249812 5.63752,-4.579029 0,-1.561634 -1.32342,-2.43509 -2.96429,-2.43509 -2.56768,0 -5.63753,2.170406 -5.63753,4.605497 M 97.813012,33.850488 c 0,1.1379 0.820439,2.408542 2.964298,2.408542 2.75239,0 5.63753,-2.250211 5.63753,-4.579588 0,-1.561714 -1.32343,-2.43493 -2.9643,-2.43493 -2.56768,0 -5.637528,2.170247 -5.637528,4.605976 M 626.26324,163.93414 c -0.87321,0 -1.05873,-0.71408 -1.05873,-0.95239 0,-1.29702 4.44685,-3.57362 5.6911,-3.57362 0.63492,0 1.05874,0.37103 1.05874,0.95318 0,1.32342 -4.47324,3.57283 -5.69111,3.57283 m 3.6528,-5.76946 c -2.56768,0 -5.63753,2.14385 -5.63753,4.60517 0,1.1379 0.82044,2.40854 2.9643,2.40854 2.7524,0 5.63753,-2.24941 5.63753,-4.57879 0,-1.56171 -1.32343,-2.43492 -2.9643,-2.43492 m 20.29188,-58.201633 c 0,1.137903 0.82044,2.408533 2.9643,2.408533 2.7532,0 5.63753,-2.25021 5.63753,-4.578783 0,-1.561714 -1.32343,-2.435731 -2.9643,-2.435731 -2.56688,0 -5.63753,2.171047 -5.63753,4.605981 M 217.88666,96.657295 c 0,1.1379 0.82044,2.408542 2.9651,2.408542 2.75238,0 5.63752,-2.250211 5.63752,-4.578788 0,-1.561714 -1.32342,-2.43573 -2.9643,-2.43573 -2.56767,0 -5.63832,2.171046 -5.63832,4.605976 m 391.0498,-8.752155 c -0.87322,0 -1.05873,-0.714886 -1.05873,-0.953181 0,-1.29703 4.44684,-3.572831 5.69109,-3.572831 0.63493,0 1.05874,0.370238 1.05874,0.952382 0,1.323419 -4.47324,3.57363 -5.6911,3.57363 m 3.65279,-5.770264 c -2.56767,0 -5.63752,2.143857 -5.63752,4.605176 0,1.138699 0.82044,2.408542 2.9643,2.408542 2.75239,0 5.63752,-2.249412 5.63752,-4.578789 0,-1.561714 -1.32342,-2.434929 -2.9643,-2.434929 M 246.72439,99.963047 c 0,1.137903 0.82044,2.408533 2.9651,2.408533 2.75238,0 5.63752,-2.25021 5.63752,-4.578783 0,-1.561714 -1.32342,-2.435731 -2.9643,-2.435731 -2.56767,0 -5.63832,2.171047 -5.63832,4.605981 m 98.3296,-59.501863 c 0,1.1387 0.82044,2.408542 2.9643,2.408542 2.75239,0 5.63752,-2.249412 5.63752,-4.578788 0,-1.561714 -1.32342,-2.434931 -2.96429,-2.434931 -2.56768,0 -5.63753,2.170247 -5.63753,4.605177 m 209.04736,54.054652 c -0.87322,0 -1.05874,-0.714086 -1.05874,-0.952381 0,-1.297031 4.44685,-3.573631 5.69111,-3.573631 0.63491,0 1.05873,0.371037 1.05873,0.953182 0,1.323418 -4.47324,3.57283 -5.6911,3.57283 m 3.6528,-5.769466 c -2.56768,0 -5.63753,2.143859 -5.63753,4.605178 0,1.1379 0.82044,2.408541 2.9643,2.408541 2.75239,0 5.63752,-2.249411 5.63752,-4.578788 0,-1.561714 -1.32342,-2.434931 -2.96429,-2.434931 m -282.19203,7.910925 c 0,1.1379 0.82044,2.408542 2.9643,2.408542 2.75318,0 5.63832,-2.250211 5.63832,-4.578788 0,-1.561714 -1.32342,-2.43573 -2.9643,-2.43573 -2.56767,0 -5.63832,2.171046 -5.63832,4.605976 M 115.3581,37.155436 c 0,1.1387 0.82044,2.409342 2.9643,2.409342 2.75239,0 5.63753,-2.250212 5.63753,-4.579588 0,-1.561714 -1.32343,-2.434931 -2.9643,-2.434931 -2.56768,0 -5.63753,2.170247 -5.63753,4.605177 m 191.02728,60.666147 c -0.87402,0 -1.05874,-0.714085 -1.05874,-0.95238 0,-1.297031 4.44685,-3.573631 5.6903,-3.573631 0.63573,0 1.05873,0.371037 1.05873,0.953182 0,1.323418 -4.47323,3.572829 -5.69029,3.572829 m 3.65279,-5.770264 c -2.56767,0 -5.63832,2.144658 -5.63832,4.605976 0,1.1379 0.82044,2.408542 2.9643,2.408542 2.75318,0 5.63832,-2.250211 5.63832,-4.578788 0,-1.561714 -1.32342,-2.43573 -2.9643,-2.43573 M 513.82465,90.0458 c 0,1.1379 0.82044,2.408541 2.96429,2.408541 2.75239,0 5.63752,-2.249411 5.63752,-4.578788 0,-1.561714 -1.32341,-2.43493 -2.9643,-2.43493 -2.56766,0 -5.63751,2.170247 -5.63751,4.605177 m -166.1678,6.611495 c 0,1.1379 0.82043,2.408542 2.96429,2.408542 2.75239,0 5.63753,-2.250211 5.63753,-4.578788 0,-1.561714 -1.32342,-2.43573 -2.9643,-2.43573 -2.56767,0 -5.63752,2.171046 -5.63752,4.605976 m 146.94264,-9.917243 c 0,1.138699 0.82044,2.408542 2.96429,2.408542 2.7524,0 5.63753,-2.249412 5.63753,-4.578789 0,-1.561714 -1.32342,-2.434929 -2.9643,-2.434929 -2.56767,0 -5.63752,2.170246 -5.63752,4.605176 m 76.53517,90.417078 c -0.87321,0 -1.05873,-0.71488 -1.05873,-0.95319 0,-1.29702 4.44684,-3.57282 5.6911,-3.57282 0.63492,0 1.05873,0.37023 1.05873,0.95238 0,1.32342 -4.47323,3.57363 -5.6911,3.57363 m 3.6528,-5.77026 c -2.56767,0 -5.63752,2.14385 -5.63752,4.60517 0,1.1387 0.82044,2.40934 2.9643,2.40934 2.75239,0 5.63751,-2.25021 5.63751,-4.57959 0,-1.56171 -1.32341,-2.43492 -2.96429,-2.43492 M 307.56247,41.626272 c -0.87322,0 -1.05874,-0.714886 -1.05874,-0.953181 0,-1.29703 4.44684,-3.57283 5.6911,-3.57283 0.63492,0 1.05873,0.370237 1.05873,0.952382 0,1.323418 -4.47323,3.573629 -5.69109,3.573629 m 3.65279,-5.770265 c -2.56767,0 -5.63752,2.143859 -5.63752,4.605177 0,1.1387 0.82043,2.408542 2.96429,2.408542 2.75239,0 5.63752,-2.249412 5.63752,-4.578788 0,-1.561714 -1.32341,-2.434931 -2.96429,-2.434931 M 279.26049,17.32199 c 0,1.13814 0.82044,2.408622 2.9643,2.408622 2.7524,0 5.63753,-2.249812 5.63753,-4.579029 0,-1.561633 -1.32343,-2.435089 -2.9643,-2.435089 -2.56768,0 -5.63753,2.170405 -5.63753,4.605496 m 178.78226,66.112314 c 0,1.138701 0.82044,2.409342 2.9643,2.409342 2.75238,0 5.63752,-2.250212 5.63752,-4.579588 0,-1.561714 -1.32342,-2.43493 -2.9643,-2.43493 -2.56767,0 -5.63752,2.170246 -5.63752,4.605176 M 141.67534,30.54474 c 0,1.1379 0.82044,2.408542 2.9643,2.408542 2.75239,0 5.63752,-2.250211 5.63752,-4.578788 0,-1.561714 -1.32341,-2.43573 -2.9643,-2.43573 -2.56767,0 -5.63752,2.171047 -5.63752,4.605976 m 287.52968,62.806808 c 0,1.1379 0.82044,2.408541 2.9643,2.408541 2.75238,0 5.63752,-2.249411 5.63752,-4.578788 0,-1.561714 -1.32342,-2.434931 -2.9643,-2.434931 -2.56767,0 -5.63752,2.170247 -5.63752,4.605178 m 50.77529,-66.112555 c 0,1.1379 0.82044,2.408542 2.9643,2.408542 2.75319,0 5.63833,-2.250211 5.63833,-4.578789 0,-1.561713 -1.32343,-2.43533 -2.9643,-2.43533 -2.56768,0 -5.63833,2.170647 -5.63833,4.605577 M 179.59548,99.963047 c 0,1.137903 0.82044,2.408533 2.9643,2.408533 2.75239,0 5.63752,-2.25021 5.63752,-4.578783 0,-1.561714 -1.32342,-2.435731 -2.96429,-2.435731 -2.56768,0 -5.63753,2.171047 -5.63753,4.605981 m 315.00401,8.778543 c 0,0.18551 0.15833,0.34384 0.34385,0.34384 0.13274,0 0.29107,-0.10555 0.31746,-0.2111 0,-0.0272 0.23829,-0.95319 0.26468,-1.03235 0.0264,-0.10635 0.26469,-1.11231 1.21786,-2.67322 1.03235,-1.72085 2.62046,-2.9651 3.94387,-4.81789 1.29703,-1.852783 2.09108,-3.599216 2.09108,-5.928593 0,-2.408542 -0.55575,-4.420458 -1.95914,-6.98733 -0.0792,-0.185518 -0.23829,-0.291872 -0.39662,-0.291872 -0.0527,0 -0.10635,0 -0.13274,0.02719 -0.13194,0.05278 -0.18472,0.158331 -0.18472,0.317461 0,0.07916 0.0264,0.211907 0.0792,0.31746 1.05873,2.461319 1.48254,3.864702 1.48254,5.770265 0,2.196636 -0.76766,3.334535 -1.24425,4.154975 -1.72085,2.938704 -4.49962,4.367684 -5.61113,4.737914 -0.18553,0.08 -0.21191,0.21191 -0.21191,0.29107 v 5.98218 m -6.68506,-98.092667 c 0,0.07941 0.0264,0.211747 0.2111,0.291153 1.1387,0.370557 3.4145,1.799849 5.13535,4.737838 0.47659,0.820519 1.24345,1.95866 1.24345,4.155534 0,1.905723 -0.50217,3.864703 -1.19067,5.770265 -0.0527,0.158331 -0.10556,0.291072 -0.0792,0.396627 0,0.15913 0.10555,0.264683 0.26468,0.264683 0.18472,0 0.31746,-0.105553 0.42302,-0.291072 1.19148,-2.11747 1.64087,-4.578869 1.64087,-6.98749 -0.13194,-3.414421 -2.09028,-5.928916 -2.09028,-5.928916 0.0792,0 -2.43572,-3.2556093 -3.14981,-4.367281 -0.97957,-1.5086971 -1.42977,-3.0173943 -1.48255,-3.1232678 -0.0264,-0.079405 -0.26469,-1.0322665 -0.26469,-1.0322665 -0.0264,-0.1058735 -0.15913,-0.211747 -0.31746,-0.211747 -0.18551,0 -0.34384,0.1588103 -0.34384,0.3440889 V 10.648923 M 261.7154,40.97616 c 0,0.185518 0.15833,0.343848 0.34385,0.343848 0.13275,0 0.29108,-0.105553 0.31747,-0.211906 0,-0.02639 0.23829,-0.952382 0.26468,-1.031547 0.0264,-0.106354 0.26468,-1.112311 1.21786,-2.674025 1.03235,-1.720045 2.62045,-2.964297 3.94387,-4.817084 1.29703,-1.852786 2.09108,-3.599218 2.09108,-5.928595 0,-2.408542 -0.55576,-4.420378 -1.95914,-6.98781 -0.0792,-0.185279 -0.23829,-0.291153 -0.39662,-0.291153 -0.0527,0 -0.10635,0 -0.13274,0.02647 -0.13195,0.05294 -0.18473,0.15881 -0.18473,0.31762 0,0.0794 0.0264,0.211747 0.0792,0.31762 1.05873,2.461559 1.48255,3.864063 1.48255,5.770425 0,2.196636 -0.76767,3.334536 -1.24425,4.154976 -1.72085,2.937909 -4.49963,4.36768 -5.61114,4.737918 -0.18552,0.07996 -0.21191,0.211907 -0.21191,0.291072 v 5.982172 m 162.6837,142.142349 c 0,0.18551 0.15913,0.34385 0.34385,0.34385 0.13274,0 0.29108,-0.10556 0.31746,-0.21191 0,-0.0264 0.2383,-0.95238 0.26469,-1.03235 0.0272,-0.10555 0.26468,-1.11151 1.21786,-2.67322 1.03235,-1.72005 2.62044,-2.9643 3.94387,-4.81709 1.29703,-1.85278 2.09108,-3.59921 2.09108,-5.92859 0,-2.40854 -0.55576,-4.42046 -1.95914,-6.98813 -0.0792,-0.18471 -0.23749,-0.29107 -0.39663,-0.29107 -0.0527,0 -0.10555,0 -0.13274,0.0264 -0.13194,0.0535 -0.18472,0.15913 -0.18472,0.31826 0,0.0792 0.0264,0.2111 0.0792,0.31746 1.05874,2.46132 1.48256,3.8639 1.48256,5.77027 0,2.19663 -0.76767,3.33453 -1.24426,4.15497 -1.72084,2.93791 -4.49962,4.36768 -5.61113,4.73791 -0.18552,0.0792 -0.21191,0.21191 -0.21191,0.29108 v 5.98217 M 105.74633,15.607384 c 0,0.0794 0.0264,0.211746 0.2119,0.291151 1.1379,0.370557 3.4145,1.79985 5.13455,4.737839 0.47659,0.82052 1.24425,1.95866 1.24425,4.155694 0,1.905563 -0.50297,3.863902 -1.19148,5.770265 -0.0527,0.158331 -0.10555,0.291072 -0.0792,0.396626 0,0.15913 0.10635,0.264683 0.26468,0.264683 0.18552,0 0.31746,-0.105553 0.42381,-0.291072 1.19069,-2.11747 1.64089,-4.578788 1.64089,-6.98733 -0.13275,-3.41474 -2.09109,-5.929235 -2.09109,-5.929235 0.0792,0 -2.43492,-3.255609 -3.14981,-4.367281 -0.97957,-1.508698 -1.42897,-3.017395 -1.48175,-3.123268 -0.0272,-0.07941 -0.26469,-1.0322667 -0.26469,-1.0322667 -0.0272,-0.1058734 -0.15913,-0.211747 -0.31826,-0.211747 -0.18471,0 -0.34384,0.1588103 -0.34384,0.3440888 v 5.9818529 m 69.29036,28.674522 c 0,0.184718 0.15913,0.343848 0.34465,0.343848 0.13194,0 0.29106,-0.105553 0.31745,-0.211907 0,-0.02639 0.2383,-0.952381 0.26468,-1.032346 0.0264,-0.105554 0.26469,-1.111512 1.21787,-2.673226 1.03155,-1.720044 2.61965,-2.964298 3.94307,-4.817083 1.29703,-1.852786 2.09108,-3.600018 2.09108,-5.928595 0,-2.408543 -0.55575,-4.420459 -1.95834,-6.98789 -0.0792,-0.185279 -0.2383,-0.291153 -0.39742,-0.291153 -0.0527,0 -0.10556,0 -0.13194,0.02647 -0.13275,0.05294 -0.18552,0.158811 -0.18552,0.317621 0,0.0794 0.0264,0.211747 0.0799,0.31786 1.05874,2.461319 1.48175,3.863903 1.48175,5.769466 0,2.197435 -0.76766,3.335335 -1.24425,4.155774 -1.72005,2.937909 -4.49962,4.367681 -5.61114,4.737919 -0.18472,0.07916 -0.2119,0.211907 -0.2119,0.291072 v 5.982172 m 254.16787,49.068786 v 18.723026 h 0.66143 V 93.350692 Z m 122.91162,0 v 18.723026 h 0.66128 V 93.350692 Z M 283.49576,74.059168 v 20.42868 h 0.66142 V 74.059168 Z M 606.95132,86.73922 v 22.02876 h 0.66126 V 86.73922 Z M 254.65812,75.712033 V 97.79358 h 0.66127 V 75.712033 Z m 403.48351,0 V 97.79358 h 0.66128 V 75.712033 Z M 225.82032,74.059168 v 20.42868 h 0.66143 V 74.059168 Z M 149.60833,6.2934703 V 28.375333 h 0.66128 V 6.2934703 Z m -26.31734,6.6111577 v 22.081393 h 0.66127 V 12.904628 Z m 51.74616,11.02781 v 20.3495 h 0.66128 v -20.3495 z M 57.758996,145.13044 v 22.0814 h 0.661277 v -22.0814 z m 28.992108,3.30495 v 22.08218 h 0.661269 V 148.43539 Z M 144.27224,75.712033 V 97.79358 h 0.66127 V 75.712033 Z M 115.7432,145.13044 v 22.0814 h 0.66128 v -22.0814 z M 115.43444,75.712033 V 97.79358 h 0.66127 V 75.712033 Z m 29.30072,69.418407 v 22.0814 h 0.66128 v -22.0814 z M 86.596795,79.016989 v 22.082331 h 0.66127 V 79.016989 Z M 188.22325,145.13044 v 22.0814 h 0.66142 v -22.0814 z M 57.758996,75.712033 V 97.79358 h 0.661277 V 75.712033 Z M 105.74589,9.6519947 V 31.681065 h 0.66141 V 9.6519947 Z M 355.58971,74.059168 v 20.42868 h 0.66144 V 74.059168 Z M 200.5155,4.6406029 V 25.069595 h 0.66127 V 4.6406029 Z M 226.66963,143.47757 v 20.42853 h 0.66127 v -20.42853 z m 28.9921,1.65287 v 22.0814 h 0.66128 v -22.0814 z M 660.66131,6.2934703 V 28.375333 h 0.66127 V 6.2934703 Z M 228.35373,23.932438 V 42.65546 h 0.66128 V 23.932438 Z m 56.29995,119.545132 v 20.42853 h 0.66128 v -20.42853 z m 28.99212,0 v 20.42853 h 0.66127 v -20.42853 z m 35.55484,15.9858 v 20.37573 h 0.66128 V 159.46337 Z M 591.61883,6.2934703 V 28.375333 h 0.66128 V 6.2934703 Z M 387.64687,162.7691 v 18.72287 h 0.66128 V 162.7691 Z M 513.82426,90.04496 v 20.37588 h 0.66127 V 90.04496 Z m 27.75265,-77.140332 v 22.081393 h 0.66127 V 12.904628 Z M 494.5991,86.73922 v 22.00237 h 0.66128 V 86.73922 Z M 261.71502,20.626548 v 20.34965 h 0.66127 V 20.626548 Z M 424.3987,162.7691 v 20.34934 h 0.66127 V 162.7691 Z M 505.80544,6.2934703 V 28.375333 h 0.66127 V 6.2934703 Z M 451.66031,143.47757 v 20.42853 h 0.66128 V 143.47757 Z M 487.91408,4.6933916 V 25.069595 h 0.66127 V 4.6933916 Z M 458.04236,83.433489 v 22.028761 h 0.66127 V 83.433489 Z m 22.61007,65.001901 v 22.08218 h 0.66127 v -22.08218 z m 28.9921,-3.30495 v 22.0814 h 0.66127 v -22.0814 z M 446.61863,23.932438 V 42.65546 h 0.66126 V 23.932438 Z m 92.01785,131.114432 v 22.08154 h 0.66143 V 155.04687 Z M 428.23467,12.904628 v 22.081393 h 0.66127 V 12.904628 Z m -355.850067,0 v 22.081393 h 0.661276 V 12.904628 Z m 316.373817,0 v 22.081393 h 0.66127 V 12.904628 Z M 187.52839,75.712033 V 97.79358 h 0.66127 V 75.712033 Z m 91.73173,-58.391064 v 22.02876 h 0.66127 V 17.320969 Z M 577.08287,151.74114 v 22.08138 h 0.66127 V 151.74114 Z M 352.98695,16.210363 v 22.08139 h 0.66127 v -22.08139 z m 32.96146,77.140329 v 18.723028 h 0.66127 V 93.350692 Z M 313.51148,16.210363 v 22.08139 h 0.66127 v -22.08139 z m -1.17793,57.848805 v 20.42868 h 0.66128 V 74.059168 Z M 624.27807,162.7691 v 18.72287 h 0.66143 V 162.7691 Z m -99.61659,13.45884 2.35577,-0.4766 v 4.36688 l -2.35577,0.50299 v -4.39327 m 4.103,-0.82044 c 0.15833,-0.0264 0.29107,-0.21191 0.29107,-0.37103 v -1.56172 c 0,-0.21111 -0.15913,-0.37024 -0.37023,-0.37024 h -0.0535 l -0.87322,0.18552 v -3.94387 h -0.74127 v 4.1022 l -2.35577,0.47658 v -3.73195 h -0.74047 v 3.89109 l -1.03235,0.21111 c -0.15913,0.0272 -0.29107,0.2119 -0.29107,0.37103 v 1.53533 c 0,0.21111 0.15833,0.37024 0.37023,0.37024 h 0.0792 l 0.87402,-0.18552 v 4.36768 l -1.03235,0.2119 c -0.15913,0.0264 -0.29107,0.21111 -0.29107,0.37025 v 1.53532 c 0,0.2119 0.15833,0.37023 0.37023,0.37023 h 0.0792 l 0.87402,-0.18471 V 187 h 0.74047 v -4.10219 l 2.35577,-0.47659 v 3.73195 h 0.74127 v -3.89029 l 1.00596,-0.18552 c 0.15833,-0.0264 0.29107,-0.2119 0.29107,-0.37103 v -1.56092 c 0,-0.2119 -0.15913,-0.37103 -0.37023,-0.37103 h -0.0535 l -0.87322,0.18552 v -4.36768 l 1.00596,-0.18472 m 147.8346,-27.33522 v 27.17212 h 3.63607 v -27.17212 z m -3.63558,0 v 27.17212 h 1.18979 v -27.17212 z m -2.44456,16.89181 c 0,-0.76766 -0.60853,-1.40339 -1.3762,-1.40339 -0.76765,0 -1.37619,0.63573 -1.37619,1.40339 0,0.76766 0.60854,1.40258 1.37619,1.40258 0.76767,0 1.3762,-0.63492 1.3762,-1.40258 m 0,-6.6115 c 0,-0.76766 -0.60853,-1.40259 -1.3762,-1.40259 -0.76765,0 -1.37619,0.63493 -1.37619,1.40259 0,0.76766 0.60854,1.40258 1.37619,1.40258 0.76767,0 1.3762,-0.63492 1.3762,-1.40258 M 679.04572,9.2354585 V 36.407741 h 1.1898 V 9.2354585 Z m -154.8568,0 V 36.407741 h 1.18979 V 9.2354585 Z M 208.43327,78.654021 V 105.826 h 1.18979 V 78.654021 Z m 351.2624,69.418259 v 27.17212 h 1.18994 V 148.07228 Z M 376.4946,78.654021 V 105.826 h 1.18978 V 78.654021 Z M 371.37121,9.2354585 V 36.407741 h 1.18995 V 9.2354585 Z M 542.66237,78.654021 V 105.826 h 1.18994 V 78.654021 Z M 631.99468,9.2354585 V 36.407741 h 3.63607 V 9.2354585 Z m -3.63559,0 V 36.407741 h 1.18995 V 9.2354585 Z M 625.9146,26.127482 c 0,-0.767664 -0.60853,-1.403384 -1.3762,-1.403384 -0.76766,0 -1.37619,0.63572 -1.37619,1.403384 0,0.767662 0.60853,1.402583 1.37619,1.402583 0.76767,0 1.3762,-0.634921 1.3762,-1.402583 m 0,-6.611576 c 0,-0.767582 -0.60853,-1.402823 -1.3762,-1.402823 -0.76766,0 -1.37619,0.635241 -1.37619,1.402823 0,0.767582 0.60853,1.402823 1.37619,1.402823 0.76767,0 1.3762,-0.635241 1.3762,-1.402823 m 53.13112,59.138115 V 105.826 h 1.1898 V 78.654021 Z M 209.28243,148.07228 v 27.17212 h 1.18994 V 148.07228 Z M 218.89977,9.2354585 V 36.407741 h 1.18993 V 9.2354585 Z M 644.46565,26.127482 c 0,-0.767664 -0.60854,-1.403384 -1.3762,-1.403384 -0.76766,0 -1.37619,0.63572 -1.37619,1.403384 0,0.767662 0.60853,1.402583 1.37619,1.402583 0.76766,0 1.3762,-0.634921 1.3762,-1.402583 m 0,-6.611576 c 0,-0.767582 -0.60854,-1.402823 -1.3762,-1.402823 -0.76766,0 -1.37619,0.635241 -1.37619,1.402823 0,0.767582 0.60853,1.402823 1.37619,1.402823 0.76766,0 1.3762,-0.635241 1.3762,-1.402823 M 638.07733,9.2354585 V 36.407741 h 1.18979 V 9.2354585 Z m -6.08265,0 V 36.407741 h 3.63607 V 9.2354585 Z M 378.19307,148.07228 v 27.17212 h 1.18978 V 148.07228 Z M 0,174.51707 v 0.72686 h 680.23552 v -0.72686 z m 0,-6.61069 v 0.72686 h 680.23552 v -0.72686 z m 0,-6.61147 v 0.72686 h 680.23552 v -0.72686 z m 0,-6.61147 v 0.72686 h 680.23552 v -0.72686 z m 0,-6.61148 v 0.72687 h 680.23552 v -0.72687 z m 0,-42.97315 v 0.72688 h 680.23552 v -0.72688 z m 0,-6.610687 v 0.726864 h 680.23552 v -0.726864 z m 0,-6.611472 v 0.726866 h 680.23552 v -0.726866 z m 0,-6.611623 v 0.727025 h 680.23552 v -0.727025 z m 0,-6.611471 v 0.726864 H 680.23552 V 78.653557 Z M 0,35.680556 v 0.726873 h 680.23552 v -0.726873 z m 0,-6.610839 v 0.727024 h 680.23552 v -0.727024 z m 0,-6.61163 v 0.726869 h 680.23552 v -0.726869 z m 0,-6.611158 v 0.726868 H 680.23552 V 15.846929 Z M 0,9.2356153 V 9.9624832 H 680.23552 V 9.2356153 Z"
     style="stroke-width:0.0799648" />
  <metadata
     id="metadata165">
    <rdf:RDF>
      <cc:Work
         rdf:about="">
        <dc:title>air_III.midi</dc:title>
      </cc:Work>
    </rdf:RDF>
  </metadata>
</svg>
