<?xml version="1.0" encoding="UTF-8" standalone="no"?>
<svg
   width="681"
   height="116.60989"
   version="1.2"
   id="svg146"
   xmlns="http://www.w3.org/2000/svg"
   xmlns:svg="http://www.w3.org/2000/svg"
   xmlns:rdf="http://www.w3.org/1999/02/22-rdf-syntax-ns#"
   xmlns:cc="http://creativecommons.org/ns#"
   xmlns:dc="http://purl.org/dc/elements/1.1/">
  <defs
     id="defs146" />
  <title
     id="title1">air_XXVI</title>
  <desc
     id="desc1">Generated by MuseScore Studio 4.7.3</desc>
  <path
     id="path146"
     class="Beam"
     d="M 73.392569,4.639092 91.78274,2.9844406 V 6.3071925 L 73.392569,7.9618439 V 4.639092 M 600.03346,34.429701 h 16.61696 v 3.309463 h -16.61696 v -3.309463 m -310.81492,74.450109 14.65642,-1.65474 v 3.33028 l -14.65642,1.65473 v -3.33027 m 74.81355,-71.148651 16.61696,1.654731 v 3.325474 l -16.61696,-1.654732 v -3.325473 m 47.55972,36.409695 42.64436,-1.654732 v 3.311865 l -42.64436,1.654731 V 74.140854 M 304.0887,4.637651 320.70567,2.9829196 V 6.3086335 L 304.0887,7.9633649 V 4.637651 m 184.47094,69.493596 14.65562,-1.653931 v 3.330277 l -14.65562,1.654732 V 74.131247 M 135.10916,37.731159 151.72613,39.38589 v 3.325474 l -16.61697,-1.654732 v -3.325473 m -86.543966,-19.6271 c -0.662053,0.423969 -1.139179,1.192415 -1.139179,2.040355 0,0.105992 0,0.211985 0.02642,0.317977 0.132891,1.086423 1.007088,1.934363 2.093431,2.066853 h 0.291399 c 1.324906,0 2.384831,-1.059924 2.384831,-2.38483 v -0.158989 c 0,-0.105992 -0.02642,-0.291479 -0.05284,-0.397472 -0.238563,-1.139419 -1.27207,-3.577246 -5.77675,-3.577246 -5.77675,0 -6.438803,4.79616 -6.438803,6.518537 0,3.153677 0.397072,7.101176 7.021601,7.101176 2.623394,0 4.663989,-1.536251 4.769662,-4.371789 0,-0.132891 -0.07926,-0.212146 -0.212145,-0.212146 h -0.344236 c -0.105672,0 -0.212145,0.106473 -0.212145,0.212146 -0.105672,2.199103 -1.669141,3.524009 -4.001136,3.524009 -2.304775,0 -3.418337,-1.244851 -3.418337,-3.576846 v -5.06138 c 0,-1.483895 0.583599,-3.179774 2.941211,-3.179774 1.245652,0 1.802032,0.450468 2.093432,0.900936 0.02642,0.053 0.02642,0.07949 0.02642,0.13249 0,0.0265 0,0.07949 -0.05284,0.105993 M 28.940575,7.64899 31.298988,7.1720239 v 4.3721891 l -2.358413,0.503465 V 7.64899 m 4.107609,-0.8214417 c 0.159309,-0.026498 0.291399,-0.2119849 0.291399,-0.3709736 v -1.563389 c 0,-0.2119849 -0.159309,-0.3709736 -0.370653,-0.3709736 H 32.91529 L 32.041095,4.7076989 V 0.75947929 H 31.298988 V 4.8666876 L 28.940575,5.3436537 V 1.6074191 h -0.741307 v 3.8952233 l -1.033506,0.211985 c -0.159309,0.026498 -0.2914,0.2119849 -0.2914,0.3709736 v 1.5368909 c 0,0.2119849 0.158509,0.3709736 0.370654,0.3709736 h 0.07925 l 0.874998,-0.1854868 v 4.3721893 l -1.033506,0.211985 c -0.159309,0.0265 -0.2914,0.211985 -0.2914,0.370974 v 1.536891 c 0,0.211985 0.158509,0.370973 0.370654,0.370973 h 0.07925 l 0.874998,-0.185487 v 3.94822 h 0.741307 V 14.326516 L 31.29898,13.84955 v 3.736234 h 0.742107 v -3.895223 l 1.007089,-0.185487 c 0.159309,-0.0265 0.291399,-0.211985 0.291399,-0.370974 v -1.563389 c 0,-0.211984 -0.159309,-0.370973 -0.370653,-0.370973 h -0.05364 l -0.874198,0.185487 V 7.0130351 l 1.007089,-0.1854868 m -4.107609,70.3177597 2.358413,-0.477126 v 4.372589 l -2.358413,0.503545 v -4.399008 m 4.107609,-0.821362 c 0.159309,-0.02642 0.291399,-0.212145 0.291399,-0.371454 v -1.562668 c 0,-0.212145 -0.159309,-0.371454 -0.370653,-0.371454 h -0.05364 l -0.874198,0.185727 v -3.9483 h -0.742107 v 4.106808 l -2.358413,0.477126 v -3.736154 h -0.741307 v 3.895463 l -1.033506,0.212145 c -0.159309,0.02642 -0.2914,0.211345 -0.2914,0.370654 v 1.537051 c 0,0.212145 0.158509,0.370653 0.370654,0.370653 h 0.07925 l 0.874998,-0.184926 v 4.371789 l -1.033506,0.212145 c -0.159309,0.02642 -0.2914,0.212145 -0.2914,0.370654 v 1.53705 c 0,0.212146 0.158509,0.370654 0.370654,0.370654 h 0.07925 l 0.874998,-0.184927 v 3.9483 h 0.741307 v -4.107608 l 2.358413,-0.477127 v 3.736155 h 0.742107 v -3.894663 l 1.007089,-0.185727 c 0.159309,-0.02642 0.291399,-0.212145 0.291399,-0.370653 v -1.56347 c 0,-0.212145 -0.159309,-0.371453 -0.370653,-0.371453 h -0.05364 l -0.874198,0.185726 v -4.371789 l 1.007089,-0.185727 M 16.093311,34.924439 c -0.529962,0.106473 -1.033427,0.159309 -1.536891,0.159309 -3.789231,0 -7.0220012,-2.649811 -7.0220012,-6.650947 0,-3.233411 2.2788382,-6.121386 4.6106722,-8.135243 0.450468,-0.397471 0.874438,-0.768445 1.27191,-1.165917 0.238483,1.430899 0.42397,2.67631 0.609457,3.762733 -2.411329,0.715129 -4.0542123,3.259268 -4.0542123,5.749771 0,1.854869 1.4573963,4.399008 3.5772463,4.399008 0.211985,0 0.450468,-0.105672 0.450468,-0.344235 0,-0.238563 -0.264982,-0.371454 -0.582959,-0.582799 -1.033427,-0.636435 -1.616385,-1.324906 -1.616385,-2.623393 0,-1.616306 1.192415,-2.914793 2.755804,-3.286247 l 1.536891,8.71796 M 13.761477,7.6844542 c 0.238483,-1.0599247 1.457396,-3.8422271 2.835298,-3.8422271 0.397472,0 1.033427,1.2984078 1.033427,3.1267779 0,2.7558043 -2.040355,4.822658 -3.868725,6.62453 -0.158989,-1.059925 -0.29148,-2.093352 -0.29148,-3.206273 0,-0.9804301 0.0795,-1.8813661 0.29148,-2.7028078 m 6.094567,22.3382338 c 0,1.881286 -0.768446,3.815409 -2.649812,4.583934 -0.556461,-3.179774 -1.27191,-7.393055 -1.457397,-8.558652 2.384831,0 4.107209,1.616305 4.107209,3.974718 M 8.1968718,43.059602 c 0,1.748395 1.351404,4.053972 4.9286502,4.053972 1.245411,0 2.331834,-0.317818 3.285766,-0.900616 1.430899,-1.007089 1.801872,-2.756285 1.801872,-4.425426 0,-1.033507 -0.158988,-2.225522 -0.423969,-3.736154 -0.07949,-0.529963 -0.238484,-1.324906 -0.397472,-2.358413 2.596815,-0.84778 4.531178,-3.550428 4.531178,-6.280294 0,-4.001136 -2.835299,-6.703784 -6.704024,-6.703784 -0.264981,-1.589887 -0.529962,-3.153276 -0.768445,-4.637171 2.8088,-2.941291 4.743163,-6.253555 4.743163,-10.4667561 0,-2.4113288 -0.741948,-4.3721895 -1.165917,-5.3261218 C 17.391719,0.92743413 16.623273,0 16.146307,0 15.96082,0 15.139379,0.31797742 14.264941,1.351404 c -1.69588,2.013857 -2.172846,5.4056161 -2.172846,7.631458 0,1.430898 0.132491,2.729306 0.582959,5.697095 -0.0265,0.0265 -1.404401,1.430899 -1.960861,1.881367 -2.4113287,2.25234 -5.7500916,5.458612 -5.7500916,10.757915 0,4.955389 4.3191932,8.850852 9.2478436,8.850852 0.768445,0 1.483894,-0.07925 2.093351,-0.185727 0.503464,2.54414 0.794943,4.399008 0.794943,5.803168 0,2.755484 -1.4044,4.213281 -4.08071,4.213281 -0.635955,0 -1.192415,-0.132891 -1.245411,-0.132891 -0.0265,-0.02642 -0.07949,-0.05284 -0.07949,-0.07925 0,-0.05284 0.053,-0.07925 0.132491,-0.105672 1.245412,-0.185727 2.490823,-1.245652 2.490823,-2.941211 0,-1.431379 -1.086423,-2.941211 -3.073782,-2.941211 -1.8548679,0 -3.0472832,1.509832 -3.0472832,3.259028 m 7.8964392,61.361154 c -0.529962,0.10647 -1.033427,0.15931 -1.536891,0.15931 -3.789231,0 -7.0220012,-2.64982 -7.0220012,-6.650947 0,-3.233411 2.2788382,-6.120985 4.6106722,-8.135163 0.450468,-0.397872 0.874438,-0.768525 1.27191,-1.165597 0.238483,1.430579 0.42397,2.67623 0.609457,3.762573 -2.411329,0.714889 -4.0542123,3.259028 -4.0542123,5.749531 0,1.854869 1.4573963,4.399003 3.5772463,4.399003 0.211985,0 0.450468,-0.10567 0.450468,-0.34423 0,-0.23857 -0.264982,-0.37146 -0.582959,-0.5828 -1.033427,-0.63644 -1.616385,-1.32491 -1.616385,-2.623392 0,-1.616306 1.192415,-2.914793 2.755804,-3.286247 l 1.536891,8.717959 M 13.761477,77.180532 c 0.238483,-1.059925 1.457396,-3.841827 2.835298,-3.841827 0.397472,0 1.033427,1.298488 1.033427,3.126938 0,2.755484 -2.040355,4.822498 -3.868725,6.62453 -0.158989,-1.059925 -0.29148,-2.093432 -0.29148,-3.206193 0,-0.98067 0.0795,-1.882086 0.29148,-2.703448 m 6.094567,22.338474 c 0,1.881284 -0.768446,3.815404 -2.649812,4.583934 -0.556461,-3.17977 -1.27191,-7.393055 -1.457397,-8.558652 2.384831,0 4.107209,1.616305 4.107209,3.974718 M 8.1968718,112.55592 c 0,1.7484 1.351404,4.05397 4.9286502,4.05397 1.245411,0 2.331834,-0.31782 3.285766,-0.90061 1.430899,-1.00709 1.801872,-2.75629 1.801872,-4.42543 0,-1.03351 -0.158988,-2.22552 -0.423969,-3.73615 -0.07949,-0.52997 -0.238484,-1.32491 -0.397472,-2.35842 2.596815,-0.84778 4.531178,-3.55042 4.531178,-6.280291 0,-4.001136 -2.835299,-6.703784 -6.704024,-6.703784 -0.264981,-1.589887 -0.529962,-3.153356 -0.768445,-4.63677 2.8088,-2.942012 4.743163,-6.253876 4.743163,-10.467157 0,-2.411249 -0.741948,-4.371789 -1.165917,-5.326042 -0.635955,-1.351324 -1.404401,-2.279158 -1.881367,-2.279158 -0.185487,0 -1.006928,0.318618 -1.881366,1.351324 -1.69588,2.014177 -2.172846,5.406096 -2.172846,7.631618 0,1.431379 0.132491,2.729866 0.582959,5.697495 -0.0265,0.02642 -1.404401,1.430579 -1.960861,1.881287 -2.4113287,2.25194 -5.7500916,5.458132 -5.7500916,10.757755 0,4.955393 4.3191932,8.850853 9.2478436,8.850853 0.768445,0 1.483894,-0.0793 2.093351,-0.18573 0.503464,2.54414 0.794943,4.39901 0.794943,5.80317 0,2.75548 -1.4044,4.21328 -4.08071,4.21328 -0.635955,0 -1.192415,-0.13289 -1.245411,-0.13289 -0.0265,-0.0264 -0.07949,-0.0528 -0.07949,-0.0793 0,-0.0528 0.053,-0.0793 0.132491,-0.10568 1.245412,-0.18572 2.490823,-1.24565 2.490823,-2.94121 0,-1.43138 -1.086423,-2.94121 -3.073782,-2.94121 -1.8548679,0 -3.0472832,1.50983 -3.0472832,3.25903 M 91.863595,86.837535 c 0,1.139979 0.822163,2.411249 2.96843,2.411249 2.755484,0 5.643855,-2.25194 5.643855,-4.583935 0,-1.563469 -1.324902,-2.437666 -2.967625,-2.437666 -2.570558,0 -5.64466,2.172685 -5.64466,4.610352 M 151.06407,23.960143 c 0,1.139179 0.82137,2.411248 2.96763,2.411248 2.75549,0 5.64386,-2.251939 5.64386,-4.584094 0,-1.563389 -1.3249,-2.437827 -2.96763,-2.437827 -2.57055,0 -5.64386,2.172846 -5.64386,4.610673 m 15.95491,3.309463 c 0,1.139178 0.82136,2.411248 2.96763,2.411248 2.75629,0 5.64386,-2.25274 5.64386,-4.583934 0,-1.563469 -1.32491,-2.438067 -2.96763,-2.438067 -2.56976,0 -5.64386,2.173086 -5.64386,4.610753 m 23.93237,3.309462 c 0,1.139179 0.82136,2.411249 2.96763,2.411249 2.75628,0 5.64466,-2.25274 5.64466,-4.583934 0,-1.563469 -1.32491,-2.438468 -2.96763,-2.438468 -2.57056,0 -5.64466,2.173487 -5.64466,4.611153 m 303.65962,62.877393 c 0,1.139179 0.82136,2.411248 2.96763,2.411248 2.75629,0 5.64466,-2.251939 5.64466,-4.583934 0,-1.563469 -1.3249,-2.437667 -2.96763,-2.437667 -2.57056,0 -5.64466,2.172686 -5.64466,4.610353 M 224.34858,27.269606 c 0,1.139178 0.82136,2.411248 2.96843,2.411248 2.75549,0 5.64386,-2.25274 5.64386,-4.583934 0,-1.563469 -1.32491,-2.438067 -2.96763,-2.438067 -2.57056,0 -5.64466,2.173086 -5.64466,4.610753 m 319.25189,66.186855 c 0,1.139179 0.82136,2.411248 2.96763,2.411248 2.75628,0 5.64466,-2.251939 5.64466,-4.583934 0,-1.563469 -1.32491,-2.437667 -2.96843,-2.437667 -2.56976,0 -5.64386,2.172686 -5.64386,4.610353 m -62.98307,3.309462 c 0,1.139179 0.82137,2.411249 2.96763,2.411249 2.75549,0 5.64386,-2.25274 5.64386,-4.583934 0,-1.563469 -1.3249,-2.438467 -2.96763,-2.438467 -2.57055,0 -5.64386,2.173486 -5.64386,4.611152 M 248.28175,33.888531 c 0,1.139179 0.82136,2.411249 2.96763,2.411249 2.75548,0 5.64385,-2.25274 5.64385,-4.584735 0,-1.563469 -1.3249,-2.437667 -2.96763,-2.437667 -2.57055,0 -5.64385,2.172686 -5.64385,4.611153 m 211.3437,66.186859 c 0,1.13918 0.82216,2.41124 2.96843,2.41124 2.75549,0 5.64386,-2.25274 5.64386,-4.583929 0,-1.563469 -1.32491,-2.438468 -2.96763,-2.438468 -2.57056,0 -5.64466,2.173487 -5.64466,4.611157 M 272.21411,30.579068 c 0,1.139179 0.82136,2.411249 2.96763,2.411249 2.75628,0 5.64386,-2.25274 5.64386,-4.583934 0,-1.563469 -1.32491,-2.438468 -2.96763,-2.438468 -2.56976,0 -5.64386,2.173487 -5.64386,4.611153 m 173.41777,62.877393 c 0,1.139179 0.82137,2.411248 2.96763,2.411248 2.75549,0 5.64386,-2.251939 5.64386,-4.583934 0,-1.563469 -1.3249,-2.437667 -2.96763,-2.437667 -2.57055,0 -5.64386,2.172686 -5.64386,4.610353 M 296.14647,27.269606 c 0,1.139178 0.82136,2.411248 2.96763,2.411248 2.75629,0 5.64466,-2.25274 5.64466,-4.583934 0,-1.563469 -1.3249,-2.438067 -2.96763,-2.438067 -2.57055,0 -5.64466,2.173086 -5.64466,4.610753 m 135.49105,69.496317 c 0,1.139179 0.82136,2.411249 2.96762,2.411249 2.75629,0 5.64466,-2.25274 5.64466,-4.583934 0,-1.563469 -1.3249,-2.438467 -2.96843,-2.438467 -2.56975,0 -5.64385,2.173486 -5.64385,4.611152 M 135.10916,20.65076 c 0,1.139419 0.82137,2.411329 2.96763,2.411329 2.75549,0 5.64386,-2.25234 5.64386,-4.584175 0,-1.563389 -1.3249,-2.437827 -2.96763,-2.437827 -2.57055,0 -5.64386,2.172846 -5.64386,4.610673 m 282.53399,79.42463 c 0,1.13918 0.82136,2.41124 2.96843,2.41124 2.75548,0 5.64386,-2.25274 5.64386,-4.583929 0,-1.563469 -1.32491,-2.438468 -2.96763,-2.438468 -2.57056,0 -5.64466,2.173487 -5.64466,4.611157 M 312.10138,23.960143 c 0,1.139179 0.82216,2.411248 2.96843,2.411248 2.75549,0 5.64386,-2.251939 5.64386,-4.584094 0,-1.563389 -1.3249,-2.437827 -2.96763,-2.437827 -2.57056,0 -5.64466,2.172846 -5.64466,4.610673 m 252.49024,72.80578 c 0,1.139179 0.82136,2.411249 2.96763,2.411249 2.75629,0 5.64466,-2.25274 5.64466,-4.583934 0,-1.563469 -1.32491,-2.438467 -2.96843,-2.438467 -2.56976,0 -5.64386,2.173486 -5.64386,4.611152 m -160.94204,0 c 0,1.139179 0.82136,2.411249 2.96763,2.411249 2.75548,0 5.64386,-2.25274 5.64386,-4.583934 0,-1.563469 -1.32491,-2.438467 -2.96763,-2.438467 -2.57056,0 -5.64386,2.173486 -5.64386,4.611152 M 340.09973,20.65076 c 0,1.139419 0.82136,2.411329 2.96763,2.411329 2.75628,0 5.64465,-2.25234 5.64465,-4.584175 0,-1.563389 -1.3249,-2.437827 -2.96762,-2.437827 -2.57056,0 -5.64466,2.172846 -5.64466,4.610673 m 23.93236,0 c 0,1.139419 0.82216,2.411329 2.96843,2.411329 2.75548,0 5.64386,-2.25234 5.64386,-4.584175 0,-1.563389 -1.32491,-2.437827 -2.96763,-2.437827 -2.57056,0 -5.64466,2.172846 -5.64466,4.610673 m -252.85609,0 c 0,1.139419 0.82136,2.411329 2.96843,2.411329 2.75548,0 5.64386,-2.25234 5.64386,-4.584175 0,-1.563389 -1.32491,-2.437827 -2.96763,-2.437827 -2.57056,0 -5.64466,2.172846 -5.64466,4.610673 m 253.50934,80.59022 c -0.875,0 -1.05993,-0.71569 -1.05993,-0.95345 0,-1.298486 4.45185,-3.577645 5.6967,-3.577645 0.63643,0 1.05992,0.370654 1.05992,0.954253 0,1.324906 -4.47826,3.576842 -5.69669,3.576842 m 3.6569,-5.776747 c -2.57056,0 -5.64466,2.146268 -5.64466,4.611157 0,1.13918 0.82136,2.41124 2.96763,2.41124 2.75628,0 5.64466,-2.25274 5.64466,-4.583929 0,-1.563469 -1.32491,-2.438468 -2.96763,-2.438468 m 11.64556,-71.50409 c 0,1.139179 0.82136,2.411248 2.96763,2.411248 2.75548,0 5.64386,-2.251939 5.64386,-4.584094 0,-1.563389 -1.32491,-2.437827 -2.96763,-2.437827 -2.57056,0 -5.64386,2.172846 -5.64386,4.610673 m -46.78959,64.043789 c -0.8742,0 -1.05993,-0.715689 -1.05993,-0.954252 0,-1.298488 4.45185,-3.576846 5.6975,-3.576846 0.63563,0 1.05992,0.370654 1.05992,0.953452 0,1.324906 -4.47826,3.577646 -5.69749,3.577646 m 3.6569,-5.776749 c -2.57056,0 -5.64386,2.146267 -5.64386,4.610352 0,1.139979 0.82136,2.411249 2.96763,2.411249 2.75548,0 5.64386,-2.25194 5.64386,-4.583935 0,-1.563469 -1.32491,-2.437666 -2.96763,-2.437666 m 59.0876,-54.957577 c 0,1.139178 0.82136,2.411248 2.96763,2.411248 2.75548,0 5.64386,-2.25274 5.64386,-4.583934 0,-1.563469 -1.32491,-2.438067 -2.96763,-2.438067 -2.57056,0 -5.64386,2.173086 -5.64386,4.610753 m 23.93236,3.309462 c 0,1.139179 0.82136,2.411249 2.96763,2.411249 2.75629,0 5.64466,-2.25274 5.64466,-4.583934 0,-1.563469 -1.3249,-2.438468 -2.96843,-2.438468 -2.56976,0 -5.64386,2.173487 -5.64386,4.611153 m 35.385,-2.143866 c -0.875,0 -1.05993,-0.714888 -1.05993,-0.953451 0,-1.298488 4.45185,-3.577647 5.6967,-3.577647 0.63643,0 1.05992,0.371454 1.05992,0.954253 0,1.324906 -4.47826,3.576845 -5.69669,3.576845 m 3.6569,-5.776349 c -2.57056,0 -5.64466,2.146668 -5.64466,4.610753 0,1.139178 0.82136,2.411248 2.96763,2.411248 2.75628,0 5.64466,-2.25274 5.64466,-4.583934 0,-1.563469 -1.32491,-2.438067 -2.96763,-2.438067 M 303.21291,90.146998 c 0,1.139179 0.82136,2.411248 2.96762,2.411248 2.75549,0 5.64386,-2.251939 5.64386,-4.583934 0,-1.563469 -1.3249,-2.437667 -2.96763,-2.437667 -2.57055,0 -5.64385,2.172686 -5.64385,4.610353 m 185.95834,-59.56793 c 0,1.139179 0.82137,2.411249 2.96763,2.411249 2.75629,0 5.64466,-2.25274 5.64466,-4.583934 0,-1.563469 -1.3249,-2.438468 -2.96763,-2.438468 -2.57055,0 -5.64466,2.173487 -5.64466,4.611153 m 96.41152,69.496322 c 0,1.13918 0.82137,2.41124 2.96763,2.41124 2.75629,0 5.64466,-2.25274 5.64466,-4.583929 0,-1.563469 -1.3249,-2.438468 -2.96763,-2.438468 -2.57055,0 -5.64466,2.173487 -5.64466,4.611157 M 289.21854,93.456461 c 0,1.139179 0.82136,2.411248 2.96763,2.411248 2.75628,0 5.64466,-2.251939 5.64466,-4.583934 0,-1.563469 -1.32491,-2.437667 -2.96843,-2.437667 -2.56976,0 -5.64386,2.172686 -5.64386,4.610353 M 542.70386,30.579068 c 0,1.139179 0.82136,2.411249 2.96763,2.411249 2.75548,0 5.64385,-2.25274 5.64385,-4.583934 0,-1.563469 -1.3249,-2.438468 -2.96762,-2.438468 -2.57056,0 -5.64386,2.173487 -5.64386,4.611153 M 268.22738,96.765923 c 0,1.139179 0.82137,2.411249 2.96763,2.411249 2.75629,0 5.64466,-2.25274 5.64466,-4.583934 0,-1.563469 -1.3249,-2.438467 -2.96843,-2.438467 -2.56975,0 -5.64386,2.173486 -5.64386,4.611152 M 576.10109,30.579068 c 0,1.139179 0.82136,2.411249 2.96763,2.411249 2.75548,0 5.64386,-2.25274 5.64386,-4.583934 0,-1.563469 -1.32491,-2.438468 -2.96763,-2.438468 -2.57056,0 -5.64386,2.173487 -5.64386,4.611153 m -337.37308,64.04299 c -0.87419,0 -1.05992,-0.714889 -1.05992,-0.953452 0,-1.298488 4.45184,-3.577647 5.69669,-3.577647 0.63644,0 1.05993,0.371454 1.05993,0.954253 0,1.324906 -4.47746,3.576846 -5.6967,3.576846 m 3.6569,-5.77595 c -2.57055,0 -5.64466,2.146268 -5.64466,4.610353 0,1.139179 0.82217,2.411248 2.96843,2.411248 2.75549,0 5.64386,-2.251939 5.64386,-4.583934 0,-1.563469 -1.3249,-2.437667 -2.96763,-2.437667 M 600.03346,17.341457 c 0,1.139419 0.82136,2.411329 2.96762,2.411329 2.75629,0 5.64386,-2.25234 5.64386,-4.584175 0,-1.563388 -1.3249,-2.437826 -2.96763,-2.437826 -2.56975,0 -5.64385,2.172845 -5.64385,4.610672 M 83.178457,23.960143 c 0,1.139179 0.821362,2.411248 2.967629,2.411248 2.755484,0 5.643859,-2.251939 5.643859,-4.584094 0,-1.563389 -1.324906,-2.437827 -2.967629,-2.437827 -2.570558,0 -5.643859,2.172846 -5.643859,4.610673 M 615.98836,17.341457 c 0,1.139419 0.82137,2.411329 2.96763,2.411329 2.75629,0 5.64466,-2.25234 5.64466,-4.584175 0,-1.563388 -1.3249,-2.437826 -2.96843,-2.437826 -2.56975,0 -5.64386,2.172845 -5.64386,4.610672 M 206.28503,93.456461 c 0,1.139179 0.82136,2.411248 2.96763,2.411248 2.75548,0 5.64386,-2.251939 5.64386,-4.583934 0,-1.563469 -1.32491,-2.437667 -2.96763,-2.437667 -2.57056,0 -5.64386,2.172686 -5.64386,4.610353 M 631.94327,17.341457 c 0,1.139419 0.82137,2.411329 2.96843,2.411329 2.75549,0 5.64386,-2.25234 5.64386,-4.584175 0,-1.563388 -1.3249,-2.437826 -2.96763,-2.437826 -2.57055,0 -5.64466,2.172845 -5.64466,4.610672 M 185.29388,90.146998 c 0,1.139179 0.82136,2.411248 2.96763,2.411248 2.75548,0 5.64386,-2.251939 5.64386,-4.583934 0,-1.563469 -1.32491,-2.437667 -2.96763,-2.437667 -2.57056,0 -5.64386,2.172686 -5.64386,4.610353 M 655.87644,17.341457 c 0,1.139419 0.82136,2.411329 2.96763,2.411329 2.75548,0 5.64386,-2.25234 5.64386,-4.584175 0,-1.563388 -1.32491,-2.437826 -2.96763,-2.437826 -2.57056,0 -5.64386,2.172845 -5.64386,4.610672 M 164.30193,86.837535 c 0,1.139979 0.82216,2.411249 2.96842,2.411249 2.75549,0 5.64386,-2.25194 5.64386,-4.583935 0,-1.563469 -1.3249,-2.437666 -2.96763,-2.437666 -2.57055,0 -5.64465,2.172685 -5.64465,4.610352 M 65.450339,27.269606 c 0,1.139178 0.821361,2.411248 2.967629,2.411248 2.755484,0 5.643859,-2.25274 5.643859,-4.583934 0,-1.563469 -1.324906,-2.438067 -2.967629,-2.438067 -2.570558,0 -5.643859,2.173086 -5.643859,4.610753 m 77.860431,56.258466 c 0,1.13998 0.82136,2.412049 2.96843,2.412049 2.75549,0 5.64386,-2.25274 5.64386,-4.584734 0,-1.563469 -1.3249,-2.437667 -2.96763,-2.437667 -2.57056,0 -5.64466,2.172685 -5.64466,4.610352 M 618.02656,97.93152 c -0.875,0 -1.05993,-0.714888 -1.05993,-0.953451 0,-1.298488 4.45105,-3.577647 5.6967,-3.577647 0.63643,0 1.05992,0.371454 1.05992,0.954253 0,1.324906 -4.47826,3.576845 -5.69669,3.576845 m 3.6561,-5.776749 c -2.56976,0 -5.64386,2.147068 -5.64386,4.611152 0,1.139179 0.82136,2.411249 2.96763,2.411249 2.75628,0 5.64466,-2.25274 5.64466,-4.583934 0,-1.563469 -1.32491,-2.438467 -2.96843,-2.438467 M 49.881293,83.528072 c 0,1.13998 0.821362,2.412049 2.96763,2.412049 2.756284,0 5.644659,-2.25274 5.644659,-4.584734 0,-1.563469 -1.324906,-2.437667 -2.967629,-2.437667 -2.570558,0 -5.64466,2.172685 -5.64466,4.610352 m 20.991153,3.309463 c 0,1.139979 0.821362,2.411249 2.96843,2.411249 2.755484,0 5.643859,-2.25194 5.643859,-4.583935 0,-1.563469 -1.324906,-2.437666 -2.967629,-2.437666 -2.570558,0 -5.64466,2.172685 -5.64466,4.610352 m 41.982304,0 c 0,1.139979 0.82216,2.411249 2.96843,2.411249 2.75548,0 5.64386,-2.25194 5.64386,-4.583935 0,-1.563469 -1.32491,-2.437666 -2.96763,-2.437666 -2.57056,0 -5.64466,2.172685 -5.64466,4.610352 m 409.75457,3.309463 c 0,1.139179 0.82136,2.411248 2.96763,2.411248 2.75628,0 5.64466,-2.251939 5.64466,-4.583934 0,-1.563469 -1.32491,-2.437667 -2.96843,-2.437667 -2.56976,0 -5.64386,2.172686 -5.64386,4.610353 m 124.91661,9.928392 c 0,1.13918 0.82136,2.41124 2.96763,2.41124 2.75548,0 5.64386,-2.25274 5.64386,-4.583929 0,-1.563469 -1.32491,-2.438468 -2.96763,-2.438468 -2.57056,0 -5.64386,2.173487 -5.64386,4.611157 M 304.08917,6.2675518 V 25.097769 h 0.66201 V 6.2675518 Z M 655.4677,75.797122 v 22.106363 h 0.66218 V 75.797122 Z M 70.87283,86.836702 v 22.053518 h 0.662021 V 86.836702 Z M 73.392993,6.2706788 V 25.097769 h 0.662013 V 6.2706788 Z M 49.881766,83.527256 v 22.053514 h 0.662012 V 83.527256 Z m 93.429344,0 v 22.053514 h 0.66217 V 83.527256 Z m 20.99123,3.309446 v 22.053518 h 0.66201 V 86.836702 Z M 623.98149,74.142399 v 20.451639 h 0.66201 V 74.142399 Z M 91.120271,4.6755257 V 21.78832 h 0.662013 V 4.6755257 Z M 185.29341,90.146157 v 20.398783 h 0.66217 V 90.146157 Z m 470.5827,-72.805722 v 22.053517 h 0.66201 V 17.340435 Z M 206.28464,93.455604 v 18.744066 h 0.66201 V 93.455604 Z M 631.94365,17.340435 v 22.053517 h 0.66201 V 17.340435 Z m -520.76732,3.309294 v 20.398946 h 0.66216 V 20.649729 Z m 504.81251,-3.309294 v 18.74407 h 0.66201 v -18.74407 z m -22.46349,58.456687 v 22.106363 h 0.66217 V 75.797122 Z M 236.74061,93.455604 v 18.744066 h 0.66203 V 93.455604 Z M 600.03308,17.340435 v 18.74407 h 0.66201 v -18.74407 z m -323.863,56.801964 v 20.451639 h 0.66201 V 74.142399 Z M 584.04293,6.3005432 V 28.407223 h 0.66201 V 6.3005432 Z M 135.10878,20.649729 V 39.42679 h 0.66202 V 20.649729 Z m 437.4255,53.49267 v 20.451639 h 0.66201 V 74.142399 Z M 289.219,93.455604 v 17.051656 h 0.66201 V 93.455604 Z M 550.64572,6.3005432 V 28.407223 h 0.66201 V 6.3005432 Z m -7.0456,87.1550608 v 18.744066 h 0.66202 V 93.455604 Z M 151.0636,23.959334 v 17.05651 h 0.66217 v -17.05651 z m 371.54529,66.186823 v 20.398783 h 0.66202 V 90.146157 Z m -219.39642,0 V 108.9279 h 0.66202 V 90.146157 Z M 497.11396,6.3005432 V 28.407223 h 0.66202 V 6.3005432 Z M 174.96165,4.6458182 V 25.097769 h 0.66202 V 4.6458182 Z m 286.25323,0 V 25.097769 h 0.66218 V 4.6458182 Z M 198.89396,6.3005432 V 28.407223 h 0.66201 V 6.3005432 Z m 33.39721,-1.654725 V 25.097769 h 0.66217 V 4.6458182 Z M 502.55362,74.179296 v 17.105296 h 0.66201 V 74.179296 Z M 427.81767,6.3005432 V 28.407223 h 0.66201 V 6.3005432 Z M 331.21083,86.836702 v 22.053518 h 0.66202 V 86.836702 Z M 403.88537,4.6458182 V 25.097769 h 0.66201 V 4.6458182 Z M 370.64014,75.797122 v 22.106363 h 0.66217 V 75.797122 Z m 9.34733,-51.837788 v 17.05651 h 0.66201 V 23.959334 Z M 256.22362,9.6098371 V 31.71667 h 0.66202 V 9.6098371 Z M 488.5592,75.7596 v 18.834438 h 0.66202 V 75.7596 Z M 364.0325,20.649729 V 39.42679 h 0.66201 V 20.649729 Z m 47.55892,55.133792 v 18.810517 h 0.66202 V 75.783521 Z M 340.1002,20.649729 v 20.398946 h 0.66201 V 20.649729 Z M 280.15671,6.3005432 V 28.407223 h 0.66201 V 6.3005432 Z M 467.56813,75.797122 v 22.106363 h 0.66202 V 75.797122 Z m -41.9823,-0.556316 v 22.662679 h 0.66202 V 75.240806 Z M 320.04398,4.6786526 V 21.78832 h 0.66201 V 4.6786526 Z M 439.58009,74.698091 v 19.895947 h 0.66217 V 74.698091 Z m 13.99363,-0.542868 v 17.129369 h 0.66201 V 74.155223 Z M 91.86406,86.836702 v 22.053518 h 0.662012 V 86.836702 Z m 20.99107,0 v 22.053518 h 0.66202 V 86.836702 Z m 400.28932,-8.094286 v 27.202514 h 1.19128 V 78.742416 Z M 214.88458,9.2458378 V 36.448658 h 1.19113 V 9.2458378 Z m 228.92371,0 V 36.448658 h 1.19113 V 9.2458378 Z M 394.18467,78.742416 v 27.202514 h 1.19129 V 78.742416 Z m -72.43828,0 v 27.202514 h 1.19113 V 78.742416 Z M 521.94688,9.2458378 V 36.448658 h 3.64014 V 9.2458378 Z m -3.64047,0 V 36.448658 h 1.19114 V 9.2458378 Z M 515.8599,26.156845 c 0,-0.768526 -0.60921,-1.404961 -1.37774,-1.404961 -0.76853,0 -1.37854,0.636435 -1.37854,1.404961 0,0.768525 0.61001,1.40416 1.37854,1.40416 0.76853,0 1.37774,-0.635635 1.37774,-1.40416 m 0,-6.619006 c 0,-0.768445 -0.60921,-1.4044 -1.37774,-1.4044 -0.76853,0 -1.37854,0.635955 -1.37854,1.4044 0,0.768445 0.61001,1.4044 1.37854,1.4044 0.76853,0 1.37774,-0.635955 1.37774,-1.4044 m 18.5719,6.619006 c 0,-0.768526 -0.60922,-1.404961 -1.37774,-1.404961 -0.76853,0 -1.37774,0.636435 -1.37774,1.404961 0,0.768525 0.60921,1.40416 1.37774,1.40416 0.76852,0 1.37774,-0.635635 1.37774,-1.40416 m 0,-6.619006 c 0,-0.768445 -0.60922,-1.4044 -1.37774,-1.4044 -0.76853,0 -1.37774,0.635955 -1.37774,1.4044 0,0.768445 0.60921,1.4044 1.37774,1.4044 0.76852,0 1.37774,-0.635955 1.37774,-1.4044 M 528.0362,9.2458378 V 36.448658 h 1.19128 V 9.2458378 Z m -6.08932,0 V 36.448658 h 3.64014 V 9.2458378 Z m 44.6893,0 V 36.448658 h 1.19129 V 9.2458378 Z m -339.36,69.4965782 v 27.202514 h 1.19128 V 78.742416 Z M 101.71189,9.2458378 V 36.448658 h 1.19128 V 9.2458378 Z M 606.57396,78.742416 v 27.202514 h 1.19113 V 78.742416 Z m 70.78558,0 v 27.202514 h 3.64015 V 78.742416 Z m -3.63967,0 V 105.94493 H 674.911 V 78.742416 Z m -2.44731,16.910747 c 0,-0.768526 -0.60921,-1.404961 -1.37774,-1.404961 -0.76852,0 -1.37774,0.636435 -1.37774,1.404961 0,0.768525 0.60922,1.40416 1.37774,1.40416 0.76853,0 1.37774,-0.635635 1.37774,-1.40416 m 0,-6.618926 c 0,-0.768526 -0.60921,-1.40416 -1.37774,-1.40416 -0.76852,0 -1.37774,0.635634 -1.37774,1.40416 0,0.768525 0.60922,1.40416 1.37774,1.40416 0.76853,0 1.37774,-0.635635 1.37774,-1.40416 M 133.84667,78.742416 v 27.202514 h 1.19129 V 78.742416 Z M 679.80887,9.2458378 V 36.448658 H 681 V 9.2458378 Z m -349.17406,0 V 36.448658 h 1.19129 V 9.2458378 Z M 0,105.21693 v 0.72769 h 681 v -0.72769 z m 0,-6.618121 v 0.727681 h 681 v -0.727681 z m 0,-6.618902 v 0.727682 h 681 v -0.727682 z m 0,-6.619054 v 0.727842 h 681 v -0.727842 z m 0,-6.618901 v 0.727681 H 681 V 78.741952 Z M 0,35.720656 v 0.727689 h 681 v -0.727689 z m 0,-6.618269 v 0.727841 h 681 v -0.727841 z m 0,-6.61906 v 0.727685 h 681 v -0.727685 z m 0,-6.618588 v 0.727684 H 681 V 15.864739 Z M 0,9.2459947 V 9.9736795 H 681 V 9.2459947 Z"
     style="stroke-width:0.0800547" />
  <metadata
     id="metadata146">
    <rdf:RDF>
      <cc:Work
         rdf:about="">
        <dc:title>air_XXVI</dc:title>
      </cc:Work>
    </rdf:RDF>
  </metadata>
</svg>
