<?xml version="1.0" encoding="UTF-8" standalone="no"?>
<svg width="210.058mm" height="296.926mm" viewBox="0 0 9924 14028"
 xmlns="http://www.w3.org/2000/svg" xmlns:xlink="http://www.w3.org/1999/xlink" version="1.2" baseProfile="full">
<title>air_I</title>
<desc>Generated by MuseScore Studio 4.7.3</desc>
<polyline class="StaffLines" fill="none" stroke="#000000" stroke-width="9.09" stroke-linejoin="bevel" points="708.661,828.424 9215.34,828.424" />
<polyline class="StaffLines" fill="none" stroke="#000000" stroke-width="9.09" stroke-linejoin="bevel" points="708.661,911.101 9215.34,911.101" />
<polyline class="StaffLines" fill="none" stroke="#000000" stroke-width="9.09" stroke-linejoin="bevel" points="708.661,993.778 9215.34,993.778" />
<polyline class="StaffLines" fill="none" stroke="#000000" stroke-width="9.09" stroke-linejoin="bevel" points="708.661,1076.46 9215.34,1076.46" />
<polyline class="StaffLines" fill="none" stroke="#000000" stroke-width="9.09" stroke-linejoin="bevel" points="708.661,1159.13 9215.34,1159.13" />
<polyline class="StaffLines" fill="none" stroke="#000000" stroke-width="9.09" stroke-linejoin="bevel" points="708.661,1696.53 9215.34,1696.53" />
<polyline class="StaffLines" fill="none" stroke="#000000" stroke-width="9.09" stroke-linejoin="bevel" points="708.661,1779.21 9215.34,1779.21" />
<polyline class="StaffLines" fill="none" stroke="#000000" stroke-width="9.09" stroke-linejoin="bevel" points="708.661,1861.89 9215.34,1861.89" />
<polyline class="StaffLines" fill="none" stroke="#000000" stroke-width="9.09" stroke-linejoin="bevel" points="708.661,1944.57 9215.34,1944.57" />
<polyline class="StaffLines" fill="none" stroke="#000000" stroke-width="9.09" stroke-linejoin="bevel" points="708.661,2027.24 9215.34,2027.24" />
<polyline class="StaffLines" fill="none" stroke="#000000" stroke-width="9.09" stroke-linejoin="bevel" points="708.661,2564.64 9215.34,2564.64" />
<polyline class="StaffLines" fill="none" stroke="#000000" stroke-width="9.09" stroke-linejoin="bevel" points="708.661,2647.32 9215.34,2647.32" />
<polyline class="StaffLines" fill="none" stroke="#000000" stroke-width="9.09" stroke-linejoin="bevel" points="708.661,2730 9215.34,2730" />
<polyline class="StaffLines" fill="none" stroke="#000000" stroke-width="9.09" stroke-linejoin="bevel" points="708.661,2812.68 9215.34,2812.68" />
<polyline class="StaffLines" fill="none" stroke="#000000" stroke-width="9.09" stroke-linejoin="bevel" points="708.661,2895.35 9215.34,2895.35" />
<polyline class="BarLine" fill="none" stroke="#000000" stroke-width="14.88" stroke-linejoin="bevel" points="6531.97,823.876 6531.97,1163.68" />
<polyline class="BarLine" fill="none" stroke="#000000" stroke-width="14.88" stroke-linejoin="bevel" points="3996.19,823.876 3996.19,1163.68" />
<polyline class="BarLine" fill="none" stroke="#000000" stroke-width="14.88" stroke-linejoin="bevel" points="6479.46,1691.99 6479.46,2031.79" />
<polyline class="BarLine" fill="none" stroke="#000000" stroke-width="14.88" stroke-linejoin="bevel" points="5010.99,1691.99 5010.99,2031.79" />
<polyline class="BarLine" fill="none" stroke="#000000" stroke-width="14.88" stroke-linejoin="bevel" points="7742.48,2560.1 7742.48,2899.9" />
<polyline class="BarLine" fill="none" stroke="#000000" stroke-width="14.88" stroke-linejoin="bevel" points="2469.25,823.876 2469.25,1163.68" />
<polyline class="BarLine" fill="none" stroke="#000000" stroke-width="14.88" stroke-linejoin="bevel" points="3751.01,1691.99 3751.01,2031.79" />
<polyline class="BarLine" fill="none" stroke="#000000" stroke-width="14.88" stroke-linejoin="bevel" points="7739.43,1691.99 7739.43,2031.79" />
<polyline class="BarLine" fill="none" stroke="#000000" stroke-width="14.88" stroke-linejoin="bevel" points="7680.95,823.876 7680.95,1163.68" />
<polyline class="BarLine" fill="none" stroke="#000000" stroke-width="14.88" stroke-linejoin="bevel" points="4674.96,2560.1 4674.96,2899.9" />
<polyline class="BarLine" fill="none" stroke="#000000" stroke-width="14.88" stroke-linejoin="bevel" points="2823.96,2560.1 2823.96,2899.9" />
<polyline class="BarLine" fill="none" stroke="#000000" stroke-width="14.88" stroke-linejoin="bevel" points="9207.9,823.876 9207.9,1163.68" />
<polyline class="BarLine" fill="none" stroke="#000000" stroke-width="14.88" stroke-linejoin="bevel" points="5005.02,823.876 5005.02,1163.68" />
<polyline class="BarLine" fill="none" stroke="#000000" stroke-width="14.88" stroke-linejoin="bevel" points="5891.48,2560.1 5891.48,2899.9" />
<polyline class="BarLine" fill="none" stroke="#000000" stroke-width="14.88" stroke-linejoin="bevel" points="9207.9,1691.99 9207.9,2031.79" />
<polyline class="BarLine" fill="none" stroke="#000000" stroke-width="14.88" stroke-linejoin="bevel" points="2268.49,1691.99 2268.49,2031.79" />
<polyline class="BarLine" fill="none" stroke="#000000" stroke-width="14.88" stroke-linejoin="bevel" points="9131.84,2560.1 9131.84,2899.9" />
<polyline class="BarLine" fill="none" stroke="#000000" stroke-width="45.47" stroke-linejoin="bevel" points="9192.6,2560.1 9192.6,2899.9" />
<path class="TieSegment" stroke="#000000" stroke-width="4.13" stroke-linecap="round" stroke-linejoin="round" fill-rule="evenodd" d="M6658.7,1760.19 C6740.48,1693.91 6985.84,1693.91 7067.62,1760.19 C6985.84,1720.37 6740.48,1720.37 6658.7,1760.19"/>
<path class="TieSegment" stroke="#000000" stroke-width="4.13" stroke-linecap="round" stroke-linejoin="round" fill-rule="evenodd" d="M3920.83,2004.93 C4002.62,2065.77 4247.97,2065.77 4329.75,2004.93 C4247.97,2092.23 4002.62,2092.23 3920.83,2004.93"/>
<path class="TieSegment" stroke="#000000" stroke-width="4.13" stroke-linecap="round" stroke-linejoin="round" fill-rule="evenodd" d="M1478.59,2586.96 C1585.12,2491.07 1904.68,2491.07 2011.2,2586.96 C1904.68,2517.53 1585.12,2517.53 1478.59,2586.96"/>
<path class="Accidental" d="M8664.13,1191.24 L8664.13,1136.96 L8702.53,1126.03 L8702.53,1180.65 L8664.13,1191.24 M8709.81,1098.56 C8709.15,1097.9 8708.16,1097.57 8707.16,1097.57 C8706.83,1097.57 8706.17,1097.9 8705.84,1097.9 L8664.13,1109.48 L8664.13,1051.56 L8654.87,1051.56 L8654.87,1215.4 C8654.87,1218.05 8656.85,1219.71 8659.5,1219.71 L8660.82,1219.71 L8702.53,1208.12 L8702.53,1266.05 L8711.47,1266.05 L8711.47,1102.2 C8711.47,1100.88 8710.81,1099.22 8709.81,1098.56"/>
<path class="Accidental" d="M8422.36,1093.3 L8451.82,1087.34 L8451.82,1141.96 L8422.36,1148.25 L8422.36,1093.3 M8473.66,1083.04 C8475.65,1082.71 8477.3,1080.39 8477.3,1078.4 L8477.3,1058.88 C8477.3,1056.23 8475.32,1054.24 8472.67,1054.24 L8472.01,1054.24 L8461.08,1056.56 L8461.08,1007.24 L8451.82,1007.24 L8451.82,1058.54 L8422.36,1064.5 L8422.36,1017.83 L8413.09,1017.83 L8413.09,1066.49 L8400.18,1069.14 C8398.19,1069.47 8396.54,1071.78 8396.54,1073.77 L8396.54,1092.97 C8396.54,1095.62 8398.52,1097.6 8401.17,1097.6 L8402.17,1097.6 L8413.09,1095.29 L8413.09,1149.9 L8400.18,1152.55 C8398.19,1152.88 8396.54,1155.2 8396.54,1157.18 L8396.54,1176.38 C8396.54,1179.03 8398.52,1181.01 8401.17,1181.01 L8402.17,1181.01 L8413.09,1178.7 L8413.09,1228.02 L8422.36,1228.02 L8422.36,1176.71 L8451.82,1170.75 L8451.82,1217.42 L8461.08,1217.42 L8461.08,1168.77 L8473.66,1166.45 C8475.65,1166.12 8477.3,1163.8 8477.3,1161.82 L8477.3,1142.29 C8477.3,1139.64 8475.32,1137.65 8472.67,1137.65 L8472.01,1137.65 L8461.08,1139.97 L8461.08,1085.36 L8473.66,1083.04 "/>
<path class="Accidental" d="M7089.48,2927.46 L7089.48,2873.18 L7127.88,2862.25 L7127.88,2916.87 L7089.48,2927.46 M7135.16,2834.78 C7134.5,2834.12 7133.51,2833.79 7132.51,2833.79 C7132.18,2833.79 7131.52,2834.12 7131.19,2834.12 L7089.48,2845.7 L7089.48,2787.78 L7080.22,2787.78 L7080.22,2951.62 C7080.22,2954.27 7082.2,2955.93 7084.85,2955.93 L7086.17,2955.93 L7127.88,2944.34 L7127.88,3002.27 L7136.82,3002.27 L7136.82,2838.42 C7136.82,2837.1 7136.16,2835.44 7135.16,2834.78"/>
<path class="Accidental" d="M2989.02,1961.41 L3018.48,1955.45 L3018.48,2010.07 L2989.02,2016.36 L2989.02,1961.41 M3040.32,1951.15 C3042.31,1950.82 3043.96,1948.5 3043.96,1946.52 L3043.96,1926.99 C3043.96,1924.34 3041.98,1922.35 3039.33,1922.35 L3038.67,1922.35 L3027.74,1924.67 L3027.74,1875.35 L3018.48,1875.35 L3018.48,1926.66 L2989.02,1932.61 L2989.02,1885.94 L2979.75,1885.94 L2979.75,1934.6 L2966.84,1937.25 C2964.85,1937.58 2963.2,1939.9 2963.2,1941.88 L2963.2,1961.08 C2963.2,1963.73 2965.18,1965.71 2967.83,1965.71 L2968.83,1965.71 L2979.75,1963.4 L2979.75,2018.01 L2966.84,2020.66 C2964.85,2020.99 2963.2,2023.31 2963.2,2025.29 L2963.2,2044.49 C2963.2,2047.14 2965.18,2049.13 2967.83,2049.13 L2968.83,2049.13 L2979.75,2046.81 L2979.75,2096.13 L2989.02,2096.13 L2989.02,2044.82 L3018.48,2038.86 L3018.48,2085.54 L3027.74,2085.54 L3027.74,2036.88 L3040.32,2034.56 C3042.31,2034.23 3043.96,2031.91 3043.96,2029.93 L3043.96,2010.4 C3043.96,2007.75 3041.98,2005.76 3039.33,2005.76 L3038.67,2005.76 L3027.74,2008.08 L3027.74,1953.47 L3040.32,1951.15 "/>
<path class="Accidental" d="M5746.43,1093.3 L5775.88,1087.34 L5775.88,1141.96 L5746.43,1148.25 L5746.43,1093.3 M5797.73,1083.04 C5799.72,1082.71 5801.37,1080.39 5801.37,1078.4 L5801.37,1058.88 C5801.37,1056.23 5799.39,1054.24 5796.74,1054.24 L5796.08,1054.24 L5785.15,1056.56 L5785.15,1007.24 L5775.88,1007.24 L5775.88,1058.54 L5746.43,1064.5 L5746.43,1017.83 L5737.16,1017.83 L5737.16,1066.49 L5724.25,1069.14 C5722.26,1069.47 5720.61,1071.78 5720.61,1073.77 L5720.61,1092.97 C5720.61,1095.62 5722.59,1097.6 5725.24,1097.6 L5726.23,1097.6 L5737.16,1095.29 L5737.16,1149.9 L5724.25,1152.55 C5722.26,1152.88 5720.61,1155.2 5720.61,1157.18 L5720.61,1176.38 C5720.61,1179.03 5722.59,1181.01 5725.24,1181.01 L5726.23,1181.01 L5737.16,1178.7 L5737.16,1228.02 L5746.43,1228.02 L5746.43,1176.71 L5775.88,1170.75 L5775.88,1217.42 L5785.15,1217.42 L5785.15,1168.77 L5797.73,1166.45 C5799.72,1166.12 5801.37,1163.8 5801.37,1161.82 L5801.37,1142.29 C5801.37,1139.64 5799.39,1137.65 5796.74,1137.65 L5796.08,1137.65 L5785.15,1139.97 L5785.15,1085.36 L5797.73,1083.04 "/>
<path class="Accidental" d="M3452.43,1191.24 L3452.43,1136.96 L3490.82,1126.03 L3490.82,1180.65 L3452.43,1191.24 M3498.11,1098.56 C3497.44,1097.9 3496.45,1097.57 3495.46,1097.57 C3495.13,1097.57 3494.47,1097.9 3494.13,1097.9 L3452.43,1109.48 L3452.43,1051.56 L3443.16,1051.56 L3443.16,1215.4 C3443.16,1218.05 3445.15,1219.71 3447.79,1219.71 L3449.12,1219.71 L3490.82,1208.12 L3490.82,1266.05 L3499.76,1266.05 L3499.76,1102.2 C3499.76,1100.88 3499.1,1099.22 3498.11,1098.56"/>
<path class="Accidental" d="M3220.36,2059.35 L3220.36,2005.07 L3258.75,1994.14 L3258.75,2048.76 L3220.36,2059.35 M3266.03,1966.67 C3265.37,1966.01 3264.38,1965.68 3263.39,1965.68 C3263.06,1965.68 3262.39,1966.01 3262.06,1966.01 L3220.36,1977.59 L3220.36,1919.67 L3211.09,1919.67 L3211.09,2083.51 C3211.09,2086.16 3213.07,2087.82 3215.72,2087.82 L3217.05,2087.82 L3258.75,2076.23 L3258.75,2134.16 L3267.69,2134.16 L3267.69,1970.31 C3267.69,1968.99 3267.03,1967.33 3266.03,1966.67"/>
<path class="Accidental" d="M5988.2,1191.24 L5988.2,1136.96 L6026.6,1126.03 L6026.6,1180.65 L5988.2,1191.24 M6033.88,1098.56 C6033.22,1097.9 6032.23,1097.57 6031.23,1097.57 C6030.9,1097.57 6030.24,1097.9 6029.91,1097.9 L5988.2,1109.48 L5988.2,1051.56 L5978.94,1051.56 L5978.94,1215.4 C5978.94,1218.05 5980.92,1219.71 5983.57,1219.71 L5984.89,1219.71 L6026.6,1208.12 L6026.6,1266.05 L6035.54,1266.05 L6035.54,1102.2 C6035.54,1100.88 6034.87,1099.22 6033.88,1098.56"/>
<path class="Accidental" d="M3210.65,1093.3 L3240.11,1087.34 L3240.11,1141.96 L3210.65,1148.25 L3210.65,1093.3 M3261.96,1083.04 C3263.94,1082.71 3265.6,1080.39 3265.6,1078.4 L3265.6,1058.88 C3265.6,1056.23 3263.61,1054.24 3260.96,1054.24 L3260.3,1054.24 L3249.38,1056.56 L3249.38,1007.24 L3240.11,1007.24 L3240.11,1058.54 L3210.65,1064.5 L3210.65,1017.83 L3201.38,1017.83 L3201.38,1066.49 L3188.47,1069.14 C3186.49,1069.47 3184.83,1071.78 3184.83,1073.77 L3184.83,1092.97 C3184.83,1095.62 3186.82,1097.6 3189.47,1097.6 L3190.46,1097.6 L3201.38,1095.29 L3201.38,1149.9 L3188.47,1152.55 C3186.49,1152.88 3184.83,1155.2 3184.83,1157.18 L3184.83,1176.38 C3184.83,1179.03 3186.82,1181.01 3189.47,1181.01 L3190.46,1181.01 L3201.38,1178.7 L3201.38,1228.02 L3210.65,1228.02 L3210.65,1176.71 L3240.11,1170.75 L3240.11,1217.42 L3249.38,1217.42 L3249.38,1168.77 L3261.96,1166.45 C3263.94,1166.12 3265.6,1163.8 3265.6,1161.82 L3265.6,1142.29 C3265.6,1139.64 3263.61,1137.65 3260.96,1137.65 L3260.3,1137.65 L3249.38,1139.97 L3249.38,1085.36 L3261.96,1083.04 "/>
<path class="Accidental" d="M6793.09,2829.52 L6822.55,2823.56 L6822.55,2878.18 L6793.09,2884.47 L6793.09,2829.52 M6844.4,2819.26 C6846.39,2818.93 6848.04,2816.61 6848.04,2814.63 L6848.04,2795.1 C6848.04,2792.45 6846.05,2790.46 6843.41,2790.46 L6842.74,2790.46 L6831.82,2792.78 L6831.82,2743.46 L6822.55,2743.46 L6822.55,2794.77 L6793.09,2800.72 L6793.09,2754.05 L6783.83,2754.05 L6783.83,2802.71 L6770.92,2805.36 C6768.93,2805.69 6767.28,2808.01 6767.28,2809.99 L6767.28,2829.19 C6767.28,2831.84 6769.26,2833.82 6771.91,2833.82 L6772.9,2833.82 L6783.83,2831.51 L6783.83,2886.12 L6770.92,2888.77 C6768.93,2889.1 6767.28,2891.42 6767.28,2893.4 L6767.28,2912.6 C6767.28,2915.25 6769.26,2917.24 6771.91,2917.24 L6772.9,2917.24 L6783.83,2914.92 L6783.83,2964.24 L6793.09,2964.24 L6793.09,2912.93 L6822.55,2906.97 L6822.55,2953.65 L6831.82,2953.65 L6831.82,2904.99 L6844.4,2902.67 C6846.39,2902.34 6848.04,2900.02 6848.04,2898.04 L6848.04,2878.51 C6848.04,2875.86 6846.05,2873.87 6843.41,2873.87 L6842.74,2873.87 L6831.82,2876.19 L6831.82,2821.58 L6844.4,2819.26 "/>
<polyline class="Stem" fill="none" stroke="#000000" stroke-width="8.27" stroke-linejoin="bevel" points="5797.15,1834.44 5797.15,2089.25" />
<polyline class="Stem" fill="none" stroke="#000000" stroke-width="8.27" stroke-linejoin="bevel" points="6020.89,1875.78 6020.89,2109.92" />
<polyline class="Stem" fill="none" stroke="#000000" stroke-width="8.27" stroke-linejoin="bevel" points="6746.1,1063.23 6746.1,787.085" />
<polyline class="Stem" fill="none" stroke="#000000" stroke-width="8.27" stroke-linejoin="bevel" points="3805.26,2702.55 3805.26,2957.36" />
<polyline class="Stem" fill="none" stroke="#000000" stroke-width="8.27" stroke-linejoin="bevel" points="3615.68,2758.11 3615.68,2502.64" />
<polyline class="Stem" fill="none" stroke="#000000" stroke-width="8.27" stroke-linejoin="bevel" points="7092.19,1007.67 7092.19,1241.81" />
<polyline class="Stem" fill="none" stroke="#000000" stroke-width="8.27" stroke-linejoin="bevel" points="3227.67,2743.89 3227.67,2978.03" />
<polyline class="Stem" fill="none" stroke="#000000" stroke-width="8.27" stroke-linejoin="bevel" points="7443.46,1007.67 7443.46,1241.81" />
<polyline class="Stem" fill="none" stroke="#000000" stroke-width="8.27" stroke-linejoin="bevel" points="2938.88,2702.55 2938.88,2957.36" />
<polyline class="Stem" fill="none" stroke="#000000" stroke-width="8.27" stroke-linejoin="bevel" points="6393.69,1104.57 6393.69,828.424" />
<polyline class="Stem" fill="none" stroke="#000000" stroke-width="8.27" stroke-linejoin="bevel" points="4482.07,2758.11 4482.07,2502.64" />
<polyline class="Stem" fill="none" stroke="#000000" stroke-width="8.27" stroke-linejoin="bevel" points="7895.09,1021.89 7895.09,766.416" />
<polyline class="Stem" fill="none" stroke="#000000" stroke-width="8.27" stroke-linejoin="bevel" points="6159.51,1145.9 6159.51,869.762" />
<polyline class="Stem" fill="none" stroke="#000000" stroke-width="8.27" stroke-linejoin="bevel" points="8030.06,1007.67 8030.06,1241.81" />
<polyline class="Stem" fill="none" stroke="#000000" stroke-width="8.27" stroke-linejoin="bevel" points="5925.33,1104.57 5925.33,828.424" />
<polyline class="Stem" fill="none" stroke="#000000" stroke-width="8.27" stroke-linejoin="bevel" points="8363.45,1063.23 8363.45,787.085" />
<polyline class="Stem" fill="none" stroke="#000000" stroke-width="8.27" stroke-linejoin="bevel" points="2688.35,2716.77 2688.35,2503.06" />
<polyline class="Stem" fill="none" stroke="#000000" stroke-width="8.27" stroke-linejoin="bevel" points="8601.26,1104.57 8601.26,828.424" />
<polyline class="Stem" fill="none" stroke="#000000" stroke-width="8.27" stroke-linejoin="bevel" points="2495.82,2758.11 2495.82,2522.88" />
<polyline class="Stem" fill="none" stroke="#000000" stroke-width="8.27" stroke-linejoin="bevel" points="5687.52,1063.23 5687.52,787.085" />
<polyline class="Stem" fill="none" stroke="#000000" stroke-width="8.27" stroke-linejoin="bevel" points="8835.44,1145.9 8835.44,869.762" />
<polyline class="Stem" fill="none" stroke="#000000" stroke-width="8.27" stroke-linejoin="bevel" points="1963.42,2661.21 1963.42,2936.69" />
<polyline class="Stem" fill="none" stroke="#000000" stroke-width="8.27" stroke-linejoin="bevel" points="4789.88,2702.55 4789.88,2957.36" />
<polyline class="Stem" fill="none" stroke="#000000" stroke-width="8.27" stroke-linejoin="bevel" points="9069.62,1104.57 9069.62,828.424" />
<polyline class="Stem" fill="none" stroke="#000000" stroke-width="8.27" stroke-linejoin="bevel" points="1414.27,2661.21 1414.27,2936.69" />
<polyline class="Stem" fill="none" stroke="#000000" stroke-width="8.27" stroke-linejoin="bevel" points="5354.13,1007.67 5354.13,1241.81" />
<polyline class="Stem" fill="none" stroke="#000000" stroke-width="8.27" stroke-linejoin="bevel" points="5339.02,2743.89 5339.02,2978.03" />
<polyline class="Stem" fill="none" stroke="#000000" stroke-width="8.27" stroke-linejoin="bevel" points="5219.16,1021.89 5219.16,766.416" />
<polyline class="Stem" fill="none" stroke="#000000" stroke-width="8.27" stroke-linejoin="bevel" points="4556.42,1007.67 4556.42,1241.81" />
<polyline class="Stem" fill="none" stroke="#000000" stroke-width="8.27" stroke-linejoin="bevel" points="1513.48,1931.34 1513.48,1655.2" />
<polyline class="Stem" fill="none" stroke="#000000" stroke-width="8.27" stroke-linejoin="bevel" points="6105.61,2758.11 6105.61,2502.64" />
<polyline class="Stem" fill="none" stroke="#000000" stroke-width="8.27" stroke-linejoin="bevel" points="6295.19,2743.89 6295.19,2978.03" />
<polyline class="Stem" fill="none" stroke="#000000" stroke-width="8.27" stroke-linejoin="bevel" points="1839.73,1875.78 1839.73,2109.92" />
<polyline class="Stem" fill="none" stroke="#000000" stroke-width="8.27" stroke-linejoin="bevel" points="8973.08,1834.44 8973.08,2089.25" />
<polyline class="Stem" fill="none" stroke="#000000" stroke-width="8.27" stroke-linejoin="bevel" points="8749.34,1793.1 8749.34,2068.58" />
<polyline class="Stem" fill="none" stroke="#000000" stroke-width="8.27" stroke-linejoin="bevel" points="4210.33,1063.23 4210.33,787.085" />
<polyline class="Stem" fill="none" stroke="#000000" stroke-width="8.27" stroke-linejoin="bevel" points="6683.2,2799.45 6683.2,2523.31" />
<polyline class="Stem" fill="none" stroke="#000000" stroke-width="8.27" stroke-linejoin="bevel" points="2482.62,1890 2482.62,1634.53" />
<polyline class="Stem" fill="none" stroke="#000000" stroke-width="8.27" stroke-linejoin="bevel" points="8525.59,1751.76 8525.59,2027.24" />
<polyline class="Stem" fill="none" stroke="#000000" stroke-width="8.27" stroke-linejoin="bevel" points="2607.16,1875.78 2607.16,2109.92" />
<polyline class="Stem" fill="none" stroke="#000000" stroke-width="8.27" stroke-linejoin="bevel" points="8301.85,1793.1 8301.85,2068.58" />
<polyline class="Stem" fill="none" stroke="#000000" stroke-width="8.27" stroke-linejoin="bevel" points="2930.11,1931.34 2930.11,1655.2" />
<polyline class="Stem" fill="none" stroke="#000000" stroke-width="8.27" stroke-linejoin="bevel" points="8078.1,1834.44 8078.1,2089.25" />
<polyline class="Stem" fill="none" stroke="#000000" stroke-width="8.27" stroke-linejoin="bevel" points="3167.92,1972.68 3167.92,1696.53" />
<polyline class="Stem" fill="none" stroke="#000000" stroke-width="8.27" stroke-linejoin="bevel" points="7854.35,1875.78 7854.35,2109.92" />
<polyline class="Stem" fill="none" stroke="#000000" stroke-width="8.27" stroke-linejoin="bevel" points="3857.92,1104.57 3857.92,828.424" />
<polyline class="Stem" fill="none" stroke="#000000" stroke-width="8.27" stroke-linejoin="bevel" points="3391.66,2014.01 3391.66,1737.87" />
<polyline class="Stem" fill="none" stroke="#000000" stroke-width="8.27" stroke-linejoin="bevel" points="6972,2840.79 6972,2564.64" />
<polyline class="Stem" fill="none" stroke="#000000" stroke-width="8.27" stroke-linejoin="bevel" points="3623.73,1145.9 3623.73,869.762" />
<polyline class="Stem" fill="none" stroke="#000000" stroke-width="8.27" stroke-linejoin="bevel" points="3615.41,1972.68 3615.41,1696.53" />
<polyline class="Stem" fill="none" stroke="#000000" stroke-width="8.27" stroke-linejoin="bevel" points="3389.55,1104.57 3389.55,828.424" />
<polyline class="Stem" fill="none" stroke="#000000" stroke-width="8.27" stroke-linejoin="bevel" points="7260.79,2882.12 7260.79,2605.98" />
<polyline class="Stem" fill="none" stroke="#000000" stroke-width="8.27" stroke-linejoin="bevel" points="3151.75,1063.23 3151.75,787.085" />
<polyline class="Stem" fill="none" stroke="#000000" stroke-width="8.27" stroke-linejoin="bevel" points="3965.15,1931.34 3965.15,1655.2" />
<polyline class="Stem" fill="none" stroke="#000000" stroke-width="8.27" stroke-linejoin="bevel" points="7603.83,1890 7603.83,1654.65" />
<polyline class="Stem" fill="none" stroke="#000000" stroke-width="8.27" stroke-linejoin="bevel" points="7454.66,1848.66 7454.66,1635.07" />
<polyline class="Stem" fill="none" stroke="#000000" stroke-width="8.27" stroke-linejoin="bevel" points="4390.6,1931.34 4390.6,1655.2" />
<polyline class="Stem" fill="none" stroke="#000000" stroke-width="8.27" stroke-linejoin="bevel" points="2818.35,1007.67 2818.35,1241.81" />
<polyline class="Stem" fill="none" stroke="#000000" stroke-width="8.27" stroke-linejoin="bevel" points="7549.59,2840.79 7549.59,2564.64" />
<polyline class="Stem" fill="none" stroke="#000000" stroke-width="8.27" stroke-linejoin="bevel" points="7019.83,1834.44 7019.83,2089.25" />
<polyline class="Stem" fill="none" stroke="#000000" stroke-width="8.27" stroke-linejoin="bevel" points="6594.38,1834.44 6594.38,2089.25" />
<polyline class="Stem" fill="none" stroke="#000000" stroke-width="8.27" stroke-linejoin="bevel" points="4875.38,1848.66 4875.38,1635.07" />
<polyline class="Stem" fill="none" stroke="#000000" stroke-width="8.27" stroke-linejoin="bevel" points="2683.38,1021.89 2683.38,766.416" />
<polyline class="Stem" fill="none" stroke="#000000" stroke-width="8.27" stroke-linejoin="bevel" points="2020.64,1007.67 2020.64,1241.81" />
<polyline class="Stem" fill="none" stroke="#000000" stroke-width="8.27" stroke-linejoin="bevel" points="7956.61,2799.45 7956.61,2523.31" />
<polyline class="Stem" fill="none" stroke="#000000" stroke-width="8.27" stroke-linejoin="bevel" points="5125.91,1834.44 5125.91,2089.25" />
<polyline class="Stem" fill="none" stroke="#000000" stroke-width="8.27" stroke-linejoin="bevel" points="4726.22,1890 4726.22,1654.65" />
<polyline class="Stem" fill="none" stroke="#000000" stroke-width="8.27" stroke-linejoin="bevel" points="5349.66,1875.78 5349.66,2109.92" />
<polyline class="Stem" fill="none" stroke="#000000" stroke-width="8.27" stroke-linejoin="bevel" points="6343.85,1890 6343.85,1634.53" />
<polyline class="Stem" fill="none" stroke="#000000" stroke-width="8.27" stroke-linejoin="bevel" points="5672.61,1890 5672.61,1634.53" />
<polyline class="Stem" fill="none" stroke="#000000" stroke-width="8.27" stroke-linejoin="bevel" points="4094.06,2743.89 4094.06,2978.03" />
<path class="Note" d="M4312.08,1973.03 C4301.16,1973.03 4298.84,1964.09 4298.84,1961.12 C4298.84,1944.9 4354.45,1916.43 4370.01,1916.43 C4377.95,1916.43 4383.25,1921.06 4383.25,1928.35 C4383.25,1944.9 4327.31,1973.03 4312.08,1973.03 M4357.76,1900.87 C4325.65,1900.87 4287.26,1927.68 4287.26,1958.47 C4287.26,1972.7 4297.52,1988.59 4324.33,1988.59 C4358.75,1988.59 4394.83,1960.45 4394.83,1931.33 C4394.83,1911.8 4378.28,1900.87 4357.76,1900.87"/>
<path class="Note" d="M4577.11,1022.24 C4566.18,1022.24 4563.87,1013.31 4563.87,1010.33 C4563.87,994.109 4619.48,965.643 4635.03,965.643 C4642.98,965.643 4648.27,970.277 4648.27,977.559 C4648.27,994.109 4592.33,1022.24 4577.11,1022.24 M4622.79,950.086 C4590.68,950.086 4552.28,976.897 4552.28,1007.68 C4552.28,1021.91 4562.54,1037.8 4589.35,1037.8 C4623.78,1037.8 4659.86,1009.67 4659.86,980.538 C4659.86,961.009 4643.31,950.086 4622.79,950.086"/>
<path class="Note" d="M5569.27,1917.13 C5569.27,1931.36 5579.53,1947.25 5606.34,1947.25 C5640.76,1947.25 5676.84,1919.11 5676.84,1889.99 C5676.84,1870.46 5660.29,1859.53 5639.77,1859.53 C5607.66,1859.53 5569.27,1886.68 5569.27,1917.13"/>
<path class="Note" d="M6016.76,1875.79 C6016.76,1890.02 6027.02,1905.91 6053.83,1905.91 C6088.26,1905.91 6124.34,1877.78 6124.34,1848.65 C6124.34,1829.12 6107.79,1818.2 6087.26,1818.2 C6055.16,1818.2 6016.76,1845.34 6016.76,1875.79"/>
<path class="Note" d="M5345.52,1875.79 C5345.52,1890.02 5355.78,1905.91 5382.59,1905.91 C5417.02,1905.91 5453.1,1877.78 5453.1,1848.65 C5453.1,1829.12 5436.55,1818.2 5416.03,1818.2 C5383.92,1818.2 5345.52,1845.34 5345.52,1875.79"/>
<path class="Note" d="M6240.51,1917.13 C6240.51,1931.36 6250.77,1947.25 6277.58,1947.25 C6312,1947.25 6348.08,1919.11 6348.08,1889.99 C6348.08,1870.46 6331.53,1859.53 6311.01,1859.53 C6278.9,1859.53 6240.51,1886.68 6240.51,1917.13"/>
<path class="Note" d="M5121.78,1834.45 C5121.78,1848.68 5132.04,1864.57 5158.85,1864.57 C5193.27,1864.57 5229.35,1836.44 5229.35,1807.31 C5229.35,1787.78 5212.8,1776.86 5192.28,1776.86 C5160.17,1776.86 5121.78,1804 5121.78,1834.45"/>
<path class="Note" d="M4772.04,1875.79 C4772.04,1890.02 4782.3,1905.91 4809.11,1905.91 C4843.53,1905.91 4879.61,1877.78 4879.61,1848.65 C4879.61,1829.12 4863.06,1818.2 4842.54,1818.2 C4810.43,1818.2 4772.04,1845.34 4772.04,1875.79"/>
<path class="Note" d="M4622.87,1917.13 C4622.87,1931.36 4633.14,1947.25 4659.95,1947.25 C4694.37,1947.25 4730.45,1919.11 4730.45,1889.99 C4730.45,1870.46 4713.9,1859.53 4693.38,1859.53 C4661.27,1859.53 4622.87,1886.68 4622.87,1917.13"/>
<path class="Note" d="M6615.07,1849.02 C6604.15,1849.02 6601.83,1840.08 6601.83,1837.1 C6601.83,1820.88 6657.44,1792.41 6672.99,1792.41 C6680.94,1792.41 6686.23,1797.05 6686.23,1804.33 C6686.23,1820.88 6630.3,1849.02 6615.07,1849.02 M6660.75,1776.86 C6628.64,1776.86 6590.24,1803.67 6590.24,1834.45 C6590.24,1848.68 6600.51,1864.57 6627.32,1864.57 C6661.74,1864.57 6697.82,1836.44 6697.82,1807.31 C6697.82,1787.78 6681.27,1776.86 6660.75,1776.86"/>
<path class="Note" d="M7878.09,2841.14 C7867.16,2841.14 7864.85,2832.2 7864.85,2829.23 C7864.85,2813.01 7920.46,2784.54 7936.01,2784.54 C7943.96,2784.54 7949.25,2789.17 7949.25,2796.46 C7949.25,2813.01 7893.31,2841.14 7878.09,2841.14 M7923.77,2768.98 C7891.66,2768.98 7853.26,2795.79 7853.26,2826.58 C7853.26,2840.81 7863.52,2856.7 7890.33,2856.7 C7924.76,2856.7 7960.84,2828.56 7960.84,2799.44 C7960.84,2779.91 7944.29,2768.98 7923.77,2768.98"/>
<path class="Note" d="M2041.33,1022.24 C2030.41,1022.24 2028.09,1013.31 2028.09,1010.33 C2028.09,994.109 2083.7,965.643 2099.26,965.643 C2107.2,965.643 2112.5,970.277 2112.5,977.559 C2112.5,994.109 2056.56,1022.24 2041.33,1022.24 M2087.01,950.086 C2054.9,950.086 2016.51,976.897 2016.51,1007.68 C2016.51,1021.91 2026.77,1037.8 2053.58,1037.8 C2088,1037.8 2124.08,1009.67 2124.08,980.538 C2124.08,961.009 2107.53,950.086 2087.01,950.086"/>
<path class="Note" d="M7040.52,1849.02 C7029.6,1849.02 7027.28,1840.08 7027.28,1837.1 C7027.28,1820.88 7082.89,1792.41 7098.45,1792.41 C7106.39,1792.41 7111.69,1797.05 7111.69,1804.33 C7111.69,1820.88 7055.75,1849.02 7040.52,1849.02 M7086.2,1776.86 C7054.09,1776.86 7015.7,1803.67 7015.7,1834.45 C7015.7,1848.68 7025.96,1864.57 7052.77,1864.57 C7087.19,1864.57 7123.27,1836.44 7123.27,1807.31 C7123.27,1787.78 7106.72,1776.86 7086.2,1776.86"/>
<path class="Note" d="M7446.24,2867.92 C7446.24,2882.15 7456.5,2898.04 7483.31,2898.04 C7517.74,2898.04 7553.81,2869.9 7553.81,2840.77 C7553.81,2821.25 7537.26,2810.32 7516.74,2810.32 C7484.64,2810.32 7446.24,2837.46 7446.24,2867.92"/>
<path class="Note" d="M7351.32,1875.79 C7351.32,1890.02 7361.58,1905.91 7388.39,1905.91 C7422.81,1905.91 7458.89,1877.78 7458.89,1848.65 C7458.89,1829.12 7442.34,1818.2 7421.82,1818.2 C7389.71,1818.2 7351.32,1845.34 7351.32,1875.79"/>
<path class="Note" d="M2580.04,1049.02 C2580.04,1063.25 2590.3,1079.14 2617.11,1079.14 C2651.53,1079.14 2687.61,1051 2687.61,1021.88 C2687.61,1002.35 2671.06,991.425 2650.54,991.425 C2618.43,991.425 2580.04,1018.57 2580.04,1049.02"/>
<path class="Note" d="M3886.63,1973.03 C3875.7,1973.03 3873.39,1964.09 3873.39,1961.12 C3873.39,1944.9 3928.99,1916.43 3944.55,1916.43 C3952.49,1916.43 3957.79,1921.06 3957.79,1928.35 C3957.79,1944.9 3901.85,1973.03 3886.63,1973.03 M3932.3,1900.87 C3900.2,1900.87 3861.8,1927.68 3861.8,1958.47 C3861.8,1972.7 3872.06,1988.59 3898.87,1988.59 C3933.3,1988.59 3969.38,1960.45 3969.38,1931.33 C3969.38,1911.8 3952.83,1900.87 3932.3,1900.87"/>
<path class="Note" d="M7500.48,1917.13 C7500.48,1931.36 7510.74,1947.25 7537.55,1947.25 C7571.98,1947.25 7608.06,1919.11 7608.06,1889.99 C7608.06,1870.46 7591.51,1859.53 7570.98,1859.53 C7538.88,1859.53 7500.48,1886.68 7500.48,1917.13"/>
<path class="Note" d="M3512.06,1999.81 C3512.06,2014.04 3522.32,2029.93 3549.13,2029.93 C3583.56,2029.93 3619.64,2001.79 3619.64,1972.66 C3619.64,1953.14 3603.09,1942.21 3582.57,1942.21 C3550.46,1942.21 3512.06,1969.35 3512.06,1999.81"/>
<path class="Note" d="M3288.32,2041.14 C3288.32,2055.38 3298.58,2071.27 3325.39,2071.27 C3359.81,2071.27 3395.89,2043.13 3395.89,2014 C3395.89,1994.47 3379.34,1983.55 3358.82,1983.55 C3326.71,1983.55 3288.32,2010.69 3288.32,2041.14"/>
<path class="Note" d="M3064.57,1999.81 C3064.57,2014.04 3074.83,2029.93 3101.64,2029.93 C3136.07,2029.93 3172.15,2001.79 3172.15,1972.66 C3172.15,1953.14 3155.6,1942.21 3135.07,1942.21 C3102.97,1942.21 3064.57,1969.35 3064.57,1999.81"/>
<path class="Note" d="M7850.22,1875.79 C7850.22,1890.02 7860.48,1905.91 7887.29,1905.91 C7921.72,1905.91 7957.79,1877.78 7957.79,1848.65 C7957.79,1829.12 7941.24,1818.2 7920.72,1818.2 C7888.62,1818.2 7850.22,1845.34 7850.22,1875.79"/>
<path class="Note" d="M2826.77,1958.47 C2826.77,1972.7 2837.03,1988.59 2863.84,1988.59 C2898.26,1988.59 2934.34,1960.45 2934.34,1931.33 C2934.34,1911.8 2917.79,1900.87 2897.27,1900.87 C2865.16,1900.87 2826.77,1928.02 2826.77,1958.47"/>
<path class="Note" d="M8073.97,1834.45 C8073.97,1848.68 8084.23,1864.57 8111.04,1864.57 C8145.46,1864.57 8181.54,1836.44 8181.54,1807.31 C8181.54,1787.78 8164.99,1776.86 8144.47,1776.86 C8112.36,1776.86 8073.97,1804 8073.97,1834.45"/>
<path class="Note" d="M2603.02,1875.79 C2603.02,1890.02 2613.28,1905.91 2640.09,1905.91 C2674.52,1905.91 2710.6,1877.78 2710.6,1848.65 C2710.6,1829.12 2694.05,1818.2 2673.52,1818.2 C2641.42,1818.2 2603.02,1845.34 2603.02,1875.79"/>
<path class="Note" d="M8297.71,1793.11 C8297.71,1807.35 8307.97,1823.23 8334.78,1823.23 C8369.21,1823.23 8405.29,1795.1 8405.29,1765.97 C8405.29,1746.44 8388.74,1735.52 8368.21,1735.52 C8336.11,1735.52 8297.71,1762.66 8297.71,1793.11"/>
<path class="Note" d="M2379.28,1917.13 C2379.28,1931.36 2389.54,1947.25 2416.35,1947.25 C2450.77,1947.25 2486.85,1919.11 2486.85,1889.99 C2486.85,1870.46 2470.3,1859.53 2449.78,1859.53 C2417.67,1859.53 2379.28,1886.68 2379.28,1917.13"/>
<path class="Note" d="M8521.46,1751.77 C8521.46,1766.01 8531.72,1781.9 8558.53,1781.9 C8592.95,1781.9 8629.03,1753.76 8629.03,1724.63 C8629.03,1705.1 8612.48,1694.18 8591.96,1694.18 C8559.85,1694.18 8521.46,1721.32 8521.46,1751.77"/>
<path class="Note" d="M2814.22,1007.68 C2814.22,1021.91 2824.48,1037.8 2851.29,1037.8 C2885.72,1037.8 2921.79,1009.67 2921.79,980.538 C2921.79,961.009 2905.24,950.086 2884.72,950.086 C2852.62,950.086 2814.22,977.228 2814.22,1007.68"/>
<path class="Note" d="M8745.2,1793.11 C8745.2,1807.35 8755.46,1823.23 8782.28,1823.23 C8816.7,1823.23 8852.78,1795.1 8852.78,1765.97 C8852.78,1746.44 8836.23,1735.52 8815.71,1735.52 C8783.6,1735.52 8745.2,1762.66 8745.2,1793.11"/>
<path class="Note" d="M1860.42,1890.35 C1849.49,1890.35 1847.18,1881.42 1847.18,1878.44 C1847.18,1862.22 1902.79,1833.75 1918.34,1833.75 C1926.29,1833.75 1931.58,1838.39 1931.58,1845.67 C1931.58,1862.22 1875.64,1890.35 1860.42,1890.35 M1906.1,1818.2 C1873.99,1818.2 1835.59,1845.01 1835.59,1875.79 C1835.59,1890.02 1845.85,1905.91 1872.66,1905.91 C1907.09,1905.91 1943.17,1877.78 1943.17,1848.65 C1943.17,1829.12 1926.62,1818.2 1906.1,1818.2"/>
<path class="Note" d="M8968.95,1834.45 C8968.95,1848.68 8979.21,1864.57 9006.02,1864.57 C9040.45,1864.57 9076.52,1836.44 9076.52,1807.31 C9076.52,1787.78 9059.97,1776.86 9039.45,1776.86 C9007.35,1776.86 8968.95,1804 8968.95,1834.45"/>
<path class="Note" d="M7157.44,2909.25 C7157.44,2923.49 7167.7,2939.38 7194.52,2939.38 C7228.94,2939.38 7265.02,2911.24 7265.02,2882.11 C7265.02,2862.58 7248.47,2851.66 7227.95,2851.66 C7195.84,2851.66 7157.44,2878.8 7157.44,2909.25"/>
<path class="Note" d="M1434.96,1973.03 C1424.04,1973.03 1421.72,1964.09 1421.72,1961.12 C1421.72,1944.9 1477.33,1916.43 1492.89,1916.43 C1500.83,1916.43 1506.13,1921.06 1506.13,1928.35 C1506.13,1944.9 1450.19,1973.03 1434.96,1973.03 M1480.64,1900.87 C1448.53,1900.87 1410.14,1927.68 1410.14,1958.47 C1410.14,1972.7 1420.4,1988.59 1447.21,1988.59 C1481.63,1988.59 1517.71,1960.45 1517.71,1931.33 C1517.71,1911.8 1501.16,1900.87 1480.64,1900.87"/>
<path class="Note" d="M3048.4,1090.36 C3048.4,1104.59 3058.66,1120.48 3085.47,1120.48 C3119.9,1120.48 3155.98,1092.34 3155.98,1063.22 C3155.98,1043.69 3139.43,1032.76 3118.91,1032.76 C3086.8,1032.76 3048.4,1059.91 3048.4,1090.36"/>
<path class="Note" d="M3286.21,1131.7 C3286.21,1145.93 3296.47,1161.82 3323.28,1161.82 C3357.7,1161.82 3393.78,1133.68 3393.78,1104.55 C3393.78,1085.02 3377.23,1074.1 3356.71,1074.1 C3324.6,1074.1 3286.21,1101.24 3286.21,1131.7"/>
<path class="Note" d="M6868.65,2867.92 C6868.65,2882.15 6878.91,2898.04 6905.72,2898.04 C6940.14,2898.04 6976.22,2869.9 6976.22,2840.77 C6976.22,2821.25 6959.67,2810.32 6939.15,2810.32 C6907.04,2810.32 6868.65,2837.46 6868.65,2867.92"/>
<path class="Note" d="M3520.39,1173.03 C3520.39,1187.27 3530.65,1203.16 3557.46,1203.16 C3591.88,1203.16 3627.96,1175.02 3627.96,1145.89 C3627.96,1126.36 3611.41,1115.44 3590.89,1115.44 C3558.78,1115.44 3520.39,1142.58 3520.39,1173.03"/>
<path class="Note" d="M8966.28,1131.7 C8966.28,1145.93 8976.54,1161.82 9003.35,1161.82 C9037.77,1161.82 9073.85,1133.68 9073.85,1104.55 C9073.85,1085.02 9057.3,1074.1 9036.78,1074.1 C9004.67,1074.1 8966.28,1101.24 8966.28,1131.7"/>
<path class="Note" d="M1434.96,2675.79 C1424.04,2675.79 1421.72,2666.85 1421.72,2663.87 C1421.72,2647.65 1477.33,2619.19 1492.89,2619.19 C1500.83,2619.19 1506.13,2623.82 1506.13,2631.1 C1506.13,2647.65 1450.19,2675.79 1434.96,2675.79 M1480.64,2603.63 C1448.53,2603.63 1410.14,2630.44 1410.14,2661.22 C1410.14,2675.46 1420.4,2691.34 1447.21,2691.34 C1481.63,2691.34 1517.71,2663.21 1517.71,2634.08 C1517.71,2614.55 1501.16,2603.63 1480.64,2603.63"/>
<path class="Note" d="M6579.85,2826.58 C6579.85,2840.81 6590.11,2856.7 6616.93,2856.7 C6651.35,2856.7 6687.43,2828.56 6687.43,2799.44 C6687.43,2779.91 6670.88,2768.98 6650.36,2768.98 C6618.25,2768.98 6579.85,2796.13 6579.85,2826.58"/>
<path class="Note" d="M8732.09,1173.03 C8732.09,1187.27 8742.35,1203.16 8769.17,1203.16 C8803.59,1203.16 8839.67,1175.02 8839.67,1145.89 C8839.67,1126.36 8823.12,1115.44 8802.6,1115.44 C8770.49,1115.44 8732.09,1142.58 8732.09,1173.03"/>
<path class="Note" d="M1984.11,2675.79 C1973.19,2675.79 1970.87,2666.85 1970.87,2663.87 C1970.87,2647.65 2026.48,2619.19 2042.03,2619.19 C2049.98,2619.19 2055.27,2623.82 2055.27,2631.1 C2055.27,2647.65 1999.33,2675.79 1984.11,2675.79 M2029.79,2603.63 C1997.68,2603.63 1959.28,2630.44 1959.28,2661.22 C1959.28,2675.46 1969.54,2691.34 1996.36,2691.34 C2030.78,2691.34 2066.86,2663.21 2066.86,2634.08 C2066.86,2614.55 2050.31,2603.63 2029.79,2603.63"/>
<path class="Note" d="M8497.91,1131.7 C8497.91,1145.93 8508.17,1161.82 8534.98,1161.82 C8569.41,1161.82 8605.49,1133.68 8605.49,1104.55 C8605.49,1085.02 8588.94,1074.1 8568.41,1074.1 C8536.31,1074.1 8497.91,1101.24 8497.91,1131.7"/>
<path class="Note" d="M2392.48,2785.24 C2392.48,2799.47 2402.74,2815.36 2429.55,2815.36 C2463.97,2815.36 2500.05,2787.23 2500.05,2758.1 C2500.05,2738.57 2483.5,2727.65 2462.98,2727.65 C2430.87,2727.65 2392.48,2754.79 2392.48,2785.24"/>
<path class="Note" d="M3754.57,1131.7 C3754.57,1145.93 3764.83,1161.82 3791.64,1161.82 C3826.07,1161.82 3862.15,1133.68 3862.15,1104.55 C3862.15,1085.02 3845.6,1074.1 3825.07,1074.1 C3792.97,1074.1 3754.57,1101.24 3754.57,1131.7"/>
<path class="Note" d="M8260.11,1090.36 C8260.11,1104.59 8270.37,1120.48 8297.18,1120.48 C8331.6,1120.48 8367.68,1092.34 8367.68,1063.22 C8367.68,1043.69 8351.13,1032.76 8330.61,1032.76 C8298.5,1032.76 8260.11,1059.91 8260.11,1090.36"/>
<path class="Note" d="M2585.01,2743.9 C2585.01,2758.13 2595.27,2774.02 2622.08,2774.02 C2656.5,2774.02 2692.58,2745.89 2692.58,2716.76 C2692.58,2697.23 2676.03,2686.31 2655.51,2686.31 C2623.4,2686.31 2585.01,2713.45 2585.01,2743.9"/>
<path class="Note" d="M8025.93,1007.68 C8025.93,1021.91 8036.19,1037.8 8063,1037.8 C8097.42,1037.8 8133.5,1009.67 8133.5,980.538 C8133.5,961.009 8116.95,950.086 8096.43,950.086 C8064.32,950.086 8025.93,977.228 8025.93,1007.68"/>
<path class="Note" d="M7791.74,1049.02 C7791.74,1063.25 7802,1079.14 7828.81,1079.14 C7863.24,1079.14 7899.32,1051 7899.32,1021.88 C7899.32,1002.35 7882.77,991.425 7862.25,991.425 C7830.14,991.425 7791.74,1018.57 7791.74,1049.02"/>
<path class="Note" d="M7439.33,1007.68 C7439.33,1021.91 7449.59,1037.8 7476.4,1037.8 C7510.83,1037.8 7546.91,1009.67 7546.91,980.538 C7546.91,961.009 7530.36,950.086 7509.83,950.086 C7477.73,950.086 7439.33,977.228 7439.33,1007.68"/>
<path class="Note" d="M2934.74,2702.56 C2934.74,2716.79 2945.01,2732.68 2971.82,2732.68 C3006.24,2732.68 3042.32,2704.55 3042.32,2675.42 C3042.32,2655.89 3025.77,2644.97 3005.25,2644.97 C2973.14,2644.97 2934.74,2672.11 2934.74,2702.56"/>
<path class="Note" d="M7112.88,1022.24 C7101.96,1022.24 7099.64,1013.31 7099.64,1010.33 C7099.64,994.109 7155.25,965.643 7170.81,965.643 C7178.75,965.643 7184.05,970.277 7184.05,977.559 C7184.05,994.109 7128.11,1022.24 7112.88,1022.24 M7158.56,950.086 C7126.45,950.086 7088.06,976.897 7088.06,1007.68 C7088.06,1021.91 7098.32,1037.8 7125.13,1037.8 C7159.55,1037.8 7195.63,1009.67 7195.63,980.538 C7195.63,961.009 7179.08,950.086 7158.56,950.086"/>
<path class="Note" d="M3223.54,2743.9 C3223.54,2758.13 3233.8,2774.02 3260.61,2774.02 C3295.04,2774.02 3331.11,2745.89 3331.11,2716.76 C3331.11,2697.23 3314.56,2686.31 3294.04,2686.31 C3261.94,2686.31 3223.54,2713.45 3223.54,2743.9"/>
<path class="Note" d="M6291.06,2743.9 C6291.06,2758.13 6301.32,2774.02 6328.13,2774.02 C6362.55,2774.02 6398.63,2745.89 6398.63,2716.76 C6398.63,2697.23 6382.08,2686.31 6361.56,2686.31 C6329.45,2686.31 6291.06,2713.45 6291.06,2743.9"/>
<path class="Note" d="M3512.33,2785.24 C3512.33,2799.47 3522.6,2815.36 3549.41,2815.36 C3583.83,2815.36 3619.91,2787.23 3619.91,2758.1 C3619.91,2738.57 3603.36,2727.65 3582.84,2727.65 C3550.73,2727.65 3512.33,2754.79 3512.33,2785.24"/>
<path class="Note" d="M6667.58,1104.92 C6656.66,1104.92 6654.34,1095.98 6654.34,1093.01 C6654.34,1076.79 6709.95,1048.32 6725.51,1048.32 C6733.45,1048.32 6738.75,1052.95 6738.75,1060.24 C6738.75,1076.79 6682.81,1104.92 6667.58,1104.92 M6713.26,1032.76 C6681.15,1032.76 6642.76,1059.57 6642.76,1090.36 C6642.76,1104.59 6653.02,1120.48 6679.83,1120.48 C6714.25,1120.48 6750.33,1092.34 6750.33,1063.22 C6750.33,1043.69 6733.78,1032.76 6713.26,1032.76"/>
<path class="Note" d="M3801.13,2702.56 C3801.13,2716.79 3811.39,2732.68 3838.2,2732.68 C3872.63,2732.68 3908.7,2704.55 3908.7,2675.42 C3908.7,2655.89 3892.15,2644.97 3871.63,2644.97 C3839.53,2644.97 3801.13,2672.11 3801.13,2702.56"/>
<path class="Note" d="M6290.35,1131.7 C6290.35,1145.93 6300.61,1161.82 6327.42,1161.82 C6361.84,1161.82 6397.92,1133.68 6397.92,1104.55 C6397.92,1085.02 6381.37,1074.1 6360.85,1074.1 C6328.74,1074.1 6290.35,1101.24 6290.35,1131.7"/>
<path class="Note" d="M4089.92,2743.9 C4089.92,2758.13 4100.19,2774.02 4127,2774.02 C4161.42,2774.02 4197.5,2745.89 4197.5,2716.76 C4197.5,2697.23 4180.95,2686.31 4160.43,2686.31 C4128.32,2686.31 4089.92,2713.45 4089.92,2743.9"/>
<path class="Note" d="M6056.16,1173.03 C6056.16,1187.27 6066.42,1203.16 6093.23,1203.16 C6127.66,1203.16 6163.74,1175.02 6163.74,1145.89 C6163.74,1126.36 6147.19,1115.44 6126.67,1115.44 C6094.56,1115.44 6056.16,1142.58 6056.16,1173.03"/>
<path class="Note" d="M4378.72,2785.24 C4378.72,2799.47 4388.98,2815.36 4415.79,2815.36 C4450.22,2815.36 4486.29,2787.23 4486.29,2758.1 C4486.29,2738.57 4469.74,2727.65 4449.22,2727.65 C4417.12,2727.65 4378.72,2754.79 4378.72,2785.24"/>
<path class="Note" d="M5821.98,1131.7 C5821.98,1145.93 5832.24,1161.82 5859.05,1161.82 C5893.48,1161.82 5929.55,1133.68 5929.55,1104.55 C5929.55,1085.02 5913,1074.1 5892.48,1074.1 C5860.38,1074.1 5821.98,1101.24 5821.98,1131.7"/>
<path class="Note" d="M5584.18,1090.36 C5584.18,1104.59 5594.44,1120.48 5621.25,1120.48 C5655.67,1120.48 5691.75,1092.34 5691.75,1063.22 C5691.75,1043.69 5675.2,1032.76 5654.68,1032.76 C5622.57,1032.76 5584.18,1059.91 5584.18,1090.36"/>
<path class="Note" d="M5349.99,1007.68 C5349.99,1021.91 5360.25,1037.8 5387.07,1037.8 C5421.49,1037.8 5457.57,1009.67 5457.57,980.538 C5457.57,961.009 5441.02,950.086 5420.5,950.086 C5388.39,950.086 5349.99,977.228 5349.99,1007.68"/>
<path class="Note" d="M4810.57,2717.13 C4799.65,2717.13 4797.33,2708.19 4797.33,2705.21 C4797.33,2688.99 4852.94,2660.52 4868.49,2660.52 C4876.44,2660.52 4881.73,2665.16 4881.73,2672.44 C4881.73,2688.99 4825.79,2717.13 4810.57,2717.13 M4856.25,2644.97 C4824.14,2644.97 4785.74,2671.78 4785.74,2702.56 C4785.74,2716.79 4796,2732.68 4822.82,2732.68 C4857.24,2732.68 4893.32,2704.55 4893.32,2675.42 C4893.32,2655.89 4876.77,2644.97 4856.25,2644.97"/>
<path class="Note" d="M4131.81,1104.92 C4120.88,1104.92 4118.57,1095.98 4118.57,1093.01 C4118.57,1076.79 4174.18,1048.32 4189.73,1048.32 C4197.68,1048.32 4202.97,1052.95 4202.97,1060.24 C4202.97,1076.79 4147.03,1104.92 4131.81,1104.92 M4177.49,1032.76 C4145.38,1032.76 4106.98,1059.57 4106.98,1090.36 C4106.98,1104.59 4117.24,1120.48 4144.05,1120.48 C4178.48,1120.48 4214.56,1092.34 4214.56,1063.22 C4214.56,1043.69 4198.01,1032.76 4177.49,1032.76"/>
<path class="Note" d="M5115.81,1049.02 C5115.81,1063.25 5126.07,1079.14 5152.88,1079.14 C5187.31,1079.14 5223.39,1051 5223.39,1021.88 C5223.39,1002.35 5206.84,991.425 5186.31,991.425 C5154.21,991.425 5115.81,1018.57 5115.81,1049.02"/>
<path class="Note" d="M5359.71,2758.46 C5348.79,2758.46 5346.47,2749.53 5346.47,2746.55 C5346.47,2730.33 5402.08,2701.86 5417.64,2701.86 C5425.58,2701.86 5430.88,2706.5 5430.88,2713.78 C5430.88,2730.33 5374.94,2758.46 5359.71,2758.46 M5405.39,2686.31 C5373.29,2686.31 5334.89,2713.12 5334.89,2743.9 C5334.89,2758.13 5345.15,2774.02 5371.96,2774.02 C5406.39,2774.02 5442.46,2745.89 5442.46,2716.76 C5442.46,2697.23 5425.91,2686.31 5405.39,2686.31"/>
<path class="Note" d="M6002.26,2785.24 C6002.26,2799.47 6012.52,2815.36 6039.34,2815.36 C6073.76,2815.36 6109.84,2787.23 6109.84,2758.1 C6109.84,2738.57 6093.29,2727.65 6072.77,2727.65 C6040.66,2727.65 6002.26,2754.79 6002.26,2785.24"/>
<path class="Note" d="M5793.01,1834.45 C5793.01,1848.68 5803.28,1864.57 5830.09,1864.57 C5864.51,1864.57 5900.59,1836.44 5900.59,1807.31 C5900.59,1787.78 5884.04,1776.86 5863.52,1776.86 C5831.41,1776.86 5793.01,1804 5793.01,1834.45"/>
<path class="Clef" d="M909.689,2880.86 C903.069,2882.19 896.78,2882.85 890.491,2882.85 C843.158,2882.85 802.776,2849.75 802.776,2799.77 C802.776,2759.38 831.242,2723.31 860.37,2698.15 C865.997,2693.18 871.293,2688.55 876.258,2683.59 C879.237,2701.46 881.554,2717.02 883.871,2730.59 C853.75,2739.52 833.228,2771.3 833.228,2802.41 C833.228,2825.58 851.433,2857.36 877.913,2857.36 C880.561,2857.36 883.54,2856.04 883.54,2853.06 C883.54,2850.08 880.23,2848.42 876.258,2845.78 C863.349,2837.83 856.067,2829.23 856.067,2813.01 C856.067,2792.82 870.962,2776.6 890.491,2771.96 L909.689,2880.86 M880.561,2540.59 C883.54,2527.35 898.766,2492.6 915.978,2492.6 C920.943,2492.6 928.887,2508.82 928.887,2531.66 C928.887,2566.08 903.4,2591.9 880.561,2614.41 C878.575,2601.17 876.92,2588.26 876.92,2574.36 C876.92,2562.11 877.913,2550.85 880.561,2540.59 M956.691,2819.63 C956.691,2843.13 947.092,2867.29 923.591,2876.89 C916.64,2837.17 907.703,2784.54 905.386,2769.98 C935.176,2769.98 956.691,2790.17 956.691,2819.63 M811.051,2982.48 C811.051,3004.32 827.932,3033.12 872.617,3033.12 C888.174,3033.12 901.745,3029.15 913.661,3021.87 C931.535,3009.29 936.169,2987.44 936.169,2966.59 C936.169,2953.68 934.183,2938.79 930.873,2919.92 C929.88,2913.3 927.894,2903.37 925.908,2890.46 C958.346,2879.87 982.509,2846.11 982.509,2812.01 C982.509,2762.03 947.092,2728.27 898.766,2728.27 C895.456,2708.41 892.146,2688.88 889.167,2670.35 C924.253,2633.6 948.416,2592.23 948.416,2539.6 C948.416,2509.48 939.148,2484.99 933.852,2473.07 C925.908,2456.19 916.309,2444.6 910.351,2444.6 C908.034,2444.6 897.773,2448.58 886.85,2461.48 C865.666,2486.64 859.708,2529.01 859.708,2556.81 C859.708,2574.69 861.363,2590.91 866.99,2627.98 C866.659,2628.31 849.447,2645.85 842.496,2651.48 C812.375,2679.61 770.669,2719.66 770.669,2785.86 C770.669,2847.76 824.622,2896.42 886.188,2896.42 C895.787,2896.42 904.724,2895.43 912.337,2894.1 C918.626,2925.88 922.267,2949.05 922.267,2966.59 C922.267,3001.01 904.724,3019.22 871.293,3019.22 C863.349,3019.22 856.398,3017.56 855.736,3017.56 C855.405,3017.23 854.743,3016.9 854.743,3016.57 C854.743,3015.91 855.405,3015.58 856.398,3015.25 C871.955,3012.93 887.512,2999.69 887.512,2978.51 C887.512,2960.63 873.941,2941.77 849.116,2941.77 C825.946,2941.77 811.051,2960.63 811.051,2982.48"/>
<path class="Clef" d="M909.689,2012.75 C903.069,2014.08 896.78,2014.74 890.491,2014.74 C843.158,2014.74 802.776,1981.64 802.776,1931.66 C802.776,1891.27 831.242,1855.2 860.37,1830.04 C865.997,1825.07 871.293,1820.44 876.258,1815.48 C879.237,1833.35 881.554,1848.91 883.871,1862.48 C853.75,1871.41 833.228,1903.19 833.228,1934.3 C833.228,1957.47 851.433,1989.25 877.913,1989.25 C880.561,1989.25 883.54,1987.93 883.54,1984.95 C883.54,1981.97 880.23,1980.31 876.258,1977.67 C863.349,1969.72 856.067,1961.12 856.067,1944.9 C856.067,1924.71 870.962,1908.49 890.491,1903.85 L909.689,2012.75 M880.561,1672.48 C883.54,1659.24 898.766,1624.49 915.978,1624.49 C920.943,1624.49 928.887,1640.71 928.887,1663.55 C928.887,1697.97 903.4,1723.79 880.561,1746.3 C878.575,1733.06 876.92,1720.15 876.92,1706.25 C876.92,1694 877.913,1682.74 880.561,1672.48 M956.691,1951.52 C956.691,1975.02 947.092,1999.18 923.591,2008.78 C916.64,1969.06 907.703,1916.43 905.386,1901.87 C935.176,1901.87 956.691,1922.06 956.691,1951.52 M811.051,2114.37 C811.051,2136.21 827.932,2165.01 872.617,2165.01 C888.174,2165.01 901.745,2161.04 913.661,2153.76 C931.535,2141.18 936.169,2119.33 936.169,2098.48 C936.169,2085.57 934.183,2070.68 930.873,2051.81 C929.88,2045.19 927.894,2035.26 925.908,2022.35 C958.346,2011.76 982.509,1978 982.509,1943.9 C982.509,1893.92 947.092,1860.16 898.766,1860.16 C895.456,1840.3 892.146,1820.77 889.167,1802.24 C924.253,1765.49 948.416,1724.12 948.416,1671.49 C948.416,1641.37 939.148,1616.88 933.852,1604.96 C925.908,1588.08 916.309,1576.49 910.351,1576.49 C908.034,1576.49 897.773,1580.47 886.85,1593.37 C865.666,1618.53 859.708,1660.9 859.708,1688.7 C859.708,1706.58 861.363,1722.8 866.99,1759.87 C866.659,1760.2 849.447,1777.74 842.496,1783.37 C812.375,1811.5 770.669,1851.55 770.669,1917.75 C770.669,1979.65 824.622,2028.31 886.188,2028.31 C895.787,2028.31 904.724,2027.32 912.337,2025.99 C918.626,2057.77 922.267,2080.94 922.267,2098.48 C922.267,2132.9 904.724,2151.11 871.293,2151.11 C863.349,2151.11 856.398,2149.45 855.736,2149.45 C855.405,2149.12 854.743,2148.79 854.743,2148.46 C854.743,2147.8 855.405,2147.47 856.398,2147.14 C871.955,2144.82 887.512,2131.58 887.512,2110.4 C887.512,2092.52 873.941,2073.66 849.116,2073.66 C825.946,2073.66 811.051,2092.52 811.051,2114.37"/>
<path class="Clef" d="M909.689,1144.64 C903.069,1145.97 896.78,1146.63 890.491,1146.63 C843.158,1146.63 802.776,1113.53 802.776,1063.55 C802.776,1023.16 831.242,987.085 860.37,961.929 C865.997,956.964 871.293,952.33 876.258,947.365 C879.237,965.239 881.554,980.796 883.871,994.367 C853.75,1003.3 833.228,1035.08 833.228,1066.19 C833.228,1089.36 851.433,1121.14 877.913,1121.14 C880.561,1121.14 883.54,1119.82 883.54,1116.84 C883.54,1113.86 880.23,1112.2 876.258,1109.56 C863.349,1101.61 856.067,1093.01 856.067,1076.79 C856.067,1056.6 870.962,1040.38 890.491,1035.74 L909.689,1144.64 M880.561,804.373 C883.54,791.133 898.766,756.378 915.978,756.378 C920.943,756.378 928.887,772.597 928.887,795.436 C928.887,829.86 903.4,855.678 880.561,878.186 C878.575,864.946 876.92,852.037 876.92,838.135 C876.92,825.888 877.913,814.634 880.561,804.373 M956.691,1083.41 C956.691,1106.91 947.092,1131.07 923.591,1140.67 C916.64,1100.95 907.703,1048.32 905.386,1033.76 C935.176,1033.76 956.691,1053.95 956.691,1083.41 M811.051,1246.26 C811.051,1268.1 827.932,1296.9 872.617,1296.9 C888.174,1296.9 901.745,1292.93 913.661,1285.65 C931.535,1273.07 936.169,1251.22 936.169,1230.37 C936.169,1217.46 934.183,1202.57 930.873,1183.7 C929.88,1177.08 927.894,1167.15 925.908,1154.24 C958.346,1143.65 982.509,1109.89 982.509,1075.79 C982.509,1025.81 947.092,992.05 898.766,992.05 C895.456,972.19 892.146,952.661 889.167,934.125 C924.253,897.384 948.416,856.009 948.416,803.38 C948.416,773.259 939.148,748.765 933.852,736.849 C925.908,719.968 916.309,708.383 910.351,708.383 C908.034,708.383 897.773,712.355 886.85,725.264 C865.666,750.42 859.708,792.788 859.708,820.592 C859.708,838.466 861.363,854.685 866.99,891.757 C866.659,892.088 849.447,909.631 842.496,915.258 C812.375,943.393 770.669,983.444 770.669,1049.64 C770.669,1111.54 824.622,1160.2 886.188,1160.2 C895.787,1160.2 904.724,1159.21 912.337,1157.88 C918.626,1189.66 922.267,1212.83 922.267,1230.37 C922.267,1264.79 904.724,1283 871.293,1283 C863.349,1283 856.398,1281.34 855.736,1281.34 C855.405,1281.01 854.743,1280.68 854.743,1280.35 C854.743,1279.69 855.405,1279.36 856.398,1279.03 C871.955,1276.71 887.512,1263.47 887.512,1242.29 C887.512,1224.41 873.941,1205.55 849.116,1205.55 C825.946,1205.55 811.051,1224.41 811.051,1246.26"/>
<path class="KeySig" d="M1088.05,2716.76 C1088.05,2742.91 1074.48,2756.81 1055.28,2772.04 L1056.27,2707.49 C1056.93,2704.51 1061.9,2694.91 1075.14,2694.91 C1087.06,2694.91 1088.05,2706.17 1088.05,2713.12 L1088.05,2716.76 M1084.08,2678.69 C1067.53,2678.69 1057.93,2688.95 1056.27,2690.94 L1057.6,2584.69 C1057.6,2582.04 1055.61,2580.06 1052.96,2580.06 L1048.99,2580.06 C1046.34,2580.06 1044.36,2582.04 1044.36,2584.69 L1046.01,2783.62 C1046.01,2786.27 1048,2788.25 1050.65,2788.25 C1051.31,2788.25 1052.63,2787.92 1053.29,2787.59 C1081.76,2773.36 1111.55,2746.22 1111.55,2712.12 C1111.55,2694.91 1103.61,2678.69 1084.08,2678.69"/>
<path class="KeySig" d="M1179.99,2592.74 C1179.99,2618.89 1166.42,2632.79 1147.22,2648.02 L1148.21,2583.47 C1148.87,2580.5 1153.84,2570.9 1167.08,2570.9 C1178.99,2570.9 1179.99,2582.15 1179.99,2589.1 L1179.99,2592.74 M1176.01,2554.68 C1159.46,2554.68 1149.87,2564.94 1148.21,2566.92 L1149.53,2460.67 C1149.53,2458.03 1147.55,2456.04 1144.9,2456.04 L1140.93,2456.04 C1138.28,2456.04 1136.29,2458.03 1136.29,2460.67 L1137.95,2659.6 C1137.95,2662.25 1139.94,2664.24 1142.58,2664.24 C1143.25,2664.24 1144.57,2663.91 1145.23,2663.58 C1173.7,2649.34 1203.49,2622.2 1203.49,2588.11 C1203.49,2570.9 1195.54,2554.68 1176.01,2554.68"/>
<path class="KeySig" d="M1088.05,1848.65 C1088.05,1874.8 1074.48,1888.7 1055.28,1903.93 L1056.27,1839.38 C1056.93,1836.4 1061.9,1826.8 1075.14,1826.8 C1087.06,1826.8 1088.05,1838.06 1088.05,1845.01 L1088.05,1848.65 M1084.08,1810.58 C1067.53,1810.58 1057.93,1820.84 1056.27,1822.83 L1057.6,1716.58 C1057.6,1713.93 1055.61,1711.95 1052.96,1711.95 L1048.99,1711.95 C1046.34,1711.95 1044.36,1713.93 1044.36,1716.58 L1046.01,1915.51 C1046.01,1918.16 1048,1920.14 1050.65,1920.14 C1051.31,1920.14 1052.63,1919.81 1053.29,1919.48 C1081.76,1905.25 1111.55,1878.11 1111.55,1844.01 C1111.55,1826.8 1103.61,1810.58 1084.08,1810.58"/>
<path class="KeySig" d="M1179.99,1724.63 C1179.99,1750.78 1166.42,1764.68 1147.22,1779.91 L1148.21,1715.36 C1148.87,1712.39 1153.84,1702.79 1167.08,1702.79 C1178.99,1702.79 1179.99,1714.04 1179.99,1720.99 L1179.99,1724.63 M1176.01,1686.57 C1159.46,1686.57 1149.87,1696.83 1148.21,1698.81 L1149.53,1592.56 C1149.53,1589.92 1147.55,1587.93 1144.9,1587.93 L1140.93,1587.93 C1138.28,1587.93 1136.29,1589.92 1136.29,1592.56 L1137.95,1791.49 C1137.95,1794.14 1139.94,1796.13 1142.58,1796.13 C1143.25,1796.13 1144.57,1795.8 1145.23,1795.47 C1173.7,1781.23 1203.49,1754.09 1203.49,1720 C1203.49,1702.79 1195.54,1686.57 1176.01,1686.57"/>
<path class="KeySig" d="M1088.05,980.538 C1088.05,1006.69 1074.48,1020.59 1055.28,1035.82 L1056.27,971.27 C1056.93,968.291 1061.9,958.692 1075.14,958.692 C1087.06,958.692 1088.05,969.946 1088.05,976.897 L1088.05,980.538 M1084.08,942.473 C1067.53,942.473 1057.93,952.734 1056.27,954.72 L1057.6,848.469 C1057.6,845.821 1055.61,843.835 1052.96,843.835 L1048.99,843.835 C1046.34,843.835 1044.36,845.821 1044.36,848.469 L1046.01,1047.4 C1046.01,1050.05 1048,1052.03 1050.65,1052.03 C1051.31,1052.03 1052.63,1051.7 1053.29,1051.37 C1081.76,1037.14 1111.55,1010 1111.55,975.904 C1111.55,958.692 1103.61,942.473 1084.08,942.473"/>
<path class="KeySig" d="M1179.99,856.522 C1179.99,882.671 1166.42,896.573 1147.22,911.799 L1148.21,847.254 C1148.87,844.275 1153.84,834.676 1167.08,834.676 C1178.99,834.676 1179.99,845.93 1179.99,852.881 L1179.99,856.522 M1176.01,818.457 C1159.46,818.457 1149.87,828.718 1148.21,830.704 L1149.53,724.453 C1149.53,721.805 1147.55,719.819 1144.9,719.819 L1140.93,719.819 C1138.28,719.819 1136.29,721.805 1136.29,724.453 L1137.95,923.384 C1137.95,926.032 1139.94,928.018 1142.58,928.018 C1143.25,928.018 1144.57,927.687 1145.23,927.356 C1173.7,913.123 1203.49,885.981 1203.49,851.888 C1203.49,834.676 1195.54,818.457 1176.01,818.457"/>
<path class="TimeSig" d="M1373.33,907.779 C1399.81,897.518 1401.47,880.306 1401.47,874.348 L1401.47,872.693 C1401.47,869.714 1400.48,832.311 1343.54,832.311 C1286.61,832.311 1288.27,872.693 1288.27,872.693 L1288.6,872.693 L1288.27,873.355 C1288.27,885.271 1297.87,894.539 1309.78,894.539 C1321.7,894.539 1330.97,885.271 1330.97,873.355 C1330.97,863.756 1323.68,854.488 1314.42,852.502 L1315.41,851.509 C1320.04,848.199 1326.33,846.544 1332.62,846.544 C1346.52,846.544 1361.42,854.819 1361.42,872.693 C1361.42,893.546 1345.86,896.525 1341.89,897.187 C1337.92,897.849 1319.38,899.173 1315.41,899.173 C1311.44,899.173 1311.11,903.807 1311.11,903.807 L1311.11,910.427 C1311.11,910.427 1311.77,914.068 1315.41,914.399 C1321.04,914.73 1328.65,914.73 1339.24,916.385 C1353.8,918.371 1361.42,928.301 1361.42,951.471 C1361.42,973.648 1346.52,979.606 1332.62,979.606 C1323.35,979.606 1314.75,976.958 1311.11,974.31 C1322.03,973.648 1330.97,964.049 1330.97,953.126 C1330.97,941.21 1321.7,931.611 1309.78,931.611 C1297.87,931.611 1288.27,941.21 1288.27,953.126 C1288.27,980.268 1313.09,993.839 1337.59,993.839 C1369.36,993.839 1403.79,982.916 1403.79,946.837 C1403.79,922.674 1387.24,912.413 1372.67,907.779 L1373.33,907.779 "/>
<path class="TimeSig" d="M1394.36,1087.39 C1391.71,1094.67 1385.09,1118.5 1368.88,1118.5 C1347.36,1118.5 1342.73,1105.26 1324.85,1105.26 C1322.2,1105.26 1319.56,1105.6 1316.25,1106.26 C1316.25,1106.26 1324.52,1093.68 1359.61,1082.76 C1394.69,1071.83 1403.63,1054.62 1403.63,1034.76 C1403.63,1020.86 1397.34,993.386 1347.36,993.386 C1297.38,993.386 1288.11,1023.51 1288.11,1038.73 C1288.11,1052.3 1299.37,1063.23 1312.94,1063.23 C1326.51,1063.23 1337.43,1052.3 1337.43,1038.73 C1337.43,1029.47 1330.81,1019.2 1322.2,1015.89 C1321.21,1015.56 1319.89,1013.91 1319.89,1012.25 C1319.89,1010.27 1321.54,1007.95 1327.5,1006.3 C1329.16,1005.63 1333.79,1004.64 1338.75,1004.64 C1357.62,1004.64 1361.26,1016.23 1361.26,1033.11 C1361.26,1071.83 1315.25,1080.11 1296.06,1108.91 C1296.06,1108.91 1286.13,1122.81 1286.13,1138.36 C1286.13,1153.92 1294.07,1154.91 1298.04,1154.91 C1303.34,1154.91 1308.96,1150.61 1308.96,1144.65 C1308.96,1143.33 1308.63,1142.01 1307.97,1140.35 C1305.99,1135.72 1305.32,1132.08 1305.32,1129.43 C1305.32,1128.43 1305.32,1127.44 1305.65,1126.45 C1305.99,1124.46 1308.63,1121.15 1316.58,1121.15 C1326.18,1121.15 1329.82,1132.41 1335.78,1141.01 C1341.73,1149.62 1351,1154.91 1361.59,1154.91 C1372.19,1154.91 1386.42,1147.3 1392.38,1135.05 C1398.33,1122.81 1405.95,1097.98 1405.95,1089.05 C1405.95,1084.74 1403.3,1082.76 1400.32,1082.76 C1398,1082.76 1395.69,1084.08 1394.36,1087.39"/>
<path class="Beam" fill-rule="evenodd" d="M2491.69,2502.53 L2692.49,2481.86 L2692.49,2523.41 L2491.69,2544.08 L2491.69,2502.53 "/>
<path class="Beam" fill-rule="evenodd" d="M7450.53,1613.68 L7607.96,1634.35 L7607.96,1676.04 L7450.53,1655.37 L7450.53,1613.68 "/>
<path class="Beam" fill-rule="evenodd" d="M4722.09,1634.35 L4879.52,1613.68 L4879.52,1655.37 L4722.09,1676.04 L4722.09,1634.35 "/>
<path class="NoteDot" d="M4701.11,952.439 C4701.11,961.707 4708.4,968.989 4717.66,968.989 C4726.93,968.989 4734.21,961.707 4734.21,952.439 C4734.21,943.171 4726.93,935.889 4717.66,935.889 C4708.4,935.889 4701.11,943.171 4701.11,952.439"/>
<path class="NoteDot" d="M4255.81,1035.12 C4255.81,1044.38 4263.1,1051.67 4272.36,1051.67 C4281.63,1051.67 4288.91,1044.38 4288.91,1035.12 C4288.91,1025.85 4281.63,1018.57 4272.36,1018.57 C4263.1,1018.57 4255.81,1025.85 4255.81,1035.12"/>
<path class="NoteDot" d="M5483.72,2688.66 C5483.72,2697.93 5491,2705.21 5500.27,2705.21 C5509.54,2705.21 5516.82,2697.93 5516.82,2688.66 C5516.82,2679.39 5509.54,2672.11 5500.27,2672.11 C5491,2672.11 5483.72,2679.39 5483.72,2688.66"/>
<path class="NoteDot" d="M4934.58,2688.66 C4934.58,2697.93 4941.86,2705.21 4951.13,2705.21 C4960.39,2705.21 4967.68,2697.93 4967.68,2688.66 C4967.68,2679.39 4960.39,2672.11 4951.13,2672.11 C4941.86,2672.11 4934.58,2679.39 4934.58,2688.66"/>
<path class="NoteDot" d="M6791.59,1035.12 C6791.59,1044.38 6798.87,1051.67 6808.14,1051.67 C6817.41,1051.67 6824.69,1044.38 6824.69,1035.12 C6824.69,1025.85 6817.41,1018.57 6808.14,1018.57 C6798.87,1018.57 6791.59,1025.85 6791.59,1035.12"/>
<path class="NoteDot" d="M1558.97,2605.98 C1558.97,2615.25 1566.25,2622.53 1575.52,2622.53 C1584.79,2622.53 1592.07,2615.25 1592.07,2605.98 C1592.07,2596.71 1584.79,2589.43 1575.52,2589.43 C1566.25,2589.43 1558.97,2596.71 1558.97,2605.98"/>
<path class="NoteDot" d="M1558.97,1903.23 C1558.97,1912.49 1566.25,1919.78 1575.52,1919.78 C1584.79,1919.78 1592.07,1912.49 1592.07,1903.23 C1592.07,1893.96 1584.79,1886.68 1575.52,1886.68 C1566.25,1886.68 1558.97,1893.96 1558.97,1903.23"/>
<path class="NoteDot" d="M1984.42,1820.55 C1984.42,1829.82 1991.71,1837.1 2000.97,1837.1 C2010.24,1837.1 2017.52,1829.82 2017.52,1820.55 C2017.52,1811.28 2010.24,1804 2000.97,1804 C1991.71,1804 1984.42,1811.28 1984.42,1820.55"/>
<path class="NoteDot" d="M4010.63,1903.23 C4010.63,1912.49 4017.91,1919.78 4027.18,1919.78 C4036.45,1919.78 4043.73,1912.49 4043.73,1903.23 C4043.73,1893.96 4036.45,1886.68 4027.18,1886.68 C4017.91,1886.68 4010.63,1893.96 4010.63,1903.23"/>
<path class="NoteDot" d="M2165.34,952.439 C2165.34,961.707 2172.62,968.989 2181.89,968.989 C2191.16,968.989 2198.44,961.707 2198.44,952.439 C2198.44,943.171 2191.16,935.889 2181.89,935.889 C2172.62,935.889 2165.34,943.171 2165.34,952.439"/>
<path class="NoteDot" d="M6739.08,1820.55 C6739.08,1829.82 6746.36,1837.1 6755.63,1837.1 C6764.89,1837.1 6772.18,1829.82 6772.18,1820.55 C6772.18,1811.28 6764.89,1804 6755.63,1804 C6746.36,1804 6739.08,1811.28 6739.08,1820.55"/>
<path class="NoteDot" d="M8002.09,2771.34 C8002.09,2780.61 8009.38,2787.89 8018.64,2787.89 C8027.91,2787.89 8035.19,2780.61 8035.19,2771.34 C8035.19,2762.07 8027.91,2754.79 8018.64,2754.79 C8009.38,2754.79 8002.09,2762.07 8002.09,2771.34"/>
</svg>
