<?xml version="1.0" encoding="utf-8"?>
<svg xmlns="http://www.w3.org/2000/svg" xmlns:svg="http://www.w3.org/2000/svg" version="1.1" viewBox="0 0 681 187">
	<title>The musical score for Air XLVIII</title>
	<path d="M474.6 6.807c0 .742.582 1.325 1.325 1.325.74 0 1.324-.583 1.324-1.325s-.583-1.325-1.324-1.325c-.743 0-1.325.583-1.325 1.325M182.333 145.8c0 .742.583 1.325 1.325 1.325s1.325-.583 1.325-1.325-.583-1.325-1.325-1.325-1.325.583-1.325 1.325M317.83 82.922c0 .742.582 1.325 1.324 1.325s1.325-.583 1.325-1.325-.582-1.324-1.325-1.324c-.742 0-1.324.582-1.324 1.324m304.584 69.497c0 .741.583 1.325 1.325 1.325s1.325-.584 1.325-1.325c0-.742-.583-1.325-1.325-1.325s-1.325.583-1.325 1.325M381.09 175.584h34.776v3.31H381.09zm18.792-82.747 13.278-1.654v3.335l-13.278 1.654zm0 4.964 13.278-1.654v3.335l-13.278 1.655zm-160.204 4.971 38.509 3.31v3.321l-38.509-3.31zM110.075 10.11l38.231-3.31v3.323l-38.23 3.309zm453.427 95.978h38.51v3.309h-38.51zm-380.596-9.93 38.51 1.656v3.312l-38.51-1.654zm465.753-3.32 13.277-1.655v3.335l-13.278 1.654zm0 4.964 13.278-1.654v3.335l-13.278 1.655zm-506.366-4.964 13.277-1.654v3.335l-13.277 1.654zm0 4.964 13.277-1.654v3.335l-13.277 1.655zm406.093 74.466 34.776 3.31v3.324l-34.776-3.31zm-491.25.006 34.776 1.654v3.314l-34.775-1.655zm7.942-99.28 38.51 1.654v3.313l-38.51-1.655zm375.417 29.785 38.51 1.655v3.311l-38.51-1.653zm126.605-61.224 38.231 1.655v3.313l-38.23-1.655zm-458.795 130.72 34.776 1.654v3.314l-34.776-1.655zm50.179-129.068 38.23-3.31v3.322l-38.23 3.31zm464.97 0 38.23-3.31v3.322l-38.23 3.31zm-126.24 122.45 34.775 1.655v3.313l-34.776-1.655zm-268.777-3.323 12.033-1.655v3.341l-12.033 1.655zm0 4.963 12.033-1.654v3.34l-12.033 1.654zM526.58 23.341l13.185-1.655v3.335l-13.185 1.655zm0 4.964 13.185-1.655v3.335L526.58 31.64zM267.807 172.272l34.776 1.655v3.314l-34.776-1.655zM232.247 3.498h38.23v3.31h-38.23zm86.731 163.813h34.776v3.309h-34.776zm85.83-163.812h38.232v3.31h-38.231zm53.037 158.833 12.033-1.655v3.341l-12.033 1.655zm0 4.963 12.033-1.654v3.34l-12.033 1.654zm39.421-69.48h38.51v3.309h-38.51zM348.455 10.11l38.231-3.31v3.323l-38.231 3.309zM53.913 28.701c-1.802-.582-3.79-1.457-3.79-2.65 0-1.033.954-1.456 2.093-1.456 1.644 0 2.757.768 2.757 1.987 0 1.272-.583 1.88-1.06 2.12m-1.697 6.28c-1.695 0-3.152-.928-3.152-2.412 0-1.775 1.378-2.2 1.378-2.2 1.802.61 4.371 1.511 4.371 2.969 0 .715-.927 1.643-2.597 1.643m3.18-5.565c.875-.663 1.484-1.51 1.484-2.57 0-1.908-2.093-3.472-4.664-3.472s-4.663 1.564-4.663 3.472c0 1.06.265 2.014 1.51 2.809-1.192.688-1.854 1.669-1.854 2.94 0 2.147 2.252 3.87 5.007 3.87 2.757 0 5.009-1.723 5.009-3.87 0-1.271-.45-2.463-1.829-3.179m-2.942-7.184c-.874 0-1.59-1.193-1.59-2.677s.716-2.703 1.59-2.703 1.617 1.22 1.617 2.703c0 1.484-.742 2.677-1.617 2.677m.98-6.625c-1.615 0-2.198.477-2.57.874-.079-.556-.132-.98-.132-1.404 0-1.51.53-3.471 2.385-3.471.662 0 1.06.212 1.325.503-.556.239-1.007.954-1.007 1.564 0 .954.742 1.696 1.696 1.696s1.722-.742 1.722-1.696v-.08c0-.238-.053-.636-.159-.848-.344-.954-1.457-2.358-4.107-2.358-2.385 0-4.107 2.279-4.637 3.498a9.4 9.4 0 0 0-.662 3.418c0 1.616.45 3.445 2.014 4.823 1.536 1.165 2.517 1.219 3.444 1.219s4.399-1.087 4.399-4.16c0-2.598-2.04-3.578-3.71-3.578m-17.24 2.476 2.358-.477v4.372l-2.359.503zm4.108-.822c.16-.026.291-.212.291-.37v-1.564a.36.36 0 0 0-.37-.371h-.054l-.874.185v-3.948h-.742v4.107l-2.359.477v-3.736h-.741v3.895l-1.033.212c-.16.027-.292.212-.292.371v1.537c0 .212.159.371.37.371h.08l.875-.185v4.372l-1.033.212c-.16.026-.292.212-.292.37v1.538c0 .212.159.37.37.37h.08l.875-.185v3.949h.741V24.76l2.359-.477v3.736h.742v-3.895l1.007-.185c.16-.027.291-.212.291-.37v-1.565a.36.36 0 0 0-.37-.37h-.054l-.874.185v-4.372zM28.94 8.156l2.358-.477v4.372l-2.358.503zm4.107-.822c.16-.026.292-.212.292-.37V5.4a.36.36 0 0 0-.371-.371h-.054l-.874.185V1.266H31.3v4.107l-2.358.477V2.114h-.742v3.895l-1.033.212c-.16.027-.292.212-.292.371V8.13c0 .212.159.371.371.371h.08l.874-.185v4.372l-1.033.212c-.16.026-.292.212-.292.37v1.538c0 .212.159.37.371.37h.08l.874-.185v3.948h.742v-4.107l2.358-.477v3.736h.742v-3.895l1.007-.185c.16-.027.292-.212.292-.371v-1.564a.36.36 0 0 0-.371-.37h-.054l-.874.185V7.52zm3.146 149.742 2.359-.477v4.373l-2.359.503zm4.108-.821c.16-.026.291-.212.291-.371v-1.563a.363.363 0 0 0-.37-.372h-.054l-.874.186v-3.948h-.742v4.107l-2.359.477v-3.736h-.741v3.895l-1.033.212c-.16.027-.292.212-.292.37v1.538c0 .212.159.37.37.37h.08l.875-.184v4.371l-1.033.213c-.16.026-.292.212-.292.37v1.537c0 .212.159.371.37.371h.08l.875-.185v3.948h.741v-4.107l2.359-.477v3.736h.742v-3.895l1.007-.186c.16-.026.291-.212.291-.37v-1.564a.363.363 0 0 0-.37-.371h-.054l-.874.186v-4.372zm-11.361-9.107 2.358-.476v4.371l-2.358.504zm4.107-.821c.16-.027.292-.213.292-.371v-1.564c0-.212-.16-.37-.371-.37h-.054l-.874.185v-3.949H31.3v4.108l-2.358.477v-3.736h-.742v3.895l-1.033.212c-.16.026-.292.212-.292.37v1.538c0 .212.159.371.371.371h.08l.874-.186v4.372l-1.033.212c-.16.027-.292.212-.292.372v1.536c0 .212.159.371.371.371h.08l.874-.185v3.948h.742v-4.107l2.358-.477v3.736h.742v-3.895l1.007-.186c.16-.026.292-.211.292-.37v-1.564c0-.212-.16-.37-.371-.37h-.054l-.874.184v-4.372zm3.146-58.747 2.359-.477v4.373l-2.359.503zm4.108-.821c.16-.027.291-.212.291-.372v-1.562a.363.363 0 0 0-.37-.372h-.054l-.874.186V80.69h-.742v4.106l-2.359.477v-3.736h-.741v3.896l-1.034.212c-.159.026-.29.211-.29.37v1.538c0 .212.158.37.37.37h.079l.875-.185v4.372l-1.034.212c-.159.027-.29.212-.29.37v1.538c0 .212.158.37.37.37h.079l.875-.184v3.948h.741v-4.108l2.359-.477v3.736h.742v-3.894l1.007-.186c.16-.026.291-.212.291-.37v-1.564a.363.363 0 0 0-.37-.372h-.054l-.874.186v-4.372zM28.94 77.652l2.358-.477v4.372l-2.358.504zm4.107-.82c.16-.027.292-.213.292-.371v-1.564c0-.212-.16-.37-.371-.37h-.054l-.874.184v-3.948h-.742v4.108l-2.358.477V71.61h-.742v3.894l-1.033.213c-.16.026-.292.212-.292.37v1.537c0 .212.159.372.371.372h.08l.874-.186v4.372l-1.033.212c-.16.026-.292.212-.292.371v1.537c0 .212.159.371.371.371h.08l.874-.186v3.949h.742V84.33l2.358-.477v3.736h.742v-3.896l1.007-.185c.16-.027.292-.212.292-.371v-1.563c0-.213-.16-.371-.371-.371h-.054l-.874.185v-4.372zm-16.955-41.4a7.7 7.7 0 0 1-1.537.16c-3.789 0-7.022-2.65-7.022-6.65 0-3.233 2.28-6.122 4.611-8.136.45-.397.875-.768 1.272-1.166.238 1.431.424 2.677.61 3.763-2.412.716-4.055 3.259-4.055 5.75 0 1.855 1.458 4.398 3.577 4.398.212 0 .451-.105.451-.344 0-.238-.265-.37-.583-.583-1.033-.636-1.616-1.324-1.616-2.623 0-1.616 1.192-2.915 2.755-3.285zM13.761 8.19C14 7.131 15.22 4.35 16.597 4.35c.397 0 1.033 1.298 1.033 3.127 0 2.755-2.04 4.822-3.869 6.624-.159-1.06-.291-2.093-.291-3.206 0-.98.08-1.881.291-2.703m6.095 22.338c0 1.881-.768 3.815-2.65 4.584a882 882 0 0 1-1.457-8.559c2.385 0 4.107 1.617 4.107 3.975M8.196 43.566c0 1.75 1.352 4.054 4.93 4.054 1.245 0 2.331-.318 3.285-.9 1.431-1.008 1.802-2.756 1.802-4.426 0-1.034-.159-2.226-.424-3.736-.08-.53-.238-1.325-.397-2.359 2.597-.847 4.53-3.55 4.53-6.28 0-4-2.834-6.703-6.703-6.703-.265-1.59-.53-3.154-.769-4.638 2.81-2.94 4.744-6.253 4.744-10.466 0-2.412-.742-4.373-1.166-5.326-.636-1.352-1.405-2.28-1.882-2.28-.185 0-1.007.319-1.881 1.352-1.696 2.014-2.173 5.406-2.173 7.632 0 1.43.133 2.729.583 5.697-.026.026-1.404 1.43-1.96 1.881-2.412 2.252-5.75 5.459-5.75 10.758 0 4.955 4.318 8.85 9.247 8.85.768 0 1.484-.079 2.093-.185.504 2.544.795 4.399.795 5.803 0 2.756-1.404 4.213-4.08 4.213-.636 0-1.193-.132-1.246-.132-.026-.026-.08-.053-.08-.08 0-.053.054-.08.133-.106 1.246-.185 2.49-1.245 2.49-2.94 0-1.431-1.085-2.942-3.073-2.942-1.855 0-3.047 1.51-3.047 3.259m7.896 130.858a7.8 7.8 0 0 1-1.537.159c-3.789 0-7.022-2.65-7.022-6.651 0-3.233 2.28-6.121 4.611-8.135.45-.397.875-.769 1.272-1.166.238 1.43.424 2.676.61 3.763-2.412.715-4.055 3.259-4.055 5.75 0 1.855 1.458 4.398 3.577 4.398.212 0 .451-.106.451-.344 0-.239-.265-.37-.583-.583-1.033-.636-1.616-1.325-1.616-2.623 0-1.617 1.192-2.915 2.755-3.286zm-2.332-27.24c.239-1.06 1.458-3.843 2.836-3.843.397 0 1.033 1.299 1.033 3.127 0 2.756-2.04 4.823-3.869 6.625-.159-1.06-.291-2.094-.291-3.206 0-.981.08-1.882.291-2.703m6.095 22.338c0 1.881-.768 3.815-2.65 4.584a882 882 0 0 1-1.457-8.56c2.385 0 4.107 1.617 4.107 3.976m-11.66 13.037c0 1.749 1.352 4.054 4.93 4.054 1.245 0 2.331-.318 3.285-.901 1.431-1.007 1.802-2.756 1.802-4.425 0-1.033-.159-2.226-.424-3.737-.08-.53-.238-1.325-.397-2.358 2.597-.848 4.53-3.55 4.53-6.28 0-4-2.834-6.704-6.703-6.704-.265-1.59-.53-3.153-.769-4.637 2.81-2.941 4.744-6.254 4.744-10.467 0-2.411-.742-4.372-1.166-5.326-.636-1.351-1.405-2.278-1.882-2.278-.185 0-1.007.317-1.881 1.35-1.696 2.014-2.173 5.406-2.173 7.632 0 1.431.133 2.73.583 5.697-.026.027-1.404 1.432-1.96 1.881-2.412 2.253-5.75 5.46-5.75 10.759 0 4.955 4.318 8.85 9.247 8.85.768 0 1.484-.08 2.093-.185.504 2.543.795 4.398.795 5.803 0 2.756-1.404 4.213-4.08 4.213-.636 0-1.193-.132-1.246-.132-.026-.027-.08-.053-.08-.08 0-.053.054-.08.133-.106 1.246-.186 2.49-1.246 2.49-2.941 0-1.43-1.085-2.941-3.073-2.941-1.855 0-3.047 1.51-3.047 3.259m7.896-77.631a7.8 7.8 0 0 1-1.537.158c-3.789 0-7.022-2.65-7.022-6.65 0-3.233 2.28-6.122 4.611-8.136.45-.397.875-.768 1.272-1.165.238 1.43.424 2.676.61 3.762-2.412.716-4.055 3.26-4.055 5.75 0 1.855 1.458 4.399 3.577 4.399.212 0 .451-.106.451-.344 0-.239-.265-.371-.583-.583-1.033-.636-1.616-1.325-1.616-2.624 0-1.616 1.192-2.914 2.755-3.285zm-2.332-27.24c.239-1.06 1.458-3.843 2.836-3.843.397 0 1.033 1.299 1.033 3.127 0 2.755-2.04 4.822-3.869 6.625-.159-1.06-.291-2.094-.291-3.207 0-.98.08-1.881.291-2.702m6.095 22.337c0 1.882-.768 3.816-2.65 4.584a882 882 0 0 1-1.457-8.558c2.385 0 4.107 1.616 4.107 3.974m-11.66 13.037c0 1.75 1.352 4.055 4.93 4.055 1.245 0 2.331-.319 3.285-.901 1.431-1.007 1.802-2.756 1.802-4.426 0-1.033-.159-2.225-.424-3.736-.08-.53-.238-1.325-.397-2.358 2.597-.848 4.53-3.55 4.53-6.28 0-4.001-2.834-6.704-6.703-6.704-.265-1.59-.53-3.153-.769-4.637 2.81-2.941 4.744-6.254 4.744-10.467 0-2.412-.742-4.372-1.166-5.326-.636-1.352-1.405-2.279-1.882-2.279-.185 0-1.007.318-1.881 1.352-1.696 2.013-2.173 5.405-2.173 7.631 0 1.43.133 2.73.583 5.697-.026.026-1.404 1.431-1.96 1.881-2.412 2.253-5.75 5.46-5.75 10.759 0 4.955 4.318 8.85 9.247 8.85.768 0 1.484-.08 2.093-.185.504 2.543.795 4.398.795 5.802 0 2.756-1.404 4.213-4.08 4.213-.636 0-1.193-.132-1.246-.132-.026-.026-.08-.052-.08-.079 0-.054.054-.08.133-.106 1.246-.186 2.49-1.246 2.49-2.942 0-1.43-1.085-2.94-3.073-2.94-1.855 0-3.047 1.51-3.047 3.258m424.063 33.85c0 1.14.822 2.412 2.968 2.412 2.756 0 5.645-2.252 5.645-4.584 0-1.564-1.325-2.438-2.968-2.438-2.57 0-5.645 2.173-5.645 4.61M359.298 31.086c0 1.14.821 2.412 2.967 2.412 2.756 0 5.644-2.252 5.644-4.584 0-1.564-1.325-2.438-2.967-2.438-2.571 0-5.644 2.173-5.644 4.61m18.784-3.309c0 1.14.821 2.411 2.967 2.411 2.757 0 5.645-2.252 5.645-4.584 0-1.563-1.325-2.438-2.968-2.438-2.57 0-5.644 2.173-5.644 4.611m18.785 0c0 1.14.82 2.411 2.967 2.411 2.756 0 5.644-2.252 5.644-4.584 0-1.563-1.325-2.438-2.968-2.438-2.57 0-5.643 2.173-5.643 4.611m-43.775 122.446c0 1.14.821 2.411 2.967 2.411 2.757 0 5.644-2.252 5.644-4.584 0-1.563-1.325-2.437-2.967-2.437-2.57 0-5.644 2.172-5.644 4.61M261.873 24.466c0 1.14.822 2.412 2.968 2.412 2.756 0 5.645-2.252 5.645-4.584 0-1.563-1.325-2.438-2.969-2.438-2.57 0-5.644 2.173-5.644 4.61m74.162 119.137c0 1.14.822 2.411 2.968 2.411 2.755 0 5.644-2.252 5.644-4.584 0-1.563-1.325-2.437-2.968-2.437-2.57 0-5.644 2.172-5.644 4.61M415.65 24.466c0 1.14.822 2.412 2.968 2.412 2.755 0 5.644-2.252 5.644-4.584 0-1.563-1.325-2.438-2.968-2.438-2.57 0-5.644 2.173-5.644 4.61m18.784 3.31c0 1.14.822 2.411 2.968 2.411 2.756 0 5.645-2.252 5.645-4.584 0-1.563-1.325-2.438-2.969-2.438-2.57 0-5.644 2.173-5.644 4.611m34.782 119.137c0 1.139.822 2.41 2.968 2.41 2.756 0 5.644-2.251 5.644-4.583 0-1.564-1.325-2.438-2.968-2.438-2.57 0-5.644 2.173-5.644 4.61m-150.239 3.31c0 1.14.821 2.411 2.968 2.411 2.756 0 5.644-2.252 5.644-4.584 0-1.563-1.325-2.437-2.968-2.437-2.57 0-5.644 2.172-5.644 4.61M462.684 11.23c0 1.14.823 2.412 2.969 2.412 2.755 0 5.644-2.253 5.644-4.584 0-1.564-1.325-2.438-2.968-2.438-2.57 0-5.645 2.173-5.645 4.61M301.921 156.841c0 1.14.822 2.411 2.968 2.411 2.756 0 5.644-2.252 5.644-4.584 0-1.563-1.325-2.438-2.968-2.438-2.57 0-5.644 2.173-5.644 4.611M243.089 27.776c0 1.14.822 2.411 2.968 2.411 2.756 0 5.644-2.252 5.644-4.584 0-1.563-1.325-2.438-2.968-2.438-2.57 0-5.644 2.173-5.644 4.611m41.775 122.446c0 1.14.822 2.411 2.968 2.411 2.756 0 5.644-2.252 5.644-4.584 0-1.563-1.325-2.437-2.968-2.437-2.57 0-5.644 2.172-5.644 4.61M498.404 7.92c0 1.14.821 2.411 2.968 2.411 2.755 0 5.643-2.252 5.643-4.584 0-1.563-1.324-2.438-2.967-2.438-2.57 0-5.644 2.173-5.644 4.611m-274.1 16.546c0 1.14.822 2.412 2.968 2.412 2.756 0 5.644-2.252 5.644-4.584 0-1.563-1.325-2.438-2.968-2.438-2.57 0-5.643 2.173-5.643 4.61m43.502 119.137c0 1.14.822 2.411 2.969 2.411 2.755 0 5.643-2.252 5.643-4.584 0-1.563-1.325-2.437-2.967-2.437-2.57 0-5.645 2.172-5.645 4.61M526.58 11.23c0 1.14.822 2.412 2.968 2.412 2.756 0 5.644-2.253 5.644-4.584 0-1.564-1.325-2.438-2.967-2.438-2.57 0-5.645 2.173-5.645 4.61m-330.525 9.928c0 1.14.822 2.412 2.968 2.412 2.756 0 5.644-2.253 5.644-4.584 0-1.564-1.325-2.438-2.968-2.438-2.57 0-5.644 2.173-5.644 4.61M539.104 7.92c0 1.14.821 2.411 2.967 2.411 2.756 0 5.644-2.252 5.644-4.584 0-1.563-1.325-2.438-2.967-2.438-2.57 0-5.644 2.173-5.644 4.611M567.1 4.61c0 1.14.822 2.412 2.969 2.412 2.755 0 5.644-2.252 5.644-4.584 0-1.564-1.325-2.438-2.968-2.438-2.57 0-5.645 2.173-5.645 4.61M239.81 146.914c0 1.139.82 2.41 2.967 2.41 2.756 0 5.644-2.251 5.644-4.583 0-1.564-1.325-2.438-2.968-2.438-2.57 0-5.643 2.173-5.643 4.61m172.688-69.496c0 1.14.821 2.412 2.968 2.412 2.756 0 5.644-2.252 5.644-4.584 0-1.564-1.325-2.438-2.968-2.438-2.57 0-5.644 2.173-5.644 4.61m84.717 66.187c0 1.14.822 2.411 2.968 2.411 2.756 0 5.644-2.252 5.644-4.584 0-1.563-1.324-2.437-2.968-2.437-2.57 0-5.644 2.172-5.644 4.61m-268.777 6.62c0 1.138.821 2.41 2.968 2.41 2.756 0 5.644-2.252 5.644-4.584 0-1.563-1.325-2.437-2.968-2.437-2.57 0-5.644 2.172-5.644 4.61M585.886 27.776c0 1.14.822 2.411 2.968 2.411 2.756 0 5.644-2.252 5.644-4.584 0-1.563-1.325-2.438-2.968-2.438-2.57 0-5.644 2.173-5.644 4.611M202.853 146.913c0 1.139.821 2.41 2.968 2.41 2.755 0 5.644-2.251 5.644-4.583 0-1.564-1.325-2.438-2.968-2.438-2.57 0-5.644 2.173-5.644 4.61M604.671 27.777c0 1.14.821 2.411 2.968 2.411 2.755 0 5.644-2.252 5.644-4.584 0-1.563-1.325-2.438-2.968-2.438-2.57 0-5.644 2.173-5.644 4.611m-427.4-3.31c0 1.14.821 2.412 2.967 2.412 2.756 0 5.644-2.252 5.644-4.584 0-1.563-1.325-2.438-2.967-2.438-2.57 0-5.644 2.173-5.644 4.61m-6.852 125.756c0 1.14.821 2.411 2.968 2.411 2.756 0 5.644-2.252 5.644-4.584 0-1.563-1.325-2.437-2.968-2.437-2.57 0-5.644 2.172-5.644 4.61M623.455 27.776c0 1.14.821 2.411 2.968 2.411 2.756 0 5.644-2.252 5.644-4.584 0-1.563-1.325-2.438-2.968-2.438-2.57 0-5.644 2.173-5.644 4.611M514.272 146.913c0 1.139.822 2.41 2.968 2.41 2.756 0 5.644-2.251 5.644-4.583 0-1.564-1.325-2.438-2.968-2.438-2.57 0-5.644 2.173-5.644 4.61M642.24 24.467c0 1.14.821 2.412 2.968 2.412 2.755 0 5.643-2.252 5.643-4.584 0-1.563-1.324-2.438-2.967-2.438-2.57 0-5.644 2.173-5.644 4.61M142.42 156.841c0 1.14.822 2.411 2.968 2.411 2.756 0 5.645-2.252 5.645-4.584 0-1.563-1.325-2.438-2.968-2.438-2.57 0-5.644 2.173-5.644 4.611M661.024 21.157c0 1.14.821 2.412 2.968 2.412 2.756 0 5.644-2.253 5.644-4.584 0-1.564-1.325-2.438-2.967-2.438-2.57 0-5.645 2.173-5.645 4.61m-535.66 122.446c0 1.14.821 2.411 2.968 2.411 2.755 0 5.644-2.252 5.644-4.584 0-1.563-1.325-2.437-2.968-2.437-2.57 0-5.644 2.172-5.644 4.61m332.482 6.62c0 1.138.821 2.41 2.967 2.41 2.757 0 5.645-2.252 5.645-4.584 0-1.563-1.325-2.437-2.968-2.437-2.57 0-5.644 2.172-5.644 4.61M280.658 31.085c0 1.14.822 2.412 2.968 2.412 2.755 0 5.644-2.252 5.644-4.584 0-1.564-1.325-2.438-2.968-2.438-2.57 0-5.644 2.173-5.644 4.61m250.67 119.137c0 1.14.822 2.411 2.969 2.411 2.756 0 5.644-2.252 5.644-4.584 0-1.563-1.325-2.437-2.967-2.437-2.571 0-5.645 2.172-5.645 4.61m-423.022 0c0 1.14.821 2.411 2.967 2.411 2.757 0 5.645-2.252 5.645-4.584 0-1.563-1.325-2.437-2.967-2.437-2.571 0-5.645 2.172-5.645 4.61m-51.17-56.26c0 1.14.821 2.412 2.967 2.412 2.756 0 5.644-2.252 5.644-4.584 0-1.563-1.325-2.438-2.967-2.438-2.571 0-5.644 2.173-5.644 4.61m34.113 62.879c0 1.14.822 2.411 2.968 2.411 2.755 0 5.644-2.252 5.644-4.584 0-1.563-1.325-2.438-2.968-2.438-2.57 0-5.644 2.173-5.644 4.611m67.236-129.065c0 1.14.821 2.411 2.968 2.411 2.756 0 5.644-2.252 5.644-4.584 0-1.563-1.325-2.438-2.967-2.438-2.571 0-5.645 2.173-5.645 4.611M74.193 150.222c0 1.14.821 2.411 2.968 2.411 2.756 0 5.644-2.252 5.644-4.584 0-1.563-1.325-2.437-2.967-2.437-2.57 0-5.645 2.172-5.645 4.61m1.867-52.95c0 1.14.821 2.412 2.968 2.412 2.756 0 5.644-2.252 5.644-4.584 0-1.564-1.325-2.438-2.968-2.438-2.57 0-5.644 2.173-5.644 4.61m472.326 56.26c0 1.139.821 2.41 2.968 2.41 2.755 0 5.644-2.252 5.644-4.583 0-1.564-1.325-2.439-2.968-2.439-2.57 0-5.644 2.174-5.644 4.612m-491.25-9.929c0 1.14.822 2.411 2.968 2.411 2.756 0 5.644-2.252 5.644-4.584 0-1.563-1.325-2.437-2.967-2.437-2.571 0-5.644 2.172-5.644 4.61m37.847-43.021c0 1.139.821 2.411 2.968 2.411 2.755 0 5.644-2.252 5.644-4.584 0-1.563-1.325-2.438-2.968-2.438-2.57 0-5.644 2.173-5.644 4.61m18.923-23.165c0 1.14.822 2.412 2.968 2.412 2.756 0 5.644-2.252 5.644-4.584 0-1.564-1.325-2.438-2.968-2.438-2.57 0-5.644 2.173-5.644 4.61m284.24 82.734c0 1.14.821 2.412 2.967 2.412 2.757 0 5.645-2.253 5.645-4.585 0-1.563-1.325-2.438-2.968-2.438-2.57 0-5.644 2.173-5.644 4.611M340.513 34.395c0 1.14.821 2.411 2.967 2.411 2.757 0 5.645-2.252 5.645-4.584 0-1.563-1.325-2.437-2.968-2.437-2.57 0-5.644 2.172-5.644 4.61m-198.22 46.33c0 1.14.822 2.412 2.968 2.412 2.755 0 5.644-2.252 5.644-4.584 0-1.563-1.325-2.438-2.968-2.438-2.57 0-5.644 2.173-5.644 4.61m-2.591-52.949c0 1.14.821 2.411 2.968 2.411 2.755 0 5.643-2.252 5.643-4.584 0-1.563-1.325-2.438-2.967-2.438-2.57 0-5.644 2.173-5.644 4.611m521.573 49.64c0 1.14.822 2.412 2.968 2.412 2.756 0 5.644-2.252 5.644-4.584 0-1.564-1.325-2.438-2.968-2.438-2.57 0-5.644 2.173-5.644 4.61m-506.366 0c0 1.14.821 2.412 2.968 2.412 2.755 0 5.644-2.252 5.644-4.584 0-1.564-1.325-2.438-2.968-2.438-2.57 0-5.644 2.173-5.644 4.61m410.534 79.425c0 1.14.821 2.411 2.967 2.411 2.757 0 5.645-2.252 5.645-4.584 0-1.563-1.325-2.438-2.968-2.438-2.57 0-5.644 2.173-5.644 4.611m83.216-76.115c0 1.139.822 2.411 2.968 2.411 2.756 0 5.645-2.252 5.645-4.584 0-1.563-1.325-2.438-2.969-2.438-2.57 0-5.643 2.173-5.643 4.61m-465.753-6.618c0 1.14.821 2.411 2.968 2.411 2.756 0 5.644-2.252 5.644-4.584 0-1.563-1.325-2.438-2.968-2.438-2.57 0-5.644 2.173-5.644 4.61m437.367 3.31c0 1.14.822 2.412 2.968 2.412 2.756 0 5.644-2.252 5.644-4.584 0-1.564-1.325-2.438-2.968-2.438-2.57 0-5.644 2.173-5.644 4.61m-499.357-46.33c0 1.139.821 2.41 2.968 2.41 2.756 0 5.644-2.251 5.644-4.583 0-1.564-1.325-2.438-2.968-2.438-2.57 0-5.644 2.173-5.644 4.61m480.433 52.95c0 1.14.822 2.411 2.968 2.411 2.756 0 5.644-2.252 5.644-4.583 0-1.564-1.325-2.439-2.968-2.439-2.57 0-5.644 2.174-5.644 4.611m-399.52-6.619c0 1.14.822 2.412 2.968 2.412 2.756 0 5.644-2.252 5.644-4.584 0-1.564-1.325-2.438-2.967-2.438-2.57 0-5.644 2.173-5.644 4.61m380.596 13.238c0 1.14.821 2.411 2.968 2.411 2.755 0 5.644-2.252 5.644-4.584 0-1.564-1.325-2.438-2.968-2.438-2.57 0-5.644 2.173-5.644 4.611m-361.673-9.928c0 1.139.821 2.411 2.968 2.411 2.756 0 5.644-2.252 5.644-4.584 0-1.563-1.324-2.438-2.968-2.438-2.57 0-5.644 2.173-5.644 4.61M582.5 160.15c0 1.14.821 2.412 2.967 2.412 2.756 0 5.644-2.253 5.644-4.585 0-1.563-1.325-2.438-2.967-2.438-2.57 0-5.644 2.173-5.644 4.611m-18.997-76.115c0 1.14.821 2.411 2.968 2.411 2.756 0 5.644-2.252 5.644-4.583 0-1.564-1.325-2.439-2.968-2.439-2.57 0-5.644 2.174-5.644 4.611m-323.825 0c0 1.14.822 2.411 2.968 2.411 2.755 0 5.644-2.252 5.644-4.583 0-1.564-1.325-2.439-2.968-2.439-2.57 0-5.644 2.174-5.644 4.611m-137.546-49.64c0 1.14.822 2.411 2.969 2.411 2.755 0 5.644-2.252 5.644-4.584 0-1.563-1.325-2.437-2.968-2.437-2.57 0-5.645 2.172-5.645 4.61m156.47 52.95c0 1.139.821 2.41 2.967 2.41 2.757 0 5.645-2.252 5.645-4.584 0-1.562-1.325-2.437-2.969-2.437-2.57 0-5.643 2.172-5.643 4.61m276.513-6.618c0 1.139.821 2.411 2.967 2.411 2.756 0 5.644-2.252 5.644-4.584 0-1.563-1.325-2.438-2.967-2.438-2.571 0-5.644 2.173-5.644 4.61m-257.59 9.93c0 1.138.822 2.41 2.968 2.41 2.756 0 5.644-2.252 5.644-4.584 0-1.564-1.325-2.438-2.967-2.438-2.571 0-5.645 2.173-5.645 4.611M516.19 74.107c0 1.14.822 2.411 2.968 2.411 2.755 0 5.644-2.252 5.644-4.584 0-1.563-1.325-2.438-2.968-2.438-2.57 0-5.644 2.173-5.644 4.61M305.914 87.346c0 1.139.821 2.41 2.968 2.41 2.755 0 5.643-2.252 5.643-4.584 0-1.562-1.324-2.437-2.967-2.437-2.57 0-5.644 2.172-5.644 4.61m-235.46-46.33c0 1.139.822 2.411 2.968 2.411 2.756 0 5.644-2.253 5.644-4.585 0-1.562-1.325-2.437-2.968-2.437-2.57 0-5.643 2.172-5.643 4.61m540.043 115.828c0 1.14.822 2.411 2.968 2.411 2.755 0 5.644-2.252 5.644-4.584 0-1.563-1.325-2.438-2.968-2.438-2.57 0-5.644 2.173-5.644 4.611m-113.23-76.115c0 1.139.82 2.411 2.967 2.411 2.756 0 5.644-2.252 5.644-4.584 0-1.563-1.324-2.438-2.968-2.438-2.57 0-5.644 2.173-5.644 4.61m-155.37 0c0 1.14.821 2.412 2.968 2.412 2.756 0 5.644-2.252 5.644-4.584 0-1.563-1.325-2.438-2.967-2.438-2.57 0-5.645 2.173-5.645 4.61m136.447 6.62c0 1.139.821 2.41 2.967 2.41 2.756 0 5.644-2.252 5.644-4.584 0-1.562-1.325-2.437-2.967-2.437-2.57 0-5.644 2.172-5.644 4.61m-78.462-6.618c0 1.139.822 2.411 2.968 2.411 2.756 0 5.644-2.252 5.644-4.584 0-1.563-1.324-2.438-2.968-2.438-2.57 0-5.644 2.173-5.644 4.61m59.538 0c0 1.14.821 2.412 2.967 2.412 2.757 0 5.645-2.252 5.645-4.584 0-1.563-1.325-2.438-2.968-2.438-2.57 0-5.644 2.173-5.644 4.61m-44.216 72.807c0 1.139.821 2.41 2.968 2.41 2.755 0 5.643-2.252 5.643-4.583 0-1.564-1.325-2.439-2.967-2.439-2.57 0-5.644 2.174-5.644 4.612M308.835 31.085c0 1.14.822 2.412 2.968 2.412 2.755 0 5.644-2.252 5.644-4.584 0-1.564-1.325-2.438-2.968-2.438-2.57 0-5.644 2.173-5.644 4.61m131.661 43.022c0 1.14.822 2.411 2.968 2.411 2.755 0 5.644-2.252 5.644-4.584 0-1.563-1.325-2.438-2.968-2.438-2.57 0-5.644 2.173-5.644 4.61m-59.406 79.426c0 1.139.822 2.41 2.968 2.41 2.755 0 5.644-2.252 5.644-4.583 0-1.564-1.325-2.439-2.968-2.439-2.57 0-5.644 2.174-5.644 4.612m261.842-3.31c0 1.14.82 2.411 2.967 2.411 2.756 0 5.645-2.252 5.645-4.584 0-1.563-1.325-2.437-2.969-2.437-2.57 0-5.643 2.172-5.643 4.61m-326.155-137.4c0 .08.027.212.213.292 1.139.37 3.418 1.802 5.14 4.743.477.821 1.245 1.96 1.245 4.16 0 1.908-.503 3.869-1.192 5.777-.053.159-.106.291-.08.397 0 .159.106.265.265.265.186 0 .318-.106.425-.292 1.192-2.12 1.642-4.584 1.642-6.995-.133-3.418-2.093-5.935-2.093-5.935.08 0-2.438-3.26-3.153-4.373-.981-1.51-1.431-3.02-1.485-3.126-.026-.08-.265-1.034-.265-1.034-.026-.106-.158-.212-.317-.212a.35.35 0 0 0-.345.345zM78.397 22.75c0 .08.026.212.212.292 1.14.371 3.418 1.802 5.14 4.743.477.821 1.246 1.961 1.246 4.16 0 1.908-.504 3.868-1.192 5.777-.054.158-.107.291-.08.397 0 .16.106.265.265.265.186 0 .318-.106.424-.291 1.192-2.12 1.643-4.584 1.643-6.996-.132-3.418-2.094-5.936-2.094-5.936.08 0-2.437-3.259-3.153-4.372-.98-1.51-1.43-3.02-1.483-3.126-.027-.08-.265-1.034-.265-1.034-.027-.106-.16-.212-.319-.212a.35.35 0 0 0-.344.345zM353.09 150.221v18.744h.662v-18.744zm59.407-72.805v20.44h.662v-20.44Zm46.922 3.309v24.535h.662V80.725Zm18.923 6.618v18.73h.662v-18.73Zm-78.461-6.618v18.702h.662V80.725Zm15.321 72.806v23.708h.663V153.53ZM78.397 16.788v22.054h.662V16.788Zm532.1 140.051v22.055h.663v-22.055zm-113.23-76.114v18.744h.662V80.725Zm-155.37 0v22.053h.662V80.725Zm174.294-6.619V99.47h.662V74.106ZM398.147 160.15v17.09h.662v-17.09Zm-92.233-72.806v22.054h.662V87.343Zm-195.84-75.6v20.48h.663v-20.48Zm18.786-1.627v18.798h.662V10.116Zm406.254 70.609v18.744h.662V80.725Zm-257.589 9.928v17.06h.662v-17.06ZM582.5 160.149v17.058h.662v-17.058ZM258.6 87.343v18.745h.662V87.343ZM147.644 8.49v17.114h.662V8.49Zm415.86 75.544v23.709h.661V84.034Zm-323.826 0v20.427h.662V84.034Zm342.749 6.619v17.09h.662v-17.09Zm-361.672-9.928v18.73h.662v-18.73Zm380.595 3.31v23.708h.662V84.034Zm-399.52-6.62v21.226h.663V77.416Zm418.444 0V99.47h.662V77.416Zm28.385 3.31v18.702h.662V80.725ZM367.24 10.116v18.798h.663V10.116zm-184.332 63.99V97.83h.662V74.106Zm382.536 82.733v18.745h.662V156.84ZM158.486 27.775v17.06h.662v-17.06Zm502.789 49.64v20.44h.662v-20.44Zm-506.366 0v20.44h.662v-20.44Zm393.477 76.116v20.43h.662v-20.43zm-17.057-3.31v18.728h.662v-18.728ZM142.293 80.725v18.702h.662V80.725Zm-85.157 62.877v30.343h.662v-30.343Zm56.771-66.186v22.053h.662V77.416ZM381.09 153.53v23.708h.662V153.53ZM102.926 76.289v22.12h.662V76.29Zm-28.732 73.932v24.535h.662v-24.535zm9.809-74.745V95.1h.662V75.476Zm7.247 81.363v18.73h.662v-18.73zm17.057-6.618v23.724h.662V150.22zM65.08 74.663v17.128h.662V74.663Zm60.285 68.94v31.153h.662v-31.154ZM386.024 8.49v17.114h.662V8.49ZM177.27 24.466V43.21h.662V24.466Zm337.002 122.446v21.226h.662v-21.226ZM196.055 21.156v20.428h.662V21.156ZM142.421 156.84v18.73h.662v-18.73zM661.024 21.156v20.428h.662V21.156ZM432.261 146.912v22.053h.662v-22.053ZM642.239 24.466V43.21h.663V24.466ZM232.246 5.152v17.143h.662V5.152Zm-61.827 145.07v22.053h.662V150.22ZM623.456 27.774v17.06h.662v-17.06ZM202.853 146.912v22.053h.662v-22.053ZM604.67 27.775V44.85h.662V27.775ZM228.438 150.221v18.699h.662V150.22zM585.886 27.775v16.263h.662V27.775ZM239.809 146.912v20.444h.662v-20.444zm257.407-3.31v23.725h.662v-23.725Zm-56.72-69.496v30.34h.662v-30.34ZM251.031 5.152v20.452h.662V5.152Zm18.785 0v17.143h.662V5.152Zm199.401 141.76v20.444h.662v-20.444ZM288.6 6.807v22.107h.662V6.807ZM539.103 7.92v20.44h.662V7.92ZM267.807 143.602v30.343h.662v-30.343ZM404.808 5.152v20.452h.662V5.152Zm121.772 6.076v18.703h.663V11.228ZM284.864 150.221v24.535h.662v-24.535zM498.404 7.92v22.054h.662V7.919ZM301.92 156.84v18.73h.662v-18.73zm17.057-6.618v18.744h.662v-18.744ZM462.685 11.228v22.054h.662V11.228zm-4.84 138.993v18.699h.663V150.22zM567.102 4.61v38.614h.662V4.61ZM336.035 143.602v25.363h.662v-25.363ZM442.378 5.152v20.452h.662V5.152ZM316.777 6.86v22.054h.662V6.86Zm106.816-1.708v17.143h.662V5.152Zm219.338 145.07v22.053h.662V150.22ZM348.455 11.741v20.481h.662v-20.48Zm-82.832 130.219v1.059h12.974v-1.06zm229.408 0v1.059h12.974v-1.06zm-371.852 0v1.059h12.974v-1.06zm-68.227 0v1.059h12.974v-1.06zm125.77-69.497v1.06h12.974v-1.06zm333.285 0v1.06h12.973v-1.06Zm50.91-69.496v1.06h12.974v-1.06ZM333.852 141.961v1.059h12.973v-1.06zm104.46-69.497v1.06h12.975v-1.06Zm-248.358-49.85V18.27l3.073-.874v4.372zm3.656-7.42a.3.3 0 0 0-.211-.08c-.027 0-.08.027-.107.027l-3.338.928v-4.637h-.742v13.116c0 .212.158.345.37.345h.107l3.338-.928v4.638h.716V15.487c0-.106-.053-.239-.133-.292m461.313 7.42v-4.346l3.073-.874v4.372zm3.656-7.42a.3.3 0 0 0-.211-.08c-.026 0-.08.027-.107.027l-3.338.928v-4.637h-.742v13.116c0 .212.159.345.37.345h.107l3.338-.928v4.638h.716V15.487c0-.106-.053-.239-.133-.292m21.23-5.443v27.203H681V9.752Zm0 69.497v27.202H681V79.25Zm-506.365 0v27.202h1.19V79.25Zm-12.489 69.496v27.203h1.191v-27.203ZM214.84 9.752v27.203h1.19V9.752ZM554.038 79.25v27.202h1.191V79.25Zm-257.589 0v27.202h1.191V79.25Zm304.584 69.496v27.203h1.192v-27.203zm-342.69 0v27.203h1.191v-27.203zm229.407 0v27.203h1.192v-27.203ZM431.031 79.25v27.202h1.192V79.25ZM92.668 9.752v27.203h1.191V9.752ZM379.126 79.25v27.202h3.64V79.25Zm-3.64 0v27.202h1.19V79.25Zm-2.448 16.91c0-.768-.609-1.404-1.377-1.404-.769 0-1.378.636-1.378 1.405 0 .768.609 1.404 1.378 1.404s1.377-.636 1.377-1.404m0-6.62c0-.768-.609-1.404-1.377-1.404-.769 0-1.378.636-1.378 1.405 0 .768.609 1.405 1.378 1.405s1.377-.637 1.377-1.405m184.6-79.789v27.203h1.19V9.752Zm-104.418 0v27.203h1.191V9.752Zm224.14 138.993v27.203H681v-27.203zm-3.64 0v27.203h1.191v-27.203zm-2.447 16.91c0-.768-.61-1.403-1.378-1.403-.769 0-1.378.635-1.378 1.404s.61 1.404 1.378 1.404 1.378-.636 1.378-1.404m0-6.62c0-.768-.61-1.403-1.378-1.403-.769 0-1.378.635-1.378 1.404s.61 1.405 1.378 1.405 1.378-.637 1.378-1.405m-299.648-10.292v27.203h1.191v-27.203zm19.986-52.585c0-.769-.61-1.405-1.379-1.405-.768 0-1.377.636-1.377 1.405 0 .768.609 1.404 1.377 1.404.769 0 1.379-.636 1.379-1.404m0-6.62c0-.768-.61-1.404-1.379-1.404-.768 0-1.377.636-1.377 1.405 0 .768.609 1.405 1.377 1.405.769 0 1.379-.637 1.379-1.405m-6.396-10.292v27.202h1.19V79.25Zm-6.09 0v27.202h3.641V79.25ZM331.049 9.752v27.203h1.191V9.752ZM0 175.22v.728h681v-.728zm0-6.619v.728h681v-.728zm0-6.618v.727h681v-.727zm0-6.619v.728h681v-.728zm0-6.618v.727h681v-.727zm0-43.022v.728h681v-.728zm0-6.619v.728h681v-.728zm0-6.619v.728h681v-.728zm0-6.619v.728h681v-.728zm0-6.618v.728h681v-.728Zm0-43.021v.727h681v-.727zm0-6.62v.728h681v-.727zm0-6.618v.728h681v-.728zm0-6.619v.728h681v-.728Zm0-6.618v.727h681v-.727Z"/>
</svg>
