<?xml version="1.0" encoding="UTF-8" standalone="no"?>
<svg width="210.058mm" height="296.926mm" viewBox="0 0 9924 14028"
 xmlns="http://www.w3.org/2000/svg" xmlns:xlink="http://www.w3.org/1999/xlink" version="1.2" baseProfile="full">
<title>air_VII</title>
<desc>Generated by MuseScore Studio 4.7.3</desc>
<polyline class="StaffLines" fill="none" stroke="#000000" stroke-width="9.09" stroke-linejoin="bevel" points="708.661,860.47 9215.34,860.47" />
<polyline class="StaffLines" fill="none" stroke="#000000" stroke-width="9.09" stroke-linejoin="bevel" points="708.661,943.147 9215.34,943.147" />
<polyline class="StaffLines" fill="none" stroke="#000000" stroke-width="9.09" stroke-linejoin="bevel" points="708.661,1025.82 9215.34,1025.82" />
<polyline class="StaffLines" fill="none" stroke="#000000" stroke-width="9.09" stroke-linejoin="bevel" points="708.661,1108.5 9215.34,1108.5" />
<polyline class="StaffLines" fill="none" stroke="#000000" stroke-width="9.09" stroke-linejoin="bevel" points="708.661,1191.18 9215.34,1191.18" />
<polyline class="StaffLines" fill="none" stroke="#000000" stroke-width="9.09" stroke-linejoin="bevel" points="708.661,1728.58 9215.34,1728.58" />
<polyline class="StaffLines" fill="none" stroke="#000000" stroke-width="9.09" stroke-linejoin="bevel" points="708.661,1811.26 9215.34,1811.26" />
<polyline class="StaffLines" fill="none" stroke="#000000" stroke-width="9.09" stroke-linejoin="bevel" points="708.661,1893.93 9215.34,1893.93" />
<polyline class="StaffLines" fill="none" stroke="#000000" stroke-width="9.09" stroke-linejoin="bevel" points="708.661,1976.61 9215.34,1976.61" />
<polyline class="StaffLines" fill="none" stroke="#000000" stroke-width="9.09" stroke-linejoin="bevel" points="708.661,2059.29 9215.34,2059.29" />
<polyline class="BarLine" fill="none" stroke="#000000" stroke-width="14.88" stroke-linejoin="bevel" points="3959.78,855.923 3959.78,1195.73" />
<polyline class="BarLine" fill="none" stroke="#000000" stroke-width="14.88" stroke-linejoin="bevel" points="7790.57,1724.03 7790.57,2063.84" />
<polyline class="BarLine" fill="none" stroke="#000000" stroke-width="14.88" stroke-linejoin="bevel" points="5715.47,1724.03 5715.47,2063.84" />
<polyline class="BarLine" fill="none" stroke="#000000" stroke-width="14.88" stroke-linejoin="bevel" points="3477.31,1724.03 3477.31,2063.84" />
<polyline class="BarLine" fill="none" stroke="#000000" stroke-width="14.88" stroke-linejoin="bevel" points="9207.9,855.923 9207.9,1195.73" />
<polyline class="BarLine" fill="none" stroke="#000000" stroke-width="14.88" stroke-linejoin="bevel" points="9131.84,1724.03 9131.84,2063.84" />
<polyline class="BarLine" fill="none" stroke="#000000" stroke-width="45.47" stroke-linejoin="bevel" points="9192.6,1724.03 9192.6,2063.84" />
<polyline class="BarLine" fill="none" stroke="#000000" stroke-width="14.88" stroke-linejoin="bevel" points="2091.34,855.923 2091.34,1195.73" />
<polyline class="BarLine" fill="none" stroke="#000000" stroke-width="14.88" stroke-linejoin="bevel" points="7532.67,855.923 7532.67,1195.73" />
<polyline class="BarLine" fill="none" stroke="#000000" stroke-width="14.88" stroke-linejoin="bevel" points="5635.01,855.923 5635.01,1195.73" />
<path class="Accidental" d="M3838.69,1786.76 L3868.14,1780.81 L3868.14,1835.42 L3838.69,1841.71 L3838.69,1786.76 M3889.99,1776.5 C3891.98,1776.17 3893.63,1773.85 3893.63,1771.87 L3893.63,1752.34 C3893.63,1749.69 3891.65,1747.71 3889,1747.71 L3888.34,1747.71 L3877.41,1750.02 L3877.41,1700.7 L3868.14,1700.7 L3868.14,1752.01 L3838.69,1757.97 L3838.69,1711.3 L3829.42,1711.3 L3829.42,1759.95 L3816.51,1762.6 C3814.52,1762.93 3812.87,1765.25 3812.87,1767.23 L3812.87,1786.43 C3812.87,1789.08 3814.85,1791.07 3817.5,1791.07 L3818.49,1791.07 L3829.42,1788.75 L3829.42,1843.36 L3816.51,1846.01 C3814.52,1846.34 3812.87,1848.66 3812.87,1850.65 L3812.87,1869.84 C3812.87,1872.49 3814.85,1874.48 3817.5,1874.48 L3818.49,1874.48 L3829.42,1872.16 L3829.42,1921.48 L3838.69,1921.48 L3838.69,1870.18 L3868.14,1864.22 L3868.14,1910.89 L3877.41,1910.89 L3877.41,1862.23 L3889.99,1859.91 C3891.98,1859.58 3893.63,1857.27 3893.63,1855.28 L3893.63,1835.75 C3893.63,1833.1 3891.65,1831.12 3889,1831.12 L3888.34,1831.12 L3877.41,1833.43 L3877.41,1778.82 L3889.99,1776.5 "/>
<path class="Accidental" d="M8680.05,918.653 L8709.51,912.695 L8709.51,967.31 L8680.05,973.599 L8680.05,918.653 M8731.35,908.392 C8733.34,908.061 8734.99,905.744 8734.99,903.758 L8734.99,884.229 C8734.99,881.581 8733.01,879.595 8730.36,879.595 L8729.7,879.595 L8718.77,881.912 L8718.77,832.593 L8709.51,832.593 L8709.51,883.898 L8680.05,889.856 L8680.05,843.185 L8670.78,843.185 L8670.78,891.842 L8657.87,894.49 C8655.88,894.821 8654.23,897.138 8654.23,899.124 L8654.23,918.322 C8654.23,920.97 8656.22,922.956 8658.86,922.956 L8659.86,922.956 L8670.78,920.639 L8670.78,975.254 L8657.87,977.902 C8655.88,978.233 8654.23,980.55 8654.23,982.536 L8654.23,1001.73 C8654.23,1004.38 8656.22,1006.37 8658.86,1006.37 L8659.86,1006.37 L8670.78,1004.05 L8670.78,1053.37 L8680.05,1053.37 L8680.05,1002.07 L8709.51,996.107 L8709.51,1042.78 L8718.77,1042.78 L8718.77,994.121 L8731.35,991.804 C8733.34,991.473 8734.99,989.156 8734.99,987.17 L8734.99,967.641 C8734.99,964.993 8733.01,963.007 8730.36,963.007 L8729.7,963.007 L8718.77,965.324 L8718.77,910.709 L8731.35,908.392 "/>
<polyline class="Stem" fill="none" stroke="#000000" stroke-width="8.27" stroke-linejoin="bevel" points="1517.14,1783.81 1517.14,2059.29" />
<polyline class="Stem" fill="none" stroke="#000000" stroke-width="8.27" stroke-linejoin="bevel" points="2984.78,1907.82 2984.78,2141.97" />
<polyline class="Stem" fill="none" stroke="#000000" stroke-width="8.27" stroke-linejoin="bevel" points="4841.2,1177.95 4841.2,901.809" />
<polyline class="Stem" fill="none" stroke="#000000" stroke-width="8.27" stroke-linejoin="bevel" points="8493.92,2004.72 8493.92,1728.58" />
<polyline class="Stem" fill="none" stroke="#000000" stroke-width="8.27" stroke-linejoin="bevel" points="5286.06,1177.95 5286.06,901.809" />
<polyline class="Stem" fill="none" stroke="#000000" stroke-width="8.27" stroke-linejoin="bevel" points="8004.7,2004.72 8004.7,1728.58" />
<polyline class="Stem" fill="none" stroke="#000000" stroke-width="8.27" stroke-linejoin="bevel" points="2305.47,1095.27 2305.47,819.132" />
<polyline class="Stem" fill="none" stroke="#000000" stroke-width="8.27" stroke-linejoin="bevel" points="4173.92,1177.95 4173.92,901.809" />
<polyline class="Stem" fill="none" stroke="#000000" stroke-width="8.27" stroke-linejoin="bevel" points="5849.15,1136.61 5849.15,860.47" />
<polyline class="Stem" fill="none" stroke="#000000" stroke-width="8.27" stroke-linejoin="bevel" points="2495.57,1866.49 2495.57,2121.3" />
<polyline class="Stem" fill="none" stroke="#000000" stroke-width="8.27" stroke-linejoin="bevel" points="6294,1095.27 6294,819.132" />
<polyline class="Stem" fill="none" stroke="#000000" stroke-width="8.27" stroke-linejoin="bevel" points="7397.26,1963.38 7397.26,1687.24" />
<polyline class="Stem" fill="none" stroke="#000000" stroke-width="8.27" stroke-linejoin="bevel" points="6738.86,1053.93 6738.86,798.462" />
<polyline class="Stem" fill="none" stroke="#000000" stroke-width="8.27" stroke-linejoin="bevel" points="6908.04,1922.05 6908.04,1666.57" />
<polyline class="Stem" fill="none" stroke="#000000" stroke-width="8.27" stroke-linejoin="bevel" points="7084.51,1039.71 7084.51,1273.86" />
<polyline class="Stem" fill="none" stroke="#000000" stroke-width="8.27" stroke-linejoin="bevel" points="6418.82,1963.38 6418.82,1687.24" />
<polyline class="Stem" fill="none" stroke="#000000" stroke-width="8.27" stroke-linejoin="bevel" points="5929.61,2004.72 5929.61,1728.58" />
<polyline class="Stem" fill="none" stroke="#000000" stroke-width="8.27" stroke-linejoin="bevel" points="2869.4,1136.61 2869.4,861.132" />
<polyline class="Stem" fill="none" stroke="#000000" stroke-width="8.27" stroke-linejoin="bevel" points="7647.59,998.376 7647.59,1253.19" />
<polyline class="Stem" fill="none" stroke="#000000" stroke-width="8.27" stroke-linejoin="bevel" points="5322.16,2046.06 5322.16,1769.92" />
<polyline class="Stem" fill="none" stroke="#000000" stroke-width="8.27" stroke-linejoin="bevel" points="8092.45,998.376 8092.45,1253.19" />
<polyline class="Stem" fill="none" stroke="#000000" stroke-width="8.27" stroke-linejoin="bevel" points="4832.95,2046.06 4832.95,1769.92" />
<polyline class="Stem" fill="none" stroke="#000000" stroke-width="8.27" stroke-linejoin="bevel" points="8759.74,957.037 8759.74,1232.52" />
<polyline class="Stem" fill="none" stroke="#000000" stroke-width="8.27" stroke-linejoin="bevel" points="4244.52,1783.81 4244.52,2059.29" />
<polyline class="Stem" fill="none" stroke="#000000" stroke-width="8.27" stroke-linejoin="bevel" points="3918.37,1825.15 3918.37,2059.54" />
<polyline class="Stem" fill="none" stroke="#000000" stroke-width="8.27" stroke-linejoin="bevel" points="1711.61,1039.71 1711.61,1273.86" />
<polyline class="Stem" fill="none" stroke="#000000" stroke-width="8.27" stroke-linejoin="bevel" points="3610.83,1177.95 3610.83,901.809" />
<polyline class="Stem" fill="none" stroke="#000000" stroke-width="8.27" stroke-linejoin="bevel" points="3592.23,1866.49 3592.23,2079.7" />
<polyline class="Stem" fill="none" stroke="#000000" stroke-width="8.27" stroke-linejoin="bevel" points="3165.97,1177.95 3165.97,901.809" />
<polyline class="Stem" fill="none" stroke="#000000" stroke-width="8.27" stroke-linejoin="bevel" points="2006.35,1825.15 2006.35,2100.63" />
<path class="Hook" d="M2865.27,935.607 C2865.27,936.6 2865.6,938.255 2867.92,939.248 C2882.15,943.882 2910.62,961.756 2932.13,998.497 C2938.09,1008.76 2947.69,1022.99 2947.69,1050.46 C2947.69,1074.3 2941.4,1098.79 2932.79,1122.62 C2932.13,1124.61 2931.47,1126.26 2931.8,1127.59 C2931.8,1129.57 2933.12,1130.9 2935.11,1130.9 C2937.43,1130.9 2939.08,1129.57 2940.41,1127.26 C2955.3,1100.78 2960.93,1069.99 2960.93,1039.87 C2959.27,997.173 2934.78,965.728 2934.78,965.728 C2935.77,965.728 2904.33,925.015 2895.39,911.113 C2883.14,892.246 2877.52,873.379 2876.85,872.055 C2876.52,871.062 2873.54,859.146 2873.54,859.146 C2873.21,857.822 2871.56,856.498 2869.57,856.498 C2867.26,856.498 2865.27,858.484 2865.27,860.801 L2865.27,935.607 "/>
<path class="Note" d="M4095.4,1219.64 C4084.47,1219.64 4082.16,1210.71 4082.16,1207.73 C4082.16,1191.51 4137.76,1163.04 4153.32,1163.04 C4161.27,1163.04 4166.56,1167.68 4166.56,1174.96 C4166.56,1191.51 4110.62,1219.64 4095.4,1219.64 M4141.07,1147.49 C4108.97,1147.49 4070.57,1174.3 4070.57,1205.08 C4070.57,1219.31 4080.83,1235.2 4107.64,1235.2 C4142.07,1235.2 4178.15,1207.07 4178.15,1177.94 C4178.15,1158.41 4161.6,1147.49 4141.07,1147.49"/>
<path class="Note" d="M7293.91,1990.51 C7293.91,2004.75 7304.17,2020.64 7330.98,2020.64 C7365.41,2020.64 7401.49,1992.5 7401.49,1963.37 C7401.49,1943.84 7384.94,1932.92 7364.41,1932.92 C7332.31,1932.92 7293.91,1960.06 7293.91,1990.51"/>
<path class="Note" d="M1513,1783.82 C1513,1798.05 1523.26,1813.94 1550.07,1813.94 C1584.5,1813.94 1620.58,1785.81 1620.58,1756.68 C1620.58,1737.15 1604.03,1726.23 1583.5,1726.23 C1551.4,1726.23 1513,1753.37 1513,1783.82"/>
<path class="Note" d="M2491.43,1866.5 C2491.43,1880.73 2501.7,1896.62 2528.51,1896.62 C2562.93,1896.62 2599.01,1868.48 2599.01,1839.36 C2599.01,1819.83 2582.46,1808.9 2561.94,1808.9 C2529.83,1808.9 2491.43,1836.05 2491.43,1866.5"/>
<path class="Note" d="M3062.63,1205.08 C3062.63,1219.31 3072.89,1235.2 3099.7,1235.2 C3134.12,1235.2 3170.2,1207.07 3170.2,1177.94 C3170.2,1158.41 3153.65,1147.49 3133.13,1147.49 C3101.02,1147.49 3062.63,1174.63 3062.63,1205.08"/>
<path class="Note" d="M2980.65,1907.84 C2980.65,1922.07 2990.91,1937.96 3017.72,1937.96 C3052.15,1937.96 3088.23,1909.82 3088.23,1880.69 C3088.23,1861.17 3071.68,1850.24 3051.15,1850.24 C3019.05,1850.24 2980.65,1877.38 2980.65,1907.84"/>
<path class="Note" d="M8415.4,2046.42 C8404.47,2046.42 8402.16,2037.48 8402.16,2034.5 C8402.16,2018.28 8457.76,1989.82 8473.32,1989.82 C8481.27,1989.82 8486.56,1994.45 8486.56,2001.73 C8486.56,2018.28 8430.62,2046.42 8415.4,2046.42 M8461.07,1974.26 C8428.97,1974.26 8390.57,2001.07 8390.57,2031.85 C8390.57,2046.09 8400.83,2061.97 8427.64,2061.97 C8462.07,2061.97 8498.15,2033.84 8498.15,2004.71 C8498.15,1985.18 8481.6,1974.26 8461.07,1974.26"/>
<path class="Note" d="M4737.86,1205.08 C4737.86,1219.31 4748.12,1235.2 4774.93,1235.2 C4809.35,1235.2 4845.43,1207.07 4845.43,1177.94 C4845.43,1158.41 4828.88,1147.49 4808.36,1147.49 C4776.25,1147.49 4737.86,1174.63 4737.86,1205.08"/>
<path class="Note" d="M7901.36,2031.85 C7901.36,2046.09 7911.62,2061.97 7938.43,2061.97 C7972.85,2061.97 8008.93,2033.84 8008.93,2004.71 C8008.93,1985.18 7992.38,1974.26 7971.86,1974.26 C7939.75,1974.26 7901.36,2001.4 7901.36,2031.85"/>
<path class="Note" d="M3588.1,1866.5 C3588.1,1880.73 3598.36,1896.62 3625.17,1896.62 C3659.59,1896.62 3695.67,1868.48 3695.67,1839.36 C3695.67,1819.83 3679.12,1808.9 3658.6,1808.9 C3626.49,1808.9 3588.1,1836.05 3588.1,1866.5"/>
<path class="Note" d="M5182.71,1205.08 C5182.71,1219.31 5192.98,1235.2 5219.79,1235.2 C5254.21,1235.2 5290.29,1207.07 5290.29,1177.94 C5290.29,1158.41 5273.74,1147.49 5253.22,1147.49 C5221.11,1147.49 5182.71,1174.63 5182.71,1205.08"/>
<path class="Note" d="M1707.48,1039.73 C1707.48,1053.96 1717.74,1069.85 1744.55,1069.85 C1778.97,1069.85 1815.05,1041.71 1815.05,1012.58 C1815.05,993.056 1798.5,982.133 1777.98,982.133 C1745.87,982.133 1707.48,1009.27 1707.48,1039.73"/>
<path class="Note" d="M3914.24,1825.16 C3914.24,1839.39 3924.5,1855.28 3951.31,1855.28 C3985.74,1855.28 4021.81,1827.15 4021.81,1798.02 C4021.81,1778.49 4005.26,1767.57 3984.74,1767.57 C3952.64,1767.57 3914.24,1794.71 3914.24,1825.16"/>
<path class="Note" d="M2766.06,1163.74 C2766.06,1177.98 2776.32,1193.86 2803.13,1193.86 C2837.55,1193.86 2873.63,1165.73 2873.63,1136.6 C2873.63,1117.07 2857.08,1106.15 2836.56,1106.15 C2804.45,1106.15 2766.06,1133.29 2766.06,1163.74"/>
<path class="Note" d="M8755.6,957.049 C8755.6,971.282 8765.86,987.17 8792.67,987.17 C8827.1,987.17 8863.18,959.035 8863.18,929.907 C8863.18,910.378 8846.63,899.455 8826.1,899.455 C8794,899.455 8755.6,926.597 8755.6,957.049"/>
<path class="Note" d="M4240.38,1783.82 C4240.38,1798.05 4250.64,1813.94 4277.46,1813.94 C4311.88,1813.94 4347.96,1785.81 4347.96,1756.68 C4347.96,1737.15 4331.41,1726.23 4310.89,1726.23 C4278.78,1726.23 4240.38,1753.37 4240.38,1783.82"/>
<path class="Note" d="M8113.14,1012.95 C8102.22,1012.95 8099.9,1004.02 8099.9,1001.04 C8099.9,984.817 8155.51,956.351 8171.07,956.351 C8179.01,956.351 8184.31,960.985 8184.31,968.267 C8184.31,984.817 8128.37,1012.95 8113.14,1012.95 M8158.82,940.794 C8126.71,940.794 8088.32,967.605 8088.32,998.388 C8088.32,1012.62 8098.58,1028.51 8125.39,1028.51 C8159.81,1028.51 8195.89,1000.37 8195.89,971.246 C8195.89,951.717 8179.34,940.794 8158.82,940.794"/>
<path class="Note" d="M4729.6,2073.19 C4729.6,2087.42 4739.86,2103.31 4766.67,2103.31 C4801.1,2103.31 4837.18,2075.18 4837.18,2046.05 C4837.18,2026.52 4820.63,2015.6 4800.1,2015.6 C4768,2015.6 4729.6,2042.74 4729.6,2073.19"/>
<path class="Note" d="M7643.46,998.388 C7643.46,1012.62 7653.72,1028.51 7680.53,1028.51 C7714.95,1028.51 7751.03,1000.37 7751.03,971.246 C7751.03,951.717 7734.48,940.794 7713.96,940.794 C7681.85,940.794 7643.46,967.936 7643.46,998.388"/>
<path class="Note" d="M5218.82,2073.19 C5218.82,2087.42 5229.08,2103.31 5255.89,2103.31 C5290.31,2103.31 5326.39,2075.18 5326.39,2046.05 C5326.39,2026.52 5309.84,2015.6 5289.32,2015.6 C5257.21,2015.6 5218.82,2042.74 5218.82,2073.19"/>
<path class="Note" d="M5745.8,1163.74 C5745.8,1177.98 5756.06,1193.86 5782.87,1193.86 C5817.3,1193.86 5853.38,1165.73 5853.38,1136.6 C5853.38,1117.07 5836.83,1106.15 5816.3,1106.15 C5784.2,1106.15 5745.8,1133.29 5745.8,1163.74"/>
<path class="Note" d="M3507.49,1205.08 C3507.49,1219.31 3517.75,1235.2 3544.56,1235.2 C3578.98,1235.2 3615.06,1207.07 3615.06,1177.94 C3615.06,1158.41 3598.51,1147.49 3577.99,1147.49 C3545.88,1147.49 3507.49,1174.63 3507.49,1205.08"/>
<path class="Note" d="M2202.12,1122.4 C2202.12,1136.64 2212.38,1152.52 2239.2,1152.52 C2273.62,1152.52 2309.7,1124.39 2309.7,1095.26 C2309.7,1075.73 2293.15,1064.81 2272.63,1064.81 C2240.52,1064.81 2202.12,1091.95 2202.12,1122.4"/>
<path class="Note" d="M5826.26,2031.85 C5826.26,2046.09 5836.52,2061.97 5863.33,2061.97 C5897.76,2061.97 5933.84,2033.84 5933.84,2004.71 C5933.84,1985.18 5917.29,1974.26 5896.76,1974.26 C5864.66,1974.26 5826.26,2001.4 5826.26,2031.85"/>
<path class="Note" d="M7080.37,1039.73 C7080.37,1053.96 7090.63,1069.85 7117.44,1069.85 C7151.87,1069.85 7187.95,1041.71 7187.95,1012.58 C7187.95,993.056 7171.4,982.133 7150.88,982.133 C7118.77,982.133 7080.37,1009.27 7080.37,1039.73"/>
<path class="Note" d="M6315.48,1990.51 C6315.48,2004.75 6325.74,2020.64 6352.55,2020.64 C6386.97,2020.64 6423.05,1992.5 6423.05,1963.37 C6423.05,1943.84 6406.5,1932.92 6385.98,1932.92 C6353.87,1932.92 6315.48,1960.06 6315.48,1990.51"/>
<path class="Note" d="M6635.52,1081.07 C6635.52,1095.3 6645.78,1111.19 6672.59,1111.19 C6707.01,1111.19 6743.09,1083.05 6743.09,1053.92 C6743.09,1034.39 6726.54,1023.47 6706.02,1023.47 C6673.91,1023.47 6635.52,1050.61 6635.52,1081.07"/>
<path class="Note" d="M6804.69,1949.18 C6804.69,1963.41 6814.96,1979.3 6841.77,1979.3 C6876.19,1979.3 6912.27,1951.16 6912.27,1922.03 C6912.27,1902.5 6895.72,1891.58 6875.2,1891.58 C6843.09,1891.58 6804.69,1918.72 6804.69,1949.18"/>
<path class="Note" d="M6190.66,1122.4 C6190.66,1136.64 6200.92,1152.52 6227.73,1152.52 C6262.15,1152.52 6298.23,1124.39 6298.23,1095.26 C6298.23,1075.73 6281.68,1064.81 6261.16,1064.81 C6229.05,1064.81 6190.66,1091.95 6190.66,1122.4"/>
<path class="Note" d="M2002.22,1825.16 C2002.22,1839.39 2012.48,1855.28 2039.29,1855.28 C2073.71,1855.28 2109.79,1827.15 2109.79,1798.02 C2109.79,1778.49 2093.24,1767.57 2072.72,1767.57 C2040.61,1767.57 2002.22,1794.71 2002.22,1825.16"/>
<path class="Clef" d="M909.689,1176.69 C903.069,1178.01 896.78,1178.67 890.491,1178.67 C843.158,1178.67 802.776,1145.57 802.776,1095.59 C802.776,1055.21 831.242,1019.13 860.37,993.976 C865.997,989.011 871.293,984.377 876.258,979.412 C879.237,997.286 881.554,1012.84 883.871,1026.41 C853.75,1035.35 833.228,1067.13 833.228,1098.24 C833.228,1121.41 851.433,1153.19 877.913,1153.19 C880.561,1153.19 883.54,1151.86 883.54,1148.88 C883.54,1145.9 880.23,1144.25 876.258,1141.6 C863.349,1133.66 856.067,1125.05 856.067,1108.83 C856.067,1088.64 870.962,1072.42 890.491,1067.79 L909.689,1176.69 M880.561,836.42 C883.54,823.18 898.766,788.425 915.978,788.425 C920.943,788.425 928.887,804.644 928.887,827.483 C928.887,861.907 903.4,887.725 880.561,910.233 C878.575,896.993 876.92,884.084 876.92,870.182 C876.92,857.935 877.913,846.681 880.561,836.42 M956.691,1115.45 C956.691,1138.95 947.092,1163.12 923.591,1172.72 C916.64,1133 907.703,1080.37 905.386,1065.8 C935.176,1065.8 956.691,1085.99 956.691,1115.45 M811.051,1278.3 C811.051,1300.15 827.932,1328.95 872.617,1328.95 C888.174,1328.95 901.745,1324.98 913.661,1317.69 C931.535,1305.12 936.169,1283.27 936.169,1262.42 C936.169,1249.51 934.183,1234.61 930.873,1215.75 C929.88,1209.13 927.894,1199.2 925.908,1186.29 C958.346,1175.69 982.509,1141.93 982.509,1107.84 C982.509,1057.86 947.092,1024.1 898.766,1024.1 C895.456,1004.24 892.146,984.708 889.167,966.172 C924.253,929.431 948.416,888.056 948.416,835.427 C948.416,805.306 939.148,780.812 933.852,768.896 C925.908,752.015 916.309,740.43 910.351,740.43 C908.034,740.43 897.773,744.402 886.85,757.311 C865.666,782.467 859.708,824.835 859.708,852.639 C859.708,870.513 861.363,886.732 866.99,923.804 C866.659,924.135 849.447,941.678 842.496,947.305 C812.375,975.44 770.669,1015.49 770.669,1081.69 C770.669,1143.59 824.622,1192.24 886.188,1192.24 C895.787,1192.24 904.724,1191.25 912.337,1189.93 C918.626,1221.7 922.267,1244.87 922.267,1262.42 C922.267,1296.84 904.724,1315.05 871.293,1315.05 C863.349,1315.05 856.398,1313.39 855.736,1313.39 C855.405,1313.06 854.743,1312.73 854.743,1312.4 C854.743,1311.74 855.405,1311.4 856.398,1311.07 C871.955,1308.76 887.512,1295.52 887.512,1274.33 C887.512,1256.46 873.941,1237.59 849.116,1237.59 C825.946,1237.59 811.051,1256.46 811.051,1278.3"/>
<path class="Clef" d="M909.689,2044.8 C903.069,2046.12 896.78,2046.78 890.491,2046.78 C843.158,2046.78 802.776,2013.68 802.776,1963.7 C802.776,1923.32 831.242,1887.24 860.37,1862.09 C865.997,1857.12 871.293,1852.49 876.258,1847.52 C879.237,1865.4 881.554,1880.95 883.871,1894.52 C853.75,1903.46 833.228,1935.24 833.228,1966.35 C833.228,1989.52 851.433,2021.3 877.913,2021.3 C880.561,2021.3 883.54,2019.97 883.54,2016.99 C883.54,2014.02 880.23,2012.36 876.258,2009.71 C863.349,2001.77 856.067,1993.16 856.067,1976.94 C856.067,1956.75 870.962,1940.53 890.491,1935.9 L909.689,2044.8 M880.561,1704.53 C883.54,1691.29 898.766,1656.54 915.978,1656.54 C920.943,1656.54 928.887,1672.75 928.887,1695.59 C928.887,1730.02 903.4,1755.84 880.561,1778.34 C878.575,1765.1 876.92,1752.19 876.92,1738.29 C876.92,1726.05 877.913,1714.79 880.561,1704.53 M956.691,1983.56 C956.691,2007.06 947.092,2031.23 923.591,2040.83 C916.64,2001.11 907.703,1948.48 905.386,1933.91 C935.176,1933.91 956.691,1954.1 956.691,1983.56 M811.051,2146.42 C811.051,2168.26 827.932,2197.06 872.617,2197.06 C888.174,2197.06 901.745,2193.09 913.661,2185.8 C931.535,2173.23 936.169,2151.38 936.169,2130.53 C936.169,2117.62 934.183,2102.72 930.873,2083.86 C929.88,2077.24 927.894,2067.31 925.908,2054.4 C958.346,2043.81 982.509,2010.04 982.509,1975.95 C982.509,1925.97 947.092,1892.21 898.766,1892.21 C895.456,1872.35 892.146,1852.82 889.167,1834.28 C924.253,1797.54 948.416,1756.17 948.416,1703.54 C948.416,1673.42 939.148,1648.92 933.852,1637.01 C925.908,1620.13 916.309,1608.54 910.351,1608.54 C908.034,1608.54 897.773,1612.51 886.85,1625.42 C865.666,1650.58 859.708,1692.95 859.708,1720.75 C859.708,1738.62 861.363,1754.84 866.99,1791.91 C866.659,1792.25 849.447,1809.79 842.496,1815.42 C812.375,1843.55 770.669,1883.6 770.669,1949.8 C770.669,2011.7 824.622,2060.36 886.188,2060.36 C895.787,2060.36 904.724,2059.36 912.337,2058.04 C918.626,2089.81 922.267,2112.98 922.267,2130.53 C922.267,2164.95 904.724,2183.16 871.293,2183.16 C863.349,2183.16 856.398,2181.5 855.736,2181.5 C855.405,2181.17 854.743,2180.84 854.743,2180.51 C854.743,2179.85 855.405,2179.52 856.398,2179.18 C871.955,2176.87 887.512,2163.63 887.512,2142.44 C887.512,2124.57 873.941,2105.7 849.116,2105.7 C825.946,2105.7 811.051,2124.57 811.051,2146.42"/>
<path class="KeySig" d="M1070.17,835.976 L1099.63,830.018 L1099.63,884.633 L1070.17,890.922 L1070.17,835.976 M1121.48,825.715 C1123.47,825.384 1125.12,823.067 1125.12,821.081 L1125.12,801.552 C1125.12,798.904 1123.13,796.918 1120.49,796.918 L1119.82,796.918 L1108.9,799.235 L1108.9,749.916 L1099.63,749.916 L1099.63,801.221 L1070.17,807.179 L1070.17,760.508 L1060.91,760.508 L1060.91,809.165 L1048,811.813 C1046.01,812.144 1044.36,814.461 1044.36,816.447 L1044.36,835.645 C1044.36,838.293 1046.34,840.279 1048.99,840.279 L1049.98,840.279 L1060.91,837.962 L1060.91,892.577 L1048,895.225 C1046.01,895.556 1044.36,897.873 1044.36,899.859 L1044.36,919.057 C1044.36,921.705 1046.34,923.691 1048.99,923.691 L1049.98,923.691 L1060.91,921.374 L1060.91,970.693 L1070.17,970.693 L1070.17,919.388 L1099.63,913.43 L1099.63,960.101 L1108.9,960.101 L1108.9,911.444 L1121.48,909.127 C1123.47,908.796 1125.12,906.479 1125.12,904.493 L1125.12,884.964 C1125.12,882.316 1123.13,880.33 1120.49,880.33 L1119.82,880.33 L1108.9,882.647 L1108.9,828.032 L1121.48,825.715 "/>
<path class="KeySig" d="M1160.78,959.992 L1190.24,954.034 L1190.24,1008.65 L1160.78,1014.94 L1160.78,959.992 M1212.09,949.731 C1214.08,949.4 1215.73,947.083 1215.73,945.097 L1215.73,925.568 C1215.73,922.92 1213.74,920.934 1211.1,920.934 L1210.43,920.934 L1199.51,923.251 L1199.51,873.932 L1190.24,873.932 L1190.24,925.237 L1160.78,931.195 L1160.78,884.524 L1151.52,884.524 L1151.52,933.181 L1138.61,935.829 C1136.62,936.16 1134.97,938.477 1134.97,940.463 L1134.97,959.661 C1134.97,962.309 1136.95,964.295 1139.6,964.295 L1140.59,964.295 L1151.52,961.978 L1151.52,1016.59 L1138.61,1019.24 C1136.62,1019.57 1134.97,1021.89 1134.97,1023.88 L1134.97,1043.07 C1134.97,1045.72 1136.95,1047.71 1139.6,1047.71 L1140.59,1047.71 L1151.52,1045.39 L1151.52,1094.71 L1160.78,1094.71 L1160.78,1043.4 L1190.24,1037.45 L1190.24,1084.12 L1199.51,1084.12 L1199.51,1035.46 L1212.09,1033.14 C1214.08,1032.81 1215.73,1030.5 1215.73,1028.51 L1215.73,1008.98 C1215.73,1006.33 1213.74,1004.35 1211.1,1004.35 L1210.43,1004.35 L1199.51,1006.66 L1199.51,952.048 L1212.09,949.731 "/>
<path class="KeySig" d="M1251.41,794.638 L1280.87,788.68 L1280.87,843.295 L1251.41,849.584 L1251.41,794.638 M1302.71,784.377 C1304.7,784.046 1306.36,781.729 1306.36,779.743 L1306.36,760.214 C1306.36,757.566 1304.37,755.58 1301.72,755.58 L1301.06,755.58 L1290.14,757.897 L1290.14,708.578 L1280.87,708.578 L1280.87,759.883 L1251.41,765.841 L1251.41,719.17 L1242.14,719.17 L1242.14,767.827 L1229.23,770.475 C1227.25,770.806 1225.59,773.123 1225.59,775.109 L1225.59,794.307 C1225.59,796.955 1227.58,798.941 1230.23,798.941 L1231.22,798.941 L1242.14,796.624 L1242.14,851.239 L1229.23,853.887 C1227.25,854.218 1225.59,856.535 1225.59,858.521 L1225.59,877.719 C1225.59,880.367 1227.58,882.353 1230.23,882.353 L1231.22,882.353 L1242.14,880.036 L1242.14,929.355 L1251.41,929.355 L1251.41,878.05 L1280.87,872.092 L1280.87,918.763 L1290.14,918.763 L1290.14,870.106 L1302.71,867.789 C1304.7,867.458 1306.36,865.141 1306.36,863.155 L1306.36,843.626 C1306.36,840.978 1304.37,838.992 1301.72,838.992 L1301.06,838.992 L1290.14,841.309 L1290.14,786.694 L1302.71,784.377 "/>
<path class="KeySig" d="M1070.17,1704.09 L1099.63,1698.13 L1099.63,1752.74 L1070.17,1759.03 L1070.17,1704.09 M1121.48,1693.83 C1123.47,1693.49 1125.12,1691.18 1125.12,1689.19 L1125.12,1669.66 C1125.12,1667.01 1123.13,1665.03 1120.49,1665.03 L1119.82,1665.03 L1108.9,1667.35 L1108.9,1618.03 L1099.63,1618.03 L1099.63,1669.33 L1070.17,1675.29 L1070.17,1628.62 L1060.91,1628.62 L1060.91,1677.28 L1048,1679.92 C1046.01,1680.25 1044.36,1682.57 1044.36,1684.56 L1044.36,1703.76 C1044.36,1706.4 1046.34,1708.39 1048.99,1708.39 L1049.98,1708.39 L1060.91,1706.07 L1060.91,1760.69 L1048,1763.34 C1046.01,1763.67 1044.36,1765.98 1044.36,1767.97 L1044.36,1787.17 C1044.36,1789.82 1046.34,1791.8 1048.99,1791.8 L1049.98,1791.8 L1060.91,1789.48 L1060.91,1838.8 L1070.17,1838.8 L1070.17,1787.5 L1099.63,1781.54 L1099.63,1828.21 L1108.9,1828.21 L1108.9,1779.55 L1121.48,1777.24 C1123.47,1776.91 1125.12,1774.59 1125.12,1772.6 L1125.12,1753.07 C1125.12,1750.43 1123.13,1748.44 1120.49,1748.44 L1119.82,1748.44 L1108.9,1750.76 L1108.9,1696.14 L1121.48,1693.83 "/>
<path class="KeySig" d="M1160.78,1828.1 L1190.24,1822.14 L1190.24,1876.76 L1160.78,1883.05 L1160.78,1828.1 M1212.09,1817.84 C1214.08,1817.51 1215.73,1815.19 1215.73,1813.21 L1215.73,1793.68 C1215.73,1791.03 1213.74,1789.04 1211.1,1789.04 L1210.43,1789.04 L1199.51,1791.36 L1199.51,1742.04 L1190.24,1742.04 L1190.24,1793.35 L1160.78,1799.31 L1160.78,1752.63 L1151.52,1752.63 L1151.52,1801.29 L1138.61,1803.94 C1136.62,1804.27 1134.97,1806.59 1134.97,1808.57 L1134.97,1827.77 C1134.97,1830.42 1136.95,1832.41 1139.6,1832.41 L1140.59,1832.41 L1151.52,1830.09 L1151.52,1884.7 L1138.61,1887.35 C1136.62,1887.68 1134.97,1890 1134.97,1891.99 L1134.97,1911.18 C1134.97,1913.83 1136.95,1915.82 1139.6,1915.82 L1140.59,1915.82 L1151.52,1913.5 L1151.52,1962.82 L1160.78,1962.82 L1160.78,1911.51 L1190.24,1905.56 L1190.24,1952.23 L1199.51,1952.23 L1199.51,1903.57 L1212.09,1901.25 C1214.08,1900.92 1215.73,1898.61 1215.73,1896.62 L1215.73,1877.09 C1215.73,1874.44 1213.74,1872.46 1211.1,1872.46 L1210.43,1872.46 L1199.51,1874.77 L1199.51,1820.16 L1212.09,1817.84 "/>
<path class="KeySig" d="M1251.41,1662.75 L1280.87,1656.79 L1280.87,1711.4 L1251.41,1717.69 L1251.41,1662.75 M1302.71,1652.49 C1304.7,1652.16 1306.36,1649.84 1306.36,1647.85 L1306.36,1628.32 C1306.36,1625.68 1304.37,1623.69 1301.72,1623.69 L1301.06,1623.69 L1290.14,1626.01 L1290.14,1576.69 L1280.87,1576.69 L1280.87,1627.99 L1251.41,1633.95 L1251.41,1587.28 L1242.14,1587.28 L1242.14,1635.94 L1229.23,1638.58 C1227.25,1638.92 1225.59,1641.23 1225.59,1643.22 L1225.59,1662.42 C1225.59,1665.06 1227.58,1667.05 1230.23,1667.05 L1231.22,1667.05 L1242.14,1664.73 L1242.14,1719.35 L1229.23,1722 C1227.25,1722.33 1225.59,1724.64 1225.59,1726.63 L1225.59,1745.83 C1225.59,1748.48 1227.58,1750.46 1230.23,1750.46 L1231.22,1750.46 L1242.14,1748.15 L1242.14,1797.46 L1251.41,1797.46 L1251.41,1746.16 L1280.87,1740.2 L1280.87,1786.87 L1290.14,1786.87 L1290.14,1738.22 L1302.71,1735.9 C1304.7,1735.57 1306.36,1733.25 1306.36,1731.26 L1306.36,1711.74 C1306.36,1709.09 1304.37,1707.1 1301.72,1707.1 L1301.06,1707.1 L1290.14,1709.42 L1290.14,1654.8 L1302.71,1652.49 "/>
<path class="TimeSig" d="M1496.56,966.576 C1488.29,971.872 1482.33,981.471 1482.33,992.063 C1482.33,993.387 1482.33,994.711 1482.66,996.035 C1484.31,1009.61 1495.24,1020.2 1508.81,1021.85 L1512.45,1021.85 C1529,1021.85 1542.24,1008.61 1542.24,992.063 L1542.24,990.077 C1542.24,988.753 1541.91,986.436 1541.58,985.112 C1538.6,970.879 1525.69,940.427 1469.42,940.427 C1397.26,940.427 1388.99,1000.34 1388.99,1021.85 C1388.99,1061.24 1393.95,1110.56 1476.7,1110.56 C1509.47,1110.56 1534.96,1091.36 1536.28,1055.95 C1536.28,1054.29 1535.29,1053.3 1533.63,1053.3 L1529.33,1053.3 C1528.01,1053.3 1526.68,1054.62 1526.68,1055.95 C1525.36,1083.42 1505.83,1099.97 1476.7,1099.97 C1447.9,1099.97 1434,1084.41 1434,1055.28 L1434,992.063 C1434,973.527 1441.28,952.343 1470.74,952.343 C1486.3,952.343 1493.25,957.97 1496.89,963.597 C1497.22,964.259 1497.22,964.59 1497.22,965.252 C1497.22,965.583 1497.22,966.245 1496.56,966.576"/>
<path class="Beam" fill-rule="evenodd" d="M3588.1,2059.25 L3922.51,2038.58 L3922.51,2080 L3588.1,2100.67 L3588.1,2059.25 "/>
<path class="NoteDot" d="M2350.96,1067.16 C2350.96,1076.43 2358.24,1083.71 2367.51,1083.71 C2376.77,1083.71 2384.06,1076.43 2384.06,1067.16 C2384.06,1057.9 2376.77,1050.61 2367.51,1050.61 C2358.24,1050.61 2350.96,1057.9 2350.96,1067.16"/>
</svg>
