<?xml version="1.0" encoding="UTF-8" standalone="no"?>
<svg
   width="681"
   height="122.34261"
   version="1.2"
   id="svg135"
   xmlns="http://www.w3.org/2000/svg"
   xmlns:svg="http://www.w3.org/2000/svg"
   xmlns:rdf="http://www.w3.org/1999/02/22-rdf-syntax-ns#"
   xmlns:cc="http://creativecommons.org/ns#"
   xmlns:dc="http://purl.org/dc/elements/1.1/">
  <defs
     id="defs135" />
  <title
     id="title1">air_XLIV</title>
  <desc
     id="desc1">Generated by MuseScore Studio 4.7.3</desc>
  <path
     id="path135"
     class="NoteDot"
     d="m 629.39753,108.89021 c 0,0.74211 0.5828,1.32491 1.32491,1.32491 0.74211,0 1.3249,-0.5828 1.3249,-1.32491 0,-0.7421 -0.58279,-1.3249 -1.3249,-1.3249 -0.74211,0 -1.32491,0.5828 -1.32491,1.3249 M 591.53004,32.77497 c 0,0.742107 0.5836,1.324906 1.32491,1.324906 0.7421,0 1.3249,-0.582799 1.3249,-1.324906 0,-0.741307 -0.5828,-1.324906 -1.3249,-1.324906 -0.74131,0 -1.32491,0.583599 -1.32491,1.324906 m -447.58523,49.63794 59.81129,3.309462 v 3.314267 L 143.94481,85.727176 V 82.41291 m 88.33079,9.925186 20.37874,-1.654731 v 3.32067 l -20.37874,1.653931 v -3.31987 M 65.078885,77.451117 124.89018,79.105848 v 3.310264 L 65.078885,80.76138 v -3.310263 m 91.218365,-69.5000004 23.6834,1.6546513 v 3.3174681 l -23.6834,-1.654731 V 7.9511166 m 46.04188,0 23.6834,-1.6546514 v 3.3173882 l -23.6834,1.6546516 V 7.9511166 M 486.00989,2.9869223 555.73437,7.9509564 V 11.268665 L 486.00989,6.3046308 V 2.9869223 m 11.65197,81.0775167 20.37793,-1.654732 v 3.320671 l -20.37793,1.654731 v -3.32067 M 439.96801,7.9511166 463.6506,9.6057679 V 12.923236 L 439.96801,11.268505 V 7.9511166 m 97.12641,69.5000004 59.8113,1.654731 v 3.310264 l -59.8113,-1.654732 v -3.310263 m -139.46976,19.29079 c -0.0264,-0.02642 -0.0793,-0.07925 -0.15931,-0.184926 l -3.04688,-3.762573 c -0.0264,-0.02722 -0.0528,-0.106473 -0.0528,-0.159309 0,-0.07925 0.0264,-0.185727 0.0528,-0.238563 l 2.70264,-4.08039 c 0.0264,-0.05364 0.0528,-0.132891 0.0528,-0.185727 v -0.238563 c 0,-0.07925 -0.0264,-0.159309 -0.0793,-0.212145 l -4.29254,-5.803168 c 0,0 -0.10647,-0.158509 -0.26498,-0.158509 -0.08,0 -0.13289,0.02642 -0.21214,0.07926 -0.10568,0.07925 -0.1329,0.185727 -0.1329,0.264981 0,0.159309 0.0801,0.291399 0.0801,0.291399 l 2.01338,2.756285 c 0.0536,0.07925 0.0801,0.184926 0.0801,0.317817 0,0.105672 -0.0264,0.238563 -0.0801,0.317817 l -2.67623,4.08039 c -0.0264,0.05364 -0.0528,0.159309 -0.0528,0.212145 v 0.238563 c 0,0.07926 0.0264,0.159309 0.0793,0.212146 l 2.96843,3.683318 c -0.10647,-0.02642 -0.34503,-0.08006 -0.66285,-0.08006 -1.35132,0 -2.41125,1.113562 -2.41125,2.464886 0,0.370653 0.0793,0.742107 0.2914,1.033506 0.55638,0.84778 2.54414,3.364703 2.54414,3.364703 0,0 0.13209,0.15931 0.31782,0.15931 0.0528,0 0.10567,0 0.15851,-0.0528 0.13289,-0.10647 0.18572,-0.21214 0.18572,-0.31782 0,-0.10647 -0.0528,-0.18572 -0.0793,-0.23856 -0.0793,-0.13289 -0.92784,-1.669942 -0.92784,-1.669942 0,0 -0.18492,-0.370653 -0.18492,-0.847779 0,-0.84778 0.63563,-1.537051 1.48341,-1.537051 0.34504,0 0.63644,0.106473 0.84778,0.238563 l 1.03351,0.662853 c 0,0 0.10647,0.05284 0.21214,0.05284 0.10648,0 0.18573,-0.02642 0.26498,-0.132891 0.0528,-0.105672 0.0793,-0.158508 0.0793,-0.237762 0,-0.08006 -0.0264,-0.132891 -0.0793,-0.212145 l -0.0528,-0.08006 M 55.820554,18.104059 c -0.662853,0.423969 -1.139979,1.192415 -1.139979,2.040355 0,0.105992 0,0.211985 0.02642,0.317977 0.132891,1.086423 1.007089,1.934363 2.093431,2.066853 h 0.2914 c 1.324905,0 2.38483,-1.059924 2.38483,-2.38483 v -0.158989 c 0,-0.105992 -0.02642,-0.291479 -0.05284,-0.397472 -0.238563,-1.139419 -1.27207,-3.577246 -5.77675,-3.577246 -5.775949,0 -6.438802,4.79616 -6.438802,6.518537 0,3.153677 0.397872,7.101176 7.022401,7.101176 2.623394,0 4.663189,-1.536251 4.769662,-4.371789 0,-0.132891 -0.08006,-0.212146 -0.212146,-0.212146 h -0.344235 c -0.106473,0 -0.212145,0.106473 -0.212145,0.212146 -0.106473,2.199103 -1.669942,3.524009 -4.001136,3.524009 -2.305576,0 -3.418337,-1.244851 -3.418337,-3.576846 v -5.06138 c 0,-1.483895 0.582798,-3.179774 2.941211,-3.179774 1.245652,0 1.802032,0.450468 2.093431,0.900936 0.02642,0.053 0.02642,0.07949 0.02642,0.13249 0,0.0265 0,0.07949 -0.05284,0.105993 m -19.626219,-0.527081 2.358413,-0.476966 v 4.37219 l -2.358413,0.503464 v -4.398688 m 4.107609,-0.821441 c 0.159308,-0.0265 0.291399,-0.211985 0.291399,-0.370974 v -1.563389 c 0,-0.211985 -0.159309,-0.370974 -0.370654,-0.370974 h -0.05364 l -0.874198,0.185487 V 10.687468 H 38.55274 v 4.107208 l -2.358413,0.476966 V 11.535407 H 35.45302 v 3.895224 l -1.033507,0.211985 c -0.159308,0.0265 -0.291399,0.211985 -0.291399,0.370973 v 1.536891 c 0,0.211985 0.158509,0.370974 0.370654,0.370974 h 0.07925 l 0.874998,-0.185487 v 4.372189 l -1.033507,0.211985 c -0.159308,0.0265 -0.291399,0.211985 -0.291399,0.370974 v 1.537211 c 0,0.211345 0.158509,0.370653 0.370654,0.370653 h 0.07925 l 0.874998,-0.185727 v 3.9483 h 0.741307 v -4.106808 l 2.358413,-0.477126 v 3.736154 h 0.742107 v -3.895463 l 1.007089,-0.184926 c 0.159308,-0.02642 0.291399,-0.212306 0.291399,-0.371294 V 21.4987 c 0,-0.211985 -0.159309,-0.370974 -0.370654,-0.370974 h -0.05364 l -0.874198,0.185487 v -4.37219 l 1.007089,-0.185486 M 28.940575,7.64899 31.298988,7.1720239 v 4.3721891 l -2.358413,0.503465 V 7.64899 m 4.107609,-0.8214417 c 0.159309,-0.026498 0.291399,-0.2119849 0.291399,-0.3709736 v -1.563389 c 0,-0.2119849 -0.159309,-0.3709736 -0.370653,-0.3709736 H 32.91529 L 32.041095,4.7076989 V 0.75947929 H 31.298988 V 4.8666876 L 28.940575,5.3436537 V 1.6074191 h -0.741307 v 3.8952233 l -1.033506,0.211985 c -0.159309,0.026498 -0.2914,0.2119849 -0.2914,0.3709736 v 1.5368909 c 0,0.2119849 0.158509,0.3709736 0.370654,0.3709736 h 0.07925 l 0.874998,-0.1854868 v 4.3721893 l -1.033506,0.211985 c -0.159309,0.0265 -0.2914,0.211985 -0.2914,0.370974 v 1.536891 c 0,0.211985 0.158509,0.370973 0.370654,0.370973 h 0.07925 l 0.874998,-0.185487 v 3.94822 h 0.741307 V 14.326516 L 31.29898,13.84955 v 3.736234 h 0.742107 v -3.895223 l 1.007089,-0.185487 c 0.159309,-0.0265 0.291399,-0.211985 0.291399,-0.370974 v -1.563389 c 0,-0.211984 -0.159309,-0.370973 -0.370653,-0.370973 h -0.05364 l -0.874198,0.185487 V 7.0130351 l 1.007089,-0.1854868 m 3.146151,80.2461477 2.358413,-0.477126 v 4.371789 l -2.358413,0.503545 v -4.398208 m 4.107609,-0.822162 c 0.159308,-0.02642 0.291399,-0.211344 0.291399,-0.370653 v -1.563469 c 0,-0.212145 -0.159309,-0.370654 -0.370654,-0.370654 h -0.05364 l -0.874198,0.184927 v -3.947499 h -0.742107 v 4.106808 L 36.19432,84.76812 v -3.736155 h -0.741307 v 3.894663 l -1.033507,0.212145 c -0.159308,0.02642 -0.291399,0.212145 -0.291399,0.371454 v 1.536251 c 0,0.212145 0.158509,0.371454 0.370654,0.371454 h 0.07925 l 0.874998,-0.185727 v 4.37259 l -1.033507,0.211344 c -0.159308,0.02722 -0.291399,0.212145 -0.291399,0.371454 v 1.537051 c 0,0.211344 0.158509,0.370653 0.370654,0.370653 h 0.07925 l 0.874998,-0.185727 v 3.9483 h 0.741307 v -4.106808 l 2.358413,-0.477126 v 3.736154 h 0.742107 V 93.114627 L 40.301944,92.9297 c 0.159308,-0.02642 0.291399,-0.212145 0.291399,-0.371454 v -1.563469 c 0,-0.211344 -0.159309,-0.370653 -0.370654,-0.370653 h -0.05364 l -0.874198,0.185727 v -4.37259 l 1.007089,-0.185727 m -11.361369,-9.106226 2.358413,-0.477126 v 4.372589 l -2.358413,0.503545 v -4.399008 m 4.107609,-0.821362 c 0.159309,-0.02642 0.291399,-0.212145 0.291399,-0.371454 v -1.562668 c 0,-0.212145 -0.159309,-0.371454 -0.370653,-0.371454 h -0.05364 l -0.874198,0.185727 v -3.9483 h -0.742107 v 4.106808 l -2.358413,0.477126 v -3.736154 h -0.741307 v 3.895463 l -1.033506,0.212145 c -0.159309,0.02642 -0.2914,0.211345 -0.2914,0.370654 v 1.537051 c 0,0.212145 0.158509,0.370653 0.370654,0.370653 h 0.07925 l 0.874998,-0.184926 v 4.371789 l -1.033506,0.212145 c -0.159309,0.02642 -0.2914,0.212145 -0.2914,0.370654 v 1.53705 c 0,0.212146 0.158509,0.370654 0.370654,0.370654 h 0.07925 l 0.874998,-0.184927 v 3.9483 h 0.741307 v -4.107608 l 2.358413,-0.477127 v 3.736155 h 0.742107 v -3.894663 l 1.007089,-0.185727 c 0.159309,-0.02642 0.291399,-0.212145 0.291399,-0.370653 v -1.56347 c 0,-0.212145 -0.159309,-0.371453 -0.370653,-0.371453 h -0.05364 l -0.874198,0.185726 v -4.371789 l 1.007089,-0.185727 M 16.093311,34.924439 c -0.529962,0.106473 -1.033427,0.159309 -1.536891,0.159309 -3.789231,0 -7.0220012,-2.649811 -7.0220012,-6.650947 0,-3.233411 2.2788382,-6.121386 4.6106722,-8.135243 0.450468,-0.397471 0.874438,-0.768445 1.27191,-1.165917 0.238483,1.430899 0.42397,2.67631 0.609457,3.762733 -2.411329,0.715129 -4.0542123,3.259268 -4.0542123,5.749771 0,1.854869 1.4573963,4.399008 3.5772463,4.399008 0.211985,0 0.450468,-0.105672 0.450468,-0.344235 0,-0.238563 -0.264982,-0.371454 -0.582959,-0.582799 -1.033427,-0.636435 -1.616385,-1.324906 -1.616385,-2.623393 0,-1.616306 1.192415,-2.914793 2.755804,-3.286247 l 1.536891,8.71796 M 13.761477,7.6844542 c 0.238483,-1.0599247 1.457396,-3.8422271 2.835298,-3.8422271 0.397472,0 1.033427,1.2984078 1.033427,3.1267779 0,2.7558043 -2.040355,4.822658 -3.868725,6.62453 -0.158989,-1.059925 -0.29148,-2.093352 -0.29148,-3.206273 0,-0.9804301 0.0795,-1.8813661 0.29148,-2.7028078 m 6.094567,22.3382338 c 0,1.881286 -0.768446,3.815409 -2.649812,4.583934 -0.556461,-3.179774 -1.27191,-7.393055 -1.457397,-8.558652 2.384831,0 4.107209,1.616305 4.107209,3.974718 M 8.1968718,43.059602 c 0,1.748395 1.351404,4.053972 4.9286502,4.053972 1.245411,0 2.331834,-0.317818 3.285766,-0.900616 1.430899,-1.007089 1.801872,-2.756285 1.801872,-4.425426 0,-1.033507 -0.158988,-2.225522 -0.423969,-3.736154 -0.07949,-0.529963 -0.238484,-1.324906 -0.397472,-2.358413 2.596815,-0.84778 4.531178,-3.550428 4.531178,-6.280294 0,-4.001136 -2.835299,-6.703784 -6.704024,-6.703784 -0.264981,-1.589887 -0.529962,-3.153276 -0.768445,-4.637171 2.8088,-2.941291 4.743163,-6.253555 4.743163,-10.4667561 0,-2.4113288 -0.741948,-4.3721895 -1.165917,-5.3261218 C 17.391719,0.92743413 16.623273,0 16.146307,0 15.96082,0 15.139379,0.31797742 14.264941,1.351404 c -1.69588,2.013857 -2.172846,5.4056161 -2.172846,7.631458 0,1.430898 0.132491,2.729306 0.582959,5.697095 -0.0265,0.0265 -1.404401,1.430899 -1.960861,1.881367 -2.4113287,2.25234 -5.7500916,5.458612 -5.7500916,10.757915 0,4.955389 4.3191932,8.850852 9.2478436,8.850852 0.768445,0 1.483894,-0.07925 2.093351,-0.185727 0.503464,2.54414 0.794943,4.399008 0.794943,5.803168 0,2.755484 -1.4044,4.213281 -4.08071,4.213281 -0.635955,0 -1.192415,-0.132891 -1.245411,-0.132891 -0.0265,-0.02642 -0.07949,-0.05284 -0.07949,-0.07925 0,-0.05284 0.053,-0.07925 0.132491,-0.105672 1.245412,-0.185727 2.490823,-1.245652 2.490823,-2.941211 0,-1.431379 -1.086423,-2.941211 -3.073782,-2.941211 -1.8548679,0 -3.0472832,1.509832 -3.0472832,3.259028 m 7.8964392,61.361154 c -0.529962,0.10647 -1.033427,0.15931 -1.536891,0.15931 -3.789231,0 -7.0220012,-2.64982 -7.0220012,-6.650947 0,-3.233411 2.2788382,-6.120985 4.6106722,-8.135163 0.450468,-0.397872 0.874438,-0.768525 1.27191,-1.165597 0.238483,1.430579 0.42397,2.67623 0.609457,3.762573 -2.411329,0.714889 -4.0542123,3.259028 -4.0542123,5.749531 0,1.854869 1.4573963,4.399003 3.5772463,4.399003 0.211985,0 0.450468,-0.10567 0.450468,-0.34423 0,-0.23857 -0.264982,-0.37146 -0.582959,-0.5828 -1.033427,-0.63644 -1.616385,-1.32491 -1.616385,-2.623392 0,-1.616306 1.192415,-2.914793 2.755804,-3.286247 l 1.536891,8.717959 M 13.761477,77.180532 c 0.238483,-1.059925 1.457396,-3.841827 2.835298,-3.841827 0.397472,0 1.033427,1.298488 1.033427,3.126938 0,2.755484 -2.040355,4.822498 -3.868725,6.62453 -0.158989,-1.059925 -0.29148,-2.093432 -0.29148,-3.206193 0,-0.98067 0.0795,-1.882086 0.29148,-2.703448 m 6.094567,22.338474 c 0,1.881284 -0.768446,3.815404 -2.649812,4.583934 -0.556461,-3.17977 -1.27191,-7.393055 -1.457397,-8.558652 2.384831,0 4.107209,1.616305 4.107209,3.974718 M 8.1968718,112.55592 c 0,1.7484 1.351404,4.05397 4.9286502,4.05397 1.245411,0 2.331834,-0.31782 3.285766,-0.90061 1.430899,-1.00709 1.801872,-2.75629 1.801872,-4.42543 0,-1.03351 -0.158988,-2.22552 -0.423969,-3.73615 -0.07949,-0.52997 -0.238484,-1.32491 -0.397472,-2.35842 2.596815,-0.84778 4.531178,-3.55042 4.531178,-6.280291 0,-4.001136 -2.835299,-6.703784 -6.704024,-6.703784 -0.264981,-1.589887 -0.529962,-3.153356 -0.768445,-4.63677 2.8088,-2.942012 4.743163,-6.253876 4.743163,-10.467157 0,-2.411249 -0.741948,-4.371789 -1.165917,-5.326042 -0.635955,-1.351324 -1.404401,-2.279158 -1.881367,-2.279158 -0.185487,0 -1.006928,0.318618 -1.881366,1.351324 -1.69588,2.014177 -2.172846,5.406096 -2.172846,7.631618 0,1.431379 0.132491,2.729866 0.582959,5.697495 -0.0265,0.02642 -1.404401,1.430579 -1.960861,1.881287 -2.4113287,2.25194 -5.7500916,5.458132 -5.7500916,10.757755 0,4.955393 4.3191932,8.850853 9.2478436,8.850853 0.768445,0 1.483894,-0.0793 2.093351,-0.18573 0.503464,2.54414 0.794943,4.39901 0.794943,5.80317 0,2.75548 -1.4044,4.21328 -4.08071,4.21328 -0.635955,0 -1.192415,-0.13289 -1.245411,-0.13289 -0.0265,-0.0264 -0.07949,-0.0528 -0.07949,-0.0793 0,-0.0528 0.053,-0.0793 0.132491,-0.10568 1.245412,-0.18572 2.490823,-1.24565 2.490823,-2.94121 0,-1.43138 -1.086423,-2.94121 -3.073782,-2.94121 -1.8548679,0 -3.0472832,1.50983 -3.0472832,3.25903 m 167.2382632,-2.5529 c 0,1.13998 0.82216,2.41125 2.96843,2.41125 2.75548,0 5.64386,-2.25194 5.64386,-4.58393 0,-1.56347 -1.32491,-2.43767 -2.96763,-2.43767 -2.57056,0 -5.64466,2.17269 -5.64466,4.61035 m 373.43373,-6.61812 c 0,1.13918 0.82136,2.41125 2.96763,2.41125 2.75548,0 5.64386,-2.25274 5.64386,-4.58474 0,-1.562665 -1.32491,-2.437664 -2.96763,-2.437664 -2.57056,0 -5.64386,2.172684 -5.64386,4.611154 M 397.49417,27.269606 c 0,1.139178 0.82136,2.411248 2.96763,2.411248 2.75548,0 5.64386,-2.25274 5.64386,-4.583934 0,-1.563469 -1.32491,-2.438067 -2.96763,-2.438067 -2.57056,0 -5.64386,2.173086 -5.64386,4.610753 m 171.09058,79.423904 c 0,1.13998 0.82216,2.41205 2.96843,2.41205 2.75549,0 5.64386,-2.25274 5.64386,-4.58473 0,-1.56347 -1.3249,-2.43767 -2.96763,-2.43767 -2.57056,0 -5.64466,2.17268 -5.64466,4.61035 m -39.43256,-6.61812 c 0,1.13918 0.82136,2.41124 2.96763,2.41124 2.75628,0 5.64386,-2.25274 5.64386,-4.583929 0,-1.563469 -1.32491,-2.438468 -2.96763,-2.438468 -2.56976,0 -5.64386,2.173487 -5.64386,4.611157 M 432.02498,30.579068 c 0,1.139179 0.82136,2.411249 2.96843,2.411249 2.75548,0 5.64386,-2.25274 5.64386,-4.583934 0,-1.563469 -1.32491,-2.438468 -2.96763,-2.438468 -2.57056,0 -5.64466,2.173487 -5.64466,4.611153 m 77.41053,72.805782 c 0,1.13918 0.82136,2.41125 2.96763,2.41125 2.75628,0 5.64466,-2.25274 5.64466,-4.58474 0,-1.562665 -1.32491,-2.437664 -2.96843,-2.437664 -2.56976,0 -5.64386,2.172684 -5.64386,4.611154 M 286.42222,28.435202 c -0.87419,0 -1.05992,-0.714888 -1.05992,-0.953451 0,-1.298488 4.45184,-3.577647 5.6975,-3.577647 0.63563,0 1.05992,0.371454 1.05992,0.954253 0,1.324906 -4.47826,3.576845 -5.6975,3.576845 m 3.6569,-5.776349 c -2.57055,0 -5.64385,2.146668 -5.64385,4.610753 0,1.139178 0.82136,2.411248 2.96762,2.411248 2.75549,0 5.64386,-2.25274 5.64386,-4.583934 0,-1.563469 -1.3249,-2.438067 -2.96763,-2.438067 m 298.22231,87.344117 c 0,1.13998 0.82137,2.41125 2.96763,2.41125 2.75629,0 5.64466,-2.25194 5.64466,-4.58393 0,-1.56347 -1.3249,-2.43767 -2.96763,-2.43767 -2.57055,0 -5.64466,2.17269 -5.64466,4.61035 m -98.5826,-3.30946 c 0,1.13998 0.82136,2.41205 2.96843,2.41205 2.75548,0 5.64386,-2.25274 5.64386,-4.58473 0,-1.56347 -1.32491,-2.43767 -2.96763,-2.43767 -2.57056,0 -5.64466,2.17268 -5.64466,4.61035 M 455.04632,33.888531 c 0,1.139179 0.82136,2.411249 2.96763,2.411249 2.75548,0 5.64386,-2.25274 5.64386,-4.584735 0,-1.563469 -1.32491,-2.437667 -2.96763,-2.437667 -2.57056,0 -5.64386,2.172686 -5.64386,4.611153 m 5.09789,76.114439 c 0,1.13998 0.82136,2.41125 2.96763,2.41125 2.75628,0 5.64466,-2.25194 5.64466,-4.58393 0,-1.56347 -1.32491,-2.43767 -2.96843,-2.43767 -2.56976,0 -5.64386,2.17269 -5.64386,4.61035 m 17.92265,-86.042827 c 0,1.139179 0.82136,2.411248 2.96843,2.411248 2.75548,0 5.64386,-2.251939 5.64386,-4.584094 0,-1.563389 -1.32491,-2.437827 -2.96763,-2.437827 -2.57056,0 -5.64466,2.172846 -5.64466,4.610673 m -237.62808,0 c 0,1.139179 0.82137,2.411248 2.96763,2.411248 2.75629,0 5.64466,-2.251939 5.64466,-4.584094 0,-1.563389 -1.3249,-2.437827 -2.96843,-2.437827 -2.56975,0 -5.64386,2.172846 -5.64386,4.610673 m 260.64942,3.309463 c 0,1.139178 0.82136,2.411248 2.96763,2.411248 2.75548,0 5.64386,-2.25274 5.64386,-4.583934 0,-1.563469 -1.32491,-2.438067 -2.96763,-2.438067 -2.57056,0 -5.64386,2.173086 -5.64386,4.610753 m -79.98349,86.042834 c 0,1.13918 0.82136,2.41125 2.96763,2.41125 2.75629,0 5.64466,-2.25194 5.64466,-4.58394 0,-1.56347 -1.3249,-2.43767 -2.96843,-2.43767 -2.56975,0 -5.64386,2.17269 -5.64386,4.61036 M 524.10874,30.579068 c 0,1.139179 0.82136,2.411249 2.96843,2.411249 2.75549,0 5.64386,-2.25274 5.64386,-4.583934 0,-1.563469 -1.32491,-2.438468 -2.96763,-2.438468 -2.57056,0 -5.64466,2.173487 -5.64466,4.611153 m 23.02134,3.309463 c 0,1.139179 0.82136,2.411249 2.96763,2.411249 2.75549,0 5.64386,-2.25274 5.64386,-4.584735 0,-1.563469 -1.32491,-2.437667 -2.96763,-2.437667 -2.57056,0 -5.64386,2.172686 -5.64386,4.611153 M 217.41824,27.269606 c 0,1.139178 0.82136,2.411248 2.96763,2.411248 2.75549,0 5.64386,-2.25274 5.64386,-4.583934 0,-1.563469 -1.3249,-2.438067 -2.96763,-2.438067 -2.57056,0 -5.64386,2.173086 -5.64386,4.610753 m 131.73728,73.971374 c -0.875,0 -1.05993,-0.71569 -1.05993,-0.95345 0,-1.298486 4.45105,-3.577645 5.6967,-3.577645 0.63643,0 1.05992,0.370654 1.05992,0.954253 0,1.324906 -4.47826,3.576842 -5.69669,3.576842 m 3.6561,-5.776747 c -2.56976,0 -5.64386,2.146268 -5.64386,4.611157 0,1.13918 0.82136,2.41124 2.96763,2.41124 2.75628,0 5.64466,-2.25274 5.64466,-4.583929 0,-1.563469 -1.32491,-2.438468 -2.96843,-2.438468 M 581.60325,38.363591 c -0.87499,0 -1.05992,-0.715689 -1.05992,-0.954252 0,-1.298488 4.45104,-3.576846 5.69669,-3.576846 0.63644,0 1.05993,0.370653 1.05993,0.953452 0,1.324906 -4.47826,3.577646 -5.6967,3.577646 m 3.6561,-5.77675 c -2.56975,0 -5.64386,2.146268 -5.64386,4.610352 0,1.13998 0.82137,2.41205 2.96763,2.41205 2.75629,0 5.64466,-2.252741 5.64466,-4.584735 0,-1.563469 -1.3249,-2.437667 -2.96843,-2.437667 m 34.21059,78.582529 c -0.87419,0 -1.05992,-0.71569 -1.05992,-0.95425 0,-1.29849 4.45184,-3.57685 5.6975,-3.57685 0.63563,0 1.05992,0.37066 1.05992,0.95346 0,1.3249 -4.47826,3.57764 -5.6975,3.57764 m 3.65691,-5.77675 c -2.57056,0 -5.64386,2.14627 -5.64386,4.61035 0,1.13998 0.82136,2.41125 2.96763,2.41125 2.75548,0 5.64385,-2.25194 5.64385,-4.58393 0,-1.56347 -1.3249,-2.43767 -2.96762,-2.43767 m 22.15034,-78.123014 c 0,1.139178 0.82136,2.411248 2.96763,2.411248 2.75628,0 5.64466,-2.25274 5.64466,-4.583934 0,-1.563469 -1.32491,-2.438067 -2.96843,-2.438067 -2.56976,0 -5.64386,2.173086 -5.64386,4.610753 M 295.32831,101.24098 c -0.87419,0 -1.05992,-0.71569 -1.05992,-0.95345 0,-1.298486 4.45184,-3.577645 5.69749,-3.577645 0.63564,0 1.05993,0.370654 1.05993,0.954253 0,1.324906 -4.47826,3.576842 -5.6975,3.576842 m 3.6569,-5.776747 c -2.57055,0 -5.64385,2.146268 -5.64385,4.611157 0,1.13918 0.82136,2.41124 2.96762,2.41124 2.75549,0 5.64386,-2.25274 5.64386,-4.583929 0,-1.563469 -1.3249,-2.438468 -2.96763,-2.438468 M 194.3969,30.579068 c 0,1.139179 0.82136,2.411249 2.96763,2.411249 2.75629,0 5.64466,-2.25274 5.64466,-4.583934 0,-1.563469 -1.3249,-2.438468 -2.96843,-2.438468 -2.56976,0 -5.64386,2.173487 -5.64386,4.611153 m 69.36903,79.423902 c 0,1.13998 0.82217,2.41125 2.96843,2.41125 2.75549,0 5.64386,-2.25194 5.64386,-4.58393 0,-1.56347 -1.3249,-2.43767 -2.96763,-2.43767 -2.57055,0 -5.64466,2.17269 -5.64466,4.61035 M 171.37636,33.888531 c 0,1.139179 0.82136,2.411249 2.96763,2.411249 2.75549,0 5.64386,-2.25274 5.64386,-4.584735 0,-1.563469 -1.32491,-2.437667 -2.96763,-2.437667 -2.57056,0 -5.64386,2.172686 -5.64386,4.611153 m 72.67369,79.423909 c 0,1.13918 0.82136,2.41125 2.96763,2.41125 2.75549,0 5.64386,-2.25194 5.64386,-4.58394 0,-1.56347 -1.32491,-2.43767 -2.96763,-2.43767 -2.57056,0 -5.64386,2.17269 -5.64386,4.61036 M 57.136654,100.07539 c 0,1.13918 0.821362,2.41124 2.967629,2.41124 2.755484,0 5.643859,-2.25274 5.643859,-4.583929 0,-1.563469 -1.324906,-2.438468 -2.967629,-2.438468 -2.570557,0 -5.643859,2.173487 -5.643859,4.611157 M 148.35502,30.579068 c 0,1.139179 0.82136,2.411249 2.96763,2.411249 2.75629,0 5.64466,-2.25274 5.64466,-4.583934 0,-1.563469 -1.32491,-2.438468 -2.96843,-2.438468 -2.56976,0 -5.64386,2.173487 -5.64386,4.611153 m -34.53161,-3.309462 c 0,1.139178 0.82136,2.411248 2.96843,2.411248 2.75548,0 5.64386,-2.25274 5.64386,-4.583934 0,-1.563469 -1.32491,-2.438067 -2.96763,-2.438067 -2.57056,0 -5.64466,2.173086 -5.64466,4.610753 m 110.50996,92.661754 c 0,1.13918 0.82136,2.41125 2.96763,2.41125 2.75548,0 5.64386,-2.25274 5.64386,-4.58393 0,-1.56347 -1.32491,-2.43847 -2.96763,-2.43847 -2.57056,0 -5.64386,2.17349 -5.64386,4.61115 M 96.569213,106.69351 c 0,1.13998 0.821362,2.41205 2.967629,2.41205 2.756288,0 5.644658,-2.25274 5.644658,-4.58473 0,-1.56347 -1.3249,-2.43767 -2.96763,-2.43767 -2.570555,0 -5.644657,2.17268 -5.644657,4.61035 m 19.716677,3.30946 c 0,1.13998 0.82137,2.41125 2.96763,2.41125 2.75629,0 5.64466,-2.25194 5.64466,-4.58393 0,-1.56347 -1.3249,-2.43767 -2.96843,-2.43767 -2.56975,0 -5.64386,2.17269 -5.64386,4.61035 m 19.71669,-6.61812 c 0,1.13918 0.82136,2.41125 2.96762,2.41125 2.75549,0 5.64386,-2.25274 5.64386,-4.58474 0,-1.562665 -1.3249,-2.437664 -2.96763,-2.437664 -2.57055,0 -5.64385,2.172684 -5.64385,4.611154 M 72.704899,40.506656 c 0,1.13998 0.821362,2.411249 2.967629,2.411249 2.756285,0 5.644656,-2.25194 5.644656,-4.583934 0,-1.563469 -1.324902,-2.437667 -2.967625,-2.437667 -2.570558,0 -5.64466,2.172686 -5.64466,4.610352 m 83.014361,66.186854 c 0,1.13998 0.82136,2.41205 2.96763,2.41205 2.75548,0 5.64385,-2.25274 5.64385,-4.58473 0,-1.56347 -1.3249,-2.43767 -2.96762,-2.43767 -2.57056,0 -5.64386,2.17268 -5.64386,4.61035 m 39.43256,6.61893 c 0,1.13918 0.82136,2.41125 2.96763,2.41125 2.75628,0 5.64466,-2.25194 5.64466,-4.58394 0,-1.56347 -1.32491,-2.43767 -2.96763,-2.43767 -2.57056,0 -5.64466,2.17269 -5.64466,4.61036 M 338.21924,18.507374 c -0.8742,0 -1.05992,-0.715449 -1.05992,-0.953932 0,-1.298408 4.45184,-3.577246 5.69749,-3.577246 0.63564,0 1.05993,0.370974 1.05993,0.953932 0,1.324906 -4.47827,3.577246 -5.6975,3.577246 m 3.6569,-5.776589 c -2.57056,0 -5.64386,2.146347 -5.64386,4.610672 0,1.139419 0.82136,2.411329 2.96763,2.411329 2.75549,0 5.64386,-2.25234 5.64386,-4.584175 0,-1.563388 -1.32491,-2.437826 -2.96763,-2.437826 M 76.852535,103.38485 c 0,1.13918 0.822162,2.41125 2.96843,2.41125 2.75548,0 5.643855,-2.25274 5.643855,-4.58474 0,-1.562665 -1.324906,-2.437664 -2.967629,-2.437664 -2.570554,0 -5.644656,2.172684 -5.644656,4.611154 M 537.09489,79.115487 v 18.787998 h 0.66202 V 79.115487 Z m -353.71716,7.15442 v 21.561153 h 0.66216 V 86.269907 Z m -78.86596,-6.063362 v 24.315065 h 0.66217 V 80.206545 Z m 59.14935,4.973088 v 19.341977 h 0.66201 V 85.179633 Z M 80.647487,16.228581 v 22.106206 h 0.662164 V 16.228581 Z M 232.27522,93.971269 v 23.788141 h 0.66202 V 93.971269 Z m -88.33009,-9.882854 v 17.124525 h 0.66218 V 84.088415 Z M 462.98891,11.241421 V 31.71667 h 0.66217 V 11.241421 Z M 124.22853,80.751758 v 27.079302 h 0.66202 V 80.751758 Z m 373.43299,4.94667 v 18.823182 h 0.66202 V 85.698428 Z M 121.76607,4.6458182 V 25.097769 h 0.66201 V 4.6458182 Z m 34.53157,4.9871595 V 28.407223 h 0.66202 V 9.6329777 Z M 84.795162,79.6607 v 21.55224 h 0.662013 V 79.6607 Z M 251.99183,92.370174 V 111.14051 H 252.654 V 92.370174 Z M 486.00949,4.6694279 V 21.78832 h 0.66201 V 4.6694279 Z M 65.078556,79.115487 v 18.787998 h 0.662021 V 79.115487 Z m 206.630034,6.609359 v 22.106214 h 0.66201 V 85.724846 Z m 29.5746,-9.927724 v 22.106363 h 0.66201 V 75.797122 Z M 179.31823,11.241421 V 31.71667 h 0.66202 V 11.241421 Z M 202.3396,9.5866965 V 28.407223 h 0.66201 V 9.5866965 Z m 423.086,76.1381495 v 22.106214 h 0.66201 V 85.724846 Z M 225.36003,7.9782527 V 25.097769 h 0.66217 V 7.9782527 Z m 15.07843,15.9810813 v 18.744064 h 0.66202 V 23.959334 Z M 292.3771,4.6458182 V 25.097769 h 0.66201 V 4.6458182 Z M 596.24408,80.751758 v 27.079302 h 0.66202 V 80.751758 Z M 336.23192,17.340435 v 22.053517 h 0.66202 V 17.340435 Z M 653.21976,4.6458182 V 25.097769 h 0.66217 V 4.6458182 Z M 576.52732,80.206545 v 24.315065 h 0.66217 V 80.206545 Z M 355.11046,75.797122 v 22.106363 h 0.66201 V 75.797122 Z M 587.55814,12.919131 V 35.02534 h 0.66202 V 12.919131 Z M 405.43596,4.6458182 V 25.097769 h 0.66202 V 4.6458182 Z M 556.81072,79.6607 v 21.55224 h 0.66201 V 79.6607 Z m -127.7633,9.373601 v 22.106209 h 0.66202 V 89.034301 Z M 555.07187,9.5862274 V 31.71667 h 0.66217 V 9.5862274 Z m -86.9851,76.1386186 v 22.106214 h 0.66217 V 85.724846 Z M 532.05144,7.9472939 V 28.407223 h 0.66202 V 7.9472939 Z m -92.0839,1.6856838 V 28.407223 h 0.66217 V 9.6329777 Z M 509.03007,6.3083605 V 25.097769 h 0.66202 V 6.3083605 Z M 203.09449,87.361125 v 23.779385 h 0.66201 V 87.361125 Z m 314.28363,-3.263792 v 17.115607 h 0.66202 V 84.097333 Z M 241.86537,111.67009 v 1.05916 h 12.97372 v -1.05916 z m -19.71676,6.6189 v 1.05916 h 12.9745 v -1.05916 z m 0,-6.6189 v 1.05916 h 12.9745 v -1.05916 z m 196.77219,0 v 1.05916 h 12.97372 v -1.05916 z m -225.95292,0 v 1.05916 h 12.97371 v -1.05916 z m 105.18269,-8.01799 a 0.16531304,0.16531304 0 0 0 -0.10538,0.0275 0.16531304,0.16531304 0 0 0 -0.10804,0.0128 0.16531304,0.16531304 0 0 0 0.002,0.015 0.16531304,0.16531304 0 0 0 -0.0145,0.004 0.16531304,0.16531304 0 0 0 0.0386,0.19904 0.16531304,0.16531304 0 0 0 0.002,0.0144 c 5.31351,4.18576 15.83151,6.23943 26.35379,6.23943 10.52229,0 21.04045,-2.05367 26.35397,-6.23943 a 0.16532957,0.16532957 0 0 0 -0.18591,-0.27253 c -5.18818,3.04084 -15.68362,4.5933 -26.16806,4.5933 -10.48442,0 -20.97971,-1.55246 -26.16789,-4.5933 z m 50.21246,1.40362 c -5.61745,3.16641 -14.83092,4.7778 -24.04457,4.7778 -9.21346,0 -18.4266,-1.61135 -24.04409,-4.77764 5.71812,2.36029 14.87569,3.52006 24.04409,3.52006 9.16865,0 18.32648,-1.1598 24.04457,-3.52022 z m -50.29604,-1.26099 c 10.50078,6.15461 42.00232,6.15461 52.5031,0 -10.50078,8.27206 -42.00232,8.27206 -52.5031,0 M 152.65735,37.441833 a 0.16531304,0.16531304 0 0 0 -0.0812,0.03393 0.16531304,0.16531304 0 0 0 -0.0155,-0.0025 0.16531304,0.16531304 0 0 0 -0.007,0.01204 0.16531304,0.16531304 0 0 0 -0.0128,0.0053 0.16531304,0.16531304 0 0 0 0,0.01548 0.16531304,0.16531304 0 0 0 -0.0163,0.198103 c 5.46857,7.525762 17.10135,8.094535 23.27779,1.137338 a 0.16532957,0.16532957 0 0 0 -0.22797,-0.237819 c -2.96158,2.414251 -7.30428,3.494077 -11.58761,3.28475 -4.28333,-0.209335 -8.49985,-1.707519 -11.21204,-4.398792 a 0.16531304,0.16531304 0 0 0 -0.11711,-0.04785 z m 1.37563,1.540117 c 2.71116,1.968914 6.30163,3.059059 9.93741,3.236749 3.63571,0.177673 7.31528,-0.557069 10.20541,-2.252324 -5.77581,4.920788 -14.87447,4.475884 -20.14282,-0.984425 z m -1.37502,-1.374876 c 5.50217,5.459733 17.01244,6.022518 23.02054,1.124769 -6.10497,6.876702 -17.61524,6.313917 -23.02054,-1.124769 m 380.83056,69.334476 a 0.16531304,0.16531304 0 0 0 -0.12431,0.0238 0.16531304,0.16531304 0 0 0 -0.004,0.0172 0.16531304,0.16531304 0 0 0 -0.0173,-8e-4 0.16531304,0.16531304 0 0 0 -0.005,0.1071 0.16531304,0.16531304 0 0 0 -0.0217,0.10555 c 4.60835,6.99928 14.60632,7.56997 19.98084,1.13984 a 0.16532957,0.16532957 0 0 0 -0.23501,-0.2311 c -2.55932,2.21549 -6.28394,3.19455 -9.94508,2.98564 -3.66112,-0.20892 -7.25018,-1.60519 -9.5409,-4.09718 a 0.16531304,0.16531304 0 0 0 -0.0155,-8e-4 0.16531304,0.16531304 0 0 0 -0.0729,-0.0494 z m 1.20957,1.50337 c 2.29646,1.78897 5.32059,2.79814 8.40075,2.9739 3.08002,0.17575 6.19937,-0.48273 8.68438,-1.99886 -4.97577,4.45073 -12.64794,4.01269 -17.08513,-0.97504 z m -1.24296,-1.34153 c 4.65599,5.06506 14.51393,5.62785 19.71588,1.12477 -5.30683,6.34914 -15.16557,5.78636 -19.71588,-1.12477 m -19.62944,0.98456 a 0.16532957,0.16532957 0 0 0 -0.22015,0.0419 c -2.03265,2.74724 -5.49225,4.54216 -9.15422,5.15681 -3.66197,0.61466 -7.51783,0.0476 -10.33597,-1.88535 a 0.16531304,0.16531304 0 0 0 -0.19764,0.0219 0.16531304,0.16531304 0 0 0 -0.0155,0 0.16531304,0.16531304 0 0 0 -0.005,0.013 0.16531304,0.16531304 0 0 0 -0.0117,0.008 0.16531304,0.16531304 0 0 0 0.003,0.0153 0.16531304,0.16531304 0 0 0 0.0192,0.19779 c 6.1118,5.83454 16.10602,4.15685 19.97788,-3.35338 a 0.16532957,0.16532957 0 0 0 -0.0597,-0.21594 z m -1.18252,1.60986 c -3.92056,5.49221 -11.60748,6.78257 -17.10638,2.87133 2.66859,1.24637 5.88449,1.5613 8.96925,1.04353 3.08477,-0.51777 6.02166,-1.86549 8.13713,-3.91486 z m -18.6214,1.83981 c 5.72712,3.92829 15.58586,2.27356 19.71668,-3.30946 -3.82341,7.41627 -13.68135,9.071 -19.71668,3.30946 M 221.80384,31.97122 a 0.16532957,0.16532957 0 0 0 -0.2189,0.04769 c -2.23618,3.19737 -6.2135,5.491555 -10.49811,6.513982 -4.28462,1.022435 -8.86953,0.771527 -12.30889,-1.071509 a 0.16531304,0.16531304 0 0 0 -0.19404,0.04331 0.16531304,0.16531304 0 0 0 -0.0153,0.002 0.16531304,0.16531304 0 0 0 -0.004,0.01329 0.16531304,0.16531304 0 0 0 -0.0108,0.0089 0.16531304,0.16531304 0 0 0 0.005,0.01501 0.16531304,0.16531304 0 0 0 0.0406,0.194509 c 7.52603,5.754254 19.15293,2.979725 23.26981,-5.552861 a 0.16532957,0.16532957 0 0 0 -0.0654,-0.214363 z m -1.19191,1.744945 c -4.29991,6.471809 -13.44156,8.653165 -20.20021,4.819856 3.23888,1.152468 7.10304,1.189181 10.75172,0.318498 3.64836,-0.870596 7.07927,-2.647979 9.44849,-5.138354 z m -21.91209,3.890909 c 6.97517,3.737755 18.48544,0.991077 23.02054,-5.493356 -4.06998,8.435367 -15.58025,11.182045 -23.02054,5.493356 m 237.6274,-0.165241 a 0.16531304,0.16531304 0 0 0 -0.081,0.03393 0.16531304,0.16531304 0 0 0 -0.0155,-0.0025 0.16531304,0.16531304 0 0 0 -0.002,0.0095 0.16531304,0.16531304 0 0 0 -0.0186,0.0078 0.16531304,0.16531304 0 0 0 8e-4,0.107265 0.16531304,0.16531304 0 0 0 -0.0169,0.106321 c 5.46857,7.525762 17.10149,8.094519 23.27872,1.137338 a 0.16532957,0.16532957 0 0 0 -0.22812,-0.237819 c -2.96198,2.414259 -7.30464,3.494077 -11.58808,3.28475 -4.28344,-0.209335 -8.50017,-1.707519 -11.21235,-4.398791 a 0.16531304,0.16531304 0 0 0 -0.11711,-0.04785 z m 1.37516,1.539652 c 2.71124,1.969203 6.3019,3.059516 9.93804,3.237214 3.6359,0.177681 7.31575,-0.557125 10.2062,-2.252484 -5.77657,4.921101 -14.8759,4.476076 -20.14424,-0.98473 z m -1.37448,-1.374411 c 5.50216,5.459733 17.01243,6.022518 23.02134,1.124769 -6.10577,6.876702 -17.61604,6.313917 -23.02134,-1.124769 M 179.66237,114.70013 a 0.16531304,0.16531304 0 0 0 -0.005,0.0167 0.16531304,0.16531304 0 0 0 -0.0174,-0.003 0.16531304,0.16531304 0 0 0 -0.0159,0.10632 0.16531304,0.16531304 0 0 0 -0.0327,0.10225 c 3.87185,7.51024 13.86608,9.18793 19.97787,3.35339 a 0.16532957,0.16532957 0 0 0 -0.20764,-0.25595 c -2.81814,1.93299 -6.67415,2.50001 -10.33613,1.88535 -3.66197,-0.61466 -7.12157,-2.40957 -9.15422,-5.15681 a 0.16531304,0.16531304 0 0 0 -0.10602,-0.0158 0.16531304,0.16531304 0 0 0 -0.10257,-0.0328 z m 1.17096,1.61658 c 2.11546,2.04937 5.05237,3.39709 8.13713,3.91486 3.08475,0.51777 6.30066,0.20282 8.96925,-1.04353 -5.49891,3.9112 -13.18583,2.62086 -17.10638,-2.87133 z m -1.09525,-1.46962 c 4.13082,5.58301 13.98956,7.23775 19.71668,3.30946 -6.03533,5.76154 -15.89327,4.10681 -19.71668,-3.30946 M 482.36919,30.822779 a 0.16531304,0.16531304 0 0 0 -0.0811,0.03409 0.16531304,0.16531304 0 0 0 -0.0155,-0.0025 0.16531304,0.16531304 0 0 0 -0.002,0.0095 0.16531304,0.16531304 0 0 0 -0.0186,0.0078 0.16531304,0.16531304 0 0 0 -0.0139,0.198416 0.16531304,0.16531304 0 0 0 -0.002,0.01517 c 5.46857,7.525761 17.10133,8.094502 23.27857,1.138122 a 0.16532957,0.16532957 0 0 0 -0.22796,-0.237819 c -2.96198,2.413859 -7.3048,3.493605 -11.58823,3.284278 -4.28344,-0.209335 -8.50002,-1.70744 -11.21221,-4.399104 a 0.16531304,0.16531304 0 0 0 -0.11711,-0.048 z m 1.3761,1.540894 c 2.71112,1.968906 6.30147,3.058763 9.9371,3.236436 3.63592,0.177682 7.31574,-0.557028 10.2062,-2.252163 -5.7762,4.92022 -14.8748,4.475572 -20.1433,-0.984273 z m -1.37549,-1.375525 c 5.50217,5.460534 17.01244,6.022518 23.02134,1.12557 -6.10577,6.875901 -17.61604,6.313116 -23.02134,-1.12557 m 46.04118,6.453685 a 0.16531304,0.16531304 0 0 0 -0.081,0.03393 0.16531304,0.16531304 0 0 0 -0.0155,-0.0025 0.16531304,0.16531304 0 0 0 -0.002,0.0095 0.16531304,0.16531304 0 0 0 -0.0186,0.0078 0.16531304,0.16531304 0 0 0 8e-4,0.107265 0.16531304,0.16531304 0 0 0 -0.0169,0.106321 c 5.46857,7.525762 17.1015,8.094519 23.27873,1.137338 a 0.16532957,0.16532957 0 0 0 -0.22812,-0.237819 c -2.96199,2.414259 -7.30465,3.494077 -11.58809,3.28475 -4.28343,-0.209335 -8.50016,-1.707519 -11.21235,-4.398791 a 0.16531304,0.16531304 0 0 0 -0.11711,-0.04785 z m 1.37516,1.539652 c 2.71125,1.969203 6.3019,3.059516 9.93805,3.237214 3.63589,0.177681 7.31574,-0.557125 10.20619,-2.252484 -5.77656,4.921101 -14.8759,4.476076 -20.14424,-0.98473 z m -1.37446,-1.374411 c 5.50217,5.459733 17.01244,6.022518 23.02134,1.124769 -6.10577,6.876702 -17.61604,6.313917 -23.02134,-1.124769 M 61.445761,106.93826 a 0.16531304,0.16531304 0 0 0 -0.08255,0.0302 0.16531304,0.16531304 0 0 0 -0.01532,-0.003 0.16531304,0.16531304 0 0 0 -0.0019,0.01 0.16531304,0.16531304 0 0 0 -0.01907,0.007 0.16531304,0.16531304 0 0 0 -0.02314,0.19733 0.16531304,0.16531304 0 0 0 -0.0031,0.0153 c 4.609152,6.99926 14.606323,7.56995 19.981628,1.13985 a 0.16532957,0.16532957 0 0 0 -0.235001,-0.23111 c -2.559331,2.21549 -6.284006,3.19456 -9.945237,2.98564 -3.661231,-0.20891 -7.250405,-1.60518 -9.541524,-4.09717 a 0.16531304,0.16531304 0 0 0 -0.114766,-0.0533 z m 1.236157,1.50666 c 2.296738,1.78899 5.32111,2.79814 8.401376,2.9739 3.07997,0.17575 6.199095,-0.4827 8.684058,-1.99871 -4.976275,4.45056 -12.647824,4.01251 -17.085434,-0.97519 z m -1.243122,-1.34153 c 4.656784,5.06506 14.514724,5.62785 19.716678,1.12477 -5.307626,6.34914 -15.165566,5.78636 -19.716678,-1.12477 m 39.457844,4.27071 a 0.16531304,0.16531304 0 0 0 -0.0854,0.0213 0.16531304,0.16531304 0 0 0 -0.0148,-0.005 0.16531304,0.16531304 0 0 0 -0.003,0.009 0.16531304,0.16531304 0 0 0 -0.0195,0.005 0.16531304,0.16531304 0 0 0 -0.016,0.10633 0.16531304,0.16531304 0 0 0 -0.0327,0.10225 c 3.87186,7.51024 13.86593,9.18792 19.97772,3.35339 a 0.16532957,0.16532957 0 0 0 -0.20764,-0.25596 c -2.81855,1.933 -6.67457,2.50001 -10.33644,1.88535 -3.66187,-0.61466 -7.12126,-2.40956 -9.15391,-5.1568 a 0.16531304,0.16531304 0 0 0 -0.10836,-0.0652 z m 1.07105,1.63331 c 2.11539,2.04925 5.05193,3.39696 8.1365,3.91471 3.08491,0.51781 6.30111,0.2029 8.97003,-1.04369 -5.49886,3.91149 -13.18584,2.62114 -17.10653,-2.87102 z m -1.09553,-1.46979 c 4.13082,5.58302 13.98876,7.23775 19.71668,3.30947 -6.03533,5.76154 -15.89327,4.1068 -19.71668,-3.30947 m 472.04003,-0.16352 a 0.16531304,0.16531304 0 0 0 -0.0496,0.0124 0.16531304,0.16531304 0 0 0 -0.0507,0.004 0.16531304,0.16531304 0 0 0 -0.009,0.0106 0.16531304,0.16531304 0 0 0 -0.0136,0.003 0.16531304,0.16531304 0 0 0 -0.002,0.0155 0.16531304,0.16531304 0 0 0 -0.0461,0.1931 c 3.87186,7.51023 13.86593,9.18792 19.97772,3.35338 a 0.16532957,0.16532957 0 0 0 -0.20764,-0.25595 c -2.81815,1.93299 -6.67416,2.50001 -10.33613,1.88535 -3.66197,-0.61466 -7.12157,-2.40957 -9.15423,-5.15681 a 0.16531304,0.16531304 0 0 0 -0.0438,-0.0263 0.16531304,0.16531304 0 0 0 -0.0525,-0.0318 0.16531304,0.16531304 0 0 0 -0.012,-0.007 z m 1.07073,1.63315 c 2.11547,2.04939 5.05237,3.39709 8.13713,3.91487 3.08475,0.51777 6.30067,0.20282 8.96926,-1.04353 -5.49891,3.9112 -13.18583,2.62087 -17.10639,-2.87134 z m -1.09523,-1.46963 c 4.13083,5.58302 13.98957,7.23775 19.71669,3.30947 -6.03533,5.76154 -15.89327,4.1068 -19.71669,-3.30947 m -432.55768,-3.47296 a 0.16531304,0.16531304 0 0 0 -0.0854,0.0213 0.16531304,0.16531304 0 0 0 -0.0148,-0.005 0.16531304,0.16531304 0 0 0 -0.003,0.009 0.16531304,0.16531304 0 0 0 -0.0196,0.005 0.16531304,0.16531304 0 0 0 -0.0159,0.10632 0.16531304,0.16531304 0 0 0 -0.0327,0.10226 c 3.87106,7.51026 13.86594,9.18794 19.97694,3.35339 a 0.16532957,0.16532957 0 0 0 -0.20764,-0.25596 c -2.81814,1.933 -6.67389,2.50001 -10.33566,1.88535 -3.66177,-0.61465 -7.12126,-2.40956 -9.15391,-5.15681 a 0.16531304,0.16531304 0 0 0 -0.10837,-0.0652 z m 1.07042,1.63283 c 2.11543,2.04956 5.05238,3.39738 8.13713,3.91518 3.08475,0.5178 6.30063,0.20284 8.96925,-1.04369 -5.49853,3.91151 -13.18633,2.62106 -17.10638,-2.87149 z m -1.09491,-1.46933 c 4.13082,5.58302 13.98876,7.23775 19.71588,3.30946 -6.03453,5.76154 -15.89327,4.10681 -19.71588,-3.30946 M 608.01807,78.742416 v 27.202514 h 1.19128 V 78.742416 Z M 274.97035,9.2458378 V 36.448658 h 1.19128 V 9.2458378 Z m 404.83852,0 V 36.448658 H 681 V 9.2458378 Z M 337.70293,78.742416 v 27.202514 h 1.19113 V 78.742416 Z M 388.02937,9.2458378 V 36.448658 h 1.19113 V 9.2458378 Z m 182.12125,0 V 36.448658 h 1.19128 V 9.2458378 Z M 677.35954,78.742416 v 27.202514 h 3.64015 V 78.742416 Z m -3.63967,0 V 105.94493 H 674.911 V 78.742416 Z M 104.35932,9.2458378 V 36.448658 h 1.19128 V 9.2458378 Z M 214.86848,78.742416 v 27.202514 h 1.19127 V 78.742416 Z m 235.81092,0 v 27.202514 h 1.19113 V 78.742416 Z M 0,105.21693 v 0.72769 h 681 v -0.72769 z m 0,-6.618121 v 0.727681 h 681 v -0.727681 z m 0,-6.618902 v 0.727682 h 681 v -0.727682 z m 0,-6.619054 v 0.727842 h 681 v -0.727842 z m 0,-6.618901 v 0.727681 H 681 V 78.741952 Z M 0,35.720656 v 0.727689 h 681 v -0.727689 z m 0,-6.618269 v 0.727841 h 681 v -0.727841 z m 0,-6.61906 v 0.727685 h 681 v -0.727685 z m 0,-6.618588 v 0.727684 H 681 V 15.864739 Z M 0,9.2459947 V 9.9736795 H 681 V 9.2459947 Z"
     style="stroke-width:0.0800547" />
  <metadata
     id="metadata135">
    <rdf:RDF>
      <cc:Work
         rdf:about="">
        <dc:title>air_XLIV</dc:title>
      </cc:Work>
    </rdf:RDF>
  </metadata>
</svg>
