<?xml version="1.0" encoding="UTF-8" standalone="no"?>
<svg width="210.058mm" height="296.926mm" viewBox="0 0 9924 14028"
 xmlns="http://www.w3.org/2000/svg" xmlns:xlink="http://www.w3.org/1999/xlink" version="1.2" baseProfile="full">
<title>air_XXV</title>
<desc>Generated by MuseScore Studio 4.7.3</desc>
<polyline class="StaffLines" fill="none" stroke="#000000" stroke-width="9.09" stroke-linejoin="bevel" points="708.661,828.424 9215.34,828.424" />
<polyline class="StaffLines" fill="none" stroke="#000000" stroke-width="9.09" stroke-linejoin="bevel" points="708.661,911.101 9215.34,911.101" />
<polyline class="StaffLines" fill="none" stroke="#000000" stroke-width="9.09" stroke-linejoin="bevel" points="708.661,993.778 9215.34,993.778" />
<polyline class="StaffLines" fill="none" stroke="#000000" stroke-width="9.09" stroke-linejoin="bevel" points="708.661,1076.46 9215.34,1076.46" />
<polyline class="StaffLines" fill="none" stroke="#000000" stroke-width="9.09" stroke-linejoin="bevel" points="708.661,1159.13 9215.34,1159.13" />
<polyline class="StaffLines" fill="none" stroke="#000000" stroke-width="9.09" stroke-linejoin="bevel" points="708.661,1696.53 9215.34,1696.53" />
<polyline class="StaffLines" fill="none" stroke="#000000" stroke-width="9.09" stroke-linejoin="bevel" points="708.661,1779.21 9215.34,1779.21" />
<polyline class="StaffLines" fill="none" stroke="#000000" stroke-width="9.09" stroke-linejoin="bevel" points="708.661,1861.89 9215.34,1861.89" />
<polyline class="StaffLines" fill="none" stroke="#000000" stroke-width="9.09" stroke-linejoin="bevel" points="708.661,1944.57 9215.34,1944.57" />
<polyline class="StaffLines" fill="none" stroke="#000000" stroke-width="9.09" stroke-linejoin="bevel" points="708.661,2027.24 9215.34,2027.24" />
<polyline class="BarLine" fill="none" stroke="#000000" stroke-width="14.88" stroke-linejoin="bevel" points="4240.29,823.876 4240.29,1163.68" />
<polyline class="BarLine" fill="none" stroke="#000000" stroke-width="14.88" stroke-linejoin="bevel" points="7765.96,1691.99 7765.96,2031.79" />
<polyline class="BarLine" fill="none" stroke="#000000" stroke-width="14.88" stroke-linejoin="bevel" points="6051.29,1691.99 6051.29,2031.79" />
<polyline class="BarLine" fill="none" stroke="#000000" stroke-width="14.88" stroke-linejoin="bevel" points="4493.46,1691.99 4493.46,2031.79" />
<polyline class="BarLine" fill="none" stroke="#000000" stroke-width="14.88" stroke-linejoin="bevel" points="2778.79,1691.99 2778.79,2031.79" />
<polyline class="BarLine" fill="none" stroke="#000000" stroke-width="14.88" stroke-linejoin="bevel" points="9207.9,823.876 9207.9,1163.68" />
<polyline class="BarLine" fill="none" stroke="#000000" stroke-width="14.88" stroke-linejoin="bevel" points="2767.96,823.876 2767.96,1163.68" />
<polyline class="BarLine" fill="none" stroke="#000000" stroke-width="14.88" stroke-linejoin="bevel" points="9131.84,1691.99 9131.84,2031.79" />
<polyline class="BarLine" fill="none" stroke="#000000" stroke-width="45.47" stroke-linejoin="bevel" points="9192.6,1691.99 9192.6,2031.79" />
<polyline class="BarLine" fill="none" stroke="#000000" stroke-width="14.88" stroke-linejoin="bevel" points="7735.58,823.876 7735.58,1163.68" />
<polyline class="BarLine" fill="none" stroke="#000000" stroke-width="45.47" stroke-linejoin="bevel" points="7093.97,823.876 7093.97,1163.68" />
<polyline class="BarLine" fill="none" stroke="#000000" stroke-width="14.88" stroke-linejoin="bevel" points="7154.73,823.876 7154.73,1163.68" />
<path class="BarLine" d="M7227.19,952.439 C7227.19,942.84 7219.57,934.896 7209.97,934.896 C7200.38,934.896 7192.76,942.84 7192.76,952.439 C7192.76,962.038 7200.38,969.982 7209.97,969.982 C7219.57,969.982 7227.19,962.038 7227.19,952.439"/>
<path class="BarLine" d="M7227.19,1035.12 C7227.19,1025.52 7219.57,1017.57 7209.97,1017.57 C7200.38,1017.57 7192.76,1025.52 7192.76,1035.12 C7192.76,1044.72 7200.38,1052.66 7209.97,1052.66 C7219.57,1052.66 7227.19,1044.72 7227.19,1035.12"/>
<path class="BarLine" d="M6995.19,952.439 C6995.19,942.84 6987.58,934.896 6977.98,934.896 C6968.38,934.896 6960.77,942.84 6960.77,952.439 C6960.77,962.038 6968.38,969.982 6977.98,969.982 C6987.58,969.982 6995.19,962.038 6995.19,952.439"/>
<path class="BarLine" d="M6995.19,1035.12 C6995.19,1025.52 6987.58,1017.57 6977.98,1017.57 C6968.38,1017.57 6960.77,1025.52 6960.77,1035.12 C6960.77,1044.72 6968.38,1052.66 6977.98,1052.66 C6987.58,1052.66 6995.19,1044.72 6995.19,1035.12"/>
<polyline class="BarLine" fill="none" stroke="#000000" stroke-width="14.88" stroke-linejoin="bevel" points="7033.2,823.876 7033.2,1163.68" />
<polyline class="BarLine" fill="none" stroke="#000000" stroke-width="45.47" stroke-linejoin="bevel" points="7093.97,823.876 7093.97,1163.68" />
<polyline class="BarLine" fill="none" stroke="#000000" stroke-width="14.88" stroke-linejoin="bevel" points="5770.23,823.876 5770.23,1163.68" />
<path class="Accidental" d="M8501.97,886.607 L8531.43,880.649 L8531.43,935.264 L8501.97,941.553 L8501.97,886.607 M8553.28,876.346 C8555.26,876.015 8556.92,873.698 8556.92,871.712 L8556.92,852.183 C8556.92,849.535 8554.93,847.549 8552.28,847.549 L8551.62,847.549 L8540.7,849.866 L8540.7,800.547 L8531.43,800.547 L8531.43,851.852 L8501.97,857.81 L8501.97,811.139 L8492.7,811.139 L8492.7,859.796 L8479.79,862.444 C8477.81,862.775 8476.15,865.092 8476.15,867.078 L8476.15,886.276 C8476.15,888.924 8478.14,890.91 8480.79,890.91 L8481.78,890.91 L8492.7,888.593 L8492.7,943.208 L8479.79,945.856 C8477.81,946.187 8476.15,948.504 8476.15,950.49 L8476.15,969.688 C8476.15,972.336 8478.14,974.322 8480.79,974.322 L8481.78,974.322 L8492.7,972.005 L8492.7,1021.32 L8501.97,1021.32 L8501.97,970.019 L8531.43,964.061 L8531.43,1010.73 L8540.7,1010.73 L8540.7,962.075 L8553.28,959.758 C8555.26,959.427 8556.92,957.11 8556.92,955.124 L8556.92,935.595 C8556.92,932.947 8554.93,930.961 8552.28,930.961 L8551.62,930.961 L8540.7,933.278 L8540.7,878.663 L8553.28,876.346 "/>
<polyline class="Stem" fill="none" stroke="#000000" stroke-width="8.27" stroke-linejoin="bevel" points="8795.86,2014.01 8795.86,1737.87" />
<polyline class="Stem" fill="none" stroke="#000000" stroke-width="8.27" stroke-linejoin="bevel" points="2240.93,1063.23 2240.93,787.085" />
<polyline class="Stem" fill="none" stroke="#000000" stroke-width="8.27" stroke-linejoin="bevel" points="4087.02,1104.57 4087.02,828.424" />
<polyline class="Stem" fill="none" stroke="#000000" stroke-width="8.27" stroke-linejoin="bevel" points="8603.92,2014.01 8603.92,1778.78" />
<polyline class="Stem" fill="none" stroke="#000000" stroke-width="8.27" stroke-linejoin="bevel" points="4454.42,1063.23 4454.42,787.085" />
<polyline class="Stem" fill="none" stroke="#000000" stroke-width="8.27" stroke-linejoin="bevel" points="8411.97,1972.68 8411.97,1758.97" />
<polyline class="Stem" fill="none" stroke="#000000" stroke-width="8.27" stroke-linejoin="bevel" points="7980.09,1931.34 7980.09,1655.2" />
<polyline class="Stem" fill="none" stroke="#000000" stroke-width="8.27" stroke-linejoin="bevel" points="1866.98,2014.01 1866.98,1737.87" />
<polyline class="Stem" fill="none" stroke="#000000" stroke-width="8.27" stroke-linejoin="bevel" points="4770.29,1021.89 4770.29,767.077" />
<polyline class="Stem" fill="none" stroke="#000000" stroke-width="8.27" stroke-linejoin="bevel" points="8332.48,883.652 8332.48,1159.13" />
<polyline class="Stem" fill="none" stroke="#000000" stroke-width="8.27" stroke-linejoin="bevel" points="4894.81,1007.67 4894.81,1241.81" />
<polyline class="Stem" fill="none" stroke="#000000" stroke-width="8.27" stroke-linejoin="bevel" points="8581.66,924.991 8581.66,1200.47" />
<polyline class="Stem" fill="none" stroke="#000000" stroke-width="8.27" stroke-linejoin="bevel" points="5143.99,883.652 5143.99,1159.13" />
<polyline class="Stem" fill="none" stroke="#000000" stroke-width="8.27" stroke-linejoin="bevel" points="7474.73,1875.78 7474.73,2109.92" />
<polyline class="Stem" fill="none" stroke="#000000" stroke-width="8.27" stroke-linejoin="bevel" points="5517.75,1007.67 5517.75,1241.81" />
<polyline class="Stem" fill="none" stroke="#000000" stroke-width="8.27" stroke-linejoin="bevel" points="7042.85,1751.76 7042.85,2027.24" />
<polyline class="Stem" fill="none" stroke="#000000" stroke-width="8.27" stroke-linejoin="bevel" points="3713.26,1145.9 3713.26,869.762" />
<polyline class="Stem" fill="none" stroke="#000000" stroke-width="8.27" stroke-linejoin="bevel" points="6754.93,1875.78 6754.93,2109.92" />
<polyline class="Stem" fill="none" stroke="#000000" stroke-width="8.27" stroke-linejoin="bevel" points="5984.36,1063.23 5984.36,787.085" />
<polyline class="Stem" fill="none" stroke="#000000" stroke-width="8.27" stroke-linejoin="bevel" points="6630.41,1890 6630.41,1635.19" />
<polyline class="Stem" fill="none" stroke="#000000" stroke-width="8.27" stroke-linejoin="bevel" points="6358.12,1104.57 6358.12,890.922" />
<polyline class="Stem" fill="none" stroke="#000000" stroke-width="8.27" stroke-linejoin="bevel" points="2614.69,1021.89 2614.69,766.416" />
<polyline class="Stem" fill="none" stroke="#000000" stroke-width="8.27" stroke-linejoin="bevel" points="6265.42,1931.34 6265.42,1655.2" />
<polyline class="Stem" fill="none" stroke="#000000" stroke-width="8.27" stroke-linejoin="bevel" points="6524.24,1145.9 6524.24,910.611" />
<polyline class="Stem" fill="none" stroke="#000000" stroke-width="8.27" stroke-linejoin="bevel" points="1618,1063.23 1618,787.085" />
<polyline class="Stem" fill="none" stroke="#000000" stroke-width="8.27" stroke-linejoin="bevel" points="6690.36,1145.9 6690.36,869.762" />
<polyline class="Stem" fill="none" stroke="#000000" stroke-width="8.27" stroke-linejoin="bevel" points="5859.27,1972.68 5859.27,1696.53" />
<polyline class="Stem" fill="none" stroke="#000000" stroke-width="8.27" stroke-linejoin="bevel" points="3364.87,1007.67 3364.87,1241.81" />
<polyline class="Stem" fill="none" stroke="#000000" stroke-width="8.27" stroke-linejoin="bevel" points="5427.39,1890 5427.39,1634.53" />
<polyline class="Stem" fill="none" stroke="#000000" stroke-width="8.27" stroke-linejoin="bevel" points="3198.75,966.329 3198.75,1220.81" />
<polyline class="Stem" fill="none" stroke="#000000" stroke-width="8.27" stroke-linejoin="bevel" points="7334.64,883.652 7334.64,1096.63" />
<polyline class="Stem" fill="none" stroke="#000000" stroke-width="8.27" stroke-linejoin="bevel" points="5040.26,1875.78 5040.26,2109.92" />
<polyline class="Stem" fill="none" stroke="#000000" stroke-width="8.27" stroke-linejoin="bevel" points="4608.38,1793.1 4608.38,2068.58" />
<polyline class="Stem" fill="none" stroke="#000000" stroke-width="8.27" stroke-linejoin="bevel" points="7500.76,842.313 7500.76,1076.95" />
<polyline class="Stem" fill="none" stroke="#000000" stroke-width="8.27" stroke-linejoin="bevel" points="1991.76,1145.9 1991.76,869.762" />
<polyline class="Stem" fill="none" stroke="#000000" stroke-width="8.27" stroke-linejoin="bevel" points="2154.9,2014.01 2154.9,1737.87" />
<polyline class="Stem" fill="none" stroke="#000000" stroke-width="8.27" stroke-linejoin="bevel" points="4202.24,1875.78 4202.24,2109.92" />
<polyline class="Stem" fill="none" stroke="#000000" stroke-width="8.27" stroke-linejoin="bevel" points="7850.5,800.975 7850.5,1076.46" />
<polyline class="Stem" fill="none" stroke="#000000" stroke-width="8.27" stroke-linejoin="bevel" points="3770.36,1793.1 3770.36,2068.58" />
<polyline class="Stem" fill="none" stroke="#000000" stroke-width="8.27" stroke-linejoin="bevel" points="3482.44,1875.78 3482.44,2109.92" />
<polyline class="Stem" fill="none" stroke="#000000" stroke-width="8.27" stroke-linejoin="bevel" points="8955.42,883.652 8955.42,1159.13" />
<polyline class="Stem" fill="none" stroke="#000000" stroke-width="8.27" stroke-linejoin="bevel" points="8166.37,842.313 8166.37,1117.46" />
<polyline class="Stem" fill="none" stroke="#000000" stroke-width="8.27" stroke-linejoin="bevel" points="3357.91,1890 3357.91,1635.19" />
<polyline class="Stem" fill="none" stroke="#000000" stroke-width="8.27" stroke-linejoin="bevel" points="2586.78,1972.68 2586.78,1696.53" />
<polyline class="Stem" fill="none" stroke="#000000" stroke-width="8.27" stroke-linejoin="bevel" points="2882.88,1007.67 2882.88,1241.81" />
<polyline class="Stem" fill="none" stroke="#000000" stroke-width="8.27" stroke-linejoin="bevel" points="2992.93,1931.34 2992.93,1655.2" />
<polyline class="Stem" fill="none" stroke="#000000" stroke-width="8.27" stroke-linejoin="bevel" points="1335.89,1751.76 1335.89,2027.24" />
<path class="Hook" d="M3353.78,1709.66 C3353.78,1710.66 3354.11,1712.31 3356.43,1713.3 C3370.66,1717.94 3399.13,1735.81 3420.64,1772.55 C3426.6,1782.81 3436.2,1797.05 3436.2,1824.52 C3436.2,1848.35 3429.91,1872.85 3421.3,1896.68 C3420.64,1898.66 3419.98,1900.32 3420.31,1901.64 C3420.31,1903.63 3421.63,1904.95 3423.62,1904.95 C3425.94,1904.95 3427.59,1903.63 3428.92,1901.31 C3443.81,1874.83 3449.44,1844.05 3449.44,1813.93 C3447.78,1771.23 3423.29,1739.78 3423.29,1739.78 C3424.28,1739.78 3392.84,1699.07 3383.9,1685.17 C3371.65,1666.3 3366.03,1647.44 3365.36,1646.11 C3365.03,1645.12 3362.05,1633.2 3362.05,1633.2 C3361.72,1631.88 3360.07,1630.55 3358.08,1630.55 C3355.76,1630.55 3353.78,1632.54 3353.78,1634.86 L3353.78,1709.66 "/>
<path class="Hook" d="M8162.24,1117.46 C8162.24,1119.78 8164.22,1121.77 8166.54,1121.77 C8168.19,1121.77 8170.18,1120.44 8170.51,1119.12 C8170.51,1118.79 8173.49,1107.2 8173.82,1106.21 C8174.15,1104.88 8177.13,1092.31 8189.05,1072.78 C8201.96,1051.26 8221.82,1035.71 8238.37,1012.54 C8254.58,989.366 8264.51,967.52 8264.51,938.392 C8264.51,908.271 8257.56,883.115 8240.02,851.008 C8239.03,848.691 8237.04,847.367 8235.06,847.367 C8234.39,847.367 8233.73,847.367 8233.4,847.698 C8231.75,848.36 8231.08,849.684 8231.08,851.67 C8231.08,852.663 8231.41,854.318 8232.08,855.642 C8245.32,886.425 8250.61,903.968 8250.61,927.8 C8250.61,955.273 8241.01,969.506 8235.06,979.767 C8213.54,1016.51 8178.79,1034.38 8164.88,1039.02 C8162.57,1040.01 8162.24,1041.66 8162.24,1042.66 L8162.24,1117.46 "/>
<path class="Hook" d="M3194.62,1220.81 C3194.62,1223.13 3196.61,1225.11 3198.92,1225.11 C3200.58,1225.11 3202.56,1223.79 3202.9,1222.46 C3202.9,1222.13 3205.87,1210.55 3206.21,1209.56 C3206.54,1208.23 3209.52,1195.65 3221.43,1176.12 C3234.34,1154.61 3254.2,1139.05 3270.75,1115.88 C3286.97,1092.71 3296.9,1070.87 3296.9,1041.74 C3296.9,1011.62 3289.95,986.461 3272.41,954.354 C3271.41,952.037 3269.43,950.713 3267.44,950.713 C3266.78,950.713 3266.12,950.713 3265.79,951.044 C3264.13,951.706 3263.47,953.03 3263.47,955.016 C3263.47,956.009 3263.8,957.664 3264.46,958.988 C3277.7,989.771 3283,1007.31 3283,1031.15 C3283,1058.62 3273.4,1072.85 3267.44,1083.11 C3245.93,1119.85 3211.17,1137.73 3197.27,1142.36 C3194.95,1143.36 3194.62,1145.01 3194.62,1146 L3194.62,1220.81 "/>
<path class="Hook" d="M6626.27,1709.66 C6626.27,1710.66 6626.61,1712.31 6628.92,1713.3 C6643.16,1717.94 6671.62,1735.81 6693.14,1772.55 C6699.09,1782.81 6708.69,1797.05 6708.69,1824.52 C6708.69,1848.35 6702.4,1872.85 6693.8,1896.68 C6693.14,1898.66 6692.47,1900.32 6692.81,1901.64 C6692.81,1903.63 6694.13,1904.95 6696.12,1904.95 C6698.43,1904.95 6700.09,1903.63 6701.41,1901.31 C6716.31,1874.83 6721.93,1844.05 6721.93,1813.93 C6720.28,1771.23 6695.78,1739.78 6695.78,1739.78 C6696.78,1739.78 6665.33,1699.07 6656.4,1685.17 C6644.15,1666.3 6638.52,1647.44 6637.86,1646.11 C6637.53,1645.12 6634.55,1633.2 6634.55,1633.2 C6634.22,1631.88 6632.56,1630.55 6630.58,1630.55 C6628.26,1630.55 6626.27,1632.54 6626.27,1634.86 L6626.27,1709.66 "/>
<path class="Hook" d="M4766.16,841.553 C4766.16,842.546 4766.49,844.201 4768.8,845.194 C4783.04,849.828 4811.5,867.702 4833.02,904.443 C4838.98,914.704 4848.58,928.937 4848.58,956.41 C4848.58,980.242 4842.29,1004.74 4833.68,1028.57 C4833.02,1030.55 4832.36,1032.21 4832.69,1033.53 C4832.69,1035.52 4834.01,1036.84 4836,1036.84 C4838.31,1036.84 4839.97,1035.52 4841.29,1033.2 C4856.19,1006.72 4861.82,975.939 4861.82,945.818 C4860.16,903.119 4835.67,871.674 4835.67,871.674 C4836.66,871.674 4805.21,830.961 4796.28,817.059 C4784.03,798.192 4778.4,779.325 4777.74,778.001 C4777.41,777.008 4774.43,765.092 4774.43,765.092 C4774.1,763.768 4772.45,762.444 4770.46,762.444 C4768.14,762.444 4766.16,764.43 4766.16,766.747 L4766.16,841.553 "/>
<path class="Note" d="M3983.67,1131.7 C3983.67,1145.93 3993.93,1161.82 4020.74,1161.82 C4055.17,1161.82 4091.25,1133.68 4091.25,1104.55 C4091.25,1085.02 4074.7,1074.1 4054.17,1074.1 C4022.07,1074.1 3983.67,1101.24 3983.67,1131.7"/>
<path class="Note" d="M5164.68,898.228 C5153.76,898.228 5151.44,889.291 5151.44,886.312 C5151.44,870.093 5207.05,841.627 5222.6,841.627 C5230.55,841.627 5235.84,846.261 5235.84,853.543 C5235.84,870.093 5179.9,898.228 5164.68,898.228 M5210.36,826.07 C5178.25,826.07 5139.85,852.881 5139.85,883.664 C5139.85,897.897 5150.11,913.785 5176.93,913.785 C5211.35,913.785 5247.43,885.65 5247.43,856.522 C5247.43,836.993 5230.88,826.07 5210.36,826.07"/>
<path class="Note" d="M8500.57,2041.14 C8500.57,2055.38 8510.83,2071.27 8537.64,2071.27 C8572.07,2071.27 8608.15,2043.13 8608.15,2014 C8608.15,1994.47 8591.6,1983.55 8571.07,1983.55 C8538.97,1983.55 8500.57,2010.69 8500.57,2041.14"/>
<path class="Note" d="M1356.58,1766.34 C1345.65,1766.34 1343.34,1757.4 1343.34,1754.42 C1343.34,1738.2 1398.95,1709.74 1414.5,1709.74 C1422.45,1709.74 1427.74,1714.37 1427.74,1721.65 C1427.74,1738.2 1371.8,1766.34 1356.58,1766.34 M1402.26,1694.18 C1370.15,1694.18 1331.75,1720.99 1331.75,1751.77 C1331.75,1766.01 1342.01,1781.9 1368.82,1781.9 C1403.25,1781.9 1439.33,1753.76 1439.33,1724.63 C1439.33,1705.1 1422.78,1694.18 1402.26,1694.18"/>
<path class="Note" d="M2162.41,1104.92 C2151.49,1104.92 2149.17,1095.98 2149.17,1093.01 C2149.17,1076.79 2204.78,1048.32 2220.34,1048.32 C2228.28,1048.32 2233.58,1052.95 2233.58,1060.24 C2233.58,1076.79 2177.64,1104.92 2162.41,1104.92 M2208.09,1032.76 C2175.98,1032.76 2137.59,1059.57 2137.59,1090.36 C2137.59,1104.59 2147.85,1120.48 2174.66,1120.48 C2209.08,1120.48 2245.16,1092.34 2245.16,1063.22 C2245.16,1043.69 2228.61,1032.76 2208.09,1032.76"/>
<path class="Note" d="M1763.63,2041.14 C1763.63,2055.38 1773.89,2071.27 1800.7,2071.27 C1835.13,2071.27 1871.21,2043.13 1871.21,2014 C1871.21,1994.47 1854.66,1983.55 1834.14,1983.55 C1802.03,1983.55 1763.63,2010.69 1763.63,2041.14"/>
<path class="Note" d="M8951.29,883.664 C8951.29,897.897 8961.55,913.785 8988.36,913.785 C9022.78,913.785 9058.86,885.65 9058.86,856.522 C9058.86,836.993 9042.31,826.07 9021.79,826.07 C8989.68,826.07 8951.29,853.212 8951.29,883.664"/>
<path class="Note" d="M2076.38,2055.71 C2065.45,2055.71 2063.14,2046.77 2063.14,2043.79 C2063.14,2027.57 2118.74,1999.11 2134.3,1999.11 C2142.25,1999.11 2147.54,2003.74 2147.54,2011.02 C2147.54,2027.57 2091.6,2055.71 2076.38,2055.71 M2122.05,1983.55 C2089.95,1983.55 2051.55,2010.36 2051.55,2041.14 C2051.55,2055.38 2061.81,2071.27 2088.62,2071.27 C2123.05,2071.27 2159.13,2043.13 2159.13,2014 C2159.13,1994.47 2142.58,1983.55 2122.05,1983.55"/>
<path class="Note" d="M2511.35,1049.02 C2511.35,1063.25 2521.61,1079.14 2548.42,1079.14 C2582.84,1079.14 2618.92,1051 2618.92,1021.88 C2618.92,1002.35 2602.37,991.425 2581.85,991.425 C2549.74,991.425 2511.35,1018.57 2511.35,1049.02"/>
<path class="Note" d="M2483.43,1999.81 C2483.43,2014.04 2493.69,2029.93 2520.5,2029.93 C2554.93,2029.93 2591.01,2001.79 2591.01,1972.66 C2591.01,1953.14 2574.46,1942.21 2553.93,1942.21 C2521.83,1942.21 2483.43,1969.35 2483.43,1999.81"/>
<path class="Note" d="M8602.35,939.567 C8591.43,939.567 8589.11,930.63 8589.11,927.651 C8589.11,911.432 8644.72,882.966 8660.27,882.966 C8668.22,882.966 8673.51,887.6 8673.51,894.882 C8673.51,911.432 8617.58,939.567 8602.35,939.567 M8648.03,867.409 C8615.92,867.409 8577.52,894.22 8577.52,925.003 C8577.52,939.236 8587.79,955.124 8614.6,955.124 C8649.02,955.124 8685.1,926.989 8685.1,897.861 C8685.1,878.332 8668.55,867.409 8648.03,867.409"/>
<path class="Note" d="M1888.41,1173.03 C1888.41,1187.27 1898.67,1203.16 1925.49,1203.16 C1959.91,1203.16 1995.99,1175.02 1995.99,1145.89 C1995.99,1126.36 1979.44,1115.44 1958.92,1115.44 C1926.81,1115.44 1888.41,1142.58 1888.41,1173.03"/>
<path class="Note" d="M8717.34,2055.71 C8706.42,2055.71 8704.1,2046.77 8704.1,2043.79 C8704.1,2027.57 8759.71,1999.11 8775.27,1999.11 C8783.21,1999.11 8788.51,2003.74 8788.51,2011.02 C8788.51,2027.57 8732.57,2055.71 8717.34,2055.71 M8763.02,1983.55 C8730.91,1983.55 8692.52,2010.36 8692.52,2041.14 C8692.52,2055.38 8702.78,2071.27 8729.59,2071.27 C8764.01,2071.27 8800.09,2043.13 8800.09,2014 C8800.09,1994.47 8783.54,1983.55 8763.02,1983.55"/>
<path class="Note" d="M2889.58,1958.47 C2889.58,1972.7 2899.84,1988.59 2926.65,1988.59 C2961.07,1988.59 2997.15,1960.45 2997.15,1931.33 C2997.15,1911.8 2980.6,1900.87 2960.08,1900.87 C2927.97,1900.87 2889.58,1928.02 2889.58,1958.47"/>
<path class="Note" d="M3634.74,1187.6 C3623.81,1187.6 3621.5,1178.66 3621.5,1175.68 C3621.5,1159.46 3677.1,1131 3692.66,1131 C3700.6,1131 3705.9,1135.63 3705.9,1142.91 C3705.9,1159.46 3649.96,1187.6 3634.74,1187.6 M3680.41,1115.44 C3648.31,1115.44 3609.91,1142.25 3609.91,1173.03 C3609.91,1187.27 3620.17,1203.16 3646.98,1203.16 C3681.41,1203.16 3717.49,1175.02 3717.49,1145.89 C3717.49,1126.36 3700.94,1115.44 3680.41,1115.44"/>
<path class="Note" d="M2878.75,1007.68 C2878.75,1021.91 2889.01,1037.8 2915.82,1037.8 C2950.25,1037.8 2986.32,1009.67 2986.32,980.538 C2986.32,961.009 2969.77,950.086 2949.25,950.086 C2917.15,950.086 2878.75,977.228 2878.75,1007.68"/>
<path class="Note" d="M8162.24,842.326 C8162.24,856.559 8172.5,872.447 8199.31,872.447 C8233.73,872.447 8269.81,844.312 8269.81,815.184 C8269.81,795.655 8253.26,784.732 8232.74,784.732 C8200.63,784.732 8162.24,811.874 8162.24,842.326"/>
<path class="Note" d="M3254.57,1917.13 C3254.57,1931.36 3264.83,1947.25 3291.64,1947.25 C3326.06,1947.25 3362.14,1919.11 3362.14,1889.99 C3362.14,1870.46 3345.59,1859.53 3325.07,1859.53 C3292.96,1859.53 3254.57,1886.68 3254.57,1917.13"/>
<path class="Note" d="M8308.62,1999.81 C8308.62,2014.04 8318.89,2029.93 8345.7,2029.93 C8380.12,2029.93 8416.2,2001.79 8416.2,1972.66 C8416.2,1953.14 8399.65,1942.21 8379.13,1942.21 C8347.02,1942.21 8308.62,1969.35 8308.62,1999.81"/>
<path class="Note" d="M3478.3,1875.79 C3478.3,1890.02 3488.56,1905.91 3515.37,1905.91 C3549.8,1905.91 3585.88,1877.78 3585.88,1848.65 C3585.88,1829.12 3569.33,1818.2 3548.81,1818.2 C3516.7,1818.2 3478.3,1845.34 3478.3,1875.79"/>
<path class="Note" d="M7846.36,800.987 C7846.36,815.22 7856.63,831.108 7883.44,831.108 C7917.86,831.108 7953.94,802.973 7953.94,773.845 C7953.94,754.316 7937.39,743.393 7916.87,743.393 C7884.76,743.393 7846.36,770.535 7846.36,800.987"/>
<path class="Note" d="M3791.05,1807.68 C3780.12,1807.68 3777.81,1798.74 3777.81,1795.76 C3777.81,1779.54 3833.41,1751.08 3848.97,1751.08 C3856.92,1751.08 3862.21,1755.71 3862.21,1762.99 C3862.21,1779.54 3806.27,1807.68 3791.05,1807.68 M3836.72,1735.52 C3804.62,1735.52 3766.22,1762.33 3766.22,1793.11 C3766.22,1807.35 3776.48,1823.23 3803.29,1823.23 C3837.72,1823.23 3873.8,1795.1 3873.8,1765.97 C3873.8,1746.44 3857.25,1735.52 3836.72,1735.52"/>
<path class="Note" d="M4351.07,1090.36 C4351.07,1104.59 4361.33,1120.48 4388.15,1120.48 C4422.57,1120.48 4458.65,1092.34 4458.65,1063.22 C4458.65,1043.69 4442.1,1032.76 4421.58,1032.76 C4389.47,1032.76 4351.07,1059.91 4351.07,1090.36"/>
<path class="Note" d="M4198.1,1875.79 C4198.1,1890.02 4208.36,1905.91 4235.17,1905.91 C4269.6,1905.91 4305.68,1877.78 4305.68,1848.65 C4305.68,1829.12 4289.13,1818.2 4268.6,1818.2 C4236.5,1818.2 4198.1,1845.34 4198.1,1875.79"/>
<path class="Note" d="M7496.63,842.326 C7496.63,856.559 7506.89,872.447 7533.7,872.447 C7568.12,872.447 7604.2,844.312 7604.2,815.184 C7604.2,795.655 7587.65,784.732 7567.13,784.732 C7535.02,784.732 7496.63,811.874 7496.63,842.326"/>
<path class="Note" d="M1539.48,1104.92 C1528.55,1104.92 1526.24,1095.98 1526.24,1093.01 C1526.24,1076.79 1581.85,1048.32 1597.4,1048.32 C1605.35,1048.32 1610.64,1052.95 1610.64,1060.24 C1610.64,1076.79 1554.7,1104.92 1539.48,1104.92 M1585.16,1032.76 C1553.05,1032.76 1514.65,1059.57 1514.65,1090.36 C1514.65,1104.59 1524.91,1120.48 1551.72,1120.48 C1586.15,1120.48 1622.23,1092.34 1622.23,1063.22 C1622.23,1043.69 1605.68,1032.76 1585.16,1032.76"/>
<path class="Note" d="M7901.57,1973.03 C7890.65,1973.03 7888.33,1964.09 7888.33,1961.12 C7888.33,1944.9 7943.94,1916.43 7959.5,1916.43 C7967.44,1916.43 7972.74,1921.06 7972.74,1928.35 C7972.74,1944.9 7916.8,1973.03 7901.57,1973.03 M7947.25,1900.87 C7915.14,1900.87 7876.75,1927.68 7876.75,1958.47 C7876.75,1972.7 7887.01,1988.59 7913.82,1988.59 C7948.24,1988.59 7984.32,1960.45 7984.32,1931.33 C7984.32,1911.8 7967.77,1900.87 7947.25,1900.87"/>
<path class="Note" d="M4629.07,1807.68 C4618.15,1807.68 4615.83,1798.74 4615.83,1795.76 C4615.83,1779.54 4671.44,1751.08 4687,1751.08 C4694.94,1751.08 4700.24,1755.71 4700.24,1762.99 C4700.24,1779.54 4644.3,1807.68 4629.07,1807.68 M4674.75,1735.52 C4642.65,1735.52 4604.25,1762.33 4604.25,1793.11 C4604.25,1807.35 4614.51,1823.23 4641.32,1823.23 C4675.75,1823.23 4711.82,1795.1 4711.82,1765.97 C4711.82,1746.44 4695.27,1735.52 4674.75,1735.52"/>
<path class="Note" d="M7330.51,883.664 C7330.51,897.897 7340.77,913.785 7367.58,913.785 C7402.01,913.785 7438.09,885.65 7438.09,856.522 C7438.09,836.993 7421.54,826.07 7401.01,826.07 C7368.91,826.07 7330.51,853.212 7330.51,883.664"/>
<path class="Note" d="M5036.13,1875.79 C5036.13,1890.02 5046.39,1905.91 5073.2,1905.91 C5107.62,1905.91 5143.7,1877.78 5143.7,1848.65 C5143.7,1829.12 5127.15,1818.2 5106.63,1818.2 C5074.52,1818.2 5036.13,1845.34 5036.13,1875.79"/>
<path class="Note" d="M3194.62,966.341 C3194.62,980.574 3204.88,996.462 3231.69,996.462 C3266.12,996.462 3302.2,968.327 3302.2,939.199 C3302.2,919.67 3285.65,908.747 3265.12,908.747 C3233.02,908.747 3194.62,935.889 3194.62,966.341"/>
<path class="Note" d="M5348.87,1931.69 C5337.95,1931.69 5335.63,1922.76 5335.63,1919.78 C5335.63,1903.56 5391.24,1875.09 5406.8,1875.09 C5414.74,1875.09 5420.04,1879.73 5420.04,1887.01 C5420.04,1903.56 5364.1,1931.69 5348.87,1931.69 M5394.55,1859.53 C5362.44,1859.53 5324.05,1886.35 5324.05,1917.13 C5324.05,1931.36 5334.31,1947.25 5361.12,1947.25 C5395.54,1947.25 5431.62,1919.11 5431.62,1889.99 C5431.62,1870.46 5415.07,1859.53 5394.55,1859.53"/>
<path class="Note" d="M6611.83,1187.6 C6600.91,1187.6 6598.59,1178.66 6598.59,1175.68 C6598.59,1159.46 6654.2,1131 6669.76,1131 C6677.7,1131 6683,1135.63 6683,1142.91 C6683,1159.46 6627.06,1187.6 6611.83,1187.6 M6657.51,1115.44 C6625.41,1115.44 6587.01,1142.25 6587.01,1173.03 C6587.01,1187.27 6597.27,1203.16 6624.08,1203.16 C6658.51,1203.16 6694.58,1175.02 6694.58,1145.89 C6694.58,1126.36 6678.03,1115.44 6657.51,1115.44"/>
<path class="Note" d="M5755.93,1999.81 C5755.93,2014.04 5766.19,2029.93 5793,2029.93 C5827.42,2029.93 5863.5,2001.79 5863.5,1972.66 C5863.5,1953.14 5846.95,1942.21 5826.43,1942.21 C5794.32,1942.21 5755.93,1969.35 5755.93,1999.81"/>
<path class="Note" d="M6420.89,1173.03 C6420.89,1187.27 6431.15,1203.16 6457.97,1203.16 C6492.39,1203.16 6528.47,1175.02 6528.47,1145.89 C6528.47,1126.36 6511.92,1115.44 6491.4,1115.44 C6459.29,1115.44 6420.89,1142.58 6420.89,1173.03"/>
<path class="Note" d="M4666.94,1049.02 C4666.94,1063.25 4677.2,1079.14 4704.02,1079.14 C4738.44,1079.14 4774.52,1051 4774.52,1021.88 C4774.52,1002.35 4757.97,991.425 4737.45,991.425 C4705.34,991.425 4666.94,1018.57 4666.94,1049.02"/>
<path class="Note" d="M4890.68,1007.68 C4890.68,1021.91 4900.94,1037.8 4927.75,1037.8 C4962.18,1037.8 4998.25,1009.67 4998.25,980.538 C4998.25,961.009 4981.7,950.086 4961.18,950.086 C4929.08,950.086 4890.68,977.228 4890.68,1007.68"/>
<path class="Note" d="M6162.07,1958.47 C6162.07,1972.7 6172.34,1988.59 6199.15,1988.59 C6233.57,1988.59 6269.65,1960.45 6269.65,1931.33 C6269.65,1911.8 6253.1,1900.87 6232.58,1900.87 C6200.47,1900.87 6162.07,1928.02 6162.07,1958.47"/>
<path class="Note" d="M7470.6,1875.79 C7470.6,1890.02 7480.86,1905.91 7507.67,1905.91 C7542.09,1905.91 7578.17,1877.78 7578.17,1848.65 C7578.17,1829.12 7561.62,1818.2 7541.1,1818.2 C7508.99,1818.2 7470.6,1845.34 7470.6,1875.79"/>
<path class="Note" d="M6254.78,1131.7 C6254.78,1145.93 6265.04,1161.82 6291.85,1161.82 C6326.27,1161.82 6362.35,1133.68 6362.35,1104.55 C6362.35,1085.02 6345.8,1074.1 6325.28,1074.1 C6293.17,1074.1 6254.78,1101.24 6254.78,1131.7"/>
<path class="Note" d="M5905.84,1104.92 C5894.92,1104.92 5892.6,1095.98 5892.6,1093.01 C5892.6,1076.79 5948.21,1048.32 5963.77,1048.32 C5971.71,1048.32 5977.01,1052.95 5977.01,1060.24 C5977.01,1076.79 5921.07,1104.92 5905.84,1104.92 M5951.52,1032.76 C5919.41,1032.76 5881.02,1059.57 5881.02,1090.36 C5881.02,1104.59 5891.28,1120.48 5918.09,1120.48 C5952.51,1120.48 5988.59,1092.34 5988.59,1063.22 C5988.59,1043.69 5972.04,1032.76 5951.52,1032.76"/>
<path class="Note" d="M6527.06,1917.13 C6527.06,1931.36 6537.32,1947.25 6564.13,1947.25 C6598.56,1947.25 6634.64,1919.11 6634.64,1889.99 C6634.64,1870.46 6618.09,1859.53 6597.57,1859.53 C6565.46,1859.53 6527.06,1886.68 6527.06,1917.13"/>
<path class="Note" d="M3360.74,1007.68 C3360.74,1021.91 3371,1037.8 3397.81,1037.8 C3432.23,1037.8 3468.31,1009.67 3468.31,980.538 C3468.31,961.009 3451.76,950.086 3431.24,950.086 C3399.13,950.086 3360.74,977.228 3360.74,1007.68"/>
<path class="Note" d="M6750.8,1875.79 C6750.8,1890.02 6761.06,1905.91 6787.87,1905.91 C6822.29,1905.91 6858.37,1877.78 6858.37,1848.65 C6858.37,1829.12 6841.82,1818.2 6821.3,1818.2 C6789.19,1818.2 6750.8,1845.34 6750.8,1875.79"/>
<path class="Note" d="M5513.61,1007.68 C5513.61,1021.91 5523.88,1037.8 5550.69,1037.8 C5585.11,1037.8 5621.19,1009.67 5621.19,980.538 C5621.19,961.009 5604.64,950.086 5584.12,950.086 C5552.01,950.086 5513.61,977.228 5513.61,1007.68"/>
<path class="Note" d="M7063.54,1766.34 C7052.62,1766.34 7050.3,1757.4 7050.3,1754.42 C7050.3,1738.2 7105.91,1709.74 7121.47,1709.74 C7129.41,1709.74 7134.71,1714.37 7134.71,1721.65 C7134.71,1738.2 7078.77,1766.34 7063.54,1766.34 M7109.22,1694.18 C7077.11,1694.18 7038.72,1720.99 7038.72,1751.77 C7038.72,1766.01 7048.98,1781.9 7075.79,1781.9 C7110.21,1781.9 7146.29,1753.76 7146.29,1724.63 C7146.29,1705.1 7129.74,1694.18 7109.22,1694.18"/>
<path class="Note" d="M8328.35,883.664 C8328.35,897.897 8338.61,913.785 8365.42,913.785 C8399.85,913.785 8435.93,885.65 8435.93,856.522 C8435.93,836.993 8419.38,826.07 8398.85,826.07 C8366.75,826.07 8328.35,853.212 8328.35,883.664"/>
<path class="Clef" d="M909.689,2012.75 C903.069,2014.08 896.78,2014.74 890.491,2014.74 C843.158,2014.74 802.776,1981.64 802.776,1931.66 C802.776,1891.27 831.242,1855.2 860.37,1830.04 C865.997,1825.07 871.293,1820.44 876.258,1815.48 C879.237,1833.35 881.554,1848.91 883.871,1862.48 C853.75,1871.41 833.228,1903.19 833.228,1934.3 C833.228,1957.47 851.433,1989.25 877.913,1989.25 C880.561,1989.25 883.54,1987.93 883.54,1984.95 C883.54,1981.97 880.23,1980.31 876.258,1977.67 C863.349,1969.72 856.067,1961.12 856.067,1944.9 C856.067,1924.71 870.962,1908.49 890.491,1903.85 L909.689,2012.75 M880.561,1672.48 C883.54,1659.24 898.766,1624.49 915.978,1624.49 C920.943,1624.49 928.887,1640.71 928.887,1663.55 C928.887,1697.97 903.4,1723.79 880.561,1746.3 C878.575,1733.06 876.92,1720.15 876.92,1706.25 C876.92,1694 877.913,1682.74 880.561,1672.48 M956.691,1951.52 C956.691,1975.02 947.092,1999.18 923.591,2008.78 C916.64,1969.06 907.703,1916.43 905.386,1901.87 C935.176,1901.87 956.691,1922.06 956.691,1951.52 M811.051,2114.37 C811.051,2136.21 827.932,2165.01 872.617,2165.01 C888.174,2165.01 901.745,2161.04 913.661,2153.76 C931.535,2141.18 936.169,2119.33 936.169,2098.48 C936.169,2085.57 934.183,2070.68 930.873,2051.81 C929.88,2045.19 927.894,2035.26 925.908,2022.35 C958.346,2011.76 982.509,1978 982.509,1943.9 C982.509,1893.92 947.092,1860.16 898.766,1860.16 C895.456,1840.3 892.146,1820.77 889.167,1802.24 C924.253,1765.49 948.416,1724.12 948.416,1671.49 C948.416,1641.37 939.148,1616.88 933.852,1604.96 C925.908,1588.08 916.309,1576.49 910.351,1576.49 C908.034,1576.49 897.773,1580.47 886.85,1593.37 C865.666,1618.53 859.708,1660.9 859.708,1688.7 C859.708,1706.58 861.363,1722.8 866.99,1759.87 C866.659,1760.2 849.447,1777.74 842.496,1783.37 C812.375,1811.5 770.669,1851.55 770.669,1917.75 C770.669,1979.65 824.622,2028.31 886.188,2028.31 C895.787,2028.31 904.724,2027.32 912.337,2025.99 C918.626,2057.77 922.267,2080.94 922.267,2098.48 C922.267,2132.9 904.724,2151.11 871.293,2151.11 C863.349,2151.11 856.398,2149.45 855.736,2149.45 C855.405,2149.12 854.743,2148.79 854.743,2148.46 C854.743,2147.8 855.405,2147.47 856.398,2147.14 C871.955,2144.82 887.512,2131.58 887.512,2110.4 C887.512,2092.52 873.941,2073.66 849.116,2073.66 C825.946,2073.66 811.051,2092.52 811.051,2114.37"/>
<path class="Clef" d="M909.689,1144.64 C903.069,1145.97 896.78,1146.63 890.491,1146.63 C843.158,1146.63 802.776,1113.53 802.776,1063.55 C802.776,1023.16 831.242,987.085 860.37,961.929 C865.997,956.964 871.293,952.33 876.258,947.365 C879.237,965.239 881.554,980.796 883.871,994.367 C853.75,1003.3 833.228,1035.08 833.228,1066.19 C833.228,1089.36 851.433,1121.14 877.913,1121.14 C880.561,1121.14 883.54,1119.82 883.54,1116.84 C883.54,1113.86 880.23,1112.2 876.258,1109.56 C863.349,1101.61 856.067,1093.01 856.067,1076.79 C856.067,1056.6 870.962,1040.38 890.491,1035.74 L909.689,1144.64 M880.561,804.373 C883.54,791.133 898.766,756.378 915.978,756.378 C920.943,756.378 928.887,772.597 928.887,795.436 C928.887,829.86 903.4,855.678 880.561,878.186 C878.575,864.946 876.92,852.037 876.92,838.135 C876.92,825.888 877.913,814.634 880.561,804.373 M956.691,1083.41 C956.691,1106.91 947.092,1131.07 923.591,1140.67 C916.64,1100.95 907.703,1048.32 905.386,1033.76 C935.176,1033.76 956.691,1053.95 956.691,1083.41 M811.051,1246.26 C811.051,1268.1 827.932,1296.9 872.617,1296.9 C888.174,1296.9 901.745,1292.93 913.661,1285.65 C931.535,1273.07 936.169,1251.22 936.169,1230.37 C936.169,1217.46 934.183,1202.57 930.873,1183.7 C929.88,1177.08 927.894,1167.15 925.908,1154.24 C958.346,1143.65 982.509,1109.89 982.509,1075.79 C982.509,1025.81 947.092,992.05 898.766,992.05 C895.456,972.19 892.146,952.661 889.167,934.125 C924.253,897.384 948.416,856.009 948.416,803.38 C948.416,773.259 939.148,748.765 933.852,736.849 C925.908,719.968 916.309,708.383 910.351,708.383 C908.034,708.383 897.773,712.355 886.85,725.264 C865.666,750.42 859.708,792.788 859.708,820.592 C859.708,838.466 861.363,854.685 866.99,891.757 C866.659,892.088 849.447,909.631 842.496,915.258 C812.375,943.393 770.669,983.444 770.669,1049.64 C770.669,1111.54 824.622,1160.2 886.188,1160.2 C895.787,1160.2 904.724,1159.21 912.337,1157.88 C918.626,1189.66 922.267,1212.83 922.267,1230.37 C922.267,1264.79 904.724,1283 871.293,1283 C863.349,1283 856.398,1281.34 855.736,1281.34 C855.405,1281.01 854.743,1280.68 854.743,1280.35 C854.743,1279.69 855.405,1279.36 856.398,1279.03 C871.955,1276.71 887.512,1263.47 887.512,1242.29 C887.512,1224.41 873.941,1205.55 849.116,1205.55 C825.946,1205.55 811.051,1224.41 811.051,1246.26"/>
<path class="KeySig" d="M1070.17,803.93 L1099.63,797.972 L1099.63,852.587 L1070.17,858.876 L1070.17,803.93 M1121.48,793.669 C1123.47,793.338 1125.12,791.021 1125.12,789.035 L1125.12,769.506 C1125.12,766.858 1123.13,764.872 1120.49,764.872 L1119.82,764.872 L1108.9,767.189 L1108.9,717.87 L1099.63,717.87 L1099.63,769.175 L1070.17,775.133 L1070.17,728.462 L1060.91,728.462 L1060.91,777.119 L1048,779.767 C1046.01,780.098 1044.36,782.415 1044.36,784.401 L1044.36,803.599 C1044.36,806.247 1046.34,808.233 1048.99,808.233 L1049.98,808.233 L1060.91,805.916 L1060.91,860.531 L1048,863.179 C1046.01,863.51 1044.36,865.827 1044.36,867.813 L1044.36,887.011 C1044.36,889.659 1046.34,891.645 1048.99,891.645 L1049.98,891.645 L1060.91,889.328 L1060.91,938.647 L1070.17,938.647 L1070.17,887.342 L1099.63,881.384 L1099.63,928.055 L1108.9,928.055 L1108.9,879.398 L1121.48,877.081 C1123.47,876.75 1125.12,874.433 1125.12,872.447 L1125.12,852.918 C1125.12,850.27 1123.13,848.284 1120.49,848.284 L1119.82,848.284 L1108.9,850.601 L1108.9,795.986 L1121.48,793.669 "/>
<path class="KeySig" d="M1070.17,1672.04 L1099.63,1666.08 L1099.63,1720.7 L1070.17,1726.99 L1070.17,1672.04 M1121.48,1661.78 C1123.47,1661.45 1125.12,1659.13 1125.12,1657.14 L1125.12,1637.62 C1125.12,1634.97 1123.13,1632.98 1120.49,1632.98 L1119.82,1632.98 L1108.9,1635.3 L1108.9,1585.98 L1099.63,1585.98 L1099.63,1637.28 L1070.17,1643.24 L1070.17,1596.57 L1060.91,1596.57 L1060.91,1645.23 L1048,1647.88 C1046.01,1648.21 1044.36,1650.52 1044.36,1652.51 L1044.36,1671.71 C1044.36,1674.36 1046.34,1676.34 1048.99,1676.34 L1049.98,1676.34 L1060.91,1674.03 L1060.91,1728.64 L1048,1731.29 C1046.01,1731.62 1044.36,1733.94 1044.36,1735.92 L1044.36,1755.12 C1044.36,1757.77 1046.34,1759.75 1048.99,1759.75 L1049.98,1759.75 L1060.91,1757.44 L1060.91,1806.76 L1070.17,1806.76 L1070.17,1755.45 L1099.63,1749.49 L1099.63,1796.16 L1108.9,1796.16 L1108.9,1747.51 L1121.48,1745.19 C1123.47,1744.86 1125.12,1742.54 1125.12,1740.56 L1125.12,1721.03 C1125.12,1718.38 1123.13,1716.39 1120.49,1716.39 L1119.82,1716.39 L1108.9,1718.71 L1108.9,1664.1 L1121.48,1661.78 "/>
<path class="TimeSig" d="M1281.87,979.772 C1270.94,979.772 1262.01,964.877 1262.01,946.341 C1262.01,927.805 1270.94,912.579 1281.87,912.579 C1292.79,912.579 1302.06,927.805 1302.06,946.341 C1302.06,964.877 1292.79,979.772 1281.87,979.772 M1294.11,897.022 C1273.92,897.022 1266.64,902.98 1262.01,907.945 C1261.01,900.994 1260.35,895.698 1260.35,890.402 C1260.35,871.535 1266.97,847.041 1290.14,847.041 C1298.42,847.041 1303.38,849.689 1306.69,853.33 C1299.74,856.309 1294.11,865.246 1294.11,872.859 C1294.11,884.775 1303.38,894.043 1315.3,894.043 C1327.21,894.043 1336.81,884.775 1336.81,872.859 L1336.81,871.866 C1336.81,868.887 1336.15,863.922 1334.83,861.274 C1330.52,849.358 1316.62,831.815 1283.52,831.815 C1253.73,831.815 1232.22,860.281 1225.6,875.507 C1222.29,883.451 1217.32,899.67 1217.32,918.206 C1217.32,938.397 1222.95,961.236 1242.48,978.448 C1261.68,993.012 1273.92,993.674 1285.51,993.674 C1297.09,993.674 1340.45,980.103 1340.45,941.707 C1340.45,909.269 1314.97,897.022 1294.11,897.022"/>
<path class="TimeSig" d="M1271.95,1118.01 L1271.95,1142.5 L1244.48,1142.5 C1242.16,1142.5 1239.85,1144.49 1239.85,1147.13 L1239.85,1153.42 C1239.85,1156.07 1242.16,1158.06 1244.48,1158.06 L1344.77,1158.06 C1347.42,1158.06 1349.41,1156.07 1349.41,1153.42 L1349.41,1147.13 C1349.41,1144.49 1347.42,1142.5 1344.77,1142.5 L1314.98,1142.5 L1314.98,1118.01 L1344.77,1118.01 C1347.42,1118.01 1349.41,1115.69 1349.41,1113.04 L1349.41,1106.75 C1349.41,1104.44 1347.42,1102.12 1344.77,1102.12 L1314.98,1102.12 L1314.98,1049.49 C1314.98,1047.5 1313.99,1045.85 1312.67,1045.19 L1308.7,1043.2 C1308.03,1042.87 1307.7,1042.87 1307.04,1042.87 C1305.72,1042.87 1304.39,1042.87 1303.4,1043.86 L1273.28,1071.34 C1272.29,1072.33 1271.95,1073.65 1271.95,1074.98 L1271.95,1102.12 L1233.56,1102.12 C1233.56,1102.12 1270.63,1062.4 1309.69,1010.1 C1311.01,1008.45 1311.34,1006.79 1311.34,1005.47 C1311.34,1003.81 1310.68,1002.49 1310.35,1002.16 L1303.07,994.874 C1302.08,994.212 1301.08,993.55 1299.76,993.55 C1297.77,993.55 1253.09,993.55 1250.44,993.55 C1248.12,993.55 1246.47,995.536 1246.14,997.522 C1246.14,997.522 1244.48,1022.02 1235.88,1048.83 C1227.27,1075.64 1217.34,1092.19 1208.73,1104.44 C1208.73,1104.44 1207.74,1106.09 1207.74,1108.08 C1207.74,1108.74 1207.74,1109.4 1208.07,1110.06 C1209.06,1112.38 1211.38,1116.02 1211.38,1116.02 C1211.38,1116.02 1212.04,1118.01 1215.02,1118.01 L1271.95,1118.01 "/>
<path class="Beam" fill-rule="evenodd" d="M6353.99,869.618 L6528.37,890.287 L6528.37,931.915 L6353.99,911.246 L6353.99,869.618 "/>
<path class="Beam" fill-rule="evenodd" d="M7330.51,1076.31 L7504.89,1055.64 L7504.89,1097.27 L7330.51,1117.94 L7330.51,1076.31 "/>
<path class="Beam" fill-rule="evenodd" d="M8407.84,1737.76 L8608.05,1758.43 L8608.05,1799.99 L8407.84,1779.32 L8407.84,1737.76 "/>
<path class="NoteDot" d="M6310.91,1903.23 C6310.91,1912.49 6318.19,1919.78 6327.46,1919.78 C6336.73,1919.78 6344.01,1912.49 6344.01,1903.23 C6344.01,1893.96 6336.73,1886.68 6327.46,1886.68 C6318.19,1886.68 6310.91,1893.96 6310.91,1903.23"/>
<path class="NoteDot" d="M4499.91,1035.12 C4499.91,1044.38 4507.19,1051.67 4516.46,1051.67 C4525.72,1051.67 4533.01,1044.38 4533.01,1035.12 C4533.01,1025.85 4525.72,1018.57 4516.46,1018.57 C4507.19,1018.57 4499.91,1025.85 4499.91,1035.12"/>
<path class="NoteDot" d="M3027.58,952.439 C3027.58,961.707 3034.86,968.989 3044.13,968.989 C3053.4,968.989 3060.68,961.707 3060.68,952.439 C3060.68,943.171 3053.4,935.889 3044.13,935.889 C3034.86,935.889 3027.58,943.171 3027.58,952.439"/>
<path class="NoteDot" d="M7995.2,787.085 C7995.2,796.353 8002.48,803.635 8011.75,803.635 C8021.01,803.635 8028.3,796.353 8028.3,787.085 C8028.3,777.817 8021.01,770.535 8011.75,770.535 C8002.48,770.535 7995.2,777.817 7995.2,787.085"/>
<path class="NoteDot" d="M3038.41,1903.23 C3038.41,1912.49 3045.69,1919.78 3054.96,1919.78 C3064.23,1919.78 3071.51,1912.49 3071.51,1903.23 C3071.51,1893.96 3064.23,1886.68 3054.96,1886.68 C3045.69,1886.68 3038.41,1893.96 3038.41,1903.23"/>
</svg>
