<?xml version="1.0" encoding="utf-8"?>
<svg xmlns="http://www.w3.org/2000/svg" xmlns:svg="http://www.w3.org/2000/svg" version="1.1" viewBox="0 0 681 187">
	<title>A score 3 staves long in 3/4 time, in the key of G Major.</title>
	<path d="M609.495 165.15c0 .742.583 1.324 1.325 1.324s1.325-.582 1.325-1.325c0-.742-.583-1.324-1.325-1.324s-1.325.582-1.325 1.324m-236.39-76.115c0 .742.583 1.325 1.325 1.325.743 0 1.325-.583 1.325-1.325s-.582-1.325-1.325-1.325c-.742 0-1.325.583-1.325 1.325m257.778-62.877c0 .741.582 1.325 1.324 1.325s1.325-.584 1.325-1.325c0-.742-.582-1.325-1.325-1.325-.742 0-1.324.583-1.324 1.325M313.296 12.919c0 .742.583 1.325 1.325 1.325s1.325-.583 1.325-1.325-.583-1.325-1.325-1.325-1.325.583-1.325 1.325m10.617 62.871 17.884 1.655v3.323l-17.884-1.655zm182.825 26.475 17.884 1.655v3.323l-17.884-1.655zm-225.21 4.963 17.883 1.655v3.324l-17.883-1.655zm-26.502-33.093 17.884-1.654v3.323l-17.884 1.654zm-103.515 28.13 17.884 1.655v3.323l-17.884-1.655zm394.807 43.025 25.532 1.654v3.317l-25.532-1.655zM49.88 176.73l25.533 1.654v3.316l-25.533-1.655zm438.754 0 25.532 1.654v3.316l-25.532-1.655zm34.008-143.96 18.034 1.654v3.323l-18.034-1.654zM305.078 171.764l25.532 1.655v3.317l-25.532-1.655zm141.759-28.13 25.532-1.654v3.317l-25.532 1.654zM45.094 32.793v1.96h-2.2c-.185 0-.37.16-.37.37v.504c0 .212.185.372.37.372h8.03c.212 0 .371-.16.371-.372v-.503c0-.212-.16-.37-.371-.37h-2.385v-1.961h2.385c.212 0 .371-.186.371-.398v-.504a.38.38 0 0 0-.371-.37h-2.385v-4.214c0-.16-.08-.291-.185-.344l-.318-.16c-.054-.026-.08-.026-.133-.026-.106 0-.212 0-.291.08l-2.412 2.2a.4.4 0 0 0-.106.29v2.174h-3.073s2.967-3.18 6.094-7.367a.58.58 0 0 0 .132-.37.44.44 0 0 0-.079-.266l-.583-.583c-.079-.053-.159-.106-.265-.106h-3.948c-.186 0-.318.159-.344.318 0 0-.133 1.961-.822 4.107s-1.484 3.472-2.173 4.452c0 0-.08.132-.08.292 0 .052 0 .105.027.158.08.186.265.477.265.477s.053.16.292.16zm2.741-16.83c2.12-.822 2.252-2.2 2.252-2.677v-.132c0-.239-.08-3.233-4.637-3.233-4.558 0-4.425 3.233-4.425 3.233h.026l-.026.053c0 .954.768 1.696 1.722 1.696s1.696-.742 1.696-1.696c0-.769-.583-1.51-1.325-1.67l.08-.08c.37-.264.874-.397 1.377-.397 1.113 0 2.306.663 2.306 2.094 0 1.67-1.246 1.908-1.564 1.96-.317.054-1.802.16-2.12.16-.317 0-.344.37-.344.37v.53s.053.292.345.319c.45.026 1.06.026 1.907.159 1.167.159 1.776.953 1.776 2.808 0 1.776-1.193 2.253-2.306 2.253-.742 0-1.43-.212-1.722-.424.874-.053 1.59-.822 1.59-1.696 0-.954-.742-1.723-1.696-1.723s-1.722.769-1.722 1.723c0 2.173 1.987 3.26 3.948 3.26 2.543 0 5.3-.875 5.3-3.764 0-1.934-1.325-2.755-2.492-3.126zM28.941 7.649l2.358-.477v4.372l-2.358.504zm4.107-.821c.16-.027.292-.212.292-.371V4.893a.36.36 0 0 0-.371-.37h-.054l-.874.185V.759H31.3v4.108l-2.358.477V1.607h-.742v3.896l-1.033.212c-.16.026-.292.212-.292.37v1.537c0 .212.159.371.371.371h.08l.874-.185v4.372l-1.033.212c-.16.027-.292.212-.292.371V14.3c0 .212.159.371.371.371h.08l.874-.185v3.948h.742v-4.107l2.358-.477v3.736h.742V13.69l1.007-.186c.16-.026.292-.212.292-.37V11.57a.36.36 0 0 0-.371-.371h-.054l-.874.185V7.013zm-4.107 139.814 2.358-.477v4.372l-2.358.504zm4.107-.82c.16-.027.292-.213.292-.371v-1.564a.363.363 0 0 0-.371-.371h-.054l-.874.185v-3.948H31.3v4.108l-2.358.476V140.6h-.742v3.895l-1.033.212c-.16.027-.292.213-.292.371v1.537c0 .212.159.37.371.37h.08l.874-.184v4.372l-1.033.212c-.16.026-.292.212-.292.37v1.538c0 .212.159.371.371.371h.08l.874-.186v3.949h.742v-4.108l2.358-.477v3.737h.742v-3.896l1.007-.185c.16-.027.292-.213.292-.371v-1.563a.363.363 0 0 0-.371-.372h-.054l-.874.186v-4.372zm-4.107-68.675 2.358-.477v4.373l-2.358.503zm4.107-.821c.16-.026.292-.212.292-.372V74.39a.363.363 0 0 0-.371-.372h-.054l-.874.186v-3.948H31.3v4.107l-2.358.477v-3.736h-.742v3.895l-1.033.212c-.16.027-.292.212-.292.37v1.538c0 .212.159.37.371.37h.08l.874-.184v4.371l-1.033.213c-.16.026-.292.212-.292.37v1.537c0 .212.159.37.371.37h.08l.874-.184v3.948h.742v-4.107l2.358-.477v3.736h.742v-3.895l1.007-.186c.16-.026.292-.212.292-.37v-1.564a.363.363 0 0 0-.371-.371h-.054l-.874.185V76.51zm-16.955-41.4a7.7 7.7 0 0 1-1.537.16c-3.789 0-7.022-2.65-7.022-6.651 0-3.234 2.28-6.122 4.611-8.135.45-.398.875-.769 1.272-1.166.238 1.43.424 2.676.61 3.762-2.412.716-4.055 3.26-4.055 5.75 0 1.855 1.458 4.4 3.577 4.4.212 0 .451-.107.451-.345 0-.239-.265-.372-.583-.583-1.033-.636-1.616-1.325-1.616-2.623 0-1.617 1.192-2.915 2.755-3.287zm-2.332-27.24c.239-1.06 1.458-3.842 2.836-3.842.397 0 1.033 1.299 1.033 3.127 0 2.756-2.04 4.823-3.869 6.625-.159-1.06-.291-2.094-.291-3.207 0-.98.08-1.881.291-2.703m6.095 22.339c0 1.881-.768 3.815-2.65 4.584a882 882 0 0 1-1.457-8.559c2.385 0 4.107 1.616 4.107 3.975M8.196 43.06c0 1.748 1.352 4.054 4.93 4.054 1.245 0 2.331-.318 3.285-.901 1.431-1.007 1.802-2.756 1.802-4.425 0-1.034-.159-2.226-.424-3.737-.08-.53-.238-1.325-.397-2.358 2.597-.848 4.53-3.55 4.53-6.28 0-4.001-2.834-6.704-6.703-6.704-.265-1.59-.53-3.153-.769-4.637 2.81-2.942 4.744-6.254 4.744-10.467 0-2.411-.742-4.372-1.166-5.326C17.392.927 16.623 0 16.146 0c-.185 0-1.007.318-1.881 1.351-1.696 2.014-2.173 5.406-2.173 7.632 0 1.43.133 2.73.583 5.697-.026.026-1.404 1.43-1.96 1.881-2.412 2.253-5.75 5.459-5.75 10.758 0 4.956 4.318 8.851 9.247 8.851.768 0 1.484-.08 2.093-.186.504 2.545.795 4.4.795 5.804 0 2.755-1.404 4.213-4.08 4.213-.636 0-1.193-.133-1.246-.133-.026-.026-.08-.053-.08-.08 0-.052.054-.079.133-.105 1.246-.186 2.49-1.246 2.49-2.941 0-1.432-1.085-2.941-3.073-2.941-1.855 0-3.047 1.51-3.047 3.259m7.896 130.857a7.7 7.7 0 0 1-1.537.16c-3.789 0-7.022-2.65-7.022-6.652 0-3.233 2.28-6.12 4.611-8.135.45-.398.875-.768 1.272-1.165.238 1.43.424 2.676.61 3.762-2.412.715-4.055 3.26-4.055 5.75 0 1.855 1.458 4.399 3.577 4.399.212 0 .451-.106.451-.344 0-.239-.265-.372-.583-.583-1.033-.637-1.616-1.325-1.616-2.624 0-1.616 1.192-2.914 2.755-3.286zm-2.332-27.24c.239-1.06 1.458-3.842 2.836-3.842.397 0 1.033 1.299 1.033 3.127 0 2.755-2.04 4.822-3.869 6.624-.159-1.06-.291-2.093-.291-3.206 0-.98.08-1.882.291-2.703m6.095 22.338c0 1.882-.768 3.816-2.65 4.584a882 882 0 0 1-1.457-8.558c2.385 0 4.107 1.616 4.107 3.974m-11.66 13.037c0 1.749 1.352 4.054 4.93 4.054 1.245 0 2.331-.318 3.285-.9 1.431-1.007 1.802-2.757 1.802-4.426 0-1.033-.159-2.225-.424-3.736-.08-.53-.238-1.325-.397-2.358 2.597-.848 4.53-3.55 4.53-6.28 0-4.002-2.834-6.704-6.703-6.704-.265-1.59-.53-3.154-.769-4.637 2.81-2.942 4.744-6.254 4.744-10.467 0-2.412-.742-4.372-1.166-5.326-.636-1.352-1.405-2.28-1.882-2.28-.185 0-1.007.319-1.881 1.352-1.696 2.014-2.173 5.406-2.173 7.631 0 1.432.133 2.73.583 5.698-.026.026-1.404 1.43-1.96 1.881-2.412 2.252-5.75 5.458-5.75 10.758 0 4.955 4.318 8.85 9.247 8.85.768 0 1.484-.079 2.093-.185.504 2.544.795 4.399.795 5.803 0 2.756-1.404 4.213-4.08 4.213-.636 0-1.193-.132-1.246-.132-.026-.027-.08-.053-.08-.08 0-.053.054-.079.133-.105 1.246-.186 2.49-1.246 2.49-2.942 0-1.431-1.085-2.94-3.073-2.94-1.855 0-3.047 1.509-3.047 3.258m7.896-77.631a7.7 7.7 0 0 1-1.537.159c-3.789 0-7.022-2.65-7.022-6.65 0-3.234 2.28-6.122 4.611-8.136.45-.398.875-.769 1.272-1.166.238 1.43.424 2.677.61 3.763-2.412.715-4.055 3.259-4.055 5.75 0 1.854 1.458 4.398 3.577 4.398.212 0 .451-.105.451-.344 0-.238-.265-.371-.583-.583-1.033-.636-1.616-1.325-1.616-2.623 0-1.616 1.192-2.915 2.755-3.286zm-2.332-27.24c.239-1.06 1.458-3.842 2.836-3.842.397 0 1.033 1.298 1.033 3.127 0 2.755-2.04 4.822-3.869 6.624-.159-1.06-.291-2.093-.291-3.206 0-.98.08-1.882.291-2.703m6.095 22.338c0 1.881-.768 3.815-2.65 4.584a882 882 0 0 1-1.457-8.559c2.385 0 4.107 1.617 4.107 3.975m-11.66 13.037c0 1.748 1.352 4.054 4.93 4.054 1.245 0 2.331-.318 3.285-.9 1.431-1.008 1.802-2.757 1.802-4.426 0-1.034-.159-2.226-.424-3.736-.08-.53-.238-1.325-.397-2.359 2.597-.847 4.53-3.55 4.53-6.28 0-4.001-2.834-6.704-6.703-6.704-.265-1.59-.53-3.153-.769-4.637 2.81-2.942 4.744-6.253 4.744-10.467 0-2.411-.742-4.372-1.166-5.326-.636-1.351-1.405-2.279-1.882-2.279-.185 0-1.007.319-1.881 1.351-1.696 2.015-2.173 5.406-2.173 7.632 0 1.431.133 2.73.583 5.698-.026.026-1.404 1.43-1.96 1.88-2.412 2.253-5.75 5.459-5.75 10.759 0 4.955 4.318 8.85 9.247 8.85.768 0 1.484-.079 2.093-.185.504 2.544.795 4.399.795 5.803 0 2.755-1.404 4.213-4.08 4.213-.636 0-1.193-.133-1.246-.133-.026-.026-.08-.053-.08-.08 0-.052.054-.078.133-.105 1.246-.185 2.49-1.245 2.49-2.941 0-1.431-1.085-2.941-3.073-2.941-1.855 0-3.047 1.51-3.047 3.259M471.44 86.838c0 1.14.821 2.41 2.968 2.41 2.756 0 5.644-2.251 5.644-4.583 0-1.564-1.325-2.438-2.968-2.438-2.57 0-5.644 2.173-5.644 4.61M360.395 17.342c0 1.14.822 2.412 2.968 2.412 2.755 0 5.644-2.253 5.644-4.584 0-1.564-1.325-2.438-2.968-2.438-2.57 0-5.644 2.173-5.644 4.61m26.058-9.928c0 1.14.821 2.412 2.968 2.412 2.756 0 5.644-2.253 5.644-4.584 0-1.564-1.325-2.438-2.968-2.438-2.57 0-5.644 2.173-5.644 4.61m5.671 155.54c0 1.139.821 2.411 2.968 2.411 2.756 0 5.644-2.252 5.644-4.584 0-1.563-1.325-2.438-2.968-2.438-2.57 0-5.644 2.173-5.644 4.61m20.387-145.61c0 1.139.821 2.41 2.967 2.41 2.757 0 5.645-2.252 5.645-4.583 0-1.564-1.325-2.438-2.968-2.438-2.57 0-5.644 2.173-5.644 4.61m-57.692 142.302c0 1.14.82 2.412 2.967 2.412 2.756 0 5.645-2.252 5.645-4.584 0-1.564-1.325-2.438-2.968-2.438-2.57 0-5.644 2.173-5.644 4.61M450.02 15.198a.99.99 0 0 1-1.06-.954c0-1.298 4.451-3.577 5.697-3.577.636 0 1.06.37 1.06.954 0 1.325-4.478 3.577-5.697 3.577m3.656-5.777c-2.57 0-5.643 2.147-5.643 4.611 0 1.14.82 2.411 2.967 2.411 2.756 0 5.645-2.252 5.645-4.584 0-1.563-1.325-2.438-2.969-2.438M329.95 156.334c0 1.14.821 2.411 2.967 2.411 2.756 0 5.644-2.252 5.644-4.584 0-1.563-1.325-2.438-2.967-2.438-2.57 0-5.644 2.173-5.644 4.61M487.12 17.342c0 1.14.822 2.412 2.968 2.412 2.756 0 5.645-2.253 5.645-4.584 0-1.564-1.325-2.438-2.968-2.438-2.57 0-5.645 2.173-5.645 4.61m-183.752 1.166a.99.99 0 0 1-1.06-.954c0-1.298 4.452-3.577 5.698-3.577.635 0 1.06.371 1.06.954 0 1.325-4.479 3.577-5.698 3.577m3.657-5.776c-2.57 0-5.644 2.146-5.644 4.61 0 1.14.822 2.412 2.968 2.412 2.755 0 5.644-2.253 5.644-4.584 0-1.564-1.325-2.438-2.968-2.438m-1.947 140.293c0 1.14.822 2.412 2.968 2.412 2.756 0 5.644-2.252 5.644-4.584 0-1.564-1.324-2.438-2.968-2.438-2.57 0-5.644 2.173-5.644 4.61M522.643 14.032c0 1.14.821 2.411 2.968 2.411 2.756 0 5.644-2.252 5.644-4.584 0-1.563-1.325-2.438-2.967-2.438-2.571 0-5.645 2.173-5.645 4.611m-58.879 148.92c0 1.14.822 2.412 2.968 2.412 2.756 0 5.645-2.252 5.645-4.584 0-1.563-1.325-2.438-2.968-2.438-2.57 0-5.645 2.173-5.645 4.61m76.25-145.61c0 1.139.822 2.41 2.97 2.41 2.755 0 5.643-2.252 5.643-4.583 0-1.564-1.325-2.438-2.968-2.438-2.57 0-5.644 2.173-5.644 4.61M258.309 149.716c0 1.139.821 2.411 2.967 2.411 2.756 0 5.644-2.253 5.644-4.585 0-1.562-1.325-2.437-2.968-2.437-2.57 0-5.643 2.172-5.643 4.61M557.387 20.652c0 1.14.821 2.411 2.968 2.411 2.756 0 5.644-2.252 5.644-4.584 0-1.563-1.325-2.438-2.968-2.438-2.57 0-5.644 2.173-5.644 4.61M221.003 146.407c0 1.14.821 2.412 2.968 2.412 2.755 0 5.644-2.253 5.644-4.584 0-1.564-1.325-2.439-2.968-2.439-2.57 0-5.644 2.174-5.644 4.611M583.445 23.96c0 1.14.822 2.411 2.968 2.411 2.755 0 5.644-2.252 5.644-4.584 0-1.563-1.325-2.438-2.968-2.438-2.57 0-5.644 2.173-5.644 4.611M183.698 156.334c0 1.14.82 2.411 2.967 2.411 2.756 0 5.644-2.252 5.644-4.584 0-1.563-1.325-2.437-2.968-2.437-2.57 0-5.643 2.172-5.643 4.61M620.955 28.435a.99.99 0 0 1-1.06-.953c0-1.299 4.452-3.578 5.697-3.578.636 0 1.06.372 1.06.954 0 1.325-4.478 3.577-5.697 3.577m3.657-5.776c-2.57 0-5.645 2.147-5.645 4.61 0 1.14.822 2.412 2.969 2.412 2.755 0 5.643-2.253 5.643-4.584 0-1.564-1.324-2.438-2.967-2.438m-369.795-.842a.99.99 0 0 1-1.06-.954c0-1.299 4.452-3.578 5.697-3.578.636 0 1.06.371 1.06.954 0 1.325-4.478 3.578-5.697 3.578m3.657-5.777c-2.571 0-5.644 2.146-5.644 4.61 0 1.14.821 2.412 2.967 2.412 2.756 0 5.644-2.252 5.644-4.584 0-1.563-1.325-2.438-2.967-2.438m230.16 143.603c0 1.14.822 2.412 2.969 2.412 2.755 0 5.643-2.252 5.643-4.584 0-1.564-1.325-2.438-2.967-2.438-2.57 0-5.644 2.173-5.644 4.61m-351.708 9.929c0 1.139.822 2.41 2.968 2.41 2.756 0 5.644-2.252 5.644-4.583 0-1.563-1.324-2.438-2.967-2.438-2.57 0-5.645 2.173-5.645 4.61m89.845-145.61c0 1.138.821 2.41 2.967 2.41 2.756 0 5.644-2.252 5.644-4.584 0-1.563-1.325-2.438-2.967-2.438-2.57 0-5.644 2.173-5.644 4.611M99.622 166.262c0 1.14.821 2.411 2.968 2.411 2.756 0 5.644-2.251 5.644-4.583 0-1.564-1.325-2.438-2.968-2.438-2.57 0-5.644 2.173-5.644 4.61M64.549 93.456c0 1.14.821 2.412 2.968 2.412 2.756 0 5.643-2.252 5.643-4.584 0-1.564-1.324-2.438-2.967-2.438-2.57 0-5.644 2.173-5.644 4.61m10.203 69.497c0 1.139.821 2.411 2.968 2.411 2.755 0 5.643-2.252 5.643-4.584 0-1.563-1.325-2.438-2.967-2.438-2.57 0-5.644 2.173-5.644 4.61m15.63-79.424c0 1.14.821 2.412 2.967 2.412 2.756 0 5.644-2.253 5.644-4.585 0-1.563-1.325-2.437-2.967-2.437-2.57 0-5.644 2.172-5.644 4.61m423.123 79.425c0 1.139.821 2.411 2.968 2.411 2.756 0 5.644-2.252 5.644-4.584 0-1.563-1.325-2.438-2.968-2.438-2.57 0-5.644 2.173-5.644 4.61M49.88 159.644c0 1.14.822 2.412 2.968 2.412 2.756 0 5.645-2.252 5.645-4.584 0-1.564-1.325-2.438-2.968-2.438-2.57 0-5.645 2.173-5.645 4.61m66.333-72.805c0 1.14.821 2.41 2.967 2.41 2.757 0 5.645-2.251 5.645-4.583 0-1.564-1.325-2.438-2.968-2.438-2.57 0-5.644 2.173-5.644 4.61m75.035-56.258c0 1.14.822 2.411 2.968 2.411 2.755 0 5.644-2.252 5.644-4.584 0-1.563-1.325-2.438-2.968-2.438-2.57 0-5.644 2.173-5.644 4.611m347.126 135.683c0 1.14.822 2.411 2.968 2.411 2.756 0 5.644-2.251 5.644-4.583 0-1.564-1.325-2.438-2.968-2.438-2.57 0-5.644 2.173-5.644 4.61M151.511 83.528c0 1.14.822 2.412 2.968 2.412 2.756 0 5.644-2.253 5.644-4.585 0-1.563-1.325-2.437-2.968-2.437-2.57 0-5.644 2.172-5.644 4.61m2.638-58.402a.99.99 0 0 1-1.06-.954c0-1.298 4.452-3.577 5.697-3.577.637 0 1.06.37 1.06.954 0 1.325-4.477 3.577-5.697 3.577m3.657-5.777c-2.57 0-5.644 2.147-5.644 4.611 0 1.14.822 2.411 2.968 2.411 2.756 0 5.644-2.252 5.644-4.584 0-1.563-1.325-2.438-2.968-2.438m10.927 67.489c0 1.14.821 2.41 2.968 2.41 2.755 0 5.643-2.251 5.643-4.583 0-1.564-1.324-2.438-2.967-2.438-2.57 0-5.644 2.173-5.644 4.61m17.221 3.31c0 1.14.822 2.411 2.968 2.411 2.756 0 5.645-2.252 5.645-4.584 0-1.563-1.325-2.437-2.969-2.437-2.57 0-5.644 2.172-5.644 4.61m25.833 3.31c0 1.139.822 2.41 2.968 2.41 2.755 0 5.644-2.251 5.644-4.583 0-1.564-1.325-2.438-2.968-2.438-2.57 0-5.644 2.173-5.644 4.61m35.297 3.31c0 1.14.821 2.411 2.968 2.411 2.756 0 5.644-2.253 5.644-4.584 0-1.563-1.324-2.438-2.968-2.438-2.57 0-5.644 2.173-5.644 4.61m406.892-3.309c0 1.14.821 2.412 2.968 2.412 2.756 0 5.644-2.252 5.644-4.584 0-1.564-1.325-2.438-2.967-2.438-2.571 0-5.645 2.173-5.645 4.61m-90.73 76.116c0 1.139.821 2.41 2.968 2.41 2.755 0 5.643-2.252 5.643-4.583 0-1.563-1.325-2.438-2.967-2.438-2.57 0-5.645 2.173-5.645 4.61m64.899-79.424c0 1.14.821 2.411 2.967 2.411 2.756 0 5.644-2.252 5.644-4.584 0-1.563-1.325-2.437-2.967-2.437-2.57 0-5.644 2.172-5.644 4.61m-363.838 3.31c0 1.139.82 2.41 2.968 2.41 2.755 0 5.644-2.251 5.644-4.583 0-1.564-1.325-2.438-2.968-2.438-2.57 0-5.644 2.173-5.644 4.61m338.005 3.31c0 1.14.821 2.411 2.968 2.411 2.756 0 5.644-2.253 5.644-4.584 0-1.563-1.325-2.438-2.967-2.438-2.57 0-5.645 2.173-5.645 4.61m-320.783-6.618c0 1.14.821 2.411 2.967 2.411 2.756 0 5.644-2.252 5.644-4.584 0-1.563-1.325-2.437-2.967-2.437-2.571 0-5.644 2.172-5.644 4.61M116.638 27.27c0 1.139.823 2.41 2.97 2.41 2.755 0 5.643-2.252 5.643-4.583 0-1.564-1.325-2.438-2.967-2.438-2.571 0-5.645 2.173-5.645 4.61m182.11 66.187c0 1.14.821 2.412 2.968 2.412 2.756 0 5.644-2.252 5.644-4.584 0-1.564-1.325-2.438-2.968-2.438-2.57 0-5.644 2.173-5.644 4.61m268.265 0c0 1.14.821 2.412 2.968 2.412 2.756 0 5.644-2.252 5.644-4.584 0-1.564-1.325-2.438-2.968-2.438-2.57 0-5.644 2.173-5.644 4.61m-251.044 3.31c0 1.14.823 2.411 2.969 2.411 2.755 0 5.644-2.253 5.644-4.584 0-1.563-1.325-2.438-2.968-2.438-2.57 0-5.645 2.173-5.645 4.61m225.211-6.618c0 1.14.822 2.411 2.969 2.411 2.755 0 5.643-2.252 5.643-4.584 0-1.563-1.324-2.437-2.967-2.437-2.57 0-5.645 2.172-5.645 4.61m-450.6-59.568c0 1.14.821 2.411 2.969 2.411 2.755 0 5.643-2.252 5.643-4.584 0-1.563-1.324-2.438-2.967-2.438-2.57 0-5.645 2.173-5.645 4.611M523.96 86.838c0 1.14.821 2.41 2.967 2.41 2.757 0 5.645-2.251 5.645-4.583 0-1.564-1.325-2.438-2.968-2.438-2.57 0-5.644 2.173-5.644 4.61m-160.782 4.476a.99.99 0 0 1-1.06-.954c0-1.298 4.452-3.578 5.697-3.578.636 0 1.06.372 1.06.955 0 1.325-4.478 3.577-5.697 3.577m3.657-5.776c-2.57 0-5.644 2.146-5.644 4.61 0 1.14.821 2.411 2.968 2.411 2.755 0 5.643-2.252 5.643-4.584 0-1.563-1.324-2.437-2.967-2.437M64.523 40.507c0 1.14.822 2.41 2.968 2.41 2.756 0 5.645-2.251 5.645-4.583 0-1.563-1.325-2.438-2.968-2.438-2.57 0-5.645 2.173-5.645 4.61m442.215 43.022c0 1.14.822 2.412 2.968 2.412 2.756 0 5.644-2.253 5.644-4.585 0-1.563-1.325-2.437-2.968-2.437-2.57 0-5.644 2.172-5.644 4.61m92.83 87.21a.99.99 0 0 1-1.06-.954c0-1.299 4.451-3.578 5.697-3.578.636 0 1.06.37 1.06.954 0 1.325-4.478 3.577-5.697 3.577m3.656-5.776c-2.57 0-5.643 2.146-5.643 4.61 0 1.14.82 2.412 2.967 2.412 2.756 0 5.644-2.253 5.644-4.584 0-1.563-1.325-2.438-2.968-2.438M419.776 93.456c0 1.14.821 2.412 2.967 2.412 2.757 0 5.645-2.252 5.645-4.584 0-1.564-1.325-2.438-2.968-2.438-2.57 0-5.644 2.173-5.644 4.61m25.833-9.928c0 1.14.821 2.412 2.967 2.412 2.756 0 5.644-2.253 5.644-4.585 0-1.563-1.325-2.437-2.967-2.437-2.571 0-5.644 2.172-5.644 4.61m-6.715 82.734c0 1.14.822 2.411 2.968 2.411 2.756 0 5.644-2.251 5.644-4.583 0-1.564-1.325-2.438-2.968-2.438-2.57 0-5.644 2.173-5.644 4.61m-105.701-66.187c0 1.14.821 2.412 2.967 2.412 2.756 0 5.644-2.253 5.644-4.584 0-1.564-1.325-2.439-2.968-2.439-2.57 0-5.643 2.174-5.643 4.611M557.387 20.65v20.399h.662v-20.4ZM445.608 83.527v22.054h.662V83.527ZM301.381 17.34v22.054h.662V17.34Zm118.395 76.116V112.2h.662V93.456Zm51.93 50.204v17.12h.663v-17.12zm-24.87 1.612v18.818h.662v-18.818zm59.902-61.745v20.43h.662v-20.43Zm17.221 3.31v18.713h.663V86.837Zm-162.768 3.31v20.398h.662V90.146ZM252.829 20.65v20.399h.662v-20.4Zm88.306 58.425v18.828h.662V79.075Zm200.047 11.071v20.399h.662V90.146ZM360.395 17.34v22.054h.662V17.34Zm26.058-9.928v22.054h.662V7.412Zm180.56 86.044V112.2h.663V93.456Zm-243.1-15.974v17.112h.662V77.482zM72.466 16.23v22.106h.662V16.229Zm226.283 77.227v17.058h.662V93.456Zm214.756 69.496v17.068h.662v-17.068zm96.749-88.81v20.452h.662V74.142ZM281.527 90.146v18.775h.662V90.146Zm346.617 0v20.399h.662V90.146ZM272.248 74.173v17.112h.662V74.173zm381.728 19.283V112.2h.662V93.456Zm-48.453 51.838V167.4h.662v-22.106ZM255.027 75.766v18.828h.662V75.766ZM412.51 17.34v22.054h.662V17.34ZM98.524 6.3v22.107h.662V6.301Zm293.6 156.652v18.744h.662v-18.744ZM211.787 93.456V112.2h.662V93.456Zm14.984-69.497v18.744h.662V23.96Zm-40.816 66.187v20.399h.662V90.146Zm262.078-76.115v22.054h.662V14.03Zm-279.3 72.806v18.713h.662V86.837Zm186.086 72.806v20.398h.662v-20.398ZM487.121 17.34v22.054h.662V17.34ZM151.51 83.527v20.43h.662v-20.43Zm178.437 72.806v18.722h.662v-18.722ZM522.643 14.031v20.43h.662V14.03ZM49.882 159.643v18.765h.662v-18.765Zm66.332-72.806v22.053h.662V86.837ZM74.75 162.952v17.068h.663v-17.068zm15.63-79.425v22.054h.662V83.527Zm17.183 60.112v20.451h.662V143.64ZM64.55 93.456V112.2h.662V93.456Zm60.033-88.81v20.452h.662V4.646Zm20.288 140.648V167.4h.662v-22.106zm160.209 7.73v20.42h.662v-20.42ZM540.015 17.34v18.714h.662V17.34Zm-387.853 6.62v18.743h.662V23.96Zm394.156 123.01v17.12h.662v-17.12zm-362.62 9.363v22.053h.661v-22.053ZM626.91 4.646v20.452h.662V4.646ZM571.188 148.58V167.4h.662V148.58ZM199.19 6.301v22.106h.662V6.301Zm21.812 140.104v22.054h.662v-22.054ZM583.445 23.96v18.744h.662V23.96ZM258.308 149.714v22.054h.662v-22.054Zm213.133-62.877v22.053h.662V86.837Zm17.193 72.806v18.765h.663v-18.765ZM85.7 73.775c-6.983-.011-14.056 3.863-16.999 10.36a.165.165 0 0 0 .056.19l.004.016.009-.002.014.014a.165.165 0 0 0 .19-.056l.016-.003c2.392-3.615 6.8-6.4 11.615-7.843 4.814-1.443 10.028-1.543 14.014.16a.165.165 0 0 0 .153-.292c-2.741-1.73-5.897-2.538-9.072-2.544m-.002.338c2.47.002 4.925.5 7.173 1.547-3.755-1.032-8.205-.772-12.36.474-4.157 1.246-8.016 3.477-10.584 6.404 3.273-5.31 9.562-8.429 15.771-8.425m-16.846 10.09c4.236-9.35 17.152-13.222 25.832-7.745-8.072-3.448-20.988.424-25.832 7.745m143.05 51.53c-2.216.009-4.458.249-6.654.705-7.029 1.459-13.603 5.129-17.383 10.548a.165.165 0 0 0 .023.202l.001.014h.008l.01.014a.165.165 0 0 0 .202-.023h.014c3.928-4.299 10.546-7.429 17.515-8.876 6.968-1.446 14.285-1.209 19.6 1.17a.165.165 0 0 0 .154-.29c-3.867-2.384-8.616-3.484-13.49-3.464zm0 .332c3.943-.016 7.8.71 11.153 2.255-5.097-1.583-11.42-1.585-17.485-.326s-11.864 3.777-15.91 7.26c3.829-4.285 9.566-7.228 15.655-8.492a33 33 0 0 1 6.586-.697M188 147.08c7.497-10.747 26.15-14.62 37.304-7.743-10.725-4.802-29.377-.93-37.304 7.743m133.192-6.327c-4.42.02-8.827 1.698-11.934 5.09a.2.2 0 0 0-.017.048.2.2 0 0 0-.021.058.2.2 0 0 0 .017.06.2.2 0 0 0 .013.048l.012.007.006.013a.2.2 0 0 0 .049.018.2.2 0 0 0 .057.02.2.2 0 0 0 .06-.016.2.2 0 0 0 .049-.014c3.188-2.518 7.876-3.65 12.508-3.441 4.63.21 9.198 1.76 12.145 4.557a.165.165 0 0 0 .246-.22c-3.16-4.147-8.182-6.252-13.19-6.228zm.002.336c4.281-.02 8.572 1.546 11.649 4.635-2.948-2.083-6.87-3.231-10.838-3.41s-7.978.61-11.102 2.418c2.893-2.421 6.586-3.626 10.29-3.643m-11.814 4.866c6.554-7.157 18.99-6.594 24.87 1.125-5.974-5.667-18.409-6.229-24.87-1.125M163.506 72.203c-2.88.157-5.732 1.525-7.822 4.152l.002.016a.165.165 0 0 0 .005.199h.018l.002.018a.17.17 0 0 0 .106-.012.17.17 0 0 0 .108.005c2.257-2.052 5.516-2.948 8.707-2.74 3.191.21 6.305 1.521 8.277 3.85a.165.165 0 0 0 .268-.192c-2.224-3.699-5.97-5.498-9.671-5.296zm.019.316c3.042-.169 6.102 1.083 8.284 3.664-1.97-1.593-4.536-2.5-7.155-2.671-2.62-.172-5.281.395-7.442 1.717 1.845-1.68 4.067-2.586 6.313-2.71m-7.711 3.94c4.71-5.925 13.322-5.362 17.221 1.125-4.014-4.74-12.625-5.304-17.221-1.126m285.113-2.683c-6.983-.011-14.056 3.863-16.999 10.36a.165.165 0 0 0 .056.19l.003.016.014.002.009.01a.2.2 0 0 0 .051.002.2.2 0 0 0 .062.002.2.2 0 0 0 .05-.034.2.2 0 0 0 .043-.029c2.392-3.615 6.801-6.4 11.615-7.843 4.815-1.444 10.029-1.543 14.015.16a.165.165 0 0 0 .153-.292c-2.741-1.73-5.898-2.539-9.072-2.544zm-.002.338c2.47.002 4.925.5 7.173 1.547-3.755-1.032-8.205-.772-12.361.474s-8.015 3.476-10.583 6.404c3.273-5.31 9.562-8.429 15.771-8.425m-16.846 10.09c4.235-9.35 17.151-13.222 25.833-7.745-8.073-3.448-20.99.424-25.833 7.745m94.654-12c-2.88.157-5.733 1.525-7.822 4.152l.002.016a.165.165 0 0 0 .005.199l.019.008v.01a.2.2 0 0 0 .05.014.2.2 0 0 0 .059.017.2.2 0 0 0 .057-.02.2.2 0 0 0 .049-.018c2.257-2.052 5.516-2.948 8.707-2.74 3.192.21 6.306 1.521 8.277 3.85a.165.165 0 0 0 .268-.192c-2.224-3.699-5.97-5.498-9.671-5.296m.019.316c3.042-.169 6.102 1.083 8.285 3.664-1.971-1.593-4.536-2.5-7.156-2.671-2.62-.172-5.281.395-7.443 1.717 1.846-1.68 4.068-2.586 6.314-2.71m-7.712 3.94c4.712-5.925 13.322-5.362 17.223 1.125-4.014-4.74-12.626-5.304-17.223-1.126M350.93 9.246v27.203h1.192V9.246Zm78.5 138.993v27.202h1.19V148.24Zm9.139-138.993v27.203h1.19V9.246Zm74.61 0v27.203h1.19V9.246Zm-295.872 0v27.203h1.191V9.246Zm78.306 138.993v27.202h1.191V148.24ZM609.503 9.246v27.203h1.191V9.246Zm-112.23 69.496v27.203h1.192V78.742ZM677.36 9.246v27.203H681V9.246Zm-3.64 0v27.203h1.191V9.246Zm-2.447 16.91c0-.768-.61-1.404-1.378-1.404-.769 0-1.378.636-1.378 1.405 0 .768.61 1.404 1.378 1.404s1.378-.636 1.378-1.404m0-6.62c0-.768-.61-1.404-1.378-1.404-.769 0-1.378.636-1.378 1.405 0 .768.61 1.404 1.378 1.404s1.378-.636 1.378-1.404m-497.04 128.7v27.203h1.191V148.24ZM142.698 9.247v27.203h1.19V9.246Zm445.418 138.993v27.202h1.191V148.24ZM56.278 95.653c0-.768-.61-1.405-1.379-1.405-.768 0-1.378.637-1.378 1.405 0 .769.61 1.404 1.378 1.404.769 0 1.379-.635 1.379-1.404m0-6.619c0-.768-.61-1.404-1.379-1.404-.768 0-1.378.636-1.378 1.404 0 .769.61 1.404 1.378 1.404.769 0 1.379-.635 1.379-1.404M49.88 78.742v27.203h1.192V78.742Zm-6.088 0v27.203h3.64V78.742Zm98.254 0v27.203h1.19V78.742Zm95.572 0v27.203h1.191V78.742Zm442.19 0v27.203H681V78.742Zm-86.962 0v27.203h1.191V78.742Zm-241.12 0v27.203h1.19V78.742ZM677.36 148.24v27.202H681V148.24zm-3.64 0v27.202h1.191V148.24zm-2.447 16.91c0-.768-.61-1.404-1.378-1.404-.769 0-1.378.636-1.378 1.404 0 .769.61 1.405 1.378 1.405s1.378-.636 1.378-1.405m0-6.618c0-.769-.61-1.405-1.378-1.405-.769 0-1.378.636-1.378 1.405 0 .768.61 1.404 1.378 1.404s1.378-.636 1.378-1.404M410.312 78.742v27.203h1.19V78.742ZM291.916 9.246v27.203h1.192V9.246ZM0 174.713v.728h681v-.728zm0-6.618v.728h681v-.728zm0-6.619v.728h681v-.728zm0-6.619v.728h681v-.728zm0-6.619v.728h681v-.728zm0-43.021v.728h681v-.728zm0-6.618v.727h681V98.6zm0-6.62v.729h681v-.728zm0-6.618v.728h681v-.728zm0-6.619v.728h681v-.728Zm0-43.021v.727h681v-.727zm0-6.619v.728h681v-.728zm0-6.619v.728h681v-.728zm0-6.618v.727h681v-.727Zm0-6.619v.728h681v-.728Z"/>
</svg>
