<?xml version="1.0" encoding="utf-8"?>
<svg xmlns="http://www.w3.org/2000/svg" xmlns:svg="http://www.w3.org/2000/svg" version="1.1" viewBox="0 0 681 187">
	<title>The musical score for Air LIV</title>
	<path d="M605.652 33.1c0 .743.582 1.325 1.325 1.325.74 0 1.325-.582 1.325-1.324s-.584-1.325-1.325-1.325c-.743 0-1.325.582-1.325 1.325m-274.105 0c0 .742.583 1.324 1.325 1.324s1.324-.582 1.324-1.324-.582-1.325-1.324-1.325-1.325.582-1.325 1.325m176.948 62.877c0 .742.583 1.325 1.325 1.325s1.325-.583 1.325-1.325-.583-1.325-1.325-1.325-1.325.583-1.325 1.325m-259.332 0c0 .742.583 1.325 1.325 1.325s1.325-.583 1.325-1.325-.583-1.325-1.325-1.325-1.325.583-1.325 1.325M448.63 44.68l54.712-3.309v3.315l-54.712 3.31zm151.318 107.552 22.523 1.655v3.318l-22.523-1.654zM146.433 13.238l18.68 1.654v3.323l-18.68-1.655zm63.059-8.274 18.68-1.654v3.322l-18.68 1.655zm-75.733 104.244 17.438-1.655v3.325l-17.438 1.654zm250.945-6.62 17.437 1.656v3.324l-17.437-1.654zm209.024-24.812h17.437v3.31h-17.437zm-510.74-.008 17.437-1.654v3.324l-17.438 1.654zm569.455-3.309 17.438-1.655v3.324l-17.438 1.655zM57.824 138.995l66.244 4.964v3.319l-66.244-4.964zm456.145 3.31 22.523 1.655v3.318l-22.523-1.655zM255.507 0l54.713 4.964v3.323l-54.713-4.964zm-85.392 172.088 22.523 1.655v3.318l-22.522-1.654zM437.42 69.495l50.99 4.964v3.326l-50.99-4.964zM420.537 8.274l18.68 1.654v3.323l-18.68-1.655zM73.393 9.934h18.679v3.31h-18.68zm492.253 3.304 18.68 1.654v3.323l-18.68-1.655zm-301.61 129.066 22.523 1.655v3.318l-22.522-1.655zm76.513 1.655 22.522-1.655v3.318l-22.522 1.655zm53.186-4.964 66.244 4.964v3.319l-66.244-4.964zm-190.038-31.44 17.437 1.654v3.324l-17.437-1.654zM333.932 77.77l17.437-1.654v3.324l-17.437 1.654zM48.565 18.43c-.662.424-1.139 1.192-1.139 2.04 0 .106 0 .212.026.318.133 1.087 1.008 1.935 2.094 2.067h.291a2.375 2.375 0 0 0 2.385-2.385v-.159c0-.106-.026-.291-.053-.397-.238-1.14-1.272-3.577-5.776-3.577-5.777 0-6.44 4.796-6.44 6.518 0 3.154.398 7.102 7.022 7.102 2.624 0 4.664-1.537 4.77-4.373 0-.132-.08-.212-.212-.212h-.344c-.106 0-.213.107-.213.212-.105 2.2-1.669 3.525-4 3.525-2.305 0-3.419-1.245-3.419-3.577v-5.062c0-1.483.584-3.18 2.941-3.18 1.246 0 1.802.451 2.094.902.026.053.026.08.026.132 0 .027 0 .08-.053.106M28.941 7.974l2.358-.477v4.372l-2.358.504zm4.107-.821c.16-.027.292-.212.292-.371V5.218a.36.36 0 0 0-.371-.37h-.054l-.874.185V1.085H31.3v4.107l-2.358.477V1.932h-.742v3.896l-1.033.212c-.16.026-.292.212-.292.37v1.538c0 .211.159.37.371.37h.08l.874-.185v4.372l-1.033.212c-.16.027-.292.212-.292.371v1.537c0 .212.159.371.371.371h.08l.874-.185v3.948h.742v-4.107l2.358-.477v3.736h.742v-3.895l1.007-.186c.16-.026.292-.212.292-.37v-1.564a.36.36 0 0 0-.371-.371h-.054l-.874.185V7.338zm-4.107 139.813 2.358-.476v4.372l-2.358.503zm4.107-.821c.16-.026.292-.212.292-.37v-1.564c0-.212-.16-.37-.371-.37h-.054l-.874.184v-3.948H31.3v4.108l-2.358.477v-3.737h-.742v3.895l-1.033.212c-.16.027-.292.212-.292.37v1.538c0 .212.159.371.371.371h.08l.874-.185v4.372l-1.033.212c-.16.026-.292.212-.292.371v1.536c0 .213.159.372.371.372h.08l.874-.186v3.948h.742v-4.106l2.358-.478v3.737h.742v-3.896l1.007-.186c.16-.026.292-.21.292-.37v-1.564c0-.212-.16-.37-.371-.37h-.054l-.874.185v-4.372zM28.941 77.47l2.358-.476v4.372l-2.358.503zm4.107-.821c.16-.027.292-.212.292-.37v-1.564c0-.213-.16-.371-.371-.371h-.054l-.874.185V70.58H31.3v4.107l-2.358.477V71.43h-.742v3.895l-1.033.212c-.16.026-.292.212-.292.37v1.538c0 .212.159.371.371.371h.08l.874-.186v4.372l-1.033.212c-.16.027-.292.212-.292.372v1.536c0 .212.159.371.371.371h.08l.874-.185v3.948h.742v-4.107l2.358-.477v3.736h.742v-3.895l1.007-.186c.16-.026.292-.211.292-.37v-1.564c0-.212-.16-.37-.371-.37h-.054l-.874.184v-4.372zm-16.955-41.4a7.7 7.7 0 0 1-1.537.16c-3.789 0-7.022-2.65-7.022-6.651 0-3.233 2.28-6.122 4.611-8.135.45-.398.875-.769 1.272-1.166.238 1.43.424 2.676.61 3.762-2.412.716-4.055 3.26-4.055 5.75 0 1.856 1.458 4.399 3.577 4.399.212 0 .451-.106.451-.344 0-.239-.265-.371-.583-.583-1.033-.637-1.616-1.325-1.616-2.623 0-1.617 1.192-2.915 2.755-3.286zM13.761 8.01C14 6.95 15.22 4.167 16.597 4.167c.397 0 1.033 1.299 1.033 3.127 0 2.756-2.04 4.823-3.869 6.625-.159-1.06-.291-2.094-.291-3.207 0-.98.08-1.881.291-2.703m6.095 22.338c0 1.882-.768 3.816-2.65 4.584a882 882 0 0 1-1.457-8.558c2.385 0 4.107 1.616 4.107 3.974M8.196 43.384c0 1.75 1.352 4.054 4.93 4.054 1.245 0 2.331-.317 3.285-.9 1.431-1.007 1.802-2.756 1.802-4.426 0-1.033-.159-2.225-.424-3.736-.08-.53-.238-1.325-.397-2.358 2.597-.848 4.53-3.55 4.53-6.28 0-4-2.834-6.704-6.703-6.704-.265-1.59-.53-3.153-.769-4.637 2.81-2.942 4.744-6.254 4.744-10.467 0-2.411-.742-4.372-1.166-5.326-.636-1.352-1.405-2.279-1.882-2.279-.185 0-1.007.318-1.881 1.351-1.696 2.014-2.173 5.406-2.173 7.632 0 1.43.133 2.73.583 5.697-.026.026-1.404 1.43-1.96 1.881-2.412 2.253-5.75 5.459-5.75 10.759 0 4.954 4.318 8.85 9.247 8.85.768 0 1.484-.08 2.093-.186.504 2.544.795 4.4.795 5.803 0 2.757-1.404 4.214-4.08 4.214-.636 0-1.193-.132-1.246-.132-.026-.027-.08-.053-.08-.08 0-.053.054-.08.133-.106 1.246-.186 2.49-1.246 2.49-2.941 0-1.431-1.085-2.942-3.073-2.942-1.855 0-3.047 1.511-3.047 3.26m7.896 130.857a7.7 7.7 0 0 1-1.537.16c-3.789 0-7.022-2.65-7.022-6.652 0-3.232 2.28-6.12 4.611-8.135.45-.397.875-.768 1.272-1.166.238 1.431.424 2.677.61 3.763-2.412.716-4.055 3.26-4.055 5.75 0 1.855 1.458 4.399 3.577 4.399.212 0 .451-.106.451-.345 0-.238-.265-.37-.583-.582-1.033-.637-1.616-1.325-1.616-2.624 0-1.616 1.192-2.915 2.755-3.285zm-2.332-27.24c.239-1.06 1.458-3.842 2.836-3.842.397 0 1.033 1.298 1.033 3.127 0 2.755-2.04 4.822-3.869 6.624-.159-1.06-.291-2.093-.291-3.206 0-.98.08-1.881.291-2.703m6.095 22.338c0 1.881-.768 3.816-2.65 4.584a882 882 0 0 1-1.457-8.559c2.385 0 4.107 1.617 4.107 3.975m-11.66 13.037c0 1.75 1.352 4.054 4.93 4.054 1.245 0 2.331-.318 3.285-.9 1.431-1.008 1.802-2.756 1.802-4.426 0-1.034-.159-2.226-.424-3.736-.08-.53-.238-1.325-.397-2.359 2.597-.847 4.53-3.55 4.53-6.28 0-4-2.834-6.704-6.703-6.704-.265-1.59-.53-3.153-.769-4.636 2.81-2.942 4.744-6.254 4.744-10.468 0-2.41-.742-4.371-1.166-5.326-.636-1.351-1.405-2.278-1.882-2.278-.185 0-1.007.318-1.881 1.351-1.696 2.014-2.173 5.406-2.173 7.632 0 1.43.133 2.729.583 5.697-.026.026-1.404 1.43-1.96 1.88-2.412 2.254-5.75 5.46-5.75 10.76 0 4.954 4.318 8.85 9.247 8.85.768 0 1.484-.08 2.093-.186.504 2.544.795 4.399.795 5.803 0 2.756-1.404 4.213-4.08 4.213-.636 0-1.193-.132-1.246-.132-.026-.026-.08-.053-.08-.08 0-.053.054-.08.133-.106 1.246-.185 2.49-1.245 2.49-2.94 0-1.431-1.085-2.942-3.073-2.942-1.855 0-3.047 1.51-3.047 3.26m7.896-77.632a7.7 7.7 0 0 1-1.537.159c-3.789 0-7.022-2.65-7.022-6.651 0-3.233 2.28-6.121 4.611-8.135.45-.397.875-.769 1.272-1.166.238 1.43.424 2.676.61 3.763-2.412.715-4.055 3.259-4.055 5.75 0 1.855 1.458 4.398 3.577 4.398.212 0 .451-.105.451-.344s-.265-.37-.583-.583c-1.033-.636-1.616-1.325-1.616-2.623 0-1.616 1.192-2.915 2.755-3.286zm-2.332-27.24c.239-1.06 1.458-3.843 2.836-3.843.397 0 1.033 1.299 1.033 3.127 0 2.756-2.04 4.823-3.869 6.625-.159-1.06-.291-2.093-.291-3.206 0-.98.08-1.882.291-2.703m6.095 22.338c0 1.881-.768 3.815-2.65 4.584a882 882 0 0 1-1.457-8.559c2.385 0 4.107 1.616 4.107 3.975M8.196 112.88c0 1.749 1.352 4.054 4.93 4.054 1.245 0 2.331-.318 3.285-.9 1.431-1.008 1.802-2.756 1.802-4.426 0-1.034-.159-2.226-.424-3.737-.08-.53-.238-1.324-.397-2.358 2.597-.848 4.53-3.55 4.53-6.28 0-4-2.834-6.704-6.703-6.704-.265-1.59-.53-3.153-.769-4.637 2.81-2.941 4.744-6.254 4.744-10.467 0-2.411-.742-4.372-1.166-5.326-.636-1.351-1.405-2.278-1.882-2.278-.185 0-1.007.317-1.881 1.351-1.696 2.013-2.173 5.405-2.173 7.632 0 1.43.133 2.729.583 5.696-.026.027-1.404 1.43-1.96 1.882-2.412 2.252-5.75 5.459-5.75 10.758 0 4.955 4.318 8.85 9.247 8.85.768 0 1.484-.08 2.093-.186.504 2.545.795 4.4.795 5.804 0 2.756-1.404 4.213-4.08 4.213-.636 0-1.193-.132-1.246-.132-.026-.027-.08-.053-.08-.08 0-.053.054-.08.133-.106 1.246-.186 2.49-1.246 2.49-2.941 0-1.43-1.085-2.941-3.073-2.941-1.855 0-3.047 1.51-3.047 3.259m399.456 50.397c0 1.14.821 2.41 2.968 2.41 2.756 0 5.644-2.251 5.644-4.583 0-1.564-1.324-2.438-2.968-2.438-2.57 0-5.644 2.173-5.644 4.61M265.582 24.286c0 1.14.82 2.411 2.967 2.411 2.756 0 5.645-2.252 5.645-4.584 0-1.563-1.325-2.438-2.969-2.438-2.57 0-5.643 2.173-5.643 4.61m34.233 145.612c0 1.14.82 2.412 2.968 2.412 2.755 0 5.644-2.252 5.644-4.584 0-1.564-1.325-2.438-2.968-2.438-2.57 0-5.644 2.173-5.644 4.61M530.677 30.904c0 1.139.822 2.411 2.969 2.411 2.755 0 5.644-2.252 5.644-4.584 0-1.563-1.325-2.438-2.968-2.438-2.57 0-5.645 2.173-5.645 4.61M277.954 166.588c0 1.14.821 2.411 2.968 2.411 2.756 0 5.644-2.252 5.644-4.584 0-1.563-1.325-2.437-2.968-2.437-2.57 0-5.644 2.172-5.644 4.61M557.703 34.213c0 1.14.821 2.412 2.968 2.412 2.756 0 5.643-2.252 5.643-4.584 0-1.564-1.325-2.438-2.967-2.438-2.57 0-5.644 2.173-5.644 4.61m-128.19 132.374c0 1.14.822 2.411 2.97 2.411 2.755 0 5.643-2.252 5.643-4.584 0-1.563-1.325-2.437-2.968-2.437-2.57 0-5.644 2.172-5.644 4.61m-173.42-3.31c0 1.14.82 2.412 2.967 2.412 2.756 0 5.644-2.252 5.644-4.584 0-1.564-1.325-2.438-2.968-2.438-2.57 0-5.644 2.173-5.644 4.61M430.612 34.214c0 1.14.821 2.412 2.968 2.412 2.755 0 5.643-2.252 5.643-4.584 0-1.564-1.324-2.438-2.967-2.438-2.57 0-5.644 2.173-5.644 4.61M223.302 153.35c0 1.14.822 2.411 2.968 2.411 2.755 0 5.644-2.253 5.644-4.584 0-1.563-1.325-2.438-2.968-2.438-2.57 0-5.644 2.173-5.644 4.611M575.72 37.523c0 1.139.821 2.411 2.968 2.411 2.755 0 5.644-2.253 5.644-4.584 0-1.563-1.325-2.438-2.968-2.438-2.57 0-5.644 2.173-5.644 4.61M65.45 34.214c0 1.14.822 2.412 2.968 2.412 2.755 0 5.644-2.252 5.644-4.584 0-1.564-1.325-2.438-2.968-2.438-2.57 0-5.644 2.173-5.644 4.61m385.925 135.683c0 1.14.821 2.412 2.968 2.412 2.755 0 5.643-2.252 5.643-4.584 0-1.564-1.324-2.438-2.967-2.438-2.57 0-5.644 2.173-5.644 4.61M593.736 37.523c0 1.139.823 2.411 2.969 2.411 2.755 0 5.644-2.253 5.644-4.584 0-1.563-1.325-2.438-2.968-2.438-2.57 0-5.645 2.173-5.645 4.61M191.976 156.66c0 1.14.822 2.412 2.968 2.412 2.756 0 5.644-2.253 5.644-4.585 0-1.563-1.325-2.438-2.967-2.438-2.57 0-5.644 2.173-5.644 4.611m281.259 16.547c0 1.14.82 2.411 2.967 2.411 2.756 0 5.644-2.252 5.644-4.584 0-1.563-1.325-2.437-2.968-2.437-2.57 0-5.643 2.172-5.643 4.61M412.595 30.904c0 1.139.821 2.411 2.968 2.411 2.756 0 5.644-2.252 5.644-4.584 0-1.563-1.325-2.438-2.968-2.438-2.57 0-5.644 2.173-5.644 4.61M170.115 153.35c0 1.14.823 2.411 2.969 2.411 2.755 0 5.644-2.253 5.644-4.584 0-1.563-1.325-2.438-2.968-2.438-2.57 0-5.645 2.173-5.645 4.611m335.912 9.928c0 1.14.821 2.41 2.967 2.41 2.756 0 5.644-2.251 5.644-4.583 0-1.564-1.325-2.438-2.967-2.438-2.57 0-5.644 2.173-5.644 4.61m-368.703 9.929c0 1.14.822 2.411 2.969 2.411 2.755 0 5.644-2.252 5.644-4.584 0-1.563-1.325-2.437-2.968-2.437-2.57 0-5.645 2.172-5.645 4.61m110.24-152.23c0 1.14.823 2.412 2.969 2.412 2.755 0 5.644-2.253 5.644-4.585 0-1.563-1.325-2.438-2.968-2.438-2.57 0-5.645 2.173-5.645 4.61m-132.1 148.921c0 1.14.821 2.412 2.967 2.412 2.757 0 5.645-2.252 5.645-4.584 0-1.564-1.325-2.438-2.968-2.438-2.57 0-5.644 2.173-5.644 4.61M657.595 34.213c0 1.14.822 2.412 2.968 2.412 2.756 0 5.644-2.252 5.644-4.584 0-1.564-1.324-2.438-2.967-2.438-2.57 0-5.645 2.173-5.645 4.61M93.603 166.587c0 1.14.822 2.411 2.968 2.411 2.755 0 5.644-2.252 5.644-4.584 0-1.563-1.325-2.437-2.968-2.437-2.57 0-5.644 2.172-5.644 4.61M219.567 24.285c0 1.14.821 2.411 2.968 2.411 2.755 0 5.643-2.252 5.643-4.584 0-1.563-1.325-2.438-2.967-2.438-2.57 0-5.644 2.173-5.644 4.61M71.743 163.279c0 1.14.821 2.41 2.967 2.41 2.756 0 5.644-2.251 5.644-4.583 0-1.564-1.325-2.438-2.968-2.438-2.57 0-5.643 2.173-5.643 4.61M448.629 30.905c0 1.139.821 2.411 2.968 2.411 2.755 0 5.644-2.252 5.644-4.584 0-1.563-1.325-2.438-2.968-2.438-2.57 0-5.644 2.173-5.644 4.61m-63.059-3.309c0 1.14.821 2.412 2.968 2.412 2.755 0 5.643-2.252 5.643-4.584 0-1.564-1.324-2.438-2.967-2.438-2.57 0-5.644 2.173-5.644 4.61M49.881 159.97c0 1.14.822 2.411 2.968 2.411 2.756 0 5.645-2.253 5.645-4.585 0-1.563-1.325-2.437-2.968-2.437-2.57 0-5.645 2.172-5.645 4.61M502.68 24.286c0 1.14.821 2.411 2.967 2.411 2.756 0 5.644-2.252 5.644-4.584 0-1.563-1.325-2.438-2.967-2.438-2.571 0-5.644 2.173-5.644 4.61M354.467 163.279c0 1.14.822 2.41 2.968 2.41 2.755 0 5.644-2.251 5.644-4.583 0-1.564-1.325-2.438-2.968-2.438-2.57 0-5.644 2.173-5.644 4.61m130.196-148.92c0 1.14.82 2.412 2.967 2.412 2.756 0 5.644-2.253 5.644-4.585 0-1.563-1.325-2.437-2.968-2.437-2.57 0-5.643 2.172-5.643 4.61M83.467 34.213c0 1.14.822 2.412 2.968 2.412 2.756 0 5.644-2.252 5.644-4.584 0-1.564-1.325-2.438-2.968-2.438-2.57 0-5.644 2.173-5.644 4.61M49.881 100.4c0 1.14.822 2.411 2.968 2.411 2.756 0 5.645-2.252 5.645-4.584 0-1.563-1.325-2.437-2.968-2.437-2.57 0-5.645 2.173-5.645 4.61m611.394-6.619c0 1.14.822 2.411 2.968 2.411 2.756 0 5.644-2.251 5.644-4.583 0-1.564-1.325-2.438-2.968-2.438-2.57 0-5.644 2.173-5.644 4.61m-586.23 6.62c0 1.138.821 2.41 2.968 2.41 2.756 0 5.644-2.252 5.644-4.584 0-1.563-1.325-2.437-2.968-2.437-2.57 0-5.644 2.173-5.644 4.61m452.842 66.187c0 1.14.822 2.411 2.968 2.411 2.756 0 5.645-2.252 5.645-4.584 0-1.563-1.325-2.437-2.969-2.437-2.57 0-5.644 2.172-5.644 4.61M644.5 97.091c0 1.14.821 2.411 2.967 2.411 2.756 0 5.644-2.252 5.644-4.584 0-1.563-1.325-2.438-2.967-2.438-2.57 0-5.644 2.173-5.644 4.61M283.599 27.595c0 1.14.821 2.412 2.967 2.412 2.756 0 5.644-2.252 5.644-4.584 0-1.564-1.325-2.438-2.967-2.438-2.571 0-5.644 2.173-5.644 4.61m335.737 69.497c0 1.14.822 2.411 2.968 2.411 2.756 0 5.644-2.252 5.644-4.584 0-1.563-1.325-2.438-2.968-2.438-2.57 0-5.644 2.173-5.644 4.61m-527.516 0c0 1.14.822 2.412 2.969 2.412 2.755 0 5.644-2.252 5.644-4.584 0-1.563-1.325-2.438-2.968-2.438-2.57 0-5.645 2.173-5.645 4.61m510.74 3.31c0 1.14.822 2.411 2.968 2.411 2.756 0 5.644-2.252 5.644-4.584 0-1.563-1.325-2.437-2.967-2.437-2.57 0-5.644 2.173-5.644 4.61m-493.964-6.619c0 1.14.821 2.411 2.967 2.411 2.756 0 5.644-2.251 5.644-4.583 0-1.564-1.325-2.438-2.968-2.438-2.57 0-5.643 2.173-5.643 4.61m245.295-62.877c0 1.139.82 2.411 2.967 2.411 2.756 0 5.645-2.252 5.645-4.584 0-1.563-1.325-2.438-2.969-2.438-2.57 0-5.643 2.173-5.643 4.61M585.785 100.4c0 1.14.822 2.411 2.968 2.411 2.755 0 5.644-2.252 5.644-4.584 0-1.563-1.325-2.437-2.968-2.437-2.57 0-5.644 2.173-5.644 4.61m-452.026-6.619c0 1.14.823 2.411 2.969 2.411 2.755 0 5.644-2.251 5.644-4.583 0-1.564-1.325-2.438-2.968-2.438-2.57 0-5.645 2.173-5.645 4.61m-22.294-62.877c0 1.139.821 2.411 2.968 2.411 2.756 0 5.644-2.252 5.644-4.584 0-1.563-1.325-2.438-2.967-2.438-2.57 0-5.645 2.173-5.645 4.61M560.622 100.4c0 1.14.821 2.411 2.967 2.411 2.756 0 5.644-2.252 5.644-4.584 0-1.563-1.325-2.437-2.967-2.437-2.571 0-5.644 2.173-5.644 4.61m-1.41 69.496c0 1.14.822 2.412 2.968 2.412 2.757 0 5.645-2.252 5.645-4.584 0-1.564-1.325-2.438-2.968-2.438-2.57 0-5.644 2.173-5.644 4.61M150.536 90.472c0 1.14.821 2.412 2.967 2.412 2.756 0 5.644-2.253 5.644-4.585 0-1.563-1.325-2.438-2.967-2.438-2.571 0-5.644 2.173-5.644 4.61M138.49 34.214c0 1.14.821 2.412 2.967 2.412 2.757 0 5.644-2.252 5.644-4.584 0-1.564-1.325-2.438-2.967-2.438-2.57 0-5.644 2.173-5.644 4.61m389.988 59.568c0 1.14.821 2.411 2.968 2.411 2.756 0 5.644-2.251 5.644-4.583 0-1.564-1.325-2.438-2.967-2.438-2.571 0-5.645 2.173-5.645 4.61M319.632 34.213c0 1.14.821 2.412 2.968 2.412 2.756 0 5.644-2.252 5.644-4.584 0-1.564-1.324-2.438-2.967-2.438-2.57 0-5.645 2.173-5.645 4.61M201.55 27.594c0 1.14.821 2.412 2.967 2.412 2.757 0 5.644-2.252 5.644-4.584 0-1.564-1.325-2.438-2.967-2.438-2.57 0-5.644 2.173-5.644 4.61m390.454 145.612c0 1.14.821 2.411 2.968 2.411 2.756 0 5.644-2.252 5.644-4.584 0-1.563-1.325-2.437-2.967-2.437-2.57 0-5.645 2.172-5.645 4.61M496.58 100.4c0 1.14.822 2.411 2.968 2.411 2.755 0 5.644-2.252 5.644-4.584 0-1.563-1.325-2.437-2.968-2.437-2.57 0-5.644 2.173-5.644 4.61M178.533 87.163c0 1.14.822 2.411 2.969 2.411 2.755 0 5.644-2.252 5.644-4.584 0-1.563-1.325-2.438-2.968-2.438-2.57 0-5.645 2.173-5.645 4.611M479.805 100.4c0 1.14.821 2.411 2.967 2.411 2.756 0 5.644-2.252 5.644-4.584 0-1.563-1.325-2.437-2.967-2.437-2.57 0-5.644 2.173-5.644 4.61m-276.108-9.928c0 1.14.821 2.412 2.967 2.412 2.757 0 5.645-2.253 5.645-4.585 0-1.563-1.325-2.438-2.967-2.438-2.571 0-5.645 2.173-5.645 4.61m259.332 6.62c0 1.14.82 2.411 2.967 2.411 2.756 0 5.645-2.252 5.645-4.584 0-1.563-1.325-2.438-2.968-2.438-2.57 0-5.644 2.173-5.644 4.61M301.616 30.905c0 1.139.821 2.411 2.967 2.411 2.756 0 5.644-2.252 5.644-4.584 0-1.563-1.325-2.438-2.967-2.438-2.57 0-5.644 2.173-5.644 4.61m144.637 62.878c0 1.14.821 2.411 2.968 2.411 2.756 0 5.644-2.251 5.644-4.583 0-1.564-1.325-2.438-2.968-2.438-2.57 0-5.644 2.173-5.644 4.61m-145.427 6.62c0 1.138.821 2.41 2.967 2.41 2.756 0 5.644-2.252 5.644-4.584 0-1.563-1.325-2.437-2.967-2.437-2.571 0-5.644 2.173-5.644 4.61m-80.354-6.619c0 1.14.822 2.411 2.969 2.411 2.755 0 5.644-2.251 5.644-4.583 0-1.564-1.325-2.438-2.968-2.438-2.57 0-5.645 2.173-5.645 4.61m16.777 3.31c0 1.14.821 2.411 2.967 2.411 2.756 0 5.644-2.252 5.644-4.584 0-1.563-1.325-2.438-2.968-2.438-2.57 0-5.643 2.173-5.643 4.61m376.616 79.425c0 1.14.822 2.412 2.968 2.412 2.755 0 5.644-2.253 5.644-4.584 0-1.564-1.325-2.439-2.968-2.439-2.57 0-5.644 2.174-5.644 4.611m-147.22-152.23c0 1.14.822 2.411 2.968 2.411 2.756 0 5.645-2.252 5.645-4.584 0-1.563-1.325-2.438-2.968-2.438-2.57 0-5.645 2.173-5.645 4.61M269.147 110.33c0 1.139.822 2.41 2.968 2.41 2.756 0 5.644-2.252 5.644-4.584 0-1.563-1.324-2.438-2.967-2.438-2.57 0-5.645 2.173-5.645 4.612M401.48 87.163c0 1.14.822 2.411 2.968 2.411 2.756 0 5.645-2.252 5.645-4.584 0-1.563-1.325-2.438-2.969-2.438-2.57 0-5.644 2.173-5.644 4.611M174.524 24.285c0 1.14.821 2.411 2.969 2.411 2.755 0 5.643-2.252 5.643-4.584 0-1.563-1.324-2.438-2.967-2.438-2.57 0-5.645 2.173-5.645 4.61M385.793 159.97c0 1.14.82 2.411 2.967 2.411 2.756 0 5.644-2.253 5.644-4.585 0-1.563-1.325-2.437-2.968-2.437-2.57 0-5.643 2.172-5.643 4.61m-1.09-76.114c0 1.139.822 2.41 2.968 2.41 2.756 0 5.644-2.252 5.644-4.583 0-1.564-1.325-2.438-2.967-2.438-2.57 0-5.644 2.173-5.644 4.61m-228.196-46.33c0 1.139.821 2.411 2.967 2.411 2.756 0 5.644-2.253 5.644-4.584 0-1.563-1.325-2.438-2.967-2.438-2.57 0-5.644 2.173-5.644 4.61m203.032 56.26c0 1.14.822 2.41 2.968 2.41 2.756 0 5.644-2.251 5.644-4.583 0-1.564-1.325-2.438-2.968-2.438-2.57 0-5.644 2.173-5.644 4.61m276.186 82.734c0 1.14.821 2.412 2.967 2.412 2.756 0 5.644-2.253 5.644-4.584 0-1.564-1.325-2.439-2.967-2.439-2.57 0-5.644 2.174-5.644 4.611M342.765 97.091c0 1.14.821 2.411 2.967 2.411 2.756 0 5.644-2.252 5.644-4.584 0-1.563-1.325-2.438-2.967-2.438-2.57 0-5.644 2.173-5.644 4.61m-16.776 3.31c0 1.14.822 2.411 2.968 2.411 2.755 0 5.644-2.252 5.644-4.584 0-1.563-1.325-2.437-2.968-2.437-2.57 0-5.644 2.173-5.644 4.61m6.617 66.187c0 1.14.821 2.411 2.968 2.411 2.756 0 5.644-2.252 5.644-4.584 0-1.563-1.325-2.437-2.968-2.437-2.57 0-5.644 2.172-5.644 4.61m96.872-76.115c0 1.14.821 2.412 2.967 2.412 2.756 0 5.644-2.253 5.644-4.585 0-1.563-1.325-2.438-2.967-2.438-2.571 0-5.644 2.173-5.644 4.61m236.06-74.521c0 .08.027.212.212.291 1.14.371 3.418 1.802 5.14 4.744.478.821 1.246 1.96 1.246 4.16 0 1.907-.503 3.869-1.192 5.776-.053.159-.106.292-.08.398 0 .159.106.265.265.265.185 0 .318-.106.424-.292 1.193-2.12 1.642-4.584 1.642-6.995-.132-3.418-2.092-5.936-2.092-5.936.08 0-2.439-3.259-3.154-4.372-.98-1.51-1.43-3.02-1.484-3.127-.026-.08-.265-1.033-.265-1.033-.026-.106-.16-.212-.318-.212a.35.35 0 0 0-.344.344zm-303.704-3.31c0 .08.026.213.212.292 1.14.371 3.418 1.802 5.14 4.743.477.822 1.246 1.961 1.246 4.16 0 1.908-.504 3.87-1.192 5.777-.054.16-.107.291-.08.398 0 .158.106.265.265.265.185 0 .318-.107.424-.292 1.192-2.12 1.643-4.584 1.643-6.996-.132-3.418-2.094-5.935-2.094-5.935.08 0-2.437-3.26-3.153-4.372-.98-1.51-1.43-3.021-1.483-3.127-.027-.08-.265-1.034-.265-1.034-.027-.105-.16-.211-.318-.211a.35.35 0 0 0-.345.344zm166.645 101.512c0 .185.16.344.345.344.132 0 .291-.106.318-.211 0-.027.238-.955.265-1.034.026-.106.265-1.113 1.218-2.676 1.034-1.723 2.624-2.968 3.949-4.823 1.298-1.855 2.093-3.604 2.093-5.936 0-2.41-.556-4.425-1.96-6.995-.08-.186-.24-.291-.398-.291-.053 0-.106 0-.133.026-.132.053-.185.159-.185.318 0 .08.026.212.079.318 1.06 2.464 1.484 3.869 1.484 5.777 0 2.199-.768 3.338-1.245 4.16-1.722 2.941-4.505 4.372-5.618 4.742-.186.08-.212.213-.212.293zm-251.39-22.088c0 .08.028.212.213.291 1.14.372 3.418 1.802 5.14 4.744.477.82 1.246 1.96 1.246 4.16 0 1.908-.504 3.868-1.192 5.777-.053.158-.107.291-.08.397 0 .16.106.265.265.265.185 0 .318-.106.424-.292 1.193-2.12 1.642-4.584 1.642-6.995-.132-3.418-2.093-5.936-2.093-5.936.08 0-2.438-3.259-3.153-4.372-.98-1.51-1.43-3.02-1.484-3.127a64 64 0 0 1-.265-1.033c-.026-.106-.16-.212-.318-.212a.35.35 0 0 0-.345.345zm82.45 1.715v18.744h.663V93.78ZM164.45 16.524v18.827h.663V16.524Zm112.64 69.58v22.053h.663V86.103Zm124.39 1.057v18.713h.662V87.161Zm35.94-15.971V88.3h.663V71.19Zm16.777 1.633v18.786h.662V72.823ZM245.19 74.467V94.92h.662V74.467Zm64.368-67.872v22.137h.662V6.595ZM220.473 93.78v17.058h.662V93.78ZM470.97 74.457v20.462h.662V74.457Zm16.776 1.633v22.138h.662V76.09Zm-284.05 14.38v18.777h.662V90.471Zm300.825-14.348v22.106h.662V76.122Zm-325.988 11.04v22.053h.662V87.161Zm-4.01-62.878v18.744h.663V24.284ZM528.48 93.78v20.373h.662V93.78ZM146.433 14.928v17.113h.662V14.928Zm4.102 75.543v18.776h.662V90.471Zm418.029-14.35v22.107h.662V76.122Zm25.163 3.31v18.797h.662V79.431ZM133.76 93.781v17.057h.662V93.78Zm476.743-14.35v18.797h.662V79.431Zm-501.907 14.35v18.743h.662V93.78ZM627.28 74.466V94.92h.662V74.467Zm-527.516 3.34V94.92h.662V77.808Zm552.679-1.716v18.828h.662V76.09Zm16.776-1.593V91.61h.662V74.5ZM82.988 79.4v18.83h.662v-18.83Zm36.42-72.774v22.107h.662V6.625ZM57.824 76.122v22.106h.662V76.122Zm0 64.557v17.117h.662V140.68zm21.86 1.638v18.789h.662v-18.79ZM227.51 5v17.113h.662V5ZM101.546 143.955v20.46h.662v-20.46zm21.86 1.638v22.132h.662v-22.132ZM665.538 9.988V32.04h.662V9.988Zm-314.831 67.82v17.11h.662v-17.11Zm-95.2-76.117v17.113h.662V1.691Zm-110.24 147.237v22.106h.662v-22.106zm24.849 4.421v20.423h.662v-20.423zm21.86 3.309v18.72h.662v-18.72ZM91.41 11.59V32.04h.662V11.59Zm510.27 1.654v22.107h.662V13.244ZM223.302 153.35v22.054h.662v-22.054Zm360.36-136.825v18.827h.662V16.524ZM264.035 143.988v17.118h.662v-17.118zm21.862 1.606v18.821h.662v-18.82ZM565.646 14.928v17.113h.662V14.928Zm-257.889 130.69v22.107h.662v-22.107ZM538.62 6.625v22.107h.662V6.625ZM273.524 3.326v18.787h.662V3.326Zm67.024 142.268v18.821h.662v-18.82zm21.861-1.606v17.118h.662v-17.118Zm140.27-119.704v18.764h.662V24.284ZM73.393 11.59V32.04h.662V11.59Zm411.27 2.766v29.782h.661V14.356ZM393.733 140.68v17.117h.662V140.68Zm72.912-116.395v20.944h.662V24.284Zm-51.05 118.033v18.789h.662v-18.79zm21.86 1.638v20.46h.662v-20.46ZM448.63 30.903v15.415h.662V30.903Zm10.688 114.69v22.132h.662v-22.132ZM438.554 11.56v20.481h.662v-20.48zm42.624 137.368v22.106h.662v-22.106zm32.791-4.94v17.118h.662v-17.118ZM420.538 9.964v18.768h.662V9.964Zm115.292 135.63v18.821h.662v-18.82ZM393.512 4.971v20.452h.662V4.97ZM291.54 4.96v20.462h.662V4.96Zm42.39 74.438v18.83h.662v-18.83zm-25.163-3.277v22.106h.662V76.122Zm53.066-69.444v22.054h.662V6.678Zm22.87 77.175v20.43h.662v-20.43Zm182.451 61.765v22.107h.662v-22.107zm32.792 8.298v17.118h.662v-17.118ZM327.575 9.935V32.04h.662V9.935Zm294.232 145.587v18.822h.662v-18.822ZM209.492 6.596v18.827h.662V6.596Zm434.176 145.641v22.107h.662v-22.107zm-89.095-54.91 2.358-.477v4.372l-2.358.503zm4.107-.821c.159-.027.292-.212.292-.37V94.57c0-.213-.16-.371-.372-.371h-.052l-.875.185v-3.948h-.742v4.107l-2.358.477v-3.736h-.742v3.895l-1.033.212c-.16.026-.292.212-.292.371V97.3c0 .212.16.371.371.371h.08l.874-.186v4.373l-1.033.211c-.16.027-.292.212-.292.372v1.537c0 .211.16.37.371.37h.08l.874-.185v3.948h.742v-4.107l2.358-.477v3.736h.742v-3.895l1.007-.185c.159-.027.292-.212.292-.372v-1.563c0-.212-.16-.37-.372-.37h-.052l-.875.185V96.69zm-372.753 57.08 2.358-.477v4.373l-2.358.503zm4.108-.821c.158-.026.291-.212.291-.37v-1.564a.363.363 0 0 0-.371-.372h-.053l-.874.186v-3.948h-.742v4.107l-2.359.477v-3.736h-.742v3.895l-1.033.212c-.159.027-.292.212-.292.37v1.538c0 .212.16.37.372.37h.079l.874-.184v4.371l-1.033.213c-.159.026-.292.212-.292.37v1.537c0 .212.16.372.372.372h.079l.874-.186v3.948h.742v-4.107l2.359-.477v3.737h.742v-3.896l1.007-.186c.158-.026.291-.212.291-.37v-1.564a.363.363 0 0 0-.371-.371h-.053l-.874.185v-4.371zM679.809 9.571v27.202H681V9.571Zm-441.709 0v27.202h1.192V9.571Zm411.224 16.91c0-.768-.61-1.404-1.378-1.404s-1.378.636-1.378 1.405c0 .768.61 1.404 1.378 1.404.769 0 1.378-.636 1.378-1.404m0-6.62c0-.768-.61-1.403-1.378-1.403s-1.378.635-1.378 1.404.61 1.404 1.378 1.404c.769 0 1.378-.636 1.378-1.404M642.928 9.57v27.202h1.192V9.571Zm-6.089 0v27.202h3.64V9.571Zm0 0v27.202h3.64V9.571Zm-3.64 0v27.202h1.19V9.571Zm-2.447 16.91c0-.768-.61-1.404-1.378-1.404-.769 0-1.378.636-1.378 1.405 0 .768.609 1.404 1.378 1.404s1.378-.636 1.378-1.404m0-6.62c0-.768-.61-1.403-1.378-1.403-.769 0-1.378.635-1.378 1.404s.609 1.404 1.378 1.404 1.378-.636 1.378-1.404M521.213 9.57v27.202h1.191V9.571ZM169.07 79.067v27.203h1.191V79.067Zm122.292 0v27.203h1.191V79.067Zm385.999 69.496v27.203H681v-27.203zm-3.64 0v27.203h1.191v-27.203zm-2.447 16.911c0-.768-.61-1.404-1.378-1.404-.769 0-1.378.636-1.378 1.404 0 .769.61 1.404 1.378 1.404s1.378-.635 1.378-1.404m0-6.619c0-.768-.61-1.404-1.378-1.404-.769 0-1.378.636-1.378 1.404 0 .769.61 1.405 1.378 1.405s1.378-.636 1.378-1.405m-251.26-79.788v27.203h1.19V79.067Zm127 0v27.203h1.19V79.067Zm132.796 0v27.203H681V79.067ZM102 9.571v27.202h1.191V9.571Zm111.836 138.992v27.203h1.192v-27.203zm162.49 0v27.203h1.192v-27.203zm173.422 0v27.203h1.19v-27.203ZM376.105 9.571v27.202h1.191V9.571ZM0 175.039v.727h681v-.727zm0-6.62v.729h681v-.728zm0-6.618v.728h681v-.728zm0-6.619v.728h681v-.728zm0-6.618v.728h681v-.728zm0-43.022v.728h681v-.728zm0-6.618v.727h681v-.727zm0-6.62v.728h681v-.727zm0-6.618v.727h681v-.727Zm0-6.618v.727h681v-.727Zm0-43.022v.728h681v-.728zm0-6.619v.728h681v-.728zm0-6.619v.728h681v-.728zm0-6.618v.727h681v-.727ZM0 9.57v.728h681V9.57Z"/>
</svg>
