<?xml version="1.0" encoding="utf-8"?>
<svg xmlns="http://www.w3.org/2000/svg" xmlns:svg="http://www.w3.org/2000/svg" version="1.1" viewBox="0 0 681 187">
	<title>The musical score for Air V</title>
	<path d="M328.062 75.797c0 .741.583 1.325 1.325 1.325s1.325-.584 1.325-1.325c0-.742-.583-1.325-1.325-1.325s-1.325.583-1.325 1.325m240.33 19.856c0 .741.583 1.325 1.326 1.325.742 0 1.324-.584 1.324-1.325 0-.742-.582-1.325-1.324-1.325s-1.325.583-1.325 1.325m-293.612 0c0 .741.584 1.325 1.325 1.325.742 0 1.325-.584 1.325-1.325 0-.742-.583-1.325-1.325-1.325-.74 0-1.325.583-1.325 1.325M38.457 108.885l19.342-1.655v3.321l-19.342 1.655zm-4.788-76.092v1.96H31.47c-.185 0-.37.16-.37.37v.504c0 .212.185.372.37.372H39.5c.212 0 .371-.16.371-.372v-.503c0-.212-.159-.37-.371-.37h-2.385v-1.961H39.5c.212 0 .371-.186.371-.398v-.504a.38.38 0 0 0-.371-.37h-2.385v-4.214c0-.16-.08-.291-.185-.344l-.318-.16c-.053-.026-.08-.026-.132-.026-.106 0-.213 0-.292.08l-2.411 2.2a.4.4 0 0 0-.107.29v2.174h-3.073s2.968-3.18 6.095-7.367a.58.58 0 0 0 .132-.37.44.44 0 0 0-.08-.266l-.582-.583c-.08-.053-.16-.106-.265-.106h-3.949c-.185 0-.317.159-.344.318 0 0-.133 1.961-.822 4.107-.688 2.147-1.483 3.472-2.173 4.452 0 0-.079.132-.079.292 0 .052 0 .105.027.158.079.186.265.477.265.477s.052.16.29.16zm.795-11.067c-.875 0-1.59-1.192-1.59-2.676s.715-2.703 1.59-2.703c.874 0 1.616 1.219 1.616 2.703s-.742 2.676-1.616 2.676m.98-6.625c-1.617 0-2.2.477-2.57.875-.08-.557-.133-.98-.133-1.405 0-1.51.53-3.47 2.385-3.47.662 0 1.06.211 1.325.503-.557.238-1.008.954-1.008 1.563 0 .954.743 1.696 1.697 1.696.953 0 1.722-.742 1.722-1.696v-.08c0-.238-.053-.635-.159-.847-.345-.954-1.458-2.359-4.107-2.359-2.385 0-4.107 2.28-4.637 3.498a9.4 9.4 0 0 0-.663 3.418c0 1.617.45 3.445 2.014 4.823 1.536 1.166 2.517 1.219 3.445 1.219s4.398-1.087 4.398-4.16c0-2.597-2.04-3.578-3.71-3.578m-19.35 19.823a7.7 7.7 0 0 1-1.537.16c-3.789 0-7.022-2.65-7.022-6.651 0-3.234 2.28-6.122 4.611-8.135.45-.398.875-.769 1.272-1.166.238 1.43.424 2.676.61 3.762-2.412.716-4.055 3.26-4.055 5.75 0 1.855 1.458 4.4 3.577 4.4.212 0 .451-.107.451-.345 0-.239-.265-.372-.583-.583-1.033-.636-1.616-1.325-1.616-2.623 0-1.617 1.192-2.915 2.755-3.287zm-2.332-27.24c.239-1.06 1.458-3.842 2.836-3.842.397 0 1.033 1.299 1.033 3.127 0 2.756-2.04 4.823-3.869 6.625-.159-1.06-.291-2.094-.291-3.207 0-.98.08-1.881.291-2.703m6.095 22.339c0 1.881-.768 3.815-2.65 4.584a882 882 0 0 1-1.457-8.559c2.385 0 4.107 1.616 4.107 3.975M8.196 43.06c0 1.748 1.352 4.054 4.93 4.054 1.245 0 2.331-.318 3.285-.901 1.431-1.007 1.802-2.756 1.802-4.425 0-1.034-.159-2.226-.424-3.737-.08-.53-.238-1.325-.397-2.358 2.597-.848 4.53-3.55 4.53-6.28 0-4.001-2.834-6.704-6.703-6.704-.265-1.59-.53-3.153-.769-4.637 2.81-2.942 4.744-6.254 4.744-10.467 0-2.411-.742-4.372-1.166-5.326C17.392.927 16.623 0 16.146 0c-.185 0-1.007.318-1.881 1.351-1.696 2.014-2.173 5.406-2.173 7.632 0 1.43.133 2.73.583 5.697-.026.026-1.404 1.43-1.96 1.881-2.412 2.253-5.75 5.459-5.75 10.758 0 4.956 4.318 8.851 9.247 8.851.768 0 1.484-.08 2.093-.186.504 2.545.795 4.4.795 5.804 0 2.755-1.404 4.213-4.08 4.213-.636 0-1.193-.133-1.246-.133-.026-.026-.08-.053-.08-.08 0-.052.054-.079.133-.105 1.246-.186 2.49-1.246 2.49-2.941 0-1.432-1.085-2.941-3.073-2.941-1.855 0-3.047 1.51-3.047 3.259m7.896 130.857a7.7 7.7 0 0 1-1.537.16c-3.789 0-7.022-2.65-7.022-6.652 0-3.233 2.28-6.12 4.611-8.135.45-.398.875-.768 1.272-1.165.238 1.43.424 2.676.61 3.762-2.412.715-4.055 3.26-4.055 5.75 0 1.855 1.458 4.399 3.577 4.399.212 0 .451-.106.451-.344 0-.239-.265-.372-.583-.583-1.033-.637-1.616-1.325-1.616-2.624 0-1.616 1.192-2.914 2.755-3.286zm-2.332-27.24c.239-1.06 1.458-3.842 2.836-3.842.397 0 1.033 1.299 1.033 3.127 0 2.755-2.04 4.822-3.869 6.624-.159-1.06-.291-2.093-.291-3.206 0-.98.08-1.882.291-2.703m6.095 22.338c0 1.882-.768 3.816-2.65 4.584a882 882 0 0 1-1.457-8.558c2.385 0 4.107 1.616 4.107 3.974m-11.66 13.037c0 1.749 1.352 4.054 4.93 4.054 1.245 0 2.331-.318 3.285-.9 1.431-1.007 1.802-2.757 1.802-4.426 0-1.033-.159-2.225-.424-3.736-.08-.53-.238-1.325-.397-2.358 2.597-.848 4.53-3.55 4.53-6.28 0-4.002-2.834-6.704-6.703-6.704-.265-1.59-.53-3.154-.769-4.637 2.81-2.942 4.744-6.254 4.744-10.467 0-2.412-.742-4.372-1.166-5.326-.636-1.352-1.405-2.28-1.882-2.28-.185 0-1.007.319-1.881 1.352-1.696 2.014-2.173 5.406-2.173 7.631 0 1.432.133 2.73.583 5.698-.026.026-1.404 1.43-1.96 1.881-2.412 2.252-5.75 5.458-5.75 10.758 0 4.955 4.318 8.85 9.247 8.85.768 0 1.484-.079 2.093-.185.504 2.544.795 4.399.795 5.803 0 2.756-1.404 4.213-4.08 4.213-.636 0-1.193-.132-1.246-.132-.026-.027-.08-.053-.08-.08 0-.053.054-.079.133-.105 1.246-.186 2.49-1.246 2.49-2.942 0-1.431-1.085-2.94-3.073-2.94-1.855 0-3.047 1.509-3.047 3.258m7.896-77.631a7.7 7.7 0 0 1-1.537.159c-3.789 0-7.022-2.65-7.022-6.65 0-3.234 2.28-6.122 4.611-8.136.45-.398.875-.769 1.272-1.166.238 1.43.424 2.677.61 3.763-2.412.715-4.055 3.259-4.055 5.75 0 1.854 1.458 4.398 3.577 4.398.212 0 .451-.105.451-.344 0-.238-.265-.371-.583-.583-1.033-.636-1.616-1.325-1.616-2.623 0-1.616 1.192-2.915 2.755-3.286zm-2.332-27.24c.239-1.06 1.458-3.842 2.836-3.842.397 0 1.033 1.298 1.033 3.127 0 2.755-2.04 4.822-3.869 6.624-.159-1.06-.291-2.093-.291-3.206 0-.98.08-1.882.291-2.703m6.095 22.338c0 1.881-.768 3.815-2.65 4.584a882 882 0 0 1-1.457-8.559c2.385 0 4.107 1.617 4.107 3.975m-11.66 13.037c0 1.748 1.352 4.054 4.93 4.054 1.245 0 2.331-.318 3.285-.9 1.431-1.008 1.802-2.757 1.802-4.426 0-1.034-.159-2.226-.424-3.736-.08-.53-.238-1.325-.397-2.359 2.597-.847 4.53-3.55 4.53-6.28 0-4.001-2.834-6.704-6.703-6.704-.265-1.59-.53-3.153-.769-4.637 2.81-2.942 4.744-6.253 4.744-10.467 0-2.411-.742-4.372-1.166-5.326-.636-1.351-1.405-2.279-1.882-2.279-.185 0-1.007.319-1.881 1.351-1.696 2.015-2.173 5.406-2.173 7.632 0 1.431.133 2.73.583 5.698-.026.026-1.404 1.43-1.96 1.88-2.412 2.253-5.75 5.459-5.75 10.759 0 4.955 4.318 8.85 9.247 8.85.768 0 1.484-.079 2.093-.185.504 2.544.795 4.399.795 5.803 0 2.755-1.404 4.213-4.08 4.213-.636 0-1.193-.133-1.246-.133-.026-.026-.08-.053-.08-.08 0-.052.054-.078.133-.105 1.246-.185 2.49-1.245 2.49-2.941 0-1.431-1.085-2.941-3.073-2.941-1.855 0-3.047 1.51-3.047 3.259m398.716-25.718c0 1.14.821 2.41 2.967 2.41 2.757 0 5.645-2.251 5.645-4.583 0-1.564-1.325-2.438-2.968-2.438-2.57 0-5.644 2.173-5.644 4.61m79.722 76.116c0 1.139.821 2.411 2.968 2.411 2.755 0 5.644-2.252 5.644-4.584 0-1.563-1.325-2.438-2.968-2.438-2.57 0-5.644 2.173-5.644 4.61M589.573 21.818a.99.99 0 0 1-1.06-.954c0-1.299 4.45-3.578 5.696-3.578.637 0 1.06.371 1.06.954 0 1.325-4.478 3.578-5.696 3.578m3.656-5.777c-2.57 0-5.644 2.146-5.644 4.61 0 1.14.821 2.412 2.968 2.412 2.756 0 5.644-2.252 5.644-4.584 0-1.563-1.325-2.438-2.968-2.438M457.032 156.334c0 1.14.821 2.411 2.967 2.411 2.756 0 5.644-2.252 5.644-4.584 0-1.563-1.325-2.438-2.967-2.438-2.571 0-5.644 2.173-5.644 4.61M630.038 21.818a.99.99 0 0 1-1.06-.954c0-1.299 4.452-3.578 5.698-3.578.635 0 1.06.371 1.06.954 0 1.325-4.479 3.578-5.698 3.578m3.657-5.777c-2.57 0-5.644 2.146-5.644 4.61 0 1.14.821 2.412 2.968 2.412 2.756 0 5.643-2.252 5.643-4.584 0-1.563-1.324-2.438-2.967-2.438M427.428 159.643c0 1.14.822 2.412 2.968 2.412 2.755 0 5.644-2.252 5.644-4.584 0-1.564-1.325-2.438-2.968-2.438-2.57 0-5.644 2.173-5.644 4.61M89.076 44.983a.99.99 0 0 1-1.06-.955c0-1.298 4.451-3.577 5.697-3.577.635 0 1.06.371 1.06.954 0 1.325-4.478 3.578-5.697 3.578m3.656-5.777c-2.57 0-5.644 2.146-5.644 4.61 0 1.14.822 2.411 2.968 2.411 2.756 0 5.645-2.252 5.645-4.584 0-1.563-1.325-2.437-2.969-2.437m305.093 123.747c0 1.139.821 2.411 2.967 2.411 2.757 0 5.644-2.252 5.644-4.584 0-1.563-1.325-2.438-2.967-2.438-2.57 0-5.644 2.173-5.644 4.61M127.555 40.508c0 1.14.82 2.41 2.967 2.41 2.756 0 5.644-2.251 5.644-4.583 0-1.563-1.325-2.438-2.968-2.438-2.57 0-5.644 2.173-5.644 4.61m240.667 125.756c0 1.14.822 2.411 2.968 2.411 2.756 0 5.645-2.251 5.645-4.583 0-1.564-1.325-2.438-2.969-2.438-2.57 0-5.644 2.173-5.644 4.61M352.837 30.58c0 1.14.822 2.411 2.968 2.411 2.756 0 5.645-2.252 5.645-4.584 0-1.563-1.325-2.438-2.969-2.438-2.57 0-5.644 2.173-5.644 4.611m163.4 138.993c0 1.139.823 2.41 2.97 2.41 2.755 0 5.643-2.252 5.643-4.583 0-1.563-1.325-2.438-2.968-2.438-2.57 0-5.644 2.173-5.644 4.61m7.928-138.992c0 1.14.82 2.411 2.967 2.411 2.756 0 5.645-2.252 5.645-4.584 0-1.563-1.325-2.438-2.968-2.438-2.57 0-5.644 2.173-5.644 4.611M329.153 169.572c0 1.139.821 2.41 2.968 2.41 2.756 0 5.644-2.252 5.644-4.583 0-1.563-1.325-2.438-2.967-2.438-2.57 0-5.645 2.173-5.645 4.61m168.036-145.61c0 1.138.821 2.41 2.967 2.41 2.756 0 5.644-2.252 5.644-4.584 0-1.563-1.325-2.438-2.967-2.438-2.571 0-5.644 2.173-5.644 4.611M286.736 170.737a.99.99 0 0 1-1.06-.953c0-1.299 4.451-3.578 5.697-3.578.635 0 1.06.37 1.06.954 0 1.325-4.479 3.577-5.697 3.577m3.656-5.776c-2.57 0-5.644 2.146-5.644 4.61 0 1.14.822 2.412 2.968 2.412 2.756 0 5.645-2.253 5.645-4.584 0-1.563-1.325-2.438-2.969-2.438M38.457 93.456c0 1.14.821 2.412 2.967 2.412 2.757 0 5.645-2.252 5.645-4.584 0-1.564-1.325-2.438-2.968-2.438-2.57 0-5.644 2.173-5.644 4.61m216.688 62.878c0 1.14.821 2.411 2.967 2.411 2.757 0 5.645-2.252 5.645-4.584 0-1.563-1.325-2.438-2.968-2.438-2.57 0-5.644 2.173-5.644 4.61M470.21 17.342c0 1.14.821 2.412 2.968 2.412 2.756 0 5.644-2.253 5.644-4.584 0-1.564-1.325-2.438-2.968-2.438-2.57 0-5.644 2.173-5.644 4.61m-244.67 142.302c0 1.14.822 2.412 2.968 2.412 2.756 0 5.645-2.252 5.645-4.584 0-1.564-1.325-2.438-2.968-2.438-2.57 0-5.645 2.173-5.645 4.61M57.137 90.147c0 1.14.821 2.411 2.968 2.411 2.756 0 5.644-2.252 5.644-4.584 0-1.563-1.325-2.437-2.968-2.437-2.57 0-5.644 2.172-5.644 4.61m138.801 72.806c0 1.139.822 2.411 2.968 2.411 2.756 0 5.644-2.252 5.644-4.584 0-1.563-1.325-2.438-2.967-2.438-2.57 0-5.645 2.173-5.645 4.61M325.86 27.27c0 1.139.822 2.41 2.968 2.41 2.756 0 5.644-2.252 5.644-4.583 0-1.564-1.325-2.438-2.968-2.438-2.57 0-5.644 2.173-5.644 4.61M85.281 86.839c0 1.14.822 2.41 2.968 2.41 2.756 0 5.645-2.251 5.645-4.583 0-1.564-1.325-2.438-2.968-2.438-2.57 0-5.645 2.173-5.645 4.61m28.02 6.62c0 1.139.823 2.41 2.969 2.41 2.755 0 5.644-2.251 5.644-4.583 0-1.564-1.325-2.438-2.968-2.438-2.57 0-5.645 2.173-5.645 4.61m43.57 66.187c0 1.14.82 2.412 2.967 2.412 2.756 0 5.644-2.252 5.644-4.584 0-1.564-1.325-2.438-2.968-2.438-2.57 0-5.644 2.173-5.644 4.61m-15.548-59.568c0 1.14.822 2.412 2.968 2.412 2.755 0 5.644-2.253 5.644-4.584 0-1.564-1.325-2.439-2.968-2.439-2.57 0-5.644 2.174-5.644 4.611m-26.87 57.425a.99.99 0 0 1-1.06-.954c0-1.298 4.453-3.577 5.697-3.577.637 0 1.06.37 1.06.954 0 1.325-4.478 3.577-5.696 3.577m3.657-5.776c-2.571 0-5.645 2.146-5.645 4.61 0 1.14.821 2.411 2.968 2.411 2.756 0 5.644-2.252 5.644-4.584 0-1.563-1.325-2.437-2.967-2.437m51.232-61.577c0 1.14.822 2.411 2.968 2.411 2.755 0 5.644-2.252 5.644-4.584 0-1.563-1.325-2.437-2.968-2.437-2.57 0-5.644 2.172-5.644 4.61m-86.48 62.877c0 1.14.822 2.412 2.968 2.412 2.755 0 5.644-2.252 5.644-4.584 0-1.564-1.325-2.438-2.968-2.438-2.57 0-5.644 2.173-5.644 4.61m114.5-66.186c0 1.14.821 2.41 2.968 2.41 2.756 0 5.644-2.251 5.644-4.583 0-1.564-1.325-2.438-2.968-2.438-2.57 0-5.644 2.173-5.644 4.61M40.444 150.882a.99.99 0 0 1-1.06-.954c0-1.298 4.452-3.577 5.697-3.577.637 0 1.06.37 1.06.954 0 1.325-4.478 3.577-5.697 3.577m3.657-5.776c-2.57 0-5.644 2.146-5.644 4.61 0 1.14.821 2.412 2.967 2.412 2.757 0 5.645-2.253 5.645-4.585 0-1.562-1.325-2.437-2.968-2.437m181.281-61.577c0 1.14.821 2.412 2.968 2.412 2.756 0 5.644-2.253 5.644-4.585 0-1.563-1.325-2.437-2.968-2.437-2.57 0-5.644 2.172-5.644 4.61m329.924 82.734c0 1.14.821 2.411 2.968 2.411 2.756 0 5.644-2.251 5.644-4.583 0-1.564-1.325-2.438-2.968-2.438-2.57 0-5.644 2.173-5.644 4.61M443.234 20.651c0 1.14.822 2.411 2.968 2.411 2.755 0 5.644-2.252 5.644-4.584 0-1.563-1.325-2.438-2.968-2.438-2.57 0-5.644 2.173-5.644 4.61M233.427 31.746a.99.99 0 0 1-1.06-.954c0-1.298 4.452-3.577 5.697-3.577.636 0 1.06.37 1.06.954 0 1.325-4.478 3.577-5.697 3.577m3.657-5.777c-2.57 0-5.644 2.146-5.644 4.611 0 1.14.821 2.411 2.967 2.411 2.756 0 5.644-2.252 5.644-4.584 0-1.563-1.325-2.438-2.967-2.438M631.302 160.81a.99.99 0 0 1-1.06-.955c0-1.298 4.452-3.577 5.697-3.577.636 0 1.06.371 1.06.954 0 1.325-4.479 3.578-5.697 3.578m3.657-5.777c-2.57 0-5.645 2.146-5.645 4.61 0 1.14.822 2.412 2.969 2.412 2.755 0 5.644-2.252 5.644-4.584 0-1.564-1.325-2.438-2.968-2.438m16.83-71.505c0 1.14.821 2.412 2.967 2.412 2.756 0 5.644-2.253 5.644-4.585 0-1.563-1.325-2.437-2.967-2.437-2.57 0-5.644 2.172-5.644 4.61M264.855 97.932a.99.99 0 0 1-1.06-.954c0-1.298 4.45-3.578 5.696-3.578.637 0 1.06.372 1.06.955 0 1.325-4.478 3.577-5.696 3.577m3.656-5.777c-2.57 0-5.644 2.147-5.644 4.61 0 1.14.821 2.412 2.968 2.412 2.756 0 5.644-2.253 5.644-4.584 0-1.563-1.325-2.438-2.968-2.438m343.234 9.086a.99.99 0 0 1-1.06-.953c0-1.299 4.452-3.578 5.698-3.578.636 0 1.06.37 1.06.954 0 1.325-4.478 3.577-5.698 3.577m3.657-5.777c-2.57 0-5.644 2.147-5.644 4.611 0 1.14.822 2.412 2.968 2.412 2.756 0 5.644-2.253 5.644-4.584 0-1.564-1.325-2.439-2.968-2.439m-28.505 65.346a.99.99 0 0 1-1.06-.955c0-1.298 4.451-3.577 5.697-3.577.636 0 1.06.371 1.06.954 0 1.325-4.478 3.578-5.697 3.578m3.656-5.777c-2.57 0-5.643 2.146-5.643 4.61 0 1.14.82 2.412 2.967 2.412 2.756 0 5.645-2.252 5.645-4.584 0-1.564-1.325-2.438-2.969-2.438M416.257 23.96c0 1.14.821 2.411 2.967 2.411 2.757 0 5.645-2.252 5.645-4.584 0-1.563-1.325-2.438-2.969-2.438-2.57 0-5.643 2.173-5.643 4.611m142.208 77.281a.99.99 0 0 1-1.06-.953c0-1.299 4.452-3.578 5.698-3.578.635 0 1.06.37 1.06.954 0 1.325-4.479 3.577-5.698 3.577m3.657-5.777c-2.57 0-5.644 2.147-5.644 4.611 0 1.14.821 2.412 2.968 2.412 2.756 0 5.644-2.253 5.644-4.584 0-1.564-1.325-2.439-2.968-2.439M318.135 81.385a.99.99 0 0 1-1.06-.954c0-1.299 4.452-3.577 5.697-3.577.636 0 1.06.37 1.06.953 0 1.325-4.478 3.578-5.697 3.578m3.657-5.777c-2.57 0-5.645 2.147-5.645 4.611 0 1.14.822 2.412 2.968 2.412 2.756 0 5.645-2.253 5.645-4.585 0-1.564-1.325-2.438-2.968-2.438M271.905 27.27c0 1.139.822 2.41 2.969 2.41 2.755 0 5.643-2.252 5.643-4.583 0-1.564-1.325-2.438-2.967-2.438-2.57 0-5.645 2.173-5.645 4.61M53.1 43.817c0 1.14.821 2.411 2.967 2.411 2.757 0 5.645-2.252 5.645-4.584 0-1.563-1.325-2.437-2.968-2.437-2.57 0-5.644 2.172-5.644 4.61m465.894 43.022c0 1.14.822 2.41 2.968 2.41 2.756 0 5.644-2.251 5.644-4.583 0-1.564-1.325-2.438-2.968-2.438-2.57 0-5.644 2.173-5.644 4.61M156.52 38.365a.99.99 0 0 1-1.06-.955c0-1.298 4.452-3.577 5.697-3.577.636 0 1.06.371 1.06.954 0 1.325-4.478 3.578-5.697 3.578m3.657-5.777c-2.57 0-5.645 2.146-5.645 4.61 0 1.14.822 2.412 2.969 2.412 2.755 0 5.644-2.252 5.644-4.584 0-1.564-1.325-2.438-2.968-2.438m330.797 57.56c0 1.14.822 2.411 2.968 2.411 2.755 0 5.644-2.252 5.644-4.584 0-1.563-1.325-2.437-2.968-2.437-2.57 0-5.644 2.172-5.644 4.61M298.883 23.96c0 1.14.821 2.411 2.967 2.411 2.757 0 5.644-2.252 5.644-4.584 0-1.563-1.325-2.438-2.967-2.438-2.57 0-5.644 2.173-5.644 4.611m164.07 69.496c0 1.14.822 2.412 2.968 2.412 2.755 0 5.644-2.252 5.644-4.584 0-1.564-1.325-2.438-2.968-2.438-2.57 0-5.644 2.173-5.644 4.61M194.997 33.89c0 1.139.822 2.41 2.968 2.41 2.756 0 5.645-2.252 5.645-4.584 0-1.563-1.325-2.438-2.968-2.438-2.57 0-5.645 2.173-5.645 4.612m239.936 56.258c0 1.14.822 2.411 2.968 2.411 2.755 0 5.644-2.252 5.644-4.584 0-1.563-1.325-2.437-2.968-2.437-2.57 0-5.644 2.172-5.644 4.61m-56.04-6.619c0 1.14.821 2.412 2.967 2.412 2.757 0 5.645-2.253 5.645-4.585 0-1.563-1.325-2.437-2.968-2.437-2.57 0-5.644 2.172-5.644 4.61M560.608 27.27c0 1.139.821 2.41 2.968 2.41 2.755 0 5.644-2.252 5.644-4.583 0-1.564-1.325-2.438-2.968-2.438-2.57 0-5.644 2.173-5.644 4.61m-171.329 0c0 1.14.822 2.412 2.968 2.412 2.756 0 5.644-2.253 5.644-4.584 0-1.564-1.325-2.438-2.967-2.438-2.57 0-5.645 2.173-5.645 4.61m17.634 59.568v22.053h.662V86.837Zm56.04 6.619V112.2h.662V93.456Zm-164.07-69.497v18.744h.661V23.96Zm192.09 66.187v20.399h.662V90.146Zm28.02-3.31v22.054h.662V86.837Zm45.428-11.039v22.106h.662V75.797Zm-248.273 4.42v22.054h.662V80.218Zm301.553-4.42v22.106h.662V75.797Zm34.087 7.73v22.054h.662V83.527ZM279.848 4.646v20.452h.662V4.646Zm53.954 0v20.452h.662V4.646ZM95.031 19.538v22.106h.662V19.538ZM38.457 149.714v22.054h.662v-22.054Zm186.926-66.187v22.054h.662V83.527ZM82.862 153.024v22.053h.662v-22.053Zm114.5-66.187v22.053h.662V86.837Zm-84.897 69.496v22.053h.662v-22.053zm56.877-66.187v20.399h.662V90.146Zm-12.472 69.497v20.398h.662v-20.398zm-7.606-83.846v22.106h.662V75.797Zm-88.223-56.26v22.107h.662V19.538Zm52.26 73.919V112.2h.663V93.456ZM239.382 6.3v22.106h.663V6.301Zm-154.1 80.536v22.053h.663V86.837Zm110.657 76.115v18.744h.662v-18.744ZM360.78 6.301v22.106h.662V6.301ZM225.542 159.643v20.398h.662v-20.398ZM57.137 90.146v18.772h.662V90.146Zm198.008 66.187v22.053h.662v-22.053zm37.546-11.04V167.4h.662v-22.106ZM38.457 93.457v17.061h.662V93.456Zm298.639 51.838V167.4h.662v-22.106ZM162.474 12.919v22.106h.662V12.92Zm213.69 130.72v20.451h.662V143.64zm21.66 19.313v18.744h.663v-18.744zm29.604-3.31v20.4h.662v-20.4zm29.603-3.309v22.053h.662v-22.053ZM628.051 20.65v20.399h.662v-20.4ZM486.635 162.952v18.744h.662v-18.744ZM587.585 20.65v20.399h.662v-20.4ZM524.18 145.294V167.4h.662v-22.106ZM568.55 4.646v20.452h.662V4.646Zm-171.328 0v20.452h.662V4.646ZM135.497 16.229v22.106h.662V16.229ZM270.81 74.142v20.452h.662V74.142ZM532.108 6.301v22.106h.662V6.301ZM378.892 83.527v22.054h.662V83.527ZM497.188 23.96v18.744h.662V23.96Zm66.06 119.68v20.451h.663V143.64ZM470.212 17.34v22.054h.662V17.34Zm114.698 142.303v20.398h.662v-20.398ZM443.234 20.65v20.399h.662v-20.4Zm186.08 138.993v20.398h.663v-20.398ZM416.257 23.959v18.744h.662V23.96Zm18.677 66.187v20.399h.662V90.146ZM202.94 9.61v22.107h.662V9.61ZM84.904 42.174v1.059h12.974v-1.06Zm-33.99 0v1.059H63.89v-1.06Zm561.723-31.655c-7.848 0-15.687 1.326-19.665 4.05a.17.17 0 0 0-.02.103.17.17 0 0 0-.04.097l.021.009-.004.021a.17.17 0 0 0 .103.02.17.17 0 0 0 .097.04c3.86-1.6 11.69-2.421 19.508-2.421s15.647.82 19.507 2.42a.165.165 0 0 0 .157-.289c-3.978-2.724-11.817-4.05-19.664-4.05zm0 .33c6.902 0 13.806 1.061 17.976 3.128-4.263-1.256-11.114-1.87-17.976-1.87s-13.714.614-17.977 1.87c4.17-2.067 11.074-3.127 17.977-3.127m-19.572 3.857c7.829-5.362 31.314-5.362 39.142 0-7.828-3.244-31.313-3.244-39.142 0m18.865 131.106c-8.649 0-17.306 2.57-21.667 7.78a.165.165 0 0 0 .007.207v.013l.01.004.004.01.013-.002a.165.165 0 0 0 .207-.006c4.249-4.031 12.837-6.086 21.427-6.086s17.178 2.055 21.426 6.086a.165.165 0 0 0 .24-.226c-4.36-5.21-13.017-7.78-21.666-7.78zm0 .331c7.454 0 14.898 1.946 19.516 5.788-4.717-3.033-12.113-4.53-19.516-4.53s-14.798 1.497-19.515 4.53c4.618-3.842 12.062-5.788 19.515-5.788m-21.54 7.555c8.616-10.294 34.464-10.294 43.08 0-8.616-8.176-34.464-8.176-43.08 0M379.815 9.246v27.203h1.191V9.246Zm171.328 0v27.203h1.191V9.246Zm126.217 0v27.203H681V9.246Zm-3.64 0v27.203h1.191V9.246Zm-2.447 16.91c0-.768-.61-1.404-1.378-1.404-.769 0-1.378.636-1.378 1.405 0 .768.61 1.404 1.378 1.404s1.378-.636 1.378-1.404m0-6.62c0-.768-.61-1.404-1.378-1.404-.769 0-1.378.636-1.378 1.405 0 .768.61 1.404 1.378 1.404s1.378-.636 1.378-1.404M75.817 78.742v27.203h1.192V78.742ZM677.36 148.24v27.202H681V148.24zm-3.64 0v27.202h1.191V148.24ZM369.428 78.742v27.203h1.191V78.742ZM77.623 9.246v27.203h1.192V9.246Zm469.39 69.496v27.203h1.191V78.742Zm132.796 0v27.203H681V78.742ZM186.474 148.24v27.202h1.191V148.24zm172.283 0v27.202h1.19V148.24zm187.084 0v27.202h1.191V148.24ZM253.402 78.742v27.203h1.191V78.742ZM221.975 9.246v27.203h1.191V9.246ZM0 174.713v.728h681v-.728zm0-6.618v.728h681v-.728zm0-6.619v.728h681v-.728zm0-6.619v.728h681v-.728zm0-6.619v.728h681v-.728zm0-43.021v.728h681v-.728zm0-6.618v.727h681V98.6zm0-6.62v.729h681v-.728zm0-6.618v.728h681v-.728zm0-6.619v.728h681v-.728Zm0-43.021v.727h681v-.727zm0-6.619v.728h681v-.728zm0-6.619v.728h681v-.728zm0-6.618v.727h681v-.727Zm0-6.619v.728h681v-.728Z"/>
</svg>
