<?xml version="1.0" encoding="UTF-8" standalone="no"?>
<svg
   width="681"
   height="50.655186"
   version="1.2"
   id="svg73"
   xmlns="http://www.w3.org/2000/svg"
   xmlns:svg="http://www.w3.org/2000/svg"
   xmlns:rdf="http://www.w3.org/1999/02/22-rdf-syntax-ns#"
   xmlns:cc="http://creativecommons.org/ns#"
   xmlns:dc="http://purl.org/dc/elements/1.1/">
  <defs
     id="defs73" />
  <title
     id="title1">air_LVIII</title>
  <desc
     id="desc1">Generated by MuseScore Studio 4.7.3</desc>
  <path
     id="path73"
     class="NoteDot"
     d="m 163.9777,16.460525 c 0,0.741948 0.5828,1.324906 1.32491,1.324906 0.74211,0 1.32491,-0.582958 1.32491,-1.324906 0,-0.741947 -0.5828,-1.324906 -1.32491,-1.324906 -0.74211,0 -1.32491,0.582959 -1.32491,1.324906 m 470.60178,6.618686 c 0,0.741627 0.58279,1.325226 1.3249,1.325226 0.74131,0 1.32491,-0.583599 1.32491,-1.325226 0,-0.741948 -0.5836,-1.324906 -1.32491,-1.324906 -0.74211,0 -1.3249,0.582958 -1.3249,1.324906 m -320.5832,0 c 0,0.741627 0.5836,1.325226 1.3249,1.325226 0.74211,0 1.32491,-0.583599 1.32491,-1.325226 0,-0.741948 -0.5828,-1.324906 -1.32491,-1.324906 -0.7413,0 -1.3249,0.582958 -1.3249,1.324906 m 39.14036,14.885698 18.56229,1.654731 v 3.322272 L 353.13664,41.28718 v -3.322271 m 0,4.964194 18.56229,1.654731 v 3.322272 l -18.56229,-1.654731 v -3.322272 m -150.01857,-11.58312 18.56149,1.654732 v 3.322271 l -18.56149,-1.654731 v -3.322272 m 0,4.964194 18.56149,1.654732 v 3.322271 l -18.56149,-1.654731 v -3.322272 m 35.79967,3.312665 27.51161,-1.654731 v 3.315867 L 238.91774,42.93871 V 39.622842 M 53.098693,24.727057 71.660185,26.381789 v 3.323072 L 53.098693,28.05013 v -3.323073 m 0,4.964195 18.561492,1.654731 v 3.322272 L 53.098693,33.013523 V 29.691252 M 396.87935,9.8388777 424.39096,11.493529 v 3.315307 L 396.87935,13.154185 V 9.8388777 m 63.16399,6.6186853 27.51161,1.654652 v 3.315306 L 460.04334,19.77287 v -3.315307 m 53.69991,6.618686 27.51162,1.654811 v 3.315067 L 513.74325,26.391395 V 23.076249 M 567.44237,6.5205291 594.95398,3.2112264 v 3.333159 L 567.44237,9.8537679 V 6.5205291 M 88.898368,33.003917 116.40998,31.349986 v 3.315067 l -27.511612,1.654731 v -3.315867 m -55.228959,3.329476 v 1.961341 h -2.199104 c -0.185727,0 -0.370653,0.158509 -0.370653,0.370654 v 0.503544 c 0,0.212145 0.184926,0.370653 0.370653,0.370653 h 8.02869 c 0.212145,0 0.371454,-0.158508 0.371454,-0.370653 v -0.503544 c 0,-0.212145 -0.159309,-0.370654 -0.371454,-0.370654 h -2.384831 v -1.961341 h 2.384831 c 0.212145,0 0.371454,-0.184926 0.371454,-0.397071 v -0.503545 c 0,-0.185727 -0.159309,-0.370653 -0.371454,-0.370653 h -2.384831 v -4.213281 c 0,-0.159309 -0.07925,-0.291399 -0.184927,-0.345036 L 36.61062,30.345299 c -0.05284,-0.02642 -0.07925,-0.02642 -0.132091,-0.02642 -0.105672,0 -0.212145,0 -0.291399,0.07925 l -2.411249,2.199104 c -0.08005,0.08005 -0.106472,0.185727 -0.106472,0.291399 v 2.173486 h -3.073302 c 0,0 2.967629,-3.179774 6.094567,-7.366637 0.105673,-0.132891 0.132091,-0.264981 0.132091,-0.371454 0,-0.13209 -0.05284,-0.238563 -0.07925,-0.264981 l -0.582798,-0.582799 c -0.08005,-0.05284 -0.159309,-0.105672 -0.264981,-0.105672 -0.159309,0 -3.736155,0 -3.9483,0 -0.185727,0 -0.317817,0.158509 -0.344235,0.317818 0,0 -0.132891,1.96054 -0.822162,4.106808 -0.688471,2.147068 -1.483415,3.471973 -2.172686,4.451843 0,0 -0.07925,0.132891 -0.07925,0.2914 0,0.05364 0,0.106473 0.02642,0.159309 0.07925,0.185727 0.264981,0.477126 0.264981,0.477126 0,0 0.05284,0.158508 0.291399,0.158508 H 33.66942 M 36.409693,19.50396 c 2.11985,-0.821441 2.252741,-2.199344 2.252741,-2.67631 v -0.13249 c 0,-0.238483 -0.07925,-3.232771 -4.637571,-3.232771 -4.557517,0 -4.424626,3.232771 -4.424626,3.232771 h 0.02642 l -0.02642,0.053 c 0,0.953932 0.768526,1.695879 1.721978,1.695879 0.954252,0 1.69636,-0.741947 1.69636,-1.695879 0,-0.768446 -0.583599,-1.510393 -1.324906,-1.669382 l 0.07925,-0.07949 c 0.370653,-0.264981 0.874198,-0.397472 1.377742,-0.397472 1.112761,0 2.305576,0.662453 2.305576,2.093352 0,1.669381 -1.245651,1.907864 -1.563469,1.96086 -0.317817,0.053 -1.802032,0.158989 -2.119849,0.158989 -0.317817,0 -0.344236,0.370974 -0.344236,0.370974 v 0.529962 c 0,0 0.05284,0.291479 0.344236,0.317978 0.450708,0.0265 1.059925,0.0265 1.907704,0.158988 1.166398,0.158989 1.775614,0.953933 1.775614,2.808801 0,1.774973 -1.192815,2.2521 -2.305576,2.2521 -0.742108,0 -1.430578,-0.212145 -1.721978,-0.42349 0.874198,-0.05364 1.589888,-0.821362 1.589888,-1.69612 0,-0.953932 -0.742108,-1.722377 -1.69636,-1.722377 -0.953452,0 -1.721978,0.768445 -1.721978,1.722377 0,2.172446 1.986959,3.259589 3.9483,3.259589 2.543339,0 5.299624,-0.874998 5.299624,-3.763053 0,-1.934363 -1.324906,-2.755804 -2.491304,-3.126778 h 0.05284 M 16.093311,38.466051 c -0.529962,0.105673 -1.033427,0.158509 -1.536891,0.158509 -3.789231,0 -7.0220012,-2.649812 -7.0220012,-6.650948 0,-3.23261 2.2788382,-6.120985 4.6106722,-8.134362 0.450468,-0.397872 0.874438,-0.768765 1.27191,-1.166237 0.238483,1.431219 0.42397,2.67607 0.609457,3.762413 -2.411329,0.715689 -4.0542123,3.259828 -4.0542123,5.750331 0,1.854869 1.4573963,4.399008 3.5772463,4.399008 0.211985,0 0.450468,-0.106473 0.450468,-0.345036 0,-0.238563 -0.264982,-0.370653 -0.582959,-0.582798 -1.033427,-0.635635 -1.616385,-1.324906 -1.616385,-2.623394 0,-1.616305 1.192415,-2.914793 2.755804,-3.285446 l 1.536891,8.71796 M 13.761477,11.225826 c 0.238483,-1.059925 1.457396,-3.8422268 2.835298,-3.8422268 0.397472,0 1.033427,1.2984075 1.033427,3.1267778 0,2.755804 -2.040355,4.822657 -3.868725,6.624529 -0.158989,-1.059924 -0.29148,-2.093351 -0.29148,-3.206272 0,-0.98043 0.0795,-1.881366 0.29148,-2.702808 m 6.094567,22.337673 c 0,1.881287 -0.768446,3.81621 -2.649812,4.584735 -0.556461,-3.179774 -1.27191,-7.393055 -1.457397,-8.559452 2.384831,0 4.107209,1.616305 4.107209,3.974717 M 8.1968718,46.600413 c 0,1.749196 1.351404,4.054773 4.9286502,4.054773 1.245411,0 2.331834,-0.317818 3.285766,-0.901417 1.430899,-1.006288 1.801872,-2.755484 1.801872,-4.424625 0,-1.033507 -0.158988,-2.226322 -0.423969,-3.736155 -0.07949,-0.529962 -0.238484,-1.324905 -0.397472,-2.358412 2.596815,-0.84858 4.531178,-3.551228 4.531178,-6.280294 0,-4.001136 -2.835299,-6.703784 -6.704024,-6.703784 -0.264981,-1.589887 -0.529962,-3.153516 -0.768445,-4.637411 2.8088,-2.941291 4.743163,-6.253556 4.743163,-10.466756 0,-2.4113291 -0.741948,-4.3721895 -1.165917,-5.3261217 -0.635955,-1.351404 -1.404401,-2.2788382 -1.881367,-2.2788382 -0.185487,0 -1.006928,0.3179774 -1.881366,1.351404 -1.69588,2.013857 -2.172846,5.4056159 -2.172846,7.6314579 0,1.430898 0.132491,2.729306 0.582959,5.697095 -0.0265,0.0265 -1.404401,1.430899 -1.960861,1.881367 -2.4113287,2.25234 -5.7500916,5.458532 -5.7500916,10.758155 0,4.955389 4.3191932,8.850052 9.2478436,8.850052 0.768445,0 1.483894,-0.07926 2.093351,-0.184927 0.503464,2.543339 0.794943,4.398207 0.794943,5.803168 0,2.755484 -1.4044,4.213281 -4.08071,4.213281 -0.635955,0 -1.192415,-0.132891 -1.245411,-0.132891 -0.0265,-0.02642 -0.07949,-0.05284 -0.07949,-0.07925 0,-0.05284 0.053,-0.08006 0.132491,-0.106473 1.245412,-0.184926 2.490823,-1.244851 2.490823,-2.941211 0,-1.430578 -1.086423,-2.941211 -3.073782,-2.941211 -1.8548679,0 -3.0472832,1.510633 -3.0472832,3.259028 M 559.50014,47.357731 c 0,1.139179 0.82136,2.411249 2.96763,2.411249 2.75628,0 5.64466,-2.25274 5.64466,-4.583934 0,-1.563469 -1.32491,-2.438468 -2.96843,-2.438468 -2.56976,0 -5.64386,2.173486 -5.64386,4.611153 M 115.74793,14.264063 c 0,1.139419 0.82216,2.411329 2.96843,2.411329 2.75548,0 5.64385,-2.25234 5.64385,-4.584174 0,-1.563389 -1.3249,-2.4378271 -2.96762,-2.4378271 -2.57056,0 -5.64466,2.1728461 -5.64466,4.6106721 m -26.849562,3.309383 c 0,1.139419 0.821362,2.411329 2.967629,2.411329 2.756285,0 5.64466,-2.25234 5.64466,-4.584174 0,-1.563389 -1.324906,-2.437827 -2.967629,-2.437827 -2.570558,0 -5.64466,2.172845 -5.64466,4.610672 M 532.65058,47.357731 c 0,1.139179 0.82136,2.411249 2.96763,2.411249 2.75549,0 5.64386,-2.25274 5.64386,-4.583934 0,-1.563469 -1.32491,-2.438468 -2.96763,-2.438468 -2.57056,0 -5.64386,2.173486 -5.64386,4.611153 M 152.06316,20.882829 c 0,1.139419 0.82136,2.411329 2.96763,2.411329 2.75548,0 5.64385,-2.25234 5.64385,-4.584175 0,-1.563389 -1.3249,-2.437827 -2.96762,-2.437827 -2.57056,0 -5.64386,2.172846 -5.64386,4.610673 m 51.05491,-3.309383 c 0,1.139419 0.82136,2.411329 2.96762,2.411329 2.75549,0 5.64386,-2.25234 5.64386,-4.584174 0,-1.563389 -1.3249,-2.437827 -2.96763,-2.437827 -2.57055,0 -5.64385,2.172845 -5.64385,4.610672 m 383.23163,6.618846 c 0,1.139179 0.82136,2.411248 2.96843,2.411248 2.75548,0 5.64386,-2.25274 5.64386,-4.584254 0,-1.563389 -1.32491,-2.437827 -2.96763,-2.437827 -2.57056,0 -5.64466,2.172846 -5.64466,4.610833 m -80.54948,19.855976 c 0,1.139179 0.82217,2.411249 2.96843,2.411249 2.75549,0 5.64386,-2.25194 5.64386,-4.583934 0,-1.563469 -1.3249,-2.437667 -2.96763,-2.437667 -2.57055,0 -5.64466,2.172686 -5.64466,4.610352 M 221.0175,20.882829 c 0,1.139419 0.82137,2.411329 2.96843,2.411329 2.75549,0 5.64386,-2.25234 5.64386,-4.584175 0,-1.563389 -1.3249,-2.437827 -2.96763,-2.437827 -2.57055,0 -5.64466,2.172846 -5.64466,4.610673 m 257.93317,19.855976 c 0,1.139179 0.82136,2.411249 2.96762,2.411249 2.75629,0 5.64466,-2.25194 5.64466,-4.583934 0,-1.563469 -1.3249,-2.437667 -2.96843,-2.437667 -2.56975,0 -5.64385,2.172686 -5.64385,4.610352 M 238.91774,24.192292 c 0,1.139179 0.82136,2.411248 2.96763,2.411248 2.75549,0 5.64386,-2.25274 5.64386,-4.584254 0,-1.563389 -1.3249,-2.437827 -2.96763,-2.437827 -2.57056,0 -5.64386,2.172846 -5.64386,4.610833 m 213.18337,13.237051 c 0,1.139979 0.82136,2.411248 2.96763,2.411248 2.75548,0 5.64386,-2.251939 5.64386,-4.583934 0,-1.563469 -1.32491,-2.437667 -2.96763,-2.437667 -2.57056,0 -5.64386,2.172686 -5.64386,4.610353 M 265.7673,20.882829 c 0,1.139419 0.82136,2.411329 2.96763,2.411329 2.75629,0 5.64466,-2.25234 5.64466,-4.584175 0,-1.563389 -1.32491,-2.437827 -2.96843,-2.437827 -2.56976,0 -5.64386,2.172846 -5.64386,4.610673 M 53.098693,10.954761 c 0,1.139419 0.821362,2.411328 2.967629,2.411328 2.756285,0 5.64466,-2.25234 5.64466,-4.584174 0,-1.5633886 -1.324906,-2.4378265 -2.96843,-2.4378265 -2.569757,0 -5.643859,2.1728453 -5.643859,4.6106725 M 415.78668,34.11988 c 0,1.139979 0.82136,2.411248 2.96763,2.411248 2.75548,0 5.64386,-2.251939 5.64386,-4.583934 0,-1.563469 -1.32491,-2.437667 -2.96763,-2.437667 -2.57056,0 -5.64386,2.172686 -5.64386,4.610353 M 70.998933,14.264063 c 0,1.139419 0.821361,2.411329 2.967629,2.411329 2.755484,0 5.643859,-2.25234 5.643859,-4.584174 0,-1.563389 -1.324906,-2.4378271 -2.967629,-2.4378271 -2.570558,0 -5.643859,2.1728461 -5.643859,4.6106721 M 388.93632,30.811217 c 0,1.139179 0.82216,2.411249 2.96843,2.411249 2.75548,0 5.64386,-2.25274 5.64386,-4.584735 0,-1.563469 -1.32491,-2.437666 -2.96763,-2.437666 -2.57056,0 -5.64466,2.172685 -5.64466,4.611152 m -86.85459,-3.309462 c 0,1.139179 0.82136,2.411248 2.96763,2.411248 2.75629,0 5.64466,-2.25274 5.64466,-4.584734 0,-1.562669 -1.32491,-2.437427 -2.96763,-2.437427 -2.57056,0 -5.64466,2.172445 -5.64466,4.610913 m 68.95515,0 c 0,1.139179 0.82136,2.411248 2.96763,2.411248 2.75628,0 5.64386,-2.25274 5.64386,-4.584734 0,-1.562669 -1.32491,-2.437427 -2.96763,-2.437427 -2.56976,0 -5.64386,2.172445 -5.64386,4.610913 m 251.62725,-3.309463 c 0,1.139179 0.82216,2.411248 2.96843,2.411248 2.75548,0 5.64386,-2.25274 5.64386,-4.584254 0,-1.563389 -1.32491,-2.437827 -2.96763,-2.437827 -2.57056,0 -5.64466,2.172846 -5.64466,4.610833 m -269.52749,0 c 0,1.139179 0.82216,2.411248 2.96843,2.411248 2.75548,0 5.64386,-2.25274 5.64386,-4.584254 0,-1.563389 -1.32491,-2.437827 -2.96763,-2.437827 -2.57056,0 -5.64466,2.172846 -5.64466,4.610833 M 594.29228,4.9175379 V 22.020169 h 0.66217 V 4.9175379 Z M 353.13708,24.191499 v 20.428344 h 0.66201 V 24.191499 Z m 17.89942,3.308671 v 18.71514 h 0.66202 V 27.50017 Z M 396.87902,11.516425 V 28.63938 h 0.66201 V 11.516425 Z M 302.08217,27.50017 v 18.74484 h 0.66201 V 27.50017 Z M 70.998548,14.263147 v 18.71436 h 0.662013 V 14.263147 Z M 423.72847,13.131278 v 18.816773 h 0.66202 V 13.131278 Z M 53.099118,10.953853 V 31.38204 H 53.76113 V 10.953853 Z M 265.76765,20.881735 V 39.64613 h 0.66218 V 20.881735 Z m 194.27612,-2.746566 v 17.122329 h 0.66201 V 18.135169 Z m 26.84945,1.614854 v 18.816929 h 0.66217 V 19.750023 Z m -247.9758,4.441476 v 17.069327 h 0.66202 V 24.191499 Z m 274.82541,0.561944 v 17.122956 h 0.66201 V 24.753443 Z m -292.725,-3.871708 v 18.714673 h 0.66218 V 20.881735 Z M 115.74836,14.263147 v 18.763922 h 0.66201 V 14.263147 Z m 424.84408,12.105777 v 18.81693 h 0.66201 V 26.368924 Z M 203.11763,17.572441 v 20.4285 h 0.66202 v -20.4285 z M 567.44283,8.1472459 V 45.185854 h 0.66201 V 8.1472459 Z M 88.898752,17.572441 v 17.069324 h 0.662013 V 17.572441 Z m 63.163968,3.309294 v 22.053828 h 0.66202 V 20.881735 Z m 470.60177,3.309764 v 20.398788 h 0.66202 V 24.191499 Z m -65.34827,21.523933 v 1.059164 h 12.97371 v -1.059164 z m -26.8504,0 v 1.059164 h 12.97372 V 45.715432 Z M 215.3979,6.1597937 c -2.98902,0.1639393 -5.94587,1.5612611 -8.10632,4.2400863 a 0.16531304,0.16531304 0 0 0 0.002,0.01548 0.16531304,0.16531304 0 0 0 0.004,0.19873 0.16531304,0.16531304 0 0 0 0.0184,0.0088 0.16531304,0.16531304 0 0 0 9.6e-4,0.0095 0.16531304,0.16531304 0 0 0 0.0485,0.01423 0.16531304,0.16531304 0 0 0 0.0596,0.01751 0.16531304,0.16531304 0 0 0 0.058,-0.02048 0.16531304,0.16531304 0 0 0 0.048,-0.01689 c 2.33982,-2.0978464 5.72525,-3.0169569 9.04416,-2.8083263 3.31891,0.2086304 6.56235,1.5445038 8.62089,3.9187723 a 0.16532957,0.16532957 0 0 0 0.26565,-0.195133 C 223.13712,7.7771867 219.24099,5.9490143 215.39797,6.1597937 Z m 0.0194,0.3181863 c 3.19822,-0.177053 6.42982,1.1131419 8.71283,3.799942 -2.06479,-1.6680374 -4.77165,-2.6157107 -7.53484,-2.789407 -2.7629,-0.1736788 -5.56671,0.4275443 -7.8241,1.8235897 1.92825,-1.7634582 4.27595,-2.7029126 6.64611,-2.8341247 z m -7.99708,4.025752 c 4.87293,-6.0421307 13.82305,-5.479506 17.90024,1.12517 -4.18927,-4.8317838 -13.13859,-5.3944085 -17.90024,-1.12517 M 71.432277,0.00574182 C 66.32416,-0.09354447 61.302126,1.0924385 57.310125,3.7473626 a 0.16531304,0.16531304 0 0 0 -0.0028,0.01376 0.16531304,0.16531304 0 0 0 -0.05441,0.1960716 0.16531304,0.16531304 0 0 0 0.01407,0.00485 0.16531304,0.16531304 0 0 0 -0.003,0.014541 0.16531304,0.16531304 0 0 0 0.196543,0.052379 0.16531304,0.16531304 0 0 0 0.01329,0.00469 c 5.03694,-2.4450686 12.025598,-2.8559583 18.711386,-1.619858 6.685784,1.2361004 13.065602,4.1185969 16.895453,8.2029528 a 0.16532957,0.16532957 0 0 0 0.255334,-0.208893 C 89.630789,5.1988894 83.281624,1.7742182 76.534229,0.52672764 74.84738,0.2148544 73.135009,0.03884125 71.432301,0.00574582 Z m -0.0054,0.33147705 c 1.683791,0.0323933 3.377854,0.2059336 5.047195,0.51457026 C 82.31088,1.930935 87.838996,4.6603788 91.570443,8.7495329 87.640476,5.4671232 82.057835,3.1633529 76.24544,2.0887285 70.43305,1.0141073 64.395714,1.1695488 59.551994,2.8298608 63.083985,1.0557838 67.223271,0.25634917 71.426833,0.33721887 Z M 57.401635,3.8849671 C 67.955251,-3.133832 85.854687,0.17555073 93.20131,10.503732 85.469624,2.2582548 67.570188,-1.051128 57.401635,3.8849671 M 365.41704,12.778537 c -2.98892,0.16394 -5.94572,1.561265 -8.10617,4.240087 a 0.16531304,0.16531304 0 0 0 0.002,0.01548 0.16531304,0.16531304 0 0 0 0.004,0.198729 0.16531304,0.16531304 0 0 0 0.0174,9.37e-4 0.16531304,0.16531304 0 0 0 0.002,0.01736 0.16531304,0.16531304 0 0 0 0.19874,-0.0064 0.16531304,0.16531304 0 0 0 0.0155,8.01e-4 c 2.33941,-2.097794 5.72468,-3.016947 9.04369,-2.808327 3.31901,0.208621 6.56282,1.544508 8.62136,3.918774 a 0.16532957,0.16532957 0 0 0 0.26549,-0.195133 c -2.32457,-3.764868 -6.22056,-5.593054 -10.06344,-5.382275 z m 0.0194,0.318031 c 3.19792,-0.177043 6.42926,1.113134 8.71251,3.799629 -2.06476,-1.667749 -4.77151,-2.615422 -7.53452,-2.789095 -2.76307,-0.173676 -5.56703,0.427767 -7.82426,1.823904 1.92827,-1.763654 4.27605,-2.703219 6.64627,-2.834438 z m -7.99685,4.02585 c 4.87293,-6.042131 13.82225,-5.479507 17.90024,1.125169 -4.18926,-4.831784 -13.13938,-5.394328 -17.90024,-1.125169 m -64.82185,-4.33528 V 39.99027 h 1.19113 V 12.787138 Z m 150.01851,0 V 39.99027 h 1.19128 V 12.787138 Z m 170.56381,0 V 39.99027 h 1.19129 V 12.787138 Z m 64.15949,0 V 39.99027 h 3.64015 V 12.787138 Z m -3.63967,0 V 39.99027 H 674.911 V 12.787138 Z m -531.12159,0 V 39.99027 h 1.19128 V 12.787138 Z M 0,39.262268 v 0.727689 h 681 v -0.727689 z m 0,-6.619054 v 0.727682 h 681 v -0.727682 z m 0,-6.618902 v 0.72769 h 681 v -0.72769 z m 0,-6.618274 v 0.727685 h 681 v -0.727685 z m 0,-6.618744 v 0.727684 h 681 v -0.727684 z"
     style="stroke-width:0.0800547" />
  <metadata
     id="metadata73">
    <rdf:RDF>
      <cc:Work
         rdf:about="">
        <dc:title>air_LVIII</dc:title>
      </cc:Work>
    </rdf:RDF>
  </metadata>
</svg>
