<?xml version="1.0" encoding="utf-8"?>
<svg xmlns="http://www.w3.org/2000/svg" xmlns:svg="http://www.w3.org/2000/svg" version="1.1" viewBox="0 0 681 189">
	<title>The musical score for Air XXVII</title>
	<path d="M347.917 97.636c0 .742.584 1.325 1.325 1.325.742 0 1.325-.583 1.325-1.325s-.583-1.325-1.325-1.325c-.741 0-1.325.583-1.325 1.325m301.423 76.115c0 .742.583 1.325 1.325 1.325s1.325-.583 1.325-1.325-.583-1.325-1.325-1.325-1.325.583-1.325 1.325m-217.463-6.619c0 .742.583 1.325 1.325 1.325s1.325-.583 1.325-1.325-.583-1.325-1.325-1.325-1.325.583-1.325 1.325m70.208-145.611c0 .742.583 1.325 1.325 1.325s1.325-.583 1.325-1.325-.583-1.325-1.325-1.325-1.325.583-1.325 1.325m-287.671 152.23c0 .742.583 1.325 1.325 1.325s1.325-.583 1.325-1.325-.583-1.325-1.325-1.325-1.325.583-1.325 1.325m226.74-99.28h14.021v3.31h-14.021zm0-4.965h47.42v3.31h-47.42zM324.606 180.37h38.836v3.31h-38.836zm-57.26-4.963h38.835v3.309h-38.836zm240.607-95.973 40.74 1.655V84.4l-40.74-1.655zM347.42 11.591l38.323-1.654v3.312l-38.323 1.655zm-125.83 13.24h38.322v3.309h-38.323zM155.632 9.937l38.323 1.654v3.313l-38.323-1.655zm469.35-4.973 13.216 1.47v3.33l-13.215-1.47zm0-4.964 44.6 4.964v3.33l-44.6-4.964zm-380.68 79.435h40.74v3.31h-40.74zM99.141 4.973l38.322 1.654V9.94L99.14 8.285zm85.044 69.496 40.74 1.655v3.312l-40.74-1.655zm219.726-64.53h38.323v3.309H403.91zm146.1 138.992 38.836 1.654v3.312l-38.836-1.655zm-500.13 31.44h38.836v3.309H49.881zm7.943-95.982 14.021 1.655v3.332l-14.02-1.654zm0-4.964 14.02 1.655v3.332l-14.02-1.655zm57.26 67.853h38.836v3.31h-38.836zm377.666-3.31 38.836 1.654v3.313l-38.837-1.655zm61.522-107.553 13.215-.49v3.31l-13.215.492zm0 4.964 44.6-1.655v3.312l-44.6 1.655zM113.735 88.948c-.027 0-.08-.027-.106-.027-.16 0-.292.08-.344.212-.107.159-.928 1.722-2.12 2.597a2.85 2.85 0 0 1-1.193.53c.291-.345.477-.769.477-1.273a1.89 1.89 0 0 0-1.881-1.88c-1.06 0-1.908.848-1.908 1.88 0 1.432 1.404 2.094 2.65 2.094 1.404 0 2.331-.662 3.233-1.643l-3.022 9.434.716.212 3.71-11.686c.026-.027.026-.08.026-.132q0-.2-.238-.318M277.212 19.45c-.026 0-.08-.026-.106-.026-.16 0-.291.08-.344.212-.106.159-.928 1.722-2.12 2.597-.345.265-.768.45-1.193.53.292-.345.477-.769.477-1.272a1.89 1.89 0 0 0-1.88-1.882c-1.06 0-1.909.848-1.909 1.882 0 1.43 1.405 2.093 2.65 2.093 1.404 0 2.332-.663 3.233-1.643L273 31.376l.714.212 3.71-11.686c.026-.027.026-.08.026-.133q0-.198-.238-.318M133.774 88.948c-.027 0-.08-.027-.106-.027-.16 0-.291.08-.344.212-.107.159-.928 1.722-2.12 2.597a2.85 2.85 0 0 1-1.193.53c.292-.345.477-.769.477-1.273a1.89 1.89 0 0 0-1.88-1.88c-1.06 0-1.909.848-1.909 1.88 0 1.432 1.405 2.094 2.65 2.094 1.404 0 2.331-.662 3.233-1.643l-3.021 9.434.715.212 3.71-11.686c.026-.027.026-.08.026-.132q0-.2-.238-.318m513.03 0c-.026 0-.079-.027-.105-.027-.16 0-.291.08-.344.212-.107.159-.928 1.722-2.12 2.597a2.85 2.85 0 0 1-1.193.53c.291-.345.477-.769.477-1.273a1.89 1.89 0 0 0-1.881-1.88c-1.06 0-1.908.848-1.908 1.88 0 1.432 1.404 2.094 2.65 2.094 1.404 0 2.332-.662 3.233-1.643l-3.02 9.434.714.212 3.71-11.686c.026-.027.026-.08.026-.132q0-.2-.238-.318m-20.04 0c-.026 0-.079-.027-.105-.027-.16 0-.292.08-.345.212-.106.159-.927 1.722-2.12 2.597a2.85 2.85 0 0 1-1.192.53c.291-.345.477-.769.477-1.273a1.89 1.89 0 0 0-1.881-1.88c-1.06 0-1.908.848-1.908 1.88 0 1.432 1.404 2.094 2.65 2.094 1.404 0 2.33-.662 3.232-1.643l-3.021 9.434.716.212 3.71-11.686c.026-.027.026-.08.026-.132q0-.2-.239-.318M296.043 19.45c-.027 0-.08-.026-.106-.026-.159 0-.292.08-.345.212-.106.159-.927 1.722-2.12 2.597a2.85 2.85 0 0 1-1.192.53c.291-.345.477-.769.477-1.272a1.89 1.89 0 0 0-1.881-1.882c-1.06 0-1.908.848-1.908 1.882 0 1.43 1.404 2.093 2.65 2.093 1.404 0 2.332-.663 3.232-1.643l-3.02 9.434.715.212 3.71-11.686c.026-.027.026-.08.026-.133q0-.198-.238-.318M46.657 30.178c-1.8-.583-3.789-1.457-3.789-2.65 0-1.033.955-1.457 2.094-1.457 1.643 0 2.755.768 2.755 1.987 0 1.272-.582 1.881-1.06 2.12m-1.695 6.28c-1.696 0-3.153-.928-3.153-2.411 0-1.776 1.377-2.2 1.377-2.2 1.802.61 4.373 1.51 4.373 2.968 0 .715-.928 1.643-2.597 1.643m3.18-5.564c.874-.663 1.484-1.511 1.484-2.571 0-1.908-2.094-3.471-4.664-3.471s-4.664 1.563-4.664 3.471c0 1.06.265 2.014 1.51 2.81-1.191.688-1.854 1.668-1.854 2.94 0 2.147 2.252 3.869 5.008 3.869 2.755 0 5.008-1.722 5.008-3.869 0-1.272-.45-2.465-1.828-3.18M45.2 23.71c-.875 0-1.59-1.192-1.59-2.676s.715-2.703 1.59-2.703c.874 0 1.616 1.219 1.616 2.703s-.742 2.676-1.616 2.676m.98-6.625c-1.616 0-2.2.477-2.57.875-.08-.557-.132-.98-.132-1.404 0-1.51.53-3.472 2.385-3.472.662 0 1.06.212 1.324.504-.557.238-1.007.954-1.007 1.563 0 .954.742 1.696 1.696 1.696s1.723-.742 1.723-1.696v-.08c0-.238-.054-.635-.16-.847-.344-.954-1.457-2.359-4.106-2.359-2.385 0-4.108 2.28-4.638 3.498a9.4 9.4 0 0 0-.662 3.418c0 1.617.45 3.445 2.013 4.823 1.537 1.166 2.518 1.22 3.445 1.22.928 0 4.4-1.087 4.4-4.161 0-2.597-2.041-3.578-3.71-3.578M28.94 79.128l2.358-.477v4.373l-2.358.503zm4.107-.821c.16-.027.292-.212.292-.37v-1.564a.363.363 0 0 0-.371-.372h-.054l-.874.186v-3.948H31.3v4.107l-2.358.477v-3.737h-.742v3.896l-1.033.212c-.16.026-.292.212-.292.37v1.538c0 .212.159.371.371.371h.08l.874-.186v4.372l-1.033.212c-.16.027-.292.213-.292.372v1.536c0 .212.159.372.371.372h.08l.874-.186v3.948h.742v-4.107l2.358-.477v3.736h.742V85.17l1.007-.186c.16-.026.292-.211.292-.37V83.05c0-.212-.16-.37-.371-.37h-.054l-.874.184v-4.371zm-4.107 70.318 2.358-.478v4.373l-2.358.504zm4.107-.82c.16-.027.292-.213.292-.372v-1.563a.363.363 0 0 0-.371-.371h-.054l-.874.185v-3.948H31.3v4.108l-2.358.477v-3.737h-.742v3.895l-1.033.212c-.16.027-.292.213-.292.371v1.537c0 .212.159.372.371.372h.08l.874-.186v4.372l-1.033.212c-.16.026-.292.212-.292.371v1.536c0 .213.159.372.371.372h.08l.874-.186v3.948h.742v-4.107l2.358-.476v3.736h.742v-3.896l1.007-.185c.16-.027.292-.212.292-.371v-1.564c0-.212-.16-.37-.371-.37h-.054l-.874.185v-4.372zM28.941 9.632l2.358-.477v4.372l-2.358.504zm4.107-.821c.16-.027.292-.212.292-.371V6.876a.36.36 0 0 0-.371-.37h-.054l-.874.185V2.743H31.3V6.85l-2.358.477V3.59h-.742v3.896l-1.033.212c-.16.026-.292.212-.292.37v1.538c0 .212.159.37.371.37h.08l.874-.185v4.372l-1.033.212c-.16.027-.292.212-.292.371v1.537c0 .212.159.371.371.371h.08l.874-.185v3.948h.742V16.31l2.358-.477v3.736h.742v-3.895l1.007-.186c.16-.026.292-.212.292-.37v-1.564a.36.36 0 0 0-.371-.371h-.054l-.874.185V8.996zm-16.955 97.593a7.7 7.7 0 0 1-1.537.159c-3.789 0-7.022-2.65-7.022-6.651 0-3.233 2.28-6.121 4.611-8.135.45-.397.875-.769 1.272-1.166.238 1.43.424 2.676.61 3.763-2.412.715-4.055 3.259-4.055 5.75 0 1.855 1.458 4.398 3.577 4.398.212 0 .451-.105.451-.344 0-.238-.265-.37-.583-.583-1.033-.636-1.616-1.325-1.616-2.623 0-1.616 1.192-2.915 2.755-3.286zm-2.332-27.24c.239-1.06 1.458-3.842 2.836-3.842.397 0 1.033 1.298 1.033 3.127 0 2.755-2.04 4.822-3.869 6.624-.159-1.06-.291-2.093-.291-3.206 0-.98.08-1.881.291-2.703m6.095 22.338c0 1.881-.768 3.815-2.65 4.584a882 882 0 0 1-1.457-8.559c2.385 0 4.107 1.616 4.107 3.975m-11.66 13.037c0 1.749 1.352 4.054 4.93 4.054 1.245 0 2.331-.318 3.285-.9 1.431-1.008 1.802-2.756 1.802-4.426 0-1.034-.159-2.226-.424-3.736-.08-.53-.238-1.325-.397-2.359 2.597-.848 4.53-3.55 4.53-6.28 0-4.001-2.834-6.704-6.703-6.704-.265-1.59-.53-3.153-.769-4.637 2.81-2.94 4.744-6.254 4.744-10.467 0-2.411-.742-4.372-1.166-5.326-.636-1.351-1.405-2.278-1.882-2.278-.185 0-1.007.318-1.881 1.351-1.696 2.013-2.173 5.405-2.173 7.63 0 1.432.133 2.73.583 5.698-.026.027-1.404 1.431-1.96 1.882-2.412 2.252-5.75 5.459-5.75 10.758 0 4.955 4.318 8.85 9.247 8.85.768 0 1.484-.079 2.093-.185.504 2.544.795 4.399.795 5.803 0 2.756-1.404 4.213-4.08 4.213-.636 0-1.193-.132-1.246-.132-.026-.026-.08-.054-.08-.08 0-.053.054-.08.133-.106 1.246-.186 2.49-1.246 2.49-2.941 0-1.431-1.085-2.941-3.073-2.941-1.855 0-3.047 1.51-3.047 3.259m7.896 61.36a7.7 7.7 0 0 1-1.537.16c-3.789 0-7.022-2.65-7.022-6.65 0-3.233 2.28-6.122 4.611-8.136.45-.397.875-.768 1.272-1.165.238 1.43.424 2.676.61 3.762-2.412.716-4.055 3.26-4.055 5.75 0 1.855 1.458 4.399 3.577 4.399.212 0 .451-.106.451-.345 0-.238-.265-.37-.583-.582-1.033-.637-1.616-1.325-1.616-2.624 0-1.616 1.192-2.915 2.755-3.285zm-2.332-27.24c.239-1.06 1.458-3.842 2.836-3.842.397 0 1.033 1.298 1.033 3.127 0 2.755-2.04 4.822-3.869 6.624-.159-1.06-.291-2.093-.291-3.206 0-.98.08-1.881.291-2.703m6.095 22.338c0 1.881-.768 3.816-2.65 4.584a882 882 0 0 1-1.457-8.559c2.385 0 4.107 1.617 4.107 3.975m-11.66 13.037c0 1.75 1.352 4.054 4.93 4.054 1.245 0 2.331-.318 3.285-.9 1.431-1.008 1.802-2.756 1.802-4.426 0-1.033-.159-2.225-.424-3.736-.08-.53-.238-1.325-.397-2.359 2.597-.847 4.53-3.55 4.53-6.279 0-4.001-2.834-6.705-6.703-6.705-.265-1.59-.53-3.153-.769-4.636 2.81-2.942 4.744-6.254 4.744-10.468 0-2.41-.742-4.371-1.166-5.326-.636-1.35-1.405-2.278-1.882-2.278-.185 0-1.007.318-1.881 1.351-1.696 2.014-2.173 5.406-2.173 7.632 0 1.43.133 2.73.583 5.697-.026.026-1.404 1.43-1.96 1.881-2.412 2.253-5.75 5.459-5.75 10.759 0 4.954 4.318 8.85 9.247 8.85.768 0 1.484-.08 2.093-.186.504 2.544.795 4.399.795 5.803 0 2.756-1.404 4.213-4.08 4.213-.636 0-1.193-.132-1.246-.132-.026-.026-.08-.053-.08-.08 0-.053.054-.08.133-.105 1.246-.186 2.49-1.246 2.49-2.942 0-1.43-1.085-2.94-3.073-2.94-1.855 0-3.047 1.51-3.047 3.258m7.896-147.128a7.7 7.7 0 0 1-1.537.16c-3.789 0-7.022-2.65-7.022-6.651 0-3.233 2.28-6.121 4.611-8.135.45-.398.875-.769 1.272-1.166.238 1.43.424 2.676.61 3.762-2.412.716-4.055 3.26-4.055 5.75 0 1.856 1.458 4.399 3.577 4.399.212 0 .451-.106.451-.344 0-.239-.265-.37-.583-.583-1.033-.636-1.616-1.325-1.616-2.623 0-1.617 1.192-2.915 2.755-3.287zm-2.332-27.24c.239-1.06 1.458-3.842 2.836-3.842.397 0 1.033 1.299 1.033 3.127 0 2.756-2.04 4.823-3.869 6.625-.159-1.06-.291-2.094-.291-3.207 0-.98.08-1.881.291-2.702m6.095 22.338c0 1.88-.768 3.815-2.65 4.583a882 882 0 0 1-1.457-8.558c2.385 0 4.107 1.616 4.107 3.975M8.196 45.042c0 1.75 1.352 4.054 4.93 4.054 1.245 0 2.331-.317 3.285-.9 1.431-1.007 1.802-2.756 1.802-4.426 0-1.033-.159-2.225-.424-3.736-.08-.53-.238-1.325-.397-2.358 2.597-.848 4.53-3.55 4.53-6.28 0-4.002-2.834-6.704-6.703-6.704-.265-1.59-.53-3.153-.769-4.637 2.81-2.941 4.744-6.254 4.744-10.467 0-2.411-.742-4.372-1.166-5.326-.636-1.351-1.405-2.279-1.882-2.279-.185 0-1.007.318-1.881 1.352-1.696 2.013-2.173 5.405-2.173 7.631 0 1.43.133 2.73.583 5.697-.026.027-1.404 1.431-1.96 1.881-2.412 2.253-5.75 5.46-5.75 10.759 0 4.955 4.318 8.85 9.247 8.85.768 0 1.484-.08 2.093-.186.504 2.544.795 4.4.795 5.803 0 2.757-1.404 4.214-4.08 4.214-.636 0-1.193-.132-1.246-.132-.026-.027-.08-.054-.08-.08 0-.053.054-.08.133-.106 1.246-.186 2.49-1.246 2.49-2.941 0-1.432-1.085-2.942-3.073-2.942-1.855 0-3.047 1.51-3.047 3.26M166.52 35.87c0 1.14.822 2.412 2.968 2.412 2.755 0 5.644-2.253 5.644-4.584 0-1.564-1.325-2.439-2.968-2.439-2.57 0-5.644 2.174-5.644 4.611m196.26 125.755c0 1.14.821 2.412 2.968 2.412 2.755 0 5.644-2.253 5.644-4.584 0-1.564-1.325-2.438-2.968-2.438-2.57 0-5.644 2.173-5.644 4.61M554.272 22.634c0 1.14.821 2.41 2.967 2.41 2.757 0 5.645-2.251 5.645-4.583 0-1.563-1.325-2.438-2.968-2.438-2.57 0-5.644 2.173-5.644 4.61m-210.58 142.303c0 1.14.822 2.41 2.969 2.41 2.756 0 5.644-2.251 5.644-4.583 0-1.564-1.325-2.438-2.968-2.438-2.57 0-5.644 2.173-5.644 4.61m223.132-145.61c0 1.139.822 2.41 2.969 2.41 2.755 0 5.643-2.252 5.643-4.583 0-1.564-1.324-2.438-2.967-2.438-2.57 0-5.645 2.173-5.645 4.61M251.307 49.108c0 1.14.821 2.412 2.968 2.412 2.755 0 5.643-2.252 5.643-4.584 0-1.564-1.324-2.438-2.967-2.438-2.57 0-5.644 2.173-5.644 4.61m73.299 112.518c0 1.14.821 2.412 2.968 2.412 2.755 0 5.643-2.253 5.643-4.584 0-1.564-1.324-2.438-2.967-2.438-2.57 0-5.644 2.173-5.644 4.61m254.773-145.61c0 1.139.822 2.41 2.968 2.41 2.755 0 5.644-2.252 5.644-4.584 0-1.563-1.325-2.437-2.968-2.437-2.57 0-5.644 2.172-5.644 4.61M305.52 155.008c0 1.14.822 2.411 2.968 2.411 2.755 0 5.644-2.252 5.644-4.584 0-1.563-1.325-2.438-2.968-2.438-2.57 0-5.645 2.173-5.645 4.611M598.21 19.324c0 1.14.821 2.412 2.967 2.412 2.757 0 5.644-2.253 5.644-4.584 0-1.564-1.325-2.438-2.967-2.438-2.57 0-5.644 2.173-5.644 4.61M286.432 158.318c0 1.139.821 2.41 2.967 2.41 2.757 0 5.644-2.252 5.644-4.584 0-1.563-1.325-2.438-2.967-2.438-2.57 0-5.644 2.173-5.644 4.612M617.04 22.634c0 1.14.822 2.41 2.968 2.41 2.756 0 5.645-2.251 5.645-4.583 0-1.563-1.325-2.438-2.969-2.438-2.57 0-5.644 2.173-5.644 4.61M391.332 168.246c0 1.14.82 2.411 2.967 2.411 2.756 0 5.645-2.252 5.645-4.584 0-1.563-1.325-2.437-2.969-2.437-2.57 0-5.643 2.172-5.643 4.61m-123.987-13.237c0 1.14.822 2.411 2.968 2.411 2.755 0 5.644-2.252 5.644-4.584 0-1.563-1.325-2.438-2.968-2.438-2.57 0-5.644 2.173-5.644 4.611M525.976 25.943c0 1.14.822 2.411 2.968 2.411 2.756 0 5.645-2.252 5.645-4.584 0-1.563-1.325-2.437-2.969-2.437-2.57 0-5.644 2.172-5.644 4.61M419.962 168.245c0 1.14.822 2.411 2.968 2.411 2.755 0 5.644-2.252 5.644-4.584 0-1.563-1.325-2.437-2.968-2.437-2.57 0-5.644 2.172-5.644 4.61M629.594 25.943c0 1.14.822 2.411 2.968 2.411 2.756 0 5.644-2.252 5.644-4.584 0-1.563-1.325-2.437-2.968-2.437-2.57 0-5.644 2.172-5.644 4.61m12.554 3.31c0 1.139.821 2.41 2.967 2.41 2.756 0 5.644-2.251 5.644-4.583 0-1.564-1.325-2.438-2.967-2.438-2.57 0-5.644 2.173-5.644 4.61M238.793 158.318c0 1.139.821 2.41 2.967 2.41 2.757 0 5.645-2.252 5.645-4.584 0-1.563-1.325-2.438-2.967-2.438-2.571 0-5.645 2.173-5.645 4.612M660.978 32.562c0 1.14.822 2.411 2.968 2.411 2.755 0 5.644-2.252 5.644-4.584 0-1.563-1.325-2.437-2.968-2.437-2.57 0-5.644 2.172-5.644 4.61M232.477 52.418c0 1.14.82 2.411 2.967 2.411 2.756 0 5.644-2.252 5.644-4.584 0-1.563-1.325-2.437-2.968-2.437-2.57 0-5.643 2.172-5.643 4.61M490.17 25.943c0 1.14.822 2.411 2.968 2.411 2.755 0 5.644-2.252 5.644-4.584 0-1.563-1.325-2.437-2.968-2.437-2.57 0-5.644 2.172-5.644 4.61M202.5 174.864c0 1.14.82 2.411 2.967 2.411 2.755 0 5.644-2.252 5.644-4.584 0-1.563-1.325-2.438-2.968-2.438-2.57 0-5.644 2.173-5.644 4.611m253.757-13.238c0 1.14.822 2.412 2.968 2.412 2.756 0 5.644-2.253 5.644-4.584 0-1.564-1.325-2.438-2.967-2.438-2.57 0-5.645 2.173-5.645 4.61m-282.388 13.238c0 1.14.822 2.411 2.968 2.411 2.756 0 5.644-2.252 5.644-4.584 0-1.563-1.325-2.438-2.968-2.438-2.57 0-5.644 2.173-5.644 4.611M63.2 25.943c0 1.14.822 2.411 2.969 2.411 2.755 0 5.643-2.252 5.643-4.584 0-1.563-1.324-2.437-2.967-2.437-2.57 0-5.645 2.172-5.645 4.61m46.829 3.31c0 1.139.821 2.41 2.968 2.41 2.756 0 5.644-2.251 5.644-4.583 0-1.564-1.325-2.438-2.967-2.438-2.57 0-5.645 2.173-5.645 4.61m-60.147 76.116c0 1.139.822 2.411 2.968 2.411 2.756 0 5.645-2.253 5.645-4.584 0-1.563-1.325-2.438-2.968-2.438-2.57 0-5.645 2.173-5.645 4.61m95.436 62.878c0 1.14.821 2.411 2.968 2.411 2.755 0 5.643-2.252 5.643-4.584 0-1.563-1.324-2.437-2.967-2.437-2.57 0-5.644 2.172-5.644 4.61M461.925 25.943c0 1.14.821 2.411 2.967 2.411 2.756 0 5.644-2.252 5.644-4.584 0-1.563-1.325-2.437-2.968-2.437-2.57 0-5.643 2.172-5.643 4.61M126.229 171.555c0 1.139.822 2.41 2.968 2.41 2.756 0 5.645-2.251 5.645-4.583 0-1.564-1.325-2.438-2.969-2.438-2.57 0-5.644 2.173-5.644 4.61m-62.988-62.877c0 1.14.821 2.411 2.968 2.411 2.756 0 5.644-2.252 5.644-4.584 0-1.563-1.325-2.438-2.968-2.438-2.57 0-5.644 2.174-5.644 4.611m421.567 56.259c0 1.14.822 2.41 2.968 2.41 2.755 0 5.644-2.251 5.644-4.583 0-1.564-1.325-2.438-2.968-2.438-2.57 0-5.644 2.173-5.644 4.61m-377.665 3.31c0 1.14.821 2.411 2.967 2.411 2.756 0 5.644-2.252 5.644-4.584 0-1.563-1.325-2.437-2.967-2.437-2.57 0-5.644 2.172-5.644 4.61M76.6 111.987c0 1.139.823 2.41 2.969 2.41 2.755 0 5.644-2.252 5.644-4.584 0-1.563-1.325-2.438-2.968-2.438-2.57 0-5.645 2.173-5.645 4.612m11.455 49.64c0 1.14.822 2.411 2.968 2.411 2.756 0 5.645-2.253 5.645-4.584 0-1.564-1.325-2.438-2.968-2.438-2.57 0-5.645 2.173-5.645 4.61m415.84 6.62c0 1.138.821 2.41 2.968 2.41 2.756 0 5.644-2.252 5.644-4.584 0-1.563-1.325-2.437-2.968-2.437-2.57 0-5.644 2.172-5.644 4.61m-434.926-3.31c0 1.14.821 2.412 2.967 2.412 2.756 0 5.644-2.252 5.644-4.584 0-1.564-1.325-2.438-2.967-2.438-2.571 0-5.644 2.173-5.644 4.61m364.66-125.754c0 1.139.822 2.411 2.968 2.411 2.755 0 5.644-2.253 5.644-4.585 0-1.562-1.325-2.437-2.968-2.437-2.57 0-5.644 2.172-5.644 4.61m89.353 132.375c0 1.139.822 2.41 2.968 2.41 2.755 0 5.644-2.251 5.644-4.583 0-1.564-1.325-2.438-2.968-2.438-2.57 0-5.644 2.173-5.644 4.61m-473.1-9.928c0 1.14.82 2.412 2.967 2.412 2.756 0 5.645-2.253 5.645-4.584 0-1.564-1.325-2.438-2.968-2.438-2.57 0-5.645 2.173-5.645 4.61m96.858-72.805c0 1.14.821 2.411 2.967 2.411 2.756 0 5.644-2.252 5.644-4.584 0-1.564-1.325-2.438-2.967-2.438-2.571 0-5.644 2.173-5.644 4.611m268.06-56.26c0 1.14.821 2.412 2.967 2.412 2.756 0 5.644-2.252 5.644-4.584 0-1.563-1.325-2.437-2.967-2.437-2.57 0-5.644 2.172-5.644 4.61m127.27 138.993c0 1.139.821 2.41 2.968 2.41 2.756 0 5.644-2.251 5.644-4.583 0-1.564-1.325-2.438-2.968-2.438-2.57 0-5.644 2.173-5.644 4.61M128.859 32.563c0 1.14.822 2.411 2.968 2.411 2.755 0 5.644-2.252 5.644-4.584 0-1.563-1.325-2.437-2.968-2.437-2.57 0-5.645 2.172-5.645 4.61m47.385 62.877c0 1.14.821 2.412 2.968 2.412 2.755 0 5.643-2.252 5.643-4.584 0-1.564-1.325-2.438-2.967-2.438-2.57 0-5.644 2.173-5.644 4.61m384.913 79.425c0 1.14.822 2.411 2.968 2.411 2.756 0 5.644-2.252 5.644-4.584 0-1.563-1.325-2.438-2.968-2.438-2.57 0-5.644 2.173-5.644 4.611M147.69 32.562c0 1.14.821 2.411 2.967 2.411 2.756 0 5.644-2.252 5.644-4.584 0-1.563-1.325-2.437-2.967-2.437-2.57 0-5.644 2.172-5.644 4.61m512.08 62.877c0 1.14.82 2.412 2.967 2.412 2.756 0 5.644-2.252 5.644-4.584 0-1.564-1.325-2.438-2.968-2.438-2.57 0-5.644 2.173-5.644 4.61m-463.487 3.31c0 1.139.822 2.411 2.968 2.411 2.755 0 5.644-2.252 5.644-4.584 0-1.563-1.325-2.438-2.968-2.438-2.57 0-5.644 2.173-5.644 4.61m20.04 3.31c0 1.14.82 2.412 2.967 2.412 2.756 0 5.644-2.252 5.644-4.584 0-1.564-1.325-2.438-2.968-2.438-2.57 0-5.644 2.173-5.644 4.61m179.647-66.187c0 1.14.822 2.412 2.968 2.412 2.755 0 5.644-2.253 5.644-4.584 0-1.564-1.325-2.439-2.968-2.439-2.57 0-5.644 2.174-5.644 4.611m184.275 142.303c0 1.139.821 2.41 2.968 2.41 2.756 0 5.644-2.252 5.644-4.583 0-1.564-1.324-2.439-2.968-2.439-2.57 0-5.644 2.174-5.644 4.612m9.389-72.806c0 1.139.821 2.411 2.968 2.411 2.755 0 5.643-2.253 5.643-4.584 0-1.563-1.324-2.438-2.967-2.438-2.57 0-5.644 2.173-5.644 4.61m-353.271 6.62c0 1.139.821 2.41 2.967 2.41 2.757 0 5.644-2.252 5.644-4.584 0-1.563-1.325-2.438-2.967-2.438-2.57 0-5.644 2.173-5.644 4.612m333.23-13.238c0 1.139.823 2.411 2.97 2.411 2.755 0 5.643-2.252 5.643-4.584 0-1.563-1.325-2.438-2.967-2.438-2.571 0-5.645 2.173-5.645 4.61M377.138 32.563c0 1.14.821 2.411 2.967 2.411 2.756 0 5.644-2.252 5.644-4.584 0-1.563-1.325-2.437-2.967-2.437-2.57 0-5.644 2.172-5.644 4.61M256.4 102.058c0 1.14.821 2.412 2.968 2.412 2.756 0 5.644-2.252 5.644-4.584 0-1.564-1.325-2.438-2.968-2.438-2.57 0-5.644 2.173-5.644 4.61m101.907-66.187c0 1.14.822 2.412 2.968 2.412 2.755 0 5.644-2.253 5.644-4.584 0-1.564-1.325-2.439-2.968-2.439-2.57 0-5.644 2.174-5.644 4.611m-81.868 69.497c0 1.139.822 2.411 2.968 2.411 2.756 0 5.645-2.253 5.645-4.584 0-1.563-1.325-2.438-2.969-2.438-2.57 0-5.644 2.173-5.644 4.61m263.649 3.31c0 1.14.822 2.411 2.968 2.411 2.756 0 5.644-2.252 5.644-4.583 0-1.564-1.325-2.439-2.968-2.439-2.57 0-5.644 2.174-5.644 4.611m68.707 69.497c0 1.139.821 2.41 2.968 2.41 2.756 0 5.644-2.252 5.644-4.583 0-1.564-1.325-2.439-2.968-2.439-2.57 0-5.644 2.174-5.644 4.612m-88.747-72.806c0 1.139.822 2.411 2.969 2.411 2.755 0 5.644-2.253 5.644-4.584 0-1.563-1.325-2.438-2.968-2.438-2.57 0-5.645 2.173-5.645 4.61M213.646 49.109c0 1.14.821 2.412 2.968 2.412 2.755 0 5.644-2.252 5.644-4.584 0-1.564-1.325-2.438-2.968-2.438-2.57 0-5.644 2.173-5.644 4.61m423.78 129.066c0 1.139.82 2.41 2.967 2.41 2.756 0 5.645-2.252 5.645-4.583 0-1.564-1.325-2.439-2.969-2.439-2.57 0-5.644 2.174-5.644 4.612M500.01 102.058c0 1.14.821 2.412 2.968 2.412 2.756 0 5.644-2.252 5.644-4.584 0-1.564-1.325-2.438-2.967-2.438-2.57 0-5.645 2.173-5.645 4.61m-194.065 0c0 1.14.82 2.412 2.967 2.412 2.756 0 5.645-2.252 5.645-4.584 0-1.564-1.325-2.438-2.969-2.438-2.57 0-5.643 2.173-5.643 4.61m174.026 9.929c0 1.139.821 2.41 2.967 2.41 2.757 0 5.645-2.252 5.645-4.584 0-1.563-1.325-2.438-2.968-2.438-2.57 0-5.644 2.173-5.644 4.612m-143.967-9.929c0 1.14.82 2.412 2.967 2.412 2.756 0 5.645-2.252 5.645-4.584 0-1.564-1.325-2.438-2.968-2.438-2.57 0-5.644 2.173-5.644 4.61m3.473-62.877c0 1.139.822 2.411 2.969 2.411 2.755 0 5.643-2.253 5.643-4.585 0-1.562-1.325-2.437-2.967-2.437-2.57 0-5.645 2.172-5.645 4.61m-154.125 0c0 1.14.821 2.412 2.967 2.412 2.756 0 5.644-2.253 5.644-4.585 0-1.562-1.325-2.437-2.967-2.437-2.571 0-5.644 2.172-5.644 4.61m261.22 52.95c0 1.14.821 2.412 2.968 2.412 2.756 0 5.644-2.253 5.644-4.585 0-1.563-1.325-2.437-2.968-2.437-2.57 0-5.644 2.172-5.644 4.61m-42.864 3.31c0 1.14.822 2.41 2.968 2.41 2.756 0 5.645-2.251 5.645-4.583 0-1.564-1.325-2.438-2.969-2.438-2.57 0-5.644 2.173-5.644 4.61m-95.909-46.33c0 1.14.822 2.41 2.968 2.41 2.756 0 5.644-2.251 5.644-4.583 0-1.564-1.325-2.438-2.968-2.438-2.57 0-5.644 2.173-5.644 4.61M433.211 95.44c0 1.14.822 2.412 2.968 2.412 2.756 0 5.644-2.252 5.644-4.584 0-1.564-1.325-2.438-2.968-2.438-2.57 0-5.644 2.173-5.644 4.61M91.198 25.943c0 1.14.82 2.411 2.967 2.411 2.756 0 5.645-2.252 5.645-4.584 0-1.563-1.325-2.437-2.968-2.437-2.57 0-5.644 2.172-5.644 4.61M459.93 88.821c0 1.14.822 2.411 2.968 2.411 2.756 0 5.645-2.252 5.645-4.584 0-1.564-1.325-2.438-2.969-2.438-2.57 0-5.644 2.173-5.644 4.611m-3.674 93.177c0 .185.16.345.345.345.132 0 .291-.107.318-.212 0-.027.238-.955.265-1.034.026-.106.265-1.113 1.219-2.676 1.033-1.723 2.623-2.968 3.948-4.823 1.298-1.854 2.093-3.604 2.093-5.936 0-2.41-.556-4.425-1.96-6.995-.08-.186-.24-.291-.398-.291-.053 0-.106 0-.133.026-.132.053-.185.159-.185.318 0 .08.026.212.08.318 1.06 2.464 1.483 3.869 1.483 5.777 0 2.199-.768 3.339-1.245 4.16-1.722 2.941-4.505 4.372-5.618 4.743-.185.08-.212.212-.212.292zm69.72-135.683c0 .185.16.344.345.344.133 0 .292-.106.318-.212 0-.027.239-.954.265-1.033.027-.107.265-1.114 1.219-2.676 1.033-1.723 2.623-2.969 3.948-4.824 1.298-1.854 2.093-3.603 2.093-5.935 0-2.411-.556-4.425-1.96-6.995-.08-.186-.239-.292-.398-.292-.053 0-.106 0-.132.027-.133.053-.186.158-.186.318 0 .08.027.212.08.318 1.06 2.464 1.484 3.869 1.484 5.776 0 2.2-.769 3.339-1.246 4.16-1.722 2.942-4.505 4.373-5.617 4.743-.186.08-.213.212-.213.292zm-462.777 0c0 .185.16.344.345.344.132 0 .292-.106.318-.212 0-.027.239-.954.265-1.033.027-.107.265-1.114 1.22-2.676 1.032-1.723 2.622-2.969 3.947-4.824 1.298-1.854 2.093-3.603 2.093-5.935 0-2.411-.556-4.425-1.96-6.995-.08-.186-.239-.292-.398-.292-.053 0-.106 0-.132.027-.133.053-.186.158-.186.318 0 .08.026.212.08.318 1.06 2.464 1.483 3.869 1.483 5.776 0 2.2-.768 3.339-1.245 4.16-1.722 2.942-4.505 4.373-5.618 4.743-.185.08-.212.212-.212.292zm340.508 69.496c0 .186.16.344.344.344.133 0 .292-.106.32-.211 0-.027.237-.955.264-1.034.026-.106.265-1.113 1.218-2.676 1.034-1.723 2.624-2.968 3.949-4.823 1.298-1.855 2.093-3.604 2.093-5.936 0-2.41-.556-4.425-1.96-6.995-.08-.185-.239-.292-.398-.292-.053 0-.106 0-.132.027-.133.053-.186.159-.186.318 0 .08.026.212.08.318 1.06 2.464 1.484 3.869 1.484 5.777 0 2.199-.769 3.338-1.246 4.16-1.722 2.941-4.505 4.372-5.618 4.743-.185.08-.212.212-.212.291zm-164.914 64.532c0 .186.16.345.345.345.132 0 .291-.106.318-.212 0-.027.238-.954.265-1.034.026-.106.265-1.112 1.218-2.676 1.034-1.723 2.624-2.967 3.948-4.822 1.299-1.855 2.094-3.604 2.094-5.936 0-2.412-.556-4.426-1.96-6.996-.08-.185-.24-.291-.399-.291-.052 0-.105 0-.132.026-.132.053-.185.159-.185.318 0 .08.026.212.079.318 1.06 2.464 1.484 3.87 1.484 5.777 0 2.199-.768 3.339-1.245 4.16-1.722 2.941-4.505 4.372-5.618 4.743-.186.08-.212.212-.212.292zm-92.054-69.496a.35.35 0 0 0 .344.345c.133 0 .291-.107.318-.212 0-.027.238-.955.265-1.034.026-.106.265-1.113 1.22-2.676 1.033-1.723 2.622-2.968 3.947-4.823 1.299-1.855 2.094-3.604 2.094-5.936 0-2.411-.557-4.425-1.962-6.995-.079-.186-.238-.291-.397-.291-.052 0-.106 0-.132.026-.133.053-.185.159-.185.318 0 .08.026.212.079.318 1.06 2.464 1.483 3.869 1.483 5.776 0 2.2-.767 3.34-1.245 4.16-1.722 2.942-4.504 4.373-5.617 4.744-.186.08-.212.212-.212.292zm513.03 4.964a.35.35 0 0 0 .345.344c.133 0 .291-.106.318-.211 0-.027.238-.955.265-1.034.026-.106.265-1.113 1.219-2.676 1.033-1.723 2.623-2.968 3.948-4.823 1.299-1.855 2.094-3.604 2.094-5.936 0-2.41-.557-4.425-1.962-6.995-.079-.185-.238-.292-.397-.292-.053 0-.106 0-.133.027-.132.053-.185.159-.185.318 0 .08.027.212.08.318 1.06 2.464 1.484 3.869 1.484 5.777 0 2.199-.769 3.338-1.246 4.16-1.722 2.941-4.504 4.372-5.617 4.743-.186.08-.212.212-.212.291zm-82.235-33.67c0 .079.026.211.211.291 1.14.37 3.419 1.801 5.141 4.743.477.822 1.246 1.96 1.246 4.16 0 1.908-.504 3.869-1.193 5.777-.053.159-.106.291-.08.398 0 .158.107.265.266.265.185 0 .318-.107.423-.293 1.193-2.12 1.644-4.584 1.644-6.995-.133-3.418-2.094-5.935-2.094-5.935.08 0-2.438-3.26-3.153-4.373-.98-1.51-1.431-3.02-1.484-3.127a64 64 0 0 1-.265-1.033c-.027-.106-.159-.211-.318-.211a.35.35 0 0 0-.344.344zM315.74 30.846c0 .079.026.212.212.291 1.139.37 3.418 1.802 5.14 4.743.477.822 1.246 1.96 1.246 4.16 0 1.908-.504 3.869-1.192 5.777-.054.159-.107.291-.08.397 0 .159.106.265.265.265.185 0 .317-.106.424-.29 1.192-2.12 1.643-4.586 1.643-6.997-.132-3.418-2.094-5.935-2.094-5.935.08 0-2.437-3.26-3.153-4.373-.98-1.51-1.43-3.02-1.484-3.126-.026-.08-.265-1.033-.265-1.033-.026-.107-.159-.213-.318-.213a.35.35 0 0 0-.344.345zm88.17-19.253V33.7h.661V11.593Zm104.04 69.51v18.783h.663V81.102zm20.04.813v21.28h.662v-21.28Zm-212.25-57.033v22.054h.662V24.883Zm232.29 57.848v23.774h.661V82.731ZM174.461 12.42V33.7h.662V12.42Zm109.92 68.669v22.106h.662V81.09Zm203.53-9.929v38.654h.662V71.16Zm-223.57 9.929v18.796h.663V81.09Zm313.192-4.912v20.399h.663V76.178Zm20.04 4.912v22.106h.662V81.09Zm-353.27 0v28.725h.661V81.09Zm69.582-3.31v22.106h.662V77.78Zm-89.622-.014v22.12h.662v-22.12ZM659.77 95.438v20.373h.662V95.438ZM204.224 76.952v19.625h.662V76.952Zm143.195-63.719V37.01h.662V13.233Zm-191.787-1.626V30.39h.662V11.607Zm28.553 64.532v17.128h.662V76.14Zm56.233-49.654v23.761h.662V26.485Zm404.95 127.41v22.107h.662v-22.107zm-595.486 7.73v20.4h.662v-20.4Zm96.856-72.805v22.027h.662V88.82Zm74.85-62.335v20.452h.662V26.485Zm-152.62 138.45v17.09h.662v-17.09zm19.088-3.31v20.4h.662v-20.4zm27.029-12.694v17.142h.662v-17.142ZM84.543 87.708v22.107h.662V87.708Zm49.629 61.223v20.452h.662V148.93ZM71.184 82.705v23.8h.662v-23.8Zm82.075 66.226v17.142h.662v-17.142ZM136.8 8.27V30.39h.662V8.27ZM57.824 81.128v22.068h.662V81.128Zm123.987 69.458v22.106h.662v-22.106zm28.63 0v22.106h.662v-22.106ZM366.25 12.42V33.7h.662V12.42Zm101.624 58.741V86.65h.662V71.161Zm148.864 82.734v22.107h.662v-22.107ZM259.25 26.485v20.452h.662V26.485Zm-20.456 131.831v22.027h.662v-22.027ZM668.921 6.592V30.39h.662V6.592ZM385.08 11.607V30.39h.662V11.607Zm265.01-7.11V27.08h.662V4.496Zm-532.12 2.96V27.08h.663V7.456Zm519.566-4.358V23.77h.662V3.1ZM267.345 155.007v22.054h.662v-22.054zm19.086 3.309v18.745h.662v-18.745ZM624.983 1.702v18.76h.662V1.702ZM305.519 155.007v22.054h.662v-22.054Zm292.69-135.684V41.39h.663V19.323ZM324.606 161.625v20.4h.662v-20.4Zm254.773-145.61v26.073h.662V16.014Zm-235.686 148.92v17.09h.662v-17.09ZM566.826 19.323v23.23h.662v-23.23ZM362.78 161.625v20.4h.662v-20.4ZM99.14 6.643v17.128h.662V6.643Zm455.131 15.99V43.02h.662V22.633ZM403.707 95.438v20.373h.662V95.438Zm-4.433 50.184v20.451h.662v-20.451zm28.63 0v20.451h.662v-20.451Zm98.073-119.68v20.373h.662V25.942Zm-71.463 45.22v18.796h.662V71.161ZM193.292 13.232V37.01h.663V13.233Zm262.964 148.392v20.373h.662v-20.373ZM490.17 25.942v18.744h.662V25.942Zm-426.97 0v20.373h.662V25.942Zm398.724 0v18.744h.662V25.942Zm30.826 119.693v17.129h.662v-17.129Zm19.088.814v19.624h.662V146.45zm19.086.813v22.12h.662v-22.12Zm-89.353-135.67V37.01h.662V11.593ZM550.011 150.6v18.784h.663v-18.784ZM422.742 11.593V30.39h.662V11.593Zm146.357 139.82v21.28h.662v-21.28zm19.088.813v23.776h.662v-23.776ZM343.946 77.78v22.106h.661V77.78Zm97.208-6.619v22.106h.662V71.161ZM230.292 50.776v1.059h12.974v-1.06Zm0-6.62v1.06h12.974v-1.06zm75.323 0v1.06h12.973v-1.06zm-94.154 0v1.06h12.974v-1.06zm37.661 0v1.06h12.974v-1.06zm-16.377 111.087 2.358-.477v4.373l-2.358.503zm4.107-.82c.159-.027.29-.213.29-.372v-1.563a.36.36 0 0 0-.37-.372h-.053l-.875.186v-3.948h-.74v4.107l-2.36.477v-3.736h-.741v3.895l-1.034.212c-.16.027-.291.212-.291.371v1.537c0 .212.16.37.37.37h.08l.875-.184v4.372l-1.034.212c-.16.026-.291.212-.291.37v1.537c0 .213.16.371.37.371h.08l.875-.185v3.948h.742v-4.107l2.358-.477v3.736h.742v-3.895l1.007-.186c.159-.026.291-.212.291-.37v-1.564a.36.36 0 0 0-.37-.371h-.053l-.875.186v-4.372zM480.866 14.825c-5.42 0-10.847 1.668-13.59 5.07a.17.17 0 0 0 .011.104.17.17 0 0 0-.009.106l.02.002.002.02a.17.17 0 0 0 .106-.011.17.17 0 0 0 .105.008c2.63-2.227 7.993-3.38 13.354-3.38s10.724 1.153 13.354 3.38a.165.165 0 0 0 .236-.23c-2.743-3.401-8.171-5.07-13.59-5.07zm0 .33c4.673 0 9.338 1.276 12.205 3.781-2.965-1.696-7.582-2.523-12.206-2.523s-9.24.827-12.204 2.523c2.866-2.505 7.531-3.78 12.204-3.78m-13.462 4.843c5.385-6.677 21.538-6.677 26.923 0-5.385-4.56-21.538-4.56-26.923 0M178.61 178.418l-.016.006a.2.2 0 0 0-.058.018.2.2 0 0 0-.047.014l-.008.015-.014.008a.2.2 0 0 0-.014.047.2.2 0 0 0-.018.058.2.2 0 0 0 .018.059.2.2 0 0 0 .015.046c2.783 3.34 8.286 4.976 13.78 4.976 5.495 0 10.998-1.636 13.78-4.976a.165.165 0 0 0-.23-.234c-2.669 2.167-8.11 3.29-13.55 3.29-5.439 0-10.881-1.123-13.549-3.29a.2.2 0 0 0-.046-.014.2.2 0 0 0-.043-.022zm1.241 1.192c3.006 1.659 7.697 2.466 12.397 2.466s9.392-.807 12.398-2.466c-2.906 2.468-7.649 3.724-12.398 3.724s-9.49-1.256-12.397-3.724m-1.256-1.027c5.461 4.437 21.845 4.437 27.307 0-5.462 6.555-21.846 6.555-27.307 0m132.088-72.97a.17.17 0 0 0-.12.039l-.002.02-.02.002a.165.165 0 0 0 .005.194l-.001.017c2.926 3.416 8.714 5.089 14.493 5.089 5.78 0 11.567-1.673 14.493-5.089a.165.165 0 0 0-.229-.237c-2.81 2.245-8.539 3.406-14.264 3.406s-11.454-1.161-14.265-3.406l-.016.002a.2.2 0 0 0-.074-.037zm1.298 1.214c3.16 1.72 8.104 2.558 13.057 2.558s9.898-.838 13.057-2.558c-3.06 2.528-8.055 3.816-13.057 3.816s-9.998-1.288-13.057-3.816m-1.31-1.05c5.746 4.59 22.988 4.59 28.735 0-5.747 6.708-22.989 6.708-28.736 0m85.384 66.022-.019.01a.2.2 0 0 0-.056.024.2.2 0 0 0-.04.018l-.008.02-.017.012.005.018a.17.17 0 0 0 .025.183c2.79 2.665 8.28 3.958 13.767 3.958 5.488 0 10.977-1.293 13.768-3.958a.165.165 0 0 0-.196-.263c-2.669 1.514-8.126 2.302-13.572 2.302s-10.903-.788-13.572-2.302a.2.2 0 0 0-.043-.005.2.2 0 0 0-.042-.016zm1.176.894c2.996 1.185 7.731 1.76 12.481 1.76s9.486-.575 12.482-1.76c-2.896 1.993-7.687 3.018-12.482 3.018s-9.585-1.025-12.481-3.018m-1.172-.729c5.462 3.098 21.846 3.098 27.307 0-5.461 5.216-21.845 5.216-27.307 0m217.478 9.764a.17.17 0 0 0-.12.038l-.012.021-.011.001a.2.2 0 0 0-.014.047.2.2 0 0 0-.017.059.2.2 0 0 0 .018.059.2.2 0 0 0 .014.045c2.783 3.34 8.286 4.976 13.781 4.976s10.998-1.636 13.78-4.976a.165.165 0 0 0-.23-.234c-2.668 2.168-8.11 3.29-13.55 3.29s-10.882-1.122-13.55-3.29l-.016.002a.2.2 0 0 0-.073-.038zm1.241 1.192c3.006 1.658 7.698 2.466 12.398 2.466s9.392-.808 12.398-2.466c-2.906 2.467-7.649 3.724-12.398 3.724-4.75 0-9.492-1.257-12.398-3.724m-1.256-1.027c5.462 4.436 21.846 4.436 27.308 0-5.462 6.555-21.846 6.555-27.308 0M574.181 5.959c-6.436.067-12.877 3.558-15.755 9.533a.2.2 0 0 0-.003.052.2.2 0 0 0-.003.06.2.2 0 0 0 .033.053.2.2 0 0 0 .027.043l.014.003.009.01.014-.005a.165.165 0 0 0 .193-.05c2.406-3.444 6.73-6.003 11.408-7.236s9.702-1.139 13.493.673a.165.165 0 0 0 .165-.285c-2.854-1.98-6.224-2.885-9.595-2.85m.002.338c2.672-.03 5.34.544 7.74 1.786-3.582-1.136-7.863-1.043-11.89.019-4.026 1.061-7.796 3.09-10.354 5.845 3.137-4.81 8.825-7.587 14.504-7.65m-15.608 9.267c4.338-9.007 16.892-12.316 25.107-6.619-7.68-3.669-20.234-.36-25.107 6.62m-504.441 94.49-.008.015-.017-.005a.165.165 0 0 0-.075.184l-.007.014c1.014 3.167 3.229 5.19 5.792 5.824 2.562.635 5.465-.12 7.84-2.448a.165.165 0 0 0-.21-.253c-4.205 2.961-10.781 1.332-13.117-3.249a.17.17 0 0 0-.102-.033.17.17 0 0 0-.096-.05zm.92 1.761c2.576 3.1 7.247 4.257 10.972 2.717-1.98 1.338-4.159 1.72-6.128 1.233-1.969-.488-3.718-1.843-4.843-3.95m-.87-1.604c2.386 4.678 9.066 6.333 13.36 3.308-4.681 4.587-11.36 2.932-13.36-3.308m623.176 40.01v27.202H681v-27.202zm-3.64 0v27.202h1.191v-27.202ZM423.746 80.725v27.203h1.192V80.725Zm-28.31 16.911c0-.768-.61-1.404-1.379-1.404-.768 0-1.377.636-1.377 1.404 0 .769.609 1.404 1.377 1.404.769 0 1.379-.635 1.379-1.404m0-6.619c0-.768-.61-1.404-1.379-1.404-.768 0-1.377.636-1.377 1.404 0 .769.609 1.405 1.377 1.405.769 0 1.379-.636 1.379-1.405m-6.396-10.292v27.203h1.19V80.725Zm-6.089 0v27.203h3.64V80.725ZM204.181 11.23v27.203h1.191V11.229Zm178.77 69.496v27.203h3.64V80.725Zm-3.64 0v27.203h1.19V80.725Zm-2.448 16.911c0-.768-.609-1.404-1.377-1.404-.769 0-1.378.636-1.378 1.404 0 .769.609 1.404 1.378 1.404s1.377-.635 1.377-1.404m0-6.619c0-.768-.609-1.404-1.377-1.404-.769 0-1.378.636-1.378 1.404 0 .769.609 1.405 1.378 1.405s1.377-.636 1.377-1.405M296.48 80.725v27.203h1.19V80.725Zm-129.7 0v27.203h1.19V80.725Zm513.03-69.496v27.203H681V11.229Zm-135.002 0v27.203h1.191V11.229Zm-92.347 0v27.203h1.191V11.229Zm227.349 69.496v27.203H681V80.725Zm-515.405 69.497v27.202h1.19v-27.202zm93.476 0v27.202h1.192v-27.202zm123.987 0v27.202h1.19v-27.202ZM81.734 11.229v27.203h1.19V11.229Zm393.61 138.993v27.202h1.19v-27.202zm123.987 0v27.202h1.19v-27.202Zm-39.203-69.497v27.203h1.19V80.725ZM330.012 11.23v27.203h1.191V11.229ZM0 176.697v.728h681v-.728zm0-6.62v.729h681v-.728zm0-6.618v.728h681v-.728zm0-6.619v.728h681v-.728zm0-6.618v.728h681v-.728zm0-43.021v.727h681v-.727zm0-6.62v.728h681v-.727zm0-6.618v.727h681v-.727zm0-6.62v.729h681v-.728zm0-6.617v.727h681v-.727Zm0-43.022v.727h681v-.727zm0-6.619v.728h681v-.728zm0-6.619v.728h681v-.728Zm0-6.618v.727h681v-.727Zm0-6.619v.728h681v-.728Z"/>
</svg>
