<?xml version="1.0" encoding="UTF-8" standalone="no"?>
<svg
   width="681"
   height="116.60989"
   version="1.2"
   id="svg154"
   xmlns="http://www.w3.org/2000/svg"
   xmlns:svg="http://www.w3.org/2000/svg"
   xmlns:rdf="http://www.w3.org/1999/02/22-rdf-syntax-ns#"
   xmlns:cc="http://creativecommons.org/ns#"
   xmlns:dc="http://purl.org/dc/elements/1.1/">
  <defs
     id="defs154" />
  <title
     id="title1">air_XV</title>
  <desc
     id="desc1">Generated by MuseScore Studio 4.7.3</desc>
  <path
     id="path154"
     class="NoteDot"
     d="m 489.6836,32.77497 c 0,0.742107 0.5836,1.324906 1.32491,1.324906 0.74211,0 1.32491,-0.582799 1.32491,-1.324906 0,-0.741307 -0.5828,-1.324906 -1.32491,-1.324906 -0.74131,0 -1.32491,0.583599 -1.32491,1.324906 m -97.81888,43.022216 c 0,0.741307 0.5828,1.324906 1.32491,1.324906 0.7413,0 1.3249,-0.583599 1.3249,-1.324906 0,-0.742107 -0.5836,-1.324906 -1.3249,-1.324906 -0.74211,0 -1.32491,0.582799 -1.32491,1.324906 m 233.16743,31.434294 22.40412,1.65393 v 3.31907 l -22.40412,-1.65473 v -3.31827 m -568.875366,-1.65553 44.146186,-3.30867 v 3.31827 l -44.146186,3.30947 v -3.31907 M 574.26063,39.392294 611.96001,37.737563 v 3.312665 l -37.69938,1.654731 v -3.312665 m -388.58569,64.532926 44.14698,-1.65473 v 3.31186 l -44.14698,1.65473 v -3.31186 m 382.07244,-29.793172 44.14699,-4.964195 v 3.330277 l -44.14699,4.963394 V 74.132048 M 448.67396,6.2943037 467.85428,7.9490351 V 11.270666 L 448.67396,9.6159349 V 6.2943037 M 97.473031,39.393895 h 37.699379 v 3.309463 H 97.473031 V 39.393895 M 383.6383,2.9911652 h 37.69937 V 6.3004679 H 383.6383 V 2.9911652 m -68.91593,95.9666568 44.14699,-3.309463 v 3.318269 l -44.14699,3.309462 v -3.318268 m 5.41651,-64.529722 37.69937,-1.654731 v 3.312665 l -37.69937,1.654731 V 34.4281 m -111.33293,1.656333 h 37.69938 v 3.309462 h -37.69938 v -3.309462 m 276.30733,71.150247 44.14698,1.65473 v 3.31107 l -44.14698,-1.65473 v -3.31107 m -48.261,-10.492773 c -0.0264,-0.02642 -0.0793,-0.07925 -0.15931,-0.184926 l -3.04688,-3.762573 c -0.0264,-0.02722 -0.0528,-0.106473 -0.0528,-0.159309 0,-0.07925 0.0264,-0.185727 0.0528,-0.238563 l 2.70265,-4.08039 c 0.0264,-0.05364 0.0528,-0.132891 0.0528,-0.185727 v -0.238563 c 0,-0.07925 -0.0264,-0.159309 -0.0793,-0.212145 l -4.29254,-5.803168 c 0,0 -0.10647,-0.158509 -0.26498,-0.158509 -0.08,0 -0.13289,0.02642 -0.21214,0.07926 -0.10568,0.07925 -0.13289,0.185727 -0.13289,0.264981 0,0.159309 0.08,0.291399 0.08,0.291399 l 2.01338,2.756285 c 0.0536,0.07925 0.0801,0.184926 0.0801,0.317817 0,0.105672 -0.0264,0.238563 -0.0801,0.317817 l -2.67623,4.08039 c -0.0264,0.05364 -0.0528,0.159309 -0.0528,0.212145 v 0.238563 c 0,0.07926 0.0264,0.159309 0.0793,0.212146 l 2.96843,3.683318 c -0.10648,-0.02642 -0.34504,-0.08006 -0.66286,-0.08006 -1.35132,0 -2.41125,1.113562 -2.41125,2.464886 0,0.370653 0.0793,0.742107 0.2914,1.033506 0.55638,0.84778 2.54414,3.364703 2.54414,3.364703 0,0 0.13209,0.15931 0.31782,0.15931 0.0528,0 0.10567,0 0.15851,-0.0528 0.13289,-0.10647 0.18572,-0.21214 0.18572,-0.31782 0,-0.10647 -0.0528,-0.18572 -0.0793,-0.23856 -0.0793,-0.13289 -0.92783,-1.669942 -0.92783,-1.669942 0,0 -0.18493,-0.370653 -0.18493,-0.847779 0,-0.84778 0.63563,-1.537051 1.48341,-1.537051 0.34504,0 0.63644,0.106473 0.84778,0.238563 l 1.03351,0.662853 c 0,0 0.10647,0.05284 0.21215,0.05284 0.10647,0 0.18572,-0.02642 0.26498,-0.132891 0.0528,-0.105672 0.0793,-0.158508 0.0793,-0.237762 0,-0.08006 -0.0264,-0.132891 -0.0793,-0.212145 l -0.0528,-0.08006 M 52.93298,28.195038 c -1.802032,-0.582798 -3.788991,-1.457796 -3.788991,-2.649812 0,-1.033506 0.953452,-1.457796 2.092631,-1.457796 1.643524,0 2.756285,0.768525 2.756285,1.987759 0,1.27207 -0.582799,1.881286 -1.059925,2.119849 m -1.69636,6.280294 c -1.695559,0 -3.152555,-0.927834 -3.152555,-2.412049 0,-1.774813 1.377742,-2.199103 1.377742,-2.199103 1.802032,0.609216 4.371789,1.510632 4.371789,2.967629 0,0.715689 -0.927034,1.643523 -2.596976,1.643523 m 3.179774,-5.564604 c 0.874999,-0.662854 1.484215,-1.510633 1.484215,-2.570558 0,-1.907704 -2.093431,-3.471414 -4.663989,-3.471414 -2.569757,0 -4.663188,1.56371 -4.663188,3.471414 0,1.059925 0.264981,2.013377 1.510633,2.80832 -1.192816,0.689271 -1.854869,1.669942 -1.854869,2.942012 0,2.146267 2.25194,3.868245 5.007424,3.868245 2.756285,0 5.008224,-1.721978 5.008224,-3.868245 0,-1.27207 -0.449907,-2.464886 -1.82845,-3.179774 m -2.942011,-7.184753 c -0.874198,0 -1.589887,-1.192415 -1.589887,-2.67631 0,-1.483894 0.715689,-2.702808 1.589887,-2.702808 0.874998,0 1.617105,1.218914 1.617105,2.702808 0,1.483895 -0.742107,2.67631 -1.617105,2.67631 m 0.98067,-6.624529 c -1.616305,0 -2.199103,0.476966 -2.570557,0.874437 -0.07925,-0.55646 -0.132091,-0.98043 -0.132091,-1.4044 0,-1.510393 0.529963,-3.471253 2.384831,-3.471253 0.662053,0 1.059925,0.211985 1.324906,0.503464 -0.556381,0.238483 -1.007089,0.953932 -1.007089,1.563389 0,0.953932 0.742108,1.69588 1.69636,1.69588 0.953452,0 1.721977,-0.741948 1.721977,-1.69588 v -0.07949 c 0,-0.238483 -0.05284,-0.635955 -0.159308,-0.84794 -0.344236,-0.953932 -1.456997,-2.3583327 -4.106808,-2.3583327 -2.384831,0 -4.107609,2.2788377 -4.637571,3.4977517 -0.264982,0.635955 -0.662053,1.934363 -0.662053,3.418257 0,1.616385 0.450708,3.444755 2.014177,4.822658 1.536251,1.165917 2.516921,1.218913 3.444755,1.218913 0.927034,0 4.398208,-1.086423 4.398208,-4.160204 0,-2.596816 -2.040596,-3.577246 -3.709737,-3.577246 M 37.732186,11.859229 c 0,2.093351 -1.086342,3.206272 -2.623393,4.425185 l 0.07925,-5.167133 c 0.05284,-0.238483 0.450708,-1.006928 1.510633,-1.006928 0.953452,0 1.033506,0.900936 1.033506,1.457396 v 0.29148 M 37.413569,8.8119451 c -1.324906,0 -2.092631,0.8214417 -2.225522,0.9804304 l 0.105672,-8.5058959 c 0,-0.2119849 -0.158508,-0.37097363 -0.370653,-0.37097363 h -0.317818 c -0.212145,0 -0.371454,0.15898873 -0.371454,0.37097363 l 0.132891,15.9253694 c 0,0.211985 0.159309,0.370973 0.370654,0.370973 0.05364,0 0.159309,-0.0265 0.212145,-0.053 2.279158,-1.139419 4.663989,-3.312265 4.663989,-6.041571 0,-1.377902 -0.636435,-2.6763099 -2.199904,-2.6763099 M 30.371954,21.787297 c 0,2.093591 -1.086343,3.206352 -2.623394,4.425586 l 0.07925,-5.167533 c 0.05284,-0.238483 0.450709,-1.006929 1.510633,-1.006929 0.954253,0 1.033507,0.900936 1.033507,1.457397 v 0.291479 m -0.317817,-3.047284 c -1.324906,0 -2.093432,0.821442 -2.226323,0.980431 l 0.106473,-8.505896 c 0,-0.211985 -0.159309,-0.370974 -0.371454,-0.370974 h -0.317817 c -0.212145,0 -0.370654,0.158989 -0.370654,0.370974 l 0.132091,15.925369 c 0,0.212145 0.159309,0.370653 0.371454,0.370653 0.05284,0 0.158508,-0.02642 0.211344,-0.05284 2.279159,-1.139179 4.663989,-3.311864 4.663989,-6.041411 0,-1.377902 -0.635634,-2.67631 -2.199103,-2.67631 m 7.678049,62.615374 c 0,2.093431 -1.086342,3.206192 -2.623393,4.425425 l 0.07925,-5.167533 c 0.05284,-0.237762 0.450708,-1.006288 1.510633,-1.006288 0.953452,0 1.033506,0.900616 1.033506,1.456996 v 0.2914 m -0.318617,-3.046884 c -1.324906,0 -2.092631,0.821362 -2.225522,0.97987 l 0.105672,-8.505816 c 0,-0.211344 -0.158508,-0.370653 -0.370653,-0.370653 H 34.60524 c -0.212145,0 -0.371454,0.159309 -0.371454,0.370653 l 0.132891,15.925289 c 0,0.212145 0.159309,0.371454 0.370654,0.371454 0.05364,0 0.159309,-0.02642 0.212145,-0.05284 2.279158,-1.139979 4.663989,-3.312665 4.663989,-6.041731 0,-1.377742 -0.636435,-2.67623 -2.199904,-2.67623 m -7.041615,12.975272 c 0,2.093431 -1.086343,3.206192 -2.623394,4.425426 l 0.07925,-5.167533 c 0.05284,-0.238563 0.450709,-1.007089 1.510633,-1.007089 0.954253,0 1.033507,0.901416 1.033507,1.457797 v 0.291399 m -0.317817,-3.047684 c -1.324906,0 -2.093432,0.821362 -2.226323,0.980671 l 0.106473,-8.505816 c 0,-0.212145 -0.159309,-0.370654 -0.371454,-0.370654 h -0.317817 c -0.212145,0 -0.370654,0.158509 -0.370654,0.370654 l 0.132091,15.925289 c 0,0.212145 0.159309,0.370653 0.371454,0.370653 0.05284,0 0.158508,-0.02642 0.211344,-0.05284 2.279159,-1.139179 4.663989,-3.311864 4.663989,-6.041731 0,-1.377742 -0.635634,-2.67623 -2.199103,-2.67623 M 16.093311,104.42076 c -0.529962,0.10647 -1.033427,0.15931 -1.536891,0.15931 -3.789231,0 -7.0220012,-2.64982 -7.0220012,-6.650951 0,-3.233411 2.2788382,-6.120985 4.6106722,-8.135163 0.450468,-0.397872 0.874438,-0.768525 1.27191,-1.165597 0.238483,1.430579 0.42397,2.67623 0.609457,3.762573 -2.411329,0.714889 -4.0542123,3.259028 -4.0542123,5.749531 0,1.854869 1.4573963,4.399007 3.5772463,4.399007 0.211985,0 0.450468,-0.10567 0.450468,-0.34423 0,-0.23857 -0.264982,-0.37146 -0.582959,-0.5828 -1.033427,-0.63644 -1.616385,-1.32491 -1.616385,-2.623396 0,-1.616306 1.192415,-2.914793 2.755804,-3.286247 l 1.536891,8.717963 M 13.761477,77.180532 c 0.238483,-1.059925 1.457396,-3.841827 2.835298,-3.841827 0.397472,0 1.033427,1.298488 1.033427,3.126938 0,2.755484 -2.040355,4.822498 -3.868725,6.62453 -0.158989,-1.059925 -0.29148,-2.093432 -0.29148,-3.206193 0,-0.98067 0.0795,-1.882086 0.29148,-2.703448 m 6.094567,22.338474 c 0,1.881284 -0.768446,3.815404 -2.649812,4.583934 -0.556461,-3.17977 -1.27191,-7.393055 -1.457397,-8.558652 2.384831,0 4.107209,1.616305 4.107209,3.974718 M 8.1968718,112.55592 c 0,1.7484 1.351404,4.05397 4.9286502,4.05397 1.245411,0 2.331834,-0.31782 3.285766,-0.90061 1.430899,-1.00709 1.801872,-2.75629 1.801872,-4.42543 0,-1.03351 -0.158988,-2.22552 -0.423969,-3.73615 -0.07949,-0.52997 -0.238484,-1.32491 -0.397472,-2.35842 2.596815,-0.84778 4.531178,-3.55042 4.531178,-6.280291 0,-4.001136 -2.835299,-6.703784 -6.704024,-6.703784 -0.264981,-1.589887 -0.529962,-3.153356 -0.768445,-4.63677 2.8088,-2.942012 4.743163,-6.253876 4.743163,-10.467157 0,-2.411249 -0.741948,-4.371789 -1.165917,-5.326042 -0.635955,-1.351324 -1.404401,-2.279158 -1.881367,-2.279158 -0.185487,0 -1.006928,0.318618 -1.881366,1.351324 -1.69588,2.014177 -2.172846,5.406096 -2.172846,7.631618 0,1.431379 0.132491,2.729866 0.582959,5.697495 -0.0265,0.02642 -1.404401,1.430579 -1.960861,1.881287 -2.4113287,2.25194 -5.7500916,5.458132 -5.7500916,10.757755 0,4.955393 4.3191932,8.850853 9.2478436,8.850853 0.768445,0 1.483894,-0.0793 2.093351,-0.18573 0.503464,2.54414 0.794943,4.39901 0.794943,5.80317 0,2.75548 -1.4044,4.21328 -4.08071,4.21328 -0.635955,0 -1.192415,-0.13289 -1.245411,-0.13289 -0.0265,-0.0264 -0.07949,-0.0528 -0.07949,-0.0793 0,-0.0528 0.053,-0.0793 0.132491,-0.10568 1.245412,-0.18572 2.490823,-1.24565 2.490823,-2.94121 0,-1.43138 -1.086423,-2.94121 -3.073782,-2.94121 -1.8548679,0 -3.0472832,1.50983 -3.0472832,3.25903 M 16.093311,34.924439 c -0.529962,0.106473 -1.033427,0.159309 -1.536891,0.159309 -3.789231,0 -7.0220012,-2.649811 -7.0220012,-6.650947 0,-3.233411 2.2788382,-6.121386 4.6106722,-8.135243 0.450468,-0.397471 0.874438,-0.768445 1.27191,-1.165917 0.238483,1.430899 0.42397,2.67631 0.609457,3.762733 -2.411329,0.715129 -4.0542123,3.259268 -4.0542123,5.749771 0,1.854869 1.4573963,4.399008 3.5772463,4.399008 0.211985,0 0.450468,-0.105672 0.450468,-0.344235 0,-0.238563 -0.264982,-0.371454 -0.582959,-0.582799 -1.033427,-0.636435 -1.616385,-1.324906 -1.616385,-2.623393 0,-1.616306 1.192415,-2.914793 2.755804,-3.286247 l 1.536891,8.71796 M 13.761477,7.6844542 c 0.238483,-1.0599247 1.457396,-3.8422271 2.835298,-3.8422271 0.397472,0 1.033427,1.2984078 1.033427,3.1267779 0,2.7558043 -2.040355,4.822658 -3.868725,6.62453 -0.158989,-1.059925 -0.29148,-2.093352 -0.29148,-3.206273 0,-0.9804301 0.0795,-1.8813661 0.29148,-2.7028078 m 6.094567,22.3382338 c 0,1.881286 -0.768446,3.815409 -2.649812,4.583934 -0.556461,-3.179774 -1.27191,-7.393055 -1.457397,-8.558652 2.384831,0 4.107209,1.616305 4.107209,3.974718 M 8.1968718,43.059602 c 0,1.748395 1.351404,4.053972 4.9286502,4.053972 1.245411,0 2.331834,-0.317818 3.285766,-0.900616 1.430899,-1.007089 1.801872,-2.756285 1.801872,-4.425426 0,-1.033507 -0.158988,-2.225522 -0.423969,-3.736154 -0.07949,-0.529963 -0.238484,-1.324906 -0.397472,-2.358413 2.596815,-0.84778 4.531178,-3.550428 4.531178,-6.280294 0,-4.001136 -2.835299,-6.703784 -6.704024,-6.703784 -0.264981,-1.589887 -0.529962,-3.153276 -0.768445,-4.637171 2.8088,-2.941291 4.743163,-6.253555 4.743163,-10.4667561 0,-2.4113288 -0.741948,-4.3721895 -1.165917,-5.3261218 C 17.391719,0.92743413 16.623273,0 16.146307,0 15.96082,0 15.139379,0.31797742 14.264941,1.351404 c -1.69588,2.013857 -2.172846,5.4056161 -2.172846,7.631458 0,1.430898 0.132491,2.729306 0.582959,5.697095 -0.0265,0.0265 -1.404401,1.430899 -1.960861,1.881367 -2.4113287,2.25234 -5.7500916,5.458612 -5.7500916,10.757915 0,4.955389 4.3191932,8.850852 9.2478436,8.850852 0.768445,0 1.483894,-0.07925 2.093351,-0.185727 0.503464,2.54414 0.794943,4.399008 0.794943,5.803168 0,2.755484 -1.4044,4.213281 -4.08071,4.213281 -0.635955,0 -1.192415,-0.132891 -1.245411,-0.132891 -0.0265,-0.02642 -0.07949,-0.05284 -0.07949,-0.07925 0,-0.05284 0.053,-0.07925 0.132491,-0.105672 1.245412,-0.185727 2.490823,-1.245652 2.490823,-2.941211 0,-1.431379 -1.086423,-2.941211 -3.073782,-2.941211 -1.8548679,0 -3.0472832,1.509832 -3.0472832,3.259028 M 611.29796,17.341457 c 0,1.139419 0.82136,2.411329 2.96843,2.411329 2.75548,0 5.64386,-2.25234 5.64386,-4.584175 0,-1.563388 -1.32491,-2.437826 -2.96763,-2.437826 -2.57056,0 -5.64466,2.172845 -5.64466,4.610672 M 208.80595,20.65076 c 0,1.139419 0.82137,2.411329 2.96763,2.411329 2.75629,0 5.64386,-2.25234 5.64386,-4.584175 0,-1.563389 -1.3249,-2.437827 -2.96763,-2.437827 -2.56975,0 -5.64386,2.172846 -5.64386,4.610673 m 254.56526,62.877312 c 0,1.13998 0.82136,2.412049 2.96763,2.412049 2.75629,0 5.64386,-2.25274 5.64386,-4.584734 0,-1.563469 -1.3249,-2.437667 -2.96763,-2.437667 -2.56976,0 -5.64386,2.172685 -5.64386,4.610352 M 180.80761,23.960143 c 0,1.139179 0.82136,2.411248 2.96763,2.411248 2.75628,0 5.64466,-2.251939 5.64466,-4.584094 0,-1.563389 -1.32491,-2.437827 -2.96843,-2.437827 -2.56976,0 -5.64386,2.172846 -5.64386,4.610673 m 46.51741,-6.618686 c 0,1.139419 0.82136,2.411329 2.96763,2.411329 2.75548,0 5.64385,-2.25234 5.64385,-4.584175 0,-1.563388 -1.3249,-2.437826 -2.96762,-2.437826 -2.57056,0 -5.64386,2.172845 -5.64386,4.610672 m 279.53113,72.805541 c 0,1.139179 0.82136,2.411248 2.96762,2.411248 2.75549,0 5.64386,-2.251939 5.64386,-4.583934 0,-1.563469 -1.3249,-2.437667 -2.96763,-2.437667 -2.57055,0 -5.64385,2.172686 -5.64385,4.610353 M 245.84328,20.65076 c 0,1.139419 0.82216,2.411329 2.96843,2.411329 2.75548,0 5.64386,-2.25234 5.64386,-4.584175 0,-1.563389 -1.32491,-2.437827 -2.96763,-2.437827 -2.57056,0 -5.64466,2.172846 -5.64466,4.610673 m 18.51906,0 c 0,1.139419 0.82136,2.411329 2.96763,2.411329 2.75628,0 5.64466,-2.25234 5.64466,-4.584175 0,-1.563389 -1.32491,-2.437827 -2.96843,-2.437827 -2.56976,0 -5.64386,2.172846 -5.64386,4.610673 m -111.33292,3.309383 c 0,1.139179 0.82136,2.411248 2.96763,2.411248 2.75628,0 5.64466,-2.251939 5.64466,-4.584094 0,-1.563389 -1.32491,-2.437827 -2.96843,-2.437827 -2.56976,0 -5.64386,2.172846 -5.64386,4.610673 M 379.94937,80.21941 c 0,1.139179 0.82217,2.411249 2.96843,2.411249 2.75549,0 5.64386,-2.252741 5.64386,-4.584735 0,-1.563469 -1.3249,-2.437667 -2.96763,-2.437667 -2.57055,0 -5.64466,2.172686 -5.64466,4.611153 M 292.14053,20.65076 c 0,1.139419 0.82137,2.411329 2.96843,2.411329 2.75549,0 5.64386,-2.25234 5.64386,-4.584175 0,-1.563389 -1.3249,-2.437827 -2.96763,-2.437827 -2.57055,0 -5.64466,2.172846 -5.64466,4.610673 m 66.06678,56.259187 c 0,1.139179 0.82136,2.411249 2.96763,2.411249 2.75628,0 5.64466,-2.252741 5.64466,-4.583935 0,-1.563469 -1.32491,-2.438467 -2.96843,-2.438467 -2.56976,0 -5.64386,2.173486 -5.64386,4.611153 m -38.06843,-59.56849 c 0,1.139419 0.82136,2.411329 2.96763,2.411329 2.75628,0 5.64466,-2.25234 5.64466,-4.584175 0,-1.563388 -1.32491,-2.437826 -2.96843,-2.437826 -2.56976,0 -5.64386,2.172845 -5.64386,4.610672 m 16.32636,62.877953 c 0,1.139179 0.82136,2.411249 2.96763,2.411249 2.75548,0 5.64386,-2.252741 5.64386,-4.584735 0,-1.563469 -1.32491,-2.437667 -2.96763,-2.437667 -2.57056,0 -5.64386,2.172686 -5.64386,4.611153 m 192.13297,13.237051 c 0,1.139179 0.82136,2.411248 2.96763,2.411248 2.75629,0 5.64386,-2.251939 5.64386,-4.583934 0,-1.563469 -1.32491,-2.437667 -2.96763,-2.437667 -2.56976,0 -5.64386,2.172686 -5.64386,4.610353 M 134.51036,23.960143 c 0,1.139179 0.82136,2.411248 2.96762,2.411248 2.75629,0 5.64466,-2.251939 5.64466,-4.584094 0,-1.563389 -1.3249,-2.437827 -2.96763,-2.437827 -2.57055,0 -5.64465,2.172846 -5.64465,4.610673 m 180.21201,59.567929 c 0,1.13998 0.82217,2.412049 2.96843,2.412049 2.75549,0 5.64386,-2.25274 5.64386,-4.584734 0,-1.563469 -1.3249,-2.437667 -2.96763,-2.437667 -2.57055,0 -5.64466,2.172685 -5.64466,4.610352 m 23.93557,-69.495998 c 0,1.139419 0.82136,2.411329 2.96763,2.411329 2.75548,0 5.64386,-2.25234 5.64386,-4.584174 0,-1.563389 -1.32491,-2.4378271 -2.96763,-2.4378271 -2.57056,0 -5.64386,2.1728461 -5.64386,4.6106721 M 357.177,10.722772 c 0,1.139419 0.82136,2.411328 2.96763,2.411328 2.75549,0 5.64386,-2.25234 5.64386,-4.584174 0,-1.563389 -1.3249,-2.4378269 -2.96763,-2.4378269 -2.57056,0 -5.64386,2.1728457 -5.64386,4.6106729 m 18.51826,16.546834 c 0,1.139178 0.82137,2.411248 2.96843,2.411248 2.75549,0 5.64386,-2.25274 5.64386,-4.583934 0,-1.563469 -1.3249,-2.438067 -2.96763,-2.438067 -2.57055,0 -5.64466,2.173086 -5.64466,4.610753 m -92.17982,59.567929 c 0,1.139979 0.82136,2.411249 2.96763,2.411249 2.75628,0 5.64466,-2.25194 5.64466,-4.583935 0,-1.563469 -1.32491,-2.437666 -2.96763,-2.437666 -2.57056,0 -5.64466,2.172685 -5.64466,4.610352 M 115.99129,20.65076 c 0,1.139419 0.82216,2.411329 2.96843,2.411329 2.75549,0 5.64386,-2.25234 5.64386,-4.584175 0,-1.563389 -1.3249,-2.437827 -2.96763,-2.437827 -2.57056,0 -5.64466,2.172846 -5.64466,4.610673 m 278.22304,3.309383 c 0,1.139179 0.82136,2.411248 2.96763,2.411248 2.75628,0 5.64466,-2.251939 5.64466,-4.584094 0,-1.563389 -1.32491,-2.437827 -2.96843,-2.437827 -2.56976,0 -5.64386,2.172846 -5.64386,4.610673 M 250.90194,93.456461 c 0,1.139179 0.82136,2.411248 2.96763,2.411248 2.75628,0 5.64466,-2.251939 5.64466,-4.583934 0,-1.563469 -1.32491,-2.437667 -2.96763,-2.437667 -2.57056,0 -5.64466,2.172686 -5.64466,4.610353 M 412.73339,30.579068 c 0,1.139179 0.82136,2.411249 2.96763,2.411249 2.75548,0 5.64386,-2.25274 5.64386,-4.583934 0,-1.563469 -1.32491,-2.438468 -2.96763,-2.438468 -2.57056,0 -5.64386,2.173487 -5.64386,4.611153 M 229.15987,80.21941 c 0,1.139179 0.82136,2.411249 2.96763,2.411249 2.75629,0 5.64386,-2.252741 5.64386,-4.584735 0,-1.563469 -1.32491,-2.437667 -2.96763,-2.437667 -2.56976,0 -5.64386,2.172686 -5.64386,4.611153 M 440.73173,27.269606 c 0,1.139178 0.82136,2.411248 2.96763,2.411248 2.75549,0 5.64386,-2.25274 5.64386,-4.583934 0,-1.563469 -1.3249,-2.438067 -2.96763,-2.438067 -2.57056,0 -5.64386,2.173086 -5.64386,4.610753 M 207.41781,83.528072 c 0,1.13998 0.82136,2.412049 2.96762,2.412049 2.75549,0 5.64386,-2.25274 5.64386,-4.584734 0,-1.563469 -1.3249,-2.437667 -2.96763,-2.437667 -2.57055,0 -5.64385,2.172685 -5.64385,4.610352 m 352.38734,19.856778 c 0,1.13918 0.82136,2.41125 2.96763,2.41125 2.75628,0 5.64466,-2.25274 5.64466,-4.58474 0,-1.562665 -1.32491,-2.437664 -2.96843,-2.437664 -2.56976,0 -5.64386,2.172684 -5.64386,4.611154 M 97.473031,23.960143 c 0,1.139179 0.821362,2.411248 2.967629,2.411248 2.75548,0 5.64386,-2.251939 5.64386,-4.584094 0,-1.563389 -1.32491,-2.437827 -2.96763,-2.437827 -2.57056,0 -5.643859,2.172846 -5.643859,4.610673 m 88.201909,62.877392 c 0,1.139979 0.82136,2.411249 2.96763,2.411249 2.75628,0 5.64466,-2.25194 5.64466,-4.583935 0,-1.563469 -1.32491,-2.437666 -2.96763,-2.437666 -2.57056,0 -5.64466,2.172685 -5.64466,4.610352 M 459.25,33.888531 c 0,1.139179 0.82216,2.411249 2.96842,2.411249 2.75549,0 5.64386,-2.25274 5.64386,-4.584735 0,-1.563469 -1.3249,-2.437667 -2.96763,-2.437667 -2.57055,0 -5.64465,2.172686 -5.64465,4.611153 m 18.51906,0 c 0,1.139179 0.82136,2.411249 2.96763,2.411249 2.75628,0 5.64466,-2.25274 5.64466,-4.584735 0,-1.563469 -1.32491,-2.437667 -2.96843,-2.437667 -2.56976,0 -5.64386,2.172686 -5.64386,4.611153 m 103.77816,59.56793 c 0,1.139179 0.82216,2.411248 2.96843,2.411248 2.75548,0 5.64385,-2.251939 5.64385,-4.583934 0,-1.563469 -1.3249,-2.437667 -2.96763,-2.437667 -2.57055,0 -5.64465,2.172686 -5.64465,4.610353 m -427.54994,3.309462 c 0,1.139179 0.82136,2.411249 2.96763,2.411249 2.75548,0 5.64386,-2.25274 5.64386,-4.583934 0,-1.563469 -1.32491,-2.438467 -2.96763,-2.438467 -2.57056,0 -5.64386,2.173486 -5.64386,4.611152 M 542.58217,27.269606 c 0,1.139178 0.82136,2.411248 2.96843,2.411248 2.75549,0 5.64386,-2.25274 5.64386,-4.583934 0,-1.563469 -1.3249,-2.438067 -2.96763,-2.438067 -2.57055,0 -5.64466,2.173086 -5.64466,4.610753 m 31.67846,-3.309463 c 0,1.139179 0.82136,2.411248 2.96763,2.411248 2.75549,0 5.64386,-2.251939 5.64386,-4.584094 0,-1.563389 -1.3249,-2.437827 -2.96763,-2.437827 -2.57056,0 -5.64386,2.172846 -5.64386,4.610673 m -452.87685,72.80578 c 0,1.139179 0.82136,2.411249 2.96763,2.411249 2.75548,0 5.64386,-2.25274 5.64386,-4.583934 0,-1.563469 -1.32491,-2.438467 -2.96763,-2.438467 -2.57056,0 -5.64386,2.173486 -5.64386,4.611152 M 69.47469,10.722772 c 0,1.139419 0.821362,2.411328 2.967629,2.411328 2.756285,0 5.643859,-2.25234 5.643859,-4.584174 0,-1.563389 -1.324905,-2.4378269 -2.967629,-2.4378269 -2.569757,0 -5.643859,2.1728457 -5.643859,4.6106729 m 30.166223,72.8053 c 0,1.13998 0.822167,2.412049 2.968427,2.412049 2.75549,0 5.64386,-2.25274 5.64386,-4.584734 0,-1.563469 -1.3249,-2.437667 -2.96763,-2.437667 -2.57055,0 -5.644657,2.172685 -5.644657,4.610352 M 592.7797,20.65076 c 0,1.139419 0.82136,2.411329 2.96762,2.411329 2.75549,0 5.64386,-2.25234 5.64386,-4.584175 0,-1.563389 -1.3249,-2.437827 -2.96763,-2.437827 -2.57055,0 -5.64385,2.172846 -5.64385,4.610673 M 77.89885,86.837535 c 0,1.139979 0.821362,2.411249 2.967626,2.411249 2.756285,0 5.64466,-2.25194 5.64466,-4.583935 0,-1.563469 -1.324906,-2.437666 -2.96843,-2.437666 -2.569757,0 -5.643856,2.172685 -5.643856,4.610352 M 629.81702,30.579068 c 0,1.139179 0.82136,2.411249 2.96763,2.411249 2.75628,0 5.64466,-2.25274 5.64466,-4.583934 0,-1.563469 -1.32491,-2.438468 -2.96843,-2.438468 -2.56976,0 -5.64386,2.173487 -5.64386,4.611153 m -26.52694,59.56793 c 0,1.139179 0.82136,2.411248 2.96763,2.411248 2.75549,0 5.64386,-2.251939 5.64386,-4.583934 0,-1.563469 -1.32491,-2.437667 -2.96763,-2.437667 -2.57056,0 -5.64386,2.172686 -5.64386,4.610353 m -547.133296,0 c 0,1.139179 0.821362,2.411248 2.967629,2.411248 2.755484,0 5.643859,-2.251939 5.643859,-4.583934 0,-1.563469 -1.324906,-2.437667 -2.967629,-2.437667 -2.570557,0 -5.643859,2.172686 -5.643859,4.610353 M 657.59521,30.579068 c 0,1.139179 0.82136,2.411249 2.96763,2.411249 2.75629,0 5.64466,-2.25274 5.64466,-4.583934 0,-1.563469 -1.3249,-2.438468 -2.96763,-2.438468 -2.57056,0 -5.64466,2.173487 -5.64466,4.611153 m -32.56306,56.258467 c 0,1.139979 0.82136,2.411249 2.96763,2.411249 2.75628,0 5.64466,-2.25194 5.64466,-4.583935 0,-1.563469 -1.32491,-2.437666 -2.96843,-2.437666 -2.56976,0 -5.64386,2.172685 -5.64386,4.610352 m -139.91887,0 c 0,1.139979 0.82136,2.411249 2.96763,2.411249 2.75628,0 5.64466,-2.25194 5.64466,-4.583935 0,-1.563469 -1.32491,-2.437666 -2.96763,-2.437666 -2.57056,0 -5.64466,2.172685 -5.64466,4.610352 m 161.66093,6.618926 c 0,1.139179 0.82217,2.411248 2.96843,2.411248 2.75549,0 5.64386,-2.251939 5.64386,-4.583934 0,-1.563469 -1.3249,-2.437667 -2.96763,-2.437667 -2.57055,0 -5.64466,2.172686 -5.64466,4.610353 m -183.403,12.097869 c 0,0.18573 0.15931,0.34424 0.34424,0.34424 0.13289,0 0.2914,-0.10567 0.31782,-0.21135 0,-0.0264 0.23856,-0.95425 0.26498,-1.0335 0.0272,-0.10648 0.26498,-1.11276 1.21923,-2.67623 1.03351,-1.72278 2.62339,-2.968433 3.9483,-4.823301 1.29849,-1.854868 2.09343,-3.603264 2.09343,-5.935258 0,-2.411249 -0.55638,-4.425426 -1.96134,-6.995183 -0.0793,-0.185727 -0.23776,-0.291399 -0.39707,-0.291399 -0.0528,0 -0.10567,0 -0.13289,0.02642 -0.13209,0.05284 -0.18493,0.158508 -0.18493,0.317817 0,0.07925 0.0264,0.212145 0.0793,0.317817 1.05992,2.464085 1.48421,3.869046 1.48421,5.77675 0,2.199104 -0.76852,3.338283 -1.24565,4.160445 -1.72278,2.941211 -4.50468,4.371789 -5.61744,4.742442 -0.18573,0.08006 -0.21215,0.212145 -0.21215,0.2922 v 5.98809 M 292.14053,41.022209 c 0,0.185727 0.15931,0.344235 0.34504,0.344235 0.13209,0 0.2914,-0.105672 0.31782,-0.212145 0,-0.02642 0.23856,-0.953452 0.26498,-1.032706 0.0264,-0.106473 0.26498,-1.113561 1.21843,-2.67703 1.03351,-1.721978 2.6234,-2.967629 3.9483,-4.822498 1.29849,-1.854868 2.09343,-3.603263 2.09343,-5.935258 0,-2.411249 -0.55638,-4.425346 -1.96054,-6.995663 -0.0793,-0.185487 -0.23856,-0.29148 -0.39787,-0.29148 -0.0528,0 -0.10567,0 -0.13209,0.0265 -0.13289,0.053 -0.18573,0.158988 -0.18573,0.317977 0,0.07949 0.0264,0.211985 0.0793,0.317977 1.05992,2.464325 1.48421,3.868405 1.48421,5.77691 0,2.199104 -0.76852,3.338283 -1.24565,4.159645 -1.72198,2.941211 -4.50468,4.372589 -5.61744,4.743243 -0.18573,0.08005 -0.21215,0.212145 -0.21215,0.291399 v 5.988895 m -111.33292,3.309463 c 0,0.184926 0.15931,0.344235 0.34424,0.344235 0.13289,0 0.2922,-0.105672 0.31861,-0.212145 0,-0.02642 0.23857,-0.953452 0.26499,-1.033507 0.0264,-0.105672 0.26498,-1.112761 1.21843,-2.67623 1.0335,-1.721977 2.62339,-2.967629 3.9483,-4.822497 1.29849,-1.854868 2.09343,-3.604064 2.09343,-5.935258 0,-2.411249 -0.55638,-4.425426 -1.96054,-6.995743 -0.0801,-0.185487 -0.23856,-0.29148 -0.39787,-0.29148 -0.0528,0 -0.10568,0 -0.13209,0.0265 -0.13289,0.053 -0.18573,0.158989 -0.18573,0.317978 0,0.07949 0.0264,0.211985 0.0793,0.318217 1.05993,2.464085 1.48422,3.868245 1.48422,5.77595 0,2.199904 -0.76853,3.339083 -1.24565,4.160444 -1.72198,2.941211 -4.50468,4.37259 -5.61744,4.743244 -0.18573,0.07925 -0.21215,0.212145 -0.21215,0.291399 v 5.988895 M 283.51544,108.8638 c 0,0.18572 0.15931,0.34423 0.34503,0.34423 0.13209,0 0.2914,-0.10567 0.31782,-0.21134 0,-0.0272 0.23856,-0.95426 0.26498,-1.03351 0.0264,-0.10647 0.26498,-1.11356 1.21843,-2.67623 1.03351,-1.72278 2.6234,-2.96843 3.9483,-4.8233 1.29849,-1.854866 2.09344,-3.603262 2.09344,-5.935256 0,-2.411249 -0.55638,-4.425426 -1.96055,-6.995183 -0.08,-0.185727 -0.23856,-0.2922 -0.39787,-0.2922 -0.0528,0 -0.10567,0 -0.13209,0.02722 -0.13289,0.05284 -0.18572,0.158509 -0.18572,0.317818 0,0.07925 0.0264,0.212145 0.0793,0.317817 1.05992,2.464085 1.48421,3.869045 1.48421,5.77675 0,2.199104 -0.76852,3.338282 -1.24565,4.159644 -1.72197,2.94201 -4.50468,4.37259 -5.61744,4.74324 -0.18572,0.0801 -0.21214,0.21215 -0.21214,0.2914 v 5.9889 m 382.0228,-96.548257 c 0,0.07949 0.0264,0.211985 0.21135,0.291479 1.13998,0.370974 3.41834,1.801872 5.14111,4.743163 0.47713,0.821442 1.24485,1.960861 1.24485,4.160205 0,1.907784 -0.50274,3.869125 -1.19201,5.77683 -0.0528,0.158508 -0.10567,0.291399 -0.0793,0.397071 0,0.159309 0.10567,0.264981 0.26498,0.264981 0.18492,0 0.31781,-0.105672 0.42349,-0.291399 1.19281,-2.119849 1.64272,-4.584094 1.64272,-6.995423 -0.13209,-3.418257 -2.09263,-5.935579 -2.09263,-5.935579 0.0793,0 -2.43847,-3.259268 -3.15336,-4.372189 -0.98067,-1.5103927 -1.43138,-3.0207855 -1.48421,-3.1267779 -0.0264,-0.079494 -0.26498,-1.0334266 -0.26498,-1.0334266 -0.0264,-0.1059925 -0.15931,-0.211985 -0.31782,-0.211985 -0.18573,0 -0.34424,0.1589887 -0.34424,0.3444755 v 5.988575 M 550.5252,10.660889 c 0,0.0795 0.0264,0.211985 0.21135,0.29148 1.13998,0.370973 3.41834,1.801872 5.14111,4.743163 0.47713,0.821441 1.24566,1.960861 1.24566,4.160204 0,1.907865 -0.50355,3.869046 -1.19282,5.77675 -0.0528,0.158509 -0.10567,0.291399 -0.0793,0.397072 0,0.159309 0.10567,0.264981 0.26498,0.264981 0.18492,0 0.31781,-0.105672 0.42349,-0.291399 1.19281,-2.11985 1.64352,-4.584015 1.64352,-6.995343 -0.13289,-3.418258 -2.09343,-5.935579 -2.09343,-5.935579 0.0792,0 -2.43847,-3.2592684 -3.15336,-4.3721894 -0.98067,-1.5103927 -1.43138,-3.0207854 -1.48421,-3.1267779 -0.0264,-0.079494 -0.26498,-1.0334266 -0.26498,-1.0334266 -0.0264,-0.1059925 -0.15851,-0.211985 -0.31782,-0.211985 -0.18573,0 -0.34424,0.1589888 -0.34424,0.3444756 V 10.660889 M 69.47469,32.748552 c 0,0.185727 0.159309,0.345036 0.344236,0.345036 0.132891,0 0.291399,-0.106473 0.317817,-0.212145 0,-0.02642 0.238563,-0.954253 0.264981,-1.033507 0.02722,-0.106473 0.264981,-1.112761 1.219234,-2.67623 1.033507,-1.722778 2.623394,-2.967629 3.948299,-4.822497 1.298488,-1.855189 2.093432,-3.604065 2.093432,-5.935899 0,-2.411329 -0.556381,-4.425186 -1.961341,-6.995503 -0.07925,-0.185487 -0.237763,-0.291479 -0.397072,-0.291479 -0.05284,0 -0.105672,0 -0.132891,0.0265 -0.13209,0.053 -0.184926,0.158988 -0.184926,0.317977 0,0.07949 0.02642,0.211985 0.07925,0.317978 1.059925,2.464325 1.484215,3.868725 1.484215,5.776589 0,2.199344 -0.768525,3.338763 -1.245652,4.160205 -1.722778,2.941451 -4.50468,4.372029 -5.617441,4.743483 -0.185727,0.07925 -0.212145,0.211345 -0.212145,0.291399 v 5.988095 m 92.464824,47.408415 c 0,0.08006 0.0264,0.212145 0.21214,0.291399 1.13918,0.371454 3.41834,1.802032 5.14032,4.743244 0.47713,0.821361 1.24565,1.961341 1.24565,4.160444 0,1.907705 -0.50354,3.869046 -1.19281,5.77675 -0.0528,0.158508 -0.10568,0.291399 -0.0793,0.397072 0,0.159308 0.10647,0.264981 0.26498,0.264981 0.18573,0 0.31782,-0.105673 0.42429,-0.291399 1.19202,-2.11985 1.64273,-4.583935 1.64273,-6.995183 -0.13289,-3.418338 -2.09344,-5.936059 -2.09344,-5.936059 0.0793,0 -2.43766,-3.259029 -3.15335,-4.371789 -0.98067,-1.510633 -1.43058,-3.020466 -1.48342,-3.126938 -0.0272,-0.07926 -0.26498,-1.033507 -0.26498,-1.033507 -0.0272,-0.105672 -0.15931,-0.212145 -0.31861,-0.212145 -0.18493,0 -0.34424,0.159309 -0.34424,0.345036 v 5.988094 M 245.84368,20.649731 V 37.73923 h 0.66201 V 20.649729 Z M 99.641249,83.527256 v 20.423654 h 0.662171 V 83.527256 Z M 592.77937,20.649729 v 19.571972 h 0.66202 V 20.649729 Z m -463.45376,53.49267 v 20.451639 h 0.66201 V 74.142399 Z m 495.70612,12.694303 v 22.078378 h 0.66202 V 86.836702 Z M 574.26031,23.959334 v 17.074955 h 0.66201 V 23.959334 Z m 72.51426,69.49627 v 17.065256 h 0.66217 V 93.455604 Z M 69.474218,10.721691 v 22.026933 h 0.662173 V 10.721691 Z m 92.464942,63.47356 v 20.398787 h 0.66202 V 74.195251 Z M 550.52485,4.6986663 V 25.097769 h 0.66202 V 4.6986663 Z M 77.898418,86.836702 v 18.744068 h 0.662013 V 86.836702 Z M 611.23198,70.869849 V 87.975137 H 611.894 V 70.869849 Z M 97.472583,23.959334 v 17.089341 h 0.662172 V 23.959334 Z M 589.48977,73.314649 v 17.969943 h 0.66218 V 73.314649 Z M 567.74772,75.7596 v 25.45334 h 0.66218 V 75.7596 Z M 115.99165,20.649729 v 20.398946 h 0.66217 V 20.649729 Z M 485.71163,9.6098371 V 31.71667 h 0.66217 V 9.6098371 Z M 185.67539,86.836702 v 18.732028 h 0.66202 V 86.836702 Z M 467.19256,9.5812239 V 31.71667 h 0.66217 V 9.5812239 Z M 207.41745,83.527256 V 104.7538 h 0.66201 V 83.527256 Z m 21.74205,-3.309455 v 23.721069 h 0.66201 V 80.217801 Z M 448.67349,7.9837253 V 25.097769 h 0.66217 V 7.9837253 Z M 134.51072,23.959334 v 17.089341 h 0.66202 V 23.959334 Z m 18.51828,0 v 18.744064 h 0.66202 V 23.959334 Z m 97.87333,69.49627 v 18.744066 h 0.66202 V 93.455604 Z M 420.67607,4.6458182 V 28.407223 h 0.66202 V 4.6458182 Z m 244.8618,1.7075731 V 28.407223 h 0.66201 V 6.3533913 Z M 402.157,4.6458182 V 21.78832 h 0.66202 V 4.6458182 Z M 283.51588,86.836702 V 108.8638 h 0.66202 V 86.836702 Z m 245.08195,6.618902 V 110.5329 h 0.66202 V 93.455604 Z M 383.63794,4.6458182 V 25.097769 h 0.66201 V 4.6458182 Z M 56.156368,90.146157 v 17.064473 h 0.662013 V 90.146157 Z M 357.17656,10.721691 v 23.722468 h 0.66217 V 10.721691 Z M 180.808,23.959334 v 20.37237 h 0.66202 v -20.37237 z m 157.84949,-9.928193 v 21.22639 h 0.66217 v -21.22639 z m -2.19259,66.18666 v 18.744848 h 0.66201 V 80.217801 Z M 637.75966,6.3005432 V 28.407223 h 0.66201 V 6.3005432 Z M 314.72285,83.527256 v 17.064474 h 0.66201 V 83.527256 Z m 43.4841,-6.618126 v 20.423653 h 0.66202 V 76.90913 Z M 320.13921,17.340435 v 18.729524 h 0.66216 V 17.340435 Z m 186.71657,72.805722 v 19.571813 h 0.66201 V 90.146157 Z M 208.80558,20.649729 v 17.089499 h 0.66201 V 20.649729 Z m 171.14421,59.568072 v 22.053519 h 0.66201 V 80.217801 Z M 292.141,20.649729 v 20.37252 h 0.66201 v -20.37252 z m 192.97272,66.186973 v 22.066338 h 0.66202 V 86.836702 Z M 264.36278,20.649729 v 20.398946 h 0.66202 V 20.649729 Z m 199.0081,62.877527 v 22.027094 h 0.66203 V 83.527256 Z M 611.29829,17.340435 v 22.067902 h 0.66216 V 17.340435 Z m -383.97364,0 v 20.398793 h 0.66201 V 17.340435 Z m 236.65603,20.101398 a 0.16531304,0.16531304 0 0 0 -0.0452,0.01736 0.16531304,0.16531304 0 0 0 -0.0482,0.0086 0.16531304,0.16531304 0 0 0 -0.009,0.01344 0.16531304,0.16531304 0 0 0 -0.0153,0.0059 0.16531304,0.16531304 0 0 0 -0.0197,0.04441 0.16531304,0.16531304 0 0 0 -0.0252,0.05629 0.16531304,0.16531304 0 0 0 0.0108,0.06004 0.16531304,0.16531304 0 0 0 0.009,0.04831 c 1.75966,2.747871 5.25437,4.103117 8.73643,4.103117 3.48207,0 6.977,-1.355262 8.73707,-4.103117 a 0.16532957,0.16532957 0 0 0 -0.25908,-0.202955 c -1.66274,1.751373 -5.06796,2.665414 -8.47799,2.665414 -3.41002,0 -6.81486,-0.914057 -8.4772,-2.665414 a 0.16531304,0.16531304 0 0 0 -0.0447,-0.01985 0.16531304,0.16531304 0 0 0 -0.056,-0.02502 0.16531304,0.16531304 0 0 0 -0.015,-0.0066 z m 16.13509,1.213173 c -1.83153,1.865828 -4.68029,2.813644 -7.54219,2.813644 -2.86181,0 -5.7103,-0.947776 -7.54156,-2.813484 1.91156,1.228977 4.7201,1.834062 7.54156,1.834062 2.82158,0 5.63037,-0.605141 7.54219,-1.834222 z m -16.13934,-1.047932 c 3.43835,3.622477 13.7558,3.622477 17.19495,0 -3.43915,5.369271 -13.7566,5.369271 -17.19495,0 M 421.2929,78.742416 v 27.202514 h 1.19112 V 78.742416 Z m -245.0821,0 v 27.202514 h 1.19127 V 78.742416 Z M 521.82601,9.2458378 V 36.448658 H 525.466 V 9.2458378 Z m -3.64045,0 V 36.448658 h 1.19112 V 9.2458378 Z m -2.44654,16.9110072 c 0,-0.768526 -0.61002,-1.404961 -1.37774,-1.404961 -0.76853,0 -1.37855,0.636435 -1.37855,1.404961 0,0.768525 0.61002,1.40416 1.37855,1.40416 0.76772,0 1.37774,-0.635635 1.37774,-1.40416 m 0,-6.619006 c 0,-0.768445 -0.61002,-1.4044 -1.37774,-1.4044 -0.76853,0 -1.37855,0.635955 -1.37855,1.4044 0,0.768445 0.61002,1.4044 1.37855,1.4044 0.76772,0 1.37774,-0.635955 1.37774,-1.4044 M 431.2669,9.2458378 V 36.448658 h 1.19114 V 9.2458378 Z M 305.25825,78.742416 v 27.202514 h 1.19128 V 78.742416 Z M 88.008143,9.2458378 V 36.448658 h 1.191279 V 9.2458378 Z M 534.31092,26.156845 c 0,-0.768526 -0.60922,-1.404961 -1.37774,-1.404961 -0.76853,0 -1.37775,0.636435 -1.37775,1.404961 0,0.768525 0.60922,1.40416 1.37775,1.40416 0.76852,0 1.37774,-0.635635 1.37774,-1.40416 m 0,-6.619006 c 0,-0.768445 -0.60922,-1.4044 -1.37774,-1.4044 -0.76853,0 -1.37775,0.635955 -1.37775,1.4044 0,0.768445 0.60922,1.4044 1.37775,1.4044 0.76852,0 1.37774,-0.635955 1.37774,-1.4044 M 527.91533,9.2458378 V 36.448658 h 1.19129 V 9.2458378 Z m -6.08932,0 V 36.448658 H 525.466 V 9.2458378 Z m 42.9697,0 V 36.448658 h 1.19128 V 9.2458378 Z m -365.45457,0 V 36.448658 h 1.19113 V 9.2458378 Z m 111.33284,0 V 36.448658 h 1.19128 V 9.2458378 Z M 677.35954,78.742416 v 27.202514 h 3.64015 V 78.742416 Z m -3.63967,0 V 105.94493 H 674.911 V 78.742416 Z m -2.44731,16.910747 c 0,-0.768526 -0.60921,-1.404961 -1.37774,-1.404961 -0.76852,0 -1.37774,0.636435 -1.37774,1.404961 0,0.768525 0.60922,1.40416 1.37774,1.40416 0.76853,0 1.37774,-0.635635 1.37774,-1.40416 m 0,-6.618926 c 0,-0.768526 -0.60921,-1.40416 -1.37774,-1.40416 -0.76852,0 -1.37774,0.635634 -1.37774,1.40416 0,0.768525 0.60922,1.40416 1.37774,1.40416 0.76853,0 1.37774,-0.635635 1.37774,-1.40416 M 679.80887,9.2458378 V 36.448658 H 681 V 9.2458378 Z M 550.34035,78.742416 v 27.202514 h 1.19113 V 78.742416 Z M 0,105.21693 v 0.72769 h 681 v -0.72769 z m 0,-6.618121 v 0.727681 h 681 v -0.727681 z m 0,-6.618902 v 0.727682 h 681 v -0.727682 z m 0,-6.619054 v 0.727842 h 681 v -0.727842 z m 0,-6.618901 v 0.727681 H 681 V 78.741952 Z M 0,35.720656 v 0.727689 h 681 v -0.727689 z m 0,-6.618269 v 0.727841 h 681 v -0.727841 z m 0,-6.61906 v 0.727685 h 681 v -0.727685 z m 0,-6.618588 v 0.727684 H 681 V 15.864739 Z M 0,9.2459947 V 9.9736795 H 681 V 9.2459947 Z"
     style="stroke-width:0.0800547" />
  <metadata
     id="metadata154">
    <rdf:RDF>
      <cc:Work
         rdf:about="">
        <dc:title>air_XV</dc:title>
      </cc:Work>
    </rdf:RDF>
  </metadata>
</svg>
