<?xml version="1.0" encoding="utf-8"?>
<svg xmlns="http://www.w3.org/2000/svg" xmlns:svg="http://www.w3.org/2000/svg" version="1.1" viewBox="0 0 681 187">
	<title>A score 3 staves long in 4/4 time, in the key of B♭ Major.</title>
	<path d="M344.7 145.294c0 .74.584 1.324 1.325 1.324.742 0 1.325-.583 1.325-1.325s-.583-1.324-1.325-1.324c-.74 0-1.325.582-1.325 1.324m268.36 13.238c0 .742.584 1.324 1.326 1.324s1.325-.582 1.325-1.324-.583-1.325-1.325-1.325-1.325.582-1.325 1.325M403.426 89.034c0 .742.583 1.325 1.325 1.325.741 0 1.325-.583 1.325-1.325s-.584-1.325-1.325-1.325c-.742 0-1.325.583-1.325 1.325m-202.193 0c0 .742.583 1.325 1.325 1.325s1.325-.583 1.325-1.325-.583-1.325-1.325-1.325-1.325.583-1.325 1.325m328.536 69.497c0 .742.583 1.324 1.325 1.324s1.325-.582 1.325-1.324-.583-1.325-1.325-1.325-1.325.582-1.325 1.325M206.291 32.775c0 .742.582 1.325 1.325 1.325.742 0 1.324-.583 1.324-1.325 0-.741-.582-1.325-1.324-1.325s-1.325.584-1.325 1.325m436.135 43.022c0 .741.582 1.325 1.325 1.325.742 0 1.324-.584 1.324-1.325 0-.742-.582-1.325-1.324-1.325s-1.325.583-1.325 1.325M643.739 6.3c0 .742.582 1.325 1.324 1.325s1.325-.583 1.325-1.325c0-.741-.583-1.324-1.325-1.324s-1.324.583-1.324 1.324m-164.65 29.784h47.128v3.31h-47.128zm-206.082 38.05 16.84-1.654v3.324l-16.84 1.655zM79.668 16.22l16.15-1.655v3.327l-16.15 1.655zm65.543 157.2 76.995 4.963v3.316l-76.995-4.963zm334.122-95.976 49.199-4.964v3.326l-49.199 4.964zm-366.55 26.475 49.199 4.964v3.326l-49.2-4.964zm-32.357 1.655 16.84-1.655v3.325l-16.84 1.655zM282.04 36.084h47.128v3.31H282.04zM94.323 175.074l26.106-1.655v3.316l-26.106 1.655zm144.23-135.689 16.15-1.655v3.327l-16.15 1.655zm177.524 139.002h76.995v3.309h-76.995zM54.841 18.105c-.663.424-1.14 1.192-1.14 2.04 0 .106 0 .212.026.318.133 1.087 1.007 1.935 2.094 2.067h.291a2.375 2.375 0 0 0 2.385-2.385v-.159c0-.106-.027-.291-.053-.397-.239-1.14-1.272-3.577-5.777-3.577-5.776 0-6.439 4.796-6.439 6.518 0 3.154.398 7.101 7.023 7.101 2.623 0 4.663-1.536 4.77-4.371 0-.133-.08-.213-.213-.213h-.344a.23.23 0 0 0-.212.213c-.107 2.199-1.67 3.524-4.001 3.524-2.306 0-3.419-1.245-3.419-3.577v-5.062c0-1.483.583-3.18 2.942-3.18 1.245 0 1.802.451 2.093.902.027.053.027.08.027.132 0 .027 0 .08-.053.106M37.732 150.852c0 2.093-1.086 3.206-2.623 4.425l.079-5.167c.053-.238.45-1.007 1.51-1.007.954 0 1.034.9 1.034 1.457zm-.318-3.047a2.98 2.98 0 0 0-2.226.98l.106-8.506a.36.36 0 0 0-.37-.37h-.319a.363.363 0 0 0-.371.37l.133 15.925c0 .212.159.372.37.372.054 0 .16-.027.212-.053 2.28-1.14 4.664-3.313 4.664-6.042 0-1.378-.636-2.676-2.2-2.676m-7.041 12.975c0 2.094-1.086 3.206-2.623 4.426l.079-5.168c.053-.239.45-1.007 1.51-1.007.955 0 1.034.901 1.034 1.458zm-.318-3.048a2.98 2.98 0 0 0-2.226.981l.106-8.506c0-.212-.159-.37-.371-.37h-.318a.36.36 0 0 0-.37.37l.131 15.926c0 .212.16.37.372.37a.6.6 0 0 0 .211-.053c2.28-1.139 4.664-3.311 4.664-6.041 0-1.378-.635-2.677-2.199-2.677m7.678-76.377c0 2.094-1.086 3.207-2.623 4.426l.079-5.168c.053-.237.45-1.006 1.51-1.006.954 0 1.034.9 1.034 1.457zm-.318-3.046a2.98 2.98 0 0 0-2.226.98l.106-8.506a.36.36 0 0 0-.37-.371h-.319a.363.363 0 0 0-.371.37l.133 15.926c0 .212.159.371.37.371.054 0 .16-.026.212-.052 2.28-1.14 4.664-3.313 4.664-6.042 0-1.378-.636-2.676-2.2-2.676m-7.041 12.975c0 2.093-1.086 3.206-2.623 4.425l.079-5.167c.053-.239.45-1.007 1.51-1.007.955 0 1.034.901 1.034 1.457zm-.318-3.048a2.98 2.98 0 0 0-2.226.98l.106-8.505c0-.212-.159-.37-.371-.37h-.318a.36.36 0 0 0-.37.37l.131 15.925c0 .212.16.371.372.371a.6.6 0 0 0 .211-.053c2.28-1.14 4.664-3.312 4.664-6.042 0-1.377-.635-2.676-2.199-2.676m7.678-76.377c0 2.094-1.086 3.207-2.623 4.425l.079-5.167c.053-.238.45-1.007 1.51-1.007.954 0 1.034.901 1.034 1.458zm-.318-3.047a2.98 2.98 0 0 0-2.226.98l.106-8.506a.36.36 0 0 0-.37-.37h-.319a.363.363 0 0 0-.371.37l.133 15.926c0 .212.159.37.37.37a.6.6 0 0 0 .212-.052c2.28-1.14 4.664-3.312 4.664-6.042 0-1.378-.636-2.676-2.2-2.676m-7.041 12.975c0 2.094-1.086 3.207-2.623 4.426l.079-5.168c.053-.238.45-1.007 1.51-1.007.955 0 1.034.901 1.034 1.458zm-.318-3.047a2.98 2.98 0 0 0-2.226.98l.106-8.505a.363.363 0 0 0-.371-.371h-.318a.36.36 0 0 0-.37.37l.131 15.926c0 .212.16.37.372.37a.6.6 0 0 0 .211-.052c2.28-1.14 4.664-3.312 4.664-6.042 0-1.378-.635-2.676-2.199-2.676m-13.96 85.68a7.7 7.7 0 0 1-1.538.16c-3.789 0-7.022-2.65-7.022-6.65 0-3.234 2.28-6.122 4.611-8.136.45-.398.875-.769 1.272-1.166.238 1.43.424 2.677.61 3.763-2.412.715-4.055 3.259-4.055 5.75 0 1.854 1.458 4.398 3.577 4.398.212 0 .451-.105.451-.344 0-.238-.265-.371-.583-.583-1.033-.636-1.616-1.324-1.616-2.623 0-1.616 1.192-2.915 2.755-3.286zm-2.332-27.24c.239-1.06 1.458-3.842 2.836-3.842.397 0 1.033 1.298 1.033 3.127 0 2.755-2.04 4.822-3.869 6.624-.159-1.06-.291-2.093-.291-3.206 0-.98.08-1.882.291-2.703m6.095 22.338c0 1.881-.768 3.815-2.65 4.584a882 882 0 0 1-1.457-8.559c2.385 0 4.107 1.617 4.107 3.975m-11.66 13.037c0 1.748 1.352 4.054 4.93 4.054 1.245 0 2.331-.318 3.285-.9 1.431-1.008 1.802-2.757 1.802-4.426 0-1.034-.159-2.226-.424-3.736-.08-.53-.238-1.325-.397-2.359 2.597-.847 4.53-3.55 4.53-6.28 0-4.001-2.834-6.704-6.703-6.704-.265-1.59-.53-3.153-.769-4.637 2.81-2.942 4.744-6.253 4.744-10.467 0-2.411-.742-4.372-1.166-5.326-.636-1.351-1.405-2.279-1.882-2.279-.185 0-1.007.319-1.881 1.351-1.696 2.015-2.173 5.406-2.173 7.632 0 1.431.133 2.73.583 5.698-.026.026-1.404 1.43-1.96 1.88-2.412 2.253-5.75 5.459-5.75 10.759 0 4.955 4.318 8.85 9.247 8.85.768 0 1.484-.079 2.093-.185.504 2.544.795 4.399.795 5.803 0 2.755-1.404 4.213-4.08 4.213-.636 0-1.193-.133-1.246-.133-.026-.026-.08-.053-.08-.08 0-.052.054-.078.133-.105 1.246-.185 2.49-1.245 2.49-2.941 0-1.431-1.085-2.941-3.073-2.941-1.855 0-3.047 1.51-3.047 3.259m7.896-77.632a7.7 7.7 0 0 1-1.537.16c-3.789 0-7.022-2.65-7.022-6.651 0-3.234 2.28-6.122 4.611-8.135.45-.398.875-.769 1.272-1.166.238 1.43.424 2.676.61 3.762-2.412.716-4.055 3.26-4.055 5.75 0 1.855 1.458 4.4 3.577 4.4.212 0 .451-.107.451-.345 0-.239-.265-.372-.583-.583-1.033-.636-1.616-1.325-1.616-2.623 0-1.617 1.192-2.915 2.755-3.287zm-2.332-27.24c.239-1.06 1.458-3.842 2.836-3.842.397 0 1.033 1.299 1.033 3.127 0 2.756-2.04 4.823-3.869 6.625-.159-1.06-.291-2.094-.291-3.207 0-.98.08-1.881.291-2.703m6.095 22.339c0 1.881-.768 3.815-2.65 4.584a882 882 0 0 1-1.457-8.559c2.385 0 4.107 1.616 4.107 3.975M8.196 43.06c0 1.748 1.352 4.054 4.93 4.054 1.245 0 2.331-.318 3.285-.901 1.431-1.007 1.802-2.756 1.802-4.425 0-1.034-.159-2.226-.424-3.737-.08-.53-.238-1.325-.397-2.358 2.597-.848 4.53-3.55 4.53-6.28 0-4.001-2.834-6.704-6.703-6.704-.265-1.59-.53-3.153-.769-4.637 2.81-2.942 4.744-6.254 4.744-10.467 0-2.411-.742-4.372-1.166-5.326C17.392.927 16.623 0 16.146 0c-.185 0-1.007.318-1.881 1.351-1.696 2.014-2.173 5.406-2.173 7.632 0 1.43.133 2.73.583 5.697-.026.026-1.404 1.43-1.96 1.881-2.412 2.253-5.75 5.459-5.75 10.758 0 4.956 4.318 8.851 9.247 8.851.768 0 1.484-.08 2.093-.186.504 2.545.795 4.4.795 5.804 0 2.755-1.404 4.213-4.08 4.213-.636 0-1.193-.133-1.246-.133-.026-.026-.08-.053-.08-.08 0-.052.054-.079.133-.105 1.246-.186 2.49-1.246 2.49-2.941 0-1.432-1.085-2.941-3.073-2.941-1.855 0-3.047 1.51-3.047 3.259m7.896 130.857a7.7 7.7 0 0 1-1.537.16c-3.789 0-7.022-2.65-7.022-6.652 0-3.233 2.28-6.12 4.611-8.135.45-.398.875-.768 1.272-1.165.238 1.43.424 2.676.61 3.762-2.412.715-4.055 3.26-4.055 5.75 0 1.855 1.458 4.399 3.577 4.399.212 0 .451-.106.451-.344 0-.239-.265-.372-.583-.583-1.033-.637-1.616-1.325-1.616-2.624 0-1.616 1.192-2.914 2.755-3.286zm-2.332-27.24c.239-1.06 1.458-3.842 2.836-3.842.397 0 1.033 1.299 1.033 3.127 0 2.755-2.04 4.822-3.869 6.624-.159-1.06-.291-2.093-.291-3.206 0-.98.08-1.882.291-2.703m6.095 22.338c0 1.882-.768 3.816-2.65 4.584a882 882 0 0 1-1.457-8.558c2.385 0 4.107 1.616 4.107 3.974m-11.66 13.037c0 1.749 1.352 4.054 4.93 4.054 1.245 0 2.331-.318 3.285-.9 1.431-1.007 1.802-2.757 1.802-4.426 0-1.033-.159-2.225-.424-3.736-.08-.53-.238-1.325-.397-2.358 2.597-.848 4.53-3.55 4.53-6.28 0-4.002-2.834-6.704-6.703-6.704-.265-1.59-.53-3.154-.769-4.637 2.81-2.942 4.744-6.254 4.744-10.467 0-2.412-.742-4.372-1.166-5.326-.636-1.352-1.405-2.28-1.882-2.28-.185 0-1.007.319-1.881 1.352-1.696 2.014-2.173 5.406-2.173 7.631 0 1.432.133 2.73.583 5.698-.026.026-1.404 1.43-1.96 1.881-2.412 2.252-5.75 5.458-5.75 10.758 0 4.955 4.318 8.85 9.247 8.85.768 0 1.484-.079 2.093-.185.504 2.544.795 4.399.795 5.803 0 2.756-1.404 4.213-4.08 4.213-.636 0-1.193-.132-1.246-.132-.026-.027-.08-.053-.08-.08 0-.053.054-.079.133-.105 1.246-.186 2.49-1.246 2.49-2.942 0-1.431-1.085-2.94-3.073-2.94-1.855 0-3.047 1.509-3.047 3.258m303.032-90.739a.99.99 0 0 1-1.06-.954c0-1.298 4.45-3.578 5.697-3.578.636 0 1.06.372 1.06.955 0 1.325-4.479 3.577-5.697 3.577m3.656-5.776c-2.57 0-5.644 2.146-5.644 4.61 0 1.14.821 2.411 2.968 2.411 2.756 0 5.644-2.252 5.644-4.584 0-1.563-1.325-2.437-2.968-2.437m17.9 64.179c0 1.139.822 2.411 2.969 2.411 2.756 0 5.644-2.253 5.644-4.585 0-1.562-1.325-2.437-2.968-2.437-2.57 0-5.644 2.172-5.644 4.61m-4.28-135.683c0 1.14.822 2.411 2.968 2.411 2.755 0 5.644-2.252 5.644-4.584 0-1.563-1.325-2.438-2.968-2.438-2.57 0-5.644 2.173-5.644 4.611m-33.886 158.85c0 1.138.821 2.41 2.967 2.41 2.756 0 5.644-2.252 5.644-4.584 0-1.563-1.325-2.438-2.967-2.438-2.57 0-5.644 2.173-5.644 4.611m49.374-155.54c0 1.14.822 2.412 2.969 2.412 2.755 0 5.644-2.253 5.644-4.584 0-1.564-1.325-2.438-2.968-2.438-2.57 0-5.645 2.173-5.645 4.61m-87.541 142.302c0 1.14.821 2.412 2.968 2.412 2.756 0 5.644-2.252 5.644-4.584 0-1.564-1.325-2.438-2.967-2.438-2.571 0-5.645 2.173-5.645 4.61M367.228 17.341c0 1.14.821 2.412 2.968 2.412 2.755 0 5.643-2.253 5.643-4.584 0-1.564-1.325-2.438-2.967-2.438-2.57 0-5.644 2.173-5.644 4.61m34.684 1.166a.99.99 0 0 1-1.06-.954c0-1.298 4.452-3.577 5.698-3.577.636 0 1.06.371 1.06.954 0 1.325-4.478 3.577-5.698 3.577m3.657-5.776c-2.57 0-5.644 2.146-5.644 4.61 0 1.14.822 2.412 2.968 2.412 2.756 0 5.644-2.253 5.644-4.584 0-1.564-1.325-2.438-2.968-2.438m31.193-.842a.99.99 0 0 1-1.06-.954c0-1.299 4.452-3.577 5.697-3.577.636 0 1.06.37 1.06.953 0 1.325-4.478 3.578-5.697 3.578m3.657-5.777c-2.57 0-5.644 2.146-5.644 4.61 0 1.14.821 2.412 2.967 2.412 2.756 0 5.644-2.252 5.644-4.584 0-1.563-1.325-2.438-2.967-2.438m-218.875 156.84c0 1.14.822 2.412 2.968 2.412 2.756 0 5.644-2.252 5.644-4.584 0-1.563-1.325-2.438-2.968-2.438-2.57 0-5.644 2.173-5.644 4.61M479.09 17.343c0 1.139.822 2.41 2.968 2.41 2.755 0 5.644-2.252 5.644-4.583 0-1.564-1.325-2.438-2.968-2.438-2.57 0-5.644 2.173-5.644 4.61M196.1 159.643c0 1.14.822 2.412 2.97 2.412 2.755 0 5.643-2.252 5.643-4.584 0-1.564-1.325-2.438-2.968-2.438-2.57 0-5.644 2.173-5.644 4.61M297.529 20.651c0 1.14.821 2.411 2.968 2.411 2.755 0 5.644-2.252 5.644-4.584 0-1.563-1.325-2.438-2.968-2.438-2.57 0-5.644 2.173-5.644 4.61M170.656 156.335c0 1.14.821 2.411 2.967 2.411 2.756 0 5.644-2.252 5.644-4.584 0-1.563-1.325-2.438-2.967-2.438-2.57 0-5.644 2.173-5.644 4.61M494.577 20.652c0 1.14.822 2.411 2.968 2.411 2.756 0 5.645-2.252 5.645-4.584 0-1.563-1.325-2.438-2.968-2.438-2.57 0-5.645 2.173-5.645 4.61M381.17 153.025c0 1.14.821 2.412 2.967 2.412 2.756 0 5.644-2.252 5.644-4.584 0-1.564-1.325-2.438-2.968-2.438-2.57 0-5.643 2.173-5.643 4.61m-235.958 0c0 1.14.822 2.412 2.968 2.412 2.756 0 5.645-2.252 5.645-4.584 0-1.564-1.325-2.438-2.968-2.438-2.57 0-5.645 2.173-5.645 4.61M510.066 17.341c0 1.14.822 2.412 2.968 2.412 2.755 0 5.644-2.253 5.644-4.584 0-1.564-1.325-2.438-2.968-2.438-2.57 0-5.644 2.173-5.644 4.61M119.767 156.334c0 1.14.822 2.411 2.968 2.411 2.756 0 5.644-2.252 5.644-4.584 0-1.563-1.325-2.438-2.968-2.438-2.57 0-5.644 2.173-5.644 4.61m405.788-142.3c0 1.138.82 2.41 2.968 2.41 2.755 0 5.644-2.252 5.644-4.584 0-1.563-1.325-2.438-2.968-2.438-2.57 0-5.644 2.173-5.644 4.611m-243.515 3.31c0 1.139.821 2.41 2.968 2.41 2.756 0 5.644-2.252 5.644-4.583 0-1.564-1.325-2.438-2.968-2.438-2.57 0-5.644 2.173-5.644 4.61M94.323 159.643c0 1.14.821 2.412 2.968 2.412 2.756 0 5.644-2.252 5.644-4.584 0-1.564-1.325-2.438-2.968-2.438-2.57 0-5.644 2.173-5.644 4.61m446.72-142.302c0 1.14.822 2.412 2.968 2.412 2.756 0 5.644-2.253 5.644-4.584 0-1.564-1.325-2.438-2.968-2.438-2.57 0-5.643 2.173-5.643 4.61M56.157 156.334c0 1.14.821 2.411 2.967 2.411 2.756 0 5.644-2.252 5.644-4.584 0-1.563-1.325-2.438-2.967-2.438-2.57 0-5.644 2.173-5.644 4.61m508.12-138.992c0 1.14.82 2.412 2.967 2.412 2.756 0 5.644-2.253 5.644-4.584 0-1.564-1.324-2.438-2.967-2.438-2.57 0-5.645 2.173-5.645 4.61m-310.234 3.31c0 1.14.821 2.411 2.968 2.411 2.756 0 5.644-2.252 5.644-4.584 0-1.563-1.325-2.438-2.968-2.438-2.57 0-5.644 2.173-5.644 4.61m162.035 135.684c0 1.14.822 2.411 2.968 2.411 2.756 0 5.645-2.252 5.645-4.584 0-1.563-1.325-2.438-2.969-2.438-2.57 0-5.644 2.173-5.644 4.61M598.962 18.508a.99.99 0 0 1-1.06-.954c0-1.298 4.451-3.577 5.696-3.577.637 0 1.06.371 1.06.954 0 1.325-4.477 3.577-5.696 3.577m3.656-5.776c-2.57 0-5.644 2.146-5.644 4.61 0 1.14.822 2.412 2.968 2.412 2.756 0 5.644-2.253 5.644-4.584 0-1.564-1.325-2.438-2.968-2.438m29.205-2.008c0 1.14.822 2.411 2.969 2.411 2.755 0 5.643-2.252 5.643-4.584 0-1.563-1.324-2.438-2.967-2.438-2.57 0-5.645 2.173-5.645 4.61m29.452 72.806c0 1.14.822 2.412 2.968 2.412 2.756 0 5.644-2.253 5.644-4.585 0-1.563-1.325-2.437-2.968-2.437-2.57 0-5.644 2.172-5.644 4.61m-219.753 76.115c0 1.14.821 2.412 2.967 2.412 2.756 0 5.644-2.252 5.644-4.584 0-1.564-1.325-2.438-2.967-2.438-2.57 0-5.644 2.173-5.644 4.61m219.753-145.61c0 1.138.822 2.41 2.968 2.41 2.756 0 5.644-2.252 5.644-4.584 0-1.563-1.325-2.438-2.968-2.438-2.57 0-5.644 2.173-5.644 4.611M238.553 23.96c0 1.14.822 2.411 2.968 2.411 2.756 0 5.644-2.252 5.644-4.584 0-1.563-1.325-2.438-2.968-2.438-2.57 0-5.644 2.173-5.644 4.611m391.958 56.26c0 1.139.821 2.41 2.968 2.41 2.755 0 5.644-2.252 5.644-4.584 0-1.564-1.325-2.438-2.968-2.438-2.57 0-5.644 2.173-5.644 4.611m-163.545 82.734c0 1.139.821 2.411 2.968 2.411 2.756 0 5.644-2.252 5.644-4.584 0-1.563-1.325-2.438-2.968-2.438-2.57 0-5.644 2.173-5.644 4.61m129.13-78.258a.99.99 0 0 1-1.06-.954c0-1.298 4.451-3.577 5.697-3.577.636 0 1.06.371 1.06.954 0 1.325-4.478 3.577-5.697 3.577m3.656-5.776c-2.57 0-5.643 2.146-5.643 4.61 0 1.14.821 2.412 2.967 2.412 2.756 0 5.644-2.253 5.644-4.585 0-1.563-1.325-2.437-2.968-2.437M492.41 159.643c0 1.14.822 2.412 2.968 2.412 2.756 0 5.644-2.252 5.644-4.584 0-1.564-1.325-2.438-2.968-2.438-2.57 0-5.644 2.173-5.644 4.61M56.157 83.528c0 1.14.821 2.412 2.967 2.412 2.756 0 5.644-2.253 5.644-4.585 0-1.563-1.325-2.437-2.967-2.437-2.57 0-5.644 2.172-5.644 4.61m24.268 6.619c0 1.14.822 2.411 2.968 2.411 2.755 0 5.644-2.252 5.644-4.584 0-1.563-1.325-2.437-2.968-2.437-2.57 0-5.644 2.172-5.644 4.61m479.95-3.31c0 1.14.821 2.412 2.968 2.412 2.756 0 5.644-2.252 5.644-4.584 0-1.564-1.325-2.438-2.968-2.438-2.57 0-5.644 2.173-5.644 4.61M196.363 35.055a.99.99 0 0 1-1.06-.954c0-1.299 4.452-3.577 5.698-3.577.635 0 1.06.37 1.06.953 0 1.325-4.479 3.578-5.698 3.578m3.657-5.777c-2.57 0-5.644 2.147-5.644 4.612 0 1.139.821 2.41 2.968 2.41 2.755 0 5.644-2.252 5.644-4.584 0-1.563-1.325-2.438-2.968-2.438m336.087 60.87c0 1.14.82 2.411 2.967 2.411 2.756 0 5.645-2.252 5.645-4.584 0-1.563-1.325-2.437-2.969-2.437-2.57 0-5.643 2.172-5.643 4.61m-439.503-3.31c0 1.14.821 2.412 2.968 2.412 2.756 0 5.644-2.252 5.644-4.584 0-1.564-1.325-2.438-2.968-2.438-2.57 0-5.644 2.173-5.644 4.61m423.323 6.62c0 1.139.822 2.41 2.969 2.41 2.755 0 5.644-2.251 5.644-4.583 0-1.564-1.325-2.438-2.968-2.438-2.57 0-5.645 2.173-5.645 4.61m-407.144-9.928c0 1.14.821 2.412 2.967 2.412 2.757 0 5.645-2.253 5.645-4.585 0-1.563-1.325-2.437-2.968-2.437-2.57 0-5.644 2.172-5.644 4.61m390.965 13.238c0 1.14.823 2.411 2.969 2.411 2.755 0 5.644-2.253 5.644-4.584 0-1.563-1.325-2.438-2.968-2.438-2.57 0-5.645 2.173-5.645 4.61m14.106 62.878c0 1.14.822 2.412 2.968 2.412 2.756 0 5.644-2.252 5.644-4.584 0-1.564-1.325-2.438-2.967-2.438-2.57 0-5.645 2.173-5.645 4.61m-30.284-59.568c0 1.14.822 2.412 2.968 2.412 2.755 0 5.644-2.253 5.644-4.584 0-1.564-1.325-2.439-2.968-2.439-2.57 0-5.644 2.174-5.644 4.611M128.962 86.838c0 1.14.821 2.41 2.967 2.41 2.757 0 5.645-2.251 5.645-4.583 0-1.564-1.325-2.438-2.968-2.438-2.57 0-5.644 2.173-5.644 4.61m23.087-51.783a.99.99 0 0 1-1.06-.954c0-1.299 4.452-3.577 5.697-3.577.636 0 1.06.37 1.06.953 0 1.325-4.478 3.578-5.697 3.578m3.657-5.777c-2.57 0-5.644 2.147-5.644 4.612 0 1.139.821 2.41 2.967 2.41 2.756 0 5.644-2.252 5.644-4.584 0-1.563-1.325-2.438-2.967-2.438m315.685 74.108c0 1.139.821 2.411 2.968 2.411 2.755 0 5.644-2.253 5.644-4.585 0-1.562-1.325-2.437-2.968-2.437-2.57 0-5.644 2.172-5.644 4.61m-326.25-13.237c0 1.14.821 2.411 2.967 2.411 2.757 0 5.644-2.252 5.644-4.584 0-1.563-1.325-2.437-2.967-2.437-2.57 0-5.644 2.172-5.644 4.61m16.179 3.31c0 1.139.821 2.41 2.968 2.41 2.755 0 5.643-2.251 5.643-4.583 0-1.564-1.325-2.438-2.967-2.438-2.57 0-5.644 2.173-5.644 4.61m29.985-2.143a.99.99 0 0 1-1.06-.954c0-1.298 4.452-3.578 5.698-3.578.635 0 1.06.372 1.06.955 0 1.325-4.479 3.577-5.698 3.577m3.657-5.776c-2.57 0-5.644 2.146-5.644 4.61 0 1.14.822 2.411 2.968 2.411 2.755 0 5.644-2.252 5.644-4.584 0-1.563-1.325-2.437-2.968-2.437m242.696-5.318c0 1.14.821 2.412 2.967 2.412 2.757 0 5.645-2.253 5.645-4.585 0-1.564-1.325-2.438-2.969-2.438-2.57 0-5.643 2.173-5.643 4.611M117.199 35.054a.99.99 0 0 1-1.06-.954c0-1.299 4.452-3.577 5.698-3.577.636 0 1.06.37 1.06.953 0 1.325-4.478 3.578-5.698 3.578m3.657-5.777c-2.57 0-5.644 2.147-5.644 4.612 0 1.139.822 2.41 2.968 2.41 2.755 0 5.644-2.252 5.644-4.584 0-1.563-1.325-2.438-2.968-2.438m445.38 133.676c0 1.139.822 2.411 2.968 2.411 2.757 0 5.645-2.252 5.645-4.584 0-1.563-1.325-2.438-2.968-2.438-2.57 0-5.644 2.173-5.644 4.61M393.499 91.314a.99.99 0 0 1-1.06-.954c0-1.298 4.452-3.578 5.696-3.578.637 0 1.06.372 1.06.955 0 1.325-4.478 3.577-5.696 3.577m3.657-5.776c-2.571 0-5.645 2.146-5.645 4.61 0 1.14.821 2.411 2.968 2.411 2.756 0 5.644-2.252 5.644-4.584 0-1.563-1.325-2.437-2.967-2.437M87.214 37.197c0 1.14.821 2.412 2.968 2.412 2.755 0 5.644-2.252 5.644-4.584 0-1.564-1.325-2.438-2.968-2.438-2.57 0-5.644 2.173-5.644 4.61m177.85 59.569c0 1.14.822 2.411 2.968 2.411 2.756 0 5.644-2.253 5.644-4.584 0-1.563-1.325-2.438-2.968-2.438-2.57 0-5.644 2.173-5.644 4.61M71.725 40.508c0 1.14.821 2.41 2.968 2.41 2.756 0 5.644-2.251 5.644-4.583 0-1.563-1.325-2.438-2.967-2.438-2.57 0-5.645 2.173-5.645 4.61m275.906 50.807a.99.99 0 0 1-1.06-.954c0-1.298 4.452-3.578 5.697-3.578.636 0 1.06.372 1.06.955 0 1.325-4.478 3.577-5.697 3.577m3.657-5.776c-2.57 0-5.644 2.146-5.644 4.61 0 1.14.82 2.411 2.968 2.411 2.755 0 5.644-2.252 5.644-4.584 0-1.563-1.325-2.437-2.968-2.437m-70.045 7.92c0 1.139.821 2.41 2.968 2.41 2.756 0 5.644-2.251 5.644-4.583 0-1.564-1.325-2.438-2.968-2.438-2.57 0-5.644 2.173-5.644 4.61m31.774-76.115c0 1.14.822 2.412 2.968 2.412 2.756 0 5.645-2.253 5.645-4.584 0-1.564-1.325-2.438-2.968-2.438-2.57 0-5.645 2.173-5.645 4.61m290.116 146.777a.99.99 0 0 1-1.06-.953c0-1.299 4.452-3.578 5.698-3.578.635 0 1.06.372 1.06.955 0 1.324-4.479 3.576-5.698 3.576m3.657-5.776c-2.57 0-5.644 2.147-5.644 4.61 0 1.14.822 2.412 2.968 2.412 2.755 0 5.644-2.252 5.644-4.584 0-1.563-1.325-2.438-2.968-2.438M381.17 175.051a.35.35 0 0 0 .344.344c.133 0 .291-.106.318-.211 0-.027.238-.955.265-1.034.026-.106.265-1.113 1.219-2.676 1.033-1.723 2.623-2.969 3.948-4.823 1.299-1.855 2.094-3.604 2.094-5.936 0-2.411-.557-4.425-1.962-6.995-.079-.186-.238-.291-.397-.291-.053 0-.106 0-.133.026-.132.053-.185.159-.185.318 0 .08.027.212.08.318 1.06 2.464 1.483 3.869 1.483 5.776 0 2.2-.768 3.339-1.245 4.16-1.723 2.942-4.504 4.373-5.617 4.743-.186.08-.212.212-.212.293zM661.275 36.058c0 .186.16.344.345.344.132 0 .291-.105.317-.211 0-.027.239-.954.265-1.034.028-.106.265-1.112 1.22-2.676 1.033-1.723 2.623-2.968 3.948-4.823 1.298-1.855 2.093-3.603 2.093-5.935 0-2.412-.556-4.426-1.961-6.996-.08-.185-.238-.291-.397-.291-.053 0-.106 0-.133.026-.132.053-.185.16-.185.318a.8.8 0 0 0 .08.318c1.06 2.464 1.484 3.869 1.484 5.777 0 2.199-.769 3.338-1.246 4.16-1.723 2.941-4.505 4.372-5.617 4.743-.186.08-.213.212-.213.292zm0 69.496c0 .186.16.345.345.345.133 0 .291-.106.317-.212 0-.026.239-.954.265-1.033.028-.107.265-1.113 1.22-2.677 1.033-1.722 2.623-2.968 3.948-4.823 1.298-1.855 2.093-3.603 2.093-5.935 0-2.411-.556-4.425-1.961-6.995-.08-.186-.238-.292-.397-.292-.053 0-.106 0-.133.027-.132.053-.185.158-.185.318 0 .079.027.212.08.317 1.06 2.464 1.484 3.87 1.484 5.777 0 2.2-.769 3.338-1.246 4.16-1.723 2.942-4.505 4.372-5.617 4.743-.186.08-.213.212-.213.292zm-95.038 77.77c0 .186.16.345.344.345.133 0 .292-.106.319-.213 0-.026.238-.953.265-1.033.026-.106.265-1.113 1.218-2.676 1.034-1.722 2.624-2.968 3.948-4.823 1.299-1.855 2.094-3.603 2.094-5.935 0-2.411-.557-4.426-1.96-6.996-.08-.185-.24-.291-.399-.291-.052 0-.105 0-.132.026-.133.054-.185.16-.185.319 0 .079.026.21.079.317 1.06 2.464 1.484 3.869 1.484 5.777 0 2.2-.768 3.338-1.246 4.16-1.721 2.941-4.504 4.372-5.617 4.743-.186.08-.212.212-.212.291zM367.227 17.34v22.054h.663V17.34Zm233.919 145.612v18.744h.662v-18.744ZM391.51 90.146v20.399h.662V90.146ZM95.157 16.262v18.763h.662V16.262Zm27.997-6.652v22.107h.662V9.61Zm443.083 153.342v20.372h.662v-20.372ZM437.658 80.218v22.053h.662V80.218ZM158.004 9.61v22.107h.662V9.61Zm31.314 80.536v20.399h.662V90.146Zm99.867-15.972v17.11h.662v-17.11ZM202.318 9.61v22.107h.662V9.61Zm315.536 150.033v20.398h.663v-20.398ZM161.32 93.456v17.055h.662V93.456Zm318.013-14.383v22.14h.662v-22.14ZM145.14 90.146v18.733h.663V90.146Zm350.372-12.705v20.462h.662V77.441Zm-366.55 9.396v20.41h.661v-20.41Zm382.73-11.03v18.787h.661V75.808Zm16.178-1.632v17.11h.662v-17.11Zm-415.087 9.352v22.087h.662V83.527Zm423.324 6.62v20.398h.662V90.146Zm-439.503-3.31v18.777h.662V86.837Zm463.77 0v22.053h.663V86.837Zm-67.964 72.806v20.398h.662v-20.398ZM80.425 90.146v17.057h.662V90.146ZM238.553 23.96v17.056h.662V23.96ZM56.156 83.527v22.054h.662V83.527Zm537.952 0v22.054h.662V83.527Zm36.403-3.31v22.054h.662V80.218Zm-163.545 82.735v17.09h.662v-17.09zm-25.445-3.31v20.4h.663v-20.4Zm-95.877-69.496v20.399h.662V90.146Zm315.63-76.115v22.027h.663V14.031ZM273.007 75.764v18.83h.662v-18.83Zm388.269 7.763v22.027h.662V83.527ZM254.042 20.65v18.778h.662V20.65Zm377.782-9.928v22.053h.662V10.722ZM416.078 156.333v23.708h.662v-23.708ZM596.974 17.34v22.054h.662V17.34Zm-314.934 0v20.4h.663v-20.4Zm15.489 3.31v17.09h.662V20.65ZM56.156 156.333v22.053h.662v-22.053ZM564.276 17.34v22.054h.663V17.34ZM94.323 159.643v17.068h.662v-17.068ZM541.043 17.34v22.054h.662V17.34ZM119.767 156.333v18.765h.662v-18.765ZM525.555 14.031V37.74h.662V14.031ZM145.212 153.024v22.075h.662v-22.075zm235.956 0v22.027h.662v-22.027zm-210.513 3.31v20.405h.662v-20.406ZM494.578 20.65v17.09h.662V20.65ZM196.1 159.643v18.736h.662v-18.736zm25.444 3.309v17.068h.662v-17.068zM479.089 17.34v20.4h.662v-20.4Zm-166.071 0v20.4h.662v-20.4Zm-3.777 72.806v20.399h.662V90.146Zm19.265-76.115V37.74h.662V14.031Zm106.268-3.31v22.054h.662V10.722ZM332.786 149.715v22.054h.662v-22.054zM399.925 17.34v22.054h.662V17.34Zm-55.93 0v22.054h.662V17.34Zm-41.433 131.262v22.107h.662v-22.107zm-46.109 11.04v20.4h.662v-20.4ZM79.668 17.85v20.486h.662V17.849Zm430.398-.509v20.4h.662v-20.4ZM390.46 9.246v27.203h1.19V9.246ZM179.853 78.742v27.203h1.192V78.742ZM679.81 9.246v27.203H681V9.246Zm-494.898 0v27.203h1.191V9.246ZM679.81 78.742v27.203H681V78.742Zm-217.883 0v27.203h1.191V78.742Zm-217.619 0v27.203h3.64V78.742Zm-3.64 0v27.203h1.191V78.742Zm-2.447 16.911c0-.768-.609-1.405-1.377-1.405-.769 0-1.379.637-1.379 1.405 0 .769.61 1.404 1.379 1.404.768 0 1.377-.635 1.377-1.404m0-6.619c0-.768-.609-1.404-1.377-1.404-.769 0-1.379.636-1.379 1.404 0 .769.61 1.404 1.379 1.404.768 0 1.377-.635 1.377-1.404m439.14 59.205v27.202H681V148.24zm-3.64 0v27.202h1.191V148.24ZM272.575 9.246v27.203h1.191V9.246Zm-166.828 0v27.203h1.192V9.246Zm485.934 138.993v27.202h1.192V148.24ZM256.792 95.653c0-.768-.609-1.405-1.377-1.405-.769 0-1.378.637-1.378 1.405 0 .769.61 1.404 1.378 1.404s1.377-.635 1.377-1.404m0-6.619c0-.768-.609-1.404-1.377-1.404-.769 0-1.378.636-1.378 1.404 0 .769.61 1.404 1.378 1.404s1.377-.635 1.377-1.404m-6.395-10.292v27.203h1.191V78.742Zm-6.09 0v27.203h3.64V78.742Zm162.305 69.497v27.202h1.192V148.24ZM587.51 9.246v27.203h1.191V9.246ZM382.047 78.742v27.203h1.191V78.742Zm87.577-69.496v27.203h1.192V9.246ZM299.776 78.742v27.203h1.191V78.742ZM246.99 148.24v27.202h1.191V148.24Zm337.655-69.497v27.203h1.19V78.742ZM0 174.713v.728h681v-.728zm0-6.618v.728h681v-.728zm0-6.619v.728h681v-.728zm0-6.619v.728h681v-.728zm0-6.619v.728h681v-.728zm0-43.021v.728h681v-.728zm0-6.618v.727h681V98.6zm0-6.62v.729h681v-.728zm0-6.618v.728h681v-.728zm0-6.619v.728h681v-.728Zm0-43.021v.727h681v-.727zm0-6.619v.728h681v-.728zm0-6.619v.728h681v-.728zm0-6.618v.727h681v-.727Zm0-6.619v.728h681v-.728Z"/>
</svg>
