<?xml version="1.0" encoding="UTF-8" standalone="no"?>
<svg width="210.058mm" height="296.926mm" viewBox="0 0 9924 14028"
 xmlns="http://www.w3.org/2000/svg" xmlns:xlink="http://www.w3.org/1999/xlink" version="1.2" baseProfile="full">
<title>air_XLVIII</title>
<desc>Generated by MuseScore Studio 4.7.3</desc>
<polyline class="StaffLines" fill="none" stroke="#000000" stroke-width="9.09" stroke-linejoin="bevel" points="708.661,834.997 9215.34,834.997" />
<polyline class="StaffLines" fill="none" stroke="#000000" stroke-width="9.09" stroke-linejoin="bevel" points="708.661,917.675 9215.34,917.675" />
<polyline class="StaffLines" fill="none" stroke="#000000" stroke-width="9.09" stroke-linejoin="bevel" points="708.661,1000.35 9215.34,1000.35" />
<polyline class="StaffLines" fill="none" stroke="#000000" stroke-width="9.09" stroke-linejoin="bevel" points="708.661,1083.03 9215.34,1083.03" />
<polyline class="StaffLines" fill="none" stroke="#000000" stroke-width="9.09" stroke-linejoin="bevel" points="708.661,1165.71 9215.34,1165.71" />
<polyline class="StaffLines" fill="none" stroke="#000000" stroke-width="9.09" stroke-linejoin="bevel" points="708.661,1703.11 9215.34,1703.11" />
<polyline class="StaffLines" fill="none" stroke="#000000" stroke-width="9.09" stroke-linejoin="bevel" points="708.661,1785.78 9215.34,1785.78" />
<polyline class="StaffLines" fill="none" stroke="#000000" stroke-width="9.09" stroke-linejoin="bevel" points="708.661,1868.46 9215.34,1868.46" />
<polyline class="StaffLines" fill="none" stroke="#000000" stroke-width="9.09" stroke-linejoin="bevel" points="708.661,1951.14 9215.34,1951.14" />
<polyline class="StaffLines" fill="none" stroke="#000000" stroke-width="9.09" stroke-linejoin="bevel" points="708.661,2033.82 9215.34,2033.82" />
<polyline class="StaffLines" fill="none" stroke="#000000" stroke-width="9.09" stroke-linejoin="bevel" points="708.661,2571.22 9215.34,2571.22" />
<polyline class="StaffLines" fill="none" stroke="#000000" stroke-width="9.09" stroke-linejoin="bevel" points="708.661,2653.9 9215.34,2653.9" />
<polyline class="StaffLines" fill="none" stroke="#000000" stroke-width="9.09" stroke-linejoin="bevel" points="708.661,2736.57 9215.34,2736.57" />
<polyline class="StaffLines" fill="none" stroke="#000000" stroke-width="9.09" stroke-linejoin="bevel" points="708.661,2819.25 9215.34,2819.25" />
<polyline class="StaffLines" fill="none" stroke="#000000" stroke-width="9.09" stroke-linejoin="bevel" points="708.661,2901.93 9215.34,2901.93" />
<polyline class="BarLine" fill="none" stroke="#000000" stroke-width="14.88" stroke-linejoin="bevel" points="4851.37,830.45 4851.37,1170.25" />
<polyline class="BarLine" fill="none" stroke="#000000" stroke-width="45.47" stroke-linejoin="bevel" points="5467.23,1698.56 5467.23,2038.36" />
<polyline class="BarLine" fill="none" stroke="#000000" stroke-width="14.88" stroke-linejoin="bevel" points="5527.99,1698.56 5527.99,2038.36" />
<path class="BarLine" d="M5600.45,1827.12 C5600.45,1817.52 5592.83,1809.58 5583.23,1809.58 C5573.63,1809.58 5566.02,1817.52 5566.02,1827.12 C5566.02,1836.72 5573.63,1844.67 5583.23,1844.67 C5592.83,1844.67 5600.45,1836.72 5600.45,1827.12"/>
<path class="BarLine" d="M5600.45,1909.8 C5600.45,1900.2 5592.83,1892.26 5583.23,1892.26 C5573.63,1892.26 5566.02,1900.2 5566.02,1909.8 C5566.02,1919.4 5573.63,1927.34 5583.23,1927.34 C5592.83,1927.34 5600.45,1919.4 5600.45,1909.8"/>
<polyline class="BarLine" fill="none" stroke="#000000" stroke-width="14.88" stroke-linejoin="bevel" points="5358.24,2566.67 5358.24,2906.47" />
<path class="BarLine" d="M9093.83,2695.23 C9093.83,2685.63 9086.22,2677.69 9076.62,2677.69 C9067.02,2677.69 9059.41,2685.63 9059.41,2695.23 C9059.41,2704.83 9067.02,2712.78 9076.62,2712.78 C9086.22,2712.78 9093.83,2704.83 9093.83,2695.23"/>
<path class="BarLine" d="M9093.83,2777.91 C9093.83,2768.31 9086.22,2760.37 9076.62,2760.37 C9067.02,2760.37 9059.41,2768.31 9059.41,2777.91 C9059.41,2787.51 9067.02,2795.45 9076.62,2795.45 C9086.22,2795.45 9093.83,2787.51 9093.83,2777.91"/>
<polyline class="BarLine" fill="none" stroke="#000000" stroke-width="14.88" stroke-linejoin="bevel" points="9131.84,2566.67 9131.84,2906.47" />
<polyline class="BarLine" fill="none" stroke="#000000" stroke-width="45.47" stroke-linejoin="bevel" points="9192.6,2566.67 9192.6,2906.47" />
<polyline class="BarLine" fill="none" stroke="#000000" stroke-width="14.88" stroke-linejoin="bevel" points="6377.48,830.45 6377.48,1170.25" />
<polyline class="BarLine" fill="none" stroke="#000000" stroke-width="14.88" stroke-linejoin="bevel" points="7681.8,830.45 7681.8,1170.25" />
<path class="BarLine" d="M5368.45,1827.12 C5368.45,1817.52 5360.84,1809.58 5351.24,1809.58 C5341.64,1809.58 5334.03,1817.52 5334.03,1827.12 C5334.03,1836.72 5341.64,1844.67 5351.24,1844.67 C5360.84,1844.67 5368.45,1836.72 5368.45,1827.12"/>
<path class="BarLine" d="M5368.45,1909.8 C5368.45,1900.2 5360.84,1892.26 5351.24,1892.26 C5341.64,1892.26 5334.03,1900.2 5334.03,1909.8 C5334.03,1919.4 5341.64,1927.34 5351.24,1927.34 C5360.84,1927.34 5368.45,1919.4 5368.45,1909.8"/>
<polyline class="BarLine" fill="none" stroke="#000000" stroke-width="14.88" stroke-linejoin="bevel" points="5406.46,1698.56 5406.46,2038.36" />
<polyline class="BarLine" fill="none" stroke="#000000" stroke-width="45.47" stroke-linejoin="bevel" points="5467.23,1698.56 5467.23,2038.36" />
<polyline class="BarLine" fill="none" stroke="#000000" stroke-width="14.88" stroke-linejoin="bevel" points="1873.66,830.45 1873.66,1170.25" />
<polyline class="BarLine" fill="none" stroke="#000000" stroke-width="14.88" stroke-linejoin="bevel" points="6100.31,1698.56 6100.31,2038.36" />
<polyline class="BarLine" fill="none" stroke="#000000" stroke-width="14.88" stroke-linejoin="bevel" points="6808.81,2566.67 6808.81,2906.47" />
<polyline class="BarLine" fill="none" stroke="#000000" stroke-width="14.88" stroke-linejoin="bevel" points="3943.18,2566.67 3943.18,2906.47" />
<polyline class="BarLine" fill="none" stroke="#000000" stroke-width="14.88" stroke-linejoin="bevel" points="8223.88,2566.67 8223.88,2906.47" />
<polyline class="BarLine" fill="none" stroke="#000000" stroke-width="14.88" stroke-linejoin="bevel" points="4419.18,1698.56 4419.18,2038.36" />
<polyline class="BarLine" fill="none" stroke="#000000" stroke-width="14.88" stroke-linejoin="bevel" points="7636.84,1698.56 7636.84,2038.36" />
<polyline class="BarLine" fill="none" stroke="#000000" stroke-width="14.88" stroke-linejoin="bevel" points="3399.76,830.45 3399.76,1170.25" />
<polyline class="BarLine" fill="none" stroke="#000000" stroke-width="14.88" stroke-linejoin="bevel" points="2726.65,2566.67 2726.65,2906.47" />
<polyline class="BarLine" fill="none" stroke="#000000" stroke-width="14.88" stroke-linejoin="bevel" points="2882.65,1698.56 2882.65,2038.36" />
<polyline class="BarLine" fill="none" stroke="#000000" stroke-width="14.88" stroke-linejoin="bevel" points="9207.9,1698.56 9207.9,2038.36" />
<polyline class="BarLine" fill="none" stroke="#000000" stroke-width="14.88" stroke-linejoin="bevel" points="9207.9,830.45 9207.9,1170.25" />
<path class="Accidental" d="M8889.59,991.12 L8889.59,936.836 L8927.98,925.913 L8927.98,980.528 L8889.59,991.12 M8935.26,898.44 C8934.6,897.778 8933.61,897.447 8932.62,897.447 C8932.29,897.447 8931.62,897.778 8931.29,897.778 L8889.59,909.363 L8889.59,851.438 L8880.32,851.438 L8880.32,1015.28 C8880.32,1017.93 8882.3,1019.59 8884.95,1019.59 L8886.28,1019.59 L8927.98,1008 L8927.98,1065.93 L8936.92,1065.93 L8936.92,902.081 C8936.92,900.757 8936.26,899.102 8935.26,898.44"/>
<path class="Accidental" d="M3081.45,991.12 L3081.45,936.836 L3119.84,925.913 L3119.84,980.528 L3081.45,991.12 M3127.12,898.44 C3126.46,897.778 3125.47,897.447 3124.48,897.447 C3124.15,897.447 3123.48,897.778 3123.15,897.778 L3081.45,909.363 L3081.45,851.438 L3072.18,851.438 L3072.18,1015.28 C3072.18,1017.93 3074.16,1019.59 3076.81,1019.59 L3078.14,1019.59 L3119.84,1008 L3119.84,1065.93 L3128.78,1065.93 L3128.78,902.081 C3128.78,900.757 3128.12,899.102 3127.12,898.44"/>
<polyline class="LedgerLine" fill="none" stroke="#000000" stroke-width="13.23" stroke-linejoin="bevel" points="6183.81,1620.43 6345.88,1620.43" />
<polyline class="LedgerLine" fill="none" stroke="#000000" stroke-width="13.23" stroke-linejoin="bevel" points="4878.94,2488.54 5041,2488.54" />
<polyline class="LedgerLine" fill="none" stroke="#000000" stroke-width="13.23" stroke-linejoin="bevel" points="7765.3,752.32 7927.36,752.32" />
<polyline class="LedgerLine" fill="none" stroke="#000000" stroke-width="13.23" stroke-linejoin="bevel" points="7129.35,1620.43 7291.41,1620.43" />
<polyline class="LedgerLine" fill="none" stroke="#000000" stroke-width="13.23" stroke-linejoin="bevel" points="2966.15,1620.43 3128.21,1620.43" />
<polyline class="LedgerLine" fill="none" stroke="#000000" stroke-width="13.23" stroke-linejoin="bevel" points="1395.09,2488.54 1557.15,2488.54" />
<polyline class="LedgerLine" fill="none" stroke="#000000" stroke-width="13.23" stroke-linejoin="bevel" points="2247.35,2488.54 2409.41,2488.54" />
<polyline class="LedgerLine" fill="none" stroke="#000000" stroke-width="13.23" stroke-linejoin="bevel" points="6892.32,2488.54 7054.38,2488.54" />
<polyline class="LedgerLine" fill="none" stroke="#000000" stroke-width="13.23" stroke-linejoin="bevel" points="4026.68,2488.54 4188.74,2488.54" />
<polyline class="Stem" fill="none" stroke="#000000" stroke-width="8.27" stroke-linejoin="bevel" points="5065.51,1111.14 5065.51,855.309" />
<polyline class="Stem" fill="none" stroke="#000000" stroke-width="8.27" stroke-linejoin="bevel" points="8743.94,2585.11 8743.94,2860.59" />
<polyline class="Stem" fill="none" stroke="#000000" stroke-width="8.27" stroke-linejoin="bevel" points="6004.09,987.123 6004.09,772.989" />
<polyline class="Stem" fill="none" stroke="#000000" stroke-width="8.27" stroke-linejoin="bevel" points="4669.8,1069.8 4669.8,794.32" />
<polyline class="Stem" fill="none" stroke="#000000" stroke-width="8.27" stroke-linejoin="bevel" points="6238.74,1028.46 6238.74,772.989" />
<polyline class="Stem" fill="none" stroke="#000000" stroke-width="8.27" stroke-linejoin="bevel" points="4910.36,2502.43 4910.36,2819.25" />
<polyline class="Stem" fill="none" stroke="#000000" stroke-width="8.27" stroke-linejoin="bevel" points="7796.72,766.21 7796.72,1248.56" />
<polyline class="Stem" fill="none" stroke="#000000" stroke-width="8.27" stroke-linejoin="bevel" points="6431.95,2585.11 6431.95,2818.68" />
<polyline class="Stem" fill="none" stroke="#000000" stroke-width="8.27" stroke-linejoin="bevel" points="6492.4,848.887 6492.4,1124.37" />
<polyline class="Stem" fill="none" stroke="#000000" stroke-width="8.27" stroke-linejoin="bevel" points="4697.29,2585.11 4697.29,2819.25" />
<polyline class="Stem" fill="none" stroke="#000000" stroke-width="8.27" stroke-linejoin="bevel" points="4484.23,2667.78 4484.23,2901.73" />
<polyline class="Stem" fill="none" stroke="#000000" stroke-width="8.27" stroke-linejoin="bevel" points="6938.58,807.549 6938.58,1083.03" />
<polyline class="Stem" fill="none" stroke="#000000" stroke-width="8.27" stroke-linejoin="bevel" points="4271.16,2585.11 4271.16,2891.59" />
<polyline class="Stem" fill="none" stroke="#000000" stroke-width="8.27" stroke-linejoin="bevel" points="7290.55,848.887 7290.55,1082.51" />
<polyline class="Stem" fill="none" stroke="#000000" stroke-width="8.27" stroke-linejoin="bevel" points="5769.44,1028.46 5769.44,772.989" />
<polyline class="Stem" fill="none" stroke="#000000" stroke-width="8.27" stroke-linejoin="bevel" points="4058.1,2502.43 4058.1,2881.45" />
<polyline class="Stem" fill="none" stroke="#000000" stroke-width="8.27" stroke-linejoin="bevel" points="7446.98,807.549 7446.98,1062.88" />
<polyline class="Stem" fill="none" stroke="#000000" stroke-width="8.27" stroke-linejoin="bevel" points="4317.83,1069.8 4317.83,793.659" />
<polyline class="Stem" fill="none" stroke="#000000" stroke-width="8.27" stroke-linejoin="bevel" points="6574,2543.77 6574,2799.15" />
<polyline class="Stem" fill="none" stroke="#000000" stroke-width="8.27" stroke-linejoin="bevel" points="4083.19,987.123 4083.19,772.989" />
<polyline class="Stem" fill="none" stroke="#000000" stroke-width="8.27" stroke-linejoin="bevel" points="3848.54,1028.46 3848.54,772.989" />
<polyline class="Stem" fill="none" stroke="#000000" stroke-width="8.27" stroke-linejoin="bevel" points="6215.23,1634.32 6215.23,2013.32" />
<polyline class="Stem" fill="none" stroke="#000000" stroke-width="8.27" stroke-linejoin="bevel" points="6923.74,2502.43 6923.74,2798.78" />
<polyline class="Stem" fill="none" stroke="#000000" stroke-width="8.27" stroke-linejoin="bevel" points="3708.36,2543.77 3708.36,2799.15" />
<polyline class="Stem" fill="none" stroke="#000000" stroke-width="8.27" stroke-linejoin="bevel" points="8031.36,1055.58 8031.36,1258.72" />
<polyline class="Stem" fill="none" stroke="#000000" stroke-width="8.27" stroke-linejoin="bevel" points="3566.32,2585.11 3566.32,2818.68" />
<polyline class="Stem" fill="none" stroke="#000000" stroke-width="8.27" stroke-linejoin="bevel" points="8266.01,1055.58 8266.01,1268.87" />
<polyline class="Stem" fill="none" stroke="#000000" stroke-width="8.27" stroke-linejoin="bevel" points="3246.72,2543.77 3246.72,2819.25" />
<polyline class="Stem" fill="none" stroke="#000000" stroke-width="8.27" stroke-linejoin="bevel" points="8500.66,1055.58 8500.66,1268.69" />
<polyline class="Stem" fill="none" stroke="#000000" stroke-width="8.27" stroke-linejoin="bevel" points="2841.57,2585.11 2841.57,2860.59" />
<polyline class="Stem" fill="none" stroke="#000000" stroke-width="8.27" stroke-linejoin="bevel" points="3613.89,987.123 3613.89,772.989" />
<polyline class="Stem" fill="none" stroke="#000000" stroke-width="8.27" stroke-linejoin="bevel" points="8735.3,1014.24 8735.3,1248.38" />
<polyline class="Stem" fill="none" stroke="#000000" stroke-width="8.27" stroke-linejoin="bevel" points="6112.36,2543.77 6112.36,2819.25" />
<polyline class="Stem" fill="none" stroke="#000000" stroke-width="8.27" stroke-linejoin="bevel" points="8969.95,972.903 8969.95,1228.07" />
<polyline class="Stem" fill="none" stroke="#000000" stroke-width="8.27" stroke-linejoin="bevel" points="2491.84,2667.78 2491.84,2901.73" />
<polyline class="Stem" fill="none" stroke="#000000" stroke-width="8.27" stroke-linejoin="bevel" points="3161.81,972.903 3161.81,1228.07" />
<polyline class="Stem" fill="none" stroke="#000000" stroke-width="8.27" stroke-linejoin="bevel" points="7136.8,2543.77 7136.8,2808.91" />
<polyline class="Stem" fill="none" stroke="#000000" stroke-width="8.27" stroke-linejoin="bevel" points="2927.16,1014.24 2927.16,1248.38" />
<polyline class="Stem" fill="none" stroke="#000000" stroke-width="8.27" stroke-linejoin="bevel" points="5534.8,1028.46 5534.8,814.686" />
<polyline class="Stem" fill="none" stroke="#000000" stroke-width="8.27" stroke-linejoin="bevel" points="2278.77,2502.43 2278.77,2891.59" />
<polyline class="Stem" fill="none" stroke="#000000" stroke-width="8.27" stroke-linejoin="bevel" points="1525.72,1855.23 1525.72,1641.28" />
<polyline class="Stem" fill="none" stroke="#000000" stroke-width="8.27" stroke-linejoin="bevel" points="2065.71,2585.11 2065.71,2881.45" />
<polyline class="Stem" fill="none" stroke="#000000" stroke-width="8.27" stroke-linejoin="bevel" points="1852.64,2667.78 1852.64,2901.73" />
<polyline class="Stem" fill="none" stroke="#000000" stroke-width="8.27" stroke-linejoin="bevel" points="1762.11,1896.57 1762.11,1651.43" />
<polyline class="Stem" fill="none" stroke="#000000" stroke-width="8.27" stroke-linejoin="bevel" points="1639.58,2585.11 1639.58,2891.59" />
<polyline class="Stem" fill="none" stroke="#000000" stroke-width="8.27" stroke-linejoin="bevel" points="1998.49,1937.91 1998.49,1661.59" />
<polyline class="Stem" fill="none" stroke="#000000" stroke-width="8.27" stroke-linejoin="bevel" points="5473.16,2626.45 5473.16,2922.6" />
<polyline class="Stem" fill="none" stroke="#000000" stroke-width="8.27" stroke-linejoin="bevel" points="2135.66,1675.66 2135.66,1951.14" />
<polyline class="Stem" fill="none" stroke="#000000" stroke-width="8.27" stroke-linejoin="bevel" points="1426.51,2502.43 1426.51,2881.45" />
<polyline class="Stem" fill="none" stroke="#000000" stroke-width="8.27" stroke-linejoin="bevel" points="2490.24,1717 2490.24,1950.62" />
<polyline class="Stem" fill="none" stroke="#000000" stroke-width="8.27" stroke-linejoin="bevel" points="7349.87,2585.11 7349.87,2819.05" />
<polyline class="Stem" fill="none" stroke="#000000" stroke-width="8.27" stroke-linejoin="bevel" points="7562.93,2626.45 7562.93,2881.65" />
<polyline class="Stem" fill="none" stroke="#000000" stroke-width="8.27" stroke-linejoin="bevel" points="2647.83,1675.66 2647.83,1930.98" />
<polyline class="Stem" fill="none" stroke="#000000" stroke-width="8.27" stroke-linejoin="bevel" points="8973.08,1675.66 8973.08,1930.98" />
<polyline class="Stem" fill="none" stroke="#000000" stroke-width="8.27" stroke-linejoin="bevel" points="2692.52,1055.58 2692.52,1268.69" />
<polyline class="Stem" fill="none" stroke="#000000" stroke-width="8.27" stroke-linejoin="bevel" points="7776,2667.78 7776,2901.93" />
<polyline class="Stem" fill="none" stroke="#000000" stroke-width="8.27" stroke-linejoin="bevel" points="2997.57,1634.32 2997.57,1930.65" />
<polyline class="Stem" fill="none" stroke="#000000" stroke-width="8.27" stroke-linejoin="bevel" points="5300.15,1069.8 5300.15,834.997" />
<polyline class="Stem" fill="none" stroke="#000000" stroke-width="8.27" stroke-linejoin="bevel" points="8815.49,1717 8815.49,1950.62" />
<polyline class="Stem" fill="none" stroke="#000000" stroke-width="8.27" stroke-linejoin="bevel" points="8460.92,1675.66 8460.92,1951.14" />
<polyline class="Stem" fill="none" stroke="#000000" stroke-width="8.27" stroke-linejoin="bevel" points="3233.95,1675.66 3233.95,1940.8" />
<polyline class="Stem" fill="none" stroke="#000000" stroke-width="8.27" stroke-linejoin="bevel" points="8224.53,1758.34 8224.53,2054.49" />
<polyline class="Stem" fill="none" stroke="#000000" stroke-width="8.27" stroke-linejoin="bevel" points="3470.34,1717 3470.34,1950.96" />
<polyline class="Stem" fill="none" stroke="#000000" stroke-width="8.27" stroke-linejoin="bevel" points="7988.15,1841.01 7988.15,2054.49" />
<polyline class="Stem" fill="none" stroke="#000000" stroke-width="8.27" stroke-linejoin="bevel" points="3706.72,1758.34 3706.72,2013.5" />
<polyline class="Stem" fill="none" stroke="#000000" stroke-width="8.27" stroke-linejoin="bevel" points="7751.77,1758.34 7751.77,2054.49" />
<polyline class="Stem" fill="none" stroke="#000000" stroke-width="8.27" stroke-linejoin="bevel" points="2557.08,1028.46 2557.08,814.686" />
<polyline class="Stem" fill="none" stroke="#000000" stroke-width="8.27" stroke-linejoin="bevel" points="3943.1,1799.67 3943.1,2033.82" />
<polyline class="Stem" fill="none" stroke="#000000" stroke-width="8.27" stroke-linejoin="bevel" points="7989.06,2709.12 7989.06,2922.2" />
<polyline class="Stem" fill="none" stroke="#000000" stroke-width="8.27" stroke-linejoin="bevel" points="4179.49,1841.01 4179.49,2054.13" />
<polyline class="Stem" fill="none" stroke="#000000" stroke-width="8.27" stroke-linejoin="bevel" points="7397.15,1717 7397.15,1951.14" />
<polyline class="Stem" fill="none" stroke="#000000" stroke-width="8.27" stroke-linejoin="bevel" points="2322.44,1069.8 2322.44,834.997" />
<polyline class="Stem" fill="none" stroke="#000000" stroke-width="8.27" stroke-linejoin="bevel" points="2087.79,1111.14 2087.79,855.309" />
<polyline class="Stem" fill="none" stroke="#000000" stroke-width="8.27" stroke-linejoin="bevel" points="4534.1,1799.67 4534.1,2075.15" />
<polyline class="Stem" fill="none" stroke="#000000" stroke-width="8.27" stroke-linejoin="bevel" points="5686.23,2709.12 5686.23,2922.6" />
<polyline class="Stem" fill="none" stroke="#000000" stroke-width="8.27" stroke-linejoin="bevel" points="7160.77,1634.32 7160.77,1951.14" />
<polyline class="Stem" fill="none" stroke="#000000" stroke-width="8.27" stroke-linejoin="bevel" points="4983.59,1717 4983.59,1992.48" />
<polyline class="Stem" fill="none" stroke="#000000" stroke-width="8.27" stroke-linejoin="bevel" points="6924.38,1717 6924.38,1951.14" />
<polyline class="Stem" fill="none" stroke="#000000" stroke-width="8.27" stroke-linejoin="bevel" points="8338.8,2667.78 8338.8,2943.27" />
<polyline class="Stem" fill="none" stroke="#000000" stroke-width="8.27" stroke-linejoin="bevel" points="1692.09,1193.82 1692.09,918.336" />
<polyline class="Stem" fill="none" stroke="#000000" stroke-width="8.27" stroke-linejoin="bevel" points="5899.29,2626.45 5899.29,2922.6" />
<polyline class="Stem" fill="none" stroke="#000000" stroke-width="8.27" stroke-linejoin="bevel" points="5707.9,1717 5707.9,1950.62" />
<polyline class="Stem" fill="none" stroke="#000000" stroke-width="8.27" stroke-linejoin="bevel" points="6688,1799.67 6688,2033.64" />
<polyline class="Stem" fill="none" stroke="#000000" stroke-width="8.27" stroke-linejoin="bevel" points="6451.62,1717 6451.62,2023.48" />
<polyline class="Stem" fill="none" stroke="#000000" stroke-width="8.27" stroke-linejoin="bevel" points="5865.49,1675.66 5865.49,1930.98" />
<polyline class="Stem" fill="none" stroke="#000000" stroke-width="8.27" stroke-linejoin="bevel" points="5123.42,2585.11 5123.42,2819.25" />
<path class="Hook" d="M1687.95,992.812 C1687.95,993.805 1688.28,995.46 1690.6,996.453 C1704.83,1001.09 1733.3,1018.96 1754.81,1055.7 C1760.77,1065.96 1770.37,1080.2 1770.37,1107.67 C1770.37,1131.5 1764.08,1155.99 1755.48,1179.83 C1754.81,1181.81 1754.15,1183.47 1754.48,1184.79 C1754.48,1186.78 1755.81,1188.1 1757.79,1188.1 C1760.11,1188.1 1761.76,1186.78 1763.09,1184.46 C1777.98,1157.98 1783.61,1127.2 1783.61,1097.08 C1781.96,1054.38 1757.46,1022.93 1757.46,1022.93 C1758.45,1022.93 1727.01,982.22 1718.07,968.318 C1705.83,949.451 1700.2,930.584 1699.54,929.26 C1699.21,928.267 1696.23,916.351 1696.23,916.351 C1695.9,915.027 1694.24,913.703 1692.25,913.703 C1689.94,913.703 1687.95,915.689 1687.95,918.006 L1687.95,992.812 "/>
<path class="Hook" d="M4665.67,868.796 C4665.67,869.789 4666,871.444 4668.32,872.437 C4682.55,877.071 4711.02,894.945 4732.53,931.686 C4738.49,941.947 4748.09,956.18 4748.09,983.653 C4748.09,1007.48 4741.8,1031.98 4733.19,1055.81 C4732.53,1057.8 4731.87,1059.45 4732.2,1060.78 C4732.2,1062.76 4733.52,1064.09 4735.51,1064.09 C4737.83,1064.09 4739.48,1062.76 4740.81,1060.44 C4755.7,1033.96 4761.33,1003.18 4761.33,973.061 C4759.67,930.362 4735.18,898.917 4735.18,898.917 C4736.17,898.917 4704.73,858.204 4695.79,844.302 C4683.54,825.435 4677.92,806.568 4677.25,805.244 C4676.92,804.251 4673.94,792.335 4673.94,792.335 C4673.61,791.011 4671.96,789.687 4669.97,789.687 C4667.65,789.687 4665.67,791.673 4665.67,793.99 L4665.67,868.796 "/>
<path class="Note" d="M8739.81,2585.12 C8739.81,2599.35 8750.07,2615.24 8776.88,2615.24 C8811.31,2615.24 8847.39,2587.11 8847.39,2557.98 C8847.39,2538.45 8830.84,2527.53 8810.31,2527.53 C8778.21,2527.53 8739.81,2554.67 8739.81,2585.12"/>
<path class="Note" d="M5469.03,2626.46 C5469.03,2640.69 5479.29,2656.58 5506.1,2656.58 C5540.52,2656.58 5576.6,2628.44 5576.6,2599.32 C5576.6,2579.79 5560.05,2568.86 5539.53,2568.86 C5507.42,2568.86 5469.03,2596.01 5469.03,2626.46"/>
<path class="Note" d="M6211.1,1634.33 C6211.1,1648.57 6221.36,1664.45 6248.17,1664.45 C6282.59,1664.45 6318.67,1636.32 6318.67,1607.19 C6318.67,1587.66 6302.12,1576.74 6281.6,1576.74 C6249.49,1576.74 6211.1,1603.88 6211.1,1634.33"/>
<path class="Note" d="M4566.46,1096.93 C4566.46,1111.16 4576.72,1127.05 4603.53,1127.05 C4637.95,1127.05 4674.03,1098.92 4674.03,1069.79 C4674.03,1050.26 4657.48,1039.34 4636.96,1039.34 C4604.85,1039.34 4566.46,1066.48 4566.46,1096.93"/>
<path class="Note" d="M5895.16,2626.46 C5895.16,2640.69 5905.42,2656.58 5932.23,2656.58 C5966.65,2656.58 6002.73,2628.44 6002.73,2599.32 C6002.73,2579.79 5986.18,2568.86 5965.66,2568.86 C5933.55,2568.86 5895.16,2596.01 5895.16,2626.46"/>
<path class="Note" d="M6447.48,1717.01 C6447.48,1731.24 6457.74,1747.13 6484.55,1747.13 C6518.98,1747.13 6555.06,1719 6555.06,1689.87 C6555.06,1670.34 6538.51,1659.42 6517.99,1659.42 C6485.88,1659.42 6447.48,1686.56 6447.48,1717.01"/>
<path class="Note" d="M5703.77,1717.01 C5703.77,1731.24 5714.03,1747.13 5740.84,1747.13 C5775.27,1747.13 5811.35,1719 5811.35,1689.87 C5811.35,1670.34 5794.8,1659.42 5774.27,1659.42 C5742.17,1659.42 5703.77,1686.56 5703.77,1717.01"/>
<path class="Note" d="M6683.87,1799.69 C6683.87,1813.92 6694.13,1829.81 6720.94,1829.81 C6755.36,1829.81 6791.44,1801.67 6791.44,1772.54 C6791.44,1753.02 6774.89,1742.09 6754.37,1742.09 C6722.26,1742.09 6683.87,1769.23 6683.87,1799.69"/>
<path class="Note" d="M4979.45,1717.01 C4979.45,1731.24 4989.71,1747.13 5016.53,1747.13 C5050.95,1747.13 5087.03,1719 5087.03,1689.87 C5087.03,1670.34 5070.48,1659.42 5049.96,1659.42 C5017.85,1659.42 4979.45,1686.56 4979.45,1717.01"/>
<path class="Note" d="M6920.25,1717.01 C6920.25,1731.24 6930.51,1747.13 6957.32,1747.13 C6991.75,1747.13 7027.83,1719 7027.83,1689.87 C7027.83,1670.34 7011.28,1659.42 6990.75,1659.42 C6958.65,1659.42 6920.25,1686.56 6920.25,1717.01"/>
<path class="Note" d="M8334.67,2667.8 C8334.67,2682.03 8344.93,2697.92 8371.74,2697.92 C8406.16,2697.92 8442.24,2669.78 8442.24,2640.66 C8442.24,2621.13 8425.69,2610.2 8405.17,2610.2 C8373.06,2610.2 8334.67,2637.35 8334.67,2667.8"/>
<path class="Note" d="M1588.74,1220.95 C1588.74,1235.18 1599,1251.07 1625.81,1251.07 C1660.24,1251.07 1696.31,1222.93 1696.31,1193.8 C1696.31,1174.28 1679.76,1163.35 1659.24,1163.35 C1627.14,1163.35 1588.74,1190.49 1588.74,1220.95"/>
<path class="Note" d="M4529.97,1799.69 C4529.97,1813.92 4540.23,1829.81 4567.04,1829.81 C4601.46,1829.81 4637.54,1801.67 4637.54,1772.54 C4637.54,1753.02 4620.99,1742.09 4600.47,1742.09 C4568.36,1742.09 4529.97,1769.23 4529.97,1799.69"/>
<path class="Note" d="M7156.63,1634.33 C7156.63,1648.57 7166.9,1664.45 7193.71,1664.45 C7228.13,1664.45 7264.21,1636.32 7264.21,1607.19 C7264.21,1587.66 7247.66,1576.74 7227.14,1576.74 C7195.03,1576.74 7156.63,1603.88 7156.63,1634.33"/>
<path class="Note" d="M4175.35,1841.03 C4175.35,1855.26 4185.62,1871.15 4212.43,1871.15 C4246.85,1871.15 4282.93,1843.01 4282.93,1813.88 C4282.93,1794.35 4266.38,1783.43 4245.86,1783.43 C4213.75,1783.43 4175.35,1810.57 4175.35,1841.03"/>
<path class="Note" d="M7393.02,1717.01 C7393.02,1731.24 7403.28,1747.13 7430.09,1747.13 C7464.51,1747.13 7500.59,1719 7500.59,1689.87 C7500.59,1670.34 7484.04,1659.42 7463.52,1659.42 C7431.41,1659.42 7393.02,1686.56 7393.02,1717.01"/>
<path class="Note" d="M3938.97,1799.69 C3938.97,1813.92 3949.23,1829.81 3976.04,1829.81 C4010.47,1829.81 4046.55,1801.67 4046.55,1772.54 C4046.55,1753.02 4030,1742.09 4009.47,1742.09 C3977.37,1742.09 3938.97,1769.23 3938.97,1799.69"/>
<path class="Note" d="M1984.44,1138.27 C1984.44,1152.5 1994.71,1168.39 2021.52,1168.39 C2055.94,1168.39 2092.02,1140.26 2092.02,1111.13 C2092.02,1091.6 2075.47,1080.68 2054.95,1080.68 C2022.84,1080.68 1984.44,1107.82 1984.44,1138.27"/>
<path class="Note" d="M3702.59,1758.35 C3702.59,1772.58 3712.85,1788.47 3739.66,1788.47 C3774.08,1788.47 3810.16,1760.33 3810.16,1731.21 C3810.16,1711.68 3793.61,1700.75 3773.09,1700.75 C3740.98,1700.75 3702.59,1727.9 3702.59,1758.35"/>
<path class="Note" d="M7747.63,1758.35 C7747.63,1772.58 7757.89,1788.47 7784.7,1788.47 C7819.13,1788.47 7855.21,1760.33 7855.21,1731.21 C7855.21,1711.68 7838.66,1700.75 7818.13,1700.75 C7786.03,1700.75 7747.63,1727.9 7747.63,1758.35"/>
<path class="Note" d="M7984.93,2709.14 C7984.93,2723.37 7995.19,2739.26 8022,2739.26 C8056.42,2739.26 8092.5,2711.12 8092.5,2681.99 C8092.5,2662.46 8075.95,2651.54 8055.43,2651.54 C8023.32,2651.54 7984.93,2678.68 7984.93,2709.14"/>
<path class="Note" d="M3466.2,1717.01 C3466.2,1731.24 3476.46,1747.13 3503.27,1747.13 C3537.7,1747.13 3573.78,1719 3573.78,1689.87 C3573.78,1670.34 3557.23,1659.42 3536.7,1659.42 C3504.6,1659.42 3466.2,1686.56 3466.2,1717.01"/>
<path class="Note" d="M7984.02,1841.03 C7984.02,1855.26 7994.28,1871.15 8021.09,1871.15 C8055.51,1871.15 8091.59,1843.01 8091.59,1813.88 C8091.59,1794.35 8075.04,1783.43 8054.52,1783.43 C8022.41,1783.43 7984.02,1810.57 7984.02,1841.03"/>
<path class="Note" d="M3229.82,1675.67 C3229.82,1689.9 3240.08,1705.79 3266.89,1705.79 C3301.31,1705.79 3337.39,1677.66 3337.39,1648.53 C3337.39,1629 3320.84,1618.08 3300.32,1618.08 C3268.21,1618.08 3229.82,1645.22 3229.82,1675.67"/>
<path class="Note" d="M8220.4,1758.35 C8220.4,1772.58 8230.66,1788.47 8257.47,1788.47 C8291.9,1788.47 8327.97,1760.33 8327.97,1731.21 C8327.97,1711.68 8311.42,1700.75 8290.9,1700.75 C8258.8,1700.75 8220.4,1727.9 8220.4,1758.35"/>
<path class="Note" d="M2219.09,1096.93 C2219.09,1111.16 2229.35,1127.05 2256.16,1127.05 C2290.59,1127.05 2326.67,1098.92 2326.67,1069.79 C2326.67,1050.26 2310.12,1039.34 2289.59,1039.34 C2257.49,1039.34 2219.09,1066.48 2219.09,1096.93"/>
<path class="Note" d="M8456.78,1675.67 C8456.78,1689.9 8467.05,1705.79 8493.86,1705.79 C8528.28,1705.79 8564.36,1677.66 8564.36,1648.53 C8564.36,1629 8547.81,1618.08 8527.29,1618.08 C8495.18,1618.08 8456.78,1645.22 8456.78,1675.67"/>
<path class="Note" d="M2993.43,1634.33 C2993.43,1648.57 3003.69,1664.45 3030.51,1664.45 C3064.93,1664.45 3101.01,1636.32 3101.01,1607.19 C3101.01,1587.66 3084.46,1576.74 3063.94,1576.74 C3031.83,1576.74 2993.43,1603.88 2993.43,1634.33"/>
<path class="Note" d="M8811.36,1717.01 C8811.36,1731.24 8821.62,1747.13 8848.43,1747.13 C8882.86,1747.13 8918.94,1719 8918.94,1689.87 C8918.94,1670.34 8902.39,1659.42 8881.86,1659.42 C8849.76,1659.42 8811.36,1686.56 8811.36,1717.01"/>
<path class="Note" d="M7771.86,2667.8 C7771.86,2682.03 7782.12,2697.92 7808.93,2697.92 C7843.36,2697.92 7879.44,2669.78 7879.44,2640.66 C7879.44,2621.13 7862.89,2610.2 7842.37,2610.2 C7810.26,2610.2 7771.86,2637.35 7771.86,2667.8"/>
<path class="Note" d="M2643.7,1675.67 C2643.7,1689.9 2653.96,1705.79 2680.77,1705.79 C2715.19,1705.79 2751.27,1677.66 2751.27,1648.53 C2751.27,1629 2734.72,1618.08 2714.2,1618.08 C2682.09,1618.08 2643.7,1645.22 2643.7,1675.67"/>
<path class="Note" d="M8968.95,1675.67 C8968.95,1689.9 8979.21,1705.79 9006.02,1705.79 C9040.45,1705.79 9076.52,1677.66 9076.52,1648.53 C9076.52,1629 9059.97,1618.08 9039.45,1618.08 C9007.35,1618.08 8968.95,1645.22 8968.95,1675.67"/>
<path class="Note" d="M2453.74,1055.59 C2453.74,1069.83 2464,1085.71 2490.81,1085.71 C2525.23,1085.71 2561.31,1057.58 2561.31,1028.45 C2561.31,1008.92 2544.76,997.998 2524.24,997.998 C2492.13,997.998 2453.74,1025.14 2453.74,1055.59"/>
<path class="Note" d="M2486.11,1717.01 C2486.11,1731.24 2496.37,1747.13 2523.18,1747.13 C2557.6,1747.13 2593.68,1719 2593.68,1689.87 C2593.68,1670.34 2577.13,1659.42 2556.61,1659.42 C2524.5,1659.42 2486.11,1686.56 2486.11,1717.01"/>
<path class="Note" d="M4962.16,1138.27 C4962.16,1152.5 4972.42,1168.39 4999.23,1168.39 C5033.66,1168.39 5069.74,1140.26 5069.74,1111.13 C5069.74,1091.6 5053.19,1080.68 5032.66,1080.68 C5000.56,1080.68 4962.16,1107.82 4962.16,1138.27"/>
<path class="Note" d="M5682.09,2709.14 C5682.09,2723.37 5692.35,2739.26 5719.16,2739.26 C5753.59,2739.26 5789.67,2711.12 5789.67,2681.99 C5789.67,2662.46 5773.12,2651.54 5752.6,2651.54 C5720.49,2651.54 5682.09,2678.68 5682.09,2709.14"/>
<path class="Note" d="M2131.53,1675.67 C2131.53,1689.9 2141.79,1705.79 2168.6,1705.79 C2203.03,1705.79 2239.1,1677.66 2239.1,1648.53 C2239.1,1629 2222.55,1618.08 2202.03,1618.08 C2169.93,1618.08 2131.53,1645.22 2131.53,1675.67"/>
<path class="Note" d="M1895.15,1965.04 C1895.15,1979.27 1905.41,1995.16 1932.22,1995.16 C1966.64,1995.16 2002.72,1967.03 2002.72,1937.9 C2002.72,1918.37 1986.17,1907.45 1965.65,1907.45 C1933.54,1907.45 1895.15,1934.59 1895.15,1965.04"/>
<path class="Note" d="M1422.38,2502.44 C1422.38,2516.68 1432.64,2532.56 1459.45,2532.56 C1493.87,2532.56 1529.95,2504.43 1529.95,2475.3 C1529.95,2455.77 1513.4,2444.85 1492.88,2444.85 C1460.77,2444.85 1422.38,2471.99 1422.38,2502.44"/>
<path class="Note" d="M7558.8,2626.46 C7558.8,2640.69 7569.06,2656.58 7595.87,2656.58 C7630.29,2656.58 7666.37,2628.44 7666.37,2599.32 C7666.37,2579.79 7649.82,2568.86 7629.3,2568.86 C7597.19,2568.86 7558.8,2596.01 7558.8,2626.46"/>
<path class="Note" d="M1658.76,1923.7 C1658.76,1937.94 1669.02,1953.82 1695.83,1953.82 C1730.26,1953.82 1766.34,1925.69 1766.34,1896.56 C1766.34,1877.03 1749.79,1866.11 1729.26,1866.11 C1697.16,1866.11 1658.76,1893.25 1658.76,1923.7"/>
<path class="Note" d="M1635.44,2585.12 C1635.44,2599.35 1645.7,2615.24 1672.51,2615.24 C1706.94,2615.24 1743.02,2587.11 1743.02,2557.98 C1743.02,2538.45 1726.47,2527.53 1705.95,2527.53 C1673.84,2527.53 1635.44,2554.67 1635.44,2585.12"/>
<path class="Note" d="M2688.38,1055.59 C2688.38,1069.83 2698.64,1085.71 2725.45,1085.71 C2759.88,1085.71 2795.96,1057.58 2795.96,1028.45 C2795.96,1008.92 2779.41,997.998 2758.89,997.998 C2726.78,997.998 2688.38,1025.14 2688.38,1055.59"/>
<path class="Note" d="M1848.51,2667.8 C1848.51,2682.03 1858.77,2697.92 1885.58,2697.92 C1920,2697.92 1956.08,2669.78 1956.08,2640.66 C1956.08,2621.13 1939.53,2610.2 1919.01,2610.2 C1886.9,2610.2 1848.51,2637.35 1848.51,2667.8"/>
<path class="Note" d="M1422.38,1882.36 C1422.38,1896.6 1432.64,1912.48 1459.45,1912.48 C1493.87,1912.48 1529.95,1884.35 1529.95,1855.22 C1529.95,1835.69 1513.4,1824.77 1492.88,1824.77 C1460.77,1824.77 1422.38,1851.91 1422.38,1882.36"/>
<path class="Note" d="M2061.57,2585.12 C2061.57,2599.35 2071.83,2615.24 2098.64,2615.24 C2133.07,2615.24 2169.15,2587.11 2169.15,2557.98 C2169.15,2538.45 2152.6,2527.53 2132.08,2527.53 C2099.97,2527.53 2061.57,2554.67 2061.57,2585.12"/>
<path class="Note" d="M7345.73,2585.12 C7345.73,2599.35 7355.99,2615.24 7382.8,2615.24 C7417.23,2615.24 7453.31,2587.11 7453.31,2557.98 C7453.31,2538.45 7436.76,2527.53 7416.24,2527.53 C7384.13,2527.53 7345.73,2554.67 7345.73,2585.12"/>
<path class="Note" d="M4214.49,1096.93 C4214.49,1111.16 4224.75,1127.05 4251.56,1127.05 C4285.98,1127.05 4322.06,1098.92 4322.06,1069.79 C4322.06,1050.26 4305.51,1039.34 4284.99,1039.34 C4252.88,1039.34 4214.49,1066.48 4214.49,1096.93"/>
<path class="Note" d="M6427.82,2585.12 C6427.82,2599.35 6438.08,2615.24 6464.89,2615.24 C6499.32,2615.24 6535.4,2587.11 6535.4,2557.98 C6535.4,2538.45 6518.85,2527.53 6498.32,2527.53 C6466.22,2527.53 6427.82,2554.67 6427.82,2585.12"/>
<path class="Note" d="M2274.64,2502.44 C2274.64,2516.68 2284.9,2532.56 2311.71,2532.56 C2346.13,2532.56 2382.21,2504.43 2382.21,2475.3 C2382.21,2455.77 2365.66,2444.85 2345.14,2444.85 C2313.03,2444.85 2274.64,2471.99 2274.64,2502.44"/>
<path class="Note" d="M8965.81,972.915 C8965.81,987.148 8976.07,1003.04 9002.89,1003.04 C9037.31,1003.04 9073.39,974.901 9073.39,945.773 C9073.39,926.244 9056.84,915.321 9036.32,915.321 C9004.21,915.321 8965.81,942.463 8965.81,972.915"/>
<path class="Note" d="M2487.7,2667.8 C2487.7,2682.03 2497.96,2697.92 2524.77,2697.92 C2559.2,2697.92 2595.28,2669.78 2595.28,2640.66 C2595.28,2621.13 2578.73,2610.2 2558.21,2610.2 C2526.1,2610.2 2487.7,2637.35 2487.7,2667.8"/>
<path class="Note" d="M8731.17,1014.25 C8731.17,1028.49 8741.43,1044.37 8768.24,1044.37 C8802.66,1044.37 8838.74,1016.24 8838.74,987.112 C8838.74,967.583 8822.19,956.66 8801.67,956.66 C8769.56,956.66 8731.17,983.802 8731.17,1014.25"/>
<path class="Note" d="M7132.67,2543.78 C7132.67,2558.01 7142.93,2573.9 7169.74,2573.9 C7204.16,2573.9 7240.24,2545.77 7240.24,2516.64 C7240.24,2497.11 7223.69,2486.19 7203.17,2486.19 C7171.06,2486.19 7132.67,2513.33 7132.67,2543.78"/>
<path class="Note" d="M8496.52,1055.59 C8496.52,1069.83 8506.78,1085.71 8533.59,1085.71 C8568.02,1085.71 8604.1,1057.58 8604.1,1028.45 C8604.1,1008.92 8587.55,997.998 8567.02,997.998 C8534.92,997.998 8496.52,1025.14 8496.52,1055.59"/>
<path class="Note" d="M2837.44,2585.12 C2837.44,2599.35 2847.7,2615.24 2874.51,2615.24 C2908.94,2615.24 2945.02,2587.11 2945.02,2557.98 C2945.02,2538.45 2928.47,2527.53 2907.94,2527.53 C2875.84,2527.53 2837.44,2554.67 2837.44,2585.12"/>
<path class="Note" d="M2923.03,1014.25 C2923.03,1028.49 2933.29,1044.37 2960.1,1044.37 C2994.52,1044.37 3030.6,1016.24 3030.6,987.112 C3030.6,967.583 3014.05,956.66 2993.53,956.66 C2961.42,956.66 2923.03,983.802 2923.03,1014.25"/>
<path class="Note" d="M8261.88,1055.59 C8261.88,1069.83 8272.14,1085.71 8298.95,1085.71 C8333.37,1085.71 8369.45,1057.58 8369.45,1028.45 C8369.45,1008.92 8352.9,997.998 8332.38,997.998 C8300.27,997.998 8261.88,1025.14 8261.88,1055.59"/>
<path class="Note" d="M3242.59,2543.78 C3242.59,2558.01 3252.85,2573.9 3279.66,2573.9 C3314.08,2573.9 3350.16,2545.77 3350.16,2516.64 C3350.16,2497.11 3333.61,2486.19 3313.09,2486.19 C3280.98,2486.19 3242.59,2513.33 3242.59,2543.78"/>
<path class="Note" d="M8027.23,1055.59 C8027.23,1069.83 8037.49,1085.71 8064.3,1085.71 C8098.73,1085.71 8134.8,1057.58 8134.8,1028.45 C8134.8,1008.92 8118.25,997.998 8097.73,997.998 C8065.63,997.998 8027.23,1025.14 8027.23,1055.59"/>
<path class="Note" d="M3562.18,2585.12 C3562.18,2599.35 3572.44,2615.24 3599.26,2615.24 C3633.68,2615.24 3669.76,2587.11 3669.76,2557.98 C3669.76,2538.45 3653.21,2527.53 3632.69,2527.53 C3600.58,2527.53 3562.18,2554.67 3562.18,2585.12"/>
<path class="Note" d="M6919.6,2502.44 C6919.6,2516.68 6929.86,2532.56 6956.67,2532.56 C6991.1,2532.56 7027.18,2504.43 7027.18,2475.3 C7027.18,2455.77 7010.63,2444.85 6990.1,2444.85 C6958,2444.85 6919.6,2471.99 6919.6,2502.44"/>
<path class="Note" d="M5861.36,1675.67 C5861.36,1689.9 5871.62,1705.79 5898.43,1705.79 C5932.86,1705.79 5968.93,1677.66 5968.93,1648.53 C5968.93,1629 5952.38,1618.08 5931.86,1618.08 C5899.76,1618.08 5861.36,1645.22 5861.36,1675.67"/>
<path class="Note" d="M3704.23,2543.78 C3704.23,2558.01 3714.49,2573.9 3741.3,2573.9 C3775.72,2573.9 3811.8,2545.77 3811.8,2516.64 C3811.8,2497.11 3795.25,2486.19 3774.73,2486.19 C3742.62,2486.19 3704.23,2513.33 3704.23,2543.78"/>
<path class="Note" d="M7792.58,766.222 C7792.58,780.455 7802.84,796.343 7829.66,796.343 C7864.08,796.343 7900.16,768.208 7900.16,739.08 C7900.16,719.551 7883.61,708.628 7863.09,708.628 C7830.98,708.628 7792.58,735.77 7792.58,766.222"/>
<path class="Note" d="M7442.85,807.561 C7442.85,821.794 7453.11,837.682 7479.92,837.682 C7514.34,837.682 7550.42,809.547 7550.42,780.419 C7550.42,760.89 7533.87,749.967 7513.35,749.967 C7481.24,749.967 7442.85,777.109 7442.85,807.561"/>
<path class="Note" d="M3157.67,972.915 C3157.67,987.148 3167.94,1003.04 3194.75,1003.04 C3229.17,1003.04 3265.25,974.901 3265.25,945.773 C3265.25,926.244 3248.7,915.321 3228.18,915.321 C3196.07,915.321 3157.67,942.463 3157.67,972.915"/>
<path class="Note" d="M7286.41,848.899 C7286.41,863.132 7296.68,879.02 7323.49,879.02 C7357.91,879.02 7393.99,850.885 7393.99,821.757 C7393.99,802.228 7377.44,791.305 7356.92,791.305 C7324.81,791.305 7286.41,818.447 7286.41,848.899"/>
<path class="Note" d="M4053.96,2502.44 C4053.96,2516.68 4064.23,2532.56 4091.04,2532.56 C4125.46,2532.56 4161.54,2504.43 4161.54,2475.3 C4161.54,2455.77 4144.99,2444.85 4124.47,2444.85 C4092.36,2444.85 4053.96,2471.99 4053.96,2502.44"/>
<path class="Note" d="M3510.55,1014.25 C3510.55,1028.49 3520.81,1044.37 3547.62,1044.37 C3582.04,1044.37 3618.12,1016.24 3618.12,987.112 C3618.12,967.583 3601.57,956.66 3581.05,956.66 C3548.94,956.66 3510.55,983.802 3510.55,1014.25"/>
<path class="Note" d="M6934.45,807.561 C6934.45,821.794 6944.71,837.682 6971.52,837.682 C7005.94,837.682 7042.02,809.547 7042.02,780.419 C7042.02,760.89 7025.47,749.967 7004.95,749.967 C6972.84,749.967 6934.45,777.109 6934.45,807.561"/>
<path class="Note" d="M4267.03,2585.12 C4267.03,2599.35 4277.29,2615.24 4304.1,2615.24 C4338.53,2615.24 4374.6,2587.11 4374.6,2557.98 C4374.6,2538.45 4358.05,2527.53 4337.53,2527.53 C4305.43,2527.53 4267.03,2554.67 4267.03,2585.12"/>
<path class="Note" d="M3745.19,1055.59 C3745.19,1069.83 3755.46,1085.71 3782.27,1085.71 C3816.69,1085.71 3852.77,1057.58 3852.77,1028.45 C3852.77,1008.92 3836.22,997.998 3815.7,997.998 C3783.59,997.998 3745.19,1025.14 3745.19,1055.59"/>
<path class="Note" d="M4480.09,2667.8 C4480.09,2682.03 4490.36,2697.92 4517.17,2697.92 C4551.59,2697.92 4587.67,2669.78 4587.67,2640.66 C4587.67,2621.13 4571.12,2610.2 4550.6,2610.2 C4518.49,2610.2 4480.09,2637.35 4480.09,2667.8"/>
<path class="Note" d="M6488.26,848.899 C6488.26,863.132 6498.53,879.02 6525.34,879.02 C6559.76,879.02 6595.84,850.885 6595.84,821.757 C6595.84,802.228 6579.29,791.305 6558.77,791.305 C6526.66,791.305 6488.26,818.447 6488.26,848.899"/>
<path class="Note" d="M4693.16,2585.12 C4693.16,2599.35 4703.42,2615.24 4730.23,2615.24 C4764.66,2615.24 4800.73,2587.11 4800.73,2557.98 C4800.73,2538.45 4784.18,2527.53 4763.66,2527.53 C4731.56,2527.53 4693.16,2554.67 4693.16,2585.12"/>
<path class="Note" d="M6569.86,2543.78 C6569.86,2558.01 6580.13,2573.9 6606.94,2573.9 C6641.36,2573.9 6677.44,2545.77 6677.44,2516.64 C6677.44,2497.11 6660.89,2486.19 6640.37,2486.19 C6608.26,2486.19 6569.86,2513.33 6569.86,2543.78"/>
<path class="Note" d="M6135.39,1055.59 C6135.39,1069.83 6145.65,1085.71 6172.46,1085.71 C6206.89,1085.71 6242.97,1057.58 6242.97,1028.45 C6242.97,1008.92 6226.42,997.998 6205.89,997.998 C6173.79,997.998 6135.39,1025.14 6135.39,1055.59"/>
<path class="Note" d="M5900.74,1014.25 C5900.74,1028.49 5911.01,1044.37 5937.82,1044.37 C5972.24,1044.37 6008.32,1016.24 6008.32,987.112 C6008.32,967.583 5991.77,956.66 5971.25,956.66 C5939.14,956.66 5900.74,983.802 5900.74,1014.25"/>
<path class="Note" d="M4906.22,2502.44 C4906.22,2516.68 4916.49,2532.56 4943.3,2532.56 C4977.72,2532.56 5013.8,2504.43 5013.8,2475.3 C5013.8,2455.77 4997.25,2444.85 4976.73,2444.85 C4944.62,2444.85 4906.22,2471.99 4906.22,2502.44"/>
<path class="Note" d="M3979.84,1014.25 C3979.84,1028.49 3990.1,1044.37 4016.91,1044.37 C4051.34,1044.37 4087.42,1016.24 4087.42,987.112 C4087.42,967.583 4070.87,956.66 4050.34,956.66 C4018.24,956.66 3979.84,983.802 3979.84,1014.25"/>
<path class="Note" d="M5119.29,2585.12 C5119.29,2599.35 5129.55,2615.24 5156.36,2615.24 C5190.79,2615.24 5226.86,2587.11 5226.86,2557.98 C5226.86,2538.45 5210.31,2527.53 5189.79,2527.53 C5157.69,2527.53 5119.29,2554.67 5119.29,2585.12"/>
<path class="Note" d="M5666.1,1055.59 C5666.1,1069.83 5676.36,1085.71 5703.17,1085.71 C5737.59,1085.71 5773.67,1057.58 5773.67,1028.45 C5773.67,1008.92 5757.12,997.998 5736.6,997.998 C5704.49,997.998 5666.1,1025.14 5666.1,1055.59"/>
<path class="Note" d="M5431.45,1055.59 C5431.45,1069.83 5441.71,1085.71 5468.52,1085.71 C5502.95,1085.71 5539.03,1057.58 5539.03,1028.45 C5539.03,1008.92 5522.48,997.998 5501.96,997.998 C5469.85,997.998 5431.45,1025.14 5431.45,1055.59"/>
<path class="Note" d="M5196.81,1096.93 C5196.81,1111.16 5207.07,1127.05 5233.88,1127.05 C5268.3,1127.05 5304.38,1098.92 5304.38,1069.79 C5304.38,1050.26 5287.83,1039.34 5267.31,1039.34 C5235.2,1039.34 5196.81,1066.48 5196.81,1096.93"/>
<path class="Note" d="M6108.22,2543.78 C6108.22,2558.01 6118.48,2573.9 6145.29,2573.9 C6179.72,2573.9 6215.8,2545.77 6215.8,2516.64 C6215.8,2497.11 6199.25,2486.19 6178.73,2486.19 C6146.62,2486.19 6108.22,2513.33 6108.22,2543.78"/>
<path class="Clef" d="M909.689,2019.33 C903.069,2020.65 896.78,2021.31 890.491,2021.31 C843.158,2021.31 802.776,1988.21 802.776,1938.23 C802.776,1897.85 831.242,1861.77 860.37,1836.61 C865.997,1831.65 871.293,1827.01 876.258,1822.05 C879.237,1839.92 881.554,1855.48 883.871,1869.05 C853.75,1877.99 833.228,1909.76 833.228,1940.88 C833.228,1964.05 851.433,1995.82 877.913,1995.82 C880.561,1995.82 883.54,1994.5 883.54,1991.52 C883.54,1988.54 880.23,1986.89 876.258,1984.24 C863.349,1976.3 856.067,1967.69 856.067,1951.47 C856.067,1931.28 870.962,1915.06 890.491,1910.43 L909.689,2019.33 M880.561,1679.06 C883.54,1665.82 898.766,1631.06 915.978,1631.06 C920.943,1631.06 928.887,1647.28 928.887,1670.12 C928.887,1704.54 903.4,1730.36 880.561,1752.87 C878.575,1739.63 876.92,1726.72 876.92,1712.82 C876.92,1700.57 877.913,1689.32 880.561,1679.06 M956.691,1958.09 C956.691,1981.59 947.092,2005.75 923.591,2015.35 C916.64,1975.63 907.703,1923 905.386,1908.44 C935.176,1908.44 956.691,1928.63 956.691,1958.09 M811.051,2120.94 C811.051,2142.79 827.932,2171.59 872.617,2171.59 C888.174,2171.59 901.745,2167.61 913.661,2160.33 C931.535,2147.75 936.169,2125.91 936.169,2105.05 C936.169,2092.15 934.183,2077.25 930.873,2058.38 C929.88,2051.76 927.894,2041.83 925.908,2028.92 C958.346,2018.33 982.509,1984.57 982.509,1950.48 C982.509,1900.5 947.092,1866.73 898.766,1866.73 C895.456,1846.87 892.146,1827.35 889.167,1808.81 C924.253,1772.07 948.416,1730.69 948.416,1678.06 C948.416,1647.94 939.148,1623.45 933.852,1611.53 C925.908,1594.65 916.309,1583.07 910.351,1583.07 C908.034,1583.07 897.773,1587.04 886.85,1599.95 C865.666,1625.1 859.708,1667.47 859.708,1695.28 C859.708,1713.15 861.363,1729.37 866.99,1766.44 C866.659,1766.77 849.447,1784.32 842.496,1789.94 C812.375,1818.08 770.669,1858.13 770.669,1924.33 C770.669,1986.23 824.622,2034.88 886.188,2034.88 C895.787,2034.88 904.724,2033.89 912.337,2032.57 C918.626,2064.34 922.267,2087.51 922.267,2105.05 C922.267,2139.48 904.724,2157.68 871.293,2157.68 C863.349,2157.68 856.398,2156.03 855.736,2156.03 C855.405,2155.7 854.743,2155.37 854.743,2155.04 C854.743,2154.37 855.405,2154.04 856.398,2153.71 C871.955,2151.39 887.512,2138.15 887.512,2116.97 C887.512,2099.1 873.941,2080.23 849.116,2080.23 C825.946,2080.23 811.051,2099.1 811.051,2120.94"/>
<path class="Clef" d="M909.689,2887.44 C903.069,2888.76 896.78,2889.42 890.491,2889.42 C843.158,2889.42 802.776,2856.32 802.776,2806.34 C802.776,2765.96 831.242,2729.88 860.37,2704.72 C865.997,2699.76 871.293,2695.12 876.258,2690.16 C879.237,2708.03 881.554,2723.59 883.871,2737.16 C853.75,2746.1 833.228,2777.87 833.228,2808.99 C833.228,2832.16 851.433,2863.93 877.913,2863.93 C880.561,2863.93 883.54,2862.61 883.54,2859.63 C883.54,2856.65 880.23,2855 876.258,2852.35 C863.349,2844.41 856.067,2835.8 856.067,2819.58 C856.067,2799.39 870.962,2783.17 890.491,2778.54 L909.689,2887.44 M880.561,2547.17 C883.54,2533.93 898.766,2499.17 915.978,2499.17 C920.943,2499.17 928.887,2515.39 928.887,2538.23 C928.887,2572.65 903.4,2598.47 880.561,2620.98 C878.575,2607.74 876.92,2594.83 876.92,2580.93 C876.92,2568.68 877.913,2557.43 880.561,2547.17 M956.691,2826.2 C956.691,2849.7 947.092,2873.86 923.591,2883.46 C916.64,2843.74 907.703,2791.11 905.386,2776.55 C935.176,2776.55 956.691,2796.74 956.691,2826.2 M811.051,2989.05 C811.051,3010.9 827.932,3039.7 872.617,3039.7 C888.174,3039.7 901.745,3035.72 913.661,3028.44 C931.535,3015.86 936.169,2994.02 936.169,2973.16 C936.169,2960.26 934.183,2945.36 930.873,2926.49 C929.88,2919.87 927.894,2909.94 925.908,2897.03 C958.346,2886.44 982.509,2852.68 982.509,2818.59 C982.509,2768.61 947.092,2734.84 898.766,2734.84 C895.456,2714.98 892.146,2695.46 889.167,2676.92 C924.253,2640.18 948.416,2598.8 948.416,2546.17 C948.416,2516.05 939.148,2491.56 933.852,2479.64 C925.908,2462.76 916.309,2451.18 910.351,2451.18 C908.034,2451.18 897.773,2455.15 886.85,2468.06 C865.666,2493.21 859.708,2535.58 859.708,2563.39 C859.708,2581.26 861.363,2597.48 866.99,2634.55 C866.659,2634.88 849.447,2652.43 842.496,2658.05 C812.375,2686.19 770.669,2726.24 770.669,2792.44 C770.669,2854.34 824.622,2902.99 886.188,2902.99 C895.787,2902.99 904.724,2902 912.337,2900.68 C918.626,2932.45 922.267,2955.62 922.267,2973.16 C922.267,3007.59 904.724,3025.79 871.293,3025.79 C863.349,3025.79 856.398,3024.14 855.736,3024.14 C855.405,3023.81 854.743,3023.48 854.743,3023.15 C854.743,3022.48 855.405,3022.15 856.398,3021.82 C871.955,3019.5 887.512,3006.26 887.512,2985.08 C887.512,2967.21 873.941,2948.34 849.116,2948.34 C825.946,2948.34 811.051,2967.21 811.051,2989.05"/>
<path class="Clef" d="M909.689,1151.21 C903.069,1152.54 896.78,1153.2 890.491,1153.2 C843.158,1153.2 802.776,1120.1 802.776,1070.12 C802.776,1029.74 831.242,993.659 860.37,968.503 C865.997,963.538 871.293,958.904 876.258,953.939 C879.237,971.813 881.554,987.37 883.871,1000.94 C853.75,1009.88 833.228,1041.65 833.228,1072.77 C833.228,1095.94 851.433,1127.71 877.913,1127.71 C880.561,1127.71 883.54,1126.39 883.54,1123.41 C883.54,1120.43 880.23,1118.78 876.258,1116.13 C863.349,1108.18 856.067,1099.58 856.067,1083.36 C856.067,1063.17 870.962,1046.95 890.491,1042.32 L909.689,1151.21 M880.561,810.947 C883.54,797.707 898.766,762.952 915.978,762.952 C920.943,762.952 928.887,779.171 928.887,802.01 C928.887,836.434 903.4,862.252 880.561,884.76 C878.575,871.52 876.92,858.611 876.92,844.709 C876.92,832.462 877.913,821.208 880.561,810.947 M956.691,1089.98 C956.691,1113.48 947.092,1137.64 923.591,1147.24 C916.64,1107.52 907.703,1054.89 905.386,1040.33 C935.176,1040.33 956.691,1060.52 956.691,1089.98 M811.051,1252.83 C811.051,1274.68 827.932,1303.47 872.617,1303.47 C888.174,1303.47 901.745,1299.5 913.661,1292.22 C931.535,1279.64 936.169,1257.8 936.169,1236.94 C936.169,1224.03 934.183,1209.14 930.873,1190.27 C929.88,1183.65 927.894,1173.72 925.908,1160.81 C958.346,1150.22 982.509,1116.46 982.509,1082.37 C982.509,1032.39 947.092,998.624 898.766,998.624 C895.456,978.764 892.146,959.235 889.167,940.699 C924.253,903.958 948.416,862.583 948.416,809.954 C948.416,779.833 939.148,755.339 933.852,743.423 C925.908,726.542 916.309,714.957 910.351,714.957 C908.034,714.957 897.773,718.929 886.85,731.838 C865.666,756.994 859.708,799.362 859.708,827.166 C859.708,845.04 861.363,861.259 866.99,898.331 C866.659,898.662 849.447,916.205 842.496,921.832 C812.375,949.967 770.669,990.018 770.669,1056.22 C770.669,1118.11 824.622,1166.77 886.188,1166.77 C895.787,1166.77 904.724,1165.78 912.337,1164.45 C918.626,1196.23 922.267,1219.4 922.267,1236.94 C922.267,1271.37 904.724,1289.57 871.293,1289.57 C863.349,1289.57 856.398,1287.92 855.736,1287.92 C855.405,1287.59 854.743,1287.26 854.743,1286.92 C854.743,1286.26 855.405,1285.93 856.398,1285.6 C871.955,1283.28 887.512,1270.04 887.512,1248.86 C887.512,1230.99 873.941,1212.12 849.116,1212.12 C825.946,1212.12 811.051,1230.99 811.051,1252.83"/>
<path class="KeySig" d="M1070.17,1678.61 L1099.63,1672.66 L1099.63,1727.27 L1070.17,1733.56 L1070.17,1678.61 M1121.48,1668.35 C1123.47,1668.02 1125.12,1665.7 1125.12,1663.72 L1125.12,1644.19 C1125.12,1641.54 1123.13,1639.56 1120.49,1639.56 L1119.82,1639.56 L1108.9,1641.87 L1108.9,1592.55 L1099.63,1592.55 L1099.63,1643.86 L1070.17,1649.82 L1070.17,1603.15 L1060.91,1603.15 L1060.91,1651.8 L1048,1654.45 C1046.01,1654.78 1044.36,1657.1 1044.36,1659.08 L1044.36,1678.28 C1044.36,1680.93 1046.34,1682.92 1048.99,1682.92 L1049.98,1682.92 L1060.91,1680.6 L1060.91,1735.21 L1048,1737.86 C1046.01,1738.19 1044.36,1740.51 1044.36,1742.5 L1044.36,1761.69 C1044.36,1764.34 1046.34,1766.33 1048.99,1766.33 L1049.98,1766.33 L1060.91,1764.01 L1060.91,1813.33 L1070.17,1813.33 L1070.17,1762.03 L1099.63,1756.07 L1099.63,1802.74 L1108.9,1802.74 L1108.9,1754.08 L1121.48,1751.76 C1123.47,1751.43 1125.12,1749.12 1125.12,1747.13 L1125.12,1727.6 C1125.12,1724.95 1123.13,1722.97 1120.49,1722.97 L1119.82,1722.97 L1108.9,1725.28 L1108.9,1670.67 L1121.48,1668.35 "/>
<path class="KeySig" d="M1160.78,1802.63 L1190.24,1796.67 L1190.24,1851.29 L1160.78,1857.58 L1160.78,1802.63 M1212.09,1792.37 C1214.08,1792.04 1215.73,1789.72 1215.73,1787.73 L1215.73,1768.21 C1215.73,1765.56 1213.74,1763.57 1211.1,1763.57 L1210.43,1763.57 L1199.51,1765.89 L1199.51,1716.57 L1190.24,1716.57 L1190.24,1767.87 L1160.78,1773.83 L1160.78,1727.16 L1151.52,1727.16 L1151.52,1775.82 L1138.61,1778.47 C1136.62,1778.8 1134.97,1781.11 1134.97,1783.1 L1134.97,1802.3 C1134.97,1804.95 1136.95,1806.93 1139.6,1806.93 L1140.59,1806.93 L1151.52,1804.62 L1151.52,1859.23 L1138.61,1861.88 C1136.62,1862.21 1134.97,1864.53 1134.97,1866.51 L1134.97,1885.71 C1134.97,1888.36 1136.95,1890.34 1139.6,1890.34 L1140.59,1890.34 L1151.52,1888.03 L1151.52,1937.35 L1160.78,1937.35 L1160.78,1886.04 L1190.24,1880.08 L1190.24,1926.75 L1199.51,1926.75 L1199.51,1878.1 L1212.09,1875.78 C1214.08,1875.45 1215.73,1873.13 1215.73,1871.15 L1215.73,1851.62 C1215.73,1848.97 1213.74,1846.98 1211.1,1846.98 L1210.43,1846.98 L1199.51,1849.3 L1199.51,1794.69 L1212.09,1792.37 "/>
<path class="KeySig" d="M1070.17,2546.72 L1099.63,2540.77 L1099.63,2595.38 L1070.17,2601.67 L1070.17,2546.72 M1121.48,2536.46 C1123.47,2536.13 1125.12,2533.81 1125.12,2531.83 L1125.12,2512.3 C1125.12,2509.65 1123.13,2507.67 1120.49,2507.67 L1119.82,2507.67 L1108.9,2509.98 L1108.9,2460.66 L1099.63,2460.66 L1099.63,2511.97 L1070.17,2517.93 L1070.17,2471.26 L1060.91,2471.26 L1060.91,2519.91 L1048,2522.56 C1046.01,2522.89 1044.36,2525.21 1044.36,2527.19 L1044.36,2546.39 C1044.36,2549.04 1046.34,2551.03 1048.99,2551.03 L1049.98,2551.03 L1060.91,2548.71 L1060.91,2603.32 L1048,2605.97 C1046.01,2606.3 1044.36,2608.62 1044.36,2610.61 L1044.36,2629.8 C1044.36,2632.45 1046.34,2634.44 1048.99,2634.44 L1049.98,2634.44 L1060.91,2632.12 L1060.91,2681.44 L1070.17,2681.44 L1070.17,2630.14 L1099.63,2624.18 L1099.63,2670.85 L1108.9,2670.85 L1108.9,2622.19 L1121.48,2619.87 C1123.47,2619.54 1125.12,2617.23 1125.12,2615.24 L1125.12,2595.71 C1125.12,2593.06 1123.13,2591.08 1120.49,2591.08 L1119.82,2591.08 L1108.9,2593.39 L1108.9,2538.78 L1121.48,2536.46 "/>
<path class="KeySig" d="M1160.78,2670.74 L1190.24,2664.78 L1190.24,2719.4 L1160.78,2725.69 L1160.78,2670.74 M1212.09,2660.48 C1214.08,2660.15 1215.73,2657.83 1215.73,2655.84 L1215.73,2636.32 C1215.73,2633.67 1213.74,2631.68 1211.1,2631.68 L1210.43,2631.68 L1199.51,2634 L1199.51,2584.68 L1190.24,2584.68 L1190.24,2635.98 L1160.78,2641.94 L1160.78,2595.27 L1151.52,2595.27 L1151.52,2643.93 L1138.61,2646.58 C1136.62,2646.91 1134.97,2649.22 1134.97,2651.21 L1134.97,2670.41 C1134.97,2673.06 1136.95,2675.04 1139.6,2675.04 L1140.59,2675.04 L1151.52,2672.73 L1151.52,2727.34 L1138.61,2729.99 C1136.62,2730.32 1134.97,2732.64 1134.97,2734.62 L1134.97,2753.82 C1134.97,2756.47 1136.95,2758.45 1139.6,2758.45 L1140.59,2758.45 L1151.52,2756.14 L1151.52,2805.46 L1160.78,2805.46 L1160.78,2754.15 L1190.24,2748.19 L1190.24,2794.86 L1199.51,2794.86 L1199.51,2746.21 L1212.09,2743.89 C1214.08,2743.56 1215.73,2741.24 1215.73,2739.26 L1215.73,2719.73 C1215.73,2717.08 1213.74,2715.09 1211.1,2715.09 L1210.43,2715.09 L1199.51,2717.41 L1199.51,2662.8 L1212.09,2660.48 "/>
<path class="KeySig" d="M1070.17,810.503 L1099.63,804.545 L1099.63,859.16 L1070.17,865.449 L1070.17,810.503 M1121.48,800.242 C1123.47,799.911 1125.12,797.594 1125.12,795.608 L1125.12,776.079 C1125.12,773.431 1123.13,771.445 1120.49,771.445 L1119.82,771.445 L1108.9,773.762 L1108.9,724.443 L1099.63,724.443 L1099.63,775.748 L1070.17,781.706 L1070.17,735.035 L1060.91,735.035 L1060.91,783.692 L1048,786.34 C1046.01,786.671 1044.36,788.988 1044.36,790.974 L1044.36,810.172 C1044.36,812.82 1046.34,814.806 1048.99,814.806 L1049.98,814.806 L1060.91,812.489 L1060.91,867.104 L1048,869.752 C1046.01,870.083 1044.36,872.4 1044.36,874.386 L1044.36,893.584 C1044.36,896.232 1046.34,898.218 1048.99,898.218 L1049.98,898.218 L1060.91,895.901 L1060.91,945.22 L1070.17,945.22 L1070.17,893.915 L1099.63,887.957 L1099.63,934.628 L1108.9,934.628 L1108.9,885.971 L1121.48,883.654 C1123.47,883.323 1125.12,881.006 1125.12,879.02 L1125.12,859.491 C1125.12,856.843 1123.13,854.857 1120.49,854.857 L1119.82,854.857 L1108.9,857.174 L1108.9,802.559 L1121.48,800.242 "/>
<path class="KeySig" d="M1160.78,934.519 L1190.24,928.561 L1190.24,983.176 L1160.78,989.465 L1160.78,934.519 M1212.09,924.258 C1214.08,923.927 1215.73,921.61 1215.73,919.624 L1215.73,900.095 C1215.73,897.447 1213.74,895.461 1211.1,895.461 L1210.43,895.461 L1199.51,897.778 L1199.51,848.459 L1190.24,848.459 L1190.24,899.764 L1160.78,905.722 L1160.78,859.051 L1151.52,859.051 L1151.52,907.708 L1138.61,910.356 C1136.62,910.687 1134.97,913.004 1134.97,914.99 L1134.97,934.188 C1134.97,936.836 1136.95,938.822 1139.6,938.822 L1140.59,938.822 L1151.52,936.505 L1151.52,991.12 L1138.61,993.768 C1136.62,994.099 1134.97,996.416 1134.97,998.402 L1134.97,1017.6 C1134.97,1020.25 1136.95,1022.23 1139.6,1022.23 L1140.59,1022.23 L1151.52,1019.92 L1151.52,1069.24 L1160.78,1069.24 L1160.78,1017.93 L1190.24,1011.97 L1190.24,1058.64 L1199.51,1058.64 L1199.51,1009.99 L1212.09,1007.67 C1214.08,1007.34 1215.73,1005.02 1215.73,1003.04 L1215.73,983.507 C1215.73,980.859 1213.74,978.873 1211.1,978.873 L1210.43,978.873 L1199.51,981.19 L1199.51,926.575 L1212.09,924.258 "/>
<path class="TimeSig" d="M1363.89,986.345 C1352.97,986.345 1344.03,971.45 1344.03,952.914 C1344.03,934.378 1352.97,919.152 1363.89,919.152 C1374.82,919.152 1384.09,934.378 1384.09,952.914 C1384.09,971.45 1374.82,986.345 1363.89,986.345 M1376.14,903.595 C1355.95,903.595 1348.67,909.553 1344.03,914.518 C1343.04,907.567 1342.38,902.271 1342.38,896.975 C1342.38,878.108 1349,853.614 1372.17,853.614 C1380.44,853.614 1385.41,856.262 1388.72,859.903 C1381.77,862.882 1376.14,871.819 1376.14,879.432 C1376.14,891.348 1385.41,900.616 1397.33,900.616 C1409.24,900.616 1418.84,891.348 1418.84,879.432 L1418.84,878.439 C1418.84,875.46 1418.18,870.495 1416.85,867.847 C1412.55,855.931 1398.65,838.388 1365.55,838.388 C1335.76,838.388 1314.24,866.854 1307.62,882.08 C1304.31,890.024 1299.35,906.243 1299.35,924.779 C1299.35,944.97 1304.98,967.809 1324.51,985.021 C1343.7,999.585 1355.95,1000.25 1367.54,1000.25 C1379.12,1000.25 1422.48,986.676 1422.48,948.28 C1422.48,915.842 1396.99,903.595 1376.14,903.595"/>
<path class="TimeSig" d="M1382.11,1067.15 C1359.6,1059.87 1334.78,1048.95 1334.78,1034.05 C1334.78,1021.14 1346.69,1015.85 1360.92,1015.85 C1381.45,1015.85 1395.35,1025.45 1395.35,1040.67 C1395.35,1056.56 1388.07,1064.17 1382.11,1067.15 M1360.92,1145.6 C1339.74,1145.6 1321.54,1134.01 1321.54,1115.48 C1321.54,1093.3 1338.75,1088 1338.75,1088 C1361.26,1095.62 1393.36,1106.87 1393.36,1125.08 C1393.36,1134.01 1381.78,1145.6 1360.92,1145.6 M1400.64,1076.09 C1411.57,1067.81 1419.18,1057.22 1419.18,1043.98 C1419.18,1020.15 1393.03,1000.62 1360.92,1000.62 C1328.82,1000.62 1302.67,1020.15 1302.67,1043.98 C1302.67,1057.22 1305.98,1069.14 1321.54,1079.07 C1306.64,1087.67 1298.37,1099.92 1298.37,1115.81 C1298.37,1142.62 1326.5,1164.13 1360.92,1164.13 C1395.35,1164.13 1423.48,1142.62 1423.48,1115.81 C1423.48,1099.92 1417.86,1085.03 1400.64,1076.09"/>
<path class="Beam" fill-rule="evenodd" d="M5061.37,834.92 L5538.93,793.581 L5538.93,835.075 L5061.37,876.413 L5061.37,834.92 "/>
<path class="Beam" fill-rule="evenodd" d="M6920.25,1930.47 L7401.29,1930.47 L7401.29,1971.81 L6920.25,1971.81 L6920.25,1930.47 "/>
<path class="Beam" fill-rule="evenodd" d="M6427.82,2798.39 L6578.13,2777.72 L6578.13,2819.44 L6427.82,2840.11 L6427.82,2798.39 "/>
<path class="Beam" fill-rule="evenodd" d="M6427.82,2736.38 L6578.13,2715.71 L6578.13,2757.44 L6427.82,2778.11 L6427.82,2736.38 "/>
<path class="Beam" fill-rule="evenodd" d="M5765.31,752.32 L6242.87,752.32 L6242.87,793.659 L5765.31,793.659 L5765.31,752.32 "/>
<path class="Beam" fill-rule="evenodd" d="M4693.16,2798.58 L5127.56,2798.58 L5127.56,2839.92 L4693.16,2839.92 L4693.16,2798.58 "/>
<path class="Beam" fill-rule="evenodd" d="M3609.76,752.32 L4087.32,752.32 L4087.32,793.659 L3609.76,793.659 L3609.76,752.32 "/>
<path class="Beam" fill-rule="evenodd" d="M4053.96,2860.56 L4488.36,2881.23 L4488.36,2922.62 L4053.96,2901.95 L4053.96,2860.56 "/>
<path class="Beam" fill-rule="evenodd" d="M7286.41,1062.2 L7451.11,1041.53 L7451.11,1083.19 L7286.41,1103.86 L7286.41,1062.2 "/>
<path class="Beam" fill-rule="evenodd" d="M7286.41,1000.19 L7451.11,979.52 L7451.11,1021.18 L7286.41,1041.85 L7286.41,1000.19 "/>
<path class="Beam" fill-rule="evenodd" d="M3562.18,2798.39 L3712.49,2777.72 L3712.49,2819.44 L3562.18,2840.11 L3562.18,2798.39 "/>
<path class="Beam" fill-rule="evenodd" d="M3562.18,2736.38 L3712.49,2715.71 L3712.49,2757.44 L3562.18,2778.11 L3562.18,2736.38 "/>
<path class="Beam" fill-rule="evenodd" d="M6919.6,2777.89 L7354,2798.56 L7354,2839.94 L6919.6,2819.27 L6919.6,2777.89 "/>
<path class="Beam" fill-rule="evenodd" d="M8496.52,1248.31 L8974.08,1206.97 L8974.08,1248.46 L8496.52,1289.8 L8496.52,1248.31 "/>
<path class="Beam" fill-rule="evenodd" d="M2688.38,1248.31 L3165.94,1206.97 L3165.94,1248.46 L2688.38,1289.8 L2688.38,1248.31 "/>
<path class="Beam" fill-rule="evenodd" d="M2061.57,2860.56 L2495.97,2881.23 L2495.97,2922.62 L2061.57,2901.95 L2061.57,2860.56 "/>
<path class="Beam" fill-rule="evenodd" d="M7792.58,1227.69 L8270.14,1248.36 L8270.14,1289.74 L7792.58,1269.07 L7792.58,1227.69 "/>
<path class="Beam" fill-rule="evenodd" d="M6211.1,1992.46 L6692.13,2013.13 L6692.13,2054.5 L6211.1,2033.84 L6211.1,1992.46 "/>
<path class="Beam" fill-rule="evenodd" d="M1521.59,1620.41 L2002.63,1641.08 L2002.63,1682.46 L1521.59,1661.79 L1521.59,1620.41 "/>
<path class="Beam" fill-rule="evenodd" d="M1422.38,2860.56 L1856.78,2881.23 L1856.78,2922.62 L1422.38,2901.95 L1422.38,2860.56 "/>
<path class="Beam" fill-rule="evenodd" d="M7558.8,2860.49 L7993.2,2901.83 L7993.2,2943.36 L7558.8,2902.02 L7558.8,2860.49 "/>
<path class="Beam" fill-rule="evenodd" d="M2486.11,1930.31 L2651.96,1909.64 L2651.96,1951.3 L2486.11,1971.97 L2486.11,1930.31 "/>
<path class="Beam" fill-rule="evenodd" d="M2486.11,1868.3 L2651.96,1847.63 L2651.96,1889.29 L2486.11,1909.96 L2486.11,1868.3 "/>
<path class="Beam" fill-rule="evenodd" d="M8811.36,1930.31 L8977.22,1909.64 L8977.22,1951.3 L8811.36,1971.97 L8811.36,1930.31 "/>
<path class="Beam" fill-rule="evenodd" d="M8811.36,1868.3 L8977.22,1847.63 L8977.22,1889.29 L8811.36,1909.96 L8811.36,1868.3 "/>
<path class="Beam" fill-rule="evenodd" d="M2993.43,1909.78 L3474.47,1930.45 L3474.47,1971.83 L2993.43,1951.16 L2993.43,1909.78 "/>
<path class="Beam" fill-rule="evenodd" d="M7747.63,2033.82 L8228.67,2033.82 L8228.67,2075.15 L7747.63,2075.15 L7747.63,2033.82 "/>
<path class="Beam" fill-rule="evenodd" d="M2083.66,834.92 L2561.22,793.581 L2561.22,835.075 L2083.66,876.413 L2083.66,834.92 "/>
<path class="Beam" fill-rule="evenodd" d="M3702.59,1992.4 L4183.62,2033.74 L4183.62,2075.23 L3702.59,2033.89 L3702.59,1992.4 "/>
<path class="Beam" fill-rule="evenodd" d="M5703.77,1930.31 L5869.63,1909.64 L5869.63,1951.3 L5703.77,1971.97 L5703.77,1930.31 "/>
<path class="Beam" fill-rule="evenodd" d="M5703.77,1868.3 L5869.63,1847.63 L5869.63,1889.29 L5703.77,1909.96 L5703.77,1868.3 "/>
<path class="Beam" fill-rule="evenodd" d="M5469.03,2901.93 L5903.43,2901.93 L5903.43,2943.27 L5469.03,2943.27 L5469.03,2901.93 "/>
<path class="NoteDot" d="M8483.5,2612.56 C8483.5,2621.82 8490.78,2629.11 8500.05,2629.11 C8509.32,2629.11 8516.6,2621.82 8516.6,2612.56 C8516.6,2603.29 8509.32,2596.01 8500.05,2596.01 C8490.78,2596.01 8483.5,2603.29 8483.5,2612.56"/>
<path class="NoteDot" d="M4678.8,1744.45 C4678.8,1753.71 4686.08,1761 4695.35,1761 C4704.62,1761 4711.9,1753.71 4711.9,1744.45 C4711.9,1735.18 4704.62,1727.9 4695.35,1727.9 C4686.08,1727.9 4678.8,1735.18 4678.8,1744.45"/>
<path class="NoteDot" d="M2986.27,2529.88 C2986.27,2539.15 2993.55,2546.43 3002.82,2546.43 C3012.09,2546.43 3019.37,2539.15 3019.37,2529.88 C3019.37,2520.61 3012.09,2513.33 3002.82,2513.33 C2993.55,2513.33 2986.27,2520.61 2986.27,2529.88"/>
<path class="NoteDot" d="M6637.1,793.659 C6637.1,802.927 6644.38,810.209 6653.65,810.209 C6662.91,810.209 6670.2,802.927 6670.2,793.659 C6670.2,784.391 6662.91,777.109 6653.65,777.109 C6644.38,777.109 6637.1,784.391 6637.1,793.659"/>
</svg>
