<?xml version="1.0" encoding="utf-8"?>
<svg xmlns="http://www.w3.org/2000/svg" xmlns:svg="http://www.w3.org/2000/svg" version="1.1" viewBox="0 0 681 117">
	<title>A score 2 staves long in 4/4 time, in the key of A Minor.</title>
	<path d="m184.673 2.985 18.637 1.654v3.323l-18.637-1.655zm393.382 24.26a1.5 1.5 0 0 1-.16-.184l-3.047-3.763a.3.3 0 0 1-.053-.16c0-.079.027-.185.053-.238l2.704-4.08a.5.5 0 0 0 .052-.186v-.238a.3.3 0 0 0-.079-.212l-4.293-5.804s-.106-.159-.265-.159c-.08 0-.132.027-.211.08a.32.32 0 0 0-.133.265c0 .159.079.291.079.291l2.014 2.756q.08.12.08.318a.63.63 0 0 1-.08.318l-2.676 4.08a.6.6 0 0 0-.053.213v.238c0 .08.026.16.08.212l2.967 3.684a2.7 2.7 0 0 0-.662-.08c-1.351 0-2.411 1.113-2.411 2.465 0 .37.079.742.291 1.033.556.848 2.543 3.365 2.543 3.365s.133.16.318.16c.054 0 .107 0 .16-.054.132-.106.185-.212.185-.317 0-.107-.053-.186-.08-.239-.08-.133-.927-1.67-.927-1.67s-.186-.37-.186-.848c0-.848.637-1.537 1.485-1.537.344 0 .635.107.847.239l1.034.663s.106.052.212.052a.3.3 0 0 0 .265-.132c.053-.106.08-.159.08-.238 0-.08-.027-.133-.08-.212zm-241.28 0c-.026-.027-.08-.08-.16-.185l-3.046-3.763a.3.3 0 0 1-.054-.16c0-.079.027-.185.054-.238l2.703-4.08a.5.5 0 0 0 .052-.186v-.238a.3.3 0 0 0-.079-.212l-4.293-5.804s-.106-.159-.265-.159c-.08 0-.132.027-.212.08a.32.32 0 0 0-.133.265c0 .159.08.291.08.291l2.014 2.756q.08.12.08.318a.63.63 0 0 1-.08.318l-2.676 4.08a.6.6 0 0 0-.053.213v.238c0 .08.026.16.08.212l2.967 3.684a2.7 2.7 0 0 0-.662-.08c-1.352 0-2.411 1.113-2.411 2.465 0 .37.079.742.29 1.033.557.848 2.544 3.365 2.544 3.365s.133.16.319.16c.053 0 .106 0 .158-.054.133-.106.186-.212.186-.317 0-.107-.053-.186-.08-.239-.08-.133-.927-1.67-.927-1.67s-.186-.37-.186-.848c0-.848.637-1.537 1.484-1.537.345 0 .636.107.848.239l1.034.663s.106.052.212.052a.29.29 0 0 0 .265-.132c.053-.106.08-.159.08-.238 0-.08-.027-.133-.08-.212zM37.141 18.104c-.662.424-1.14 1.192-1.14 2.04 0 .106 0 .212.027.318.132 1.087 1.007 1.935 2.093 2.067h.292a2.375 2.375 0 0 0 2.384-2.385v-.159c0-.106-.026-.291-.052-.397-.239-1.14-1.272-3.577-5.777-3.577-5.777 0-6.439 4.796-6.439 6.518 0 3.154.397 7.101 7.022 7.101 2.623 0 4.664-1.536 4.77-4.371 0-.133-.08-.213-.213-.213h-.344c-.106 0-.212.107-.212.213-.106 2.199-1.67 3.524-4.001 3.524-2.306 0-3.419-1.245-3.419-3.577v-5.062c0-1.483.583-3.18 2.942-3.18 1.245 0 1.802.451 2.093.902.026.053.026.08.026.132 0 .027 0 .08-.052.106m-21.048 86.317a7.7 7.7 0 0 1-1.537.16c-3.789 0-7.022-2.65-7.022-6.652 0-3.233 2.28-6.12 4.611-8.135.45-.398.875-.769 1.272-1.166.238 1.43.424 2.677.61 3.763-2.412.715-4.055 3.259-4.055 5.75 0 1.854 1.458 4.398 3.577 4.398.212 0 .451-.105.451-.344 0-.238-.265-.371-.583-.583-1.033-.636-1.616-1.324-1.616-2.623 0-1.616 1.192-2.915 2.755-3.286zm-2.332-27.24c.239-1.06 1.458-3.842 2.836-3.842.397 0 1.033 1.298 1.033 3.127 0 2.755-2.04 4.822-3.869 6.624-.159-1.06-.291-2.093-.291-3.206 0-.98.08-1.882.291-2.703m6.095 22.338c0 1.881-.768 3.815-2.65 4.584a882 882 0 0 1-1.457-8.559c2.385 0 4.107 1.617 4.107 3.975m-11.66 13.037c0 1.748 1.352 4.054 4.93 4.054 1.245 0 2.331-.318 3.285-.9 1.431-1.008 1.802-2.757 1.802-4.426 0-1.034-.159-2.226-.424-3.736-.08-.53-.238-1.325-.397-2.359 2.597-.847 4.53-3.55 4.53-6.28 0-4.001-2.834-6.704-6.703-6.704-.265-1.59-.53-3.153-.769-4.637 2.81-2.942 4.744-6.253 4.744-10.467 0-2.411-.742-4.372-1.166-5.326-.636-1.351-1.405-2.279-1.882-2.279-.185 0-1.007.319-1.881 1.351-1.696 2.015-2.173 5.406-2.173 7.632 0 1.431.133 2.73.583 5.698-.026.026-1.404 1.43-1.96 1.88-2.412 2.253-5.75 5.459-5.75 10.759 0 4.955 4.318 8.85 9.247 8.85.768 0 1.484-.079 2.093-.185.504 2.544.795 4.399.795 5.803 0 2.755-1.404 4.213-4.08 4.213-.636 0-1.193-.133-1.246-.133-.026-.026-.08-.053-.08-.08 0-.052.054-.078.133-.105 1.246-.185 2.49-1.245 2.49-2.941 0-1.431-1.085-2.941-3.073-2.941-1.855 0-3.047 1.51-3.047 3.259m7.896-77.632a7.7 7.7 0 0 1-1.537.16c-3.789 0-7.022-2.65-7.022-6.651 0-3.234 2.28-6.122 4.611-8.135.45-.398.875-.769 1.272-1.166.238 1.43.424 2.676.61 3.762-2.412.716-4.055 3.26-4.055 5.75 0 1.855 1.458 4.4 3.577 4.4.212 0 .451-.107.451-.345 0-.239-.265-.372-.583-.583-1.033-.636-1.616-1.325-1.616-2.623 0-1.617 1.192-2.915 2.755-3.287zm-2.332-27.24c.239-1.06 1.458-3.842 2.836-3.842.397 0 1.033 1.299 1.033 3.127 0 2.756-2.04 4.823-3.869 6.625-.159-1.06-.291-2.094-.291-3.207 0-.98.08-1.881.291-2.703m6.095 22.339c0 1.881-.768 3.815-2.65 4.584a882 882 0 0 1-1.457-8.559c2.385 0 4.107 1.616 4.107 3.975M8.196 43.06c0 1.748 1.352 4.054 4.93 4.054 1.245 0 2.331-.318 3.285-.901 1.431-1.007 1.802-2.756 1.802-4.425 0-1.034-.159-2.226-.424-3.737-.08-.53-.238-1.325-.397-2.358 2.597-.848 4.53-3.55 4.53-6.28 0-4.001-2.834-6.704-6.703-6.704-.265-1.59-.53-3.153-.769-4.637 2.81-2.942 4.744-6.254 4.744-10.467 0-2.411-.742-4.372-1.166-5.326C17.392.927 16.623 0 16.146 0c-.185 0-1.007.318-1.881 1.351-1.696 2.014-2.173 5.406-2.173 7.632 0 1.43.133 2.73.583 5.697-.026.026-1.404 1.43-1.96 1.881-2.412 2.253-5.75 5.459-5.75 10.758 0 4.956 4.318 8.851 9.247 8.851.768 0 1.484-.08 2.093-.186.504 2.545.795 4.4.795 5.804 0 2.755-1.404 4.213-4.08 4.213-.636 0-1.193-.133-1.246-.133-.026-.026-.08-.053-.08-.08 0-.052.054-.079.133-.105 1.246-.186 2.49-1.246 2.49-2.941 0-1.432-1.085-2.941-3.073-2.941-1.855 0-3.047 1.51-3.047 3.259m30.26 43.778c0 1.14.821 2.41 2.967 2.41 2.757 0 5.645-2.251 5.645-4.583 0-1.564-1.325-2.438-2.968-2.438-2.57 0-5.644 2.173-5.644 4.61m188.39-56.258c0 1.14.822 2.411 2.97 2.411 2.755 0 5.643-2.252 5.643-4.584 0-1.563-1.325-2.438-2.967-2.438-2.571 0-5.645 2.173-5.645 4.611m267.85 60.734a.99.99 0 0 1-1.06-.954c0-1.298 4.451-3.578 5.696-3.578.637 0 1.06.372 1.06.955 0 1.325-4.477 3.577-5.697 3.577m3.657-5.776c-2.57 0-5.644 2.146-5.644 4.61 0 1.14.822 2.411 2.968 2.411 2.756 0 5.644-2.252 5.644-4.584 0-1.563-1.325-2.437-2.968-2.437M282.76 38.364a.99.99 0 0 1-1.06-.955c0-1.298 4.452-3.577 5.697-3.577.636 0 1.06.371 1.06.954 0 1.325-4.478 3.578-5.697 3.578m3.657-5.777c-2.57 0-5.644 2.146-5.644 4.61 0 1.14.821 2.412 2.967 2.412 2.756 0 5.644-2.252 5.644-4.584 0-1.564-1.325-2.438-2.967-2.438m159.62 65.345a.99.99 0 0 1-1.06-.954c0-1.298 4.453-3.578 5.698-3.578.636 0 1.06.372 1.06.955 0 1.325-4.478 3.577-5.697 3.577m3.657-5.777c-2.57 0-5.644 2.147-5.644 4.61 0 1.14.821 2.412 2.967 2.412 2.756 0 5.644-2.253 5.644-4.584 0-1.563-1.325-2.438-2.967-2.438M122.807 23.96c0 1.14.822 2.411 2.968 2.411 2.755 0 5.644-2.252 5.644-4.584 0-1.563-1.325-2.438-2.968-2.438-2.57 0-5.644 2.173-5.644 4.611m432.172 76.115c0 1.14.821 2.412 2.967 2.412 2.756 0 5.644-2.253 5.644-4.584 0-1.564-1.325-2.439-2.967-2.439-2.571 0-5.644 2.174-5.644 4.611M194.706 27.27c0 1.139.821 2.41 2.968 2.41 2.756 0 5.643-2.252 5.643-4.583 0-1.564-1.324-2.438-2.967-2.438-2.57 0-5.644 2.173-5.644 4.61m193.208 70.663a.99.99 0 0 1-1.06-.954c0-1.298 4.452-3.578 5.697-3.578.636 0 1.06.372 1.06.955 0 1.325-4.479 3.577-5.697 3.577m3.657-5.777c-2.57 0-5.645 2.147-5.645 4.61 0 1.14.822 2.412 2.968 2.412 2.756 0 5.645-2.253 5.645-4.584 0-1.563-1.325-2.438-2.968-2.438m-33.929-54.958c0 1.14.821 2.412 2.969 2.412 2.755 0 5.643-2.252 5.643-4.584 0-1.564-1.325-2.438-2.967-2.438-2.57 0-5.645 2.173-5.645 4.61m-4.156 52.95c0 1.14.823 2.411 2.969 2.411 2.755 0 5.644-2.252 5.644-4.584 0-1.563-1.325-2.437-2.968-2.437-2.57 0-5.645 2.172-5.645 4.61m31.119-69.496c0 1.14.82 2.411 2.967 2.411 2.756 0 5.644-2.252 5.644-4.584 0-1.563-1.325-2.438-2.968-2.438-2.57 0-5.643 2.173-5.643 4.61m-63.558 72.806c0 1.14.822 2.412 2.968 2.412 2.756 0 5.644-2.252 5.644-4.584 0-1.564-1.325-2.438-2.968-2.438-2.57 0-5.643 2.173-5.643 4.61m90.518-72.805c0 1.14.822 2.411 2.969 2.411 2.755 0 5.643-2.252 5.643-4.584 0-1.563-1.324-2.438-2.967-2.438-2.57 0-5.645 2.173-5.645 4.61m36.428-6.618c0 1.14.82 2.411 2.967 2.411 2.756 0 5.644-2.252 5.644-4.584 0-1.563-1.325-2.438-2.968-2.438-2.57 0-5.643 2.173-5.643 4.611m139.424 92.662c0 1.14.821 2.412 2.968 2.412 2.756 0 5.644-2.253 5.644-4.585 0-1.564-1.325-2.438-2.968-2.438-2.57 0-5.644 2.173-5.644 4.61m-308.275-9.927c0 1.14.821 2.411 2.967 2.411 2.757 0 5.645-2.253 5.645-4.584 0-1.563-1.325-2.438-2.968-2.438-2.57 0-5.644 2.173-5.644 4.61m195.813-79.424c0 1.14.821 2.412 2.968 2.412 2.755 0 5.643-2.253 5.643-4.584 0-1.564-1.324-2.438-2.967-2.438-2.57 0-5.644 2.173-5.644 4.61m-228.253 82.734c0 1.14.821 2.412 2.968 2.412 2.756 0 5.644-2.253 5.644-4.584 0-1.564-1.325-2.439-2.967-2.439-2.57 0-5.645 2.174-5.645 4.611m257.202-78.258a.99.99 0 0 1-1.06-.954c0-1.299 4.451-3.578 5.697-3.578.637 0 1.06.371 1.06.954 0 1.325-4.478 3.578-5.697 3.578m3.656-5.777c-2.57 0-5.643 2.146-5.643 4.61 0 1.14.82 2.412 2.967 2.412 2.756 0 5.645-2.252 5.645-4.584 0-1.563-1.325-2.438-2.969-2.438m-293.297 90.654c0 1.14.821 2.412 2.968 2.412 2.755 0 5.644-2.253 5.644-4.585 0-1.564-1.325-2.438-2.968-2.438-2.57 0-5.644 2.173-5.644 4.61M95.844 27.27c0 1.139.822 2.41 2.968 2.41 2.757 0 5.645-2.252 5.645-4.583 0-1.564-1.325-2.438-2.968-2.438-2.57 0-5.644 2.173-5.644 4.61m80.886-3.309c0 1.14.822 2.411 2.968 2.411 2.755 0 5.644-2.252 5.644-4.584 0-1.563-1.325-2.438-2.968-2.438-2.57 0-5.644 2.173-5.644 4.611m5.093 76.115c0 1.14.822 2.412 2.968 2.412 2.755 0 5.644-2.253 5.644-4.584 0-1.564-1.325-2.439-2.968-2.439-2.57 0-5.644 2.174-5.644 4.611m417.098-79.424c0 1.14.822 2.411 2.968 2.411 2.756 0 5.645-2.252 5.645-4.584 0-1.563-1.325-2.438-2.969-2.438-2.57 0-5.644 2.173-5.644 4.61m26.963 3.31c0 1.14.821 2.411 2.967 2.411 2.756 0 5.644-2.252 5.644-4.584 0-1.563-1.325-2.438-2.967-2.438-2.571 0-5.644 2.173-5.644 4.611m26.961-3.31c0 1.14.822 2.412 2.969 2.412 2.755 0 5.644-2.252 5.644-4.584 0-1.563-1.325-2.438-2.968-2.438-2.57 0-5.645 2.173-5.645 4.61m-517.07 76.116c0 1.14.821 2.411 2.968 2.411 2.755 0 5.644-2.253 5.644-4.584 0-1.563-1.325-2.438-2.968-2.438-2.57 0-5.644 2.173-5.644 4.61m-81.75-59.568c0 1.14.821 2.412 2.967 2.412 2.756 0 5.644-2.252 5.644-4.584 0-1.564-1.325-2.438-2.967-2.438-2.571 0-5.644 2.173-5.644 4.61m49.31 46.331c0 1.14.822 2.412 2.968 2.412 2.755 0 5.644-2.253 5.644-4.585 0-1.563-1.325-2.437-2.968-2.437-2.57 0-5.644 2.172-5.644 4.61m518.51 14.404a.99.99 0 0 1-1.06-.954c0-1.298 4.45-3.578 5.696-3.578.636 0 1.06.372 1.06.955 0 1.325-4.478 3.577-5.697 3.577m3.656-5.777c-2.57 0-5.644 2.147-5.644 4.61 0 1.14.822 2.412 2.968 2.412 2.756 0 5.645-2.253 5.645-4.584 0-1.563-1.325-2.438-2.969-2.438M70.896 93.456c0 1.14.822 2.412 2.968 2.412 2.756 0 5.644-2.252 5.644-4.584 0-1.564-1.325-2.438-2.968-2.438-2.57 0-5.644 2.173-5.644 4.61M253.81 27.27c0 1.139.822 2.41 2.968 2.41 2.756 0 5.644-2.252 5.644-4.583 0-1.564-1.325-2.438-2.968-2.438-2.57 0-5.644 2.173-5.644 4.61M149.77 20.652c0 1.14.821 2.411 2.968 2.411 2.756 0 5.644-2.252 5.644-4.584 0-1.563-1.325-2.438-2.968-2.438-2.57 0-5.644 2.173-5.644 4.61M492.71 90.147v20.399h.662V90.146Zm-389.374-6.619v22.054h.662V83.527ZM625.884 23.96v18.744h.662V23.96ZM184.674 4.675v17.113h.662V4.675Zm-40.956 69.467v20.452h.662V74.142ZM61.968 12.92v22.106h.662V12.92Zm590.879 7.73v20.4h.662v-20.4ZM627.8 74.143v20.452h.662V74.142Zm-32.44 8.273v22.107h.662V82.415Zm-405.594-6.618v22.106h.662V75.797ZM598.923 20.65v20.399h.662v-20.4ZM202.649 6.27v18.827h.662V6.27Zm-98.862-1.625v20.452h.662V4.646ZM149.77 20.65v20.399h.662v-20.4Zm72.437 61.765v22.107h.662V82.415Zm32.44-6.618v22.106h.662V75.797ZM501.917 20.65v20.399h.662v-20.4ZM287.086 74.142v20.452h.662V74.142Zm187.87-56.802v22.054h.662V17.34ZM234.79 6.3v22.107h.662V6.301Zm213.202 7.731v22.054h.662V14.03Zm114.928 61.766v22.106h.662V75.797ZM122.807 23.96v18.744h.662V23.96Zm198.24 69.497V112.2h.662V93.456Zm90.52-72.806v20.399h.662v-20.4Zm-58.08 69.496v20.399h.662V90.146Zm31.117-69.496v20.399h.662v-20.4Zm9.265 53.492v20.452h.662V74.142ZM365.585 12.92v22.106h.662V12.92ZM261.753 4.646v20.452h.662V4.646Zm26.962 8.273v22.106h.662V12.92Zm163.278 61.223v20.452h.662V74.142ZM38.457 86.837v22.053h.662V86.837Zm32.44 6.619V112.2h.661V93.456ZM220.8 27.505l2.358-.477V31.4l-2.358.504zm4.107-.821c.159-.027.292-.213.292-.371v-1.564a.363.363 0 0 0-.372-.371h-.052l-.875.186v-3.948h-.742v4.107l-2.358.476v-3.736h-.742v3.896l-1.034.212c-.158.026-.291.212-.291.37v1.538c0 .212.16.37.371.37h.08l.874-.185v4.372l-1.034.212c-.158.027-.291.212-.291.37v1.538c0 .212.16.371.371.371h.08l.874-.185v3.948h.742v-4.108l2.358-.476v3.736h.742v-3.895l1.007-.186c.159-.026.292-.212.292-.37v-1.564c0-.212-.16-.37-.372-.37h-.052l-.875.184V26.87zM548.93 97l2.358-.477v4.373l-2.358.503zm4.108-.821c.158-.026.29-.212.29-.37v-1.564a.363.363 0 0 0-.37-.372h-.053l-.875.186v-3.948h-.742v4.107l-2.358.477V90.96h-.742v3.895l-1.034.212c-.158.027-.291.212-.291.37v1.538c0 .212.16.37.371.37h.08l.874-.184v4.371l-1.034.213c-.158.026-.291.212-.291.37v1.537c0 .212.16.372.371.372h.08l.874-.186v3.948h.742v-4.107l2.358-.477v3.736h.743v-3.895l1.007-.186c.158-.026.291-.212.291-.37v-1.564c0-.212-.16-.37-.371-.37h-.053l-.874.184v-4.371zM175.776 97l2.358-.477v4.373l-2.358.503zm4.107-.821c.159-.026.292-.212.292-.37v-1.564a.363.363 0 0 0-.37-.372h-.055l-.874.186v-3.948h-.742v4.107l-2.358.477V90.96h-.742v3.895l-1.033.212c-.16.027-.291.212-.291.37v1.538c0 .212.158.37.37.37h.08l.874-.184v4.371l-1.033.213c-.16.026-.291.212-.291.37v1.537c0 .212.158.372.37.372h.08l.875-.186v3.948h.74v-4.107l2.36-.477v3.736h.741v-3.895l1.007-.186c.159-.026.292-.212.292-.37v-1.564c0-.212-.16-.37-.37-.37h-.054l-.875.184v-4.371zM321.216 9.246v27.203h1.19V9.246Zm117.313 0v27.203h1.19V9.246Zm112.675 0v27.203h3.64V9.246Zm-3.64 0v27.203h1.19V9.246Zm-2.447 16.91c0-.768-.61-1.404-1.378-1.404-.769 0-1.379.636-1.379 1.405 0 .768.61 1.404 1.379 1.404.768 0 1.378-.636 1.378-1.404m0-6.62c0-.768-.61-1.404-1.378-1.404-.769 0-1.379.636-1.379 1.405 0 .768.61 1.404 1.379 1.404.768 0 1.378-.636 1.378-1.404m18.572 6.619c0-.769-.61-1.405-1.378-1.405-.769 0-1.378.636-1.378 1.405 0 .768.61 1.404 1.378 1.404s1.378-.636 1.378-1.404m0-6.62c0-.768-.61-1.404-1.378-1.404-.769 0-1.378.636-1.378 1.405 0 .768.61 1.404 1.378 1.404s1.378-.636 1.378-1.404m-6.396-10.292v27.203h1.191V9.246Zm-6.09 0v27.203h3.64V9.246ZM677.36 78.742v27.203H681V78.742Zm-3.64 0v27.203h1.191V78.742Zm-2.447 16.911c0-.768-.61-1.405-1.378-1.405-.769 0-1.378.637-1.378 1.405 0 .769.61 1.404 1.378 1.404s1.378-.635 1.378-1.404m0-6.619c0-.768-.61-1.404-1.378-1.404-.769 0-1.378.636-1.378 1.404 0 .769.61 1.404 1.378 1.404s1.378-.635 1.378-1.404M86.38 9.246v27.203h1.191V9.246Zm593.429 0v27.203H681V9.246ZM168.215 78.742v27.203h1.191V78.742Zm143.368 0v27.203h1.19V78.742Zm123.003 0v27.203h1.191V78.742Zm106.783 0v27.203h1.191V78.742ZM213.24 9.246v27.203h1.192V9.246ZM0 105.216v.729h681v-.728zM0 98.6v.727h681V98.6zm0-6.62v.729h681v-.728zm0-6.618v.728h681v-.728zm0-6.619v.728h681v-.728Zm0-43.021v.727h681v-.727zm0-6.619v.728h681v-.728zm0-6.619v.728h681v-.728zm0-6.618v.727h681v-.727Zm0-6.619v.728h681v-.728Z"/>
</svg>
