<?xml version="1.0" encoding="UTF-8" standalone="no"?>
<svg
   width="681.00012"
   height="121.58329"
   version="1.2"
   id="svg134"
   xmlns="http://www.w3.org/2000/svg"
   xmlns:svg="http://www.w3.org/2000/svg"
   xmlns:rdf="http://www.w3.org/1999/02/22-rdf-syntax-ns#"
   xmlns:cc="http://creativecommons.org/ns#"
   xmlns:dc="http://purl.org/dc/elements/1.1/">
  <defs
     id="defs134" />
  <title
     id="title1">air_L</title>
  <desc
     id="desc1">Generated by MuseScore Studio 4.7.3</desc>
  <path
     id="path134"
     class="NoteDot"
     d="m 162.18928,91.584381 c 0,0.741306 0.5836,1.324905 1.32491,1.324905 0.7421,0 1.3249,-0.583599 1.3249,-1.324905 0,-0.742108 -0.5828,-1.324906 -1.3249,-1.324906 -0.74131,0 -1.32491,0.582798 -1.32491,1.324906 m 151.45556,0 c 0,0.741306 0.5828,1.324905 1.3249,1.324905 0.74211,0 1.32491,-0.583599 1.32491,-1.324905 0,-0.742108 -0.5828,-1.324906 -1.32491,-1.324906 -0.7421,0 -1.3249,0.582798 -1.3249,1.324906 M 160.93242,28.706188 c 0,0.742107 0.5828,1.324906 1.32491,1.324906 0.7421,0 1.3249,-0.582799 1.3249,-1.324906 0,-0.741307 -0.5828,-1.324906 -1.3249,-1.324906 -0.74211,0 -1.32491,0.583599 -1.32491,1.324906 m 314.0019,0 c 0,0.742107 0.5836,1.324906 1.32491,1.324906 0.7421,0 1.3249,-0.582799 1.3249,-1.324906 0,-0.741307 -0.5828,-1.324906 -1.3249,-1.324906 -0.74131,0 -1.32491,0.583599 -1.32491,1.324906 M 63.075115,20.653962 c -0.662053,0.42397 -1.139179,1.192415 -1.139179,2.040355 0,0.105993 0,0.211985 0.02642,0.317978 0.13209,1.086743 1.007088,1.934522 2.093431,2.066613 h 0.291399 c 1.324906,0 2.384831,-1.059925 2.384831,-2.384591 v -0.158989 c 0,-0.105992 -0.02642,-0.291479 -0.05284,-0.397471 -0.238563,-1.139419 -1.27207,-3.577246 -5.77675,-3.577246 -5.77675,0 -6.438802,4.796319 -6.438802,6.518297 0,3.153356 0.397071,7.101655 7.021601,7.101655 2.623393,0 4.663989,-1.537051 4.769661,-4.371789 0,-0.132891 -0.07925,-0.212145 -0.212145,-0.212145 h -0.344236 c -0.105672,0 -0.212145,0.105672 -0.212145,0.212145 -0.105672,2.199104 -1.669141,3.52401 -4.001135,3.52401 -2.305577,0 -3.418338,-1.245652 -3.418338,-3.577646 v -5.060821 c 0,-1.483894 0.582799,-3.179774 2.941211,-3.179774 1.245652,0 1.802032,0.450468 2.093432,0.900936 0.02642,0.053 0.02642,0.07949 0.02642,0.132491 0,0.0265 0,0.07949 -0.05284,0.105992 m -19.625419,55.732027 2.358412,-0.477127 v 4.37179 l -2.358412,0.503544 V 76.385989 M 47.5565,75.564627 c 0.159309,-0.02642 0.2922,-0.212145 0.2922,-0.371454 v -1.563469 c 0,-0.211344 -0.159309,-0.370653 -0.371454,-0.370653 h -0.05284 l -0.874198,0.185727 v -3.9483 H 45.8081 v 4.106808 l -2.358412,0.477126 V 70.344258 H 42.70758 v 3.895463 l -1.033506,0.211345 c -0.158509,0.02722 -0.291399,0.212145 -0.291399,0.371454 v 1.537051 c 0,0.211344 0.159308,0.370653 0.371453,0.370653 h 0.07925 l 0.874197,-0.185727 v 4.37259 l -1.033506,0.212145 c -0.158509,0.02642 -0.291399,0.211344 -0.291399,0.370653 v 1.537051 c 0,0.212145 0.159308,0.370654 0.371453,0.370654 h 0.07925 l 0.874197,-0.184927 v 3.947499 h 0.742108 v -4.106808 l 2.358412,-0.477126 v 3.736155 h 0.742108 V 82.42772 l 1.006288,-0.185727 c 0.159309,-0.02642 0.2922,-0.212145 0.2922,-0.371454 V 80.30787 c 0,-0.212145 -0.159309,-0.371454 -0.371454,-0.371454 h -0.05284 l -0.874198,0.185727 v -4.372589 l 1.006288,-0.184927 M 36.194335,89.62304 38.552748,89.145913 v 4.37259 l -2.358413,0.503544 V 89.62304 m 4.107609,-0.821362 c 0.159308,-0.02642 0.291399,-0.212145 0.291399,-0.370654 v -1.563469 c 0,-0.212145 -0.159309,-0.371454 -0.370654,-0.371454 h -0.05364 l -0.874198,0.185727 v -3.948299 h -0.742107 v 4.107608 l -2.358413,0.477127 v -3.736955 h -0.741307 v 3.895463 l -1.033507,0.212145 c -0.159308,0.02642 -0.291399,0.212145 -0.291399,0.370654 v 1.53705 c 0,0.212146 0.158509,0.371454 0.370654,0.371454 h 0.07925 l 0.874998,-0.185727 v 4.37179 l -1.033507,0.212145 c -0.159308,0.02642 -0.291399,0.212145 -0.291399,0.371454 v 1.53625 c 0,0.212145 0.158509,0.371454 0.370654,0.371454 h 0.07925 l 0.874998,-0.185727 v 3.948296 h 0.741307 v -4.107605 l 2.358413,-0.476326 v 3.736155 h 0.742107 v -3.895463 l 1.007089,-0.185727 c 0.159308,-0.02642 0.291399,-0.211345 0.291399,-0.370654 v -1.563469 c 0,-0.212145 -0.159309,-0.370653 -0.370654,-0.370653 h -0.05364 l -0.874198,0.184926 v -4.371789 l 1.007089,-0.185727 m -11.361369,-9.106226 2.358413,-0.477127 v 4.37179 l -2.358413,0.503544 v -4.398207 m 4.107609,-0.821362 c 0.159309,-0.02722 0.291399,-0.212145 0.291399,-0.371454 v -1.563469 c 0,-0.212145 -0.159309,-0.370653 -0.370653,-0.370653 h -0.05364 l -0.874198,0.185727 v -3.9483 h -0.742107 v 4.106808 l -2.358413,0.477126 v -3.736154 h -0.741307 v 3.895463 l -1.033506,0.211345 c -0.159309,0.02642 -0.2914,0.212145 -0.2914,0.371454 v 1.53705 c 0,0.211345 0.158509,0.370654 0.370654,0.370654 h 0.07925 l 0.874998,-0.185727 v 4.37259 l -1.033506,0.212145 c -0.159309,0.02642 -0.2914,0.211344 -0.2914,0.370653 v 1.537051 c 0,0.212145 0.158509,0.370654 0.370654,0.370654 h 0.07925 l 0.874998,-0.185727 v 3.948299 h 0.741307 v -4.106808 l 2.358413,-0.477126 v 3.736155 h 0.742107 v -3.895464 l 1.007089,-0.184926 c 0.159309,-0.02642 0.291399,-0.212145 0.291399,-0.371454 v -1.563469 c 0,-0.211345 -0.159309,-0.370654 -0.370653,-0.370654 h -0.05364 l -0.874198,0.185727 v -4.37259 L 33.048184,78.87409 M 43.449696,6.8895107 45.808108,6.4125446 v 4.3721894 l -2.358412,0.503464 V 6.8895107 M 47.556504,6.068069 c 0.159309,-0.026498 0.2922,-0.2119849 0.2922,-0.3709736 v -1.563389 c 0,-0.2119849 -0.159309,-0.3709736 -0.371454,-0.3709736 H 47.42441 L 46.550216,3.9482196 V 0 H 45.808108 V 4.1072083 L 43.449696,4.5841744 V 0.84793978 H 42.707588 V 4.7431631 l -1.033506,0.211985 c -0.158509,0.026498 -0.291399,0.2119849 -0.291399,0.3709736 v 1.5368909 c 0,0.2119849 0.159308,0.3709736 0.371453,0.3709736 h 0.07925 l 0.874197,-0.1854868 v 4.3721896 l -1.033506,0.211985 c -0.158509,0.0265 -0.291399,0.211985 -0.291399,0.370973 v 1.536891 c 0,0.211985 0.159308,0.370974 0.371453,0.370974 h 0.07925 l 0.874197,-0.185487 v 3.94822 h 0.742108 v -4.107209 l 2.358412,-0.476966 v 3.736235 h 0.742108 v -3.895223 l 1.006288,-0.185487 c 0.159309,-0.0265 0.2922,-0.211985 0.2922,-0.370974 v -1.563389 c 0,-0.211985 -0.159309,-0.370974 -0.371454,-0.370974 H 47.4244 l -0.874198,0.185487 V 6.2535559 L 47.556504,6.068069 m -11.362169,14.058813 2.358413,-0.476966 v 4.372269 l -2.358413,0.503544 v -4.398847 m 4.107609,-0.821442 c 0.159308,-0.0265 0.291399,-0.211985 0.291399,-0.370974 v -1.563389 c 0,-0.211985 -0.159309,-0.370973 -0.370654,-0.370973 h -0.05364 l -0.874198,0.185487 v -3.94822 h -0.742107 v 4.107208 l -2.358413,0.476966 v -3.736234 h -0.741307 v 3.895223 l -1.033507,0.211985 c -0.159308,0.0265 -0.291399,0.211985 -0.291399,0.370974 v 1.536891 c 0,0.211985 0.158509,0.370973 0.370654,0.370973 h 0.07925 L 35.45302,20.28587 v 4.37195 l -1.033507,0.212145 c -0.159308,0.02642 -0.291399,0.212145 -0.291399,0.371454 v 1.53625 c 0,0.212145 0.158509,0.371454 0.370654,0.371454 h 0.07925 l 0.874998,-0.185727 v 3.9483 h 0.741307 v -4.107609 l 2.358413,-0.476325 v 3.736154 h 0.742107 v -3.895463 l 1.007089,-0.185727 c 0.159308,-0.02642 0.291399,-0.211345 0.291399,-0.370654 v -1.563469 c 0,-0.212145 -0.159309,-0.370653 -0.370654,-0.370653 h -0.05364 l -0.874198,0.184926 V 19.490927 L 40.301944,19.30544 M 28.940575,10.198813 31.298988,9.7218473 v 4.3721897 l -2.358413,0.503464 v -4.398688 m 4.107609,-0.8214412 c 0.159309,-0.026498 0.291399,-0.211985 0.291399,-0.3709737 v -1.563389 c 0,-0.2119849 -0.159309,-0.3709736 -0.370653,-0.3709736 H 32.91529 L 32.041095,7.2575223 V 3.3093027 H 31.298988 V 7.416511 L 28.940575,7.8934771 V 4.1572425 h -0.741307 v 3.8952234 l -1.033506,0.2119849 c -0.159309,0.026498 -0.2914,0.2119849 -0.2914,0.3709736 v 1.5368906 c 0,0.211985 0.158509,0.370974 0.370654,0.370974 h 0.07925 l 0.874998,-0.185487 v 4.37219 l -1.033506,0.211985 c -0.159309,0.0265 -0.2914,0.211984 -0.2914,0.370973 v 1.536891 c 0,0.211985 0.158509,0.370974 0.370654,0.370974 h 0.07925 l 0.874998,-0.185487 v 3.948219 h 0.741307 v -4.107208 l 2.358413,-0.476966 v 3.736235 h 0.742107 v -3.895224 l 1.007089,-0.185487 c 0.159309,-0.0265 0.291399,-0.211984 0.291399,-0.370973 v -1.563389 c 0,-0.211985 -0.159309,-0.370974 -0.370653,-0.370974 h -0.05364 l -0.874198,0.185487 V 9.5628586 l 1.0071,-0.1854868 M 16.093311,106.9709 c -0.529962,0.10567 -1.033427,0.15851 -1.536891,0.15851 -3.789231,0 -7.0220012,-2.64981 -7.0220012,-6.65095 0,-3.232608 2.2788382,-6.120983 4.6106722,-8.13436 0.450468,-0.397872 0.874438,-0.768525 1.27191,-1.166397 0.238483,1.431378 0.42397,2.676229 0.609457,3.762572 -2.411329,0.71569 -4.0542123,3.259829 -4.0542123,5.750335 0,1.85487 1.4573963,4.399 3.5772463,4.399 0.211985,0 0.450468,-0.10647 0.450468,-0.34503 0,-0.23776 -0.264982,-0.37065 -0.582959,-0.5828 -1.033427,-0.63563 -1.616385,-1.32491 -1.616385,-2.62339 0,-1.616309 1.192415,-2.914796 2.755804,-3.28545 l 1.536891,8.71796 M 13.761477,79.730676 c 0.238483,-1.059925 1.457396,-3.841827 2.835298,-3.841827 0.397472,0 1.033427,1.297687 1.033427,3.126137 0,2.756285 -2.040355,4.823298 -3.868725,6.62453 -0.158989,-1.059925 -0.29148,-2.093432 -0.29148,-3.206192 0,-0.97987 0.0795,-1.881287 0.29148,-2.702648 m 6.094567,22.337674 c 0,1.88129 -0.768446,3.81621 -2.649812,4.58473 -0.556461,-3.17977 -1.27191,-7.393051 -1.457397,-8.559449 2.384831,0 4.107209,1.616305 4.107209,3.974719 M 8.1968718,115.10606 c 0,1.7484 1.351404,4.05398 4.9286502,4.05398 1.245411,0 2.331834,-0.31782 3.285766,-0.90142 1.430899,-1.00629 1.801872,-2.75549 1.801872,-4.42463 0,-1.0335 -0.158988,-2.22632 -0.423969,-3.73615 -0.07949,-0.52996 -0.238484,-1.32491 -0.397472,-2.35841 2.596815,-0.84778 4.531178,-3.55123 4.531178,-6.2803 0,-4.001133 -2.835299,-6.703781 -6.704024,-6.703781 -0.264981,-1.589887 -0.529962,-3.153356 -0.768445,-4.637571 2.8088,-2.941211 4.743163,-6.253076 4.743163,-10.466357 0,-2.411248 -0.741948,-4.372589 -1.165917,-5.326041 -0.635955,-1.351324 -1.404401,-2.279159 -1.881367,-2.279159 -0.185487,0 -1.006928,0.317818 -1.881366,1.351324 -1.69588,2.014178 -2.172846,5.406097 -2.172846,7.631618 0,1.430579 0.132491,2.729066 0.582959,5.696696 -0.0265,0.02722 -1.404401,1.431378 -1.960861,1.882086 -2.4113287,2.25194 -5.7500916,5.458132 -5.7500916,10.757756 0,4.955389 4.3191932,8.850849 9.2478436,8.850849 0.768445,0 1.483894,-0.08 2.093351,-0.18572 0.503464,2.54333 0.794943,4.3982 0.794943,5.80316 0,2.75549 -1.4044,4.21328 -4.08071,4.21328 -0.635955,0 -1.192415,-0.13289 -1.245411,-0.13289 -0.0265,-0.0264 -0.07949,-0.0528 -0.07949,-0.0792 0,-0.0528 0.053,-0.0793 0.132491,-0.10647 1.245412,-0.18493 2.490823,-1.24485 2.490823,-2.94121 0,-1.43058 -1.086423,-2.94122 -3.073782,-2.94122 -1.8548679,0 -3.0472832,1.51064 -3.0472832,3.25983 M 16.093311,37.474583 c -0.529962,0.105672 -1.033427,0.158509 -1.536891,0.158509 -3.789231,0 -7.0220012,-2.649812 -7.0220012,-6.650948 0,-3.23261 2.2788382,-6.120985 4.6106722,-8.134682 0.450468,-0.397472 0.874438,-0.768446 1.27191,-1.165917 0.238483,1.430898 0.42397,2.676069 0.609457,3.762412 -2.411329,0.71569 -4.0542123,3.259829 -4.0542123,5.750332 0,1.854868 1.4573963,4.399008 3.5772463,4.399008 0.211985,0 0.450468,-0.106473 0.450468,-0.345036 0,-0.238563 -0.264982,-0.370654 -0.582959,-0.582799 -1.033427,-0.635634 -1.616385,-1.324905 -1.616385,-2.623393 0,-1.616305 1.192415,-2.914793 2.755804,-3.285447 l 1.536891,8.717961 M 13.761477,10.234358 c 0.238483,-1.059925 1.457396,-3.8422274 2.835298,-3.8422274 0.397472,0 1.033427,1.2984078 1.033427,3.1267779 0,2.7558045 -2.040355,4.8226575 -3.868725,6.6245295 -0.158989,-1.059925 -0.29148,-2.093351 -0.29148,-3.206272 0,-0.980431 0.0795,-1.881367 0.29148,-2.702808 m 6.094567,22.337673 c 0,1.881286 -0.768446,3.816209 -2.649812,4.584735 -0.556461,-3.179774 -1.27191,-7.393055 -1.457397,-8.559453 2.384831,0 4.107209,1.616305 4.107209,3.974718 M 8.1968718,45.608945 c 0,1.749196 1.351404,4.054772 4.9286502,4.054772 1.245411,0 2.331834,-0.317817 3.285766,-0.901416 1.430899,-1.006288 1.801872,-2.755484 1.801872,-4.424625 0,-1.033507 -0.158988,-2.226322 -0.423969,-3.736155 -0.07949,-0.529962 -0.238484,-1.324906 -0.397472,-2.358412 2.596815,-0.848581 4.531178,-3.551229 4.531178,-6.280295 0,-4.001135 -2.835299,-6.703783 -6.704024,-6.703783 -0.264981,-1.589887 -0.529962,-3.153516 -0.768445,-4.637411 2.8088,-2.941291 4.743163,-6.253556 4.743163,-10.466757 0,-2.4113284 -0.741948,-4.3721891 -1.165917,-5.3261214 -0.635955,-1.351404 -1.404401,-2.2788381 -1.881367,-2.2788381 -0.185487,0 -1.006928,0.3179774 -1.881366,1.351404 -1.69588,2.013857 -2.172846,5.4056161 -2.172846,7.6314575 0,1.430899 0.132491,2.729307 0.582959,5.697096 -0.0265,0.0265 -1.404401,1.430898 -1.960861,1.881366 -2.4113287,2.25234 -5.7500916,5.458533 -5.7500916,10.758156 0,4.955388 4.3191932,8.850051 9.2478436,8.850051 0.768445,0 1.483894,-0.07925 2.093351,-0.184926 0.503464,2.543339 0.794943,4.398207 0.794943,5.803168 0,2.755484 -1.4044,4.213281 -4.08071,4.213281 -0.635955,0 -1.192415,-0.132891 -1.245411,-0.132891 -0.0265,-0.02642 -0.07949,-0.05284 -0.07949,-0.07925 0,-0.05284 0.053,-0.08005 0.132491,-0.106473 1.245412,-0.184927 2.490823,-1.244851 2.490823,-2.941211 0,-1.430578 -1.086423,-2.941211 -3.073782,-2.941211 -1.8548679,0 -3.0472832,1.510633 -3.0472832,3.259028 M 111.74359,27.675883 c -0.8742,0 -1.05993,-0.715689 -1.05993,-0.954252 0,-1.297687 4.45185,-3.576846 5.6975,-3.576846 0.63563,0 1.05992,0.370654 1.05992,0.954253 0,1.324906 -4.47826,3.576845 -5.69749,3.576845 m 3.6569,-5.776509 c -2.57056,0 -5.64386,2.146027 -5.64386,4.610912 0,1.139179 0.82136,2.411249 2.96763,2.411249 2.75548,0 5.64386,-2.25274 5.64386,-4.584735 0,-1.562988 -1.32491,-2.437426 -2.96763,-2.437426 m 428.20318,77.416693 c 0,1.139183 0.82216,2.411253 2.96843,2.411253 2.75549,0 5.64386,-2.252745 5.64386,-4.584739 0,-1.563469 -1.32491,-2.437667 -2.96763,-2.437667 -2.57056,0 -5.64466,2.172686 -5.64466,4.611153 M 305.04055,36.437874 c 0,1.13998 0.82137,2.411249 2.96763,2.411249 2.75549,0 5.64386,-2.25194 5.64386,-4.583934 0,-1.563469 -1.3249,-2.437667 -2.96763,-2.437667 -2.57055,0 -5.64386,2.172686 -5.64386,4.610352 m 19.86399,6.618926 c 0,1.139179 0.82136,2.411249 2.96763,2.411249 2.75628,0 5.64466,-2.25194 5.64466,-4.583935 0,-1.563469 -1.32491,-2.437666 -2.96763,-2.437666 -2.57056,0 -5.64466,2.172685 -5.64466,4.610352 m 237.90186,59.56793 c 0,1.13998 0.82136,2.41205 2.96763,2.41205 2.75629,0 5.64466,-2.25274 5.64466,-4.58474 0,-1.563465 -1.32491,-2.437663 -2.96843,-2.437663 -2.56976,0 -5.64386,2.172683 -5.64386,4.610353 m -47.86953,-6.618126 c 0,1.139179 0.82136,2.411249 2.96763,2.411249 2.75628,0 5.64466,-2.25274 5.64466,-4.584735 0,-1.562668 -1.32491,-2.437667 -2.96843,-2.437667 -2.56976,0 -5.64386,2.172686 -5.64386,4.611153 M 344.76932,46.366263 c 0,1.139179 0.82136,2.411248 2.96763,2.411248 2.75548,0 5.64386,-2.25274 5.64386,-4.583934 0,-1.563469 -1.32491,-2.438467 -2.96763,-2.438467 -2.57056,0 -5.64386,2.173486 -5.64386,4.611153 m 150.96482,72.805777 c 0,1.13918 0.82136,2.41125 2.96843,2.41125 2.75548,0 5.64386,-2.25274 5.64386,-4.58473 0,-1.56267 -1.32491,-2.43767 -2.96763,-2.43767 -2.57056,0 -5.64466,2.17269 -5.64466,4.61115 M 364.6333,49.675726 c 0,1.139179 0.82136,2.411248 2.96763,2.411248 2.75628,0 5.64386,-2.25274 5.64386,-4.584734 0,-1.562669 -1.32491,-2.437667 -2.96763,-2.437667 -2.56976,0 -5.64386,2.172685 -5.64386,4.611153 m 31.31661,-8.762792 c -0.87499,0 -1.05992,-0.714889 -1.05992,-0.953452 0,-1.298488 4.45104,-3.577646 5.69669,-3.577646 0.63644,0 1.05993,0.371454 1.05993,0.954252 0,1.324906 -4.47826,3.576846 -5.6967,3.576846 m 3.6561,-5.775949 c -2.56975,0 -5.64386,2.146267 -5.64386,4.610352 0,1.139179 0.82137,2.411249 2.96763,2.411249 2.75629,0 5.64466,-2.25194 5.64466,-4.583934 0,-1.563469 -1.3249,-2.437667 -2.96843,-2.437667 m 76.9262,70.797205 c 0,1.13998 0.82136,2.41125 2.96763,2.41125 2.75548,0 5.64386,-2.25194 5.64386,-4.58393 0,-1.56347 -1.32491,-2.43767 -2.96763,-2.43767 -2.57056,0 -5.64386,2.17269 -5.64386,4.61035 M 425.74629,27.675883 c -0.875,0 -1.05993,-0.715689 -1.05993,-0.954252 0,-1.297687 4.45105,-3.576846 5.6967,-3.576846 0.63643,0 1.05992,0.370654 1.05992,0.954253 0,1.324906 -4.47826,3.576845 -5.69669,3.576845 m 3.6561,-5.776509 c -2.56976,0 -5.64386,2.146027 -5.64386,4.610912 0,1.139179 0.82136,2.411249 2.96763,2.411249 2.75628,0 5.64466,-2.25274 5.64466,-4.584735 0,-1.562988 -1.32491,-2.437426 -2.96843,-2.437426 M 186.7893,23.200663 c 0,1.139339 0.82216,2.411409 2.96843,2.411409 2.75548,0 5.64386,-2.25274 5.64386,-4.584254 0,-1.563389 -1.32491,-2.437827 -2.96763,-2.437827 -2.57056,0 -5.64466,2.172846 -5.64466,4.610672 m 270.54018,89.352457 c 0,1.13918 0.82136,2.41125 2.96763,2.41125 2.75629,0 5.64466,-2.25194 5.64466,-4.58394 0,-1.56347 -1.32491,-2.43766 -2.96843,-2.43766 -2.56976,0 -5.64386,2.17268 -5.64386,4.61035 m 7.67805,-78.258311 c -0.875,0 -1.05992,-0.715689 -1.05992,-0.954252 0,-1.298488 4.45104,-3.576846 5.69669,-3.576846 0.63564,0 1.05993,0.370653 1.05993,0.953452 0,1.324906 -4.47827,3.577646 -5.6967,3.577646 m 3.6561,-5.77675 c -2.56976,0 -5.64386,2.146268 -5.64386,4.610352 0,1.13998 0.82136,2.411249 2.96763,2.411249 2.75629,0 5.64466,-2.25194 5.64466,-4.583934 0,-1.563469 -1.3249,-2.437667 -2.96843,-2.437667 m -212.81671,7.919815 c 0,1.13998 0.82136,2.411249 2.96843,2.411249 2.75548,0 5.64386,-2.25194 5.64386,-4.583934 0,-1.563469 -1.32491,-2.437667 -2.96763,-2.437667 -2.57056,0 -5.64466,2.172686 -5.64466,4.610352 M 500.792,23.200663 c 0,1.139339 0.82136,2.411409 2.96763,2.411409 2.75548,0 5.64386,-2.25274 5.64386,-4.584254 0,-1.563389 -1.32491,-2.437827 -2.96763,-2.437827 -2.57056,0 -5.64386,2.172846 -5.64386,4.610672 m -76.27375,82.733527 c 0,1.13998 0.82136,2.41125 2.96763,2.41125 2.75628,0 5.64466,-2.25194 5.64466,-4.58393 0,-1.56347 -1.32491,-2.43767 -2.96843,-2.43767 -2.56976,0 -5.64386,2.17269 -5.64386,4.61035 m 105.6026,-79.423904 c 0,1.139179 0.82136,2.411249 2.96763,2.411249 2.75629,0 5.64466,-2.25274 5.64466,-4.584735 0,-1.562988 -1.3249,-2.437426 -2.96843,-2.437426 -2.56976,0 -5.64386,2.172445 -5.64386,4.610912 M 405.31552,99.316067 c 0,1.139183 0.82136,2.411253 2.96843,2.411253 2.75548,0 5.64386,-2.252745 5.64386,-4.584739 0,-1.563469 -1.32491,-2.437667 -2.96763,-2.437667 -2.57056,0 -5.64466,2.172686 -5.64466,4.611153 M 549.98483,16.581978 c 0,1.139419 0.82217,2.411329 2.96843,2.411329 2.75549,0 5.64386,-2.25234 5.64386,-4.584175 0,-1.563389 -1.3249,-2.437827 -2.96763,-2.437827 -2.57055,0 -5.64466,2.172846 -5.64466,4.610673 M 386.11359,99.316067 c 0,1.139183 0.82136,2.411253 2.96763,2.411253 2.75548,0 5.64386,-2.252745 5.64386,-4.584739 0,-1.563469 -1.32491,-2.437667 -2.96763,-2.437667 -2.57056,0 -5.64386,2.172686 -5.64386,4.611153 M 569.84962,23.200663 c 0,1.139339 0.82136,2.411409 2.96763,2.411409 2.75548,0 5.64386,-2.25274 5.64386,-4.584254 0,-1.563389 -1.32491,-2.437827 -2.96763,-2.437827 -2.57056,0 -5.64386,2.172846 -5.64386,4.610672 M 366.91086,92.697141 c 0,1.139179 0.82136,2.411249 2.96763,2.411249 2.75628,0 5.64466,-2.25274 5.64466,-4.583934 0,-1.563469 -1.32491,-2.438467 -2.96843,-2.438467 -2.56976,0 -5.64386,2.173486 -5.64386,4.611152 M 589.7136,13.272595 c 0,1.139419 0.82136,2.411329 2.96763,2.411329 2.75628,0 5.64466,-2.25234 5.64466,-4.584175 0,-1.5633885 -1.32491,-2.4378264 -2.96843,-2.4378264 -2.56976,0 -5.64386,2.1728454 -5.64386,4.6106724 m -7.70447,92.661595 c 0,1.13998 0.82136,2.41125 2.96763,2.41125 2.75548,0 5.64386,-2.25194 5.64386,-4.58393 0,-1.56347 -1.32491,-2.43767 -2.96763,-2.43767 -2.57056,0 -5.64386,2.17269 -5.64386,4.61035 M 81.947215,40.912934 c -0.874198,0 -1.059925,-0.714889 -1.059925,-0.953452 0,-1.298488 4.451844,-3.577646 5.697496,-3.577646 0.635635,0 1.059925,0.371454 1.059925,0.954252 0,1.324906 -4.478262,3.576846 -5.697496,3.576846 m 3.656901,-5.775949 c -2.570558,0 -5.643856,2.146267 -5.643856,4.610352 0,1.139179 0.821358,2.411249 2.967626,2.411249 2.755484,0 5.643859,-2.25194 5.643859,-4.583934 0,-1.563469 -1.324906,-2.437667 -2.967629,-2.437667 M 338.24406,96.006604 c 0,1.139179 0.82136,2.411249 2.96763,2.411249 2.75548,0 5.64386,-2.25274 5.64386,-4.584735 0,-1.562668 -1.32491,-2.437667 -2.96763,-2.437667 -2.57056,0 -5.64386,2.172686 -5.64386,4.611153 M 628.35362,21.481168 c -0.74131,0 -1.24485,-0.211985 -1.58989,-0.874438 -0.34423,-0.662453 -0.82136,-2.358333 -0.84778,-3.073782 -0.0528,-0.715449 0.21215,-1.139419 0.84778,-1.351404 0.31862,-0.105992 0.74211,-0.158989 1.13998,-0.158989 0.74211,0 1.21843,0.158989 1.58989,0.874438 0.37065,0.715449 0.84778,2.411329 0.84778,3.073782 0,1.298408 -0.90062,1.510393 -1.98776,1.510393 m -0.21135,-6.306552 c -3.6569,0 -4.95538,1.854868 -4.95538,3.577246 0,1.722377 1.29848,3.577245 4.95538,3.577245 3.6561,0 4.92817,-1.854868 4.92817,-3.577245 0,-1.722378 -1.27207,-3.577246 -4.92817,-3.577246 M 235.98294,33.128411 c 0,1.13998 0.82136,2.411249 2.96763,2.411249 2.75628,0 5.64385,-2.25194 5.64385,-4.583934 0,-1.563469 -1.3249,-2.437667 -2.96762,-2.437667 -2.56976,0 -5.64386,2.172686 -5.64386,4.610352 m 67.73431,60.734327 c -0.8742,0 -1.05992,-0.714888 -1.05992,-0.953452 0,-1.298487 4.45184,-3.577646 5.69749,-3.577646 0.63564,0 1.05993,0.371454 1.05993,0.954253 0,1.324906 -4.47827,3.576845 -5.6975,3.576845 m 3.6569,-5.776749 c -2.57056,0 -5.64386,2.147068 -5.64386,4.611152 0,1.139179 0.82136,2.411249 2.96763,2.411249 2.75548,0 5.64386,-2.25274 5.64386,-4.583934 0,-1.563469 -1.32491,-2.438467 -2.96763,-2.438467 M 151.00483,34.294809 c -0.87419,0 -1.05992,-0.715689 -1.05992,-0.954252 0,-1.298488 4.45184,-3.576846 5.69749,-3.576846 0.63564,0 1.05993,0.370653 1.05993,0.953452 0,1.324906 -4.47826,3.577646 -5.6975,3.577646 m 3.6569,-5.77675 c -2.57055,0 -5.64386,2.146268 -5.64386,4.610352 0,1.13998 0.82137,2.411249 2.96763,2.411249 2.75549,0 5.64386,-2.25194 5.64386,-4.583934 0,-1.563469 -1.3249,-2.437667 -2.96763,-2.437667 m 446.54933,80.725601 c 0,1.13917 0.82216,2.41124 2.96843,2.41124 2.75548,0 5.64386,-2.25194 5.64386,-4.58393 0,-1.56347 -1.32491,-2.43767 -2.96763,-2.43767 -2.57056,0 -5.64466,2.17269 -5.64466,4.61036 M 85.190233,90.553276 c -0.874198,0 -1.059925,-0.714889 -1.059925,-0.953452 0,-1.298488 4.451844,-3.577647 5.696695,-3.577647 0.636435,0 1.059925,0.371454 1.059925,0.954253 0,1.324906 -4.477462,3.576846 -5.696695,3.576846 m 3.6569,-5.77595 c -2.570558,0 -5.64466,2.146268 -5.64466,4.610353 0,1.139179 0.822163,2.411248 2.96843,2.411248 2.755484,0 5.643859,-2.251939 5.643859,-4.583934 0,-1.563469 -1.324906,-2.437667 -2.967629,-2.437667 M 273.06269,102.62473 c 0,1.13998 0.82136,2.41205 2.96843,2.41205 2.75548,0 5.64386,-2.25274 5.64386,-4.58474 0,-1.563465 -1.32491,-2.437663 -2.96763,-2.437663 -2.57056,0 -5.64466,2.172683 -5.64466,4.610353 M 113.99393,83.93515 c -0.8742,0 -1.05993,-0.715689 -1.05993,-0.954252 0,-1.298488 4.45185,-3.576846 5.6967,-3.576846 0.63643,0 1.05992,0.370654 1.05992,0.953452 0,1.324906 -4.47826,3.577646 -5.69669,3.577646 m 3.6569,-5.776749 c -2.57056,0 -5.64466,2.146267 -5.64466,4.610352 0,1.139979 0.82136,2.411249 2.96843,2.411249 2.75548,0 5.64386,-2.25194 5.64386,-4.583935 0,-1.563469 -1.32491,-2.437666 -2.96763,-2.437666 m 136.20993,17.848203 c 0,1.139179 0.82136,2.411249 2.96763,2.411249 2.75548,0 5.64386,-2.25274 5.64386,-4.584735 0,-1.562668 -1.32491,-2.437667 -2.96763,-2.437667 -2.57056,0 -5.64386,2.172686 -5.64386,4.611153 m -101.59827,1.165597 c -0.875,0 -1.05992,-0.715689 -1.05992,-0.954252 0,-1.297688 4.45104,-3.576846 5.69669,-3.576846 0.63644,0 1.05993,0.370654 1.05993,0.954253 0,1.324905 -4.47826,3.576845 -5.6967,3.576845 m 3.6561,-5.77675 c -2.56975,0 -5.64386,2.146268 -5.64386,4.611153 0,1.139179 0.82137,2.411249 2.96763,2.411249 2.75629,0 5.64466,-2.25274 5.64466,-4.584735 0,-1.562668 -1.3249,-2.437667 -2.96843,-2.437667 m 78.73944,4.611153 c 0,1.139179 0.82136,2.411249 2.96763,2.411249 2.75628,0 5.64466,-2.25274 5.64466,-4.584735 0,-1.562668 -1.32491,-2.437667 -2.96843,-2.437667 -2.56976,0 -5.64386,2.172686 -5.64386,4.611153 m 400.38736,14.826936 c -0.7413,0 -1.24485,-0.21214 -1.58988,-0.8742 -0.34424,-0.66285 -0.82136,-2.35841 -0.84778,-3.0741 -0.0528,-0.71489 0.21214,-1.13918 0.84778,-1.35132 0.31862,-0.10567 0.7421,-0.15851 1.13998,-0.15851 0.7413,0 1.21843,0.15851 1.58988,0.8742 0.37066,0.71569 0.84778,2.41125 0.84778,3.0733 0,1.29849 -0.90141,1.51063 -1.98776,1.51063 m -0.21134,-6.30671 c -3.6569,0 -4.95539,1.85487 -4.95539,3.57765 0,1.72197 1.29849,3.57684 4.95539,3.57684 3.6561,0 4.92817,-1.85487 4.92817,-3.57684 0,-1.72278 -1.27207,-3.57765 -4.92817,-3.57765 M 215.4553,86.078216 c 0,1.139179 0.82216,2.411248 2.96843,2.411248 2.75548,0 5.64386,-2.251939 5.64386,-4.583934 0,-1.563469 -1.32491,-2.437667 -2.96763,-2.437667 -2.57056,0 -5.64466,2.172686 -5.64466,4.610353 m -28.6668,3.309463 c 0,1.139179 0.82136,2.411248 2.96763,2.411248 2.75628,0 5.64386,-2.251939 5.64386,-4.583934 0,-1.563469 -1.32491,-2.437667 -2.96763,-2.437667 -2.56976,0 -5.64386,2.172686 -5.64386,4.610353 m 88.9232,-49.640342 c 0,1.139179 0.82136,2.411249 2.96763,2.411249 2.75548,0 5.64386,-2.25194 5.64386,-4.583934 0,-1.563469 -1.32491,-2.437667 -2.96763,-2.437667 -2.57056,0 -5.64386,2.172685 -5.64386,4.610352 M 216.11895,26.510286 c 0,1.139179 0.82137,2.411249 2.96763,2.411249 2.75549,0 5.64386,-2.25274 5.64386,-4.584735 0,-1.562988 -1.3249,-2.437426 -2.96763,-2.437426 -2.57055,0 -5.64386,2.172445 -5.64386,4.610912 m 207.64001,-0.0015 v 18.744697 h 0.66201 V 26.508765 Z M 215.45575,86.077463 v 22.053367 h 0.66202 V 86.077463 Z m -28.66772,3.309455 v 22.053522 h 0.66216 V 89.386918 Z m 47.8696,6.618117 v 18.744845 h 0.66201 V 96.005035 Z m 19.20266,0 v 18.744845 h 0.66217 V 96.005035 Z m -103.5852,0 v 18.744845 h 0.66217 V 96.005035 Z M 243.92553,8.8504443 V 30.956494 h 0.66202 V 8.8504363 Z M 609.15369,84.965447 v 22.106363 h 0.66201 V 84.965447 Z M 281.00526,78.346545 v 22.106375 h 0.66217 V 78.346545 Z m -168.99868,4.421463 v 22.053362 h 0.66202 V 82.768008 Z M 372.576,25.396749 v 22.107148 h 0.66201 V 25.396749 Z m -262.81971,1.112008 v 18.744697 h 0.66202 V 26.508757 Z M 83.202826,89.38691 v 22.05352 h 0.662172 V 89.38691 Z M 263.78958,12.15973 v 22.106211 h 0.66201 V 12.15973 Z M 156.95966,8.8504363 V 30.956486 h 0.66217 V 8.8504363 Z M 589.95103,81.656 v 22.10636 h 0.66202 V 81.656 Z M 283.65348,15.469024 v 22.106364 h 0.66217 V 15.469024 Z m 18.07642,77.227333 v 20.398793 h 0.66201 V 92.696357 Z M 352.71117,22.087769 V 44.19445 h 0.66201 V 22.087769 Z m -14.46755,73.917258 v 18.744853 h 0.66216 V 96.005027 Z M 570.74899,78.346545 v 22.106375 h 0.66202 V 78.346545 Z M 216.11855,26.508757 v 18.744697 h 0.66202 V 26.508757 Z m 150.79185,66.1876 v 20.398793 h 0.66217 V 92.696357 Z M 589.71399,13.271584 v 22.053513 h 0.66202 V 13.271584 Z M 394.05537,76.691822 v 20.452424 h 0.66217 V 76.691822 Z M 569.84916,23.199779 v 20.398952 h 0.66217 V 23.199779 Z M 413.25819,76.691822 v 20.452424 h 0.66201 V 76.691822 Z M 549.98527,16.581035 v 22.053517 h 0.66201 V 16.581035 Z M 432.46085,81.656 v 22.10636 h 0.66201 V 81.656 Z m 97.65959,-55.147243 v 18.744697 h 0.66201 V 26.508757 Z M 312.98322,12.15973 v 22.106211 h 0.66201 V 12.15973 Z M 186.78974,23.199779 v 20.398952 h 0.66202 V 23.199779 Z m 364.75659,53.492043 v 20.452424 h 0.66202 V 76.691822 Z m -50.7547,-53.492043 v 20.398952 h 0.66201 V 23.199779 Z M 332.84711,18.778318 v 22.106525 h 0.66217 V 18.778318 Z m 132.42507,69.496584 v 22.106358 h 0.66203 V 88.274902 Z M 470.96233,8.8504363 V 30.956486 h 0.66217 V 8.8504363 Z M 401.9048,15.469024 v 22.106364 h 0.66201 V 15.469024 Z m 101.77193,79.423995 v 22.107151 h 0.66217 V 94.893019 Z M 484.47407,81.656 v 22.10636 h 0.66201 V 81.656 Z M 87.902127,15.469024 v 22.106364 h 0.662021 V 15.469024 Z M 514.93645,96.005027 v 18.744853 h 0.66203 V 96.005027 Z M 342.58455,44.723868 v 1.059164 h 12.97371 V 44.723868 Z M 493.55027,114.2203 v 1.05915 h 12.97372 V 114.2203 Z M 362.44938,44.723868 v 1.059164 h 12.97371 v -1.059164 z m -43.59298,-4.74117 2.35841,-0.476326 v 4.37179 l -2.35841,0.503544 v -4.399008 m 4.10681,-0.821362 c 0.15931,-0.02642 0.2914,-0.212145 0.2914,-0.370653 v -1.563469 c 0,-0.212145 -0.15851,-0.370653 -0.37065,-0.370653 h -0.0528 l -0.8742,0.184926 v -3.9483 h -0.74211 v 4.107609 l -2.35841,0.477126 v -3.736154 h -0.74211 v 3.894663 l -1.0335,0.212145 c -0.15851,0.02642 -0.2914,0.212145 -0.2914,0.370653 v 1.537051 c 0,0.212145 0.15931,0.371454 0.37065,0.371454 h 0.0801 l 0.87419,-0.185727 v 4.371789 l -1.0335,0.212145 c -0.15851,0.02642 -0.2914,0.212145 -0.2914,0.371454 v 1.536251 c 0,0.212145 0.15931,0.371454 0.37065,0.371454 h 0.0801 l 0.87419,-0.185727 v 3.948299 h 0.74211 v -4.106808 l 2.35841,-0.477126 v 3.736155 h 0.74211 v -3.895464 l 1.00629,-0.185727 c 0.15931,-0.02642 0.2914,-0.211344 0.2914,-0.370653 V 43.90458 c 0,-0.212145 -0.15851,-0.370654 -0.37065,-0.370654 h -0.0528 l -0.8742,0.184927 v -4.37179 l 1.00629,-0.185727 m 294.17474,-22.343837 2.35841,-0.476966 v 4.372189 l -2.35841,0.503465 v -4.398688 m 4.10761,-0.821442 c 0.15931,-0.0265 0.2914,-0.211985 0.2914,-0.370973 v -1.563389 c 0,-0.211985 -0.15931,-0.370974 -0.37066,-0.370974 h -0.0536 l -0.8742,0.185487 V 9.9279882 h -0.74211 v 4.1072088 l -2.35841,0.476966 v -3.736235 h -0.74131 v 3.895223 l -1.0335,0.211985 c -0.15931,0.0265 -0.2914,0.211985 -0.2914,0.370974 v 1.536891 c 0,0.211985 0.15851,0.370973 0.37065,0.370973 h 0.0793 l 0.87499,-0.185486 v 4.372189 l -1.0335,0.211985 c -0.15931,0.0265 -0.2914,0.211985 -0.2914,0.370974 v 1.53657 c 0,0.212145 0.15851,0.371454 0.37065,0.371454 h 0.0793 l 0.87499,-0.185727 v 3.9483 h 0.74131 v -4.106808 l 2.35841,-0.477366 v 3.736394 h 0.74211 V 22.85907 l 1.00709,-0.185487 c 0.15931,-0.0265 0.2914,-0.211985 0.2914,-0.370974 V 20.73922 c 0,-0.211985 -0.15931,-0.370973 -0.37066,-0.370973 h -0.0536 l -0.8742,0.185487 v -4.37219 l 1.00709,-0.185487 m -544.091219,70.31752 2.358413,-0.476326 v 4.371789 l -2.358413,0.503544 v -4.399007 m 4.106805,-0.821362 c 0.159309,-0.02642 0.2922,-0.212145 0.2922,-0.370653 v -1.563469 c 0,-0.212145 -0.159309,-0.370654 -0.371454,-0.370654 h -0.05284 l -0.874198,0.184927 v -3.9483 H 79.51305 v 4.107609 l -2.358413,0.477126 V 80.272646 H 76.41253 v 3.894663 l -1.033507,0.212145 c -0.158508,0.02642 -0.291399,0.212145 -0.291399,0.370654 v 1.537051 c 0,0.212145 0.159309,0.371454 0.371454,0.371454 h 0.07925 l 0.874198,-0.185727 v 4.371789 l -1.033507,0.212145 c -0.158508,0.02642 -0.291399,0.212145 -0.291399,0.371454 v 1.53625 c 0,0.212145 0.159309,0.371454 0.371454,0.371454 h 0.07925 l 0.874198,-0.185727 v 3.9483 h 0.742107 v -4.106808 l 2.358413,-0.477126 v 3.736154 h 0.742104 v -3.895463 l 1.006288,-0.185727 c 0.159309,-0.02642 0.2922,-0.211345 0.2922,-0.370654 v -1.563469 c 0,-0.212145 -0.159309,-0.370653 -0.371454,-0.370653 h -0.05284 l -0.874198,0.184926 v -4.371789 l 1.006288,-0.185727 m 370.0202,23.986805 2.35841,-0.47633 v 4.37179 l -2.35841,0.50354 v -4.399 m 4.1068,-0.82137 c 0.15931,-0.0264 0.2914,-0.21214 0.2914,-0.37065 v -1.56347 c 0,-0.21214 -0.1585,-0.37065 -0.37065,-0.37065 h -0.0528 l -0.87499,0.18492 v -3.94829 h -0.74131 v 4.1076 l -2.35841,0.47713 v -3.73615 h -0.74211 v 3.89466 l -1.03351,0.21214 c -0.15931,0.0264 -0.2914,0.21215 -0.2914,0.37066 v 1.53705 c 0,0.21214 0.15851,0.37145 0.37066,0.37145 h 0.08 l 0.8742,-0.18573 v 4.37179 l -1.03351,0.21215 c -0.15931,0.0264 -0.2914,0.21214 -0.2914,0.37145 v 1.53625 c 0,0.21215 0.15851,0.37146 0.37066,0.37146 h 0.08 l 0.8742,-0.18573 v 3.9483 h 0.74211 v -4.10681 l 2.35841,-0.47712 v 3.73615 h 0.74131 v -3.89546 l 1.00708,-0.18573 c 0.15931,-0.0264 0.2914,-0.21134 0.2914,-0.37065 v -1.56347 c 0,-0.21215 -0.1585,-0.37066 -0.37065,-0.37066 h -0.0528 l -0.87499,0.18493 v -4.37179 l 1.00708,-0.18573 m -274.64779,-22.344073 2.35762,-0.476326 v 4.371789 l -2.35762,0.503544 v -4.399007 m 4.10681,-0.821362 c 0.15931,-0.02642 0.2914,-0.212145 0.2914,-0.370653 v -1.563469 c 0,-0.212145 -0.15851,-0.370654 -0.37065,-0.370654 h -0.0528 l -0.875,0.184927 v -3.9483 h -0.7421 v 4.107609 l -2.35762,0.477126 v -3.736155 h -0.7421 v 3.894663 l -1.03351,0.212145 c -0.15931,0.02642 -0.2914,0.212145 -0.2914,0.370654 v 1.537051 c 0,0.212145 0.15851,0.371454 0.37065,0.371454 h 0.0793 l 0.875,-0.185727 v 4.371789 l -1.03351,0.212145 c -0.15931,0.02642 -0.2914,0.212145 -0.2914,0.371454 v 1.53625 c 0,0.212145 0.15851,0.371454 0.37065,0.371454 h 0.0793 l 0.875,-0.185727 v 3.9483 h 0.7421 v -4.106808 l 2.35762,-0.477126 v 3.736154 h 0.7421 v -3.895463 l 1.00709,-0.185727 c 0.15931,-0.02642 0.2914,-0.211345 0.2914,-0.370654 v -1.563469 c 0,-0.212145 -0.15851,-0.370653 -0.37065,-0.370653 h -0.0528 l -0.875,0.184926 v -4.371789 l 1.00709,-0.185727 m 199.6501,-73.696483 v 27.203133 h 1.19128 V 11.795732 Z m -177.84316,0 v 27.203133 h 1.19112 V 11.795732 Z m 246.90085,0 v 27.203133 h 1.19112 V 11.795732 Z m 67.10104,0 v 27.203133 h 1.19112 V 11.795732 Z m 88.92236,0 v 27.203133 h 1.19128 V 11.795732 Z m 67.78118,0 v 27.203133 h 3.64015 V 11.795732 Z m -3.63967,0 V 38.998865 H 674.911 V 11.795732 Z m -2.44731,16.910456 c 0,-0.768526 -0.60921,-1.40416 -1.37774,-1.40416 -0.76852,0 -1.37774,0.635634 -1.37774,1.40416 0,0.768525 0.60922,1.40496 1.37774,1.40496 0.76853,0 1.37774,-0.636435 1.37774,-1.40496 m 0,-6.618446 c 0,-0.768445 -0.60921,-1.4044 -1.37774,-1.4044 -0.76852,0 -1.37774,0.635955 -1.37774,1.4044 0,0.768446 0.60922,1.404481 1.37774,1.404481 0.76853,0 1.37774,-0.636035 1.37774,-1.404481 m 6.08698,59.203945 v 27.203443 h 3.64015 V 81.291687 Z m -3.63967,0 V 108.49513 H 674.911 V 81.291687 Z m -532.91,0 v 27.203443 h 1.19128 V 81.291687 Z M 139.5535,11.795732 v 27.203133 h 1.19112 V 11.795732 Z m 66.43808,69.495955 v 27.203443 h 1.19128 V 81.291687 Z m 86.2743,0 v 27.203443 h 1.19113 V 81.291687 Z m 65.1805,0 v 27.203443 h 1.19128 V 81.291687 Z m 86.27509,0 v 27.203443 h 1.19113 V 81.291687 Z m 90.41853,0 v 27.203443 h 1.19129 V 81.291687 Z M 70.786787,98.202506 c 0,-0.768526 -0.609216,-1.40416 -1.377742,-1.40416 -0.768525,0 -1.377742,0.635634 -1.377742,1.40416 0,0.768525 0.609217,1.40496 1.377742,1.40496 0.768526,0 1.377742,-0.636435 1.377742,-1.40496 m 0,-6.618125 c 0,-0.768526 -0.609216,-1.404961 -1.377742,-1.404961 -0.768525,0 -1.377742,0.636435 -1.377742,1.404961 0,0.768525 0.609217,1.40416 1.377742,1.40416 0.768526,0 1.377742,-0.635635 1.377742,-1.40416 M 64.391215,81.291687 v 27.203443 h 1.191286 V 81.291687 Z m -6.089324,0 v 27.203443 h 3.639993 V 81.291687 Z m 562.111839,0 v 27.203443 h 1.19129 V 81.291687 Z M 295.57569,11.795732 v 27.203133 h 1.19128 V 11.795732 Z M 0,107.76697 v 0.72785 h 681 v -0.72785 z m 0,-6.61889 v 0.72768 h 681 v -0.72768 z m 0,-6.618902 v 0.727682 h 681 v -0.727682 z m 0,-6.618125 v 0.72769 h 681 v -0.72769 z m 0,-6.618894 v 0.727682 H 681 V 81.292159 Z M 0,38.270712 v 0.727681 H 681 V 38.270712 Z M 0,31.65181 v 0.727681 H 681 V 31.65181 Z m 0,-6.618902 v 0.727682 h 681 v -0.727682 z m 0,-6.618432 v 0.727685 h 681 v -0.727685 z m 0,-6.618588 v 0.727685 h 681 v -0.727685 z"
     style="stroke-width:0.0800547" />
  <metadata
     id="metadata134">
    <rdf:RDF>
      <cc:Work
         rdf:about="">
        <dc:title>air_L</dc:title>
      </cc:Work>
    </rdf:RDF>
  </metadata>
</svg>
