<?xml version="1.0" encoding="UTF-8" standalone="no"?>
<svg
   width="681"
   height="186.10622"
   version="1.2"
   id="svg224"
   xmlns="http://www.w3.org/2000/svg"
   xmlns:svg="http://www.w3.org/2000/svg"
   xmlns:rdf="http://www.w3.org/1999/02/22-rdf-syntax-ns#"
   xmlns:cc="http://creativecommons.org/ns#"
   xmlns:dc="http://purl.org/dc/elements/1.1/">
  <defs
     id="defs224" />
  <title
     id="title1">air_LXVI</title>
  <desc
     id="desc1">Generated by MuseScore Studio 4.7.3</desc>
  <path
     id="path224"
     class="NoteDot"
     d="m 652.84957,165.14948 c 0,0.74211 0.5828,1.32491 1.3249,1.32491 0.74211,0 1.32491,-0.5828 1.32491,-1.32491 0,-0.74211 -0.5828,-1.32491 -1.32491,-1.32491 -0.7421,0 -1.3249,0.5828 -1.3249,1.32491 M 68.071331,145.2935 c 0,0.74131 0.582798,1.32491 1.324906,1.32491 0.742107,0 1.324906,-0.5836 1.324906,-1.32491 0,-0.7421 -0.582799,-1.3249 -1.324906,-1.3249 -0.742108,0 -1.324906,0.5828 -1.324906,1.3249 M 350.08175,95.653163 c 0,0.741306 0.5828,1.324906 1.32491,1.324906 0.7421,0 1.3249,-0.5836 1.3249,-1.324906 0,-0.742108 -0.5828,-1.324906 -1.3249,-1.324906 -0.74211,0 -1.32491,0.582798 -1.32491,1.324906 m 56.1656,8.261647 14.15368,-1.65473 v 3.33188 l -14.15368,1.65473 v -3.33188 M 51.369511,32.792582 v 1.96054 h -2.199104 c -0.185727,0 -0.371454,0.159309 -0.371454,0.370654 v 0.503544 c 0,0.212145 0.185727,0.371454 0.371454,0.371454 h 8.02869 c 0.212145,0 0.370653,-0.159309 0.370653,-0.371454 v -0.503544 c 0,-0.211345 -0.158508,-0.370654 -0.370653,-0.370654 h -2.384831 v -1.96054 h 2.384831 c 0.212145,0 0.370653,-0.185727 0.370653,-0.397872 v -0.503544 c 0,-0.184927 -0.158508,-0.370654 -0.370653,-0.370654 h -2.384831 v -4.213281 c 0,-0.159309 -0.07925,-0.291399 -0.185727,-0.344235 l -0.317817,-0.159309 c -0.05284,-0.02642 -0.07925,-0.02642 -0.13209,-0.02642 -0.106473,0 -0.212145,0 -0.2922,0.07925 l -2.411249,2.199904 c -0.07925,0.07925 -0.105672,0.184927 -0.105672,0.2914 v 2.172685 h -3.074102 c 0,0 2.96843,-3.179774 6.094567,-7.366637 0.106473,-0.13209 0.132891,-0.264981 0.132891,-0.370653 0,-0.132891 -0.05284,-0.238563 -0.07925,-0.264981 l -0.583599,-0.583279 c -0.07925,-0.053 -0.158509,-0.105993 -0.264981,-0.105993 -0.158509,0 -3.736155,0 -3.9483,0 -0.184926,0 -0.317817,0.158989 -0.344235,0.317978 0,0 -0.132091,1.961181 -0.821362,4.107448 -0.689271,2.146268 -1.484215,3.471174 -2.172686,4.451844 0,0 -0.07925,0.13209 -0.07925,0.291399 0,0.05284 0,0.105673 0.02642,0.158509 0.07925,0.185727 0.264982,0.477126 0.264982,0.477126 0,0 0.05284,0.159309 0.291399,0.159309 h 4.557516 m 0.793342,-11.066607 c -0.874197,0 -1.589887,-1.192415 -1.589887,-2.67631 0,-1.483894 0.71569,-2.702808 1.589887,-2.702808 0.874198,0 1.616306,1.218914 1.616306,2.702808 0,1.483895 -0.742108,2.67631 -1.616306,2.67631 m 0.980671,-6.624529 c -1.616305,0 -2.199104,0.476966 -2.570558,0.874437 -0.07925,-0.55646 -0.13209,-0.98043 -0.13209,-1.4044 0,-1.510393 0.529962,-3.471253 2.384831,-3.471253 0.662052,0 1.059924,0.211985 1.324906,0.503464 -0.556381,0.238483 -1.007089,0.953932 -1.007089,1.563389 0,0.953932 0.742107,1.69588 1.695559,1.69588 0.954253,0 1.722778,-0.741948 1.722778,-1.69588 v -0.07949 c 0,-0.238483 -0.05284,-0.635955 -0.159309,-0.84794 -0.344235,-0.953932 -1.456996,-2.3583327 -4.106808,-2.3583327 -2.38483,0 -4.107608,2.2788377 -4.637571,3.4977517 -0.264981,0.635955 -0.662052,1.934363 -0.662052,3.418257 0,1.616385 0.449907,3.444755 2.013376,4.822658 1.537051,1.165917 2.517722,1.218913 3.444756,1.218913 0.927834,0 4.399007,-1.086423 4.399007,-4.160204 0,-2.596816 -2.040595,-3.577246 -3.709736,-3.577246 M 37.732186,150.8517 c 0,2.09344 -1.086342,3.2062 -2.623393,4.42543 l 0.07925,-5.16753 c 0.05284,-0.23777 0.450708,-1.00629 1.510633,-1.00629 0.953452,0 1.033506,0.90061 1.033506,1.457 v 0.29139 m -0.318617,-3.04688 c -1.324906,0 -2.092631,0.82136 -2.225522,0.97987 l 0.105672,-8.50581 c 0,-0.21135 -0.158508,-0.37066 -0.370653,-0.37066 h -0.317818 c -0.212145,0 -0.371454,0.15931 -0.371454,0.37066 l 0.132891,15.92528 c 0,0.21215 0.159309,0.37146 0.370654,0.37146 0.05364,0 0.159309,-0.0264 0.212145,-0.0528 2.279158,-1.13998 4.663989,-3.31266 4.663989,-6.04173 0,-1.37774 -0.636435,-2.67623 -2.199904,-2.67623 m -7.041615,12.97527 c 0,2.09343 -1.086343,3.2062 -2.623394,4.42543 l 0.07925,-5.16753 c 0.05284,-0.23857 0.450709,-1.00709 1.510633,-1.00709 0.954253,0 1.033507,0.90141 1.033507,1.45779 v 0.2914 m -0.317817,-3.04768 c -1.324906,0 -2.093432,0.82136 -2.226323,0.98067 l 0.106473,-8.50582 c 0,-0.21214 -0.159309,-0.37065 -0.371454,-0.37065 h -0.317817 c -0.212145,0 -0.370654,0.15851 -0.370654,0.37065 l 0.132091,15.92529 c 0,0.21215 0.159309,0.37066 0.371454,0.37066 0.05284,0 0.158508,-0.0264 0.211344,-0.0528 2.279159,-1.13918 4.663989,-3.31186 4.663989,-6.04173 0,-1.37774 -0.635634,-2.67623 -2.199103,-2.67623 M 37.732186,11.859229 c 0,2.093351 -1.086342,3.206272 -2.623393,4.425185 l 0.07925,-5.167133 c 0.05284,-0.238483 0.450708,-1.006928 1.510633,-1.006928 0.953452,0 1.033506,0.900936 1.033506,1.457396 v 0.29148 M 37.413569,8.8119451 c -1.324906,0 -2.092631,0.8214417 -2.225522,0.9804304 l 0.105672,-8.5058959 c 0,-0.2119849 -0.158508,-0.37097363 -0.370653,-0.37097363 h -0.317818 c -0.212145,0 -0.371454,0.15898873 -0.371454,0.37097363 l 0.132891,15.9253694 c 0,0.211985 0.159309,0.370973 0.370654,0.370973 0.05364,0 0.159309,-0.0265 0.212145,-0.053 2.279158,-1.139419 4.663989,-3.312265 4.663989,-6.041571 0,-1.377902 -0.636435,-2.6763099 -2.199904,-2.6763099 M 30.371954,21.787297 c 0,2.093591 -1.086343,3.206352 -2.623394,4.425586 l 0.07925,-5.167533 c 0.05284,-0.238483 0.450709,-1.006929 1.510633,-1.006929 0.954253,0 1.033507,0.900936 1.033507,1.457397 v 0.291479 m -0.317817,-3.047284 c -1.324906,0 -2.093432,0.821442 -2.226323,0.980431 l 0.106473,-8.505896 c 0,-0.211985 -0.159309,-0.370974 -0.371454,-0.370974 h -0.317817 c -0.212145,0 -0.370654,0.158989 -0.370654,0.370974 l 0.132091,15.925369 c 0,0.212145 0.159309,0.370653 0.371454,0.370653 0.05284,0 0.158508,-0.02642 0.211344,-0.05284 2.279159,-1.139179 4.663989,-3.311864 4.663989,-6.041411 0,-1.377902 -0.635634,-2.67631 -2.199103,-2.67631 m 7.678049,62.615374 c 0,2.093431 -1.086342,3.206192 -2.623393,4.425425 l 0.07925,-5.167533 c 0.05284,-0.237762 0.450708,-1.006288 1.510633,-1.006288 0.953452,0 1.033506,0.900616 1.033506,1.456996 v 0.2914 m -0.318617,-3.046884 c -1.324906,0 -2.092631,0.821362 -2.225522,0.97987 l 0.105672,-8.505816 c 0,-0.211344 -0.158508,-0.370653 -0.370653,-0.370653 H 34.60524 c -0.212145,0 -0.371454,0.159309 -0.371454,0.370653 l 0.132891,15.925289 c 0,0.212145 0.159309,0.371454 0.370654,0.371454 0.05364,0 0.159309,-0.02642 0.212145,-0.05284 2.279158,-1.139979 4.663989,-3.312665 4.663989,-6.041731 0,-1.377742 -0.636435,-2.67623 -2.199904,-2.67623 m -7.041615,12.975272 c 0,2.093431 -1.086343,3.206192 -2.623394,4.425426 l 0.07925,-5.167533 c 0.05284,-0.238563 0.450709,-1.007089 1.510633,-1.007089 0.954253,0 1.033507,0.901416 1.033507,1.457797 v 0.291399 m -0.317817,-3.047684 c -1.324906,0 -2.093432,0.821362 -2.226323,0.980671 l 0.106473,-8.505816 c 0,-0.212145 -0.159309,-0.370654 -0.371454,-0.370654 h -0.317817 c -0.212145,0 -0.370654,0.158509 -0.370654,0.370654 l 0.132091,15.925289 c 0,0.212145 0.159309,0.370653 0.371454,0.370653 0.05284,0 0.158508,-0.02642 0.211344,-0.05284 2.279159,-1.139179 4.663989,-3.311864 4.663989,-6.041731 0,-1.377742 -0.635634,-2.67623 -2.199103,-2.67623 M 16.093311,173.91708 c -0.529962,0.10647 -1.033427,0.1593 -1.536891,0.1593 -3.789231,0 -7.0220012,-2.64981 -7.0220012,-6.65094 0,-3.23341 2.2788382,-6.12099 4.6106722,-8.13517 0.450468,-0.39787 0.874438,-0.76852 1.27191,-1.16559 0.238483,1.43058 0.42397,2.67623 0.609457,3.76257 -2.411329,0.71489 -4.0542123,3.25903 -4.0542123,5.74953 0,1.85487 1.4573963,4.39901 3.5772463,4.39901 0.211985,0 0.450468,-0.10567 0.450468,-0.34424 0,-0.23856 -0.264982,-0.37145 -0.582959,-0.58279 -1.033427,-0.63644 -1.616385,-1.32491 -1.616385,-2.6234 0,-1.6163 1.192415,-2.91479 2.755804,-3.28625 l 1.536891,8.71797 m -2.331834,-27.24023 c 0.238483,-1.05992 1.457396,-3.84183 2.835298,-3.84183 0.397472,0 1.033427,1.29849 1.033427,3.12694 0,2.75549 -2.040355,4.8225 -3.868725,6.62453 -0.158989,-1.05992 -0.29148,-2.09343 -0.29148,-3.20619 0,-0.98067 0.0795,-1.88209 0.29148,-2.70345 m 6.094567,22.33847 c 0,1.88129 -0.768446,3.81541 -2.649812,4.58394 -0.556461,-3.17978 -1.27191,-7.39306 -1.457397,-8.55865 2.384831,0 4.107209,1.6163 4.107209,3.97471 M 8.1968718,182.05224 c 0,1.74839 1.351404,4.05397 4.9286502,4.05397 1.245411,0 2.331834,-0.31782 3.285766,-0.90062 1.430899,-1.00708 1.801872,-2.75628 1.801872,-4.42542 0,-1.03351 -0.158988,-2.22552 -0.423969,-3.73616 -0.07949,-0.52996 -0.238484,-1.3249 -0.397472,-2.35841 2.596815,-0.84778 4.531178,-3.55043 4.531178,-6.28029 0,-4.00114 -2.835299,-6.70379 -6.704024,-6.70379 -0.264981,-1.58988 -0.529962,-3.15335 -0.768445,-4.63677 2.8088,-2.94201 4.743163,-6.25387 4.743163,-10.46715 0,-2.41125 -0.741948,-4.37179 -1.165917,-5.32605 -0.635955,-1.35132 -1.404401,-2.27915 -1.881367,-2.27915 -0.185487,0 -1.006928,0.31861 -1.881366,1.35132 -1.69588,2.01418 -2.172846,5.4061 -2.172846,7.63162 0,1.43138 0.132491,2.72986 0.582959,5.69749 -0.0265,0.0264 -1.404401,1.43058 -1.960861,1.88129 -2.4113287,2.25194 -5.7500916,5.45813 -5.7500916,10.75776 0,4.95538 4.3191932,8.85085 9.2478436,8.85085 0.768445,0 1.483894,-0.0793 2.093351,-0.18573 0.503464,2.54414 0.794943,4.39901 0.794943,5.80317 0,2.75548 -1.4044,4.21328 -4.08071,4.21328 -0.635955,0 -1.192415,-0.13289 -1.245411,-0.13289 -0.0265,-0.0264 -0.07949,-0.0528 -0.07949,-0.0793 0,-0.0528 0.053,-0.0792 0.132491,-0.10567 1.245412,-0.18573 2.490823,-1.24565 2.490823,-2.94121 0,-1.43138 -1.086423,-2.94121 -3.073782,-2.94121 -1.8548679,0 -3.0472832,1.50983 -3.0472832,3.25903 M 16.093311,34.924439 c -0.529962,0.106473 -1.033427,0.159309 -1.536891,0.159309 -3.789231,0 -7.0220012,-2.649811 -7.0220012,-6.650947 0,-3.233411 2.2788382,-6.121386 4.6106722,-8.135243 0.450468,-0.397471 0.874438,-0.768445 1.27191,-1.165917 0.238483,1.430899 0.42397,2.67631 0.609457,3.762733 -2.411329,0.715129 -4.0542123,3.259268 -4.0542123,5.749771 0,1.854869 1.4573963,4.399008 3.5772463,4.399008 0.211985,0 0.450468,-0.105672 0.450468,-0.344235 0,-0.238563 -0.264982,-0.371454 -0.582959,-0.582799 -1.033427,-0.636435 -1.616385,-1.324906 -1.616385,-2.623393 0,-1.616306 1.192415,-2.914793 2.755804,-3.286247 l 1.536891,8.71796 M 13.761477,7.6844542 c 0.238483,-1.0599247 1.457396,-3.8422271 2.835298,-3.8422271 0.397472,0 1.033427,1.2984078 1.033427,3.1267779 0,2.7558043 -2.040355,4.822658 -3.868725,6.62453 -0.158989,-1.059925 -0.29148,-2.093352 -0.29148,-3.206273 0,-0.9804301 0.0795,-1.8813661 0.29148,-2.7028078 m 6.094567,22.3382338 c 0,1.881286 -0.768446,3.815409 -2.649812,4.583934 -0.556461,-3.179774 -1.27191,-7.393055 -1.457397,-8.558652 2.384831,0 4.107209,1.616305 4.107209,3.974718 M 8.1968718,43.059602 c 0,1.748395 1.351404,4.053972 4.9286502,4.053972 1.245411,0 2.331834,-0.317818 3.285766,-0.900616 1.430899,-1.007089 1.801872,-2.756285 1.801872,-4.425426 0,-1.033507 -0.158988,-2.225522 -0.423969,-3.736154 -0.07949,-0.529963 -0.238484,-1.324906 -0.397472,-2.358413 2.596815,-0.84778 4.531178,-3.550428 4.531178,-6.280294 0,-4.001136 -2.835299,-6.703784 -6.704024,-6.703784 -0.264981,-1.589887 -0.529962,-3.153276 -0.768445,-4.637171 2.8088,-2.941291 4.743163,-6.253555 4.743163,-10.4667561 0,-2.4113288 -0.741948,-4.3721895 -1.165917,-5.3261218 C 17.391719,0.92743413 16.623273,0 16.146307,0 15.96082,0 15.139379,0.31797742 14.264941,1.351404 c -1.69588,2.013857 -2.172846,5.4056161 -2.172846,7.631458 0,1.430898 0.132491,2.729306 0.582959,5.697095 -0.0265,0.0265 -1.404401,1.430899 -1.960861,1.881367 -2.4113287,2.25234 -5.7500916,5.458612 -5.7500916,10.757915 0,4.955389 4.3191932,8.850852 9.2478436,8.850852 0.768445,0 1.483894,-0.07925 2.093351,-0.185727 0.503464,2.54414 0.794943,4.399008 0.794943,5.803168 0,2.755484 -1.4044,4.213281 -4.08071,4.213281 -0.635955,0 -1.192415,-0.132891 -1.245411,-0.132891 -0.0265,-0.02642 -0.07949,-0.05284 -0.07949,-0.07925 0,-0.05284 0.053,-0.07925 0.132491,-0.105672 1.245412,-0.185727 2.490823,-1.245652 2.490823,-2.941211 0,-1.431379 -1.086423,-2.941211 -3.073782,-2.941211 -1.8548679,0 -3.0472832,1.509832 -3.0472832,3.259028 m 7.8964392,61.361154 c -0.529962,0.10647 -1.033427,0.15931 -1.536891,0.15931 -3.789231,0 -7.0220012,-2.64982 -7.0220012,-6.650947 0,-3.233411 2.2788382,-6.120985 4.6106722,-8.135163 0.450468,-0.397872 0.874438,-0.768525 1.27191,-1.165597 0.238483,1.430579 0.42397,2.67623 0.609457,3.762573 -2.411329,0.714889 -4.0542123,3.259028 -4.0542123,5.749531 0,1.854869 1.4573963,4.399003 3.5772463,4.399003 0.211985,0 0.450468,-0.10567 0.450468,-0.34423 0,-0.23857 -0.264982,-0.37146 -0.582959,-0.5828 -1.033427,-0.63644 -1.616385,-1.32491 -1.616385,-2.623392 0,-1.616306 1.192415,-2.914793 2.755804,-3.286247 l 1.536891,8.717959 M 13.761477,77.180532 c 0.238483,-1.059925 1.457396,-3.841827 2.835298,-3.841827 0.397472,0 1.033427,1.298488 1.033427,3.126938 0,2.755484 -2.040355,4.822498 -3.868725,6.62453 -0.158989,-1.059925 -0.29148,-2.093432 -0.29148,-3.206193 0,-0.98067 0.0795,-1.882086 0.29148,-2.703448 m 6.094567,22.338474 c 0,1.881284 -0.768446,3.815404 -2.649812,4.583934 -0.556461,-3.17977 -1.27191,-7.393055 -1.457397,-8.558652 2.384831,0 4.107209,1.616305 4.107209,3.974718 M 8.1968718,112.55592 c 0,1.7484 1.351404,4.05397 4.9286502,4.05397 1.245411,0 2.331834,-0.31782 3.285766,-0.90061 1.430899,-1.00709 1.801872,-2.75629 1.801872,-4.42543 0,-1.03351 -0.158988,-2.22552 -0.423969,-3.73615 -0.07949,-0.52997 -0.238484,-1.32491 -0.397472,-2.35842 2.596815,-0.84778 4.531178,-3.55042 4.531178,-6.280291 0,-4.001136 -2.835299,-6.703784 -6.704024,-6.703784 -0.264981,-1.589887 -0.529962,-3.153356 -0.768445,-4.63677 2.8088,-2.942012 4.743163,-6.253876 4.743163,-10.467157 0,-2.411249 -0.741948,-4.371789 -1.165917,-5.326042 -0.635955,-1.351324 -1.404401,-2.279158 -1.881367,-2.279158 -0.185487,0 -1.006928,0.318618 -1.881366,1.351324 -1.69588,2.014177 -2.172846,5.406096 -2.172846,7.631618 0,1.431379 0.132491,2.729866 0.582959,5.697495 -0.0265,0.02642 -1.404401,1.430579 -1.960861,1.881287 -2.4113287,2.25194 -5.7500916,5.458132 -5.7500916,10.757755 0,4.955393 4.3191932,8.850853 9.2478436,8.850853 0.768445,0 1.483894,-0.0793 2.093351,-0.18573 0.503464,2.54414 0.794943,4.39901 0.794943,5.80317 0,2.75548 -1.4044,4.21328 -4.08071,4.21328 -0.635955,0 -1.192415,-0.13289 -1.245411,-0.13289 -0.0265,-0.0264 -0.07949,-0.0528 -0.07949,-0.0793 0,-0.0528 0.053,-0.0793 0.132491,-0.10568 1.245412,-0.18572 2.490823,-1.24565 2.490823,-2.94121 0,-1.43138 -1.086423,-2.94121 -3.073782,-2.94121 -1.8548679,0 -3.0472832,1.50983 -3.0472832,3.25903 M 608.97957,103.38485 c 0,1.13918 0.82136,2.41125 2.96763,2.41125 2.75549,0 5.64386,-2.25274 5.64386,-4.58474 0,-1.562665 -1.32491,-2.437664 -2.96763,-2.437664 -2.57056,0 -5.64386,2.172684 -5.64386,4.611154 m -48.2714,62.87739 c 0,1.13918 0.82136,2.41125 2.96763,2.41125 2.75548,0 5.64385,-2.25194 5.64385,-4.58393 0,-1.56347 -1.3249,-2.43767 -2.96762,-2.43767 -2.57056,0 -5.64386,2.17268 -5.64386,4.61035 m 14.56115,-141.1365 c -0.87419,0 -1.05992,-0.714889 -1.05992,-0.953452 0,-1.298568 4.45184,-3.577406 5.69749,-3.577406 0.63564,0 1.05993,0.370973 1.05993,0.953932 0,1.324906 -4.47826,3.576926 -5.6975,3.576926 m 3.6569,-5.77627 c -2.57055,0 -5.64386,2.146348 -5.64386,4.610673 0,1.139179 0.82137,2.411248 2.96763,2.411248 2.75549,0 5.64386,-2.251939 5.64386,-4.584094 0,-1.563389 -1.3249,-2.437827 -2.96763,-2.437827 M 543.46678,169.5717 c 0,1.13918 0.82136,2.41125 2.96763,2.41125 2.75548,0 5.64386,-2.25274 5.64386,-4.58393 0,-1.56347 -1.32491,-2.43847 -2.96763,-2.43847 -2.57056,0 -5.64386,2.17349 -5.64386,4.61115 M 602.33503,23.960143 c 0,1.139179 0.82136,2.411248 2.96763,2.411248 2.75548,0 5.64386,-2.251939 5.64386,-4.584094 0,-1.563389 -1.32491,-2.437827 -2.96763,-2.437827 -2.57056,0 -5.64386,2.172846 -5.64386,4.610673 M 526.22459,166.26224 c 0,1.13918 0.82136,2.41125 2.96843,2.41125 2.75548,0 5.64386,-2.25194 5.64386,-4.58393 0,-1.56347 -1.32491,-2.43767 -2.96763,-2.43767 -2.57056,0 -5.64466,2.17268 -5.64466,4.61035 M 621.70347,23.960143 c 0,1.139179 0.82136,2.411248 2.96763,2.411248 2.75549,0 5.64386,-2.251939 5.64386,-4.584094 0,-1.563389 -1.32491,-2.437827 -2.96763,-2.437827 -2.57056,0 -5.64386,2.172846 -5.64386,4.610673 M 508.9832,162.95278 c 0,1.13918 0.82136,2.41125 2.96763,2.41125 2.75628,0 5.64466,-2.25194 5.64466,-4.58394 0,-1.56347 -1.32491,-2.43766 -2.96843,-2.43766 -2.56976,0 -5.64386,2.17268 -5.64386,4.61035 M 641.07192,20.65076 c 0,1.139419 0.82136,2.411329 2.96762,2.411329 2.75549,0 5.64386,-2.25234 5.64386,-4.584175 0,-1.563389 -1.3249,-2.437827 -2.96763,-2.437827 -2.57055,0 -5.64385,2.172846 -5.64385,4.610673 m 19.36844,-3.309303 c 0,1.139419 0.82136,2.411329 2.96763,2.411329 2.75548,0 5.64386,-2.25234 5.64386,-4.584175 0,-1.563388 -1.32491,-2.437826 -2.96763,-2.437826 -2.57056,0 -5.64386,2.172845 -5.64386,4.610672 M 101.61907,25.12574 c -0.8742,0 -1.05993,-0.714889 -1.05993,-0.953452 0,-1.298568 4.45184,-3.577406 5.6975,-3.577406 0.63563,0 1.05992,0.370973 1.05992,0.953932 0,1.324906 -4.47826,3.576926 -5.69749,3.576926 m 3.6569,-5.77627 c -2.57056,0 -5.643863,2.146348 -5.643863,4.610673 0,1.139179 0.821363,2.411248 2.967633,2.411248 2.75548,0 5.64386,-2.251939 5.64386,-4.584094 0,-1.563389 -1.32491,-2.437827 -2.96763,-2.437827 m 375.70889,146.91277 c 0,1.13918 0.82136,2.41125 2.96843,2.41125 2.75548,0 5.64385,-2.25194 5.64385,-4.58393 0,-1.56347 -1.3249,-2.43767 -2.96762,-2.43767 -2.57056,0 -5.64466,2.17268 -5.64466,4.61035 M 418.77272,27.269606 c 0,1.139178 0.82136,2.411248 2.96843,2.411248 2.75548,0 5.64386,-2.25274 5.64386,-4.583934 0,-1.563469 -1.32491,-2.438067 -2.96763,-2.438067 -2.57056,0 -5.64466,2.173086 -5.64466,4.610753 M 463.74347,169.5717 c 0,1.13918 0.82136,2.41125 2.96763,2.41125 2.75628,0 5.64466,-2.25274 5.64466,-4.58393 0,-1.56347 -1.32491,-2.43847 -2.96843,-2.43847 -2.56976,0 -5.64386,2.17349 -5.64386,4.61115 m 117.98947,4.47506 c -0.875,0 -1.05992,-0.71569 -1.05992,-0.95425 0,-1.29769 4.45104,-3.57684 5.69669,-3.57684 0.63564,0 1.05993,0.37065 1.05993,0.95425 0,1.3249 -4.47826,3.57684 -5.6967,3.57684 m 3.6561,-5.77675 c -2.56975,0 -5.64386,2.14627 -5.64386,4.61116 0,1.13918 0.82136,2.41125 2.96763,2.41125 2.75629,0 5.64466,-2.25274 5.64466,-4.58474 0,-1.56267 -1.3249,-2.43767 -2.96843,-2.43767 m -138.88696,4.61116 c 0,1.13918 0.82136,2.41125 2.96763,2.41125 2.75628,0 5.64386,-2.25274 5.64386,-4.58474 0,-1.56267 -1.32491,-2.43767 -2.96763,-2.43767 -2.56976,0 -5.64386,2.17269 -5.64386,4.61116 M 70.798796,27.269606 c 0,1.139178 0.821361,2.411248 2.967629,2.411248 2.755484,0 5.643859,-2.25274 5.643859,-4.583934 0,-1.563469 -1.324906,-2.438067 -2.967629,-2.438067 -2.570558,0 -5.643859,2.173086 -5.643859,4.610753 M 429.26069,172.88117 c 0,1.13918 0.82136,2.41125 2.96763,2.41125 2.75548,0 5.64386,-2.25274 5.64386,-4.58474 0,-1.56267 -1.32491,-2.43767 -2.96763,-2.43767 -2.57056,0 -5.64386,2.17269 -5.64386,4.61116 M 56.156784,90.146998 c 0,1.139179 0.821362,2.411248 2.967629,2.411248 2.755484,0 5.643859,-2.251939 5.643859,-4.583934 0,-1.563469 -1.324906,-2.437667 -2.967629,-2.437667 -2.570557,0 -5.643859,2.172686 -5.643859,4.610353 M 412.0185,166.26224 c 0,1.13918 0.82216,2.41125 2.96843,2.41125 2.75548,0 5.64386,-2.25194 5.64386,-4.58393 0,-1.56347 -1.32491,-2.43767 -2.96763,-2.43767 -2.57056,0 -5.64466,2.17268 -5.64466,4.61035 M 76.393821,96.765923 c 0,1.139179 0.821362,2.411249 2.967629,2.411249 2.755481,0 5.643856,-2.25274 5.643856,-4.583934 0,-1.563469 -1.324906,-2.438467 -2.967629,-2.438467 -2.570554,0 -5.643856,2.173486 -5.643856,4.611152 M 394.77711,159.64332 c 0,1.13917 0.82136,2.41124 2.96763,2.41124 2.75629,0 5.64466,-2.25194 5.64466,-4.58393 0,-1.56347 -1.32491,-2.43767 -2.96763,-2.43767 -2.57056,0 -5.64466,2.17269 -5.64466,4.61036 M 96.630855,103.38485 c 0,1.13918 0.821362,2.41125 2.967629,2.41125 2.755486,0 5.643856,-2.25274 5.643856,-4.58474 0,-1.562665 -1.3249,-2.437664 -2.96763,-2.437664 -2.570554,0 -5.643855,2.172684 -5.643855,4.611154 m 20.237035,0 c 0,1.13918 0.82136,2.41125 2.96763,2.41125 2.75549,0 5.64386,-2.25274 5.64386,-4.58474 0,-1.562665 -1.32491,-2.437664 -2.96763,-2.437664 -2.57056,0 -5.64386,2.172684 -5.64386,4.611154 m 11.81688,-79.424707 c 0,1.139179 0.82136,2.411248 2.96763,2.411248 2.75549,0 5.64386,-2.251939 5.64386,-4.584094 0,-1.563389 -1.32491,-2.437827 -2.96763,-2.437827 -2.57056,0 -5.64386,2.172846 -5.64386,4.610673 m 238.0948,132.373707 c 0,1.13998 0.82136,2.41125 2.96763,2.41125 2.75548,0 5.64386,-2.25194 5.64386,-4.58393 0,-1.56347 -1.32491,-2.43767 -2.96763,-2.43767 -2.57056,0 -5.64386,2.17269 -5.64386,4.61035 M 137.10493,100.07539 c 0,1.13918 0.82136,2.41124 2.96763,2.41124 2.75548,0 5.64386,-2.25274 5.64386,-4.583929 0,-1.563469 -1.32491,-2.438468 -2.96763,-2.438468 -2.57056,0 -5.64386,2.173487 -5.64386,4.611157 m 212.43245,52.949 c 0,1.13998 0.82136,2.41205 2.96843,2.41205 2.75548,0 5.64386,-2.25274 5.64386,-4.58474 0,-1.56346 -1.32491,-2.43766 -2.96763,-2.43766 -2.57056,0 -5.64466,2.17268 -5.64466,4.61035 M 157.34197,96.765923 c 0,1.139179 0.82136,2.411249 2.96763,2.411249 2.75548,0 5.64385,-2.25274 5.64385,-4.583934 0,-1.563469 -1.3249,-2.438467 -2.96762,-2.438467 -2.57056,0 -5.64386,2.173486 -5.64386,4.611152 m 174.95402,52.949807 c 0,1.13918 0.82136,2.41125 2.96763,2.41125 2.75628,0 5.64466,-2.25274 5.64466,-4.58474 0,-1.56267 -1.32491,-2.43767 -2.96843,-2.43767 -2.56976,0 -5.64386,2.17269 -5.64386,4.61116 M 399.40428,30.579068 c 0,1.139179 0.82136,2.411249 2.96843,2.411249 2.75548,0 5.64385,-2.25274 5.64385,-4.583934 0,-1.563469 -1.3249,-2.438468 -2.96762,-2.438468 -2.57056,0 -5.64466,2.173487 -5.64466,4.611153 M 315.0546,149.71573 c 0,1.13918 0.82136,2.41125 2.96763,2.41125 2.75548,0 5.64386,-2.25274 5.64386,-4.58474 0,-1.56267 -1.32491,-2.43767 -2.96763,-2.43767 -2.57056,0 -5.64386,2.17269 -5.64386,4.61116 M 187.04307,93.456461 c 0,1.139179 0.82137,2.411248 2.96843,2.411248 2.75549,0 5.64386,-2.251939 5.64386,-4.583934 0,-1.563469 -1.3249,-2.437667 -2.96763,-2.437667 -2.57055,0 -5.64466,2.172686 -5.64466,4.610353 m 110.77014,52.949799 c 0,1.13918 0.82136,2.41125 2.96763,2.41125 2.75549,0 5.64386,-2.25274 5.64386,-4.58393 0,-1.56347 -1.3249,-2.43847 -2.96763,-2.43847 -2.57056,0 -5.64386,2.17349 -5.64386,4.61115 m -90.5331,-49.640337 c 0,1.139179 0.82136,2.411249 2.96843,2.411249 2.75548,0 5.64386,-2.25274 5.64386,-4.583934 0,-1.563469 -1.32491,-2.438467 -2.96763,-2.438467 -2.57056,0 -5.64466,2.173486 -5.64466,4.611152 m 73.29091,52.949807 c 0,1.13918 0.82217,2.41125 2.96843,2.41125 2.75549,0 5.64386,-2.25274 5.64386,-4.58474 0,-1.56267 -1.3249,-2.43767 -2.96763,-2.43767 -2.57055,0 -5.64466,2.17269 -5.64466,4.61116 m -53.05387,-49.64034 c 0,1.13918 0.82136,2.41124 2.96763,2.41124 2.75628,0 5.64466,-2.25274 5.64466,-4.583929 0,-1.563469 -1.32491,-2.438468 -2.96763,-2.438468 -2.57056,0 -5.64466,2.173487 -5.64466,4.611157 m 20.23704,-3.309467 c 0,1.139179 0.82136,2.411249 2.96762,2.411249 2.75629,0 5.64466,-2.25274 5.64466,-4.583934 0,-1.563469 -1.3249,-2.438467 -2.96763,-2.438467 -2.57055,0 -5.64465,2.173486 -5.64465,4.611152 m -99.70097,-72.80578 c 0,1.139179 0.82136,2.411248 2.96762,2.411248 2.75549,0 5.64386,-2.251939 5.64386,-4.584094 0,-1.563389 -1.3249,-2.437827 -2.96763,-2.437827 -2.57055,0 -5.64385,2.172846 -5.64385,4.610673 m 121.92576,80.590307 c -0.875,0 -1.05992,-0.71569 -1.05992,-0.95426 0,-1.29768 4.45104,-3.57684 5.69669,-3.57684 0.63644,0 1.05993,0.37065 1.05993,0.95425 0,1.32491 -4.47827,3.57685 -5.6967,3.57685 m 3.6561,-5.776754 c -2.56976,0 -5.64386,2.146264 -5.64386,4.611154 0,1.13918 0.82136,2.41125 2.96763,2.41125 2.75629,0 5.64466,-2.25274 5.64466,-4.58474 0,-1.562665 -1.3249,-2.437664 -2.96843,-2.437664 m -21.0616,54.250694 c 0,1.13998 0.82136,2.41205 2.96763,2.41205 2.75548,0 5.64386,-2.25274 5.64386,-4.58474 0,-1.56346 -1.32491,-2.43766 -2.96763,-2.43766 -2.57056,0 -5.64386,2.17268 -5.64386,4.61035 M 380.03583,30.579068 c 0,1.139179 0.82136,2.411249 2.96763,2.411249 2.75629,0 5.64466,-2.25274 5.64466,-4.583934 0,-1.563469 -1.3249,-2.438468 -2.96763,-2.438468 -2.57056,0 -5.64466,2.173487 -5.64466,4.611153 M 228.69796,157.50025 c -0.8742,0 -1.05993,-0.71569 -1.05993,-0.95425 0,-1.29849 4.45184,-3.57685 5.6975,-3.57685 0.63563,0 1.05992,0.37066 1.05992,0.95345 0,1.32491 -4.47826,3.57765 -5.69749,3.57765 m 3.6569,-5.77675 c -2.57056,0 -5.64386,2.14627 -5.64386,4.61035 0,1.13998 0.82136,2.41125 2.96763,2.41125 2.75548,0 5.64386,-2.25194 5.64386,-4.58393 0,-1.56347 -1.32491,-2.43767 -2.96763,-2.43767 M 360.66739,27.269606 c 0,1.139178 0.82136,2.411248 2.96763,2.411248 2.75628,0 5.64466,-2.25274 5.64466,-4.583934 0,-1.563469 -1.32491,-2.438067 -2.96843,-2.438067 -2.56976,0 -5.64386,2.173086 -5.64386,4.610753 M 209.46961,156.33385 c 0,1.13998 0.82136,2.41125 2.96763,2.41125 2.75548,0 5.64386,-2.25194 5.64386,-4.58393 0,-1.56347 -1.32491,-2.43767 -2.96763,-2.43767 -2.57056,0 -5.64386,2.17269 -5.64386,4.61035 m 100.3294,-55.09287 c -0.8742,0 -1.05993,-0.71569 -1.05993,-0.95345 0,-1.298486 4.45185,-3.577645 5.6967,-3.577645 0.63643,0 1.05992,0.370654 1.05992,0.954253 0,1.324906 -4.47746,3.576842 -5.69669,3.576842 m 3.6569,-5.776747 c -2.57056,0 -5.64466,2.146268 -5.64466,4.611157 0,1.13918 0.82216,2.41124 2.96843,2.41124 2.75548,0 5.64386,-2.25274 5.64386,-4.583929 0,-1.563469 -1.32491,-2.438468 -2.96763,-2.438468 M 192.22742,156.33385 c 0,1.13998 0.82216,2.41125 2.96843,2.41125 2.75548,0 5.64386,-2.25194 5.64386,-4.58393 0,-1.56347 -1.32491,-2.43767 -2.96763,-2.43767 -2.57056,0 -5.64466,2.17269 -5.64466,4.61035 m 147.92674,-55.09287 c -0.87419,0 -1.05992,-0.71569 -1.05992,-0.95345 0,-1.298486 4.45184,-3.577645 5.69749,-3.577645 0.63564,0 1.05993,0.370654 1.05993,0.954253 0,1.324906 -4.47826,3.576842 -5.6975,3.576842 m 3.6569,-5.776747 c -2.57055,0 -5.64386,2.146268 -5.64386,4.611157 0,1.13918 0.82137,2.41124 2.96763,2.41124 2.75549,0 5.64386,-2.25274 5.64386,-4.583929 0,-1.563469 -1.3249,-2.438468 -2.96763,-2.438468 M 167.42166,20.65076 c 0,1.139419 0.82136,2.411329 2.96763,2.411329 2.75548,0 5.64386,-2.25234 5.64386,-4.584175 0,-1.563389 -1.32491,-2.437827 -2.96763,-2.437827 -2.57056,0 -5.64386,2.172846 -5.64386,4.610673 m 7.56437,129.06497 c 0,1.13918 0.82136,2.41125 2.96763,2.41125 2.75628,0 5.64466,-2.25274 5.64466,-4.58474 0,-1.56267 -1.32491,-2.43767 -2.96763,-2.43767 -2.57056,0 -5.64466,2.17269 -5.64466,4.61116 M 544.44905,27.269606 c 0,1.139178 0.82136,2.411248 2.96763,2.411248 2.75548,0 5.64386,-2.25274 5.64386,-4.583934 0,-1.563469 -1.32491,-2.438067 -2.96763,-2.438067 -2.57056,0 -5.64386,2.173086 -5.64386,4.610753 m -203.1501,-3.309463 c 0,1.139179 0.82136,2.411248 2.96763,2.411248 2.75628,0 5.64465,-2.251939 5.64465,-4.584094 0,-1.563389 -1.3249,-2.437827 -2.96842,-2.437827 -2.56976,0 -5.64386,2.172846 -5.64386,4.610673 M 186.7901,17.341457 c 0,1.139419 0.82136,2.411329 2.96763,2.411329 2.75628,0 5.64386,-2.25234 5.64386,-4.584175 0,-1.563388 -1.32491,-2.437826 -2.96763,-2.437826 -2.56976,0 -5.64386,2.172845 -5.64386,4.610672 M 142.84405,146.40626 c 0,1.13918 0.82136,2.41125 2.96763,2.41125 2.75549,0 5.64386,-2.25274 5.64386,-4.58393 0,-1.56347 -1.3249,-2.43847 -2.96763,-2.43847 -2.57056,0 -5.64386,2.17349 -5.64386,4.61115 m 263.4033,-59.568725 c 0,1.139979 0.82137,2.411249 2.96763,2.411249 2.75629,0 5.64466,-2.25194 5.64466,-4.583935 0,-1.563469 -1.3249,-2.437666 -2.96843,-2.437666 -2.56975,0 -5.64386,2.172685 -5.64386,4.610352 M 125.60266,143.0968 c 0,1.13918 0.82137,2.41125 2.96763,2.41125 2.75549,0 5.64386,-2.25194 5.64386,-4.58393 0,-1.56347 -1.3249,-2.43767 -2.96763,-2.43767 -2.57055,0 -5.64386,2.17269 -5.64386,4.61035 M 517.38334,41.673054 c -0.87419,0 -1.05992,-0.71569 -1.05992,-0.954253 0,-1.298487 4.45184,-3.576845 5.69749,-3.576845 0.63564,0 1.05993,0.370653 1.05993,0.953452 0,1.324906 -4.47826,3.577646 -5.6975,3.577646 m 3.6569,-5.77675 c -2.57055,0 -5.64386,2.146268 -5.64386,4.610352 0,1.13998 0.82137,2.411249 2.96763,2.411249 2.75549,0 5.64386,-2.25194 5.64386,-4.583934 0,-1.563469 -1.3249,-2.437667 -2.96763,-2.437667 M 312.46563,27.269606 c 0,1.139178 0.82136,2.411248 2.96763,2.411248 2.75629,0 5.64466,-2.25274 5.64466,-4.583934 0,-1.563469 -1.32491,-2.438067 -2.96843,-2.438067 -2.56976,0 -5.64386,2.173086 -5.64386,4.610753 M 108.36048,139.78734 c 0,1.13918 0.82216,2.41125 2.96842,2.41125 2.75549,0 5.64386,-2.25194 5.64386,-4.58394 0,-1.56347 -1.3249,-2.43766 -2.96763,-2.43766 -2.57055,0 -5.64465,2.17268 -5.64465,4.61035 M 215.62342,20.65076 c 0,1.139419 0.82136,2.411329 2.96763,2.411329 2.75548,0 5.64385,-2.25234 5.64385,-4.584175 0,-1.563389 -1.3249,-2.437827 -2.96763,-2.437827 -2.57055,0 -5.64385,2.172846 -5.64385,4.610673 M 617.0595,170.7373 c -0.8742,0 -1.05993,-0.71569 -1.05993,-0.95345 0,-1.29849 4.45185,-3.57765 5.6975,-3.57765 0.63563,0 1.05992,0.37066 1.05992,0.95426 0,1.3249 -4.47826,3.57684 -5.69749,3.57684 m 3.6569,-5.77675 c -2.57056,0 -5.64386,2.14627 -5.64386,4.61115 0,1.13918 0.82136,2.41125 2.96763,2.41125 2.75548,0 5.64386,-2.25274 5.64386,-4.58393 0,-1.56347 -1.32491,-2.43847 -2.96763,-2.43847 M 91.119086,146.40626 c 0,1.13918 0.821362,2.41125 2.96763,2.41125 2.756284,0 5.644659,-2.25274 5.644659,-4.58393 0,-1.56347 -1.324906,-2.43847 -2.967629,-2.43847 -2.570558,0 -5.64466,2.17349 -5.64466,4.61115 M 293.09719,30.579068 c 0,1.139179 0.82136,2.411249 2.96763,2.411249 2.75628,0 5.64466,-2.25274 5.64466,-4.583934 0,-1.563469 -1.32491,-2.438468 -2.96843,-2.438468 -2.56976,0 -5.64386,2.173487 -5.64386,4.611153 M 78.013329,143.0968 c 0,1.13918 0.821361,2.41125 2.967626,2.41125 2.755484,0 5.643858,-2.25194 5.643858,-4.58393 0,-1.56347 -1.324905,-2.43767 -2.967629,-2.43767 -2.570557,0 -5.643855,2.17269 -5.643855,4.61035 M 449.72428,81.385007 c -0.8742,0 -1.05992,-0.71569 -1.05992,-0.954253 0,-1.298488 4.45184,-3.576845 5.69749,-3.576845 0.63564,0 1.05993,0.370653 1.05993,0.953452 0,1.324905 -4.47826,3.577646 -5.6975,3.577646 m 3.6569,-5.77675 c -2.57056,0 -5.64386,2.146267 -5.64386,4.611153 0,1.139179 0.82136,2.411249 2.96763,2.411249 2.75549,0 5.64386,-2.252741 5.64386,-4.584735 0,-1.563469 -1.3249,-2.437667 -2.96763,-2.437667 m 24.7113,4.611153 c 0,1.139179 0.82136,2.411249 2.96763,2.411249 2.75628,0 5.64386,-2.252741 5.64386,-4.584735 0,-1.563469 -1.32491,-2.437667 -2.96763,-2.437667 -2.56976,0 -5.64386,2.172686 -5.64386,4.611153 m 20.23704,0 c 0,1.139179 0.82136,2.411249 2.96762,2.411249 2.75629,0 5.64386,-2.252741 5.64386,-4.584735 0,-1.563469 -1.3249,-2.437667 -2.96763,-2.437667 -2.56975,0 -5.64385,2.172686 -5.64385,4.611153 m -2.30238,-39.712754 c 0,1.13998 0.82216,2.411249 2.96843,2.411249 2.75548,0 5.64386,-2.25194 5.64386,-4.583934 0,-1.563469 -1.32491,-2.437667 -2.96763,-2.437667 -2.57056,0 -5.64466,2.172686 -5.64466,4.610352 M 56.156784,146.40626 c 0,1.13918 0.821362,2.41125 2.967629,2.41125 2.755484,0 5.643859,-2.25274 5.643859,-4.58393 0,-1.56347 -1.324906,-2.43847 -2.967629,-2.43847 -2.570557,0 -5.643859,2.17349 -5.643859,4.61115 M 518.56655,83.528072 c 0,1.13998 0.82136,2.412049 2.96763,2.412049 2.75549,0 5.64386,-2.25274 5.64386,-4.584734 0,-1.563469 -1.32491,-2.437667 -2.96763,-2.437667 -2.57056,0 -5.64386,2.172685 -5.64386,4.610352 M 642.92198,170.7373 c -0.8742,0 -1.05992,-0.71569 -1.05992,-0.95345 0,-1.29849 4.45184,-3.57765 5.69669,-3.57765 0.63644,0 1.05993,0.37066 1.05993,0.95426 0,1.3249 -4.47747,3.57684 -5.6967,3.57684 m 3.6569,-5.77675 c -2.57056,0 -5.64466,2.14627 -5.64466,4.61115 0,1.13918 0.82216,2.41125 2.96843,2.41125 2.75548,0 5.64386,-2.25274 5.64386,-4.58393 0,-1.56347 -1.32491,-2.43847 -2.96763,-2.43847 M 419.73898,83.528072 c 0,1.13998 0.82136,2.412049 2.96763,2.412049 2.75548,0 5.64386,-2.25274 5.64386,-4.584734 0,-1.563469 -1.32491,-2.437667 -2.96763,-2.437667 -2.57056,0 -5.64386,2.172685 -5.64386,4.610352 M 234.99186,27.269606 c 0,1.139178 0.82136,2.411248 2.96763,2.411248 2.75628,0 5.64386,-2.25274 5.64386,-4.583934 0,-1.563469 -1.32491,-2.438067 -2.96763,-2.438067 -2.56976,0 -5.64386,2.173086 -5.64386,4.610753 m 303.81173,59.567929 c 0,1.139979 0.82136,2.411249 2.96763,2.411249 2.75548,0 5.64386,-2.25194 5.64386,-4.583935 0,-1.563469 -1.32491,-2.437666 -2.96763,-2.437666 -2.57056,0 -5.64386,2.172685 -5.64386,4.610352 M 254.3603,33.888531 c 0,1.139179 0.82136,2.411249 2.96763,2.411249 2.75629,0 5.64386,-2.25274 5.64386,-4.584735 0,-1.563469 -1.32491,-2.437667 -2.96763,-2.437667 -2.56976,0 -5.64386,2.172686 -5.64386,4.611153 M 659.57176,80.21941 c 0,1.139179 0.82137,2.411249 2.96763,2.411249 2.75629,0 5.64386,-2.252741 5.64386,-4.584735 0,-1.563469 -1.3249,-2.437667 -2.96763,-2.437667 -2.56975,0 -5.64386,2.172686 -5.64386,4.611153 M 273.72875,33.888531 c 0,1.139179 0.82136,2.411249 2.96762,2.411249 2.75629,0 5.64466,-2.25274 5.64466,-4.584735 0,-1.563469 -1.3249,-2.437667 -2.96843,-2.437667 -2.56975,0 -5.64385,2.172686 -5.64385,4.611153 M 568.5055,90.146998 c 0,1.139179 0.82136,2.411248 2.96763,2.411248 2.75548,0 5.64386,-2.251939 5.64386,-4.583934 0,-1.563469 -1.32491,-2.437667 -2.96763,-2.437667 -2.57056,0 -5.64386,2.172686 -5.64386,4.610353 m 62.69807,14.403452 c -0.8742,0 -1.05993,-0.71569 -1.05993,-0.95426 0,-1.29768 4.45185,-3.57684 5.6975,-3.57684 0.63563,0 1.05992,0.37065 1.05992,0.95425 0,1.32491 -4.47826,3.57685 -5.69749,3.57685 m 3.6569,-5.776754 c -2.57056,0 -5.64386,2.146264 -5.64386,4.611154 0,1.13918 0.82136,2.41125 2.96763,2.41125 2.75548,0 5.64386,-2.25274 5.64386,-4.58474 0,-1.562665 -1.32491,-2.437664 -2.96763,-2.437664 m -46.11793,-2.007773 c 0,1.139179 0.82136,2.411249 2.96762,2.411249 2.75549,0 5.64386,-2.25274 5.64386,-4.583934 0,-1.563469 -1.3249,-2.438467 -2.96763,-2.438467 -2.57055,0 -5.64385,2.173486 -5.64385,4.611152 M 438.14116,23.960143 c 0,1.139179 0.82216,2.411248 2.96843,2.411248 2.75549,0 5.64386,-2.251939 5.64386,-4.584094 0,-1.563389 -1.32491,-2.437827 -2.96763,-2.437827 -2.57056,0 -5.64466,2.172846 -5.64466,4.610673 m 30.82108,4.475059 c -0.8742,0 -1.05993,-0.714888 -1.05993,-0.953451 0,-1.298488 4.45184,-3.577647 5.6967,-3.577647 0.63643,0 1.05992,0.371454 1.05992,0.954253 0,1.324906 -4.47826,3.576845 -5.69669,3.576845 m 3.6569,-5.776349 c -2.57056,0 -5.64466,2.146668 -5.64466,4.610753 0,1.139178 0.82136,2.411248 2.96843,2.411248 2.75548,0 5.64386,-2.25274 5.64386,-4.583934 0,-1.563469 -1.32491,-2.438067 -2.96763,-2.438067 M 78.013329,165.12306 c 0,0.18493 0.158508,0.34424 0.344235,0.34424 0.132891,0 0.291399,-0.10567 0.317817,-0.21215 0,-0.0264 0.238563,-0.95345 0.264981,-1.0335 0.02642,-0.10568 0.264982,-1.11276 1.219231,-2.67623 1.033507,-1.72198 2.623394,-2.96763 3.9483,-4.8225 1.298487,-1.85487 2.093431,-3.60407 2.093431,-5.93526 0,-2.41205 -0.55638,-4.42543 -1.961341,-6.99598 -0.07925,-0.18573 -0.238563,-0.2914 -0.397072,-0.2914 -0.05284,0 -0.106472,0 -0.13289,0.0264 -0.132091,0.0528 -0.184927,0.1593 -0.184927,0.31781 0,0.0801 0.02642,0.21215 0.07925,0.31862 1.059925,2.46409 1.484215,3.86825 1.484215,5.77595 0,2.1999 -0.768525,3.33908 -1.245652,4.16045 -1.722778,2.94121 -4.504676,4.37258 -5.617437,4.74324 -0.185727,0.0793 -0.212145,0.21214 -0.212145,0.2914 v 5.98889 M 616.92135,79.105792 v 22.107148 h 0.66217 V 79.105792 Z M 281.67134,9.6098371 V 31.71667 h 0.66202 V 9.6098371 Z M 568.50511,90.146157 v 20.398783 h 0.66202 V 90.146157 Z M 474.91707,4.6458182 V 25.097769 h 0.66216 V 4.6458182 Z M 301.03989,6.3005432 V 28.407223 h 0.66202 V 6.3005432 Z M 262.30294,9.6098371 V 31.71667 h 0.66201 V 9.6098371 Z M 538.80325,86.836702 v 22.053518 h 0.66201 V 86.836702 Z M 56.156368,146.4054 v 22.05352 h 0.662013 V 146.4054 Z M 518.56613,83.527256 v 22.053514 h 0.66201 V 83.527256 Z m 118.59233,-4.421464 v 22.107148 h 0.66202 V 79.105792 Z m -138.8293,1.112009 v 22.053519 h 0.66202 V 80.217801 Z M 78.012872,143.09595 v 22.0271 h 0.662173 v -22.0271 z M 478.09205,80.217801 v 22.053519 h 0.66201 V 80.217801 Z M 242.93454,4.6458182 V 25.097769 h 0.66202 V 4.6458182 Z M 447.73691,80.217801 v 22.053519 h 0.66203 V 80.217801 Z M 91.119487,146.4054 v 22.05352 h 0.662012 V 146.4054 Z m 17.241313,-6.6189 v 22.05352 h 0.66218 V 139.7865 Z M 320.40829,4.6458182 V 25.097769 h 0.66202 V 4.6458182 Z M 125.60228,143.09595 v 22.05351 h 0.66202 V 143.09595 Z M 215.62306,20.649729 v 20.398946 h 0.66201 V 20.649729 Z M 142.8436,146.4054 v 22.05352 h 0.66218 V 146.4054 Z M 406.24777,86.836702 v 18.705608 h 0.66201 V 86.836702 Z M 341.29851,23.959334 v 18.744064 h 0.66202 V 23.959334 Z M 186.78974,17.340435 v 22.053517 h 0.66202 V 17.340435 Z M 368.61,4.6458182 V 25.097769 h 0.66202 V 4.6458182 Z M 174.98636,149.71407 v 22.05352 h 0.66217 v -22.05352 z m 17.24148,6.61905 v 22.05337 h 0.66202 V 156.33312 Z M 346.10977,75.797122 v 22.106363 h 0.66217 V 75.797122 Z M 209.46916,156.33312 v 22.05337 h 0.66217 v -22.05337 z m 106.2847,-80.535998 v 22.106363 h 0.66202 V 75.797122 Z m -89.04322,80.535998 v 22.05337 h 0.66201 V 156.33312 Z M 387.9784,6.3005432 V 28.407223 h 0.66217 V 6.3005432 Z M 252.57301,153.02352 v 22.05352 h 0.66216 V 153.02352 Z M 167.42119,20.649729 v 20.398946 h 0.66217 V 20.649729 Z m 108.51263,58.456063 v 22.107148 h 0.66201 V 79.105792 Z M 148.05279,23.959334 v 18.744064 h 0.66201 V 23.959334 Z m 107.64407,50.183065 v 20.451639 h 0.66202 V 74.142399 Z m 24.87451,75.571671 v 22.05352 h 0.66217 V 149.71407 Z M 235.45974,75.797122 v 22.106363 h 0.66202 V 75.797122 Z m 62.3531,70.608278 v 22.05352 h 0.66202 V 146.4054 Z M 215.22278,74.142399 v 20.451639 h 0.66201 V 74.142399 Z m 99.83138,75.571671 v 22.05352 h 0.66202 V 149.71407 Z M 187.04351,93.455604 v 18.744066 h 0.66202 V 93.455604 Z M 407.34695,6.3005432 V 28.407223 h 0.66203 V 6.3005432 Z M 332.29564,149.71407 v 22.05352 h 0.66202 v -22.05352 z m 17.2421,3.30945 v 22.05352 h 0.66202 V 153.02352 Z M 165.28379,74.142399 v 20.451639 h 0.66202 V 74.142399 Z m 201.49543,82.190721 v 22.05337 h 0.66202 V 156.33312 Z M 145.04683,75.797122 v 22.106363 h 0.66201 V 75.797122 Z M 128.68439,23.959334 v 18.744064 h 0.66202 V 23.959334 Z m -3.87468,55.146458 v 22.107148 h 0.66202 V 79.105792 Z m 269.96787,80.536788 v 20.39863 h 0.66202 V 159.64258 Z M 104.57275,79.105792 v 22.107148 h 0.66201 V 79.105792 Z M 419.9612,143.63882 v 20.45149 h 0.66202 V 143.63882 Z M 84.335632,74.142399 v 20.451639 h 0.662013 V 74.142399 Z M 437.20253,148.60221 v 22.107 h 0.66201 v -22.107 z M 56.156368,90.146157 v 20.398783 h 0.662013 V 90.146157 Z M 454.44478,148.60221 v 22.107 h 0.66202 v -22.107 z m 17.24133,-3.30867 v 22.10622 h 0.66201 V 145.29354 Z M 426.71536,4.6458182 V 25.097769 h 0.66201 V 4.6458182 Z M 488.92742,143.63882 v 20.45149 h 0.66218 V 143.63882 Z M 99.631715,23.959334 v 18.744064 h 0.662015 V 23.959334 Z M 660.44001,17.340435 v 22.053517 h 0.66202 V 17.340435 Z M 508.98286,162.95203 v 18.74391 h 0.66201 V 162.95203 Z M 641.07145,20.649729 v 20.398946 h 0.66217 V 20.649729 Z M 534.16726,143.63882 v 20.45149 h 0.66202 v -20.45149 z m 87.5358,-119.679486 v 18.744064 h 0.66201 V 23.959334 Z M 551.40858,145.29354 v 22.10622 h 0.66202 V 145.29354 Z M 602.33465,23.959334 v 18.744064 h 0.66202 V 23.959334 Z M 568.65006,143.63882 v 20.45149 h 0.66201 v -20.45149 z m 4.63192,-119.679486 v 18.744064 h 0.66201 V 23.959334 Z m -135.14038,0 v 18.744064 h 0.66202 V 23.959334 Z M 587.68777,148.60221 v 22.107 h 0.66217 v -22.107 z M 78.740554,4.6458182 V 25.097769 h 0.662173 V 4.6458182 Z m 473.650266,0 V 25.097769 h 0.66217 V 4.6458182 Z m 70.6236,140.6477218 v 22.10622 h 0.66202 V 145.29354 Z M 523.33814,16.228581 v 22.106206 h 0.66217 V 16.228581 Z M 648.87679,145.29354 v 22.10622 h 0.66217 V 145.29354 Z M 503.96974,16.228581 v 22.106206 h 0.66201 V 16.228581 Z m 155.60155,63.98922 v 22.053519 h 0.66217 V 80.217801 Z m -62.88691,-6.075402 v 20.451639 h 0.66202 V 74.142399 Z m -176.94582,9.384857 v 20.438034 h 0.66201 V 83.527256 Z M 123.41798,141.45452 v 1.05916 h 12.97371 v -1.05916 z m -17.24133,0 v 1.05916 h 12.97356 v -1.05916 z m -30.347143,0 v 1.05916 h 12.973556 v -1.05916 z m 497.867543,28.35255 2.35761,-0.47713 v 4.37259 l -2.35761,0.50354 v -4.399 m 4.10681,-0.82137 c 0.1593,-0.0264 0.2914,-0.21214 0.2914,-0.37065 v -1.56347 c 0,-0.21214 -0.15851,-0.37145 -0.37066,-0.37145 h -0.0528 l -0.875,0.18572 v -3.9483 h -0.74211 v 4.10761 l -2.35761,0.47633 v -3.73616 h -0.74211 v 3.89547 l -1.03351,0.21214 c -0.15931,0.0264 -0.2914,0.21215 -0.2914,0.37066 v 1.53705 c 0,0.21214 0.15851,0.37065 0.37066,0.37065 h 0.0793 l 0.875,-0.18493 v 4.37179 l -1.03351,0.21215 c -0.15931,0.0264 -0.2914,0.21214 -0.2914,0.37065 v 1.53705 c 0,0.21215 0.15851,0.37146 0.37066,0.37146 h 0.0793 l 0.875,-0.18573 v 3.9483 h 0.74211 v -4.10761 l 2.35761,-0.47713 v 3.73696 h 0.74211 v -3.89546 l 1.00709,-0.18573 c 0.1593,-0.0264 0.2914,-0.21215 0.2914,-0.37065 v -1.56347 c 0,-0.21215 -0.15851,-0.37146 -0.37066,-0.37146 h -0.0528 l -0.875,0.18573 v -4.37179 l 1.00709,-0.18573 m 75.71977,-91.840392 2.35761,-0.477126 v 4.372589 l -2.35761,0.503545 v -4.399008 m 4.10681,-0.821362 c 0.15931,-0.02642 0.2914,-0.212145 0.2914,-0.371454 v -1.562668 c 0,-0.212145 -0.15851,-0.371454 -0.37066,-0.371454 h -0.0528 l -0.875,0.185727 v -3.9483 h -0.74211 v 4.106808 l -2.35761,0.477126 v -3.736154 h -0.74211 v 3.895463 l -1.0335,0.212145 c -0.15931,0.02642 -0.2914,0.211345 -0.2914,0.370654 v 1.537051 c 0,0.212145 0.1585,0.370653 0.37065,0.370653 h 0.0793 l 0.875,-0.184926 v 4.371789 l -1.0335,0.212145 c -0.15931,0.02642 -0.2914,0.212145 -0.2914,0.370654 v 1.53705 c 0,0.212146 0.1585,0.370654 0.37065,0.370654 h 0.0793 l 0.875,-0.184927 v 3.9483 h 0.74211 v -4.107608 l 2.35761,-0.477127 v 3.736155 h 0.74211 v -3.894663 l 1.00709,-0.185727 c 0.15931,-0.02642 0.2914,-0.212145 0.2914,-0.370653 v -1.56347 c 0,-0.212145 -0.15851,-0.371453 -0.37066,-0.371453 h -0.0528 l -0.875,0.185726 v -4.371789 l 1.00709,-0.185727 m -488.69255,70.317684 2.35842,-0.47713 v 4.37259 l -2.35842,0.50354 v -4.399 m 4.10681,-0.82137 c 0.15931,-0.0264 0.2914,-0.21214 0.2914,-0.37065 v -1.56347 c 0,-0.21214 -0.15851,-0.37145 -0.37065,-0.37145 h -0.0528 l -0.8742,0.18572 v -3.94829 h -0.7421 v 4.1076 l -2.35842,0.47633 v -3.73616 h -0.7421 v 3.89547 l -1.03351,0.21214 c -0.15851,0.0264 -0.2914,0.21215 -0.2914,0.37066 v 1.53705 c 0,0.21214 0.15931,0.37065 0.37065,0.37065 h 0.0801 l 0.8742,-0.18493 v 4.37179 l -1.03351,0.21215 c -0.15851,0.0264 -0.2914,0.21214 -0.2914,0.37065 v 1.53705 c 0,0.21215 0.15931,0.37146 0.37065,0.37146 h 0.0801 l 0.8742,-0.18573 v 3.9483 h 0.7421 v -4.10761 l 2.35842,-0.47712 v 3.73695 h 0.7421 v -3.89546 l 1.00629,-0.18573 c 0.15931,-0.0264 0.2914,-0.21215 0.2914,-0.37065 v -1.56347 c 0,-0.21215 -0.15851,-0.37146 -0.37065,-0.37146 h -0.0528 l -0.8742,0.18573 v -4.37179 l 1.00629,-0.18573 m 88.89839,-45.50951 2.35841,-0.477129 v 4.372589 l -2.35841,0.50355 v -4.39901 m 4.1068,-0.821364 c 0.15931,-0.02642 0.2914,-0.212145 0.2914,-0.370654 v -1.563469 c 0,-0.212145 -0.1585,-0.371454 -0.37065,-0.371454 h -0.0528 l -0.87499,0.185727 v -3.948299 h -0.74131 v 4.107608 l -2.35841,0.476326 v -3.736155 h -0.74211 v 3.895464 l -1.03351,0.212145 c -0.15931,0.02642 -0.2914,0.212145 -0.2914,0.370653 v 1.537052 c 0,0.21214 0.15931,0.37065 0.37066,0.37065 h 0.08 l 0.8742,-0.18492 v 4.37179 l -1.03351,0.21214 c -0.15931,0.0264 -0.2914,0.21215 -0.2914,0.37065 v 1.53705 c 0,0.21215 0.15931,0.37146 0.37066,0.37146 h 0.08 l 0.8742,-0.18573 v 3.9483 h 0.74211 v -4.10761 l 2.35841,-0.47712 v 3.73695 h 0.74131 v -3.89546 l 1.00708,-0.18573 c 0.15931,-0.0264 0.2914,-0.21214 0.2914,-0.37065 v -1.56347 c 0,-0.21215 -0.1585,-0.37146 -0.37065,-0.37146 h -0.0528 l -0.87499,0.18573 v -4.371787 l 1.00708,-0.185727 m -19.57898,54.992804 v -4.34537 l 3.0741,-0.875 v 4.37259 l -3.0741,0.84778 m 3.6569,-7.41948 c -0.0528,-0.0528 -0.13289,-0.0793 -0.21215,-0.0793 -0.0264,0 -0.0793,0.0264 -0.10567,0.0264 l -3.33908,0.92703 v -4.63677 h -0.74211 v 13.11617 c 0,0.21214 0.15931,0.34504 0.37145,0.34504 h 0.10568 l 3.33908,-0.92784 v 4.63757 h 0.71489 v -13.11697 c 0,-0.10567 -0.0528,-0.23856 -0.13209,-0.2914 m 62.51252,-43.39763 a 0.16531304,0.16531304 0 0 0 -0.10523,0.0122 0.16531304,0.16531304 0 0 0 -0.10554,-0.008 0.16531304,0.16531304 0 0 0 -0.001,0.0202 0.16531304,0.16531304 0 0 0 -0.02,0.002 0.16531304,0.16531304 0 0 0 0.006,0.1942 0.16531304,0.16531304 0 0 0 -0.001,0.0166 c 2.95669,3.41855 8.80272,5.09223 14.64095,5.09223 5.83823,0 11.68426,-1.67368 14.64095,-5.09223 a 0.16532957,0.16532957 0 0 0 -0.22766,-0.23783 c -2.8401,2.24805 -8.62873,3.41125 -14.41329,3.41125 -5.78456,0 -11.57319,-1.1632 -14.41329,-3.41125 z m 1.21849,1.17831 c 3.1916,1.72392 8.18897,2.56363 13.1948,2.56363 5.00583,0 10.00319,-0.83971 13.1948,-2.56363 -3.09146,2.53144 -8.14007,3.82105 -13.1948,3.82105 -5.05473,0 -10.10335,-1.28961 -13.1948,-3.82105 z m -1.32114,-1.04866 c 5.80637,4.59594 23.22548,4.59594 29.03185,0 -5.80637,6.71339 -23.22548,6.71339 -29.03185,0 m 307.25344,69.33113 a 0.16531304,0.16531304 0 0 0 -0.0447,0.0208 0.16531304,0.16531304 0 0 0 -0.0474,0.0122 0.16531304,0.16531304 0 0 0 -0.002,0.0106 0.16531304,0.16531304 0 0 0 -0.0211,0.01 0.16531304,0.16531304 0 0 0 -0.008,0.19451 0.16531304,0.16531304 0 0 0 -0.002,0.0164 c 2.50128,3.33613 7.45695,4.97512 12.40145,4.97512 4.9445,0 9.90017,-1.63899 12.40145,-4.97512 a 0.16532957,0.16532957 0 0 0 -0.24408,-0.22094 c -2.393,2.19665 -7.27491,3.33494 -12.15737,3.33494 -4.88247,0 -9.76437,-1.13829 -12.15738,-3.33494 a 0.16531304,0.16531304 0 0 0 -0.046,-0.0167 0.16531304,0.16531304 0 0 0 -0.0578,-0.0213 0.16531304,0.16531304 0 0 0 -0.015,-0.005 z m 23.30813,1.27619 c -2.61577,2.40754 -6.81805,3.63263 -11.03192,3.63263 -4.21374,0 -8.41582,-1.22493 -11.03161,-3.63232 2.70945,1.63548 6.86777,2.43244 11.03161,2.43244 4.16403,0 8.32248,-0.79712 11.03192,-2.43275 z m -23.30108,-1.111 c 4.90735,4.50468 19.63102,4.50468 24.53838,0 -4.90736,6.54527 -19.63103,6.54527 -24.53838,0 M 206.15862,9.2458378 V 36.448658 h 1.19112 V 9.2458378 Z M 161.37753,148.23869 v 27.20266 h 1.19128 V 148.23869 Z M 679.80887,78.742416 V 105.94493 H 681 V 78.742416 Z m -120.7682,0 v 27.202514 h 1.19113 V 78.742416 Z M 331.83407,9.2458378 V 36.448658 h 1.19129 V 9.2458378 Z M 271.10693,148.23869 v 27.20266 h 1.19128 V 148.23869 Z M 397.9761,95.653163 c 0,-0.768526 -0.61002,-1.404961 -1.37854,-1.404961 -0.76773,0 -1.37775,0.636435 -1.37775,1.404961 0,0.768525 0.61002,1.40416 1.37775,1.40416 0.76852,0 1.37854,-0.635635 1.37854,-1.40416 m 0,-6.618926 c 0,-0.768526 -0.61002,-1.40416 -1.37854,-1.40416 -0.76773,0 -1.37775,0.635634 -1.37775,1.40416 0,0.768525 0.61002,1.40416 1.37775,1.40416 0.76852,0 1.37854,-0.635635 1.37854,-1.40416 m -6.39555,-10.291821 v 27.202514 h 1.19113 V 78.742416 Z m -6.08932,0 v 27.202514 h 3.63999 V 78.742416 Z m -0.17825,69.496274 v 27.20266 h 1.19129 v -27.20266 z m 0.17825,-69.496274 v 27.202514 h 3.63999 V 78.742416 Z m -3.64061,0 v 27.202514 h 1.19128 V 78.742416 Z m -2.44722,16.910747 c 0,-0.768526 -0.60922,-1.404961 -1.37774,-1.404961 -0.76853,0 -1.37774,0.636435 -1.37774,1.404961 0,0.768525 0.60921,1.40416 1.37774,1.40416 0.76852,0 1.37774,-0.635635 1.37774,-1.40416 m 0,-6.618926 c 0,-0.768526 -0.60922,-1.40416 -1.37774,-1.40416 -0.76853,0 -1.37774,0.635634 -1.37774,1.40416 0,0.768525 0.60921,1.40416 1.37774,1.40416 0.76852,0 1.37774,-0.635635 1.37774,-1.40416 m 120.11486,59.204453 v 27.20266 h 1.19128 V 148.23869 Z M 298.34711,78.742416 v 27.202514 h 1.19129 V 78.742416 Z m -120.76803,0 v 27.202514 h 1.19112 V 78.742416 Z M 90.167276,9.2458378 V 36.448658 h 1.191126 V 9.2458378 Z m 589.641594,0 V 36.448658 H 681 V 9.2458378 Z M 605.60767,148.23869 v 27.20266 h 1.19128 V 148.23869 Z M 563.81753,9.2458378 V 36.448658 h 1.19114 V 9.2458378 Z M 438.27248,78.742416 v 27.202514 h 1.19112 V 78.742416 Z m 239.08706,69.496274 v 27.20266 h 3.64015 v -27.20266 z m -3.63967,0 v 27.20266 H 674.911 V 148.23869 Z M 457.51048,9.2458378 V 36.448658 h 1.19112 V 9.2458378 Z M 0,174.7132 v 0.72768 h 681 v -0.72768 z m 0,-6.61812 v 0.72768 h 681 v -0.72768 z m 0,-6.6189 v 0.72768 h 681 v -0.72768 z m 0,-6.6189 v 0.72768 h 681 v -0.72768 z m 0,-6.61891 v 0.72769 h 681 v -0.72769 z m 0,-43.02144 v 0.72769 h 681 v -0.72769 z m 0,-6.618121 v 0.727681 h 681 v -0.727681 z m 0,-6.618902 v 0.727682 h 681 v -0.727682 z m 0,-6.619054 v 0.727842 h 681 v -0.727842 z m 0,-6.618901 v 0.727681 H 681 V 78.741952 Z M 0,35.720656 v 0.727689 h 681 v -0.727689 z m 0,-6.618269 v 0.727841 h 681 v -0.727841 z m 0,-6.61906 v 0.727685 h 681 v -0.727685 z m 0,-6.618588 v 0.727684 H 681 V 15.864739 Z M 0,9.2459947 V 9.9736795 H 681 V 9.2459947 Z"
     style="stroke-width:0.0800547" />
  <metadata
     id="metadata224">
    <rdf:RDF>
      <cc:Work
         rdf:about="">
        <dc:title>air_LXVI</dc:title>
      </cc:Work>
    </rdf:RDF>
  </metadata>
</svg>
