<?xml version="1.0" encoding="UTF-8" standalone="no"?>
<svg width="210.058mm" height="296.926mm" viewBox="0 0 9924 14028"
 xmlns="http://www.w3.org/2000/svg" xmlns:xlink="http://www.w3.org/1999/xlink" version="1.2" baseProfile="full">
<title>air_LV</title>
<desc>Generated by MuseScore Studio 4.7.3</desc>
<polyline class="StaffLines" fill="none" stroke="#000000" stroke-width="9.09" stroke-linejoin="bevel" points="708.661,828.424 9215.34,828.424" />
<polyline class="StaffLines" fill="none" stroke="#000000" stroke-width="9.09" stroke-linejoin="bevel" points="708.661,911.101 9215.34,911.101" />
<polyline class="StaffLines" fill="none" stroke="#000000" stroke-width="9.09" stroke-linejoin="bevel" points="708.661,993.778 9215.34,993.778" />
<polyline class="StaffLines" fill="none" stroke="#000000" stroke-width="9.09" stroke-linejoin="bevel" points="708.661,1076.46 9215.34,1076.46" />
<polyline class="StaffLines" fill="none" stroke="#000000" stroke-width="9.09" stroke-linejoin="bevel" points="708.661,1159.13 9215.34,1159.13" />
<polyline class="StaffLines" fill="none" stroke="#000000" stroke-width="9.09" stroke-linejoin="bevel" points="708.661,1696.53 9215.34,1696.53" />
<polyline class="StaffLines" fill="none" stroke="#000000" stroke-width="9.09" stroke-linejoin="bevel" points="708.661,1779.21 9215.34,1779.21" />
<polyline class="StaffLines" fill="none" stroke="#000000" stroke-width="9.09" stroke-linejoin="bevel" points="708.661,1861.89 9215.34,1861.89" />
<polyline class="StaffLines" fill="none" stroke="#000000" stroke-width="9.09" stroke-linejoin="bevel" points="708.661,1944.57 9215.34,1944.57" />
<polyline class="StaffLines" fill="none" stroke="#000000" stroke-width="9.09" stroke-linejoin="bevel" points="708.661,2027.24 9215.34,2027.24" />
<polyline class="BarLine" fill="none" stroke="#000000" stroke-width="14.88" stroke-linejoin="bevel" points="4617.22,823.876 4617.22,1163.68" />
<path class="BarLine" d="M9093.83,1820.55 C9093.83,1810.95 9086.22,1803.01 9076.62,1803.01 C9067.02,1803.01 9059.41,1810.95 9059.41,1820.55 C9059.41,1830.15 9067.02,1838.09 9076.62,1838.09 C9086.22,1838.09 9093.83,1830.15 9093.83,1820.55"/>
<path class="BarLine" d="M9093.83,1903.23 C9093.83,1893.63 9086.22,1885.68 9076.62,1885.68 C9067.02,1885.68 9059.41,1893.63 9059.41,1903.23 C9059.41,1912.83 9067.02,1920.77 9076.62,1920.77 C9086.22,1920.77 9093.83,1912.83 9093.83,1903.23"/>
<polyline class="BarLine" fill="none" stroke="#000000" stroke-width="14.88" stroke-linejoin="bevel" points="9131.84,1691.99 9131.84,2031.79" />
<polyline class="BarLine" fill="none" stroke="#000000" stroke-width="45.47" stroke-linejoin="bevel" points="9192.6,1691.99 9192.6,2031.79" />
<polyline class="BarLine" fill="none" stroke="#000000" stroke-width="14.88" stroke-linejoin="bevel" points="8179.8,1691.99 8179.8,2031.79" />
<polyline class="BarLine" fill="none" stroke="#000000" stroke-width="14.88" stroke-linejoin="bevel" points="4101.53,1691.99 4101.53,2031.79" />
<polyline class="BarLine" fill="none" stroke="#000000" stroke-width="14.88" stroke-linejoin="bevel" points="5998.19,823.876 5998.19,1163.68" />
<polyline class="BarLine" fill="none" stroke="#000000" stroke-width="14.88" stroke-linejoin="bevel" points="2651.35,1691.99 2651.35,2031.79" />
<polyline class="BarLine" fill="none" stroke="#000000" stroke-width="14.88" stroke-linejoin="bevel" points="3256.29,823.876 3256.29,1163.68" />
<polyline class="BarLine" fill="none" stroke="#000000" stroke-width="14.88" stroke-linejoin="bevel" points="1861.42,823.876 1861.42,1163.68" />
<path class="BarLine" d="M7111.46,952.439 C7111.46,942.84 7103.85,934.896 7094.25,934.896 C7084.65,934.896 7077.04,942.84 7077.04,952.439 C7077.04,962.038 7084.65,969.982 7094.25,969.982 C7103.85,969.982 7111.46,962.038 7111.46,952.439"/>
<path class="BarLine" d="M7111.46,1035.12 C7111.46,1025.52 7103.85,1017.57 7094.25,1017.57 C7084.65,1017.57 7077.04,1025.52 7077.04,1035.12 C7077.04,1044.72 7084.65,1052.66 7094.25,1052.66 C7103.85,1052.66 7111.46,1044.72 7111.46,1035.12"/>
<polyline class="BarLine" fill="none" stroke="#000000" stroke-width="14.88" stroke-linejoin="bevel" points="7149.47,823.876 7149.47,1163.68" />
<polyline class="BarLine" fill="none" stroke="#000000" stroke-width="45.47" stroke-linejoin="bevel" points="7210.23,823.876 7210.23,1163.68" />
<polyline class="BarLine" fill="none" stroke="#000000" stroke-width="14.88" stroke-linejoin="bevel" points="6699.94,1691.99 6699.94,2031.79" />
<polyline class="BarLine" fill="none" stroke="#000000" stroke-width="45.47" stroke-linejoin="bevel" points="7210.23,823.876 7210.23,1163.68" />
<polyline class="BarLine" fill="none" stroke="#000000" stroke-width="14.88" stroke-linejoin="bevel" points="7271,823.876 7271,1163.68" />
<path class="BarLine" d="M7343.45,952.439 C7343.45,942.84 7335.84,934.896 7326.24,934.896 C7316.64,934.896 7309.03,942.84 7309.03,952.439 C7309.03,962.038 7316.64,969.982 7326.24,969.982 C7335.84,969.982 7343.45,962.038 7343.45,952.439"/>
<path class="BarLine" d="M7343.45,1035.12 C7343.45,1025.52 7335.84,1017.57 7326.24,1017.57 C7316.64,1017.57 7309.03,1025.52 7309.03,1035.12 C7309.03,1044.72 7316.64,1052.66 7326.24,1052.66 C7335.84,1052.66 7343.45,1044.72 7343.45,1035.12"/>
<polyline class="BarLine" fill="none" stroke="#000000" stroke-width="14.88" stroke-linejoin="bevel" points="5581.38,1691.99 5581.38,2031.79" />
<polyline class="BarLine" fill="none" stroke="#000000" stroke-width="14.88" stroke-linejoin="bevel" points="9207.9,823.876 9207.9,1163.68" />
<polyline class="BarLine" fill="none" stroke="#000000" stroke-width="14.88" stroke-linejoin="bevel" points="7826.93,823.876 7826.93,1163.68" />
<path class="TieSegment" stroke="#000000" stroke-width="4.13" stroke-linecap="round" stroke-linejoin="round" fill-rule="evenodd" d="M8349.62,2004.93 C8414.12,2061.57 8607.62,2061.57 8672.12,2004.93 C8607.62,2087.7 8414.12,2087.7 8349.62,2004.93"/>
<path class="Accidental" d="M6330.76,1093.3 L6360.21,1087.34 L6360.21,1141.96 L6330.76,1148.25 L6330.76,1093.3 M6382.06,1083.04 C6384.05,1082.71 6385.7,1080.39 6385.7,1078.4 L6385.7,1058.88 C6385.7,1056.23 6383.72,1054.24 6381.07,1054.24 L6380.41,1054.24 L6369.48,1056.56 L6369.48,1007.24 L6360.21,1007.24 L6360.21,1058.54 L6330.76,1064.5 L6330.76,1017.83 L6321.49,1017.83 L6321.49,1066.49 L6308.58,1069.14 C6306.59,1069.47 6304.94,1071.78 6304.94,1073.77 L6304.94,1092.97 C6304.94,1095.62 6306.92,1097.6 6309.57,1097.6 L6310.56,1097.6 L6321.49,1095.29 L6321.49,1149.9 L6308.58,1152.55 C6306.59,1152.88 6304.94,1155.2 6304.94,1157.18 L6304.94,1176.38 C6304.94,1179.03 6306.92,1181.01 6309.57,1181.01 L6310.56,1181.01 L6321.49,1178.7 L6321.49,1228.02 L6330.76,1228.02 L6330.76,1176.71 L6360.21,1170.75 L6360.21,1217.42 L6369.48,1217.42 L6369.48,1168.77 L6382.06,1166.45 C6384.05,1166.12 6385.7,1163.8 6385.7,1161.82 L6385.7,1142.29 C6385.7,1139.64 6383.72,1137.65 6381.07,1137.65 L6380.41,1137.65 L6369.48,1139.97 L6369.48,1085.36 L6382.06,1083.04 "/>
<path class="Accidental" d="M2336.85,1672.04 L2366.31,1666.08 L2366.31,1720.7 L2336.85,1726.99 L2336.85,1672.04 M2388.15,1661.78 C2390.14,1661.45 2391.79,1659.13 2391.79,1657.14 L2391.79,1637.62 C2391.79,1634.97 2389.81,1632.98 2387.16,1632.98 L2386.5,1632.98 L2375.58,1635.3 L2375.58,1585.98 L2366.31,1585.98 L2366.31,1637.28 L2336.85,1643.24 L2336.85,1596.57 L2327.58,1596.57 L2327.58,1645.23 L2314.67,1647.88 C2312.69,1648.21 2311.03,1650.52 2311.03,1652.51 L2311.03,1671.71 C2311.03,1674.36 2313.02,1676.34 2315.66,1676.34 L2316.66,1676.34 L2327.58,1674.03 L2327.58,1728.64 L2314.67,1731.29 C2312.69,1731.62 2311.03,1733.94 2311.03,1735.92 L2311.03,1755.12 C2311.03,1757.77 2313.02,1759.75 2315.66,1759.75 L2316.66,1759.75 L2327.58,1757.44 L2327.58,1806.76 L2336.85,1806.76 L2336.85,1755.45 L2366.31,1749.49 L2366.31,1796.16 L2375.58,1796.16 L2375.58,1747.51 L2388.15,1745.19 C2390.14,1744.86 2391.79,1742.54 2391.79,1740.56 L2391.79,1721.03 C2391.79,1718.38 2389.81,1716.39 2387.16,1716.39 L2386.5,1716.39 L2375.58,1718.71 L2375.58,1664.1 L2388.15,1661.78 "/>
<path class="Accidental" d="M3939.04,1093.3 L3968.5,1087.34 L3968.5,1141.96 L3939.04,1148.25 L3939.04,1093.3 M3990.34,1083.04 C3992.33,1082.71 3993.98,1080.39 3993.98,1078.4 L3993.98,1058.88 C3993.98,1056.23 3992,1054.24 3989.35,1054.24 L3988.69,1054.24 L3977.76,1056.56 L3977.76,1007.24 L3968.5,1007.24 L3968.5,1058.54 L3939.04,1064.5 L3939.04,1017.83 L3929.77,1017.83 L3929.77,1066.49 L3916.86,1069.14 C3914.87,1069.47 3913.22,1071.78 3913.22,1073.77 L3913.22,1092.97 C3913.22,1095.62 3915.2,1097.6 3917.85,1097.6 L3918.85,1097.6 L3929.77,1095.29 L3929.77,1149.9 L3916.86,1152.55 C3914.87,1152.88 3913.22,1155.2 3913.22,1157.18 L3913.22,1176.38 C3913.22,1179.03 3915.2,1181.01 3917.85,1181.01 L3918.85,1181.01 L3929.77,1178.7 L3929.77,1228.02 L3939.04,1228.02 L3939.04,1176.71 L3968.5,1170.75 L3968.5,1217.42 L3977.76,1217.42 L3977.76,1168.77 L3990.34,1166.45 C3992.33,1166.12 3993.98,1163.8 3993.98,1161.82 L3993.98,1142.29 C3993.98,1139.64 3992,1137.65 3989.35,1137.65 L3988.69,1137.65 L3977.76,1139.97 L3977.76,1085.36 L3990.34,1083.04 "/>
<polyline class="Stem" fill="none" stroke="#000000" stroke-width="8.27" stroke-linejoin="bevel" points="5795.52,1931.34 5795.52,1655.2" />
<polyline class="Stem" fill="none" stroke="#000000" stroke-width="8.27" stroke-linejoin="bevel" points="8732.97,1931.34 8732.97,1655.2" />
<polyline class="Stem" fill="none" stroke="#000000" stroke-width="8.27" stroke-linejoin="bevel" points="7450.91,966.329 7450.91,1221.71" />
<polyline class="Stem" fill="none" stroke="#000000" stroke-width="8.27" stroke-linejoin="bevel" points="4117.94,1104.57 4117.94,828.424" />
<polyline class="Stem" fill="none" stroke="#000000" stroke-width="8.27" stroke-linejoin="bevel" points="5346.57,1917.12 5346.57,2130.22" />
<polyline class="Stem" fill="none" stroke="#000000" stroke-width="8.27" stroke-linejoin="bevel" points="5120.54,1875.78 5120.54,2109.92" />
<polyline class="Stem" fill="none" stroke="#000000" stroke-width="8.27" stroke-linejoin="bevel" points="2244.84,883.652 2244.84,1159.13" />
<polyline class="Stem" fill="none" stroke="#000000" stroke-width="8.27" stroke-linejoin="bevel" points="4435.65,1104.57 4435.65,829.085" />
<polyline class="Stem" fill="none" stroke="#000000" stroke-width="8.27" stroke-linejoin="bevel" points="4894.52,1834.44 4894.52,2089.62" />
<polyline class="Stem" fill="none" stroke="#000000" stroke-width="8.27" stroke-linejoin="bevel" points="3738.93,1021.89 3738.93,779.898" />
<polyline class="Stem" fill="none" stroke="#000000" stroke-width="8.27" stroke-linejoin="bevel" points="4668.5,1875.78 4668.5,2130.59" />
<polyline class="Stem" fill="none" stroke="#000000" stroke-width="8.27" stroke-linejoin="bevel" points="4831.36,1063.23 4831.36,766.416" />
<polyline class="Stem" fill="none" stroke="#000000" stroke-width="8.27" stroke-linejoin="bevel" points="4442.47,1917.12 4442.47,2130.59" />
<polyline class="Stem" fill="none" stroke="#000000" stroke-width="8.27" stroke-linejoin="bevel" points="6126.09,1793.1 6126.09,2068.58" />
<polyline class="Stem" fill="none" stroke="#000000" stroke-width="8.27" stroke-linejoin="bevel" points="7944.98,1917.12 7944.98,2130.22" />
<polyline class="Stem" fill="none" stroke="#000000" stroke-width="8.27" stroke-linejoin="bevel" points="5099.86,1021.89 5099.86,766.416" />
<polyline class="Stem" fill="none" stroke="#000000" stroke-width="8.27" stroke-linejoin="bevel" points="4216.45,1793.1 4216.45,2130.59" />
<polyline class="Stem" fill="none" stroke="#000000" stroke-width="8.27" stroke-linejoin="bevel" points="5241.07,1063.23 5241.07,766.416" />
<polyline class="Stem" fill="none" stroke="#000000" stroke-width="8.27" stroke-linejoin="bevel" points="8931.09,1063.23 8931.09,828.424" />
<polyline class="Stem" fill="none" stroke="#000000" stroke-width="8.27" stroke-linejoin="bevel" points="5452.87,1063.23 5452.87,766.416" />
<polyline class="Stem" fill="none" stroke="#000000" stroke-width="8.27" stroke-linejoin="bevel" points="3866.71,1834.44 3866.71,2047.53" />
<polyline class="Stem" fill="none" stroke="#000000" stroke-width="8.27" stroke-linejoin="bevel" points="3716.03,1793.1 3716.03,2033.55" />
<polyline class="Stem" fill="none" stroke="#000000" stroke-width="8.27" stroke-linejoin="bevel" points="7718.96,1875.78 7718.96,2109.92" />
<polyline class="Stem" fill="none" stroke="#000000" stroke-width="8.27" stroke-linejoin="bevel" points="5721.38,1021.89 5721.38,766.416" />
<polyline class="Stem" fill="none" stroke="#000000" stroke-width="8.27" stroke-linejoin="bevel" points="3880.13,1063.23 3880.13,786.881" />
<polyline class="Stem" fill="none" stroke="#000000" stroke-width="8.27" stroke-linejoin="bevel" points="5862.58,1063.23 5862.58,766.416" />
<polyline class="Stem" fill="none" stroke="#000000" stroke-width="8.27" stroke-linejoin="bevel" points="3429.5,1751.76 3429.5,2006.96" />
<polyline class="Stem" fill="none" stroke="#000000" stroke-width="8.27" stroke-linejoin="bevel" points="3470.42,980.55 3470.42,766.62" />
<polyline class="Stem" fill="none" stroke="#000000" stroke-width="8.27" stroke-linejoin="bevel" points="3203.48,1875.78 3203.48,2088.68" />
<polyline class="Stem" fill="none" stroke="#000000" stroke-width="8.27" stroke-linejoin="bevel" points="6212.32,1063.23 6212.32,828.424" />
<polyline class="Stem" fill="none" stroke="#000000" stroke-width="8.27" stroke-linejoin="bevel" points="3052.8,1793.1 3052.8,2067.7" />
<polyline class="Stem" fill="none" stroke="#000000" stroke-width="8.27" stroke-linejoin="bevel" points="6465.13,1834.44 6465.13,2088.92" />
<polyline class="Stem" fill="none" stroke="#000000" stroke-width="8.27" stroke-linejoin="bevel" points="7492.94,1834.44 7492.94,2089.62" />
<polyline class="Stem" fill="none" stroke="#000000" stroke-width="8.27" stroke-linejoin="bevel" points="6509.66,1104.57 6509.66,828.424" />
<polyline class="Stem" fill="none" stroke="#000000" stroke-width="8.27" stroke-linejoin="bevel" points="2766.27,1669.09 2766.27,2027.82" />
<polyline class="Stem" fill="none" stroke="#000000" stroke-width="8.27" stroke-linejoin="bevel" points="3021.47,1049.01 3021.47,1262.08" />
<polyline class="Stem" fill="none" stroke="#000000" stroke-width="8.27" stroke-linejoin="bevel" points="6650.86,1063.23 6650.86,828.424" />
<polyline class="Stem" fill="none" stroke="#000000" stroke-width="8.27" stroke-linejoin="bevel" points="9072.3,1104.57 9072.3,828.424" />
<polyline class="Stem" fill="none" stroke="#000000" stroke-width="8.27" stroke-linejoin="bevel" points="6862.67,1021.89 6862.67,766.416" />
<polyline class="Stem" fill="none" stroke="#000000" stroke-width="8.27" stroke-linejoin="bevel" points="1679.85,1063.23 1679.85,787.747" />
<polyline class="Stem" fill="none" stroke="#000000" stroke-width="8.27" stroke-linejoin="bevel" points="2416.54,1710.42 2416.54,1985.57" />
<polyline class="Stem" fill="none" stroke="#000000" stroke-width="8.27" stroke-linejoin="bevel" points="2809.67,1007.67 2809.67,1241.81" />
<polyline class="Stem" fill="none" stroke="#000000" stroke-width="8.27" stroke-linejoin="bevel" points="8393.93,1931.34 8393.93,1655.2" />
<polyline class="Stem" fill="none" stroke="#000000" stroke-width="8.27" stroke-linejoin="bevel" points="8662.59,1104.57 8662.59,828.424" />
<polyline class="Stem" fill="none" stroke="#000000" stroke-width="8.27" stroke-linejoin="bevel" points="2597.86,966.329 2597.86,1221.54" />
<polyline class="Stem" fill="none" stroke="#000000" stroke-width="8.27" stroke-linejoin="bevel" points="2077.5,1710.42 2077.5,1985.9" />
<polyline class="Stem" fill="none" stroke="#000000" stroke-width="8.27" stroke-linejoin="bevel" points="7592.12,1007.67 7592.12,1241.24" />
<polyline class="Stem" fill="none" stroke="#000000" stroke-width="8.27" stroke-linejoin="bevel" points="1950.69,1972.68 1950.69,1696.53" />
<polyline class="Stem" fill="none" stroke="#000000" stroke-width="8.27" stroke-linejoin="bevel" points="1800.01,1931.34 1800.01,1696.53" />
<polyline class="Stem" fill="none" stroke="#000000" stroke-width="8.27" stroke-linejoin="bevel" points="2386.05,924.991 2386.05,1159.13" />
<polyline class="Stem" fill="none" stroke="#000000" stroke-width="8.27" stroke-linejoin="bevel" points="8041.07,1021.89 8041.07,808.163" />
<polyline class="Stem" fill="none" stroke="#000000" stroke-width="8.27" stroke-linejoin="bevel" points="1976.34,924.991 1976.34,1159.13" />
<polyline class="Stem" fill="none" stroke="#000000" stroke-width="8.27" stroke-linejoin="bevel" points="7266.91,1875.78 7266.91,2130.59" />
<polyline class="Stem" fill="none" stroke="#000000" stroke-width="8.27" stroke-linejoin="bevel" points="1513.48,1972.68 1513.48,1696.53" />
<polyline class="Stem" fill="none" stroke="#000000" stroke-width="8.27" stroke-linejoin="bevel" points="8309.57,1063.23 8309.57,834.719" />
<polyline class="Stem" fill="none" stroke="#000000" stroke-width="8.27" stroke-linejoin="bevel" points="6814.86,1793.1 6814.86,2130.59" />
<polyline class="Stem" fill="none" stroke="#000000" stroke-width="8.27" stroke-linejoin="bevel" points="8450.78,1104.57 8450.78,848.684" />
<polyline class="Stem" fill="none" stroke="#000000" stroke-width="8.27" stroke-linejoin="bevel" points="7040.89,1917.12 7040.89,2130.59" />
<path class="Hook" d="M2412.4,1985.57 C2412.4,1987.89 2414.39,1989.88 2416.71,1989.88 C2418.36,1989.88 2420.35,1988.55 2420.68,1987.23 C2420.68,1986.9 2423.66,1975.31 2423.99,1974.32 C2424.32,1973 2427.3,1960.42 2439.21,1940.89 C2452.12,1919.37 2471.98,1903.82 2488.53,1880.65 C2504.75,1857.48 2514.68,1835.63 2514.68,1806.5 C2514.68,1776.38 2507.73,1751.23 2490.19,1719.12 C2489.19,1716.8 2487.21,1715.48 2485.22,1715.48 C2484.56,1715.48 2483.9,1715.48 2483.57,1715.81 C2481.91,1716.47 2481.25,1717.79 2481.25,1719.78 C2481.25,1720.77 2481.58,1722.43 2482.24,1723.75 C2495.48,1754.54 2500.78,1772.08 2500.78,1795.91 C2500.78,1823.38 2491.18,1837.62 2485.22,1847.88 C2463.71,1884.62 2428.95,1902.49 2415.05,1907.13 C2412.73,1908.12 2412.4,1909.77 2412.4,1910.77 L2412.4,1985.57 "/>
<path class="Hook" d="M1675.71,862.222 C1675.71,863.215 1676.04,864.87 1678.36,865.863 C1692.59,870.497 1721.06,888.371 1742.57,925.112 C1748.53,935.373 1758.13,949.606 1758.13,977.079 C1758.13,1000.91 1751.84,1025.41 1743.24,1049.24 C1742.57,1051.22 1741.91,1052.88 1742.24,1054.2 C1742.24,1056.19 1743.57,1057.51 1745.55,1057.51 C1747.87,1057.51 1749.53,1056.19 1750.85,1053.87 C1765.74,1027.39 1771.37,996.608 1771.37,966.487 C1769.72,923.788 1745.22,892.343 1745.22,892.343 C1746.22,892.343 1714.77,851.63 1705.83,837.728 C1693.59,818.861 1687.96,799.994 1687.3,798.67 C1686.97,797.677 1683.99,785.761 1683.99,785.761 C1683.66,784.437 1682,783.113 1680.02,783.113 C1677.7,783.113 1675.71,785.099 1675.71,787.416 L1675.71,862.222 "/>
<path class="Hook" d="M6460.99,2088.92 C6460.99,2091.24 6462.98,2093.22 6465.3,2093.22 C6466.95,2093.22 6468.94,2091.9 6469.27,2090.57 C6469.27,2090.24 6472.25,2078.66 6472.58,2077.67 C6472.91,2076.34 6475.89,2063.76 6487.8,2044.23 C6500.71,2022.72 6520.57,2007.16 6537.12,1983.99 C6553.34,1960.82 6563.27,1938.98 6563.27,1909.85 C6563.27,1879.73 6556.32,1854.57 6538.78,1822.46 C6537.78,1820.15 6535.8,1818.82 6533.81,1818.82 C6533.15,1818.82 6532.49,1818.82 6532.16,1819.15 C6530.5,1819.82 6529.84,1821.14 6529.84,1823.13 C6529.84,1824.12 6530.17,1825.77 6530.83,1827.1 C6544.07,1857.88 6549.37,1875.42 6549.37,1899.26 C6549.37,1926.73 6539.77,1940.96 6533.81,1951.22 C6512.3,1987.96 6477.54,2005.84 6463.64,2010.47 C6461.32,2011.47 6460.99,2013.12 6460.99,2014.11 L6460.99,2088.92 "/>
<path class="Hook" d="M4431.52,903.561 C4431.52,904.554 4431.85,906.209 4434.16,907.202 C4448.4,911.836 4476.86,929.71 4498.38,966.451 C4504.34,976.712 4513.94,990.945 4513.94,1018.42 C4513.94,1042.25 4507.65,1066.74 4499.04,1090.58 C4498.38,1092.56 4497.72,1094.22 4498.05,1095.54 C4498.05,1097.53 4499.37,1098.85 4501.36,1098.85 C4503.67,1098.85 4505.33,1097.53 4506.65,1095.21 C4521.55,1068.73 4527.18,1037.95 4527.18,1007.83 C4525.52,965.127 4501.03,933.682 4501.03,933.682 C4502.02,933.682 4470.57,892.969 4461.64,879.067 C4449.39,860.2 4443.76,841.333 4443.1,840.009 C4442.77,839.016 4439.79,827.1 4439.79,827.1 C4439.46,825.776 4437.81,824.452 4435.82,824.452 C4433.5,824.452 4431.52,826.438 4431.52,828.755 L4431.52,903.561 "/>
<path class="Note" d="M2240.71,883.664 C2240.71,897.897 2250.97,913.785 2277.78,913.785 C2312.2,913.785 2348.28,885.65 2348.28,856.522 C2348.28,836.993 2331.73,826.07 2311.21,826.07 C2279.1,826.07 2240.71,853.212 2240.71,883.664"/>
<path class="Note" d="M7446.78,966.341 C7446.78,980.574 7457.04,996.462 7483.85,996.462 C7518.27,996.462 7554.35,968.327 7554.35,939.199 C7554.35,919.67 7537.8,908.747 7517.28,908.747 C7485.17,908.747 7446.78,935.889 7446.78,966.341"/>
<path class="Note" d="M8559.24,1131.7 C8559.24,1145.93 8569.5,1161.82 8596.31,1161.82 C8630.74,1161.82 8666.82,1133.68 8666.82,1104.55 C8666.82,1085.02 8650.27,1074.1 8629.74,1074.1 C8597.64,1074.1 8559.24,1101.24 8559.24,1131.7"/>
<path class="Note" d="M8968.95,1131.7 C8968.95,1145.93 8979.21,1161.82 9006.02,1161.82 C9040.45,1161.82 9076.52,1133.68 9076.52,1104.55 C9076.52,1085.02 9059.97,1074.1 9039.45,1074.1 C9007.35,1074.1 8968.95,1101.24 8968.95,1131.7"/>
<path class="Note" d="M8290.59,1958.47 C8290.59,1972.7 8300.85,1988.59 8327.66,1988.59 C8362.08,1988.59 8398.16,1960.45 8398.16,1931.33 C8398.16,1911.8 8381.61,1900.87 8361.09,1900.87 C8328.98,1900.87 8290.59,1928.02 8290.59,1958.47"/>
<path class="Note" d="M8347.43,1131.7 C8347.43,1145.93 8357.69,1161.82 8384.5,1161.82 C8418.93,1161.82 8455.01,1133.68 8455.01,1104.55 C8455.01,1085.02 8438.46,1074.1 8417.93,1074.1 C8385.83,1074.1 8347.43,1101.24 8347.43,1131.7"/>
<path class="Note" d="M6810.73,1793.11 C6810.73,1807.35 6820.99,1823.23 6847.8,1823.23 C6882.23,1823.23 6918.31,1795.1 6918.31,1765.97 C6918.31,1746.44 6901.76,1735.52 6881.23,1735.52 C6849.13,1735.52 6810.73,1762.66 6810.73,1793.11"/>
<path class="Note" d="M8206.23,1090.36 C8206.23,1104.59 8216.49,1120.48 8243.3,1120.48 C8277.72,1120.48 8313.8,1092.34 8313.8,1063.22 C8313.8,1043.69 8297.25,1032.76 8276.73,1032.76 C8244.62,1032.76 8206.23,1059.91 8206.23,1090.36"/>
<path class="Note" d="M7036.75,1917.13 C7036.75,1931.36 7047.01,1947.25 7073.83,1947.25 C7108.25,1947.25 7144.33,1919.11 7144.33,1889.99 C7144.33,1870.46 7127.78,1859.53 7107.26,1859.53 C7075.15,1859.53 7036.75,1886.68 7036.75,1917.13"/>
<path class="Note" d="M1410.14,1999.81 C1410.14,2014.04 1420.4,2029.93 1447.21,2029.93 C1481.63,2029.93 1517.71,2001.79 1517.71,1972.66 C1517.71,1953.14 1501.16,1942.21 1480.64,1942.21 C1448.53,1942.21 1410.14,1969.35 1410.14,1999.81"/>
<path class="Note" d="M1972.2,925.003 C1972.2,939.236 1982.47,955.124 2009.28,955.124 C2043.7,955.124 2079.78,926.989 2079.78,897.861 C2079.78,878.332 2063.23,867.409 2042.71,867.409 C2010.6,867.409 1972.2,894.551 1972.2,925.003"/>
<path class="Note" d="M7937.72,1049.02 C7937.72,1063.25 7947.98,1079.14 7974.79,1079.14 C8009.22,1079.14 8045.3,1051 8045.3,1021.88 C8045.3,1002.35 8028.75,991.425 8008.22,991.425 C7976.12,991.425 7937.72,1018.57 7937.72,1049.02"/>
<path class="Note" d="M2381.91,925.003 C2381.91,939.236 2392.18,955.124 2418.99,955.124 C2453.41,955.124 2489.49,926.989 2489.49,897.861 C2489.49,878.332 2472.94,867.409 2452.42,867.409 C2420.31,867.409 2381.91,894.551 2381.91,925.003"/>
<path class="Note" d="M1696.66,1958.47 C1696.66,1972.7 1706.92,1988.59 1733.73,1988.59 C1768.16,1988.59 1804.24,1960.45 1804.24,1931.33 C1804.24,1911.8 1787.69,1900.87 1767.16,1900.87 C1735.06,1900.87 1696.66,1928.02 1696.66,1958.47"/>
<path class="Note" d="M7587.98,1007.68 C7587.98,1021.91 7598.24,1037.8 7625.06,1037.8 C7659.48,1037.8 7695.56,1009.67 7695.56,980.538 C7695.56,961.009 7679.01,950.086 7658.49,950.086 C7626.38,950.086 7587.98,977.228 7587.98,1007.68"/>
<path class="Note" d="M1847.34,1999.81 C1847.34,2014.04 1857.6,2029.93 1884.42,2029.93 C1918.84,2029.93 1954.92,2001.79 1954.92,1972.66 C1954.92,1953.14 1938.37,1942.21 1917.85,1942.21 C1885.74,1942.21 1847.34,1969.35 1847.34,1999.81"/>
<path class="Note" d="M7262.78,1875.79 C7262.78,1890.02 7273.04,1905.91 7299.85,1905.91 C7334.27,1905.91 7370.35,1877.78 7370.35,1848.65 C7370.35,1829.12 7353.8,1818.2 7333.28,1818.2 C7301.17,1818.2 7262.78,1845.34 7262.78,1875.79"/>
<path class="Note" d="M2073.37,1710.44 C2073.37,1724.67 2083.63,1740.56 2110.44,1740.56 C2144.86,1740.56 2180.94,1712.42 2180.94,1683.29 C2180.94,1663.76 2164.39,1652.84 2143.87,1652.84 C2111.76,1652.84 2073.37,1679.98 2073.37,1710.44"/>
<path class="Note" d="M2593.72,966.341 C2593.72,980.574 2603.98,996.462 2630.79,996.462 C2665.22,996.462 2701.3,968.327 2701.3,939.199 C2701.3,919.67 2684.75,908.747 2664.23,908.747 C2632.12,908.747 2593.72,935.889 2593.72,966.341"/>
<path class="Note" d="M2805.53,1007.68 C2805.53,1021.91 2815.79,1037.8 2842.6,1037.8 C2877.03,1037.8 2913.11,1009.67 2913.11,980.538 C2913.11,961.009 2896.56,950.086 2876.03,950.086 C2843.93,950.086 2805.53,977.228 2805.53,1007.68"/>
<path class="Note" d="M2412.4,1710.44 C2412.4,1724.67 2422.66,1740.56 2449.47,1740.56 C2483.9,1740.56 2519.98,1712.42 2519.98,1683.29 C2519.98,1663.76 2503.43,1652.84 2482.91,1652.84 C2450.8,1652.84 2412.4,1679.98 2412.4,1710.44"/>
<path class="Note" d="M1576.5,1090.36 C1576.5,1104.59 1586.76,1120.48 1613.57,1120.48 C1648,1120.48 1684.07,1092.34 1684.07,1063.22 C1684.07,1043.69 1667.52,1032.76 1647,1032.76 C1614.9,1032.76 1576.5,1059.91 1576.5,1090.36"/>
<path class="Note" d="M6759.32,1049.02 C6759.32,1063.25 6769.59,1079.14 6796.4,1079.14 C6830.82,1079.14 6866.9,1051 6866.9,1021.88 C6866.9,1002.35 6850.35,991.425 6829.83,991.425 C6797.72,991.425 6759.32,1018.57 6759.32,1049.02"/>
<path class="Note" d="M6547.52,1090.36 C6547.52,1104.59 6557.78,1120.48 6584.59,1120.48 C6619.01,1120.48 6655.09,1092.34 6655.09,1063.22 C6655.09,1043.69 6638.54,1032.76 6618.02,1032.76 C6585.91,1032.76 6547.52,1059.91 6547.52,1090.36"/>
<path class="Note" d="M6406.31,1131.7 C6406.31,1145.93 6416.57,1161.82 6443.38,1161.82 C6477.81,1161.82 6513.88,1133.68 6513.88,1104.55 C6513.88,1085.02 6497.33,1074.1 6476.81,1074.1 C6444.71,1074.1 6406.31,1101.24 6406.31,1131.7"/>
<path class="Note" d="M2762.14,1669.1 C2762.14,1683.33 2772.4,1699.22 2799.21,1699.22 C2833.64,1699.22 2869.72,1671.08 2869.72,1641.96 C2869.72,1622.43 2853.17,1611.5 2832.64,1611.5 C2800.54,1611.5 2762.14,1638.65 2762.14,1669.1"/>
<path class="Note" d="M6460.99,1834.45 C6460.99,1848.68 6471.25,1864.57 6498.06,1864.57 C6532.49,1864.57 6568.57,1836.44 6568.57,1807.31 C6568.57,1787.78 6552.02,1776.86 6531.5,1776.86 C6499.39,1776.86 6460.99,1804 6460.99,1834.45"/>
<path class="Note" d="M7488.8,1834.45 C7488.8,1848.68 7499.06,1864.57 7525.87,1864.57 C7560.3,1864.57 7596.38,1836.44 7596.38,1807.31 C7596.38,1787.78 7579.83,1776.86 7559.3,1776.86 C7527.2,1776.86 7488.8,1804 7488.8,1834.45"/>
<path class="Note" d="M6108.97,1090.36 C6108.97,1104.59 6119.24,1120.48 6146.05,1120.48 C6180.47,1120.48 6216.55,1092.34 6216.55,1063.22 C6216.55,1043.69 6200,1032.76 6179.48,1032.76 C6147.37,1032.76 6108.97,1059.91 6108.97,1090.36"/>
<path class="Note" d="M3048.66,1793.11 C3048.66,1807.35 3058.93,1823.23 3085.74,1823.23 C3120.16,1823.23 3156.24,1795.1 3156.24,1765.97 C3156.24,1746.44 3139.69,1735.52 3119.17,1735.52 C3087.06,1735.52 3048.66,1762.66 3048.66,1793.11"/>
<path class="Note" d="M3017.34,1049.02 C3017.34,1063.25 3027.6,1079.14 3054.41,1079.14 C3088.84,1079.14 3124.92,1051 3124.92,1021.88 C3124.92,1002.35 3108.37,991.425 3087.84,991.425 C3055.74,991.425 3017.34,1018.57 3017.34,1049.02"/>
<path class="Note" d="M3199.35,1875.79 C3199.35,1890.02 3209.61,1905.91 3236.42,1905.91 C3270.84,1905.91 3306.92,1877.78 3306.92,1848.65 C3306.92,1829.12 3290.37,1818.2 3269.85,1818.2 C3237.74,1818.2 3199.35,1845.34 3199.35,1875.79"/>
<path class="Note" d="M5759.24,1090.36 C5759.24,1104.59 5769.5,1120.48 5796.31,1120.48 C5830.73,1120.48 5866.81,1092.34 5866.81,1063.22 C5866.81,1043.69 5850.26,1032.76 5829.74,1032.76 C5797.63,1032.76 5759.24,1059.91 5759.24,1090.36"/>
<path class="Note" d="M3425.37,1751.77 C3425.37,1766.01 3435.63,1781.9 3462.44,1781.9 C3496.87,1781.9 3532.95,1753.76 3532.95,1724.63 C3532.95,1705.1 3516.4,1694.18 3495.87,1694.18 C3463.77,1694.18 3425.37,1721.32 3425.37,1751.77"/>
<path class="Note" d="M5618.03,1049.02 C5618.03,1063.25 5628.29,1079.14 5655.1,1079.14 C5689.53,1079.14 5725.61,1051 5725.61,1021.88 C5725.61,1002.35 5709.06,991.425 5688.53,991.425 C5656.43,991.425 5618.03,1018.57 5618.03,1049.02"/>
<path class="Note" d="M6121.96,1793.11 C6121.96,1807.35 6132.22,1823.23 6159.03,1823.23 C6193.45,1823.23 6229.53,1795.1 6229.53,1765.97 C6229.53,1746.44 6212.98,1735.52 6192.46,1735.52 C6160.35,1735.52 6121.96,1762.66 6121.96,1793.11"/>
<path class="Note" d="M7714.82,1875.79 C7714.82,1890.02 7725.09,1905.91 7751.9,1905.91 C7786.32,1905.91 7822.4,1877.78 7822.4,1848.65 C7822.4,1829.12 7805.85,1818.2 7785.33,1818.2 C7753.22,1818.2 7714.82,1845.34 7714.82,1875.79"/>
<path class="Note" d="M3711.89,1793.11 C3711.89,1807.35 3722.16,1823.23 3748.97,1823.23 C3783.39,1823.23 3819.47,1795.1 3819.47,1765.97 C3819.47,1746.44 3802.92,1735.52 3782.4,1735.52 C3750.29,1735.52 3711.89,1762.66 3711.89,1793.11"/>
<path class="Note" d="M5349.53,1090.36 C5349.53,1104.59 5359.79,1120.48 5386.6,1120.48 C5421.02,1120.48 5457.1,1092.34 5457.1,1063.22 C5457.1,1043.69 5440.55,1032.76 5420.03,1032.76 C5387.92,1032.76 5349.53,1059.91 5349.53,1090.36"/>
<path class="Note" d="M3862.58,1834.45 C3862.58,1848.68 3872.84,1864.57 3899.65,1864.57 C3934.07,1864.57 3970.15,1836.44 3970.15,1807.31 C3970.15,1787.78 3953.6,1776.86 3933.08,1776.86 C3900.97,1776.86 3862.58,1804 3862.58,1834.45"/>
<path class="Note" d="M8629.62,1958.47 C8629.62,1972.7 8639.88,1988.59 8666.69,1988.59 C8701.12,1988.59 8737.2,1960.45 8737.2,1931.33 C8737.2,1911.8 8720.65,1900.87 8700.13,1900.87 C8668.02,1900.87 8629.62,1928.02 8629.62,1958.47"/>
<path class="Note" d="M5137.72,1090.36 C5137.72,1104.59 5147.98,1120.48 5174.79,1120.48 C5209.21,1120.48 5245.29,1092.34 5245.29,1063.22 C5245.29,1043.69 5228.74,1032.76 5208.22,1032.76 C5176.11,1032.76 5137.72,1059.91 5137.72,1090.36"/>
<path class="Note" d="M4996.51,1049.02 C4996.51,1063.25 5006.77,1079.14 5033.58,1079.14 C5068.01,1079.14 5104.09,1051 5104.09,1021.88 C5104.09,1002.35 5087.54,991.425 5067.02,991.425 C5034.91,991.425 4996.51,1018.57 4996.51,1049.02"/>
<path class="Note" d="M4212.31,1793.11 C4212.31,1807.35 4222.58,1823.23 4249.39,1823.23 C4283.81,1823.23 4319.89,1795.1 4319.89,1765.97 C4319.89,1746.44 4303.34,1735.52 4282.82,1735.52 C4250.71,1735.52 4212.31,1762.66 4212.31,1793.11"/>
<path class="Note" d="M7940.85,1917.13 C7940.85,1931.36 7951.11,1947.25 7977.92,1947.25 C8012.34,1947.25 8048.42,1919.11 8048.42,1889.99 C8048.42,1870.46 8031.87,1859.53 8011.35,1859.53 C7979.24,1859.53 7940.85,1886.68 7940.85,1917.13"/>
<path class="Note" d="M4728.01,1090.36 C4728.01,1104.59 4738.27,1120.48 4765.08,1120.48 C4799.5,1120.48 4835.58,1092.34 4835.58,1063.22 C4835.58,1043.69 4819.03,1032.76 4798.51,1032.76 C4766.4,1032.76 4728.01,1059.91 4728.01,1090.36"/>
<path class="Note" d="M4438.34,1917.13 C4438.34,1931.36 4448.6,1947.25 4475.41,1947.25 C4509.83,1947.25 4545.91,1919.11 4545.91,1889.99 C4545.91,1870.46 4529.36,1859.53 4508.84,1859.53 C4476.73,1859.53 4438.34,1886.68 4438.34,1917.13"/>
<path class="Note" d="M3367.08,1007.68 C3367.08,1021.91 3377.34,1037.8 3404.15,1037.8 C3438.57,1037.8 3474.65,1009.67 3474.65,980.538 C3474.65,961.009 3458.1,950.086 3437.58,950.086 C3405.47,950.086 3367.08,977.228 3367.08,1007.68"/>
<path class="Note" d="M4664.36,1875.79 C4664.36,1890.02 4674.62,1905.91 4701.43,1905.91 C4735.86,1905.91 4771.94,1877.78 4771.94,1848.65 C4771.94,1829.12 4755.39,1818.2 4734.87,1818.2 C4702.76,1818.2 4664.36,1845.34 4664.36,1875.79"/>
<path class="Note" d="M4332.3,1131.7 C4332.3,1145.93 4342.56,1161.82 4369.38,1161.82 C4403.8,1161.82 4439.88,1133.68 4439.88,1104.55 C4439.88,1085.02 4423.33,1074.1 4402.81,1074.1 C4370.7,1074.1 4332.3,1101.24 4332.3,1131.7"/>
<path class="Note" d="M4890.39,1834.45 C4890.39,1848.68 4900.65,1864.57 4927.46,1864.57 C4961.88,1864.57 4997.96,1836.44 4997.96,1807.31 C4997.96,1787.78 4981.41,1776.86 4960.89,1776.86 C4928.78,1776.86 4890.39,1804 4890.39,1834.45"/>
<path class="Note" d="M5692.17,1958.47 C5692.17,1972.7 5702.43,1988.59 5729.24,1988.59 C5763.67,1988.59 5799.75,1960.45 5799.75,1931.33 C5799.75,1911.8 5783.2,1900.87 5762.67,1900.87 C5730.57,1900.87 5692.17,1928.02 5692.17,1958.47"/>
<path class="Note" d="M3635.58,1049.02 C3635.58,1063.25 3645.84,1079.14 3672.65,1079.14 C3707.08,1079.14 3743.16,1051 3743.16,1021.88 C3743.16,1002.35 3726.61,991.425 3706.09,991.425 C3673.98,991.425 3635.58,1018.57 3635.58,1049.02"/>
<path class="Note" d="M5116.41,1875.79 C5116.41,1890.02 5126.67,1905.91 5153.48,1905.91 C5187.91,1905.91 5223.98,1877.78 5223.98,1848.65 C5223.98,1829.12 5207.43,1818.2 5186.91,1818.2 C5154.81,1818.2 5116.41,1845.34 5116.41,1875.79"/>
<path class="Note" d="M4014.59,1131.7 C4014.59,1145.93 4024.85,1161.82 4051.66,1161.82 C4086.09,1161.82 4122.17,1133.68 4122.17,1104.55 C4122.17,1085.02 4105.62,1074.1 4085.09,1074.1 C4052.99,1074.1 4014.59,1101.24 4014.59,1131.7"/>
<path class="Note" d="M5342.43,1917.13 C5342.43,1931.36 5352.69,1947.25 5379.51,1947.25 C5413.93,1947.25 5450.01,1919.11 5450.01,1889.99 C5450.01,1870.46 5433.46,1859.53 5412.94,1859.53 C5380.83,1859.53 5342.43,1886.68 5342.43,1917.13"/>
<path class="Note" d="M3776.79,1090.36 C3776.79,1104.59 3787.05,1120.48 3813.86,1120.48 C3848.28,1120.48 3884.36,1092.34 3884.36,1063.22 C3884.36,1043.69 3867.81,1032.76 3847.29,1032.76 C3815.18,1032.76 3776.79,1059.91 3776.79,1090.36"/>
<path class="Note" d="M8827.74,1090.36 C8827.74,1104.59 8838.01,1120.48 8864.82,1120.48 C8899.24,1120.48 8935.32,1092.34 8935.32,1063.22 C8935.32,1043.69 8918.77,1032.76 8898.25,1032.76 C8866.14,1032.76 8827.74,1059.91 8827.74,1090.36"/>
<path class="Clef" d="M909.689,1144.64 C903.069,1145.97 896.78,1146.63 890.491,1146.63 C843.158,1146.63 802.776,1113.53 802.776,1063.55 C802.776,1023.16 831.242,987.085 860.37,961.929 C865.997,956.964 871.293,952.33 876.258,947.365 C879.237,965.239 881.554,980.796 883.871,994.367 C853.75,1003.3 833.228,1035.08 833.228,1066.19 C833.228,1089.36 851.433,1121.14 877.913,1121.14 C880.561,1121.14 883.54,1119.82 883.54,1116.84 C883.54,1113.86 880.23,1112.2 876.258,1109.56 C863.349,1101.61 856.067,1093.01 856.067,1076.79 C856.067,1056.6 870.962,1040.38 890.491,1035.74 L909.689,1144.64 M880.561,804.373 C883.54,791.133 898.766,756.378 915.978,756.378 C920.943,756.378 928.887,772.597 928.887,795.436 C928.887,829.86 903.4,855.678 880.561,878.186 C878.575,864.946 876.92,852.037 876.92,838.135 C876.92,825.888 877.913,814.634 880.561,804.373 M956.691,1083.41 C956.691,1106.91 947.092,1131.07 923.591,1140.67 C916.64,1100.95 907.703,1048.32 905.386,1033.76 C935.176,1033.76 956.691,1053.95 956.691,1083.41 M811.051,1246.26 C811.051,1268.1 827.932,1296.9 872.617,1296.9 C888.174,1296.9 901.745,1292.93 913.661,1285.65 C931.535,1273.07 936.169,1251.22 936.169,1230.37 C936.169,1217.46 934.183,1202.57 930.873,1183.7 C929.88,1177.08 927.894,1167.15 925.908,1154.24 C958.346,1143.65 982.509,1109.89 982.509,1075.79 C982.509,1025.81 947.092,992.05 898.766,992.05 C895.456,972.19 892.146,952.661 889.167,934.125 C924.253,897.384 948.416,856.009 948.416,803.38 C948.416,773.259 939.148,748.765 933.852,736.849 C925.908,719.968 916.309,708.383 910.351,708.383 C908.034,708.383 897.773,712.355 886.85,725.264 C865.666,750.42 859.708,792.788 859.708,820.592 C859.708,838.466 861.363,854.685 866.99,891.757 C866.659,892.088 849.447,909.631 842.496,915.258 C812.375,943.393 770.669,983.444 770.669,1049.64 C770.669,1111.54 824.622,1160.2 886.188,1160.2 C895.787,1160.2 904.724,1159.21 912.337,1157.88 C918.626,1189.66 922.267,1212.83 922.267,1230.37 C922.267,1264.79 904.724,1283 871.293,1283 C863.349,1283 856.398,1281.34 855.736,1281.34 C855.405,1281.01 854.743,1280.68 854.743,1280.35 C854.743,1279.69 855.405,1279.36 856.398,1279.03 C871.955,1276.71 887.512,1263.47 887.512,1242.29 C887.512,1224.41 873.941,1205.55 849.116,1205.55 C825.946,1205.55 811.051,1224.41 811.051,1246.26"/>
<path class="Clef" d="M909.689,2012.75 C903.069,2014.08 896.78,2014.74 890.491,2014.74 C843.158,2014.74 802.776,1981.64 802.776,1931.66 C802.776,1891.27 831.242,1855.2 860.37,1830.04 C865.997,1825.07 871.293,1820.44 876.258,1815.48 C879.237,1833.35 881.554,1848.91 883.871,1862.48 C853.75,1871.41 833.228,1903.19 833.228,1934.3 C833.228,1957.47 851.433,1989.25 877.913,1989.25 C880.561,1989.25 883.54,1987.93 883.54,1984.95 C883.54,1981.97 880.23,1980.31 876.258,1977.67 C863.349,1969.72 856.067,1961.12 856.067,1944.9 C856.067,1924.71 870.962,1908.49 890.491,1903.85 L909.689,2012.75 M880.561,1672.48 C883.54,1659.24 898.766,1624.49 915.978,1624.49 C920.943,1624.49 928.887,1640.71 928.887,1663.55 C928.887,1697.97 903.4,1723.79 880.561,1746.3 C878.575,1733.06 876.92,1720.15 876.92,1706.25 C876.92,1694 877.913,1682.74 880.561,1672.48 M956.691,1951.52 C956.691,1975.02 947.092,1999.18 923.591,2008.78 C916.64,1969.06 907.703,1916.43 905.386,1901.87 C935.176,1901.87 956.691,1922.06 956.691,1951.52 M811.051,2114.37 C811.051,2136.21 827.932,2165.01 872.617,2165.01 C888.174,2165.01 901.745,2161.04 913.661,2153.76 C931.535,2141.18 936.169,2119.33 936.169,2098.48 C936.169,2085.57 934.183,2070.68 930.873,2051.81 C929.88,2045.19 927.894,2035.26 925.908,2022.35 C958.346,2011.76 982.509,1978 982.509,1943.9 C982.509,1893.92 947.092,1860.16 898.766,1860.16 C895.456,1840.3 892.146,1820.77 889.167,1802.24 C924.253,1765.49 948.416,1724.12 948.416,1671.49 C948.416,1641.37 939.148,1616.88 933.852,1604.96 C925.908,1588.08 916.309,1576.49 910.351,1576.49 C908.034,1576.49 897.773,1580.47 886.85,1593.37 C865.666,1618.53 859.708,1660.9 859.708,1688.7 C859.708,1706.58 861.363,1722.8 866.99,1759.87 C866.659,1760.2 849.447,1777.74 842.496,1783.37 C812.375,1811.5 770.669,1851.55 770.669,1917.75 C770.669,1979.65 824.622,2028.31 886.188,2028.31 C895.787,2028.31 904.724,2027.32 912.337,2025.99 C918.626,2057.77 922.267,2080.94 922.267,2098.48 C922.267,2132.9 904.724,2151.11 871.293,2151.11 C863.349,2151.11 856.398,2149.45 855.736,2149.45 C855.405,2149.12 854.743,2148.79 854.743,2148.46 C854.743,2147.8 855.405,2147.47 856.398,2147.14 C871.955,2144.82 887.512,2131.58 887.512,2110.4 C887.512,2092.52 873.941,2073.66 849.116,2073.66 C825.946,2073.66 811.051,2092.52 811.051,2114.37"/>
<path class="KeySig" d="M1088.05,1848.65 C1088.05,1874.8 1074.48,1888.7 1055.28,1903.93 L1056.27,1839.38 C1056.93,1836.4 1061.9,1826.8 1075.14,1826.8 C1087.06,1826.8 1088.05,1838.06 1088.05,1845.01 L1088.05,1848.65 M1084.08,1810.58 C1067.53,1810.58 1057.93,1820.84 1056.27,1822.83 L1057.6,1716.58 C1057.6,1713.93 1055.61,1711.95 1052.96,1711.95 L1048.99,1711.95 C1046.34,1711.95 1044.36,1713.93 1044.36,1716.58 L1046.01,1915.51 C1046.01,1918.16 1048,1920.14 1050.65,1920.14 C1051.31,1920.14 1052.63,1919.81 1053.29,1919.48 C1081.76,1905.25 1111.55,1878.11 1111.55,1844.01 C1111.55,1826.8 1103.61,1810.58 1084.08,1810.58"/>
<path class="KeySig" d="M1179.99,1724.63 C1179.99,1750.78 1166.42,1764.68 1147.22,1779.91 L1148.21,1715.36 C1148.87,1712.39 1153.84,1702.79 1167.08,1702.79 C1178.99,1702.79 1179.99,1714.04 1179.99,1720.99 L1179.99,1724.63 M1176.01,1686.57 C1159.46,1686.57 1149.87,1696.83 1148.21,1698.81 L1149.53,1592.56 C1149.53,1589.92 1147.55,1587.93 1144.9,1587.93 L1140.93,1587.93 C1138.28,1587.93 1136.29,1589.92 1136.29,1592.56 L1137.95,1791.49 C1137.95,1794.14 1139.94,1796.13 1142.58,1796.13 C1143.25,1796.13 1144.57,1795.8 1145.23,1795.47 C1173.7,1781.23 1203.49,1754.09 1203.49,1720 C1203.49,1702.79 1195.54,1686.57 1176.01,1686.57"/>
<path class="KeySig" d="M1088.05,980.538 C1088.05,1006.69 1074.48,1020.59 1055.28,1035.82 L1056.27,971.27 C1056.93,968.291 1061.9,958.692 1075.14,958.692 C1087.06,958.692 1088.05,969.946 1088.05,976.897 L1088.05,980.538 M1084.08,942.473 C1067.53,942.473 1057.93,952.734 1056.27,954.72 L1057.6,848.469 C1057.6,845.821 1055.61,843.835 1052.96,843.835 L1048.99,843.835 C1046.34,843.835 1044.36,845.821 1044.36,848.469 L1046.01,1047.4 C1046.01,1050.05 1048,1052.03 1050.65,1052.03 C1051.31,1052.03 1052.63,1051.7 1053.29,1051.37 C1081.76,1037.14 1111.55,1010 1111.55,975.904 C1111.55,958.692 1103.61,942.473 1084.08,942.473"/>
<path class="KeySig" d="M1179.99,856.522 C1179.99,882.671 1166.42,896.573 1147.22,911.799 L1148.21,847.254 C1148.87,844.275 1153.84,834.676 1167.08,834.676 C1178.99,834.676 1179.99,845.93 1179.99,852.881 L1179.99,856.522 M1176.01,818.457 C1159.46,818.457 1149.87,828.718 1148.21,830.704 L1149.53,724.453 C1149.53,721.805 1147.55,719.819 1144.9,719.819 L1140.93,719.819 C1138.28,719.819 1136.29,721.805 1136.29,724.453 L1137.95,923.384 C1137.95,926.032 1139.94,928.018 1142.58,928.018 C1143.25,928.018 1144.57,927.687 1145.23,927.356 C1173.7,913.123 1203.49,885.981 1203.49,851.888 C1203.49,834.676 1195.54,818.457 1176.01,818.457"/>
<path class="TimeSig" d="M1351.65,979.772 C1340.73,979.772 1331.79,964.877 1331.79,946.341 C1331.79,927.805 1340.73,912.579 1351.65,912.579 C1362.58,912.579 1371.85,927.805 1371.85,946.341 C1371.85,964.877 1362.58,979.772 1351.65,979.772 M1363.9,897.022 C1343.71,897.022 1336.43,902.98 1331.79,907.945 C1330.8,900.994 1330.14,895.698 1330.14,890.402 C1330.14,871.535 1336.76,847.041 1359.93,847.041 C1368.2,847.041 1373.17,849.689 1376.48,853.33 C1369.53,856.309 1363.9,865.246 1363.9,872.859 C1363.9,884.775 1373.17,894.043 1385.09,894.043 C1397,894.043 1406.6,884.775 1406.6,872.859 L1406.6,871.866 C1406.6,868.887 1405.94,863.922 1404.61,861.274 C1400.31,849.358 1386.41,831.815 1353.31,831.815 C1323.52,831.815 1302,860.281 1295.38,875.507 C1292.07,883.451 1287.11,899.67 1287.11,918.206 C1287.11,938.397 1292.74,961.236 1312.27,978.448 C1331.46,993.012 1343.71,993.674 1355.3,993.674 C1366.88,993.674 1410.24,980.103 1410.24,941.707 C1410.24,909.269 1384.75,897.022 1363.9,897.022"/>
<path class="TimeSig" d="M1369.87,1060.58 C1347.36,1053.3 1322.54,1042.37 1322.54,1027.48 C1322.54,1014.57 1334.45,1009.27 1348.68,1009.27 C1369.21,1009.27 1383.11,1018.87 1383.11,1034.1 C1383.11,1049.99 1375.83,1057.6 1369.87,1060.58 M1348.68,1139.03 C1327.5,1139.03 1309.3,1127.44 1309.3,1108.9 C1309.3,1086.73 1326.51,1081.43 1326.51,1081.43 C1349.02,1089.04 1381.12,1100.3 1381.12,1118.5 C1381.12,1127.44 1369.54,1139.03 1348.68,1139.03 M1388.4,1069.52 C1399.33,1061.24 1406.94,1050.65 1406.94,1037.41 C1406.94,1013.58 1380.79,994.047 1348.68,994.047 C1316.58,994.047 1290.43,1013.58 1290.43,1037.41 C1290.43,1050.65 1293.74,1062.56 1309.3,1072.49 C1294.4,1081.1 1286.13,1093.35 1286.13,1109.24 C1286.13,1136.05 1314.26,1157.56 1348.68,1157.56 C1383.11,1157.56 1411.24,1136.05 1411.24,1109.24 C1411.24,1093.35 1405.62,1078.45 1388.4,1069.52"/>
<path class="Beam" fill-rule="evenodd" d="M4890.39,2068.5 L5350.7,2109.84 L5350.7,2151.34 L4890.39,2110 L4890.39,2068.5 "/>
<path class="Beam" fill-rule="evenodd" d="M5448.74,745.747 L5866.72,745.747 L5866.72,787.085 L5448.74,787.085 L5448.74,745.747 "/>
<path class="Beam" fill-rule="evenodd" d="M5725.51,807.754 L5634.57,807.754 L5634.57,849.093 L5725.51,849.093 L5725.51,807.754 "/>
<path class="Beam" fill-rule="evenodd" d="M8658.45,807.754 L9076.43,807.754 L9076.43,849.093 L8658.45,849.093 L8658.45,807.754 "/>
<path class="Beam" fill-rule="evenodd" d="M8935.22,869.762 L8844.28,869.762 L8844.28,911.101 L8935.22,911.101 L8935.22,869.762 "/>
<path class="Beam" fill-rule="evenodd" d="M1509.35,1675.86 L1954.82,1675.86 L1954.82,1717.2 L1509.35,1717.2 L1509.35,1675.86 "/>
<path class="Beam" fill-rule="evenodd" d="M1804.14,1737.87 L1713.2,1737.87 L1713.2,1779.21 L1804.14,1779.21 L1804.14,1737.87 "/>
<path class="Beam" fill-rule="evenodd" d="M1972.2,1138.46 L2390.18,1138.46 L2390.18,1179.8 L1972.2,1179.8 L1972.2,1138.46 "/>
<path class="Beam" fill-rule="evenodd" d="M2248.98,1076.46 L2158.03,1076.46 L2158.03,1117.79 L2248.98,1117.79 L2248.98,1076.46 "/>
<path class="Beam" fill-rule="evenodd" d="M2593.72,1200.38 L3025.61,1241.72 L3025.61,1283.24 L2593.72,1241.9 L2593.72,1200.38 "/>
<path class="Beam" fill-rule="evenodd" d="M3425.37,1985.82 L3870.84,2027.15 L3870.84,2068.67 L3425.37,2027.33 L3425.37,1985.82 "/>
<path class="Beam" fill-rule="evenodd" d="M3720.16,1951.16 L3629.22,1942.72 L3629.22,1984.24 L3720.16,1992.68 L3720.16,1951.16 "/>
<path class="Beam" fill-rule="evenodd" d="M6810.73,2109.92 L7271.05,2109.92 L7271.05,2151.26 L6810.73,2151.26 L6810.73,2109.92 "/>
<path class="Beam" fill-rule="evenodd" d="M4212.31,2109.92 L4672.63,2109.92 L4672.63,2151.26 L4212.31,2151.26 L4212.31,2109.92 "/>
<path class="Beam" fill-rule="evenodd" d="M8036.93,786.984 L8454.91,828.323 L8454.91,869.863 L8036.93,828.525 L8036.93,786.984 "/>
<path class="Beam" fill-rule="evenodd" d="M8313.71,876.365 L8222.76,867.371 L8222.76,908.911 L8313.71,917.906 L8313.71,876.365 "/>
<path class="Beam" fill-rule="evenodd" d="M3466.29,745.721 L3884.27,766.391 L3884.27,807.78 L3466.29,787.11 L3466.29,745.721 "/>
<path class="Beam" fill-rule="evenodd" d="M3743.06,821.416 L3652.12,816.918 L3652.12,858.308 L3743.06,862.805 L3743.06,821.416 "/>
<path class="Beam" fill-rule="evenodd" d="M7446.78,1200.27 L7596.25,1220.94 L7596.25,1262.68 L7446.78,1242.01 L7446.78,1200.27 "/>
<path class="Beam" fill-rule="evenodd" d="M7446.78,1138.27 L7596.25,1158.94 L7596.25,1200.67 L7446.78,1180 L7446.78,1138.27 "/>
<path class="Beam" fill-rule="evenodd" d="M6208.19,807.754 L6655,807.754 L6655,849.093 L6208.19,849.093 L6208.19,807.754 "/>
<path class="Beam" fill-rule="evenodd" d="M6513.79,869.762 L6422.84,869.762 L6422.84,911.101 L6513.79,911.101 L6513.79,869.762 "/>
<path class="Beam" fill-rule="evenodd" d="M4827.22,745.747 L5245.2,745.747 L5245.2,787.085 L4827.22,787.085 L4827.22,745.747 "/>
<path class="Beam" fill-rule="evenodd" d="M5103.99,807.754 L5013.05,807.754 L5013.05,849.093 L5103.99,849.093 L5103.99,807.754 "/>
<path class="Beam" fill-rule="evenodd" d="M7488.8,2068.5 L7949.12,2109.84 L7949.12,2151.34 L7488.8,2110 L7488.8,2068.5 "/>
<path class="Beam" fill-rule="evenodd" d="M2762.14,2006.37 L3207.61,2068.38 L3207.61,2110.12 L2762.14,2048.11 L2762.14,2006.37 "/>
<path class="Beam" fill-rule="evenodd" d="M3056.93,1985.4 L2965.99,1972.74 L2965.99,2014.48 L3056.93,2027.14 L3056.93,1985.4 "/>
<path class="NoteDot" d="M5498.36,1035.12 C5498.36,1044.38 5505.64,1051.67 5514.91,1051.67 C5524.18,1051.67 5531.46,1044.38 5531.46,1035.12 C5531.46,1025.85 5524.18,1018.57 5514.91,1018.57 C5505.64,1018.57 5498.36,1025.85 5498.36,1035.12"/>
<path class="NoteDot" d="M6257.81,1035.12 C6257.81,1044.38 6265.09,1051.67 6274.36,1051.67 C6283.63,1051.67 6290.91,1044.38 6290.91,1035.12 C6290.91,1025.85 6283.63,1018.57 6274.36,1018.57 C6265.09,1018.57 6257.81,1025.85 6257.81,1035.12"/>
<path class="NoteDot" d="M4876.84,1035.12 C4876.84,1044.38 4884.12,1051.67 4893.39,1051.67 C4902.66,1051.67 4909.94,1044.38 4909.94,1035.12 C4909.94,1025.85 4902.66,1018.57 4893.39,1018.57 C4884.12,1018.57 4876.84,1025.85 4876.84,1035.12"/>
<path class="NoteDot" d="M8086.55,1035.12 C8086.55,1044.38 8093.84,1051.67 8103.1,1051.67 C8112.37,1051.67 8119.65,1044.38 8119.65,1035.12 C8119.65,1025.85 8112.37,1018.57 8103.1,1018.57 C8093.84,1018.57 8086.55,1025.85 8086.55,1035.12"/>
<path class="NoteDot" d="M3515.91,952.439 C3515.91,961.707 3523.19,968.989 3532.46,968.989 C3541.73,968.989 3549.01,961.707 3549.01,952.439 C3549.01,943.171 3541.73,935.889 3532.46,935.889 C3523.19,935.889 3515.91,943.171 3515.91,952.439"/>
<path class="NoteDot" d="M3574.2,1737.87 C3574.2,1747.14 3581.49,1754.42 3590.75,1754.42 C3600.02,1754.42 3607.3,1747.14 3607.3,1737.87 C3607.3,1728.6 3600.02,1721.32 3590.75,1721.32 C3581.49,1721.32 3574.2,1728.6 3574.2,1737.87"/>
<path class="NoteDot" d="M1558.97,1985.9 C1558.97,1995.17 1566.25,2002.45 1575.52,2002.45 C1584.79,2002.45 1592.07,1995.17 1592.07,1985.9 C1592.07,1976.64 1584.79,1969.35 1575.52,1969.35 C1566.25,1969.35 1558.97,1976.64 1558.97,1985.9"/>
<path class="NoteDot" d="M2121.04,869.762 C2121.04,879.03 2128.32,886.312 2137.59,886.312 C2146.85,886.312 2154.14,879.03 2154.14,869.762 C2154.14,860.494 2146.85,853.212 2137.59,853.212 C2128.32,853.212 2121.04,860.494 2121.04,869.762"/>
<path class="NoteDot" d="M5841,1903.23 C5841,1912.49 5848.29,1919.78 5857.55,1919.78 C5866.82,1919.78 5874.1,1912.49 5874.1,1903.23 C5874.1,1893.96 5866.82,1886.68 5857.55,1886.68 C5848.29,1886.68 5841,1893.96 5841,1903.23"/>
<path class="NoteDot" d="M8778.45,1903.23 C8778.45,1912.49 8785.74,1919.78 8795,1919.78 C8804.27,1919.78 8811.55,1912.49 8811.55,1903.23 C8811.55,1893.96 8804.27,1886.68 8795,1886.68 C8785.74,1886.68 8778.45,1893.96 8778.45,1903.23"/>
<path class="NoteDot" d="M8708.07,1117.79 C8708.07,1127.06 8715.35,1134.34 8724.62,1134.34 C8733.89,1134.34 8741.17,1127.06 8741.17,1117.79 C8741.17,1108.53 8733.89,1101.24 8724.62,1101.24 C8715.35,1101.24 8708.07,1108.53 8708.07,1117.79"/>
<path class="NoteDot" d="M2910.97,1655.2 C2910.97,1664.46 2918.26,1671.75 2927.52,1671.75 C2936.79,1671.75 2944.07,1664.46 2944.07,1655.2 C2944.07,1645.93 2936.79,1638.65 2927.52,1638.65 C2918.26,1638.65 2910.97,1645.93 2910.97,1655.2"/>
</svg>
