<?xml version="1.0" encoding="utf-8"?>
<svg xmlns="http://www.w3.org/2000/svg" xmlns:svg="http://www.w3.org/2000/svg" version="1.1" viewBox="0 0 681 48">
	<title>A score 1 stave long in 3/4 time, in the key of C Major.</title>
	<path d="M641.395 19.865c0 .742.583 1.325 1.325 1.325s1.325-.583 1.325-1.325-.583-1.325-1.325-1.325-1.325.583-1.325 1.325M396.43 38.058l16.172 1.655v3.326l-16.172-1.655zM435.393 0l16.172 1.655V4.98l-16.172-1.654zM262.029 34.748l16.172 1.655v3.326l-16.172-1.654zm-62.041 3.31 16.172 1.655v3.326l-16.172-1.655zm31.02-1.655 16.172-1.655v3.327l-16.172 1.654zM33.67 33.12v1.96H31.47c-.185 0-.37.16-.37.372v.504c0 .211.185.37.37.37H39.5c.212 0 .371-.159.371-.37v-.504a.363.363 0 0 0-.371-.371h-2.385v-1.96H39.5c.212 0 .371-.187.371-.399v-.502a.38.38 0 0 0-.371-.372h-2.385v-4.213c0-.159-.08-.292-.185-.344l-.318-.16c-.053-.026-.08-.026-.132-.026-.106 0-.213 0-.292.08l-2.411 2.2a.4.4 0 0 0-.107.29v2.173h-3.073s2.968-3.18 6.095-7.366a.58.58 0 0 0 .132-.371.44.44 0 0 0-.08-.265l-.582-.583c-.08-.053-.16-.106-.265-.106h-3.949c-.185 0-.317.159-.344.318 0 0-.133 1.96-.822 4.107-.688 2.146-1.483 3.471-2.173 4.452 0 0-.079.132-.079.291 0 .053 0 .106.027.16.079.185.265.476.265.476s.052.16.29.16zm2.74-16.83c2.12-.822 2.253-2.2 2.253-2.677v-.132c0-.239-.079-3.233-4.637-3.233S29.6 13.48 29.6 13.48h.027l-.027.053c0 .954.769 1.696 1.722 1.696.954 0 1.697-.742 1.697-1.696 0-.769-.584-1.51-1.325-1.67l.079-.08c.37-.264.874-.397 1.378-.397 1.112 0 2.305.663 2.305 2.094 0 1.669-1.245 1.908-1.563 1.96-.318.054-1.802.16-2.12.16s-.344.37-.344.37v.53s.053.292.344.318c.45.027 1.06.027 1.908.16 1.166.158 1.775.953 1.775 2.808 0 1.776-1.193 2.253-2.305 2.253-.742 0-1.43-.212-1.722-.424.874-.053 1.59-.822 1.59-1.696 0-.954-.743-1.723-1.697-1.723-.953 0-1.722.769-1.722 1.723 0 2.173 1.987 3.259 3.949 3.259 2.543 0 5.3-.874 5.3-3.763 0-1.934-1.326-2.756-2.492-3.127zM16.093 35.251a7.7 7.7 0 0 1-1.537.16c-3.789 0-7.022-2.65-7.022-6.652 0-3.232 2.28-6.12 4.611-8.135.45-.397.875-.768 1.272-1.165.238 1.43.424 2.676.61 3.762-2.412.716-4.055 3.26-4.055 5.75 0 1.855 1.458 4.399 3.577 4.399.212 0 .451-.106.451-.344 0-.239-.265-.371-.583-.583-1.033-.637-1.616-1.325-1.616-2.624 0-1.616 1.192-2.914 2.755-3.285zm-2.332-27.24C14 6.951 15.22 4.17 16.597 4.17c.397 0 1.033 1.298 1.033 3.127 0 2.756-2.04 4.823-3.869 6.624-.159-1.06-.291-2.093-.291-3.206 0-.98.08-1.881.291-2.703m6.095 22.338c0 1.882-.768 3.816-2.65 4.584a882 882 0 0 1-1.457-8.558c2.385 0 4.107 1.616 4.107 3.974M8.196 43.386c0 1.75 1.352 4.054 4.93 4.054 1.245 0 2.331-.318 3.285-.9 1.431-1.008 1.802-2.756 1.802-4.426 0-1.033-.159-2.225-.424-3.736-.08-.53-.238-1.325-.397-2.358 2.597-.848 4.53-3.55 4.53-6.28 0-4.001-2.834-6.704-6.703-6.704-.265-1.59-.53-3.154-.769-4.637 2.81-2.942 4.744-6.254 4.744-10.467 0-2.412-.742-4.372-1.166-5.326-.636-1.352-1.405-2.28-1.882-2.28-.185 0-1.007.319-1.881 1.352-1.696 2.014-2.173 5.406-2.173 7.632 0 1.43.133 2.729.583 5.697-.026.026-1.404 1.43-1.96 1.881-2.412 2.253-5.75 5.459-5.75 10.759 0 4.954 4.318 8.85 9.247 8.85.768 0 1.484-.08 2.093-.186.504 2.544.795 4.399.795 5.803 0 2.756-1.404 4.213-4.08 4.213-.636 0-1.193-.132-1.246-.132-.026-.026-.08-.052-.08-.08 0-.053.054-.079.133-.105 1.246-.186 2.49-1.246 2.49-2.942 0-1.43-1.085-2.94-3.073-2.94-1.855 0-3.047 1.51-3.047 3.258M396.43 20.978c0 1.14.822 2.411 2.968 2.411 2.755 0 5.644-2.252 5.644-4.584 0-1.564-1.325-2.438-2.968-2.438-2.57 0-5.644 2.173-5.644 4.61m177.055 0c0 1.14.821 2.412 2.968 2.412 2.756 0 5.644-2.252 5.644-4.584 0-1.564-1.325-2.438-2.968-2.438-2.57 0-5.644 2.173-5.644 4.61m-342.477 0c0 1.14.822 2.412 2.968 2.412 2.755 0 5.644-2.252 5.644-4.584 0-1.564-1.325-2.438-2.968-2.438-2.57 0-5.644 2.173-5.644 4.61m319.211-3.309c0 1.14.822 2.412 2.969 2.412 2.755 0 5.644-2.253 5.644-4.585 0-1.563-1.325-2.437-2.968-2.437-2.57 0-5.645 2.172-5.645 4.61m46.531-3.309c0 1.14.822 2.411 2.968 2.411 2.756 0 5.644-2.252 5.644-4.584 0-1.563-1.325-2.438-2.968-2.438-2.57 0-5.644 2.173-5.644 4.611m-350.232 0c0 1.14.822 2.411 2.968 2.411 2.756 0 5.644-2.252 5.644-4.584 0-1.563-1.324-2.438-2.968-2.438-2.57 0-5.644 2.173-5.644 4.611m-193.42 6.619c0 1.14.822 2.411 2.968 2.411 2.757 0 5.645-2.252 5.645-4.584 0-1.564-1.325-2.438-2.968-2.438-2.57 0-5.644 2.173-5.644 4.61m464.39 0c0 1.14.822 2.412 2.968 2.412 2.756 0 5.644-2.252 5.644-4.584 0-1.564-1.325-2.438-2.967-2.438-2.57 0-5.644 2.173-5.644 4.61m-255.461-3.309c0 1.14.821 2.412 2.967 2.412 2.756 0 5.644-2.253 5.644-4.585 0-1.563-1.325-2.437-2.967-2.437-2.57 0-5.644 2.172-5.644 4.61m232.195 6.619c0 1.14.822 2.411 2.968 2.411 2.756 0 5.644-2.252 5.644-4.584 0-1.563-1.325-2.438-2.968-2.438-2.57 0-5.644 2.173-5.644 4.61m137.244-2.142a.99.99 0 0 1-1.06-.954c0-1.299 4.452-3.578 5.697-3.578.636 0 1.06.371 1.06.954 0 1.325-4.478 3.578-5.697 3.578m3.657-5.777c-2.57 0-5.645 2.146-5.645 4.61 0 1.14.822 2.412 2.968 2.412 2.756 0 5.644-2.252 5.644-4.584 0-1.564-1.325-2.438-2.967-2.438m-164.166 11.23c0 1.138.821 2.41 2.967 2.41 2.757 0 5.645-2.251 5.645-4.583 0-1.564-1.325-2.438-2.968-2.438-2.57 0-5.644 2.173-5.644 4.61m-193.42-6.618c0 1.14.82 2.411 2.967 2.411 2.756 0 5.645-2.252 5.645-4.584 0-1.564-1.325-2.438-2.969-2.438-2.57 0-5.643 2.173-5.643 4.61m-143.192-2.143a.99.99 0 0 1-1.06-.954c0-1.298 4.452-3.577 5.697-3.577.636 0 1.06.371 1.06.954 0 1.325-4.479 3.577-5.697 3.577m3.657-5.776c-2.57 0-5.645 2.146-5.645 4.61 0 1.14.822 2.412 2.968 2.412 2.756 0 5.645-2.253 5.645-4.585 0-1.563-1.325-2.437-2.968-2.437m-61.64 1.301c0 1.14.822 2.411 2.968 2.411 2.756 0 5.644-2.252 5.644-4.584 0-1.563-1.325-2.438-2.968-2.438-2.57 0-5.644 2.173-5.644 4.611M442.96 30.906c0 1.139.823 2.41 2.969 2.41 2.755 0 5.644-2.251 5.644-4.583 0-1.563-1.325-2.438-2.968-2.438-2.57 0-5.645 2.173-5.645 4.61m-135.436-5.452a.99.99 0 0 1-1.06-.954c0-1.298 4.452-3.577 5.697-3.577.636 0 1.06.37 1.06.954 0 1.325-4.478 3.577-5.697 3.577m3.657-5.777c-2.57 0-5.644 2.147-5.644 4.61 0 1.14.821 2.412 2.968 2.412 2.755 0 5.643-2.252 5.643-4.584 0-1.563-1.325-2.438-2.967-2.438m-111.193 1.302c0 1.14.821 2.411 2.968 2.411 2.755 0 5.643-2.252 5.643-4.584 0-1.564-1.324-2.438-2.967-2.438-2.57 0-5.644 2.173-5.644 4.61m227.463 0c0 1.14.821 2.412 2.967 2.412 2.757 0 5.644-2.252 5.644-4.584 0-1.564-1.325-2.438-2.967-2.438-2.57 0-5.644 2.173-5.644 4.61M99.63 11.05c0 1.14.821 2.411 2.967 2.411 2.756 0 5.644-2.252 5.644-4.584 0-1.564-1.325-2.438-2.967-2.438-2.571 0-5.644 2.173-5.644 4.61m312.31 13.238c0 1.14.821 2.411 2.968 2.411 2.756 0 5.644-2.252 5.644-4.584 0-1.563-1.325-2.438-2.967-2.438-2.57 0-5.645 2.173-5.645 4.61m-38.775-3.308c0 1.14.821 2.411 2.967 2.411 2.757 0 5.645-2.252 5.645-4.584 0-1.564-1.325-2.438-2.968-2.438-2.57 0-5.644 2.173-5.644 4.61m-32.73 3.31c0 1.14.822 2.411 2.968 2.411 2.755 0 5.644-2.252 5.644-4.584 0-1.563-1.325-2.438-2.968-2.438-2.57 0-5.644 2.173-5.644 4.61m-124.937 0c0 1.14.821 2.412 2.967 2.412 2.757 0 5.645-2.252 5.645-4.584 0-1.563-1.325-2.438-2.968-2.438-2.57 0-5.644 2.173-5.644 4.61m-48.24 0c0 1.14.82 2.412 2.967 2.412 2.756 0 5.644-2.252 5.644-4.584 0-1.563-1.325-2.438-2.968-2.438-2.57 0-5.643 2.173-5.643 4.61m32.73-3.31v18.779h.662V20.977Zm173.177 0v20.4h.662v-20.4ZM99.63 11.05v22.053h.662V11.05Zm335.764-9.352v17.109h.662V1.697ZM132.36 17.667v22.054h.662V17.667Zm208.075 6.619V43.03h.662V24.286ZM450.903 3.284v25.45h.662V3.284ZM305.537 24.286V43.03h.662V24.286ZM76.364 14.358v22.054h.662V14.358Zm90.893 9.928V43.03h.662V24.286ZM478.902 4.973v20.451h.662V4.973ZM277.537 20.977v17.055h.662V20.977Zm216.686 3.309V43.03h.662V24.286Zm23.265-3.31v20.4h.662v-20.4Zm-255.46-3.309v18.779h.661V17.667Zm-208.93 3.31v20.398h.662V20.977Zm193.419-6.62v22.089h.662V14.358Zm303.702 3.31v22.054h.662V17.667Zm23.264 3.31v20.398h.663V20.977Zm-342.476 0v17.055h.662V20.977Zm365.742-6.62v22.055h.662V14.358Zm-381.253 9.929v17.056h.662V24.286Zm413.983-3.31v20.4h.662v-20.4Zm-217.54 3.31v17.056h.662V24.286Zm-15.51-3.31v18.779h.662V20.977ZM71.718 4.504c-6.013.128-11.94 3.555-14.468 9.339a.2.2 0 0 0 0 .051.2.2 0 0 0-.002.061.2.2 0 0 0 .035.051.2.2 0 0 0 .029.042l.01-.002.013.014a.165.165 0 0 0 .19-.058l.016-.003c2.151-3.337 6.117-5.841 10.448-7.073s9.021-1.19 12.607.514a.165.165 0 0 0 .165-.286c-2.72-1.879-5.894-2.717-9.043-2.65m.005.334c2.462-.053 4.936.461 7.187 1.603-3.357-1.025-7.314-.885-11.012.167-3.697 1.052-7.134 3.016-9.45 5.654 2.81-4.611 8.009-7.309 13.275-7.424m-14.321 9.07C61.21 5.195 72.842 1.885 80.667 7.29c-7.27-3.455-18.903-.146-23.265 6.619M243.175 2.826c-15.646.197-31.329 3.887-38.997 10.96a.165.165 0 0 0-.017.214v.01l.005.003.002.007h.01a.165.165 0 0 0 .214.018c7.542-5.907 23.187-9.096 38.787-9.293 15.601-.197 31.17 2.6 38.56 8.498a.165.165 0 0 0 .216-.25c-7.523-7.071-23.133-10.365-38.78-10.167m.004.33c13.644-.172 27.259 2.351 35.403 7.638-8.258-4.485-21.813-6.552-35.407-6.38-13.592.172-27.2 2.582-35.57 7.151 8.262-5.371 21.933-8.237 35.574-8.409m-38.89 10.752c15.214-14.032 62.637-14.816 77.552-.794-14.915-11.904-62.338-11.12-77.551.794m91.782-4.335v27.202h1.191V9.573Zm-173.177 0v27.202h1.191V9.573Zm240.805 0v27.202h1.19V9.573Zm97.794 0v27.202h1.19V9.573Zm79.261 0v27.202h1.191V9.573Zm79.26 0v27.202h1.192V9.573Zm57.344 0v27.202H681V9.573Zm-3.64 0v27.202h1.192V9.573Zm-483.196 0v27.202h1.191V9.573ZM0 36.048v.728h681v-.728Zm0-6.619v.728h681v-.728Zm0-6.619v.728h681v-.728zm0-6.618v.727h681v-.727Zm0-6.62v.729h681v-.728Z"/>
</svg>
