<?xml version="1.0" encoding="UTF-8" standalone="no"?>
<svg
   width="681"
   height="186.10622"
   version="1.2"
   id="svg167"
   xmlns="http://www.w3.org/2000/svg"
   xmlns:svg="http://www.w3.org/2000/svg"
   xmlns:rdf="http://www.w3.org/1999/02/22-rdf-syntax-ns#"
   xmlns:cc="http://creativecommons.org/ns#"
   xmlns:dc="http://purl.org/dc/elements/1.1/">
  <defs
     id="defs167" />
  <title
     id="title1">air_XIII</title>
  <desc
     id="desc1">Generated by MuseScore Studio 4.7.3</desc>
  <path
     id="path167"
     class="NoteDot"
     d="m 525.88836,89.034237 c 0,0.742107 0.5828,1.324906 1.3249,1.324906 0.74131,0 1.32491,-0.582799 1.32491,-1.324906 0,-0.742107 -0.5836,-1.324906 -1.32491,-1.324906 -0.7421,0 -1.3249,0.582799 -1.3249,1.324906 m 99.84106,82.733373 c 0,0.7421 0.5828,1.3249 1.32491,1.3249 0.74211,0 1.32491,-0.5828 1.32491,-1.3249 0,-0.74131 -0.5828,-1.32491 -1.32491,-1.32491 -0.74211,0 -1.32491,0.5836 -1.32491,1.32491 m -568.991438,-24.82578 19.840766,1.65473 v 3.32067 L 56.737982,150.2633 v -3.32147 m 38.357423,6.61893 19.839965,1.65473 v 3.32067 l -19.839965,-1.65473 v -3.32067 M 597.34202,7.9504761 619.27621,9.6051275 V 12.923877 L 597.34202,11.269225 V 7.9504761 m -344.273,138.9913539 19.84077,1.65473 v 3.32067 l -19.84077,-1.65393 v -3.32147 M 545.33125,4.6410933 567.26625,2.986442 v 3.3187492 l -21.935,1.6546513 V 4.6410933 m -52.78009,142.3007367 19.84077,1.65473 v 3.32067 l -19.84077,-1.65393 v -3.32147 m 2.29197,-109.207469 21.935,1.654731 v 3.31907 l -21.935,-1.654732 V 37.734361 M 386.95737,7.9504761 408.89156,6.2957447 V 9.6144939 L 386.95737,11.269225 V 7.9504761 m 67.23717,134.0279639 19.83996,1.65393 v 3.32147 l -19.83996,-1.65473 v -3.32067 M 44.008478,32.792582 v 1.96054 h -2.199104 c -0.185727,0 -0.370653,0.159309 -0.370653,0.370654 v 0.503544 c 0,0.212145 0.184926,0.371454 0.370653,0.371454 h 8.02869 c 0.212145,0 0.371454,-0.159309 0.371454,-0.371454 v -0.503544 c 0,-0.211345 -0.159309,-0.370654 -0.371454,-0.370654 h -2.384831 v -1.96054 h 2.384831 c 0.212145,0 0.371454,-0.185727 0.371454,-0.397872 v -0.503544 c 0,-0.184927 -0.159309,-0.370654 -0.371454,-0.370654 h -2.384831 v -4.213281 c 0,-0.159309 -0.07925,-0.291399 -0.184926,-0.344235 l -0.318618,-0.159309 c -0.05284,-0.02642 -0.07925,-0.02642 -0.13209,-0.02642 -0.105673,0 -0.212145,0 -0.2914,0.07925 l -2.411248,2.199904 c -0.08005,0.07925 -0.106473,0.184927 -0.106473,0.2914 v 2.172685 h -3.073301 c 0,0 2.967629,-3.179774 6.094567,-7.366637 0.105672,-0.13209 0.13209,-0.264981 0.13209,-0.370653 0,-0.132891 -0.05284,-0.238563 -0.07925,-0.264981 l -0.582799,-0.583279 c -0.08005,-0.053 -0.159309,-0.105993 -0.264981,-0.105993 -0.159309,0 -3.736154,0 -3.9483,0 -0.185727,0 -0.317817,0.158989 -0.344235,0.317978 0,0 -0.132891,1.961181 -0.822162,4.107448 -0.688471,2.146268 -1.483414,3.471174 -2.172686,4.451844 0,0 -0.07925,0.13209 -0.07925,0.291399 0,0.05284 0,0.105673 0.02642,0.158509 0.07925,0.185727 0.264981,0.477126 0.264981,0.477126 0,0 0.05284,0.159309 0.2914,0.159309 h 4.557516 m 2.740274,-16.829988 c 2.119849,-0.821441 2.25274,-2.199343 2.25274,-2.67631 v -0.13249 c 0,-0.238483 -0.07925,-3.2327705 -4.637571,-3.2327705 -4.557516,0 -4.424625,3.2327705 -4.424625,3.2327705 h 0.02642 l -0.02642,0.053 c 0,0.953932 0.768525,1.69588 1.721977,1.69588 0.954252,0 1.69636,-0.741948 1.69636,-1.69588 0,-0.768445 -0.583599,-1.510393 -1.324906,-1.669381 l 0.07925,-0.07949 c 0.370654,-0.264981 0.874198,-0.397471 1.377742,-0.397471 1.112761,0 2.305577,0.662452 2.305577,2.093351 0,1.669381 -1.245652,1.907864 -1.563469,1.960861 -0.317818,0.053 -1.802033,0.158988 -2.11985,0.158988 -0.317817,0 -0.344235,0.370974 -0.344235,0.370974 v 0.529962 c 0,0 0.05284,0.29148 0.344235,0.317978 0.450708,0.0265 1.059925,0.0265 1.907705,0.158988 1.166397,0.158989 1.775614,0.953933 1.775614,2.808801 0,1.775374 -1.192816,2.25234 -2.305577,2.25234 -0.742107,0 -1.430578,-0.211985 -1.721977,-0.42397 0.874198,-0.053 1.589887,-0.821442 1.589887,-1.695879 0,-0.953933 -0.742108,-1.722378 -1.69636,-1.722378 -0.953452,0 -1.721977,0.768445 -1.721977,1.722378 0,2.172845 1.986958,3.259268 3.948299,3.259268 2.543339,0 5.299624,-0.874438 5.299624,-3.762733 0,-1.934362 -1.324906,-2.755804 -2.491304,-3.126778 h 0.05284 M 30.371963,21.7873 c 0,2.093591 -1.086343,3.206352 -2.623394,4.425586 l 0.07925,-5.167533 c 0.05284,-0.238483 0.450709,-1.006929 1.510633,-1.006929 0.954253,0 1.033507,0.900936 1.033507,1.457397 V 21.7873 m -0.317817,-3.047284 c -1.324906,0 -2.093432,0.821442 -2.226323,0.980431 l 0.106473,-8.505896 c 0,-0.211985 -0.159309,-0.370974 -0.371454,-0.370974 h -0.317817 c -0.212145,0 -0.370654,0.158989 -0.370654,0.370974 l 0.132091,15.925369 c 0,0.212145 0.159309,0.370653 0.371454,0.370653 0.05284,0 0.158508,-0.02642 0.211344,-0.05284 2.279159,-1.139179 4.663989,-3.311864 4.663989,-6.041411 0,-1.377902 -0.635634,-2.67631 -2.199103,-2.67631 m 0.317817,142.040078 c 0,2.09343 -1.086343,3.2062 -2.623394,4.42543 l 0.07925,-5.16753 c 0.05284,-0.23857 0.450709,-1.00709 1.510633,-1.00709 0.954253,0 1.033507,0.90141 1.033507,1.45779 v 0.2914 m -0.317817,-3.04768 c -1.324906,0 -2.093432,0.82136 -2.226323,0.98067 l 0.106473,-8.50582 c 0,-0.21214 -0.159309,-0.37065 -0.371454,-0.37065 h -0.317817 c -0.212145,0 -0.370654,0.15851 -0.370654,0.37065 l 0.132091,15.92529 c 0,0.21215 0.159309,0.37066 0.371454,0.37066 0.05284,0 0.158508,-0.0264 0.211344,-0.0528 2.279159,-1.13918 4.663989,-3.31186 4.663989,-6.04173 0,-1.37774 -0.635634,-2.67623 -2.199103,-2.67623 m 0.317817,-66.448636 c 0,2.093431 -1.086343,3.206192 -2.623394,4.425426 l 0.07925,-5.167533 c 0.05284,-0.238563 0.450709,-1.007089 1.510633,-1.007089 0.954253,0 1.033507,0.901416 1.033507,1.457797 v 0.291399 M 30.054134,88.23613 c -1.324906,0 -2.093432,0.821362 -2.226323,0.980671 l 0.106473,-8.505816 c 0,-0.212145 -0.159309,-0.370654 -0.371454,-0.370654 h -0.317817 c -0.212145,0 -0.370654,0.158509 -0.370654,0.370654 l 0.132091,15.925289 c 0,0.212145 0.159309,0.370653 0.371454,0.370653 0.05284,0 0.158508,-0.02642 0.211344,-0.05284 2.279159,-1.139179 4.663989,-3.311864 4.663989,-6.041731 0,-1.377742 -0.635634,-2.67623 -2.199103,-2.67623 M 16.093311,34.924439 c -0.529962,0.106473 -1.033427,0.159309 -1.536891,0.159309 -3.789231,0 -7.0220012,-2.649811 -7.0220012,-6.650947 0,-3.233411 2.2788382,-6.121386 4.6106722,-8.135243 0.450468,-0.397471 0.874438,-0.768445 1.27191,-1.165917 0.238483,1.430899 0.42397,2.67631 0.609457,3.762733 -2.411329,0.715129 -4.0542123,3.259268 -4.0542123,5.749771 0,1.854869 1.4573963,4.399008 3.5772463,4.399008 0.211985,0 0.450468,-0.105672 0.450468,-0.344235 0,-0.238563 -0.264982,-0.371454 -0.582959,-0.582799 -1.033427,-0.636435 -1.616385,-1.324906 -1.616385,-2.623393 0,-1.616306 1.192415,-2.914793 2.755804,-3.286247 l 1.536891,8.71796 M 13.761477,7.6844542 c 0.238483,-1.0599247 1.457396,-3.8422271 2.835298,-3.8422271 0.397472,0 1.033427,1.2984078 1.033427,3.1267779 0,2.7558043 -2.040355,4.822658 -3.868725,6.62453 -0.158989,-1.059925 -0.29148,-2.093352 -0.29148,-3.206273 0,-0.9804301 0.0795,-1.8813661 0.29148,-2.7028078 m 6.094567,22.3382338 c 0,1.881286 -0.768446,3.815409 -2.649812,4.583934 -0.556461,-3.179774 -1.27191,-7.393055 -1.457397,-8.558652 2.384831,0 4.107209,1.616305 4.107209,3.974718 M 8.1968718,43.059602 c 0,1.748395 1.351404,4.053972 4.9286502,4.053972 1.245411,0 2.331834,-0.317818 3.285766,-0.900616 1.430899,-1.007089 1.801872,-2.756285 1.801872,-4.425426 0,-1.033507 -0.158988,-2.225522 -0.423969,-3.736154 -0.07949,-0.529963 -0.238484,-1.324906 -0.397472,-2.358413 2.596815,-0.84778 4.531178,-3.550428 4.531178,-6.280294 0,-4.001136 -2.835299,-6.703784 -6.704024,-6.703784 -0.264981,-1.589887 -0.529962,-3.153276 -0.768445,-4.637171 2.8088,-2.941291 4.743163,-6.253555 4.743163,-10.4667561 0,-2.4113288 -0.741948,-4.3721895 -1.165917,-5.3261218 C 17.391719,0.92743413 16.623273,0 16.146307,0 15.96082,0 15.139379,0.31797742 14.264941,1.351404 c -1.69588,2.013857 -2.172846,5.4056161 -2.172846,7.631458 0,1.430898 0.132491,2.729306 0.582959,5.697095 -0.0265,0.0265 -1.404401,1.430899 -1.960861,1.881367 -2.4113287,2.25234 -5.7500916,5.458612 -5.7500916,10.757915 0,4.955389 4.3191932,8.850852 9.2478436,8.850852 0.768445,0 1.483894,-0.07925 2.093351,-0.185727 0.503464,2.54414 0.794943,4.399008 0.794943,5.803168 0,2.755484 -1.4044,4.213281 -4.08071,4.213281 -0.635955,0 -1.192415,-0.132891 -1.245411,-0.132891 -0.0265,-0.02642 -0.07949,-0.05284 -0.07949,-0.07925 0,-0.05284 0.053,-0.07925 0.132491,-0.105672 1.245412,-0.185727 2.490823,-1.245652 2.490823,-2.941211 0,-1.431379 -1.086423,-2.941211 -3.073782,-2.941211 -1.8548679,0 -3.0472832,1.509832 -3.0472832,3.259028 M 16.093311,173.91708 c -0.529962,0.10647 -1.033427,0.1593 -1.536891,0.1593 -3.789231,0 -7.0220012,-2.64981 -7.0220012,-6.65094 0,-3.23341 2.2788382,-6.12099 4.6106722,-8.13517 0.450468,-0.39787 0.874438,-0.76852 1.27191,-1.16559 0.238483,1.43058 0.42397,2.67623 0.609457,3.76257 -2.411329,0.71489 -4.0542123,3.25903 -4.0542123,5.74953 0,1.85487 1.4573963,4.39901 3.5772463,4.39901 0.211985,0 0.450468,-0.10567 0.450468,-0.34424 0,-0.23856 -0.264982,-0.37145 -0.582959,-0.58279 -1.033427,-0.63644 -1.616385,-1.32491 -1.616385,-2.6234 0,-1.6163 1.192415,-2.91479 2.755804,-3.28625 l 1.536891,8.71797 m -2.331834,-27.24023 c 0.238483,-1.05992 1.457396,-3.84183 2.835298,-3.84183 0.397472,0 1.033427,1.29849 1.033427,3.12694 0,2.75549 -2.040355,4.8225 -3.868725,6.62453 -0.158989,-1.05992 -0.29148,-2.09343 -0.29148,-3.20619 0,-0.98067 0.0795,-1.88209 0.29148,-2.70345 m 6.094567,22.33847 c 0,1.88129 -0.768446,3.81541 -2.649812,4.58394 -0.556461,-3.17978 -1.27191,-7.39306 -1.457397,-8.55865 2.384831,0 4.107209,1.6163 4.107209,3.97471 M 8.1968718,182.05224 c 0,1.74839 1.351404,4.05397 4.9286502,4.05397 1.245411,0 2.331834,-0.31782 3.285766,-0.90062 1.430899,-1.00708 1.801872,-2.75628 1.801872,-4.42542 0,-1.03351 -0.158988,-2.22552 -0.423969,-3.73616 -0.07949,-0.52996 -0.238484,-1.3249 -0.397472,-2.35841 2.596815,-0.84778 4.531178,-3.55043 4.531178,-6.28029 0,-4.00114 -2.835299,-6.70379 -6.704024,-6.70379 -0.264981,-1.58988 -0.529962,-3.15335 -0.768445,-4.63677 2.8088,-2.94201 4.743163,-6.25387 4.743163,-10.46715 0,-2.41125 -0.741948,-4.37179 -1.165917,-5.32605 -0.635955,-1.35132 -1.404401,-2.27915 -1.881367,-2.27915 -0.185487,0 -1.006928,0.31861 -1.881366,1.35132 -1.69588,2.01418 -2.172846,5.4061 -2.172846,7.63162 0,1.43138 0.132491,2.72986 0.582959,5.69749 -0.0265,0.0264 -1.404401,1.43058 -1.960861,1.88129 -2.4113287,2.25194 -5.7500916,5.45813 -5.7500916,10.75776 0,4.95538 4.3191932,8.85085 9.2478436,8.85085 0.768445,0 1.483894,-0.0793 2.093351,-0.18573 0.503464,2.54414 0.794943,4.39901 0.794943,5.80317 0,2.75548 -1.4044,4.21328 -4.08071,4.21328 -0.635955,0 -1.192415,-0.13289 -1.245411,-0.13289 -0.0265,-0.0264 -0.07949,-0.0528 -0.07949,-0.0793 0,-0.0528 0.053,-0.0792 0.132491,-0.10567 1.245412,-0.18573 2.490823,-1.24565 2.490823,-2.94121 0,-1.43138 -1.086423,-2.94121 -3.073782,-2.94121 -1.8548679,0 -3.0472832,1.50983 -3.0472832,3.25903 m 7.8964392,-77.63148 c -0.529962,0.10647 -1.033427,0.15931 -1.536891,0.15931 -3.789231,0 -7.0220012,-2.64982 -7.0220012,-6.650951 0,-3.233411 2.2788382,-6.120985 4.6106722,-8.135163 0.450468,-0.397872 0.874438,-0.768525 1.27191,-1.165597 0.238483,1.430579 0.42397,2.67623 0.609457,3.762573 -2.411329,0.714889 -4.0542123,3.259028 -4.0542123,5.749531 0,1.854869 1.4573963,4.399007 3.5772463,4.399007 0.211985,0 0.450468,-0.10567 0.450468,-0.34423 0,-0.23857 -0.264982,-0.37146 -0.582959,-0.5828 -1.033427,-0.63644 -1.616385,-1.32491 -1.616385,-2.623396 0,-1.616306 1.192415,-2.914793 2.755804,-3.286247 l 1.536891,8.717963 M 13.761477,77.180532 c 0.238483,-1.059925 1.457396,-3.841827 2.835298,-3.841827 0.397472,0 1.033427,1.298488 1.033427,3.126938 0,2.755484 -2.040355,4.822498 -3.868725,6.62453 -0.158989,-1.059925 -0.29148,-2.093432 -0.29148,-3.206193 0,-0.98067 0.0795,-1.882086 0.29148,-2.703448 m 6.094567,22.338474 c 0,1.881284 -0.768446,3.815404 -2.649812,4.583934 -0.556461,-3.17977 -1.27191,-7.393055 -1.457397,-8.558652 2.384831,0 4.107209,1.616305 4.107209,3.974718 M 8.1968718,112.55592 c 0,1.7484 1.351404,4.05397 4.9286502,4.05397 1.245411,0 2.331834,-0.31782 3.285766,-0.90061 1.430899,-1.00709 1.801872,-2.75629 1.801872,-4.42543 0,-1.03351 -0.158988,-2.22552 -0.423969,-3.73615 -0.07949,-0.52997 -0.238484,-1.32491 -0.397472,-2.35842 2.596815,-0.84778 4.531178,-3.55042 4.531178,-6.280291 0,-4.001136 -2.835299,-6.703784 -6.704024,-6.703784 -0.264981,-1.589887 -0.529962,-3.153356 -0.768445,-4.63677 2.8088,-2.942012 4.743163,-6.253876 4.743163,-10.467157 0,-2.411249 -0.741948,-4.371789 -1.165917,-5.326042 -0.635955,-1.351324 -1.404401,-2.279158 -1.881367,-2.279158 -0.185487,0 -1.006928,0.318618 -1.881366,1.351324 -1.69588,2.014177 -2.172846,5.406096 -2.172846,7.631618 0,1.431379 0.132491,2.729866 0.582959,5.697495 -0.0265,0.02642 -1.404401,1.430579 -1.960861,1.881287 -2.4113287,2.25194 -5.7500916,5.458132 -5.7500916,10.757755 0,4.955393 4.3191932,8.850853 9.2478436,8.850853 0.768445,0 1.483894,-0.0793 2.093351,-0.18573 0.503464,2.54414 0.794943,4.39901 0.794943,5.80317 0,2.75548 -1.4044,4.21328 -4.08071,4.21328 -0.635955,0 -1.192415,-0.13289 -1.245411,-0.13289 -0.0265,-0.0264 -0.07949,-0.0528 -0.07949,-0.0793 0,-0.0528 0.053,-0.0793 0.132491,-0.10568 1.245412,-0.18572 2.490823,-1.24565 2.490823,-2.94121 0,-1.43138 -1.086423,-2.94121 -3.073782,-2.94121 -1.8548679,0 -3.0472832,1.50983 -3.0472832,3.25903 M 386.7116,90.146998 c 0,1.139179 0.82136,2.411248 2.96763,2.411248 2.75548,0 5.64386,-2.251939 5.64386,-4.583934 0,-1.563469 -1.32491,-2.437667 -2.96763,-2.437667 -2.57056,0 -5.64386,2.172686 -5.64386,4.610353 m 78.71862,76.115242 c 0,1.13918 0.82136,2.41125 2.96763,2.41125 2.75628,0 5.64466,-2.25194 5.64466,-4.58393 0,-1.56347 -1.32491,-2.43767 -2.96763,-2.43767 -2.57056,0 -5.64466,2.17268 -5.64466,4.61035 m -19.17871,-3.30946 c 0,1.13918 0.82216,2.41125 2.96843,2.41125 2.75548,0 5.64386,-2.25194 5.64386,-4.58394 0,-1.56347 -1.32491,-2.43766 -2.96763,-2.43766 -2.57056,0 -5.64466,2.17268 -5.64466,4.61035 M 347.10532,27.269606 c 0,1.139178 0.82136,2.411248 2.96843,2.411248 2.75548,0 5.64385,-2.25274 5.64385,-4.583934 0,-1.563469 -1.3249,-2.438067 -2.96762,-2.438067 -2.57056,0 -5.64466,2.173086 -5.64466,4.610753 m 70.37852,132.373714 c 0,1.13917 0.82136,2.41124 2.96843,2.41124 2.75548,0 5.64386,-2.25194 5.64386,-4.58393 0,-1.56347 -1.32491,-2.43767 -2.96763,-2.43767 -2.57056,0 -5.64466,2.17269 -5.64466,4.61036 M 400.28728,27.269606 c 0,1.139178 0.82136,2.411248 2.96843,2.411248 2.75548,0 5.64386,-2.25274 5.64386,-4.583934 0,-1.563469 -1.32491,-2.438067 -2.96763,-2.438067 -2.57056,0 -5.64466,2.173086 -5.64466,4.610753 m 21.27294,6.618925 c 0,1.139179 0.82137,2.411249 2.96763,2.411249 2.75629,0 5.64466,-2.25274 5.64466,-4.584735 0,-1.563469 -1.3249,-2.437667 -2.96843,-2.437667 -2.56975,0 -5.64386,2.172686 -5.64386,4.611153 m 41.37389,-9.928388 c 0,1.139179 0.82137,2.411248 2.96763,2.411248 2.75629,0 5.64466,-2.251939 5.64466,-4.584094 0,-1.563389 -1.3249,-2.437827 -2.96763,-2.437827 -2.57055,0 -5.64466,2.172846 -5.64466,4.610673 M 379.2513,156.33385 c 0,1.13998 0.82216,2.41125 2.96843,2.41125 2.75548,0 5.64385,-2.25194 5.64385,-4.58393 0,-1.56347 -1.3249,-2.43767 -2.96762,-2.43767 -2.57056,0 -5.64466,2.17269 -5.64466,4.61035 M 494.84313,20.65076 c 0,1.139419 0.82216,2.411329 2.96843,2.411329 2.75549,0 5.64386,-2.25234 5.64386,-4.584175 0,-1.563389 -1.32491,-2.437827 -2.96763,-2.437827 -2.57056,0 -5.64466,2.172846 -5.64466,4.610673 M 338.08715,160.80971 c -0.8742,0 -1.05992,-0.71569 -1.05992,-0.95425 0,-1.29849 4.45184,-3.57765 5.69749,-3.57765 0.63564,0 1.05993,0.37146 1.05993,0.95426 0,1.3249 -4.47827,3.57764 -5.6975,3.57764 m 3.6569,-5.77675 c -2.57056,0 -5.64386,2.14627 -5.64386,4.61036 0,1.13917 0.82136,2.41124 2.96763,2.41124 2.75548,0 5.64386,-2.25194 5.64386,-4.58393 0,-1.56347 -1.32491,-2.43767 -2.96763,-2.43767 m 142.86488,14.53874 c 0,1.13918 0.82137,2.41125 2.96763,2.41125 2.75629,0 5.64386,-2.25274 5.64386,-4.58393 0,-1.56347 -1.3249,-2.43847 -2.96763,-2.43847 -2.56975,0 -5.64386,2.17349 -5.64386,4.61115 M 516.11608,23.960143 c 0,1.139179 0.82136,2.411248 2.96763,2.411248 2.75628,0 5.64466,-2.251939 5.64466,-4.584094 0,-1.563389 -1.32491,-2.437827 -2.96763,-2.437827 -2.57056,0 -5.64466,2.172846 -5.64466,4.610673 m 21.27294,3.309463 c 0,1.139178 0.82136,2.411248 2.96763,2.411248 2.75629,0 5.64466,-2.25274 5.64466,-4.583934 0,-1.563469 -1.3249,-2.438067 -2.96843,-2.438067 -2.56976,0 -5.64386,2.173086 -5.64386,4.610753 M 285.47117,170.7373 c -0.87499,0 -1.05992,-0.71569 -1.05992,-0.95345 0,-1.29849 4.45184,-3.57765 5.69669,-3.57765 0.63644,0 1.05993,0.37066 1.05993,0.95426 0,1.3249 -4.47826,3.57684 -5.6967,3.57684 m 3.6569,-5.77675 c -2.57055,0 -5.64465,2.14627 -5.64465,4.61115 0,1.13918 0.82136,2.41125 2.96762,2.41125 2.75629,0 5.64466,-2.25274 5.64466,-4.58393 0,-1.56347 -1.3249,-2.43847 -2.96763,-2.43847 M 305.73143,23.960143 c 0,1.139179 0.82136,2.411248 2.96843,2.411248 2.75548,0 5.64386,-2.251939 5.64386,-4.584094 0,-1.563389 -1.32491,-2.437827 -2.96763,-2.437827 -2.57056,0 -5.64466,2.172846 -5.64466,4.610673 M 264.3047,172.88117 c 0,1.13918 0.82216,2.41125 2.96843,2.41125 2.75549,0 5.64386,-2.25274 5.64386,-4.58474 0,-1.56267 -1.32491,-2.43767 -2.96763,-2.43767 -2.57056,0 -5.64466,2.17269 -5.64466,4.61116 M 558.66197,23.960143 c 0,1.139179 0.82136,2.411248 2.96763,2.411248 2.75548,0 5.64386,-2.251939 5.64386,-4.584094 0,-1.563389 -1.32491,-2.437827 -2.96763,-2.437827 -2.57056,0 -5.64386,2.172846 -5.64386,4.610673 M 503.78765,172.88117 c 0,1.13918 0.82136,2.41125 2.96763,2.41125 2.75548,0 5.64386,-2.25274 5.64386,-4.58474 0,-1.56267 -1.32491,-2.43767 -2.96763,-2.43767 -2.57056,0 -5.64386,2.17269 -5.64386,4.61116 M 245.12679,169.5717 c 0,1.13918 0.82136,2.41125 2.96763,2.41125 2.75548,0 5.64386,-2.25274 5.64386,-4.58393 0,-1.56347 -1.32491,-2.43847 -2.96763,-2.43847 -2.57056,0 -5.64386,2.17349 -5.64386,4.61115 M 589.39978,30.579068 c 0,1.139179 0.82137,2.411249 2.96763,2.411249 2.75549,0 5.64386,-2.25274 5.64386,-4.583934 0,-1.563469 -1.3249,-2.438468 -2.96763,-2.438468 -2.57055,0 -5.64386,2.173487 -5.64386,4.611153 M 259.85526,21.816677 c -0.8742,0 -1.05993,-0.715449 -1.05993,-0.953932 0,-1.298408 4.45185,-3.577246 5.6967,-3.577246 0.63643,0 1.05992,0.370974 1.05992,0.953932 0,1.324906 -4.47746,3.577246 -5.69669,3.577246 m 3.6569,-5.77659 c -2.57056,0 -5.64466,2.146348 -5.64466,4.610673 0,1.139419 0.82216,2.411329 2.96843,2.411329 2.75548,0 5.64386,-2.25234 5.64386,-4.584175 0,-1.563389 -1.32491,-2.437827 -2.96763,-2.437827 m 347.15977,17.848444 c 0,1.139179 0.82136,2.411249 2.96843,2.411249 2.75548,0 5.64386,-2.25274 5.64386,-4.584735 0,-1.563469 -1.32491,-2.437667 -2.96763,-2.437667 -2.57056,0 -5.64466,2.172686 -5.64466,4.611153 M 206.89425,166.26224 c 0,1.13918 0.82136,2.41125 2.96763,2.41125 2.75548,0 5.64386,-2.25194 5.64386,-4.58393 0,-1.56347 -1.32491,-2.43767 -2.96763,-2.43767 -2.57056,0 -5.64386,2.17268 -5.64386,4.61035 M 633.93263,31.744665 c -0.87499,0 -1.05992,-0.715689 -1.05992,-0.953452 0,-1.298487 4.45104,-3.577646 5.69669,-3.577646 0.63644,0 1.05993,0.370654 1.05993,0.954253 0,1.324906 -4.47826,3.576845 -5.6967,3.576845 m 3.6561,-5.77675 c -2.56975,0 -5.64386,2.146268 -5.64386,4.611153 0,1.139179 0.82137,2.411249 2.96763,2.411249 2.75629,0 5.64466,-2.25274 5.64466,-4.583934 0,-1.563469 -1.3249,-2.438468 -2.96843,-2.438468 M 165.7301,170.7373 c -0.875,0 -1.05992,-0.71569 -1.05992,-0.95345 0,-1.29849 4.45104,-3.57765 5.69669,-3.57765 0.63644,0 1.05993,0.37066 1.05993,0.95426 0,1.3249 -4.47827,3.57684 -5.6967,3.57684 m 3.6561,-5.77675 c -2.56976,0 -5.64386,2.14627 -5.64386,4.61115 0,1.13918 0.82136,2.41125 2.96763,2.41125 2.75629,0 5.64466,-2.25274 5.64466,-4.58393 0,-1.56347 -1.3249,-2.43847 -2.96843,-2.43847 M 216.49361,10.722772 c 0,1.139419 0.82216,2.411328 2.96843,2.411328 2.75548,0 5.64386,-2.25234 5.64386,-4.584174 0,-1.563389 -1.32491,-2.4378269 -2.96763,-2.4378269 -2.57056,0 -5.64466,2.1728457 -5.64466,4.6106729 m -45.87617,11.093905 c -0.87419,0 -1.05992,-0.715449 -1.05992,-0.953932 0,-1.298408 4.45184,-3.577246 5.69749,-3.577246 0.63564,0 1.05993,0.370974 1.05993,0.953932 0,1.324906 -4.47826,3.577246 -5.6975,3.577246 m 3.6569,-5.77659 c -2.57055,0 -5.64386,2.146348 -5.64386,4.610673 0,1.139419 0.82137,2.411329 2.96763,2.411329 2.75549,0 5.64386,-2.25234 5.64386,-4.584175 0,-1.563389 -1.3249,-2.437827 -2.96763,-2.437827 M 48.795751,103.38485 c 0,1.13918 0.821362,2.41125 2.967629,2.41125 2.756285,0 5.64466,-2.25274 5.64466,-4.58474 0,-1.562665 -1.324906,-2.437664 -2.967629,-2.437664 -2.570558,0 -5.64466,2.172684 -5.64466,4.611154 m 76.714049,79.42391 c 0,1.13997 0.82136,2.41124 2.96763,2.41124 2.75628,0 5.64466,-2.25194 5.64466,-4.58393 0,-1.56347 -1.32491,-2.43767 -2.96843,-2.43767 -2.56976,0 -5.64386,2.17269 -5.64386,4.61036 M 79.748115,96.765923 c 0,1.139179 0.821358,2.411249 2.967626,2.411249 2.756284,0 5.643859,-2.25274 5.643859,-4.583934 0,-1.563469 -1.324906,-2.438467 -2.967629,-2.438467 -2.569758,0 -5.643856,2.173486 -5.643856,4.611152 m 30.952365,-3.309462 c 0,1.139179 0.82136,2.411248 2.96762,2.411248 2.75549,0 5.64386,-2.251939 5.64386,-4.583934 0,-1.563469 -1.3249,-2.437667 -2.96763,-2.437667 -2.57055,0 -5.64385,2.172686 -5.64385,4.610353 m -4.36939,86.042829 c 0,1.13998 0.82216,2.41125 2.96843,2.41125 2.75548,0 5.64386,-2.25194 5.64386,-4.58393 0,-1.56347 -1.32491,-2.43767 -2.96763,-2.43767 -2.57056,0 -5.64466,2.17269 -5.64466,4.61035 m 46.77358,-88.185895 c -0.875,0 -1.05993,-0.715689 -1.05993,-0.954252 0,-1.298488 4.45105,-3.577646 5.6967,-3.577646 0.63643,0 1.05992,0.371454 1.05992,0.954252 0,1.324906 -4.47826,3.577646 -5.69669,3.577646 m 3.6561,-5.77675 c -2.56976,0 -5.64386,2.146268 -5.64386,4.610353 0,1.139179 0.82136,2.411248 2.96763,2.411248 2.75628,0 5.64466,-2.251939 5.64466,-4.583934 0,-1.563469 -1.32491,-2.437667 -2.96843,-2.437667 M 532.43043,169.5717 c 0,1.13918 0.82136,2.41125 2.96763,2.41125 2.75629,0 5.64466,-2.25274 5.64466,-4.58393 0,-1.56347 -1.32491,-2.43847 -2.96763,-2.43847 -2.57056,0 -5.64466,2.17349 -5.64466,4.61115 m -445.277255,6.61813 c 0,1.13998 0.821361,2.41205 2.967629,2.41205 2.755484,0 5.643859,-2.25274 5.643859,-4.58474 0,-1.56347 -1.324906,-2.43766 -2.967629,-2.43766 -2.570558,0 -5.643859,2.17268 -5.643859,4.61035 M 197.54546,80.21941 c 0,1.139179 0.82136,2.411249 2.96762,2.411249 2.75549,0 5.64386,-2.252741 5.64386,-4.584735 0,-1.563469 -1.3249,-2.437667 -2.96763,-2.437667 -2.57055,0 -5.64385,2.172686 -5.64385,4.611153 M 67.974465,172.88117 c 0,1.13918 0.821361,2.41125 2.967629,2.41125 2.756284,0 5.643859,-2.25274 5.643859,-4.58474 0,-1.56267 -1.324906,-2.43767 -2.967629,-2.43767 -2.569758,0 -5.643859,2.17269 -5.643859,4.61116 M 239.94965,91.313395 c -0.875,0 -1.05993,-0.715689 -1.05993,-0.954252 0,-1.298488 4.45185,-3.577646 5.6967,-3.577646 0.63643,0 1.05992,0.371454 1.05992,0.954252 0,1.324906 -4.47826,3.577646 -5.69669,3.577646 m 3.6569,-5.77675 c -2.57056,0 -5.64466,2.146268 -5.64466,4.610353 0,1.139179 0.82136,2.411248 2.96763,2.411248 2.75628,0 5.64466,-2.251939 5.64466,-4.583934 0,-1.563469 -1.32491,-2.437667 -2.96763,-2.437667 M 127.2566,23.960143 c 0,1.139179 0.82136,2.411248 2.96762,2.411248 2.75549,0 5.64386,-2.251939 5.64386,-4.584094 0,-1.563389 -1.3249,-2.437827 -2.96763,-2.437827 -2.57055,0 -5.64385,2.172846 -5.64385,4.610673 M 48.795751,169.5717 c 0,1.13918 0.821362,2.41125 2.967629,2.41125 2.756285,0 5.64466,-2.25274 5.64466,-4.58393 0,-1.56347 -1.324906,-2.43847 -2.967629,-2.43847 -2.570558,0 -5.64466,2.17349 -5.64466,4.61115 M 284.39044,93.456461 c 0,1.139179 0.82136,2.411248 2.96762,2.411248 2.75549,0 5.64386,-2.251939 5.64386,-4.583934 0,-1.563469 -1.3249,-2.437667 -2.96763,-2.437667 -2.57055,0 -5.64385,2.172686 -5.64385,4.610353 M 563.18586,170.7373 c -0.8742,0 -1.05992,-0.71569 -1.05992,-0.95345 0,-1.29849 4.45184,-3.57765 5.69669,-3.57765 0.63644,0 1.05993,0.37066 1.05993,0.95426 0,1.3249 -4.47827,3.57684 -5.6967,3.57684 m 3.6569,-5.77675 c -2.57056,0 -5.64466,2.14627 -5.64466,4.61115 0,1.13918 0.82136,2.41125 2.96843,2.41125 2.75549,0 5.64386,-2.25274 5.64386,-4.58393 0,-1.56347 -1.32491,-2.43847 -2.96763,-2.43847 M 95.346777,27.269606 c 0,1.139178 0.821362,2.411248 2.96843,2.411248 2.755483,0 5.643863,-2.25274 5.643863,-4.583934 0,-1.563469 -1.32491,-2.438067 -2.96763,-2.438067 -2.570561,0 -5.644663,2.173086 -5.644663,4.610753 M 324.80687,96.765923 c 0,1.139179 0.82136,2.411249 2.96763,2.411249 2.75628,0 5.64466,-2.25274 5.64466,-4.583934 0,-1.563469 -1.32491,-2.438467 -2.96763,-2.438467 -2.57056,0 -5.64466,2.173486 -5.64466,4.611152 m 30.95236,-3.309462 c 0,1.139179 0.82137,2.411248 2.96763,2.411248 2.75629,0 5.64386,-2.251939 5.64386,-4.583934 0,-1.563469 -1.3249,-2.437667 -2.96763,-2.437667 -2.56975,0 -5.64386,2.172686 -5.64386,4.610353 m 293.09721,3.309462 c 0,1.139179 0.82136,2.411249 2.96763,2.411249 2.75628,0 5.64466,-2.25274 5.64466,-4.583934 0,-1.563469 -1.32491,-2.438467 -2.96763,-2.438467 -2.57056,0 -5.64466,2.173486 -5.64466,4.611152 M 63.437763,33.888531 c 0,1.139179 0.821361,2.411249 2.967629,2.411249 2.756284,0 5.644659,-2.25274 5.644659,-4.584735 0,-1.563469 -1.324906,-2.437667 -2.968429,-2.437667 -2.569757,0 -5.643859,2.172686 -5.643859,4.611153 M 604.41565,101.24098 c -0.8742,0 -1.05992,-0.71569 -1.05992,-0.95345 0,-1.298486 4.45184,-3.577645 5.69749,-3.577645 0.63564,0 1.05993,0.370654 1.05993,0.954253 0,1.324906 -4.47826,3.576842 -5.6975,3.576842 m 3.6569,-5.776747 c -2.57056,0 -5.64386,2.146268 -5.64386,4.611157 0,1.13918 0.82136,2.41124 2.96763,2.41124 2.75549,0 5.64386,-2.25274 5.64386,-4.583929 0,-1.563469 -1.3249,-2.438468 -2.96763,-2.438468 M 427.12803,86.837535 c 0,1.139979 0.82136,2.411249 2.96763,2.411249 2.75629,0 5.64466,-2.25194 5.64466,-4.583935 0,-1.563469 -1.32491,-2.437666 -2.96763,-2.437666 -2.57056,0 -5.64466,2.172685 -5.64466,4.610352 m 32.93932,7.784523 c -0.87419,0 -1.05992,-0.714889 -1.05992,-0.953452 0,-1.298488 4.45184,-3.577647 5.69749,-3.577647 0.63564,0 1.05993,0.371454 1.05993,0.954253 0,1.324906 -4.47826,3.576846 -5.6975,3.576846 m 3.6569,-5.77595 c -2.56975,0 -5.64385,2.146268 -5.64385,4.610353 0,1.139179 0.82136,2.411248 2.96762,2.411248 2.75629,0 5.64386,-2.251939 5.64386,-4.583934 0,-1.563469 -1.3249,-2.437667 -2.96763,-2.437667 m 52.23652,2.467287 c -0.875,0 -1.05992,-0.715689 -1.05992,-0.954252 0,-1.298488 4.45184,-3.577646 5.69669,-3.577646 0.63644,0 1.05993,0.371454 1.05993,0.954252 0,1.324906 -4.47827,3.577646 -5.6967,3.577646 m 3.6569,-5.77675 c -2.57056,0 -5.64466,2.146268 -5.64466,4.610353 0,1.139179 0.82136,2.411248 2.96763,2.411248 2.75629,0 5.64466,-2.251939 5.64466,-4.583934 0,-1.563469 -1.32491,-2.437667 -2.96763,-2.437667 M 379.01513,30.579068 c 0,1.139179 0.82137,2.411249 2.96763,2.411249 2.75549,0 5.64386,-2.25274 5.64386,-4.583934 0,-1.563469 -1.3249,-2.438468 -2.96763,-2.438468 -2.57055,0 -5.64386,2.173487 -5.64386,4.611153 M 615.80184,174.04676 c -0.8742,0 -1.05993,-0.71569 -1.05993,-0.95425 0,-1.29769 4.45185,-3.57684 5.6975,-3.57684 0.63563,0 1.05992,0.37065 1.05992,0.95425 0,1.3249 -4.47826,3.57684 -5.69749,3.57684 m 3.6569,-5.77675 c -2.57056,0 -5.64386,2.14627 -5.64386,4.61116 0,1.13918 0.82136,2.41125 2.96763,2.41125 2.75548,0 5.64386,-2.25274 5.64386,-4.58474 0,-1.56267 -1.32491,-2.43767 -2.96763,-2.43767 M 566.6046,4.6708353 V 21.78832 h 0.66201 V 4.6708353 Z M 513.97345,90.146157 v 20.398783 h 0.66202 V 90.146157 Z M 355.04792,4.6458182 V 25.097769 h 0.66201 V 4.6458182 Z M 492.55162,148.6302 v 18.76956 h 0.66201 V 148.6302 Z M 386.95692,9.58482 v 18.822403 h 0.66217 V 9.58482 Z m -0.2458,80.561337 v 20.398783 h 0.66218 V 90.146157 Z m 71.3688,3.309447 v 18.744066 h 0.66218 V 93.455604 Z M 610.37046,75.797122 v 22.106363 h 0.66217 V 75.797122 Z m -183.24201,11.03958 v 22.053518 h 0.66202 V 86.836702 Z m 46.24443,58.428858 v 18.82475 h 0.66202 v -18.82475 z m 148.38459,3.33665 v 22.107 h 0.66216 v -22.107 z m 35.04161,-74.459811 v 20.451639 h 0.66202 V 74.142399 Z M 71.380369,9.6098371 V 31.71667 h 0.662013 V 9.6098371 Z M 454.19415,143.66603 v 17.11482 h 0.66201 V 143.66603 Z M 408.2299,7.9801292 V 25.097769 h 0.66202 V 7.9801292 Z M 355.75887,93.455604 v 18.744066 h 0.66202 V 93.455604 Z m 61.72533,66.186976 v 20.39863 h 0.66202 V 159.64258 Z M 332.74954,74.142399 v 20.451639 h 0.66202 V 74.142399 Z M 429.50289,9.6098371 V 31.71667 h 0.66201 V 9.6098371 Z M 103.28937,4.6458182 V 25.097769 h 0.66202 V 4.6458182 Z M 56.738326,148.6302 v 18.76956 h 0.662173 V 148.6302 Z M 284.39007,93.455604 v 18.744066 h 0.66202 V 93.455604 Z M 75.917063,150.22974 v 20.47947 h 0.662013 V 150.22974 Z M 237.96223,90.146157 v 20.398783 h 0.66218 V 90.146157 Z m 67.76962,-66.186823 v 18.744064 h 0.66201 V 23.959334 Z m -178.47562,0 v 18.744064 h 0.66201 V 23.959334 Z M 95.095021,155.2491 v 18.76877 h 0.662013 V 155.2491 Z M 197.54507,80.217801 v 22.053519 h 0.66201 V 80.217801 Z m -83.27131,76.630839 v 20.47884 h 0.66201 v -20.47884 z m 36.84362,-66.702483 v 20.398783 h 0.66202 V 90.146157 Z M 462.9345,23.959334 v 18.744064 h 0.66201 V 23.959334 Z M 569.14071,145.29354 v 22.10622 h 0.66201 V 145.29354 Z M 133.4525,158.53057 v 22.10636 h 0.66201 V 158.53057 Z M 110.70006,93.455604 v 18.744066 h 0.66202 V 93.455604 Z M 257.86788,20.649729 v 20.398946 h 0.66201 V 20.649729 Z M 87.690734,74.142399 v 20.451639 h 0.662021 V 74.142399 Z M 494.8435,20.649729 v 18.768927 h 0.66201 V 20.649729 Z M 56.738326,79.105792 v 22.107148 h 0.662173 V 79.105792 Z M 379.25166,156.33312 v 22.05337 h 0.66216 V 156.33312 Z M 171.68505,145.29354 v 22.10622 h 0.66201 v -22.10622 z m 164.41476,14.34904 v 20.39863 h 0.66201 V 159.64258 Z M 168.63014,20.649729 v 20.398946 h 0.66201 V 20.649729 Z m 46.20597,122.989091 v 20.45149 h 0.66201 V 143.63882 Z M 639.88752,6.3005432 V 28.407223 h 0.66201 V 6.3005432 Z M 540.37307,145.29354 v 22.10622 h 0.66201 V 145.29354 Z M 618.61454,11.239545 V 31.71667 h 0.66201 V 11.239545 Z M 516.11649,23.959334 v 17.064484 h 0.66201 V 23.959334 Z M 253.06866,148.6302 v 18.76956 h 0.66201 V 148.6302 Z M 216.49396,10.721691 v 22.053207 h 0.66218 V 10.721691 Z M 545.33161,6.2755261 V 25.097769 h 0.66202 V 6.2755261 Z M 291.42597,145.29354 v 22.10622 h 0.66218 v -22.10622 z m -19.17857,4.9362 v 20.47947 h 0.66201 V 150.22974 Z M 597.34155,9.6348542 V 28.407223 h 0.66217 V 9.6348542 Z M 511.72942,150.22974 v 20.47947 h 0.66217 v -20.47947 z m -388.40354,30.93662 v 1.05916 h 12.97371 v -1.05916 z M 451.97782,94.914257 v -4.346171 l 3.0741,-0.874198 v 4.371789 l -3.0741,0.84858 m 3.6569,-7.419473 c -0.0528,-0.05364 -0.13289,-0.08005 -0.21214,-0.08005 -0.0264,0 -0.0793,0.02642 -0.10567,0.02642 l -3.33909,0.927834 v -4.637571 h -0.7421 V 96.84838 c 0,0.212145 0.1593,0.344235 0.37145,0.344235 h 0.10567 l 3.33908,-0.927034 v 4.636769 h 0.71489 V 87.786184 c 0,-0.106473 -0.0528,-0.238564 -0.13209,-0.2914 m -105.97806,7.419473 v -4.346171 l 3.0741,-0.874198 v 4.371789 l -3.0741,0.84858 m 3.6569,-7.419473 c -0.0528,-0.05364 -0.13209,-0.08005 -0.21214,-0.08005 -0.0264,0 -0.0793,0.02642 -0.10568,0.02642 l -3.33908,0.927834 v -4.637571 h -0.74211 V 96.84838 c 0,0.212145 0.15931,0.344235 0.37146,0.344235 h 0.10567 l 3.33908,-0.927034 v 4.636769 h 0.71569 V 87.786184 c 0,-0.106473 -0.0536,-0.238564 -0.13289,-0.2914 M 453.46927,9.2458378 V 36.448658 h 1.19113 V 9.2458378 Z M 522.96632,148.23869 v 27.20266 h 1.19129 v -27.20266 z m -114.94656,0 v 27.20266 h 1.19129 v -27.20266 z m -81.3844,0 v 27.20266 h 1.19113 V 148.23869 Z M 248.40344,9.2458378 V 36.448658 h 1.19128 V 9.2458378 Z m 331.53152,0 V 36.448658 h 1.19113 V 9.2458378 Z m 1.73681,69.4965782 v 27.202514 h 3.64 V 78.742416 Z m -3.63983,0 v 27.202514 h 1.19129 V 78.742416 Z m -2.4472,16.910747 c 0,-0.768526 -0.60922,-1.404961 -1.37774,-1.404961 -0.76853,0 -1.37775,0.636435 -1.37775,1.404961 0,0.768525 0.60922,1.40416 1.37775,1.40416 0.76852,0 1.37774,-0.635635 1.37774,-1.40416 m 0,-6.618926 c 0,-0.768526 -0.60922,-1.40416 -1.37774,-1.40416 -0.76853,0 -1.37775,0.635634 -1.37775,1.40416 0,0.768525 0.60922,1.40416 1.37775,1.40416 0.76852,0 1.37774,-0.635635 1.37774,-1.40416 M 235.66191,148.23869 v 27.20266 h 1.19129 V 148.23869 Z M 679.80887,9.2458378 V 36.448658 H 681 V 9.2458378 Z M 154.27751,148.23869 v 27.20266 h 1.19114 V 148.23869 Z M 159.16554,9.2458378 V 36.448658 h 1.19129 V 9.2458378 Z M 141.65201,78.742416 v 27.202514 h 1.19128 V 78.742416 Z m 86.845,0 v 27.202514 h 1.19129 V 78.742416 Z m 375.85292,69.496274 v 27.20266 h 1.19129 V 148.23869 Z M 315.3428,78.742416 v 27.202514 h 1.19129 V 78.742416 Z m 364.46607,0 V 105.94493 H 681 V 78.742416 Z m -2.44933,69.496274 v 27.20266 h 3.64015 v -27.20266 z m -3.63967,0 v 27.20266 h 1.19113 v -27.20266 z m -2.44731,16.91079 c 0,-0.76852 -0.60921,-1.40496 -1.37774,-1.40496 -0.76852,0 -1.37774,0.63644 -1.37774,1.40496 0,0.76853 0.60922,1.40416 1.37774,1.40416 0.76853,0 1.37774,-0.63563 1.37774,-1.40416 m 0,-6.61893 c 0,-0.76852 -0.60921,-1.40416 -1.37774,-1.40416 -0.76852,0 -1.37774,0.63564 -1.37774,1.40416 0,0.76853 0.60922,1.40416 1.37774,1.40416 0.76853,0 1.37774,-0.63563 1.37774,-1.40416 M 417.66323,78.742416 v 27.202514 h 1.19113 V 78.742416 Z m 176.49341,16.910747 c 0,-0.768526 -0.60922,-1.404961 -1.37774,-1.404961 -0.76853,0 -1.37775,0.636435 -1.37775,1.404961 0,0.768525 0.60922,1.40416 1.37775,1.40416 0.76852,0 1.37774,-0.635635 1.37774,-1.40416 m 0,-6.618926 c 0,-0.768526 -0.60922,-1.40416 -1.37774,-1.40416 -0.76853,0 -1.37775,0.635634 -1.37775,1.40416 0,0.768525 0.60922,1.40416 1.37775,1.40416 0.76852,0 1.37774,-0.635635 1.37774,-1.40416 M 587.7611,78.742416 v 27.202514 h 1.19112 V 78.742416 Z m -6.08933,0 v 27.202514 h 3.64 V 78.742416 Z m -77.16276,0 v 27.202514 h 1.19113 V 78.742416 Z M 337.64117,9.2458378 V 36.448658 h 1.19128 V 9.2458378 Z M 0,174.7132 v 0.72768 h 681 v -0.72768 z m 0,-6.61812 v 0.72768 h 681 v -0.72768 z m 0,-6.6189 v 0.72768 h 681 v -0.72768 z m 0,-6.6189 v 0.72768 h 681 v -0.72768 z m 0,-6.61891 v 0.72769 h 681 v -0.72769 z m 0,-43.02144 v 0.72769 h 681 v -0.72769 z m 0,-6.618121 v 0.727681 h 681 v -0.727681 z m 0,-6.618902 v 0.727682 h 681 v -0.727682 z m 0,-6.619054 v 0.727842 h 681 v -0.727842 z m 0,-6.618901 v 0.727681 H 681 V 78.741952 Z M 0,35.720656 v 0.727689 h 681 v -0.727689 z m 0,-6.618269 v 0.727841 h 681 v -0.727841 z m 0,-6.61906 v 0.727685 h 681 v -0.727685 z m 0,-6.618588 v 0.727684 H 681 V 15.864739 Z M 0,9.2459947 V 9.9736795 H 681 V 9.2459947 Z"
     style="stroke-width:0.0800547" />
  <metadata
     id="metadata167">
    <rdf:RDF>
      <cc:Work
         rdf:about="">
        <dc:title>air_XIII</dc:title>
      </cc:Work>
    </rdf:RDF>
  </metadata>
</svg>
