<?xml version="1.0" encoding="UTF-8" standalone="no"?>
<svg width="210.058mm" height="296.926mm" viewBox="0 0 9924 14028"
 xmlns="http://www.w3.org/2000/svg" xmlns:xlink="http://www.w3.org/1999/xlink" version="1.2" baseProfile="full">
<title>air_LXIV</title>
<desc>Generated by MuseScore Studio 4.7.3</desc>
<polyline class="StaffLines" fill="none" stroke="#000000" stroke-width="9.09" stroke-linejoin="bevel" points="708.661,828.424 9215.34,828.424" />
<polyline class="StaffLines" fill="none" stroke="#000000" stroke-width="9.09" stroke-linejoin="bevel" points="708.661,911.101 9215.34,911.101" />
<polyline class="StaffLines" fill="none" stroke="#000000" stroke-width="9.09" stroke-linejoin="bevel" points="708.661,993.778 9215.34,993.778" />
<polyline class="StaffLines" fill="none" stroke="#000000" stroke-width="9.09" stroke-linejoin="bevel" points="708.661,1076.46 9215.34,1076.46" />
<polyline class="StaffLines" fill="none" stroke="#000000" stroke-width="9.09" stroke-linejoin="bevel" points="708.661,1159.13 9215.34,1159.13" />
<polyline class="BarLine" fill="none" stroke="#000000" stroke-width="14.88" stroke-linejoin="bevel" points="2527.75,823.876 2527.75,1163.68" />
<polyline class="BarLine" fill="none" stroke="#000000" stroke-width="14.88" stroke-linejoin="bevel" points="8362.35,823.876 8362.35,1163.68" />
<polyline class="BarLine" fill="none" stroke="#000000" stroke-width="14.88" stroke-linejoin="bevel" points="6531.65,823.876 6531.65,1163.68" />
<polyline class="BarLine" fill="none" stroke="#000000" stroke-width="14.88" stroke-linejoin="bevel" points="9131.84,823.876 9131.84,1163.68" />
<polyline class="BarLine" fill="none" stroke="#000000" stroke-width="45.47" stroke-linejoin="bevel" points="9192.6,823.876 9192.6,1163.68" />
<polyline class="BarLine" fill="none" stroke="#000000" stroke-width="14.88" stroke-linejoin="bevel" points="4529.7,823.876 4529.7,1163.68" />
<path class="Accidental" d="M6105.49,860.531 L6105.49,806.247 L6143.88,795.324 L6143.88,849.939 L6105.49,860.531 M6151.16,767.851 C6150.5,767.189 6149.51,766.858 6148.52,766.858 C6148.19,766.858 6147.52,767.189 6147.19,767.189 L6105.49,778.774 L6105.49,720.849 L6096.22,720.849 L6096.22,884.694 C6096.22,887.342 6098.2,888.997 6100.85,888.997 L6102.18,888.997 L6143.88,877.412 L6143.88,935.337 L6152.82,935.337 L6152.82,771.492 C6152.82,770.168 6152.16,768.513 6151.16,767.851"/>
<polyline class="Stem" fill="none" stroke="#000000" stroke-width="8.27" stroke-linejoin="bevel" points="1839.45,966.329 1839.45,1221.14" />
<polyline class="Stem" fill="none" stroke="#000000" stroke-width="8.27" stroke-linejoin="bevel" points="5843.35,883.652 5843.35,1159.13" />
<polyline class="Stem" fill="none" stroke="#000000" stroke-width="8.27" stroke-linejoin="bevel" points="8576.49,1063.23 8576.49,787.085" />
<polyline class="Stem" fill="none" stroke="#000000" stroke-width="8.27" stroke-linejoin="bevel" points="3255.62,1021.89 3255.62,766.416" />
<polyline class="Stem" fill="none" stroke="#000000" stroke-width="8.27" stroke-linejoin="bevel" points="8115.76,1021.89 8115.76,766.416" />
<polyline class="Stem" fill="none" stroke="#000000" stroke-width="8.27" stroke-linejoin="bevel" points="3498.91,1007.67 3498.91,1241.81" />
<polyline class="Stem" fill="none" stroke="#000000" stroke-width="8.27" stroke-linejoin="bevel" points="7674.06,966.329 7674.06,1221.14" />
<polyline class="Stem" fill="none" stroke="#000000" stroke-width="8.27" stroke-linejoin="bevel" points="3841.4,966.329 3841.4,1221.14" />
<polyline class="Stem" fill="none" stroke="#000000" stroke-width="8.27" stroke-linejoin="bevel" points="7160.31,1007.67 7160.31,1241.81" />
<polyline class="Stem" fill="none" stroke="#000000" stroke-width="8.27" stroke-linejoin="bevel" points="4283.11,1021.89 4283.11,766.416" />
<polyline class="Stem" fill="none" stroke="#000000" stroke-width="8.27" stroke-linejoin="bevel" points="6646.57,924.991 6646.57,1200.47" />
<polyline class="Stem" fill="none" stroke="#000000" stroke-width="8.27" stroke-linejoin="bevel" points="1496.96,1007.67 1496.96,1241.81" />
<polyline class="Stem" fill="none" stroke="#000000" stroke-width="8.27" stroke-linejoin="bevel" points="2281.16,1021.89 2281.16,766.416" />
<polyline class="Stem" fill="none" stroke="#000000" stroke-width="8.27" stroke-linejoin="bevel" points="4644.62,1007.67 4644.62,1241.81" />
<polyline class="Stem" fill="none" stroke="#000000" stroke-width="8.27" stroke-linejoin="bevel" points="6185.85,842.313 6185.85,1117.79" />
<polyline class="Stem" fill="none" stroke="#000000" stroke-width="8.27" stroke-linejoin="bevel" points="5158.36,966.329 5158.36,1221.14" />
<polyline class="Stem" fill="none" stroke="#000000" stroke-width="8.27" stroke-linejoin="bevel" points="2741.88,1063.23 2741.88,787.085" />
<polyline class="Stem" fill="none" stroke="#000000" stroke-width="8.27" stroke-linejoin="bevel" points="5500.86,924.991 5500.86,1200.47" />
<path class="Note" d="M5839.22,883.664 C5839.22,897.897 5849.48,913.785 5876.29,913.785 C5910.71,913.785 5946.79,885.65 5946.79,856.522 C5946.79,836.993 5930.24,826.07 5909.72,826.07 C5877.61,826.07 5839.22,853.212 5839.22,883.664"/>
<path class="Note" d="M5496.72,925.003 C5496.72,939.236 5506.98,955.124 5533.8,955.124 C5568.22,955.124 5604.3,926.989 5604.3,897.861 C5604.3,878.332 5587.75,867.409 5567.23,867.409 C5535.12,867.409 5496.72,894.551 5496.72,925.003"/>
<path class="Note" d="M5154.23,966.341 C5154.23,980.574 5164.49,996.462 5191.3,996.462 C5225.72,996.462 5261.8,968.327 5261.8,939.199 C5261.8,919.67 5245.25,908.747 5224.73,908.747 C5192.62,908.747 5154.23,935.889 5154.23,966.341"/>
<path class="Note" d="M6181.71,842.326 C6181.71,856.559 6191.97,872.447 6218.79,872.447 C6253.21,872.447 6289.29,844.312 6289.29,815.184 C6289.29,795.655 6272.74,784.732 6252.22,784.732 C6220.11,784.732 6181.71,811.874 6181.71,842.326"/>
<path class="Note" d="M2177.81,1049.02 C2177.81,1063.25 2188.07,1079.14 2214.88,1079.14 C2249.31,1079.14 2285.39,1051 2285.39,1021.88 C2285.39,1002.35 2268.84,991.425 2248.32,991.425 C2216.21,991.425 2177.81,1018.57 2177.81,1049.02"/>
<path class="Note" d="M1492.82,1007.68 C1492.82,1021.91 1503.08,1037.8 1529.89,1037.8 C1564.32,1037.8 1600.4,1009.67 1600.4,980.538 C1600.4,961.009 1583.85,950.086 1563.33,950.086 C1531.22,950.086 1492.82,977.228 1492.82,1007.68"/>
<path class="Note" d="M4179.76,1049.02 C4179.76,1063.25 4190.02,1079.14 4216.84,1079.14 C4251.26,1079.14 4287.34,1051 4287.34,1021.88 C4287.34,1002.35 4270.79,991.425 4250.27,991.425 C4218.16,991.425 4179.76,1018.57 4179.76,1049.02"/>
<path class="Note" d="M6667.26,939.567 C6656.34,939.567 6654.02,930.63 6654.02,927.651 C6654.02,911.432 6709.63,882.966 6725.19,882.966 C6733.13,882.966 6738.43,887.6 6738.43,894.882 C6738.43,911.432 6682.49,939.567 6667.26,939.567 M6712.94,867.409 C6680.83,867.409 6642.44,894.22 6642.44,925.003 C6642.44,939.236 6652.7,955.124 6679.51,955.124 C6713.93,955.124 6750.01,926.989 6750.01,897.861 C6750.01,878.332 6733.46,867.409 6712.94,867.409"/>
<path class="Note" d="M3837.27,966.341 C3837.27,980.574 3847.53,996.462 3874.34,996.462 C3908.76,996.462 3944.84,968.327 3944.84,939.199 C3944.84,919.67 3928.29,908.747 3907.77,908.747 C3875.66,908.747 3837.27,935.889 3837.27,966.341"/>
<path class="Note" d="M7181,1022.24 C7170.08,1022.24 7167.76,1013.31 7167.76,1010.33 C7167.76,994.109 7223.37,965.643 7238.93,965.643 C7246.87,965.643 7252.17,970.277 7252.17,977.559 C7252.17,994.109 7196.23,1022.24 7181,1022.24 M7226.68,950.086 C7194.58,950.086 7156.18,976.897 7156.18,1007.68 C7156.18,1021.91 7166.44,1037.8 7193.25,1037.8 C7227.68,1037.8 7263.75,1009.67 7263.75,980.538 C7263.75,961.009 7247.2,950.086 7226.68,950.086"/>
<path class="Note" d="M3494.77,1007.68 C3494.77,1021.91 3505.03,1037.8 3531.85,1037.8 C3566.27,1037.8 3602.35,1009.67 3602.35,980.538 C3602.35,961.009 3585.8,950.086 3565.28,950.086 C3533.17,950.086 3494.77,977.228 3494.77,1007.68"/>
<path class="Note" d="M7669.92,966.341 C7669.92,980.574 7680.18,996.462 7706.99,996.462 C7741.42,996.462 7777.5,968.327 7777.5,939.199 C7777.5,919.67 7760.95,908.747 7740.42,908.747 C7708.32,908.747 7669.92,935.889 7669.92,966.341"/>
<path class="Note" d="M3152.28,1049.02 C3152.28,1063.25 3162.54,1079.14 3189.35,1079.14 C3223.77,1079.14 3259.85,1051 3259.85,1021.88 C3259.85,1002.35 3243.3,991.425 3222.78,991.425 C3190.67,991.425 3152.28,1018.57 3152.28,1049.02"/>
<path class="Note" d="M8012.42,1049.02 C8012.42,1063.25 8022.68,1079.14 8049.49,1079.14 C8083.91,1079.14 8119.99,1051 8119.99,1021.88 C8119.99,1002.35 8103.44,991.425 8082.92,991.425 C8050.81,991.425 8012.42,1018.57 8012.42,1049.02"/>
<path class="Note" d="M1835.32,966.341 C1835.32,980.574 1845.58,996.462 1872.39,996.462 C1906.81,996.462 1942.89,968.327 1942.89,939.199 C1942.89,919.67 1926.34,908.747 1905.82,908.747 C1873.71,908.747 1835.32,935.889 1835.32,966.341"/>
<path class="Note" d="M2663.36,1104.92 C2652.44,1104.92 2650.12,1095.98 2650.12,1093.01 C2650.12,1076.79 2705.73,1048.32 2721.29,1048.32 C2729.23,1048.32 2734.53,1052.95 2734.53,1060.24 C2734.53,1076.79 2678.59,1104.92 2663.36,1104.92 M2709.04,1032.76 C2676.93,1032.76 2638.54,1059.57 2638.54,1090.36 C2638.54,1104.59 2648.8,1120.48 2675.61,1120.48 C2710.03,1120.48 2746.11,1092.34 2746.11,1063.22 C2746.11,1043.69 2729.56,1032.76 2709.04,1032.76"/>
<path class="Note" d="M8497.96,1104.92 C8487.04,1104.92 8484.72,1095.98 8484.72,1093.01 C8484.72,1076.79 8540.33,1048.32 8555.89,1048.32 C8563.83,1048.32 8569.13,1052.95 8569.13,1060.24 C8569.13,1076.79 8513.19,1104.92 8497.96,1104.92 M8543.64,1032.76 C8511.54,1032.76 8473.14,1059.57 8473.14,1090.36 C8473.14,1104.59 8483.4,1120.48 8510.21,1120.48 C8544.64,1120.48 8580.71,1092.34 8580.71,1063.22 C8580.71,1043.69 8564.16,1032.76 8543.64,1032.76"/>
<path class="Note" d="M4665.31,1022.24 C4654.39,1022.24 4652.07,1013.31 4652.07,1010.33 C4652.07,994.109 4707.68,965.643 4723.24,965.643 C4731.18,965.643 4736.48,970.277 4736.48,977.559 C4736.48,994.109 4680.54,1022.24 4665.31,1022.24 M4710.99,950.086 C4678.88,950.086 4640.49,976.897 4640.49,1007.68 C4640.49,1021.91 4650.75,1037.8 4677.56,1037.8 C4711.98,1037.8 4748.06,1009.67 4748.06,980.538 C4748.06,961.009 4731.51,950.086 4710.99,950.086"/>
<path class="Clef" d="M909.689,1144.64 C903.069,1145.97 896.78,1146.63 890.491,1146.63 C843.158,1146.63 802.776,1113.53 802.776,1063.55 C802.776,1023.16 831.242,987.085 860.37,961.929 C865.997,956.964 871.293,952.33 876.258,947.365 C879.237,965.239 881.554,980.796 883.871,994.367 C853.75,1003.3 833.228,1035.08 833.228,1066.19 C833.228,1089.36 851.433,1121.14 877.913,1121.14 C880.561,1121.14 883.54,1119.82 883.54,1116.84 C883.54,1113.86 880.23,1112.2 876.258,1109.56 C863.349,1101.61 856.067,1093.01 856.067,1076.79 C856.067,1056.6 870.962,1040.38 890.491,1035.74 L909.689,1144.64 M880.561,804.373 C883.54,791.133 898.766,756.378 915.978,756.378 C920.943,756.378 928.887,772.597 928.887,795.436 C928.887,829.86 903.4,855.678 880.561,878.186 C878.575,864.946 876.92,852.037 876.92,838.135 C876.92,825.888 877.913,814.634 880.561,804.373 M956.691,1083.41 C956.691,1106.91 947.092,1131.07 923.591,1140.67 C916.64,1100.95 907.703,1048.32 905.386,1033.76 C935.176,1033.76 956.691,1053.95 956.691,1083.41 M811.051,1246.26 C811.051,1268.1 827.932,1296.9 872.617,1296.9 C888.174,1296.9 901.745,1292.93 913.661,1285.65 C931.535,1273.07 936.169,1251.22 936.169,1230.37 C936.169,1217.46 934.183,1202.57 930.873,1183.7 C929.88,1177.08 927.894,1167.15 925.908,1154.24 C958.346,1143.65 982.509,1109.89 982.509,1075.79 C982.509,1025.81 947.092,992.05 898.766,992.05 C895.456,972.19 892.146,952.661 889.167,934.125 C924.253,897.384 948.416,856.009 948.416,803.38 C948.416,773.259 939.148,748.765 933.852,736.849 C925.908,719.968 916.309,708.383 910.351,708.383 C908.034,708.383 897.773,712.355 886.85,725.264 C865.666,750.42 859.708,792.788 859.708,820.592 C859.708,838.466 861.363,854.685 866.99,891.757 C866.659,892.088 849.447,909.631 842.496,915.258 C812.375,943.393 770.669,983.444 770.669,1049.64 C770.669,1111.54 824.622,1160.2 886.188,1160.2 C895.787,1160.2 904.724,1159.21 912.337,1157.88 C918.626,1189.66 922.267,1212.83 922.267,1230.37 C922.267,1264.79 904.724,1283 871.293,1283 C863.349,1283 856.398,1281.34 855.736,1281.34 C855.405,1281.01 854.743,1280.68 854.743,1280.35 C854.743,1279.69 855.405,1279.36 856.398,1279.03 C871.955,1276.71 887.512,1263.47 887.512,1242.29 C887.512,1224.41 873.941,1205.55 849.116,1205.55 C825.946,1205.55 811.051,1224.41 811.051,1246.26"/>
<path class="KeySig" d="M1070.17,803.93 L1099.63,797.972 L1099.63,852.587 L1070.17,858.876 L1070.17,803.93 M1121.48,793.669 C1123.47,793.338 1125.12,791.021 1125.12,789.035 L1125.12,769.506 C1125.12,766.858 1123.13,764.872 1120.49,764.872 L1119.82,764.872 L1108.9,767.189 L1108.9,717.87 L1099.63,717.87 L1099.63,769.175 L1070.17,775.133 L1070.17,728.462 L1060.91,728.462 L1060.91,777.119 L1048,779.767 C1046.01,780.098 1044.36,782.415 1044.36,784.401 L1044.36,803.599 C1044.36,806.247 1046.34,808.233 1048.99,808.233 L1049.98,808.233 L1060.91,805.916 L1060.91,860.531 L1048,863.179 C1046.01,863.51 1044.36,865.827 1044.36,867.813 L1044.36,887.011 C1044.36,889.659 1046.34,891.645 1048.99,891.645 L1049.98,891.645 L1060.91,889.328 L1060.91,938.647 L1070.17,938.647 L1070.17,887.342 L1099.63,881.384 L1099.63,928.055 L1108.9,928.055 L1108.9,879.398 L1121.48,877.081 C1123.47,876.75 1125.12,874.433 1125.12,872.447 L1125.12,852.918 C1125.12,850.27 1123.13,848.284 1120.49,848.284 L1119.82,848.284 L1108.9,850.601 L1108.9,795.986 L1121.48,793.669 "/>
<path class="TimeSig" d="M1294.95,907.779 C1321.43,897.518 1323.08,880.306 1323.08,874.348 L1323.08,872.693 C1323.08,869.714 1322.09,832.311 1265.16,832.311 C1208.23,832.311 1209.88,872.693 1209.88,872.693 L1210.21,872.693 L1209.88,873.355 C1209.88,885.271 1219.48,894.539 1231.4,894.539 C1243.31,894.539 1252.58,885.271 1252.58,873.355 C1252.58,863.756 1245.3,854.488 1236.03,852.502 L1237.02,851.509 C1241.66,848.199 1247.95,846.544 1254.24,846.544 C1268.14,846.544 1283.03,854.819 1283.03,872.693 C1283.03,893.546 1267.48,896.525 1263.5,897.187 C1259.53,897.849 1241,899.173 1237.02,899.173 C1233.05,899.173 1232.72,903.807 1232.72,903.807 L1232.72,910.427 C1232.72,910.427 1233.38,914.068 1237.02,914.399 C1242.65,914.73 1250.26,914.73 1260.86,916.385 C1275.42,918.371 1283.03,928.301 1283.03,951.471 C1283.03,973.648 1268.14,979.606 1254.24,979.606 C1244.97,979.606 1236.36,976.958 1232.72,974.31 C1243.64,973.648 1252.58,964.049 1252.58,953.126 C1252.58,941.21 1243.31,931.611 1231.4,931.611 C1219.48,931.611 1209.88,941.21 1209.88,953.126 C1209.88,980.268 1234.71,993.839 1259.2,993.839 C1290.98,993.839 1325.4,982.916 1325.4,946.837 C1325.4,922.674 1308.85,912.413 1294.29,907.779 L1294.95,907.779 "/>
<path class="TimeSig" d="M1315.98,1087.39 C1313.33,1094.67 1306.71,1118.5 1290.49,1118.5 C1268.98,1118.5 1264.34,1105.26 1246.47,1105.26 C1243.82,1105.26 1241.17,1105.6 1237.86,1106.26 C1237.86,1106.26 1246.14,1093.68 1281.22,1082.76 C1316.31,1071.83 1325.25,1054.62 1325.25,1034.76 C1325.25,1020.86 1318.96,993.386 1268.98,993.386 C1218.99,993.386 1209.73,1023.51 1209.73,1038.73 C1209.73,1052.3 1220.98,1063.23 1234.55,1063.23 C1248.12,1063.23 1259.05,1052.3 1259.05,1038.73 C1259.05,1029.47 1252.43,1019.2 1243.82,1015.89 C1242.83,1015.56 1241.5,1013.91 1241.5,1012.25 C1241.5,1010.27 1243.16,1007.95 1249.12,1006.3 C1250.77,1005.63 1255.4,1004.64 1260.37,1004.64 C1279.24,1004.64 1282.88,1016.23 1282.88,1033.11 C1282.88,1071.83 1236.87,1080.11 1217.67,1108.91 C1217.67,1108.91 1207.74,1122.81 1207.74,1138.36 C1207.74,1153.92 1215.68,1154.91 1219.66,1154.91 C1224.95,1154.91 1230.58,1150.61 1230.58,1144.65 C1230.58,1143.33 1230.25,1142.01 1229.59,1140.35 C1227.6,1135.72 1226.94,1132.08 1226.94,1129.43 C1226.94,1128.43 1226.94,1127.44 1227.27,1126.45 C1227.6,1124.46 1230.25,1121.15 1238.19,1121.15 C1247.79,1121.15 1251.43,1132.41 1257.39,1141.01 C1263.35,1149.62 1272.62,1154.91 1283.21,1154.91 C1293.8,1154.91 1308.03,1147.3 1313.99,1135.05 C1319.95,1122.81 1327.56,1097.98 1327.56,1089.05 C1327.56,1084.74 1324.91,1082.76 1321.94,1082.76 C1319.62,1082.76 1317.3,1084.08 1315.98,1087.39"/>
<path class="NoteDot" d="M8621.97,1035.12 C8621.97,1044.38 8629.25,1051.67 8638.52,1051.67 C8647.79,1051.67 8655.07,1044.38 8655.07,1035.12 C8655.07,1025.85 8647.79,1018.57 8638.52,1018.57 C8629.25,1018.57 8621.97,1025.85 8621.97,1035.12"/>
</svg>
