<?xml version="1.0" encoding="UTF-8" standalone="no"?>
<svg width="210.058mm" height="296.926mm" viewBox="0 0 9924 14028"
 xmlns="http://www.w3.org/2000/svg" xmlns:xlink="http://www.w3.org/1999/xlink" version="1.2" baseProfile="full">
<title>air_XXIX</title>
<desc>Generated by MuseScore Studio 4.7.3</desc>
<polyline class="StaffLines" fill="none" stroke="#000000" stroke-width="9.09" stroke-linejoin="bevel" points="708.661,860.47 9215.34,860.47" />
<polyline class="StaffLines" fill="none" stroke="#000000" stroke-width="9.09" stroke-linejoin="bevel" points="708.661,943.147 9215.34,943.147" />
<polyline class="StaffLines" fill="none" stroke="#000000" stroke-width="9.09" stroke-linejoin="bevel" points="708.661,1025.82 9215.34,1025.82" />
<polyline class="StaffLines" fill="none" stroke="#000000" stroke-width="9.09" stroke-linejoin="bevel" points="708.661,1108.5 9215.34,1108.5" />
<polyline class="StaffLines" fill="none" stroke="#000000" stroke-width="9.09" stroke-linejoin="bevel" points="708.661,1191.18 9215.34,1191.18" />
<polyline class="StaffLines" fill="none" stroke="#000000" stroke-width="9.09" stroke-linejoin="bevel" points="708.661,1728.58 9215.34,1728.58" />
<polyline class="StaffLines" fill="none" stroke="#000000" stroke-width="9.09" stroke-linejoin="bevel" points="708.661,1811.26 9215.34,1811.26" />
<polyline class="StaffLines" fill="none" stroke="#000000" stroke-width="9.09" stroke-linejoin="bevel" points="708.661,1893.93 9215.34,1893.93" />
<polyline class="StaffLines" fill="none" stroke="#000000" stroke-width="9.09" stroke-linejoin="bevel" points="708.661,1976.61 9215.34,1976.61" />
<polyline class="StaffLines" fill="none" stroke="#000000" stroke-width="9.09" stroke-linejoin="bevel" points="708.661,2059.29 9215.34,2059.29" />
<path class="BarLine" d="M9093.83,1852.6 C9093.83,1843 9086.22,1835.05 9076.62,1835.05 C9067.02,1835.05 9059.41,1843 9059.41,1852.6 C9059.41,1862.2 9067.02,1870.14 9076.62,1870.14 C9086.22,1870.14 9093.83,1862.2 9093.83,1852.6"/>
<path class="BarLine" d="M9093.83,1935.27 C9093.83,1925.67 9086.22,1917.73 9076.62,1917.73 C9067.02,1917.73 9059.41,1925.67 9059.41,1935.27 C9059.41,1944.87 9067.02,1952.82 9076.62,1952.82 C9086.22,1952.82 9093.83,1944.87 9093.83,1935.27"/>
<polyline class="BarLine" fill="none" stroke="#000000" stroke-width="14.88" stroke-linejoin="bevel" points="9131.84,1724.03 9131.84,2063.84" />
<polyline class="BarLine" fill="none" stroke="#000000" stroke-width="45.47" stroke-linejoin="bevel" points="9192.6,1724.03 9192.6,2063.84" />
<polyline class="BarLine" fill="none" stroke="#000000" stroke-width="14.88" stroke-linejoin="bevel" points="8225.71,1724.03 8225.71,2063.84" />
<polyline class="BarLine" fill="none" stroke="#000000" stroke-width="14.88" stroke-linejoin="bevel" points="2158.46,855.923 2158.46,1195.73" />
<polyline class="BarLine" fill="none" stroke="#000000" stroke-width="14.88" stroke-linejoin="bevel" points="6333.3,1724.03 6333.3,2063.84" />
<polyline class="BarLine" fill="none" stroke="#000000" stroke-width="14.88" stroke-linejoin="bevel" points="4126.55,855.923 4126.55,1195.73" />
<polyline class="BarLine" fill="none" stroke="#000000" stroke-width="45.47" stroke-linejoin="bevel" points="1459.67,1724.03 1459.67,2063.84" />
<polyline class="BarLine" fill="none" stroke="#000000" stroke-width="14.88" stroke-linejoin="bevel" points="1520.44,1724.03 1520.44,2063.84" />
<path class="BarLine" d="M1592.89,1852.6 C1592.89,1843 1585.28,1835.05 1575.68,1835.05 C1566.08,1835.05 1558.47,1843 1558.47,1852.6 C1558.47,1862.2 1566.08,1870.14 1575.68,1870.14 C1585.28,1870.14 1592.89,1862.2 1592.89,1852.6"/>
<path class="BarLine" d="M1592.89,1935.27 C1592.89,1925.67 1585.28,1917.73 1575.68,1917.73 C1566.08,1917.73 1558.47,1925.67 1558.47,1935.27 C1558.47,1944.87 1566.08,1952.82 1575.68,1952.82 C1585.28,1952.82 1592.89,1944.87 1592.89,1935.27"/>
<polyline class="BarLine" fill="none" stroke="#000000" stroke-width="14.88" stroke-linejoin="bevel" points="6094.64,855.923 6094.64,1195.73" />
<polyline class="BarLine" fill="none" stroke="#000000" stroke-width="14.88" stroke-linejoin="bevel" points="4229.69,1724.03 4229.69,2063.84" />
<polyline class="BarLine" fill="none" stroke="#000000" stroke-width="14.88" stroke-linejoin="bevel" points="8194.86,855.923 8194.86,1195.73" />
<path class="BarLine" d="M9093.83,984.486 C9093.83,974.887 9086.22,966.943 9076.62,966.943 C9067.02,966.943 9059.41,974.887 9059.41,984.486 C9059.41,994.085 9067.02,1002.03 9076.62,1002.03 C9086.22,1002.03 9093.83,994.085 9093.83,984.486"/>
<path class="BarLine" d="M9093.83,1067.16 C9093.83,1057.56 9086.22,1049.62 9076.62,1049.62 C9067.02,1049.62 9059.41,1057.56 9059.41,1067.16 C9059.41,1076.76 9067.02,1084.71 9076.62,1084.71 C9086.22,1084.71 9093.83,1076.76 9093.83,1067.16"/>
<polyline class="BarLine" fill="none" stroke="#000000" stroke-width="14.88" stroke-linejoin="bevel" points="9131.84,855.923 9131.84,1195.73" />
<polyline class="BarLine" fill="none" stroke="#000000" stroke-width="45.47" stroke-linejoin="bevel" points="9192.6,855.923 9192.6,1195.73" />
<polyline class="BarLine" fill="none" stroke="#000000" stroke-width="14.88" stroke-linejoin="bevel" points="2210.57,1724.03 2210.57,2063.84" />
<polyline class="LedgerLine" fill="none" stroke="#000000" stroke-width="13.23" stroke-linejoin="bevel" points="6416.81,2141.97 6578.87,2141.97" />
<polyline class="Stem" fill="none" stroke="#000000" stroke-width="8.27" stroke-linejoin="bevel" points="6175.76,2087.4 6175.76,1831.6" />
<polyline class="Stem" fill="none" stroke="#000000" stroke-width="8.27" stroke-linejoin="bevel" points="5166.4,1039.71 5166.4,1273.86" />
<polyline class="Stem" fill="none" stroke="#000000" stroke-width="8.27" stroke-linejoin="bevel" points="7814.7,1880.71 7814.7,1666.9" />
<polyline class="Stem" fill="none" stroke="#000000" stroke-width="8.27" stroke-linejoin="bevel" points="2669.78,998.376 2669.78,1232.83" />
<polyline class="Stem" fill="none" stroke="#000000" stroke-width="8.27" stroke-linejoin="bevel" points="7434.52,2046.06 7434.52,1769.92" />
<polyline class="Stem" fill="none" stroke="#000000" stroke-width="8.27" stroke-linejoin="bevel" points="7181.07,2087.4 7181.07,1810.93" />
<polyline class="Stem" fill="none" stroke="#000000" stroke-width="8.27" stroke-linejoin="bevel" points="2934.05,1039.71 2934.05,1252.87" />
<polyline class="Stem" fill="none" stroke="#000000" stroke-width="8.27" stroke-linejoin="bevel" points="6927.62,2004.72 6927.62,1790.91" />
<polyline class="Stem" fill="none" stroke="#000000" stroke-width="8.27" stroke-linejoin="bevel" points="3297.53,1053.93 3297.53,798.462" />
<polyline class="Stem" fill="none" stroke="#000000" stroke-width="8.27" stroke-linejoin="bevel" points="3693.92,1053.93 3693.92,840.115" />
<polyline class="Stem" fill="none" stroke="#000000" stroke-width="8.27" stroke-linejoin="bevel" points="6547.44,2128.74 6547.44,1852.6" />
<polyline class="Stem" fill="none" stroke="#000000" stroke-width="8.27" stroke-linejoin="bevel" points="3958.19,1095.27 3958.19,860.157" />
<polyline class="Stem" fill="none" stroke="#000000" stroke-width="8.27" stroke-linejoin="bevel" points="4340.69,1136.61 4340.69,860.47" />
<polyline class="Stem" fill="none" stroke="#000000" stroke-width="8.27" stroke-linejoin="bevel" points="8068.16,1963.38 8068.16,1686.92" />
<polyline class="Stem" fill="none" stroke="#000000" stroke-width="8.27" stroke-linejoin="bevel" points="4737.08,1095.27 4737.08,860.157" />
<polyline class="Stem" fill="none" stroke="#000000" stroke-width="8.27" stroke-linejoin="bevel" points="5922.3,2046.06 5922.3,1811.58" />
<polyline class="Stem" fill="none" stroke="#000000" stroke-width="8.27" stroke-linejoin="bevel" points="5542.12,1963.38 5542.12,1687.24" />
<polyline class="Stem" fill="none" stroke="#000000" stroke-width="8.27" stroke-linejoin="bevel" points="5001.35,1053.93 5001.35,840.115" />
<polyline class="Stem" fill="none" stroke="#000000" stroke-width="8.27" stroke-linejoin="bevel" points="5288.67,1880.71 5288.67,1666.82" />
<polyline class="Stem" fill="none" stroke="#000000" stroke-width="8.27" stroke-linejoin="bevel" points="5119.7,1963.38 5119.7,1676.91" />
<polyline class="Stem" fill="none" stroke="#000000" stroke-width="8.27" stroke-linejoin="bevel" points="5562.8,1039.71 5562.8,1252.87" />
<polyline class="Stem" fill="none" stroke="#000000" stroke-width="8.27" stroke-linejoin="bevel" points="4950.73,2004.72 4950.73,1687" />
<polyline class="Stem" fill="none" stroke="#000000" stroke-width="8.27" stroke-linejoin="bevel" points="4697.28,1963.38 4697.28,1728.25" />
<polyline class="Stem" fill="none" stroke="#000000" stroke-width="8.27" stroke-linejoin="bevel" points="5827.07,998.376 5827.07,1232.83" />
<polyline class="Stem" fill="none" stroke="#000000" stroke-width="8.27" stroke-linejoin="bevel" points="4443.83,1922.05 4443.83,1708.24" />
<polyline class="Stem" fill="none" stroke="#000000" stroke-width="8.27" stroke-linejoin="bevel" points="6209.56,957.037 6209.56,1232.84" />
<polyline class="Stem" fill="none" stroke="#000000" stroke-width="8.27" stroke-linejoin="bevel" points="6473.83,998.376 6473.83,1253.29" />
<polyline class="Stem" fill="none" stroke="#000000" stroke-width="8.27" stroke-linejoin="bevel" points="3972.93,1907.82 3972.93,2120.97" />
<polyline class="Stem" fill="none" stroke="#000000" stroke-width="8.27" stroke-linejoin="bevel" points="6738.09,1039.71 6738.09,1273.75" />
<polyline class="Stem" fill="none" stroke="#000000" stroke-width="8.27" stroke-linejoin="bevel" points="3719.48,1866.49 3719.48,2100.95" />
<polyline class="Stem" fill="none" stroke="#000000" stroke-width="8.27" stroke-linejoin="bevel" points="7002.36,1081.05 7002.36,1294.21" />
<polyline class="Stem" fill="none" stroke="#000000" stroke-width="8.27" stroke-linejoin="bevel" points="3339.3,1866.49 3339.3,2121.3" />
<polyline class="Stem" fill="none" stroke="#000000" stroke-width="8.27" stroke-linejoin="bevel" points="7365.84,1095.27 7365.84,819.132" />
<polyline class="Stem" fill="none" stroke="#000000" stroke-width="8.27" stroke-linejoin="bevel" points="3085.85,1825.15 3085.85,2100.74" />
<polyline class="Stem" fill="none" stroke="#000000" stroke-width="8.27" stroke-linejoin="bevel" points="7762.24,1095.27 7762.24,860.157" />
<polyline class="Stem" fill="none" stroke="#000000" stroke-width="8.27" stroke-linejoin="bevel" points="2832.39,1783.81 2832.39,2107.55" />
<polyline class="Stem" fill="none" stroke="#000000" stroke-width="8.27" stroke-linejoin="bevel" points="2578.94,1783.81 2578.94,2114.37" />
<polyline class="Stem" fill="none" stroke="#000000" stroke-width="8.27" stroke-linejoin="bevel" points="8026.5,1053.93 8026.5,840.115" />
<polyline class="Stem" fill="none" stroke="#000000" stroke-width="8.27" stroke-linejoin="bevel" points="2325.49,1907.82 2325.49,2121.19" />
<polyline class="Stem" fill="none" stroke="#000000" stroke-width="8.27" stroke-linejoin="bevel" points="8309.79,1039.71 8309.79,1273.86" />
<polyline class="Stem" fill="none" stroke="#000000" stroke-width="8.27" stroke-linejoin="bevel" points="2022.86,1177.95 2022.86,943.147" />
<polyline class="Stem" fill="none" stroke="#000000" stroke-width="8.27" stroke-linejoin="bevel" points="1799.25,1177.95 1799.25,943.147" />
<polyline class="Stem" fill="none" stroke="#000000" stroke-width="8.27" stroke-linejoin="bevel" points="8340.63,1907.82 8340.63,2141.97" />
<polyline class="Stem" fill="none" stroke="#000000" stroke-width="8.27" stroke-linejoin="bevel" points="1700.35,1907.82 1700.35,2121.3" />
<polyline class="Stem" fill="none" stroke="#000000" stroke-width="8.27" stroke-linejoin="bevel" points="1953.81,1907.82 1953.81,2121.3" />
<polyline class="Stem" fill="none" stroke="#000000" stroke-width="8.27" stroke-linejoin="bevel" points="2372.59,1053.93 2372.59,798.462" />
<path class="Note" d="M8361.32,1922.4 C8350.4,1922.4 8348.08,1913.46 8348.08,1910.48 C8348.08,1894.27 8403.69,1865.8 8419.24,1865.8 C8427.19,1865.8 8432.48,1870.43 8432.48,1877.72 C8432.48,1894.27 8376.54,1922.4 8361.32,1922.4 M8407,1850.24 C8374.89,1850.24 8336.49,1877.05 8336.49,1907.84 C8336.49,1922.07 8346.75,1937.96 8373.57,1937.96 C8407.99,1937.96 8444.07,1909.82 8444.07,1880.69 C8444.07,1861.17 8427.52,1850.24 8407,1850.24"/>
<path class="Note" d="M3854.84,1122.4 C3854.84,1136.64 3865.11,1152.52 3891.92,1152.52 C3926.34,1152.52 3962.42,1124.39 3962.42,1095.26 C3962.42,1075.73 3945.87,1064.81 3925.35,1064.81 C3893.24,1064.81 3854.84,1091.95 3854.84,1122.4"/>
<path class="Note" d="M1696.22,1907.84 C1696.22,1922.07 1706.48,1937.96 1733.29,1937.96 C1767.71,1937.96 1803.79,1909.82 1803.79,1880.69 C1803.79,1861.17 1787.24,1850.24 1766.72,1850.24 C1734.61,1850.24 1696.22,1877.38 1696.22,1907.84"/>
<path class="Note" d="M1695.9,1205.08 C1695.9,1219.31 1706.16,1235.2 1732.97,1235.2 C1767.4,1235.2 1803.48,1207.07 1803.48,1177.94 C1803.48,1158.41 1786.93,1147.49 1766.4,1147.49 C1734.3,1147.49 1695.9,1174.63 1695.9,1205.08"/>
<path class="Note" d="M7964.81,1990.51 C7964.81,2004.75 7975.07,2020.64 8001.88,2020.64 C8036.31,2020.64 8072.39,1992.5 8072.39,1963.37 C8072.39,1943.84 8055.84,1932.92 8035.31,1932.92 C8003.21,1932.92 7964.81,1960.06 7964.81,1990.51"/>
<path class="Note" d="M1949.67,1907.84 C1949.67,1922.07 1959.93,1937.96 1986.74,1937.96 C2021.17,1937.96 2057.25,1909.82 2057.25,1880.69 C2057.25,1861.17 2040.7,1850.24 2020.17,1850.24 C1988.07,1850.24 1949.67,1877.38 1949.67,1907.84"/>
<path class="Note" d="M1919.51,1205.08 C1919.51,1219.31 1929.77,1235.2 1956.58,1235.2 C1991.01,1235.2 2027.09,1207.07 2027.09,1177.94 C2027.09,1158.41 2010.54,1147.49 1990.01,1147.49 C1957.91,1147.49 1919.51,1174.63 1919.51,1205.08"/>
<path class="Note" d="M8330.48,1054.29 C8319.55,1054.29 8317.24,1045.35 8317.24,1042.37 C8317.24,1026.16 8372.85,997.69 8388.4,997.69 C8396.35,997.69 8401.64,1002.32 8401.64,1009.61 C8401.64,1026.16 8345.7,1054.29 8330.48,1054.29 M8376.16,982.133 C8344.05,982.133 8305.65,1008.94 8305.65,1039.73 C8305.65,1053.96 8315.91,1069.85 8342.72,1069.85 C8377.15,1069.85 8413.23,1041.71 8413.23,1012.58 C8413.23,993.056 8396.68,982.133 8376.16,982.133"/>
<path class="Note" d="M7923.16,1081.07 C7923.16,1095.3 7933.42,1111.19 7960.23,1111.19 C7994.65,1111.19 8030.73,1083.05 8030.73,1053.92 C8030.73,1034.39 8014.18,1023.47 7993.66,1023.47 C7961.55,1023.47 7923.16,1050.61 7923.16,1081.07"/>
<path class="Note" d="M2321.35,1907.84 C2321.35,1922.07 2331.61,1937.96 2358.43,1937.96 C2392.85,1937.96 2428.93,1909.82 2428.93,1880.69 C2428.93,1861.17 2412.38,1850.24 2391.86,1850.24 C2359.75,1850.24 2321.35,1877.38 2321.35,1907.84"/>
<path class="Note" d="M7711.36,1907.84 C7711.36,1922.07 7721.62,1937.96 7748.43,1937.96 C7782.85,1937.96 7818.93,1909.82 7818.93,1880.69 C7818.93,1861.17 7802.38,1850.24 7781.86,1850.24 C7749.75,1850.24 7711.36,1877.38 7711.36,1907.84"/>
<path class="Note" d="M2269.25,1081.07 C2269.25,1095.3 2279.51,1111.19 2306.32,1111.19 C2340.74,1111.19 2376.82,1083.05 2376.82,1053.92 C2376.82,1034.39 2360.27,1023.47 2339.75,1023.47 C2307.64,1023.47 2269.25,1050.61 2269.25,1081.07"/>
<path class="Note" d="M2574.81,1783.82 C2574.81,1798.05 2585.07,1813.94 2611.88,1813.94 C2646.3,1813.94 2682.38,1785.81 2682.38,1756.68 C2682.38,1737.15 2665.83,1726.23 2645.31,1726.23 C2613.2,1726.23 2574.81,1753.37 2574.81,1783.82"/>
<path class="Note" d="M7658.89,1122.4 C7658.89,1136.64 7669.15,1152.52 7695.96,1152.52 C7730.39,1152.52 7766.47,1124.39 7766.47,1095.26 C7766.47,1075.73 7749.92,1064.81 7729.39,1064.81 C7697.29,1064.81 7658.89,1091.95 7658.89,1122.4"/>
<path class="Note" d="M2828.26,1783.82 C2828.26,1798.05 2838.52,1813.94 2865.33,1813.94 C2899.76,1813.94 2935.83,1785.81 2935.83,1756.68 C2935.83,1737.15 2919.28,1726.23 2898.76,1726.23 C2866.66,1726.23 2828.26,1753.37 2828.26,1783.82"/>
<path class="Note" d="M7262.49,1122.4 C7262.49,1136.64 7272.75,1152.52 7299.56,1152.52 C7333.99,1152.52 7370.07,1124.39 7370.07,1095.26 C7370.07,1075.73 7353.52,1064.81 7333,1064.81 C7300.89,1064.81 7262.49,1091.95 7262.49,1122.4"/>
<path class="Note" d="M3081.71,1825.16 C3081.71,1839.39 3091.97,1855.28 3118.78,1855.28 C3153.21,1855.28 3189.29,1827.15 3189.29,1798.02 C3189.29,1778.49 3172.74,1767.57 3152.22,1767.57 C3120.11,1767.57 3081.71,1794.71 3081.71,1825.16"/>
<path class="Note" d="M6998.23,1081.07 C6998.23,1095.3 7008.49,1111.19 7035.3,1111.19 C7069.72,1111.19 7105.8,1083.05 7105.8,1053.92 C7105.8,1034.39 7089.25,1023.47 7068.73,1023.47 C7036.62,1023.47 6998.23,1050.61 6998.23,1081.07"/>
<path class="Note" d="M3335.17,1866.5 C3335.17,1880.73 3345.43,1896.62 3372.24,1896.62 C3406.66,1896.62 3442.74,1868.48 3442.74,1839.36 C3442.74,1819.83 3426.19,1808.9 3405.67,1808.9 C3373.56,1808.9 3335.17,1836.05 3335.17,1866.5"/>
<path class="Note" d="M6733.96,1039.73 C6733.96,1053.96 6744.22,1069.85 6771.03,1069.85 C6805.46,1069.85 6841.54,1041.71 6841.54,1012.58 C6841.54,993.056 6824.99,982.133 6804.46,982.133 C6772.36,982.133 6733.96,1009.27 6733.96,1039.73"/>
<path class="Note" d="M3715.35,1866.5 C3715.35,1880.73 3725.61,1896.62 3752.42,1896.62 C3786.84,1896.62 3822.92,1868.48 3822.92,1839.36 C3822.92,1819.83 3806.37,1808.9 3785.85,1808.9 C3753.74,1808.9 3715.35,1836.05 3715.35,1866.5"/>
<path class="Note" d="M7331.18,2073.19 C7331.18,2087.42 7341.44,2103.31 7368.25,2103.31 C7402.67,2103.31 7438.75,2075.18 7438.75,2046.05 C7438.75,2026.52 7422.2,2015.6 7401.68,2015.6 C7369.57,2015.6 7331.18,2042.74 7331.18,2073.19"/>
<path class="Note" d="M6469.69,998.388 C6469.69,1012.62 6479.96,1028.51 6506.77,1028.51 C6541.19,1028.51 6577.27,1000.37 6577.27,971.246 C6577.27,951.717 6560.72,940.794 6540.2,940.794 C6508.09,940.794 6469.69,967.936 6469.69,998.388"/>
<path class="Note" d="M3968.8,1907.84 C3968.8,1922.07 3979.06,1937.96 4005.87,1937.96 C4040.29,1937.96 4076.37,1909.82 4076.37,1880.69 C4076.37,1861.17 4059.82,1850.24 4039.3,1850.24 C4007.19,1850.24 3968.8,1877.38 3968.8,1907.84"/>
<path class="Note" d="M2665.65,998.388 C2665.65,1012.62 2675.91,1028.51 2702.72,1028.51 C2737.14,1028.51 2773.22,1000.37 2773.22,971.246 C2773.22,951.717 2756.67,940.794 2736.15,940.794 C2704.04,940.794 2665.65,967.936 2665.65,998.388"/>
<path class="Note" d="M6205.43,957.049 C6205.43,971.282 6215.69,987.17 6242.5,987.17 C6276.92,987.17 6313,959.035 6313,929.907 C6313,910.378 6296.45,899.455 6275.93,899.455 C6243.82,899.455 6205.43,926.597 6205.43,957.049"/>
<path class="Note" d="M5822.93,998.388 C5822.93,1012.62 5833.2,1028.51 5860.01,1028.51 C5894.43,1028.51 5930.51,1000.37 5930.51,971.246 C5930.51,951.717 5913.96,940.794 5893.44,940.794 C5861.33,940.794 5822.93,967.936 5822.93,998.388"/>
<path class="Note" d="M4340.48,1949.18 C4340.48,1963.41 4350.74,1979.3 4377.55,1979.3 C4411.98,1979.3 4448.06,1951.16 4448.06,1922.03 C4448.06,1902.5 4431.51,1891.58 4410.98,1891.58 C4378.88,1891.58 4340.48,1918.72 4340.48,1949.18"/>
<path class="Note" d="M7077.73,2114.53 C7077.73,2128.76 7087.99,2144.65 7114.8,2144.65 C7149.22,2144.65 7185.3,2116.52 7185.3,2087.39 C7185.3,2067.86 7168.75,2056.94 7148.23,2056.94 C7116.12,2056.94 7077.73,2084.08 7077.73,2114.53"/>
<path class="Note" d="M6824.27,2031.85 C6824.27,2046.09 6834.53,2061.97 6861.34,2061.97 C6895.77,2061.97 6931.85,2033.84 6931.85,2004.71 C6931.85,1985.18 6915.3,1974.26 6894.78,1974.26 C6862.67,1974.26 6824.27,2001.4 6824.27,2031.85"/>
<path class="Note" d="M4593.93,1990.51 C4593.93,2004.75 4604.19,2020.64 4631.01,2020.64 C4665.43,2020.64 4701.51,1992.5 4701.51,1963.37 C4701.51,1943.84 4684.96,1932.92 4664.44,1932.92 C4632.33,1932.92 4593.93,1960.06 4593.93,1990.51"/>
<path class="Note" d="M5558.67,1039.73 C5558.67,1053.96 5568.93,1069.85 5595.74,1069.85 C5630.16,1069.85 5666.24,1041.71 5666.24,1012.58 C5666.24,993.056 5649.69,982.133 5629.17,982.133 C5597.06,982.133 5558.67,1009.27 5558.67,1039.73"/>
<path class="Note" d="M4847.39,2031.85 C4847.39,2046.09 4857.65,2061.97 4884.46,2061.97 C4918.88,2061.97 4954.96,2033.84 4954.96,2004.71 C4954.96,1985.18 4938.41,1974.26 4917.89,1974.26 C4885.78,1974.26 4847.39,2001.4 4847.39,2031.85"/>
<path class="Note" d="M2929.91,1039.73 C2929.91,1053.96 2940.17,1069.85 2966.99,1069.85 C3001.41,1069.85 3037.49,1041.71 3037.49,1012.58 C3037.49,993.056 3020.94,982.133 3000.42,982.133 C2968.31,982.133 2929.91,1009.27 2929.91,1039.73"/>
<path class="Note" d="M5162.27,1039.73 C5162.27,1053.96 5172.53,1069.85 5199.34,1069.85 C5233.77,1069.85 5269.84,1041.71 5269.84,1012.58 C5269.84,993.056 5253.29,982.133 5232.77,982.133 C5200.67,982.133 5162.27,1009.27 5162.27,1039.73"/>
<path class="Note" d="M5016.36,1990.51 C5016.36,2004.75 5026.62,2020.64 5053.43,2020.64 C5087.85,2020.64 5123.93,1992.5 5123.93,1963.37 C5123.93,1943.84 5107.38,1932.92 5086.86,1932.92 C5054.75,1932.92 5016.36,1960.06 5016.36,1990.51"/>
<path class="Note" d="M4898,1081.07 C4898,1095.3 4908.26,1111.19 4935.08,1111.19 C4969.5,1111.19 5005.58,1083.05 5005.58,1053.92 C5005.58,1034.39 4989.03,1023.47 4968.51,1023.47 C4936.4,1023.47 4898,1050.61 4898,1081.07"/>
<path class="Note" d="M5185.32,1907.84 C5185.32,1922.07 5195.59,1937.96 5222.4,1937.96 C5256.82,1937.96 5292.9,1909.82 5292.9,1880.69 C5292.9,1861.17 5276.35,1850.24 5255.83,1850.24 C5223.72,1850.24 5185.32,1877.38 5185.32,1907.84"/>
<path class="Note" d="M6444.09,2155.87 C6444.09,2170.1 6454.35,2185.99 6481.16,2185.99 C6515.59,2185.99 6551.67,2157.85 6551.67,2128.73 C6551.67,2109.2 6535.12,2098.27 6514.6,2098.27 C6482.49,2098.27 6444.09,2125.42 6444.09,2155.87"/>
<path class="Note" d="M5438.78,1990.51 C5438.78,2004.75 5449.04,2020.64 5475.85,2020.64 C5510.27,2020.64 5546.35,1992.5 5546.35,1963.37 C5546.35,1943.84 5529.8,1932.92 5509.28,1932.92 C5477.17,1932.92 5438.78,1960.06 5438.78,1990.51"/>
<path class="Note" d="M4633.74,1122.4 C4633.74,1136.64 4644,1152.52 4670.81,1152.52 C4705.23,1152.52 4741.31,1124.39 4741.31,1095.26 C4741.31,1075.73 4724.76,1064.81 4704.24,1064.81 C4672.13,1064.81 4633.74,1091.95 4633.74,1122.4"/>
<path class="Note" d="M5818.96,2073.19 C5818.96,2087.42 5829.22,2103.31 5856.03,2103.31 C5890.45,2103.31 5926.53,2075.18 5926.53,2046.05 C5926.53,2026.52 5909.98,2015.6 5889.46,2015.6 C5857.35,2015.6 5818.96,2042.74 5818.96,2073.19"/>
<path class="Note" d="M3194.18,1081.07 C3194.18,1095.3 3204.44,1111.19 3231.25,1111.19 C3265.68,1111.19 3301.75,1083.05 3301.75,1053.92 C3301.75,1034.39 3285.2,1023.47 3264.68,1023.47 C3232.58,1023.47 3194.18,1050.61 3194.18,1081.07"/>
<path class="Note" d="M4237.34,1163.74 C4237.34,1177.98 4247.6,1193.86 4274.41,1193.86 C4308.83,1193.86 4344.91,1165.73 4344.91,1136.6 C4344.91,1117.07 4328.36,1106.15 4307.84,1106.15 C4275.73,1106.15 4237.34,1133.29 4237.34,1163.74"/>
<path class="Note" d="M6072.41,2114.53 C6072.41,2128.76 6082.67,2144.65 6109.48,2144.65 C6143.91,2144.65 6179.99,2116.52 6179.99,2087.39 C6179.99,2067.86 6163.44,2056.94 6142.91,2056.94 C6110.81,2056.94 6072.41,2084.08 6072.41,2114.53"/>
<path class="Note" d="M3590.58,1081.07 C3590.58,1095.3 3600.84,1111.19 3627.65,1111.19 C3662.07,1111.19 3698.15,1083.05 3698.15,1053.92 C3698.15,1034.39 3681.6,1023.47 3661.08,1023.47 C3628.97,1023.47 3590.58,1050.61 3590.58,1081.07"/>
<path class="Clef" d="M909.689,1176.69 C903.069,1178.01 896.78,1178.67 890.491,1178.67 C843.158,1178.67 802.776,1145.57 802.776,1095.59 C802.776,1055.21 831.242,1019.13 860.37,993.976 C865.997,989.011 871.293,984.377 876.258,979.412 C879.237,997.286 881.554,1012.84 883.871,1026.41 C853.75,1035.35 833.228,1067.13 833.228,1098.24 C833.228,1121.41 851.433,1153.19 877.913,1153.19 C880.561,1153.19 883.54,1151.86 883.54,1148.88 C883.54,1145.9 880.23,1144.25 876.258,1141.6 C863.349,1133.66 856.067,1125.05 856.067,1108.83 C856.067,1088.64 870.962,1072.42 890.491,1067.79 L909.689,1176.69 M880.561,836.42 C883.54,823.18 898.766,788.425 915.978,788.425 C920.943,788.425 928.887,804.644 928.887,827.483 C928.887,861.907 903.4,887.725 880.561,910.233 C878.575,896.993 876.92,884.084 876.92,870.182 C876.92,857.935 877.913,846.681 880.561,836.42 M956.691,1115.45 C956.691,1138.95 947.092,1163.12 923.591,1172.72 C916.64,1133 907.703,1080.37 905.386,1065.8 C935.176,1065.8 956.691,1085.99 956.691,1115.45 M811.051,1278.3 C811.051,1300.15 827.932,1328.95 872.617,1328.95 C888.174,1328.95 901.745,1324.98 913.661,1317.69 C931.535,1305.12 936.169,1283.27 936.169,1262.42 C936.169,1249.51 934.183,1234.61 930.873,1215.75 C929.88,1209.13 927.894,1199.2 925.908,1186.29 C958.346,1175.69 982.509,1141.93 982.509,1107.84 C982.509,1057.86 947.092,1024.1 898.766,1024.1 C895.456,1004.24 892.146,984.708 889.167,966.172 C924.253,929.431 948.416,888.056 948.416,835.427 C948.416,805.306 939.148,780.812 933.852,768.896 C925.908,752.015 916.309,740.43 910.351,740.43 C908.034,740.43 897.773,744.402 886.85,757.311 C865.666,782.467 859.708,824.835 859.708,852.639 C859.708,870.513 861.363,886.732 866.99,923.804 C866.659,924.135 849.447,941.678 842.496,947.305 C812.375,975.44 770.669,1015.49 770.669,1081.69 C770.669,1143.59 824.622,1192.24 886.188,1192.24 C895.787,1192.24 904.724,1191.25 912.337,1189.93 C918.626,1221.7 922.267,1244.87 922.267,1262.42 C922.267,1296.84 904.724,1315.05 871.293,1315.05 C863.349,1315.05 856.398,1313.39 855.736,1313.39 C855.405,1313.06 854.743,1312.73 854.743,1312.4 C854.743,1311.74 855.405,1311.4 856.398,1311.07 C871.955,1308.76 887.512,1295.52 887.512,1274.33 C887.512,1256.46 873.941,1237.59 849.116,1237.59 C825.946,1237.59 811.051,1256.46 811.051,1278.3"/>
<path class="Clef" d="M909.689,2044.8 C903.069,2046.12 896.78,2046.78 890.491,2046.78 C843.158,2046.78 802.776,2013.68 802.776,1963.7 C802.776,1923.32 831.242,1887.24 860.37,1862.09 C865.997,1857.12 871.293,1852.49 876.258,1847.52 C879.237,1865.4 881.554,1880.95 883.871,1894.52 C853.75,1903.46 833.228,1935.24 833.228,1966.35 C833.228,1989.52 851.433,2021.3 877.913,2021.3 C880.561,2021.3 883.54,2019.97 883.54,2016.99 C883.54,2014.02 880.23,2012.36 876.258,2009.71 C863.349,2001.77 856.067,1993.16 856.067,1976.94 C856.067,1956.75 870.962,1940.53 890.491,1935.9 L909.689,2044.8 M880.561,1704.53 C883.54,1691.29 898.766,1656.54 915.978,1656.54 C920.943,1656.54 928.887,1672.75 928.887,1695.59 C928.887,1730.02 903.4,1755.84 880.561,1778.34 C878.575,1765.1 876.92,1752.19 876.92,1738.29 C876.92,1726.05 877.913,1714.79 880.561,1704.53 M956.691,1983.56 C956.691,2007.06 947.092,2031.23 923.591,2040.83 C916.64,2001.11 907.703,1948.48 905.386,1933.91 C935.176,1933.91 956.691,1954.1 956.691,1983.56 M811.051,2146.42 C811.051,2168.26 827.932,2197.06 872.617,2197.06 C888.174,2197.06 901.745,2193.09 913.661,2185.8 C931.535,2173.23 936.169,2151.38 936.169,2130.53 C936.169,2117.62 934.183,2102.72 930.873,2083.86 C929.88,2077.24 927.894,2067.31 925.908,2054.4 C958.346,2043.81 982.509,2010.04 982.509,1975.95 C982.509,1925.97 947.092,1892.21 898.766,1892.21 C895.456,1872.35 892.146,1852.82 889.167,1834.28 C924.253,1797.54 948.416,1756.17 948.416,1703.54 C948.416,1673.42 939.148,1648.92 933.852,1637.01 C925.908,1620.13 916.309,1608.54 910.351,1608.54 C908.034,1608.54 897.773,1612.51 886.85,1625.42 C865.666,1650.58 859.708,1692.95 859.708,1720.75 C859.708,1738.62 861.363,1754.84 866.99,1791.91 C866.659,1792.25 849.447,1809.79 842.496,1815.42 C812.375,1843.55 770.669,1883.6 770.669,1949.8 C770.669,2011.7 824.622,2060.36 886.188,2060.36 C895.787,2060.36 904.724,2059.36 912.337,2058.04 C918.626,2089.81 922.267,2112.98 922.267,2130.53 C922.267,2164.95 904.724,2183.16 871.293,2183.16 C863.349,2183.16 856.398,2181.5 855.736,2181.5 C855.405,2181.17 854.743,2180.84 854.743,2180.51 C854.743,2179.85 855.405,2179.52 856.398,2179.18 C871.955,2176.87 887.512,2163.63 887.512,2142.44 C887.512,2124.57 873.941,2105.7 849.116,2105.7 C825.946,2105.7 811.051,2124.57 811.051,2146.42"/>
<path class="KeySig" d="M1070.17,835.976 L1099.63,830.018 L1099.63,884.633 L1070.17,890.922 L1070.17,835.976 M1121.48,825.715 C1123.47,825.384 1125.12,823.067 1125.12,821.081 L1125.12,801.552 C1125.12,798.904 1123.13,796.918 1120.49,796.918 L1119.82,796.918 L1108.9,799.235 L1108.9,749.916 L1099.63,749.916 L1099.63,801.221 L1070.17,807.179 L1070.17,760.508 L1060.91,760.508 L1060.91,809.165 L1048,811.813 C1046.01,812.144 1044.36,814.461 1044.36,816.447 L1044.36,835.645 C1044.36,838.293 1046.34,840.279 1048.99,840.279 L1049.98,840.279 L1060.91,837.962 L1060.91,892.577 L1048,895.225 C1046.01,895.556 1044.36,897.873 1044.36,899.859 L1044.36,919.057 C1044.36,921.705 1046.34,923.691 1048.99,923.691 L1049.98,923.691 L1060.91,921.374 L1060.91,970.693 L1070.17,970.693 L1070.17,919.388 L1099.63,913.43 L1099.63,960.101 L1108.9,960.101 L1108.9,911.444 L1121.48,909.127 C1123.47,908.796 1125.12,906.479 1125.12,904.493 L1125.12,884.964 C1125.12,882.316 1123.13,880.33 1120.49,880.33 L1119.82,880.33 L1108.9,882.647 L1108.9,828.032 L1121.48,825.715 "/>
<path class="KeySig" d="M1160.78,959.992 L1190.24,954.034 L1190.24,1008.65 L1160.78,1014.94 L1160.78,959.992 M1212.09,949.731 C1214.08,949.4 1215.73,947.083 1215.73,945.097 L1215.73,925.568 C1215.73,922.92 1213.74,920.934 1211.1,920.934 L1210.43,920.934 L1199.51,923.251 L1199.51,873.932 L1190.24,873.932 L1190.24,925.237 L1160.78,931.195 L1160.78,884.524 L1151.52,884.524 L1151.52,933.181 L1138.61,935.829 C1136.62,936.16 1134.97,938.477 1134.97,940.463 L1134.97,959.661 C1134.97,962.309 1136.95,964.295 1139.6,964.295 L1140.59,964.295 L1151.52,961.978 L1151.52,1016.59 L1138.61,1019.24 C1136.62,1019.57 1134.97,1021.89 1134.97,1023.88 L1134.97,1043.07 C1134.97,1045.72 1136.95,1047.71 1139.6,1047.71 L1140.59,1047.71 L1151.52,1045.39 L1151.52,1094.71 L1160.78,1094.71 L1160.78,1043.4 L1190.24,1037.45 L1190.24,1084.12 L1199.51,1084.12 L1199.51,1035.46 L1212.09,1033.14 C1214.08,1032.81 1215.73,1030.5 1215.73,1028.51 L1215.73,1008.98 C1215.73,1006.33 1213.74,1004.35 1211.1,1004.35 L1210.43,1004.35 L1199.51,1006.66 L1199.51,952.048 L1212.09,949.731 "/>
<path class="KeySig" d="M1251.41,794.638 L1280.87,788.68 L1280.87,843.295 L1251.41,849.584 L1251.41,794.638 M1302.71,784.377 C1304.7,784.046 1306.36,781.729 1306.36,779.743 L1306.36,760.214 C1306.36,757.566 1304.37,755.58 1301.72,755.58 L1301.06,755.58 L1290.14,757.897 L1290.14,708.578 L1280.87,708.578 L1280.87,759.883 L1251.41,765.841 L1251.41,719.17 L1242.14,719.17 L1242.14,767.827 L1229.23,770.475 C1227.25,770.806 1225.59,773.123 1225.59,775.109 L1225.59,794.307 C1225.59,796.955 1227.58,798.941 1230.23,798.941 L1231.22,798.941 L1242.14,796.624 L1242.14,851.239 L1229.23,853.887 C1227.25,854.218 1225.59,856.535 1225.59,858.521 L1225.59,877.719 C1225.59,880.367 1227.58,882.353 1230.23,882.353 L1231.22,882.353 L1242.14,880.036 L1242.14,929.355 L1251.41,929.355 L1251.41,878.05 L1280.87,872.092 L1280.87,918.763 L1290.14,918.763 L1290.14,870.106 L1302.71,867.789 C1304.7,867.458 1306.36,865.141 1306.36,863.155 L1306.36,843.626 C1306.36,840.978 1304.37,838.992 1301.72,838.992 L1301.06,838.992 L1290.14,841.309 L1290.14,786.694 L1302.71,784.377 "/>
<path class="KeySig" d="M1070.17,1704.09 L1099.63,1698.13 L1099.63,1752.74 L1070.17,1759.03 L1070.17,1704.09 M1121.48,1693.83 C1123.47,1693.49 1125.12,1691.18 1125.12,1689.19 L1125.12,1669.66 C1125.12,1667.01 1123.13,1665.03 1120.49,1665.03 L1119.82,1665.03 L1108.9,1667.35 L1108.9,1618.03 L1099.63,1618.03 L1099.63,1669.33 L1070.17,1675.29 L1070.17,1628.62 L1060.91,1628.62 L1060.91,1677.28 L1048,1679.92 C1046.01,1680.25 1044.36,1682.57 1044.36,1684.56 L1044.36,1703.76 C1044.36,1706.4 1046.34,1708.39 1048.99,1708.39 L1049.98,1708.39 L1060.91,1706.07 L1060.91,1760.69 L1048,1763.34 C1046.01,1763.67 1044.36,1765.98 1044.36,1767.97 L1044.36,1787.17 C1044.36,1789.82 1046.34,1791.8 1048.99,1791.8 L1049.98,1791.8 L1060.91,1789.48 L1060.91,1838.8 L1070.17,1838.8 L1070.17,1787.5 L1099.63,1781.54 L1099.63,1828.21 L1108.9,1828.21 L1108.9,1779.55 L1121.48,1777.24 C1123.47,1776.91 1125.12,1774.59 1125.12,1772.6 L1125.12,1753.07 C1125.12,1750.43 1123.13,1748.44 1120.49,1748.44 L1119.82,1748.44 L1108.9,1750.76 L1108.9,1696.14 L1121.48,1693.83 "/>
<path class="KeySig" d="M1160.78,1828.1 L1190.24,1822.14 L1190.24,1876.76 L1160.78,1883.05 L1160.78,1828.1 M1212.09,1817.84 C1214.08,1817.51 1215.73,1815.19 1215.73,1813.21 L1215.73,1793.68 C1215.73,1791.03 1213.74,1789.04 1211.1,1789.04 L1210.43,1789.04 L1199.51,1791.36 L1199.51,1742.04 L1190.24,1742.04 L1190.24,1793.35 L1160.78,1799.31 L1160.78,1752.63 L1151.52,1752.63 L1151.52,1801.29 L1138.61,1803.94 C1136.62,1804.27 1134.97,1806.59 1134.97,1808.57 L1134.97,1827.77 C1134.97,1830.42 1136.95,1832.41 1139.6,1832.41 L1140.59,1832.41 L1151.52,1830.09 L1151.52,1884.7 L1138.61,1887.35 C1136.62,1887.68 1134.97,1890 1134.97,1891.99 L1134.97,1911.18 C1134.97,1913.83 1136.95,1915.82 1139.6,1915.82 L1140.59,1915.82 L1151.52,1913.5 L1151.52,1962.82 L1160.78,1962.82 L1160.78,1911.51 L1190.24,1905.56 L1190.24,1952.23 L1199.51,1952.23 L1199.51,1903.57 L1212.09,1901.25 C1214.08,1900.92 1215.73,1898.61 1215.73,1896.62 L1215.73,1877.09 C1215.73,1874.44 1213.74,1872.46 1211.1,1872.46 L1210.43,1872.46 L1199.51,1874.77 L1199.51,1820.16 L1212.09,1817.84 "/>
<path class="KeySig" d="M1251.41,1662.75 L1280.87,1656.79 L1280.87,1711.4 L1251.41,1717.69 L1251.41,1662.75 M1302.71,1652.49 C1304.7,1652.16 1306.36,1649.84 1306.36,1647.85 L1306.36,1628.32 C1306.36,1625.68 1304.37,1623.69 1301.72,1623.69 L1301.06,1623.69 L1290.14,1626.01 L1290.14,1576.69 L1280.87,1576.69 L1280.87,1627.99 L1251.41,1633.95 L1251.41,1587.28 L1242.14,1587.28 L1242.14,1635.94 L1229.23,1638.58 C1227.25,1638.92 1225.59,1641.23 1225.59,1643.22 L1225.59,1662.42 C1225.59,1665.06 1227.58,1667.05 1230.23,1667.05 L1231.22,1667.05 L1242.14,1664.73 L1242.14,1719.35 L1229.23,1722 C1227.25,1722.33 1225.59,1724.64 1225.59,1726.63 L1225.59,1745.83 C1225.59,1748.48 1227.58,1750.46 1230.23,1750.46 L1231.22,1750.46 L1242.14,1748.15 L1242.14,1797.46 L1251.41,1797.46 L1251.41,1746.16 L1280.87,1740.2 L1280.87,1786.87 L1290.14,1786.87 L1290.14,1738.22 L1302.71,1735.9 C1304.7,1735.57 1306.36,1733.25 1306.36,1731.26 L1306.36,1711.74 C1306.36,1709.09 1304.37,1707.1 1301.72,1707.1 L1301.06,1707.1 L1290.14,1709.42 L1290.14,1654.8 L1302.71,1652.49 "/>
<path class="TimeSig" d="M1453.2,985.67 L1453.2,1010.16 L1425.73,1010.16 C1423.41,1010.16 1421.1,1012.15 1421.1,1014.8 L1421.1,1021.09 C1421.1,1023.74 1423.41,1025.72 1425.73,1025.72 L1526.02,1025.72 C1528.67,1025.72 1530.66,1023.74 1530.66,1021.09 L1530.66,1014.8 C1530.66,1012.15 1528.67,1010.16 1526.02,1010.16 L1496.23,1010.16 L1496.23,985.67 L1526.02,985.67 C1528.67,985.67 1530.66,983.353 1530.66,980.705 L1530.66,974.416 C1530.66,972.099 1528.67,969.782 1526.02,969.782 L1496.23,969.782 L1496.23,917.153 C1496.23,915.167 1495.24,913.512 1493.92,912.85 L1489.94,910.864 C1489.28,910.533 1488.95,910.533 1488.29,910.533 C1486.97,910.533 1485.64,910.533 1484.65,911.526 L1454.53,938.999 C1453.53,939.992 1453.2,941.316 1453.2,942.64 L1453.2,969.782 L1414.81,969.782 C1414.81,969.782 1451.88,930.062 1490.94,877.764 C1492.26,876.109 1492.59,874.454 1492.59,873.13 C1492.59,871.475 1491.93,870.151 1491.6,869.82 L1484.32,862.538 C1483.32,861.876 1482.33,861.214 1481.01,861.214 C1479.02,861.214 1434.34,861.214 1431.69,861.214 C1429.37,861.214 1427.72,863.2 1427.39,865.186 C1427.39,865.186 1425.73,889.68 1417.12,916.491 C1408.52,943.302 1398.59,959.852 1389.98,972.099 C1389.98,972.099 1388.99,973.754 1388.99,975.74 C1388.99,976.402 1388.99,977.064 1389.32,977.726 C1390.31,980.043 1392.63,983.684 1392.63,983.684 C1392.63,983.684 1393.29,985.67 1396.27,985.67 L1453.2,985.67 "/>
<path class="TimeSig" d="M1453.2,1150.05 L1453.2,1174.55 L1425.73,1174.55 C1423.41,1174.55 1421.1,1176.53 1421.1,1179.18 L1421.1,1185.47 C1421.1,1188.12 1423.41,1190.1 1425.73,1190.1 L1526.02,1190.1 C1528.67,1190.1 1530.66,1188.12 1530.66,1185.47 L1530.66,1179.18 C1530.66,1176.53 1528.67,1174.55 1526.02,1174.55 L1496.23,1174.55 L1496.23,1150.05 L1526.02,1150.05 C1528.67,1150.05 1530.66,1147.74 1530.66,1145.09 L1530.66,1138.8 C1530.66,1136.48 1528.67,1134.16 1526.02,1134.16 L1496.23,1134.16 L1496.23,1081.54 C1496.23,1079.55 1495.24,1077.89 1493.92,1077.23 L1489.94,1075.25 C1489.28,1074.92 1488.95,1074.92 1488.29,1074.92 C1486.97,1074.92 1485.64,1074.92 1484.65,1075.91 L1454.53,1103.38 C1453.53,1104.37 1453.2,1105.7 1453.2,1107.02 L1453.2,1134.16 L1414.81,1134.16 C1414.81,1134.16 1451.88,1094.44 1490.94,1042.15 C1492.26,1040.49 1492.59,1038.84 1492.59,1037.51 C1492.59,1035.86 1491.93,1034.53 1491.6,1034.2 L1484.32,1026.92 C1483.32,1026.26 1482.33,1025.6 1481.01,1025.6 C1479.02,1025.6 1434.34,1025.6 1431.69,1025.6 C1429.37,1025.6 1427.72,1027.58 1427.39,1029.57 C1427.39,1029.57 1425.73,1054.06 1417.12,1080.87 C1408.52,1107.68 1398.59,1124.23 1389.98,1136.48 C1389.98,1136.48 1388.99,1138.14 1388.99,1140.12 C1388.99,1140.78 1388.99,1141.45 1389.32,1142.11 C1390.31,1144.43 1392.63,1148.07 1392.63,1148.07 C1392.63,1148.07 1393.29,1150.05 1396.27,1150.05 L1453.2,1150.05 "/>
<path class="Beam" fill-rule="evenodd" d="M3689.79,819.072 L3962.32,839.742 L3962.32,881.199 L3689.79,860.53 L3689.79,819.072 "/>
<path class="Beam" fill-rule="evenodd" d="M5918.17,1790.52 L6179.89,1811.19 L6179.89,1852.66 L5918.17,1831.99 L5918.17,1790.52 "/>
<path class="Beam" fill-rule="evenodd" d="M4732.95,839.742 L5005.48,819.072 L5005.48,860.53 L4732.95,881.199 L4732.95,839.742 "/>
<path class="Beam" fill-rule="evenodd" d="M4946.6,1666.54 L5292.8,1645.87 L5292.8,1687.28 L4946.6,1707.95 L4946.6,1666.54 "/>
<path class="Beam" fill-rule="evenodd" d="M4946.6,1728.54 L5123.84,1717.96 L5123.84,1759.37 L4946.6,1769.96 L4946.6,1728.54 "/>
<path class="Beam" fill-rule="evenodd" d="M5558.67,1232.46 L5831.2,1211.79 L5831.2,1253.25 L5558.67,1273.92 L5558.67,1232.46 "/>
<path class="Beam" fill-rule="evenodd" d="M6923.48,1769.85 L7185.21,1790.52 L7185.21,1831.99 L6923.48,1811.32 L6923.48,1769.85 "/>
<path class="Beam" fill-rule="evenodd" d="M2665.65,1211.79 L2938.18,1232.46 L2938.18,1273.92 L2665.65,1253.25 L2665.65,1211.79 "/>
<path class="Beam" fill-rule="evenodd" d="M4439.69,1687.18 L4701.41,1707.85 L4701.41,1749.31 L4439.69,1728.64 L4439.69,1687.18 "/>
<path class="Beam" fill-rule="evenodd" d="M6205.43,1211.79 L7006.49,1273.79 L7006.49,1315.26 L6205.43,1253.25 L6205.43,1211.79 "/>
<path class="Beam" fill-rule="evenodd" d="M3715.35,2079.89 L3977.07,2100.56 L3977.07,2142.03 L3715.35,2121.36 L3715.35,2079.89 "/>
<path class="Beam" fill-rule="evenodd" d="M7758.1,839.742 L8030.64,819.072 L8030.64,860.53 L7758.1,881.199 L7758.1,839.742 "/>
<path class="Beam" fill-rule="evenodd" d="M2321.35,2100.62 L3089.98,2079.95 L3089.98,2121.3 L2321.35,2141.97 L2321.35,2100.62 "/>
<path class="Beam" fill-rule="evenodd" d="M7810.57,1645.84 L8072.29,1666.51 L8072.29,1707.98 L7810.57,1687.31 L7810.57,1645.84 "/>
<path class="Beam" fill-rule="evenodd" d="M1795.11,922.478 L2026.99,922.478 L2026.99,963.817 L1795.11,963.817 L1795.11,922.478 "/>
<path class="Beam" fill-rule="evenodd" d="M1696.22,2100.63 L1957.94,2100.63 L1957.94,2141.97 L1696.22,2141.97 L1696.22,2100.63 "/>
<path class="NoteDot" d="M8454.48,984.486 C8454.48,993.754 8461.77,1001.04 8471.03,1001.04 C8480.3,1001.04 8487.58,993.754 8487.58,984.486 C8487.58,975.218 8480.3,967.936 8471.03,967.936 C8461.77,967.936 8454.48,975.218 8454.48,984.486"/>
<path class="NoteDot" d="M8485.33,1852.6 C8485.33,1861.86 8492.61,1869.15 8501.88,1869.15 C8511.14,1869.15 8518.43,1861.86 8518.43,1852.6 C8518.43,1843.33 8511.14,1836.05 8501.88,1836.05 C8492.61,1836.05 8485.33,1843.33 8485.33,1852.6"/>
</svg>
