<?xml version="1.0" encoding="UTF-8" standalone="no"?>
<svg
   width="681"
   height="255.60252"
   version="1.2"
   id="svg314"
   xmlns="http://www.w3.org/2000/svg"
   xmlns:svg="http://www.w3.org/2000/svg"
   xmlns:rdf="http://www.w3.org/1999/02/22-rdf-syntax-ns#"
   xmlns:cc="http://creativecommons.org/ns#"
   xmlns:dc="http://purl.org/dc/elements/1.1/">
  <defs
     id="defs314" />
  <title
     id="title1">air_XI</title>
  <desc
     id="desc1">Generated by MuseScore Studio 4.7.3</desc>
  <path
     id="path314"
     class="NoteDot"
     d="m 203.24455,158.53055 c 0,0.74211 0.5828,1.32491 1.32491,1.32491 0.74211,0 1.3249,-0.5828 1.3249,-1.32491 0,-0.7421 -0.58279,-1.3249 -1.3249,-1.3249 -0.74211,0 -1.32491,0.5828 -1.32491,1.3249 M 609.50153,89.034237 c 0,0.742107 0.5828,1.324906 1.32491,1.324906 0.7421,0 1.3249,-0.582799 1.3249,-1.324906 0,-0.742107 -0.5828,-1.324906 -1.3249,-1.324906 -0.74211,0 -1.32491,0.582799 -1.32491,1.324906 M 420.24493,26.156845 c 0,0.741307 0.58279,1.324906 1.3249,1.324906 0.74131,0 1.32491,-0.583599 1.32491,-1.324906 0,-0.742108 -0.5836,-1.324906 -1.32491,-1.324906 -0.74211,0 -1.3249,0.582798 -1.3249,1.324906 m -9.84434,138.992635 c 0,0.74211 0.5828,1.32491 1.32491,1.32491 0.74211,0 1.32491,-0.5828 1.32491,-1.32491 0,-0.74211 -0.5828,-1.32491 -1.32491,-1.32491 -0.74211,0 -1.32491,0.5828 -1.32491,1.32491 m 238.41262,76.11444 c 0,0.74211 0.5828,1.32491 1.3249,1.32491 0.74211,0 1.32491,-0.5828 1.32491,-1.32491 0,-0.7413 -0.5828,-1.3249 -1.32491,-1.3249 -0.7421,0 -1.3249,0.5836 -1.3249,1.3249 M 224.05798,32.77497 c 0,0.742107 0.5828,1.324906 1.32491,1.324906 0.74211,0 1.3249,-0.582799 1.3249,-1.324906 0,-0.741307 -0.58279,-1.324906 -1.3249,-1.324906 -0.74211,0 -1.32491,0.583599 -1.32491,1.324906 m 374.48806,132.37451 c 0,0.74211 0.5836,1.32491 1.3249,1.32491 0.74211,0 1.32491,-0.5828 1.32491,-1.32491 0,-0.74211 -0.5828,-1.32491 -1.32491,-1.32491 -0.7413,0 -1.3249,0.5828 -1.3249,1.32491 M 411.85119,108.89021 c 0,0.74211 0.58279,1.32491 1.3249,1.32491 0.74211,0 1.32491,-0.5828 1.32491,-1.32491 0,-0.7421 -0.5828,-1.3249 -1.32491,-1.3249 -0.74211,0 -1.3249,0.5828 -1.3249,1.3249 M 186.36021,241.26392 c 0,0.74211 0.5828,1.32491 1.3249,1.32491 0.74211,0 1.32491,-0.5828 1.32491,-1.32491 0,-0.7413 -0.5828,-1.3249 -1.32491,-1.3249 -0.7421,0 -1.3249,0.5836 -1.3249,1.3249 M 178.34593,89.034237 c 0,0.742107 0.5828,1.324906 1.3249,1.324906 0.74211,0 1.32491,-0.582799 1.32491,-1.324906 0,-0.742107 -0.5828,-1.324906 -1.32491,-1.324906 -0.7421,0 -1.3249,0.582799 -1.3249,1.324906 M 426.07051,214.78982 c 0,0.74131 0.5828,1.32491 1.3249,1.32491 0.74211,0 1.32491,-0.5836 1.32491,-1.32491 0,-0.74211 -0.5828,-1.3249 -1.32491,-1.3249 -0.7421,0 -1.3249,0.58279 -1.3249,1.3249 M 616.43107,12.919153 c 0,0.741948 0.5836,1.324906 1.3249,1.324906 0.74211,0 1.32491,-0.582958 1.32491,-1.324906 0,-0.741947 -0.5828,-1.324905 -1.32491,-1.324905 -0.7413,0 -1.3249,0.582958 -1.3249,1.324905 m -41.54441,203.512587 13.57168,1.65474 v 3.33428 l -13.57168,-1.65474 v -3.33428 M 44.008478,32.792582 v 1.96054 h -2.199104 c -0.185727,0 -0.370653,0.159309 -0.370653,0.370654 v 0.503544 c 0,0.212145 0.184926,0.371454 0.370653,0.371454 h 8.02869 c 0.212145,0 0.371454,-0.159309 0.371454,-0.371454 v -0.503544 c 0,-0.211345 -0.159309,-0.370654 -0.371454,-0.370654 h -2.384831 v -1.96054 h 2.384831 c 0.212145,0 0.371454,-0.185727 0.371454,-0.397872 v -0.503544 c 0,-0.184927 -0.159309,-0.370654 -0.371454,-0.370654 h -2.384831 v -4.213281 c 0,-0.159309 -0.07925,-0.291399 -0.184926,-0.344235 l -0.318618,-0.159309 c -0.05284,-0.02642 -0.07925,-0.02642 -0.13209,-0.02642 -0.105673,0 -0.212145,0 -0.2914,0.07925 l -2.411248,2.199904 c -0.08005,0.07925 -0.106473,0.184927 -0.106473,0.2914 v 2.172685 h -3.073301 c 0,0 2.967629,-3.179774 6.094567,-7.366637 0.105672,-0.13209 0.13209,-0.264981 0.13209,-0.370653 0,-0.132891 -0.05284,-0.238563 -0.07925,-0.264981 l -0.582799,-0.583279 c -0.08005,-0.053 -0.159309,-0.105993 -0.264981,-0.105993 -0.159309,0 -3.736154,0 -3.9483,0 -0.185727,0 -0.317817,0.158989 -0.344235,0.317978 0,0 -0.132891,1.961181 -0.822162,4.107448 -0.688471,2.146268 -1.483414,3.471174 -2.172686,4.451844 0,0 -0.07925,0.13209 -0.07925,0.291399 0,0.05284 0,0.105673 0.02642,0.158509 0.07925,0.185727 0.264981,0.477126 0.264981,0.477126 0,0 0.05284,0.159309 0.2914,0.159309 h 4.557516 m 0.794143,-11.066607 c -0.874998,0 -1.589887,-1.192415 -1.589887,-2.67631 0,-1.483894 0.714889,-2.702808 1.589887,-2.702808 0.874198,0 1.616305,1.218914 1.616305,2.702808 0,1.483895 -0.742107,2.67631 -1.616305,2.67631 m 0.97987,-6.624529 c -1.616305,0 -2.199104,0.476966 -2.569757,0.874437 -0.08005,-0.55646 -0.132891,-0.98043 -0.132891,-1.4044 0,-1.510393 0.529962,-3.471253 2.384831,-3.471253 0.662853,0 1.059924,0.211985 1.324905,0.503464 -0.55638,0.238483 -1.007088,0.953932 -1.007088,1.563389 0,0.953932 0.742107,1.69588 1.69636,1.69588 0.953452,0 1.721977,-0.741948 1.721977,-1.69588 v -0.07949 c 0,-0.238483 -0.05284,-0.635955 -0.158508,-0.84794 -0.345036,-0.953932 -1.457797,-2.3583327 -4.107609,-2.3583327 -2.38483,0 -4.106808,2.2788377 -4.63677,3.4977517 -0.264981,0.635955 -0.662853,1.934363 -0.662853,3.418257 0,1.616385 0.450708,3.444755 2.014177,4.822658 1.53625,1.165917 2.516921,1.218913 3.444755,1.218913 0.927034,0 4.398207,-1.086423 4.398207,-4.160204 0,-2.596816 -2.039794,-3.577246 -3.709736,-3.577246 m -15.410537,6.685851 c 0,2.093591 -1.086343,3.206352 -2.623394,4.425586 l 0.07925,-5.167533 c 0.05284,-0.238483 0.450709,-1.006929 1.510633,-1.006929 0.954253,0 1.033507,0.900936 1.033507,1.457397 v 0.291479 m -0.317817,-3.047284 c -1.324906,0 -2.093432,0.821442 -2.226323,0.980431 l 0.106473,-8.505896 c 0,-0.211985 -0.159309,-0.370974 -0.371454,-0.370974 h -0.317817 c -0.212145,0 -0.370654,0.158989 -0.370654,0.370974 l 0.132091,15.925369 c 0,0.212145 0.159309,0.370653 0.371454,0.370653 0.05284,0 0.158508,-0.02642 0.211344,-0.05284 2.279159,-1.139179 4.663989,-3.311864 4.663989,-6.041411 0,-1.377902 -0.635634,-2.67631 -2.199103,-2.67631 M 30.37196,160.78008 c 0,2.09343 -1.086343,3.2062 -2.623394,4.42543 l 0.07925,-5.16753 c 0.05284,-0.23857 0.450709,-1.00709 1.510633,-1.00709 0.954253,0 1.033507,0.90141 1.033507,1.45779 v 0.2914 m -0.317817,-3.04768 c -1.324906,0 -2.093432,0.82136 -2.226323,0.98067 l 0.106473,-8.50582 c 0,-0.21214 -0.159309,-0.37065 -0.371454,-0.37065 h -0.317817 c -0.212145,0 -0.370654,0.15851 -0.370654,0.37065 l 0.132091,15.92529 c 0,0.21215 0.159309,0.37066 0.371454,0.37066 0.05284,0 0.158508,-0.0264 0.211344,-0.0528 2.279159,-1.13918 4.663989,-3.31186 4.663989,-6.04173 0,-1.37774 -0.635634,-2.67623 -2.199103,-2.67623 m 0.317817,72.544 c 0,2.09343 -1.086343,3.20619 -2.623394,4.42543 l 0.07925,-5.16754 c 0.05284,-0.23856 0.450709,-1.00709 1.510633,-1.00709 0.954253,0 1.033507,0.90142 1.033507,1.4578 v 0.2914 m -0.317817,-3.04768 c -1.324906,0 -2.093432,0.82136 -2.226323,0.98067 l 0.106473,-8.50582 c 0,-0.21214 -0.159309,-0.37065 -0.371454,-0.37065 h -0.317817 c -0.212145,0 -0.370654,0.15851 -0.370654,0.37065 l 0.132091,15.92529 c 0,0.21215 0.159309,0.37065 0.371454,0.37065 0.05284,0 0.158508,-0.0264 0.211344,-0.0528 2.279159,-1.13918 4.663989,-3.31187 4.663989,-6.04173 0,-1.37775 -0.635634,-2.67623 -2.199103,-2.67623 M 30.371954,91.283775 c 0,2.093431 -1.086343,3.206192 -2.623394,4.425426 l 0.07925,-5.167533 c 0.05284,-0.238563 0.450709,-1.007089 1.510633,-1.007089 0.954253,0 1.033507,0.901416 1.033507,1.457797 v 0.291399 m -0.317817,-3.047684 c -1.324906,0 -2.093432,0.821362 -2.226323,0.980671 l 0.106473,-8.505816 c 0,-0.212145 -0.159309,-0.370654 -0.371454,-0.370654 h -0.317817 c -0.212145,0 -0.370654,0.158509 -0.370654,0.370654 l 0.132091,15.925289 c 0,0.212145 0.159309,0.370653 0.371454,0.370653 0.05284,0 0.158508,-0.02642 0.211344,-0.05284 2.279159,-1.139179 4.663989,-3.311864 4.663989,-6.041731 0,-1.377742 -0.635634,-2.67623 -2.199103,-2.67623 M 16.093311,173.91708 c -0.529962,0.10647 -1.033427,0.1593 -1.536891,0.1593 -3.789231,0 -7.0220012,-2.64981 -7.0220012,-6.65094 0,-3.23341 2.2788382,-6.12099 4.6106722,-8.13517 0.450468,-0.39787 0.874438,-0.76852 1.27191,-1.16559 0.238483,1.43058 0.42397,2.67623 0.609457,3.76257 -2.411329,0.71489 -4.0542123,3.25903 -4.0542123,5.74953 0,1.85487 1.4573963,4.39901 3.5772463,4.39901 0.211985,0 0.450468,-0.10567 0.450468,-0.34424 0,-0.23856 -0.264982,-0.37145 -0.582959,-0.58279 -1.033427,-0.63644 -1.616385,-1.32491 -1.616385,-2.6234 0,-1.6163 1.192415,-2.91479 2.755804,-3.28625 l 1.536891,8.71797 m -2.331834,-27.24023 c 0.238483,-1.05992 1.457396,-3.84183 2.835298,-3.84183 0.397472,0 1.033427,1.29849 1.033427,3.12694 0,2.75549 -2.040355,4.8225 -3.868725,6.62453 -0.158989,-1.05992 -0.29148,-2.09343 -0.29148,-3.20619 0,-0.98067 0.0795,-1.88209 0.29148,-2.70345 m 6.094567,22.33847 c 0,1.88129 -0.768446,3.81541 -2.649812,4.58394 -0.556461,-3.17978 -1.27191,-7.39306 -1.457397,-8.55865 2.384831,0 4.107209,1.6163 4.107209,3.97471 M 8.1968718,182.05224 c 0,1.74839 1.351404,4.05397 4.9286502,4.05397 1.245411,0 2.331834,-0.31782 3.285766,-0.90062 1.430899,-1.00708 1.801872,-2.75628 1.801872,-4.42542 0,-1.03351 -0.158988,-2.22552 -0.423969,-3.73616 -0.07949,-0.52996 -0.238484,-1.3249 -0.397472,-2.35841 2.596815,-0.84778 4.531178,-3.55043 4.531178,-6.28029 0,-4.00114 -2.835299,-6.70379 -6.704024,-6.70379 -0.264981,-1.58988 -0.529962,-3.15335 -0.768445,-4.63677 2.8088,-2.94201 4.743163,-6.25387 4.743163,-10.46715 0,-2.41125 -0.741948,-4.37179 -1.165917,-5.32605 -0.635955,-1.35132 -1.404401,-2.27915 -1.881367,-2.27915 -0.185487,0 -1.006928,0.31861 -1.881366,1.35132 -1.69588,2.01418 -2.172846,5.4061 -2.172846,7.63162 0,1.43138 0.132491,2.72986 0.582959,5.69749 -0.0265,0.0264 -1.404401,1.43058 -1.960861,1.88129 -2.4113287,2.25194 -5.7500916,5.45813 -5.7500916,10.75776 0,4.95538 4.3191932,8.85085 9.2478436,8.85085 0.768445,0 1.483894,-0.0793 2.093351,-0.18573 0.503464,2.54414 0.794943,4.39901 0.794943,5.80317 0,2.75548 -1.4044,4.21328 -4.08071,4.21328 -0.635955,0 -1.192415,-0.13289 -1.245411,-0.13289 -0.0265,-0.0264 -0.07949,-0.0528 -0.07949,-0.0793 0,-0.0528 0.053,-0.0792 0.132491,-0.10567 1.245412,-0.18573 2.490823,-1.24565 2.490823,-2.94121 0,-1.43138 -1.086423,-2.94121 -3.073782,-2.94121 -1.8548679,0 -3.0472832,1.50983 -3.0472832,3.25903 M 16.093311,34.924439 c -0.529962,0.106473 -1.033427,0.159309 -1.536891,0.159309 -3.789231,0 -7.0220012,-2.649811 -7.0220012,-6.650947 0,-3.233411 2.2788382,-6.121386 4.6106722,-8.135243 0.450468,-0.397471 0.874438,-0.768445 1.27191,-1.165917 0.238483,1.430899 0.42397,2.67631 0.609457,3.762733 -2.411329,0.715129 -4.0542123,3.259268 -4.0542123,5.749771 0,1.854869 1.4573963,4.399008 3.5772463,4.399008 0.211985,0 0.450468,-0.105672 0.450468,-0.344235 0,-0.238563 -0.264982,-0.371454 -0.582959,-0.582799 -1.033427,-0.636435 -1.616385,-1.324906 -1.616385,-2.623393 0,-1.616306 1.192415,-2.914793 2.755804,-3.286247 l 1.536891,8.71796 M 13.761477,7.6844542 c 0.238483,-1.0599247 1.457396,-3.8422271 2.835298,-3.8422271 0.397472,0 1.033427,1.2984078 1.033427,3.1267779 0,2.7558043 -2.040355,4.822658 -3.868725,6.62453 -0.158989,-1.059925 -0.29148,-2.093352 -0.29148,-3.206273 0,-0.9804301 0.0795,-1.8813661 0.29148,-2.7028078 m 6.094567,22.3382338 c 0,1.881286 -0.768446,3.815409 -2.649812,4.583934 -0.556461,-3.179774 -1.27191,-7.393055 -1.457397,-8.558652 2.384831,0 4.107209,1.616305 4.107209,3.974718 M 8.1968718,43.059602 c 0,1.748395 1.351404,4.053972 4.9286502,4.053972 1.245411,0 2.331834,-0.317818 3.285766,-0.900616 1.430899,-1.007089 1.801872,-2.756285 1.801872,-4.425426 0,-1.033507 -0.158988,-2.225522 -0.423969,-3.736154 -0.07949,-0.529963 -0.238484,-1.324906 -0.397472,-2.358413 2.596815,-0.84778 4.531178,-3.550428 4.531178,-6.280294 0,-4.001136 -2.835299,-6.703784 -6.704024,-6.703784 -0.264981,-1.589887 -0.529962,-3.153276 -0.768445,-4.637171 2.8088,-2.941291 4.743163,-6.253555 4.743163,-10.4667561 0,-2.4113288 -0.741948,-4.3721895 -1.165917,-5.3261218 C 17.391719,0.92743413 16.623273,0 16.146307,0 15.96082,0 15.139379,0.31797742 14.264941,1.351404 c -1.69588,2.013857 -2.172846,5.4056161 -2.172846,7.631458 0,1.430898 0.132491,2.729306 0.582959,5.697095 -0.0265,0.0265 -1.404401,1.430899 -1.960861,1.881367 -2.4113287,2.25234 -5.7500916,5.458612 -5.7500916,10.757915 0,4.955389 4.3191932,8.850852 9.2478436,8.850852 0.768445,0 1.483894,-0.07925 2.093351,-0.185727 0.503464,2.54414 0.794943,4.399008 0.794943,5.803168 0,2.755484 -1.4044,4.213281 -4.08071,4.213281 -0.635955,0 -1.192415,-0.132891 -1.245411,-0.132891 -0.0265,-0.02642 -0.07949,-0.05284 -0.07949,-0.07925 0,-0.05284 0.053,-0.07925 0.132491,-0.105672 1.245412,-0.185727 2.490823,-1.245652 2.490823,-2.941211 0,-1.431379 -1.086423,-2.941211 -3.073782,-2.941211 -1.8548679,0 -3.0472832,1.509832 -3.0472832,3.259028 M 16.093311,243.41339 c -0.529962,0.10648 -1.033427,0.15931 -1.536891,0.15931 -3.789231,0 -7.0220012,-2.64981 -7.0220012,-6.65095 0,-3.23341 2.2788382,-6.12098 4.6106722,-8.13516 0.450468,-0.39787 0.874438,-0.76852 1.27191,-1.16559 0.238483,1.43057 0.42397,2.67623 0.609457,3.76257 -2.411329,0.71489 -4.0542123,3.25903 -4.0542123,5.74953 0,1.85487 1.4573963,4.39901 3.5772463,4.39901 0.211985,0 0.450468,-0.10568 0.450468,-0.34424 0,-0.23856 -0.264982,-0.37145 -0.582959,-0.5828 -1.033427,-0.63643 -1.616385,-1.3249 -1.616385,-2.62339 0,-1.61631 1.192415,-2.91479 2.755804,-3.28625 l 1.536891,8.71796 m -2.331834,-27.24022 c 0.238483,-1.05993 1.457396,-3.84183 2.835298,-3.84183 0.397472,0 1.033427,1.29849 1.033427,3.12694 0,2.75548 -2.040355,4.8225 -3.868725,6.62453 -0.158989,-1.05993 -0.29148,-2.09343 -0.29148,-3.20619 0,-0.98067 0.0795,-1.88209 0.29148,-2.70345 m 6.094567,22.33847 c 0,1.88129 -0.768446,3.81541 -2.649812,4.58394 -0.556461,-3.17978 -1.27191,-7.39306 -1.457397,-8.55866 2.384831,0 4.107209,1.61631 4.107209,3.97472 M 8.1968718,251.54856 c 0,1.74839 1.351404,4.05397 4.9286502,4.05397 1.245411,0 2.331834,-0.31782 3.285766,-0.90062 1.430899,-1.00709 1.801872,-2.75628 1.801872,-4.42542 0,-1.03351 -0.158988,-2.22553 -0.423969,-3.73616 -0.07949,-0.52996 -0.238484,-1.3249 -0.397472,-2.35841 2.596815,-0.84778 4.531178,-3.55043 4.531178,-6.2803 0,-4.00113 -2.835299,-6.70378 -6.704024,-6.70378 -0.264981,-1.58989 -0.529962,-3.15336 -0.768445,-4.63677 2.8088,-2.94201 4.743163,-6.25388 4.743163,-10.46716 0,-2.41125 -0.741948,-4.37179 -1.165917,-5.32604 -0.635955,-1.35132 -1.404401,-2.27916 -1.881367,-2.27916 -0.185487,0 -1.006928,0.31862 -1.881366,1.35133 -1.69588,2.01417 -2.172846,5.40609 -2.172846,7.63162 0,1.43137 0.132491,2.72986 0.582959,5.69749 -0.0265,0.0264 -1.404401,1.43058 -1.960861,1.88129 -2.4113287,2.25194 -5.7500916,5.45813 -5.7500916,10.75775 0,4.95539 4.3191932,8.85085 9.2478436,8.85085 0.768445,0 1.483894,-0.0793 2.093351,-0.18572 0.503464,2.54414 0.794943,4.39901 0.794943,5.80317 0,2.75548 -1.4044,4.21328 -4.08071,4.21328 -0.635955,0 -1.192415,-0.13289 -1.245411,-0.13289 -0.0265,-0.0264 -0.07949,-0.0528 -0.07949,-0.0793 0,-0.0528 0.053,-0.0793 0.132491,-0.10567 1.245412,-0.18573 2.490823,-1.24565 2.490823,-2.94121 0,-1.43138 -1.086423,-2.94121 -3.073782,-2.94121 -1.8548679,0 -3.0472832,1.50983 -3.0472832,3.25903 m 7.8964392,-147.1278 c -0.529962,0.10647 -1.033427,0.15931 -1.536891,0.15931 -3.789231,0 -7.0220012,-2.64982 -7.0220012,-6.650951 0,-3.233411 2.2788382,-6.120985 4.6106722,-8.135163 0.450468,-0.397872 0.874438,-0.768525 1.27191,-1.165597 0.238483,1.430579 0.42397,2.67623 0.609457,3.762573 -2.411329,0.714889 -4.0542123,3.259028 -4.0542123,5.749531 0,1.854869 1.4573963,4.399007 3.5772463,4.399007 0.211985,0 0.450468,-0.10567 0.450468,-0.34423 0,-0.23857 -0.264982,-0.37146 -0.582959,-0.5828 -1.033427,-0.63644 -1.616385,-1.32491 -1.616385,-2.623396 0,-1.616306 1.192415,-2.914793 2.755804,-3.286247 l 1.536891,8.717963 M 13.761477,77.180532 c 0.238483,-1.059925 1.457396,-3.841827 2.835298,-3.841827 0.397472,0 1.033427,1.298488 1.033427,3.126938 0,2.755484 -2.040355,4.822498 -3.868725,6.62453 -0.158989,-1.059925 -0.29148,-2.093432 -0.29148,-3.206193 0,-0.98067 0.0795,-1.882086 0.29148,-2.703448 m 6.094567,22.338474 c 0,1.881284 -0.768446,3.815404 -2.649812,4.583934 -0.556461,-3.17977 -1.27191,-7.393055 -1.457397,-8.558652 2.384831,0 4.107209,1.616305 4.107209,3.974718 M 8.1968718,112.55592 c 0,1.7484 1.351404,4.05397 4.9286502,4.05397 1.245411,0 2.331834,-0.31782 3.285766,-0.90061 1.430899,-1.00709 1.801872,-2.75629 1.801872,-4.42543 0,-1.03351 -0.158988,-2.22552 -0.423969,-3.73615 -0.07949,-0.52997 -0.238484,-1.32491 -0.397472,-2.35842 2.596815,-0.84778 4.531178,-3.55042 4.531178,-6.280291 0,-4.001136 -2.835299,-6.703784 -6.704024,-6.703784 -0.264981,-1.589887 -0.529962,-3.153356 -0.768445,-4.63677 2.8088,-2.942012 4.743163,-6.253876 4.743163,-10.467157 0,-2.411249 -0.741948,-4.371789 -1.165917,-5.326042 -0.635955,-1.351324 -1.404401,-2.279158 -1.881367,-2.279158 -0.185487,0 -1.006928,0.318618 -1.881366,1.351324 -1.69588,2.014177 -2.172846,5.406096 -2.172846,7.631618 0,1.431379 0.132491,2.729866 0.582959,5.697495 -0.0265,0.02642 -1.404401,1.430579 -1.960861,1.881287 -2.4113287,2.25194 -5.7500916,5.458132 -5.7500916,10.757755 0,4.955393 4.3191932,8.850853 9.2478436,8.850853 0.768445,0 1.483894,-0.0793 2.093351,-0.18573 0.503464,2.54414 0.794943,4.39901 0.794943,5.80317 0,2.75548 -1.4044,4.21328 -4.08071,4.21328 -0.635955,0 -1.192415,-0.13289 -1.245411,-0.13289 -0.0265,-0.0264 -0.07949,-0.0528 -0.07949,-0.0793 0,-0.0528 0.053,-0.0793 0.132491,-0.10568 1.245412,-0.18572 2.490823,-1.24565 2.490823,-2.94121 0,-1.43138 -1.086423,-2.94121 -3.073782,-2.94121 -1.8548679,0 -3.0472832,1.50983 -3.0472832,3.25903 M 184.14509,27.269606 c 0,1.139178 0.82136,2.411248 2.96763,2.411248 2.75549,0 5.64386,-2.25274 5.64386,-4.583934 0,-1.563469 -1.32491,-2.438067 -2.96763,-2.438067 -2.57056,0 -5.64386,2.173086 -5.64386,4.610753 m 422.35919,-8.762232 c -0.875,0 -1.05992,-0.715449 -1.05992,-0.953932 0,-1.298408 4.45104,-3.577246 5.69669,-3.577246 0.63563,0 1.05992,0.370974 1.05992,0.953932 0,1.324906 -4.47826,3.577246 -5.69669,3.577246 m 3.6561,-5.776589 c -2.56976,0 -5.64386,2.146347 -5.64386,4.610672 0,1.139419 0.82136,2.411329 2.96763,2.411329 2.75628,0 5.64466,-2.25234 5.64466,-4.584175 0,-1.563388 -1.32491,-2.437826 -2.96843,-2.437826 M 479.80565,235.75856 c 0,1.13918 0.82136,2.41125 2.96763,2.41125 2.75628,0 5.64466,-2.25194 5.64466,-4.58394 0,-1.56347 -1.32491,-2.43766 -2.96763,-2.43766 -2.57056,0 -5.64466,2.17268 -5.64466,4.61035 M 363.64543,23.960143 c 0,1.139179 0.82136,2.411248 2.96762,2.411248 2.75549,0 5.64386,-2.251939 5.64386,-4.584094 0,-1.563389 -1.3249,-2.437827 -2.96763,-2.437827 -2.57055,0 -5.64385,2.172846 -5.64385,4.610673 m 274.58774,17.712911 c -0.87419,0 -1.05992,-0.71569 -1.05992,-0.954253 0,-1.298487 4.45184,-3.576845 5.69669,-3.576845 0.63644,0 1.05993,0.370653 1.05993,0.953452 0,1.324906 -4.47746,3.577646 -5.6967,3.577646 m 3.6569,-5.77675 c -2.57055,0 -5.64465,2.146268 -5.64465,4.610352 0,1.13998 0.82216,2.411249 2.96842,2.411249 2.75549,0 5.64386,-2.25194 5.64386,-4.583934 0,-1.563469 -1.3249,-2.437667 -2.96763,-2.437667 m 19.38526,1.300889 c 0,1.13998 0.82136,2.41205 2.96763,2.41205 2.75628,0 5.64386,-2.252741 5.64386,-4.584735 0,-1.563469 -1.32491,-2.437667 -2.96763,-2.437667 -2.56976,0 -5.64386,2.172686 -5.64386,4.610352 M 450.97714,239.06802 c 0,1.13918 0.82136,2.41125 2.96763,2.41125 2.75548,0 5.64386,-2.25274 5.64386,-4.58393 0,-1.56347 -1.32491,-2.43847 -2.96763,-2.43847 -2.57056,0 -5.64386,2.17349 -5.64386,4.61115 M 346.95882,27.269606 c 0,1.139178 0.82136,2.411248 2.96763,2.411248 2.75628,0 5.64465,-2.25274 5.64465,-4.583934 0,-1.563469 -1.3249,-2.438067 -2.96762,-2.438067 -2.57056,0 -5.64466,2.173086 -5.64466,4.610753 M 518.53453,229.13963 c 0,1.13998 0.82136,2.41125 2.96763,2.41125 2.75548,0 5.64386,-2.25194 5.64386,-4.58393 0,-1.56347 -1.32491,-2.43767 -2.96763,-2.43767 -2.57056,0 -5.64386,2.17269 -5.64386,4.61035 m -102.39161,-8.76199 c -0.8742,0 -1.05992,-0.71569 -1.05992,-0.95425 0,-1.29769 4.45184,-3.57685 5.69749,-3.57685 0.63564,0 1.05993,0.37066 1.05993,0.95426 0,1.3249 -4.47827,3.57684 -5.6975,3.57684 m 3.6569,-5.77675 c -2.57056,0 -5.64386,2.14627 -5.64386,4.61116 0,1.13917 0.82136,2.41124 2.96763,2.41124 2.75549,0 5.64386,-2.25274 5.64386,-4.58473 0,-1.56267 -1.32491,-2.43767 -2.96763,-2.43767 M 576.51818,27.269606 c 0,1.139178 0.82136,2.411248 2.96843,2.411248 2.75548,0 5.64386,-2.25274 5.64386,-4.583934 0,-1.563469 -1.32491,-2.438067 -2.96763,-2.438067 -2.57056,0 -5.64466,2.173086 -5.64466,4.610753 M 387.09666,220.37764 c -0.8742,0 -1.05992,-0.71569 -1.05992,-0.95425 0,-1.29769 4.45184,-3.57685 5.69749,-3.57685 0.63564,0 1.05993,0.37066 1.05993,0.95426 0,1.3249 -4.47827,3.57684 -5.6975,3.57684 m 3.6569,-5.77675 c -2.57056,0 -5.64386,2.14627 -5.64386,4.61116 0,1.13917 0.82136,2.41124 2.96763,2.41124 2.75548,0 5.64386,-2.25274 5.64386,-4.58473 0,-1.56267 -1.32491,-2.43767 -2.96763,-2.43767 m 149.13237,22.32327 c -0.875,0 -1.05993,-0.71489 -1.05993,-0.95346 0,-1.29848 4.45105,-3.57764 5.6967,-3.57764 0.63644,0 1.05992,0.37145 1.05992,0.95425 0,1.32491 -4.47826,3.57685 -5.69669,3.57685 m 3.6561,-5.77595 c -2.56976,0 -5.64386,2.14626 -5.64386,4.61035 0,1.13918 0.82136,2.41125 2.96763,2.41125 2.75628,0 5.64466,-2.25194 5.64466,-4.58394 0,-1.56347 -1.32491,-2.43766 -2.96843,-2.43766 M 63.437763,50.435045 c 0,1.139179 0.821361,2.411249 2.967629,2.411249 2.756284,0 5.644659,-2.252741 5.644659,-4.583935 0,-1.563469 -1.324906,-2.438467 -2.968429,-2.438467 -2.569757,0 -5.643859,2.173486 -5.643859,4.611153 M 48.795751,103.38485 c 0,1.13918 0.821362,2.41125 2.967629,2.41125 2.756285,0 5.64466,-2.25274 5.64466,-4.58474 0,-1.562665 -1.324906,-2.437664 -2.967629,-2.437664 -2.570558,0 -5.64466,2.172684 -5.64466,4.611154 m 307.484639,115.8272 c 0,1.13917 0.82136,2.41124 2.96843,2.41124 2.75548,0 5.64386,-2.25274 5.64386,-4.58473 0,-1.56267 -1.32491,-2.43767 -2.96763,-2.43767 -2.57056,0 -5.64466,2.17269 -5.64466,4.61116 M 66.723209,100.07539 c 0,1.13918 0.821362,2.41124 2.967629,2.41124 2.756285,0 5.64466,-2.25274 5.64466,-4.583929 0,-1.563469 -1.324906,-2.438468 -2.96843,-2.438468 -2.569757,0 -5.643859,2.173487 -5.643859,4.611157 M 329.22189,223.68711 c -0.8742,0 -1.05993,-0.71569 -1.05993,-0.95426 0,-1.29848 4.45185,-3.57684 5.6967,-3.57684 0.63643,0 1.05992,0.37065 1.05992,0.95345 0,1.32491 -4.47826,3.57765 -5.69669,3.57765 m 3.6569,-5.77675 c -2.57056,0 -5.64466,2.14626 -5.64466,4.61035 0,1.13998 0.82136,2.41205 2.96843,2.41205 2.75548,0 5.64386,-2.25274 5.64386,-4.58474 0,-1.56347 -1.32491,-2.43766 -2.96763,-2.43766 M 84.650664,96.765923 c 0,1.139179 0.821361,2.411249 2.967629,2.411249 2.756284,0 5.644659,-2.25274 5.644659,-4.583934 0,-1.563469 -1.324906,-2.438467 -2.968429,-2.438467 -2.569757,0 -5.643859,2.173486 -5.643859,4.611152 M 307.87049,219.21205 c 0,1.13917 0.82136,2.41124 2.96763,2.41124 2.75548,0 5.64386,-2.25274 5.64386,-4.58473 0,-1.56267 -1.32491,-2.43767 -2.96763,-2.43767 -2.57056,0 -5.64386,2.17269 -5.64386,4.61116 M 102.57812,96.765923 c 0,1.139179 0.82136,2.411249 2.96763,2.411249 2.75629,0 5.64466,-2.25274 5.64466,-4.583934 0,-1.563469 -1.32491,-2.438467 -2.96843,-2.438467 -2.56976,0 -5.64386,2.173486 -5.64386,4.611152 M 288.50605,222.52071 c 0,1.13998 0.82136,2.41205 2.96763,2.41205 2.75628,0 5.64466,-2.25274 5.64466,-4.58474 0,-1.56347 -1.32491,-2.43766 -2.96843,-2.43766 -2.56976,0 -5.64386,2.17268 -5.64386,4.61035 M 120.50558,100.07539 c 0,1.13918 0.82136,2.41124 2.96763,2.41124 2.75628,0 5.64466,-2.25274 5.64466,-4.583929 0,-1.563469 -1.32491,-2.438468 -2.96843,-2.438468 -2.56976,0 -5.64386,2.173487 -5.64386,4.611157 m 148.63603,125.75478 c 0,1.13998 0.82136,2.41125 2.96843,2.41125 2.75548,0 5.64386,-2.25194 5.64386,-4.58393 0,-1.56347 -1.32491,-2.43767 -2.96763,-2.43767 -2.57056,0 -5.64466,2.17268 -5.64466,4.61035 M 138.43304,103.38485 c 0,1.13918 0.82136,2.41125 2.96763,2.41125 2.75628,0 5.64466,-2.25274 5.64466,-4.58474 0,-1.562665 -1.32491,-2.437664 -2.96843,-2.437664 -2.56976,0 -5.64386,2.172684 -5.64386,4.611154 M 330.27301,27.269606 c 0,1.139178 0.82136,2.411248 2.96763,2.411248 2.75548,0 5.64386,-2.25274 5.64386,-4.583934 0,-1.563469 -1.32491,-2.438067 -2.96763,-2.438067 -2.57056,0 -5.64386,2.173086 -5.64386,4.610753 M 168.41834,91.313395 c -0.8742,0 -1.05993,-0.715689 -1.05993,-0.954252 0,-1.298488 4.45185,-3.577646 5.6975,-3.577646 0.63564,0 1.05993,0.371454 1.05993,0.954252 0,1.324906 -4.47827,3.577646 -5.6975,3.577646 m 3.6569,-5.77675 c -2.56976,0 -5.64386,2.146268 -5.64386,4.610353 0,1.139179 0.82136,2.411248 2.96763,2.411248 2.75628,0 5.64386,-2.251939 5.64386,-4.583934 0,-1.563469 -1.32491,-2.437667 -2.96763,-2.437667 M 240.3131,229.13963 c 0,1.13998 0.82136,2.41125 2.96763,2.41125 2.75548,0 5.64386,-2.25194 5.64386,-4.58393 0,-1.56347 -1.32491,-2.43767 -2.96763,-2.43767 -2.57056,0 -5.64386,2.17269 -5.64386,4.61035 M 559.83237,23.960143 c 0,1.139179 0.82136,2.411248 2.96763,2.411248 2.75548,0 5.64386,-2.251939 5.64386,-4.584094 0,-1.563389 -1.32491,-2.437827 -2.96763,-2.437827 -2.57056,0 -5.64386,2.172846 -5.64386,4.610673 M 213.2538,253.47147 c -0.8742,0 -1.05993,-0.71569 -1.05993,-0.95425 0,-1.29849 4.45184,-3.57685 5.6975,-3.57685 0.63563,0 1.05992,0.37066 1.05992,0.95345 0,1.32491 -4.47826,3.57765 -5.69749,3.57765 m 3.6569,-5.77675 c -2.56976,0 -5.64386,2.14627 -5.64386,4.61035 0,1.13998 0.82136,2.41125 2.96763,2.41125 2.75628,0 5.64386,-2.25194 5.64386,-4.58393 0,-1.56347 -1.32491,-2.43767 -2.96763,-2.43767 M 202.50805,114.47883 c -0.875,0 -1.05993,-0.71568 -1.05993,-0.95425 0,-1.29849 4.45185,-3.57764 5.6967,-3.57764 0.63643,0 1.05992,0.37145 1.05992,0.95425 0,1.3249 -4.47826,3.57764 -5.69669,3.57764 m 3.6569,-5.77675 c -2.57056,0 -5.64466,2.14627 -5.64466,4.61036 0,1.13918 0.82136,2.41125 2.96763,2.41125 2.75628,0 5.64466,-2.25194 5.64466,-4.58394 0,-1.56347 -1.32491,-2.43767 -2.96763,-2.43767 m 21.24653,1.30089 c 0,1.13998 0.82136,2.41125 2.96763,2.41125 2.75628,0 5.64465,-2.25194 5.64465,-4.58393 0,-1.56347 -1.3249,-2.43767 -2.96762,-2.43767 -2.57056,0 -5.64466,2.17269 -5.64466,4.61035 m 339.53295,129.06505 c 0,1.13918 0.82136,2.41125 2.96763,2.41125 2.75628,0 5.64466,-2.25274 5.64466,-4.58393 0,-1.56347 -1.32491,-2.43847 -2.96843,-2.43847 -2.56976,0 -5.64386,2.17349 -5.64386,4.61115 m -390.51181,7.78452 c -0.8742,0 -1.05993,-0.71568 -1.05993,-0.95425 0,-1.29849 4.45185,-3.57684 5.6975,-3.57684 0.63563,0 1.05992,0.37065 1.05992,0.95345 0,1.3249 -4.47826,3.57764 -5.69749,3.57764 m 3.6569,-5.77675 c -2.56976,0 -5.64386,2.14627 -5.64386,4.61116 0,1.13918 0.82136,2.41125 2.96763,2.41125 2.75628,0 5.64386,-2.25274 5.64386,-4.58474 0,-1.56347 -1.32491,-2.43767 -2.96763,-2.43767 M 313.5864,33.888531 c 0,1.139179 0.82136,2.411249 2.96763,2.411249 2.75548,0 5.64386,-2.25274 5.64386,-4.584735 0,-1.563469 -1.32491,-2.437667 -2.96763,-2.437667 -2.57056,0 -5.64386,2.172686 -5.64386,4.611153 M 100.71285,50.435045 c 0,1.139179 0.82216,2.411249 2.96843,2.411249 2.75548,0 5.64385,-2.252741 5.64385,-4.583935 0,-1.563469 -1.3249,-2.438467 -2.96762,-2.438467 -2.57056,0 -5.64466,2.173486 -5.64466,4.611153 m 154.69697,56.258465 c 0,1.13998 0.82136,2.41205 2.96763,2.41205 2.75628,0 5.64466,-2.25274 5.64466,-4.58473 0,-1.56347 -1.32491,-2.43767 -2.96843,-2.43767 -2.56976,0 -5.64386,2.17268 -5.64386,4.61035 M 145.61635,242.37748 c 0,1.13918 0.82216,2.41125 2.96843,2.41125 2.75548,0 5.64386,-2.25274 5.64386,-4.58473 0,-1.56267 -1.32491,-2.43767 -2.96763,-2.43767 -2.57056,0 -5.64466,2.17269 -5.64466,4.61115 M 273.33728,103.38485 c 0,1.13918 0.82136,2.41125 2.96763,2.41125 2.75628,0 5.64466,-2.25274 5.64466,-4.58474 0,-1.562665 -1.32491,-2.437664 -2.96843,-2.437664 -2.56976,0 -5.64386,2.172684 -5.64386,4.611154 M 126.25271,239.06802 c 0,1.13918 0.82136,2.41125 2.96763,2.41125 2.75548,0 5.64386,-2.25274 5.64386,-4.58393 0,-1.56347 -1.32491,-2.43847 -2.96763,-2.43847 -2.57056,0 -5.64386,2.17349 -5.64386,4.61115 M 291.26474,100.07539 c 0,1.13918 0.82136,2.41124 2.96762,2.41124 2.75629,0 5.64466,-2.25274 5.64466,-4.583929 0,-1.563469 -1.3249,-2.438468 -2.96843,-2.438468 -2.56975,0 -5.64385,2.173487 -5.64385,4.611157 M 106.88827,235.75856 c 0,1.13918 0.82136,2.41125 2.96763,2.41125 2.75628,0 5.64466,-2.25194 5.64466,-4.58394 0,-1.56347 -1.32491,-2.43766 -2.96843,-2.43766 -2.56976,0 -5.64386,2.17268 -5.64386,4.61035 M 309.19219,106.69351 c 0,1.13998 0.82136,2.41205 2.96763,2.41205 2.75629,0 5.64386,-2.25274 5.64386,-4.58473 0,-1.56347 -1.3249,-2.43767 -2.96763,-2.43767 -2.56975,0 -5.64386,2.17268 -5.64386,4.61035 M 87.524629,232.4491 c 0,1.13918 0.821361,2.41125 2.967629,2.41125 2.755484,0 5.643859,-2.25194 5.643859,-4.58394 0,-1.56347 -1.324906,-2.43767 -2.967629,-2.43767 -2.570558,0 -5.643859,2.17269 -5.643859,4.61036 M 327.11965,110.00297 c 0,1.13998 0.82136,2.41125 2.96763,2.41125 2.75628,0 5.64386,-2.25194 5.64386,-4.58393 0,-1.56347 -1.32491,-2.43767 -2.96763,-2.43767 -2.56976,0 -5.64386,2.17269 -5.64386,4.61035 M 68.160192,229.13963 c 0,1.13998 0.821361,2.41125 2.967629,2.41125 2.755484,0 5.643859,-2.25194 5.643859,-4.58393 0,-1.56347 -1.324906,-2.43767 -2.967629,-2.43767 -2.570558,0 -5.643859,2.17269 -5.643859,4.61035 M 345.04711,113.31244 c 0,1.13918 0.82136,2.41125 2.96763,2.41125 2.75628,0 5.64386,-2.25194 5.64386,-4.58394 0,-1.56347 -1.32491,-2.43767 -2.96763,-2.43767 -2.56976,0 -5.64386,2.17269 -5.64386,4.61036 M 48.795751,225.83017 c 0,1.13998 0.821362,2.41125 2.967629,2.41125 2.756285,0 5.64466,-2.25194 5.64466,-4.58393 0,-1.56347 -1.324906,-2.43767 -2.967629,-2.43767 -2.570558,0 -5.64466,2.17268 -5.64466,4.61035 M 296.89979,43.816119 c 0,1.139179 0.82136,2.411249 2.96763,2.411249 2.75628,0 5.64466,-2.25194 5.64466,-4.583934 0,-1.563469 -1.32491,-2.437667 -2.96763,-2.437667 -2.57056,0 -5.64466,2.172685 -5.64466,4.610352 M 543.14576,20.65076 c 0,1.139419 0.82136,2.411329 2.96763,2.411329 2.75628,0 5.64386,-2.25234 5.64386,-4.584175 0,-1.563389 -1.32491,-2.437827 -2.96763,-2.437827 -2.56976,0 -5.64386,2.172846 -5.64386,4.610673 m 36.7083,221.72672 c 0,1.13918 0.82136,2.41125 2.96763,2.41125 2.75628,0 5.64386,-2.25274 5.64386,-4.58473 0,-1.56267 -1.32491,-2.43767 -2.96763,-2.43767 -2.56976,0 -5.64386,2.17269 -5.64386,4.61115 M 375.03241,114.47883 c -0.8742,0 -1.05992,-0.71568 -1.05992,-0.95425 0,-1.29849 4.45184,-3.57764 5.69749,-3.57764 0.63564,0 1.05993,0.37145 1.05993,0.95425 0,1.3249 -4.47826,3.57764 -5.6975,3.57764 m 3.6569,-5.77675 c -2.57056,0 -5.64386,2.14627 -5.64386,4.61036 0,1.13918 0.82136,2.41125 2.96763,2.41125 2.75549,0 5.64386,-2.25194 5.64386,-4.58394 0,-1.56347 -1.3249,-2.43767 -2.96763,-2.43767 m 23.23429,5.77675 c -0.8742,0 -1.05993,-0.71568 -1.05993,-0.95425 0,-1.29849 4.45185,-3.57764 5.6975,-3.57764 0.63563,0 1.05992,0.37145 1.05992,0.95425 0,1.3249 -4.47826,3.57764 -5.69749,3.57764 m 3.6569,-5.77675 c -2.57056,0 -5.64386,2.14627 -5.64386,4.61036 0,1.13918 0.82136,2.41125 2.96763,2.41125 2.75548,0 5.64386,-2.25194 5.64386,-4.58394 0,-1.56347 -1.32491,-2.43767 -2.96763,-2.43767 M 526.45915,20.65076 c 0,1.139419 0.82136,2.411329 2.96843,2.411329 2.75548,0 5.64386,-2.25234 5.64386,-4.584175 0,-1.563389 -1.32491,-2.437827 -2.96763,-2.437827 -2.57056,0 -5.64466,2.172846 -5.64466,4.610673 m -92.4336,89.35221 c 0,1.13998 0.82136,2.41125 2.96763,2.41125 2.75628,0 5.64466,-2.25194 5.64466,-4.58393 0,-1.56347 -1.32491,-2.43767 -2.96843,-2.43767 -2.56976,0 -5.64386,2.17269 -5.64386,4.61035 m 27.99834,-3.30946 c 0,1.13998 0.82136,2.41205 2.96763,2.41205 2.75548,0 5.64386,-2.25274 5.64386,-4.58473 0,-1.56347 -1.32491,-2.43767 -2.96763,-2.43767 -2.57056,0 -5.64386,2.17268 -5.64386,4.61035 m 17.92746,-3.30866 c 0,1.13918 0.82136,2.41125 2.96763,2.41125 2.75548,0 5.64386,-2.25274 5.64386,-4.58474 0,-1.562665 -1.32491,-2.437664 -2.96763,-2.437664 -2.57056,0 -5.64386,2.172684 -5.64386,4.611154 M 117.39946,43.816119 c 0,1.139179 0.82136,2.411249 2.96762,2.411249 2.75629,0 5.64466,-2.25194 5.64466,-4.583934 0,-1.563469 -1.3249,-2.437667 -2.96843,-2.437667 -2.56975,0 -5.64385,2.172685 -5.64385,4.610352 M 660.799,159.64332 c 0,1.13917 0.82137,2.41124 2.96763,2.41124 2.75549,0 5.64386,-2.25194 5.64386,-4.58393 0,-1.56347 -1.3249,-2.43767 -2.96763,-2.43767 -2.57056,0 -5.64386,2.17269 -5.64386,4.61036 M 497.87881,100.07539 c 0,1.13918 0.82136,2.41124 2.96763,2.41124 2.75548,0 5.64386,-2.25274 5.64386,-4.583929 0,-1.563469 -1.32491,-2.438468 -2.96763,-2.438468 -2.57056,0 -5.64386,2.173487 -5.64386,4.611157 m 143.9104,62.87739 c 0,1.13918 0.82136,2.41125 2.96762,2.41125 2.75549,0 5.64386,-2.25194 5.64386,-4.58394 0,-1.56347 -1.3249,-2.43766 -2.96763,-2.43766 -2.57055,0 -5.64385,2.17268 -5.64385,4.61035 m -123.99599,-61.7118 c -0.87419,0 -1.05992,-0.71569 -1.05992,-0.95345 0,-1.298486 4.45184,-3.577645 5.69749,-3.577645 0.63564,0 1.05993,0.370654 1.05993,0.954253 0,1.324906 -4.47826,3.576842 -5.6975,3.576842 m 3.6569,-5.776747 c -2.57055,0 -5.64385,2.146268 -5.64385,4.611157 0,1.13918 0.82136,2.41124 2.96762,2.41124 2.75549,0 5.64386,-2.25274 5.64386,-4.583929 0,-1.563469 -1.3249,-2.438468 -2.96763,-2.438468 m 101.32929,70.798007 c 0,1.13918 0.82136,2.41125 2.96763,2.41125 2.75548,0 5.64386,-2.25194 5.64386,-4.58393 0,-1.56347 -1.32491,-2.43767 -2.96763,-2.43767 -2.57056,0 -5.64386,2.17268 -5.64386,4.61035 M 542.69745,93.456461 c 0,1.139179 0.82136,2.411248 2.96763,2.411248 2.75549,0 5.64386,-2.251939 5.64386,-4.583934 0,-1.563469 -1.32491,-2.437667 -2.96763,-2.437667 -2.57056,0 -5.64386,2.172686 -5.64386,4.610353 M 509.77334,23.960143 c 0,1.139179 0.82136,2.411248 2.96763,2.411248 2.75548,0 5.64386,-2.251939 5.64386,-4.584094 0,-1.563389 -1.32491,-2.437827 -2.96763,-2.437827 -2.57056,0 -5.64386,2.172846 -5.64386,4.610673 M 588.61925,170.7373 c -0.875,0 -1.05992,-0.71569 -1.05992,-0.95345 0,-1.29849 4.45184,-3.57765 5.69669,-3.57765 0.63644,0 1.05993,0.37066 1.05993,0.95426 0,1.3249 -4.47827,3.57684 -5.6967,3.57684 m 3.6569,-5.77675 c -2.57056,0 -5.64466,2.14627 -5.64466,4.61115 0,1.13918 0.82136,2.41125 2.96763,2.41125 2.75629,0 5.64466,-2.25274 5.64466,-4.58393 0,-1.56347 -1.32491,-2.43847 -2.96763,-2.43847 M 268.90144,43.816119 c 0,1.139179 0.82217,2.411249 2.96843,2.411249 2.75549,0 5.64386,-2.25194 5.64386,-4.583934 0,-1.563469 -1.3249,-2.437667 -2.96763,-2.437667 -2.57055,0 -5.64466,2.172685 -5.64466,4.610352 m 303.78131,47.497276 c -0.87419,0 -1.05992,-0.715689 -1.05992,-0.954252 0,-1.298488 4.45184,-3.577646 5.6975,-3.577646 0.63563,0 1.05992,0.371454 1.05992,0.954252 0,1.324906 -4.47826,3.577646 -5.6975,3.577646 m 3.6569,-5.77675 c -2.57055,0 -5.64385,2.146268 -5.64385,4.610353 0,1.139179 0.82136,2.411248 2.96762,2.411248 2.75549,0 5.64386,-2.251939 5.64386,-4.583934 0,-1.563469 -1.3249,-2.437667 -2.96763,-2.437667 M 134.08607,33.888531 c 0,1.139179 0.82136,2.411249 2.96762,2.411249 2.75549,0 5.64386,-2.25274 5.64386,-4.584735 0,-1.563469 -1.3249,-2.437667 -2.96763,-2.437667 -2.57055,0 -5.64385,2.172686 -5.64385,4.611153 M 558.15682,166.26224 c 0,1.13918 0.82136,2.41125 2.96843,2.41125 2.75549,0 5.64386,-2.25194 5.64386,-4.58393 0,-1.56347 -1.3249,-2.43767 -2.96763,-2.43767 -2.57056,0 -5.64466,2.17268 -5.64466,4.61035 m 41.41712,-74.948845 c -0.8742,0 -1.05992,-0.715689 -1.05992,-0.954252 0,-1.298488 4.45184,-3.577646 5.69749,-3.577646 0.63564,0 1.05993,0.371454 1.05993,0.954252 0,1.324906 -4.47827,3.577646 -5.6975,3.577646 m 3.6569,-5.77675 c -2.57056,0 -5.64386,2.146268 -5.64386,4.610353 0,1.139179 0.82136,2.411248 2.96763,2.411248 2.75549,0 5.64386,-2.251939 5.64386,-4.583934 0,-1.563469 -1.32491,-2.437667 -2.96763,-2.437667 m -64.08382,77.416135 c 0,1.13918 0.82137,2.41125 2.96763,2.41125 2.75629,0 5.64466,-2.25194 5.64466,-4.58394 0,-1.56347 -1.3249,-2.43766 -2.96763,-2.43766 -2.57055,0 -5.64466,2.17268 -5.64466,4.61035 M 245.85929,44.982517 c -0.8742,0 -1.05993,-0.71569 -1.05993,-0.954253 0,-1.298488 4.45185,-3.577646 5.6975,-3.577646 0.63564,0 1.05993,0.371454 1.05993,0.954252 0,1.324906 -4.47827,3.577647 -5.6975,3.577647 m 3.6569,-5.77675 c -2.56976,0 -5.64386,2.146267 -5.64386,4.610352 0,1.139179 0.82136,2.411249 2.96763,2.411249 2.75628,0 5.64386,-2.25194 5.64386,-4.583934 0,-1.563469 -1.32491,-2.437667 -2.96763,-2.437667 M 520.13723,159.64332 c 0,1.13917 0.82136,2.41124 2.96763,2.41124 2.75628,0 5.64466,-2.25194 5.64466,-4.58393 0,-1.56347 -1.32491,-2.43767 -2.96843,-2.43767 -2.56976,0 -5.64386,2.17269 -5.64386,4.61036 m 89.70213,83.89976 c -0.8742,0 -1.05992,-0.71569 -1.05992,-0.95425 0,-1.29769 4.45184,-3.57685 5.69749,-3.57685 0.63564,0 1.05993,0.37066 1.05993,0.95426 0,1.3249 -4.47827,3.57684 -5.6975,3.57684 m 3.6569,-5.77675 c -2.57056,0 -5.64386,2.14627 -5.64386,4.61115 0,1.13918 0.82136,2.41125 2.96763,2.41125 2.75548,0 5.64386,-2.25274 5.64386,-4.58473 0,-1.56267 -1.32491,-2.43767 -2.96763,-2.43767 M 501.12743,159.64332 c 0,1.13917 0.82136,2.41124 2.96763,2.41124 2.75628,0 5.64466,-2.25194 5.64466,-4.58393 0,-1.56347 -1.32491,-2.43767 -2.96843,-2.43767 -2.56976,0 -5.64386,2.17269 -5.64386,4.61036 m 160.1479,-69.496322 c 0,1.139179 0.82136,2.411248 2.96763,2.411248 2.75628,0 5.64386,-2.251939 5.64386,-4.583934 0,-1.563469 -1.32491,-2.437667 -2.96763,-2.437667 -2.56976,0 -5.64386,2.172686 -5.64386,4.610353 m -179.1577,66.186852 c 0,1.13998 0.82136,2.41125 2.96763,2.41125 2.75628,0 5.64386,-2.25194 5.64386,-4.58393 0,-1.56347 -1.32491,-2.43767 -2.96763,-2.43767 -2.56976,0 -5.64386,2.17269 -5.64386,4.61035 m 10.9691,-132.373707 c 0,1.139179 0.82136,2.411248 2.96763,2.411248 2.75628,0 5.64386,-2.251939 5.64386,-4.584094 0,-1.563389 -1.32491,-2.437827 -2.96763,-2.437827 -2.56976,0 -5.64386,2.172846 -5.64386,4.610673 m -29.9789,135.683177 c 0,1.13917 0.82136,2.41124 2.96763,2.41124 2.75549,0 5.64386,-2.25194 5.64386,-4.58393 0,-1.56347 -1.32491,-2.43767 -2.96763,-2.43767 -2.57056,0 -5.64386,2.17269 -5.64386,4.61036 m 175.77779,83.89976 c -0.8742,0 -1.05992,-0.71569 -1.05992,-0.95425 0,-1.29769 4.45184,-3.57685 5.69749,-3.57685 0.63564,0 1.05993,0.37066 1.05993,0.95426 0,1.3249 -4.47827,3.57684 -5.6975,3.57684 m 3.6569,-5.77675 c -2.57056,0 -5.64386,2.14627 -5.64386,4.61115 0,1.13918 0.82136,2.41125 2.96763,2.41125 2.75548,0 5.64386,-2.25274 5.64386,-4.58473 0,-1.56267 -1.32491,-2.43767 -2.96763,-2.43767 M 380.33204,20.65076 c 0,1.139419 0.82136,2.411329 2.96762,2.411329 2.75549,0 5.64386,-2.25234 5.64386,-4.584175 0,-1.563389 -1.3249,-2.437827 -2.96763,-2.437827 -2.57055,0 -5.64385,2.172846 -5.64385,4.610673 M 150.77187,33.888531 c 0,1.139179 0.82217,2.411249 2.96843,2.411249 2.75549,0 5.64386,-2.25274 5.64386,-4.584735 0,-1.563469 -1.3249,-2.437667 -2.96763,-2.437667 -2.57055,0 -5.64466,2.172686 -5.64466,4.611153 M 434.63316,162.95278 c 0,1.13918 0.82136,2.41125 2.96763,2.41125 2.75629,0 5.64386,-2.25194 5.64386,-4.58394 0,-1.56347 -1.3249,-2.43766 -2.96763,-2.43766 -2.56975,0 -5.64386,2.17268 -5.64386,4.61035 M 48.795751,169.5717 c 0,1.13918 0.821362,2.41125 2.967629,2.41125 2.756285,0 5.64466,-2.25274 5.64466,-4.58393 0,-1.56347 -1.324906,-2.43847 -2.967629,-2.43847 -2.570558,0 -5.64466,2.17349 -5.64466,4.61115 M 465.08839,30.579068 c 0,1.139179 0.82136,2.411249 2.96763,2.411249 2.75628,0 5.64466,-2.25274 5.64466,-4.583934 0,-1.563469 -1.32491,-2.438468 -2.96763,-2.438468 -2.57056,0 -5.64466,2.173487 -5.64466,4.611153 M 400.47301,167.42784 c -0.8742,0 -1.05993,-0.71489 -1.05993,-0.95345 0,-1.29849 4.45185,-3.57765 5.6975,-3.57765 0.63563,0 1.05992,0.37145 1.05992,0.95425 0,1.32491 -4.47826,3.57685 -5.69749,3.57685 m 3.6569,-5.77595 c -2.57056,0 -5.64386,2.14627 -5.64386,4.61035 0,1.13918 0.82136,2.41125 2.96763,2.41125 2.75548,0 5.64386,-2.25194 5.64386,-4.58393 0,-1.56347 -1.32491,-2.43767 -2.96763,-2.43767 m -336.324361,4.61035 c 0,1.13918 0.821362,2.41125 2.96843,2.41125 2.755484,0 5.643859,-2.25194 5.643859,-4.58393 0,-1.56347 -1.324906,-2.43767 -2.967629,-2.43767 -2.570558,0 -5.64466,2.17268 -5.64466,4.61035 m 304.152761,1.1656 c -0.8742,0 -1.05993,-0.71489 -1.05993,-0.95345 0,-1.29849 4.45185,-3.57765 5.6967,-3.57765 0.63644,0 1.05992,0.37145 1.05992,0.95425 0,1.32491 -4.47826,3.57685 -5.69669,3.57685 m 3.6569,-5.77595 c -2.57056,0 -5.64466,2.14627 -5.64466,4.61035 0,1.13918 0.82136,2.41125 2.96843,2.41125 2.75548,0 5.64386,-2.25194 5.64386,-4.58393 0,-1.56347 -1.32491,-2.43767 -2.96763,-2.43767 M 86.815344,169.5717 c 0,1.13918 0.822162,2.41125 2.968429,2.41125 2.755484,0 5.643859,-2.25274 5.643859,-4.58393 0,-1.56347 -1.324906,-2.43847 -2.967629,-2.43847 -2.570557,0 -5.644659,2.17349 -5.644659,4.61115 m 20.997556,1.1656 c -0.8742,0 -1.05992,-0.71569 -1.05992,-0.95345 0,-1.29849 4.45184,-3.57765 5.69669,-3.57765 0.63644,0 1.05993,0.37066 1.05993,0.95426 0,1.3249 -4.47747,3.57684 -5.6967,3.57684 m 3.6569,-5.77675 c -2.57056,0 -5.64466,2.14627 -5.64466,4.61115 0,1.13918 0.82216,2.41125 2.96843,2.41125 2.75549,0 5.64386,-2.25274 5.64386,-4.58393 0,-1.56347 -1.32491,-2.43847 -2.96763,-2.43847 M 167.45848,30.579068 c 0,1.139179 0.82136,2.411249 2.96763,2.411249 2.75629,0 5.64466,-2.25274 5.64466,-4.583934 0,-1.563469 -1.3249,-2.438468 -2.96843,-2.438468 -2.56975,0 -5.64386,2.173487 -5.64386,4.611153 m 174.0374,132.373712 c 0,1.13918 0.82216,2.41125 2.96843,2.41125 2.75548,0 5.64386,-2.25194 5.64386,-4.58394 0,-1.56347 -1.32491,-2.43766 -2.96763,-2.43766 -2.57056,0 -5.64466,2.17268 -5.64466,4.61035 m -207.15524,3.30946 c 0,1.13918 0.82136,2.41125 2.96763,2.41125 2.75548,0 5.64386,-2.25194 5.64386,-4.58393 0,-1.56347 -1.32491,-2.43767 -2.96763,-2.43767 -2.57056,0 -5.64386,2.17268 -5.64386,4.61035 m 180.6283,-5.45253 c -0.87419,0 -1.05992,-0.71569 -1.05992,-0.95425 0,-1.29849 4.45184,-3.57765 5.69669,-3.57765 0.63644,0 1.05993,0.37146 1.05993,0.95426 0,1.3249 -4.47826,3.57764 -5.6967,3.57764 m 3.6569,-5.77675 c -2.57055,0 -5.64466,2.14627 -5.64466,4.61036 0,1.13917 0.82137,2.41124 2.96843,2.41124 2.75549,0 5.64386,-2.25194 5.64386,-4.58393 0,-1.56347 -1.3249,-2.43767 -2.96763,-2.43767 M 214.1304,35.054128 c -0.8742,0 -1.05993,-0.715689 -1.05993,-0.954252 0,-1.298488 4.45184,-3.576846 5.6975,-3.576846 0.63563,0 1.05992,0.370653 1.05992,0.953452 0,1.324906 -4.47826,3.577646 -5.69749,3.577646 m 3.6569,-5.77675 c -2.57056,0 -5.64386,2.146268 -5.64386,4.611153 0,1.139179 0.82136,2.411249 2.96763,2.411249 2.75548,0 5.64385,-2.25274 5.64385,-4.584735 0,-1.563469 -1.3249,-2.437667 -2.96762,-2.437667 m 76.18409,127.056472 c 0,1.13998 0.82136,2.41125 2.96763,2.41125 2.75628,0 5.64465,-2.25194 5.64465,-4.58393 0,-1.56347 -1.3249,-2.43767 -2.96762,-2.43767 -2.57056,0 -5.64466,2.17269 -5.64466,4.61035 M 442.04623,35.054128 c -0.8742,0 -1.05992,-0.715689 -1.05992,-0.954252 0,-1.298488 4.45184,-3.576846 5.69749,-3.576846 0.63564,0 1.05993,0.370653 1.05993,0.953452 0,1.324906 -4.47826,3.577646 -5.6975,3.577646 m 3.6569,-5.77675 c -2.57056,0 -5.64386,2.146268 -5.64386,4.611153 0,1.139179 0.82137,2.411249 2.96763,2.411249 2.75549,0 5.64386,-2.25274 5.64386,-4.584735 0,-1.563469 -1.3249,-2.437667 -2.96763,-2.437667 M 193.31696,164.11838 c -0.87419,0 -1.05992,-0.71489 -1.05992,-0.95346 0,-1.29848 4.45184,-3.57764 5.69749,-3.57764 0.63564,0 1.05993,0.37145 1.05993,0.95425 0,1.32491 -4.47826,3.57685 -5.6975,3.57685 m 3.6569,-5.77595 c -2.57055,0 -5.64385,2.14626 -5.64385,4.61035 0,1.13918 0.82136,2.41125 2.96762,2.41125 2.75549,0 5.64386,-2.25194 5.64386,-4.58394 0,-1.56347 -1.3249,-2.43766 -2.96763,-2.43766 m 77.98773,-5.31804 c 0,1.13998 0.82136,2.41205 2.96763,2.41205 2.75628,0 5.64466,-2.25274 5.64466,-4.58474 0,-1.56346 -1.32491,-2.43766 -2.96843,-2.43766 -2.56976,0 -5.64386,2.17268 -5.64386,4.61035 m -110.15932,11.09399 c -0.8742,0 -1.05993,-0.71489 -1.05993,-0.95346 0,-1.29848 4.45185,-3.57764 5.6975,-3.57764 0.63563,0 1.05992,0.37145 1.05992,0.95425 0,1.32491 -4.47826,3.57685 -5.69749,3.57685 m 3.6569,-5.77595 c -2.57056,0 -5.64386,2.14626 -5.64386,4.61035 0,1.13918 0.82136,2.41125 2.96763,2.41125 2.75548,0 5.64386,-2.25194 5.64386,-4.58394 0,-1.56347 -1.32491,-2.43766 -2.96763,-2.43766 m 87.49262,-2.00858 c 0,1.13998 0.82136,2.41125 2.96763,2.41125 2.75628,0 5.64466,-2.25194 5.64466,-4.58393 0,-1.56347 -1.32491,-2.43767 -2.96843,-2.43767 -2.56976,0 -5.64386,2.17269 -5.64386,4.61035 m -28.47467,3.30947 c 0,1.13917 0.82136,2.41124 2.96763,2.41124 2.75628,0 5.64466,-2.25194 5.64466,-4.58393 0,-1.56347 -1.32491,-2.43767 -2.96843,-2.43767 -2.56976,0 -5.64386,2.17269 -5.64386,4.61036 m 271.69297,72.80578 c 0,1.13918 0.82136,2.41125 2.96763,2.41125 2.75548,0 5.64386,-2.25194 5.64386,-4.58394 0,-1.56347 -1.32491,-2.43767 -2.96763,-2.43767 -2.57056,0 -5.64386,2.17269 -5.64386,4.61036 M 410.31734,28.435202 c -0.8742,0 -1.05993,-0.714888 -1.05993,-0.953451 0,-1.298488 4.45185,-3.577647 5.6967,-3.577647 0.63643,0 1.05992,0.371454 1.05992,0.954253 0,1.324906 -4.47826,3.576845 -5.69669,3.576845 m 3.6569,-5.776349 c -2.57056,0 -5.64466,2.146668 -5.64466,4.610753 0,1.139178 0.82136,2.411248 2.96843,2.411248 2.75548,0 5.64386,-2.25274 5.64386,-4.583934 0,-1.563469 -1.32491,-2.438067 -2.96763,-2.438067 m 44.9447,192.130957 v 22.10637 h 0.66201 V 214.78981 Z M 227.47678,159.64258 v 20.39863 h 0.66202 v -20.39863 z m 47.48528,-6.61906 v 22.05352 h 0.66202 v -22.05352 z m -112.14714,9.92851 v 18.74391 h 0.66201 v -18.74391 z m 131.15686,-6.61891 v 22.05337 h 0.66202 V 156.33312 Z M 448.00116,9.6098371 V 31.71667 h 0.66201 V 9.6098371 Z M 191.32957,162.95203 v 18.74391 h 0.66202 V 162.95203 Z M 220.08532,9.6098371 V 31.71667 h 0.66202 V 9.6098371 Z M 312.98166,159.64258 v 20.39863 h 0.66201 v -20.39863 z m 28.51465,3.30945 v 18.74391 h 0.66201 V 162.95203 Z M 142.28244,143.63882 v 20.45149 h 0.66201 V 143.63882 Z M 175.40118,6.3005432 V 28.407223 h 0.66201 V 6.3005432 Z M 113.76779,145.29354 v 22.10622 h 0.66201 v -22.10622 z m 264.14545,-1.65472 v 20.45149 h 0.66201 v -20.45149 z m -283.15533,1.65472 v 22.10622 h 0.662173 v -22.10622 z m 311.66998,-1.65472 v 20.45149 h 0.66202 v -20.45149 z m -330.679694,0 v 20.45149 h 0.66202 V 143.63882 Z M 434.6328,162.95203 v 18.74391 h 0.66202 V 162.95203 Z M 56.738326,145.29354 v 22.10622 h 0.662173 V 145.29354 Z M 158.71446,9.6098371 V 31.71667 h 0.66217 V 9.6098371 Z M 463.10742,159.64258 v 20.39863 h 0.66203 v -20.39863 z m 19.00988,-3.30946 v 22.05337 h 0.66202 V 156.33312 Z M 473.03109,6.3005432 V 28.407223 h 0.66201 V 6.3005432 Z M 416.27228,4.6458182 V 25.097769 h 0.66201 V 4.6458182 Z m 76.81408,19.3135158 v 18.744064 h 0.66202 V 23.959334 Z M 644.84044,218.09848 v 22.10715 h 0.66217 V 218.09848 Z M 509.77292,23.959334 v 18.744064 h 0.66202 V 23.959334 Z M 251.81499,19.537875 V 41.644242 H 252.477 V 19.537875 Z M 501.12701,159.64258 v 20.39863 h 0.66202 V 159.64258 Z M 661.27495,90.146157 v 20.398783 h 0.66202 V 90.146157 Z M 615.79417,218.09848 v 22.10715 h 0.66217 v -22.10715 z m -95.6565,-58.4559 v 20.39863 h 0.66202 v -20.39863 z m 19.00971,3.30945 v 18.74391 h 0.66203 V 162.95203 Z M 276.84413,19.537875 v 22.106367 h 0.66201 V 19.537875 Z M 566.09941,143.63882 v 20.45149 h 0.66217 v -20.45149 z m 31.48716,-53.492663 v 20.398783 h 0.66201 V 90.146157 Z M 142.02789,9.6098371 V 31.71667 h 0.66202 V 9.6098371 Z M 570.69536,90.146157 v 20.398783 h 0.66202 V 90.146157 Z M 526.45949,20.649729 v 20.398946 h 0.66218 V 20.649729 Z m 68.1147,124.643811 v 22.10622 h 0.66202 V 145.29354 Z M 71.380369,22.847169 v 25.415975 h 0.662013 V 22.847169 Z M 630.72125,143.63882 v 20.45149 h 0.66202 V 143.63882 Z M 542.697,93.455604 v 18.744066 h 0.66218 V 93.455604 Z m 99.09182,69.496426 v 18.74391 h 0.66201 V 162.95203 Z M 523.74811,75.797122 v 22.106363 h 0.66201 V 75.797122 Z m 137.05042,83.845458 v 20.39863 h 0.66217 V 159.64258 Z M 505.82069,75.797122 v 22.106363 h 0.66202 V 75.797122 Z m 37.32474,-55.147393 v 20.398946 h 0.66202 V 20.649729 Z m -55.25231,58.456063 v 22.107148 h 0.66218 V 79.105792 Z m 99.90362,140.607388 v 20.49245 h 0.66202 V 219.71318 Z M 469.96571,82.415239 v 22.106371 h 0.66202 V 82.415239 Z M 304.84249,19.537875 v 22.106367 h 0.66202 V 19.537875 Z M 559.832,23.959334 v 18.744064 h 0.66201 V 23.959334 Z M 574.88713,218.1393 v 18.75688 h 0.66202 V 218.1393 Z M 441.96813,85.724846 v 22.106214 h 0.66217 V 85.724846 Z M 584.46087,4.6458182 V 25.097769 h 0.66201 V 4.6458182 Z m -38.62,208.4892718 v 20.45164 h 0.66202 V 213.13509 Z M 380.33161,20.649729 v 20.398946 h 0.66201 V 20.649729 Z m 27.5468,68.384572 v 22.106209 h 0.66218 V 89.034301 Z M 518.53407,229.13885 v 20.39879 h 0.66218 V 229.13885 Z M 604.51614,17.340435 v 22.053517 h 0.66202 V 17.340435 Z M 380.98721,89.034301 v 22.106209 h 0.66217 V 89.034301 Z M 48.796175,225.82939 v 22.05352 h 0.662013 V 225.82939 Z M 321.52906,9.6098371 V 31.71667 h 0.66201 V 9.6098371 Z M 68.159727,229.13885 v 20.39879 H 68.8219 v -20.39879 z m 431.010013,3.30945 v 18.74406 h 0.66202 V 232.4483 Z M 352.98979,89.034301 v 22.106209 h 0.66202 V 89.034301 Z M 87.524212,232.4483 v 18.74406 h 0.662021 V 232.4483 Z M 192.08696,4.6458182 V 25.097769 h 0.66202 V 4.6458182 Z M 114.83086,213.13509 v 20.45164 h 0.66216 V 213.13509 Z M 317.13481,82.415239 v 22.106371 h 0.66201 V 82.415239 Z M 134.19456,214.78981 v 22.10637 h 0.66202 V 214.78981 Z M 299.20739,75.797122 v 22.106363 h 0.66201 V 75.797122 Z M 153.55905,218.09848 v 22.10715 h 0.66202 V 218.09848 Z M 281.27998,79.105792 v 22.107148 h 0.66201 V 79.105792 Z M 125.3421,19.537875 v 22.106367 h 0.66202 V 19.537875 Z m 138.01031,62.877364 v 22.106371 h 0.66217 V 82.415239 Z M 182.3883,221.40793 v 22.10637 h 0.66201 V 221.40793 Z M 338.21485,4.6458182 V 25.097769 h 0.66201 V 4.6458182 Z M 219.20941,228.02683 v 22.10637 h 0.66217 V 228.02683 Z M 235.35404,85.724846 v 22.106214 h 0.66218 V 85.724846 Z m 252.3943,127.410244 v 20.45164 h 0.66201 V 213.13509 Z M 644.18812,16.228581 v 22.106206 h 0.66201 V 16.228581 Z m -435.72527,72.80572 v 22.106209 h 0.66216 V 89.034301 Z m 31.8499,140.104549 v 20.39879 h 0.66202 V 229.13885 Z M 669.21789,12.919131 V 35.02534 h 0.66216 V 12.919131 Z M 166.43098,90.146157 v 20.398783 h 0.66201 V 90.146157 Z M 363.64504,23.959334 v 18.744064 h 0.66202 V 23.959334 Z M 354.90141,4.6458182 V 25.097769 h 0.66202 V 4.6458182 Z M 269.14199,225.82939 v 22.05352 h 0.66202 V 225.82939 Z M 146.37571,79.105792 v 22.107148 h 0.66201 V 79.105792 Z M 288.5057,222.51995 v 22.05351 h 0.66202 V 222.51995 Z M 128.44814,75.797122 v 22.106363 h 0.66216 V 75.797122 Z M 307.87003,219.21049 v 22.05336 h 0.66218 V 219.21049 Z M 110.52072,74.142399 v 20.451639 h 0.66201 V 74.142399 Z m 216.7138,148.377551 v 22.05351 h 0.66202 V 222.51995 Z M 92.59331,74.142399 v 20.451639 h 0.662013 V 74.142399 Z M 356.28079,219.21049 v 22.05336 h 0.66201 V 219.21049 Z M 74.665896,75.797122 v 22.106363 h 0.662012 V 75.797122 Z M 108.65554,22.847169 v 25.415975 h 0.66201 V 22.847169 Z M 56.738326,79.105792 v 22.107148 h 0.662173 V 79.105792 Z M 385.10925,219.21049 v 22.05336 h 0.66218 v -22.05336 z m 29.04627,0 v 22.05336 h 0.66217 V 219.21049 Z M 255.95141,156.33312 v 22.05337 h 0.66202 v -22.05337 z m 79.11081,-70.608274 v 22.106214 h 0.66217 V 85.724846 Z M 294.71588,42.17382 v 1.059164 H 307.6896 V 42.17382 Z m -196.186951,0 v 1.059164 H 111.50264 V 42.17382 Z m -37.27502,6.618902 v 1.059164 h 12.973559 v -1.059164 z m 37.27502,0 v 1.059164 H 111.50264 V 48.792722 Z M 61.253909,42.17382 v 1.059164 H 74.227468 V 42.17382 Z m 137.082481,69.49627 v 1.05916 h 12.97372 v -1.05916 z m 10.74657,138.99269 v 1.05917 h 12.97371 v -1.05917 z M 342.86318,111.67009 v 1.05916 h 12.97371 v -1.05916 z m 27.99758,0 v 1.05916 h 12.97371 v -1.05916 z M 115.21549,42.17382 v 1.059164 h 12.97372 V 42.17382 Z m 282.53647,69.49627 v 1.05916 h 12.97371 v -1.05916 z M 241.68837,42.17382 v 1.059164 h 12.97372 V 42.17382 Z m 25.02915,0 v 1.059164 h 12.97372 V 42.17382 Z m 4.71205,108.67788 c 0,2.09344 -1.08634,3.2062 -2.62339,4.42543 l 0.0801,-5.16753 c 0.0528,-0.23777 0.44991,-1.00629 1.50984,-1.00629 0.95425,0 1.0335,0.90061 1.0335,1.457 v 0.29139 m -0.31781,-3.04688 c -1.32491,0 -2.09344,0.82136 -2.22553,0.97987 l 0.10568,-8.50581 c 0,-0.21135 -0.15931,-0.37066 -0.37066,-0.37066 h -0.31861 c -0.21135,0 -0.37066,0.15931 -0.37066,0.37066 l 0.13209,15.92528 c 0,0.21215 0.15931,0.37146 0.37146,0.37146 0.0528,0 0.1585,-0.0264 0.21214,-0.0528 2.27836,-1.13998 4.66319,-3.31266 4.66319,-6.04173 0,-1.37774 -0.63564,-2.67623 -2.1991,-2.67623 M 536.59488,94.914257 v -4.346171 l 3.0741,-0.874198 v 4.371789 l -3.0741,0.84858 m 3.6569,-7.419473 c -0.0528,-0.05364 -0.13289,-0.08005 -0.21215,-0.08005 -0.0264,0 -0.0793,0.02642 -0.10567,0.02642 l -3.33908,0.927834 v -4.637571 h -0.74211 V 96.84838 c 0,0.212145 0.15931,0.344235 0.37146,0.344235 h 0.10567 l 3.33908,-0.927034 v 4.636769 h 0.71489 V 87.786184 c 0,-0.106473 -0.0528,-0.238564 -0.13209,-0.2914 m 72.43011,158.472596 a 0.16531304,0.16531304 0 0 0 -0.10507,0.0113 0.16531304,0.16531304 0 0 0 -0.10524,-0.009 0.16531304,0.16531304 0 0 0 -0.002,0.0205 0.16531304,0.16531304 0 0 0 -0.0205,0.002 0.16531304,0.16531304 0 0 0 0.0113,0.10507 0.16531304,0.16531304 0 0 0 -0.009,0.10507 c 2.82472,3.35777 8.41039,5.00218 13.98753,5.00218 5.57715,0 11.16282,-1.64441 13.98753,-5.00218 a 0.16532957,0.16532957 0 0 0 -0.23031,-0.235 c -2.70942,2.18561 -8.23505,3.3179 -13.75722,3.3179 -5.52216,0 -11.04779,-1.13229 -13.75721,-3.3179 z m 1.1672,1.15986 c 3.05035,1.67379 7.81612,2.48858 12.59001,2.48858 4.77376,0 9.53951,-0.81473 12.58986,-2.48842 -2.95075,2.48217 -7.76698,3.74646 -12.58986,3.74646 -4.82296,0 -9.63928,-1.26434 -12.59001,-3.74662 z m -1.27106,-1.03121 c 5.54459,4.47266 22.17757,4.47266 27.72216,0 -5.54459,6.5909 -22.17757,6.5909 -27.72216,0 M 404.45091,208.15856 c -5.57733,0 -11.16327,1.64402 -13.988,5.00139 a 0.16531304,0.16531304 0 0 0 0,0.19342 0.16531304,0.16531304 0 0 0 -0.002,0.0167 0.16531304,0.16531304 0 0 0 0.0147,0.008 0.16531304,0.16531304 0 0 0 0.008,0.0149 0.16531304,0.16531304 0 0 0 0.0463,0.0147 0.16531304,0.16531304 0 0 0 0.0585,0.0185 0.16531304,0.16531304 0 0 0 0.0585,-0.0172 0.16531304,0.16531304 0 0 0 0.0469,-0.0138 c 2.70942,-2.18521 8.23532,-3.31727 13.75769,-3.31727 5.52237,0 11.04827,1.13206 13.75769,3.31727 a 0.16532957,0.16532957 0 0 0 0.23031,-0.23516 c -2.82472,-3.35737 -8.41066,-5.00139 -13.988,-5.00139 z m 0,0.33054 c 4.82324,0 9.63989,1.26425 12.59064,3.74631 -3.05038,-1.67355 -7.81649,-2.48826 -12.59064,-2.48826 -4.77417,0 -9.54025,0.8147 -12.59063,2.48826 2.95075,-2.48206 7.7674,-3.74631 12.59063,-3.74631 z m -13.86146,4.77728 c 5.54459,-6.59011 22.17836,-6.59011 27.72295,0 -5.54459,-4.47186 -22.17836,-4.47186 -27.72295,0 M 588.95941,80.193568 c -5.14111,0 -10.28552,1.271069 -12.90085,3.891725 a 0.16531304,0.16531304 0 0 0 0,0.01829 0.16531304,0.16531304 0 0 0 -0.025,0.183093 0.16531304,0.16531304 0 0 0 0.0252,0.0064 0.16531304,0.16531304 0 0 0 0,0.02611 0.16531304,0.16531304 0 0 0 0.18372,0.02049 0.16531304,0.16531304 0 0 0 0.0177,0.0046 c 2.49453,-1.484295 7.60221,-2.258888 12.69931,-2.258888 5.0971,0 10.20495,0.774593 12.69947,2.258888 a 0.16532957,0.16532957 0 0 0 0.20154,-0.258921 c -2.61533,-2.620656 -7.7599,-3.891725 -12.90101,-3.891725 z m 0,0.33069 c 4.47613,0 8.94757,1.001061 11.65923,2.947648 -2.81086,-1.156783 -7.22719,-1.71727 -11.65923,-1.71727 -4.4322,0 -8.84853,0.560551 -11.65937,1.717422 2.71164,-1.946667 7.18315,-2.9478 11.65937,-2.9478 z m -12.78387,3.677875 c 5.1139,-5.124304 20.45399,-5.124304 25.56788,0 -5.11389,-3.042881 -20.45398,-3.042881 -25.56788,0 M 377.75688,116.86708 a 0.16531304,0.16531304 0 0 0 -0.0428,0.0222 0.16531304,0.16531304 0 0 0 -0.0463,0.0135 0.16531304,0.16531304 0 0 0 -0.008,0.0147 0.16531304,0.16531304 0 0 0 -0.015,0.008 0.16531304,0.16531304 0 0 0 -0.0147,0.0463 0.16531304,0.16531304 0 0 0 -0.0185,0.0582 0.16531304,0.16531304 0 0 0 0.0174,0.0594 0.16531304,0.16531304 0 0 0 0.0133,0.046 c 2.60696,3.25595 7.76466,4.85144 12.91258,4.85144 5.1479,0 10.30561,-1.59549 12.91257,-4.85144 a 0.16532957,0.16532957 0 0 0 -0.23563,-0.22969 c -2.49423,2.09981 -7.58665,3.18953 -12.67694,3.18953 -5.09031,0 -10.18288,-1.08972 -12.67711,-3.18953 a 0.16531304,0.16531304 0 0 0 -0.0458,-0.0145 0.16531304,0.16531304 0 0 0 -0.0589,-0.0188 0.16531304,0.16531304 0 0 0 -0.0159,-0.005 z m 1.23413,1.19253 c 2.8188,1.59163 7.18755,2.36584 11.56369,2.36584 4.37612,0 8.74473,-0.77421 11.56353,-2.36584 -2.72159,2.38256 -7.13811,3.59637 -11.56353,3.59637 -4.42543,0 -8.84211,-1.21381 -11.56369,-3.59637 z m -1.21993,-1.02783 c 5.1131,4.30454 20.45399,4.30454 25.56709,0 -5.1131,6.38597 -20.45399,6.38597 -25.56709,0 m -3.07754,52.78448 a 0.16531304,0.16531304 0 0 0 -0.11586,0.051 0.16531304,0.16531304 0 0 0 8e-4,0.0256 0.16531304,0.16531304 0 0 0 -0.0249,0.007 0.16531304,0.16531304 0 0 0 0.0289,0.18294 0.16531304,0.16531304 0 0 0 0,0.0183 c 2.77869,2.66332 8.24517,3.9552 13.70969,3.9552 5.46453,0 10.93101,-1.29188 13.70969,-3.9552 a 0.16532957,0.16532957 0 0 0 -0.19607,-0.26299 c -2.6573,1.5123 -8.09118,2.29954 -13.51362,2.29954 -5.42244,0 -10.85616,-0.78724 -13.51346,-2.29954 a 0.16531304,0.16531304 0 0 0 -0.0174,0.005 0.16531304,0.16531304 0 0 0 -0.0679,-0.0264 z m 1.17142,0.89435 c 2.98411,1.18366 7.69832,1.75746 12.42725,1.75746 4.72892,0 9.44329,-0.5738 12.42741,-1.75746 -2.88425,1.99076 -7.65367,3.01488 -12.42741,3.01488 -4.77374,0 -9.543,-1.02412 -12.42725,-3.01488 z m -1.16798,-0.72903 c 5.43812,3.09492 21.75248,3.09492 27.19059,0 -5.43811,5.21237 -21.75247,5.21237 -27.19059,0 M 181.89077,151.79127 c -5.47244,0 -10.95456,1.68235 -13.72439,5.11272 a 0.16531304,0.16531304 0 0 0 0.004,0.19419 0.16531304,0.16531304 0 0 0 -0.001,0.0167 0.16531304,0.16531304 0 0 0 0.0145,0.007 0.16531304,0.16531304 0 0 0 0.008,0.0142 0.16531304,0.16531304 0 0 0 0.0469,0.0139 0.16531304,0.16531304 0 0 0 0.0588,0.0174 0.16531304,0.16531304 0 0 0 0.0586,-0.0189 0.16531304,0.16531304 0 0 0 0.0464,-0.0149 c 2.65689,-2.25598 8.07384,-3.4239 13.48876,-3.4239 5.41492,0 10.83187,1.16792 13.48875,3.4239 a 0.16532957,0.16532957 0 0 0 0.23548,-0.23 c -2.76982,-3.43037 -8.25179,-5.11271 -13.72423,-5.11271 z m 0,0.3307 c 4.7197,0 9.43129,1.28589 12.32671,3.81276 -2.99396,-1.71808 -7.65671,-2.55534 -12.32671,-2.55534 -4.67024,0 -9.33324,0.83738 -12.32718,2.55565 2.89539,-2.52705 7.60729,-3.81307 12.32718,-3.81307 z m -13.59571,4.88594 c 5.43811,-6.735 21.75327,-6.735 27.19139,0 -5.43812,-4.61755 -21.75328,-4.61755 -27.19139,0 M 317.91878,38.569324 a 0.16532957,0.16532957 0 0 0 -0.18919,0.120082 c -0.85727,3.229 -3.3486,6.083167 -6.44644,7.926355 -3.09785,1.843197 -6.79468,2.670955 -10.0414,1.883792 a 0.16531304,0.16531304 0 0 0 -0.0915,0.05582 0.16531304,0.16531304 0 0 0 -0.0999,0.04065 0.16531304,0.16531304 0 0 0 0.007,0.01626 0.16531304,0.16531304 0 0 0 -0.0149,0.0091 0.16531304,0.16531304 0 0 0 0.056,0.09193 0.16531304,0.16531304 0 0 0 0.0405,0.09928 c 7.63576,3.219074 16.10041,-1.817418 16.91531,-10.064537 a 0.16532957,0.16532957 0 0 0 -0.13509,-0.178714 z m -0.50613,1.923819 c -1.59216,6.38282 -8.06693,10.235006 -14.43534,8.588368 2.85728,0.20101 5.87334,-0.633761 8.47486,-2.181643 2.60132,-1.547763 4.77383,-3.799927 5.96048,-6.406725 z m -16.20992,8.167088 c 6.60051,1.600295 14.94382,-3.3639 16.68661,-9.928388 -0.80455,8.142367 -9.14785,13.106561 -16.68661,9.928388 M 269.98631,137.1952 c -0.22833,-0.007 -0.45642,-0.003 -0.68406,0.0102 -3.6421,0.21545 -7.10733,3.00536 -9.20097,8.22516 a 0.16531304,0.16531304 0 0 0 0.004,0.009 0.16531304,0.16531304 0 0 0 0.0757,0.2003 0.16531304,0.16531304 0 0 0 0.0103,8e-4 0.16531304,0.16531304 0 0 0 0.002,0.005 0.16531304,0.16531304 0 0 0 0.009,-0.004 0.16531304,0.16531304 0 0 0 0.20013,-0.0757 c 2.11019,-4.22909 5.499,-6.46024 8.9996,-6.66721 3.50058,-0.20698 7.1293,1.60916 9.72414,5.55849 a 0.16532957,0.16532957 0 0 0 0.28332,-0.16997 c -2.52656,-4.62699 -5.99823,-6.99199 -9.42332,-7.09203 z m -0.009,0.33038 c 2.57339,0.075 5.19738,1.48889 7.41053,4.28715 -2.37226,-2.3284 -5.22195,-3.40864 -8.005,-3.2441 -2.78237,0.16452 -5.48424,1.57242 -7.56471,4.16363 2.02618,-3.2975 4.72526,-5.03248 7.50373,-5.19683 0.21791,-0.0129 0.43649,-0.0162 0.65545,-0.01 z m -9.72252,7.96646 c 4.15564,-10.36068 13.66054,-10.92187 19.0098,-1.12557 -5.24198,-7.97825 -14.74688,-7.41787 -19.0098,1.12557 m 218.71885,-1.10505 c -4.97063,-8e-4 -9.78565,2.9715 -11.71753,8.12868 a 0.16531304,0.16531304 0 0 0 0.0686,0.18654 0.16531304,0.16531304 0 0 0 0.004,0.015 0.16531304,0.16531304 0 0 0 0.0139,0.002 0.16531304,0.16531304 0 0 0 0.0102,0.01 0.16531304,0.16531304 0 0 0 0.0141,-0.006 0.16531304,0.16531304 0 0 0 0.18731,-0.0663 c 1.68303,-2.94304 4.87845,-5.10611 8.40857,-6.12622 3.53011,-1.02012 7.38677,-0.89493 10.38022,0.69672 a 0.16532957,0.16532957 0 0 0 0.17762,-0.27753 c -2.29699,-1.74518 -4.94337,-2.56135 -7.54704,-2.56175 z m -0.69312,0.34492 c 2.19954,-0.12387 4.45609,0.35388 6.52102,1.49556 -2.7655,-0.92639 -5.9601,-0.87385 -8.93048,-0.0155 -2.97036,0.85835 -5.70041,2.51786 -7.54547,4.77654 2.08675,-3.79172 5.92025,-6.02938 9.95493,-6.25662 z m -10.86969,7.84177 c 2.90679,-7.7597 12.41169,-10.50638 19.0098,-5.49335 -6.08416,-3.23502 -15.58906,-0.48834 -19.0098,5.49335 M 89.058237,101.48234 a 0.16532957,0.16532957 0 0 0 -0.225154,0.0145 c -3.837039,4.08725 -10.227549,6.97128 -16.92376,8.20732 -6.696211,1.23605 -13.695092,0.82361 -18.738436,-1.6247 a 0.16531304,0.16531304 0 0 0 -0.102574,0.0355 0.16531304,0.16531304 0 0 0 -0.107258,0.0216 0.16531304,0.16531304 0 0 0 0.003,0.0145 0.16531304,0.16531304 0 0 0 -0.01407,0.005 0.16531304,0.16531304 0 0 0 0.03581,0.10304 0.16531304,0.16531304 0 0 0 0.02142,0.10679 c 5.328675,3.5433 12.492565,4.4732 19.250346,3.2258 6.757781,-1.24741 13.117854,-4.67368 16.830729,-9.88567 a 0.16532957,0.16532957 0 0 0 -0.03002,-0.22359 z m -1.73822,1.88254 c -3.738741,4.09165 -9.276428,6.82253 -15.122529,7.90165 -5.846021,1.07911 -11.993392,0.50523 -16.946275,-1.98214 4.85018,1.66291 10.896571,1.81948 16.718151,0.74489 5.821637,-1.07461 11.413681,-3.37962 15.350653,-6.6644 z m -34.221324,4.86328 c 10.181362,4.94258 28.108816,1.63312 35.854913,-6.61812 -7.361834,10.33426 -25.289288,13.64372 -35.854913,6.61812 m 243.031127,98.96428 c -1.37047,-0.005 -2.74756,0.0726 -4.11548,0.22922 -7.2955,0.83546 -14.33576,3.93606 -18.69559,9.04774 a 0.16531304,0.16531304 0 0 0 0.004,0.20436 0.16531304,0.16531304 0 0 0 -8e-4,0.0138 0.16531304,0.16531304 0 0 0 0.008,8e-4 0.16531304,0.16531304 0 0 0 0.007,0.0144 0.16531304,0.16531304 0 0 0 0.10881,-0.009 0.16531304,0.16531304 0 0 0 0.10945,0.005 c 4.40596,-3.98298 11.4418,-6.54271 18.67715,-7.37128 7.23536,-0.82859 14.66769,0.0743 19.85968,2.95811 a 0.16532957,0.16532957 0 0 0 0.17856,-0.27738 c -4.38935,-3.24495 -10.20235,-4.79662 -16.14104,-4.81626 z m -0.002,0.33132 c 4.97537,0.0175 9.85597,1.12137 13.85557,3.39403 -5.04503,-2.06351 -11.48988,-2.63952 -17.78872,-1.91818 -6.29896,0.72134 -12.44696,2.73941 -16.89515,5.89012 4.30501,-3.96853 10.4284,-6.41539 16.75208,-7.13957 1.35514,-0.15519 2.71921,-0.23118 4.07622,-0.2264 z m -22.68367,9.05288 c 8.64831,-10.13973 28.01195,-12.35725 38.72808,-4.43503 -10.47516,-5.81838 -29.8388,-3.60086 -38.72808,4.43503 M 106.8862,101.44482 a 0.16531304,0.16531304 0 0 0 -0.0872,0.033 0.16531304,0.16531304 0 0 0 -0.0138,-0.002 0.16531304,0.16531304 0 0 0 -0.006,0.01 0.16531304,0.16531304 0 0 0 -0.0111,0.004 0.16531304,0.16531304 0 0 0 -8e-4,0.0142 0.16531304,0.16531304 0 0 0 -0.0209,0.20217 c 3.71247,5.212 10.07233,8.63826 16.8301,9.88567 6.75778,1.2474 13.9219,0.31749 19.25098,-3.2258 a 0.16532957,0.16532957 0 0 0 -0.16371,-0.28629 c -5.04335,2.44831 -12.04222,2.86075 -18.73843,1.6247 -6.69621,-1.23604 -13.08673,-4.12007 -16.92377,-8.20732 a 0.16531304,0.16531304 0 0 0 -0.11539,-0.0521 z m 1.62768,1.91959 c 3.937,3.28509 9.52946,5.5902 15.35144,6.66487 5.82133,1.07455 11.86745,0.91798 16.71752,-0.74472 -4.95312,2.48718 -11.10043,3.06105 -16.94628,1.98197 -5.84637,-1.07917 -11.38424,-3.81016 -15.12268,-7.90212 z m -1.63282,-1.75437 c 7.7461,8.25124 25.67356,11.5607 35.85492,6.61812 -10.56643,7.0256 -28.49388,3.71614 -35.85492,-6.61812 m 533.72414,49.63742 c -3.32684,0.12471 -6.50993,2.46968 -7.06749,6.26632 a 0.16531304,0.16531304 0 0 0 0.10882,0.16933 0.16531304,0.16531304 0 0 0 0.007,0.013 0.16531304,0.16531304 0 0 0 0.008,-0.004 0.16531304,0.16531304 0 0 0 0.0158,0.01 0.16531304,0.16531304 0 0 0 0.0868,-0.0644 0.16531304,0.16531304 0 0 0 0.0955,-0.0513 c 0.6479,-2.14653 2.79339,-3.80764 5.23249,-4.56328 2.43909,-0.75564 5.14793,-0.59847 6.8958,0.80571 a 0.16532957,0.16532957 0 0 0 0.22484,-0.2411 c -1.56353,-1.68987 -3.61132,-2.4144 -5.60742,-2.33957 z m 0.005,0.31897 c 1.37556,-0.0503 2.77169,0.31454 4.00868,1.12123 -1.69457,-0.6299 -3.74262,-0.56398 -5.62415,0.0189 -1.8814,0.58286 -3.60805,1.68624 -4.64975,3.16372 1.08572,-2.62515 3.61931,-4.20723 6.26522,-4.30388 z m -6.90848,5.97145 c 0.87339,-5.94727 8.30808,-8.25045 12.39007,-3.83863 -3.61527,-2.90438 -11.04996,-0.60121 -12.39007,3.83863 M 484.336,108.08467 a 0.16532957,0.16532957 0 0 0 -0.21827,0.0503 c -1.79261,2.6291 -4.9063,4.36288 -8.23126,4.97668 -3.32494,0.6138 -6.8524,0.10606 -9.46537,-1.70976 a 0.16531304,0.16531304 0 0 0 -0.19764,0.0205 0.16531304,0.16531304 0 0 0 -0.0155,0 0.16531304,0.16531304 0 0 0 0,0.01 0.16531304,0.16531304 0 0 0 -0.017,0.0109 0.16531304,0.16531304 0 0 0 0.0205,0.19764 0.16531304,0.16531304 0 0 0 0,0.0156 c 5.71559,5.52577 14.82492,3.84406 18.19212,-3.3584 a 0.16532957,0.16532957 0 0 0 -0.068,-0.21342 z m -1.11013,1.62815 c -3.45169,5.18286 -10.3353,6.45345 -15.40898,2.84412 2.44831,1.12949 5.35644,1.39192 8.12963,0.87998 2.77296,-0.51189 5.3956,-1.79518 7.27935,-3.7241 z m -16.89904,1.8248 c 5.31644,3.69453 14.28017,2.0398 17.92746,-3.30946 -3.32307,7.10806 -12.2868,8.76279 -17.92746,3.30946 M 138.41761,38.569324 a 0.16532957,0.16532957 0 0 0 -0.18919,0.120082 c -0.85687,3.228992 -3.34792,6.083167 -6.44566,7.926355 -3.09774,1.843197 -6.79468,2.670955 -10.0414,1.883792 a 0.16531304,0.16531304 0 0 0 -0.0131,0.008 0.16531304,0.16531304 0 0 0 -0.1781,0.0885 0.16531304,0.16531304 0 0 0 0,0.02033 0.16531304,0.16531304 0 0 0 -0.008,0.005 0.16531304,0.16531304 0 0 0 0.008,0.01329 0.16531304,0.16531304 0 0 0 0.0883,0.177929 C 129.27423,52.031676 137.7389,46.9952 138.553,38.748065 a 0.16532957,0.16532957 0 0 0 -0.1351,-0.178714 z m -0.50613,1.924444 c -1.59186,6.382468 -8.06634,10.234365 -14.43456,8.587743 2.85731,0.201034 5.87339,-0.633745 8.47486,-2.181643 2.60102,-1.547635 4.77326,-3.799566 5.9597,-6.4061 z m -16.20908,8.166463 c 6.60051,1.600295 14.94382,-3.3639 16.68581,-9.928388 -0.80375,8.142367 -9.14706,13.106561 -16.68581,9.928388 M 497.76346,220.71887 c -0.64918,0.012 -1.28623,0.11169 -1.89817,0.29598 -2.44775,0.73717 -4.48389,2.82297 -5.29784,5.978 a 0.16531304,0.16531304 0 0 0 0.0544,0.0923 0.16531304,0.16531304 0 0 0 0.0391,0.10038 0.16531304,0.16531304 0 0 0 0.0205,8e-4 0.16531304,0.16531304 0 0 0 0.005,0.008 0.16531304,0.16531304 0 0 0 0.0502,-0.007 0.16531304,0.16531304 0 0 0 0.0611,-0.009 0.16531304,0.16531304 0 0 0 0.0444,-0.0425 0.16531304,0.16531304 0 0 0 0.0369,-0.0353 c 2.0184,-4.59157 8.28523,-6.4796 12.50464,-3.76617 a 0.16532957,0.16532957 0 0 0 0.20013,-0.2619 c -1.81584,-1.63542 -3.87267,-2.38977 -5.82023,-2.3538 z m 0.007,0.32945 c 1.36578,-0.0262 2.78937,0.37176 4.14846,1.20488 -3.66519,-1.31609 -8.08826,0.0162 -10.41666,3.13714 0.97816,-2.10075 2.59066,-3.49644 4.45821,-4.05886 0.58293,-0.17556 1.19025,-0.27127 1.80999,-0.28316 z m -7.04315,5.98587 c 1.60349,-6.21545 7.97585,-8.13436 12.74551,-3.83862 -4.31095,-2.7723 -10.6833,-0.85258 -12.74551,3.83862 M 171.85641,37.472013 a 0.16532957,0.16532957 0 0 0 -0.22218,0.0294 c -1.90298,2.291663 -4.91523,3.584812 -8.00533,3.793058 -3.09008,0.208246 -6.24876,-0.668953 -8.44217,-2.684331 a 0.16531304,0.16531304 0 0 0 -0.0482,-0.01767 0.16531304,0.16531304 0 0 0 -0.0574,-0.02095 0.16531304,0.16531304 0 0 0 -0.0594,0.01657 0.16531304,0.16531304 0 0 0 -0.0491,0.01376 0.16531304,0.16531304 0 0 0 -0.007,0.01219 0.16531304,0.16531304 0 0 0 -0.0127,0.0059 0.16531304,0.16531304 0 0 0 -0.0174,0.04754 0.16531304,0.16531304 0 0 0 -0.0214,0.05832 0.16531304,0.16531304 0 0 0 0.0166,0.05879 0.16531304,0.16531304 0 0 0 0.0139,0.04941 c 2.32368,2.955132 5.61124,4.297818 8.79367,4.083256 3.18242,-0.214563 6.25972,-1.986359 8.16542,-5.226382 a 0.16532957,0.16532957 0 0 0 -0.0475,-0.218902 z m -1.30809,1.543864 c -1.82805,2.189105 -4.29039,3.400141 -6.83216,3.571506 -2.54195,0.171381 -5.14479,-0.698261 -7.25043,-2.622569 2.09314,1.282621 4.66025,1.829739 7.18538,1.659567 2.52502,-0.170165 4.99526,-1.056643 6.89721,-2.608504 z m -15.4735,-0.284034 c 4.46785,4.105207 12.81036,3.543222 16.68661,-1.124769 -3.75938,6.39157 -12.10268,6.954355 -16.68661,1.124769 M 505.73251,9.9525714 c -3.18242,0 -6.36467,1.5592606 -8.47939,4.6605296 a 0.16531304,0.16531304 0 0 0 0.02,0.105385 0.16531304,0.16531304 0 0 0 0.003,0.107574 0.16531304,0.16531304 0 0 0 0.0175,-4.81e-4 0.16531304,0.16531304 0 0 0 0.003,0.0172 0.16531304,0.16531304 0 0 0 0.10538,-0.02001 0.16531304,0.16531304 0 0 0 0.10757,-0.0027 c 2.04793,-2.155766 5.1331,-3.24206 8.22297,-3.24206 3.08987,0 6.1752,1.086294 8.22313,3.24206 a 0.16532957,0.16532957 0 0 0 0.25642,-0.207017 c -2.11473,-3.101269 -5.29713,-4.66053 -8.47955,-4.66053 z m 0,0.3306946 c 2.5408,0 5.07238,1.040945 7.03887,3.098838 -1.9971,-1.417663 -4.5148,-2.134741 -7.03887,-2.134741 -2.52394,0 -5.04151,0.716916 -7.03856,2.134428 1.96646,-2.057731 4.49785,-3.098525 7.03856,-3.098525 z m -8.34284,4.422949 c 4.17166,-6.1177827 12.51416,-6.1177827 16.68581,0 -4.17165,-4.391322 -12.51415,-4.391322 -16.68581,0 M 68.136591,212.4737 c -5.503939,-0.0694 -10.886747,1.19065 -15.12832,3.96459 a 0.16531304,0.16531304 0 0 0 -0.03017,0.0441 0.16531304,0.16531304 0 0 0 -0.03487,0.051 0.16531304,0.16531304 0 0 0 0.0036,0.0622 0.16531304,0.16531304 0 0 0 0.003,0.053 0.16531304,0.16531304 0 0 0 0.0075,0.003 0.16531304,0.16531304 0 0 0 0.003,0.016 0.16531304,0.16531304 0 0 0 0.107265,0.0224 0.16531304,0.16531304 0 0 0 0.103038,0.036 c 5.384002,-2.60193 12.913502,-3.09103 20.149249,-1.8544 7.235737,1.23664 14.17541,4.19857 18.389595,8.44093 a 0.16532957,0.16532957 0 0 0 0.24861,-0.21687 c -4.106176,-5.36687 -11.019927,-8.86902 -18.315016,-10.11582 -1.823775,-0.3117 -3.671782,-0.48253 -5.506421,-0.50565 z m -0.0033,0.33148 c 1.816498,0.0225 3.647086,0.1912 5.454041,0.50003 6.324677,1.08094 12.35306,3.87747 16.467353,8.09694 -4.302318,-3.41063 -10.378894,-5.78014 -16.679057,-6.85688 -6.299884,-1.07669 -12.818413,-0.85996 -18.009186,0.92798 3.772788,-1.86661 8.225624,-2.7243 12.766849,-2.66807 z m -15.034616,3.77146 c 11.218871,-7.33701 30.582508,-4.02755 38.728077,6.61893 -8.501813,-8.55865 -27.86625,-11.86812 -38.728077,-6.61893 M 483.62192,9.2458378 V 36.448658 h 1.19113 V 9.2458378 Z m -280.94334,0 V 36.448658 h 1.19113 V 9.2458378 Z M 246.48697,148.23869 v 27.20266 h 1.19112 V 148.23869 Z M 679.80887,78.742416 V 105.94493 H 681 V 78.742416 Z M 360.5065,148.23869 v 27.20266 h 1.19112 V 148.23869 Z M 653.00407,95.653163 c 0,-0.768526 -0.61001,-1.404961 -1.37854,-1.404961 -0.76852,0 -1.37774,0.636435 -1.37774,1.404961 0,0.768525 0.60922,1.40416 1.37774,1.40416 0.76853,0 1.37854,-0.635635 1.37854,-1.40416 m 0,-6.618926 c 0,-0.768526 -0.61001,-1.40416 -1.37854,-1.40416 -0.76852,0 -1.37774,0.635634 -1.37774,1.40416 0,0.768525 0.60922,1.40416 1.37774,1.40416 0.76853,0 1.37854,-0.635635 1.37854,-1.40416 m -6.39633,-10.291821 v 27.202514 h 1.19113 V 78.742416 Z m -6.08854,0 v 27.202514 h 3.63999 V 78.742416 Z M 453.64299,148.23869 v 27.20266 h 1.19112 V 148.23869 Z M 640.5192,78.742416 v 27.202514 h 3.63999 V 78.742416 Z m -3.64062,0 v 27.202514 h 1.19129 V 78.742416 Z m -2.44721,16.910747 c 0,-0.768526 -0.60921,-1.404961 -1.37774,-1.404961 -0.76852,0 -1.37774,0.636435 -1.37774,1.404961 0,0.768525 0.60922,1.40416 1.37774,1.40416 0.76853,0 1.37774,-0.635635 1.37774,-1.40416 m 0,-6.618926 c 0,-0.768526 -0.60921,-1.40416 -1.37774,-1.40416 -0.76852,0 -1.37774,0.635634 -1.37774,1.40416 0,0.768525 0.60922,1.40416 1.37774,1.40416 0.76853,0 1.37774,-0.635635 1.37774,-1.40416 m -57.26393,59.204453 v 27.20266 h 1.19113 V 148.23869 Z M 561.23092,78.742416 v 27.202514 h 1.19129 V 78.742416 Z m 118.57795,69.496274 v 27.20266 H 681 V 148.23869 Z M 287.43496,9.2458378 V 36.448658 h 1.19113 V 9.2458378 Z M 164.98077,217.73511 v 27.20251 h 1.19128 V 217.73511 Z M 452.55896,78.742416 v 27.202514 h 1.19129 V 78.742416 Z M 259.67755,217.73511 v 27.20251 h 1.19113 V 217.73511 Z M 363.58062,78.742416 v 27.202514 h 1.19114 V 78.742416 Z m 12.06419,138.992694 v 27.20251 h 1.19128 V 217.73511 Z M 245.94488,78.742416 v 27.202514 h 1.19128 V 78.742416 Z M 91.248791,9.2458378 V 36.448658 h 1.191127 V 9.2458378 Z M 156.96654,78.742416 v 27.202514 h 1.19113 V 78.742416 Z M 470.34081,217.73511 v 27.20251 h 1.19113 V 217.73511 Z M 679.80887,9.2458378 V 36.448658 H 681 V 9.2458378 Z M 598.38758,217.73511 v 27.20251 h 1.19112 V 217.73511 Z M 595.05171,9.2458378 V 36.448658 h 1.19112 V 9.2458378 Z m -196.18618,0 V 36.448658 h 1.19113 V 9.2458378 Z M 677.35954,217.73511 v 27.20251 h 3.64015 v -27.20251 z m -3.63967,0 v 27.20251 H 674.911 V 217.73511 Z M 153.35048,148.23869 v 27.20266 h 1.19112 V 148.23869 Z M 0,244.20947 v 0.72784 h 681 v -0.72784 z m 0,-6.61813 v 0.72784 h 681 v -0.72784 z m 0,-6.61889 v 0.72768 h 681 v -0.72768 z m 0,-6.6189 v 0.72768 h 681 v -0.72768 z m 0,-6.61891 v 0.72769 h 681 v -0.72769 z M 0,174.7132 v 0.72768 h 681 v -0.72768 z m 0,-6.61812 v 0.72768 h 681 v -0.72768 z m 0,-6.6189 v 0.72768 h 681 v -0.72768 z m 0,-6.6189 v 0.72768 h 681 v -0.72768 z m 0,-6.61891 v 0.72769 h 681 v -0.72769 z m 0,-43.02144 v 0.72769 h 681 v -0.72769 z m 0,-6.618121 v 0.727681 h 681 v -0.727681 z m 0,-6.618902 v 0.727682 h 681 v -0.727682 z m 0,-6.619054 v 0.727842 h 681 v -0.727842 z m 0,-6.618901 v 0.727681 H 681 V 78.741952 Z M 0,35.720656 v 0.727689 h 681 v -0.727689 z m 0,-6.618269 v 0.727841 h 681 v -0.727841 z m 0,-6.61906 v 0.727685 h 681 v -0.727685 z m 0,-6.618588 v 0.727684 H 681 V 15.864739 Z M 0,9.2459947 V 9.9736795 H 681 V 9.2459947 Z"
     style="stroke-width:0.0800547" />
  <metadata
     id="metadata314">
    <rdf:RDF>
      <cc:Work
         rdf:about="">
        <dc:title>air_XI</dc:title>
      </cc:Work>
    </rdf:RDF>
  </metadata>
</svg>
