<?xml version="1.0" encoding="UTF-8" standalone="no"?>
<svg width="210.058mm" height="296.926mm" viewBox="0 0 9924 14028"
 xmlns="http://www.w3.org/2000/svg" xmlns:xlink="http://www.w3.org/1999/xlink" version="1.2" baseProfile="full">
<title>air_XXXI</title>
<desc>Generated by MuseScore Studio 4.7.3</desc>
<polyline class="StaffLines" fill="none" stroke="#000000" stroke-width="9.09" stroke-linejoin="bevel" points="708.661,828.424 9215.34,828.424" />
<polyline class="StaffLines" fill="none" stroke="#000000" stroke-width="9.09" stroke-linejoin="bevel" points="708.661,911.101 9215.34,911.101" />
<polyline class="StaffLines" fill="none" stroke="#000000" stroke-width="9.09" stroke-linejoin="bevel" points="708.661,993.778 9215.34,993.778" />
<polyline class="StaffLines" fill="none" stroke="#000000" stroke-width="9.09" stroke-linejoin="bevel" points="708.661,1076.46 9215.34,1076.46" />
<polyline class="StaffLines" fill="none" stroke="#000000" stroke-width="9.09" stroke-linejoin="bevel" points="708.661,1159.13 9215.34,1159.13" />
<polyline class="StaffLines" fill="none" stroke="#000000" stroke-width="9.09" stroke-linejoin="bevel" points="708.661,1696.53 9215.34,1696.53" />
<polyline class="StaffLines" fill="none" stroke="#000000" stroke-width="9.09" stroke-linejoin="bevel" points="708.661,1779.21 9215.34,1779.21" />
<polyline class="StaffLines" fill="none" stroke="#000000" stroke-width="9.09" stroke-linejoin="bevel" points="708.661,1861.89 9215.34,1861.89" />
<polyline class="StaffLines" fill="none" stroke="#000000" stroke-width="9.09" stroke-linejoin="bevel" points="708.661,1944.57 9215.34,1944.57" />
<polyline class="StaffLines" fill="none" stroke="#000000" stroke-width="9.09" stroke-linejoin="bevel" points="708.661,2027.24 9215.34,2027.24" />
<polyline class="BarLine" fill="none" stroke="#000000" stroke-width="14.88" stroke-linejoin="bevel" points="3379.77,823.876 3379.77,1163.68" />
<polyline class="BarLine" fill="none" stroke="#000000" stroke-width="14.88" stroke-linejoin="bevel" points="7478.59,1691.99 7478.59,2031.79" />
<polyline class="BarLine" fill="none" stroke="#000000" stroke-width="14.88" stroke-linejoin="bevel" points="6144.71,1691.99 6144.71,2031.79" />
<polyline class="BarLine" fill="none" stroke="#000000" stroke-width="14.88" stroke-linejoin="bevel" points="4608.22,1691.99 4608.22,2031.79" />
<polyline class="BarLine" fill="none" stroke="#000000" stroke-width="14.88" stroke-linejoin="bevel" points="2817.35,1691.99 2817.35,2031.79" />
<polyline class="BarLine" fill="none" stroke="#000000" stroke-width="14.88" stroke-linejoin="bevel" points="9207.9,823.876 9207.9,1163.68" />
<polyline class="BarLine" fill="none" stroke="#000000" stroke-width="14.88" stroke-linejoin="bevel" points="1795.11,823.876 1795.11,1163.68" />
<path class="BarLine" d="M9093.83,1820.55 C9093.83,1810.95 9086.22,1803.01 9076.62,1803.01 C9067.02,1803.01 9059.41,1810.95 9059.41,1820.55 C9059.41,1830.15 9067.02,1838.09 9076.62,1838.09 C9086.22,1838.09 9093.83,1830.15 9093.83,1820.55"/>
<path class="BarLine" d="M9093.83,1903.23 C9093.83,1893.63 9086.22,1885.68 9076.62,1885.68 C9067.02,1885.68 9059.41,1893.63 9059.41,1903.23 C9059.41,1912.83 9067.02,1920.77 9076.62,1920.77 C9086.22,1920.77 9093.83,1912.83 9093.83,1903.23"/>
<polyline class="BarLine" fill="none" stroke="#000000" stroke-width="14.88" stroke-linejoin="bevel" points="9131.84,1691.99 9131.84,2031.79" />
<polyline class="BarLine" fill="none" stroke="#000000" stroke-width="45.47" stroke-linejoin="bevel" points="9192.6,1691.99 9192.6,2031.79" />
<polyline class="BarLine" fill="none" stroke="#000000" stroke-width="45.47" stroke-linejoin="bevel" points="7616.73,823.876 7616.73,1163.68" />
<polyline class="BarLine" fill="none" stroke="#000000" stroke-width="14.88" stroke-linejoin="bevel" points="7677.5,823.876 7677.5,1163.68" />
<path class="BarLine" d="M7749.95,952.439 C7749.95,942.84 7742.34,934.896 7732.74,934.896 C7723.14,934.896 7715.53,942.84 7715.53,952.439 C7715.53,962.038 7723.14,969.982 7732.74,969.982 C7742.34,969.982 7749.95,962.038 7749.95,952.439"/>
<path class="BarLine" d="M7749.95,1035.12 C7749.95,1025.52 7742.34,1017.57 7732.74,1017.57 C7723.14,1017.57 7715.53,1025.52 7715.53,1035.12 C7715.53,1044.72 7723.14,1052.66 7732.74,1052.66 C7742.34,1052.66 7749.95,1044.72 7749.95,1035.12"/>
<path class="BarLine" d="M7517.96,952.439 C7517.96,942.84 7510.35,934.896 7500.75,934.896 C7491.15,934.896 7483.53,942.84 7483.53,952.439 C7483.53,962.038 7491.15,969.982 7500.75,969.982 C7510.35,969.982 7517.96,962.038 7517.96,952.439"/>
<path class="BarLine" d="M7517.96,1035.12 C7517.96,1025.52 7510.35,1017.57 7500.75,1017.57 C7491.15,1017.57 7483.53,1025.52 7483.53,1035.12 C7483.53,1044.72 7491.15,1052.66 7500.75,1052.66 C7510.35,1052.66 7517.96,1044.72 7517.96,1035.12"/>
<polyline class="BarLine" fill="none" stroke="#000000" stroke-width="14.88" stroke-linejoin="bevel" points="7555.96,823.876 7555.96,1163.68" />
<polyline class="BarLine" fill="none" stroke="#000000" stroke-width="45.47" stroke-linejoin="bevel" points="7616.73,823.876 7616.73,1163.68" />
<polyline class="BarLine" fill="none" stroke="#000000" stroke-width="14.88" stroke-linejoin="bevel" points="6193.96,823.876 6193.96,1163.68" />
<polyline class="BarLine" fill="none" stroke="#000000" stroke-width="14.88" stroke-linejoin="bevel" points="4728.55,823.876 4728.55,1163.68" />
<path class="Accidental" d="M2904.35,1920.07 L2933.81,1914.11 L2933.81,1968.73 L2904.35,1975.02 L2904.35,1920.07 M2955.66,1909.81 C2957.64,1909.48 2959.3,1907.16 2959.3,1905.18 L2959.3,1885.65 C2959.3,1883 2957.31,1881.01 2954.67,1881.01 L2954,1881.01 L2943.08,1883.33 L2943.08,1834.01 L2933.81,1834.01 L2933.81,1885.32 L2904.35,1891.27 L2904.35,1844.6 L2895.09,1844.6 L2895.09,1893.26 L2882.18,1895.91 C2880.19,1896.24 2878.54,1898.56 2878.54,1900.54 L2878.54,1919.74 C2878.54,1922.39 2880.52,1924.37 2883.17,1924.37 L2884.16,1924.37 L2895.09,1922.06 L2895.09,1976.67 L2882.18,1979.32 C2880.19,1979.65 2878.54,1981.97 2878.54,1983.95 L2878.54,2003.15 C2878.54,2005.8 2880.52,2007.79 2883.17,2007.79 L2884.16,2007.79 L2895.09,2005.47 L2895.09,2054.79 L2904.35,2054.79 L2904.35,2003.48 L2933.81,1997.53 L2933.81,2044.2 L2943.08,2044.2 L2943.08,1995.54 L2955.66,1993.22 C2957.64,1992.89 2959.3,1990.57 2959.3,1988.59 L2959.3,1969.06 C2959.3,1966.41 2957.31,1964.43 2954.67,1964.43 L2954,1964.43 L2943.08,1966.74 L2943.08,1912.13 L2955.66,1909.81 "/>
<path class="Accidental" d="M7565.59,1920.07 L7595.05,1914.11 L7595.05,1968.73 L7565.59,1975.02 L7565.59,1920.07 M7616.9,1909.81 C7618.88,1909.48 7620.54,1907.16 7620.54,1905.18 L7620.54,1885.65 C7620.54,1883 7618.55,1881.01 7615.9,1881.01 L7615.24,1881.01 L7604.32,1883.33 L7604.32,1834.01 L7595.05,1834.01 L7595.05,1885.32 L7565.59,1891.27 L7565.59,1844.6 L7556.32,1844.6 L7556.32,1893.26 L7543.41,1895.91 C7541.43,1896.24 7539.77,1898.56 7539.77,1900.54 L7539.77,1919.74 C7539.77,1922.39 7541.76,1924.37 7544.41,1924.37 L7545.4,1924.37 L7556.32,1922.06 L7556.32,1976.67 L7543.41,1979.32 C7541.43,1979.65 7539.77,1981.97 7539.77,1983.95 L7539.77,2003.15 C7539.77,2005.8 7541.76,2007.79 7544.41,2007.79 L7545.4,2007.79 L7556.32,2005.47 L7556.32,2054.79 L7565.59,2054.79 L7565.59,2003.48 L7595.05,1997.53 L7595.05,2044.2 L7604.32,2044.2 L7604.32,1995.54 L7616.9,1993.22 C7618.88,1992.89 7620.54,1990.57 7620.54,1988.59 L7620.54,1969.06 C7620.54,1966.41 7618.55,1964.43 7615.9,1964.43 L7615.24,1964.43 L7604.32,1966.74 L7604.32,1912.13 L7616.9,1909.81 "/>
<path class="Accidental" d="M3466.77,1051.96 L3496.23,1046 L3496.23,1100.62 L3466.77,1106.91 L3466.77,1051.96 M3518.07,1041.7 C3520.06,1041.37 3521.72,1039.05 3521.72,1037.07 L3521.72,1017.54 C3521.72,1014.89 3519.73,1012.9 3517.08,1012.9 L3516.42,1012.9 L3505.5,1015.22 L3505.5,965.901 L3496.23,965.901 L3496.23,1017.21 L3466.77,1023.16 L3466.77,976.493 L3457.5,976.493 L3457.5,1025.15 L3444.59,1027.8 C3442.61,1028.13 3440.95,1030.45 3440.95,1032.43 L3440.95,1051.63 C3440.95,1054.28 3442.94,1056.26 3445.59,1056.26 L3446.58,1056.26 L3457.5,1053.95 L3457.5,1108.56 L3444.59,1111.21 C3442.61,1111.54 3440.95,1113.86 3440.95,1115.84 L3440.95,1135.04 C3440.95,1137.69 3442.94,1139.68 3445.59,1139.68 L3446.58,1139.68 L3457.5,1137.36 L3457.5,1186.68 L3466.77,1186.68 L3466.77,1135.37 L3496.23,1129.42 L3496.23,1176.09 L3505.5,1176.09 L3505.5,1127.43 L3518.07,1125.11 C3520.06,1124.78 3521.72,1122.46 3521.72,1120.48 L3521.72,1100.95 C3521.72,1098.3 3519.73,1096.32 3517.08,1096.32 L3516.42,1096.32 L3505.5,1098.63 L3505.5,1044.02 L3518.07,1041.7 "/>
<polyline class="Stem" fill="none" stroke="#000000" stroke-width="8.27" stroke-linejoin="bevel" points="1598.39,1875.78 1598.39,2109.92" />
<polyline class="Stem" fill="none" stroke="#000000" stroke-width="8.27" stroke-linejoin="bevel" points="1193.18,1793.1 1193.18,2068.58" />
<polyline class="Stem" fill="none" stroke="#000000" stroke-width="8.27" stroke-linejoin="bevel" points="6358.84,1890 6358.84,1634.53" />
<polyline class="Stem" fill="none" stroke="#000000" stroke-width="8.27" stroke-linejoin="bevel" points="4319.26,1145.9 4319.26,869.762" />
<polyline class="Stem" fill="none" stroke="#000000" stroke-width="8.27" stroke-linejoin="bevel" points="3982.47,1021.89 3982.47,766.416" />
<polyline class="Stem" fill="none" stroke="#000000" stroke-width="8.27" stroke-linejoin="bevel" points="5279.48,1145.9 5279.48,869.762" />
<polyline class="Stem" fill="none" stroke="#000000" stroke-width="8.27" stroke-linejoin="bevel" points="5632.79,1890 5632.79,1634.53" />
<polyline class="Stem" fill="none" stroke="#000000" stroke-width="8.27" stroke-linejoin="bevel" points="5517.06,966.329 5517.06,1221.14" />
<polyline class="Stem" fill="none" stroke="#000000" stroke-width="8.27" stroke-linejoin="bevel" points="5128.36,1834.44 5128.36,2089.25" />
<polyline class="Stem" fill="none" stroke="#000000" stroke-width="8.27" stroke-linejoin="bevel" points="5853.86,966.329 5853.86,1221.14" />
<polyline class="Stem" fill="none" stroke="#000000" stroke-width="8.27" stroke-linejoin="bevel" points="4723.14,1875.78 4723.14,2109.92" />
<polyline class="Stem" fill="none" stroke="#000000" stroke-width="8.27" stroke-linejoin="bevel" points="2246.83,1007.67 2246.83,1241.81" />
<polyline class="Stem" fill="none" stroke="#000000" stroke-width="8.27" stroke-linejoin="bevel" points="7744.49,1931.34 7744.49,1655.2" />
<polyline class="Stem" fill="none" stroke="#000000" stroke-width="8.27" stroke-linejoin="bevel" points="6308.88,883.652 6308.88,1159.13" />
<polyline class="Stem" fill="none" stroke="#000000" stroke-width="8.27" stroke-linejoin="bevel" points="3645.67,1063.23 3645.67,787.085" />
<polyline class="Stem" fill="none" stroke="#000000" stroke-width="8.27" stroke-linejoin="bevel" points="6645.68,924.991 6645.68,1200.47" />
<polyline class="Stem" fill="none" stroke="#000000" stroke-width="8.27" stroke-linejoin="bevel" points="4298.91,1890 4298.91,1634.53" />
<polyline class="Stem" fill="none" stroke="#000000" stroke-width="8.27" stroke-linejoin="bevel" points="6982.47,966.329 6982.47,1221.14" />
<polyline class="Stem" fill="none" stroke="#000000" stroke-width="8.27" stroke-linejoin="bevel" points="3893.69,1931.34 3893.69,1655.2" />
<polyline class="Stem" fill="none" stroke="#000000" stroke-width="8.27" stroke-linejoin="bevel" points="3488.47,2014.01 3488.47,1737.87" />
<polyline class="Stem" fill="none" stroke="#000000" stroke-width="8.27" stroke-linejoin="bevel" points="2583.63,966.329 2583.63,1221.14" />
<polyline class="Stem" fill="none" stroke="#000000" stroke-width="8.27" stroke-linejoin="bevel" points="2009.25,1021.89 2009.25,766.416" />
<polyline class="Stem" fill="none" stroke="#000000" stroke-width="8.27" stroke-linejoin="bevel" points="3244.17,1021.89 3244.17,786.718" />
<polyline class="Stem" fill="none" stroke="#000000" stroke-width="8.27" stroke-linejoin="bevel" points="8194.21,966.329 8194.21,1221.14" />
<polyline class="Stem" fill="none" stroke="#000000" stroke-width="8.27" stroke-linejoin="bevel" points="3083.25,1931.34 3083.25,1655.2" />
<polyline class="Stem" fill="none" stroke="#000000" stroke-width="8.27" stroke-linejoin="bevel" points="8149.71,2014.01 8149.71,1737.87" />
<polyline class="Stem" fill="none" stroke="#000000" stroke-width="8.27" stroke-linejoin="bevel" points="8554.93,1890 8554.93,1634.53" />
<polyline class="Stem" fill="none" stroke="#000000" stroke-width="8.27" stroke-linejoin="bevel" points="8867.8,966.329 8867.8,1221.14" />
<polyline class="Stem" fill="none" stroke="#000000" stroke-width="8.27" stroke-linejoin="bevel" points="1486.86,1145.9 1486.86,869.762" />
<polyline class="Stem" fill="none" stroke="#000000" stroke-width="8.27" stroke-linejoin="bevel" points="2508.04,1890 2508.04,1634.53" />
<polyline class="Stem" fill="none" stroke="#000000" stroke-width="8.27" stroke-linejoin="bevel" points="3019.64,980.55 3019.64,766.783" />
<polyline class="Stem" fill="none" stroke="#000000" stroke-width="8.27" stroke-linejoin="bevel" points="8531,1007.67 8531,1241.81" />
<polyline class="Stem" fill="none" stroke="#000000" stroke-width="8.27" stroke-linejoin="bevel" points="2003.61,1751.76 2003.61,2027.24" />
<polyline class="Stem" fill="none" stroke="#000000" stroke-width="8.27" stroke-linejoin="bevel" points="6867.46,1834.44 6867.46,2089.25" />
<path class="Note" d="M2579.49,966.341 C2579.49,980.574 2589.75,996.462 2616.57,996.462 C2650.99,996.462 2687.07,968.327 2687.07,939.199 C2687.07,919.67 2670.52,908.747 2650,908.747 C2617.89,908.747 2579.49,935.889 2579.49,966.341"/>
<path class="Note" d="M3879.12,1049.02 C3879.12,1063.25 3889.38,1079.14 3916.19,1079.14 C3950.62,1079.14 3986.69,1051 3986.69,1021.88 C3986.69,1002.35 3970.14,991.425 3949.62,991.425 C3917.52,991.425 3879.12,1018.57 3879.12,1049.02"/>
<path class="Note" d="M1594.26,1875.79 C1594.26,1890.02 1604.52,1905.91 1631.33,1905.91 C1665.76,1905.91 1701.83,1877.78 1701.83,1848.65 C1701.83,1829.12 1685.28,1818.2 1664.76,1818.2 C1632.66,1818.2 1594.26,1845.34 1594.26,1875.79"/>
<path class="Note" d="M8476.41,1931.69 C8465.48,1931.69 8463.17,1922.76 8463.17,1919.78 C8463.17,1903.56 8518.77,1875.09 8534.33,1875.09 C8542.28,1875.09 8547.57,1879.73 8547.57,1887.01 C8547.57,1903.56 8491.63,1931.69 8476.41,1931.69 M8522.08,1859.53 C8489.98,1859.53 8451.58,1886.35 8451.58,1917.13 C8451.58,1931.36 8461.84,1947.25 8488.65,1947.25 C8523.08,1947.25 8559.16,1919.11 8559.16,1889.99 C8559.16,1870.46 8542.61,1859.53 8522.08,1859.53"/>
<path class="Note" d="M1999.48,1751.77 C1999.48,1766.01 2009.74,1781.9 2036.55,1781.9 C2070.97,1781.9 2107.05,1753.76 2107.05,1724.63 C2107.05,1705.1 2090.5,1694.18 2069.98,1694.18 C2037.87,1694.18 1999.48,1721.32 1999.48,1751.77"/>
<path class="Note" d="M1383.52,1173.03 C1383.52,1187.27 1393.78,1203.16 1420.59,1203.16 C1455.01,1203.16 1491.09,1175.02 1491.09,1145.89 C1491.09,1126.36 1474.54,1115.44 1454.02,1115.44 C1421.91,1115.44 1383.52,1142.58 1383.52,1173.03"/>
<path class="Note" d="M2404.7,1917.13 C2404.7,1931.36 2414.96,1947.25 2441.77,1947.25 C2476.19,1947.25 2512.27,1919.11 2512.27,1889.99 C2512.27,1870.46 2495.72,1859.53 2475.2,1859.53 C2443.09,1859.53 2404.7,1886.68 2404.7,1917.13"/>
<path class="Note" d="M8863.66,966.341 C8863.66,980.574 8873.92,996.462 8900.74,996.462 C8935.16,996.462 8971.24,968.327 8971.24,939.199 C8971.24,919.67 8954.69,908.747 8934.17,908.747 C8902.06,908.747 8863.66,935.889 8863.66,966.341"/>
<path class="Note" d="M8526.87,1007.68 C8526.87,1021.91 8537.13,1037.8 8563.94,1037.8 C8598.36,1037.8 8634.44,1009.67 8634.44,980.538 C8634.44,961.009 8617.89,950.086 8597.37,950.086 C8565.26,950.086 8526.87,977.228 8526.87,1007.68"/>
<path class="Note" d="M8190.07,966.341 C8190.07,980.574 8200.33,996.462 8227.14,996.462 C8261.57,996.462 8297.65,968.327 8297.65,939.199 C8297.65,919.67 8281.1,908.747 8260.57,908.747 C8228.47,908.747 8190.07,935.889 8190.07,966.341"/>
<path class="Note" d="M2979.91,1958.47 C2979.91,1972.7 2990.17,1988.59 3016.98,1988.59 C3051.4,1988.59 3087.48,1960.45 3087.48,1931.33 C3087.48,1911.8 3070.93,1900.87 3050.41,1900.87 C3018.3,1900.87 2979.91,1928.02 2979.91,1958.47"/>
<path class="Note" d="M2916.29,1007.68 C2916.29,1021.91 2926.55,1037.8 2953.36,1037.8 C2987.78,1037.8 3023.86,1009.67 3023.86,980.538 C3023.86,961.009 3007.31,950.086 2986.79,950.086 C2954.68,950.086 2916.29,977.228 2916.29,1007.68"/>
<path class="Note" d="M1905.9,1049.02 C1905.9,1063.25 1916.16,1079.14 1942.97,1079.14 C1977.4,1079.14 2013.48,1051 2013.48,1021.88 C2013.48,1002.35 1996.93,991.425 1976.4,991.425 C1944.3,991.425 1905.9,1018.57 1905.9,1049.02"/>
<path class="Note" d="M3385.13,2041.14 C3385.13,2055.38 3395.39,2071.27 3422.2,2071.27 C3456.62,2071.27 3492.7,2043.13 3492.7,2014 C3492.7,1994.47 3476.15,1983.55 3455.63,1983.55 C3423.52,1983.55 3385.13,2010.69 3385.13,2041.14"/>
<path class="Note" d="M7003.17,980.905 C6992.24,980.905 6989.93,971.968 6989.93,968.989 C6989.93,952.77 7045.53,924.304 7061.09,924.304 C7069.04,924.304 7074.33,928.938 7074.33,936.22 C7074.33,952.77 7018.39,980.905 7003.17,980.905 M7048.84,908.747 C7016.74,908.747 6978.34,935.558 6978.34,966.341 C6978.34,980.574 6988.6,996.462 7015.41,996.462 C7049.84,996.462 7085.92,968.327 7085.92,939.199 C7085.92,919.67 7069.37,908.747 7048.84,908.747"/>
<path class="Note" d="M3790.34,1958.47 C3790.34,1972.7 3800.6,1988.59 3827.42,1988.59 C3861.84,1988.59 3897.92,1960.45 3897.92,1931.33 C3897.92,1911.8 3881.37,1900.87 3860.85,1900.87 C3828.74,1900.87 3790.34,1928.02 3790.34,1958.47"/>
<path class="Note" d="M6641.55,925.003 C6641.55,939.236 6651.81,955.124 6678.62,955.124 C6713.04,955.124 6749.12,926.989 6749.12,897.861 C6749.12,878.332 6732.57,867.409 6712.05,867.409 C6679.94,867.409 6641.55,894.551 6641.55,925.003"/>
<path class="Note" d="M4195.56,1917.13 C4195.56,1931.36 4205.82,1947.25 4232.63,1947.25 C4267.06,1947.25 4303.14,1919.11 4303.14,1889.99 C4303.14,1870.46 4286.59,1859.53 4266.06,1859.53 C4233.96,1859.53 4195.56,1886.68 4195.56,1917.13"/>
<path class="Note" d="M8046.36,2041.14 C8046.36,2055.38 8056.62,2071.27 8083.44,2071.27 C8117.86,2071.27 8153.94,2043.13 8153.94,2014 C8153.94,1994.47 8137.39,1983.55 8116.87,1983.55 C8084.76,1983.55 8046.36,2010.69 8046.36,2041.14"/>
<path class="Note" d="M6304.75,883.664 C6304.75,897.897 6315.01,913.785 6341.82,913.785 C6376.25,913.785 6412.32,885.65 6412.32,856.522 C6412.32,836.993 6395.77,826.07 6375.25,826.07 C6343.15,826.07 6304.75,853.212 6304.75,883.664"/>
<path class="Note" d="M5849.72,966.341 C5849.72,980.574 5859.99,996.462 5886.8,996.462 C5921.22,996.462 5957.3,968.327 5957.3,939.199 C5957.3,919.67 5940.75,908.747 5920.23,908.747 C5888.12,908.747 5849.72,935.889 5849.72,966.341"/>
<path class="Note" d="M4719.01,1875.79 C4719.01,1890.02 4729.27,1905.91 4756.08,1905.91 C4790.5,1905.91 4826.58,1877.78 4826.58,1848.65 C4826.58,1829.12 4810.03,1818.2 4789.51,1818.2 C4757.4,1818.2 4719.01,1845.34 4719.01,1875.79"/>
<path class="Note" d="M5512.93,966.341 C5512.93,980.574 5523.19,996.462 5550,996.462 C5584.43,996.462 5620.5,968.327 5620.5,939.199 C5620.5,919.67 5603.95,908.747 5583.43,908.747 C5551.33,908.747 5512.93,935.889 5512.93,966.341"/>
<path class="Note" d="M5124.22,1834.45 C5124.22,1848.68 5134.49,1864.57 5161.3,1864.57 C5195.72,1864.57 5231.8,1836.44 5231.8,1807.31 C5231.8,1787.78 5215.25,1776.86 5194.73,1776.86 C5162.62,1776.86 5124.22,1804 5124.22,1834.45"/>
<path class="Note" d="M5176.13,1173.03 C5176.13,1187.27 5186.39,1203.16 5213.21,1203.16 C5247.63,1203.16 5283.71,1175.02 5283.71,1145.89 C5283.71,1126.36 5267.16,1115.44 5246.64,1115.44 C5214.53,1115.44 5176.13,1142.58 5176.13,1173.03"/>
<path class="Note" d="M5554.27,1931.69 C5543.34,1931.69 5541.03,1922.76 5541.03,1919.78 C5541.03,1903.56 5596.64,1875.09 5612.19,1875.09 C5620.14,1875.09 5625.43,1879.73 5625.43,1887.01 C5625.43,1903.56 5569.49,1931.69 5554.27,1931.69 M5599.95,1859.53 C5567.84,1859.53 5529.44,1886.35 5529.44,1917.13 C5529.44,1931.36 5539.7,1947.25 5566.51,1947.25 C5600.94,1947.25 5637.02,1919.11 5637.02,1889.99 C5637.02,1870.46 5620.47,1859.53 5599.95,1859.53"/>
<path class="Note" d="M3140.82,1049.02 C3140.82,1063.25 3151.08,1079.14 3177.89,1079.14 C3212.32,1079.14 3248.39,1051 3248.39,1021.88 C3248.39,1002.35 3231.84,991.425 3211.32,991.425 C3179.22,991.425 3140.82,1018.57 3140.82,1049.02"/>
<path class="Note" d="M7641.15,1958.47 C7641.15,1972.7 7651.41,1988.59 7678.22,1988.59 C7712.64,1988.59 7748.72,1960.45 7748.72,1931.33 C7748.72,1911.8 7732.17,1900.87 7711.65,1900.87 C7679.54,1900.87 7641.15,1928.02 7641.15,1958.47"/>
<path class="Note" d="M2242.7,1007.68 C2242.7,1021.91 2252.96,1037.8 2279.77,1037.8 C2314.19,1037.8 2350.27,1009.67 2350.27,980.538 C2350.27,961.009 2333.72,950.086 2313.2,950.086 C2281.09,950.086 2242.7,977.228 2242.7,1007.68"/>
<path class="Note" d="M6280.32,1931.69 C6269.4,1931.69 6267.08,1922.76 6267.08,1919.78 C6267.08,1903.56 6322.69,1875.09 6338.25,1875.09 C6346.19,1875.09 6351.49,1879.73 6351.49,1887.01 C6351.49,1903.56 6295.55,1931.69 6280.32,1931.69 M6326,1859.53 C6293.89,1859.53 6255.5,1886.35 6255.5,1917.13 C6255.5,1931.36 6265.76,1947.25 6292.57,1947.25 C6326.99,1947.25 6363.07,1919.11 6363.07,1889.99 C6363.07,1870.46 6346.52,1859.53 6326,1859.53"/>
<path class="Note" d="M4240.74,1187.6 C4229.82,1187.6 4227.5,1178.66 4227.5,1175.68 C4227.5,1159.46 4283.11,1131 4298.67,1131 C4306.61,1131 4311.91,1135.63 4311.91,1142.91 C4311.91,1159.46 4255.97,1187.6 4240.74,1187.6 M4286.42,1115.44 C4254.31,1115.44 4215.92,1142.25 4215.92,1173.03 C4215.92,1187.27 4226.18,1203.16 4252.99,1203.16 C4287.41,1203.16 4323.49,1175.02 4323.49,1145.89 C4323.49,1126.36 4306.94,1115.44 4286.42,1115.44"/>
<path class="Note" d="M6888.15,1849.02 C6877.23,1849.02 6874.91,1840.08 6874.91,1837.1 C6874.91,1820.88 6930.52,1792.41 6946.07,1792.41 C6954.02,1792.41 6959.31,1797.05 6959.31,1804.33 C6959.31,1820.88 6903.38,1849.02 6888.15,1849.02 M6933.83,1776.86 C6901.72,1776.86 6863.32,1803.67 6863.32,1834.45 C6863.32,1848.68 6873.59,1864.57 6900.4,1864.57 C6934.82,1864.57 6970.9,1836.44 6970.9,1807.31 C6970.9,1787.78 6954.35,1776.86 6933.83,1776.86"/>
<path class="Note" d="M3542.32,1090.36 C3542.32,1104.59 3552.58,1120.48 3579.4,1120.48 C3613.82,1120.48 3649.9,1092.34 3649.9,1063.22 C3649.9,1043.69 3633.35,1032.76 3612.83,1032.76 C3580.72,1032.76 3542.32,1059.91 3542.32,1090.36"/>
<path class="Note" d="M1189.04,1793.11 C1189.04,1807.35 1199.3,1823.23 1226.11,1823.23 C1260.54,1823.23 1296.62,1795.1 1296.62,1765.97 C1296.62,1746.44 1280.07,1735.52 1259.54,1735.52 C1227.44,1735.52 1189.04,1762.66 1189.04,1793.11"/>
<path class="Clef" d="M909.689,1144.64 C903.069,1145.97 896.78,1146.63 890.491,1146.63 C843.158,1146.63 802.776,1113.53 802.776,1063.55 C802.776,1023.16 831.242,987.085 860.37,961.929 C865.997,956.964 871.293,952.33 876.258,947.365 C879.237,965.239 881.554,980.796 883.871,994.367 C853.75,1003.3 833.228,1035.08 833.228,1066.19 C833.228,1089.36 851.433,1121.14 877.913,1121.14 C880.561,1121.14 883.54,1119.82 883.54,1116.84 C883.54,1113.86 880.23,1112.2 876.258,1109.56 C863.349,1101.61 856.067,1093.01 856.067,1076.79 C856.067,1056.6 870.962,1040.38 890.491,1035.74 L909.689,1144.64 M880.561,804.373 C883.54,791.133 898.766,756.378 915.978,756.378 C920.943,756.378 928.887,772.597 928.887,795.436 C928.887,829.86 903.4,855.678 880.561,878.186 C878.575,864.946 876.92,852.037 876.92,838.135 C876.92,825.888 877.913,814.634 880.561,804.373 M956.691,1083.41 C956.691,1106.91 947.092,1131.07 923.591,1140.67 C916.64,1100.95 907.703,1048.32 905.386,1033.76 C935.176,1033.76 956.691,1053.95 956.691,1083.41 M811.051,1246.26 C811.051,1268.1 827.932,1296.9 872.617,1296.9 C888.174,1296.9 901.745,1292.93 913.661,1285.65 C931.535,1273.07 936.169,1251.22 936.169,1230.37 C936.169,1217.46 934.183,1202.57 930.873,1183.7 C929.88,1177.08 927.894,1167.15 925.908,1154.24 C958.346,1143.65 982.509,1109.89 982.509,1075.79 C982.509,1025.81 947.092,992.05 898.766,992.05 C895.456,972.19 892.146,952.661 889.167,934.125 C924.253,897.384 948.416,856.009 948.416,803.38 C948.416,773.259 939.148,748.765 933.852,736.849 C925.908,719.968 916.309,708.383 910.351,708.383 C908.034,708.383 897.773,712.355 886.85,725.264 C865.666,750.42 859.708,792.788 859.708,820.592 C859.708,838.466 861.363,854.685 866.99,891.757 C866.659,892.088 849.447,909.631 842.496,915.258 C812.375,943.393 770.669,983.444 770.669,1049.64 C770.669,1111.54 824.622,1160.2 886.188,1160.2 C895.787,1160.2 904.724,1159.21 912.337,1157.88 C918.626,1189.66 922.267,1212.83 922.267,1230.37 C922.267,1264.79 904.724,1283 871.293,1283 C863.349,1283 856.398,1281.34 855.736,1281.34 C855.405,1281.01 854.743,1280.68 854.743,1280.35 C854.743,1279.69 855.405,1279.36 856.398,1279.03 C871.955,1276.71 887.512,1263.47 887.512,1242.29 C887.512,1224.41 873.941,1205.55 849.116,1205.55 C825.946,1205.55 811.051,1224.41 811.051,1246.26"/>
<path class="Clef" d="M909.689,2012.75 C903.069,2014.08 896.78,2014.74 890.491,2014.74 C843.158,2014.74 802.776,1981.64 802.776,1931.66 C802.776,1891.27 831.242,1855.2 860.37,1830.04 C865.997,1825.07 871.293,1820.44 876.258,1815.48 C879.237,1833.35 881.554,1848.91 883.871,1862.48 C853.75,1871.41 833.228,1903.19 833.228,1934.3 C833.228,1957.47 851.433,1989.25 877.913,1989.25 C880.561,1989.25 883.54,1987.93 883.54,1984.95 C883.54,1981.97 880.23,1980.31 876.258,1977.67 C863.349,1969.72 856.067,1961.12 856.067,1944.9 C856.067,1924.71 870.962,1908.49 890.491,1903.85 L909.689,2012.75 M880.561,1672.48 C883.54,1659.24 898.766,1624.49 915.978,1624.49 C920.943,1624.49 928.887,1640.71 928.887,1663.55 C928.887,1697.97 903.4,1723.79 880.561,1746.3 C878.575,1733.06 876.92,1720.15 876.92,1706.25 C876.92,1694 877.913,1682.74 880.561,1672.48 M956.691,1951.52 C956.691,1975.02 947.092,1999.18 923.591,2008.78 C916.64,1969.06 907.703,1916.43 905.386,1901.87 C935.176,1901.87 956.691,1922.06 956.691,1951.52 M811.051,2114.37 C811.051,2136.21 827.932,2165.01 872.617,2165.01 C888.174,2165.01 901.745,2161.04 913.661,2153.76 C931.535,2141.18 936.169,2119.33 936.169,2098.48 C936.169,2085.57 934.183,2070.68 930.873,2051.81 C929.88,2045.19 927.894,2035.26 925.908,2022.35 C958.346,2011.76 982.509,1978 982.509,1943.9 C982.509,1893.92 947.092,1860.16 898.766,1860.16 C895.456,1840.3 892.146,1820.77 889.167,1802.24 C924.253,1765.49 948.416,1724.12 948.416,1671.49 C948.416,1641.37 939.148,1616.88 933.852,1604.96 C925.908,1588.08 916.309,1576.49 910.351,1576.49 C908.034,1576.49 897.773,1580.47 886.85,1593.37 C865.666,1618.53 859.708,1660.9 859.708,1688.7 C859.708,1706.58 861.363,1722.8 866.99,1759.87 C866.659,1760.2 849.447,1777.74 842.496,1783.37 C812.375,1811.5 770.669,1851.55 770.669,1917.75 C770.669,1979.65 824.622,2028.31 886.188,2028.31 C895.787,2028.31 904.724,2027.32 912.337,2025.99 C918.626,2057.77 922.267,2080.94 922.267,2098.48 C922.267,2132.9 904.724,2151.11 871.293,2151.11 C863.349,2151.11 856.398,2149.45 855.736,2149.45 C855.405,2149.12 854.743,2148.79 854.743,2148.46 C854.743,2147.8 855.405,2147.47 856.398,2147.14 C871.955,2144.82 887.512,2131.58 887.512,2110.4 C887.512,2092.52 873.941,2073.66 849.116,2073.66 C825.946,2073.66 811.051,2092.52 811.051,2114.37"/>
<path class="TimeSig" d="M1172.6,934.529 C1164.33,939.825 1158.37,949.424 1158.37,960.016 C1158.37,961.34 1158.37,962.664 1158.7,963.988 C1160.35,977.559 1171.28,988.151 1184.85,989.806 L1188.49,989.806 C1205.04,989.806 1218.28,976.566 1218.28,960.016 L1218.28,958.03 C1218.28,956.706 1217.95,954.389 1217.62,953.065 C1214.64,938.832 1201.73,908.38 1145.46,908.38 C1073.3,908.38 1065.03,968.291 1065.03,989.806 C1065.03,1029.2 1069.99,1078.51 1152.74,1078.51 C1185.51,1078.51 1211,1059.32 1212.32,1023.9 C1212.32,1022.24 1211.33,1021.25 1209.67,1021.25 L1205.37,1021.25 C1204.05,1021.25 1202.72,1022.58 1202.72,1023.9 C1201.4,1051.37 1181.87,1067.92 1152.74,1067.92 C1123.94,1067.92 1110.04,1052.37 1110.04,1023.24 L1110.04,960.016 C1110.04,941.48 1117.32,920.296 1146.78,920.296 C1162.34,920.296 1169.29,925.923 1172.93,931.55 C1173.26,932.212 1173.26,932.543 1173.26,933.205 C1173.26,933.536 1173.26,934.198 1172.6,934.529"/>
<path class="Rest" d="M4915.47,1048.72 C4915.14,1048.39 4914.47,1047.73 4913.48,1046.41 L4875.42,999.405 C4875.09,999.074 4874.75,998.081 4874.75,997.419 C4874.75,996.426 4875.09,995.102 4875.42,994.44 L4909.18,943.466 C4909.51,942.804 4909.84,941.811 4909.84,941.149 L4909.84,938.17 C4909.84,937.177 4909.51,936.184 4908.85,935.522 L4855.23,863.033 C4855.23,863.033 4853.9,861.047 4851.92,861.047 C4850.92,861.047 4850.26,861.378 4849.27,862.04 C4847.94,863.033 4847.61,864.357 4847.61,865.35 C4847.61,867.336 4848.61,868.991 4848.61,868.991 L4873.76,903.415 C4874.42,904.408 4874.75,905.732 4874.75,907.387 C4874.75,908.711 4874.42,910.366 4873.76,911.359 L4840.33,962.333 C4840,962.995 4839.67,964.319 4839.67,964.981 L4839.67,967.96 C4839.67,968.953 4840,969.946 4840.66,970.608 L4877.73,1016.62 C4876.41,1016.29 4873.43,1015.62 4869.46,1015.62 C4852.58,1015.62 4839.34,1029.53 4839.34,1046.41 C4839.34,1051.04 4840.33,1055.68 4842.98,1059.32 C4849.93,1069.91 4874.75,1101.35 4874.75,1101.35 C4874.75,1101.35 4876.41,1103.34 4878.73,1103.34 C4879.39,1103.34 4880.05,1103.34 4880.71,1102.68 C4882.37,1101.35 4883.03,1100.03 4883.03,1098.71 C4883.03,1097.38 4882.37,1096.39 4882.04,1095.73 C4881.04,1094.07 4870.45,1074.87 4870.45,1074.87 C4870.45,1074.87 4868.13,1070.24 4868.13,1064.28 C4868.13,1053.69 4876.08,1045.08 4886.67,1045.08 C4890.97,1045.08 4894.61,1046.41 4897.26,1048.06 L4910.17,1056.34 C4910.17,1056.34 4911.5,1057 4912.82,1057 C4914.14,1057 4915.14,1056.67 4916.13,1055.34 C4916.79,1054.02 4917.12,1053.36 4917.12,1052.37 C4917.12,1051.37 4916.79,1050.71 4916.13,1049.72 L4915.47,1048.72 "/>
<path class="Rest" d="M7929.41,1048.72 C7929.07,1048.39 7928.41,1047.73 7927.42,1046.41 L7889.35,999.405 C7889.02,999.074 7888.69,998.081 7888.69,997.419 C7888.69,996.426 7889.02,995.102 7889.35,994.44 L7923.12,943.466 C7923.45,942.804 7923.78,941.811 7923.78,941.149 L7923.78,938.17 C7923.78,937.177 7923.45,936.184 7922.79,935.522 L7869.16,863.033 C7869.16,863.033 7867.84,861.047 7865.85,861.047 C7864.86,861.047 7864.2,861.378 7863.21,862.04 C7861.88,863.033 7861.55,864.357 7861.55,865.35 C7861.55,867.336 7862.54,868.991 7862.54,868.991 L7887.7,903.415 C7888.36,904.408 7888.69,905.732 7888.69,907.387 C7888.69,908.711 7888.36,910.366 7887.7,911.359 L7854.27,962.333 C7853.94,962.995 7853.61,964.319 7853.61,964.981 L7853.61,967.96 C7853.61,968.953 7853.94,969.946 7854.6,970.608 L7891.67,1016.62 C7890.35,1016.29 7887.37,1015.62 7883.4,1015.62 C7866.52,1015.62 7853.28,1029.53 7853.28,1046.41 C7853.28,1051.04 7854.27,1055.68 7856.92,1059.32 C7863.87,1069.91 7888.69,1101.35 7888.69,1101.35 C7888.69,1101.35 7890.35,1103.34 7892.66,1103.34 C7893.33,1103.34 7893.99,1103.34 7894.65,1102.68 C7896.31,1101.35 7896.97,1100.03 7896.97,1098.71 C7896.97,1097.38 7896.31,1096.39 7895.97,1095.73 C7894.98,1094.07 7884.39,1074.87 7884.39,1074.87 C7884.39,1074.87 7882.07,1070.24 7882.07,1064.28 C7882.07,1053.69 7890.02,1045.08 7900.61,1045.08 C7904.91,1045.08 7908.55,1046.41 7911.2,1048.06 L7924.11,1056.34 C7924.11,1056.34 7925.43,1057 7926.76,1057 C7928.08,1057 7929.07,1056.67 7930.07,1055.34 C7930.73,1054.02 7931.06,1053.36 7931.06,1052.37 C7931.06,1051.37 7930.73,1050.71 7930.07,1049.72 L7929.41,1048.72 "/>
<path class="Beam" fill-rule="evenodd" d="M3015.5,745.665 L3248.3,766.335 L3248.3,807.836 L3015.5,787.166 L3015.5,745.665 "/>
</svg>
