<?xml version="1.0" encoding="UTF-8" standalone="no"?>
<svg width="210.058mm" height="296.926mm" viewBox="0 0 9924 14028"
 xmlns="http://www.w3.org/2000/svg" xmlns:xlink="http://www.w3.org/1999/xlink" version="1.2" baseProfile="full">
<title>air_XX</title>
<desc>Generated by MuseScore Studio 4.7.3</desc>
<polyline class="StaffLines" fill="none" stroke="#000000" stroke-width="9.09" stroke-linejoin="bevel" points="708.661,828.424 9215.34,828.424" />
<polyline class="StaffLines" fill="none" stroke="#000000" stroke-width="9.09" stroke-linejoin="bevel" points="708.661,911.101 9215.34,911.101" />
<polyline class="StaffLines" fill="none" stroke="#000000" stroke-width="9.09" stroke-linejoin="bevel" points="708.661,993.778 9215.34,993.778" />
<polyline class="StaffLines" fill="none" stroke="#000000" stroke-width="9.09" stroke-linejoin="bevel" points="708.661,1076.46 9215.34,1076.46" />
<polyline class="StaffLines" fill="none" stroke="#000000" stroke-width="9.09" stroke-linejoin="bevel" points="708.661,1159.13 9215.34,1159.13" />
<polyline class="StaffLines" fill="none" stroke="#000000" stroke-width="9.09" stroke-linejoin="bevel" points="708.661,1696.53 9215.34,1696.53" />
<polyline class="StaffLines" fill="none" stroke="#000000" stroke-width="9.09" stroke-linejoin="bevel" points="708.661,1779.21 9215.34,1779.21" />
<polyline class="StaffLines" fill="none" stroke="#000000" stroke-width="9.09" stroke-linejoin="bevel" points="708.661,1861.89 9215.34,1861.89" />
<polyline class="StaffLines" fill="none" stroke="#000000" stroke-width="9.09" stroke-linejoin="bevel" points="708.661,1944.57 9215.34,1944.57" />
<polyline class="StaffLines" fill="none" stroke="#000000" stroke-width="9.09" stroke-linejoin="bevel" points="708.661,2027.24 9215.34,2027.24" />
<polyline class="StaffLines" fill="none" stroke="#000000" stroke-width="9.09" stroke-linejoin="bevel" points="708.661,2564.64 9215.34,2564.64" />
<polyline class="StaffLines" fill="none" stroke="#000000" stroke-width="9.09" stroke-linejoin="bevel" points="708.661,2647.32 9215.34,2647.32" />
<polyline class="StaffLines" fill="none" stroke="#000000" stroke-width="9.09" stroke-linejoin="bevel" points="708.661,2730 9215.34,2730" />
<polyline class="StaffLines" fill="none" stroke="#000000" stroke-width="9.09" stroke-linejoin="bevel" points="708.661,2812.68 9215.34,2812.68" />
<polyline class="StaffLines" fill="none" stroke="#000000" stroke-width="9.09" stroke-linejoin="bevel" points="708.661,2895.35 9215.34,2895.35" />
<polyline class="BarLine" fill="none" stroke="#000000" stroke-width="14.88" stroke-linejoin="bevel" points="8019.15,1691.99 8019.15,2031.79" />
<polyline class="BarLine" fill="none" stroke="#000000" stroke-width="14.88" stroke-linejoin="bevel" points="3801.35,2560.1 3801.35,2899.9" />
<polyline class="BarLine" fill="none" stroke="#000000" stroke-width="14.88" stroke-linejoin="bevel" points="4460.74,1691.99 4460.74,2031.79" />
<polyline class="BarLine" fill="none" stroke="#000000" stroke-width="14.88" stroke-linejoin="bevel" points="6582.39,823.876 6582.39,1163.68" />
<polyline class="BarLine" fill="none" stroke="#000000" stroke-width="14.88" stroke-linejoin="bevel" points="5488.42,1691.99 5488.42,2031.79" />
<polyline class="BarLine" fill="none" stroke="#000000" stroke-width="14.88" stroke-linejoin="bevel" points="8054.95,823.876 8054.95,1163.68" />
<polyline class="BarLine" fill="none" stroke="#000000" stroke-width="14.88" stroke-linejoin="bevel" points="5795.28,2560.1 5795.28,2899.9" />
<polyline class="BarLine" fill="none" stroke="#000000" stroke-width="45.47" stroke-linejoin="bevel" points="3783.15,1691.99 3783.15,2031.79" />
<polyline class="BarLine" fill="none" stroke="#000000" stroke-width="14.88" stroke-linejoin="bevel" points="3843.92,1691.99 3843.92,2031.79" />
<path class="BarLine" d="M3916.37,1820.55 C3916.37,1810.95 3908.76,1803.01 3899.16,1803.01 C3889.56,1803.01 3881.95,1810.95 3881.95,1820.55 C3881.95,1830.15 3889.56,1838.09 3899.16,1838.09 C3908.76,1838.09 3916.37,1830.15 3916.37,1820.55"/>
<path class="BarLine" d="M3916.37,1903.23 C3916.37,1893.63 3908.76,1885.68 3899.16,1885.68 C3889.56,1885.68 3881.95,1893.63 3881.95,1903.23 C3881.95,1912.83 3889.56,1920.77 3899.16,1920.77 C3908.76,1920.77 3916.37,1912.83 3916.37,1903.23"/>
<polyline class="BarLine" fill="none" stroke="#000000" stroke-width="14.88" stroke-linejoin="bevel" points="8107.06,2560.1 8107.06,2899.9" />
<polyline class="BarLine" fill="none" stroke="#000000" stroke-width="14.88" stroke-linejoin="bevel" points="2037.04,823.876 2037.04,1163.68" />
<polyline class="BarLine" fill="none" stroke="#000000" stroke-width="14.88" stroke-linejoin="bevel" points="4120.96,823.876 4120.96,1163.68" />
<polyline class="BarLine" fill="none" stroke="#000000" stroke-width="14.88" stroke-linejoin="bevel" points="9131.84,2560.1 9131.84,2899.9" />
<polyline class="BarLine" fill="none" stroke="#000000" stroke-width="45.47" stroke-linejoin="bevel" points="9192.6,2560.1 9192.6,2899.9" />
<path class="BarLine" d="M3684.38,1820.55 C3684.38,1810.95 3676.77,1803.01 3667.17,1803.01 C3657.57,1803.01 3649.95,1810.95 3649.95,1820.55 C3649.95,1830.15 3657.57,1838.09 3667.17,1838.09 C3676.77,1838.09 3684.38,1830.15 3684.38,1820.55"/>
<path class="BarLine" d="M3684.38,1903.23 C3684.38,1893.63 3676.77,1885.68 3667.17,1885.68 C3657.57,1885.68 3649.95,1893.63 3649.95,1903.23 C3649.95,1912.83 3657.57,1920.77 3667.17,1920.77 C3676.77,1920.77 3684.38,1912.83 3684.38,1903.23"/>
<polyline class="BarLine" fill="none" stroke="#000000" stroke-width="14.88" stroke-linejoin="bevel" points="3722.38,1691.99 3722.38,2031.79" />
<polyline class="BarLine" fill="none" stroke="#000000" stroke-width="45.47" stroke-linejoin="bevel" points="3783.15,1691.99 3783.15,2031.79" />
<polyline class="BarLine" fill="none" stroke="#000000" stroke-width="14.88" stroke-linejoin="bevel" points="6486.23,1691.99 6486.23,2031.79" />
<polyline class="BarLine" fill="none" stroke="#000000" stroke-width="14.88" stroke-linejoin="bevel" points="9207.9,1691.99 9207.9,2031.79" />
<polyline class="BarLine" fill="none" stroke="#000000" stroke-width="14.88" stroke-linejoin="bevel" points="3025.91,823.876 3025.91,1163.68" />
<polyline class="BarLine" fill="none" stroke="#000000" stroke-width="14.88" stroke-linejoin="bevel" points="9207.9,823.876 9207.9,1163.68" />
<polyline class="BarLine" fill="none" stroke="#000000" stroke-width="14.88" stroke-linejoin="bevel" points="2962.73,1691.99 2962.73,2031.79" />
<polyline class="BarLine" fill="none" stroke="#000000" stroke-width="14.88" stroke-linejoin="bevel" points="5593.52,823.876 5593.52,1163.68" />
<polyline class="Stem" fill="none" stroke="#000000" stroke-width="8.27" stroke-linejoin="bevel" points="7084.26,924.991 7084.26,1179.8" />
<polyline class="Stem" fill="none" stroke="#000000" stroke-width="8.27" stroke-linejoin="bevel" points="1707.96,1187.24 1707.96,931.347" />
<polyline class="Stem" fill="none" stroke="#000000" stroke-width="8.27" stroke-linejoin="bevel" points="3916.27,2702.55 3916.27,2957.36" />
<polyline class="Stem" fill="none" stroke="#000000" stroke-width="8.27" stroke-linejoin="bevel" points="4492.23,2840.79 4492.23,2564.64" />
<polyline class="Stem" fill="none" stroke="#000000" stroke-width="8.27" stroke-linejoin="bevel" points="5009.79,924.991 5009.79,1200.47" />
<polyline class="Stem" fill="none" stroke="#000000" stroke-width="8.27" stroke-linejoin="bevel" points="5708.44,924.991 5708.44,1200.47" />
<polyline class="Stem" fill="none" stroke="#000000" stroke-width="8.27" stroke-linejoin="bevel" points="4869.77,2578.53 4869.77,2854.01" />
<polyline class="Stem" fill="none" stroke="#000000" stroke-width="8.27" stroke-linejoin="bevel" points="6143.76,842.313 6143.76,1117.79" />
<polyline class="Stem" fill="none" stroke="#000000" stroke-width="8.27" stroke-linejoin="bevel" points="4816.31,883.652 4816.31,1179.8" />
<polyline class="Stem" fill="none" stroke="#000000" stroke-width="8.27" stroke-linejoin="bevel" points="4575.67,1834.44 4575.67,2089.25" />
<polyline class="Stem" fill="none" stroke="#000000" stroke-width="8.27" stroke-linejoin="bevel" points="4622.84,924.991 4622.84,1179.8" />
<polyline class="Stem" fill="none" stroke="#000000" stroke-width="8.27" stroke-linejoin="bevel" points="6697.31,924.991 6697.31,1179.8" />
<polyline class="Stem" fill="none" stroke="#000000" stroke-width="8.27" stroke-linejoin="bevel" points="3480.2,2743.89 3480.2,2957.09" />
<polyline class="Stem" fill="none" stroke="#000000" stroke-width="8.27" stroke-linejoin="bevel" points="3162.37,2702.55 3162.37,2936.6" />
<polyline class="Stem" fill="none" stroke="#000000" stroke-width="8.27" stroke-linejoin="bevel" points="6890.79,966.329 6890.79,1179.8" />
<polyline class="Stem" fill="none" stroke="#000000" stroke-width="8.27" stroke-linejoin="bevel" points="2844.53,2661.21 2844.53,2916.11" />
<polyline class="Stem" fill="none" stroke="#000000" stroke-width="8.27" stroke-linejoin="bevel" points="5474.14,2619.87 5474.14,2895.02" />
<polyline class="Stem" fill="none" stroke="#000000" stroke-width="8.27" stroke-linejoin="bevel" points="2526.7,2619.87 2526.7,2895.62" />
<polyline class="Stem" fill="none" stroke="#000000" stroke-width="8.27" stroke-linejoin="bevel" points="7277.74,883.652 7277.74,1179.8" />
<polyline class="Stem" fill="none" stroke="#000000" stroke-width="8.27" stroke-linejoin="bevel" points="2208.86,2661.21 2208.86,2895.61" />
<polyline class="Stem" fill="none" stroke="#000000" stroke-width="8.27" stroke-linejoin="bevel" points="7471.21,924.991 7471.21,1200.47" />
<polyline class="Stem" fill="none" stroke="#000000" stroke-width="8.27" stroke-linejoin="bevel" points="1891.02,2702.55 1891.02,2915.76" />
<polyline class="Stem" fill="none" stroke="#000000" stroke-width="8.27" stroke-linejoin="bevel" points="7761.43,924.991 7761.43,1200.47" />
<polyline class="Stem" fill="none" stroke="#000000" stroke-width="8.27" stroke-linejoin="bevel" points="1414.27,2661.21 1414.27,2936.69" />
<polyline class="Stem" fill="none" stroke="#000000" stroke-width="8.27" stroke-linejoin="bevel" points="4429.36,966.329 4429.36,1179.8" />
<polyline class="Stem" fill="none" stroke="#000000" stroke-width="8.27" stroke-linejoin="bevel" points="4235.89,924.991 4235.89,1179.8" />
<polyline class="Stem" fill="none" stroke="#000000" stroke-width="8.27" stroke-linejoin="bevel" points="8169.87,924.991 8169.87,1200.47" />
<polyline class="Stem" fill="none" stroke="#000000" stroke-width="8.27" stroke-linejoin="bevel" points="5910.21,2661.21 5910.21,2957.36" />
<polyline class="Stem" fill="none" stroke="#000000" stroke-width="8.27" stroke-linejoin="bevel" points="8605.19,842.313 8605.19,1117.79" />
<polyline class="Stem" fill="none" stroke="#000000" stroke-width="8.27" stroke-linejoin="bevel" points="3886.15,966.329 3886.15,1200.89" />
<polyline class="Stem" fill="none" stroke="#000000" stroke-width="8.27" stroke-linejoin="bevel" points="8973.08,1751.76 8973.08,2026.91" />
<polyline class="Stem" fill="none" stroke="#000000" stroke-width="8.27" stroke-linejoin="bevel" points="4123.04,1890 4123.04,1654.79" />
<polyline class="Stem" fill="none" stroke="#000000" stroke-width="8.27" stroke-linejoin="bevel" points="8973.08,883.652 8973.08,1158.8" />
<polyline class="Stem" fill="none" stroke="#000000" stroke-width="8.27" stroke-linejoin="bevel" points="5030.39,1834.44 5030.39,2089.25" />
<polyline class="Stem" fill="none" stroke="#000000" stroke-width="8.27" stroke-linejoin="bevel" points="6228.04,2702.55 6228.04,2957.36" />
<polyline class="Stem" fill="none" stroke="#000000" stroke-width="8.27" stroke-linejoin="bevel" points="6545.88,2743.89 6545.88,2957.36" />
<polyline class="Stem" fill="none" stroke="#000000" stroke-width="8.27" stroke-linejoin="bevel" points="8588.79,1710.42 8588.79,1985.9" />
<polyline class="Stem" fill="none" stroke="#000000" stroke-width="8.27" stroke-linejoin="bevel" points="8134.07,1751.76 8134.07,2027.24" />
<polyline class="Stem" fill="none" stroke="#000000" stroke-width="8.27" stroke-linejoin="bevel" points="1414.27,1751.76 1414.27,2027.24" />
<polyline class="Stem" fill="none" stroke="#000000" stroke-width="8.27" stroke-linejoin="bevel" points="3692.67,1007.67 3692.67,1220.72" />
<polyline class="Stem" fill="none" stroke="#000000" stroke-width="8.27" stroke-linejoin="bevel" points="1717.42,1834.44 1717.42,2047.51" />
<polyline class="Stem" fill="none" stroke="#000000" stroke-width="8.27" stroke-linejoin="bevel" points="6863.71,2702.55 6863.71,2957.36" />
<polyline class="Stem" fill="none" stroke="#000000" stroke-width="8.27" stroke-linejoin="bevel" points="7712.69,1793.1 7712.69,2068.58" />
<polyline class="Stem" fill="none" stroke="#000000" stroke-width="8.27" stroke-linejoin="bevel" points="1919.52,1793.1 1919.52,2027.65" />
<polyline class="Stem" fill="none" stroke="#000000" stroke-width="8.27" stroke-linejoin="bevel" points="7409.55,1834.44 7409.55,2089.25" />
<polyline class="Stem" fill="none" stroke="#000000" stroke-width="8.27" stroke-linejoin="bevel" points="2121.62,1751.76 2121.62,2027.66" />
<polyline class="Stem" fill="none" stroke="#000000" stroke-width="8.27" stroke-linejoin="bevel" points="7306.66,1848.66 7306.66,1634.94" />
<polyline class="Stem" fill="none" stroke="#000000" stroke-width="8.27" stroke-linejoin="bevel" points="7104.56,1890 7104.56,1655.33" />
<polyline class="Stem" fill="none" stroke="#000000" stroke-width="8.27" stroke-linejoin="bevel" points="2323.71,1793.1 2323.71,2048.05" />
<polyline class="Stem" fill="none" stroke="#000000" stroke-width="8.27" stroke-linejoin="bevel" points="6902.46,1931.34 6902.46,1675.73" />
<polyline class="Stem" fill="none" stroke="#000000" stroke-width="8.27" stroke-linejoin="bevel" points="2525.81,1834.44 2525.81,2068.44" />
<polyline class="Stem" fill="none" stroke="#000000" stroke-width="8.27" stroke-linejoin="bevel" points="6700.36,1972.68 6700.36,1696.12" />
<polyline class="Stem" fill="none" stroke="#000000" stroke-width="8.27" stroke-linejoin="bevel" points="2727.91,1875.78 2727.91,2088.83" />
<polyline class="Stem" fill="none" stroke="#000000" stroke-width="8.27" stroke-linejoin="bevel" points="7181.55,2702.55 7181.55,2957.36" />
<polyline class="Stem" fill="none" stroke="#000000" stroke-width="8.27" stroke-linejoin="bevel" points="3240.04,1104.57 3240.04,828.424" />
<polyline class="Stem" fill="none" stroke="#000000" stroke-width="8.27" stroke-linejoin="bevel" points="4325.14,1848.66 4325.14,1634.93" />
<polyline class="Stem" fill="none" stroke="#000000" stroke-width="8.27" stroke-linejoin="bevel" points="3077.65,1834.44 3077.65,2089.25" />
<polyline class="Stem" fill="none" stroke="#000000" stroke-width="8.27" stroke-linejoin="bevel" points="2686.49,1104.57 2686.49,828.424" />
<polyline class="Stem" fill="none" stroke="#000000" stroke-width="8.27" stroke-linejoin="bevel" points="6179.78,1710.42 6179.78,1985.9" />
<polyline class="Stem" fill="none" stroke="#000000" stroke-width="8.27" stroke-linejoin="bevel" points="7785.92,2743.89 7785.92,2998.37" />
<polyline class="Stem" fill="none" stroke="#000000" stroke-width="8.27" stroke-linejoin="bevel" points="2251.17,1104.57 2251.17,828.424" />
<polyline class="Stem" fill="none" stroke="#000000" stroke-width="8.27" stroke-linejoin="bevel" points="1901.44,1145.9 1901.44,911.524" />
<polyline class="Stem" fill="none" stroke="#000000" stroke-width="8.27" stroke-linejoin="bevel" points="5603.34,1834.44 5603.34,2089.25" />
<polyline class="Stem" fill="none" stroke="#000000" stroke-width="8.27" stroke-linejoin="bevel" points="8221.98,2743.89 8221.98,2978.03" />
<polyline class="Stem" fill="none" stroke="#000000" stroke-width="8.27" stroke-linejoin="bevel" points="5300,924.991 5300,1200.47" />
<path class="Hook" d="M7781.78,2998.37 C7781.78,3000.69 7783.77,3002.67 7786.08,3002.67 C7787.74,3002.67 7789.73,3001.35 7790.06,3000.02 C7790.06,2999.69 7793.04,2988.11 7793.37,2987.11 C7793.7,2985.79 7796.68,2973.21 7808.59,2953.68 C7821.5,2932.17 7841.36,2916.61 7857.91,2893.44 C7874.13,2870.27 7884.06,2848.43 7884.06,2819.3 C7884.06,2789.18 7877.11,2764.02 7859.57,2731.91 C7858.57,2729.6 7856.59,2728.27 7854.6,2728.27 C7853.94,2728.27 7853.28,2728.27 7852.95,2728.6 C7851.29,2729.27 7850.63,2730.59 7850.63,2732.58 C7850.63,2733.57 7850.96,2735.22 7851.62,2736.55 C7864.86,2767.33 7870.16,2784.87 7870.16,2808.71 C7870.16,2836.18 7860.56,2850.41 7854.6,2860.67 C7833.09,2897.41 7798.33,2915.29 7784.43,2919.92 C7782.11,2920.91 7781.78,2922.57 7781.78,2923.56 L7781.78,2998.37 "/>
<path class="Hook" d="M8968.95,2026.91 C8968.95,2029.23 8970.94,2031.21 8973.25,2031.21 C8974.91,2031.21 8976.89,2029.89 8977.22,2028.57 C8977.22,2028.24 8980.2,2016.65 8980.53,2015.66 C8980.87,2014.33 8983.84,2001.76 8995.76,1982.23 C9008.67,1960.71 9028.53,1945.15 9045.08,1921.98 C9061.3,1898.81 9071.23,1876.97 9071.23,1847.84 C9071.23,1817.72 9064.28,1792.56 9046.73,1760.46 C9045.74,1758.14 9043.76,1756.82 9041.77,1756.82 C9041.11,1756.82 9040.45,1756.82 9040.11,1757.15 C9038.46,1757.81 9037.8,1759.13 9037.8,1761.12 C9037.8,1762.11 9038.13,1763.77 9038.79,1765.09 C9052.03,1795.87 9057.33,1813.42 9057.33,1837.25 C9057.33,1864.72 9047.73,1878.95 9041.77,1889.22 C9020.25,1925.96 8985.5,1943.83 8971.6,1948.46 C8969.28,1949.46 8968.95,1951.11 8968.95,1952.11 L8968.95,2026.91 "/>
<path class="Hook" d="M8968.95,1158.8 C8968.95,1161.12 8970.94,1163.1 8973.25,1163.1 C8974.91,1163.1 8976.89,1161.78 8977.22,1160.46 C8977.22,1160.13 8980.2,1148.54 8980.53,1147.55 C8980.87,1146.22 8983.84,1133.65 8995.76,1114.12 C9008.67,1092.6 9028.53,1077.04 9045.08,1053.87 C9061.3,1030.7 9071.23,1008.86 9071.23,979.73 C9071.23,949.609 9064.28,924.453 9046.73,892.346 C9045.74,890.029 9043.76,888.705 9041.77,888.705 C9041.11,888.705 9040.45,888.705 9040.11,889.036 C9038.46,889.698 9037.8,891.022 9037.8,893.008 C9037.8,894.001 9038.13,895.656 9038.79,896.98 C9052.03,927.763 9057.33,945.306 9057.33,969.138 C9057.33,996.611 9047.73,1010.84 9041.77,1021.11 C9020.25,1057.85 8985.5,1075.72 8971.6,1080.35 C8969.28,1081.35 8968.95,1083 8968.95,1084 L8968.95,1158.8 "/>
<path class="Hook" d="M5470.01,2895.02 C5470.01,2897.34 5471.99,2899.32 5474.31,2899.32 C5475.97,2899.32 5477.95,2898 5478.28,2896.68 C5478.28,2896.35 5481.26,2884.76 5481.59,2883.77 C5481.92,2882.44 5484.9,2869.87 5496.82,2850.34 C5509.73,2828.82 5529.59,2813.26 5546.14,2790.09 C5562.36,2766.92 5572.29,2745.08 5572.29,2715.95 C5572.29,2685.83 5565.34,2660.67 5547.79,2628.57 C5546.8,2626.25 5544.81,2624.93 5542.83,2624.93 C5542.17,2624.93 5541.5,2624.93 5541.17,2625.26 C5539.52,2625.92 5538.86,2627.24 5538.86,2629.23 C5538.86,2630.22 5539.19,2631.88 5539.85,2633.2 C5553.09,2663.98 5558.38,2681.53 5558.38,2705.36 C5558.38,2732.83 5548.79,2747.06 5542.83,2757.33 C5521.31,2794.07 5486.56,2811.94 5472.66,2816.57 C5470.34,2817.57 5470.01,2819.22 5470.01,2820.22 L5470.01,2895.02 "/>
<path class="Note" d="M8242.67,2758.46 C8231.75,2758.46 8229.43,2749.53 8229.43,2746.55 C8229.43,2730.33 8285.04,2701.86 8300.6,2701.86 C8308.54,2701.86 8313.84,2706.5 8313.84,2713.78 C8313.84,2730.33 8257.9,2758.46 8242.67,2758.46 M8288.35,2686.31 C8256.24,2686.31 8217.85,2713.12 8217.85,2743.9 C8217.85,2758.13 8228.11,2774.02 8254.92,2774.02 C8289.34,2774.02 8325.42,2745.89 8325.42,2716.76 C8325.42,2697.23 8308.87,2686.31 8288.35,2686.31"/>
<path class="Note" d="M4618.7,925.003 C4618.7,939.236 4628.96,955.124 4655.77,955.124 C4690.2,955.124 4726.28,926.989 4726.28,897.861 C4726.28,878.332 4709.73,867.409 4689.21,867.409 C4657.1,867.409 4618.7,894.551 4618.7,925.003"/>
<path class="Note" d="M4221.79,1875.79 C4221.79,1890.02 4232.05,1905.91 4258.87,1905.91 C4293.29,1905.91 4329.37,1877.78 4329.37,1848.65 C4329.37,1829.12 4312.82,1818.2 4292.3,1818.2 C4260.19,1818.2 4221.79,1845.34 4221.79,1875.79"/>
<path class="Note" d="M5051.08,1849.02 C5040.16,1849.02 5037.84,1840.08 5037.84,1837.1 C5037.84,1820.88 5093.45,1792.41 5109,1792.41 C5116.95,1792.41 5122.24,1797.05 5122.24,1804.33 C5122.24,1820.88 5066.3,1849.02 5051.08,1849.02 M5096.76,1776.86 C5064.65,1776.86 5026.25,1803.67 5026.25,1834.45 C5026.25,1848.68 5036.51,1864.57 5063.33,1864.57 C5097.75,1864.57 5133.83,1836.44 5133.83,1807.31 C5133.83,1787.78 5117.28,1776.86 5096.76,1776.86"/>
<path class="Note" d="M1604.61,1214.37 C1604.61,1228.61 1614.87,1244.49 1641.69,1244.49 C1676.11,1244.49 1712.19,1216.36 1712.19,1187.23 C1712.19,1167.7 1695.64,1156.78 1675.12,1156.78 C1643.01,1156.78 1604.61,1183.92 1604.61,1214.37"/>
<path class="Note" d="M4019.69,1917.13 C4019.69,1931.36 4029.96,1947.25 4056.77,1947.25 C4091.19,1947.25 4127.27,1919.11 4127.27,1889.99 C4127.27,1870.46 4110.72,1859.53 4090.2,1859.53 C4058.09,1859.53 4019.69,1886.68 4019.69,1917.13"/>
<path class="Note" d="M1798.09,1173.03 C1798.09,1187.27 1808.35,1203.16 1835.16,1203.16 C1869.58,1203.16 1905.66,1175.02 1905.66,1145.89 C1905.66,1126.36 1889.11,1115.44 1868.59,1115.44 C1836.48,1115.44 1798.09,1142.58 1798.09,1173.03"/>
<path class="Note" d="M5624.03,1849.02 C5613.11,1849.02 5610.79,1840.08 5610.79,1837.1 C5610.79,1820.88 5666.4,1792.41 5681.95,1792.41 C5689.9,1792.41 5695.19,1797.05 5695.19,1804.33 C5695.19,1820.88 5639.25,1849.02 5624.03,1849.02 M5669.71,1776.86 C5637.6,1776.86 5599.2,1803.67 5599.2,1834.45 C5599.2,1848.68 5609.46,1864.57 5636.28,1864.57 C5670.7,1864.57 5706.78,1836.44 5706.78,1807.31 C5706.78,1787.78 5690.23,1776.86 5669.71,1776.86"/>
<path class="Note" d="M7781.78,2743.9 C7781.78,2758.13 7792.04,2774.02 7818.85,2774.02 C7853.28,2774.02 7889.36,2745.89 7889.36,2716.76 C7889.36,2697.23 7872.81,2686.31 7852.28,2686.31 C7820.18,2686.31 7781.78,2713.45 7781.78,2743.9"/>
<path class="Note" d="M2172.65,1146.26 C2161.73,1146.26 2159.41,1137.32 2159.41,1134.34 C2159.41,1118.12 2215.02,1089.66 2230.58,1089.66 C2238.52,1089.66 2243.82,1094.29 2243.82,1101.57 C2243.82,1118.12 2187.88,1146.26 2172.65,1146.26 M2218.33,1074.1 C2186.22,1074.1 2147.83,1100.91 2147.83,1131.7 C2147.83,1145.93 2158.09,1161.82 2184.9,1161.82 C2219.32,1161.82 2255.4,1133.68 2255.4,1104.55 C2255.4,1085.02 2238.85,1074.1 2218.33,1074.1"/>
<path class="Note" d="M6175.64,1710.44 C6175.64,1724.67 6185.9,1740.56 6212.71,1740.56 C6247.14,1740.56 6283.22,1712.42 6283.22,1683.29 C6283.22,1663.76 6266.67,1652.84 6246.14,1652.84 C6214.04,1652.84 6175.64,1679.98 6175.64,1710.44"/>
<path class="Note" d="M3098.34,1849.02 C3087.42,1849.02 3085.1,1840.08 3085.1,1837.1 C3085.1,1820.88 3140.71,1792.41 3156.27,1792.41 C3164.21,1792.41 3169.51,1797.05 3169.51,1804.33 C3169.51,1820.88 3113.57,1849.02 3098.34,1849.02 M3144.02,1776.86 C3111.91,1776.86 3073.52,1803.67 3073.52,1834.45 C3073.52,1848.68 3083.78,1864.57 3110.59,1864.57 C3145.01,1864.57 3181.09,1836.44 3181.09,1807.31 C3181.09,1787.78 3164.54,1776.86 3144.02,1776.86"/>
<path class="Note" d="M2723.78,1875.79 C2723.78,1890.02 2734.04,1905.91 2760.85,1905.91 C2795.27,1905.91 2831.35,1877.78 2831.35,1848.65 C2831.35,1829.12 2814.8,1818.2 2794.28,1818.2 C2762.17,1818.2 2723.78,1845.34 2723.78,1875.79"/>
<path class="Note" d="M2521.68,1834.45 C2521.68,1848.68 2531.94,1864.57 2558.75,1864.57 C2593.18,1864.57 2629.25,1836.44 2629.25,1807.31 C2629.25,1787.78 2612.7,1776.86 2592.18,1776.86 C2560.08,1776.86 2521.68,1804 2521.68,1834.45"/>
<path class="Note" d="M6597.02,1999.81 C6597.02,2014.04 6607.28,2029.93 6634.09,2029.93 C6668.51,2029.93 6704.59,2001.79 6704.59,1972.66 C6704.59,1953.14 6688.04,1942.21 6667.52,1942.21 C6635.41,1942.21 6597.02,1969.35 6597.02,1999.81"/>
<path class="Note" d="M2607.97,1146.26 C2597.05,1146.26 2594.73,1137.32 2594.73,1134.34 C2594.73,1118.12 2650.34,1089.66 2665.9,1089.66 C2673.84,1089.66 2679.14,1094.29 2679.14,1101.57 C2679.14,1118.12 2623.2,1146.26 2607.97,1146.26 M2653.65,1074.1 C2621.54,1074.1 2583.15,1100.91 2583.15,1131.7 C2583.15,1145.93 2593.41,1161.82 2620.22,1161.82 C2654.64,1161.82 2690.72,1133.68 2690.72,1104.55 C2690.72,1085.02 2674.17,1074.1 2653.65,1074.1"/>
<path class="Note" d="M2319.58,1793.11 C2319.58,1807.35 2329.84,1823.23 2356.65,1823.23 C2391.08,1823.23 2427.16,1795.1 2427.16,1765.97 C2427.16,1746.44 2410.61,1735.52 2390.08,1735.52 C2357.98,1735.52 2319.58,1762.66 2319.58,1793.11"/>
<path class="Note" d="M6799.12,1958.47 C6799.12,1972.7 6809.38,1988.59 6836.19,1988.59 C6870.61,1988.59 6906.69,1960.45 6906.69,1931.33 C6906.69,1911.8 6890.14,1900.87 6869.62,1900.87 C6837.51,1900.87 6799.12,1928.02 6799.12,1958.47"/>
<path class="Note" d="M7177.41,2702.56 C7177.41,2716.79 7187.68,2732.68 7214.49,2732.68 C7248.91,2732.68 7284.99,2704.55 7284.99,2675.42 C7284.99,2655.89 7268.44,2644.97 7247.92,2644.97 C7215.81,2644.97 7177.41,2672.11 7177.41,2702.56"/>
<path class="Note" d="M7001.21,1917.13 C7001.21,1931.36 7011.48,1947.25 7038.29,1947.25 C7072.71,1947.25 7108.79,1919.11 7108.79,1889.99 C7108.79,1870.46 7092.24,1859.53 7071.72,1859.53 C7039.61,1859.53 7001.21,1886.68 7001.21,1917.13"/>
<path class="Note" d="M2117.48,1751.77 C2117.48,1766.01 2127.74,1781.9 2154.55,1781.9 C2188.98,1781.9 2225.06,1753.76 2225.06,1724.63 C2225.06,1705.1 2208.51,1694.18 2187.99,1694.18 C2155.88,1694.18 2117.48,1721.32 2117.48,1751.77"/>
<path class="Note" d="M7203.31,1875.79 C7203.31,1890.02 7213.57,1905.91 7240.39,1905.91 C7274.81,1905.91 7310.89,1877.78 7310.89,1848.65 C7310.89,1829.12 7294.34,1818.2 7273.82,1818.2 C7241.71,1818.2 7203.31,1845.34 7203.31,1875.79"/>
<path class="Note" d="M1915.38,1793.11 C1915.38,1807.35 1925.64,1823.23 1952.46,1823.23 C1986.88,1823.23 2022.96,1795.1 2022.96,1765.97 C2022.96,1746.44 2006.41,1735.52 1985.89,1735.52 C1953.78,1735.52 1915.38,1762.66 1915.38,1793.11"/>
<path class="Note" d="M7405.41,1834.45 C7405.41,1848.68 7415.67,1864.57 7442.48,1864.57 C7476.91,1864.57 7512.99,1836.44 7512.99,1807.31 C7512.99,1787.78 7496.44,1776.86 7475.91,1776.86 C7443.81,1776.86 7405.41,1804 7405.41,1834.45"/>
<path class="Note" d="M3161.52,1146.26 C3150.6,1146.26 3148.28,1137.32 3148.28,1134.34 C3148.28,1118.12 3203.89,1089.66 3219.45,1089.66 C3227.39,1089.66 3232.69,1094.29 3232.69,1101.57 C3232.69,1118.12 3176.75,1146.26 3161.52,1146.26 M3207.2,1074.1 C3175.09,1074.1 3136.7,1100.91 3136.7,1131.7 C3136.7,1145.93 3146.96,1161.82 3173.77,1161.82 C3208.19,1161.82 3244.27,1133.68 3244.27,1104.55 C3244.27,1085.02 3227.72,1074.1 3207.2,1074.1"/>
<path class="Note" d="M7708.56,1793.11 C7708.56,1807.35 7718.82,1823.23 7745.63,1823.23 C7780.06,1823.23 7816.13,1795.1 7816.13,1765.97 C7816.13,1746.44 7799.58,1735.52 7779.06,1735.52 C7746.96,1735.52 7708.56,1762.66 7708.56,1793.11"/>
<path class="Note" d="M1713.29,1834.45 C1713.29,1848.68 1723.55,1864.57 1750.36,1864.57 C1784.78,1864.57 1820.86,1836.44 1820.86,1807.31 C1820.86,1787.78 1804.31,1776.86 1783.79,1776.86 C1751.68,1776.86 1713.29,1804 1713.29,1834.45"/>
<path class="Note" d="M1410.14,1751.77 C1410.14,1766.01 1420.4,1781.9 1447.21,1781.9 C1481.63,1781.9 1517.71,1753.76 1517.71,1724.63 C1517.71,1705.1 1501.16,1694.18 1480.64,1694.18 C1448.53,1694.18 1410.14,1721.32 1410.14,1751.77"/>
<path class="Note" d="M6859.58,2702.56 C6859.58,2716.79 6869.84,2732.68 6896.65,2732.68 C6931.08,2732.68 6967.15,2704.55 6967.15,2675.42 C6967.15,2655.89 6950.6,2644.97 6930.08,2644.97 C6897.98,2644.97 6859.58,2672.11 6859.58,2702.56"/>
<path class="Note" d="M8154.76,1766.34 C8143.84,1766.34 8141.52,1757.4 8141.52,1754.42 C8141.52,1738.2 8197.13,1709.74 8212.69,1709.74 C8220.63,1709.74 8225.93,1714.37 8225.93,1721.65 C8225.93,1738.2 8169.99,1766.34 8154.76,1766.34 M8200.44,1694.18 C8168.33,1694.18 8129.94,1720.99 8129.94,1751.77 C8129.94,1766.01 8140.2,1781.9 8167.01,1781.9 C8201.43,1781.9 8237.51,1753.76 8237.51,1724.63 C8237.51,1705.1 8220.96,1694.18 8200.44,1694.18"/>
<path class="Note" d="M6541.74,2743.9 C6541.74,2758.13 6552,2774.02 6578.82,2774.02 C6613.24,2774.02 6649.32,2745.89 6649.32,2716.76 C6649.32,2697.23 6632.77,2686.31 6612.25,2686.31 C6580.14,2686.31 6541.74,2713.45 6541.74,2743.9"/>
<path class="Note" d="M8584.66,1710.44 C8584.66,1724.67 8594.92,1740.56 8621.73,1740.56 C8656.15,1740.56 8692.23,1712.42 8692.23,1683.29 C8692.23,1663.76 8675.68,1652.84 8655.16,1652.84 C8623.05,1652.84 8584.66,1679.98 8584.66,1710.44"/>
<path class="Note" d="M3688.54,1007.68 C3688.54,1021.91 3698.8,1037.8 3725.61,1037.8 C3760.03,1037.8 3796.11,1009.67 3796.11,980.538 C3796.11,961.009 3779.56,950.086 3759.04,950.086 C3726.93,950.086 3688.54,977.228 3688.54,1007.68"/>
<path class="Note" d="M8968.95,883.664 C8968.95,897.897 8979.21,913.785 9006.02,913.785 C9040.45,913.785 9076.52,885.65 9076.52,856.522 C9076.52,836.993 9059.97,826.07 9039.45,826.07 C9007.35,826.07 8968.95,853.212 8968.95,883.664"/>
<path class="Note" d="M6223.91,2702.56 C6223.91,2716.79 6234.17,2732.68 6260.98,2732.68 C6295.4,2732.68 6331.48,2704.55 6331.48,2675.42 C6331.48,2655.89 6314.93,2644.97 6294.41,2644.97 C6262.3,2644.97 6223.91,2672.11 6223.91,2702.56"/>
<path class="Note" d="M8968.95,1751.77 C8968.95,1766.01 8979.21,1781.9 9006.02,1781.9 C9040.45,1781.9 9076.52,1753.76 9076.52,1724.63 C9076.52,1705.1 9059.97,1694.18 9039.45,1694.18 C9007.35,1694.18 8968.95,1721.32 8968.95,1751.77"/>
<path class="Note" d="M8601.05,842.326 C8601.05,856.559 8611.32,872.447 8638.13,872.447 C8672.55,872.447 8708.63,844.312 8708.63,815.184 C8708.63,795.655 8692.08,784.732 8671.56,784.732 C8639.45,784.732 8601.05,811.874 8601.05,842.326"/>
<path class="Note" d="M8190.56,939.567 C8179.64,939.567 8177.32,930.63 8177.32,927.651 C8177.32,911.432 8232.93,882.966 8248.48,882.966 C8256.43,882.966 8261.72,887.6 8261.72,894.882 C8261.72,911.432 8205.79,939.567 8190.56,939.567 M8236.24,867.409 C8204.13,867.409 8165.73,894.22 8165.73,925.003 C8165.73,939.236 8176,955.124 8202.81,955.124 C8237.23,955.124 8273.31,926.989 8273.31,897.861 C8273.31,878.332 8256.76,867.409 8236.24,867.409"/>
<path class="Note" d="M5906.07,2661.22 C5906.07,2675.46 5916.33,2691.34 5943.14,2691.34 C5977.57,2691.34 6013.65,2663.21 6013.65,2634.08 C6013.65,2614.55 5997.1,2603.63 5976.57,2603.63 C5944.47,2603.63 5906.07,2630.77 5906.07,2661.22"/>
<path class="Note" d="M3882.01,966.341 C3882.01,980.574 3892.27,996.462 3919.09,996.462 C3953.51,996.462 3989.59,968.327 3989.59,939.199 C3989.59,919.67 3973.04,908.747 3952.52,908.747 C3920.41,908.747 3882.01,935.889 3882.01,966.341"/>
<path class="Note" d="M7757.29,925.003 C7757.29,939.236 7767.55,955.124 7794.36,955.124 C7828.79,955.124 7864.87,926.989 7864.87,897.861 C7864.87,878.332 7848.32,867.409 7827.8,867.409 C7795.69,867.409 7757.29,894.551 7757.29,925.003"/>
<path class="Note" d="M1410.14,2661.22 C1410.14,2675.46 1420.4,2691.34 1447.21,2691.34 C1481.63,2691.34 1517.71,2663.21 1517.71,2634.08 C1517.71,2614.55 1501.16,2603.63 1480.64,2603.63 C1448.53,2603.63 1410.14,2630.77 1410.14,2661.22"/>
<path class="Note" d="M7467.08,925.003 C7467.08,939.236 7477.34,955.124 7504.15,955.124 C7538.58,955.124 7574.65,926.989 7574.65,897.861 C7574.65,878.332 7558.1,867.409 7537.58,867.409 C7505.48,867.409 7467.08,894.551 7467.08,925.003"/>
<path class="Note" d="M1886.89,2702.56 C1886.89,2716.79 1897.15,2732.68 1923.96,2732.68 C1958.39,2732.68 1994.47,2704.55 1994.47,2675.42 C1994.47,2655.89 1977.92,2644.97 1957.39,2644.97 C1925.29,2644.97 1886.89,2672.11 1886.89,2702.56"/>
<path class="Note" d="M4231.75,925.003 C4231.75,939.236 4242.01,955.124 4268.82,955.124 C4303.25,955.124 4339.33,926.989 4339.33,897.861 C4339.33,878.332 4322.78,867.409 4302.25,867.409 C4270.15,867.409 4231.75,894.551 4231.75,925.003"/>
<path class="Note" d="M7273.6,883.664 C7273.6,897.897 7283.86,913.785 7310.68,913.785 C7345.1,913.785 7381.18,885.65 7381.18,856.522 C7381.18,836.993 7364.63,826.07 7344.11,826.07 C7312,826.07 7273.6,853.212 7273.6,883.664"/>
<path class="Note" d="M2204.73,2661.22 C2204.73,2675.46 2214.99,2691.34 2241.8,2691.34 C2276.22,2691.34 2312.3,2663.21 2312.3,2634.08 C2312.3,2614.55 2295.75,2603.63 2275.23,2603.63 C2243.12,2603.63 2204.73,2630.77 2204.73,2661.22"/>
<path class="Note" d="M7080.13,925.003 C7080.13,939.236 7090.39,955.124 7117.2,955.124 C7151.62,955.124 7187.7,926.989 7187.7,897.861 C7187.7,878.332 7171.15,867.409 7150.63,867.409 C7118.52,867.409 7080.13,894.551 7080.13,925.003"/>
<path class="Note" d="M2522.56,2619.88 C2522.56,2634.12 2532.82,2650.01 2559.63,2650.01 C2594.06,2650.01 2630.14,2621.87 2630.14,2592.74 C2630.14,2573.21 2613.59,2562.29 2593.07,2562.29 C2560.96,2562.29 2522.56,2589.43 2522.56,2619.88"/>
<path class="Note" d="M5470.01,2619.88 C5470.01,2634.12 5480.27,2650.01 5507.08,2650.01 C5541.5,2650.01 5577.58,2621.87 5577.58,2592.74 C5577.58,2573.21 5561.03,2562.29 5540.51,2562.29 C5508.4,2562.29 5470.01,2589.43 5470.01,2619.88"/>
<path class="Note" d="M6886.65,966.341 C6886.65,980.574 6896.91,996.462 6923.72,996.462 C6958.15,996.462 6994.23,968.327 6994.23,939.199 C6994.23,919.67 6977.68,908.747 6957.16,908.747 C6925.05,908.747 6886.65,935.889 6886.65,966.341"/>
<path class="Note" d="M2840.4,2661.22 C2840.4,2675.46 2850.66,2691.34 2877.47,2691.34 C2911.89,2691.34 2947.97,2663.21 2947.97,2634.08 C2947.97,2614.55 2931.42,2603.63 2910.9,2603.63 C2878.79,2603.63 2840.4,2630.77 2840.4,2661.22"/>
<path class="Note" d="M4425.23,966.341 C4425.23,980.574 4435.49,996.462 4462.3,996.462 C4496.72,996.462 4532.8,968.327 4532.8,939.199 C4532.8,919.67 4516.25,908.747 4495.73,908.747 C4463.62,908.747 4425.23,935.889 4425.23,966.341"/>
<path class="Note" d="M3158.23,2702.56 C3158.23,2716.79 3168.49,2732.68 3195.31,2732.68 C3229.73,2732.68 3265.81,2704.55 3265.81,2675.42 C3265.81,2655.89 3249.26,2644.97 3228.74,2644.97 C3196.63,2644.97 3158.23,2672.11 3158.23,2702.56"/>
<path class="Note" d="M6693.18,925.003 C6693.18,939.236 6703.44,955.124 6730.25,955.124 C6764.67,955.124 6800.75,926.989 6800.75,897.861 C6800.75,878.332 6784.2,867.409 6763.68,867.409 C6731.57,867.409 6693.18,894.551 6693.18,925.003"/>
<path class="Note" d="M3476.07,2743.9 C3476.07,2758.13 3486.33,2774.02 3513.14,2774.02 C3547.57,2774.02 3583.64,2745.89 3583.64,2716.76 C3583.64,2697.23 3567.09,2686.31 3546.57,2686.31 C3514.47,2686.31 3476.07,2713.45 3476.07,2743.9"/>
<path class="Note" d="M6164.45,856.89 C6153.53,856.89 6151.21,847.953 6151.21,844.974 C6151.21,828.755 6206.82,800.289 6222.38,800.289 C6230.32,800.289 6235.62,804.923 6235.62,812.205 C6235.62,828.755 6179.68,856.89 6164.45,856.89 M6210.13,784.732 C6178.02,784.732 6139.63,811.543 6139.63,842.326 C6139.63,856.559 6149.89,872.447 6176.7,872.447 C6211.12,872.447 6247.2,844.312 6247.2,815.184 C6247.2,795.655 6230.65,784.732 6210.13,784.732"/>
<path class="Note" d="M5729.13,939.567 C5718.21,939.567 5715.89,930.63 5715.89,927.651 C5715.89,911.432 5771.5,882.966 5787.06,882.966 C5795,882.966 5800.3,887.6 5800.3,894.882 C5800.3,911.432 5744.36,939.567 5729.13,939.567 M5774.81,867.409 C5742.7,867.409 5704.31,894.22 5704.31,925.003 C5704.31,939.236 5714.57,955.124 5741.38,955.124 C5775.8,955.124 5811.88,926.989 5811.88,897.861 C5811.88,878.332 5795.33,867.409 5774.81,867.409"/>
<path class="Note" d="M5295.87,925.003 C5295.87,939.236 5306.13,955.124 5332.94,955.124 C5367.36,955.124 5403.44,926.989 5403.44,897.861 C5403.44,878.332 5386.89,867.409 5366.37,867.409 C5334.26,867.409 5295.87,894.551 5295.87,925.003"/>
<path class="Note" d="M3912.13,2702.56 C3912.13,2716.79 3922.39,2732.68 3949.21,2732.68 C3983.63,2732.68 4019.71,2704.55 4019.71,2675.42 C4019.71,2655.89 4003.16,2644.97 3982.64,2644.97 C3950.53,2644.97 3912.13,2672.11 3912.13,2702.56"/>
<path class="Note" d="M5005.65,925.003 C5005.65,939.236 5015.91,955.124 5042.73,955.124 C5077.15,955.124 5113.23,926.989 5113.23,897.861 C5113.23,878.332 5096.68,867.409 5076.16,867.409 C5044.05,867.409 5005.65,894.551 5005.65,925.003"/>
<path class="Note" d="M4388.89,2867.92 C4388.89,2882.15 4399.15,2898.04 4425.96,2898.04 C4460.38,2898.04 4496.46,2869.9 4496.46,2840.77 C4496.46,2821.25 4479.91,2810.32 4459.39,2810.32 C4427.28,2810.32 4388.89,2837.46 4388.89,2867.92"/>
<path class="Note" d="M4812.18,883.664 C4812.18,897.897 4822.44,913.785 4849.25,913.785 C4883.67,913.785 4919.75,885.65 4919.75,856.522 C4919.75,836.993 4903.2,826.07 4882.68,826.07 C4850.57,826.07 4812.18,853.212 4812.18,883.664"/>
<path class="Note" d="M4865.64,2578.55 C4865.64,2592.78 4875.9,2608.67 4902.71,2608.67 C4937.14,2608.67 4973.22,2580.53 4973.22,2551.4 C4973.22,2531.88 4956.67,2520.95 4936.14,2520.95 C4904.04,2520.95 4865.64,2548.09 4865.64,2578.55"/>
<path class="Note" d="M4596.36,1849.02 C4585.43,1849.02 4583.12,1840.08 4583.12,1837.1 C4583.12,1820.88 4638.72,1792.41 4654.28,1792.41 C4662.23,1792.41 4667.52,1797.05 4667.52,1804.33 C4667.52,1820.88 4611.58,1849.02 4596.36,1849.02 M4642.03,1776.86 C4609.93,1776.86 4571.53,1803.67 4571.53,1834.45 C4571.53,1848.68 4581.79,1864.57 4608.6,1864.57 C4643.03,1864.57 4679.11,1836.44 4679.11,1807.31 C4679.11,1787.78 4662.56,1776.86 4642.03,1776.86"/>
<path class="Clef" d="M909.689,2880.86 C903.069,2882.19 896.78,2882.85 890.491,2882.85 C843.158,2882.85 802.776,2849.75 802.776,2799.77 C802.776,2759.38 831.242,2723.31 860.37,2698.15 C865.997,2693.18 871.293,2688.55 876.258,2683.59 C879.237,2701.46 881.554,2717.02 883.871,2730.59 C853.75,2739.52 833.228,2771.3 833.228,2802.41 C833.228,2825.58 851.433,2857.36 877.913,2857.36 C880.561,2857.36 883.54,2856.04 883.54,2853.06 C883.54,2850.08 880.23,2848.42 876.258,2845.78 C863.349,2837.83 856.067,2829.23 856.067,2813.01 C856.067,2792.82 870.962,2776.6 890.491,2771.96 L909.689,2880.86 M880.561,2540.59 C883.54,2527.35 898.766,2492.6 915.978,2492.6 C920.943,2492.6 928.887,2508.82 928.887,2531.66 C928.887,2566.08 903.4,2591.9 880.561,2614.41 C878.575,2601.17 876.92,2588.26 876.92,2574.36 C876.92,2562.11 877.913,2550.85 880.561,2540.59 M956.691,2819.63 C956.691,2843.13 947.092,2867.29 923.591,2876.89 C916.64,2837.17 907.703,2784.54 905.386,2769.98 C935.176,2769.98 956.691,2790.17 956.691,2819.63 M811.051,2982.48 C811.051,3004.32 827.932,3033.12 872.617,3033.12 C888.174,3033.12 901.745,3029.15 913.661,3021.87 C931.535,3009.29 936.169,2987.44 936.169,2966.59 C936.169,2953.68 934.183,2938.79 930.873,2919.92 C929.88,2913.3 927.894,2903.37 925.908,2890.46 C958.346,2879.87 982.509,2846.11 982.509,2812.01 C982.509,2762.03 947.092,2728.27 898.766,2728.27 C895.456,2708.41 892.146,2688.88 889.167,2670.35 C924.253,2633.6 948.416,2592.23 948.416,2539.6 C948.416,2509.48 939.148,2484.99 933.852,2473.07 C925.908,2456.19 916.309,2444.6 910.351,2444.6 C908.034,2444.6 897.773,2448.58 886.85,2461.48 C865.666,2486.64 859.708,2529.01 859.708,2556.81 C859.708,2574.69 861.363,2590.91 866.99,2627.98 C866.659,2628.31 849.447,2645.85 842.496,2651.48 C812.375,2679.61 770.669,2719.66 770.669,2785.86 C770.669,2847.76 824.622,2896.42 886.188,2896.42 C895.787,2896.42 904.724,2895.43 912.337,2894.1 C918.626,2925.88 922.267,2949.05 922.267,2966.59 C922.267,3001.01 904.724,3019.22 871.293,3019.22 C863.349,3019.22 856.398,3017.56 855.736,3017.56 C855.405,3017.23 854.743,3016.9 854.743,3016.57 C854.743,3015.91 855.405,3015.58 856.398,3015.25 C871.955,3012.93 887.512,2999.69 887.512,2978.51 C887.512,2960.63 873.941,2941.77 849.116,2941.77 C825.946,2941.77 811.051,2960.63 811.051,2982.48"/>
<path class="Clef" d="M909.689,1144.64 C903.069,1145.97 896.78,1146.63 890.491,1146.63 C843.158,1146.63 802.776,1113.53 802.776,1063.55 C802.776,1023.16 831.242,987.085 860.37,961.929 C865.997,956.964 871.293,952.33 876.258,947.365 C879.237,965.239 881.554,980.796 883.871,994.367 C853.75,1003.3 833.228,1035.08 833.228,1066.19 C833.228,1089.36 851.433,1121.14 877.913,1121.14 C880.561,1121.14 883.54,1119.82 883.54,1116.84 C883.54,1113.86 880.23,1112.2 876.258,1109.56 C863.349,1101.61 856.067,1093.01 856.067,1076.79 C856.067,1056.6 870.962,1040.38 890.491,1035.74 L909.689,1144.64 M880.561,804.373 C883.54,791.133 898.766,756.378 915.978,756.378 C920.943,756.378 928.887,772.597 928.887,795.436 C928.887,829.86 903.4,855.678 880.561,878.186 C878.575,864.946 876.92,852.037 876.92,838.135 C876.92,825.888 877.913,814.634 880.561,804.373 M956.691,1083.41 C956.691,1106.91 947.092,1131.07 923.591,1140.67 C916.64,1100.95 907.703,1048.32 905.386,1033.76 C935.176,1033.76 956.691,1053.95 956.691,1083.41 M811.051,1246.26 C811.051,1268.1 827.932,1296.9 872.617,1296.9 C888.174,1296.9 901.745,1292.93 913.661,1285.65 C931.535,1273.07 936.169,1251.22 936.169,1230.37 C936.169,1217.46 934.183,1202.57 930.873,1183.7 C929.88,1177.08 927.894,1167.15 925.908,1154.24 C958.346,1143.65 982.509,1109.89 982.509,1075.79 C982.509,1025.81 947.092,992.05 898.766,992.05 C895.456,972.19 892.146,952.661 889.167,934.125 C924.253,897.384 948.416,856.009 948.416,803.38 C948.416,773.259 939.148,748.765 933.852,736.849 C925.908,719.968 916.309,708.383 910.351,708.383 C908.034,708.383 897.773,712.355 886.85,725.264 C865.666,750.42 859.708,792.788 859.708,820.592 C859.708,838.466 861.363,854.685 866.99,891.757 C866.659,892.088 849.447,909.631 842.496,915.258 C812.375,943.393 770.669,983.444 770.669,1049.64 C770.669,1111.54 824.622,1160.2 886.188,1160.2 C895.787,1160.2 904.724,1159.21 912.337,1157.88 C918.626,1189.66 922.267,1212.83 922.267,1230.37 C922.267,1264.79 904.724,1283 871.293,1283 C863.349,1283 856.398,1281.34 855.736,1281.34 C855.405,1281.01 854.743,1280.68 854.743,1280.35 C854.743,1279.69 855.405,1279.36 856.398,1279.03 C871.955,1276.71 887.512,1263.47 887.512,1242.29 C887.512,1224.41 873.941,1205.55 849.116,1205.55 C825.946,1205.55 811.051,1224.41 811.051,1246.26"/>
<path class="Clef" d="M909.689,2012.75 C903.069,2014.08 896.78,2014.74 890.491,2014.74 C843.158,2014.74 802.776,1981.64 802.776,1931.66 C802.776,1891.27 831.242,1855.2 860.37,1830.04 C865.997,1825.07 871.293,1820.44 876.258,1815.48 C879.237,1833.35 881.554,1848.91 883.871,1862.48 C853.75,1871.41 833.228,1903.19 833.228,1934.3 C833.228,1957.47 851.433,1989.25 877.913,1989.25 C880.561,1989.25 883.54,1987.93 883.54,1984.95 C883.54,1981.97 880.23,1980.31 876.258,1977.67 C863.349,1969.72 856.067,1961.12 856.067,1944.9 C856.067,1924.71 870.962,1908.49 890.491,1903.85 L909.689,2012.75 M880.561,1672.48 C883.54,1659.24 898.766,1624.49 915.978,1624.49 C920.943,1624.49 928.887,1640.71 928.887,1663.55 C928.887,1697.97 903.4,1723.79 880.561,1746.3 C878.575,1733.06 876.92,1720.15 876.92,1706.25 C876.92,1694 877.913,1682.74 880.561,1672.48 M956.691,1951.52 C956.691,1975.02 947.092,1999.18 923.591,2008.78 C916.64,1969.06 907.703,1916.43 905.386,1901.87 C935.176,1901.87 956.691,1922.06 956.691,1951.52 M811.051,2114.37 C811.051,2136.21 827.932,2165.01 872.617,2165.01 C888.174,2165.01 901.745,2161.04 913.661,2153.76 C931.535,2141.18 936.169,2119.33 936.169,2098.48 C936.169,2085.57 934.183,2070.68 930.873,2051.81 C929.88,2045.19 927.894,2035.26 925.908,2022.35 C958.346,2011.76 982.509,1978 982.509,1943.9 C982.509,1893.92 947.092,1860.16 898.766,1860.16 C895.456,1840.3 892.146,1820.77 889.167,1802.24 C924.253,1765.49 948.416,1724.12 948.416,1671.49 C948.416,1641.37 939.148,1616.88 933.852,1604.96 C925.908,1588.08 916.309,1576.49 910.351,1576.49 C908.034,1576.49 897.773,1580.47 886.85,1593.37 C865.666,1618.53 859.708,1660.9 859.708,1688.7 C859.708,1706.58 861.363,1722.8 866.99,1759.87 C866.659,1760.2 849.447,1777.74 842.496,1783.37 C812.375,1811.5 770.669,1851.55 770.669,1917.75 C770.669,1979.65 824.622,2028.31 886.188,2028.31 C895.787,2028.31 904.724,2027.32 912.337,2025.99 C918.626,2057.77 922.267,2080.94 922.267,2098.48 C922.267,2132.9 904.724,2151.11 871.293,2151.11 C863.349,2151.11 856.398,2149.45 855.736,2149.45 C855.405,2149.12 854.743,2148.79 854.743,2148.46 C854.743,2147.8 855.405,2147.47 856.398,2147.14 C871.955,2144.82 887.512,2131.58 887.512,2110.4 C887.512,2092.52 873.941,2073.66 849.116,2073.66 C825.946,2073.66 811.051,2092.52 811.051,2114.37"/>
<path class="KeySig" d="M1088.05,980.538 C1088.05,1006.69 1074.48,1020.59 1055.28,1035.82 L1056.27,971.27 C1056.93,968.291 1061.9,958.692 1075.14,958.692 C1087.06,958.692 1088.05,969.946 1088.05,976.897 L1088.05,980.538 M1084.08,942.473 C1067.53,942.473 1057.93,952.734 1056.27,954.72 L1057.6,848.469 C1057.6,845.821 1055.61,843.835 1052.96,843.835 L1048.99,843.835 C1046.34,843.835 1044.36,845.821 1044.36,848.469 L1046.01,1047.4 C1046.01,1050.05 1048,1052.03 1050.65,1052.03 C1051.31,1052.03 1052.63,1051.7 1053.29,1051.37 C1081.76,1037.14 1111.55,1010 1111.55,975.904 C1111.55,958.692 1103.61,942.473 1084.08,942.473"/>
<path class="KeySig" d="M1179.99,856.522 C1179.99,882.671 1166.42,896.573 1147.22,911.799 L1148.21,847.254 C1148.87,844.275 1153.84,834.676 1167.08,834.676 C1178.99,834.676 1179.99,845.93 1179.99,852.881 L1179.99,856.522 M1176.01,818.457 C1159.46,818.457 1149.87,828.718 1148.21,830.704 L1149.53,724.453 C1149.53,721.805 1147.55,719.819 1144.9,719.819 L1140.93,719.819 C1138.28,719.819 1136.29,721.805 1136.29,724.453 L1137.95,923.384 C1137.95,926.032 1139.94,928.018 1142.58,928.018 C1143.25,928.018 1144.57,927.687 1145.23,927.356 C1173.7,913.123 1203.49,885.981 1203.49,851.888 C1203.49,834.676 1195.54,818.457 1176.01,818.457"/>
<path class="KeySig" d="M1088.05,1848.65 C1088.05,1874.8 1074.48,1888.7 1055.28,1903.93 L1056.27,1839.38 C1056.93,1836.4 1061.9,1826.8 1075.14,1826.8 C1087.06,1826.8 1088.05,1838.06 1088.05,1845.01 L1088.05,1848.65 M1084.08,1810.58 C1067.53,1810.58 1057.93,1820.84 1056.27,1822.83 L1057.6,1716.58 C1057.6,1713.93 1055.61,1711.95 1052.96,1711.95 L1048.99,1711.95 C1046.34,1711.95 1044.36,1713.93 1044.36,1716.58 L1046.01,1915.51 C1046.01,1918.16 1048,1920.14 1050.65,1920.14 C1051.31,1920.14 1052.63,1919.81 1053.29,1919.48 C1081.76,1905.25 1111.55,1878.11 1111.55,1844.01 C1111.55,1826.8 1103.61,1810.58 1084.08,1810.58"/>
<path class="KeySig" d="M1179.99,1724.63 C1179.99,1750.78 1166.42,1764.68 1147.22,1779.91 L1148.21,1715.36 C1148.87,1712.39 1153.84,1702.79 1167.08,1702.79 C1178.99,1702.79 1179.99,1714.04 1179.99,1720.99 L1179.99,1724.63 M1176.01,1686.57 C1159.46,1686.57 1149.87,1696.83 1148.21,1698.81 L1149.53,1592.56 C1149.53,1589.92 1147.55,1587.93 1144.9,1587.93 L1140.93,1587.93 C1138.28,1587.93 1136.29,1589.92 1136.29,1592.56 L1137.95,1791.49 C1137.95,1794.14 1139.94,1796.13 1142.58,1796.13 C1143.25,1796.13 1144.57,1795.8 1145.23,1795.47 C1173.7,1781.23 1203.49,1754.09 1203.49,1720 C1203.49,1702.79 1195.54,1686.57 1176.01,1686.57"/>
<path class="KeySig" d="M1088.05,2716.76 C1088.05,2742.91 1074.48,2756.81 1055.28,2772.04 L1056.27,2707.49 C1056.93,2704.51 1061.9,2694.91 1075.14,2694.91 C1087.06,2694.91 1088.05,2706.17 1088.05,2713.12 L1088.05,2716.76 M1084.08,2678.69 C1067.53,2678.69 1057.93,2688.95 1056.27,2690.94 L1057.6,2584.69 C1057.6,2582.04 1055.61,2580.06 1052.96,2580.06 L1048.99,2580.06 C1046.34,2580.06 1044.36,2582.04 1044.36,2584.69 L1046.01,2783.62 C1046.01,2786.27 1048,2788.25 1050.65,2788.25 C1051.31,2788.25 1052.63,2787.92 1053.29,2787.59 C1081.76,2773.36 1111.55,2746.22 1111.55,2712.12 C1111.55,2694.91 1103.61,2678.69 1084.08,2678.69"/>
<path class="KeySig" d="M1179.99,2592.74 C1179.99,2618.89 1166.42,2632.79 1147.22,2648.02 L1148.21,2583.47 C1148.87,2580.5 1153.84,2570.9 1167.08,2570.9 C1178.99,2570.9 1179.99,2582.15 1179.99,2589.1 L1179.99,2592.74 M1176.01,2554.68 C1159.46,2554.68 1149.87,2564.94 1148.21,2566.92 L1149.53,2460.67 C1149.53,2458.03 1147.55,2456.04 1144.9,2456.04 L1140.93,2456.04 C1138.28,2456.04 1136.29,2458.03 1136.29,2460.67 L1137.95,2659.6 C1137.95,2662.25 1139.94,2664.24 1142.58,2664.24 C1143.25,2664.24 1144.57,2663.91 1145.23,2663.58 C1173.7,2649.34 1203.49,2622.2 1203.49,2588.11 C1203.49,2570.9 1195.54,2554.68 1176.01,2554.68"/>
<path class="TimeSig" d="M1393.7,934.529 C1385.42,939.825 1379.46,949.424 1379.46,960.016 C1379.46,961.34 1379.46,962.664 1379.79,963.988 C1381.45,977.559 1392.37,988.151 1405.94,989.806 L1409.58,989.806 C1426.13,989.806 1439.37,976.566 1439.37,960.016 L1439.37,958.03 C1439.37,956.706 1439.04,954.389 1438.71,953.065 C1435.73,938.832 1422.82,908.38 1366.55,908.38 C1294.4,908.38 1286.12,968.291 1286.12,989.806 C1286.12,1029.2 1291.09,1078.51 1373.84,1078.51 C1406.61,1078.51 1432.09,1059.32 1433.42,1023.9 C1433.42,1022.24 1432.42,1021.25 1430.77,1021.25 L1426.47,1021.25 C1425.14,1021.25 1423.82,1022.58 1423.82,1023.9 C1422.49,1051.37 1402.96,1067.92 1373.84,1067.92 C1345.04,1067.92 1331.14,1052.37 1331.14,1023.24 L1331.14,960.016 C1331.14,941.48 1338.42,920.296 1367.88,920.296 C1383.44,920.296 1390.39,925.923 1394.03,931.55 C1394.36,932.212 1394.36,932.543 1394.36,933.205 C1394.36,933.536 1394.36,934.198 1393.7,934.529"/>
<path class="Beam" fill-rule="evenodd" d="M5906.07,2936.69 L6867.85,2936.69 L6867.85,2978.03 L5906.07,2978.03 L5906.07,2936.69 "/>
<path class="Beam" fill-rule="evenodd" d="M3688.54,1200.36 L3890.28,1179.69 L3890.28,1221.25 L3688.54,1241.92 L3688.54,1200.36 "/>
<path class="Beam" fill-rule="evenodd" d="M1886.89,2895.31 L2212.99,2874.64 L2212.99,2916.06 L1886.89,2936.73 L1886.89,2895.31 "/>
<path class="Beam" fill-rule="evenodd" d="M4231.75,1159.13 L4820.45,1159.13 L4820.45,1200.47 L4231.75,1200.47 L4231.75,1159.13 "/>
<path class="Beam" fill-rule="evenodd" d="M1713.29,2027.14 L1923.65,2006.47 L1923.65,2048.01 L1713.29,2068.68 L1713.29,2027.14 "/>
<path class="Beam" fill-rule="evenodd" d="M2117.48,2006.47 L2732.05,2068.48 L2732.05,2110.02 L2117.48,2048.02 L2117.48,2006.47 "/>
<path class="Beam" fill-rule="evenodd" d="M6696.23,1675.76 L7310.79,1613.75 L7310.79,1655.3 L6696.23,1717.31 L6696.23,1675.76 "/>
<path class="Beam" fill-rule="evenodd" d="M2522.56,2874.64 L3484.34,2936.65 L3484.34,2978.07 L2522.56,2916.07 L2522.56,2874.64 "/>
<path class="Beam" fill-rule="evenodd" d="M1703.83,910.993 L1905.57,890.323 L1905.57,931.878 L1703.83,952.548 L1703.83,910.993 "/>
<path class="Beam" fill-rule="evenodd" d="M4118.91,1634.43 L4329.27,1613.76 L4329.27,1655.29 L4118.91,1675.96 L4118.91,1634.43 "/>
<path class="Beam" fill-rule="evenodd" d="M6693.18,1159.13 L7281.87,1159.13 L7281.87,1200.47 L6693.18,1200.47 L6693.18,1159.13 "/>
<path class="NoteDot" d="M8749.89,787.085 C8749.89,796.353 8757.17,803.635 8766.44,803.635 C8775.7,803.635 8782.99,796.353 8782.99,787.085 C8782.99,777.817 8775.7,770.535 8766.44,770.535 C8757.17,770.535 8749.89,777.817 8749.89,787.085"/>
<path class="NoteDot" d="M8733.49,1655.2 C8733.49,1664.46 8740.77,1671.75 8750.04,1671.75 C8759.31,1671.75 8766.59,1664.46 8766.59,1655.2 C8766.59,1645.93 8759.31,1638.65 8750.04,1638.65 C8740.77,1638.65 8733.49,1645.93 8733.49,1655.2"/>
<path class="NoteDot" d="M3285.53,1117.79 C3285.53,1127.06 3292.81,1134.34 3302.08,1134.34 C3311.35,1134.34 3318.63,1127.06 3318.63,1117.79 C3318.63,1108.53 3311.35,1101.24 3302.08,1101.24 C3292.81,1101.24 3285.53,1108.53 3285.53,1117.79"/>
<path class="NoteDot" d="M7326.25,2688.66 C7326.25,2697.93 7333.53,2705.21 7342.8,2705.21 C7352.07,2705.21 7359.35,2697.93 7359.35,2688.66 C7359.35,2679.39 7352.07,2672.11 7342.8,2672.11 C7333.53,2672.11 7326.25,2679.39 7326.25,2688.66"/>
<path class="NoteDot" d="M3222.35,1820.55 C3222.35,1829.82 3229.63,1837.1 3238.9,1837.1 C3248.17,1837.1 3255.45,1829.82 3255.45,1820.55 C3255.45,1811.28 3248.17,1804 3238.9,1804 C3229.63,1804 3222.35,1811.28 3222.35,1820.55"/>
<path class="NoteDot" d="M5748.04,1820.55 C5748.04,1829.82 5755.32,1837.1 5764.59,1837.1 C5773.85,1837.1 5781.14,1829.82 5781.14,1820.55 C5781.14,1811.28 5773.85,1804 5764.59,1804 C5755.32,1804 5748.04,1811.28 5748.04,1820.55"/>
<path class="NoteDot" d="M8366.68,2688.66 C8366.68,2697.93 8373.96,2705.21 8383.23,2705.21 C8392.5,2705.21 8399.78,2697.93 8399.78,2688.66 C8399.78,2679.39 8392.5,2672.11 8383.23,2672.11 C8373.96,2672.11 8366.68,2679.39 8366.68,2688.66"/>
<path class="NoteDot" d="M5014.47,2523.31 C5014.47,2532.57 5021.76,2539.86 5031.02,2539.86 C5040.29,2539.86 5047.57,2532.57 5047.57,2523.31 C5047.57,2514.04 5040.29,2506.76 5031.02,2506.76 C5021.76,2506.76 5014.47,2514.04 5014.47,2523.31"/>
</svg>
