<?xml version="1.0" encoding="UTF-8" standalone="no"?>
<svg
   width="681"
   height="186.10622"
   version="1.2"
   id="svg219"
   xmlns="http://www.w3.org/2000/svg"
   xmlns:svg="http://www.w3.org/2000/svg"
   xmlns:rdf="http://www.w3.org/1999/02/22-rdf-syntax-ns#"
   xmlns:cc="http://creativecommons.org/ns#"
   xmlns:dc="http://purl.org/dc/elements/1.1/">
  <defs
     id="defs219" />
  <title
     id="title1">air_XLVI</title>
  <desc
     id="desc1">Generated by MuseScore Studio 4.7.3</desc>
  <path
     id="path219"
     class="NoteDot"
     d="m 340.28705,145.2935 c 0,0.74131 0.5828,1.32491 1.32491,1.32491 0.74211,0 1.32491,-0.5836 1.32491,-1.32491 0,-0.7421 -0.5828,-1.3249 -1.32491,-1.3249 -0.74211,0 -1.32491,0.5828 -1.32491,1.3249 m 298.34159,19.85598 c 0,0.74211 0.5828,1.32491 1.32491,1.32491 0.74211,0 1.32491,-0.5828 1.32491,-1.32491 0,-0.74211 -0.5828,-1.32491 -1.32491,-1.32491 -0.74211,0 -1.32491,0.5828 -1.32491,1.32491 M 277.9028,82.415311 c 0,0.742108 0.5836,1.324906 1.32491,1.324906 0.7421,0 1.3249,-0.582798 1.3249,-1.324906 0,-0.742107 -0.5828,-1.324906 -1.3249,-1.324906 -0.74131,0 -1.32491,0.582799 -1.32491,1.324906 m -67.88482,0 c 0,0.742108 0.5828,1.324906 1.32491,1.324906 0.74211,0 1.32491,-0.582798 1.32491,-1.324906 0,-0.742107 -0.5828,-1.324906 -1.32491,-1.324906 -0.74211,0 -1.32491,0.582799 -1.32491,1.324906 m 335.0603,82.734169 c 0,0.74211 0.5828,1.32491 1.32491,1.32491 0.7421,0 1.3249,-0.5828 1.3249,-1.32491 0,-0.74211 -0.5828,-1.32491 -1.3249,-1.32491 -0.74211,0 -1.32491,0.5828 -1.32491,1.32491 m -169.70003,-0.004 50.10226,3.30946 v 3.31667 l -50.10226,-3.30946 v -3.31667 m -19.13388,-56.25527 h 35.01113 v 3.30947 h -35.01113 v -3.30947 m -209.66576,-6.62052 35.01194,1.65473 v 3.31266 l -35.01194,-1.65393 v -3.31346 m 323.53802,4.96419 35.01113,1.65473 v 3.31267 l -35.01113,-1.65473 v -3.31267 M 450.24624,2.9911652 h 41.827 v 3.3093027 h -41.827 V 2.9911652 M 575.40141,112.19968 h 35.01114 v 3.30946 h -35.01114 v -3.30946 m -525.520117,66.18365 50.102254,3.30866 v 3.31667 L 49.881293,181.7 v -3.31667 M 626.92544,105.58075 h 35.01194 v 3.30946 h -35.01194 v -3.30946 m -219.15705,-1.65473 h 35.01194 v 3.30946 h -35.01194 v -3.30946 m 51.23504,72.80498 50.10145,1.65473 v 3.31106 l -50.10145,-1.65473 V 176.731 M 154.27667,2.9898043 196.10447,4.6445357 V 7.9564802 L 154.27667,6.3017488 V 2.9898043 m 471.72654,0 41.827,1.6547314 v 3.3119445 l -41.827,-1.6547314 V 2.9898043 M 46.657489,28.195038 c -1.801231,-0.582798 -3.788991,-1.457796 -3.788991,-2.649812 0,-1.033506 0.954253,-1.457796 2.093432,-1.457796 1.642723,0 2.755484,0.768525 2.755484,1.987759 0,1.27207 -0.582799,1.881286 -1.059925,2.119849 m -1.695559,6.280294 c -1.69556,0 -3.153356,-0.927834 -3.153356,-2.412049 0,-1.774813 1.377742,-2.199103 1.377742,-2.199103 1.802032,0.609216 4.372589,1.510632 4.372589,2.967629 0,0.715689 -0.927834,1.643523 -2.596975,1.643523 m 3.179774,-5.564604 c 0.874198,-0.662854 1.484215,-1.510633 1.484215,-2.570558 0,-1.907704 -2.093432,-3.471414 -4.663989,-3.471414 -2.570558,0 -4.663989,1.56371 -4.663989,3.471414 0,1.059925 0.264981,2.013377 1.510633,2.80832 -1.192015,0.689271 -1.854869,1.669942 -1.854869,2.942012 0,2.146267 2.252741,3.868245 5.008225,3.868245 2.755484,0 5.008224,-1.721978 5.008224,-3.868245 0,-1.27207 -0.450708,-2.464886 -1.82845,-3.179774 m -2.942012,-7.184753 c -0.874197,0 -1.589887,-1.192415 -1.589887,-2.67631 0,-1.483894 0.71569,-2.702808 1.589887,-2.702808 0.874198,0 1.616306,1.218914 1.616306,2.702808 0,1.483895 -0.742108,2.67631 -1.616306,2.67631 m 0.980671,-6.624529 c -1.616305,0 -2.199904,0.476966 -2.570558,0.874437 -0.07925,-0.55646 -0.13209,-0.98043 -0.13209,-1.4044 0,-1.510393 0.529962,-3.471253 2.384831,-3.471253 0.662052,0 1.059924,0.211985 1.324905,0.503464 -0.55718,0.238483 -1.007088,0.953932 -1.007088,1.563389 0,0.953932 0.742107,1.69588 1.695559,1.69588 0.954253,0 1.722778,-0.741948 1.722778,-1.69588 v -0.07949 c 0,-0.238483 -0.05364,-0.635955 -0.159309,-0.84794 -0.344235,-0.953932 -1.456996,-2.3583327 -4.106808,-2.3583327 -2.38483,0 -4.107608,2.2788377 -4.637571,3.4977517 -0.264981,0.635955 -0.662052,1.934363 -0.662052,3.418257 0,1.616385 0.449907,3.444755 2.013376,4.822658 1.537051,1.165917 2.517722,1.218913 3.444756,1.218913 0.927834,0 4.399007,-1.086423 4.399007,-4.160204 0,-2.596816 -2.040595,-3.577246 -3.709736,-3.577246 m -17.239788,62.043862 2.358413,-0.477126 v 4.372589 l -2.358413,0.503545 v -4.399008 m 4.107609,-0.821362 c 0.159309,-0.02642 0.291399,-0.212145 0.291399,-0.371454 v -1.562668 c 0,-0.212145 -0.159309,-0.371454 -0.370653,-0.371454 h -0.05364 l -0.874198,0.185727 v -3.9483 h -0.742107 v 4.106808 l -2.358413,0.477126 v -3.736154 h -0.741307 v 3.895463 l -1.033506,0.212145 c -0.159309,0.02642 -0.2914,0.211345 -0.2914,0.370654 v 1.537051 c 0,0.212145 0.158509,0.370653 0.370654,0.370653 h 0.07925 l 0.874998,-0.184926 v 4.371789 l -1.033506,0.212145 c -0.159309,0.02642 -0.2914,0.212145 -0.2914,0.370654 v 1.53705 c 0,0.212146 0.158509,0.370654 0.370654,0.370654 h 0.07925 l 0.874998,-0.184927 v 3.9483 h 0.741307 v -4.107608 l 2.358413,-0.477127 v 3.736155 h 0.742107 v -3.894663 l 1.007089,-0.185727 c 0.159309,-0.02642 0.291399,-0.212145 0.291399,-0.370653 v -1.56347 c 0,-0.212145 -0.159309,-0.371453 -0.370653,-0.371453 h -0.05364 l -0.874198,0.185726 V 76.509677 L 33.04817,76.32395 M 28.940575,7.64899 31.298988,7.1720239 v 4.3721891 l -2.358413,0.503465 V 7.64899 m 4.107609,-0.8214417 c 0.159309,-0.026498 0.291399,-0.2119849 0.291399,-0.3709736 v -1.563389 c 0,-0.2119849 -0.159309,-0.3709736 -0.370653,-0.3709736 H 32.91529 L 32.041095,4.7076989 V 0.75947929 H 31.298988 V 4.8666876 L 28.940575,5.3436537 V 1.6074191 h -0.741307 v 3.8952233 l -1.033506,0.211985 c -0.159309,0.026498 -0.2914,0.2119849 -0.2914,0.3709736 v 1.5368909 c 0,0.2119849 0.158509,0.3709736 0.370654,0.3709736 h 0.07925 l 0.874998,-0.1854868 v 4.3721893 l -1.033506,0.211985 c -0.159309,0.0265 -0.2914,0.211985 -0.2914,0.370974 v 1.536891 c 0,0.211985 0.158509,0.370973 0.370654,0.370973 h 0.07925 l 0.874998,-0.185487 v 3.94822 h 0.741307 V 14.326516 L 31.29898,13.84955 v 3.736234 h 0.742107 v -3.895223 l 1.007089,-0.185487 c 0.159309,-0.0265 0.291399,-0.211985 0.291399,-0.370974 v -1.563389 c 0,-0.211984 -0.159309,-0.370973 -0.370653,-0.370973 h -0.05364 l -0.874198,0.185487 V 7.0130351 l 1.0071,-0.1854868 M 28.940575,146.64163 31.298988,146.1645 v 4.37259 l -2.358413,0.50354 v -4.399 m 4.107609,-0.82137 c 0.159309,-0.0264 0.291399,-0.21214 0.291399,-0.37065 v -1.56347 c 0,-0.21214 -0.159309,-0.37145 -0.370653,-0.37145 h -0.05364 l -0.874198,0.18572 v -3.94829 h -0.742107 v 4.1076 l -2.358413,0.47633 v -3.73616 h -0.741307 v 3.89547 l -1.033506,0.21214 c -0.159309,0.0264 -0.2914,0.21215 -0.2914,0.37066 v 1.53705 c 0,0.21214 0.158509,0.37065 0.370654,0.37065 h 0.07925 l 0.874998,-0.18493 v 4.37179 l -1.033506,0.21215 c -0.159309,0.0264 -0.2914,0.21214 -0.2914,0.37065 v 1.53705 c 0,0.21215 0.158509,0.37146 0.370654,0.37146 h 0.07925 l 0.874998,-0.18573 v 3.9483 h 0.741307 v -4.10761 l 2.358413,-0.47712 v 3.73695 h 0.742107 v -3.89546 l 1.007089,-0.18573 c 0.159309,-0.0264 0.291399,-0.21215 0.291399,-0.37065 v -1.56347 c 0,-0.21215 -0.159309,-0.37146 -0.370653,-0.37146 h -0.05364 l -0.874198,0.18573 v -4.37179 l 1.007089,-0.18573 m -16.954873,28.09682 c -0.529962,0.10647 -1.033427,0.1593 -1.536891,0.1593 -3.789231,0 -7.0220012,-2.64981 -7.0220012,-6.65094 0,-3.23341 2.2788382,-6.12099 4.6106722,-8.13517 0.450468,-0.39787 0.874438,-0.76852 1.27191,-1.16559 0.238483,1.43058 0.42397,2.67623 0.609457,3.76257 -2.411329,0.71489 -4.0542123,3.25903 -4.0542123,5.74953 0,1.85487 1.4573963,4.39901 3.5772463,4.39901 0.211985,0 0.450468,-0.10567 0.450468,-0.34424 0,-0.23856 -0.264982,-0.37145 -0.582959,-0.58279 -1.033427,-0.63644 -1.616385,-1.32491 -1.616385,-2.6234 0,-1.6163 1.192415,-2.91479 2.755804,-3.28625 l 1.536891,8.71797 m -2.331834,-27.24023 c 0.238483,-1.05992 1.457396,-3.84183 2.835298,-3.84183 0.397472,0 1.033427,1.29849 1.033427,3.12694 0,2.75549 -2.040355,4.8225 -3.868725,6.62453 -0.158989,-1.05992 -0.29148,-2.09343 -0.29148,-3.20619 0,-0.98067 0.0795,-1.88209 0.29148,-2.70345 m 6.094567,22.33847 c 0,1.88129 -0.768446,3.81541 -2.649812,4.58394 -0.556461,-3.17978 -1.27191,-7.39306 -1.457397,-8.55865 2.384831,0 4.107209,1.6163 4.107209,3.97471 M 8.1968718,182.05224 c 0,1.74839 1.351404,4.05397 4.9286502,4.05397 1.245411,0 2.331834,-0.31782 3.285766,-0.90062 1.430899,-1.00708 1.801872,-2.75628 1.801872,-4.42542 0,-1.03351 -0.158988,-2.22552 -0.423969,-3.73616 -0.07949,-0.52996 -0.238484,-1.3249 -0.397472,-2.35841 2.596815,-0.84778 4.531178,-3.55043 4.531178,-6.28029 0,-4.00114 -2.835299,-6.70379 -6.704024,-6.70379 -0.264981,-1.58988 -0.529962,-3.15335 -0.768445,-4.63677 2.8088,-2.94201 4.743163,-6.25387 4.743163,-10.46715 0,-2.41125 -0.741948,-4.37179 -1.165917,-5.32605 -0.635955,-1.35132 -1.404401,-2.27915 -1.881367,-2.27915 -0.185487,0 -1.006928,0.31861 -1.881366,1.35132 -1.69588,2.01418 -2.172846,5.4061 -2.172846,7.63162 0,1.43138 0.132491,2.72986 0.582959,5.69749 -0.0265,0.0264 -1.404401,1.43058 -1.960861,1.88129 -2.4113287,2.25194 -5.7500916,5.45813 -5.7500916,10.75776 0,4.95538 4.3191932,8.85085 9.2478436,8.85085 0.768445,0 1.483894,-0.0793 2.093351,-0.18573 0.503464,2.54414 0.794943,4.39901 0.794943,5.80317 0,2.75548 -1.4044,4.21328 -4.08071,4.21328 -0.635955,0 -1.192415,-0.13289 -1.245411,-0.13289 -0.0265,-0.0264 -0.07949,-0.0528 -0.07949,-0.0793 0,-0.0528 0.053,-0.0792 0.132491,-0.10567 1.245412,-0.18573 2.490823,-1.24565 2.490823,-2.94121 0,-1.43138 -1.086423,-2.94121 -3.073782,-2.94121 -1.8548679,0 -3.0472832,1.50983 -3.0472832,3.25903 m 7.8964392,-77.63148 c -0.529962,0.10647 -1.033427,0.15931 -1.536891,0.15931 -3.789231,0 -7.0220012,-2.64982 -7.0220012,-6.650951 0,-3.233411 2.2788382,-6.120985 4.6106722,-8.135163 0.450468,-0.397872 0.874438,-0.768525 1.27191,-1.165597 0.238483,1.430579 0.42397,2.67623 0.609457,3.762573 -2.411329,0.714889 -4.0542123,3.259028 -4.0542123,5.749531 0,1.854869 1.4573963,4.399007 3.5772463,4.399007 0.211985,0 0.450468,-0.10567 0.450468,-0.34423 0,-0.23857 -0.264982,-0.37146 -0.582959,-0.5828 -1.033427,-0.63644 -1.616385,-1.32491 -1.616385,-2.623396 0,-1.616306 1.192415,-2.914793 2.755804,-3.286247 l 1.536891,8.717963 M 13.761477,77.180532 c 0.238483,-1.059925 1.457396,-3.841827 2.835298,-3.841827 0.397472,0 1.033427,1.298488 1.033427,3.126938 0,2.755484 -2.040355,4.822498 -3.868725,6.62453 -0.158989,-1.059925 -0.29148,-2.093432 -0.29148,-3.206193 0,-0.98067 0.0795,-1.882086 0.29148,-2.703448 m 6.094567,22.338474 c 0,1.881284 -0.768446,3.815404 -2.649812,4.583934 -0.556461,-3.17977 -1.27191,-7.393055 -1.457397,-8.558652 2.384831,0 4.107209,1.616305 4.107209,3.974718 M 8.1968718,112.55592 c 0,1.7484 1.351404,4.05397 4.9286502,4.05397 1.245411,0 2.331834,-0.31782 3.285766,-0.90061 1.430899,-1.00709 1.801872,-2.75629 1.801872,-4.42543 0,-1.03351 -0.158988,-2.22552 -0.423969,-3.73615 -0.07949,-0.52997 -0.238484,-1.32491 -0.397472,-2.35842 2.596815,-0.84778 4.531178,-3.55042 4.531178,-6.280291 0,-4.001136 -2.835299,-6.703784 -6.704024,-6.703784 -0.264981,-1.589887 -0.529962,-3.153356 -0.768445,-4.63677 2.8088,-2.942012 4.743163,-6.253876 4.743163,-10.467157 0,-2.411249 -0.741948,-4.371789 -1.165917,-5.326042 -0.635955,-1.351324 -1.404401,-2.279158 -1.881367,-2.279158 -0.185487,0 -1.006928,0.318618 -1.881366,1.351324 -1.69588,2.014177 -2.172846,5.406096 -2.172846,7.631618 0,1.431379 0.132491,2.729866 0.582959,5.697495 -0.0265,0.02642 -1.404401,1.430579 -1.960861,1.881287 -2.4113287,2.25194 -5.7500916,5.458132 -5.7500916,10.757755 0,4.955393 4.3191932,8.850853 9.2478436,8.850853 0.768445,0 1.483894,-0.0793 2.093351,-0.18573 0.503464,2.54414 0.794943,4.39901 0.794943,5.80317 0,2.75548 -1.4044,4.21328 -4.08071,4.21328 -0.635955,0 -1.192415,-0.13289 -1.245411,-0.13289 -0.0265,-0.0264 -0.07949,-0.0528 -0.07949,-0.0793 0,-0.0528 0.053,-0.0793 0.132491,-0.10568 1.245412,-0.18572 2.490823,-1.24565 2.490823,-2.94121 0,-1.43138 -1.086423,-2.94121 -3.073782,-2.94121 -1.8548679,0 -3.0472832,1.50983 -3.0472832,3.25903 M 16.093311,34.924439 c -0.529962,0.106473 -1.033427,0.159309 -1.536891,0.159309 -3.789231,0 -7.0220012,-2.649811 -7.0220012,-6.650947 0,-3.233411 2.2788382,-6.121386 4.6106722,-8.135243 0.450468,-0.397471 0.874438,-0.768445 1.27191,-1.165917 0.238483,1.430899 0.42397,2.67631 0.609457,3.762733 -2.411329,0.715129 -4.0542123,3.259268 -4.0542123,5.749771 0,1.854869 1.4573963,4.399008 3.5772463,4.399008 0.211985,0 0.450468,-0.105672 0.450468,-0.344235 0,-0.238563 -0.264982,-0.371454 -0.582959,-0.582799 -1.033427,-0.636435 -1.616385,-1.324906 -1.616385,-2.623393 0,-1.616306 1.192415,-2.914793 2.755804,-3.286247 l 1.536891,8.71796 M 13.761477,7.6844542 c 0.238483,-1.0599247 1.457396,-3.8422271 2.835298,-3.8422271 0.397472,0 1.033427,1.2984078 1.033427,3.1267779 0,2.7558043 -2.040355,4.822658 -3.868725,6.62453 -0.158989,-1.059925 -0.29148,-2.093352 -0.29148,-3.206273 0,-0.9804301 0.0795,-1.8813661 0.29148,-2.7028078 m 6.094567,22.3382338 c 0,1.881286 -0.768446,3.815409 -2.649812,4.583934 -0.556461,-3.179774 -1.27191,-7.393055 -1.457397,-8.558652 2.384831,0 4.107209,1.616305 4.107209,3.974718 M 8.1968718,43.059602 c 0,1.748395 1.351404,4.053972 4.9286502,4.053972 1.245411,0 2.331834,-0.317818 3.285766,-0.900616 1.430899,-1.007089 1.801872,-2.756285 1.801872,-4.425426 0,-1.033507 -0.158988,-2.225522 -0.423969,-3.736154 -0.07949,-0.529963 -0.238484,-1.324906 -0.397472,-2.358413 2.596815,-0.84778 4.531178,-3.550428 4.531178,-6.280294 0,-4.001136 -2.835299,-6.703784 -6.704024,-6.703784 -0.264981,-1.589887 -0.529962,-3.153276 -0.768445,-4.637171 2.8088,-2.941291 4.743163,-6.253555 4.743163,-10.4667561 0,-2.4113288 -0.741948,-4.3721895 -1.165917,-5.3261218 C 17.391719,0.92743413 16.623273,0 16.146307,0 15.96082,0 15.139379,0.31797742 14.264941,1.351404 c -1.69588,2.013857 -2.172846,5.4056161 -2.172846,7.631458 0,1.430898 0.132491,2.729306 0.582959,5.697095 -0.0265,0.0265 -1.404401,1.430899 -1.960861,1.881367 -2.4113287,2.25234 -5.7500916,5.458612 -5.7500916,10.757915 0,4.955389 4.3191932,8.850852 9.2478436,8.850852 0.768445,0 1.483894,-0.07925 2.093351,-0.185727 0.503464,2.54414 0.794943,4.399008 0.794943,5.803168 0,2.755484 -1.4044,4.213281 -4.08071,4.213281 -0.635955,0 -1.192415,-0.132891 -1.245411,-0.132891 -0.0265,-0.02642 -0.07949,-0.05284 -0.07949,-0.07925 0,-0.05284 0.053,-0.07925 0.132491,-0.105672 1.245412,-0.185727 2.490823,-1.245652 2.490823,-2.941211 0,-1.431379 -1.086423,-2.941211 -3.073782,-2.941211 -1.8548679,0 -3.0472832,1.509832 -3.0472832,3.259028 M 442.11828,86.837535 c 0,1.139979 0.82136,2.411249 2.96763,2.411249 2.75628,0 5.64386,-2.25194 5.64386,-4.583935 0,-1.563469 -1.32491,-2.437666 -2.96763,-2.437666 -2.56976,0 -5.64386,2.172685 -5.64386,4.610352 M 248.42104,17.341457 c 0,1.139419 0.82136,2.411329 2.96763,2.411329 2.75628,0 5.64466,-2.25234 5.64466,-4.584175 0,-1.563388 -1.32491,-2.437826 -2.96763,-2.437826 -2.57056,0 -5.64466,2.172845 -5.64466,4.610672 m 107.82333,69.496078 c 0,1.139979 0.82136,2.411249 2.96762,2.411249 2.75549,0 5.64386,-2.25194 5.64386,-4.583935 0,-1.563469 -1.3249,-2.437666 -2.96763,-2.437666 -2.57055,0 -5.64385,2.172685 -5.64385,4.610352 m 19.13388,59.568725 c 0,1.13918 0.82136,2.41125 2.96763,2.41125 2.75548,0 5.64386,-2.25274 5.64386,-4.58393 0,-1.56347 -1.32491,-2.43847 -2.96763,-2.43847 -2.57056,0 -5.64386,2.17349 -5.64386,4.61115 M 269.00391,17.341457 c 0,1.139419 0.82137,2.411329 2.96763,2.411329 2.75629,0 5.64466,-2.25234 5.64466,-4.584175 0,-1.563388 -1.3249,-2.437826 -2.96843,-2.437826 -2.56975,0 -5.64386,2.172845 -5.64386,4.610672 M 424.81845,153.02439 c 0,1.13998 0.82136,2.41205 2.96763,2.41205 2.75549,0 5.64386,-2.25274 5.64386,-4.58474 0,-1.56346 -1.32491,-2.43766 -2.96763,-2.43766 -2.57056,0 -5.64386,2.17268 -5.64386,4.61035 m -96.44594,-6.61813 c 0,1.13918 0.82136,2.41125 2.96763,2.41125 2.75628,0 5.64386,-2.25274 5.64386,-4.58393 0,-1.56347 -1.32491,-2.43847 -2.96763,-2.43847 -2.56976,0 -5.64386,2.17349 -5.64386,4.61115 M 217.54713,17.341457 c 0,1.139419 0.82136,2.411329 2.96763,2.411329 2.75629,0 5.64466,-2.25234 5.64466,-4.584175 0,-1.563388 -1.32491,-2.437826 -2.96843,-2.437826 -2.56976,0 -5.64386,2.172845 -5.64386,4.610672 m 82.33069,-9.9280681 c 0,1.1394191 0.82137,2.4113287 2.96763,2.4113287 2.75629,0 5.64466,-2.25234 5.64466,-4.5841744 0,-1.563389 -1.3249,-2.4378268 -2.96763,-2.4378268 -2.57055,0 -5.64466,2.1728456 -5.64466,4.6106725 m 30.04775,3.3093831 c 0,1.139419 0.82136,2.411328 2.96763,2.411328 2.75548,0 5.64386,-2.25234 5.64386,-4.584174 0,-1.563389 -1.32491,-2.4378269 -2.96763,-2.4378269 -2.57056,0 -5.64386,2.1728457 -5.64386,4.6106729 M 294.18753,156.33385 c 0,1.13998 0.82137,2.41125 2.96763,2.41125 2.75629,0 5.64466,-2.25194 5.64466,-4.58393 0,-1.56347 -1.3249,-2.43767 -2.96843,-2.43767 -2.56975,0 -5.64386,2.17269 -5.64386,4.61035 M 240.22584,86.837535 c 0,1.139979 0.82216,2.411249 2.96843,2.411249 2.75548,0 5.64386,-2.25194 5.64386,-4.583935 0,-1.563469 -1.32491,-2.437666 -2.96763,-2.437666 -2.57056,0 -5.64466,2.172685 -5.64466,4.610352 m 133.19347,6.618926 c 0,1.139179 0.82136,2.411248 2.96763,2.411248 2.75548,0 5.64386,-2.251939 5.64386,-4.583934 0,-1.563469 -1.32491,-2.437667 -2.96763,-2.437667 -2.57056,0 -5.64386,2.172686 -5.64386,4.610353 M 257.10698,146.40626 c 0,1.13918 0.82216,2.41125 2.96843,2.41125 2.75548,0 5.64386,-2.25274 5.64386,-4.58393 0,-1.56347 -1.32491,-2.43847 -2.96763,-2.43847 -2.57056,0 -5.64466,2.17349 -5.64466,4.61115 M 360.79948,14.032074 c 0,1.139419 0.82136,2.411329 2.96763,2.411329 2.75628,0 5.64466,-2.25234 5.64466,-4.584174 0,-1.563389 -1.32491,-2.4378271 -2.96843,-2.4378271 -2.56976,0 -5.64386,2.1728461 -5.64386,4.6106721 M 232.38688,156.33385 c 0,1.13998 0.82216,2.41125 2.96843,2.41125 2.75548,0 5.64386,-2.25194 5.64386,-4.58393 0,-1.56347 -1.32491,-2.43767 -2.96763,-2.43767 -2.57056,0 -5.64466,2.17269 -5.64466,4.61035 M 381.38235,17.341457 c 0,1.139419 0.82136,2.411329 2.96763,2.411329 2.75549,0 5.64386,-2.25234 5.64386,-4.584175 0,-1.563388 -1.3249,-2.437826 -2.96763,-2.437826 -2.57056,0 -5.64386,2.172845 -5.64386,4.610672 M 187.50019,30.579068 c 0,1.139179 0.82136,2.411249 2.96763,2.411249 2.75548,0 5.64385,-2.25274 5.64385,-4.583934 0,-1.563469 -1.3249,-2.438468 -2.96762,-2.438468 -2.57056,0 -5.64386,2.173487 -5.64386,4.611153 m 7.80693,115.827192 c 0,1.13918 0.82137,2.41125 2.96763,2.41125 2.75549,0 5.64386,-2.25274 5.64386,-4.58393 0,-1.56347 -1.3249,-2.43847 -2.96763,-2.43847 -2.57055,0 -5.64386,2.17349 -5.64386,4.61115 M 390.59345,90.146998 c 0,1.139179 0.82136,2.411248 2.96843,2.411248 2.75548,0 5.64386,-2.251939 5.64386,-4.583934 0,-1.563469 -1.32491,-2.437667 -2.96763,-2.437667 -2.57056,0 -5.64466,2.172686 -5.64466,4.610353 M 412.25626,20.65076 c 0,1.139419 0.82136,2.411329 2.96763,2.411329 2.75629,0 5.64386,-2.25234 5.64386,-4.584175 0,-1.563389 -1.3249,-2.437827 -2.96763,-2.437827 -2.56975,0 -5.64386,2.172846 -5.64386,4.610673 m 30.04775,3.309383 c 0,1.139179 0.82136,2.411248 2.96763,2.411248 2.75548,0 5.64386,-2.251939 5.64386,-4.584094 0,-1.563389 -1.32491,-2.437827 -2.96763,-2.437827 -2.57056,0 -5.64386,2.172846 -5.64386,4.610673 M 161.12215,156.33385 c 0,1.13998 0.82136,2.41125 2.96763,2.41125 2.75628,0 5.64386,-2.25194 5.64386,-4.58393 0,-1.56347 -1.32491,-2.43767 -2.96763,-2.43767 -2.56976,0 -5.64386,2.17269 -5.64386,4.61035 m 5.79516,-129.064244 c 0,1.139178 0.82136,2.411248 2.96763,2.411248 2.75549,0 5.64386,-2.25274 5.64386,-4.583934 0,-1.563469 -1.3249,-2.438067 -2.96763,-2.438067 -2.57056,0 -5.64386,2.173086 -5.64386,4.610753 m 31.18613,56.258466 c 0,1.13998 0.82136,2.412049 2.96763,2.412049 2.75628,0 5.64385,-2.25274 5.64385,-4.584734 0,-1.563469 -1.3249,-2.437667 -2.96762,-2.437667 -2.56976,0 -5.64386,2.172685 -5.64386,4.610352 M 124.0416,162.95278 c 0,1.13918 0.82216,2.41125 2.96843,2.41125 2.75548,0 5.64386,-2.25194 5.64386,-4.58394 0,-1.56347 -1.32491,-2.43766 -2.96763,-2.43766 -2.57056,0 -5.64466,2.17268 -5.64466,4.61035 M 462.88608,27.269606 c 0,1.139178 0.82216,2.411248 2.96843,2.411248 2.75548,0 5.64386,-2.25274 5.64386,-4.583934 0,-1.563469 -1.32491,-2.438067 -2.96763,-2.438067 -2.57056,0 -5.64466,2.173086 -5.64466,4.610753 M 99.321495,166.26224 c 0,1.13918 0.821365,2.41125 2.968425,2.41125 2.75549,0 5.64386,-2.25194 5.64386,-4.58393 0,-1.56347 -1.3249,-2.43767 -2.96763,-2.43767 -2.57055,0 -5.644655,2.17268 -5.644655,4.61035 M 483.46895,23.960143 c 0,1.139179 0.82137,2.411248 2.96763,2.411248 2.75629,0 5.64466,-2.251939 5.64466,-4.584094 0,-1.563389 -1.3249,-2.437827 -2.96843,-2.437827 -2.56975,0 -5.64386,2.172846 -5.64386,4.610673 M 74.601396,162.95278 c 0,1.13918 0.821361,2.41125 2.968429,2.41125 2.755481,0 5.643856,-2.25194 5.643856,-4.58394 0,-1.56347 -1.324906,-2.43766 -2.967629,-2.43766 -2.570554,0 -5.644656,2.17268 -5.644656,4.61035 M 504.05183,30.579068 c 0,1.139179 0.82136,2.411249 2.96763,2.411249 2.75628,0 5.64386,-2.25274 5.64386,-4.583934 0,-1.563469 -1.32491,-2.438468 -2.96763,-2.438468 -2.56976,0 -5.64386,2.173487 -5.64386,4.611153 m -45.0484,125.754782 c 0,1.13998 0.82136,2.41125 2.96763,2.41125 2.75548,0 5.64385,-2.25194 5.64385,-4.58393 0,-1.56347 -1.3249,-2.43767 -2.96762,-2.43767 -2.57056,0 -5.64386,2.17269 -5.64386,4.61035 m -409.122137,3.30947 c 0,1.13917 0.821362,2.41124 2.96763,2.41124 2.756284,0 5.644659,-2.25194 5.644659,-4.58393 0,-1.56347 -1.324906,-2.43767 -2.967629,-2.43767 -2.570558,0 -5.64466,2.17269 -5.64466,4.61036 M 407.76839,86.837535 c 0,1.139979 0.82137,2.411249 2.96763,2.411249 2.75629,0 5.64466,-2.25194 5.64466,-4.583935 0,-1.563469 -1.3249,-2.437666 -2.96763,-2.437666 -2.57055,0 -5.64466,2.172685 -5.64466,4.610352 m 75.95514,72.805785 c 0,1.13917 0.82136,2.41124 2.96763,2.41124 2.75548,0 5.64386,-2.25194 5.64386,-4.58393 0,-1.56347 -1.32491,-2.43767 -2.96763,-2.43767 -2.57056,0 -5.64386,2.17269 -5.64386,4.61036 M 146.33444,23.960143 c 0,1.139179 0.82136,2.411248 2.96763,2.411248 2.75628,0 5.64386,-2.251939 5.64386,-4.584094 0,-1.563389 -1.32491,-2.437827 -2.96763,-2.437827 -2.56976,0 -5.64386,2.172846 -5.64386,4.610673 m 388.5913,16.546513 c 0,1.13998 0.82136,2.411249 2.96763,2.411249 2.75628,0 5.64466,-2.25194 5.64466,-4.583934 0,-1.563469 -1.32491,-2.437667 -2.96843,-2.437667 -2.56976,0 -5.64386,2.172686 -5.64386,4.610352 m 31.67846,-9.927588 c 0,1.139179 0.82136,2.411249 2.96763,2.411249 2.75548,0 5.64386,-2.25274 5.64386,-4.583934 0,-1.563469 -1.32491,-2.438468 -2.96763,-2.438468 -2.57056,0 -5.64386,2.173487 -5.64386,4.611153 M 508.44363,162.95278 c 0,1.13918 0.82136,2.41125 2.96763,2.41125 2.75548,0 5.64386,-2.25194 5.64386,-4.58394 0,-1.56347 -1.32491,-2.43766 -2.96763,-2.43766 -2.57056,0 -5.64386,2.17268 -5.64386,4.61035 m 152.8317,-72.805782 c 0,1.139179 0.82136,2.411248 2.96763,2.411248 2.75628,0 5.64386,-2.251939 5.64386,-4.583934 0,-1.563469 -1.32491,-2.437667 -2.96763,-2.437667 -2.56976,0 -5.64386,2.172686 -5.64386,4.610353 M 597.47811,27.269606 c 0,1.139178 0.82136,2.411248 2.96763,2.411248 2.75548,0 5.64386,-2.25274 5.64386,-4.583934 0,-1.563469 -1.32491,-2.438067 -2.96763,-2.438067 -2.57056,0 -5.64386,2.173086 -5.64386,4.610753 m 46.62228,59.567929 c 0,1.139979 0.82136,2.411249 2.96763,2.411249 2.75628,0 5.64465,-2.25194 5.64465,-4.583935 0,-1.563469 -1.3249,-2.437666 -2.96843,-2.437666 -2.56975,0 -5.64385,2.172685 -5.64385,4.610352 M 618.06098,23.960143 c 0,1.139179 0.82136,2.411248 2.96763,2.411248 2.75548,0 5.64386,-2.251939 5.64386,-4.584094 0,-1.563389 -1.32491,-2.437827 -2.96763,-2.437827 -2.57056,0 -5.64386,2.172846 -5.64386,4.610673 m -492.30941,3.309463 c 0,1.139178 0.82136,2.411248 2.96763,2.411248 2.75628,0 5.64465,-2.25274 5.64465,-4.583934 0,-1.563469 -1.3249,-2.438067 -2.96842,-2.438067 -2.56976,0 -5.64386,2.173086 -5.64386,4.610753 m 501.17387,62.877392 c 0,1.139179 0.82136,2.411248 2.96763,2.411248 2.75629,0 5.64466,-2.251939 5.64466,-4.583934 0,-1.563469 -1.3249,-2.437667 -2.96763,-2.437667 -2.57056,0 -5.64466,2.172686 -5.64466,4.610353 m -93.76171,76.115242 c 0,1.13918 0.82136,2.41125 2.96763,2.41125 2.75549,0 5.64386,-2.25194 5.64386,-4.58393 0,-1.56347 -1.3249,-2.43767 -2.96763,-2.43767 -2.57056,0 -5.64386,2.17268 -5.64386,4.61035 M 609.7505,93.456461 c 0,1.139179 0.82216,2.411248 2.96843,2.411248 2.75548,0 5.64386,-2.251939 5.64386,-4.583934 0,-1.563469 -1.32491,-2.437667 -2.96763,-2.437667 -2.57056,0 -5.64466,2.172686 -5.64466,4.610353 m 28.89255,-66.186855 c 0,1.139178 0.82137,2.411248 2.96843,2.411248 2.75549,0 5.64386,-2.25274 5.64386,-4.583934 0,-1.563469 -1.3249,-2.438067 -2.96763,-2.438067 -2.57055,0 -5.64466,2.173086 -5.64466,4.610753 m -46.06669,69.496317 c 0,1.139179 0.82136,2.411249 2.96763,2.411249 2.75548,0 5.64385,-2.25274 5.64385,-4.583934 0,-1.563469 -1.3249,-2.438467 -2.96762,-2.438467 -2.57056,0 -5.64386,2.173486 -5.64386,4.611152 m 66.64957,-66.186855 c 0,1.139179 0.82136,2.411249 2.96763,2.411249 2.75628,0 5.64466,-2.25274 5.64466,-4.583934 0,-1.563469 -1.32491,-2.438468 -2.96843,-2.438468 -2.56976,0 -5.64386,2.173487 -5.64386,4.611153 M 265.98825,86.837535 c 0,1.139979 0.82136,2.411249 2.96763,2.411249 2.75629,0 5.64466,-2.25194 5.64466,-4.583935 0,-1.563469 -1.3249,-2.437666 -2.96843,-2.437666 -2.56976,0 -5.64386,2.172685 -5.64386,4.610352 m 309.41316,3.309463 c 0,1.139179 0.82136,2.411248 2.96763,2.411248 2.75549,0 5.64386,-2.251939 5.64386,-4.583934 0,-1.563469 -1.3249,-2.437667 -2.96763,-2.437667 -2.57056,0 -5.64386,2.172686 -5.64386,4.610353 M 94.877656,30.579068 c 0,1.139179 0.821362,2.411249 2.967629,2.411249 2.756285,0 5.643855,-2.25274 5.643855,-4.583934 0,-1.563469 -1.3249,-2.438468 -2.96762,-2.438468 -2.569762,0 -5.643864,2.173487 -5.643864,4.611153 m -31.678457,9.927588 c 0,1.13998 0.822163,2.411249 2.96843,2.411249 2.755484,0 5.643859,-2.25194 5.643859,-4.583934 0,-1.563469 -1.324906,-2.437667 -2.967629,-2.437667 -2.570558,0 -5.64466,2.172686 -5.64466,4.610352 M 49.881293,86.837535 c 0,1.139979 0.821362,2.411249 2.96763,2.411249 2.756284,0 5.644659,-2.25194 5.644659,-4.583935 0,-1.563469 -1.324906,-2.437666 -2.967629,-2.437666 -2.570558,0 -5.64466,2.172685 -5.64466,4.610352 m 497.521777,3.309463 c 0,1.139179 0.82136,2.411248 2.96763,2.411248 2.75628,0 5.64386,-2.251939 5.64386,-4.583934 0,-1.563469 -1.32491,-2.437667 -2.96763,-2.437667 -2.56976,0 -5.64386,2.172686 -5.64386,4.610353 M 180.92849,86.837535 c 0,1.139979 0.82136,2.411249 2.96763,2.411249 2.75629,0 5.64466,-2.25194 5.64466,-4.583935 0,-1.563469 -1.3249,-2.437666 -2.96843,-2.437666 -2.56975,0 -5.64386,2.172685 -5.64386,4.610352 m 244.01485,-3.309463 c 0,1.13998 0.82136,2.412049 2.96763,2.412049 2.75628,0 5.64466,-2.25274 5.64466,-4.584734 0,-1.563469 -1.32491,-2.437667 -2.96843,-2.437667 -2.56976,0 -5.64386,2.172685 -5.64386,4.610352 m 96.69731,6.618926 c 0,1.139179 0.82137,2.411248 2.96763,2.411248 2.75629,0 5.64466,-2.251939 5.64466,-4.583934 0,-1.563469 -1.3249,-2.437667 -2.96763,-2.437667 -2.57055,0 -5.64466,2.172686 -5.64466,4.610353 M 75.643708,86.837535 c 0,1.139979 0.821362,2.411249 2.96763,2.411249 2.756281,0 5.644656,-2.25194 5.644656,-4.583935 0,-1.563469 -1.324906,-2.437666 -2.96843,-2.437666 -2.569754,0 -5.643856,2.172685 -5.643856,4.610352 m 428.822002,6.618926 c 0,1.139179 0.82136,2.411248 2.96843,2.411248 2.75548,0 5.64386,-2.251939 5.64386,-4.583934 0,-1.563469 -1.32491,-2.437667 -2.96763,-2.437667 -2.57056,0 -5.64466,2.172686 -5.64466,4.610353 M 92.818649,86.837535 c 0,1.139979 0.821361,2.411249 2.967629,2.411249 2.755484,0 5.643862,-2.25194 5.643862,-4.583935 0,-1.563469 -1.32491,-2.437666 -2.967633,-2.437666 -2.570557,0 -5.643858,2.172685 -5.643858,4.610352 m 394.472921,3.309463 c 0,1.139179 0.82136,2.411248 2.96763,2.411248 2.75548,0 5.64386,-2.251939 5.64386,-4.583934 0,-1.563469 -1.32491,-2.437667 -2.96763,-2.437667 -2.57056,0 -5.64386,2.172686 -5.64386,4.610353 M 163.75355,83.528072 c 0,1.13998 0.82136,2.412049 2.96763,2.412049 2.75628,0 5.64466,-2.25274 5.64466,-4.584734 0,-1.563469 -1.32491,-2.437667 -2.96763,-2.437667 -2.57056,0 -5.64466,2.172685 -5.64466,4.610352 M 589.63354,169.5717 c 0,1.13918 0.82137,2.41125 2.96843,2.41125 2.75549,0 5.64386,-2.25274 5.64386,-4.58393 0,-1.56347 -1.3249,-2.43847 -2.96763,-2.43847 -2.57055,0 -5.64466,2.17349 -5.64466,4.61115 M 470.11663,86.837535 c 0,1.139979 0.82136,2.411249 2.96762,2.411249 2.75549,0 5.64386,-2.25194 5.64386,-4.583935 0,-1.563469 -1.3249,-2.437666 -2.96763,-2.437666 -2.57055,0 -5.64385,2.172685 -5.64385,4.610352 M 118.58106,76.909947 c 0,1.139179 0.82137,2.411249 2.96763,2.411249 2.75549,0 5.64386,-2.252741 5.64386,-4.583935 0,-1.563469 -1.3249,-2.438467 -2.96763,-2.438467 -2.57056,0 -5.64386,2.173486 -5.64386,4.611153 m 27.99755,3.309463 c 0,1.139179 0.82216,2.411249 2.96843,2.411249 2.75548,0 5.64386,-2.252741 5.64386,-4.584735 0,-1.563469 -1.32491,-2.437667 -2.96763,-2.437667 -2.57056,0 -5.64466,2.172686 -5.64466,4.611153 M 626.7141,169.5717 c 0,1.13918 0.82136,2.41125 2.96763,2.41125 2.75548,0 5.64386,-2.25274 5.64386,-4.58393 0,-1.56347 -1.32491,-2.43847 -2.96763,-2.43847 -2.57056,0 -5.64386,2.17349 -5.64386,4.61115 M 400.09835,149.71573 c 0,1.13918 0.82136,2.41125 2.96763,2.41125 2.75548,0 5.64386,-2.25274 5.64386,-4.58474 0,-1.56267 -1.32491,-2.43767 -2.96763,-2.43767 -2.57056,0 -5.64386,2.17269 -5.64386,4.61116 M 328.24602,86.837535 c 0,1.139979 0.82136,2.411249 2.96763,2.411249 2.75629,0 5.64386,-2.25194 5.64386,-4.583935 0,-1.563469 -1.32491,-2.437666 -2.96763,-2.437666 -2.56976,0 -5.64386,2.172685 -5.64386,4.610352 m 219.15705,23.680995 c 0,0.18572 0.15931,0.34423 0.34423,0.34423 0.1329,0 0.2914,-0.10567 0.31782,-0.21214 0,-0.0264 0.23857,-0.95345 0.26498,-1.03271 0.0272,-0.10647 0.26498,-1.11356 1.21924,-2.67703 1.0335,-1.72198 2.62339,-2.96763 3.9483,-4.8225 1.29848,-1.85487 2.09343,-3.603261 2.09343,-5.935255 0,-2.411249 -0.55638,-4.425426 -1.96134,-6.995984 -0.0793,-0.184926 -0.23777,-0.291399 -0.39707,-0.291399 -0.0528,0 -0.10568,0 -0.1329,0.02642 -0.13209,0.05364 -0.18492,0.159309 -0.18492,0.318618 0,0.07925 0.0264,0.211345 0.0793,0.317817 1.05993,2.464085 1.48422,3.868245 1.48422,5.77675 0,2.199104 -0.76853,3.338283 -1.24565,4.159644 -1.72278,2.941209 -4.50468,4.372589 -5.61745,4.743239 -0.18572,0.0801 -0.21214,0.21215 -0.21214,0.2914 v 5.9889 M 75.643708,108.8638 c 0,0.18572 0.159309,0.34423 0.344236,0.34423 0.132891,0 0.291399,-0.10567 0.318618,-0.21134 0,-0.0272 0.237762,-0.95426 0.264981,-1.03351 0.02642,-0.10647 0.264981,-1.11356 1.218433,-2.67623 1.033507,-1.72278 2.62339,-2.96843 3.948296,-4.8233 1.298488,-1.854866 2.093432,-3.603262 2.093432,-5.935256 0,-2.411249 -0.556381,-4.425426 -1.960541,-6.995183 -0.08006,-0.185727 -0.238563,-0.2922 -0.397872,-0.2922 -0.05284,0 -0.105672,0 -0.13209,0.02722 -0.132891,0.05284 -0.185727,0.158509 -0.185727,0.317818 0,0.07925 0.02642,0.212145 0.07925,0.317817 1.059925,2.464085 1.484215,3.869045 1.484215,5.77675 0,2.199104 -0.768526,3.338282 -1.245652,4.159644 -1.721974,2.94201 -4.504677,4.37259 -5.617438,4.74324 -0.185727,0.0801 -0.212145,0.21215 -0.212145,0.2914 v 5.9889 M 605.42034,10.660889 c 0,0.0795 0.0264,0.211985 0.21214,0.29148 1.13918,0.370973 3.41834,1.801872 5.14032,4.743163 0.47712,0.821441 1.24565,1.960861 1.24565,4.160204 0,1.907865 -0.50354,3.869046 -1.19282,5.77675 -0.0528,0.158509 -0.10567,0.291399 -0.0793,0.397072 0,0.159309 0.10647,0.264981 0.26498,0.264981 0.18573,0 0.31782,-0.105672 0.42429,-0.291399 1.19202,-2.11985 1.64272,-4.584015 1.64272,-6.995343 -0.13289,-3.418258 -2.09343,-5.935579 -2.09343,-5.935579 0.0793,0 -2.43766,-3.2592684 -3.15335,-4.3721894 -0.98067,-1.5103927 -1.43058,-3.0207854 -1.48342,-3.1267779 -0.0272,-0.079494 -0.26498,-1.0334266 -0.26498,-1.0334266 -0.0272,-0.1059925 -0.15931,-0.211985 -0.31862,-0.211985 -0.18492,0 -0.34423,0.1589888 -0.34423,0.3444756 v 5.9885743 m -62.55237,11.58272 c 0,0.07949 0.0264,0.211985 0.21214,0.291479 1.13918,0.370974 3.41834,1.802112 5.14112,4.743324 0.47632,0.821361 1.24485,1.96054 1.24485,4.159644 0,1.908505 -0.50354,3.869045 -1.19202,5.77675 -0.0528,0.159308 -0.10647,0.291399 -0.08,0.397872 0,0.158508 0.10647,0.264981 0.26498,0.264981 0.18573,0 0.31862,-0.106473 0.42429,-0.291399 1.19282,-2.11985 1.64272,-4.584735 1.64272,-6.995984 -0.13209,-3.418337 -2.09343,-5.935258 -2.09343,-5.935258 0.0801,0 -2.43766,-3.259349 -3.15335,-4.37227 -0.97987,-1.510392 -1.43058,-3.020785 -1.48342,-3.126778 -0.0264,-0.07949 -0.26498,-1.033426 -0.26498,-1.033426 -0.0264,-0.105993 -0.15931,-0.211985 -0.31782,-0.211985 -0.18572,0 -0.34503,0.158989 -0.34503,0.344475 v 5.988575 M 161.12215,178.36011 c 0,0.18573 0.15931,0.34424 0.34424,0.34424 0.13289,0 0.2914,-0.10567 0.31781,-0.21135 0,-0.0272 0.23857,-0.95425 0.26498,-1.0335 0.0272,-0.10648 0.26499,-1.11356 1.21924,-2.67623 1.03351,-1.72278 2.62339,-2.96843 3.9483,-4.8233 1.29849,-1.85487 2.09343,-3.60326 2.09343,-5.93526 0,-2.41125 -0.55638,-4.42542 -1.96134,-6.99518 -0.0793,-0.18573 -0.23776,-0.2922 -0.39707,-0.2922 -0.0528,0 -0.10568,0 -0.13289,0.0272 -0.13209,0.0528 -0.18493,0.15851 -0.18493,0.31781 0,0.0793 0.0264,0.21215 0.0793,0.31782 1.05993,2.46409 1.48422,3.86905 1.48422,5.77675 0,2.19911 -0.76853,3.33828 -1.24565,4.15965 -1.72278,2.94201 -4.50468,4.37259 -5.61744,4.74324 -0.18573,0.08 -0.21215,0.21214 -0.21215,0.2914 v 5.98889 M 412.25626,41.022209 c 0,0.185727 0.15931,0.344235 0.34424,0.344235 0.13289,0 0.2914,-0.105672 0.31782,-0.212145 0,-0.02642 0.23856,-0.953452 0.26498,-1.032706 0.0272,-0.106473 0.26498,-1.113561 1.21923,-2.67703 1.03351,-1.721978 2.62339,-2.967629 3.9483,-4.822498 1.29849,-1.854868 2.09343,-3.603263 2.09343,-5.935258 0,-2.411249 -0.55638,-4.425346 -1.96134,-6.995663 -0.0793,-0.185487 -0.23776,-0.29148 -0.39707,-0.29148 -0.0528,0 -0.10567,0 -0.13289,0.0265 -0.13209,0.053 -0.18493,0.158988 -0.18493,0.317977 0,0.07949 0.0264,0.211985 0.0793,0.317977 1.05992,2.464325 1.48421,3.868405 1.48421,5.77691 0,2.199104 -0.76852,3.338283 -1.24565,4.159645 -1.72278,2.941211 -4.50468,4.372589 -5.61744,4.743243 -0.18573,0.08005 -0.21215,0.212145 -0.21215,0.291399 v 5.988895 m -179.86942,137.3379 c 0,0.18573 0.15931,0.34424 0.34503,0.34424 0.13209,0 0.2914,-0.10567 0.31782,-0.21135 0,-0.0272 0.23856,-0.95425 0.26498,-1.0335 0.0264,-0.10648 0.26498,-1.11356 1.21924,-2.67623 1.0327,-1.72278 2.62259,-2.96843 3.9475,-4.8233 1.29848,-1.85487 2.09343,-3.60326 2.09343,-5.93526 0,-2.41125 -0.55638,-4.42542 -1.96054,-6.99518 -0.0793,-0.18573 -0.23857,-0.2922 -0.39788,-0.2922 -0.0528,0 -0.10567,0 -0.13209,0.0272 -0.13289,0.0528 -0.18572,0.15851 -0.18572,0.31781 0,0.0793 0.0264,0.21215 0.08,0.31782 1.05993,2.46409 1.48342,3.86905 1.48342,5.77675 0,2.19911 -0.76853,3.33828 -1.24566,4.15965 -1.72197,2.94201 -4.50468,4.37259 -5.61744,4.74324 -0.18492,0.08 -0.21214,0.21214 -0.21214,0.2914 v 5.98889 m 61.80065,0 c 0,0.18573 0.15931,0.34424 0.34424,0.34424 0.13289,0 0.2914,-0.10567 0.31862,-0.21135 0,-0.0272 0.23776,-0.95425 0.26498,-1.0335 0.0264,-0.10648 0.26498,-1.11356 1.21843,-2.67623 1.03351,-1.72278 2.6234,-2.96843 3.9483,-4.8233 1.29849,-1.85487 2.09343,-3.60326 2.09343,-5.93526 0,-2.41125 -0.55638,-4.42542 -1.96054,-6.99518 -0.08,-0.18573 -0.23856,-0.2922 -0.39787,-0.2922 -0.0528,0 -0.10567,0 -0.13209,0.0272 -0.13289,0.0528 -0.18573,0.15851 -0.18573,0.31781 0,0.0793 0.0264,0.21215 0.0793,0.31782 1.05992,2.46409 1.48421,3.86905 1.48421,5.77675 0,2.19911 -0.76852,3.33828 -1.24565,4.15965 -1.72198,2.94201 -4.50468,4.37259 -5.61744,4.74324 -0.18573,0.08 -0.21215,0.21214 -0.21215,0.2914 v 5.98889 M 360.79948,36.058015 c 0,0.185727 0.15931,0.344235 0.34424,0.344235 0.13289,0 0.29139,-0.105672 0.31861,-0.211345 0,-0.02642 0.23777,-0.954252 0.26498,-1.033506 0.0264,-0.106473 0.26499,-1.112761 1.21844,-2.67623 1.0335,-1.722778 2.62339,-2.96843 3.9483,-4.823298 1.29848,-1.854868 2.09343,-3.603264 2.09343,-5.935258 0,-2.411329 -0.55638,-4.425186 -1.96054,-6.995503 -0.0801,-0.185487 -0.23857,-0.29148 -0.39787,-0.29148 -0.0528,0 -0.10568,0 -0.13209,0.0265 -0.1329,0.053 -0.18573,0.158989 -0.18573,0.317978 0,0.07949 0.0264,0.211985 0.0793,0.317977 1.05993,2.464325 1.48422,3.868726 1.48422,5.77659 0,2.199344 -0.76853,3.338443 -1.24565,4.160605 -1.72198,2.941211 -4.50468,4.371789 -5.61745,4.742442 -0.18572,0.08006 -0.21214,0.212145 -0.21214,0.2922 v 5.988095 m -60.92166,-6.618926 c 0,0.185727 0.15931,0.345036 0.34504,0.345036 0.13209,0 0.2914,-0.106473 0.31782,-0.212145 0,-0.02642 0.23856,-0.954253 0.26498,-1.033507 0.0264,-0.105672 0.26498,-1.112761 1.21843,-2.67623 1.03351,-1.722778 2.6234,-2.967869 3.9483,-4.822737 1.29849,-1.854869 2.09343,-3.603744 2.09343,-5.935579 0,-2.411328 -0.55638,-4.425185 -1.96054,-6.9955029 -0.08,-0.1854868 -0.23856,-0.2914793 -0.39787,-0.2914793 -0.0528,0 -0.10567,0 -0.13209,0.026498 -0.13289,0.052996 -0.18573,0.1589887 -0.18573,0.3179775 0,0.079494 0.0264,0.2119849 0.0793,0.3179774 1.05992,2.4643253 1.48421,3.8687253 1.48421,5.7765893 0,2.199344 -0.76852,3.338763 -1.24565,4.160205 -1.72198,2.941291 -4.50468,4.372189 -5.61744,4.743163 -0.18573,0.07949 -0.21215,0.212385 -0.21215,0.29164 v 5.988094 m -51.45678,9.928388 c 0,0.185727 0.15931,0.344236 0.34504,0.344236 0.13209,0 0.2914,-0.105672 0.31781,-0.212145 0,-0.02642 0.23857,-0.953452 0.26499,-1.032706 0.0264,-0.106473 0.26498,-1.113562 1.21843,-2.677031 1.03351,-1.721977 2.62339,-2.967629 3.9483,-4.822497 1.29849,-1.854868 2.09343,-3.603264 2.09343,-5.935258 0,-2.411409 -0.55638,-4.425266 -1.96054,-6.995584 -0.0801,-0.185486 -0.23856,-0.291479 -0.39787,-0.291479 -0.0528,0 -0.10568,0 -0.13209,0.0265 -0.13289,0.053 -0.18573,0.158989 -0.18573,0.317978 0,0.07949 0.0264,0.211985 0.0793,0.317977 1.05993,2.464325 1.48422,3.868725 1.48422,5.77683 0,2.199104 -0.76853,3.338282 -1.24565,4.159644 -1.72198,2.941211 -4.50468,4.37259 -5.61744,4.743243 -0.18573,0.08005 -0.21215,0.212145 -0.21215,0.2914 v 5.988894 M 133.6938,10.660889 c 0,0.0795 0.0272,0.211985 0.21214,0.29148 1.13998,0.370973 3.41834,1.801872 5.14112,4.743163 0.47632,0.821441 1.24485,1.960861 1.24485,4.160204 0,1.907865 -0.50355,3.869046 -1.19202,5.77675 -0.0528,0.158509 -0.10647,0.291399 -0.0793,0.397072 0,0.159309 0.10567,0.264981 0.26498,0.264981 0.18493,0 0.31782,-0.105672 0.42349,-0.291399 1.19282,-2.11985 1.64272,-4.584015 1.64272,-6.995343 -0.13209,-3.418258 -2.09343,-5.935579 -2.09343,-5.935579 0.0801,0 -2.43767,-3.2592684 -3.15255,-4.3721894 -0.98067,-1.5103927 -1.43138,-3.0207854 -1.48422,-3.1267779 -0.0264,-0.079494 -0.26498,-1.0334266 -0.26498,-1.0334266 -0.0264,-0.1059925 -0.15931,-0.211985 -0.31782,-0.211985 -0.18572,0 -0.34503,0.1589888 -0.34503,0.3444756 v 5.9885743 m -62.551569,11.58272 c 0,0.07949 0.02642,0.211985 0.212145,0.291479 1.139178,0.370974 3.417536,1.802112 5.140314,4.743324 0.477126,0.821361 1.245652,1.96054 1.245652,4.159644 0,1.908505 -0.503544,3.869045 -1.192816,5.77675 -0.05284,0.159308 -0.105672,0.291399 -0.07925,0.397872 0,0.158508 0.105672,0.264981 0.264981,0.264981 0.185727,0 0.317818,-0.106473 0.42349,-0.291399 1.192816,-2.11985 1.643524,-4.584735 1.643524,-6.995984 -0.132891,-3.418337 -2.093432,-5.935258 -2.093432,-5.935258 0.07925,0 -2.437666,-3.259349 -3.153356,-4.37227 -0.98067,-1.510392 -1.431378,-3.020785 -1.484215,-3.126778 -0.02642,-0.07949 -0.264981,-1.033426 -0.264981,-1.033426 -0.02642,-0.105993 -0.158508,-0.211985 -0.317817,-0.211985 -0.185727,0 -0.344235,0.158989 -0.344235,0.344475 v 5.988575 m 47.438825,76.691798 c 0,0.185727 0.15851,0.345036 0.34424,0.345036 0.13209,0 0.2914,-0.106473 0.31782,-0.212145 0,-0.02642 0.23856,-0.954253 0.26498,-1.033507 0.0264,-0.105672 0.26498,-1.112761 1.21923,-2.67623 1.03351,-1.722778 2.62339,-2.967629 3.9483,-4.822497 1.29849,-1.854868 2.09343,-3.604064 2.09343,-5.936059 0,-2.411249 -0.55718,-4.424625 -1.96134,-6.995183 -0.0793,-0.185727 -0.23856,-0.291399 -0.39707,-0.291399 -0.0536,0 -0.10647,0 -0.13289,0.02642 -0.13209,0.05284 -0.18573,0.159309 -0.18573,0.317817 0,0.07925 0.0272,0.212145 0.0801,0.317818 1.05992,2.464885 1.48341,3.869045 1.48341,5.776749 0,2.199104 -0.76852,3.339083 -1.24485,4.160445 -1.72278,2.941211 -4.50468,4.371789 -5.61824,4.743243 -0.18493,0.07925 -0.21135,0.212145 -0.21135,0.291399 v 5.988095 m 209.66496,9.928391 c 0,0.18572 0.15931,0.34423 0.34424,0.34423 0.13289,0 0.2914,-0.10567 0.31781,-0.21134 0,-0.0272 0.23857,-0.95426 0.26499,-1.03351 0.0272,-0.10647 0.26498,-1.11356 1.21923,-2.67623 1.03351,-1.72278 2.62339,-2.96843 3.9483,-4.8233 1.29849,-1.854864 2.09343,-3.60326 2.09343,-5.935254 0,-2.411249 -0.55638,-4.425426 -1.96134,-6.995183 -0.0793,-0.185727 -0.23776,-0.2922 -0.39707,-0.2922 -0.0528,0 -0.10567,0 -0.13289,0.02722 -0.13209,0.05284 -0.18493,0.158509 -0.18493,0.317818 0,0.07925 0.0264,0.212145 0.0793,0.317817 1.05993,2.464085 1.48422,3.869045 1.48422,5.77675 0,2.199104 -0.76853,3.338282 -1.24565,4.159644 -1.72278,2.942008 -4.50468,4.372588 -5.61744,4.743238 -0.18573,0.0801 -0.21215,0.21215 -0.21215,0.2914 v 5.9889 m -95.85869,47.46932 v 22.02695 h 0.66202 V 156.33312 Z M 195.44207,6.2874086 V 28.407223 h 0.66202 V 6.2874086 Z m 22.10542,11.0530264 v 22.053517 h 0.66202 V 17.340435 Z M 459.00306,156.33312 v 22.06463 h 0.66201 V 156.33312 Z M 328.24569,86.836702 V 108.8638 h 0.66201 V 86.836702 Z m 96.57243,66.186818 v 17.06776 h 0.66202 V 153.02352 Z M 356.24389,86.836702 v 23.708238 h 0.66217 V 86.836702 Z m -90.25531,0 v 22.053518 h 0.66217 V 86.836702 Z m 107.43034,6.618902 v 17.089336 h 0.66201 V 93.455604 Z M 240.22628,86.836702 v 22.053518 h 0.66202 V 86.836702 Z m 8.19514,-69.496267 v 22.02709 h 0.66201 V 17.340435 Z M 634.65675,145.29354 v 22.10622 h 0.66202 V 145.29354 Z M 390.59378,90.146157 v 20.398783 h 0.66217 V 90.146157 Z m 17.17503,-3.309455 v 18.744068 h 0.66201 V 86.836702 Z m -209.6657,-3.309446 v 22.053514 h 0.66201 V 83.527256 Z m 226.83979,0 v 22.053514 h 0.66216 V 83.527256 Z M 180.92886,86.836702 V 105.5656 h 0.66201 V 86.836702 Z m 261.18906,0 v 18.744068 h 0.66201 V 86.836702 Z M 163.75399,83.527256 V 104.7538 h 0.66202 V 83.527256 Z M 71.141766,16.28143 v 22.053357 h 0.662173 V 16.28143 Z M 400.09793,149.71407 v 18.74485 h 0.66202 V 149.71407 Z M 146.57897,80.217801 v 23.724189 h 0.66202 V 80.217801 Z M 269.00346,17.340435 v 22.053517 h 0.66217 V 17.340435 Z M 597.57625,145.29354 v 22.10622 h 0.66201 V 145.29354 Z M 470.11628,86.836702 v 22.069468 h 0.66201 V 86.836702 Z M 118.58061,76.90913 v 22.026317 h 0.66217 V 76.90913 Z m 368.71054,13.237027 v 19.571813 h 0.66201 V 90.146157 Z m 17.17503,3.309447 v 17.074166 h 0.66201 V 93.455604 Z M 92.818304,86.836702 v 22.053518 h 0.662013 V 86.836702 Z m 428.822736,3.309455 v 20.398783 h 0.66202 V 90.146157 Z M 75.643284,86.836702 V 108.8638 h 0.662013 V 86.836702 Z m 471.759436,3.309455 v 20.372363 h 0.66202 V 90.146157 Z M 375.37791,146.4054 v 20.42037 h 0.66201 V 146.4054 Z M 49.881766,86.836702 v 22.053518 h 0.662012 V 86.836702 Z M 328.37218,146.4054 v 22.05352 h 0.66201 V 146.4054 Z M 575.40109,90.146157 v 23.708233 h 0.66201 V 90.146157 Z M 299.87816,7.412397 v 22.02662 h 0.66217 V 7.412397 Z M 102.8203,6.3005432 V 28.407223 h 0.66202 V 6.3005432 Z M 592.57595,96.765051 v 17.089339 h 0.66202 V 96.765051 Z M 667.16852,6.2874086 V 28.407223 h 0.66216 V 6.2874086 Z M 609.75097,93.455604 v 20.398786 h 0.66202 V 93.455604 Z M 646.58569,5.4731022 V 25.097769 h 0.66202 V 5.4731022 Z M 626.92584,90.146157 V 107.2355 h 0.66202 V 90.146157 Z m 17.17487,-3.309455 V 107.2355 h 0.66217 V 86.836702 Z M 626.00287,4.658795 V 21.78832 h 0.66201 V 4.658795 Z M 174.85909,5.4731022 V 25.097769 h 0.66217 V 5.4731022 Z M 605.41989,4.6986663 V 25.097769 h 0.66217 V 4.6986663 Z M 329.92511,10.721691 v 22.053207 h 0.66218 V 10.721691 Z M 483.72309,159.64258 v 19.57166 h 0.66216 V 159.64258 Z M 574.54596,6.3005432 V 28.407223 h 0.66218 V 6.3005432 Z M 294.18709,156.33312 v 22.02695 h 0.66217 V 156.33312 Z M 133.69422,4.6986663 V 25.097769 h 0.66201 V 4.6986663 Z m 227.10482,9.3324747 v 22.026938 h 0.66216 V 14.031141 Z m 182.06933,2.250289 v 22.053357 h 0.66201 V 16.28143 Z M 49.881766,159.64258 v 20.42037 h 0.662012 V 159.64258 Z M 541.1056,143.63882 v 20.45149 h 0.66202 V 143.63882 Z M 511.99444,6.3005432 V 28.407223 h 0.66202 V 6.3005432 Z M 99.321967,166.26148 v 17.06761 h 0.662021 V 166.26148 Z M 491.41163,4.6458182 V 21.78832 h 0.66201 V 4.6458182 Z M 124.042,162.95203 v 18.74391 h 0.66201 V 162.95203 Z M 470.82864,4.6458182 V 25.097769 h 0.66217 V 4.6458182 Z M 161.12173,156.33312 v 22.02695 h 0.66201 V 156.33312 Z M 154.27705,4.658795 V 21.78832 h 0.66201 V 4.658795 Z M 450.24582,4.6458182 V 21.78832 h 0.66202 V 4.6458182 Z M 257.10736,146.4054 v 22.05352 h 0.66201 V 146.4054 Z m 251.33591,16.54663 v 17.07808 h 0.66201 V 162.95203 Z M 381.38202,17.340435 v 22.053517 h 0.66201 V 17.340435 Z m 30.87391,3.309294 v 20.37252 h 0.66203 V 20.649729 Z M 195.30666,146.4054 v 22.05352 h 0.66217 V 146.4054 Z M 74.601788,162.95203 v 18.74391 h 0.662021 V 162.95203 Z M 661.27495,90.146157 V 107.2355 h 0.66202 V 90.146157 Z M 257.92588,75.823236 c -4.9245,0 -9.86035,1.637504 -12.35188,4.97043 a 0.16531304,0.16531304 0 0 0 0.002,0.01626 0.16531304,0.16531304 0 0 0 0.008,0.194661 0.16531304,0.16531304 0 0 0 0.0199,8e-4 0.16531304,0.16531304 0 0 0 0.003,0.0197 0.16531304,0.16531304 0 0 0 0.19435,-0.01142 0.16531304,0.16531304 0 0 0 0.0166,8e-4 c 2.38349,-2.195333 7.24523,-3.333055 12.10749,-3.333055 4.86226,0 9.7238,1.137738 12.10687,3.333055 a 0.16532957,0.16532957 0 0 0 0.2444,-0.220614 c -2.49114,-3.332935 -7.42676,-4.970431 -12.35127,-4.970431 z m 0,0.330538 c 4.19411,0 8.37633,1.222604 10.98158,3.625135 -2.69866,-1.632557 -6.83733,-2.428221 -10.98158,-2.428221 -4.14449,0 -8.28359,0.795784 -10.98251,2.428533 2.60552,-2.402747 6.78822,-3.625447 10.98251,-3.625447 z m -12.21949,4.738896 c 4.88814,-6.538871 19.55096,-6.538871 24.4383,0 -4.88734,-4.502278 -19.55016,-4.502278 -24.4383,0 m 110.98718,53.50202 c -9.16007,0 -18.31848,1.95377 -22.94835,5.94141 a 0.16531304,0.16531304 0 0 0 -0.001,0.0149 0.16531304,0.16531304 0 0 0 -0.031,0.19857 0.16531304,0.16531304 0 0 0 0.0159,0.004 0.16531304,0.16531304 0 0 0 -0.001,0.0161 0.16531304,0.16531304 0 0 0 0.19889,0.0288 0.16531304,0.16531304 0 0 0 0.0144,0.003 c 4.50485,-2.83586 13.63343,-4.28793 22.75243,-4.28793 9.11901,0 18.24782,1.45206 22.75306,4.28793 a 0.16532957,0.16532957 0 0 0 0.19592,-0.26518 c -4.63026,-3.98763 -13.7889,-5.94141 -22.94898,-5.94141 z m 0,0.33054 c 8.00606,0 16.01071,1.52981 20.89335,4.53294 -4.98433,-2.19773 -12.93344,-3.27536 -20.89335,-3.27536 -7.96014,0 -15.90934,1.07766 -20.89334,3.27552 4.88229,-3.00325 12.88712,-4.5331 20.89334,-4.5331 z m -22.84051,5.73617 c 9.13584,-7.86858 36.54498,-7.86858 45.68163,0 -9.13665,-5.75113 -36.54579,-5.75113 -45.68163,0 m 260.60199,32.69495 a 0.16531304,0.16531304 0 0 0 -0.1057,0.0178 0.16531304,0.16531304 0 0 0 -0.10664,-8.1e-4 0.16531304,0.16531304 0 0 0 -0.008,0.0197 0.16531304,0.16531304 0 0 0 -0.01,0.002 0.16531304,0.16531304 0 0 0 0.003,0.0156 0.16531304,0.16531304 0 0 0 0.0145,0.1967 c 3.63385,3.66395 10.81657,5.45686 17.99574,5.45686 7.17917,0 14.36197,-1.79292 17.99621,-5.45686 a 0.16532957,0.16532957 0 0 0 -0.21311,-0.25111 c -3.51243,2.50084 -10.65132,3.78853 -17.7831,3.78853 -7.13177,0 -14.27045,-1.28769 -17.78247,-3.78853 z m 1.47632,1.24663 c 3.91599,1.92972 10.10598,2.87259 16.30615,2.87259 6.20018,0 12.39034,-0.94287 16.30661,-2.87259 -3.81444,2.73575 -10.05856,4.13064 -16.30661,4.13064 -6.24805,0 -12.49201,-1.3949 -16.30615,-4.13064 z m -1.57219,-1.11193 c 7.15129,5.09228 28.60515,5.09228 35.75724,0 -7.15209,7.21053 -28.60595,7.21053 -35.75724,0 M 449.53862,148.23869 v 27.20266 h 1.19113 V 148.23869 Z M 320.46067,9.2458378 V 36.448658 h 1.19128 V 9.2458378 Z M 318.90758,148.23869 v 27.20266 h 1.19129 V 148.23869 Z M 432.83907,9.2458378 V 36.448658 h 1.19129 V 9.2458378 Z M 185.84222,148.23869 v 27.20266 h 1.19129 V 148.23869 Z M 346.77945,78.742416 v 27.202514 h 1.19128 V 78.742416 Z M 557.13937,9.2458378 V 36.448658 h 1.19113 V 9.2458378 Z M 580.1695,148.23869 v 27.20266 h 1.19112 V 148.23869 Z M 679.80887,78.742416 V 105.94493 H 681 V 78.742416 Z m 0,-69.4965782 V 36.448658 H 681 V 9.2458378 Z M 565.93649,78.742416 v 27.202514 h 1.19128 V 78.742416 Z M 85.412769,9.2458378 V 36.448658 h 1.191286 V 9.2458378 Z M 137.11453,78.742416 v 27.202514 h 1.19128 V 78.742416 Z m 323.53715,0 v 27.202514 h 1.19129 V 78.742416 Z m -229.88984,0 v 27.202514 h 1.19113 V 78.742416 Z m 76.72793,0 v 27.202514 h 3.64015 V 78.742416 Z m -3.64045,0 v 27.202514 h 1.19127 V 78.742416 Z m -2.44725,16.910747 c 0,-0.768526 -0.60922,-1.404961 -1.37775,-1.404961 -0.76852,0 -1.37774,0.636435 -1.37774,1.404961 0,0.768525 0.60922,1.40416 1.37774,1.40416 0.76853,0 1.37775,-0.635635 1.37775,-1.40416 m 0,-6.618926 c 0,-0.768526 -0.60922,-1.40416 -1.37775,-1.40416 -0.76852,0 -1.37774,0.635634 -1.37774,1.40416 0,0.768525 0.60922,1.40416 1.37774,1.40416 0.76853,0 1.37775,-0.635635 1.37775,-1.40416 m 375.95747,59.204453 v 27.20266 h 3.64015 v -27.20266 z m -3.63967,0 v 27.20266 H 674.911 V 148.23869 Z M 319.97397,95.653163 c 0,-0.768526 -0.60922,-1.404961 -1.37775,-1.404961 -0.76852,0 -1.37774,0.636435 -1.37774,1.404961 0,0.768525 0.60922,1.40416 1.37774,1.40416 0.76853,0 1.37775,-0.635635 1.37775,-1.40416 m 0,-6.618926 c 0,-0.768526 -0.60922,-1.40416 -1.37775,-1.40416 -0.76852,0 -1.37774,0.635634 -1.37774,1.40416 0,0.768525 0.60922,1.40416 1.37774,1.40416 0.76853,0 1.37775,-0.635635 1.37775,-1.40416 m -6.39551,-10.291821 v 27.202514 h 1.19113 V 78.742416 Z m -6.08869,0 v 27.202514 h 3.64015 V 78.742416 Z M 208.08228,9.2458378 V 36.448658 h 1.19112 V 9.2458378 Z M 0,174.7132 v 0.72768 h 681 v -0.72768 z m 0,-6.61812 v 0.72768 h 681 v -0.72768 z m 0,-6.6189 v 0.72768 h 681 v -0.72768 z m 0,-6.6189 v 0.72768 h 681 v -0.72768 z m 0,-6.61891 v 0.72769 h 681 v -0.72769 z m 0,-43.02144 v 0.72769 h 681 v -0.72769 z m 0,-6.618121 v 0.727681 h 681 v -0.727681 z m 0,-6.618902 v 0.727682 h 681 v -0.727682 z m 0,-6.619054 v 0.727842 h 681 v -0.727842 z m 0,-6.618901 v 0.727681 H 681 V 78.741952 Z M 0,35.720656 v 0.727689 h 681 v -0.727689 z m 0,-6.618269 v 0.727841 h 681 v -0.727841 z m 0,-6.61906 v 0.727685 h 681 v -0.727685 z m 0,-6.618588 v 0.727684 H 681 V 15.864739 Z M 0,9.2459947 V 9.9736795 H 681 V 9.2459947 Z"
     style="stroke-width:0.0800547" />
  <metadata
     id="metadata219">
    <rdf:RDF>
      <cc:Work
         rdf:about="">
        <dc:title>air_XLVI</dc:title>
      </cc:Work>
    </rdf:RDF>
  </metadata>
</svg>
