<?xml version="1.0" encoding="UTF-8" standalone="no"?>
<svg width="210.058mm" height="296.926mm" viewBox="0 0 9924 14028"
 xmlns="http://www.w3.org/2000/svg" xmlns:xlink="http://www.w3.org/1999/xlink" version="1.2" baseProfile="full">
<title>air_XLII</title>
<desc>Generated by MuseScore Studio 4.7.3</desc>
<polyline class="StaffLines" fill="none" stroke="#000000" stroke-width="9.09" stroke-linejoin="bevel" points="708.661,828.424 9215.34,828.424" />
<polyline class="StaffLines" fill="none" stroke="#000000" stroke-width="9.09" stroke-linejoin="bevel" points="708.661,911.101 9215.34,911.101" />
<polyline class="StaffLines" fill="none" stroke="#000000" stroke-width="9.09" stroke-linejoin="bevel" points="708.661,993.778 9215.34,993.778" />
<polyline class="StaffLines" fill="none" stroke="#000000" stroke-width="9.09" stroke-linejoin="bevel" points="708.661,1076.46 9215.34,1076.46" />
<polyline class="StaffLines" fill="none" stroke="#000000" stroke-width="9.09" stroke-linejoin="bevel" points="708.661,1159.13 9215.34,1159.13" />
<polyline class="StaffLines" fill="none" stroke="#000000" stroke-width="9.09" stroke-linejoin="bevel" points="708.661,1696.53 9215.34,1696.53" />
<polyline class="StaffLines" fill="none" stroke="#000000" stroke-width="9.09" stroke-linejoin="bevel" points="708.661,1779.21 9215.34,1779.21" />
<polyline class="StaffLines" fill="none" stroke="#000000" stroke-width="9.09" stroke-linejoin="bevel" points="708.661,1861.89 9215.34,1861.89" />
<polyline class="StaffLines" fill="none" stroke="#000000" stroke-width="9.09" stroke-linejoin="bevel" points="708.661,1944.57 9215.34,1944.57" />
<polyline class="StaffLines" fill="none" stroke="#000000" stroke-width="9.09" stroke-linejoin="bevel" points="708.661,2027.24 9215.34,2027.24" />
<polyline class="StaffLines" fill="none" stroke="#000000" stroke-width="9.09" stroke-linejoin="bevel" points="708.661,2564.64 9215.34,2564.64" />
<polyline class="StaffLines" fill="none" stroke="#000000" stroke-width="9.09" stroke-linejoin="bevel" points="708.661,2647.32 9215.34,2647.32" />
<polyline class="StaffLines" fill="none" stroke="#000000" stroke-width="9.09" stroke-linejoin="bevel" points="708.661,2730 9215.34,2730" />
<polyline class="StaffLines" fill="none" stroke="#000000" stroke-width="9.09" stroke-linejoin="bevel" points="708.661,2812.68 9215.34,2812.68" />
<polyline class="StaffLines" fill="none" stroke="#000000" stroke-width="9.09" stroke-linejoin="bevel" points="708.661,2895.35 9215.34,2895.35" />
<polyline class="BarLine" fill="none" stroke="#000000" stroke-width="14.88" stroke-linejoin="bevel" points="4648.34,1691.99 4648.34,2031.79" />
<polyline class="BarLine" fill="none" stroke="#000000" stroke-width="14.88" stroke-linejoin="bevel" points="8526.56,823.876 8526.56,1163.68" />
<path class="BarLine" d="M9093.83,952.439 C9093.83,942.84 9086.22,934.896 9076.62,934.896 C9067.02,934.896 9059.41,942.84 9059.41,952.439 C9059.41,962.038 9067.02,969.982 9076.62,969.982 C9086.22,969.982 9093.83,962.038 9093.83,952.439"/>
<path class="BarLine" d="M9093.83,1035.12 C9093.83,1025.52 9086.22,1017.57 9076.62,1017.57 C9067.02,1017.57 9059.41,1025.52 9059.41,1035.12 C9059.41,1044.72 9067.02,1052.66 9076.62,1052.66 C9086.22,1052.66 9093.83,1044.72 9093.83,1035.12"/>
<polyline class="BarLine" fill="none" stroke="#000000" stroke-width="14.88" stroke-linejoin="bevel" points="9131.84,823.876 9131.84,1163.68" />
<polyline class="BarLine" fill="none" stroke="#000000" stroke-width="45.47" stroke-linejoin="bevel" points="9192.6,823.876 9192.6,1163.68" />
<polyline class="BarLine" fill="none" stroke="#000000" stroke-width="14.88" stroke-linejoin="bevel" points="7412.42,1691.99 7412.42,2031.79" />
<polyline class="BarLine" fill="none" stroke="#000000" stroke-width="14.88" stroke-linejoin="bevel" points="7546.53,823.876 7546.53,1163.68" />
<polyline class="BarLine" fill="none" stroke="#000000" stroke-width="14.88" stroke-linejoin="bevel" points="5375.09,2560.1 5375.09,2899.9" />
<polyline class="BarLine" fill="none" stroke="#000000" stroke-width="14.88" stroke-linejoin="bevel" points="1913.12,823.876 1913.12,1163.68" />
<polyline class="BarLine" fill="none" stroke="#000000" stroke-width="45.47" stroke-linejoin="bevel" points="1356.81,1691.99 1356.81,2031.79" />
<polyline class="BarLine" fill="none" stroke="#000000" stroke-width="14.88" stroke-linejoin="bevel" points="1417.58,1691.99 1417.58,2031.79" />
<path class="BarLine" d="M1490.03,1820.55 C1490.03,1810.95 1482.42,1803.01 1472.82,1803.01 C1463.22,1803.01 1455.61,1810.95 1455.61,1820.55 C1455.61,1830.15 1463.22,1838.09 1472.82,1838.09 C1482.42,1838.09 1490.03,1830.15 1490.03,1820.55"/>
<path class="BarLine" d="M1490.03,1903.23 C1490.03,1893.63 1482.42,1885.68 1472.82,1885.68 C1463.22,1885.68 1455.61,1893.63 1455.61,1903.23 C1455.61,1912.83 1463.22,1920.77 1472.82,1920.77 C1482.42,1920.77 1490.03,1912.83 1490.03,1903.23"/>
<polyline class="BarLine" fill="none" stroke="#000000" stroke-width="14.88" stroke-linejoin="bevel" points="1884.25,1691.99 1884.25,2031.79" />
<polyline class="BarLine" fill="none" stroke="#000000" stroke-width="14.88" stroke-linejoin="bevel" points="8543.68,2560.1 8543.68,2899.9" />
<polyline class="BarLine" fill="none" stroke="#000000" stroke-width="14.88" stroke-linejoin="bevel" points="8381.03,1691.99 8381.03,2031.79" />
<polyline class="BarLine" fill="none" stroke="#000000" stroke-width="14.88" stroke-linejoin="bevel" points="6584.18,823.876 6584.18,1163.68" />
<polyline class="BarLine" fill="none" stroke="#000000" stroke-width="14.88" stroke-linejoin="bevel" points="3415.54,2560.1 3415.54,2899.9" />
<polyline class="BarLine" fill="none" stroke="#000000" stroke-width="14.88" stroke-linejoin="bevel" points="2852.86,1691.99 2852.86,2031.79" />
<polyline class="BarLine" fill="none" stroke="#000000" stroke-width="14.88" stroke-linejoin="bevel" points="6443.82,1691.99 6443.82,2031.79" />
<polyline class="BarLine" fill="none" stroke="#000000" stroke-width="14.88" stroke-linejoin="bevel" points="2875.47,823.876 2875.47,1163.68" />
<polyline class="BarLine" fill="none" stroke="#000000" stroke-width="14.88" stroke-linejoin="bevel" points="6433.18,2560.1 6433.18,2899.9" />
<polyline class="BarLine" fill="none" stroke="#000000" stroke-width="14.88" stroke-linejoin="bevel" points="5621.83,823.876 5621.83,1163.68" />
<polyline class="BarLine" fill="none" stroke="#000000" stroke-width="14.88" stroke-linejoin="bevel" points="9207.9,1691.99 9207.9,2031.79" />
<polyline class="BarLine" fill="none" stroke="#000000" stroke-width="14.88" stroke-linejoin="bevel" points="3679.73,1691.99 3679.73,2031.79" />
<polyline class="BarLine" fill="none" stroke="#000000" stroke-width="14.88" stroke-linejoin="bevel" points="5475.21,1691.99 5475.21,2031.79" />
<polyline class="BarLine" fill="none" stroke="#000000" stroke-width="14.88" stroke-linejoin="bevel" points="4800.17,823.876 4800.17,1163.68" />
<polyline class="BarLine" fill="none" stroke="#000000" stroke-width="14.88" stroke-linejoin="bevel" points="2357.44,2560.1 2357.44,2899.9" />
<polyline class="BarLine" fill="none" stroke="#000000" stroke-width="14.88" stroke-linejoin="bevel" points="3837.82,823.876 3837.82,1163.68" />
<polyline class="BarLine" fill="none" stroke="#000000" stroke-width="14.88" stroke-linejoin="bevel" points="4473.63,2560.1 4473.63,2899.9" />
<polyline class="BarLine" fill="none" stroke="#000000" stroke-width="14.88" stroke-linejoin="bevel" points="9131.84,2560.1 9131.84,2899.9" />
<polyline class="BarLine" fill="none" stroke="#000000" stroke-width="45.47" stroke-linejoin="bevel" points="9192.6,2560.1 9192.6,2899.9" />
<polyline class="BarLine" fill="none" stroke="#000000" stroke-width="14.88" stroke-linejoin="bevel" points="7491.27,2560.1 7491.27,2899.9" />
<path class="Accidental" d="M2229.72,1093.3 L2259.18,1087.34 L2259.18,1141.96 L2229.72,1148.25 L2229.72,1093.3 M2281.03,1083.04 C2283.01,1082.71 2284.67,1080.39 2284.67,1078.4 L2284.67,1058.88 C2284.67,1056.23 2282.68,1054.24 2280.03,1054.24 L2279.37,1054.24 L2268.45,1056.56 L2268.45,1007.24 L2259.18,1007.24 L2259.18,1058.54 L2229.72,1064.5 L2229.72,1017.83 L2220.45,1017.83 L2220.45,1066.49 L2207.55,1069.14 C2205.56,1069.47 2203.9,1071.78 2203.9,1073.77 L2203.9,1092.97 C2203.9,1095.62 2205.89,1097.6 2208.54,1097.6 L2209.53,1097.6 L2220.45,1095.29 L2220.45,1149.9 L2207.55,1152.55 C2205.56,1152.88 2203.9,1155.2 2203.9,1157.18 L2203.9,1176.38 C2203.9,1179.03 2205.89,1181.01 2208.54,1181.01 L2209.53,1181.01 L2220.45,1178.7 L2220.45,1228.02 L2229.72,1228.02 L2229.72,1176.71 L2259.18,1170.75 L2259.18,1217.42 L2268.45,1217.42 L2268.45,1168.77 L2281.03,1166.45 C2283.01,1166.12 2284.67,1163.8 2284.67,1161.82 L2284.67,1142.29 C2284.67,1139.64 2282.68,1137.65 2280.03,1137.65 L2279.37,1137.65 L2268.45,1139.97 L2268.45,1085.36 L2281.03,1083.04 "/>
<path class="Accidental" d="M8013.9,1769.98 L8013.9,1715.7 L8052.29,1704.77 L8052.29,1759.39 L8013.9,1769.98 M8059.58,1677.3 C8058.91,1676.64 8057.92,1676.31 8056.93,1676.31 C8056.6,1676.31 8055.94,1676.64 8055.6,1676.64 L8013.9,1688.22 L8013.9,1630.3 L8004.63,1630.3 L8004.63,1794.14 C8004.63,1796.79 8006.62,1798.45 8009.26,1798.45 L8010.59,1798.45 L8052.29,1786.86 L8052.29,1844.79 L8061.23,1844.79 L8061.23,1680.94 C8061.23,1679.62 8060.57,1677.96 8059.58,1677.3"/>
<path class="Accidental" d="M6761.84,1769.98 L6761.84,1715.7 L6800.23,1704.77 L6800.23,1759.39 L6761.84,1769.98 M6807.51,1677.3 C6806.85,1676.64 6805.86,1676.31 6804.87,1676.31 C6804.53,1676.31 6803.87,1676.64 6803.54,1676.64 L6761.84,1688.22 L6761.84,1630.3 L6752.57,1630.3 L6752.57,1794.14 C6752.57,1796.79 6754.55,1798.45 6757.2,1798.45 L6758.53,1798.45 L6800.23,1786.86 L6800.23,1844.79 L6809.17,1844.79 L6809.17,1680.94 C6809.17,1679.62 6808.51,1677.96 6807.51,1677.3"/>
<path class="Accidental" d="M2485.73,1769.98 L2485.73,1715.7 L2524.13,1704.77 L2524.13,1759.39 L2485.73,1769.98 M2531.41,1677.3 C2530.75,1676.64 2529.75,1676.31 2528.76,1676.31 C2528.43,1676.31 2527.77,1676.64 2527.44,1676.64 L2485.73,1688.22 L2485.73,1630.3 L2476.46,1630.3 L2476.46,1794.14 C2476.46,1796.79 2478.45,1798.45 2481.1,1798.45 L2482.42,1798.45 L2524.13,1786.86 L2524.13,1844.79 L2533.06,1844.79 L2533.06,1680.94 C2533.06,1679.62 2532.4,1677.96 2531.41,1677.3"/>
<path class="Accidental" d="M6076.69,1769.98 L6076.69,1715.7 L6115.09,1704.77 L6115.09,1759.39 L6076.69,1769.98 M6122.37,1677.3 C6121.71,1676.64 6120.71,1676.31 6119.72,1676.31 C6119.39,1676.31 6118.73,1676.64 6118.4,1676.64 L6076.69,1688.22 L6076.69,1630.3 L6067.42,1630.3 L6067.42,1794.14 C6067.42,1796.79 6069.41,1798.45 6072.06,1798.45 L6073.38,1798.45 L6115.09,1786.86 L6115.09,1844.79 L6124.02,1844.79 L6124.02,1680.94 C6124.02,1679.62 6123.36,1677.96 6122.37,1677.3"/>
<path class="Accidental" d="M4281.21,1769.98 L4281.21,1715.7 L4319.61,1704.77 L4319.61,1759.39 L4281.21,1769.98 M4326.89,1677.3 C4326.23,1676.64 4325.23,1676.31 4324.24,1676.31 C4323.91,1676.31 4323.25,1676.64 4322.92,1676.64 L4281.21,1688.22 L4281.21,1630.3 L4271.94,1630.3 L4271.94,1794.14 C4271.94,1796.79 4273.93,1798.45 4276.58,1798.45 L4277.9,1798.45 L4319.61,1786.86 L4319.61,1844.79 L4328.54,1844.79 L4328.54,1680.94 C4328.54,1679.62 4327.88,1677.96 4326.89,1677.3"/>
<polyline class="Stem" fill="none" stroke="#000000" stroke-width="8.27" stroke-linejoin="bevel" points="7810.8,1710.42 7810.8,1985.9" />
<polyline class="Stem" fill="none" stroke="#000000" stroke-width="8.27" stroke-linejoin="bevel" points="8757.81,2799.45 8757.81,2523.31" />
<polyline class="Stem" fill="none" stroke="#000000" stroke-width="8.27" stroke-linejoin="bevel" points="8341.09,1063.23 8341.09,787.085" />
<polyline class="Stem" fill="none" stroke="#000000" stroke-width="8.27" stroke-linejoin="bevel" points="8094.26,1751.76 8094.26,2027.24" />
<polyline class="Stem" fill="none" stroke="#000000" stroke-width="8.27" stroke-linejoin="bevel" points="4687.77,2758.11 4687.77,2502.64" />
<polyline class="Stem" fill="none" stroke="#000000" stroke-width="8.27" stroke-linejoin="bevel" points="5157.7,2923.46 5157.7,2647.32" />
<polyline class="Stem" fill="none" stroke="#000000" stroke-width="8.27" stroke-linejoin="bevel" points="8740.69,1063.23 8740.69,787.085" />
<polyline class="Stem" fill="none" stroke="#000000" stroke-width="8.27" stroke-linejoin="bevel" points="4256.25,2799.45 4256.25,2523.31" />
<polyline class="Stem" fill="none" stroke="#000000" stroke-width="8.27" stroke-linejoin="bevel" points="7661.45,1007.67 7661.45,1241.81" />
<polyline class="Stem" fill="none" stroke="#000000" stroke-width="8.27" stroke-linejoin="bevel" points="7261.85,924.991 7261.85,1200.47" />
<polyline class="Stem" fill="none" stroke="#000000" stroke-width="8.27" stroke-linejoin="bevel" points="3942.96,2758.11 3942.96,2502.64" />
<polyline class="Stem" fill="none" stroke="#000000" stroke-width="8.27" stroke-linejoin="bevel" points="3530.46,2743.89 3530.46,2978.03" />
<polyline class="Stem" fill="none" stroke="#000000" stroke-width="8.27" stroke-linejoin="bevel" points="6980.48,966.329 6980.48,1221.14" />
<polyline class="Stem" fill="none" stroke="#000000" stroke-width="8.27" stroke-linejoin="bevel" points="1597.49,1793.1 1597.49,2068.58" />
<polyline class="Stem" fill="none" stroke="#000000" stroke-width="8.27" stroke-linejoin="bevel" points="5490.01,2743.89 5490.01,2978.03" />
<polyline class="Stem" fill="none" stroke="#000000" stroke-width="8.27" stroke-linejoin="bevel" points="6699.1,966.329 6699.1,1221.14" />
<polyline class="Stem" fill="none" stroke="#000000" stroke-width="8.27" stroke-linejoin="bevel" points="5902.51,2758.11 5902.51,2502.64" />
<polyline class="Stem" fill="none" stroke="#000000" stroke-width="8.27" stroke-linejoin="bevel" points="1999.18,1793.1 1999.18,2068.58" />
<polyline class="Stem" fill="none" stroke="#000000" stroke-width="8.27" stroke-linejoin="bevel" points="6299.5,1007.67 6299.5,1241.81" />
<polyline class="Stem" fill="none" stroke="#000000" stroke-width="8.27" stroke-linejoin="bevel" points="2282.63,1710.42 2282.63,1985.9" />
<polyline class="Stem" fill="none" stroke="#000000" stroke-width="8.27" stroke-linejoin="bevel" points="3198.16,2840.79 3198.16,2564.64" />
<polyline class="Stem" fill="none" stroke="#000000" stroke-width="8.27" stroke-linejoin="bevel" points="2566.09,1751.76 2566.09,2027.24" />
<polyline class="Stem" fill="none" stroke="#000000" stroke-width="8.27" stroke-linejoin="bevel" points="2884.87,2758.11 2884.87,2502.64" />
<polyline class="Stem" fill="none" stroke="#000000" stroke-width="8.27" stroke-linejoin="bevel" points="6116.58,2743.89 6116.58,2978.03" />
<polyline class="Stem" fill="none" stroke="#000000" stroke-width="8.27" stroke-linejoin="bevel" points="6117.34,1021.89 6117.34,766.416" />
<polyline class="Stem" fill="none" stroke="#000000" stroke-width="8.27" stroke-linejoin="bevel" points="5736.75,1007.67 5736.75,1241.81" />
<polyline class="Stem" fill="none" stroke="#000000" stroke-width="8.27" stroke-linejoin="bevel" points="2967.78,1793.1 2967.78,2068.58" />
<polyline class="Stem" fill="none" stroke="#000000" stroke-width="8.27" stroke-linejoin="bevel" points="2472.37,2702.55 2472.37,2957.36" />
<polyline class="Stem" fill="none" stroke="#000000" stroke-width="8.27" stroke-linejoin="bevel" points="3392.97,1793.1 3392.97,2068.58" />
<polyline class="Stem" fill="none" stroke="#000000" stroke-width="8.27" stroke-linejoin="bevel" points="5436.36,1187.24 5436.36,911.101" />
<polyline class="Stem" fill="none" stroke="#000000" stroke-width="8.27" stroke-linejoin="bevel" points="6548.1,2702.55 6548.1,2957.36" />
<polyline class="Stem" fill="none" stroke="#000000" stroke-width="8.27" stroke-linejoin="bevel" points="5014.3,1021.89 5014.3,766.416" />
<polyline class="Stem" fill="none" stroke="#000000" stroke-width="8.27" stroke-linejoin="bevel" points="3794.65,1793.1 3794.65,2068.58" />
<polyline class="Stem" fill="none" stroke="#000000" stroke-width="8.27" stroke-linejoin="bevel" points="6861.39,2702.55 6861.39,2957.36" />
<polyline class="Stem" fill="none" stroke="#000000" stroke-width="8.27" stroke-linejoin="bevel" points="4078.11,1710.42 4078.11,1985.9" />
<polyline class="Stem" fill="none" stroke="#000000" stroke-width="8.27" stroke-linejoin="bevel" points="2040.85,2743.89 2040.85,2978.03" />
<polyline class="Stem" fill="none" stroke="#000000" stroke-width="8.27" stroke-linejoin="bevel" points="4361.57,1751.76 4361.57,2027.24" />
<polyline class="Stem" fill="none" stroke="#000000" stroke-width="8.27" stroke-linejoin="bevel" points="1727.56,2702.55 1727.56,2957.36" />
<polyline class="Stem" fill="none" stroke="#000000" stroke-width="8.27" stroke-linejoin="bevel" points="4614.7,1063.23 4614.7,787.085" />
<polyline class="Stem" fill="none" stroke="#000000" stroke-width="8.27" stroke-linejoin="bevel" points="7174.68,2661.21 7174.68,2936.69" />
<polyline class="Stem" fill="none" stroke="#000000" stroke-width="8.27" stroke-linejoin="bevel" points="4333.32,1021.89 4333.32,766.416" />
<polyline class="Stem" fill="none" stroke="#000000" stroke-width="8.27" stroke-linejoin="bevel" points="3952.74,1007.67 3952.74,1241.81" />
<polyline class="Stem" fill="none" stroke="#000000" stroke-width="8.27" stroke-linejoin="bevel" points="1414.27,2661.21 1414.27,2936.69" />
<polyline class="Stem" fill="none" stroke="#000000" stroke-width="8.27" stroke-linejoin="bevel" points="5188.45,1793.1 5188.45,2068.58" />
<polyline class="Stem" fill="none" stroke="#000000" stroke-width="8.27" stroke-linejoin="bevel" points="3553.14,966.329 3553.14,1221.14" />
<polyline class="Stem" fill="none" stroke="#000000" stroke-width="8.27" stroke-linejoin="bevel" points="7606.2,2743.89 7606.2,2978.03" />
<polyline class="Stem" fill="none" stroke="#000000" stroke-width="8.27" stroke-linejoin="bevel" points="3271.76,1007.67 3271.76,1241.81" />
<polyline class="Stem" fill="none" stroke="#000000" stroke-width="8.27" stroke-linejoin="bevel" points="5590.13,1793.1 5590.13,2068.58" />
<polyline class="Stem" fill="none" stroke="#000000" stroke-width="8.27" stroke-linejoin="bevel" points="7527.34,1669.09 7527.34,1944.57" />
<polyline class="Stem" fill="none" stroke="#000000" stroke-width="8.27" stroke-linejoin="bevel" points="5873.59,1710.42 5873.59,1985.9" />
<polyline class="Stem" fill="none" stroke="#000000" stroke-width="8.27" stroke-linejoin="bevel" points="8921.13,1710.42 8921.13,1985.9" />
<polyline class="Stem" fill="none" stroke="#000000" stroke-width="8.27" stroke-linejoin="bevel" points="6157.05,1751.76 6157.05,2027.24" />
<polyline class="Stem" fill="none" stroke="#000000" stroke-width="8.27" stroke-linejoin="bevel" points="8495.95,1793.1 8495.95,2068.58" />
<polyline class="Stem" fill="none" stroke="#000000" stroke-width="8.27" stroke-linejoin="bevel" points="3089.6,1021.89 3089.6,766.416" />
<polyline class="Stem" fill="none" stroke="#000000" stroke-width="8.27" stroke-linejoin="bevel" points="8102.56,2758.11 8102.56,2503.3" />
<polyline class="Stem" fill="none" stroke="#000000" stroke-width="8.27" stroke-linejoin="bevel" points="2690,1063.23 2690,787.085" />
<polyline class="Stem" fill="none" stroke="#000000" stroke-width="8.27" stroke-linejoin="bevel" points="6558.74,1793.1 6558.74,2068.58" />
<polyline class="Stem" fill="none" stroke="#000000" stroke-width="8.27" stroke-linejoin="bevel" points="8326.29,2799.45 8326.29,2523.31" />
<polyline class="Stem" fill="none" stroke="#000000" stroke-width="8.27" stroke-linejoin="bevel" points="6842.2,1751.76 6842.2,2027.24" />
<polyline class="Stem" fill="none" stroke="#000000" stroke-width="8.27" stroke-linejoin="bevel" points="2408.62,1104.57 2408.62,828.424" />
<polyline class="Stem" fill="none" stroke="#000000" stroke-width="8.27" stroke-linejoin="bevel" points="2127.25,1063.23 2127.25,787.085" />
<polyline class="Stem" fill="none" stroke="#000000" stroke-width="8.27" stroke-linejoin="bevel" points="7125.66,1710.42 7125.66,1985.9" />
<polyline class="Stem" fill="none" stroke="#000000" stroke-width="8.27" stroke-linejoin="bevel" points="1696.38,1187.24 1696.38,911.101" />
<polyline class="Stem" fill="none" stroke="#000000" stroke-width="8.27" stroke-linejoin="bevel" points="4763.26,1793.1 4763.26,2068.58" />
<polyline class="Stem" fill="none" stroke="#000000" stroke-width="8.27" stroke-linejoin="bevel" points="8117.35,1021.89 8117.35,767.077" />
<path class="Hook" d="M8098.42,2577.77 C8098.42,2578.77 8098.75,2580.42 8101.07,2581.41 C8115.3,2586.05 8143.77,2603.92 8165.28,2640.66 C8171.24,2650.92 8180.84,2665.16 8180.84,2692.63 C8180.84,2716.46 8174.55,2740.96 8165.95,2764.79 C8165.28,2766.77 8164.62,2768.43 8164.95,2769.75 C8164.95,2771.74 8166.28,2773.06 8168.26,2773.06 C8170.58,2773.06 8172.24,2771.74 8173.56,2769.42 C8188.45,2742.94 8194.08,2712.16 8194.08,2682.04 C8192.43,2639.34 8167.93,2607.89 8167.93,2607.89 C8168.93,2607.89 8137.48,2567.18 8128.54,2553.28 C8116.3,2534.41 8110.67,2515.55 8110.01,2514.22 C8109.68,2513.23 8106.7,2501.31 8106.7,2501.31 C8106.37,2499.99 8104.71,2498.66 8102.73,2498.66 C8100.41,2498.66 8098.42,2500.65 8098.42,2502.97 L8098.42,2577.77 "/>
<path class="Hook" d="M8113.22,841.553 C8113.22,842.546 8113.55,844.201 8115.87,845.194 C8130.1,849.828 8158.57,867.702 8180.08,904.443 C8186.04,914.704 8195.64,928.937 8195.64,956.41 C8195.64,980.242 8189.35,1004.74 8180.74,1028.57 C8180.08,1030.55 8179.42,1032.21 8179.75,1033.53 C8179.75,1035.52 8181.08,1036.84 8183.06,1036.84 C8185.38,1036.84 8187.03,1035.52 8188.36,1033.2 C8203.25,1006.72 8208.88,975.939 8208.88,945.818 C8207.22,903.119 8182.73,871.674 8182.73,871.674 C8183.72,871.674 8152.28,830.961 8143.34,817.059 C8131.09,798.192 8125.47,779.325 8124.81,778.001 C8124.47,777.008 8121.5,765.092 8121.5,765.092 C8121.16,763.768 8119.51,762.444 8117.52,762.444 C8115.21,762.444 8113.22,764.43 8113.22,766.747 L8113.22,841.553 "/>
<path class="Note" d="M8679.29,2841.14 C8668.37,2841.14 8666.05,2832.2 8666.05,2829.23 C8666.05,2813.01 8721.66,2784.54 8737.21,2784.54 C8745.16,2784.54 8750.45,2789.17 8750.45,2796.46 C8750.45,2813.01 8694.51,2841.14 8679.29,2841.14 M8724.97,2768.98 C8692.86,2768.98 8654.46,2795.79 8654.46,2826.58 C8654.46,2840.81 8664.72,2856.7 8691.54,2856.7 C8725.96,2856.7 8762.04,2828.56 8762.04,2799.44 C8762.04,2779.91 8745.49,2768.98 8724.97,2768.98"/>
<path class="Note" d="M2986.25,1049.02 C2986.25,1063.25 2996.51,1079.14 3023.33,1079.14 C3057.75,1079.14 3093.83,1051 3093.83,1021.88 C3093.83,1002.35 3077.28,991.425 3056.76,991.425 C3024.65,991.425 2986.25,1018.57 2986.25,1049.02"/>
<path class="Note" d="M7523.21,1669.1 C7523.21,1683.33 7533.47,1699.22 7560.28,1699.22 C7594.7,1699.22 7630.78,1671.08 7630.78,1641.96 C7630.78,1622.43 7614.23,1611.5 7593.71,1611.5 C7561.6,1611.5 7523.21,1638.65 7523.21,1669.1"/>
<path class="Note" d="M8090.13,1751.77 C8090.13,1766.01 8100.39,1781.9 8127.2,1781.9 C8161.62,1781.9 8197.7,1753.76 8197.7,1724.63 C8197.7,1705.1 8181.15,1694.18 8160.63,1694.18 C8128.52,1694.18 8090.13,1721.32 8090.13,1751.77"/>
<path class="Note" d="M7121.52,1710.44 C7121.52,1724.67 7131.78,1740.56 7158.59,1740.56 C7193.02,1740.56 7229.1,1712.42 7229.1,1683.29 C7229.1,1663.76 7212.55,1652.84 7192.02,1652.84 C7159.92,1652.84 7121.52,1679.98 7121.52,1710.44"/>
<path class="Note" d="M6838.06,1751.77 C6838.06,1766.01 6848.32,1781.9 6875.13,1781.9 C6909.56,1781.9 6945.64,1753.76 6945.64,1724.63 C6945.64,1705.1 6929.09,1694.18 6908.57,1694.18 C6876.46,1694.18 6838.06,1721.32 6838.06,1751.77"/>
<path class="Note" d="M6554.6,1793.11 C6554.6,1807.35 6564.87,1823.23 6591.68,1823.23 C6626.1,1823.23 6662.18,1795.1 6662.18,1765.97 C6662.18,1746.44 6645.63,1735.52 6625.11,1735.52 C6593,1735.52 6554.6,1762.66 6554.6,1793.11"/>
<path class="Note" d="M6152.92,1751.77 C6152.92,1766.01 6163.18,1781.9 6189.99,1781.9 C6224.41,1781.9 6260.49,1753.76 6260.49,1724.63 C6260.49,1705.1 6243.94,1694.18 6223.42,1694.18 C6191.31,1694.18 6152.92,1721.32 6152.92,1751.77"/>
<path class="Note" d="M8516.64,1807.68 C8505.71,1807.68 8503.4,1798.74 8503.4,1795.76 C8503.4,1779.54 8559.01,1751.08 8574.56,1751.08 C8582.51,1751.08 8587.8,1755.71 8587.8,1762.99 C8587.8,1779.54 8531.86,1807.68 8516.64,1807.68 M8562.32,1735.52 C8530.21,1735.52 8491.81,1762.33 8491.81,1793.11 C8491.81,1807.35 8502.07,1823.23 8528.88,1823.23 C8563.31,1823.23 8599.39,1795.1 8599.39,1765.97 C8599.39,1746.44 8582.84,1735.52 8562.32,1735.52"/>
<path class="Note" d="M5869.46,1710.44 C5869.46,1724.67 5879.72,1740.56 5906.53,1740.56 C5940.95,1740.56 5977.03,1712.42 5977.03,1683.29 C5977.03,1663.76 5960.48,1652.84 5939.96,1652.84 C5907.85,1652.84 5869.46,1679.98 5869.46,1710.44"/>
<path class="Note" d="M8917,1710.44 C8917,1724.67 8927.26,1740.56 8954.07,1740.56 C8988.5,1740.56 9024.58,1712.42 9024.58,1683.29 C9024.58,1663.76 9008.03,1652.84 8987.5,1652.84 C8955.4,1652.84 8917,1679.98 8917,1710.44"/>
<path class="Note" d="M5586,1793.11 C5586,1807.35 5596.26,1823.23 5623.07,1823.23 C5657.5,1823.23 5693.57,1795.1 5693.57,1765.97 C5693.57,1746.44 5677.02,1735.52 5656.5,1735.52 C5624.4,1735.52 5586,1762.66 5586,1793.11"/>
<path class="Note" d="M5184.31,1793.11 C5184.31,1807.35 5194.57,1823.23 5221.38,1823.23 C5255.81,1823.23 5291.89,1795.1 5291.89,1765.97 C5291.89,1746.44 5275.34,1735.52 5254.82,1735.52 C5222.71,1735.52 5184.31,1762.66 5184.31,1793.11"/>
<path class="Note" d="M1593.04,1214.37 C1593.04,1228.61 1603.3,1244.49 1630.11,1244.49 C1664.53,1244.49 1700.61,1216.36 1700.61,1187.23 C1700.61,1167.7 1684.06,1156.78 1663.54,1156.78 C1631.43,1156.78 1593.04,1183.92 1593.04,1214.37"/>
<path class="Note" d="M2023.9,1090.36 C2023.9,1104.59 2034.16,1120.48 2060.98,1120.48 C2095.4,1120.48 2131.48,1092.34 2131.48,1063.22 C2131.48,1043.69 2114.93,1032.76 2094.41,1032.76 C2062.3,1032.76 2023.9,1059.91 2023.9,1090.36"/>
<path class="Note" d="M4783.95,1807.68 C4773.03,1807.68 4770.71,1798.74 4770.71,1795.76 C4770.71,1779.54 4826.32,1751.08 4841.87,1751.08 C4849.82,1751.08 4855.11,1755.71 4855.11,1762.99 C4855.11,1779.54 4799.18,1807.68 4783.95,1807.68 M4829.63,1735.52 C4797.52,1735.52 4759.12,1762.33 4759.12,1793.11 C4759.12,1807.35 4769.39,1823.23 4796.2,1823.23 C4830.62,1823.23 4866.7,1795.1 4866.7,1765.97 C4866.7,1746.44 4850.15,1735.52 4829.63,1735.52"/>
<path class="Note" d="M1410.14,2661.22 C1410.14,2675.46 1420.4,2691.34 1447.21,2691.34 C1481.63,2691.34 1517.71,2663.21 1517.71,2634.08 C1517.71,2614.55 1501.16,2603.63 1480.64,2603.63 C1448.53,2603.63 1410.14,2630.77 1410.14,2661.22"/>
<path class="Note" d="M4357.44,1751.77 C4357.44,1766.01 4367.7,1781.9 4394.51,1781.9 C4428.93,1781.9 4465.01,1753.76 4465.01,1724.63 C4465.01,1705.1 4448.46,1694.18 4427.94,1694.18 C4395.83,1694.18 4357.44,1721.32 4357.44,1751.77"/>
<path class="Note" d="M1723.43,2702.56 C1723.43,2716.79 1733.69,2732.68 1760.5,2732.68 C1794.92,2732.68 1831,2704.55 1831,2675.42 C1831,2655.89 1814.45,2644.97 1793.93,2644.97 C1761.82,2644.97 1723.43,2672.11 1723.43,2702.56"/>
<path class="Note" d="M4073.98,1710.44 C4073.98,1724.67 4084.24,1740.56 4111.05,1740.56 C4145.48,1740.56 4181.55,1712.42 4181.55,1683.29 C4181.55,1663.76 4165,1652.84 4144.48,1652.84 C4112.38,1652.84 4073.98,1679.98 4073.98,1710.44"/>
<path class="Note" d="M2036.72,2743.9 C2036.72,2758.13 2046.98,2774.02 2073.79,2774.02 C2108.21,2774.02 2144.29,2745.89 2144.29,2716.76 C2144.29,2697.23 2127.74,2686.31 2107.22,2686.31 C2075.11,2686.31 2036.72,2713.45 2036.72,2743.9"/>
<path class="Note" d="M3790.52,1793.11 C3790.52,1807.35 3800.78,1823.23 3827.59,1823.23 C3862.02,1823.23 3898.1,1795.1 3898.1,1765.97 C3898.1,1746.44 3881.55,1735.52 3861.02,1735.52 C3828.92,1735.52 3790.52,1762.66 3790.52,1793.11"/>
<path class="Note" d="M3388.83,1793.11 C3388.83,1807.35 3399.09,1823.23 3425.91,1823.23 C3460.33,1823.23 3496.41,1795.1 3496.41,1765.97 C3496.41,1746.44 3479.86,1735.52 3459.34,1735.52 C3427.23,1735.52 3388.83,1762.66 3388.83,1793.11"/>
<path class="Note" d="M2988.47,1807.68 C2977.55,1807.68 2975.23,1798.74 2975.23,1795.76 C2975.23,1779.54 3030.84,1751.08 3046.4,1751.08 C3054.34,1751.08 3059.64,1755.71 3059.64,1762.99 C3059.64,1779.54 3003.7,1807.68 2988.47,1807.68 M3034.15,1735.52 C3002.04,1735.52 2963.65,1762.33 2963.65,1793.11 C2963.65,1807.35 2973.91,1823.23 3000.72,1823.23 C3035.14,1823.23 3071.22,1795.1 3071.22,1765.97 C3071.22,1746.44 3054.67,1735.52 3034.15,1735.52"/>
<path class="Note" d="M2468.23,2702.56 C2468.23,2716.79 2478.49,2732.68 2505.3,2732.68 C2539.73,2732.68 2575.81,2704.55 2575.81,2675.42 C2575.81,2655.89 2559.26,2644.97 2538.74,2644.97 C2506.63,2644.97 2468.23,2672.11 2468.23,2702.56"/>
<path class="Note" d="M2561.96,1751.77 C2561.96,1766.01 2572.22,1781.9 2599.03,1781.9 C2633.45,1781.9 2669.53,1753.76 2669.53,1724.63 C2669.53,1705.1 2652.98,1694.18 2632.46,1694.18 C2600.35,1694.18 2561.96,1721.32 2561.96,1751.77"/>
<path class="Note" d="M2781.52,2785.24 C2781.52,2799.47 2791.78,2815.36 2818.59,2815.36 C2853.02,2815.36 2889.1,2787.23 2889.1,2758.1 C2889.1,2738.57 2872.55,2727.65 2852.02,2727.65 C2819.92,2727.65 2781.52,2754.79 2781.52,2785.24"/>
<path class="Note" d="M2278.5,1710.44 C2278.5,1724.67 2288.76,1740.56 2315.57,1740.56 C2350,1740.56 2386.08,1712.42 2386.08,1683.29 C2386.08,1663.76 2369.53,1652.84 2349,1652.84 C2316.9,1652.84 2278.5,1679.98 2278.5,1710.44"/>
<path class="Note" d="M3094.81,2867.92 C3094.81,2882.15 3105.07,2898.04 3131.88,2898.04 C3166.31,2898.04 3202.39,2869.9 3202.39,2840.77 C3202.39,2821.25 3185.84,2810.32 3165.31,2810.32 C3133.21,2810.32 3094.81,2837.46 3094.81,2867.92"/>
<path class="Note" d="M1995.04,1793.11 C1995.04,1807.35 2005.3,1823.23 2032.11,1823.23 C2066.54,1823.23 2102.62,1795.1 2102.62,1765.97 C2102.62,1746.44 2086.07,1735.52 2065.54,1735.52 C2033.44,1735.52 1995.04,1762.66 1995.04,1793.11"/>
<path class="Note" d="M1593.35,1793.11 C1593.35,1807.35 1603.62,1823.23 1630.43,1823.23 C1664.85,1823.23 1700.93,1795.1 1700.93,1765.97 C1700.93,1746.44 1684.38,1735.52 1663.86,1735.52 C1631.75,1735.52 1593.35,1762.66 1593.35,1793.11"/>
<path class="Note" d="M8222.95,2826.58 C8222.95,2840.81 8233.21,2856.7 8260.02,2856.7 C8294.44,2856.7 8330.52,2828.56 8330.52,2799.44 C8330.52,2779.91 8313.97,2768.98 8293.45,2768.98 C8261.34,2768.98 8222.95,2796.13 8222.95,2826.58"/>
<path class="Note" d="M3526.33,2743.9 C3526.33,2758.13 3536.59,2774.02 3563.4,2774.02 C3597.82,2774.02 3633.9,2745.89 3633.9,2716.76 C3633.9,2697.23 3617.35,2686.31 3596.83,2686.31 C3564.72,2686.31 3526.33,2713.45 3526.33,2743.9"/>
<path class="Note" d="M2305.28,1131.7 C2305.28,1145.93 2315.54,1161.82 2342.35,1161.82 C2376.77,1161.82 2412.85,1133.68 2412.85,1104.55 C2412.85,1085.02 2396.3,1074.1 2375.78,1074.1 C2343.67,1074.1 2305.28,1101.24 2305.28,1131.7"/>
<path class="Note" d="M3839.62,2785.24 C3839.62,2799.47 3849.88,2815.36 3876.69,2815.36 C3911.11,2815.36 3947.19,2787.23 3947.19,2758.1 C3947.19,2738.57 3930.64,2727.65 3910.12,2727.65 C3878.01,2727.65 3839.62,2754.79 3839.62,2785.24"/>
<path class="Note" d="M8662.17,1104.92 C8651.25,1104.92 8648.93,1095.98 8648.93,1093.01 C8648.93,1076.79 8704.54,1048.32 8720.1,1048.32 C8728.04,1048.32 8733.34,1052.95 8733.34,1060.24 C8733.34,1076.79 8677.4,1104.92 8662.17,1104.92 M8707.85,1032.76 C8675.74,1032.76 8637.35,1059.57 8637.35,1090.36 C8637.35,1104.59 8647.61,1120.48 8674.42,1120.48 C8708.84,1120.48 8744.92,1092.34 8744.92,1063.22 C8744.92,1043.69 8728.37,1032.76 8707.85,1032.76"/>
<path class="Note" d="M4152.9,2826.58 C4152.9,2840.81 4163.17,2856.7 4189.98,2856.7 C4224.4,2856.7 4260.48,2828.56 4260.48,2799.44 C4260.48,2779.91 4243.93,2768.98 4223.41,2768.98 C4191.3,2768.98 4152.9,2796.13 4152.9,2826.58"/>
<path class="Note" d="M8237.74,1090.36 C8237.74,1104.59 8248.01,1120.48 8274.82,1120.48 C8309.24,1120.48 8345.32,1092.34 8345.32,1063.22 C8345.32,1043.69 8328.77,1032.76 8308.25,1032.76 C8276.14,1032.76 8237.74,1059.91 8237.74,1090.36"/>
<path class="Note" d="M8014.01,1049.02 C8014.01,1063.25 8024.27,1079.14 8051.08,1079.14 C8085.5,1079.14 8121.58,1051 8121.58,1021.88 C8121.58,1002.35 8105.03,991.425 8084.51,991.425 C8052.4,991.425 8014.01,1018.57 8014.01,1049.02"/>
<path class="Note" d="M7999.21,2785.24 C7999.21,2799.47 8009.47,2815.36 8036.28,2815.36 C8070.71,2815.36 8106.78,2787.23 8106.78,2758.1 C8106.78,2738.57 8090.23,2727.65 8069.71,2727.65 C8037.61,2727.65 7999.21,2754.79 7999.21,2785.24"/>
<path class="Note" d="M4609.25,2799.8 C4598.32,2799.8 4596.01,2790.87 4596.01,2787.89 C4596.01,2771.67 4651.62,2743.2 4667.17,2743.2 C4675.12,2743.2 4680.41,2747.84 4680.41,2755.12 C4680.41,2771.67 4624.47,2799.8 4609.25,2799.8 M4654.93,2727.65 C4622.82,2727.65 4584.42,2754.46 4584.42,2785.24 C4584.42,2799.47 4594.68,2815.36 4621.49,2815.36 C4655.92,2815.36 4692,2787.23 4692,2758.1 C4692,2738.57 4675.45,2727.65 4654.93,2727.65"/>
<path class="Note" d="M7657.32,1007.68 C7657.32,1021.91 7667.58,1037.8 7694.39,1037.8 C7728.81,1037.8 7764.89,1009.67 7764.89,980.538 C7764.89,961.009 7748.34,950.086 7727.82,950.086 C7695.71,950.086 7657.32,977.228 7657.32,1007.68"/>
<path class="Note" d="M5054.36,2950.59 C5054.36,2964.83 5064.62,2980.71 5091.43,2980.71 C5125.85,2980.71 5161.93,2952.58 5161.93,2923.45 C5161.93,2903.92 5145.38,2893 5124.86,2893 C5092.75,2893 5054.36,2920.14 5054.36,2950.59"/>
<path class="Note" d="M7257.72,925.003 C7257.72,939.236 7267.98,955.124 7294.79,955.124 C7329.21,955.124 7365.29,926.989 7365.29,897.861 C7365.29,878.332 7348.74,867.409 7328.22,867.409 C7296.11,867.409 7257.72,894.551 7257.72,925.003"/>
<path class="Note" d="M6976.34,966.341 C6976.34,980.574 6986.6,996.462 7013.41,996.462 C7047.84,996.462 7083.92,968.327 7083.92,939.199 C7083.92,919.67 7067.37,908.747 7046.84,908.747 C7014.74,908.747 6976.34,935.889 6976.34,966.341"/>
<path class="Note" d="M6694.97,966.341 C6694.97,980.574 6705.23,996.462 6732.04,996.462 C6766.46,996.462 6802.54,968.327 6802.54,939.199 C6802.54,919.67 6785.99,908.747 6765.47,908.747 C6733.36,908.747 6694.97,935.889 6694.97,966.341"/>
<path class="Note" d="M5485.87,2743.9 C5485.87,2758.13 5496.13,2774.02 5522.94,2774.02 C5557.37,2774.02 5593.45,2745.89 5593.45,2716.76 C5593.45,2697.23 5576.9,2686.31 5556.38,2686.31 C5524.27,2686.31 5485.87,2713.45 5485.87,2743.9"/>
<path class="Note" d="M6295.37,1007.68 C6295.37,1021.91 6305.63,1037.8 6332.44,1037.8 C6366.86,1037.8 6402.94,1009.67 6402.94,980.538 C6402.94,961.009 6386.39,950.086 6365.87,950.086 C6333.76,950.086 6295.37,977.228 6295.37,1007.68"/>
<path class="Note" d="M5799.16,2785.24 C5799.16,2799.47 5809.42,2815.36 5836.23,2815.36 C5870.66,2815.36 5906.74,2787.23 5906.74,2758.1 C5906.74,2738.57 5890.19,2727.65 5869.66,2727.65 C5837.56,2727.65 5799.16,2754.79 5799.16,2785.24"/>
<path class="Note" d="M6013.99,1049.02 C6013.99,1063.25 6024.25,1079.14 6051.06,1079.14 C6085.49,1079.14 6121.57,1051 6121.57,1021.88 C6121.57,1002.35 6105.02,991.425 6084.49,991.425 C6052.39,991.425 6013.99,1018.57 6013.99,1049.02"/>
<path class="Note" d="M6112.45,2743.9 C6112.45,2758.13 6122.71,2774.02 6149.52,2774.02 C6183.95,2774.02 6220.03,2745.89 6220.03,2716.76 C6220.03,2697.23 6203.48,2686.31 6182.95,2686.31 C6150.85,2686.31 6112.45,2713.45 6112.45,2743.9"/>
<path class="Note" d="M5732.62,1007.68 C5732.62,1021.91 5742.88,1037.8 5769.69,1037.8 C5804.11,1037.8 5840.19,1009.67 5840.19,980.538 C5840.19,961.009 5823.64,950.086 5803.12,950.086 C5771.01,950.086 5732.62,977.228 5732.62,1007.68"/>
<path class="Note" d="M5333.02,1214.37 C5333.02,1228.61 5343.28,1244.49 5370.09,1244.49 C5404.51,1244.49 5440.59,1216.36 5440.59,1187.23 C5440.59,1167.7 5424.04,1156.78 5403.52,1156.78 C5371.41,1156.78 5333.02,1183.92 5333.02,1214.37"/>
<path class="Note" d="M4935.78,1063.58 C4924.86,1063.58 4922.54,1054.65 4922.54,1051.67 C4922.54,1035.45 4978.15,1006.98 4993.7,1006.98 C5001.65,1006.98 5006.94,1011.62 5006.94,1018.9 C5006.94,1035.45 4951.01,1063.58 4935.78,1063.58 M4981.46,991.425 C4949.35,991.425 4910.95,1018.24 4910.95,1049.02 C4910.95,1063.25 4921.22,1079.14 4948.03,1079.14 C4982.45,1079.14 5018.53,1051 5018.53,1021.88 C5018.53,1002.35 5001.98,991.425 4981.46,991.425"/>
<path class="Note" d="M6543.97,2702.56 C6543.97,2716.79 6554.23,2732.68 6581.04,2732.68 C6615.46,2732.68 6651.54,2704.55 6651.54,2675.42 C6651.54,2655.89 6634.99,2644.97 6614.47,2644.97 C6582.36,2644.97 6543.97,2672.11 6543.97,2702.56"/>
<path class="Note" d="M4511.35,1090.36 C4511.35,1104.59 4521.61,1120.48 4548.42,1120.48 C4582.85,1120.48 4618.93,1092.34 4618.93,1063.22 C4618.93,1043.69 4602.38,1032.76 4581.85,1032.76 C4549.75,1032.76 4511.35,1059.91 4511.35,1090.36"/>
<path class="Note" d="M6857.26,2702.56 C6857.26,2716.79 6867.52,2732.68 6894.33,2732.68 C6928.75,2732.68 6964.83,2704.55 6964.83,2675.42 C6964.83,2655.89 6948.28,2644.97 6927.76,2644.97 C6895.65,2644.97 6857.26,2672.11 6857.26,2702.56"/>
<path class="Note" d="M4229.98,1049.02 C4229.98,1063.25 4240.24,1079.14 4267.05,1079.14 C4301.47,1079.14 4337.55,1051 4337.55,1021.88 C4337.55,1002.35 4321,991.425 4300.48,991.425 C4268.37,991.425 4229.98,1018.57 4229.98,1049.02"/>
<path class="Note" d="M7170.54,2661.22 C7170.54,2675.46 7180.81,2691.34 7207.62,2691.34 C7242.04,2691.34 7278.12,2663.21 7278.12,2634.08 C7278.12,2614.55 7261.57,2603.63 7241.05,2603.63 C7208.94,2603.63 7170.54,2630.77 7170.54,2661.22"/>
<path class="Note" d="M3948.6,1007.68 C3948.6,1021.91 3958.86,1037.8 3985.68,1037.8 C4020.1,1037.8 4056.18,1009.67 4056.18,980.538 C4056.18,961.009 4039.63,950.086 4019.11,950.086 C3987,950.086 3948.6,977.228 3948.6,1007.68"/>
<path class="Note" d="M3549,966.341 C3549,980.574 3559.26,996.462 3586.07,996.462 C3620.5,996.462 3656.58,968.327 3656.58,939.199 C3656.58,919.67 3640.03,908.747 3619.5,908.747 C3587.4,908.747 3549,935.889 3549,966.341"/>
<path class="Note" d="M3267.63,1007.68 C3267.63,1021.91 3277.89,1037.8 3304.7,1037.8 C3339.12,1037.8 3375.2,1009.67 3375.2,980.538 C3375.2,961.009 3358.65,950.086 3338.13,950.086 C3306.02,950.086 3267.63,977.228 3267.63,1007.68"/>
<path class="Note" d="M7602.06,2743.9 C7602.06,2758.13 7612.32,2774.02 7639.13,2774.02 C7673.56,2774.02 7709.64,2745.89 7709.64,2716.76 C7709.64,2697.23 7693.09,2686.31 7672.57,2686.31 C7640.46,2686.31 7602.06,2713.45 7602.06,2743.9"/>
<path class="Note" d="M2586.65,1090.36 C2586.65,1104.59 2596.91,1120.48 2623.72,1120.48 C2658.15,1120.48 2694.23,1092.34 2694.23,1063.22 C2694.23,1043.69 2677.68,1032.76 2657.15,1032.76 C2625.05,1032.76 2586.65,1059.91 2586.65,1090.36"/>
<path class="Note" d="M7806.67,1710.44 C7806.67,1724.67 7816.93,1740.56 7843.74,1740.56 C7878.16,1740.56 7914.24,1712.42 7914.24,1683.29 C7914.24,1663.76 7897.69,1652.84 7877.17,1652.84 C7845.06,1652.84 7806.67,1679.98 7806.67,1710.44"/>
<path class="Clef" d="M909.689,2012.75 C903.069,2014.08 896.78,2014.74 890.491,2014.74 C843.158,2014.74 802.776,1981.64 802.776,1931.66 C802.776,1891.27 831.242,1855.2 860.37,1830.04 C865.997,1825.07 871.293,1820.44 876.258,1815.48 C879.237,1833.35 881.554,1848.91 883.871,1862.48 C853.75,1871.41 833.228,1903.19 833.228,1934.3 C833.228,1957.47 851.433,1989.25 877.913,1989.25 C880.561,1989.25 883.54,1987.93 883.54,1984.95 C883.54,1981.97 880.23,1980.31 876.258,1977.67 C863.349,1969.72 856.067,1961.12 856.067,1944.9 C856.067,1924.71 870.962,1908.49 890.491,1903.85 L909.689,2012.75 M880.561,1672.48 C883.54,1659.24 898.766,1624.49 915.978,1624.49 C920.943,1624.49 928.887,1640.71 928.887,1663.55 C928.887,1697.97 903.4,1723.79 880.561,1746.3 C878.575,1733.06 876.92,1720.15 876.92,1706.25 C876.92,1694 877.913,1682.74 880.561,1672.48 M956.691,1951.52 C956.691,1975.02 947.092,1999.18 923.591,2008.78 C916.64,1969.06 907.703,1916.43 905.386,1901.87 C935.176,1901.87 956.691,1922.06 956.691,1951.52 M811.051,2114.37 C811.051,2136.21 827.932,2165.01 872.617,2165.01 C888.174,2165.01 901.745,2161.04 913.661,2153.76 C931.535,2141.18 936.169,2119.33 936.169,2098.48 C936.169,2085.57 934.183,2070.68 930.873,2051.81 C929.88,2045.19 927.894,2035.26 925.908,2022.35 C958.346,2011.76 982.509,1978 982.509,1943.9 C982.509,1893.92 947.092,1860.16 898.766,1860.16 C895.456,1840.3 892.146,1820.77 889.167,1802.24 C924.253,1765.49 948.416,1724.12 948.416,1671.49 C948.416,1641.37 939.148,1616.88 933.852,1604.96 C925.908,1588.08 916.309,1576.49 910.351,1576.49 C908.034,1576.49 897.773,1580.47 886.85,1593.37 C865.666,1618.53 859.708,1660.9 859.708,1688.7 C859.708,1706.58 861.363,1722.8 866.99,1759.87 C866.659,1760.2 849.447,1777.74 842.496,1783.37 C812.375,1811.5 770.669,1851.55 770.669,1917.75 C770.669,1979.65 824.622,2028.31 886.188,2028.31 C895.787,2028.31 904.724,2027.32 912.337,2025.99 C918.626,2057.77 922.267,2080.94 922.267,2098.48 C922.267,2132.9 904.724,2151.11 871.293,2151.11 C863.349,2151.11 856.398,2149.45 855.736,2149.45 C855.405,2149.12 854.743,2148.79 854.743,2148.46 C854.743,2147.8 855.405,2147.47 856.398,2147.14 C871.955,2144.82 887.512,2131.58 887.512,2110.4 C887.512,2092.52 873.941,2073.66 849.116,2073.66 C825.946,2073.66 811.051,2092.52 811.051,2114.37"/>
<path class="Clef" d="M909.689,2880.86 C903.069,2882.19 896.78,2882.85 890.491,2882.85 C843.158,2882.85 802.776,2849.75 802.776,2799.77 C802.776,2759.38 831.242,2723.31 860.37,2698.15 C865.997,2693.18 871.293,2688.55 876.258,2683.59 C879.237,2701.46 881.554,2717.02 883.871,2730.59 C853.75,2739.52 833.228,2771.3 833.228,2802.41 C833.228,2825.58 851.433,2857.36 877.913,2857.36 C880.561,2857.36 883.54,2856.04 883.54,2853.06 C883.54,2850.08 880.23,2848.42 876.258,2845.78 C863.349,2837.83 856.067,2829.23 856.067,2813.01 C856.067,2792.82 870.962,2776.6 890.491,2771.96 L909.689,2880.86 M880.561,2540.59 C883.54,2527.35 898.766,2492.6 915.978,2492.6 C920.943,2492.6 928.887,2508.82 928.887,2531.66 C928.887,2566.08 903.4,2591.9 880.561,2614.41 C878.575,2601.17 876.92,2588.26 876.92,2574.36 C876.92,2562.11 877.913,2550.85 880.561,2540.59 M956.691,2819.63 C956.691,2843.13 947.092,2867.29 923.591,2876.89 C916.64,2837.17 907.703,2784.54 905.386,2769.98 C935.176,2769.98 956.691,2790.17 956.691,2819.63 M811.051,2982.48 C811.051,3004.32 827.932,3033.12 872.617,3033.12 C888.174,3033.12 901.745,3029.15 913.661,3021.87 C931.535,3009.29 936.169,2987.44 936.169,2966.59 C936.169,2953.68 934.183,2938.79 930.873,2919.92 C929.88,2913.3 927.894,2903.37 925.908,2890.46 C958.346,2879.87 982.509,2846.11 982.509,2812.01 C982.509,2762.03 947.092,2728.27 898.766,2728.27 C895.456,2708.41 892.146,2688.88 889.167,2670.35 C924.253,2633.6 948.416,2592.23 948.416,2539.6 C948.416,2509.48 939.148,2484.99 933.852,2473.07 C925.908,2456.19 916.309,2444.6 910.351,2444.6 C908.034,2444.6 897.773,2448.58 886.85,2461.48 C865.666,2486.64 859.708,2529.01 859.708,2556.81 C859.708,2574.69 861.363,2590.91 866.99,2627.98 C866.659,2628.31 849.447,2645.85 842.496,2651.48 C812.375,2679.61 770.669,2719.66 770.669,2785.86 C770.669,2847.76 824.622,2896.42 886.188,2896.42 C895.787,2896.42 904.724,2895.43 912.337,2894.1 C918.626,2925.88 922.267,2949.05 922.267,2966.59 C922.267,3001.01 904.724,3019.22 871.293,3019.22 C863.349,3019.22 856.398,3017.56 855.736,3017.56 C855.405,3017.23 854.743,3016.9 854.743,3016.57 C854.743,3015.91 855.405,3015.58 856.398,3015.25 C871.955,3012.93 887.512,2999.69 887.512,2978.51 C887.512,2960.63 873.941,2941.77 849.116,2941.77 C825.946,2941.77 811.051,2960.63 811.051,2982.48"/>
<path class="Clef" d="M909.689,1144.64 C903.069,1145.97 896.78,1146.63 890.491,1146.63 C843.158,1146.63 802.776,1113.53 802.776,1063.55 C802.776,1023.16 831.242,987.085 860.37,961.929 C865.997,956.964 871.293,952.33 876.258,947.365 C879.237,965.239 881.554,980.796 883.871,994.367 C853.75,1003.3 833.228,1035.08 833.228,1066.19 C833.228,1089.36 851.433,1121.14 877.913,1121.14 C880.561,1121.14 883.54,1119.82 883.54,1116.84 C883.54,1113.86 880.23,1112.2 876.258,1109.56 C863.349,1101.61 856.067,1093.01 856.067,1076.79 C856.067,1056.6 870.962,1040.38 890.491,1035.74 L909.689,1144.64 M880.561,804.373 C883.54,791.133 898.766,756.378 915.978,756.378 C920.943,756.378 928.887,772.597 928.887,795.436 C928.887,829.86 903.4,855.678 880.561,878.186 C878.575,864.946 876.92,852.037 876.92,838.135 C876.92,825.888 877.913,814.634 880.561,804.373 M956.691,1083.41 C956.691,1106.91 947.092,1131.07 923.591,1140.67 C916.64,1100.95 907.703,1048.32 905.386,1033.76 C935.176,1033.76 956.691,1053.95 956.691,1083.41 M811.051,1246.26 C811.051,1268.1 827.932,1296.9 872.617,1296.9 C888.174,1296.9 901.745,1292.93 913.661,1285.65 C931.535,1273.07 936.169,1251.22 936.169,1230.37 C936.169,1217.46 934.183,1202.57 930.873,1183.7 C929.88,1177.08 927.894,1167.15 925.908,1154.24 C958.346,1143.65 982.509,1109.89 982.509,1075.79 C982.509,1025.81 947.092,992.05 898.766,992.05 C895.456,972.19 892.146,952.661 889.167,934.125 C924.253,897.384 948.416,856.009 948.416,803.38 C948.416,773.259 939.148,748.765 933.852,736.849 C925.908,719.968 916.309,708.383 910.351,708.383 C908.034,708.383 897.773,712.355 886.85,725.264 C865.666,750.42 859.708,792.788 859.708,820.592 C859.708,838.466 861.363,854.685 866.99,891.757 C866.659,892.088 849.447,909.631 842.496,915.258 C812.375,943.393 770.669,983.444 770.669,1049.64 C770.669,1111.54 824.622,1160.2 886.188,1160.2 C895.787,1160.2 904.724,1159.21 912.337,1157.88 C918.626,1189.66 922.267,1212.83 922.267,1230.37 C922.267,1264.79 904.724,1283 871.293,1283 C863.349,1283 856.398,1281.34 855.736,1281.34 C855.405,1281.01 854.743,1280.68 854.743,1280.35 C854.743,1279.69 855.405,1279.36 856.398,1279.03 C871.955,1276.71 887.512,1263.47 887.512,1242.29 C887.512,1224.41 873.941,1205.55 849.116,1205.55 C825.946,1205.55 811.051,1224.41 811.051,1246.26"/>
<path class="KeySig" d="M1088.05,1848.65 C1088.05,1874.8 1074.48,1888.7 1055.28,1903.93 L1056.27,1839.38 C1056.93,1836.4 1061.9,1826.8 1075.14,1826.8 C1087.06,1826.8 1088.05,1838.06 1088.05,1845.01 L1088.05,1848.65 M1084.08,1810.58 C1067.53,1810.58 1057.93,1820.84 1056.27,1822.83 L1057.6,1716.58 C1057.6,1713.93 1055.61,1711.95 1052.96,1711.95 L1048.99,1711.95 C1046.34,1711.95 1044.36,1713.93 1044.36,1716.58 L1046.01,1915.51 C1046.01,1918.16 1048,1920.14 1050.65,1920.14 C1051.31,1920.14 1052.63,1919.81 1053.29,1919.48 C1081.76,1905.25 1111.55,1878.11 1111.55,1844.01 C1111.55,1826.8 1103.61,1810.58 1084.08,1810.58"/>
<path class="KeySig" d="M1179.99,1724.63 C1179.99,1750.78 1166.42,1764.68 1147.22,1779.91 L1148.21,1715.36 C1148.87,1712.39 1153.84,1702.79 1167.08,1702.79 C1178.99,1702.79 1179.99,1714.04 1179.99,1720.99 L1179.99,1724.63 M1176.01,1686.57 C1159.46,1686.57 1149.87,1696.83 1148.21,1698.81 L1149.53,1592.56 C1149.53,1589.92 1147.55,1587.93 1144.9,1587.93 L1140.93,1587.93 C1138.28,1587.93 1136.29,1589.92 1136.29,1592.56 L1137.95,1791.49 C1137.95,1794.14 1139.94,1796.13 1142.58,1796.13 C1143.25,1796.13 1144.57,1795.8 1145.23,1795.47 C1173.7,1781.23 1203.49,1754.09 1203.49,1720 C1203.49,1702.79 1195.54,1686.57 1176.01,1686.57"/>
<path class="KeySig" d="M1088.05,2716.76 C1088.05,2742.91 1074.48,2756.81 1055.28,2772.04 L1056.27,2707.49 C1056.93,2704.51 1061.9,2694.91 1075.14,2694.91 C1087.06,2694.91 1088.05,2706.17 1088.05,2713.12 L1088.05,2716.76 M1084.08,2678.69 C1067.53,2678.69 1057.93,2688.95 1056.27,2690.94 L1057.6,2584.69 C1057.6,2582.04 1055.61,2580.06 1052.96,2580.06 L1048.99,2580.06 C1046.34,2580.06 1044.36,2582.04 1044.36,2584.69 L1046.01,2783.62 C1046.01,2786.27 1048,2788.25 1050.65,2788.25 C1051.31,2788.25 1052.63,2787.92 1053.29,2787.59 C1081.76,2773.36 1111.55,2746.22 1111.55,2712.12 C1111.55,2694.91 1103.61,2678.69 1084.08,2678.69"/>
<path class="KeySig" d="M1179.99,2592.74 C1179.99,2618.89 1166.42,2632.79 1147.22,2648.02 L1148.21,2583.47 C1148.87,2580.5 1153.84,2570.9 1167.08,2570.9 C1178.99,2570.9 1179.99,2582.15 1179.99,2589.1 L1179.99,2592.74 M1176.01,2554.68 C1159.46,2554.68 1149.87,2564.94 1148.21,2566.92 L1149.53,2460.67 C1149.53,2458.03 1147.55,2456.04 1144.9,2456.04 L1140.93,2456.04 C1138.28,2456.04 1136.29,2458.03 1136.29,2460.67 L1137.95,2659.6 C1137.95,2662.25 1139.94,2664.24 1142.58,2664.24 C1143.25,2664.24 1144.57,2663.91 1145.23,2663.58 C1173.7,2649.34 1203.49,2622.2 1203.49,2588.11 C1203.49,2570.9 1195.54,2554.68 1176.01,2554.68"/>
<path class="KeySig" d="M1088.05,980.538 C1088.05,1006.69 1074.48,1020.59 1055.28,1035.82 L1056.27,971.27 C1056.93,968.291 1061.9,958.692 1075.14,958.692 C1087.06,958.692 1088.05,969.946 1088.05,976.897 L1088.05,980.538 M1084.08,942.473 C1067.53,942.473 1057.93,952.734 1056.27,954.72 L1057.6,848.469 C1057.6,845.821 1055.61,843.835 1052.96,843.835 L1048.99,843.835 C1046.34,843.835 1044.36,845.821 1044.36,848.469 L1046.01,1047.4 C1046.01,1050.05 1048,1052.03 1050.65,1052.03 C1051.31,1052.03 1052.63,1051.7 1053.29,1051.37 C1081.76,1037.14 1111.55,1010 1111.55,975.904 C1111.55,958.692 1103.61,942.473 1084.08,942.473"/>
<path class="KeySig" d="M1179.99,856.522 C1179.99,882.671 1166.42,896.573 1147.22,911.799 L1148.21,847.254 C1148.87,844.275 1153.84,834.676 1167.08,834.676 C1178.99,834.676 1179.99,845.93 1179.99,852.881 L1179.99,856.522 M1176.01,818.457 C1159.46,818.457 1149.87,828.718 1148.21,830.704 L1149.53,724.453 C1149.53,721.805 1147.55,719.819 1144.9,719.819 L1140.93,719.819 C1138.28,719.819 1136.29,721.805 1136.29,724.453 L1137.95,923.384 C1137.95,926.032 1139.94,928.018 1142.58,928.018 C1143.25,928.018 1144.57,927.687 1145.23,927.356 C1173.7,913.123 1203.49,885.981 1203.49,851.888 C1203.49,834.676 1195.54,818.457 1176.01,818.457"/>
<path class="TimeSig" d="M1384.57,907.779 C1411.05,897.518 1412.71,880.306 1412.71,874.348 L1412.71,872.693 C1412.71,869.714 1411.71,832.311 1354.78,832.311 C1297.85,832.311 1299.5,872.693 1299.5,872.693 L1299.83,872.693 L1299.5,873.355 C1299.5,885.271 1309.1,894.539 1321.02,894.539 C1332.93,894.539 1342.2,885.271 1342.2,873.355 C1342.2,863.756 1334.92,854.488 1325.65,852.502 L1326.65,851.509 C1331.28,848.199 1337.57,846.544 1343.86,846.544 C1357.76,846.544 1372.65,854.819 1372.65,872.693 C1372.65,893.546 1357.1,896.525 1353.13,897.187 C1349.15,897.849 1330.62,899.173 1326.65,899.173 C1322.67,899.173 1322.34,903.807 1322.34,903.807 L1322.34,910.427 C1322.34,910.427 1323,914.068 1326.65,914.399 C1332.27,914.73 1339.89,914.73 1350.48,916.385 C1365.04,918.371 1372.65,928.301 1372.65,951.471 C1372.65,973.648 1357.76,979.606 1343.86,979.606 C1334.59,979.606 1325.98,976.958 1322.34,974.31 C1333.27,973.648 1342.2,964.049 1342.2,953.126 C1342.2,941.21 1332.93,931.611 1321.02,931.611 C1309.1,931.611 1299.5,941.21 1299.5,953.126 C1299.5,980.268 1324.33,993.839 1348.82,993.839 C1380.6,993.839 1415.02,982.916 1415.02,946.837 C1415.02,922.674 1398.47,912.413 1383.91,907.779 L1384.57,907.779 "/>
<path class="TimeSig" d="M1350.34,1118.01 L1350.34,1142.5 L1322.87,1142.5 C1320.55,1142.5 1318.23,1144.49 1318.23,1147.13 L1318.23,1153.42 C1318.23,1156.07 1320.55,1158.06 1322.87,1158.06 L1423.16,1158.06 C1425.81,1158.06 1427.79,1156.07 1427.79,1153.42 L1427.79,1147.13 C1427.79,1144.49 1425.81,1142.5 1423.16,1142.5 L1393.37,1142.5 L1393.37,1118.01 L1423.16,1118.01 C1425.81,1118.01 1427.79,1115.69 1427.79,1113.04 L1427.79,1106.75 C1427.79,1104.44 1425.81,1102.12 1423.16,1102.12 L1393.37,1102.12 L1393.37,1049.49 C1393.37,1047.5 1392.38,1045.85 1391.05,1045.19 L1387.08,1043.2 C1386.42,1042.87 1386.09,1042.87 1385.43,1042.87 C1384.1,1042.87 1382.78,1042.87 1381.78,1043.86 L1351.66,1071.34 C1350.67,1072.33 1350.34,1073.65 1350.34,1074.98 L1350.34,1102.12 L1311.94,1102.12 C1311.94,1102.12 1349.02,1062.4 1388.07,1010.1 C1389.4,1008.45 1389.73,1006.79 1389.73,1005.47 C1389.73,1003.81 1389.07,1002.49 1388.74,1002.16 L1381.45,994.874 C1380.46,994.212 1379.47,993.55 1378.14,993.55 C1376.16,993.55 1331.47,993.55 1328.82,993.55 C1326.51,993.55 1324.85,995.536 1324.52,997.522 C1324.52,997.522 1322.87,1022.02 1314.26,1048.83 C1305.65,1075.64 1295.72,1092.19 1287.12,1104.44 C1287.12,1104.44 1286.13,1106.09 1286.13,1108.08 C1286.13,1108.74 1286.13,1109.4 1286.46,1110.06 C1287.45,1112.38 1289.77,1116.02 1289.77,1116.02 C1289.77,1116.02 1290.43,1118.01 1293.41,1118.01 L1350.34,1118.01 "/>
<path class="NoteDot" d="M7750.89,2688.66 C7750.89,2697.93 7758.18,2705.21 7767.44,2705.21 C7776.71,2705.21 7783.99,2697.93 7783.99,2688.66 C7783.99,2679.39 7776.71,2672.11 7767.44,2672.11 C7758.18,2672.11 7750.89,2679.39 7750.89,2688.66"/>
<path class="NoteDot" d="M7806.15,952.439 C7806.15,961.707 7813.43,968.989 7822.7,968.989 C7831.97,968.989 7839.25,961.707 7839.25,952.439 C7839.25,943.171 7831.97,935.889 7822.7,935.889 C7813.43,935.889 7806.15,943.171 7806.15,952.439"/>
</svg>
