<?xml version="1.0" encoding="utf-8"?>
<svg xmlns="http://www.w3.org/2000/svg" xmlns:svg="http://www.w3.org/2000/svg" version="1.1" viewBox="0 0 681 117">
	<title>A score 2 staves long in 3/4 time, in the key of G Major.</title>
	<path d="M643.924 95.653c0 .741.583 1.325 1.325 1.325s1.325-.584 1.325-1.325c0-.742-.583-1.325-1.325-1.325s-1.325.583-1.325 1.325m-567.46 0c0 .741.582 1.325 1.324 1.325s1.325-.584 1.325-1.325c0-.742-.583-1.325-1.325-1.325s-1.325.583-1.325 1.325m562.093-56.26c0 .743.583 1.326 1.325 1.326s1.325-.583 1.325-1.325-.583-1.325-1.325-1.325-1.325.583-1.325 1.325m-401.77 49.64c0 .742.583 1.325 1.326 1.325.74 0 1.325-.583 1.325-1.325s-.584-1.325-1.325-1.325c-.743 0-1.325.583-1.325 1.325m160.322 0c0 .742.583 1.325 1.325 1.325s1.325-.583 1.325-1.325-.583-1.325-1.325-1.325-1.325.583-1.325 1.325M114.922 75.787l15.285 1.655v3.328l-15.285-1.655zm160.322-3.309 15.286 1.655v3.329l-15.286-1.655zm322.086 4.964 15.286-1.655v3.328L597.33 80.77zM432.898 39.384l15.344-1.654v3.328l-15.344 1.655zM86.546 34.42l15.343-1.655v3.329l-15.343 1.655zM411.478 7.946l15.343-1.655v3.328l-15.343 1.655zm-29.363 0 15.343-1.655v3.328l-15.343 1.655zm45.51 99.28 15.285 1.655v3.328l-15.286-1.654zM115.91 32.766l15.343 1.655v3.329l-15.343-1.655zm-70.815.028v1.96h-2.2c-.185 0-.37.16-.37.37v.504c0 .212.185.372.37.372h8.03c.212 0 .371-.16.371-.372v-.503c0-.212-.16-.37-.371-.37h-2.385v-1.961h2.385c.212 0 .371-.186.371-.398v-.504a.38.38 0 0 0-.371-.37h-2.385v-4.214c0-.16-.08-.291-.185-.344l-.318-.16c-.054-.026-.08-.026-.133-.026-.106 0-.212 0-.291.08l-2.412 2.2a.4.4 0 0 0-.106.29v2.174h-3.073s2.967-3.18 6.094-7.367a.58.58 0 0 0 .132-.37.44.44 0 0 0-.079-.266l-.583-.583c-.079-.053-.159-.106-.265-.106h-3.948c-.186 0-.318.159-.344.318 0 0-.133 1.961-.822 4.107s-1.484 3.472-2.173 4.452c0 0-.08.132-.08.292 0 .052 0 .105.027.158.08.186.265.477.265.477s.053.16.292.16zm2.741-16.83c2.12-.822 2.252-2.2 2.252-2.677v-.132c0-.239-.08-3.233-4.637-3.233-4.558 0-4.425 3.233-4.425 3.233h.026l-.026.053c0 .954.768 1.696 1.722 1.696s1.696-.742 1.696-1.696c0-.769-.583-1.51-1.325-1.67l.08-.08c.37-.264.874-.397 1.377-.397 1.113 0 2.306.663 2.306 2.094 0 1.67-1.246 1.908-1.564 1.96-.317.054-1.802.16-2.12.16-.317 0-.344.37-.344.37v.53s.053.292.345.319c.45.026 1.06.026 1.907.159 1.167.159 1.776.953 1.776 2.808 0 1.776-1.193 2.253-2.306 2.253-.742 0-1.43-.212-1.722-.424.874-.053 1.59-.822 1.59-1.696 0-.954-.742-1.723-1.696-1.723s-1.722.769-1.722 1.723c0 2.173 1.987 3.26 3.948 3.26 2.543 0 5.3-.875 5.3-3.764 0-1.934-1.325-2.755-2.492-3.126zM28.941 7.649l2.358-.477v4.372l-2.358.504zm4.107-.821c.16-.027.292-.212.292-.371V4.893a.36.36 0 0 0-.371-.37h-.054l-.874.185V.759H31.3v4.108l-2.358.477V1.607h-.742v3.896l-1.033.212c-.16.026-.292.212-.292.37v1.537c0 .212.159.371.371.371h.08l.874-.185v4.372l-1.033.212c-.16.027-.292.212-.292.371V14.3c0 .212.159.371.371.371h.08l.874-.185v3.948h.742v-4.107l2.358-.477v3.736h.742V13.69l1.007-.186c.16-.026.292-.212.292-.37V11.57a.36.36 0 0 0-.371-.371h-.054l-.874.185V7.013zm-4.107 70.317 2.358-.477v4.373l-2.358.503zm4.107-.821c.16-.026.292-.212.292-.372V74.39a.363.363 0 0 0-.371-.372h-.054l-.874.186v-3.948H31.3v4.107l-2.358.477v-3.736h-.742v3.895l-1.033.212c-.16.027-.292.212-.292.37v1.538c0 .212.159.37.371.37h.08l.874-.184v4.371l-1.033.213c-.16.026-.292.212-.292.37v1.537c0 .212.159.37.371.37h.08l.874-.184v3.948h.742v-4.107l2.358-.477v3.736h.742v-3.895l1.007-.186c.16-.026.292-.212.292-.37v-1.564a.363.363 0 0 0-.371-.371h-.054l-.874.185V76.51zm-16.955-41.4a7.7 7.7 0 0 1-1.537.16c-3.789 0-7.022-2.65-7.022-6.651 0-3.234 2.28-6.122 4.611-8.135.45-.398.875-.769 1.272-1.166.238 1.43.424 2.676.61 3.762-2.412.716-4.055 3.26-4.055 5.75 0 1.855 1.458 4.4 3.577 4.4.212 0 .451-.107.451-.345 0-.239-.265-.372-.583-.583-1.033-.636-1.616-1.325-1.616-2.623 0-1.617 1.192-2.915 2.755-3.287zm-2.332-27.24c.239-1.06 1.458-3.842 2.836-3.842.397 0 1.033 1.299 1.033 3.127 0 2.756-2.04 4.823-3.869 6.625-.159-1.06-.291-2.094-.291-3.207 0-.98.08-1.881.291-2.703m6.095 22.339c0 1.881-.768 3.815-2.65 4.584a882 882 0 0 1-1.457-8.559c2.385 0 4.107 1.616 4.107 3.975M8.196 43.06c0 1.748 1.352 4.054 4.93 4.054 1.245 0 2.331-.318 3.285-.901 1.431-1.007 1.802-2.756 1.802-4.425 0-1.034-.159-2.226-.424-3.737-.08-.53-.238-1.325-.397-2.358 2.597-.848 4.53-3.55 4.53-6.28 0-4.001-2.834-6.704-6.703-6.704-.265-1.59-.53-3.153-.769-4.637 2.81-2.942 4.744-6.254 4.744-10.467 0-2.411-.742-4.372-1.166-5.326C17.392.927 16.623 0 16.146 0c-.185 0-1.007.318-1.881 1.351-1.696 2.014-2.173 5.406-2.173 7.632 0 1.43.133 2.73.583 5.697-.026.026-1.404 1.43-1.96 1.881-2.412 2.253-5.75 5.459-5.75 10.758 0 4.956 4.318 8.851 9.247 8.851.768 0 1.484-.08 2.093-.186.504 2.545.795 4.4.795 5.804 0 2.755-1.404 4.213-4.08 4.213-.636 0-1.193-.133-1.246-.133-.026-.026-.08-.053-.08-.08 0-.052.054-.079.133-.105 1.246-.186 2.49-1.246 2.49-2.941 0-1.432-1.085-2.941-3.073-2.941-1.855 0-3.047 1.51-3.047 3.259m7.896 61.36a7.7 7.7 0 0 1-1.537.16c-3.789 0-7.022-2.65-7.022-6.65 0-3.234 2.28-6.122 4.611-8.136.45-.398.875-.769 1.272-1.166.238 1.43.424 2.677.61 3.763-2.412.715-4.055 3.259-4.055 5.75 0 1.854 1.458 4.398 3.577 4.398.212 0 .451-.105.451-.344 0-.238-.265-.371-.583-.583-1.033-.636-1.616-1.324-1.616-2.623 0-1.616 1.192-2.915 2.755-3.286zm-2.332-27.24c.239-1.06 1.458-3.842 2.836-3.842.397 0 1.033 1.298 1.033 3.127 0 2.755-2.04 4.822-3.869 6.624-.159-1.06-.291-2.093-.291-3.206 0-.98.08-1.882.291-2.703m6.095 22.338c0 1.881-.768 3.815-2.65 4.584a882 882 0 0 1-1.457-8.559c2.385 0 4.107 1.617 4.107 3.975m-11.66 13.037c0 1.748 1.352 4.054 4.93 4.054 1.245 0 2.331-.318 3.285-.9 1.431-1.008 1.802-2.757 1.802-4.426 0-1.034-.159-2.226-.424-3.736-.08-.53-.238-1.325-.397-2.359 2.597-.847 4.53-3.55 4.53-6.28 0-4.001-2.834-6.704-6.703-6.704-.265-1.59-.53-3.153-.769-4.637 2.81-2.942 4.744-6.253 4.744-10.467 0-2.411-.742-4.372-1.166-5.326-.636-1.351-1.405-2.279-1.882-2.279-.185 0-1.007.319-1.881 1.351-1.696 2.015-2.173 5.406-2.173 7.632 0 1.431.133 2.73.583 5.698-.026.026-1.404 1.43-1.96 1.88-2.412 2.253-5.75 5.459-5.75 10.759 0 4.955 4.318 8.85 9.247 8.85.768 0 1.484-.079 2.093-.185.504 2.544.795 4.399.795 5.803 0 2.755-1.404 4.213-4.08 4.213-.636 0-1.193-.133-1.246-.133-.026-.026-.08-.053-.08-.08 0-.052.054-.078.133-.105 1.246-.185 2.49-1.245 2.49-2.941 0-1.431-1.085-2.941-3.073-2.941-1.855 0-3.047 1.51-3.047 3.259M130.59 17.34c0 1.14.821 2.412 2.968 2.412 2.756 0 5.644-2.253 5.644-4.584 0-1.564-1.325-2.438-2.967-2.438-2.57 0-5.645 2.173-5.645 4.61m50.02 0c0 1.14.822 2.412 2.968 2.412 2.757 0 5.645-2.253 5.645-4.584 0-1.564-1.325-2.438-2.968-2.438-2.57 0-5.644 2.173-5.644 4.61m289.635 79.425c0 1.14.822 2.411 2.968 2.411 2.756 0 5.645-2.253 5.645-4.584 0-1.563-1.325-2.438-2.969-2.438-2.57 0-5.644 2.173-5.644 4.61M202.633 17.342c0 1.14.821 2.412 2.968 2.412 2.756 0 5.644-2.253 5.644-4.584 0-1.564-1.325-2.438-2.967-2.438-2.571 0-5.645 2.173-5.645 4.61m31.487 6.62c0 1.138.821 2.41 2.968 2.41 2.756 0 5.644-2.252 5.644-4.584 0-1.563-1.325-2.438-2.968-2.438-2.57 0-5.644 2.173-5.644 4.611m22.022 6.62c0 1.138.822 2.41 2.968 2.41 2.756 0 5.645-2.252 5.645-4.584 0-1.563-1.325-2.438-2.969-2.438-2.57 0-5.644 2.173-5.644 4.611m186.106 62.877c0 1.14.821 2.412 2.968 2.412 2.756 0 5.644-2.252 5.644-4.584 0-1.564-1.325-2.438-2.967-2.438-2.57 0-5.645 2.173-5.645 4.61M278.165 30.58c0 1.14.82 2.411 2.967 2.411 2.756 0 5.645-2.252 5.645-4.584 0-1.563-1.325-2.438-2.968-2.438-2.57 0-5.644 2.173-5.644 4.611M115.909 10.723c0 1.14.821 2.411 2.967 2.411 2.757 0 5.645-2.252 5.645-4.584 0-1.563-1.325-2.438-2.968-2.438-2.57 0-5.644 2.173-5.644 4.61m311.715 79.425c0 1.14.822 2.411 2.969 2.411 2.755 0 5.644-2.252 5.644-4.584 0-1.563-1.325-2.437-2.968-2.437-2.57 0-5.645 2.172-5.645 4.61M311.64 31.745a.99.99 0 0 1-1.06-.954c0-1.298 4.452-3.577 5.697-3.577.637 0 1.06.37 1.06.954 0 1.325-4.478 3.577-5.697 3.577m3.657-5.777c-2.57 0-5.644 2.146-5.644 4.611 0 1.14.821 2.411 2.967 2.411 2.757 0 5.645-2.252 5.645-4.584 0-1.563-1.325-2.438-2.968-2.438M413 86.838c0 1.14.822 2.41 2.968 2.41 2.756 0 5.644-2.251 5.644-4.583 0-1.564-1.325-2.438-2.968-2.438-2.57 0-5.644 2.173-5.644 4.61m-70.316-46.33c0 1.14.822 2.41 2.968 2.41 2.756 0 5.644-2.251 5.644-4.583 0-1.563-1.325-2.438-2.968-2.438-2.57 0-5.644 2.173-5.644 4.61m31.488-9.927c0 1.14.821 2.411 2.967 2.411 2.756 0 5.644-2.252 5.644-4.584 0-1.563-1.325-2.438-2.968-2.438-2.57 0-5.643 2.173-5.643 4.611m171.344 62.877c0 1.14.821 2.412 2.968 2.412 2.756 0 5.644-2.252 5.644-4.584 0-1.564-1.325-2.438-2.968-2.438-2.57 0-5.644 2.173-5.644 4.61m-160.322-3.309c0 1.14.82 2.411 2.967 2.411 2.756 0 5.644-2.252 5.644-4.584 0-1.563-1.325-2.437-2.968-2.437-2.57 0-5.643 2.172-5.643 4.61M101.228 14.032c0 1.14.821 2.411 2.967 2.411 2.756 0 5.644-2.252 5.644-4.584 0-1.563-1.325-2.438-2.968-2.438-2.57 0-5.643 2.173-5.643 4.611M388.854 27.27c0 1.139.821 2.41 2.967 2.41 2.757 0 5.644-2.252 5.644-4.583 0-1.564-1.325-2.438-2.967-2.438-2.57 0-5.644 2.173-5.644 4.61m14.681 3.31c0 1.14.821 2.411 2.968 2.411 2.756 0 5.644-2.252 5.644-4.584 0-1.563-1.325-2.438-2.967-2.438-2.57 0-5.645 2.173-5.645 4.611m-49.741 76.115c0 1.14.822 2.412 2.968 2.412 2.756 0 5.644-2.253 5.644-4.585 0-1.564-1.325-2.438-2.967-2.438-2.571 0-5.645 2.173-5.645 4.61m213.658-6.618c0 1.14.822 2.412 2.968 2.412 2.756 0 5.644-2.253 5.644-4.584 0-1.564-1.325-2.439-2.967-2.439-2.57 0-5.645 2.174-5.645 4.611m-235.593 6.619c0 1.14.821 2.412 2.968 2.412 2.756 0 5.644-2.253 5.644-4.585 0-1.564-1.325-2.438-2.968-2.438-2.57 0-5.644 2.173-5.644 4.61m86.358-79.423c0 1.139.822 2.41 2.968 2.41 2.755 0 5.644-2.252 5.644-4.583 0-1.564-1.325-2.438-2.968-2.438-2.57 0-5.644 2.173-5.644 4.61m-108.293 72.806c0 1.14.821 2.412 2.968 2.412 2.755 0 5.643-2.253 5.643-4.584 0-1.564-1.325-2.439-2.967-2.439-2.57 0-5.644 2.174-5.644 4.611M432.898 23.96c0 1.14.822 2.411 2.968 2.411 2.756 0 5.645-2.252 5.645-4.584 0-1.563-1.325-2.438-2.969-2.438-2.57 0-5.644 2.173-5.644 4.611m156.49 76.115c0 1.14.821 2.412 2.967 2.412 2.756 0 5.644-2.253 5.644-4.584 0-1.564-1.325-2.439-2.967-2.439-2.57 0-5.644 2.174-5.644 4.611M447.58 20.651c0 1.14.821 2.411 2.968 2.411 2.756 0 5.644-2.252 5.644-4.584 0-1.563-1.325-2.438-2.968-2.438-2.57 0-5.644 2.173-5.644 4.61M281.926 96.767c0 1.14.82 2.411 2.967 2.411 2.756 0 5.644-2.253 5.644-4.584 0-1.563-1.325-2.438-2.968-2.438-2.57 0-5.643 2.173-5.643 4.61m193.652-79.424c0 1.14.821 2.412 2.968 2.412 2.756 0 5.644-2.253 5.644-4.584 0-1.564-1.325-2.438-2.968-2.438-2.57 0-5.644 2.173-5.644 4.61m-389.032 0c0 1.14.82 2.412 2.967 2.412 2.756 0 5.645-2.253 5.645-4.584 0-1.564-1.325-2.438-2.968-2.438-2.57 0-5.644 2.173-5.644 4.61m180.756 76.115c0 1.14.821 2.412 2.968 2.412 2.756 0 5.643-2.252 5.643-4.584 0-1.564-1.324-2.438-2.967-2.438-2.57 0-5.644 2.173-5.644 4.61M497.6 17.341c0 1.14.822 2.412 2.968 2.412 2.756 0 5.645-2.253 5.645-4.584 0-1.564-1.325-2.438-2.968-2.438-2.57 0-5.645 2.173-5.645 4.61M252.678 90.147c0 1.14.822 2.411 2.968 2.411 2.756 0 5.645-2.252 5.645-4.584 0-1.563-1.325-2.437-2.969-2.437-2.57 0-5.644 2.172-5.644 4.61M519.622 27.27c0 1.139.822 2.41 2.968 2.41 2.756 0 5.645-2.252 5.645-4.583 0-1.564-1.325-2.438-2.968-2.438-2.57 0-5.645 2.173-5.645 4.61m31.488 6.62c0 1.139.821 2.41 2.967 2.41 2.757 0 5.645-2.252 5.645-4.584 0-1.563-1.325-2.438-2.969-2.438-2.57 0-5.643 2.173-5.643 4.612m52.901 62.877c0 1.14.822 2.411 2.968 2.411 2.755 0 5.644-2.253 5.644-4.584 0-1.563-1.325-2.438-2.968-2.438-2.57 0-5.644 2.173-5.644 4.61m-379.14-3.309c0 1.14.822 2.412 2.969 2.412 2.755 0 5.644-2.252 5.644-4.584 0-1.564-1.325-2.438-2.968-2.438-2.57 0-5.645 2.173-5.645 4.61m348.26-52.95c0 1.14.822 2.412 2.968 2.412 2.757 0 5.645-2.252 5.645-4.584 0-1.563-1.325-2.438-2.968-2.438-2.57 0-5.644 2.173-5.644 4.61m22.022 0c0 1.14.821 2.412 2.968 2.412 2.756 0 5.644-2.252 5.644-4.584 0-1.563-1.325-2.438-2.967-2.438-2.57 0-5.645 2.173-5.645 4.61m33.475 1.167a.99.99 0 0 1-1.06-.954c0-1.299 4.451-3.577 5.697-3.577.636 0 1.06.37 1.06.953 0 1.325-4.479 3.578-5.697 3.578m3.656-5.777c-2.57 0-5.644 2.147-5.644 4.61 0 1.14.822 2.412 2.968 2.412 2.756 0 5.645-2.252 5.645-4.584 0-1.563-1.325-2.438-2.969-2.438m-438.814 74.107c0 1.14.822 2.411 2.968 2.411 2.756 0 5.645-2.252 5.645-4.584 0-1.563-1.325-2.437-2.969-2.437-2.57 0-5.644 2.172-5.644 4.61M64.523 17.341c0 1.14.822 2.412 2.968 2.412 2.756 0 5.645-2.253 5.645-4.584 0-1.564-1.325-2.438-2.968-2.438-2.57 0-5.645 2.173-5.645 4.61m107.013 92.662c0 1.14.822 2.411 2.968 2.411 2.756 0 5.644-2.252 5.644-4.584 0-1.563-1.325-2.437-2.968-2.437-2.57 0-5.644 2.172-5.644 4.61M158.588 7.413c0 1.14.822 2.412 2.968 2.412 2.756 0 5.645-2.253 5.645-4.584 0-1.564-1.325-2.438-2.969-2.438-2.57 0-5.644 2.173-5.644 4.61m-8.987 95.972c0 1.139.821 2.411 2.968 2.411 2.756 0 5.644-2.253 5.644-4.585 0-1.562-1.325-2.437-2.968-2.437-2.57 0-5.644 2.172-5.644 4.61m-85.052-6.618c0 1.14.821 2.411 2.968 2.411 2.756 0 5.643-2.253 5.643-4.584 0-1.563-1.324-2.438-2.967-2.438-2.57 0-5.644 2.173-5.644 4.61m449.568-9.927c0 1.14.821 2.41 2.968 2.41 2.755 0 5.644-2.251 5.644-4.583 0-1.564-1.325-2.438-2.968-2.438-2.57 0-5.644 2.173-5.644 4.61m-421.761 6.62c0 1.139.821 2.41 2.968 2.41 2.755 0 5.643-2.251 5.643-4.583 0-1.564-1.324-2.438-2.967-2.438-2.57 0-5.644 2.173-5.644 4.61m29.247 6.62c0 1.139.821 2.41 2.968 2.41 2.755 0 5.644-2.252 5.644-4.583 0-1.564-1.325-2.439-2.968-2.439-2.57 0-5.644 2.174-5.644 4.611m-14.623-3.31c0 1.14.82 2.412 2.967 2.412 2.756 0 5.644-2.253 5.644-4.584 0-1.563-1.325-2.438-2.968-2.438-2.57 0-5.643 2.173-5.643 4.61m385.201 6.62c0 1.139.822 2.411 2.969 2.411 2.755 0 5.644-2.253 5.644-4.585 0-1.562-1.325-2.437-2.968-2.437-2.57 0-5.645 2.172-5.645 4.61m141.816-2.143a.99.99 0 0 1-1.06-.953c0-1.299 4.452-3.578 5.697-3.578.636 0 1.06.37 1.06.954 0 1.325-4.478 3.577-5.697 3.577m3.657-5.777c-2.571 0-5.644 2.147-5.644 4.611 0 1.14.821 2.412 2.967 2.412 2.756 0 5.644-2.253 5.644-4.584 0-1.564-1.325-2.439-2.967-2.439M413 108.864c0 .186.16.344.345.344.132 0 .291-.106.318-.211 0-.028.238-.955.265-1.034.026-.106.265-1.113 1.219-2.676 1.033-1.723 2.622-2.968 3.947-4.823 1.299-1.855 2.094-3.604 2.094-5.936 0-2.41-.557-4.425-1.96-6.995-.08-.186-.24-.292-.399-.292-.052 0-.105 0-.132.027-.133.053-.185.159-.185.318 0 .08.026.212.08.318 1.06 2.464 1.483 3.869 1.483 5.777 0 2.199-.768 3.338-1.246 4.16-1.722 2.941-4.504 4.372-5.617 4.742-.185.08-.212.213-.212.292zm-160.323 1.655c0 .185.16.344.345.344.133 0 .291-.106.318-.212 0-.027.238-.954.265-1.033.027-.107.265-1.114 1.219-2.677 1.033-1.722 2.623-2.968 3.948-4.823 1.298-1.854 2.093-3.603 2.093-5.935 0-2.411-.556-4.425-1.96-6.996-.08-.185-.239-.291-.398-.291-.053 0-.106 0-.132.026-.133.054-.186.16-.186.319 0 .079.027.211.08.318 1.06 2.464 1.484 3.868 1.484 5.776 0 2.2-.769 3.339-1.246 4.16-1.722 2.941-4.505 4.373-5.617 4.743-.186.08-.213.212-.213.292zm-160.322 3.309a.35.35 0 0 0 .344.344c.132 0 .292-.105.318-.212 0-.026.239-.953.265-1.033.026-.106.265-1.113 1.22-2.677 1.033-1.722 2.623-2.967 3.948-4.822 1.298-1.855 2.093-3.603 2.093-5.935 0-2.412-.557-4.426-1.961-6.996-.08-.185-.239-.292-.397-.292-.054 0-.107 0-.133.027-.132.053-.186.159-.186.318 0 .08.027.212.08.318 1.06 2.464 1.483 3.868 1.483 5.777 0 2.199-.768 3.338-1.244 4.16-1.723 2.94-4.505 4.372-5.619 4.743-.185.079-.211.212-.211.291zM317.594 6.301v22.106h.662V6.301ZM64.524 17.34v22.053h.662V17.34Zm93.02 61.765v22.107h.661V79.106Zm-85.052-4.964v20.452h.662V74.142Zm106.986 11.583v22.106h.662V85.725ZM86.546 17.34v18.71h.662V17.34Zm525.407 60.147v17.107h.662V77.487Zm-14.623 1.584v18.832h.662V79.071ZM101.227 14.03v20.435h.662V14.03Zm100.187 71.694v22.106h.662V85.725Zm373.98-9.928v22.106h.663V75.797Zm59.19-59.568v22.106h.662V16.229Zm-518.676-5.507v23.744h.662V10.722Zm429.609 82.734V112.2h.662V93.456ZM130.59 17.34v18.71h.662V17.34Zm472.506-1.111v22.106h.662V16.229ZM224.872 93.456V112.2h.662V93.456Zm356.202-77.227v22.106h.663V16.229Zm58.878 59.568v22.106h.662V75.797Zm-80.9-66.187v22.107h.662V9.61ZM158.59 7.412v22.054h.662V7.412Zm355.528 79.425v22.053h.662V86.837Zm-261.44 3.31v20.372h.663V90.146ZM527.566 4.645v20.452h.662V4.646Zm-252.32 69.532v17.107h.662V74.178ZM497.6 17.34v22.054h.662V17.34ZM289.868 75.761v18.833h.662V75.761Zm185.71-58.42v22.053h.662V17.34Zm-294.967 0v22.053h.662V17.34Zm319.513 61.765v22.107h.662V79.106ZM202.634 17.34v22.054h.661V17.34Zm244.946 3.31v18.78h.662V20.65Zm30.609 53.492v20.452h.662V74.142Zm-160.323 1.655v22.106h.662V75.797ZM432.898 23.96v17.054h.662V23.959Zm-93.096 58.456v22.107h.662V82.415Zm86.357-74.424v17.107h.662V7.99Zm-64.422 74.424v22.107h.662V82.415ZM234.12 23.96v18.744h.663V23.96ZM411.478 9.574v18.833h.662V9.574ZM264.085 6.301v22.106h.662V6.301Zm132.711 1.69v17.107h.662V7.99Zm-11.602 82.155v20.399h.662V90.146ZM114.921 77.487v17.107h.662V77.487ZM382.114 9.574v18.833h.663V9.574Zm-96.007-3.273v22.106h.662V6.301Zm156.141 87.155v17.053h.662V93.456Zm-29.247-6.62v22.028h.662V86.837ZM350.627 16.23v22.106h.662V16.229Zm76.998 73.917v18.78h.662v-18.78Zm-335.27 3.31v20.372h.663V93.456Zm37.19-14.385v18.832h.662V79.071ZM466.113 9.246v27.203h1.191V9.246ZM300.46 78.742v27.203h1.191V78.742ZM224.655 9.246v27.203h1.191V9.246ZM375.73 78.742v27.203h1.19V78.742Zm85.051 0v27.203h1.192V78.742ZM364.708 9.246v27.203h1.19V9.246Zm176.937 0v27.203h1.191V9.246Zm-392.521 0v27.203h1.19V9.246Zm386.928 69.496v27.203h1.191V78.742Zm81.124-69.496v27.203h1.192V9.246ZM215.407 78.742v27.203h1.191V78.742ZM677.36 9.246v27.203H681V9.246Zm-3.64 0v27.203h1.191V9.246Zm-2.447 16.91c0-.768-.61-1.404-1.378-1.404-.769 0-1.378.636-1.378 1.405 0 .768.61 1.404 1.378 1.404s1.378-.636 1.378-1.404m0-6.62c0-.768-.61-1.404-1.378-1.404-.769 0-1.378.636-1.378 1.405 0 .768.61 1.404 1.378 1.404s1.378-.636 1.378-1.404m6.087 59.204v27.203H681V78.742Zm-3.64 0v27.203h1.191V78.742Zm-51.175 0v27.203h1.191V78.742ZM56.278 95.653c0-.768-.61-1.405-1.379-1.405-.768 0-1.378.637-1.378 1.405 0 .769.61 1.404 1.378 1.404.769 0 1.379-.635 1.379-1.404m0-6.619c0-.768-.61-1.404-1.379-1.404-.768 0-1.378.636-1.378 1.404 0 .769.61 1.404 1.378 1.404.769 0 1.379-.635 1.379-1.404M49.88 78.742v27.203h1.192V78.742Zm-6.088 0v27.203h3.64V78.742Zm96.344 0v27.203h1.19V78.742Zm160.05-69.496v27.203h1.191V9.246ZM0 105.216v.729h681v-.728zM0 98.6v.727h681V98.6zm0-6.62v.729h681v-.728zm0-6.618v.728h681v-.728zm0-6.619v.728h681v-.728Zm0-43.021v.727h681v-.727zm0-6.619v.728h681v-.728zm0-6.619v.728h681v-.728zm0-6.618v.727h681v-.727Zm0-6.619v.728h681v-.728Z"/>
</svg>
