<?xml version="1.0" encoding="utf-8"?>
<svg xmlns="http://www.w3.org/2000/svg" xmlns:svg="http://www.w3.org/2000/svg" version="1.1" viewBox="0 0 681 187">
	<title>A score 3 staves long in 6/4 time, in the key of G Minor.</title>
	<path d="M604.735 165.15c0 .742.583 1.324 1.325 1.324s1.325-.582 1.325-1.325c0-.742-.583-1.324-1.325-1.324s-1.325.582-1.325 1.324m-168.13-82.734c0 .742.584 1.325 1.326 1.325s1.325-.583 1.325-1.325-.583-1.325-1.325-1.325-1.325.583-1.325 1.325m159.176 13.238c0 .741.583 1.325 1.325 1.325.741 0 1.325-.584 1.325-1.325 0-.742-.584-1.325-1.325-1.325-.742 0-1.325.583-1.325 1.325m47.97 0c0 .741.584 1.325 1.325 1.325.742 0 1.325-.584 1.325-1.325 0-.742-.583-1.325-1.325-1.325-.741 0-1.325.583-1.325 1.325M131.89 158.531c0 .742.582 1.324 1.324 1.324s1.325-.582 1.325-1.324-.582-1.325-1.325-1.325c-.742 0-1.324.582-1.324 1.325m501.02-145.612c0 .742.583 1.325 1.325 1.325s1.325-.583 1.325-1.325-.583-1.325-1.325-1.325-1.325.583-1.325 1.325m-353.93 138.993c0 .742.583 1.325 1.325 1.325s1.325-.583 1.325-1.325-.583-1.325-1.325-1.325-1.325.583-1.325 1.325m100.895-43.029 17.48-1.655v3.324l-17.48 1.655zm-179.001 69.501 29.025-1.655v3.315l-29.025 1.654zM51.37 32.793v1.96h-2.2a.38.38 0 0 0-.371.37v.504a.38.38 0 0 0 .371.372h8.03c.211 0 .37-.16.37-.372v-.503a.36.36 0 0 0-.37-.37h-2.386v-1.961H57.2c.212 0 .37-.186.37-.398v-.504a.38.38 0 0 0-.37-.37h-2.385v-4.214c0-.16-.079-.291-.185-.344l-.318-.16c-.053-.026-.08-.026-.132-.026-.107 0-.213 0-.293.08l-2.41 2.2a.4.4 0 0 0-.106.29v2.174h-3.075s2.969-3.18 6.095-7.367a.58.58 0 0 0 .133-.37.44.44 0 0 0-.08-.266l-.583-.583c-.08-.053-.158-.106-.265-.106h-3.948c-.185 0-.318.159-.344.318 0 0-.133 1.961-.822 4.107-.69 2.147-1.484 3.472-2.173 4.452 0 0-.079.132-.079.292 0 .052 0 .105.027.158.079.186.265.477.265.477s.052.16.291.16zm.793-11.067c-.874 0-1.59-1.192-1.59-2.676s.716-2.703 1.59-2.703 1.616 1.219 1.616 2.703-.742 2.676-1.616 2.676m.98-6.625c-1.616 0-2.199.477-2.57.875-.08-.557-.132-.98-.132-1.405 0-1.51.53-3.47 2.385-3.47.662 0 1.06.211 1.325.503-.557.238-1.007.954-1.007 1.563 0 .954.742 1.696 1.695 1.696s1.723-.742 1.723-1.696v-.08c0-.238-.053-.635-.16-.847-.344-.954-1.456-2.359-4.106-2.359-2.385 0-4.108 2.28-4.638 3.498a9.4 9.4 0 0 0-.662 3.418c0 1.617.45 3.445 2.014 4.823 1.537 1.166 2.517 1.219 3.444 1.219.928 0 4.4-1.087 4.4-4.16 0-2.597-2.041-3.578-3.71-3.578M37.732 11.86c0 2.094-1.086 3.207-2.623 4.425l.079-5.167c.053-.238.45-1.007 1.51-1.007.954 0 1.034.901 1.034 1.458zm-.318-3.047a2.98 2.98 0 0 0-2.226.98l.106-8.506a.36.36 0 0 0-.37-.37h-.319a.363.363 0 0 0-.371.37l.133 15.926c0 .212.159.37.37.37a.6.6 0 0 0 .212-.052c2.28-1.14 4.664-3.312 4.664-6.042 0-1.378-.636-2.676-2.2-2.676m-7.041 12.975c0 2.094-1.086 3.207-2.623 4.426l.079-5.168c.053-.238.45-1.007 1.51-1.007.955 0 1.034.901 1.034 1.458zm-.318-3.047a2.98 2.98 0 0 0-2.226.98l.106-8.505a.363.363 0 0 0-.371-.371h-.318a.36.36 0 0 0-.37.37l.131 15.926c0 .212.16.37.372.37a.6.6 0 0 0 .211-.052c2.28-1.14 4.664-3.312 4.664-6.042 0-1.378-.635-2.676-2.199-2.676m7.678 132.112c0 2.093-1.086 3.206-2.623 4.425l.079-5.167c.053-.238.45-1.007 1.51-1.007.954 0 1.034.9 1.034 1.457zm-.318-3.047a2.98 2.98 0 0 0-2.226.98l.106-8.506a.36.36 0 0 0-.37-.37h-.319a.363.363 0 0 0-.371.37l.133 15.925c0 .212.159.372.37.372.054 0 .16-.027.212-.053 2.28-1.14 4.664-3.313 4.664-6.042 0-1.378-.636-2.676-2.2-2.676m-7.041 12.975c0 2.094-1.086 3.206-2.623 4.426l.079-5.168c.053-.239.45-1.007 1.51-1.007.955 0 1.034.901 1.034 1.458zm-.318-3.048a2.98 2.98 0 0 0-2.226.981l.106-8.506c0-.212-.159-.37-.371-.37h-.318a.36.36 0 0 0-.37.37l.131 15.926c0 .212.16.37.372.37a.6.6 0 0 0 .211-.053c2.28-1.139 4.664-3.311 4.664-6.041 0-1.378-.635-2.677-2.199-2.677m7.678-76.377c0 2.094-1.086 3.207-2.623 4.426l.079-5.168c.053-.237.45-1.006 1.51-1.006.954 0 1.034.9 1.034 1.457zm-.318-3.046a2.98 2.98 0 0 0-2.226.98l.106-8.506a.36.36 0 0 0-.37-.371h-.319a.363.363 0 0 0-.371.37l.133 15.926c0 .212.159.371.37.371.054 0 .16-.026.212-.052 2.28-1.14 4.664-3.313 4.664-6.042 0-1.378-.636-2.676-2.2-2.676m-7.041 12.975c0 2.093-1.086 3.206-2.623 4.425l.079-5.167c.053-.239.45-1.007 1.51-1.007.955 0 1.034.901 1.034 1.457zm-.318-3.048a2.98 2.98 0 0 0-2.226.98l.106-8.505c0-.212-.159-.37-.371-.37h-.318a.36.36 0 0 0-.37.37l.131 15.925c0 .212.16.371.372.371a.6.6 0 0 0 .211-.053c2.28-1.14 4.664-3.312 4.664-6.042 0-1.377-.635-2.676-2.199-2.676m-13.96-53.312a7.7 7.7 0 0 1-1.538.16c-3.789 0-7.022-2.65-7.022-6.651 0-3.234 2.28-6.122 4.611-8.135.45-.398.875-.769 1.272-1.166.238 1.43.424 2.676.61 3.762-2.412.716-4.055 3.26-4.055 5.75 0 1.855 1.458 4.4 3.577 4.4.212 0 .451-.107.451-.345 0-.239-.265-.372-.583-.583-1.033-.636-1.616-1.325-1.616-2.623 0-1.617 1.192-2.915 2.755-3.287zm-2.332-27.24c.239-1.06 1.458-3.842 2.836-3.842.397 0 1.033 1.299 1.033 3.127 0 2.756-2.04 4.823-3.869 6.625-.159-1.06-.291-2.094-.291-3.207 0-.98.08-1.881.291-2.703m6.095 22.339c0 1.881-.768 3.815-2.65 4.584a882 882 0 0 1-1.457-8.559c2.385 0 4.107 1.616 4.107 3.975M8.196 43.06c0 1.748 1.352 4.054 4.93 4.054 1.245 0 2.331-.318 3.285-.901 1.431-1.007 1.802-2.756 1.802-4.425 0-1.034-.159-2.226-.424-3.737-.08-.53-.238-1.325-.397-2.358 2.597-.848 4.53-3.55 4.53-6.28 0-4.001-2.834-6.704-6.703-6.704-.265-1.59-.53-3.153-.769-4.637 2.81-2.942 4.744-6.254 4.744-10.467 0-2.411-.742-4.372-1.166-5.326C17.392.927 16.623 0 16.146 0c-.185 0-1.007.318-1.881 1.351-1.696 2.014-2.173 5.406-2.173 7.632 0 1.43.133 2.73.583 5.697-.026.026-1.404 1.43-1.96 1.881-2.412 2.253-5.75 5.459-5.75 10.758 0 4.956 4.318 8.851 9.247 8.851.768 0 1.484-.08 2.093-.186.504 2.545.795 4.4.795 5.804 0 2.755-1.404 4.213-4.08 4.213-.636 0-1.193-.133-1.246-.133-.026-.026-.08-.053-.08-.08 0-.052.054-.079.133-.105 1.246-.186 2.49-1.246 2.49-2.941 0-1.432-1.085-2.941-3.073-2.941-1.855 0-3.047 1.51-3.047 3.259m7.896 130.857a7.7 7.7 0 0 1-1.537.16c-3.789 0-7.022-2.65-7.022-6.652 0-3.233 2.28-6.12 4.611-8.135.45-.398.875-.768 1.272-1.165.238 1.43.424 2.676.61 3.762-2.412.715-4.055 3.26-4.055 5.75 0 1.855 1.458 4.399 3.577 4.399.212 0 .451-.106.451-.344 0-.239-.265-.372-.583-.583-1.033-.637-1.616-1.325-1.616-2.624 0-1.616 1.192-2.914 2.755-3.286zm-2.332-27.24c.239-1.06 1.458-3.842 2.836-3.842.397 0 1.033 1.299 1.033 3.127 0 2.755-2.04 4.822-3.869 6.624-.159-1.06-.291-2.093-.291-3.206 0-.98.08-1.882.291-2.703m6.095 22.338c0 1.882-.768 3.816-2.65 4.584a882 882 0 0 1-1.457-8.558c2.385 0 4.107 1.616 4.107 3.974m-11.66 13.037c0 1.749 1.352 4.054 4.93 4.054 1.245 0 2.331-.318 3.285-.9 1.431-1.007 1.802-2.757 1.802-4.426 0-1.033-.159-2.225-.424-3.736-.08-.53-.238-1.325-.397-2.358 2.597-.848 4.53-3.55 4.53-6.28 0-4.002-2.834-6.704-6.703-6.704-.265-1.59-.53-3.154-.769-4.637 2.81-2.942 4.744-6.254 4.744-10.467 0-2.412-.742-4.372-1.166-5.326-.636-1.352-1.405-2.28-1.882-2.28-.185 0-1.007.319-1.881 1.352-1.696 2.014-2.173 5.406-2.173 7.631 0 1.432.133 2.73.583 5.698-.026.026-1.404 1.43-1.96 1.881-2.412 2.252-5.75 5.458-5.75 10.758 0 4.955 4.318 8.85 9.247 8.85.768 0 1.484-.079 2.093-.185.504 2.544.795 4.399.795 5.803 0 2.756-1.404 4.213-4.08 4.213-.636 0-1.193-.132-1.246-.132-.026-.027-.08-.053-.08-.08 0-.053.054-.079.133-.105 1.246-.186 2.49-1.246 2.49-2.942 0-1.431-1.085-2.94-3.073-2.94-1.855 0-3.047 1.509-3.047 3.258m7.896-77.631a7.7 7.7 0 0 1-1.537.159c-3.789 0-7.022-2.65-7.022-6.65 0-3.234 2.28-6.122 4.611-8.136.45-.398.875-.769 1.272-1.166.238 1.43.424 2.677.61 3.763-2.412.715-4.055 3.259-4.055 5.75 0 1.854 1.458 4.398 3.577 4.398.212 0 .451-.105.451-.344 0-.238-.265-.371-.583-.583-1.033-.636-1.616-1.325-1.616-2.623 0-1.616 1.192-2.915 2.755-3.286zm-2.332-27.24c.239-1.06 1.458-3.842 2.836-3.842.397 0 1.033 1.298 1.033 3.127 0 2.755-2.04 4.822-3.869 6.624-.159-1.06-.291-2.093-.291-3.206 0-.98.08-1.882.291-2.703m6.095 22.338c0 1.881-.768 3.815-2.65 4.584a882 882 0 0 1-1.457-8.559c2.385 0 4.107 1.617 4.107 3.975m-11.66 13.037c0 1.748 1.352 4.054 4.93 4.054 1.245 0 2.331-.318 3.285-.9 1.431-1.008 1.802-2.757 1.802-4.426 0-1.034-.159-2.226-.424-3.736-.08-.53-.238-1.325-.397-2.359 2.597-.847 4.53-3.55 4.53-6.28 0-4.001-2.834-6.704-6.703-6.704-.265-1.59-.53-3.153-.769-4.637 2.81-2.942 4.744-6.253 4.744-10.467 0-2.411-.742-4.372-1.166-5.326-.636-1.351-1.405-2.279-1.882-2.279-.185 0-1.007.319-1.881 1.351-1.696 2.015-2.173 5.406-2.173 7.632 0 1.431.133 2.73.583 5.698-.026.026-1.404 1.43-1.96 1.88-2.412 2.253-5.75 5.459-5.75 10.759 0 4.955 4.318 8.85 9.247 8.85.768 0 1.484-.079 2.093-.185.504 2.544.795 4.399.795 5.803 0 2.755-1.404 4.213-4.08 4.213-.636 0-1.193-.133-1.246-.133-.026-.026-.08-.053-.08-.08 0-.052.054-.078.133-.105 1.246-.185 2.49-1.245 2.49-2.941 0-1.431-1.085-2.941-3.073-2.941-1.855 0-3.047 1.51-3.047 3.259M344.02 88.004a.99.99 0 0 1-1.06-.954c0-1.299 4.452-3.577 5.697-3.577.636 0 1.06.37 1.06.953 0 1.325-4.479 3.578-5.697 3.578m3.657-5.777c-2.57 0-5.645 2.146-5.645 4.61 0 1.14.822 2.412 2.968 2.412 2.756 0 5.645-2.252 5.645-4.584 0-1.564-1.325-2.438-2.968-2.438m176.38-58.267c0 1.14.822 2.411 2.968 2.411 2.756 0 5.644-2.252 5.644-4.584 0-1.563-1.325-2.438-2.968-2.438-2.57 0-5.643 2.173-5.643 4.611M320.996 153.024c0 1.14.822 2.412 2.969 2.412 2.755 0 5.644-2.252 5.644-4.584 0-1.564-1.325-2.438-2.968-2.438-2.57 0-5.645 2.173-5.645 4.61M549.05 20.651c0 1.14.821 2.411 2.967 2.411 2.756 0 5.644-2.252 5.644-4.584 0-1.563-1.325-2.438-2.967-2.438-2.57 0-5.644 2.173-5.644 4.61m-259.386 3.31c0 1.14.822 2.411 2.968 2.411 2.756 0 5.644-2.252 5.644-4.584 0-1.563-1.325-2.438-2.968-2.438-2.57 0-5.644 2.173-5.644 4.611m209.401 6.62c0 1.138.822 2.41 2.968 2.41 2.756 0 5.645-2.252 5.645-4.584 0-1.563-1.325-2.438-2.968-2.438-2.57 0-5.645 2.173-5.645 4.611m-232 125.755c0 1.14.82 2.411 2.967 2.411 2.755 0 5.644-2.252 5.644-4.584 0-1.563-1.325-2.438-2.968-2.438-2.57 0-5.644 2.173-5.644 4.61m318.43-137.826a.99.99 0 0 1-1.06-.954c0-1.298 4.451-3.577 5.697-3.577.636 0 1.06.371 1.06.954 0 1.325-4.479 3.577-5.697 3.577m3.656-5.776c-2.57 0-5.644 2.146-5.644 4.61 0 1.14.822 2.412 2.968 2.412 2.756 0 5.644-2.253 5.644-4.584 0-1.564-1.324-2.438-2.968-2.438M70.799 27.27c0 1.139.821 2.41 2.967 2.41 2.756 0 5.644-2.252 5.644-4.583 0-1.564-1.325-2.438-2.967-2.438-2.57 0-5.644 2.173-5.644 4.61m552.183-8.762a.99.99 0 0 1-1.06-.954c0-1.298 4.452-3.577 5.697-3.577.636 0 1.06.371 1.06.954 0 1.325-4.479 3.577-5.697 3.577m3.657-5.776c-2.57 0-5.645 2.146-5.645 4.61 0 1.14.822 2.412 2.968 2.412 2.756 0 5.644-2.253 5.644-4.584 0-1.564-1.324-2.438-2.967-2.438M229.236 159.643c0 1.14.821 2.412 2.968 2.412 2.756 0 5.644-2.252 5.644-4.584 0-1.564-1.325-2.438-2.968-2.438-2.57 0-5.644 2.173-5.644 4.61m162.669 0c0 1.14.821 2.412 2.967 2.412 2.756 0 5.644-2.252 5.644-4.584 0-1.564-1.325-2.438-2.967-2.438-2.57 0-5.644 2.173-5.644 4.61M474.074 30.58c0 1.14.821 2.411 2.967 2.411 2.756 0 5.644-2.252 5.644-4.584 0-1.563-1.325-2.438-2.967-2.438-2.571 0-5.644 2.173-5.644 4.611M200.873 162.953c0 1.139.82 2.411 2.968 2.411 2.755 0 5.644-2.252 5.644-4.584 0-1.563-1.325-2.438-2.968-2.438-2.57 0-5.644 2.173-5.644 4.61m63.8-142.301c0 1.14.82 2.411 2.967 2.411 2.756 0 5.644-2.252 5.644-4.584 0-1.563-1.324-2.438-2.967-2.438-2.57 0-5.645 2.173-5.645 4.61M434.45 166.263c0 1.14.821 2.411 2.968 2.411 2.756 0 5.644-2.251 5.644-4.583 0-1.564-1.325-2.438-2.968-2.438-2.57 0-5.644 2.173-5.644 4.61m-312.488-2.144a.99.99 0 0 1-1.06-.953c0-1.299 4.452-3.578 5.698-3.578.635 0 1.06.372 1.06.955 0 1.324-4.479 3.576-5.698 3.576m3.657-5.776c-2.57 0-5.644 2.147-5.644 4.61 0 1.14.821 2.412 2.968 2.412 2.755 0 5.643-2.252 5.643-4.584 0-1.563-1.324-2.438-2.967-2.438M449.08 27.27c0 1.139.822 2.41 2.968 2.41 2.756 0 5.644-2.252 5.644-4.583 0-1.564-1.325-2.438-2.968-2.438-2.57 0-5.644 2.173-5.644 4.61M58.144 164.12a.99.99 0 0 1-1.06-.954c0-1.299 4.452-3.578 5.697-3.578.636 0 1.06.372 1.06.955 0 1.324-4.478 3.576-5.697 3.576m3.657-5.776c-2.57 0-5.644 2.147-5.644 4.61 0 1.14.821 2.412 2.967 2.412 2.756 0 5.644-2.252 5.644-4.584 0-1.563-1.325-2.438-2.967-2.438m415.193-2.008c0 1.14.821 2.411 2.968 2.411 2.755 0 5.644-2.252 5.644-4.584 0-1.563-1.325-2.438-2.968-2.438-2.57 0-5.644 2.173-5.644 4.61M424.09 23.96c0 1.14.822 2.411 2.968 2.411 2.756 0 5.644-2.252 5.644-4.584 0-1.563-1.324-2.438-2.968-2.438-2.57 0-5.644 2.173-5.644 4.611m-109.432 3.31c0 1.139.821 2.41 2.967 2.41 2.756 0 5.644-2.252 5.644-4.583 0-1.564-1.325-2.438-2.967-2.438-2.571 0-5.644 2.173-5.644 4.61M105.255 23.96c0 1.14.822 2.411 2.968 2.411 2.756 0 5.644-2.252 5.644-4.584 0-1.563-1.324-2.438-2.967-2.438-2.57 0-5.645 2.173-5.645 4.611m124.96-6.619c0 1.14.822 2.412 2.968 2.412 2.756 0 5.644-2.253 5.644-4.584 0-1.564-1.325-2.438-2.967-2.438-2.57 0-5.644 2.173-5.644 4.61M530.99 170.737a.99.99 0 0 1-1.06-.953c0-1.299 4.451-3.578 5.697-3.578.635 0 1.06.37 1.06.954 0 1.325-4.479 3.577-5.697 3.577m3.656-5.776c-2.57 0-5.644 2.146-5.644 4.61 0 1.14.822 2.412 2.968 2.412 2.756 0 5.645-2.253 5.645-4.584 0-1.563-1.325-2.438-2.969-2.438m99.178-67.03a.99.99 0 0 1-1.06-.953c0-1.298 4.451-3.578 5.697-3.578.637 0 1.06.372 1.06.955 0 1.325-4.478 3.577-5.697 3.577m3.656-5.777c-2.57 0-5.643 2.147-5.643 4.61 0 1.14.821 2.412 2.967 2.412 2.757 0 5.645-2.253 5.645-4.584 0-1.563-1.325-2.438-2.969-2.438M70.824 86.838c0 1.14.822 2.41 2.968 2.41 2.756 0 5.644-2.251 5.644-4.583 0-1.564-1.325-2.438-2.968-2.438-2.57 0-5.644 2.173-5.644 4.61m318.809-66.186c0 1.14.821 2.411 2.967 2.411 2.756 0 5.644-2.252 5.644-4.584 0-1.563-1.325-2.438-2.967-2.438-2.57 0-5.644 2.173-5.644 4.61m196.221 80.591a.99.99 0 0 1-1.06-.953c0-1.299 4.452-3.578 5.697-3.578.636 0 1.06.37 1.06.954 0 1.325-4.478 3.577-5.697 3.577m3.657-5.777c-2.57 0-5.645 2.147-5.645 4.611 0 1.14.822 2.412 2.969 2.412 2.755 0 5.644-2.253 5.644-4.584 0-1.564-1.325-2.439-2.968-2.439M205.224 20.651c0 1.14.82 2.411 2.967 2.411 2.756 0 5.644-2.252 5.644-4.584 0-1.563-1.325-2.438-2.968-2.438-2.57 0-5.643 2.173-5.643 4.61m-74.977 6.62c0 1.139.822 2.41 2.968 2.41 2.756 0 5.644-2.252 5.644-4.583 0-1.564-1.325-2.438-2.968-2.438-2.57 0-5.644 2.173-5.644 4.61m-24.73 56.26c0 1.14.821 2.411 2.968 2.411 2.755 0 5.643-2.253 5.643-4.585 0-1.563-1.324-2.437-2.967-2.437-2.57 0-5.644 2.172-5.644 4.61m443.657 3.31c0 1.14.821 2.41 2.968 2.41 2.756 0 5.644-2.251 5.644-4.583 0-1.564-1.325-2.438-2.968-2.438-2.57 0-5.644 2.173-5.644 4.61m-418.43 0c0 1.14.822 2.412 2.968 2.412 2.756 0 5.644-2.252 5.644-4.584 0-1.564-1.325-2.438-2.968-2.438-2.57 0-5.643 2.173-5.643 4.61m393.201 9.929c0 1.14.822 2.411 2.968 2.411 2.755 0 5.644-2.253 5.644-4.584 0-1.563-1.325-2.438-2.968-2.438-2.57 0-5.644 2.173-5.644 4.61M155.972 83.529c0 1.14.822 2.412 2.968 2.412 2.756 0 5.645-2.253 5.645-4.585 0-1.563-1.325-2.437-2.968-2.437-2.57 0-5.645 2.172-5.645 4.61m342.747 6.619c0 1.14.82 2.411 2.967 2.411 2.756 0 5.644-2.252 5.644-4.584 0-1.563-1.325-2.437-2.968-2.437-2.57 0-5.643 2.172-5.643 4.61M181.2 80.219c0 1.14.821 2.412 2.967 2.412 2.756 0 5.644-2.253 5.644-4.585 0-1.564-1.325-2.438-2.967-2.438-2.571 0-5.644 2.173-5.644 4.611m292.29 6.619c0 1.14.82 2.41 2.967 2.41 2.756 0 5.644-2.251 5.644-4.583 0-1.564-1.324-2.438-2.967-2.438-2.57 0-5.645 2.173-5.645 4.61m-267.062-3.309c0 1.14.822 2.412 2.968 2.412 2.755 0 5.644-2.253 5.644-4.585 0-1.563-1.325-2.437-2.968-2.437-2.57 0-5.644 2.172-5.644 4.61m250.243 0c0 1.14.822 2.412 2.969 2.412 2.755 0 5.644-2.253 5.644-4.585 0-1.563-1.325-2.437-2.968-2.437-2.57 0-5.645 2.172-5.645 4.61m-225.015 3.31c0 1.14.821 2.41 2.968 2.41 2.756 0 5.644-2.251 5.644-4.583 0-1.564-1.325-2.438-2.968-2.438-2.57 0-5.644 2.173-5.644 4.61M180.231 23.96c0 1.14.822 2.411 2.969 2.411 2.755 0 5.644-2.252 5.644-4.584 0-1.563-1.325-2.438-2.968-2.438-2.57 0-5.645 2.173-5.645 4.611m414.576 146.777a.99.99 0 0 1-1.06-.953c0-1.299 4.452-3.578 5.698-3.578.636 0 1.06.37 1.06.954 0 1.325-4.478 3.577-5.698 3.577m3.657-5.776c-2.57 0-5.643 2.146-5.643 4.61 0 1.14.82 2.412 2.967 2.412 2.756 0 5.644-2.253 5.644-4.584 0-1.563-1.325-2.438-2.968-2.438M424.691 86.838c0 1.14.822 2.41 2.968 2.41 2.755 0 5.644-2.251 5.644-4.583 0-1.564-1.325-2.438-2.968-2.438-2.57 0-5.644 2.173-5.644 4.61m-158.342 3.31c0 1.14.82 2.411 2.967 2.411 2.756 0 5.645-2.252 5.645-4.584 0-1.563-1.325-2.437-2.968-2.437-2.57 0-5.645 2.172-5.645 4.61m25.229 3.31c0 1.139.821 2.41 2.968 2.41 2.755 0 5.643-2.251 5.643-4.583 0-1.564-1.324-2.438-2.967-2.438-2.57 0-5.644 2.173-5.644 4.61m48.071-72.805c0 1.14.822 2.411 2.968 2.411 2.756 0 5.645-2.252 5.645-4.584 0-1.563-1.325-2.438-2.968-2.438-2.57 0-5.645 2.173-5.645 4.61m57.045 69.497c0 1.14.821 2.411 2.967 2.411 2.757 0 5.645-2.252 5.645-4.584 0-1.563-1.325-2.437-2.968-2.437-2.57 0-5.644 2.172-5.644 4.61m-79.888 0c0 1.14.821 2.411 2.967 2.411 2.757 0 5.644-2.252 5.644-4.584 0-1.563-1.325-2.437-2.968-2.437-2.57 0-5.643 2.172-5.643 4.61m47.836-72.806c0 1.14.82 2.412 2.967 2.412 2.756 0 5.644-2.253 5.644-4.584 0-1.564-1.325-2.438-2.968-2.438-2.57 0-5.643 2.173-5.643 4.61m15.233 76.115c0 1.14.821 2.412 2.968 2.412 2.756 0 5.644-2.252 5.644-4.584 0-1.564-1.325-2.438-2.968-2.438-2.57 0-5.644 2.173-5.644 4.61m-30.514 62.878c0 1.14.821 2.411 2.967 2.411 2.757 0 5.645-2.252 5.645-4.584 0-1.563-1.325-2.438-2.968-2.438-2.57 0-5.644 2.173-5.644 4.61M155.24 30.58c0 1.14.821 2.411 2.967 2.411 2.756 0 5.644-2.252 5.644-4.584 0-1.563-1.325-2.438-2.967-2.438-2.571 0-5.644 2.173-5.644 4.611m165.756 144.472c0 .185.16.344.345.344.132 0 .292-.106.318-.211 0-.027.239-.955.265-1.034.026-.106.265-1.113 1.219-2.676 1.033-1.723 2.623-2.969 3.948-4.823 1.298-1.855 2.093-3.604 2.093-5.936 0-2.411-.556-4.425-1.96-6.995-.08-.186-.239-.291-.398-.291-.053 0-.106 0-.132.026-.133.053-.186.159-.186.318 0 .08.026.212.08.318 1.06 2.464 1.484 3.869 1.484 5.776 0 2.2-.769 3.339-1.246 4.16-1.722 2.942-4.505 4.373-5.618 4.743-.185.08-.212.212-.212.293zm135.675-69.497c0 .186.16.345.346.345.132 0 .29-.106.317-.212 0-.026.239-.954.265-1.033.027-.107.265-1.113 1.219-2.677 1.033-1.722 2.623-2.968 3.948-4.823 1.299-1.855 2.093-3.603 2.093-5.935 0-2.411-.556-4.426-1.96-6.995-.08-.186-.239-.292-.398-.292-.053 0-.106 0-.132.027-.133.053-.186.158-.186.318 0 .079.027.212.08.317 1.06 2.464 1.484 3.87 1.484 5.777 0 2.2-.769 3.338-1.246 4.16-1.722 2.942-4.505 4.372-5.617 4.743-.186.08-.212.212-.212.292zm-76.797-12.098v17.058h.662V93.456ZM339.649 20.65v20.399h.662v-20.4Zm-48.072 72.806V112.2h.662V93.456Zm133.114-6.62v22.054h.662V86.837Zm-158.342 3.31v20.399h.662V90.146Zm130.343 0v18.775h.663V90.146ZM205.223 20.65v20.399h.662v-20.4Zm251.449 62.877v22.027h.662V83.527Zm-225.016 3.31v22.053h.662V86.837Zm241.834 0v22.053h.663V86.837Zm-267.062-3.31v22.054h.662V83.527Zm292.29 6.62v20.398h.662V90.146ZM181.2 80.216v22.054h.662V80.218Zm350.689-6.075v20.452h.662V74.142Zm-375.916 9.385v22.054h.662V83.527Zm393.201 3.31v22.053h.662V86.837Zm-418.43 0v22.053h.662V86.837ZM163.182 6.3v22.106h.662V6.301Zm-57.665 77.226v22.054h.662V83.527Zm486.292-7.73v22.106h.662V75.797ZM230.215 17.34v22.054h.662V17.34ZM639.78 74.142v20.452h.662V74.142ZM70.824 86.837v22.053h.662V86.837ZM138.19 4.646v20.452h.662V4.646ZM56.156 162.952v18.744h.662v-18.744zm63.818 0v18.744h.662v-18.744ZM264.673 20.65v20.399h.662v-20.4Zm99.967-3.31v22.054h.662V17.34ZM200.873 162.952v17.07h.662v-17.07zm28.362-3.31v18.764h.662v-18.763ZM105.255 23.96v18.744h.663V23.96Zm515.74-6.619v22.054h.662V17.34ZM267.064 156.333v22.053h.662v-22.053ZM583.507 17.34v22.054h.662V17.34Zm-293.843 6.62v18.743h.662V23.96Zm52.369 62.877v22.053h.662V86.837Zm-21.036 66.187v22.027h.662v-22.027ZM549.049 20.65v20.399h.662v-20.4ZM349.36 156.333v22.053h.662v-22.053ZM524.057 23.96v18.744h.662V23.96ZM391.904 159.643v20.398h.662v-20.398ZM507.008 6.3v22.106h.662V6.301Zm-64.616 137.338v20.451h.662V143.64ZM482.016 6.3v22.106h.662V6.301Zm-5.022 150.032v22.053h.662v-22.053ZM457.024 4.646v20.452h.662V4.646Zm-378.283 0v20.452h.662V4.646ZM424.09 23.959v18.744h.662V23.96ZM322.599 4.646v20.452h.662V4.646Zm214.347 140.648V167.4h.662v-22.106zm63.817 0V167.4h.662v-22.106ZM389.633 20.65v20.399h.662v-20.4Zm-72.829 69.496v20.399h.662V90.146ZM180.232 23.96v18.744h.662V23.96ZM533.7 173.13l-.01.005a.2.2 0 0 0-.052.033.2.2 0 0 0-.045.03v.007l-.011.01a.17.17 0 0 0 .032.104.17.17 0 0 0 .018.11c6.313 4.45 18.825 6.64 31.343 6.64s25.028-2.19 31.341-6.64a.165.165 0 0 0-.173-.281c-6.189 3.315-18.685 5.002-31.168 5.002s-24.98-1.687-31.17-5.002a.2.2 0 0 0-.053-.005.2.2 0 0 0-.053-.012zm59.933 1.503c-6.694 3.384-17.676 5.104-28.658 5.104s-21.964-1.72-28.659-5.104c6.793 2.577 17.721 3.846 28.659 3.846s21.865-1.27 28.658-3.846m-59.905-1.34c12.499 6.695 49.995 6.695 62.493 0-12.498 8.812-49.994 8.812-62.493 0m73.34-167.49c-7.26 0-14.524 1.8-18.2 5.478a.165.165 0 0 0-.014.196l-.003.016.012.008.006.013h.016a.165.165 0 0 0 .196.018c3.553-2.516 10.773-3.81 17.987-3.81s14.433 1.294 17.986 3.81a.165.165 0 0 0 .212-.251C621.593 7.6 614.33 5.8 607.07 5.8m0 .33c6.32 0 12.636 1.4 16.494 4.148-3.96-1.941-10.222-2.89-16.494-2.89s-12.534.949-16.494 2.89c3.858-2.747 10.174-4.148 16.494-4.148m-18.082 5.264c7.233-7.24 28.93-7.24 36.164 0-7.233-5.121-28.931-5.121-36.164 0M92.884 150.232c-12.519 0-25.03 2.189-31.343 6.64a.2.2 0 0 0-.028.046.2.2 0 0 0-.034.053.2.2 0 0 0 .006.062.2.2 0 0 0 .006.053l.008.007.002.01.014.003a.165.165 0 0 0 .2.048c6.188-3.316 18.684-5.003 31.168-5.003s24.98 1.687 31.17 5.003a.165.165 0 0 0 .173-.281c-6.313-4.452-18.824-6.64-31.342-6.64m0 .33c10.982 0 21.964 1.72 28.659 5.106-6.793-2.578-17.721-3.847-28.66-3.847s-21.866 1.27-28.659 3.847c6.694-3.386 17.677-5.105 28.66-5.105m-31.247 6.446c12.498-8.814 49.995-8.814 62.493 0-12.498-6.696-49.995-6.696-62.493 0M414.624 9.246v27.203h1.192V9.246Zm159.778 69.496v27.203h1.192V78.742Zm-478.35 0v27.203h1.191V78.742Zm583.757 0v27.203H681V78.742ZM62.552 95.653c0-.768-.609-1.405-1.377-1.405-.769 0-1.378.637-1.378 1.405 0 .769.61 1.404 1.378 1.404s1.377-.635 1.377-1.404m0-6.619c0-.768-.609-1.404-1.377-1.404-.769 0-1.378.636-1.378 1.404 0 .769.61 1.404 1.378 1.404s1.377-.635 1.377-1.404m-6.395-10.292v27.203h1.191V78.742Zm-6.09 0v27.203h3.64V78.742ZM257.6 148.24v27.202h1.192V148.24ZM255.207 9.246v27.203h1.191V9.246Zm-159.417 0v27.203h1.191V9.246Zm581.57 0v27.203H681V9.246Zm-3.64 0v27.203h1.191V9.246Zm-2.447 16.91c0-.768-.61-1.404-1.378-1.404-.769 0-1.378.636-1.378 1.405 0 .768.61 1.404 1.378 1.404s1.378-.636 1.378-1.404m0-6.62c0-.768-.61-1.404-1.378-1.404-.769 0-1.378.636-1.378 1.405 0 .768.61 1.404 1.378 1.404s1.378-.636 1.378-1.404m-151.735 128.7v27.203h1.192V148.24ZM574.041 9.247v27.203h1.192V9.246ZM677.36 148.239v27.202H681V148.24zm-3.64 0v27.202h1.191V148.24ZM256.884 78.742v27.203h1.192V78.742Zm158.342 0v27.203h1.192V78.742ZM0 174.713v.728h681v-.728zm0-6.618v.728h681v-.728zm0-6.619v.728h681v-.728zm0-6.619v.728h681v-.728zm0-6.619v.728h681v-.728zm0-43.021v.728h681v-.728zm0-6.618v.727h681V98.6zm0-6.62v.729h681v-.728zm0-6.618v.728h681v-.728zm0-6.619v.728h681v-.728Zm0-43.021v.727h681v-.727zm0-6.619v.728h681v-.728zm0-6.619v.728h681v-.728zm0-6.618v.727h681v-.727Zm0-6.619v.728h681v-.728Z"/>
</svg>
