<?xml version="1.0" encoding="UTF-8" standalone="no"?>
<svg
   width="681"
   height="116.60989"
   version="1.2"
   id="svg96"
   xmlns="http://www.w3.org/2000/svg"
   xmlns:svg="http://www.w3.org/2000/svg"
   xmlns:rdf="http://www.w3.org/1999/02/22-rdf-syntax-ns#"
   xmlns:cc="http://creativecommons.org/ns#"
   xmlns:dc="http://purl.org/dc/elements/1.1/">
  <defs
     id="defs96" />
  <title
     id="title1">air_XXXIV</title>
  <desc
     id="desc1">Generated by MuseScore Studio 4.7.3</desc>
  <path
     id="path96"
     class="Beam"
     d="m 638.7031,34.424898 21.2145,-1.654731 v 3.319869 l -21.2145,1.653931 V 34.424898 M 51.369511,32.792582 v 1.96054 h -2.199104 c -0.185727,0 -0.371454,0.159309 -0.371454,0.370654 v 0.503544 c 0,0.212145 0.185727,0.371454 0.371454,0.371454 h 8.02869 c 0.212145,0 0.370653,-0.159309 0.370653,-0.371454 v -0.503544 c 0,-0.211345 -0.158508,-0.370654 -0.370653,-0.370654 h -2.384831 v -1.96054 h 2.384831 c 0.212145,0 0.370653,-0.185727 0.370653,-0.397872 v -0.503544 c 0,-0.184927 -0.158508,-0.370654 -0.370653,-0.370654 h -2.384831 v -4.213281 c 0,-0.159309 -0.07925,-0.291399 -0.185727,-0.344235 l -0.317817,-0.159309 c -0.05284,-0.02642 -0.07925,-0.02642 -0.13209,-0.02642 -0.106473,0 -0.212145,0 -0.2922,0.07925 l -2.411249,2.199904 c -0.07925,0.07925 -0.105672,0.184927 -0.105672,0.2914 v 2.172685 h -3.074102 c 0,0 2.96843,-3.179774 6.094567,-7.366637 0.106473,-0.13209 0.132891,-0.264981 0.132891,-0.370653 0,-0.132891 -0.05284,-0.238563 -0.07925,-0.264981 l -0.583599,-0.583279 c -0.07925,-0.053 -0.158509,-0.105993 -0.264981,-0.105993 -0.158509,0 -3.736155,0 -3.9483,0 -0.184926,0 -0.317817,0.158989 -0.344235,0.317978 0,0 -0.132091,1.961181 -0.821362,4.107448 -0.689271,2.146268 -1.484215,3.471174 -2.172686,4.451844 0,0 -0.07925,0.13209 -0.07925,0.291399 0,0.05284 0,0.105673 0.02642,0.158509 0.07925,0.185727 0.264982,0.477126 0.264982,0.477126 0,0 0.05284,0.159309 0.291399,0.159309 h 4.557516 m 0.793342,-11.066607 c -0.874197,0 -1.589887,-1.192415 -1.589887,-2.67631 0,-1.483894 0.71569,-2.702808 1.589887,-2.702808 0.874198,0 1.616306,1.218914 1.616306,2.702808 0,1.483895 -0.742108,2.67631 -1.616306,2.67631 m 0.980671,-6.624529 c -1.616305,0 -2.199104,0.476966 -2.570558,0.874437 -0.07925,-0.55646 -0.13209,-0.98043 -0.13209,-1.4044 0,-1.510393 0.529962,-3.471253 2.384831,-3.471253 0.662052,0 1.059924,0.211985 1.324906,0.503464 -0.556381,0.238483 -1.007089,0.953932 -1.007089,1.563389 0,0.953932 0.742107,1.69588 1.695559,1.69588 0.954253,0 1.722778,-0.741948 1.722778,-1.69588 v -0.07949 c 0,-0.238483 -0.05284,-0.635955 -0.159309,-0.84794 -0.344235,-0.953932 -1.456996,-2.3583327 -4.106808,-2.3583327 -2.38483,0 -4.107608,2.2788377 -4.637571,3.4977517 -0.264981,0.635955 -0.662052,1.934363 -0.662052,3.418257 0,1.616385 0.449907,3.444755 2.013376,4.822658 1.537051,1.165917 2.517722,1.218913 3.444756,1.218913 0.927834,0 4.399007,-1.086423 4.399007,-4.160204 0,-2.596816 -2.040595,-3.577246 -3.709736,-3.577246 M 37.732186,81.355387 c 0,2.093431 -1.086342,3.206192 -2.623393,4.425425 l 0.07925,-5.167533 c 0.05284,-0.237762 0.450708,-1.006288 1.510633,-1.006288 0.953452,0 1.033506,0.900616 1.033506,1.456996 v 0.2914 m -0.318617,-3.046884 c -1.324906,0 -2.092631,0.821362 -2.225522,0.97987 l 0.105672,-8.505816 c 0,-0.211344 -0.158508,-0.370653 -0.370653,-0.370653 h -0.317818 c -0.212145,0 -0.371454,0.159309 -0.371454,0.370653 l 0.132891,15.925289 c 0,0.212145 0.159309,0.371454 0.370654,0.371454 0.05364,0 0.159309,-0.02642 0.212145,-0.05284 2.279158,-1.139979 4.663989,-3.312665 4.663989,-6.041731 0,-1.377742 -0.636435,-2.67623 -2.199904,-2.67623 M 30.37195,91.283771 c 0,2.093431 -1.086343,3.206192 -2.623394,4.425426 l 0.07925,-5.167533 c 0.05284,-0.238563 0.450709,-1.007089 1.510633,-1.007089 0.954253,0 1.033507,0.901416 1.033507,1.457797 v 0.291399 m -0.317817,-3.047684 c -1.324906,0 -2.093432,0.821362 -2.226323,0.980671 l 0.106473,-8.505816 c 0,-0.212145 -0.159309,-0.370654 -0.371454,-0.370654 h -0.317817 c -0.212145,0 -0.370654,0.158509 -0.370654,0.370654 l 0.132091,15.925289 c 0,0.212145 0.159309,0.370653 0.371454,0.370653 0.05284,0 0.158508,-0.02642 0.211344,-0.05284 2.279159,-1.139179 4.663989,-3.311864 4.663989,-6.041731 0,-1.377742 -0.635634,-2.67623 -2.199103,-2.67623 m 7.678049,-76.376862 c 0,2.093351 -1.086342,3.206272 -2.623393,4.425185 l 0.07925,-5.167133 c 0.05284,-0.238483 0.450708,-1.006928 1.510633,-1.006928 0.953452,0 1.033506,0.900936 1.033506,1.457396 v 0.29148 M 37.413569,8.8119451 c -1.324906,0 -2.092631,0.8214417 -2.225522,0.9804304 l 0.105672,-8.5058959 c 0,-0.2119849 -0.158508,-0.37097363 -0.370653,-0.37097363 h -0.317818 c -0.212145,0 -0.371454,0.15898873 -0.371454,0.37097363 l 0.132891,15.9253694 c 0,0.211985 0.159309,0.370973 0.370654,0.370973 0.05364,0 0.159309,-0.0265 0.212145,-0.053 2.279158,-1.139419 4.663989,-3.312265 4.663989,-6.041571 0,-1.377902 -0.636435,-2.6763099 -2.199904,-2.6763099 M 30.371954,21.787297 c 0,2.093591 -1.086343,3.206352 -2.623394,4.425586 l 0.07925,-5.167533 c 0.05284,-0.238483 0.450709,-1.006929 1.510633,-1.006929 0.954253,0 1.033507,0.900936 1.033507,1.457397 v 0.291479 m -0.317817,-3.047284 c -1.324906,0 -2.093432,0.821442 -2.226323,0.980431 l 0.106473,-8.505896 c 0,-0.211985 -0.159309,-0.370974 -0.371454,-0.370974 h -0.317817 c -0.212145,0 -0.370654,0.158989 -0.370654,0.370974 l 0.132091,15.925369 c 0,0.212145 0.159309,0.370653 0.371454,0.370653 0.05284,0 0.158508,-0.02642 0.211344,-0.05284 2.279159,-1.139179 4.663989,-3.311864 4.663989,-6.041411 0,-1.377902 -0.635634,-2.67631 -2.199103,-2.67631 M 16.093311,104.42076 c -0.529962,0.10647 -1.033427,0.15931 -1.536891,0.15931 -3.789231,0 -7.0220012,-2.64982 -7.0220012,-6.650951 0,-3.233411 2.2788382,-6.120985 4.6106722,-8.135163 0.450468,-0.397872 0.874438,-0.768525 1.27191,-1.165597 0.238483,1.430579 0.42397,2.67623 0.609457,3.762573 -2.411329,0.714889 -4.0542123,3.259028 -4.0542123,5.749531 0,1.854869 1.4573963,4.399007 3.5772463,4.399007 0.211985,0 0.450468,-0.10567 0.450468,-0.34423 0,-0.23857 -0.264982,-0.37146 -0.582959,-0.5828 -1.033427,-0.63644 -1.616385,-1.32491 -1.616385,-2.623396 0,-1.616306 1.192415,-2.914793 2.755804,-3.286247 l 1.536891,8.717963 M 13.761477,77.180532 c 0.238483,-1.059925 1.457396,-3.841827 2.835298,-3.841827 0.397472,0 1.033427,1.298488 1.033427,3.126938 0,2.755484 -2.040355,4.822498 -3.868725,6.62453 -0.158989,-1.059925 -0.29148,-2.093432 -0.29148,-3.206193 0,-0.98067 0.0795,-1.882086 0.29148,-2.703448 m 6.094567,22.338474 c 0,1.881284 -0.768446,3.815404 -2.649812,4.583934 -0.556461,-3.17977 -1.27191,-7.393055 -1.457397,-8.558652 2.384831,0 4.107209,1.616305 4.107209,3.974718 M 8.1968718,112.55592 c 0,1.7484 1.351404,4.05397 4.9286502,4.05397 1.245411,0 2.331834,-0.31782 3.285766,-0.90061 1.430899,-1.00709 1.801872,-2.75629 1.801872,-4.42543 0,-1.03351 -0.158988,-2.22552 -0.423969,-3.73615 -0.07949,-0.52997 -0.238484,-1.32491 -0.397472,-2.35842 2.596815,-0.84778 4.531178,-3.55042 4.531178,-6.280291 0,-4.001136 -2.835299,-6.703784 -6.704024,-6.703784 -0.264981,-1.589887 -0.529962,-3.153356 -0.768445,-4.63677 2.8088,-2.942012 4.743163,-6.253876 4.743163,-10.467157 0,-2.411249 -0.741948,-4.371789 -1.165917,-5.326042 -0.635955,-1.351324 -1.404401,-2.279158 -1.881367,-2.279158 -0.185487,0 -1.006928,0.318618 -1.881366,1.351324 -1.69588,2.014177 -2.172846,5.406096 -2.172846,7.631618 0,1.431379 0.132491,2.729866 0.582959,5.697495 -0.0265,0.02642 -1.404401,1.430579 -1.960861,1.881287 -2.4113287,2.25194 -5.7500916,5.458132 -5.7500916,10.757755 0,4.955393 4.3191932,8.850853 9.2478436,8.850853 0.768445,0 1.483894,-0.0793 2.093351,-0.18573 0.503464,2.54414 0.794943,4.39901 0.794943,5.80317 0,2.75548 -1.4044,4.21328 -4.08071,4.21328 -0.635955,0 -1.192415,-0.13289 -1.245411,-0.13289 -0.0265,-0.0264 -0.07949,-0.0528 -0.07949,-0.0793 0,-0.0528 0.053,-0.0793 0.132491,-0.10568 1.245412,-0.18572 2.490823,-1.24565 2.490823,-2.94121 0,-1.43138 -1.086423,-2.94121 -3.073782,-2.94121 -1.8548679,0 -3.0472832,1.50983 -3.0472832,3.25903 M 16.093311,34.924439 c -0.529962,0.106473 -1.033427,0.159309 -1.536891,0.159309 -3.789231,0 -7.0220012,-2.649811 -7.0220012,-6.650947 0,-3.233411 2.2788382,-6.121386 4.6106722,-8.135243 0.450468,-0.397471 0.874438,-0.768445 1.27191,-1.165917 0.238483,1.430899 0.42397,2.67631 0.609457,3.762733 -2.411329,0.715129 -4.0542123,3.259268 -4.0542123,5.749771 0,1.854869 1.4573963,4.399008 3.5772463,4.399008 0.211985,0 0.450468,-0.105672 0.450468,-0.344235 0,-0.238563 -0.264982,-0.371454 -0.582959,-0.582799 -1.033427,-0.636435 -1.616385,-1.324906 -1.616385,-2.623393 0,-1.616306 1.192415,-2.914793 2.755804,-3.286247 l 1.536891,8.71796 M 13.761477,7.6844542 c 0.238483,-1.0599247 1.457396,-3.8422271 2.835298,-3.8422271 0.397472,0 1.033427,1.2984078 1.033427,3.1267779 0,2.7558043 -2.040355,4.822658 -3.868725,6.62453 -0.158989,-1.059925 -0.29148,-2.093352 -0.29148,-3.206273 0,-0.9804301 0.0795,-1.8813661 0.29148,-2.7028078 m 6.094567,22.3382338 c 0,1.881286 -0.768446,3.815409 -2.649812,4.583934 -0.556461,-3.179774 -1.27191,-7.393055 -1.457397,-8.558652 2.384831,0 4.107209,1.616305 4.107209,3.974718 M 8.1968718,43.059602 c 0,1.748395 1.351404,4.053972 4.9286502,4.053972 1.245411,0 2.331834,-0.317818 3.285766,-0.900616 1.430899,-1.007089 1.801872,-2.756285 1.801872,-4.425426 0,-1.033507 -0.158988,-2.225522 -0.423969,-3.736154 -0.07949,-0.529963 -0.238484,-1.324906 -0.397472,-2.358413 2.596815,-0.84778 4.531178,-3.550428 4.531178,-6.280294 0,-4.001136 -2.835299,-6.703784 -6.704024,-6.703784 -0.264981,-1.589887 -0.529962,-3.153276 -0.768445,-4.637171 2.8088,-2.941291 4.743163,-6.253555 4.743163,-10.4667561 0,-2.4113288 -0.741948,-4.3721895 -1.165917,-5.3261218 C 17.391719,0.92743413 16.623273,0 16.146307,0 15.96082,0 15.139379,0.31797742 14.264941,1.351404 c -1.69588,2.013857 -2.172846,5.4056161 -2.172846,7.631458 0,1.430898 0.132491,2.729306 0.582959,5.697095 -0.0265,0.0265 -1.404401,1.430899 -1.960861,1.881367 -2.4113287,2.25234 -5.7500916,5.458612 -5.7500916,10.757915 0,4.955389 4.3191932,8.850852 9.2478436,8.850852 0.768445,0 1.483894,-0.07925 2.093351,-0.185727 0.503464,2.54414 0.794943,4.399008 0.794943,5.803168 0,2.755484 -1.4044,4.213281 -4.08071,4.213281 -0.635955,0 -1.192415,-0.132891 -1.245411,-0.132891 -0.0265,-0.02642 -0.07949,-0.05284 -0.07949,-0.07925 0,-0.05284 0.053,-0.07925 0.132491,-0.105672 1.245412,-0.185727 2.490823,-1.245652 2.490823,-2.941211 0,-1.431379 -1.086423,-2.941211 -3.073782,-2.941211 -1.8548679,0 -3.0472832,1.509832 -3.0472832,3.259028 M 659.25635,14.032074 c 0,1.139419 0.82136,2.411329 2.96763,2.411329 2.75548,0 5.64386,-2.25234 5.64386,-4.584174 0,-1.563389 -1.32491,-2.4378271 -2.96763,-2.4378271 -2.57056,0 -5.64386,2.1728461 -5.64386,4.6106721 M 506.67202,90.146998 c 0,1.139179 0.82136,2.411248 2.96763,2.411248 2.75628,0 5.64466,-2.251939 5.64466,-4.583934 0,-1.563469 -1.32491,-2.437667 -2.96843,-2.437667 -2.56976,0 -5.64386,2.172686 -5.64386,4.610353 M 203.57998,23.960143 c 0,1.139179 0.82136,2.411248 2.96763,2.411248 2.75629,0 5.64386,-2.251939 5.64386,-4.584094 0,-1.563389 -1.32491,-2.437827 -2.96763,-2.437827 -2.56976,0 -5.64386,2.172846 -5.64386,4.610673 m 30.82908,3.309463 c 0,1.139178 0.82136,2.411248 2.96763,2.411248 2.75628,0 5.64466,-2.25274 5.64466,-4.583934 0,-1.563469 -1.32491,-2.438067 -2.96843,-2.438067 -2.56976,0 -5.64386,2.173086 -5.64386,4.610753 m 308.22835,69.496317 c 0,1.139179 0.82136,2.411249 2.96763,2.411249 2.75628,0 5.64466,-2.25274 5.64466,-4.583934 0,-1.563469 -1.32491,-2.438467 -2.96763,-2.438467 -2.57056,0 -5.64466,2.173486 -5.64466,4.611152 m -81.39565,-3.309462 c 0,1.139179 0.82136,2.411248 2.96763,2.411248 2.75628,0 5.64466,-2.251939 5.64466,-4.583934 0,-1.563469 -1.32491,-2.437667 -2.96843,-2.437667 -2.56976,0 -5.64386,2.172686 -5.64386,4.610353 M 265.23814,30.579068 c 0,1.139179 0.82136,2.411249 2.96763,2.411249 2.75628,0 5.64466,-2.25274 5.64466,-4.583934 0,-1.563469 -1.32491,-2.438468 -2.96843,-2.438468 -2.56976,0 -5.64386,2.173487 -5.64386,4.611153 m 160.03823,66.186855 c 0,1.139179 0.82136,2.411249 2.96762,2.411249 2.75629,0 5.64466,-2.25274 5.64466,-4.583934 0,-1.563469 -1.3249,-2.438467 -2.96843,-2.438467 -2.56975,0 -5.64385,2.173486 -5.64385,4.611152 M 305.53209,27.269606 c 0,1.139178 0.82136,2.411248 2.96763,2.411248 2.75628,0 5.64466,-2.25274 5.64466,-4.583934 0,-1.563469 -1.32491,-2.438067 -2.96843,-2.438067 -2.56976,0 -5.64386,2.173086 -5.64386,4.610753 m 83.77888,72.805784 c 0,1.13918 0.82137,2.41124 2.96763,2.41124 2.75549,0 5.64386,-2.25274 5.64386,-4.583929 0,-1.563469 -1.3249,-2.438468 -2.96763,-2.438468 -2.57055,0 -5.64386,2.173487 -5.64386,4.611157 m -52.9498,-69.496322 c 0,1.139179 0.82136,2.411249 2.96763,2.411249 2.75628,0 5.64466,-2.25274 5.64466,-4.583934 0,-1.563469 -1.32491,-2.438468 -2.96763,-2.438468 -2.57056,0 -5.64466,2.173487 -5.64466,4.611153 m 16.98441,72.805782 c 0,1.13918 0.82136,2.41125 2.96763,2.41125 2.75549,0 5.64386,-2.25274 5.64386,-4.58474 0,-1.562665 -1.3249,-2.437664 -2.96763,-2.437664 -2.57056,0 -5.64386,2.172684 -5.64386,4.611154 m 13.84467,-69.496319 c 0,1.139179 0.82136,2.411249 2.96843,2.411249 2.75548,0 5.64386,-2.25274 5.64386,-4.584735 0,-1.563469 -1.32491,-2.437667 -2.96763,-2.437667 -2.57056,0 -5.64466,2.172686 -5.64466,4.611153 m -49.81006,62.877392 c 0,1.139179 0.82136,2.411249 2.96763,2.411249 2.75549,0 5.64386,-2.25274 5.64386,-4.583934 0,-1.563469 -1.32491,-2.438467 -2.96763,-2.438467 -2.57056,0 -5.64386,2.173486 -5.64386,4.611152 m 80.63914,-72.80578 c 0,1.139179 0.82216,2.411248 2.96843,2.411248 2.75548,0 5.64386,-2.251939 5.64386,-4.584094 0,-1.563389 -1.32491,-2.437827 -2.96763,-2.437827 -2.57056,0 -5.64466,2.172846 -5.64466,4.610673 M 281.414,90.146998 c 0,1.139179 0.82216,2.411248 2.96843,2.411248 2.75548,0 5.64386,-2.251939 5.64386,-4.583934 0,-1.563469 -1.32491,-2.437667 -2.96763,-2.437667 -2.57056,0 -5.64466,2.172686 -5.64466,4.610353 M 428.84921,27.269606 c 0,1.139178 0.82136,2.411248 2.96763,2.411248 2.75548,0 5.64386,-2.25274 5.64386,-4.583934 0,-1.563469 -1.32491,-2.438067 -2.96763,-2.438067 -2.57056,0 -5.64386,2.173086 -5.64386,4.610753 m 30.82908,-3.309463 c 0,1.139179 0.82136,2.411248 2.96763,2.411248 2.75548,0 5.64386,-2.251939 5.64386,-4.584094 0,-1.563389 -1.32491,-2.437827 -2.96763,-2.437827 -2.57056,0 -5.64386,2.172846 -5.64386,4.610673 M 141.92182,20.65076 c 0,1.139419 0.82136,2.411329 2.96763,2.411329 2.75549,0 5.64386,-2.25234 5.64386,-4.584175 0,-1.563389 -1.32491,-2.437827 -2.96763,-2.437827 -2.57056,0 -5.64386,2.172846 -5.64386,4.610673 m 94.06192,72.805701 c 0,1.139179 0.82216,2.411248 2.96843,2.411248 2.75548,0 5.64386,-2.251939 5.64386,-4.583934 0,-1.563469 -1.32491,-2.437667 -2.96763,-2.437667 -2.57056,0 -5.64466,2.172686 -5.64466,4.610353 M 70.798796,33.888531 c 0,1.139179 0.821361,2.411249 2.967629,2.411249 2.755484,0 5.643859,-2.25274 5.643859,-4.584735 0,-1.563469 -1.324906,-2.437667 -2.967629,-2.437667 -2.570558,0 -5.643859,2.172686 -5.643859,4.611153 M 200.01835,86.837535 c 0,1.139979 0.82136,2.411249 2.96843,2.411249 2.75548,0 5.64385,-2.25194 5.64385,-4.583935 0,-1.563469 -1.3249,-2.437666 -2.96762,-2.437666 -2.57056,0 -5.64466,2.172685 -5.64466,4.610352 M 499.97224,20.65076 c 0,1.139419 0.82136,2.411329 2.96763,2.411329 2.75548,0 5.64386,-2.25234 5.64386,-4.584175 0,-1.563389 -1.32491,-2.437827 -2.96763,-2.437827 -2.57056,0 -5.64386,2.172846 -5.64386,4.610673 M 164.05295,80.21941 c 0,1.139179 0.82137,2.411249 2.96763,2.411249 2.75629,0 5.64466,-2.252741 5.64466,-4.584735 0,-1.563469 -1.3249,-2.437667 -2.96843,-2.437667 -2.56975,0 -5.64386,2.172686 -5.64386,4.611153 M 530.80132,23.960143 c 0,1.139179 0.82136,2.411248 2.96763,2.411248 2.75548,0 5.64386,-2.251939 5.64386,-4.584094 0,-1.563389 -1.32491,-2.437827 -2.96763,-2.437827 -2.57056,0 -5.64386,2.172846 -5.64386,4.610673 M 128.08756,80.21941 c 0,1.139179 0.82137,2.411249 2.96763,2.411249 2.75629,0 5.64466,-2.252741 5.64466,-4.584735 0,-1.563469 -1.3249,-2.437667 -2.96843,-2.437667 -2.56975,0 -5.64386,2.172686 -5.64386,4.611153 M 561.6304,20.65076 c 0,1.139419 0.82136,2.411329 2.96763,2.411329 2.75548,0 5.64386,-2.25234 5.64386,-4.584175 0,-1.563389 -1.32491,-2.437827 -2.96763,-2.437827 -2.57056,0 -5.64386,2.172846 -5.64386,4.610673 M 92.122172,76.909947 c 0,1.139179 0.821362,2.411249 2.967629,2.411249 2.755484,0 5.643859,-2.252741 5.643859,-4.583935 0,-1.563469 -1.324906,-2.438467 -2.967629,-2.438467 -2.570557,0 -5.643859,2.173486 -5.643859,4.611153 M 594.44644,18.507374 c -0.8742,0 -1.05993,-0.715449 -1.05993,-0.953932 0,-1.298408 4.45184,-3.577246 5.6975,-3.577246 0.63563,0 1.05992,0.370974 1.05992,0.953932 0,1.324906 -4.47826,3.577246 -5.69749,3.577246 m 3.6569,-5.776589 c -2.56976,0 -5.64386,2.146347 -5.64386,4.610672 0,1.139419 0.82136,2.411329 2.96763,2.411329 2.75628,0 5.64385,-2.25234 5.64385,-4.584175 0,-1.563388 -1.3249,-2.437826 -2.96762,-2.437826 M 56.156784,80.21941 c 0,1.139179 0.821362,2.411249 2.967629,2.411249 2.755484,0 5.643859,-2.252741 5.643859,-4.584735 0,-1.563469 -1.324906,-2.437667 -2.967629,-2.437667 -2.570557,0 -5.643859,2.172686 -5.643859,4.611153 M 578.6028,103.38485 c 0,1.13918 0.82216,2.41125 2.96843,2.41125 2.75549,0 5.64386,-2.25274 5.64386,-4.58474 0,-1.562665 -1.32491,-2.437664 -2.96763,-2.437664 -2.57056,0 -5.64466,2.172684 -5.64466,4.611154 M 111.09274,23.960143 c 0,1.139179 0.82136,2.411248 2.96763,2.411248 2.75549,0 5.64386,-2.251939 5.64386,-4.584094 0,-1.563389 -1.3249,-2.437827 -2.96763,-2.437827 -2.57056,0 -5.64386,2.172846 -5.64386,4.610673 m 505.46321,70.661915 c -0.8742,0 -1.05992,-0.714889 -1.05992,-0.953452 0,-1.298488 4.45184,-3.577647 5.69749,-3.577647 0.63564,0 1.05993,0.371454 1.05993,0.954253 0,1.324906 -4.47826,3.576846 -5.6975,3.576846 m 3.6569,-5.77595 c -2.57055,0 -5.64386,2.146268 -5.64386,4.610353 0,1.139179 0.82137,2.411248 2.96763,2.411248 2.75549,0 5.64386,-2.251939 5.64386,-4.583934 0,-1.563469 -1.3249,-2.437667 -2.96763,-2.437667 M 172.7509,23.960143 c 0,1.139179 0.82136,2.411248 2.96763,2.411248 2.75549,0 5.64386,-2.251939 5.64386,-4.584094 0,-1.563389 -1.32491,-2.437827 -2.96763,-2.437827 -2.57056,0 -5.64386,2.172846 -5.64386,4.610673 m 465.9522,-6.618686 c 0,1.139419 0.82136,2.411329 2.96762,2.411329 2.75629,0 5.64466,-2.25234 5.64466,-4.584175 0,-1.563388 -1.3249,-2.437826 -2.96843,-2.437826 -2.56975,0 -5.64385,2.172845 -5.64385,4.610672 m -132.03073,72.8047 v 20.398783 h 0.66217 V 90.146157 Z M 659.25592,14.031141 v 20.424906 h 0.66201 V 14.031141 Z M 56.156368,80.217801 v 22.053519 h 0.662013 V 80.217801 Z M 78.740554,9.6098371 V 31.71667 h 0.662173 V 9.6098371 Z M 638.70342,17.340435 v 18.71842 h 0.66218 V 17.340435 Z M 92.121732,76.90913 v 22.053519 h 0.662021 V 76.90913 Z M 592.45915,17.340435 v 22.053517 h 0.66202 V 17.340435 Z M 128.08711,80.217801 v 22.053519 h 0.66217 V 80.217801 Z M 561.62995,20.649729 v 20.398946 h 0.66217 V 20.649729 Z M 164.05342,80.217801 v 22.053519 h 0.66201 V 80.217801 Z M 530.8009,23.959334 v 18.744064 h 0.66201 V 23.959334 Z M 200.01879,86.836702 v 22.053518 h 0.66202 V 86.836702 Z M 499.97185,20.649729 v 20.398946 h 0.66202 V 20.649729 Z m 114.59679,72.805875 v 18.744066 h 0.66202 V 93.455604 Z m -378.58448,0 v 18.744066 h 0.66201 V 93.455604 Z M 141.92141,20.649729 v 20.398946 h 0.66202 V 20.649729 Z m 317.75649,3.309605 v 18.744064 h 0.66201 V 23.959334 Z M 281.41444,90.146157 v 20.398783 h 0.66202 V 90.146157 Z M 436.791,4.6458182 V 25.097769 h 0.66216 V 4.6458182 Z M 325.32197,74.142399 v 20.451639 h 0.66217 V 74.142399 Z m 261.22345,4.963393 v 22.107148 h 0.66202 V 79.105792 Z m -225.25808,0 v 22.107148 h 0.66217 V 79.105792 Z M 375.1329,9.6098371 V 31.71667 h 0.66202 V 9.6098371 Z m 22.12075,66.1872849 v 22.106363 h 0.66202 V 75.797122 Z M 344.30385,6.3005432 V 28.407223 h 0.66202 V 6.3005432 Z m 88.91517,67.8418558 v 20.451639 h 0.66201 V 74.142399 Z M 313.47465,4.6458182 V 25.097769 h 0.66216 V 4.6458182 Z M 172.75046,23.959334 v 18.744064 h 0.66217 V 23.959334 Z m 377.82959,50.183065 v 20.451639 h 0.66201 V 74.142399 Z m -89.33796,19.313205 v 18.744066 h 0.66217 V 93.455604 Z M 273.18084,6.3005432 V 28.407223 h 0.66202 V 6.3005432 Z M 203.57951,23.959334 v 18.744064 h 0.66216 V 23.959334 Z M 242.35164,4.6458182 V 25.097769 h 0.66218 V 4.6458182 Z M 111.09236,23.959334 v 18.744064 h 0.66202 V 23.959334 Z m 286.92744,0 v 18.744064 h 0.66201 V 23.959334 Z M 101.62792,9.2458378 V 36.448658 h 1.19113 V 9.2458378 Z m 388.87949,0 V 36.448658 h 1.19113 V 9.2458378 Z M 677.35954,78.742416 v 27.202514 h 3.64015 V 78.742416 Z m -3.63967,0 V 105.94493 H 674.911 V 78.742416 Z m -2.44731,16.910747 c 0,-0.768526 -0.60921,-1.404961 -1.37774,-1.404961 -0.76852,0 -1.37774,0.636435 -1.37774,1.404961 0,0.768525 0.60922,1.40416 1.37774,1.40416 0.76853,0 1.37774,-0.635635 1.37774,-1.40416 m 0,-6.618926 c 0,-0.768526 -0.60921,-1.40416 -1.37774,-1.40416 -0.76852,0 -1.37774,0.635634 -1.37774,1.40416 0,0.768525 0.60922,1.40416 1.37774,1.40416 0.76853,0 1.37774,-0.635635 1.37774,-1.40416 M 679.80887,9.2458378 V 36.448658 H 681 V 9.2458378 Z M 271.95,78.742416 v 27.202514 h 1.19113 V 78.742416 Z m 225.25715,0 v 27.202514 h 1.19128 V 78.742416 Z M 296.06728,9.2458378 V 36.448658 h 1.19112 V 9.2458378 Z M 0,105.21693 v 0.72769 h 681 v -0.72769 z m 0,-6.618121 v 0.727681 h 681 v -0.727681 z m 0,-6.618902 v 0.727682 h 681 v -0.727682 z m 0,-6.619054 v 0.727842 h 681 v -0.727842 z m 0,-6.618901 v 0.727681 H 681 V 78.741952 Z M 0,35.720656 v 0.727689 h 681 v -0.727689 z m 0,-6.618269 v 0.727841 h 681 v -0.727841 z m 0,-6.61906 v 0.727685 h 681 v -0.727685 z m 0,-6.618588 v 0.727684 H 681 V 15.864739 Z M 0,9.2459947 V 9.9736795 H 681 V 9.2459947 Z"
     style="stroke-width:0.0800547" />
  <metadata
     id="metadata96">
    <rdf:RDF>
      <cc:Work
         rdf:about="">
        <dc:title>air_XXXIV</dc:title>
      </cc:Work>
    </rdf:RDF>
  </metadata>
</svg>
