<?xml version="1.0" encoding="UTF-8" standalone="no"?>
<svg width="210.058mm" height="296.926mm" viewBox="0 0 9924 14028"
 xmlns="http://www.w3.org/2000/svg" xmlns:xlink="http://www.w3.org/1999/xlink" version="1.2" baseProfile="full">
<title>air_LI</title>
<desc>Generated by MuseScore Studio 4.7.3</desc>
<polyline class="StaffLines" fill="none" stroke="#000000" stroke-width="9.09" stroke-linejoin="bevel" points="708.661,828.424 9215.34,828.424" />
<polyline class="StaffLines" fill="none" stroke="#000000" stroke-width="9.09" stroke-linejoin="bevel" points="708.661,911.101 9215.34,911.101" />
<polyline class="StaffLines" fill="none" stroke="#000000" stroke-width="9.09" stroke-linejoin="bevel" points="708.661,993.778 9215.34,993.778" />
<polyline class="StaffLines" fill="none" stroke="#000000" stroke-width="9.09" stroke-linejoin="bevel" points="708.661,1076.46 9215.34,1076.46" />
<polyline class="StaffLines" fill="none" stroke="#000000" stroke-width="9.09" stroke-linejoin="bevel" points="708.661,1159.13 9215.34,1159.13" />
<polyline class="StaffLines" fill="none" stroke="#000000" stroke-width="9.09" stroke-linejoin="bevel" points="708.661,1696.53 9215.34,1696.53" />
<polyline class="StaffLines" fill="none" stroke="#000000" stroke-width="9.09" stroke-linejoin="bevel" points="708.661,1779.21 9215.34,1779.21" />
<polyline class="StaffLines" fill="none" stroke="#000000" stroke-width="9.09" stroke-linejoin="bevel" points="708.661,1861.89 9215.34,1861.89" />
<polyline class="StaffLines" fill="none" stroke="#000000" stroke-width="9.09" stroke-linejoin="bevel" points="708.661,1944.57 9215.34,1944.57" />
<polyline class="StaffLines" fill="none" stroke="#000000" stroke-width="9.09" stroke-linejoin="bevel" points="708.661,2027.24 9215.34,2027.24" />
<polyline class="StaffLines" fill="none" stroke="#000000" stroke-width="9.09" stroke-linejoin="bevel" points="708.661,2564.64 9215.34,2564.64" />
<polyline class="StaffLines" fill="none" stroke="#000000" stroke-width="9.09" stroke-linejoin="bevel" points="708.661,2647.32 9215.34,2647.32" />
<polyline class="StaffLines" fill="none" stroke="#000000" stroke-width="9.09" stroke-linejoin="bevel" points="708.661,2730 9215.34,2730" />
<polyline class="StaffLines" fill="none" stroke="#000000" stroke-width="9.09" stroke-linejoin="bevel" points="708.661,2812.68 9215.34,2812.68" />
<polyline class="StaffLines" fill="none" stroke="#000000" stroke-width="9.09" stroke-linejoin="bevel" points="708.661,2895.35 9215.34,2895.35" />
<polyline class="BarLine" fill="none" stroke="#000000" stroke-width="14.88" stroke-linejoin="bevel" points="5387.87,2560.1 5387.87,2899.9" />
<polyline class="BarLine" fill="none" stroke="#000000" stroke-width="14.88" stroke-linejoin="bevel" points="7909.03,823.876 7909.03,1163.68" />
<polyline class="BarLine" fill="none" stroke="#000000" stroke-width="14.88" stroke-linejoin="bevel" points="9207.9,823.876 9207.9,1163.68" />
<polyline class="BarLine" fill="none" stroke="#000000" stroke-width="14.88" stroke-linejoin="bevel" points="5540.59,823.876 5540.59,1163.68" />
<polyline class="BarLine" fill="none" stroke="#000000" stroke-width="14.88" stroke-linejoin="bevel" points="2623.64,1691.99 2623.64,2031.79" />
<polyline class="BarLine" fill="none" stroke="#000000" stroke-width="14.88" stroke-linejoin="bevel" points="3749.89,1691.99 3749.89,2031.79" />
<polyline class="BarLine" fill="none" stroke="#000000" stroke-width="14.88" stroke-linejoin="bevel" points="1641.77,823.876 1641.77,1163.68" />
<polyline class="BarLine" fill="none" stroke="#000000" stroke-width="14.88" stroke-linejoin="bevel" points="5022.24,1691.99 5022.24,2031.79" />
<polyline class="BarLine" fill="none" stroke="#000000" stroke-width="14.88" stroke-linejoin="bevel" points="4204.09,823.876 4204.09,1163.68" />
<polyline class="BarLine" fill="none" stroke="#000000" stroke-width="14.88" stroke-linejoin="bevel" points="6425.96,1691.99 6425.96,2031.79" />
<polyline class="BarLine" fill="none" stroke="#000000" stroke-width="14.88" stroke-linejoin="bevel" points="7836.65,1691.99 7836.65,2031.79" />
<polyline class="BarLine" fill="none" stroke="#000000" stroke-width="14.88" stroke-linejoin="bevel" points="9131.84,2560.1 9131.84,2899.9" />
<polyline class="BarLine" fill="none" stroke="#000000" stroke-width="45.47" stroke-linejoin="bevel" points="9192.6,2560.1 9192.6,2899.9" />
<polyline class="BarLine" fill="none" stroke="#000000" stroke-width="14.88" stroke-linejoin="bevel" points="9207.9,1691.99 9207.9,2031.79" />
<polyline class="BarLine" fill="none" stroke="#000000" stroke-width="14.88" stroke-linejoin="bevel" points="6645.58,823.876 6645.58,1163.68" />
<polyline class="BarLine" fill="none" stroke="#000000" stroke-width="14.88" stroke-linejoin="bevel" points="2905.22,823.876 2905.22,1163.68" />
<polyline class="BarLine" fill="none" stroke="#000000" stroke-width="14.88" stroke-linejoin="bevel" points="3317.7,2560.1 3317.7,2899.9" />
<polyline class="BarLine" fill="none" stroke="#000000" stroke-width="14.88" stroke-linejoin="bevel" points="7768.74,2560.1 7768.74,2899.9" />
<path class="SlurSegment" stroke="#000000" stroke-width="4.13" stroke-linecap="round" stroke-linejoin="round" fill-rule="evenodd" d="M1242.79,2845.75 C1298.14,2926.19 1439.56,2960.5 1525.62,2914.37 C1433.69,2984.67 1292.28,2950.36 1242.79,2845.75"/>
<path class="SlurSegment" stroke="#000000" stroke-width="4.13" stroke-linecap="round" stroke-linejoin="round" fill-rule="evenodd" d="M6118.07,2614.25 C6214.18,2548.01 6355.6,2589.35 6400.9,2696.93 C6348.58,2613.36 6207.16,2572.02 6118.07,2614.25"/>
<path class="SlurSegment" stroke="#000000" stroke-width="4.13" stroke-linecap="round" stroke-linejoin="round" fill-rule="evenodd" d="M2798.35,2914.37 C2856.6,2991.81 2998.01,3019.51 3081.18,2969.76 C2993.26,3043.8 2851.84,3016.11 2798.35,2914.37"/>
<path class="SlurSegment" stroke="#000000" stroke-width="4.13" stroke-linecap="round" stroke-linejoin="round" fill-rule="evenodd" d="M1242.79,1828.82 C1258.66,1744.87 1344.06,1710.56 1413.6,1760.2 C1351.74,1729.67 1266.33,1763.98 1242.79,1828.82"/>
<path class="SlurSegment" stroke="#000000" stroke-width="4.13" stroke-linecap="round" stroke-linejoin="round" fill-rule="evenodd" d="M1926.02,1663.46 C1974.42,1597.65 2059.83,1604.68 2096.82,1677.52 C2058.18,1624.69 1972.78,1617.67 1926.02,1663.46"/>
<path class="SlurSegment" stroke="#000000" stroke-width="4.13" stroke-linecap="round" stroke-linejoin="round" fill-rule="evenodd" d="M2267.63,1746.14 C2316.04,1680.33 2401.44,1687.36 2438.44,1760.2 C2399.79,1707.37 2314.39,1700.34 2267.63,1746.14"/>
<path class="SlurSegment" stroke="#000000" stroke-width="4.13" stroke-linecap="round" stroke-linejoin="round" fill-rule="evenodd" d="M7249.38,2914.37 C7307.63,2991.81 7449.05,3019.51 7532.21,2969.76 C7444.29,3043.8 7302.88,3016.11 7249.38,2914.37"/>
<path class="SlurSegment" stroke="#000000" stroke-width="4.13" stroke-linecap="round" stroke-linejoin="round" fill-rule="evenodd" d="M5186.78,1677.52 C5261.3,1632.45 5346.7,1673.78 5357.58,1760.2 C5337.63,1692.52 5252.23,1651.19 5186.78,1677.52"/>
<path class="SlurSegment" stroke="#000000" stroke-width="4.13" stroke-linecap="round" stroke-linejoin="round" fill-rule="evenodd" d="M3482.23,2914.37 C3540.49,2991.81 3681.9,3019.51 3765.06,2969.76 C3677.14,3043.8 3535.73,3016.11 3482.23,2914.37"/>
<path class="SlurSegment" stroke="#000000" stroke-width="4.13" stroke-linecap="round" stroke-linejoin="round" fill-rule="evenodd" d="M5528.39,1828.82 C5544.26,1744.87 5629.66,1710.56 5699.2,1760.2 C5637.34,1729.67 5551.93,1763.98 5528.39,1828.82"/>
<path class="SlurSegment" stroke="#000000" stroke-width="4.13" stroke-linecap="round" stroke-linejoin="round" fill-rule="evenodd" d="M4047.89,2914.37 C4133.96,2960.5 4275.37,2926.19 4330.72,2845.75 C4281.23,2950.36 4139.82,2984.67 4047.89,2914.37"/>
<path class="SlurSegment" stroke="#000000" stroke-width="4.13" stroke-linecap="round" stroke-linejoin="round" fill-rule="evenodd" d="M1584.4,1746.14 C1600.27,1662.2 1685.68,1627.88 1755.21,1677.52 C1693.35,1646.99 1607.95,1681.3 1584.4,1746.14"/>
<path class="SlurSegment" stroke="#000000" stroke-width="4.13" stroke-linecap="round" stroke-linejoin="round" fill-rule="evenodd" d="M6683.73,2914.37 C6769.79,2960.5 6911.2,2926.19 6966.55,2845.75 C6917.07,2950.36 6775.65,2984.67 6683.73,2914.37"/>
<path class="SlurSegment" stroke="#000000" stroke-width="4.13" stroke-linecap="round" stroke-linejoin="round" fill-rule="evenodd" d="M7139.03,2046.26 C7166.08,2108.35 7251.49,2136.05 7309.83,2101.65 C7245.19,2155.46 7159.79,2127.77 7139.03,2046.26"/>
<path class="SlurSegment" stroke="#000000" stroke-width="4.13" stroke-linecap="round" stroke-linejoin="round" fill-rule="evenodd" d="M8324.38,809.408 C8393.27,760.556 8476.87,794.867 8491.58,878.03 C8469.1,813.793 8385.5,779.482 8324.38,809.408"/>
<path class="SlurSegment" stroke="#000000" stroke-width="4.13" stroke-linecap="round" stroke-linejoin="round" fill-rule="evenodd" d="M7060.92,1274.88 C7090.82,1333.37 7174.42,1354.04 7228.13,1316.22 C7169.59,1373.57 7085.99,1352.9 7060.92,1274.88"/>
<path class="SlurSegment" stroke="#000000" stroke-width="4.13" stroke-linecap="round" stroke-linejoin="round" fill-rule="evenodd" d="M5188.18,1233.54 C5245.77,1267.35 5329.37,1239.65 5355.38,1178.15 C5335.75,1258.9 5252.14,1286.59 5188.18,1233.54"/>
<path class="SlurSegment" stroke="#000000" stroke-width="4.13" stroke-linecap="round" stroke-linejoin="round" fill-rule="evenodd" d="M4853.77,1109.53 C4876.25,1173.76 4959.85,1208.07 5020.97,1178.15 C4952.08,1227 4868.48,1192.69 4853.77,1109.53"/>
<path class="SlurSegment" stroke="#000000" stroke-width="4.13" stroke-linecap="round" stroke-linejoin="round" fill-rule="evenodd" d="M3320.56,809.408 C3389.45,760.556 3473.05,794.867 3487.77,878.03 C3465.29,813.793 3381.68,779.482 3320.56,809.408"/>
<path class="SlurSegment" stroke="#000000" stroke-width="4.13" stroke-linecap="round" stroke-linejoin="round" fill-rule="evenodd" d="M2057.11,1274.88 C2087.01,1333.37 2170.61,1354.04 2224.32,1316.22 C2165.78,1373.57 2082.18,1352.9 2057.11,1274.88"/>
<path class="SlurSegment" stroke="#000000" stroke-width="4.13" stroke-linecap="round" stroke-linejoin="round" fill-rule="evenodd" d="M5552.41,2531.57 C5627.52,2446.41 5768.94,2453.44 5835.24,2545.63 C5767.72,2477.97 5626.3,2470.94 5552.41,2531.57"/>
<path class="SlurSegment" stroke="#000000" stroke-width="4.13" stroke-linecap="round" stroke-linejoin="round" fill-rule="evenodd" d="M7480.64,2142.99 C7535.14,2181.39 7620.54,2160.72 7651.45,2101.65 C7625.31,2180.41 7539.9,2201.08 7480.64,2142.99"/>
<path class="SlurSegment" stroke="#000000" stroke-width="4.13" stroke-linecap="round" stroke-linejoin="round" fill-rule="evenodd" d="M1808.45,2845.75 C1949.86,2940.65 2232.69,2940.65 2374.1,2845.75 C2232.69,2967.1 1949.86,2967.1 1808.45,2845.75"/>
<polyline class="LedgerLine" fill="none" stroke="#000000" stroke-width="13.23" stroke-linejoin="bevel" points="2143.29,1241.81 2305.35,1241.81" />
<polyline class="LedgerLine" fill="none" stroke="#000000" stroke-width="13.23" stroke-linejoin="bevel" points="8390.04,2978.03 8552.1,2978.03" />
<polyline class="LedgerLine" fill="none" stroke="#000000" stroke-width="13.23" stroke-linejoin="bevel" points="7147.1,1241.81 7309.16,1241.81" />
<polyline class="LedgerLine" fill="none" stroke="#000000" stroke-width="13.23" stroke-linejoin="bevel" points="8672.87,2978.03 8834.93,2978.03" />
<polyline class="Stem" fill="none" stroke="#000000" stroke-width="8.27" stroke-linejoin="bevel" points="4391.04,1931.34 4391.04,1696.06" />
<polyline class="Stem" fill="none" stroke="#000000" stroke-width="8.27" stroke-linejoin="bevel" points="4418.22,1021.89 4418.22,766.416" />
<polyline class="Stem" fill="none" stroke="#000000" stroke-width="8.27" stroke-linejoin="bevel" points="1486.86,1063.23 1486.86,787.085" />
<polyline class="Stem" fill="none" stroke="#000000" stroke-width="8.27" stroke-linejoin="bevel" points="6490.68,1063.23 6490.68,787.085" />
<polyline class="Stem" fill="none" stroke="#000000" stroke-width="8.27" stroke-linejoin="bevel" points="1855.9,1145.9 1855.9,869.762" />
<polyline class="Stem" fill="none" stroke="#000000" stroke-width="8.27" stroke-linejoin="bevel" points="2106.71,1187.24 2106.71,973.596" />
<polyline class="Stem" fill="none" stroke="#000000" stroke-width="8.27" stroke-linejoin="bevel" points="5973.45,1007.67 5973.45,1262.15" />
<polyline class="Stem" fill="none" stroke="#000000" stroke-width="8.27" stroke-linejoin="bevel" points="6859.72,1145.9 6859.72,869.762" />
<polyline class="Stem" fill="none" stroke="#000000" stroke-width="8.27" stroke-linejoin="bevel" points="8803.5,2964.8 8803.5,2688.66" />
<polyline class="Stem" fill="none" stroke="#000000" stroke-width="8.27" stroke-linejoin="bevel" points="7110.52,1187.24 7110.52,973.596" />
<polyline class="Stem" fill="none" stroke="#000000" stroke-width="8.27" stroke-linejoin="bevel" points="2273.92,1228.58 2273.92,993.291" />
<polyline class="Stem" fill="none" stroke="#000000" stroke-width="8.27" stroke-linejoin="bevel" points="8520.67,2964.8 8520.67,2689.32" />
<polyline class="Stem" fill="none" stroke="#000000" stroke-width="8.27" stroke-linejoin="bevel" points="7277.73,1228.58 7277.73,993.291" />
<polyline class="Stem" fill="none" stroke="#000000" stroke-width="8.27" stroke-linejoin="bevel" points="7982.87,2923.46 7982.87,2647.32" />
<polyline class="Stem" fill="none" stroke="#000000" stroke-width="8.27" stroke-linejoin="bevel" points="2352.46,966.329 2352.46,1221.14" />
<polyline class="Stem" fill="none" stroke="#000000" stroke-width="8.27" stroke-linejoin="bevel" points="7356.27,966.329 7356.27,1221.14" />
<polyline class="Stem" fill="none" stroke="#000000" stroke-width="8.27" stroke-linejoin="bevel" points="7581.81,2882.12 7581.81,2543.97" />
<polyline class="Stem" fill="none" stroke="#000000" stroke-width="8.27" stroke-linejoin="bevel" points="7298.98,2799.45 7298.98,2543.97" />
<polyline class="Stem" fill="none" stroke="#000000" stroke-width="8.27" stroke-linejoin="bevel" points="7016.15,2758.11 7016.15,2543.97" />
<polyline class="Stem" fill="none" stroke="#000000" stroke-width="8.27" stroke-linejoin="bevel" points="7674.22,924.991 7674.22,1200.14" />
<polyline class="Stem" fill="none" stroke="#000000" stroke-width="8.27" stroke-linejoin="bevel" points="6733.32,2799.45 6733.32,2543.97" />
<polyline class="Stem" fill="none" stroke="#000000" stroke-width="8.27" stroke-linejoin="bevel" points="6351.28,2785.23 6351.28,2998.4" />
<polyline class="Stem" fill="none" stroke="#000000" stroke-width="8.27" stroke-linejoin="bevel" points="6068.45,2702.55 6068.45,2977.93" />
<polyline class="Stem" fill="none" stroke="#000000" stroke-width="8.27" stroke-linejoin="bevel" points="8023.95,883.652 8023.95,1159.13" />
<polyline class="Stem" fill="none" stroke="#000000" stroke-width="8.27" stroke-linejoin="bevel" points="5785.63,2661.21 5785.63,2957.46" />
<polyline class="Stem" fill="none" stroke="#000000" stroke-width="8.27" stroke-linejoin="bevel" points="8274.76,924.991 8274.76,1159.62" />
<polyline class="Stem" fill="none" stroke="#000000" stroke-width="8.27" stroke-linejoin="bevel" points="5502.8,2619.87 5502.8,2936.99" />
<polyline class="Stem" fill="none" stroke="#000000" stroke-width="8.27" stroke-linejoin="bevel" points="5101.74,2661.21 5101.74,2936.36" />
<polyline class="Stem" fill="none" stroke="#000000" stroke-width="8.27" stroke-linejoin="bevel" points="8441.97,966.329 8441.97,1179.31" />
<polyline class="Stem" fill="none" stroke="#000000" stroke-width="8.27" stroke-linejoin="bevel" points="4563.94,2702.55 4563.94,2957.36" />
<polyline class="Stem" fill="none" stroke="#000000" stroke-width="8.27" stroke-linejoin="bevel" points="8609.17,1007.67 8609.17,1241.81" />
<polyline class="Stem" fill="none" stroke="#000000" stroke-width="8.27" stroke-linejoin="bevel" points="4380.32,2758.11 4380.32,2544.07" />
<polyline class="Stem" fill="none" stroke="#000000" stroke-width="8.27" stroke-linejoin="bevel" points="4097.49,2799.45 4097.49,2550.9" />
<polyline class="Stem" fill="none" stroke="#000000" stroke-width="8.27" stroke-linejoin="bevel" points="3814.66,2882.12 3814.66,2557.72" />
<polyline class="Stem" fill="none" stroke="#000000" stroke-width="8.27" stroke-linejoin="bevel" points="9026.33,1063.23 9026.33,787.747" />
<polyline class="Stem" fill="none" stroke="#000000" stroke-width="8.27" stroke-linejoin="bevel" points="3531.83,2799.45 3531.83,2564.54" />
<polyline class="Stem" fill="none" stroke="#000000" stroke-width="8.27" stroke-linejoin="bevel" points="5754.72,1021.89 5754.72,766.416" />
<polyline class="Stem" fill="none" stroke="#000000" stroke-width="8.27" stroke-linejoin="bevel" points="2670.4,924.991 2670.4,1200.14" />
<polyline class="Stem" fill="none" stroke="#000000" stroke-width="8.27" stroke-linejoin="bevel" points="5404.98,1063.23 5404.98,828.256" />
<polyline class="Stem" fill="none" stroke="#000000" stroke-width="8.27" stroke-linejoin="bevel" points="3130.78,2882.12 3130.78,2585.02" />
<polyline class="Stem" fill="none" stroke="#000000" stroke-width="8.27" stroke-linejoin="bevel" points="5237.78,1145.9 5237.78,821.478" />
<polyline class="Stem" fill="none" stroke="#000000" stroke-width="8.27" stroke-linejoin="bevel" points="2847.95,2799.45 2847.95,2564.94" />
<polyline class="Stem" fill="none" stroke="#000000" stroke-width="8.27" stroke-linejoin="bevel" points="5070.57,1063.23 5070.57,814.7" />
<polyline class="Stem" fill="none" stroke="#000000" stroke-width="8.27" stroke-linejoin="bevel" points="2423.7,2758.11 2423.7,2502.64" />
<polyline class="Stem" fill="none" stroke="#000000" stroke-width="8.27" stroke-linejoin="bevel" points="2140.88,2675.43 2140.88,2461.5" />
<polyline class="Stem" fill="none" stroke="#000000" stroke-width="8.27" stroke-linejoin="bevel" points="1858.05,2758.11 1858.05,2475.14" />
<polyline class="Stem" fill="none" stroke="#000000" stroke-width="8.27" stroke-linejoin="bevel" points="1193.18,1917.12 1193.18,2130.1" />
<polyline class="Stem" fill="none" stroke="#000000" stroke-width="8.27" stroke-linejoin="bevel" points="1575.22,2799.45 1575.22,2488.79" />
<polyline class="Stem" fill="none" stroke="#000000" stroke-width="8.27" stroke-linejoin="bevel" points="1292.39,2758.11 1292.39,2502.44" />
<polyline class="Stem" fill="none" stroke="#000000" stroke-width="8.27" stroke-linejoin="bevel" points="1363.98,1875.78 1363.98,2109.76" />
<polyline class="Stem" fill="none" stroke="#000000" stroke-width="8.27" stroke-linejoin="bevel" points="3020.14,883.652 3020.14,1159.13" />
<polyline class="Stem" fill="none" stroke="#000000" stroke-width="8.27" stroke-linejoin="bevel" points="1534.79,1834.44 1534.79,2089.41" />
<polyline class="Stem" fill="none" stroke="#000000" stroke-width="8.27" stroke-linejoin="bevel" points="3270.95,924.991 3270.95,1159.62" />
<polyline class="Stem" fill="none" stroke="#000000" stroke-width="8.27" stroke-linejoin="bevel" points="1705.6,1793.1 1705.6,2069.07" />
<polyline class="Stem" fill="none" stroke="#000000" stroke-width="8.27" stroke-linejoin="bevel" points="3438.15,966.329 3438.15,1179.31" />
<polyline class="Stem" fill="none" stroke="#000000" stroke-width="8.27" stroke-linejoin="bevel" points="1876.4,1751.76 1876.4,2027.73" />
<polyline class="Stem" fill="none" stroke="#000000" stroke-width="8.27" stroke-linejoin="bevel" points="3605.36,1007.67 3605.36,1241.81" />
<polyline class="Stem" fill="none" stroke="#000000" stroke-width="8.27" stroke-linejoin="bevel" points="9026.33,1931.34 9026.33,1655.86" />
<polyline class="Stem" fill="none" stroke="#000000" stroke-width="8.27" stroke-linejoin="bevel" points="2047.21,1793.1 2047.21,2048.08" />
<polyline class="Stem" fill="none" stroke="#000000" stroke-width="8.27" stroke-linejoin="bevel" points="8500.1,1834.44 8500.1,2089.25" />
<polyline class="Stem" fill="none" stroke="#000000" stroke-width="8.27" stroke-linejoin="bevel" points="2218.02,1834.44 2218.02,2068.42" />
<polyline class="Stem" fill="none" stroke="#000000" stroke-width="8.27" stroke-linejoin="bevel" points="8375.58,1890 8375.58,1635.19" />
<polyline class="Stem" fill="none" stroke="#000000" stroke-width="8.27" stroke-linejoin="bevel" points="2388.82,1875.78 2388.82,2088.76" />
<polyline class="Stem" fill="none" stroke="#000000" stroke-width="8.27" stroke-linejoin="bevel" points="8050.78,1931.34 8050.78,1655.2" />
<polyline class="Stem" fill="none" stroke="#000000" stroke-width="8.27" stroke-linejoin="bevel" points="7701.05,2014.01 7701.05,1717.04" />
<polyline class="Stem" fill="none" stroke="#000000" stroke-width="8.27" stroke-linejoin="bevel" points="4903.37,1021.89 4903.37,807.922" />
<polyline class="Stem" fill="none" stroke="#000000" stroke-width="8.27" stroke-linejoin="bevel" points="2837.78,1890 2837.78,1634.53" />
<polyline class="Stem" fill="none" stroke="#000000" stroke-width="8.27" stroke-linejoin="bevel" points="7530.24,2055.35 7530.24,1710.26" />
<polyline class="Stem" fill="none" stroke="#000000" stroke-width="8.27" stroke-linejoin="bevel" points="7359.43,2014.01 7359.43,1703.48" />
<polyline class="Stem" fill="none" stroke="#000000" stroke-width="8.27" stroke-linejoin="bevel" points="7188.63,1931.34 7188.63,1696.7" />
<polyline class="Stem" fill="none" stroke="#000000" stroke-width="8.27" stroke-linejoin="bevel" points="3063.35,1875.78 3063.35,2130.26" />
<polyline class="Stem" fill="none" stroke="#000000" stroke-width="8.27" stroke-linejoin="bevel" points="6140.66,966.329 6140.66,1221.14" />
<polyline class="Stem" fill="none" stroke="#000000" stroke-width="8.27" stroke-linejoin="bevel" points="3234.16,1834.44 3234.16,2089.25" />
<polyline class="Stem" fill="none" stroke="#000000" stroke-width="8.27" stroke-linejoin="bevel" points="6964.89,1890 6964.89,1635.19" />
<polyline class="Stem" fill="none" stroke="#000000" stroke-width="8.27" stroke-linejoin="bevel" points="3490.37,1793.1 3490.37,2068.58" />
<polyline class="Stem" fill="none" stroke="#000000" stroke-width="8.27" stroke-linejoin="bevel" points="6640.1,1931.34 6640.1,1655.2" />
<polyline class="Stem" fill="none" stroke="#000000" stroke-width="8.27" stroke-linejoin="bevel" points="4022.51,1063.23 4022.51,787.747" />
<polyline class="Stem" fill="none" stroke="#000000" stroke-width="8.27" stroke-linejoin="bevel" points="4636.95,966.329 4636.95,1220.81" />
<polyline class="Stem" fill="none" stroke="#000000" stroke-width="8.27" stroke-linejoin="bevel" points="3864.81,1875.78 3864.81,2109.92" />
<polyline class="Stem" fill="none" stroke="#000000" stroke-width="8.27" stroke-linejoin="bevel" points="6244.39,2014.01 6244.39,1738.53" />
<polyline class="Stem" fill="none" stroke="#000000" stroke-width="8.27" stroke-linejoin="bevel" points="4220.23,1890 4220.23,1676.34" />
<polyline class="Stem" fill="none" stroke="#000000" stroke-width="8.27" stroke-linejoin="bevel" points="5919.6,1931.34 5919.6,1655.2" />
<polyline class="Stem" fill="none" stroke="#000000" stroke-width="8.27" stroke-linejoin="bevel" points="5649.58,1875.78 5649.58,2130.59" />
<polyline class="Stem" fill="none" stroke="#000000" stroke-width="8.27" stroke-linejoin="bevel" points="5478.78,1917.12 5478.78,2130.59" />
<polyline class="Stem" fill="none" stroke="#000000" stroke-width="8.27" stroke-linejoin="bevel" points="5307.97,1875.78 5307.97,2130.59" />
<polyline class="Stem" fill="none" stroke="#000000" stroke-width="8.27" stroke-linejoin="bevel" points="4561.85,1931.34 4561.85,1655.2" />
<polyline class="Stem" fill="none" stroke="#000000" stroke-width="8.27" stroke-linejoin="bevel" points="5137.16,1793.1 5137.16,2130.59" />
<polyline class="Stem" fill="none" stroke="#000000" stroke-width="8.27" stroke-linejoin="bevel" points="4787.42,1751.76 4787.42,2026.91" />
<path class="Hook" d="M6960.76,1709.66 C6960.76,1710.66 6961.09,1712.31 6963.4,1713.3 C6977.64,1717.94 7006.1,1735.81 7027.62,1772.55 C7033.58,1782.81 7043.17,1797.05 7043.17,1824.52 C7043.17,1848.35 7036.89,1872.85 7028.28,1896.68 C7027.62,1898.66 7026.96,1900.32 7027.29,1901.64 C7027.29,1903.63 7028.61,1904.95 7030.6,1904.95 C7032.91,1904.95 7034.57,1903.63 7035.89,1901.31 C7050.79,1874.83 7056.41,1844.05 7056.41,1813.93 C7054.76,1771.23 7030.27,1739.78 7030.27,1739.78 C7031.26,1739.78 6999.81,1699.07 6990.88,1685.17 C6978.63,1666.3 6973,1647.44 6972.34,1646.11 C6972.01,1645.12 6969.03,1633.2 6969.03,1633.2 C6968.7,1631.88 6967.04,1630.55 6965.06,1630.55 C6962.74,1630.55 6960.76,1632.54 6960.76,1634.86 L6960.76,1709.66 "/>
<path class="Hook" d="M4632.82,1220.81 C4632.82,1223.13 4634.8,1225.11 4637.12,1225.11 C4638.77,1225.11 4640.76,1223.79 4641.09,1222.46 C4641.09,1222.13 4644.07,1210.55 4644.4,1209.56 C4644.73,1208.23 4647.71,1195.65 4659.63,1176.12 C4672.54,1154.61 4692.4,1139.05 4708.95,1115.88 C4725.16,1092.71 4735.09,1070.87 4735.09,1041.74 C4735.09,1011.62 4728.14,986.461 4710.6,954.354 C4709.61,952.037 4707.62,950.713 4705.64,950.713 C4704.97,950.713 4704.31,950.713 4703.98,951.044 C4702.33,951.706 4701.66,953.03 4701.66,955.016 C4701.66,956.009 4701.99,957.664 4702.66,958.988 C4715.9,989.771 4721.19,1007.31 4721.19,1031.15 C4721.19,1058.62 4711.59,1072.85 4705.64,1083.11 C4684.12,1119.85 4649.37,1137.73 4635.46,1142.36 C4633.15,1143.36 4632.82,1145.01 4632.82,1146 L4632.82,1220.81 "/>
<path class="Hook" d="M5097.6,2936.36 C5097.6,2938.68 5099.59,2940.66 5101.91,2940.66 C5103.56,2940.66 5105.55,2939.34 5105.88,2938.02 C5105.88,2937.68 5108.86,2926.1 5109.19,2925.11 C5109.52,2923.78 5112.5,2911.2 5124.42,2891.68 C5137.32,2870.16 5157.18,2854.6 5173.73,2831.43 C5189.95,2808.26 5199.88,2786.42 5199.88,2757.29 C5199.88,2727.17 5192.93,2702.01 5175.39,2669.91 C5174.4,2667.59 5172.41,2666.26 5170.42,2666.26 C5169.76,2666.26 5169.1,2666.26 5168.77,2666.6 C5167.11,2667.26 5166.45,2668.58 5166.45,2670.57 C5166.45,2671.56 5166.78,2673.22 5167.45,2674.54 C5180.69,2705.32 5185.98,2722.87 5185.98,2746.7 C5185.98,2774.17 5176.38,2788.4 5170.42,2798.66 C5148.91,2835.41 5114.15,2853.28 5100.25,2857.91 C5097.94,2858.91 5097.6,2860.56 5097.6,2861.55 L5097.6,2936.36 "/>
<path class="Hook" d="M9022.2,862.222 C9022.2,863.215 9022.53,864.87 9024.84,865.863 C9039.08,870.497 9067.54,888.371 9089.06,925.112 C9095.02,935.373 9104.61,949.606 9104.61,977.079 C9104.61,1000.91 9098.33,1025.41 9089.72,1049.24 C9089.06,1051.22 9088.4,1052.88 9088.73,1054.2 C9088.73,1056.19 9090.05,1057.51 9092.04,1057.51 C9094.35,1057.51 9096.01,1056.19 9097.33,1053.87 C9112.23,1027.39 9117.85,996.608 9117.85,966.487 C9116.2,923.788 9091.71,892.343 9091.71,892.343 C9092.7,892.343 9061.25,851.63 9052.32,837.728 C9040.07,818.861 9034.44,799.994 9033.78,798.67 C9033.45,797.677 9030.47,785.761 9030.47,785.761 C9030.14,784.437 9028.48,783.113 9026.5,783.113 C9024.18,783.113 9022.2,785.099 9022.2,787.416 L9022.2,862.222 "/>
<path class="Hook" d="M7670.08,1200.14 C7670.08,1202.46 7672.07,1204.44 7674.39,1204.44 C7676.04,1204.44 7678.03,1203.12 7678.36,1201.79 C7678.36,1201.46 7681.34,1189.88 7681.67,1188.89 C7682,1187.56 7684.98,1174.98 7696.89,1155.45 C7709.8,1133.94 7729.66,1118.38 7746.21,1095.21 C7762.43,1072.04 7772.36,1050.2 7772.36,1021.07 C7772.36,990.948 7765.41,965.792 7747.87,933.685 C7746.87,931.368 7744.89,930.044 7742.9,930.044 C7742.24,930.044 7741.58,930.044 7741.25,930.375 C7739.59,931.037 7738.93,932.361 7738.93,934.347 C7738.93,935.34 7739.26,936.995 7739.92,938.319 C7753.16,969.102 7758.46,986.645 7758.46,1010.48 C7758.46,1037.95 7748.86,1052.18 7742.9,1062.44 C7721.39,1099.18 7686.63,1117.06 7672.73,1121.69 C7670.41,1122.69 7670.08,1124.34 7670.08,1125.33 L7670.08,1200.14 "/>
<path class="Hook" d="M2666.27,1200.14 C2666.27,1202.46 2668.25,1204.44 2670.57,1204.44 C2672.23,1204.44 2674.21,1203.12 2674.54,1201.79 C2674.54,1201.46 2677.52,1189.88 2677.85,1188.89 C2678.18,1187.56 2681.16,1174.98 2693.08,1155.45 C2705.99,1133.94 2725.85,1118.38 2742.4,1095.21 C2758.62,1072.04 2768.55,1050.2 2768.55,1021.07 C2768.55,990.948 2761.6,965.792 2744.05,933.685 C2743.06,931.368 2741.07,930.044 2739.09,930.044 C2738.43,930.044 2737.76,930.044 2737.43,930.375 C2735.78,931.037 2735.12,932.361 2735.12,934.347 C2735.12,935.34 2735.45,936.995 2736.11,938.319 C2749.35,969.102 2754.64,986.645 2754.64,1010.48 C2754.64,1037.95 2745.05,1052.18 2739.09,1062.44 C2717.57,1099.18 2682.82,1117.06 2668.92,1121.69 C2666.6,1122.69 2666.27,1124.34 2666.27,1125.33 L2666.27,1200.14 "/>
<path class="Hook" d="M4783.29,2026.91 C4783.29,2029.23 4785.28,2031.21 4787.59,2031.21 C4789.25,2031.21 4791.23,2029.89 4791.57,2028.57 C4791.57,2028.24 4794.54,2016.65 4794.88,2015.66 C4795.21,2014.33 4798.19,2001.76 4810.1,1982.23 C4823.01,1960.71 4842.87,1945.15 4859.42,1921.98 C4875.64,1898.81 4885.57,1876.97 4885.57,1847.84 C4885.57,1817.72 4878.62,1792.56 4861.08,1760.46 C4860.08,1758.14 4858.1,1756.82 4856.11,1756.82 C4855.45,1756.82 4854.79,1756.82 4854.46,1757.15 C4852.8,1757.81 4852.14,1759.13 4852.14,1761.12 C4852.14,1762.11 4852.47,1763.77 4853.13,1765.09 C4866.37,1795.87 4871.67,1813.42 4871.67,1837.25 C4871.67,1864.72 4862.07,1878.95 4856.11,1889.22 C4834.6,1925.96 4799.84,1943.83 4785.94,1948.46 C4783.62,1949.46 4783.29,1951.11 4783.29,1952.11 L4783.29,2026.91 "/>
<path class="Hook" d="M5969.32,1262.15 C5969.32,1264.46 5971.3,1266.45 5973.62,1266.45 C5975.28,1266.45 5977.26,1265.13 5977.59,1263.8 C5977.59,1263.47 5980.57,1251.89 5980.9,1250.89 C5981.23,1249.57 5984.21,1236.99 5996.13,1217.46 C6009.04,1195.95 6028.9,1180.39 6045.45,1157.22 C6061.67,1134.05 6071.6,1112.2 6071.6,1083.08 C6071.6,1052.96 6064.65,1027.8 6047.1,995.693 C6046.11,993.376 6044.12,992.052 6042.14,992.052 C6041.48,992.052 6040.81,992.052 6040.48,992.383 C6038.83,993.045 6038.17,994.369 6038.17,996.355 C6038.17,997.348 6038.5,999.003 6039.16,1000.33 C6052.4,1031.11 6057.7,1048.65 6057.7,1072.48 C6057.7,1099.96 6048.1,1114.19 6042.14,1124.45 C6020.62,1161.19 5985.87,1179.07 5971.97,1183.7 C5969.65,1184.69 5969.32,1186.35 5969.32,1187.34 L5969.32,1262.15 "/>
<path class="Hook" d="M8516.54,2763.8 C8516.54,2764.79 8516.87,2766.44 8519.18,2767.44 C8533.42,2772.07 8561.88,2789.95 8583.4,2826.69 C8589.36,2836.95 8598.96,2851.18 8598.96,2878.65 C8598.96,2902.49 8592.67,2926.98 8584.06,2950.81 C8583.4,2952.8 8582.74,2954.45 8583.07,2955.78 C8583.07,2957.76 8584.39,2959.09 8586.38,2959.09 C8588.69,2959.09 8590.35,2957.76 8591.67,2955.45 C8606.57,2928.97 8612.2,2898.18 8612.2,2868.06 C8610.54,2825.36 8586.05,2793.92 8586.05,2793.92 C8587.04,2793.92 8555.59,2753.2 8546.66,2739.3 C8534.41,2720.44 8528.78,2701.57 8528.12,2700.24 C8527.79,2699.25 8524.81,2687.34 8524.81,2687.34 C8524.48,2686.01 8522.83,2684.69 8520.84,2684.69 C8518.52,2684.69 8516.54,2686.67 8516.54,2688.99 L8516.54,2763.8 "/>
<path class="Hook" d="M9022.2,1730.33 C9022.2,1731.33 9022.53,1732.98 9024.84,1733.97 C9039.08,1738.61 9067.54,1756.48 9089.06,1793.22 C9095.02,1803.48 9104.61,1817.72 9104.61,1845.19 C9104.61,1869.02 9098.33,1893.52 9089.72,1917.35 C9089.06,1919.33 9088.4,1920.99 9088.73,1922.31 C9088.73,1924.3 9090.05,1925.62 9092.04,1925.62 C9094.35,1925.62 9096.01,1924.3 9097.33,1921.98 C9112.23,1895.5 9117.85,1864.72 9117.85,1834.6 C9116.2,1791.9 9091.71,1760.45 9091.71,1760.45 C9092.7,1760.45 9061.25,1719.74 9052.32,1705.84 C9040.07,1686.97 9034.44,1668.1 9033.78,1666.78 C9033.45,1665.79 9030.47,1653.87 9030.47,1653.87 C9030.14,1652.55 9028.48,1651.22 9026.5,1651.22 C9024.18,1651.22 9022.2,1653.21 9022.2,1655.53 L9022.2,1730.33 "/>
<path class="Hook" d="M8371.44,1709.66 C8371.44,1710.66 8371.77,1712.31 8374.09,1713.3 C8388.32,1717.94 8416.79,1735.81 8438.3,1772.55 C8444.26,1782.81 8453.86,1797.05 8453.86,1824.52 C8453.86,1848.35 8447.57,1872.85 8438.97,1896.68 C8438.3,1898.66 8437.64,1900.32 8437.97,1901.64 C8437.97,1903.63 8439.3,1904.95 8441.28,1904.95 C8443.6,1904.95 8445.25,1903.63 8446.58,1901.31 C8461.47,1874.83 8467.1,1844.05 8467.1,1813.93 C8465.45,1771.23 8440.95,1739.78 8440.95,1739.78 C8441.94,1739.78 8410.5,1699.07 8401.56,1685.17 C8389.32,1666.3 8383.69,1647.44 8383.03,1646.11 C8382.7,1645.12 8379.72,1633.2 8379.72,1633.2 C8379.39,1631.88 8377.73,1630.55 8375.74,1630.55 C8373.43,1630.55 8371.44,1632.54 8371.44,1634.86 L8371.44,1709.66 "/>
<path class="Hook" d="M4018.38,862.222 C4018.38,863.215 4018.71,864.87 4021.03,865.863 C4035.26,870.497 4063.73,888.371 4085.24,925.112 C4091.2,935.373 4100.8,949.606 4100.8,977.079 C4100.8,1000.91 4094.51,1025.41 4085.9,1049.24 C4085.24,1051.22 4084.58,1052.88 4084.91,1054.2 C4084.91,1056.19 4086.24,1057.51 4088.22,1057.51 C4090.54,1057.51 4092.19,1056.19 4093.52,1053.87 C4108.41,1027.39 4114.04,996.608 4114.04,966.487 C4112.38,923.788 4087.89,892.343 4087.89,892.343 C4088.88,892.343 4057.44,851.63 4048.5,837.728 C4036.25,818.861 4030.63,799.994 4029.97,798.67 C4029.63,797.677 4026.66,785.761 4026.66,785.761 C4026.32,784.437 4024.67,783.113 4022.68,783.113 C4020.37,783.113 4018.38,785.099 4018.38,787.416 L4018.38,862.222 "/>
<path class="Hook" d="M3059.22,2130.26 C3059.22,2132.58 3061.21,2134.56 3063.52,2134.56 C3065.18,2134.56 3067.16,2133.24 3067.49,2131.91 C3067.49,2131.58 3070.47,2120 3070.8,2119 C3071.14,2117.68 3074.11,2105.1 3086.03,2085.57 C3098.94,2064.06 3118.8,2048.5 3135.35,2025.33 C3151.57,2002.16 3161.5,1980.32 3161.5,1951.19 C3161.5,1921.07 3154.55,1895.91 3137,1863.8 C3136.01,1861.49 3134.03,1860.16 3132.04,1860.16 C3131.38,1860.16 3130.72,1860.16 3130.38,1860.49 C3128.73,1861.16 3128.07,1862.48 3128.07,1864.47 C3128.07,1865.46 3128.4,1867.11 3129.06,1868.44 C3142.3,1899.22 3147.6,1916.76 3147.6,1940.6 C3147.6,1968.07 3138,1982.3 3132.04,1992.56 C3110.52,2029.3 3075.77,2047.18 3061.87,2051.81 C3059.55,2052.8 3059.22,2054.46 3059.22,2055.45 L3059.22,2130.26 "/>
<path class="Hook" d="M6240.26,1813.01 C6240.26,1814 6240.59,1815.66 6242.91,1816.65 C6257.14,1821.28 6285.61,1839.16 6307.12,1875.9 C6313.08,1886.16 6322.68,1900.39 6322.68,1927.87 C6322.68,1951.7 6316.39,1976.19 6307.78,2000.02 C6307.12,2002.01 6306.46,2003.67 6306.79,2004.99 C6306.79,2006.98 6308.12,2008.3 6310.1,2008.3 C6312.42,2008.3 6314.07,2006.98 6315.4,2004.66 C6330.29,1978.18 6335.92,1947.4 6335.92,1917.27 C6334.26,1874.58 6309.77,1843.13 6309.77,1843.13 C6310.76,1843.13 6279.32,1802.42 6270.38,1788.52 C6258.13,1769.65 6252.51,1750.78 6251.85,1749.46 C6251.51,1748.46 6248.54,1736.55 6248.54,1736.55 C6248.2,1735.22 6246.55,1733.9 6244.56,1733.9 C6242.25,1733.9 6240.26,1735.89 6240.26,1738.2 L6240.26,1813.01 "/>
<path class="Note" d="M5781.49,2661.22 C5781.49,2675.46 5791.75,2691.34 5818.56,2691.34 C5852.99,2691.34 5889.07,2663.21 5889.07,2634.08 C5889.07,2614.55 5872.52,2603.63 5851.99,2603.63 C5819.89,2603.63 5781.49,2630.77 5781.49,2661.22"/>
<path class="Note" d="M8019.82,883.664 C8019.82,897.897 8030.08,913.785 8056.89,913.785 C8091.32,913.785 8127.4,885.65 8127.4,856.522 C8127.4,836.993 8110.85,826.07 8090.32,826.07 C8058.22,826.07 8019.82,853.212 8019.82,883.664"/>
<path class="Note" d="M1752.55,1173.03 C1752.55,1187.27 1762.82,1203.16 1789.63,1203.16 C1824.05,1203.16 1860.13,1175.02 1860.13,1145.89 C1860.13,1126.36 1843.58,1115.44 1823.06,1115.44 C1790.95,1115.44 1752.55,1142.58 1752.55,1173.03"/>
<path class="Note" d="M5645.45,1875.79 C5645.45,1890.02 5655.71,1905.91 5682.52,1905.91 C5716.95,1905.91 5753.02,1877.78 5753.02,1848.65 C5753.02,1829.12 5736.47,1818.2 5715.95,1818.2 C5683.85,1818.2 5645.45,1845.34 5645.45,1875.79"/>
<path class="Note" d="M3860.68,1875.79 C3860.68,1890.02 3870.94,1905.91 3897.75,1905.91 C3932.17,1905.91 3968.25,1877.78 3968.25,1848.65 C3968.25,1829.12 3951.7,1818.2 3931.18,1818.2 C3899.07,1818.2 3860.68,1845.34 3860.68,1875.79"/>
<path class="Note" d="M6141.05,2041.14 C6141.05,2055.38 6151.31,2071.27 6178.12,2071.27 C6212.54,2071.27 6248.62,2043.13 6248.62,2014 C6248.62,1994.47 6232.07,1983.55 6211.55,1983.55 C6179.44,1983.55 6141.05,2010.69 6141.05,2041.14"/>
<path class="Note" d="M3919.17,1090.36 C3919.17,1104.59 3929.43,1120.48 3956.24,1120.48 C3990.66,1120.48 4026.74,1092.34 4026.74,1063.22 C4026.74,1043.69 4010.19,1032.76 3989.67,1032.76 C3957.56,1032.76 3919.17,1059.91 3919.17,1090.36"/>
<path class="Note" d="M4632.82,966.341 C4632.82,980.574 4643.08,996.462 4669.89,996.462 C4704.31,996.462 4740.39,968.327 4740.39,939.199 C4740.39,919.67 4723.84,908.747 4703.32,908.747 C4671.21,908.747 4632.82,935.889 4632.82,966.341"/>
<path class="Note" d="M3486.24,1793.11 C3486.24,1807.35 3496.5,1823.23 3523.31,1823.23 C3557.73,1823.23 3593.81,1795.1 3593.81,1765.97 C3593.81,1746.44 3577.26,1735.52 3556.74,1735.52 C3524.63,1735.52 3486.24,1762.66 3486.24,1793.11"/>
<path class="Note" d="M6536.75,1958.47 C6536.75,1972.7 6547.01,1988.59 6573.82,1988.59 C6608.25,1988.59 6644.33,1960.45 6644.33,1931.33 C6644.33,1911.8 6627.78,1900.87 6607.26,1900.87 C6575.15,1900.87 6536.75,1928.02 6536.75,1958.47"/>
<path class="Note" d="M3230.03,1834.45 C3230.03,1848.68 3240.29,1864.57 3267.1,1864.57 C3301.52,1864.57 3337.6,1836.44 3337.6,1807.31 C3337.6,1787.78 3321.05,1776.86 3300.53,1776.86 C3268.42,1776.86 3230.03,1804 3230.03,1834.45"/>
<path class="Note" d="M3059.22,1875.79 C3059.22,1890.02 3069.48,1905.91 3096.29,1905.91 C3130.72,1905.91 3166.79,1877.78 3166.79,1848.65 C3166.79,1829.12 3150.24,1818.2 3129.72,1818.2 C3097.62,1818.2 3059.22,1845.34 3059.22,1875.79"/>
<path class="Note" d="M5969.32,1007.68 C5969.32,1021.91 5979.58,1037.8 6006.39,1037.8 C6040.81,1037.8 6076.89,1009.67 6076.89,980.538 C6076.89,961.009 6060.34,950.086 6039.82,950.086 C6007.71,950.086 5969.32,977.228 5969.32,1007.68"/>
<path class="Note" d="M6861.54,1917.13 C6861.54,1931.36 6871.8,1947.25 6898.62,1947.25 C6933.04,1947.25 6969.12,1919.11 6969.12,1889.99 C6969.12,1870.46 6952.57,1859.53 6932.05,1859.53 C6899.94,1859.53 6861.54,1886.68 6861.54,1917.13"/>
<path class="Note" d="M6387.33,1090.36 C6387.33,1104.59 6397.59,1120.48 6424.4,1120.48 C6458.83,1120.48 6494.91,1092.34 6494.91,1063.22 C6494.91,1043.69 6478.36,1032.76 6457.84,1032.76 C6425.73,1032.76 6387.33,1059.91 6387.33,1090.36"/>
<path class="Note" d="M7085.28,1958.47 C7085.28,1972.7 7095.54,1988.59 7122.35,1988.59 C7156.78,1988.59 7192.85,1960.45 7192.85,1931.33 C7192.85,1911.8 7176.3,1900.87 7155.78,1900.87 C7123.68,1900.87 7085.28,1928.02 7085.28,1958.47"/>
<path class="Note" d="M2003.36,1214.37 C2003.36,1228.61 2013.62,1244.49 2040.44,1244.49 C2074.86,1244.49 2110.94,1216.36 2110.94,1187.23 C2110.94,1167.7 2094.39,1156.78 2073.87,1156.78 C2041.76,1156.78 2003.36,1183.92 2003.36,1214.37"/>
<path class="Note" d="M8700.15,2991.93 C8700.15,3006.17 8710.41,3022.05 8737.22,3022.05 C8771.65,3022.05 8807.73,2993.92 8807.73,2964.79 C8807.73,2945.26 8791.18,2934.34 8770.66,2934.34 C8738.55,2934.34 8700.15,2961.48 8700.15,2991.93"/>
<path class="Note" d="M7256.09,2041.14 C7256.09,2055.38 7266.35,2071.27 7293.16,2071.27 C7327.58,2071.27 7363.66,2043.13 7363.66,2014 C7363.66,1994.47 7347.11,1983.55 7326.59,1983.55 C7294.48,1983.55 7256.09,2010.69 7256.09,2041.14"/>
<path class="Note" d="M2734.43,1917.13 C2734.43,1931.36 2744.69,1947.25 2771.5,1947.25 C2805.92,1947.25 2842,1919.11 2842,1889.99 C2842,1870.46 2825.45,1859.53 2804.93,1859.53 C2772.82,1859.53 2734.43,1886.68 2734.43,1917.13"/>
<path class="Note" d="M7426.89,2082.48 C7426.89,2096.72 7437.15,2112.6 7463.97,2112.6 C7498.39,2112.6 7534.47,2084.47 7534.47,2055.34 C7534.47,2035.81 7517.92,2024.89 7497.4,2024.89 C7465.29,2024.89 7426.89,2052.03 7426.89,2082.48"/>
<path class="Note" d="M4800.02,1049.02 C4800.02,1063.25 4810.28,1079.14 4837.09,1079.14 C4871.52,1079.14 4907.6,1051 4907.6,1021.88 C4907.6,1002.35 4891.05,991.425 4870.52,991.425 C4838.42,991.425 4800.02,1018.57 4800.02,1049.02"/>
<path class="Note" d="M7597.7,2041.14 C7597.7,2055.38 7607.96,2071.27 7634.77,2071.27 C7669.2,2071.27 7705.28,2043.13 7705.28,2014 C7705.28,1994.47 7688.73,1983.55 7668.2,1983.55 C7636.1,1983.55 7597.7,2010.69 7597.7,2041.14"/>
<path class="Note" d="M5474.64,1917.13 C5474.64,1931.36 5484.9,1947.25 5511.71,1947.25 C5546.14,1947.25 5582.22,1919.11 5582.22,1889.99 C5582.22,1870.46 5565.67,1859.53 5545.15,1859.53 C5513.04,1859.53 5474.64,1886.68 5474.64,1917.13"/>
<path class="Note" d="M6756.37,1173.03 C6756.37,1187.27 6766.63,1203.16 6793.44,1203.16 C6827.87,1203.16 6863.94,1175.02 6863.94,1145.89 C6863.94,1126.36 6847.39,1115.44 6826.87,1115.44 C6794.77,1115.44 6756.37,1142.58 6756.37,1173.03"/>
<path class="Note" d="M2384.69,1875.79 C2384.69,1890.02 2394.95,1905.91 2421.76,1905.91 C2456.19,1905.91 2492.27,1877.78 2492.27,1848.65 C2492.27,1829.12 2475.72,1818.2 2455.19,1818.2 C2423.09,1818.2 2384.69,1845.34 2384.69,1875.79"/>
<path class="Note" d="M7947.44,1958.47 C7947.44,1972.7 7957.7,1988.59 7984.51,1988.59 C8018.93,1988.59 8055.01,1960.45 8055.01,1931.33 C8055.01,1911.8 8038.46,1900.87 8017.94,1900.87 C7985.83,1900.87 7947.44,1928.02 7947.44,1958.47"/>
<path class="Note" d="M8417.32,2991.93 C8417.32,3006.17 8427.58,3022.05 8454.4,3022.05 C8488.82,3022.05 8524.9,2993.92 8524.9,2964.79 C8524.9,2945.26 8508.35,2934.34 8487.83,2934.34 C8455.72,2934.34 8417.32,2961.48 8417.32,2991.93"/>
<path class="Note" d="M4116.89,1917.13 C4116.89,1931.36 4127.15,1947.25 4153.96,1947.25 C4188.38,1947.25 4224.46,1919.11 4224.46,1889.99 C4224.46,1870.46 4207.91,1859.53 4187.39,1859.53 C4155.28,1859.53 4116.89,1886.68 4116.89,1917.13"/>
<path class="Note" d="M2213.88,1834.45 C2213.88,1848.68 2224.14,1864.57 2250.96,1864.57 C2285.38,1864.57 2321.46,1836.44 2321.46,1807.31 C2321.46,1787.78 2304.91,1776.86 2284.39,1776.86 C2252.28,1776.86 2213.88,1804 2213.88,1834.45"/>
<path class="Note" d="M8272.23,1917.13 C8272.23,1931.36 8282.49,1947.25 8309.3,1947.25 C8343.72,1947.25 8379.8,1919.11 8379.8,1889.99 C8379.8,1870.46 8363.25,1859.53 8342.73,1859.53 C8310.62,1859.53 8272.23,1886.68 8272.23,1917.13"/>
<path class="Note" d="M2043.08,1793.11 C2043.08,1807.35 2053.34,1823.23 2080.15,1823.23 C2114.57,1823.23 2150.65,1795.1 2150.65,1765.97 C2150.65,1746.44 2134.1,1735.52 2113.58,1735.52 C2081.47,1735.52 2043.08,1762.66 2043.08,1793.11"/>
<path class="Note" d="M8495.97,1834.45 C8495.97,1848.68 8506.23,1864.57 8533.04,1864.57 C8567.46,1864.57 8603.54,1836.44 8603.54,1807.31 C8603.54,1787.78 8586.99,1776.86 8566.47,1776.86 C8534.36,1776.86 8495.97,1804 8495.97,1834.45"/>
<path class="Note" d="M7007.18,1214.37 C7007.18,1228.61 7017.44,1244.49 7044.25,1244.49 C7078.67,1244.49 7114.75,1216.36 7114.75,1187.23 C7114.75,1167.7 7098.2,1156.78 7077.68,1156.78 C7045.57,1156.78 7007.18,1183.92 7007.18,1214.37"/>
<path class="Note" d="M5303.84,1875.79 C5303.84,1890.02 5314.1,1905.91 5340.91,1905.91 C5375.33,1905.91 5411.41,1877.78 5411.41,1848.65 C5411.41,1829.12 5394.86,1818.2 5374.34,1818.2 C5342.23,1818.2 5303.84,1845.34 5303.84,1875.79"/>
<path class="Note" d="M4287.69,1958.47 C4287.69,1972.7 4297.95,1988.59 4324.77,1988.59 C4359.19,1988.59 4395.27,1960.45 4395.27,1931.33 C4395.27,1911.8 4378.72,1900.87 4358.2,1900.87 C4326.09,1900.87 4287.69,1928.02 4287.69,1958.47"/>
<path class="Note" d="M8922.98,1958.47 C8922.98,1972.7 8933.24,1988.59 8960.05,1988.59 C8994.48,1988.59 9030.56,1960.45 9030.56,1931.33 C9030.56,1911.8 9014.01,1900.87 8993.49,1900.87 C8961.38,1900.87 8922.98,1928.02 8922.98,1958.47"/>
<path class="Note" d="M3601.23,1007.68 C3601.23,1021.91 3611.49,1037.8 3638.3,1037.8 C3672.72,1037.8 3708.8,1009.67 3708.8,980.538 C3708.8,961.009 3692.25,950.086 3671.73,950.086 C3639.62,950.086 3601.23,977.228 3601.23,1007.68"/>
<path class="Note" d="M1872.27,1751.77 C1872.27,1766.01 1882.53,1781.9 1909.34,1781.9 C1943.77,1781.9 1979.84,1753.76 1979.84,1724.63 C1979.84,1705.1 1963.29,1694.18 1942.77,1694.18 C1910.67,1694.18 1872.27,1721.32 1872.27,1751.77"/>
<path class="Note" d="M3434.02,966.341 C3434.02,980.574 3444.28,996.462 3471.09,996.462 C3505.52,996.462 3541.59,968.327 3541.59,939.199 C3541.59,919.67 3525.04,908.747 3504.52,908.747 C3472.42,908.747 3434.02,935.889 3434.02,966.341"/>
<path class="Note" d="M1701.46,1793.11 C1701.46,1807.35 1711.72,1823.23 1738.53,1823.23 C1772.96,1823.23 1809.04,1795.1 1809.04,1765.97 C1809.04,1746.44 1792.49,1735.52 1771.97,1735.52 C1739.86,1735.52 1701.46,1762.66 1701.46,1793.11"/>
<path class="Note" d="M7879.52,2950.59 C7879.52,2964.83 7889.78,2980.71 7916.59,2980.71 C7951.02,2980.71 7987.1,2952.58 7987.1,2923.45 C7987.1,2903.92 7970.55,2893 7950.03,2893 C7917.92,2893 7879.52,2920.14 7879.52,2950.59"/>
<path class="Note" d="M3266.81,925.003 C3266.81,939.236 3277.07,955.124 3303.89,955.124 C3338.31,955.124 3374.39,926.989 3374.39,897.861 C3374.39,878.332 3357.84,867.409 3337.32,867.409 C3305.21,867.409 3266.81,894.551 3266.81,925.003"/>
<path class="Note" d="M1530.66,1834.45 C1530.66,1848.68 1540.92,1864.57 1567.73,1864.57 C1602.15,1864.57 1638.23,1836.44 1638.23,1807.31 C1638.23,1787.78 1621.68,1776.86 1601.16,1776.86 C1569.05,1776.86 1530.66,1804 1530.66,1834.45"/>
<path class="Note" d="M3016.01,883.664 C3016.01,897.897 3026.27,913.785 3053.08,913.785 C3087.5,913.785 3123.58,885.65 3123.58,856.522 C3123.58,836.993 3107.03,826.07 3086.51,826.07 C3054.4,826.07 3016.01,853.212 3016.01,883.664"/>
<path class="Note" d="M1359.85,1875.79 C1359.85,1890.02 1370.11,1905.91 1396.92,1905.91 C1431.34,1905.91 1467.42,1877.78 1467.42,1848.65 C1467.42,1829.12 1450.87,1818.2 1430.35,1818.2 C1398.24,1818.2 1359.85,1845.34 1359.85,1875.79"/>
<path class="Note" d="M2666.27,925.003 C2666.27,939.236 2676.53,955.124 2703.34,955.124 C2737.76,955.124 2773.84,926.989 2773.84,897.861 C2773.84,878.332 2757.29,867.409 2736.77,867.409 C2704.66,867.409 2666.27,894.551 2666.27,925.003"/>
<path class="Note" d="M1383.52,1090.36 C1383.52,1104.59 1393.78,1120.48 1420.59,1120.48 C1455.01,1120.48 1491.09,1092.34 1491.09,1063.22 C1491.09,1043.69 1474.54,1032.76 1454.02,1032.76 C1421.91,1032.76 1383.52,1059.91 1383.52,1090.36"/>
<path class="Note" d="M2170.57,1255.71 C2170.57,1269.94 2180.83,1285.83 2207.64,1285.83 C2242.06,1285.83 2278.14,1257.7 2278.14,1228.57 C2278.14,1209.04 2261.59,1198.12 2241.07,1198.12 C2208.96,1198.12 2170.57,1225.26 2170.57,1255.71"/>
<path class="Note" d="M7174.38,1255.71 C7174.38,1269.94 7184.64,1285.83 7211.46,1285.83 C7245.88,1285.83 7281.96,1257.7 7281.96,1228.57 C7281.96,1209.04 7265.41,1198.12 7244.89,1198.12 C7212.78,1198.12 7174.38,1225.26 7174.38,1255.71"/>
<path class="Note" d="M1189.04,2785.24 C1189.04,2799.47 1199.3,2815.36 1226.11,2815.36 C1260.54,2815.36 1296.62,2787.23 1296.62,2758.1 C1296.62,2738.57 1280.07,2727.65 1259.54,2727.65 C1227.44,2727.65 1189.04,2754.79 1189.04,2785.24"/>
<path class="Note" d="M7478.47,2909.25 C7478.47,2923.49 7488.73,2939.38 7515.54,2939.38 C7549.96,2939.38 7586.04,2911.24 7586.04,2882.11 C7586.04,2862.58 7569.49,2851.66 7548.97,2851.66 C7516.86,2851.66 7478.47,2878.8 7478.47,2909.25"/>
<path class="Note" d="M1189.04,1917.13 C1189.04,1931.36 1199.3,1947.25 1226.11,1947.25 C1260.54,1947.25 1296.62,1919.11 1296.62,1889.99 C1296.62,1870.46 1280.07,1859.53 1259.54,1859.53 C1227.44,1859.53 1189.04,1886.68 1189.04,1917.13"/>
<path class="Note" d="M1471.87,2826.58 C1471.87,2840.81 1482.13,2856.7 1508.94,2856.7 C1543.37,2856.7 1579.45,2828.56 1579.45,2799.44 C1579.45,2779.91 1562.9,2768.98 1542.37,2768.98 C1510.27,2768.98 1471.87,2796.13 1471.87,2826.58"/>
<path class="Note" d="M1754.7,2785.24 C1754.7,2799.47 1764.96,2815.36 1791.77,2815.36 C1826.2,2815.36 1862.27,2787.23 1862.27,2758.1 C1862.27,2738.57 1845.72,2727.65 1825.2,2727.65 C1793.1,2727.65 1754.7,2754.79 1754.7,2785.24"/>
<path class="Note" d="M5133.03,1793.11 C5133.03,1807.35 5143.29,1823.23 5170.1,1823.23 C5204.52,1823.23 5240.6,1795.1 5240.6,1765.97 C5240.6,1746.44 5224.05,1735.52 5203.53,1735.52 C5171.42,1735.52 5133.03,1762.66 5133.03,1793.11"/>
<path class="Note" d="M7352.14,966.341 C7352.14,980.574 7362.4,996.462 7389.21,996.462 C7423.64,996.462 7459.71,968.327 7459.71,939.199 C7459.71,919.67 7443.16,908.747 7422.64,908.747 C7390.54,908.747 7352.14,935.889 7352.14,966.341"/>
<path class="Note" d="M2037.53,2702.56 C2037.53,2716.79 2047.79,2732.68 2074.6,2732.68 C2109.02,2732.68 2145.1,2704.55 2145.1,2675.42 C2145.1,2655.89 2128.55,2644.97 2108.03,2644.97 C2075.92,2644.97 2037.53,2672.11 2037.53,2702.56"/>
<path class="Note" d="M7195.64,2826.58 C7195.64,2840.81 7205.9,2856.7 7232.71,2856.7 C7267.13,2856.7 7303.21,2828.56 7303.21,2799.44 C7303.21,2779.91 7286.66,2768.98 7266.14,2768.98 C7234.03,2768.98 7195.64,2796.13 7195.64,2826.58"/>
<path class="Note" d="M2320.36,2785.24 C2320.36,2799.47 2330.62,2815.36 2357.43,2815.36 C2391.85,2815.36 2427.93,2787.23 2427.93,2758.1 C2427.93,2738.57 2411.38,2727.65 2390.86,2727.65 C2358.75,2727.65 2320.36,2754.79 2320.36,2785.24"/>
<path class="Note" d="M4967.23,1090.36 C4967.23,1104.59 4977.49,1120.48 5004.3,1120.48 C5038.72,1120.48 5074.8,1092.34 5074.8,1063.22 C5074.8,1043.69 5058.25,1032.76 5037.73,1032.76 C5005.62,1032.76 4967.23,1059.91 4967.23,1090.36"/>
<path class="Note" d="M2744.6,2826.58 C2744.6,2840.81 2754.86,2856.7 2781.67,2856.7 C2816.1,2856.7 2852.18,2828.56 2852.18,2799.44 C2852.18,2779.91 2835.63,2768.98 2815.1,2768.98 C2783,2768.98 2744.6,2796.13 2744.6,2826.58"/>
<path class="Note" d="M6912.81,2785.24 C6912.81,2799.47 6923.07,2815.36 6949.88,2815.36 C6984.3,2815.36 7020.38,2787.23 7020.38,2758.1 C7020.38,2738.57 7003.83,2727.65 6983.31,2727.65 C6951.2,2727.65 6912.81,2754.79 6912.81,2785.24"/>
<path class="Note" d="M5134.43,1173.03 C5134.43,1187.27 5144.69,1203.16 5171.5,1203.16 C5205.93,1203.16 5242.01,1175.02 5242.01,1145.89 C5242.01,1126.36 5225.46,1115.44 5204.94,1115.44 C5172.83,1115.44 5134.43,1142.58 5134.43,1173.03"/>
<path class="Note" d="M3027.43,2909.25 C3027.43,2923.49 3037.69,2939.38 3064.5,2939.38 C3098.93,2939.38 3135.01,2911.24 3135.01,2882.11 C3135.01,2862.58 3118.46,2851.66 3097.93,2851.66 C3065.83,2851.66 3027.43,2878.8 3027.43,2909.25"/>
<path class="Note" d="M5301.64,1090.36 C5301.64,1104.59 5311.9,1120.48 5338.71,1120.48 C5373.13,1120.48 5409.21,1092.34 5409.21,1063.22 C5409.21,1043.69 5392.66,1032.76 5372.14,1032.76 C5340.03,1032.76 5301.64,1059.91 5301.64,1090.36"/>
<path class="Note" d="M4458.5,1958.47 C4458.5,1972.7 4468.76,1988.59 4495.57,1988.59 C4530,1988.59 4566.08,1960.45 4566.08,1931.33 C4566.08,1911.8 4549.53,1900.87 4529,1900.87 C4496.9,1900.87 4458.5,1928.02 4458.5,1958.47"/>
<path class="Note" d="M8922.98,1090.36 C8922.98,1104.59 8933.24,1120.48 8960.05,1120.48 C8994.48,1120.48 9030.56,1092.34 9030.56,1063.22 C9030.56,1043.69 9014.01,1032.76 8993.49,1032.76 C8961.38,1032.76 8922.98,1059.91 8922.98,1090.36"/>
<path class="Note" d="M3428.49,2826.58 C3428.49,2840.81 3438.75,2856.7 3465.56,2856.7 C3499.98,2856.7 3536.06,2828.56 3536.06,2799.44 C3536.06,2779.91 3519.51,2768.98 3498.99,2768.98 C3466.88,2768.98 3428.49,2796.13 3428.49,2826.58"/>
<path class="Note" d="M6136.52,966.341 C6136.52,980.574 6146.79,996.462 6173.6,996.462 C6208.02,996.462 6244.1,968.327 6244.1,939.199 C6244.1,919.67 6227.55,908.747 6207.03,908.747 C6174.92,908.747 6136.52,935.889 6136.52,966.341"/>
<path class="Note" d="M4314.87,1049.02 C4314.87,1063.25 4325.13,1079.14 4351.94,1079.14 C4386.37,1079.14 4422.45,1051 4422.45,1021.88 C4422.45,1002.35 4405.9,991.425 4385.38,991.425 C4353.27,991.425 4314.87,1018.57 4314.87,1049.02"/>
<path class="Note" d="M3711.32,2909.25 C3711.32,2923.49 3721.58,2939.38 3748.39,2939.38 C3782.81,2939.38 3818.89,2911.24 3818.89,2882.11 C3818.89,2862.58 3802.34,2851.66 3781.82,2851.66 C3749.71,2851.66 3711.32,2878.8 3711.32,2909.25"/>
<path class="Note" d="M6629.98,2826.58 C6629.98,2840.81 6640.24,2856.7 6667.05,2856.7 C6701.47,2856.7 6737.55,2828.56 6737.55,2799.44 C6737.55,2779.91 6721,2768.98 6700.48,2768.98 C6668.37,2768.98 6629.98,2796.13 6629.98,2826.58"/>
<path class="Note" d="M3994.15,2826.58 C3994.15,2840.81 4004.41,2856.7 4031.22,2856.7 C4065.64,2856.7 4101.72,2828.56 4101.72,2799.44 C4101.72,2779.91 4085.17,2768.98 4064.65,2768.98 C4032.54,2768.98 3994.15,2796.13 3994.15,2826.58"/>
<path class="Note" d="M8605.04,1007.68 C8605.04,1021.91 8615.3,1037.8 8642.11,1037.8 C8676.54,1037.8 8712.62,1009.67 8712.62,980.538 C8712.62,961.009 8696.07,950.086 8675.54,950.086 C8643.44,950.086 8605.04,977.228 8605.04,1007.68"/>
<path class="Note" d="M4276.97,2785.24 C4276.97,2799.47 4287.24,2815.36 4314.05,2815.36 C4348.47,2815.36 4384.55,2787.23 4384.55,2758.1 C4384.55,2738.57 4368,2727.65 4347.48,2727.65 C4315.37,2727.65 4276.97,2754.79 4276.97,2785.24"/>
<path class="Note" d="M8437.83,966.341 C8437.83,980.574 8448.1,996.462 8474.91,996.462 C8509.33,996.462 8545.41,968.327 8545.41,939.199 C8545.41,919.67 8528.86,908.747 8508.34,908.747 C8476.23,908.747 8437.83,935.889 8437.83,966.341"/>
<path class="Note" d="M4559.8,2702.56 C4559.8,2716.79 4570.06,2732.68 4596.88,2732.68 C4631.3,2732.68 4667.38,2704.55 4667.38,2675.42 C4667.38,2655.89 4650.83,2644.97 4630.31,2644.97 C4598.2,2644.97 4559.8,2672.11 4559.8,2702.56"/>
<path class="Note" d="M7670.08,925.003 C7670.08,939.236 7680.34,955.124 7707.15,955.124 C7741.58,955.124 7777.66,926.989 7777.66,897.861 C7777.66,878.332 7761.11,867.409 7740.59,867.409 C7708.48,867.409 7670.08,894.551 7670.08,925.003"/>
<path class="Note" d="M4783.29,1751.77 C4783.29,1766.01 4793.55,1781.9 4820.36,1781.9 C4854.79,1781.9 4890.87,1753.76 4890.87,1724.63 C4890.87,1705.1 4874.32,1694.18 4853.79,1694.18 C4821.69,1694.18 4783.29,1721.32 4783.29,1751.77"/>
<path class="Note" d="M6347.15,2785.24 C6347.15,2799.47 6357.41,2815.36 6384.22,2815.36 C6418.65,2815.36 6454.72,2787.23 6454.72,2758.1 C6454.72,2738.57 6438.17,2727.65 6417.65,2727.65 C6385.55,2727.65 6347.15,2754.79 6347.15,2785.24"/>
<path class="Note" d="M5097.6,2661.22 C5097.6,2675.46 5107.87,2691.34 5134.68,2691.34 C5169.1,2691.34 5205.18,2663.21 5205.18,2634.08 C5205.18,2614.55 5188.63,2603.63 5168.11,2603.63 C5136,2603.63 5097.6,2630.77 5097.6,2661.22"/>
<path class="Note" d="M6064.32,2702.56 C6064.32,2716.79 6074.58,2732.68 6101.39,2732.68 C6135.82,2732.68 6171.9,2704.55 6171.9,2675.42 C6171.9,2655.89 6155.35,2644.97 6134.82,2644.97 C6102.72,2644.97 6064.32,2672.11 6064.32,2702.56"/>
<path class="Note" d="M2348.32,966.341 C2348.32,980.574 2358.59,996.462 2385.4,996.462 C2419.82,996.462 2455.9,968.327 2455.9,939.199 C2455.9,919.67 2439.35,908.747 2418.83,908.747 C2386.72,908.747 2348.32,935.889 2348.32,966.341"/>
<path class="Note" d="M8270.63,925.003 C8270.63,939.236 8280.89,955.124 8307.7,955.124 C8342.12,955.124 8378.2,926.989 8378.2,897.861 C8378.2,878.332 8361.65,867.409 8341.13,867.409 C8309.02,867.409 8270.63,894.551 8270.63,925.003"/>
<path class="Note" d="M5498.66,2619.88 C5498.66,2634.12 5508.92,2650.01 5535.73,2650.01 C5570.16,2650.01 5606.24,2621.87 5606.24,2592.74 C5606.24,2573.21 5589.69,2562.29 5569.17,2562.29 C5537.06,2562.29 5498.66,2589.43 5498.66,2619.88"/>
<path class="Note" d="M5651.38,1049.02 C5651.38,1063.25 5661.64,1079.14 5688.45,1079.14 C5722.87,1079.14 5758.95,1051 5758.95,1021.88 C5758.95,1002.35 5742.4,991.425 5721.88,991.425 C5689.77,991.425 5651.38,1018.57 5651.38,1049.02"/>
<path class="Note" d="M5816.26,1958.47 C5816.26,1972.7 5826.52,1988.59 5853.33,1988.59 C5887.75,1988.59 5923.83,1960.45 5923.83,1931.33 C5923.83,1911.8 5907.28,1900.87 5886.76,1900.87 C5854.65,1900.87 5816.26,1928.02 5816.26,1958.47"/>
<path class="Clef" d="M909.689,2012.75 C903.069,2014.08 896.78,2014.74 890.491,2014.74 C843.158,2014.74 802.776,1981.64 802.776,1931.66 C802.776,1891.27 831.242,1855.2 860.37,1830.04 C865.997,1825.07 871.293,1820.44 876.258,1815.48 C879.237,1833.35 881.554,1848.91 883.871,1862.48 C853.75,1871.41 833.228,1903.19 833.228,1934.3 C833.228,1957.47 851.433,1989.25 877.913,1989.25 C880.561,1989.25 883.54,1987.93 883.54,1984.95 C883.54,1981.97 880.23,1980.31 876.258,1977.67 C863.349,1969.72 856.067,1961.12 856.067,1944.9 C856.067,1924.71 870.962,1908.49 890.491,1903.85 L909.689,2012.75 M880.561,1672.48 C883.54,1659.24 898.766,1624.49 915.978,1624.49 C920.943,1624.49 928.887,1640.71 928.887,1663.55 C928.887,1697.97 903.4,1723.79 880.561,1746.3 C878.575,1733.06 876.92,1720.15 876.92,1706.25 C876.92,1694 877.913,1682.74 880.561,1672.48 M956.691,1951.52 C956.691,1975.02 947.092,1999.18 923.591,2008.78 C916.64,1969.06 907.703,1916.43 905.386,1901.87 C935.176,1901.87 956.691,1922.06 956.691,1951.52 M811.051,2114.37 C811.051,2136.21 827.932,2165.01 872.617,2165.01 C888.174,2165.01 901.745,2161.04 913.661,2153.76 C931.535,2141.18 936.169,2119.33 936.169,2098.48 C936.169,2085.57 934.183,2070.68 930.873,2051.81 C929.88,2045.19 927.894,2035.26 925.908,2022.35 C958.346,2011.76 982.509,1978 982.509,1943.9 C982.509,1893.92 947.092,1860.16 898.766,1860.16 C895.456,1840.3 892.146,1820.77 889.167,1802.24 C924.253,1765.49 948.416,1724.12 948.416,1671.49 C948.416,1641.37 939.148,1616.88 933.852,1604.96 C925.908,1588.08 916.309,1576.49 910.351,1576.49 C908.034,1576.49 897.773,1580.47 886.85,1593.37 C865.666,1618.53 859.708,1660.9 859.708,1688.7 C859.708,1706.58 861.363,1722.8 866.99,1759.87 C866.659,1760.2 849.447,1777.74 842.496,1783.37 C812.375,1811.5 770.669,1851.55 770.669,1917.75 C770.669,1979.65 824.622,2028.31 886.188,2028.31 C895.787,2028.31 904.724,2027.32 912.337,2025.99 C918.626,2057.77 922.267,2080.94 922.267,2098.48 C922.267,2132.9 904.724,2151.11 871.293,2151.11 C863.349,2151.11 856.398,2149.45 855.736,2149.45 C855.405,2149.12 854.743,2148.79 854.743,2148.46 C854.743,2147.8 855.405,2147.47 856.398,2147.14 C871.955,2144.82 887.512,2131.58 887.512,2110.4 C887.512,2092.52 873.941,2073.66 849.116,2073.66 C825.946,2073.66 811.051,2092.52 811.051,2114.37"/>
<path class="Clef" d="M909.689,1144.64 C903.069,1145.97 896.78,1146.63 890.491,1146.63 C843.158,1146.63 802.776,1113.53 802.776,1063.55 C802.776,1023.16 831.242,987.085 860.37,961.929 C865.997,956.964 871.293,952.33 876.258,947.365 C879.237,965.239 881.554,980.796 883.871,994.367 C853.75,1003.3 833.228,1035.08 833.228,1066.19 C833.228,1089.36 851.433,1121.14 877.913,1121.14 C880.561,1121.14 883.54,1119.82 883.54,1116.84 C883.54,1113.86 880.23,1112.2 876.258,1109.56 C863.349,1101.61 856.067,1093.01 856.067,1076.79 C856.067,1056.6 870.962,1040.38 890.491,1035.74 L909.689,1144.64 M880.561,804.373 C883.54,791.133 898.766,756.378 915.978,756.378 C920.943,756.378 928.887,772.597 928.887,795.436 C928.887,829.86 903.4,855.678 880.561,878.186 C878.575,864.946 876.92,852.037 876.92,838.135 C876.92,825.888 877.913,814.634 880.561,804.373 M956.691,1083.41 C956.691,1106.91 947.092,1131.07 923.591,1140.67 C916.64,1100.95 907.703,1048.32 905.386,1033.76 C935.176,1033.76 956.691,1053.95 956.691,1083.41 M811.051,1246.26 C811.051,1268.1 827.932,1296.9 872.617,1296.9 C888.174,1296.9 901.745,1292.93 913.661,1285.65 C931.535,1273.07 936.169,1251.22 936.169,1230.37 C936.169,1217.46 934.183,1202.57 930.873,1183.7 C929.88,1177.08 927.894,1167.15 925.908,1154.24 C958.346,1143.65 982.509,1109.89 982.509,1075.79 C982.509,1025.81 947.092,992.05 898.766,992.05 C895.456,972.19 892.146,952.661 889.167,934.125 C924.253,897.384 948.416,856.009 948.416,803.38 C948.416,773.259 939.148,748.765 933.852,736.849 C925.908,719.968 916.309,708.383 910.351,708.383 C908.034,708.383 897.773,712.355 886.85,725.264 C865.666,750.42 859.708,792.788 859.708,820.592 C859.708,838.466 861.363,854.685 866.99,891.757 C866.659,892.088 849.447,909.631 842.496,915.258 C812.375,943.393 770.669,983.444 770.669,1049.64 C770.669,1111.54 824.622,1160.2 886.188,1160.2 C895.787,1160.2 904.724,1159.21 912.337,1157.88 C918.626,1189.66 922.267,1212.83 922.267,1230.37 C922.267,1264.79 904.724,1283 871.293,1283 C863.349,1283 856.398,1281.34 855.736,1281.34 C855.405,1281.01 854.743,1280.68 854.743,1280.35 C854.743,1279.69 855.405,1279.36 856.398,1279.03 C871.955,1276.71 887.512,1263.47 887.512,1242.29 C887.512,1224.41 873.941,1205.55 849.116,1205.55 C825.946,1205.55 811.051,1224.41 811.051,1246.26"/>
<path class="Clef" d="M909.689,2880.86 C903.069,2882.19 896.78,2882.85 890.491,2882.85 C843.158,2882.85 802.776,2849.75 802.776,2799.77 C802.776,2759.38 831.242,2723.31 860.37,2698.15 C865.997,2693.18 871.293,2688.55 876.258,2683.59 C879.237,2701.46 881.554,2717.02 883.871,2730.59 C853.75,2739.52 833.228,2771.3 833.228,2802.41 C833.228,2825.58 851.433,2857.36 877.913,2857.36 C880.561,2857.36 883.54,2856.04 883.54,2853.06 C883.54,2850.08 880.23,2848.42 876.258,2845.78 C863.349,2837.83 856.067,2829.23 856.067,2813.01 C856.067,2792.82 870.962,2776.6 890.491,2771.96 L909.689,2880.86 M880.561,2540.59 C883.54,2527.35 898.766,2492.6 915.978,2492.6 C920.943,2492.6 928.887,2508.82 928.887,2531.66 C928.887,2566.08 903.4,2591.9 880.561,2614.41 C878.575,2601.17 876.92,2588.26 876.92,2574.36 C876.92,2562.11 877.913,2550.85 880.561,2540.59 M956.691,2819.63 C956.691,2843.13 947.092,2867.29 923.591,2876.89 C916.64,2837.17 907.703,2784.54 905.386,2769.98 C935.176,2769.98 956.691,2790.17 956.691,2819.63 M811.051,2982.48 C811.051,3004.32 827.932,3033.12 872.617,3033.12 C888.174,3033.12 901.745,3029.15 913.661,3021.87 C931.535,3009.29 936.169,2987.44 936.169,2966.59 C936.169,2953.68 934.183,2938.79 930.873,2919.92 C929.88,2913.3 927.894,2903.37 925.908,2890.46 C958.346,2879.87 982.509,2846.11 982.509,2812.01 C982.509,2762.03 947.092,2728.27 898.766,2728.27 C895.456,2708.41 892.146,2688.88 889.167,2670.35 C924.253,2633.6 948.416,2592.23 948.416,2539.6 C948.416,2509.48 939.148,2484.99 933.852,2473.07 C925.908,2456.19 916.309,2444.6 910.351,2444.6 C908.034,2444.6 897.773,2448.58 886.85,2461.48 C865.666,2486.64 859.708,2529.01 859.708,2556.81 C859.708,2574.69 861.363,2590.91 866.99,2627.98 C866.659,2628.31 849.447,2645.85 842.496,2651.48 C812.375,2679.61 770.669,2719.66 770.669,2785.86 C770.669,2847.76 824.622,2896.42 886.188,2896.42 C895.787,2896.42 904.724,2895.43 912.337,2894.1 C918.626,2925.88 922.267,2949.05 922.267,2966.59 C922.267,3001.01 904.724,3019.22 871.293,3019.22 C863.349,3019.22 856.398,3017.56 855.736,3017.56 C855.405,3017.23 854.743,3016.9 854.743,3016.57 C854.743,3015.91 855.405,3015.58 856.398,3015.25 C871.955,3012.93 887.512,2999.69 887.512,2978.51 C887.512,2960.63 873.941,2941.77 849.116,2941.77 C825.946,2941.77 811.051,2960.63 811.051,2982.48"/>
<path class="TimeSig" d="M1172.6,934.529 C1164.33,939.825 1158.37,949.424 1158.37,960.016 C1158.37,961.34 1158.37,962.664 1158.7,963.988 C1160.35,977.559 1171.28,988.151 1184.85,989.806 L1188.49,989.806 C1205.04,989.806 1218.28,976.566 1218.28,960.016 L1218.28,958.03 C1218.28,956.706 1217.95,954.389 1217.62,953.065 C1214.64,938.832 1201.73,908.38 1145.46,908.38 C1073.3,908.38 1065.03,968.291 1065.03,989.806 C1065.03,1029.2 1069.99,1078.51 1152.74,1078.51 C1185.51,1078.51 1211,1059.32 1212.32,1023.9 C1212.32,1022.24 1211.33,1021.25 1209.67,1021.25 L1205.37,1021.25 C1204.05,1021.25 1202.72,1022.58 1202.72,1023.9 C1201.4,1051.37 1181.87,1067.92 1152.74,1067.92 C1123.94,1067.92 1110.04,1052.37 1110.04,1023.24 L1110.04,960.016 C1110.04,941.48 1117.32,920.296 1146.78,920.296 C1162.34,920.296 1169.29,925.923 1172.93,931.55 C1173.26,932.212 1173.26,932.543 1173.26,933.205 C1173.26,933.536 1173.26,934.198 1172.6,934.529"/>
<path class="Rest" d="M8840.55,1794.7 C8840.22,1794.7 8839.56,1794.36 8839.23,1794.36 C8837.24,1794.36 8835.59,1795.36 8834.93,1797.01 C8833.6,1799 8823.34,1818.53 8808.45,1829.45 C8804.14,1832.76 8798.85,1835.08 8793.55,1836.07 C8797.19,1831.77 8799.51,1826.47 8799.51,1820.18 C8799.51,1807.27 8788.92,1796.68 8776.01,1796.68 C8762.77,1796.68 8752.18,1807.27 8752.18,1820.18 C8752.18,1838.06 8769.72,1846.33 8785.28,1846.33 C8802.82,1846.33 8814.4,1838.06 8825.66,1825.81 L8787.92,1943.65 L8796.86,1946.29 L8843.2,1800.32 C8843.53,1799.99 8843.53,1799.33 8843.53,1798.67 C8843.53,1797.01 8842.54,1795.69 8840.55,1794.7"/>
<path class="Beam" fill-rule="evenodd" d="M4216.1,1655.06 L4395.17,1675.73 L4395.17,1717.34 L4216.1,1696.67 L4216.1,1655.06 "/>
<path class="Beam" fill-rule="evenodd" d="M2102.58,952.297 L2278.05,972.966 L2278.05,1014.59 L2102.58,993.921 L2102.58,952.297 "/>
<path class="Beam" fill-rule="evenodd" d="M5133.03,2109.92 L5653.72,2109.92 L5653.72,2151.26 L5133.03,2151.26 L5133.03,2109.92 "/>
<path class="Beam" fill-rule="evenodd" d="M4899.23,787.068 L5409.12,807.737 L5409.12,849.11 L4899.23,828.441 L4899.23,787.068 "/>
<path class="Beam" fill-rule="evenodd" d="M3527.7,2543.97 L4384.45,2523.3 L4384.45,2564.65 L3527.7,2585.32 L3527.7,2543.97 "/>
<path class="Beam" fill-rule="evenodd" d="M1288.25,2481.94 L2145.01,2440.6 L2145.01,2481.99 L1288.25,2523.33 L1288.25,2481.94 "/>
<path class="Beam" fill-rule="evenodd" d="M1189.04,2109.77 L1709.73,2047.77 L1709.73,2089.4 L1189.04,2151.4 L1189.04,2109.77 "/>
<path class="Beam" fill-rule="evenodd" d="M6729.19,2523.31 L7585.95,2523.31 L7585.95,2564.64 L6729.19,2564.64 L6729.19,2523.31 "/>
<path class="Beam" fill-rule="evenodd" d="M8270.63,1138.32 L8446.1,1158.99 L8446.1,1200.61 L8270.63,1179.94 L8270.63,1138.32 "/>
<path class="Beam" fill-rule="evenodd" d="M3266.81,1138.32 L3442.29,1158.99 L3442.29,1200.61 L3266.81,1179.94 L3266.81,1138.32 "/>
<path class="Beam" fill-rule="evenodd" d="M5498.66,2915.97 L6355.42,2977.98 L6355.42,3019.42 L5498.66,2957.41 L5498.66,2915.97 "/>
<path class="Beam" fill-rule="evenodd" d="M1872.27,2006.43 L2392.96,2068.44 L2392.96,2110.07 L1872.27,2048.06 L1872.27,2006.43 "/>
<path class="Beam" fill-rule="evenodd" d="M7106.39,952.297 L7281.86,972.966 L7281.86,1014.59 L7106.39,993.921 L7106.39,952.297 "/>
<path class="Beam" fill-rule="evenodd" d="M7184.49,1675.85 L7705.18,1696.52 L7705.18,1737.89 L7184.49,1717.22 L7184.49,1675.85 "/>
<path class="Beam" fill-rule="evenodd" d="M2843.81,2543.92 L3134.91,2564.59 L3134.91,2606.03 L2843.81,2585.37 L2843.81,2543.92 "/>
<path class="NoteDot" d="M8096.27,1903.23 C8096.27,1912.49 8103.55,1919.78 8112.82,1919.78 C8122.09,1919.78 8129.37,1912.49 8129.37,1903.23 C8129.37,1893.96 8122.09,1886.68 8112.82,1886.68 C8103.55,1886.68 8096.27,1893.96 8096.27,1903.23"/>
<path class="NoteDot" d="M3750.06,952.439 C3750.06,961.707 3757.34,968.989 3766.61,968.989 C3775.88,968.989 3783.16,961.707 3783.16,952.439 C3783.16,943.171 3775.88,935.889 3766.61,935.889 C3757.34,935.889 3750.06,943.171 3750.06,952.439"/>
<path class="NoteDot" d="M2883.26,1903.23 C2883.26,1912.49 2890.54,1919.78 2899.81,1919.78 C2909.08,1919.78 2916.36,1912.49 2916.36,1903.23 C2916.36,1893.96 2909.08,1886.68 2899.81,1886.68 C2890.54,1886.68 2883.26,1893.96 2883.26,1903.23"/>
<path class="NoteDot" d="M4708.64,2688.66 C4708.64,2697.93 4715.92,2705.21 4725.19,2705.21 C4734.45,2705.21 4741.74,2697.93 4741.74,2688.66 C4741.74,2679.39 4734.45,2672.11 4725.19,2672.11 C4715.92,2672.11 4708.64,2679.39 4708.64,2688.66"/>
<path class="NoteDot" d="M8753.87,952.439 C8753.87,961.707 8761.15,968.989 8770.42,968.989 C8779.69,968.989 8786.97,961.707 8786.97,952.439 C8786.97,943.171 8779.69,935.889 8770.42,935.889 C8761.15,935.889 8753.87,943.171 8753.87,952.439"/>
<path class="NoteDot" d="M5965.09,1903.23 C5965.09,1912.49 5972.37,1919.78 5981.64,1919.78 C5990.91,1919.78 5998.19,1912.49 5998.19,1903.23 C5998.19,1893.96 5990.91,1886.68 5981.64,1886.68 C5972.37,1886.68 5965.09,1893.96 5965.09,1903.23"/>
<path class="NoteDot" d="M4463.71,1035.12 C4463.71,1044.38 4470.99,1051.67 4480.26,1051.67 C4489.52,1051.67 4496.81,1044.38 4496.81,1035.12 C4496.81,1025.85 4489.52,1018.57 4480.26,1018.57 C4470.99,1018.57 4463.71,1025.85 4463.71,1035.12"/>
<path class="NoteDot" d="M7500.97,952.439 C7500.97,961.707 7508.25,968.989 7517.52,968.989 C7526.79,968.989 7534.07,961.707 7534.07,952.439 C7534.07,943.171 7526.79,935.889 7517.52,935.889 C7508.25,935.889 7500.97,943.171 7500.97,952.439"/>
<path class="NoteDot" d="M4607.33,1903.23 C4607.33,1912.49 4614.61,1919.78 4623.88,1919.78 C4633.15,1919.78 4640.43,1912.49 4640.43,1903.23 C4640.43,1893.96 4633.15,1886.68 4623.88,1886.68 C4614.61,1886.68 4607.33,1893.96 4607.33,1903.23"/>
<path class="NoteDot" d="M5800.21,1035.12 C5800.21,1044.38 5807.49,1051.67 5816.76,1051.67 C5826.03,1051.67 5833.31,1044.38 5833.31,1035.12 C5833.31,1025.85 5826.03,1018.57 5816.76,1018.57 C5807.49,1018.57 5800.21,1025.85 5800.21,1035.12"/>
<path class="NoteDot" d="M2497.16,952.439 C2497.16,961.707 2504.44,968.989 2513.71,968.989 C2522.97,968.989 2530.26,961.707 2530.26,952.439 C2530.26,943.171 2522.97,935.889 2513.71,935.889 C2504.44,935.889 2497.16,943.171 2497.16,952.439"/>
<path class="NoteDot" d="M6685.58,1903.23 C6685.58,1912.49 6692.87,1919.78 6702.13,1919.78 C6711.4,1919.78 6718.68,1912.49 6718.68,1903.23 C6718.68,1893.96 6711.4,1886.68 6702.13,1886.68 C6692.87,1886.68 6685.58,1893.96 6685.58,1903.23"/>
<path class="NoteDot" d="M8028.35,2936.69 C8028.35,2945.96 8035.64,2953.24 8044.9,2953.24 C8054.17,2953.24 8061.45,2945.96 8061.45,2936.69 C8061.45,2927.42 8054.17,2920.14 8044.9,2920.14 C8035.64,2920.14 8028.35,2927.42 8028.35,2936.69"/>
</svg>
