<?xml version="1.0" encoding="UTF-8" standalone="no"?>
<svg
   width="681"
   height="186.43098"
   version="1.2"
   id="svg228"
   xmlns="http://www.w3.org/2000/svg"
   xmlns:svg="http://www.w3.org/2000/svg"
   xmlns:rdf="http://www.w3.org/1999/02/22-rdf-syntax-ns#"
   xmlns:cc="http://creativecommons.org/ns#"
   xmlns:dc="http://purl.org/dc/elements/1.1/">
  <defs
     id="defs228" />
  <title
     id="title1">air_LIV</title>
  <desc
     id="desc1">Generated by MuseScore Studio 4.7.3</desc>
  <path
     id="path228"
     class="NoteDot"
     d="m 605.6517,33.100552 c 0,0.742108 0.5828,1.324906 1.3249,1.324906 0.74131,0 1.32491,-0.582798 1.32491,-1.324906 0,-0.742107 -0.5836,-1.324905 -1.32491,-1.324905 -0.7421,0 -1.3249,0.582798 -1.3249,1.324905 m -274.10502,0 c 0,0.742108 0.5836,1.324906 1.3249,1.324906 0.74211,0 1.32491,-0.582798 1.32491,-1.324906 0,-0.742107 -0.5828,-1.324905 -1.32491,-1.324905 -0.7413,0 -1.3249,0.582798 -1.3249,1.324905 m 176.94819,62.877393 c 0,0.742107 0.58279,1.324906 1.3249,1.324906 0.74211,0 1.32491,-0.582799 1.32491,-1.324906 0,-0.742108 -0.5828,-1.324906 -1.32491,-1.324906 -0.74211,0 -1.3249,0.582798 -1.3249,1.324906 m -259.33172,0 c 0,0.742107 0.5828,1.324906 1.3249,1.324906 0.74211,0 1.32491,-0.582799 1.32491,-1.324906 0,-0.742108 -0.5828,-1.324906 -1.32491,-1.324906 -0.7421,0 -1.3249,0.582798 -1.3249,1.324906 M 448.62913,44.67967 503.34094,41.371007 v 3.315067 l -54.71181,3.309463 V 44.67967 m 151.31787,107.55274 22.5226,1.65473 v 3.31827 l -22.5226,-1.65473 v -3.31827 M 146.43291,13.237771 l 18.67917,1.654652 v 3.322271 L 146.43291,16.560043 V 13.237771 M 209.49202,4.9643544 228.1712,3.309703 V 6.6319746 L 209.49202,8.286706 V 4.9643544 m -75.73258,104.2434356 17.43752,-1.65473 v 3.32467 l -17.43752,1.65473 v -3.32467 m 250.94438,-6.61893 17.43753,1.65474 v 3.32467 l -17.43753,-1.65473 v -3.32468 M 593.72754,77.7767 h 17.43753 v 3.309462 H 593.72754 V 77.7767 M 82.987126,77.7695 100.42465,76.114768 v 3.323873 L 82.987126,81.093367 V 77.769495 M 652.44209,74.460032 669.87961,72.8053 v 3.323873 l -17.43752,1.654732 v -3.323873 m -594.617766,64.534528 66.243696,4.96419 v 3.31907 l -66.243696,-4.96419 v -3.31907 m 456.144686,3.30946 22.5226,1.65473 v 3.31827 l -22.5226,-1.65473 v -3.31827 M 255.50749,0 310.2201,4.9640341 V 8.2870262 L 255.50749,3.3229921 V 0 m -85.39199,172.08838 22.5226,1.65474 v 3.31827 l -22.5226,-1.65474 v -3.31827 m 267.30437,-102.593343 50.98926,4.964194 v 3.325474 L 437.41987,72.820511 V 69.495037 M 420.53713,8.2737371 439.2163,9.9283885 V 13.25066 L 420.53713,11.596009 V 8.2737371 M 73.392569,9.9348729 H 92.071738 V 13.244256 H 73.392569 V 9.9348729 m 492.252571,3.3028981 18.67917,1.654652 v 3.322271 l -18.67917,-1.654651 v -3.322272 m -301.60942,129.066249 22.5226,1.65473 v 3.31827 l -22.5226,-1.65473 v -3.31827 m 76.51311,1.65473 22.5226,-1.65473 v 3.31827 l -22.5226,1.65473 v -3.31827 m 53.18597,-4.96419 66.24449,4.96419 v 3.31907 l -66.24449,-4.96419 v -3.31907 m -190.03794,-31.4415 17.43752,1.65473 v 3.32467 l -17.43752,-1.65473 v -3.32467 m 130.23465,-29.783565 17.43752,-1.654732 v 3.323873 l -17.43752,1.654731 V 77.769495 M 48.565194,18.429081 c -0.662053,0.42397 -1.139179,1.192415 -1.139179,2.040355 0,0.105992 0,0.211985 0.02642,0.317977 0.132891,1.086423 1.007088,1.934363 2.093431,2.066854 h 0.291399 c 1.324906,0 2.384831,-1.059925 2.384831,-2.384831 v -0.158989 c 0,-0.105992 -0.02642,-0.291479 -0.05284,-0.397472 -0.238563,-1.139419 -1.27207,-3.577245 -5.77675,-3.577245 -5.77675,0 -6.438803,4.796159 -6.438803,6.518537 0,3.153436 0.397072,7.101735 7.021601,7.101735 2.623394,0 4.663989,-1.537051 4.769662,-4.372589 0,-0.132091 -0.07926,-0.212145 -0.212145,-0.212145 h -0.344236 c -0.105672,0 -0.212145,0.106472 -0.212145,0.212145 -0.105672,2.199904 -1.669141,3.52481 -4.001136,3.52481 -2.304775,0 -3.418337,-1.245652 -3.418337,-3.577647 v -5.06114 c 0,-1.483895 0.583599,-3.179774 2.941211,-3.179774 1.245652,0 1.802032,0.450468 2.093432,0.900936 0.02642,0.053 0.02642,0.07949 0.02642,0.13249 0,0.0265 0,0.0795 -0.05284,0.105993 M 28.940575,7.9740122 31.298988,7.4970461 V 11.869236 L 28.940575,12.3727 V 7.9740122 m 4.107609,-0.8214416 c 0.159309,-0.026498 0.291399,-0.211985 0.291399,-0.3709737 v -1.563389 c 0,-0.2119849 -0.159309,-0.3709736 -0.370653,-0.3709736 H 32.91529 L 32.041095,5.0327211 V 1.0845015 H 31.298988 V 5.1917098 L 28.940575,5.6686759 V 1.9324413 h -0.741307 v 3.8952234 l -1.033506,0.2119849 c -0.159309,0.026498 -0.2914,0.2119849 -0.2914,0.3709736 v 1.5368909 c 0,0.2119849 0.158509,0.3709736 0.370654,0.3709736 h 0.07925 L 28.199268,8.1330009 V 12.50519 l -1.033506,0.211985 c -0.159309,0.0265 -0.2914,0.211985 -0.2914,0.370974 v 1.536891 c 0,0.211985 0.158509,0.370973 0.370654,0.370973 h 0.07925 l 0.874998,-0.185486 v 3.948219 h 0.741307 v -4.107208 l 2.358413,-0.476966 v 3.736234 h 0.742107 v -3.895223 l 1.007089,-0.185487 c 0.159309,-0.0265 0.291399,-0.211985 0.291399,-0.370973 v -1.563389 c 0,-0.211985 -0.159309,-0.370974 -0.370653,-0.370974 h -0.05364 l -0.874198,0.185487 V 7.3380574 l 1.007089,-0.1854868 m -4.107609,139.8138394 2.358413,-0.47633 v 4.37179 l -2.358413,0.50355 v -4.39901 m 4.107609,-0.82136 c 0.159309,-0.0264 0.291399,-0.21215 0.291399,-0.37066 v -1.56347 c 0,-0.21214 -0.159309,-0.37065 -0.370653,-0.37065 h -0.05364 l -0.874198,0.18493 v -3.9483 h -0.742107 v 4.10761 l -2.358413,0.47712 v -3.73615 h -0.741307 v 3.89466 l -1.033506,0.21215 c -0.159309,0.0264 -0.2914,0.21214 -0.2914,0.37065 v 1.53705 c 0,0.21214 0.158509,0.37145 0.370654,0.37145 h 0.07925 l 0.874998,-0.18572 v 4.37179 l -1.033506,0.21214 c -0.159309,0.0264 -0.2914,0.21215 -0.2914,0.37146 v 1.53625 c 0,0.21214 0.158509,0.37145 0.370654,0.37145 h 0.07925 l 0.874998,-0.18573 v 3.9483 h 0.741307 v -4.10681 l 2.358413,-0.47712 v 3.73615 h 0.742107 v -3.89546 l 1.007089,-0.18573 c 0.159309,-0.0264 0.291399,-0.21134 0.291399,-0.37065 v -1.56347 c 0,-0.21215 -0.159309,-0.37065 -0.370653,-0.37065 h -0.05364 l -0.874198,0.18492 v -4.37179 l 1.007089,-0.18572 m -4.107609,-68.67496 2.358413,-0.476326 v 4.371789 l -2.358413,0.503545 V 77.47009 m 4.107609,-0.821362 c 0.159309,-0.02642 0.291399,-0.212145 0.291399,-0.370653 v -1.563469 c 0,-0.212145 -0.159309,-0.370654 -0.370653,-0.370654 h -0.05364 l -0.874198,0.184927 v -3.9483 h -0.742107 v 4.107609 l -2.358413,0.477126 V 71.42916 h -0.741307 v 3.894662 l -1.033506,0.212146 c -0.159309,0.02642 -0.2914,0.212145 -0.2914,0.370653 v 1.537051 c 0,0.212145 0.158509,0.371454 0.370654,0.371454 h 0.07925 l 0.874998,-0.185727 v 4.371789 l -1.033506,0.212145 c -0.159309,0.02642 -0.2914,0.212145 -0.2914,0.371454 v 1.536251 c 0,0.212145 0.158509,0.371454 0.370654,0.371454 h 0.07925 l 0.874998,-0.185727 v 3.948299 h 0.741307 v -4.106808 l 2.358413,-0.477126 v 3.736155 h 0.742107 v -3.895464 l 1.007089,-0.185727 c 0.159309,-0.02642 0.291399,-0.211345 0.291399,-0.370653 v -1.563469 c 0,-0.212146 -0.159309,-0.370654 -0.370653,-0.370654 h -0.05364 l -0.874198,0.184927 v -4.37179 l 1.007089,-0.185727 M 16.093311,35.249222 c -0.529962,0.106472 -1.033427,0.159308 -1.536891,0.159308 -3.789231,0 -7.0220012,-2.649811 -7.0220012,-6.650947 0,-3.23261 2.2788382,-6.121145 4.6106722,-8.135002 0.450468,-0.397472 0.874438,-0.768446 1.27191,-1.165918 0.238483,1.430899 0.42397,2.67631 0.609457,3.762733 -2.411329,0.71569 -4.0542123,3.259029 -4.0542123,5.750332 0,1.854868 1.4573963,4.398207 3.5772463,4.398207 0.211985,0 0.450468,-0.105672 0.450468,-0.344235 0,-0.238563 -0.264982,-0.370654 -0.582959,-0.582799 -1.033427,-0.636435 -1.616385,-1.324906 -1.616385,-2.623393 0,-1.616306 1.192415,-2.914793 2.755804,-3.285447 l 1.536891,8.717161 M 13.761477,8.0094765 c 0.238483,-1.0599248 1.457396,-3.8422272 2.835298,-3.8422272 0.397472,0 1.033427,1.2984078 1.033427,3.126778 0,2.7558047 -2.040355,4.8226577 -3.868725,6.6245297 -0.158989,-1.059925 -0.29148,-2.093352 -0.29148,-3.206273 0,-0.9804299 0.0795,-1.8813659 0.29148,-2.7028075 M 19.856044,30.34747 c 0,1.881286 -0.768446,3.815409 -2.649812,4.583934 -0.556461,-3.179774 -1.27191,-7.393055 -1.457397,-8.558652 2.384831,0 4.107209,1.616305 4.107209,3.974718 M 8.1968718,43.384384 c 0,1.749196 1.351404,4.053972 4.9286502,4.053972 1.245411,0 2.331834,-0.317817 3.285766,-0.900616 1.430899,-1.007089 1.801872,-2.755484 1.801872,-4.425426 0,-1.033506 -0.158988,-2.225522 -0.423969,-3.736154 -0.07949,-0.529963 -0.238484,-1.324906 -0.397472,-2.358413 2.596815,-0.84778 4.531178,-3.550428 4.531178,-6.279494 0,-4.001135 -2.835299,-6.704344 -6.704024,-6.704344 -0.264981,-1.589887 -0.529962,-3.153276 -0.768445,-4.63717 2.8088,-2.941291 4.743163,-6.253556 4.743163,-10.4667569 0,-2.4113287 -0.741948,-4.3721895 -1.165917,-5.3261217 -0.635955,-1.351404 -1.404401,-2.27883817 -1.881367,-2.27883817 -0.185487,0 -1.006928,0.31797742 -1.881366,1.35140407 -1.69588,2.0138569 -2.172846,5.405616 -2.172846,7.6314579 0,1.4308988 0.132491,2.7293058 0.582959,5.6970958 -0.0265,0.0265 -1.404401,1.430898 -1.960861,1.881366 -2.4113287,2.25234 -5.7500916,5.458612 -5.7500916,10.758476 0,4.954588 4.3191932,8.850051 9.2478436,8.850051 0.768445,0 1.483894,-0.07925 2.093351,-0.185727 0.503464,2.54414 0.794943,4.399008 0.794943,5.803168 0,2.756285 -1.4044,4.213281 -4.08071,4.213281 -0.635955,0 -1.192415,-0.13209 -1.245411,-0.13209 -0.0265,-0.02642 -0.07949,-0.05284 -0.07949,-0.08006 0,-0.05284 0.053,-0.07925 0.132491,-0.105672 1.245412,-0.185727 2.490823,-1.245652 2.490823,-2.941211 0,-1.430578 -1.086423,-2.941211 -3.073782,-2.941211 -1.8548679,0 -3.0472832,1.510633 -3.0472832,3.259028 M 16.093311,174.24186 c -0.529962,0.10647 -1.033427,0.15931 -1.536891,0.15931 -3.789231,0 -7.0220012,-2.64982 -7.0220012,-6.65095 0,-3.23261 2.2788382,-6.12099 4.6106722,-8.13516 0.450468,-0.39708 0.874438,-0.76853 1.27191,-1.1656 0.238483,1.43058 0.42397,2.67623 0.609457,3.76257 -2.411329,0.71569 -4.0542123,3.25903 -4.0542123,5.75033 0,1.85487 1.4573963,4.39821 3.5772463,4.39821 0.211985,0 0.450468,-0.10567 0.450468,-0.34423 0,-0.23857 -0.264982,-0.37066 -0.582959,-0.5828 -1.033427,-0.63644 -1.616385,-1.32491 -1.616385,-2.6234 0,-1.6163 1.192415,-2.91479 2.755804,-3.28544 l 1.536891,8.71716 m -2.331834,-27.23943 c 0.238483,-1.05992 1.457396,-3.84262 2.835298,-3.84262 0.397472,0 1.033427,1.29848 1.033427,3.12693 0,2.75549 -2.040355,4.8225 -3.868725,6.62453 -0.158989,-1.05992 -0.29148,-2.09343 -0.29148,-3.20619 0,-0.98067 0.0795,-1.88129 0.29148,-2.70265 m 6.094567,22.33768 c 0,1.88128 -0.768446,3.8154 -2.649812,4.58393 -0.556461,-3.17977 -1.27191,-7.39305 -1.457397,-8.55865 2.384831,0 4.107209,1.6163 4.107209,3.97472 M 8.1968718,182.37702 c 0,1.7492 1.351404,4.05397 4.9286502,4.05397 1.245411,0 2.331834,-0.31782 3.285766,-0.90061 1.430899,-1.00709 1.801872,-2.75549 1.801872,-4.42543 0,-1.03351 -0.158988,-2.22552 -0.423969,-3.73615 -0.07949,-0.52997 -0.238484,-1.32491 -0.397472,-2.35842 2.596815,-0.84778 4.531178,-3.55042 4.531178,-6.27949 0,-4.00114 -2.835299,-6.70458 -6.704024,-6.70458 -0.264981,-1.58989 -0.529962,-3.15336 -0.768445,-4.63678 2.8088,-2.94121 4.743163,-6.25387 4.743163,-10.46715 0,-2.41125 -0.741948,-4.37179 -1.165917,-5.32604 -0.635955,-1.35133 -1.404401,-2.27836 -1.881367,-2.27836 -0.185487,0 -1.006928,0.31782 -1.881366,1.35132 -1.69588,2.01338 -2.172846,5.4053 -2.172846,7.63162 0,1.43058 0.132491,2.72907 0.582959,5.6967 -0.0265,0.0264 -1.404401,1.43057 -1.960861,1.88128 -2.4113287,2.25274 -5.7500916,5.45893 -5.7500916,10.75856 0,4.95459 4.3191932,8.85005 9.2478436,8.85005 0.768445,0 1.483894,-0.0793 2.093351,-0.18573 0.503464,2.54414 0.794943,4.39901 0.794943,5.80317 0,2.75628 -1.4044,4.21328 -4.08071,4.21328 -0.635955,0 -1.192415,-0.13209 -1.245411,-0.13209 -0.0265,-0.0264 -0.07949,-0.0528 -0.07949,-0.08 0,-0.0528 0.053,-0.0793 0.132491,-0.10568 1.245412,-0.18572 2.490823,-1.24565 2.490823,-2.94121 0,-1.43058 -1.086423,-2.94121 -3.073782,-2.94121 -1.8548679,0 -3.0472832,1.51063 -3.0472832,3.25903 m 7.8964392,-77.63148 c -0.529962,0.10647 -1.033427,0.15931 -1.536891,0.15931 -3.789231,0 -7.0220012,-2.64981 -7.0220012,-6.650949 0,-3.23261 2.2788382,-6.120985 4.6106722,-8.135163 0.450468,-0.397071 0.874438,-0.768525 1.27191,-1.165597 0.238483,1.430579 0.42397,2.67623 0.609457,3.762573 -2.411329,0.715689 -4.0542123,3.259028 -4.0542123,5.750332 0,1.854864 1.4573963,4.398204 3.5772463,4.398204 0.211985,0 0.450468,-0.10567 0.450468,-0.34423 0,-0.23857 -0.264982,-0.37066 -0.582959,-0.5828 -1.033427,-0.63644 -1.616385,-1.32491 -1.616385,-2.623394 0,-1.616306 1.192415,-2.914793 2.755804,-3.285447 l 1.536891,8.717161 M 13.761477,77.506115 c 0.238483,-1.059925 1.457396,-3.842628 2.835298,-3.842628 0.397472,0 1.033427,1.298488 1.033427,3.126938 0,2.755484 -2.040355,4.822498 -3.868725,6.62453 -0.158989,-1.059925 -0.29148,-2.093432 -0.29148,-3.206192 0,-0.980671 0.0795,-1.881287 0.29148,-2.702648 m 6.094567,22.337673 c 0,1.881282 -0.768446,3.815412 -2.649812,4.583932 -0.556461,-3.17977 -1.27191,-7.393053 -1.457397,-8.55865 2.384831,0 4.107209,1.616305 4.107209,3.974718 M 8.1968718,112.8807 c 0,1.7492 1.351404,4.05397 4.9286502,4.05397 1.245411,0 2.331834,-0.31781 3.285766,-0.90061 1.430899,-1.00709 1.801872,-2.75549 1.801872,-4.42543 0,-1.0335 -0.158988,-2.22552 -0.423969,-3.73615 -0.07949,-0.52996 -0.238484,-1.32491 -0.397472,-2.35842 2.596815,-0.84777 4.531178,-3.55042 4.531178,-6.279489 0,-4.001135 -2.835299,-6.704584 -6.704024,-6.704584 -0.264981,-1.589887 -0.529962,-3.153356 -0.768445,-4.63677 2.8088,-2.941211 4.743163,-6.253876 4.743163,-10.467157 0,-2.411249 -0.741948,-4.371789 -1.165917,-5.326042 -0.635955,-1.351324 -1.404401,-2.278358 -1.881367,-2.278358 -0.185487,0 -1.006928,0.317818 -1.881366,1.351324 -1.69588,2.013377 -2.172846,5.405296 -2.172846,7.631618 0,1.430579 0.132491,2.729066 0.582959,5.696696 -0.0265,0.02642 -1.404401,1.430578 -1.960861,1.881286 -2.4113287,2.25274 -5.7500916,5.458932 -5.7500916,10.758556 0,4.95459 4.3191932,8.85005 9.2478436,8.85005 0.768445,0 1.483894,-0.0793 2.093351,-0.18573 0.503464,2.54414 0.794943,4.39901 0.794943,5.80317 0,2.75629 -1.4044,4.21328 -4.08071,4.21328 -0.635955,0 -1.192415,-0.13209 -1.245411,-0.13209 -0.0265,-0.0264 -0.07949,-0.0528 -0.07949,-0.08 0,-0.0528 0.053,-0.0793 0.132491,-0.10567 1.245412,-0.18573 2.490823,-1.24566 2.490823,-2.94122 0,-1.43057 -1.086423,-2.94121 -3.073782,-2.94121 -1.8548679,0 -3.0472832,1.51064 -3.0472832,3.25903 M 407.65312,163.27756 c 0,1.13998 0.82136,2.41125 2.96762,2.41125 2.75629,0 5.64466,-2.25194 5.64466,-4.58393 0,-1.56347 -1.3249,-2.43767 -2.96843,-2.43767 -2.56975,0 -5.64385,2.17268 -5.64385,4.61035 M 265.58157,24.284925 c 0,1.139979 0.82137,2.411248 2.96763,2.411248 2.75629,0 5.64466,-2.251939 5.64466,-4.583854 0,-1.563389 -1.3249,-2.437827 -2.96843,-2.437827 -2.56975,0 -5.64386,2.172846 -5.64386,4.610433 m 34.23301,145.611565 c 0,1.13918 0.82136,2.41124 2.96843,2.41124 2.75549,0 5.64386,-2.25193 5.64386,-4.58393 0,-1.56347 -1.32491,-2.43767 -2.96763,-2.43767 -2.57056,0 -5.64466,2.17269 -5.64466,4.61036 M 530.67723,30.90385 c 0,1.139179 0.82217,2.411249 2.96843,2.411249 2.75549,0 5.64386,-2.25194 5.64386,-4.583934 0,-1.563469 -1.3249,-2.437667 -2.96763,-2.437667 -2.57055,0 -5.64466,2.172686 -5.64466,4.610352 m -252.7232,135.68317 c 0,1.13998 0.82137,2.41125 2.96763,2.41125 2.75629,0 5.64466,-2.25194 5.64466,-4.58393 0,-1.56347 -1.3249,-2.43767 -2.96843,-2.43767 -2.56975,0 -5.64386,2.17269 -5.64386,4.61035 M 557.70291,34.213313 c 0,1.139179 0.82136,2.411249 2.96763,2.411249 2.75629,0 5.64386,-2.25194 5.64386,-4.583934 0,-1.563469 -1.32491,-2.437667 -2.96763,-2.437667 -2.56976,0 -5.64386,2.172686 -5.64386,4.610352 M 429.51366,166.58702 c 0,1.13998 0.82136,2.41125 2.96843,2.41125 2.75549,0 5.64386,-2.25194 5.64386,-4.58393 0,-1.56347 -1.3249,-2.43767 -2.96763,-2.43767 -2.57056,0 -5.64466,2.17269 -5.64466,4.61035 m -173.42017,-3.30946 c 0,1.13998 0.82136,2.41125 2.96763,2.41125 2.75548,0 5.64386,-2.25194 5.64386,-4.58393 0,-1.56347 -1.32491,-2.43767 -2.96763,-2.43767 -2.57056,0 -5.64386,2.17268 -5.64386,4.61035 M 430.61201,34.213313 c 0,1.139179 0.82137,2.411249 2.96763,2.411249 2.75549,0 5.64386,-2.25194 5.64386,-4.583934 0,-1.563469 -1.3249,-2.437667 -2.96763,-2.437667 -2.57055,0 -5.64386,2.172686 -5.64386,4.610352 M 223.30227,153.34997 c 0,1.13918 0.82136,2.41125 2.96763,2.41125 2.75548,0 5.64385,-2.25274 5.64385,-4.58393 0,-1.56347 -1.3249,-2.43847 -2.96762,-2.43847 -2.57056,0 -5.64386,2.17349 -5.64386,4.61115 M 575.72003,37.522776 c 0,1.139179 0.82136,2.411249 2.96763,2.411249 2.75548,0 5.64386,-2.252741 5.64386,-4.583934 0,-1.563469 -1.32491,-2.438468 -2.96763,-2.438468 -2.57056,0 -5.64386,2.173486 -5.64386,4.611153 M 65.450339,34.213313 c 0,1.139179 0.821361,2.411249 2.967629,2.411249 2.755484,0 5.643859,-2.25194 5.643859,-4.583934 0,-1.563469 -1.324906,-2.437667 -2.967629,-2.437667 -2.570558,0 -5.643859,2.172686 -5.643859,4.610352 M 451.37501,169.89649 c 0,1.13918 0.82136,2.41124 2.96763,2.41124 2.75548,0 5.64386,-2.25193 5.64386,-4.58393 0,-1.56347 -1.32491,-2.43767 -2.96763,-2.43767 -2.57056,0 -5.64386,2.17269 -5.64386,4.61036 M 593.73635,37.522776 c 0,1.139179 0.82216,2.411249 2.96843,2.411249 2.75548,0 5.64386,-2.252741 5.64386,-4.583934 0,-1.563469 -1.32491,-2.438468 -2.96763,-2.438468 -2.57056,0 -5.64466,2.173486 -5.64466,4.611153 M 191.97685,156.65944 c 0,1.13917 0.82136,2.41124 2.96763,2.41124 2.75548,0 5.64386,-2.25274 5.64386,-4.58473 0,-1.56267 -1.32491,-2.43767 -2.96763,-2.43767 -2.57056,0 -5.64386,2.17269 -5.64386,4.61116 m 281.25871,16.54651 c 0,1.13918 0.82136,2.41125 2.96763,2.41125 2.75628,0 5.64386,-2.25194 5.64386,-4.58394 0,-1.56347 -1.32491,-2.43766 -2.96763,-2.43766 -2.56976,0 -5.64386,2.17268 -5.64386,4.61035 M 412.59489,30.90385 c 0,1.139179 0.82137,2.411249 2.96763,2.411249 2.75629,0 5.64466,-2.25194 5.64466,-4.583934 0,-1.563469 -1.3249,-2.437667 -2.96843,-2.437667 -2.56975,0 -5.64386,2.172686 -5.64386,4.610352 M 170.1155,153.34997 c 0,1.13918 0.82216,2.41125 2.96843,2.41125 2.75548,0 5.64386,-2.25274 5.64386,-4.58393 0,-1.56347 -1.32491,-2.43847 -2.96763,-2.43847 -2.57056,0 -5.64466,2.17349 -5.64466,4.61115 m 335.91128,9.92759 c 0,1.13998 0.82136,2.41125 2.96763,2.41125 2.75548,0 5.64386,-2.25194 5.64386,-4.58393 0,-1.56347 -1.32491,-2.43767 -2.96763,-2.43767 -2.57056,0 -5.64386,2.17268 -5.64386,4.61035 m -368.7025,9.92839 c 0,1.13918 0.82216,2.41125 2.96843,2.41125 2.75548,0 5.64386,-2.25194 5.64386,-4.58394 0,-1.56347 -1.32491,-2.43766 -2.96763,-2.43766 -2.57056,0 -5.64466,2.17268 -5.64466,4.61035 M 247.56446,20.975862 c 0,1.139419 0.82216,2.411649 2.96843,2.411649 2.75548,0 5.64385,-2.25266 5.64385,-4.584494 0,-1.563389 -1.3249,-2.437827 -2.96762,-2.437827 -2.57056,0 -5.64466,2.172845 -5.64466,4.610672 M 115.46373,169.89649 c 0,1.13918 0.82136,2.41124 2.96763,2.41124 2.75629,0 5.64466,-2.25193 5.64466,-4.58393 0,-1.56347 -1.32491,-2.43767 -2.96843,-2.43767 -2.56976,0 -5.64386,2.17269 -5.64386,4.61036 M 657.59521,34.213313 c 0,1.139179 0.82136,2.411249 2.96763,2.411249 2.75629,0 5.64466,-2.25194 5.64466,-4.583934 0,-1.563469 -1.3249,-2.437667 -2.96763,-2.437667 -2.57056,0 -5.64466,2.172686 -5.64466,4.610352 M 93.603185,166.58702 c 0,1.13998 0.821362,2.41125 2.967629,2.41125 2.755484,0 5.643856,-2.25194 5.643856,-4.58393 0,-1.56347 -1.3249,-2.43767 -2.967626,-2.43767 -2.570558,0 -5.643859,2.17269 -5.643859,4.61035 M 219.56691,24.284925 c 0,1.139979 0.82136,2.411248 2.96763,2.411248 2.75549,0 5.64386,-2.251939 5.64386,-4.583854 0,-1.563389 -1.32491,-2.437827 -2.96763,-2.437827 -2.57056,0 -5.64386,2.172846 -5.64386,4.610433 M 71.742641,163.27756 c 0,1.13998 0.821362,2.41125 2.967629,2.41125 2.755484,0 5.643856,-2.25194 5.643856,-4.58393 0,-1.56347 -1.324903,-2.43767 -2.967626,-2.43767 -2.570558,0 -5.643859,2.17268 -5.643859,4.61035 M 448.62913,30.90385 c 0,1.139179 0.82136,2.411249 2.96763,2.411249 2.75549,0 5.64386,-2.25194 5.64386,-4.583934 0,-1.563469 -1.3249,-2.437667 -2.96763,-2.437667 -2.57056,0 -5.64386,2.172686 -5.64386,4.610352 m -63.05911,-3.309462 c 0,1.139179 0.82136,2.411248 2.96763,2.411248 2.75548,0 5.64385,-2.251939 5.64385,-4.583934 0,-1.563469 -1.3249,-2.437827 -2.96762,-2.437827 -2.57056,0 -5.64386,2.172846 -5.64386,4.610513 M 49.881293,159.9689 c 0,1.13918 0.821362,2.41125 2.96763,2.41125 2.756284,0 5.644659,-2.25274 5.644659,-4.58474 0,-1.56347 -1.324906,-2.43766 -2.967629,-2.43766 -2.570558,0 -5.64466,2.17268 -5.64466,4.61115 M 502.67969,24.284925 c 0,1.139979 0.82136,2.411248 2.96763,2.411248 2.75548,0 5.64386,-2.251939 5.64386,-4.583854 0,-1.563389 -1.32491,-2.437827 -2.96763,-2.437827 -2.57056,0 -5.64386,2.172846 -5.64386,4.610433 M 354.46715,163.27756 c 0,1.13998 0.82136,2.41125 2.96763,2.41125 2.75548,0 5.64386,-2.25194 5.64386,-4.58393 0,-1.56347 -1.32491,-2.43767 -2.96763,-2.43767 -2.57056,0 -5.64386,2.17268 -5.64386,4.61035 M 484.66257,14.357177 c 0,1.139419 0.82136,2.411328 2.96763,2.411328 2.75628,0 5.64386,-2.25234 5.64386,-4.584174 0,-1.563389 -1.32491,-2.4378269 -2.96763,-2.4378269 -2.56976,0 -5.64386,2.1728459 -5.64386,4.6106729 M 83.467455,34.213313 c 0,1.139179 0.821361,2.411249 2.967629,2.411249 2.755484,0 5.643859,-2.25194 5.643859,-4.583934 0,-1.563469 -1.324906,-2.437667 -2.967629,-2.437667 -2.570558,0 -5.643859,2.172686 -5.643859,4.610352 M 49.881293,100.40017 c 0,1.13918 0.821362,2.41125 2.96763,2.41125 2.756284,0 5.644659,-2.25194 5.644659,-4.583937 0,-1.563469 -1.324906,-2.437667 -2.967629,-2.437667 -2.570558,0 -5.64466,2.172686 -5.64466,4.610354 M 661.27533,93.781243 c 0,1.139979 0.82136,2.411248 2.96763,2.411248 2.75628,0 5.64386,-2.251939 5.64386,-4.583934 0,-1.563469 -1.32491,-2.437667 -2.96763,-2.437667 -2.56976,0 -5.64386,2.172686 -5.64386,4.610353 M 75.044899,100.40017 c 0,1.13918 0.821362,2.41125 2.967629,2.41125 2.756281,0 5.644656,-2.25194 5.644656,-4.583937 0,-1.563469 -1.324906,-2.437667 -2.968429,-2.437667 -2.569754,0 -5.643856,2.172686 -5.643856,4.610354 m 452.842431,66.18685 c 0,1.13998 0.82136,2.41125 2.96762,2.41125 2.75629,0 5.64466,-2.25194 5.64466,-4.58393 0,-1.56347 -1.3249,-2.43767 -2.96843,-2.43767 -2.56975,0 -5.64385,2.17269 -5.64385,4.61035 M 644.49986,97.090706 c 0,1.139979 0.82136,2.411248 2.96763,2.411248 2.75548,0 5.64386,-2.25194 5.64386,-4.583934 0,-1.563469 -1.32491,-2.437667 -2.96763,-2.437667 -2.57056,0 -5.64386,2.172686 -5.64386,4.610353 M 283.59869,27.594388 c 0,1.139179 0.82137,2.411248 2.96763,2.411248 2.75549,0 5.64386,-2.251939 5.64386,-4.583934 0,-1.563469 -1.3249,-2.437827 -2.96763,-2.437827 -2.57055,0 -5.64386,2.172846 -5.64386,4.610513 m 335.73756,69.496318 c 0,1.139979 0.82137,2.411248 2.96763,2.411248 2.75629,0 5.64386,-2.25194 5.64386,-4.583934 0,-1.563469 -1.3249,-2.437667 -2.96763,-2.437667 -2.56975,0 -5.64386,2.172686 -5.64386,4.610353 m -527.515884,0 c 0,1.139979 0.821362,2.411248 2.96843,2.411248 2.755484,0 5.643854,-2.25194 5.643854,-4.583934 0,-1.563469 -1.324901,-2.437667 -2.967625,-2.437667 -2.570557,0 -5.644659,2.172686 -5.644659,4.610353 m 510.740414,3.309464 c 0,1.13918 0.82136,2.41125 2.96763,2.41125 2.75549,0 5.64386,-2.25194 5.64386,-4.583937 0,-1.563469 -1.3249,-2.437667 -2.96763,-2.437667 -2.57056,0 -5.64386,2.172686 -5.64386,4.610354 M 108.59664,93.781243 c 0,1.139979 0.82136,2.411248 2.96763,2.411248 2.75548,0 5.64385,-2.251939 5.64385,-4.583934 0,-1.563469 -1.3249,-2.437667 -2.96762,-2.437667 -2.57056,0 -5.64386,2.172686 -5.64386,4.610353 M 353.89156,30.90385 c 0,1.139179 0.82136,2.411249 2.96763,2.411249 2.75628,0 5.64466,-2.25194 5.64466,-4.583934 0,-1.563469 -1.32491,-2.437667 -2.96843,-2.437667 -2.56976,0 -5.64386,2.172686 -5.64386,4.610352 m 231.89295,69.49632 c 0,1.13918 0.82216,2.41125 2.96843,2.41125 2.75549,0 5.64386,-2.25194 5.64386,-4.583937 0,-1.563469 -1.3249,-2.437667 -2.96763,-2.437667 -2.57056,0 -5.64466,2.172686 -5.64466,4.610354 M 133.75944,93.781243 c 0,1.139979 0.82216,2.411248 2.96843,2.411248 2.75549,0 5.64386,-2.251939 5.64386,-4.583934 0,-1.563469 -1.32491,-2.437667 -2.96763,-2.437667 -2.57056,0 -5.64466,2.172686 -5.64466,4.610353 M 111.465,30.90385 c 0,1.139179 0.82136,2.411249 2.96843,2.411249 2.75548,0 5.64386,-2.25194 5.64386,-4.583934 0,-1.563469 -1.32491,-2.437667 -2.96763,-2.437667 -2.57056,0 -5.64466,2.172686 -5.64466,4.610352 m 449.15671,69.49632 c 0,1.13918 0.82136,2.41125 2.96763,2.41125 2.75548,0 5.64386,-2.25194 5.64386,-4.583937 0,-1.563469 -1.32491,-2.437667 -2.96763,-2.437667 -2.57056,0 -5.64386,2.172686 -5.64386,4.610354 m -1.40897,69.49632 c 0,1.13918 0.82137,2.41124 2.96763,2.41124 2.75629,0 5.64466,-2.25193 5.64466,-4.58393 0,-1.56347 -1.3249,-2.43767 -2.96763,-2.43767 -2.57055,0 -5.64466,2.17269 -5.64466,4.61036 M 150.53571,90.47178 c 0,1.139979 0.82136,2.412049 2.96763,2.412049 2.75549,0 5.64386,-2.25274 5.64386,-4.584735 0,-1.563469 -1.32491,-2.437666 -2.96763,-2.437666 -2.57056,0 -5.64386,2.172685 -5.64386,4.610352 M 138.49068,34.213313 c 0,1.139179 0.82136,2.411249 2.96763,2.411249 2.75628,0 5.64385,-2.25194 5.64385,-4.583934 0,-1.563469 -1.3249,-2.437667 -2.96762,-2.437667 -2.56976,0 -5.64386,2.172686 -5.64386,4.610352 m 389.98825,59.56793 c 0,1.139979 0.82136,2.411248 2.96763,2.411248 2.75628,0 5.64466,-2.251939 5.64466,-4.583934 0,-1.563469 -1.32491,-2.437667 -2.96763,-2.437667 -2.57056,0 -5.64466,2.172686 -5.64466,4.610353 m -208.8468,-59.56793 c 0,1.139179 0.82136,2.411249 2.96763,2.411249 2.75629,0 5.64466,-2.25194 5.64466,-4.583934 0,-1.563469 -1.32491,-2.437667 -2.96763,-2.437667 -2.57056,0 -5.64466,2.172686 -5.64466,4.610352 M 201.54979,27.594388 c 0,1.139179 0.82136,2.411248 2.96763,2.411248 2.75629,0 5.64386,-2.251939 5.64386,-4.583934 0,-1.563469 -1.3249,-2.437827 -2.96763,-2.437827 -2.56975,0 -5.64386,2.172846 -5.64386,4.610513 M 592.00397,173.20595 c 0,1.13918 0.82136,2.41125 2.96762,2.41125 2.75629,0 5.64466,-2.25194 5.64466,-4.58394 0,-1.56347 -1.3249,-2.43766 -2.96763,-2.43766 -2.57055,0 -5.64465,2.17268 -5.64465,4.61035 m -95.42365,-72.80578 c 0,1.13918 0.82136,2.41125 2.96763,2.41125 2.75548,0 5.64386,-2.25194 5.64386,-4.583937 0,-1.563469 -1.32491,-2.437667 -2.96763,-2.437667 -2.57056,0 -5.64386,2.172686 -5.64386,4.610354 M 178.53326,87.163118 c 0,1.139178 0.82216,2.411248 2.96843,2.411248 2.75548,0 5.64385,-2.25274 5.64385,-4.584735 0,-1.562668 -1.3249,-2.437666 -2.96762,-2.437666 -2.57056,0 -5.64466,2.172685 -5.64466,4.611153 m 301.27159,13.237052 c 0,1.13918 0.82136,2.41125 2.96763,2.41125 2.75548,0 5.64386,-2.25194 5.64386,-4.583937 0,-1.563469 -1.32491,-2.437667 -2.96763,-2.437667 -2.57056,0 -5.64386,2.172686 -5.64386,4.610354 M 203.69686,90.47178 c 0,1.139979 0.82136,2.412049 2.96763,2.412049 2.75628,0 5.64466,-2.25274 5.64466,-4.584735 0,-1.563469 -1.32491,-2.437666 -2.96763,-2.437666 -2.57056,0 -5.64466,2.172685 -5.64466,4.610352 m 259.33172,6.618926 c 0,1.139979 0.82136,2.411248 2.96763,2.411248 2.75628,0 5.64466,-2.25194 5.64466,-4.583934 0,-1.563469 -1.32491,-2.437667 -2.96763,-2.437667 -2.57056,0 -5.64466,2.172686 -5.64466,4.610353 M 301.61581,30.90385 c 0,1.139179 0.82136,2.411249 2.96763,2.411249 2.75549,0 5.64386,-2.25194 5.64386,-4.583934 0,-1.563469 -1.3249,-2.437667 -2.96763,-2.437667 -2.57056,0 -5.64386,2.172686 -5.64386,4.610352 m 144.6373,62.877393 c 0,1.139979 0.82136,2.411248 2.96763,2.411248 2.75628,0 5.64466,-2.251939 5.64466,-4.583934 0,-1.563469 -1.32491,-2.437667 -2.96843,-2.437667 -2.56976,0 -5.64386,2.172686 -5.64386,4.610353 m -145.42744,6.618927 c 0,1.13918 0.82136,2.41125 2.96763,2.41125 2.75549,0 5.64386,-2.25194 5.64386,-4.583937 0,-1.563469 -1.32491,-2.437667 -2.96763,-2.437667 -2.57056,0 -5.64386,2.172686 -5.64386,4.610354 m -80.35334,-6.618927 c 0,1.139979 0.82216,2.411248 2.96843,2.411248 2.75549,0 5.64386,-2.251939 5.64386,-4.583934 0,-1.563469 -1.32491,-2.437667 -2.96763,-2.437667 -2.57056,0 -5.64466,2.172686 -5.64466,4.610353 m 16.77627,3.309463 c 0,1.139979 0.82136,2.411248 2.96763,2.411248 2.75549,0 5.64386,-2.25194 5.64386,-4.583934 0,-1.563469 -1.32491,-2.437667 -2.96763,-2.437667 -2.57056,0 -5.64386,2.172686 -5.64386,4.610353 m 376.61671,79.424704 c 0,1.13918 0.82136,2.41125 2.96763,2.41125 2.75549,0 5.64386,-2.25274 5.64386,-4.58393 0,-1.56347 -1.3249,-2.43847 -2.96763,-2.43847 -2.57056,0 -5.64386,2.17349 -5.64386,4.61115 M 466.64545,24.284925 c 0,1.139979 0.82136,2.411248 2.96763,2.411248 2.75629,0 5.64466,-2.251939 5.64466,-4.583854 0,-1.563389 -1.32491,-2.437827 -2.96763,-2.437827 -2.57056,0 -5.64466,2.172846 -5.64466,4.610433 M 269.14721,110.32856 c 0,1.13918 0.82136,2.41125 2.96763,2.41125 2.75629,0 5.64466,-2.25274 5.64466,-4.58474 0,-1.56267 -1.3249,-2.43767 -2.96763,-2.43767 -2.57056,0 -5.64466,2.17269 -5.64466,4.61116 M 401.47929,87.163118 c 0,1.139178 0.82137,2.411248 2.96763,2.411248 2.75629,0 5.64466,-2.25274 5.64466,-4.584735 0,-1.562668 -1.3249,-2.437666 -2.96843,-2.437666 -2.56975,0 -5.64386,2.172685 -5.64386,4.611153 M 174.52411,24.284925 c 0,1.139979 0.82137,2.411248 2.96843,2.411248 2.75549,0 5.64386,-2.251939 5.64386,-4.583854 0,-1.563389 -1.3249,-2.437827 -2.96763,-2.437827 -2.57055,0 -5.64466,2.172846 -5.64466,4.610433 M 385.79257,159.9689 c 0,1.13918 0.82136,2.41125 2.96763,2.41125 2.75548,0 5.64386,-2.25274 5.64386,-4.58474 0,-1.56347 -1.32491,-2.43766 -2.96763,-2.43766 -2.57056,0 -5.64386,2.17268 -5.64386,4.61115 m -1.08875,-76.115245 c 0,1.139179 0.82137,2.411248 2.96763,2.411248 2.75549,0 5.64386,-2.25274 5.64386,-4.583934 0,-1.563469 -1.3249,-2.438467 -2.96763,-2.438467 -2.57055,0 -5.64386,2.173486 -5.64386,4.611153 M 156.5078,37.522776 c 0,1.139179 0.82136,2.411249 2.96762,2.411249 2.75549,0 5.64386,-2.252741 5.64386,-4.583934 0,-1.563469 -1.3249,-2.438468 -2.96763,-2.438468 -2.57055,0 -5.64385,2.173486 -5.64385,4.611153 m 203.03242,56.258467 c 0,1.139979 0.82136,2.411248 2.96763,2.411248 2.75628,0 5.64386,-2.251939 5.64386,-4.583934 0,-1.563469 -1.32491,-2.437667 -2.96763,-2.437667 -2.56976,0 -5.64386,2.172686 -5.64386,4.610353 m 276.18564,82.734167 c 0,1.13918 0.82136,2.41125 2.96763,2.41125 2.75548,0 5.64386,-2.25274 5.64386,-4.58393 0,-1.56347 -1.32491,-2.43847 -2.96763,-2.43847 -2.57056,0 -5.64386,2.17349 -5.64386,4.61115 M 342.76475,97.090706 c 0,1.139979 0.82136,2.411248 2.96763,2.411248 2.75548,0 5.64386,-2.25194 5.64386,-4.583934 0,-1.563469 -1.32491,-2.437667 -2.96763,-2.437667 -2.57056,0 -5.64386,2.172686 -5.64386,4.610353 m -16.77547,3.309464 c 0,1.13918 0.82136,2.41125 2.96763,2.41125 2.75548,0 5.64386,-2.25194 5.64386,-4.583937 0,-1.563469 -1.32491,-2.437667 -2.96763,-2.437667 -2.57056,0 -5.64386,2.172686 -5.64386,4.610354 m 6.61652,66.18685 c 0,1.13998 0.82136,2.41125 2.96843,2.41125 2.75549,0 5.64386,-2.25194 5.64386,-4.58393 0,-1.56347 -1.3249,-2.43767 -2.96763,-2.43767 -2.57056,0 -5.64466,2.17269 -5.64466,4.61035 m 96.87184,-76.11524 c 0,1.139979 0.82136,2.412049 2.96763,2.412049 2.75548,0 5.64386,-2.25274 5.64386,-4.584735 0,-1.563469 -1.32491,-2.437666 -2.96763,-2.437666 -2.57056,0 -5.64386,2.172685 -5.64386,4.610352 m 236.0606,-74.521834 c 0,0.07949 0.0264,0.211985 0.21135,0.291479 1.13998,0.370974 3.41834,1.801872 5.14111,4.743163 0.47713,0.821442 1.24485,1.960861 1.24485,4.160125 0,1.907704 -0.50274,3.869045 -1.19201,5.776749 -0.0528,0.158509 -0.10567,0.2914 -0.0793,0.397072 0,0.159309 0.10567,0.264981 0.26498,0.264981 0.18492,0 0.31781,-0.105672 0.42349,-0.291399 1.19281,-2.11985 1.64272,-4.583934 1.64272,-6.995183 -0.13209,-3.418337 -2.09263,-5.935659 -2.09263,-5.935659 0.0793,0 -2.43847,-3.259268 -3.15336,-4.372189 -0.98067,-1.510393 -1.43138,-3.020785 -1.48421,-3.126778 -0.0264,-0.07949 -0.26498,-1.0334265 -0.26498,-1.0334265 -0.0264,-0.1059925 -0.15931,-0.211985 -0.31782,-0.211985 -0.18573,0 -0.34424,0.1589887 -0.34424,0.3444756 v 5.9885749 m -303.7044,-3.309383 c 0,0.07949 0.0264,0.211985 0.21214,0.291479 1.13918,0.370974 3.41834,1.801872 5.14032,4.743163 0.47712,0.821442 1.24565,1.960861 1.24565,4.160205 0,1.907544 -0.50355,3.868885 -1.19202,5.77659 -0.0536,0.159309 -0.10647,0.291399 -0.0801,0.397872 0,0.158508 0.10647,0.264981 0.26498,0.264981 0.18573,0 0.31862,-0.106473 0.42429,-0.2922 1.19201,-2.119849 1.64272,-4.583934 1.64272,-6.995183 -0.13209,-3.418257 -2.09343,-5.935578 -2.09343,-5.935578 0.0801,0 -2.43767,-3.259269 -3.15335,-4.37219 -0.97987,-1.5103925 -1.43058,-3.0207852 -1.48342,-3.1267777 -0.0264,-0.079494 -0.26498,-1.0334266 -0.26498,-1.0334266 -0.0264,-0.1059925 -0.15931,-0.211985 -0.31782,-0.211985 -0.18572,0 -0.34503,0.1589888 -0.34503,0.3444756 V 12.640563 M 528.47893,114.15277 c 0,0.18573 0.15931,0.34424 0.34504,0.34424 0.13209,0 0.2914,-0.10568 0.31781,-0.21135 0,-0.0264 0.23857,-0.95425 0.26498,-1.0335 0.0264,-0.10648 0.26499,-1.11276 1.21844,-2.67623 1.0335,-1.72278 2.62339,-2.96843 3.9483,-4.8233 1.29849,-1.85487 2.09343,-3.60327 2.09343,-5.93526 0,-2.411249 -0.55638,-4.425426 -1.96054,-6.995183 -0.0801,-0.185727 -0.23856,-0.291399 -0.39787,-0.291399 -0.0528,0 -0.10568,0 -0.13209,0.02642 -0.1329,0.05284 -0.18573,0.158508 -0.18573,0.317817 0,0.07925 0.0264,0.212145 0.0793,0.317817 1.05993,2.464085 1.48422,3.869046 1.48422,5.77675 0,2.199098 -0.76853,3.338278 -1.24565,4.160438 -1.72198,2.94122 -4.50468,4.37179 -5.61744,4.74245 -0.18573,0.08 -0.21215,0.21214 -0.21215,0.2922 v 5.98809 M 277.08944,92.064869 c 0,0.07925 0.0272,0.212145 0.21215,0.291399 1.13998,0.371454 3.41834,1.802032 5.14111,4.743244 0.47633,0.821361 1.24485,1.961341 1.24485,4.160448 0,1.9077 -0.50354,3.86824 -1.19201,5.77675 -0.0528,0.1585 -0.10647,0.2914 -0.0793,0.39707 0,0.15931 0.10567,0.26498 0.26498,0.26498 0.18492,0 0.31781,-0.10567 0.42349,-0.2914 1.19281,-2.11985 1.64272,-4.58393 1.64272,-6.99518 -0.13209,-3.418341 -2.09343,-5.936062 -2.09343,-5.936062 0.0801,0 -2.43767,-3.259029 -3.15256,-4.371789 -0.98067,-1.510633 -1.43138,-3.021266 -1.48421,-3.126938 -0.0264,-0.07926 -0.26498,-1.033507 -0.26498,-1.033507 -0.0264,-0.105672 -0.15931,-0.212145 -0.31782,-0.212145 -0.18573,0 -0.34504,0.159309 -0.34504,0.345036 v 5.988094 m 82.45045,1.715517 v 18.744064 h 0.66202 V 93.780386 Z M 164.44963,16.524281 v 18.826626 h 0.66201 V 16.524281 Z m 112.64014,69.578984 v 22.053355 h 0.66217 V 86.103265 Z m 124.38911,1.058219 v 18.712796 h 0.66202 V 87.161484 Z M 437.4194,71.18978 v 17.110139 h 0.66216 V 71.18978 Z m 16.77631,1.633148 v 18.786446 h 0.66201 V 72.822928 Z M 245.19046,74.467181 V 94.91882 h 0.66201 V 74.467181 Z M 309.5576,6.5954608 V 28.732005 h 0.66217 V 6.5954608 Z M 220.47277,93.780386 v 17.058074 h 0.66202 V 93.780386 Z M 470.97124,74.456862 V 94.91882 h 0.66201 V 74.456862 Z m 16.77538,1.633148 v 22.138257 h 0.66217 V 76.09001 Z M 203.69725,90.470939 v 18.776121 h 0.66201 V 90.470939 Z m 300.8249,-14.349035 v 22.106363 h 0.66201 V 76.121904 Z M 178.53363,87.161484 V 109.215 h 0.66201 V 87.161484 Z M 174.52448,24.284116 V 43.02818 h 0.66202 V 24.284116 Z m 353.95483,69.49627 v 20.372374 h 0.66202 V 93.780386 Z M 146.43324,14.92819 v 17.113262 h 0.66218 V 14.92819 Z m 4.10203,75.542749 v 18.776121 h 0.66217 V 90.470939 Z M 568.56359,76.121904 v 22.106363 h 0.66202 V 76.121904 Z m 25.16362,3.309455 v 18.796908 h 0.66201 V 79.431359 Z M 133.75989,93.780386 v 17.058074 h 0.66202 V 93.780386 Z M 610.50258,79.431359 v 18.796908 h 0.66201 V 79.431359 Z m -501.9063,14.349027 v 18.744064 h 0.66202 V 93.780386 Z M 627.2789,74.467181 V 94.91882 h 0.66201 V 74.467181 Z M 99.763053,77.807905 V 94.91882 h 0.662017 V 77.807905 Z M 652.44173,76.090787 V 94.91882 h 0.66201 V 76.090787 Z m 16.77616,-1.592337 v 17.110924 h 0.66216 V 74.49845 Z M 82.987519,79.399457 v 18.82881 h 0.66202 V 79.399457 Z M 119.40758,6.6254814 V 28.732005 h 0.66217 V 6.6254814 Z M 57.823908,76.121904 v 22.106363 h 0.662021 V 76.121904 Z m 0,64.556956 v 17.11733 h 0.662021 v -17.11733 z m 21.860579,1.63799 v 18.78879 h 0.66201 V 142.31685 Z M 227.50868,5.0001516 V 22.113258 h 0.66217 V 5.0001516 Z M 101.54583,143.95548 v 20.45961 h 0.66202 v -20.45961 z m 21.86057,1.63799 v 22.13107 h 0.66202 V 145.59347 Z M 665.53787,9.9877803 V 32.041452 h 0.66201 V 9.9877803 Z M 350.70651,77.807905 V 94.91882 h 0.66217 V 77.807905 Z M 255.50705,1.6914829 V 18.803964 h 0.66216 V 1.6914829 Z M 145.26698,148.92778 v 22.10621 h 0.66201 v -22.10621 z m 24.84886,4.42146 v 20.42271 h 0.66218 v -20.42271 z m 21.86058,3.30867 v 18.71999 h 0.66201 V 156.65791 Z M 91.409213,11.5895 v 20.451952 h 0.662173 V 11.5895 Z m 510.269837,1.654725 v 22.106682 h 0.66202 V 13.244225 Z M 223.3019,153.34924 v 22.05336 h 0.66201 V 153.34924 Z M 583.66189,16.524281 v 18.826626 h 0.66201 V 16.524281 Z M 264.03537,143.98753 v 17.11811 h 0.66202 v -17.11811 z m 21.86136,1.60672 v 18.82084 h 0.66201 V 145.59425 Z M 565.6455,14.92819 v 17.113262 h 0.66202 V 14.92819 Z M 307.75714,145.61833 v 22.10621 h 0.66217 V 145.61833 Z M 538.61984,6.6254814 V 28.732005 h 0.66201 V 6.6254814 Z M 273.52421,3.3261943 V 22.113258 h 0.66201 V 3.3261943 Z M 340.54847,145.59425 v 18.82084 h 0.66202 v -18.82084 z m 21.86057,-1.60672 v 17.11811 h 0.66202 V 143.98753 Z M 502.67933,24.284116 v 18.764078 h 0.66201 V 24.284116 Z M 73.392993,11.5895 v 20.451952 h 0.662013 V 11.5895 Z m 411.269167,2.76658 v 29.782396 h 0.66202 V 14.35608 Z m -90.92779,126.32278 v 17.11733 h 0.66201 V 140.67886 Z M 466.64578,24.284116 v 20.943857 h 0.66217 V 24.284116 Z M 415.59572,142.31685 v 18.78879 h 0.66202 v -18.78879 z m 21.86057,1.63863 v 20.45961 h 0.66202 V 143.95548 Z M 448.62877,30.903018 v 15.414604 h 0.66202 V 30.903018 Z m 10.68809,114.690452 v 22.13107 h 0.66202 V 145.59347 Z M 438.55392,11.560262 v 20.48119 h 0.66202 v -20.48119 z m 42.6243,137.367518 v 22.10621 h 0.66201 v -22.10621 z m 32.79117,-4.94025 v 17.11811 h 0.66202 V 143.98753 Z M 420.53754,9.9641706 V 28.732005 h 0.66201 V 9.9641706 Z M 535.82996,145.59425 v 18.82084 h 0.66202 V 145.59425 Z M 393.51187,4.9709124 V 25.422551 h 0.66201 V 4.9709124 Z M 291.54059,4.9609056 V 25.422551 h 0.66201 V 4.9609056 Z m 42.39054,74.4385514 v 18.82881 h 0.66202 v -18.82881 z m -25.16361,-3.277553 v 22.106363 h 0.66202 V 76.121904 Z M 361.83412,6.6784864 V 28.732005 h 0.66217 V 6.6784864 Z m 22.86923,77.1743276 v 20.430066 h 0.66217 V 83.852814 Z m 182.4521,61.765516 v 22.10621 h 0.66201 v -22.10621 z m 32.79116,8.2977 v 17.11796 h 0.66202 V 153.91603 Z M 327.57475,9.9349314 V 32.041452 h 0.66203 V 9.9349314 Z M 621.80718,155.52182 v 18.82178 h 0.66202 V 155.52182 Z M 209.49246,6.596243 v 18.826308 h 0.66201 V 6.596243 Z m 434.1753,145.640987 v 22.10637 h 0.66201 v -22.10637 z m -89.09499,-54.911164 2.35841,-0.476325 v 4.371789 l -2.35841,0.50354 v -4.399004 m 4.10761,-0.821361 c 0.15851,-0.02642 0.2914,-0.211345 0.2914,-0.370654 v -1.563469 c 0,-0.212145 -0.15931,-0.370653 -0.37145,-0.370653 h -0.0528 l -0.8742,0.184926 v -3.948299 h -0.74211 v 4.107608 l -2.35841,0.477127 v -3.736155 h -0.74211 v 3.894663 l -1.0327,0.212145 c -0.15931,0.02642 -0.2922,0.212145 -0.2922,0.371454 v 1.53625 c 0,0.212145 0.15931,0.371454 0.37145,0.371454 h 0.0793 l 0.87419,-0.185727 v 4.372595 l -1.0327,0.21134 c -0.15931,0.0264 -0.2922,0.21214 -0.2922,0.37145 v 1.53705 c 0,0.21135 0.15931,0.37066 0.37145,0.37066 h 0.0793 l 0.87419,-0.18573 v 3.9483 h 0.74211 v -4.10681 l 2.35841,-0.47712 v 3.73615 h 0.74211 v -3.89546 l 1.00709,-0.18493 c 0.15851,-0.0272 0.2914,-0.21214 0.2914,-0.37145 v -1.56347 c 0,-0.21215 -0.15931,-0.37066 -0.37145,-0.37066 h -0.0528 l -0.8742,0.18573 v -4.372588 l 1.00709,-0.185727 m -372.75247,57.080625 2.35841,-0.47712 v 4.37259 l -2.35841,0.50354 v -4.39901 m 4.10761,-0.82136 c 0.15851,-0.0264 0.2914,-0.21214 0.2914,-0.37065 v -1.56347 c 0,-0.21215 -0.15931,-0.37145 -0.37145,-0.37145 h -0.0528 l -0.8742,0.18572 v -3.9483 h -0.74211 v 4.10761 l -2.35841,0.47633 V 147.5436 H 185.186 v 3.89547 l -1.0327,0.21214 c -0.15931,0.0264 -0.2922,0.21215 -0.2922,0.37065 v 1.53706 c 0,0.21214 0.15931,0.37065 0.37145,0.37065 h 0.0793 l 0.87419,-0.18493 v 4.37179 l -1.0327,0.21215 c -0.15931,0.0264 -0.2922,0.21214 -0.2922,0.37065 v 1.53705 c 0,0.21215 0.15931,0.37146 0.37145,0.37146 h 0.0793 l 0.87419,-0.18573 v 3.9483 h 0.74211 v -4.10761 l 2.35841,-0.47713 v 3.73696 h 0.74211 v -3.89547 l 1.00709,-0.18572 c 0.15851,-0.0264 0.2914,-0.21215 0.2914,-0.37066 v -1.56346 c 0,-0.21215 -0.15931,-0.37146 -0.37145,-0.37146 h -0.0528 l -0.8742,0.18573 v -4.37179 l 1.00709,-0.18573 M 679.80887,9.5709329 V 36.77344 H 681 V 9.5709329 Z m -441.70841,0 V 36.77344 h 1.19112 V 9.5709329 Z m 411.2235,16.9106941 c 0,-0.768526 -0.60922,-1.40416 -1.37774,-1.40416 -0.76853,0 -1.37855,0.635634 -1.37855,1.40416 0,0.768525 0.61002,1.40416 1.37855,1.40416 0.76852,0 1.37774,-0.635635 1.37774,-1.40416 m 0,-6.618686 c 0,-0.768445 -0.60922,-1.4044 -1.37774,-1.4044 -0.76853,0 -1.37855,0.635955 -1.37855,1.4044 0,0.768446 0.61002,1.4044 1.37855,1.4044 0.76852,0 1.37774,-0.635954 1.37774,-1.4044 M 642.92834,9.5709329 V 36.77344 h 1.19129 V 9.5709329 Z m -6.08931,0 V 36.77344 h 3.64014 V 9.5709329 Z m 0,0 V 36.77344 h 3.64014 V 9.5709329 Z m -3.64046,0 V 36.77344 h 1.19113 V 9.5709329 Z m -2.44651,16.9106941 c 0,-0.768526 -0.61002,-1.40416 -1.37854,-1.40416 -0.76853,0 -1.37775,0.635634 -1.37775,1.40416 0,0.768525 0.60922,1.40416 1.37775,1.40416 0.76852,0 1.37854,-0.635635 1.37854,-1.40416 m 0,-6.618686 c 0,-0.768445 -0.61002,-1.4044 -1.37854,-1.4044 -0.76853,0 -1.37775,0.635955 -1.37775,1.4044 0,0.768446 0.60922,1.4044 1.37775,1.4044 0.76852,0 1.37854,-0.635954 1.37854,-1.4044 M 521.21309,9.5709329 V 36.77344 h 1.19129 V 9.5709329 Z M 169.06919,79.067198 v 27.202512 h 1.19128 V 79.067198 Z m 122.29159,0 v 27.202512 h 1.19128 V 79.067198 Z m 385.99876,69.496272 v 27.20266 h 3.64015 v -27.20266 z m -3.63967,0 v 27.20266 h 1.19113 v -27.20266 z m -2.44731,16.91079 c 0,-0.76852 -0.60921,-1.40416 -1.37774,-1.40416 -0.76852,0 -1.37774,0.63564 -1.37774,1.40416 0,0.76853 0.60922,1.40416 1.37774,1.40416 0.76853,0 1.37774,-0.63563 1.37774,-1.40416 m 0,-6.61892 c 0,-0.76853 -0.60921,-1.40416 -1.37774,-1.40416 -0.76852,0 -1.37774,0.63563 -1.37774,1.40416 0,0.76852 0.60922,1.40496 1.37774,1.40496 0.76853,0 1.37774,-0.63644 1.37774,-1.40496 M 420.01281,79.067198 v 27.202512 h 1.19112 V 79.067198 Z m 126.99964,0 v 27.202512 h 1.19113 V 79.067198 Z m 132.79642,0 V 106.26971 H 681 V 79.067198 Z M 102.00099,9.5709329 V 36.77344 h 1.19113 V 9.5709329 Z M 213.83746,148.56347 v 27.20266 h 1.19113 v -27.20266 z m 162.49017,0 v 27.20266 h 1.19127 v -27.20266 z m 173.42107,0 v 27.20266 h 1.19112 V 148.56347 Z M 376.10513,9.5709329 V 36.77344 h 1.19128 V 9.5709329 Z M 0,175.03876 v 0.72768 h 681 v -0.72768 z m 0,-6.6189 v 0.72768 h 681 v -0.72768 z m 0,-6.6189 v 0.72768 h 681 v -0.72768 z m 0,-6.6189 v 0.72768 h 681 v -0.72768 z m 0,-6.61812 v 0.72768 h 681 v -0.72768 z m 0,-43.02145 v 0.72768 h 681 v -0.72768 z m 0,-6.618899 v 0.727681 h 681 v -0.727681 z m 0,-6.618902 v 0.727682 h 681 v -0.727682 z m 0,-6.619054 v 0.727842 H 681 V 85.685635 Z M 0,79.06751 v 0.727842 H 681 V 79.06751 Z M 0,36.046223 v 0.727681 h 681 v -0.727681 z m 0,-6.619054 v 0.727841 h 681 v -0.727841 z m 0,-6.618747 v 0.727687 h 681 v -0.727687 z m 0,-6.618745 v 0.727685 H 681 V 16.189677 Z M 0,9.571089 v 0.727686 H 681 V 9.571089 Z"
     style="stroke-width:0.0800547" />
  <metadata
     id="metadata228">
    <rdf:RDF>
      <cc:Work
         rdf:about="">
        <dc:title>air_LIV</dc:title>
      </cc:Work>
    </rdf:RDF>
  </metadata>
</svg>
