<?xml version="1.0" encoding="UTF-8" standalone="no"?>
<svg width="210.058mm" height="296.926mm" viewBox="0 0 9924 14028"
 xmlns="http://www.w3.org/2000/svg" xmlns:xlink="http://www.w3.org/1999/xlink" version="1.2" baseProfile="full">
<title>air_XXXV</title>
<desc>Generated by MuseScore Studio 4.7.3</desc>
<polyline class="StaffLines" fill="none" stroke="#000000" stroke-width="9.09" stroke-linejoin="bevel" points="708.661,828.424 9215.34,828.424" />
<polyline class="StaffLines" fill="none" stroke="#000000" stroke-width="9.09" stroke-linejoin="bevel" points="708.661,911.101 9215.34,911.101" />
<polyline class="StaffLines" fill="none" stroke="#000000" stroke-width="9.09" stroke-linejoin="bevel" points="708.661,993.778 9215.34,993.778" />
<polyline class="StaffLines" fill="none" stroke="#000000" stroke-width="9.09" stroke-linejoin="bevel" points="708.661,1076.46 9215.34,1076.46" />
<polyline class="StaffLines" fill="none" stroke="#000000" stroke-width="9.09" stroke-linejoin="bevel" points="708.661,1159.13 9215.34,1159.13" />
<polyline class="StaffLines" fill="none" stroke="#000000" stroke-width="9.09" stroke-linejoin="bevel" points="708.661,1696.53 9215.34,1696.53" />
<polyline class="StaffLines" fill="none" stroke="#000000" stroke-width="9.09" stroke-linejoin="bevel" points="708.661,1779.21 9215.34,1779.21" />
<polyline class="StaffLines" fill="none" stroke="#000000" stroke-width="9.09" stroke-linejoin="bevel" points="708.661,1861.89 9215.34,1861.89" />
<polyline class="StaffLines" fill="none" stroke="#000000" stroke-width="9.09" stroke-linejoin="bevel" points="708.661,1944.57 9215.34,1944.57" />
<polyline class="StaffLines" fill="none" stroke="#000000" stroke-width="9.09" stroke-linejoin="bevel" points="708.661,2027.24 9215.34,2027.24" />
<polyline class="BarLine" fill="none" stroke="#000000" stroke-width="14.88" stroke-linejoin="bevel" points="3724.41,823.876 3724.41,1163.68" />
<polyline class="BarLine" fill="none" stroke="#000000" stroke-width="14.88" stroke-linejoin="bevel" points="7272.81,1691.99 7272.81,2031.79" />
<polyline class="BarLine" fill="none" stroke="#000000" stroke-width="14.88" stroke-linejoin="bevel" points="5255.53,1691.99 5255.53,2031.79" />
<polyline class="BarLine" fill="none" stroke="#000000" stroke-width="14.88" stroke-linejoin="bevel" points="3238.25,1691.99 3238.25,2031.79" />
<polyline class="BarLine" fill="none" stroke="#000000" stroke-width="14.88" stroke-linejoin="bevel" points="9207.9,823.876 9207.9,1163.68" />
<polyline class="BarLine" fill="none" stroke="#000000" stroke-width="14.88" stroke-linejoin="bevel" points="9131.84,1691.99 9131.84,2031.79" />
<polyline class="BarLine" fill="none" stroke="#000000" stroke-width="45.47" stroke-linejoin="bevel" points="9192.6,1691.99 9192.6,2031.79" />
<polyline class="BarLine" fill="none" stroke="#000000" stroke-width="14.88" stroke-linejoin="bevel" points="1847.73,823.876 1847.73,1163.68" />
<polyline class="BarLine" fill="none" stroke="#000000" stroke-width="14.88" stroke-linejoin="bevel" points="7477.76,823.876 7477.76,1163.68" />
<polyline class="BarLine" fill="none" stroke="#000000" stroke-width="14.88" stroke-linejoin="bevel" points="5601.08,823.876 5601.08,1163.68" />
<polyline class="Stem" fill="none" stroke="#000000" stroke-width="8.27" stroke-linejoin="bevel" points="9010.73,1063.23 9010.73,787.085" />
<polyline class="Stem" fill="none" stroke="#000000" stroke-width="8.27" stroke-linejoin="bevel" points="1435.1,1890 1435.1,1634.53" />
<polyline class="Stem" fill="none" stroke="#000000" stroke-width="8.27" stroke-linejoin="bevel" points="8911.23,1931.34 8911.23,1655.2" />
<polyline class="Stem" fill="none" stroke="#000000" stroke-width="8.27" stroke-linejoin="bevel" points="3428.03,966.329 3428.03,1221.14" />
<polyline class="Stem" fill="none" stroke="#000000" stroke-width="8.27" stroke-linejoin="bevel" points="3938.54,1021.89 3938.54,766.416" />
<polyline class="Stem" fill="none" stroke="#000000" stroke-width="8.27" stroke-linejoin="bevel" points="8337.26,1875.78 8337.26,2109.92" />
<polyline class="Stem" fill="none" stroke="#000000" stroke-width="8.27" stroke-linejoin="bevel" points="4132.4,1007.67 4132.4,1241.81" />
<polyline class="Stem" fill="none" stroke="#000000" stroke-width="8.27" stroke-linejoin="bevel" points="8119.96,1931.34 8119.96,1655.2" />
<polyline class="Stem" fill="none" stroke="#000000" stroke-width="8.27" stroke-linejoin="bevel" points="4425.48,966.329 4425.48,1221.14" />
<polyline class="Stem" fill="none" stroke="#000000" stroke-width="8.27" stroke-linejoin="bevel" points="7803.45,1890 7803.45,1634.53" />
<polyline class="Stem" fill="none" stroke="#000000" stroke-width="8.27" stroke-linejoin="bevel" points="4718.55,966.329 4718.55,1221.14" />
<polyline class="Stem" fill="none" stroke="#000000" stroke-width="8.27" stroke-linejoin="bevel" points="7486.94,1931.34 7486.94,1655.2" />
<polyline class="Stem" fill="none" stroke="#000000" stroke-width="8.27" stroke-linejoin="bevel" points="5011.63,924.991 5011.63,1200.47" />
<polyline class="Stem" fill="none" stroke="#000000" stroke-width="8.27" stroke-linejoin="bevel" points="7052.21,1972.68 7052.21,1696.53" />
<polyline class="Stem" fill="none" stroke="#000000" stroke-width="8.27" stroke-linejoin="bevel" points="5304.7,966.329 5304.7,1221.14" />
<polyline class="Stem" fill="none" stroke="#000000" stroke-width="8.27" stroke-linejoin="bevel" points="6735.7,1931.34 6735.7,1655.2" />
<polyline class="Stem" fill="none" stroke="#000000" stroke-width="8.27" stroke-linejoin="bevel" points="2061.87,1021.89 2061.87,766.416" />
<polyline class="Stem" fill="none" stroke="#000000" stroke-width="8.27" stroke-linejoin="bevel" points="6419.19,1890 6419.19,1634.53" />
<polyline class="Stem" fill="none" stroke="#000000" stroke-width="8.27" stroke-linejoin="bevel" points="5716.01,1007.67 5716.01,1241.81" />
<polyline class="Stem" fill="none" stroke="#000000" stroke-width="8.27" stroke-linejoin="bevel" points="6003.47,1875.78 6003.47,2109.92" />
<polyline class="Stem" fill="none" stroke="#000000" stroke-width="8.27" stroke-linejoin="bevel" points="6009.08,966.329 6009.08,1221.14" />
<polyline class="Stem" fill="none" stroke="#000000" stroke-width="8.27" stroke-linejoin="bevel" points="5686.96,1834.44 5686.96,2089.25" />
<polyline class="Stem" fill="none" stroke="#000000" stroke-width="8.27" stroke-linejoin="bevel" points="6302.16,1007.67 6302.16,1241.81" />
<polyline class="Stem" fill="none" stroke="#000000" stroke-width="8.27" stroke-linejoin="bevel" points="5370.45,1875.78 5370.45,2109.92" />
<polyline class="Stem" fill="none" stroke="#000000" stroke-width="8.27" stroke-linejoin="bevel" points="6694.44,1021.89 6694.44,766.416" />
<polyline class="Stem" fill="none" stroke="#000000" stroke-width="8.27" stroke-linejoin="bevel" points="2548.8,966.329 2548.8,1221.14" />
<polyline class="Stem" fill="none" stroke="#000000" stroke-width="8.27" stroke-linejoin="bevel" points="6987.52,1063.23 6987.52,787.085" />
<polyline class="Stem" fill="none" stroke="#000000" stroke-width="8.27" stroke-linejoin="bevel" points="5034.93,1890 5034.93,1634.53" />
<polyline class="Stem" fill="none" stroke="#000000" stroke-width="8.27" stroke-linejoin="bevel" points="7280.59,1104.57 7280.59,828.424" />
<polyline class="Stem" fill="none" stroke="#000000" stroke-width="8.27" stroke-linejoin="bevel" points="4718.42,1972.68 4718.42,1696.53" />
<polyline class="Stem" fill="none" stroke="#000000" stroke-width="8.27" stroke-linejoin="bevel" points="3134.95,924.991 3134.95,1200.47" />
<polyline class="Stem" fill="none" stroke="#000000" stroke-width="8.27" stroke-linejoin="bevel" points="4401.91,1890 4401.91,1634.53" />
<polyline class="Stem" fill="none" stroke="#000000" stroke-width="8.27" stroke-linejoin="bevel" points="7691.9,1063.23 7691.9,787.085" />
<polyline class="Stem" fill="none" stroke="#000000" stroke-width="8.27" stroke-linejoin="bevel" points="4085.4,1890 4085.4,1634.53" />
<polyline class="Stem" fill="none" stroke="#000000" stroke-width="8.27" stroke-linejoin="bevel" points="7984.97,1021.89 7984.97,766.416" />
<polyline class="Stem" fill="none" stroke="#000000" stroke-width="8.27" stroke-linejoin="bevel" points="3768.89,1972.68 3768.89,1696.53" />
<polyline class="Stem" fill="none" stroke="#000000" stroke-width="8.27" stroke-linejoin="bevel" points="8278.04,1063.23 8278.04,787.085" />
<polyline class="Stem" fill="none" stroke="#000000" stroke-width="8.27" stroke-linejoin="bevel" points="3452.38,1890 3452.38,1634.53" />
<polyline class="Stem" fill="none" stroke="#000000" stroke-width="8.27" stroke-linejoin="bevel" points="8471.91,1007.67 8471.91,1241.81" />
<polyline class="Stem" fill="none" stroke="#000000" stroke-width="8.27" stroke-linejoin="bevel" points="3017.64,1890 3017.64,1634.53" />
<polyline class="Stem" fill="none" stroke="#000000" stroke-width="8.27" stroke-linejoin="bevel" points="2701.13,1972.68 2701.13,1696.53" />
<polyline class="Stem" fill="none" stroke="#000000" stroke-width="8.27" stroke-linejoin="bevel" points="2384.63,1890 2384.63,1634.53" />
<polyline class="Stem" fill="none" stroke="#000000" stroke-width="8.27" stroke-linejoin="bevel" points="1618,1063.23 1618,787.085" />
<polyline class="Stem" fill="none" stroke="#000000" stroke-width="8.27" stroke-linejoin="bevel" points="2841.88,966.329 2841.88,1221.14" />
<polyline class="Stem" fill="none" stroke="#000000" stroke-width="8.27" stroke-linejoin="bevel" points="2068.12,1890 2068.12,1634.53" />
<polyline class="Stem" fill="none" stroke="#000000" stroke-width="8.27" stroke-linejoin="bevel" points="2255.73,1007.67 2255.73,1241.81" />
<polyline class="Stem" fill="none" stroke="#000000" stroke-width="8.27" stroke-linejoin="bevel" points="1751.61,1972.68 1751.61,1696.53" />
<path class="Note" d="M3423.89,966.341 C3423.89,980.574 3434.15,996.462 3460.96,996.462 C3495.39,996.462 3531.47,968.327 3531.47,939.199 C3531.47,919.67 3514.92,908.747 3494.4,908.747 C3462.29,908.747 3423.89,935.889 3423.89,966.341"/>
<path class="Note" d="M8016.62,1958.47 C8016.62,1972.7 8026.88,1988.59 8053.69,1988.59 C8088.11,1988.59 8124.19,1960.45 8124.19,1931.33 C8124.19,1911.8 8107.64,1900.87 8087.12,1900.87 C8055.01,1900.87 8016.62,1928.02 8016.62,1958.47"/>
<path class="Note" d="M1648.26,1999.81 C1648.26,2014.04 1658.52,2029.93 1685.33,2029.93 C1719.76,2029.93 1755.84,2001.79 1755.84,1972.66 C1755.84,1953.14 1739.29,1942.21 1718.76,1942.21 C1686.66,1942.21 1648.26,1969.35 1648.26,1999.81"/>
<path class="Note" d="M8807.89,1958.47 C8807.89,1972.7 8818.15,1988.59 8844.96,1988.59 C8879.38,1988.59 8915.46,1960.45 8915.46,1931.33 C8915.46,1911.8 8898.91,1900.87 8878.39,1900.87 C8846.28,1900.87 8807.89,1928.02 8807.89,1958.47"/>
<path class="Note" d="M1964.77,1917.13 C1964.77,1931.36 1975.03,1947.25 2001.84,1947.25 C2036.27,1947.25 2072.35,1919.11 2072.35,1889.99 C2072.35,1870.46 2055.8,1859.53 2035.27,1859.53 C2003.17,1859.53 1964.77,1886.68 1964.77,1917.13"/>
<path class="Note" d="M8907.38,1090.36 C8907.38,1104.59 8917.65,1120.48 8944.46,1120.48 C8978.88,1120.48 9014.96,1092.34 9014.96,1063.22 C9014.96,1043.69 8998.41,1032.76 8977.89,1032.76 C8945.78,1032.76 8907.38,1059.91 8907.38,1090.36"/>
<path class="Note" d="M2281.28,1917.13 C2281.28,1931.36 2291.54,1947.25 2318.35,1947.25 C2352.78,1947.25 2388.85,1919.11 2388.85,1889.99 C2388.85,1870.46 2372.3,1859.53 2351.78,1859.53 C2319.68,1859.53 2281.28,1886.68 2281.28,1917.13"/>
<path class="Note" d="M1514.65,1090.36 C1514.65,1104.59 1524.91,1120.48 1551.72,1120.48 C1586.15,1120.48 1622.23,1092.34 1622.23,1063.22 C1622.23,1043.69 1605.68,1032.76 1585.16,1032.76 C1553.05,1032.76 1514.65,1059.91 1514.65,1090.36"/>
<path class="Note" d="M2597.79,1999.81 C2597.79,2014.04 2608.05,2029.93 2634.86,2029.93 C2669.28,2029.93 2705.36,2001.79 2705.36,1972.66 C2705.36,1953.14 2688.81,1942.21 2668.29,1942.21 C2636.18,1942.21 2597.79,1969.35 2597.79,1999.81"/>
<path class="Note" d="M8492.6,1022.24 C8481.67,1022.24 8479.36,1013.31 8479.36,1010.33 C8479.36,994.109 8534.97,965.643 8550.52,965.643 C8558.47,965.643 8563.76,970.277 8563.76,977.559 C8563.76,994.109 8507.82,1022.24 8492.6,1022.24 M8538.28,950.086 C8506.17,950.086 8467.77,976.897 8467.77,1007.68 C8467.77,1021.91 8478.03,1037.8 8504.84,1037.8 C8539.27,1037.8 8575.35,1009.67 8575.35,980.538 C8575.35,961.009 8558.8,950.086 8538.28,950.086"/>
<path class="Note" d="M2914.3,1917.13 C2914.3,1931.36 2924.56,1947.25 2951.37,1947.25 C2985.79,1947.25 3021.87,1919.11 3021.87,1889.99 C3021.87,1870.46 3005.32,1859.53 2984.8,1859.53 C2952.69,1859.53 2914.3,1886.68 2914.3,1917.13"/>
<path class="Note" d="M1958.52,1049.02 C1958.52,1063.25 1968.78,1079.14 1995.59,1079.14 C2030.02,1079.14 2066.09,1051 2066.09,1021.88 C2066.09,1002.35 2049.54,991.425 2029.02,991.425 C1996.92,991.425 1958.52,1018.57 1958.52,1049.02"/>
<path class="Note" d="M2544.67,966.341 C2544.67,980.574 2554.93,996.462 2581.74,996.462 C2616.16,996.462 2652.24,968.327 2652.24,939.199 C2652.24,919.67 2635.69,908.747 2615.17,908.747 C2583.06,908.747 2544.67,935.889 2544.67,966.341"/>
<path class="Note" d="M8174.7,1090.36 C8174.7,1104.59 8184.96,1120.48 8211.77,1120.48 C8246.19,1120.48 8282.27,1092.34 8282.27,1063.22 C8282.27,1043.69 8265.72,1032.76 8245.2,1032.76 C8213.09,1032.76 8174.7,1059.91 8174.7,1090.36"/>
<path class="Note" d="M3349.03,1917.13 C3349.03,1931.36 3359.3,1947.25 3386.11,1947.25 C3420.53,1947.25 3456.61,1919.11 3456.61,1889.99 C3456.61,1870.46 3440.06,1859.53 3419.54,1859.53 C3387.43,1859.53 3349.03,1886.68 3349.03,1917.13"/>
<path class="Note" d="M7881.62,1049.02 C7881.62,1063.25 7891.88,1079.14 7918.7,1079.14 C7953.12,1079.14 7989.2,1051 7989.2,1021.88 C7989.2,1002.35 7972.65,991.425 7952.13,991.425 C7920.02,991.425 7881.62,1018.57 7881.62,1049.02"/>
<path class="Note" d="M3665.54,1999.81 C3665.54,2014.04 3675.8,2029.93 3702.62,2029.93 C3737.04,2029.93 3773.12,2001.79 3773.12,1972.66 C3773.12,1953.14 3756.57,1942.21 3736.05,1942.21 C3703.94,1942.21 3665.54,1969.35 3665.54,1999.81"/>
<path class="Note" d="M7588.55,1090.36 C7588.55,1104.59 7598.81,1120.48 7625.62,1120.48 C7660.04,1120.48 7696.12,1092.34 7696.12,1063.22 C7696.12,1043.69 7679.57,1032.76 7659.05,1032.76 C7626.94,1032.76 7588.55,1059.91 7588.55,1090.36"/>
<path class="Note" d="M3982.05,1917.13 C3982.05,1931.36 3992.31,1947.25 4019.12,1947.25 C4053.55,1947.25 4089.63,1919.11 4089.63,1889.99 C4089.63,1870.46 4073.08,1859.53 4052.56,1859.53 C4020.45,1859.53 3982.05,1886.68 3982.05,1917.13"/>
<path class="Note" d="M2837.74,966.341 C2837.74,980.574 2848,996.462 2874.82,996.462 C2909.24,996.462 2945.32,968.327 2945.32,939.199 C2945.32,919.67 2928.77,908.747 2908.25,908.747 C2876.14,908.747 2837.74,935.889 2837.74,966.341"/>
<path class="Note" d="M4298.56,1917.13 C4298.56,1931.36 4308.82,1947.25 4335.63,1947.25 C4370.06,1947.25 4406.14,1919.11 4406.14,1889.99 C4406.14,1870.46 4389.59,1859.53 4369.06,1859.53 C4336.96,1859.53 4298.56,1886.68 4298.56,1917.13"/>
<path class="Note" d="M7177.25,1131.7 C7177.25,1145.93 7187.51,1161.82 7214.32,1161.82 C7248.74,1161.82 7284.82,1133.68 7284.82,1104.55 C7284.82,1085.02 7268.27,1074.1 7247.75,1074.1 C7215.64,1074.1 7177.25,1101.24 7177.25,1131.7"/>
<path class="Note" d="M4615.07,1999.81 C4615.07,2014.04 4625.33,2029.93 4652.14,2029.93 C4686.57,2029.93 4722.64,2001.79 4722.64,1972.66 C4722.64,1953.14 4706.09,1942.21 4685.57,1942.21 C4653.47,1942.21 4615.07,1969.35 4615.07,1999.81"/>
<path class="Note" d="M6884.17,1090.36 C6884.17,1104.59 6894.43,1120.48 6921.24,1120.48 C6955.67,1120.48 6991.75,1092.34 6991.75,1063.22 C6991.75,1043.69 6975.2,1032.76 6954.67,1032.76 C6922.57,1032.76 6884.17,1059.91 6884.17,1090.36"/>
<path class="Note" d="M4931.58,1917.13 C4931.58,1931.36 4941.84,1947.25 4968.65,1947.25 C5003.07,1947.25 5039.15,1919.11 5039.15,1889.99 C5039.15,1870.46 5022.6,1859.53 5002.08,1859.53 C4969.97,1859.53 4931.58,1886.68 4931.58,1917.13"/>
<path class="Note" d="M8357.95,1890.35 C8347.03,1890.35 8344.71,1881.42 8344.71,1878.44 C8344.71,1862.22 8400.32,1833.75 8415.87,1833.75 C8423.82,1833.75 8429.11,1838.39 8429.11,1845.67 C8429.11,1862.22 8373.18,1890.35 8357.95,1890.35 M8403.63,1818.2 C8371.52,1818.2 8333.12,1845.01 8333.12,1875.79 C8333.12,1890.02 8343.39,1905.91 8370.2,1905.91 C8404.62,1905.91 8440.7,1877.78 8440.7,1848.65 C8440.7,1829.12 8424.15,1818.2 8403.63,1818.2"/>
<path class="Note" d="M6591.1,1049.02 C6591.1,1063.25 6601.36,1079.14 6628.17,1079.14 C6662.59,1079.14 6698.67,1051 6698.67,1021.88 C6698.67,1002.35 6682.12,991.425 6661.6,991.425 C6629.49,991.425 6591.1,1018.57 6591.1,1049.02"/>
<path class="Note" d="M6298.02,1007.68 C6298.02,1021.91 6308.28,1037.8 6335.09,1037.8 C6369.52,1037.8 6405.6,1009.67 6405.6,980.538 C6405.6,961.009 6389.05,950.086 6368.52,950.086 C6336.42,950.086 6298.02,977.228 6298.02,1007.68"/>
<path class="Note" d="M5366.32,1875.79 C5366.32,1890.02 5376.58,1905.91 5403.39,1905.91 C5437.81,1905.91 5473.89,1877.78 5473.89,1848.65 C5473.89,1829.12 5457.34,1818.2 5436.82,1818.2 C5404.71,1818.2 5366.32,1845.34 5366.32,1875.79"/>
<path class="Note" d="M6004.95,966.341 C6004.95,980.574 6015.21,996.462 6042.02,996.462 C6076.44,996.462 6112.52,968.327 6112.52,939.199 C6112.52,919.67 6095.97,908.747 6075.45,908.747 C6043.34,908.747 6004.95,935.889 6004.95,966.341"/>
<path class="Note" d="M5682.82,1834.45 C5682.82,1848.68 5693.09,1864.57 5719.9,1864.57 C5754.32,1864.57 5790.4,1836.44 5790.4,1807.31 C5790.4,1787.78 5773.85,1776.86 5753.33,1776.86 C5721.22,1776.86 5682.82,1804 5682.82,1834.45"/>
<path class="Note" d="M5711.87,1007.68 C5711.87,1021.91 5722.13,1037.8 5748.94,1037.8 C5783.37,1037.8 5819.45,1009.67 5819.45,980.538 C5819.45,961.009 5802.9,950.086 5782.38,950.086 C5750.27,950.086 5711.87,977.228 5711.87,1007.68"/>
<path class="Note" d="M5999.33,1875.79 C5999.33,1890.02 6009.59,1905.91 6036.41,1905.91 C6070.83,1905.91 6106.91,1877.78 6106.91,1848.65 C6106.91,1829.12 6090.36,1818.2 6069.84,1818.2 C6037.73,1818.2 5999.33,1845.34 5999.33,1875.79"/>
<path class="Note" d="M3130.82,925.003 C3130.82,939.236 3141.08,955.124 3167.89,955.124 C3202.31,955.124 3238.39,926.989 3238.39,897.861 C3238.39,878.332 3221.84,867.409 3201.32,867.409 C3169.21,867.409 3130.82,894.551 3130.82,925.003"/>
<path class="Note" d="M6315.84,1917.13 C6315.84,1931.36 6326.1,1947.25 6352.91,1947.25 C6387.34,1947.25 6423.42,1919.11 6423.42,1889.99 C6423.42,1870.46 6406.87,1859.53 6386.35,1859.53 C6354.24,1859.53 6315.84,1886.68 6315.84,1917.13"/>
<path class="Note" d="M5300.57,966.341 C5300.57,980.574 5310.83,996.462 5337.64,996.462 C5372.07,996.462 5408.14,968.327 5408.14,939.199 C5408.14,919.67 5391.59,908.747 5371.07,908.747 C5338.97,908.747 5300.57,935.889 5300.57,966.341"/>
<path class="Note" d="M6632.35,1958.47 C6632.35,1972.7 6642.61,1988.59 6669.42,1988.59 C6703.85,1988.59 6739.93,1960.45 6739.93,1931.33 C6739.93,1911.8 6723.38,1900.87 6702.85,1900.87 C6670.75,1900.87 6632.35,1928.02 6632.35,1958.47"/>
<path class="Note" d="M5007.49,925.003 C5007.49,939.236 5017.76,955.124 5044.57,955.124 C5078.99,955.124 5115.07,926.989 5115.07,897.861 C5115.07,878.332 5098.52,867.409 5078,867.409 C5045.89,867.409 5007.49,894.551 5007.49,925.003"/>
<path class="Note" d="M6948.86,1999.81 C6948.86,2014.04 6959.12,2029.93 6985.93,2029.93 C7020.36,2029.93 7056.44,2001.79 7056.44,1972.66 C7056.44,1953.14 7039.89,1942.21 7019.36,1942.21 C6987.26,1942.21 6948.86,1969.35 6948.86,1999.81"/>
<path class="Note" d="M3835.2,1049.02 C3835.2,1063.25 3845.46,1079.14 3872.27,1079.14 C3906.69,1079.14 3942.77,1051 3942.77,1021.88 C3942.77,1002.35 3926.22,991.425 3905.7,991.425 C3873.59,991.425 3835.2,1018.57 3835.2,1049.02"/>
<path class="Note" d="M2251.59,1007.68 C2251.59,1021.91 2261.86,1037.8 2288.67,1037.8 C2323.09,1037.8 2359.17,1009.67 2359.17,980.538 C2359.17,961.009 2342.62,950.086 2322.1,950.086 C2289.99,950.086 2251.59,977.228 2251.59,1007.68"/>
<path class="Note" d="M4714.42,966.341 C4714.42,980.574 4724.68,996.462 4751.49,996.462 C4785.92,996.462 4821.99,968.327 4821.99,939.199 C4821.99,919.67 4805.44,908.747 4784.92,908.747 C4752.82,908.747 4714.42,935.889 4714.42,966.341"/>
<path class="Note" d="M7383.6,1958.47 C7383.6,1972.7 7393.86,1988.59 7420.67,1988.59 C7455.09,1988.59 7491.17,1960.45 7491.17,1931.33 C7491.17,1911.8 7474.62,1900.87 7454.1,1900.87 C7421.99,1900.87 7383.6,1928.02 7383.6,1958.47"/>
<path class="Note" d="M4421.35,966.341 C4421.35,980.574 4431.61,996.462 4458.42,996.462 C4492.84,996.462 4528.92,968.327 4528.92,939.199 C4528.92,919.67 4512.37,908.747 4491.85,908.747 C4459.74,908.747 4421.35,935.889 4421.35,966.341"/>
<path class="Note" d="M7700.11,1917.13 C7700.11,1931.36 7710.37,1947.25 7737.18,1947.25 C7771.6,1947.25 7807.68,1919.11 7807.68,1889.99 C7807.68,1870.46 7791.13,1859.53 7770.61,1859.53 C7738.5,1859.53 7700.11,1886.68 7700.11,1917.13"/>
<path class="Note" d="M4128.27,1007.68 C4128.27,1021.91 4138.53,1037.8 4165.34,1037.8 C4199.77,1037.8 4235.85,1009.67 4235.85,980.538 C4235.85,961.009 4219.3,950.086 4198.77,950.086 C4166.67,950.086 4128.27,977.228 4128.27,1007.68"/>
<path class="Note" d="M1331.75,1917.13 C1331.75,1931.36 1342.01,1947.25 1368.82,1947.25 C1403.25,1947.25 1439.33,1919.11 1439.33,1889.99 C1439.33,1870.46 1422.78,1859.53 1402.26,1859.53 C1370.15,1859.53 1331.75,1886.68 1331.75,1917.13"/>
<path class="Clef" d="M909.689,1144.64 C903.069,1145.97 896.78,1146.63 890.491,1146.63 C843.158,1146.63 802.776,1113.53 802.776,1063.55 C802.776,1023.16 831.242,987.085 860.37,961.929 C865.997,956.964 871.293,952.33 876.258,947.365 C879.237,965.239 881.554,980.796 883.871,994.367 C853.75,1003.3 833.228,1035.08 833.228,1066.19 C833.228,1089.36 851.433,1121.14 877.913,1121.14 C880.561,1121.14 883.54,1119.82 883.54,1116.84 C883.54,1113.86 880.23,1112.2 876.258,1109.56 C863.349,1101.61 856.067,1093.01 856.067,1076.79 C856.067,1056.6 870.962,1040.38 890.491,1035.74 L909.689,1144.64 M880.561,804.373 C883.54,791.133 898.766,756.378 915.978,756.378 C920.943,756.378 928.887,772.597 928.887,795.436 C928.887,829.86 903.4,855.678 880.561,878.186 C878.575,864.946 876.92,852.037 876.92,838.135 C876.92,825.888 877.913,814.634 880.561,804.373 M956.691,1083.41 C956.691,1106.91 947.092,1131.07 923.591,1140.67 C916.64,1100.95 907.703,1048.32 905.386,1033.76 C935.176,1033.76 956.691,1053.95 956.691,1083.41 M811.051,1246.26 C811.051,1268.1 827.932,1296.9 872.617,1296.9 C888.174,1296.9 901.745,1292.93 913.661,1285.65 C931.535,1273.07 936.169,1251.22 936.169,1230.37 C936.169,1217.46 934.183,1202.57 930.873,1183.7 C929.88,1177.08 927.894,1167.15 925.908,1154.24 C958.346,1143.65 982.509,1109.89 982.509,1075.79 C982.509,1025.81 947.092,992.05 898.766,992.05 C895.456,972.19 892.146,952.661 889.167,934.125 C924.253,897.384 948.416,856.009 948.416,803.38 C948.416,773.259 939.148,748.765 933.852,736.849 C925.908,719.968 916.309,708.383 910.351,708.383 C908.034,708.383 897.773,712.355 886.85,725.264 C865.666,750.42 859.708,792.788 859.708,820.592 C859.708,838.466 861.363,854.685 866.99,891.757 C866.659,892.088 849.447,909.631 842.496,915.258 C812.375,943.393 770.669,983.444 770.669,1049.64 C770.669,1111.54 824.622,1160.2 886.188,1160.2 C895.787,1160.2 904.724,1159.21 912.337,1157.88 C918.626,1189.66 922.267,1212.83 922.267,1230.37 C922.267,1264.79 904.724,1283 871.293,1283 C863.349,1283 856.398,1281.34 855.736,1281.34 C855.405,1281.01 854.743,1280.68 854.743,1280.35 C854.743,1279.69 855.405,1279.36 856.398,1279.03 C871.955,1276.71 887.512,1263.47 887.512,1242.29 C887.512,1224.41 873.941,1205.55 849.116,1205.55 C825.946,1205.55 811.051,1224.41 811.051,1246.26"/>
<path class="Clef" d="M909.689,2012.75 C903.069,2014.08 896.78,2014.74 890.491,2014.74 C843.158,2014.74 802.776,1981.64 802.776,1931.66 C802.776,1891.27 831.242,1855.2 860.37,1830.04 C865.997,1825.07 871.293,1820.44 876.258,1815.48 C879.237,1833.35 881.554,1848.91 883.871,1862.48 C853.75,1871.41 833.228,1903.19 833.228,1934.3 C833.228,1957.47 851.433,1989.25 877.913,1989.25 C880.561,1989.25 883.54,1987.93 883.54,1984.95 C883.54,1981.97 880.23,1980.31 876.258,1977.67 C863.349,1969.72 856.067,1961.12 856.067,1944.9 C856.067,1924.71 870.962,1908.49 890.491,1903.85 L909.689,2012.75 M880.561,1672.48 C883.54,1659.24 898.766,1624.49 915.978,1624.49 C920.943,1624.49 928.887,1640.71 928.887,1663.55 C928.887,1697.97 903.4,1723.79 880.561,1746.3 C878.575,1733.06 876.92,1720.15 876.92,1706.25 C876.92,1694 877.913,1682.74 880.561,1672.48 M956.691,1951.52 C956.691,1975.02 947.092,1999.18 923.591,2008.78 C916.64,1969.06 907.703,1916.43 905.386,1901.87 C935.176,1901.87 956.691,1922.06 956.691,1951.52 M811.051,2114.37 C811.051,2136.21 827.932,2165.01 872.617,2165.01 C888.174,2165.01 901.745,2161.04 913.661,2153.76 C931.535,2141.18 936.169,2119.33 936.169,2098.48 C936.169,2085.57 934.183,2070.68 930.873,2051.81 C929.88,2045.19 927.894,2035.26 925.908,2022.35 C958.346,2011.76 982.509,1978 982.509,1943.9 C982.509,1893.92 947.092,1860.16 898.766,1860.16 C895.456,1840.3 892.146,1820.77 889.167,1802.24 C924.253,1765.49 948.416,1724.12 948.416,1671.49 C948.416,1641.37 939.148,1616.88 933.852,1604.96 C925.908,1588.08 916.309,1576.49 910.351,1576.49 C908.034,1576.49 897.773,1580.47 886.85,1593.37 C865.666,1618.53 859.708,1660.9 859.708,1688.7 C859.708,1706.58 861.363,1722.8 866.99,1759.87 C866.659,1760.2 849.447,1777.74 842.496,1783.37 C812.375,1811.5 770.669,1851.55 770.669,1917.75 C770.669,1979.65 824.622,2028.31 886.188,2028.31 C895.787,2028.31 904.724,2027.32 912.337,2025.99 C918.626,2057.77 922.267,2080.94 922.267,2098.48 C922.267,2132.9 904.724,2151.11 871.293,2151.11 C863.349,2151.11 856.398,2149.45 855.736,2149.45 C855.405,2149.12 854.743,2148.79 854.743,2148.46 C854.743,2147.8 855.405,2147.47 856.398,2147.14 C871.955,2144.82 887.512,2131.58 887.512,2110.4 C887.512,2092.52 873.941,2073.66 849.116,2073.66 C825.946,2073.66 811.051,2092.52 811.051,2114.37"/>
<path class="KeySig" d="M1070.17,803.93 L1099.63,797.972 L1099.63,852.587 L1070.17,858.876 L1070.17,803.93 M1121.48,793.669 C1123.47,793.338 1125.12,791.021 1125.12,789.035 L1125.12,769.506 C1125.12,766.858 1123.13,764.872 1120.49,764.872 L1119.82,764.872 L1108.9,767.189 L1108.9,717.87 L1099.63,717.87 L1099.63,769.175 L1070.17,775.133 L1070.17,728.462 L1060.91,728.462 L1060.91,777.119 L1048,779.767 C1046.01,780.098 1044.36,782.415 1044.36,784.401 L1044.36,803.599 C1044.36,806.247 1046.34,808.233 1048.99,808.233 L1049.98,808.233 L1060.91,805.916 L1060.91,860.531 L1048,863.179 C1046.01,863.51 1044.36,865.827 1044.36,867.813 L1044.36,887.011 C1044.36,889.659 1046.34,891.645 1048.99,891.645 L1049.98,891.645 L1060.91,889.328 L1060.91,938.647 L1070.17,938.647 L1070.17,887.342 L1099.63,881.384 L1099.63,928.055 L1108.9,928.055 L1108.9,879.398 L1121.48,877.081 C1123.47,876.75 1125.12,874.433 1125.12,872.447 L1125.12,852.918 C1125.12,850.27 1123.13,848.284 1120.49,848.284 L1119.82,848.284 L1108.9,850.601 L1108.9,795.986 L1121.48,793.669 "/>
<path class="KeySig" d="M1070.17,1672.04 L1099.63,1666.08 L1099.63,1720.7 L1070.17,1726.99 L1070.17,1672.04 M1121.48,1661.78 C1123.47,1661.45 1125.12,1659.13 1125.12,1657.14 L1125.12,1637.62 C1125.12,1634.97 1123.13,1632.98 1120.49,1632.98 L1119.82,1632.98 L1108.9,1635.3 L1108.9,1585.98 L1099.63,1585.98 L1099.63,1637.28 L1070.17,1643.24 L1070.17,1596.57 L1060.91,1596.57 L1060.91,1645.23 L1048,1647.88 C1046.01,1648.21 1044.36,1650.52 1044.36,1652.51 L1044.36,1671.71 C1044.36,1674.36 1046.34,1676.34 1048.99,1676.34 L1049.98,1676.34 L1060.91,1674.03 L1060.91,1728.64 L1048,1731.29 C1046.01,1731.62 1044.36,1733.94 1044.36,1735.92 L1044.36,1755.12 C1044.36,1757.77 1046.34,1759.75 1048.99,1759.75 L1049.98,1759.75 L1060.91,1757.44 L1060.91,1806.76 L1070.17,1806.76 L1070.17,1755.45 L1099.63,1749.49 L1099.63,1796.16 L1108.9,1796.16 L1108.9,1747.51 L1121.48,1745.19 C1123.47,1744.86 1125.12,1742.54 1125.12,1740.56 L1125.12,1721.03 C1125.12,1718.38 1123.13,1716.39 1120.49,1716.39 L1119.82,1716.39 L1108.9,1718.71 L1108.9,1664.1 L1121.48,1661.78 "/>
<path class="TimeSig" d="M1281.87,979.772 C1270.94,979.772 1262.01,964.877 1262.01,946.341 C1262.01,927.805 1270.94,912.579 1281.87,912.579 C1292.79,912.579 1302.06,927.805 1302.06,946.341 C1302.06,964.877 1292.79,979.772 1281.87,979.772 M1294.11,897.022 C1273.92,897.022 1266.64,902.98 1262.01,907.945 C1261.01,900.994 1260.35,895.698 1260.35,890.402 C1260.35,871.535 1266.97,847.041 1290.14,847.041 C1298.42,847.041 1303.38,849.689 1306.69,853.33 C1299.74,856.309 1294.11,865.246 1294.11,872.859 C1294.11,884.775 1303.38,894.043 1315.3,894.043 C1327.21,894.043 1336.81,884.775 1336.81,872.859 L1336.81,871.866 C1336.81,868.887 1336.15,863.922 1334.83,861.274 C1330.52,849.358 1316.62,831.815 1283.52,831.815 C1253.73,831.815 1232.22,860.281 1225.6,875.507 C1222.29,883.451 1217.32,899.67 1217.32,918.206 C1217.32,938.397 1222.95,961.236 1242.48,978.448 C1261.68,993.012 1273.92,993.674 1285.51,993.674 C1297.09,993.674 1340.45,980.103 1340.45,941.707 C1340.45,909.269 1314.97,897.022 1294.11,897.022"/>
<path class="TimeSig" d="M1271.95,1118.01 L1271.95,1142.5 L1244.48,1142.5 C1242.16,1142.5 1239.85,1144.49 1239.85,1147.13 L1239.85,1153.42 C1239.85,1156.07 1242.16,1158.06 1244.48,1158.06 L1344.77,1158.06 C1347.42,1158.06 1349.41,1156.07 1349.41,1153.42 L1349.41,1147.13 C1349.41,1144.49 1347.42,1142.5 1344.77,1142.5 L1314.98,1142.5 L1314.98,1118.01 L1344.77,1118.01 C1347.42,1118.01 1349.41,1115.69 1349.41,1113.04 L1349.41,1106.75 C1349.41,1104.44 1347.42,1102.12 1344.77,1102.12 L1314.98,1102.12 L1314.98,1049.49 C1314.98,1047.5 1313.99,1045.85 1312.67,1045.19 L1308.7,1043.2 C1308.03,1042.87 1307.7,1042.87 1307.04,1042.87 C1305.72,1042.87 1304.39,1042.87 1303.4,1043.86 L1273.28,1071.34 C1272.29,1072.33 1271.95,1073.65 1271.95,1074.98 L1271.95,1102.12 L1233.56,1102.12 C1233.56,1102.12 1270.63,1062.4 1309.69,1010.1 C1311.01,1008.45 1311.34,1006.79 1311.34,1005.47 C1311.34,1003.81 1310.68,1002.49 1310.35,1002.16 L1303.07,994.874 C1302.08,994.212 1301.08,993.55 1299.76,993.55 C1297.77,993.55 1253.09,993.55 1250.44,993.55 C1248.12,993.55 1246.47,995.536 1246.14,997.522 C1246.14,997.522 1244.48,1022.02 1235.88,1048.83 C1227.27,1075.64 1217.34,1092.19 1208.73,1104.44 C1208.73,1104.44 1207.74,1106.09 1207.74,1108.08 C1207.74,1108.74 1207.74,1109.4 1208.07,1110.06 C1209.06,1112.38 1211.38,1116.02 1211.38,1116.02 C1211.38,1116.02 1212.04,1118.01 1215.02,1118.01 L1271.95,1118.01 "/>
</svg>
