<?xml version="1.0" encoding="UTF-8" standalone="no"?>
<svg
   width="681"
   height="119.16004"
   version="1.2"
   id="svg145"
   xmlns="http://www.w3.org/2000/svg"
   xmlns:svg="http://www.w3.org/2000/svg"
   xmlns:rdf="http://www.w3.org/1999/02/22-rdf-syntax-ns#"
   xmlns:cc="http://creativecommons.org/ns#"
   xmlns:dc="http://purl.org/dc/elements/1.1/">
  <defs
     id="defs145" />
  <title
     id="title1">air_XXXVII</title>
  <desc
     id="desc1">Generated by MuseScore Studio 4.7.3</desc>
  <path
     id="path145"
     class="NoteDot"
     d="m 633.38746,104.82143 c 0,0.74211 0.5828,1.32491 1.32491,1.32491 0.7421,0 1.3249,-0.5828 1.3249,-1.32491 0,-0.74211 -0.5828,-1.3249 -1.3249,-1.3249 -0.74211,0 -1.32491,0.58279 -1.32491,1.3249 M 218.25001,22.087742 c 0,0.741948 0.5828,1.325227 1.32491,1.325227 0.74211,0 1.3249,-0.583279 1.3249,-1.325227 0,-0.741947 -0.58279,-1.324905 -1.3249,-1.324905 -0.74211,0 -1.32491,0.582958 -1.32491,1.324905 M 655.57383,8.8393239 669.87961,10.493975 v 3.331398 L 655.57383,12.170722 V 8.8393239 m -509.96949,71.1539311 16.94439,1.654732 v 3.325473 l -16.94439,-1.654731 v -3.325474 m 44.28068,0.0072 49.50825,-1.654731 v 3.311064 l -49.50825,1.654731 V 80.00046 M 572.58989,45.253502 h 41.59324 v 3.308662 H 572.58989 V 45.253502 M 538.89005,5.5299411 553.19583,7.1846725 V 10.51607 L 538.89005,8.861419 V 5.5299411 m -126.34799,99.2882889 52.26373,3.30946 v 3.31587 l -52.26373,-3.30946 v -3.31587 M 253.1939,8.8393239 267.49969,10.493975 v 3.331398 L 253.1939,12.170722 V 8.8393239 M 425.24835,29.795733 c -0.0264,-0.02642 -0.0801,-0.07925 -0.15931,-0.185727 l -3.04689,-3.762573 c -0.0264,-0.02642 -0.0536,-0.105672 -0.0536,-0.158508 0,-0.08006 0.0272,-0.185727 0.0536,-0.238563 l 2.70265,-4.080951 c 0.0264,-0.053 0.0528,-0.13249 0.0528,-0.185487 v -0.238483 c 0,-0.07949 -0.0264,-0.158988 -0.0793,-0.211985 l -4.29253,-5.803087 c 0,0 -0.10647,-0.158989 -0.26498,-0.158989 -0.0801,0 -0.13289,0.0265 -0.21215,0.07949 -0.10647,0.0795 -0.13289,0.185487 -0.13289,0.264981 0,0.158989 0.0801,0.29148 0.0801,0.29148 l 2.01337,2.755804 c 0.0528,0.07949 0.0793,0.185487 0.0793,0.317977 0,0.105993 -0.0264,0.238483 -0.0793,0.317978 l -2.67623,4.08071 c -0.0264,0.053 -0.0528,0.158989 -0.0528,0.211985 v 0.238723 c 0,0.07925 0.0264,0.158509 0.0793,0.211345 l 2.96763,3.683318 c -0.10567,-0.02642 -0.34423,-0.07925 -0.66205,-0.07925 -1.35133,0 -2.41125,1.112761 -2.41125,2.464085 0,0.371454 0.0793,0.742107 0.2914,1.033506 0.55638,0.84778 2.54334,3.365502 2.54334,3.365502 0,0 0.13289,0.159309 0.31862,0.159309 0.0528,0 0.10567,0 0.1585,-0.05364 0.13289,-0.105672 0.18573,-0.211345 0.18573,-0.317817 0,-0.105673 -0.0528,-0.185727 -0.0793,-0.238564 -0.0801,-0.13209 -0.92784,-1.669141 -0.92784,-1.669141 0,0 -0.18572,-0.370653 -0.18572,-0.84778 0,-0.847779 0.63643,-1.53705 1.48421,-1.53705 0.34424,0 0.63563,0.105672 0.84778,0.238563 l 1.03351,0.662052 c 0,0 0.10647,0.05364 0.21214,0.05364 0.10567,0 0.18573,-0.02722 0.26498,-0.132891 0.0528,-0.105672 0.0793,-0.159309 0.0793,-0.238563 0,-0.07925 -0.0264,-0.13209 -0.0793,-0.212145 l -0.0528,-0.07925 M 63.075115,20.653962 c -0.662053,0.42397 -1.139179,1.192415 -1.139179,2.040355 0,0.105993 0,0.211985 0.02642,0.317978 0.13209,1.086743 1.007088,1.934522 2.093431,2.066613 h 0.291399 c 1.324906,0 2.384831,-1.059925 2.384831,-2.384591 v -0.158989 c 0,-0.105992 -0.02642,-0.291479 -0.05284,-0.397471 -0.238563,-1.139419 -1.27207,-3.577246 -5.77675,-3.577246 -5.77675,0 -6.438802,4.796319 -6.438802,6.518297 0,3.153356 0.397071,7.101655 7.021601,7.101655 2.623393,0 4.663989,-1.537051 4.769661,-4.371789 0,-0.132891 -0.07925,-0.212145 -0.212145,-0.212145 h -0.344236 c -0.105672,0 -0.212145,0.105672 -0.212145,0.212145 -0.105672,2.199104 -1.669141,3.52401 -4.001135,3.52401 -2.305577,0 -3.418338,-1.245652 -3.418338,-3.577646 v -5.060821 c 0,-1.483894 0.582799,-3.179774 2.941211,-3.179774 1.245652,0 1.802032,0.450468 2.093432,0.900936 0.02642,0.053 0.02642,0.07949 0.02642,0.132491 0,0.0265 0,0.07949 -0.05284,0.105992 m -19.625419,55.732027 2.358412,-0.477127 v 4.37179 l -2.358412,0.503544 V 76.385989 M 47.5565,75.564627 c 0.159309,-0.02642 0.2922,-0.212145 0.2922,-0.371454 v -1.563469 c 0,-0.211344 -0.159309,-0.370653 -0.371454,-0.370653 h -0.05284 l -0.874198,0.185727 v -3.9483 H 45.8081 v 4.106808 l -2.358412,0.477126 V 70.344258 H 42.70758 v 3.895463 l -1.033506,0.211345 c -0.158509,0.02722 -0.291399,0.212145 -0.291399,0.371454 v 1.537051 c 0,0.211344 0.159308,0.370653 0.371453,0.370653 h 0.07925 l 0.874197,-0.185727 v 4.37259 l -1.033506,0.212145 c -0.158509,0.02642 -0.291399,0.211344 -0.291399,0.370653 v 1.537051 c 0,0.212145 0.159308,0.370654 0.371453,0.370654 h 0.07925 l 0.874197,-0.184927 v 3.947499 h 0.742108 v -4.106808 l 2.358412,-0.477126 v 3.736155 h 0.742108 V 82.42772 l 1.006288,-0.185727 c 0.159309,-0.02642 0.2922,-0.212145 0.2922,-0.371454 V 80.30787 c 0,-0.212145 -0.159309,-0.371454 -0.371454,-0.371454 h -0.05284 l -0.874198,0.185727 v -4.372589 l 1.006288,-0.184927 M 36.194335,89.62304 38.552748,89.145913 v 4.37259 l -2.358413,0.503544 V 89.62304 m 4.107609,-0.821362 c 0.159308,-0.02642 0.291399,-0.212145 0.291399,-0.370654 v -1.563469 c 0,-0.212145 -0.159309,-0.371454 -0.370654,-0.371454 h -0.05364 l -0.874198,0.185727 v -3.948299 h -0.742107 v 4.107608 l -2.358413,0.477127 v -3.736955 h -0.741307 v 3.895463 l -1.033507,0.212145 c -0.159308,0.02642 -0.291399,0.212145 -0.291399,0.370654 v 1.53705 c 0,0.212146 0.158509,0.371454 0.370654,0.371454 h 0.07925 l 0.874998,-0.185727 v 4.37179 l -1.033507,0.212145 c -0.159308,0.02642 -0.291399,0.212145 -0.291399,0.371454 v 1.53625 c 0,0.212145 0.158509,0.371454 0.370654,0.371454 h 0.07925 l 0.874998,-0.185727 v 3.948296 h 0.741307 v -4.107605 l 2.358413,-0.476326 v 3.736155 h 0.742107 v -3.895463 l 1.007089,-0.185727 c 0.159308,-0.02642 0.291399,-0.211345 0.291399,-0.370654 v -1.563469 c 0,-0.212145 -0.159309,-0.370653 -0.370654,-0.370653 h -0.05364 l -0.874198,0.184926 v -4.371789 l 1.007089,-0.185727 m -11.361369,-9.106226 2.358413,-0.477127 v 4.37179 l -2.358413,0.503544 v -4.398207 m 4.107609,-0.821362 c 0.159309,-0.02722 0.291399,-0.212145 0.291399,-0.371454 v -1.563469 c 0,-0.212145 -0.159309,-0.370653 -0.370653,-0.370653 h -0.05364 l -0.874198,0.185727 v -3.9483 h -0.742107 v 4.106808 l -2.358413,0.477126 v -3.736154 h -0.741307 v 3.895463 l -1.033506,0.211345 c -0.159309,0.02642 -0.2914,0.212145 -0.2914,0.371454 v 1.53705 c 0,0.211345 0.158509,0.370654 0.370654,0.370654 h 0.07925 l 0.874998,-0.185727 v 4.37259 l -1.033506,0.212145 c -0.159309,0.02642 -0.2914,0.211344 -0.2914,0.370653 v 1.537051 c 0,0.212145 0.158509,0.370654 0.370654,0.370654 h 0.07925 l 0.874998,-0.185727 v 3.948299 h 0.741307 v -4.106808 l 2.358413,-0.477126 v 3.736155 h 0.742107 v -3.895464 l 1.007089,-0.184926 c 0.159309,-0.02642 0.291399,-0.212145 0.291399,-0.371454 v -1.563469 c 0,-0.211345 -0.159309,-0.370654 -0.370653,-0.370654 h -0.05364 l -0.874198,0.185727 v -4.37259 L 33.048184,78.87409 M 43.449696,6.8895107 45.808108,6.4125446 v 4.3721894 l -2.358412,0.503464 V 6.8895107 M 47.556504,6.068069 c 0.159309,-0.026498 0.2922,-0.2119849 0.2922,-0.3709736 v -1.563389 c 0,-0.2119849 -0.159309,-0.3709736 -0.371454,-0.3709736 H 47.42441 L 46.550216,3.9482196 V 0 H 45.808108 V 4.1072083 L 43.449696,4.5841744 V 0.84793978 H 42.707588 V 4.7431631 l -1.033506,0.211985 c -0.158509,0.026498 -0.291399,0.2119849 -0.291399,0.3709736 v 1.5368909 c 0,0.2119849 0.159308,0.3709736 0.371453,0.3709736 h 0.07925 l 0.874197,-0.1854868 v 4.3721896 l -1.033506,0.211985 c -0.158509,0.0265 -0.291399,0.211985 -0.291399,0.370973 v 1.536891 c 0,0.211985 0.159308,0.370974 0.371453,0.370974 h 0.07925 l 0.874197,-0.185487 v 3.94822 h 0.742108 v -4.107209 l 2.358412,-0.476966 v 3.736235 h 0.742108 v -3.895223 l 1.006288,-0.185487 c 0.159309,-0.0265 0.2922,-0.211985 0.2922,-0.370974 v -1.563389 c 0,-0.211985 -0.159309,-0.370974 -0.371454,-0.370974 H 47.4244 l -0.874198,0.185487 V 6.2535559 L 47.556504,6.068069 m -11.362169,14.058813 2.358413,-0.476966 v 4.372269 l -2.358413,0.503544 v -4.398847 m 4.107609,-0.821442 c 0.159308,-0.0265 0.291399,-0.211985 0.291399,-0.370974 v -1.563389 c 0,-0.211985 -0.159309,-0.370973 -0.370654,-0.370973 h -0.05364 l -0.874198,0.185487 v -3.94822 h -0.742107 v 4.107208 l -2.358413,0.476966 v -3.736234 h -0.741307 v 3.895223 l -1.033507,0.211985 c -0.159308,0.0265 -0.291399,0.211985 -0.291399,0.370974 v 1.536891 c 0,0.211985 0.158509,0.370973 0.370654,0.370973 h 0.07925 L 35.45302,20.28587 v 4.37195 l -1.033507,0.212145 c -0.159308,0.02642 -0.291399,0.212145 -0.291399,0.371454 v 1.53625 c 0,0.212145 0.158509,0.371454 0.370654,0.371454 h 0.07925 l 0.874998,-0.185727 v 3.9483 h 0.741307 v -4.107609 l 2.358413,-0.476325 v 3.736154 h 0.742107 v -3.895463 l 1.007089,-0.185727 c 0.159308,-0.02642 0.291399,-0.211345 0.291399,-0.370654 v -1.563469 c 0,-0.212145 -0.159309,-0.370653 -0.370654,-0.370653 h -0.05364 l -0.874198,0.184926 V 19.490927 L 40.301944,19.30544 M 28.940575,10.198813 31.298988,9.7218473 v 4.3721897 l -2.358413,0.503464 v -4.398688 m 4.107609,-0.8214412 c 0.159309,-0.026498 0.291399,-0.211985 0.291399,-0.3709737 v -1.563389 c 0,-0.2119849 -0.159309,-0.3709736 -0.370653,-0.3709736 H 32.91529 L 32.041095,7.2575223 V 3.3093027 H 31.298988 V 7.416511 L 28.940575,7.8934771 V 4.1572425 h -0.741307 v 3.8952234 l -1.033506,0.2119849 c -0.159309,0.026498 -0.2914,0.2119849 -0.2914,0.3709736 v 1.5368906 c 0,0.211985 0.158509,0.370974 0.370654,0.370974 h 0.07925 l 0.874998,-0.185487 v 4.37219 l -1.033506,0.211985 c -0.159309,0.0265 -0.2914,0.211984 -0.2914,0.370973 v 1.536891 c 0,0.211985 0.158509,0.370974 0.370654,0.370974 h 0.07925 l 0.874998,-0.185487 v 3.948219 h 0.741307 v -4.107208 l 2.358413,-0.476966 v 3.736235 h 0.742107 v -3.895224 l 1.007089,-0.185487 c 0.159309,-0.0265 0.291399,-0.211984 0.291399,-0.370973 v -1.563389 c 0,-0.211985 -0.159309,-0.370974 -0.370653,-0.370974 h -0.05364 l -0.874198,0.185487 V 9.5628586 l 1.0071,-0.1854868 M 16.093311,37.474583 c -0.529962,0.105672 -1.033427,0.158509 -1.536891,0.158509 -3.789231,0 -7.0220012,-2.649812 -7.0220012,-6.650948 0,-3.23261 2.2788382,-6.120985 4.6106722,-8.134682 0.450468,-0.397472 0.874438,-0.768446 1.27191,-1.165917 0.238483,1.430898 0.42397,2.676069 0.609457,3.762412 -2.411329,0.71569 -4.0542123,3.259829 -4.0542123,5.750332 0,1.854868 1.4573963,4.399008 3.5772463,4.399008 0.211985,0 0.450468,-0.106473 0.450468,-0.345036 0,-0.238563 -0.264982,-0.370654 -0.582959,-0.582799 -1.033427,-0.635634 -1.616385,-1.324905 -1.616385,-2.623393 0,-1.616305 1.192415,-2.914793 2.755804,-3.285447 l 1.536891,8.717961 M 13.761477,10.234358 c 0.238483,-1.059925 1.457396,-3.8422274 2.835298,-3.8422274 0.397472,0 1.033427,1.2984078 1.033427,3.1267779 0,2.7558045 -2.040355,4.8226575 -3.868725,6.6245295 -0.158989,-1.059925 -0.29148,-2.093351 -0.29148,-3.206272 0,-0.980431 0.0795,-1.881367 0.29148,-2.702808 m 6.094567,22.337673 c 0,1.881286 -0.768446,3.816209 -2.649812,4.584735 -0.556461,-3.179774 -1.27191,-7.393055 -1.457397,-8.559453 2.384831,0 4.107209,1.616305 4.107209,3.974718 M 8.1968718,45.608945 c 0,1.749196 1.351404,4.054772 4.9286502,4.054772 1.245411,0 2.331834,-0.317817 3.285766,-0.901416 1.430899,-1.006288 1.801872,-2.755484 1.801872,-4.424625 0,-1.033507 -0.158988,-2.226322 -0.423969,-3.736155 -0.07949,-0.529962 -0.238484,-1.324906 -0.397472,-2.358412 2.596815,-0.848581 4.531178,-3.551229 4.531178,-6.280295 0,-4.001135 -2.835299,-6.703783 -6.704024,-6.703783 -0.264981,-1.589887 -0.529962,-3.153516 -0.768445,-4.637411 2.8088,-2.941291 4.743163,-6.253556 4.743163,-10.466757 0,-2.4113284 -0.741948,-4.3721891 -1.165917,-5.3261214 -0.635955,-1.351404 -1.404401,-2.2788381 -1.881367,-2.2788381 -0.185487,0 -1.006928,0.3179774 -1.881366,1.351404 -1.69588,2.013857 -2.172846,5.4056161 -2.172846,7.6314575 0,1.430899 0.132491,2.729307 0.582959,5.697096 -0.0265,0.0265 -1.404401,1.430898 -1.960861,1.881366 -2.4113287,2.25234 -5.7500916,5.458533 -5.7500916,10.758156 0,4.955388 4.3191932,8.850051 9.2478436,8.850051 0.768445,0 1.483894,-0.07925 2.093351,-0.184926 0.503464,2.543339 0.794943,4.398207 0.794943,5.803168 0,2.755484 -1.4044,4.213281 -4.08071,4.213281 -0.635955,0 -1.192415,-0.132891 -1.245411,-0.132891 -0.0265,-0.02642 -0.07949,-0.05284 -0.07949,-0.07925 0,-0.05284 0.053,-0.08005 0.132491,-0.106473 1.245412,-0.184927 2.490823,-1.244851 2.490823,-2.941211 0,-1.430578 -1.086423,-2.941211 -3.073782,-2.941211 -1.8548679,0 -3.0472832,1.510633 -3.0472832,3.259028 M 16.093311,106.9709 c -0.529962,0.10567 -1.033427,0.15851 -1.536891,0.15851 -3.789231,0 -7.0220012,-2.64981 -7.0220012,-6.65095 0,-3.232608 2.2788382,-6.120983 4.6106722,-8.13436 0.450468,-0.397872 0.874438,-0.768525 1.27191,-1.166397 0.238483,1.431378 0.42397,2.676229 0.609457,3.762572 -2.411329,0.71569 -4.0542123,3.259829 -4.0542123,5.750335 0,1.85487 1.4573963,4.399 3.5772463,4.399 0.211985,0 0.450468,-0.10647 0.450468,-0.34503 0,-0.23776 -0.264982,-0.37065 -0.582959,-0.5828 -1.033427,-0.63563 -1.616385,-1.32491 -1.616385,-2.62339 0,-1.616309 1.192415,-2.914796 2.755804,-3.28545 l 1.536891,8.71796 M 13.761477,79.730676 c 0.238483,-1.059925 1.457396,-3.841827 2.835298,-3.841827 0.397472,0 1.033427,1.297687 1.033427,3.126137 0,2.756285 -2.040355,4.823298 -3.868725,6.62453 -0.158989,-1.059925 -0.29148,-2.093432 -0.29148,-3.206192 0,-0.97987 0.0795,-1.881287 0.29148,-2.702648 m 6.094567,22.337674 c 0,1.88129 -0.768446,3.81621 -2.649812,4.58473 -0.556461,-3.17977 -1.27191,-7.393051 -1.457397,-8.559449 2.384831,0 4.107209,1.616305 4.107209,3.974719 M 8.1968718,115.10606 c 0,1.7484 1.351404,4.05398 4.9286502,4.05398 1.245411,0 2.331834,-0.31782 3.285766,-0.90142 1.430899,-1.00629 1.801872,-2.75549 1.801872,-4.42463 0,-1.0335 -0.158988,-2.22632 -0.423969,-3.73615 -0.07949,-0.52996 -0.238484,-1.32491 -0.397472,-2.35841 2.596815,-0.84778 4.531178,-3.55123 4.531178,-6.2803 0,-4.001133 -2.835299,-6.703781 -6.704024,-6.703781 -0.264981,-1.589887 -0.529962,-3.153356 -0.768445,-4.637571 2.8088,-2.941211 4.743163,-6.253076 4.743163,-10.466357 0,-2.411248 -0.741948,-4.372589 -1.165917,-5.326041 -0.635955,-1.351324 -1.404401,-2.279159 -1.881367,-2.279159 -0.185487,0 -1.006928,0.317818 -1.881366,1.351324 -1.69588,2.014178 -2.172846,5.406097 -2.172846,7.631618 0,1.430579 0.132491,2.729066 0.582959,5.696696 -0.0265,0.02722 -1.404401,1.431378 -1.960861,1.882086 -2.4113287,2.25194 -5.7500916,5.458132 -5.7500916,10.757756 0,4.955389 4.3191932,8.850849 9.2478436,8.850849 0.768445,0 1.483894,-0.08 2.093351,-0.18572 0.503464,2.54333 0.794943,4.3982 0.794943,5.80316 0,2.75549 -1.4044,4.21328 -4.08071,4.21328 -0.635955,0 -1.192415,-0.13289 -1.245411,-0.13289 -0.0265,-0.0264 -0.07949,-0.0528 -0.07949,-0.0792 0,-0.0528 0.053,-0.0793 0.132491,-0.10647 1.245412,-0.18493 2.490823,-1.24485 2.490823,-2.94121 0,-1.43058 -1.086423,-2.94122 -3.073782,-2.94122 -1.8548679,0 -3.0472832,1.51064 -3.0472832,3.25983 M 647.6316,29.819749 c 0,1.139179 0.82136,2.411249 2.96763,2.411249 2.75548,0 5.64386,-2.25274 5.64386,-4.584735 0,-1.563469 -1.32491,-2.437667 -2.96763,-2.437667 -2.57056,0 -5.64386,2.172686 -5.64386,4.611153 m -269.40981,0 c 0,1.139179 0.82136,2.411249 2.96763,2.411249 2.75629,0 5.64466,-2.25274 5.64466,-4.584735 0,-1.563469 -1.32491,-2.437667 -2.96843,-2.437667 -2.56976,0 -5.64386,2.172686 -5.64386,4.611153 m 85.92195,62.877392 c 0,1.139179 0.82136,2.411249 2.96763,2.411249 2.75628,0 5.64466,-2.25274 5.64466,-4.583934 0,-1.563469 -1.32491,-2.438467 -2.96843,-2.438467 -2.56976,0 -5.64386,2.173486 -5.64386,4.611152 m -65.45595,-59.56873 c 0,1.13998 0.82136,2.411249 2.96762,2.411249 2.75549,0 5.64386,-2.25194 5.64386,-4.583934 0,-1.563469 -1.3249,-2.437667 -2.96763,-2.437667 -2.57055,0 -5.64385,2.172686 -5.64385,4.610352 m -139.79239,0 c 0,1.13998 0.82136,2.411249 2.96763,2.411249 2.75629,0 5.64386,-2.25194 5.64386,-4.583934 0,-1.563469 -1.3249,-2.437667 -2.96763,-2.437667 -2.56976,0 -5.64386,2.172686 -5.64386,4.610352 m 188.96601,56.259268 c 0,1.139179 0.82136,2.411248 2.96763,2.411248 2.75628,0 5.64466,-2.251939 5.64466,-4.583934 0,-1.563469 -1.32491,-2.437667 -2.96843,-2.437667 -2.56976,0 -5.64386,2.172686 -5.64386,4.610353 m -8.24164,-62.877393 c 0,1.139179 0.82136,2.411249 2.96763,2.411249 2.75549,0 5.64386,-2.25274 5.64386,-4.584735 0,-1.562988 -1.3249,-2.437426 -2.96763,-2.437426 -2.57056,0 -5.64386,2.172445 -5.64386,4.610912 m -10.79538,59.56793 c 0,1.139179 0.82136,2.411248 2.96763,2.411248 2.75548,0 5.64386,-2.251939 5.64386,-4.583934 0,-1.563469 -1.32491,-2.437667 -2.96763,-2.437667 -2.57056,0 -5.64386,2.172686 -5.64386,4.610353 m 76.02478,13.237851 c 0,1.139183 0.82217,2.411253 2.96843,2.411253 2.75549,0 5.64386,-2.252745 5.64386,-4.584739 0,-1.563469 -1.3249,-2.437667 -2.96763,-2.437667 -2.57055,0 -5.64466,2.172686 -5.64466,4.611153 M 79.96026,26.510286 c 0,1.139179 0.821358,2.411249 2.967626,2.411249 2.755484,0 5.643859,-2.25274 5.643859,-4.584735 0,-1.562988 -1.324906,-2.437426 -2.967629,-2.437426 -2.570558,0 -5.643856,2.172445 -5.643856,4.610912 m 332.5818,56.258467 c 0,1.139979 0.82136,2.411249 2.96763,2.411249 2.75548,0 5.64386,-2.25194 5.64386,-4.583935 0,-1.563469 -1.32491,-2.437666 -2.96763,-2.437666 -2.57056,0 -5.64386,2.172685 -5.64386,4.610352 m 57.00778,-59.56809 c 0,1.139339 0.82136,2.411409 2.96763,2.411409 2.75628,0 5.64466,-2.25274 5.64466,-4.584254 0,-1.563389 -1.32491,-2.437827 -2.96763,-2.437827 -2.57056,0 -5.64466,2.172846 -5.64466,4.610672 M 115.00742,16.581978 c 0,1.139419 0.82136,2.411329 2.96763,2.411329 2.75548,0 5.64386,-2.25234 5.64386,-4.584175 0,-1.563389 -1.32491,-2.437827 -2.96763,-2.437827 -2.57056,0 -5.64386,2.172846 -5.64386,4.610673 m 375.00841,6.618685 c 0,1.139339 0.82136,2.411409 2.96763,2.411409 2.75628,0 5.64466,-2.25274 5.64466,-4.584254 0,-1.563389 -1.32491,-2.437827 -2.96843,-2.437827 -2.56976,0 -5.64386,2.172846 -5.64386,4.610672 M 378.65329,86.078216 c 0,1.139179 0.82216,2.411248 2.96843,2.411248 2.75548,0 5.64386,-2.251939 5.64386,-4.583934 0,-1.563469 -1.32491,-2.437667 -2.96763,-2.437667 -2.57056,0 -5.64466,2.172686 -5.64466,4.610353 M 510.48182,23.200663 c 0,1.139339 0.82137,2.411409 2.96763,2.411409 2.75629,0 5.64466,-2.25274 5.64466,-4.584254 0,-1.563389 -1.3249,-2.437827 -2.96843,-2.437827 -2.56975,0 -5.64386,2.172846 -5.64386,4.610672 M 354.23019,96.006604 c 0,1.139179 0.82136,2.411249 2.96763,2.411249 2.75628,0 5.64386,-2.25274 5.64386,-4.584735 0,-1.562668 -1.32491,-2.437667 -2.96763,-2.437667 -2.56976,0 -5.64386,2.172686 -5.64386,4.611153 M 530.94782,26.510286 c 0,1.139179 0.82136,2.411249 2.96763,2.411249 2.75548,0 5.64386,-2.25274 5.64386,-4.584735 0,-1.562988 -1.32491,-2.437426 -2.96763,-2.437426 -2.57056,0 -5.64386,2.172445 -5.64386,4.610912 m -201.14153,59.56793 c 0,1.139179 0.82216,2.411248 2.96843,2.411248 2.75548,0 5.64386,-2.251939 5.64386,-4.583934 0,-1.563469 -1.32491,-2.437667 -2.96763,-2.437667 -2.57056,0 -5.64466,2.172686 -5.64466,4.610353 m 18.48464,-56.258467 c 0,1.139179 0.82136,2.411249 2.96843,2.411249 2.75548,0 5.64386,-2.25274 5.64386,-4.584735 0,-1.563469 -1.32491,-2.437667 -2.96763,-2.437667 -2.57056,0 -5.64466,2.172686 -5.64466,4.611153 m -42.90774,66.186855 c 0,1.139179 0.82136,2.411249 2.96763,2.411249 2.75628,0 5.64466,-2.25274 5.64466,-4.584735 0,-1.562668 -1.32491,-2.437667 -2.96843,-2.437667 -2.56976,0 -5.64386,2.172686 -5.64386,4.611153 M 544.59155,29.819749 c 0,1.139179 0.82136,2.411249 2.96763,2.411249 2.75628,0 5.64466,-2.25274 5.64466,-4.584735 0,-1.563469 -1.32491,-2.437667 -2.96843,-2.437667 -2.56976,0 -5.64386,2.172686 -5.64386,4.611153 m -409.11894,9.927588 c 0,1.139179 0.82217,2.411249 2.96843,2.411249 2.75549,0 5.64386,-2.25194 5.64386,-4.583934 0,-1.563469 -1.3249,-2.437667 -2.96763,-2.437667 -2.57056,0 -5.64466,2.172685 -5.64466,4.610352 m 109.77906,-9.927588 c 0,1.139179 0.82137,2.411249 2.96763,2.411249 2.75549,0 5.64386,-2.25274 5.64386,-4.584735 0,-1.563469 -1.3249,-2.437667 -2.96763,-2.437667 -2.57055,0 -5.64386,2.172686 -5.64386,4.611153 m 26.24355,56.258467 c 0,1.139179 0.82136,2.411248 2.96763,2.411248 2.75548,0 5.64386,-2.251939 5.64386,-4.583934 0,-1.563469 -1.32491,-2.437667 -2.96763,-2.437667 -2.57056,0 -5.64386,2.172686 -5.64386,4.610353 m 301.09467,-59.56793 c 0,1.139179 0.82136,2.411249 2.96763,2.411249 2.75628,0 5.64386,-2.25274 5.64386,-4.584735 0,-1.562988 -1.32491,-2.437426 -2.96763,-2.437426 -2.56976,0 -5.64386,2.172445 -5.64386,4.610912 M 247.07132,102.62473 c 0,1.13998 0.82136,2.41205 2.96763,2.41205 2.75628,0 5.64466,-2.25274 5.64466,-4.58474 0,-1.563465 -1.32491,-2.437663 -2.96763,-2.437663 -2.57056,0 -5.64466,2.172683 -5.64466,4.610353 m 80.75361,-52.949004 c 0,1.139179 0.82217,2.411248 2.96843,2.411248 2.75549,0 5.64386,-2.25274 5.64386,-4.584734 0,-1.562669 -1.3249,-2.437667 -2.96763,-2.437667 -2.57055,0 -5.64466,2.172685 -5.64466,4.611153 m -97.03594,49.640341 c 0,1.139183 0.82136,2.411253 2.96762,2.411253 2.75629,0 5.64466,-2.252745 5.64466,-4.584739 0,-1.563469 -1.3249,-2.437667 -2.96763,-2.437667 -2.57055,0 -5.64465,2.172686 -5.64465,4.611153 M 586.23362,29.819749 c 0,1.139179 0.82136,2.411249 2.96763,2.411249 2.75628,0 5.64466,-2.25274 5.64466,-4.584735 0,-1.563469 -1.32491,-2.437667 -2.96843,-2.437667 -2.56976,0 -5.64386,2.172686 -5.64386,4.611153 M 214.50665,102.62473 c 0,1.13998 0.82136,2.41205 2.96763,2.41205 2.75629,0 5.64466,-2.25274 5.64466,-4.58474 0,-1.563465 -1.3249,-2.437663 -2.96763,-2.437663 -2.57056,0 -5.64466,2.172683 -5.64466,4.610353 m 385.3707,-76.114444 c 0,1.139179 0.82136,2.411249 2.96843,2.411249 2.75548,0 5.64386,-2.25274 5.64386,-4.584735 0,-1.562988 -1.32491,-2.437426 -2.96763,-2.437426 -2.57056,0 -5.64466,2.172445 -5.64466,4.610912 M 198.22432,105.93419 c 0,1.13998 0.82136,2.41125 2.96843,2.41125 2.75548,0 5.64386,-2.25194 5.64386,-4.58393 0,-1.56347 -1.32491,-2.43767 -2.96763,-2.43767 -2.57056,0 -5.64466,2.17269 -5.64466,4.61035 M 613.52188,23.200663 c 0,1.139339 0.82136,2.411409 2.96763,2.411409 2.75548,0 5.64386,-2.25274 5.64386,-4.584254 0,-1.563389 -1.32491,-2.437827 -2.96763,-2.437827 -2.57056,0 -5.64386,2.172846 -5.64386,4.610672 M 540.7249,103.79113 c -0.87419,0 -1.05992,-0.71569 -1.05992,-0.95426 0,-1.29848 4.45184,-3.576841 5.69749,-3.576841 0.63564,0 1.05993,0.370653 1.05993,0.953451 0,1.32491 -4.47826,3.57765 -5.6975,3.57765 m 3.6569,-5.776753 c -2.57055,0 -5.64386,2.146263 -5.64386,4.610353 0,1.13998 0.82137,2.41205 2.96763,2.41205 2.75549,0 5.64386,-2.25274 5.64386,-4.58474 0,-1.563465 -1.3249,-2.437663 -2.96763,-2.437663 m -362.43981,4.610353 c 0,1.13998 0.82136,2.41205 2.96843,2.41205 2.75548,0 5.64385,-2.25274 5.64385,-4.58474 0,-1.563465 -1.3249,-2.437663 -2.96762,-2.437663 -2.57056,0 -5.64466,2.172683 -5.64466,4.610353 M 627.16561,26.510286 c 0,1.139179 0.82136,2.411249 2.96763,2.411249 2.75548,0 5.64385,-2.25274 5.64385,-4.584735 0,-1.562988 -1.3249,-2.437426 -2.96762,-2.437426 -2.57056,0 -5.64386,2.172445 -5.64386,4.610912 m -471.227,6.618125 c 0,1.13998 0.82136,2.411249 2.96843,2.411249 2.75548,0 5.64386,-2.25194 5.64386,-4.583934 0,-1.563469 -1.32491,-2.437667 -2.96763,-2.437667 -2.57056,0 -5.64466,2.172686 -5.64466,4.610352 m 130.95514,-3.308662 c 0,1.139179 0.82136,2.411249 2.96763,2.411249 2.75548,0 5.64385,-2.25274 5.64385,-4.584735 0,-1.563469 -1.3249,-2.437667 -2.96762,-2.437667 -2.57056,0 -5.64386,2.172686 -5.64386,4.611153 M 153.94444,105.93419 c 0,1.13998 0.82136,2.41125 2.96763,2.41125 2.75549,0 5.64386,-2.25194 5.64386,-4.58393 0,-1.56347 -1.3249,-2.43767 -2.96763,-2.43767 -2.57056,0 -5.64386,2.17269 -5.64386,4.61035 m 54.37798,-78.258307 c -0.87419,0 -1.05992,-0.715689 -1.05992,-0.954252 0,-1.297687 4.45184,-3.576846 5.69749,-3.576846 0.63564,0 1.05993,0.370654 1.05993,0.954253 0,1.324906 -4.47826,3.576845 -5.6975,3.576845 m 3.6569,-5.776509 c -2.56975,0 -5.64385,2.146027 -5.64385,4.610912 0,1.139179 0.82136,2.411249 2.96762,2.411249 2.75629,0 5.64386,-2.25274 5.64386,-4.584735 0,-1.562988 -1.3249,-2.437426 -2.96763,-2.437426 m 365.38103,85.201216 c -0.8742,0 -1.05992,-0.71569 -1.05992,-0.95425 0,-1.29849 4.45184,-3.57685 5.69669,-3.57685 0.63644,0 1.05993,0.37066 1.05993,0.95345 0,1.32491 -4.47746,3.57765 -5.6967,3.57765 m 3.6569,-5.77675 c -2.57055,0 -5.64466,2.14627 -5.64466,4.61035 0,1.13998 0.82217,2.41125 2.96843,2.41125 2.75549,0 5.64386,-2.25194 5.64386,-4.58393 0,-1.56347 -1.3249,-2.43767 -2.96763,-2.43767 M 307.35974,36.437874 c 0,1.13998 0.82136,2.411249 2.96763,2.411249 2.75548,0 5.64386,-2.25194 5.64386,-4.583934 0,-1.563469 -1.32491,-2.437667 -2.96763,-2.437667 -2.57056,0 -5.64386,2.172686 -5.64386,4.610352 m 353.91559,-3.309463 c 0,1.13998 0.82136,2.411249 2.96763,2.411249 2.75628,0 5.64386,-2.25194 5.64386,-4.583934 0,-1.563469 -1.32491,-2.437667 -2.96763,-2.437667 -2.56976,0 -5.64386,2.172686 -5.64386,4.610352 M 113.23821,99.316067 c 0,1.139183 0.82136,2.411253 2.96763,2.411253 2.75628,0 5.64466,-2.252745 5.64466,-4.584739 0,-1.563469 -1.32491,-2.437667 -2.96843,-2.437667 -2.56976,0 -5.64386,2.172686 -5.64386,4.611153 M 176.4046,29.819749 c 0,1.139179 0.82136,2.411249 2.96763,2.411249 2.75628,0 5.64466,-2.25274 5.64466,-4.584735 0,-1.563469 -1.32491,-2.437667 -2.96763,-2.437667 -2.57056,0 -5.64466,2.172686 -5.64466,4.611153 M 88.815111,99.316067 c 0,1.139183 0.821362,2.411253 2.967629,2.411253 2.755484,0 5.643859,-2.252745 5.643859,-4.584739 0,-1.563469 -1.324906,-2.437667 -2.967629,-2.437667 -2.570558,0 -5.643859,2.172686 -5.643859,4.611153 M 623.46067,110.41005 c -0.87499,0 -1.05992,-0.71569 -1.05992,-0.95425 0,-1.29849 4.45104,-3.57765 5.69669,-3.57765 0.63564,0 1.05993,0.37146 1.05993,0.95426 0,1.3249 -4.47826,3.57764 -5.6967,3.57764 m 3.6561,-5.77675 c -2.56975,0 -5.64386,2.14627 -5.64386,4.61036 0,1.13917 0.82137,2.41124 2.96763,2.41124 2.75629,0 5.64466,-2.25194 5.64466,-4.58393 0,-1.56347 -1.3249,-2.43767 -2.96843,-2.43767 M 64.391215,99.316067 c 0,1.139183 0.821361,2.411253 2.967629,2.411253 2.756284,0 5.644659,-2.252745 5.644659,-4.584739 0,-1.563469 -1.324906,-2.437667 -2.968429,-2.437667 -2.569758,0 -5.643859,2.172686 -5.643859,4.611153 M 480.42607,96.006604 c 0,1.139179 0.82137,2.411249 2.96763,2.411249 2.75629,0 5.64466,-2.25274 5.64466,-4.584735 0,-1.562668 -1.3249,-2.437667 -2.96843,-2.437667 -2.56975,0 -5.64386,2.172686 -5.64386,4.611153 m -342.76396,6.618126 c 0,1.13998 0.82136,2.41205 2.96763,2.41205 2.75548,0 5.64386,-2.25274 5.64386,-4.58474 0,-1.563465 -1.32491,-2.437663 -2.96763,-2.437663 -2.57056,0 -5.64386,2.172683 -5.64386,4.610353 M 72.333829,76.691822 V 97.144246 H 72.99585 V 76.691822 Z m 48.847001,0 v 20.452424 h 0.66201 V 76.691822 Z m 85.15431,-50.183065 v 18.744697 h 0.66202 V 26.508757 Z m -60.73122,55.179297 v 18.764866 h 0.66202 V 81.688054 Z M 669.21789,12.121423 v 18.835063 h 0.66216 V 12.121423 Z m -353.91637,0.03831 v 22.106211 h 0.66218 V 12.15973 Z M 161.88631,83.27867 v 20.48369 h 0.66202 V 83.27867 Z M 184.34729,7.1957112 V 27.64704 h 0.66202 V 7.1957112 Z m 5.53738,74.4490328 v 18.808176 h 0.66202 V 81.644744 Z M 627.16522,26.508757 v 18.744697 h 0.66202 V 26.508757 Z M 206.1669,81.10046 v 22.6619 h 0.66217 V 81.10046 Z M 613.52152,23.199779 v 23.708398 h 0.66202 V 23.199779 Z m -391.07224,57.35703 v 19.896111 h 0.66202 V 80.556809 Z M 599.87782,26.508757 v 20.39942 h 0.66201 V 26.508757 Z M 238.73166,80.012532 v 17.131714 h 0.66202 V 80.012532 Z m 347.5023,-50.19432 v 17.089965 h 0.66217 V 29.818212 Z M 255.01389,78.346545 v 22.106375 h 0.66218 V 78.346545 Z m 16.48096,7.73091 v 22.053365 h 0.66201 V 86.077455 Z M 572.58947,26.508757 v 20.39942 h 0.66202 V 26.508757 Z M 253.19343,10.543313 V 27.64704 h 0.66217 V 10.543313 Z M 163.88127,8.8504363 V 30.956486 h 0.66201 V 8.8504363 Z M 305.38286,96.005027 v 18.744853 h 0.66202 V 96.005027 Z M 552.53419,8.8121293 V 27.64704 h 0.66202 V 8.8121293 Z M 329.80675,86.077455 v 22.053365 h 0.66202 V 86.077455 Z m 24.42311,9.927572 v 18.744853 h 0.66201 V 96.005027 Z M 538.89049,7.234019 v 17.10435 h 0.66202 V 7.234019 Z M 378.65374,86.077455 v 22.053365 h 0.66202 V 86.077455 Z M 510.48138,23.199779 v 20.398952 h 0.66217 V 23.199779 Z M 143.41524,15.469024 v 22.106364 h 0.66202 V 15.469024 Z m 346.60106,7.730755 v 20.398952 h 0.66201 V 23.199779 Z m -77.4747,59.568229 v 23.729042 h 0.66218 V 82.768008 Z m 57.00867,-59.568229 v 20.398952 h 0.66201 V 23.199779 Z M 428.82398,86.077455 V 107.52807 H 429.486 V 86.077455 Z M 266.83807,12.121423 v 18.835063 h 0.66202 V 12.121423 Z M 447.86106,89.38691 v 19.34682 h 0.66202 V 89.38691 Z m -8.24173,-62.878153 v 18.744697 h 0.66202 V 26.508757 Z M 115.00707,16.581035 v 22.053517 h 0.66202 V 16.581035 Z m 349.13622,76.115322 v 17.068393 h 0.66218 V 92.696357 Z M 406.63038,8.8504363 V 30.956486 h 0.66216 V 8.8504363 Z m 73.79529,87.1545907 v 18.744853 h 0.66202 V 96.005027 Z M 386.16435,7.1957112 V 27.64704 h 0.66217 V 7.1957112 Z M 512.79187,76.691822 v 20.452424 h 0.66201 V 76.691822 Z M 294.83565,7.1957112 V 27.64704 h 0.66202 V 7.1957112 Z M 79.959828,26.508757 v 18.744697 h 0.662009 V 26.508757 Z M 356.23357,7.1957112 V 27.64704 h 0.66202 V 7.1957112 Z M 546.67973,78.346545 v 22.106375 h 0.66217 V 78.346545 Z M 583.31524,81.656 v 22.10636 h 0.66202 V 81.656 Z M 335.76755,25.396749 v 22.107148 h 0.66201 V 25.396749 Z m 293.64796,59.568698 v 22.106363 h 0.66202 V 84.965447 Z M 96.756933,76.691822 v 20.452424 h 0.662021 V 76.691822 Z M 655.5734,10.543313 V 27.64704 h 0.66201 V 10.543313 Z M 325.64109,44.723868 v 1.059164 h 12.97356 v -1.059164 z m 116.17218,41.589709 2.35842,-0.476326 v 4.371789 l -2.35842,0.503544 v -4.399007 m 4.10681,-0.821362 c 0.15931,-0.02642 0.2914,-0.212145 0.2914,-0.370653 v -1.563469 c 0,-0.212145 -0.15851,-0.370654 -0.37065,-0.370654 h -0.0528 l -0.875,0.184927 v -3.9483 h -0.7413 v 4.107609 l -2.35842,0.477126 v -3.736155 h -0.7421 v 3.894663 l -1.03351,0.212145 c -0.15931,0.02642 -0.2914,0.212145 -0.2914,0.370654 v 1.537051 c 0,0.212145 0.15851,0.371454 0.37065,0.371454 h 0.0801 l 0.8742,-0.185727 v 4.371789 l -1.03351,0.212145 c -0.15931,0.02642 -0.2914,0.212145 -0.2914,0.371454 v 1.53625 c 0,0.212145 0.15851,0.371454 0.37065,0.371454 h 0.0801 l 0.8742,-0.185727 v 3.9483 h 0.7421 v -4.106808 l 2.35842,-0.477126 v 3.736154 h 0.7413 v -3.895463 l 1.00709,-0.185727 c 0.15931,-0.02642 0.2914,-0.211345 0.2914,-0.370654 v -1.563469 c 0,-0.212145 -0.15851,-0.370653 -0.37065,-0.370653 h -0.0528 l -0.875,0.184926 v -4.371789 l 1.00709,-0.185727 M 433.19259,71.863208 c -6.01393,0.08579 -11.75009,1.262904 -16.42451,3.689243 a 0.16531304,0.16531304 0 0 0 -0.073,0.195606 0.16531304,0.16531304 0 0 0 -0.005,0.01109 0.16531304,0.16531304 0 0 0 0.006,0.0026 0.16531304,0.16531304 0 0 0 0.001,0.01345 0.16531304,0.16531304 0 0 0 0.10554,0.0333 0.16531304,0.16531304 0 0 0 0.10132,0.04457 c 7.18506,-2.799498 17.22863,-2.972504 26.88135,-1.115298 9.65272,1.857206 18.915,5.7448 24.54819,11.010496 a 0.16532957,0.16532957 0 0 0 0.23797,-0.228748 C 463.0671,79.139386 453.85181,74.720261 444.14788,72.8532 440.5089,72.153049 436.80062,71.811672 433.19226,71.863147 Z m 0.005,0.332572 c 3.58398,-0.05174 7.27017,0.286043 10.88775,0.982079 8.46096,1.627905 16.5419,5.21535 22.06759,10.32237 -5.73139,-4.304911 -13.86935,-7.464031 -22.3054,-9.087149 -8.43597,-1.623102 -17.16492,-1.709113 -24.0846,0.16167 4.02212,-1.540925 8.63639,-2.309699 13.43466,-2.37897 z m -16.35384,3.503339 c 14.86296,-7.714875 40.6638,-2.750681 51.60248,9.928389 C 457.10773,75.02826 431.30689,70.064066 416.8442,75.699119 M 196.87055,11.795732 v 27.203133 h 1.19127 V 11.795732 Z m 482.93832,0 V 38.998865 H 681 V 11.795732 Z m -116.68383,0 v 27.203133 h 1.19112 V 11.795732 Z m -103.03921,0 v 27.203133 h 1.19113 V 11.795732 Z m -182.65692,0 v 27.203133 h 1.19112 V 11.795732 Z M 172.47793,81.291687 v 27.203443 h 1.19113 V 81.291687 Z m 123.44034,0 v 27.203443 h 1.19128 V 81.291687 Z m 107.15889,0 v 27.203443 h 1.19128 V 81.291687 Z M 105.54248,11.795732 v 27.203133 h 1.19127 V 11.795732 Z m 423.73066,69.495955 v 27.203443 h 1.19112 V 81.291687 Z m 82.73485,0 v 27.203443 h 1.19128 V 81.291687 Z m 65.35155,0 v 27.203443 h 3.64015 V 81.291687 Z m -3.63967,0 V 108.49513 H 674.911 V 81.291687 Z M 368.75698,11.795732 v 27.203133 h 1.19112 V 11.795732 Z M 0,107.76697 v 0.72785 h 681 v -0.72785 z m 0,-6.61889 v 0.72768 h 681 v -0.72768 z m 0,-6.618902 v 0.727682 h 681 v -0.727682 z m 0,-6.618125 v 0.72769 h 681 v -0.72769 z m 0,-6.618894 v 0.727682 H 681 V 81.292159 Z M 0,38.270712 v 0.727681 H 681 V 38.270712 Z M 0,31.65181 v 0.727681 H 681 V 31.65181 Z m 0,-6.618902 v 0.727682 h 681 v -0.727682 z m 0,-6.618432 v 0.727685 h 681 v -0.727685 z m 0,-6.618588 v 0.727685 h 681 v -0.727685 z"
     style="stroke-width:0.0800547" />
  <metadata
     id="metadata145">
    <rdf:RDF>
      <cc:Work
         rdf:about="">
        <dc:title>air_XXXVII</dc:title>
      </cc:Work>
    </rdf:RDF>
  </metadata>
</svg>
