<?xml version="1.0" encoding="UTF-8" standalone="no"?>
<svg width="210.058mm" height="296.926mm" viewBox="0 0 9924 14028"
 xmlns="http://www.w3.org/2000/svg" xmlns:xlink="http://www.w3.org/1999/xlink" version="1.2" baseProfile="full">
<title>air_LVI</title>
<desc>Generated by MuseScore Studio 4.7.3</desc>
<polyline class="StaffLines" fill="none" stroke="#000000" stroke-width="9.09" stroke-linejoin="bevel" points="708.661,828.424 9215.34,828.424" />
<polyline class="StaffLines" fill="none" stroke="#000000" stroke-width="9.09" stroke-linejoin="bevel" points="708.661,911.101 9215.34,911.101" />
<polyline class="StaffLines" fill="none" stroke="#000000" stroke-width="9.09" stroke-linejoin="bevel" points="708.661,993.778 9215.34,993.778" />
<polyline class="StaffLines" fill="none" stroke="#000000" stroke-width="9.09" stroke-linejoin="bevel" points="708.661,1076.46 9215.34,1076.46" />
<polyline class="StaffLines" fill="none" stroke="#000000" stroke-width="9.09" stroke-linejoin="bevel" points="708.661,1159.13 9215.34,1159.13" />
<polyline class="StaffLines" fill="none" stroke="#000000" stroke-width="9.09" stroke-linejoin="bevel" points="708.661,1696.53 9215.34,1696.53" />
<polyline class="StaffLines" fill="none" stroke="#000000" stroke-width="9.09" stroke-linejoin="bevel" points="708.661,1779.21 9215.34,1779.21" />
<polyline class="StaffLines" fill="none" stroke="#000000" stroke-width="9.09" stroke-linejoin="bevel" points="708.661,1861.89 9215.34,1861.89" />
<polyline class="StaffLines" fill="none" stroke="#000000" stroke-width="9.09" stroke-linejoin="bevel" points="708.661,1944.57 9215.34,1944.57" />
<polyline class="StaffLines" fill="none" stroke="#000000" stroke-width="9.09" stroke-linejoin="bevel" points="708.661,2027.24 9215.34,2027.24" />
<polyline class="StaffLines" fill="none" stroke="#000000" stroke-width="9.09" stroke-linejoin="bevel" points="708.661,2564.64 9215.34,2564.64" />
<polyline class="StaffLines" fill="none" stroke="#000000" stroke-width="9.09" stroke-linejoin="bevel" points="708.661,2647.32 9215.34,2647.32" />
<polyline class="StaffLines" fill="none" stroke="#000000" stroke-width="9.09" stroke-linejoin="bevel" points="708.661,2730 9215.34,2730" />
<polyline class="StaffLines" fill="none" stroke="#000000" stroke-width="9.09" stroke-linejoin="bevel" points="708.661,2812.68 9215.34,2812.68" />
<polyline class="StaffLines" fill="none" stroke="#000000" stroke-width="9.09" stroke-linejoin="bevel" points="708.661,2895.35 9215.34,2895.35" />
<polyline class="BarLine" fill="none" stroke="#000000" stroke-width="14.88" stroke-linejoin="bevel" points="7451.27,823.876 7451.27,1163.68" />
<polyline class="BarLine" fill="none" stroke="#000000" stroke-width="14.88" stroke-linejoin="bevel" points="7396.8,2560.1 7396.8,2899.9" />
<polyline class="BarLine" fill="none" stroke="#000000" stroke-width="14.88" stroke-linejoin="bevel" points="9131.84,2560.1 9131.84,2899.9" />
<polyline class="BarLine" fill="none" stroke="#000000" stroke-width="45.47" stroke-linejoin="bevel" points="9192.6,2560.1 9192.6,2899.9" />
<polyline class="BarLine" fill="none" stroke="#000000" stroke-width="14.88" stroke-linejoin="bevel" points="1914.54,823.876 1914.54,1163.68" />
<polyline class="BarLine" fill="none" stroke="#000000" stroke-width="14.88" stroke-linejoin="bevel" points="3789.72,1691.99 3789.72,2031.79" />
<polyline class="BarLine" fill="none" stroke="#000000" stroke-width="14.88" stroke-linejoin="bevel" points="3452.3,2560.1 3452.3,2899.9" />
<polyline class="BarLine" fill="none" stroke="#000000" stroke-width="14.88" stroke-linejoin="bevel" points="5762.73,823.876 5762.73,1163.68" />
<polyline class="BarLine" fill="none" stroke="#000000" stroke-width="14.88" stroke-linejoin="bevel" points="7369.07,1691.99 7369.07,2031.79" />
<polyline class="BarLine" fill="none" stroke="#000000" stroke-width="14.88" stroke-linejoin="bevel" points="5582.97,2560.1 5582.97,2899.9" />
<path class="BarLine" d="M9093.83,952.439 C9093.83,942.84 9086.22,934.896 9076.62,934.896 C9067.02,934.896 9059.41,942.84 9059.41,952.439 C9059.41,962.038 9067.02,969.982 9076.62,969.982 C9086.22,969.982 9093.83,962.038 9093.83,952.439"/>
<path class="BarLine" d="M9093.83,1035.12 C9093.83,1025.52 9086.22,1017.57 9076.62,1017.57 C9067.02,1017.57 9059.41,1025.52 9059.41,1035.12 C9059.41,1044.72 9067.02,1052.66 9076.62,1052.66 C9086.22,1052.66 9093.83,1044.72 9093.83,1035.12"/>
<polyline class="BarLine" fill="none" stroke="#000000" stroke-width="14.88" stroke-linejoin="bevel" points="9131.84,823.876 9131.84,1163.68" />
<polyline class="BarLine" fill="none" stroke="#000000" stroke-width="45.47" stroke-linejoin="bevel" points="9192.6,823.876 9192.6,1163.68" />
<polyline class="BarLine" fill="none" stroke="#000000" stroke-width="45.47" stroke-linejoin="bevel" points="1356.81,1691.99 1356.81,2031.79" />
<polyline class="BarLine" fill="none" stroke="#000000" stroke-width="14.88" stroke-linejoin="bevel" points="1417.58,1691.99 1417.58,2031.79" />
<path class="BarLine" d="M1490.03,1820.55 C1490.03,1810.95 1482.42,1803.01 1472.82,1803.01 C1463.22,1803.01 1455.61,1810.95 1455.61,1820.55 C1455.61,1830.15 1463.22,1838.09 1472.82,1838.09 C1482.42,1838.09 1490.03,1830.15 1490.03,1820.55"/>
<path class="BarLine" d="M1490.03,1903.23 C1490.03,1893.63 1482.42,1885.68 1472.82,1885.68 C1463.22,1885.68 1455.61,1893.63 1455.61,1903.23 C1455.61,1912.83 1463.22,1920.77 1472.82,1920.77 C1482.42,1920.77 1490.03,1912.83 1490.03,1903.23"/>
<polyline class="BarLine" fill="none" stroke="#000000" stroke-width="14.88" stroke-linejoin="bevel" points="1927.37,1691.99 1927.37,2031.79" />
<polyline class="BarLine" fill="none" stroke="#000000" stroke-width="14.88" stroke-linejoin="bevel" points="5652.07,1691.99 5652.07,2031.79" />
<polyline class="BarLine" fill="none" stroke="#000000" stroke-width="14.88" stroke-linejoin="bevel" points="3760.12,823.876 3760.12,1163.68" />
<polyline class="BarLine" fill="none" stroke="#000000" stroke-width="14.88" stroke-linejoin="bevel" points="9207.9,1691.99 9207.9,2031.79" />
<path class="Accidental" d="M8833.55,1769.98 L8833.55,1715.7 L8871.94,1704.77 L8871.94,1759.39 L8833.55,1769.98 M8879.22,1677.3 C8878.56,1676.64 8877.57,1676.31 8876.58,1676.31 C8876.24,1676.31 8875.58,1676.64 8875.25,1676.64 L8833.55,1688.22 L8833.55,1630.3 L8824.28,1630.3 L8824.28,1794.14 C8824.28,1796.79 8826.26,1798.45 8828.91,1798.45 L8830.24,1798.45 L8871.94,1786.86 L8871.94,1844.79 L8880.88,1844.79 L8880.88,1680.94 C8880.88,1679.62 8880.22,1677.96 8879.22,1677.3"/>
<path class="Accidental" d="M1553.02,1769.98 L1553.02,1715.7 L1591.41,1704.77 L1591.41,1759.39 L1553.02,1769.98 M1598.69,1677.3 C1598.03,1676.64 1597.04,1676.31 1596.05,1676.31 C1595.72,1676.31 1595.05,1676.64 1594.72,1676.64 L1553.02,1688.22 L1553.02,1630.3 L1543.75,1630.3 L1543.75,1794.14 C1543.75,1796.79 1545.73,1798.45 1548.38,1798.45 L1549.71,1798.45 L1591.41,1786.86 L1591.41,1844.79 L1600.35,1844.79 L1600.35,1680.94 C1600.35,1679.62 1599.69,1677.96 1598.69,1677.3"/>
<path class="Accidental" d="M8010.61,1672.04 L8040.06,1666.08 L8040.06,1720.7 L8010.61,1726.99 L8010.61,1672.04 M8061.91,1661.78 C8063.9,1661.45 8065.55,1659.13 8065.55,1657.14 L8065.55,1637.62 C8065.55,1634.97 8063.57,1632.98 8060.92,1632.98 L8060.26,1632.98 L8049.33,1635.3 L8049.33,1585.98 L8040.06,1585.98 L8040.06,1637.28 L8010.61,1643.24 L8010.61,1596.57 L8001.34,1596.57 L8001.34,1645.23 L7988.43,1647.88 C7986.44,1648.21 7984.79,1650.52 7984.79,1652.51 L7984.79,1671.71 C7984.79,1674.36 7986.77,1676.34 7989.42,1676.34 L7990.41,1676.34 L8001.34,1674.03 L8001.34,1728.64 L7988.43,1731.29 C7986.44,1731.62 7984.79,1733.94 7984.79,1735.92 L7984.79,1755.12 C7984.79,1757.77 7986.77,1759.75 7989.42,1759.75 L7990.41,1759.75 L8001.34,1757.44 L8001.34,1806.76 L8010.61,1806.76 L8010.61,1755.45 L8040.06,1749.49 L8040.06,1796.16 L8049.33,1796.16 L8049.33,1747.51 L8061.91,1745.19 C8063.9,1744.86 8065.55,1742.54 8065.55,1740.56 L8065.55,1721.03 C8065.55,1718.38 8063.57,1716.39 8060.92,1716.39 L8060.26,1716.39 L8049.33,1718.71 L8049.33,1664.1 L8061.91,1661.78 "/>
<polyline class="LedgerLine" fill="none" stroke="#000000" stroke-width="13.23" stroke-linejoin="bevel" points="3173.62,1613.86 3335.68,1613.86" />
<polyline class="LedgerLine" fill="none" stroke="#000000" stroke-width="13.23" stroke-linejoin="bevel" points="2301.56,1613.86 2463.62,1613.86" />
<polyline class="LedgerLine" fill="none" stroke="#000000" stroke-width="13.23" stroke-linejoin="bevel" points="7452.58,1613.86 7614.64,1613.86" />
<polyline class="LedgerLine" fill="none" stroke="#000000" stroke-width="13.23" stroke-linejoin="bevel" points="1721.97,2481.97 1884.03,2481.97" />
<polyline class="LedgerLine" fill="none" stroke="#000000" stroke-width="13.23" stroke-linejoin="bevel" points="2739.33,2481.97 2901.39,2481.97" />
<polyline class="Stem" fill="none" stroke="#000000" stroke-width="8.27" stroke-linejoin="bevel" points="8383.07,1049.01 8383.07,1262.08" />
<polyline class="Stem" fill="none" stroke="#000000" stroke-width="8.27" stroke-linejoin="bevel" points="6639.05,1793.1 6639.05,2068.58" />
<polyline class="Stem" fill="none" stroke="#000000" stroke-width="8.27" stroke-linejoin="bevel" points="4683.79,2758.11 4683.79,2502.64" />
<polyline class="Stem" fill="none" stroke="#000000" stroke-width="8.27" stroke-linejoin="bevel" points="7133.9,800.975 7133.9,1076.46" />
<polyline class="Stem" fill="none" stroke="#000000" stroke-width="8.27" stroke-linejoin="bevel" points="4344.67,2840.79 4344.67,2564.64" />
<polyline class="Stem" fill="none" stroke="#000000" stroke-width="8.27" stroke-linejoin="bevel" points="7075.08,1669.09 7075.08,1944.57" />
<polyline class="Stem" fill="none" stroke="#000000" stroke-width="8.27" stroke-linejoin="bevel" points="6348.74,924.991 6348.74,1200.47" />
<polyline class="Stem" fill="none" stroke="#000000" stroke-width="8.27" stroke-linejoin="bevel" points="7566.19,924.991 7566.19,1200.47" />
<polyline class="Stem" fill="none" stroke="#000000" stroke-width="8.27" stroke-linejoin="bevel" points="4005.55,2840.79 4005.55,2564.64" />
<polyline class="Stem" fill="none" stroke="#000000" stroke-width="8.27" stroke-linejoin="bevel" points="3567.22,2578.53 3567.22,2854.01" />
<polyline class="Stem" fill="none" stroke="#000000" stroke-width="8.27" stroke-linejoin="bevel" points="7964.32,966.329 7964.32,1221.54" />
<polyline class="Stem" fill="none" stroke="#000000" stroke-width="8.27" stroke-linejoin="bevel" points="5014.47,2743.89 5014.47,2998.37" />
<polyline class="Stem" fill="none" stroke="#000000" stroke-width="8.27" stroke-linejoin="bevel" points="5877.65,924.991 5877.65,1200.47" />
<polyline class="Stem" fill="none" stroke="#000000" stroke-width="8.27" stroke-linejoin="bevel" points="8173.7,1007.67 8173.7,1241.81" />
<polyline class="Stem" fill="none" stroke="#000000" stroke-width="8.27" stroke-linejoin="bevel" points="3109.87,2537.2 3109.87,2812.68" />
<polyline class="Stem" fill="none" stroke="#000000" stroke-width="8.27" stroke-linejoin="bevel" points="5240.55,2702.55 5240.55,2957.36" />
<polyline class="Stem" fill="none" stroke="#000000" stroke-width="8.27" stroke-linejoin="bevel" points="5445.35,966.329 5445.35,1221.14" />
<polyline class="Stem" fill="none" stroke="#000000" stroke-width="8.27" stroke-linejoin="bevel" points="8691.66,1063.23 8691.66,787.085" />
<polyline class="Stem" fill="none" stroke="#000000" stroke-width="8.27" stroke-linejoin="bevel" points="2770.75,2495.86 2770.75,2771.34" />
<polyline class="Stem" fill="none" stroke="#000000" stroke-width="8.27" stroke-linejoin="bevel" points="5131.29,1007.67 5131.29,1241.81" />
<polyline class="Stem" fill="none" stroke="#000000" stroke-width="8.27" stroke-linejoin="bevel" points="4916.44,1021.89 4916.44,766.416" />
<polyline class="Stem" fill="none" stroke="#000000" stroke-width="8.27" stroke-linejoin="bevel" points="2431.63,2578.53 2431.63,2854.01" />
<polyline class="Stem" fill="none" stroke="#000000" stroke-width="8.27" stroke-linejoin="bevel" points="2092.51,2537.2 2092.51,2812.68" />
<polyline class="Stem" fill="none" stroke="#000000" stroke-width="8.27" stroke-linejoin="bevel" points="5697.89,2661.21 5697.89,2936.69" />
<polyline class="Stem" fill="none" stroke="#000000" stroke-width="8.27" stroke-linejoin="bevel" points="1633.38,1751.76 1633.38,2027.24" />
<polyline class="Stem" fill="none" stroke="#000000" stroke-width="8.27" stroke-linejoin="bevel" points="4602.38,1104.57 4602.38,828.424" />
<polyline class="Stem" fill="none" stroke="#000000" stroke-width="8.27" stroke-linejoin="bevel" points="6206.57,2661.21 6206.57,2936.69" />
<polyline class="Stem" fill="none" stroke="#000000" stroke-width="8.27" stroke-linejoin="bevel" points="4288.31,1063.23 4288.31,787.085" />
<polyline class="Stem" fill="none" stroke="#000000" stroke-width="8.27" stroke-linejoin="bevel" points="6545.69,2661.21 6545.69,2936.69" />
<polyline class="Stem" fill="none" stroke="#000000" stroke-width="8.27" stroke-linejoin="bevel" points="2042.29,1710.42 2042.29,1985.9" />
<polyline class="Stem" fill="none" stroke="#000000" stroke-width="8.27" stroke-linejoin="bevel" points="1753.39,2495.86 1753.39,2771.34" />
<polyline class="Stem" fill="none" stroke="#000000" stroke-width="8.27" stroke-linejoin="bevel" points="2332.98,1627.75 2332.98,1903.23" />
<polyline class="Stem" fill="none" stroke="#000000" stroke-width="8.27" stroke-linejoin="bevel" points="3974.25,1021.89 3974.25,766.416" />
<polyline class="Stem" fill="none" stroke="#000000" stroke-width="8.27" stroke-linejoin="bevel" points="1414.27,2578.53 1414.27,2854.01" />
<polyline class="Stem" fill="none" stroke="#000000" stroke-width="8.27" stroke-linejoin="bevel" points="2623.67,1669.09 2623.67,1944.57" />
<polyline class="Stem" fill="none" stroke="#000000" stroke-width="8.27" stroke-linejoin="bevel" points="7054.37,2537.2 7054.37,2812.68" />
<polyline class="Stem" fill="none" stroke="#000000" stroke-width="8.27" stroke-linejoin="bevel" points="2914.35,1710.42 2914.35,1985.9" />
<polyline class="Stem" fill="none" stroke="#000000" stroke-width="8.27" stroke-linejoin="bevel" points="3442.75,1007.67 3442.75,1241.81" />
<polyline class="Stem" fill="none" stroke="#000000" stroke-width="8.27" stroke-linejoin="bevel" points="3205.04,1627.75 3205.04,1903.23" />
<polyline class="Stem" fill="none" stroke="#000000" stroke-width="8.27" stroke-linejoin="bevel" points="3070.86,1063.23 3070.86,787.085" />
<polyline class="Stem" fill="none" stroke="#000000" stroke-width="8.27" stroke-linejoin="bevel" points="2756.8,1063.23 2756.8,787.085" />
<polyline class="Stem" fill="none" stroke="#000000" stroke-width="8.27" stroke-linejoin="bevel" points="3495.73,1669.09 3495.73,1944.57" />
<polyline class="Stem" fill="none" stroke="#000000" stroke-width="8.27" stroke-linejoin="bevel" points="8913.91,1751.76 8913.91,2027.24" />
<polyline class="Stem" fill="none" stroke="#000000" stroke-width="8.27" stroke-linejoin="bevel" points="7511.72,2661.21 7511.72,2936.69" />
<polyline class="Stem" fill="none" stroke="#000000" stroke-width="8.27" stroke-linejoin="bevel" points="2442.74,1063.23 2442.74,787.085" />
<polyline class="Stem" fill="none" stroke="#000000" stroke-width="8.27" stroke-linejoin="bevel" points="3904.64,1710.42 3904.64,1985.9" />
<polyline class="Stem" fill="none" stroke="#000000" stroke-width="8.27" stroke-linejoin="bevel" points="8477.88,1793.1 8477.88,2068.58" />
<polyline class="Stem" fill="none" stroke="#000000" stroke-width="8.27" stroke-linejoin="bevel" points="4294.54,1972.68 4294.54,1696.53" />
<polyline class="Stem" fill="none" stroke="#000000" stroke-width="8.27" stroke-linejoin="bevel" points="8284.09,1751.76 8284.09,1964.85" />
<polyline class="Stem" fill="none" stroke="#000000" stroke-width="8.27" stroke-linejoin="bevel" points="4585.23,1972.68 4585.23,1696.53" />
<polyline class="Stem" fill="none" stroke="#000000" stroke-width="8.27" stroke-linejoin="bevel" points="7941.61,2702.55 7941.61,2957.73" />
<polyline class="Stem" fill="none" stroke="#000000" stroke-width="8.27" stroke-linejoin="bevel" points="4875.91,1890 4875.91,1634.53" />
<polyline class="Stem" fill="none" stroke="#000000" stroke-width="8.27" stroke-linejoin="bevel" points="8090.29,1710.42 8090.29,1946.63" />
<polyline class="Stem" fill="none" stroke="#000000" stroke-width="8.27" stroke-linejoin="bevel" points="5067.39,1875.78 5067.39,2109.92" />
<polyline class="Stem" fill="none" stroke="#000000" stroke-width="8.27" stroke-linejoin="bevel" points="2128.68,1187.24 2128.68,911.101" />
<polyline class="Stem" fill="none" stroke="#000000" stroke-width="8.27" stroke-linejoin="bevel" points="8167.69,2743.89 8167.69,2978.03" />
<polyline class="Stem" fill="none" stroke="#000000" stroke-width="8.27" stroke-linejoin="bevel" points="7852.49,1669.09 7852.49,1924.28" />
<polyline class="Stem" fill="none" stroke="#000000" stroke-width="8.27" stroke-linejoin="bevel" points="1696.38,1187.24 1696.38,911.101" />
<polyline class="Stem" fill="none" stroke="#000000" stroke-width="8.27" stroke-linejoin="bevel" points="8393.77,2785.23 8393.77,2998.33" />
<polyline class="Stem" fill="none" stroke="#000000" stroke-width="8.27" stroke-linejoin="bevel" points="5766.99,1793.1 5766.99,2068.58" />
<polyline class="Stem" fill="none" stroke="#000000" stroke-width="8.27" stroke-linejoin="bevel" points="8719.06,2799.45 8719.06,2523.31" />
<polyline class="Stem" fill="none" stroke="#000000" stroke-width="8.27" stroke-linejoin="bevel" points="6057.68,1751.76 6057.68,2027.24" />
<polyline class="Stem" fill="none" stroke="#000000" stroke-width="8.27" stroke-linejoin="bevel" points="7484,1627.75 7484,1903.23" />
<polyline class="Stem" fill="none" stroke="#000000" stroke-width="8.27" stroke-linejoin="bevel" points="6348.36,1793.1 6348.36,2068.58" />
<polyline class="Stem" fill="none" stroke="#000000" stroke-width="8.27" stroke-linejoin="bevel" points="5358.07,1834.44 5358.07,2089.25" />
<polyline class="Stem" fill="none" stroke="#000000" stroke-width="8.27" stroke-linejoin="bevel" points="6662.8,924.991 6662.8,1200.47" />
<path class="Hook" d="M5010.33,2998.37 C5010.33,3000.69 5012.32,3002.67 5014.64,3002.67 C5016.29,3002.67 5018.28,3001.35 5018.61,3000.02 C5018.61,2999.69 5021.59,2988.11 5021.92,2987.11 C5022.25,2985.79 5025.23,2973.21 5037.14,2953.68 C5050.05,2932.17 5069.91,2916.61 5086.46,2893.44 C5102.68,2870.27 5112.61,2848.43 5112.61,2819.3 C5112.61,2789.18 5105.66,2764.02 5088.12,2731.91 C5087.13,2729.6 5085.14,2728.27 5083.15,2728.27 C5082.49,2728.27 5081.83,2728.27 5081.5,2728.6 C5079.84,2729.27 5079.18,2730.59 5079.18,2732.58 C5079.18,2733.57 5079.51,2735.22 5080.17,2736.55 C5093.41,2767.33 5098.71,2784.87 5098.71,2808.71 C5098.71,2836.18 5089.11,2850.41 5083.15,2860.67 C5061.64,2897.41 5026.88,2915.29 5012.98,2919.92 C5010.66,2920.91 5010.33,2922.57 5010.33,2923.56 L5010.33,2998.37 "/>
<path class="Note" d="M8640.54,2841.14 C8629.62,2841.14 8627.3,2832.2 8627.3,2829.23 C8627.3,2813.01 8682.91,2784.54 8698.47,2784.54 C8706.41,2784.54 8711.71,2789.17 8711.71,2796.46 C8711.71,2813.01 8655.77,2841.14 8640.54,2841.14 M8686.22,2768.98 C8654.11,2768.98 8615.72,2795.79 8615.72,2826.58 C8615.72,2840.81 8625.98,2856.7 8652.79,2856.7 C8687.21,2856.7 8723.29,2828.56 8723.29,2799.44 C8723.29,2779.91 8706.74,2768.98 8686.22,2768.98"/>
<path class="Note" d="M2992.34,1104.92 C2981.42,1104.92 2979.1,1095.98 2979.1,1093.01 C2979.1,1076.79 3034.71,1048.32 3050.27,1048.32 C3058.21,1048.32 3063.51,1052.95 3063.51,1060.24 C3063.51,1076.79 3007.57,1104.92 2992.34,1104.92 M3038.02,1032.76 C3005.91,1032.76 2967.52,1059.57 2967.52,1090.36 C2967.52,1104.59 2977.78,1120.48 3004.59,1120.48 C3039.01,1120.48 3075.09,1092.34 3075.09,1063.22 C3075.09,1043.69 3058.54,1032.76 3038.02,1032.76"/>
<path class="Note" d="M6659.74,1807.68 C6648.82,1807.68 6646.5,1798.74 6646.5,1795.76 C6646.5,1779.54 6702.11,1751.08 6717.67,1751.08 C6725.61,1751.08 6730.91,1755.71 6730.91,1762.99 C6730.91,1779.54 6674.97,1807.68 6659.74,1807.68 M6705.42,1735.52 C6673.31,1735.52 6634.92,1762.33 6634.92,1793.11 C6634.92,1807.35 6645.18,1823.23 6671.99,1823.23 C6706.41,1823.23 6742.49,1795.1 6742.49,1765.97 C6742.49,1746.44 6725.94,1735.52 6705.42,1735.52"/>
<path class="Note" d="M6344.23,1793.11 C6344.23,1807.35 6354.49,1823.23 6381.3,1823.23 C6415.73,1823.23 6451.8,1795.1 6451.8,1765.97 C6451.8,1746.44 6435.25,1735.52 6414.73,1735.52 C6382.63,1735.52 6344.23,1762.66 6344.23,1793.11"/>
<path class="Note" d="M6053.54,1751.77 C6053.54,1766.01 6063.8,1781.9 6090.61,1781.9 C6125.04,1781.9 6161.12,1753.76 6161.12,1724.63 C6161.12,1705.1 6144.57,1694.18 6124.05,1694.18 C6091.94,1694.18 6053.54,1721.32 6053.54,1751.77"/>
<path class="Note" d="M5762.86,1793.11 C5762.86,1807.35 5773.12,1823.23 5799.93,1823.23 C5834.35,1823.23 5870.43,1795.1 5870.43,1765.97 C5870.43,1746.44 5853.88,1735.52 5833.36,1735.52 C5801.25,1735.52 5762.86,1762.66 5762.86,1793.11"/>
<path class="Note" d="M7479.86,1627.76 C7479.86,1641.99 7490.12,1657.88 7516.93,1657.88 C7551.36,1657.88 7587.44,1629.74 7587.44,1600.62 C7587.44,1581.09 7570.89,1570.16 7550.36,1570.16 C7518.26,1570.16 7479.86,1597.31 7479.86,1627.76"/>
<path class="Note" d="M5063.25,1875.79 C5063.25,1890.02 5073.52,1905.91 5100.33,1905.91 C5134.75,1905.91 5170.83,1877.78 5170.83,1848.65 C5170.83,1829.12 5154.28,1818.2 5133.76,1818.2 C5101.65,1818.2 5063.25,1845.34 5063.25,1875.79"/>
<path class="Note" d="M5353.94,1834.45 C5353.94,1848.68 5364.2,1864.57 5391.01,1864.57 C5425.44,1864.57 5461.52,1836.44 5461.52,1807.31 C5461.52,1787.78 5444.97,1776.86 5424.44,1776.86 C5392.34,1776.86 5353.94,1804 5353.94,1834.45"/>
<path class="Note" d="M7848.36,1669.1 C7848.36,1683.33 7858.62,1699.22 7885.43,1699.22 C7919.85,1699.22 7955.93,1671.08 7955.93,1641.96 C7955.93,1622.43 7939.38,1611.5 7918.86,1611.5 C7886.75,1611.5 7848.36,1638.65 7848.36,1669.1"/>
<path class="Note" d="M8389.64,2785.24 C8389.64,2799.47 8399.9,2815.36 8426.71,2815.36 C8461.13,2815.36 8497.21,2787.23 8497.21,2758.1 C8497.21,2738.57 8480.66,2727.65 8460.14,2727.65 C8428.03,2727.65 8389.64,2754.79 8389.64,2785.24"/>
<path class="Note" d="M4772.57,1917.13 C4772.57,1931.36 4782.83,1947.25 4809.64,1947.25 C4844.06,1947.25 4880.14,1919.11 4880.14,1889.99 C4880.14,1870.46 4863.59,1859.53 4843.07,1859.53 C4810.96,1859.53 4772.57,1886.68 4772.57,1917.13"/>
<path class="Note" d="M8086.16,1710.44 C8086.16,1724.67 8096.42,1740.56 8123.23,1740.56 C8157.66,1740.56 8193.74,1712.42 8193.74,1683.29 C8193.74,1663.76 8177.19,1652.84 8156.66,1652.84 C8124.56,1652.84 8086.16,1679.98 8086.16,1710.44"/>
<path class="Note" d="M4481.88,1999.81 C4481.88,2014.04 4492.14,2029.93 4518.95,2029.93 C4553.38,2029.93 4589.46,2001.79 4589.46,1972.66 C4589.46,1953.14 4572.91,1942.21 4552.38,1942.21 C4520.28,1942.21 4481.88,1969.35 4481.88,1999.81"/>
<path class="Note" d="M4191.19,1999.81 C4191.19,2014.04 4201.46,2029.93 4228.27,2029.93 C4262.69,2029.93 4298.77,2001.79 4298.77,1972.66 C4298.77,1953.14 4282.22,1942.21 4261.7,1942.21 C4229.59,1942.21 4191.19,1969.35 4191.19,1999.81"/>
<path class="Note" d="M8279.95,1751.77 C8279.95,1766.01 8290.21,1781.9 8317.02,1781.9 C8351.45,1781.9 8387.53,1753.76 8387.53,1724.63 C8387.53,1705.1 8370.98,1694.18 8350.45,1694.18 C8318.35,1694.18 8279.95,1721.32 8279.95,1751.77"/>
<path class="Note" d="M3900.51,1710.44 C3900.51,1724.67 3910.77,1740.56 3937.58,1740.56 C3972,1740.56 4008.08,1712.42 4008.08,1683.29 C4008.08,1663.76 3991.53,1652.84 3971.01,1652.84 C3938.9,1652.84 3900.51,1679.98 3900.51,1710.44"/>
<path class="Note" d="M8498.57,1807.68 C8487.64,1807.68 8485.33,1798.74 8485.33,1795.76 C8485.33,1779.54 8540.94,1751.08 8556.49,1751.08 C8564.44,1751.08 8569.73,1755.71 8569.73,1762.99 C8569.73,1779.54 8513.79,1807.68 8498.57,1807.68 M8544.25,1735.52 C8512.14,1735.52 8473.74,1762.33 8473.74,1793.11 C8473.74,1807.35 8484,1823.23 8510.81,1823.23 C8545.24,1823.23 8581.32,1795.1 8581.32,1765.97 C8581.32,1746.44 8564.77,1735.52 8544.25,1735.52"/>
<path class="Note" d="M3491.59,1669.1 C3491.59,1683.33 3501.85,1699.22 3528.66,1699.22 C3563.09,1699.22 3599.17,1671.08 3599.17,1641.96 C3599.17,1622.43 3582.62,1611.5 3562.1,1611.5 C3529.99,1611.5 3491.59,1638.65 3491.59,1669.1"/>
<path class="Note" d="M8909.77,1751.77 C8909.77,1766.01 8920.03,1781.9 8946.84,1781.9 C8981.27,1781.9 9017.35,1753.76 9017.35,1724.63 C9017.35,1705.1 9000.8,1694.18 8980.28,1694.18 C8948.17,1694.18 8909.77,1721.32 8909.77,1751.77"/>
<path class="Note" d="M3200.91,1627.76 C3200.91,1641.99 3211.17,1657.88 3237.98,1657.88 C3272.4,1657.88 3308.48,1629.74 3308.48,1600.62 C3308.48,1581.09 3291.93,1570.16 3271.41,1570.16 C3239.3,1570.16 3200.91,1597.31 3200.91,1627.76"/>
<path class="Note" d="M2910.22,1710.44 C2910.22,1724.67 2920.48,1740.56 2947.29,1740.56 C2981.71,1740.56 3017.79,1712.42 3017.79,1683.29 C3017.79,1663.76 3001.24,1652.84 2980.72,1652.84 C2948.61,1652.84 2910.22,1679.98 2910.22,1710.44"/>
<path class="Note" d="M2619.53,1669.1 C2619.53,1683.33 2629.79,1699.22 2656.6,1699.22 C2691.03,1699.22 2727.11,1671.08 2727.11,1641.96 C2727.11,1622.43 2710.56,1611.5 2690.03,1611.5 C2657.93,1611.5 2619.53,1638.65 2619.53,1669.1"/>
<path class="Note" d="M8163.56,2743.9 C8163.56,2758.13 8173.82,2774.02 8200.63,2774.02 C8235.05,2774.02 8271.13,2745.89 8271.13,2716.76 C8271.13,2697.23 8254.58,2686.31 8234.06,2686.31 C8201.95,2686.31 8163.56,2713.45 8163.56,2743.9"/>
<path class="Note" d="M1593.04,1214.37 C1593.04,1228.61 1603.3,1244.49 1630.11,1244.49 C1664.53,1244.49 1700.61,1216.36 1700.61,1187.23 C1700.61,1167.7 1684.06,1156.78 1663.54,1156.78 C1631.43,1156.78 1593.04,1183.92 1593.04,1214.37"/>
<path class="Note" d="M2328.85,1627.76 C2328.85,1641.99 2339.11,1657.88 2365.92,1657.88 C2400.34,1657.88 2436.42,1629.74 2436.42,1600.62 C2436.42,1581.09 2419.87,1570.16 2399.35,1570.16 C2367.24,1570.16 2328.85,1597.31 2328.85,1627.76"/>
<path class="Note" d="M1410.14,2578.55 C1410.14,2592.78 1420.4,2608.67 1447.21,2608.67 C1481.63,2608.67 1517.71,2580.53 1517.71,2551.4 C1517.71,2531.88 1501.16,2520.95 1480.64,2520.95 C1448.53,2520.95 1410.14,2548.09 1410.14,2578.55"/>
<path class="Note" d="M2038.16,1710.44 C2038.16,1724.67 2048.42,1740.56 2075.23,1740.56 C2109.65,1740.56 2145.73,1712.42 2145.73,1683.29 C2145.73,1663.76 2129.18,1652.84 2108.66,1652.84 C2076.55,1652.84 2038.16,1679.98 2038.16,1710.44"/>
<path class="Note" d="M1629.24,1751.77 C1629.24,1766.01 1639.5,1781.9 1666.32,1781.9 C1700.74,1781.9 1736.82,1753.76 1736.82,1724.63 C1736.82,1705.1 1720.27,1694.18 1699.75,1694.18 C1667.64,1694.18 1629.24,1721.32 1629.24,1751.77"/>
<path class="Note" d="M1749.26,2495.87 C1749.26,2510.1 1759.52,2525.99 1786.33,2525.99 C1820.75,2525.99 1856.83,2497.86 1856.83,2468.73 C1856.83,2449.2 1840.28,2438.28 1819.76,2438.28 C1787.65,2438.28 1749.26,2465.42 1749.26,2495.87"/>
<path class="Note" d="M7937.48,2702.56 C7937.48,2716.79 7947.74,2732.68 7974.55,2732.68 C8008.97,2732.68 8045.05,2704.55 8045.05,2675.42 C8045.05,2655.89 8028.5,2644.97 8007.98,2644.97 C7975.87,2644.97 7937.48,2672.11 7937.48,2702.56"/>
<path class="Note" d="M2088.38,2537.21 C2088.38,2551.44 2098.64,2567.33 2125.45,2567.33 C2159.87,2567.33 2195.95,2539.19 2195.95,2510.07 C2195.95,2490.54 2179.4,2479.61 2158.88,2479.61 C2126.77,2479.61 2088.38,2506.76 2088.38,2537.21"/>
<path class="Note" d="M2025.33,1214.37 C2025.33,1228.61 2035.59,1244.49 2062.4,1244.49 C2096.82,1244.49 2132.9,1216.36 2132.9,1187.23 C2132.9,1167.7 2116.35,1156.78 2095.83,1156.78 C2063.72,1156.78 2025.33,1183.92 2025.33,1214.37"/>
<path class="Note" d="M2427.5,2578.55 C2427.5,2592.78 2437.76,2608.67 2464.57,2608.67 C2498.99,2608.67 2535.07,2580.53 2535.07,2551.4 C2535.07,2531.88 2518.52,2520.95 2498,2520.95 C2465.89,2520.95 2427.5,2548.09 2427.5,2578.55"/>
<path class="Note" d="M8613.14,1104.92 C8602.21,1104.92 8599.9,1095.98 8599.9,1093.01 C8599.9,1076.79 8655.51,1048.32 8671.06,1048.32 C8679.01,1048.32 8684.3,1052.95 8684.3,1060.24 C8684.3,1076.79 8628.36,1104.92 8613.14,1104.92 M8658.82,1032.76 C8626.71,1032.76 8588.31,1059.57 8588.31,1090.36 C8588.31,1104.59 8598.57,1120.48 8625.38,1120.48 C8659.81,1120.48 8695.89,1092.34 8695.89,1063.22 C8695.89,1043.69 8679.34,1032.76 8658.82,1032.76"/>
<path class="Note" d="M8378.94,1049.02 C8378.94,1063.25 8389.2,1079.14 8416.01,1079.14 C8450.43,1079.14 8486.51,1051 8486.51,1021.88 C8486.51,1002.35 8469.96,991.425 8449.44,991.425 C8417.33,991.425 8378.94,1018.57 8378.94,1049.02"/>
<path class="Note" d="M2766.62,2495.87 C2766.62,2510.1 2776.88,2525.99 2803.69,2525.99 C2838.11,2525.99 2874.19,2497.86 2874.19,2468.73 C2874.19,2449.2 2857.64,2438.28 2837.12,2438.28 C2805.01,2438.28 2766.62,2465.42 2766.62,2495.87"/>
<path class="Note" d="M8169.56,1007.68 C8169.56,1021.91 8179.82,1037.8 8206.63,1037.8 C8241.06,1037.8 8277.14,1009.67 8277.14,980.538 C8277.14,961.009 8260.59,950.086 8240.06,950.086 C8207.96,950.086 8169.56,977.228 8169.56,1007.68"/>
<path class="Note" d="M3105.73,2537.21 C3105.73,2551.44 3116,2567.33 3142.81,2567.33 C3177.23,2567.33 3213.31,2539.19 3213.31,2510.07 C3213.31,2490.54 3196.76,2479.61 3176.24,2479.61 C3144.13,2479.61 3105.73,2506.76 3105.73,2537.21"/>
<path class="Note" d="M7507.59,2661.22 C7507.59,2675.46 7517.85,2691.34 7544.66,2691.34 C7579.08,2691.34 7615.16,2663.21 7615.16,2634.08 C7615.16,2614.55 7598.61,2603.63 7578.09,2603.63 C7545.98,2603.63 7507.59,2630.77 7507.59,2661.22"/>
<path class="Note" d="M7960.19,966.341 C7960.19,980.574 7970.45,996.462 7997.26,996.462 C8031.68,996.462 8067.76,968.327 8067.76,939.199 C8067.76,919.67 8051.21,908.747 8030.69,908.747 C7998.58,908.747 7960.19,935.889 7960.19,966.341"/>
<path class="Note" d="M2339.39,1090.36 C2339.39,1104.59 2349.65,1120.48 2376.46,1120.48 C2410.89,1120.48 2446.97,1092.34 2446.97,1063.22 C2446.97,1043.69 2430.42,1032.76 2409.89,1032.76 C2377.79,1032.76 2339.39,1059.91 2339.39,1090.36"/>
<path class="Note" d="M3563.08,2578.55 C3563.08,2592.78 3573.34,2608.67 3600.15,2608.67 C3634.58,2608.67 3670.66,2580.53 3670.66,2551.4 C3670.66,2531.88 3654.11,2520.95 3633.59,2520.95 C3601.48,2520.95 3563.08,2548.09 3563.08,2578.55"/>
<path class="Note" d="M7562.06,925.003 C7562.06,939.236 7572.32,955.124 7599.13,955.124 C7633.55,955.124 7669.63,926.989 7669.63,897.861 C7669.63,878.332 7653.08,867.409 7632.56,867.409 C7600.45,867.409 7562.06,894.551 7562.06,925.003"/>
<path class="Note" d="M3902.2,2867.92 C3902.2,2882.15 3912.46,2898.04 3939.27,2898.04 C3973.7,2898.04 4009.78,2869.9 4009.78,2840.77 C4009.78,2821.25 3993.23,2810.32 3972.71,2810.32 C3940.6,2810.32 3902.2,2837.46 3902.2,2867.92"/>
<path class="Note" d="M7129.77,800.987 C7129.77,815.22 7140.03,831.108 7166.84,831.108 C7201.26,831.108 7237.34,802.973 7237.34,773.845 C7237.34,754.316 7220.79,743.393 7200.27,743.393 C7168.16,743.393 7129.77,770.535 7129.77,800.987"/>
<path class="Note" d="M4241.32,2867.92 C4241.32,2882.15 4251.58,2898.04 4278.39,2898.04 C4312.82,2898.04 4348.9,2869.9 4348.9,2840.77 C4348.9,2821.25 4332.35,2810.32 4311.82,2810.32 C4279.72,2810.32 4241.32,2837.46 4241.32,2867.92"/>
<path class="Note" d="M6683.5,939.567 C6672.57,939.567 6670.26,930.63 6670.26,927.651 C6670.26,911.432 6725.86,882.966 6741.42,882.966 C6749.36,882.966 6754.66,887.6 6754.66,894.882 C6754.66,911.432 6698.72,939.567 6683.5,939.567 M6729.17,867.409 C6697.07,867.409 6658.67,894.22 6658.67,925.003 C6658.67,939.236 6668.93,955.124 6695.74,955.124 C6730.17,955.124 6766.25,926.989 6766.25,897.861 C6766.25,878.332 6749.7,867.409 6729.17,867.409"/>
<path class="Note" d="M4580.44,2785.24 C4580.44,2799.47 4590.7,2815.36 4617.51,2815.36 C4651.94,2815.36 4688.02,2787.23 4688.02,2758.1 C4688.02,2738.57 4671.47,2727.65 4650.94,2727.65 C4618.84,2727.65 4580.44,2754.79 4580.44,2785.24"/>
<path class="Note" d="M2653.46,1090.36 C2653.46,1104.59 2663.72,1120.48 2690.53,1120.48 C2724.95,1120.48 2761.03,1092.34 2761.03,1063.22 C2761.03,1043.69 2744.48,1032.76 2723.96,1032.76 C2691.85,1032.76 2653.46,1059.91 2653.46,1090.36"/>
<path class="Note" d="M6344.61,925.003 C6344.61,939.236 6354.87,955.124 6381.68,955.124 C6416.1,955.124 6452.18,926.989 6452.18,897.861 C6452.18,878.332 6435.63,867.409 6415.11,867.409 C6383,867.409 6344.61,894.551 6344.61,925.003"/>
<path class="Note" d="M5898.34,939.567 C5887.41,939.567 5885.1,930.63 5885.1,927.651 C5885.1,911.432 5940.71,882.966 5956.26,882.966 C5964.21,882.966 5969.5,887.6 5969.5,894.882 C5969.5,911.432 5913.56,939.567 5898.34,939.567 M5944.02,867.409 C5911.91,867.409 5873.51,894.22 5873.51,925.003 C5873.51,939.236 5883.77,955.124 5910.58,955.124 C5945.01,955.124 5981.09,926.989 5981.09,897.861 C5981.09,878.332 5964.54,867.409 5944.02,867.409"/>
<path class="Note" d="M5010.33,2743.9 C5010.33,2758.13 5020.59,2774.02 5047.41,2774.02 C5081.83,2774.02 5117.91,2745.89 5117.91,2716.76 C5117.91,2697.23 5101.36,2686.31 5080.84,2686.31 C5048.73,2686.31 5010.33,2713.45 5010.33,2743.9"/>
<path class="Note" d="M5441.22,966.341 C5441.22,980.574 5451.48,996.462 5478.29,996.462 C5512.72,996.462 5548.8,968.327 5548.8,939.199 C5548.8,919.67 5532.25,908.747 5511.72,908.747 C5479.62,908.747 5441.22,935.889 5441.22,966.341"/>
<path class="Note" d="M5236.41,2702.56 C5236.41,2716.79 5246.67,2732.68 5273.48,2732.68 C5307.91,2732.68 5343.99,2704.55 5343.99,2675.42 C5343.99,2655.89 5327.44,2644.97 5306.92,2644.97 C5274.81,2644.97 5236.41,2672.11 5236.41,2702.56"/>
<path class="Note" d="M5127.16,1007.68 C5127.16,1021.91 5137.42,1037.8 5164.23,1037.8 C5198.65,1037.8 5234.73,1009.67 5234.73,980.538 C5234.73,961.009 5218.18,950.086 5197.66,950.086 C5165.55,950.086 5127.16,977.228 5127.16,1007.68"/>
<path class="Note" d="M4813.09,1049.02 C4813.09,1063.25 4823.36,1079.14 4850.17,1079.14 C4884.59,1079.14 4920.67,1051 4920.67,1021.88 C4920.67,1002.35 4904.12,991.425 4883.6,991.425 C4851.49,991.425 4813.09,1018.57 4813.09,1049.02"/>
<path class="Note" d="M4499.03,1131.7 C4499.03,1145.93 4509.29,1161.82 4536.1,1161.82 C4570.53,1161.82 4606.61,1133.68 4606.61,1104.55 C4606.61,1085.02 4590.06,1074.1 4569.53,1074.1 C4537.43,1074.1 4499.03,1101.24 4499.03,1131.7"/>
<path class="Note" d="M5718.59,2675.79 C5707.66,2675.79 5705.35,2666.85 5705.35,2663.87 C5705.35,2647.65 5760.95,2619.19 5776.51,2619.19 C5784.45,2619.19 5789.75,2623.82 5789.75,2631.1 C5789.75,2647.65 5733.81,2675.79 5718.59,2675.79 M5764.26,2603.63 C5732.16,2603.63 5693.76,2630.44 5693.76,2661.22 C5693.76,2675.46 5704.02,2691.34 5730.83,2691.34 C5765.26,2691.34 5801.34,2663.21 5801.34,2634.08 C5801.34,2614.55 5784.79,2603.63 5764.26,2603.63"/>
<path class="Note" d="M4184.97,1090.36 C4184.97,1104.59 4195.23,1120.48 4222.04,1120.48 C4256.46,1120.48 4292.54,1092.34 4292.54,1063.22 C4292.54,1043.69 4275.99,1032.76 4255.47,1032.76 C4223.36,1032.76 4184.97,1059.91 4184.97,1090.36"/>
<path class="Note" d="M6202.44,2661.22 C6202.44,2675.46 6212.7,2691.34 6239.51,2691.34 C6273.94,2691.34 6310.01,2663.21 6310.01,2634.08 C6310.01,2614.55 6293.46,2603.63 6272.94,2603.63 C6240.84,2603.63 6202.44,2630.77 6202.44,2661.22"/>
<path class="Note" d="M3870.9,1049.02 C3870.9,1063.25 3881.17,1079.14 3907.98,1079.14 C3942.4,1079.14 3978.48,1051 3978.48,1021.88 C3978.48,1002.35 3961.93,991.425 3941.41,991.425 C3909.3,991.425 3870.9,1018.57 3870.9,1049.02"/>
<path class="Note" d="M6566.38,2675.79 C6555.46,2675.79 6553.14,2666.85 6553.14,2663.87 C6553.14,2647.65 6608.75,2619.19 6624.31,2619.19 C6632.25,2619.19 6637.55,2623.82 6637.55,2631.1 C6637.55,2647.65 6581.61,2675.79 6566.38,2675.79 M6612.06,2603.63 C6579.96,2603.63 6541.56,2630.44 6541.56,2661.22 C6541.56,2675.46 6551.82,2691.34 6578.63,2691.34 C6613.06,2691.34 6649.13,2663.21 6649.13,2634.08 C6649.13,2614.55 6632.58,2603.63 6612.06,2603.63"/>
<path class="Note" d="M3438.61,1007.68 C3438.61,1021.91 3448.87,1037.8 3475.69,1037.8 C3510.11,1037.8 3546.19,1009.67 3546.19,980.538 C3546.19,961.009 3529.64,950.086 3509.12,950.086 C3477.01,950.086 3438.61,977.228 3438.61,1007.68"/>
<path class="Note" d="M7050.24,2537.21 C7050.24,2551.44 7060.5,2567.33 7087.31,2567.33 C7121.73,2567.33 7157.81,2539.19 7157.81,2510.07 C7157.81,2490.54 7141.26,2479.61 7120.74,2479.61 C7088.63,2479.61 7050.24,2506.76 7050.24,2537.21"/>
<path class="Note" d="M7070.95,1669.1 C7070.95,1683.33 7081.21,1699.22 7108.02,1699.22 C7142.44,1699.22 7178.52,1671.08 7178.52,1641.96 C7178.52,1622.43 7161.97,1611.5 7141.45,1611.5 C7109.34,1611.5 7070.95,1638.65 7070.95,1669.1"/>
<path class="Clef" d="M909.689,2012.75 C903.069,2014.08 896.78,2014.74 890.491,2014.74 C843.158,2014.74 802.776,1981.64 802.776,1931.66 C802.776,1891.27 831.242,1855.2 860.37,1830.04 C865.997,1825.07 871.293,1820.44 876.258,1815.48 C879.237,1833.35 881.554,1848.91 883.871,1862.48 C853.75,1871.41 833.228,1903.19 833.228,1934.3 C833.228,1957.47 851.433,1989.25 877.913,1989.25 C880.561,1989.25 883.54,1987.93 883.54,1984.95 C883.54,1981.97 880.23,1980.31 876.258,1977.67 C863.349,1969.72 856.067,1961.12 856.067,1944.9 C856.067,1924.71 870.962,1908.49 890.491,1903.85 L909.689,2012.75 M880.561,1672.48 C883.54,1659.24 898.766,1624.49 915.978,1624.49 C920.943,1624.49 928.887,1640.71 928.887,1663.55 C928.887,1697.97 903.4,1723.79 880.561,1746.3 C878.575,1733.06 876.92,1720.15 876.92,1706.25 C876.92,1694 877.913,1682.74 880.561,1672.48 M956.691,1951.52 C956.691,1975.02 947.092,1999.18 923.591,2008.78 C916.64,1969.06 907.703,1916.43 905.386,1901.87 C935.176,1901.87 956.691,1922.06 956.691,1951.52 M811.051,2114.37 C811.051,2136.21 827.932,2165.01 872.617,2165.01 C888.174,2165.01 901.745,2161.04 913.661,2153.76 C931.535,2141.18 936.169,2119.33 936.169,2098.48 C936.169,2085.57 934.183,2070.68 930.873,2051.81 C929.88,2045.19 927.894,2035.26 925.908,2022.35 C958.346,2011.76 982.509,1978 982.509,1943.9 C982.509,1893.92 947.092,1860.16 898.766,1860.16 C895.456,1840.3 892.146,1820.77 889.167,1802.24 C924.253,1765.49 948.416,1724.12 948.416,1671.49 C948.416,1641.37 939.148,1616.88 933.852,1604.96 C925.908,1588.08 916.309,1576.49 910.351,1576.49 C908.034,1576.49 897.773,1580.47 886.85,1593.37 C865.666,1618.53 859.708,1660.9 859.708,1688.7 C859.708,1706.58 861.363,1722.8 866.99,1759.87 C866.659,1760.2 849.447,1777.74 842.496,1783.37 C812.375,1811.5 770.669,1851.55 770.669,1917.75 C770.669,1979.65 824.622,2028.31 886.188,2028.31 C895.787,2028.31 904.724,2027.32 912.337,2025.99 C918.626,2057.77 922.267,2080.94 922.267,2098.48 C922.267,2132.9 904.724,2151.11 871.293,2151.11 C863.349,2151.11 856.398,2149.45 855.736,2149.45 C855.405,2149.12 854.743,2148.79 854.743,2148.46 C854.743,2147.8 855.405,2147.47 856.398,2147.14 C871.955,2144.82 887.512,2131.58 887.512,2110.4 C887.512,2092.52 873.941,2073.66 849.116,2073.66 C825.946,2073.66 811.051,2092.52 811.051,2114.37"/>
<path class="Clef" d="M909.689,2880.86 C903.069,2882.19 896.78,2882.85 890.491,2882.85 C843.158,2882.85 802.776,2849.75 802.776,2799.77 C802.776,2759.38 831.242,2723.31 860.37,2698.15 C865.997,2693.18 871.293,2688.55 876.258,2683.59 C879.237,2701.46 881.554,2717.02 883.871,2730.59 C853.75,2739.52 833.228,2771.3 833.228,2802.41 C833.228,2825.58 851.433,2857.36 877.913,2857.36 C880.561,2857.36 883.54,2856.04 883.54,2853.06 C883.54,2850.08 880.23,2848.42 876.258,2845.78 C863.349,2837.83 856.067,2829.23 856.067,2813.01 C856.067,2792.82 870.962,2776.6 890.491,2771.96 L909.689,2880.86 M880.561,2540.59 C883.54,2527.35 898.766,2492.6 915.978,2492.6 C920.943,2492.6 928.887,2508.82 928.887,2531.66 C928.887,2566.08 903.4,2591.9 880.561,2614.41 C878.575,2601.17 876.92,2588.26 876.92,2574.36 C876.92,2562.11 877.913,2550.85 880.561,2540.59 M956.691,2819.63 C956.691,2843.13 947.092,2867.29 923.591,2876.89 C916.64,2837.17 907.703,2784.54 905.386,2769.98 C935.176,2769.98 956.691,2790.17 956.691,2819.63 M811.051,2982.48 C811.051,3004.32 827.932,3033.12 872.617,3033.12 C888.174,3033.12 901.745,3029.15 913.661,3021.87 C931.535,3009.29 936.169,2987.44 936.169,2966.59 C936.169,2953.68 934.183,2938.79 930.873,2919.92 C929.88,2913.3 927.894,2903.37 925.908,2890.46 C958.346,2879.87 982.509,2846.11 982.509,2812.01 C982.509,2762.03 947.092,2728.27 898.766,2728.27 C895.456,2708.41 892.146,2688.88 889.167,2670.35 C924.253,2633.6 948.416,2592.23 948.416,2539.6 C948.416,2509.48 939.148,2484.99 933.852,2473.07 C925.908,2456.19 916.309,2444.6 910.351,2444.6 C908.034,2444.6 897.773,2448.58 886.85,2461.48 C865.666,2486.64 859.708,2529.01 859.708,2556.81 C859.708,2574.69 861.363,2590.91 866.99,2627.98 C866.659,2628.31 849.447,2645.85 842.496,2651.48 C812.375,2679.61 770.669,2719.66 770.669,2785.86 C770.669,2847.76 824.622,2896.42 886.188,2896.42 C895.787,2896.42 904.724,2895.43 912.337,2894.1 C918.626,2925.88 922.267,2949.05 922.267,2966.59 C922.267,3001.01 904.724,3019.22 871.293,3019.22 C863.349,3019.22 856.398,3017.56 855.736,3017.56 C855.405,3017.23 854.743,3016.9 854.743,3016.57 C854.743,3015.91 855.405,3015.58 856.398,3015.25 C871.955,3012.93 887.512,2999.69 887.512,2978.51 C887.512,2960.63 873.941,2941.77 849.116,2941.77 C825.946,2941.77 811.051,2960.63 811.051,2982.48"/>
<path class="Clef" d="M909.689,1144.64 C903.069,1145.97 896.78,1146.63 890.491,1146.63 C843.158,1146.63 802.776,1113.53 802.776,1063.55 C802.776,1023.16 831.242,987.085 860.37,961.929 C865.997,956.964 871.293,952.33 876.258,947.365 C879.237,965.239 881.554,980.796 883.871,994.367 C853.75,1003.3 833.228,1035.08 833.228,1066.19 C833.228,1089.36 851.433,1121.14 877.913,1121.14 C880.561,1121.14 883.54,1119.82 883.54,1116.84 C883.54,1113.86 880.23,1112.2 876.258,1109.56 C863.349,1101.61 856.067,1093.01 856.067,1076.79 C856.067,1056.6 870.962,1040.38 890.491,1035.74 L909.689,1144.64 M880.561,804.373 C883.54,791.133 898.766,756.378 915.978,756.378 C920.943,756.378 928.887,772.597 928.887,795.436 C928.887,829.86 903.4,855.678 880.561,878.186 C878.575,864.946 876.92,852.037 876.92,838.135 C876.92,825.888 877.913,814.634 880.561,804.373 M956.691,1083.41 C956.691,1106.91 947.092,1131.07 923.591,1140.67 C916.64,1100.95 907.703,1048.32 905.386,1033.76 C935.176,1033.76 956.691,1053.95 956.691,1083.41 M811.051,1246.26 C811.051,1268.1 827.932,1296.9 872.617,1296.9 C888.174,1296.9 901.745,1292.93 913.661,1285.65 C931.535,1273.07 936.169,1251.22 936.169,1230.37 C936.169,1217.46 934.183,1202.57 930.873,1183.7 C929.88,1177.08 927.894,1167.15 925.908,1154.24 C958.346,1143.65 982.509,1109.89 982.509,1075.79 C982.509,1025.81 947.092,992.05 898.766,992.05 C895.456,972.19 892.146,952.661 889.167,934.125 C924.253,897.384 948.416,856.009 948.416,803.38 C948.416,773.259 939.148,748.765 933.852,736.849 C925.908,719.968 916.309,708.383 910.351,708.383 C908.034,708.383 897.773,712.355 886.85,725.264 C865.666,750.42 859.708,792.788 859.708,820.592 C859.708,838.466 861.363,854.685 866.99,891.757 C866.659,892.088 849.447,909.631 842.496,915.258 C812.375,943.393 770.669,983.444 770.669,1049.64 C770.669,1111.54 824.622,1160.2 886.188,1160.2 C895.787,1160.2 904.724,1159.21 912.337,1157.88 C918.626,1189.66 922.267,1212.83 922.267,1230.37 C922.267,1264.79 904.724,1283 871.293,1283 C863.349,1283 856.398,1281.34 855.736,1281.34 C855.405,1281.01 854.743,1280.68 854.743,1280.35 C854.743,1279.69 855.405,1279.36 856.398,1279.03 C871.955,1276.71 887.512,1263.47 887.512,1242.29 C887.512,1224.41 873.941,1205.55 849.116,1205.55 C825.946,1205.55 811.051,1224.41 811.051,1246.26"/>
<path class="KeySig" d="M1088.05,1848.65 C1088.05,1874.8 1074.48,1888.7 1055.28,1903.93 L1056.27,1839.38 C1056.93,1836.4 1061.9,1826.8 1075.14,1826.8 C1087.06,1826.8 1088.05,1838.06 1088.05,1845.01 L1088.05,1848.65 M1084.08,1810.58 C1067.53,1810.58 1057.93,1820.84 1056.27,1822.83 L1057.6,1716.58 C1057.6,1713.93 1055.61,1711.95 1052.96,1711.95 L1048.99,1711.95 C1046.34,1711.95 1044.36,1713.93 1044.36,1716.58 L1046.01,1915.51 C1046.01,1918.16 1048,1920.14 1050.65,1920.14 C1051.31,1920.14 1052.63,1919.81 1053.29,1919.48 C1081.76,1905.25 1111.55,1878.11 1111.55,1844.01 C1111.55,1826.8 1103.61,1810.58 1084.08,1810.58"/>
<path class="KeySig" d="M1179.99,1724.63 C1179.99,1750.78 1166.42,1764.68 1147.22,1779.91 L1148.21,1715.36 C1148.87,1712.39 1153.84,1702.79 1167.08,1702.79 C1178.99,1702.79 1179.99,1714.04 1179.99,1720.99 L1179.99,1724.63 M1176.01,1686.57 C1159.46,1686.57 1149.87,1696.83 1148.21,1698.81 L1149.53,1592.56 C1149.53,1589.92 1147.55,1587.93 1144.9,1587.93 L1140.93,1587.93 C1138.28,1587.93 1136.29,1589.92 1136.29,1592.56 L1137.95,1791.49 C1137.95,1794.14 1139.94,1796.13 1142.58,1796.13 C1143.25,1796.13 1144.57,1795.8 1145.23,1795.47 C1173.7,1781.23 1203.49,1754.09 1203.49,1720 C1203.49,1702.79 1195.54,1686.57 1176.01,1686.57"/>
<path class="KeySig" d="M1088.05,2716.76 C1088.05,2742.91 1074.48,2756.81 1055.28,2772.04 L1056.27,2707.49 C1056.93,2704.51 1061.9,2694.91 1075.14,2694.91 C1087.06,2694.91 1088.05,2706.17 1088.05,2713.12 L1088.05,2716.76 M1084.08,2678.69 C1067.53,2678.69 1057.93,2688.95 1056.27,2690.94 L1057.6,2584.69 C1057.6,2582.04 1055.61,2580.06 1052.96,2580.06 L1048.99,2580.06 C1046.34,2580.06 1044.36,2582.04 1044.36,2584.69 L1046.01,2783.62 C1046.01,2786.27 1048,2788.25 1050.65,2788.25 C1051.31,2788.25 1052.63,2787.92 1053.29,2787.59 C1081.76,2773.36 1111.55,2746.22 1111.55,2712.12 C1111.55,2694.91 1103.61,2678.69 1084.08,2678.69"/>
<path class="KeySig" d="M1179.99,2592.74 C1179.99,2618.89 1166.42,2632.79 1147.22,2648.02 L1148.21,2583.47 C1148.87,2580.5 1153.84,2570.9 1167.08,2570.9 C1178.99,2570.9 1179.99,2582.15 1179.99,2589.1 L1179.99,2592.74 M1176.01,2554.68 C1159.46,2554.68 1149.87,2564.94 1148.21,2566.92 L1149.53,2460.67 C1149.53,2458.03 1147.55,2456.04 1144.9,2456.04 L1140.93,2456.04 C1138.28,2456.04 1136.29,2458.03 1136.29,2460.67 L1137.95,2659.6 C1137.95,2662.25 1139.94,2664.24 1142.58,2664.24 C1143.25,2664.24 1144.57,2663.91 1145.23,2663.58 C1173.7,2649.34 1203.49,2622.2 1203.49,2588.11 C1203.49,2570.9 1195.54,2554.68 1176.01,2554.68"/>
<path class="KeySig" d="M1088.05,980.538 C1088.05,1006.69 1074.48,1020.59 1055.28,1035.82 L1056.27,971.27 C1056.93,968.291 1061.9,958.692 1075.14,958.692 C1087.06,958.692 1088.05,969.946 1088.05,976.897 L1088.05,980.538 M1084.08,942.473 C1067.53,942.473 1057.93,952.734 1056.27,954.72 L1057.6,848.469 C1057.6,845.821 1055.61,843.835 1052.96,843.835 L1048.99,843.835 C1046.34,843.835 1044.36,845.821 1044.36,848.469 L1046.01,1047.4 C1046.01,1050.05 1048,1052.03 1050.65,1052.03 C1051.31,1052.03 1052.63,1051.7 1053.29,1051.37 C1081.76,1037.14 1111.55,1010 1111.55,975.904 C1111.55,958.692 1103.61,942.473 1084.08,942.473"/>
<path class="KeySig" d="M1179.99,856.522 C1179.99,882.671 1166.42,896.573 1147.22,911.799 L1148.21,847.254 C1148.87,844.275 1153.84,834.676 1167.08,834.676 C1178.99,834.676 1179.99,845.93 1179.99,852.881 L1179.99,856.522 M1176.01,818.457 C1159.46,818.457 1149.87,828.718 1148.21,830.704 L1149.53,724.453 C1149.53,721.805 1147.55,719.819 1144.9,719.819 L1140.93,719.819 C1138.28,719.819 1136.29,721.805 1136.29,724.453 L1137.95,923.384 C1137.95,926.032 1139.94,928.018 1142.58,928.018 C1143.25,928.018 1144.57,927.687 1145.23,927.356 C1173.7,913.123 1203.49,885.981 1203.49,851.888 C1203.49,834.676 1195.54,818.457 1176.01,818.457"/>
<path class="TimeSig" d="M1360.25,979.772 C1349.33,979.772 1340.39,964.877 1340.39,946.341 C1340.39,927.805 1349.33,912.579 1360.25,912.579 C1371.17,912.579 1380.44,927.805 1380.44,946.341 C1380.44,964.877 1371.17,979.772 1360.25,979.772 M1372.5,897.022 C1352.31,897.022 1345.03,902.98 1340.39,907.945 C1339.4,900.994 1338.74,895.698 1338.74,890.402 C1338.74,871.535 1345.36,847.041 1368.53,847.041 C1376.8,847.041 1381.77,849.689 1385.08,853.33 C1378.13,856.309 1372.5,865.246 1372.5,872.859 C1372.5,884.775 1381.77,894.043 1393.68,894.043 C1405.6,894.043 1415.2,884.775 1415.2,872.859 L1415.2,871.866 C1415.2,868.887 1414.54,863.922 1413.21,861.274 C1408.91,849.358 1395.01,831.815 1361.91,831.815 C1332.12,831.815 1310.6,860.281 1303.98,875.507 C1300.67,883.451 1295.71,899.67 1295.71,918.206 C1295.71,938.397 1301.33,961.236 1320.86,978.448 C1340.06,993.012 1352.31,993.674 1363.89,993.674 C1375.48,993.674 1418.84,980.103 1418.84,941.707 C1418.84,909.269 1393.35,897.022 1372.5,897.022"/>
<path class="TimeSig" d="M1350.34,1118.01 L1350.34,1142.5 L1322.87,1142.5 C1320.55,1142.5 1318.23,1144.49 1318.23,1147.13 L1318.23,1153.42 C1318.23,1156.07 1320.55,1158.06 1322.87,1158.06 L1423.16,1158.06 C1425.81,1158.06 1427.79,1156.07 1427.79,1153.42 L1427.79,1147.13 C1427.79,1144.49 1425.81,1142.5 1423.16,1142.5 L1393.37,1142.5 L1393.37,1118.01 L1423.16,1118.01 C1425.81,1118.01 1427.79,1115.69 1427.79,1113.04 L1427.79,1106.75 C1427.79,1104.44 1425.81,1102.12 1423.16,1102.12 L1393.37,1102.12 L1393.37,1049.49 C1393.37,1047.5 1392.38,1045.85 1391.05,1045.19 L1387.08,1043.2 C1386.42,1042.87 1386.09,1042.87 1385.43,1042.87 C1384.1,1042.87 1382.78,1042.87 1381.78,1043.86 L1351.66,1071.34 C1350.67,1072.33 1350.34,1073.65 1350.34,1074.98 L1350.34,1102.12 L1311.94,1102.12 C1311.94,1102.12 1349.02,1062.4 1388.07,1010.1 C1389.4,1008.45 1389.73,1006.79 1389.73,1005.47 C1389.73,1003.81 1389.07,1002.49 1388.74,1002.16 L1381.45,994.874 C1380.46,994.212 1379.47,993.55 1378.14,993.55 C1376.16,993.55 1331.47,993.55 1328.82,993.55 C1326.51,993.55 1324.85,995.536 1324.52,997.522 C1324.52,997.522 1322.87,1022.02 1314.26,1048.83 C1305.65,1075.64 1295.72,1092.19 1287.12,1104.44 C1287.12,1104.44 1286.13,1106.09 1286.13,1108.08 C1286.13,1108.74 1286.13,1109.4 1286.46,1110.06 C1287.45,1112.38 1289.77,1116.02 1289.77,1116.02 C1289.77,1116.02 1290.43,1118.01 1293.41,1118.01 L1350.34,1118.01 "/>
<path class="Beam" fill-rule="evenodd" d="M7960.19,1200.37 L8387.21,1241.71 L8387.21,1283.24 L7960.19,1241.91 L7960.19,1200.37 "/>
<path class="Beam" fill-rule="evenodd" d="M7937.48,2936.61 L8397.91,2977.95 L8397.91,3019.45 L7937.48,2978.11 L7937.48,2936.61 "/>
<path class="Beam" fill-rule="evenodd" d="M7848.36,1903.14 L8288.22,1944.47 L8288.22,1986 L7848.36,1944.66 L7848.36,1903.14 "/>
<path class="NoteDot" d="M4729.27,2771.34 C4729.27,2780.61 4736.56,2787.89 4745.82,2787.89 C4755.09,2787.89 4762.37,2780.61 4762.37,2771.34 C4762.37,2762.07 4755.09,2754.79 4745.82,2754.79 C4736.56,2754.79 4729.27,2762.07 4729.27,2771.34"/>
<path class="NoteDot" d="M7710.89,869.762 C7710.89,879.03 7718.17,886.312 7727.44,886.312 C7736.71,886.312 7743.99,879.03 7743.99,869.762 C7743.99,860.494 7736.71,853.212 7727.44,853.212 C7718.17,853.212 7710.89,860.494 7710.89,869.762"/>
<path class="NoteDot" d="M7656.42,2605.98 C7656.42,2615.25 7663.7,2622.53 7672.97,2622.53 C7682.24,2622.53 7689.52,2615.25 7689.52,2605.98 C7689.52,2596.71 7682.24,2589.43 7672.97,2589.43 C7663.7,2589.43 7656.42,2596.71 7656.42,2605.98"/>
<path class="NoteDot" d="M7628.69,1572.52 C7628.69,1581.79 7635.98,1589.07 7645.24,1589.07 C7654.51,1589.07 7661.79,1581.79 7661.79,1572.52 C7661.79,1563.25 7654.51,1555.97 7645.24,1555.97 C7635.98,1555.97 7628.69,1563.25 7628.69,1572.52"/>
</svg>
