<?xml version="1.0" encoding="UTF-8" standalone="no"?>
<svg width="210.058mm" height="296.926mm" viewBox="0 0 9924 14028"
 xmlns="http://www.w3.org/2000/svg" xmlns:xlink="http://www.w3.org/1999/xlink" version="1.2" baseProfile="full">
<title>air_XLV</title>
<desc>Generated by MuseScore Studio 4.7.3</desc>
<polyline class="StaffLines" fill="none" stroke="#000000" stroke-width="9.09" stroke-linejoin="bevel" points="708.661,828.424 9215.34,828.424" />
<polyline class="StaffLines" fill="none" stroke="#000000" stroke-width="9.09" stroke-linejoin="bevel" points="708.661,911.101 9215.34,911.101" />
<polyline class="StaffLines" fill="none" stroke="#000000" stroke-width="9.09" stroke-linejoin="bevel" points="708.661,993.778 9215.34,993.778" />
<polyline class="StaffLines" fill="none" stroke="#000000" stroke-width="9.09" stroke-linejoin="bevel" points="708.661,1076.46 9215.34,1076.46" />
<polyline class="StaffLines" fill="none" stroke="#000000" stroke-width="9.09" stroke-linejoin="bevel" points="708.661,1159.13 9215.34,1159.13" />
<polyline class="StaffLines" fill="none" stroke="#000000" stroke-width="9.09" stroke-linejoin="bevel" points="708.661,1696.53 9215.34,1696.53" />
<polyline class="StaffLines" fill="none" stroke="#000000" stroke-width="9.09" stroke-linejoin="bevel" points="708.661,1779.21 9215.34,1779.21" />
<polyline class="StaffLines" fill="none" stroke="#000000" stroke-width="9.09" stroke-linejoin="bevel" points="708.661,1861.89 9215.34,1861.89" />
<polyline class="StaffLines" fill="none" stroke="#000000" stroke-width="9.09" stroke-linejoin="bevel" points="708.661,1944.57 9215.34,1944.57" />
<polyline class="StaffLines" fill="none" stroke="#000000" stroke-width="9.09" stroke-linejoin="bevel" points="708.661,2027.24 9215.34,2027.24" />
<polyline class="StaffLines" fill="none" stroke="#000000" stroke-width="9.09" stroke-linejoin="bevel" points="708.661,2564.64 9215.34,2564.64" />
<polyline class="StaffLines" fill="none" stroke="#000000" stroke-width="9.09" stroke-linejoin="bevel" points="708.661,2647.32 9215.34,2647.32" />
<polyline class="StaffLines" fill="none" stroke="#000000" stroke-width="9.09" stroke-linejoin="bevel" points="708.661,2730 9215.34,2730" />
<polyline class="StaffLines" fill="none" stroke="#000000" stroke-width="9.09" stroke-linejoin="bevel" points="708.661,2812.68 9215.34,2812.68" />
<polyline class="StaffLines" fill="none" stroke="#000000" stroke-width="9.09" stroke-linejoin="bevel" points="708.661,2895.35 9215.34,2895.35" />
<polyline class="BarLine" fill="none" stroke="#000000" stroke-width="14.88" stroke-linejoin="bevel" points="3856.61,823.876 3856.61,1163.68" />
<polyline class="BarLine" fill="none" stroke="#000000" stroke-width="14.88" stroke-linejoin="bevel" points="9131.84,2560.1 9131.84,2899.9" />
<polyline class="BarLine" fill="none" stroke="#000000" stroke-width="45.47" stroke-linejoin="bevel" points="9192.6,2560.1 9192.6,2899.9" />
<polyline class="BarLine" fill="none" stroke="#000000" stroke-width="14.88" stroke-linejoin="bevel" points="3309.32,1691.99 3309.32,2031.79" />
<polyline class="BarLine" fill="none" stroke="#000000" stroke-width="14.88" stroke-linejoin="bevel" points="7469.16,1691.99 7469.16,2031.79" />
<polyline class="BarLine" fill="none" stroke="#000000" stroke-width="14.88" stroke-linejoin="bevel" points="9207.9,1691.99 9207.9,2031.79" />
<polyline class="BarLine" fill="none" stroke="#000000" stroke-width="14.88" stroke-linejoin="bevel" points="9207.9,823.876 9207.9,1163.68" />
<polyline class="BarLine" fill="none" stroke="#000000" stroke-width="14.88" stroke-linejoin="bevel" points="3232.77,2560.1 3232.77,2899.9" />
<polyline class="BarLine" fill="none" stroke="#000000" stroke-width="14.88" stroke-linejoin="bevel" points="5367.24,1691.99 5367.24,2031.79" />
<polyline class="BarLine" fill="none" stroke="#000000" stroke-width="14.88" stroke-linejoin="bevel" points="7210.93,823.876 7210.93,1163.68" />
<polyline class="BarLine" fill="none" stroke="#000000" stroke-width="14.88" stroke-linejoin="bevel" points="1939.88,823.876 1939.88,1163.68" />
<polyline class="BarLine" fill="none" stroke="#000000" stroke-width="14.88" stroke-linejoin="bevel" points="5444.07,823.876 5444.07,1163.68" />
<polyline class="BarLine" fill="none" stroke="#000000" stroke-width="14.88" stroke-linejoin="bevel" points="5258.13,2560.1 5258.13,2899.9" />
<polyline class="BarLine" fill="none" stroke="#000000" stroke-width="14.88" stroke-linejoin="bevel" points="7360.31,2560.1 7360.31,2899.9" />
<polyline class="LedgerLine" fill="none" stroke="#000000" stroke-width="13.23" stroke-linejoin="bevel" points="4727.42,2978.03 4889.48,2978.03" />
<polyline class="Stem" fill="none" stroke="#000000" stroke-width="8.27" stroke-linejoin="bevel" points="8004.88,1021.89 8004.88,776.75" />
<polyline class="Stem" fill="none" stroke="#000000" stroke-width="8.27" stroke-linejoin="bevel" points="7125.56,2758.11 7125.56,2502.64" />
<polyline class="Stem" fill="none" stroke="#000000" stroke-width="8.27" stroke-linejoin="bevel" points="4670.25,1021.89 4670.25,766.416" />
<polyline class="Stem" fill="none" stroke="#000000" stroke-width="8.27" stroke-linejoin="bevel" points="2154.01,1021.89 2154.01,766.416" />
<polyline class="Stem" fill="none" stroke="#000000" stroke-width="8.27" stroke-linejoin="bevel" points="4870.79,966.329 4870.79,1221.14" />
<polyline class="Stem" fill="none" stroke="#000000" stroke-width="8.27" stroke-linejoin="bevel" points="5472.26,2840.79 5472.26,2564.64" />
<polyline class="Stem" fill="none" stroke="#000000" stroke-width="8.27" stroke-linejoin="bevel" points="4858.05,2964.8 4858.05,2688.66" />
<polyline class="Stem" fill="none" stroke="#000000" stroke-width="8.27" stroke-linejoin="bevel" points="4070.74,1021.89 4070.74,766.416" />
<polyline class="Stem" fill="none" stroke="#000000" stroke-width="8.27" stroke-linejoin="bevel" points="2354.55,966.329 2354.55,1221.14" />
<polyline class="Stem" fill="none" stroke="#000000" stroke-width="8.27" stroke-linejoin="bevel" points="5658.21,1021.89 5658.21,766.416" />
<polyline class="Stem" fill="none" stroke="#000000" stroke-width="8.27" stroke-linejoin="bevel" points="4527.39,2923.46 4527.39,2647.32" />
<polyline class="Stem" fill="none" stroke="#000000" stroke-width="8.27" stroke-linejoin="bevel" points="5858.74,924.991 5858.74,1200.47" />
<polyline class="Stem" fill="none" stroke="#000000" stroke-width="8.27" stroke-linejoin="bevel" points="4306.95,2840.79 4306.95,2584.93" />
<polyline class="Stem" fill="none" stroke="#000000" stroke-width="8.27" stroke-linejoin="bevel" points="6158.49,924.991 6158.49,1200.47" />
<polyline class="Stem" fill="none" stroke="#000000" stroke-width="8.27" stroke-linejoin="bevel" points="4086.51,2799.45 4086.51,2564.64" />
<polyline class="Stem" fill="none" stroke="#000000" stroke-width="8.27" stroke-linejoin="bevel" points="6458.25,924.991 6458.25,1200.47" />
<polyline class="Stem" fill="none" stroke="#000000" stroke-width="8.27" stroke-linejoin="bevel" points="3866.07,2758.11 3866.07,2544.36" />
<polyline class="Stem" fill="none" stroke="#000000" stroke-width="8.27" stroke-linejoin="bevel" points="6907.87,966.329 6907.87,1221.14" />
<polyline class="Stem" fill="none" stroke="#000000" stroke-width="8.27" stroke-linejoin="bevel" points="3446.9,2799.45 3446.9,2523.31" />
<polyline class="Stem" fill="none" stroke="#000000" stroke-width="8.27" stroke-linejoin="bevel" points="5802.92,2923.46 5802.92,2647.32" />
<polyline class="Stem" fill="none" stroke="#000000" stroke-width="8.27" stroke-linejoin="bevel" points="1804.27,1021.89 1804.27,807.754" />
<polyline class="Stem" fill="none" stroke="#000000" stroke-width="8.27" stroke-linejoin="bevel" points="7425.06,1021.89 7425.06,766.416" />
<polyline class="Stem" fill="none" stroke="#000000" stroke-width="8.27" stroke-linejoin="bevel" points="3652.77,1021.89 3652.77,766.416" />
<polyline class="Stem" fill="none" stroke="#000000" stroke-width="8.27" stroke-linejoin="bevel" points="7475.23,2661.21 7475.23,2936.69" />
<polyline class="Stem" fill="none" stroke="#000000" stroke-width="8.27" stroke-linejoin="bevel" points="7805.05,980.55 7805.05,766.625" />
<polyline class="Stem" fill="none" stroke="#000000" stroke-width="8.27" stroke-linejoin="bevel" points="2832.68,2923.46 2832.68,2647.32" />
<polyline class="Stem" fill="none" stroke="#000000" stroke-width="8.27" stroke-linejoin="bevel" points="2502.02,2840.79 2502.02,2564.64" />
<polyline class="Stem" fill="none" stroke="#000000" stroke-width="8.27" stroke-linejoin="bevel" points="6133.58,2923.46 6133.58,2647.32" />
<polyline class="Stem" fill="none" stroke="#000000" stroke-width="8.27" stroke-linejoin="bevel" points="2281.58,2799.45 2281.58,2523.12" />
<polyline class="Stem" fill="none" stroke="#000000" stroke-width="8.27" stroke-linejoin="bevel" points="8204.72,1063.23 8204.72,786.876" />
<polyline class="Stem" fill="none" stroke="#000000" stroke-width="8.27" stroke-linejoin="bevel" points="2061.15,2758.11 2061.15,2512.97" />
<polyline class="Stem" fill="none" stroke="#000000" stroke-width="8.27" stroke-linejoin="bevel" points="8404.55,1104.57 8404.55,828.424" />
<polyline class="Stem" fill="none" stroke="#000000" stroke-width="8.27" stroke-linejoin="bevel" points="1840.71,2716.77 1840.71,2502.83" />
<polyline class="Stem" fill="none" stroke="#000000" stroke-width="8.27" stroke-linejoin="bevel" points="8704.3,1187.24 8704.3,911.101" />
<polyline class="Stem" fill="none" stroke="#000000" stroke-width="8.27" stroke-linejoin="bevel" points="1421.54,2758.11 1421.54,2502.64" />
<polyline class="Stem" fill="none" stroke="#000000" stroke-width="8.27" stroke-linejoin="bevel" points="9004.05,1021.89 9004.05,766.416" />
<polyline class="Stem" fill="none" stroke="#000000" stroke-width="8.27" stroke-linejoin="bevel" points="3253.8,966.329 3253.8,1221.14" />
<polyline class="Stem" fill="none" stroke="#000000" stroke-width="8.27" stroke-linejoin="bevel" points="8070.44,2758.11 8070.44,2502.64" />
<polyline class="Stem" fill="none" stroke="#000000" stroke-width="8.27" stroke-linejoin="bevel" points="6464.24,2840.79 6464.24,2564.64" />
<polyline class="Stem" fill="none" stroke="#000000" stroke-width="8.27" stroke-linejoin="bevel" points="1604.44,1021.89 1604.44,807.754" />
<polyline class="Stem" fill="none" stroke="#000000" stroke-width="8.27" stroke-linejoin="bevel" points="8575.93,1793.1 8575.93,2068.58" />
<polyline class="Stem" fill="none" stroke="#000000" stroke-width="8.27" stroke-linejoin="bevel" points="1421.54,1890 1421.54,1634.53" />
<polyline class="Stem" fill="none" stroke="#000000" stroke-width="8.27" stroke-linejoin="bevel" points="8344.52,1890 8344.52,1634.53" />
<polyline class="Stem" fill="none" stroke="#000000" stroke-width="8.27" stroke-linejoin="bevel" points="1652.94,1834.44 1652.94,2089.25" />
<polyline class="Stem" fill="none" stroke="#000000" stroke-width="8.27" stroke-linejoin="bevel" points="8013.91,1931.34 8013.91,1655.2" />
<polyline class="Stem" fill="none" stroke="#000000" stroke-width="8.27" stroke-linejoin="bevel" points="2082.77,1890 2082.77,1634.53" />
<polyline class="Stem" fill="none" stroke="#000000" stroke-width="8.27" stroke-linejoin="bevel" points="7683.29,1972.68 7683.29,1696.53" />
<polyline class="Stem" fill="none" stroke="#000000" stroke-width="8.27" stroke-linejoin="bevel" points="2314.17,1834.44 2314.17,2089.25" />
<polyline class="Stem" fill="none" stroke="#000000" stroke-width="8.27" stroke-linejoin="bevel" points="3053.26,1021.89 3053.26,766.416" />
<polyline class="Stem" fill="none" stroke="#000000" stroke-width="8.27" stroke-linejoin="bevel" points="2644.79,1793.1 2644.79,2068.58" />
<polyline class="Stem" fill="none" stroke="#000000" stroke-width="8.27" stroke-linejoin="bevel" points="8401.09,2840.79 8401.09,2564.64" />
<polyline class="Stem" fill="none" stroke="#000000" stroke-width="8.27" stroke-linejoin="bevel" points="2975.4,1751.76 2975.4,2027.24" />
<polyline class="Stem" fill="none" stroke="#000000" stroke-width="8.27" stroke-linejoin="bevel" points="7135.24,1834.44 7135.24,2089.25" />
<polyline class="Stem" fill="none" stroke="#000000" stroke-width="8.27" stroke-linejoin="bevel" points="8731.75,2923.46 8731.75,2647.32" />
<polyline class="Stem" fill="none" stroke="#000000" stroke-width="8.27" stroke-linejoin="bevel" points="6794.9,2799.45 6794.9,2523.31" />
<polyline class="Stem" fill="none" stroke="#000000" stroke-width="8.27" stroke-linejoin="bevel" points="3424.25,1710.42 3424.25,1985.9" />
<polyline class="Stem" fill="none" stroke="#000000" stroke-width="8.27" stroke-linejoin="bevel" points="6903.83,1890 6903.83,1634.53" />
<polyline class="Stem" fill="none" stroke="#000000" stroke-width="8.27" stroke-linejoin="bevel" points="3754.86,1751.76 3754.86,2027.24" />
<polyline class="Stem" fill="none" stroke="#000000" stroke-width="8.27" stroke-linejoin="bevel" points="6474.01,1834.44 6474.01,2089.25" />
<polyline class="Stem" fill="none" stroke="#000000" stroke-width="8.27" stroke-linejoin="bevel" points="4085.48,1793.1 4085.48,2068.58" />
<polyline class="Stem" fill="none" stroke="#000000" stroke-width="8.27" stroke-linejoin="bevel" points="6143.39,1793.1 6143.39,2068.58" />
<polyline class="Stem" fill="none" stroke="#000000" stroke-width="8.27" stroke-linejoin="bevel" points="4416.09,1834.44 4416.09,2089.25" />
<polyline class="Stem" fill="none" stroke="#000000" stroke-width="8.27" stroke-linejoin="bevel" points="2753.51,1021.89 2753.51,766.416" />
<polyline class="Stem" fill="none" stroke="#000000" stroke-width="8.27" stroke-linejoin="bevel" points="4912.01,1793.1 4912.01,2026.87" />
<polyline class="Stem" fill="none" stroke="#000000" stroke-width="8.27" stroke-linejoin="bevel" points="5812.78,1751.76 5812.78,2027.24" />
<polyline class="Stem" fill="none" stroke="#000000" stroke-width="8.27" stroke-linejoin="bevel" points="5482.16,1710.42 5482.16,1985.9" />
<polyline class="Stem" fill="none" stroke="#000000" stroke-width="8.27" stroke-linejoin="bevel" points="5132.42,1751.76 5132.42,2006.95" />
<polyline class="Stem" fill="none" stroke="#000000" stroke-width="8.27" stroke-linejoin="bevel" points="4271.28,966.329 4271.28,1221.14" />
<path class="Note" d="M8653.23,2965.16 C8642.31,2965.16 8639.99,2956.22 8639.99,2953.24 C8639.99,2937.02 8695.6,2908.56 8711.16,2908.56 C8719.1,2908.56 8724.4,2913.19 8724.4,2920.47 C8724.4,2937.02 8668.46,2965.16 8653.23,2965.16 M8698.91,2893 C8666.8,2893 8628.41,2919.81 8628.41,2950.59 C8628.41,2964.83 8638.67,2980.71 8665.48,2980.71 C8699.9,2980.71 8735.98,2952.58 8735.98,2923.45 C8735.98,2903.92 8719.43,2893 8698.91,2893"/>
<path class="Note" d="M6030.23,2950.59 C6030.23,2964.83 6040.5,2980.71 6067.31,2980.71 C6101.73,2980.71 6137.81,2952.58 6137.81,2923.45 C6137.81,2903.92 6121.26,2893 6100.74,2893 C6068.63,2893 6030.23,2920.14 6030.23,2950.59"/>
<path class="Note" d="M8297.75,2867.92 C8297.75,2882.15 8308.01,2898.04 8334.82,2898.04 C8369.24,2898.04 8405.32,2869.9 8405.32,2840.77 C8405.32,2821.25 8388.77,2810.32 8368.25,2810.32 C8336.14,2810.32 8297.75,2837.46 8297.75,2867.92"/>
<path class="Note" d="M5478.03,1710.44 C5478.03,1724.67 5488.29,1740.56 5515.1,1740.56 C5549.52,1740.56 5585.6,1712.42 5585.6,1683.29 C5585.6,1663.76 5569.05,1652.84 5548.53,1652.84 C5516.42,1652.84 5478.03,1679.98 5478.03,1710.44"/>
<path class="Note" d="M4907.88,1793.11 C4907.88,1807.35 4918.14,1823.23 4944.95,1823.23 C4979.38,1823.23 5015.45,1795.1 5015.45,1765.97 C5015.45,1746.44 4998.9,1735.52 4978.38,1735.52 C4946.28,1735.52 4907.88,1762.66 4907.88,1793.11"/>
<path class="Note" d="M5808.64,1751.77 C5808.64,1766.01 5818.9,1781.9 5845.71,1781.9 C5880.14,1781.9 5916.22,1753.76 5916.22,1724.63 C5916.22,1705.1 5899.67,1694.18 5879.15,1694.18 C5847.04,1694.18 5808.64,1721.32 5808.64,1751.77"/>
<path class="Note" d="M4081.34,1793.11 C4081.34,1807.35 4091.6,1823.23 4118.41,1823.23 C4152.84,1823.23 4188.92,1795.1 4188.92,1765.97 C4188.92,1746.44 4172.37,1735.52 4151.84,1735.52 C4119.74,1735.52 4081.34,1762.66 4081.34,1793.11"/>
<path class="Note" d="M6139.26,1793.11 C6139.26,1807.35 6149.52,1823.23 6176.33,1823.23 C6210.75,1823.23 6246.83,1795.1 6246.83,1765.97 C6246.83,1746.44 6230.28,1735.52 6209.76,1735.52 C6177.65,1735.52 6139.26,1762.66 6139.26,1793.11"/>
<path class="Note" d="M3750.73,1751.77 C3750.73,1766.01 3760.99,1781.9 3787.8,1781.9 C3822.22,1781.9 3858.3,1753.76 3858.3,1724.63 C3858.3,1705.1 3841.75,1694.18 3821.23,1694.18 C3789.12,1694.18 3750.73,1721.32 3750.73,1751.77"/>
<path class="Note" d="M6469.87,1834.45 C6469.87,1848.68 6480.13,1864.57 6506.94,1864.57 C6541.37,1864.57 6577.45,1836.44 6577.45,1807.31 C6577.45,1787.78 6560.9,1776.86 6540.38,1776.86 C6508.27,1776.86 6469.87,1804 6469.87,1834.45"/>
<path class="Note" d="M3420.11,1710.44 C3420.11,1724.67 3430.37,1740.56 3457.18,1740.56 C3491.61,1740.56 3527.69,1712.42 3527.69,1683.29 C3527.69,1663.76 3511.14,1652.84 3490.61,1652.84 C3458.51,1652.84 3420.11,1679.98 3420.11,1710.44"/>
<path class="Note" d="M6800.49,1917.13 C6800.49,1931.36 6810.75,1947.25 6837.56,1947.25 C6871.98,1947.25 6908.06,1919.11 6908.06,1889.99 C6908.06,1870.46 6891.51,1859.53 6870.99,1859.53 C6838.88,1859.53 6800.49,1886.68 6800.49,1917.13"/>
<path class="Note" d="M2971.27,1751.77 C2971.27,1766.01 2981.53,1781.9 3008.34,1781.9 C3042.76,1781.9 3078.84,1753.76 3078.84,1724.63 C3078.84,1705.1 3062.29,1694.18 3041.77,1694.18 C3009.66,1694.18 2971.27,1721.32 2971.27,1751.77"/>
<path class="Note" d="M7131.1,1834.45 C7131.1,1848.68 7141.36,1864.57 7168.18,1864.57 C7202.6,1864.57 7238.68,1836.44 7238.68,1807.31 C7238.68,1787.78 7222.13,1776.86 7201.61,1776.86 C7169.5,1776.86 7131.1,1804 7131.1,1834.45"/>
<path class="Note" d="M2640.65,1793.11 C2640.65,1807.35 2650.91,1823.23 2677.72,1823.23 C2712.15,1823.23 2748.23,1795.1 2748.23,1765.97 C2748.23,1746.44 2731.68,1735.52 2711.16,1735.52 C2679.05,1735.52 2640.65,1762.66 2640.65,1793.11"/>
<path class="Note" d="M2310.04,1834.45 C2310.04,1848.68 2320.3,1864.57 2347.11,1864.57 C2381.53,1864.57 2417.61,1836.44 2417.61,1807.31 C2417.61,1787.78 2401.06,1776.86 2380.54,1776.86 C2348.43,1776.86 2310.04,1804 2310.04,1834.45"/>
<path class="Note" d="M1979.42,1917.13 C1979.42,1931.36 1989.68,1947.25 2016.49,1947.25 C2050.92,1947.25 2087,1919.11 2087,1889.99 C2087,1870.46 2070.45,1859.53 2049.93,1859.53 C2017.82,1859.53 1979.42,1886.68 1979.42,1917.13"/>
<path class="Note" d="M7579.95,1999.81 C7579.95,2014.04 7590.21,2029.93 7617.02,2029.93 C7651.44,2029.93 7687.52,2001.79 7687.52,1972.66 C7687.52,1953.14 7670.97,1942.21 7650.45,1942.21 C7618.34,1942.21 7579.95,1969.35 7579.95,1999.81"/>
<path class="Note" d="M1648.81,1834.45 C1648.81,1848.68 1659.07,1864.57 1685.88,1864.57 C1720.3,1864.57 1756.38,1836.44 1756.38,1807.31 C1756.38,1787.78 1739.83,1776.86 1719.31,1776.86 C1687.2,1776.86 1648.81,1804 1648.81,1834.45"/>
<path class="Note" d="M7910.56,1958.47 C7910.56,1972.7 7920.82,1988.59 7947.63,1988.59 C7982.06,1988.59 8018.14,1960.45 8018.14,1931.33 C8018.14,1911.8 8001.59,1900.87 7981.06,1900.87 C7948.96,1900.87 7910.56,1928.02 7910.56,1958.47"/>
<path class="Note" d="M1318.19,1917.13 C1318.19,1931.36 1328.45,1947.25 1355.26,1947.25 C1389.69,1947.25 1425.77,1919.11 1425.77,1889.99 C1425.77,1870.46 1409.22,1859.53 1388.7,1859.53 C1356.59,1859.53 1318.19,1886.68 1318.19,1917.13"/>
<path class="Note" d="M8241.18,1917.13 C8241.18,1931.36 8251.44,1947.25 8278.25,1947.25 C8312.67,1947.25 8348.75,1919.11 8348.75,1889.99 C8348.75,1870.46 8332.2,1859.53 8311.68,1859.53 C8279.57,1859.53 8241.18,1886.68 8241.18,1917.13"/>
<path class="Note" d="M7967.09,2785.24 C7967.09,2799.47 7977.35,2815.36 8004.16,2815.36 C8038.59,2815.36 8074.66,2787.23 8074.66,2758.1 C8074.66,2738.57 8058.11,2727.65 8037.59,2727.65 C8005.49,2727.65 7967.09,2754.79 7967.09,2785.24"/>
<path class="Note" d="M8596.62,1807.68 C8585.69,1807.68 8583.38,1798.74 8583.38,1795.76 C8583.38,1779.54 8638.99,1751.08 8654.54,1751.08 C8662.49,1751.08 8667.78,1755.71 8667.78,1762.99 C8667.78,1779.54 8611.84,1807.68 8596.62,1807.68 M8642.3,1735.52 C8610.19,1735.52 8571.79,1762.33 8571.79,1793.11 C8571.79,1807.35 8582.05,1823.23 8608.86,1823.23 C8643.29,1823.23 8679.37,1795.1 8679.37,1765.97 C8679.37,1746.44 8662.82,1735.52 8642.3,1735.52"/>
<path class="Note" d="M1501.09,1049.02 C1501.09,1063.25 1511.35,1079.14 1538.16,1079.14 C1572.59,1079.14 1608.67,1051 1608.67,1021.88 C1608.67,1002.35 1592.12,991.425 1571.59,991.425 C1539.49,991.425 1501.09,1018.57 1501.09,1049.02"/>
<path class="Note" d="M7495.93,2675.79 C7485,2675.79 7482.69,2666.85 7482.69,2663.87 C7482.69,2647.65 7538.29,2619.19 7553.85,2619.19 C7561.79,2619.19 7567.09,2623.82 7567.09,2631.1 C7567.09,2647.65 7511.15,2675.79 7495.93,2675.79 M7541.6,2603.63 C7509.5,2603.63 7471.1,2630.44 7471.1,2661.22 C7471.1,2675.46 7481.36,2691.34 7508.17,2691.34 C7542.6,2691.34 7578.68,2663.21 7578.68,2634.08 C7578.68,2614.55 7562.13,2603.63 7541.6,2603.63"/>
<path class="Note" d="M8900.71,1049.02 C8900.71,1063.25 8910.97,1079.14 8937.78,1079.14 C8972.2,1079.14 9008.28,1051 9008.28,1021.88 C9008.28,1002.35 8991.73,991.425 8971.21,991.425 C8939.1,991.425 8900.71,1018.57 8900.71,1049.02"/>
<path class="Note" d="M1700.93,1049.02 C1700.93,1063.25 1711.19,1079.14 1738,1079.14 C1772.42,1079.14 1808.5,1051 1808.5,1021.88 C1808.5,1002.35 1791.95,991.425 1771.43,991.425 C1739.32,991.425 1700.93,1018.57 1700.93,1049.02"/>
<path class="Note" d="M2050.66,1049.02 C2050.66,1063.25 2060.92,1079.14 2087.74,1079.14 C2122.16,1079.14 2158.24,1051 2158.24,1021.88 C2158.24,1002.35 2141.69,991.425 2121.17,991.425 C2089.06,991.425 2050.66,1018.57 2050.66,1049.02"/>
<path class="Note" d="M8600.96,1214.37 C8600.96,1228.61 8611.22,1244.49 8638.03,1244.49 C8672.45,1244.49 8708.53,1216.36 8708.53,1187.23 C8708.53,1167.7 8691.98,1156.78 8671.46,1156.78 C8639.35,1156.78 8600.96,1183.92 8600.96,1214.37"/>
<path class="Note" d="M1318.19,2785.24 C1318.19,2799.47 1328.45,2815.36 1355.26,2815.36 C1389.69,2815.36 1425.77,2787.23 1425.77,2758.1 C1425.77,2738.57 1409.22,2727.65 1388.7,2727.65 C1356.59,2727.65 1318.19,2754.79 1318.19,2785.24"/>
<path class="Note" d="M7022.21,2785.24 C7022.21,2799.47 7032.47,2815.36 7059.28,2815.36 C7093.71,2815.36 7129.79,2787.23 7129.79,2758.1 C7129.79,2738.57 7113.24,2727.65 7092.72,2727.65 C7060.61,2727.65 7022.21,2754.79 7022.21,2785.24"/>
<path class="Note" d="M8301.21,1131.7 C8301.21,1145.93 8311.47,1161.82 8338.28,1161.82 C8372.7,1161.82 8408.78,1133.68 8408.78,1104.55 C8408.78,1085.02 8392.23,1074.1 8371.71,1074.1 C8339.6,1074.1 8301.21,1101.24 8301.21,1131.7"/>
<path class="Note" d="M1737.36,2743.9 C1737.36,2758.13 1747.62,2774.02 1774.43,2774.02 C1808.86,2774.02 1844.93,2745.89 1844.93,2716.76 C1844.93,2697.23 1828.38,2686.31 1807.86,2686.31 C1775.76,2686.31 1737.36,2713.45 1737.36,2743.9"/>
<path class="Note" d="M2350.41,966.341 C2350.41,980.574 2360.68,996.462 2387.49,996.462 C2421.91,996.462 2457.99,968.327 2457.99,939.199 C2457.99,919.67 2441.44,908.747 2420.92,908.747 C2388.81,908.747 2350.41,935.889 2350.41,966.341"/>
<path class="Note" d="M8101.37,1090.36 C8101.37,1104.59 8111.63,1120.48 8138.44,1120.48 C8172.87,1120.48 8208.95,1092.34 8208.95,1063.22 C8208.95,1043.69 8192.4,1032.76 8171.88,1032.76 C8139.77,1032.76 8101.37,1059.91 8101.37,1090.36"/>
<path class="Note" d="M1957.8,2785.24 C1957.8,2799.47 1968.06,2815.36 1994.87,2815.36 C2029.29,2815.36 2065.37,2787.23 2065.37,2758.1 C2065.37,2738.57 2048.82,2727.65 2028.3,2727.65 C1996.19,2727.65 1957.8,2754.79 1957.8,2785.24"/>
<path class="Note" d="M7901.54,1049.02 C7901.54,1063.25 7911.8,1079.14 7938.61,1079.14 C7973.03,1079.14 8009.11,1051 8009.11,1021.88 C8009.11,1002.35 7992.56,991.425 7972.04,991.425 C7939.93,991.425 7901.54,1018.57 7901.54,1049.02"/>
<path class="Note" d="M2178.24,2826.58 C2178.24,2840.81 2188.5,2856.7 2215.31,2856.7 C2249.73,2856.7 2285.81,2828.56 2285.81,2799.44 C2285.81,2779.91 2269.26,2768.98 2248.74,2768.98 C2216.63,2768.98 2178.24,2796.13 2178.24,2826.58"/>
<path class="Note" d="M6691.55,2826.58 C6691.55,2840.81 6701.81,2856.7 6728.63,2856.7 C6763.05,2856.7 6799.13,2828.56 6799.13,2799.44 C6799.13,2779.91 6782.58,2768.98 6762.06,2768.98 C6729.95,2768.98 6691.55,2796.13 6691.55,2826.58"/>
<path class="Note" d="M2398.68,2867.92 C2398.68,2882.15 2408.94,2898.04 2435.75,2898.04 C2470.17,2898.04 2506.25,2869.9 2506.25,2840.77 C2506.25,2821.25 2489.7,2810.32 2469.18,2810.32 C2437.07,2810.32 2398.68,2837.46 2398.68,2867.92"/>
<path class="Note" d="M7701.7,1007.68 C7701.7,1021.91 7711.96,1037.8 7738.78,1037.8 C7773.2,1037.8 7809.28,1009.67 7809.28,980.538 C7809.28,961.009 7792.73,950.086 7772.21,950.086 C7740.1,950.086 7701.7,977.228 7701.7,1007.68"/>
<path class="Note" d="M2754.16,2965.16 C2743.24,2965.16 2740.92,2956.22 2740.92,2953.24 C2740.92,2937.02 2796.53,2908.56 2812.09,2908.56 C2820.03,2908.56 2825.33,2913.19 2825.33,2920.47 C2825.33,2937.02 2769.39,2965.16 2754.16,2965.16 M2799.84,2893 C2767.73,2893 2729.34,2919.81 2729.34,2950.59 C2729.34,2964.83 2739.6,2980.71 2766.41,2980.71 C2800.83,2980.71 2836.91,2952.58 2836.91,2923.45 C2836.91,2903.92 2820.36,2893 2799.84,2893"/>
<path class="Note" d="M5128.29,1751.77 C5128.29,1766.01 5138.55,1781.9 5165.36,1781.9 C5199.79,1781.9 5235.86,1753.76 5235.86,1724.63 C5235.86,1705.1 5219.31,1694.18 5198.79,1694.18 C5166.69,1694.18 5128.29,1721.32 5128.29,1751.77"/>
<path class="Note" d="M7321.72,1049.02 C7321.72,1063.25 7331.98,1079.14 7358.79,1079.14 C7393.21,1079.14 7429.29,1051 7429.29,1021.88 C7429.29,1002.35 7412.74,991.425 7392.22,991.425 C7360.11,991.425 7321.72,1018.57 7321.72,1049.02"/>
<path class="Note" d="M6903.74,966.341 C6903.74,980.574 6914,996.462 6940.81,996.462 C6975.23,996.462 7011.31,968.327 7011.31,939.199 C7011.31,919.67 6994.76,908.747 6974.24,908.747 C6942.13,908.747 6903.74,935.889 6903.74,966.341"/>
<path class="Note" d="M3343.55,2826.58 C3343.55,2840.81 3353.82,2856.7 3380.63,2856.7 C3415.05,2856.7 3451.13,2828.56 3451.13,2799.44 C3451.13,2779.91 3434.58,2768.98 3414.06,2768.98 C3381.95,2768.98 3343.55,2796.13 3343.55,2826.58"/>
<path class="Note" d="M2650.17,1049.02 C2650.17,1063.25 2660.43,1079.14 2687.24,1079.14 C2721.66,1079.14 2757.74,1051 2757.74,1021.88 C2757.74,1002.35 2741.19,991.425 2720.67,991.425 C2688.56,991.425 2650.17,1018.57 2650.17,1049.02"/>
<path class="Note" d="M6478.94,939.567 C6468.01,939.567 6465.7,930.63 6465.7,927.651 C6465.7,911.432 6521.31,882.966 6536.86,882.966 C6544.81,882.966 6550.1,887.6 6550.1,894.882 C6550.1,911.432 6494.16,939.567 6478.94,939.567 M6524.62,867.409 C6492.51,867.409 6454.11,894.22 6454.11,925.003 C6454.11,939.236 6464.37,955.124 6491.18,955.124 C6525.61,955.124 6561.69,926.989 6561.69,897.861 C6561.69,878.332 6545.14,867.409 6524.62,867.409"/>
<path class="Note" d="M3762.72,2785.24 C3762.72,2799.47 3772.98,2815.36 3799.79,2815.36 C3834.22,2815.36 3870.3,2787.23 3870.3,2758.1 C3870.3,2738.57 3853.75,2727.65 3833.22,2727.65 C3801.12,2727.65 3762.72,2754.79 3762.72,2785.24"/>
<path class="Note" d="M6360.89,2867.92 C6360.89,2882.15 6371.16,2898.04 6397.97,2898.04 C6432.39,2898.04 6468.47,2869.9 6468.47,2840.77 C6468.47,2821.25 6451.92,2810.32 6431.4,2810.32 C6399.29,2810.32 6360.89,2837.46 6360.89,2867.92"/>
<path class="Note" d="M6154.36,925.003 C6154.36,939.236 6164.62,955.124 6191.43,955.124 C6225.86,955.124 6261.94,926.989 6261.94,897.861 C6261.94,878.332 6245.39,867.409 6224.86,867.409 C6192.76,867.409 6154.36,894.551 6154.36,925.003"/>
<path class="Note" d="M3983.16,2826.58 C3983.16,2840.81 3993.42,2856.7 4020.23,2856.7 C4054.66,2856.7 4090.74,2828.56 4090.74,2799.44 C4090.74,2779.91 4074.19,2768.98 4053.66,2768.98 C4021.56,2768.98 3983.16,2796.13 3983.16,2826.58"/>
<path class="Note" d="M5854.61,925.003 C5854.61,939.236 5864.87,955.124 5891.68,955.124 C5926.11,955.124 5962.18,926.989 5962.18,897.861 C5962.18,878.332 5945.63,867.409 5925.11,867.409 C5893.01,867.409 5854.61,894.551 5854.61,925.003"/>
<path class="Note" d="M4203.6,2867.92 C4203.6,2882.15 4213.86,2898.04 4240.67,2898.04 C4275.1,2898.04 4311.18,2869.9 4311.18,2840.77 C4311.18,2821.25 4294.63,2810.32 4274.1,2810.32 C4242,2810.32 4203.6,2837.46 4203.6,2867.92"/>
<path class="Note" d="M5554.86,1049.02 C5554.86,1063.25 5565.12,1079.14 5591.93,1079.14 C5626.35,1079.14 5662.43,1051 5662.43,1021.88 C5662.43,1002.35 5645.88,991.425 5625.36,991.425 C5593.25,991.425 5554.86,1018.57 5554.86,1049.02"/>
<path class="Note" d="M4424.04,2950.59 C4424.04,2964.83 4434.3,2980.71 4461.11,2980.71 C4495.54,2980.71 4531.62,2952.58 4531.62,2923.45 C4531.62,2903.92 4515.07,2893 4494.54,2893 C4462.44,2893 4424.04,2920.14 4424.04,2950.59"/>
<path class="Note" d="M2949.92,1049.02 C2949.92,1063.25 2960.18,1079.14 2986.99,1079.14 C3021.41,1079.14 3057.49,1051 3057.49,1021.88 C3057.49,1002.35 3040.94,991.425 3020.42,991.425 C2988.31,991.425 2949.92,1018.57 2949.92,1049.02"/>
<path class="Note" d="M4891.48,980.905 C4880.55,980.905 4878.24,971.968 4878.24,968.989 C4878.24,952.77 4933.84,924.304 4949.4,924.304 C4957.35,924.304 4962.64,928.938 4962.64,936.22 C4962.64,952.77 4906.7,980.905 4891.48,980.905 M4937.15,908.747 C4905.05,908.747 4866.65,935.558 4866.65,966.341 C4866.65,980.574 4876.91,996.462 4903.72,996.462 C4938.15,996.462 4974.23,968.327 4974.23,939.199 C4974.23,919.67 4957.68,908.747 4937.15,908.747"/>
<path class="Note" d="M4779.52,3006.5 C4768.6,3006.5 4766.28,2997.56 4766.28,2994.58 C4766.28,2978.36 4821.89,2949.9 4837.45,2949.9 C4845.39,2949.9 4850.69,2954.53 4850.69,2961.81 C4850.69,2978.36 4794.75,3006.5 4779.52,3006.5 M4825.2,2934.34 C4793.1,2934.34 4754.7,2961.15 4754.7,2991.93 C4754.7,3006.17 4764.96,3022.05 4791.77,3022.05 C4826.2,3022.05 4862.27,2993.92 4862.27,2964.79 C4862.27,2945.26 4845.72,2934.34 4825.2,2934.34"/>
<path class="Note" d="M4566.9,1049.02 C4566.9,1063.25 4577.16,1079.14 4603.97,1079.14 C4638.4,1079.14 4674.48,1051 4674.48,1021.88 C4674.48,1002.35 4657.93,991.425 4637.4,991.425 C4605.3,991.425 4566.9,1018.57 4566.9,1049.02"/>
<path class="Note" d="M4267.15,966.341 C4267.15,980.574 4277.41,996.462 4304.22,996.462 C4338.65,996.462 4374.72,968.327 4374.72,939.199 C4374.72,919.67 4358.17,908.747 4337.65,908.747 C4305.55,908.747 4267.15,935.889 4267.15,966.341"/>
<path class="Note" d="M3967.4,1049.02 C3967.4,1063.25 3977.66,1079.14 4004.47,1079.14 C4038.89,1079.14 4074.97,1051 4074.97,1021.88 C4074.97,1002.35 4058.42,991.425 4037.9,991.425 C4005.79,991.425 3967.4,1018.57 3967.4,1049.02"/>
<path class="Note" d="M5368.92,2867.92 C5368.92,2882.15 5379.18,2898.04 5405.99,2898.04 C5440.41,2898.04 5476.49,2869.9 5476.49,2840.77 C5476.49,2821.25 5459.94,2810.32 5439.42,2810.32 C5407.31,2810.32 5368.92,2837.46 5368.92,2867.92"/>
<path class="Note" d="M3549.42,1049.02 C3549.42,1063.25 3559.68,1079.14 3586.49,1079.14 C3620.91,1079.14 3656.99,1051 3656.99,1021.88 C3656.99,1002.35 3640.44,991.425 3619.92,991.425 C3587.81,991.425 3549.42,1018.57 3549.42,1049.02"/>
<path class="Note" d="M5699.58,2950.59 C5699.58,2964.83 5709.84,2980.71 5736.65,2980.71 C5771.07,2980.71 5807.15,2952.58 5807.15,2923.45 C5807.15,2903.92 5790.6,2893 5770.08,2893 C5737.97,2893 5699.58,2920.14 5699.58,2950.59"/>
<path class="Note" d="M3249.67,966.341 C3249.67,980.574 3259.93,996.462 3286.74,996.462 C3321.16,996.462 3357.24,968.327 3357.24,939.199 C3357.24,919.67 3340.69,908.747 3320.17,908.747 C3288.06,908.747 3249.67,935.889 3249.67,966.341"/>
<path class="Note" d="M4436.78,1849.02 C4425.86,1849.02 4423.54,1840.08 4423.54,1837.1 C4423.54,1820.88 4479.15,1792.41 4494.71,1792.41 C4502.65,1792.41 4507.95,1797.05 4507.95,1804.33 C4507.95,1820.88 4452.01,1849.02 4436.78,1849.02 M4482.46,1776.86 C4450.35,1776.86 4411.96,1803.67 4411.96,1834.45 C4411.96,1848.68 4422.22,1864.57 4449.03,1864.57 C4483.45,1864.57 4519.53,1836.44 4519.53,1807.31 C4519.53,1787.78 4502.98,1776.86 4482.46,1776.86"/>
<path class="Clef" d="M909.689,2880.86 C903.069,2882.19 896.78,2882.85 890.491,2882.85 C843.158,2882.85 802.776,2849.75 802.776,2799.77 C802.776,2759.38 831.242,2723.31 860.37,2698.15 C865.997,2693.18 871.293,2688.55 876.258,2683.59 C879.237,2701.46 881.554,2717.02 883.871,2730.59 C853.75,2739.52 833.228,2771.3 833.228,2802.41 C833.228,2825.58 851.433,2857.36 877.913,2857.36 C880.561,2857.36 883.54,2856.04 883.54,2853.06 C883.54,2850.08 880.23,2848.42 876.258,2845.78 C863.349,2837.83 856.067,2829.23 856.067,2813.01 C856.067,2792.82 870.962,2776.6 890.491,2771.96 L909.689,2880.86 M880.561,2540.59 C883.54,2527.35 898.766,2492.6 915.978,2492.6 C920.943,2492.6 928.887,2508.82 928.887,2531.66 C928.887,2566.08 903.4,2591.9 880.561,2614.41 C878.575,2601.17 876.92,2588.26 876.92,2574.36 C876.92,2562.11 877.913,2550.85 880.561,2540.59 M956.691,2819.63 C956.691,2843.13 947.092,2867.29 923.591,2876.89 C916.64,2837.17 907.703,2784.54 905.386,2769.98 C935.176,2769.98 956.691,2790.17 956.691,2819.63 M811.051,2982.48 C811.051,3004.32 827.932,3033.12 872.617,3033.12 C888.174,3033.12 901.745,3029.15 913.661,3021.87 C931.535,3009.29 936.169,2987.44 936.169,2966.59 C936.169,2953.68 934.183,2938.79 930.873,2919.92 C929.88,2913.3 927.894,2903.37 925.908,2890.46 C958.346,2879.87 982.509,2846.11 982.509,2812.01 C982.509,2762.03 947.092,2728.27 898.766,2728.27 C895.456,2708.41 892.146,2688.88 889.167,2670.35 C924.253,2633.6 948.416,2592.23 948.416,2539.6 C948.416,2509.48 939.148,2484.99 933.852,2473.07 C925.908,2456.19 916.309,2444.6 910.351,2444.6 C908.034,2444.6 897.773,2448.58 886.85,2461.48 C865.666,2486.64 859.708,2529.01 859.708,2556.81 C859.708,2574.69 861.363,2590.91 866.99,2627.98 C866.659,2628.31 849.447,2645.85 842.496,2651.48 C812.375,2679.61 770.669,2719.66 770.669,2785.86 C770.669,2847.76 824.622,2896.42 886.188,2896.42 C895.787,2896.42 904.724,2895.43 912.337,2894.1 C918.626,2925.88 922.267,2949.05 922.267,2966.59 C922.267,3001.01 904.724,3019.22 871.293,3019.22 C863.349,3019.22 856.398,3017.56 855.736,3017.56 C855.405,3017.23 854.743,3016.9 854.743,3016.57 C854.743,3015.91 855.405,3015.58 856.398,3015.25 C871.955,3012.93 887.512,2999.69 887.512,2978.51 C887.512,2960.63 873.941,2941.77 849.116,2941.77 C825.946,2941.77 811.051,2960.63 811.051,2982.48"/>
<path class="Clef" d="M909.689,2012.75 C903.069,2014.08 896.78,2014.74 890.491,2014.74 C843.158,2014.74 802.776,1981.64 802.776,1931.66 C802.776,1891.27 831.242,1855.2 860.37,1830.04 C865.997,1825.07 871.293,1820.44 876.258,1815.48 C879.237,1833.35 881.554,1848.91 883.871,1862.48 C853.75,1871.41 833.228,1903.19 833.228,1934.3 C833.228,1957.47 851.433,1989.25 877.913,1989.25 C880.561,1989.25 883.54,1987.93 883.54,1984.95 C883.54,1981.97 880.23,1980.31 876.258,1977.67 C863.349,1969.72 856.067,1961.12 856.067,1944.9 C856.067,1924.71 870.962,1908.49 890.491,1903.85 L909.689,2012.75 M880.561,1672.48 C883.54,1659.24 898.766,1624.49 915.978,1624.49 C920.943,1624.49 928.887,1640.71 928.887,1663.55 C928.887,1697.97 903.4,1723.79 880.561,1746.3 C878.575,1733.06 876.92,1720.15 876.92,1706.25 C876.92,1694 877.913,1682.74 880.561,1672.48 M956.691,1951.52 C956.691,1975.02 947.092,1999.18 923.591,2008.78 C916.64,1969.06 907.703,1916.43 905.386,1901.87 C935.176,1901.87 956.691,1922.06 956.691,1951.52 M811.051,2114.37 C811.051,2136.21 827.932,2165.01 872.617,2165.01 C888.174,2165.01 901.745,2161.04 913.661,2153.76 C931.535,2141.18 936.169,2119.33 936.169,2098.48 C936.169,2085.57 934.183,2070.68 930.873,2051.81 C929.88,2045.19 927.894,2035.26 925.908,2022.35 C958.346,2011.76 982.509,1978 982.509,1943.9 C982.509,1893.92 947.092,1860.16 898.766,1860.16 C895.456,1840.3 892.146,1820.77 889.167,1802.24 C924.253,1765.49 948.416,1724.12 948.416,1671.49 C948.416,1641.37 939.148,1616.88 933.852,1604.96 C925.908,1588.08 916.309,1576.49 910.351,1576.49 C908.034,1576.49 897.773,1580.47 886.85,1593.37 C865.666,1618.53 859.708,1660.9 859.708,1688.7 C859.708,1706.58 861.363,1722.8 866.99,1759.87 C866.659,1760.2 849.447,1777.74 842.496,1783.37 C812.375,1811.5 770.669,1851.55 770.669,1917.75 C770.669,1979.65 824.622,2028.31 886.188,2028.31 C895.787,2028.31 904.724,2027.32 912.337,2025.99 C918.626,2057.77 922.267,2080.94 922.267,2098.48 C922.267,2132.9 904.724,2151.11 871.293,2151.11 C863.349,2151.11 856.398,2149.45 855.736,2149.45 C855.405,2149.12 854.743,2148.79 854.743,2148.46 C854.743,2147.8 855.405,2147.47 856.398,2147.14 C871.955,2144.82 887.512,2131.58 887.512,2110.4 C887.512,2092.52 873.941,2073.66 849.116,2073.66 C825.946,2073.66 811.051,2092.52 811.051,2114.37"/>
<path class="Clef" d="M909.689,1144.64 C903.069,1145.97 896.78,1146.63 890.491,1146.63 C843.158,1146.63 802.776,1113.53 802.776,1063.55 C802.776,1023.16 831.242,987.085 860.37,961.929 C865.997,956.964 871.293,952.33 876.258,947.365 C879.237,965.239 881.554,980.796 883.871,994.367 C853.75,1003.3 833.228,1035.08 833.228,1066.19 C833.228,1089.36 851.433,1121.14 877.913,1121.14 C880.561,1121.14 883.54,1119.82 883.54,1116.84 C883.54,1113.86 880.23,1112.2 876.258,1109.56 C863.349,1101.61 856.067,1093.01 856.067,1076.79 C856.067,1056.6 870.962,1040.38 890.491,1035.74 L909.689,1144.64 M880.561,804.373 C883.54,791.133 898.766,756.378 915.978,756.378 C920.943,756.378 928.887,772.597 928.887,795.436 C928.887,829.86 903.4,855.678 880.561,878.186 C878.575,864.946 876.92,852.037 876.92,838.135 C876.92,825.888 877.913,814.634 880.561,804.373 M956.691,1083.41 C956.691,1106.91 947.092,1131.07 923.591,1140.67 C916.64,1100.95 907.703,1048.32 905.386,1033.76 C935.176,1033.76 956.691,1053.95 956.691,1083.41 M811.051,1246.26 C811.051,1268.1 827.932,1296.9 872.617,1296.9 C888.174,1296.9 901.745,1292.93 913.661,1285.65 C931.535,1273.07 936.169,1251.22 936.169,1230.37 C936.169,1217.46 934.183,1202.57 930.873,1183.7 C929.88,1177.08 927.894,1167.15 925.908,1154.24 C958.346,1143.65 982.509,1109.89 982.509,1075.79 C982.509,1025.81 947.092,992.05 898.766,992.05 C895.456,972.19 892.146,952.661 889.167,934.125 C924.253,897.384 948.416,856.009 948.416,803.38 C948.416,773.259 939.148,748.765 933.852,736.849 C925.908,719.968 916.309,708.383 910.351,708.383 C908.034,708.383 897.773,712.355 886.85,725.264 C865.666,750.42 859.708,792.788 859.708,820.592 C859.708,838.466 861.363,854.685 866.99,891.757 C866.659,892.088 849.447,909.631 842.496,915.258 C812.375,943.393 770.669,983.444 770.669,1049.64 C770.669,1111.54 824.622,1160.2 886.188,1160.2 C895.787,1160.2 904.724,1159.21 912.337,1157.88 C918.626,1189.66 922.267,1212.83 922.267,1230.37 C922.267,1264.79 904.724,1283 871.293,1283 C863.349,1283 856.398,1281.34 855.736,1281.34 C855.405,1281.01 854.743,1280.68 854.743,1280.35 C854.743,1279.69 855.405,1279.36 856.398,1279.03 C871.955,1276.71 887.512,1263.47 887.512,1242.29 C887.512,1224.41 873.941,1205.55 849.116,1205.55 C825.946,1205.55 811.051,1224.41 811.051,1246.26"/>
<path class="KeySig" d="M1088.05,2716.76 C1088.05,2742.91 1074.48,2756.81 1055.28,2772.04 L1056.27,2707.49 C1056.93,2704.51 1061.9,2694.91 1075.14,2694.91 C1087.06,2694.91 1088.05,2706.17 1088.05,2713.12 L1088.05,2716.76 M1084.08,2678.69 C1067.53,2678.69 1057.93,2688.95 1056.27,2690.94 L1057.6,2584.69 C1057.6,2582.04 1055.61,2580.06 1052.96,2580.06 L1048.99,2580.06 C1046.34,2580.06 1044.36,2582.04 1044.36,2584.69 L1046.01,2783.62 C1046.01,2786.27 1048,2788.25 1050.65,2788.25 C1051.31,2788.25 1052.63,2787.92 1053.29,2787.59 C1081.76,2773.36 1111.55,2746.22 1111.55,2712.12 C1111.55,2694.91 1103.61,2678.69 1084.08,2678.69"/>
<path class="KeySig" d="M1088.05,1848.65 C1088.05,1874.8 1074.48,1888.7 1055.28,1903.93 L1056.27,1839.38 C1056.93,1836.4 1061.9,1826.8 1075.14,1826.8 C1087.06,1826.8 1088.05,1838.06 1088.05,1845.01 L1088.05,1848.65 M1084.08,1810.58 C1067.53,1810.58 1057.93,1820.84 1056.27,1822.83 L1057.6,1716.58 C1057.6,1713.93 1055.61,1711.95 1052.96,1711.95 L1048.99,1711.95 C1046.34,1711.95 1044.36,1713.93 1044.36,1716.58 L1046.01,1915.51 C1046.01,1918.16 1048,1920.14 1050.65,1920.14 C1051.31,1920.14 1052.63,1919.81 1053.29,1919.48 C1081.76,1905.25 1111.55,1878.11 1111.55,1844.01 C1111.55,1826.8 1103.61,1810.58 1084.08,1810.58"/>
<path class="KeySig" d="M1088.05,980.538 C1088.05,1006.69 1074.48,1020.59 1055.28,1035.82 L1056.27,971.27 C1056.93,968.291 1061.9,958.692 1075.14,958.692 C1087.06,958.692 1088.05,969.946 1088.05,976.897 L1088.05,980.538 M1084.08,942.473 C1067.53,942.473 1057.93,952.734 1056.27,954.72 L1057.6,848.469 C1057.6,845.821 1055.61,843.835 1052.96,843.835 L1048.99,843.835 C1046.34,843.835 1044.36,845.821 1044.36,848.469 L1046.01,1047.4 C1046.01,1050.05 1048,1052.03 1050.65,1052.03 C1051.31,1052.03 1052.63,1051.7 1053.29,1051.37 C1081.76,1037.14 1111.55,1010 1111.55,975.904 C1111.55,958.692 1103.61,942.473 1084.08,942.473"/>
<path class="TimeSig" d="M1268.31,979.772 C1257.38,979.772 1248.45,964.877 1248.45,946.341 C1248.45,927.805 1257.38,912.579 1268.31,912.579 C1279.23,912.579 1288.5,927.805 1288.5,946.341 C1288.5,964.877 1279.23,979.772 1268.31,979.772 M1280.55,897.022 C1260.36,897.022 1253.08,902.98 1248.45,907.945 C1247.45,900.994 1246.79,895.698 1246.79,890.402 C1246.79,871.535 1253.41,847.041 1276.58,847.041 C1284.86,847.041 1289.82,849.689 1293.13,853.33 C1286.18,856.309 1280.55,865.246 1280.55,872.859 C1280.55,884.775 1289.82,894.043 1301.74,894.043 C1313.65,894.043 1323.25,884.775 1323.25,872.859 L1323.25,871.866 C1323.25,868.887 1322.59,863.922 1321.27,861.274 C1316.96,849.358 1303.06,831.815 1269.96,831.815 C1240.17,831.815 1218.66,860.281 1212.04,875.507 C1208.73,883.451 1203.76,899.67 1203.76,918.206 C1203.76,938.397 1209.39,961.236 1228.92,978.448 C1248.11,993.012 1260.36,993.674 1271.95,993.674 C1283.53,993.674 1326.89,980.103 1326.89,941.707 C1326.89,909.269 1301.41,897.022 1280.55,897.022"/>
<path class="TimeSig" d="M1258.39,1118.01 L1258.39,1142.5 L1230.92,1142.5 C1228.6,1142.5 1226.29,1144.49 1226.29,1147.13 L1226.29,1153.42 C1226.29,1156.07 1228.6,1158.06 1230.92,1158.06 L1331.21,1158.06 C1333.86,1158.06 1335.85,1156.07 1335.85,1153.42 L1335.85,1147.13 C1335.85,1144.49 1333.86,1142.5 1331.21,1142.5 L1301.42,1142.5 L1301.42,1118.01 L1331.21,1118.01 C1333.86,1118.01 1335.85,1115.69 1335.85,1113.04 L1335.85,1106.75 C1335.85,1104.44 1333.86,1102.12 1331.21,1102.12 L1301.42,1102.12 L1301.42,1049.49 C1301.42,1047.5 1300.43,1045.85 1299.11,1045.19 L1295.13,1043.2 C1294.47,1042.87 1294.14,1042.87 1293.48,1042.87 C1292.16,1042.87 1290.83,1042.87 1289.84,1043.86 L1259.72,1071.34 C1258.72,1072.33 1258.39,1073.65 1258.39,1074.98 L1258.39,1102.12 L1220,1102.12 C1220,1102.12 1257.07,1062.4 1296.13,1010.1 C1297.45,1008.45 1297.78,1006.79 1297.78,1005.47 C1297.78,1003.81 1297.12,1002.49 1296.79,1002.16 L1289.51,994.874 C1288.51,994.212 1287.52,993.55 1286.2,993.55 C1284.21,993.55 1239.53,993.55 1236.88,993.55 C1234.56,993.55 1232.91,995.536 1232.58,997.522 C1232.58,997.522 1230.92,1022.02 1222.31,1048.83 C1213.71,1075.64 1203.78,1092.19 1195.17,1104.44 C1195.17,1104.44 1194.18,1106.09 1194.18,1108.08 C1194.18,1108.74 1194.18,1109.4 1194.51,1110.06 C1195.5,1112.38 1197.82,1116.02 1197.82,1116.02 C1197.82,1116.02 1198.48,1118.01 1201.46,1118.01 L1258.39,1118.01 "/>
<path class="Beam" fill-rule="evenodd" d="M3861.93,2523.22 L4311.08,2564.56 L4311.08,2606.07 L3861.93,2564.73 L3861.93,2523.22 "/>
<path class="Beam" fill-rule="evenodd" d="M7800.92,745.72 L8208.85,766.389 L8208.85,807.781 L7800.92,787.112 L7800.92,745.72 "/>
<path class="Beam" fill-rule="evenodd" d="M1836.57,2481.95 L2285.72,2502.61 L2285.72,2544 L1836.57,2523.33 L1836.57,2481.95 "/>
<path class="Beam" fill-rule="evenodd" d="M1600.3,787.085 L1808.41,787.085 L1808.41,828.424 L1600.3,828.424 L1600.3,787.085 "/>
<path class="Beam" fill-rule="evenodd" d="M4907.88,2006.49 L5136.56,1985.82 L5136.56,2027.33 L4907.88,2048 L4907.88,2006.49 "/>
<path class="NoteDot" d="M5015.48,952.439 C5015.48,961.707 5022.77,968.989 5032.03,968.989 C5041.3,968.989 5048.58,961.707 5048.58,952.439 C5048.58,943.171 5041.3,935.889 5032.03,935.889 C5022.77,935.889 5015.48,943.171 5015.48,952.439"/>
<path class="NoteDot" d="M3492.39,2771.34 C3492.39,2780.61 3499.67,2787.89 3508.94,2787.89 C3518.2,2787.89 3525.49,2780.61 3525.49,2771.34 C3525.49,2762.07 3518.2,2754.79 3508.94,2754.79 C3499.67,2754.79 3492.39,2762.07 3492.39,2771.34"/>
<path class="NoteDot" d="M1467.02,2771.34 C1467.02,2780.61 1474.31,2787.89 1483.57,2787.89 C1492.84,2787.89 1500.12,2780.61 1500.12,2771.34 C1500.12,2762.07 1492.84,2754.79 1483.57,2754.79 C1474.31,2754.79 1467.02,2762.07 1467.02,2771.34"/>
<path class="NoteDot" d="M8720.62,1737.87 C8720.62,1747.14 8727.91,1754.42 8737.17,1754.42 C8746.44,1754.42 8753.72,1747.14 8753.72,1737.87 C8753.72,1728.6 8746.44,1721.32 8737.17,1721.32 C8727.91,1721.32 8720.62,1728.6 8720.62,1737.87"/>
<path class="NoteDot" d="M7470.55,1035.12 C7470.55,1044.38 7477.83,1051.67 7487.1,1051.67 C7496.37,1051.67 7503.65,1044.38 7503.65,1035.12 C7503.65,1025.85 7496.37,1018.57 7487.1,1018.57 C7477.83,1018.57 7470.55,1025.85 7470.55,1035.12"/>
</svg>
