<?xml version="1.0" encoding="utf-8"?>
<svg xmlns="http://www.w3.org/2000/svg" xmlns:svg="http://www.w3.org/2000/svg" version="1.1" viewBox="0 0 681 187">
	<title>The musical score for Air LXVI</title>
	<path d="M652.85 165.15c0 .742.582 1.324 1.324 1.324s1.325-.582 1.325-1.325c0-.742-.582-1.324-1.325-1.324-.742 0-1.324.582-1.324 1.324M68.07 145.293c0 .742.583 1.325 1.325 1.325s1.325-.583 1.325-1.325-.583-1.324-1.325-1.324-1.325.582-1.325 1.324m282.01-49.64c0 .741.584 1.325 1.326 1.325s1.325-.584 1.325-1.325c0-.742-.583-1.325-1.325-1.325s-1.325.583-1.325 1.325m56.165 8.262 14.154-1.655v3.332l-14.154 1.655zM51.37 32.793v1.96h-2.2a.38.38 0 0 0-.371.37v.504a.38.38 0 0 0 .371.372h8.03c.211 0 .37-.16.37-.372v-.503a.36.36 0 0 0-.37-.37h-2.386v-1.961H57.2c.212 0 .37-.186.37-.398v-.504a.38.38 0 0 0-.37-.37h-2.385v-4.214c0-.16-.079-.291-.185-.344l-.318-.16c-.053-.026-.08-.026-.132-.026-.107 0-.213 0-.293.08l-2.41 2.2a.4.4 0 0 0-.106.29v2.174h-3.075s2.969-3.18 6.095-7.367a.58.58 0 0 0 .133-.37.44.44 0 0 0-.08-.266l-.583-.583c-.08-.053-.158-.106-.265-.106h-3.948c-.185 0-.318.159-.344.318 0 0-.133 1.961-.822 4.107-.69 2.147-1.484 3.472-2.173 4.452 0 0-.079.132-.079.292 0 .052 0 .105.027.158.079.186.265.477.265.477s.052.16.291.16zm.793-11.067c-.874 0-1.59-1.192-1.59-2.676s.716-2.703 1.59-2.703 1.616 1.219 1.616 2.703-.742 2.676-1.616 2.676m.98-6.625c-1.616 0-2.199.477-2.57.875-.08-.557-.132-.98-.132-1.405 0-1.51.53-3.47 2.385-3.47.662 0 1.06.211 1.325.503-.557.238-1.007.954-1.007 1.563 0 .954.742 1.696 1.695 1.696s1.723-.742 1.723-1.696v-.08c0-.238-.053-.635-.16-.847-.344-.954-1.456-2.359-4.106-2.359-2.385 0-4.108 2.28-4.638 3.498a9.4 9.4 0 0 0-.662 3.418c0 1.617.45 3.445 2.014 4.823 1.537 1.166 2.517 1.219 3.444 1.219.928 0 4.4-1.087 4.4-4.16 0-2.597-2.041-3.578-3.71-3.578m-15.412 135.75c0 2.094-1.086 3.207-2.623 4.426l.079-5.167c.053-.238.45-1.007 1.51-1.007.954 0 1.034.9 1.034 1.457zm-.318-3.047a2.98 2.98 0 0 0-2.226.98l.106-8.506a.36.36 0 0 0-.37-.37h-.319a.363.363 0 0 0-.371.37l.133 15.925c0 .212.159.372.37.372.054 0 .16-.027.212-.053 2.28-1.14 4.664-3.313 4.664-6.042 0-1.378-.636-2.676-2.2-2.676m-7.041 12.975c0 2.094-1.086 3.206-2.623 4.426l.079-5.168c.053-.239.45-1.007 1.51-1.007.955 0 1.034.901 1.034 1.458zm-.318-3.048a2.98 2.98 0 0 0-2.226.981l.106-8.506c0-.212-.159-.37-.371-.37h-.318a.36.36 0 0 0-.37.37l.131 15.926c0 .212.16.37.372.37a.6.6 0 0 0 .211-.053c2.28-1.139 4.664-3.311 4.664-6.041 0-1.378-.635-2.677-2.199-2.677M37.732 11.86c0 2.094-1.086 3.207-2.623 4.425l.079-5.167c.053-.238.45-1.007 1.51-1.007.954 0 1.034.901 1.034 1.458zm-.318-3.047a2.98 2.98 0 0 0-2.226.98l.106-8.506a.36.36 0 0 0-.37-.37h-.319a.363.363 0 0 0-.371.37l.133 15.926c0 .212.159.37.37.37a.6.6 0 0 0 .212-.052c2.28-1.14 4.664-3.312 4.664-6.042 0-1.378-.636-2.676-2.2-2.676m-7.041 12.975c0 2.094-1.086 3.207-2.623 4.426l.079-5.168c.053-.238.45-1.007 1.51-1.007.955 0 1.034.901 1.034 1.458zm-.318-3.047a2.98 2.98 0 0 0-2.226.98l.106-8.505a.363.363 0 0 0-.371-.371h-.318a.36.36 0 0 0-.37.37l.131 15.926c0 .212.16.37.372.37a.6.6 0 0 0 .211-.052c2.28-1.14 4.664-3.312 4.664-6.042 0-1.378-.635-2.676-2.199-2.676m7.678 62.615c0 2.094-1.086 3.207-2.623 4.426l.079-5.168c.053-.237.45-1.006 1.51-1.006.954 0 1.034.9 1.034 1.457zm-.318-3.047a2.98 2.98 0 0 0-2.226.98l.106-8.505a.36.36 0 0 0-.37-.371h-.319a.363.363 0 0 0-.371.37l.133 15.926c0 .212.159.371.37.371.054 0 .16-.026.212-.053 2.28-1.14 4.664-3.312 4.664-6.041 0-1.378-.636-2.677-2.2-2.677m-7.041 12.976c0 2.093-1.086 3.206-2.623 4.425l.079-5.167c.053-.239.45-1.007 1.51-1.007.955 0 1.034.901 1.034 1.457zm-.318-3.048a2.98 2.98 0 0 0-2.226.98l.106-8.505c0-.212-.159-.37-.371-.37h-.318a.36.36 0 0 0-.37.37l.131 15.925c0 .212.16.37.372.37a.6.6 0 0 0 .211-.052c2.28-1.14 4.664-3.312 4.664-6.042 0-1.377-.635-2.676-2.199-2.676m-13.96 85.681a7.7 7.7 0 0 1-1.538.16c-3.789 0-7.022-2.65-7.022-6.652 0-3.233 2.28-6.12 4.611-8.135.45-.398.875-.768 1.272-1.165.238 1.43.424 2.676.61 3.762-2.412.715-4.055 3.26-4.055 5.75 0 1.855 1.458 4.399 3.577 4.399.212 0 .451-.106.451-.344 0-.239-.265-.372-.583-.583-1.033-.637-1.616-1.325-1.616-2.624 0-1.616 1.192-2.914 2.755-3.286zm-2.332-27.24c.239-1.06 1.458-3.842 2.836-3.842.397 0 1.033 1.299 1.033 3.127 0 2.755-2.04 4.822-3.869 6.624-.159-1.06-.291-2.093-.291-3.206 0-.98.08-1.882.291-2.703m6.095 22.338c0 1.882-.768 3.816-2.65 4.584a882 882 0 0 1-1.457-8.558c2.385 0 4.107 1.616 4.107 3.974m-11.66 13.037c0 1.749 1.352 4.054 4.93 4.054 1.245 0 2.331-.318 3.285-.9 1.431-1.007 1.802-2.757 1.802-4.426 0-1.033-.159-2.225-.424-3.736-.08-.53-.238-1.325-.397-2.358 2.597-.848 4.53-3.55 4.53-6.28 0-4.002-2.834-6.704-6.703-6.704-.265-1.59-.53-3.154-.769-4.637 2.81-2.942 4.744-6.254 4.744-10.467 0-2.412-.742-4.372-1.166-5.326-.636-1.352-1.405-2.28-1.882-2.28-.185 0-1.007.319-1.881 1.352-1.696 2.014-2.173 5.406-2.173 7.631 0 1.432.133 2.73.583 5.698-.026.026-1.404 1.43-1.96 1.881-2.412 2.252-5.75 5.458-5.75 10.758 0 4.955 4.318 8.85 9.247 8.85.768 0 1.484-.079 2.093-.185.504 2.544.795 4.399.795 5.803 0 2.756-1.404 4.213-4.08 4.213-.636 0-1.193-.132-1.246-.132-.026-.027-.08-.053-.08-.08 0-.053.054-.079.133-.105 1.246-.186 2.49-1.246 2.49-2.942 0-1.431-1.085-2.94-3.073-2.94-1.855 0-3.047 1.509-3.047 3.258m7.896-147.128a7.7 7.7 0 0 1-1.537.16c-3.789 0-7.022-2.65-7.022-6.651 0-3.234 2.28-6.122 4.611-8.135.45-.398.875-.769 1.272-1.166.238 1.43.424 2.676.61 3.762-2.412.716-4.055 3.26-4.055 5.75 0 1.855 1.458 4.4 3.577 4.4.212 0 .451-.107.451-.345 0-.239-.265-.372-.583-.583-1.033-.636-1.616-1.325-1.616-2.623 0-1.617 1.192-2.915 2.755-3.287zm-2.332-27.24c.239-1.06 1.458-3.842 2.836-3.842.397 0 1.033 1.299 1.033 3.127 0 2.756-2.04 4.823-3.869 6.625-.159-1.06-.291-2.094-.291-3.207 0-.98.08-1.881.291-2.703m6.095 22.339c0 1.881-.768 3.815-2.65 4.584a882 882 0 0 1-1.457-8.559c2.385 0 4.107 1.616 4.107 3.975M8.196 43.06c0 1.748 1.352 4.054 4.93 4.054 1.245 0 2.331-.318 3.285-.901 1.431-1.007 1.802-2.756 1.802-4.425 0-1.034-.159-2.226-.424-3.737-.08-.53-.238-1.325-.397-2.358 2.597-.848 4.53-3.55 4.53-6.28 0-4.001-2.834-6.704-6.703-6.704-.265-1.59-.53-3.153-.769-4.637 2.81-2.942 4.744-6.254 4.744-10.467 0-2.411-.742-4.372-1.166-5.326C17.392.927 16.623 0 16.146 0c-.185 0-1.007.318-1.881 1.351-1.696 2.014-2.173 5.406-2.173 7.632 0 1.43.133 2.73.583 5.697-.026.026-1.404 1.43-1.96 1.881-2.412 2.253-5.75 5.459-5.75 10.758 0 4.956 4.318 8.851 9.247 8.851.768 0 1.484-.08 2.093-.186.504 2.545.795 4.4.795 5.804 0 2.755-1.404 4.213-4.08 4.213-.636 0-1.193-.133-1.246-.133-.026-.026-.08-.053-.08-.08 0-.052.054-.079.133-.105 1.246-.186 2.49-1.246 2.49-2.941 0-1.432-1.085-2.941-3.073-2.941-1.855 0-3.047 1.51-3.047 3.259m7.896 61.36a7.7 7.7 0 0 1-1.537.16c-3.789 0-7.022-2.65-7.022-6.65 0-3.234 2.28-6.122 4.611-8.136.45-.398.875-.769 1.272-1.166.238 1.43.424 2.677.61 3.763-2.412.715-4.055 3.259-4.055 5.75 0 1.854 1.458 4.398 3.577 4.398.212 0 .451-.105.451-.344 0-.238-.265-.371-.583-.583-1.033-.636-1.616-1.324-1.616-2.623 0-1.616 1.192-2.915 2.755-3.286zm-2.332-27.24c.239-1.06 1.458-3.842 2.836-3.842.397 0 1.033 1.298 1.033 3.127 0 2.755-2.04 4.822-3.869 6.624-.159-1.06-.291-2.093-.291-3.206 0-.98.08-1.882.291-2.703m6.095 22.338c0 1.881-.768 3.815-2.65 4.584a882 882 0 0 1-1.457-8.559c2.385 0 4.107 1.617 4.107 3.975m-11.66 13.037c0 1.748 1.352 4.054 4.93 4.054 1.245 0 2.331-.318 3.285-.9 1.431-1.008 1.802-2.757 1.802-4.426 0-1.034-.159-2.226-.424-3.736-.08-.53-.238-1.325-.397-2.359 2.597-.847 4.53-3.55 4.53-6.28 0-4.001-2.834-6.704-6.703-6.704-.265-1.59-.53-3.153-.769-4.637 2.81-2.942 4.744-6.253 4.744-10.467 0-2.411-.742-4.372-1.166-5.326-.636-1.351-1.405-2.279-1.882-2.279-.185 0-1.007.319-1.881 1.351-1.696 2.015-2.173 5.406-2.173 7.632 0 1.431.133 2.73.583 5.698-.026.026-1.404 1.43-1.96 1.88-2.412 2.253-5.75 5.459-5.75 10.759 0 4.955 4.318 8.85 9.247 8.85.768 0 1.484-.079 2.093-.185.504 2.544.795 4.399.795 5.803 0 2.755-1.404 4.213-4.08 4.213-.636 0-1.193-.133-1.246-.133-.026-.026-.08-.053-.08-.08 0-.052.054-.078.133-.105 1.246-.185 2.49-1.245 2.49-2.941 0-1.431-1.085-2.941-3.073-2.941-1.855 0-3.047 1.51-3.047 3.259m600.783-9.171c0 1.139.82 2.411 2.967 2.411 2.756 0 5.644-2.253 5.644-4.585 0-1.562-1.325-2.437-2.968-2.437-2.57 0-5.643 2.172-5.643 4.61m-48.272 62.878c0 1.14.822 2.411 2.968 2.411 2.755 0 5.644-2.251 5.644-4.583 0-1.564-1.325-2.438-2.968-2.438-2.57 0-5.644 2.173-5.644 4.61M575.27 25.126a.99.99 0 0 1-1.06-.954c0-1.298 4.452-3.577 5.698-3.577.636 0 1.06.37 1.06.954 0 1.325-4.478 3.577-5.698 3.577m3.657-5.777c-2.57 0-5.644 2.147-5.644 4.611 0 1.14.822 2.411 2.968 2.411 2.755 0 5.644-2.252 5.644-4.584 0-1.563-1.325-2.438-2.968-2.438m-35.46 150.223c0 1.139.822 2.411 2.968 2.411 2.756 0 5.644-2.253 5.644-4.584 0-1.563-1.325-2.438-2.967-2.438-2.57 0-5.644 2.173-5.644 4.61m58.868-145.61c0 1.138.821 2.41 2.968 2.41 2.755 0 5.644-2.252 5.644-4.584 0-1.563-1.325-2.438-2.968-2.438-2.57 0-5.644 2.173-5.644 4.611m-76.11 142.302c0 1.14.821 2.411 2.968 2.411 2.756 0 5.644-2.251 5.644-4.583 0-1.564-1.325-2.438-2.968-2.438-2.57 0-5.644 2.173-5.644 4.61M621.703 23.96c0 1.14.822 2.411 2.968 2.411 2.756 0 5.644-2.252 5.644-4.584 0-1.563-1.325-2.438-2.968-2.438-2.57 0-5.644 2.173-5.644 4.611m-112.72 138.993c0 1.139.822 2.411 2.968 2.411 2.756 0 5.644-2.252 5.644-4.584 0-1.563-1.324-2.438-2.968-2.438-2.57 0-5.644 2.173-5.644 4.61M641.072 20.652c0 1.14.821 2.411 2.968 2.411 2.755 0 5.643-2.252 5.643-4.584 0-1.563-1.324-2.438-2.967-2.438-2.57 0-5.644 2.173-5.644 4.61m19.368-3.309c0 1.14.822 2.412 2.968 2.412 2.755 0 5.644-2.253 5.644-4.584 0-1.564-1.325-2.438-2.968-2.438-2.57 0-5.644 2.173-5.644 4.61m-558.82 7.785a.99.99 0 0 1-1.06-.954c0-1.298 4.451-3.577 5.697-3.577.635 0 1.06.37 1.06.954 0 1.325-4.479 3.577-5.698 3.577m3.657-5.777c-2.57 0-5.644 2.147-5.644 4.611 0 1.14.821 2.411 2.968 2.411 2.755 0 5.644-2.252 5.644-4.584 0-1.563-1.325-2.438-2.968-2.438m375.709 146.913c0 1.14.821 2.411 2.968 2.411 2.756 0 5.644-2.251 5.644-4.583 0-1.564-1.325-2.438-2.967-2.438-2.571 0-5.645 2.173-5.645 4.61M418.773 27.27c0 1.139.821 2.41 2.968 2.41 2.756 0 5.644-2.252 5.644-4.583 0-1.564-1.325-2.438-2.968-2.438-2.57 0-5.644 2.173-5.644 4.61m44.97 142.303c0 1.139.822 2.41 2.968 2.41 2.756 0 5.645-2.252 5.645-4.583 0-1.563-1.325-2.438-2.969-2.438-2.57 0-5.644 2.173-5.644 4.61m117.99 4.476a.99.99 0 0 1-1.06-.954c0-1.298 4.451-3.577 5.697-3.577.635 0 1.06.37 1.06.954 0 1.325-4.479 3.577-5.697 3.577m3.656-5.777c-2.57 0-5.644 2.146-5.644 4.611 0 1.14.822 2.411 2.968 2.411 2.756 0 5.644-2.252 5.644-4.584 0-1.563-1.324-2.438-2.968-2.438m-138.887 4.611c0 1.14.821 2.411 2.968 2.411 2.756 0 5.644-2.252 5.644-4.584 0-1.563-1.325-2.438-2.968-2.438-2.57 0-5.644 2.173-5.644 4.611M70.8 27.27c0 1.139.821 2.41 2.967 2.41 2.756 0 5.644-2.252 5.644-4.583 0-1.564-1.325-2.438-2.967-2.438-2.57 0-5.644 2.173-5.644 4.61M429.26 172.882c0 1.14.821 2.411 2.967 2.411 2.756 0 5.644-2.252 5.644-4.584 0-1.563-1.325-2.438-2.967-2.438-2.571 0-5.644 2.173-5.644 4.611M56.157 90.147c0 1.14.821 2.411 2.967 2.411 2.756 0 5.644-2.252 5.644-4.584 0-1.563-1.325-2.437-2.967-2.437-2.57 0-5.644 2.172-5.644 4.61m355.862 76.115c0 1.14.822 2.411 2.968 2.411 2.755 0 5.644-2.251 5.644-4.583 0-1.564-1.325-2.438-2.968-2.438-2.57 0-5.644 2.173-5.644 4.61M76.394 96.766c0 1.14.821 2.411 2.967 2.411 2.756 0 5.644-2.253 5.644-4.584 0-1.563-1.325-2.438-2.967-2.438-2.57 0-5.644 2.173-5.644 4.61m318.383 62.878c0 1.14.821 2.412 2.968 2.412 2.756 0 5.644-2.252 5.644-4.584 0-1.564-1.325-2.438-2.967-2.438-2.57 0-5.645 2.173-5.645 4.61M96.631 103.385c0 1.139.821 2.411 2.967 2.411 2.756 0 5.644-2.253 5.644-4.585 0-1.562-1.325-2.437-2.967-2.437-2.57 0-5.644 2.172-5.644 4.61m20.237 0c0 1.14.821 2.412 2.968 2.412 2.755 0 5.643-2.253 5.643-4.585 0-1.562-1.325-2.437-2.967-2.437-2.57 0-5.644 2.172-5.644 4.61m11.817-79.424c0 1.14.821 2.411 2.967 2.411 2.756 0 5.644-2.252 5.644-4.584 0-1.563-1.325-2.438-2.967-2.438-2.57 0-5.644 2.173-5.644 4.611M366.78 156.334c0 1.14.82 2.411 2.967 2.411 2.756 0 5.644-2.252 5.644-4.584 0-1.563-1.325-2.438-2.968-2.438-2.57 0-5.643 2.173-5.643 4.61m-229.675-56.258c0 1.14.821 2.412 2.968 2.412 2.755 0 5.643-2.253 5.643-4.584 0-1.564-1.324-2.439-2.967-2.439-2.57 0-5.644 2.174-5.644 4.611m212.432 52.95c0 1.14.822 2.411 2.969 2.411 2.755 0 5.644-2.252 5.644-4.584 0-1.564-1.325-2.438-2.968-2.438-2.57 0-5.645 2.173-5.645 4.61M157.342 96.766c0 1.14.821 2.411 2.968 2.411 2.755 0 5.643-2.253 5.643-4.584 0-1.563-1.324-2.438-2.967-2.438-2.57 0-5.644 2.173-5.644 4.61m174.954 52.95c0 1.14.821 2.412 2.968 2.412 2.756 0 5.644-2.253 5.644-4.585 0-1.562-1.325-2.437-2.968-2.437-2.57 0-5.644 2.172-5.644 4.61M399.404 30.58c0 1.14.822 2.411 2.969 2.411 2.755 0 5.644-2.252 5.644-4.584 0-1.563-1.325-2.438-2.968-2.438-2.57 0-5.645 2.173-5.645 4.611m-84.35 119.137c0 1.139.822 2.411 2.968 2.411 2.756 0 5.644-2.253 5.644-4.585 0-1.562-1.325-2.437-2.968-2.437-2.57 0-5.643 2.172-5.643 4.61M187.043 93.457c0 1.14.821 2.412 2.968 2.412 2.756 0 5.644-2.252 5.644-4.584 0-1.564-1.325-2.438-2.967-2.438-2.57 0-5.645 2.173-5.645 4.61m110.77 52.95c0 1.14.822 2.412 2.968 2.412 2.755 0 5.644-2.253 5.644-4.584 0-1.564-1.325-2.439-2.968-2.439-2.57 0-5.644 2.174-5.644 4.611m-90.533-49.64c0 1.14.821 2.411 2.969 2.411 2.755 0 5.643-2.253 5.643-4.584 0-1.563-1.325-2.438-2.967-2.438-2.57 0-5.645 2.173-5.645 4.61m73.291 52.95c0 1.14.822 2.412 2.968 2.412 2.756 0 5.644-2.253 5.644-4.585 0-1.562-1.325-2.437-2.967-2.437-2.57 0-5.645 2.172-5.645 4.61m-53.054-49.64c0 1.14.822 2.412 2.968 2.412 2.756 0 5.644-2.253 5.644-4.584 0-1.564-1.324-2.439-2.967-2.439-2.57 0-5.645 2.174-5.645 4.611m20.237-3.31c0 1.14.822 2.412 2.968 2.412 2.756 0 5.644-2.253 5.644-4.584 0-1.563-1.324-2.438-2.967-2.438-2.57 0-5.645 2.173-5.645 4.61m-99.7-72.805c0 1.14.82 2.411 2.967 2.411 2.755 0 5.644-2.252 5.644-4.584 0-1.563-1.325-2.438-2.968-2.438-2.57 0-5.644 2.173-5.644 4.611m121.926 80.59a.99.99 0 0 1-1.06-.954c0-1.297 4.451-3.577 5.697-3.577.636 0 1.06.371 1.06.955 0 1.325-4.479 3.576-5.697 3.576m3.656-5.776c-2.57 0-5.644 2.146-5.644 4.61 0 1.14.822 2.412 2.968 2.412 2.756 0 5.645-2.253 5.645-4.585 0-1.562-1.325-2.437-2.969-2.437m-21.062 54.25c0 1.14.822 2.412 2.968 2.412 2.756 0 5.644-2.252 5.644-4.584 0-1.564-1.325-2.438-2.968-2.438-2.57 0-5.644 2.173-5.644 4.61M380.036 30.58c0 1.14.821 2.411 2.967 2.411 2.757 0 5.645-2.252 5.645-4.584 0-1.563-1.325-2.438-2.968-2.438-2.57 0-5.644 2.173-5.644 4.611M228.698 157.5a.99.99 0 0 1-1.06-.954c0-1.298 4.452-3.577 5.698-3.577.635 0 1.06.37 1.06.954 0 1.325-4.479 3.577-5.698 3.577m3.657-5.777c-2.57 0-5.644 2.147-5.644 4.61 0 1.14.821 2.412 2.968 2.412 2.755 0 5.643-2.252 5.643-4.584 0-1.563-1.324-2.438-2.967-2.438M360.667 27.27c0 1.139.822 2.41 2.968 2.41 2.756 0 5.645-2.252 5.645-4.583 0-1.564-1.325-2.438-2.969-2.438-2.57 0-5.644 2.173-5.644 4.61M209.47 156.335c0 1.14.821 2.411 2.967 2.411 2.756 0 5.644-2.252 5.644-4.584 0-1.563-1.325-2.437-2.968-2.437-2.57 0-5.643 2.172-5.643 4.61m100.329-55.093a.99.99 0 0 1-1.06-.953c0-1.299 4.452-3.578 5.697-3.578.636 0 1.06.37 1.06.954 0 1.325-4.478 3.577-5.697 3.577m3.657-5.777c-2.57 0-5.645 2.147-5.645 4.611 0 1.14.822 2.412 2.969 2.412 2.755 0 5.644-2.253 5.644-4.584 0-1.564-1.325-2.439-2.968-2.439m-121.229 60.87c0 1.14.823 2.411 2.969 2.411 2.755 0 5.644-2.252 5.644-4.584 0-1.563-1.325-2.438-2.968-2.438-2.57 0-5.645 2.173-5.645 4.61m147.927-55.092a.99.99 0 0 1-1.06-.953c0-1.299 4.452-3.578 5.698-3.578.635 0 1.06.37 1.06.954 0 1.325-4.479 3.577-5.698 3.577m3.657-5.777c-2.57 0-5.644 2.147-5.644 4.611 0 1.14.822 2.412 2.968 2.412 2.755 0 5.644-2.253 5.644-4.584 0-1.564-1.325-2.439-2.968-2.439m-176.39-74.813c0 1.14.822 2.411 2.968 2.411 2.756 0 5.644-2.252 5.644-4.584 0-1.563-1.325-2.438-2.967-2.438-2.571 0-5.644 2.173-5.644 4.61m7.564 129.066c0 1.139.821 2.411 2.968 2.411 2.756 0 5.644-2.253 5.644-4.585 0-1.562-1.325-2.437-2.967-2.437-2.57 0-5.645 2.172-5.645 4.61M544.449 27.27c0 1.139.821 2.41 2.968 2.41 2.755 0 5.644-2.252 5.644-4.583 0-1.564-1.325-2.438-2.968-2.438-2.57 0-5.644 2.173-5.644 4.61M341.3 23.96c0 1.14.821 2.411 2.968 2.411 2.756 0 5.644-2.252 5.644-4.584 0-1.563-1.325-2.438-2.968-2.438-2.57 0-5.644 2.173-5.644 4.611M186.79 17.341c0 1.14.821 2.412 2.968 2.412 2.756 0 5.644-2.253 5.644-4.584 0-1.564-1.325-2.438-2.968-2.438-2.57 0-5.644 2.173-5.644 4.61m-43.946 129.065c0 1.14.821 2.412 2.968 2.412 2.755 0 5.644-2.253 5.644-4.584 0-1.564-1.325-2.439-2.968-2.439-2.57 0-5.644 2.174-5.644 4.611m263.403-59.568c0 1.14.822 2.41 2.968 2.41 2.756 0 5.645-2.251 5.645-4.583 0-1.564-1.325-2.438-2.969-2.438-2.57 0-5.644 2.173-5.644 4.61m-280.644 56.26c0 1.139.821 2.411 2.967 2.411 2.756 0 5.644-2.252 5.644-4.584 0-1.563-1.325-2.438-2.967-2.438-2.571 0-5.644 2.173-5.644 4.61m391.78-101.423a.99.99 0 0 1-1.06-.954c0-1.299 4.452-3.577 5.698-3.577.636 0 1.06.37 1.06.953 0 1.325-4.478 3.578-5.698 3.578m3.657-5.777c-2.57 0-5.644 2.147-5.644 4.61 0 1.14.822 2.412 2.968 2.412 2.755 0 5.644-2.252 5.644-4.584 0-1.563-1.325-2.438-2.968-2.438M312.466 27.27c0 1.139.821 2.41 2.967 2.41 2.757 0 5.645-2.252 5.645-4.583 0-1.564-1.325-2.438-2.969-2.438-2.57 0-5.643 2.173-5.643 4.61M108.36 139.788c0 1.14.823 2.412 2.969 2.412 2.755 0 5.644-2.252 5.644-4.584 0-1.564-1.325-2.438-2.968-2.438-2.57 0-5.645 2.173-5.645 4.61M215.623 20.651c0 1.14.822 2.411 2.968 2.411 2.756 0 5.644-2.252 5.644-4.584 0-1.563-1.325-2.438-2.968-2.438-2.57 0-5.644 2.173-5.644 4.61M617.06 170.738a.99.99 0 0 1-1.06-.953c0-1.299 4.452-3.578 5.698-3.578.636 0 1.06.37 1.06.954 0 1.325-4.478 3.577-5.697 3.577m3.656-5.776c-2.57 0-5.643 2.146-5.643 4.61 0 1.14.82 2.412 2.967 2.412 2.756 0 5.644-2.253 5.644-4.584 0-1.563-1.325-2.438-2.968-2.438M91.12 146.406c0 1.14.821 2.412 2.968 2.412 2.756 0 5.644-2.253 5.644-4.584 0-1.564-1.325-2.439-2.967-2.439-2.57 0-5.645 2.174-5.645 4.611M293.097 30.58c0 1.14.822 2.411 2.968 2.411 2.756 0 5.644-2.252 5.644-4.584 0-1.563-1.324-2.438-2.968-2.438-2.57 0-5.644 2.173-5.644 4.611M78.013 143.097c0 1.139.822 2.411 2.968 2.411 2.755 0 5.644-2.252 5.644-4.584 0-1.563-1.325-2.438-2.968-2.438-2.57 0-5.644 2.173-5.644 4.61m371.711-61.711a.99.99 0 0 1-1.06-.954c0-1.299 4.452-3.577 5.698-3.577.635 0 1.06.37 1.06.953 0 1.325-4.478 3.578-5.698 3.578m3.657-5.777c-2.57 0-5.644 2.147-5.644 4.611 0 1.14.822 2.412 2.968 2.412 2.755 0 5.644-2.253 5.644-4.585 0-1.564-1.325-2.438-2.968-2.438m24.711 4.611c0 1.14.822 2.412 2.968 2.412 2.756 0 5.644-2.253 5.644-4.585 0-1.564-1.325-2.438-2.968-2.438-2.57 0-5.644 2.173-5.644 4.611m20.238 0c0 1.14.82 2.412 2.967 2.412 2.756 0 5.644-2.253 5.644-4.585 0-1.564-1.325-2.438-2.968-2.438-2.57 0-5.643 2.173-5.643 4.611m-2.303-39.712c0 1.14.822 2.41 2.969 2.41 2.755 0 5.643-2.251 5.643-4.583 0-1.563-1.324-2.438-2.967-2.438-2.57 0-5.645 2.173-5.645 4.61m-439.87 105.9c0 1.14.821 2.412 2.967 2.412 2.756 0 5.644-2.253 5.644-4.584 0-1.564-1.325-2.439-2.967-2.439-2.57 0-5.644 2.174-5.644 4.611m462.41-62.878c0 1.14.82 2.412 2.967 2.412 2.756 0 5.644-2.253 5.644-4.585 0-1.563-1.325-2.437-2.968-2.437-2.57 0-5.643 2.172-5.643 4.61m124.355 87.21a.99.99 0 0 1-1.06-.954c0-1.299 4.452-3.578 5.697-3.578.636 0 1.06.37 1.06.954 0 1.325-4.478 3.577-5.697 3.577m3.657-5.776c-2.57 0-5.645 2.146-5.645 4.61 0 1.14.822 2.412 2.969 2.412 2.755 0 5.644-2.253 5.644-4.584 0-1.563-1.325-2.438-2.968-2.438m-226.84-81.433c0 1.14.821 2.412 2.968 2.412 2.755 0 5.643-2.253 5.643-4.585 0-1.563-1.324-2.437-2.967-2.437-2.57 0-5.644 2.172-5.644 4.61M234.992 27.27c0 1.139.821 2.41 2.967 2.41 2.757 0 5.644-2.252 5.644-4.583 0-1.564-1.325-2.438-2.967-2.438-2.57 0-5.644 2.173-5.644 4.61m303.812 59.569c0 1.14.821 2.41 2.967 2.41 2.756 0 5.644-2.251 5.644-4.583 0-1.564-1.325-2.438-2.968-2.438-2.57 0-5.643 2.173-5.643 4.61M254.36 33.89c0 1.139.822 2.41 2.968 2.41 2.756 0 5.644-2.252 5.644-4.584 0-1.563-1.325-2.438-2.968-2.438-2.57 0-5.644 2.173-5.644 4.612m405.212 46.33c0 1.14.821 2.412 2.967 2.412 2.757 0 5.644-2.253 5.644-4.585 0-1.564-1.325-2.438-2.967-2.438-2.57 0-5.644 2.173-5.644 4.611M273.729 33.89c0 1.139.821 2.41 2.967 2.41 2.757 0 5.645-2.252 5.645-4.584 0-1.563-1.325-2.438-2.968-2.438-2.57 0-5.644 2.173-5.644 4.612m294.777 56.258c0 1.14.82 2.411 2.967 2.411 2.756 0 5.644-2.252 5.644-4.584 0-1.563-1.325-2.437-2.968-2.437-2.57 0-5.643 2.172-5.643 4.61m62.698 14.403a.99.99 0 0 1-1.06-.954c0-1.297 4.451-3.577 5.697-3.577.636 0 1.06.371 1.06.955 0 1.325-4.478 3.576-5.697 3.576m3.656-5.776c-2.57 0-5.643 2.146-5.643 4.61 0 1.14.821 2.412 2.967 2.412 2.756 0 5.644-2.253 5.644-4.585 0-1.562-1.325-2.437-2.968-2.437m-46.117-2.008c0 1.14.82 2.411 2.967 2.411 2.756 0 5.644-2.253 5.644-4.584 0-1.563-1.325-2.438-2.968-2.438-2.57 0-5.643 2.173-5.643 4.61M438.14 23.96c0 1.14.822 2.411 2.969 2.411 2.755 0 5.643-2.252 5.643-4.584 0-1.563-1.324-2.438-2.967-2.438-2.57 0-5.645 2.173-5.645 4.611m30.821 4.475a.99.99 0 0 1-1.06-.953c0-1.299 4.452-3.578 5.697-3.578.636 0 1.06.372 1.06.954 0 1.325-4.478 3.577-5.697 3.577m3.657-5.776c-2.57 0-5.645 2.147-5.645 4.61 0 1.14.822 2.412 2.969 2.412 2.755 0 5.644-2.253 5.644-4.584 0-1.564-1.325-2.438-2.968-2.438M78.013 165.123a.35.35 0 0 0 .345.344c.132 0 .291-.105.317-.212 0-.026.239-.953.265-1.033.027-.106.265-1.113 1.22-2.677 1.033-1.722 2.623-2.967 3.948-4.822 1.298-1.855 2.093-3.604 2.093-5.935 0-2.412-.556-4.426-1.961-6.996-.08-.186-.239-.292-.397-.292-.053 0-.107 0-.133.027-.132.052-.185.159-.185.317 0 .08.027.213.08.32 1.06 2.463 1.484 3.867 1.484 5.775 0 2.2-.769 3.34-1.246 4.16-1.723 2.942-4.505 4.373-5.618 4.744-.185.08-.212.212-.212.291zm538.908-86.017v22.107h.663V79.106ZM281.671 9.61v22.107h.662V9.61Zm286.834 80.536v20.399h.662V90.146Zm-93.588-85.5v20.452h.662V4.646ZM301.04 6.3v22.106h.662V6.301ZM262.303 9.61v22.107h.662V9.61Zm276.5 77.227v22.053h.662V86.837ZM56.156 146.405v22.054h.662v-22.054Zm462.41-62.878v22.054h.662V83.527Zm118.592-4.421v22.107h.662V79.106ZM498.33 80.218v22.053h.662V80.218ZM78.013 143.096v22.027h.662v-22.027zm400.079-62.878v22.053h.662V80.218ZM242.935 4.646v20.452h.662V4.646Zm204.802 75.572v22.053h.662V80.218ZM91.119 146.405v22.054h.662v-22.054Zm17.242-6.619v22.054h.662v-22.054ZM320.408 4.647v20.452h.662V4.646Zm-194.806 138.45v22.053h.662v-22.053ZM215.623 20.65v20.399h.662v-20.4Zm-72.78 125.755v22.054h.663v-22.054Zm263.405-59.568v18.705h.662V86.837Zm-64.95-62.878v18.744h.663V23.96ZM186.79 17.34v22.054h.662V17.34ZM368.61 4.646v20.452h.662V4.646ZM174.986 149.714v22.054h.663v-22.054zm17.242 6.62v22.052h.662v-22.053ZM346.11 75.796v22.106h.662V75.797Zm-136.64 80.536v22.053h.661v-22.053zm106.284-80.536v22.106h.662V75.797Zm-89.043 80.536v22.053h.662v-22.053ZM387.978 6.301v22.106h.663V6.301ZM252.573 153.024v22.053h.662v-22.053ZM167.421 20.65v20.399h.662v-20.4Zm108.513 58.456v22.107h.662V79.106ZM148.053 23.959v18.744h.662V23.96Zm107.644 50.183v20.452h.662V74.142Zm24.874 75.572v22.054h.663v-22.054ZM235.46 75.797v22.106h.662V75.797Zm62.353 70.608v22.054h.662v-22.054Zm-82.59-72.263v20.452h.662V74.142Zm99.831 75.572v22.054h.662v-22.054Zm-128.01-56.258V112.2h.662V93.456ZM407.347 6.3v22.106h.662V6.301Zm-75.051 143.413v22.054h.662v-22.054zm17.242 3.31v22.053h.662v-22.053ZM165.284 74.142v20.452h.662V74.142Zm201.495 82.191v22.053h.662v-22.053ZM145.047 75.797v22.106h.662V75.797ZM128.684 23.96v18.744h.662V23.96Zm-3.874 55.147v22.107h.662V79.106Zm269.968 80.537v20.398h.662v-20.398ZM104.573 79.106v22.107h.662V79.106Zm315.388 64.533v20.451h.662V143.64ZM84.336 74.142v20.452h.662V74.142Zm352.867 74.46v22.107h.662v-22.107zM56.156 90.146v20.399h.662V90.146Zm398.289 58.456v22.107h.662v-22.107zm17.241-3.308V167.4h.662v-22.106ZM426.716 4.646v20.452h.661V4.646Zm62.211 138.993v20.451h.663V143.64ZM99.632 23.959v18.744h.662V23.96ZM660.44 17.34v22.054h.662V17.34ZM508.983 162.952v18.744h.662v-18.744ZM641.07 20.65v20.399h.663v-20.4ZM534.167 143.639v20.451h.662V143.64zm87.536-119.68v18.744h.662V23.96ZM551.41 145.294V167.4h.662v-22.106Zm50.926-121.335v18.744h.662V23.96ZM568.65 143.64v20.451h.662V143.64zm4.632-119.68v18.744h.662V23.96Zm-135.14 0v18.744h.662V23.96Zm149.546 124.643v22.107h.662v-22.107zM78.74 4.646v20.452h.662V4.646Zm473.65 0v20.452h.662V4.646Zm70.623 140.648V167.4h.662v-22.106ZM523.338 16.229v22.106H524V16.229Zm125.539 129.065V167.4h.662v-22.106ZM503.97 16.229v22.106h.662V16.229ZM659.57 80.218v22.053h.662V80.218Zm-62.887-6.076v20.452h.662V74.142ZM419.74 83.527v20.438h.662V83.527Zm-296.321 57.928v1.059h12.974v-1.06zm-17.241 0v1.059h12.973v-1.06zm-30.347 0v1.059h12.973v-1.06zm497.867 28.352 2.358-.477v4.373l-2.358.503zm4.107-.821c.16-.027.291-.212.291-.37v-1.564a.36.36 0 0 0-.37-.372h-.053l-.875.186v-3.948h-.742v4.107l-2.358.476v-3.736h-.742v3.896l-1.034.212c-.159.026-.29.212-.29.37v1.538c0 .212.158.37.37.37h.079l.875-.185v4.372l-1.033.212c-.16.027-.292.212-.292.371v1.537c0 .212.159.371.37.371h.08l.875-.185v3.948h.742v-4.108l2.358-.477v3.737h.742v-3.895l1.007-.186c.16-.026.291-.212.291-.37v-1.564a.36.36 0 0 0-.37-.372h-.053l-.875.186v-4.372zm75.72-91.84 2.357-.478v4.373l-2.357.503zm4.107-.821c.159-.026.291-.212.291-.372V74.39a.36.36 0 0 0-.37-.372h-.053l-.875.186v-3.948h-.743v4.107l-2.357.477v-3.736h-.742v3.895l-1.034.212c-.16.027-.291.212-.291.37v1.538c0 .212.158.37.37.37h.08l.875-.184v4.371l-1.034.213c-.16.026-.291.212-.291.37v1.537c0 .212.158.37.37.37h.08l.875-.184v3.948h.742v-4.107l2.358-.477v3.736h.742v-3.895l1.007-.186c.159-.026.291-.212.291-.37v-1.564a.36.36 0 0 0-.37-.371h-.053l-.875.185V76.51zm-488.693 70.318 2.359-.478v4.373l-2.359.504zm4.107-.82c.16-.027.291-.213.291-.371v-1.564a.36.36 0 0 0-.37-.371h-.053l-.874.185v-3.948h-.742v4.108l-2.359.476V140.6h-.742v3.895l-1.033.212c-.159.027-.292.213-.292.371v1.537c0 .212.16.37.37.37h.081l.874-.184v4.372l-1.033.212c-.159.026-.292.212-.292.37v1.538c0 .212.16.371.37.371h.081l.874-.186v3.949h.742v-4.108l2.359-.477v3.737h.742v-3.896l1.006-.185c.16-.027.292-.213.292-.371v-1.563a.36.36 0 0 0-.371-.372h-.053l-.874.186v-4.372zm88.899-45.51 2.358-.476v4.372l-2.358.504zm4.106-.82c.16-.027.292-.213.292-.371v-1.564a.36.36 0 0 0-.37-.371h-.054l-.875.186V93.42h-.741v4.108l-2.358.476V94.27h-.743v3.895l-1.033.213c-.16.026-.291.212-.291.37v1.537c0 .212.159.371.37.371h.08l.874-.185v4.372l-1.033.212c-.16.026-.291.212-.291.37v1.538c0 .212.159.371.37.371h.08l.874-.186v3.949h.743v-4.108l2.358-.477v3.737h.741v-3.896l1.007-.185c.16-.027.292-.212.292-.37v-1.564a.36.36 0 0 0-.37-.372h-.054l-.875.186v-4.372zm-19.579 54.993v-4.345l3.074-.875v4.372zm3.657-7.42a.3.3 0 0 0-.212-.079c-.026 0-.08.027-.106.027l-3.339.927V143.3h-.742v13.116c0 .212.16.345.372.345h.105l3.34-.928v4.638h.714v-13.117c0-.106-.052-.239-.132-.291m62.513-43.398a.17.17 0 0 0-.105.012.17.17 0 0 0-.106-.008l-.001.02-.02.002a.165.165 0 0 0 .006.195l-.001.016c2.957 3.419 8.803 5.092 14.641 5.092s11.684-1.673 14.64-5.092a.165.165 0 0 0-.227-.238c-2.84 2.248-8.628 3.412-14.413 3.412s-11.573-1.164-14.413-3.412zm1.218 1.178c3.192 1.724 8.19 2.564 13.195 2.564s10.003-.84 13.195-2.564c-3.092 2.532-8.14 3.821-13.195 3.821s-10.103-1.29-13.195-3.82m-1.32-1.048c5.806 4.596 23.225 4.596 29.031 0-5.806 6.713-23.225 6.713-29.032 0m307.254 69.33a.2.2 0 0 0-.045.022.2.2 0 0 0-.048.012l-.002.01-.02.01a.165.165 0 0 0-.009.195l-.002.016c2.502 3.336 7.457 4.975 12.402 4.975s9.9-1.639 12.401-4.975a.165.165 0 0 0-.244-.22c-2.393 2.196-7.275 3.334-12.157 3.334-4.883 0-9.765-1.138-12.158-3.335a.2.2 0 0 0-.046-.016.2.2 0 0 0-.057-.022l-.015-.005zm23.308 1.277c-2.616 2.408-6.818 3.633-11.032 3.633s-8.416-1.225-11.032-3.633c2.71 1.636 6.868 2.433 11.032 2.433s8.322-.797 11.032-2.433m-23.301-1.111c4.907 4.505 19.63 4.505 24.538 0-4.907 6.545-19.631 6.545-24.538 0M206.159 9.246v27.203h1.19V9.246Zm-44.781 138.993v27.202h1.19V148.24Zm518.43-69.497v27.203H681V78.742Zm-120.767 0v27.203h1.19V78.742ZM331.834 9.246v27.203h1.191V9.246Zm-60.727 138.993v27.202h1.191V148.24Zm126.87-52.586c0-.768-.61-1.405-1.38-1.405-.767 0-1.377.637-1.377 1.405 0 .769.61 1.404 1.378 1.404s1.378-.635 1.378-1.404m0-6.619c0-.768-.61-1.404-1.378-1.404s-1.378.636-1.378 1.404c0 .769.61 1.404 1.378 1.404s1.378-.635 1.378-1.404m-6.395-10.292v27.203h1.19V78.742Zm-6.09 0v27.203h3.64V78.742Zm-.178 69.497v27.202h1.191V148.24zm.178-69.497v27.203h3.64V78.742Zm-3.64 0v27.203h1.19V78.742Zm-2.448 16.911c0-.768-.609-1.405-1.377-1.405-.769 0-1.378.637-1.378 1.405 0 .769.61 1.404 1.378 1.404s1.377-.635 1.377-1.404m0-6.619c0-.768-.609-1.404-1.377-1.404-.769 0-1.378.636-1.378 1.404 0 .769.61 1.404 1.378 1.404s1.377-.635 1.377-1.404m120.115 59.205v27.202h1.192V148.24Zm-201.17-69.497v27.203h1.19V78.742Zm-120.769 0v27.203h1.191V78.742ZM90.167 9.246v27.203h1.191V9.246Zm589.642 0v27.203H681V9.246Zm-74.201 138.993v27.202h1.191V148.24ZM563.818 9.246v27.203h1.19V9.246ZM438.272 78.742v27.203h1.192V78.742ZM677.36 148.24v27.202H681V148.24zm-3.64 0v27.202h1.191V148.24ZM457.51 9.246v27.203h1.192V9.246ZM0 174.713v.728h681v-.728zm0-6.618v.728h681v-.728zm0-6.619v.728h681v-.728zm0-6.619v.728h681v-.728zm0-6.619v.728h681v-.728zm0-43.021v.728h681v-.728zm0-6.618v.727h681V98.6zm0-6.62v.729h681v-.728zm0-6.618v.728h681v-.728zm0-6.619v.728h681v-.728Zm0-43.021v.727h681v-.727zm0-6.619v.728h681v-.728zm0-6.619v.728h681v-.728zm0-6.618v.727h681v-.727Zm0-6.619v.728h681v-.728Z"/>
</svg>
