<?xml version="1.0" encoding="UTF-8" standalone="no"?>
<svg
   width="681"
   height="186.10622"
   version="1.2"
   id="svg252"
   xmlns="http://www.w3.org/2000/svg"
   xmlns:svg="http://www.w3.org/2000/svg"
   xmlns:rdf="http://www.w3.org/1999/02/22-rdf-syntax-ns#"
   xmlns:cc="http://creativecommons.org/ns#"
   xmlns:dc="http://purl.org/dc/elements/1.1/">
  <defs
     id="defs252" />
  <title
     id="title1">air_XXI</title>
  <desc
     id="desc1">Generated by MuseScore Studio 4.7.3</desc>
  <path
     id="path252"
     class="NoteDot"
     d="m 383.87446,75.797186 c 0,0.741307 0.5828,1.324906 1.3249,1.324906 0.74211,0 1.32491,-0.583599 1.32491,-1.324906 0,-0.742107 -0.5828,-1.324906 -1.32491,-1.324906 -0.7421,0 -1.3249,0.582799 -1.3249,1.324906 M 639.13699,178.38653 c 0,0.74211 0.5828,1.32491 1.32491,1.32491 0.74211,0 1.3249,-0.5828 1.3249,-1.32491 0,-0.74211 -0.58279,-1.3249 -1.3249,-1.3249 -0.74211,0 -1.32491,0.58279 -1.32491,1.3249 M 374.74101,145.2935 c 0,0.74131 0.5836,1.32491 1.32491,1.32491 0.74211,0 1.3249,-0.5836 1.3249,-1.32491 0,-0.7421 -0.58279,-1.3249 -1.3249,-1.3249 -0.74131,0 -1.32491,0.5828 -1.32491,1.3249 M 357.07934,26.156845 c 0,0.741307 0.5836,1.324906 1.3249,1.324906 0.74211,0 1.32491,-0.583599 1.32491,-1.324906 0,-0.742108 -0.5828,-1.324906 -1.32491,-1.324906 -0.7413,0 -1.3249,0.582798 -1.3249,1.324906 M 436.143,75.797186 c 0,0.741307 0.58279,1.324906 1.3249,1.324906 0.74211,0 1.32491,-0.583599 1.32491,-1.324906 0,-0.742107 -0.5828,-1.324906 -1.32491,-1.324906 -0.74211,0 -1.3249,0.582799 -1.3249,1.324906 M 311.01664,145.2935 c 0,0.74131 0.5828,1.32491 1.32491,1.32491 0.7421,0 1.3249,-0.5836 1.3249,-1.32491 0,-0.7421 -0.5828,-1.3249 -1.3249,-1.3249 -0.74211,0 -1.32491,0.5828 -1.32491,1.3249 M 220.5692,95.653163 c 0,0.741306 0.5828,1.324906 1.3249,1.324906 0.74211,0 1.32491,-0.5836 1.32491,-1.324906 0,-0.742108 -0.5828,-1.324906 -1.32491,-1.324906 -0.7421,0 -1.3249,0.582798 -1.3249,1.324906 M 410.06917,26.156845 c 0,0.741307 0.5828,1.324906 1.3249,1.324906 0.74211,0 1.32491,-0.583599 1.32491,-1.324906 0,-0.742108 -0.5828,-1.324906 -1.32491,-1.324906 -0.7421,0 -1.3249,0.582798 -1.3249,1.324906 m 133.05978,69.496318 c 0,0.741306 0.5836,1.324906 1.3249,1.324906 0.74211,0 1.32491,-0.5836 1.32491,-1.324906 0,-0.742108 -0.5828,-1.324906 -1.32491,-1.324906 -0.7413,0 -1.3249,0.582798 -1.3249,1.324906 M 168.30066,75.797186 c 0,0.741307 0.5828,1.324906 1.32491,1.324906 0.7421,0 1.3249,-0.583599 1.3249,-1.324906 0,-0.742107 -0.5828,-1.324906 -1.3249,-1.324906 -0.74211,0 -1.32491,0.582799 -1.32491,1.324906 m 418.16432,0 c 0,0.741307 0.5836,1.324906 1.3249,1.324906 0.74211,0 1.32491,-0.583599 1.32491,-1.324906 0,-0.742107 -0.5828,-1.324906 -1.32491,-1.324906 -0.7413,0 -1.3249,0.582799 -1.3249,1.324906 M 128.88971,26.156845 c 0,0.741307 0.5828,1.324906 1.32491,1.324906 0.74211,0 1.3249,-0.583599 1.3249,-1.324906 0,-0.742108 -0.58279,-1.324906 -1.3249,-1.324906 -0.74211,0 -1.32491,0.582798 -1.32491,1.324906 m 509.84461,49.640341 c 0,0.741307 0.5828,1.324906 1.3249,1.324906 0.74131,0 1.32491,-0.583599 1.32491,-1.324906 0,-0.742107 -0.5836,-1.324906 -1.32491,-1.324906 -0.7421,0 -1.3249,0.582799 -1.3249,1.324906 M 237.8274,145.2935 c 0,0.74131 0.5828,1.32491 1.3249,1.32491 0.74211,0 1.32491,-0.5836 1.32491,-1.32491 0,-0.7421 -0.5828,-1.3249 -1.32491,-1.3249 -0.7421,0 -1.3249,0.5828 -1.3249,1.3249 m 210.10366,0 c 0,0.74131 0.58279,1.32491 1.3249,1.32491 0.74131,0 1.32491,-0.5836 1.32491,-1.32491 0,-0.7421 -0.5836,-1.3249 -1.32491,-1.3249 -0.74211,0 -1.3249,0.5828 -1.3249,1.3249 m -273.82803,0 c 0,0.74131 0.58279,1.32491 1.3249,1.32491 0.74211,0 1.32491,-0.5836 1.32491,-1.32491 0,-0.7421 -0.5828,-1.3249 -1.32491,-1.3249 -0.74211,0 -1.3249,0.5828 -1.3249,1.3249 M 585.26896,26.156845 c 0,0.741307 0.5836,1.324906 1.32491,1.324906 0.7421,0 1.3249,-0.583599 1.3249,-1.324906 0,-0.742108 -0.5828,-1.324906 -1.3249,-1.324906 -0.74131,0 -1.32491,0.582798 -1.32491,1.324906 M 123.34352,151.91163 c 0,0.74211 0.5828,1.32491 1.32491,1.32491 0.7421,0 1.3249,-0.5828 1.3249,-1.32491 0,-0.74211 -0.5828,-1.32491 -1.3249,-1.32491 -0.74211,0 -1.32491,0.5828 -1.32491,1.32491 M 638.25879,26.156845 c 0,0.741307 0.5828,1.324906 1.32491,1.324906 0.74211,0 1.3249,-0.583599 1.3249,-1.324906 0,-0.742108 -0.58279,-1.324906 -1.3249,-1.324906 -0.74211,0 -1.32491,0.582798 -1.32491,1.324906 m -456.37925,0 c 0,0.741307 0.5828,1.324906 1.32491,1.324906 0.74211,0 1.32491,-0.583599 1.32491,-1.324906 0,-0.742108 -0.5828,-1.324906 -1.32491,-1.324906 -0.74211,0 -1.32491,0.582798 -1.32491,1.324906 M 511.65543,165.14948 c 0,0.74211 0.5828,1.32491 1.3249,1.32491 0.74211,0 1.32491,-0.5828 1.32491,-1.32491 0,-0.74211 -0.5828,-1.32491 -1.32491,-1.32491 -0.7421,0 -1.3249,0.5828 -1.3249,1.32491 M 313.07004,9.5958411 325.77073,7.9411898 v 3.3373222 l -12.70069,1.654651 V 9.5958411 m 228.18963,0 12.70068,-1.6546513 v 3.3373222 l -12.70068,1.654651 V 9.5958411 M 79.720896,9.6027258 97.581105,7.9480745 V 11.271627 L 79.720896,12.926278 V 9.6027258 M 52.349381,32.792582 v 1.96054 h -2.199104 c -0.185727,0 -0.371454,0.159309 -0.371454,0.370654 v 0.503544 c 0,0.212145 0.185727,0.371454 0.371454,0.371454 h 8.02869 c 0.212145,0 0.370653,-0.159309 0.370653,-0.371454 v -0.503544 c 0,-0.211345 -0.158508,-0.370654 -0.370653,-0.370654 h -2.384831 v -1.96054 h 2.384831 c 0.212145,0 0.370653,-0.185727 0.370653,-0.397872 v -0.503544 c 0,-0.184927 -0.158508,-0.370654 -0.370653,-0.370654 h -2.384831 v -4.213281 c 0,-0.159309 -0.07925,-0.291399 -0.185727,-0.344235 l -0.317817,-0.159309 c -0.05284,-0.02642 -0.07925,-0.02642 -0.132891,-0.02642 -0.105672,0 -0.211344,0 -0.291399,0.07925 l -2.411249,2.199904 c -0.07925,0.07925 -0.105672,0.184927 -0.105672,0.2914 v 2.172685 h -3.074102 c 0,0 2.967629,-3.179774 6.094567,-7.366637 0.106473,-0.13209 0.132891,-0.264981 0.132891,-0.370653 0,-0.132891 -0.05284,-0.238563 -0.08006,-0.264981 l -0.582798,-0.583279 c -0.07925,-0.053 -0.158509,-0.105993 -0.264981,-0.105993 -0.158509,0 -3.736155,0 -3.9483,0 -0.184926,0 -0.317817,0.158989 -0.344235,0.317978 0,0 -0.132091,1.961181 -0.821362,4.107448 -0.689271,2.146268 -1.484215,3.471174 -2.172686,4.451844 0,0 -0.08005,0.13209 -0.08005,0.291399 0,0.05284 0,0.105673 0.02722,0.158509 0.07926,0.185727 0.264982,0.477126 0.264982,0.477126 0,0 0.05284,0.159309 0.291399,0.159309 h 4.557516 m 0.793342,-11.066607 c -0.874197,0 -1.589887,-1.192415 -1.589887,-2.67631 0,-1.483894 0.71569,-2.702808 1.589887,-2.702808 0.874198,0 1.616306,1.218914 1.616306,2.702808 0,1.483895 -0.742108,2.67631 -1.616306,2.67631 m 0.980671,-6.624529 c -1.616305,0 -2.199904,0.476966 -2.570558,0.874437 -0.07925,-0.55646 -0.13209,-0.98043 -0.13209,-1.4044 0,-1.510393 0.529962,-3.471253 2.384831,-3.471253 0.662052,0 1.059924,0.211985 1.324906,0.503464 -0.557181,0.238483 -1.007089,0.953932 -1.007089,1.563389 0,0.953932 0.742107,1.69588 1.695559,1.69588 0.954253,0 1.722778,-0.741948 1.722778,-1.69588 v -0.07949 c 0,-0.238483 -0.05364,-0.635955 -0.159309,-0.84794 -0.344235,-0.953932 -1.456996,-2.3583327 -4.106808,-2.3583327 -2.38483,0 -4.107608,2.2788377 -4.637571,3.4977517 -0.264981,0.635955 -0.662052,1.934363 -0.662052,3.418257 0,1.616385 0.449907,3.444755 2.013376,4.822658 1.537051,1.165917 2.517722,1.218913 3.444756,1.218913 0.927834,0 4.399007,-1.086423 4.399007,-4.160204 0,-2.596816 -2.040595,-3.577246 -3.709736,-3.577246 m -17.929059,71.97225 2.358413,-0.477126 v 4.371789 l -2.358413,0.503545 v -4.398208 m 4.107609,-0.822162 c 0.159308,-0.02642 0.291399,-0.211344 0.291399,-0.370653 V 84.31741 c 0,-0.212145 -0.159309,-0.370654 -0.370654,-0.370654 h -0.05364 l -0.874198,0.184927 v -3.947499 h -0.742107 v 4.106808 l -2.358413,0.477126 v -3.736155 h -0.741307 v 3.894663 l -1.033507,0.212145 c -0.159308,0.02642 -0.291399,0.212145 -0.291399,0.371454 v 1.536251 c 0,0.212145 0.158509,0.371454 0.370654,0.371454 h 0.07925 l 0.874998,-0.185727 v 4.37259 l -1.033507,0.211344 c -0.159308,0.02722 -0.291399,0.212145 -0.291399,0.371454 v 1.537051 c 0,0.211344 0.158509,0.370653 0.370654,0.370653 h 0.07925 l 0.874998,-0.185727 v 3.9483 h 0.741307 V 93.75106 l 2.358413,-0.477126 v 3.736154 h 0.742107 v -3.895461 l 1.0071,-0.184927 c 0.159308,-0.02642 0.291399,-0.212145 0.291399,-0.371454 v -1.563469 c 0,-0.211344 -0.159309,-0.370653 -0.370654,-0.370653 h -0.05364 l -0.874198,0.185727 v -4.37259 l 1.007089,-0.185727 m -11.361369,-9.106226 2.358413,-0.477126 v 4.372589 l -2.358413,0.503545 v -4.399008 m 4.107609,-0.821362 c 0.159309,-0.02642 0.291399,-0.212145 0.291399,-0.371454 v -1.562668 c 0,-0.212145 -0.159309,-0.371454 -0.370653,-0.371454 h -0.05364 l -0.874198,0.185727 v -3.9483 h -0.742107 v 4.106808 l -2.358413,0.477126 v -3.736154 h -0.741307 v 3.895463 l -1.033506,0.212145 c -0.159309,0.02642 -0.2914,0.211345 -0.2914,0.370654 v 1.537051 c 0,0.212145 0.158509,0.370653 0.370654,0.370653 h 0.07925 l 0.874998,-0.184926 v 4.371789 l -1.033506,0.212145 c -0.159309,0.02642 -0.2914,0.212145 -0.2914,0.370654 v 1.53705 c 0,0.212146 0.158509,0.370654 0.370654,0.370654 h 0.07925 l 0.874998,-0.184927 v 3.9483 h 0.741307 v -4.107608 l 2.358413,-0.477127 v 3.736155 h 0.742107 v -3.894663 l 1.007089,-0.185727 c 0.159309,-0.02642 0.291399,-0.212145 0.291399,-0.370653 v -1.56347 c 0,-0.212145 -0.159309,-0.371453 -0.370653,-0.371453 h -0.05364 l -0.874198,0.185726 v -4.371789 l 1.007089,-0.185727 m 3.146151,-58.746968 2.358413,-0.476966 v 4.37219 l -2.358413,0.503464 v -4.398688 m 4.107609,-0.821441 c 0.159308,-0.0265 0.291399,-0.211985 0.291399,-0.370974 v -1.563389 c 0,-0.211985 -0.159309,-0.370974 -0.370654,-0.370974 h -0.05364 l -0.874198,0.185487 v -3.948219 h -0.742107 v 4.107208 l -2.358413,0.476966 v -3.736235 h -0.741307 v 3.895224 l -1.033507,0.211985 c -0.159308,0.0265 -0.291399,0.211985 -0.291399,0.370973 v 1.536891 c 0,0.211985 0.158509,0.370974 0.370654,0.370974 h 0.07925 l 0.874998,-0.185487 v 4.372189 l -1.033507,0.211985 c -0.159308,0.0265 -0.291399,0.211985 -0.291399,0.370974 v 1.537211 c 0,0.211345 0.158509,0.370653 0.370654,0.370653 H 34.578 l 0.874998,-0.185727 v 3.9483 h 0.741307 v -4.106808 l 2.358413,-0.477126 v 3.736154 h 0.742107 v -3.895463 l 1.007089,-0.184926 c 0.159308,-0.02642 0.291399,-0.212306 0.291399,-0.371294 V 21.4987 c 0,-0.211985 -0.159309,-0.370974 -0.370654,-0.370974 h -0.05364 l -0.874198,0.185487 v -4.37219 L 40.30191,16.755537 M 28.940575,7.64899 31.298988,7.1720239 v 4.3721891 l -2.358413,0.503465 V 7.64899 m 4.107609,-0.8214417 c 0.159309,-0.026498 0.291399,-0.2119849 0.291399,-0.3709736 v -1.563389 c 0,-0.2119849 -0.159309,-0.3709736 -0.370653,-0.3709736 H 32.91529 L 32.041095,4.7076989 V 0.75947929 H 31.298988 V 4.8666876 L 28.940575,5.3436537 V 1.6074191 h -0.741307 v 3.8952233 l -1.033506,0.211985 c -0.159309,0.026498 -0.2914,0.2119849 -0.2914,0.3709736 v 1.5368909 c 0,0.2119849 0.158509,0.3709736 0.370654,0.3709736 h 0.07925 l 0.874998,-0.1854868 v 4.3721893 l -1.033506,0.211985 c -0.159309,0.0265 -0.2914,0.211985 -0.2914,0.370974 v 1.536891 c 0,0.211985 0.158509,0.370973 0.370654,0.370973 h 0.07925 l 0.874998,-0.185487 v 3.94822 h 0.741307 V 14.326516 L 31.29898,13.84955 v 3.736234 h 0.742107 v -3.895223 l 1.007089,-0.185487 c 0.159309,-0.0265 0.291399,-0.211985 0.291399,-0.370974 v -1.563389 c 0,-0.211984 -0.159309,-0.370973 -0.370653,-0.370973 h -0.05364 l -0.874198,0.185487 V 7.0130351 l 1.007089,-0.1854868 m 3.146151,149.7424617 2.358413,-0.47712 v 4.37179 l -2.358413,0.50354 v -4.39821 m 4.107609,-0.82216 c 0.159308,-0.0264 0.291399,-0.21134 0.291399,-0.37065 v -1.56347 c 0,-0.21215 -0.159309,-0.37065 -0.370654,-0.37065 h -0.05364 L 39.29484,153.628 v -3.9475 h -0.742107 v 4.10681 l -2.358413,0.47713 v -3.73616 h -0.741307 v 3.89467 l -1.033507,0.21214 c -0.159308,0.0264 -0.291399,0.21215 -0.291399,0.37146 v 1.53625 c 0,0.21214 0.158509,0.37145 0.370654,0.37145 h 0.07925 l 0.874998,-0.18573 v 4.37259 l -1.033507,0.21135 c -0.159308,0.0272 -0.291399,0.21214 -0.291399,0.37145 v 1.53705 c 0,0.21135 0.158509,0.37066 0.370654,0.37066 h 0.07925 l 0.874998,-0.18573 v 3.9483 h 0.741307 v -4.10681 l 2.358413,-0.47713 v 3.73616 h 0.742107 v -3.89547 l 1.007089,-0.18492 c 0.159308,-0.0264 0.291399,-0.21215 0.291399,-0.37146 v -1.56346 c 0,-0.21135 -0.159309,-0.37066 -0.370654,-0.37066 h -0.05364 l -0.874198,0.18573 v -4.37259 l 1.007089,-0.18573 m -11.361369,-9.10622 2.358413,-0.47713 v 4.37259 l -2.358413,0.50354 v -4.399 m 4.107609,-0.82137 c 0.159309,-0.0264 0.291399,-0.21214 0.291399,-0.37065 v -1.56347 c 0,-0.21214 -0.159309,-0.37145 -0.370653,-0.37145 h -0.05364 l -0.874198,0.18572 v -3.94829 h -0.742107 v 4.1076 l -2.358413,0.47633 v -3.73616 h -0.741307 v 3.89547 l -1.033506,0.21214 c -0.159309,0.0264 -0.2914,0.21215 -0.2914,0.37066 v 1.53705 c 0,0.21214 0.158509,0.37065 0.370654,0.37065 h 0.07925 l 0.874998,-0.18493 v 4.37179 l -1.033506,0.21215 c -0.159309,0.0264 -0.2914,0.21214 -0.2914,0.37065 v 1.53705 c 0,0.21215 0.158509,0.37146 0.370654,0.37146 h 0.07925 l 0.874998,-0.18573 v 3.9483 h 0.741307 v -4.10761 l 2.358413,-0.47712 v 3.73695 h 0.742107 v -3.89546 l 1.007089,-0.18573 c 0.159309,-0.0264 0.291399,-0.21215 0.291399,-0.37065 v -1.56347 c 0,-0.21215 -0.159309,-0.37146 -0.370653,-0.37146 h -0.05364 l -0.874198,0.18573 v -4.37179 l 1.007089,-0.18573 M 16.09327,173.91708 c -0.529962,0.10647 -1.033427,0.1593 -1.536891,0.1593 -3.789231,0 -7.0220012,-2.64981 -7.0220012,-6.65094 0,-3.23341 2.2788382,-6.12099 4.6106722,-8.13517 0.450468,-0.39787 0.874438,-0.76852 1.27191,-1.16559 0.238483,1.43058 0.42397,2.67623 0.609457,3.76257 -2.411329,0.71489 -4.0542123,3.25903 -4.0542123,5.74953 0,1.85487 1.4573963,4.39901 3.5772463,4.39901 0.211985,0 0.450468,-0.10567 0.450468,-0.34424 0,-0.23856 -0.264982,-0.37145 -0.582959,-0.58279 -1.033427,-0.63644 -1.616385,-1.32491 -1.616385,-2.6234 0,-1.6163 1.192415,-2.91479 2.755804,-3.28625 l 1.536891,8.71797 m -2.331834,-27.24023 c 0.238483,-1.05992 1.457396,-3.84183 2.835298,-3.84183 0.397472,0 1.033427,1.29849 1.033427,3.12694 0,2.75549 -2.040355,4.8225 -3.868725,6.62453 -0.158989,-1.05992 -0.29148,-2.09343 -0.29148,-3.20619 0,-0.98067 0.0795,-1.88209 0.29148,-2.70345 m 6.094567,22.33847 c 0,1.88129 -0.768446,3.81541 -2.649812,4.58394 -0.556461,-3.17978 -1.27191,-7.39306 -1.457397,-8.55865 2.384831,0 4.107209,1.6163 4.107209,3.97471 M 8.1968718,182.05224 c 0,1.74839 1.351404,4.05397 4.9286502,4.05397 1.245411,0 2.331834,-0.31782 3.285766,-0.90062 1.430899,-1.00708 1.801872,-2.75628 1.801872,-4.42542 0,-1.03351 -0.158988,-2.22552 -0.423969,-3.73616 -0.07949,-0.52996 -0.238484,-1.3249 -0.397472,-2.35841 2.596815,-0.84778 4.531178,-3.55043 4.531178,-6.28029 0,-4.00114 -2.835299,-6.70379 -6.704024,-6.70379 -0.264981,-1.58988 -0.529962,-3.15335 -0.768445,-4.63677 2.8088,-2.94201 4.743163,-6.25387 4.743163,-10.46715 0,-2.41125 -0.741948,-4.37179 -1.165917,-5.32605 -0.635955,-1.35132 -1.404401,-2.27915 -1.881367,-2.27915 -0.185487,0 -1.006928,0.31861 -1.881366,1.35132 -1.69588,2.01418 -2.172846,5.4061 -2.172846,7.63162 0,1.43138 0.132491,2.72986 0.582959,5.69749 -0.0265,0.0264 -1.404401,1.43058 -1.960861,1.88129 -2.4113287,2.25194 -5.7500916,5.45813 -5.7500916,10.75776 0,4.95538 4.3191932,8.85085 9.2478436,8.85085 0.768445,0 1.483894,-0.0793 2.093351,-0.18573 0.503464,2.54414 0.794943,4.39901 0.794943,5.80317 0,2.75548 -1.4044,4.21328 -4.08071,4.21328 -0.635955,0 -1.192415,-0.13289 -1.245411,-0.13289 -0.0265,-0.0264 -0.07949,-0.0528 -0.07949,-0.0793 0,-0.0528 0.053,-0.0792 0.132491,-0.10567 1.245412,-0.18573 2.490823,-1.24565 2.490823,-2.94121 0,-1.43138 -1.086423,-2.94121 -3.073782,-2.94121 -1.8548679,0 -3.0472832,1.50983 -3.0472832,3.25903 m 7.8964392,-77.63148 c -0.529962,0.10647 -1.033427,0.15931 -1.536891,0.15931 -3.789231,0 -7.0220012,-2.64982 -7.0220012,-6.650951 0,-3.233411 2.2788382,-6.120985 4.6106722,-8.135163 0.450468,-0.397872 0.874438,-0.768525 1.27191,-1.165597 0.238483,1.430579 0.42397,2.67623 0.609457,3.762573 -2.411329,0.714889 -4.0542123,3.259028 -4.0542123,5.749531 0,1.854869 1.4573963,4.399007 3.5772463,4.399007 0.211985,0 0.450468,-0.10567 0.450468,-0.34423 0,-0.23857 -0.264982,-0.37146 -0.582959,-0.5828 -1.033427,-0.63644 -1.616385,-1.32491 -1.616385,-2.623396 0,-1.616306 1.192415,-2.914793 2.755804,-3.286247 l 1.536891,8.717963 M 13.761477,77.180532 c 0.238483,-1.059925 1.457396,-3.841827 2.835298,-3.841827 0.397472,0 1.033427,1.298488 1.033427,3.126938 0,2.755484 -2.040355,4.822498 -3.868725,6.62453 -0.158989,-1.059925 -0.29148,-2.093432 -0.29148,-3.206193 0,-0.98067 0.0795,-1.882086 0.29148,-2.703448 m 6.094567,22.338474 c 0,1.881284 -0.768446,3.815404 -2.649812,4.583934 -0.556461,-3.17977 -1.27191,-7.393055 -1.457397,-8.558652 2.384831,0 4.107209,1.616305 4.107209,3.974718 M 8.1968718,112.55592 c 0,1.7484 1.351404,4.05397 4.9286502,4.05397 1.245411,0 2.331834,-0.31782 3.285766,-0.90061 1.430899,-1.00709 1.801872,-2.75629 1.801872,-4.42543 0,-1.03351 -0.158988,-2.22552 -0.423969,-3.73615 -0.07949,-0.52997 -0.238484,-1.32491 -0.397472,-2.35842 2.596815,-0.84778 4.531178,-3.55042 4.531178,-6.280291 0,-4.001136 -2.835299,-6.703784 -6.704024,-6.703784 -0.264981,-1.589887 -0.529962,-3.153356 -0.768445,-4.63677 2.8088,-2.942012 4.743163,-6.253876 4.743163,-10.467157 0,-2.411249 -0.741948,-4.371789 -1.165917,-5.326042 -0.635955,-1.351324 -1.404401,-2.279158 -1.881367,-2.279158 -0.185487,0 -1.006928,0.318618 -1.881366,1.351324 -1.69588,2.014177 -2.172846,5.406096 -2.172846,7.631618 0,1.431379 0.132491,2.729866 0.582959,5.697495 -0.0265,0.02642 -1.404401,1.430579 -1.960861,1.881287 -2.4113287,2.25194 -5.7500916,5.458132 -5.7500916,10.757755 0,4.955393 4.3191932,8.850853 9.2478436,8.850853 0.768445,0 1.483894,-0.0793 2.093351,-0.18573 0.503464,2.54414 0.794943,4.39901 0.794943,5.80317 0,2.75548 -1.4044,4.21328 -4.08071,4.21328 -0.635955,0 -1.192415,-0.13289 -1.245411,-0.13289 -0.0265,-0.0264 -0.07949,-0.0528 -0.07949,-0.0793 0,-0.0528 0.053,-0.0793 0.132491,-0.10568 1.245412,-0.18572 2.490823,-1.24565 2.490823,-2.94121 0,-1.43138 -1.086423,-2.94121 -3.073782,-2.94121 -1.8548679,0 -3.0472832,1.50983 -3.0472832,3.25903 M 16.093311,34.924439 c -0.529962,0.106473 -1.033427,0.159309 -1.536891,0.159309 -3.789231,0 -7.0220012,-2.649811 -7.0220012,-6.650947 0,-3.233411 2.2788382,-6.121386 4.6106722,-8.135243 0.450468,-0.397471 0.874438,-0.768445 1.27191,-1.165917 0.238483,1.430899 0.42397,2.67631 0.609457,3.762733 -2.411329,0.715129 -4.0542123,3.259268 -4.0542123,5.749771 0,1.854869 1.4573963,4.399008 3.5772463,4.399008 0.211985,0 0.450468,-0.105672 0.450468,-0.344235 0,-0.238563 -0.264982,-0.371454 -0.582959,-0.582799 -1.033427,-0.636435 -1.616385,-1.324906 -1.616385,-2.623393 0,-1.616306 1.192415,-2.914793 2.755804,-3.286247 l 1.536891,8.71796 M 13.761477,7.6844542 c 0.238483,-1.0599247 1.457396,-3.8422271 2.835298,-3.8422271 0.397472,0 1.033427,1.2984078 1.033427,3.1267779 0,2.7558043 -2.040355,4.822658 -3.868725,6.62453 -0.158989,-1.059925 -0.29148,-2.093352 -0.29148,-3.206273 0,-0.9804301 0.0795,-1.8813661 0.29148,-2.7028078 m 6.094567,22.3382338 c 0,1.881286 -0.768446,3.815409 -2.649812,4.583934 -0.556461,-3.179774 -1.27191,-7.393055 -1.457397,-8.558652 2.384831,0 4.107209,1.616305 4.107209,3.974718 M 8.1968718,43.059602 c 0,1.748395 1.351404,4.053972 4.9286502,4.053972 1.245411,0 2.331834,-0.317818 3.285766,-0.900616 1.430899,-1.007089 1.801872,-2.756285 1.801872,-4.425426 0,-1.033507 -0.158988,-2.225522 -0.423969,-3.736154 -0.07949,-0.529963 -0.238484,-1.324906 -0.397472,-2.358413 2.596815,-0.84778 4.531178,-3.550428 4.531178,-6.280294 0,-4.001136 -2.835299,-6.703784 -6.704024,-6.703784 -0.264981,-1.589887 -0.529962,-3.153276 -0.768445,-4.637171 2.8088,-2.941291 4.743163,-6.253555 4.743163,-10.4667561 0,-2.4113288 -0.741948,-4.3721895 -1.165917,-5.3261218 C 17.391719,0.92743413 16.623273,0 16.146307,0 15.96082,0 15.139379,0.31797742 14.264941,1.351404 c -1.69588,2.013857 -2.172846,5.4056161 -2.172846,7.631458 0,1.430898 0.132491,2.729306 0.582959,5.697095 -0.0265,0.0265 -1.404401,1.430899 -1.960861,1.881367 -2.4113287,2.25234 -5.7500916,5.458612 -5.7500916,10.757915 0,4.955389 4.3191932,8.850852 9.2478436,8.850852 0.768445,0 1.483894,-0.07925 2.093351,-0.185727 0.503464,2.54414 0.794943,4.399008 0.794943,5.803168 0,2.755484 -1.4044,4.213281 -4.08071,4.213281 -0.635955,0 -1.192415,-0.132891 -1.245411,-0.132891 -0.0265,-0.02642 -0.07949,-0.05284 -0.07949,-0.07925 0,-0.05284 0.053,-0.07925 0.132491,-0.105672 1.245412,-0.185727 2.490823,-1.245652 2.490823,-2.941211 0,-1.431379 -1.086423,-2.941211 -3.073782,-2.941211 -1.8548679,0 -3.0472832,1.509832 -3.0472832,3.259028 M 394.54015,83.528072 c 0,1.13998 0.82136,2.412049 2.96763,2.412049 2.75628,0 5.64466,-2.25274 5.64466,-4.584734 0,-1.563469 -1.32491,-2.437667 -2.96763,-2.437667 -2.57056,0 -5.64466,2.172685 -5.64466,4.610352 m -77.3737,-52.949004 c 0,1.139179 0.82136,2.411249 2.96762,2.411249 2.75629,0 5.64466,-2.25274 5.64466,-4.583934 0,-1.563469 -1.3249,-2.438468 -2.96762,-2.438468 -2.57056,0 -5.64466,2.173487 -5.64466,4.611153 m -12.03864,3.309463 c 0,1.139179 0.82137,2.411249 2.96763,2.411249 2.75549,0 5.64386,-2.25274 5.64386,-4.584735 0,-1.563469 -1.3249,-2.437667 -2.96763,-2.437667 -2.57055,0 -5.64386,2.172686 -5.64386,4.611153 m 57.69866,112.517729 c 0,1.13918 0.82136,2.41125 2.96762,2.41125 2.75629,0 5.64466,-2.25274 5.64466,-4.58393 0,-1.56347 -1.3249,-2.43847 -2.96762,-2.43847 -2.57056,0 -5.64466,2.17349 -5.64466,4.61115 M 345.16479,27.269606 c 0,1.139178 0.82136,2.411248 2.96763,2.411248 2.75628,0 5.64466,-2.25274 5.64466,-4.583934 0,-1.563469 -1.32491,-2.438067 -2.96843,-2.438067 -2.56976,0 -5.64386,2.173086 -5.64386,4.610753 m -4.05477,125.754784 c 0,1.13998 0.82136,2.41205 2.96763,2.41205 2.75548,0 5.64386,-2.25274 5.64386,-4.58474 0,-1.56346 -1.32491,-2.43766 -2.96763,-2.43766 -2.57056,0 -5.64386,2.17268 -5.64386,4.61035 m 63.72437,0 c 0,1.13998 0.82136,2.41205 2.96763,2.41205 2.75628,0 5.64466,-2.25274 5.64466,-4.58474 0,-1.56346 -1.32491,-2.43766 -2.96843,-2.43766 -2.56976,0 -5.64386,2.17268 -5.64386,4.61035 m -78.20227,-3.30866 c 0,1.13918 0.82136,2.41125 2.96763,2.41125 2.75548,0 5.64386,-2.25274 5.64386,-4.58474 0,-1.56267 -1.32491,-2.43767 -2.96763,-2.43767 -2.57056,0 -5.64386,2.17269 -5.64386,4.61116 M 368.05724,23.960143 c 0,1.139179 0.82136,2.411248 2.96763,2.411248 2.75549,0 5.64386,-2.251939 5.64386,-4.584094 0,-1.563389 -1.32491,-2.437827 -2.96763,-2.437827 -2.57056,0 -5.64386,2.172846 -5.64386,4.610673 m 12.03863,3.309463 c 0,1.139178 0.82137,2.411248 2.96763,2.411248 2.75629,0 5.64466,-2.25274 5.64466,-4.583934 0,-1.563469 -1.3249,-2.438067 -2.96843,-2.438067 -2.56975,0 -5.64386,2.173086 -5.64386,4.610753 m -100.06842,1.165596 c -0.8742,0 -1.05992,-0.714888 -1.05992,-0.953451 0,-1.298488 4.45184,-3.577647 5.69669,-3.577647 0.63644,0 1.05993,0.371454 1.05993,0.954253 0,1.324906 -4.47746,3.576845 -5.6967,3.576845 m 3.6569,-5.776349 c -2.57056,0 -5.64466,2.146668 -5.64466,4.610753 0,1.139178 0.82217,2.411248 2.96843,2.411248 2.75549,0 5.64386,-2.25274 5.64386,-4.583934 0,-1.563469 -1.3249,-2.438067 -2.96763,-2.438067 m 15.41774,123.747407 c 0,1.13918 0.82137,2.41125 2.96763,2.41125 2.75629,0 5.64386,-2.25274 5.64386,-4.58393 0,-1.56347 -1.3249,-2.43847 -2.96763,-2.43847 -2.56975,0 -5.64386,2.17349 -5.64386,4.61115 M 398.15462,27.269606 c 0,1.139178 0.82136,2.411248 2.96763,2.411248 2.75548,0 5.64386,-2.25274 5.64386,-4.583934 0,-1.563469 -1.32491,-2.438067 -2.96763,-2.438067 -2.57056,0 -5.64386,2.173086 -5.64386,4.610753 m -138.17287,0 c 0,1.139178 0.82136,2.411248 2.96762,2.411248 2.75549,0 5.64386,-2.25274 5.64386,-4.583934 0,-1.563469 -1.3249,-2.438067 -2.96763,-2.438067 -2.57055,0 -5.64385,2.173086 -5.64385,4.610753 m 161.06452,-3.309463 c 0,1.139179 0.82136,2.411248 2.96843,2.411248 2.75549,0 5.64386,-2.251939 5.64386,-4.584094 0,-1.563389 -1.3249,-2.437827 -2.96763,-2.437827 -2.57055,0 -5.64466,2.172846 -5.64466,4.610673 M 267.92077,156.33385 c 0,1.13998 0.82137,2.41125 2.96763,2.41125 2.75549,0 5.64386,-2.25194 5.64386,-4.58393 0,-1.56347 -1.3249,-2.43767 -2.96763,-2.43767 -2.57055,0 -5.64386,2.17269 -5.64386,4.61035 M 433.08571,27.269606 c 0,1.139178 0.82136,2.411248 2.96762,2.411248 2.75549,0 5.64386,-2.25274 5.64386,-4.583934 0,-1.563469 -1.3249,-2.438067 -2.96763,-2.438067 -2.57055,0 -5.64385,2.173086 -5.64385,4.610753 M 253.44287,153.02439 c 0,1.13998 0.82137,2.41205 2.96763,2.41205 2.75549,0 5.64386,-2.25274 5.64386,-4.58474 0,-1.56346 -1.3249,-2.43766 -2.96763,-2.43766 -2.57055,0 -5.64386,2.17268 -5.64386,4.61035 M 463.07101,15.197992 c -0.8742,0 -1.05993,-0.71545 -1.05993,-0.953933 0,-1.298407 4.45185,-3.577246 5.6975,-3.577246 0.63563,0 1.05992,0.370974 1.05992,0.953933 0,1.324906 -4.47826,3.577246 -5.69749,3.577246 m 3.6569,-5.7765901 c -2.57056,0 -5.64386,2.1463471 -5.64386,4.6106721 0,1.139419 0.82136,2.411329 2.96763,2.411329 2.75548,0 5.64386,-2.25234 5.64386,-4.584174 0,-1.563389 -1.32491,-2.4378271 -2.96763,-2.4378271 m 21.44346,17.8482041 c 0,1.139178 0.82136,2.411248 2.96763,2.411248 2.75628,0 5.64466,-2.25274 5.64466,-4.583934 0,-1.563469 -1.32491,-2.438067 -2.96843,-2.438067 -2.56976,0 -5.64386,2.173086 -5.64386,4.610753 M 234.88138,18.507374 c -0.87419,0 -1.05992,-0.715449 -1.05992,-0.953932 0,-1.298408 4.45184,-3.577246 5.69669,-3.577246 0.63644,0 1.05993,0.370974 1.05993,0.953932 0,1.324906 -4.47746,3.577246 -5.6967,3.577246 m 3.6569,-5.776589 c -2.57055,0 -5.64466,2.146347 -5.64466,4.610672 0,1.139419 0.82217,2.411329 2.96843,2.411329 2.75549,0 5.64386,-2.25234 5.64386,-4.584175 0,-1.563388 -1.3249,-2.437826 -2.96763,-2.437826 M 225.91285,149.71573 c 0,1.13918 0.82136,2.41125 2.96763,2.41125 2.75548,0 5.64386,-2.25274 5.64386,-4.58474 0,-1.56267 -1.32491,-2.43767 -2.96763,-2.43767 -2.57056,0 -5.64386,2.17269 -5.64386,4.61116 M 508.21708,28.435202 c -0.8742,0 -1.05993,-0.714888 -1.05993,-0.953451 0,-1.298488 4.45185,-3.577647 5.6975,-3.577647 0.63563,0 1.05992,0.371454 1.05992,0.954253 0,1.324906 -4.47826,3.576845 -5.69749,3.576845 m 3.6569,-5.776349 c -2.57056,0 -5.64386,2.146668 -5.64386,4.610753 0,1.139178 0.82136,2.411248 2.96763,2.411248 2.75548,0 5.64386,-2.25274 5.64386,-4.583934 0,-1.563469 -1.32491,-2.438067 -2.96763,-2.438067 M 204.1956,156.33385 c 0,1.13998 0.82136,2.41125 2.96763,2.41125 2.75629,0 5.64466,-2.25194 5.64466,-4.58393 0,-1.56347 -1.32491,-2.43767 -2.96763,-2.43767 -2.57056,0 -5.64466,2.17269 -5.64466,4.61035 M 533.31744,33.888531 c 0,1.139179 0.82136,2.411249 2.96763,2.411249 2.75628,0 5.64466,-2.25274 5.64466,-4.584735 0,-1.563469 -1.32491,-2.437667 -2.96843,-2.437667 -2.56976,0 -5.64386,2.172686 -5.64386,4.611153 M 189.7177,153.02439 c 0,1.13998 0.82136,2.41205 2.96763,2.41205 2.75629,0 5.64466,-2.25274 5.64466,-4.58474 0,-1.56346 -1.3249,-2.43766 -2.96763,-2.43766 -2.57056,0 -5.64466,2.17268 -5.64466,4.61035 m 246.29801,-3.30866 c 0,1.13918 0.82136,2.41125 2.96843,2.41125 2.75548,0 5.64386,-2.25274 5.64386,-4.58474 0,-1.56267 -1.32491,-2.43767 -2.96763,-2.43767 -2.57056,0 -5.64466,2.17269 -5.64466,4.61116 M 545.35607,30.579068 c 0,1.139179 0.82216,2.411249 2.96843,2.411249 2.75548,0 5.64386,-2.25274 5.64386,-4.583934 0,-1.563469 -1.32491,-2.438468 -2.96763,-2.438468 -2.57056,0 -5.64466,2.173487 -5.64466,4.611153 M 204.89608,27.269606 c 0,1.139178 0.82136,2.411248 2.96763,2.411248 2.75548,0 5.64386,-2.25274 5.64386,-4.583934 0,-1.563469 -1.32491,-2.438067 -2.96763,-2.438067 -2.57056,0 -5.64386,2.173086 -5.64386,4.610753 m -42.7076,122.446124 c 0,1.13918 0.82136,2.41125 2.96763,2.41125 2.75548,0 5.64386,-2.25274 5.64386,-4.58474 0,-1.56267 -1.32491,-2.43767 -2.96763,-2.43767 -2.57056,0 -5.64386,2.17269 -5.64386,4.61116 M 573.35441,27.269606 c 0,1.139178 0.82137,2.411248 2.96763,2.411248 2.75629,0 5.64466,-2.25274 5.64466,-4.583934 0,-1.563469 -1.3249,-2.438067 -2.96763,-2.438067 -2.57055,0 -5.64466,2.173086 -5.64466,4.610753 M 192.85665,23.960143 c 0,1.139179 0.82136,2.411248 2.96763,2.411248 2.75628,0 5.64466,-2.251939 5.64466,-4.584094 0,-1.563389 -1.32491,-2.437827 -2.96763,-2.437827 -2.57056,0 -5.64466,2.172846 -5.64466,4.610673 m 403.39022,0 c 0,1.139179 0.82136,2.411248 2.96763,2.411248 2.75548,0 5.64385,-2.251939 5.64385,-4.584094 0,-1.563389 -1.3249,-2.437827 -2.96762,-2.437827 -2.57056,0 -5.64386,2.172846 -5.64386,4.610673 M 463.54573,153.02439 c 0,1.13998 0.82136,2.41205 2.96763,2.41205 2.75629,0 5.64466,-2.25274 5.64466,-4.58474 0,-1.56346 -1.32491,-2.43766 -2.96843,-2.43766 -2.56976,0 -5.64386,2.17268 -5.64386,4.61035 m -350.1298,1.1664 c -0.8742,0 -1.05992,-0.71569 -1.05992,-0.95425 0,-1.29849 4.45184,-3.57685 5.69669,-3.57685 0.63644,0 1.05993,0.37065 1.05993,0.95345 0,1.32491 -4.47746,3.57765 -5.6967,3.57765 m 3.6569,-5.77675 c -2.57056,0 -5.64466,2.14627 -5.64466,4.61035 0,1.13998 0.82216,2.41205 2.96843,2.41205 2.75549,0 5.64386,-2.25274 5.64386,-4.58474 0,-1.56346 -1.3249,-2.43766 -2.96763,-2.43766 M 608.2855,27.269606 c 0,1.139178 0.82136,2.411248 2.96843,2.411248 2.75548,0 5.64386,-2.25274 5.64386,-4.583934 0,-1.563469 -1.32491,-2.438067 -2.96763,-2.438067 -2.57056,0 -5.64466,2.173086 -5.64466,4.610753 M 89.711724,153.02439 c 0,1.13998 0.821362,2.41205 2.967629,2.41205 2.756285,0 5.643859,-2.25274 5.643859,-4.58474 0,-1.56346 -1.324906,-2.43766 -2.967629,-2.43766 -2.569757,0 -5.643859,2.17268 -5.643859,4.61035 M 626.34425,27.269606 c 0,1.139178 0.82136,2.411248 2.96762,2.411248 2.75629,0 5.64386,-2.25274 5.64386,-4.583934 0,-1.563469 -1.3249,-2.438067 -2.96763,-2.438067 -2.56975,0 -5.64385,2.173086 -5.64385,4.610753 M 59.123613,147.57186 c -0.874198,0 -1.059925,-0.71569 -1.059925,-0.95345 0,-1.29849 4.451844,-3.57765 5.697496,-3.57765 0.635634,0 1.059924,0.37066 1.059924,0.95426 0,1.3249 -4.478262,3.57684 -5.697495,3.57684 m 3.6569,-5.77675 c -2.570557,0 -5.643859,2.14627 -5.643859,4.61115 0,1.13918 0.821362,2.41125 2.967629,2.41125 2.755484,0 5.643859,-2.25274 5.643859,-4.58393 0,-1.56347 -1.324906,-2.43847 -2.967629,-2.43847 m 415.243117,14.53874 c 0,1.13998 0.82136,2.41125 2.96763,2.41125 2.75629,0 5.64466,-2.25194 5.64466,-4.58393 0,-1.56347 -1.32491,-2.43767 -2.96843,-2.43767 -2.56976,0 -5.64386,2.17269 -5.64386,4.61035 M 169.965,27.269606 c 0,1.139178 0.82136,2.411248 2.96763,2.411248 2.75548,0 5.64386,-2.25274 5.64386,-4.583934 0,-1.563469 -1.32491,-2.438067 -2.96763,-2.438067 -2.57056,0 -5.64386,2.173086 -5.64386,4.610753 M 499.74088,166.26224 c 0,1.13918 0.82136,2.41125 2.96763,2.41125 2.75548,0 5.64386,-2.25194 5.64386,-4.58393 0,-1.56347 -1.32491,-2.43767 -2.96763,-2.43767 -2.57056,0 -5.64386,2.17268 -5.64386,4.61035 M 649.2367,23.960143 c 0,1.139179 0.82136,2.411248 2.96763,2.411248 2.75548,0 5.64386,-2.251939 5.64386,-4.584094 0,-1.563389 -1.32491,-2.437827 -2.96763,-2.437827 -2.57056,0 -5.64386,2.172846 -5.64386,4.610673 m 12.03863,3.309463 c 0,1.139178 0.82136,2.411248 2.96763,2.411248 2.75628,0 5.64386,-2.25274 5.64386,-4.583934 0,-1.563469 -1.32491,-2.438067 -2.96763,-2.438067 -2.56976,0 -5.64386,2.173086 -5.64386,4.610753 m 0,59.567929 c 0,1.139979 0.82136,2.411249 2.96763,2.411249 2.75628,0 5.64386,-2.25194 5.64386,-4.583935 0,-1.563469 -1.32491,-2.437666 -2.96763,-2.437666 -2.56976,0 -5.64386,2.172685 -5.64386,4.610352 M 151.90625,27.269606 c 0,1.139178 0.82136,2.411248 2.96763,2.411248 2.75628,0 5.64386,-2.25274 5.64386,-4.583934 0,-1.563469 -1.32491,-2.438067 -2.96763,-2.438067 -2.56976,0 -5.64386,2.173086 -5.64386,4.610753 m 497.49376,56.258466 c 0,1.13998 0.82136,2.412049 2.96763,2.412049 2.75628,0 5.64466,-2.25274 5.64466,-4.584734 0,-1.563469 -1.32491,-2.437667 -2.96843,-2.437667 -2.56976,0 -5.64386,2.172685 -5.64386,4.610352 M 139.86762,23.960143 c 0,1.139179 0.82136,2.411248 2.96763,2.411248 2.75548,0 5.64386,-2.251939 5.64386,-4.584094 0,-1.563389 -1.32491,-2.437827 -2.96763,-2.437827 -2.57056,0 -5.64386,2.172846 -5.64386,4.610673 M 59.123613,88.003932 c -0.874198,0 -1.059925,-0.715689 -1.059925,-0.954252 0,-1.298488 4.451844,-3.576846 5.697496,-3.576846 0.635634,0 1.059924,0.370654 1.059924,0.953452 0,1.324906 -4.478262,3.577646 -5.697495,3.577646 m 3.6569,-5.776749 c -2.570557,0 -5.643859,2.146267 -5.643859,4.610352 0,1.139979 0.821362,2.411249 2.967629,2.411249 2.755484,0 5.643859,-2.25194 5.643859,-4.583935 0,-1.563469 -1.324906,-2.437666 -2.967629,-2.437666 M 527.2701,156.33385 c 0,1.13998 0.82217,2.41125 2.96843,2.41125 2.75549,0 5.64386,-2.25194 5.64386,-4.58393 0,-1.56347 -1.3249,-2.43767 -2.96763,-2.43767 -2.57055,0 -5.64466,2.17269 -5.64466,4.61035 m 99.54887,-76.11444 c 0,1.139179 0.82216,2.411249 2.96843,2.411249 2.75548,0 5.64386,-2.252741 5.64386,-4.584735 0,-1.563469 -1.32491,-2.437667 -2.96763,-2.437667 -2.57056,0 -5.64466,2.172686 -5.64466,4.611153 M 83.85572,96.765923 c 0,1.139179 0.821362,2.411249 2.967629,2.411249 2.755484,0 5.643859,-2.25274 5.643859,-4.583934 0,-1.563469 -1.324906,-2.438467 -2.967629,-2.438467 -2.570558,0 -5.643859,2.173486 -5.643859,4.611152 m 525.15107,-9.928388 c 0,1.139979 0.82136,2.411249 2.96763,2.411249 2.75548,0 5.64386,-2.25194 5.64386,-4.583935 0,-1.563469 -1.32491,-2.437666 -2.96763,-2.437666 -2.57056,0 -5.64386,2.172685 -5.64386,4.610352 M 103.65566,84.69447 c -0.8742,0 -1.05993,-0.71569 -1.05993,-0.954253 0,-1.298488 4.45185,-3.576846 5.6975,-3.576846 0.63563,0 1.05992,0.370654 1.05992,0.953452 0,1.324906 -4.47826,3.577647 -5.69749,3.577647 m 3.6569,-5.77675 c -2.57056,0 -5.64386,2.146267 -5.64386,4.610352 0,1.13998 0.82136,2.412049 2.96763,2.412049 2.75548,0 5.64386,-2.25274 5.64386,-4.584734 0,-1.563469 -1.32491,-2.437667 -2.96763,-2.437667 m 489.81891,4.610352 c 0,1.13998 0.82136,2.412049 2.96763,2.412049 2.75548,0 5.64386,-2.25274 5.64386,-4.584734 0,-1.563469 -1.32491,-2.437667 -2.96763,-2.437667 -2.57056,0 -5.64386,2.172685 -5.64386,4.610352 m -468.7437,13.237851 c 0,1.139179 0.82136,2.411249 2.96763,2.411249 2.75548,0 5.64386,-2.25274 5.64386,-4.583934 0,-1.563469 -1.32491,-2.438467 -2.96763,-2.438467 -2.57056,0 -5.64386,2.173486 -5.64386,4.611152 M 156.38611,80.21941 c 0,1.139179 0.82136,2.411249 2.96763,2.411249 2.75549,0 5.64386,-2.252741 5.64386,-4.584735 0,-1.563469 -1.32491,-2.437667 -2.96763,-2.437667 -2.57056,0 -5.64386,2.172686 -5.64386,4.611153 M 541.748,159.64332 c 0,1.13917 0.82216,2.41124 2.96843,2.41124 2.75549,0 5.64386,-2.25194 5.64386,-4.58393 0,-1.56347 -1.3249,-2.43767 -2.96763,-2.43767 -2.57056,0 -5.64466,2.17269 -5.64466,4.61036 m 32.80243,-79.42391 c 0,1.139179 0.82136,2.411249 2.96763,2.411249 2.75629,0 5.64466,-2.252741 5.64466,-4.584735 0,-1.563469 -1.32491,-2.437667 -2.96843,-2.437667 -2.56976,0 -5.64386,2.172686 -5.64386,4.611153 M 116.97517,27.269606 c 0,1.139178 0.82136,2.411248 2.96762,2.411248 2.75549,0 5.64386,-2.25274 5.64386,-4.583934 0,-1.563469 -1.3249,-2.438067 -2.96763,-2.438067 -2.57055,0 -5.64385,2.173086 -5.64385,4.610753 m 61.99118,56.258466 c 0,1.13998 0.82136,2.412049 2.96843,2.412049 2.75549,0 5.64386,-2.25274 5.64386,-4.584734 0,-1.563469 -1.32491,-2.437667 -2.96763,-2.437667 -2.57056,0 -5.64466,2.172685 -5.64466,4.610352 m 11.87532,3.309463 c 0,1.139979 0.82136,2.411249 2.96763,2.411249 2.75629,0 5.64466,-2.25194 5.64466,-4.583935 0,-1.563469 -1.32491,-2.437666 -2.96763,-2.437666 -2.57056,0 -5.64466,2.172685 -5.64466,4.610352 M 88.976822,30.579068 c 0,1.139179 0.821361,2.411249 2.967629,2.411249 2.756284,0 5.644659,-2.25274 5.644659,-4.583934 0,-1.563469 -1.324906,-2.438468 -2.968429,-2.438468 -2.569757,0 -5.643859,2.173487 -5.643859,4.611153 M 533.20216,97.93152 c -0.875,0 -1.05993,-0.714888 -1.05993,-0.953451 0,-1.298488 4.45185,-3.577647 5.6967,-3.577647 0.63644,0 1.05992,0.371454 1.05992,0.954253 0,1.324906 -4.47826,3.576845 -5.69669,3.576845 m 3.6569,-5.776749 c -2.57056,0 -5.64466,2.147068 -5.64466,4.611152 0,1.139179 0.82136,2.411249 2.96763,2.411249 2.75628,0 5.64466,-2.25274 5.64466,-4.583934 0,-1.563469 -1.32491,-2.438467 -2.96763,-2.438467 m -328.20441,4.611152 c 0,1.139179 0.82136,2.411249 2.96763,2.411249 2.75628,0 5.64386,-2.25274 5.64386,-4.583934 0,-1.563469 -1.32491,-2.438467 -2.96763,-2.438467 -2.56976,0 -5.64386,2.173486 -5.64386,4.611152 m 304.74677,0 c 0,1.139179 0.82216,2.411249 2.96843,2.411249 2.75548,0 5.64386,-2.25274 5.64386,-4.583934 0,-1.563469 -1.32491,-2.438467 -2.96763,-2.438467 -2.57056,0 -5.64466,2.173486 -5.64466,4.611152 m 61.51566,60.734327 c -0.8742,0 -1.05992,-0.71569 -1.05992,-0.95425 0,-1.29849 4.45184,-3.57685 5.69749,-3.57685 0.63564,0 1.05993,0.37066 1.05993,0.95345 0,1.32491 -4.47826,3.57765 -5.6975,3.57765 m 3.6569,-5.77675 c -2.57056,0 -5.64386,2.14627 -5.64386,4.61035 0,1.13998 0.82137,2.41125 2.96763,2.41125 2.75549,0 5.64386,-2.25194 5.64386,-4.58393 0,-1.56347 -1.3249,-2.43767 -2.96763,-2.43767 M 488.67011,84.69447 c -0.875,0 -1.05992,-0.71569 -1.05992,-0.954253 0,-1.298488 4.45184,-3.576846 5.69669,-3.576846 0.63644,0 1.05993,0.370654 1.05993,0.953452 0,1.324906 -4.47827,3.577647 -5.6967,3.577647 m 3.6569,-5.77675 c -2.57056,0 -5.64466,2.146267 -5.64466,4.610352 0,1.13998 0.82136,2.412049 2.96763,2.412049 2.75629,0 5.64466,-2.25274 5.64466,-4.584734 0,-1.563469 -1.32491,-2.437667 -2.96763,-2.437667 m -261.09132,7.919815 c 0,1.139979 0.82136,2.411249 2.96763,2.411249 2.75548,0 5.64386,-2.25194 5.64386,-4.583935 0,-1.563469 -1.32491,-2.437666 -2.96763,-2.437666 -2.57056,0 -5.64386,2.172685 -5.64386,4.610352 m 11.87532,3.309463 c 0,1.139179 0.82136,2.411248 2.96763,2.411248 2.75548,0 5.64386,-2.251939 5.64386,-4.583934 0,-1.563469 -1.32491,-2.437667 -2.96763,-2.437667 -2.57056,0 -5.64386,2.172686 -5.64386,4.610353 m 29.9853,-2.143066 c -0.87419,0 -1.05992,-0.715689 -1.05992,-0.954252 0,-1.298488 4.45184,-3.576846 5.69669,-3.576846 0.63644,0 1.05993,0.370654 1.05993,0.953452 0,1.324906 -4.47826,3.577646 -5.6967,3.577646 m 3.6569,-5.776749 c -2.57055,0 -5.64466,2.146267 -5.64466,4.610352 0,1.139979 0.82137,2.411249 2.96843,2.411249 2.75549,0 5.64386,-2.25194 5.64386,-4.583935 0,-1.563469 -1.3249,-2.437666 -2.96763,-2.437666 m 181.9308,4.610352 c 0,1.139979 0.82216,2.411249 2.96843,2.411249 2.75548,0 5.64386,-2.25194 5.64386,-4.583935 0,-1.563469 -1.32491,-2.437666 -2.96763,-2.437666 -2.57056,0 -5.64466,2.172685 -5.64466,4.610352 M 71.778666,33.888531 c 0,1.139179 0.821361,2.411249 2.967629,2.411249 2.755484,0 5.643856,-2.25274 5.643856,-4.584735 0,-1.563469 -1.324903,-2.437667 -2.967626,-2.437667 -2.570558,0 -5.643859,2.172686 -5.643859,4.611153 M 446.80949,83.528072 c 0,1.13998 0.82136,2.412049 2.96763,2.412049 2.75548,0 5.64386,-2.25274 5.64386,-4.584734 0,-1.563469 -1.32491,-2.437667 -2.96763,-2.437667 -2.57056,0 -5.64386,2.172685 -5.64386,4.610352 M 317.62836,111.16937 c -0.875,0 -1.05992,-0.71569 -1.05992,-0.95425 0,-1.29849 4.45184,-3.57685 5.69669,-3.57685 0.63644,0 1.05993,0.37066 1.05993,0.95346 0,1.3249 -4.47827,3.57764 -5.6967,3.57764 m 3.6569,-5.77675 c -2.57056,0 -5.64466,2.14627 -5.64466,4.61035 0,1.13998 0.82136,2.41125 2.96763,2.41125 2.75629,0 5.64466,-2.25194 5.64466,-4.58393 0,-1.56347 -1.3249,-2.43767 -2.96763,-2.43767 m 50.67465,-25.17321 c 0,1.139179 0.82136,2.411249 2.96763,2.411249 2.75548,0 5.64386,-2.252741 5.64386,-4.584735 0,-1.563469 -1.32491,-2.437667 -2.96763,-2.437667 -2.57056,0 -5.64386,2.172686 -5.64386,4.611153 m 233.54529,99.27988 c 0,1.13998 0.82136,2.41125 2.96763,2.41125 2.75628,0 5.64466,-2.25194 5.64466,-4.58393 0,-1.56347 -1.32491,-2.43767 -2.96843,-2.43767 -2.56976,0 -5.64386,2.17269 -5.64386,4.61035 M 424.22845,80.21941 c 0,1.139179 0.82136,2.411249 2.96763,2.411249 2.75628,0 5.64386,-2.252741 5.64386,-4.584735 0,-1.563469 -1.32491,-2.437667 -2.96763,-2.437667 -2.56976,0 -5.64386,2.172686 -5.64386,4.611153 m -126.40003,29.78356 c 0,1.13998 0.82137,2.41125 2.96763,2.41125 2.75549,0 5.64386,-2.25194 5.64386,-4.58393 0,-1.56347 -1.3249,-2.43767 -2.96763,-2.43767 -2.57056,0 -5.64386,2.17269 -5.64386,4.61035 M 406.41547,86.837535 c 0,1.139979 0.82136,2.411249 2.96763,2.411249 2.75628,0 5.64466,-2.25194 5.64466,-4.583935 0,-1.563469 -1.32491,-2.437666 -2.96843,-2.437666 -2.56976,0 -5.64386,2.172685 -5.64386,4.610352 m -16.05898,62.878195 c 0,1.13918 0.82136,2.41125 2.96763,2.41125 2.75628,0 5.64466,-2.25274 5.64466,-4.58474 0,-1.56267 -1.32491,-2.43767 -2.96843,-2.43767 -2.56976,0 -5.64386,2.17269 -5.64386,4.61116 m 238.85291,30.94996 c -0.87419,0 -1.05992,-0.71569 -1.05992,-0.95425 0,-1.29849 4.45184,-3.57685 5.6975,-3.57685 0.63563,0 1.05992,0.37066 1.05992,0.95345 0,1.32491 -4.47826,3.57765 -5.6975,3.57765 m 3.6569,-5.77675 c -2.57055,0 -5.64385,2.14627 -5.64385,4.61035 0,1.13998 0.82136,2.41125 2.96762,2.41125 2.75549,0 5.64386,-2.25194 5.64386,-4.58393 0,-1.56347 -1.3249,-2.43767 -2.96763,-2.43767 m -242.50981,-3.14775 c 0,0.18572 0.15931,0.34503 0.34423,0.34503 0.1329,0 0.2914,-0.10647 0.31862,-0.21214 0,-0.0264 0.23777,-0.95425 0.26498,-1.03351 0.0264,-0.10567 0.26498,-1.11276 1.21844,-2.67623 1.0335,-1.72278 2.62339,-2.96763 3.9483,-4.8225 1.29848,-1.85486 2.09343,-3.60406 2.09343,-5.93605 0,-2.41125 -0.55638,-4.42463 -1.96054,-6.99519 -0.0801,-0.18572 -0.23857,-0.2914 -0.39787,-0.2914 -0.0528,0 -0.10568,0 -0.1321,0.0264 -0.13289,0.0528 -0.18572,0.15851 -0.18572,0.31782 0,0.0793 0.0264,0.21214 0.0793,0.31782 1.05993,2.46488 1.48422,3.86904 1.48422,5.77675 0,2.1991 -0.76853,3.33908 -1.24565,4.16044 -1.72198,2.94121 -4.50468,4.37179 -5.61745,4.74324 -0.18572,0.0793 -0.21214,0.21135 -0.21214,0.2914 v 5.9881 m 4.18366,-66.18686 c 0,0.18573 0.15931,0.34424 0.34504,0.34424 0.13209,0 0.29139,-0.10567 0.31781,-0.21135 0,-0.0264 0.23857,-0.95425 0.26498,-1.0335 0.0264,-0.10648 0.26499,-1.11276 1.21844,-2.67623 1.0335,-1.72278 2.62339,-2.968433 3.9483,-4.823301 1.29848,-1.854868 2.09343,-3.603264 2.09343,-5.935258 0,-2.411249 -0.55638,-4.425426 -1.96054,-6.995183 -0.0801,-0.185727 -0.23857,-0.291399 -0.39787,-0.291399 -0.0528,0 -0.10568,0 -0.13209,0.02642 -0.1329,0.05284 -0.18573,0.158508 -0.18573,0.317817 0,0.07925 0.0264,0.212145 0.0793,0.317817 1.05993,2.464085 1.48422,3.869046 1.48422,5.77675 0,2.199104 -0.76853,3.338283 -1.24565,4.160445 -1.72198,2.941211 -4.50468,4.371789 -5.61745,4.742442 -0.18572,0.08006 -0.21214,0.212145 -0.21214,0.2922 v 5.98809 M 368.05724,44.331672 c 0,0.184926 0.15851,0.344235 0.34424,0.344235 0.13289,0 0.2914,-0.105672 0.31781,-0.212145 0,-0.02642 0.23857,-0.953452 0.26499,-1.033507 0.0264,-0.105672 0.26498,-1.112761 1.21923,-2.67623 1.03351,-1.721977 2.62339,-2.967629 3.9483,-4.822497 1.29849,-1.854868 2.09343,-3.604064 2.09343,-5.935258 0,-2.411249 -0.55638,-4.425426 -1.96134,-6.995743 -0.0793,-0.185487 -0.23856,-0.29148 -0.39707,-0.29148 -0.0528,0 -0.10647,0 -0.13289,0.0265 -0.13209,0.053 -0.18493,0.158989 -0.18493,0.317978 0,0.07949 0.0264,0.211985 0.0793,0.318217 1.05992,2.464085 1.48341,3.868245 1.48341,5.77595 0,2.199904 -0.76773,3.339083 -1.24485,4.160444 -1.72278,2.941211 -4.50468,4.37259 -5.61744,4.743244 -0.18573,0.07925 -0.21215,0.212145 -0.21215,0.291399 v 5.988895 m 78.75225,61.222656 c 0,0.18573 0.15851,0.34424 0.34423,0.34424 0.13209,0 0.2914,-0.10567 0.31782,-0.21135 0,-0.0264 0.23856,-0.95425 0.26498,-1.0335 0.0264,-0.10648 0.26498,-1.11276 1.21924,-2.67623 1.0335,-1.72278 2.62339,-2.968431 3.9483,-4.823299 1.29848,-1.854868 2.09343,-3.603264 2.09343,-5.935258 0,-2.411249 -0.55718,-4.425426 -1.96134,-6.995183 -0.0793,-0.185727 -0.23857,-0.291399 -0.39708,-0.291399 -0.0536,0 -0.10647,0 -0.13289,0.02642 -0.13209,0.05284 -0.18572,0.158508 -0.18572,0.317817 0,0.07925 0.0272,0.212145 0.08,0.317817 1.05993,2.464085 1.48342,3.869046 1.48342,5.77675 0,2.199104 -0.76853,3.338283 -1.24486,4.160445 -1.72277,2.941211 -4.50468,4.371789 -5.61824,4.742442 -0.18492,0.08006 -0.21134,0.212145 -0.21134,0.2922 v 5.988088 m -120.17737,66.18686 c 0,0.18572 0.15851,0.34503 0.34423,0.34503 0.13289,0 0.2914,-0.10647 0.31782,-0.21214 0,-0.0264 0.23856,-0.95425 0.26498,-1.03351 0.0264,-0.10567 0.26498,-1.11276 1.21924,-2.67623 1.0335,-1.72278 2.62339,-2.96763 3.9483,-4.8225 1.29848,-1.85486 2.09343,-3.60406 2.09343,-5.93605 0,-2.41125 -0.55638,-4.42463 -1.96134,-6.99519 -0.0793,-0.18572 -0.23857,-0.2914 -0.39708,-0.2914 -0.0528,0 -0.10647,0 -0.13289,0.0264 -0.13209,0.0528 -0.18492,0.15851 -0.18492,0.31782 0,0.0793 0.0264,0.21214 0.0793,0.31782 1.05993,2.46488 1.48341,3.86904 1.48341,5.77675 0,2.1991 -0.76772,3.33908 -1.24485,4.16044 -1.72277,2.94121 -4.50468,4.37179 -5.61744,4.74324 -0.18572,0.0793 -0.21214,0.21135 -0.21214,0.2914 v 5.9881 M 421.04627,44.331672 c 0,0.184926 0.15931,0.344235 0.34504,0.344235 0.13209,0 0.2914,-0.105672 0.31782,-0.212145 0,-0.02642 0.23856,-0.953452 0.26498,-1.033507 0.0264,-0.105672 0.26498,-1.112761 1.21843,-2.67623 1.03351,-1.721977 2.62339,-2.967629 3.9483,-4.822497 1.29849,-1.854868 2.09343,-3.604064 2.09343,-5.935258 0,-2.411249 -0.55638,-4.425426 -1.96054,-6.995743 -0.0793,-0.185487 -0.23856,-0.29148 -0.39787,-0.29148 -0.0528,0 -0.10567,0 -0.13209,0.0265 -0.13289,0.053 -0.18573,0.158989 -0.18573,0.317978 0,0.07949 0.0264,0.211985 0.0793,0.318217 1.05992,2.464085 1.48421,3.868245 1.48421,5.77595 0,2.199904 -0.76852,3.339083 -1.24565,4.160444 -1.72198,2.941211 -4.50468,4.37259 -5.61744,4.743244 -0.18573,0.07925 -0.21215,0.212145 -0.21215,0.291399 v 5.988895 m 42.49946,130.718976 c 0,0.18573 0.15931,0.34424 0.34424,0.34424 0.13289,0 0.2922,-0.10568 0.31862,-0.21135 0,-0.0264 0.23856,-0.95425 0.26498,-1.03351 0.0264,-0.10647 0.26498,-1.11276 1.21843,-2.67623 1.03351,-1.72277 2.62339,-2.96842 3.9483,-4.82329 1.29849,-1.85487 2.09343,-3.60327 2.09343,-5.93526 0,-2.41125 -0.55638,-4.42543 -1.96054,-6.99518 -0.08,-0.18573 -0.23856,-0.2914 -0.39787,-0.2914 -0.0528,0 -0.10567,0 -0.13209,0.0264 -0.13289,0.0528 -0.18573,0.15851 -0.18573,0.31782 0,0.0793 0.0264,0.21215 0.0793,0.31782 1.05992,2.46408 1.48421,3.86904 1.48421,5.77675 0,2.1991 -0.76853,3.33828 -1.24565,4.16044 -1.72198,2.94121 -4.50468,4.37179 -5.61744,4.74245 -0.18573,0.08 -0.21215,0.21214 -0.21215,0.2922 v 5.98809 m -210.10286,0 c 0,0.18573 0.15851,0.34424 0.34424,0.34424 0.13209,0 0.2914,-0.10568 0.31782,-0.21135 0,-0.0264 0.23856,-0.95425 0.26498,-1.03351 0.0264,-0.10647 0.26498,-1.11276 1.21923,-2.67623 1.03351,-1.72277 2.6234,-2.96842 3.9483,-4.82329 1.29769,-1.85487 2.09263,-3.60327 2.09263,-5.93526 0,-2.41125 -0.55638,-4.42543 -1.96054,-6.99518 -0.0793,-0.18573 -0.23856,-0.2914 -0.39707,-0.2914 -0.0536,0 -0.10647,0 -0.13289,0.0264 -0.13209,0.0528 -0.18573,0.15851 -0.18573,0.31782 0,0.0793 0.0264,0.21215 0.0801,0.31782 1.05992,2.46408 1.48341,3.86904 1.48341,5.77675 0,2.1991 -0.76852,3.33828 -1.24485,4.16044 -1.72278,2.94121 -4.50468,4.37179 -5.61824,4.74245 -0.18493,0.08 -0.21135,0.21214 -0.21135,0.2922 v 5.98809 m -63.72517,0 c 0,0.18573 0.15931,0.34424 0.34504,0.34424 0.13209,0 0.2914,-0.10568 0.31782,-0.21135 0,-0.0264 0.23856,-0.95425 0.26498,-1.03351 0.0264,-0.10647 0.26498,-1.11276 1.21843,-2.67623 1.03351,-1.72277 2.62339,-2.96842 3.9483,-4.82329 1.29849,-1.85487 2.09343,-3.60327 2.09343,-5.93526 0,-2.41125 -0.55638,-4.42543 -1.96054,-6.99518 -0.08,-0.18573 -0.23856,-0.2914 -0.39787,-0.2914 -0.0528,0 -0.10567,0 -0.13209,0.0264 -0.13289,0.0528 -0.18573,0.15851 -0.18573,0.31782 0,0.0793 0.0264,0.21215 0.0793,0.31782 1.05992,2.46408 1.48421,3.86904 1.48421,5.77675 0,2.1991 -0.76852,3.33828 -1.24565,4.16044 -1.72198,2.94121 -4.50468,4.37179 -5.61744,4.74245 -0.18573,0.08 -0.21215,0.21214 -0.21215,0.2922 v 5.98809 M 596.24687,44.331672 c 0,0.184926 0.1585,0.344235 0.34423,0.344235 0.13289,0 0.2914,-0.105672 0.31782,-0.212145 0,-0.02642 0.23856,-0.953452 0.26498,-1.033507 0.0264,-0.105672 0.26498,-1.112761 1.21923,-2.67623 1.03351,-1.721977 2.6234,-2.967629 3.9483,-4.822497 1.29849,-1.854868 2.09343,-3.604064 2.09343,-5.935258 0,-2.411249 -0.55638,-4.425426 -1.96134,-6.995743 -0.0793,-0.185487 -0.23856,-0.29148 -0.39707,-0.29148 -0.0528,0 -0.10647,0 -0.13289,0.0265 -0.13209,0.053 -0.18493,0.158989 -0.18493,0.317978 0,0.07949 0.0264,0.211985 0.0793,0.318217 1.05992,2.464085 1.48421,3.868245 1.48421,5.77595 0,2.199904 -0.76852,3.339083 -1.24565,4.160444 -1.72278,2.941211 -4.50468,4.37259 -5.61744,4.743244 -0.18573,0.07925 -0.21214,0.212145 -0.21214,0.291399 v 5.988895 m -403.39022,0 c 0,0.184926 0.15931,0.344235 0.34504,0.344235 0.13209,0 0.29139,-0.105672 0.31781,-0.212145 0,-0.02642 0.23857,-0.953452 0.26498,-1.033507 0.0264,-0.105672 0.26498,-1.112761 1.21844,-2.67623 1.0335,-1.721977 2.62339,-2.967629 3.9483,-4.822497 1.29848,-1.854868 2.09343,-3.604064 2.09343,-5.935258 0,-2.411249 -0.55638,-4.425426 -1.96054,-6.995743 -0.0801,-0.185487 -0.23857,-0.29148 -0.39787,-0.29148 -0.0528,0 -0.10568,0 -0.1321,0.0265 -0.13289,0.053 -0.18572,0.158989 -0.18572,0.317978 0,0.07949 0.0264,0.211985 0.0793,0.318217 1.05993,2.464085 1.48422,3.868245 1.48422,5.77595 0,2.199904 -0.76853,3.339083 -1.24565,4.160444 -1.72198,2.941211 -4.50468,4.37259 -5.61745,4.743244 -0.18572,0.07925 -0.21214,0.212145 -0.21214,0.291399 v 5.988895 m 456.38005,0 c 0,0.184926 0.15851,0.344235 0.34423,0.344235 0.13209,0 0.2914,-0.105672 0.31782,-0.212145 0,-0.02642 0.23856,-0.953452 0.26498,-1.033507 0.0264,-0.105672 0.26498,-1.112761 1.21924,-2.67623 1.0335,-1.721977 2.62339,-2.967629 3.9483,-4.822497 1.29768,-1.854868 2.09263,-3.604064 2.09263,-5.935258 0,-2.411249 -0.55638,-4.425426 -1.96054,-6.995743 -0.0793,-0.185487 -0.23857,-0.29148 -0.39708,-0.29148 -0.0536,0 -0.10647,0 -0.13289,0.0265 -0.13209,0.053 -0.18572,0.158989 -0.18572,0.317978 0,0.07949 0.0264,0.211985 0.0801,0.318217 1.05993,2.464085 1.48342,3.868245 1.48342,5.77595 0,2.199904 -0.76853,3.339083 -1.24486,4.160444 -1.72277,2.941211 -4.50468,4.37259 -5.61824,4.743244 -0.18492,0.07925 -0.21134,0.212145 -0.21134,0.291399 v 5.988895 M 527.2701,178.36011 c 0,0.18573 0.15931,0.34424 0.34504,0.34424 0.13209,0 0.2914,-0.10567 0.31782,-0.21135 0,-0.0272 0.23856,-0.95425 0.26498,-1.0335 0.0264,-0.10648 0.26498,-1.11356 1.21923,-2.67623 1.03271,-1.72278 2.62259,-2.96843 3.9475,-4.8233 1.29849,-1.85487 2.09343,-3.60326 2.09343,-5.93526 0,-2.41125 -0.55638,-4.42542 -1.96054,-6.99518 -0.0793,-0.18573 -0.23856,-0.2922 -0.39787,-0.2922 -0.0528,0 -0.10567,0 -0.13209,0.0272 -0.13289,0.0528 -0.18573,0.15851 -0.18573,0.31781 0,0.0793 0.0264,0.21215 0.0801,0.31782 1.05992,2.46409 1.48341,3.86905 1.48341,5.77675 0,2.19911 -0.76852,3.33828 -1.24565,4.15965 -1.72198,2.94201 -4.50468,4.37259 -5.61744,4.74324 -0.18493,0.08 -0.21215,0.21214 -0.21215,0.2914 v 5.98889 m 122.12991,-72.80578 c 0,0.18573 0.15931,0.34424 0.34423,0.34424 0.1329,0 0.2922,-0.10567 0.31862,-0.21135 0,-0.0264 0.23857,-0.95425 0.26498,-1.0335 0.0264,-0.10648 0.26499,-1.11276 1.21844,-2.67623 1.0335,-1.72278 2.62339,-2.968433 3.9483,-4.823301 1.29848,-1.854868 2.09343,-3.603264 2.09343,-5.935258 0,-2.411249 -0.55638,-4.425426 -1.96054,-6.995183 -0.0801,-0.185727 -0.23857,-0.291399 -0.39787,-0.291399 -0.0528,0 -0.10568,0 -0.13209,0.02642 -0.1329,0.05284 -0.18573,0.158508 -0.18573,0.317817 0,0.07925 0.0264,0.212145 0.0793,0.317817 1.05993,2.464085 1.48422,3.869046 1.48422,5.77675 0,2.199104 -0.76853,3.338283 -1.24565,4.160445 -1.72198,2.941211 -4.50468,4.371789 -5.61745,4.742442 -0.18572,0.08006 -0.21214,0.212145 -0.21214,0.2922 v 5.98809 m -52.26854,0 c 0,0.18573 0.15851,0.34424 0.34424,0.34424 0.13289,0 0.2914,-0.10567 0.31781,-0.21135 0,-0.0264 0.23857,-0.95425 0.26498,-1.0335 0.0264,-0.10648 0.26499,-1.11276 1.21924,-2.67623 1.03351,-1.72278 2.62339,-2.968431 3.9483,-4.823299 1.29849,-1.854868 2.09343,-3.603264 2.09343,-5.935258 0,-2.411249 -0.55638,-4.425426 -1.96134,-6.995183 -0.0793,-0.185727 -0.23856,-0.291399 -0.39707,-0.291399 -0.0528,0 -0.10648,0 -0.13289,0.02642 -0.13209,0.05284 -0.18493,0.158508 -0.18493,0.317817 0,0.07925 0.0264,0.212145 0.0793,0.317817 1.05993,2.464085 1.48342,3.869046 1.48342,5.77675 0,2.199104 -0.76773,3.338283 -1.24485,4.160445 -1.72278,2.941211 -4.50468,4.371789 -5.61744,4.742442 -0.18573,0.08006 -0.21215,0.212145 -0.21215,0.2922 v 5.988088 m -418.16512,0 c 0,0.18573 0.15931,0.34424 0.34504,0.34424 0.13209,0 0.2914,-0.10567 0.31782,-0.21135 0,-0.0264 0.23856,-0.95425 0.26498,-1.0335 0.0264,-0.10648 0.26498,-1.11276 1.21843,-2.67623 1.03351,-1.72278 2.62339,-2.968429 3.9483,-4.823297 1.29849,-1.854868 2.09343,-3.603264 2.09343,-5.935258 0,-2.411249 -0.55638,-4.425426 -1.96054,-6.995183 -0.0793,-0.185727 -0.23856,-0.291399 -0.39787,-0.291399 -0.0528,0 -0.10567,0 -0.13209,0.02642 -0.13289,0.05284 -0.18573,0.158508 -0.18573,0.317817 0,0.07925 0.0264,0.212145 0.0793,0.317817 1.05993,2.464085 1.48422,3.869046 1.48422,5.77675 0,2.199104 -0.76853,3.338283 -1.24565,4.160445 -1.72198,2.941211 -4.50468,4.371789 -5.61744,4.742442 -0.18573,0.08006 -0.21215,0.212145 -0.21215,0.2922 v 5.988096 M 139.86762,44.331672 c 0,0.184926 0.15851,0.344235 0.34423,0.344235 0.13209,0 0.2914,-0.105672 0.31782,-0.212145 0,-0.02642 0.23856,-0.953452 0.26498,-1.033507 0.0264,-0.105672 0.26498,-1.112761 1.21924,-2.67623 1.0335,-1.721977 2.62339,-2.967629 3.9483,-4.822497 1.29768,-1.854868 2.09263,-3.604064 2.09263,-5.935258 0,-2.411249 -0.55638,-4.425426 -1.96054,-6.995743 -0.0793,-0.185487 -0.23857,-0.29148 -0.39708,-0.29148 -0.0536,0 -0.10647,0 -0.13289,0.0265 -0.13209,0.053 -0.18572,0.158989 -0.18572,0.317978 0,0.07949 0.0264,0.211985 0.08,0.318217 1.05993,2.464085 1.48342,3.868245 1.48342,5.77595 0,2.199904 -0.76853,3.339083 -1.24486,4.160444 -1.72277,2.941211 -4.50468,4.37259 -5.61824,4.743244 -0.18492,0.07925 -0.21134,0.212145 -0.21134,0.291399 v 5.988895 m 91.36807,64.532126 c 0,0.18572 0.15851,0.34423 0.34424,0.34423 0.13209,0 0.2914,-0.10567 0.31781,-0.21134 0,-0.0272 0.23857,-0.95426 0.26498,-1.03351 0.0264,-0.10647 0.26499,-1.11356 1.21924,-2.67623 1.0335,-1.72278 2.62339,-2.96843 3.9483,-4.8233 1.29849,-1.854864 2.09343,-3.60326 2.09343,-5.935254 0,-2.411249 -0.55718,-4.425426 -1.96134,-6.995183 -0.0793,-0.185727 -0.23856,-0.2922 -0.39707,-0.2922 -0.0536,0 -0.10648,0 -0.13289,0.02722 -0.13209,0.05284 -0.18573,0.158509 -0.18573,0.317818 0,0.07925 0.0272,0.212145 0.08,0.317817 1.05993,2.464085 1.48342,3.869045 1.48342,5.77675 0,2.199104 -0.76853,3.338282 -1.24485,4.159644 -1.72278,2.942008 -4.50468,4.372588 -5.61824,4.743238 -0.18493,0.0801 -0.21135,0.21215 -0.21135,0.2914 v 5.9889 m 173.5983,44.15972 v 22.05352 H 405.496 V 153.02352 Z M 231.23529,86.836702 V 108.8638 h 0.66201 V 86.836702 Z m 11.8753,3.309455 v 20.398783 h 0.66202 V 90.146157 Z M 521.34412,74.142399 v 20.451639 h 0.66202 V 74.142399 Z m 17.81296,0 v 20.451639 h 0.66202 V 74.142399 Z m -322.55977,0 v 20.451639 h 0.66202 V 74.142399 Z m 325.15108,85.500181 v 20.39863 h 0.66201 V 159.64258 Z M 190.84205,86.836702 v 22.053518 h 0.66201 V 86.836702 Z M 139.86719,23.959334 v 20.37237 h 0.66202 v -20.37237 z m 39.09955,59.567922 v 22.027094 h 0.66202 V 83.527256 Z M 124.91776,4.6458182 V 25.097769 h 0.66216 V 4.6458182 Z M 574.55003,80.217801 v 22.053519 h 0.66201 V 80.217801 Z M 96.919388,9.6404829 V 28.407223 h 0.662173 V 9.6404829 Z M 156.38567,80.217801 v 22.053519 h 0.66202 V 80.217801 Z m 370.88485,76.115319 v 22.02695 h 0.66201 V 156.33312 Z M 159.84882,4.6458182 V 25.097769 H 160.511 V 4.6458182 Z M 597.13109,83.527256 v 22.027094 h 0.66202 V 83.527256 Z M 136.3304,74.142399 v 20.451639 h 0.66201 V 74.142399 Z m 472.67601,12.694303 v 22.053518 h 0.66201 V 86.836702 Z M 101.66826,83.527256 v 22.053514 h 0.66202 V 83.527256 Z m 525.1511,-3.309455 v 22.053519 h 0.66202 V 80.217801 Z M 91.798391,74.142399 v 20.451639 h 0.662013 V 74.142399 Z M 271.10896,86.836702 v 22.053518 h 0.66201 V 86.836702 Z m -213.972706,0 v 22.053518 h 0.662013 V 86.836702 Z M 649.40043,83.527256 v 22.027094 h 0.66202 V 83.527256 Z m 11.87452,3.309446 v 22.053518 h 0.66202 V 86.836702 Z m -88.34524,69.496418 v 22.05337 h 0.66201 V 156.33312 Z M 177.9068,4.6458182 V 25.097769 h 0.66201 V 4.6458182 Z M 507.68275,143.63882 v 20.45149 h 0.66201 V 143.63882 Z M 669.21789,4.6458182 V 25.097769 h 0.66216 V 4.6458182 Z M 478.02403,156.33312 v 22.05337 h 0.66201 V 156.33312 Z M 649.23626,23.959334 v 20.37237 h 0.66216 V 23.959334 Z M 613.44788,155.22112 v 22.10636 h 0.66202 V 155.22112 Z M 57.136254,146.4054 v 22.05352 h 0.662013 V 146.4054 Z m 32.575086,6.61812 v 22.05352 h 0.662013 V 153.02352 Z M 634.28681,4.6458182 V 25.097769 h 0.66217 V 4.6458182 Z M 111.42853,153.02352 v 22.05352 h 0.66217 V 153.02352 Z M 616.22806,4.6458182 V 25.097769 h 0.66217 V 4.6458182 Z M 79.720448,11.233916 V 31.71667 h 0.662169 V 11.233916 Z M 596.24643,23.959334 v 20.37237 h 0.66202 V 23.959334 Z M 458.6844,86.836702 v 22.053518 h 0.66202 V 86.836702 Z M 192.85702,23.959334 v 20.37237 h 0.66201 V 23.959334 Z M 162.18808,149.71407 v 22.05352 h 0.66201 V 149.71407 Z M 581.29699,4.6458182 V 25.097769 h 0.66217 V 4.6458182 Z M 463.54616,153.02352 v 22.02709 h 0.66202 V 153.02352 Z M 212.83787,4.6458182 V 25.097769 h 0.66217 V 4.6458182 Z M 446.8091,83.527256 v 22.027094 h 0.66201 V 83.527256 Z M 553.29863,9.6529914 V 28.407223 h 0.66216 V 9.6529914 Z M 189.71815,153.02352 v 22.02709 h 0.66202 v -22.02709 z m 216.6977,-66.186818 v 22.053518 h 0.66202 V 86.836702 Z M 541.26009,11.221408 V 31.71667 h 0.66201 V 11.221408 Z M 225.91244,149.71407 v 22.05352 h 0.66201 V 149.71407 Z M 514.17188,4.6458182 V 25.097769 h 0.66216 V 4.6458182 Z M 635.16429,155.22112 v 22.10636 h 0.66201 V 155.22112 Z M 496.11406,4.6458182 V 25.097769 h 0.66201 V 4.6458182 Z M 253.44251,153.02352 v 22.02709 h 0.66201 V 153.02352 Z M 461.0837,14.031141 v 22.053364 h 0.66202 V 14.031141 Z M 323.58327,85.724846 v 22.106214 h 0.66202 V 85.724846 Z M 232.89408,17.340435 v 22.053517 h 0.66201 V 17.340435 Z m 35.02629,138.992685 v 22.05337 h 0.66202 V 156.33312 Z M 441.02749,4.6458182 V 25.097769 h 0.66217 V 4.6458182 Z m -5.0114,145.0682518 v 22.05352 h 0.66202 V 149.71407 Z M 421.04663,23.959334 v 20.37237 h 0.66202 V 23.959334 Z M 305.77032,85.724846 v 22.106214 h 0.66201 V 85.724846 Z M 267.9235,4.6458182 V 25.097769 h 0.66217 V 4.6458182 Z M 299.10169,146.4054 v 22.05352 h 0.66202 V 146.4054 Z M 406.09641,4.6458182 V 25.097769 h 0.66202 V 4.6458182 Z M 371.95948,80.217801 v 22.053519 h 0.66201 V 80.217801 Z M 388.03844,4.6458182 V 25.097769 h 0.66217 V 4.6458182 Z M 326.63177,149.71407 v 22.02709 h 0.66202 V 149.71407 Z M 368.05681,23.959334 v 20.37237 h 0.66201 v -20.37237 z m 56.17122,56.258467 v 22.053519 h 0.66202 V 80.217801 Z m -83.1184,72.805719 v 22.05352 h 0.66202 v -22.05352 z m 21.7172,-6.61812 v 22.05352 h 0.66202 V 146.4054 Z M 353.10737,4.6458182 V 25.097769 h 0.66218 V 4.6458182 Z m -67.12512,0 V 25.097769 h 0.66217 V 4.6458182 Z m 27.08821,6.5755898 V 31.71667 h 0.66202 V 11.221408 Z m 81.47008,72.305848 v 22.027094 h 0.66202 V 83.527256 Z M 325.109,9.6529914 V 28.407223 h 0.66218 V 9.6529914 Z M 390.35612,149.71407 v 22.02709 h 0.66201 v -22.02709 z m 96.32665,-66.186814 v 22.053514 h 0.66201 V 83.527256 Z M 204.19602,156.33312 v 22.05337 h 0.66202 v -22.05337 z m 85.44123,-8.09443 v 27.20266 h 1.19113 V 148.23869 Z M 451.61911,9.2458378 V 36.448658 h 1.19127 V 9.2458378 Z m -228.18963,0 V 36.448658 h 1.19129 V 9.2458378 Z m 340.46092,0 V 36.448658 h 1.19113 V 9.2458378 Z M 152.72364,148.23869 v 27.20266 h 1.19113 V 148.23869 Z M 679.80887,78.742416 V 105.94493 H 681 V 78.742416 Z M 363.68785,95.653163 c 0,-0.768526 -0.60921,-1.404961 -1.37774,-1.404961 -0.76852,0 -1.37774,0.636435 -1.37774,1.404961 0,0.768525 0.60922,1.40416 1.37774,1.40416 0.76853,0 1.37774,-0.635635 1.37774,-1.40416 m 0,-6.618926 c 0,-0.768526 -0.60921,-1.40416 -1.37774,-1.40416 -0.76852,0 -1.37774,0.635634 -1.37774,1.40416 0,0.768525 0.60922,1.40416 1.37774,1.40416 0.76853,0 1.37774,-0.635635 1.37774,-1.40416 m -6.39558,-10.291821 v 27.202514 h 1.19127 V 78.742416 Z m -6.08933,0 v 27.202514 h 3.63999 V 78.742416 Z M 679.80887,9.2458378 V 36.448658 H 681 V 9.2458378 Z M 146.92123,78.742416 v 27.202514 h 1.19129 V 78.742416 Z m 418.16436,0 v 27.202514 h 1.19113 V 78.742416 Z m -1.62032,69.496274 v 27.20266 h 1.19112 V 148.23869 Z M 261.64452,78.742416 v 27.202514 h 1.19113 V 78.742416 Z M 107.51022,9.2458378 V 36.448658 h 1.19129 V 9.2458378 Z m 369.7081,69.4965782 v 27.202514 h 1.19114 V 78.742416 Z m 200.14122,69.496274 v 27.20266 h 3.64015 v -27.20266 z m -3.63967,0 v 27.20266 h 1.19113 v -27.20266 z m -2.44731,16.91079 c 0,-0.76852 -0.60921,-1.40496 -1.37774,-1.40496 -0.76852,0 -1.37774,0.63644 -1.37774,1.40496 0,0.76853 0.60922,1.40416 1.37774,1.40416 0.76853,0 1.37774,-0.63563 1.37774,-1.40416 m 0,-6.61893 c 0,-0.76852 -0.60921,-1.40416 -1.37774,-1.40416 -0.76852,0 -1.37774,0.63564 -1.37774,1.40416 0,0.76853 0.60922,1.40416 1.37774,1.40416 0.76853,0 1.37774,-0.63563 1.37774,-1.40416 M 351.20294,78.742416 v 27.202514 h 3.63999 V 78.742416 Z m -3.64046,0 v 27.202514 h 1.19113 V 78.742416 Z m -2.44652,16.910747 c 0,-0.768526 -0.60922,-1.404961 -1.37775,-1.404961 -0.76852,0 -1.37854,0.636435 -1.37854,1.404961 0,0.768525 0.61002,1.40416 1.37854,1.40416 0.76853,0 1.37775,-0.635635 1.37775,-1.40416 m 0,-6.618926 c 0,-0.768526 -0.60922,-1.40416 -1.37775,-1.40416 -0.76852,0 -1.37854,0.635634 -1.37854,1.40416 0,0.768525 0.61002,1.40416 1.37854,1.40416 0.76853,0 1.37775,-0.635635 1.37775,-1.40416 m 81.43569,59.204453 v 27.20266 h 1.19113 V 148.23869 Z M 335.69985,9.2458378 V 36.448658 h 1.19127 V 9.2458378 Z M 0,174.7132 v 0.72768 h 681 v -0.72768 z m 0,-6.61812 v 0.72768 h 681 v -0.72768 z m 0,-6.6189 v 0.72768 h 681 v -0.72768 z m 0,-6.6189 v 0.72768 h 681 v -0.72768 z m 0,-6.61891 v 0.72769 h 681 v -0.72769 z m 0,-43.02144 v 0.72769 h 681 v -0.72769 z m 0,-6.618121 v 0.727681 h 681 v -0.727681 z m 0,-6.618902 v 0.727682 h 681 v -0.727682 z m 0,-6.619054 v 0.727842 h 681 v -0.727842 z m 0,-6.618901 v 0.727681 H 681 V 78.741952 Z M 0,35.720656 v 0.727689 h 681 v -0.727689 z m 0,-6.618269 v 0.727841 h 681 v -0.727841 z m 0,-6.61906 v 0.727685 h 681 v -0.727685 z m 0,-6.618588 v 0.727684 H 681 V 15.864739 Z M 0,9.2459947 V 9.9736795 H 681 V 9.2459947 Z"
     style="stroke-width:0.0800547" />
  <metadata
     id="metadata252">
    <rdf:RDF>
      <cc:Work
         rdf:about="">
        <dc:title>air_XXI</dc:title>
      </cc:Work>
    </rdf:RDF>
  </metadata>
</svg>
