<?xml version="1.0" encoding="UTF-8" standalone="no"?>
<svg
   width="681"
   height="47.440197"
   version="1.2"
   id="svg72"
   xmlns="http://www.w3.org/2000/svg"
   xmlns:svg="http://www.w3.org/2000/svg"
   xmlns:rdf="http://www.w3.org/1999/02/22-rdf-syntax-ns#"
   xmlns:cc="http://creativecommons.org/ns#"
   xmlns:dc="http://purl.org/dc/elements/1.1/">
  <defs
     id="defs72" />
  <title
     id="title1">air_LXV</title>
  <desc
     id="desc1">Generated by MuseScore Studio 4.7.3</desc>
  <path
     id="path72"
     class="NoteDot"
     d="m 641.39534,19.864782 c 0,0.741948 0.58279,1.324906 1.3249,1.324906 0.74131,0 1.32491,-0.582958 1.32491,-1.324906 0,-0.741947 -0.5836,-1.324905 -1.32491,-1.324905 -0.74211,0 -1.3249,0.582958 -1.3249,1.324905 m -244.9651,18.193 16.17186,1.654731 v 3.326275 L 396.43024,41.384056 V 38.057782 M 435.39288,0 451.56474,1.6547314 V 4.981326 L 435.39288,3.3266746 V 0 M 262.02875,34.748319 278.2006,36.40305 v 3.326275 l -16.17185,-1.654732 v -3.326274 m -62.04082,3.309463 16.17185,1.654731 v 3.326275 l -16.17185,-1.654732 v -3.326274 m 31.02041,-1.654732 16.17185,-1.654731 v 3.326274 l -16.17185,1.654732 V 36.40305 M 33.669409,33.119205 v 1.960541 h -2.199104 c -0.185727,0 -0.370653,0.159309 -0.370653,0.371454 v 0.503544 c 0,0.211344 0.184926,0.370653 0.370653,0.370653 h 8.02869 c 0.212145,0 0.371454,-0.159309 0.371454,-0.370653 V 35.4512 c 0,-0.212145 -0.159309,-0.371454 -0.371454,-0.371454 h -2.384831 v -1.960541 h 2.384831 c 0.212145,0 0.371454,-0.185727 0.371454,-0.397872 v -0.502744 c 0,-0.185727 -0.159309,-0.371454 -0.371454,-0.371454 h -2.384831 v -4.21328 c 0,-0.158509 -0.07925,-0.2914 -0.184927,-0.344236 L 36.61062,27.13031 c -0.05284,-0.02642 -0.07925,-0.02642 -0.132091,-0.02642 -0.105672,0 -0.212145,0 -0.291399,0.08006 l -2.411249,2.199104 c -0.08005,0.07925 -0.106472,0.185727 -0.106472,0.291399 v 2.172685 h -3.073302 c 0,0 2.967629,-3.179774 6.094567,-7.366637 0.105673,-0.13209 0.132091,-0.264981 0.132091,-0.370653 0,-0.132891 -0.05284,-0.238563 -0.07925,-0.264981 l -0.582798,-0.582959 c -0.08005,-0.053 -0.159309,-0.105992 -0.264981,-0.105992 -0.159309,0 -3.736155,0 -3.9483,0 -0.185727,0 -0.317817,0.158989 -0.344235,0.318297 0,0 -0.132891,1.960541 -0.822162,4.106808 -0.688471,2.146268 -1.483415,3.471174 -2.172686,4.451844 0,0 -0.07925,0.132091 -0.07925,0.2914 0,0.05284 0,0.105672 0.02642,0.159309 0.07925,0.184926 0.264981,0.476325 0.264981,0.476325 0,0 0.05284,0.159309 0.291399,0.159309 h 4.557517 m 2.740273,-16.829747 c 2.11985,-0.821442 2.252741,-2.199344 2.252741,-2.67631 V 13.48066 c 0,-0.238483 -0.07925,-3.23277 -4.637571,-3.23277 -4.557517,0 -4.424626,3.23277 -4.424626,3.23277 h 0.02642 l -0.02642,0.053 c 0,0.953932 0.768526,1.695879 1.721978,1.695879 0.954252,0 1.69636,-0.741947 1.69636,-1.695879 0,-0.768446 -0.583599,-1.510393 -1.324906,-1.669382 l 0.07925,-0.07949 c 0.370653,-0.264981 0.874198,-0.397472 1.377742,-0.397472 1.112761,0 2.305576,0.662453 2.305576,2.093351 0,1.669382 -1.245651,1.907865 -1.563469,1.960861 -0.317817,0.053 -1.802032,0.158989 -2.119849,0.158989 -0.317817,0 -0.344236,0.370973 -0.344236,0.370973 v 0.529963 c 0,0 0.05284,0.291479 0.344236,0.317977 0.450708,0.0265 1.059925,0.0265 1.907704,0.158989 1.166398,0.158989 1.775614,0.953932 1.775614,2.8088 0,1.775374 -1.192815,2.25234 -2.305576,2.25234 -0.742108,0 -1.430578,-0.211984 -1.721978,-0.423969 0.874198,-0.053 1.589888,-0.821442 1.589888,-1.69588 0,-0.953932 -0.742108,-1.722378 -1.69636,-1.722378 -0.953452,0 -1.721978,0.768446 -1.721978,1.722378 0,2.172846 1.986959,3.259269 3.9483,3.259269 2.543339,0 5.299624,-0.874438 5.299624,-3.762733 0,-1.934363 -1.324906,-2.755804 -2.491304,-3.126778 h 0.05284 M 16.093311,35.251063 c -0.529962,0.106473 -1.033427,0.159309 -1.536891,0.159309 -3.789231,0 -7.0220012,-2.649812 -7.0220012,-6.650948 0,-3.23261 2.2788382,-6.121145 4.6106722,-8.135002 0.450468,-0.397472 0.874438,-0.768446 1.27191,-1.165917 0.238483,1.430898 0.42397,2.67631 0.609457,3.762732 -2.411329,0.71569 -4.0542123,3.259029 -4.0542123,5.750332 0,1.854868 1.4573963,4.398207 3.5772463,4.398207 0.211985,0 0.450468,-0.105672 0.450468,-0.344235 0,-0.238563 -0.264982,-0.370653 -0.582959,-0.582798 -1.033427,-0.636436 -1.616385,-1.324906 -1.616385,-2.623394 0,-1.616305 1.192415,-2.914793 2.755804,-3.285447 l 1.536891,8.717161 M 13.761477,8.0113177 c 0.238483,-1.0599247 1.457396,-3.8422271 2.835298,-3.8422271 0.397472,0 1.033427,1.2984078 1.033427,3.1267779 0,2.7558045 -2.040355,4.8226575 -3.868725,6.6245295 -0.158989,-1.059925 -0.29148,-2.093351 -0.29148,-3.206272 0,-0.9804306 0.0795,-1.8813666 0.29148,-2.7028083 m 6.094567,22.3379933 c 0,1.881287 -0.768446,3.815409 -2.649812,4.583935 -0.556461,-3.179775 -1.27191,-7.393055 -1.457397,-8.558652 2.384831,0 4.107209,1.616305 4.107209,3.974717 M 8.1968718,43.386225 c 0,1.749196 1.351404,4.053972 4.9286502,4.053972 1.245411,0 2.331834,-0.317817 3.285766,-0.900616 1.430899,-1.007088 1.801872,-2.755484 1.801872,-4.425426 0,-1.033506 -0.158988,-2.225521 -0.423969,-3.736154 -0.07949,-0.529963 -0.238484,-1.324906 -0.397472,-2.358413 2.596815,-0.847779 4.531178,-3.550427 4.531178,-6.279493 0,-4.001136 -2.835299,-6.704344 -6.704024,-6.704344 -0.264981,-1.589887 -0.529962,-3.153276 -0.768445,-4.637171 2.8088,-2.941291 4.743163,-6.253556 4.743163,-10.4667566 0,-2.4113288 -0.741948,-4.3721895 -1.165917,-5.3261218 -0.635955,-1.351404 -1.404401,-2.27883811 -1.881367,-2.27883811 -0.185487,0 -1.006928,0.31797742 -1.881366,1.35140401 -1.69588,2.013857 -2.172846,5.4056161 -2.172846,7.631458 0,1.4308985 0.132491,2.7293065 0.582959,5.6970955 -0.0265,0.0265 -1.404401,1.430898 -1.960861,1.881366 -2.4113287,2.25234 -5.7500916,5.458613 -5.7500916,10.758476 0,4.954588 4.3191932,8.850052 9.2478436,8.850052 0.768445,0 1.483894,-0.07926 2.093351,-0.185727 0.503464,2.544139 0.794943,4.399007 0.794943,5.803167 0,2.756285 -1.4044,4.213281 -4.08071,4.213281 -0.635955,0 -1.192415,-0.13209 -1.245411,-0.13209 -0.0265,-0.02642 -0.07949,-0.05284 -0.07949,-0.08006 0,-0.05284 0.053,-0.07925 0.132491,-0.105672 1.245412,-0.185727 2.490823,-1.245652 2.490823,-2.941211 0,-1.430578 -1.086423,-2.941211 -3.073782,-2.941211 -1.8548679,0 -3.0472832,1.510633 -3.0472832,3.259028 M 396.43024,20.977703 c 0,1.13942 0.82136,2.411649 2.96763,2.411649 2.75549,0 5.64386,-2.25266 5.64386,-4.584494 0,-1.563389 -1.32491,-2.437827 -2.96763,-2.437827 -2.57056,0 -5.64386,2.172846 -5.64386,4.610672 m 177.05466,0 c 0,1.13942 0.82136,2.411649 2.96763,2.411649 2.75629,0 5.64466,-2.25266 5.64466,-4.584494 0,-1.563389 -1.3249,-2.437827 -2.96843,-2.437827 -2.56976,0 -5.64386,2.172846 -5.64386,4.610672 m -342.47656,0 c 0,1.13942 0.82136,2.411649 2.96762,2.411649 2.75549,0 5.64386,-2.25266 5.64386,-4.584494 0,-1.563389 -1.3249,-2.437827 -2.96763,-2.437827 -2.57055,0 -5.64385,2.172846 -5.64385,4.610672 M 550.2194,17.668321 c 0,1.139419 0.82136,2.411328 2.96842,2.411328 2.75549,0 5.64386,-2.25234 5.64386,-4.584174 0,-1.563389 -1.3249,-2.437827 -2.96763,-2.437827 -2.57055,0 -5.64465,2.172846 -5.64465,4.610673 m 46.53101,-3.309303 c 0,1.139419 0.82136,2.411329 2.96763,2.411329 2.75548,0 5.64386,-2.25234 5.64386,-4.584175 0,-1.563389 -1.32491,-2.4378266 -2.96763,-2.4378266 -2.57056,0 -5.64386,2.1728456 -5.64386,4.6106726 m -350.23227,0 c 0,1.139419 0.82136,2.411329 2.96763,2.411329 2.75628,0 5.64466,-2.25234 5.64466,-4.584175 0,-1.563389 -1.32491,-2.4378266 -2.96843,-2.4378266 -2.56976,0 -5.64386,2.1728456 -5.64386,4.6106726 M 53.098693,20.977703 c 0,1.13942 0.821362,2.411649 2.967629,2.411649 2.756285,0 5.64466,-2.25266 5.64466,-4.584494 0,-1.563389 -1.324906,-2.437827 -2.96843,-2.437827 -2.569757,0 -5.643859,2.172846 -5.643859,4.610672 m 464.391127,0 c 0,1.13942 0.82136,2.411649 2.96763,2.411649 2.75548,0 5.64385,-2.25266 5.64385,-4.584494 0,-1.563389 -1.3249,-2.437827 -2.96762,-2.437827 -2.57056,0 -5.64386,2.172846 -5.64386,4.610672 M 262.02875,17.668321 c 0,1.139419 0.82136,2.411328 2.96762,2.411328 2.75549,0 5.64386,-2.25234 5.64386,-4.584174 0,-1.563389 -1.3249,-2.437827 -2.96763,-2.437827 -2.57055,0 -5.64385,2.172846 -5.64385,4.610673 m 232.19556,6.618445 c 0,1.139979 0.82136,2.411249 2.96763,2.411249 2.75628,0 5.64386,-2.25194 5.64386,-4.583854 0,-1.563389 -1.32491,-2.437827 -2.96763,-2.437827 -2.56976,0 -5.64386,2.172845 -5.64386,4.610432 m 137.24344,-2.143145 c -0.8742,0 -1.05993,-0.71545 -1.05993,-0.953933 0,-1.298407 4.45185,-3.577246 5.6967,-3.577246 0.63643,0 1.05992,0.370974 1.05992,0.953933 0,1.324906 -4.47746,3.577246 -5.69669,3.577246 m 3.6569,-5.77659 c -2.57056,0 -5.64466,2.146347 -5.64466,4.610672 0,1.13942 0.82216,2.411649 2.96843,2.411649 2.75548,0 5.64386,-2.25266 5.64386,-4.584494 0,-1.563389 -1.32491,-2.437827 -2.96763,-2.437827 M 470.9588,27.596229 c 0,1.139179 0.82136,2.411249 2.96763,2.411249 2.75628,0 5.64466,-2.25194 5.64466,-4.583935 0,-1.563469 -1.32491,-2.437827 -2.96763,-2.437827 -2.57056,0 -5.64466,2.172846 -5.64466,4.610513 M 277.53855,20.977703 c 0,1.13942 0.82136,2.411649 2.96763,2.411649 2.75628,0 5.64466,-2.25266 5.64466,-4.584494 0,-1.563389 -1.32491,-2.437827 -2.96843,-2.437827 -2.56976,0 -5.64386,2.172846 -5.64386,4.610672 M 134.34704,18.834238 c -0.87499,0 -1.05992,-0.715449 -1.05992,-0.953932 0,-1.298408 4.45184,-3.577246 5.69669,-3.577246 0.63644,0 1.05993,0.370973 1.05993,0.953932 0,1.324906 -4.47826,3.577246 -5.6967,3.577246 m 3.6569,-5.77659 c -2.57055,0 -5.64466,2.146348 -5.64466,4.610673 0,1.139419 0.82137,2.411328 2.96763,2.411328 2.75629,0 5.64466,-2.25234 5.64466,-4.584174 0,-1.563389 -1.3249,-2.437827 -2.96763,-2.437827 m -61.639739,1.30137 c 0,1.139419 0.821362,2.411329 2.967629,2.411329 2.756282,0 5.643856,-2.25234 5.643856,-4.584175 0,-1.563389 -1.324906,-2.4378266 -2.967629,-2.4378266 -2.569754,0 -5.643856,2.1728456 -5.643856,4.6106726 M 442.96046,30.905692 c 0,1.139179 0.82216,2.411248 2.96843,2.411248 2.75548,0 5.64386,-2.251939 5.64386,-4.583934 0,-1.563469 -1.32491,-2.437667 -2.96763,-2.437667 -2.57056,0 -5.64466,2.172686 -5.64466,4.610353 M 307.52385,25.453164 c -0.8742,0 -1.05992,-0.71569 -1.05992,-0.954253 0,-1.298328 4.45184,-3.577166 5.69749,-3.577166 0.63564,0 1.05993,0.370974 1.05993,0.953932 0,1.324906 -4.47826,3.577487 -5.6975,3.577487 m 3.6569,-5.77683 c -2.57055,0 -5.64386,2.146347 -5.64386,4.610432 0,1.139979 0.82137,2.411249 2.96763,2.411249 2.75549,0 5.64386,-2.25194 5.64386,-4.583854 0,-1.563389 -1.3249,-2.437827 -2.96763,-2.437827 m -111.19282,1.301369 c 0,1.13942 0.82136,2.411649 2.96762,2.411649 2.75549,0 5.64386,-2.25266 5.64386,-4.584494 0,-1.563389 -1.3249,-2.437827 -2.96763,-2.437827 -2.57055,0 -5.64385,2.172846 -5.64385,4.610672 m 227.46272,0 c 0,1.13942 0.82136,2.411649 2.96763,2.411649 2.75629,0 5.64386,-2.25266 5.64386,-4.584494 0,-1.563389 -1.32491,-2.437827 -2.96763,-2.437827 -2.56976,0 -5.64386,2.172846 -5.64386,4.610672 M 99.629706,11.049635 c 0,1.139419 0.821364,2.411329 2.967624,2.411329 2.75549,0 5.64386,-2.25234 5.64386,-4.5841745 0,-1.563389 -1.3249,-2.4378269 -2.96763,-2.4378269 -2.57055,0 -5.643854,2.1728457 -5.643854,4.6106724 M 411.94005,24.286766 c 0,1.139979 0.82136,2.411249 2.96843,2.411249 2.75548,0 5.64386,-2.25194 5.64386,-4.583854 0,-1.563389 -1.32491,-2.437827 -2.96763,-2.437827 -2.57056,0 -5.64466,2.172845 -5.64466,4.610432 m -38.77532,-3.309063 c 0,1.13942 0.82137,2.411649 2.96763,2.411649 2.75629,0 5.64466,-2.25266 5.64466,-4.584494 0,-1.563389 -1.3249,-2.437827 -2.96843,-2.437827 -2.56975,0 -5.64386,2.172846 -5.64386,4.610672 m -32.72957,3.309063 c 0,1.139979 0.82136,2.411249 2.96762,2.411249 2.75549,0 5.64386,-2.25194 5.64386,-4.583854 0,-1.563389 -1.3249,-2.437827 -2.96763,-2.437827 -2.57055,0 -5.64385,2.172845 -5.64385,4.610432 m -124.93743,0 c 0,1.139979 0.82136,2.411249 2.96763,2.411249 2.75628,0 5.64466,-2.25194 5.64466,-4.583854 0,-1.563389 -1.32491,-2.437827 -2.96843,-2.437827 -2.56976,0 -5.64386,2.172845 -5.64386,4.610432 m -48.24018,0 c 0,1.139979 0.82136,2.411249 2.96763,2.411249 2.75628,0 5.64385,-2.25194 5.64385,-4.583854 0,-1.563389 -1.3249,-2.437827 -2.96763,-2.437827 -2.56975,0 -5.64385,2.172845 -5.64385,4.610432 m 32.72997,-3.310101 v 18.778309 h 0.66202 V 20.976665 Z m 173.17763,0 v 20.398633 h 0.66201 V 20.976665 Z M 99.629369,11.048627 v 22.053831 h 0.662011 V 11.048627 Z M 435.39332,1.6972333 V 18.805806 h 0.66202 V 1.6972333 Z M 132.35972,17.667371 v 22.053204 h 0.66201 V 17.667371 Z m 208.07508,6.618586 v 18.744065 h 0.66202 V 24.285957 Z M 450.90314,3.2840991 V 28.733847 h 0.66202 V 3.2840991 Z M 305.53657,24.285957 v 18.744065 h 0.66201 V 24.285957 Z M 76.363777,14.357921 v 22.053984 h 0.662012 V 14.357921 Z m 90.893393,9.928036 v 18.744065 h 0.66201 V 24.285957 Z M 478.9015,4.9727537 V 25.424392 h 0.66202 V 4.9727537 Z M 277.5382,20.976665 v 17.055571 h 0.66202 V 20.976665 Z m 216.68566,3.309292 v 18.744065 h 0.66217 V 24.285957 Z m 23.2656,-3.309292 v 20.398633 h 0.66201 V 20.976665 Z M 262.02838,17.667371 V 36.44552 h 0.66201 V 17.667371 Z M 53.099118,20.976665 V 41.375298 H 53.76113 V 20.976665 Z M 246.51777,14.357921 V 36.44552 h 0.66201 V 14.357921 Z m 303.70203,3.30945 v 22.053204 h 0.66202 V 17.667371 Z m 23.26466,3.309294 v 20.398633 h 0.66217 V 20.976665 Z m -342.47651,0 v 17.055571 h 0.66201 V 20.976665 Z m 365.7421,-6.618744 v 22.053984 h 0.66202 V 14.357921 Z m -381.2527,9.928036 v 17.055726 h 0.66201 V 24.285957 Z m 413.98306,-3.309292 v 20.398633 h 0.66201 V 20.976665 Z m -217.54,3.309292 v 17.055726 h 0.66202 V 24.285957 Z M 396.4298,20.976665 v 18.778309 h 0.66202 V 20.976665 Z M 71.717632,4.5029012 C 65.704689,4.6307671 59.777636,8.058 57.250084,13.841787 a 0.16531304,0.16531304 0 0 0 -9.61e-4,0.05129 0.16531304,0.16531304 0 0 0 -0.0011,0.06114 0.16531304,0.16531304 0 0 0 0.03518,0.05097 0.16531304,0.16531304 0 0 0 0.02877,0.04159 0.16531304,0.16531304 0 0 0 0.0094,-0.002 0.16531304,0.16531304 0 0 0 0.01407,0.0147 0.16531304,0.16531304 0 0 0 0.189818,-0.05863 0.16531304,0.16531304 0 0 0 0.01532,-0.0033 C 59.692017,10.660896 63.657705,8.1568804 67.988938,6.924714 72.320172,5.6925483 77.010219,5.7340983 80.596147,7.4385029 A 0.16532957,0.16532957 0 0 0 80.761108,7.1531517 C 78.040555,5.2740893 74.867217,4.4359251 71.717584,4.502902 Z m 0.0051,0.3344479 c 2.46202,-0.05359 4.936392,0.4609864 7.187731,1.6031274 C 75.552622,5.4154188 71.596269,5.554706 67.898421,6.6066837 64.200756,7.6586102 60.763926,9.6225402 58.448679,12.261331 61.257112,7.6496776 66.456635,4.9519747 71.722755,4.8373491 Z M 57.401635,13.907909 C 61.209839,5.1936311 72.841793,1.8843284 80.66714,7.289224 73.396572,3.8335011 61.763818,7.1428039 57.401635,13.907909 M 243.17533,2.8256608 C 227.52872,3.0231879 211.84624,6.7134751 204.17804,13.786436 a 0.16531304,0.16531304 0 0 0 -0.0169,0.213428 0.16531304,0.16531304 0 0 0 -10e-4,0.01001 0.16531304,0.16531304 0 0 0 0.006,0.0034 0.16531304,0.16531304 0 0 0 0.002,0.0067 0.16531304,0.16531304 0 0 0 0.0102,4.81e-4 0.16531304,0.16531304 0 0 0 0.21327,0.01751 c 7.5424,-5.9065588 23.18699,-9.0963606 38.78788,-9.2933209 15.60088,-0.1969594 31.16951,2.6010689 38.55886,8.4983109 a 0.16532957,0.16532957 0 0 0 0.21624,-0.249702 C 274.43233,5.9217025 258.82194,2.6281338 243.17533,2.8256608 Z m 0.004,0.3305388 c 13.64406,-0.1722465 27.25858,2.3507962 35.40311,7.6375654 -8.25849,-4.4849586 -21.81353,-6.5512946 -35.40734,-6.3796741 -13.59235,0.1716022 -27.20084,2.5820159 -35.56916,7.1512951 8.26143,-5.3715974 21.93189,-8.2369726 35.57339,-8.4091864 z m -38.8895,10.7517094 c 15.2128,-14.03191379 62.63642,-14.8154095 77.55142,-0.794223 -14.915,-11.9032584 -62.33862,-11.1196826 -77.55142,0.794223 m 91.7819,-4.3351348 V 36.775281 h 1.19128 V 9.5727742 Z m -173.17669,0 V 36.775281 h 1.19112 V 9.5727742 Z m 240.80465,0 V 36.775281 h 1.19112 V 9.5727742 Z m 97.79405,0 V 36.775281 h 1.19112 V 9.5727742 Z m 79.26138,0 V 36.775281 h 1.19113 V 9.5727742 Z m 79.2606,0 V 36.775281 h 1.19113 V 9.5727742 Z m 57.34358,0 V 36.775281 h 3.64015 V 9.5727742 Z m -3.63967,0 V 36.775281 H 674.911 V 9.5727742 Z m -483.19679,0 V 36.775281 h 1.19112 V 9.5727742 Z M 0,36.048064 v 0.727681 H 681 V 36.048064 Z M 0,29.42901 v 0.727842 H 681 V 29.42901 Z m 0,-6.618747 v 0.727687 h 681 v -0.727687 z m 0,-6.618745 v 0.727686 H 681 V 16.191518 Z M 0,9.5729303 V 10.300616 H 681 V 9.5729303 Z"
     style="stroke-width:0.0800547" />
  <metadata
     id="metadata72">
    <rdf:RDF>
      <cc:Work
         rdf:about="">
        <dc:title>air_LXV</dc:title>
      </cc:Work>
    </rdf:RDF>
  </metadata>
</svg>
