<?xml version="1.0" encoding="UTF-8" standalone="no"?>
<svg width="210.058mm" height="296.926mm" viewBox="0 0 9924 14028"
 xmlns="http://www.w3.org/2000/svg" xmlns:xlink="http://www.w3.org/1999/xlink" version="1.2" baseProfile="full">
<title>air_XVII</title>
<desc>Generated by MuseScore Studio 4.7.3</desc>
<polyline class="StaffLines" fill="none" stroke="#000000" stroke-width="9.09" stroke-linejoin="bevel" points="708.661,832.677 9215.34,832.677" />
<polyline class="StaffLines" fill="none" stroke="#000000" stroke-width="9.09" stroke-linejoin="bevel" points="708.661,915.354 9215.34,915.354" />
<polyline class="StaffLines" fill="none" stroke="#000000" stroke-width="9.09" stroke-linejoin="bevel" points="708.661,998.031 9215.34,998.031" />
<polyline class="StaffLines" fill="none" stroke="#000000" stroke-width="9.09" stroke-linejoin="bevel" points="708.661,1080.71 9215.34,1080.71" />
<polyline class="StaffLines" fill="none" stroke="#000000" stroke-width="9.09" stroke-linejoin="bevel" points="708.661,1163.39 9215.34,1163.39" />
<polyline class="StaffLines" fill="none" stroke="#000000" stroke-width="9.09" stroke-linejoin="bevel" points="708.661,1700.79 9215.34,1700.79" />
<polyline class="StaffLines" fill="none" stroke="#000000" stroke-width="9.09" stroke-linejoin="bevel" points="708.661,1783.46 9215.34,1783.46" />
<polyline class="StaffLines" fill="none" stroke="#000000" stroke-width="9.09" stroke-linejoin="bevel" points="708.661,1866.14 9215.34,1866.14" />
<polyline class="StaffLines" fill="none" stroke="#000000" stroke-width="9.09" stroke-linejoin="bevel" points="708.661,1948.82 9215.34,1948.82" />
<polyline class="StaffLines" fill="none" stroke="#000000" stroke-width="9.09" stroke-linejoin="bevel" points="708.661,2031.5 9215.34,2031.5" />
<polyline class="StaffLines" fill="none" stroke="#000000" stroke-width="9.09" stroke-linejoin="bevel" points="708.661,2568.9 9215.34,2568.9" />
<polyline class="StaffLines" fill="none" stroke="#000000" stroke-width="9.09" stroke-linejoin="bevel" points="708.661,2651.57 9215.34,2651.57" />
<polyline class="StaffLines" fill="none" stroke="#000000" stroke-width="9.09" stroke-linejoin="bevel" points="708.661,2734.25 9215.34,2734.25" />
<polyline class="StaffLines" fill="none" stroke="#000000" stroke-width="9.09" stroke-linejoin="bevel" points="708.661,2816.93 9215.34,2816.93" />
<polyline class="StaffLines" fill="none" stroke="#000000" stroke-width="9.09" stroke-linejoin="bevel" points="708.661,2899.61 9215.34,2899.61" />
<polyline class="BarLine" fill="none" stroke="#000000" stroke-width="14.88" stroke-linejoin="bevel" points="5311.67,828.13 5311.67,1167.93" />
<polyline class="BarLine" fill="none" stroke="#000000" stroke-width="14.88" stroke-linejoin="bevel" points="9131.84,2564.35 9131.84,2904.15" />
<polyline class="BarLine" fill="none" stroke="#000000" stroke-width="45.47" stroke-linejoin="bevel" points="9192.6,2564.35 9192.6,2904.15" />
<polyline class="BarLine" fill="none" stroke="#000000" stroke-width="14.88" stroke-linejoin="bevel" points="7647.74,2564.35 7647.74,2904.15" />
<polyline class="BarLine" fill="none" stroke="#000000" stroke-width="14.88" stroke-linejoin="bevel" points="5408.4,2564.35 5408.4,2904.15" />
<polyline class="BarLine" fill="none" stroke="#000000" stroke-width="14.88" stroke-linejoin="bevel" points="3460.31,2564.35 3460.31,2904.15" />
<polyline class="BarLine" fill="none" stroke="#000000" stroke-width="14.88" stroke-linejoin="bevel" points="9207.9,1696.24 9207.9,2036.04" />
<polyline class="BarLine" fill="none" stroke="#000000" stroke-width="14.88" stroke-linejoin="bevel" points="7750.54,1696.24 7750.54,2036.04" />
<polyline class="BarLine" fill="none" stroke="#000000" stroke-width="14.88" stroke-linejoin="bevel" points="2677.19,828.13 2677.19,1167.93" />
<polyline class="BarLine" fill="none" stroke="#000000" stroke-width="14.88" stroke-linejoin="bevel" points="6565.56,1696.24 6565.56,2036.04" />
<polyline class="BarLine" fill="none" stroke="#000000" stroke-width="14.88" stroke-linejoin="bevel" points="5249.42,1696.24 5249.42,2036.04" />
<polyline class="BarLine" fill="none" stroke="#000000" stroke-width="14.88" stroke-linejoin="bevel" points="6787.27,828.13 6787.27,1167.93" />
<polyline class="BarLine" fill="none" stroke="#000000" stroke-width="14.88" stroke-linejoin="bevel" points="8049.02,828.13 8049.02,1167.93" />
<polyline class="BarLine" fill="none" stroke="#000000" stroke-width="14.88" stroke-linejoin="bevel" points="9207.9,828.13 9207.9,1167.93" />
<polyline class="BarLine" fill="none" stroke="#000000" stroke-width="14.88" stroke-linejoin="bevel" points="2763.53,1696.24 2763.53,2036.04" />
<polyline class="BarLine" fill="none" stroke="#000000" stroke-width="14.88" stroke-linejoin="bevel" points="3836.07,828.13 3836.07,1167.93" />
<path class="BarLine" d="M3839.91,1824.8 C3839.91,1815.2 3832.3,1807.26 3822.7,1807.26 C3813.1,1807.26 3805.49,1815.2 3805.49,1824.8 C3805.49,1834.4 3813.1,1842.35 3822.7,1842.35 C3832.3,1842.35 3839.91,1834.4 3839.91,1824.8"/>
<path class="BarLine" d="M3839.91,1907.48 C3839.91,1897.88 3832.3,1889.94 3822.7,1889.94 C3813.1,1889.94 3805.49,1897.88 3805.49,1907.48 C3805.49,1917.08 3813.1,1925.02 3822.7,1925.02 C3832.3,1925.02 3839.91,1917.08 3839.91,1907.48"/>
<polyline class="BarLine" fill="none" stroke="#000000" stroke-width="14.88" stroke-linejoin="bevel" points="3877.92,1696.24 3877.92,2036.04" />
<polyline class="BarLine" fill="none" stroke="#000000" stroke-width="45.47" stroke-linejoin="bevel" points="3938.69,1696.24 3938.69,2036.04" />
<polyline class="BarLine" fill="none" stroke="#000000" stroke-width="45.47" stroke-linejoin="bevel" points="3938.69,1696.24 3938.69,2036.04" />
<polyline class="BarLine" fill="none" stroke="#000000" stroke-width="14.88" stroke-linejoin="bevel" points="3999.45,1696.24 3999.45,2036.04" />
<path class="BarLine" d="M4071.91,1824.8 C4071.91,1815.2 4064.29,1807.26 4054.69,1807.26 C4045.09,1807.26 4037.48,1815.2 4037.48,1824.8 C4037.48,1834.4 4045.09,1842.35 4054.69,1842.35 C4064.29,1842.35 4071.91,1834.4 4071.91,1824.8"/>
<path class="BarLine" d="M4071.91,1907.48 C4071.91,1897.88 4064.29,1889.94 4054.69,1889.94 C4045.09,1889.94 4037.48,1897.88 4037.48,1907.48 C4037.48,1917.08 4045.09,1925.02 4054.69,1925.02 C4064.29,1925.02 4071.91,1917.08 4071.91,1907.48"/>
<path class="SlurSegment" stroke="#000000" stroke-width="4.13" stroke-linecap="round" stroke-linejoin="round" fill-rule="evenodd" d="M5572.93,2549.88 C5705.5,2431.96 5970.64,2431.96 6103.21,2549.88 C5970.64,2458.42 5705.5,2458.42 5572.93,2549.88"/>
<path class="SlurSegment" stroke="#000000" stroke-width="4.13" stroke-linecap="round" stroke-linejoin="round" fill-rule="evenodd" d="M2067.12,1899.21 C2168.88,2025.01 2424.49,2100.66 2578.33,2050.51 C2416.98,2126.03 2161.37,2050.38 2067.12,1899.21"/>
<path class="SlurSegment" stroke="#000000" stroke-width="4.13" stroke-linecap="round" stroke-linejoin="round" fill-rule="evenodd" d="M1385.5,1681.77 C1422.39,1609.01 1507.59,1601.98 1555.9,1667.72 C1509.24,1621.98 1424.04,1629.01 1385.5,1681.77"/>
<path class="SlurSegment" stroke="#000000" stroke-width="4.13" stroke-linecap="round" stroke-linejoin="round" fill-rule="evenodd" d="M6633.49,2767.32 C6751.87,2878.99 7017.01,2920.33 7163.77,2850 C7012.94,2946.47 6747.8,2905.13 6633.49,2767.32"/>
<path class="SlurSegment" stroke="#000000" stroke-width="4.13" stroke-linecap="round" stroke-linejoin="round" fill-rule="evenodd" d="M7915.07,1681.77 C8000.27,1584.61 8170.68,1584.61 8255.88,1681.77 C8170.68,1611.07 8000.27,1611.07 7915.07,1681.77"/>
<polyline class="Stem" fill="none" stroke="#000000" stroke-width="8.27" stroke-linejoin="bevel" points="4534.18,2059.61 4534.18,1783.46" />
<polyline class="Stem" fill="none" stroke="#000000" stroke-width="8.27" stroke-linejoin="bevel" points="4179.36,1797.35 4179.36,2072.83" />
<polyline class="Stem" fill="none" stroke="#000000" stroke-width="8.27" stroke-linejoin="bevel" points="5463.55,1894.25 5463.55,1638.78" />
<polyline class="Stem" fill="none" stroke="#000000" stroke-width="8.27" stroke-linejoin="bevel" points="4955.12,1026.14 4955.12,812.459" />
<polyline class="Stem" fill="none" stroke="#000000" stroke-width="8.27" stroke-linejoin="bevel" points="8531.97,2748.14 8531.97,2982.28" />
<polyline class="Stem" fill="none" stroke="#000000" stroke-width="8.27" stroke-linejoin="bevel" points="5036.89,1011.92 5036.89,1246.06" />
<polyline class="Stem" fill="none" stroke="#000000" stroke-width="8.27" stroke-linejoin="bevel" points="8366.04,2762.36 8366.04,2507.55" />
<polyline class="Stem" fill="none" stroke="#000000" stroke-width="8.27" stroke-linejoin="bevel" points="4774.14,1067.48 4774.14,832.225" />
<polyline class="Stem" fill="none" stroke="#000000" stroke-width="8.27" stroke-linejoin="bevel" points="5719.16,1935.59 5719.16,1701.27" />
<polyline class="Stem" fill="none" stroke="#000000" stroke-width="8.27" stroke-linejoin="bevel" points="5525.8,943.464 5525.8,729.796" />
<polyline class="Stem" fill="none" stroke="#000000" stroke-width="8.27" stroke-linejoin="bevel" points="7861.88,2803.7 7861.88,2527.56" />
<polyline class="Stem" fill="none" stroke="#000000" stroke-width="8.27" stroke-linejoin="bevel" points="1629.58,1191.5 1629.58,915.354" />
<polyline class="Stem" fill="none" stroke="#000000" stroke-width="8.27" stroke-linejoin="bevel" points="5706.79,984.803 5706.79,750.155" />
<polyline class="Stem" fill="none" stroke="#000000" stroke-width="8.27" stroke-linejoin="bevel" points="7478.51,2803.7 7478.51,2527.24" />
<polyline class="Stem" fill="none" stroke="#000000" stroke-width="8.27" stroke-linejoin="bevel" points="5887.77,1026.14 5887.77,770.514" />
<polyline class="Stem" fill="none" stroke="#000000" stroke-width="8.27" stroke-linejoin="bevel" points="7213.37,2762.36 7213.37,2506.78" />
<polyline class="Stem" fill="none" stroke="#000000" stroke-width="8.27" stroke-linejoin="bevel" points="6068.75,1067.48 6068.75,790.873" />
<polyline class="Stem" fill="none" stroke="#000000" stroke-width="8.27" stroke-linejoin="bevel" points="6948.23,2721.02 6948.23,2486.33" />
<polyline class="Stem" fill="none" stroke="#000000" stroke-width="8.27" stroke-linejoin="bevel" points="6150.52,1011.92 6150.52,1224.94" />
<polyline class="Stem" fill="none" stroke="#000000" stroke-width="8.27" stroke-linejoin="bevel" points="6683.09,2679.68 6683.09,2465.87" />
<polyline class="Stem" fill="none" stroke="#000000" stroke-width="8.27" stroke-linejoin="bevel" points="6318.74,2748.14 6318.74,2961.51" />
<polyline class="Stem" fill="none" stroke="#000000" stroke-width="8.27" stroke-linejoin="bevel" points="6331.5,970.582 6331.5,1205.18" />
<polyline class="Stem" fill="none" stroke="#000000" stroke-width="8.27" stroke-linejoin="bevel" points="6053.6,2665.46 6053.6,2954.69" />
<polyline class="Stem" fill="none" stroke="#000000" stroke-width="8.27" stroke-linejoin="bevel" points="6512.49,929.244 6512.49,1204.72" />
<polyline class="Stem" fill="none" stroke="#000000" stroke-width="8.27" stroke-linejoin="bevel" points="5788.46,2624.13 5788.46,2947.87" />
<polyline class="Stem" fill="none" stroke="#000000" stroke-width="8.27" stroke-linejoin="bevel" points="4593.15,1191.5 4593.15,853.191" />
<polyline class="Stem" fill="none" stroke="#000000" stroke-width="8.27" stroke-linejoin="bevel" points="5523.32,2665.46 5523.32,2941.05" />
<polyline class="Stem" fill="none" stroke="#000000" stroke-width="8.27" stroke-linejoin="bevel" points="7001.4,1191.5 7001.4,915.354" />
<polyline class="Stem" fill="none" stroke="#000000" stroke-width="8.27" stroke-linejoin="bevel" points="5139.95,2624.13 5139.95,2899.28" />
<polyline class="Stem" fill="none" stroke="#000000" stroke-width="8.27" stroke-linejoin="bevel" points="5014.6,1880.03 5014.6,2134.51" />
<polyline class="Stem" fill="none" stroke="#000000" stroke-width="8.27" stroke-linejoin="bevel" points="5889.56,1976.93 5889.56,1720.98" />
<polyline class="Stem" fill="none" stroke="#000000" stroke-width="8.27" stroke-linejoin="bevel" points="7345.54,1067.48 7345.54,792" />
<polyline class="Stem" fill="none" stroke="#000000" stroke-width="8.27" stroke-linejoin="bevel" points="4735,2927.72 4735,2651.57" />
<polyline class="Stem" fill="none" stroke="#000000" stroke-width="8.27" stroke-linejoin="bevel" points="7569.28,1067.48 7569.28,791.338" />
<polyline class="Stem" fill="none" stroke="#000000" stroke-width="8.27" stroke-linejoin="bevel" points="4370.65,2789.48 4370.65,3002.95" />
<polyline class="Stem" fill="none" stroke="#000000" stroke-width="8.27" stroke-linejoin="bevel" points="4105.51,2706.8 4105.51,3002.95" />
<polyline class="Stem" fill="none" stroke="#000000" stroke-width="8.27" stroke-linejoin="bevel" points="6059.97,2018.27 6059.97,1742.13" />
<polyline class="Stem" fill="none" stroke="#000000" stroke-width="8.27" stroke-linejoin="bevel" points="7814.21,1011.92 7814.21,1266.4" />
<polyline class="Stem" fill="none" stroke="#000000" stroke-width="8.27" stroke-linejoin="bevel" points="3840.37,2748.14 3840.37,3002.95" />
<polyline class="Stem" fill="none" stroke="#000000" stroke-width="8.27" stroke-linejoin="bevel" points="4412.17,1150.16 4412.17,846.405" />
<polyline class="Stem" fill="none" stroke="#000000" stroke-width="8.27" stroke-linejoin="bevel" points="3575.23,2789.48 3575.23,3002.95" />
<polyline class="Stem" fill="none" stroke="#000000" stroke-width="8.27" stroke-linejoin="bevel" points="8263.16,1026.14 8263.16,770.669" />
<polyline class="Stem" fill="none" stroke="#000000" stroke-width="8.27" stroke-linejoin="bevel" points="4789.79,2059.61 4789.79,1783.46" />
<polyline class="Stem" fill="none" stroke="#000000" stroke-width="8.27" stroke-linejoin="bevel" points="8534.63,1067.48 8534.63,833.128" />
<polyline class="Stem" fill="none" stroke="#000000" stroke-width="8.27" stroke-linejoin="bevel" points="1973.71,1067.48 1973.71,792" />
<polyline class="Stem" fill="none" stroke="#000000" stroke-width="8.27" stroke-linejoin="bevel" points="3191.86,2706.8 3191.86,2941.05" />
<polyline class="Stem" fill="none" stroke="#000000" stroke-width="8.27" stroke-linejoin="bevel" points="8715.61,1108.82 8715.61,852.895" />
<polyline class="Stem" fill="none" stroke="#000000" stroke-width="8.27" stroke-linejoin="bevel" points="2926.72,2665.46 2926.72,2947.87" />
<polyline class="Stem" fill="none" stroke="#000000" stroke-width="8.27" stroke-linejoin="bevel" points="8896.59,1150.16 8896.59,874.016" />
<polyline class="Stem" fill="none" stroke="#000000" stroke-width="8.27" stroke-linejoin="bevel" points="2661.58,2706.8 2661.58,2954.69" />
<polyline class="Stem" fill="none" stroke="#000000" stroke-width="8.27" stroke-linejoin="bevel" points="4231.19,1108.82 4231.19,839.618" />
<polyline class="Stem" fill="none" stroke="#000000" stroke-width="8.27" stroke-linejoin="bevel" points="2396.44,2748.14 2396.44,2961.51" />
<polyline class="Stem" fill="none" stroke="#000000" stroke-width="8.27" stroke-linejoin="bevel" points="2131.3,2665.46 2131.3,2899.71" />
<polyline class="Stem" fill="none" stroke="#000000" stroke-width="8.27" stroke-linejoin="bevel" points="1866.17,2624.13 1866.17,2906.53" />
<polyline class="Stem" fill="none" stroke="#000000" stroke-width="8.27" stroke-linejoin="bevel" points="1335.89,1797.35 1335.89,2073" />
<polyline class="Stem" fill="none" stroke="#000000" stroke-width="8.27" stroke-linejoin="bevel" points="1601.03,2665.46 1601.03,2913.35" />
<polyline class="Stem" fill="none" stroke="#000000" stroke-width="8.27" stroke-linejoin="bevel" points="1335.89,2706.8 1335.89,2920.17" />
<polyline class="Stem" fill="none" stroke="#000000" stroke-width="8.27" stroke-linejoin="bevel" points="1506.29,1756.02 1506.29,2079.78" />
<polyline class="Stem" fill="none" stroke="#000000" stroke-width="8.27" stroke-linejoin="bevel" points="2197.45,1067.48 2197.45,791.338" />
<polyline class="Stem" fill="none" stroke="#000000" stroke-width="8.27" stroke-linejoin="bevel" points="1676.69,1797.35 1676.69,2086.56" />
<polyline class="Stem" fill="none" stroke="#000000" stroke-width="8.27" stroke-linejoin="bevel" points="6383.99,1976.93 6383.99,1701.45" />
<polyline class="Stem" fill="none" stroke="#000000" stroke-width="8.27" stroke-linejoin="bevel" points="1847.1,1880.03 1847.1,2093.34" />
<polyline class="Stem" fill="none" stroke="#000000" stroke-width="8.27" stroke-linejoin="bevel" points="8973.08,1880.03 8973.08,2093.5" />
<polyline class="Stem" fill="none" stroke="#000000" stroke-width="8.27" stroke-linejoin="bevel" points="2116.72,1811.57 2116.72,1597.93" />
<polyline class="Stem" fill="none" stroke="#000000" stroke-width="8.27" stroke-linejoin="bevel" points="8802.68,1880.03 8802.68,2093.5" />
<polyline class="Stem" fill="none" stroke="#000000" stroke-width="8.27" stroke-linejoin="bevel" points="8547.07,1880.03 8547.07,2114.17" />
<polyline class="Stem" fill="none" stroke="#000000" stroke-width="8.27" stroke-linejoin="bevel" points="2287.12,1852.91 2287.12,1618.27" />
<polyline class="Stem" fill="none" stroke="#000000" stroke-width="8.27" stroke-linejoin="bevel" points="8376.67,1838.69 8376.67,2052" />
<polyline class="Stem" fill="none" stroke="#000000" stroke-width="8.27" stroke-linejoin="bevel" points="2457.52,1894.25 2457.52,1638.61" />
<polyline class="Stem" fill="none" stroke="#000000" stroke-width="8.27" stroke-linejoin="bevel" points="8206.27,1797.35 8206.27,2045.22" />
<polyline class="Stem" fill="none" stroke="#000000" stroke-width="8.27" stroke-linejoin="bevel" points="2627.93,1935.59 2627.93,1658.96" />
<polyline class="Stem" fill="none" stroke="#000000" stroke-width="8.27" stroke-linejoin="bevel" points="8035.86,1756.02 8035.86,2038.44" />
<polyline class="Stem" fill="none" stroke="#000000" stroke-width="8.27" stroke-linejoin="bevel" points="7865.46,1797.35 7865.46,2031.66" />
<polyline class="Stem" fill="none" stroke="#000000" stroke-width="8.27" stroke-linejoin="bevel" points="4050.21,1067.48 4050.21,832.832" />
<polyline class="Stem" fill="none" stroke="#000000" stroke-width="8.27" stroke-linejoin="bevel" points="2977.67,1935.59 2977.67,1659.45" />
<polyline class="Stem" fill="none" stroke="#000000" stroke-width="8.27" stroke-linejoin="bevel" points="2442.38,1011.92 2442.38,1266.4" />
<polyline class="Stem" fill="none" stroke="#000000" stroke-width="8.27" stroke-linejoin="bevel" points="7515.72,1756.02 7515.72,2031.17" />
<polyline class="Stem" fill="none" stroke="#000000" stroke-width="8.27" stroke-linejoin="bevel" points="3343.79,1108.82 3343.79,852.895" />
<polyline class="Stem" fill="none" stroke="#000000" stroke-width="8.27" stroke-linejoin="bevel" points="3301.69,1894.25 3301.69,1639.44" />
<polyline class="Stem" fill="none" stroke="#000000" stroke-width="8.27" stroke-linejoin="bevel" points="2891.33,1026.14 2891.33,770.669" />
<polyline class="Stem" fill="none" stroke="#000000" stroke-width="8.27" stroke-linejoin="bevel" points="3426.21,1880.03 3426.21,2114.17" />
<polyline class="Stem" fill="none" stroke="#000000" stroke-width="8.27" stroke-linejoin="bevel" points="7191.69,1797.35 7191.69,2072.83" />
<polyline class="Stem" fill="none" stroke="#000000" stroke-width="8.27" stroke-linejoin="bevel" points="6936.09,1797.35 6936.09,2072.83" />
<polyline class="Stem" fill="none" stroke="#000000" stroke-width="8.27" stroke-linejoin="bevel" points="3524.77,1150.16 3524.77,874.016" />
<polyline class="Stem" fill="none" stroke="#000000" stroke-width="8.27" stroke-linejoin="bevel" points="6779.7,2059.61 6779.7,1783.46" />
<polyline class="Stem" fill="none" stroke="#000000" stroke-width="8.27" stroke-linejoin="bevel" points="3162.8,1067.48 3162.8,833.128" />
<path class="Hook" d="M7511.59,2031.16 C7511.59,2033.48 7513.57,2035.47 7515.89,2035.47 C7517.54,2035.47 7519.53,2034.14 7519.86,2032.82 C7519.86,2032.49 7522.84,2020.9 7523.17,2019.91 C7523.5,2018.59 7526.48,2006.01 7538.4,1986.48 C7551.31,1964.96 7571.17,1949.41 7587.72,1926.24 C7603.93,1903.07 7613.86,1881.22 7613.86,1852.09 C7613.86,1821.97 7606.91,1796.82 7589.37,1764.71 C7588.38,1762.39 7586.39,1761.07 7584.41,1761.07 C7583.74,1761.07 7583.08,1761.07 7582.75,1761.4 C7581.1,1762.06 7580.43,1763.39 7580.43,1765.37 C7580.43,1766.36 7580.76,1768.02 7581.43,1769.34 C7594.67,1800.13 7599.96,1817.67 7599.96,1841.5 C7599.96,1868.97 7590.36,1883.21 7584.41,1893.47 C7562.89,1930.21 7528.14,1948.08 7514.23,1952.72 C7511.92,1953.71 7511.59,1955.37 7511.59,1956.36 L7511.59,2031.16 "/>
<path class="Hook" d="M3297.56,1713.92 C3297.56,1714.91 3297.89,1716.56 3300.2,1717.56 C3314.44,1722.19 3342.9,1740.07 3364.42,1776.81 C3370.38,1787.07 3379.98,1801.3 3379.98,1828.77 C3379.98,1852.61 3373.69,1877.1 3365.08,1900.93 C3364.42,1902.92 3363.76,1904.57 3364.09,1905.9 C3364.09,1907.88 3365.41,1909.21 3367.4,1909.21 C3369.71,1909.21 3371.37,1907.88 3372.69,1905.57 C3387.59,1879.09 3393.22,1848.3 3393.22,1818.18 C3391.56,1775.48 3367.07,1744.04 3367.07,1744.04 C3368.06,1744.04 3336.61,1703.32 3327.68,1689.42 C3315.43,1670.56 3309.8,1651.69 3309.14,1650.36 C3308.81,1649.37 3305.83,1637.46 3305.83,1637.46 C3305.5,1636.13 3303.85,1634.81 3301.86,1634.81 C3299.54,1634.81 3297.56,1636.79 3297.56,1639.11 L3297.56,1713.92 "/>
<path class="Hook" d="M2438.24,1266.4 C2438.24,1268.72 2440.23,1270.7 2442.55,1270.7 C2444.2,1270.7 2446.19,1269.38 2446.52,1268.06 C2446.52,1267.73 2449.5,1256.14 2449.83,1255.15 C2450.16,1253.82 2453.14,1241.25 2465.06,1221.72 C2477.96,1200.2 2497.82,1184.64 2514.37,1161.47 C2530.59,1138.3 2540.52,1116.46 2540.52,1087.33 C2540.52,1057.21 2533.57,1032.05 2516.03,999.946 C2515.04,997.629 2513.05,996.305 2511.06,996.305 C2510.4,996.305 2509.74,996.305 2509.41,996.636 C2507.75,997.298 2507.09,998.622 2507.09,1000.61 C2507.09,1001.6 2507.42,1003.26 2508.09,1004.58 C2521.33,1035.36 2526.62,1052.91 2526.62,1076.74 C2526.62,1104.21 2517.02,1118.44 2511.06,1128.71 C2489.55,1165.45 2454.79,1183.32 2440.89,1187.95 C2438.58,1188.95 2438.24,1190.6 2438.24,1191.6 L2438.24,1266.4 "/>
<path class="Hook" d="M1969.58,866.475 C1969.58,867.468 1969.91,869.123 1972.23,870.116 C1986.46,874.75 2014.93,892.624 2036.44,929.365 C2042.4,939.626 2052,953.859 2052,981.332 C2052,1005.16 2045.71,1029.66 2037.11,1053.49 C2036.44,1055.48 2035.78,1057.13 2036.11,1058.46 C2036.11,1060.44 2037.44,1061.77 2039.42,1061.77 C2041.74,1061.77 2043.39,1060.44 2044.72,1058.12 C2059.61,1031.64 2065.24,1000.86 2065.24,970.74 C2063.59,928.041 2039.09,896.596 2039.09,896.596 C2040.08,896.596 2008.64,855.883 1999.7,841.981 C1987.46,823.114 1981.83,804.247 1981.17,802.923 C1980.84,801.93 1977.86,790.014 1977.86,790.014 C1977.53,788.69 1975.87,787.366 1973.88,787.366 C1971.57,787.366 1969.58,789.352 1969.58,791.669 L1969.58,866.475 "/>
<path class="Hook" d="M7810.07,1266.4 C7810.07,1268.72 7812.06,1270.7 7814.37,1270.7 C7816.03,1270.7 7818.02,1269.38 7818.35,1268.06 C7818.35,1267.73 7821.33,1256.14 7821.66,1255.15 C7821.99,1253.82 7824.97,1241.25 7836.88,1221.72 C7849.79,1200.2 7869.65,1184.64 7886.2,1161.47 C7902.42,1138.3 7912.35,1116.46 7912.35,1087.33 C7912.35,1057.21 7905.4,1032.05 7887.86,999.946 C7886.86,997.629 7884.88,996.305 7882.89,996.305 C7882.23,996.305 7881.57,996.305 7881.24,996.636 C7879.58,997.298 7878.92,998.622 7878.92,1000.61 C7878.92,1001.6 7879.25,1003.26 7879.91,1004.58 C7893.15,1035.36 7898.45,1052.91 7898.45,1076.74 C7898.45,1104.21 7888.85,1118.44 7882.89,1128.71 C7861.38,1165.45 7826.62,1183.32 7812.72,1187.95 C7810.4,1188.95 7810.07,1190.6 7810.07,1191.6 L7810.07,1266.4 "/>
<path class="Hook" d="M7341.41,866.475 C7341.41,867.468 7341.74,869.123 7344.06,870.116 C7358.29,874.75 7386.76,892.624 7408.27,929.365 C7414.23,939.626 7423.83,953.859 7423.83,981.332 C7423.83,1005.16 7417.54,1029.66 7408.93,1053.49 C7408.27,1055.48 7407.61,1057.13 7407.94,1058.46 C7407.94,1060.44 7409.26,1061.77 7411.25,1061.77 C7413.57,1061.77 7415.22,1060.44 7416.55,1058.12 C7431.44,1031.64 7437.07,1000.86 7437.07,970.74 C7435.41,928.041 7410.92,896.596 7410.92,896.596 C7411.91,896.596 7380.47,855.883 7371.53,841.981 C7359.28,823.114 7353.66,804.247 7352.99,802.923 C7352.66,801.93 7349.68,790.014 7349.68,790.014 C7349.35,788.69 7347.7,787.366 7345.71,787.366 C7343.39,787.366 7341.41,789.352 7341.41,791.669 L7341.41,866.475 "/>
<path class="Hook" d="M5010.47,2134.51 C5010.47,2136.83 5012.45,2138.81 5014.77,2138.81 C5016.43,2138.81 5018.41,2137.49 5018.74,2136.17 C5018.74,2135.84 5021.72,2124.25 5022.05,2123.26 C5022.38,2121.93 5025.36,2109.36 5037.28,2089.83 C5050.19,2068.31 5070.05,2052.75 5086.6,2029.58 C5102.82,2006.41 5112.75,1984.57 5112.75,1955.44 C5112.75,1925.32 5105.8,1900.16 5088.25,1868.06 C5087.26,1865.74 5085.27,1864.42 5083.29,1864.42 C5082.63,1864.42 5081.96,1864.42 5081.63,1864.75 C5079.98,1865.41 5079.32,1866.73 5079.32,1868.72 C5079.32,1869.71 5079.65,1871.37 5080.31,1872.69 C5093.55,1903.47 5098.84,1921.02 5098.84,1944.85 C5098.84,1972.32 5089.25,1986.55 5083.29,1996.82 C5061.77,2033.56 5027.02,2051.43 5013.12,2056.06 C5010.8,2057.06 5010.47,2058.71 5010.47,2059.71 L5010.47,2134.51 "/>
<path class="Hook" d="M5135.82,2899.28 C5135.82,2901.59 5137.8,2903.58 5140.12,2903.58 C5141.78,2903.58 5143.76,2902.25 5144.09,2900.93 C5144.09,2900.6 5147.07,2889.01 5147.4,2888.02 C5147.73,2886.7 5150.71,2874.12 5162.63,2854.59 C5175.54,2833.08 5195.4,2817.52 5211.95,2794.35 C5228.17,2771.18 5238.1,2749.33 5238.1,2720.2 C5238.1,2690.08 5231.15,2664.93 5213.6,2632.82 C5212.61,2630.5 5210.62,2629.18 5208.64,2629.18 C5207.98,2629.18 5207.31,2629.18 5206.98,2629.51 C5205.33,2630.17 5204.67,2631.5 5204.67,2633.48 C5204.67,2634.48 5205,2636.13 5205.66,2637.45 C5218.9,2668.24 5224.19,2685.78 5224.19,2709.61 C5224.19,2737.09 5214.6,2751.32 5208.64,2761.58 C5187.12,2798.32 5152.37,2816.19 5138.47,2820.83 C5136.15,2821.82 5135.82,2823.48 5135.82,2824.47 L5135.82,2899.28 "/>
<path class="Hook" d="M8361.91,2582.03 C8361.91,2583.02 8362.24,2584.67 8364.55,2585.67 C8378.79,2590.3 8407.25,2608.18 8428.77,2644.92 C8434.73,2655.18 8444.32,2669.41 8444.32,2696.88 C8444.32,2720.72 8438.04,2745.21 8429.43,2769.04 C8428.77,2771.03 8428.11,2772.68 8428.44,2774.01 C8428.44,2775.99 8429.76,2777.32 8431.75,2777.32 C8434.06,2777.32 8435.72,2775.99 8437.04,2773.68 C8451.94,2747.2 8457.56,2716.41 8457.56,2686.29 C8455.91,2643.59 8431.42,2612.15 8431.42,2612.15 C8432.41,2612.15 8400.96,2571.43 8392.03,2557.53 C8379.78,2538.67 8374.15,2519.8 8373.49,2518.47 C8373.16,2517.48 8370.18,2505.57 8370.18,2505.57 C8369.85,2504.24 8368.19,2502.92 8366.21,2502.92 C8363.89,2502.92 8361.91,2504.9 8361.91,2507.22 L8361.91,2582.03 "/>
<path class="Hook" d="M6379.86,1775.92 C6379.86,1776.92 6380.19,1778.57 6382.5,1779.57 C6396.74,1784.2 6425.2,1802.07 6446.72,1838.81 C6452.68,1849.08 6462.28,1863.31 6462.28,1890.78 C6462.28,1914.61 6455.99,1939.11 6447.38,1962.94 C6446.72,1964.93 6446.06,1966.58 6446.39,1967.9 C6446.39,1969.89 6447.71,1971.21 6449.7,1971.21 C6452.01,1971.21 6453.67,1969.89 6454.99,1967.57 C6469.89,1941.09 6475.52,1910.31 6475.52,1880.19 C6473.86,1837.49 6449.37,1806.05 6449.37,1806.05 C6450.36,1806.05 6418.91,1765.33 6409.98,1751.43 C6397.73,1732.56 6392.1,1713.7 6391.44,1712.37 C6391.11,1711.38 6388.13,1699.46 6388.13,1699.46 C6387.8,1698.14 6386.15,1696.82 6384.16,1696.82 C6381.84,1696.82 6379.86,1698.8 6379.86,1701.12 L6379.86,1775.92 "/>
<path class="Note" d="M6280.64,2004.06 C6280.64,2018.29 6290.9,2034.18 6317.72,2034.18 C6352.14,2034.18 6388.22,2006.05 6388.22,1976.92 C6388.22,1957.39 6371.67,1946.47 6351.15,1946.47 C6319.04,1946.47 6280.64,1973.61 6280.64,2004.06"/>
<path class="Note" d="M5135.82,2624.14 C5135.82,2638.37 5146.08,2654.26 5172.89,2654.26 C5207.31,2654.26 5243.39,2626.12 5243.39,2597 C5243.39,2577.47 5226.84,2566.54 5206.32,2566.54 C5174.21,2566.54 5135.82,2593.69 5135.82,2624.14"/>
<path class="Note" d="M5360.2,1921.38 C5360.2,1935.62 5370.47,1951.5 5397.28,1951.5 C5431.7,1951.5 5467.78,1923.37 5467.78,1894.24 C5467.78,1874.71 5451.23,1863.79 5430.71,1863.79 C5398.6,1863.79 5360.2,1890.93 5360.2,1921.38"/>
<path class="Note" d="M5010.47,1880.04 C5010.47,1894.28 5020.73,1910.16 5047.54,1910.16 C5081.96,1910.16 5118.04,1882.03 5118.04,1852.9 C5118.04,1833.37 5101.49,1822.45 5080.97,1822.45 C5048.86,1822.45 5010.47,1849.59 5010.47,1880.04"/>
<path class="Note" d="M5615.81,1962.72 C5615.81,1976.95 5626.07,1992.84 5652.88,1992.84 C5687.31,1992.84 5723.39,1964.71 5723.39,1935.58 C5723.39,1916.05 5706.84,1905.13 5686.31,1905.13 C5654.21,1905.13 5615.81,1932.27 5615.81,1962.72"/>
<path class="Note" d="M8552.66,2762.72 C8541.73,2762.72 8539.42,2753.78 8539.42,2750.8 C8539.42,2734.58 8595.03,2706.12 8610.58,2706.12 C8618.53,2706.12 8623.82,2710.75 8623.82,2718.03 C8623.82,2734.58 8567.88,2762.72 8552.66,2762.72 M8598.34,2690.56 C8566.23,2690.56 8527.83,2717.37 8527.83,2748.15 C8527.83,2762.39 8538.09,2778.27 8564.9,2778.27 C8599.33,2778.27 8635.41,2750.14 8635.41,2721.01 C8635.41,2701.48 8618.86,2690.56 8598.34,2690.56"/>
<path class="Note" d="M4851.77,1053.27 C4851.77,1067.5 4862.03,1083.39 4888.85,1083.39 C4923.27,1083.39 4959.35,1055.26 4959.35,1026.13 C4959.35,1006.6 4942.8,995.678 4922.28,995.678 C4890.17,995.678 4851.77,1022.82 4851.77,1053.27"/>
<path class="Note" d="M5786.22,2004.06 C5786.22,2018.29 5796.48,2034.18 5823.29,2034.18 C5857.71,2034.18 5893.79,2006.05 5893.79,1976.92 C5893.79,1957.39 5877.24,1946.47 5856.72,1946.47 C5824.61,1946.47 5786.22,1973.61 5786.22,2004.06"/>
<path class="Note" d="M4686.44,2086.74 C4686.44,2100.97 4696.7,2116.86 4723.51,2116.86 C4757.94,2116.86 4794.02,2088.72 4794.02,2059.59 C4794.02,2040.07 4777.47,2029.14 4756.95,2029.14 C4724.84,2029.14 4686.44,2056.28 4686.44,2086.74"/>
<path class="Note" d="M5956.62,2045.4 C5956.62,2059.63 5966.88,2075.52 5993.69,2075.52 C6028.12,2075.52 6064.19,2047.38 6064.19,2018.26 C6064.19,1998.73 6047.64,1987.8 6027.12,1987.8 C5995.02,1987.8 5956.62,2014.95 5956.62,2045.4"/>
<path class="Note" d="M8262.69,2789.49 C8262.69,2803.73 8272.95,2819.61 8299.77,2819.61 C8334.19,2819.61 8370.27,2791.48 8370.27,2762.35 C8370.27,2742.82 8353.72,2731.9 8333.2,2731.9 C8301.09,2731.9 8262.69,2759.04 8262.69,2789.49"/>
<path class="Note" d="M4670.79,1094.61 C4670.79,1108.84 4681.05,1124.73 4707.86,1124.73 C4742.29,1124.73 4778.37,1096.6 4778.37,1067.47 C4778.37,1047.94 4761.82,1037.02 4741.29,1037.02 C4709.19,1037.02 4670.79,1064.16 4670.79,1094.61"/>
<path class="Note" d="M5032.76,1011.93 C5032.76,1026.17 5043.02,1042.05 5069.83,1042.05 C5104.25,1042.05 5140.33,1013.92 5140.33,984.791 C5140.33,965.262 5123.78,954.339 5103.26,954.339 C5071.15,954.339 5032.76,981.481 5032.76,1011.93"/>
<path class="Note" d="M4489.81,1218.63 C4489.81,1232.86 4500.07,1248.75 4526.88,1248.75 C4561.3,1248.75 4597.38,1220.61 4597.38,1191.48 C4597.38,1171.96 4580.83,1161.03 4560.31,1161.03 C4528.2,1161.03 4489.81,1188.17 4489.81,1218.63"/>
<path class="Note" d="M2787.98,1053.27 C2787.98,1067.5 2798.24,1083.39 2825.05,1083.39 C2859.48,1083.39 2895.56,1055.26 2895.56,1026.13 C2895.56,1006.6 2879.01,995.678 2858.49,995.678 C2826.38,995.678 2787.98,1022.82 2787.98,1053.27"/>
<path class="Note" d="M4175.23,1797.37 C4175.23,1811.6 4185.49,1827.49 4212.3,1827.49 C4246.73,1827.49 4282.81,1799.35 4282.81,1770.22 C4282.81,1750.7 4266.26,1739.77 4245.73,1739.77 C4213.63,1739.77 4175.23,1766.91 4175.23,1797.37"/>
<path class="Note" d="M3240.44,1135.95 C3240.44,1150.18 3250.7,1166.07 3277.51,1166.07 C3311.93,1166.07 3348.01,1137.94 3348.01,1108.81 C3348.01,1089.28 3331.46,1078.36 3310.94,1078.36 C3278.83,1078.36 3240.44,1105.5 3240.44,1135.95"/>
<path class="Note" d="M6676.35,2086.74 C6676.35,2100.97 6686.61,2116.86 6713.42,2116.86 C6747.84,2116.86 6783.92,2088.72 6783.92,2059.59 C6783.92,2040.07 6767.37,2029.14 6746.85,2029.14 C6714.74,2029.14 6676.35,2056.28 6676.35,2086.74"/>
<path class="Note" d="M3446.25,1191.85 C3435.32,1191.85 3433.01,1182.91 3433.01,1179.94 C3433.01,1163.72 3488.61,1135.25 3504.17,1135.25 C3512.12,1135.25 3517.41,1139.88 3517.41,1147.17 C3517.41,1163.72 3461.47,1191.85 3446.25,1191.85 M3491.92,1119.69 C3459.82,1119.69 3421.42,1146.5 3421.42,1177.29 C3421.42,1191.52 3431.68,1207.41 3458.49,1207.41 C3492.92,1207.41 3529,1179.27 3529,1150.15 C3529,1130.62 3512.45,1119.69 3491.92,1119.69"/>
<path class="Note" d="M6931.95,1797.37 C6931.95,1811.6 6942.22,1827.49 6969.03,1827.49 C7003.45,1827.49 7039.53,1799.35 7039.53,1770.22 C7039.53,1750.7 7022.98,1739.77 7002.46,1739.77 C6970.35,1739.77 6931.95,1766.91 6931.95,1797.37"/>
<path class="Note" d="M3446.91,1894.61 C3435.98,1894.61 3433.67,1885.67 3433.67,1882.69 C3433.67,1866.47 3489.27,1838.01 3504.83,1838.01 C3512.77,1838.01 3518.07,1842.64 3518.07,1849.92 C3518.07,1866.47 3462.13,1894.61 3446.91,1894.61 M3492.58,1822.45 C3460.48,1822.45 3422.08,1849.26 3422.08,1880.04 C3422.08,1894.28 3432.34,1910.16 3459.15,1910.16 C3493.58,1910.16 3529.66,1882.03 3529.66,1852.9 C3529.66,1833.37 3513.11,1822.45 3492.58,1822.45"/>
<path class="Note" d="M7187.56,1797.37 C7187.56,1811.6 7197.82,1827.49 7224.63,1827.49 C7259.06,1827.49 7295.14,1799.35 7295.14,1770.22 C7295.14,1750.7 7278.59,1739.77 7258.06,1739.77 C7225.96,1739.77 7187.56,1766.91 7187.56,1797.37"/>
<path class="Note" d="M7758.53,2830.83 C7758.53,2845.06 7768.79,2860.95 7795.6,2860.95 C7830.02,2860.95 7866.1,2832.82 7866.1,2803.69 C7866.1,2784.16 7849.55,2773.24 7829.03,2773.24 C7796.92,2773.24 7758.53,2800.38 7758.53,2830.83"/>
<path class="Note" d="M3198.34,1921.38 C3198.34,1935.62 3208.6,1951.5 3235.42,1951.5 C3269.84,1951.5 3305.92,1923.37 3305.92,1894.24 C3305.92,1874.71 3289.37,1863.79 3268.85,1863.79 C3236.74,1863.79 3198.34,1890.93 3198.34,1921.38"/>
<path class="Note" d="M5422.46,970.595 C5422.46,984.828 5432.72,1000.72 5459.53,1000.72 C5493.95,1000.72 5530.03,972.581 5530.03,943.453 C5530.03,923.924 5513.48,913.001 5492.96,913.001 C5460.85,913.001 5422.46,940.143 5422.46,970.595"/>
<path class="Note" d="M7511.59,1756.03 C7511.59,1770.26 7521.85,1786.15 7548.66,1786.15 C7583.08,1786.15 7619.16,1758.01 7619.16,1728.89 C7619.16,1709.36 7602.61,1698.43 7582.09,1698.43 C7549.98,1698.43 7511.59,1725.58 7511.59,1756.03"/>
<path class="Note" d="M2438.24,1011.93 C2438.24,1026.17 2448.51,1042.05 2475.32,1042.05 C2509.74,1042.05 2545.82,1013.92 2545.82,984.791 C2545.82,965.262 2529.27,954.339 2508.75,954.339 C2476.64,954.339 2438.24,981.481 2438.24,1011.93"/>
<path class="Note" d="M2874.32,1962.72 C2874.32,1976.95 2884.58,1992.84 2911.39,1992.84 C2945.82,1992.84 2981.89,1964.71 2981.89,1935.58 C2981.89,1916.05 2965.34,1905.13 2944.82,1905.13 C2912.72,1905.13 2874.32,1932.27 2874.32,1962.72"/>
<path class="Note" d="M3946.86,1094.61 C3946.86,1108.84 3957.12,1124.73 3983.93,1124.73 C4018.36,1124.73 4054.44,1096.6 4054.44,1067.47 C4054.44,1047.94 4037.89,1037.02 4017.36,1037.02 C3985.26,1037.02 3946.86,1064.16 3946.86,1094.61"/>
<path class="Note" d="M7861.32,1797.37 C7861.32,1811.6 7871.58,1827.49 7898.4,1827.49 C7932.82,1827.49 7968.9,1799.35 7968.9,1770.22 C7968.9,1750.7 7952.35,1739.77 7931.83,1739.77 C7899.72,1739.77 7861.32,1766.91 7861.32,1797.37"/>
<path class="Note" d="M7375.16,2830.83 C7375.16,2845.06 7385.42,2860.95 7412.23,2860.95 C7446.66,2860.95 7482.74,2832.82 7482.74,2803.69 C7482.74,2784.16 7466.19,2773.24 7445.66,2773.24 C7413.56,2773.24 7375.16,2800.38 7375.16,2830.83"/>
<path class="Note" d="M2524.58,1962.72 C2524.58,1976.95 2534.84,1992.84 2561.65,1992.84 C2596.08,1992.84 2632.16,1964.71 2632.16,1935.58 C2632.16,1916.05 2615.61,1905.13 2595.08,1905.13 C2562.98,1905.13 2524.58,1932.27 2524.58,1962.72"/>
<path class="Note" d="M8031.73,1756.03 C8031.73,1770.26 8041.99,1786.15 8068.8,1786.15 C8103.22,1786.15 8139.3,1758.01 8139.3,1728.89 C8139.3,1709.36 8122.75,1698.43 8102.23,1698.43 C8070.12,1698.43 8031.73,1725.58 8031.73,1756.03"/>
<path class="Note" d="M2354.18,1921.38 C2354.18,1935.62 2364.44,1951.5 2391.25,1951.5 C2425.67,1951.5 2461.75,1923.37 2461.75,1894.24 C2461.75,1874.71 2445.2,1863.79 2424.68,1863.79 C2392.57,1863.79 2354.18,1890.93 2354.18,1921.38"/>
<path class="Note" d="M8202.13,1797.37 C8202.13,1811.6 8212.39,1827.49 8239.2,1827.49 C8273.63,1827.49 8309.71,1799.35 8309.71,1770.22 C8309.71,1750.7 8293.16,1739.77 8272.63,1739.77 C8240.53,1739.77 8202.13,1766.91 8202.13,1797.37"/>
<path class="Note" d="M2183.77,1880.04 C2183.77,1894.28 2194.03,1910.16 2220.85,1910.16 C2255.27,1910.16 2291.35,1882.03 2291.35,1852.9 C2291.35,1833.37 2274.8,1822.45 2254.28,1822.45 C2222.17,1822.45 2183.77,1849.59 2183.77,1880.04"/>
<path class="Note" d="M8372.54,1838.7 C8372.54,1852.94 8382.8,1868.83 8409.61,1868.83 C8444.03,1868.83 8480.11,1840.69 8480.11,1811.56 C8480.11,1792.03 8463.56,1781.11 8443.04,1781.11 C8410.93,1781.11 8372.54,1808.25 8372.54,1838.7"/>
<path class="Note" d="M5603.44,1011.93 C5603.44,1026.17 5613.7,1042.05 5640.51,1042.05 C5674.94,1042.05 5711.02,1013.92 5711.02,984.791 C5711.02,965.262 5694.47,954.339 5673.94,954.339 C5641.84,954.339 5603.44,981.481 5603.44,1011.93"/>
<path class="Note" d="M8542.94,1880.04 C8542.94,1894.28 8553.2,1910.16 8580.01,1910.16 C8614.44,1910.16 8650.51,1882.03 8650.51,1852.9 C8650.51,1833.37 8633.96,1822.45 8613.44,1822.45 C8581.34,1822.45 8542.94,1849.59 8542.94,1880.04"/>
<path class="Note" d="M2013.37,1838.7 C2013.37,1852.94 2023.63,1868.83 2050.44,1868.83 C2084.87,1868.83 2120.94,1840.69 2120.94,1811.56 C2120.94,1792.03 2104.39,1781.11 2083.87,1781.11 C2051.77,1781.11 2013.37,1808.25 2013.37,1838.7"/>
<path class="Note" d="M8798.55,1880.04 C8798.55,1894.28 8808.81,1910.16 8835.62,1910.16 C8870.04,1910.16 8906.12,1882.03 8906.12,1852.9 C8906.12,1833.37 8889.57,1822.45 8869.05,1822.45 C8836.94,1822.45 8798.55,1849.59 8798.55,1880.04"/>
<path class="Note" d="M7110.02,2789.49 C7110.02,2803.73 7120.28,2819.61 7147.09,2819.61 C7181.52,2819.61 7217.6,2791.48 7217.6,2762.35 C7217.6,2742.82 7201.05,2731.9 7180.52,2731.9 C7148.42,2731.9 7110.02,2759.04 7110.02,2789.49"/>
<path class="Note" d="M1842.97,1880.04 C1842.97,1894.28 1853.23,1910.16 1880.04,1910.16 C1914.46,1910.16 1950.54,1882.03 1950.54,1852.9 C1950.54,1833.37 1933.99,1822.45 1913.47,1822.45 C1881.36,1822.45 1842.97,1849.59 1842.97,1880.04"/>
<path class="Note" d="M8968.95,1880.04 C8968.95,1894.28 8979.21,1910.16 9006.02,1910.16 C9040.45,1910.16 9076.52,1882.03 9076.52,1852.9 C9076.52,1833.37 9059.97,1822.45 9039.45,1822.45 C9007.35,1822.45 8968.95,1849.59 8968.95,1880.04"/>
<path class="Note" d="M1672.56,1797.37 C1672.56,1811.6 1682.82,1827.49 1709.63,1827.49 C1744.06,1827.49 1780.14,1799.35 1780.14,1770.22 C1780.14,1750.7 1763.59,1739.77 1743.06,1739.77 C1710.96,1739.77 1672.56,1766.91 1672.56,1797.37"/>
<path class="Note" d="M5784.42,1053.27 C5784.42,1067.5 5794.68,1083.39 5821.5,1083.39 C5855.92,1083.39 5892,1055.26 5892,1026.13 C5892,1006.6 5875.45,995.678 5854.93,995.678 C5822.82,995.678 5784.42,1022.82 5784.42,1053.27"/>
<path class="Note" d="M2094.1,1094.61 C2094.1,1108.84 2104.37,1124.73 2131.18,1124.73 C2165.6,1124.73 2201.68,1096.6 2201.68,1067.47 C2201.68,1047.94 2185.13,1037.02 2164.61,1037.02 C2132.5,1037.02 2094.1,1064.16 2094.1,1094.61"/>
<path class="Note" d="M1502.16,1756.03 C1502.16,1770.26 1512.42,1786.15 1539.23,1786.15 C1573.65,1786.15 1609.73,1758.01 1609.73,1728.89 C1609.73,1709.36 1593.18,1698.43 1572.66,1698.43 C1540.55,1698.43 1502.16,1725.58 1502.16,1756.03"/>
<path class="Note" d="M1870.37,1094.61 C1870.37,1108.84 1880.63,1124.73 1907.44,1124.73 C1941.86,1124.73 1977.94,1096.6 1977.94,1067.47 C1977.94,1047.94 1961.39,1037.02 1940.87,1037.02 C1908.76,1037.02 1870.37,1064.16 1870.37,1094.61"/>
<path class="Note" d="M6844.88,2748.15 C6844.88,2762.39 6855.14,2778.27 6881.95,2778.27 C6916.38,2778.27 6952.46,2750.14 6952.46,2721.01 C6952.46,2701.48 6935.91,2690.56 6915.39,2690.56 C6883.28,2690.56 6844.88,2717.7 6844.88,2748.15"/>
<path class="Note" d="M5965.41,1094.61 C5965.41,1108.84 5975.67,1124.73 6002.48,1124.73 C6036.9,1124.73 6072.98,1096.6 6072.98,1067.47 C6072.98,1047.94 6056.43,1037.02 6035.91,1037.02 C6003.8,1037.02 5965.41,1064.16 5965.41,1094.61"/>
<path class="Note" d="M6579.74,2706.82 C6579.74,2721.05 6590,2736.94 6616.82,2736.94 C6651.24,2736.94 6687.32,2708.8 6687.32,2679.67 C6687.32,2660.14 6670.77,2649.22 6650.25,2649.22 C6618.14,2649.22 6579.74,2676.36 6579.74,2706.82"/>
<path class="Note" d="M1331.75,2706.82 C1331.75,2721.05 1342.01,2736.94 1368.82,2736.94 C1403.25,2736.94 1439.33,2708.8 1439.33,2679.67 C1439.33,2660.14 1422.78,2649.22 1402.26,2649.22 C1370.15,2649.22 1331.75,2676.36 1331.75,2706.82"/>
<path class="Note" d="M6146.39,1011.93 C6146.39,1026.17 6156.65,1042.05 6183.46,1042.05 C6217.88,1042.05 6253.96,1013.92 6253.96,984.791 C6253.96,965.262 6237.41,954.339 6216.89,954.339 C6184.78,954.339 6146.39,981.481 6146.39,1011.93"/>
<path class="Note" d="M1331.75,1797.37 C1331.75,1811.6 1342.01,1827.49 1368.82,1827.49 C1403.25,1827.49 1439.33,1799.35 1439.33,1770.22 C1439.33,1750.7 1422.78,1739.77 1402.26,1739.77 C1370.15,1739.77 1331.75,1766.91 1331.75,1797.37"/>
<path class="Note" d="M1596.89,2665.48 C1596.89,2679.71 1607.15,2695.6 1633.96,2695.6 C1668.39,2695.6 1704.47,2667.46 1704.47,2638.33 C1704.47,2618.81 1687.92,2607.88 1667.4,2607.88 C1635.29,2607.88 1596.89,2635.02 1596.89,2665.48"/>
<path class="Note" d="M6314.6,2748.15 C6314.6,2762.39 6324.86,2778.27 6351.68,2778.27 C6386.1,2778.27 6422.18,2750.14 6422.18,2721.01 C6422.18,2701.48 6405.63,2690.56 6385.11,2690.56 C6353,2690.56 6314.6,2717.7 6314.6,2748.15"/>
<path class="Note" d="M1862.03,2624.14 C1862.03,2638.37 1872.29,2654.26 1899.1,2654.26 C1933.53,2654.26 1969.61,2626.12 1969.61,2597 C1969.61,2577.47 1953.06,2566.54 1932.53,2566.54 C1900.43,2566.54 1862.03,2593.69 1862.03,2624.14"/>
<path class="Note" d="M6049.46,2665.48 C6049.46,2679.71 6059.73,2695.6 6086.54,2695.6 C6120.96,2695.6 6157.04,2667.46 6157.04,2638.33 C6157.04,2618.81 6140.49,2607.88 6119.97,2607.88 C6087.86,2607.88 6049.46,2635.02 6049.46,2665.48"/>
<path class="Note" d="M2127.17,2665.48 C2127.17,2679.71 2137.43,2695.6 2164.24,2695.6 C2198.67,2695.6 2234.75,2667.46 2234.75,2638.33 C2234.75,2618.81 2218.2,2607.88 2197.67,2607.88 C2165.57,2607.88 2127.17,2635.02 2127.17,2665.48"/>
<path class="Note" d="M3059.46,1094.61 C3059.46,1108.84 3069.72,1124.73 3096.53,1124.73 C3130.95,1124.73 3167.03,1096.6 3167.03,1067.47 C3167.03,1047.94 3150.48,1037.02 3129.96,1037.02 C3097.85,1037.02 3059.46,1064.16 3059.46,1094.61"/>
<path class="Note" d="M2392.31,2748.15 C2392.31,2762.39 2402.57,2778.27 2429.38,2778.27 C2463.81,2778.27 2499.89,2750.14 2499.89,2721.01 C2499.89,2701.48 2483.34,2690.56 2462.81,2690.56 C2430.71,2690.56 2392.31,2717.7 2392.31,2748.15"/>
<path class="Note" d="M6327.37,970.595 C6327.37,984.828 6337.63,1000.72 6364.44,1000.72 C6398.87,1000.72 6434.95,972.581 6434.95,943.453 C6434.95,923.924 6418.4,913.001 6397.87,913.001 C6365.77,913.001 6327.37,940.143 6327.37,970.595"/>
<path class="Note" d="M8818.07,1191.85 C8807.15,1191.85 8804.83,1182.91 8804.83,1179.94 C8804.83,1163.72 8860.44,1135.25 8876,1135.25 C8883.94,1135.25 8889.24,1139.88 8889.24,1147.17 C8889.24,1163.72 8833.3,1191.85 8818.07,1191.85 M8863.75,1119.69 C8831.64,1119.69 8793.25,1146.5 8793.25,1177.29 C8793.25,1191.52 8803.51,1207.41 8830.32,1207.41 C8864.74,1207.41 8900.82,1179.27 8900.82,1150.15 C8900.82,1130.62 8884.27,1119.69 8863.75,1119.69"/>
<path class="Note" d="M2657.45,2706.82 C2657.45,2721.05 2667.71,2736.94 2694.52,2736.94 C2728.95,2736.94 2765.02,2708.8 2765.02,2679.67 C2765.02,2660.14 2748.47,2649.22 2727.95,2649.22 C2695.85,2649.22 2657.45,2676.36 2657.45,2706.82"/>
<path class="Note" d="M8612.27,1135.95 C8612.27,1150.18 8622.53,1166.07 8649.34,1166.07 C8683.76,1166.07 8719.84,1137.94 8719.84,1108.81 C8719.84,1089.28 8703.29,1078.36 8682.77,1078.36 C8650.66,1078.36 8612.27,1105.5 8612.27,1135.95"/>
<path class="Note" d="M2922.59,2665.48 C2922.59,2679.71 2932.85,2695.6 2959.66,2695.6 C2994.09,2695.6 3030.16,2667.46 3030.16,2638.33 C3030.16,2618.81 3013.61,2607.88 2993.09,2607.88 C2960.99,2607.88 2922.59,2635.02 2922.59,2665.48"/>
<path class="Note" d="M5784.33,2624.14 C5784.33,2638.37 5794.59,2654.26 5821.4,2654.26 C5855.82,2654.26 5891.9,2626.12 5891.9,2597 C5891.9,2577.47 5875.35,2566.54 5854.83,2566.54 C5822.72,2566.54 5784.33,2593.69 5784.33,2624.14"/>
<path class="Note" d="M3187.73,2706.82 C3187.73,2721.05 3197.99,2736.94 3224.8,2736.94 C3259.22,2736.94 3295.3,2708.8 3295.3,2679.67 C3295.3,2660.14 3278.75,2649.22 3258.23,2649.22 C3226.12,2649.22 3187.73,2676.36 3187.73,2706.82"/>
<path class="Note" d="M8431.28,1094.61 C8431.28,1108.84 8441.54,1124.73 8468.36,1124.73 C8502.78,1124.73 8538.86,1096.6 8538.86,1067.47 C8538.86,1047.94 8522.31,1037.02 8501.79,1037.02 C8469.68,1037.02 8431.28,1064.16 8431.28,1094.61"/>
<path class="Note" d="M8159.81,1053.27 C8159.81,1067.5 8170.07,1083.39 8196.88,1083.39 C8231.31,1083.39 8267.38,1055.26 8267.38,1026.13 C8267.38,1006.6 8250.83,995.678 8230.31,995.678 C8198.21,995.678 8159.81,1022.82 8159.81,1053.27"/>
<path class="Note" d="M4127.84,1135.95 C4127.84,1150.18 4138.1,1166.07 4164.92,1166.07 C4199.34,1166.07 4235.42,1137.94 4235.42,1108.81 C4235.42,1089.28 4218.87,1078.36 4198.35,1078.36 C4166.24,1078.36 4127.84,1105.5 4127.84,1135.95"/>
<path class="Note" d="M3571.1,2789.49 C3571.1,2803.73 3581.36,2819.61 3608.17,2819.61 C3642.59,2819.61 3678.67,2791.48 3678.67,2762.35 C3678.67,2742.82 3662.12,2731.9 3641.6,2731.9 C3609.49,2731.9 3571.1,2759.04 3571.1,2789.49"/>
<path class="Note" d="M6508.35,929.256 C6508.35,943.489 6518.61,959.377 6545.43,959.377 C6579.85,959.377 6615.93,931.242 6615.93,902.114 C6615.93,882.585 6599.38,871.662 6578.86,871.662 C6546.75,871.662 6508.35,898.804 6508.35,929.256"/>
<path class="Note" d="M7810.07,1011.93 C7810.07,1026.17 7820.33,1042.05 7847.14,1042.05 C7881.57,1042.05 7917.65,1013.92 7917.65,984.791 C7917.65,965.262 7901.1,954.339 7880.57,954.339 C7848.47,954.339 7810.07,981.481 7810.07,1011.93"/>
<path class="Note" d="M3836.24,2748.15 C3836.24,2762.39 3846.5,2778.27 3873.31,2778.27 C3907.73,2778.27 3943.81,2750.14 3943.81,2721.01 C3943.81,2701.48 3927.26,2690.56 3906.74,2690.56 C3874.63,2690.56 3836.24,2717.7 3836.24,2748.15"/>
<path class="Note" d="M5519.19,2665.48 C5519.19,2679.71 5529.45,2695.6 5556.26,2695.6 C5590.68,2695.6 5626.76,2667.46 5626.76,2638.33 C5626.76,2618.81 5610.21,2607.88 5589.69,2607.88 C5557.58,2607.88 5519.19,2635.02 5519.19,2665.48"/>
<path class="Note" d="M4101.37,2706.82 C4101.37,2721.05 4111.64,2736.94 4138.45,2736.94 C4172.87,2736.94 4208.95,2708.8 4208.95,2679.67 C4208.95,2660.14 4192.4,2649.22 4171.88,2649.22 C4139.77,2649.22 4101.37,2676.36 4101.37,2706.82"/>
<path class="Note" d="M7465.93,1094.61 C7465.93,1108.84 7476.19,1124.73 7503,1124.73 C7537.43,1124.73 7573.51,1096.6 7573.51,1067.47 C7573.51,1047.94 7556.96,1037.02 7536.43,1037.02 C7504.33,1037.02 7465.93,1064.16 7465.93,1094.61"/>
<path class="Note" d="M4366.51,2789.49 C4366.51,2803.73 4376.78,2819.61 4403.59,2819.61 C4438.01,2819.61 4474.09,2791.48 4474.09,2762.35 C4474.09,2742.82 4457.54,2731.9 4437.02,2731.9 C4404.91,2731.9 4366.51,2759.04 4366.51,2789.49"/>
<path class="Note" d="M7242.2,1094.61 C7242.2,1108.84 7252.46,1124.73 7279.27,1124.73 C7313.69,1124.73 7349.77,1096.6 7349.77,1067.47 C7349.77,1047.94 7333.22,1037.02 7312.7,1037.02 C7280.59,1037.02 7242.2,1064.16 7242.2,1094.61"/>
<path class="Note" d="M4631.65,2954.85 C4631.65,2969.08 4641.91,2984.97 4668.73,2984.97 C4703.15,2984.97 4739.23,2956.83 4739.23,2927.7 C4739.23,2908.18 4722.68,2897.25 4702.16,2897.25 C4670.05,2897.25 4631.65,2924.39 4631.65,2954.85"/>
<path class="Note" d="M4308.83,1177.29 C4308.83,1191.52 4319.09,1207.41 4345.9,1207.41 C4380.32,1207.41 4416.4,1179.27 4416.4,1150.15 C4416.4,1130.62 4399.85,1119.69 4379.33,1119.69 C4347.22,1119.69 4308.83,1146.84 4308.83,1177.29"/>
<path class="Note" d="M1526.23,1218.63 C1526.23,1232.86 1536.49,1248.75 1563.3,1248.75 C1597.72,1248.75 1633.8,1220.61 1633.8,1191.48 C1633.8,1171.96 1617.25,1161.03 1596.73,1161.03 C1564.62,1161.03 1526.23,1188.17 1526.23,1218.63"/>
<path class="Note" d="M6898.06,1218.63 C6898.06,1232.86 6908.32,1248.75 6935.13,1248.75 C6969.55,1248.75 7005.63,1220.61 7005.63,1191.48 C7005.63,1171.96 6989.08,1161.03 6968.56,1161.03 C6936.45,1161.03 6898.06,1188.17 6898.06,1218.63"/>
<path class="Note" d="M4430.84,2086.74 C4430.84,2100.97 4441.1,2116.86 4467.91,2116.86 C4502.33,2116.86 4538.41,2088.72 4538.41,2059.59 C4538.41,2040.07 4521.86,2029.14 4501.34,2029.14 C4469.23,2029.14 4430.84,2056.28 4430.84,2086.74"/>
<path class="Clef" d="M909.689,1148.89 C903.069,1150.22 896.78,1150.88 890.491,1150.88 C843.158,1150.88 802.776,1117.78 802.776,1067.8 C802.776,1027.42 831.242,991.338 860.37,966.182 C865.997,961.217 871.293,956.583 876.258,951.618 C879.237,969.492 881.554,985.049 883.871,998.62 C853.75,1007.56 833.228,1039.33 833.228,1070.45 C833.228,1093.62 851.433,1125.39 877.913,1125.39 C880.561,1125.39 883.54,1124.07 883.54,1121.09 C883.54,1118.11 880.23,1116.46 876.258,1113.81 C863.349,1105.86 856.067,1097.26 856.067,1081.04 C856.067,1060.85 870.962,1044.63 890.491,1040 L909.689,1148.89 M880.561,808.626 C883.54,795.386 898.766,760.631 915.978,760.631 C920.943,760.631 928.887,776.85 928.887,799.689 C928.887,834.113 903.4,859.931 880.561,882.439 C878.575,869.199 876.92,856.29 876.92,842.388 C876.92,830.141 877.913,818.887 880.561,808.626 M956.691,1087.66 C956.691,1111.16 947.092,1135.32 923.591,1144.92 C916.64,1105.2 907.703,1052.57 905.386,1038.01 C935.176,1038.01 956.691,1058.2 956.691,1087.66 M811.051,1250.51 C811.051,1272.36 827.932,1301.15 872.617,1301.15 C888.174,1301.15 901.745,1297.18 913.661,1289.9 C931.535,1277.32 936.169,1255.48 936.169,1234.62 C936.169,1221.71 934.183,1206.82 930.873,1187.95 C929.88,1181.33 927.894,1171.4 925.908,1158.49 C958.346,1147.9 982.509,1114.14 982.509,1080.05 C982.509,1030.07 947.092,996.303 898.766,996.303 C895.456,976.443 892.146,956.914 889.167,938.378 C924.253,901.637 948.416,860.262 948.416,807.633 C948.416,777.512 939.148,753.018 933.852,741.102 C925.908,724.221 916.309,712.636 910.351,712.636 C908.034,712.636 897.773,716.608 886.85,729.517 C865.666,754.673 859.708,797.041 859.708,824.845 C859.708,842.719 861.363,858.938 866.99,896.01 C866.659,896.341 849.447,913.884 842.496,919.511 C812.375,947.646 770.669,987.697 770.669,1053.9 C770.669,1115.79 824.622,1164.45 886.188,1164.45 C895.787,1164.45 904.724,1163.46 912.337,1162.13 C918.626,1193.91 922.267,1217.08 922.267,1234.62 C922.267,1269.05 904.724,1287.25 871.293,1287.25 C863.349,1287.25 856.398,1285.6 855.736,1285.6 C855.405,1285.27 854.743,1284.94 854.743,1284.6 C854.743,1283.94 855.405,1283.61 856.398,1283.28 C871.955,1280.96 887.512,1267.72 887.512,1246.54 C887.512,1228.67 873.941,1209.8 849.116,1209.8 C825.946,1209.8 811.051,1228.67 811.051,1250.51"/>
<path class="Clef" d="M909.689,2017 C903.069,2018.33 896.78,2018.99 890.491,2018.99 C843.158,2018.99 802.776,1985.89 802.776,1935.91 C802.776,1895.53 831.242,1859.45 860.37,1834.29 C865.997,1829.33 871.293,1824.69 876.258,1819.73 C879.237,1837.6 881.554,1853.16 883.871,1866.73 C853.75,1875.67 833.228,1907.44 833.228,1938.56 C833.228,1961.73 851.433,1993.5 877.913,1993.5 C880.561,1993.5 883.54,1992.18 883.54,1989.2 C883.54,1986.22 880.23,1984.57 876.258,1981.92 C863.349,1973.97 856.067,1965.37 856.067,1949.15 C856.067,1928.96 870.962,1912.74 890.491,1908.11 L909.689,2017 M880.561,1676.74 C883.54,1663.5 898.766,1628.74 915.978,1628.74 C920.943,1628.74 928.887,1644.96 928.887,1667.8 C928.887,1702.22 903.4,1728.04 880.561,1750.55 C878.575,1737.31 876.92,1724.4 876.92,1710.5 C876.92,1698.25 877.913,1687 880.561,1676.74 M956.691,1955.77 C956.691,1979.27 947.092,2003.43 923.591,2013.03 C916.64,1973.31 907.703,1920.68 905.386,1906.12 C935.176,1906.12 956.691,1926.31 956.691,1955.77 M811.051,2118.62 C811.051,2140.47 827.932,2169.26 872.617,2169.26 C888.174,2169.26 901.745,2165.29 913.661,2158.01 C931.535,2145.43 936.169,2123.59 936.169,2102.73 C936.169,2089.82 934.183,2074.93 930.873,2056.06 C929.88,2049.44 927.894,2039.51 925.908,2026.6 C958.346,2016.01 982.509,1982.25 982.509,1948.16 C982.509,1898.18 947.092,1864.41 898.766,1864.41 C895.456,1844.55 892.146,1825.02 889.167,1806.49 C924.253,1769.75 948.416,1728.37 948.416,1675.74 C948.416,1645.62 939.148,1621.13 933.852,1609.21 C925.908,1592.33 916.309,1580.75 910.351,1580.75 C908.034,1580.75 897.773,1584.72 886.85,1597.63 C865.666,1622.78 859.708,1665.15 859.708,1692.96 C859.708,1710.83 861.363,1727.05 866.99,1764.12 C866.659,1764.45 849.447,1781.99 842.496,1787.62 C812.375,1815.76 770.669,1855.81 770.669,1922.01 C770.669,1983.9 824.622,2032.56 886.188,2032.56 C895.787,2032.56 904.724,2031.57 912.337,2030.24 C918.626,2062.02 922.267,2085.19 922.267,2102.73 C922.267,2137.16 904.724,2155.36 871.293,2155.36 C863.349,2155.36 856.398,2153.71 855.736,2153.71 C855.405,2153.38 854.743,2153.05 854.743,2152.71 C854.743,2152.05 855.405,2151.72 856.398,2151.39 C871.955,2149.07 887.512,2135.83 887.512,2114.65 C887.512,2096.78 873.941,2077.91 849.116,2077.91 C825.946,2077.91 811.051,2096.78 811.051,2118.62"/>
<path class="Clef" d="M909.689,2885.11 C903.069,2886.44 896.78,2887.1 890.491,2887.1 C843.158,2887.1 802.776,2854 802.776,2804.02 C802.776,2763.64 831.242,2727.56 860.37,2702.4 C865.997,2697.44 871.293,2692.8 876.258,2687.84 C879.237,2705.71 881.554,2721.27 883.871,2734.84 C853.75,2743.78 833.228,2775.55 833.228,2806.67 C833.228,2829.84 851.433,2861.61 877.913,2861.61 C880.561,2861.61 883.54,2860.29 883.54,2857.31 C883.54,2854.33 880.23,2852.68 876.258,2850.03 C863.349,2842.08 856.067,2833.48 856.067,2817.26 C856.067,2797.07 870.962,2780.85 890.491,2776.22 L909.689,2885.11 M880.561,2544.85 C883.54,2531.61 898.766,2496.85 915.978,2496.85 C920.943,2496.85 928.887,2513.07 928.887,2535.91 C928.887,2570.33 903.4,2596.15 880.561,2618.66 C878.575,2605.42 876.92,2592.51 876.92,2578.61 C876.92,2566.36 877.913,2555.11 880.561,2544.85 M956.691,2823.88 C956.691,2847.38 947.092,2871.54 923.591,2881.14 C916.64,2841.42 907.703,2788.79 905.386,2774.23 C935.176,2774.23 956.691,2794.42 956.691,2823.88 M811.051,2986.73 C811.051,3008.58 827.932,3037.37 872.617,3037.37 C888.174,3037.37 901.745,3033.4 913.661,3026.12 C931.535,3013.54 936.169,2991.7 936.169,2970.84 C936.169,2957.93 934.183,2943.04 930.873,2924.17 C929.88,2917.55 927.894,2907.62 925.908,2894.71 C958.346,2884.12 982.509,2850.36 982.509,2816.27 C982.509,2766.29 947.092,2732.52 898.766,2732.52 C895.456,2712.66 892.146,2693.13 889.167,2674.6 C924.253,2637.86 948.416,2596.48 948.416,2543.85 C948.416,2513.73 939.148,2489.24 933.852,2477.32 C925.908,2460.44 916.309,2448.86 910.351,2448.86 C908.034,2448.86 897.773,2452.83 886.85,2465.74 C865.666,2490.89 859.708,2533.26 859.708,2561.07 C859.708,2578.94 861.363,2595.16 866.99,2632.23 C866.659,2632.56 849.447,2650.1 842.496,2655.73 C812.375,2683.87 770.669,2723.92 770.669,2790.12 C770.669,2852.01 824.622,2900.67 886.188,2900.67 C895.787,2900.67 904.724,2899.68 912.337,2898.35 C918.626,2930.13 922.267,2953.3 922.267,2970.84 C922.267,3005.27 904.724,3023.47 871.293,3023.47 C863.349,3023.47 856.398,3021.82 855.736,3021.82 C855.405,3021.49 854.743,3021.16 854.743,3020.82 C854.743,3020.16 855.405,3019.83 856.398,3019.5 C871.955,3017.18 887.512,3003.94 887.512,2982.76 C887.512,2964.89 873.941,2946.02 849.116,2946.02 C825.946,2946.02 811.051,2964.89 811.051,2986.73"/>
<path class="KeySig" d="M1070.17,808.183 L1099.63,802.225 L1099.63,856.84 L1070.17,863.129 L1070.17,808.183 M1121.48,797.922 C1123.47,797.591 1125.12,795.274 1125.12,793.288 L1125.12,773.759 C1125.12,771.111 1123.13,769.125 1120.49,769.125 L1119.82,769.125 L1108.9,771.442 L1108.9,722.123 L1099.63,722.123 L1099.63,773.428 L1070.17,779.386 L1070.17,732.715 L1060.91,732.715 L1060.91,781.372 L1048,784.02 C1046.01,784.351 1044.36,786.668 1044.36,788.654 L1044.36,807.852 C1044.36,810.5 1046.34,812.486 1048.99,812.486 L1049.98,812.486 L1060.91,810.169 L1060.91,864.784 L1048,867.432 C1046.01,867.763 1044.36,870.08 1044.36,872.066 L1044.36,891.264 C1044.36,893.912 1046.34,895.898 1048.99,895.898 L1049.98,895.898 L1060.91,893.581 L1060.91,942.9 L1070.17,942.9 L1070.17,891.595 L1099.63,885.637 L1099.63,932.308 L1108.9,932.308 L1108.9,883.651 L1121.48,881.334 C1123.47,881.003 1125.12,878.686 1125.12,876.7 L1125.12,857.171 C1125.12,854.523 1123.13,852.537 1120.49,852.537 L1119.82,852.537 L1108.9,854.854 L1108.9,800.239 L1121.48,797.922 "/>
<path class="KeySig" d="M1070.17,1676.29 L1099.63,1670.34 L1099.63,1724.95 L1070.17,1731.24 L1070.17,1676.29 M1121.48,1666.03 C1123.47,1665.7 1125.12,1663.38 1125.12,1661.4 L1125.12,1641.87 C1125.12,1639.22 1123.13,1637.24 1120.49,1637.24 L1119.82,1637.24 L1108.9,1639.55 L1108.9,1590.23 L1099.63,1590.23 L1099.63,1641.54 L1070.17,1647.5 L1070.17,1600.83 L1060.91,1600.83 L1060.91,1649.48 L1048,1652.13 C1046.01,1652.46 1044.36,1654.78 1044.36,1656.76 L1044.36,1675.96 C1044.36,1678.61 1046.34,1680.6 1048.99,1680.6 L1049.98,1680.6 L1060.91,1678.28 L1060.91,1732.89 L1048,1735.54 C1046.01,1735.87 1044.36,1738.19 1044.36,1740.18 L1044.36,1759.37 C1044.36,1762.02 1046.34,1764.01 1048.99,1764.01 L1049.98,1764.01 L1060.91,1761.69 L1060.91,1811.01 L1070.17,1811.01 L1070.17,1759.71 L1099.63,1753.75 L1099.63,1800.42 L1108.9,1800.42 L1108.9,1751.76 L1121.48,1749.44 C1123.47,1749.11 1125.12,1746.8 1125.12,1744.81 L1125.12,1725.28 C1125.12,1722.63 1123.13,1720.65 1120.49,1720.65 L1119.82,1720.65 L1108.9,1722.96 L1108.9,1668.35 L1121.48,1666.03 "/>
<path class="KeySig" d="M1070.17,2544.4 L1099.63,2538.45 L1099.63,2593.06 L1070.17,2599.35 L1070.17,2544.4 M1121.48,2534.14 C1123.47,2533.81 1125.12,2531.49 1125.12,2529.51 L1125.12,2509.98 C1125.12,2507.33 1123.13,2505.35 1120.49,2505.35 L1119.82,2505.35 L1108.9,2507.66 L1108.9,2458.34 L1099.63,2458.34 L1099.63,2509.65 L1070.17,2515.61 L1070.17,2468.94 L1060.91,2468.94 L1060.91,2517.59 L1048,2520.24 C1046.01,2520.57 1044.36,2522.89 1044.36,2524.87 L1044.36,2544.07 C1044.36,2546.72 1046.34,2548.71 1048.99,2548.71 L1049.98,2548.71 L1060.91,2546.39 L1060.91,2601 L1048,2603.65 C1046.01,2603.98 1044.36,2606.3 1044.36,2608.29 L1044.36,2627.48 C1044.36,2630.13 1046.34,2632.12 1048.99,2632.12 L1049.98,2632.12 L1060.91,2629.8 L1060.91,2679.12 L1070.17,2679.12 L1070.17,2627.82 L1099.63,2621.86 L1099.63,2668.53 L1108.9,2668.53 L1108.9,2619.87 L1121.48,2617.55 C1123.47,2617.22 1125.12,2614.91 1125.12,2612.92 L1125.12,2593.39 C1125.12,2590.74 1123.13,2588.76 1120.49,2588.76 L1119.82,2588.76 L1108.9,2591.07 L1108.9,2536.46 L1121.48,2534.14 "/>
<path class="TimeSig" d="M1315.31,938.782 C1307.04,944.078 1301.08,953.677 1301.08,964.269 C1301.08,965.593 1301.08,966.917 1301.41,968.241 C1303.07,981.812 1313.99,992.404 1327.56,994.059 L1331.2,994.059 C1347.75,994.059 1360.99,980.819 1360.99,964.269 L1360.99,962.283 C1360.99,960.959 1360.66,958.642 1360.33,957.318 C1357.35,943.085 1344.44,912.633 1288.17,912.633 C1216.01,912.633 1207.74,972.544 1207.74,994.059 C1207.74,1033.45 1212.7,1082.77 1295.45,1082.77 C1328.22,1082.77 1353.71,1063.57 1355.03,1028.15 C1355.03,1026.5 1354.04,1025.5 1352.38,1025.5 L1348.08,1025.5 C1346.76,1025.5 1345.43,1026.83 1345.43,1028.15 C1344.11,1055.63 1324.58,1072.18 1295.45,1072.18 C1266.66,1072.18 1252.75,1056.62 1252.75,1027.49 L1252.75,964.269 C1252.75,945.733 1260.04,924.549 1289.49,924.549 C1305.05,924.549 1312,930.176 1315.64,935.803 C1315.97,936.465 1315.97,936.796 1315.97,937.458 C1315.97,937.789 1315.97,938.451 1315.31,938.782"/>
<path class="Beam" fill-rule="evenodd" d="M4770,811.885 L4959.25,791.215 L4959.25,832.8 L4770,853.469 L4770,811.885 "/>
<path class="Beam" fill-rule="evenodd" d="M5715.02,1679.98 L5893.7,1700.65 L5893.7,1742.26 L5715.02,1721.59 L5715.02,1679.98 "/>
<path class="Beam" fill-rule="evenodd" d="M5519.19,2920.27 L6322.87,2940.94 L6322.87,2982.29 L5519.19,2961.62 L5519.19,2920.27 "/>
<path class="Beam" fill-rule="evenodd" d="M3571.1,2982.28 L4374.78,2982.28 L4374.78,3023.62 L3571.1,3023.62 L3571.1,2982.28 "/>
<path class="Beam" fill-rule="evenodd" d="M8530.5,811.885 L8719.75,832.554 L8719.75,874.138 L8530.5,853.469 L8530.5,811.885 "/>
<path class="Beam" fill-rule="evenodd" d="M2392.31,2940.94 L3196,2920.27 L3196,2961.62 L2392.31,2982.29 L2392.31,2940.94 "/>
<path class="Beam" fill-rule="evenodd" d="M6146.39,1204.6 L6335.64,1183.93 L6335.64,1225.52 L6146.39,1246.19 L6146.39,1204.6 "/>
<path class="Beam" fill-rule="evenodd" d="M1331.75,2899.6 L2135.44,2878.93 L2135.44,2920.28 L1331.75,2940.95 L1331.75,2899.6 "/>
<path class="Beam" fill-rule="evenodd" d="M1331.75,2052.15 L1851.23,2072.82 L1851.23,2114.19 L1331.75,2093.52 L1331.75,2052.15 "/>
<path class="Beam" fill-rule="evenodd" d="M6678.96,2444.82 L7482.64,2506.83 L7482.64,2548.29 L6678.96,2486.28 L6678.96,2444.82 "/>
<path class="Beam" fill-rule="evenodd" d="M4046.07,811.993 L4597.29,832.662 L4597.29,874.03 L4046.07,853.361 L4046.07,811.993 "/>
<path class="Beam" fill-rule="evenodd" d="M8798.55,2072.83 L8977.22,2072.83 L8977.22,2114.17 L8798.55,2114.17 L8798.55,2072.83 "/>
<path class="Beam" fill-rule="evenodd" d="M2112.58,1576.62 L2632.06,1638.63 L2632.06,1680.26 L2112.58,1618.26 L2112.58,1576.62 "/>
<path class="Beam" fill-rule="evenodd" d="M7861.32,2010.81 L8380.8,2031.48 L8380.8,2072.85 L7861.32,2052.18 L7861.32,2010.81 "/>
<path class="Beam" fill-rule="evenodd" d="M5521.67,708.531 L6072.89,770.539 L6072.89,812.138 L5521.67,750.13 L5521.67,708.531 "/>
<path class="Beam" fill-rule="evenodd" d="M3158.67,811.885 L3347.92,832.554 L3347.92,874.138 L3158.67,853.469 L3158.67,811.885 "/>
<path class="NoteDot" d="M2242.94,1039.37 C2242.94,1048.64 2250.22,1055.92 2259.49,1055.92 C2268.76,1055.92 2276.04,1048.64 2276.04,1039.37 C2276.04,1030.1 2268.76,1022.82 2259.49,1022.82 C2250.22,1022.82 2242.94,1030.1 2242.94,1039.37"/>
<path class="NoteDot" d="M7907.36,2775.59 C7907.36,2784.86 7914.64,2792.14 7923.91,2792.14 C7933.18,2792.14 7940.46,2784.86 7940.46,2775.59 C7940.46,2766.32 7933.18,2759.04 7923.91,2759.04 C7914.64,2759.04 7907.36,2766.32 7907.36,2775.59"/>
<path class="NoteDot" d="M7336.39,1742.13 C7336.39,1751.39 7343.68,1758.68 7352.94,1758.68 C7362.21,1758.68 7369.49,1751.39 7369.49,1742.13 C7369.49,1732.86 7362.21,1725.58 7352.94,1725.58 C7343.68,1725.58 7336.39,1732.86 7336.39,1742.13"/>
<path class="NoteDot" d="M3023.15,1907.48 C3023.15,1916.75 3030.43,1924.03 3039.7,1924.03 C3048.97,1924.03 3056.25,1916.75 3056.25,1907.48 C3056.25,1898.21 3048.97,1890.93 3039.7,1890.93 C3030.43,1890.93 3023.15,1898.21 3023.15,1907.48"/>
<path class="NoteDot" d="M6105.45,1990.16 C6105.45,1999.43 6112.73,2006.71 6122,2006.71 C6131.27,2006.71 6138.55,1999.43 6138.55,1990.16 C6138.55,1980.89 6131.27,1973.61 6122,1973.61 C6112.73,1973.61 6105.45,1980.89 6105.45,1990.16"/>
<path class="NoteDot" d="M4835.27,2072.83 C4835.27,2082.1 4842.56,2089.38 4851.82,2089.38 C4861.09,2089.38 4868.37,2082.1 4868.37,2072.83 C4868.37,2063.57 4861.09,2056.28 4851.82,2056.28 C4842.56,2056.28 4835.27,2063.57 4835.27,2072.83"/>
<path class="NoteDot" d="M7614.76,1039.37 C7614.76,1048.64 7622.05,1055.92 7631.31,1055.92 C7640.58,1055.92 7647.86,1048.64 7647.86,1039.37 C7647.86,1030.1 7640.58,1022.82 7631.31,1022.82 C7622.05,1022.82 7614.76,1030.1 7614.76,1039.37"/>
<path class="NoteDot" d="M4780.49,2940.94 C4780.49,2950.21 4787.77,2957.49 4797.04,2957.49 C4806.3,2957.49 4813.59,2950.21 4813.59,2940.94 C4813.59,2931.68 4806.3,2924.39 4797.04,2924.39 C4787.77,2924.39 4780.49,2931.68 4780.49,2940.94"/>
<path class="NoteDot" d="M7046.89,1204.72 C7046.89,1213.99 7054.17,1221.27 7063.44,1221.27 C7072.71,1221.27 7079.99,1213.99 7079.99,1204.72 C7079.99,1195.46 7072.71,1188.17 7063.44,1188.17 C7054.17,1188.17 7046.89,1195.46 7046.89,1204.72"/>
<path class="NoteDot" d="M1675.06,1204.72 C1675.06,1213.99 1682.34,1221.27 1691.61,1221.27 C1700.88,1221.27 1708.16,1213.99 1708.16,1204.72 C1708.16,1195.46 1700.88,1188.17 1691.61,1188.17 C1682.34,1188.17 1675.06,1195.46 1675.06,1204.72"/>
</svg>
