<?xml version="1.0" encoding="UTF-8" standalone="no"?>
<svg
   width="681"
   height="116.60989"
   version="1.2"
   id="svg139"
   xmlns="http://www.w3.org/2000/svg"
   xmlns:svg="http://www.w3.org/2000/svg"
   xmlns:rdf="http://www.w3.org/1999/02/22-rdf-syntax-ns#"
   xmlns:cc="http://creativecommons.org/ns#"
   xmlns:dc="http://purl.org/dc/elements/1.1/">
  <defs
     id="defs139" />
  <title
     id="title1">air_XXV</title>
  <desc
     id="desc1">Generated by MuseScore Studio 4.7.3</desc>
  <path
     id="path139"
     class="NoteDot"
     d="m 186.50751,95.653163 c 0,0.741306 0.5828,1.324906 1.3249,1.324906 0.74211,0 1.32491,-0.5836 1.32491,-1.324906 0,-0.742108 -0.5828,-1.324906 -1.32491,-1.324906 -0.7421,0 -1.3249,0.582798 -1.3249,1.324906 M 583.32203,6.3004679 c 0,0.7419473 0.5828,1.3249059 1.3249,1.3249059 0.74131,0 1.32491,-0.5829586 1.32491,-1.3249059 0,-0.7419473 -0.5836,-1.3249059 -1.32491,-1.3249059 -0.7421,0 -1.3249,0.5829586 -1.3249,1.3249059 M 185.64052,19.537839 c 0,0.741947 0.58279,1.324906 1.3249,1.324906 0.74211,0 1.32491,-0.582959 1.32491,-1.324906 0,-0.741947 -0.5828,-1.324906 -1.32491,-1.324906 -0.74211,0 -1.3249,0.582959 -1.3249,1.324906 m 117.86699,6.619006 c 0,0.741307 0.58279,1.324906 1.3249,1.324906 0.74131,0 1.32491,-0.583599 1.32491,-1.324906 0,-0.742108 -0.5836,-1.324906 -1.32491,-1.324906 -0.74211,0 -1.3249,0.582798 -1.3249,1.324906 m 144.97913,69.496318 c 0,0.741306 0.58279,1.324906 1.3249,1.324906 0.74211,0 1.32491,-0.5836 1.32491,-1.324906 0,-0.742108 -0.5828,-1.324906 -1.32491,-1.324906 -0.74211,0 -1.3249,0.582798 -1.3249,1.324906 m 167.86918,-13.246658 16.02775,1.654732 v 3.327075 L 616.35582,85.73358 v -3.327075 m -86.24537,-52.952206 13.95994,-1.654731 v 3.332679 l -13.95994,1.654731 v -3.332679 m -78.17506,-16.546673 13.95995,1.654651 v 3.332519 L 451.93539,16.240144 V 12.907626 M 45.09402,32.792582 v 1.96054 h -2.199104 c -0.185727,0 -0.370653,0.159309 -0.370653,0.370654 v 0.503544 c 0,0.212145 0.184926,0.371454 0.370653,0.371454 h 8.02869 c 0.212145,0 0.371454,-0.159309 0.371454,-0.371454 v -0.503544 c 0,-0.211345 -0.159309,-0.370654 -0.371454,-0.370654 h -2.384831 v -1.96054 h 2.384831 c 0.212145,0 0.371454,-0.185727 0.371454,-0.397872 v -0.503544 c 0,-0.184927 -0.159309,-0.370654 -0.371454,-0.370654 h -2.384831 v -4.213281 c 0,-0.159309 -0.07925,-0.291399 -0.184926,-0.344235 l -0.317817,-0.159309 c -0.05364,-0.02642 -0.08006,-0.02642 -0.132891,-0.02642 -0.105672,0 -0.212145,0 -0.291399,0.07925 l -2.411249,2.199904 c -0.07925,0.07925 -0.106473,0.184927 -0.106473,0.2914 v 2.172685 h -3.073301 c 0,0 2.967629,-3.179774 6.094567,-7.366637 0.105672,-0.13209 0.13209,-0.264981 0.13209,-0.370653 0,-0.132891 -0.05284,-0.238563 -0.07925,-0.264981 l -0.582798,-0.583279 c -0.07926,-0.053 -0.159309,-0.105993 -0.264982,-0.105993 -0.159309,0 -3.736154,0 -3.948299,0 -0.185727,0 -0.317818,0.158989 -0.344236,0.317978 0,0 -0.132891,1.961181 -0.821361,4.107448 -0.689272,2.146268 -1.484215,3.471174 -2.173486,4.451844 0,0 -0.07926,0.13209 -0.07926,0.291399 0,0.05284 0,0.105673 0.02642,0.158509 0.07925,0.185727 0.264981,0.477126 0.264981,0.477126 0,0 0.05284,0.159309 0.291399,0.159309 h 4.557516 m 0.794143,-11.066607 c -0.874998,0 -1.589887,-1.192415 -1.589887,-2.67631 0,-1.483894 0.714889,-2.702808 1.589887,-2.702808 0.874198,0 1.616305,1.218914 1.616305,2.702808 0,1.483895 -0.742107,2.67631 -1.616305,2.67631 m 0.97987,-6.624529 c -1.616305,0 -2.199104,0.476966 -2.569757,0.874437 -0.08006,-0.55646 -0.132891,-0.98043 -0.132891,-1.4044 0,-1.510393 0.529963,-3.471253 2.384831,-3.471253 0.662853,0 1.059925,0.211985 1.324906,0.503464 -0.556381,0.238483 -1.007089,0.953932 -1.007089,1.563389 0,0.953932 0.742108,1.69588 1.69636,1.69588 0.953452,0 1.721977,-0.741948 1.721977,-1.69588 v -0.07949 c 0,-0.238483 -0.05284,-0.635955 -0.158508,-0.84794 -0.345036,-0.953932 -1.457797,-2.3583327 -4.107609,-2.3583327 -2.38483,0 -4.106808,2.2788377 -4.63677,3.4977517 -0.264981,0.635955 -0.662853,1.934363 -0.662853,3.418257 0,1.616385 0.450708,3.444755 2.014177,4.822658 1.537051,1.165917 2.516921,1.218913 3.444755,1.218913 0.927034,0 4.398208,-1.086423 4.398208,-4.160204 0,-2.596816 -2.039795,-3.577246 -3.709737,-3.577246 M 28.940575,77.145306 31.298988,76.66818 v 4.372589 l -2.358413,0.503545 v -4.399008 m 4.107609,-0.821362 c 0.159309,-0.02642 0.291399,-0.212145 0.291399,-0.371454 v -1.562668 c 0,-0.212145 -0.159309,-0.371454 -0.370653,-0.371454 h -0.05364 l -0.874198,0.185727 v -3.9483 h -0.742107 v 4.106808 l -2.358413,0.477126 v -3.736154 h -0.741307 v 3.895463 l -1.033506,0.212145 c -0.159309,0.02642 -0.2914,0.211345 -0.2914,0.370654 v 1.537051 c 0,0.212145 0.158509,0.370653 0.370654,0.370653 h 0.07925 l 0.874998,-0.184926 v 4.371789 l -1.033506,0.212145 c -0.159309,0.02642 -0.2914,0.212145 -0.2914,0.370654 v 1.53705 c 0,0.212146 0.158509,0.370654 0.370654,0.370654 h 0.07925 l 0.874998,-0.184927 v 3.9483 h 0.741307 v -4.107608 l 2.358413,-0.477127 V 87.0817 h 0.742107 v -3.894663 l 1.007089,-0.185727 c 0.159309,-0.02642 0.291399,-0.212145 0.291399,-0.370653 v -1.56347 c 0,-0.212145 -0.159309,-0.371453 -0.370653,-0.371453 h -0.05364 L 32.041081,80.88146 V 76.509671 L 33.04817,76.323944 M 28.940575,7.64899 31.298988,7.1720239 v 4.3721891 l -2.358413,0.503465 V 7.64899 m 4.107609,-0.8214417 c 0.159309,-0.026498 0.291399,-0.2119849 0.291399,-0.3709736 v -1.563389 c 0,-0.2119849 -0.159309,-0.3709736 -0.370653,-0.3709736 H 32.91529 L 32.041095,4.7076989 V 0.75947929 H 31.298988 V 4.8666876 L 28.940575,5.3436537 V 1.6074191 h -0.741307 v 3.8952233 l -1.033506,0.211985 c -0.159309,0.026498 -0.2914,0.2119849 -0.2914,0.3709736 v 1.5368909 c 0,0.2119849 0.158509,0.3709736 0.370654,0.3709736 h 0.07925 l 0.874998,-0.1854868 v 4.3721893 l -1.033506,0.211985 c -0.159309,0.0265 -0.2914,0.211985 -0.2914,0.370974 v 1.536891 c 0,0.211985 0.158509,0.370973 0.370654,0.370973 h 0.07925 l 0.874998,-0.185487 v 3.94822 h 0.741307 V 14.326516 L 31.29898,13.84955 v 3.736234 h 0.742107 v -3.895223 l 1.007089,-0.185487 c 0.159309,-0.0265 0.291399,-0.211985 0.291399,-0.370974 v -1.563389 c 0,-0.211984 -0.159309,-0.370973 -0.370653,-0.370973 h -0.05364 l -0.874198,0.185487 V 7.0130351 l 1.0071,-0.1854868 M 16.093311,34.924439 c -0.529962,0.106473 -1.033427,0.159309 -1.536891,0.159309 -3.789231,0 -7.0220012,-2.649811 -7.0220012,-6.650947 0,-3.233411 2.2788382,-6.121386 4.6106722,-8.135243 0.450468,-0.397471 0.874438,-0.768445 1.27191,-1.165917 0.238483,1.430899 0.42397,2.67631 0.609457,3.762733 -2.411329,0.715129 -4.0542123,3.259268 -4.0542123,5.749771 0,1.854869 1.4573963,4.399008 3.5772463,4.399008 0.211985,0 0.450468,-0.105672 0.450468,-0.344235 0,-0.238563 -0.264982,-0.371454 -0.582959,-0.582799 -1.033427,-0.636435 -1.616385,-1.324906 -1.616385,-2.623393 0,-1.616306 1.192415,-2.914793 2.755804,-3.286247 l 1.536891,8.71796 M 13.761477,7.6844542 c 0.238483,-1.0599247 1.457396,-3.8422271 2.835298,-3.8422271 0.397472,0 1.033427,1.2984078 1.033427,3.1267779 0,2.7558043 -2.040355,4.822658 -3.868725,6.62453 -0.158989,-1.059925 -0.29148,-2.093352 -0.29148,-3.206273 0,-0.9804301 0.0795,-1.8813661 0.29148,-2.7028078 m 6.094567,22.3382338 c 0,1.881286 -0.768446,3.815409 -2.649812,4.583934 -0.556461,-3.179774 -1.27191,-7.393055 -1.457397,-8.558652 2.384831,0 4.107209,1.616305 4.107209,3.974718 M 8.1968718,43.059602 c 0,1.748395 1.351404,4.053972 4.9286502,4.053972 1.245411,0 2.331834,-0.317818 3.285766,-0.900616 1.430899,-1.007089 1.801872,-2.756285 1.801872,-4.425426 0,-1.033507 -0.158988,-2.225522 -0.423969,-3.736154 -0.07949,-0.529963 -0.238484,-1.324906 -0.397472,-2.358413 2.596815,-0.84778 4.531178,-3.550428 4.531178,-6.280294 0,-4.001136 -2.835299,-6.703784 -6.704024,-6.703784 -0.264981,-1.589887 -0.529962,-3.153276 -0.768445,-4.637171 2.8088,-2.941291 4.743163,-6.253555 4.743163,-10.4667561 0,-2.4113288 -0.741948,-4.3721895 -1.165917,-5.3261218 C 17.391719,0.92743413 16.623273,0 16.146307,0 15.96082,0 15.139379,0.31797742 14.264941,1.351404 c -1.69588,2.013857 -2.172846,5.4056161 -2.172846,7.631458 0,1.430898 0.132491,2.729306 0.582959,5.697095 -0.0265,0.0265 -1.404401,1.430899 -1.960861,1.881367 -2.4113287,2.25234 -5.7500916,5.458612 -5.7500916,10.757915 0,4.955389 4.3191932,8.850852 9.2478436,8.850852 0.768445,0 1.483894,-0.07925 2.093351,-0.185727 0.503464,2.54414 0.794943,4.399008 0.794943,5.803168 0,2.755484 -1.4044,4.213281 -4.08071,4.213281 -0.635955,0 -1.192415,-0.132891 -1.245411,-0.132891 -0.0265,-0.02642 -0.07949,-0.05284 -0.07949,-0.07925 0,-0.05284 0.053,-0.07925 0.132491,-0.105672 1.245412,-0.185727 2.490823,-1.245652 2.490823,-2.941211 0,-1.431379 -1.086423,-2.941211 -3.073782,-2.941211 -1.8548679,0 -3.0472832,1.509832 -3.0472832,3.259028 m 7.8964392,61.361154 c -0.529962,0.10647 -1.033427,0.15931 -1.536891,0.15931 -3.789231,0 -7.0220012,-2.64982 -7.0220012,-6.650947 0,-3.233411 2.2788382,-6.120985 4.6106722,-8.135163 0.450468,-0.397872 0.874438,-0.768525 1.27191,-1.165597 0.238483,1.430579 0.42397,2.67623 0.609457,3.762573 -2.411329,0.714889 -4.0542123,3.259028 -4.0542123,5.749531 0,1.854869 1.4573963,4.399003 3.5772463,4.399003 0.211985,0 0.450468,-0.10567 0.450468,-0.34423 0,-0.23857 -0.264982,-0.37146 -0.582959,-0.5828 -1.033427,-0.63644 -1.616385,-1.32491 -1.616385,-2.623392 0,-1.616306 1.192415,-2.914793 2.755804,-3.286247 l 1.536891,8.717959 M 13.761477,77.180532 c 0.238483,-1.059925 1.457396,-3.841827 2.835298,-3.841827 0.397472,0 1.033427,1.298488 1.033427,3.126938 0,2.755484 -2.040355,4.822498 -3.868725,6.62453 -0.158989,-1.059925 -0.29148,-2.093432 -0.29148,-3.206193 0,-0.98067 0.0795,-1.882086 0.29148,-2.703448 m 6.094567,22.338474 c 0,1.881284 -0.768446,3.815404 -2.649812,4.583934 -0.556461,-3.17977 -1.27191,-7.393055 -1.457397,-8.558652 2.384831,0 4.107209,1.616305 4.107209,3.974718 M 8.1968718,112.55592 c 0,1.7484 1.351404,4.05397 4.9286502,4.05397 1.245411,0 2.331834,-0.31782 3.285766,-0.90061 1.430899,-1.00709 1.801872,-2.75629 1.801872,-4.42543 0,-1.03351 -0.158988,-2.22552 -0.423969,-3.73615 -0.07949,-0.52997 -0.238484,-1.32491 -0.397472,-2.35842 2.596815,-0.84778 4.531178,-3.55042 4.531178,-6.280291 0,-4.001136 -2.835299,-6.703784 -6.704024,-6.703784 -0.264981,-1.589887 -0.529962,-3.153356 -0.768445,-4.63677 2.8088,-2.942012 4.743163,-6.253876 4.743163,-10.467157 0,-2.411249 -0.741948,-4.371789 -1.165917,-5.326042 -0.635955,-1.351324 -1.404401,-2.279158 -1.881367,-2.279158 -0.185487,0 -1.006928,0.318618 -1.881366,1.351324 -1.69588,2.014177 -2.172846,5.406096 -2.172846,7.631618 0,1.431379 0.132491,2.729866 0.582959,5.697495 -0.0265,0.02642 -1.404401,1.430579 -1.960861,1.881287 -2.4113287,2.25194 -5.7500916,5.458132 -5.7500916,10.757755 0,4.955393 4.3191932,8.850853 9.2478436,8.850853 0.768445,0 1.483894,-0.0793 2.093351,-0.18573 0.503464,2.54414 0.794943,4.39901 0.794943,5.80317 0,2.75548 -1.4044,4.21328 -4.08071,4.21328 -0.635955,0 -1.192415,-0.13289 -1.245411,-0.13289 -0.0265,-0.0264 -0.07949,-0.0528 -0.07949,-0.0793 0,-0.0528 0.053,-0.0793 0.132491,-0.10568 1.245412,-0.18572 2.490823,-1.24565 2.490823,-2.94121 0,-1.43138 -1.086423,-2.94121 -3.073782,-2.94121 -1.8548679,0 -3.0472832,1.50983 -3.0472832,3.25903 M 609.99226,14.032074 c 0,1.139419 0.82137,2.411329 2.96763,2.411329 2.75629,0 5.64466,-2.25234 5.64466,-4.584174 0,-1.563389 -1.3249,-2.4378271 -2.96843,-2.4378271 -2.56975,0 -5.64386,2.1728461 -5.64386,4.6106721 M 508.73823,84.69447 c -0.8742,0 -1.05992,-0.71569 -1.05992,-0.954253 0,-1.298488 4.45184,-3.576846 5.69749,-3.576846 0.63564,0 1.05993,0.370654 1.05993,0.953452 0,1.324906 -4.47826,3.577647 -5.6975,3.577647 m 3.6569,-5.77675 c -2.57055,0 -5.64386,2.146267 -5.64386,4.610352 0,1.13998 0.82137,2.412049 2.96763,2.412049 2.75549,0 5.64386,-2.25274 5.64386,-4.584734 0,-1.563469 -1.3249,-2.437667 -2.96763,-2.437667 M 384.65899,23.960143 c 0,1.139179 0.82217,2.411248 2.96843,2.411248 2.75549,0 5.64386,-2.251939 5.64386,-4.584094 0,-1.563389 -1.3249,-2.437827 -2.96763,-2.437827 -2.57055,0 -5.64466,2.172846 -5.64466,4.610673 m 99.04292,69.496318 c 0,1.139179 0.82137,2.411248 2.96763,2.411248 2.75549,0 5.64386,-2.251939 5.64386,-4.583934 0,-1.563469 -1.3249,-2.437667 -2.96763,-2.437667 -2.57055,0 -5.64386,2.172686 -5.64386,4.610353 M 212.31155,23.960143 c 0,1.139179 0.82136,2.411248 2.96763,2.411248 2.75548,0 5.64386,-2.251939 5.64386,-4.584094 0,-1.563389 -1.32491,-2.437827 -2.96763,-2.437827 -2.57056,0 -5.64386,2.172846 -5.64386,4.610673 m 253.47892,72.80578 c 0,1.139179 0.82136,2.411249 2.96763,2.411249 2.75628,0 5.64466,-2.25274 5.64466,-4.583934 0,-1.563469 -1.32491,-2.438467 -2.96763,-2.438467 -2.57056,0 -5.64466,2.173486 -5.64466,4.611152 M 416.05886,31.744665 c -0.87419,0 -1.05992,-0.715689 -1.05992,-0.953452 0,-1.298487 4.45184,-3.577646 5.69749,-3.577646 0.63564,0 1.05993,0.370654 1.05993,0.954253 0,1.324906 -4.47826,3.576845 -5.6975,3.576845 m 3.6569,-5.77675 c -2.57055,0 -5.64386,2.146268 -5.64386,4.611153 0,1.139179 0.82137,2.411249 2.96763,2.411249 2.75549,0 5.64386,-2.25274 5.64386,-4.583934 0,-1.563469 -1.3249,-2.438468 -2.96763,-2.438468 m 24.2774,7.920616 c 0,1.139179 0.82136,2.411249 2.96763,2.411249 2.75549,0 5.64386,-2.25274 5.64386,-4.584735 0,-1.563469 -1.3249,-2.437667 -2.96763,-2.437667 -2.57056,0 -5.64386,2.172686 -5.64386,4.611153 m 97.33215,59.56793 c 0,1.139179 0.82137,2.411248 2.96763,2.411248 2.75549,0 5.64386,-2.251939 5.64386,-4.583934 0,-1.563469 -1.3249,-2.437667 -2.96763,-2.437667 -2.57055,0 -5.64386,2.172686 -5.64386,4.610353 m -104.75402,6.618929 c 0,1.13918 0.82216,2.41124 2.96843,2.41124 2.75548,0 5.64386,-2.25274 5.64386,-4.583929 0,-1.563469 -1.32491,-2.438468 -2.96763,-2.438468 -2.57056,0 -5.64466,2.173487 -5.64466,4.611157 M 334.7905,23.960143 c 0,1.139179 0.82136,2.411248 2.96763,2.411248 2.75628,0 5.64385,-2.251939 5.64385,-4.584094 0,-1.563389 -1.3249,-2.437827 -2.96762,-2.437827 -2.56976,0 -5.64386,2.172846 -5.64386,4.610673 m -17.91145,3.309463 c 0,1.139178 0.82136,2.411248 2.96843,2.411248 2.75548,0 5.64386,-2.25274 5.64386,-4.583934 0,-1.563469 -1.32491,-2.438067 -2.96763,-2.438067 -2.57056,0 -5.64466,2.173086 -5.64466,4.610753 m 140.41201,9.927587 c 0,1.13998 0.82136,2.41205 2.96843,2.41205 2.75548,0 5.64385,-2.252741 5.64385,-4.584735 0,-1.563469 -1.3249,-2.437667 -2.96762,-2.437667 -2.57056,0 -5.64466,2.172686 -5.64466,4.610352 m -53.2332,66.187657 c 0,1.13918 0.82136,2.41125 2.96763,2.41125 2.75548,0 5.64386,-2.25274 5.64386,-4.58474 0,-1.562665 -1.32491,-2.437664 -2.96763,-2.437664 -2.57056,0 -5.64386,2.172684 -5.64386,4.611154 m 68.51885,-65.021259 c -0.8742,0 -1.05993,-0.715689 -1.05993,-0.954252 0,-1.298488 4.45185,-3.576846 5.6975,-3.576846 0.63563,0 1.05992,0.370653 1.05992,0.953452 0,1.324906 -4.47826,3.577646 -5.69749,3.577646 m 3.6569,-5.77675 c -2.56976,0 -5.64386,2.146268 -5.64386,4.610352 0,1.13998 0.82136,2.41205 2.96763,2.41205 2.75628,0 5.64386,-2.252741 5.64386,-4.584735 0,-1.563469 -1.32491,-2.437667 -2.96763,-2.437667 M 371.47078,97.93152 c -0.8742,0 -1.05993,-0.714888 -1.05993,-0.953451 0,-1.298488 4.45185,-3.577647 5.6975,-3.577647 0.63563,0 1.05992,0.371454 1.05992,0.954253 0,1.324906 -4.47826,3.576845 -5.69749,3.576845 m 3.6569,-5.776749 c -2.57056,0 -5.64386,2.147068 -5.64386,4.611152 0,1.139179 0.82136,2.411249 2.96763,2.411249 2.75548,0 5.64386,-2.25274 5.64386,-4.583934 0,-1.563469 -1.32491,-2.438467 -2.96763,-2.438467 M 199.01286,20.65076 c 0,1.139419 0.82136,2.411329 2.96763,2.411329 2.75628,0 5.64466,-2.25234 5.64466,-4.584175 0,-1.563389 -1.32491,-2.437827 -2.96843,-2.437827 -2.56976,0 -5.64386,2.172846 -5.64386,4.610673 m 147.4216,72.805701 c 0,1.139179 0.82136,2.411248 2.96763,2.411248 2.75548,0 5.64386,-2.251939 5.64386,-4.583934 0,-1.563469 -1.32491,-2.437667 -2.96763,-2.437667 -2.57056,0 -5.64386,2.172686 -5.64386,4.610353 M 530.11045,14.032074 c 0,1.139419 0.82136,2.411329 2.96762,2.411329 2.75629,0 5.64466,-2.25234 5.64466,-4.584174 0,-1.563389 -1.3249,-2.4378271 -2.96843,-2.4378271 -2.56975,0 -5.64385,2.1728461 -5.64385,4.6106721 M 313.84738,88.003932 c -0.8742,0 -1.05993,-0.715689 -1.05993,-0.954252 0,-1.298488 4.45185,-3.576846 5.6975,-3.576846 0.63563,0 1.05992,0.370654 1.05992,0.953452 0,1.324906 -4.47826,3.577646 -5.69749,3.577646 m 3.6569,-5.776749 c -2.56976,0 -5.64386,2.146267 -5.64386,4.610352 0,1.139979 0.82136,2.411249 2.96763,2.411249 2.75628,0 5.64386,-2.25194 5.64386,-4.583935 0,-1.563469 -1.32491,-2.437666 -2.96763,-2.437666 M 575.8265,101.24098 c -0.87419,0 -1.05992,-0.71569 -1.05992,-0.95345 0,-1.298486 4.45184,-3.577645 5.69749,-3.577645 0.63564,0 1.05993,0.370654 1.05993,0.954253 0,1.324906 -4.47826,3.576842 -5.6975,3.576842 m 3.6569,-5.776747 c -2.57055,0 -5.64385,2.146268 -5.64385,4.611157 0,1.13918 0.82136,2.41124 2.96762,2.41124 2.75549,0 5.64386,-2.25274 5.64386,-4.583929 0,-1.563469 -1.3249,-2.438468 -2.96763,-2.438468 M 66.511064,31.744665 c -0.874998,0 -1.059925,-0.715689 -1.059925,-0.953452 0,-1.298487 4.451844,-3.577646 5.696695,-3.577646 0.636436,0 1.059925,0.370654 1.059925,0.954253 0,1.324906 -4.478262,3.576845 -5.696695,3.576845 m 3.6569,-5.77675 c -2.570557,0 -5.644659,2.146268 -5.644659,4.611153 0,1.139179 0.821361,2.411249 2.967629,2.411249 2.756285,0 5.644659,-2.25274 5.644659,-4.583934 0,-1.563469 -1.324905,-2.438468 -2.967629,-2.438468 M 543.40914,10.722772 c 0,1.139419 0.82136,2.411328 2.96763,2.411328 2.75548,0 5.64386,-2.25234 5.64386,-4.584174 0,-1.563389 -1.32491,-2.4378269 -2.96763,-2.4378269 -2.57056,0 -5.64386,2.1728457 -5.64386,4.6106729 M 279.34619,93.456461 c 0,1.139179 0.82136,2.411248 2.96763,2.411248 2.75628,0 5.64465,-2.251939 5.64465,-4.583934 0,-1.563469 -1.3249,-2.437667 -2.96842,-2.437667 -2.56976,0 -5.64386,2.172686 -5.64386,4.610353 m 12.24597,-62.877393 c 0,1.139179 0.82136,2.411249 2.96843,2.411249 2.75548,0 5.64386,-2.25274 5.64386,-4.583934 0,-1.563469 -1.32491,-2.438468 -2.96763,-2.438468 -2.57056,0 -5.64466,2.173487 -5.64466,4.611153 m -44.83225,57.424864 c -0.875,0 -1.05993,-0.715689 -1.05993,-0.954252 0,-1.298488 4.45104,-3.576846 5.6967,-3.576846 0.63643,0 1.05992,0.370654 1.05992,0.953452 0,1.324906 -4.47826,3.577646 -5.69669,3.577646 m 3.6561,-5.776749 c -2.56976,0 -5.64386,2.146267 -5.64386,4.610352 0,1.139979 0.82136,2.411249 2.96763,2.411249 2.75628,0 5.64465,-2.25194 5.64465,-4.583935 0,-1.563469 -1.3249,-2.437666 -2.96842,-2.437666 M 571.40668,7.4133889 c 0,1.1394191 0.82216,2.4113287 2.96843,2.4113287 2.75549,0 5.64386,-2.25234 5.64386,-4.5841744 0,-1.563389 -1.32491,-2.4378268 -2.96763,-2.4378268 -2.57056,0 -5.64466,2.1728456 -5.64466,4.6106725 M 221.72279,93.456461 c 0,1.139179 0.82136,2.411248 2.96763,2.411248 2.75628,0 5.64466,-2.251939 5.64466,-4.583934 0,-1.563469 -1.32491,-2.437667 -2.96763,-2.437667 -2.57056,0 -5.64466,2.172686 -5.64466,4.610353 m 386.68999,9.928389 c 0,1.13918 0.82217,2.41125 2.96843,2.41125 2.75549,0 5.64386,-2.25274 5.64386,-4.58474 0,-1.562665 -1.3249,-2.437664 -2.96763,-2.437664 -2.57055,0 -5.64466,2.172684 -5.64466,4.611154 M 203.81214,96.765923 c 0,1.139179 0.82136,2.411249 2.96763,2.411249 2.75548,0 5.64386,-2.25274 5.64386,-4.583934 0,-1.563469 -1.32491,-2.438467 -2.96763,-2.438467 -2.57056,0 -5.64386,2.173486 -5.64386,4.611152 M 596.69437,10.722772 c 0,1.139419 0.82136,2.411328 2.96763,2.411328 2.75549,0 5.64386,-2.25234 5.64386,-4.584174 0,-1.563389 -1.32491,-2.4378269 -2.96763,-2.4378269 -2.57056,0 -5.64386,2.1728457 -5.64386,4.6106729 m -422.9684,13.237371 c 0,1.139179 0.82136,2.411248 2.96763,2.411248 2.75628,0 5.64386,-2.251939 5.64386,-4.584094 0,-1.563389 -1.32491,-2.437827 -2.96763,-2.437827 -2.56976,0 -5.64386,2.172846 -5.64386,4.610673 m 60.52058,14.403448 c -0.875,0 -1.05993,-0.715689 -1.05993,-0.954252 0,-1.298488 4.45105,-3.576846 5.6967,-3.576846 0.63563,0 1.05992,0.370653 1.05992,0.953452 0,1.324906 -4.47826,3.577646 -5.69669,3.577646 m 3.6561,-5.77675 c -2.56976,0 -5.64386,2.146268 -5.64386,4.610352 0,1.13998 0.82136,2.41205 2.96763,2.41205 2.75628,0 5.64466,-2.252741 5.64466,-4.584735 0,-1.563469 -1.32491,-2.437667 -2.96843,-2.437667 m -63.30969,67.488549 c 0,1.13918 0.82136,2.41124 2.96763,2.41124 2.75548,0 5.64386,-2.25274 5.64386,-4.583929 0,-1.563469 -1.32491,-2.438468 -2.96763,-2.438468 -2.57056,0 -5.64386,2.173487 -5.64386,4.611157 m 466.5398,7.78452 c -0.8742,0 -1.05993,-0.71569 -1.05993,-0.95425 0,-1.29849 4.45185,-3.57685 5.6975,-3.57685 0.63563,0 1.05992,0.37065 1.05992,0.95345 0,1.32491 -4.47826,3.57765 -5.69749,3.57765 m 3.6569,-5.77675 c -2.57056,0 -5.64386,2.14627 -5.64386,4.61035 0,1.13998 0.82136,2.41205 2.96763,2.41205 2.75548,0 5.64386,-2.25274 5.64386,-4.58473 0,-1.56347 -1.32491,-2.43767 -2.96763,-2.43767 M 94.44456,37.197193 c 0,1.13998 0.821362,2.41205 2.96843,2.41205 2.75548,0 5.64386,-2.252741 5.64386,-4.584735 0,-1.563469 -1.32491,-2.437667 -2.96763,-2.437667 -2.570558,0 -5.64466,2.172686 -5.64466,4.610352 m 537.4827,-18.689819 c -0.8742,0 -1.05992,-0.715449 -1.05992,-0.953932 0,-1.298408 4.45184,-3.577246 5.69669,-3.577246 0.63644,0 1.05993,0.370974 1.05993,0.953932 0,1.324906 -4.47746,3.577246 -5.6967,3.577246 m 3.6569,-5.776589 c -2.57055,0 -5.64466,2.146347 -5.64466,4.610672 0,1.139419 0.82217,2.411329 2.96843,2.411329 2.75549,0 5.64386,-2.25234 5.64386,-4.584175 0,-1.563388 -1.3249,-2.437826 -2.96763,-2.437826 M 142.07873,103.38485 c 0,1.13918 0.82136,2.41125 2.96763,2.41125 2.75628,0 5.64466,-2.25274 5.64466,-4.58474 0,-1.562665 -1.32491,-2.437664 -2.96843,-2.437664 -2.56976,0 -5.64386,2.172684 -5.64386,4.611154 m 2.23513,-76.115244 c 0,1.139178 0.82136,2.411248 2.96763,2.411248 2.75548,0 5.64386,-2.25274 5.64386,-4.583934 0,-1.563469 -1.32491,-2.438067 -2.96763,-2.438067 -2.57056,0 -5.64386,2.173086 -5.64386,4.610753 m -34.82141,80.590304 c -0.875,0 -1.05993,-0.71569 -1.05993,-0.95425 0,-1.29849 4.45105,-3.57685 5.6967,-3.57685 0.63643,0 1.05992,0.37065 1.05992,0.95345 0,1.32491 -4.47826,3.57765 -5.69669,3.57765 m 3.6561,-5.77675 c -2.56976,0 -5.64386,2.14627 -5.64386,4.61035 0,1.13998 0.82136,2.41205 2.96763,2.41205 2.75628,0 5.64466,-2.25274 5.64466,-4.58473 0,-1.56347 -1.32491,-2.43767 -2.96843,-2.43767 M 659.86156,14.032074 c 0,1.139419 0.82136,2.411329 2.96763,2.411329 2.75549,0 5.64386,-2.25234 5.64386,-4.584174 0,-1.563389 -1.32491,-2.4378271 -2.96763,-2.4378271 -2.57056,0 -5.64386,2.1728461 -5.64386,4.6106721 M 84.45533,106.69351 c 0,1.13998 0.821362,2.41205 2.967629,2.41205 2.756285,0 5.64466,-2.25274 5.64466,-4.58473 0,-1.56347 -1.324906,-2.43767 -2.967629,-2.43767 -2.570558,0 -5.64466,2.17268 -5.64466,4.61035 m 31.92423,-74.948845 c -0.8742,0 -1.05993,-0.715689 -1.05993,-0.953452 0,-1.298487 4.45185,-3.577646 5.6975,-3.577646 0.63563,0 1.05992,0.370654 1.05992,0.954253 0,1.324906 -4.47826,3.576845 -5.69749,3.576845 m 3.6569,-5.77675 c -2.57056,0 -5.64386,2.146268 -5.64386,4.611153 0,1.139179 0.82136,2.411249 2.96763,2.411249 2.75548,0 5.64386,-2.25274 5.64386,-4.583934 0,-1.563469 -1.32491,-2.438468 -2.96763,-2.438468 M 51.869053,84.69447 c -0.874999,0 -1.059925,-0.71569 -1.059925,-0.954253 0,-1.298488 4.451844,-3.576846 5.696695,-3.576846 0.636435,0 1.059925,0.370654 1.059925,0.953452 0,1.324906 -4.478262,3.577647 -5.696695,3.577647 m 3.6569,-5.77675 c -2.570558,0 -5.64466,2.146267 -5.64466,4.610352 0,1.13998 0.821362,2.412049 2.96763,2.412049 2.756284,0 5.644659,-2.25274 5.644659,-4.584734 0,-1.563469 -1.324906,-2.437667 -2.967629,-2.437667 m 568.253337,27.77579 c 0,1.13998 0.82136,2.41205 2.96763,2.41205 2.75629,0 5.64466,-2.25274 5.64466,-4.58473 0,-1.56347 -1.32491,-2.43767 -2.96843,-2.43767 -2.56976,0 -5.64386,2.17268 -5.64386,4.61035 M 356.72549,15.197992 c -0.87419,0 -1.05992,-0.71545 -1.05992,-0.953933 0,-1.298407 4.45184,-3.577246 5.69669,-3.577246 0.63644,0 1.05993,0.370974 1.05993,0.953933 0,1.324906 -4.47826,3.577246 -5.6967,3.577246 m 3.6569,-5.7765901 c -2.57055,0 -5.64465,2.1463471 -5.64465,4.6106721 0,1.139419 0.82136,2.411329 2.96842,2.411329 2.75549,0 5.64386,-2.25234 5.64386,-4.584174 0,-1.563389 -1.3249,-2.4378271 -2.96763,-2.4378271 M 262.18005,33.888531 c 0,1.139179 0.82136,2.411249 2.96763,2.411249 2.75628,0 5.64466,-2.25274 5.64466,-4.584735 0,-1.563469 -1.32491,-2.437667 -2.96843,-2.437667 -2.56976,0 -5.64386,2.172686 -5.64386,4.611153 m 62.64203,-23.227642 c 0,0.0795 0.0264,0.211985 0.21134,0.29148 1.13998,0.370973 3.41834,1.801872 5.14112,4.743163 0.47713,0.821441 1.24565,1.960861 1.24565,4.160204 0,1.907865 -0.50354,3.869046 -1.19281,5.77675 -0.0528,0.158509 -0.10568,0.291399 -0.0793,0.397072 0,0.159309 0.10567,0.264981 0.26498,0.264981 0.18493,0 0.31782,-0.105672 0.42349,-0.291399 1.19282,-2.11985 1.64353,-4.584015 1.64353,-6.995343 -0.13289,-3.418258 -2.09343,-5.935579 -2.09343,-5.935579 0.0793,0 -2.43847,-3.2592684 -3.15336,-4.3721894 -0.98067,-1.5103927 -1.43138,-3.0207854 -1.48422,-3.1267779 -0.0264,-0.079494 -0.26498,-1.0334266 -0.26498,-1.0334266 -0.0264,-0.1059925 -0.15851,-0.211985 -0.31781,-0.211985 -0.18573,0 -0.34424,0.1589888 -0.34424,0.3444756 V 10.660889 M 473.7327,80.156967 c 0,0.08006 0.0272,0.212145 0.21214,0.291399 1.13998,0.371454 3.41834,1.802032 5.14112,4.743244 0.47632,0.821361 1.24485,1.961341 1.24485,4.160444 0,1.907705 -0.50355,3.869046 -1.19202,5.77675 -0.0528,0.158508 -0.10647,0.291399 -0.0792,0.397072 0,0.159308 0.10567,0.264981 0.26498,0.264981 0.18493,0 0.31782,-0.105673 0.42349,-0.291399 1.19282,-2.11985 1.64272,-4.583935 1.64272,-6.995183 -0.13209,-3.418338 -2.09343,-5.936059 -2.09343,-5.936059 0.0801,0 -2.43766,-3.259029 -3.15255,-4.371789 -0.98067,-1.510633 -1.43138,-3.020466 -1.48422,-3.126938 -0.0264,-0.07926 -0.26498,-1.033507 -0.26498,-1.033507 -0.0264,-0.105672 -0.15931,-0.212145 -0.31782,-0.212145 -0.18572,0 -0.34503,0.159309 -0.34503,0.345036 v 5.988094 M 199.01286,41.022209 c 0,0.185727 0.15931,0.344235 0.34423,0.344235 0.13289,0 0.2914,-0.105672 0.31862,-0.212145 0,-0.02642 0.23776,-0.953452 0.26498,-1.032706 0.0264,-0.106473 0.26498,-1.113561 1.21844,-2.67703 1.0335,-1.721978 2.62339,-2.967629 3.9483,-4.822498 1.29848,-1.854868 2.09343,-3.603263 2.09343,-5.935258 0,-2.411249 -0.55638,-4.425346 -1.96054,-6.995663 -0.0801,-0.185487 -0.23857,-0.29148 -0.39788,-0.29148 -0.0528,0 -0.10567,0 -0.13209,0.0265 -0.13289,0.053 -0.18572,0.158988 -0.18572,0.317977 0,0.07949 0.0264,0.211985 0.0793,0.317977 1.05993,2.464325 1.48422,3.868405 1.48422,5.77691 0,2.199104 -0.76853,3.338283 -1.24566,4.159645 -1.72197,2.941211 -4.50468,4.372589 -5.61744,4.743243 -0.18572,0.08005 -0.21214,0.212145 -0.21214,0.291399 v 5.988895 m 397.68151,-8.273657 c 0,0.185727 0.15851,0.345036 0.34424,0.345036 0.13209,0 0.2914,-0.106473 0.31781,-0.212145 0,-0.02642 0.23857,-0.954253 0.26499,-1.033507 0.0264,-0.106473 0.26498,-1.112761 1.21923,-2.67623 1.03351,-1.722778 2.62339,-2.967629 3.9483,-4.822497 1.29769,-1.855189 2.09263,-3.604065 2.09263,-5.935899 0,-2.411329 -0.55638,-4.425186 -1.96054,-6.995503 -0.0793,-0.185487 -0.23856,-0.291479 -0.39707,-0.291479 -0.0536,0 -0.10647,0 -0.13289,0.0265 -0.13209,0.053 -0.18573,0.158988 -0.18573,0.317977 0,0.07949 0.0264,0.211985 0.0801,0.317978 1.05992,2.464325 1.48341,3.868725 1.48341,5.776589 0,2.199344 -0.76853,3.338763 -1.24485,4.160205 -1.72278,2.941451 -4.50468,4.372029 -5.61824,4.743483 -0.18493,0.07925 -0.21135,0.211345 -0.21135,0.291399 v 5.988095 m -384.94,47.408415 c 0,0.08006 0.0264,0.212145 0.21215,0.291399 1.13917,0.371454 3.41833,1.802032 5.14031,4.743244 0.47713,0.821361 1.24565,1.961341 1.24565,4.160444 0,1.907705 -0.50354,3.869046 -1.19281,5.77675 -0.0528,0.158508 -0.10568,0.291399 -0.0793,0.397072 0,0.159308 0.10567,0.264981 0.26498,0.264981 0.18573,0 0.31782,-0.105673 0.42429,-0.291399 1.19202,-2.11985 1.64273,-4.583935 1.64273,-6.995183 -0.13289,-3.418338 -2.09343,-5.936059 -2.09343,-5.936059 0.0793,0 -2.43767,-3.259029 -3.15336,-4.371789 -0.98067,-1.510633 -1.43058,-3.020466 -1.48422,-3.126938 -0.0264,-0.07926 -0.26498,-1.033507 -0.26498,-1.033507 -0.0264,-0.105672 -0.15851,-0.212145 -0.31781,-0.212145 -0.18573,0 -0.34424,0.159309 -0.34424,0.345036 V 80.15697 M 49.881766,83.527256 v 22.053514 h 0.662012 V 83.527256 Z M 182.53558,75.797122 v 22.106363 h 0.66202 V 75.797122 Z M 173.7255,23.959334 v 18.744064 h 0.66217 V 23.959334 Z m -23.70418,55.146458 v 22.107148 h 0.66202 V 79.105792 Z M 211.754,74.195251 v 20.398787 h 0.66201 V 74.195251 Z m 384.93992,-63.47356 v 22.026933 h 0.66218 V 10.721691 Z m 63.16726,3.30945 v 22.053364 h 0.66201 V 14.031141 Z M 221.72316,93.455604 v 18.744066 h 0.66202 V 93.455604 Z m 23.04935,-6.618902 v 22.053518 h 0.66202 V 86.836702 Z M 571.4071,7.412397 V 29.46638 h 0.66202 V 7.412397 Z M 279.34663,93.455604 v 18.744066 h 0.66201 V 93.455604 Z M 115.44737,82.415239 v 22.106371 h 0.66202 V 82.415239 Z M 102.38719,12.919131 V 35.02534 h 0.66201 V 12.919131 Z m 441.02155,-2.19744 V 29.50547 h 0.66201 V 10.721691 Z M 311.85995,86.836702 v 22.053518 h 0.66217 V 86.836702 Z m 34.57411,6.618902 v 18.744066 h 0.66201 V 93.455604 Z M 530.11012,14.031141 v 17.049943 h 0.66201 V 14.031141 Z m -331.09765,6.618588 v 20.37252 h 0.66202 v -20.37252 z m 178.41325,53.49267 v 20.451639 h 0.66201 V 74.142399 Z M 212.3111,23.959334 v 18.744064 h 0.66218 V 23.959334 Z m 199.68857,55.146458 v 22.107148 h 0.66201 V 79.105792 Z M 478.53235,12.919131 V 35.02534 h 0.66201 V 12.919131 Z M 72.465952,6.3005432 V 28.407223 h 0.66202 V 6.3005432 Z M 465.23373,16.189336 V 35.02534 h 0.66201 V 16.189336 Z m -20.71979,59.607786 v 22.106363 h 0.66201 V 75.797122 Z M 152.25566,4.6458182 V 25.097769 h 0.66202 V 4.6458182 Z M 451.93495,14.613101 V 31.71667 h 0.66217 V 14.613101 Z m 21.79818,59.58215 v 20.398787 h 0.66201 V 74.195251 Z M 422.0137,6.3005432 V 28.407223 h 0.66202 V 6.3005432 Z m 61.68781,87.1550608 v 18.744066 h 0.66202 V 93.455604 Z M 240.20142,12.919131 V 35.02534 h 0.66201 V 12.919131 Z m 266.54944,70.608125 v 22.053514 h 0.66202 V 83.527256 Z M 384.65941,23.959334 v 18.744064 h 0.66202 V 23.959334 Z m 156.66556,69.49627 v 18.744066 h 0.66201 V 93.455604 Z M 354.73818,14.031141 v 22.053364 h 0.66201 V 14.031141 Z m 275.20176,3.309294 v 22.053517 h 0.66201 V 17.340435 Z m -295.14978,6.618899 v 18.744064 h 0.66201 V 23.959334 Z m 275.20176,-9.928193 v 22.053364 h 0.66201 V 14.031141 Z M 324.82162,4.6986663 V 25.097769 h 0.66218 V 4.6986663 Z M 92.398017,82.415239 V 104.52161 H 93.06003 V 82.415239 Z M 581.78138,75.797122 v 22.106363 h 0.66202 V 75.797122 Z m 34.57411,8.3074 v 17.108418 h 0.66202 V 84.104522 Z M 299.53481,6.3005432 V 28.407223 h 0.66201 V 6.3005432 Z M 631.72194,85.690295 v 18.831315 h 0.66201 V 85.690295 Z M 270.12266,9.6098371 V 31.71667 h 0.66202 V 9.6098371 Z M 122.33442,6.3005432 V 28.407223 h 0.66202 V 6.3005432 Z M 647.0876,82.415239 v 22.106371 h 0.66201 V 82.415239 Z m -23.19623,-68.147564 2.35841,-0.476966 v 4.37219 l -2.35841,0.503464 v -4.398688 m 4.10761,-0.821441 c 0.15851,-0.0265 0.2914,-0.211985 0.2914,-0.370974 v -1.563389 c 0,-0.211985 -0.15931,-0.370973 -0.37146,-0.370973 h -0.0528 l -0.8742,0.185486 V 7.3781648 h -0.74211 v 4.1072082 l -2.35841,0.476966 V 8.2261046 h -0.74211 v 3.8952234 l -1.03351,0.211985 c -0.1585,0.0265 -0.2914,0.211985 -0.2914,0.370974 v 1.53689 c 0,0.211985 0.15931,0.370974 0.37146,0.370974 h 0.0793 l 0.8742,-0.185487 v 4.37219 l -1.03351,0.211985 c -0.1585,0.0265 -0.2914,0.211985 -0.2914,0.370973 v 1.536891 c 0,0.211985 0.15931,0.370974 0.37146,0.370974 h 0.0793 l 0.8742,-0.185487 v 3.947899 h 0.74211 v -4.106888 l 2.35841,-0.476966 v 3.736075 h 0.74211 v -3.895064 l 1.00709,-0.185486 c 0.15851,-0.0265 0.2914,-0.211985 0.2914,-0.370974 v -1.563389 c 0,-0.211985 -0.15931,-0.370974 -0.37146,-0.370974 h -0.0528 l -0.8742,0.185487 v -4.372189 l 1.00709,-0.185487 M 404.60696,9.2458378 V 36.448658 h 1.19128 V 9.2458378 Z m 104.74725,0 V 36.448658 h 3.64014 V 9.2458378 Z m -3.64046,0 V 36.448658 h 1.19128 V 9.2458378 Z m -2.44726,16.9110072 c 0,-0.768526 -0.60922,-1.404961 -1.37774,-1.404961 -0.76853,0 -1.37774,0.636435 -1.37774,1.404961 0,0.768525 0.60921,1.40416 1.37774,1.40416 0.76852,0 1.37774,-0.635635 1.37774,-1.40416 m 0,-6.619006 c 0,-0.768445 -0.60922,-1.4044 -1.37774,-1.4044 -0.76853,0 -1.37774,0.635955 -1.37774,1.4044 0,0.768445 0.60921,1.4044 1.37774,1.4044 0.76852,0 1.37774,-0.635955 1.37774,-1.4044 m 18.5727,6.619006 c 0,-0.768526 -0.61002,-1.404961 -1.37854,-1.404961 -0.76773,0 -1.37774,0.636435 -1.37774,1.404961 0,0.768525 0.61001,1.40416 1.37774,1.40416 0.76852,0 1.37854,-0.635635 1.37854,-1.40416 m 0,-6.619006 c 0,-0.768445 -0.61002,-1.4044 -1.37854,-1.4044 -0.76773,0 -1.37774,0.635955 -1.37774,1.4044 0,0.768445 0.61001,1.4044 1.37774,1.4044 0.76852,0 1.37854,-0.635955 1.37854,-1.4044 M 515.44274,9.2458378 V 36.448658 h 1.19128 V 9.2458378 Z m -6.08853,0 V 36.448658 h 3.64014 V 9.2458378 Z m 52.58845,0 V 36.448658 h 1.19113 V 9.2458378 Z M 677.35954,78.742416 v 27.202514 h 3.64015 V 78.742416 Z m -3.63967,0 V 105.94493 H 674.911 V 78.742416 Z M 164.26106,9.2458378 V 36.448658 h 1.19128 V 9.2458378 Z m 515.54781,0 V 36.448658 H 681 V 9.2458378 Z M 165.12806,78.742416 v 27.202514 h 1.19128 V 78.742416 Z m 137.26745,0 v 27.202514 h 1.19128 V 78.742416 Z m 124.71168,0 v 27.202514 h 1.19128 V 78.742416 Z m 137.26744,0 v 27.202514 h 1.19129 V 78.742416 Z M 282.12806,9.2458378 V 36.448658 h 1.19128 V 9.2458378 Z M 0,105.21693 v 0.72769 h 681 v -0.72769 z m 0,-6.618121 v 0.727681 h 681 v -0.727681 z m 0,-6.618902 v 0.727682 h 681 v -0.727682 z m 0,-6.619054 v 0.727842 h 681 v -0.727842 z m 0,-6.618901 v 0.727681 H 681 V 78.741952 Z M 0,35.720656 v 0.727689 h 681 v -0.727689 z m 0,-6.618269 v 0.727841 h 681 v -0.727841 z m 0,-6.61906 v 0.727685 h 681 v -0.727685 z m 0,-6.618588 v 0.727684 H 681 V 15.864739 Z M 0,9.2459947 V 9.9736795 H 681 V 9.2459947 Z"
     style="stroke-width:0.0800547" />
  <metadata
     id="metadata139">
    <rdf:RDF>
      <cc:Work
         rdf:about="">
        <dc:title>air_XXV</dc:title>
      </cc:Work>
    </rdf:RDF>
  </metadata>
</svg>
