<?xml version="1.0" encoding="UTF-8" standalone="no"?>
<svg
   width="681"
   height="186.10622"
   version="1.2"
   id="svg185"
   xmlns="http://www.w3.org/2000/svg"
   xmlns:svg="http://www.w3.org/2000/svg"
   xmlns:rdf="http://www.w3.org/1999/02/22-rdf-syntax-ns#"
   xmlns:cc="http://creativecommons.org/ns#"
   xmlns:dc="http://purl.org/dc/elements/1.1/">
  <defs
     id="defs185" />
  <title
     id="title1">air_X</title>
  <desc
     id="desc1">Generated by MuseScore Studio 4.7.3</desc>
  <path
     id="path185"
     class="NoteDot"
     d="m 638.32764,151.91163 c 0,0.74211 0.5828,1.32491 1.3249,1.32491 0.74211,0 1.32491,-0.5828 1.32491,-1.32491 0,-0.74211 -0.5828,-1.32491 -1.32491,-1.32491 -0.7421,0 -1.3249,0.5828 -1.3249,1.32491 M 629.36551,12.919153 c 0,0.741948 0.5828,1.324906 1.32491,1.324906 0.7421,0 1.3249,-0.582958 1.3249,-1.324906 0,-0.741947 -0.5828,-1.324905 -1.3249,-1.324905 -0.74211,0 -1.32491,0.582958 -1.32491,1.324905 M 52.349381,32.792582 v 1.96054 h -2.199104 c -0.185727,0 -0.371454,0.159309 -0.371454,0.370654 v 0.503544 c 0,0.212145 0.185727,0.371454 0.371454,0.371454 h 8.02869 c 0.212145,0 0.370653,-0.159309 0.370653,-0.371454 v -0.503544 c 0,-0.211345 -0.158508,-0.370654 -0.370653,-0.370654 h -2.384831 v -1.96054 h 2.384831 c 0.212145,0 0.370653,-0.185727 0.370653,-0.397872 v -0.503544 c 0,-0.184927 -0.158508,-0.370654 -0.370653,-0.370654 h -2.384831 v -4.213281 c 0,-0.159309 -0.07925,-0.291399 -0.185727,-0.344235 l -0.317817,-0.159309 c -0.05284,-0.02642 -0.07925,-0.02642 -0.132891,-0.02642 -0.105672,0 -0.211344,0 -0.291399,0.07925 l -2.411249,2.199904 c -0.07925,0.07925 -0.105672,0.184927 -0.105672,0.2914 v 2.172685 h -3.074102 c 0,0 2.967629,-3.179774 6.094567,-7.366637 0.106473,-0.13209 0.132891,-0.264981 0.132891,-0.370653 0,-0.132891 -0.05284,-0.238563 -0.08006,-0.264981 l -0.582798,-0.583279 c -0.07925,-0.053 -0.158509,-0.105993 -0.264981,-0.105993 -0.158509,0 -3.736155,0 -3.9483,0 -0.184926,0 -0.317817,0.158989 -0.344235,0.317978 0,0 -0.132091,1.961181 -0.821362,4.107448 -0.689271,2.146268 -1.484215,3.471174 -2.172686,4.451844 0,0 -0.08005,0.13209 -0.08005,0.291399 0,0.05284 0,0.105673 0.02722,0.158509 0.07926,0.185727 0.264982,0.477126 0.264982,0.477126 0,0 0.05284,0.159309 0.291399,0.159309 h 4.557516 m 0.793342,-11.066607 c -0.874197,0 -1.589887,-1.192415 -1.589887,-2.67631 0,-1.483894 0.71569,-2.702808 1.589887,-2.702808 0.874198,0 1.616306,1.218914 1.616306,2.702808 0,1.483895 -0.742108,2.67631 -1.616306,2.67631 m 0.980671,-6.624529 c -1.616305,0 -2.199904,0.476966 -2.570558,0.874437 -0.07925,-0.55646 -0.13209,-0.98043 -0.13209,-1.4044 0,-1.510393 0.529962,-3.471253 2.384831,-3.471253 0.662052,0 1.059924,0.211985 1.324906,0.503464 -0.557181,0.238483 -1.007089,0.953932 -1.007089,1.563389 0,0.953932 0.742107,1.69588 1.695559,1.69588 0.954253,0 1.722778,-0.741948 1.722778,-1.69588 v -0.07949 c 0,-0.238483 -0.05364,-0.635955 -0.159309,-0.84794 -0.344235,-0.953932 -1.456996,-2.3583327 -4.106808,-2.3583327 -2.38483,0 -4.107608,2.2788377 -4.637571,3.4977517 -0.264981,0.635955 -0.662052,1.934363 -0.662052,3.418257 0,1.616385 0.449907,3.444755 2.013376,4.822658 1.537051,1.165917 2.517722,1.218913 3.444756,1.218913 0.927834,0 4.399007,-1.086423 4.399007,-4.160204 0,-2.596816 -2.040595,-3.577246 -3.709736,-3.577246 m -17.929059,2.475532 2.358413,-0.476966 v 4.37219 l -2.358413,0.503464 v -4.398688 m 4.107609,-0.821441 c 0.159308,-0.0265 0.291399,-0.211985 0.291399,-0.370974 v -1.563389 c 0,-0.211985 -0.159309,-0.370974 -0.370654,-0.370974 h -0.05364 l -0.874198,0.185487 v -3.948219 h -0.742107 v 4.107208 l -2.358413,0.476966 v -3.736235 h -0.741307 v 3.895224 l -1.033507,0.211985 c -0.159308,0.0265 -0.291399,0.211985 -0.291399,0.370973 v 1.536891 c 0,0.211985 0.158509,0.370974 0.370654,0.370974 h 0.07925 l 0.874998,-0.185487 v 4.372189 l -1.033507,0.211985 c -0.159308,0.0265 -0.291399,0.211985 -0.291399,0.370974 v 1.537211 c 0,0.211345 0.158509,0.370653 0.370654,0.370653 h 0.07925 l 0.874998,-0.185727 v 3.9483 h 0.741307 v -4.106808 l 2.358413,-0.477126 v 3.736154 h 0.742107 v -3.895463 l 1.007089,-0.184926 c 0.159308,-0.02642 0.291399,-0.212306 0.291399,-0.371294 V 21.4987 c 0,-0.211985 -0.159309,-0.370974 -0.370654,-0.370974 h -0.05364 l -0.874198,0.185487 v -4.37219 l 1.007089,-0.185486 M 28.940575,7.64899 31.298988,7.1720239 v 4.3721891 l -2.358413,0.503465 V 7.64899 m 4.107609,-0.8214417 c 0.159309,-0.026498 0.291399,-0.2119849 0.291399,-0.3709736 v -1.563389 c 0,-0.2119849 -0.159309,-0.3709736 -0.370653,-0.3709736 H 32.91529 L 32.041095,4.7076989 V 0.75947929 H 31.298988 V 4.8666876 L 28.940575,5.3436537 V 1.6074191 h -0.741307 v 3.8952233 l -1.033506,0.211985 c -0.159309,0.026498 -0.2914,0.2119849 -0.2914,0.3709736 v 1.5368909 c 0,0.2119849 0.158509,0.3709736 0.370654,0.3709736 h 0.07925 l 0.874998,-0.1854868 v 4.3721893 l -1.033506,0.211985 c -0.159309,0.0265 -0.2914,0.211985 -0.2914,0.370974 v 1.536891 c 0,0.211985 0.158509,0.370973 0.370654,0.370973 h 0.07925 l 0.874998,-0.185487 v 3.94822 h 0.741307 V 14.326516 L 31.29898,13.84955 v 3.736234 h 0.742107 v -3.895223 l 1.007089,-0.185487 c 0.159309,-0.0265 0.291399,-0.211985 0.291399,-0.370974 v -1.563389 c 0,-0.211984 -0.159309,-0.370973 -0.370653,-0.370973 h -0.05364 l -0.874198,0.185487 V 7.0130351 l 1.007089,-0.1854868 m 3.146151,149.7424617 2.358413,-0.47712 v 4.37179 l -2.358413,0.50354 v -4.39821 m 4.107609,-0.82216 c 0.159308,-0.0264 0.291399,-0.21134 0.291399,-0.37065 v -1.56347 c 0,-0.21215 -0.159309,-0.37065 -0.370654,-0.37065 h -0.05364 L 39.29484,153.628 v -3.9475 h -0.742107 v 4.10681 l -2.358413,0.47713 v -3.73616 h -0.741307 v 3.89467 l -1.033507,0.21214 c -0.159308,0.0264 -0.291399,0.21215 -0.291399,0.37146 v 1.53625 c 0,0.21214 0.158509,0.37145 0.370654,0.37145 h 0.07925 l 0.874998,-0.18573 v 4.37259 l -1.033507,0.21135 c -0.159308,0.0272 -0.291399,0.21214 -0.291399,0.37145 v 1.53705 c 0,0.21135 0.158509,0.37066 0.370654,0.37066 h 0.07925 l 0.874998,-0.18573 v 3.9483 h 0.741307 v -4.10681 l 2.358413,-0.47713 v 3.73616 h 0.742107 v -3.89547 l 1.007089,-0.18492 c 0.159308,-0.0264 0.291399,-0.21215 0.291399,-0.37146 v -1.56346 c 0,-0.21135 -0.159309,-0.37066 -0.370654,-0.37066 h -0.05364 l -0.874198,0.18573 v -4.37259 l 1.007089,-0.18573 m -11.361369,-9.10622 2.358413,-0.47713 v 4.37259 l -2.358413,0.50354 v -4.399 m 4.107609,-0.82137 c 0.159309,-0.0264 0.291399,-0.21214 0.291399,-0.37065 v -1.56347 c 0,-0.21214 -0.159309,-0.37145 -0.370653,-0.37145 h -0.05364 l -0.874198,0.18572 v -3.94829 h -0.742107 v 4.1076 l -2.358413,0.47633 v -3.73616 h -0.741307 v 3.89547 l -1.033506,0.21214 c -0.159309,0.0264 -0.2914,0.21215 -0.2914,0.37066 v 1.53705 c 0,0.21214 0.158509,0.37065 0.370654,0.37065 h 0.07925 l 0.874998,-0.18493 v 4.37179 l -1.033506,0.21215 c -0.159309,0.0264 -0.2914,0.21214 -0.2914,0.37065 v 1.53705 c 0,0.21215 0.158509,0.37146 0.370654,0.37146 h 0.07925 l 0.874998,-0.18573 v 3.9483 h 0.741307 v -4.10761 l 2.358413,-0.47712 v 3.73695 h 0.742107 v -3.89546 l 1.007089,-0.18573 c 0.159309,-0.0264 0.291399,-0.21215 0.291399,-0.37065 v -1.56347 c 0,-0.21215 -0.159309,-0.37146 -0.370653,-0.37146 h -0.05364 l -0.874198,0.18573 v -4.37179 l 1.007089,-0.18573 m 3.146151,-58.746564 2.358413,-0.477126 v 4.371789 l -2.358413,0.503545 v -4.398208 m 4.107609,-0.822162 c 0.159308,-0.02642 0.291399,-0.211344 0.291399,-0.370653 v -1.563469 c 0,-0.212145 -0.159309,-0.370654 -0.370654,-0.370654 h -0.05364 l -0.874198,0.184927 v -3.947499 h -0.742107 v 4.106808 L 36.19429,84.76812 v -3.736155 h -0.741307 v 3.894663 l -1.033507,0.212145 c -0.159308,0.02642 -0.291399,0.212145 -0.291399,0.371454 v 1.536251 c 0,0.212145 0.158509,0.371454 0.370654,0.371454 h 0.07925 l 0.874998,-0.185727 v 4.37259 l -1.033507,0.211344 c -0.159308,0.02722 -0.291399,0.212145 -0.291399,0.371454 v 1.537051 c 0,0.211344 0.158509,0.370653 0.370654,0.370653 h 0.07925 l 0.874998,-0.185727 v 3.9483 h 0.741307 v -4.106808 l 2.358413,-0.477126 v 3.736154 h 0.742107 V 93.114627 L 40.301944,92.9297 c 0.159308,-0.02642 0.291399,-0.212145 0.291399,-0.371454 v -1.563469 c 0,-0.211344 -0.159309,-0.370653 -0.370654,-0.370653 h -0.05364 l -0.874198,0.185727 v -4.37259 l 1.007089,-0.185727 m -11.361369,-9.106226 2.358413,-0.477126 v 4.372589 l -2.358413,0.503545 v -4.399008 m 4.107609,-0.821362 c 0.159309,-0.02642 0.291399,-0.212145 0.291399,-0.371454 v -1.562668 c 0,-0.212145 -0.159309,-0.371454 -0.370653,-0.371454 h -0.05364 l -0.874198,0.185727 v -3.9483 h -0.742107 v 4.106808 l -2.358413,0.477126 v -3.736154 h -0.741307 v 3.895463 l -1.033506,0.212145 c -0.159309,0.02642 -0.2914,0.211345 -0.2914,0.370654 v 1.537051 c 0,0.212145 0.158509,0.370653 0.370654,0.370653 h 0.07925 l 0.874998,-0.184926 v 4.371789 l -1.033506,0.212145 c -0.159309,0.02642 -0.2914,0.212145 -0.2914,0.370654 v 1.53705 c 0,0.212146 0.158509,0.370654 0.370654,0.370654 h 0.07925 l 0.874998,-0.184927 v 3.9483 h 0.741307 v -4.107608 l 2.358413,-0.477127 v 3.736155 h 0.742107 v -3.894663 l 1.007089,-0.185727 c 0.159309,-0.02642 0.291399,-0.212145 0.291399,-0.370653 v -1.56347 c 0,-0.212145 -0.159309,-0.371453 -0.370653,-0.371453 h -0.05364 l -0.874198,0.185726 v -4.371789 l 1.007089,-0.185727 M 16.093311,173.91708 c -0.529962,0.10647 -1.033427,0.1593 -1.536891,0.1593 -3.789231,0 -7.0220012,-2.64981 -7.0220012,-6.65094 0,-3.23341 2.2788382,-6.12099 4.6106722,-8.13517 0.450468,-0.39787 0.874438,-0.76852 1.27191,-1.16559 0.238483,1.43058 0.42397,2.67623 0.609457,3.76257 -2.411329,0.71489 -4.0542123,3.25903 -4.0542123,5.74953 0,1.85487 1.4573963,4.39901 3.5772463,4.39901 0.211985,0 0.450468,-0.10567 0.450468,-0.34424 0,-0.23856 -0.264982,-0.37145 -0.582959,-0.58279 -1.033427,-0.63644 -1.616385,-1.32491 -1.616385,-2.6234 0,-1.6163 1.192415,-2.91479 2.755804,-3.28625 l 1.536891,8.71797 m -2.331834,-27.24023 c 0.238483,-1.05992 1.457396,-3.84183 2.835298,-3.84183 0.397472,0 1.033427,1.29849 1.033427,3.12694 0,2.75549 -2.040355,4.8225 -3.868725,6.62453 -0.158989,-1.05992 -0.29148,-2.09343 -0.29148,-3.20619 0,-0.98067 0.0795,-1.88209 0.29148,-2.70345 m 6.094567,22.33847 c 0,1.88129 -0.768446,3.81541 -2.649812,4.58394 -0.556461,-3.17978 -1.27191,-7.39306 -1.457397,-8.55865 2.384831,0 4.107209,1.6163 4.107209,3.97471 M 8.1968718,182.05224 c 0,1.74839 1.351404,4.05397 4.9286502,4.05397 1.245411,0 2.331834,-0.31782 3.285766,-0.90062 1.430899,-1.00708 1.801872,-2.75628 1.801872,-4.42542 0,-1.03351 -0.158988,-2.22552 -0.423969,-3.73616 -0.07949,-0.52996 -0.238484,-1.3249 -0.397472,-2.35841 2.596815,-0.84778 4.531178,-3.55043 4.531178,-6.28029 0,-4.00114 -2.835299,-6.70379 -6.704024,-6.70379 -0.264981,-1.58988 -0.529962,-3.15335 -0.768445,-4.63677 2.8088,-2.94201 4.743163,-6.25387 4.743163,-10.46715 0,-2.41125 -0.741948,-4.37179 -1.165917,-5.32605 -0.635955,-1.35132 -1.404401,-2.27915 -1.881367,-2.27915 -0.185487,0 -1.006928,0.31861 -1.881366,1.35132 -1.69588,2.01418 -2.172846,5.4061 -2.172846,7.63162 0,1.43138 0.132491,2.72986 0.582959,5.69749 -0.0265,0.0264 -1.404401,1.43058 -1.960861,1.88129 -2.4113287,2.25194 -5.7500916,5.45813 -5.7500916,10.75776 0,4.95538 4.3191932,8.85085 9.2478436,8.85085 0.768445,0 1.483894,-0.0793 2.093351,-0.18573 0.503464,2.54414 0.794943,4.39901 0.794943,5.80317 0,2.75548 -1.4044,4.21328 -4.08071,4.21328 -0.635955,0 -1.192415,-0.13289 -1.245411,-0.13289 -0.0265,-0.0264 -0.07949,-0.0528 -0.07949,-0.0793 0,-0.0528 0.053,-0.0792 0.132491,-0.10567 1.245412,-0.18573 2.490823,-1.24565 2.490823,-2.94121 0,-1.43138 -1.086423,-2.94121 -3.073782,-2.94121 -1.8548679,0 -3.0472832,1.50983 -3.0472832,3.25903 M 16.093311,34.924439 c -0.529962,0.106473 -1.033427,0.159309 -1.536891,0.159309 -3.789231,0 -7.0220012,-2.649811 -7.0220012,-6.650947 0,-3.233411 2.2788382,-6.121386 4.6106722,-8.135243 0.450468,-0.397471 0.874438,-0.768445 1.27191,-1.165917 0.238483,1.430899 0.42397,2.67631 0.609457,3.762733 -2.411329,0.715129 -4.0542123,3.259268 -4.0542123,5.749771 0,1.854869 1.4573963,4.399008 3.5772463,4.399008 0.211985,0 0.450468,-0.105672 0.450468,-0.344235 0,-0.238563 -0.264982,-0.371454 -0.582959,-0.582799 -1.033427,-0.636435 -1.616385,-1.324906 -1.616385,-2.623393 0,-1.616306 1.192415,-2.914793 2.755804,-3.286247 l 1.536891,8.71796 M 13.761477,7.6844542 c 0.238483,-1.0599247 1.457396,-3.8422271 2.835298,-3.8422271 0.397472,0 1.033427,1.2984078 1.033427,3.1267779 0,2.7558043 -2.040355,4.822658 -3.868725,6.62453 -0.158989,-1.059925 -0.29148,-2.093352 -0.29148,-3.206273 0,-0.9804301 0.0795,-1.8813661 0.29148,-2.7028078 m 6.094567,22.3382338 c 0,1.881286 -0.768446,3.815409 -2.649812,4.583934 -0.556461,-3.179774 -1.27191,-7.393055 -1.457397,-8.558652 2.384831,0 4.107209,1.616305 4.107209,3.974718 M 8.1968718,43.059602 c 0,1.748395 1.351404,4.053972 4.9286502,4.053972 1.245411,0 2.331834,-0.317818 3.285766,-0.900616 1.430899,-1.007089 1.801872,-2.756285 1.801872,-4.425426 0,-1.033507 -0.158988,-2.225522 -0.423969,-3.736154 -0.07949,-0.529963 -0.238484,-1.324906 -0.397472,-2.358413 2.596815,-0.84778 4.531178,-3.550428 4.531178,-6.280294 0,-4.001136 -2.835299,-6.703784 -6.704024,-6.703784 -0.264981,-1.589887 -0.529962,-3.153276 -0.768445,-4.637171 2.8088,-2.941291 4.743163,-6.253555 4.743163,-10.4667561 0,-2.4113288 -0.741948,-4.3721895 -1.165917,-5.3261218 C 17.391719,0.92743413 16.623273,0 16.146307,0 15.96082,0 15.139379,0.31797742 14.264941,1.351404 c -1.69588,2.013857 -2.172846,5.4056161 -2.172846,7.631458 0,1.430898 0.132491,2.729306 0.582959,5.697095 -0.0265,0.0265 -1.404401,1.430899 -1.960861,1.881367 -2.4113287,2.25234 -5.7500916,5.458612 -5.7500916,10.757915 0,4.955389 4.3191932,8.850852 9.2478436,8.850852 0.768445,0 1.483894,-0.07925 2.093351,-0.185727 0.503464,2.54414 0.794943,4.399008 0.794943,5.803168 0,2.755484 -1.4044,4.213281 -4.08071,4.213281 -0.635955,0 -1.192415,-0.132891 -1.245411,-0.132891 -0.0265,-0.02642 -0.07949,-0.05284 -0.07949,-0.07925 0,-0.05284 0.053,-0.07925 0.132491,-0.105672 1.245412,-0.185727 2.490823,-1.245652 2.490823,-2.941211 0,-1.431379 -1.086423,-2.941211 -3.073782,-2.941211 -1.8548679,0 -3.0472832,1.509832 -3.0472832,3.259028 m 7.8964392,61.361154 c -0.529962,0.10647 -1.033427,0.15931 -1.536891,0.15931 -3.789231,0 -7.0220012,-2.64982 -7.0220012,-6.650947 0,-3.233411 2.2788382,-6.120985 4.6106722,-8.135163 0.450468,-0.397872 0.874438,-0.768525 1.27191,-1.165597 0.238483,1.430579 0.42397,2.67623 0.609457,3.762573 -2.411329,0.714889 -4.0542123,3.259028 -4.0542123,5.749531 0,1.854869 1.4573963,4.399003 3.5772463,4.399003 0.211985,0 0.450468,-0.10567 0.450468,-0.34423 0,-0.23857 -0.264982,-0.37146 -0.582959,-0.5828 -1.033427,-0.63644 -1.616385,-1.32491 -1.616385,-2.623392 0,-1.616306 1.192415,-2.914793 2.755804,-3.286247 l 1.536891,8.717959 M 13.761477,77.180532 c 0.238483,-1.059925 1.457396,-3.841827 2.835298,-3.841827 0.397472,0 1.033427,1.298488 1.033427,3.126938 0,2.755484 -2.040355,4.822498 -3.868725,6.62453 -0.158989,-1.059925 -0.29148,-2.093432 -0.29148,-3.206193 0,-0.98067 0.0795,-1.882086 0.29148,-2.703448 m 6.094567,22.338474 c 0,1.881284 -0.768446,3.815404 -2.649812,4.583934 -0.556461,-3.17977 -1.27191,-7.393055 -1.457397,-8.558652 2.384831,0 4.107209,1.616305 4.107209,3.974718 M 8.1968718,112.55592 c 0,1.7484 1.351404,4.05397 4.9286502,4.05397 1.245411,0 2.331834,-0.31782 3.285766,-0.90061 1.430899,-1.00709 1.801872,-2.75629 1.801872,-4.42543 0,-1.03351 -0.158988,-2.22552 -0.423969,-3.73615 -0.07949,-0.52997 -0.238484,-1.32491 -0.397472,-2.35842 2.596815,-0.84778 4.531178,-3.55042 4.531178,-6.280291 0,-4.001136 -2.835299,-6.703784 -6.704024,-6.703784 -0.264981,-1.589887 -0.529962,-3.153356 -0.768445,-4.63677 2.8088,-2.942012 4.743163,-6.253876 4.743163,-10.467157 0,-2.411249 -0.741948,-4.371789 -1.165917,-5.326042 -0.635955,-1.351324 -1.404401,-2.279158 -1.881367,-2.279158 -0.185487,0 -1.006928,0.318618 -1.881366,1.351324 -1.69588,2.014177 -2.172846,5.406096 -2.172846,7.631618 0,1.431379 0.132491,2.729866 0.582959,5.697495 -0.0265,0.02642 -1.404401,1.430579 -1.960861,1.881287 -2.4113287,2.25194 -5.7500916,5.458132 -5.7500916,10.757755 0,4.955393 4.3191932,8.850853 9.2478436,8.850853 0.768445,0 1.483894,-0.0793 2.093351,-0.18573 0.503464,2.54414 0.794943,4.39901 0.794943,5.80317 0,2.75548 -1.4044,4.21328 -4.08071,4.21328 -0.635955,0 -1.192415,-0.13289 -1.245411,-0.13289 -0.0265,-0.0264 -0.07949,-0.0528 -0.07949,-0.0793 0,-0.0528 0.053,-0.0793 0.132491,-0.10568 1.245412,-0.18572 2.490823,-1.24565 2.490823,-2.94121 0,-1.43138 -1.086423,-2.94121 -3.073782,-2.94121 -1.8548679,0 -3.0472832,1.50983 -3.0472832,3.25903 M 188.21107,25.12574 c -0.87419,0 -1.05992,-0.714889 -1.05992,-0.953452 0,-1.298568 4.45184,-3.577406 5.69749,-3.577406 0.63564,0 1.05993,0.370973 1.05993,0.953932 0,1.324906 -4.47826,3.576926 -5.6975,3.576926 m 3.6569,-5.77627 c -2.57055,0 -5.64386,2.146348 -5.64386,4.610673 0,1.139179 0.82137,2.411248 2.96763,2.411248 2.75549,0 5.64386,-2.251939 5.64386,-4.584094 0,-1.563389 -1.3249,-2.437827 -2.96763,-2.437827 m 369.724,160.14982 c 0,1.13998 0.82136,2.41125 2.96843,2.41125 2.75548,0 5.64386,-2.25194 5.64386,-4.58393 0,-1.56347 -1.32491,-2.43767 -2.96763,-2.43767 -2.57056,0 -5.64466,2.17269 -5.64466,4.61035 M 433.42514,27.269606 c 0,1.139178 0.82136,2.411248 2.96763,2.411248 2.75628,0 5.64466,-2.25274 5.64466,-4.583934 0,-1.563469 -1.32491,-2.438067 -2.96843,-2.438067 -2.56976,0 -5.64386,2.173086 -5.64386,4.610753 m 96.94068,150.086624 c -0.8742,0 -1.05992,-0.71569 -1.05992,-0.95426 0,-1.29848 4.45184,-3.57684 5.69749,-3.57684 0.63564,0 1.05993,0.37065 1.05993,0.95345 0,1.32491 -4.47827,3.57765 -5.6975,3.57765 m 3.6569,-5.77675 c -2.57056,0 -5.64386,2.14626 -5.64386,4.61035 0,1.13998 0.82136,2.41205 2.96763,2.41205 2.75548,0 5.64386,-2.25274 5.64386,-4.58474 0,-1.56347 -1.32491,-2.43766 -2.96763,-2.43766 M 563.73984,40.506656 c 0,1.13998 0.82136,2.411249 2.96763,2.411249 2.75628,0 5.64466,-2.25194 5.64466,-4.583934 0,-1.563469 -1.32491,-2.437667 -2.96843,-2.437667 -2.56976,0 -5.64386,2.172686 -5.64386,4.610352 M 506.23652,172.88117 c 0,1.13918 0.82136,2.41125 2.96763,2.41125 2.75549,0 5.64386,-2.25274 5.64386,-4.58474 0,-1.56267 -1.32491,-2.43767 -2.96763,-2.43767 -2.57056,0 -5.64386,2.17269 -5.64386,4.61116 M 590.595,17.341457 c 0,1.139419 0.82216,2.411329 2.96843,2.411329 2.75549,0 5.64386,-2.25234 5.64386,-4.584175 0,-1.563388 -1.32491,-2.437826 -2.96763,-2.437826 -2.57056,0 -5.64466,2.172845 -5.64466,4.610672 M 484.09418,169.5717 c 0,1.13918 0.82136,2.41125 2.96763,2.41125 2.75549,0 5.64386,-2.25274 5.64386,-4.58393 0,-1.56347 -1.32491,-2.43847 -2.96763,-2.43847 -2.57056,0 -5.64386,2.17349 -5.64386,4.61115 M 619.43792,18.507374 c -0.87419,0 -1.05992,-0.715449 -1.05992,-0.953932 0,-1.298408 4.45184,-3.577246 5.69749,-3.577246 0.63564,0 1.05993,0.370974 1.05993,0.953932 0,1.324906 -4.47826,3.577246 -5.6975,3.577246 m 3.6569,-5.776589 c -2.56975,0 -5.64386,2.146347 -5.64386,4.610672 0,1.139419 0.82137,2.411329 2.96763,2.411329 2.75629,0 5.64386,-2.25234 5.64386,-4.584175 0,-1.563388 -1.3249,-2.437826 -2.96763,-2.437826 M 461.95104,166.26224 c 0,1.13918 0.82216,2.41125 2.96843,2.41125 2.75549,0 5.64386,-2.25194 5.64386,-4.58393 0,-1.56347 -1.32491,-2.43767 -2.96763,-2.43767 -2.57056,0 -5.64466,2.17268 -5.64466,4.61035 M 489.12402,38.363591 c -0.875,0 -1.05992,-0.715689 -1.05992,-0.954252 0,-1.298488 4.45104,-3.576846 5.69669,-3.576846 0.63564,0 1.05993,0.370653 1.05993,0.953452 0,1.324906 -4.47827,3.577646 -5.6967,3.577646 m 3.6561,-5.77675 c -2.56976,0 -5.64386,2.146268 -5.64386,4.610352 0,1.13998 0.82136,2.41205 2.96763,2.41205 2.75629,0 5.64466,-2.252741 5.64466,-4.584735 0,-1.563469 -1.32491,-2.437667 -2.96843,-2.437667 m -86.21014,-2.007773 c 0,1.139179 0.82136,2.411249 2.96762,2.411249 2.75549,0 5.64386,-2.25274 5.64386,-4.583934 0,-1.563469 -1.3249,-2.438468 -2.96763,-2.438468 -2.57055,0 -5.64385,2.173487 -5.64385,4.611153 M 71.778666,40.506656 c 0,1.13998 0.821361,2.411249 2.967629,2.411249 2.755484,0 5.643856,-2.25194 5.643856,-4.583934 0,-1.563469 -1.324903,-2.437667 -2.967626,-2.437667 -2.570558,0 -5.643859,2.172686 -5.643859,4.610352 M 430.34463,166.26224 c 0,1.13918 0.82136,2.41125 2.96763,2.41125 2.75548,0 5.64386,-2.25194 5.64386,-4.58393 0,-1.56347 -1.32491,-2.43767 -2.96763,-2.43767 -2.57056,0 -5.64386,2.17268 -5.64386,4.61035 m 164.84231,-8.76199 c -0.875,0 -1.05992,-0.71569 -1.05992,-0.95425 0,-1.29849 4.45184,-3.57685 5.69669,-3.57685 0.63644,0 1.05993,0.37066 1.05993,0.95345 0,1.32491 -4.47827,3.57765 -5.6967,3.57765 m 3.6569,-5.77675 c -2.57056,0 -5.64466,2.14627 -5.64466,4.61035 0,1.13998 0.82136,2.41125 2.96763,2.41125 2.75629,0 5.64466,-2.25194 5.64466,-4.58393 0,-1.56347 -1.3249,-2.43767 -2.96763,-2.43767 m -190.64235,4.61035 c 0,1.13998 0.82216,2.41125 2.96843,2.41125 2.75548,0 5.64386,-2.25194 5.64386,-4.58393 0,-1.56347 -1.32491,-2.43767 -2.96763,-2.43767 -2.57056,0 -5.64466,2.17269 -5.64466,4.61035 M 460.2811,33.888531 c 0,1.139179 0.82136,2.411249 2.96763,2.411249 2.75548,0 5.64386,-2.25274 5.64386,-4.584735 0,-1.563469 -1.32491,-2.437667 -2.96763,-2.437667 -2.57056,0 -5.64386,2.172686 -5.64386,4.611153 M 386.05915,162.95278 c 0,1.13918 0.82216,2.41125 2.96843,2.41125 2.75548,0 5.64386,-2.25194 5.64386,-4.58394 0,-1.56347 -1.32491,-2.43766 -2.96763,-2.43766 -2.57056,0 -5.64466,2.17268 -5.64466,4.61035 M 370.24914,27.269606 c 0,1.139178 0.82216,2.411248 2.96843,2.411248 2.75548,0 5.64386,-2.25274 5.64386,-4.583934 0,-1.563469 -1.32491,-2.438067 -2.96763,-2.438067 -2.57056,0 -5.64466,2.173086 -5.64466,4.610753 m -6.33233,138.992634 c 0,1.13918 0.82136,2.41125 2.96843,2.41125 2.75548,0 5.64386,-2.25194 5.64386,-4.58393 0,-1.56347 -1.32491,-2.43767 -2.96763,-2.43767 -2.57056,0 -5.64466,2.17268 -5.64466,4.61035 M 71.803483,86.837535 c 0,1.139979 0.822162,2.411249 2.968429,2.411249 2.755484,0 5.643856,-2.25194 5.643856,-4.583935 0,-1.563469 -1.324903,-2.437666 -2.967626,-2.437666 -2.570557,0 -5.644659,2.172685 -5.644659,4.610352 M 341.77447,156.33385 c 0,1.13998 0.82136,2.41125 2.96763,2.41125 2.75629,0 5.64466,-2.25194 5.64466,-4.58393 0,-1.56347 -1.32491,-2.43767 -2.96763,-2.43767 -2.57056,0 -5.64466,2.17269 -5.64466,4.61035 M 331.95336,25.12574 c -0.8742,0 -1.05993,-0.714889 -1.05993,-0.953452 0,-1.298568 4.45185,-3.577406 5.6975,-3.577406 0.63563,0 1.05992,0.370973 1.05992,0.953932 0,1.324906 -4.47826,3.576926 -5.69749,3.576926 m 3.6569,-5.77627 c -2.57056,0 -5.64386,2.146348 -5.64386,4.610673 0,1.139179 0.82136,2.411248 2.96763,2.411248 2.75548,0 5.64386,-2.251939 5.64386,-4.584094 0,-1.563389 -1.32491,-2.437827 -2.96763,-2.437827 m -15.97813,143.60331 c 0,1.13918 0.82136,2.41125 2.96763,2.41125 2.75629,0 5.64466,-2.25194 5.64466,-4.58394 0,-1.56347 -1.32491,-2.43766 -2.96763,-2.43766 -2.57056,0 -5.64466,2.17268 -5.64466,4.61035 M 102.80067,91.313395 c -0.87499,0 -1.05992,-0.715689 -1.05992,-0.954252 0,-1.298488 4.45104,-3.577646 5.69669,-3.577646 0.63564,0 1.05993,0.371454 1.05993,0.954252 0,1.324906 -4.47826,3.577646 -5.6967,3.577646 m 3.6561,-5.77675 c -2.56975,0 -5.64386,2.146268 -5.64386,4.610353 0,1.139179 0.82137,2.411248 2.96763,2.411248 2.75629,0 5.64466,-2.251939 5.64466,-4.583934 0,-1.563469 -1.3249,-2.437667 -2.96843,-2.437667 m 23.67299,1.30089 c 0,1.139979 0.82136,2.411249 2.96763,2.411249 2.75548,0 5.64386,-2.25194 5.64386,-4.583935 0,-1.563469 -1.32491,-2.437666 -2.96763,-2.437666 -2.57056,0 -5.64386,2.172685 -5.64386,4.610352 M 105.65703,33.888531 c 0,1.139179 0.82136,2.411249 2.96763,2.411249 2.75628,0 5.64466,-2.25274 5.64466,-4.584735 0,-1.563469 -1.32491,-2.437667 -2.96763,-2.437667 -2.57056,0 -5.64466,2.172686 -5.64466,4.611153 M 288.02492,179.49929 c 0,1.13998 0.82136,2.41125 2.96763,2.41125 2.75628,0 5.64466,-2.25194 5.64466,-4.58393 0,-1.56347 -1.32491,-2.43767 -2.96763,-2.43767 -2.57056,0 -5.64466,2.17269 -5.64466,4.61035 M 149.67432,83.528072 c 0,1.13998 0.82137,2.412049 2.96763,2.412049 2.75549,0 5.64386,-2.25274 5.64386,-4.584734 0,-1.563469 -1.3249,-2.437667 -2.96763,-2.437667 -2.57056,0 -5.64386,2.172685 -5.64386,4.610352 m 107.12445,93.828158 c -0.8742,0 -1.05993,-0.71569 -1.05993,-0.95426 0,-1.29848 4.45185,-3.57684 5.6975,-3.57684 0.63564,0 1.05993,0.37065 1.05993,0.95345 0,1.32491 -4.47827,3.57765 -5.6975,3.57765 m 3.6569,-5.77675 c -2.57056,0 -5.64386,2.14626 -5.64386,4.61035 0,1.13998 0.82136,2.41205 2.96763,2.41205 2.75548,0 5.64386,-2.25274 5.64386,-4.58474 0,-1.56347 -1.32491,-2.43766 -2.96763,-2.43766 M 169.21889,86.837535 c 0,1.139979 0.82136,2.411249 2.96763,2.411249 2.75548,0 5.64386,-2.25194 5.64386,-4.583935 0,-1.563469 -1.32491,-2.437666 -2.96763,-2.437666 -2.57056,0 -5.64386,2.172685 -5.64386,4.610352 m 63.45058,86.043635 c 0,1.13918 0.82136,2.41125 2.96763,2.41125 2.75548,0 5.64386,-2.25274 5.64386,-4.58474 0,-1.56267 -1.32491,-2.43767 -2.96763,-2.43767 -2.57056,0 -5.64386,2.17269 -5.64386,4.61116 M 188.76265,90.146998 c 0,1.139179 0.82216,2.411248 2.96843,2.411248 2.75548,0 5.64386,-2.251939 5.64386,-4.583934 0,-1.563469 -1.32491,-2.437667 -2.96763,-2.437667 -2.57056,0 -5.64466,2.172686 -5.64466,4.610353 m 21.76448,79.424702 c 0,1.13918 0.82136,2.41125 2.96763,2.41125 2.75548,0 5.64386,-2.25274 5.64386,-4.58393 0,-1.56347 -1.32491,-2.43847 -2.96763,-2.43847 -2.57056,0 -5.64386,2.17349 -5.64386,4.61115 m 92.5833,-148.92094 c 0,1.139419 0.82137,2.411329 2.96763,2.411329 2.75629,0 5.64466,-2.25234 5.64466,-4.584175 0,-1.563389 -1.3249,-2.437827 -2.96763,-2.437827 -2.57055,0 -5.64466,2.172846 -5.64466,4.610673 M 188.38399,166.26224 c 0,1.13918 0.82216,2.41125 2.96843,2.41125 2.75548,0 5.64386,-2.25194 5.64386,-4.58393 0,-1.56347 -1.32491,-2.43767 -2.96763,-2.43767 -2.57056,0 -5.64466,2.17268 -5.64466,4.61035 m 29.3881,-79.424705 c 0,1.139979 0.82136,2.411249 2.96762,2.411249 2.75629,0 5.64466,-2.25194 5.64466,-4.583935 0,-1.563469 -1.3249,-2.437666 -2.96843,-2.437666 -2.56975,0 -5.64385,2.172685 -5.64385,4.610352 m 19.54456,-3.309463 c 0,1.13998 0.82136,2.412049 2.96763,2.412049 2.75628,0 5.64386,-2.25274 5.64386,-4.584734 0,-1.563469 -1.32491,-2.437667 -2.96763,-2.437667 -2.56976,0 -5.64386,2.172685 -5.64386,4.610352 M 132.51299,30.579068 c 0,1.139179 0.82136,2.411249 2.96763,2.411249 2.75548,0 5.64386,-2.25274 5.64386,-4.583934 0,-1.563469 -1.32491,-2.438468 -2.96763,-2.438468 -2.57056,0 -5.64386,2.173487 -5.64386,4.611153 m 24.26459,125.754782 c 0,1.13998 0.82136,2.41125 2.96763,2.41125 2.75548,0 5.64386,-2.25194 5.64386,-4.58393 0,-1.56347 -1.32491,-2.43767 -2.96763,-2.43767 -2.57056,0 -5.64386,2.17269 -5.64386,4.61035 M 256.86121,90.146998 c 0,1.139179 0.82136,2.411248 2.96763,2.411248 2.75549,0 5.64386,-2.251939 5.64386,-4.583934 0,-1.563469 -1.32491,-2.437667 -2.96763,-2.437667 -2.57056,0 -5.64386,2.172686 -5.64386,4.610353 M 125.55063,160.80971 c -0.8742,0 -1.05993,-0.71569 -1.05993,-0.95425 0,-1.29849 4.45185,-3.57765 5.6975,-3.57765 0.63563,0 1.05992,0.37146 1.05992,0.95426 0,1.3249 -4.47826,3.57764 -5.69749,3.57764 m 3.6569,-5.77675 c -2.56976,0 -5.64386,2.14627 -5.64386,4.61036 0,1.13917 0.82136,2.41124 2.96763,2.41124 2.75628,0 5.64386,-2.25194 5.64386,-4.58393 0,-1.56347 -1.32491,-2.43767 -2.96763,-2.43767 m 149.1852,-60.410902 c -0.87419,0 -1.05992,-0.714889 -1.05992,-0.953452 0,-1.298488 4.45184,-3.577647 5.6975,-3.577647 0.63563,0 1.05992,0.371454 1.05992,0.954253 0,1.324906 -4.47826,3.576846 -5.6975,3.576846 m 3.6569,-5.77595 c -2.57055,0 -5.64385,2.146268 -5.64385,4.610353 0,1.139179 0.82136,2.411248 2.96762,2.411248 2.75549,0 5.64386,-2.251939 5.64386,-4.583934 0,-1.563469 -1.3249,-2.437667 -2.96763,-2.437667 m -180.6283,77.416132 c 0,1.13918 0.82136,2.41125 2.96763,2.41125 2.75548,0 5.64386,-2.25194 5.64386,-4.58393 0,-1.56347 -1.32491,-2.43767 -2.96763,-2.43767 -2.57056,0 -5.64386,2.17268 -5.64386,4.61035 M 305.72182,96.765923 c 0,1.139179 0.82216,2.411249 2.96843,2.411249 2.75548,0 5.64386,-2.25274 5.64386,-4.583934 0,-1.563469 -1.32491,-2.438467 -2.96763,-2.438467 -2.57056,0 -5.64466,2.173486 -5.64466,4.611152 M 79.278994,159.64332 c 0,1.13917 0.821358,2.41124 2.967626,2.41124 2.755484,0 5.643859,-2.25194 5.643859,-4.58393 0,-1.56347 -1.324906,-2.43767 -2.967629,-2.43767 -2.570558,0 -5.643856,2.17269 -5.643856,4.61036 M 264.81465,18.507374 c -0.8742,0 -1.05992,-0.715449 -1.05992,-0.953932 0,-1.298408 4.45184,-3.577246 5.69749,-3.577246 0.63564,0 1.05993,0.370974 1.05993,0.953932 0,1.324906 -4.47827,3.577246 -5.6975,3.577246 m 3.6569,-5.776589 c -2.57056,0 -5.64386,2.146347 -5.64386,4.610672 0,1.139419 0.82136,2.411329 2.96763,2.411329 2.75548,0 5.64386,-2.25234 5.64386,-4.584175 0,-1.563388 -1.32491,-2.437826 -2.96763,-2.437826 M 57.136654,162.95278 c 0,1.13918 0.821362,2.41125 2.967629,2.41125 2.755484,0 5.643859,-2.25194 5.643859,-4.58394 0,-1.56347 -1.324906,-2.43766 -2.967629,-2.43766 -2.570557,0 -5.643859,2.17268 -5.643859,4.61035 M 336.71901,91.313395 c -0.87499,0 -1.05992,-0.715689 -1.05992,-0.954252 0,-1.298488 4.45104,-3.577646 5.6967,-3.577646 0.63643,0 1.05992,0.371454 1.05992,0.954252 0,1.324906 -4.47826,3.577646 -5.6967,3.577646 m 3.6561,-5.77675 c -2.56975,0 -5.64385,2.146268 -5.64385,4.610353 0,1.139179 0.82136,2.411248 2.96762,2.411248 2.75629,0 5.64466,-2.251939 5.64466,-4.583934 0,-1.563469 -1.3249,-2.437667 -2.96843,-2.437667 m 288.02494,71.963605 c -0.8742,0 -1.05992,-0.71569 -1.05992,-0.95425 0,-1.29849 4.45184,-3.57685 5.69749,-3.57685 0.63564,0 1.05993,0.37066 1.05993,0.95345 0,1.32491 -4.47827,3.57765 -5.6975,3.57765 m 3.6569,-5.77675 c -2.57056,0 -5.64386,2.14627 -5.64386,4.61035 0,1.13998 0.82136,2.41125 2.96763,2.41125 2.75549,0 5.64386,-2.25194 5.64386,-4.58393 0,-1.56347 -1.32491,-2.43767 -2.96763,-2.43767 M 412.90951,103.38485 c 0,1.13918 0.82136,2.41125 2.96763,2.41125 2.75548,0 5.64386,-2.25274 5.64386,-4.58474 0,-1.562665 -1.32491,-2.437664 -2.96763,-2.437664 -2.57056,0 -5.64386,2.172684 -5.64386,4.611154 M 364.0481,86.837535 c 0,1.139979 0.82136,2.411249 2.96763,2.411249 2.75548,0 5.64386,-2.25194 5.64386,-4.583935 0,-1.563469 -1.32491,-2.437666 -2.96763,-2.437666 -2.57056,0 -5.64386,2.172685 -5.64386,4.610352 m 21.53152,-2.143065 c -0.87419,0 -1.05992,-0.71569 -1.05992,-0.954253 0,-1.298488 4.45184,-3.576846 5.69749,-3.576846 0.63564,0 1.05993,0.370654 1.05993,0.953452 0,1.324906 -4.47826,3.577647 -5.6975,3.577647 m 3.6569,-5.77675 c -2.57055,0 -5.64386,2.146267 -5.64386,4.610352 0,1.13998 0.82137,2.412049 2.96763,2.412049 2.75549,0 5.64386,-2.25274 5.64386,-4.584734 0,-1.563469 -1.3249,-2.437667 -2.96763,-2.437667 M 226.50686,27.269606 c 0,1.139178 0.82136,2.411248 2.96843,2.411248 2.75548,0 5.64386,-2.25274 5.64386,-4.583934 0,-1.563469 -1.32491,-2.438067 -2.96763,-2.438067 -2.57056,0 -5.64466,2.173086 -5.64466,4.610753 m 215.41128,72.805784 c 0,1.13918 0.82137,2.41124 2.96763,2.41124 2.75629,0 5.64466,-2.25274 5.64466,-4.583929 0,-1.563469 -1.3249,-2.438468 -2.96763,-2.438468 -2.57055,0 -5.64466,2.173487 -5.64466,4.611157 m 19.54457,-3.309467 c 0,1.139179 0.82136,2.411249 2.96763,2.411249 2.75628,0 5.64466,-2.25274 5.64466,-4.583934 0,-1.563469 -1.32491,-2.438467 -2.96843,-2.438467 -2.56976,0 -5.64386,2.173486 -5.64386,4.611152 M 159.36815,27.269606 c 0,1.139178 0.82136,2.411248 2.96763,2.411248 2.75629,0 5.64466,-2.25274 5.64466,-4.583934 0,-1.563469 -1.32491,-2.438067 -2.96843,-2.438067 -2.56976,0 -5.64386,2.173086 -5.64386,4.610753 m 498.45282,62.877392 c 0,1.139179 0.82136,2.411248 2.96843,2.411248 2.75548,0 5.64386,-2.251939 5.64386,-4.583934 0,-1.563469 -1.32491,-2.437667 -2.96763,-2.437667 -2.57056,0 -5.64466,2.172686 -5.64466,4.610353 m -176.8137,13.237852 c 0,1.13918 0.82136,2.41125 2.96763,2.41125 2.75629,0 5.64386,-2.25274 5.64386,-4.58474 0,-1.562665 -1.32491,-2.437664 -2.96763,-2.437664 -2.56976,0 -5.64386,2.172684 -5.64386,4.611154 M 635.83393,86.837535 c 0,1.139979 0.82137,2.411249 2.96763,2.411249 2.75549,0 5.64386,-2.25194 5.64386,-4.583935 0,-1.563469 -1.3249,-2.437666 -2.96763,-2.437666 -2.57055,0 -5.64386,2.172685 -5.64386,4.610352 M 502.53879,107.85991 c -0.87419,0 -1.05992,-0.71569 -1.05992,-0.95425 0,-1.29849 4.45184,-3.57685 5.69749,-3.57685 0.63564,0 1.05993,0.37065 1.05993,0.95345 0,1.32491 -4.47826,3.57765 -5.6975,3.57765 m 3.6569,-5.77675 c -2.57055,0 -5.64385,2.14627 -5.64385,4.61035 0,1.13998 0.82136,2.41205 2.96762,2.41205 2.75549,0 5.64386,-2.25274 5.64386,-4.58473 0,-1.56347 -1.3249,-2.43767 -2.96763,-2.43767 M 613.8461,83.528072 c 0,1.13998 0.82136,2.412049 2.96763,2.412049 2.75628,0 5.64466,-2.25274 5.64466,-4.584734 0,-1.563469 -1.32491,-2.437667 -2.96843,-2.437667 -2.56976,0 -5.64386,2.172685 -5.64386,4.610352 m -83.97742,26.474898 c 0,1.13998 0.82136,2.41125 2.96763,2.41125 2.75548,0 5.64386,-2.25194 5.64386,-4.58393 0,-1.56347 -1.32491,-2.43767 -2.96763,-2.43767 -2.57056,0 -5.64386,2.17269 -5.64386,4.61035 m 61.99039,-23.165435 c 0,1.139979 0.82136,2.411249 2.96763,2.411249 2.75548,0 5.64385,-2.25194 5.64385,-4.583935 0,-1.563469 -1.3249,-2.437666 -2.96762,-2.437666 -2.57056,0 -5.64386,2.172685 -5.64386,4.610352 M 527.41981,40.506656 c 0,1.13998 0.82136,2.411249 2.96763,2.411249 2.75548,0 5.64385,-2.25194 5.64385,-4.583934 0,-1.563469 -1.3249,-2.437667 -2.96763,-2.437667 -2.57055,0 -5.64385,2.172686 -5.64385,4.610352 m 33.44526,50.806739 c -0.87499,0 -1.05992,-0.715689 -1.05992,-0.954252 0,-1.298488 4.45184,-3.577646 5.69669,-3.577646 0.63644,0 1.05993,0.371454 1.05993,0.954252 0,1.324906 -4.47826,3.577646 -5.6967,3.577646 m 3.6569,-5.77675 c -2.57055,0 -5.64466,2.146268 -5.64466,4.610353 0,1.139179 0.82137,2.411248 2.96763,2.411248 2.75629,0 5.64466,-2.251939 5.64466,-4.583934 0,-1.563469 -1.3249,-2.437667 -2.96763,-2.437667 m 7.16048,-69.308064 v 22.106206 h 0.66201 V 16.228581 Z m -385.45872,7.730753 v 18.744064 h 0.66202 V 23.959334 Z M 468.22295,9.6098371 V 31.71667 h 0.66202 V 9.6098371 Z M 613.84643,83.527256 v 22.053514 h 0.66217 V 83.527256 Z m -76.0359,2.19759 v 22.106214 h 0.66202 V 85.724846 Z m 98.02296,1.111856 v 22.053518 h 0.66202 V 86.836702 Z M 508.49362,82.415239 v 22.106371 h 0.66217 V 82.415239 Z m 149.32772,7.730918 v 20.398783 h 0.66202 V 90.146157 Z M 488.94994,79.105792 v 22.107148 h 0.66201 V 79.105792 Z m 137.46274,77.227328 v 22.05337 h 0.66202 V 156.33312 Z M 469.40532,74.142399 v 20.451639 h 0.66202 V 74.142399 Z m 25.6735,-61.223268 V 35.02534 h 0.66217 V 12.919131 Z m -45.21811,62.877991 v 22.106363 h 0.66217 V 75.797122 Z M 234.44952,4.6458182 V 25.097769 h 0.66201 V 4.6458182 Z M 420.85135,79.105792 v 22.107148 h 0.66201 V 79.105792 Z m 172.3483,77.227328 v 22.05337 h 0.66203 V 156.33312 Z M 262.82736,17.340435 v 22.053517 h 0.66202 V 17.340435 Z m 272.53432,-1.111854 v 22.106206 h 0.66201 V 16.228581 Z m -151.7694,67.298675 v 22.053514 h 0.66201 V 83.527256 Z M 167.3108,4.6458182 V 25.097769 h 0.66202 V 4.6458182 Z M 364.04766,86.836702 v 22.053518 h 0.66202 V 86.836702 Z M 57.136254,162.95203 v 18.74391 h 0.662013 V 162.95203 Z M 334.73168,90.146157 v 20.398783 h 0.66201 V 90.146157 Z M 79.278578,159.64258 v 20.39863 h 0.66202 V 159.64258 Z M 303.11084,20.649729 v 20.398946 h 0.66202 V 20.649729 Z M 109.36399,143.63882 v 20.45149 h 0.66202 V 143.63882 Z M 313.66447,74.142399 v 20.451639 h 0.66201 V 74.142399 Z M 123.56323,159.64258 v 20.39863 h 0.66202 V 159.64258 Z M 276.40539,93.455604 v 18.744066 h 0.66202 V 93.455604 Z M 156.7772,156.33312 v 22.05337 h 0.66201 V 156.33312 Z M 256.86078,90.146157 v 20.398783 h 0.66201 V 90.146157 Z M 140.45478,6.3005432 V 28.407223 h 0.66202 V 6.3005432 Z m 96.86154,77.2267128 v 22.053514 h 0.66202 V 83.527256 Z m -40.98974,60.111564 v 20.45149 h 0.66217 v -20.45149 z m 21.44513,-56.802118 v 22.053518 h 0.66201 V 86.836702 Z m 0.6972,58.456838 v 22.10622 h 0.66217 V 145.29354 Z M 329.96593,23.959334 v 18.744064 h 0.66216 V 23.959334 Z m -89.3547,124.642876 v 22.107 h 0.66217 v -22.107 z M 188.76312,90.146157 v 20.398783 h 0.66202 V 90.146157 Z m 73.99059,61.765513 v 22.1062 h 0.66202 v -22.1062 z m -93.5352,-65.074968 v 22.053518 h 0.66201 V 86.836702 Z m 126.74901,68.384418 v 22.10636 h 0.66201 V 155.22112 Z M 149.6739,83.527256 v 22.053514 h 0.66201 V 83.527256 Z M 113.5997,9.6098371 V 31.71667 h 0.66202 V 9.6098371 Z m 16.52959,77.2268649 v 22.053518 h 0.66216 V 86.836702 Z M 319.6326,162.95203 v 18.74391 h 0.66202 V 162.95203 Z M 100.81252,90.146157 v 20.398783 h 0.66201 V 90.146157 Z m 240.96242,66.186963 v 22.05337 h 0.66201 V 156.33312 Z M 378.19171,4.6458182 V 25.097769 h 0.66217 V 4.6458182 Z m -6.3323,138.9930018 v 20.45149 h 0.66201 V 143.63882 Z M 71.803939,86.836702 v 22.053518 h 0.662013 V 86.836702 Z M 386.05959,162.95203 v 18.74391 h 0.66201 v -18.74391 z m 22.14233,-6.61891 v 22.05337 h 0.66201 v -22.05337 z m 30.08447,-12.6943 v 20.45149 h 0.66217 V 143.63882 Z M 414.51185,6.3005432 V 28.407223 h 0.66202 V 6.3005432 Z M 569.53457,155.22112 v 22.10636 h 0.66201 V 155.22112 Z M 441.36772,4.6458182 V 25.097769 h 0.66217 V 4.6458182 Z M 79.720448,16.228581 v 22.106206 h 0.662169 V 16.228581 Z M 469.89363,143.63882 v 20.45149 h 0.66217 v -20.45149 z m 22.14233,1.65472 v 22.10622 h 0.66217 V 145.29354 Z M 617.45061,17.340435 v 22.053517 h 0.66202 V 17.340435 Z M 514.17828,148.60221 v 22.107 h 0.66217 v -22.107 z m 76.4171,-131.261775 v 22.053517 h 0.66201 V 17.340435 Z M 536.32076,151.91167 v 22.1062 h 0.66202 v -22.1062 z m 22.557,-61.765513 v 20.398783 h 0.66201 V 90.146157 Z m 32.98098,-3.309455 v 22.053518 h 0.66202 V 86.836702 Z m 22.76588,58.193378 c -6.40787,0 -12.82167,1.72392 -16.06645,5.24687 a 0.16531304,0.16531304 0 0 0 -0.008,0.1953 0.16531304,0.16531304 0 0 0 -0.002,0.0162 0.16531304,0.16531304 0 0 0 0.0105,0.001 0.16531304,0.16531304 0 0 0 0.01,0.0206 0.16531304,0.16531304 0 0 0 0.10616,-0.004 0.16531304,0.16531304 0 0 0 0.10539,0.0149 c 3.12553,-2.35543 9.48817,-3.57167 15.84536,-3.57167 6.3572,0 12.71984,1.21624 15.84537,3.57167 a 0.16532957,0.16532957 0 0 0 0.22109,-0.24408 C 627.44725,146.75392 621.03346,145.03 614.62558,145.03 Z m 0,0.3307 c 5.56248,0 11.11982,1.33519 14.51821,3.95427 -3.49953,-1.81223 -9.00423,-2.69622 -14.51821,-2.69622 -5.51376,0 -11.01819,0.88399 -14.51774,2.69606 3.39841,-2.61893 8.95541,-3.95411 14.51774,-3.95411 z m -15.94489,5.02821 c 6.37796,-6.92474 25.51184,-6.92474 31.8898,0 -6.37796,-4.80649 -25.51184,-4.80649 -31.8898,0 M 608.84145,6.2749 c -5.14195,0 -10.29439,1.6530431 -12.89663,5.020465 a 0.16531304,0.16531304 0 0 0 0.008,0.194195 0.16531304,0.16531304 0 0 0 -9.7e-4,0.01657 0.16531304,0.16531304 0 0 0 0.0147,0.0072 0.16531304,0.16531304 0 0 0 0.008,0.01392 0.16531304,0.16531304 0 0 0 0.0164,-0.002 0.16531304,0.16531304 0 0 0 0.19435,-0.0052 c 2.49195,-2.2095512 7.5743,-3.3543251 12.65615,-3.3543251 5.08186,0 10.16436,1.1447739 12.65631,3.3543251 a 0.16532957,0.16532957 0 0 0 0.24048,-0.224685 C 619.13603,7.9279431 613.98344,6.2749 608.84149,6.2749 Z m 0,0.330695 c 4.40783,0 8.80564,1.2492077 11.52569,3.704252 -2.81605,-1.663989 -7.16767,-2.4746609 -11.52569,-2.4746609 -4.35778,0 -8.70916,0.8105518 -11.52523,2.4743479 2.72008,-2.4548458 7.11757,-3.703939 11.52523,-3.703939 z m -12.7659,4.790837 c 5.10669,-6.6082781 20.42516,-6.6082781 25.53186,0 -5.1067,-4.5279757 -20.42517,-4.5279757 -25.53186,0 M 437.75212,31.95011 a 0.16531304,0.16531304 0 0 0 -0.05,0.01266 0.16531304,0.16531304 0 0 0 -0.0507,0.0046 0.16531304,0.16531304 0 0 0 -0.009,0.01032 0.16531304,0.16531304 0 0 0 -0.0133,0.0034 0.16531304,0.16531304 0 0 0 -0.0266,0.04441 0.16531304,0.16531304 0 0 0 -0.0313,0.05238 0.16531304,0.16531304 0 0 0 0.005,0.06099 0.16531304,0.16531304 0 0 0 0.005,0.05159 c 4.89242,9.348024 18.41991,12.682087 27.09571,6.677374 a 0.16532957,0.16532957 0 0 0 -0.16574,-0.284883 c -3.9908,1.91948 -9.33436,2.068174 -14.34027,0.834483 -5.00592,-1.2337 -9.6685,-3.848408 -12.31045,-7.402254 a 0.16531304,0.16531304 0 0 0 -0.0438,-0.02627 0.16531304,0.16531304 0 0 0 -0.0532,-0.03174 0.16531304,0.16531304 0 0 0 -0.0117,-0.007 z m 1.15938,1.790912 c 2.78419,2.850742 6.85643,4.9317 11.18062,5.997381 4.32419,1.065689 8.89694,1.115323 12.68696,-0.115391 -7.89088,4.095873 -18.78339,1.411285 -23.86758,-5.88199 z m -1.18342,-1.627304 c 5.34846,7.194519 18.77604,10.503982 26.85516,6.618125 -8.58587,5.942463 -22.01345,2.633 -26.85516,-6.618125 m 180.42083,38.113187 c -8.27738,0 -16.55826,2.402083 -22.09636,7.23245 a 0.16531304,0.16531304 0 0 0 -0.008,0.110387 0.16531304,0.16531304 0 0 0 -0.0205,0.107257 0.16531304,0.16531304 0 0 0 0.013,0.0025 0.16531304,0.16531304 0 0 0 -9.6e-4,0.01314 0.16531304,0.16531304 0 0 0 0.20437,0.02564 0.16531304,0.16531304 0 0 0 0.0131,0.0025 c 5.45458,-3.706958 13.67444,-5.57506 21.89481,-5.57506 8.22038,0 16.44001,1.86811 21.89419,5.57506 a 0.16532957,0.16532957 0 0 0 0.2017,-0.261426 c -5.5377,-4.830367 -13.81851,-7.23245 -22.09589,-7.23245 z m 0,0.330699 c 7.19347,0 14.38384,1.835551 19.72379,5.48828 -5.38986,-2.825228 -12.55549,-4.230861 -19.72379,-4.230861 -7.16852,0 -14.33437,1.405778 -19.72459,4.231173 5.3403,-3.652897 12.53095,-5.488592 19.72459,-5.488592 z m -21.9877,7.026404 c 10.99391,-9.588957 32.98175,-9.588957 43.97487,0 -10.99312,-7.471509 -32.98096,-7.471509 -43.97487,0 M 465.77847,101.44528 a 0.16531304,0.16531304 0 0 0 -0.0507,0.0164 0.16531304,0.16531304 0 0 0 -0.0528,0.0102 0.16531304,0.16531304 0 0 0 -0.002,0.008 0.16531304,0.16531304 0 0 0 -0.0152,0.005 0.16531304,0.16531304 0 0 0 -0.008,0.10882 0.16531304,0.16531304 0 0 0 -0.0224,0.10757 c 3.78029,5.7586 10.57635,9.87126 17.93805,11.741 7.36169,1.86975 15.29655,1.49842 21.36664,-1.75854 a 0.16532957,0.16532957 0 0 0 -0.13729,-0.30005 c -5.71266,2.18616 -13.45316,2.05383 -20.75716,0.19873 -7.304,-1.8551 -14.16947,-5.43243 -18.14646,-10.07939 a 0.16531304,0.16531304 0 0 0 -0.0471,-0.0239 0.16531304,0.16531304 0 0 0 -0.056,-0.0283 0.16531304,0.16531304 0 0 0 -0.01,-0.005 z m 1.65394,2.1202 c 4.1311,3.81389 10.16221,6.72118 16.52396,8.33695 6.36212,1.61588 13.04994,1.93877 18.50062,0.55804 -5.60665,2.19595 -12.42388,2.28295 -18.81021,0.66092 -6.38596,-1.62192 -12.33505,-4.95123 -16.21437,-9.55591 z m -1.66676,-1.95544 c 8.02148,9.3728 27.56605,14.337 39.08833,9.92758 -12.04344,6.46202 -31.588,1.49783 -39.08833,-9.92758 M 232.94802,71.906654 c -4.18485,-0.230678 -8.44402,1.665443 -11.01127,5.586788 a 0.16531304,0.16531304 0 0 0 0.0261,0.197167 0.16531304,0.16531304 0 0 0 8.1e-4,0.01547 0.16531304,0.16531304 0 0 0 0.01,-8e-4 0.16531304,0.16531304 0 0 0 0.0114,0.01672 0.16531304,0.16531304 0 0 0 0.10476,-0.02189 0.16531304,0.16531304 0 0 0 0.10788,-0.0049 c 2.26881,-2.481473 5.82527,-3.872344 9.45413,-4.081231 3.62885,-0.208886 7.32145,0.764683 9.86002,2.968902 a 0.16532957,0.16532957 0 0 0 0.23532,-0.230621 c -2.33374,-2.800563 -5.54363,-4.266598 -8.79852,-4.446008 z m -0.0194,0.323341 c 2.61746,0.144875 5.20285,1.151636 7.30641,3.036764 -2.46353,-1.504748 -5.55292,-2.158011 -8.60292,-1.982451 -3.04989,0.17556 -6.04367,1.17903 -8.31818,2.95671 2.52059,-2.844617 6.09274,-4.205956 9.61469,-4.011023 z m -10.8536,5.354013 c 4.50628,-6.883106 14.27776,-7.445891 19.54456,-1.12557 -5.16033,-4.480663 -14.93261,-3.918679 -19.54456,1.12557 m -76.76974,-5.677354 c -4.18486,-0.230678 -8.44417,1.665427 -11.01097,5.586788 a 0.16531304,0.16531304 0 0 0 0.0263,0.197167 0.16531304,0.16531304 0 0 0 8e-4,0.01547 0.16531304,0.16531304 0 0 0 0.01,-8e-4 0.16531304,0.16531304 0 0 0 0.0114,0.01672 0.16531304,0.16531304 0 0 0 0.10476,-0.02189 0.16531304,0.16531304 0 0 0 0.10773,-0.0049 c 2.26881,-2.481473 5.82515,-3.872344 9.45381,-4.081231 3.62865,-0.208886 7.32098,0.764683 9.85955,2.968902 a 0.16532957,0.16532957 0 0 0 0.23547,-0.230621 c -2.33339,-2.800571 -5.54331,-4.266598 -8.7982,-4.446008 z m -0.0194,0.323341 c 2.61747,0.144875 5.20272,1.151756 7.30609,3.036925 -2.46349,-1.504797 -5.55272,-2.15818 -8.6026,-1.982612 -3.04988,0.175576 -6.04369,1.17903 -8.31819,2.95687 2.52033,-2.844777 6.09265,-4.206116 9.6147,-4.011183 z m -10.8532,5.354013 c 4.50548,-6.883106 14.27776,-7.445891 19.54377,-1.12557 -5.16033,-4.480663 -14.93181,-3.918679 -19.54377,1.12557 M 81.089349,148.09672 c -7.301846,-0.10259 -14.501384,1.66092 -19.747716,5.46874 a 0.16531304,0.16531304 0 0 0 -0.02815,0.046 0.16531304,0.16531304 0 0 0 -0.03253,0.053 0.16531304,0.16531304 0 0 0 0.0072,0.0616 0.16531304,0.16531304 0 0 0 0.0062,0.0536 0.16531304,0.16531304 0 0 0 0.0081,0.006 0.16531304,0.16531304 0 0 0 0.0025,0.0103 0.16531304,0.16531304 0 0 0 0.01314,0.002 0.16531304,0.16531304 0 0 0 0.201074,0.0452 c 5.815728,-3.24014 14.256219,-4.39516 22.534933,-3.67751 8.278724,0.71764 16.39456,3.30784 21.566,7.50013 a 0.16532957,0.16532957 0 0 0 0.22281,-0.24345 c -5.15788,-5.31877 -13.288174,-8.44602 -21.623385,-9.16846 -1.041896,-0.0903 -2.087139,-0.14296 -3.13026,-0.15761 z m -0.0044,0.33085 c 1.034931,0.0143 2.072216,0.0666 3.106187,0.1562 7.245859,0.62802 14.329294,3.09411 19.390914,7.21853 -5.182727,-3.30405 -12.278514,-5.33971 -19.499268,-5.96565 -7.220702,-0.62592 -14.561105,0.15818 -20.235088,2.52126 4.882786,-2.73632 11.019671,-4.01651 17.237255,-3.93034 z m -19.64615,5.27168 c 11.903339,-8.63951 34.045675,-6.72059 44.285471,3.83863 C 95.301946,149.0889 73.15961,147.16919 61.438796,153.69925 M 554.27492,9.2458378 V 36.448658 h 1.19128 V 9.2458378 Z m -4.86255,69.4965782 v 27.202514 h 1.19129 V 78.742416 Z m 127.94717,69.496274 v 27.20266 h 3.64015 v -27.20266 z m -3.63967,0 v 27.20266 h 1.19113 v -27.20266 z m -2.44731,16.91079 c 0,-0.76852 -0.60921,-1.40496 -1.37774,-1.40496 -0.76852,0 -1.37774,0.63644 -1.37774,1.40496 0,0.76853 0.60922,1.40416 1.37774,1.40416 0.76853,0 1.37774,-0.63563 1.37774,-1.40416 m 0,-6.61893 c 0,-0.76852 -0.60921,-1.40416 -1.37774,-1.40416 -0.76852,0 -1.37774,0.63564 -1.37774,1.40416 0,0.76853 0.60922,1.40416 1.37774,1.40416 0.76853,0 1.37774,-0.63563 1.37774,-1.40416 m 8.53631,-79.788134 V 105.94493 H 681 V 78.742416 Z m -354.54241,0 v 27.202514 h 1.19112 V 78.742416 Z M 178.91999,148.23869 v 27.20266 h 1.19113 v -27.20266 z m 29.38728,-69.496274 v 27.202514 h 1.19113 V 78.742416 Z m 101.85996,69.496274 v 27.20266 h 1.19128 V 148.23869 Z M 91.348083,78.742416 v 27.202514 h 1.191126 V 78.742416 Z M 63.532227,95.653163 c 0,-0.768526 -0.609216,-1.404961 -1.377742,-1.404961 -0.768525,0 -1.377742,0.636435 -1.377742,1.404961 0,0.768525 0.609217,1.40416 1.377742,1.40416 0.768526,0 1.377742,-0.635635 1.377742,-1.40416 m 0,-6.618926 c 0,-0.768526 -0.609216,-1.40416 -1.377742,-1.40416 -0.768525,0 -1.377742,0.635634 -1.377742,1.40416 0,0.768525 0.609217,1.40416 1.377742,1.40416 0.768526,0 1.377742,-0.635635 1.377742,-1.40416 M 57.136726,78.742416 v 27.202514 h 1.191127 V 78.742416 Z m -6.089475,0 v 27.202514 h 3.640145 V 78.742416 Z M 96.192956,9.2458378 V 36.448658 h 1.191286 V 9.2458378 Z M 452.48704,148.23869 v 27.20266 h 1.19113 V 148.23869 Z M 397.10511,9.2458378 V 36.448658 h 1.19128 V 9.2458378 Z M 583.73428,148.23869 v 27.20266 h 1.19129 V 148.23869 Z M 432.45334,78.742416 v 27.202514 h 1.19113 V 78.742416 Z M 677.35954,9.2458378 V 36.448658 h 3.64015 V 9.2458378 Z m -3.63967,0 V 36.448658 H 674.911 V 9.2458378 Z m -2.44731,16.9110072 c 0,-0.768526 -0.60921,-1.404961 -1.37774,-1.404961 -0.76852,0 -1.37774,0.636435 -1.37774,1.404961 0,0.768525 0.60922,1.40416 1.37774,1.40416 0.76853,0 1.37774,-0.635635 1.37774,-1.40416 m 0,-6.619006 c 0,-0.768445 -0.60921,-1.4044 -1.37774,-1.4044 -0.76852,0 -1.37774,0.635955 -1.37774,1.4044 0,0.768445 0.60922,1.4044 1.37774,1.4044 0.76853,0 1.37774,-0.635955 1.37774,-1.4044 M 253.36276,9.2458378 V 36.448658 h 1.19129 V 9.2458378 Z M 0,174.7132 v 0.72768 h 681 v -0.72768 z m 0,-6.61812 v 0.72768 h 681 v -0.72768 z m 0,-6.6189 v 0.72768 h 681 v -0.72768 z m 0,-6.6189 v 0.72768 h 681 v -0.72768 z m 0,-6.61891 v 0.72769 h 681 v -0.72769 z m 0,-43.02144 v 0.72769 h 681 v -0.72769 z m 0,-6.618121 v 0.727681 h 681 v -0.727681 z m 0,-6.618902 v 0.727682 h 681 v -0.727682 z m 0,-6.619054 v 0.727842 h 681 v -0.727842 z m 0,-6.618901 v 0.727681 H 681 V 78.741952 Z M 0,35.720656 v 0.727689 h 681 v -0.727689 z m 0,-6.618269 v 0.727841 h 681 v -0.727841 z m 0,-6.61906 v 0.727685 h 681 v -0.727685 z m 0,-6.618588 v 0.727684 H 681 V 15.864739 Z M 0,9.2459947 V 9.9736795 H 681 V 9.2459947 Z"
     style="stroke-width:0.0800547" />
  <metadata
     id="metadata185">
    <rdf:RDF>
      <cc:Work
         rdf:about="">
        <dc:title>air_X</dc:title>
      </cc:Work>
    </rdf:RDF>
  </metadata>
</svg>
