<?xml version="1.0" encoding="utf-8"?>
<svg xmlns="http://www.w3.org/2000/svg" xmlns:svg="http://www.w3.org/2000/svg" version="1.1" viewBox="0 0 681 187">
	<title>A score 3 staves long in 3/4 time, in the key of G Minor.</title>
	<path d="M619.258 165.15c0 .742.583 1.324 1.325 1.324s1.325-.582 1.325-1.325c0-.742-.583-1.324-1.325-1.324s-1.325.582-1.325 1.324m-111.894-6.618c0 .742.582 1.324 1.325 1.324.742 0 1.324-.582 1.324-1.324s-.582-1.325-1.324-1.325-1.325.582-1.325 1.325M486.132 19.538c0 .742.583 1.325 1.324 1.325.743 0 1.325-.583 1.325-1.325s-.582-1.325-1.325-1.325c-.74 0-1.324.583-1.324 1.325M325.896 103.92l22.007 1.655v3.319l-22.007-1.655zM645.06 85.725h22.007v3.31H645.06zM225.713 107.23l22.007 1.654v3.32l-22.007-1.655zm415.6-67.842 19.91-1.654v3.32l-19.91 1.655zM51.37 32.792v1.96h-2.2a.38.38 0 0 0-.371.37v.504a.38.38 0 0 0 .371.372h8.03c.211 0 .37-.16.37-.372v-.503a.36.36 0 0 0-.37-.37h-2.386v-1.961H57.2c.212 0 .37-.186.37-.398v-.504a.38.38 0 0 0-.37-.37h-2.385v-4.214c0-.16-.079-.291-.185-.344l-.318-.16c-.053-.026-.08-.026-.132-.026-.107 0-.213 0-.293.08l-2.41 2.2a.4.4 0 0 0-.106.29v2.174h-3.075s2.969-3.18 6.095-7.367a.58.58 0 0 0 .133-.37.44.44 0 0 0-.08-.266l-.583-.583c-.08-.053-.158-.106-.265-.106h-3.948c-.185 0-.318.159-.344.318 0 0-.133 1.961-.822 4.107-.69 2.147-1.484 3.472-2.173 4.452 0 0-.079.132-.079.292 0 .052 0 .105.027.158.079.186.265.477.265.477s.052.16.291.16zm2.74-16.83c2.12-.822 2.253-2.2 2.253-2.677v-.132c0-.239-.08-3.233-4.638-3.233S47.3 13.154 47.3 13.154h.026l-.026.053c0 .954.768 1.696 1.722 1.696s1.696-.742 1.696-1.696c0-.769-.583-1.51-1.325-1.67l.08-.08c.37-.264.874-.397 1.378-.397 1.113 0 2.305.663 2.305 2.094 0 1.67-1.245 1.908-1.563 1.96-.319.054-1.802.16-2.12.16s-.345.37-.345.37v.53s.053.292.345.319c.45.026 1.06.026 1.908.159 1.165.159 1.775.953 1.775 2.808 0 1.776-1.192 2.253-2.305 2.253-.742 0-1.432-.212-1.723-.424.875-.053 1.59-.822 1.59-1.696 0-.954-.742-1.723-1.696-1.723a1.72 1.72 0 0 0-1.722 1.723c0 2.173 1.987 3.26 3.948 3.26 2.544 0 5.3-.875 5.3-3.764 0-1.934-1.325-2.755-2.491-3.126zm-16.378-4.104c0 2.094-1.086 3.207-2.623 4.425l.079-5.167c.053-.238.45-1.007 1.51-1.007.954 0 1.034.901 1.034 1.458zm-.318-3.047a2.98 2.98 0 0 0-2.226.98l.106-8.506a.36.36 0 0 0-.37-.37h-.319a.363.363 0 0 0-.371.37l.133 15.926c0 .212.159.37.37.37a.6.6 0 0 0 .212-.052c2.28-1.14 4.664-3.312 4.664-6.042 0-1.378-.636-2.676-2.2-2.676m-7.041 12.975c0 2.094-1.086 3.207-2.623 4.426l.079-5.168c.053-.238.45-1.007 1.51-1.007.955 0 1.034.901 1.034 1.458zm-.318-3.047a2.98 2.98 0 0 0-2.226.98l.106-8.505a.363.363 0 0 0-.371-.371h-.318a.36.36 0 0 0-.37.37l.131 15.926c0 .212.16.37.372.37a.6.6 0 0 0 .211-.052c2.28-1.14 4.664-3.312 4.664-6.042 0-1.378-.635-2.676-2.199-2.676m7.678 132.112c0 2.093-1.086 3.206-2.623 4.425l.079-5.167c.053-.238.45-1.007 1.51-1.007.954 0 1.034.9 1.034 1.457zm-.318-3.047a2.98 2.98 0 0 0-2.226.98l.106-8.506a.36.36 0 0 0-.37-.37h-.319a.363.363 0 0 0-.371.37l.133 15.925c0 .212.159.372.37.372.054 0 .16-.027.212-.053 2.28-1.14 4.664-3.313 4.664-6.042 0-1.378-.636-2.676-2.2-2.676m-7.041 12.975c0 2.094-1.086 3.206-2.623 4.426l.079-5.168c.053-.239.45-1.007 1.51-1.007.955 0 1.034.901 1.034 1.458zm-.318-3.048a2.98 2.98 0 0 0-2.226.981l.106-8.506c0-.212-.159-.37-.371-.37h-.318a.36.36 0 0 0-.37.37l.131 15.926c0 .212.16.37.372.37a.6.6 0 0 0 .211-.053c2.28-1.139 4.664-3.311 4.664-6.041 0-1.378-.635-2.677-2.199-2.677m7.678-76.377c0 2.094-1.086 3.207-2.623 4.426l.079-5.168c.053-.237.45-1.006 1.51-1.006.954 0 1.034.9 1.034 1.457zm-.318-3.046a2.98 2.98 0 0 0-2.226.98l.106-8.506a.36.36 0 0 0-.37-.371h-.319a.363.363 0 0 0-.371.37l.133 15.926c0 .212.159.371.37.371.054 0 .16-.026.212-.052 2.28-1.14 4.664-3.313 4.664-6.042 0-1.378-.636-2.676-2.2-2.676m-7.041 12.975c0 2.093-1.086 3.206-2.623 4.425l.079-5.167c.053-.239.45-1.007 1.51-1.007.955 0 1.034.901 1.034 1.457zm-.318-3.048a2.98 2.98 0 0 0-2.226.98l.106-8.505c0-.212-.159-.37-.371-.37h-.318a.36.36 0 0 0-.37.37l.131 15.925c0 .212.16.371.372.371a.6.6 0 0 0 .211-.053c2.28-1.14 4.664-3.312 4.664-6.042 0-1.377-.635-2.676-2.199-2.676m-13.96-53.312a7.7 7.7 0 0 1-1.538.16c-3.789 0-7.022-2.65-7.022-6.651 0-3.234 2.28-6.122 4.611-8.135.45-.398.875-.769 1.272-1.166.238 1.43.424 2.676.61 3.762-2.412.716-4.055 3.26-4.055 5.75 0 1.855 1.458 4.4 3.577 4.4.212 0 .451-.107.451-.345 0-.239-.265-.372-.583-.583-1.033-.636-1.616-1.325-1.616-2.623 0-1.617 1.192-2.915 2.755-3.287zm-2.332-27.24c.239-1.06 1.458-3.842 2.836-3.842.397 0 1.033 1.299 1.033 3.127 0 2.756-2.04 4.823-3.869 6.625-.159-1.06-.291-2.094-.291-3.207 0-.98.08-1.881.291-2.703m6.095 22.339c0 1.881-.768 3.815-2.65 4.584a882 882 0 0 1-1.457-8.559c2.385 0 4.107 1.616 4.107 3.975M8.196 43.06c0 1.748 1.352 4.054 4.93 4.054 1.245 0 2.331-.318 3.285-.901 1.431-1.007 1.802-2.756 1.802-4.425 0-1.034-.159-2.226-.424-3.737-.08-.53-.238-1.325-.397-2.358 2.597-.848 4.53-3.55 4.53-6.28 0-4.001-2.834-6.704-6.703-6.704-.265-1.59-.53-3.153-.769-4.637 2.81-2.942 4.744-6.254 4.744-10.467 0-2.411-.742-4.372-1.166-5.326C17.392.927 16.623 0 16.146 0c-.185 0-1.007.318-1.881 1.351-1.696 2.014-2.173 5.406-2.173 7.632 0 1.43.133 2.73.583 5.697-.026.026-1.404 1.43-1.96 1.881-2.412 2.253-5.75 5.459-5.75 10.758 0 4.956 4.318 8.851 9.247 8.851.768 0 1.484-.08 2.093-.186.504 2.545.795 4.4.795 5.804 0 2.755-1.404 4.213-4.08 4.213-.636 0-1.193-.133-1.246-.133-.026-.026-.08-.053-.08-.08 0-.052.054-.079.133-.105 1.246-.186 2.49-1.246 2.49-2.941 0-1.432-1.085-2.941-3.073-2.941-1.855 0-3.047 1.51-3.047 3.259m7.896 130.857a7.7 7.7 0 0 1-1.537.16c-3.789 0-7.022-2.65-7.022-6.652 0-3.233 2.28-6.12 4.611-8.135.45-.398.875-.768 1.272-1.165.238 1.43.424 2.676.61 3.762-2.412.715-4.055 3.26-4.055 5.75 0 1.855 1.458 4.399 3.577 4.399.212 0 .451-.106.451-.344 0-.239-.265-.372-.583-.583-1.033-.637-1.616-1.325-1.616-2.624 0-1.616 1.192-2.914 2.755-3.286zm-2.332-27.24c.239-1.06 1.458-3.842 2.836-3.842.397 0 1.033 1.299 1.033 3.127 0 2.755-2.04 4.822-3.869 6.624-.159-1.06-.291-2.093-.291-3.206 0-.98.08-1.882.291-2.703m6.095 22.338c0 1.882-.768 3.816-2.65 4.584a882 882 0 0 1-1.457-8.558c2.385 0 4.107 1.616 4.107 3.974m-11.66 13.037c0 1.749 1.352 4.054 4.93 4.054 1.245 0 2.331-.318 3.285-.9 1.431-1.007 1.802-2.757 1.802-4.426 0-1.033-.159-2.225-.424-3.736-.08-.53-.238-1.325-.397-2.358 2.597-.848 4.53-3.55 4.53-6.28 0-4.002-2.834-6.704-6.703-6.704-.265-1.59-.53-3.154-.769-4.637 2.81-2.942 4.744-6.254 4.744-10.467 0-2.412-.742-4.372-1.166-5.326-.636-1.352-1.405-2.28-1.882-2.28-.185 0-1.007.319-1.881 1.352-1.696 2.014-2.173 5.406-2.173 7.631 0 1.432.133 2.73.583 5.698-.026.026-1.404 1.43-1.96 1.881-2.412 2.252-5.75 5.458-5.75 10.758 0 4.955 4.318 8.85 9.247 8.85.768 0 1.484-.079 2.093-.185.504 2.544.795 4.399.795 5.803 0 2.756-1.404 4.213-4.08 4.213-.636 0-1.193-.132-1.246-.132-.026-.027-.08-.053-.08-.08 0-.053.054-.079.133-.105 1.246-.186 2.49-1.246 2.49-2.942 0-1.431-1.085-2.94-3.073-2.94-1.855 0-3.047 1.509-3.047 3.258m7.896-77.631a7.7 7.7 0 0 1-1.537.159c-3.789 0-7.022-2.65-7.022-6.65 0-3.234 2.28-6.122 4.611-8.136.45-.398.875-.769 1.272-1.166.238 1.43.424 2.677.61 3.763-2.412.715-4.055 3.259-4.055 5.75 0 1.854 1.458 4.398 3.577 4.398.212 0 .451-.105.451-.344 0-.238-.265-.371-.583-.583-1.033-.636-1.616-1.325-1.616-2.623 0-1.616 1.192-2.915 2.755-3.286zm-2.332-27.24c.239-1.06 1.458-3.842 2.836-3.842.397 0 1.033 1.298 1.033 3.127 0 2.755-2.04 4.822-3.869 6.624-.159-1.06-.291-2.093-.291-3.206 0-.98.08-1.882.291-2.703m6.095 22.338c0 1.881-.768 3.815-2.65 4.584a882 882 0 0 1-1.457-8.559c2.385 0 4.107 1.617 4.107 3.975m-11.66 13.037c0 1.748 1.352 4.054 4.93 4.054 1.245 0 2.331-.318 3.285-.9 1.431-1.008 1.802-2.757 1.802-4.426 0-1.034-.159-2.226-.424-3.736-.08-.53-.238-1.325-.397-2.359 2.597-.847 4.53-3.55 4.53-6.28 0-4.001-2.834-6.704-6.703-6.704-.265-1.59-.53-3.153-.769-4.637 2.81-2.942 4.744-6.253 4.744-10.467 0-2.411-.742-4.372-1.166-5.326-.636-1.351-1.405-2.279-1.882-2.279-.185 0-1.007.319-1.881 1.351-1.696 2.015-2.173 5.406-2.173 7.632 0 1.431.133 2.73.583 5.698-.026.026-1.404 1.43-1.96 1.88-2.412 2.253-5.75 5.459-5.75 10.759 0 4.955 4.318 8.85 9.247 8.85.768 0 1.484-.079 2.093-.185.504 2.544.795 4.399.795 5.803 0 2.755-1.404 4.213-4.08 4.213-.636 0-1.193-.133-1.246-.133-.026-.026-.08-.053-.08-.08 0-.052.054-.078.133-.105 1.246-.185 2.49-1.245 2.49-2.941 0-1.431-1.085-2.941-3.073-2.941-1.855 0-3.047 1.51-3.047 3.259m433.89-19.1c0 1.14.822 2.412 2.968 2.412 2.757 0 5.645-2.252 5.645-4.584 0-1.564-1.325-2.438-2.968-2.438-2.57 0-5.644 2.173-5.644 4.61m-102.29-52.95c0 1.14.82 2.412 2.968 2.412 2.755 0 5.643-2.252 5.643-4.584 0-1.563-1.324-2.438-2.967-2.438-2.57 0-5.645 2.173-5.645 4.61m111.28 115.828c0 1.14.822 2.411 2.968 2.411 2.755 0 5.644-2.252 5.644-4.584 0-1.563-1.325-2.438-2.968-2.438-2.57 0-5.645 2.173-5.645 4.61M378.135 23.96c0 1.14.82 2.411 2.967 2.411 2.756 0 5.645-2.252 5.645-4.584 0-1.563-1.325-2.438-2.969-2.438-2.57 0-5.643 2.173-5.643 4.611m38.034 142.302c0 1.14.822 2.411 2.968 2.411 2.756 0 5.645-2.251 5.645-4.583 0-1.564-1.325-2.438-2.968-2.438-2.57 0-5.645 2.173-5.645 4.61M407.007 27.27c0 1.139.821 2.41 2.968 2.41 2.756 0 5.644-2.252 5.644-4.583 0-1.564-1.325-2.438-2.967-2.438-2.57 0-5.645 2.173-5.645 4.61m-25.745 135.684c0 1.139.822 2.411 2.968 2.411 2.756 0 5.645-2.252 5.645-4.584 0-1.563-1.325-2.438-2.969-2.438-2.57 0-5.644 2.173-5.644 4.61m54.618-145.61c0 1.139.821 2.41 2.967 2.41 2.757 0 5.645-2.252 5.645-4.583 0-1.564-1.325-2.438-2.968-2.438-2.57 0-5.644 2.173-5.644 4.61m38.337 6.62c0 1.138.821 2.41 2.968 2.41 2.756 0 5.644-2.252 5.644-4.584 0-1.563-1.325-2.438-2.968-2.438-2.57 0-5.644 2.173-5.644 4.611m-216.066 6.62c0 1.138.822 2.41 2.968 2.41 2.756 0 5.644-2.252 5.644-4.584 0-1.563-1.325-2.438-2.967-2.438-2.571 0-5.645 2.173-5.645 4.611m78.74 148.92c0 1.14.82 2.412 2.967 2.412 2.756 0 5.645-2.252 5.645-4.584 0-1.564-1.325-2.438-2.969-2.438-2.57 0-5.644 2.173-5.644 4.61M510.818 27.27c0 1.14.821 2.412 2.968 2.412 2.756 0 5.644-2.253 5.644-4.584 0-1.564-1.325-2.438-2.968-2.438-2.57 0-5.644 2.173-5.644 4.61M286.517 167.429a.99.99 0 0 1-1.06-.954c0-1.298 4.452-3.577 5.697-3.577.636 0 1.06.371 1.06.954 0 1.325-4.478 3.577-5.697 3.577m3.657-5.776c-2.571 0-5.644 2.146-5.644 4.61 0 1.14.821 2.411 2.967 2.411 2.756 0 5.644-2.251 5.644-4.583 0-1.564-1.325-2.438-2.967-2.438M530.066 30.579c0 1.14.822 2.411 2.968 2.411 2.756 0 5.644-2.252 5.644-4.584 0-1.563-1.325-2.438-2.968-2.438-2.57 0-5.644 2.173-5.644 4.611m40.325 1.166a.99.99 0 0 1-1.06-.954c0-1.298 4.452-3.577 5.697-3.577.636 0 1.06.37 1.06.954 0 1.325-4.478 3.577-5.697 3.577m3.657-5.777c-2.57 0-5.644 2.146-5.644 4.611 0 1.14.821 2.411 2.967 2.411 2.756 0 5.644-2.252 5.644-4.584 0-1.563-1.325-2.438-2.967-2.438m67.264-2.008c0 1.14.821 2.411 2.968 2.411 2.756 0 5.644-2.252 5.644-4.584 0-1.563-1.325-2.438-2.968-2.438-2.57 0-5.644 2.173-5.644 4.611M240.158 169.572c0 1.139.821 2.41 2.967 2.41 2.756 0 5.644-2.252 5.644-4.583 0-1.563-1.325-2.438-2.967-2.438-2.57 0-5.644 2.173-5.644 4.61m255.291-6.618c0 1.139.822 2.411 2.968 2.411 2.755 0 5.644-2.252 5.644-4.584 0-1.563-1.325-2.438-2.968-2.438-2.57 0-5.644 2.173-5.644 4.61m-290.2 3.31c0 1.14.823 2.411 2.97 2.411 2.755 0 5.643-2.251 5.643-4.583 0-1.564-1.325-2.438-2.967-2.438-2.571 0-5.645 2.173-5.645 4.61M660.56 20.651c0 1.14.822 2.411 2.968 2.411 2.756 0 5.644-2.252 5.644-4.584 0-1.563-1.325-2.438-2.968-2.438-2.57 0-5.644 2.173-5.644 4.61M170.343 162.954c0 1.139.821 2.411 2.967 2.411 2.757 0 5.645-2.252 5.645-4.584 0-1.563-1.325-2.438-2.967-2.438-2.571 0-5.645 2.173-5.645 4.61M229.278 27.27c0 1.139.823 2.41 2.969 2.41 2.755 0 5.644-2.252 5.644-4.583 0-1.564-1.325-2.438-2.968-2.438-2.57 0-5.645 2.173-5.645 4.61m-28.872-3.309c0 1.14.822 2.411 2.968 2.411 2.756 0 5.644-2.252 5.644-4.584 0-1.563-1.325-2.438-2.968-2.438-2.57 0-5.644 2.173-5.644 4.611M56.156 86.838c0 1.14.822 2.41 2.968 2.41 2.756 0 5.644-2.251 5.644-4.583 0-1.564-1.325-2.438-2.967-2.438-2.57 0-5.644 2.173-5.644 4.61m69.814 82.735c0 1.139.821 2.41 2.968 2.41 2.756 0 5.644-2.252 5.644-4.583 0-1.563-1.325-2.438-2.968-2.438-2.57 0-5.644 2.173-5.644 4.61M88.175 86.839c0 1.14.821 2.41 2.967 2.41 2.757 0 5.645-2.251 5.645-4.583 0-1.564-1.325-2.438-2.968-2.438-2.57 0-5.644 2.173-5.644 4.61m32.018 13.238c0 1.14.822 2.412 2.968 2.412 2.755 0 5.644-2.253 5.644-4.584 0-1.564-1.325-2.439-2.968-2.439-2.57 0-5.644 2.174-5.644 4.611m-29.13 72.806c0 1.14.822 2.411 2.968 2.411 2.757 0 5.644-2.252 5.644-4.584 0-1.563-1.325-2.438-2.967-2.438-2.57 0-5.644 2.173-5.644 4.611m70.612-89.353c0 1.14.821 2.412 2.968 2.412 2.756 0 5.644-2.253 5.644-4.585 0-1.563-1.325-2.437-2.968-2.437-2.57 0-5.644 2.172-5.644 4.61m-105.52 86.044c0 1.139.822 2.41 2.968 2.41 2.756 0 5.644-2.252 5.644-4.583 0-1.563-1.325-2.438-2.967-2.438-2.57 0-5.644 2.173-5.644 4.61m137.537-82.733c0 1.14.821 2.41 2.968 2.41 2.756 0 5.644-2.251 5.644-4.583 0-1.564-1.325-2.438-2.967-2.438-2.57 0-5.645 2.173-5.645 4.61m346.005 79.425c0 1.14.822 2.411 2.969 2.411 2.755 0 5.644-2.251 5.644-4.583 0-1.564-1.325-2.438-2.968-2.438-2.57 0-5.645 2.173-5.645 4.61M162.07 30.58c0 1.14.822 2.411 2.968 2.411 2.755 0 5.644-2.252 5.644-4.584 0-1.563-1.325-2.438-2.968-2.438-2.57 0-5.644 2.173-5.644 4.611m63.644 59.568c0 1.14.821 2.411 2.967 2.411 2.756 0 5.644-2.252 5.644-4.584 0-1.563-1.325-2.437-2.967-2.437-2.571 0-5.644 2.172-5.644 4.61m337.258 79.425c0 1.139.822 2.41 2.968 2.41 2.755 0 5.644-2.252 5.644-4.583 0-1.563-1.325-2.438-2.968-2.438-2.57 0-5.644 2.173-5.644 4.61m95.492-59.568c0 1.14.821 2.411 2.968 2.411 2.756 0 5.644-2.252 5.644-4.584 0-1.563-1.325-2.437-2.967-2.437-2.57 0-5.645 2.172-5.645 4.61M247.058 93.456c0 1.14.822 2.412 2.968 2.412 2.756 0 5.644-2.252 5.644-4.584 0-1.564-1.325-2.438-2.968-2.438-2.57 0-5.644 2.173-5.644 4.61M133.197 33.89c0 1.139.821 2.41 2.967 2.41 2.756 0 5.644-2.252 5.644-4.584 0-1.563-1.325-2.438-2.967-2.438-2.571 0-5.644 2.173-5.644 4.612m503.921 76.114c0 1.14.821 2.411 2.968 2.411 2.755 0 5.643-2.252 5.643-4.584 0-1.563-1.324-2.437-2.967-2.437-2.57 0-5.644 2.172-5.644 4.61M104.324 30.579c0 1.14.821 2.411 2.968 2.411 2.755 0 5.644-2.252 5.644-4.584 0-1.563-1.325-2.438-2.968-2.438-2.57 0-5.644 2.173-5.644 4.611m486.754 67.353a.99.99 0 0 1-1.06-.954c0-1.298 4.452-3.578 5.697-3.578.636 0 1.06.372 1.06.955 0 1.325-4.478 3.577-5.697 3.577m3.657-5.777c-2.57 0-5.644 2.147-5.644 4.61 0 1.14.821 2.412 2.967 2.412 2.756 0 5.644-2.253 5.644-4.584 0-1.563-1.325-2.438-2.967-2.438m-314.88-.842a.99.99 0 0 1-1.06-.954c0-1.298 4.452-3.578 5.698-3.578.636 0 1.06.372 1.06.955 0 1.325-4.478 3.577-5.698 3.577m3.657-5.776c-2.57 0-5.644 2.146-5.644 4.61 0 1.14.822 2.411 2.968 2.411 2.756 0 5.644-2.252 5.644-4.584 0-1.563-1.325-2.437-2.968-2.437m42.384 1.3c0 1.14.821 2.412 2.967 2.412 2.757 0 5.645-2.252 5.645-4.584 0-1.564-1.325-2.438-2.969-2.438-2.57 0-5.643 2.173-5.643 4.61M70.799 40.508c0 1.14.821 2.41 2.967 2.41 2.756 0 5.644-2.251 5.644-4.583 0-1.563-1.325-2.438-2.967-2.438-2.57 0-5.644 2.173-5.644 4.61m476.808 52.95c0 1.14.822 2.412 2.968 2.412 2.756 0 5.644-2.252 5.644-4.584 0-1.564-1.324-2.438-2.967-2.438-2.57 0-5.645 2.173-5.645 4.61m-200.366-3.309c0 1.14.822 2.411 2.968 2.411 2.756 0 5.644-2.252 5.644-4.584 0-1.563-1.325-2.437-2.968-2.437-2.57 0-5.644 2.172-5.644 4.61m168.348 0c0 1.14.822 2.411 2.968 2.411 2.755 0 5.644-2.252 5.644-4.584 0-1.563-1.325-2.437-2.968-2.437-2.57 0-5.644 2.172-5.644 4.61m-137.538 3.31c0 1.139.822 2.41 2.968 2.41 2.756 0 5.645-2.251 5.645-4.583 0-1.564-1.325-2.438-2.969-2.438-2.57 0-5.644 2.173-5.644 4.61m105.52 6.62c0 1.139.821 2.41 2.968 2.41 2.756 0 5.644-2.252 5.644-4.583 0-1.564-1.325-2.439-2.968-2.439-2.57 0-5.644 2.174-5.644 4.611m-73.501-3.31c0 1.14.821 2.412 2.968 2.412 2.755 0 5.643-2.253 5.643-4.584 0-1.563-1.324-2.438-2.967-2.438-2.57 0-5.644 2.173-5.644 4.61m-111.594-68.33a.99.99 0 0 1-1.06-.953c0-1.299 4.452-3.578 5.697-3.578.636 0 1.06.372 1.06.954 0 1.325-4.479 3.577-5.697 3.577m3.657-5.776c-2.57 0-5.645 2.147-5.645 4.61 0 1.14.822 2.412 2.969 2.412 2.755 0 5.644-2.253 5.644-4.584 0-1.564-1.325-2.438-2.968-2.438M609.33 170.737a.99.99 0 0 1-1.06-.953c0-1.299 4.452-3.578 5.698-3.578.635 0 1.06.37 1.06.954 0 1.325-4.479 3.577-5.698 3.577m3.657-5.776c-2.57 0-5.644 2.146-5.644 4.61 0 1.14.822 2.412 2.968 2.412 2.755 0 5.644-2.253 5.644-4.584 0-1.563-1.325-2.438-2.968-2.438M518.76 10.66c0 .08.027.212.212.291 1.14.371 3.419 1.802 5.14 4.744.478.821 1.246 1.96 1.246 4.16 0 1.908-.503 3.869-1.192 5.776-.053.159-.106.292-.08.398 0 .159.107.265.265.265.186 0 .318-.106.425-.292 1.192-2.12 1.642-4.584 1.642-6.995-.132-3.418-2.093-5.936-2.093-5.936.08 0-2.438-3.26-3.154-4.372-.98-1.51-1.43-3.02-1.483-3.127-.026-.08-.265-1.033-.265-1.033-.026-.106-.16-.212-.319-.212a.35.35 0 0 0-.344.344zm28.882 138.992c0 .08.027.212.212.292 1.14.371 3.418 1.802 5.14 4.743.478.821 1.246 1.961 1.246 4.16 0 1.908-.503 3.87-1.192 5.777-.053.159-.106.292-.08.397 0 .16.106.265.265.265.185 0 .318-.106.424-.291 1.193-2.12 1.643-4.584 1.643-6.995-.133-3.419-2.093-5.936-2.093-5.936.08 0-2.439-3.26-3.153-4.372-.981-1.51-1.432-3.02-1.485-3.127a64 64 0 0 1-.265-1.034c-.026-.105-.158-.212-.317-.212a.35.35 0 0 0-.345.345zm-202.81 5.568v22.106h.663v-22.106zm73.18-81.079v20.452h.662V74.142Zm97.577 16.004v20.399h.662V90.146Zm-137.537 3.31V112.2h.662V93.456ZM266.093 6.3v22.106h.663V6.301Zm11.775 83.845v20.399h.662V90.146Zm269.74 3.31V112.2h.662V93.456Zm-200.367-3.31v17.065h.662V90.146Zm-42.81-85.5v20.452h.662V4.646Zm43.309 11.583v22.106h.662V16.229Zm-21.845 70.608v18.769h.662v-18.77Zm271.138-12.695v20.452h.662V74.142ZM645.06 87.38v20.451h.662V87.38ZM78.74 16.229v22.106h.663V16.229Zm363.347 77.227V112.2h.662V93.456Zm224.319-6.076v20.451h.662V87.38Zm-419.348 6.076v17.064h.662V93.456Zm368.228 51.838V167.4h.662v-22.106ZM237.22 4.646v20.452h.662V4.646Zm-11.509 85.5v18.77h.662v-18.77ZM64.1 145.294V167.4h.662v-22.106Zm129.595-58.457v22.053h.662V86.837Zm-94.688 61.765v22.107h.662v-22.107zm62.67-65.075v22.054h.662V83.527ZM378.135 23.96v18.744h.662V23.96Zm72.942 132.374v22.053h.662v-22.053zm44.372 6.619v18.744h.662v-18.744ZM128.135 75.797v22.106h.662V75.797Zm5.779 69.497V167.4h.662v-22.106ZM88.175 86.837v22.053h.662V86.837ZM112.266 6.3v22.106h.662V6.301Zm-56.11 80.536v22.053h.662V86.837ZM414.95 4.646v20.452h.662V4.646ZM170.343 162.952v18.744h.662v-18.744zm253.769-19.313v20.451h.662V143.64ZM435.88 17.34v22.054h.662V17.34ZM213.192 143.64v20.451h.663V143.64ZM660.56 20.649v18.772h.662V20.65ZM248.1 145.295V167.4h.662v-22.106ZM141.139 9.61v22.107h.662V9.61Zm500.173 14.35V41.02h.662V23.96ZM518.76 4.698v20.399h.662v-20.4Zm-137.5 158.253v18.744h.663v-18.744ZM170.012 6.301v22.106h.662V6.301Zm377.631 137.39v20.4h.662v-20.4Zm28.704-137.39v22.106h.662V6.301Zm-5.433 138.993V167.4h.662v-22.106ZM474.217 23.959v18.744h.662V23.96ZM292.472 143.64v20.451h.662V143.64ZM538.009 6.3v22.106h.662V6.301Zm-46.496 69.496v22.106h.662V75.797ZM200.406 23.96v18.744h.662V23.96ZM85.016 169.807l2.357-.477v4.373l-2.357.503zm4.107-.821c.159-.027.29-.212.29-.37v-1.564a.36.36 0 0 0-.37-.372h-.053l-.875.186v-3.948h-.742v4.107l-2.357.476v-3.736h-.742v3.896l-1.034.212c-.16.026-.291.212-.291.37v1.538c0 .212.158.37.37.37h.08l.875-.185v4.372l-1.034.212c-.16.027-.291.212-.291.371v1.537c0 .212.158.371.37.371h.08l.875-.185v3.948h.742v-4.108l2.357-.477v3.737h.742v-3.895l1.008-.186c.159-.026.29-.212.29-.37v-1.564a.36.36 0 0 0-.37-.372h-.053l-.875.186v-4.372zm38.025-138.172 2.358-.477v4.373l-2.358.503zm4.107-.82c.159-.027.292-.213.292-.372v-1.563a.363.363 0 0 0-.372-.372h-.053l-.874.186v-3.948h-.742v4.107l-2.358.477v-3.736h-.742v3.895l-1.034.212c-.158.027-.291.212-.291.371v1.537c0 .212.159.37.371.37h.08l.874-.184v4.372l-1.034.212c-.158.026-.291.212-.291.37v1.537c0 .213.16.371.371.371h.08l.874-.185V41.6h.742v-4.107l2.358-.477v3.736h.742v-3.895l1.007-.186c.159-.026.292-.212.292-.37v-1.564a.363.363 0 0 0-.372-.371h-.052l-.875.186v-4.372zm354.73 118.246v27.202h1.19V148.24ZM368.67 9.246v27.203h1.19V9.246Zm96.082 0v27.203h1.191V9.246Zm-92.955 138.993v27.202h1.192V148.24ZM558.94 9.246v27.203h1.191V9.246Zm-367.997 0v27.203h1.19V9.246Zm283.165 69.496v27.203h1.19V78.742ZM620.556 9.246v27.203h3.64V9.246Zm-3.64 0v27.203h1.19V9.246Zm-2.448 16.91c0-.768-.61-1.404-1.378-1.404s-1.377.636-1.377 1.405c0 .768.609 1.404 1.377 1.404.769 0 1.378-.636 1.378-1.404m0-6.62c0-.768-.61-1.404-1.378-1.404s-1.377.636-1.377 1.405c0 .768.609 1.404 1.377 1.404.769 0 1.378-.636 1.378-1.404m18.572 6.619c0-.769-.61-1.405-1.378-1.405s-1.377.636-1.377 1.405c0 .768.609 1.404 1.377 1.404.769 0 1.378-.636 1.378-1.404m0-6.62c0-.768-.61-1.404-1.378-1.404s-1.377.636-1.377 1.405c0 .768.609 1.404 1.377 1.404.769 0 1.378-.636 1.378-1.404m-6.396-10.292v27.203h1.192V9.246Zm-6.088 0v27.203h3.64V9.246Zm-22.678 138.993v27.202h1.192V148.24zm-322.813 0v27.202h1.191V148.24ZM679.809 9.246v27.203H681V9.246ZM160.878 148.239v27.202h1.191V148.24zm-8.667-69.497v27.203h1.192V78.742ZM94.86 9.246v27.203h1.192V9.246Zm584.95 69.496v27.203H681V78.742Zm-2.45 69.497v27.202H681V148.24zm-3.64 0v27.202h1.192V148.24Zm-94.093-69.497v27.203h1.191V78.742Zm-211.04 0v27.203h1.192V78.742Zm-100.182 0v27.203h1.19V78.742Zm18.62-69.496v27.203h1.192V9.246ZM0 174.713v.728h681v-.728zm0-6.618v.728h681v-.728zm0-6.619v.728h681v-.728zm0-6.619v.728h681v-.728zm0-6.619v.728h681v-.728zm0-43.021v.728h681v-.728zm0-6.618v.727h681V98.6zm0-6.62v.729h681v-.728zm0-6.618v.728h681v-.728zm0-6.619v.728h681v-.728Zm0-43.021v.727h681v-.727zm0-6.619v.728h681v-.728zm0-6.619v.728h681v-.728zm0-6.618v.727h681v-.727Zm0-6.619v.728h681v-.728Z"/>
</svg>
