<?xml version="1.0" encoding="UTF-8" standalone="no"?>
<svg
   width="681"
   height="186.10622"
   version="1.2"
   id="svg199"
   xmlns="http://www.w3.org/2000/svg"
   xmlns:svg="http://www.w3.org/2000/svg"
   xmlns:rdf="http://www.w3.org/1999/02/22-rdf-syntax-ns#"
   xmlns:cc="http://creativecommons.org/ns#"
   xmlns:dc="http://purl.org/dc/elements/1.1/">
  <defs
     id="defs199" />
  <title
     id="title1">air_XX</title>
  <desc
     id="desc1">Generated by MuseScore Studio 4.7.3</desc>
  <path
     id="path199"
     class="NoteDot"
     d="m 344.70047,145.2935 c 0,0.74131 0.5836,1.32491 1.32491,1.32491 0.74211,0 1.3249,-0.5836 1.3249,-1.32491 0,-0.7421 -0.58279,-1.3249 -1.3249,-1.3249 -0.74131,0 -1.32491,0.5828 -1.32491,1.3249 m 268.36029,13.23705 c 0,0.74211 0.5828,1.32491 1.32491,1.32491 0.74211,0 1.3249,-0.5828 1.3249,-1.32491 0,-0.7421 -0.58279,-1.3249 -1.3249,-1.3249 -0.74211,0 -1.32491,0.5828 -1.32491,1.3249 M 403.42623,89.034237 c 0,0.742107 0.58279,1.324906 1.3249,1.324906 0.74131,0 1.32491,-0.582799 1.32491,-1.324906 0,-0.742107 -0.5836,-1.324906 -1.32491,-1.324906 -0.74211,0 -1.3249,0.582799 -1.3249,1.324906 m -202.19345,0 c 0,0.742107 0.58279,1.324906 1.3249,1.324906 0.74211,0 1.32491,-0.582799 1.32491,-1.324906 0,-0.742107 -0.5828,-1.324906 -1.32491,-1.324906 -0.74211,0 -1.3249,0.582799 -1.3249,1.324906 m 328.53663,69.496313 c 0,0.74211 0.5828,1.32491 1.32491,1.32491 0.74211,0 1.3249,-0.5828 1.3249,-1.32491 0,-0.7421 -0.58279,-1.3249 -1.3249,-1.3249 -0.74211,0 -1.32491,0.5828 -1.32491,1.3249 M 206.29063,32.77497 c 0,0.742107 0.5828,1.324906 1.32491,1.324906 0.74211,0 1.32491,-0.582799 1.32491,-1.324906 0,-0.741307 -0.5828,-1.324906 -1.32491,-1.324906 -0.74211,0 -1.32491,0.583599 -1.32491,1.324906 m 436.13501,43.022216 c 0,0.741307 0.5828,1.324906 1.32491,1.324906 0.7421,0 1.3249,-0.583599 1.3249,-1.324906 0,-0.742107 -0.5828,-1.324906 -1.3249,-1.324906 -0.74211,0 -1.32491,0.582799 -1.32491,1.324906 m 1.3129,-69.4967181 c 0,0.7419473 0.5828,1.3249059 1.3249,1.3249059 0.74131,0 1.32491,-0.5829586 1.32491,-1.3249059 0,-0.7419473 -0.5836,-1.3249059 -1.32491,-1.3249059 -0.7421,0 -1.3249,0.5829586 -1.3249,1.3249059 M 479.08916,36.084433 h 47.12742 v 3.309462 h -47.12742 v -3.309462 m -206.08251,38.050016 16.84032,-1.654731 v 3.324673 l -16.84032,1.654731 V 74.134449 M 79.66806,16.21989 95.8183,14.565159 v 3.326674 L 79.66806,19.546565 V 16.21989 m 65.54321,157.19924 76.99505,4.9642 v 3.31587 l -76.99505,-4.9634 v -3.31667 m 334.12206,-95.976018 49.19844,-4.964195 v 3.326275 l -49.19844,4.964194 v -3.326274 m -366.55063,26.474898 49.19924,4.9642 v 3.32547 l -49.19924,-4.96339 v -3.32628 m -32.357325,1.65474 16.840314,-1.65474 v 3.32548 l -16.840314,1.65473 v -3.32547 M 282.04003,36.084433 h 47.12822 v 3.309462 H 282.04003 V 36.084433 M 94.322877,175.07387 120.42873,173.41913 v 3.31587 l -26.105853,1.65473 v -3.31586 M 238.55349,39.385089 254.70374,37.730358 v 3.327075 l -16.15025,1.654731 V 39.385089 M 416.07728,178.38653 h 76.99504 v 3.30946 h -76.99504 v -3.30946 M 54.840684,18.104059 c -0.662853,0.423969 -1.139979,1.192415 -1.139979,2.040355 0,0.105992 0,0.211985 0.02642,0.317977 0.132891,1.086423 1.007089,1.934363 2.093431,2.066853 h 0.2914 c 1.324906,0 2.38483,-1.059924 2.38483,-2.38483 v -0.158989 c 0,-0.105992 -0.02642,-0.291479 -0.05284,-0.397472 -0.238563,-1.139419 -1.27207,-3.577246 -5.77675,-3.577246 -5.775949,0 -6.438802,4.79616 -6.438802,6.518537 0,3.153677 0.397872,7.101176 7.022401,7.101176 2.623394,0 4.663189,-1.536251 4.769662,-4.371789 0,-0.132891 -0.08006,-0.212146 -0.212146,-0.212146 h -0.344235 c -0.106473,0 -0.212145,0.106473 -0.212145,0.212146 -0.106473,2.199103 -1.669942,3.524009 -4.001136,3.524009 -2.305576,0 -3.418337,-1.244851 -3.418337,-3.576846 v -5.06138 c 0,-1.483895 0.582799,-3.179774 2.941211,-3.179774 1.245652,0 1.802032,0.450468 2.093431,0.900936 0.02642,0.053 0.02642,0.07949 0.02642,0.13249 0,0.0265 0,0.07949 -0.05284,0.105993 M 37.732186,150.8517 c 0,2.09344 -1.086342,3.2062 -2.623393,4.42543 l 0.07925,-5.16753 c 0.05284,-0.23777 0.450708,-1.00629 1.510633,-1.00629 0.953452,0 1.033506,0.90061 1.033506,1.457 v 0.29139 m -0.318617,-3.04688 c -1.324906,0 -2.092631,0.82136 -2.225522,0.97987 l 0.105672,-8.50581 c 0,-0.21135 -0.158508,-0.37066 -0.370653,-0.37066 h -0.317818 c -0.212145,0 -0.371454,0.15931 -0.371454,0.37066 l 0.132891,15.92528 c 0,0.21215 0.159309,0.37146 0.370654,0.37146 0.05364,0 0.159309,-0.0264 0.212145,-0.0528 2.279158,-1.13998 4.663989,-3.31266 4.663989,-6.04173 0,-1.37774 -0.636435,-2.67623 -2.199904,-2.67623 m -7.041615,12.97527 c 0,2.09343 -1.086343,3.2062 -2.623394,4.42543 l 0.07925,-5.16753 c 0.05284,-0.23857 0.450709,-1.00709 1.510633,-1.00709 0.954253,0 1.033507,0.90141 1.033507,1.45779 v 0.2914 m -0.317817,-3.04768 c -1.324906,0 -2.093432,0.82136 -2.226323,0.98067 l 0.106473,-8.50582 c 0,-0.21214 -0.159309,-0.37065 -0.371454,-0.37065 h -0.317817 c -0.212145,0 -0.370654,0.15851 -0.370654,0.37065 l 0.132091,15.92529 c 0,0.21215 0.159309,0.37066 0.371454,0.37066 0.05284,0 0.158508,-0.0264 0.211344,-0.0528 2.279159,-1.13918 4.663989,-3.31186 4.663989,-6.04173 0,-1.37774 -0.635634,-2.67623 -2.199103,-2.67623 m 7.678049,-76.377023 c 0,2.093431 -1.086342,3.206192 -2.623393,4.425425 l 0.07925,-5.167533 c 0.05284,-0.237762 0.450708,-1.006288 1.510633,-1.006288 0.953452,0 1.033506,0.900616 1.033506,1.456996 v 0.2914 m -0.318617,-3.046884 c -1.324906,0 -2.092631,0.821362 -2.225522,0.97987 l 0.105672,-8.505816 c 0,-0.211344 -0.158508,-0.370653 -0.370653,-0.370653 h -0.317818 c -0.212145,0 -0.371454,0.159309 -0.371454,0.370653 l 0.132891,15.925289 c 0,0.212145 0.159309,0.371454 0.370654,0.371454 0.05364,0 0.159309,-0.02642 0.212145,-0.05284 2.279158,-1.139979 4.663989,-3.312665 4.663989,-6.041731 0,-1.377742 -0.636435,-2.67623 -2.199904,-2.67623 m -7.041615,12.975272 c 0,2.093431 -1.086343,3.206192 -2.623394,4.425426 l 0.07925,-5.167533 c 0.05284,-0.238563 0.450709,-1.007089 1.510633,-1.007089 0.954253,0 1.033507,0.901416 1.033507,1.457797 v 0.291399 m -0.317817,-3.047684 c -1.324906,0 -2.093432,0.821362 -2.226323,0.980671 l 0.106473,-8.505816 c 0,-0.212145 -0.159309,-0.370654 -0.371454,-0.370654 H 27.245 c -0.212145,0 -0.370654,0.158509 -0.370654,0.370654 l 0.132091,15.925289 c 0,0.212145 0.159309,0.370653 0.371454,0.370653 0.05284,0 0.158508,-0.02642 0.211344,-0.05284 2.279159,-1.139179 4.663989,-3.311864 4.663989,-6.041731 0,-1.377742 -0.635634,-2.67623 -2.199103,-2.67623 M 37.73217,11.859301 c 0,2.093351 -1.086342,3.206272 -2.623393,4.425185 l 0.07925,-5.167133 c 0.05284,-0.238483 0.450708,-1.006928 1.510633,-1.006928 0.953452,0 1.033506,0.900936 1.033506,1.457396 v 0.29148 M 37.413569,8.8119451 c -1.324906,0 -2.092631,0.8214417 -2.225522,0.9804304 l 0.105672,-8.5058959 c 0,-0.2119849 -0.158508,-0.37097363 -0.370653,-0.37097363 h -0.317818 c -0.212145,0 -0.371454,0.15898873 -0.371454,0.37097363 l 0.132891,15.9253694 c 0,0.211985 0.159309,0.370973 0.370654,0.370973 0.05364,0 0.159309,-0.0265 0.212145,-0.053 2.279158,-1.139419 4.663989,-3.312265 4.663989,-6.041571 0,-1.377902 -0.636435,-2.6763099 -2.199904,-2.6763099 M 30.371954,21.787297 c 0,2.093591 -1.086343,3.206352 -2.623394,4.425586 l 0.07925,-5.167533 c 0.05284,-0.238483 0.450709,-1.006929 1.510633,-1.006929 0.954253,0 1.033507,0.900936 1.033507,1.457397 v 0.291479 m -0.317817,-3.047284 c -1.324906,0 -2.093432,0.821442 -2.226323,0.980431 l 0.106473,-8.505896 c 0,-0.211985 -0.159309,-0.370974 -0.371454,-0.370974 h -0.317817 c -0.212145,0 -0.370654,0.158989 -0.370654,0.370974 l 0.132091,15.925369 c 0,0.212145 0.159309,0.370653 0.371454,0.370653 0.05284,0 0.158508,-0.02642 0.211344,-0.05284 2.279159,-1.139179 4.663989,-3.311864 4.663989,-6.041411 0,-1.377902 -0.635634,-2.67631 -2.199103,-2.67631 M 16.093311,104.42076 c -0.529962,0.10647 -1.033427,0.15931 -1.536891,0.15931 -3.789231,0 -7.0220012,-2.64982 -7.0220012,-6.650951 0,-3.233411 2.2788382,-6.120985 4.6106722,-8.135163 0.450468,-0.397872 0.874438,-0.768525 1.27191,-1.165597 0.238483,1.430579 0.42397,2.67623 0.609457,3.762573 -2.411329,0.714889 -4.0542123,3.259028 -4.0542123,5.749531 0,1.854869 1.4573963,4.399007 3.5772463,4.399007 0.211985,0 0.450468,-0.10567 0.450468,-0.34423 0,-0.23857 -0.264982,-0.37146 -0.582959,-0.5828 -1.033427,-0.63644 -1.616385,-1.32491 -1.616385,-2.623396 0,-1.616306 1.192415,-2.914793 2.755804,-3.286247 l 1.536891,8.717963 M 13.761477,77.180532 c 0.238483,-1.059925 1.457396,-3.841827 2.835298,-3.841827 0.397472,0 1.033427,1.298488 1.033427,3.126938 0,2.755484 -2.040355,4.822498 -3.868725,6.62453 -0.158989,-1.059925 -0.29148,-2.093432 -0.29148,-3.206193 0,-0.98067 0.0795,-1.882086 0.29148,-2.703448 m 6.094567,22.338474 c 0,1.881284 -0.768446,3.815404 -2.649812,4.583934 -0.556461,-3.17977 -1.27191,-7.393055 -1.457397,-8.558652 2.384831,0 4.107209,1.616305 4.107209,3.974718 M 8.1968718,112.55592 c 0,1.7484 1.351404,4.05397 4.9286502,4.05397 1.245411,0 2.331834,-0.31782 3.285766,-0.90061 1.430899,-1.00709 1.801872,-2.75629 1.801872,-4.42543 0,-1.03351 -0.158988,-2.22552 -0.423969,-3.73615 -0.07949,-0.52997 -0.238484,-1.32491 -0.397472,-2.35842 2.596815,-0.84778 4.531178,-3.55042 4.531178,-6.280291 0,-4.001136 -2.835299,-6.703784 -6.704024,-6.703784 -0.264981,-1.589887 -0.529962,-3.153356 -0.768445,-4.63677 2.8088,-2.942012 4.743163,-6.253876 4.743163,-10.467157 0,-2.411249 -0.741948,-4.371789 -1.165917,-5.326042 -0.635955,-1.351324 -1.404401,-2.279158 -1.881367,-2.279158 -0.185487,0 -1.006928,0.318618 -1.881366,1.351324 -1.69588,2.014177 -2.172846,5.406096 -2.172846,7.631618 0,1.431379 0.132491,2.729866 0.582959,5.697495 -0.0265,0.02642 -1.404401,1.430579 -1.960861,1.881287 -2.4113287,2.25194 -5.7500916,5.458132 -5.7500916,10.757755 0,4.955393 4.3191932,8.850853 9.2478436,8.850853 0.768445,0 1.483894,-0.0793 2.093351,-0.18573 0.503464,2.54414 0.794943,4.39901 0.794943,5.80317 0,2.75548 -1.4044,4.21328 -4.08071,4.21328 -0.635955,0 -1.192415,-0.13289 -1.245411,-0.13289 -0.0265,-0.0264 -0.07949,-0.0528 -0.07949,-0.0793 0,-0.0528 0.053,-0.0793 0.132491,-0.10568 1.245412,-0.18572 2.490823,-1.24565 2.490823,-2.94121 0,-1.43138 -1.086423,-2.94121 -3.073782,-2.94121 -1.8548679,0 -3.0472832,1.50983 -3.0472832,3.25903 M 16.093311,34.924439 c -0.529962,0.106473 -1.033427,0.159309 -1.536891,0.159309 -3.789231,0 -7.0220012,-2.649811 -7.0220012,-6.650947 0,-3.233411 2.2788382,-6.121386 4.6106722,-8.135243 0.450468,-0.397471 0.874438,-0.768445 1.27191,-1.165917 0.238483,1.430899 0.42397,2.67631 0.609457,3.762733 -2.411329,0.715129 -4.0542123,3.259268 -4.0542123,5.749771 0,1.854869 1.4573963,4.399008 3.5772463,4.399008 0.211985,0 0.450468,-0.105672 0.450468,-0.344235 0,-0.238563 -0.264982,-0.371454 -0.582959,-0.582799 -1.033427,-0.636435 -1.616385,-1.324906 -1.616385,-2.623393 0,-1.616306 1.192415,-2.914793 2.755804,-3.286247 l 1.536891,8.71796 M 13.761477,7.6844542 c 0.238483,-1.0599247 1.457396,-3.8422271 2.835298,-3.8422271 0.397472,0 1.033427,1.2984078 1.033427,3.1267779 0,2.7558043 -2.040355,4.822658 -3.868725,6.62453 -0.158989,-1.059925 -0.29148,-2.093352 -0.29148,-3.206273 0,-0.9804301 0.0795,-1.8813661 0.29148,-2.7028078 m 6.094567,22.3382338 c 0,1.881286 -0.768446,3.815409 -2.649812,4.583934 -0.556461,-3.179774 -1.27191,-7.393055 -1.457397,-8.558652 2.384831,0 4.107209,1.616305 4.107209,3.974718 M 8.1968718,43.059602 c 0,1.748395 1.351404,4.053972 4.9286502,4.053972 1.245411,0 2.331834,-0.317818 3.285766,-0.900616 1.430899,-1.007089 1.801872,-2.756285 1.801872,-4.425426 0,-1.033507 -0.158988,-2.225522 -0.423969,-3.736154 -0.07949,-0.529963 -0.238484,-1.324906 -0.397472,-2.358413 2.596815,-0.84778 4.531178,-3.550428 4.531178,-6.280294 0,-4.001136 -2.835299,-6.703784 -6.704024,-6.703784 -0.264981,-1.589887 -0.529962,-3.153276 -0.768445,-4.637171 2.8088,-2.941291 4.743163,-6.253555 4.743163,-10.4667561 0,-2.4113288 -0.741948,-4.3721895 -1.165917,-5.3261218 C 17.391719,0.92743413 16.623273,0 16.146307,0 15.96082,0 15.139379,0.31797742 14.264941,1.351404 c -1.69588,2.013857 -2.172846,5.4056161 -2.172846,7.631458 0,1.430898 0.132491,2.729306 0.582959,5.697095 -0.0265,0.0265 -1.404401,1.430899 -1.960861,1.881367 -2.4113287,2.25234 -5.7500916,5.458612 -5.7500916,10.757915 0,4.955389 4.3191932,8.850852 9.2478436,8.850852 0.768445,0 1.483894,-0.07925 2.093351,-0.185727 0.503464,2.54414 0.794943,4.399008 0.794943,5.803168 0,2.755484 -1.4044,4.213281 -4.08071,4.213281 -0.635955,0 -1.192415,-0.132891 -1.245411,-0.132891 -0.0265,-0.02642 -0.07949,-0.05284 -0.07949,-0.07925 0,-0.05284 0.053,-0.07925 0.132491,-0.105672 1.245412,-0.185727 2.490823,-1.245652 2.490823,-2.941211 0,-1.431379 -1.086423,-2.941211 -3.073782,-2.941211 -1.8548679,0 -3.0472832,1.509832 -3.0472832,3.259028 M 16.093311,173.91708 c -0.529962,0.10647 -1.033427,0.1593 -1.536891,0.1593 -3.789231,0 -7.0220012,-2.64981 -7.0220012,-6.65094 0,-3.23341 2.2788382,-6.12099 4.6106722,-8.13517 0.450468,-0.39787 0.874438,-0.76852 1.27191,-1.16559 0.238483,1.43058 0.42397,2.67623 0.609457,3.76257 -2.411329,0.71489 -4.0542123,3.25903 -4.0542123,5.74953 0,1.85487 1.4573963,4.39901 3.5772463,4.39901 0.211985,0 0.450468,-0.10567 0.450468,-0.34424 0,-0.23856 -0.264982,-0.37145 -0.582959,-0.58279 -1.033427,-0.63644 -1.616385,-1.32491 -1.616385,-2.6234 0,-1.6163 1.192415,-2.91479 2.755804,-3.28625 l 1.536891,8.71797 m -2.331834,-27.24023 c 0.238483,-1.05992 1.457396,-3.84183 2.835298,-3.84183 0.397472,0 1.033427,1.29849 1.033427,3.12694 0,2.75549 -2.040355,4.8225 -3.868725,6.62453 -0.158989,-1.05992 -0.29148,-2.09343 -0.29148,-3.20619 0,-0.98067 0.0795,-1.88209 0.29148,-2.70345 m 6.094567,22.33847 c 0,1.88129 -0.768446,3.81541 -2.649812,4.58394 -0.556461,-3.17978 -1.27191,-7.39306 -1.457397,-8.55865 2.384831,0 4.107209,1.6163 4.107209,3.97471 M 8.1968718,182.05224 c 0,1.74839 1.351404,4.05397 4.9286502,4.05397 1.245411,0 2.331834,-0.31782 3.285766,-0.90062 1.430899,-1.00708 1.801872,-2.75628 1.801872,-4.42542 0,-1.03351 -0.158988,-2.22552 -0.423969,-3.73616 -0.07949,-0.52996 -0.238484,-1.3249 -0.397472,-2.35841 2.596815,-0.84778 4.531178,-3.55043 4.531178,-6.28029 0,-4.00114 -2.835299,-6.70379 -6.704024,-6.70379 -0.264981,-1.58988 -0.529962,-3.15335 -0.768445,-4.63677 2.8088,-2.94201 4.743163,-6.25387 4.743163,-10.46715 0,-2.41125 -0.741948,-4.37179 -1.165917,-5.32605 -0.635955,-1.35132 -1.404401,-2.27915 -1.881367,-2.27915 -0.185487,0 -1.006928,0.31861 -1.881366,1.35132 -1.69588,2.01418 -2.172846,5.4061 -2.172846,7.63162 0,1.43138 0.132491,2.72986 0.582959,5.69749 -0.0265,0.0264 -1.404401,1.43058 -1.960861,1.88129 -2.4113287,2.25194 -5.7500916,5.45813 -5.7500916,10.75776 0,4.95538 4.3191932,8.85085 9.2478436,8.85085 0.768445,0 1.483894,-0.0793 2.093351,-0.18573 0.503464,2.54414 0.794943,4.39901 0.794943,5.80317 0,2.75548 -1.4044,4.21328 -4.08071,4.21328 -0.635955,0 -1.192415,-0.13289 -1.245411,-0.13289 -0.0265,-0.0264 -0.07949,-0.0528 -0.07949,-0.0793 0,-0.0528 0.053,-0.0792 0.132491,-0.10567 1.245412,-0.18573 2.490823,-1.24565 2.490823,-2.94121 0,-1.43138 -1.086423,-2.94121 -3.073782,-2.94121 -1.8548679,0 -3.0472832,1.50983 -3.0472832,3.25903 M 311.22879,91.313395 c -0.875,0 -1.05993,-0.715689 -1.05993,-0.954252 0,-1.298488 4.45104,-3.577646 5.6967,-3.577646 0.63643,0 1.05992,0.371454 1.05992,0.954252 0,1.324906 -4.47826,3.577646 -5.69669,3.577646 m 3.6561,-5.77675 c -2.56976,0 -5.64386,2.146268 -5.64386,4.610353 0,1.139179 0.82136,2.411248 2.96763,2.411248 2.75628,0 5.64466,-2.251939 5.64466,-4.583934 0,-1.563469 -1.32491,-2.437667 -2.96843,-2.437667 m 17.90104,64.179085 c 0,1.13918 0.82136,2.41125 2.96762,2.41125 2.75629,0 5.64466,-2.25274 5.64466,-4.58474 0,-1.56267 -1.3249,-2.43767 -2.96843,-2.43767 -2.56975,0 -5.64385,2.17269 -5.64385,4.61116 M 328.5062,14.032074 c 0,1.139419 0.82136,2.411329 2.96763,2.411329 2.75548,0 5.64386,-2.25234 5.64386,-4.584174 0,-1.563389 -1.32491,-2.4378271 -2.96763,-2.4378271 -2.57056,0 -5.64386,2.1728461 -5.64386,4.6106721 M 294.61983,172.88117 c 0,1.13918 0.82136,2.41125 2.96763,2.41125 2.75548,0 5.64386,-2.25274 5.64386,-4.58474 0,-1.56267 -1.32491,-2.43767 -2.96763,-2.43767 -2.57056,0 -5.64386,2.17269 -5.64386,4.61116 M 343.99439,17.341457 c 0,1.139419 0.82136,2.411329 2.96843,2.411329 2.75548,0 5.64386,-2.25234 5.64386,-4.584175 0,-1.563388 -1.32491,-2.437826 -2.96763,-2.437826 -2.57056,0 -5.64466,2.172845 -5.64466,4.610672 M 256.45293,159.64332 c 0,1.13917 0.82136,2.41124 2.96843,2.41124 2.75549,0 5.64386,-2.25194 5.64386,-4.58393 0,-1.56347 -1.3249,-2.43767 -2.96763,-2.43767 -2.57056,0 -5.64466,2.17269 -5.64466,4.61036 M 367.22788,17.341457 c 0,1.139419 0.82136,2.411329 2.96762,2.411329 2.75549,0 5.64386,-2.25234 5.64386,-4.584175 0,-1.563388 -1.3249,-2.437826 -2.96763,-2.437826 -2.57055,0 -5.64385,2.172845 -5.64385,4.610672 m 34.68451,1.165917 c -0.8742,0 -1.05992,-0.715449 -1.05992,-0.953932 0,-1.298408 4.45184,-3.577246 5.69749,-3.577246 0.63564,0 1.05993,0.370974 1.05993,0.953932 0,1.324906 -4.47827,3.577246 -5.6975,3.577246 m 3.6569,-5.776589 c -2.57056,0 -5.64386,2.146347 -5.64386,4.610672 0,1.139419 0.82136,2.411329 2.96763,2.411329 2.75549,0 5.64386,-2.25234 5.64386,-4.584175 0,-1.563388 -1.32491,-2.437826 -2.96763,-2.437826 m 31.19253,-0.842096 c -0.8742,0 -1.05993,-0.715449 -1.05993,-0.953932 0,-1.2984082 4.45185,-3.5772463 5.6975,-3.5772463 0.63563,0 1.05992,0.3709736 1.05992,0.9539322 0,1.3249059 -4.47826,3.5772461 -5.69749,3.5772461 m 3.6569,-5.7765899 c -2.57056,0 -5.64386,2.1463476 -5.64386,4.6106729 0,1.139419 0.82136,2.411328 2.96763,2.411328 2.75548,0 5.64386,-2.25234 5.64386,-4.584174 0,-1.563389 -1.32491,-2.4378269 -2.96763,-2.4378269 M 221.54426,162.95278 c 0,1.13918 0.82137,2.41125 2.96763,2.41125 2.75629,0 5.64386,-2.25194 5.64386,-4.58394 0,-1.56347 -1.3249,-2.43766 -2.96763,-2.43766 -2.56975,0 -5.64386,2.17268 -5.64386,4.61035 M 479.08916,17.341457 c 0,1.139419 0.82136,2.411329 2.96763,2.411329 2.75548,0 5.64386,-2.25234 5.64386,-4.584175 0,-1.563388 -1.32491,-2.437826 -2.96763,-2.437826 -2.57056,0 -5.64386,2.172845 -5.64386,4.610672 M 196.09967,159.64332 c 0,1.13917 0.82136,2.41124 2.96843,2.41124 2.75548,0 5.64386,-2.25194 5.64386,-4.58393 0,-1.56347 -1.32491,-2.43767 -2.96763,-2.43767 -2.57056,0 -5.64466,2.17269 -5.64466,4.61036 M 297.52902,20.65076 c 0,1.139419 0.82136,2.411329 2.96763,2.411329 2.75548,0 5.64386,-2.25234 5.64386,-4.584175 0,-1.563389 -1.32491,-2.437827 -2.96763,-2.437827 -2.57056,0 -5.64386,2.172846 -5.64386,4.610673 M 170.65587,156.33385 c 0,1.13998 0.82136,2.41125 2.96763,2.41125 2.75548,0 5.64386,-2.25194 5.64386,-4.58393 0,-1.56347 -1.32491,-2.43767 -2.96763,-2.43767 -2.57056,0 -5.64386,2.17269 -5.64386,4.61035 M 494.57735,20.65076 c 0,1.139419 0.82136,2.411329 2.96763,2.411329 2.75628,0 5.64466,-2.25234 5.64466,-4.584175 0,-1.563389 -1.32491,-2.437827 -2.96763,-2.437827 -2.57056,0 -5.64466,2.172846 -5.64466,4.610673 M 381.16861,153.02439 c 0,1.13998 0.82136,2.41205 2.96763,2.41205 2.75548,0 5.64386,-2.25274 5.64386,-4.58474 0,-1.56346 -1.32491,-2.43766 -2.96763,-2.43766 -2.57056,0 -5.64386,2.17268 -5.64386,4.61035 m -235.95734,0 c 0,1.13998 0.82136,2.41205 2.96763,2.41205 2.75629,0 5.64466,-2.25274 5.64466,-4.58474 0,-1.56346 -1.32491,-2.43766 -2.96763,-2.43766 -2.57056,0 -5.64466,2.17268 -5.64466,4.61035 M 510.06634,17.341457 c 0,1.139419 0.82136,2.411329 2.96763,2.411329 2.75548,0 5.64386,-2.25234 5.64386,-4.584175 0,-1.563388 -1.32491,-2.437826 -2.96763,-2.437826 -2.57056,0 -5.64386,2.172845 -5.64386,4.610672 M 119.76747,156.33385 c 0,1.13998 0.82137,2.41125 2.96763,2.41125 2.75549,0 5.64386,-2.25194 5.64386,-4.58393 0,-1.56347 -1.3249,-2.43767 -2.96763,-2.43767 -2.57055,0 -5.64386,2.17269 -5.64386,4.61035 M 525.55453,14.032074 c 0,1.139419 0.82136,2.411329 2.96843,2.411329 2.75548,0 5.64386,-2.25234 5.64386,-4.584174 0,-1.563389 -1.32491,-2.4378271 -2.96763,-2.4378271 -2.57056,0 -5.64466,2.1728461 -5.64466,4.6106721 m -243.5145,3.309383 c 0,1.139419 0.82136,2.411329 2.96763,2.411329 2.75628,0 5.64466,-2.25234 5.64466,-4.584175 0,-1.563388 -1.32491,-2.437826 -2.96843,-2.437826 -2.56976,0 -5.64386,2.172845 -5.64386,4.610672 M 94.322877,159.64332 c 0,1.13917 0.821362,2.41124 2.967629,2.41124 2.756284,0 5.644664,-2.25194 5.644664,-4.58393 0,-1.56347 -1.32491,-2.43767 -2.968434,-2.43767 -2.569757,0 -5.643859,2.17269 -5.643859,4.61036 M 541.04352,17.341457 c 0,1.139419 0.82136,2.411329 2.96763,2.411329 2.75628,0 5.64386,-2.25234 5.64386,-4.584175 0,-1.563388 -1.32491,-2.437826 -2.96763,-2.437826 -2.56976,0 -5.64386,2.172845 -5.64386,4.610672 M 56.156784,156.33385 c 0,1.13998 0.821362,2.41125 2.967629,2.41125 2.755484,0 5.643859,-2.25194 5.643859,-4.58393 0,-1.56347 -1.324906,-2.43767 -2.967629,-2.43767 -2.570557,0 -5.643859,2.17269 -5.643859,4.61035 M 564.27621,17.341457 c 0,1.139419 0.82136,2.411329 2.96763,2.411329 2.75628,0 5.64466,-2.25234 5.64466,-4.584175 0,-1.563388 -1.32491,-2.437826 -2.96763,-2.437826 -2.57056,0 -5.64466,2.172845 -5.64466,4.610672 M 254.04168,20.65076 c 0,1.139419 0.82137,2.411329 2.96843,2.411329 2.75549,0 5.64386,-2.25234 5.64386,-4.584175 0,-1.563389 -1.3249,-2.437827 -2.96763,-2.437827 -2.57055,0 -5.64466,2.172846 -5.64466,4.610673 m 162.0356,135.68309 c 0,1.13998 0.82136,2.41125 2.96762,2.41125 2.75629,0 5.64466,-2.25194 5.64466,-4.58393 0,-1.56347 -1.3249,-2.43767 -2.96843,-2.43767 -2.56975,0 -5.64385,2.17269 -5.64385,4.61035 M 598.96152,18.507374 c -0.8742,0 -1.05992,-0.715449 -1.05992,-0.953932 0,-1.298408 4.45184,-3.577246 5.69669,-3.577246 0.63644,0 1.05993,0.370974 1.05993,0.953932 0,1.324906 -4.47746,3.577246 -5.6967,3.577246 m 3.6569,-5.776589 c -2.57055,0 -5.64466,2.146347 -5.64466,4.610672 0,1.139419 0.82217,2.411329 2.96843,2.411329 2.75549,0 5.64386,-2.25234 5.64386,-4.584175 0,-1.563388 -1.3249,-2.437826 -2.96763,-2.437826 m 29.20477,-2.008013 c 0,1.139419 0.82216,2.411328 2.96843,2.411328 2.75549,0 5.64386,-2.25234 5.64386,-4.584174 0,-1.563389 -1.32491,-2.4378269 -2.96763,-2.4378269 -2.57056,0 -5.64466,2.1728457 -5.64466,4.6106729 m 29.45214,72.8053 c 0,1.13998 0.82136,2.412049 2.96763,2.412049 2.75628,0 5.64386,-2.25274 5.64386,-4.584734 0,-1.563469 -1.32491,-2.437667 -2.96763,-2.437667 -2.56976,0 -5.64386,2.172685 -5.64386,4.610352 M 441.52187,159.64332 c 0,1.13917 0.82137,2.41124 2.96763,2.41124 2.75549,0 5.64386,-2.25194 5.64386,-4.58393 0,-1.56347 -1.3249,-2.43767 -2.96763,-2.43767 -2.57056,0 -5.64386,2.17269 -5.64386,4.61036 M 661.27533,14.032074 c 0,1.139419 0.82136,2.411329 2.96763,2.411329 2.75628,0 5.64386,-2.25234 5.64386,-4.584174 0,-1.563389 -1.32491,-2.4378271 -2.96763,-2.4378271 -2.56976,0 -5.64386,2.1728461 -5.64386,4.6106721 m -422.72184,9.928069 c 0,1.139179 0.82137,2.411248 2.96763,2.411248 2.75549,0 5.64386,-2.251939 5.64386,-4.584094 0,-1.563389 -1.3249,-2.437827 -2.96763,-2.437827 -2.57055,0 -5.64386,2.172846 -5.64386,4.610673 m 391.9576,56.259267 c 0,1.139179 0.82137,2.411249 2.96763,2.411249 2.75549,0 5.64386,-2.252741 5.64386,-4.584735 0,-1.563469 -1.3249,-2.437667 -2.96763,-2.437667 -2.57055,0 -5.64386,2.172686 -5.64386,4.611153 m -163.54542,82.73337 c 0,1.13918 0.82136,2.41125 2.96843,2.41125 2.75548,0 5.64386,-2.25194 5.64386,-4.58394 0,-1.56347 -1.32491,-2.43766 -2.96763,-2.43766 -2.57056,0 -5.64466,2.17268 -5.64466,4.61035 M 596.09556,84.69447 c -0.87419,0 -1.05992,-0.71569 -1.05992,-0.954253 0,-1.298488 4.45184,-3.576846 5.69749,-3.576846 0.63564,0 1.05993,0.370654 1.05993,0.953452 0,1.324906 -4.47826,3.577647 -5.6975,3.577647 m 3.6569,-5.77675 c -2.57055,0 -5.64386,2.146267 -5.64386,4.610352 0,1.13998 0.82137,2.412049 2.96763,2.412049 2.75549,0 5.64386,-2.25274 5.64386,-4.584734 0,-1.563469 -1.3249,-2.437667 -2.96763,-2.437667 m -107.34219,80.7256 c 0,1.13917 0.82136,2.41124 2.96763,2.41124 2.75628,0 5.64386,-2.25194 5.64386,-4.58393 0,-1.56347 -1.32491,-2.43767 -2.96763,-2.43767 -2.56976,0 -5.64386,2.17269 -5.64386,4.61036 M 56.156784,83.528072 c 0,1.13998 0.821362,2.412049 2.967629,2.412049 2.755484,0 5.643859,-2.25274 5.643859,-4.584734 0,-1.563469 -1.324906,-2.437667 -2.967629,-2.437667 -2.570557,0 -5.643859,2.172685 -5.643859,4.610352 m 24.268591,6.618926 c 0,1.139179 0.821361,2.411248 2.967629,2.411248 2.755484,0 5.643859,-2.251939 5.643859,-4.583934 0,-1.563469 -1.324906,-2.437667 -2.967629,-2.437667 -2.570558,0 -5.643859,2.172686 -5.643859,4.610353 M 560.37514,86.837535 c 0,1.139979 0.82136,2.411249 2.96763,2.411249 2.75628,0 5.64386,-2.25194 5.64386,-4.583935 0,-1.563469 -1.32491,-2.437666 -2.96763,-2.437666 -2.56976,0 -5.64386,2.172685 -5.64386,4.610352 M 196.36305,35.054128 c -0.8742,0 -1.05993,-0.715689 -1.05993,-0.954252 0,-1.298488 4.45185,-3.576846 5.6975,-3.576846 0.63563,0 1.05992,0.370653 1.05992,0.953452 0,1.324906 -4.47826,3.577646 -5.69749,3.577646 m 3.6569,-5.77675 c -2.57056,0 -5.64386,2.146268 -5.64386,4.611153 0,1.139179 0.82136,2.411249 2.96763,2.411249 2.75548,0 5.64386,-2.25274 5.64386,-4.584735 0,-1.563469 -1.32491,-2.437667 -2.96763,-2.437667 m 336.0866,60.86962 c 0,1.139179 0.82136,2.411248 2.96762,2.411248 2.75629,0 5.64466,-2.251939 5.64466,-4.583934 0,-1.563469 -1.3249,-2.437667 -2.96843,-2.437667 -2.56975,0 -5.64385,2.172686 -5.64385,4.610353 M 96.603636,86.837535 c 0,1.139979 0.821362,2.411249 2.96843,2.411249 2.755484,0 5.643864,-2.25194 5.643864,-4.583935 0,-1.563469 -1.32491,-2.437666 -2.96763,-2.437666 -2.570562,0 -5.644664,2.172685 -5.644664,4.610352 m 423.323844,6.618926 c 0,1.139179 0.82136,2.411248 2.96843,2.411248 2.75549,0 5.64386,-2.251939 5.64386,-4.583934 0,-1.563469 -1.3249,-2.437667 -2.96763,-2.437667 -2.57056,0 -5.64466,2.172686 -5.64466,4.610353 M 112.7827,83.528072 c 0,1.13998 0.82136,2.412049 2.96763,2.412049 2.75628,0 5.64466,-2.25274 5.64466,-4.584734 0,-1.563469 -1.32491,-2.437667 -2.96763,-2.437667 -2.57056,0 -5.64466,2.172685 -5.64466,4.610352 m 390.96572,13.237851 c 0,1.139179 0.82216,2.411249 2.96843,2.411249 2.75548,0 5.64386,-2.25274 5.64386,-4.583934 0,-1.563469 -1.32491,-2.438467 -2.96763,-2.438467 -2.57056,0 -5.64466,2.173486 -5.64466,4.611152 m 14.10565,62.877397 c 0,1.13917 0.82216,2.41124 2.96843,2.41124 2.75548,0 5.64385,-2.25194 5.64385,-4.58393 0,-1.56347 -1.3249,-2.43767 -2.96763,-2.43767 -2.57055,0 -5.64465,2.17269 -5.64465,4.61036 m -30.28391,-59.56793 c 0,1.13918 0.82136,2.41124 2.96763,2.41124 2.75548,0 5.64386,-2.25274 5.64386,-4.583929 0,-1.563469 -1.32491,-2.438468 -2.96763,-2.438468 -2.57056,0 -5.64386,2.173487 -5.64386,4.611157 M 128.96176,86.837535 c 0,1.139979 0.82136,2.411249 2.96763,2.411249 2.75628,0 5.64466,-2.25194 5.64466,-4.583935 0,-1.563469 -1.32491,-2.437666 -2.96843,-2.437666 -2.56976,0 -5.64386,2.172685 -5.64386,4.610352 m 23.08699,-51.783407 c -0.8742,0 -1.05993,-0.715689 -1.05993,-0.954252 0,-1.298488 4.45185,-3.576846 5.6975,-3.576846 0.63563,0 1.05992,0.370653 1.05992,0.953452 0,1.324906 -4.47826,3.577646 -5.69749,3.577646 m 3.6569,-5.77675 c -2.57056,0 -5.64386,2.146268 -5.64386,4.611153 0,1.139179 0.82136,2.411249 2.96763,2.411249 2.75548,0 5.64386,-2.25274 5.64386,-4.584735 0,-1.563469 -1.32491,-2.437667 -2.96763,-2.437667 M 471.3911,103.38485 c 0,1.13918 0.82136,2.41125 2.96763,2.41125 2.75548,0 5.64385,-2.25274 5.64385,-4.58474 0,-1.562665 -1.3249,-2.437664 -2.96762,-2.437664 -2.57056,0 -5.64386,2.172684 -5.64386,4.611154 M 145.14082,90.146998 c 0,1.139179 0.82137,2.411248 2.96763,2.411248 2.75629,0 5.64386,-2.251939 5.64386,-4.583934 0,-1.563469 -1.3249,-2.437667 -2.96763,-2.437667 -2.56975,0 -5.64386,2.172686 -5.64386,4.610353 m 16.17907,3.309463 c 0,1.139179 0.82136,2.411248 2.96763,2.411248 2.75548,0 5.64385,-2.251939 5.64385,-4.583934 0,-1.563469 -1.3249,-2.437667 -2.96762,-2.437667 -2.57056,0 -5.64386,2.172686 -5.64386,4.610353 m 29.9853,-2.143066 c -0.8742,0 -1.05993,-0.715689 -1.05993,-0.954252 0,-1.298488 4.45185,-3.577646 5.6975,-3.577646 0.63563,0 1.05992,0.371454 1.05992,0.954252 0,1.324906 -4.47826,3.577646 -5.69749,3.577646 m 3.6569,-5.77675 c -2.57056,0 -5.64386,2.146268 -5.64386,4.610353 0,1.139179 0.82136,2.411248 2.96763,2.411248 2.75548,0 5.64386,-2.251939 5.64386,-4.583934 0,-1.563469 -1.32491,-2.437667 -2.96763,-2.437667 M 437.65763,80.21941 c 0,1.139179 0.82136,2.411249 2.96763,2.411249 2.75628,0 5.64466,-2.252741 5.64466,-4.584735 0,-1.563469 -1.32491,-2.437667 -2.96843,-2.437667 -2.56976,0 -5.64386,2.172686 -5.64386,4.611153 M 117.19932,35.054128 c -0.8742,0 -1.05993,-0.715689 -1.05993,-0.954252 0,-1.298488 4.45185,-3.576846 5.6975,-3.576846 0.63563,0 1.05992,0.370653 1.05992,0.953452 0,1.324906 -4.47826,3.577646 -5.69749,3.577646 m 3.6569,-5.77675 c -2.57056,0 -5.64386,2.146268 -5.64386,4.611153 0,1.139179 0.82136,2.411249 2.96763,2.411249 2.75548,0 5.64386,-2.25274 5.64386,-4.584735 0,-1.563469 -1.32491,-2.437667 -2.96763,-2.437667 M 566.23675,162.95278 c 0,1.13918 0.82136,2.41125 2.96763,2.41125 2.75628,0 5.64466,-2.25194 5.64466,-4.58394 0,-1.56347 -1.32491,-2.43766 -2.96843,-2.43766 -2.56976,0 -5.64386,2.17268 -5.64386,4.61035 M 393.49864,91.313395 c -0.8742,0 -1.05993,-0.715689 -1.05993,-0.954252 0,-1.298488 4.45185,-3.577646 5.6967,-3.577646 0.63643,0 1.05992,0.371454 1.05992,0.954252 0,1.324906 -4.47826,3.577646 -5.69669,3.577646 m 3.6569,-5.77675 c -2.57056,0 -5.64466,2.146268 -5.64466,4.610353 0,1.139179 0.82136,2.411248 2.96843,2.411248 2.75548,0 5.64386,-2.251939 5.64386,-4.583934 0,-1.563469 -1.32491,-2.437667 -2.96763,-2.437667 M 87.214016,37.197193 c 0,1.13998 0.821362,2.41205 2.967629,2.41205 2.755485,0 5.643859,-2.252741 5.643859,-4.584735 0,-1.563469 -1.324905,-2.437667 -2.967629,-2.437667 -2.570557,0 -5.643859,2.172686 -5.643859,4.610352 m 177.849604,59.56873 c 0,1.139179 0.82216,2.411249 2.96843,2.411249 2.75548,0 5.64386,-2.25274 5.64386,-4.583934 0,-1.563469 -1.32491,-2.438467 -2.96763,-2.438467 -2.57056,0 -5.64466,2.173486 -5.64466,4.611152 M 71.725029,40.506656 c 0,1.13998 0.821362,2.411249 2.96843,2.411249 2.755484,0 5.643855,-2.25194 5.643855,-4.583934 0,-1.563469 -1.324902,-2.437667 -2.967625,-2.437667 -2.570558,0 -5.64466,2.172686 -5.64466,4.610352 M 347.63128,91.313395 c -0.8742,0 -1.05993,-0.715689 -1.05993,-0.954252 0,-1.298488 4.45185,-3.577646 5.6967,-3.577646 0.63643,0 1.05992,0.371454 1.05992,0.954252 0,1.324906 -4.47826,3.577646 -5.69669,3.577646 m 3.6569,-5.77675 c -2.57056,0 -5.64466,2.146268 -5.64466,4.610353 0,1.139179 0.82136,2.411248 2.96843,2.411248 2.75548,0 5.64386,-2.251939 5.64386,-4.583934 0,-1.563469 -1.32491,-2.437667 -2.96763,-2.437667 m -70.0455,7.919816 c 0,1.139179 0.82136,2.411248 2.96843,2.411248 2.75549,0 5.64386,-2.251939 5.64386,-4.583934 0,-1.563469 -1.3249,-2.437667 -2.96763,-2.437667 -2.57056,0 -5.64466,2.172686 -5.64466,4.610353 m 31.77453,-76.115004 c 0,1.139419 0.82136,2.411329 2.96763,2.411329 2.75628,0 5.64466,-2.25234 5.64466,-4.584175 0,-1.563388 -1.32491,-2.437826 -2.96763,-2.437826 -2.57056,0 -5.64466,2.172845 -5.64466,4.610672 M 603.13317,164.11838 c -0.87419,0 -1.05992,-0.71489 -1.05992,-0.95346 0,-1.29848 4.45184,-3.57764 5.6975,-3.57764 0.63563,0 1.05992,0.37145 1.05992,0.95425 0,1.32491 -4.47826,3.57685 -5.6975,3.57685 m 3.65691,-5.77595 c -2.57056,0 -5.64386,2.14626 -5.64386,4.61035 0,1.13918 0.82136,2.41125 2.96763,2.41125 2.75548,0 5.64385,-2.25194 5.64385,-4.58394 0,-1.56347 -1.3249,-2.43766 -2.96762,-2.43766 m -225.62147,16.70822 c 0,0.18573 0.15851,0.34424 0.34423,0.34424 0.13289,0 0.2914,-0.10568 0.31782,-0.21135 0,-0.0264 0.23856,-0.95425 0.26498,-1.03351 0.0264,-0.10647 0.26498,-1.11276 1.21923,-2.67623 1.03351,-1.72277 2.6234,-2.96842 3.9483,-4.82329 1.29849,-1.85487 2.09344,-3.60327 2.09344,-5.93526 0,-2.41125 -0.55638,-4.42543 -1.96135,-6.99518 -0.0793,-0.18573 -0.23856,-0.2914 -0.39707,-0.2914 -0.0528,0 -0.10647,0 -0.13289,0.0264 -0.13209,0.0528 -0.18492,0.15851 -0.18492,0.31782 0,0.0793 0.0264,0.21215 0.0793,0.31782 1.05992,2.46408 1.48341,3.86904 1.48341,5.77675 0,2.1991 -0.76772,3.33828 -1.24485,4.16044 -1.72277,2.94121 -4.50468,4.37179 -5.61744,4.74245 -0.18572,0.08 -0.21214,0.21214 -0.21214,0.2922 v 5.98809 M 661.27533,36.058015 c 0,0.185727 0.15931,0.344235 0.34423,0.344235 0.1329,0 0.2914,-0.105672 0.31782,-0.211345 0,-0.02642 0.23857,-0.954252 0.26498,-1.033506 0.0272,-0.106473 0.26498,-1.112761 1.21924,-2.67623 1.0335,-1.722778 2.62339,-2.96843 3.9483,-4.823298 1.29848,-1.854868 2.09343,-3.603264 2.09343,-5.935258 0,-2.411329 -0.55638,-4.425186 -1.96134,-6.995503 -0.0793,-0.185487 -0.23777,-0.29148 -0.39707,-0.29148 -0.0528,0 -0.10568,0 -0.1329,0.0265 -0.13209,0.053 -0.18492,0.158989 -0.18492,0.317978 0,0.07949 0.0264,0.211985 0.0793,0.317977 1.05993,2.464325 1.48422,3.868726 1.48422,5.77659 0,2.199344 -0.76853,3.338443 -1.24565,4.160605 -1.72278,2.941211 -4.50468,4.371789 -5.61745,4.742442 -0.18572,0.08006 -0.21214,0.212145 -0.21214,0.2922 v 5.988095 m 0,69.496313 c 0,0.18573 0.15931,0.34424 0.34423,0.34424 0.1329,0 0.2914,-0.10567 0.31782,-0.21135 0,-0.0264 0.23857,-0.95425 0.26498,-1.0335 0.0272,-0.10648 0.26498,-1.11276 1.21924,-2.67623 1.0335,-1.72278 2.62339,-2.968431 3.9483,-4.823299 1.29848,-1.854868 2.09343,-3.603264 2.09343,-5.935258 0,-2.411249 -0.55638,-4.425426 -1.96134,-6.995183 -0.0793,-0.185727 -0.23777,-0.291399 -0.39707,-0.291399 -0.0528,0 -0.10568,0 -0.1329,0.02642 -0.13209,0.05284 -0.18492,0.158508 -0.18492,0.317817 0,0.07925 0.0264,0.212145 0.0793,0.317817 1.05993,2.464085 1.48422,3.869046 1.48422,5.77675 0,2.199104 -0.76853,3.338283 -1.24565,4.160445 -1.72278,2.941211 -4.50468,4.371789 -5.61745,4.742442 -0.18572,0.08006 -0.21214,0.212145 -0.21214,0.2922 v 5.988088 m -95.03858,77.76998 c 0,0.18572 0.15931,0.34423 0.34423,0.34423 0.13289,0 0.2922,-0.10567 0.31862,-0.21214 0,-0.0264 0.23856,-0.95345 0.26498,-1.03351 0.0264,-0.10567 0.26498,-1.11276 1.21843,-2.67623 1.03351,-1.72198 2.6234,-2.96763 3.9483,-4.8225 1.29849,-1.85486 2.09344,-3.60326 2.09344,-5.93525 0,-2.41125 -0.55638,-4.42543 -1.96055,-6.99599 -0.0801,-0.18492 -0.23856,-0.2914 -0.39787,-0.2914 -0.0528,0 -0.10567,0 -0.13209,0.0264 -0.13289,0.0536 -0.18572,0.15931 -0.18572,0.31862 0,0.0793 0.0264,0.21134 0.0793,0.31782 1.05992,2.46408 1.48421,3.86824 1.48421,5.77675 0,2.1991 -0.76852,3.33828 -1.24565,4.15964 -1.72197,2.94121 -4.50468,4.37259 -5.61744,4.74324 -0.18573,0.0793 -0.21214,0.21215 -0.21214,0.2914 v 5.9889 M 367.22749,17.340435 v 22.053517 h 0.66202 V 17.340435 Z M 601.14587,162.95203 v 18.74391 h 0.66201 V 162.95203 Z M 391.51129,90.146157 v 20.398783 h 0.66201 V 90.146157 Z M 95.156623,16.262355 V 35.02534 h 0.662013 V 16.262355 Z M 123.15421,9.6098371 V 31.71667 h 0.66201 V 9.6098371 Z M 566.23716,162.95203 v 20.37221 h 0.66202 V 162.95203 Z M 437.65799,80.217801 v 22.053519 h 0.66202 V 80.217801 Z M 158.00366,9.6098371 V 31.71667 h 0.66201 V 9.6098371 Z m 31.31422,80.5363199 v 20.398783 h 0.66202 V 90.146157 Z m 99.86751,-15.971704 v 17.110139 h 0.66201 V 74.174453 Z M 202.31786,9.6098371 V 31.71667 h 0.66218 V 9.6098371 Z M 517.85439,159.64258 v 20.39863 h 0.66217 V 159.64258 Z M 161.31952,93.455604 v 17.055726 h 0.66201 V 93.455604 Z m 318.01337,-14.38265 v 22.139986 h 0.66202 V 79.072954 Z m -334.1924,11.073203 v 18.732813 h 0.66201 V 90.146157 Z M 495.51193,77.44075 v 20.462735 h 0.66217 V 77.44075 Z M 128.9613,86.836702 v 20.410048 h 0.66217 V 86.836702 Z M 511.69112,75.807601 v 18.786437 h 0.66201 V 75.807601 Z m 16.17903,-1.632364 v 17.109355 h 0.66201 V 74.175237 Z m -415.0871,9.352019 v 22.087134 h 0.66217 V 83.527256 Z m 423.32382,6.618901 v 20.398783 h 0.66217 V 90.146157 Z M 96.604021,86.836702 v 18.776908 h 0.662012 V 86.836702 Z m 463.770689,0 v 22.053518 h 0.66202 V 86.836702 Z M 492.4098,159.64258 v 20.39863 h 0.66218 V 159.64258 Z M 80.42499,90.146157 v 17.057283 h 0.662013 V 90.146157 Z M 238.55311,23.959334 V 41.01506 h 0.66201 V 23.959334 Z M 56.156368,83.527256 v 22.053514 h 0.662013 V 83.527256 Z m 537.951872,0 v 22.053514 h 0.66202 V 83.527256 Z m 36.4024,-3.309455 v 22.053519 h 0.66217 V 80.217801 Z M 466.966,162.95203 v 17.08918 h 0.66217 v -17.08918 z m -25.44458,-3.30945 v 20.39863 h 0.66217 V 159.64258 Z M 345.64399,90.146157 V 110.54494 H 346.306 V 90.146157 Z M 661.27495,14.031141 v 22.026938 h 0.66202 V 14.031141 Z M 273.0062,75.764292 v 18.829746 h 0.66217 V 75.764292 Z m 388.26875,7.762964 v 22.027094 h 0.66202 V 83.527256 Z M 254.04213,20.649729 v 18.777837 h 0.66202 V 20.649729 Z m 377.78144,-9.928038 v 22.053207 h 0.66201 V 10.721691 Z M 416.07761,156.33312 v 23.70809 h 0.66217 V 156.33312 Z M 596.97412,17.340435 v 22.053517 h 0.66217 V 17.340435 Z m -314.93362,0 v 20.398793 h 0.66201 V 17.340435 Z m 15.48809,3.309294 v 17.089499 h 0.66201 V 20.649729 Z M 56.156368,156.33312 v 22.05337 h 0.662013 V 156.33312 Z M 564.2766,17.340435 v 22.053517 h 0.66202 V 17.340435 Z M 94.322461,159.64258 v 17.06839 h 0.662012 V 159.64258 Z M 541.04306,17.340435 v 22.053517 h 0.66217 V 17.340435 Z M 119.76704,156.33312 v 18.76471 h 0.66202 V 156.33312 Z M 525.55497,14.031141 v 23.708087 h 0.66201 V 14.031141 Z M 145.21163,153.02352 v 22.07509 h 0.66217 v -22.07509 z m 235.95665,0 v 22.02709 h 0.66201 v -22.02709 z m -210.51285,3.3096 v 20.40584 h 0.66202 V 156.33312 Z M 494.57769,20.649729 v 17.089499 h 0.66218 V 20.649729 Z M 196.10002,159.64258 v 18.73671 h 0.66217 v -18.73671 z m 25.4438,3.30945 v 17.0676 h 0.66217 v -17.0676 z m 257.545,-145.611595 v 20.398793 h 0.66202 V 17.340435 Z m -166.0712,0 v 20.398793 h 0.66201 V 17.340435 Z m -3.77618,72.805722 v 20.398783 h 0.66202 V 90.146157 Z m 19.26442,-76.115016 v 23.708087 h 0.66202 V 14.031141 Z m 106.2686,-3.30945 v 22.053207 h 0.66201 V 10.721691 Z M 332.78551,149.71407 v 22.05352 h 0.66201 v -22.05352 z m 67.1395,-132.373635 v 22.053517 h 0.66201 V 17.340435 Z m -55.93028,0 v 22.053517 h 0.66218 V 17.340435 Z M 302.56172,148.60221 v 22.107 h 0.66201 v -22.107 z m -46.1084,11.04037 v 20.39863 h 0.66201 V 159.64258 Z M 79.667596,17.849377 v 20.48541 h 0.662169 V 17.849377 Z M 510.06594,17.340435 v 20.398793 h 0.66201 V 17.340435 Z M 390.46057,9.2458378 V 36.448658 h 1.19128 V 9.2458378 Z M 179.85329,78.742416 v 27.202514 h 1.19127 V 78.742416 Z M 679.80887,9.2458378 V 36.448658 H 681 V 9.2458378 Z m -494.8976,0 V 36.448658 h 1.19113 V 9.2458378 Z M 679.80887,78.742416 V 105.94493 H 681 V 78.742416 Z m -217.88272,0 v 27.202514 h 1.19128 V 78.742416 Z m -217.61879,0 v 27.202514 h 3.64014 V 78.742416 Z m -3.64046,0 v 27.202514 h 1.19128 V 78.742416 Z m -2.44643,16.910747 c 0,-0.768526 -0.60922,-1.404961 -1.37775,-1.404961 -0.76852,0 -1.37854,0.636435 -1.37854,1.404961 0,0.768525 0.61002,1.40416 1.37854,1.40416 0.76853,0 1.37775,-0.635635 1.37775,-1.40416 m 0,-6.618926 c 0,-0.768526 -0.60922,-1.40416 -1.37775,-1.40416 -0.76852,0 -1.37854,0.635634 -1.37854,1.40416 0,0.768525 0.61002,1.40416 1.37854,1.40416 0.76853,0 1.37775,-0.635635 1.37775,-1.40416 m 439.13907,59.204453 v 27.20266 h 3.64015 v -27.20266 z m -3.63967,0 v 27.20266 H 674.911 V 148.23869 Z M 272.57512,9.2458378 V 36.448658 h 1.19128 V 9.2458378 Z m -166.82766,0 V 36.448658 h 1.19128 V 9.2458378 Z M 591.68127,148.23869 v 27.20266 h 1.19129 V 148.23869 Z M 256.79237,95.653163 c 0,-0.768526 -0.60922,-1.404961 -1.37775,-1.404961 -0.76852,0 -1.37774,0.636435 -1.37774,1.404961 0,0.768525 0.60922,1.40416 1.37774,1.40416 0.76853,0 1.37775,-0.635635 1.37775,-1.40416 m 0,-6.618926 c 0,-0.768526 -0.60922,-1.40416 -1.37775,-1.40416 -0.76852,0 -1.37774,0.635634 -1.37774,1.40416 0,0.768525 0.60922,1.40416 1.37774,1.40416 0.76853,0 1.37775,-0.635635 1.37775,-1.40416 m -6.39554,-10.291821 v 27.202514 h 1.19113 V 78.742416 Z m -6.08947,0 v 27.202514 h 3.64014 V 78.742416 Z m 162.30503,69.496274 v 27.20266 h 1.19128 V 148.23869 Z M 587.50968,9.2458378 V 36.448658 h 1.19127 V 9.2458378 Z M 382.04685,78.742416 v 27.202514 h 1.19112 V 78.742416 Z M 469.62422,9.2458378 V 36.448658 h 1.19129 V 9.2458378 Z m -169.848,69.4965782 v 27.202514 h 1.19113 V 78.742416 Z m -52.78734,69.496274 v 27.20266 H 248.18 V 148.23869 Z M 584.6438,78.742416 v 27.202514 h 1.19113 V 78.742416 Z M 0,174.7132 v 0.72768 h 681 v -0.72768 z m 0,-6.61812 v 0.72768 h 681 v -0.72768 z m 0,-6.6189 v 0.72768 h 681 v -0.72768 z m 0,-6.6189 v 0.72768 h 681 v -0.72768 z m 0,-6.61891 v 0.72769 h 681 v -0.72769 z m 0,-43.02144 v 0.72769 h 681 v -0.72769 z m 0,-6.618121 v 0.727681 h 681 v -0.727681 z m 0,-6.618902 v 0.727682 h 681 v -0.727682 z m 0,-6.619054 v 0.727842 h 681 v -0.727842 z m 0,-6.618901 v 0.727681 H 681 V 78.741952 Z M 0,35.720656 v 0.727689 h 681 v -0.727689 z m 0,-6.618269 v 0.727841 h 681 v -0.727841 z m 0,-6.61906 v 0.727685 h 681 v -0.727685 z m 0,-6.618588 v 0.727684 H 681 V 15.864739 Z M 0,9.2459947 V 9.9736795 H 681 V 9.2459947 Z"
     style="stroke-width:0.0800547" />
  <metadata
     id="metadata199">
    <rdf:RDF>
      <cc:Work
         rdf:about="">
        <dc:title>air_XX</dc:title>
      </cc:Work>
    </rdf:RDF>
  </metadata>
</svg>
