<?xml version="1.0" encoding="UTF-8" standalone="no"?>
<svg width="210.058mm" height="296.926mm" viewBox="0 0 9924 14028"
 xmlns="http://www.w3.org/2000/svg" xmlns:xlink="http://www.w3.org/1999/xlink" version="1.2" baseProfile="full">
<title>air_LXV</title>
<desc>Generated by MuseScore Studio 4.7.3</desc>
<polyline class="StaffLines" fill="none" stroke="#000000" stroke-width="9.09" stroke-linejoin="bevel" points="708.661,832.677 9215.34,832.677" />
<polyline class="StaffLines" fill="none" stroke="#000000" stroke-width="9.09" stroke-linejoin="bevel" points="708.661,915.354 9215.34,915.354" />
<polyline class="StaffLines" fill="none" stroke="#000000" stroke-width="9.09" stroke-linejoin="bevel" points="708.661,998.031 9215.34,998.031" />
<polyline class="StaffLines" fill="none" stroke="#000000" stroke-width="9.09" stroke-linejoin="bevel" points="708.661,1080.71 9215.34,1080.71" />
<polyline class="StaffLines" fill="none" stroke="#000000" stroke-width="9.09" stroke-linejoin="bevel" points="708.661,1163.39 9215.34,1163.39" />
<polyline class="BarLine" fill="none" stroke="#000000" stroke-width="14.88" stroke-linejoin="bevel" points="3096.01,828.13 3096.01,1167.93" />
<polyline class="BarLine" fill="none" stroke="#000000" stroke-width="14.88" stroke-linejoin="bevel" points="9131.84,828.13 9131.84,1167.93" />
<polyline class="BarLine" fill="none" stroke="#000000" stroke-width="45.47" stroke-linejoin="bevel" points="9192.6,828.13 9192.6,1167.93" />
<polyline class="BarLine" fill="none" stroke="#000000" stroke-width="14.88" stroke-linejoin="bevel" points="8461,828.13 8461,1167.93" />
<polyline class="BarLine" fill="none" stroke="#000000" stroke-width="14.88" stroke-linejoin="bevel" points="7470.92,828.13 7470.92,1167.93" />
<polyline class="BarLine" fill="none" stroke="#000000" stroke-width="14.88" stroke-linejoin="bevel" points="6480.83,828.13 6480.83,1167.93" />
<polyline class="BarLine" fill="none" stroke="#000000" stroke-width="14.88" stroke-linejoin="bevel" points="5259.24,828.13 5259.24,1167.93" />
<polyline class="BarLine" fill="none" stroke="#000000" stroke-width="14.88" stroke-linejoin="bevel" points="2251.24,828.13 2251.24,1167.93" />
<polyline class="BarLine" fill="none" stroke="#000000" stroke-width="14.88" stroke-linejoin="bevel" points="4414.47,828.13 4414.47,1167.93" />
<path class="SlurSegment" stroke="#000000" stroke-width="4.13" stroke-linecap="round" stroke-linejoin="round" fill-rule="evenodd" d="M3260.54,882.283 C3450.57,707.004 4042.96,697.217 4229.27,872.362 C4042.96,723.673 3450.57,733.461 3260.54,882.283"/>
<path class="SlurSegment" stroke="#000000" stroke-width="4.13" stroke-linecap="round" stroke-linejoin="round" fill-rule="evenodd" d="M1425.69,882.283 C1473.26,773.429 1618.56,732.091 1716.31,799.606 C1625.49,756.439 1480.18,797.777 1425.69,882.283"/>
<polyline class="Stem" fill="none" stroke="#000000" stroke-width="8.27" stroke-linejoin="bevel" points="5664.78,970.582 5664.78,1205.15" />
<polyline class="Stem" fill="none" stroke="#000000" stroke-width="8.27" stroke-linejoin="bevel" points="5858.53,1011.92 5858.53,1224.97" />
<polyline class="Stem" fill="none" stroke="#000000" stroke-width="8.27" stroke-linejoin="bevel" points="8575.92,970.582 8575.92,1225.39" />
<polyline class="Stem" fill="none" stroke="#000000" stroke-width="8.27" stroke-linejoin="bevel" points="3404.67,1011.92 3404.67,1224.97" />
<polyline class="Stem" fill="none" stroke="#000000" stroke-width="8.27" stroke-linejoin="bevel" points="8167.07,887.905 8167.07,1163.39" />
<polyline class="Stem" fill="none" stroke="#000000" stroke-width="8.27" stroke-linejoin="bevel" points="3598.42,970.582 3598.42,1183.63" />
<polyline class="Stem" fill="none" stroke="#000000" stroke-width="8.27" stroke-linejoin="bevel" points="7876.45,970.582 7876.45,1225.39" />
<polyline class="Stem" fill="none" stroke="#000000" stroke-width="8.27" stroke-linejoin="bevel" points="7585.84,929.244 7585.84,1204.72" />
<polyline class="Stem" fill="none" stroke="#000000" stroke-width="8.27" stroke-linejoin="bevel" points="3792.16,887.905 3792.16,1163.81" />
<polyline class="Stem" fill="none" stroke="#000000" stroke-width="8.27" stroke-linejoin="bevel" points="1376.08,970.582 1376.08,1225.39" />
<polyline class="Stem" fill="none" stroke="#000000" stroke-width="8.27" stroke-linejoin="bevel" points="3985.91,929.244 3985.91,1163.81" />
<polyline class="Stem" fill="none" stroke="#000000" stroke-width="8.27" stroke-linejoin="bevel" points="7176.99,970.582 7176.99,1225.39" />
<polyline class="Stem" fill="none" stroke="#000000" stroke-width="8.27" stroke-linejoin="bevel" points="6886.37,1011.92 6886.37,1246.06" />
<polyline class="Stem" fill="none" stroke="#000000" stroke-width="8.27" stroke-linejoin="bevel" points="4179.65,970.582 4179.65,1183.63" />
<polyline class="Stem" fill="none" stroke="#000000" stroke-width="8.27" stroke-linejoin="bevel" points="6694.97,1026.14 6694.97,770.669" />
<polyline class="Stem" fill="none" stroke="#000000" stroke-width="8.27" stroke-linejoin="bevel" points="2802.08,1011.92 2802.08,1246.06" />
<polyline class="Stem" fill="none" stroke="#000000" stroke-width="8.27" stroke-linejoin="bevel" points="1666.69,887.905 1666.69,1163.39" />
<polyline class="Stem" fill="none" stroke="#000000" stroke-width="8.27" stroke-linejoin="bevel" points="4529.39,1011.92 4529.39,1246.06" />
<polyline class="Stem" fill="none" stroke="#000000" stroke-width="8.27" stroke-linejoin="bevel" points="6345.23,1067.48 6345.23,749.577" />
<polyline class="Stem" fill="none" stroke="#000000" stroke-width="8.27" stroke-linejoin="bevel" points="4965.32,1011.92 4965.32,1246.06" />
<polyline class="Stem" fill="none" stroke="#000000" stroke-width="8.27" stroke-linejoin="bevel" points="2366.16,929.244 2366.16,1204.72" />
<polyline class="Stem" fill="none" stroke="#000000" stroke-width="8.27" stroke-linejoin="bevel" points="6151.49,943.464 6151.49,729.753" />
<polyline class="Stem" fill="none" stroke="#000000" stroke-width="8.27" stroke-linejoin="bevel" points="1957.31,846.567 1957.31,1122.05" />
<polyline class="Stem" fill="none" stroke="#000000" stroke-width="8.27" stroke-linejoin="bevel" points="5374.17,970.582 5374.17,1225.39" />
<polyline class="Stem" fill="none" stroke="#000000" stroke-width="8.27" stroke-linejoin="bevel" points="3210.93,970.582 3210.93,1205.15" />
<path class="Note" d="M2797.95,1011.93 C2797.95,1026.17 2808.21,1042.05 2835.02,1042.05 C2869.45,1042.05 2905.52,1013.92 2905.52,984.791 C2905.52,965.262 2888.97,954.339 2868.45,954.339 C2836.35,954.339 2797.95,981.481 2797.95,1011.93"/>
<path class="Note" d="M3400.54,1011.93 C3400.54,1026.17 3410.8,1042.05 3437.61,1042.05 C3472.04,1042.05 3508.12,1013.92 3508.12,984.791 C3508.12,965.262 3491.57,954.339 3471.04,954.339 C3438.94,954.339 3400.54,981.481 3400.54,1011.93"/>
<path class="Note" d="M4961.19,1011.93 C4961.19,1026.17 4971.45,1042.05 4998.26,1042.05 C5032.68,1042.05 5068.76,1013.92 5068.76,984.791 C5068.76,965.262 5052.21,954.339 5031.69,954.339 C4999.58,954.339 4961.19,981.481 4961.19,1011.93"/>
<path class="Note" d="M5370.03,970.595 C5370.03,984.828 5380.29,1000.72 5407.1,1000.72 C5441.53,1000.72 5477.61,972.581 5477.61,943.453 C5477.61,923.924 5461.06,913.001 5440.53,913.001 C5408.43,913.001 5370.03,940.143 5370.03,970.595"/>
<path class="Note" d="M5854.39,1011.93 C5854.39,1026.17 5864.65,1042.05 5891.47,1042.05 C5925.89,1042.05 5961.97,1013.92 5961.97,984.791 C5961.97,965.262 5945.42,954.339 5924.9,954.339 C5892.79,954.339 5854.39,981.481 5854.39,1011.93"/>
<path class="Note" d="M1953.18,846.579 C1953.18,860.812 1963.44,876.7 1990.25,876.7 C2024.67,876.7 2060.75,848.565 2060.75,819.437 C2060.75,799.908 2044.2,788.985 2023.68,788.985 C1991.57,788.985 1953.18,816.127 1953.18,846.579"/>
<path class="Note" d="M6048.14,970.595 C6048.14,984.828 6058.4,1000.72 6085.21,1000.72 C6119.64,1000.72 6155.71,972.581 6155.71,943.453 C6155.71,923.924 6139.16,913.001 6118.64,913.001 C6086.54,913.001 6048.14,940.143 6048.14,970.595"/>
<path class="Note" d="M3206.8,970.595 C3206.8,984.828 3217.06,1000.72 3243.87,1000.72 C3278.29,1000.72 3314.37,972.581 3314.37,943.453 C3314.37,923.924 3297.82,913.001 3277.3,913.001 C3245.19,913.001 3206.8,940.143 3206.8,970.595"/>
<path class="Note" d="M4550.08,1026.5 C4539.16,1026.5 4536.84,1017.56 4536.84,1014.58 C4536.84,998.362 4592.45,969.896 4608.01,969.896 C4615.95,969.896 4621.25,974.53 4621.25,981.812 C4621.25,998.362 4565.31,1026.5 4550.08,1026.5 M4595.76,954.339 C4563.65,954.339 4525.26,981.15 4525.26,1011.93 C4525.26,1026.17 4535.52,1042.05 4562.33,1042.05 C4596.75,1042.05 4632.83,1013.92 4632.83,984.791 C4632.83,965.262 4616.28,954.339 4595.76,954.339"/>
<path class="Note" d="M6241.88,1094.61 C6241.88,1108.84 6252.15,1124.73 6278.96,1124.73 C6313.38,1124.73 6349.46,1096.6 6349.46,1067.47 C6349.46,1047.94 6332.91,1037.02 6312.39,1037.02 C6280.28,1037.02 6241.88,1064.16 6241.88,1094.61"/>
<path class="Note" d="M1662.56,887.918 C1662.56,902.151 1672.82,918.039 1699.63,918.039 C1734.06,918.039 1770.13,889.904 1770.13,860.776 C1770.13,841.247 1753.58,830.324 1733.06,830.324 C1700.96,830.324 1662.56,857.466 1662.56,887.918"/>
<path class="Note" d="M2386.85,943.82 C2375.92,943.82 2373.61,934.883 2373.61,931.904 C2373.61,915.685 2429.22,887.219 2444.77,887.219 C2452.72,887.219 2458.01,891.853 2458.01,899.135 C2458.01,915.685 2402.07,943.82 2386.85,943.82 M2432.53,871.662 C2400.42,871.662 2362.02,898.473 2362.02,929.256 C2362.02,943.489 2372.28,959.377 2399.09,959.377 C2433.52,959.377 2469.6,931.242 2469.6,902.114 C2469.6,882.585 2453.05,871.662 2432.53,871.662"/>
<path class="Note" d="M4175.52,970.595 C4175.52,984.828 4185.78,1000.72 4212.59,1000.72 C4247.02,1000.72 4283.1,972.581 4283.1,943.453 C4283.1,923.924 4266.55,913.001 4246.02,913.001 C4213.92,913.001 4175.52,940.143 4175.52,970.595"/>
<path class="Note" d="M6591.62,1053.27 C6591.62,1067.5 6601.88,1083.39 6628.69,1083.39 C6663.12,1083.39 6699.2,1055.26 6699.2,1026.13 C6699.2,1006.6 6682.65,995.678 6662.13,995.678 C6630.02,995.678 6591.62,1022.82 6591.62,1053.27"/>
<path class="Note" d="M8596.61,985.159 C8585.69,985.159 8583.37,976.222 8583.37,973.243 C8583.37,957.024 8638.98,928.558 8654.53,928.558 C8662.48,928.558 8667.77,933.192 8667.77,940.474 C8667.77,957.024 8611.84,985.159 8596.61,985.159 M8642.29,913.001 C8610.18,913.001 8571.78,939.812 8571.78,970.595 C8571.78,984.828 8582.05,1000.72 8608.86,1000.72 C8643.28,1000.72 8679.36,972.581 8679.36,943.453 C8679.36,923.924 8662.81,913.001 8642.29,913.001"/>
<path class="Note" d="M6882.24,1011.93 C6882.24,1026.17 6892.5,1042.05 6919.31,1042.05 C6953.74,1042.05 6989.81,1013.92 6989.81,984.791 C6989.81,965.262 6973.26,954.339 6952.74,954.339 C6920.64,954.339 6882.24,981.481 6882.24,1011.93"/>
<path class="Note" d="M3981.78,929.256 C3981.78,943.489 3992.04,959.377 4018.85,959.377 C4053.27,959.377 4089.35,931.242 4089.35,902.114 C4089.35,882.585 4072.8,871.662 4052.28,871.662 C4020.17,871.662 3981.78,898.804 3981.78,929.256"/>
<path class="Note" d="M7172.86,970.595 C7172.86,984.828 7183.12,1000.72 7209.93,1000.72 C7244.35,1000.72 7280.43,972.581 7280.43,943.453 C7280.43,923.924 7263.88,913.001 7243.36,913.001 C7211.25,913.001 7172.86,940.143 7172.86,970.595"/>
<path class="Note" d="M1371.94,970.595 C1371.94,984.828 1382.2,1000.72 1409.01,1000.72 C1443.44,1000.72 1479.52,972.581 1479.52,943.453 C1479.52,923.924 1462.97,913.001 1442.44,913.001 C1410.34,913.001 1371.94,940.143 1371.94,970.595"/>
<path class="Note" d="M3788.03,887.918 C3788.03,902.151 3798.29,918.039 3825.1,918.039 C3859.53,918.039 3895.61,889.904 3895.61,860.776 C3895.61,841.247 3879.06,830.324 3858.53,830.324 C3826.43,830.324 3788.03,857.466 3788.03,887.918"/>
<path class="Note" d="M8162.94,887.918 C8162.94,902.151 8173.2,918.039 8200.01,918.039 C8234.43,918.039 8270.51,889.904 8270.51,860.776 C8270.51,841.247 8253.96,830.324 8233.44,830.324 C8201.33,830.324 8162.94,857.466 8162.94,887.918"/>
<path class="Note" d="M7581.7,929.256 C7581.7,943.489 7591.96,959.377 7618.78,959.377 C7653.2,959.377 7689.28,931.242 7689.28,902.114 C7689.28,882.585 7672.73,871.662 7652.21,871.662 C7620.1,871.662 7581.7,898.804 7581.7,929.256"/>
<path class="Note" d="M3594.29,970.595 C3594.29,984.828 3604.55,1000.72 3631.36,1000.72 C3665.78,1000.72 3701.86,972.581 3701.86,943.453 C3701.86,923.924 3685.31,913.001 3664.79,913.001 C3632.68,913.001 3594.29,940.143 3594.29,970.595"/>
<path class="Note" d="M7872.32,970.595 C7872.32,984.828 7882.58,1000.72 7909.39,1000.72 C7943.82,1000.72 7979.9,972.581 7979.9,943.453 C7979.9,923.924 7963.35,913.001 7942.82,913.001 C7910.72,913.001 7872.32,940.143 7872.32,970.595"/>
<path class="Note" d="M5660.65,970.595 C5660.65,984.828 5670.91,1000.72 5697.72,1000.72 C5732.14,1000.72 5768.22,972.581 5768.22,943.453 C5768.22,923.924 5751.67,913.001 5731.15,913.001 C5699.04,913.001 5660.65,940.143 5660.65,970.595"/>
<path class="Clef" d="M909.689,1148.89 C903.069,1150.22 896.78,1150.88 890.491,1150.88 C843.158,1150.88 802.776,1117.78 802.776,1067.8 C802.776,1027.42 831.242,991.338 860.37,966.182 C865.997,961.217 871.293,956.583 876.258,951.618 C879.237,969.492 881.554,985.049 883.871,998.62 C853.75,1007.56 833.228,1039.33 833.228,1070.45 C833.228,1093.62 851.433,1125.39 877.913,1125.39 C880.561,1125.39 883.54,1124.07 883.54,1121.09 C883.54,1118.11 880.23,1116.46 876.258,1113.81 C863.349,1105.86 856.067,1097.26 856.067,1081.04 C856.067,1060.85 870.962,1044.63 890.491,1040 L909.689,1148.89 M880.561,808.626 C883.54,795.386 898.766,760.631 915.978,760.631 C920.943,760.631 928.887,776.85 928.887,799.689 C928.887,834.113 903.4,859.931 880.561,882.439 C878.575,869.199 876.92,856.29 876.92,842.388 C876.92,830.141 877.913,818.887 880.561,808.626 M956.691,1087.66 C956.691,1111.16 947.092,1135.32 923.591,1144.92 C916.64,1105.2 907.703,1052.57 905.386,1038.01 C935.176,1038.01 956.691,1058.2 956.691,1087.66 M811.051,1250.51 C811.051,1272.36 827.932,1301.15 872.617,1301.15 C888.174,1301.15 901.745,1297.18 913.661,1289.9 C931.535,1277.32 936.169,1255.48 936.169,1234.62 C936.169,1221.71 934.183,1206.82 930.873,1187.95 C929.88,1181.33 927.894,1171.4 925.908,1158.49 C958.346,1147.9 982.509,1114.14 982.509,1080.05 C982.509,1030.07 947.092,996.303 898.766,996.303 C895.456,976.443 892.146,956.914 889.167,938.378 C924.253,901.637 948.416,860.262 948.416,807.633 C948.416,777.512 939.148,753.018 933.852,741.102 C925.908,724.221 916.309,712.636 910.351,712.636 C908.034,712.636 897.773,716.608 886.85,729.517 C865.666,754.673 859.708,797.041 859.708,824.845 C859.708,842.719 861.363,858.938 866.99,896.01 C866.659,896.341 849.447,913.884 842.496,919.511 C812.375,947.646 770.669,987.697 770.669,1053.9 C770.669,1115.79 824.622,1164.45 886.188,1164.45 C895.787,1164.45 904.724,1163.46 912.337,1162.13 C918.626,1193.91 922.267,1217.08 922.267,1234.62 C922.267,1269.05 904.724,1287.25 871.293,1287.25 C863.349,1287.25 856.398,1285.6 855.736,1285.6 C855.405,1285.27 854.743,1284.94 854.743,1284.6 C854.743,1283.94 855.405,1283.61 856.398,1283.28 C871.955,1280.96 887.512,1267.72 887.512,1246.54 C887.512,1228.67 873.941,1209.8 849.116,1209.8 C825.946,1209.8 811.051,1228.67 811.051,1250.51"/>
<path class="TimeSig" d="M1163.47,912.032 C1189.95,901.771 1191.61,884.559 1191.61,878.601 L1191.61,876.946 C1191.61,873.967 1190.62,836.564 1133.68,836.564 C1076.75,836.564 1078.41,876.946 1078.41,876.946 L1078.74,876.946 L1078.41,877.608 C1078.41,889.524 1088.01,898.792 1099.92,898.792 C1111.84,898.792 1121.11,889.524 1121.11,877.608 C1121.11,868.009 1113.82,858.741 1104.56,856.755 L1105.55,855.762 C1110.18,852.452 1116.47,850.797 1122.76,850.797 C1136.66,850.797 1151.56,859.072 1151.56,876.946 C1151.56,897.799 1136,900.778 1132.03,901.44 C1128.06,902.102 1109.52,903.426 1105.55,903.426 C1101.58,903.426 1101.25,908.06 1101.25,908.06 L1101.25,914.68 C1101.25,914.68 1101.91,918.321 1105.55,918.652 C1111.18,918.983 1118.79,918.983 1129.38,920.638 C1143.95,922.624 1151.56,932.554 1151.56,955.724 C1151.56,977.901 1136.66,983.859 1122.76,983.859 C1113.49,983.859 1104.89,981.211 1101.25,978.563 C1112.17,977.901 1121.11,968.302 1121.11,957.379 C1121.11,945.463 1111.84,935.864 1099.92,935.864 C1088.01,935.864 1078.41,945.463 1078.41,957.379 C1078.41,984.521 1103.23,998.092 1127.73,998.092 C1159.5,998.092 1193.93,987.169 1193.93,951.09 C1193.93,926.927 1177.38,916.666 1162.81,912.032 L1163.47,912.032 "/>
<path class="TimeSig" d="M1129.24,1122.26 L1129.24,1146.75 L1101.77,1146.75 C1099.45,1146.75 1097.14,1148.74 1097.14,1151.39 L1097.14,1157.68 C1097.14,1160.32 1099.45,1162.31 1101.77,1162.31 L1202.06,1162.31 C1204.71,1162.31 1206.7,1160.32 1206.7,1157.68 L1206.7,1151.39 C1206.7,1148.74 1204.71,1146.75 1202.06,1146.75 L1172.27,1146.75 L1172.27,1122.26 L1202.06,1122.26 C1204.71,1122.26 1206.7,1119.94 1206.7,1117.29 L1206.7,1111.01 C1206.7,1108.69 1204.71,1106.37 1202.06,1106.37 L1172.27,1106.37 L1172.27,1053.74 C1172.27,1051.76 1171.28,1050.1 1169.96,1049.44 L1165.98,1047.45 C1165.32,1047.12 1164.99,1047.12 1164.33,1047.12 C1163.01,1047.12 1161.68,1047.12 1160.69,1048.12 L1130.57,1075.59 C1129.57,1076.58 1129.24,1077.91 1129.24,1079.23 L1129.24,1106.37 L1090.85,1106.37 C1090.85,1106.37 1127.92,1066.65 1166.98,1014.35 C1168.3,1012.7 1168.63,1011.04 1168.63,1009.72 C1168.63,1008.06 1167.97,1006.74 1167.64,1006.41 L1160.36,999.128 C1159.36,998.466 1158.37,997.804 1157.05,997.804 C1155.06,997.804 1110.38,997.804 1107.73,997.804 C1105.41,997.804 1103.76,999.79 1103.43,1001.78 C1103.43,1001.78 1101.77,1026.27 1093.16,1053.08 C1084.56,1079.89 1074.63,1096.44 1066.02,1108.69 C1066.02,1108.69 1065.03,1110.34 1065.03,1112.33 C1065.03,1112.99 1065.03,1113.65 1065.36,1114.32 C1066.35,1116.63 1068.67,1120.27 1068.67,1120.27 C1068.67,1120.27 1069.33,1122.26 1072.31,1122.26 L1129.24,1122.26 "/>
<path class="Beam" fill-rule="evenodd" d="M3594.29,1163.28 L3796.3,1142.61 L3796.3,1184.16 L3594.29,1204.83 L3594.29,1163.28 "/>
<path class="Beam" fill-rule="evenodd" d="M3206.8,1183.95 L3408.81,1204.62 L3408.81,1246.17 L3206.8,1225.5 L3206.8,1183.95 "/>
<path class="Beam" fill-rule="evenodd" d="M3981.78,1142.61 L4183.79,1163.28 L4183.79,1204.83 L3981.78,1184.16 L3981.78,1142.61 "/>
<path class="Beam" fill-rule="evenodd" d="M6147.35,708.553 L6349.36,729.223 L6349.36,770.777 L6147.35,750.108 L6147.35,708.553 "/>
<path class="Beam" fill-rule="evenodd" d="M5660.65,1183.95 L5862.66,1204.62 L5862.66,1246.17 L5660.65,1225.5 L5660.65,1183.95 "/>
<path class="NoteDot" d="M8720.62,956.693 C8720.62,965.961 8727.9,973.243 8737.17,973.243 C8746.43,973.243 8753.72,965.961 8753.72,956.693 C8753.72,947.425 8746.43,940.143 8737.17,940.143 C8727.9,940.143 8720.62,947.425 8720.62,956.693"/>
</svg>
