<?xml version="1.0" encoding="UTF-8" standalone="no"?>
<svg width="210.058mm" height="296.926mm" viewBox="0 0 9924 14028"
 xmlns="http://www.w3.org/2000/svg" xmlns:xlink="http://www.w3.org/1999/xlink" version="1.2" baseProfile="full">
<title>air_LXVI</title>
<desc>Generated by MuseScore Studio 4.7.3</desc>
<polyline class="StaffLines" fill="none" stroke="#000000" stroke-width="9.09" stroke-linejoin="bevel" points="708.661,828.424 9215.34,828.424" />
<polyline class="StaffLines" fill="none" stroke="#000000" stroke-width="9.09" stroke-linejoin="bevel" points="708.661,911.101 9215.34,911.101" />
<polyline class="StaffLines" fill="none" stroke="#000000" stroke-width="9.09" stroke-linejoin="bevel" points="708.661,993.778 9215.34,993.778" />
<polyline class="StaffLines" fill="none" stroke="#000000" stroke-width="9.09" stroke-linejoin="bevel" points="708.661,1076.46 9215.34,1076.46" />
<polyline class="StaffLines" fill="none" stroke="#000000" stroke-width="9.09" stroke-linejoin="bevel" points="708.661,1159.13 9215.34,1159.13" />
<polyline class="StaffLines" fill="none" stroke="#000000" stroke-width="9.09" stroke-linejoin="bevel" points="708.661,1696.53 9215.34,1696.53" />
<polyline class="StaffLines" fill="none" stroke="#000000" stroke-width="9.09" stroke-linejoin="bevel" points="708.661,1779.21 9215.34,1779.21" />
<polyline class="StaffLines" fill="none" stroke="#000000" stroke-width="9.09" stroke-linejoin="bevel" points="708.661,1861.89 9215.34,1861.89" />
<polyline class="StaffLines" fill="none" stroke="#000000" stroke-width="9.09" stroke-linejoin="bevel" points="708.661,1944.57 9215.34,1944.57" />
<polyline class="StaffLines" fill="none" stroke="#000000" stroke-width="9.09" stroke-linejoin="bevel" points="708.661,2027.24 9215.34,2027.24" />
<polyline class="StaffLines" fill="none" stroke="#000000" stroke-width="9.09" stroke-linejoin="bevel" points="708.661,2564.64 9215.34,2564.64" />
<polyline class="StaffLines" fill="none" stroke="#000000" stroke-width="9.09" stroke-linejoin="bevel" points="708.661,2647.32 9215.34,2647.32" />
<polyline class="StaffLines" fill="none" stroke="#000000" stroke-width="9.09" stroke-linejoin="bevel" points="708.661,2730 9215.34,2730" />
<polyline class="StaffLines" fill="none" stroke="#000000" stroke-width="9.09" stroke-linejoin="bevel" points="708.661,2812.68 9215.34,2812.68" />
<polyline class="StaffLines" fill="none" stroke="#000000" stroke-width="9.09" stroke-linejoin="bevel" points="708.661,2895.35 9215.34,2895.35" />
<polyline class="BarLine" fill="none" stroke="#000000" stroke-width="14.88" stroke-linejoin="bevel" points="6431.07,823.876 6431.07,1163.68" />
<polyline class="BarLine" fill="none" stroke="#000000" stroke-width="14.88" stroke-linejoin="bevel" points="9131.84,2560.1 9131.84,2899.9" />
<polyline class="BarLine" fill="none" stroke="#000000" stroke-width="45.47" stroke-linejoin="bevel" points="9192.6,2560.1 9192.6,2899.9" />
<polyline class="BarLine" fill="none" stroke="#000000" stroke-width="14.88" stroke-linejoin="bevel" points="6190.76,1691.99 6190.76,2031.79" />
<polyline class="BarLine" fill="none" stroke="#000000" stroke-width="14.88" stroke-linejoin="bevel" points="7759,823.876 7759,1163.68" />
<polyline class="BarLine" fill="none" stroke="#000000" stroke-width="14.88" stroke-linejoin="bevel" points="8281.02,2560.1 8281.02,2899.9" />
<polyline class="BarLine" fill="none" stroke="#000000" stroke-width="14.88" stroke-linejoin="bevel" points="9207.9,823.876 9207.9,1163.68" />
<polyline class="BarLine" fill="none" stroke="#000000" stroke-width="14.88" stroke-linejoin="bevel" points="1842.42,823.876 1842.42,1163.68" />
<polyline class="BarLine" fill="none" stroke="#000000" stroke-width="14.88" stroke-linejoin="bevel" points="2934.32,1691.99 2934.32,2031.79" />
<polyline class="BarLine" fill="none" stroke="#000000" stroke-width="14.88" stroke-linejoin="bevel" points="4442.89,1691.99 4442.89,2031.79" />
<polyline class="BarLine" fill="none" stroke="#000000" stroke-width="14.88" stroke-linejoin="bevel" points="6955.81,2560.1 6955.81,2899.9" />
<path class="BarLine" d="M5447.96,1820.55 C5447.96,1810.95 5440.35,1803.01 5430.75,1803.01 C5421.15,1803.01 5413.54,1810.95 5413.54,1820.55 C5413.54,1830.15 5421.15,1838.09 5430.75,1838.09 C5440.35,1838.09 5447.96,1830.15 5447.96,1820.55"/>
<path class="BarLine" d="M5447.96,1903.23 C5447.96,1893.63 5440.35,1885.68 5430.75,1885.68 C5421.15,1885.68 5413.54,1893.63 5413.54,1903.23 C5413.54,1912.83 5421.15,1920.77 5430.75,1920.77 C5440.35,1920.77 5447.96,1912.83 5447.96,1903.23"/>
<polyline class="BarLine" fill="none" stroke="#000000" stroke-width="14.88" stroke-linejoin="bevel" points="5485.97,1691.99 5485.97,2031.79" />
<polyline class="BarLine" fill="none" stroke="#000000" stroke-width="45.47" stroke-linejoin="bevel" points="5546.74,1691.99 5546.74,2031.79" />
<polyline class="BarLine" fill="none" stroke="#000000" stroke-width="14.88" stroke-linejoin="bevel" points="5529.22,2560.1 5529.22,2899.9" />
<polyline class="BarLine" fill="none" stroke="#000000" stroke-width="45.47" stroke-linejoin="bevel" points="5546.74,1691.99 5546.74,2031.79" />
<polyline class="BarLine" fill="none" stroke="#000000" stroke-width="14.88" stroke-linejoin="bevel" points="5607.51,1691.99 5607.51,2031.79" />
<path class="BarLine" d="M5679.96,1820.55 C5679.96,1810.95 5672.34,1803.01 5662.74,1803.01 C5653.15,1803.01 5645.53,1810.95 5645.53,1820.55 C5645.53,1830.15 5653.15,1838.09 5662.74,1838.09 C5672.34,1838.09 5679.96,1830.15 5679.96,1820.55"/>
<path class="BarLine" d="M5679.96,1903.23 C5679.96,1893.63 5672.34,1885.68 5662.74,1885.68 C5653.15,1885.68 5645.53,1893.63 5645.53,1903.23 C5645.53,1912.83 5653.15,1920.77 5662.74,1920.77 C5672.34,1920.77 5679.96,1912.83 5679.96,1903.23"/>
<polyline class="BarLine" fill="none" stroke="#000000" stroke-width="14.88" stroke-linejoin="bevel" points="4102.62,2560.1 4102.62,2899.9" />
<polyline class="BarLine" fill="none" stroke="#000000" stroke-width="14.88" stroke-linejoin="bevel" points="4861.19,823.876 4861.19,1163.68" />
<polyline class="BarLine" fill="none" stroke="#000000" stroke-width="14.88" stroke-linejoin="bevel" points="7699.33,1691.99 7699.33,2031.79" />
<polyline class="BarLine" fill="none" stroke="#000000" stroke-width="14.88" stroke-linejoin="bevel" points="9207.9,1691.99 9207.9,2031.79" />
<polyline class="BarLine" fill="none" stroke="#000000" stroke-width="14.88" stroke-linejoin="bevel" points="2731.94,2560.1 2731.94,2899.9" />
<polyline class="BarLine" fill="none" stroke="#000000" stroke-width="14.88" stroke-linejoin="bevel" points="3291.32,823.876 3291.32,1163.68" />
<path class="TieSegment" stroke="#000000" stroke-width="4.13" stroke-linecap="round" stroke-linejoin="round" fill-rule="evenodd" d="M8450.84,2873.04 C8512.14,2929.31 8696.06,2929.31 8757.36,2873.04 C8696.06,2954.8 8512.14,2954.8 8450.84,2873.04"/>
<path class="TieSegment" stroke="#000000" stroke-width="4.13" stroke-linecap="round" stroke-linejoin="round" fill-rule="evenodd" d="M4612.71,2004.93 C4685.24,2062.34 4902.83,2062.34 4975.36,2004.93 C4902.83,2088.79 4685.24,2088.79 4612.71,2004.93"/>
<path class="Accidental" d="M3787.44,2638.09 L3787.44,2583.81 L3825.84,2572.88 L3825.84,2627.5 L3787.44,2638.09 M3833.12,2545.41 C3832.46,2544.75 3831.46,2544.42 3830.47,2544.42 C3830.14,2544.42 3829.48,2544.75 3829.15,2544.75 L3787.44,2556.33 L3787.44,2498.41 L3778.17,2498.41 L3778.17,2662.25 C3778.17,2664.9 3780.16,2666.56 3782.81,2666.56 L3784.13,2666.56 L3825.84,2654.97 L3825.84,2712.9 L3834.77,2712.9 L3834.77,2549.05 C3834.77,2547.73 3834.11,2546.07 3833.12,2545.41"/>
<path class="Accidental" d="M3980.71,1961.41 L4010.17,1955.45 L4010.17,2010.07 L3980.71,2016.36 L3980.71,1961.41 M4032.01,1951.15 C4034,1950.82 4035.65,1948.5 4035.65,1946.52 L4035.65,1926.99 C4035.65,1924.34 4033.67,1922.35 4031.02,1922.35 L4030.36,1922.35 L4019.43,1924.67 L4019.43,1875.35 L4010.17,1875.35 L4010.17,1926.66 L3980.71,1932.61 L3980.71,1885.94 L3971.44,1885.94 L3971.44,1934.6 L3958.53,1937.25 C3956.54,1937.58 3954.89,1939.9 3954.89,1941.88 L3954.89,1961.08 C3954.89,1963.73 3956.88,1965.71 3959.52,1965.71 L3960.52,1965.71 L3971.44,1963.4 L3971.44,2018.01 L3958.53,2020.66 C3956.54,2020.99 3954.89,2023.31 3954.89,2025.29 L3954.89,2044.49 C3954.89,2047.14 3956.88,2049.13 3959.52,2049.13 L3960.52,2049.13 L3971.44,2046.81 L3971.44,2096.13 L3980.71,2096.13 L3980.71,2044.82 L4010.17,2038.86 L4010.17,2085.54 L4019.43,2085.54 L4019.43,2036.88 L4032.01,2034.56 C4034,2034.23 4035.65,2031.91 4035.65,2029.93 L4035.65,2010.4 C4035.65,2007.75 4033.67,2005.76 4031.02,2005.76 L4030.36,2005.76 L4019.43,2008.08 L4019.43,1953.47 L4032.01,1951.15 "/>
<path class="Accidental" d="M2818.94,2540.15 L2848.4,2534.19 L2848.4,2588.81 L2818.94,2595.1 L2818.94,2540.15 M2870.24,2529.89 C2872.23,2529.56 2873.88,2527.24 2873.88,2525.26 L2873.88,2505.73 C2873.88,2503.08 2871.9,2501.09 2869.25,2501.09 L2868.59,2501.09 L2857.67,2503.41 L2857.67,2454.09 L2848.4,2454.09 L2848.4,2505.4 L2818.94,2511.35 L2818.94,2464.68 L2809.67,2464.68 L2809.67,2513.34 L2796.76,2515.99 C2794.78,2516.32 2793.12,2518.64 2793.12,2520.62 L2793.12,2539.82 C2793.12,2542.47 2795.11,2544.45 2797.75,2544.45 L2798.75,2544.45 L2809.67,2542.14 L2809.67,2596.75 L2796.76,2599.4 C2794.78,2599.73 2793.12,2602.05 2793.12,2604.03 L2793.12,2623.23 C2793.12,2625.88 2795.11,2627.87 2797.75,2627.87 L2798.75,2627.87 L2809.67,2625.55 L2809.67,2674.87 L2818.94,2674.87 L2818.94,2623.56 L2848.4,2617.6 L2848.4,2664.28 L2857.67,2664.28 L2857.67,2615.62 L2870.24,2613.3 C2872.23,2612.97 2873.88,2610.65 2873.88,2608.67 L2873.88,2589.14 C2873.88,2586.49 2871.9,2584.5 2869.25,2584.5 L2868.59,2584.5 L2857.67,2586.82 L2857.67,2532.21 L2870.24,2529.89 "/>
<path class="Accidental" d="M8872.12,1672.04 L8901.57,1666.08 L8901.57,1720.7 L8872.12,1726.99 L8872.12,1672.04 M8923.42,1661.78 C8925.41,1661.45 8927.06,1659.13 8927.06,1657.14 L8927.06,1637.62 C8927.06,1634.97 8925.08,1632.98 8922.43,1632.98 L8921.77,1632.98 L8910.84,1635.3 L8910.84,1585.98 L8901.57,1585.98 L8901.57,1637.28 L8872.12,1643.24 L8872.12,1596.57 L8862.85,1596.57 L8862.85,1645.23 L8849.94,1647.88 C8847.95,1648.21 8846.3,1650.52 8846.3,1652.51 L8846.3,1671.71 C8846.3,1674.36 8848.28,1676.34 8850.93,1676.34 L8851.92,1676.34 L8862.85,1674.03 L8862.85,1728.64 L8849.94,1731.29 C8847.95,1731.62 8846.3,1733.94 8846.3,1735.92 L8846.3,1755.12 C8846.3,1757.77 8848.28,1759.75 8850.93,1759.75 L8851.92,1759.75 L8862.85,1757.44 L8862.85,1806.76 L8872.12,1806.76 L8872.12,1755.45 L8901.57,1749.49 L8901.57,1796.16 L8910.84,1796.16 L8910.84,1747.51 L8923.42,1745.19 C8925.41,1744.86 8927.06,1742.54 8927.06,1740.56 L8927.06,1721.03 C8927.06,1718.38 8925.08,1716.39 8922.43,1716.39 L8921.77,1716.39 L8910.84,1718.71 L8910.84,1664.1 L8923.42,1661.78 "/>
<path class="Accidental" d="M7874.97,2829.52 L7904.42,2823.56 L7904.42,2878.18 L7874.97,2884.47 L7874.97,2829.52 M7926.27,2819.26 C7928.26,2818.93 7929.91,2816.61 7929.91,2814.63 L7929.91,2795.1 C7929.91,2792.45 7927.93,2790.46 7925.28,2790.46 L7924.62,2790.46 L7913.69,2792.78 L7913.69,2743.46 L7904.42,2743.46 L7904.42,2794.77 L7874.97,2800.72 L7874.97,2754.05 L7865.7,2754.05 L7865.7,2802.71 L7852.79,2805.36 C7850.8,2805.69 7849.15,2808.01 7849.15,2809.99 L7849.15,2829.19 C7849.15,2831.84 7851.13,2833.82 7853.78,2833.82 L7854.77,2833.82 L7865.7,2831.51 L7865.7,2886.12 L7852.79,2888.77 C7850.8,2889.1 7849.15,2891.42 7849.15,2893.4 L7849.15,2912.6 C7849.15,2915.25 7851.13,2917.24 7853.78,2917.24 L7854.77,2917.24 L7865.7,2914.92 L7865.7,2964.24 L7874.97,2964.24 L7874.97,2912.93 L7904.42,2906.97 L7904.42,2953.65 L7913.69,2953.65 L7913.69,2904.99 L7926.27,2902.67 C7928.26,2902.34 7929.91,2900.02 7929.91,2898.04 L7929.91,2878.51 C7929.91,2875.86 7927.93,2873.87 7925.28,2873.87 L7924.62,2873.87 L7913.69,2876.19 L7913.69,2821.58 L7926.27,2819.26 "/>
<polyline class="LedgerLine" fill="none" stroke="#000000" stroke-width="13.23" stroke-linejoin="bevel" points="1655.88,2481.97 1817.94,2481.97" />
<polyline class="LedgerLine" fill="none" stroke="#000000" stroke-width="13.23" stroke-linejoin="bevel" points="2034.96,2481.97 2197.02,2481.97" />
<polyline class="LedgerLine" fill="none" stroke="#000000" stroke-width="13.23" stroke-linejoin="bevel" points="2250.33,2481.97 2412.39,2481.97" />
<polyline class="Stem" fill="none" stroke="#000000" stroke-width="8.27" stroke-linejoin="bevel" points="5955.94,1751.76 5955.94,2007.06" />
<polyline class="Stem" fill="none" stroke="#000000" stroke-width="8.27" stroke-linejoin="bevel" points="8166.25,1890 8166.25,1634.53" />
<polyline class="Stem" fill="none" stroke="#000000" stroke-width="8.27" stroke-linejoin="bevel" points="8951.8,1710.42 8951.8,1985.9" />
<polyline class="Stem" fill="none" stroke="#000000" stroke-width="8.27" stroke-linejoin="bevel" points="7008.11,1187.24 7008.11,911.101" />
<polyline class="Stem" fill="none" stroke="#000000" stroke-width="8.27" stroke-linejoin="bevel" points="8818.21,2799.45 8818.21,2523.31" />
<polyline class="Stem" fill="none" stroke="#000000" stroke-width="8.27" stroke-linejoin="bevel" points="7250.05,1187.24 7250.05,911.101" />
<polyline class="Stem" fill="none" stroke="#000000" stroke-width="8.27" stroke-linejoin="bevel" points="8495.15,2799.45 8495.15,2523.31" />
<polyline class="Stem" fill="none" stroke="#000000" stroke-width="8.27" stroke-linejoin="bevel" points="7612.96,1021.89 7612.96,766.416" />
<polyline class="Stem" fill="none" stroke="#000000" stroke-width="8.27" stroke-linejoin="bevel" points="1696.38,1021.89 1696.38,766.416" />
<polyline class="Stem" fill="none" stroke="#000000" stroke-width="8.27" stroke-linejoin="bevel" points="8053.87,2840.79 8053.87,2564.64" />
<polyline class="Stem" fill="none" stroke="#000000" stroke-width="8.27" stroke-linejoin="bevel" points="6185.82,1007.67 6185.82,1241.81" />
<polyline class="Stem" fill="none" stroke="#000000" stroke-width="8.27" stroke-linejoin="bevel" points="7873.92,1007.67 7873.92,1241.81" />
<polyline class="Stem" fill="none" stroke="#000000" stroke-width="8.27" stroke-linejoin="bevel" points="7816.06,2758.11 7816.06,2502.64" />
<polyline class="Stem" fill="none" stroke="#000000" stroke-width="8.27" stroke-linejoin="bevel" points="8236.83,1007.67 8236.83,1241.81" />
<polyline class="Stem" fill="none" stroke="#000000" stroke-width="8.27" stroke-linejoin="bevel" points="7600.69,2799.45 7600.69,2523.31" />
<polyline class="Stem" fill="none" stroke="#000000" stroke-width="8.27" stroke-linejoin="bevel" points="8478.77,1007.67 8478.77,1241.81" />
<polyline class="Stem" fill="none" stroke="#000000" stroke-width="8.27" stroke-linejoin="bevel" points="7385.32,2758.11 7385.32,2502.64" />
<polyline class="Stem" fill="none" stroke="#000000" stroke-width="8.27" stroke-linejoin="bevel" points="8720.71,966.329 8720.71,1221.14" />
<polyline class="Stem" fill="none" stroke="#000000" stroke-width="8.27" stroke-linejoin="bevel" points="7070.73,2743.89 7070.73,2978.03" />
<polyline class="Stem" fill="none" stroke="#000000" stroke-width="8.27" stroke-linejoin="bevel" points="8962.65,924.991 8962.65,1200.47" />
<polyline class="Stem" fill="none" stroke="#000000" stroke-width="8.27" stroke-linejoin="bevel" points="1957.34,1007.67 1957.34,1241.81" />
<polyline class="Stem" fill="none" stroke="#000000" stroke-width="8.27" stroke-linejoin="bevel" points="6820.21,2758.11 6820.21,2502.64" />
<polyline class="Stem" fill="none" stroke="#000000" stroke-width="8.27" stroke-linejoin="bevel" points="6043.09,1021.89 6043.09,766.416" />
<polyline class="Stem" fill="none" stroke="#000000" stroke-width="8.27" stroke-linejoin="bevel" points="6604.84,2799.45 6604.84,2523.31" />
<polyline class="Stem" fill="none" stroke="#000000" stroke-width="8.27" stroke-linejoin="bevel" points="6389.47,2840.79 6389.47,2564.64" />
<polyline class="Stem" fill="none" stroke="#000000" stroke-width="8.27" stroke-linejoin="bevel" points="1414.27,1834.44 1414.27,2089.25" />
<polyline class="Stem" fill="none" stroke="#000000" stroke-width="8.27" stroke-linejoin="bevel" points="6174.09,2840.79 6174.09,2564.64" />
<polyline class="Stem" fill="none" stroke="#000000" stroke-width="8.27" stroke-linejoin="bevel" points="1766.27,1890 1766.27,1634.53" />
<polyline class="Stem" fill="none" stroke="#000000" stroke-width="8.27" stroke-linejoin="bevel" points="5958.72,2758.11 5958.72,2502.64" />
<polyline class="Stem" fill="none" stroke="#000000" stroke-width="8.27" stroke-linejoin="bevel" points="2019.06,1972.68 2019.06,1696.53" />
<polyline class="Stem" fill="none" stroke="#000000" stroke-width="8.27" stroke-linejoin="bevel" points="5644.14,2702.55 5644.14,2957.36" />
<polyline class="Stem" fill="none" stroke="#000000" stroke-width="8.27" stroke-linejoin="bevel" points="2271.85,1972.68 2271.85,1696.53" />
<polyline class="Stem" fill="none" stroke="#000000" stroke-width="8.27" stroke-linejoin="bevel" points="2320.25,1007.67 2320.25,1241.81" />
<polyline class="Stem" fill="none" stroke="#000000" stroke-width="8.27" stroke-linejoin="bevel" points="2524.64,1931.34 2524.64,1655.2" />
<polyline class="Stem" fill="none" stroke="#000000" stroke-width="8.27" stroke-linejoin="bevel" points="5294.4,2661.21 5294.4,2936.69" />
<polyline class="Stem" fill="none" stroke="#000000" stroke-width="8.27" stroke-linejoin="bevel" points="2777.43,1890 2777.43,1634.53" />
<polyline class="Stem" fill="none" stroke="#000000" stroke-width="8.27" stroke-linejoin="bevel" points="5079.03,2619.87 5079.03,2895.35" />
<polyline class="Stem" fill="none" stroke="#000000" stroke-width="8.27" stroke-linejoin="bevel" points="4863.65,2578.53 4863.65,2854.01" />
<polyline class="Stem" fill="none" stroke="#000000" stroke-width="8.27" stroke-linejoin="bevel" points="5801.15,1063.23 5801.15,787.085" />
<polyline class="Stem" fill="none" stroke="#000000" stroke-width="8.27" stroke-linejoin="bevel" points="3049.24,1875.78 3049.24,2109.92" />
<polyline class="Stem" fill="none" stroke="#000000" stroke-width="8.27" stroke-linejoin="bevel" points="4648.28,2578.53 4648.28,2854.01" />
<polyline class="Stem" fill="none" stroke="#000000" stroke-width="8.27" stroke-linejoin="bevel" points="3401.24,1890 3401.24,1634.53" />
<polyline class="Stem" fill="none" stroke="#000000" stroke-width="8.27" stroke-linejoin="bevel" points="4432.91,2537.2 4432.91,2812.68" />
<polyline class="Stem" fill="none" stroke="#000000" stroke-width="8.27" stroke-linejoin="bevel" points="3654.03,1931.34 3654.03,1655.2" />
<polyline class="Stem" fill="none" stroke="#000000" stroke-width="8.27" stroke-linejoin="bevel" points="4217.54,2578.53 4217.54,2854.01" />
<polyline class="Stem" fill="none" stroke="#000000" stroke-width="8.27" stroke-linejoin="bevel" points="3906.82,1890 3906.82,1634.53" />
<polyline class="Stem" fill="none" stroke="#000000" stroke-width="8.27" stroke-linejoin="bevel" points="2562.19,1007.67 2562.19,1241.81" />
<polyline class="Stem" fill="none" stroke="#000000" stroke-width="8.27" stroke-linejoin="bevel" points="4159.61,1972.68 4159.61,1696.53" />
<polyline class="Stem" fill="none" stroke="#000000" stroke-width="8.27" stroke-linejoin="bevel" points="2804.13,966.329 2804.13,1221.14" />
<polyline class="Stem" fill="none" stroke="#000000" stroke-width="8.27" stroke-linejoin="bevel" points="3867.8,2619.87 3867.8,2895.35" />
<polyline class="Stem" fill="none" stroke="#000000" stroke-width="8.27" stroke-linejoin="bevel" points="5559.21,1063.23 5559.21,787.085" />
<polyline class="Stem" fill="none" stroke="#000000" stroke-width="8.27" stroke-linejoin="bevel" points="3544.74,2661.21 3544.74,2936.69" />
<polyline class="Stem" fill="none" stroke="#000000" stroke-width="8.27" stroke-linejoin="bevel" points="4657.02,1931.34 4657.02,1655.2" />
<polyline class="Stem" fill="none" stroke="#000000" stroke-width="8.27" stroke-linejoin="bevel" points="3329.37,2661.21 3329.37,2936.69" />
<polyline class="Stem" fill="none" stroke="#000000" stroke-width="8.27" stroke-linejoin="bevel" points="5036.21,1931.34 5036.21,1655.2" />
<polyline class="Stem" fill="none" stroke="#000000" stroke-width="8.27" stroke-linejoin="bevel" points="3114,2661.21 3114,2936.69" />
<polyline class="Stem" fill="none" stroke="#000000" stroke-width="8.27" stroke-linejoin="bevel" points="2898.63,2578.53 2898.63,2854.01" />
<polyline class="Stem" fill="none" stroke="#000000" stroke-width="8.27" stroke-linejoin="bevel" points="5317.27,1021.89 5317.27,766.416" />
<polyline class="Stem" fill="none" stroke="#000000" stroke-width="8.27" stroke-linejoin="bevel" points="3046.07,924.991 3046.07,1200.47" />
<polyline class="Stem" fill="none" stroke="#000000" stroke-width="8.27" stroke-linejoin="bevel" points="4976.11,1007.67 4976.11,1241.81" />
<polyline class="Stem" fill="none" stroke="#000000" stroke-width="8.27" stroke-linejoin="bevel" points="5787.42,1793.1 5787.42,2026.76" />
<polyline class="Stem" fill="none" stroke="#000000" stroke-width="8.27" stroke-linejoin="bevel" points="2497.12,2537.2 2497.12,2812.68" />
<polyline class="Stem" fill="none" stroke="#000000" stroke-width="8.27" stroke-linejoin="bevel" points="3406.24,966.329 3406.24,1221.14" />
<polyline class="Stem" fill="none" stroke="#000000" stroke-width="8.27" stroke-linejoin="bevel" points="2281.75,2495.86 2281.75,2771.34" />
<polyline class="Stem" fill="none" stroke="#000000" stroke-width="8.27" stroke-linejoin="bevel" points="4715.16,1021.89 4715.16,766.416" />
<polyline class="Stem" fill="none" stroke="#000000" stroke-width="8.27" stroke-linejoin="bevel" points="2066.38,2454.52 2066.38,2730" />
<polyline class="Stem" fill="none" stroke="#000000" stroke-width="8.27" stroke-linejoin="bevel" points="1851.01,2537.2 1851.01,2812.68" />
<polyline class="Stem" fill="none" stroke="#000000" stroke-width="8.27" stroke-linejoin="bevel" points="6305.68,1710.42 6305.68,1985.9" />
<polyline class="Stem" fill="none" stroke="#000000" stroke-width="8.27" stroke-linejoin="bevel" points="3747.4,1021.89 3747.4,766.416" />
<polyline class="Stem" fill="none" stroke="#000000" stroke-width="8.27" stroke-linejoin="bevel" points="6684.86,1710.42 6684.86,1985.9" />
<polyline class="Stem" fill="none" stroke="#000000" stroke-width="8.27" stroke-linejoin="bevel" points="1687.29,2495.86 1687.29,2771.01" />
<polyline class="Stem" fill="none" stroke="#000000" stroke-width="8.27" stroke-linejoin="bevel" points="6937.65,1710.42 6937.65,1985.9" />
<polyline class="Stem" fill="none" stroke="#000000" stroke-width="8.27" stroke-linejoin="bevel" points="8671.83,1972.68 8671.83,1696.53" />
<polyline class="Stem" fill="none" stroke="#000000" stroke-width="8.27" stroke-linejoin="bevel" points="7190.44,1751.76 7190.44,2027.24" />
<polyline class="Stem" fill="none" stroke="#000000" stroke-width="8.27" stroke-linejoin="bevel" points="1414.27,2537.2 1414.27,2812.68" />
<polyline class="Stem" fill="none" stroke="#000000" stroke-width="8.27" stroke-linejoin="bevel" points="7443.23,1793.1 7443.23,2068.58" />
<polyline class="Stem" fill="none" stroke="#000000" stroke-width="8.27" stroke-linejoin="bevel" points="3989.34,1104.57 3989.34,828.424" />
<polyline class="Stem" fill="none" stroke="#000000" stroke-width="8.27" stroke-linejoin="bevel" points="4473.22,1063.23 4473.22,787.085" />
<polyline class="Stem" fill="none" stroke="#000000" stroke-width="8.27" stroke-linejoin="bevel" points="6645.2,1021.89 6645.2,766.416" />
<polyline class="Stem" fill="none" stroke="#000000" stroke-width="8.27" stroke-linejoin="bevel" points="7814.25,1834.44 7814.25,2089.25" />
<polyline class="Stem" fill="none" stroke="#000000" stroke-width="8.27" stroke-linejoin="bevel" points="4231.28,1104.57 4231.28,828.424" />
<polyline class="Stem" fill="none" stroke="#000000" stroke-width="8.27" stroke-linejoin="bevel" points="8419.04,1972.68 8419.04,1696.53" />
<path class="Hook" d="M1683.16,2771.01 C1683.16,2773.32 1685.14,2775.31 1687.46,2775.31 C1689.12,2775.31 1691.1,2773.99 1691.43,2772.66 C1691.43,2772.33 1694.41,2760.75 1694.74,2759.75 C1695.07,2758.43 1698.05,2745.85 1709.97,2726.32 C1722.88,2704.81 1742.74,2689.25 1759.29,2666.08 C1775.51,2642.91 1785.44,2621.06 1785.44,2591.94 C1785.44,2561.81 1778.49,2536.66 1760.94,2504.55 C1759.95,2502.23 1757.96,2500.91 1755.98,2500.91 C1755.32,2500.91 1754.65,2500.91 1754.32,2501.24 C1752.67,2501.9 1752.01,2503.23 1752.01,2505.21 C1752.01,2506.21 1752.34,2507.86 1753,2509.19 C1766.24,2539.97 1771.54,2557.51 1771.54,2581.34 C1771.54,2608.82 1761.94,2623.05 1755.98,2633.31 C1734.46,2670.05 1699.71,2687.93 1685.81,2692.56 C1683.49,2693.55 1683.16,2695.21 1683.16,2696.2 L1683.16,2771.01 "/>
<path class="Note" d="M6566.68,1063.58 C6555.76,1063.58 6553.44,1054.65 6553.44,1051.67 C6553.44,1035.45 6609.05,1006.98 6624.6,1006.98 C6632.55,1006.98 6637.84,1011.62 6637.84,1018.9 C6637.84,1035.45 6581.9,1063.58 6566.68,1063.58 M6612.36,991.425 C6580.25,991.425 6541.85,1018.24 6541.85,1049.02 C6541.85,1063.25 6552.11,1079.14 6578.93,1079.14 C6613.35,1079.14 6649.43,1051 6649.43,1021.88 C6649.43,1002.35 6632.88,991.425 6612.36,991.425"/>
<path class="Note" d="M6181.68,1007.68 C6181.68,1021.91 6191.95,1037.8 6218.76,1037.8 C6253.18,1037.8 6289.26,1009.67 6289.26,980.538 C6289.26,961.009 6272.71,950.086 6252.19,950.086 C6220.08,950.086 6181.68,977.228 6181.68,1007.68"/>
<path class="Note" d="M8062.91,1917.13 C8062.91,1931.36 8073.17,1947.25 8099.98,1947.25 C8134.4,1947.25 8170.48,1919.11 8170.48,1889.99 C8170.48,1870.46 8153.93,1859.53 8133.41,1859.53 C8101.3,1859.53 8062.91,1886.68 8062.91,1917.13"/>
<path class="Note" d="M8593.31,2014.37 C8582.39,2014.37 8580.07,2005.43 8580.07,2002.45 C8580.07,1986.24 8635.68,1957.77 8651.24,1957.77 C8659.18,1957.77 8664.48,1962.4 8664.48,1969.69 C8664.48,1986.24 8608.54,2014.37 8593.31,2014.37 M8638.99,1942.21 C8606.88,1942.21 8568.49,1969.02 8568.49,1999.81 C8568.49,2014.04 8578.75,2029.93 8605.56,2029.93 C8639.98,2029.93 8676.06,2001.79 8676.06,1972.66 C8676.06,1953.14 8659.51,1942.21 8638.99,1942.21"/>
<path class="Note" d="M7810.12,1834.45 C7810.12,1848.68 7820.38,1864.57 7847.19,1864.57 C7881.61,1864.57 7917.69,1836.44 7917.69,1807.31 C7917.69,1787.78 7901.14,1776.86 7880.62,1776.86 C7848.51,1776.86 7810.12,1804 7810.12,1834.45"/>
<path class="Note" d="M4127.93,1131.7 C4127.93,1145.93 4138.19,1161.82 4165,1161.82 C4199.43,1161.82 4235.51,1133.68 4235.51,1104.55 C4235.51,1085.02 4218.96,1074.1 4198.43,1074.1 C4166.33,1074.1 4127.93,1101.24 4127.93,1131.7"/>
<path class="Note" d="M8947.67,1710.44 C8947.67,1724.67 8957.93,1740.56 8984.74,1740.56 C9019.17,1740.56 9055.24,1712.42 9055.24,1683.29 C9055.24,1663.76 9038.69,1652.84 9018.17,1652.84 C8986.07,1652.84 8947.67,1679.98 8947.67,1710.44"/>
<path class="Note" d="M3885.99,1131.7 C3885.99,1145.93 3896.25,1161.82 3923.06,1161.82 C3957.49,1161.82 3993.56,1133.68 3993.56,1104.55 C3993.56,1085.02 3977.01,1074.1 3956.49,1074.1 C3924.39,1074.1 3885.99,1101.24 3885.99,1131.7"/>
<path class="Note" d="M7439.1,1793.11 C7439.1,1807.35 7449.36,1823.23 7476.17,1823.23 C7510.59,1823.23 7546.67,1795.1 7546.67,1765.97 C7546.67,1746.44 7530.12,1735.52 7509.6,1735.52 C7477.49,1735.52 7439.1,1762.66 7439.1,1793.11"/>
<path class="Note" d="M3644.05,1049.02 C3644.05,1063.25 3654.31,1079.14 3681.12,1079.14 C3715.55,1079.14 3751.62,1051 3751.62,1021.88 C3751.62,1002.35 3735.07,991.425 3714.55,991.425 C3682.45,991.425 3644.05,1018.57 3644.05,1049.02"/>
<path class="Note" d="M5951.81,1751.77 C5951.81,1766.01 5962.07,1781.9 5988.88,1781.9 C6023.3,1781.9 6059.38,1753.76 6059.38,1724.63 C6059.38,1705.1 6042.83,1694.18 6022.31,1694.18 C5990.2,1694.18 5951.81,1721.32 5951.81,1751.77"/>
<path class="Note" d="M8739.69,2841.14 C8728.77,2841.14 8726.45,2832.2 8726.45,2829.23 C8726.45,2813.01 8782.06,2784.54 8797.61,2784.54 C8805.56,2784.54 8810.85,2789.17 8810.85,2796.46 C8810.85,2813.01 8754.92,2841.14 8739.69,2841.14 M8785.37,2768.98 C8753.26,2768.98 8714.86,2795.79 8714.86,2826.58 C8714.86,2840.81 8725.13,2856.7 8751.94,2856.7 C8786.36,2856.7 8822.44,2828.56 8822.44,2799.44 C8822.44,2779.91 8805.89,2768.98 8785.37,2768.98"/>
<path class="Note" d="M7186.31,1751.77 C7186.31,1766.01 7196.57,1781.9 7223.38,1781.9 C7257.8,1781.9 7293.88,1753.76 7293.88,1724.63 C7293.88,1705.1 7277.33,1694.18 7256.81,1694.18 C7224.7,1694.18 7186.31,1721.32 7186.31,1751.77"/>
<path class="Note" d="M1410.14,2537.21 C1410.14,2551.44 1420.4,2567.33 1447.21,2567.33 C1481.63,2567.33 1517.71,2539.19 1517.71,2510.07 C1517.71,2490.54 1501.16,2479.61 1480.64,2479.61 C1448.53,2479.61 1410.14,2506.76 1410.14,2537.21"/>
<path class="Note" d="M6904.76,1214.37 C6904.76,1228.61 6915.03,1244.49 6941.84,1244.49 C6976.26,1244.49 7012.34,1216.36 7012.34,1187.23 C7012.34,1167.7 6995.79,1156.78 6975.27,1156.78 C6943.16,1156.78 6904.76,1183.92 6904.76,1214.37"/>
<path class="Note" d="M6933.52,1710.44 C6933.52,1724.67 6943.78,1740.56 6970.59,1740.56 C7005.02,1740.56 7041.09,1712.42 7041.09,1683.29 C7041.09,1663.76 7024.54,1652.84 7004.02,1652.84 C6971.92,1652.84 6933.52,1679.98 6933.52,1710.44"/>
<path class="Note" d="M6680.73,1710.44 C6680.73,1724.67 6690.99,1740.56 6717.8,1740.56 C6752.23,1740.56 6788.3,1712.42 6788.3,1683.29 C6788.3,1663.76 6771.75,1652.84 6751.23,1652.84 C6719.13,1652.84 6680.73,1679.98 6680.73,1710.44"/>
<path class="Note" d="M6326.37,1725 C6315.45,1725 6313.13,1716.06 6313.13,1713.08 C6313.13,1696.86 6368.74,1668.4 6384.3,1668.4 C6392.24,1668.4 6397.54,1673.03 6397.54,1680.31 C6397.54,1696.86 6341.6,1725 6326.37,1725 M6372.05,1652.84 C6339.94,1652.84 6301.55,1679.65 6301.55,1710.44 C6301.55,1724.67 6311.81,1740.56 6338.62,1740.56 C6373.04,1740.56 6409.12,1712.42 6409.12,1683.29 C6409.12,1663.76 6392.57,1652.84 6372.05,1652.84"/>
<path class="Note" d="M1683.16,2495.87 C1683.16,2510.1 1693.42,2525.99 1720.23,2525.99 C1754.65,2525.99 1790.73,2497.86 1790.73,2468.73 C1790.73,2449.2 1774.18,2438.28 1753.66,2438.28 C1721.55,2438.28 1683.16,2465.42 1683.16,2495.87"/>
<path class="Note" d="M4369.87,1090.36 C4369.87,1104.59 4380.13,1120.48 4406.94,1120.48 C4441.37,1120.48 4477.45,1092.34 4477.45,1063.22 C4477.45,1043.69 4460.9,1032.76 4440.37,1032.76 C4408.27,1032.76 4369.87,1059.91 4369.87,1090.36"/>
<path class="Note" d="M1846.87,2537.21 C1846.87,2551.44 1857.13,2567.33 1883.94,2567.33 C1918.37,2567.33 1954.45,2539.19 1954.45,2510.07 C1954.45,2490.54 1937.9,2479.61 1917.38,2479.61 C1885.27,2479.61 1846.87,2506.76 1846.87,2537.21"/>
<path class="Note" d="M8416.63,2841.14 C8405.71,2841.14 8403.39,2832.2 8403.39,2829.23 C8403.39,2813.01 8459,2784.54 8474.56,2784.54 C8482.5,2784.54 8487.8,2789.17 8487.8,2796.46 C8487.8,2813.01 8431.86,2841.14 8416.63,2841.14 M8462.31,2768.98 C8430.2,2768.98 8391.81,2795.79 8391.81,2826.58 C8391.81,2840.81 8402.07,2856.7 8428.88,2856.7 C8463.3,2856.7 8499.38,2828.56 8499.38,2799.44 C8499.38,2779.91 8482.83,2768.98 8462.31,2768.98"/>
<path class="Note" d="M3402.11,966.341 C3402.11,980.574 3412.37,996.462 3439.18,996.462 C3473.6,996.462 3509.68,968.327 3509.68,939.199 C3509.68,919.67 3493.13,908.747 3472.61,908.747 C3440.5,908.747 3402.11,935.889 3402.11,966.341"/>
<path class="Note" d="M2062.24,2454.53 C2062.24,2468.76 2072.51,2484.65 2099.32,2484.65 C2133.74,2484.65 2169.82,2456.52 2169.82,2427.39 C2169.82,2407.86 2153.27,2396.94 2132.75,2396.94 C2100.64,2396.94 2062.24,2424.08 2062.24,2454.53"/>
<path class="Note" d="M4611.81,1049.02 C4611.81,1063.25 4622.07,1079.14 4648.88,1079.14 C4683.31,1079.14 4719.39,1051 4719.39,1021.88 C4719.39,1002.35 4702.84,991.425 4682.31,991.425 C4650.21,991.425 4611.81,1018.57 4611.81,1049.02"/>
<path class="Note" d="M7171.53,1228.94 C7160.61,1228.94 7158.29,1220 7158.29,1217.02 C7158.29,1200.8 7213.9,1172.34 7229.46,1172.34 C7237.4,1172.34 7242.7,1176.97 7242.7,1184.25 C7242.7,1200.8 7186.76,1228.94 7171.53,1228.94 M7217.21,1156.78 C7185.1,1156.78 7146.71,1183.59 7146.71,1214.37 C7146.71,1228.61 7156.97,1244.49 7183.78,1244.49 C7218.2,1244.49 7254.28,1216.36 7254.28,1187.23 C7254.28,1167.7 7237.73,1156.78 7217.21,1156.78"/>
<path class="Note" d="M2277.62,2495.87 C2277.62,2510.1 2287.88,2525.99 2314.69,2525.99 C2349.11,2525.99 2385.19,2497.86 2385.19,2468.73 C2385.19,2449.2 2368.64,2438.28 2348.12,2438.28 C2316.01,2438.28 2277.62,2465.42 2277.62,2495.87"/>
<path class="Note" d="M5783.28,1793.11 C5783.28,1807.35 5793.54,1823.23 5820.35,1823.23 C5854.78,1823.23 5890.86,1795.1 5890.86,1765.97 C5890.86,1746.44 5874.31,1735.52 5853.78,1735.52 C5821.68,1735.52 5783.28,1762.66 5783.28,1793.11"/>
<path class="Note" d="M2492.99,2537.21 C2492.99,2551.44 2503.25,2567.33 2530.06,2567.33 C2564.48,2567.33 2600.56,2539.19 2600.56,2510.07 C2600.56,2490.54 2584.01,2479.61 2563.49,2479.61 C2531.38,2479.61 2492.99,2506.76 2492.99,2537.21"/>
<path class="Note" d="M3041.94,925.003 C3041.94,939.236 3052.2,955.124 3079.01,955.124 C3113.44,955.124 3149.51,926.989 3149.51,897.861 C3149.51,878.332 3132.96,867.409 3112.44,867.409 C3080.34,867.409 3041.94,894.551 3041.94,925.003"/>
<path class="Note" d="M4971.98,1007.68 C4971.98,1021.91 4982.24,1037.8 5009.05,1037.8 C5043.48,1037.8 5079.56,1009.67 5079.56,980.538 C5079.56,961.009 5063.01,950.086 5042.48,950.086 C5010.38,950.086 4971.98,977.228 4971.98,1007.68"/>
<path class="Note" d="M7509.62,1049.02 C7509.62,1063.25 7519.88,1079.14 7546.69,1079.14 C7581.11,1079.14 7617.19,1051 7617.19,1021.88 C7617.19,1002.35 7600.64,991.425 7580.12,991.425 C7548.01,991.425 7509.62,1018.57 7509.62,1049.02"/>
<path class="Note" d="M2894.49,2578.55 C2894.49,2592.78 2904.75,2608.67 2931.56,2608.67 C2965.99,2608.67 3002.07,2580.53 3002.07,2551.4 C3002.07,2531.88 2985.52,2520.95 2965,2520.95 C2932.89,2520.95 2894.49,2548.09 2894.49,2578.55"/>
<path class="Note" d="M2800,966.341 C2800,980.574 2810.26,996.462 2837.07,996.462 C2871.49,996.462 2907.57,968.327 2907.57,939.199 C2907.57,919.67 2891.02,908.747 2870.5,908.747 C2838.39,908.747 2800,935.889 2800,966.341"/>
<path class="Note" d="M4957.68,1973.03 C4946.76,1973.03 4944.44,1964.09 4944.44,1961.12 C4944.44,1944.9 5000.05,1916.43 5015.61,1916.43 C5023.55,1916.43 5028.85,1921.06 5028.85,1928.35 C5028.85,1944.9 4972.91,1973.03 4957.68,1973.03 M5003.36,1900.87 C4971.25,1900.87 4932.86,1927.68 4932.86,1958.47 C4932.86,1972.7 4943.12,1988.59 4969.93,1988.59 C5004.35,1988.59 5040.43,1960.45 5040.43,1931.33 C5040.43,1911.8 5023.88,1900.87 5003.36,1900.87"/>
<path class="Note" d="M3109.86,2661.22 C3109.86,2675.46 3120.13,2691.34 3146.94,2691.34 C3181.36,2691.34 3217.44,2663.21 3217.44,2634.08 C3217.44,2614.55 3200.89,2603.63 3180.37,2603.63 C3148.26,2603.63 3109.86,2630.77 3109.86,2661.22"/>
<path class="Note" d="M4578.5,1973.03 C4567.58,1973.03 4565.26,1964.09 4565.26,1961.12 C4565.26,1944.9 4620.87,1916.43 4636.42,1916.43 C4644.37,1916.43 4649.66,1921.06 4649.66,1928.35 C4649.66,1944.9 4593.73,1973.03 4578.5,1973.03 M4624.18,1900.87 C4592.07,1900.87 4553.67,1927.68 4553.67,1958.47 C4553.67,1972.7 4563.94,1988.59 4590.75,1988.59 C4625.17,1988.59 4661.25,1960.45 4661.25,1931.33 C4661.25,1911.8 4644.7,1900.87 4624.18,1900.87"/>
<path class="Note" d="M3325.24,2661.22 C3325.24,2675.46 3335.5,2691.34 3362.31,2691.34 C3396.73,2691.34 3432.81,2663.21 3432.81,2634.08 C3432.81,2614.55 3416.26,2603.63 3395.74,2603.63 C3363.63,2603.63 3325.24,2630.77 3325.24,2661.22"/>
<path class="Note" d="M5213.92,1049.02 C5213.92,1063.25 5224.18,1079.14 5250.99,1079.14 C5285.42,1079.14 5321.5,1051 5321.5,1021.88 C5321.5,1002.35 5304.95,991.425 5284.42,991.425 C5252.32,991.425 5213.92,1018.57 5213.92,1049.02"/>
<path class="Note" d="M3565.43,2675.79 C3554.51,2675.79 3552.19,2666.85 3552.19,2663.87 C3552.19,2647.65 3607.8,2619.19 3623.36,2619.19 C3631.3,2619.19 3636.6,2623.82 3636.6,2631.1 C3636.6,2647.65 3580.66,2675.79 3565.43,2675.79 M3611.11,2603.63 C3579,2603.63 3540.61,2630.44 3540.61,2661.22 C3540.61,2675.46 3550.87,2691.34 3577.68,2691.34 C3612.1,2691.34 3648.18,2663.21 3648.18,2634.08 C3648.18,2614.55 3631.63,2603.63 3611.11,2603.63"/>
<path class="Note" d="M5455.86,1090.36 C5455.86,1104.59 5466.12,1120.48 5492.93,1120.48 C5527.36,1120.48 5563.44,1092.34 5563.44,1063.22 C5563.44,1043.69 5546.89,1032.76 5526.37,1032.76 C5494.26,1032.76 5455.86,1059.91 5455.86,1090.36"/>
<path class="Note" d="M3863.67,2619.88 C3863.67,2634.12 3873.93,2650.01 3900.74,2650.01 C3935.16,2650.01 3971.24,2621.87 3971.24,2592.74 C3971.24,2573.21 3954.69,2562.29 3934.17,2562.29 C3902.06,2562.29 3863.67,2589.43 3863.67,2619.88"/>
<path class="Note" d="M4081.09,2014.37 C4070.16,2014.37 4067.85,2005.43 4067.85,2002.45 C4067.85,1986.24 4123.45,1957.77 4139.01,1957.77 C4146.96,1957.77 4152.25,1962.4 4152.25,1969.69 C4152.25,1986.24 4096.31,2014.37 4081.09,2014.37 M4126.76,1942.21 C4094.66,1942.21 4056.26,1969.02 4056.26,1999.81 C4056.26,2014.04 4066.52,2029.93 4093.33,2029.93 C4127.76,2029.93 4163.84,2001.79 4163.84,1972.66 C4163.84,1953.14 4147.29,1942.21 4126.76,1942.21"/>
<path class="Note" d="M2558.06,1007.68 C2558.06,1021.91 2568.32,1037.8 2595.13,1037.8 C2629.55,1037.8 2665.63,1009.67 2665.63,980.538 C2665.63,961.009 2649.08,950.086 2628.56,950.086 C2596.45,950.086 2558.06,977.228 2558.06,1007.68"/>
<path class="Note" d="M3803.47,1917.13 C3803.47,1931.36 3813.73,1947.25 3840.54,1947.25 C3874.97,1947.25 3911.05,1919.11 3911.05,1889.99 C3911.05,1870.46 3894.5,1859.53 3873.98,1859.53 C3841.87,1859.53 3803.47,1886.68 3803.47,1917.13"/>
<path class="Note" d="M3550.68,1958.47 C3550.68,1972.7 3560.94,1988.59 3587.75,1988.59 C3622.18,1988.59 3658.26,1960.45 3658.26,1931.33 C3658.26,1911.8 3641.71,1900.87 3621.19,1900.87 C3589.08,1900.87 3550.68,1928.02 3550.68,1958.47"/>
<path class="Note" d="M4213.4,2578.55 C4213.4,2592.78 4223.67,2608.67 4250.48,2608.67 C4284.9,2608.67 4320.98,2580.53 4320.98,2551.4 C4320.98,2531.88 4304.43,2520.95 4283.91,2520.95 C4251.8,2520.95 4213.4,2548.09 4213.4,2578.55"/>
<path class="Note" d="M3297.89,1917.13 C3297.89,1931.36 3308.15,1947.25 3334.97,1947.25 C3369.39,1947.25 3405.47,1919.11 3405.47,1889.99 C3405.47,1870.46 3388.92,1859.53 3368.4,1859.53 C3336.29,1859.53 3297.89,1886.68 3297.89,1917.13"/>
<path class="Note" d="M4428.78,2537.21 C4428.78,2551.44 4439.04,2567.33 4465.85,2567.33 C4500.27,2567.33 4536.35,2539.19 4536.35,2510.07 C4536.35,2490.54 4519.8,2479.61 4499.28,2479.61 C4467.17,2479.61 4428.78,2506.76 4428.78,2537.21"/>
<path class="Note" d="M3045.1,1875.79 C3045.1,1890.02 3055.36,1905.91 3082.18,1905.91 C3116.6,1905.91 3152.68,1877.78 3152.68,1848.65 C3152.68,1829.12 3136.13,1818.2 3115.61,1818.2 C3083.5,1818.2 3045.1,1845.34 3045.1,1875.79"/>
<path class="Note" d="M4644.15,2578.55 C4644.15,2592.78 4654.41,2608.67 4681.22,2608.67 C4715.64,2608.67 4751.72,2580.53 4751.72,2551.4 C4751.72,2531.88 4735.17,2520.95 4714.65,2520.95 C4682.54,2520.95 4644.15,2548.09 4644.15,2578.55"/>
<path class="Note" d="M5697.8,1090.36 C5697.8,1104.59 5708.06,1120.48 5734.88,1120.48 C5769.3,1120.48 5805.38,1092.34 5805.38,1063.22 C5805.38,1043.69 5788.83,1032.76 5768.31,1032.76 C5736.2,1032.76 5697.8,1059.91 5697.8,1090.36"/>
<path class="Note" d="M4859.52,2578.55 C4859.52,2592.78 4869.78,2608.67 4896.59,2608.67 C4931.02,2608.67 4967.1,2580.53 4967.1,2551.4 C4967.1,2531.88 4950.55,2520.95 4930.02,2520.95 C4897.92,2520.95 4859.52,2548.09 4859.52,2578.55"/>
<path class="Note" d="M2674.09,1917.13 C2674.09,1931.36 2684.35,1947.25 2711.16,1947.25 C2745.58,1947.25 2781.66,1919.11 2781.66,1889.99 C2781.66,1870.46 2765.11,1859.53 2744.59,1859.53 C2712.48,1859.53 2674.09,1886.68 2674.09,1917.13"/>
<path class="Note" d="M5074.89,2619.88 C5074.89,2634.12 5085.15,2650.01 5111.97,2650.01 C5146.39,2650.01 5182.47,2621.87 5182.47,2592.74 C5182.47,2573.21 5165.92,2562.29 5145.4,2562.29 C5113.29,2562.29 5074.89,2589.43 5074.89,2619.88"/>
<path class="Note" d="M2421.3,1958.47 C2421.3,1972.7 2431.56,1988.59 2458.37,1988.59 C2492.79,1988.59 2528.87,1960.45 2528.87,1931.33 C2528.87,1911.8 2512.32,1900.87 2491.8,1900.87 C2459.69,1900.87 2421.3,1928.02 2421.3,1958.47"/>
<path class="Note" d="M5290.27,2661.22 C5290.27,2675.46 5300.53,2691.34 5327.34,2691.34 C5361.76,2691.34 5397.84,2663.21 5397.84,2634.08 C5397.84,2614.55 5381.29,2603.63 5360.77,2603.63 C5328.66,2603.63 5290.27,2630.77 5290.27,2661.22"/>
<path class="Note" d="M2316.12,1007.68 C2316.12,1021.91 2326.38,1037.8 2353.19,1037.8 C2387.61,1037.8 2423.69,1009.67 2423.69,980.538 C2423.69,961.009 2407.14,950.086 2386.62,950.086 C2354.51,950.086 2316.12,977.228 2316.12,1007.68"/>
<path class="Note" d="M2168.51,1999.81 C2168.51,2014.04 2178.77,2029.93 2205.58,2029.93 C2240,2029.93 2276.08,2001.79 2276.08,1972.66 C2276.08,1953.14 2259.53,1942.21 2239.01,1942.21 C2206.9,1942.21 2168.51,1969.35 2168.51,1999.81"/>
<path class="Note" d="M1915.72,1999.81 C1915.72,2014.04 1925.98,2029.93 1952.79,2029.93 C1987.21,2029.93 2023.29,2001.79 2023.29,1972.66 C2023.29,1953.14 2006.74,1942.21 1986.22,1942.21 C1954.11,1942.21 1915.72,1969.35 1915.72,1999.81"/>
<path class="Note" d="M5640,2702.56 C5640,2716.79 5650.26,2732.68 5677.07,2732.68 C5711.5,2732.68 5747.58,2704.55 5747.58,2675.42 C5747.58,2655.89 5731.03,2644.97 5710.51,2644.97 C5678.4,2644.97 5640,2672.11 5640,2702.56"/>
<path class="Note" d="M1662.93,1917.13 C1662.93,1931.36 1673.19,1947.25 1700,1947.25 C1734.42,1947.25 1770.5,1919.11 1770.5,1889.99 C1770.5,1870.46 1753.95,1859.53 1733.43,1859.53 C1701.32,1859.53 1662.93,1886.68 1662.93,1917.13"/>
<path class="Note" d="M5855.37,2785.24 C5855.37,2799.47 5865.64,2815.36 5892.45,2815.36 C5926.87,2815.36 5962.95,2787.23 5962.95,2758.1 C5962.95,2738.57 5946.4,2727.65 5925.88,2727.65 C5893.77,2727.65 5855.37,2754.79 5855.37,2785.24"/>
<path class="Note" d="M1410.14,1834.45 C1410.14,1848.68 1420.4,1864.57 1447.21,1864.57 C1481.63,1864.57 1517.71,1836.44 1517.71,1807.31 C1517.71,1787.78 1501.16,1776.86 1480.64,1776.86 C1448.53,1776.86 1410.14,1804 1410.14,1834.45"/>
<path class="Note" d="M6070.75,2867.92 C6070.75,2882.15 6081.01,2898.04 6107.82,2898.04 C6142.24,2898.04 6178.32,2869.9 6178.32,2840.77 C6178.32,2821.25 6161.77,2810.32 6141.25,2810.32 C6109.14,2810.32 6070.75,2837.46 6070.75,2867.92"/>
<path class="Note" d="M1593.04,1049.02 C1593.04,1063.25 1603.3,1079.14 1630.11,1079.14 C1664.53,1079.14 1700.61,1051 1700.61,1021.88 C1700.61,1002.35 1684.06,991.425 1663.54,991.425 C1631.43,991.425 1593.04,1018.57 1593.04,1049.02"/>
<path class="Note" d="M6286.12,2867.92 C6286.12,2882.15 6296.38,2898.04 6323.19,2898.04 C6357.62,2898.04 6393.69,2869.9 6393.69,2840.77 C6393.69,2821.25 6377.14,2810.32 6356.62,2810.32 C6324.52,2810.32 6286.12,2837.46 6286.12,2867.92"/>
<path class="Note" d="M7975.35,2882.48 C7964.42,2882.48 7962.11,2873.54 7962.11,2870.56 C7962.11,2854.35 8017.71,2825.88 8033.27,2825.88 C8041.21,2825.88 8046.51,2830.51 8046.51,2837.8 C8046.51,2854.35 7990.57,2882.48 7975.35,2882.48 M8021.02,2810.32 C7988.92,2810.32 7950.52,2837.13 7950.52,2867.92 C7950.52,2882.15 7960.78,2898.04 7987.59,2898.04 C8022.02,2898.04 8058.1,2869.9 8058.1,2840.77 C8058.1,2821.25 8041.55,2810.32 8021.02,2810.32"/>
<path class="Note" d="M6501.49,2826.58 C6501.49,2840.81 6511.75,2856.7 6538.56,2856.7 C6572.99,2856.7 6609.07,2828.56 6609.07,2799.44 C6609.07,2779.91 6592.52,2768.98 6571.99,2768.98 C6539.89,2768.98 6501.49,2796.13 6501.49,2826.58"/>
<path class="Note" d="M5939.74,1049.02 C5939.74,1063.25 5950,1079.14 5976.82,1079.14 C6011.24,1079.14 6047.32,1051 6047.32,1021.88 C6047.32,1002.35 6030.77,991.425 6010.25,991.425 C5978.14,991.425 5939.74,1018.57 5939.74,1049.02"/>
<path class="Note" d="M6716.86,2785.24 C6716.86,2799.47 6727.12,2815.36 6753.94,2815.36 C6788.36,2815.36 6824.44,2787.23 6824.44,2758.1 C6824.44,2738.57 6807.89,2727.65 6787.37,2727.65 C6755.26,2727.65 6716.86,2754.79 6716.86,2785.24"/>
<path class="Note" d="M1978.03,1022.24 C1967.11,1022.24 1964.79,1013.31 1964.79,1010.33 C1964.79,994.109 2020.4,965.643 2035.96,965.643 C2043.9,965.643 2049.2,970.277 2049.2,977.559 C2049.2,994.109 1993.26,1022.24 1978.03,1022.24 M2023.71,950.086 C1991.6,950.086 1953.21,976.897 1953.21,1007.68 C1953.21,1021.91 1963.47,1037.8 1990.28,1037.8 C2024.7,1037.8 2060.78,1009.67 2060.78,980.538 C2060.78,961.009 2044.23,950.086 2023.71,950.086"/>
<path class="Note" d="M8958.52,925.003 C8958.52,939.236 8968.78,955.124 8995.59,955.124 C9030.01,955.124 9066.09,926.989 9066.09,897.861 C9066.09,878.332 9049.54,867.409 9029.02,867.409 C8996.91,867.409 8958.52,894.551 8958.52,925.003"/>
<path class="Note" d="M8716.58,966.341 C8716.58,980.574 8726.84,996.462 8753.65,996.462 C8788.07,996.462 8824.15,968.327 8824.15,939.199 C8824.15,919.67 8807.6,908.747 8787.08,908.747 C8754.97,908.747 8716.58,935.889 8716.58,966.341"/>
<path class="Note" d="M7066.6,2743.9 C7066.6,2758.13 7076.86,2774.02 7103.67,2774.02 C7138.1,2774.02 7174.18,2745.89 7174.18,2716.76 C7174.18,2697.23 7157.63,2686.31 7137.1,2686.31 C7105,2686.31 7066.6,2713.45 7066.6,2743.9"/>
<path class="Note" d="M8474.64,1007.68 C8474.64,1021.91 8484.9,1037.8 8511.71,1037.8 C8546.13,1037.8 8582.21,1009.67 8582.21,980.538 C8582.21,961.009 8565.66,950.086 8545.14,950.086 C8513.03,950.086 8474.64,977.228 8474.64,1007.68"/>
<path class="Note" d="M7281.97,2785.24 C7281.97,2799.47 7292.23,2815.36 7319.05,2815.36 C7353.47,2815.36 7389.55,2787.23 7389.55,2758.1 C7389.55,2738.57 7373,2727.65 7352.48,2727.65 C7320.37,2727.65 7281.97,2754.79 7281.97,2785.24"/>
<path class="Note" d="M8232.7,1007.68 C8232.7,1021.91 8242.96,1037.8 8269.77,1037.8 C8304.19,1037.8 8340.27,1009.67 8340.27,980.538 C8340.27,961.009 8323.72,950.086 8303.2,950.086 C8271.09,950.086 8232.7,977.228 8232.7,1007.68"/>
<path class="Note" d="M7497.35,2826.58 C7497.35,2840.81 7507.61,2856.7 7534.42,2856.7 C7568.84,2856.7 7604.92,2828.56 7604.92,2799.44 C7604.92,2779.91 7588.37,2768.98 7567.85,2768.98 C7535.74,2768.98 7497.35,2796.13 7497.35,2826.58"/>
<path class="Note" d="M7894.61,1022.24 C7883.69,1022.24 7881.37,1013.31 7881.37,1010.33 C7881.37,994.109 7936.98,965.643 7952.54,965.643 C7960.48,965.643 7965.78,970.277 7965.78,977.559 C7965.78,994.109 7909.84,1022.24 7894.61,1022.24 M7940.29,950.086 C7908.18,950.086 7869.79,976.897 7869.79,1007.68 C7869.79,1021.91 7880.05,1037.8 7906.86,1037.8 C7941.28,1037.8 7977.36,1009.67 7977.36,980.538 C7977.36,961.009 7960.81,950.086 7940.29,950.086"/>
<path class="Note" d="M7712.72,2785.24 C7712.72,2799.47 7722.98,2815.36 7749.79,2815.36 C7784.21,2815.36 7820.29,2787.23 7820.29,2758.1 C7820.29,2738.57 7803.74,2727.65 7783.22,2727.65 C7751.11,2727.65 7712.72,2754.79 7712.72,2785.24"/>
<path class="Note" d="M8315.7,1999.81 C8315.7,2014.04 8325.96,2029.93 8352.77,2029.93 C8387.19,2029.93 8423.27,2001.79 8423.27,1972.66 C8423.27,1953.14 8406.72,1942.21 8386.2,1942.21 C8354.09,1942.21 8315.7,1969.35 8315.7,1999.81"/>
<path class="Clef" d="M909.689,2012.75 C903.069,2014.08 896.78,2014.74 890.491,2014.74 C843.158,2014.74 802.776,1981.64 802.776,1931.66 C802.776,1891.27 831.242,1855.2 860.37,1830.04 C865.997,1825.07 871.293,1820.44 876.258,1815.48 C879.237,1833.35 881.554,1848.91 883.871,1862.48 C853.75,1871.41 833.228,1903.19 833.228,1934.3 C833.228,1957.47 851.433,1989.25 877.913,1989.25 C880.561,1989.25 883.54,1987.93 883.54,1984.95 C883.54,1981.97 880.23,1980.31 876.258,1977.67 C863.349,1969.72 856.067,1961.12 856.067,1944.9 C856.067,1924.71 870.962,1908.49 890.491,1903.85 L909.689,2012.75 M880.561,1672.48 C883.54,1659.24 898.766,1624.49 915.978,1624.49 C920.943,1624.49 928.887,1640.71 928.887,1663.55 C928.887,1697.97 903.4,1723.79 880.561,1746.3 C878.575,1733.06 876.92,1720.15 876.92,1706.25 C876.92,1694 877.913,1682.74 880.561,1672.48 M956.691,1951.52 C956.691,1975.02 947.092,1999.18 923.591,2008.78 C916.64,1969.06 907.703,1916.43 905.386,1901.87 C935.176,1901.87 956.691,1922.06 956.691,1951.52 M811.051,2114.37 C811.051,2136.21 827.932,2165.01 872.617,2165.01 C888.174,2165.01 901.745,2161.04 913.661,2153.76 C931.535,2141.18 936.169,2119.33 936.169,2098.48 C936.169,2085.57 934.183,2070.68 930.873,2051.81 C929.88,2045.19 927.894,2035.26 925.908,2022.35 C958.346,2011.76 982.509,1978 982.509,1943.9 C982.509,1893.92 947.092,1860.16 898.766,1860.16 C895.456,1840.3 892.146,1820.77 889.167,1802.24 C924.253,1765.49 948.416,1724.12 948.416,1671.49 C948.416,1641.37 939.148,1616.88 933.852,1604.96 C925.908,1588.08 916.309,1576.49 910.351,1576.49 C908.034,1576.49 897.773,1580.47 886.85,1593.37 C865.666,1618.53 859.708,1660.9 859.708,1688.7 C859.708,1706.58 861.363,1722.8 866.99,1759.87 C866.659,1760.2 849.447,1777.74 842.496,1783.37 C812.375,1811.5 770.669,1851.55 770.669,1917.75 C770.669,1979.65 824.622,2028.31 886.188,2028.31 C895.787,2028.31 904.724,2027.32 912.337,2025.99 C918.626,2057.77 922.267,2080.94 922.267,2098.48 C922.267,2132.9 904.724,2151.11 871.293,2151.11 C863.349,2151.11 856.398,2149.45 855.736,2149.45 C855.405,2149.12 854.743,2148.79 854.743,2148.46 C854.743,2147.8 855.405,2147.47 856.398,2147.14 C871.955,2144.82 887.512,2131.58 887.512,2110.4 C887.512,2092.52 873.941,2073.66 849.116,2073.66 C825.946,2073.66 811.051,2092.52 811.051,2114.37"/>
<path class="Clef" d="M909.689,1144.64 C903.069,1145.97 896.78,1146.63 890.491,1146.63 C843.158,1146.63 802.776,1113.53 802.776,1063.55 C802.776,1023.16 831.242,987.085 860.37,961.929 C865.997,956.964 871.293,952.33 876.258,947.365 C879.237,965.239 881.554,980.796 883.871,994.367 C853.75,1003.3 833.228,1035.08 833.228,1066.19 C833.228,1089.36 851.433,1121.14 877.913,1121.14 C880.561,1121.14 883.54,1119.82 883.54,1116.84 C883.54,1113.86 880.23,1112.2 876.258,1109.56 C863.349,1101.61 856.067,1093.01 856.067,1076.79 C856.067,1056.6 870.962,1040.38 890.491,1035.74 L909.689,1144.64 M880.561,804.373 C883.54,791.133 898.766,756.378 915.978,756.378 C920.943,756.378 928.887,772.597 928.887,795.436 C928.887,829.86 903.4,855.678 880.561,878.186 C878.575,864.946 876.92,852.037 876.92,838.135 C876.92,825.888 877.913,814.634 880.561,804.373 M956.691,1083.41 C956.691,1106.91 947.092,1131.07 923.591,1140.67 C916.64,1100.95 907.703,1048.32 905.386,1033.76 C935.176,1033.76 956.691,1053.95 956.691,1083.41 M811.051,1246.26 C811.051,1268.1 827.932,1296.9 872.617,1296.9 C888.174,1296.9 901.745,1292.93 913.661,1285.65 C931.535,1273.07 936.169,1251.22 936.169,1230.37 C936.169,1217.46 934.183,1202.57 930.873,1183.7 C929.88,1177.08 927.894,1167.15 925.908,1154.24 C958.346,1143.65 982.509,1109.89 982.509,1075.79 C982.509,1025.81 947.092,992.05 898.766,992.05 C895.456,972.19 892.146,952.661 889.167,934.125 C924.253,897.384 948.416,856.009 948.416,803.38 C948.416,773.259 939.148,748.765 933.852,736.849 C925.908,719.968 916.309,708.383 910.351,708.383 C908.034,708.383 897.773,712.355 886.85,725.264 C865.666,750.42 859.708,792.788 859.708,820.592 C859.708,838.466 861.363,854.685 866.99,891.757 C866.659,892.088 849.447,909.631 842.496,915.258 C812.375,943.393 770.669,983.444 770.669,1049.64 C770.669,1111.54 824.622,1160.2 886.188,1160.2 C895.787,1160.2 904.724,1159.21 912.337,1157.88 C918.626,1189.66 922.267,1212.83 922.267,1230.37 C922.267,1264.79 904.724,1283 871.293,1283 C863.349,1283 856.398,1281.34 855.736,1281.34 C855.405,1281.01 854.743,1280.68 854.743,1280.35 C854.743,1279.69 855.405,1279.36 856.398,1279.03 C871.955,1276.71 887.512,1263.47 887.512,1242.29 C887.512,1224.41 873.941,1205.55 849.116,1205.55 C825.946,1205.55 811.051,1224.41 811.051,1246.26"/>
<path class="Clef" d="M909.689,2880.86 C903.069,2882.19 896.78,2882.85 890.491,2882.85 C843.158,2882.85 802.776,2849.75 802.776,2799.77 C802.776,2759.38 831.242,2723.31 860.37,2698.15 C865.997,2693.18 871.293,2688.55 876.258,2683.59 C879.237,2701.46 881.554,2717.02 883.871,2730.59 C853.75,2739.52 833.228,2771.3 833.228,2802.41 C833.228,2825.58 851.433,2857.36 877.913,2857.36 C880.561,2857.36 883.54,2856.04 883.54,2853.06 C883.54,2850.08 880.23,2848.42 876.258,2845.78 C863.349,2837.83 856.067,2829.23 856.067,2813.01 C856.067,2792.82 870.962,2776.6 890.491,2771.96 L909.689,2880.86 M880.561,2540.59 C883.54,2527.35 898.766,2492.6 915.978,2492.6 C920.943,2492.6 928.887,2508.82 928.887,2531.66 C928.887,2566.08 903.4,2591.9 880.561,2614.41 C878.575,2601.17 876.92,2588.26 876.92,2574.36 C876.92,2562.11 877.913,2550.85 880.561,2540.59 M956.691,2819.63 C956.691,2843.13 947.092,2867.29 923.591,2876.89 C916.64,2837.17 907.703,2784.54 905.386,2769.98 C935.176,2769.98 956.691,2790.17 956.691,2819.63 M811.051,2982.48 C811.051,3004.32 827.932,3033.12 872.617,3033.12 C888.174,3033.12 901.745,3029.15 913.661,3021.87 C931.535,3009.29 936.169,2987.44 936.169,2966.59 C936.169,2953.68 934.183,2938.79 930.873,2919.92 C929.88,2913.3 927.894,2903.37 925.908,2890.46 C958.346,2879.87 982.509,2846.11 982.509,2812.01 C982.509,2762.03 947.092,2728.27 898.766,2728.27 C895.456,2708.41 892.146,2688.88 889.167,2670.35 C924.253,2633.6 948.416,2592.23 948.416,2539.6 C948.416,2509.48 939.148,2484.99 933.852,2473.07 C925.908,2456.19 916.309,2444.6 910.351,2444.6 C908.034,2444.6 897.773,2448.58 886.85,2461.48 C865.666,2486.64 859.708,2529.01 859.708,2556.81 C859.708,2574.69 861.363,2590.91 866.99,2627.98 C866.659,2628.31 849.447,2645.85 842.496,2651.48 C812.375,2679.61 770.669,2719.66 770.669,2785.86 C770.669,2847.76 824.622,2896.42 886.188,2896.42 C895.787,2896.42 904.724,2895.43 912.337,2894.1 C918.626,2925.88 922.267,2949.05 922.267,2966.59 C922.267,3001.01 904.724,3019.22 871.293,3019.22 C863.349,3019.22 856.398,3017.56 855.736,3017.56 C855.405,3017.23 854.743,3016.9 854.743,3016.57 C854.743,3015.91 855.405,3015.58 856.398,3015.25 C871.955,3012.93 887.512,2999.69 887.512,2978.51 C887.512,2960.63 873.941,2941.77 849.116,2941.77 C825.946,2941.77 811.051,2960.63 811.051,2982.48"/>
<path class="KeySig" d="M1088.05,1848.65 C1088.05,1874.8 1074.48,1888.7 1055.28,1903.93 L1056.27,1839.38 C1056.93,1836.4 1061.9,1826.8 1075.14,1826.8 C1087.06,1826.8 1088.05,1838.06 1088.05,1845.01 L1088.05,1848.65 M1084.08,1810.58 C1067.53,1810.58 1057.93,1820.84 1056.27,1822.83 L1057.6,1716.58 C1057.6,1713.93 1055.61,1711.95 1052.96,1711.95 L1048.99,1711.95 C1046.34,1711.95 1044.36,1713.93 1044.36,1716.58 L1046.01,1915.51 C1046.01,1918.16 1048,1920.14 1050.65,1920.14 C1051.31,1920.14 1052.63,1919.81 1053.29,1919.48 C1081.76,1905.25 1111.55,1878.11 1111.55,1844.01 C1111.55,1826.8 1103.61,1810.58 1084.08,1810.58"/>
<path class="KeySig" d="M1179.99,1724.63 C1179.99,1750.78 1166.42,1764.68 1147.22,1779.91 L1148.21,1715.36 C1148.87,1712.39 1153.84,1702.79 1167.08,1702.79 C1178.99,1702.79 1179.99,1714.04 1179.99,1720.99 L1179.99,1724.63 M1176.01,1686.57 C1159.46,1686.57 1149.87,1696.83 1148.21,1698.81 L1149.53,1592.56 C1149.53,1589.92 1147.55,1587.93 1144.9,1587.93 L1140.93,1587.93 C1138.28,1587.93 1136.29,1589.92 1136.29,1592.56 L1137.95,1791.49 C1137.95,1794.14 1139.94,1796.13 1142.58,1796.13 C1143.25,1796.13 1144.57,1795.8 1145.23,1795.47 C1173.7,1781.23 1203.49,1754.09 1203.49,1720 C1203.49,1702.79 1195.54,1686.57 1176.01,1686.57"/>
<path class="KeySig" d="M1088.05,980.538 C1088.05,1006.69 1074.48,1020.59 1055.28,1035.82 L1056.27,971.27 C1056.93,968.291 1061.9,958.692 1075.14,958.692 C1087.06,958.692 1088.05,969.946 1088.05,976.897 L1088.05,980.538 M1084.08,942.473 C1067.53,942.473 1057.93,952.734 1056.27,954.72 L1057.6,848.469 C1057.6,845.821 1055.61,843.835 1052.96,843.835 L1048.99,843.835 C1046.34,843.835 1044.36,845.821 1044.36,848.469 L1046.01,1047.4 C1046.01,1050.05 1048,1052.03 1050.65,1052.03 C1051.31,1052.03 1052.63,1051.7 1053.29,1051.37 C1081.76,1037.14 1111.55,1010 1111.55,975.904 C1111.55,958.692 1103.61,942.473 1084.08,942.473"/>
<path class="KeySig" d="M1179.99,856.522 C1179.99,882.671 1166.42,896.573 1147.22,911.799 L1148.21,847.254 C1148.87,844.275 1153.84,834.676 1167.08,834.676 C1178.99,834.676 1179.99,845.93 1179.99,852.881 L1179.99,856.522 M1176.01,818.457 C1159.46,818.457 1149.87,828.718 1148.21,830.704 L1149.53,724.453 C1149.53,721.805 1147.55,719.819 1144.9,719.819 L1140.93,719.819 C1138.28,719.819 1136.29,721.805 1136.29,724.453 L1137.95,923.384 C1137.95,926.032 1139.94,928.018 1142.58,928.018 C1143.25,928.018 1144.57,927.687 1145.23,927.356 C1173.7,913.123 1203.49,885.981 1203.49,851.888 C1203.49,834.676 1195.54,818.457 1176.01,818.457"/>
<path class="KeySig" d="M1088.05,2716.76 C1088.05,2742.91 1074.48,2756.81 1055.28,2772.04 L1056.27,2707.49 C1056.93,2704.51 1061.9,2694.91 1075.14,2694.91 C1087.06,2694.91 1088.05,2706.17 1088.05,2713.12 L1088.05,2716.76 M1084.08,2678.69 C1067.53,2678.69 1057.93,2688.95 1056.27,2690.94 L1057.6,2584.69 C1057.6,2582.04 1055.61,2580.06 1052.96,2580.06 L1048.99,2580.06 C1046.34,2580.06 1044.36,2582.04 1044.36,2584.69 L1046.01,2783.62 C1046.01,2786.27 1048,2788.25 1050.65,2788.25 C1051.31,2788.25 1052.63,2787.92 1053.29,2787.59 C1081.76,2773.36 1111.55,2746.22 1111.55,2712.12 C1111.55,2694.91 1103.61,2678.69 1084.08,2678.69"/>
<path class="KeySig" d="M1179.99,2592.74 C1179.99,2618.89 1166.42,2632.79 1147.22,2648.02 L1148.21,2583.47 C1148.87,2580.5 1153.84,2570.9 1167.08,2570.9 C1178.99,2570.9 1179.99,2582.15 1179.99,2589.1 L1179.99,2592.74 M1176.01,2554.68 C1159.46,2554.68 1149.87,2564.94 1148.21,2566.92 L1149.53,2460.67 C1149.53,2458.03 1147.55,2456.04 1144.9,2456.04 L1140.93,2456.04 C1138.28,2456.04 1136.29,2458.03 1136.29,2460.67 L1137.95,2659.6 C1137.95,2662.25 1139.94,2664.24 1142.58,2664.24 C1143.25,2664.24 1144.57,2663.91 1145.23,2663.58 C1173.7,2649.34 1203.49,2622.2 1203.49,2588.11 C1203.49,2570.9 1195.54,2554.68 1176.01,2554.68"/>
<path class="TimeSig" d="M1360.25,979.772 C1349.33,979.772 1340.39,964.877 1340.39,946.341 C1340.39,927.805 1349.33,912.579 1360.25,912.579 C1371.17,912.579 1380.44,927.805 1380.44,946.341 C1380.44,964.877 1371.17,979.772 1360.25,979.772 M1372.5,897.022 C1352.31,897.022 1345.03,902.98 1340.39,907.945 C1339.4,900.994 1338.74,895.698 1338.74,890.402 C1338.74,871.535 1345.36,847.041 1368.53,847.041 C1376.8,847.041 1381.77,849.689 1385.08,853.33 C1378.13,856.309 1372.5,865.246 1372.5,872.859 C1372.5,884.775 1381.77,894.043 1393.68,894.043 C1405.6,894.043 1415.2,884.775 1415.2,872.859 L1415.2,871.866 C1415.2,868.887 1414.54,863.922 1413.21,861.274 C1408.91,849.358 1395.01,831.815 1361.91,831.815 C1332.12,831.815 1310.6,860.281 1303.98,875.507 C1300.67,883.451 1295.71,899.67 1295.71,918.206 C1295.71,938.397 1301.33,961.236 1320.86,978.448 C1340.06,993.012 1352.31,993.674 1363.89,993.674 C1375.48,993.674 1418.84,980.103 1418.84,941.707 C1418.84,909.269 1393.35,897.022 1372.5,897.022"/>
<path class="TimeSig" d="M1350.34,1118.01 L1350.34,1142.5 L1322.87,1142.5 C1320.55,1142.5 1318.23,1144.49 1318.23,1147.13 L1318.23,1153.42 C1318.23,1156.07 1320.55,1158.06 1322.87,1158.06 L1423.16,1158.06 C1425.81,1158.06 1427.79,1156.07 1427.79,1153.42 L1427.79,1147.13 C1427.79,1144.49 1425.81,1142.5 1423.16,1142.5 L1393.37,1142.5 L1393.37,1118.01 L1423.16,1118.01 C1425.81,1118.01 1427.79,1115.69 1427.79,1113.04 L1427.79,1106.75 C1427.79,1104.44 1425.81,1102.12 1423.16,1102.12 L1393.37,1102.12 L1393.37,1049.49 C1393.37,1047.5 1392.38,1045.85 1391.05,1045.19 L1387.08,1043.2 C1386.42,1042.87 1386.09,1042.87 1385.43,1042.87 C1384.1,1042.87 1382.78,1042.87 1381.78,1043.86 L1351.66,1071.34 C1350.67,1072.33 1350.34,1073.65 1350.34,1074.98 L1350.34,1102.12 L1311.94,1102.12 C1311.94,1102.12 1349.02,1062.4 1388.07,1010.1 C1389.4,1008.45 1389.73,1006.79 1389.73,1005.47 C1389.73,1003.81 1389.07,1002.49 1388.74,1002.16 L1381.45,994.874 C1380.46,994.212 1379.47,993.55 1378.14,993.55 C1376.16,993.55 1331.47,993.55 1328.82,993.55 C1326.51,993.55 1324.85,995.536 1324.52,997.522 C1324.52,997.522 1322.87,1022.02 1314.26,1048.83 C1305.65,1075.64 1295.72,1092.19 1287.12,1104.44 C1287.12,1104.44 1286.13,1106.09 1286.13,1108.08 C1286.13,1108.74 1286.13,1109.4 1286.46,1110.06 C1287.45,1112.38 1289.77,1116.02 1289.77,1116.02 C1289.77,1116.02 1290.43,1118.01 1293.41,1118.01 L1350.34,1118.01 "/>
<path class="Beam" fill-rule="evenodd" d="M5783.28,2006.43 L5960.08,1985.76 L5960.08,2027.38 L5783.28,2048.05 L5783.28,2006.43 "/>
<path class="NoteDot" d="M5081.69,1903.23 C5081.69,1912.49 5088.97,1919.78 5098.24,1919.78 C5107.51,1919.78 5114.79,1912.49 5114.79,1903.23 C5114.79,1893.96 5107.51,1886.68 5098.24,1886.68 C5088.97,1886.68 5081.69,1893.96 5081.69,1903.23"/>
<path class="NoteDot" d="M1558.97,2523.31 C1558.97,2532.57 1566.25,2539.86 1575.52,2539.86 C1584.79,2539.86 1592.07,2532.57 1592.07,2523.31 C1592.07,2514.04 1584.79,2506.76 1575.52,2506.76 C1566.25,2506.76 1558.97,2514.04 1558.97,2523.31"/>
<path class="NoteDot" d="M8863.7,2771.34 C8863.7,2780.61 8870.98,2787.89 8880.25,2787.89 C8889.52,2787.89 8896.8,2780.61 8896.8,2771.34 C8896.8,2762.07 8889.52,2754.79 8880.25,2754.79 C8870.98,2754.79 8863.7,2762.07 8863.7,2771.34"/>
</svg>
