<?xml version="1.0" encoding="UTF-8" standalone="no"?>
<svg width="210.058mm" height="296.926mm" viewBox="0 0 9924 14028"
 xmlns="http://www.w3.org/2000/svg" xmlns:xlink="http://www.w3.org/1999/xlink" version="1.2" baseProfile="full">
<title>air_LIX</title>
<desc>Generated by MuseScore Studio 4.7.3</desc>
<polyline class="StaffLines" fill="none" stroke="#000000" stroke-width="9.09" stroke-linejoin="bevel" points="708.661,828.424 9215.34,828.424" />
<polyline class="StaffLines" fill="none" stroke="#000000" stroke-width="9.09" stroke-linejoin="bevel" points="708.661,911.101 9215.34,911.101" />
<polyline class="StaffLines" fill="none" stroke="#000000" stroke-width="9.09" stroke-linejoin="bevel" points="708.661,993.778 9215.34,993.778" />
<polyline class="StaffLines" fill="none" stroke="#000000" stroke-width="9.09" stroke-linejoin="bevel" points="708.661,1076.46 9215.34,1076.46" />
<polyline class="StaffLines" fill="none" stroke="#000000" stroke-width="9.09" stroke-linejoin="bevel" points="708.661,1159.13 9215.34,1159.13" />
<polyline class="BarLine" fill="none" stroke="#000000" stroke-width="14.88" stroke-linejoin="bevel" points="2655.47,823.876 2655.47,1163.68" />
<polyline class="BarLine" fill="none" stroke="#000000" stroke-width="14.88" stroke-linejoin="bevel" points="8204.78,823.876 8204.78,1163.68" />
<polyline class="BarLine" fill="none" stroke="#000000" stroke-width="14.88" stroke-linejoin="bevel" points="6810.47,823.876 6810.47,1163.68" />
<polyline class="BarLine" fill="none" stroke="#000000" stroke-width="14.88" stroke-linejoin="bevel" points="5416.16,823.876 5416.16,1163.68" />
<polyline class="BarLine" fill="none" stroke="#000000" stroke-width="14.88" stroke-linejoin="bevel" points="9131.84,823.876 9131.84,1163.68" />
<polyline class="BarLine" fill="none" stroke="#000000" stroke-width="45.47" stroke-linejoin="bevel" points="9192.6,823.876 9192.6,1163.68" />
<polyline class="BarLine" fill="none" stroke="#000000" stroke-width="14.88" stroke-linejoin="bevel" points="4021.85,823.876 4021.85,1163.68" />
<polyline class="Stem" fill="none" stroke="#000000" stroke-width="8.27" stroke-linejoin="bevel" points="2226.8,924.991 2226.8,1200.47" />
<polyline class="Stem" fill="none" stroke="#000000" stroke-width="8.27" stroke-linejoin="bevel" points="8319.7,924.991 8319.7,1200.47" />
<polyline class="Stem" fill="none" stroke="#000000" stroke-width="8.27" stroke-linejoin="bevel" points="1801.44,966.329 1801.44,1221.14" />
<polyline class="Stem" fill="none" stroke="#000000" stroke-width="8.27" stroke-linejoin="bevel" points="2770.39,883.652 2770.39,1159.13" />
<polyline class="Stem" fill="none" stroke="#000000" stroke-width="8.27" stroke-linejoin="bevel" points="7776.11,883.652 7776.11,1159.13" />
<polyline class="Stem" fill="none" stroke="#000000" stroke-width="8.27" stroke-linejoin="bevel" points="3309.61,842.313 3309.61,1117.46" />
<polyline class="Stem" fill="none" stroke="#000000" stroke-width="8.27" stroke-linejoin="bevel" points="7350.75,842.313 7350.75,1117.79" />
<polyline class="Stem" fill="none" stroke="#000000" stroke-width="8.27" stroke-linejoin="bevel" points="3593.18,800.975 3593.18,1076.46" />
<polyline class="Stem" fill="none" stroke="#000000" stroke-width="8.27" stroke-linejoin="bevel" points="6925.39,800.975 6925.39,1076.46" />
<polyline class="Stem" fill="none" stroke="#000000" stroke-width="8.27" stroke-linejoin="bevel" points="4136.77,966.329 4136.77,1221.14" />
<polyline class="Stem" fill="none" stroke="#000000" stroke-width="8.27" stroke-linejoin="bevel" points="6381.8,842.313 6381.8,1117.79" />
<polyline class="Stem" fill="none" stroke="#000000" stroke-width="8.27" stroke-linejoin="bevel" points="4562.13,924.991 4562.13,1200.47" />
<polyline class="Stem" fill="none" stroke="#000000" stroke-width="8.27" stroke-linejoin="bevel" points="1376.08,966.329 1376.08,1221.14" />
<polyline class="Stem" fill="none" stroke="#000000" stroke-width="8.27" stroke-linejoin="bevel" points="4987.49,883.652 4987.49,1159.13" />
<polyline class="Stem" fill="none" stroke="#000000" stroke-width="8.27" stroke-linejoin="bevel" points="5956.44,883.652 5956.44,1159.13" />
<polyline class="Stem" fill="none" stroke="#000000" stroke-width="8.27" stroke-linejoin="bevel" points="5531.08,924.991 5531.08,1200.47" />
<path class="Hook" d="M3305.47,1117.46 C3305.47,1119.78 3307.46,1121.77 3309.77,1121.77 C3311.43,1121.77 3313.42,1120.44 3313.75,1119.12 C3313.75,1118.79 3316.73,1107.2 3317.06,1106.21 C3317.39,1104.88 3320.37,1092.31 3332.28,1072.78 C3345.19,1051.26 3365.05,1035.71 3381.6,1012.54 C3397.82,989.366 3407.75,967.52 3407.75,938.392 C3407.75,908.271 3400.8,883.115 3383.26,851.008 C3382.26,848.691 3380.28,847.367 3378.29,847.367 C3377.63,847.367 3376.97,847.367 3376.64,847.698 C3374.98,848.36 3374.32,849.684 3374.32,851.67 C3374.32,852.663 3374.65,854.318 3375.31,855.642 C3388.55,886.425 3393.85,903.968 3393.85,927.8 C3393.85,955.273 3384.25,969.506 3378.29,979.767 C3356.78,1016.51 3322.02,1034.38 3308.12,1039.02 C3305.8,1040.01 3305.47,1041.66 3305.47,1042.66 L3305.47,1117.46 "/>
<path class="Note" d="M4558,925.003 C4558,939.236 4568.26,955.124 4595.07,955.124 C4629.49,955.124 4665.57,926.989 4665.57,897.861 C4665.57,878.332 4649.02,867.409 4628.5,867.409 C4596.39,867.409 4558,894.551 4558,925.003"/>
<path class="Note" d="M1797.3,966.341 C1797.3,980.574 1807.56,996.462 1834.37,996.462 C1868.8,996.462 1904.88,968.327 1904.88,939.199 C1904.88,919.67 1888.33,908.747 1867.81,908.747 C1835.7,908.747 1797.3,935.889 1797.3,966.341"/>
<path class="Note" d="M5526.95,925.003 C5526.95,939.236 5537.21,955.124 5564.02,955.124 C5598.44,955.124 5634.52,926.989 5634.52,897.861 C5634.52,878.332 5617.97,867.409 5597.45,867.409 C5565.34,867.409 5526.95,894.551 5526.95,925.003"/>
<path class="Note" d="M4983.36,883.664 C4983.36,897.897 4993.62,913.785 5020.43,913.785 C5054.85,913.785 5090.93,885.65 5090.93,856.522 C5090.93,836.993 5074.38,826.07 5053.86,826.07 C5021.75,826.07 4983.36,853.212 4983.36,883.664"/>
<path class="Note" d="M5952.31,883.664 C5952.31,897.897 5962.57,913.785 5989.38,913.785 C6023.8,913.785 6059.88,885.65 6059.88,856.522 C6059.88,836.993 6043.33,826.07 6022.81,826.07 C5990.7,826.07 5952.31,853.212 5952.31,883.664"/>
<path class="Note" d="M4132.63,966.341 C4132.63,980.574 4142.9,996.462 4169.71,996.462 C4204.13,996.462 4240.21,968.327 4240.21,939.199 C4240.21,919.67 4223.66,908.747 4203.14,908.747 C4171.03,908.747 4132.63,935.889 4132.63,966.341"/>
<path class="Note" d="M6377.67,842.326 C6377.67,856.559 6387.93,872.447 6414.74,872.447 C6449.16,872.447 6485.24,844.312 6485.24,815.184 C6485.24,795.655 6468.69,784.732 6448.17,784.732 C6416.06,784.732 6377.67,811.874 6377.67,842.326"/>
<path class="Note" d="M1371.94,966.341 C1371.94,980.574 1382.2,996.462 1409.01,996.462 C1443.44,996.462 1479.52,968.327 1479.52,939.199 C1479.52,919.67 1462.97,908.747 1442.44,908.747 C1410.34,908.747 1371.94,935.889 1371.94,966.341"/>
<path class="Note" d="M3589.05,800.987 C3589.05,815.22 3599.31,831.108 3626.12,831.108 C3660.54,831.108 3696.62,802.973 3696.62,773.845 C3696.62,754.316 3680.07,743.393 3659.55,743.393 C3627.44,743.393 3589.05,770.535 3589.05,800.987"/>
<path class="Note" d="M6921.26,800.987 C6921.26,815.22 6931.52,831.108 6958.33,831.108 C6992.75,831.108 7028.83,802.973 7028.83,773.845 C7028.83,754.316 7012.28,743.393 6991.76,743.393 C6959.65,743.393 6921.26,770.535 6921.26,800.987"/>
<path class="Note" d="M3305.47,842.326 C3305.47,856.559 3315.73,872.447 3342.54,872.447 C3376.97,872.447 3413.05,844.312 3413.05,815.184 C3413.05,795.655 3396.5,784.732 3375.97,784.732 C3343.87,784.732 3305.47,811.874 3305.47,842.326"/>
<path class="Note" d="M7346.62,842.326 C7346.62,856.559 7356.88,872.447 7383.69,872.447 C7418.11,872.447 7454.19,844.312 7454.19,815.184 C7454.19,795.655 7437.64,784.732 7417.12,784.732 C7385.01,784.732 7346.62,811.874 7346.62,842.326"/>
<path class="Note" d="M7771.98,883.664 C7771.98,897.897 7782.24,913.785 7809.05,913.785 C7843.48,913.785 7879.55,885.65 7879.55,856.522 C7879.55,836.993 7863,826.07 7842.48,826.07 C7810.38,826.07 7771.98,853.212 7771.98,883.664"/>
<path class="Note" d="M2766.25,883.664 C2766.25,897.897 2776.51,913.785 2803.33,913.785 C2837.75,913.785 2873.83,885.65 2873.83,856.522 C2873.83,836.993 2857.28,826.07 2836.76,826.07 C2804.65,826.07 2766.25,853.212 2766.25,883.664"/>
<path class="Note" d="M2222.66,925.003 C2222.66,939.236 2232.92,955.124 2259.74,955.124 C2294.16,955.124 2330.24,926.989 2330.24,897.861 C2330.24,878.332 2313.69,867.409 2293.17,867.409 C2261.06,867.409 2222.66,894.551 2222.66,925.003"/>
<path class="Note" d="M8340.39,939.567 C8329.47,939.567 8327.15,930.63 8327.15,927.651 C8327.15,911.432 8382.76,882.966 8398.32,882.966 C8406.26,882.966 8411.56,887.6 8411.56,894.882 C8411.56,911.432 8355.62,939.567 8340.39,939.567 M8386.07,867.409 C8353.97,867.409 8315.57,894.22 8315.57,925.003 C8315.57,939.236 8325.83,955.124 8352.64,955.124 C8387.07,955.124 8423.14,926.989 8423.14,897.861 C8423.14,878.332 8406.59,867.409 8386.07,867.409"/>
<path class="Clef" d="M909.689,1144.64 C903.069,1145.97 896.78,1146.63 890.491,1146.63 C843.158,1146.63 802.776,1113.53 802.776,1063.55 C802.776,1023.16 831.242,987.085 860.37,961.929 C865.997,956.964 871.293,952.33 876.258,947.365 C879.237,965.239 881.554,980.796 883.871,994.367 C853.75,1003.3 833.228,1035.08 833.228,1066.19 C833.228,1089.36 851.433,1121.14 877.913,1121.14 C880.561,1121.14 883.54,1119.82 883.54,1116.84 C883.54,1113.86 880.23,1112.2 876.258,1109.56 C863.349,1101.61 856.067,1093.01 856.067,1076.79 C856.067,1056.6 870.962,1040.38 890.491,1035.74 L909.689,1144.64 M880.561,804.373 C883.54,791.133 898.766,756.378 915.978,756.378 C920.943,756.378 928.887,772.597 928.887,795.436 C928.887,829.86 903.4,855.678 880.561,878.186 C878.575,864.946 876.92,852.037 876.92,838.135 C876.92,825.888 877.913,814.634 880.561,804.373 M956.691,1083.41 C956.691,1106.91 947.092,1131.07 923.591,1140.67 C916.64,1100.95 907.703,1048.32 905.386,1033.76 C935.176,1033.76 956.691,1053.95 956.691,1083.41 M811.051,1246.26 C811.051,1268.1 827.932,1296.9 872.617,1296.9 C888.174,1296.9 901.745,1292.93 913.661,1285.65 C931.535,1273.07 936.169,1251.22 936.169,1230.37 C936.169,1217.46 934.183,1202.57 930.873,1183.7 C929.88,1177.08 927.894,1167.15 925.908,1154.24 C958.346,1143.65 982.509,1109.89 982.509,1075.79 C982.509,1025.81 947.092,992.05 898.766,992.05 C895.456,972.19 892.146,952.661 889.167,934.125 C924.253,897.384 948.416,856.009 948.416,803.38 C948.416,773.259 939.148,748.765 933.852,736.849 C925.908,719.968 916.309,708.383 910.351,708.383 C908.034,708.383 897.773,712.355 886.85,725.264 C865.666,750.42 859.708,792.788 859.708,820.592 C859.708,838.466 861.363,854.685 866.99,891.757 C866.659,892.088 849.447,909.631 842.496,915.258 C812.375,943.393 770.669,983.444 770.669,1049.64 C770.669,1111.54 824.622,1160.2 886.188,1160.2 C895.787,1160.2 904.724,1159.21 912.337,1157.88 C918.626,1189.66 922.267,1212.83 922.267,1230.37 C922.267,1264.79 904.724,1283 871.293,1283 C863.349,1283 856.398,1281.34 855.736,1281.34 C855.405,1281.01 854.743,1280.68 854.743,1280.35 C854.743,1279.69 855.405,1279.36 856.398,1279.03 C871.955,1276.71 887.512,1263.47 887.512,1242.29 C887.512,1224.41 873.941,1205.55 849.116,1205.55 C825.946,1205.55 811.051,1224.41 811.051,1246.26"/>
<path class="TimeSig" d="M1163.47,907.779 C1189.95,897.518 1191.61,880.306 1191.61,874.348 L1191.61,872.693 C1191.61,869.714 1190.62,832.311 1133.68,832.311 C1076.75,832.311 1078.41,872.693 1078.41,872.693 L1078.74,872.693 L1078.41,873.355 C1078.41,885.271 1088.01,894.539 1099.92,894.539 C1111.84,894.539 1121.11,885.271 1121.11,873.355 C1121.11,863.756 1113.82,854.488 1104.56,852.502 L1105.55,851.509 C1110.18,848.199 1116.47,846.544 1122.76,846.544 C1136.66,846.544 1151.56,854.819 1151.56,872.693 C1151.56,893.546 1136,896.525 1132.03,897.187 C1128.06,897.849 1109.52,899.173 1105.55,899.173 C1101.58,899.173 1101.25,903.807 1101.25,903.807 L1101.25,910.427 C1101.25,910.427 1101.91,914.068 1105.55,914.399 C1111.18,914.73 1118.79,914.73 1129.38,916.385 C1143.95,918.371 1151.56,928.301 1151.56,951.471 C1151.56,973.648 1136.66,979.606 1122.76,979.606 C1113.49,979.606 1104.89,976.958 1101.25,974.31 C1112.17,973.648 1121.11,964.049 1121.11,953.126 C1121.11,941.21 1111.84,931.611 1099.92,931.611 C1088.01,931.611 1078.41,941.21 1078.41,953.126 C1078.41,980.268 1103.23,993.839 1127.73,993.839 C1159.5,993.839 1193.93,982.916 1193.93,946.837 C1193.93,922.674 1177.38,912.413 1162.81,907.779 L1163.47,907.779 "/>
<path class="TimeSig" d="M1129.24,1118.01 L1129.24,1142.5 L1101.77,1142.5 C1099.45,1142.5 1097.14,1144.49 1097.14,1147.13 L1097.14,1153.42 C1097.14,1156.07 1099.45,1158.06 1101.77,1158.06 L1202.06,1158.06 C1204.71,1158.06 1206.7,1156.07 1206.7,1153.42 L1206.7,1147.13 C1206.7,1144.49 1204.71,1142.5 1202.06,1142.5 L1172.27,1142.5 L1172.27,1118.01 L1202.06,1118.01 C1204.71,1118.01 1206.7,1115.69 1206.7,1113.04 L1206.7,1106.75 C1206.7,1104.44 1204.71,1102.12 1202.06,1102.12 L1172.27,1102.12 L1172.27,1049.49 C1172.27,1047.5 1171.28,1045.85 1169.96,1045.19 L1165.98,1043.2 C1165.32,1042.87 1164.99,1042.87 1164.33,1042.87 C1163.01,1042.87 1161.68,1042.87 1160.69,1043.86 L1130.57,1071.34 C1129.57,1072.33 1129.24,1073.65 1129.24,1074.98 L1129.24,1102.12 L1090.85,1102.12 C1090.85,1102.12 1127.92,1062.4 1166.98,1010.1 C1168.3,1008.45 1168.63,1006.79 1168.63,1005.47 C1168.63,1003.81 1167.97,1002.49 1167.64,1002.16 L1160.36,994.874 C1159.36,994.212 1158.37,993.55 1157.05,993.55 C1155.06,993.55 1110.38,993.55 1107.73,993.55 C1105.41,993.55 1103.76,995.536 1103.43,997.522 C1103.43,997.522 1101.77,1022.02 1093.16,1048.83 C1084.56,1075.64 1074.63,1092.19 1066.02,1104.44 C1066.02,1104.44 1065.03,1106.09 1065.03,1108.08 C1065.03,1108.74 1065.03,1109.4 1065.36,1110.06 C1066.35,1112.38 1068.67,1116.02 1068.67,1116.02 C1068.67,1116.02 1069.33,1118.01 1072.31,1118.01 L1129.24,1118.01 "/>
<path class="NoteDot" d="M2915.09,869.762 C2915.09,879.03 2922.37,886.312 2931.64,886.312 C2940.9,886.312 2948.19,879.03 2948.19,869.762 C2948.19,860.494 2940.9,853.212 2931.64,853.212 C2922.37,853.212 2915.09,860.494 2915.09,869.762"/>
<path class="NoteDot" d="M8464.4,869.762 C8464.4,879.03 8471.68,886.312 8480.95,886.312 C8490.22,886.312 8497.5,879.03 8497.5,869.762 C8497.5,860.494 8490.22,853.212 8480.95,853.212 C8471.68,853.212 8464.4,860.494 8464.4,869.762"/>
</svg>
