<?xml version="1.0" encoding="UTF-8" standalone="no"?>
<svg
   width="681"
   height="186.10622"
   version="1.2"
   id="svg185"
   xmlns="http://www.w3.org/2000/svg"
   xmlns:svg="http://www.w3.org/2000/svg"
   xmlns:rdf="http://www.w3.org/1999/02/22-rdf-syntax-ns#"
   xmlns:cc="http://creativecommons.org/ns#"
   xmlns:dc="http://purl.org/dc/elements/1.1/">
  <defs
     id="defs185" />
  <title
     id="title1">air_XLIX</title>
  <desc
     id="desc1">Generated by MuseScore Studio 4.7.3</desc>
  <path
     id="path185"
     class="NoteDot"
     d="m 609.49512,165.14948 c 0,0.74211 0.5828,1.32491 1.32491,1.32491 0.74211,0 1.32491,-0.5828 1.32491,-1.32491 0,-0.74211 -0.5828,-1.32491 -1.32491,-1.32491 -0.74211,0 -1.32491,0.5828 -1.32491,1.32491 M 373.10549,89.034237 c 0,0.742107 0.5828,1.324906 1.32491,1.324906 0.74211,0 1.32491,-0.582799 1.32491,-1.324906 0,-0.742107 -0.5828,-1.324906 -1.32491,-1.324906 -0.74211,0 -1.32491,0.582799 -1.32491,1.324906 M 630.88255,26.156845 c 0,0.741307 0.5828,1.324906 1.3249,1.324906 0.74211,0 1.32491,-0.583599 1.32491,-1.324906 0,-0.742108 -0.5828,-1.324906 -1.32491,-1.324906 -0.7421,0 -1.3249,0.582798 -1.3249,1.324906 M 313.2958,12.919153 c 0,0.741948 0.5828,1.324906 1.32491,1.324906 0.7421,0 1.3249,-0.582958 1.3249,-1.324906 0,-0.741947 -0.5828,-1.324905 -1.3249,-1.324905 -0.74211,0 -1.32491,0.582958 -1.32491,1.324905 m 10.61766,62.870828 17.88343,1.654732 v 3.323072 l -17.88343,-1.654732 v -3.323072 m 182.82501,26.474899 17.88342,1.65473 v 3.32308 l -17.88342,-1.65473 v -3.32308 m -225.21079,4.9634 17.88343,1.65473 v 3.32387 l -17.88343,-1.65473 v -3.32387 m -26.50132,-33.09303 17.88343,-1.654732 v 3.323073 l -17.88343,1.654731 V 74.13525 m -103.51558,28.12963 17.88423,1.65473 v 3.32308 l -17.88423,-1.65473 v -3.32308 m 394.80675,43.02462 25.53266,1.65473 v 3.31667 l -25.53266,-1.65473 v -3.31667 m -496.436237,31.4391 25.532658,1.65473 v 3.31587 l -25.532658,-1.65474 v -3.31586 m 438.753597,0 25.53185,1.65473 v 3.31587 l -25.53185,-1.65474 v -3.31586 m 34.00805,-143.960035 18.03393,1.654732 v 3.323072 L 522.64294,36.091638 V 32.768565 M 305.07818,171.7644 l 25.53186,1.65473 v 3.31667 l -25.53186,-1.65473 v -3.31667 m 141.75853,-28.12963 25.53185,-1.65473 v 3.31667 l -25.53185,1.65473 v -3.31667 M 45.09402,32.792582 v 1.96054 h -2.199104 c -0.185727,0 -0.370653,0.159309 -0.370653,0.370654 v 0.503544 c 0,0.212145 0.184926,0.371454 0.370653,0.371454 h 8.02869 c 0.212145,0 0.371454,-0.159309 0.371454,-0.371454 v -0.503544 c 0,-0.211345 -0.159309,-0.370654 -0.371454,-0.370654 h -2.384831 v -1.96054 h 2.384831 c 0.212145,0 0.371454,-0.185727 0.371454,-0.397872 v -0.503544 c 0,-0.184927 -0.159309,-0.370654 -0.371454,-0.370654 h -2.384831 v -4.213281 c 0,-0.159309 -0.07925,-0.291399 -0.184926,-0.344235 l -0.317817,-0.159309 c -0.05364,-0.02642 -0.08006,-0.02642 -0.132891,-0.02642 -0.105672,0 -0.212145,0 -0.291399,0.07925 l -2.411249,2.199904 c -0.07925,0.07925 -0.106473,0.184927 -0.106473,0.2914 v 2.172685 h -3.073301 c 0,0 2.967629,-3.179774 6.094567,-7.366637 0.105672,-0.13209 0.13209,-0.264981 0.13209,-0.370653 0,-0.132891 -0.05284,-0.238563 -0.07925,-0.264981 l -0.582798,-0.583279 c -0.07926,-0.053 -0.159309,-0.105993 -0.264982,-0.105993 -0.159309,0 -3.736154,0 -3.948299,0 -0.185727,0 -0.317818,0.158989 -0.344236,0.317978 0,0 -0.132891,1.961181 -0.821361,4.107448 -0.689272,2.146268 -1.484215,3.471174 -2.173486,4.451844 0,0 -0.07926,0.13209 -0.07926,0.291399 0,0.05284 0,0.105673 0.02642,0.158509 0.07925,0.185727 0.264981,0.477126 0.264981,0.477126 0,0 0.05284,0.159309 0.291399,0.159309 h 4.557516 m 2.741074,-16.829988 c 2.11985,-0.821441 2.25194,-2.199343 2.25194,-2.67631 v -0.13249 c 0,-0.238483 -0.07925,-3.2327705 -4.63677,-3.2327705 -4.558317,0 -4.425426,3.2327705 -4.425426,3.2327705 h 0.02642 l -0.02642,0.053 c 0,0.953932 0.768525,1.69588 1.721977,1.69588 0.954253,0 1.69636,-0.741948 1.69636,-1.69588 0,-0.768445 -0.582798,-1.510393 -1.324906,-1.669381 l 0.07925,-0.07949 c 0.370654,-0.264981 0.874198,-0.397471 1.377742,-0.397471 1.112761,0 2.305577,0.662452 2.305577,2.093351 0,1.669381 -1.245652,1.907864 -1.563469,1.960861 -0.317817,0.053 -1.802032,0.158988 -2.11985,0.158988 -0.317817,0 -0.344235,0.370974 -0.344235,0.370974 v 0.529962 c 0,0 0.05284,0.29148 0.344235,0.317978 0.450709,0.0265 1.059925,0.0265 1.907705,0.158988 1.166397,0.158989 1.775614,0.953933 1.775614,2.808801 0,1.775374 -1.192816,2.25234 -2.305577,2.25234 -0.742107,0 -1.430578,-0.211985 -1.721977,-0.42397 0.874198,-0.053 1.589887,-0.821442 1.589887,-1.695879 0,-0.953933 -0.742107,-1.722378 -1.69636,-1.722378 -0.953452,0 -1.721977,0.768445 -1.721977,1.722378 0,2.172845 1.986958,3.259268 3.948299,3.259268 2.543339,0 5.299624,-0.874438 5.299624,-3.762733 0,-1.934362 -1.324906,-2.755804 -2.491303,-3.126778 h 0.05364 M 28.940575,7.64899 31.298988,7.1720239 v 4.3721891 l -2.358413,0.503465 V 7.64899 m 4.107609,-0.8214417 c 0.159309,-0.026498 0.291399,-0.2119849 0.291399,-0.3709736 v -1.563389 c 0,-0.2119849 -0.159309,-0.3709736 -0.370653,-0.3709736 H 32.91529 L 32.041095,4.7076989 V 0.75947929 H 31.298988 V 4.8666876 L 28.940575,5.3436537 V 1.6074191 h -0.741307 v 3.8952233 l -1.033506,0.211985 c -0.159309,0.026498 -0.2914,0.2119849 -0.2914,0.3709736 v 1.5368909 c 0,0.2119849 0.158509,0.3709736 0.370654,0.3709736 h 0.07925 l 0.874998,-0.1854868 v 4.3721893 l -1.033506,0.211985 c -0.159309,0.0265 -0.2914,0.211985 -0.2914,0.370974 v 1.536891 c 0,0.211985 0.158509,0.370973 0.370654,0.370973 h 0.07925 l 0.874998,-0.185487 v 3.94822 h 0.741307 V 14.326516 L 31.29898,13.84955 v 3.736234 h 0.742107 v -3.895223 l 1.007089,-0.185487 c 0.159309,-0.0265 0.291399,-0.211985 0.291399,-0.370974 v -1.563389 c 0,-0.211984 -0.159309,-0.370973 -0.370653,-0.370973 h -0.05364 l -0.874198,0.185487 V 7.0130351 l 1.0071,-0.1854868 M 28.940575,146.64163 31.298988,146.1645 v 4.37259 l -2.358413,0.50354 v -4.399 m 4.107609,-0.82137 c 0.159309,-0.0264 0.291399,-0.21214 0.291399,-0.37065 v -1.56347 c 0,-0.21214 -0.159309,-0.37145 -0.370653,-0.37145 h -0.05364 l -0.874198,0.18572 v -3.94829 h -0.742107 v 4.1076 l -2.358413,0.47633 v -3.73616 h -0.741307 v 3.89547 l -1.033506,0.21214 c -0.159309,0.0264 -0.2914,0.21215 -0.2914,0.37066 v 1.53705 c 0,0.21214 0.158509,0.37065 0.370654,0.37065 h 0.07925 l 0.874998,-0.18493 v 4.37179 l -1.033506,0.21215 c -0.159309,0.0264 -0.2914,0.21214 -0.2914,0.37065 v 1.53705 c 0,0.21215 0.158509,0.37146 0.370654,0.37146 h 0.07925 l 0.874998,-0.18573 v 3.9483 h 0.741307 v -4.10761 l 2.358413,-0.47712 v 3.73695 h 0.742107 v -3.89546 l 1.007089,-0.18573 c 0.159309,-0.0264 0.291399,-0.21215 0.291399,-0.37065 v -1.56347 c 0,-0.21215 -0.159309,-0.37146 -0.370653,-0.37146 h -0.05364 l -0.874198,0.18573 v -4.37179 l 1.007089,-0.18573 m -4.107609,-68.674952 2.358413,-0.477126 v 4.372589 l -2.358413,0.503545 v -4.399008 m 4.107609,-0.821362 c 0.159309,-0.02642 0.291399,-0.212145 0.291399,-0.371454 v -1.562668 c 0,-0.212145 -0.159309,-0.371454 -0.370653,-0.371454 h -0.05364 l -0.874198,0.185727 v -3.9483 h -0.742107 v 4.106808 l -2.358413,0.477126 v -3.736154 h -0.741307 v 3.895463 l -1.033506,0.212145 c -0.159309,0.02642 -0.2914,0.211345 -0.2914,0.370654 v 1.537051 c 0,0.212145 0.158509,0.370653 0.370654,0.370653 h 0.07925 l 0.874998,-0.184926 v 4.371789 l -1.033506,0.212145 c -0.159309,0.02642 -0.2914,0.212145 -0.2914,0.370654 v 1.53705 c 0,0.212146 0.158509,0.370654 0.370654,0.370654 h 0.07925 l 0.874998,-0.184927 v 3.9483 h 0.741307 v -4.107608 l 2.358413,-0.477127 v 3.736155 h 0.742107 v -3.894663 l 1.007089,-0.185727 c 0.159309,-0.02642 0.291399,-0.212145 0.291399,-0.370653 v -1.56347 c 0,-0.212145 -0.159309,-0.371453 -0.370653,-0.371453 h -0.05364 l -0.874198,0.185726 v -4.371789 l 1.007089,-0.185727 M 16.093311,34.924439 c -0.529962,0.106473 -1.033427,0.159309 -1.536891,0.159309 -3.789231,0 -7.0220012,-2.649811 -7.0220012,-6.650947 0,-3.233411 2.2788382,-6.121386 4.6106722,-8.135243 0.450468,-0.397471 0.874438,-0.768445 1.27191,-1.165917 0.238483,1.430899 0.42397,2.67631 0.609457,3.762733 -2.411329,0.715129 -4.0542123,3.259268 -4.0542123,5.749771 0,1.854869 1.4573963,4.399008 3.5772463,4.399008 0.211985,0 0.450468,-0.105672 0.450468,-0.344235 0,-0.238563 -0.264982,-0.371454 -0.582959,-0.582799 -1.033427,-0.636435 -1.616385,-1.324906 -1.616385,-2.623393 0,-1.616306 1.192415,-2.914793 2.755804,-3.286247 l 1.536891,8.71796 M 13.761477,7.6844542 c 0.238483,-1.0599247 1.457396,-3.8422271 2.835298,-3.8422271 0.397472,0 1.033427,1.2984078 1.033427,3.1267779 0,2.7558043 -2.040355,4.822658 -3.868725,6.62453 -0.158989,-1.059925 -0.29148,-2.093352 -0.29148,-3.206273 0,-0.9804301 0.0795,-1.8813661 0.29148,-2.7028078 m 6.094567,22.3382338 c 0,1.881286 -0.768446,3.815409 -2.649812,4.583934 -0.556461,-3.179774 -1.27191,-7.393055 -1.457397,-8.558652 2.384831,0 4.107209,1.616305 4.107209,3.974718 M 8.1968718,43.059602 c 0,1.748395 1.351404,4.053972 4.9286502,4.053972 1.245411,0 2.331834,-0.317818 3.285766,-0.900616 1.430899,-1.007089 1.801872,-2.756285 1.801872,-4.425426 0,-1.033507 -0.158988,-2.225522 -0.423969,-3.736154 -0.07949,-0.529963 -0.238484,-1.324906 -0.397472,-2.358413 2.596815,-0.84778 4.531178,-3.550428 4.531178,-6.280294 0,-4.001136 -2.835299,-6.703784 -6.704024,-6.703784 -0.264981,-1.589887 -0.529962,-3.153276 -0.768445,-4.637171 2.8088,-2.941291 4.743163,-6.253555 4.743163,-10.4667561 0,-2.4113288 -0.741948,-4.3721895 -1.165917,-5.3261218 C 17.391719,0.92743413 16.623273,0 16.146307,0 15.96082,0 15.139379,0.31797742 14.264941,1.351404 c -1.69588,2.013857 -2.172846,5.4056161 -2.172846,7.631458 0,1.430898 0.132491,2.729306 0.582959,5.697095 -0.0265,0.0265 -1.404401,1.430899 -1.960861,1.881367 -2.4113287,2.25234 -5.7500916,5.458612 -5.7500916,10.757915 0,4.955389 4.3191932,8.850852 9.2478436,8.850852 0.768445,0 1.483894,-0.07925 2.093351,-0.185727 0.503464,2.54414 0.794943,4.399008 0.794943,5.803168 0,2.755484 -1.4044,4.213281 -4.08071,4.213281 -0.635955,0 -1.192415,-0.132891 -1.245411,-0.132891 -0.0265,-0.02642 -0.07949,-0.05284 -0.07949,-0.07925 0,-0.05284 0.053,-0.07925 0.132491,-0.105672 1.245412,-0.185727 2.490823,-1.245652 2.490823,-2.941211 0,-1.431379 -1.086423,-2.941211 -3.073782,-2.941211 -1.8548679,0 -3.0472832,1.509832 -3.0472832,3.259028 M 16.093311,173.91708 c -0.529962,0.10647 -1.033427,0.1593 -1.536891,0.1593 -3.789231,0 -7.0220012,-2.64981 -7.0220012,-6.65094 0,-3.23341 2.2788382,-6.12099 4.6106722,-8.13517 0.450468,-0.39787 0.874438,-0.76852 1.27191,-1.16559 0.238483,1.43058 0.42397,2.67623 0.609457,3.76257 -2.411329,0.71489 -4.0542123,3.25903 -4.0542123,5.74953 0,1.85487 1.4573963,4.39901 3.5772463,4.39901 0.211985,0 0.450468,-0.10567 0.450468,-0.34424 0,-0.23856 -0.264982,-0.37145 -0.582959,-0.58279 -1.033427,-0.63644 -1.616385,-1.32491 -1.616385,-2.6234 0,-1.6163 1.192415,-2.91479 2.755804,-3.28625 l 1.536891,8.71797 m -2.331834,-27.24023 c 0.238483,-1.05992 1.457396,-3.84183 2.835298,-3.84183 0.397472,0 1.033427,1.29849 1.033427,3.12694 0,2.75549 -2.040355,4.8225 -3.868725,6.62453 -0.158989,-1.05992 -0.29148,-2.09343 -0.29148,-3.20619 0,-0.98067 0.0795,-1.88209 0.29148,-2.70345 m 6.094567,22.33847 c 0,1.88129 -0.768446,3.81541 -2.649812,4.58394 -0.556461,-3.17978 -1.27191,-7.39306 -1.457397,-8.55865 2.384831,0 4.107209,1.6163 4.107209,3.97471 M 8.1968718,182.05224 c 0,1.74839 1.351404,4.05397 4.9286502,4.05397 1.245411,0 2.331834,-0.31782 3.285766,-0.90062 1.430899,-1.00708 1.801872,-2.75628 1.801872,-4.42542 0,-1.03351 -0.158988,-2.22552 -0.423969,-3.73616 -0.07949,-0.52996 -0.238484,-1.3249 -0.397472,-2.35841 2.596815,-0.84778 4.531178,-3.55043 4.531178,-6.28029 0,-4.00114 -2.835299,-6.70379 -6.704024,-6.70379 -0.264981,-1.58988 -0.529962,-3.15335 -0.768445,-4.63677 2.8088,-2.94201 4.743163,-6.25387 4.743163,-10.46715 0,-2.41125 -0.741948,-4.37179 -1.165917,-5.32605 -0.635955,-1.35132 -1.404401,-2.27915 -1.881367,-2.27915 -0.185487,0 -1.006928,0.31861 -1.881366,1.35132 -1.69588,2.01418 -2.172846,5.4061 -2.172846,7.63162 0,1.43138 0.132491,2.72986 0.582959,5.69749 -0.0265,0.0264 -1.404401,1.43058 -1.960861,1.88129 -2.4113287,2.25194 -5.7500916,5.45813 -5.7500916,10.75776 0,4.95538 4.3191932,8.85085 9.2478436,8.85085 0.768445,0 1.483894,-0.0793 2.093351,-0.18573 0.503464,2.54414 0.794943,4.39901 0.794943,5.80317 0,2.75548 -1.4044,4.21328 -4.08071,4.21328 -0.635955,0 -1.192415,-0.13289 -1.245411,-0.13289 -0.0265,-0.0264 -0.07949,-0.0528 -0.07949,-0.0793 0,-0.0528 0.053,-0.0792 0.132491,-0.10567 1.245412,-0.18573 2.490823,-1.24565 2.490823,-2.94121 0,-1.43138 -1.086423,-2.94121 -3.073782,-2.94121 -1.8548679,0 -3.0472832,1.50983 -3.0472832,3.25903 m 7.8964392,-77.63148 c -0.529962,0.10647 -1.033427,0.15931 -1.536891,0.15931 -3.789231,0 -7.0220012,-2.64982 -7.0220012,-6.650951 0,-3.233411 2.2788382,-6.120985 4.6106722,-8.135163 0.450468,-0.397872 0.874438,-0.768525 1.27191,-1.165597 0.238483,1.430579 0.42397,2.67623 0.609457,3.762573 -2.411329,0.714889 -4.0542123,3.259028 -4.0542123,5.749531 0,1.854869 1.4573963,4.399007 3.5772463,4.399007 0.211985,0 0.450468,-0.10567 0.450468,-0.34423 0,-0.23857 -0.264982,-0.37146 -0.582959,-0.5828 -1.033427,-0.63644 -1.616385,-1.32491 -1.616385,-2.623396 0,-1.616306 1.192415,-2.914793 2.755804,-3.286247 l 1.536891,8.717963 M 13.761477,77.180532 c 0.238483,-1.059925 1.457396,-3.841827 2.835298,-3.841827 0.397472,0 1.033427,1.298488 1.033427,3.126938 0,2.755484 -2.040355,4.822498 -3.868725,6.62453 -0.158989,-1.059925 -0.29148,-2.093432 -0.29148,-3.206193 0,-0.98067 0.0795,-1.882086 0.29148,-2.703448 m 6.094567,22.338474 c 0,1.881284 -0.768446,3.815404 -2.649812,4.583934 -0.556461,-3.17977 -1.27191,-7.393055 -1.457397,-8.558652 2.384831,0 4.107209,1.616305 4.107209,3.974718 M 8.1968718,112.55592 c 0,1.7484 1.351404,4.05397 4.9286502,4.05397 1.245411,0 2.331834,-0.31782 3.285766,-0.90061 1.430899,-1.00709 1.801872,-2.75629 1.801872,-4.42543 0,-1.03351 -0.158988,-2.22552 -0.423969,-3.73615 -0.07949,-0.52997 -0.238484,-1.32491 -0.397472,-2.35842 2.596815,-0.84778 4.531178,-3.55042 4.531178,-6.280291 0,-4.001136 -2.835299,-6.703784 -6.704024,-6.703784 -0.264981,-1.589887 -0.529962,-3.153356 -0.768445,-4.63677 2.8088,-2.942012 4.743163,-6.253876 4.743163,-10.467157 0,-2.411249 -0.741948,-4.371789 -1.165917,-5.326042 -0.635955,-1.351324 -1.404401,-2.279158 -1.881367,-2.279158 -0.185487,0 -1.006928,0.318618 -1.881366,1.351324 -1.69588,2.014177 -2.172846,5.406096 -2.172846,7.631618 0,1.431379 0.132491,2.729866 0.582959,5.697495 -0.0265,0.02642 -1.404401,1.430579 -1.960861,1.881287 -2.4113287,2.25194 -5.7500916,5.458132 -5.7500916,10.757755 0,4.955393 4.3191932,8.850853 9.2478436,8.850853 0.768445,0 1.483894,-0.0793 2.093351,-0.18573 0.503464,2.54414 0.794943,4.39901 0.794943,5.80317 0,2.75548 -1.4044,4.21328 -4.08071,4.21328 -0.635955,0 -1.192415,-0.13289 -1.245411,-0.13289 -0.0265,-0.0264 -0.07949,-0.0528 -0.07949,-0.0793 0,-0.0528 0.053,-0.0793 0.132491,-0.10568 1.245412,-0.18572 2.490823,-1.24565 2.490823,-2.94121 0,-1.43138 -1.086423,-2.94121 -3.073782,-2.94121 -1.8548679,0 -3.0472832,1.50983 -3.0472832,3.25903 M 471.44073,86.837535 c 0,1.139979 0.82136,2.411249 2.96843,2.411249 2.75548,0 5.64386,-2.25194 5.64386,-4.583935 0,-1.563469 -1.32491,-2.437666 -2.96763,-2.437666 -2.57056,0 -5.64466,2.172685 -5.64466,4.610352 M 360.3952,17.341457 c 0,1.139419 0.82136,2.411329 2.96763,2.411329 2.75549,0 5.64386,-2.25234 5.64386,-4.584175 0,-1.563388 -1.3249,-2.437826 -2.96763,-2.437826 -2.57056,0 -5.64386,2.172845 -5.64386,4.610672 m 26.05782,-9.9280681 c 0,1.1394191 0.82136,2.4113287 2.96763,2.4113287 2.75628,0 5.64466,-2.25234 5.64466,-4.5841744 0,-1.563389 -1.32491,-2.4378268 -2.96843,-2.4378268 -2.56976,0 -5.64386,2.1728456 -5.64386,4.6106725 M 392.1241,162.95278 c 0,1.13918 0.82136,2.41125 2.96763,2.41125 2.75628,0 5.64466,-2.25194 5.64466,-4.58394 0,-1.56347 -1.32491,-2.43766 -2.96843,-2.43766 -2.56976,0 -5.64386,2.17268 -5.64386,4.61035 M 412.51084,17.341457 c 0,1.139419 0.82136,2.411329 2.96763,2.411329 2.75628,0 5.64466,-2.25234 5.64466,-4.584175 0,-1.563388 -1.32491,-2.437826 -2.96843,-2.437826 -2.56976,0 -5.64386,2.172845 -5.64386,4.610672 M 354.81859,159.64332 c 0,1.13917 0.82136,2.41124 2.96763,2.41124 2.75628,0 5.64466,-2.25194 5.64466,-4.58393 0,-1.56347 -1.32491,-2.43767 -2.96763,-2.43767 -2.57056,0 -5.64466,2.17269 -5.64466,4.61036 M 450.02128,15.197992 c -0.87499,0 -1.05992,-0.71545 -1.05992,-0.953933 0,-1.298407 4.45104,-3.577246 5.6967,-3.577246 0.63563,0 1.05992,0.370974 1.05992,0.953933 0,1.324906 -4.47826,3.577246 -5.6967,3.577246 m 3.6561,-5.7765901 c -2.56975,0 -5.64385,2.1463471 -5.64385,4.6106721 0,1.139419 0.82136,2.411329 2.96762,2.411329 2.75629,0 5.64466,-2.25234 5.64466,-4.584174 0,-1.563389 -1.3249,-2.4378271 -2.96843,-2.4378271 M 329.94879,156.33385 c 0,1.13998 0.82136,2.41125 2.96762,2.41125 2.75549,0 5.64386,-2.25194 5.64386,-4.58393 0,-1.56347 -1.3249,-2.43767 -2.96763,-2.43767 -2.57055,0 -5.64385,2.17269 -5.64385,4.61035 M 487.12025,17.341457 c 0,1.139419 0.82136,2.411329 2.96763,2.411329 2.75628,0 5.64466,-2.25234 5.64466,-4.584175 0,-1.563388 -1.32491,-2.437826 -2.96763,-2.437826 -2.57056,0 -5.64466,2.172845 -5.64466,4.610672 m -183.75204,1.165917 c -0.8742,0 -1.05992,-0.715449 -1.05992,-0.953932 0,-1.298408 4.45184,-3.577246 5.69749,-3.577246 0.63564,0 1.05993,0.370974 1.05993,0.953932 0,1.324906 -4.47827,3.577246 -5.6975,3.577246 m 3.6569,-5.776589 c -2.57056,0 -5.64386,2.146347 -5.64386,4.610672 0,1.139419 0.82136,2.411329 2.96763,2.411329 2.75549,0 5.64386,-2.25234 5.64386,-4.584175 0,-1.563388 -1.32491,-2.437826 -2.96763,-2.437826 m -1.94693,140.293605 c 0,1.13998 0.82136,2.41205 2.96763,2.41205 2.75628,0 5.64466,-2.25274 5.64466,-4.58474 0,-1.56346 -1.32491,-2.43766 -2.96843,-2.43766 -2.56976,0 -5.64386,2.17268 -5.64386,4.61035 M 522.64294,14.032074 c 0,1.139419 0.82136,2.411329 2.96763,2.411329 2.75628,0 5.64466,-2.25234 5.64466,-4.584174 0,-1.563389 -1.32491,-2.4378271 -2.96763,-2.4378271 -2.57056,0 -5.64466,2.1728461 -5.64466,4.6106721 M 463.76428,162.95278 c 0,1.13918 0.82136,2.41125 2.96763,2.41125 2.75629,0 5.64466,-2.25194 5.64466,-4.58394 0,-1.56347 -1.32491,-2.43766 -2.96763,-2.43766 -2.57056,0 -5.64466,2.17268 -5.64466,4.61035 M 540.01482,17.341457 c 0,1.139419 0.82136,2.411329 2.96843,2.411329 2.75548,0 5.64386,-2.25234 5.64386,-4.584175 0,-1.563388 -1.32491,-2.437826 -2.96763,-2.437826 -2.57056,0 -5.64466,2.172845 -5.64466,4.610672 M 258.3086,149.71573 c 0,1.13918 0.82136,2.41125 2.96763,2.41125 2.75549,0 5.64386,-2.25274 5.64386,-4.58474 0,-1.56267 -1.32491,-2.43767 -2.96763,-2.43767 -2.57056,0 -5.64386,2.17269 -5.64386,4.61116 M 557.3867,20.65076 c 0,1.139419 0.82136,2.411329 2.96843,2.411329 2.75548,0 5.64385,-2.25234 5.64385,-4.584175 0,-1.563389 -1.3249,-2.437827 -2.96762,-2.437827 -2.57056,0 -5.64466,2.172846 -5.64466,4.610673 m -336.38361,125.7555 c 0,1.13918 0.82137,2.41125 2.96763,2.41125 2.75549,0 5.64386,-2.25274 5.64386,-4.58393 0,-1.56347 -1.3249,-2.43847 -2.96763,-2.43847 -2.57055,0 -5.64386,2.17349 -5.64386,4.61115 M 583.44531,23.960143 c 0,1.139179 0.82136,2.411248 2.96763,2.411248 2.75549,0 5.64386,-2.251939 5.64386,-4.584094 0,-1.563389 -1.3249,-2.437827 -2.96763,-2.437827 -2.57056,0 -5.64386,2.172846 -5.64386,4.610673 M 183.69759,156.33385 c 0,1.13998 0.82136,2.41125 2.96763,2.41125 2.75548,0 5.64385,-2.25194 5.64385,-4.58393 0,-1.56347 -1.3249,-2.43767 -2.96762,-2.43767 -2.57056,0 -5.64386,2.17269 -5.64386,4.61035 M 620.95496,28.435202 c -0.8742,0 -1.05992,-0.714888 -1.05992,-0.953451 0,-1.298488 4.45184,-3.577647 5.69669,-3.577647 0.63644,0 1.05993,0.371454 1.05993,0.954253 0,1.324906 -4.47747,3.576845 -5.6967,3.576845 m 3.6569,-5.776349 c -2.57056,0 -5.64466,2.146668 -5.64466,4.610753 0,1.139178 0.82216,2.411248 2.96843,2.411248 2.75548,0 5.64386,-2.25274 5.64386,-4.583934 0,-1.563469 -1.32491,-2.438067 -2.96763,-2.438067 M 254.81661,21.816677 c -0.87419,0 -1.05992,-0.715449 -1.05992,-0.953932 0,-1.298408 4.45184,-3.577246 5.6975,-3.577246 0.63563,0 1.05992,0.370974 1.05992,0.953932 0,1.324906 -4.47826,3.577246 -5.6975,3.577246 m 3.6569,-5.77659 c -2.57055,0 -5.64385,2.146348 -5.64385,4.610673 0,1.139419 0.82136,2.411329 2.96762,2.411329 2.75549,0 5.64386,-2.25234 5.64386,-4.584175 0,-1.563389 -1.3249,-2.437827 -2.96763,-2.437827 M 488.63489,159.64332 c 0,1.13917 0.82136,2.41124 2.96763,2.41124 2.75548,0 5.64385,-2.25194 5.64385,-4.58393 0,-1.56347 -1.3249,-2.43767 -2.96762,-2.43767 -2.57056,0 -5.64386,2.17269 -5.64386,4.61036 m -351.70768,9.92838 c 0,1.13918 0.82136,2.41125 2.96763,2.41125 2.75628,0 5.64466,-2.25274 5.64466,-4.58393 0,-1.56347 -1.32491,-2.43847 -2.96763,-2.43847 -2.57056,0 -5.64466,2.17349 -5.64466,4.61115 M 226.77184,23.960143 c 0,1.139179 0.82136,2.411248 2.96763,2.411248 2.75548,0 5.64386,-2.251939 5.64386,-4.584094 0,-1.563389 -1.32491,-2.437827 -2.96763,-2.437827 -2.57056,0 -5.64386,2.172846 -5.64386,4.610673 M 99.6217,166.26224 c 0,1.13918 0.82136,2.41125 2.96843,2.41125 2.75548,0 5.64386,-2.25194 5.64386,-4.58393 0,-1.56347 -1.32491,-2.43767 -2.96763,-2.43767 -2.57056,0 -5.64466,2.17268 -5.64466,4.61035 M 64.548922,93.456461 c 0,1.139179 0.821362,2.411248 2.967629,2.411248 2.756285,0 5.643859,-2.251939 5.643859,-4.583934 0,-1.563469 -1.324905,-2.437667 -2.967629,-2.437667 -2.569757,0 -5.643859,2.172686 -5.643859,4.610353 m 10.202977,69.496319 c 0,1.13918 0.821361,2.41125 2.967629,2.41125 2.755481,0 5.643855,-2.25194 5.643855,-4.58394 0,-1.56347 -1.324905,-2.43766 -2.967629,-2.43766 -2.570554,0 -5.643855,2.17268 -5.643855,4.61035 M 90.381782,83.528072 c 0,1.13998 0.821362,2.412049 2.967629,2.412049 2.755484,0 5.643859,-2.25274 5.643859,-4.584734 0,-1.563469 -1.324906,-2.437667 -2.967629,-2.437667 -2.570557,0 -5.643859,2.172685 -5.643859,4.610352 M 513.50469,162.95278 c 0,1.13918 0.82136,2.41125 2.96843,2.41125 2.75549,0 5.64386,-2.25194 5.64386,-4.58394 0,-1.56347 -1.32491,-2.43766 -2.96763,-2.43766 -2.57056,0 -5.64466,2.17268 -5.64466,4.61035 M 49.881293,159.64332 c 0,1.13917 0.821362,2.41124 2.96763,2.41124 2.756284,0 5.644659,-2.25194 5.644659,-4.58393 0,-1.56347 -1.324906,-2.43767 -2.967629,-2.43767 -2.570558,0 -5.64466,2.17269 -5.64466,4.61036 M 116.21384,86.837535 c 0,1.139979 0.82137,2.411249 2.96763,2.411249 2.75629,0 5.64466,-2.25194 5.64466,-4.583935 0,-1.563469 -1.3249,-2.437666 -2.96843,-2.437666 -2.56975,0 -5.64386,2.172685 -5.64386,4.610352 m 75.03531,-56.258467 c 0,1.139179 0.82136,2.411249 2.96763,2.411249 2.75548,0 5.64386,-2.25274 5.64386,-4.583934 0,-1.563469 -1.32491,-2.438468 -2.96763,-2.438468 -2.57056,0 -5.64386,2.173487 -5.64386,4.611153 M 538.3753,166.26224 c 0,1.13918 0.82136,2.41125 2.96763,2.41125 2.75628,0 5.64385,-2.25194 5.64385,-4.58393 0,-1.56347 -1.3249,-2.43767 -2.96762,-2.43767 -2.56976,0 -5.64386,2.17268 -5.64386,4.61035 M 151.51078,83.528072 c 0,1.13998 0.82216,2.412049 2.96843,2.412049 2.75548,0 5.64386,-2.25274 5.64386,-4.584734 0,-1.563469 -1.32491,-2.437667 -2.96763,-2.437667 -2.57056,0 -5.64466,2.172685 -5.64466,4.610352 m 2.6386,-58.402332 c -0.87419,0 -1.05992,-0.714889 -1.05992,-0.953452 0,-1.298568 4.45184,-3.577406 5.69669,-3.577406 0.63644,0 1.05993,0.370973 1.05993,0.953932 0,1.324906 -4.47746,3.576926 -5.6967,3.576926 m 3.6569,-5.77627 c -2.57055,0 -5.64466,2.146348 -5.64466,4.610673 0,1.139179 0.82217,2.411248 2.96843,2.411248 2.75549,0 5.64386,-2.251939 5.64386,-4.584094 0,-1.563389 -1.3249,-2.437827 -2.96763,-2.437827 m 10.92667,67.488065 c 0,1.139979 0.82137,2.411249 2.96763,2.411249 2.75549,0 5.64386,-2.25194 5.64386,-4.583935 0,-1.563469 -1.3249,-2.437666 -2.96763,-2.437666 -2.57055,0 -5.64386,2.172685 -5.64386,4.610352 m 17.22138,3.309463 c 0,1.139179 0.82136,2.411248 2.96763,2.411248 2.75628,0 5.64466,-2.251939 5.64466,-4.583934 0,-1.563469 -1.32491,-2.437667 -2.96843,-2.437667 -2.56976,0 -5.64386,2.172686 -5.64386,4.610353 m 25.83286,3.309463 c 0,1.139179 0.82136,2.411248 2.96763,2.411248 2.75549,0 5.64386,-2.251939 5.64386,-4.583934 0,-1.563469 -1.3249,-2.437667 -2.96763,-2.437667 -2.57056,0 -5.64386,2.172686 -5.64386,4.610353 m 35.29694,3.309462 c 0,1.139179 0.82136,2.411249 2.96763,2.411249 2.75628,0 5.64466,-2.25274 5.64466,-4.583934 0,-1.563469 -1.32491,-2.438467 -2.96843,-2.438467 -2.56976,0 -5.64386,2.173486 -5.64386,4.611152 m 406.89181,-3.309462 c 0,1.139179 0.82136,2.411248 2.96843,2.411248 2.75548,0 5.64386,-2.251939 5.64386,-4.583934 0,-1.563469 -1.32491,-2.437667 -2.96763,-2.437667 -2.57056,0 -5.64466,2.172686 -5.64466,4.610353 M 563.2451,169.5717 c 0,1.13918 0.82216,2.41125 2.96843,2.41125 2.75549,0 5.64386,-2.25274 5.64386,-4.58393 0,-1.56347 -1.32491,-2.43847 -2.96763,-2.43847 -2.57056,0 -5.64466,2.17349 -5.64466,4.61115 m 64.89878,-79.424702 c 0,1.139179 0.82136,2.411248 2.96762,2.411248 2.75549,0 5.64386,-2.251939 5.64386,-4.583934 0,-1.563469 -1.3249,-2.437667 -2.96763,-2.437667 -2.57055,0 -5.64385,2.172686 -5.64385,4.610353 M 264.3055,93.456461 c 0,1.139179 0.82136,2.411248 2.96843,2.411248 2.75549,0 5.64386,-2.251939 5.64386,-4.583934 0,-1.563469 -1.32491,-2.437667 -2.96763,-2.437667 -2.57056,0 -5.64466,2.172686 -5.64466,4.610353 m 338.00551,3.309462 c 0,1.139179 0.82136,2.411249 2.96843,2.411249 2.75549,0 5.64386,-2.25274 5.64386,-4.583934 0,-1.563469 -1.3249,-2.438467 -2.96763,-2.438467 -2.57056,0 -5.64466,2.173486 -5.64466,4.611152 M 281.52768,90.146998 c 0,1.139179 0.82136,2.411248 2.96763,2.411248 2.75548,0 5.64386,-2.251939 5.64386,-4.583934 0,-1.563469 -1.32491,-2.437667 -2.96763,-2.437667 -2.57056,0 -5.64386,2.172686 -5.64386,4.610353 M 116.63894,27.269606 c 0,1.139178 0.82216,2.411248 2.96843,2.411248 2.75548,0 5.64385,-2.25274 5.64385,-4.583934 0,-1.563469 -1.3249,-2.438067 -2.96762,-2.438067 -2.57056,0 -5.64466,2.173086 -5.64466,4.610753 m 182.11011,66.186855 c 0,1.139179 0.82136,2.411248 2.96763,2.411248 2.75629,0 5.64466,-2.251939 5.64466,-4.583934 0,-1.563469 -1.3249,-2.437667 -2.96843,-2.437667 -2.56976,0 -5.64386,2.172686 -5.64386,4.610353 m 268.26503,0 c 0,1.139179 0.82136,2.411248 2.96763,2.411248 2.75628,0 5.64386,-2.251939 5.64386,-4.583934 0,-1.563469 -1.32491,-2.437667 -2.96763,-2.437667 -2.56976,0 -5.64386,2.172686 -5.64386,4.610353 m -251.04365,3.309462 c 0,1.139179 0.82216,2.411249 2.96843,2.411249 2.75548,0 5.64386,-2.25274 5.64386,-4.583934 0,-1.563469 -1.32491,-2.438467 -2.96763,-2.438467 -2.57056,0 -5.64466,2.173486 -5.64466,4.611152 m 225.21079,-6.618925 c 0,1.139179 0.82216,2.411248 2.96842,2.411248 2.75549,0 5.64386,-2.251939 5.64386,-4.583934 0,-1.563469 -1.3249,-2.437667 -2.96763,-2.437667 -2.57055,0 -5.64465,2.172686 -5.64465,4.610353 M 90.581119,30.579068 c 0,1.139179 0.821361,2.411249 2.968429,2.411249 2.755484,0 5.643859,-2.25274 5.643859,-4.583934 0,-1.563469 -1.324906,-2.438468 -2.967629,-2.438468 -2.570557,0 -5.644659,2.173487 -5.644659,4.611153 M 523.95984,86.837535 c 0,1.139979 0.82136,2.411249 2.96763,2.411249 2.75628,0 5.64466,-2.25194 5.64466,-4.583935 0,-1.563469 -1.32491,-2.437666 -2.96843,-2.437666 -2.56976,0 -5.64386,2.172685 -5.64386,4.610352 m -160.78193,4.47586 c -0.8742,0 -1.05993,-0.715689 -1.05993,-0.954252 0,-1.298488 4.45185,-3.577646 5.6975,-3.577646 0.63563,0 1.05992,0.371454 1.05992,0.954252 0,1.324906 -4.47826,3.577646 -5.69749,3.577646 m 3.6569,-5.77675 c -2.57056,0 -5.64386,2.146268 -5.64386,4.610353 0,1.139179 0.82136,2.411248 2.96763,2.411248 2.75548,0 5.64386,-2.251939 5.64386,-4.583934 0,-1.563469 -1.32491,-2.437667 -2.96763,-2.437667 M 64.523305,40.506656 c 0,1.13998 0.821361,2.411249 2.967629,2.411249 2.756285,0 5.644659,-2.25194 5.644659,-4.583934 0,-1.563469 -1.324905,-2.437667 -2.967629,-2.437667 -2.570557,0 -5.644659,2.172686 -5.644659,4.610352 M 506.73847,83.528072 c 0,1.13998 0.82136,2.412049 2.96762,2.412049 2.75549,0 5.64386,-2.25274 5.64386,-4.584734 0,-1.563469 -1.3249,-2.437667 -2.96763,-2.437667 -2.57055,0 -5.64385,2.172685 -5.64385,4.610352 m 92.82907,87.209228 c -0.8742,0 -1.05993,-0.71569 -1.05993,-0.95345 0,-1.29849 4.45185,-3.57765 5.6975,-3.57765 0.63563,0 1.05992,0.37066 1.05992,0.95426 0,1.3249 -4.47826,3.57684 -5.69749,3.57684 m 3.6569,-5.77675 c -2.57056,0 -5.64386,2.14627 -5.64386,4.61115 0,1.13918 0.82136,2.41125 2.96763,2.41125 2.75548,0 5.64386,-2.25274 5.64386,-4.58393 0,-1.56347 -1.32491,-2.43847 -2.96763,-2.43847 M 419.7758,93.456461 c 0,1.139179 0.82137,2.411248 2.96763,2.411248 2.75629,0 5.64466,-2.251939 5.64466,-4.583934 0,-1.563469 -1.3249,-2.437667 -2.96763,-2.437667 -2.57055,0 -5.64466,2.172686 -5.64466,4.610353 m 25.83287,-9.928389 c 0,1.13998 0.82136,2.412049 2.96763,2.412049 2.75548,0 5.64386,-2.25274 5.64386,-4.584734 0,-1.563469 -1.32491,-2.437667 -2.96763,-2.437667 -2.57056,0 -5.64386,2.172685 -5.64386,4.610352 m -6.71419,82.734168 c 0,1.13918 0.82136,2.41125 2.96763,2.41125 2.75548,0 5.64386,-2.25194 5.64386,-4.58393 0,-1.56347 -1.32491,-2.43767 -2.96763,-2.43767 -2.57056,0 -5.64386,2.17268 -5.64386,4.61035 M 333.1926,100.07539 c 0,1.13918 0.82137,2.41124 2.96763,2.41124 2.75549,0 5.64386,-2.25274 5.64386,-4.583929 0,-1.563469 -1.3249,-2.438468 -2.96763,-2.438468 -2.57056,0 -5.64386,2.173487 -5.64386,4.611157 M 557.38705,20.649729 v 20.398946 h 0.66217 V 20.649729 Z M 445.60828,83.527256 v 22.053514 h 0.66201 V 83.527256 Z M 301.38091,17.340435 v 22.053517 h 0.66201 V 17.340435 Z m 118.39533,76.115169 v 18.744066 h 0.66201 V 93.455604 Z m 51.93066,50.204016 v 17.12123 h 0.66202 v -17.12123 z m -24.8706,1.6122 v 18.81849 h 0.66202 v -18.81849 z m 59.90174,-61.744564 v 20.430054 h 0.66201 V 83.527256 Z m 17.22146,3.309446 v 18.713578 h 0.66202 V 86.836702 Z m -162.76894,3.309455 v 20.398783 h 0.66201 V 90.146157 Z M 252.82927,20.649729 v 20.398946 h 0.66202 V 20.649729 Z M 341.1345,79.07546 v 18.828025 h 0.66201 V 79.07546 Z m 200.04709,11.070697 v 20.398783 h 0.66201 V 90.146157 Z M 360.39485,17.340435 v 22.053517 h 0.66202 V 17.340435 Z M 386.45267,7.412397 V 29.46638 h 0.66202 V 7.412397 Z m 180.56096,86.043207 v 18.744066 h 0.66217 V 93.455604 Z M 323.91303,77.482338 v 17.1117 h 0.66202 v -17.1117 z M 72.465952,16.228581 v 22.106206 h 0.66202 V 16.228581 Z M 298.74864,93.455604 v 17.058846 h 0.66202 V 93.455604 Z m 214.75652,69.496426 v 17.0676 h 0.66202 v -17.0676 z m 96.7485,-88.809631 v 20.451639 h 0.66202 V 74.142399 Z M 281.52733,90.146157 v 18.774553 h 0.66202 V 90.146157 Z m 346.61622,0 v 20.398783 h 0.66202 V 90.146157 Z M 272.24817,74.172892 v 17.1117 h 0.66202 v -17.1117 z m 381.7282,19.282712 v 18.744066 h 0.66201 V 93.455604 Z m -48.45313,51.837936 v 22.10622 h 0.66201 V 145.29354 Z M 255.02672,75.766005 v 18.828033 h 0.66216 V 75.766005 Z m 157.48455,-58.42557 v 22.053517 h 0.66201 V 17.340435 Z M 98.523765,6.3005432 V 28.407223 h 0.662021 V 6.3005432 Z M 392.12374,162.95203 v 18.74391 h 0.66201 V 162.95203 Z M 211.78683,93.455604 v 18.744066 h 0.66202 V 93.455604 Z m 14.98462,-69.49627 v 18.744064 h 0.66203 V 23.959334 Z M 185.9548,90.146157 v 20.398783 h 0.66201 V 90.146157 Z M 448.03305,14.031141 v 22.053364 h 0.66218 V 14.031141 Z m -279.3005,72.805561 v 18.713578 h 0.66202 V 86.836702 Z m 186.08646,72.805878 v 20.39863 h 0.66202 V 159.64258 Z M 487.12072,17.340435 v 22.053517 h 0.66202 V 17.340435 Z M 151.51125,83.527256 v 20.430054 h 0.66201 V 83.527256 Z m 178.43716,72.805864 v 18.72234 h 0.66201 V 156.33312 Z M 522.64329,14.031141 v 20.428965 h 0.66217 V 14.031141 Z M 49.881766,159.64258 v 18.76564 h 0.662012 V 159.64258 Z M 116.21352,86.836702 v 22.053518 h 0.66202 V 86.836702 Z M 74.751426,162.95203 v 17.0676 h 0.662165 v -17.0676 z m 15.6299,-79.424774 v 22.053514 h 0.662173 V 83.527256 Z m 17.182994,60.111564 v 20.45149 h 0.66202 V 143.63882 Z M 64.548506,93.455604 v 18.744066 h 0.662021 V 93.455604 Z M 124.58158,4.6458182 V 25.097769 h 0.66202 V 4.6458182 Z M 144.86983,145.29354 v 22.10622 h 0.66202 v -22.10622 z m 160.20877,7.72998 v 20.42037 h 0.66201 V 153.02352 Z M 540.01517,17.340435 v 18.713577 h 0.66217 V 17.340435 Z m -387.85316,6.618899 v 18.744064 h 0.66201 V 23.959334 Z m 394.1559,123.009736 v 17.12124 h 0.66202 v -17.12124 z m -362.62075,9.36405 v 22.05337 h 0.66202 V 156.33312 Z M 626.9099,4.6458182 V 25.097769 h 0.66201 V 4.6458182 Z M 571.18773,148.58142 v 18.81834 h 0.66201 V 148.58142 Z M 199.19104,6.3005432 V 28.407223 h 0.66201 V 6.3005432 Z M 221.00267,146.4054 v 22.05352 h 0.66201 V 146.4054 Z M 583.44486,23.959334 v 18.744064 h 0.66218 V 23.959334 Z M 258.30818,149.71407 v 22.05352 h 0.66201 V 149.71407 Z M 471.44109,86.836702 v 22.053518 h 0.66202 V 86.836702 Z m 17.19332,72.805878 v 18.76564 h 0.66217 V 159.64258 Z M 85.700309,73.775276 c -6.983571,-0.01153 -14.055951,3.863217 -16.998963,10.359427 a 0.16531304,0.16531304 0 0 0 0.05613,0.190906 0.16531304,0.16531304 0 0 0 0.0031,0.01517 0.16531304,0.16531304 0 0 0 0.0094,-0.0019 0.16531304,0.16531304 0 0 0 0.0136,0.01455 0.16531304,0.16531304 0 0 0 0.191066,-0.05613 0.16531304,0.16531304 0 0 0 0.01501,-0.0031 c 2.392147,-3.615296 6.801114,-6.400288 11.615282,-7.843483 4.814172,-1.443203 10.027841,-1.542895 14.013958,0.159797 a 0.16532957,0.16532957 0 0 0 0.153233,-0.291919 C 92.030667,74.588715 88.874645,73.78053 85.70029,73.775295 Z m -0.002,0.338199 c 2.46888,0.0018 4.924207,0.498957 7.1724,1.546369 -3.754895,-1.031833 -8.204642,-0.771816 -12.360635,0.474076 -4.155991,1.245884 -8.015078,3.476706 -10.583177,6.404379 3.272749,-5.310527 9.562098,-8.429331 15.771412,-8.424824 z M 68.851864,84.202934 c 4.235697,-9.349593 17.151725,-13.221841 25.83206,-7.744496 -8.071919,-3.447957 -20.987947,0.42349 -25.83206,7.744496 M 211.90145,135.73279 c -2.21574,0.009 -4.45731,0.24922 -6.65377,0.70517 -7.02867,1.45905 -13.60263,5.12904 -17.38267,10.54784 a 0.16531304,0.16531304 0 0 0 0.0233,0.20248 0.16531304,0.16531304 0 0 0 8e-4,0.0141 0.16531304,0.16531304 0 0 0 0.008,0 0.16531304,0.16531304 0 0 0 0.009,0.0139 0.16531304,0.16531304 0 0 0 0.20248,-0.0234 0.16531304,0.16531304 0 0 0 0.0141,-8e-4 c 3.92861,-4.29796 10.5465,-7.42806 17.51509,-8.87466 6.96861,-1.4466 14.28541,-1.20913 19.60013,1.17033 a 0.16532957,0.16532957 0 0 0 0.15417,-0.2916 c -3.86667,-2.38345 -8.61586,-3.48289 -13.49048,-3.46315 z m 0,0.33179 c 3.94389,-0.0152 7.80007,0.70952 11.15388,2.25576 -5.0977,-1.58384 -11.42096,-1.58562 -17.48508,-0.32679 -6.06435,1.2589 -11.86469,3.77751 -15.91088,7.2595 3.82964,-4.28405 9.56661,-7.22749 15.65539,-8.49143 2.17521,-0.45155 4.39447,-0.68857 6.58669,-0.69704 z m -23.90092,11.01575 c 7.49713,-10.74735 26.14988,-14.6196 37.30471,-7.7437 -10.72494,-4.80168 -29.37689,-0.92943 -37.30471,7.7437 m 133.19205,-6.3277 c -4.41899,0.0208 -8.82675,1.69823 -11.93332,5.09051 a 0.16531304,0.16531304 0 0 0 -0.0173,0.0477 0.16531304,0.16531304 0 0 0 -0.0213,0.0582 0.16531304,0.16531304 0 0 0 0.0169,0.0594 0.16531304,0.16531304 0 0 0 0.0139,0.0488 0.16531304,0.16531304 0 0 0 0.012,0.007 0.16531304,0.16531304 0 0 0 0.006,0.0128 0.16531304,0.16531304 0 0 0 0.0482,0.0175 0.16531304,0.16531304 0 0 0 0.0577,0.0209 0.16531304,0.16531304 0 0 0 0.059,-0.0167 0.16531304,0.16531304 0 0 0 0.0494,-0.0139 c 3.18782,-2.51794 7.87647,-3.6503 12.50777,-3.4408 4.63131,0.20952 9.19853,1.76056 12.14581,4.55656 a 0.16532957,0.16532957 0 0 0 0.24516,-0.22015 c -3.1591,-4.14692 -8.1816,-6.25112 -13.18979,-6.22754 z m 0.002,0.33679 c 4.2816,-0.0196 8.57215,1.54599 11.64937,4.63489 -2.94782,-2.08307 -6.87013,-3.23144 -10.83772,-3.41092 -3.96786,-0.1795 -7.97809,0.61018 -11.10212,2.41852 2.89262,-2.42112 6.58627,-3.62552 10.29047,-3.64249 z m -11.81346,4.86534 c 6.55408,-7.1569 18.98899,-6.59411 24.86981,1.12557 -5.97369,-5.66708 -18.40859,-6.22906 -24.86981,-1.12557 M 163.5057,72.203105 c -2.8793,0.157267 -5.73217,1.525251 -7.82144,4.152367 a 0.16531304,0.16531304 0 0 0 0.002,0.01563 0.16531304,0.16531304 0 0 0 0.005,0.198575 0.16531304,0.16531304 0 0 0 0.0174,8.01e-4 0.16531304,0.16531304 0 0 0 0.002,0.01736 0.16531304,0.16531304 0 0 0 0.10679,-0.0122 0.16531304,0.16531304 0 0 0 0.10727,0.0051 c 2.25761,-2.051987 5.51632,-2.947784 8.70736,-2.739217 3.19103,0.208559 6.30536,1.5208 8.27675,3.849192 a 0.16532957,0.16532957 0 0 0 0.26784,-0.191851 c -2.22337,-3.698617 -5.9692,-5.498016 -9.67115,-5.295805 z m 0.0192,0.315527 c 3.042,-0.168171 6.10232,1.083709 8.28426,3.663914 -1.97085,-1.592057 -4.53567,-2.499662 -7.15552,-2.670891 -2.61988,-0.171237 -5.28084,0.394926 -7.44212,1.716958 1.84534,-1.679116 4.06745,-2.585816 6.31338,-2.709981 z m -7.71121,3.939806 c 4.71122,-5.92405 13.32191,-5.361265 17.22138,1.12557 -4.01395,-4.740842 -12.62464,-5.303626 -17.22138,-1.12557 m 285.1137,-2.683162 c -6.98384,-0.01152 -14.05627,3.863217 -16.99928,10.359427 a 0.16531304,0.16531304 0 0 0 0.0563,0.190906 0.16531304,0.16531304 0 0 0 0.003,0.01517 0.16531304,0.16531304 0 0 0 0.0136,0.0026 0.16531304,0.16531304 0 0 0 0.009,0.01001 0.16531304,0.16531304 0 0 0 0.0511,0.0018 0.16531304,0.16531304 0 0 0 0.0614,0.002 0.16531304,0.16531304 0 0 0 0.0513,-0.03456 0.16531304,0.16531304 0 0 0 0.0422,-0.02846 c 2.39215,-3.615296 6.80101,-6.400288 11.61528,-7.843483 4.81427,-1.443203 10.02822,-1.542895 14.01474,0.159797 a 0.16532957,0.16532957 0 0 0 0.15323,-0.291919 c -2.7417,-1.729871 -5.89798,-2.538064 -9.07245,-2.543299 z m -0.002,0.338199 c 2.46893,0.0018 4.92423,0.498997 7.17256,1.546369 -3.75515,-1.031785 -8.20508,-0.771799 -12.36111,0.474076 -4.15575,1.245788 -8.0146,3.476409 -10.5827,6.403747 3.27286,-5.310119 9.56195,-8.428699 15.77125,-8.424192 z m -16.84675,10.089459 c 4.23569,-9.349593 17.15172,-13.221841 25.83286,-7.744496 -8.07272,-3.447957 -20.98875,0.42349 -25.83286,7.744496 m 94.6539,-11.999829 c -2.87936,0.157267 -5.73218,1.525251 -7.82144,4.152367 a 0.16531304,0.16531304 0 0 0 0.002,0.01548 0.16531304,0.16531304 0 0 0 0.005,0.198728 0.16531304,0.16531304 0 0 0 0.0185,0.0088 0.16531304,0.16531304 0 0 0 10e-4,0.0094 0.16531304,0.16531304 0 0 0 0.0485,0.01391 0.16531304,0.16531304 0 0 0 0.0597,0.0172 0.16531304,0.16531304 0 0 0 0.0577,-0.02079 0.16531304,0.16531304 0 0 0 0.0482,-0.01736 c 2.25761,-2.051987 5.51643,-2.947784 8.70767,-2.739217 3.19124,0.208559 6.30569,1.520808 8.27707,3.849192 a 0.16532957,0.16532957 0 0 0 0.26784,-0.192003 c -2.22382,-3.698609 -5.96974,-5.497864 -9.67177,-5.295653 z m 0.0192,0.315527 c 3.04208,-0.168171 6.10263,1.083709 8.28488,3.663914 -1.97091,-1.592057 -4.53567,-2.499662 -7.15567,-2.670891 -2.62009,-0.171237 -5.28139,0.394878 -7.44274,1.716958 1.84535,-1.679148 4.06752,-2.585816 6.31353,-2.709981 z m -7.71127,3.939806 c 4.71122,-5.92405 13.32191,-5.361265 17.22217,1.12557 -4.01394,-4.740842 -12.62543,-5.303626 -17.22217,-1.12557 M 350.93026,9.2458378 V 36.448658 h 1.19128 V 9.2458378 Z m 78.4993,138.9928522 v 27.20266 h 1.19128 V 148.23869 Z M 438.56861,9.2458378 V 36.448658 h 1.19129 V 9.2458378 Z m 74.60946,0 V 36.448658 h 1.19128 V 9.2458378 Z m -295.87105,0 V 36.448658 h 1.19112 V 9.2458378 Z M 295.61337,148.23869 v 27.20266 h 1.19113 V 148.23869 Z M 609.50315,9.2458378 V 36.448658 h 1.19112 V 9.2458378 Z M 497.2736,78.742416 v 27.202514 h 1.19128 V 78.742416 Z M 677.35954,9.2458378 V 36.448658 h 3.64015 V 9.2458378 Z m -3.63967,0 V 36.448658 H 674.911 V 9.2458378 Z m -2.44731,16.9110072 c 0,-0.768526 -0.60921,-1.404961 -1.37774,-1.404961 -0.76852,0 -1.37774,0.636435 -1.37774,1.404961 0,0.768525 0.60922,1.40416 1.37774,1.40416 0.76853,0 1.37774,-0.635635 1.37774,-1.40416 m 0,-6.619006 c 0,-0.768445 -0.60921,-1.4044 -1.37774,-1.4044 -0.76852,0 -1.37774,0.635955 -1.37774,1.4044 0,0.768445 0.60922,1.4044 1.37774,1.4044 0.76853,0 1.37774,-0.635955 1.37774,-1.4044 M 174.23272,148.23869 v 27.20266 H 175.424 V 148.23869 Z M 142.69757,9.2458378 V 36.448658 h 1.19113 V 9.2458378 Z M 588.11571,148.23869 v 27.20266 h 1.19128 V 148.23869 Z M 56.277667,95.653163 c 0,-0.768526 -0.610017,-1.404961 -1.378543,-1.404961 -0.768525,0 -1.377742,0.636435 -1.377742,1.404961 0,0.768525 0.609217,1.40416 1.377742,1.40416 0.768526,0 1.378543,-0.635635 1.378543,-1.40416 m 0,-6.618926 c 0,-0.768526 -0.610017,-1.40416 -1.378543,-1.40416 -0.768525,0 -1.377742,0.635634 -1.377742,1.40416 0,0.768525 0.609217,1.40416 1.377742,1.40416 0.768526,0 1.378543,-0.635635 1.378543,-1.40416 M 49.881293,78.742416 V 105.94493 H 51.07258 V 78.742416 Z m -6.088539,0 v 27.202514 h 3.639993 V 78.742416 Z m 98.253896,0 v 27.202514 h 1.19129 V 78.742416 Z m 95.57253,0 v 27.202514 h 1.19129 V 78.742416 Z m 442.18969,0 V 105.94493 H 681 V 78.742416 Z m -86.96195,0 v 27.202514 h 1.19128 V 78.742416 Z m -241.1208,0 v 27.202514 h 1.19112 V 78.742416 Z m 325.63342,69.496274 v 27.20266 h 3.64015 v -27.20266 z m -3.63967,0 v 27.20266 h 1.19113 v -27.20266 z m -2.44731,16.91079 c 0,-0.76852 -0.60921,-1.40496 -1.37774,-1.40496 -0.76852,0 -1.37774,0.63644 -1.37774,1.40496 0,0.76853 0.60922,1.40416 1.37774,1.40416 0.76853,0 1.37774,-0.63563 1.37774,-1.40416 m 0,-6.61893 c 0,-0.76852 -0.60921,-1.40416 -1.37774,-1.40416 -0.76852,0 -1.37774,0.63564 -1.37774,1.40416 0,0.76853 0.60922,1.40416 1.37774,1.40416 0.76853,0 1.37774,-0.63563 1.37774,-1.40416 M 410.3118,78.742416 v 27.202514 h 1.19112 V 78.742416 Z M 291.91631,9.2458378 V 36.448658 h 1.19129 V 9.2458378 Z M 0,174.7132 v 0.72768 h 681 v -0.72768 z m 0,-6.61812 v 0.72768 h 681 v -0.72768 z m 0,-6.6189 v 0.72768 h 681 v -0.72768 z m 0,-6.6189 v 0.72768 h 681 v -0.72768 z m 0,-6.61891 v 0.72769 h 681 v -0.72769 z m 0,-43.02144 v 0.72769 h 681 v -0.72769 z m 0,-6.618121 v 0.727681 h 681 v -0.727681 z m 0,-6.618902 v 0.727682 h 681 v -0.727682 z m 0,-6.619054 v 0.727842 h 681 v -0.727842 z m 0,-6.618901 v 0.727681 H 681 V 78.741952 Z M 0,35.720656 v 0.727689 h 681 v -0.727689 z m 0,-6.618269 v 0.727841 h 681 v -0.727841 z m 0,-6.61906 v 0.727685 h 681 v -0.727685 z m 0,-6.618588 v 0.727684 H 681 V 15.864739 Z M 0,9.2459947 V 9.9736795 H 681 V 9.2459947 Z"
     style="stroke-width:0.0800547" />
  <metadata
     id="metadata185">
    <rdf:RDF>
      <cc:Work
         rdf:about="">
        <dc:title>air_XLIX</dc:title>
      </cc:Work>
    </rdf:RDF>
  </metadata>
</svg>
