<?xml version="1.0" encoding="UTF-8" standalone="no"?>
<svg width="210.058mm" height="296.926mm" viewBox="0 0 9924 14028"
 xmlns="http://www.w3.org/2000/svg" xmlns:xlink="http://www.w3.org/1999/xlink" version="1.2" baseProfile="full">
<title>air_XXXVI</title>
<desc>Generated by MuseScore Studio 4.7.3</desc>
<polyline class="StaffLines" fill="none" stroke="#000000" stroke-width="9.09" stroke-linejoin="bevel" points="708.661,828.424 9215.34,828.424" />
<polyline class="StaffLines" fill="none" stroke="#000000" stroke-width="9.09" stroke-linejoin="bevel" points="708.661,911.101 9215.34,911.101" />
<polyline class="StaffLines" fill="none" stroke="#000000" stroke-width="9.09" stroke-linejoin="bevel" points="708.661,993.778 9215.34,993.778" />
<polyline class="StaffLines" fill="none" stroke="#000000" stroke-width="9.09" stroke-linejoin="bevel" points="708.661,1076.46 9215.34,1076.46" />
<polyline class="StaffLines" fill="none" stroke="#000000" stroke-width="9.09" stroke-linejoin="bevel" points="708.661,1159.13 9215.34,1159.13" />
<polyline class="StaffLines" fill="none" stroke="#000000" stroke-width="9.09" stroke-linejoin="bevel" points="708.661,1696.53 9215.34,1696.53" />
<polyline class="StaffLines" fill="none" stroke="#000000" stroke-width="9.09" stroke-linejoin="bevel" points="708.661,1779.21 9215.34,1779.21" />
<polyline class="StaffLines" fill="none" stroke="#000000" stroke-width="9.09" stroke-linejoin="bevel" points="708.661,1861.89 9215.34,1861.89" />
<polyline class="StaffLines" fill="none" stroke="#000000" stroke-width="9.09" stroke-linejoin="bevel" points="708.661,1944.57 9215.34,1944.57" />
<polyline class="StaffLines" fill="none" stroke="#000000" stroke-width="9.09" stroke-linejoin="bevel" points="708.661,2027.24 9215.34,2027.24" />
<path class="BarLine" d="M9093.83,1820.55 C9093.83,1810.95 9086.22,1803.01 9076.62,1803.01 C9067.02,1803.01 9059.41,1810.95 9059.41,1820.55 C9059.41,1830.15 9067.02,1838.09 9076.62,1838.09 C9086.22,1838.09 9093.83,1830.15 9093.83,1820.55"/>
<path class="BarLine" d="M9093.83,1903.23 C9093.83,1893.63 9086.22,1885.68 9076.62,1885.68 C9067.02,1885.68 9059.41,1893.63 9059.41,1903.23 C9059.41,1912.83 9067.02,1920.77 9076.62,1920.77 C9086.22,1920.77 9093.83,1912.83 9093.83,1903.23"/>
<polyline class="BarLine" fill="none" stroke="#000000" stroke-width="14.88" stroke-linejoin="bevel" points="9131.84,1691.99 9131.84,2031.79" />
<polyline class="BarLine" fill="none" stroke="#000000" stroke-width="45.47" stroke-linejoin="bevel" points="9192.6,1691.99 9192.6,2031.79" />
<polyline class="BarLine" fill="none" stroke="#000000" stroke-width="14.88" stroke-linejoin="bevel" points="9207.9,823.876 9207.9,1163.68" />
<polyline class="BarLine" fill="none" stroke="#000000" stroke-width="14.88" stroke-linejoin="bevel" points="3917.88,823.876 3917.88,1163.68" />
<polyline class="BarLine" fill="none" stroke="#000000" stroke-width="14.88" stroke-linejoin="bevel" points="5183.16,823.876 5183.16,1163.68" />
<path class="BarLine" d="M6452.82,952.439 C6452.82,942.84 6445.21,934.896 6435.61,934.896 C6426.01,934.896 6418.4,942.84 6418.4,952.439 C6418.4,962.038 6426.01,969.982 6435.61,969.982 C6445.21,969.982 6452.82,962.038 6452.82,952.439"/>
<path class="BarLine" d="M6452.82,1035.12 C6452.82,1025.52 6445.21,1017.57 6435.61,1017.57 C6426.01,1017.57 6418.4,1025.52 6418.4,1035.12 C6418.4,1044.72 6426.01,1052.66 6435.61,1052.66 C6445.21,1052.66 6452.82,1044.72 6452.82,1035.12"/>
<polyline class="BarLine" fill="none" stroke="#000000" stroke-width="14.88" stroke-linejoin="bevel" points="6490.82,823.876 6490.82,1163.68" />
<polyline class="BarLine" fill="none" stroke="#000000" stroke-width="45.47" stroke-linejoin="bevel" points="6551.59,823.876 6551.59,1163.68" />
<polyline class="BarLine" fill="none" stroke="#000000" stroke-width="14.88" stroke-linejoin="bevel" points="6499.31,1691.99 6499.31,2031.79" />
<polyline class="BarLine" fill="none" stroke="#000000" stroke-width="45.47" stroke-linejoin="bevel" points="6551.59,823.876 6551.59,1163.68" />
<polyline class="BarLine" fill="none" stroke="#000000" stroke-width="14.88" stroke-linejoin="bevel" points="6612.36,823.876 6612.36,1163.68" />
<path class="BarLine" d="M6684.81,952.439 C6684.81,942.84 6677.2,934.896 6667.6,934.896 C6658,934.896 6650.39,942.84 6650.39,952.439 C6650.39,962.038 6658,969.982 6667.6,969.982 C6677.2,969.982 6684.81,962.038 6684.81,952.439"/>
<path class="BarLine" d="M6684.81,1035.12 C6684.81,1025.52 6677.2,1017.57 6667.6,1017.57 C6658,1017.57 6650.39,1025.52 6650.39,1035.12 C6650.39,1044.72 6658,1052.66 6667.6,1052.66 C6677.2,1052.66 6684.81,1044.72 6684.81,1035.12"/>
<polyline class="BarLine" fill="none" stroke="#000000" stroke-width="14.88" stroke-linejoin="bevel" points="5203.95,1691.99 5203.95,2031.79" />
<polyline class="BarLine" fill="none" stroke="#000000" stroke-width="14.88" stroke-linejoin="bevel" points="7942.62,823.876 7942.62,1163.68" />
<polyline class="BarLine" fill="none" stroke="#000000" stroke-width="14.88" stroke-linejoin="bevel" points="3908.59,1691.99 3908.59,2031.79" />
<polyline class="BarLine" fill="none" stroke="#000000" stroke-width="14.88" stroke-linejoin="bevel" points="7794.67,1691.99 7794.67,2031.79" />
<polyline class="BarLine" fill="none" stroke="#000000" stroke-width="14.88" stroke-linejoin="bevel" points="2652.6,823.876 2652.6,1163.68" />
<polyline class="BarLine" fill="none" stroke="#000000" stroke-width="14.88" stroke-linejoin="bevel" points="2634.04,1691.99 2634.04,2031.79" />
<path class="Accidental" d="M3142.5,1796.06 L3171.96,1790.1 L3171.96,1844.71 L3142.5,1851 L3142.5,1796.06 M3193.81,1785.79 C3195.79,1785.46 3197.45,1783.15 3197.45,1781.16 L3197.45,1761.63 C3197.45,1758.98 3195.46,1757 3192.82,1757 L3192.15,1757 L3181.23,1759.31 L3181.23,1710 L3171.96,1710 L3171.96,1761.3 L3142.5,1767.26 L3142.5,1720.59 L3133.24,1720.59 L3133.24,1769.24 L3120.33,1771.89 C3118.34,1772.22 3116.69,1774.54 3116.69,1776.53 L3116.69,1795.72 C3116.69,1798.37 3118.67,1800.36 3121.32,1800.36 L3122.31,1800.36 L3133.24,1798.04 L3133.24,1852.66 L3120.33,1855.3 C3118.34,1855.64 3116.69,1857.95 3116.69,1859.94 L3116.69,1879.14 C3116.69,1881.78 3118.67,1883.77 3121.32,1883.77 L3122.31,1883.77 L3133.24,1881.45 L3133.24,1930.77 L3142.5,1930.77 L3142.5,1879.47 L3171.96,1873.51 L3171.96,1920.18 L3181.23,1920.18 L3181.23,1871.52 L3193.81,1869.21 C3195.79,1868.88 3197.45,1866.56 3197.45,1864.57 L3197.45,1845.04 C3197.45,1842.4 3195.46,1840.41 3192.82,1840.41 L3192.15,1840.41 L3181.23,1842.73 L3181.23,1788.11 L3193.81,1785.79 "/>
<polyline class="LedgerLine" fill="none" stroke="#000000" stroke-width="13.23" stroke-linejoin="bevel" points="7406.81,2109.92 7568.87,2109.92" />
<polyline class="LedgerLine" fill="none" stroke="#000000" stroke-width="13.23" stroke-linejoin="bevel" points="4804.32,1241.81 4966.38,1241.81" />
<polyline class="Stem" fill="none" stroke="#000000" stroke-width="8.27" stroke-linejoin="bevel" points="8631.07,883.652 8631.07,1158.8" />
<polyline class="Stem" fill="none" stroke="#000000" stroke-width="8.27" stroke-linejoin="bevel" points="2767.52,966.329 2767.52,1221.14" />
<polyline class="Stem" fill="none" stroke="#000000" stroke-width="8.27" stroke-linejoin="bevel" points="3083.6,1765.98 3083.6,1572.52" />
<polyline class="Stem" fill="none" stroke="#000000" stroke-width="8.27" stroke-linejoin="bevel" points="4476.13,1063.23 4476.13,787.747" />
<polyline class="Stem" fill="none" stroke="#000000" stroke-width="8.27" stroke-linejoin="bevel" points="7537.44,2096.69 7537.44,1820.55" />
<polyline class="Stem" fill="none" stroke="#000000" stroke-width="8.27" stroke-linejoin="bevel" points="2404.39,1063.23 2404.39,787.085" />
<polyline class="Stem" fill="none" stroke="#000000" stroke-width="8.27" stroke-linejoin="bevel" points="4705.54,1145.9 4705.54,870.424" />
<polyline class="Stem" fill="none" stroke="#000000" stroke-width="8.27" stroke-linejoin="bevel" points="7302.01,2014.01 7302.01,1738.53" />
<polyline class="Stem" fill="none" stroke="#000000" stroke-width="8.27" stroke-linejoin="bevel" points="4934.95,1228.58 4934.95,952.439" />
<polyline class="Stem" fill="none" stroke="#000000" stroke-width="8.27" stroke-linejoin="bevel" points="4032.8,1007.67 4032.8,1241.81" />
<polyline class="Stem" fill="none" stroke="#000000" stroke-width="8.27" stroke-linejoin="bevel" points="3321.4,1807.32 3321.4,1572.52" />
<polyline class="Stem" fill="none" stroke="#000000" stroke-width="8.27" stroke-linejoin="bevel" points="7066.59,1931.34 7066.59,1655.86" />
<polyline class="Stem" fill="none" stroke="#000000" stroke-width="8.27" stroke-linejoin="bevel" points="3669.67,1187.24 3669.67,911.101" />
<polyline class="Stem" fill="none" stroke="#000000" stroke-width="8.27" stroke-linejoin="bevel" points="5397.29,1021.89 5397.29,808.12" />
<polyline class="Stem" fill="none" stroke="#000000" stroke-width="8.27" stroke-linejoin="bevel" points="2494.52,1972.68 2494.52,1633.99" />
<polyline class="Stem" fill="none" stroke="#000000" stroke-width="8.27" stroke-linejoin="bevel" points="8715.09,1931.34 8715.09,1655.2" />
<polyline class="Stem" fill="none" stroke="#000000" stroke-width="8.27" stroke-linejoin="bevel" points="5626.7,1187.24 5626.7,828.424" />
<polyline class="Stem" fill="none" stroke="#000000" stroke-width="8.27" stroke-linejoin="bevel" points="6614.23,1875.78 6614.23,2109.92" />
<polyline class="Stem" fill="none" stroke="#000000" stroke-width="8.27" stroke-linejoin="bevel" points="5856.11,1104.57 5856.11,848.727" />
<polyline class="Stem" fill="none" stroke="#000000" stroke-width="8.27" stroke-linejoin="bevel" points="1601.46,1063.23 1601.46,787.085" />
<polyline class="Stem" fill="none" stroke="#000000" stroke-width="8.27" stroke-linejoin="bevel" points="6085.52,1063.23 6085.52,787.085" />
<polyline class="Stem" fill="none" stroke="#000000" stroke-width="8.27" stroke-linejoin="bevel" points="6242.08,2055.35 6242.08,1779.21" />
<polyline class="Stem" fill="none" stroke="#000000" stroke-width="8.27" stroke-linejoin="bevel" points="6006.65,1972.68 6006.65,1697.2" />
<polyline class="Stem" fill="none" stroke="#000000" stroke-width="8.27" stroke-linejoin="bevel" points="2075.77,1007.67 2075.77,1262.15" />
<polyline class="Stem" fill="none" stroke="#000000" stroke-width="8.27" stroke-linejoin="bevel" points="3440.26,1104.57 3440.26,829.085" />
<polyline class="Stem" fill="none" stroke="#000000" stroke-width="8.27" stroke-linejoin="bevel" points="2259.09,1931.34 2259.09,1603.52" />
<polyline class="Stem" fill="none" stroke="#000000" stroke-width="8.27" stroke-linejoin="bevel" points="6891.48,1063.23 6891.48,787.085" />
<polyline class="Stem" fill="none" stroke="#000000" stroke-width="8.27" stroke-linejoin="bevel" points="5771.23,1890 5771.23,1635.19" />
<polyline class="Stem" fill="none" stroke="#000000" stroke-width="8.27" stroke-linejoin="bevel" points="8244.24,2055.35 8244.24,1696.53" />
<polyline class="Stem" fill="none" stroke="#000000" stroke-width="8.27" stroke-linejoin="bevel" points="7136.38,800.975 7136.38,1076.12" />
<polyline class="Stem" fill="none" stroke="#000000" stroke-width="8.27" stroke-linejoin="bevel" points="2023.67,1765.98 2023.67,1573.05" />
<polyline class="Stem" fill="none" stroke="#000000" stroke-width="8.27" stroke-linejoin="bevel" points="3457.62,1793.1 3457.62,2068.58" />
<polyline class="Stem" fill="none" stroke="#000000" stroke-width="8.27" stroke-linejoin="bevel" points="7365.79,800.975 7365.79,1076.12" />
<polyline class="Stem" fill="none" stroke="#000000" stroke-width="8.27" stroke-linejoin="bevel" points="5318.87,1834.44 5318.87,2089.25" />
<polyline class="Stem" fill="none" stroke="#000000" stroke-width="8.27" stroke-linejoin="bevel" points="7595.2,924.991 7595.2,1200.47" />
<polyline class="Stem" fill="none" stroke="#000000" stroke-width="8.27" stroke-linejoin="bevel" points="1689.03,1793.1 1689.03,2068.25" />
<polyline class="Stem" fill="none" stroke="#000000" stroke-width="8.27" stroke-linejoin="bevel" points="1846.36,924.991 1846.36,1200.14" />
<polyline class="Stem" fill="none" stroke="#000000" stroke-width="8.27" stroke-linejoin="bevel" points="3210.85,1021.89 3210.85,767.077" />
<polyline class="Stem" fill="none" stroke="#000000" stroke-width="8.27" stroke-linejoin="bevel" points="8156.76,1063.23 8156.76,787.085" />
<polyline class="Stem" fill="none" stroke="#000000" stroke-width="8.27" stroke-linejoin="bevel" points="4946.72,1931.34 4946.72,1655.2" />
<polyline class="Stem" fill="none" stroke="#000000" stroke-width="8.27" stroke-linejoin="bevel" points="8008.81,1890 8008.81,1676.22" />
<polyline class="Stem" fill="none" stroke="#000000" stroke-width="8.27" stroke-linejoin="bevel" points="8401.66,883.652 8401.66,1158.8" />
<polyline class="Stem" fill="none" stroke="#000000" stroke-width="8.27" stroke-linejoin="bevel" points="1435.1,1972.68 1435.1,1696.53" />
<polyline class="Stem" fill="none" stroke="#000000" stroke-width="8.27" stroke-linejoin="bevel" points="4612.08,1875.78 4612.08,2130.26" />
<polyline class="Stem" fill="none" stroke="#000000" stroke-width="8.27" stroke-linejoin="bevel" points="8479.66,1972.68 8479.66,1716.85" />
<polyline class="Stem" fill="none" stroke="#000000" stroke-width="8.27" stroke-linejoin="bevel" points="4376.65,1793.1 4376.65,2068.25" />
<polyline class="Stem" fill="none" stroke="#000000" stroke-width="8.27" stroke-linejoin="bevel" points="8860.48,966.329 8860.48,1221.14" />
<polyline class="Stem" fill="none" stroke="#000000" stroke-width="8.27" stroke-linejoin="bevel" points="4122.72,1931.34 4122.72,1655.2" />
<polyline class="Stem" fill="none" stroke="#000000" stroke-width="8.27" stroke-linejoin="bevel" points="2848.17,2014.01 2848.17,1572.52" />
<path class="Hook" d="M4372.52,2068.25 C4372.52,2070.57 4374.5,2072.55 4376.82,2072.55 C4378.48,2072.55 4380.46,2071.23 4380.79,2069.91 C4380.79,2069.57 4383.77,2057.99 4384.1,2057 C4384.43,2055.67 4387.41,2043.09 4399.33,2023.57 C4412.24,2002.05 4432.1,1986.49 4448.65,1963.32 C4464.87,1940.15 4474.8,1918.31 4474.8,1889.18 C4474.8,1859.06 4467.85,1833.9 4450.3,1801.8 C4449.31,1799.48 4447.32,1798.15 4445.34,1798.15 C4444.68,1798.15 4444.01,1798.15 4443.68,1798.49 C4442.03,1799.15 4441.37,1800.47 4441.37,1802.46 C4441.37,1803.45 4441.7,1805.11 4442.36,1806.43 C4455.6,1837.21 4460.89,1854.76 4460.89,1878.59 C4460.89,1906.06 4451.3,1920.29 4445.34,1930.55 C4423.82,1967.3 4389.07,1985.17 4375.17,1989.8 C4372.85,1990.8 4372.52,1992.45 4372.52,1993.44 L4372.52,2068.25 "/>
<path class="Hook" d="M4607.94,2130.26 C4607.94,2132.58 4609.93,2134.56 4612.25,2134.56 C4613.9,2134.56 4615.89,2133.24 4616.22,2131.91 C4616.22,2131.58 4619.2,2120 4619.53,2119 C4619.86,2117.68 4622.84,2105.1 4634.76,2085.57 C4647.66,2064.06 4667.52,2048.5 4684.07,2025.33 C4700.29,2002.16 4710.22,1980.32 4710.22,1951.19 C4710.22,1921.07 4703.27,1895.91 4685.73,1863.8 C4684.74,1861.49 4682.75,1860.16 4680.76,1860.16 C4680.1,1860.16 4679.44,1860.16 4679.11,1860.49 C4677.45,1861.16 4676.79,1862.48 4676.79,1864.47 C4676.79,1865.46 4677.12,1867.11 4677.79,1868.44 C4691.03,1899.22 4696.32,1916.76 4696.32,1940.6 C4696.32,1968.07 4686.72,1982.3 4680.76,1992.56 C4659.25,2029.3 4624.49,2047.18 4610.59,2051.81 C4608.28,2052.8 4607.94,2054.46 4607.94,2055.45 L4607.94,2130.26 "/>
<path class="Hook" d="M2071.64,1262.15 C2071.64,1264.46 2073.62,1266.45 2075.94,1266.45 C2077.6,1266.45 2079.58,1265.13 2079.91,1263.8 C2079.91,1263.47 2082.89,1251.89 2083.22,1250.89 C2083.55,1249.57 2086.53,1236.99 2098.45,1217.46 C2111.36,1195.95 2131.22,1180.39 2147.77,1157.22 C2163.99,1134.05 2173.92,1112.2 2173.92,1083.08 C2173.92,1052.96 2166.97,1027.8 2149.42,995.693 C2148.43,993.376 2146.44,992.052 2144.46,992.052 C2143.8,992.052 2143.13,992.052 2142.8,992.383 C2141.15,993.045 2140.49,994.369 2140.49,996.355 C2140.49,997.348 2140.82,999.003 2141.48,1000.33 C2154.72,1031.11 2160.02,1048.65 2160.02,1072.48 C2160.02,1099.96 2150.42,1114.19 2144.46,1124.45 C2122.94,1161.19 2088.19,1179.07 2074.29,1183.7 C2071.97,1184.69 2071.64,1186.35 2071.64,1187.34 L2071.64,1262.15 "/>
<path class="Hook" d="M3206.72,841.553 C3206.72,842.546 3207.05,844.201 3209.37,845.194 C3223.6,849.828 3252.06,867.702 3273.58,904.443 C3279.54,914.704 3289.14,928.937 3289.14,956.41 C3289.14,980.242 3282.85,1004.74 3274.24,1028.57 C3273.58,1030.55 3272.92,1032.21 3273.25,1033.53 C3273.25,1035.52 3274.57,1036.84 3276.56,1036.84 C3278.88,1036.84 3280.53,1035.52 3281.85,1033.2 C3296.75,1006.72 3302.38,975.939 3302.38,945.818 C3300.72,903.119 3276.23,871.674 3276.23,871.674 C3277.22,871.674 3245.78,830.961 3236.84,817.059 C3224.59,798.192 3218.96,779.325 3218.3,778.001 C3217.97,777.008 3214.99,765.092 3214.99,765.092 C3214.66,763.768 3213.01,762.444 3211.02,762.444 C3208.7,762.444 3206.72,764.43 3206.72,766.747 L3206.72,841.553 "/>
<path class="Hook" d="M8397.53,1158.8 C8397.53,1161.12 8399.51,1163.1 8401.83,1163.1 C8403.48,1163.1 8405.47,1161.78 8405.8,1160.46 C8405.8,1160.13 8408.78,1148.54 8409.11,1147.55 C8409.44,1146.22 8412.42,1133.65 8424.34,1114.12 C8437.25,1092.6 8457.11,1077.04 8473.66,1053.87 C8489.88,1030.7 8499.81,1008.86 8499.81,979.73 C8499.81,949.609 8492.85,924.453 8475.31,892.346 C8474.32,890.029 8472.33,888.705 8470.35,888.705 C8469.68,888.705 8469.02,888.705 8468.69,889.036 C8467.04,889.698 8466.37,891.022 8466.37,893.008 C8466.37,894.001 8466.71,895.656 8467.37,896.98 C8480.61,927.763 8485.9,945.306 8485.9,969.138 C8485.9,996.611 8476.3,1010.84 8470.35,1021.11 C8448.83,1057.85 8414.08,1075.72 8400.17,1080.35 C8397.86,1081.35 8397.53,1083 8397.53,1084 L8397.53,1158.8 "/>
<path class="Hook" d="M1684.89,2068.25 C1684.89,2070.57 1686.88,2072.55 1689.2,2072.55 C1690.85,2072.55 1692.84,2071.23 1693.17,2069.91 C1693.17,2069.57 1696.15,2057.99 1696.48,2057 C1696.81,2055.67 1699.79,2043.09 1711.7,2023.57 C1724.61,2002.05 1744.47,1986.49 1761.02,1963.32 C1777.24,1940.15 1787.17,1918.31 1787.17,1889.18 C1787.17,1859.06 1780.22,1833.9 1762.68,1801.8 C1761.68,1799.48 1759.7,1798.15 1757.71,1798.15 C1757.05,1798.15 1756.39,1798.15 1756.06,1798.49 C1754.4,1799.15 1753.74,1800.47 1753.74,1802.46 C1753.74,1803.45 1754.07,1805.11 1754.73,1806.43 C1767.97,1837.21 1773.27,1854.76 1773.27,1878.59 C1773.27,1906.06 1763.67,1920.29 1757.71,1930.55 C1736.2,1967.3 1701.44,1985.17 1687.54,1989.8 C1685.22,1990.8 1684.89,1992.45 1684.89,1993.44 L1684.89,2068.25 "/>
<path class="Hook" d="M1842.23,1200.14 C1842.23,1202.46 1844.22,1204.44 1846.53,1204.44 C1848.19,1204.44 1850.17,1203.12 1850.5,1201.79 C1850.5,1201.46 1853.48,1189.88 1853.81,1188.89 C1854.15,1187.56 1857.12,1174.98 1869.04,1155.45 C1881.95,1133.94 1901.81,1118.38 1918.36,1095.21 C1934.58,1072.04 1944.51,1050.2 1944.51,1021.07 C1944.51,990.948 1937.56,965.792 1920.01,933.685 C1919.02,931.368 1917.04,930.044 1915.05,930.044 C1914.39,930.044 1913.73,930.044 1913.39,930.375 C1911.74,931.037 1911.08,932.361 1911.08,934.347 C1911.08,935.34 1911.41,936.995 1912.07,938.319 C1925.31,969.102 1930.61,986.645 1930.61,1010.48 C1930.61,1037.95 1921.01,1052.18 1915.05,1062.44 C1893.53,1099.18 1858.78,1117.06 1844.88,1121.69 C1842.56,1122.69 1842.23,1124.34 1842.23,1125.33 L1842.23,1200.14 "/>
<path class="Hook" d="M7361.66,1076.12 C7361.66,1078.44 7363.65,1080.43 7365.96,1080.43 C7367.62,1080.43 7369.6,1079.1 7369.93,1077.78 C7369.93,1077.45 7372.91,1065.86 7373.24,1064.87 C7373.58,1063.55 7376.55,1050.97 7388.47,1031.44 C7401.38,1009.92 7421.24,994.367 7437.79,971.197 C7454.01,948.027 7463.94,926.181 7463.94,897.053 C7463.94,866.932 7456.99,841.776 7439.44,809.669 C7438.45,807.352 7436.47,806.028 7434.48,806.028 C7433.82,806.028 7433.16,806.028 7432.82,806.359 C7431.17,807.021 7430.51,808.345 7430.51,810.331 C7430.51,811.324 7430.84,812.979 7431.5,814.303 C7444.74,845.086 7450.04,862.629 7450.04,886.461 C7450.04,913.934 7440.44,928.167 7434.48,938.428 C7412.96,975.169 7378.21,993.043 7364.31,997.677 C7361.99,998.67 7361.66,1000.33 7361.66,1001.32 L7361.66,1076.12 "/>
<path class="Hook" d="M5767.09,1709.66 C5767.09,1710.66 5767.42,1712.31 5769.74,1713.3 C5783.97,1717.94 5812.44,1735.81 5833.95,1772.55 C5839.91,1782.81 5849.51,1797.05 5849.51,1824.52 C5849.51,1848.35 5843.22,1872.85 5834.62,1896.68 C5833.95,1898.66 5833.29,1900.32 5833.62,1901.64 C5833.62,1903.63 5834.95,1904.95 5836.93,1904.95 C5839.25,1904.95 5840.9,1903.63 5842.23,1901.31 C5857.12,1874.83 5862.75,1844.05 5862.75,1813.93 C5861.1,1771.23 5836.6,1739.78 5836.6,1739.78 C5837.59,1739.78 5806.15,1699.07 5797.21,1685.17 C5784.97,1666.3 5779.34,1647.44 5778.68,1646.11 C5778.35,1645.12 5775.37,1633.2 5775.37,1633.2 C5775.04,1631.88 5773.38,1630.55 5771.39,1630.55 C5769.08,1630.55 5767.09,1632.54 5767.09,1634.86 L5767.09,1709.66 "/>
<path class="Hook" d="M8626.94,1158.8 C8626.94,1161.12 8628.92,1163.1 8631.24,1163.1 C8632.89,1163.1 8634.88,1161.78 8635.21,1160.46 C8635.21,1160.13 8638.19,1148.54 8638.52,1147.55 C8638.85,1146.22 8641.83,1133.65 8653.75,1114.12 C8666.66,1092.6 8686.52,1077.04 8703.07,1053.87 C8719.28,1030.7 8729.21,1008.86 8729.21,979.73 C8729.21,949.609 8722.26,924.453 8704.72,892.346 C8703.73,890.029 8701.74,888.705 8699.76,888.705 C8699.09,888.705 8698.43,888.705 8698.1,889.036 C8696.45,889.698 8695.78,891.022 8695.78,893.008 C8695.78,894.001 8696.11,895.656 8696.78,896.98 C8710.02,927.763 8715.31,945.306 8715.31,969.138 C8715.31,996.611 8705.71,1010.84 8699.76,1021.11 C8678.24,1057.85 8643.49,1075.72 8629.58,1080.35 C8627.27,1081.35 8626.94,1083 8626.94,1084 L8626.94,1158.8 "/>
<path class="Hook" d="M7132.25,1076.12 C7132.25,1078.44 7134.24,1080.43 7136.55,1080.43 C7138.21,1080.43 7140.19,1079.1 7140.53,1077.78 C7140.53,1077.45 7143.5,1065.86 7143.84,1064.87 C7144.17,1063.55 7147.15,1050.97 7159.06,1031.44 C7171.97,1009.92 7191.83,994.367 7208.38,971.197 C7224.6,948.027 7234.53,926.181 7234.53,897.053 C7234.53,866.932 7227.58,841.776 7210.04,809.669 C7209.04,807.352 7207.06,806.028 7205.07,806.028 C7204.41,806.028 7203.75,806.028 7203.42,806.359 C7201.76,807.021 7201.1,808.345 7201.1,810.331 C7201.1,811.324 7201.43,812.979 7202.09,814.303 C7215.33,845.086 7220.63,862.629 7220.63,886.461 C7220.63,913.934 7211.03,928.167 7205.07,938.428 C7183.56,975.169 7148.8,993.043 7134.9,997.677 C7132.58,998.67 7132.25,1000.33 7132.25,1001.32 L7132.25,1076.12 "/>
<path class="Hook" d="M3436.13,903.561 C3436.13,904.554 3436.46,906.209 3438.78,907.202 C3453.01,911.836 3481.47,929.71 3502.99,966.451 C3508.95,976.712 3518.55,990.945 3518.55,1018.42 C3518.55,1042.25 3512.26,1066.74 3503.65,1090.58 C3502.99,1092.56 3502.33,1094.22 3502.66,1095.54 C3502.66,1097.53 3503.98,1098.85 3505.97,1098.85 C3508.29,1098.85 3509.94,1097.53 3511.26,1095.21 C3526.16,1068.73 3531.79,1037.95 3531.79,1007.83 C3530.13,965.127 3505.64,933.682 3505.64,933.682 C3506.63,933.682 3475.19,892.969 3466.25,879.067 C3454,860.2 3448.37,841.333 3447.71,840.009 C3447.38,839.016 3444.4,827.1 3444.4,827.1 C3444.07,825.776 3442.42,824.452 3440.43,824.452 C3438.11,824.452 3436.13,826.438 3436.13,828.755 L3436.13,903.561 "/>
<path class="Hook" d="M6002.52,1771.67 C6002.52,1772.66 6002.85,1774.32 6005.17,1775.31 C6019.4,1779.95 6047.87,1797.82 6069.38,1834.56 C6075.34,1844.82 6084.94,1859.05 6084.94,1886.53 C6084.94,1910.36 6078.65,1934.85 6070.04,1958.69 C6069.38,1960.67 6068.72,1962.33 6069.05,1963.65 C6069.05,1965.64 6070.37,1966.96 6072.36,1966.96 C6074.68,1966.96 6076.33,1965.64 6077.66,1963.32 C6092.55,1936.84 6098.18,1906.06 6098.18,1875.94 C6096.52,1833.24 6072.03,1801.79 6072.03,1801.79 C6073.02,1801.79 6041.58,1761.08 6032.64,1747.18 C6020.39,1728.31 6014.77,1709.44 6014.1,1708.12 C6013.77,1707.13 6010.79,1695.21 6010.79,1695.21 C6010.46,1693.89 6008.81,1692.56 6006.82,1692.56 C6004.5,1692.56 6002.52,1694.55 6002.52,1696.86 L6002.52,1771.67 "/>
<path class="Hook" d="M7062.45,1730.33 C7062.45,1731.33 7062.78,1732.98 7065.1,1733.97 C7079.33,1738.61 7107.8,1756.48 7129.32,1793.22 C7135.27,1803.48 7144.87,1817.72 7144.87,1845.19 C7144.87,1869.02 7138.58,1893.52 7129.98,1917.35 C7129.32,1919.33 7128.65,1920.99 7128.98,1922.31 C7128.98,1924.3 7130.31,1925.62 7132.29,1925.62 C7134.61,1925.62 7136.27,1924.3 7137.59,1921.98 C7152.49,1895.5 7158.11,1864.72 7158.11,1834.6 C7156.46,1791.9 7131.96,1760.45 7131.96,1760.45 C7132.96,1760.45 7101.51,1719.74 7092.57,1705.84 C7080.33,1686.97 7074.7,1668.1 7074.04,1666.78 C7073.71,1665.79 7070.73,1653.87 7070.73,1653.87 C7070.4,1652.55 7068.74,1651.22 7066.76,1651.22 C7064.44,1651.22 7062.45,1653.21 7062.45,1655.53 L7062.45,1730.33 "/>
<path class="Hook" d="M7297.88,1813.01 C7297.88,1814 7298.21,1815.66 7300.53,1816.65 C7314.76,1821.28 7343.23,1839.16 7364.74,1875.9 C7370.7,1886.16 7380.3,1900.39 7380.3,1927.87 C7380.3,1951.7 7374.01,1976.19 7365.4,2000.02 C7364.74,2002.01 7364.08,2003.67 7364.41,2004.99 C7364.41,2006.98 7365.74,2008.3 7367.72,2008.3 C7370.04,2008.3 7371.69,2006.98 7373.02,2004.66 C7387.91,1978.18 7393.54,1947.4 7393.54,1917.27 C7391.88,1874.58 7367.39,1843.13 7367.39,1843.13 C7368.38,1843.13 7336.94,1802.42 7328,1788.52 C7315.75,1769.65 7310.13,1750.78 7309.47,1749.46 C7309.13,1748.46 7306.16,1736.55 7306.16,1736.55 C7305.82,1735.22 7304.17,1733.9 7302.18,1733.9 C7299.87,1733.9 7297.88,1735.89 7297.88,1738.2 L7297.88,1813.01 "/>
<path class="Hook" d="M4701.4,944.899 C4701.4,945.892 4701.73,947.547 4704.05,948.54 C4718.28,953.174 4746.75,971.048 4768.27,1007.79 C4774.22,1018.05 4783.82,1032.28 4783.82,1059.76 C4783.82,1083.59 4777.53,1108.08 4768.93,1131.91 C4768.27,1133.9 4767.6,1135.56 4767.93,1136.88 C4767.93,1138.87 4769.26,1140.19 4771.24,1140.19 C4773.56,1140.19 4775.22,1138.87 4776.54,1136.55 C4791.44,1110.07 4797.06,1079.29 4797.06,1049.16 C4795.41,1006.47 4770.91,975.02 4770.91,975.02 C4771.91,975.02 4740.46,934.307 4731.52,920.405 C4719.28,901.538 4713.65,882.671 4712.99,881.347 C4712.66,880.354 4709.68,868.438 4709.68,868.438 C4709.35,867.114 4707.69,865.79 4705.71,865.79 C4703.39,865.79 4701.4,867.776 4701.4,870.093 L4701.4,944.899 "/>
<path class="Hook" d="M4471.99,862.222 C4471.99,863.215 4472.32,864.87 4474.64,865.863 C4488.87,870.497 4517.34,888.371 4538.86,925.112 C4544.81,935.373 4554.41,949.606 4554.41,977.079 C4554.41,1000.91 4548.12,1025.41 4539.52,1049.24 C4538.86,1051.22 4538.19,1052.88 4538.52,1054.2 C4538.52,1056.19 4539.85,1057.51 4541.83,1057.51 C4544.15,1057.51 4545.81,1056.19 4547.13,1053.87 C4562.03,1027.39 4567.65,996.608 4567.65,966.487 C4566,923.788 4541.5,892.343 4541.5,892.343 C4542.5,892.343 4511.05,851.63 4502.11,837.728 C4489.87,818.861 4484.24,799.994 4483.58,798.67 C4483.25,797.677 4480.27,785.761 4480.27,785.761 C4479.94,784.437 4478.28,783.113 4476.3,783.113 C4473.98,783.113 4471.99,785.099 4471.99,787.416 L4471.99,862.222 "/>
<path class="Note" d="M1920.32,1793.11 C1920.32,1807.35 1930.58,1823.23 1957.39,1823.23 C1991.82,1823.23 2027.89,1795.1 2027.89,1765.97 C2027.89,1746.44 2011.34,1735.52 1990.82,1735.52 C1958.72,1735.52 1920.32,1762.66 1920.32,1793.11"/>
<path class="Note" d="M4028.67,1007.68 C4028.67,1021.91 4038.93,1037.8 4065.74,1037.8 C4100.16,1037.8 4136.24,1009.67 4136.24,980.538 C4136.24,961.009 4119.69,950.086 4099.17,950.086 C4067.06,950.086 4028.67,977.228 4028.67,1007.68"/>
<path class="Note" d="M7905.46,1917.13 C7905.46,1931.36 7915.72,1947.25 7942.53,1947.25 C7976.96,1947.25 8013.04,1919.11 8013.04,1889.99 C8013.04,1870.46 7996.49,1859.53 7975.97,1859.53 C7943.86,1859.53 7905.46,1886.68 7905.46,1917.13"/>
<path class="Note" d="M2071.64,1007.68 C2071.64,1021.91 2081.9,1037.8 2108.71,1037.8 C2143.13,1037.8 2179.21,1009.67 2179.21,980.538 C2179.21,961.009 2162.66,950.086 2142.14,950.086 C2110.03,950.086 2071.64,977.228 2071.64,1007.68"/>
<path class="Note" d="M2980.25,1793.11 C2980.25,1807.35 2990.52,1823.23 3017.33,1823.23 C3051.75,1823.23 3087.83,1795.1 3087.83,1765.97 C3087.83,1746.44 3071.28,1735.52 3050.76,1735.52 C3018.65,1735.52 2980.25,1762.66 2980.25,1793.11"/>
<path class="Note" d="M2391.17,1999.81 C2391.17,2014.04 2401.43,2029.93 2428.24,2029.93 C2462.67,2029.93 2498.75,2001.79 2498.75,1972.66 C2498.75,1953.14 2482.2,1942.21 2461.68,1942.21 C2429.57,1942.21 2391.17,1969.35 2391.17,1999.81"/>
<path class="Note" d="M3218.06,1834.45 C3218.06,1848.68 3228.32,1864.57 3255.13,1864.57 C3289.55,1864.57 3325.63,1836.44 3325.63,1807.31 C3325.63,1787.78 3309.08,1776.86 3288.56,1776.86 C3256.45,1776.86 3218.06,1804 3218.06,1834.45"/>
<path class="Note" d="M2155.75,1958.47 C2155.75,1972.7 2166.01,1988.59 2192.82,1988.59 C2227.24,1988.59 2263.32,1960.45 2263.32,1931.33 C2263.32,1911.8 2246.77,1900.87 2226.25,1900.87 C2194.14,1900.87 2155.75,1928.02 2155.75,1958.47"/>
<path class="Note" d="M1684.89,1793.11 C1684.89,1807.35 1695.15,1823.23 1721.96,1823.23 C1756.39,1823.23 1792.47,1795.1 1792.47,1765.97 C1792.47,1746.44 1775.92,1735.52 1755.4,1735.52 C1723.29,1735.52 1684.89,1762.66 1684.89,1793.11"/>
<path class="Note" d="M3453.48,1793.11 C3453.48,1807.35 3463.74,1823.23 3490.56,1823.23 C3524.98,1823.23 3561.06,1795.1 3561.06,1765.97 C3561.06,1746.44 3544.51,1735.52 3523.99,1735.52 C3491.88,1735.52 3453.48,1762.66 3453.48,1793.11"/>
<path class="Note" d="M1331.75,1999.81 C1331.75,2014.04 1342.01,2029.93 1368.82,2029.93 C1403.25,2029.93 1439.33,2001.79 1439.33,1972.66 C1439.33,1953.14 1422.78,1942.21 1402.26,1942.21 C1370.15,1942.21 1331.75,1969.35 1331.75,1999.81"/>
<path class="Note" d="M8140.89,2082.48 C8140.89,2096.72 8151.15,2112.6 8177.96,2112.6 C8212.38,2112.6 8248.46,2084.47 8248.46,2055.34 C8248.46,2035.81 8231.91,2024.89 8211.39,2024.89 C8179.28,2024.89 8140.89,2052.03 8140.89,2082.48"/>
<path class="Note" d="M1842.23,925.003 C1842.23,939.236 1852.49,955.124 1879.3,955.124 C1913.73,955.124 1949.8,926.989 1949.8,897.861 C1949.8,878.332 1933.25,867.409 1912.73,867.409 C1880.63,867.409 1842.23,894.551 1842.23,925.003"/>
<path class="Note" d="M2301.05,1090.36 C2301.05,1104.59 2311.31,1120.48 2338.12,1120.48 C2372.54,1120.48 2408.62,1092.34 2408.62,1063.22 C2408.62,1043.69 2392.07,1032.76 2371.55,1032.76 C2339.44,1032.76 2301.05,1059.91 2301.05,1090.36"/>
<path class="Note" d="M4019.38,1958.47 C4019.38,1972.7 4029.64,1988.59 4056.45,1988.59 C4090.87,1988.59 4126.95,1960.45 4126.95,1931.33 C4126.95,1911.8 4110.4,1900.87 4089.88,1900.87 C4057.77,1900.87 4019.38,1928.02 4019.38,1958.47"/>
<path class="Note" d="M8856.35,966.341 C8856.35,980.574 8866.61,996.462 8893.42,996.462 C8927.84,996.462 8963.92,968.327 8963.92,939.199 C8963.92,919.67 8947.37,908.747 8926.85,908.747 C8894.74,908.747 8856.35,935.889 8856.35,966.341"/>
<path class="Note" d="M8626.94,883.664 C8626.94,897.897 8637.2,913.785 8664.01,913.785 C8698.43,913.785 8734.51,885.65 8734.51,856.522 C8734.51,836.993 8717.96,826.07 8697.44,826.07 C8665.33,826.07 8626.94,853.212 8626.94,883.664"/>
<path class="Note" d="M4372.52,1793.11 C4372.52,1807.35 4382.78,1823.23 4409.59,1823.23 C4444.01,1823.23 4480.09,1795.1 4480.09,1765.97 C4480.09,1746.44 4463.54,1735.52 4443.02,1735.52 C4410.91,1735.52 4372.52,1762.66 4372.52,1793.11"/>
<path class="Note" d="M8397.53,883.664 C8397.53,897.897 8407.79,913.785 8434.6,913.785 C8469.02,913.785 8505.1,885.65 8505.1,856.522 C8505.1,836.993 8488.55,826.07 8468.03,826.07 C8435.92,826.07 8397.53,853.212 8397.53,883.664"/>
<path class="Note" d="M2763.39,966.341 C2763.39,980.574 2773.65,996.462 2800.46,996.462 C2834.89,996.462 2870.97,968.327 2870.97,939.199 C2870.97,919.67 2854.42,908.747 2833.89,908.747 C2801.79,908.747 2763.39,935.889 2763.39,966.341"/>
<path class="Note" d="M4607.94,1875.79 C4607.94,1890.02 4618.21,1905.91 4645.02,1905.91 C4679.44,1905.91 4715.52,1877.78 4715.52,1848.65 C4715.52,1829.12 4698.97,1818.2 4678.45,1818.2 C4646.34,1818.2 4607.94,1845.34 4607.94,1875.79"/>
<path class="Note" d="M8053.41,1090.36 C8053.41,1104.59 8063.67,1120.48 8090.48,1120.48 C8124.91,1120.48 8160.99,1092.34 8160.99,1063.22 C8160.99,1043.69 8144.44,1032.76 8123.91,1032.76 C8091.81,1032.76 8053.41,1059.91 8053.41,1090.36"/>
<path class="Note" d="M4843.37,1958.47 C4843.37,1972.7 4853.63,1988.59 4880.44,1988.59 C4914.87,1988.59 4950.95,1960.45 4950.95,1931.33 C4950.95,1911.8 4934.4,1900.87 4913.87,1900.87 C4881.77,1900.87 4843.37,1928.02 4843.37,1958.47"/>
<path class="Note" d="M3107.51,1049.02 C3107.51,1063.25 3117.77,1079.14 3144.58,1079.14 C3179,1079.14 3215.08,1051 3215.08,1021.88 C3215.08,1002.35 3198.53,991.425 3178.01,991.425 C3145.9,991.425 3107.51,1018.57 3107.51,1049.02"/>
<path class="Note" d="M7591.07,925.003 C7591.07,939.236 7601.33,955.124 7628.14,955.124 C7662.57,955.124 7698.64,926.989 7698.64,897.861 C7698.64,878.332 7682.09,867.409 7661.57,867.409 C7629.47,867.409 7591.07,894.551 7591.07,925.003"/>
<path class="Note" d="M7361.66,800.987 C7361.66,815.22 7371.92,831.108 7398.73,831.108 C7433.16,831.108 7469.23,802.973 7469.23,773.845 C7469.23,754.316 7452.68,743.393 7432.16,743.393 C7400.06,743.393 7361.66,770.535 7361.66,800.987"/>
<path class="Note" d="M5314.74,1834.45 C5314.74,1848.68 5325,1864.57 5351.81,1864.57 C5386.24,1864.57 5422.31,1836.44 5422.31,1807.31 C5422.31,1787.78 5405.76,1776.86 5385.24,1776.86 C5353.14,1776.86 5314.74,1804 5314.74,1834.45"/>
<path class="Note" d="M7132.25,800.987 C7132.25,815.22 7142.51,831.108 7169.32,831.108 C7203.75,831.108 7239.83,802.973 7239.83,773.845 C7239.83,754.316 7223.28,743.393 7202.75,743.393 C7170.65,743.393 7132.25,770.535 7132.25,800.987"/>
<path class="Note" d="M6788.14,1090.36 C6788.14,1104.59 6798.4,1120.48 6825.21,1120.48 C6859.63,1120.48 6895.71,1092.34 6895.71,1063.22 C6895.71,1043.69 6879.16,1032.76 6858.64,1032.76 C6826.53,1032.76 6788.14,1059.91 6788.14,1090.36"/>
<path class="Note" d="M5667.88,1917.13 C5667.88,1931.36 5678.14,1947.25 5704.95,1947.25 C5739.38,1947.25 5775.45,1919.11 5775.45,1889.99 C5775.45,1870.46 5758.9,1859.53 5738.38,1859.53 C5706.28,1859.53 5667.88,1886.68 5667.88,1917.13"/>
<path class="Note" d="M3336.91,1131.7 C3336.91,1145.93 3347.18,1161.82 3373.99,1161.82 C3408.41,1161.82 3444.49,1133.68 3444.49,1104.55 C3444.49,1085.02 3427.94,1074.1 3407.42,1074.1 C3375.31,1074.1 3336.91,1101.24 3336.91,1131.7"/>
<path class="Note" d="M8376.32,1999.81 C8376.32,2014.04 8386.58,2029.93 8413.39,2029.93 C8447.81,2029.93 8483.89,2001.79 8483.89,1972.66 C8483.89,1953.14 8467.34,1942.21 8446.82,1942.21 C8414.71,1942.21 8376.32,1969.35 8376.32,1999.81"/>
<path class="Note" d="M5903.31,1999.81 C5903.31,2014.04 5913.57,2029.93 5940.38,2029.93 C5974.8,2029.93 6010.88,2001.79 6010.88,1972.66 C6010.88,1953.14 5994.33,1942.21 5973.81,1942.21 C5941.7,1942.21 5903.31,1969.35 5903.31,1999.81"/>
<path class="Note" d="M5982.17,1090.36 C5982.17,1104.59 5992.43,1120.48 6019.24,1120.48 C6053.67,1120.48 6089.75,1092.34 6089.75,1063.22 C6089.75,1043.69 6073.2,1032.76 6052.67,1032.76 C6020.57,1032.76 5982.17,1059.91 5982.17,1090.36"/>
<path class="Note" d="M6138.73,2082.48 C6138.73,2096.72 6148.99,2112.6 6175.8,2112.6 C6210.23,2112.6 6246.31,2084.47 6246.31,2055.34 C6246.31,2035.81 6229.76,2024.89 6209.24,2024.89 C6177.13,2024.89 6138.73,2052.03 6138.73,2082.48"/>
<path class="Note" d="M1498.11,1090.36 C1498.11,1104.59 1508.38,1120.48 1535.19,1120.48 C1569.61,1120.48 1605.69,1092.34 1605.69,1063.22 C1605.69,1043.69 1589.14,1032.76 1568.62,1032.76 C1536.51,1032.76 1498.11,1059.91 1498.11,1090.36"/>
<path class="Note" d="M5752.76,1131.7 C5752.76,1145.93 5763.02,1161.82 5789.83,1161.82 C5824.26,1161.82 5860.34,1133.68 5860.34,1104.55 C5860.34,1085.02 5843.79,1074.1 5823.26,1074.1 C5791.16,1074.1 5752.76,1101.24 5752.76,1131.7"/>
<path class="Note" d="M5523.35,1214.37 C5523.35,1228.61 5533.61,1244.49 5560.42,1244.49 C5594.85,1244.49 5630.93,1216.36 5630.93,1187.23 C5630.93,1167.7 5614.38,1156.78 5593.86,1156.78 C5561.75,1156.78 5523.35,1183.92 5523.35,1214.37"/>
<path class="Note" d="M6610.1,1875.79 C6610.1,1890.02 6620.36,1905.91 6647.17,1905.91 C6681.6,1905.91 6717.68,1877.78 6717.68,1848.65 C6717.68,1829.12 6701.13,1818.2 6680.6,1818.2 C6648.5,1818.2 6610.1,1845.34 6610.1,1875.79"/>
<path class="Note" d="M5293.94,1049.02 C5293.94,1063.25 5304.2,1079.14 5331.01,1079.14 C5365.44,1079.14 5401.52,1051 5401.52,1021.88 C5401.52,1002.35 5384.97,991.425 5364.45,991.425 C5332.34,991.425 5293.94,1018.57 5293.94,1049.02"/>
<path class="Note" d="M3566.32,1214.37 C3566.32,1228.61 3576.59,1244.49 3603.4,1244.49 C3637.82,1244.49 3673.9,1216.36 3673.9,1187.23 C3673.9,1167.7 3657.35,1156.78 3636.83,1156.78 C3604.72,1156.78 3566.32,1183.92 3566.32,1214.37"/>
<path class="Note" d="M6963.24,1958.47 C6963.24,1972.7 6973.5,1988.59 7000.31,1988.59 C7034.74,1988.59 7070.82,1960.45 7070.82,1931.33 C7070.82,1911.8 7054.27,1900.87 7033.74,1900.87 C7001.64,1900.87 6963.24,1928.02 6963.24,1958.47"/>
<path class="Note" d="M4831.6,1255.71 C4831.6,1269.94 4841.86,1285.83 4868.67,1285.83 C4903.1,1285.83 4939.17,1257.7 4939.17,1228.57 C4939.17,1209.04 4922.62,1198.12 4902.1,1198.12 C4870,1198.12 4831.6,1225.26 4831.6,1255.71"/>
<path class="Note" d="M4602.19,1173.03 C4602.19,1187.27 4612.45,1203.16 4639.26,1203.16 C4673.69,1203.16 4709.77,1175.02 4709.77,1145.89 C4709.77,1126.36 4693.22,1115.44 4672.69,1115.44 C4640.59,1115.44 4602.19,1142.58 4602.19,1173.03"/>
<path class="Note" d="M7198.67,2041.14 C7198.67,2055.38 7208.93,2071.27 7235.74,2071.27 C7270.16,2071.27 7306.24,2043.13 7306.24,2014 C7306.24,1994.47 7289.69,1983.55 7269.17,1983.55 C7237.06,1983.55 7198.67,2010.69 7198.67,2041.14"/>
<path class="Note" d="M4372.78,1090.36 C4372.78,1104.59 4383.04,1120.48 4409.85,1120.48 C4444.28,1120.48 4480.36,1092.34 4480.36,1063.22 C4480.36,1043.69 4463.81,1032.76 4443.28,1032.76 C4411.18,1032.76 4372.78,1059.91 4372.78,1090.36"/>
<path class="Note" d="M8611.74,1958.47 C8611.74,1972.7 8622,1988.59 8648.81,1988.59 C8683.24,1988.59 8719.32,1960.45 8719.32,1931.33 C8719.32,1911.8 8702.77,1900.87 8682.25,1900.87 C8650.14,1900.87 8611.74,1928.02 8611.74,1958.47"/>
<path class="Note" d="M7434.09,2123.82 C7434.09,2138.05 7444.36,2153.94 7471.17,2153.94 C7505.59,2153.94 7541.67,2125.81 7541.67,2096.68 C7541.67,2077.15 7525.12,2066.23 7504.6,2066.23 C7472.49,2066.23 7434.09,2093.37 7434.09,2123.82"/>
<path class="Note" d="M2744.83,2041.14 C2744.83,2055.38 2755.09,2071.27 2781.9,2071.27 C2816.32,2071.27 2852.4,2043.13 2852.4,2014 C2852.4,1994.47 2835.85,1983.55 2815.33,1983.55 C2783.22,1983.55 2744.83,2010.69 2744.83,2041.14"/>
<path class="Clef" d="M909.689,1144.64 C903.069,1145.97 896.78,1146.63 890.491,1146.63 C843.158,1146.63 802.776,1113.53 802.776,1063.55 C802.776,1023.16 831.242,987.085 860.37,961.929 C865.997,956.964 871.293,952.33 876.258,947.365 C879.237,965.239 881.554,980.796 883.871,994.367 C853.75,1003.3 833.228,1035.08 833.228,1066.19 C833.228,1089.36 851.433,1121.14 877.913,1121.14 C880.561,1121.14 883.54,1119.82 883.54,1116.84 C883.54,1113.86 880.23,1112.2 876.258,1109.56 C863.349,1101.61 856.067,1093.01 856.067,1076.79 C856.067,1056.6 870.962,1040.38 890.491,1035.74 L909.689,1144.64 M880.561,804.373 C883.54,791.133 898.766,756.378 915.978,756.378 C920.943,756.378 928.887,772.597 928.887,795.436 C928.887,829.86 903.4,855.678 880.561,878.186 C878.575,864.946 876.92,852.037 876.92,838.135 C876.92,825.888 877.913,814.634 880.561,804.373 M956.691,1083.41 C956.691,1106.91 947.092,1131.07 923.591,1140.67 C916.64,1100.95 907.703,1048.32 905.386,1033.76 C935.176,1033.76 956.691,1053.95 956.691,1083.41 M811.051,1246.26 C811.051,1268.1 827.932,1296.9 872.617,1296.9 C888.174,1296.9 901.745,1292.93 913.661,1285.65 C931.535,1273.07 936.169,1251.22 936.169,1230.37 C936.169,1217.46 934.183,1202.57 930.873,1183.7 C929.88,1177.08 927.894,1167.15 925.908,1154.24 C958.346,1143.65 982.509,1109.89 982.509,1075.79 C982.509,1025.81 947.092,992.05 898.766,992.05 C895.456,972.19 892.146,952.661 889.167,934.125 C924.253,897.384 948.416,856.009 948.416,803.38 C948.416,773.259 939.148,748.765 933.852,736.849 C925.908,719.968 916.309,708.383 910.351,708.383 C908.034,708.383 897.773,712.355 886.85,725.264 C865.666,750.42 859.708,792.788 859.708,820.592 C859.708,838.466 861.363,854.685 866.99,891.757 C866.659,892.088 849.447,909.631 842.496,915.258 C812.375,943.393 770.669,983.444 770.669,1049.64 C770.669,1111.54 824.622,1160.2 886.188,1160.2 C895.787,1160.2 904.724,1159.21 912.337,1157.88 C918.626,1189.66 922.267,1212.83 922.267,1230.37 C922.267,1264.79 904.724,1283 871.293,1283 C863.349,1283 856.398,1281.34 855.736,1281.34 C855.405,1281.01 854.743,1280.68 854.743,1280.35 C854.743,1279.69 855.405,1279.36 856.398,1279.03 C871.955,1276.71 887.512,1263.47 887.512,1242.29 C887.512,1224.41 873.941,1205.55 849.116,1205.55 C825.946,1205.55 811.051,1224.41 811.051,1246.26"/>
<path class="Clef" d="M909.689,2012.75 C903.069,2014.08 896.78,2014.74 890.491,2014.74 C843.158,2014.74 802.776,1981.64 802.776,1931.66 C802.776,1891.27 831.242,1855.2 860.37,1830.04 C865.997,1825.07 871.293,1820.44 876.258,1815.48 C879.237,1833.35 881.554,1848.91 883.871,1862.48 C853.75,1871.41 833.228,1903.19 833.228,1934.3 C833.228,1957.47 851.433,1989.25 877.913,1989.25 C880.561,1989.25 883.54,1987.93 883.54,1984.95 C883.54,1981.97 880.23,1980.31 876.258,1977.67 C863.349,1969.72 856.067,1961.12 856.067,1944.9 C856.067,1924.71 870.962,1908.49 890.491,1903.85 L909.689,2012.75 M880.561,1672.48 C883.54,1659.24 898.766,1624.49 915.978,1624.49 C920.943,1624.49 928.887,1640.71 928.887,1663.55 C928.887,1697.97 903.4,1723.79 880.561,1746.3 C878.575,1733.06 876.92,1720.15 876.92,1706.25 C876.92,1694 877.913,1682.74 880.561,1672.48 M956.691,1951.52 C956.691,1975.02 947.092,1999.18 923.591,2008.78 C916.64,1969.06 907.703,1916.43 905.386,1901.87 C935.176,1901.87 956.691,1922.06 956.691,1951.52 M811.051,2114.37 C811.051,2136.21 827.932,2165.01 872.617,2165.01 C888.174,2165.01 901.745,2161.04 913.661,2153.76 C931.535,2141.18 936.169,2119.33 936.169,2098.48 C936.169,2085.57 934.183,2070.68 930.873,2051.81 C929.88,2045.19 927.894,2035.26 925.908,2022.35 C958.346,2011.76 982.509,1978 982.509,1943.9 C982.509,1893.92 947.092,1860.16 898.766,1860.16 C895.456,1840.3 892.146,1820.77 889.167,1802.24 C924.253,1765.49 948.416,1724.12 948.416,1671.49 C948.416,1641.37 939.148,1616.88 933.852,1604.96 C925.908,1588.08 916.309,1576.49 910.351,1576.49 C908.034,1576.49 897.773,1580.47 886.85,1593.37 C865.666,1618.53 859.708,1660.9 859.708,1688.7 C859.708,1706.58 861.363,1722.8 866.99,1759.87 C866.659,1760.2 849.447,1777.74 842.496,1783.37 C812.375,1811.5 770.669,1851.55 770.669,1917.75 C770.669,1979.65 824.622,2028.31 886.188,2028.31 C895.787,2028.31 904.724,2027.32 912.337,2025.99 C918.626,2057.77 922.267,2080.94 922.267,2098.48 C922.267,2132.9 904.724,2151.11 871.293,2151.11 C863.349,2151.11 856.398,2149.45 855.736,2149.45 C855.405,2149.12 854.743,2148.79 854.743,2148.46 C854.743,2147.8 855.405,2147.47 856.398,2147.14 C871.955,2144.82 887.512,2131.58 887.512,2110.4 C887.512,2092.52 873.941,2073.66 849.116,2073.66 C825.946,2073.66 811.051,2092.52 811.051,2114.37"/>
<path class="KeySig" d="M1070.17,1672.04 L1099.63,1666.08 L1099.63,1720.7 L1070.17,1726.99 L1070.17,1672.04 M1121.48,1661.78 C1123.47,1661.45 1125.12,1659.13 1125.12,1657.14 L1125.12,1637.62 C1125.12,1634.97 1123.13,1632.98 1120.49,1632.98 L1119.82,1632.98 L1108.9,1635.3 L1108.9,1585.98 L1099.63,1585.98 L1099.63,1637.28 L1070.17,1643.24 L1070.17,1596.57 L1060.91,1596.57 L1060.91,1645.23 L1048,1647.88 C1046.01,1648.21 1044.36,1650.52 1044.36,1652.51 L1044.36,1671.71 C1044.36,1674.36 1046.34,1676.34 1048.99,1676.34 L1049.98,1676.34 L1060.91,1674.03 L1060.91,1728.64 L1048,1731.29 C1046.01,1731.62 1044.36,1733.94 1044.36,1735.92 L1044.36,1755.12 C1044.36,1757.77 1046.34,1759.75 1048.99,1759.75 L1049.98,1759.75 L1060.91,1757.44 L1060.91,1806.76 L1070.17,1806.76 L1070.17,1755.45 L1099.63,1749.49 L1099.63,1796.16 L1108.9,1796.16 L1108.9,1747.51 L1121.48,1745.19 C1123.47,1744.86 1125.12,1742.54 1125.12,1740.56 L1125.12,1721.03 C1125.12,1718.38 1123.13,1716.39 1120.49,1716.39 L1119.82,1716.39 L1108.9,1718.71 L1108.9,1664.1 L1121.48,1661.78 "/>
<path class="KeySig" d="M1070.17,803.93 L1099.63,797.972 L1099.63,852.587 L1070.17,858.876 L1070.17,803.93 M1121.48,793.669 C1123.47,793.338 1125.12,791.021 1125.12,789.035 L1125.12,769.506 C1125.12,766.858 1123.13,764.872 1120.49,764.872 L1119.82,764.872 L1108.9,767.189 L1108.9,717.87 L1099.63,717.87 L1099.63,769.175 L1070.17,775.133 L1070.17,728.462 L1060.91,728.462 L1060.91,777.119 L1048,779.767 C1046.01,780.098 1044.36,782.415 1044.36,784.401 L1044.36,803.599 C1044.36,806.247 1046.34,808.233 1048.99,808.233 L1049.98,808.233 L1060.91,805.916 L1060.91,860.531 L1048,863.179 C1046.01,863.51 1044.36,865.827 1044.36,867.813 L1044.36,887.011 C1044.36,889.659 1046.34,891.645 1048.99,891.645 L1049.98,891.645 L1060.91,889.328 L1060.91,938.647 L1070.17,938.647 L1070.17,887.342 L1099.63,881.384 L1099.63,928.055 L1108.9,928.055 L1108.9,879.398 L1121.48,877.081 C1123.47,876.75 1125.12,874.433 1125.12,872.447 L1125.12,852.918 C1125.12,850.27 1123.13,848.284 1120.49,848.284 L1119.82,848.284 L1108.9,850.601 L1108.9,795.986 L1121.48,793.669 "/>
<path class="TimeSig" d="M1273.27,979.772 C1262.35,979.772 1253.41,964.877 1253.41,946.341 C1253.41,927.805 1262.35,912.579 1273.27,912.579 C1284.19,912.579 1293.46,927.805 1293.46,946.341 C1293.46,964.877 1284.19,979.772 1273.27,979.772 M1285.52,897.022 C1265.33,897.022 1258.04,902.98 1253.41,907.945 C1252.42,900.994 1251.76,895.698 1251.76,890.402 C1251.76,871.535 1258.38,847.041 1281.55,847.041 C1289.82,847.041 1294.79,849.689 1298.1,853.33 C1291.14,856.309 1285.52,865.246 1285.52,872.859 C1285.52,884.775 1294.79,894.043 1306.7,894.043 C1318.62,894.043 1328.22,884.775 1328.22,872.859 L1328.22,871.866 C1328.22,868.887 1327.55,863.922 1326.23,861.274 C1321.93,849.358 1308.03,831.815 1274.93,831.815 C1245.14,831.815 1223.62,860.281 1217,875.507 C1213.69,883.451 1208.73,899.67 1208.73,918.206 C1208.73,938.397 1214.35,961.236 1233.88,978.448 C1253.08,993.012 1265.33,993.674 1276.91,993.674 C1288.5,993.674 1331.86,980.103 1331.86,941.707 C1331.86,909.269 1306.37,897.022 1285.52,897.022"/>
<path class="TimeSig" d="M1291.48,1060.58 C1268.98,1053.3 1244.15,1042.37 1244.15,1027.48 C1244.15,1014.57 1256.07,1009.27 1270.3,1009.27 C1290.82,1009.27 1304.72,1018.87 1304.72,1034.1 C1304.72,1049.99 1297.44,1057.6 1291.48,1060.58 M1270.3,1139.03 C1249.12,1139.03 1230.91,1127.44 1230.91,1108.9 C1230.91,1086.73 1248.12,1081.43 1248.12,1081.43 C1270.63,1089.04 1302.74,1100.3 1302.74,1118.5 C1302.74,1127.44 1291.15,1139.03 1270.3,1139.03 M1310.02,1069.52 C1320.94,1061.24 1328.56,1050.65 1328.56,1037.41 C1328.56,1013.58 1302.41,994.047 1270.3,994.047 C1238.19,994.047 1212.04,1013.58 1212.04,1037.41 C1212.04,1050.65 1215.35,1062.56 1230.91,1072.49 C1216.02,1081.1 1207.74,1093.35 1207.74,1109.24 C1207.74,1136.05 1235.88,1157.56 1270.3,1157.56 C1304.72,1157.56 1332.86,1136.05 1332.86,1109.24 C1332.86,1093.35 1327.23,1078.45 1310.02,1069.52"/>
<path class="Beam" fill-rule="evenodd" d="M2844.04,1551.85 L3325.54,1551.85 L3325.54,1593.19 L2844.04,1593.19 L2844.04,1551.85 "/>
<path class="Beam" fill-rule="evenodd" d="M8004.67,1655.12 L8483.8,1696.46 L8483.8,1737.95 L8004.67,1696.61 L8004.67,1655.12 "/>
<path class="Beam" fill-rule="evenodd" d="M2019.53,1551.68 L2498.65,1613.68 L2498.65,1655.37 L2019.53,1593.36 L2019.53,1551.68 "/>
<path class="Beam" fill-rule="evenodd" d="M5393.16,787.004 L5860.24,828.343 L5860.24,869.843 L5393.16,828.504 L5393.16,787.004 "/>
<path class="NoteDot" d="M3602.32,1737.87 C3602.32,1747.14 3609.6,1754.42 3618.87,1754.42 C3628.13,1754.42 3635.42,1747.14 3635.42,1737.87 C3635.42,1728.6 3628.13,1721.32 3618.87,1721.32 C3609.6,1721.32 3602.32,1728.6 3602.32,1737.87"/>
<path class="NoteDot" d="M6131,1035.12 C6131,1044.38 6138.29,1051.67 6147.55,1051.67 C6156.82,1051.67 6164.1,1044.38 6164.1,1035.12 C6164.1,1025.85 6156.82,1018.57 6147.55,1018.57 C6138.29,1018.57 6131,1025.85 6131,1035.12"/>
<path class="NoteDot" d="M8760.57,1903.23 C8760.57,1912.49 8767.86,1919.78 8777.12,1919.78 C8786.39,1919.78 8793.67,1912.49 8793.67,1903.23 C8793.67,1893.96 8786.39,1886.68 8777.12,1886.68 C8767.86,1886.68 8760.57,1893.96 8760.57,1903.23"/>
</svg>
