<?xml version="1.0" encoding="utf-8"?>
<svg xmlns="http://www.w3.org/2000/svg" xmlns:svg="http://www.w3.org/2000/svg" version="1.1" viewBox="0 0 681 187">
	<title>A score 3 staves long in 4/4 time, in the key of C Minor.</title>
	<path d="M114.642 82.415c0 .742.582 1.325 1.324 1.325s1.325-.583 1.325-1.325-.582-1.325-1.325-1.325c-.742 0-1.324.583-1.324 1.325m282.66-6.618c0 .741.583 1.325 1.324 1.325s1.325-.584 1.325-1.325c0-.742-.583-1.325-1.325-1.325-.741 0-1.325.583-1.325 1.325m192.04 0c0 .741.582 1.325 1.324 1.325s1.325-.584 1.325-1.325c0-.742-.582-1.325-1.325-1.325-.742 0-1.324.583-1.324 1.325m-406.535 69.497c0 .74.583 1.324 1.325 1.324s1.325-.583 1.325-1.325-.583-1.324-1.325-1.324-1.325.582-1.325 1.324M505.634 19.539c0 .742.583 1.325 1.325 1.325s1.325-.583 1.325-1.325-.583-1.325-1.325-1.325-1.325.583-1.325 1.325m-241.35 6.619c0 .741.583 1.325 1.326 1.325.742 0 1.325-.584 1.325-1.325 0-.742-.583-1.325-1.325-1.325-.743 0-1.325.583-1.325 1.325m106.474 125.755c0 .742.583 1.325 1.325 1.325s1.325-.583 1.325-1.325-.583-1.325-1.325-1.325-1.325.583-1.325 1.325M195.15 82.407l16.186 1.654v3.327l-16.186-1.654zm-62.366-43.014 46.456-1.655v3.311l-46.456 1.655zm180.29 0 46.456-1.656v3.311l-46.456 1.655zm302.408 0 46.455-1.656v3.311l-46.455 1.655zm30.27 67.833 16.185 1.654v3.327l-16.185-1.654zm-91.329-67.834 46.456-1.655v3.311l-46.456 1.655zm-482.698 0 46.456-1.656v3.311l-46.456 1.655zM466.67 151.906l20.713 1.655v3.32l-20.713-1.655zM374.133 39.394h46.455v3.31h-46.455zM54.84 18.104c-.663.424-1.14 1.192-1.14 2.04 0 .106 0 .212.026.318.133 1.087 1.007 1.935 2.094 2.067h.291a2.375 2.375 0 0 0 2.385-2.385v-.159c0-.106-.027-.291-.053-.397-.239-1.14-1.272-3.577-5.777-3.577-5.776 0-6.439 4.796-6.439 6.518 0 3.154.398 7.101 7.023 7.101 2.623 0 4.663-1.536 4.77-4.371 0-.133-.08-.213-.213-.213h-.344a.23.23 0 0 0-.212.213c-.107 2.199-1.67 3.524-4.001 3.524-2.306 0-3.419-1.245-3.419-3.577v-5.062c0-1.483.583-3.18 2.942-3.18 1.245 0 1.802.451 2.093.902.027.053.027.08.027.132 0 .027 0 .08-.053.106M37.732 11.86c0 2.094-1.086 3.207-2.623 4.425l.079-5.167c.053-.238.45-1.007 1.51-1.007.954 0 1.034.901 1.034 1.458zm-.318-3.047a2.98 2.98 0 0 0-2.226.98l.106-8.506a.36.36 0 0 0-.37-.37h-.319a.363.363 0 0 0-.371.37l.133 15.926c0 .212.159.37.37.37a.6.6 0 0 0 .212-.052c2.28-1.14 4.664-3.312 4.664-6.042 0-1.378-.636-2.676-2.2-2.676m-7.041 12.975c0 2.094-1.086 3.207-2.623 4.426l.079-5.168c.053-.238.45-1.007 1.51-1.007.955 0 1.034.901 1.034 1.458zm-.318-3.047a2.98 2.98 0 0 0-2.226.98l.106-8.505a.363.363 0 0 0-.371-.371h-.318a.36.36 0 0 0-.37.37l.131 15.926c0 .212.16.37.372.37a.6.6 0 0 0 .211-.052c2.28-1.14 4.664-3.312 4.664-6.042 0-1.378-.635-2.676-2.199-2.676m7.678 62.615c0 2.094-1.086 3.207-2.623 4.426l.079-5.168c.053-.237.45-1.006 1.51-1.006.954 0 1.034.9 1.034 1.457zm-.318-3.047a2.98 2.98 0 0 0-2.226.98l.106-8.505a.36.36 0 0 0-.37-.371h-.319a.363.363 0 0 0-.371.37l.133 15.926c0 .212.159.371.37.371.054 0 .16-.026.212-.053 2.28-1.14 4.664-3.312 4.664-6.041 0-1.378-.636-2.677-2.2-2.677m-7.041 12.976c0 2.093-1.086 3.206-2.623 4.425l.079-5.167c.053-.239.45-1.007 1.51-1.007.955 0 1.034.901 1.034 1.457zm-.318-3.048a2.98 2.98 0 0 0-2.226.98l.106-8.505c0-.212-.159-.37-.371-.37h-.318a.36.36 0 0 0-.37.37l.131 15.925c0 .212.16.37.372.37a.6.6 0 0 0 .211-.052c2.28-1.14 4.664-3.312 4.664-6.042 0-1.377-.635-2.676-2.199-2.676m7.678 62.616c0 2.093-1.086 3.206-2.623 4.425l.079-5.167c.053-.238.45-1.007 1.51-1.007.954 0 1.034.9 1.034 1.457zm-.318-3.047a2.98 2.98 0 0 0-2.226.98l.106-8.506a.36.36 0 0 0-.371-.37h-.318a.363.363 0 0 0-.371.37l.133 15.925c0 .212.159.372.37.372.054 0 .16-.027.212-.053 2.28-1.14 4.664-3.313 4.664-6.042 0-1.378-.636-2.676-2.2-2.676m-7.041 12.975c0 2.094-1.086 3.206-2.623 4.426l.079-5.168c.053-.239.45-1.007 1.51-1.007.955 0 1.034.901 1.034 1.458zm-.318-3.048a2.98 2.98 0 0 0-2.226.981l.106-8.506c0-.212-.159-.37-.371-.37h-.318a.36.36 0 0 0-.37.37l.131 15.926c0 .212.16.37.372.37a.6.6 0 0 0 .211-.053c2.28-1.139 4.664-3.311 4.664-6.041 0-1.378-.635-2.677-2.199-2.677M16.094 34.924a7.7 7.7 0 0 1-1.538.16c-3.789 0-7.022-2.65-7.022-6.651 0-3.234 2.28-6.122 4.611-8.135.45-.398.875-.769 1.272-1.166.238 1.43.424 2.676.61 3.762-2.412.716-4.055 3.26-4.055 5.75 0 1.855 1.458 4.4 3.577 4.4.212 0 .451-.107.451-.345 0-.239-.265-.372-.583-.583-1.033-.636-1.616-1.325-1.616-2.623 0-1.617 1.192-2.915 2.755-3.287zm-2.332-27.24c.239-1.06 1.458-3.842 2.836-3.842.397 0 1.033 1.299 1.033 3.127 0 2.756-2.04 4.823-3.869 6.625-.159-1.06-.291-2.094-.291-3.207 0-.98.08-1.881.291-2.703m6.095 22.339c0 1.881-.768 3.815-2.65 4.584a882 882 0 0 1-1.457-8.559c2.385 0 4.107 1.616 4.107 3.975M8.196 43.06c0 1.748 1.352 4.054 4.93 4.054 1.245 0 2.331-.318 3.285-.901 1.431-1.007 1.802-2.756 1.802-4.425 0-1.034-.159-2.226-.424-3.737-.08-.53-.238-1.325-.397-2.358 2.597-.848 4.53-3.55 4.53-6.28 0-4.001-2.834-6.704-6.703-6.704-.265-1.59-.53-3.153-.769-4.637 2.81-2.942 4.744-6.254 4.744-10.467 0-2.411-.742-4.372-1.166-5.326C17.392.927 16.623 0 16.146 0c-.185 0-1.007.318-1.881 1.351-1.696 2.014-2.173 5.406-2.173 7.632 0 1.43.133 2.73.583 5.697-.026.026-1.404 1.43-1.96 1.881-2.412 2.253-5.75 5.459-5.75 10.758 0 4.956 4.318 8.851 9.247 8.851.768 0 1.484-.08 2.093-.186.504 2.545.795 4.4.795 5.804 0 2.755-1.404 4.213-4.08 4.213-.636 0-1.193-.133-1.246-.133-.026-.026-.08-.053-.08-.08 0-.052.054-.079.133-.105 1.246-.186 2.49-1.246 2.49-2.941 0-1.432-1.085-2.941-3.073-2.941-1.855 0-3.047 1.51-3.047 3.259m7.896 61.36a7.7 7.7 0 0 1-1.537.16c-3.789 0-7.022-2.65-7.022-6.65 0-3.234 2.28-6.122 4.611-8.136.45-.398.875-.769 1.272-1.166.238 1.43.424 2.677.61 3.763-2.412.715-4.055 3.259-4.055 5.75 0 1.854 1.458 4.398 3.577 4.398.212 0 .451-.105.451-.344 0-.238-.265-.371-.583-.583-1.033-.636-1.616-1.324-1.616-2.623 0-1.616 1.192-2.915 2.755-3.286zm-2.332-27.24c.239-1.06 1.458-3.842 2.836-3.842.397 0 1.033 1.298 1.033 3.127 0 2.755-2.04 4.822-3.869 6.624-.159-1.06-.291-2.093-.291-3.206 0-.98.08-1.882.291-2.703m6.095 22.338c0 1.881-.768 3.815-2.65 4.584a882 882 0 0 1-1.457-8.559c2.385 0 4.107 1.617 4.107 3.975m-11.66 13.037c0 1.748 1.352 4.054 4.93 4.054 1.245 0 2.331-.318 3.285-.9 1.431-1.008 1.802-2.757 1.802-4.426 0-1.034-.159-2.226-.424-3.736-.08-.53-.238-1.325-.397-2.359 2.597-.847 4.53-3.55 4.53-6.28 0-4.001-2.834-6.704-6.703-6.704-.265-1.59-.53-3.153-.769-4.637 2.81-2.942 4.744-6.253 4.744-10.467 0-2.411-.742-4.372-1.166-5.326-.636-1.351-1.405-2.279-1.882-2.279-.185 0-1.007.319-1.881 1.351-1.696 2.015-2.173 5.406-2.173 7.632 0 1.431.133 2.73.583 5.698-.026.026-1.404 1.43-1.96 1.88-2.412 2.253-5.75 5.459-5.75 10.759 0 4.955 4.318 8.85 9.247 8.85.768 0 1.484-.079 2.093-.185.504 2.544.795 4.399.795 5.803 0 2.755-1.404 4.213-4.08 4.213-.636 0-1.193-.133-1.246-.133-.026-.026-.08-.053-.08-.08 0-.052.054-.078.133-.105 1.246-.185 2.49-1.245 2.49-2.941 0-1.431-1.085-2.941-3.073-2.941-1.855 0-3.047 1.51-3.047 3.259m7.896 61.361a7.7 7.7 0 0 1-1.537.16c-3.789 0-7.022-2.65-7.022-6.652 0-3.233 2.28-6.12 4.611-8.135.45-.398.875-.768 1.272-1.165.238 1.43.424 2.676.61 3.762-2.412.715-4.055 3.26-4.055 5.75 0 1.855 1.458 4.399 3.577 4.399.212 0 .451-.106.451-.344 0-.24-.265-.372-.583-.583-1.033-.637-1.616-1.325-1.616-2.624 0-1.616 1.192-2.914 2.755-3.286zm-2.332-27.24c.239-1.06 1.458-3.842 2.836-3.842.397 0 1.033 1.298 1.033 3.127 0 2.755-2.04 4.822-3.869 6.624-.159-1.06-.291-2.093-.291-3.206 0-.98.08-1.882.291-2.703m6.095 22.338c0 1.882-.768 3.816-2.65 4.584a882 882 0 0 1-1.457-8.558c2.385 0 4.107 1.616 4.107 3.974m-11.66 13.037c0 1.749 1.352 4.054 4.93 4.054 1.245 0 2.331-.318 3.285-.9 1.431-1.007 1.802-2.757 1.802-4.426 0-1.033-.159-2.225-.424-3.736-.08-.53-.238-1.325-.397-2.358 2.597-.848 4.53-3.55 4.53-6.28 0-4.002-2.834-6.704-6.703-6.704-.265-1.59-.53-3.154-.769-4.637 2.81-2.942 4.744-6.254 4.744-10.467 0-2.412-.742-4.372-1.166-5.326-.636-1.352-1.405-2.28-1.882-2.28-.185 0-1.007.319-1.881 1.352-1.696 2.014-2.173 5.406-2.173 7.631 0 1.432.133 2.73.583 5.698-.026.026-1.404 1.43-1.96 1.881-2.412 2.252-5.75 5.458-5.75 10.758 0 4.955 4.318 8.85 9.247 8.85.768 0 1.484-.079 2.093-.185.504 2.544.795 4.399.795 5.803 0 2.756-1.404 4.213-4.08 4.213-.636 0-1.193-.132-1.246-.132-.026-.027-.08-.053-.08-.08 0-.053.054-.079.133-.105 1.246-.186 2.49-1.246 2.49-2.942 0-1.431-1.085-2.94-3.073-2.94-1.855 0-3.047 1.509-3.047 3.258m266.092-98.524c0 1.14.822 2.412 2.969 2.412 2.755 0 5.643-2.253 5.643-4.585 0-1.563-1.324-2.437-2.967-2.437-2.57 0-5.645 2.172-5.645 4.61m356.302 77.282a.99.99 0 0 1-1.06-.955c0-1.298 4.452-3.577 5.697-3.577.636 0 1.06.371 1.06.954 0 1.325-4.478 3.578-5.697 3.578m3.657-5.777c-2.57 0-5.645 2.146-5.645 4.61 0 1.14.823 2.412 2.969 2.412 2.755 0 5.644-2.252 5.644-4.584 0-1.564-1.325-2.438-2.968-2.438m-175.52 17.848c0 1.14.82 2.411 2.967 2.411 2.756 0 5.645-2.252 5.645-4.584 0-1.563-1.325-2.438-2.968-2.438-2.57 0-5.645 2.173-5.645 4.611m-99.882-19.857c0 1.14.82 2.412 2.967 2.412 2.756 0 5.644-2.252 5.644-4.584 0-1.564-1.325-2.438-2.968-2.438-2.57 0-5.643 2.173-5.643 4.61m-140.59-49.64c0 1.14.821 2.412 2.967 2.412 2.756 0 5.644-2.253 5.644-4.585 0-1.562-1.325-2.437-2.967-2.437-2.57 0-5.644 2.172-5.644 4.61m110.512 66.188c0 1.139.822 2.411 2.968 2.411 2.756 0 5.644-2.253 5.644-4.584 0-1.563-1.325-2.438-2.968-2.438-2.57 0-5.644 2.173-5.644 4.61m45.366-145.61c0 1.138.821 2.41 2.967 2.41 2.757 0 5.645-2.252 5.645-4.584 0-1.563-1.325-2.438-2.969-2.438-2.57 0-5.643 2.173-5.643 4.611M298.69 162.953c0 1.139.821 2.411 2.967 2.411 2.757 0 5.645-2.252 5.645-4.584 0-1.563-1.325-2.438-2.968-2.438-2.57 0-5.644 2.173-5.644 4.61m149.235-148.92c0 1.14.821 2.411 2.967 2.411 2.757 0 5.645-2.252 5.645-4.584 0-1.563-1.325-2.438-2.968-2.438-2.57 0-5.644 2.173-5.644 4.611m-376.2 9.928c0 1.14.821 2.411 2.968 2.411 2.756 0 5.644-2.252 5.644-4.584 0-1.563-1.325-2.438-2.967-2.438-2.57 0-5.645 2.173-5.645 4.611m407.054 152.23c0 1.14.822 2.412 2.968 2.412 2.755 0 5.644-2.253 5.644-4.585 0-1.563-1.325-2.438-2.968-2.438-2.57 0-5.644 2.173-5.644 4.61m-219.63-16.546c0 1.14.82 2.412 2.967 2.412 2.755 0 5.644-2.252 5.644-4.584 0-1.564-1.325-2.438-2.968-2.438-2.57 0-5.644 2.173-5.644 4.61M470.822 20.651c0 1.14.821 2.411 2.968 2.411 2.755 0 5.643-2.252 5.643-4.584 0-1.563-1.325-2.438-2.967-2.438-2.57 0-5.644 2.173-5.644 4.61M229.07 156.335c0 1.14.821 2.411 2.968 2.411 2.755 0 5.644-2.252 5.644-4.584 0-1.563-1.325-2.438-2.968-2.438-2.57 0-5.644 2.173-5.644 4.61M493.719 20.652c0 1.14.822 2.411 2.968 2.411 2.755 0 5.644-2.252 5.644-4.584 0-1.563-1.325-2.438-2.968-2.438-2.57 0-5.644 2.173-5.644 4.61m-284.7 132.374c0 1.14.822 2.412 2.968 2.412 2.756 0 5.644-2.252 5.644-4.584 0-1.564-1.325-2.438-2.967-2.438-2.571 0-5.644 2.173-5.644 4.61M358.868 20.651c0 1.14.821 2.411 2.967 2.411 2.757 0 5.645-2.252 5.645-4.584 0-1.563-1.325-2.438-2.968-2.438-2.57 0-5.644 2.173-5.644 4.61m-180.29 0c0 1.14.821 2.412 2.968 2.412 2.755 0 5.644-2.252 5.644-4.584 0-1.563-1.325-2.438-2.968-2.438-2.57 0-5.644 2.173-5.644 4.61m320.253 152.231c0 1.14.821 2.411 2.967 2.411 2.756 0 5.644-2.252 5.644-4.584 0-1.563-1.325-2.438-2.967-2.438-2.571 0-5.644 2.173-5.644 4.611m-327.94-23.165c0 1.139.822 2.411 2.968 2.411 2.756 0 5.645-2.253 5.645-4.585 0-1.562-1.325-2.437-2.968-2.437-2.57 0-5.645 2.172-5.645 4.61m70.649-62.877c0 1.14.82 2.41 2.967 2.41 2.756 0 5.645-2.251 5.645-4.583 0-1.564-1.325-2.438-2.969-2.438-2.57 0-5.643 2.173-5.643 4.61M522.745 33.89c0 1.139.821 2.41 2.967 2.41 2.757 0 5.645-2.252 5.645-4.584 0-1.563-1.325-2.438-2.969-2.438-2.57 0-5.643 2.173-5.643 4.612M86.99 20.65c0 1.14.821 2.411 2.967 2.411 2.757 0 5.645-2.252 5.645-4.584 0-1.563-1.325-2.438-2.968-2.438-2.57 0-5.644 2.173-5.644 4.61m31.308 140.16a.99.99 0 0 1-1.06-.955c0-1.298 4.452-3.577 5.697-3.577.637 0 1.06.371 1.06.954 0 1.325-4.478 3.578-5.697 3.578m3.657-5.777c-2.57 0-5.644 2.146-5.644 4.61 0 1.14.821 2.412 2.967 2.412 2.757 0 5.645-2.252 5.645-4.584 0-1.564-1.325-2.438-2.968-2.438M252.37 30.579c0 1.14.821 2.411 2.968 2.411 2.756 0 5.644-2.252 5.644-4.584 0-1.563-1.325-2.438-2.968-2.438-2.57 0-5.644 2.173-5.644 4.611M86.234 159.643c0 1.14.822 2.412 2.968 2.412 2.755 0 5.644-2.252 5.644-4.584 0-1.564-1.325-2.438-2.968-2.438-2.57 0-5.644 2.173-5.644 4.61M554.424 23.96c0 1.14.82 2.411 2.967 2.411 2.755 0 5.644-2.252 5.644-4.584 0-1.563-1.325-2.438-2.968-2.438-2.57 0-5.644 2.173-5.644 4.611M56.157 153.024c0 1.14.821 2.412 2.967 2.412 2.756 0 5.644-2.252 5.644-4.584 0-1.564-1.325-2.438-2.967-2.438-2.57 0-5.644 2.173-5.644 4.61M343.603 17.341c0 1.14.822 2.412 2.968 2.412 2.756 0 5.644-2.253 5.644-4.584 0-1.564-1.325-2.438-2.967-2.438-2.571 0-5.645 2.173-5.645 4.61M202.73 106.694c0 1.14.822 2.412 2.968 2.412 2.756 0 5.644-2.253 5.644-4.585 0-1.564-1.325-2.438-2.968-2.438-2.57 0-5.644 2.173-5.644 4.61m194.241 62.879c0 1.139.822 2.41 2.968 2.41 2.756 0 5.645-2.252 5.645-4.583 0-1.563-1.325-2.438-2.969-2.438-2.57 0-5.644 2.173-5.644 4.61m172.715-148.92c0 1.14.821 2.411 2.969 2.411 2.755 0 5.643-2.252 5.643-4.584 0-1.563-1.325-2.438-2.967-2.438-2.57 0-5.645 2.173-5.645 4.61m-467.432-3.309c0 1.14.821 2.412 2.967 2.412 2.756 0 5.644-2.253 5.644-4.584 0-1.564-1.325-2.438-2.967-2.438-2.571 0-5.644 2.173-5.644 4.61m559.02 76.115c0 1.14.822 2.412 2.968 2.412 2.756 0 5.644-2.252 5.644-4.584 0-1.564-1.325-2.438-2.968-2.438-2.57 0-5.644 2.173-5.644 4.61m-76.323-79.424c0 1.14.821 2.411 2.968 2.411 2.756 0 5.644-2.252 5.644-4.584 0-1.563-1.325-2.438-2.968-2.438-2.57 0-5.644 2.173-5.644 4.611m-56.045 142.302c0 1.14.822 2.411 2.969 2.411 2.755 0 5.644-2.252 5.644-4.584 0-1.563-1.325-2.438-2.968-2.438-2.57 0-5.645 2.173-5.645 4.61m116.845-66.186c0 1.14.821 2.411 2.968 2.411 2.756 0 5.644-2.252 5.644-4.584 0-1.563-1.325-2.437-2.968-2.437-2.57 0-5.644 2.172-5.644 4.61m-45.535-69.496c0 1.14.821 2.411 2.967 2.411 2.756 0 5.644-2.252 5.644-4.584 0-1.563-1.325-2.438-2.967-2.438-2.57 0-5.644 2.173-5.644 4.61m22.25 66.188c0 1.14.822 2.41 2.968 2.41 2.755 0 5.644-2.251 5.644-4.583 0-1.564-1.325-2.438-2.968-2.438-2.57 0-5.644 2.173-5.644 4.61m-6.985-62.877c0 1.14.821 2.411 2.967 2.411 2.756 0 5.644-2.252 5.644-4.584 0-1.563-1.325-2.438-2.968-2.438-2.57 0-5.643 2.173-5.643 4.611m-8.538 59.568c0 1.14.821 2.412 2.967 2.412 2.756 0 5.644-2.253 5.644-4.585 0-1.563-1.325-2.437-2.967-2.437-2.57 0-5.644 2.172-5.644 4.61M328.339 20.651c0 1.14.821 2.411 2.968 2.411 2.755 0 5.643-2.252 5.643-4.584 0-1.563-1.325-2.438-2.967-2.438-2.57 0-5.644 2.173-5.644 4.61m-165.026-3.309c0 1.14.822 2.412 2.968 2.412 2.756 0 5.645-2.253 5.645-4.584 0-1.564-1.325-2.438-2.969-2.438-2.57 0-5.644 2.173-5.644 4.61m23.895 86.044c0 1.139.821 2.411 2.968 2.411 2.755 0 5.643-2.253 5.643-4.585 0-1.562-1.324-2.437-2.967-2.437-2.57 0-5.644 2.172-5.644 4.61M577.425 80.22c0 1.14.822 2.412 2.969 2.412 2.755 0 5.643-2.253 5.643-4.585 0-1.564-1.324-2.438-2.967-2.438-2.57 0-5.645 2.173-5.645 4.611m53.32-59.568c0 1.14.823 2.411 2.97 2.411 2.755 0 5.643-2.252 5.643-4.584 0-1.563-1.325-2.438-2.968-2.438-2.57 0-5.644 2.173-5.644 4.61m15.264-3.309c0 1.14.822 2.412 2.968 2.412 2.756 0 5.645-2.253 5.645-4.584 0-1.564-1.325-2.438-2.968-2.438-2.57 0-5.645 2.173-5.645 4.61m-528.49 3.31c0 1.14.82 2.411 2.967 2.411 2.756 0 5.644-2.252 5.644-4.584 0-1.563-1.325-2.438-2.968-2.438-2.57 0-5.643 2.173-5.643 4.61m417.5 80.591a.99.99 0 0 1-1.06-.953c0-1.299 4.452-3.578 5.698-3.578.635 0 1.06.37 1.06.954 0 1.325-4.479 3.577-5.698 3.577m3.657-5.777c-2.57 0-5.644 2.147-5.644 4.611 0 1.14.822 2.412 2.968 2.412 2.756 0 5.644-2.253 5.644-4.584 0-1.564-1.325-2.439-2.968-2.439m122.598-74.813c0 1.14.822 2.411 2.968 2.411 2.756 0 5.644-2.252 5.644-4.584 0-1.563-1.325-2.438-2.968-2.438-2.57 0-5.644 2.173-5.644 4.61m-151.527 79.425c0 1.14.822 2.412 2.968 2.412 2.756 0 5.644-2.253 5.644-4.584 0-1.564-1.325-2.439-2.968-2.439-2.57 0-5.644 2.174-5.644 4.611M229.473 30.58c0 1.14.821 2.411 2.968 2.411 2.756 0 5.644-2.252 5.644-4.584 0-1.563-1.325-2.438-2.967-2.438-2.571 0-5.645 2.173-5.645 4.611m256.99 62.877c0 1.14.821 2.412 2.968 2.412 2.756 0 5.644-2.252 5.644-4.584 0-1.564-1.325-2.438-2.968-2.438-2.57 0-5.644 2.173-5.644 4.61m-81.8-76.115c0 1.14.82 2.412 2.967 2.412 2.755 0 5.644-2.253 5.644-4.584 0-1.564-1.325-2.438-2.968-2.438-2.57 0-5.644 2.173-5.644 4.61M568.45 153.024c0 1.14.822 2.412 2.968 2.412 2.756 0 5.644-2.252 5.644-4.584 0-1.564-1.325-2.438-2.968-2.438-2.57 0-5.644 2.173-5.644 4.61M132.784 23.96c0 1.14.822 2.411 2.968 2.411 2.755 0 5.644-2.252 5.644-4.584 0-1.563-1.325-2.438-2.968-2.438-2.57 0-5.644 2.173-5.644 4.611m320.93 66.187c0 1.14.82 2.411 2.967 2.411 2.756 0 5.644-2.252 5.644-4.584 0-1.563-1.325-2.437-2.968-2.437-2.57 0-5.644 2.172-5.644 4.61m-397.556 3.31c0 1.139.821 2.41 2.967 2.41 2.756 0 5.644-2.251 5.644-4.583 0-1.564-1.325-2.438-2.967-2.438-2.57 0-5.644 2.173-5.644 4.61m374.27-6.618c0 1.14.822 2.41 2.969 2.41 2.756 0 5.644-2.251 5.644-4.583 0-1.564-1.325-2.438-2.967-2.438-2.571 0-5.645 2.173-5.645 4.61M79.442 100.076c0 1.14.82 2.412 2.967 2.412 2.756 0 5.645-2.253 5.645-4.584 0-1.564-1.325-2.439-2.968-2.439-2.57 0-5.644 2.174-5.644 4.611m335.462-13.237c0 1.14.822 2.41 2.968 2.41 2.756 0 5.645-2.251 5.645-4.583 0-1.564-1.325-2.438-2.968-2.438-2.57 0-5.645 2.173-5.645 4.61m-312.177-3.309c0 1.14.821 2.412 2.968 2.412 2.755 0 5.644-2.253 5.644-4.585 0-1.563-1.325-2.437-2.968-2.437-2.57 0-5.644 2.172-5.644 4.61m61.195 16.547c0 1.14.822 2.412 2.968 2.412 2.756 0 5.645-2.253 5.645-4.584 0-1.564-1.325-2.439-2.968-2.439-2.57 0-5.645 2.174-5.645 4.611M313.074 23.96c0 1.14.821 2.411 2.968 2.411 2.756 0 5.644-2.252 5.644-4.584 0-1.563-1.325-2.438-2.968-2.438-2.57 0-5.644 2.173-5.644 4.611m72.313 56.26c0 1.139.821 2.41 2.967 2.41 2.757 0 5.645-2.252 5.645-4.584 0-1.564-1.325-2.438-2.968-2.438-2.57 0-5.644 2.173-5.644 4.611m213.14 79.424c0 1.14.821 2.412 2.967 2.412 2.756 0 5.644-2.252 5.644-4.584 0-1.564-1.325-2.438-2.967-2.438-2.57 0-5.644 2.173-5.644 4.61M281.396 33.89c0 1.139.822 2.41 2.968 2.41 2.756 0 5.644-2.252 5.644-4.584 0-1.563-1.325-2.438-2.968-2.438-2.57 0-5.644 2.173-5.644 4.612M428.65 169.572c0 1.139.821 2.41 2.967 2.41 2.756 0 5.644-2.252 5.644-4.583 0-1.563-1.325-2.438-2.967-2.438-2.571 0-5.644 2.173-5.644 4.61M148.048 20.652c0 1.14.822 2.411 2.968 2.411 2.756 0 5.645-2.252 5.645-4.584 0-1.563-1.325-2.438-2.968-2.438-2.57 0-5.645 2.173-5.645 4.61m174.8 70.663a.99.99 0 0 1-1.06-.954c0-1.298 4.451-3.578 5.696-3.578.636 0 1.06.372 1.06.955 0 1.325-4.478 3.577-5.697 3.577m3.657-5.776c-2.57 0-5.645 2.146-5.645 4.61 0 1.14.822 2.411 2.969 2.411 2.755 0 5.644-2.252 5.644-4.584 0-1.563-1.325-2.437-2.968-2.437M206.576 23.96c0 1.14.822 2.411 2.968 2.411 2.756 0 5.644-2.252 5.644-4.584 0-1.563-1.325-2.438-2.968-2.438-2.57 0-5.644 2.173-5.644 4.611m90.999 66.187c0 1.14.821 2.411 2.967 2.411 2.757 0 5.644-2.252 5.644-4.584 0-1.563-1.325-2.437-2.967-2.437-2.57 0-5.644 2.172-5.644 4.61m-165.33 9.928c0 1.14.821 2.412 2.967 2.412 2.756 0 5.644-2.253 5.644-4.584 0-1.564-1.325-2.439-2.967-2.439-2.57 0-5.644 2.174-5.644 4.611M419.926 23.96c0 1.14.822 2.411 2.969 2.411 2.755 0 5.644-2.252 5.644-4.584 0-1.563-1.325-2.438-2.968-2.438-2.57 0-5.645 2.173-5.645 4.611m-30.529-3.31c0 1.14.822 2.412 2.968 2.412 2.756 0 5.644-2.252 5.644-4.584 0-1.563-1.325-2.438-2.968-2.438-2.57 0-5.644 2.173-5.644 4.61m25.507 88.214c0 .186.16.344.346.344.132 0 .29-.106.317-.211 0-.028.239-.955.265-1.034.027-.106.265-1.113 1.219-2.676 1.033-1.723 2.623-2.968 3.948-4.823 1.299-1.855 2.093-3.604 2.093-5.936 0-2.41-.556-4.425-1.96-6.995-.08-.186-.239-.292-.398-.292-.053 0-.106 0-.132.027-.133.053-.186.159-.186.318 0 .08.027.212.08.318 1.06 2.464 1.484 3.869 1.484 5.777 0 2.199-.769 3.338-1.246 4.16-1.722 2.941-4.505 4.372-5.617 4.742-.186.08-.212.213-.212.292zm192.039-3.31a.35.35 0 0 0 .344.345c.132 0 .291-.106.318-.212 0-.026.238-.954.265-1.033.026-.107.265-1.113 1.22-2.677 1.033-1.722 2.622-2.968 3.947-4.823 1.298-1.855 2.093-3.603 2.093-5.935 0-2.411-.556-4.425-1.96-6.995-.08-.186-.24-.292-.398-.292-.053 0-.106 0-.132.027-.133.053-.186.158-.186.318 0 .079.026.212.08.317 1.06 2.464 1.483 3.87 1.483 5.777 0 2.2-.768 3.338-1.245 4.16-1.722 2.942-4.504 4.372-5.618 4.743-.185.08-.211.212-.211.292zm-76.257-89.93c0 .08.026.213.212.292 1.14.371 3.418 1.802 5.14 4.744.477.821 1.246 1.96 1.246 4.16 0 1.908-.504 3.868-1.192 5.777-.054.158-.107.291-.08.397 0 .16.106.265.265.265.186 0 .318-.106.424-.292 1.192-2.12 1.643-4.584 1.643-6.995-.132-3.418-2.094-5.936-2.094-5.936.08 0-2.437-3.259-3.153-4.372-.98-1.51-1.43-3.02-1.483-3.127a65 65 0 0 1-.265-1.033c-.027-.106-.16-.212-.318-.212a.35.35 0 0 0-.345.344zM209.02 175.05a.35.35 0 0 0 .344.344c.132 0 .291-.106.318-.211 0-.027.238-.955.265-1.034.026-.106.265-1.113 1.219-2.676 1.033-1.723 2.623-2.969 3.948-4.823 1.299-1.855 2.094-3.604 2.094-5.936 0-2.411-.557-4.425-1.962-6.995-.079-.186-.238-.291-.397-.291-.053 0-.106 0-.133.026-.132.053-.185.159-.185.318 0 .08.027.212.08.318 1.06 2.464 1.483 3.869 1.483 5.776 0 2.2-.768 3.339-1.245 4.16-1.723 2.942-4.504 4.373-5.618 4.743-.185.08-.211.212-.211.293zm80.319-159.426c0 .08.026.212.212.291 1.139.371 3.417 1.802 5.14 4.744.477.821 1.246 1.96 1.246 4.16 0 1.908-.504 3.868-1.193 5.777-.053.158-.106.291-.08.397 0 .16.106.265.266.265.185 0 .317-.106.423-.292 1.193-2.12 1.644-4.584 1.644-6.995-.133-3.418-2.094-5.936-2.094-5.936.08 0-2.437-3.259-3.153-4.372-.98-1.51-1.432-3.02-1.484-3.127A65 65 0 0 1 290 9.504c-.027-.106-.159-.212-.318-.212a.35.35 0 0 0-.344.344zm115.575 135.683c0 .08.027.212.213.291 1.139.372 3.418 1.802 5.14 4.744.477.821 1.246 1.961 1.246 4.16 0 1.908-.504 3.87-1.192 5.777-.053.158-.107.291-.08.397 0 .16.106.265.264.265.186 0 .319-.106.425-.291 1.193-2.12 1.642-4.584 1.642-6.996-.132-3.418-2.093-5.936-2.093-5.936.08 0-2.438-3.259-3.153-4.372-.98-1.51-1.43-3.02-1.484-3.126a64 64 0 0 1-.265-1.034c-.026-.106-.159-.212-.318-.212a.35.35 0 0 0-.345.345zM140.187 81.812c0 .08.026.212.212.291 1.14.372 3.419 1.802 5.14 4.743.478.822 1.246 1.962 1.246 4.16 0 1.908-.503 3.87-1.193 5.778-.052.158-.105.29-.079.397 0 .159.106.265.265.265.186 0 .318-.106.424-.292 1.192-2.12 1.643-4.584 1.643-6.995-.133-3.418-2.093-5.936-2.093-5.936.079 0-2.438-3.26-3.154-4.372-.98-1.51-1.43-3.021-1.483-3.127-.027-.079-.265-1.033-.265-1.033-.027-.106-.16-.212-.319-.212a.35.35 0 0 0-.344.345zm245.2-1.594v22.053h.662V80.218ZM178.577 20.65v18.756h.663V20.65Zm62.963 66.187v22.053h.662V86.837Zm-46.39-2.733v17.109h.662v-17.11ZM163.313 17.34v22.61h.662V17.34Zm8.552 58.457v22.106h.662V75.797Zm34.711-51.838v18.744h.662V23.96Zm67.714 59.568v22.054h.662V83.527Zm23.284 6.62v20.398h.662V90.146ZM140.187 75.85v22.053h.662V75.85ZM320.86 90.146v20.399h.662V90.146ZM148.049 20.65v19.843h.662V20.65Zm266.856 66.187v22.027h.662V86.837Zm-312.178-3.31v22.054h.662V83.527Zm327.701 3.31v22.053h.662V86.837ZM87.384 75.797v22.106h.662V75.797Zm366.329 14.35v20.398h.662V90.146ZM56.156 93.455V112.2h.662V93.456Zm76.628-69.497v17.078h.662V23.959Zm353.679 69.497V112.2h.662V93.456ZM237.415 6.3v22.106h.663V6.301ZM517.69 75.797v22.106h.662V75.797Zm23.286 0v22.106h.662V75.797ZM661.275 20.65v18.756h.662V20.65Zm-543.756 0v18.756h.662V20.65Zm528.492-3.31v22.61h.662V17.34Zm-68.585 62.878v22.053h.662V80.218Zm53.32-59.568v19.843h.662V20.65Zm-23.803 62.877v22.027h.662V83.527Zm15.524 3.31v22.053h.662V86.837Zm-6.986-62.878v17.078h.662V23.959Zm30.27 66.187v18.778h.663V90.146ZM600.217 20.65v18.756h.663V20.65Zm61.059 72.806v17.055h.662V93.456ZM584.952 14.03V39.95h.662V14.031zm-482.698 3.31v22.608h.662V17.34Zm467.433 3.309v19.843h.662V20.65ZM56.157 153.024v22.053h.661v-22.053zm30.077 6.619v20.398h.662v-20.398ZM554.423 23.959v17.078h.662V23.959ZM260.313 6.301v22.106h.662V6.301ZM116.31 159.643v20.398h.662v-20.398ZM86.99 20.65v19.843h.662V20.65ZM530.687 9.663v22.054h.662V9.663ZM170.892 149.714v22.054h.662v-22.054zm38.127 3.31v22.027h.662v-22.027zm20.052 3.31v22.052h.662v-22.053ZM493.719 20.65v20.399h.662v-20.4ZM259.148 159.643v20.398h.662v-20.398ZM470.821 20.65v20.399h.663v-20.4Zm-172.13 142.302v18.744h.661v-18.744Zm149.234-148.92v22.053h.662V14.03ZM336.71 145.293V167.4h.662v-22.106zm22.134 7.73v22.053h.662v-22.053zm46.07-7.678V167.4h.663v-22.054ZM419.928 23.96v17.09h.662v-17.09Zm-348.202 0v17.078h.662V23.959Zm332.937-6.619V41.05h.662V17.34zm31.93 127.954V167.4h.663v-22.106ZM389.398 20.65v20.399h.662v-20.4Zm77.273 132.943v17.116h.662v-17.116zm20.051 1.602v18.823h.662v-18.823ZM374.132 23.959v17.09h.662v-17.09Zm132.64 124.643v22.107h.663v-22.107zM358.868 20.65v18.756h.662V20.65Zm170.04 135.683v22.053h.662v-22.053ZM343.603 17.34v22.61h.662V17.34Zm-132.93 68.351v18.83h.662v-18.83ZM328.34 20.65v19.843H329V20.65Zm240.11 132.374v22.053h.662v-22.053zm30.077 6.619v20.398h.662v-20.398ZM313.074 23.959v17.078h.662V23.959ZM289.338 9.663v22.054H290V9.663Zm-63.141 69.443v22.107h.662V79.106Zm402.407 80.537v20.398h.662v-20.398ZM303.609 9.246v27.203h1.191V9.246Zm73.506 86.407c0-.768-.61-1.405-1.377-1.405-.769 0-1.379.637-1.379 1.405 0 .769.61 1.404 1.379 1.404.767 0 1.377-.635 1.377-1.404m0-6.619c0-.768-.61-1.404-1.377-1.404-.769 0-1.379.636-1.379 1.404 0 .769.61 1.404 1.379 1.404.767 0 1.377-.635 1.377-1.404m-6.395-10.292v27.203h1.191V78.742Zm-6.09 0v27.203h3.64V78.742Zm112.368 0v27.203h1.191V78.742Zm-212.173 0v27.203h1.191V78.742Zm303.136 0v27.203h1.191V78.742ZM677.36 148.24v27.202H681V148.24zm-3.64 0v27.202h1.191V148.24zm6.089-69.497v27.203H681V78.742ZM197.11 9.246v27.203h1.192V9.246Zm-35.685 138.993v27.202h1.192V148.24zm-6.968-69.497v27.203h1.192V78.742Zm134.767 69.497v27.202h1.191V148.24ZM679.809 9.246v27.203H681V9.246ZM419.186 148.239v27.202h1.191V148.24ZM544.958 9.246v27.203h1.191V9.246Zm14.027 138.993v27.202h1.19V148.24ZM438.46 9.246v27.203h1.19V9.246Zm-73.83 69.496v27.203h3.64V78.742Zm-3.64 0v27.203h1.191V78.742Zm-2.447 16.911c0-.768-.61-1.405-1.378-1.405-.769 0-1.378.637-1.378 1.405 0 .769.61 1.404 1.378 1.404.769 0 1.378-.635 1.378-1.404m0-6.619c0-.768-.61-1.404-1.378-1.404-.769 0-1.378.636-1.378 1.404 0 .769.61 1.404 1.378 1.404.769 0 1.378-.635 1.378-1.404M0 174.714v.727h681v-.728zm0-6.619v.728h681v-.728zm0-6.619v.728h681v-.728zm0-6.619v.728h681v-.728zm0-6.619v.728h681v-.728zm0-43.021v.728h681v-.728zm0-6.618v.727h681V98.6zm0-6.62v.729h681v-.728zm0-6.618v.728h681v-.728zm0-6.619v.728h681v-.728Zm0-43.021v.727h681v-.727zm0-6.619v.728h681v-.728zm0-6.619v.728h681v-.728zm0-6.618v.727h681v-.727Zm0-6.619v.728h681v-.728Z"/>
</svg>
