<?xml version="1.0" encoding="utf-8"?>
<svg xmlns="http://www.w3.org/2000/svg" xmlns:svg="http://www.w3.org/2000/svg" version="1.1" viewBox="0 0 681 117">
	<title>A score 2 staves long in 6/8 time, in the key of G Minor.</title>
	<path d="M176.305 75.797c0 .741.584 1.325 1.325 1.325.742 0 1.325-.584 1.325-1.325 0-.742-.583-1.325-1.325-1.325-.741 0-1.325.583-1.325 1.325m464.086-43.022c0 .742.582 1.325 1.325 1.325.742 0 1.324-.583 1.324-1.325 0-.741-.582-1.325-1.324-1.325s-1.325.584-1.325 1.325m5.634 62.878c0 .741.584 1.325 1.325 1.325.742 0 1.325-.584 1.325-1.325 0-.742-.583-1.325-1.325-1.325-.741 0-1.325.583-1.325 1.325m-235.157 0c0 .741.584 1.325 1.325 1.325.742 0 1.325-.584 1.325-1.325 0-.742-.583-1.325-1.325-1.325-.741 0-1.325.583-1.325 1.325m-297.8-82.734c0 .742.582 1.325 1.325 1.325.74 0 1.325-.583 1.325-1.325s-.584-1.325-1.325-1.325c-.743 0-1.325.583-1.325 1.325M68.07 102.271c0 .742.583 1.325 1.325 1.325s1.325-.583 1.325-1.325c0-.741-.583-1.325-1.325-1.325s-1.325.584-1.325 1.325M229.4 82.415c0 .742.584 1.325 1.325 1.325.742 0 1.325-.583 1.325-1.325s-.583-1.325-1.325-1.325c-.741 0-1.325.583-1.325 1.325m-4.666-62.877c0 .742.582 1.325 1.325 1.325.742 0 1.324-.583 1.324-1.325s-.582-1.325-1.324-1.325-1.325.583-1.325 1.325m365.901 6.619c0 .741.584 1.325 1.325 1.325.742 0 1.325-.584 1.325-1.325 0-.742-.583-1.325-1.325-1.325-.741 0-1.325.583-1.325 1.325m-256.952 0c0 .741.582 1.325 1.324 1.325s1.325-.584 1.325-1.325c0-.742-.582-1.325-1.325-1.325-.742 0-1.324.583-1.324 1.325m110.553 0c0 .741.583 1.325 1.325 1.325s1.325-.584 1.325-1.325c0-.742-.583-1.325-1.325-1.325s-1.325.583-1.325 1.325m-60.798 0c0 .741.583 1.325 1.325 1.325s1.325-.584 1.325-1.325c0-.742-.583-1.325-1.325-1.325s-1.325.583-1.325 1.325M187.99 102.23l-7.28-1.013v3.341l7.28 1.014zm-23.6 1.679 35.663 4.964v3.342l-35.662-4.965zm378.391 4.974 36.851 3.31v3.322l-36.85-3.31zM351.866 7.955h-7.28v3.31h7.28zM329.71 2.991h33.462v3.31H329.71zm135.018 9.928h-7.28v3.31h7.28zm-24.465-4.964h35.77v3.31h-35.77zm99.155 26.46 11.966 1.654v3.34l-11.966-1.654zm0 4.963 11.966 1.655v3.341l-11.966-1.655zm-296.5-30.33-7.28-.36v3.314l7.28.36zm-22.157-6.06 33.462 1.655v3.313L220.76 6.302zm388.06 10.459-7.282-.72v3.325l7.281.72zm-22.157-7.156 33.461 3.31v3.325l-33.461-3.31zM280.483 112.2h36.852v3.31h-36.851zm208.016 0h36.85v3.31H488.5zM241.085 99.49l-7.28-.675v3.323l7.28.676zm-23.6 2.775 35.662 3.309v3.323l-35.662-3.309zm-66.577-62.878 34.575 3.31v3.323l-34.575-3.31zm-27.598-9.92h-7.281v3.308h7.28zm-22.157 4.964h33.462v3.31h-33.462zM87.698 82.415h-7.28v3.31h7.28zM64.1 77.451h35.662v3.31H64.099zM658.575 12.92h-7.28v3.31h7.28zm-22.157-4.964h33.462v3.31h-33.462zm-234.795 0h-7.28v3.31h7.28zm-22.157-4.964h33.461v3.31h-33.461zm-44.699 105.893 36.85 3.31v3.322l-36.85-3.31zM52.933 28.195c-1.802-.583-3.789-1.458-3.789-2.65 0-1.033.953-1.458 2.093-1.458 1.643 0 2.756.769 2.756 1.988 0 1.272-.583 1.881-1.06 2.12m-1.696 6.28c-1.696 0-3.153-.928-3.153-2.412 0-1.775 1.378-2.199 1.378-2.199 1.802.61 4.372 1.51 4.372 2.968 0 .715-.927 1.643-2.597 1.643m3.18-5.564c.874-.663 1.484-1.51 1.484-2.57 0-1.909-2.094-3.472-4.664-3.472s-4.664 1.563-4.664 3.471c0 1.06.265 2.014 1.511 2.808-1.193.69-1.855 1.67-1.855 2.943 0 2.146 2.252 3.868 5.008 3.868s5.008-1.722 5.008-3.868c0-1.273-.45-2.465-1.829-3.18m-2.942-7.185c-.874 0-1.59-1.192-1.59-2.676s.716-2.703 1.59-2.703 1.617 1.219 1.617 2.703-.742 2.676-1.617 2.676m.981-6.625c-1.616 0-2.2.477-2.57.875-.08-.557-.133-.98-.133-1.405 0-1.51.53-3.47 2.385-3.47.662 0 1.06.211 1.325.503-.556.238-1.007.954-1.007 1.563 0 .954.742 1.696 1.696 1.696s1.722-.742 1.722-1.696v-.08c0-.238-.052-.635-.159-.847-.344-.954-1.457-2.359-4.107-2.359-2.385 0-4.107 2.28-4.637 3.498a9.4 9.4 0 0 0-.662 3.418c0 1.617.45 3.445 2.014 4.823 1.536 1.166 2.517 1.219 3.445 1.219s4.398-1.087 4.398-4.16c0-2.597-2.04-3.578-3.71-3.578M37.732 11.86c0 2.094-1.086 3.207-2.623 4.425l.079-5.167c.053-.238.45-1.007 1.51-1.007.954 0 1.034.901 1.034 1.458zm-.318-3.047a2.98 2.98 0 0 0-2.226.98l.106-8.506a.36.36 0 0 0-.37-.37h-.319a.363.363 0 0 0-.371.37l.133 15.926c0 .212.159.37.37.37a.6.6 0 0 0 .212-.052c2.28-1.14 4.664-3.312 4.664-6.042 0-1.378-.636-2.676-2.2-2.676m-7.041 12.975c0 2.094-1.086 3.207-2.623 4.426l.079-5.168c.053-.238.45-1.007 1.51-1.007.955 0 1.034.901 1.034 1.458zm-.318-3.047a2.98 2.98 0 0 0-2.226.98l.106-8.505a.363.363 0 0 0-.371-.371h-.318a.36.36 0 0 0-.37.37l.131 15.926c0 .212.16.37.372.37a.6.6 0 0 0 .211-.052c2.28-1.14 4.664-3.312 4.664-6.042 0-1.378-.635-2.676-2.199-2.676m7.678 62.615c0 2.094-1.086 3.207-2.623 4.426l.079-5.168c.053-.237.45-1.006 1.51-1.006.954 0 1.034.9 1.034 1.457zm-.318-3.047a2.98 2.98 0 0 0-2.226.98l.106-8.505a.36.36 0 0 0-.37-.371h-.319a.363.363 0 0 0-.371.37l.133 15.926c0 .212.159.371.37.371.054 0 .16-.026.212-.053 2.28-1.14 4.664-3.312 4.664-6.041 0-1.378-.636-2.677-2.2-2.677m-7.041 12.976c0 2.093-1.086 3.206-2.623 4.425l.079-5.167c.053-.239.45-1.007 1.51-1.007.955 0 1.034.901 1.034 1.457zm-.318-3.048a2.98 2.98 0 0 0-2.226.98l.106-8.505c0-.212-.159-.37-.371-.37h-.318a.36.36 0 0 0-.37.37l.131 15.925c0 .212.16.37.372.37a.6.6 0 0 0 .211-.052c2.28-1.14 4.664-3.312 4.664-6.042 0-1.377-.635-2.676-2.199-2.676m-13.96 16.185a7.7 7.7 0 0 1-1.538.16c-3.789 0-7.022-2.65-7.022-6.652 0-3.233 2.28-6.12 4.611-8.135.45-.398.875-.769 1.272-1.166.238 1.43.424 2.677.61 3.763-2.412.715-4.055 3.259-4.055 5.75 0 1.854 1.458 4.398 3.577 4.398.212 0 .451-.105.451-.344 0-.238-.265-.371-.583-.583-1.033-.636-1.616-1.324-1.616-2.623 0-1.616 1.192-2.915 2.755-3.286zm-2.332-27.24c.239-1.06 1.458-3.842 2.836-3.842.397 0 1.033 1.298 1.033 3.127 0 2.755-2.04 4.822-3.869 6.624-.159-1.06-.291-2.093-.291-3.206 0-.98.08-1.882.291-2.703m6.095 22.338c0 1.881-.768 3.815-2.65 4.584a882 882 0 0 1-1.457-8.559c2.385 0 4.107 1.617 4.107 3.975m-11.66 13.037c0 1.748 1.352 4.054 4.93 4.054 1.245 0 2.331-.318 3.285-.9 1.431-1.008 1.802-2.757 1.802-4.426 0-1.034-.159-2.226-.424-3.736-.08-.53-.238-1.325-.397-2.359 2.597-.847 4.53-3.55 4.53-6.28 0-4.001-2.834-6.704-6.703-6.704-.265-1.59-.53-3.153-.769-4.637 2.81-2.942 4.744-6.253 4.744-10.467 0-2.411-.742-4.372-1.166-5.326-.636-1.351-1.405-2.279-1.882-2.279-.185 0-1.007.319-1.881 1.351-1.696 2.015-2.173 5.406-2.173 7.632 0 1.431.133 2.73.583 5.698-.026.026-1.404 1.43-1.96 1.88-2.412 2.253-5.75 5.459-5.75 10.759 0 4.955 4.318 8.85 9.247 8.85.768 0 1.484-.079 2.093-.185.504 2.544.795 4.399.795 5.803 0 2.755-1.404 4.213-4.08 4.213-.636 0-1.193-.133-1.246-.133-.026-.026-.08-.053-.08-.08 0-.052.054-.078.133-.105 1.246-.185 2.49-1.245 2.49-2.941 0-1.431-1.085-2.941-3.073-2.941-1.855 0-3.047 1.51-3.047 3.259m7.896-77.632a7.7 7.7 0 0 1-1.537.16c-3.789 0-7.022-2.65-7.022-6.651 0-3.234 2.28-6.122 4.611-8.135.45-.398.875-.769 1.272-1.166.238 1.43.424 2.676.61 3.762-2.412.716-4.055 3.26-4.055 5.75 0 1.855 1.458 4.4 3.577 4.4.212 0 .451-.107.451-.345 0-.239-.265-.372-.583-.583-1.033-.636-1.616-1.325-1.616-2.623 0-1.617 1.192-2.915 2.755-3.287zm-2.332-27.24c.239-1.06 1.458-3.842 2.836-3.842.397 0 1.033 1.299 1.033 3.127 0 2.756-2.04 4.823-3.869 6.625-.159-1.06-.291-2.094-.291-3.207 0-.98.08-1.881.291-2.703m6.095 22.339c0 1.881-.768 3.815-2.65 4.584a882 882 0 0 1-1.457-8.559c2.385 0 4.107 1.616 4.107 3.975M8.196 43.06c0 1.748 1.352 4.054 4.93 4.054 1.245 0 2.331-.318 3.285-.901 1.431-1.007 1.802-2.756 1.802-4.425 0-1.034-.159-2.226-.424-3.737-.08-.53-.238-1.325-.397-2.358 2.597-.848 4.53-3.55 4.53-6.28 0-4.001-2.834-6.704-6.703-6.704-.265-1.59-.53-3.153-.769-4.637 2.81-2.942 4.744-6.254 4.744-10.467 0-2.411-.742-4.372-1.166-5.326C17.392.927 16.623 0 16.146 0c-.185 0-1.007.318-1.881 1.351-1.696 2.014-2.173 5.406-2.173 7.632 0 1.43.133 2.73.583 5.697-.026.026-1.404 1.43-1.96 1.881-2.412 2.253-5.75 5.459-5.75 10.758 0 4.956 4.318 8.851 9.247 8.851.768 0 1.484-.08 2.093-.186.504 2.545.795 4.4.795 5.804 0 2.755-1.404 4.213-4.08 4.213-.636 0-1.193-.133-1.246-.133-.026-.026-.08-.053-.08-.08 0-.052.054-.079.133-.105 1.246-.186 2.49-1.246 2.49-2.941 0-1.432-1.085-2.941-3.073-2.941-1.855 0-3.047 1.51-3.047 3.259M649.97 30.58c0 1.138.822 2.41 2.968 2.41 2.756 0 5.644-2.252 5.644-4.584 0-1.563-1.325-2.438-2.968-2.438-2.57 0-5.644 2.173-5.644 4.611m-404.353 0c0 1.14.822 2.411 2.968 2.411 2.755 0 5.644-2.252 5.644-4.584 0-1.563-1.325-2.438-2.968-2.438-2.57 0-5.644 2.173-5.644 4.611m125.337 66.187c0 1.14.822 2.411 2.969 2.411 2.755 0 5.644-2.253 5.644-4.584 0-1.563-1.325-2.438-2.968-2.438-2.57 0-5.645 2.173-5.645 4.61m-106.3-62.876c0 1.139.822 2.41 2.968 2.41 2.756 0 5.645-2.252 5.645-4.584 0-1.563-1.325-2.438-2.969-2.438-2.57 0-5.644 2.173-5.644 4.612m88.206 59.567c0 1.14.822 2.412 2.968 2.412 2.756 0 5.644-2.252 5.644-4.584 0-1.564-1.325-2.438-2.968-2.438-2.57 0-5.644 2.173-5.644 4.61M234.314 27.27c0 1.139.821 2.41 2.967 2.41 2.757 0 5.645-2.252 5.645-4.583 0-1.564-1.325-2.438-2.968-2.438-2.57 0-5.644 2.173-5.644 4.61m164.64 72.806c0 1.14.82 2.412 2.967 2.412 2.756 0 5.645-2.253 5.645-4.584 0-1.564-1.325-2.439-2.969-2.439-2.57 0-5.643 2.174-5.643 4.611m-64.187-9.928c0 1.14.822 2.411 2.968 2.411 2.755 0 5.644-2.252 5.644-4.584 0-1.563-1.325-2.437-2.968-2.437-2.57 0-5.644 2.172-5.644 4.61M290.09 33.889c0 1.139.82 2.41 2.968 2.41 2.755 0 5.644-2.252 5.644-4.584 0-1.563-1.325-2.438-2.968-2.438-2.57 0-5.644 2.173-5.644 4.612m26.583 59.567c0 1.14.82 2.412 2.967 2.412 2.756 0 5.645-2.252 5.645-4.584 0-1.564-1.325-2.438-2.968-2.438-2.57 0-5.644 2.173-5.644 4.61M212.819 23.96c0 1.14.821 2.411 2.968 2.411 2.755 0 5.644-2.252 5.644-4.584 0-1.563-1.325-2.438-2.968-2.438-2.57 0-5.644 2.173-5.644 4.611m85.76 72.806c0 1.14.82 2.411 2.967 2.411 2.756 0 5.644-2.253 5.644-4.584 0-1.563-1.325-2.438-2.968-2.438-2.57 0-5.643 2.173-5.643 4.61m23.189-66.186c0 1.14.821 2.411 2.968 2.411 2.755 0 5.643-2.252 5.643-4.584 0-1.563-1.324-2.438-2.967-2.438-2.57 0-5.644 2.173-5.644 4.611m257.203 66.187c0 1.14.821 2.411 2.968 2.411 2.755 0 5.644-2.253 5.644-4.584 0-1.563-1.325-2.438-2.968-2.438-2.57 0-5.644 2.173-5.644 4.61m-298.487-9.927c0 1.14.822 2.41 2.968 2.41 2.756 0 5.644-2.251 5.644-4.583 0-1.564-1.325-2.438-2.968-2.438-2.57 0-5.644 2.173-5.644 4.61m62.779-59.567c0 1.139.821 2.41 2.967 2.41 2.757 0 5.645-2.252 5.645-4.583 0-1.564-1.325-2.438-2.968-2.438-2.57 0-5.644 2.173-5.644 4.61m11.304 3.31c0 1.14.822 2.411 2.968 2.411 2.755 0 5.644-2.252 5.644-4.584 0-1.563-1.325-2.438-2.968-2.438-2.57 0-5.644 2.173-5.644 4.611m279.543 69.496c0 1.14.822 2.412 2.968 2.412 2.756 0 5.645-2.253 5.645-4.584 0-1.564-1.325-2.439-2.968-2.439-2.57 0-5.645 2.174-5.645 4.611m-381.624-9.928c0 1.14.822 2.411 2.968 2.411 2.755 0 5.644-2.252 5.644-4.584 0-1.563-1.325-2.437-2.968-2.437-2.57 0-5.644 2.172-5.644 4.61m119.038-59.568c0 1.14.821 2.411 2.967 2.411 2.756 0 5.644-2.252 5.644-4.584 0-1.563-1.325-2.438-2.968-2.438-2.57 0-5.643 2.173-5.643 4.611M240.423 86.838c0 1.14.822 2.41 2.968 2.41 2.756 0 5.644-2.251 5.644-4.583 0-1.564-1.325-2.438-2.968-2.438-2.57 0-5.644 2.173-5.644 4.61m320.453 6.62c0 1.139.822 2.41 2.969 2.41 2.755 0 5.644-2.251 5.644-4.583 0-1.564-1.325-2.438-2.968-2.438-2.57 0-5.645 2.173-5.645 4.61M433.36 86.838c0 1.14.822 2.41 2.968 2.41 2.755 0 5.644-2.251 5.644-4.583 0-1.564-1.325-2.438-2.968-2.438-2.57 0-5.644 2.173-5.644 4.61M393.018 27.27c0 1.139.822 2.41 2.968 2.41 2.756 0 5.645-2.252 5.645-4.583 0-1.564-1.325-2.438-2.969-2.438-2.57 0-5.644 2.173-5.644 4.61M217.485 83.53c0 1.14.822 2.411 2.968 2.411 2.756 0 5.645-2.253 5.645-4.585 0-1.563-1.325-2.437-2.969-2.437-2.57 0-5.644 2.172-5.644 4.61M404.323 30.58c0 1.14.821 2.411 2.967 2.411 2.756 0 5.644-2.252 5.644-4.584 0-1.563-1.325-2.438-2.967-2.438-2.57 0-5.644 2.173-5.644 4.611M199.392 93.456c0 1.14.82 2.412 2.967 2.412 2.756 0 5.644-2.252 5.644-4.584 0-1.564-1.325-2.438-2.968-2.438-2.57 0-5.643 2.173-5.643 4.61M184.82 27.27c0 1.139.821 2.41 2.967 2.41 2.757 0 5.645-2.252 5.645-4.583 0-1.564-1.325-2.438-2.968-2.438-2.57 0-5.644 2.173-5.644 4.61m2.507 59.569c0 1.14.822 2.41 2.968 2.41 2.756 0 5.644-2.251 5.644-4.583 0-1.564-1.325-2.438-2.967-2.438-2.57 0-5.645 2.173-5.645 4.61M432.32 30.58c0 1.14.823 2.411 2.969 2.411 2.755 0 5.644-2.252 5.644-4.584 0-1.563-1.325-2.438-2.968-2.438-2.57 0-5.645 2.173-5.645 4.611m110.462 59.568c0 1.14.822 2.411 2.968 2.411 2.756 0 5.645-2.252 5.645-4.584 0-1.563-1.325-2.437-2.969-2.437-2.57 0-5.644 2.172-5.644 4.61m-82.28 0c0 1.14.82 2.411 2.967 2.411 2.756 0 5.645-2.252 5.645-4.584 0-1.563-1.325-2.437-2.968-2.437-2.57 0-5.645 2.172-5.645 4.61M164.391 76.91c0 1.14.821 2.411 2.967 2.411 2.757 0 5.645-2.253 5.645-4.584 0-1.563-1.325-2.438-2.968-2.438-2.57 0-5.644 2.173-5.644 4.61m291.733-43.02c0 1.139.821 2.41 2.967 2.41 2.757 0 5.644-2.252 5.644-4.584 0-1.563-1.325-2.438-2.967-2.438-2.57 0-5.644 2.173-5.644 4.612m11.304-3.31c0 1.14.822 2.411 2.968 2.411 2.755 0 5.644-2.252 5.644-4.584 0-1.563-1.325-2.438-2.968-2.438-2.57 0-5.644 2.173-5.644 4.611m16.956-3.31c0 1.14.822 2.412 2.968 2.412 2.756 0 5.644-2.253 5.644-4.584 0-1.564-1.325-2.438-2.967-2.438-2.57 0-5.645 2.173-5.645 4.61m-414.91 3.31c0 1.14.822 2.411 2.968 2.411 2.757 0 5.644-2.252 5.644-4.584 0-1.563-1.325-2.438-2.967-2.438-2.57 0-5.644 2.173-5.644 4.611m66.917 49.64c0 1.14.822 2.412 2.968 2.412 2.756 0 5.645-2.253 5.645-4.585 0-1.564-1.325-2.438-2.968-2.438-2.57 0-5.645 2.173-5.645 4.611m31.472-56.259c0 1.14.822 2.411 2.968 2.411 2.756 0 5.645-2.252 5.645-4.584 0-1.563-1.325-2.438-2.969-2.438-2.57 0-5.644 2.173-5.644 4.611m-16.956-3.31c0 1.14.821 2.412 2.968 2.412 2.756 0 5.644-2.252 5.644-4.584 0-1.563-1.325-2.438-2.967-2.438-2.57 0-5.645 2.173-5.645 4.61m-41.657 59.57c0 1.139.822 2.41 2.968 2.41 2.756 0 5.644-2.252 5.644-4.584 0-1.564-1.325-2.438-2.968-2.438-2.57 0-5.644 2.173-5.644 4.611m415.437 13.237c0 1.14.822 2.412 2.968 2.412 2.755 0 5.644-2.252 5.644-4.584 0-1.564-1.325-2.438-2.968-2.438-2.57 0-5.644 2.173-5.644 4.61m-433.531 9.929c0 1.139.821 2.411 2.968 2.411 2.756 0 5.644-2.253 5.644-4.585 0-1.562-1.325-2.437-2.968-2.437-2.57 0-5.644 2.172-5.644 4.61M550.722 23.96c0 1.14.821 2.411 2.969 2.411 2.755 0 5.643-2.252 5.643-4.584 0-1.563-1.324-2.438-2.967-2.438-2.57 0-5.645 2.173-5.645 4.611M79.094 100.075c0 1.14.821 2.412 2.968 2.412 2.756 0 5.644-2.253 5.644-4.584 0-1.564-1.325-2.439-2.968-2.439-2.57 0-5.644 2.174-5.644 4.611m54.858-82.734c0 1.14.822 2.412 2.968 2.412 2.755 0 5.644-2.253 5.644-4.584 0-1.564-1.325-2.438-2.968-2.438-2.57 0-5.644 2.173-5.644 4.61M578.72 27.27c0 1.139.822 2.41 2.968 2.41 2.756 0 5.645-2.252 5.645-4.583 0-1.564-1.325-2.438-2.969-2.438-2.57 0-5.644 2.173-5.644 4.61m-477.568-9.928c0 1.14.823 2.412 2.969 2.412 2.755 0 5.644-2.253 5.644-4.584 0-1.564-1.325-2.438-2.968-2.438-2.57 0-5.645 2.173-5.645 4.61m-44.995 86.044c0 1.139.821 2.411 2.967 2.411 2.756 0 5.644-2.253 5.644-4.585 0-1.562-1.325-2.437-2.967-2.437-2.57 0-5.644 2.172-5.644 4.61m450.437-6.618c0 1.14.82 2.411 2.968 2.411 2.755 0 5.644-2.253 5.644-4.584 0-1.563-1.325-2.438-2.968-2.438-2.57 0-5.644 2.173-5.644 4.61m93.622-66.186c0 1.14.821 2.411 2.968 2.411 2.755 0 5.643-2.252 5.643-4.584 0-1.563-1.324-2.438-2.967-2.438-2.57 0-5.644 2.173-5.644 4.611M488.5 86.838c0 1.14.821 2.41 2.967 2.41 2.757 0 5.645-2.251 5.645-4.583 0-1.564-1.325-2.438-2.969-2.438-2.57 0-5.643 2.173-5.643 4.61M611.52 33.89c0 1.139.821 2.41 2.967 2.41 2.757 0 5.645-2.252 5.645-4.584 0-1.563-1.325-2.438-2.968-2.438-2.57 0-5.644 2.173-5.644 4.612m-4.55 66.186c0 1.14.82 2.412 2.967 2.412 2.756 0 5.644-2.253 5.644-4.584 0-1.564-1.325-2.439-2.968-2.439-2.57 0-5.644 2.174-5.644 4.611m54.306-66.186c0 1.139.822 2.41 2.968 2.41 2.756 0 5.644-2.252 5.644-4.584 0-1.563-1.325-2.438-2.968-2.438-2.57 0-5.644 2.173-5.644 4.612m-32.799 0c0 1.139.821 2.41 2.968 2.41 2.756 0 5.644-2.252 5.644-4.584 0-1.563-1.325-2.438-2.968-2.438-2.57 0-5.644 2.173-5.644 4.612M539.418 20.65c0 1.14.822 2.411 2.968 2.411 2.756 0 5.644-2.252 5.644-4.584 0-1.563-1.325-2.438-2.968-2.438-2.57 0-5.644 2.173-5.644 4.61m-416.77-6.618c0 1.14.821 2.411 2.967 2.411 2.756 0 5.644-2.252 5.644-4.584 0-1.563-1.325-2.438-2.967-2.438-2.57 0-5.644 2.173-5.644 4.611m175.385 1.593c0 .08.026.212.21.291 1.14.371 3.42 1.802 5.142 4.744.477.821 1.246 1.96 1.246 4.16 0 1.908-.504 3.868-1.193 5.777-.053.158-.106.291-.08.397 0 .16.106.265.266.265.184 0 .317-.106.423-.292 1.193-2.12 1.644-4.584 1.644-6.995-.133-3.418-2.094-5.936-2.094-5.936.08 0-2.438-3.259-3.153-4.372-.98-1.51-1.432-3.02-1.484-3.127a65 65 0 0 1-.265-1.033c-.027-.106-.159-.212-.318-.212a.35.35 0 0 0-.344.344zM460.5 110.519c0 .185.16.344.345.344.132 0 .292-.106.318-.212 0-.027.239-.954.265-1.033.026-.107.265-1.114 1.218-2.677 1.034-1.722 2.624-2.968 3.949-4.823 1.298-1.854 2.093-3.603 2.093-5.935 0-2.411-.556-4.425-1.96-6.996-.08-.185-.239-.291-.398-.291-.053 0-.106 0-.132.026-.133.054-.186.16-.186.319 0 .079.026.211.08.318 1.06 2.464 1.483 3.868 1.483 5.776 0 2.2-.768 3.339-1.245 4.16-1.722 2.941-4.505 4.373-5.618 4.743-.185.08-.212.212-.212.292zM77.417 12.316c0 .079.026.212.212.291 1.14.371 3.418 1.802 5.14 4.743.478.822 1.246 1.961 1.246 4.16 0 1.908-.504 3.87-1.192 5.777-.054.159-.106.292-.08.397 0 .16.106.265.265.265.186 0 .319-.105.424-.291 1.192-2.12 1.643-4.584 1.643-6.996-.132-3.418-2.093-5.935-2.093-5.935.08 0-2.438-3.26-3.154-4.372-.98-1.51-1.43-3.021-1.483-3.127a65 65 0 0 1-.265-1.034c-.027-.106-.16-.212-.318-.212a.35.35 0 0 0-.345.345zm58.975 89.929c0 .186.16.345.345.345.133 0 .292-.107.318-.212 0-.027.239-.954.265-1.034.027-.105.265-1.113 1.219-2.676 1.033-1.723 2.623-2.968 3.948-4.822 1.299-1.855 2.093-3.605 2.093-5.937 0-2.41-.556-4.424-1.96-6.995-.08-.185-.239-.291-.398-.291-.053 0-.106 0-.132.026-.133.053-.186.159-.186.318 0 .08.027.212.08.318 1.06 2.465 1.484 3.869 1.484 5.777 0 2.199-.769 3.339-1.246 4.16-1.722 2.941-4.505 4.372-5.617 4.743-.186.08-.213.212-.213.292zm370.202-5.48v17.09h.662v-17.09Zm112.868-85.533v20.485h.662V11.232ZM488.5 86.837v27.017h.662V86.837Zm119.659-76.723v18.293h.662V10.114ZM64.098 79.106v22.107h.663V79.106Zm460.59 14.35v20.398h.662V93.456ZM101.153 17.34v18.745h.662V17.34Zm485.51-9.352v17.11h.662V7.988ZM133.952 17.34v18.745h.662V17.34ZM87.037 79.106v18.797h.662V79.106Zm12.062 0v22.107h.662V79.106Zm451.623-55.147v18.699h.663V23.959Zm-441.47 56.259v22.053h.661V80.218Zm41.656-59.568v20.43h.662V20.65Zm485.51-11.04v22.107h.663V9.61Zm-21.507 66.187v22.106h.662V75.797ZM167.865 23.96v18.744h.662V23.96Zm-31.472 56.259v22.027h.662V80.218ZM77.417 6.353v22.054h.662V6.353Zm414.91-1.707v20.452h.662V4.646Zm176.89 4.964v22.107h.663V9.61Zm-193.847 0v18.797h.662V9.61ZM184.82 27.269v17.057h.662V27.27Zm-20.43 49.64v28.718h.662V76.91Zm299.677-67.3v22.108h.662V9.61Zm78.716 80.537v20.428h.662V90.146Zm-82.281 0v20.373h.662V90.146Zm-273.174-3.31v21.984h.663V86.837ZM440.263 9.61v18.797h.662V9.61ZM199.391 93.456v17.043h.662V93.456Zm21.37-88.794v17.126h.662V4.662Zm-3.276 78.865v20.43h.662v-20.43Zm194.78-78.881v23.761h.662V4.646ZM253.56 6.284v22.123h.662V6.284Zm147.4-1.638v20.452h.663V4.646Zm159.917 88.81V112.2h.662V93.456Zm-320.454-6.62v19.25h.662v-19.25Zm12.063 3.31v17.059h.662V90.146Zm126.98-85.5v23.761h.662V4.646ZM657.912 9.61v18.797h.662V9.61ZM362.51 4.646v23.761h.662V4.646Zm-82.026 82.19v27.018h.662V86.837Zm70.721-82.19v20.452h.662V4.646Zm227.766 92.12v17.059h.662v-17.06Zm-145.611-9.93v22.054h.662V86.837Zm-134.782 9.93v17.088h.662V96.765Zm31.133-92.12v23.761h.662V4.646Zm-13.038 88.81v20.398h.662V93.456Zm-74.417-87.73v19.372h.662V5.725Zm92.51 84.42v20.428h.663V90.146ZM298.033 9.663v22.054h.662V9.663ZM122.647 14.03v22.054h.662V14.03Zm230.214 79.425V112.2h.662V93.456Zm18.095 3.31v17.059h.662v-17.06ZM272.598 9.61v22.107h.662V9.61Zm266.82 11.04v20.444h.662V20.65Zm102.635 55.147v22.106h.662V75.797Zm-235.157 0v22.106h.662V75.797ZM258.607 30.814l2.359-.477v4.373l-2.359.503zm4.107-.82c.16-.027.291-.213.291-.372v-1.563a.36.36 0 0 0-.37-.372h-.053l-.875.186v-3.948h-.741v4.107l-2.359.477v-3.736h-.742v3.895l-1.033.212c-.16.027-.292.212-.292.371v1.537c0 .212.159.37.37.37h.081l.874-.184v4.372l-1.033.212c-.16.026-.292.212-.292.37v1.537c0 .213.159.371.37.371h.081l.874-.185V41.6h.742v-4.107l2.359-.477v3.736h.741v-3.895l1.007-.186c.16-.026.292-.212.292-.37v-1.564a.36.36 0 0 0-.371-.371h-.053l-.875.186v-4.372zm-132.37 47.152 2.359-.477v4.373l-2.359.503zm4.107-.821c.16-.026.292-.212.292-.372V74.39a.36.36 0 0 0-.371-.372h-.053l-.874.186v-3.948h-.742v4.107l-2.358.477v-3.736h-.743v3.895l-1.033.212c-.159.027-.291.212-.291.37v1.538c0 .212.159.37.37.37h.08l.874-.184v4.371l-1.033.213c-.159.026-.292.212-.292.37v1.537c0 .212.16.37.371.37h.08l.874-.184v3.948h.742v-4.107l2.359-.477v3.736h.742v-3.895l1.006-.186c.16-.026.292-.212.292-.37v-1.564a.36.36 0 0 0-.371-.371h-.053l-.874.185V76.51zm315.625-45.51 2.357-.477v4.373l-2.357.503zm4.107-.82c.159-.027.291-.213.291-.372v-1.563a.36.36 0 0 0-.37-.372h-.053l-.875.186v-3.948h-.742v4.107l-2.358.477v-3.736h-.742v3.895l-1.034.212c-.159.027-.291.212-.291.371v1.537c0 .212.158.37.37.37h.08l.875-.184v4.372l-1.034.212c-.159.026-.291.212-.291.37v1.537c0 .213.158.371.37.371h.08l.875-.185V41.6h.742v-4.107l2.358-.477v3.736h.742v-3.895l1.007-.186c.16-.026.291-.212.291-.37v-1.564a.36.36 0 0 0-.37-.371h-.053l-.875.186v-4.372zm157.502 73.637a.2.2 0 0 0-.075.036l-.016-.002-.001.011-.022.01a.165.165 0 0 0-.004.195l-.002.016c2.631 3.377 7.84 5.034 13.04 5.034s10.408-1.657 13.039-5.034a.165.165 0 0 0-.24-.225c-2.52 2.213-7.66 3.36-12.8 3.36-5.139 0-10.279-1.147-12.799-3.36a.17.17 0 0 0-.12-.041zm1.251 1.244c2.846 1.672 7.254 2.487 11.668 2.487s8.822-.815 11.668-2.487c-2.75 2.469-7.204 3.725-11.668 3.725s-8.918-1.256-11.668-3.725m-1.24-1.08c5.163 4.535 20.653 4.535 25.817 0-5.164 6.627-20.654 6.627-25.818 0m-42.44-94.548v27.203h1.192V9.246Zm110.554 0v27.203H681V9.246Zm-290.32 69.496v27.203h1.19V78.742Zm141.657-52.585c0-.769-.609-1.405-1.377-1.405-.769 0-1.378.636-1.378 1.405 0 .768.61 1.404 1.378 1.404s1.377-.636 1.377-1.404m0-6.62c0-.768-.609-1.404-1.377-1.404-.769 0-1.378.636-1.378 1.405 0 .768.61 1.404 1.378 1.404s1.377-.636 1.377-1.404m-6.395-10.292v27.203h1.191V9.246Zm-6.09 0v27.203h3.64V9.246Zm-39.626 69.496v27.203h1.191V78.742ZM518.66 9.246v27.203h3.64V9.246Zm-3.64 0v27.203h1.192V9.246Zm-2.447 16.91c0-.768-.609-1.404-1.377-1.404-.769 0-1.378.636-1.378 1.405 0 .768.61 1.404 1.378 1.404s1.377-.636 1.377-1.404m0-6.62c0-.768-.609-1.404-1.377-1.404-.769 0-1.378.636-1.378 1.405 0 .768.61 1.404 1.378 1.404s1.377-.636 1.377-1.404M91.688 9.246v27.203h1.191V9.246Zm111.666 0v27.203h1.191V9.246Zm-48.428 69.496v27.203h1.191V78.742Zm267.93-69.496v27.203h1.192V9.246ZM271.02 78.742v27.203h1.191V78.742Zm326.484 0v27.203h1.192V78.742Zm79.856 0v27.203H681V78.742Zm-3.64 0v27.203h1.191V78.742Zm-2.447 16.911c0-.768-.61-1.405-1.378-1.405-.769 0-1.378.637-1.378 1.405 0 .769.61 1.404 1.378 1.404s1.378-.635 1.378-1.404m0-6.619c0-.768-.61-1.404-1.378-1.404-.769 0-1.378.636-1.378 1.404 0 .769.61 1.404 1.378 1.404s1.378-.635 1.378-1.404M312.303 9.246v27.203h1.191V9.246ZM0 105.216v.729h681v-.728zM0 98.6v.727h681V98.6zm0-6.62v.729h681v-.728zm0-6.618v.728h681v-.728zm0-6.619v.728h681v-.728Zm0-43.021v.727h681v-.727zm0-6.619v.728h681v-.728zm0-6.619v.728h681v-.728zm0-6.618v.727h681v-.727Zm0-6.619v.728h681v-.728Z"/>
</svg>
