<?xml version="1.0" encoding="UTF-8" standalone="no"?>
<svg
   width="681"
   height="47.113575"
   version="1.2"
   id="svg51"
   xmlns="http://www.w3.org/2000/svg"
   xmlns:svg="http://www.w3.org/2000/svg"
   xmlns:rdf="http://www.w3.org/1999/02/22-rdf-syntax-ns#"
   xmlns:cc="http://creativecommons.org/ns#"
   xmlns:dc="http://purl.org/dc/elements/1.1/">
  <defs
     id="defs51" />
  <title
     id="title1">air_LXIV</title>
  <desc
     id="desc1">Generated by MuseScore Studio 4.7.3</desc>
  <path
     id="path51"
     class="NoteDot"
     d="m 633.49794,26.156845 c 0,0.741307 0.5828,1.324906 1.3249,1.324906 0.74211,0 1.32491,-0.583599 1.32491,-1.324906 0,-0.742108 -0.5828,-1.324906 -1.32491,-1.324906 -0.7421,0 -1.3249,0.582798 -1.3249,1.324906 M 48.61883,30.341306 c -0.212145,0.582798 -0.742107,2.490503 -2.040595,2.490503 -1.721977,0 -2.093431,-1.059925 -3.52401,-1.059925 -0.212145,0 -0.42429,0.02722 -0.689271,0.08006 0,0 0.662853,-1.007089 3.471174,-1.881287 2.80912,-0.874998 3.52481,-2.25274 3.52481,-3.842627 0,-1.112761 -0.503545,-3.312185 -4.50468,-3.312185 -4.001937,0 -4.743244,2.411569 -4.743244,3.630002 0,1.086343 0.900616,1.961341 1.986959,1.961341 1.086343,0 1.961341,-0.874998 1.961341,-1.961341 0,-0.741307 -0.529962,-1.563469 -1.219234,-1.82845 -0.07925,-0.02642 -0.185727,-0.158508 -0.185727,-0.291399 0,-0.158509 0.132891,-0.344236 0.610017,-0.476326 0.132091,-0.05364 0.502744,-0.132891 0.900616,-0.132891 1.510633,0 1.802032,0.927835 1.802032,2.279159 0,3.099719 -3.683318,3.762572 -5.220369,6.068149 0,0 -0.794944,1.112761 -0.794944,2.357612 0,1.245651 0.635635,1.324906 0.954253,1.324906 0.423489,0 0.874198,-0.344236 0.874198,-0.821362 0,-0.105672 -0.02642,-0.211344 -0.07926,-0.344235 -0.159308,-0.370654 -0.212145,-0.662053 -0.212145,-0.874198 0,-0.08005 0,-0.159309 0.02642,-0.238563 0.02642,-0.159309 0.238564,-0.42429 0.874198,-0.42429 0.768526,0 1.059925,0.901416 1.537051,1.589887 0.477126,0.689271 1.219234,1.112761 2.067013,1.112761 0.84778,0 1.986959,-0.609217 2.464085,-1.589887 0.477127,-0.97987 1.086343,-2.96763 1.086343,-3.682518 0,-0.345036 -0.212145,-0.503545 -0.449908,-0.503545 -0.185727,0 -0.371454,0.105673 -0.477126,0.370654 M 46.935279,15.962594 c 2.11985,-0.821441 2.25194,-2.199343 2.25194,-2.67631 v -0.13249 c 0,-0.238483 -0.07925,-3.2327705 -4.636771,-3.2327705 -4.557516,0 -4.425425,3.2327705 -4.425425,3.2327705 h 0.02642 l -0.02642,0.053 c 0,0.953932 0.768525,1.69588 1.722778,1.69588 0.953451,0 1.695559,-0.741948 1.695559,-1.69588 0,-0.768445 -0.582799,-1.510393 -1.324906,-1.669381 l 0.07925,-0.07949 c 0.371454,-0.264981 0.874998,-0.397471 1.378543,-0.397471 1.112761,0 2.304776,0.662452 2.304776,2.093351 0,1.669381 -1.244852,1.907864 -1.563469,1.960861 -0.317818,0.053 -1.801232,0.158988 -2.11985,0.158988 -0.317817,0 -0.344235,0.370974 -0.344235,0.370974 v 0.529962 c 0,0 0.05284,0.29148 0.344235,0.317978 0.450708,0.0265 1.059925,0.0265 1.908505,0.158988 1.165597,0.158989 1.774814,0.953933 1.774814,2.808801 0,1.775374 -1.192015,2.25234 -2.304776,2.25234 -0.742108,0 -1.431379,-0.211985 -1.722778,-0.42397 0.874198,-0.053 1.589887,-0.821442 1.589887,-1.695879 0,-0.953933 -0.742108,-1.722378 -1.695559,-1.722378 -0.954253,0 -1.722778,0.768445 -1.722778,1.722378 0,2.172845 1.987759,3.259268 3.948299,3.259268 2.54414,0 5.299624,-0.874438 5.299624,-3.762733 0,-1.934362 -1.324906,-2.755804 -2.490503,-3.126778 h 0.05284 M 28.940575,7.64899 31.298988,7.1720239 v 4.3721891 l -2.358413,0.503465 V 7.64899 m 4.107609,-0.8214417 c 0.159309,-0.026498 0.291399,-0.2119849 0.291399,-0.3709736 v -1.563389 c 0,-0.2119849 -0.159309,-0.3709736 -0.370653,-0.3709736 H 32.91529 L 32.041095,4.7076989 V 0.75947929 H 31.298988 V 4.8666876 L 28.940575,5.3436537 V 1.6074191 h -0.741307 v 3.8952233 l -1.033506,0.211985 c -0.159309,0.026498 -0.2914,0.2119849 -0.2914,0.3709736 v 1.5368909 c 0,0.2119849 0.158509,0.3709736 0.370654,0.3709736 h 0.07925 l 0.874998,-0.1854868 v 4.3721893 l -1.033506,0.211985 c -0.159309,0.0265 -0.2914,0.211985 -0.2914,0.370974 v 1.536891 c 0,0.211985 0.158509,0.370973 0.370654,0.370973 h 0.07925 l 0.874998,-0.185487 v 3.94822 h 0.741307 V 14.326516 L 31.29898,13.84955 v 3.736234 h 0.742107 v -3.895223 l 1.007089,-0.185487 c 0.159309,-0.0265 0.291399,-0.211985 0.291399,-0.370974 v -1.563389 c 0,-0.211984 -0.159309,-0.370973 -0.370653,-0.370973 h -0.05364 l -0.874198,0.185487 V 7.0130351 l 1.0071,-0.1854868 M 16.093311,34.924439 c -0.529962,0.106473 -1.033427,0.159309 -1.536891,0.159309 -3.789231,0 -7.0220012,-2.649811 -7.0220012,-6.650947 0,-3.233411 2.2788382,-6.121386 4.6106722,-8.135243 0.450468,-0.397471 0.874438,-0.768445 1.27191,-1.165917 0.238483,1.430899 0.42397,2.67631 0.609457,3.762733 -2.411329,0.715129 -4.0542123,3.259268 -4.0542123,5.749771 0,1.854869 1.4573963,4.399008 3.5772463,4.399008 0.211985,0 0.450468,-0.105672 0.450468,-0.344235 0,-0.238563 -0.264982,-0.371454 -0.582959,-0.582799 -1.033427,-0.636435 -1.616385,-1.324906 -1.616385,-2.623393 0,-1.616306 1.192415,-2.914793 2.755804,-3.286247 l 1.536891,8.71796 M 13.761477,7.6844542 c 0.238483,-1.0599247 1.457396,-3.8422271 2.835298,-3.8422271 0.397472,0 1.033427,1.2984078 1.033427,3.1267779 0,2.7558043 -2.040355,4.822658 -3.868725,6.62453 -0.158989,-1.059925 -0.29148,-2.093352 -0.29148,-3.206273 0,-0.9804301 0.0795,-1.8813661 0.29148,-2.7028078 m 6.094567,22.3382338 c 0,1.881286 -0.768446,3.815409 -2.649812,4.583934 -0.556461,-3.179774 -1.27191,-7.393055 -1.457397,-8.558652 2.384831,0 4.107209,1.616305 4.107209,3.974718 M 8.1968718,43.059602 c 0,1.748395 1.351404,4.053972 4.9286502,4.053972 1.245411,0 2.331834,-0.317818 3.285766,-0.900616 1.430899,-1.007089 1.801872,-2.756285 1.801872,-4.425426 0,-1.033507 -0.158988,-2.225522 -0.423969,-3.736154 -0.07949,-0.529963 -0.238484,-1.324906 -0.397472,-2.358413 2.596815,-0.84778 4.531178,-3.550428 4.531178,-6.280294 0,-4.001136 -2.835299,-6.703784 -6.704024,-6.703784 -0.264981,-1.589887 -0.529962,-3.153276 -0.768445,-4.637171 2.8088,-2.941291 4.743163,-6.253555 4.743163,-10.4667561 0,-2.4113288 -0.741948,-4.3721895 -1.165917,-5.3261218 C 17.391719,0.92743413 16.623273,0 16.146307,0 15.96082,0 15.139379,0.31797742 14.264941,1.351404 c -1.69588,2.013857 -2.172846,5.4056161 -2.172846,7.631458 0,1.430898 0.132491,2.729306 0.582959,5.697095 -0.0265,0.0265 -1.404401,1.430899 -1.960861,1.881367 -2.4113287,2.25234 -5.7500916,5.458612 -5.7500916,10.757915 0,4.955389 4.3191932,8.850852 9.2478436,8.850852 0.768445,0 1.483894,-0.07925 2.093351,-0.185727 0.503464,2.54414 0.794943,4.399008 0.794943,5.803168 0,2.755484 -1.4044,4.213281 -4.08071,4.213281 -0.635955,0 -1.192415,-0.132891 -1.245411,-0.132891 -0.0265,-0.02642 -0.07949,-0.05284 -0.07949,-0.07925 0,-0.05284 0.053,-0.07925 0.132491,-0.105672 1.245412,-0.185727 2.490823,-1.245652 2.490823,-2.941211 0,-1.431379 -1.086423,-2.941211 -3.073782,-2.941211 -1.8548679,0 -3.0472832,1.509832 -3.0472832,3.259028 M 316.74856,25.12574 c -0.8742,0 -1.05992,-0.714889 -1.05992,-0.953452 0,-1.298568 4.45184,-3.577406 5.69749,-3.577406 0.63564,0 1.05993,0.370973 1.05993,0.953932 0,1.324906 -4.47827,3.576926 -5.6975,3.576926 m 3.6569,-5.77627 c -2.57056,0 -5.64386,2.146348 -5.64386,4.610673 0,1.139179 0.82136,2.411248 2.96763,2.411248 2.75548,0 5.64386,-2.251939 5.64386,-4.584094 0,-1.563389 -1.32491,-2.437827 -2.96763,-2.437827 m 303.16489,12.395195 c -0.8742,0 -1.05993,-0.715689 -1.05993,-0.953452 0,-1.298487 4.45185,-3.577646 5.6975,-3.577646 0.63563,0 1.05992,0.370654 1.05992,0.954253 0,1.324906 -4.47826,3.576845 -5.69749,3.576845 m 3.6569,-5.77675 c -2.56976,0 -5.64386,2.146268 -5.64386,4.611153 0,1.139179 0.82136,2.411249 2.96763,2.411249 2.75628,0 5.64386,-2.25274 5.64386,-4.583934 0,-1.563469 -1.32491,-2.438468 -2.96763,-2.438468 m -470.74427,5.77675 c -0.8742,0 -1.05993,-0.715689 -1.05993,-0.953452 0,-1.298487 4.45185,-3.577646 5.6975,-3.577646 0.63563,0 1.05992,0.370654 1.05992,0.954253 0,1.324906 -4.47826,3.576845 -5.69749,3.576845 m 3.6569,-5.77675 c -2.57056,0 -5.64386,2.146268 -5.64386,4.611153 0,1.139179 0.82136,2.411249 2.96763,2.411249 2.75548,0 5.64386,-2.25274 5.64386,-4.583934 0,-1.563469 -1.32491,-2.438468 -2.96763,-2.438468 M 90.194454,20.65076 c 0,1.139419 0.821362,2.411329 2.967629,2.411329 2.755484,0 5.643859,-2.25234 5.643859,-4.584175 0,-1.563389 -1.324906,-2.437827 -2.967629,-2.437827 -2.570557,0 -5.643859,2.172846 -5.643859,4.610673 m 494.506116,6.618846 c 0,1.139178 0.82136,2.411248 2.96763,2.411248 2.75548,0 5.64386,-2.25274 5.64386,-4.583934 0,-1.563469 -1.32491,-2.438067 -2.96763,-2.438067 -2.57056,0 -5.64386,2.173086 -5.64386,4.610753 m -389.07723,0 c 0,1.139178 0.82136,2.411248 2.96763,2.411248 2.75548,0 5.64386,-2.25274 5.64386,-4.583934 0,-1.563469 -1.32491,-2.438067 -2.96763,-2.438067 -2.57056,0 -5.64386,2.173086 -5.64386,4.610753 M 557.28182,20.65076 c 0,1.139419 0.82137,2.411329 2.96763,2.411329 2.75629,0 5.64466,-2.25234 5.64466,-4.584175 0,-1.563389 -1.3249,-2.437827 -2.96843,-2.437827 -2.56975,0 -5.64386,2.172846 -5.64386,4.610673 m -334.24053,3.309383 c 0,1.139179 0.82136,2.411248 2.96843,2.411248 2.75548,0 5.64386,-2.251939 5.64386,-4.584094 0,-1.563389 -1.32491,-2.437827 -2.96763,-2.437827 -2.57056,0 -5.64466,2.172846 -5.64466,4.610673 m 295.10017,1.165597 c -0.8742,0 -1.05992,-0.714889 -1.05992,-0.953452 0,-1.298568 4.45184,-3.577406 5.69749,-3.577406 0.63564,0 1.05993,0.370973 1.05993,0.953932 0,1.324906 -4.47826,3.576926 -5.6975,3.576926 m 3.6569,-5.77627 c -2.56975,0 -5.64386,2.146348 -5.64386,4.610673 0,1.139179 0.82136,2.411248 2.96763,2.411248 2.75629,0 5.64386,-2.251939 5.64386,-4.584094 0,-1.563389 -1.3249,-2.437827 -2.96763,-2.437827 m -271.33832,1.30129 c 0,1.139419 0.82136,2.411329 2.96762,2.411329 2.75549,0 5.64386,-2.25234 5.64386,-4.584175 0,-1.563389 -1.3249,-2.437827 -2.96763,-2.437827 -2.57055,0 -5.64385,2.172846 -5.64385,4.610673 m 226.5541,-2.143386 c -0.8742,0 -1.05992,-0.715449 -1.05992,-0.953932 0,-1.298408 4.45184,-3.577246 5.69749,-3.577246 0.63564,0 1.05993,0.370974 1.05993,0.953932 0,1.324906 -4.47827,3.577246 -5.6975,3.577246 m 3.6569,-5.776589 c -2.57056,0 -5.64386,2.146347 -5.64386,4.610672 0,1.139419 0.82136,2.411329 2.96763,2.411329 2.75549,0 5.64386,-2.25234 5.64386,-4.584175 0,-1.563388 -1.32491,-2.437826 -2.96763,-2.437826 M 277.87798,27.269606 c 0,1.139178 0.82136,2.411248 2.96843,2.411248 2.75549,0 5.64386,-2.25274 5.64386,-4.583934 0,-1.563469 -1.3249,-2.438067 -2.96763,-2.438067 -2.57056,0 -5.64466,2.173086 -5.64466,4.610753 M 62.77571,23.960143 c 0,1.139179 0.821362,2.411248 2.967629,2.411248 2.756285,0 5.64466,-2.251939 5.64466,-4.584094 0,-1.563389 -1.324906,-2.437827 -2.96763,-2.437827 -2.570557,0 -5.644659,2.172846 -5.644659,4.610673 m 54.83669,3.309463 c 0,1.139178 0.82136,2.411248 2.96763,2.411248 2.75628,0 5.64466,-2.25274 5.64466,-4.583934 0,-1.563469 -1.32491,-2.438067 -2.96763,-2.438067 -2.57056,0 -5.64466,2.173086 -5.64466,4.610753 M 438.14356,10.722772 c 0,1.139419 0.82137,2.411328 2.96843,2.411328 2.75549,0 5.64386,-2.25234 5.64386,-4.584174 0,-1.563389 -1.3249,-2.4378269 -2.96763,-2.4378269 -2.57055,0 -5.64466,2.1728457 -5.64466,4.6106729 m -82.25464,9.927988 c 0,1.139419 0.82136,2.411329 2.96763,2.411329 2.75549,0 5.64386,-2.25234 5.64386,-4.584175 0,-1.563389 -1.32491,-2.437827 -2.96763,-2.437827 -2.57056,0 -5.64386,2.172846 -5.64386,4.610673 m 27.41795,-3.309303 c 0,1.139419 0.82136,2.411329 2.96843,2.411329 2.75548,0 5.64386,-2.25234 5.64386,-4.584175 0,-1.563388 -1.32491,-2.437826 -2.96763,-2.437826 -2.57056,0 -5.64466,2.172845 -5.64466,4.610672 m 27.41875,-3.309383 c 0,1.139419 0.82136,2.411329 2.96763,2.411329 2.75548,0 5.64385,-2.25234 5.64385,-4.584174 0,-1.563389 -1.3249,-2.4378271 -2.96762,-2.4378271 -2.57056,0 -5.64386,2.1728461 -5.64386,4.6106721 m -27.41838,3.308361 v 22.053517 h 0.66201 V 17.340435 Z M 162.43778,6.3005432 V 28.407223 h 0.66217 V 6.3005432 Z M 355.88849,20.649729 v 20.398946 h 0.66201 V 20.649729 Z m 82.25546,-9.928038 v 22.053207 h 0.66202 V 10.721691 Z m -123.3828,13.237643 v 18.744064 h 0.66218 V 23.959334 Z M 125.55506,4.6458182 V 25.097769 h 0.66202 V 4.6458182 Z M 62.776046,23.959334 v 18.744064 h 0.662173 V 23.959334 Z M 475.02682,17.340435 v 22.053517 h 0.66202 V 17.340435 Z M 285.82058,4.6458182 V 25.097769 h 0.66201 V 4.6458182 Z M 516.15417,23.959334 v 18.744064 h 0.66201 V 23.959334 Z M 250.45968,20.649729 v 20.398946 h 0.66202 V 20.649729 Z m 306.82261,0 v 20.398946 h 0.66201 V 20.649729 Z m -334.24057,3.309605 v 18.744064 h 0.66201 V 23.959334 Z M 592.6424,4.6458182 V 25.097769 h 0.66201 V 4.6458182 Z m -389.07728,0 V 25.097769 h 0.66218 V 4.6458182 Z m 425.96094,1.654725 V 28.407223 h 0.66201 V 6.3005432 Z M 410.7252,14.031141 v 22.053364 h 0.66202 V 14.031141 Z M 90.194014,20.649729 v 20.398946 h 0.662165 V 20.649729 Z M 432.04179,12.180168 V 7.8344768 l 3.0733,-0.8744379 v 4.3721891 l -3.0733,0.84794 m 3.6561,-7.4194729 c -0.0528,-0.052996 -0.13209,-0.079494 -0.21134,-0.079494 -0.0264,0 -0.0801,0.026498 -0.10648,0.026498 L 432.04179,5.635133 V 0.99796235 h -0.74211 V 14.114531 c 0,0.211985 0.15851,0.344475 0.37066,0.344475 h 0.10647 l 3.33828,-0.927434 v 4.637171 h 0.71569 V 5.0521744 c 0,-0.1059925 -0.0528,-0.2384831 -0.13289,-0.2914793 M 305.29671,9.2458378 V 36.448658 h 1.19128 V 9.2458378 Z m 372.06283,0 V 36.448658 h 3.64015 V 9.2458378 Z m -3.63967,0 V 36.448658 H 674.911 V 9.2458378 Z m -208.15749,0 V 36.448658 h 1.19113 V 9.2458378 Z m 146.55615,0 V 36.448658 h 1.19113 V 9.2458378 Z m -467.08734,0 V 36.448658 h 1.19113 V 9.2458378 Z M 0,35.720656 v 0.727689 h 681 v -0.727689 z m 0,-6.618269 v 0.727841 h 681 v -0.727841 z m 0,-6.61906 v 0.727685 h 681 v -0.727685 z m 0,-6.618588 v 0.727684 H 681 V 15.864739 Z M 0,9.2459947 V 9.9736795 H 681 V 9.2459947 Z"
     style="stroke-width:0.0800547" />
  <metadata
     id="metadata51">
    <rdf:RDF>
      <cc:Work
         rdf:about="">
        <dc:title>air_LXIV</dc:title>
      </cc:Work>
    </rdf:RDF>
  </metadata>
</svg>
