<?xml version="1.0" encoding="utf-8"?>
<svg xmlns="http://www.w3.org/2000/svg" xmlns:svg="http://www.w3.org/2000/svg" version="1.1" viewBox="0 0 681 48">
	<title>The musical score for Air LX</title>
	<path d="M339.846 26.157c0 .741.583 1.325 1.325 1.325.741 0 1.325-.584 1.325-1.325 0-.742-.584-1.325-1.325-1.325-.742 0-1.325.583-1.325 1.325m290.8-6.62c0 .743.584 1.326 1.325 1.326.742 0 1.325-.583 1.325-1.325s-.583-1.325-1.325-1.325c-.741 0-1.325.583-1.325 1.325m-232.168 7.708c-.026-.027-.08-.08-.16-.185l-3.046-3.763a.3.3 0 0 1-.054-.16c0-.079.027-.185.054-.238l2.702-4.08a.5.5 0 0 0 .053-.186v-.238a.3.3 0 0 0-.079-.212l-4.293-5.804s-.106-.159-.265-.159c-.08 0-.132.027-.212.08a.32.32 0 0 0-.133.265c0 .159.08.291.08.291l2.014 2.756q.08.12.08.318a.63.63 0 0 1-.08.318l-2.676 4.08a.6.6 0 0 0-.053.213v.238c0 .08.026.16.08.212l2.967 3.684a2.7 2.7 0 0 0-.662-.08c-1.352 0-2.411 1.113-2.411 2.465 0 .37.079.742.29 1.033.557.848 2.544 3.365 2.544 3.365s.133.16.319.16c.053 0 .106 0 .158-.054.133-.106.186-.212.186-.317 0-.107-.053-.186-.08-.239-.08-.133-.927-1.67-.927-1.67s-.186-.37-.186-.848c0-.848.637-1.537 1.484-1.537.345 0 .636.107.848.239l1.034.663s.106.052.212.052a.29.29 0 0 0 .265-.132c.053-.106.08-.159.08-.238 0-.08-.027-.133-.08-.212zm-351.82.949c-1.802-.583-3.79-1.458-3.79-2.65 0-1.033.955-1.458 2.094-1.458 1.643 0 2.755.769 2.755 1.988 0 1.272-.582 1.881-1.06 2.12m-1.695 6.28c-1.696 0-3.153-.928-3.153-2.412 0-1.775 1.377-2.199 1.377-2.199 1.802.61 4.373 1.51 4.373 2.968 0 .715-.928 1.643-2.597 1.643m3.18-5.564c.874-.663 1.484-1.51 1.484-2.57 0-1.909-2.094-3.472-4.664-3.472s-4.664 1.563-4.664 3.471c0 1.06.265 2.014 1.51 2.808-1.191.69-1.854 1.67-1.854 2.943 0 2.146 2.252 3.868 5.008 3.868 2.755 0 5.008-1.722 5.008-3.868 0-1.273-.45-2.465-1.828-3.18M45.2 21.726c-.875 0-1.59-1.192-1.59-2.676s.715-2.703 1.59-2.703c.874 0 1.616 1.219 1.616 2.703s-.742 2.676-1.616 2.676m.98-6.625c-1.616 0-2.2.477-2.57.875-.08-.557-.132-.98-.132-1.405 0-1.51.53-3.47 2.385-3.47.662 0 1.06.211 1.324.503-.557.238-1.007.954-1.007 1.563 0 .954.742 1.696 1.696 1.696s1.723-.742 1.723-1.696v-.08c0-.238-.054-.635-.16-.847-.344-.954-1.457-2.359-4.106-2.359-2.385 0-4.108 2.28-4.638 3.498a9.4 9.4 0 0 0-.662 3.418c0 1.617.45 3.445 2.013 4.823 1.537 1.166 2.518 1.219 3.445 1.219.928 0 4.4-1.087 4.4-4.16 0-2.597-2.041-3.578-3.71-3.578M28.94 7.65l2.358-.477v4.372l-2.358.504zm4.107-.821c.16-.027.292-.212.292-.371V4.893a.36.36 0 0 0-.371-.37h-.054l-.874.185V.759H31.3v4.108l-2.358.477V1.607h-.742v3.896l-1.033.212c-.16.026-.292.212-.292.37v1.537c0 .212.159.371.371.371h.08l.874-.185v4.372l-1.033.212c-.16.027-.292.212-.292.371V14.3c0 .212.159.371.371.371h.08l.874-.185v3.948h.742v-4.107l2.358-.477v3.736h.742V13.69l1.007-.186c.16-.026.292-.212.292-.37V11.57a.36.36 0 0 0-.371-.371h-.054l-.874.185V7.013zM16.093 34.924a7.7 7.7 0 0 1-1.537.16c-3.789 0-7.022-2.65-7.022-6.651 0-3.234 2.28-6.122 4.611-8.135.45-.398.875-.769 1.272-1.166.238 1.43.424 2.676.61 3.762-2.412.716-4.055 3.26-4.055 5.75 0 1.855 1.458 4.4 3.577 4.4.212 0 .451-.107.451-.345 0-.239-.265-.372-.583-.583-1.033-.636-1.616-1.325-1.616-2.623 0-1.617 1.192-2.915 2.755-3.287zm-2.332-27.24c.239-1.06 1.458-3.842 2.836-3.842.397 0 1.033 1.299 1.033 3.127 0 2.756-2.04 4.823-3.869 6.625-.159-1.06-.291-2.094-.291-3.207 0-.98.08-1.881.291-2.703m6.095 22.339c0 1.881-.768 3.815-2.65 4.584a882 882 0 0 1-1.457-8.559c2.385 0 4.107 1.616 4.107 3.975M8.196 43.06c0 1.748 1.352 4.054 4.93 4.054 1.245 0 2.331-.318 3.285-.901 1.431-1.007 1.802-2.756 1.802-4.425 0-1.034-.159-2.226-.424-3.737-.08-.53-.238-1.325-.397-2.358 2.597-.848 4.53-3.55 4.53-6.28 0-4.001-2.834-6.704-6.703-6.704-.265-1.59-.53-3.153-.769-4.637 2.81-2.942 4.744-6.254 4.744-10.467 0-2.411-.742-4.372-1.166-5.326C17.392.927 16.623 0 16.146 0c-.185 0-1.007.318-1.881 1.351-1.696 2.014-2.173 5.406-2.173 7.632 0 1.43.133 2.73.583 5.697-.026.026-1.404 1.43-1.96 1.881-2.412 2.253-5.75 5.459-5.75 10.758 0 4.956 4.318 8.851 9.247 8.851.768 0 1.484-.08 2.093-.186.504 2.545.795 4.4.795 5.804 0 2.755-1.404 4.213-4.08 4.213-.636 0-1.193-.133-1.246-.133-.026-.026-.08-.053-.08-.08 0-.052.054-.079.133-.105 1.246-.186 2.49-1.246 2.49-2.941 0-1.432-1.085-2.941-3.073-2.941-1.855 0-3.047 1.51-3.047 3.259m610.535-22.41c0 1.14.821 2.412 2.967 2.412 2.757 0 5.645-2.252 5.645-4.584 0-1.563-1.325-2.438-2.968-2.438-2.57 0-5.644 2.173-5.644 4.61m-517.15 0c0 1.14.822 2.412 2.968 2.412 2.756 0 5.644-2.252 5.644-4.584 0-1.563-1.325-2.438-2.968-2.438-2.57 0-5.644 2.173-5.644 4.61m488.232-3.309c0 1.14.822 2.412 2.968 2.412 2.756 0 5.644-2.253 5.644-4.584 0-1.564-1.325-2.438-2.968-2.438-2.57 0-5.644 2.173-5.644 4.61m-444.855 6.62c0 1.138.821 2.41 2.968 2.41 2.755 0 5.644-2.252 5.644-4.584 0-1.563-1.325-2.438-2.968-2.438-2.57 0-5.644 2.173-5.644 4.611m28.918 3.31c0 1.139.822 2.41 2.968 2.41 2.755 0 5.644-2.252 5.644-4.583 0-1.564-1.325-2.438-2.968-2.438-2.57 0-5.644 2.173-5.644 4.61m372.56-13.237c0 1.14.822 2.411 2.968 2.411 2.756 0 5.644-2.252 5.644-4.584 0-1.563-1.325-2.438-2.968-2.438-2.57 0-5.643 2.173-5.643 4.611M217.253 40.507c0 1.14.822 2.41 2.969 2.41 2.755 0 5.644-2.251 5.644-4.583 0-1.563-1.325-2.438-2.968-2.438-2.57 0-5.645 2.173-5.645 4.61m38.383-6.617c0 1.139.822 2.41 2.968 2.41 2.755 0 5.644-2.252 5.644-4.584 0-1.563-1.325-2.438-2.968-2.438-2.57 0-5.644 2.173-5.644 4.612M508.055 17.34c0 1.14.82 2.412 2.967 2.412 2.756 0 5.645-2.253 5.645-4.584 0-1.564-1.325-2.438-2.969-2.438-2.57 0-5.643 2.173-5.643 4.61M327.93 27.27c0 1.139.822 2.41 2.968 2.41 2.756 0 5.644-2.252 5.644-4.583 0-1.564-1.325-2.438-2.968-2.438-2.57 0-5.644 2.173-5.644 4.61m136.747-6.618c0 1.14.821 2.411 2.967 2.411 2.757 0 5.645-2.252 5.645-4.584 0-1.563-1.325-2.438-2.968-2.438-2.57 0-5.644 2.173-5.644 4.61M63.199 17.342c0 1.14.822 2.412 2.969 2.412 2.755 0 5.643-2.253 5.643-4.584 0-1.564-1.324-2.438-2.967-2.438-2.57 0-5.645 2.173-5.645 4.61m372.561 6.62c0 1.138.822 2.41 2.968 2.41 2.755 0 5.644-2.252 5.644-4.584 0-1.563-1.325-2.438-2.968-2.438-2.57 0-5.644 2.173-5.644 4.611m-136.747 6.62c0 1.138.822 2.41 2.968 2.41 2.755 0 5.644-2.252 5.644-4.584 0-1.563-1.325-2.438-2.968-2.438-2.57 0-5.644 2.173-5.644 4.611M435.76 44.332a.35.35 0 0 0 .345.344c.132 0 .291-.106.317-.212 0-.027.239-.954.265-1.034.027-.105.265-1.113 1.22-2.676 1.033-1.722 2.623-2.968 3.948-4.822 1.298-1.855 2.093-3.605 2.093-5.936 0-2.411-.557-4.425-1.961-6.995-.08-.186-.239-.292-.397-.292-.054 0-.107 0-.133.027-.132.053-.186.159-.186.318 0 .079.028.212.08.318 1.06 2.464 1.484 3.868 1.484 5.776 0 2.2-.769 3.339-1.245 4.16-1.723 2.941-4.505 4.373-5.618 4.743-.185.08-.212.213-.212.292zm72.295-4.965c0 .186.159.345.344.345.133 0 .292-.106.318-.212 0-.027.239-.954.265-1.033.027-.107.265-1.114 1.219-2.677 1.033-1.722 2.623-2.968 3.948-4.823 1.299-1.855 2.094-3.603 2.094-5.935 0-2.411-.557-4.425-1.96-6.996-.081-.185-.24-.291-.399-.291-.053 0-.105 0-.132.027-.133.053-.186.159-.186.317a.8.8 0 0 0 .08.318c1.06 2.465 1.484 3.87 1.484 5.777 0 2.2-.769 3.339-1.246 4.16-1.722 2.941-4.504 4.373-5.617 4.743-.186.08-.212.212-.212.292zm-201.1-27.051c0 .079.027.212.213.291 1.139.371 3.418 1.802 5.14 4.743.477.822 1.246 1.961 1.246 4.16 0 1.908-.504 3.87-1.193 5.777-.053.159-.106.292-.08.397 0 .16.107.265.265.265.186 0 .318-.105.425-.291 1.192-2.12 1.642-4.584 1.642-6.996-.132-3.418-2.093-5.935-2.093-5.935.08 0-2.438-3.26-3.153-4.372-.981-1.51-1.43-3.021-1.484-3.127a57 57 0 0 1-.265-1.034c-.027-.106-.159-.212-.318-.212a.35.35 0 0 0-.345.345zM63.2 39.367c0 .186.16.345.345.345.132 0 .292-.106.318-.212 0-.027.239-.954.265-1.033.026-.107.265-1.114 1.22-2.677 1.032-1.722 2.622-2.968 3.947-4.823 1.298-1.855 2.093-3.603 2.093-5.935 0-2.411-.556-4.425-1.96-6.996-.08-.185-.239-.291-.398-.291-.053 0-.106 0-.132.027-.133.053-.186.159-.186.317 0 .08.026.212.08.318 1.06 2.465 1.483 3.87 1.483 5.777 0 2.2-.768 3.339-1.245 4.16-1.722 2.941-4.505 4.373-5.618 4.743-.185.08-.212.212-.212.292zm161.997-17.123c0 .08.027.212.212.291 1.14.371 3.418 1.802 5.14 4.743.478.822 1.246 1.961 1.246 4.16 0 1.909-.503 3.87-1.192 5.777-.053.16-.106.291-.08.398 0 .158.106.265.265.265.185 0 .318-.107.424-.292 1.193-2.12 1.643-4.584 1.643-6.996-.133-3.418-2.093-5.935-2.093-5.935.08 0-2.439-3.26-3.153-4.372-.981-1.51-1.432-3.021-1.485-3.127a65 65 0 0 1-.265-1.033c-.026-.106-.158-.212-.317-.212a.35.35 0 0 0-.345.344zm364.618 17.123a.35.35 0 0 0 .345.345c.132 0 .291-.106.317-.212 0-.027.239-.954.265-1.033.027-.107.265-1.114 1.22-2.677 1.033-1.722 2.623-2.968 3.948-4.823 1.298-1.855 2.093-3.603 2.093-5.935 0-2.411-.557-4.425-1.96-6.996-.08-.185-.24-.291-.398-.291-.054 0-.106 0-.133.027-.132.053-.186.159-.186.317 0 .08.027.212.08.318 1.06 2.465 1.484 3.87 1.484 5.777 0 2.2-.769 3.339-1.245 4.16-1.723 2.941-4.505 4.373-5.618 4.743-.185.08-.212.212-.212.292zM144.96 44.332a.35.35 0 0 0 .344.344c.133 0 .292-.106.318-.212 0-.027.239-.954.265-1.034.027-.105.265-1.113 1.22-2.676 1.033-1.722 2.623-2.968 3.948-4.822 1.298-1.855 2.093-3.605 2.093-5.936 0-2.411-.556-4.425-1.961-6.995-.08-.186-.239-.292-.397-.292-.053 0-.107 0-.133.027-.132.053-.185.159-.185.318 0 .079.026.212.08.318 1.06 2.464 1.483 3.868 1.483 5.776 0 2.2-.768 3.339-1.245 4.16-1.723 2.941-4.505 4.373-5.618 4.743-.185.08-.212.213-.212.292zM435.76 23.959v20.373h.662V23.959zm28.918-3.31v20.4h.662v-20.4ZM335.873 4.647v20.452h.662V4.646ZM508.055 17.34v22.028h.662V17.34Zm-201.1-10.987v22.054h.662V6.353ZM63.2 17.34v22.028h.662V17.34Zm200.379-7.73v22.107h.662V9.61ZM101.582 20.65v20.399h.662v-20.4Zm517.15 0v20.399h.662v-20.4ZM225.196 16.28v22.054h.662V16.28ZM181.819 4.646v20.452h.662V4.646ZM589.814 17.34v22.028h.662V17.34zM144.96 23.96v20.372h.662V23.959zm401.478-9.929v22.054h.662V14.03ZM246.171 9.246v27.203h1.192V9.246Zm431.189 0v27.203H681V9.246Zm-3.64 0v27.203h1.191V9.246Zm-290.801 0v27.203h1.19V9.246Zm154.054 0v27.203h1.19V9.246Zm-444.856 0v27.203h1.192V9.246ZM0 35.72v.727h681v-.727zm0-6.619v.728h681v-.728zm0-6.619v.728h681v-.728zm0-6.618v.727h681v-.727Zm0-6.619v.728h681v-.728Z"/>
</svg>
