<?xml version="1.0" encoding="UTF-8" standalone="no"?>
<svg
   width="681"
   height="186.61336"
   version="1.2"
   id="svg267"
   xmlns="http://www.w3.org/2000/svg"
   xmlns:svg="http://www.w3.org/2000/svg"
   xmlns:rdf="http://www.w3.org/1999/02/22-rdf-syntax-ns#"
   xmlns:cc="http://creativecommons.org/ns#"
   xmlns:dc="http://purl.org/dc/elements/1.1/">
  <defs
     id="defs267" />
  <title
     id="title1">air_XLVIII</title>
  <desc
     id="desc1">Generated by MuseScore Studio 4.7.3</desc>
  <path
     id="path267"
     class="NoteDot"
     d="m 474.59969,6.8071344 c 0,0.7419473 0.5828,1.3249059 1.32491,1.3249059 0.7413,0 1.3249,-0.5829586 1.3249,-1.3249059 0,-0.7419473 -0.5836,-1.3249059 -1.3249,-1.3249059 -0.74211,0 -1.32491,0.5829586 -1.32491,1.3249059 M 182.33345,145.79985 c 0,0.74211 0.5828,1.32491 1.32491,1.32491 0.74211,0 1.32491,-0.5828 1.32491,-1.32491 0,-0.74211 -0.5828,-1.32491 -1.32491,-1.32491 -0.74211,0 -1.32491,0.5828 -1.32491,1.32491 M 317.8285,82.922458 c 0,0.741307 0.5828,1.324906 1.3249,1.324906 0.74211,0 1.32491,-0.583599 1.32491,-1.324906 0,-0.742107 -0.5828,-1.324906 -1.32491,-1.324906 -0.7421,0 -1.3249,0.582799 -1.3249,1.324906 m 304.58426,69.496322 c 0,0.7413 0.5828,1.3249 1.3249,1.3249 0.74211,0 1.32491,-0.5836 1.32491,-1.3249 0,-0.74211 -0.5828,-1.32491 -1.32491,-1.32491 -0.7421,0 -1.3249,0.5828 -1.3249,1.32491 m -241.32261,23.16544 h 34.77578 v 3.30946 h -34.77578 v -3.30946 m 18.79205,-82.746983 13.27788,-1.654731 v 3.33508 l -13.27788,1.654732 v -3.335081 m 0,4.964194 13.27788,-1.654731 v 3.33508 l -13.27788,1.65473 v -3.335079 m -160.20394,4.970599 38.50873,3.30946 v 3.32147 l -38.50873,-3.30946 v -3.32147 M 110.07525,10.110273 148.30619,6.8008901 v 3.3217909 l -38.23094,3.309303 V 10.110273 M 563.50288,106.0879 h 38.50953 v 3.30866 h -38.50953 v -3.30866 m -380.59623,-9.929992 38.50953,1.654731 v 3.312661 l -38.50953,-1.654727 v -3.312665 m 465.75285,-3.320671 13.27788,-1.654731 v 3.33508 l -13.27788,1.654732 v -3.335081 m 0,4.964194 13.27788,-1.654731 v 3.33508 l -13.27788,1.65473 v -3.335079 m -506.36622,-4.964194 13.27707,-1.654731 v 3.33508 l -13.27707,1.654732 v -3.335081 m 0,4.964194 13.27707,-1.654731 v 3.33508 l -13.27707,1.65473 v -3.335079 m 406.09286,74.465319 34.77578,3.30946 v 3.32467 l -34.77578,-3.30946 v -3.32467 m -491.249486,0.006 34.775775,1.65473 v 3.31347 l -34.775775,-1.65473 v -3.31347 M 65.078885,72.992468 103.58841,74.6472 v 3.312665 L 65.078885,76.305133 v -3.312665 m 375.417485,29.784362 38.50873,1.65473 v 3.31187 l -38.50873,-1.65393 v -3.31267 m 126.60497,-61.223458 38.23094,1.654731 v 3.312665 l -38.23094,-1.654731 v -3.312665 m -458.7945,130.718978 34.77578,1.65473 v 3.31347 l -34.77578,-1.65473 v -3.31347 m 50.17911,-129.068249 38.23094,-3.309463 v 3.321471 l -38.23094,3.309463 v -3.321471 m 464.96912,0 38.23094,-3.309463 v 3.321471 l -38.23094,3.309463 v -3.321471 m -126.23992,122.450129 34.77578,1.65473 v 3.31266 l -34.77578,-1.65473 v -3.31266 m -268.77737,-3.32308 12.03303,-1.65473 v 3.34069 l -12.03303,1.65473 v -3.34069 m 0,4.9642 12.03303,-1.65473 v 3.33988 l -12.03303,1.65473 v -3.33988 M 526.58003,23.340919 539.76505,21.686188 v 3.33508 L 526.58003,26.676 v -3.335081 m 0,4.964195 13.18502,-1.654732 v 3.33508 l -13.18502,1.654732 v -3.33508 M 267.8071,172.27235 l 34.77577,1.65473 v 3.31347 l -34.77577,-1.65473 v -3.31347 M 232.24678,3.4977516 h 38.23094 V 6.8071344 H 232.24678 V 3.4977516 m 86.7313,163.8128084 h 34.77578 v 3.30946 h -34.77578 v -3.30946 M 404.80877,3.4977516 h 38.23094 V 6.8071344 H 404.80877 V 3.4977516 m 53.03706,158.8333984 12.03303,-1.65473 v 3.34069 l -12.03303,1.65473 v -3.34069 m 0,4.9642 12.03303,-1.65473 v 3.33988 l -12.03303,1.65473 v -3.33988 m 39.42136,-69.48111 h 38.50953 v 3.30946 H 497.26719 V 97.81424 M 348.45504,10.110273 386.68598,6.8008901 v 3.3217909 l -38.23094,3.309303 V 10.110273 M 53.91285,28.701384 c -1.802032,-0.582798 -3.788991,-1.456996 -3.788991,-2.649811 0,-1.033507 0.953452,-1.456997 2.092631,-1.456997 1.643524,0 2.756285,0.768526 2.756285,1.986959 0,1.27207 -0.582799,1.881286 -1.059925,2.119849 m -1.69636,6.280295 c -1.695559,0 -3.152555,-0.927835 -3.152555,-2.411249 0,-1.775614 1.377742,-2.199904 1.377742,-2.199904 1.802032,0.610017 4.371789,1.510633 4.371789,2.968429 0,0.714889 -0.927034,1.642724 -2.596976,1.642724 m 3.179774,-5.564605 c 0.874999,-0.662853 1.484215,-1.510633 1.484215,-2.570558 0,-1.907704 -2.093431,-3.471173 -4.663989,-3.471173 -2.569757,0 -4.663188,1.563469 -4.663188,3.471173 0,1.059925 0.264981,2.014177 1.510633,2.809121 -1.192816,0.688471 -1.854869,1.669141 -1.854869,2.941211 0,2.146268 2.25194,3.868245 5.007424,3.868245 2.756285,0 5.008224,-1.721977 5.008224,-3.868245 0,-1.27207 -0.449907,-2.464085 -1.82845,-3.179774 m -2.942011,-7.184513 c -0.874198,0 -1.589887,-1.192415 -1.589887,-2.676309 0,-1.483895 0.715689,-2.702809 1.589887,-2.702809 0.874998,0 1.617105,1.218914 1.617105,2.702809 0,1.483894 -0.742107,2.676309 -1.617105,2.676309 m 0.98067,-6.624529 c -1.616305,0 -2.199103,0.476966 -2.570557,0.874438 -0.07925,-0.556461 -0.132091,-0.980431 -0.132091,-1.4044 0,-1.510393 0.529963,-3.471254 2.384831,-3.471254 0.662053,0 1.059925,0.211985 1.324906,0.503464 -0.556381,0.238483 -1.007089,0.953933 -1.007089,1.563389 0,0.953933 0.742108,1.69588 1.69636,1.69588 0.953452,0 1.721977,-0.741947 1.721977,-1.69588 v -0.07949 c 0,-0.238483 -0.05284,-0.635955 -0.159308,-0.84794 -0.344236,-0.953932 -1.456997,-2.358332 -4.106808,-2.358332 -2.384831,0 -4.107609,2.278838 -4.637571,3.497751 -0.264982,0.635955 -0.662053,1.934363 -0.662053,3.418258 0,1.616385 0.450708,3.444755 2.014177,4.822657 1.536251,1.165917 2.516921,1.219154 3.444755,1.219154 0.927034,0 4.398208,-1.086663 4.398208,-4.160445 0,-2.596816 -2.040596,-3.577246 -3.709737,-3.577246 m -17.240588,2.475613 2.358413,-0.476966 v 4.372189 l -2.358413,0.503464 v -4.398687 m 4.107609,-0.821442 c 0.159308,-0.0265 0.291399,-0.211985 0.291399,-0.370974 V 15.32784 c 0,-0.211985 -0.159309,-0.370973 -0.370654,-0.370973 h -0.05364 l -0.874198,0.185487 v -3.94822 h -0.742107 v 4.107208 l -2.358413,0.476966 v -3.736234 h -0.741307 v 3.895223 l -1.033507,0.211985 c -0.159308,0.0265 -0.291399,0.211985 -0.291399,0.370974 v 1.536891 c 0,0.211984 0.158509,0.370973 0.370654,0.370973 h 0.07925 l 0.874998,-0.185487 v 4.37219 l -1.033507,0.211985 c -0.159308,0.0265 -0.291399,0.211985 -0.291399,0.370973 v 1.536891 c 0,0.212145 0.158509,0.370654 0.370654,0.370654 h 0.07925 l 0.874998,-0.184927 v 3.9483 h 0.741307 V 24.76109 l 2.358413,-0.477126 v 3.736155 h 0.742107 v -3.894663 l 1.007089,-0.185727 c 0.159308,-0.02642 0.291399,-0.212145 0.291399,-0.370654 v -1.563709 c 0,-0.211985 -0.159309,-0.370974 -0.370654,-0.370974 h -0.05364 l -0.874198,0.185487 V 17.44769 l 1.007089,-0.185487 M 28.940575,8.1555764 31.298988,7.6786102 V 12.0508 l -2.358413,0.503464 V 8.1555764 M 33.048184,7.3341347 C 33.207493,7.3076366 33.339583,7.1221498 33.339583,6.963161 V 5.3997721 c 0,-0.211985 -0.159309,-0.3709737 -0.370653,-0.3709737 H 32.91529 L 32.041095,5.2142853 V 1.2660657 H 31.298988 V 5.373274 L 28.940575,5.8502401 V 2.1140054 h -0.741307 v 3.8952234 l -1.033506,0.2119849 c -0.159309,0.026498 -0.2914,0.211985 -0.2914,0.3709737 v 1.5368908 c 0,0.211985 0.158509,0.3709737 0.370654,0.3709737 h 0.07925 l 0.874998,-0.1854868 v 4.3721899 l -1.033506,0.211984 c -0.159309,0.0265 -0.2914,0.211985 -0.2914,0.370974 v 1.536891 c 0,0.211985 0.158509,0.370974 0.370654,0.370974 h 0.07925 l 0.874998,-0.185487 v 3.948219 h 0.741307 v -4.107208 l 2.358413,-0.476966 v 3.736235 h 0.742107 v -3.895224 l 1.007089,-0.185487 c 0.159309,-0.0265 0.291399,-0.211985 0.291399,-0.370973 v -1.563389 c 0,-0.211985 -0.159309,-0.370974 -0.370653,-0.370974 h -0.05364 l -0.874198,0.185487 V 7.5196215 l 1.007089,-0.1854868 m 3.146151,149.7422253 2.358413,-0.47713 v 4.37259 l -2.358413,0.50355 v -4.39901 m 4.107609,-0.82136 c 0.159308,-0.0264 0.291399,-0.21215 0.291399,-0.37146 v -1.56266 c 0,-0.21215 -0.159309,-0.37146 -0.370654,-0.37146 h -0.05364 l -0.874198,0.18573 v -3.9483 h -0.742107 v 4.10681 l -2.358413,0.47712 v -3.73615 h -0.741307 v 3.89546 l -1.033507,0.21215 c -0.159308,0.0264 -0.291399,0.21134 -0.291399,0.37065 v 1.53705 c 0,0.21215 0.158509,0.37066 0.370654,0.37066 h 0.07925 l 0.874998,-0.18493 v 4.37179 l -1.033507,0.21214 c -0.159308,0.0264 -0.291399,0.21215 -0.291399,0.37066 v 1.53705 c 0,0.21214 0.158509,0.37065 0.370654,0.37065 h 0.07925 l 0.874998,-0.18492 v 3.94829 h 0.741307 v -4.1076 l 2.358413,-0.47713 v 3.73615 h 0.742107 v -3.89466 l 1.007089,-0.18573 c 0.159308,-0.0264 0.291399,-0.21214 0.291399,-0.37065 v -1.56347 c 0,-0.21214 -0.159309,-0.37145 -0.370654,-0.37145 h -0.05364 l -0.874198,0.18573 v -4.37179 l 1.007089,-0.18573 m -11.361369,-9.10703 2.358413,-0.47632 v 4.37179 l -2.358413,0.50354 v -4.39901 m 4.107609,-0.82136 c 0.159309,-0.0264 0.291399,-0.21214 0.291399,-0.37065 v -1.56347 c 0,-0.21215 -0.159309,-0.37066 -0.370653,-0.37066 h -0.05364 l -0.874198,0.18493 v -3.9483 h -0.742107 v 4.10761 l -2.358413,0.47713 v -3.73616 h -0.741307 v 3.89466 l -1.033506,0.21215 c -0.159309,0.0264 -0.2914,0.21214 -0.2914,0.37065 v 1.53705 c 0,0.21215 0.158509,0.37146 0.370654,0.37146 h 0.07925 l 0.874998,-0.18573 v 4.37179 l -1.033506,0.21215 c -0.159309,0.0264 -0.2914,0.21214 -0.2914,0.37145 v 1.53625 c 0,0.21214 0.158509,0.37145 0.370654,0.37145 h 0.07925 l 0.874998,-0.18572 v 3.9483 h 0.741307 v -4.10681 l 2.358413,-0.47713 v 3.73616 h 0.742107 v -3.89547 l 1.007089,-0.18572 c 0.159309,-0.0264 0.291399,-0.21135 0.291399,-0.37066 v -1.56347 c 0,-0.21214 -0.159309,-0.37065 -0.370653,-0.37065 h -0.05364 l -0.874198,0.18493 v -4.37179 l 1.007089,-0.18573 m 3.146151,-58.746567 2.358413,-0.477127 v 4.37259 l -2.358413,0.503544 v -4.399007 m 4.107609,-0.821362 c 0.159308,-0.02642 0.291399,-0.212145 0.291399,-0.371454 v -1.562668 c 0,-0.212145 -0.159309,-0.371454 -0.370654,-0.371454 h -0.05364 l -0.874198,0.185727 v -3.9483 h -0.742107 v 4.106808 l -2.358413,0.477126 v -3.736154 h -0.741307 v 3.895463 l -1.033507,0.212145 c -0.159308,0.02642 -0.291399,0.211345 -0.291399,0.370654 v 1.537051 c 0,0.212145 0.158509,0.370653 0.370654,0.370653 h 0.07925 l 0.874998,-0.184926 v 4.371789 l -1.033507,0.212145 c -0.159308,0.02642 -0.291399,0.212145 -0.291399,0.370653 v 1.537051 c 0,0.212145 0.158509,0.370654 0.370654,0.370654 h 0.07925 l 0.874998,-0.184927 v 3.9483 h 0.741307 v -4.107609 l 2.358413,-0.477126 v 3.736155 h 0.742107 v -3.894663 l 1.007089,-0.185727 c 0.159308,-0.02642 0.291399,-0.212145 0.291399,-0.370654 v -1.563469 c 0,-0.212145 -0.159309,-0.371454 -0.370654,-0.371454 h -0.05364 l -0.874198,0.185727 v -4.371789 l 1.007089,-0.185727 m -11.361369,-9.107027 2.358413,-0.476326 v 4.37179 l -2.358413,0.503544 v -4.399008 m 4.107609,-0.821361 c 0.159309,-0.02642 0.291399,-0.212146 0.291399,-0.370654 V 74.89617 c 0,-0.212145 -0.159309,-0.370653 -0.370653,-0.370653 h -0.05364 l -0.874198,0.184926 v -3.9483 h -0.742107 v 4.107609 l -2.358413,0.477126 v -3.736154 h -0.741307 v 3.894663 l -1.033506,0.212145 c -0.159309,0.02642 -0.2914,0.212145 -0.2914,0.370653 v 1.537051 c 0,0.212145 0.158509,0.371454 0.370654,0.371454 h 0.07925 l 0.874998,-0.185727 v 4.371789 l -1.033506,0.212145 c -0.159309,0.02642 -0.2914,0.212145 -0.2914,0.371454 v 1.536251 c 0,0.212145 0.158509,0.371454 0.370654,0.371454 h 0.07925 L 28.1992,84.488329 v 3.948299 h 0.741307 V 84.32982 l 2.358413,-0.477126 v 3.736155 h 0.742107 v -3.895464 l 1.007089,-0.185727 c 0.159309,-0.02642 0.291399,-0.211344 0.291399,-0.370653 v -1.563469 c 0,-0.212145 -0.159309,-0.370654 -0.370653,-0.370654 h -0.05364 l -0.874198,0.184927 V 77.01602 l 1.007089,-0.185727 M 16.093311,35.430786 c -0.529962,0.106473 -1.033427,0.159309 -1.536891,0.159309 -3.789231,0 -7.0220012,-2.649812 -7.0220012,-6.650948 0,-3.23261 2.2788382,-6.121065 4.6106722,-8.134922 0.450468,-0.397472 0.874438,-0.768446 1.27191,-1.165917 0.238483,1.430898 0.42397,2.67631 0.609457,3.762652 -2.411329,0.71569 -4.0542123,3.259029 -4.0542123,5.750332 0,1.854868 1.4573963,4.398207 3.5772463,4.398207 0.211985,0 0.450468,-0.105672 0.450468,-0.344235 0,-0.238563 -0.264982,-0.370653 -0.582959,-0.582798 -1.033427,-0.636436 -1.616385,-1.324906 -1.616385,-2.623394 0,-1.616305 1.192415,-2.914793 2.755804,-3.285447 l 1.536891,8.717161 M 13.761477,8.1911207 c 0.238483,-1.0599248 1.457396,-3.8422272 2.835298,-3.8422272 0.397472,0 1.033427,1.2984078 1.033427,3.126778 0,2.7558045 -2.040355,4.8226575 -3.868725,6.6245295 -0.158989,-1.059925 -0.29148,-2.093351 -0.29148,-3.206272 0,-0.9804307 0.0795,-1.8813667 0.29148,-2.7028083 m 6.094567,22.3379133 c 0,1.881286 -0.768446,3.815409 -2.649812,4.583934 -0.556461,-3.179774 -1.27191,-7.393055 -1.457397,-8.558652 2.384831,0 4.107209,1.616306 4.107209,3.974718 M 8.1968718,43.565948 c 0,1.749196 1.351404,4.053972 4.9286502,4.053972 1.245411,0 2.331834,-0.317817 3.285766,-0.900616 1.430899,-1.007088 1.801872,-2.755484 1.801872,-4.425426 0,-1.033506 -0.158988,-2.225521 -0.423969,-3.736154 -0.07949,-0.529963 -0.238484,-1.324906 -0.397472,-2.358413 2.596815,-0.847779 4.531178,-3.550427 4.531178,-6.279493 0,-4.001136 -2.835299,-6.704264 -6.704024,-6.704264 -0.264981,-1.589888 -0.529962,-3.153276 -0.768445,-4.637171 2.8088,-2.941291 4.743163,-6.253556 4.743163,-10.4667567 0,-2.4113287 -0.741948,-4.3721895 -1.165917,-5.3261217 -0.635955,-1.351404 -1.404401,-2.27883817 -1.881367,-2.27883817 -0.185487,0 -1.006928,0.31797742 -1.881366,1.35140407 -1.69588,2.0138569 -2.172846,5.405616 -2.172846,7.6314579 0,1.4308986 0.132491,2.7293066 0.582959,5.6970956 -0.0265,0.0265 -1.404401,1.430898 -1.960861,1.881366 -2.4113287,2.25234 -5.7500916,5.458613 -5.7500916,10.758396 0,4.954588 4.3191932,8.850051 9.2478436,8.850051 0.768445,0 1.483894,-0.07925 2.093351,-0.185727 0.503464,2.54414 0.794943,4.399008 0.794943,5.803168 0,2.756285 -1.4044,4.213281 -4.08071,4.213281 -0.635955,0 -1.192415,-0.13209 -1.245411,-0.13209 -0.0265,-0.02642 -0.07949,-0.05284 -0.07949,-0.08006 0,-0.05284 0.053,-0.07925 0.132491,-0.105672 1.245412,-0.185727 2.490823,-1.245652 2.490823,-2.941211 0,-1.430578 -1.086423,-2.941211 -3.073782,-2.941211 -1.8548679,0 -3.0472832,1.510633 -3.0472832,3.259028 M 16.093311,174.42422 c -0.529962,0.10567 -1.033427,0.15851 -1.536891,0.15851 -3.789231,0 -7.0220012,-2.64981 -7.0220012,-6.65095 0,-3.23261 2.2788382,-6.12098 4.6106722,-8.13516 0.450468,-0.39707 0.874438,-0.76852 1.27191,-1.1656 0.238483,1.43058 0.42397,2.67623 0.609457,3.76258 -2.411329,0.71569 -4.0542123,3.25902 -4.0542123,5.75033 0,1.85487 1.4573963,4.39821 3.5772463,4.39821 0.211985,0 0.450468,-0.10568 0.450468,-0.34424 0,-0.23856 -0.264982,-0.37065 -0.582959,-0.5828 -1.033427,-0.63563 -1.616385,-1.3249 -1.616385,-2.62339 0,-1.61631 1.192415,-2.9148 2.755804,-3.28545 l 1.536891,8.71796 M 13.761477,147.184 c 0.238483,-1.05993 1.457396,-3.84263 2.835298,-3.84263 0.397472,0 1.033427,1.29849 1.033427,3.12694 0,2.75548 -2.040355,4.82249 -3.868725,6.62453 -0.158989,-1.05993 -0.29148,-2.09343 -0.29148,-3.2062 0,-0.98067 0.0795,-1.88128 0.29148,-2.70264 m 6.094567,22.33767 c 0,1.88129 -0.768446,3.81541 -2.649812,4.58393 -0.556461,-3.17977 -1.27191,-7.39305 -1.457397,-8.55865 2.384831,0 4.107209,1.61631 4.107209,3.97472 M 8.1968718,182.55858 c 0,1.7492 1.351404,4.05478 4.9286502,4.05478 1.245411,0 2.331834,-0.31862 3.285766,-0.90142 1.430899,-1.00709 1.801872,-2.75548 1.801872,-4.42543 0,-1.0327 -0.158988,-2.22552 -0.423969,-3.73615 -0.07949,-0.52996 -0.238484,-1.32491 -0.397472,-2.35841 2.596815,-0.84778 4.531178,-3.55043 4.531178,-6.2795 0,-4.00113 -2.835299,-6.70458 -6.704024,-6.70458 -0.264981,-1.58989 -0.529962,-3.15256 -0.768445,-4.63677 2.8088,-2.94121 4.743163,-6.25388 4.743163,-10.46716 0,-2.41125 -0.741948,-4.37179 -1.165917,-5.32604 -0.635955,-1.35132 -1.404401,-2.27836 -1.881367,-2.27836 -0.185487,0 -1.006928,0.31782 -1.881366,1.35133 -1.69588,2.01337 -2.172846,5.40529 -2.172846,7.63161 0,1.43058 0.132491,2.72907 0.582959,5.6967 -0.0265,0.0264 -1.404401,1.43138 -1.960861,1.88129 -2.4113287,2.25274 -5.7500916,5.45893 -5.7500916,10.75855 0,4.95539 4.3191932,8.85005 9.2478436,8.85005 0.768445,0 1.483894,-0.0793 2.093351,-0.18492 0.503464,2.54334 0.794943,4.3982 0.794943,5.80236 0,2.75629 -1.4044,4.21329 -4.08071,4.21329 -0.635955,0 -1.192415,-0.1321 -1.245411,-0.1321 -0.0265,-0.0264 -0.07949,-0.0528 -0.07949,-0.0793 0,-0.0536 0.053,-0.08 0.132491,-0.10647 1.245412,-0.18573 2.490823,-1.24565 2.490823,-2.94121 0,-1.43058 -1.086423,-2.94121 -3.073782,-2.94121 -1.8548679,0 -3.0472832,1.51063 -3.0472832,3.25902 M 16.093311,104.9279 c -0.529962,0.10568 -1.033427,0.15851 -1.536891,0.15851 -3.789231,0 -7.0220012,-2.64981 -7.0220012,-6.650945 0,-3.23261 2.2788382,-6.120985 4.6106722,-8.135162 0.450468,-0.397072 0.874438,-0.768526 1.27191,-1.165597 0.238483,1.430578 0.42397,2.676229 0.609457,3.762572 -2.411329,0.71569 -4.0542123,3.259029 -4.0542123,5.750332 0,1.85487 1.4573963,4.39821 3.5772463,4.39821 0.211985,0 0.450468,-0.10567 0.450468,-0.34424 0,-0.23856 -0.264982,-0.37065 -0.582959,-0.5828 -1.033427,-0.63563 -1.616385,-1.3249 -1.616385,-2.62339 0,-1.616305 1.192415,-2.914793 2.755804,-3.285447 l 1.536891,8.717957 M 13.761477,77.687679 c 0.238483,-1.059925 1.457396,-3.842628 2.835298,-3.842628 0.397472,0 1.033427,1.298488 1.033427,3.126938 0,2.755484 -2.040355,4.822498 -3.868725,6.62453 -0.158989,-1.059925 -0.29148,-2.093431 -0.29148,-3.206192 0,-0.980671 0.0795,-1.881287 0.29148,-2.702648 m 6.094567,22.337671 c 0,1.88129 -0.768446,3.81541 -2.649812,4.58394 -0.556461,-3.17978 -1.27191,-7.393059 -1.457397,-8.558656 2.384831,0 4.107209,1.616306 4.107209,3.974716 M 8.1968718,113.06227 c 0,1.74919 1.351404,4.05477 4.9286502,4.05477 1.245411,0 2.331834,-0.31862 3.285766,-0.90142 1.430899,-1.00709 1.801872,-2.75548 1.801872,-4.42542 0,-1.03271 -0.158988,-2.22553 -0.423969,-3.73616 -0.07949,-0.52996 -0.238484,-1.3249 -0.397472,-2.35841 2.596815,-0.84778 4.531178,-3.55043 4.531178,-6.279494 0,-4.001136 -2.835299,-6.704585 -6.704024,-6.704585 -0.264981,-1.589887 -0.529962,-3.152555 -0.768445,-4.63677 2.8088,-2.941211 4.743163,-6.253876 4.743163,-10.467157 0,-2.411249 -0.741948,-4.371789 -1.165917,-5.326042 -0.635955,-1.351324 -1.404401,-2.278357 -1.881367,-2.278357 -0.185487,0 -1.006928,0.317817 -1.881366,1.351323 -1.69588,2.013377 -2.172846,5.405296 -2.172846,7.631619 0,1.430578 0.132491,2.729066 0.582959,5.696695 -0.0265,0.02642 -1.404401,1.431378 -1.960861,1.881286 -2.4113287,2.25274 -5.7500916,5.458933 -5.7500916,10.758556 0,4.955386 4.3191932,8.850056 9.2478436,8.850056 0.768445,0 1.483894,-0.0793 2.093351,-0.18493 0.503464,2.54334 0.794943,4.39821 0.794943,5.80237 0,2.75628 -1.4044,4.21328 -4.08071,4.21328 -0.635955,0 -1.192415,-0.13209 -1.245411,-0.13209 -0.0265,-0.0264 -0.07949,-0.0528 -0.07949,-0.0793 0,-0.0536 0.053,-0.08 0.132491,-0.10647 1.245412,-0.18573 2.490823,-1.24565 2.490823,-2.94121 0,-1.43058 -1.086423,-2.94121 -3.073782,-2.94121 -1.8548679,0 -3.0472832,1.51063 -3.0472832,3.25903 M 432.26034,146.91261 c 0,1.13918 0.82136,2.41125 2.96763,2.41125 2.75628,0 5.64466,-2.25194 5.64466,-4.58393 0,-1.56347 -1.32491,-2.43767 -2.96763,-2.43767 -2.57056,0 -5.64466,2.17268 -5.64466,4.61035 M 359.29765,31.085415 c 0,1.139178 0.82136,2.411248 2.96763,2.411248 2.75549,0 5.64386,-2.25194 5.64386,-4.583934 0,-1.563469 -1.3249,-2.437667 -2.96763,-2.437667 -2.57056,0 -5.64386,2.172686 -5.64386,4.610353 m 18.78405,-3.309463 c 0,1.139979 0.82136,2.411248 2.96763,2.411248 2.75628,0 5.64466,-2.251939 5.64466,-4.583934 0,-1.563469 -1.32491,-2.437827 -2.96763,-2.437827 -2.57056,0 -5.64466,2.172846 -5.64466,4.610513 m 18.78484,0 c 0,1.139979 0.82136,2.411248 2.96763,2.411248 2.75548,0 5.64386,-2.251939 5.64386,-4.583934 0,-1.563469 -1.32491,-2.437827 -2.96763,-2.437827 -2.57056,0 -5.64386,2.172846 -5.64386,4.610513 M 353.09181,150.22207 c 0,1.13918 0.82136,2.41125 2.96763,2.41125 2.75628,0 5.64386,-2.25194 5.64386,-4.58393 0,-1.56347 -1.32491,-2.43767 -2.96763,-2.43767 -2.56976,0 -5.64386,2.17269 -5.64386,4.61035 M 261.87344,24.466489 c 0,1.139979 0.82136,2.411249 2.96763,2.411249 2.75628,0 5.64466,-2.25194 5.64466,-4.583775 0,-1.563389 -1.32491,-2.437826 -2.96843,-2.437826 -2.56976,0 -5.64386,2.172845 -5.64386,4.610352 m 74.16111,119.136661 c 0,1.13998 0.82216,2.41125 2.96843,2.41125 2.75548,0 5.64386,-2.25194 5.64386,-4.58394 0,-1.56347 -1.32491,-2.43766 -2.96763,-2.43766 -2.57056,0 -5.64466,2.17268 -5.64466,4.61035 M 415.65058,24.466489 c 0,1.139979 0.82217,2.411249 2.96843,2.411249 2.75549,0 5.64386,-2.25194 5.64386,-4.583775 0,-1.563389 -1.3249,-2.437826 -2.96763,-2.437826 -2.57055,0 -5.64466,2.172845 -5.64466,4.610352 m 18.78485,3.309463 c 0,1.139979 0.82136,2.411248 2.96763,2.411248 2.75628,0 5.64466,-2.251939 5.64466,-4.583934 0,-1.563469 -1.32491,-2.437827 -2.96843,-2.437827 -2.56976,0 -5.64386,2.172846 -5.64386,4.610513 m 34.78138,119.136658 c 0,1.13918 0.82216,2.41125 2.96843,2.41125 2.75548,0 5.64386,-2.25194 5.64386,-4.58393 0,-1.56347 -1.32491,-2.43767 -2.96763,-2.43767 -2.57056,0 -5.64466,2.17268 -5.64466,4.61035 m -150.23873,3.30946 c 0,1.13918 0.82137,2.41125 2.96763,2.41125 2.75629,0 5.64386,-2.25194 5.64386,-4.58393 0,-1.56347 -1.3249,-2.43767 -2.96763,-2.43767 -2.56975,0 -5.64386,2.17269 -5.64386,4.61035 M 462.68434,11.229358 c 0,1.139419 0.82217,2.411329 2.96843,2.411329 2.75549,0 5.64386,-2.25234 5.64386,-4.5841746 0,-1.563389 -1.3249,-2.4378269 -2.96763,-2.4378269 -2.57055,0 -5.64466,2.1728457 -5.64466,4.6106725 M 301.92082,156.841 c 0,1.13918 0.82216,2.41125 2.96843,2.41125 2.75549,0 5.64386,-2.25274 5.64386,-4.58394 0,-1.56346 -1.32491,-2.43846 -2.96763,-2.43846 -2.57056,0 -5.64466,2.17348 -5.64466,4.61115 M 243.0886,27.775952 c 0,1.139979 0.82216,2.411248 2.96842,2.411248 2.75549,0 5.64386,-2.251939 5.64386,-4.583934 0,-1.563469 -1.3249,-2.437827 -2.96763,-2.437827 -2.57055,0 -5.64465,2.172846 -5.64465,4.610513 m 41.77576,122.446118 c 0,1.13918 0.82136,2.41125 2.96763,2.41125 2.75628,0 5.64386,-2.25194 5.64386,-4.58393 0,-1.56347 -1.32491,-2.43767 -2.96763,-2.43767 -2.56976,0 -5.64386,2.17269 -5.64386,4.61035 M 498.40397,7.9200553 c 0,1.1394191 0.82136,2.4113287 2.96763,2.4113287 2.75548,0 5.64385,-2.25234 5.64385,-4.5841744 0,-1.5633889 -1.3249,-2.4378268 -2.96762,-2.4378268 -2.57056,0 -5.64386,2.1728457 -5.64386,4.6106725 M 224.30455,24.466489 c 0,1.139979 0.82136,2.411249 2.96763,2.411249 2.75548,0 5.64386,-2.25194 5.64386,-4.583775 0,-1.563389 -1.32491,-2.437826 -2.96763,-2.437826 -2.57056,0 -5.64386,2.172845 -5.64386,4.610352 M 267.8071,143.60315 c 0,1.13998 0.82216,2.41125 2.96843,2.41125 2.75548,0 5.64386,-2.25194 5.64386,-4.58394 0,-1.56347 -1.32491,-2.43766 -2.96763,-2.43766 -2.57056,0 -5.64466,2.17268 -5.64466,4.61035 M 526.58003,11.229358 c 0,1.139419 0.82216,2.411329 2.96843,2.411329 2.75549,0 5.64386,-2.25234 5.64386,-4.5841746 0,-1.563389 -1.32491,-2.4378269 -2.96763,-2.4378269 -2.57056,0 -5.64466,2.1728457 -5.64466,4.6106725 m -330.52519,9.928068 c 0,1.139419 0.82216,2.411649 2.96843,2.411649 2.75548,0 5.64385,-2.25266 5.64385,-4.584494 0,-1.563389 -1.3249,-2.437827 -2.96762,-2.437827 -2.57056,0 -5.64466,2.172845 -5.64466,4.610672 M 539.10379,7.9200553 c 0,1.1394191 0.82137,2.4113287 2.96763,2.4113287 2.75549,0 5.64386,-2.25234 5.64386,-4.5841744 0,-1.5633889 -1.3249,-2.4378268 -2.96763,-2.4378268 -2.57055,0 -5.64386,2.1728457 -5.64386,4.6106725 m 27.99755,-3.3093828 c 0,1.1394191 0.82136,2.4113288 2.96843,2.4113288 2.75548,0 5.64386,-2.2523401 5.64386,-4.5841744 C 575.71363,0.87443789 574.38872,0 572.746,0 c -2.57056,0 -5.64466,2.1728457 -5.64466,4.6106725 M 239.80955,146.91261 c 0,1.13918 0.82136,2.41125 2.96763,2.41125 2.75549,0 5.64386,-2.25194 5.64386,-4.58393 0,-1.56347 -1.3249,-2.43767 -2.96763,-2.43767 -2.57056,0 -5.64386,2.17268 -5.64386,4.61035 M 412.49803,77.416293 c 0,1.139179 0.82136,2.411249 2.96763,2.411249 2.75628,0 5.64386,-2.25194 5.64386,-4.583934 0,-1.563469 -1.32491,-2.437667 -2.96763,-2.437667 -2.56976,0 -5.64386,2.172685 -5.64386,4.610352 m 84.71712,66.186857 c 0,1.13998 0.82137,2.41125 2.96763,2.41125 2.75629,0 5.64466,-2.25194 5.64466,-4.58394 0,-1.56347 -1.3249,-2.43766 -2.96843,-2.43766 -2.56975,0 -5.64386,2.17268 -5.64386,4.61035 m -268.77737,6.61892 c 0,1.13918 0.82136,2.41125 2.96843,2.41125 2.75548,0 5.64386,-2.25194 5.64386,-4.58393 0,-1.56347 -1.32491,-2.43767 -2.96763,-2.43767 -2.57056,0 -5.64466,2.17269 -5.64466,4.61035 M 585.88618,27.775952 c 0,1.139979 0.82136,2.411248 2.96763,2.411248 2.75629,0 5.64386,-2.251939 5.64386,-4.583934 0,-1.563469 -1.32491,-2.437827 -2.96763,-2.437827 -2.56976,0 -5.64386,2.172846 -5.64386,4.610513 M 202.85308,146.91261 c 0,1.13918 0.82137,2.41125 2.96763,2.41125 2.75549,0 5.64386,-2.25194 5.64386,-4.58393 0,-1.56347 -1.3249,-2.43767 -2.96763,-2.43767 -2.57055,0 -5.64386,2.17268 -5.64386,4.61035 M 604.67103,27.775952 c 0,1.139979 0.82136,2.411248 2.96763,2.411248 2.75548,0 5.64385,-2.251939 5.64385,-4.583934 0,-1.563469 -1.3249,-2.437827 -2.96762,-2.437827 -2.57056,0 -5.64386,2.172846 -5.64386,4.610513 M 177.27079,24.466489 c 0,1.139979 0.82136,2.411249 2.96763,2.411249 2.75549,0 5.64386,-2.25194 5.64386,-4.583775 0,-1.563389 -1.32491,-2.437826 -2.96763,-2.437826 -2.57056,0 -5.64386,2.172845 -5.64386,4.610352 m -6.85188,125.755581 c 0,1.13918 0.82136,2.41125 2.96763,2.41125 2.75628,0 5.64466,-2.25194 5.64466,-4.58393 0,-1.56347 -1.32491,-2.43767 -2.96843,-2.43767 -2.56976,0 -5.64386,2.17269 -5.64386,4.61035 M 623.45507,27.775952 c 0,1.139979 0.82136,2.411248 2.96763,2.411248 2.75628,0 5.64466,-2.251939 5.64466,-4.583934 0,-1.563469 -1.32491,-2.437827 -2.96843,-2.437827 -2.56976,0 -5.64386,2.172846 -5.64386,4.610513 M 514.27242,146.91261 c 0,1.13918 0.82136,2.41125 2.96763,2.41125 2.75548,0 5.64385,-2.25194 5.64385,-4.58393 0,-1.56347 -1.3249,-2.43767 -2.96762,-2.43767 -2.57056,0 -5.64386,2.17268 -5.64386,4.61035 M 642.23991,24.466489 c 0,1.139979 0.82137,2.411249 2.96763,2.411249 2.75549,0 5.64386,-2.25194 5.64386,-4.583775 0,-1.563389 -1.3249,-2.437826 -2.96763,-2.437826 -2.57055,0 -5.64386,2.172845 -5.64386,4.610352 M 142.42056,156.841 c 0,1.13918 0.82137,2.41125 2.96763,2.41125 2.75629,0 5.64466,-2.25274 5.64466,-4.58394 0,-1.56346 -1.3249,-2.43846 -2.96763,-2.43846 -2.57055,0 -5.64466,2.17348 -5.64466,4.61115 M 661.02396,21.157426 c 0,1.139419 0.82136,2.411649 2.96843,2.411649 2.75548,0 5.64386,-2.25266 5.64386,-4.584494 0,-1.563389 -1.32491,-2.437827 -2.96763,-2.437827 -2.57056,0 -5.64466,2.172845 -5.64466,4.610672 M 125.3641,143.60315 c 0,1.13998 0.82136,2.41125 2.96763,2.41125 2.75548,0 5.64386,-2.25194 5.64386,-4.58394 0,-1.56347 -1.32491,-2.43766 -2.96763,-2.43766 -2.57056,0 -5.64386,2.17268 -5.64386,4.61035 m 332.48173,6.61892 c 0,1.13918 0.82137,2.41125 2.96763,2.41125 2.75629,0 5.64466,-2.25194 5.64466,-4.58393 0,-1.56347 -1.3249,-2.43767 -2.96843,-2.43767 -2.56975,0 -5.64386,2.17269 -5.64386,4.61035 M 280.65828,31.085415 c 0,1.139178 0.82136,2.411248 2.96763,2.411248 2.75549,0 5.64386,-2.25194 5.64386,-4.583934 0,-1.563469 -1.3249,-2.437667 -2.96763,-2.437667 -2.57056,0 -5.64386,2.172686 -5.64386,4.610353 m 250.6706,119.136655 c 0,1.13918 0.82136,2.41125 2.96763,2.41125 2.75628,0 5.64466,-2.25194 5.64466,-4.58393 0,-1.56347 -1.32491,-2.43767 -2.96763,-2.43767 -2.57056,0 -5.64466,2.17269 -5.64466,4.61035 m -423.02204,0 c 0,1.13918 0.82136,2.41125 2.96763,2.41125 2.75628,0 5.64466,-2.25194 5.64466,-4.58393 0,-1.56347 -1.32491,-2.43767 -2.96763,-2.43767 -2.57056,0 -5.64466,2.17269 -5.64466,4.61035 M 57.136654,93.962807 c 0,1.139979 0.821362,2.411249 2.967629,2.411249 2.755484,0 5.643859,-2.25194 5.643859,-4.583935 0,-1.563469 -1.324906,-2.437666 -2.967629,-2.437666 -2.570557,0 -5.643859,2.172685 -5.643859,4.610352 M 91.250376,156.841 c 0,1.13918 0.821362,2.41125 2.967629,2.41125 2.755484,0 5.643859,-2.25274 5.643859,-4.58394 0,-1.56346 -1.324906,-2.43846 -2.967629,-2.43846 -2.570557,0 -5.643859,2.17348 -5.643859,4.61115 M 158.48595,27.775952 c 0,1.139979 0.82136,2.411248 2.96763,2.411248 2.75628,0 5.64466,-2.251939 5.64466,-4.583934 0,-1.563469 -1.32491,-2.437827 -2.96763,-2.437827 -2.57056,0 -5.64466,2.172846 -5.64466,4.610513 M 74.193117,150.22207 c 0,1.13918 0.821361,2.41125 2.967629,2.41125 2.756284,0 5.644656,-2.25194 5.644656,-4.58393 0,-1.56347 -1.324906,-2.43767 -2.967626,-2.43767 -2.570558,0 -5.644659,2.17269 -5.644659,4.61035 m 1.866876,-52.9498 c 0,1.139979 0.821362,2.411248 2.967629,2.411248 2.756282,0 5.644656,-2.251939 5.644656,-4.583934 0,-1.563469 -1.324905,-2.437667 -2.968429,-2.437667 -2.569754,0 -5.643856,2.172686 -5.643856,4.610353 m 472.326147,56.25927 c 0,1.13918 0.82136,2.41125 2.96763,2.41125 2.75548,0 5.64386,-2.25274 5.64386,-4.58394 0,-1.56347 -1.32491,-2.43847 -2.96763,-2.43847 -2.57056,0 -5.64386,2.17349 -5.64386,4.61116 M 57.136654,143.60315 c 0,1.13998 0.821362,2.41125 2.967629,2.41125 2.755484,0 5.643859,-2.25194 5.643859,-4.58394 0,-1.56347 -1.324906,-2.43766 -2.967629,-2.43766 -2.570557,0 -5.643859,2.17268 -5.643859,4.61035 m 37.847475,-43.02142 c 0,1.13918 0.821362,2.41125 2.967629,2.41125 2.755482,0 5.643862,-2.25194 5.643862,-4.583933 0,-1.563469 -1.32491,-2.437667 -2.96763,-2.437667 -2.570559,0 -5.643861,2.172686 -5.643861,4.61035 M 113.90747,77.416293 c 0,1.139179 0.82136,2.411249 2.96763,2.411249 2.75628,0 5.64386,-2.25194 5.64386,-4.583934 0,-1.563469 -1.32491,-2.437667 -2.96763,-2.437667 -2.56976,0 -5.64386,2.172685 -5.64386,4.610352 m 284.23915,82.734167 c 0,1.13918 0.82136,2.41125 2.96762,2.41125 2.75629,0 5.64466,-2.25274 5.64466,-4.58473 0,-1.56347 -1.3249,-2.43767 -2.96762,-2.43767 -2.57056,0 -5.64466,2.17269 -5.64466,4.61115 M 340.51281,34.394877 c 0,1.139179 0.82136,2.411249 2.96763,2.411249 2.75628,0 5.64466,-2.25194 5.64466,-4.583934 0,-1.563469 -1.32491,-2.437667 -2.96843,-2.437667 -2.56976,0 -5.64386,2.172686 -5.64386,4.610352 M 142.29328,80.725756 c 0,1.139179 0.82136,2.411249 2.96763,2.411249 2.75548,0 5.64385,-2.25194 5.64385,-4.583935 0,-1.563469 -1.3249,-2.437666 -2.96762,-2.437666 -2.57056,0 -5.64386,2.172685 -5.64386,4.610352 M 139.7019,27.775952 c 0,1.139979 0.82137,2.411248 2.96763,2.411248 2.75549,0 5.64386,-2.251939 5.64386,-4.583934 0,-1.563469 -1.3249,-2.437827 -2.96763,-2.437827 -2.57055,0 -5.64386,2.172846 -5.64386,4.610513 m 521.57343,49.640341 c 0,1.139179 0.82136,2.411249 2.96763,2.411249 2.75628,0 5.64386,-2.25194 5.64386,-4.583934 0,-1.563469 -1.32491,-2.437667 -2.96763,-2.437667 -2.56976,0 -5.64386,2.172685 -5.64386,4.610352 m -506.36623,0 c 0,1.139179 0.82136,2.411249 2.96763,2.411249 2.75549,0 5.64386,-2.25194 5.64386,-4.583934 0,-1.563469 -1.32491,-2.437667 -2.96763,-2.437667 -2.57056,0 -5.64386,2.172685 -5.64386,4.610352 M 565.4426,156.841 c 0,1.13918 0.82137,2.41125 2.96763,2.41125 2.75629,0 5.64466,-2.25274 5.64466,-4.58394 0,-1.56346 -1.3249,-2.43846 -2.96763,-2.43846 -2.57055,0 -5.64466,2.17348 -5.64466,4.61115 m 83.2169,-76.115244 c 0,1.139179 0.82136,2.411249 2.96763,2.411249 2.75629,0 5.64466,-2.25194 5.64466,-4.583935 0,-1.563469 -1.3249,-2.437666 -2.96843,-2.437666 -2.56975,0 -5.64386,2.172685 -5.64386,4.610352 M 182.90665,74.10683 c 0,1.13998 0.82136,2.411249 2.96843,2.411249 2.75548,0 5.64385,-2.25194 5.64385,-4.583934 0,-1.563469 -1.3249,-2.437667 -2.96762,-2.437667 -2.57056,0 -5.64466,2.172686 -5.64466,4.610352 m 437.36704,3.309463 c 0,1.139179 0.82217,2.411249 2.96843,2.411249 2.75549,0 5.64386,-2.25194 5.64386,-4.583934 0,-1.563469 -1.3249,-2.437667 -2.96763,-2.437667 -2.57055,0 -5.64466,2.172685 -5.64466,4.610352 M 120.91706,31.085415 c 0,1.139178 0.82136,2.411248 2.96763,2.411248 2.75628,0 5.64466,-2.25194 5.64466,-4.583934 0,-1.563469 -1.32491,-2.437667 -2.96843,-2.437667 -2.56976,0 -5.64386,2.172686 -5.64386,4.610353 m 480.4333,52.949804 c 0,1.139179 0.82136,2.411249 2.96762,2.411249 2.75629,0 5.64386,-2.252741 5.64386,-4.583935 0,-1.563469 -1.3249,-2.438467 -2.96763,-2.438467 -2.56975,0 -5.64385,2.173486 -5.64385,4.611153 M 201.83079,77.416293 c 0,1.139179 0.82136,2.411249 2.96762,2.411249 2.75549,0 5.64386,-2.25194 5.64386,-4.583934 0,-1.563469 -1.3249,-2.437667 -2.96763,-2.437667 -2.57055,0 -5.64385,2.172685 -5.64385,4.610352 m 380.59623,13.237852 c 0,1.139178 0.82136,2.411248 2.96763,2.411248 2.75548,0 5.64386,-2.25274 5.64386,-4.584735 0,-1.563469 -1.32491,-2.437666 -2.96763,-2.437666 -2.57056,0 -5.64386,2.172685 -5.64386,4.611153 m -361.6729,-9.928389 c 0,1.139179 0.82137,2.411249 2.96763,2.411249 2.75629,0 5.64466,-2.25194 5.64466,-4.583935 0,-1.563469 -1.3249,-2.437666 -2.96843,-2.437666 -2.56975,0 -5.64386,2.172685 -5.64386,4.610352 m 361.74575,79.424704 c 0,1.13918 0.82136,2.41125 2.96763,2.41125 2.75548,0 5.64385,-2.25274 5.64385,-4.58473 0,-1.56347 -1.3249,-2.43767 -2.96762,-2.43767 -2.57056,0 -5.64386,2.17269 -5.64386,4.61115 M 563.50288,84.035219 c 0,1.139179 0.82136,2.411249 2.96763,2.411249 2.75628,0 5.64466,-2.252741 5.64466,-4.583935 0,-1.563469 -1.32491,-2.438467 -2.96843,-2.438467 -2.56976,0 -5.64386,2.173486 -5.64386,4.611153 m -323.82462,0 c 0,1.139179 0.82137,2.411249 2.96763,2.411249 2.75549,0 5.64386,-2.252741 5.64386,-4.583935 0,-1.563469 -1.3249,-2.438467 -2.96763,-2.438467 -2.57056,0 -5.64386,2.173486 -5.64386,4.611153 M 102.13222,34.394877 c 0,1.139179 0.82216,2.411249 2.96843,2.411249 2.75548,0 5.64386,-2.25194 5.64386,-4.583934 0,-1.563469 -1.32491,-2.437667 -2.96763,-2.437667 -2.57056,0 -5.64466,2.172686 -5.64466,4.610352 M 258.6016,87.344682 c 0,1.139179 0.82136,2.411248 2.96763,2.411248 2.75629,0 5.64466,-2.25274 5.64466,-4.584734 0,-1.562669 -1.32491,-2.437667 -2.96843,-2.437667 -2.56976,0 -5.64386,2.172685 -5.64386,4.611153 m 276.51307,-6.618926 c 0,1.139179 0.82136,2.411249 2.96763,2.411249 2.75548,0 5.64386,-2.25194 5.64386,-4.583935 0,-1.563469 -1.32491,-2.437666 -2.96763,-2.437666 -2.57056,0 -5.64386,2.172685 -5.64386,4.610352 m -257.58973,9.928389 c 0,1.139178 0.82216,2.411248 2.96843,2.411248 2.75548,0 5.64386,-2.25274 5.64386,-4.584735 0,-1.563469 -1.32491,-2.437666 -2.96763,-2.437666 -2.57056,0 -5.64466,2.172685 -5.64466,4.611153 M 516.19053,74.10683 c 0,1.13998 0.82216,2.411249 2.96843,2.411249 2.75548,0 5.64386,-2.25194 5.64386,-4.583934 0,-1.563469 -1.32491,-2.437667 -2.96763,-2.437667 -2.57056,0 -5.64466,2.172686 -5.64466,4.610352 M 305.91395,87.344682 c 0,1.139179 0.82136,2.411248 2.96763,2.411248 2.75549,0 5.64386,-2.25274 5.64386,-4.584734 0,-1.562669 -1.32491,-2.437667 -2.96763,-2.437667 -2.57056,0 -5.64386,2.172685 -5.64386,4.611153 M 70.45456,41.013803 c 0,1.139179 0.821362,2.411249 2.967629,2.411249 2.756285,0 5.643859,-2.252741 5.643859,-4.584735 0,-1.562669 -1.324905,-2.437667 -2.967629,-2.437667 -2.569757,0 -5.643859,2.172686 -5.643859,4.611153 M 610.49821,156.841 c 0,1.13918 0.82136,2.41125 2.96763,2.41125 2.75548,0 5.64386,-2.25274 5.64386,-4.58394 0,-1.56346 -1.32491,-2.43846 -2.96763,-2.43846 -2.57056,0 -5.64386,2.17348 -5.64386,4.61115 M 497.26719,80.725756 c 0,1.139179 0.82136,2.411249 2.96763,2.411249 2.75628,0 5.64466,-2.25194 5.64466,-4.583935 0,-1.563469 -1.32491,-2.437666 -2.96843,-2.437666 -2.56976,0 -5.64386,2.172685 -5.64386,4.610352 m -155.37023,0 c 0,1.139179 0.82136,2.411249 2.96842,2.411249 2.75549,0 5.64386,-2.25194 5.64386,-4.583935 0,-1.563469 -1.3249,-2.437666 -2.96763,-2.437666 -2.57055,0 -5.64465,2.172685 -5.64465,4.610352 m 136.44689,6.618926 c 0,1.139179 0.82136,2.411248 2.96763,2.411248 2.75548,0 5.64386,-2.25274 5.64386,-4.584734 0,-1.562669 -1.32491,-2.437667 -2.96763,-2.437667 -2.57056,0 -5.64386,2.172685 -5.64386,4.611153 M 399.8822,80.725756 c 0,1.139179 0.82136,2.411249 2.96763,2.411249 2.75629,0 5.64466,-2.25194 5.64466,-4.583935 0,-1.563469 -1.3249,-2.437666 -2.96843,-2.437666 -2.56976,0 -5.64386,2.172685 -5.64386,4.610352 m 59.53751,0 c 0,1.139179 0.82136,2.411249 2.96763,2.411249 2.75628,0 5.64466,-2.25194 5.64466,-4.583935 0,-1.563469 -1.32491,-2.437666 -2.96763,-2.437666 -2.57056,0 -5.64466,2.172685 -5.64466,4.610352 m -44.21583,72.805784 c 0,1.13918 0.82136,2.41125 2.96763,2.41125 2.75548,0 5.64386,-2.25274 5.64386,-4.58394 0,-1.56347 -1.32491,-2.43847 -2.96763,-2.43847 -2.57056,0 -5.64386,2.17349 -5.64386,4.61116 M 308.83515,31.085415 c 0,1.139178 0.82136,2.411248 2.96763,2.411248 2.75548,0 5.64386,-2.25194 5.64386,-4.583934 0,-1.563469 -1.32491,-2.437667 -2.96763,-2.437667 -2.57056,0 -5.64386,2.172686 -5.64386,4.610353 M 440.49637,74.10683 c 0,1.13998 0.82136,2.411249 2.96763,2.411249 2.75549,0 5.64386,-2.25194 5.64386,-4.583934 0,-1.563469 -1.32491,-2.437667 -2.96763,-2.437667 -2.57056,0 -5.64386,2.172686 -5.64386,4.610352 m -59.40622,79.42471 c 0,1.13918 0.82137,2.41125 2.96763,2.41125 2.75549,0 5.64386,-2.25274 5.64386,-4.58394 0,-1.56347 -1.3249,-2.43847 -2.96763,-2.43847 -2.57056,0 -5.64386,2.17349 -5.64386,4.61116 m 261.84144,-3.30947 c 0,1.13918 0.82136,2.41125 2.96763,2.41125 2.75628,0 5.64466,-2.25194 5.64466,-4.58393 0,-1.56347 -1.32491,-2.43767 -2.96843,-2.43767 -2.56976,0 -5.64386,2.17269 -5.64386,4.61035 M 316.77738,12.822207 c 0,0.07949 0.0264,0.211985 0.21214,0.291479 1.13918,0.370974 3.41834,1.801872 5.14032,4.743164 0.47713,0.821441 1.24565,1.96086 1.24565,4.160204 0,1.907464 -0.50354,3.868805 -1.19281,5.77651 -0.0528,0.159309 -0.10568,0.291399 -0.0793,0.397872 0,0.158508 0.10567,0.264981 0.26498,0.264981 0.18573,0 0.31782,-0.106473 0.42429,-0.2922 1.19202,-2.119849 1.64273,-4.583934 1.64273,-6.995103 -0.13289,-3.418257 -2.09344,-5.935578 -2.09344,-5.935578 0.0793,0 -2.43766,-3.259269 -3.15335,-4.37219 -0.98067,-1.5103923 -1.43058,-3.020785 -1.48422,-3.1267775 -0.0264,-0.079494 -0.26498,-1.0334266 -0.26498,-1.0334266 -0.0264,-0.1059925 -0.15851,-0.211985 -0.31781,-0.211985 -0.18573,0 -0.34424,0.1589888 -0.34424,0.3444756 V 12.822207 M 78.396791,22.750275 c 0,0.0795 0.02642,0.211985 0.212145,0.29148 1.139179,0.371214 3.418334,1.801792 5.140311,4.743003 0.477127,0.821361 1.245652,1.961341 1.245652,4.160444 0,1.907705 -0.503544,3.868245 -1.192015,5.77675 -0.05364,0.158509 -0.106473,0.2914 -0.08006,0.397072 0,0.159309 0.106473,0.264981 0.264981,0.264981 0.185727,0 0.317818,-0.105672 0.424291,-0.291399 1.192015,-2.11985 1.642723,-4.583935 1.642723,-6.995183 -0.132091,-3.418337 -2.093432,-5.936059 -2.093432,-5.936059 0.07926,0 -2.437666,-3.259028 -3.153356,-4.371949 -0.979866,-1.510393 -1.430575,-3.020786 -1.483411,-3.126778 -0.02642,-0.0795 -0.264981,-1.033427 -0.264981,-1.033427 -0.02642,-0.105992 -0.159309,-0.211985 -0.318618,-0.211985 -0.184926,0 -0.344235,0.158989 -0.344235,0.344476 v 5.988574 M 353.09143,150.22123 v 18.74406 h 0.66201 v -18.74406 z m 59.40624,-72.805721 v 20.439599 h 0.66201 V 77.415509 Z m 46.92239,3.309446 v 24.535215 h 0.66218 V 80.724955 Z m 18.92341,6.618118 v 18.730467 h 0.66202 V 87.343073 Z m -78.46162,-6.618118 v 18.702316 h 0.66202 V 80.724955 Z m 15.32157,72.805715 v 23.70824 h 0.66218 V 153.53067 Z M 78.397199,16.788114 v 22.053828 h 0.662013 V 16.788114 Z M 610.49774,156.83934 v 22.0543 h 0.66216 v -22.0543 z M 497.26672,80.724955 V 99.46902 h 0.66217 V 80.724955 Z m -155.36936,0 v 22.053515 h 0.66202 V 80.724955 Z M 516.19091,74.106054 V 99.46902 h 0.66201 V 74.106054 Z M 398.14707,160.14879 v 17.09012 h 0.66201 V 160.14879 Z M 305.91354,87.343073 v 22.053517 h 0.66202 V 87.343073 Z M 110.07479,11.742476 V 32.22304 h 0.66217 V 11.742476 Z m 18.78488,-1.626112 v 18.79723 h 0.66201 V 10.116364 Z M 535.11432,80.724955 V 99.46902 h 0.66202 V 80.724955 Z m -257.58894,9.927572 v 17.061353 h 0.66201 V 90.652527 Z m 304.97415,69.496263 v 17.05807 h 0.66201 V 160.14879 Z M 258.60119,87.343073 v 18.744847 h 0.66202 V 87.343073 Z M 147.64376,8.4904093 V 25.604139 h 0.66201 V 8.4904093 Z m 415.8595,75.5439927 v 23.708238 h 0.66201 V 84.034402 Z m -323.82532,0 v 20.426788 h 0.66202 V 84.034402 Z m 342.74872,6.618125 v 17.090113 h 0.66203 V 90.652527 Z M 220.75453,80.724955 v 18.729679 h 0.66201 V 80.724955 Z m 380.59539,3.309447 v 23.708238 h 0.66202 V 84.034402 Z M 201.83034,77.415509 V 98.64127 h 0.66217 V 77.415509 Z m 418.44377,0 V 99.46902 h 0.66201 V 77.415509 Z m 28.38503,3.309446 v 18.702316 h 0.66202 V 80.724955 Z M 367.23953,10.116364 v 18.79723 h 0.66202 v -18.79723 z m -184.33244,63.98969 v 23.722628 h 0.66202 V 74.106054 Z m 382.53593,82.733286 v 18.74485 h 0.66202 V 156.83934 Z M 158.48633,27.775159 v 17.060417 h 0.66202 V 27.775159 Z m 502.78862,49.64035 v 20.439599 h 0.66202 V 77.415509 Z m -506.36622,0 v 20.439599 h 0.66201 V 77.415509 Z m 393.477,76.115161 v 20.43007 h 0.66202 v -20.43007 z m -17.0565,-3.30944 v 18.72811 h 0.66217 V 150.22123 Z M 142.29292,80.724955 v 18.702316 h 0.66201 V 80.724955 Z M 57.136254,143.60232 v 30.34231 h 0.662013 V 143.60232 Z M 113.9071,77.415509 V 99.46902 h 0.66201 V 77.415509 Z m 267.18269,76.115161 v 23.70824 h 0.66201 V 153.53067 Z M 102.926,76.289106 v 22.120757 h 0.66201 V 76.289106 Z M 74.193541,150.22123 v 24.5352 h 0.662012 v -24.5352 z m 9.809048,-74.745488 v 19.624667 h 0.662012 V 75.475742 Z m 7.247459,81.363598 v 18.7289 h 0.662013 v -18.7289 z m 17.057122,-6.61811 v 23.7234 h 0.66218 v -23.7234 z M 65.078556,74.663155 v 17.127807 h 0.662021 V 74.663155 Z m 60.285134,68.939165 v 31.15411 h 0.66201 V 143.60232 Z M 386.02426,8.4904093 V 25.604139 h 0.66216 V 8.4904093 Z M 177.27042,24.465704 v 18.744073 h 0.66202 V 24.465704 Z M 514.27194,146.91177 v 21.22577 h 0.66217 V 146.91177 Z M 196.0553,21.156413 v 20.427404 h 0.66201 V 21.156413 Z M 142.42097,156.83934 v 18.7289 h 0.66201 v -18.7289 z M 661.02432,21.156413 v 20.427404 h 0.66216 V 21.156413 Z M 432.26071,146.91177 v 22.05352 h 0.66201 V 146.91177 Z M 642.23944,24.465704 v 18.744073 h 0.66217 V 24.465704 Z M 232.24645,5.1523453 V 22.294848 h 0.66202 V 5.1523453 Z M 170.41855,150.22123 v 22.05351 h 0.66202 V 150.22123 Z M 623.4555,27.775159 v 17.060417 h 0.66201 V 27.775159 Z M 202.85276,146.91177 v 22.05352 h 0.66202 V 146.91177 Z M 604.67063,27.775159 v 17.074795 h 0.66201 V 27.775159 Z M 228.43822,150.22123 v 18.6984 h 0.66202 v -18.6984 z M 585.88575,27.775159 v 16.262368 h 0.66201 V 27.775159 Z M 239.80912,146.91177 v 20.44445 h 0.66201 v -20.44445 z m 257.40647,-3.30945 v 23.72419 h 0.66202 V 143.60232 Z M 440.49603,74.106054 V 104.4468 h 0.66201 V 74.106054 Z M 251.03117,5.1523453 V 25.604139 h 0.66217 V 5.1523453 Z m 18.78488,0 V 22.294848 h 0.66201 V 5.1523453 Z M 469.21723,146.91177 v 20.44445 h 0.66202 V 146.91177 Z M 288.60014,6.8070703 V 28.913594 h 0.66201 V 6.8070703 Z M 539.10345,7.9190811 V 28.359623 h 0.66201 V 7.9190811 Z M 267.80748,143.60232 v 30.34231 h 0.66202 V 143.60232 Z M 404.80835,5.1523453 V 25.604139 h 0.66201 V 5.1523453 Z m 121.77201,6.0760297 v 18.702634 h 0.66216 V 11.228375 Z M 284.86399,150.22123 v 24.5352 h 0.66201 v -24.5352 z M 498.40359,7.9190811 V 29.972598 h 0.66201 V 7.9190811 Z M 301.92128,156.83934 v 18.7289 h 0.66201 v -18.7289 z m 17.05635,-6.61811 v 18.74406 h 0.66217 V 150.22123 Z M 462.68479,11.228375 v 22.05367 h 0.66202 v -22.05367 z m -4.8394,138.992855 v 18.6984 h 0.66217 v -18.6984 z M 567.10181,4.6097871 V 43.224154 h 0.66202 V 4.6097871 Z M 336.03492,143.60232 v 25.36297 h 0.66201 V 143.60232 Z M 442.3781,5.1523453 V 25.604139 h 0.66201 V 5.1523453 Z M 316.77691,6.8600754 V 28.913594 h 0.66216 V 6.8600754 Z M 423.59322,5.1523453 V 22.294848 h 0.66202 V 5.1523453 Z M 642.93116,150.22123 v 22.05351 h 0.66202 V 150.22123 Z M 348.45544,11.742476 V 32.22304 h 0.66201 V 11.742476 Z M 265.62318,141.96089 v 1.059 h 12.97371 v -1.059 z m 229.4081,0 v 1.059 H 508.005 v -1.059 z m -371.8519,0 v 1.059 h 12.97371 v -1.059 z m -68.227436,0 v 1.059 h 12.973719 v -1.059 z M 180.72278,72.464467 v 1.059157 h 12.97372 v -1.059157 z m 333.28382,0 v 1.059157 h 12.97372 V 72.464467 Z M 564.91751,2.9681959 v 1.0591618 h 12.97356 V 2.9681959 Z M 333.85061,141.96089 v 1.059 h 12.97371 v -1.059 z M 438.31172,72.464467 v 1.059157 h 12.9745 V 72.464467 Z M 189.95306,22.614823 v -4.345692 l 3.07331,-0.874437 v 4.372189 l -3.07331,0.84794 m 3.6561,-7.419473 c -0.0528,-0.053 -0.13209,-0.07949 -0.21134,-0.07949 -0.0264,0 -0.0801,0.0265 -0.10647,0.0265 l -3.33829,0.927434 v -4.637171 h -0.7421 v 13.116328 c 0,0.212145 0.1585,0.345036 0.37065,0.345036 h 0.10647 l 3.33829,-0.927834 v 4.637571 h 0.71568 V 15.486829 c 0,-0.105992 -0.0528,-0.238483 -0.13289,-0.291479 m 461.31303,7.419473 v -4.345692 l 3.0733,-0.874437 v 4.372189 l -3.0733,0.84794 m 3.6561,-7.419473 c -0.0528,-0.053 -0.1321,-0.07949 -0.21135,-0.07949 -0.0264,0 -0.0801,0.0265 -0.10647,0.0265 l -3.33828,0.927434 v -4.637171 h -0.74211 v 13.116328 c 0,0.212145 0.15851,0.345036 0.37065,0.345036 h 0.10647 l 3.33829,-0.927834 v 4.637571 h 0.71569 V 15.486829 c 0,-0.105992 -0.0528,-0.238483 -0.13289,-0.291479 M 679.80887,9.7523658 V 36.955028 H 681 V 9.7523658 Z m 0,69.4964202 V 106.4513 H 681 V 79.248786 Z m -506.36622,0 V 106.4513 h 1.19112 V 79.248786 Z m -12.48854,69.496274 v 27.20266 h 1.19112 V 148.74506 Z M 214.8397,9.7523658 V 36.955028 h 1.19113 V 9.7523658 Z M 554.03804,79.248786 V 106.4513 h 1.19112 V 79.248786 Z m -257.58894,0 V 106.4513 h 1.19112 V 79.248786 Z m 304.5842,69.496274 v 27.20266 h 1.19128 v -27.20266 z m -342.69026,0 v 27.20266 h 1.19113 v -27.20266 z m 229.40717,0 v 27.20266 h 1.19129 V 148.74506 Z M 431.03143,79.248786 V 106.4513 h 1.19129 V 79.248786 Z M 92.668202,9.7523658 V 36.955028 h 1.191126 V 9.7523658 Z M 379.12594,79.248786 V 106.4513 h 3.64014 V 79.248786 Z m -3.64046,0 V 106.4513 h 1.19129 V 79.248786 Z m -2.44723,16.910723 c 0,-0.768526 -0.60922,-1.40416 -1.37774,-1.40416 -0.76853,0 -1.37775,0.635634 -1.37775,1.40416 0,0.768525 0.60922,1.40416 1.37775,1.40416 0.76852,0 1.37774,-0.635635 1.37774,-1.40416 m 0,-6.618926 c 0,-0.768525 -0.60922,-1.40416 -1.37774,-1.40416 -0.76853,0 -1.37775,0.635635 -1.37775,1.40416 0,0.768526 0.60922,1.404961 1.37775,1.404961 0.76852,0 1.37774,-0.636435 1.37774,-1.404961 M 557.63722,9.7523658 V 36.955028 h 1.19128 V 9.7523658 Z m -104.41702,0 V 36.955028 h 1.19128 V 9.7523658 Z M 677.35954,148.74506 v 27.20266 h 3.64015 v -27.20266 z m -3.63967,0 v 27.20266 h 1.19113 v -27.20266 z m -2.44731,16.91077 c 0,-0.76853 -0.60921,-1.40416 -1.37774,-1.40416 -0.76852,0 -1.37774,0.63563 -1.37774,1.40416 0,0.76852 0.60922,1.40416 1.37774,1.40416 0.76853,0 1.37774,-0.63564 1.37774,-1.40416 m 0,-6.61893 c 0,-0.76852 -0.60921,-1.40416 -1.37774,-1.40416 -0.76852,0 -1.37774,0.63564 -1.37774,1.40416 0,0.76853 0.60922,1.40496 1.37774,1.40496 0.76853,0 1.37774,-0.63643 1.37774,-1.40496 M 371.62535,148.74506 v 27.20266 h 1.19112 v -27.20266 z m 19.9856,-52.585551 c 0,-0.768526 -0.61002,-1.40416 -1.37855,-1.40416 -0.76852,0 -1.37774,0.635634 -1.37774,1.40416 0,0.768525 0.60922,1.40416 1.37774,1.40416 0.76853,0 1.37855,-0.635635 1.37855,-1.40416 m 0,-6.618926 c 0,-0.768525 -0.61002,-1.40416 -1.37855,-1.40416 -0.76852,0 -1.37774,0.635635 -1.37774,1.40416 0,0.768526 0.60922,1.404961 1.37774,1.404961 0.76853,0 1.37855,-0.636435 1.37855,-1.404961 M 385.21464,79.248786 V 106.4513 h 1.19112 V 79.248786 Z m -6.0887,0 V 106.4513 h 3.64014 V 79.248786 Z M 331.04791,9.7523658 V 36.955028 h 1.19128 V 9.7523658 Z M 0,175.22035 v 0.72768 h 681 v -0.72768 z m 0,-6.6189 v 0.72768 h 681 v -0.72768 z m 0,-6.6189 v 0.72768 h 681 v -0.72768 z m 0,-6.61812 v 0.72768 h 681 v -0.72768 z m 0,-6.6189 v 0.72768 h 681 v -0.72768 z m 0,-43.02145 v 0.72768 h 681 v -0.72768 z m 0,-6.618901 v 0.727681 h 681 v -0.727681 z m 0,-6.619054 v 0.727842 h 681 v -0.727842 z m 0,-6.618902 v 0.727682 h 681 v -0.727682 z m 0,-6.618117 v 0.727682 H 681 V 79.249106 Z M 0,36.227659 V 36.9555 h 681 v -0.727841 z m 0,-6.618902 v 0.727681 h 681 v -0.727681 z m 0,-6.618903 v 0.727683 h 681 v -0.727683 z m 0,-6.618431 v 0.727684 H 681 V 16.371423 Z M 0,9.7525219 V 10.480364 H 681 V 9.7525219 Z"
     style="stroke-width:0.0800547" />
  <metadata
     id="metadata267">
    <rdf:RDF>
      <cc:Work
         rdf:about="">
        <dc:title>air_XLVIII</dc:title>
      </cc:Work>
    </rdf:RDF>
  </metadata>
</svg>
