<?xml version="1.0" encoding="utf-8"?>
<svg xmlns="http://www.w3.org/2000/svg" xmlns:svg="http://www.w3.org/2000/svg" version="1.1" viewBox="0 0 681 120">
	<title>A score 2 staves long in 6/4 time, in the key of A Major.</title>
	<path d="M599.77 22.088c0 .742.583 1.325 1.324 1.325s1.325-.583 1.325-1.325-.583-1.325-1.325-1.325c-.741 0-1.325.583-1.325 1.325M76.306 91.584c0 .742.583 1.325 1.325 1.325s1.325-.583 1.325-1.325-.583-1.325-1.325-1.325-1.325.583-1.325 1.325m431.51-76.115c0 .742.583 1.325 1.325 1.325.741 0 1.325-.583 1.325-1.325s-.584-1.325-1.325-1.325c-.742 0-1.325.583-1.325 1.325M185.269 98.203c0 .742.583 1.324 1.325 1.324s1.325-.582 1.325-1.324-.583-1.325-1.325-1.325-1.325.583-1.325 1.325m-43.073-69.497c0 .742.582 1.325 1.325 1.325.742 0 1.324-.583 1.324-1.325 0-.741-.582-1.325-1.324-1.325s-1.325.584-1.325 1.325m161.501 69.497c0 .742.583 1.324 1.325 1.324s1.325-.582 1.325-1.324-.583-1.325-1.325-1.325-1.325.583-1.325 1.325M234.15 22.088c0 .742.582 1.325 1.325 1.325.742 0 1.324-.583 1.324-1.325s-.582-1.325-1.324-1.325-1.325.583-1.325 1.325m189.407 69.496c0 .742.583 1.325 1.325 1.325s1.325-.583 1.325-1.325-.583-1.325-1.325-1.325-1.325.583-1.325 1.325M86.975 17.124h21.554v3.31H86.975zM59.604 35.342v1.961h-2.2a.38.38 0 0 0-.37.37v.504c0 .213.185.371.37.371h8.03a.36.36 0 0 0 .371-.37v-.504c0-.212-.16-.37-.371-.37h-2.385v-1.962h2.385c.212 0 .371-.185.371-.397v-.504a.38.38 0 0 0-.371-.371h-2.385v-4.213c0-.159-.08-.292-.185-.345l-.319-.158c-.053-.027-.08-.027-.132-.027-.106 0-.212 0-.291.08l-2.412 2.199a.4.4 0 0 0-.106.291v2.173H56.53s2.967-3.18 6.094-7.366a.58.58 0 0 0 .132-.371.44.44 0 0 0-.079-.265l-.583-.583c-.08-.053-.16-.106-.265-.106h-3.948c-.186 0-.318.159-.344.318 0 0-.133 1.96-.822 4.107-.689 2.146-1.484 3.47-2.173 4.452 0 0-.08.132-.08.291 0 .053 0 .106.027.16.08.185.265.476.265.476s.053.159.291.159zm.794-11.066c-.875 0-1.59-1.193-1.59-2.677s.715-2.702 1.59-2.702c.874 0 1.616 1.219 1.616 2.702 0 1.484-.742 2.677-1.616 2.677m.98-6.625c-1.616 0-2.2.477-2.57.875-.08-.557-.133-.98-.133-1.405 0-1.51.53-3.471 2.385-3.471.663 0 1.06.212 1.325.504-.556.238-1.007.953-1.007 1.563 0 .954.742 1.696 1.696 1.696s1.722-.742 1.722-1.696v-.08c0-.238-.053-.636-.158-.848-.345-.953-1.458-2.358-4.108-2.358-2.385 0-4.107 2.279-4.637 3.498a9.4 9.4 0 0 0-.662 3.418c0 1.617.45 3.445 2.014 4.822 1.536 1.167 2.517 1.22 3.444 1.22.928 0 4.399-1.087 4.399-4.16 0-2.597-2.04-3.578-3.71-3.578M43.45 76.386l2.358-.477v4.372l-2.358.503zm4.107-.821c.159-.027.292-.213.292-.372V73.63c0-.212-.16-.371-.372-.371h-.053l-.874.186v-3.949h-.742v4.107l-2.358.477v-3.736h-.742v3.896l-1.034.211c-.158.027-.291.212-.291.372v1.537c0 .21.159.37.371.37h.08l.874-.186v4.373l-1.034.212c-.158.027-.291.212-.291.37v1.538c0 .212.159.37.371.37h.08l.874-.184v3.947h.742v-4.107l2.358-.477v3.736h.742v-3.894l1.007-.186c.159-.026.292-.212.292-.371v-1.563a.363.363 0 0 0-.372-.372h-.053l-.874.186V75.75zM36.194 89.623l2.359-.477v4.373l-2.359.503zm4.108-.821c.16-.027.291-.212.291-.371v-1.563a.363.363 0 0 0-.37-.372h-.054l-.874.186v-3.948h-.742v4.107l-2.359.477v-3.737h-.741v3.896l-1.033.212c-.16.026-.292.212-.292.37v1.538c0 .212.159.371.37.371h.08l.875-.186v4.372l-1.033.212c-.16.027-.292.212-.292.372v1.536c0 .212.159.371.37.371h.08l.875-.185v3.948h.741V96.3l2.359-.476v3.736h.742v-3.895l1.007-.186c.16-.026.291-.211.291-.37v-1.564c0-.212-.159-.37-.37-.37h-.054l-.874.184v-4.372zM28.94 79.695l2.358-.477v4.372l-2.358.504zm4.107-.82c.16-.028.292-.213.292-.372v-1.564c0-.212-.16-.37-.371-.37h-.054l-.874.185v-3.948H31.3v4.107l-2.358.477v-3.736h-.742v3.895l-1.033.212c-.16.026-.292.212-.292.371v1.537c0 .211.159.37.371.37h.08l.874-.185v4.373l-1.033.212c-.16.026-.292.211-.292.37v1.537c0 .213.159.371.371.371h.08l.874-.186v3.949h.742v-4.107l2.358-.477v3.736h.742v-3.896l1.007-.185c.16-.026.292-.212.292-.371v-1.563c0-.212-.16-.371-.371-.371h-.054l-.874.186v-4.373zM43.45 6.89l2.358-.477v4.372l-2.358.503zm4.107-.822c.159-.026.292-.212.292-.37V4.133a.363.363 0 0 0-.372-.371h-.053l-.874.185V0h-.742v4.107l-2.358.477V.848h-.742v3.895l-1.034.212c-.158.027-.291.212-.291.371v1.537c0 .212.159.371.371.371h.08l.874-.186v4.373l-1.034.212c-.158.026-.291.212-.291.37v1.538c0 .212.159.37.371.37h.08l.874-.185v3.948h.742v-4.107l2.358-.477v3.736h.742v-3.895l1.006-.185c.16-.027.293-.212.293-.371V10.81a.363.363 0 0 0-.372-.37h-.053l-.874.185V6.254zM36.194 20.127l2.359-.477v4.372l-2.359.504zm4.108-.82c.16-.027.291-.213.291-.372v-1.563a.36.36 0 0 0-.37-.37h-.054l-.874.185v-3.949h-.742v4.108l-2.359.477v-3.737h-.741v3.896l-1.033.212c-.16.026-.292.212-.292.37V20.1c0 .212.159.371.37.371h.08l.875-.185v4.372l-1.033.212c-.16.026-.292.212-.292.371v1.537c0 .212.159.371.37.371h.08l.875-.186v3.949h.741v-4.108l2.359-.476v3.736h.742v-3.896l1.007-.185c.16-.027.291-.212.291-.37v-1.564c0-.213-.159-.371-.37-.371h-.054l-.874.185V19.49zM28.94 10.2l2.358-.477v4.372l-2.358.504zm4.107-.82c.16-.027.292-.213.292-.372V7.443a.36.36 0 0 0-.371-.371h-.054l-.874.186V3.309H31.3v4.108l-2.358.476V4.157h-.742v3.895l-1.033.212c-.16.027-.292.212-.292.371v1.537c0 .212.159.371.371.371h.08l.874-.185v4.372l-1.033.212c-.16.026-.292.212-.292.37v1.538c0 .212.159.37.371.37h.08l.874-.185v3.949h.742v-4.108l2.358-.477v3.737h.742V16.24l1.007-.185c.16-.027.292-.212.292-.371V14.12a.36.36 0 0 0-.371-.371h-.054l-.874.185V9.563zm-16.955 97.594a7.8 7.8 0 0 1-1.537.158c-3.789 0-7.022-2.65-7.022-6.65 0-3.233 2.28-6.122 4.611-8.135.45-.398.875-.768 1.272-1.166.238 1.431.424 2.676.61 3.762-2.412.716-4.055 3.26-4.055 5.75 0 1.855 1.458 4.4 3.577 4.4.212 0 .451-.107.451-.345s-.265-.371-.583-.583c-1.033-.636-1.616-1.325-1.616-2.624 0-1.616 1.192-2.914 2.755-3.285zm-2.332-27.24c.239-1.06 1.458-3.842 2.836-3.842.397 0 1.033 1.298 1.033 3.126 0 2.756-2.04 4.823-3.869 6.625-.159-1.06-.291-2.094-.291-3.207 0-.98.08-1.881.291-2.702m6.095 22.337c0 1.882-.768 3.817-2.65 4.585a877 877 0 0 1-1.457-8.56c2.385 0 4.107 1.617 4.107 3.975m-11.66 13.038c0 1.748 1.352 4.054 4.93 4.054 1.245 0 2.331-.318 3.285-.901 1.431-1.007 1.802-2.756 1.802-4.425 0-1.034-.159-2.226-.424-3.736-.08-.53-.238-1.325-.397-2.359 2.597-.847 4.53-3.55 4.53-6.28 0-4.001-2.834-6.704-6.703-6.704-.265-1.59-.53-3.153-.769-4.637 2.81-2.941 4.744-6.253 4.744-10.467 0-2.41-.742-4.372-1.166-5.326-.636-1.35-1.405-2.279-1.882-2.279-.185 0-1.007.318-1.881 1.352-1.696 2.014-2.173 5.406-2.173 7.631 0 1.43.133 2.73.583 5.697-.026.027-1.404 1.431-1.96 1.882-2.412 2.252-5.75 5.458-5.75 10.758 0 4.955 4.318 8.85 9.247 8.85.768 0 1.484-.08 2.093-.185.504 2.543.795 4.398.795 5.803 0 2.755-1.404 4.213-4.08 4.213-.636 0-1.193-.133-1.246-.133-.026-.026-.08-.052-.08-.079 0-.053.054-.08.133-.106 1.246-.185 2.49-1.245 2.49-2.941 0-1.431-1.085-2.942-3.073-2.942-1.855 0-3.047 1.51-3.047 3.26m7.896-77.631a7.8 7.8 0 0 1-1.537.158c-3.789 0-7.022-2.65-7.022-6.65 0-3.233 2.28-6.122 4.611-8.136.45-.397.875-.768 1.272-1.165.238 1.43.424 2.676.61 3.762-2.412.716-4.055 3.26-4.055 5.75 0 1.855 1.458 4.4 3.577 4.4.212 0 .451-.107.451-.346 0-.238-.265-.37-.583-.583-1.033-.635-1.616-1.324-1.616-2.623 0-1.616 1.192-2.915 2.755-3.285zm-2.332-27.24c.239-1.06 1.458-3.843 2.836-3.843.397 0 1.033 1.299 1.033 3.127 0 2.756-2.04 4.823-3.869 6.624-.159-1.06-.291-2.093-.291-3.206 0-.98.08-1.881.291-2.703m6.095 22.338c0 1.881-.768 3.816-2.65 4.585a877 877 0 0 1-1.457-8.56c2.385 0 4.107 1.617 4.107 3.975M8.196 45.609c0 1.75 1.352 4.055 4.93 4.055 1.245 0 2.331-.318 3.285-.902 1.431-1.006 1.802-2.755 1.802-4.424 0-1.034-.159-2.227-.424-3.736-.08-.53-.238-1.325-.397-2.359 2.597-.848 4.53-3.551 4.53-6.28 0-4.001-2.834-6.704-6.703-6.704-.265-1.59-.53-3.153-.769-4.637 2.81-2.942 4.744-6.254 4.744-10.467 0-2.411-.742-4.372-1.166-5.326-.636-1.352-1.405-2.28-1.882-2.28-.185 0-1.007.319-1.881 1.352-1.696 2.014-2.173 5.406-2.173 7.632 0 1.43.133 2.73.583 5.697-.026.026-1.404 1.43-1.96 1.881-2.412 2.253-5.75 5.459-5.75 10.758 0 4.956 4.318 8.85 9.247 8.85.768 0 1.484-.079 2.093-.184.504 2.543.795 4.398.795 5.803 0 2.755-1.404 4.213-4.08 4.213-.636 0-1.193-.133-1.246-.133-.026-.026-.08-.053-.08-.08 0-.052.054-.08.133-.106 1.246-.185 2.49-1.245 2.49-2.94 0-1.431-1.085-2.942-3.073-2.942-1.855 0-3.047 1.51-3.047 3.259m182.7-15.79c0 1.14.822 2.412 2.968 2.412 2.757 0 5.644-2.253 5.644-4.585 0-1.563-1.325-2.437-2.967-2.437-2.57 0-5.644 2.172-5.644 4.61m71.062-6.618c0 1.139.821 2.411 2.968 2.411 2.756 0 5.644-2.253 5.644-4.584 0-1.564-1.325-2.438-2.967-2.438-2.571 0-5.645 2.173-5.645 4.61m81.603 72.807c0 1.139.822 2.41 2.968 2.41 2.756 0 5.644-2.252 5.644-4.584 0-1.563-1.325-2.438-2.967-2.438-2.571 0-5.645 2.173-5.645 4.612M282.852 26.51c0 1.14.821 2.412 2.967 2.412 2.756 0 5.644-2.253 5.644-4.585 0-1.563-1.325-2.438-2.967-2.438-2.57 0-5.644 2.173-5.644 4.611M99.925 39.747c0 1.14.821 2.412 2.968 2.412 2.755 0 5.644-2.252 5.644-4.584 0-1.564-1.325-2.438-2.968-2.438-2.57 0-5.644 2.173-5.644 4.61m390.729 56.26c0 1.139.822 2.41 2.968 2.41 2.756 0 5.644-2.252 5.644-4.584 0-1.563-1.325-2.438-2.967-2.438-2.571 0-5.645 2.173-5.645 4.612m-198.871 3.31c0 1.138.821 2.41 2.967 2.41 2.756 0 5.644-2.252 5.644-4.584 0-1.564-1.325-2.438-2.967-2.438-2.571 0-5.644 2.173-5.644 4.611m31.87-76.115c0 1.139.822 2.411 2.969 2.411 2.755 0 5.644-2.253 5.644-4.584 0-1.564-1.325-2.438-2.968-2.438-2.57 0-5.645 2.173-5.645 4.61m35.87 8.21c-.742 0-1.246-.213-1.59-.875s-.822-2.359-.848-3.074c-.054-.715.211-1.14.848-1.351.318-.106.742-.16 1.139-.16.742 0 1.22.16 1.59.875.37.716.848 2.411.848 3.074 0 1.298-.901 1.51-1.987 1.51m-.213-6.306c-3.656 0-4.955 1.855-4.955 3.577 0 1.723 1.299 3.577 4.955 3.577s4.93-1.854 4.93-3.577-1.273-3.577-4.93-3.577M170.007 26.51c0 1.14.821 2.412 2.967 2.412 2.756 0 5.644-2.253 5.644-4.585 0-1.563-1.325-2.438-2.968-2.438-2.57 0-5.643 2.173-5.643 4.611m75.177 82.734c0 1.139.821 2.41 2.967 2.41 2.757 0 5.645-2.251 5.645-4.583 0-1.564-1.325-2.438-2.968-2.438-2.57 0-5.644 2.173-5.644 4.61m166.458-13.236c0 1.139.822 2.41 2.968 2.41 2.755 0 5.644-2.252 5.644-4.584 0-1.563-1.325-2.438-2.968-2.438-2.57 0-5.644 2.173-5.644 4.612m-191.214 9.927c0 1.14.822 2.411 2.968 2.411 2.755 0 5.644-2.252 5.644-4.583 0-1.564-1.325-2.438-2.968-2.438-2.57 0-5.644 2.173-5.644 4.61M455.1 23.201c0 1.139.822 2.411 2.968 2.411 2.755 0 5.644-2.253 5.644-4.584 0-1.564-1.325-2.438-2.968-2.438-2.57 0-5.644 2.173-5.644 4.61M79.033 39.748c0 1.14.822 2.412 2.968 2.412 2.756 0 5.645-2.252 5.645-4.584 0-1.564-1.325-2.438-2.969-2.438-2.57 0-5.644 2.173-5.644 4.61m51.248-9.927c0 1.139.821 2.411 2.968 2.411 2.755 0 5.644-2.253 5.644-4.585 0-1.563-1.325-2.437-2.968-2.437-2.57 0-5.644 2.172-5.644 4.61m43.074 72.806c0 1.14.82 2.412 2.967 2.412 2.756 0 5.644-2.253 5.644-4.585 0-1.563-1.325-2.438-2.968-2.438-2.57 0-5.643 2.173-5.643 4.61M495.9 19.892c0 1.14.821 2.412 2.967 2.412 2.757 0 5.645-2.253 5.645-4.585 0-1.563-1.325-2.437-2.968-2.437-2.57 0-5.644 2.172-5.644 4.61M136.22 96.007c0 1.139.821 2.41 2.968 2.41 2.755 0 5.644-2.252 5.644-4.584 0-1.563-1.325-2.438-2.968-2.438-2.57 0-5.645 2.173-5.645 4.612m404.746-3.31c0 1.14.821 2.411 2.968 2.411 2.756 0 5.644-2.252 5.644-4.584 0-1.563-1.325-2.438-2.967-2.438-2.571 0-5.645 2.173-5.645 4.611m-429.501 0c0 1.14.821 2.411 2.968 2.411 2.755 0 5.643-2.252 5.643-4.584 0-1.563-1.324-2.438-2.967-2.438-2.57 0-5.644 2.173-5.644 4.611m424.161-76.115c0 1.14.822 2.411 2.968 2.411 2.756 0 5.644-2.252 5.644-4.584 0-1.563-1.325-2.438-2.968-2.438-2.57 0-5.644 2.173-5.644 4.611m20.891 3.31c0 1.139.822 2.41 2.969 2.41 2.755 0 5.644-2.252 5.644-4.584 0-1.563-1.325-2.437-2.968-2.437-2.57 0-5.645 2.172-5.645 4.61m29.828 81.015c-.742 0-1.246-.212-1.59-.875-.344-.662-.821-2.358-.848-3.073-.053-.716.212-1.14.848-1.352.318-.106.742-.159 1.14-.159.741 0 1.218.16 1.59.874.37.716.848 2.411.848 3.074 0 1.299-.902 1.51-1.988 1.51m-.212-6.306c-3.656 0-4.955 1.855-4.955 3.577 0 1.723 1.299 3.578 4.955 3.578s4.929-1.855 4.929-3.578-1.272-3.577-4.93-3.577m-521.74 1.408c0 1.139.82 2.41 2.967 2.41 2.756 0 5.645-2.252 5.645-4.584 0-1.563-1.325-2.438-2.969-2.438-2.57 0-5.644 2.173-5.644 4.612M587.855 23.2c0 1.139.821 2.411 2.967 2.411 2.757 0 5.645-2.253 5.645-4.584 0-1.564-1.325-2.438-2.968-2.438-2.57 0-5.644 2.173-5.644 4.61M463.422 92.698c0 1.14.822 2.411 2.969 2.411 2.755 0 5.644-2.252 5.644-4.584 0-1.563-1.325-2.438-2.968-2.438-2.57 0-5.645 2.173-5.645 4.611M222.235 26.51c0 1.14.821 2.412 2.968 2.412 2.755 0 5.644-2.253 5.644-4.585 0-1.563-1.325-2.438-2.968-2.438-2.57 0-5.644 2.173-5.644 4.611m405.345-6.619c0 1.14.822 2.412 2.968 2.412 2.755 0 5.644-2.253 5.644-4.585 0-1.563-1.325-2.437-2.968-2.437-2.57 0-5.644 2.172-5.644 4.61M370.795 99.316c0 1.14.821 2.411 2.968 2.411 2.755 0 5.644-2.252 5.644-4.584 0-1.564-1.325-2.438-2.968-2.438-2.57 0-5.644 2.173-5.644 4.611m277.676-76.115c0 1.139.822 2.411 2.968 2.411 2.756 0 5.645-2.253 5.645-4.584 0-1.564-1.325-2.438-2.968-2.438-2.57 0-5.645 2.173-5.645 4.61M463.422 113.07c0 .185.16.344.345.344.133 0 .292-.106.318-.212 0-.027.239-.954.265-1.034.027-.105.265-1.113 1.219-2.676 1.033-1.722 2.623-2.968 3.948-4.822 1.299-1.855 2.093-3.605 2.093-5.936 0-2.412-.556-4.425-1.96-6.996-.08-.185-.239-.291-.398-.291-.053 0-.106 0-.132.026-.133.053-.186.16-.186.318 0 .08.027.212.08.319 1.06 2.464 1.484 3.868 1.484 5.776 0 2.2-.769 3.339-1.246 4.16-1.722 2.941-4.505 4.373-5.617 4.743-.186.08-.212.213-.212.292zM261.96 43.572c0 .185.16.345.345.345.132 0 .291-.107.318-.213 0-.026.238-.954.265-1.033.026-.106.265-1.113 1.218-2.676 1.034-1.722 2.624-2.968 3.948-4.823 1.299-1.855 2.094-3.604 2.094-5.936 0-2.411-.556-4.424-1.96-6.995-.08-.185-.24-.291-.399-.291-.052 0-.105 0-.132.026-.132.053-.185.16-.185.318a.8.8 0 0 0 .079.318c1.06 2.465 1.484 3.869 1.484 5.776 0 2.2-.768 3.34-1.245 4.16-1.722 2.942-4.505 4.373-5.618 4.744-.186.08-.212.212-.212.291zm81.603 72.804c0 .186.16.345.345.345.132 0 .291-.106.318-.212 0-.026.238-.954.265-1.033.026-.106.265-1.113 1.219-2.677 1.033-1.722 2.623-2.967 3.948-4.822 1.298-1.855 2.093-3.604 2.093-5.936 0-2.411-.556-4.425-1.96-6.995-.08-.186-.24-.292-.398-.292-.053 0-.106 0-.133.027-.132.053-.185.16-.185.318 0 .079.026.212.08.317 1.06 2.465 1.483 3.87 1.483 5.777 0 2.2-.768 3.34-1.245 4.16-1.722 2.942-4.505 4.372-5.618 4.744-.185.08-.212.212-.212.291zm284.017-74.46a.35.35 0 0 0 .345.345c.133 0 .291-.106.317-.212 0-.027.239-.954.265-1.034.027-.105.265-1.113 1.22-2.676 1.033-1.722 2.623-2.968 3.948-4.823 1.298-1.854 2.093-3.604 2.093-5.935 0-2.412-.556-4.425-1.961-6.996-.08-.185-.239-.291-.397-.291-.053 0-.107 0-.133.026-.132.053-.185.16-.185.318a.8.8 0 0 0 .08.318c1.06 2.465 1.483 3.869 1.483 5.777 0 2.2-.768 3.339-1.245 4.16-1.723 2.941-4.505 4.373-5.617 4.743-.186.08-.213.212-.213.292zM170.007 46.88a.35.35 0 0 0 .344.345c.132 0 .291-.106.318-.212 0-.027.238-.954.265-1.034.026-.105.265-1.112 1.219-2.676 1.034-1.723 2.623-2.967 3.948-4.822 1.298-1.855 2.093-3.604 2.093-5.936 0-2.412-.556-4.425-1.96-6.996-.08-.185-.24-.291-.398-.291-.053 0-.106 0-.133.026-.132.053-.185.16-.185.318 0 .08.026.212.08.318 1.06 2.465 1.483 3.87 1.483 5.777 0 2.199-.768 3.339-1.245 4.16-1.722 2.941-4.504 4.372-5.618 4.744-.185.079-.211.212-.211.29zm58.364 40.79c0 .08.026.212.212.292 1.139.37 3.418 1.802 5.14 4.743.477.821 1.246 1.96 1.246 4.16 0 1.908-.504 3.869-1.193 5.776-.053.16-.106.292-.08.398 0 .159.106.265.266.265.185 0 .318-.106.424-.291 1.192-2.12 1.643-4.585 1.643-6.996-.133-3.419-2.094-5.935-2.094-5.935.08 0-2.437-3.26-3.153-4.373-.98-1.51-1.43-3.02-1.484-3.126a66 66 0 0 1-.265-1.034c-.027-.106-.159-.212-.318-.212a.35.35 0 0 0-.344.344zm307.255-49.064c0 .185.16.344.344.344.133 0 .292-.105.318-.212 0-.026.239-.953.265-1.033.027-.106.265-1.113 1.22-2.676 1.033-1.722 2.623-2.968 3.948-4.823 1.298-1.855 2.093-3.604 2.093-5.935 0-2.412-.556-4.426-1.961-6.996-.08-.185-.238-.291-.397-.291-.053 0-.106 0-.133.026-.132.053-.185.159-.185.318a.8.8 0 0 0 .08.318c1.06 2.464 1.484 3.869 1.484 5.776 0 2.2-.769 3.34-1.246 4.16-1.723 2.942-4.505 4.373-5.618 4.744-.185.08-.212.212-.212.291zm-424.161 74.46a.35.35 0 0 0 .344.344c.133 0 .292-.106.318-.212 0-.027.239-.954.265-1.034.026-.105.265-1.113 1.22-2.676 1.033-1.722 2.623-2.968 3.948-4.822 1.298-1.855 2.093-3.605 2.093-5.936 0-2.412-.556-4.425-1.961-6.996-.08-.185-.239-.291-.397-.291-.053 0-.107 0-.133.026-.132.053-.185.16-.185.318 0 .08.026.212.08.319 1.059 2.464 1.482 3.868 1.482 5.776 0 2.2-.767 3.339-1.244 4.16-1.723 2.941-4.505 4.373-5.618 4.743-.186.08-.212.213-.212.292zm351.958-20.373v20.373h.662V92.696Zm-351.958 0v20.373h.662V92.696Zm424.16-76.115v22.027h.663V16.581Zm52.23 6.619v20.399h.661v-20.4ZM136.22 96.005v18.745h.662V96.005Zm45.076-17.658v22.106h.662V78.347ZM495.901 19.89v22.054h.662V19.89zm45.065 72.806v20.4h.662v-20.4ZM64.392 96.005v18.745h.662V96.005ZM228.37 81.709v22.053h.662V81.71ZM455.1 23.199v20.4h.662v-20.4ZM253.126 84.966v22.107h.662V84.965ZM86.976 18.778v18.797h.662V18.778zm83.03 7.73v20.373h.662V26.509Zm320.648 69.497v18.745h.662V96.005Zm-190.93-19.313v20.452h.663V76.692Zm23.93-53.492v20.399h.662v-20.4ZM198.84 7.196v20.451h.662V7.196ZM627.58 19.89v22.028h.662V19.89ZM343.563 96.005v20.372h.662V96.005Zm-60.712-69.496v18.744h.662V26.51Zm95.886 50.183v20.452h.662V76.692ZM261.96 23.2v20.372h.662V23.2ZM138.224 7.196v20.451h.662V7.196Zm273.418 88.809v18.745h.662V96.005ZM648.472 23.2v20.399h.662v-20.4Zm-426.237 3.309v18.744h.662V26.51Zm334.283-6.619v22.054h.662V19.89Zm-448.651-1.112v18.797h.662V18.778zm206.322-6.982v27.203h1.191V11.796Zm120.153 0v27.203h3.64V11.796Zm-3.64 0v27.203h1.192V11.796Zm-2.447 16.91c0-.768-.609-1.404-1.378-1.404s-1.377.636-1.377 1.404c0 .769.609 1.405 1.377 1.405.769 0 1.378-.636 1.378-1.405m0-6.618c0-.769-.609-1.405-1.378-1.405s-1.377.636-1.377 1.405c0 .768.609 1.404 1.377 1.404.769 0 1.378-.636 1.378-1.404m18.572 6.618c0-.768-.61-1.404-1.378-1.404s-1.377.636-1.377 1.404c0 .769.609 1.405 1.377 1.405.769 0 1.378-.636 1.378-1.405m0-6.618c0-.769-.61-1.405-1.378-1.405s-1.377.636-1.377 1.405c0 .768.609 1.404 1.377 1.404.769 0 1.378-.636 1.378-1.404m-6.396-10.292v27.203h1.192V11.796Zm-6.089 0v27.203h3.64V11.796Zm52.095 0v27.203h1.19V11.796ZM677.36 81.292v27.203H681V81.292Zm-3.64 0v27.203h1.191V81.292Zm6.089-69.496v27.203H681V11.796ZM282.318 81.292v27.203h1.191V81.292Zm249.184 0v27.203h1.191V81.292ZM120.816 11.796v27.203h1.191V11.796ZM0 107.767v.728h681v-.728zm0-6.619v.728h681v-.728zm0-6.619v.728h681v-.728zm0-6.618v.728h681v-.728zm0-6.619v.728h681v-.728Zm0-43.021v.727h681v-.727Zm0-6.62v.728h681v-.727Zm0-6.618v.728h681v-.728zm0-6.619v.728h681v-.728zm0-6.618v.728h681v-.728z"/>
</svg>
