<?xml version="1.0" encoding="UTF-8" standalone="no"?>
<svg
   width="681"
   height="186.66016"
   version="1.2"
   id="svg293"
   xmlns="http://www.w3.org/2000/svg"
   xmlns:svg="http://www.w3.org/2000/svg"
   xmlns:rdf="http://www.w3.org/1999/02/22-rdf-syntax-ns#"
   xmlns:cc="http://creativecommons.org/ns#"
   xmlns:dc="http://purl.org/dc/elements/1.1/">
  <defs
     id="defs293" />
  <title
     id="title1">air_II</title>
  <desc
     id="desc1">Generated by MuseScore Studio 4.7.3</desc>
  <path
     id="path293"
     class="NoteDot"
     d="m 283.8941,165.14948 c 0,0.74229 0.58225,1.32489 1.32489,1.32489 0.74115,0 1.32488,-0.58226 1.32488,-1.32489 0,-0.74229 -0.58339,-1.32489 -1.32488,-1.32489 -0.74229,0 -1.32489,0.58226 -1.32489,1.32489 m 325.92124,-6.61892 c 0,0.74229 0.58339,1.32488 1.32489,1.32488 0.74229,0 1.32488,-0.58225 1.32488,-1.32488 0,-0.74229 -0.58225,-1.32489 -1.32488,-1.32489 -0.74116,0 -1.32489,0.58226 -1.32489,1.32489 M 257.84349,6.3004679 c 0,0.7419495 0.58225,1.3249059 1.32488,1.3249059 0.74116,0 1.32489,-0.5829587 1.32489,-1.3249059 0,-0.7419495 -0.58339,-1.324906 -1.32489,-1.324906 -0.74229,0 -1.32488,0.5829587 -1.32488,1.324906 M 143.7887,151.91163 c 0,0.74229 0.58226,1.32489 1.32489,1.32489 0.74229,0 1.32488,-0.58225 1.32488,-1.32489 0,-0.74229 -0.58225,-1.32488 -1.32488,-1.32488 -0.74229,0 -1.32489,0.58225 -1.32489,1.32488 m 90.59394,-49.64034 c 0,0.74206 0.58226,1.32491 1.32489,1.32491 0.74229,0 1.32488,-0.58283 1.32488,-1.32491 0,-0.74127 -0.58225,-1.32491 -1.32488,-1.32491 -0.74229,0 -1.32489,0.58362 -1.32489,1.32491 M 454.55479,19.537839 c 0,0.741949 0.58225,1.324908 1.32488,1.324908 0.74229,0 1.32489,-0.582936 1.32489,-1.324908 0,-0.74195 -0.58226,-1.324908 -1.32489,-1.324908 -0.74229,0 -1.32488,0.582936 -1.32488,1.324908 M 335.60866,102.27129 c 0,0.74206 0.58226,1.32491 1.32489,1.32491 0.74229,0 1.32488,-0.58283 1.32488,-1.32491 0,-0.74127 -0.58225,-1.32491 -1.32488,-1.32491 -0.74229,0 -1.32489,0.58362 -1.32489,1.32491 m 310.30737,-6.618131 c 0,0.741268 0.58225,1.324908 1.32488,1.324908 0.74116,0 1.32489,-0.583617 1.32489,-1.324908 0,-0.742063 -0.58339,-1.324908 -1.32489,-1.324908 -0.74229,0 -1.32488,0.582822 -1.32488,1.324908 m -101.22601,6.618131 c 0,0.74206 0.58225,1.32491 1.32488,1.32491 0.74116,0 1.32489,-0.58283 1.32489,-1.32491 0,-0.74127 -0.58339,-1.32491 -1.32489,-1.32491 -0.74229,0 -1.32488,0.58362 -1.32488,1.32491 M 648.93649,32.774969 c 0,0.742063 0.58225,1.324909 1.32488,1.324909 0.74229,0 1.32489,-0.582823 1.32489,-1.324909 0,-0.741268 -0.58226,-1.324908 -1.32489,-1.324908 -0.74229,0 -1.32488,0.583617 -1.32488,1.324908 M 436.83467,89.034237 c 0,0.742063 0.58225,1.324909 1.32488,1.324909 0.74229,0 1.32489,-0.582823 1.32489,-1.324909 0,-0.742063 -0.58226,-1.324908 -1.32489,-1.324908 -0.74229,0 -1.32488,0.582823 -1.32488,1.324908 m 109.98,-62.877392 c 0,0.741268 0.58226,1.324908 1.32489,1.324908 0.74115,0 1.32488,-0.583617 1.32488,-1.324908 0,-0.742063 -0.58339,-1.324909 -1.32488,-1.324909 -0.74229,0 -1.32489,0.582823 -1.32489,1.324909 m -46.26444,147.262295 73.67518,4.96338 v 3.31747 l -73.67518,-4.96419 v -3.31666 M 294.50055,32.773369 327.92821,34.4281 v 3.313463 L 294.50055,36.086835 V 32.773369 M 196.26218,183.35073 h 57.44968 v 3.30943 h -57.44968 v -3.30943 M 103.40349,42.703358 h 33.42765 v 3.309467 H 103.40349 V 42.703358 M 476.513,113.8544 h 37.88671 v 3.30944 H 476.513 V 113.8544 M 595.09407,2.9890838 628.52173,4.643815 V 7.9572013 L 595.09407,6.3024689 V 2.9890838 M 375.28699,103.92602 h 37.8867 v 3.30947 h -37.8867 v -3.30947 m -37.09897,-66.188457 33.42765,1.654731 v 3.312668 l -33.42765,-1.653934 v -3.313462 m -174.86757,-0.01521 11.58392,1.654728 v 3.343086 l -11.58392,-1.654732 v -3.343085 m 252.04834,135.699187 57.44968,-1.65393 v 3.31023 l -57.44968,1.65471 v -3.31102 m 176.94098,-104.257691 37.88751,4.964195 v 3.337479 l -37.88751,-4.96418 V 69.16385 m -101.09792,-31.426287 33.42766,1.654731 v 3.312668 l -33.42766,-1.653934 v -3.313465 m -383.59989,74.455707 37.88671,-3.30946 v 3.32227 l -37.88671,3.30946 v -3.32227 m 73.16523,-39.719956 37.8867,4.964194 v 3.337479 l -37.8867,-4.964192 v -3.337481 m 93.28378,39.726366 h 37.88671 v 3.30946 h -37.88671 v -3.30946 m -71.8203,-77.77158 33.42765,-1.654731 v 3.313462 l -33.42765,1.654728 v -3.313462 m 196.7113,8.267249 33.42765,-3.309467 v 3.325471 l -33.42765,3.309477 V 42.695353 M 64.099015,141.98404 h 57.449675 v 3.30947 H 64.099015 v -3.30944 m 275.552405,36.39609 57.44968,-4.96335 v 3.32146 l -57.44968,4.96413 v -3.32227 M 64.099015,77.437508 101.98572,72.473314 v 3.337479 L 64.099015,80.77499 v -3.337482 m -9.25833,-59.33345 c -0.66284,0.423923 -1.139983,1.19242 -1.139983,2.040356 0,0.105993 0,0.212018 0.02642,0.318027 0.132909,1.086422 1.007086,1.934357 2.093429,2.066857 h 0.291354 c 1.324908,0 2.384828,-1.059976 2.384828,-2.384828 v -0.159013 c 0,-0.105992 -0.02642,-0.291468 -0.05284,-0.397477 -0.238577,-1.139415 -1.272074,-3.577248 -5.776752,-3.577248 -5.775947,0 -6.438799,4.796158 -6.438799,6.518532 0,3.153677 0.397818,7.101173 7.022404,7.101173 2.623394,0 4.663193,-1.536245 4.769668,-4.371793 0,-0.132908 -0.08006,-0.212131 -0.212132,-0.212131 h -0.344245 c -0.106474,0 -0.212132,0.106473 -0.212132,0.212131 -0.106473,2.199108 -1.669937,3.524005 -4.001136,3.524005 -2.305582,0 -3.418336,-1.244857 -3.418336,-3.57685 v -5.061385 c 0,-1.483899 0.582822,-3.179771 2.941216,-3.179771 1.245651,0 1.802028,0.450481 2.093428,0.900963 0.02642,0.053 0.02642,0.07949 0.02642,0.132454 0,0.0265 0,0.0795 -0.05284,0.105992 M 37.732186,11.859229 c 0,2.093349 -1.086308,3.206273 -2.623393,4.425183 l 0.07925,-5.167132 c 0.05284,-0.238487 0.450709,-1.006927 1.510629,-1.006927 0.9534,0 1.033531,0.90094 1.033531,1.457397 v 0.291468 M 37.413612,8.8119334 c -1.324908,0 -2.092633,0.8214449 -2.225519,0.9804357 l 0.105672,-8.5058965 c 0,-0.2119851 -0.15856,-0.37097366 -0.370691,-0.37097366 h -0.3178 c -0.212132,0 -0.371486,0.15898856 -0.371486,0.37097366 l 0.132909,15.9253684 c 0,0.212018 0.159354,0.370918 0.370691,0.370918 0.05364,0 0.159354,-0.0265 0.212131,-0.05299 2.27916,-1.139415 4.663988,-3.312259 4.663988,-6.041571 0,-1.377902 -0.636395,-2.6763106 -2.199903,-2.6763106 M 30.371985,21.787234 c 0,2.093587 -1.086309,3.206352 -2.623394,4.425592 l 0.07925,-5.16753 c 0.05284,-0.238464 0.450708,-1.006972 1.510628,-1.006972 0.954308,0 1.033531,0.900963 1.033531,1.457397 v 0.291468 m -0.3178,-3.047282 c -1.324908,0 -2.093428,0.821399 -2.226325,0.980413 l 0.106473,-8.505896 c 0,-0.211984 -0.159354,-0.370974 -0.371485,-0.370974 h -0.3178 c -0.212132,0 -0.370691,0.15899 -0.370691,0.370974 l 0.132114,15.925369 c 0,0.212132 0.159354,0.370691 0.371485,0.370691 0.05284,0 0.15856,-0.02642 0.211337,-0.05284 2.27916,-1.139177 4.663988,-3.311862 4.663988,-6.041412 0,-1.377902 -0.6356,-2.676308 -2.199108,-2.676308 m 7.678048,62.615374 c 0,2.093428 -1.086309,3.206193 -2.623394,4.425422 l 0.07926,-5.167531 c 0.05283,-0.237782 0.450708,-1.006291 1.510628,-1.006291 0.9534,0 1.033531,0.900623 1.033531,1.457 v 0.291354 m -0.318594,-3.046884 c -1.324909,0 -2.092634,0.821399 -2.22552,0.979845 l 0.105672,-8.505815 c 0,-0.211337 -0.158559,-0.370691 -0.370691,-0.370691 h -0.3178 c -0.212131,0 -0.371485,0.159354 -0.371485,0.370691 l 0.132908,15.925289 c 0,0.212131 0.159354,0.371485 0.370691,0.371485 0.05364,0 0.159354,-0.02642 0.212132,-0.05284 2.279159,-1.139983 4.663987,-3.312668 4.663987,-6.04173 0,-1.377743 -0.636394,-2.676228 -2.199902,-2.676228 m -7.04162,12.975272 c 0,2.093428 -1.086308,3.206194 -2.623393,4.425422 l 0.07925,-5.16753 c 0.05284,-0.238577 0.450709,-1.007086 1.510628,-1.007086 0.954308,0 1.033531,0.901417 1.033531,1.457794 v 0.291355 m -0.3178,-3.047679 c -1.324908,0 -2.093428,0.821399 -2.226325,0.98064 l 0.106473,-8.505815 c 0,-0.212132 -0.159354,-0.370691 -0.371485,-0.370691 h -0.3178 c -0.212132,0 -0.370691,0.158559 -0.370691,0.370691 l 0.132114,15.925288 c 0,0.212132 0.159354,0.370691 0.371485,0.370691 0.05284,0 0.15856,-0.02642 0.211337,-0.05284 2.27916,-1.139176 4.663988,-3.311861 4.663988,-6.041729 0,-1.377743 -0.6356,-2.676228 -2.199108,-2.676228 m 7.678048,62.615621 c 0,2.09339 -1.086309,3.20614 -2.623394,4.42536 l 0.07925,-5.16754 c 0.05284,-0.23722 0.450709,-1.00675 1.510628,-1.00675 0.9534,0 1.033531,0.90119 1.033531,1.457 v 0.2917 m -0.318594,-3.04691 c -1.324908,0 -2.092634,0.82174 -2.225519,0.97951 l 0.105671,-8.50581 c 0,-0.21111 -0.158559,-0.37114 -0.370691,-0.37114 h -0.3178 c -0.212131,0 -0.371485,0.1589 -0.371485,0.37114 l 0.132908,15.92529 c 0,0.21225 0.159354,0.37115 0.370691,0.37115 0.05364,0 0.159354,-0.0264 0.212132,-0.0528 2.279159,-1.13999 4.663987,-3.31261 4.663987,-6.04172 0,-1.37778 -0.636394,-2.67622 -2.199902,-2.67622 m -7.041619,12.97528 c 0,2.09339 -1.086309,3.20615 -2.623394,4.42548 l 0.07925,-5.16754 c 0.05284,-0.23835 0.450708,-1.00675 1.510628,-1.00675 0.954308,0 1.033531,0.90119 1.033531,1.4578 v 0.29169 m -0.3178,-3.0477 c -1.324908,0 -2.093428,0.82174 -2.226325,0.98064 l 0.106473,-8.50581 c 0,-0.21224 -0.159354,-0.37114 -0.371486,-0.37114 h -0.3178 c -0.212131,0 -0.370691,0.1589 -0.370691,0.37114 l 0.132114,15.92529 c 0,0.21225 0.159354,0.37115 0.371486,0.37115 0.05284,0 0.158559,-0.0264 0.211337,-0.0528 2.279159,-1.1392 4.663987,-3.31181 4.663987,-6.04172 0,-1.37777 -0.6356,-2.67621 -2.199108,-2.67621 M 16.0933,173.91715 c -0.529931,0.10648 -1.033417,0.1589 -1.536892,0.1589 -3.789231,0 -7.0220018,-2.64977 -7.0220018,-6.65099 0,-3.23338 2.2788382,-6.12094 4.6106728,-8.13522 0.450482,-0.39839 0.874404,-0.7684 1.271915,-1.16553 0.238464,1.43055 0.423923,2.67621 0.609495,3.76252 -2.41133,0.71505 -4.0542118,3.25904 -4.0542118,5.74957 0,1.85482 1.4573958,4.39903 3.5772458,4.39903 0.212018,0 0.450481,-0.10566 0.450481,-0.3439 0,-0.23835 -0.265022,-0.37115 -0.582936,-0.58226 -1.033417,-0.63673 -1.616388,-1.32488 -1.616388,-2.62343 0,-1.61636 1.19242,-2.9148 2.755803,-3.28628 l 1.536892,8.71793 m -2.331909,-27.24057 c 0.238463,-1.06009 1.457396,-3.84186 2.835298,-3.84186 0.397477,0 1.033417,1.29844 1.033417,3.12693 0,2.75544 -2.040355,4.8225 -3.868727,6.62454 -0.159013,-1.06009 -0.291468,-2.0934 -0.291468,-3.20615 0,-0.98064 0.0795,-1.88206 0.291468,-2.70346 m 6.094564,22.33848 c 0,1.88127 -0.768395,3.81542 -2.649816,4.58393 -0.556491,-3.17982 -1.271915,-7.39305 -1.457397,-8.5587 2.384828,0 4.107213,1.61636 4.107213,3.97466 M 8.1968713,182.05224 c 0,1.74835 1.3514047,4.05399 4.9286497,4.05399 1.245413,0 2.331835,-0.3178 3.285769,-0.90119 1.430894,-1.00674 1.801869,-2.75623 1.801869,-4.42536 0,-1.03399 -0.159014,-2.22551 -0.423923,-3.73619 -0.07949,-0.53005 -0.238463,-1.32489 -0.397477,-2.35842 2.596812,-0.84785 4.531181,-3.55039 4.531181,-6.2803 0,-4.0011 -2.835298,-6.70376 -6.704025,-6.70376 -0.265022,-1.58991 -0.529931,-3.15337 -0.768395,-4.63682 2.808796,-2.94203 4.743165,-6.25385 4.743165,-10.46719 0,-2.4112 -0.741949,-4.3718 -1.165917,-5.32599 -0.635941,-1.35133 -1.404404,-2.27919 -1.881365,-2.27919 -0.185459,0 -1.006972,0.31893 -1.881364,1.35133 -1.695883,2.01417 -2.172844,5.40612 -2.172844,7.63162 0,1.43135 0.132454,2.72991 0.582936,5.69748 -0.0265,0.0264 -1.404401,1.43055 -1.96086,1.88126 -2.4113295,2.25195 -5.750092,5.4581 -5.750092,10.75776 0,4.95541 4.3191926,8.85084 9.247843,8.85084 0.768395,0 1.483899,-0.0793 2.093348,-0.18614 0.503486,2.5441 0.794954,4.39903 0.794954,5.80314 0,2.75544 -1.404403,4.21323 -4.080711,4.21323 -0.63594,0 -1.192419,-0.13279 -1.245412,-0.13279 -0.0265,-0.0264 -0.07949,-0.0528 -0.07949,-0.0793 0,-0.0528 0.053,-0.0793 0.132455,-0.10567 1.245413,-0.18614 2.490825,-1.24566 2.490825,-2.94123 0,-1.43135 -1.086422,-2.94124 -3.073782,-2.94124 -1.8548677,0 -3.0472839,1.50977 -3.0472839,3.25904 M 16.093311,34.924439 c -0.529931,0.106473 -1.033417,0.159354 -1.536892,0.159354 -3.789231,0 -7.0220018,-2.649816 -7.0220018,-6.650952 0,-3.233411 2.2788382,-6.121384 4.6106728,-8.135249 0.450482,-0.397477 0.874404,-0.768395 1.271915,-1.165917 0.238464,1.430894 0.423923,2.676307 0.609495,3.762729 -2.41133,0.715163 -4.0542118,3.259266 -4.0542118,5.749774 0,1.854873 1.4573958,4.39901 3.5772458,4.39901 0.212018,0 0.450481,-0.105672 0.450481,-0.344245 0,-0.238577 -0.265022,-0.371486 -0.582936,-0.582823 -1.033417,-0.636394 -1.616388,-1.324908 -1.616388,-2.623394 0,-1.616308 1.19242,-2.914793 2.755803,-3.286245 l 1.536892,8.717958 M 13.761477,7.6844539 C 13.99994,6.6245342 15.218873,3.842227 16.596775,3.842227 c 0.397477,0 1.033417,1.2984082 1.033417,3.1267786 0,2.7558038 -2.040355,4.8226574 -3.868727,6.6245284 -0.159013,-1.059976 -0.291468,-2.093349 -0.291468,-3.206272 0,-0.9804353 0.0795,-1.8813666 0.291468,-2.7028081 m 6.094564,22.3382331 c 0,1.881286 -0.768395,3.815405 -2.649816,4.583936 -0.556491,-3.17977 -1.271915,-7.393049 -1.457397,-8.558649 2.384828,0 4.107213,1.616308 4.107213,3.974713 M 8.1968713,43.059602 c 0,1.748399 1.3514047,4.05397 4.9286497,4.05397 1.245413,0 2.331835,-0.3178 3.285769,-0.900623 1.430894,-1.007085 1.801869,-2.75629 1.801869,-4.425421 0,-1.033531 -0.159014,-2.22552 -0.423923,-3.736159 -0.07949,-0.529932 -0.238463,-1.324908 -0.397477,-2.358417 2.596812,-0.847731 4.531181,-3.550427 4.531181,-6.280295 0,-4.001136 -2.835298,-6.703787 -6.704025,-6.703787 -0.265022,-1.589885 -0.529931,-3.15328 -0.768395,-4.637167 2.808796,-2.941296 4.743165,-6.253555 4.743165,-10.4667569 0,-2.4113291 -0.741949,-4.3721892 -1.165917,-5.3261215 C 17.391718,0.9274346 16.623274,0 16.146307,0 c -0.185459,0 -1.006972,0.31797706 -1.881365,1.3514036 -1.695883,2.0138578 -2.172844,5.4056169 -2.172844,7.6314586 0,1.4308978 0.132455,2.7293058 0.582936,5.6970948 -0.0265,0.0265 -1.4044,1.430895 -1.96086,1.881365 -2.4113289,2.252339 -5.7500915,5.458612 -5.7500915,10.757916 0,4.955387 4.3191926,8.850855 9.2478425,8.850855 0.768395,0 1.483899,-0.07926 2.093349,-0.185686 0.503486,2.544136 0.794954,4.39901 0.794954,5.803164 0,2.755485 -1.404404,4.213279 -4.080711,4.213279 -0.635941,0 -1.19242,-0.132909 -1.245413,-0.132909 -0.0265,-0.02642 -0.07949,-0.05284 -0.07949,-0.07925 0,-0.05284 0.053,-0.07926 0.132454,-0.105673 1.245413,-0.185686 2.490826,-1.245652 2.490826,-2.941217 0,-1.431382 -1.086422,-2.941216 -3.073782,-2.941216 -1.8548682,0 -3.0472844,1.509834 -3.0472844,3.259028 m 7.8964404,61.361147 c -0.529932,0.10648 -1.033418,0.15936 -1.536892,0.15936 -3.789232,0 -7.0220025,-2.64982 -7.0220025,-6.65095 0,-3.233411 2.2788382,-6.120987 4.6106735,-8.135158 0.450481,-0.397818 0.874404,-0.768509 1.271915,-1.1656 0.238463,1.430577 0.423922,2.676228 0.609495,3.76257 -2.411331,0.714937 -4.0542125,3.259028 -4.0542125,5.749536 0,1.854862 1.4573955,4.399012 3.5772455,4.399012 0.212018,0 0.450481,-0.10568 0.450481,-0.34425 0,-0.23858 -0.265022,-0.37149 -0.582936,-0.58282 -1.033417,-0.6364 -1.616387,-1.32491 -1.616387,-2.623393 0,-1.616309 1.192419,-2.914794 2.755803,-3.286245 l 1.536892,8.717958 M 13.761481,77.180532 c 0.238464,-1.059976 1.457397,-3.841827 2.835298,-3.841827 0.397477,0 1.033418,1.298485 1.033418,3.126936 0,2.755485 -2.040356,4.822502 -3.868727,6.62453 -0.159014,-1.059977 -0.291468,-2.093428 -0.291468,-3.206194 0,-0.98064 0.07949,-1.882091 0.291468,-2.703445 m 6.094564,22.338473 c 0,1.881285 -0.768395,3.815405 -2.649816,4.583935 -0.556491,-3.17977 -1.271916,-7.39306 -1.457397,-8.558648 2.384828,0 4.107213,1.616308 4.107213,3.974713 M 8.1968713,112.55592 c 0,1.7484 1.3514047,4.05397 4.9286497,4.05397 1.245413,0 2.331835,-0.3178 3.285769,-0.90006 1.430894,-1.00674 1.801869,-2.75629 1.801869,-4.42543 0,-1.03353 -0.159014,-2.22552 -0.423923,-3.73616 -0.07949,-0.52993 -0.238463,-1.32491 -0.397477,-2.35841 2.596812,-0.84774 4.531181,-3.55043 4.531181,-6.280299 0,-4.001136 -2.835298,-6.703787 -6.704025,-6.703787 -0.265022,-1.589885 -0.529931,-3.153359 -0.768395,-4.63677 2.808796,-2.942011 4.743165,-6.253873 4.743165,-10.467152 0,-2.41125 -0.741949,-4.371793 -1.165917,-5.326044 -0.635941,-1.35132 -1.404404,-2.279159 -1.881365,-2.279159 -0.185459,0 -1.006972,0.318594 -1.881364,1.351319 -1.695883,2.014183 -2.172844,5.406096 -2.172844,7.631615 0,1.431383 0.132454,2.729868 0.582936,5.697496 -0.0265,0.02642 -1.404401,1.430577 -1.96086,1.881285 -2.4113295,2.251942 -5.750092,5.458136 -5.750092,10.757757 0,4.955389 4.3191926,8.850859 9.247843,8.850859 0.768395,0 1.483899,-0.0793 2.093348,-0.18569 0.503486,2.54414 0.794954,4.39901 0.794954,5.80316 0,2.75548 -1.404403,4.21329 -4.080711,4.21329 -0.63594,0 -1.192419,-0.13279 -1.245412,-0.13279 -0.0265,-0.0264 -0.07949,-0.0528 -0.07949,-0.0793 0,-0.0528 0.053,-0.0792 0.132455,-0.10567 1.245413,-0.18614 2.490825,-1.24566 2.490825,-2.9412 0,-1.43138 -1.086422,-2.94121 -3.073782,-2.94121 -1.8548677,0 -3.0472839,1.50984 -3.0472839,3.25903 M 431.71757,17.341457 c 0,1.139415 0.82174,2.41133 2.96848,2.41133 2.75543,0 5.6439,-2.252339 5.6439,-4.584174 0,-1.563383 -1.32489,-2.437821 -2.96757,-2.437821 -2.57055,0 -5.6447,2.172844 -5.6447,4.610677 M 294.50055,10.722772 c 0,1.139418 0.82174,2.411329 2.96757,2.411329 2.75623,0 5.6439,-2.252341 5.6439,-4.5841755 0,-1.5633887 -1.32488,-2.4378268 -2.96768,-2.4378268 -2.56976,0 -5.6439,2.1728463 -5.6439,4.6106733 M 253.0498,162.95278 c 0,1.1392 0.82174,2.41119 2.96758,2.41119 2.75634,0 5.64469,-2.25195 5.64469,-4.58392 0,-1.56346 -1.32488,-2.43764 -2.96848,-2.43764 -2.56975,0 -5.6439,2.17273 -5.6439,4.61037 M 266.5022,7.4133887 c 0,1.1394197 0.82174,2.4113291 2.96768,2.4113291 2.75624,0 5.6447,-2.2523406 5.6447,-4.5841742 0,-1.5633899 -1.32489,-2.4378268 -2.96837,-2.4378268 -2.56975,0 -5.6439,2.1728451 -5.6439,4.6106719 M 234.12087,159.64331 c 0,1.1392 0.82174,2.4112 2.96768,2.4112 2.75544,0 5.6439,-2.25196 5.6439,-4.58393 0,-1.56346 -1.32488,-2.43764 -2.96757,-2.43764 -2.57055,0 -5.6439,2.17273 -5.6439,4.61037 M 305.42242,7.4133887 c 0,1.1394197 0.82174,2.4113291 2.96757,2.4113291 2.75634,0 5.64469,-2.2523406 5.64469,-4.5841742 0,-1.5633899 -1.32488,-2.4378268 -2.96848,-2.4378268 -2.56975,0 -5.6439,2.1728451 -5.6439,4.6106719 M 215.19112,169.5717 c 0,1.1392 0.82174,2.41131 2.96768,2.41131 2.75635,0 5.6447,-2.25275 5.6447,-4.58393 0,-1.56346 -1.32489,-2.43843 -2.96848,-2.43843 -2.56975,0 -5.6439,2.17353 -5.6439,4.61116 M 316.34428,10.722772 c 0,1.139418 0.82174,2.411329 2.96757,2.411329 2.75624,0 5.6447,-2.252341 5.6447,-4.5841755 0,-1.5633887 -1.32489,-2.4378268 -2.96848,-2.4378268 -2.56975,0 -5.6439,2.1728463 -5.6439,4.6106733 m -8.37122,162.158398 c 0,1.1392 0.82174,2.41119 2.96848,2.41119 2.75544,0 5.6439,-2.25275 5.6439,-4.58472 0,-1.56266 -1.32488,-2.43764 -2.96757,-2.43764 -2.57054,0 -5.64469,2.17273 -5.64469,4.61117 M 196.26218,156.33386 c 0,1.13999 0.82174,2.4113 2.96768,2.4113 2.75544,0 5.64391,-2.25195 5.64391,-4.58392 0,-1.56346 -1.32489,-2.43764 -2.96758,-2.43764 -2.57054,0 -5.6439,2.17273 -5.6439,4.61037 M 327.26626,17.341571 c 0,1.139415 0.82174,2.41133 2.96769,2.41133 2.75623,0 5.64469,-2.252339 5.64469,-4.584174 0,-1.563383 -1.32488,-2.437821 -2.96848,-2.437821 -2.56975,0 -5.6439,2.172844 -5.6439,4.610676 m 10.92188,-3.309387 c 0,1.139415 0.82174,2.41133 2.96757,2.41133 2.75635,0 5.6447,-2.25234 5.6447,-4.584174 0,-1.56339 -1.32489,-2.4378272 -2.96769,-2.4378272 -2.57054,0 -5.64469,2.1728452 -5.64469,4.6106722 m -92.2599,-3.309424 c 0,1.139418 0.82174,2.411329 2.96848,2.411329 2.75544,0 5.6439,-2.252341 5.6439,-4.5841755 0,-1.5633887 -1.32488,-2.4378268 -2.96757,-2.4378268 -2.57055,0 -5.64469,2.1728463 -5.64469,4.6106733 M 167.86757,156.33386 c 0,1.13999 0.82174,2.4113 2.96836,2.4113 2.75544,0 5.6439,-2.25195 5.6439,-4.58392 0,-1.56346 -1.32488,-2.43764 -2.96768,-2.43764 -2.57055,0 -5.6447,2.17273 -5.6447,4.61037 M 349.10988,17.341457 c 0,1.139415 0.82174,2.41133 2.96848,2.41133 2.75544,0 5.6439,-2.252339 5.6439,-4.584174 0,-1.563383 -1.32488,-2.437821 -2.96757,-2.437821 -2.57055,0 -5.64469,2.172844 -5.64469,4.610677 m 10.92187,3.309308 c 0,1.139415 0.82174,2.41133 2.96848,2.41133 2.75544,0 5.6439,-2.252339 5.6439,-4.584174 0,-1.563395 -1.32488,-2.437821 -2.96757,-2.437821 -2.57054,0 -5.64469,2.172844 -5.64469,4.610676 M 235.00627,7.4133887 c 0,1.1394197 0.82174,2.4113291 2.96848,2.4113291 2.75544,0 5.6439,-2.2523406 5.6439,-4.5841742 0,-1.5633899 -1.32489,-2.4378268 -2.96757,-2.4378268 -2.57055,0 -5.6447,2.1728451 -5.6447,4.6106719 M 131.87347,153.02439 c 0,1.13999 0.82174,2.41199 2.96848,2.41199 2.75544,0 5.6439,-2.25275 5.6439,-4.58472 0,-1.56346 -1.32488,-2.43764 -2.96768,-2.43764 -2.57055,0 -5.6447,2.17273 -5.6447,4.61037 M 370.95363,23.960143 c 0,1.139177 0.82174,2.411251 2.96836,2.411251 2.75544,0 5.6439,-2.251943 5.6439,-4.584095 0,-1.563383 -1.32488,-2.437821 -2.96768,-2.437821 -2.57055,0 -5.6447,2.172844 -5.6447,4.610676 M 112.94441,169.5717 c 0,1.1392 0.8214,2.41131 2.96763,2.41131 2.75634,0 5.64469,-2.25275 5.64469,-4.58393 0,-1.56346 -1.32488,-2.43843 -2.96836,-2.43843 -2.56976,0 -5.64387,2.17353 -5.64387,4.61116 M 398.95197,27.269605 c 0,1.139177 0.82174,2.411251 2.96768,2.411251 2.75624,0 5.6447,-2.252737 5.6447,-4.583936 0,-1.563474 -1.32489,-2.438071 -2.96757,-2.438071 -2.57055,0 -5.6447,2.173083 -5.6447,4.610756 M 94.015466,162.95278 c 0,1.1392 0.8214,2.41119 2.967628,2.41119 2.755485,0 5.643856,-2.25195 5.643856,-4.58392 0,-1.56346 -1.32491,-2.43764 -2.967628,-2.43764 -2.570559,0 -5.643856,2.17273 -5.643856,4.61037 M 224.0844,10.722772 c 0,1.139418 0.82174,2.411329 2.96757,2.411329 2.75635,0 5.6447,-2.252341 5.6447,-4.5841755 0,-1.5633887 -1.32489,-2.4378268 -2.96769,-2.4378268 -2.57055,0 -5.64469,2.1728463 -5.64469,4.6106733 M 75.085726,166.26225 c 0,1.1392 0.8214,2.41119 2.967628,2.41119 2.75628,0 5.64465,-2.25195 5.64465,-4.58392 0,-1.56347 -1.324908,-2.43764 -2.968433,-2.43764 -2.569754,0 -5.643856,2.17273 -5.643856,4.61037 M 409.87383,23.960143 c 0,1.139177 0.82174,2.411251 2.96848,2.411251 2.75544,0 5.6439,-2.251943 5.6439,-4.584095 0,-1.563383 -1.32488,-2.437821 -2.96768,-2.437821 -2.57055,0 -5.6447,2.172844 -5.6447,4.610676 M 339.65142,162.95278 c 0,1.1392 0.82174,2.41119 2.96768,2.41119 2.75544,0 5.6439,-2.25195 5.6439,-4.58392 0,-1.56346 -1.32488,-2.43764 -2.96757,-2.43764 -2.57055,0 -5.6439,2.17273 -5.6439,4.61037 m -283.494632,6.61886 c 0,1.1392 0.821399,2.41131 2.967628,2.41131 2.755484,0 5.643855,-2.25275 5.643855,-4.58392 0,-1.56346 -1.324908,-2.43844 -2.967628,-2.43844 -2.570559,0 -5.643855,2.17353 -5.643855,4.61117 M 420.7957,20.65076 c 0,1.139415 0.82174,2.41133 2.96848,2.41133 2.75544,0 5.6439,-2.252339 5.6439,-4.584174 0,-1.563395 -1.32489,-2.437821 -2.96757,-2.437821 -2.57055,0 -5.6447,2.172844 -5.6447,4.610676 M 213.16253,14.032074 c 0,1.139415 0.82174,2.41133 2.96758,2.41133 2.75634,0 5.64469,-2.252339 5.64469,-4.584174 0,-1.56339 -1.32489,-2.4378265 -2.96768,-2.4378265 -2.57055,0 -5.6447,2.1728455 -5.6447,4.6106715 M 358.58036,156.33386 c 0,1.13999 0.82174,2.4113 2.96848,2.4113 2.75544,0 5.6439,-2.25195 5.6439,-4.58392 0,-1.56346 -1.32489,-2.43764 -2.96757,-2.43764 -2.57055,0 -5.6447,2.17273 -5.6447,4.61037 m 18.92975,3.30943 c 0,1.1392 0.82174,2.4112 2.96768,2.4112 2.75544,0 5.6439,-2.25196 5.6439,-4.58393 0,-1.56346 -1.32488,-2.43764 -2.96757,-2.43764 -2.57055,0 -5.6439,2.17273 -5.6439,4.61037 M 246.06263,90.146998 c 0,1.139177 0.82174,2.411251 2.96769,2.411251 2.75623,0 5.64469,-2.251942 5.64469,-4.583936 0,-1.563474 -1.32488,-2.437662 -2.96848,-2.437662 -2.56975,0 -5.6439,2.172685 -5.6439,4.610359 M 442.64024,20.65076 c 0,1.139415 0.82174,2.41133 2.96768,2.41133 2.75544,0 5.6439,-2.252339 5.6439,-4.584174 0,-1.563395 -1.32488,-2.437821 -2.96768,-2.437821 -2.57055,0 -5.6439,2.172844 -5.6439,4.610676 M 202.24067,17.341457 c 0,1.139415 0.82174,2.41133 2.96768,2.41133 2.75624,0 5.6447,-2.252339 5.6447,-4.584174 0,-1.563383 -1.32489,-2.437821 -2.96848,-2.437821 -2.56976,0 -5.6439,2.172844 -5.6439,4.610677 m 260.97284,0 c 0,1.139415 0.82174,2.41133 2.96768,2.41133 2.75624,0 5.6447,-2.25234 5.6447,-4.584174 0,-1.563383 -1.32489,-2.437821 -2.96768,-2.437821 -2.57055,0 -5.6447,2.172844 -5.6447,4.610676 m -66.77446,135.68291 c 0,1.13999 0.82174,2.41199 2.96769,2.41199 2.75623,0 5.64469,-2.25275 5.64469,-4.58472 0,-1.56346 -1.32488,-2.43764 -2.96848,-2.43764 -2.56975,0 -5.6439,2.17273 -5.6439,4.61037 m 237.56163,-52.949 c 0,1.13917 0.82174,2.41125 2.96837,2.41125 2.75544,0 5.6439,-2.25274 5.6439,-4.583938 0,-1.563474 -1.32489,-2.438468 -2.96769,-2.438468 -2.57054,0 -5.64469,2.173491 -5.64469,4.611156 M 491.21185,14.032074 c 0,1.139415 0.82174,2.41133 2.96768,2.41133 2.75624,0 5.6447,-2.252339 5.6447,-4.584174 0,-1.56339 -1.32489,-2.4378265 -2.96848,-2.4378265 -2.56975,0 -5.6439,2.1728455 -5.6439,4.6106715 M 621.593,100.07539 c 0,1.13917 0.82174,2.41125 2.96768,2.41125 2.75544,0 5.6439,-2.25274 5.6439,-4.583937 0,-1.563474 -1.32488,-2.438468 -2.96757,-2.438468 -2.57054,0 -5.6439,2.173491 -5.6439,4.611155 M 174.24232,23.960143 c 0,1.139177 0.82174,2.411251 2.96848,2.411251 2.75544,0 5.6439,-2.251943 5.6439,-4.584095 0,-1.563383 -1.32489,-2.437821 -2.96769,-2.437821 -2.57055,0 -5.64469,2.172844 -5.64469,4.610676 m 434.94219,72.805769 c 0,1.139177 0.82174,2.411251 2.96768,2.411251 2.75544,0 5.6439,-2.252737 5.6439,-4.583936 0,-1.563474 -1.32488,-2.438468 -2.96768,-2.438468 -2.57055,0 -5.6439,2.173491 -5.6439,4.611153 M 502.13372,17.341457 c 0,1.139415 0.82174,2.41133 2.96768,2.41133 2.75635,0 5.6447,-2.252339 5.6447,-4.584174 0,-1.563383 -1.32489,-2.437821 -2.96848,-2.437821 -2.56976,0 -5.6439,2.172844 -5.6439,4.610677 m 94.64231,76.115003 c 0,1.139177 0.82174,2.411251 2.96769,2.411251 2.75623,0 5.6439,-2.251942 5.6439,-4.583936 0,-1.563474 -1.32489,-2.437662 -2.96769,-2.437662 -2.56975,0 -5.6439,2.172685 -5.6439,4.610347 M 513.05558,20.65076 c 0,1.139415 0.82174,2.41133 2.96757,2.41133 2.75635,0 5.6447,-2.252339 5.6447,-4.584174 0,-1.563395 -1.32489,-2.437821 -2.96848,-2.437821 -2.56975,0 -5.6439,2.172844 -5.6439,4.610676 M 415.36879,156.33386 c 0,1.13999 0.82174,2.4113 2.96757,2.4113 2.75544,0 5.6439,-2.25195 5.6439,-4.58392 0,-1.56346 -1.32489,-2.43764 -2.96757,-2.43764 -2.57055,0 -5.6439,2.17273 -5.6439,4.61037 M 584.36754,90.146998 c 0,1.139177 0.82174,2.411251 2.96757,2.411251 2.75635,0 5.6447,-2.251942 5.6447,-4.583936 0,-1.563474 -1.32489,-2.437662 -2.96848,-2.437662 -2.56975,0 -5.6439,2.172685 -5.6439,4.610359 M 523.97745,23.960143 c 0,1.139177 0.82174,2.411251 2.96768,2.411251 2.75624,0 5.6447,-2.251943 5.6447,-4.584095 0,-1.563383 -1.32489,-2.437821 -2.96769,-2.437821 -2.57054,0 -5.64469,2.172844 -5.64469,4.610676 m 10.92188,3.309467 c 0,1.139177 0.82174,2.411251 2.96848,2.411251 2.75544,0 5.6439,-2.252737 5.6439,-4.583936 0,-1.563474 -1.32489,-2.438071 -2.96769,-2.438071 -2.57055,0 -5.64469,2.173083 -5.64469,4.610756 M 434.29774,149.71573 c 0,1.1392 0.82174,2.41131 2.96768,2.41131 2.75624,0 5.6447,-2.25275 5.6447,-4.58472 0,-1.56267 -1.32489,-2.43764 -2.96837,-2.43764 -2.56975,0 -5.6439,2.17273 -5.6439,4.61116 M 556.3692,86.837535 c 0,1.139982 0.82174,2.41125 2.96837,2.41125 2.75544,0 5.6439,-2.251942 5.6439,-4.583936 0,-1.563473 -1.32489,-2.437662 -2.96769,-2.437662 -2.57054,0 -5.64469,2.172685 -5.64469,4.610348 m -0.89552,-59.56793 c 0,1.139177 0.82174,2.411251 2.96758,2.411251 2.75623,0 5.64469,-2.252737 5.64469,-4.583936 0,-1.563474 -1.32488,-2.438071 -2.96848,-2.438071 -2.56975,0 -5.6439,2.173083 -5.6439,4.610756 m 31.67838,-3.309462 c 0,1.139177 0.82174,2.411251 2.96769,2.411251 2.75544,0 5.6439,-2.251943 5.6439,-4.584095 0,-1.563383 -1.32489,-2.437821 -2.96757,-2.437821 -2.57055,0 -5.6439,2.172844 -5.6439,4.610676 M 163.32045,20.65076 c 0,1.139415 0.82174,2.41133 2.96768,2.41133 2.75624,0 5.6447,-2.252339 5.6447,-4.584174 0,-1.563395 -1.32489,-2.437821 -2.96757,-2.437821 -2.57055,0 -5.6447,2.172844 -5.6447,4.610676 M 453.22668,146.40626 c 0,1.1392 0.82174,2.41131 2.96836,2.41131 2.75544,0 5.64391,-2.25275 5.64391,-4.58393 0,-1.56346 -1.32489,-2.43843 -2.96758,-2.43843 -2.57054,0 -5.64469,2.17352 -5.64469,4.61116 m 79.54798,-43.02152 c 0,1.13918 0.82174,2.41125 2.96848,2.41125 2.75544,0 5.6439,-2.25274 5.6439,-4.58473 0,-1.562668 -1.32488,-2.437662 -2.96757,-2.437662 -2.57055,0 -5.64469,2.172682 -5.64469,4.611152 m 65.29904,-76.115243 c 0,1.139176 0.82174,2.41125 2.96769,2.41125 2.75544,0 5.6439,-2.252736 5.6439,-4.583935 0,-1.563474 -1.32489,-2.438071 -2.96768,-2.438071 -2.57055,0 -5.64391,2.173082 -5.64391,4.610756 m -84.33617,69.496306 c 0,1.139177 0.82174,2.411251 2.96757,2.411251 2.75635,0 5.6447,-2.252737 5.6447,-4.583936 0,-1.563474 -1.32489,-2.438468 -2.96848,-2.438468 -2.56976,0 -5.6439,2.173491 -5.6439,4.611153 m 95.25794,-66.186855 c 0,1.139177 0.82174,2.411251 2.96757,2.411251 2.75544,0 5.6439,-2.252737 5.6439,-4.583936 0,-1.563474 -1.32489,-2.438468 -2.96769,-2.438468 -2.57055,0 -5.6439,2.173479 -5.6439,4.611153 m -107.66619,59.56793 c 0,1.139177 0.82174,2.411251 2.96769,2.411251 2.75623,0 5.64469,-2.251942 5.64469,-4.583936 0,-1.563474 -1.32488,-2.437662 -2.96768,-2.437662 -2.57055,0 -5.6447,2.172685 -5.6447,4.610359 M 619.91746,33.888531 c 0,1.139177 0.82174,2.411251 2.96768,2.411251 2.75544,0 5.6439,-2.252736 5.6439,-4.58473 0,-1.563474 -1.32488,-2.437662 -2.96757,-2.437662 -2.57055,0 -5.6439,2.172685 -5.6439,4.611153 M 488.92079,100.0754 c 0,1.13917 0.82174,2.41125 2.96848,2.41125 2.75544,0 5.6439,-2.25274 5.6439,-4.583937 0,-1.563474 -1.32488,-2.438468 -2.96757,-2.438468 -2.57054,0 -5.64469,2.173491 -5.64469,4.611155 M 637.02218,37.197205 c 0,1.139983 0.82174,2.412045 2.96768,2.412045 2.75544,0 5.6439,-2.252736 5.6439,-4.58473 0,-1.563474 -1.32488,-2.437662 -2.96757,-2.437662 -2.57055,0 -5.6439,2.172685 -5.6439,4.610359 M 147.09096,17.341457 c 0,1.139415 0.82174,2.41133 2.96757,2.41133 2.75624,0 5.6447,-2.252339 5.6447,-4.584174 0,-1.563383 -1.32489,-2.437821 -2.96848,-2.437821 -2.56976,0 -5.6439,2.172844 -5.6439,4.610677 m 329.42203,66.186614 c 0,1.139983 0.82174,2.412046 2.96769,2.412046 2.75544,0 5.6439,-2.252737 5.6439,-4.584731 0,-1.563474 -1.32489,-2.437662 -2.96769,-2.437662 -2.57054,0 -5.6439,2.172685 -5.6439,4.610347 m -4.35646,66.187647 c 0,1.1392 0.82174,2.41131 2.96769,2.41131 2.75623,0 5.6439,-2.25275 5.6439,-4.58472 0,-1.56267 -1.32489,-2.43764 -2.96768,-2.43764 -2.56976,0 -5.64391,2.17273 -5.64391,4.61116 M 657.59521,43.816119 c 0,1.139177 0.82174,2.411251 2.96768,2.411251 2.75635,0 5.6447,-2.251943 5.6447,-4.583936 0,-1.563474 -1.32489,-2.437662 -2.96768,-2.437662 -2.57055,0 -5.6447,2.172685 -5.6447,4.610347 M 136.16909,20.65076 c 0,1.139415 0.82174,2.41133 2.96769,2.41133 2.75623,0 5.64469,-2.252339 5.64469,-4.584174 0,-1.563395 -1.32488,-2.437821 -2.96848,-2.437821 -2.56975,0 -5.6439,2.172844 -5.6439,4.610676 m 312.34557,66.186764 c 0,1.139982 0.82174,2.41125 2.96757,2.41125 2.75623,0 5.6439,-2.251942 5.6439,-4.583936 0,-1.563473 -1.32489,-2.437662 -2.96768,-2.437662 -2.56976,0 -5.64391,2.172685 -5.64391,4.610348 M 125.24722,23.960143 c 0,1.139177 0.82174,2.411251 2.96768,2.411251 2.75623,0 5.6439,-2.251943 5.6439,-4.584095 0,-1.563383 -1.32488,-2.437821 -2.96768,-2.437821 -2.56976,0 -5.6439,2.172844 -5.6439,4.610676 M 56.156784,103.38485 c 0,1.13918 0.8214,2.41125 2.967628,2.41125 2.755485,0 5.643856,-2.25274 5.643856,-4.58473 0,-1.562668 -1.324909,-2.437662 -2.967628,-2.437662 -2.570559,0 -5.643856,2.172682 -5.643856,4.611152 M 114.32535,27.269605 c 0,1.139177 0.82174,2.411251 2.96768,2.411251 2.75544,0 5.6439,-2.252737 5.6439,-4.583936 0,-1.563474 -1.32488,-2.438071 -2.96768,-2.438071 -2.57055,0 -5.6439,2.173083 -5.6439,4.610756 m 310.59477,66.186856 c 0,1.139176 0.82174,2.41125 2.96757,2.41125 2.75635,0 5.6439,-2.251942 5.6439,-4.583935 0,-1.563474 -1.32488,-2.437663 -2.96757,-2.437663 -2.56975,0 -5.6439,2.172685 -5.6439,4.610348 m 75.63011,59.567929 c 0,1.13999 0.82174,2.41199 2.96769,2.41199 2.75623,0 5.64469,-2.25275 5.64469,-4.58472 0,-1.56346 -1.32488,-2.43764 -2.96848,-2.43764 -2.56975,0 -5.6439,2.17273 -5.6439,4.61037 M 412.51164,86.837535 c 0,1.139982 0.82174,2.41125 2.96769,2.41125 2.75623,0 5.64469,-2.251942 5.64469,-4.583936 0,-1.563473 -1.32488,-2.437662 -2.96848,-2.437662 -2.56975,0 -5.6439,2.172685 -5.6439,4.610348 M 68.565268,96.765923 c 0,1.139177 0.8214,2.411251 2.967628,2.411251 2.755485,0 5.643856,-2.252737 5.643856,-4.583936 0,-1.563474 -1.324909,-2.438468 -2.967628,-2.438468 -2.570559,0 -5.643856,2.173491 -5.643856,4.611153 M 400.10315,80.21941 c 0,1.139176 0.82174,2.41125 2.96848,2.41125 2.75544,0 5.6439,-2.252736 5.6439,-4.58473 0,-1.563474 -1.32488,-2.437662 -2.96757,-2.437662 -2.57055,0 -5.64469,2.172685 -5.64469,4.611153 M 80.972949,100.07539 c 0,1.13917 0.821399,2.41125 2.968433,2.41125 2.755485,0 5.643856,-2.25274 5.643856,-4.583938 0,-1.563474 -1.324908,-2.438468 -2.967628,-2.438468 -2.570559,0 -5.644661,2.173491 -5.644661,4.611156 M 387.69547,86.837535 c 0,1.139982 0.82174,2.41125 2.96757,2.41125 2.75544,0 5.6439,-2.251942 5.6439,-4.583936 0,-1.563473 -1.32489,-2.437662 -2.96768,-2.437662 -2.57055,0 -5.64391,2.172685 -5.64391,4.610348 M 93.38132,93.456457 c 0,1.139177 0.8214,2.411251 2.967628,2.411251 2.756279,0 5.644662,-2.251942 5.644662,-4.583936 0,-1.563474 -1.32491,-2.437662 -2.968434,-2.437662 -2.569754,0 -5.643856,2.172685 -5.643856,4.610347 m 431.50635,62.877403 c 0,1.13999 0.82174,2.4113 2.96848,2.4113 2.75544,0 5.6439,-2.25195 5.6439,-4.58392 0,-1.56346 -1.32488,-2.43764 -2.96768,-2.43764 -2.57055,0 -5.6447,2.17273 -5.6447,4.61037 M 375.28699,80.21941 c 0,1.139176 0.82174,2.41125 2.96757,2.41125 2.75544,0 5.6439,-2.252736 5.6439,-4.58473 0,-1.563474 -1.32488,-2.437662 -2.96757,-2.437662 -2.57055,0 -5.6439,2.172685 -5.6439,4.611153 M 107.61196,96.765923 c 0,1.139177 0.8214,2.411251 2.96763,2.411251 2.75549,0 5.64387,-2.252737 5.64387,-4.583936 0,-1.563474 -1.32489,-2.438468 -2.96763,-2.438468 -2.57056,0 -5.64385,2.173491 -5.64385,4.611153 m -4.20849,-72.80578 c 0,1.139177 0.8214,2.411251 2.96762,2.411251 2.75549,0 5.64386,-2.251943 5.64386,-4.584095 0,-1.563383 -1.32491,-2.437821 -2.96763,-2.437821 -2.57056,0 -5.64385,2.172844 -5.64385,4.610676 m 16.61696,66.186856 c 0,1.139176 0.82174,2.41125 2.96768,2.41125 2.75544,0 5.64391,-2.251942 5.64391,-4.583936 0,-1.563473 -1.32489,-2.437662 -2.96769,-2.437662 -2.57055,0 -5.6439,2.172685 -5.6439,4.610359 m 227.26819,-9.927584 c 0,1.139177 0.82174,2.411251 2.96768,2.411251 2.75624,0 5.6439,-2.252737 5.6439,-4.584731 0,-1.563474 -1.32488,-2.437662 -2.96757,-2.437662 -2.56975,0 -5.6439,2.172685 -5.6439,4.611153 m -214.8605,3.308661 c 0,1.139983 0.82174,2.412046 2.96836,2.412046 2.75544,0 5.6439,-2.252737 5.6439,-4.584731 0,-1.563473 -1.32488,-2.437662 -2.96768,-2.437662 -2.57055,0 -5.6447,2.172685 -5.6447,4.610347 m 12.40848,6.618923 c 0,1.139177 0.82174,2.411251 2.96769,2.411251 2.75634,0 5.64469,-2.251942 5.64469,-4.583936 0,-1.563474 -1.32488,-2.437662 -2.96836,-2.437662 -2.56976,0 -5.6439,2.172685 -5.6439,4.610359 m 404.38919,69.496266 c 0,1.1392 0.82174,2.4112 2.96757,2.4112 2.75544,0 5.6439,-2.25196 5.6439,-4.58393 0,-1.56346 -1.32488,-2.43764 -2.96768,-2.43764 -2.57055,0 -5.6439,2.17273 -5.6439,4.61037 m -225.5317,-56.25846 c 0,1.13918 0.82174,2.41125 2.96769,2.41125 2.75623,0 5.6439,-2.25274 5.6439,-4.58473 0,-1.562668 -1.32489,-2.437662 -2.96769,-2.437662 -2.56975,0 -5.6439,2.172682 -5.6439,4.611152 M 172.83496,93.456461 c 0,1.139176 0.82174,2.41125 2.96769,2.41125 2.75544,0 5.6439,-2.251942 5.6439,-4.583935 0,-1.563474 -1.32489,-2.437663 -2.96769,-2.437663 -2.57054,0 -5.6439,2.172685 -5.6439,4.610348 m 138.45066,3.309467 c 0,1.139177 0.82174,2.41125 2.96757,2.41125 2.75635,0 5.6447,-2.252736 5.6447,-4.583935 0,-1.563474 -1.32489,-2.438468 -2.96769,-2.438468 -2.57054,0 -5.64469,2.173491 -5.64469,4.611153 M 71.725029,33.888531 c 0,1.139177 0.821399,2.411251 2.968433,2.411251 2.755485,0 5.643856,-2.252736 5.643856,-4.58473 0,-1.563474 -1.324908,-2.437662 -2.967628,-2.437662 -2.570559,0 -5.644661,2.172685 -5.644661,4.611153 M 298.87714,90.146998 c 0,1.139177 0.82174,2.411251 2.96848,2.411251 2.75544,0 5.6439,-2.251942 5.6439,-4.583936 0,-1.563474 -1.32488,-2.437662 -2.96757,-2.437662 -2.57055,0 -5.64469,2.172685 -5.64469,4.610359 m -113.63371,6.618922 c 0,1.139177 0.82174,2.411251 2.96769,2.411251 2.75544,0 5.6439,-2.252737 5.6439,-4.583936 0,-1.563474 -1.32489,-2.438468 -2.96768,-2.438468 -2.57055,0 -5.64391,2.173491 -5.64391,4.611153 m 101.22602,0 c 0,1.139177 0.82174,2.411251 2.96757,2.411251 2.75544,0 5.64391,-2.252737 5.64391,-4.583936 0,-1.563474 -1.32489,-2.438468 -2.96758,-2.438468 -2.57054,0 -5.6439,2.173491 -5.6439,4.611153 m -88.81833,3.309468 c 0,1.13918 0.82174,2.41125 2.96848,2.41125 2.75544,0 5.6439,-2.25274 5.6439,-4.583936 0,-1.563474 -1.32489,-2.438468 -2.96769,-2.438468 -2.57054,0 -5.64469,2.173491 -5.64469,4.611154 m 375.91223,62.87739 c 0,1.1392 0.82174,2.41119 2.96768,2.41119 2.75623,0 5.6439,-2.25195 5.6439,-4.58392 0,-1.56346 -1.32488,-2.43764 -2.96768,-2.43764 -2.56976,0 -5.6439,2.17273 -5.6439,4.61037 M 274.06097,90.146998 c 0,1.139177 0.82174,2.411251 2.96768,2.411251 2.75544,0 5.64391,-2.251942 5.64391,-4.583936 0,-1.563474 -1.32489,-2.437662 -2.96769,-2.437662 -2.57055,0 -5.6439,2.172685 -5.6439,4.610359 m -64.00136,13.23784 c 0,1.13918 0.82174,2.41125 2.96769,2.41125 2.75623,0 5.64469,-2.25274 5.64469,-4.58473 0,-1.562668 -1.32488,-2.437662 -2.96768,-2.437662 -2.57055,0 -5.6447,2.172682 -5.6447,4.611152 m 12.40848,0 c 0,1.13918 0.82174,2.41125 2.96757,2.41125 2.75635,0 5.6447,-2.25274 5.6447,-4.58473 0,-1.562667 -1.32489,-2.437661 -2.96848,-2.437661 -2.56975,0 -5.6439,2.172681 -5.6439,4.611151 M 657.5951,110.003 c 0,1.13998 0.82174,2.41125 2.96768,2.41125 2.75635,0 5.6447,-2.25194 5.6447,-4.58393 0,-1.56348 -1.32489,-2.43767 -2.96769,-2.43767 -2.57055,0 -5.64469,2.17269 -5.64469,4.61035 m -385.61636,56.25925 c 0,1.1392 0.82174,2.41119 2.96848,2.41119 2.75544,0 5.6439,-2.25195 5.6439,-4.58392 0,-1.56347 -1.32488,-2.43764 -2.96757,-2.43764 -2.57054,0 -5.64469,2.17273 -5.64469,4.61037 m 325.92205,-3.30944 c 0,1.1392 0.82174,2.4112 2.96768,2.4112 2.75624,0 5.6447,-2.25196 5.6447,-4.58393 0,-1.56346 -1.32489,-2.43764 -2.96769,-2.43764 -2.57055,0 -5.64469,2.17273 -5.64469,4.61037 M 246.06263,110.51853 c 0,0.18568 0.1589,0.34424 0.34391,0.34424 0.13279,0 0.29169,-0.10567 0.31893,-0.21213 0,-0.0264 0.23722,-0.9534 0.26446,-1.03274 0.0264,-0.10647 0.26445,-1.11354 1.21842,-2.67703 1.03398,-1.72198 2.62344,-2.96763 3.94832,-4.8225 1.29844,-1.85488 2.0934,-3.603263 2.0934,-5.935257 0,-2.411251 -0.55615,-4.425422 -1.96049,-6.995981 -0.08,-0.184891 -0.23835,-0.291354 -0.39838,-0.291354 -0.0528,0 -0.10568,0 -0.13166,0.02642 -0.1328,0.05364 -0.18614,0.159354 -0.18614,0.318594 0,0.07925 0.0264,0.211337 0.0793,0.3178 1.06009,2.464085 1.48424,3.868239 1.48424,5.776753 0,2.199108 -0.76839,3.338285 -1.24566,4.15965 -1.72202,2.941205 -4.5047,4.372585 -5.61745,4.743245 -0.18614,0.08 -0.21225,0.21213 -0.21225,0.29135 v 5.9889 M 266.5022,29.439089 c 0,0.185686 0.1589,0.34504 0.3439,0.34504 0.1328,0 0.2917,-0.106474 0.31894,-0.212132 0,-0.02642 0.23835,-0.954308 0.26445,-1.033531 0.0264,-0.105672 0.26446,-1.112754 1.21843,-2.676228 1.03398,-1.722782 2.62344,-2.967866 3.94832,-4.82274 1.29844,-1.854862 2.0934,-3.603738 2.0934,-5.935573 0,-2.41133 -0.55615,-4.425186 -1.96049,-6.9955032 -0.0801,-0.1854817 -0.23835,-0.2914793 -0.39838,-0.2914793 -0.0528,0 -0.10567,0 -0.13166,0.026498 -0.1328,0.052997 -0.18614,0.1589908 -0.18614,0.3179816 0,0.079494 0.0264,0.211984 0.0793,0.3179816 1.06009,2.4643243 1.48424,3.8687253 1.48424,5.7765893 0,2.199346 -0.76839,3.338761 -1.24566,4.160206 -1.72202,2.941296 -4.5047,4.37219 -5.61746,4.743165 -0.18614,0.07949 -0.21224,0.212359 -0.21224,0.291695 v 5.98809 m 49.41489,125.178321 c 0,0.0793 0.0264,0.21225 0.21111,0.2917 1.13999,0.37114 3.41828,1.80204 5.1411,4.74328 0.4767,0.82174 1.24566,1.96139 1.24566,4.16045 0,1.90771 -0.50394,3.8682 -1.19277,5.7767 -0.0529,0.1589 -0.10568,0.2917 -0.0793,0.39725 0,0.1589 0.10567,0.26446 0.26446,0.26446 0.185,0 0.3178,-0.10568 0.42335,-0.2917 1.19277,-2.11984 1.64348,-4.58392 1.64348,-6.99523 -0.13279,-3.41839 -2.09339,-5.93605 -2.09339,-5.93605 0.0792,0 -2.43844,-3.25904 -3.15337,-4.37179 -0.98064,-1.51069 -1.43135,-3.02126 -1.48424,-3.12693 -0.0264,-0.0793 -0.26446,-1.03398 -0.26446,-1.03398 -0.0264,-0.10568 -0.1589,-0.21225 -0.3178,-0.21225 -0.18614,0 -0.3439,0.1589 -0.3439,0.34504 v 5.98815 m -148.04839,23.74354 c 0,0.18614 0.1589,0.3439 0.34504,0.3439 0.13166,0 0.29169,-0.10568 0.3178,-0.21111 0,-0.0272 0.23835,-0.95453 0.26445,-1.03398 0.0264,-0.10648 0.26446,-1.11344 1.21922,-2.67622 1.03285,-1.72281 2.62253,-2.96848 3.94753,-4.82329 1.29844,-1.85482 2.09339,-3.60329 2.09339,-5.93526 0,-2.41119 -0.55615,-4.42536 -1.96048,-6.99523 -0.0793,-0.18614 -0.23835,-0.2917 -0.39839,-0.2917 -0.0528,0 -0.10568,0 -0.13166,0.0272 -0.13279,0.0529 -0.18614,0.1589 -0.18614,0.3178 0,0.0793 0.0264,0.21225 0.08,0.3178 1.06009,2.46409 1.48345,3.8691 1.48345,5.77681 0,2.19906 -0.7684,3.33826 -1.24566,4.15966 -1.72203,2.94204 -4.50471,4.37259 -5.61746,4.74328 -0.185,0.08 -0.21224,0.21225 -0.21224,0.2917 v 5.98894 M 463.21351,39.367477 c 0,0.185686 0.1589,0.344246 0.34504,0.344246 0.13166,0 0.2917,-0.105672 0.3178,-0.212132 0,-0.02642 0.23835,-0.9534 0.26446,-1.032736 0.0264,-0.106473 0.26445,-1.113549 1.21842,-2.677034 1.03398,-1.721977 2.62344,-2.967628 3.94832,-4.822501 1.29844,-1.854874 2.0934,-3.603262 2.0934,-5.935256 0,-2.41141 -0.55615,-4.425263 -1.96049,-6.995584 -0.08,-0.185459 -0.23835,-0.291468 -0.39838,-0.291468 -0.0528,0 -0.10567,0 -0.13166,0.0265 -0.1328,0.053 -0.18614,0.159013 -0.18614,0.318027 0,0.0795 0.0264,0.212018 0.0793,0.318027 1.06009,2.464323 1.48424,3.868727 1.48424,5.776832 0,2.199108 -0.76839,3.338285 -1.24566,4.159639 -1.72202,2.941216 -4.5047,4.372587 -5.61746,4.743244 -0.18614,0.08005 -0.21224,0.212132 -0.21224,0.291355 v 5.988895 M 79.66806,15.624923 c 0,0.07949 0.02642,0.212018 0.211337,0.291468 1.139971,0.370918 3.418336,1.801869 5.141107,4.743165 0.477154,0.8214 1.244857,1.96086 1.244857,4.160365 0,1.907708 -0.502692,3.86825 -1.192011,5.776753 -0.05284,0.158559 -0.105673,0.291354 -0.07926,0.397023 0,0.159354 0.105673,0.265022 0.265022,0.265022 0.184892,0 0.3178,-0.105671 0.423469,-0.291354 1.192817,-2.119851 1.642719,-4.583936 1.642719,-6.995187 -0.132114,-3.418574 -2.092633,-5.935902 -2.092633,-5.935902 0.07926,0 -2.438468,-3.259266 -3.153359,-4.37219 -0.98064,-1.51039 -1.431383,-3.020786 -1.484217,-3.126779 -0.02642,-0.07949 -0.265023,-1.0334288 -0.265023,-1.0334288 -0.02642,-0.1059919 -0.159354,-0.2119839 -0.3178,-0.2119839 -0.185686,0 -0.344245,0.1589908 -0.344245,0.3444725 V 15.624923 M 665.53825,91.740088 c 0,0.07925 0.0264,0.212131 0.21111,0.291354 1.13999,0.370691 3.41839,1.802028 5.14109,4.743245 0.4767,0.821399 1.24487,1.960542 1.24487,4.160443 0,1.90771 -0.5028,3.86824 -1.19198,5.77595 -0.0528,0.15935 -0.10566,0.29135 -0.0792,0.39782 0,0.15856 0.10567,0.26502 0.26445,0.26502 0.18501,0 0.3178,-0.10648 0.42336,-0.29136 1.19277,-2.11985 1.64268,-4.58473 1.64268,-6.99598 -0.13166,-3.418334 -2.0926,-5.935253 -2.0926,-5.935253 0.0793,0 -2.43843,-3.259028 -3.15337,-4.372588 -0.98064,-1.509833 -1.43134,-3.020462 -1.48424,-3.126141 -0.0264,-0.08006 -0.26445,-1.033531 -0.26445,-1.033531 -0.0264,-0.106474 -0.1589,-0.212132 -0.3178,-0.212132 -0.18614,0 -0.34391,0.159354 -0.34391,0.344246 v 5.988895 M 563.41562,10.660889 c 0,0.0795 0.0264,0.211984 0.21225,0.29148 1.1392,0.370974 3.41839,1.801871 5.1403,4.743162 0.4767,0.8214 1.24566,1.96086 1.24566,4.160207 0,1.907867 -0.50394,3.869044 -1.19197,5.776752 -0.0537,0.15856 -0.10648,0.291355 -0.0801,0.397023 0,0.159354 0.10648,0.265023 0.26446,0.265023 0.18614,0 0.31893,-0.105673 0.42449,-0.291355 1.19197,-2.11985 1.64268,-4.584015 1.64268,-6.995345 -0.13166,-3.418257 -2.09339,-5.935573 -2.09339,-5.935573 0.08,0 -2.43764,-3.2592686 -3.15337,-4.3721906 -0.97951,-1.5103922 -1.43056,-3.0207855 -1.48345,-3.1267775 -0.0264,-0.079494 -0.26445,-1.0334288 -0.26445,-1.0334288 -0.0264,-0.105992 -0.1589,-0.211984 -0.3178,-0.211984 -0.18614,0 -0.34504,0.1589908 -0.34504,0.3444725 v 5.9885744 m -7.04642,98.202901 c 0,0.18569 0.1589,0.34425 0.34504,0.34425 0.13166,0 0.29169,-0.10567 0.3178,-0.21134 0,-0.0272 0.23835,-0.9543 0.26445,-1.03353 0.0264,-0.10647 0.26446,-1.11355 1.21843,-2.67623 1.03398,-1.72278 2.62343,-2.96843 3.94832,-4.82329 1.29844,-1.854875 2.09339,-3.603263 2.09339,-5.935257 0,-2.411251 -0.55615,-4.425422 -1.96048,-6.995187 -0.0793,-0.185686 -0.23835,-0.292149 -0.39839,-0.292149 -0.0528,0 -0.10568,0 -0.13166,0.02722 -0.13279,0.05284 -0.18614,0.158559 -0.18614,0.3178 0,0.07925 0.0264,0.212131 0.0793,0.3178 1.06009,2.464085 1.48424,3.869045 1.48424,5.776753 0,2.199107 -0.7684,3.338284 -1.24566,4.15965 -1.72202,2.94201 -4.5047,4.37259 -5.61746,4.74324 -0.18614,0.0801 -0.21224,0.21213 -0.21224,0.29136 v 5.98889 M 665.53825,25.553232 c 0,0.07925 0.0264,0.211337 0.21111,0.291355 1.13999,0.370691 3.41839,1.802028 5.14109,4.743244 0.4767,0.8214 1.24487,1.960542 1.24487,4.15965 0,1.908503 -0.5028,3.869045 -1.19198,5.776753 -0.0528,0.159354 -0.10566,0.291355 -0.0792,0.397818 0,0.158559 0.10567,0.265022 0.26445,0.265022 0.18501,0 0.3178,-0.106473 0.42336,-0.291354 1.19277,-2.119851 1.64268,-4.584731 1.64268,-6.995982 -0.13166,-3.418336 -2.0926,-5.935255 -2.0926,-5.935255 0.0793,0 -2.43843,-3.259834 -3.15337,-4.372588 -0.98064,-1.510231 -1.43134,-3.02062 -1.48424,-3.126618 -0.0264,-0.07949 -0.26445,-1.033418 -0.26445,-1.033418 -0.0264,-0.105993 -0.1589,-0.212018 -0.3178,-0.212018 -0.18614,0 -0.34391,0.159014 -0.34391,0.344473 v 5.988896 m -217.0236,83.31059 c 0,0.18568 0.1589,0.34424 0.3439,0.34424 0.1328,0 0.2917,-0.10567 0.3178,-0.21134 0,-0.0272 0.23835,-0.9543 0.26446,-1.03353 0.0272,-0.10647 0.26445,-1.11355 1.21922,-2.67623 1.03398,-1.72278 2.62343,-2.96843 3.94832,-4.82329 1.29844,-1.854875 2.09339,-3.603263 2.09339,-5.935257 0,-2.41125 -0.55615,-4.425421 -1.96139,-6.995186 -0.0793,-0.185686 -0.23721,-0.292149 -0.39725,-0.292149 -0.0529,0 -0.10568,0 -0.13279,0.02722 -0.13166,0.05284 -0.18501,0.15856 -0.18501,0.3178 0,0.07925 0.0264,0.212132 0.0793,0.3178 1.06009,2.464085 1.48424,3.869045 1.48424,5.776753 0,2.199108 -0.7684,3.338285 -1.24567,4.15965 -1.72281,2.942009 -4.5047,4.372589 -5.61745,4.743239 -0.18614,0.0801 -0.21225,0.21213 -0.21225,0.29136 v 5.98889 m -101.2248,-6.6189 c 0,0.18569 0.1589,0.34504 0.3439,0.34504 0.1328,0 0.2917,-0.10647 0.3178,-0.21213 0,-0.0264 0.23835,-0.95431 0.26446,-1.03353 0.0272,-0.10568 0.26445,-1.11276 1.21922,-2.676228 1.03398,-1.722783 2.62344,-2.967628 3.94832,-4.822502 1.29844,-1.854873 2.09339,-3.604067 2.09339,-5.936061 0,-2.411251 -0.55615,-4.424627 -1.96139,-6.995187 -0.0792,-0.185686 -0.23721,-0.291354 -0.39725,-0.291354 -0.0528,0 -0.10567,0 -0.13279,0.02642 -0.13166,0.05284 -0.18501,0.15856 -0.18501,0.3178 0,0.07925 0.0264,0.212132 0.0793,0.3178 1.06009,2.464891 1.48424,3.869045 1.48424,5.776753 0,2.199108 -0.7684,3.339079 -1.24567,4.160444 -1.72281,2.941217 -4.5047,4.371793 -5.61745,4.743245 -0.18614,0.07925 -0.21225,0.211337 -0.21225,0.291354 v 5.988086 m -31.37187,46.41102 v 22.05337 h 0.6617 V 148.65584 Z M 79.667595,9.6628418 V 31.71667 h 0.662159 V 9.6628418 Z M 573.56294,162.95203 v 17.06682 h 0.66171 V 162.95203 Z M 331.63675,79.105792 v 22.107148 h 0.66171 V 79.105792 Z M 144.83621,90.146157 v 20.427563 h 0.66171 V 90.146157 Z M 347.28823,80.217801 V 102.2449 h 0.66171 V 80.2178 Z m -214.85971,3.309456 v 28.130483 h 0.6617 V 83.527256 Z M 103.40305,23.959334 V 44.35813 h 0.66215 V 23.959334 Z m 16.61698,66.186823 v 22.595453 h 0.66171 V 90.146157 Z m 429.20551,69.496413 v 18.73672 h 0.6617 V 159.64257 Z M 375.2866,80.2178 v 25.36297 h 0.66171 V 80.2178 Z M 107.61155,96.76505 v 17.06058 h 0.66204 V 96.76505 Z m 280.08353,-9.928347 v 18.744067 h 0.66171 V 86.836703 Z M 101.32412,74.185709 v 17.098883 h 0.66205 V 74.185709 Z m 298.77945,6.032094 v 25.362967 h 0.66171 V 80.2178 Z M 88.915636,75.811668 v 22.091817 h 0.662045 V 75.811668 Z M 412.51205,86.836706 v 18.744064 h 0.6617 V 86.836703 Z M 76.507155,77.436684 V 94.594038 H 77.1692 V 77.436684 Z m 348.412605,16.01892 v 18.744066 h 0.6617 V 93.455604 Z m -113.6338,3.309446 v 17.08934 h 0.66171 V 96.76505 Z M 64.098671,79.062635 v 22.150305 h 0.662045 V 79.062635 Z M 448.51433,86.836704 V 108.8638 h 0.6617 V 86.836703 Z m 76.37377,69.496426 v 20.40582 h 0.66171 V 156.33313 Z M 114.32488,27.268789 V 44.35813 h 0.66171 V 27.268789 Z M 500.55069,153.02351 v 22.07605 h 0.6617 V 153.02351 Z M 125.24689,23.959334 V 44.35813 h 0.6617 V 23.959334 Z m 10.92187,-3.309604 v 23.708401 h 0.66171 V 20.649729 Z m 529.36915,-1.058841 v 22.053362 h 0.6617 V 19.59088 Z m -472.3527,56.220779 v 18.78237 h 0.6617 v -18.78237 z m 283.32731,7.715582 v 31.98187 h 0.66171 V 83.527256 Z M 147.09135,17.340435 v 22.053516 h 0.6617 V 17.340435 Z m 341.82966,82.734225 v 15.43446 h 0.66171 V 100.07466 Z M 644.9638,12.919131 v 22.10621 h 0.6617 V 12.919131 Z M 501.3295,90.146157 v 25.362963 h 0.66171 V 90.146157 Z M 627.8593,6.284125 V 31.71667 h 0.66171 V 6.284125 Z M 513.73721,96.76505 v 18.74407 h 0.6617 V 96.76505 Z M 616.93746,5.7434428 V 28.407224 h 0.6617 V 5.7434428 Z M 540.71737,79.105792 v 22.107148 h 0.66171 V 79.105792 Z M 606.01561,5.2027617 V 25.097768 h 0.66171 V 5.2027617 Z M 472.15596,149.71407 v 23.71794 h 0.6617 V 149.71407 Z M 298.87747,90.146157 v 23.708233 h 0.66171 V 90.146157 Z M 595.09361,4.6620783 V 21.78832 h 0.6617 V 4.6620783 Z M 163.32088,20.649729 v 18.791439 h 0.66171 V 20.649729 Z M 453.22708,146.4054 v 27.57167 h 0.6617 V 146.4054 Z M 556.36963,86.836703 V 108.8638 h 0.66171 V 86.836703 Z M 563.41605,4.6986662 V 25.097768 h 0.66171 V 4.6986662 Z M 205.5937,77.436684 v 20.466801 h 0.6617 V 77.436684 Z m 228.70356,72.277386 v 24.80821 h 0.66171 V 149.71407 Z M 174.24273,23.959334 v 17.042124 h 0.6617 V 23.959334 Z M 542.84194,4.6458183 V 25.097768 h 0.66171 V 4.6458183 Z m 49.46821,66.2304427 v 17.098876 h 0.6617 V 70.876261 Z M 523.9778,23.959334 v 17.073242 h 0.66171 V 23.959334 Z m 80.74082,48.542727 v 18.782531 h 0.66171 V 72.502061 Z M 513.05596,20.649729 v 19.841693 h 0.6617 V 20.649729 Z m 104.07037,53.478284 v 20.466025 h 0.66171 V 74.128013 Z m -114.993,-56.787578 v 22.610617 h 0.6617 V 17.340435 Z m 127.40148,58.412753 v 22.150297 h 0.6617 V 75.753188 Z m 12.40849,0.04393 v 22.106363 h 0.6617 V 75.797122 Z M 491.21149,14.031141 v 25.379542 h 0.6617 V 14.031141 Z M 415.36838,156.33313 v 18.73438 h 0.6617 V 156.33313 Z M 202.24109,17.340435 v 18.727963 h 0.6617 V 17.340435 Z m 84.2279,79.424615 v 17.08934 h 0.66217 V 96.76505 Z m 311.43217,66.18698 v 18.74391 h 0.6617 V 162.95203 Z M 246.0623,90.146157 v 20.372363 h 0.66171 V 90.146157 Z M 218.00217,79.062635 v 22.150305 h 0.66171 V 79.062635 Z M 396.4395,153.02351 v 22.08245 h 0.6617 V 153.02351 Z M 442.63984,20.649729 v 20.398945 h 0.66171 V 20.649729 Z M 377.50968,159.64257 v 17.09888 h 0.66171 V 159.64257 Z M 431.718,17.340435 v 23.741078 h 0.6617 V 17.340435 Z M 64.098671,143.63882 v 23.76093 h 0.662045 V 143.63882 Z M 420.79615,20.649729 v 21.5133 h 0.66171 v -21.5133 z M 83.02833,143.63882 v 20.45149 h 0.662046 V 143.63882 Z M 409.87431,23.959334 v 19.284434 h 0.6617 V 23.959334 Z M 101.95737,143.63882 v 17.14203 h 0.66204 v -17.14203 z m 18.92965,0 v 23.76093 h 0.66171 V 143.63882 Z M 398.95231,27.268789 v 17.056502 h 0.6617 V 27.268789 Z M 213.16293,14.031141 v 21.496102 h 0.66171 V 14.031141 Z M 358.5808,156.33313 v 22.04382 h 0.6617 v -22.04382 z m -226.70703,-3.30962 v 22.05353 h 0.6617 V 153.02351 Z M 370.95395,23.959334 v 17.073242 h 0.6617 V 23.959334 Z M 274.0605,90.146157 v 23.708233 h 0.66171 V 90.146157 Z m 85.9716,-69.496428 v 19.841693 h 0.66171 V 20.649729 Z M 167.8679,156.33313 v 22.02693 h 0.6617 V 156.33313 Z M 349.11027,17.340435 v 22.610617 h 0.6617 V 17.340435 Z M 224.08478,10.721691 v 24.265183 h 0.6617 V 10.721691 Z M 339.65097,162.95203 v 17.06041 h 0.66171 V 162.95203 Z M 338.18842,14.031141 v 25.379542 h 0.66171 V 14.031141 Z M 196.26185,156.33313 v 28.67226 h 0.66171 V 156.33313 Z M 327.26658,17.340435 v 18.727963 h 0.66171 V 17.340435 Z M 215.19151,169.57093 v 15.43446 h 0.6617 V 169.57093 Z M 316.34395,10.721691 v 24.805552 h 0.66171 V 10.721691 Z M 234.12039,159.64257 v 25.36282 h 0.6617 V 159.64257 Z M 305.42195,7.4123967 V 34.986874 h 0.66171 V 7.4123967 Z M 253.04942,162.95203 v 22.05336 h 0.6617 v -22.05336 z m 26.87198,-19.31321 v 20.45149 h 0.6617 V 143.63882 Z M 294.50011,10.721691 v 23.724813 h 0.6617 V 10.721691 Z M 235.00662,7.4123967 V 34.446504 h 0.6617 V 7.4123967 Z m 10.92188,3.3092943 v 22.053207 h 0.6617 V 10.721691 Z m 217.28544,6.618744 v 22.02709 h 0.66171 V 17.340435 Z M 266.50253,7.4123967 V 29.439017 h 0.6617 V 7.4123967 Z M 665.53787,85.777538 v 22.053522 h 0.66171 V 85.777538 Z M 180.77766,74.185709 v 17.098883 h 0.6617 V 74.185709 Z m 49.633,4.920089 v 22.107152 h 0.66171 V 79.105792 Z M 655.41125,42.17382 v 1.059182 h 12.97372 V 42.17382 Z m -128.68472,58.13693 2.35842,-0.477157 v 4.372587 l -2.35842,0.5036 v -4.39901 m 4.10677,-0.8214 c 0.1589,-0.02642 0.2917,-0.212131 0.2917,-0.370691 v -1.563473 c 0,-0.212132 -0.1589,-0.371486 -0.37115,-0.371486 h -0.0528 l -0.87395,0.185686 v -3.948302 h -0.74229 v 4.107611 l -2.35842,0.476359 v -3.736159 h -0.74229 v 3.895468 l -1.03398,0.212131 c -0.1589,0.02642 -0.2917,0.212132 -0.2917,0.370691 v 1.537055 c 0,0.21213 0.1589,0.37069 0.37115,0.37069 h 0.0793 l 0.87395,-0.18489 v 4.37179 l -1.03398,0.21213 c -0.1589,0.0264 -0.2917,0.21213 -0.2917,0.37069 v 1.53705 c 0,0.21213 0.1589,0.37149 0.37115,0.37149 h 0.0793 l 0.87395,-0.18569 v 3.9483 h 0.74229 v -4.10761 l 2.35842,-0.47715 v 3.73695 h 0.74229 v -3.89546 l 1.00675,-0.18569 c 0.1589,-0.0264 0.29169,-0.21213 0.29169,-0.37069 v -1.56348 c 0,-0.21213 -0.1589,-0.37148 -0.37114,-0.37148 h -0.0529 l -0.87395,0.18568 v -4.371788 l 1.00675,-0.185686 M 631.58143,38.65499 v -4.34537 l 3.07324,-0.874972 v 4.372588 l -3.07324,0.847731 m 3.65606,-7.419472 c -0.0528,-0.05284 -0.13166,-0.07925 -0.21111,-0.07925 -0.0264,0 -0.0801,0.02642 -0.10647,0.02642 l -3.33826,0.927068 v -4.63677 h -0.74229 v 13.116169 c 0,0.212131 0.1589,0.34504 0.37114,0.34504 h 0.10648 l 3.33826,-0.927863 v 4.637576 h 0.71618 V 31.526917 c 0,-0.105672 -0.0528,-0.238577 -0.13279,-0.291355 M 577.68701,9.2458383 V 36.448658 h 1.19114 V 9.2458383 Z m -2.78438,69.4965777 v 27.202514 h 1.19129 V 78.742416 Z M 192.77587,9.2458383 V 36.448658 h 1.19118 V 9.2458383 Z m 288.97118,0 V 36.448658 h 1.19118 V 9.2458383 Z M 679.80887,78.742416 V 105.94493 H 681 V 78.742416 Z M 389.48787,9.2458383 V 36.448658 h 1.19127 V 9.2458383 Z M 186.79726,148.23868 v 27.20267 h 1.19129 v -27.20267 z m 143.38928,0 v 27.20267 h 1.19129 v -27.20267 z m 160.89877,0 v 27.20267 h 1.19129 V 148.23868 Z M 679.80887,9.2458383 V 36.448658 H 681 V 9.2458383 Z M 467.04808,78.742416 v 27.202514 h 1.19129 V 78.742416 Z m -101.22592,0 v 27.202514 h 1.19118 V 78.742416 Z M 93.938598,9.2458383 V 36.448658 h 1.191285 V 9.2458383 Z M 163.37014,78.742416 v 27.202514 h 1.19113 V 78.742416 Z m 513.9894,69.496264 v 27.20267 h 3.64018 v -27.20267 z m -3.63971,0 v 27.20267 h 1.19118 v -27.20267 z m -2.44729,16.9108 c 0,-0.76839 -0.6095,-1.40502 -1.37778,-1.40502 -0.76839,0 -1.37777,0.63674 -1.37777,1.40502 0,0.7684 0.60949,1.40411 1.37777,1.40411 0.7684,0 1.37778,-0.6356 1.37778,-1.40411 m 0,-6.61898 c 0,-0.76839 -0.6095,-1.40411 -1.37778,-1.40411 -0.76839,0 -1.37777,0.6356 -1.37777,1.40411 0,0.7684 0.60949,1.40411 1.37777,1.40411 0.7684,0 1.37778,-0.6356 1.37778,-1.40411 M 264.59607,78.742416 v 27.202514 h 1.1913 V 78.742416 Z M 285.03567,9.2458383 V 36.448658 h 1.1913 V 9.2458383 Z M 0,174.71319 v 0.72754 h 681 v -0.72754 z m 0,-6.61807 v 0.72754 h 681 v -0.72754 z m 0,-6.61886 v 0.72753 h 681 v -0.72753 z m 0,-6.61887 v 0.72754 h 681 v -0.72754 z m 0,-6.61901 v 0.72753 h 681 v -0.72753 z m 0,-43.02145 v 0.72764 h 681 v -0.72764 z m 0,-6.618121 v 0.727648 h 681 v -0.727648 z m 0,-6.6189 v 0.727648 h 681 v -0.727648 z m 0,-6.619056 v 0.727876 h 681 v -0.727876 z m 0,-6.6189 v 0.727648 H 681 V 78.741953 Z M 0,35.720656 v 0.727649 h 681 v -0.727649 z m 0,-6.618275 v 0.727875 h 681 v -0.727875 z m 0,-6.619059 v 0.727648 h 681 v -0.727648 z m 0,-6.618583 v 0.727649 H 681 V 15.864739 Z M 0,9.2459949 V 9.9736774 H 681 V 9.2459949 Z"
     style="stroke-width:0.0800547" />
  <metadata
     id="metadata295">
    <rdf:RDF>
      <cc:Work
         rdf:about="">
        <dc:title>air_II</dc:title>
      </cc:Work>
    </rdf:RDF>
  </metadata>
</svg>
