<?xml version="1.0" encoding="UTF-8" standalone="no"?>
<svg width="210.058mm" height="296.926mm" viewBox="0 0 9924 14028"
 xmlns="http://www.w3.org/2000/svg" xmlns:xlink="http://www.w3.org/1999/xlink" version="1.2" baseProfile="full">
<title>air_XLIV</title>
<desc>Generated by MuseScore Studio 4.7.3</desc>
<polyline class="StaffLines" fill="none" stroke="#000000" stroke-width="9.09" stroke-linejoin="bevel" points="708.661,828.424 9215.34,828.424" />
<polyline class="StaffLines" fill="none" stroke="#000000" stroke-width="9.09" stroke-linejoin="bevel" points="708.661,911.101 9215.34,911.101" />
<polyline class="StaffLines" fill="none" stroke="#000000" stroke-width="9.09" stroke-linejoin="bevel" points="708.661,993.778 9215.34,993.778" />
<polyline class="StaffLines" fill="none" stroke="#000000" stroke-width="9.09" stroke-linejoin="bevel" points="708.661,1076.46 9215.34,1076.46" />
<polyline class="StaffLines" fill="none" stroke="#000000" stroke-width="9.09" stroke-linejoin="bevel" points="708.661,1159.13 9215.34,1159.13" />
<polyline class="StaffLines" fill="none" stroke="#000000" stroke-width="9.09" stroke-linejoin="bevel" points="708.661,1696.53 9215.34,1696.53" />
<polyline class="StaffLines" fill="none" stroke="#000000" stroke-width="9.09" stroke-linejoin="bevel" points="708.661,1779.21 9215.34,1779.21" />
<polyline class="StaffLines" fill="none" stroke="#000000" stroke-width="9.09" stroke-linejoin="bevel" points="708.661,1861.89 9215.34,1861.89" />
<polyline class="StaffLines" fill="none" stroke="#000000" stroke-width="9.09" stroke-linejoin="bevel" points="708.661,1944.57 9215.34,1944.57" />
<polyline class="StaffLines" fill="none" stroke="#000000" stroke-width="9.09" stroke-linejoin="bevel" points="708.661,2027.24 9215.34,2027.24" />
<polyline class="BarLine" fill="none" stroke="#000000" stroke-width="14.88" stroke-linejoin="bevel" points="6345.74,1691.99 6345.74,2031.79" />
<polyline class="BarLine" fill="none" stroke="#000000" stroke-width="14.88" stroke-linejoin="bevel" points="3400.12,1691.99 3400.12,2031.79" />
<polyline class="BarLine" fill="none" stroke="#000000" stroke-width="14.88" stroke-linejoin="bevel" points="2019.7,823.876 2019.7,1163.68" />
<polyline class="BarLine" fill="none" stroke="#000000" stroke-width="14.88" stroke-linejoin="bevel" points="9131.84,1691.99 9131.84,2031.79" />
<polyline class="BarLine" fill="none" stroke="#000000" stroke-width="45.47" stroke-linejoin="bevel" points="9192.6,1691.99 9192.6,2031.79" />
<polyline class="BarLine" fill="none" stroke="#000000" stroke-width="14.88" stroke-linejoin="bevel" points="7838.11,823.876 7838.11,1163.68" />
<polyline class="BarLine" fill="none" stroke="#000000" stroke-width="14.88" stroke-linejoin="bevel" points="5563.15,823.876 5563.15,1163.68" />
<polyline class="BarLine" fill="none" stroke="#000000" stroke-width="14.88" stroke-linejoin="bevel" points="4934.5,1691.99 4934.5,2031.79" />
<polyline class="BarLine" fill="none" stroke="#000000" stroke-width="14.88" stroke-linejoin="bevel" points="9207.9,823.876 9207.9,1163.68" />
<polyline class="BarLine" fill="none" stroke="#000000" stroke-width="14.88" stroke-linejoin="bevel" points="4150.88,823.876 4150.88,1163.68" />
<polyline class="BarLine" fill="none" stroke="#000000" stroke-width="14.88" stroke-linejoin="bevel" points="8311.13,1691.99 8311.13,2031.79" />
<path class="SlurSegment" stroke="#000000" stroke-width="4.13" stroke-linecap="round" stroke-linejoin="round" fill-rule="evenodd" d="M2461.28,2060.31 C2512.88,2130.05 2636.02,2150.72 2707.56,2101.65 C2632.18,2173.62 2509.03,2152.95 2461.28,2060.31"/>
<path class="SlurSegment" stroke="#000000" stroke-width="4.13" stroke-linecap="round" stroke-linejoin="round" fill-rule="evenodd" d="M7864.86,2101.65 C7916.46,2171.39 8039.61,2192.06 8111.15,2142.99 C8035.76,2214.96 7912.62,2194.29 7864.86,2101.65"/>
<path class="SlurSegment" stroke="#000000" stroke-width="4.13" stroke-linecap="round" stroke-linejoin="round" fill-rule="evenodd" d="M1968.7,2101.65 C2020.3,2171.39 2143.44,2192.06 2214.99,2142.99 C2139.6,2214.96 2016.46,2194.29 1968.7,2101.65"/>
<path class="SlurSegment" stroke="#000000" stroke-width="4.13" stroke-linecap="round" stroke-linejoin="round" fill-rule="evenodd" d="M1476.12,2046.26 C1534.29,2109.53 1657.43,2116.56 1722.41,2060.31 C1656.11,2139.62 1532.97,2132.59 1476.12,2046.26"/>
<path class="SlurSegment" stroke="#000000" stroke-width="4.13" stroke-linecap="round" stroke-linejoin="round" fill-rule="evenodd" d="M7309.29,1178.15 C7378.02,1246.35 7521.8,1253.38 7596.86,1192.2 C7520.59,1278.1 7376.81,1271.07 7309.29,1178.15"/>
<path class="SlurSegment" stroke="#000000" stroke-width="4.13" stroke-linecap="round" stroke-linejoin="round" fill-rule="evenodd" d="M6734.16,1095.47 C6802.89,1163.68 6946.67,1170.7 7021.73,1109.53 C6945.46,1195.42 6801.68,1188.39 6734.16,1095.47"/>
<path class="SlurSegment" stroke="#000000" stroke-width="4.13" stroke-linecap="round" stroke-linejoin="round" fill-rule="evenodd" d="M2953.85,2142.99 C3005.45,2212.73 3128.6,2233.4 3200.14,2184.33 C3124.75,2256.3 3001.61,2235.63 2953.85,2142.99"/>
<path class="SlurSegment" stroke="#000000" stroke-width="4.13" stroke-linecap="round" stroke-linejoin="round" fill-rule="evenodd" d="M6159.03,1178.15 C6227.76,1246.35 6371.54,1253.38 6446.6,1192.2 C6370.33,1278.1 6226.55,1271.07 6159.03,1178.15"/>
<path class="SlurSegment" stroke="#000000" stroke-width="4.13" stroke-linecap="round" stroke-linejoin="round" fill-rule="evenodd" d="M3190.71,1178.15 C3277.84,1224.84 3421.62,1190.53 3478.27,1109.53 C3427.43,1214.9 3283.65,1249.21 3190.71,1178.15"/>
<path class="SlurSegment" stroke="#000000" stroke-width="4.13" stroke-linecap="round" stroke-linejoin="round" fill-rule="evenodd" d="M6879.71,2101.65 C6951.25,2150.72 7074.4,2130.05 7126,2060.31 C7078.24,2152.95 6955.1,2173.62 6879.71,2101.65"/>
<path class="SlurSegment" stroke="#000000" stroke-width="4.13" stroke-linecap="round" stroke-linejoin="round" fill-rule="evenodd" d="M7372.29,2046.26 C7430.45,2109.53 7553.59,2116.56 7618.57,2060.31 C7552.28,2139.62 7429.13,2132.59 7372.29,2046.26"/>
<path class="SlurSegment" stroke="#000000" stroke-width="4.13" stroke-linecap="round" stroke-linejoin="round" fill-rule="evenodd" d="M2615.58,1178.15 C2684.31,1246.35 2828.09,1253.38 2903.14,1192.2 C2826.88,1278.1 2683.1,1271.07 2615.58,1178.15"/>
<path class="TieSegment" stroke="#000000" stroke-width="4.13" stroke-linecap="round" stroke-linejoin="round" fill-rule="evenodd" d="M4431.95,2004.93 C4563.12,2081.81 4956.62,2081.81 5087.79,2004.93 C4956.62,2108.26 4563.12,2108.26 4431.95,2004.93"/>
<polyline class="LedgerLine" fill="none" stroke="#000000" stroke-width="13.23" stroke-linejoin="bevel" points="3119.11,2109.92 3281.17,2109.92" />
<polyline class="LedgerLine" fill="none" stroke="#000000" stroke-width="13.23" stroke-linejoin="bevel" points="5941.59,2109.92 6103.65,2109.92" />
<polyline class="LedgerLine" fill="none" stroke="#000000" stroke-width="13.23" stroke-linejoin="bevel" points="3483.62,2109.92 3645.69,2109.92" />
<polyline class="LedgerLine" fill="none" stroke="#000000" stroke-width="13.23" stroke-linejoin="bevel" points="3483.62,2192.6 3645.69,2192.6" />
<polyline class="LedgerLine" fill="none" stroke="#000000" stroke-width="13.23" stroke-linejoin="bevel" points="3729.91,2109.92 3891.97,2109.92" />
<polyline class="Stem" fill="none" stroke="#000000" stroke-width="8.27" stroke-linejoin="bevel" points="7175.6,1972.68 7175.6,1758.88" />
<polyline class="Stem" fill="none" stroke="#000000" stroke-width="8.27" stroke-linejoin="bevel" points="3249.74,2096.69 3249.74,1799.65" />
<polyline class="Stem" fill="none" stroke="#000000" stroke-width="8.27" stroke-linejoin="bevel" points="7071.32,1021.89 7071.32,787.183" />
<polyline class="Stem" fill="none" stroke="#000000" stroke-width="8.27" stroke-linejoin="bevel" points="6208.63,1063.23 6208.63,828.713" />
<polyline class="Stem" fill="none" stroke="#000000" stroke-width="8.27" stroke-linejoin="bevel" points="7358.89,1063.23 7358.89,807.656" />
<polyline class="Stem" fill="none" stroke="#000000" stroke-width="8.27" stroke-linejoin="bevel" points="6559.88,2055.35 6559.88,1779.21" />
<polyline class="Stem" fill="none" stroke="#000000" stroke-width="8.27" stroke-linejoin="bevel" points="7646.45,1104.57 7646.45,828.129" />
<polyline class="Stem" fill="none" stroke="#000000" stroke-width="8.27" stroke-linejoin="bevel" points="6072.22,2096.69 6072.22,1820.55" />
<polyline class="Stem" fill="none" stroke="#000000" stroke-width="8.27" stroke-linejoin="bevel" points="7668.17,1972.68 7668.17,1703.46" />
<polyline class="Stem" fill="none" stroke="#000000" stroke-width="8.27" stroke-linejoin="bevel" points="5777.28,1021.89 5777.28,766.416" />
<polyline class="Stem" fill="none" stroke="#000000" stroke-width="8.27" stroke-linejoin="bevel" points="8052.25,1145.9 8052.25,869.762" />
<polyline class="Stem" fill="none" stroke="#000000" stroke-width="8.27" stroke-linejoin="bevel" points="5148.64,1931.34 5148.64,1655.2" />
<polyline class="Stem" fill="none" stroke="#000000" stroke-width="8.27" stroke-linejoin="bevel" points="7914.46,2014.01 7914.46,1710.28" />
<polyline class="Stem" fill="none" stroke="#000000" stroke-width="8.27" stroke-linejoin="bevel" points="8872.46,1021.89 8872.46,766.416" />
<polyline class="Stem" fill="none" stroke="#000000" stroke-width="8.27" stroke-linejoin="bevel" points="4912.82,924.991 4912.82,1200.47" />
<polyline class="Stem" fill="none" stroke="#000000" stroke-width="8.27" stroke-linejoin="bevel" points="8160.75,2055.35 8160.75,1717.09" />
<polyline class="Stem" fill="none" stroke="#000000" stroke-width="8.27" stroke-linejoin="bevel" points="4365.01,1021.89 4365.01,766.416" />
<polyline class="Stem" fill="none" stroke="#000000" stroke-width="8.27" stroke-linejoin="bevel" points="3716.22,1007.67 3716.22,1241.81" />
<polyline class="Stem" fill="none" stroke="#000000" stroke-width="8.27" stroke-linejoin="bevel" points="3527.87,1021.89 3527.87,808.043" />
<polyline class="Stem" fill="none" stroke="#000000" stroke-width="8.27" stroke-linejoin="bevel" points="8525.27,2055.35 8525.27,1779.21" />
<polyline class="Stem" fill="none" stroke="#000000" stroke-width="8.27" stroke-linejoin="bevel" points="3240.31,1063.23 3240.31,828.135" />
<polyline class="Stem" fill="none" stroke="#000000" stroke-width="8.27" stroke-linejoin="bevel" points="2952.74,1104.57 2952.74,848.804" />
<polyline class="Stem" fill="none" stroke="#000000" stroke-width="8.27" stroke-linejoin="bevel" points="4476.26,1931.34 4476.26,1655.2" />
<polyline class="Stem" fill="none" stroke="#000000" stroke-width="8.27" stroke-linejoin="bevel" points="4106.83,2055.35 4106.83,1779.21" />
<polyline class="Stem" fill="none" stroke="#000000" stroke-width="8.27" stroke-linejoin="bevel" points="1525.72,1931.34 1525.72,1696.65" />
<polyline class="Stem" fill="none" stroke="#000000" stroke-width="8.27" stroke-linejoin="bevel" points="6783.76,980.55 6783.76,766.71" />
<polyline class="Stem" fill="none" stroke="#000000" stroke-width="8.27" stroke-linejoin="bevel" points="3860.54,2096.69 3860.54,1862.22" />
<polyline class="Stem" fill="none" stroke="#000000" stroke-width="8.27" stroke-linejoin="bevel" points="1772.01,1972.68 1772.01,1703.46" />
<polyline class="Stem" fill="none" stroke="#000000" stroke-width="8.27" stroke-linejoin="bevel" points="2665.18,1063.23 2665.18,828.713" />
<polyline class="Stem" fill="none" stroke="#000000" stroke-width="8.27" stroke-linejoin="bevel" points="2233.83,1021.89 2233.83,766.416" />
<polyline class="Stem" fill="none" stroke="#000000" stroke-width="8.27" stroke-linejoin="bevel" points="6929.31,2014.01 6929.31,1778.88" />
<polyline class="Stem" fill="none" stroke="#000000" stroke-width="8.27" stroke-linejoin="bevel" points="2264.59,2055.35 2264.59,1717.09" />
<polyline class="Stem" fill="none" stroke="#000000" stroke-width="8.27" stroke-linejoin="bevel" points="6496.2,1104.57 6496.2,848.804" />
<polyline class="Stem" fill="none" stroke="#000000" stroke-width="8.27" stroke-linejoin="bevel" points="2510.88,1972.68 2510.88,1758.77" />
<polyline class="Stem" fill="none" stroke="#000000" stroke-width="8.27" stroke-linejoin="bevel" points="3614.25,2179.37 3614.25,1882.22" />
<polyline class="Stem" fill="none" stroke="#000000" stroke-width="8.27" stroke-linejoin="bevel" points="1720.2,1187.24 1720.2,911.101" />
<polyline class="Stem" fill="none" stroke="#000000" stroke-width="8.27" stroke-linejoin="bevel" points="2757.16,2014.01 2757.16,1772.4" />
<polyline class="Stem" fill="none" stroke="#000000" stroke-width="8.27" stroke-linejoin="bevel" points="2018.3,2014.01 2018.3,1710.28" />
<polyline class="Stem" fill="none" stroke="#000000" stroke-width="8.27" stroke-linejoin="bevel" points="3003.45,2055.35 3003.45,1786.02" />
<polyline class="Stem" fill="none" stroke="#000000" stroke-width="8.27" stroke-linejoin="bevel" points="7421.89,1931.34 7421.89,1696.65" />
<path class="Note" d="M1668.66,1999.81 C1668.66,2014.04 1678.93,2029.93 1705.74,2029.93 C1740.16,2029.93 1776.24,2001.79 1776.24,1972.66 C1776.24,1953.14 1759.69,1942.21 1739.17,1942.21 C1707.06,1942.21 1668.66,1969.35 1668.66,1999.81"/>
<path class="Note" d="M4933.51,939.567 C4922.59,939.567 4920.27,930.63 4920.27,927.651 C4920.27,911.432 4975.88,882.966 4991.44,882.966 C4999.38,882.966 5004.68,887.6 5004.68,894.882 C5004.68,911.432 4948.74,939.567 4933.51,939.567 M4979.19,867.409 C4947.08,867.409 4908.69,894.22 4908.69,925.003 C4908.69,939.236 4918.95,955.124 4945.76,955.124 C4980.18,955.124 5016.26,926.989 5016.26,897.861 C5016.26,878.332 4999.71,867.409 4979.19,867.409"/>
<path class="Note" d="M3146.39,2123.82 C3146.39,2138.05 3156.65,2153.94 3183.46,2153.94 C3217.89,2153.94 3253.97,2125.81 3253.97,2096.68 C3253.97,2077.15 3237.42,2066.23 3216.9,2066.23 C3184.79,2066.23 3146.39,2093.37 3146.39,2123.82"/>
<path class="Note" d="M2653.82,2041.14 C2653.82,2055.38 2664.08,2071.27 2690.89,2071.27 C2725.31,2071.27 2761.39,2043.13 2761.39,2014 C2761.39,1994.47 2744.84,1983.55 2724.32,1983.55 C2692.21,1983.55 2653.82,2010.69 2653.82,2041.14"/>
<path class="Note" d="M1616.85,1214.37 C1616.85,1228.61 1627.11,1244.49 1653.92,1244.49 C1688.35,1244.49 1724.43,1216.36 1724.43,1187.23 C1724.43,1167.7 1707.88,1156.78 1687.36,1156.78 C1655.25,1156.78 1616.85,1183.92 1616.85,1214.37"/>
<path class="Note" d="M2407.53,1999.81 C2407.53,2014.04 2417.79,2029.93 2444.6,2029.93 C2479.02,2029.93 2515.1,2001.79 2515.1,1972.66 C2515.1,1953.14 2498.55,1942.21 2478.03,1942.21 C2445.92,1942.21 2407.53,1969.35 2407.53,1999.81"/>
<path class="Note" d="M2161.24,2082.48 C2161.24,2096.72 2171.5,2112.6 2198.31,2112.6 C2232.74,2112.6 2268.82,2084.47 2268.82,2055.34 C2268.82,2035.81 2252.27,2024.89 2231.74,2024.89 C2199.64,2024.89 2161.24,2052.03 2161.24,2082.48"/>
<path class="Note" d="M1914.95,2041.14 C1914.95,2055.38 1925.21,2071.27 1952.02,2071.27 C1986.45,2071.27 2022.53,2043.13 2022.53,2014 C2022.53,1994.47 2005.98,1983.55 1985.46,1983.55 C1953.35,1983.55 1914.95,2010.69 1914.95,2041.14"/>
<path class="Note" d="M3510.91,2206.5 C3510.91,2220.73 3521.17,2236.62 3547.98,2236.62 C3582.4,2236.62 3618.48,2208.48 3618.48,2179.36 C3618.48,2159.83 3601.93,2148.9 3581.41,2148.9 C3549.3,2148.9 3510.91,2176.05 3510.91,2206.5"/>
<path class="Note" d="M2130.48,1049.02 C2130.48,1063.25 2140.74,1079.14 2167.56,1079.14 C2201.98,1079.14 2238.06,1051 2238.06,1021.88 C2238.06,1002.35 2221.51,991.425 2200.99,991.425 C2168.88,991.425 2130.48,1018.57 2130.48,1049.02"/>
<path class="Note" d="M2561.83,1090.36 C2561.83,1104.59 2572.09,1120.48 2598.9,1120.48 C2633.33,1120.48 2669.41,1092.34 2669.41,1063.22 C2669.41,1043.69 2652.86,1032.76 2632.33,1032.76 C2600.23,1032.76 2561.83,1059.91 2561.83,1090.36"/>
<path class="Note" d="M1422.38,1958.47 C1422.38,1972.7 1432.64,1988.59 1459.45,1988.59 C1493.87,1988.59 1529.95,1960.45 1529.95,1931.33 C1529.95,1911.8 1513.4,1900.87 1492.88,1900.87 C1460.77,1900.87 1422.38,1928.02 1422.38,1958.47"/>
<path class="Note" d="M3757.2,2123.82 C3757.2,2138.05 3767.46,2153.94 3794.27,2153.94 C3828.69,2153.94 3864.77,2125.81 3864.77,2096.68 C3864.77,2077.15 3848.22,2066.23 3827.7,2066.23 C3795.59,2066.23 3757.2,2093.37 3757.2,2123.82"/>
<path class="Note" d="M2849.4,1131.7 C2849.4,1145.93 2859.66,1161.82 2886.47,1161.82 C2920.89,1161.82 2956.97,1133.68 2956.97,1104.55 C2956.97,1085.02 2940.42,1074.1 2919.9,1074.1 C2887.79,1074.1 2849.4,1101.24 2849.4,1131.7"/>
<path class="Note" d="M4003.48,2082.48 C4003.48,2096.72 4013.75,2112.6 4040.56,2112.6 C4074.98,2112.6 4111.06,2084.47 4111.06,2055.34 C4111.06,2035.81 4094.51,2024.89 4073.99,2024.89 C4041.88,2024.89 4003.48,2052.03 4003.48,2082.48"/>
<path class="Note" d="M3136.96,1090.36 C3136.96,1104.59 3147.22,1120.48 3174.03,1120.48 C3208.46,1120.48 3244.54,1092.34 3244.54,1063.22 C3244.54,1043.69 3227.99,1032.76 3207.46,1032.76 C3175.36,1032.76 3136.96,1059.91 3136.96,1090.36"/>
<path class="Note" d="M4397.74,1973.03 C4386.82,1973.03 4384.5,1964.09 4384.5,1961.12 C4384.5,1944.9 4440.11,1916.43 4455.67,1916.43 C4463.61,1916.43 4468.91,1921.06 4468.91,1928.35 C4468.91,1944.9 4412.97,1973.03 4397.74,1973.03 M4443.42,1900.87 C4411.31,1900.87 4372.92,1927.68 4372.92,1958.47 C4372.92,1972.7 4383.18,1988.59 4409.99,1988.59 C4444.41,1988.59 4480.49,1960.45 4480.49,1931.33 C4480.49,1911.8 4463.94,1900.87 4443.42,1900.87"/>
<path class="Note" d="M8769.11,1049.02 C8769.11,1063.25 8779.37,1079.14 8806.18,1079.14 C8840.61,1079.14 8876.69,1051 8876.69,1021.88 C8876.69,1002.35 8860.14,991.425 8839.61,991.425 C8807.51,991.425 8769.11,1018.57 8769.11,1049.02"/>
<path class="Note" d="M8446.74,2097.05 C8435.82,2097.05 8433.5,2088.11 8433.5,2085.13 C8433.5,2068.91 8489.11,2040.45 8504.67,2040.45 C8512.61,2040.45 8517.91,2045.08 8517.91,2052.36 C8517.91,2068.91 8461.97,2097.05 8446.74,2097.05 M8492.42,2024.89 C8460.31,2024.89 8421.92,2051.7 8421.92,2082.48 C8421.92,2096.72 8432.18,2112.6 8458.99,2112.6 C8493.41,2112.6 8529.49,2084.47 8529.49,2055.34 C8529.49,2035.81 8512.94,2024.89 8492.42,2024.89"/>
<path class="Note" d="M7973.73,1187.6 C7962.8,1187.6 7960.49,1178.66 7960.49,1175.68 C7960.49,1159.46 8016.09,1131 8031.65,1131 C8039.6,1131 8044.89,1135.63 8044.89,1142.91 C8044.89,1159.46 7988.95,1187.6 7973.73,1187.6 M8019.4,1115.44 C7987.3,1115.44 7948.9,1142.25 7948.9,1173.03 C7948.9,1187.27 7959.16,1203.16 7985.97,1203.16 C8020.4,1203.16 8056.48,1175.02 8056.48,1145.89 C8056.48,1126.36 8039.93,1115.44 8019.4,1115.44"/>
<path class="Note" d="M5070.12,1973.03 C5059.19,1973.03 5056.88,1964.09 5056.88,1961.12 C5056.88,1944.9 5112.48,1916.43 5128.04,1916.43 C5135.99,1916.43 5141.28,1921.06 5141.28,1928.35 C5141.28,1944.9 5085.34,1973.03 5070.12,1973.03 M5115.79,1900.87 C5083.69,1900.87 5045.29,1927.68 5045.29,1958.47 C5045.29,1972.7 5055.55,1988.59 5082.36,1988.59 C5116.79,1988.59 5152.87,1960.45 5152.87,1931.33 C5152.87,1911.8 5136.32,1900.87 5115.79,1900.87"/>
<path class="Note" d="M3424.53,1049.02 C3424.53,1063.25 3434.79,1079.14 3461.6,1079.14 C3496.02,1079.14 3532.1,1051 3532.1,1021.88 C3532.1,1002.35 3515.55,991.425 3495.03,991.425 C3462.92,991.425 3424.53,1018.57 3424.53,1049.02"/>
<path class="Note" d="M7543.11,1131.7 C7543.11,1145.93 7553.37,1161.82 7580.18,1161.82 C7614.6,1161.82 7650.68,1133.68 7650.68,1104.55 C7650.68,1085.02 7634.13,1074.1 7613.61,1074.1 C7581.5,1074.1 7543.11,1101.24 7543.11,1131.7"/>
<path class="Note" d="M7255.54,1090.36 C7255.54,1104.59 7265.8,1120.48 7292.62,1120.48 C7327.04,1120.48 7363.12,1092.34 7363.12,1063.22 C7363.12,1043.69 7346.57,1032.76 7326.05,1032.76 C7293.94,1032.76 7255.54,1059.91 7255.54,1090.36"/>
<path class="Note" d="M5968.87,2123.82 C5968.87,2138.05 5979.13,2153.94 6005.94,2153.94 C6040.37,2153.94 6076.45,2125.81 6076.45,2096.68 C6076.45,2077.15 6059.9,2066.23 6039.37,2066.23 C6007.27,2066.23 5968.87,2093.37 5968.87,2123.82"/>
<path class="Note" d="M6967.98,1049.02 C6967.98,1063.25 6978.24,1079.14 7005.05,1079.14 C7039.47,1079.14 7075.55,1051 7075.55,1021.88 C7075.55,1002.35 7059,991.425 7038.48,991.425 C7006.37,991.425 6967.98,1018.57 6967.98,1049.02"/>
<path class="Note" d="M3712.09,1007.68 C3712.09,1021.91 3722.35,1037.8 3749.16,1037.8 C3783.59,1037.8 3819.67,1009.67 3819.67,980.538 C3819.67,961.009 3803.12,950.086 3782.59,950.086 C3750.49,950.086 3712.09,977.228 3712.09,1007.68"/>
<path class="Note" d="M6680.41,1007.68 C6680.41,1021.91 6690.67,1037.8 6717.49,1037.8 C6751.91,1037.8 6787.99,1009.67 6787.99,980.538 C6787.99,961.009 6771.44,950.086 6750.92,950.086 C6718.81,950.086 6680.41,977.228 6680.41,1007.68"/>
<path class="Note" d="M6456.53,2082.48 C6456.53,2096.72 6466.79,2112.6 6493.6,2112.6 C6528.03,2112.6 6564.11,2084.47 6564.11,2055.34 C6564.11,2035.81 6547.56,2024.89 6527.03,2024.89 C6494.93,2024.89 6456.53,2052.03 6456.53,2082.48"/>
<path class="Note" d="M6392.85,1131.7 C6392.85,1145.93 6403.11,1161.82 6429.92,1161.82 C6464.34,1161.82 6500.42,1133.68 6500.42,1104.55 C6500.42,1085.02 6483.87,1074.1 6463.35,1074.1 C6431.24,1074.1 6392.85,1101.24 6392.85,1131.7"/>
<path class="Note" d="M6825.96,2041.14 C6825.96,2055.38 6836.22,2071.27 6863.04,2071.27 C6897.46,2071.27 6933.54,2043.13 6933.54,2014 C6933.54,1994.47 6916.99,1983.55 6896.47,1983.55 C6864.36,1983.55 6825.96,2010.69 6825.96,2041.14"/>
<path class="Note" d="M8057.4,2082.48 C8057.4,2096.72 8067.66,2112.6 8094.47,2112.6 C8128.9,2112.6 8164.98,2084.47 8164.98,2055.34 C8164.98,2035.81 8148.43,2024.89 8127.91,2024.89 C8095.8,2024.89 8057.4,2052.03 8057.4,2082.48"/>
<path class="Note" d="M4286.49,1063.58 C4275.57,1063.58 4273.25,1054.65 4273.25,1051.67 C4273.25,1035.45 4328.86,1006.98 4344.42,1006.98 C4352.36,1006.98 4357.66,1011.62 4357.66,1018.9 C4357.66,1035.45 4301.72,1063.58 4286.49,1063.58 M4332.17,991.425 C4300.06,991.425 4261.67,1018.24 4261.67,1049.02 C4261.67,1063.25 4271.93,1079.14 4298.74,1079.14 C4333.16,1079.14 4369.24,1051 4369.24,1021.88 C4369.24,1002.35 4352.69,991.425 4332.17,991.425"/>
<path class="Note" d="M7072.25,1999.81 C7072.25,2014.04 7082.51,2029.93 7109.32,2029.93 C7143.75,2029.93 7179.83,2001.79 7179.83,1972.66 C7179.83,1953.14 7163.28,1942.21 7142.75,1942.21 C7110.65,1942.21 7072.25,1969.35 7072.25,1999.81"/>
<path class="Note" d="M6105.28,1090.36 C6105.28,1104.59 6115.54,1120.48 6142.36,1120.48 C6176.78,1120.48 6212.86,1092.34 6212.86,1063.22 C6212.86,1043.69 6196.31,1032.76 6175.79,1032.76 C6143.68,1032.76 6105.28,1059.91 6105.28,1090.36"/>
<path class="Note" d="M7318.54,1958.47 C7318.54,1972.7 7328.8,1988.59 7355.61,1988.59 C7390.04,1988.59 7426.11,1960.45 7426.11,1931.33 C7426.11,1911.8 7409.56,1900.87 7389.04,1900.87 C7356.94,1900.87 7318.54,1928.02 7318.54,1958.47"/>
<path class="Note" d="M7811.11,2041.14 C7811.11,2055.38 7821.38,2071.27 7848.19,2071.27 C7882.61,2071.27 7918.69,2043.13 7918.69,2014 C7918.69,1994.47 7902.14,1983.55 7881.62,1983.55 C7849.51,1983.55 7811.11,2010.69 7811.11,2041.14"/>
<path class="Note" d="M5673.94,1049.02 C5673.94,1063.25 5684.2,1079.14 5711.01,1079.14 C5745.43,1079.14 5781.51,1051 5781.51,1021.88 C5781.51,1002.35 5764.96,991.425 5744.44,991.425 C5712.33,991.425 5673.94,1018.57 5673.94,1049.02"/>
<path class="Note" d="M7564.83,1999.81 C7564.83,2014.04 7575.09,2029.93 7601.9,2029.93 C7636.32,2029.93 7672.4,2001.79 7672.4,1972.66 C7672.4,1953.14 7655.85,1942.21 7635.33,1942.21 C7603.22,1942.21 7564.83,1969.35 7564.83,1999.81"/>
<path class="Note" d="M2900.1,2082.48 C2900.1,2096.72 2910.37,2112.6 2937.18,2112.6 C2971.6,2112.6 3007.68,2084.47 3007.68,2055.34 C3007.68,2035.81 2991.13,2024.89 2970.61,2024.89 C2938.5,2024.89 2900.1,2052.03 2900.1,2082.48"/>
<path class="Clef" d="M909.689,2012.75 C903.069,2014.08 896.78,2014.74 890.491,2014.74 C843.158,2014.74 802.776,1981.64 802.776,1931.66 C802.776,1891.27 831.242,1855.2 860.37,1830.04 C865.997,1825.07 871.293,1820.44 876.258,1815.48 C879.237,1833.35 881.554,1848.91 883.871,1862.48 C853.75,1871.41 833.228,1903.19 833.228,1934.3 C833.228,1957.47 851.433,1989.25 877.913,1989.25 C880.561,1989.25 883.54,1987.93 883.54,1984.95 C883.54,1981.97 880.23,1980.31 876.258,1977.67 C863.349,1969.72 856.067,1961.12 856.067,1944.9 C856.067,1924.71 870.962,1908.49 890.491,1903.85 L909.689,2012.75 M880.561,1672.48 C883.54,1659.24 898.766,1624.49 915.978,1624.49 C920.943,1624.49 928.887,1640.71 928.887,1663.55 C928.887,1697.97 903.4,1723.79 880.561,1746.3 C878.575,1733.06 876.92,1720.15 876.92,1706.25 C876.92,1694 877.913,1682.74 880.561,1672.48 M956.691,1951.52 C956.691,1975.02 947.092,1999.18 923.591,2008.78 C916.64,1969.06 907.703,1916.43 905.386,1901.87 C935.176,1901.87 956.691,1922.06 956.691,1951.52 M811.051,2114.37 C811.051,2136.21 827.932,2165.01 872.617,2165.01 C888.174,2165.01 901.745,2161.04 913.661,2153.76 C931.535,2141.18 936.169,2119.33 936.169,2098.48 C936.169,2085.57 934.183,2070.68 930.873,2051.81 C929.88,2045.19 927.894,2035.26 925.908,2022.35 C958.346,2011.76 982.509,1978 982.509,1943.9 C982.509,1893.92 947.092,1860.16 898.766,1860.16 C895.456,1840.3 892.146,1820.77 889.167,1802.24 C924.253,1765.49 948.416,1724.12 948.416,1671.49 C948.416,1641.37 939.148,1616.88 933.852,1604.96 C925.908,1588.08 916.309,1576.49 910.351,1576.49 C908.034,1576.49 897.773,1580.47 886.85,1593.37 C865.666,1618.53 859.708,1660.9 859.708,1688.7 C859.708,1706.58 861.363,1722.8 866.99,1759.87 C866.659,1760.2 849.447,1777.74 842.496,1783.37 C812.375,1811.5 770.669,1851.55 770.669,1917.75 C770.669,1979.65 824.622,2028.31 886.188,2028.31 C895.787,2028.31 904.724,2027.32 912.337,2025.99 C918.626,2057.77 922.267,2080.94 922.267,2098.48 C922.267,2132.9 904.724,2151.11 871.293,2151.11 C863.349,2151.11 856.398,2149.45 855.736,2149.45 C855.405,2149.12 854.743,2148.79 854.743,2148.46 C854.743,2147.8 855.405,2147.47 856.398,2147.14 C871.955,2144.82 887.512,2131.58 887.512,2110.4 C887.512,2092.52 873.941,2073.66 849.116,2073.66 C825.946,2073.66 811.051,2092.52 811.051,2114.37"/>
<path class="Clef" d="M909.689,1144.64 C903.069,1145.97 896.78,1146.63 890.491,1146.63 C843.158,1146.63 802.776,1113.53 802.776,1063.55 C802.776,1023.16 831.242,987.085 860.37,961.929 C865.997,956.964 871.293,952.33 876.258,947.365 C879.237,965.239 881.554,980.796 883.871,994.367 C853.75,1003.3 833.228,1035.08 833.228,1066.19 C833.228,1089.36 851.433,1121.14 877.913,1121.14 C880.561,1121.14 883.54,1119.82 883.54,1116.84 C883.54,1113.86 880.23,1112.2 876.258,1109.56 C863.349,1101.61 856.067,1093.01 856.067,1076.79 C856.067,1056.6 870.962,1040.38 890.491,1035.74 L909.689,1144.64 M880.561,804.373 C883.54,791.133 898.766,756.378 915.978,756.378 C920.943,756.378 928.887,772.597 928.887,795.436 C928.887,829.86 903.4,855.678 880.561,878.186 C878.575,864.946 876.92,852.037 876.92,838.135 C876.92,825.888 877.913,814.634 880.561,804.373 M956.691,1083.41 C956.691,1106.91 947.092,1131.07 923.591,1140.67 C916.64,1100.95 907.703,1048.32 905.386,1033.76 C935.176,1033.76 956.691,1053.95 956.691,1083.41 M811.051,1246.26 C811.051,1268.1 827.932,1296.9 872.617,1296.9 C888.174,1296.9 901.745,1292.93 913.661,1285.65 C931.535,1273.07 936.169,1251.22 936.169,1230.37 C936.169,1217.46 934.183,1202.57 930.873,1183.7 C929.88,1177.08 927.894,1167.15 925.908,1154.24 C958.346,1143.65 982.509,1109.89 982.509,1075.79 C982.509,1025.81 947.092,992.05 898.766,992.05 C895.456,972.19 892.146,952.661 889.167,934.125 C924.253,897.384 948.416,856.009 948.416,803.38 C948.416,773.259 939.148,748.765 933.852,736.849 C925.908,719.968 916.309,708.383 910.351,708.383 C908.034,708.383 897.773,712.355 886.85,725.264 C865.666,750.42 859.708,792.788 859.708,820.592 C859.708,838.466 861.363,854.685 866.99,891.757 C866.659,892.088 849.447,909.631 842.496,915.258 C812.375,943.393 770.669,983.444 770.669,1049.64 C770.669,1111.54 824.622,1160.2 886.188,1160.2 C895.787,1160.2 904.724,1159.21 912.337,1157.88 C918.626,1189.66 922.267,1212.83 922.267,1230.37 C922.267,1264.79 904.724,1283 871.293,1283 C863.349,1283 856.398,1281.34 855.736,1281.34 C855.405,1281.01 854.743,1280.68 854.743,1280.35 C854.743,1279.69 855.405,1279.36 856.398,1279.03 C871.955,1276.71 887.512,1263.47 887.512,1242.29 C887.512,1224.41 873.941,1205.55 849.116,1205.55 C825.946,1205.55 811.051,1224.41 811.051,1246.26"/>
<path class="KeySig" d="M1070.17,1672.04 L1099.63,1666.08 L1099.63,1720.7 L1070.17,1726.99 L1070.17,1672.04 M1121.48,1661.78 C1123.47,1661.45 1125.12,1659.13 1125.12,1657.14 L1125.12,1637.62 C1125.12,1634.97 1123.13,1632.98 1120.49,1632.98 L1119.82,1632.98 L1108.9,1635.3 L1108.9,1585.98 L1099.63,1585.98 L1099.63,1637.28 L1070.17,1643.24 L1070.17,1596.57 L1060.91,1596.57 L1060.91,1645.23 L1048,1647.88 C1046.01,1648.21 1044.36,1650.52 1044.36,1652.51 L1044.36,1671.71 C1044.36,1674.36 1046.34,1676.34 1048.99,1676.34 L1049.98,1676.34 L1060.91,1674.03 L1060.91,1728.64 L1048,1731.29 C1046.01,1731.62 1044.36,1733.94 1044.36,1735.92 L1044.36,1755.12 C1044.36,1757.77 1046.34,1759.75 1048.99,1759.75 L1049.98,1759.75 L1060.91,1757.44 L1060.91,1806.76 L1070.17,1806.76 L1070.17,1755.45 L1099.63,1749.49 L1099.63,1796.16 L1108.9,1796.16 L1108.9,1747.51 L1121.48,1745.19 C1123.47,1744.86 1125.12,1742.54 1125.12,1740.56 L1125.12,1721.03 C1125.12,1718.38 1123.13,1716.39 1120.49,1716.39 L1119.82,1716.39 L1108.9,1718.71 L1108.9,1664.1 L1121.48,1661.78 "/>
<path class="KeySig" d="M1160.78,1796.06 L1190.24,1790.1 L1190.24,1844.71 L1160.78,1851 L1160.78,1796.06 M1212.09,1785.79 C1214.08,1785.46 1215.73,1783.15 1215.73,1781.16 L1215.73,1761.63 C1215.73,1758.98 1213.74,1757 1211.1,1757 L1210.43,1757 L1199.51,1759.31 L1199.51,1710 L1190.24,1710 L1190.24,1761.3 L1160.78,1767.26 L1160.78,1720.59 L1151.52,1720.59 L1151.52,1769.24 L1138.61,1771.89 C1136.62,1772.22 1134.97,1774.54 1134.97,1776.53 L1134.97,1795.72 C1134.97,1798.37 1136.95,1800.36 1139.6,1800.36 L1140.59,1800.36 L1151.52,1798.04 L1151.52,1852.66 L1138.61,1855.3 C1136.62,1855.64 1134.97,1857.95 1134.97,1859.94 L1134.97,1879.14 C1134.97,1881.78 1136.95,1883.77 1139.6,1883.77 L1140.59,1883.77 L1151.52,1881.45 L1151.52,1930.77 L1160.78,1930.77 L1160.78,1879.47 L1190.24,1873.51 L1190.24,1920.18 L1199.51,1920.18 L1199.51,1871.52 L1212.09,1869.21 C1214.08,1868.88 1215.73,1866.56 1215.73,1864.57 L1215.73,1845.04 C1215.73,1842.4 1213.74,1840.41 1211.1,1840.41 L1210.43,1840.41 L1199.51,1842.73 L1199.51,1788.11 L1212.09,1785.79 "/>
<path class="KeySig" d="M1070.17,803.93 L1099.63,797.972 L1099.63,852.587 L1070.17,858.876 L1070.17,803.93 M1121.48,793.669 C1123.47,793.338 1125.12,791.021 1125.12,789.035 L1125.12,769.506 C1125.12,766.858 1123.13,764.872 1120.49,764.872 L1119.82,764.872 L1108.9,767.189 L1108.9,717.87 L1099.63,717.87 L1099.63,769.175 L1070.17,775.133 L1070.17,728.462 L1060.91,728.462 L1060.91,777.119 L1048,779.767 C1046.01,780.098 1044.36,782.415 1044.36,784.401 L1044.36,803.599 C1044.36,806.247 1046.34,808.233 1048.99,808.233 L1049.98,808.233 L1060.91,805.916 L1060.91,860.531 L1048,863.179 C1046.01,863.51 1044.36,865.827 1044.36,867.813 L1044.36,887.011 C1044.36,889.659 1046.34,891.645 1048.99,891.645 L1049.98,891.645 L1060.91,889.328 L1060.91,938.647 L1070.17,938.647 L1070.17,887.342 L1099.63,881.384 L1099.63,928.055 L1108.9,928.055 L1108.9,879.398 L1121.48,877.081 C1123.47,876.75 1125.12,874.433 1125.12,872.447 L1125.12,852.918 C1125.12,850.27 1123.13,848.284 1120.49,848.284 L1119.82,848.284 L1108.9,850.601 L1108.9,795.986 L1121.48,793.669 "/>
<path class="KeySig" d="M1160.78,927.945 L1190.24,921.987 L1190.24,976.602 L1160.78,982.891 L1160.78,927.945 M1212.09,917.684 C1214.08,917.353 1215.73,915.036 1215.73,913.05 L1215.73,893.521 C1215.73,890.873 1213.74,888.887 1211.1,888.887 L1210.43,888.887 L1199.51,891.204 L1199.51,841.885 L1190.24,841.885 L1190.24,893.19 L1160.78,899.148 L1160.78,852.477 L1151.52,852.477 L1151.52,901.134 L1138.61,903.782 C1136.62,904.113 1134.97,906.43 1134.97,908.416 L1134.97,927.614 C1134.97,930.262 1136.95,932.248 1139.6,932.248 L1140.59,932.248 L1151.52,929.931 L1151.52,984.546 L1138.61,987.194 C1136.62,987.525 1134.97,989.842 1134.97,991.828 L1134.97,1011.03 C1134.97,1013.67 1136.95,1015.66 1139.6,1015.66 L1140.59,1015.66 L1151.52,1013.34 L1151.52,1062.66 L1160.78,1062.66 L1160.78,1011.36 L1190.24,1005.4 L1190.24,1052.07 L1199.51,1052.07 L1199.51,1003.41 L1212.09,1001.1 C1214.08,1000.77 1215.73,998.448 1215.73,996.462 L1215.73,976.933 C1215.73,974.285 1213.74,972.299 1211.1,972.299 L1210.43,972.299 L1199.51,974.616 L1199.51,920.001 L1212.09,917.684 "/>
<path class="TimeSig" d="M1405.94,934.529 C1397.66,939.825 1391.7,949.424 1391.7,960.016 C1391.7,961.34 1391.7,962.664 1392.03,963.988 C1393.69,977.559 1404.61,988.151 1418.18,989.806 L1421.82,989.806 C1438.37,989.806 1451.61,976.566 1451.61,960.016 L1451.61,958.03 C1451.61,956.706 1451.28,954.389 1450.95,953.065 C1447.97,938.832 1435.06,908.38 1378.79,908.38 C1306.64,908.38 1298.36,968.291 1298.36,989.806 C1298.36,1029.2 1303.33,1078.51 1386.08,1078.51 C1418.85,1078.51 1444.33,1059.32 1445.66,1023.9 C1445.66,1022.24 1444.66,1021.25 1443.01,1021.25 L1438.71,1021.25 C1437.38,1021.25 1436.06,1022.58 1436.06,1023.9 C1434.73,1051.37 1415.2,1067.92 1386.08,1067.92 C1357.28,1067.92 1343.38,1052.37 1343.38,1023.24 L1343.38,960.016 C1343.38,941.48 1350.66,920.296 1380.12,920.296 C1395.68,920.296 1402.63,925.923 1406.27,931.55 C1406.6,932.212 1406.6,932.543 1406.6,933.205 C1406.6,933.536 1406.6,934.198 1405.94,934.529"/>
<path class="Rest" d="M5675.57,1916.83 C5675.24,1916.5 5674.58,1915.84 5673.58,1914.52 L5635.52,1867.52 C5635.19,1867.18 5634.86,1866.19 5634.86,1865.53 C5634.86,1864.54 5635.19,1863.21 5635.52,1862.55 L5669.28,1811.58 C5669.61,1810.91 5669.94,1809.92 5669.94,1809.26 L5669.94,1806.28 C5669.94,1805.29 5669.61,1804.29 5668.95,1803.63 L5615.33,1731.14 C5615.33,1731.14 5614,1729.16 5612.02,1729.16 C5611.02,1729.16 5610.36,1729.49 5609.37,1730.15 C5608.05,1731.14 5607.71,1732.47 5607.71,1733.46 C5607.71,1735.45 5608.71,1737.1 5608.71,1737.1 L5633.86,1771.53 C5634.53,1772.52 5634.86,1773.84 5634.86,1775.5 C5634.86,1776.82 5634.53,1778.48 5633.86,1779.47 L5600.43,1830.44 C5600.1,1831.11 5599.77,1832.43 5599.77,1833.09 L5599.77,1836.07 C5599.77,1837.06 5600.1,1838.06 5600.76,1838.72 L5637.84,1884.73 C5636.51,1884.4 5633.53,1883.73 5629.56,1883.73 C5612.68,1883.73 5599.44,1897.64 5599.44,1914.52 C5599.44,1919.15 5600.43,1923.79 5603.08,1927.43 C5610.03,1938.02 5634.86,1969.46 5634.86,1969.46 C5634.86,1969.46 5636.51,1971.45 5638.83,1971.45 C5639.49,1971.45 5640.15,1971.45 5640.81,1970.79 C5642.47,1969.46 5643.13,1968.14 5643.13,1966.82 C5643.13,1965.49 5642.47,1964.5 5642.14,1963.84 C5641.15,1962.18 5630.55,1942.98 5630.55,1942.98 C5630.55,1942.98 5628.24,1938.35 5628.24,1932.39 C5628.24,1921.8 5636.18,1913.19 5646.77,1913.19 C5651.08,1913.19 5654.72,1914.52 5657.36,1916.17 L5670.27,1924.45 C5670.27,1924.45 5671.6,1925.11 5672.92,1925.11 C5674.25,1925.11 5675.24,1924.78 5676.23,1923.45 C5676.89,1922.13 5677.22,1921.47 5677.22,1920.48 C5677.22,1919.48 5676.89,1918.82 5676.23,1917.83 L5675.57,1916.83 "/>
<path class="Beam" fill-rule="evenodd" d="M7417.75,1675.86 L8164.88,1696.53 L8164.88,1737.88 L7417.75,1717.21 L7417.75,1675.86 "/>
<path class="Beam" fill-rule="evenodd" d="M6204.5,807.704 L6500.33,828.373 L6500.33,869.813 L6204.5,849.143 L6204.5,807.704 "/>
<path class="Beam" fill-rule="evenodd" d="M6925.18,1758.47 L7179.73,1737.8 L7179.73,1779.28 L6925.18,1799.95 L6925.18,1758.47 "/>
<path class="Beam" fill-rule="evenodd" d="M6779.63,745.694 L7650.59,807.702 L7650.59,849.145 L6779.63,787.137 L6779.63,745.694 "/>
<path class="Beam" fill-rule="evenodd" d="M3236.17,807.704 L3532.01,787.035 L3532.01,828.474 L3236.17,849.143 L3236.17,807.704 "/>
<path class="Beam" fill-rule="evenodd" d="M2661.04,807.704 L2956.88,828.373 L2956.88,869.813 L2661.04,849.143 L2661.04,807.704 "/>
<path class="Beam" fill-rule="evenodd" d="M1521.59,1675.86 L2268.72,1696.53 L2268.72,1737.88 L1521.59,1717.21 L1521.59,1675.86 "/>
<path class="Beam" fill-rule="evenodd" d="M3610.12,1861.82 L3864.68,1841.15 L3864.68,1882.63 L3610.12,1903.29 L3610.12,1861.82 "/>
<path class="Beam" fill-rule="evenodd" d="M2506.74,1737.84 L3253.87,1779.18 L3253.87,1820.58 L2506.74,1779.24 L2506.74,1737.84 "/>
<path class="NoteDot" d="M8097.73,1117.79 C8097.73,1127.06 8105.02,1134.34 8114.28,1134.34 C8123.55,1134.34 8130.83,1127.06 8130.83,1117.79 C8130.83,1108.53 8123.55,1101.24 8114.28,1101.24 C8105.02,1101.24 8097.73,1108.53 8097.73,1117.79"/>
<path class="NoteDot" d="M8570.75,2068.58 C8570.75,2077.85 8578.03,2085.13 8587.3,2085.13 C8596.57,2085.13 8603.85,2077.85 8603.85,2068.58 C8603.85,2059.31 8596.57,2052.03 8587.3,2052.03 C8578.03,2052.03 8570.75,2059.31 8570.75,2068.58"/>
</svg>
