<?xml version="1.0" encoding="UTF-8" standalone="no"?>
<svg width="210.058mm" height="296.926mm" viewBox="0 0 9924 14028"
 xmlns="http://www.w3.org/2000/svg" xmlns:xlink="http://www.w3.org/1999/xlink" version="1.2" baseProfile="full">
<title>air_LIV</title>
<desc>Generated by MuseScore Studio 4.7.3</desc>
<polyline class="StaffLines" fill="none" stroke="#000000" stroke-width="9.09" stroke-linejoin="bevel" points="708.661,832.677 9215.34,832.677" />
<polyline class="StaffLines" fill="none" stroke="#000000" stroke-width="9.09" stroke-linejoin="bevel" points="708.661,915.354 9215.34,915.354" />
<polyline class="StaffLines" fill="none" stroke="#000000" stroke-width="9.09" stroke-linejoin="bevel" points="708.661,998.031 9215.34,998.031" />
<polyline class="StaffLines" fill="none" stroke="#000000" stroke-width="9.09" stroke-linejoin="bevel" points="708.661,1080.71 9215.34,1080.71" />
<polyline class="StaffLines" fill="none" stroke="#000000" stroke-width="9.09" stroke-linejoin="bevel" points="708.661,1163.39 9215.34,1163.39" />
<polyline class="StaffLines" fill="none" stroke="#000000" stroke-width="9.09" stroke-linejoin="bevel" points="708.661,1700.79 9215.34,1700.79" />
<polyline class="StaffLines" fill="none" stroke="#000000" stroke-width="9.09" stroke-linejoin="bevel" points="708.661,1783.46 9215.34,1783.46" />
<polyline class="StaffLines" fill="none" stroke="#000000" stroke-width="9.09" stroke-linejoin="bevel" points="708.661,1866.14 9215.34,1866.14" />
<polyline class="StaffLines" fill="none" stroke="#000000" stroke-width="9.09" stroke-linejoin="bevel" points="708.661,1948.82 9215.34,1948.82" />
<polyline class="StaffLines" fill="none" stroke="#000000" stroke-width="9.09" stroke-linejoin="bevel" points="708.661,2031.5 9215.34,2031.5" />
<polyline class="StaffLines" fill="none" stroke="#000000" stroke-width="9.09" stroke-linejoin="bevel" points="708.661,2568.9 9215.34,2568.9" />
<polyline class="StaffLines" fill="none" stroke="#000000" stroke-width="9.09" stroke-linejoin="bevel" points="708.661,2651.57 9215.34,2651.57" />
<polyline class="StaffLines" fill="none" stroke="#000000" stroke-width="9.09" stroke-linejoin="bevel" points="708.661,2734.25 9215.34,2734.25" />
<polyline class="StaffLines" fill="none" stroke="#000000" stroke-width="9.09" stroke-linejoin="bevel" points="708.661,2816.93 9215.34,2816.93" />
<polyline class="StaffLines" fill="none" stroke="#000000" stroke-width="9.09" stroke-linejoin="bevel" points="708.661,2899.61 9215.34,2899.61" />
<polyline class="BarLine" fill="none" stroke="#000000" stroke-width="14.88" stroke-linejoin="bevel" points="5414.2,828.13 5414.2,1167.93" />
<polyline class="BarLine" fill="none" stroke="#000000" stroke-width="14.88" stroke-linejoin="bevel" points="7583.26,2564.35 7583.26,2904.15" />
<polyline class="BarLine" fill="none" stroke="#000000" stroke-width="14.88" stroke-linejoin="bevel" points="5416.98,2564.35 5416.98,2904.15" />
<polyline class="BarLine" fill="none" stroke="#000000" stroke-width="14.88" stroke-linejoin="bevel" points="3387.24,2564.35 3387.24,2904.15" />
<polyline class="BarLine" fill="none" stroke="#000000" stroke-width="14.88" stroke-linejoin="bevel" points="1990.24,828.13 1990.24,1167.93" />
<polyline class="BarLine" fill="none" stroke="#000000" stroke-width="14.88" stroke-linejoin="bevel" points="9207.9,1696.24 9207.9,2036.04" />
<polyline class="BarLine" fill="none" stroke="#000000" stroke-width="14.88" stroke-linejoin="bevel" points="7549.08,1696.24 7549.08,2036.04" />
<polyline class="BarLine" fill="none" stroke="#000000" stroke-width="14.88" stroke-linejoin="bevel" points="5962.67,1696.24 5962.67,2036.04" />
<path class="BarLine" d="M9093.83,2692.91 C9093.83,2683.31 9086.22,2675.37 9076.62,2675.37 C9067.02,2675.37 9059.41,2683.31 9059.41,2692.91 C9059.41,2702.51 9067.02,2710.46 9076.62,2710.46 C9086.22,2710.46 9093.83,2702.51 9093.83,2692.91"/>
<path class="BarLine" d="M9093.83,2775.59 C9093.83,2765.99 9086.22,2758.05 9076.62,2758.05 C9067.02,2758.05 9059.41,2765.99 9059.41,2775.59 C9059.41,2785.19 9067.02,2793.13 9076.62,2793.13 C9086.22,2793.13 9093.83,2785.19 9093.83,2775.59"/>
<polyline class="BarLine" fill="none" stroke="#000000" stroke-width="14.88" stroke-linejoin="bevel" points="9131.84,2564.35 9131.84,2904.15" />
<polyline class="BarLine" fill="none" stroke="#000000" stroke-width="45.47" stroke-linejoin="bevel" points="9192.6,2564.35 9192.6,2904.15" />
<polyline class="BarLine" fill="none" stroke="#000000" stroke-width="14.88" stroke-linejoin="bevel" points="4355.62,1696.24 4355.62,2036.04" />
<polyline class="BarLine" fill="none" stroke="#000000" stroke-width="14.88" stroke-linejoin="bevel" points="2828.02,1696.24 2828.02,2036.04" />
<polyline class="BarLine" fill="none" stroke="#000000" stroke-width="14.88" stroke-linejoin="bevel" points="7226.81,828.13 7226.81,1167.93" />
<path class="BarLine" d="M8587.67,956.693 C8587.67,947.094 8580.05,939.15 8570.45,939.15 C8560.85,939.15 8553.24,947.094 8553.24,956.693 C8553.24,966.292 8560.85,974.236 8570.45,974.236 C8580.05,974.236 8587.67,966.292 8587.67,956.693"/>
<path class="BarLine" d="M8587.67,1039.37 C8587.67,1029.77 8580.05,1021.83 8570.45,1021.83 C8560.85,1021.83 8553.24,1029.77 8553.24,1039.37 C8553.24,1048.97 8560.85,1056.91 8570.45,1056.91 C8580.05,1056.91 8587.67,1048.97 8587.67,1039.37"/>
<polyline class="BarLine" fill="none" stroke="#000000" stroke-width="14.88" stroke-linejoin="bevel" points="8625.67,828.13 8625.67,1167.93" />
<polyline class="BarLine" fill="none" stroke="#000000" stroke-width="45.47" stroke-linejoin="bevel" points="8686.44,828.13 8686.44,1167.93" />
<polyline class="BarLine" fill="none" stroke="#000000" stroke-width="45.47" stroke-linejoin="bevel" points="8686.44,828.13 8686.44,1167.93" />
<polyline class="BarLine" fill="none" stroke="#000000" stroke-width="14.88" stroke-linejoin="bevel" points="8747.21,828.13 8747.21,1167.93" />
<path class="BarLine" d="M8819.66,956.693 C8819.66,947.094 8812.05,939.15 8802.45,939.15 C8792.85,939.15 8785.23,947.094 8785.23,956.693 C8785.23,966.292 8792.85,974.236 8802.45,974.236 C8812.05,974.236 8819.66,966.292 8819.66,956.693"/>
<path class="BarLine" d="M8819.66,1039.37 C8819.66,1029.77 8812.05,1021.83 8802.45,1021.83 C8792.85,1021.83 8785.23,1029.77 8785.23,1039.37 C8785.23,1048.97 8792.85,1056.91 8802.45,1056.91 C8812.05,1056.91 8819.66,1048.97 8819.66,1039.37"/>
<polyline class="BarLine" fill="none" stroke="#000000" stroke-width="14.88" stroke-linejoin="bevel" points="3690.32,828.13 3690.32,1167.93" />
<polyline class="BarLine" fill="none" stroke="#000000" stroke-width="14.88" stroke-linejoin="bevel" points="9207.9,828.13 9207.9,1167.93" />
<path class="Accidental" d="M3031.17,2627.08 L3060.63,2621.12 L3060.63,2675.74 L3031.17,2682.03 L3031.17,2627.08 M3082.48,2616.82 C3084.46,2616.49 3086.12,2614.17 3086.12,2612.19 L3086.12,2592.66 C3086.12,2590.01 3084.13,2588.02 3081.48,2588.02 L3080.82,2588.02 L3069.9,2590.34 L3069.9,2541.02 L3060.63,2541.02 L3060.63,2592.33 L3031.17,2598.28 L3031.17,2551.61 L3021.9,2551.61 L3021.9,2600.27 L3009,2602.92 C3007.01,2603.25 3005.35,2605.57 3005.35,2607.55 L3005.35,2626.75 C3005.35,2629.4 3007.34,2631.38 3009.99,2631.38 L3010.98,2631.38 L3021.9,2629.07 L3021.9,2683.68 L3009,2686.33 C3007.01,2686.66 3005.35,2688.98 3005.35,2690.96 L3005.35,2710.16 C3005.35,2712.81 3007.34,2714.8 3009.99,2714.8 L3010.98,2714.8 L3021.9,2712.48 L3021.9,2761.8 L3031.17,2761.8 L3031.17,2710.49 L3060.63,2704.53 L3060.63,2751.21 L3069.9,2751.21 L3069.9,2702.55 L3082.48,2700.23 C3084.46,2699.9 3086.12,2697.58 3086.12,2695.6 L3086.12,2676.07 C3086.12,2673.42 3084.13,2671.43 3081.48,2671.43 L3080.82,2671.43 L3069.9,2673.75 L3069.9,2619.14 L3082.48,2616.82 "/>
<path class="Accidental" d="M7636.08,1924.32 L7665.54,1918.37 L7665.54,1972.98 L7636.08,1979.27 L7636.08,1924.32 M7687.39,1914.06 C7689.37,1913.73 7691.03,1911.42 7691.03,1909.43 L7691.03,1889.9 C7691.03,1887.25 7689.04,1885.27 7686.39,1885.27 L7685.73,1885.27 L7674.81,1887.58 L7674.81,1838.26 L7665.54,1838.26 L7665.54,1889.57 L7636.08,1895.53 L7636.08,1848.86 L7626.81,1848.86 L7626.81,1897.51 L7613.91,1900.16 C7611.92,1900.49 7610.26,1902.81 7610.26,1904.8 L7610.26,1923.99 C7610.26,1926.64 7612.25,1928.63 7614.9,1928.63 L7615.89,1928.63 L7626.81,1926.31 L7626.81,1980.93 L7613.91,1983.57 C7611.92,1983.9 7610.26,1986.22 7610.26,1988.21 L7610.26,2007.41 C7610.26,2010.05 7612.25,2012.04 7614.9,2012.04 L7615.89,2012.04 L7626.81,2009.72 L7626.81,2059.04 L7636.08,2059.04 L7636.08,2007.74 L7665.54,2001.78 L7665.54,2048.45 L7674.81,2048.45 L7674.81,1999.79 L7687.39,1997.48 C7689.37,1997.14 7691.03,1994.83 7691.03,1992.84 L7691.03,1973.31 C7691.03,1970.66 7689.04,1968.68 7686.39,1968.68 L7685.73,1968.68 L7674.81,1971 L7674.81,1916.38 L7687.39,1914.06 "/>
<polyline class="Stem" fill="none" stroke="#000000" stroke-width="8.27" stroke-linejoin="bevel" points="8753.14,2886.38 8753.14,2610.24" />
<polyline class="Stem" fill="none" stroke="#000000" stroke-width="8.27" stroke-linejoin="bevel" points="3329.66,1026.14 3329.66,790.972" />
<polyline class="Stem" fill="none" stroke="#000000" stroke-width="8.27" stroke-linejoin="bevel" points="8480.07,2886.38 8480.07,2651.27" />
<polyline class="Stem" fill="none" stroke="#000000" stroke-width="8.27" stroke-linejoin="bevel" points="4804.68,1108.82 4804.68,832.677" />
<polyline class="Stem" fill="none" stroke="#000000" stroke-width="8.27" stroke-linejoin="bevel" points="8207,2845.04 8207,2631.21" />
<polyline class="Stem" fill="none" stroke="#000000" stroke-width="8.27" stroke-linejoin="bevel" points="7797.39,2803.7 7797.39,2527.56" />
<polyline class="Stem" fill="none" stroke="#000000" stroke-width="8.27" stroke-linejoin="bevel" points="5518.3,1756.02 5518.3,2011.22" />
<polyline class="Stem" fill="none" stroke="#000000" stroke-width="8.27" stroke-linejoin="bevel" points="5232.63,1067.48 5232.63,792" />
<polyline class="Stem" fill="none" stroke="#000000" stroke-width="8.27" stroke-linejoin="bevel" points="4569.75,1935.59 4569.75,1659.45" />
<polyline class="Stem" fill="none" stroke="#000000" stroke-width="8.27" stroke-linejoin="bevel" points="4884.08,1935.59 4884.08,1700.39" />
<polyline class="Stem" fill="none" stroke="#000000" stroke-width="8.27" stroke-linejoin="bevel" points="4354.56,1026.14 4354.56,770.544" />
<polyline class="Stem" fill="none" stroke="#000000" stroke-width="8.27" stroke-linejoin="bevel" points="5628.33,1026.14 5628.33,770.669" />
<polyline class="Stem" fill="none" stroke="#000000" stroke-width="8.27" stroke-linejoin="bevel" points="7406.09,2762.36 7406.09,2527.26" />
<polyline class="Stem" fill="none" stroke="#000000" stroke-width="8.27" stroke-linejoin="bevel" points="5965.92,1067.48 5965.92,833.043" />
<polyline class="Stem" fill="none" stroke="#000000" stroke-width="8.27" stroke-linejoin="bevel" points="7133.02,2721.02 7133.02,2507.19" />
<polyline class="Stem" fill="none" stroke="#000000" stroke-width="8.27" stroke-linejoin="bevel" points="6723.41,2845.04 6723.41,2568.9" />
<polyline class="Stem" fill="none" stroke="#000000" stroke-width="8.27" stroke-linejoin="bevel" points="6190.97,1108.82 6190.97,852.98" />
<polyline class="Stem" fill="none" stroke="#000000" stroke-width="8.27" stroke-linejoin="bevel" points="6450.33,2803.7 6450.33,2527.25" />
<polyline class="Stem" fill="none" stroke="#000000" stroke-width="8.27" stroke-linejoin="bevel" points="6316.82,1094.6 6316.82,1287.15" />
<polyline class="Stem" fill="none" stroke="#000000" stroke-width="8.27" stroke-linejoin="bevel" points="6177.26,2762.36 6177.26,2506.79" />
<polyline class="Stem" fill="none" stroke="#000000" stroke-width="8.27" stroke-linejoin="bevel" points="5904.19,2721.02 5904.19,2486.32" />
<polyline class="Stem" fill="none" stroke="#000000" stroke-width="8.27" stroke-linejoin="bevel" points="6541.88,1011.92 6541.88,1273.54" />
<polyline class="Stem" fill="none" stroke="#000000" stroke-width="8.27" stroke-linejoin="bevel" points="5631.11,2679.68 5631.11,2465.86" />
<polyline class="Stem" fill="none" stroke="#000000" stroke-width="8.27" stroke-linejoin="bevel" points="6766.93,887.905 6766.93,1259.93" />
<polyline class="Stem" fill="none" stroke="#000000" stroke-width="8.27" stroke-linejoin="bevel" points="1629.58,1108.82 1629.58,853.346" />
<polyline class="Stem" fill="none" stroke="#000000" stroke-width="8.27" stroke-linejoin="bevel" points="6991.99,1011.92 6991.99,1246.31" />
<polyline class="Stem" fill="none" stroke="#000000" stroke-width="8.27" stroke-linejoin="bevel" points="5239.81,2721.02 5239.81,2507.19" />
<polyline class="Stem" fill="none" stroke="#000000" stroke-width="8.27" stroke-linejoin="bevel" points="4966.74,2762.36 4966.74,2527.26" />
<polyline class="Stem" fill="none" stroke="#000000" stroke-width="8.27" stroke-linejoin="bevel" points="4129.51,984.803 4129.51,750.125" />
<polyline class="Stem" fill="none" stroke="#000000" stroke-width="8.27" stroke-linejoin="bevel" points="7440.94,1067.48 7440.94,791.338" />
<polyline class="Stem" fill="none" stroke="#000000" stroke-width="8.27" stroke-linejoin="bevel" points="4557.13,2803.7 4557.13,2527.56" />
<polyline class="Stem" fill="none" stroke="#000000" stroke-width="8.27" stroke-linejoin="bevel" points="7778.53,1108.82 7778.53,895.051" />
<polyline class="Stem" fill="none" stroke="#000000" stroke-width="8.27" stroke-linejoin="bevel" points="4284.06,2762.36 4284.06,2527.26" />
<polyline class="Stem" fill="none" stroke="#000000" stroke-width="8.27" stroke-linejoin="bevel" points="4010.98,2721.02 4010.98,2507.19" />
<polyline class="Stem" fill="none" stroke="#000000" stroke-width="8.27" stroke-linejoin="bevel" points="8003.58,1150.16 8003.58,914.988" />
<polyline class="Stem" fill="none" stroke="#000000" stroke-width="8.27" stroke-linejoin="bevel" points="3502.16,2624.13 3502.16,2899.61" />
<polyline class="Stem" fill="none" stroke="#000000" stroke-width="8.27" stroke-linejoin="bevel" points="8228.64,1150.16 8228.64,874.016" />
<polyline class="Stem" fill="none" stroke="#000000" stroke-width="8.27" stroke-linejoin="bevel" points="1854.63,1108.82 1854.63,853.346" />
<polyline class="Stem" fill="none" stroke="#000000" stroke-width="8.27" stroke-linejoin="bevel" points="3110.86,2665.46 3110.86,2899.3" />
<polyline class="Stem" fill="none" stroke="#000000" stroke-width="8.27" stroke-linejoin="bevel" points="2837.79,2624.13 2837.79,2879.24" />
<polyline class="Stem" fill="none" stroke="#000000" stroke-width="8.27" stroke-linejoin="bevel" points="2527.39,2845.04 2527.39,2568.9" />
<polyline class="Stem" fill="none" stroke="#000000" stroke-width="8.27" stroke-linejoin="bevel" points="3904.45,943.464 3904.45,729.706" />
<polyline class="Stem" fill="none" stroke="#000000" stroke-width="8.27" stroke-linejoin="bevel" points="5093.63,1894.25 5093.63,1680.51" />
<polyline class="Stem" fill="none" stroke="#000000" stroke-width="8.27" stroke-linejoin="bevel" points="9026.33,1108.82 9026.33,833.338" />
<polyline class="Stem" fill="none" stroke="#000000" stroke-width="8.27" stroke-linejoin="bevel" points="2254.32,2803.7 2254.32,2527.25" />
<polyline class="Stem" fill="none" stroke="#000000" stroke-width="8.27" stroke-linejoin="bevel" points="1981.25,2762.36 1981.25,2506.79" />
<polyline class="Stem" fill="none" stroke="#000000" stroke-width="8.27" stroke-linejoin="bevel" points="3554.71,984.803 3554.71,771.035" />
<polyline class="Stem" fill="none" stroke="#000000" stroke-width="8.27" stroke-linejoin="bevel" points="1708.17,2721.02 1708.17,2486.32" />
<polyline class="Stem" fill="none" stroke="#000000" stroke-width="8.27" stroke-linejoin="bevel" points="1435.1,2679.68 1435.1,2465.86" />
<polyline class="Stem" fill="none" stroke="#000000" stroke-width="8.27" stroke-linejoin="bevel" points="1435.1,1935.59 1435.1,1659.45" />
<polyline class="Stem" fill="none" stroke="#000000" stroke-width="8.27" stroke-linejoin="bevel" points="2204.37,1067.48 2204.37,791.338" />
<polyline class="Stem" fill="none" stroke="#000000" stroke-width="8.27" stroke-linejoin="bevel" points="1749.43,1935.59 1749.43,1700.39" />
<polyline class="Stem" fill="none" stroke="#000000" stroke-width="8.27" stroke-linejoin="bevel" points="9072.3,1852.91 9072.3,1639.17" />
<polyline class="Stem" fill="none" stroke="#000000" stroke-width="8.27" stroke-linejoin="bevel" points="8862.74,1894.25 8862.74,1659.06" />
<polyline class="Stem" fill="none" stroke="#000000" stroke-width="8.27" stroke-linejoin="bevel" points="1958.98,1894.25 1958.98,1680.51" />
<polyline class="Stem" fill="none" stroke="#000000" stroke-width="8.27" stroke-linejoin="bevel" points="8548.42,1894.25 8548.42,1638.78" />
<polyline class="Stem" fill="none" stroke="#000000" stroke-width="8.27" stroke-linejoin="bevel" points="2069.32,1880.03 2069.32,2114.17" />
<polyline class="Stem" fill="none" stroke="#000000" stroke-width="8.27" stroke-linejoin="bevel" points="8338.86,1935.59 8338.86,1700.79" />
<polyline class="Stem" fill="none" stroke="#000000" stroke-width="8.27" stroke-linejoin="bevel" points="2383.65,1880.03 2383.65,2093.11" />
<polyline class="Stem" fill="none" stroke="#000000" stroke-width="8.27" stroke-linejoin="bevel" points="8129.31,1935.59 8129.31,1700.79" />
<polyline class="Stem" fill="none" stroke="#000000" stroke-width="8.27" stroke-linejoin="bevel" points="7814.98,1935.59 7814.98,1659.45" />
<polyline class="Stem" fill="none" stroke="#000000" stroke-width="8.27" stroke-linejoin="bevel" points="2593.2,1838.69 2593.2,2073.23" />
<polyline class="Stem" fill="none" stroke="#000000" stroke-width="8.27" stroke-linejoin="bevel" points="2541.96,1108.82 2541.96,895.051" />
<polyline class="Stem" fill="none" stroke="#000000" stroke-width="8.27" stroke-linejoin="bevel" points="7314.27,1880.03 7314.27,2134.51" />
<polyline class="Stem" fill="none" stroke="#000000" stroke-width="8.27" stroke-linejoin="bevel" points="2892.86,1011.92 2892.86,1246.06" />
<polyline class="Stem" fill="none" stroke="#000000" stroke-width="8.27" stroke-linejoin="bevel" points="2942.94,1797.35 2942.94,2072.83" />
<polyline class="Stem" fill="none" stroke="#000000" stroke-width="8.27" stroke-linejoin="bevel" points="7015.01,1935.59 7015.01,1659.45" />
<polyline class="Stem" fill="none" stroke="#000000" stroke-width="8.27" stroke-linejoin="bevel" points="3257.27,1838.69 3257.27,2073.23" />
<polyline class="Stem" fill="none" stroke="#000000" stroke-width="8.27" stroke-linejoin="bevel" points="6805.46,1935.59 6805.46,1659.05" />
<polyline class="Stem" fill="none" stroke="#000000" stroke-width="8.27" stroke-linejoin="bevel" points="6595.91,1894.25 6595.91,1638.65" />
<polyline class="Stem" fill="none" stroke="#000000" stroke-width="8.27" stroke-linejoin="bevel" points="3466.82,1880.03 3466.82,2093.11" />
<polyline class="Stem" fill="none" stroke="#000000" stroke-width="8.27" stroke-linejoin="bevel" points="4579.62,1067.48 4579.62,790.963" />
<polyline class="Stem" fill="none" stroke="#000000" stroke-width="8.27" stroke-linejoin="bevel" points="3775.58,1894.25 3775.58,1638.78" />
<polyline class="Stem" fill="none" stroke="#000000" stroke-width="8.27" stroke-linejoin="bevel" points="6386.36,1852.91 6386.36,1618.24" />
<polyline class="Stem" fill="none" stroke="#000000" stroke-width="8.27" stroke-linejoin="bevel" points="6176.8,1811.57 6176.8,1597.84" />
<polyline class="Stem" fill="none" stroke="#000000" stroke-width="8.27" stroke-linejoin="bevel" points="5727.85,1797.35 5727.85,2031.1" />
<polyline class="Stem" fill="none" stroke="#000000" stroke-width="8.27" stroke-linejoin="bevel" points="4174.05,2059.61 4174.05,1784.13" />
<polyline class="Stem" fill="none" stroke="#000000" stroke-width="8.27" stroke-linejoin="bevel" points="2767.01,1150.16 2767.01,914.988" />
<polyline class="Stem" fill="none" stroke="#000000" stroke-width="8.27" stroke-linejoin="bevel" points="5203.97,1880.03 5203.97,2114.17" />
<path class="Hook" d="M4169.91,1858.6 C4169.91,1859.59 4170.25,1861.25 4172.56,1862.24 C4186.8,1866.88 4215.26,1884.75 4236.78,1921.49 C4242.73,1931.75 4252.33,1945.99 4252.33,1973.46 C4252.33,1997.29 4246.04,2021.78 4237.44,2045.62 C4236.78,2047.6 4236.11,2049.26 4236.45,2050.58 C4236.45,2052.57 4237.77,2053.89 4239.76,2053.89 C4242.07,2053.89 4243.73,2052.57 4245.05,2050.25 C4259.95,2023.77 4265.57,1992.99 4265.57,1962.87 C4263.92,1920.17 4239.42,1888.72 4239.42,1888.72 C4240.42,1888.72 4208.97,1848.01 4200.04,1834.11 C4187.79,1815.24 4182.16,1796.37 4181.5,1795.05 C4181.17,1794.06 4178.19,1782.14 4178.19,1782.14 C4177.86,1780.82 4176.2,1779.49 4174.22,1779.49 C4171.9,1779.49 4169.91,1781.48 4169.91,1783.8 L4169.91,1858.6 "/>
<path class="Hook" d="M7310.13,2134.51 C7310.13,2136.83 7312.12,2138.81 7314.44,2138.81 C7316.09,2138.81 7318.08,2137.49 7318.41,2136.17 C7318.41,2135.84 7321.39,2124.25 7321.72,2123.26 C7322.05,2121.93 7325.03,2109.36 7336.94,2089.83 C7349.85,2068.31 7369.71,2052.75 7386.26,2029.58 C7402.48,2006.41 7412.41,1984.57 7412.41,1955.44 C7412.41,1925.32 7405.46,1900.16 7387.92,1868.06 C7386.92,1865.74 7384.94,1864.42 7382.95,1864.42 C7382.29,1864.42 7381.63,1864.42 7381.3,1864.75 C7379.64,1865.41 7378.98,1866.73 7378.98,1868.72 C7378.98,1869.71 7379.31,1871.37 7379.97,1872.69 C7393.21,1903.47 7398.51,1921.02 7398.51,1944.85 C7398.51,1972.32 7388.91,1986.55 7382.95,1996.82 C7361.44,2033.56 7326.68,2051.43 7312.78,2056.06 C7310.46,2057.06 7310.13,2058.71 7310.13,2059.71 L7310.13,2134.51 "/>
<path class="Hook" d="M5228.49,866.475 C5228.49,867.468 5228.82,869.123 5231.14,870.116 C5245.37,874.75 5273.84,892.624 5295.35,929.365 C5301.31,939.626 5310.91,953.859 5310.91,981.332 C5310.91,1005.16 5304.62,1029.66 5296.02,1053.49 C5295.35,1055.48 5294.69,1057.13 5295.02,1058.46 C5295.02,1060.44 5296.35,1061.77 5298.33,1061.77 C5300.65,1061.77 5302.31,1060.44 5303.63,1058.12 C5318.52,1031.64 5324.15,1000.86 5324.15,970.74 C5322.5,928.041 5298,896.596 5298,896.596 C5299,896.596 5267.55,855.883 5258.61,841.981 C5246.37,823.114 5240.74,804.247 5240.08,802.923 C5239.75,801.93 5236.77,790.014 5236.77,790.014 C5236.44,788.69 5234.78,787.366 5232.8,787.366 C5230.48,787.366 5228.49,789.352 5228.49,791.669 L5228.49,866.475 "/>
<path class="Hook" d="M9022.2,907.814 C9022.2,908.807 9022.53,910.462 9024.84,911.455 C9039.08,916.089 9067.54,933.963 9089.06,970.704 C9095.02,980.965 9104.61,995.198 9104.61,1022.67 C9104.61,1046.5 9098.33,1071 9089.72,1094.83 C9089.06,1096.81 9088.4,1098.47 9088.73,1099.79 C9088.73,1101.78 9090.05,1103.1 9092.04,1103.1 C9094.35,1103.1 9096.01,1101.78 9097.33,1099.46 C9112.23,1072.98 9117.85,1042.2 9117.85,1012.08 C9116.2,969.38 9091.71,937.935 9091.71,937.935 C9092.7,937.935 9061.25,897.222 9052.32,883.32 C9040.07,864.453 9034.44,845.586 9033.78,844.262 C9033.45,843.269 9030.47,831.353 9030.47,831.353 C9030.14,830.029 9028.48,828.705 9026.5,828.705 C9024.18,828.705 9022.2,830.691 9022.2,833.008 L9022.2,907.814 "/>
<path class="Note" d="M6073.46,1838.7 C6073.46,1852.94 6083.72,1868.83 6110.53,1868.83 C6144.95,1868.83 6181.03,1840.69 6181.03,1811.56 C6181.03,1792.03 6164.48,1781.11 6143.96,1781.11 C6111.85,1781.11 6073.46,1808.25 6073.46,1838.7"/>
<path class="Note" d="M4863.39,2789.49 C4863.39,2803.73 4873.65,2819.61 4900.47,2819.61 C4934.89,2819.61 4970.97,2791.48 4970.97,2762.35 C4970.97,2742.82 4954.42,2731.9 4933.9,2731.9 C4901.79,2731.9 4863.39,2759.04 4863.39,2789.49"/>
<path class="Note" d="M4780.74,1962.72 C4780.74,1976.95 4791,1992.84 4817.81,1992.84 C4852.23,1992.84 4888.31,1964.71 4888.31,1935.58 C4888.31,1916.05 4871.76,1905.13 4851.24,1905.13 C4819.13,1905.13 4780.74,1932.27 4780.74,1962.72"/>
<path class="Note" d="M4990.29,1921.38 C4990.29,1935.62 5000.55,1951.5 5027.36,1951.5 C5061.78,1951.5 5097.86,1923.37 5097.86,1894.24 C5097.86,1874.71 5081.31,1863.79 5060.79,1863.79 C5028.68,1863.79 4990.29,1890.93 4990.29,1921.38"/>
<path class="Note" d="M8649.8,2913.51 C8649.8,2927.74 8660.06,2943.63 8686.87,2943.63 C8721.29,2943.63 8757.37,2915.49 8757.37,2886.37 C8757.37,2866.84 8740.82,2855.91 8720.3,2855.91 C8688.19,2855.91 8649.8,2883.06 8649.8,2913.51"/>
<path class="Note" d="M5199.84,1880.04 C5199.84,1894.28 5210.1,1910.16 5236.91,1910.16 C5271.34,1910.16 5307.41,1882.03 5307.41,1852.9 C5307.41,1833.37 5290.86,1822.45 5270.34,1822.45 C5238.24,1822.45 5199.84,1849.59 5199.84,1880.04"/>
<path class="Note" d="M2663.67,1177.29 C2663.67,1191.52 2673.93,1207.41 2700.74,1207.41 C2735.16,1207.41 2771.24,1179.27 2771.24,1150.15 C2771.24,1130.62 2754.69,1119.69 2734.17,1119.69 C2702.06,1119.69 2663.67,1146.84 2663.67,1177.29"/>
<path class="Note" d="M5514.17,1756.03 C5514.17,1770.26 5524.43,1786.15 5551.24,1786.15 C5585.66,1786.15 5621.74,1758.01 5621.74,1728.89 C5621.74,1709.36 5605.19,1698.43 5584.67,1698.43 C5552.56,1698.43 5514.17,1725.58 5514.17,1756.03"/>
<path class="Note" d="M5527.77,2706.82 C5527.77,2721.05 5538.03,2736.94 5564.84,2736.94 C5599.26,2736.94 5635.34,2708.8 5635.34,2679.67 C5635.34,2660.14 5618.79,2649.22 5598.27,2649.22 C5566.16,2649.22 5527.77,2676.36 5527.77,2706.82"/>
<path class="Note" d="M2888.72,1011.93 C2888.72,1026.17 2898.98,1042.05 2925.8,1042.05 C2960.22,1042.05 2996.3,1013.92 2996.3,984.791 C2996.3,965.262 2979.75,954.339 2959.23,954.339 C2927.12,954.339 2888.72,981.481 2888.72,1011.93"/>
<path class="Note" d="M5723.72,1797.37 C5723.72,1811.6 5733.98,1827.49 5760.79,1827.49 C5795.22,1827.49 5831.3,1799.35 5831.3,1770.22 C5831.3,1750.7 5814.75,1739.77 5794.22,1739.77 C5762.12,1739.77 5723.72,1766.91 5723.72,1797.37"/>
<path class="Note" d="M4070.7,2086.74 C4070.7,2100.97 4080.96,2116.86 4107.77,2116.86 C4142.2,2116.86 4178.28,2088.72 4178.28,2059.59 C4178.28,2040.07 4161.73,2029.14 4141.21,2029.14 C4109.1,2029.14 4070.7,2056.28 4070.7,2086.74"/>
<path class="Note" d="M6537.74,1011.93 C6537.74,1026.17 6548,1042.05 6574.81,1042.05 C6609.24,1042.05 6645.32,1013.92 6645.32,984.791 C6645.32,965.262 6628.77,954.339 6608.25,954.339 C6576.14,954.339 6537.74,981.481 6537.74,1011.93"/>
<path class="Note" d="M8376.73,2913.51 C8376.73,2927.74 8386.99,2943.63 8413.8,2943.63 C8448.22,2943.63 8484.3,2915.49 8484.3,2886.37 C8484.3,2866.84 8467.75,2855.91 8447.23,2855.91 C8415.12,2855.91 8376.73,2883.06 8376.73,2913.51"/>
<path class="Note" d="M3672.24,1921.38 C3672.24,1935.62 3682.5,1951.5 3709.31,1951.5 C3743.73,1951.5 3779.81,1923.37 3779.81,1894.24 C3779.81,1874.71 3763.26,1863.79 3742.74,1863.79 C3710.63,1863.79 3672.24,1890.93 3672.24,1921.38"/>
<path class="Note" d="M3462.68,1880.04 C3462.68,1894.28 3472.95,1910.16 3499.76,1910.16 C3534.18,1910.16 3570.26,1882.03 3570.26,1852.9 C3570.26,1833.37 3553.71,1822.45 3533.19,1822.45 C3501.08,1822.45 3462.68,1849.59 3462.68,1880.04"/>
<path class="Note" d="M4466.41,1962.72 C4466.41,1976.95 4476.67,1992.84 4503.48,1992.84 C4537.9,1992.84 4573.98,1964.71 4573.98,1935.58 C4573.98,1916.05 4557.43,1905.13 4536.91,1905.13 C4504.8,1905.13 4466.41,1932.27 4466.41,1962.72"/>
<path class="Note" d="M6283.01,1880.04 C6283.01,1894.28 6293.27,1910.16 6320.08,1910.16 C6354.51,1910.16 6390.59,1882.03 6390.59,1852.9 C6390.59,1833.37 6374.04,1822.45 6353.51,1822.45 C6321.41,1822.45 6283.01,1849.59 6283.01,1880.04"/>
<path class="Note" d="M4476.28,1094.61 C4476.28,1108.84 4486.54,1124.73 4513.35,1124.73 C4547.77,1124.73 4583.85,1096.6 4583.85,1067.47 C4583.85,1047.94 4567.3,1037.02 4546.78,1037.02 C4514.67,1037.02 4476.28,1064.16 4476.28,1094.61"/>
<path class="Note" d="M6492.56,1921.38 C6492.56,1935.62 6502.82,1951.5 6529.63,1951.5 C6564.06,1951.5 6600.14,1923.37 6600.14,1894.24 C6600.14,1874.71 6583.59,1863.79 6563.07,1863.79 C6530.96,1863.79 6492.56,1890.93 6492.56,1921.38"/>
<path class="Note" d="M3253.13,1838.7 C3253.13,1852.94 3263.39,1868.83 3290.2,1868.83 C3324.63,1868.83 3360.71,1840.69 3360.71,1811.56 C3360.71,1792.03 3344.16,1781.11 3323.64,1781.11 C3291.53,1781.11 3253.13,1808.25 3253.13,1838.7"/>
<path class="Note" d="M6702.12,1962.72 C6702.12,1976.95 6712.38,1992.84 6739.19,1992.84 C6773.61,1992.84 6809.69,1964.71 6809.69,1935.58 C6809.69,1916.05 6793.14,1905.13 6772.62,1905.13 C6740.51,1905.13 6702.12,1932.27 6702.12,1962.72"/>
<path class="Note" d="M2938.8,1797.37 C2938.8,1811.6 2949.07,1827.49 2975.88,1827.49 C3010.3,1827.49 3046.38,1799.35 3046.38,1770.22 C3046.38,1750.7 3029.83,1739.77 3009.31,1739.77 C2977.2,1739.77 2938.8,1766.91 2938.8,1797.37"/>
<path class="Note" d="M6911.67,1962.72 C6911.67,1976.95 6921.93,1992.84 6948.74,1992.84 C6983.16,1992.84 7019.24,1964.71 7019.24,1935.58 C7019.24,1916.05 7002.69,1905.13 6982.17,1905.13 C6950.06,1905.13 6911.67,1932.27 6911.67,1962.72"/>
<path class="Note" d="M8103.65,2872.17 C8103.65,2886.4 8113.91,2902.29 8140.72,2902.29 C8175.15,2902.29 8211.23,2874.16 8211.23,2845.03 C8211.23,2825.5 8194.68,2814.58 8174.16,2814.58 C8142.05,2814.58 8103.65,2841.72 8103.65,2872.17"/>
<path class="Note" d="M3226.31,1053.27 C3226.31,1067.5 3236.57,1083.39 3263.38,1083.39 C3297.81,1083.39 3333.88,1055.26 3333.88,1026.13 C3333.88,1006.6 3317.33,995.678 3296.81,995.678 C3264.71,995.678 3226.31,1022.82 3226.31,1053.27"/>
<path class="Note" d="M4701.33,1135.95 C4701.33,1150.18 4711.59,1166.07 4738.4,1166.07 C4772.83,1166.07 4808.91,1137.94 4808.91,1108.81 C4808.91,1089.28 4792.36,1078.36 4771.84,1078.36 C4739.73,1078.36 4701.33,1105.5 4701.33,1135.95"/>
<path class="Note" d="M7310.13,1880.04 C7310.13,1894.28 7320.39,1910.16 7347.2,1910.16 C7381.63,1910.16 7417.71,1882.03 7417.71,1852.9 C7417.71,1833.37 7401.16,1822.45 7380.64,1822.45 C7348.53,1822.45 7310.13,1849.59 7310.13,1880.04"/>
<path class="Note" d="M2438.61,1135.95 C2438.61,1150.18 2448.87,1166.07 2475.68,1166.07 C2510.11,1166.07 2546.18,1137.94 2546.18,1108.81 C2546.18,1089.28 2529.63,1078.36 2509.11,1078.36 C2477.01,1078.36 2438.61,1105.5 2438.61,1135.95"/>
<path class="Note" d="M2589.07,1838.7 C2589.07,1852.94 2599.33,1868.83 2626.14,1868.83 C2660.56,1868.83 2696.64,1840.69 2696.64,1811.56 C2696.64,1792.03 2680.09,1781.11 2659.57,1781.11 C2627.46,1781.11 2589.07,1808.25 2589.07,1838.7"/>
<path class="Note" d="M7694.04,2830.83 C7694.04,2845.06 7704.3,2860.95 7731.11,2860.95 C7765.54,2860.95 7801.62,2832.82 7801.62,2803.69 C7801.62,2784.16 7785.07,2773.24 7764.55,2773.24 C7732.44,2773.24 7694.04,2800.38 7694.04,2830.83"/>
<path class="Note" d="M7711.64,1962.72 C7711.64,1976.95 7721.9,1992.84 7748.71,1992.84 C7783.13,1992.84 7819.21,1964.71 7819.21,1935.58 C7819.21,1916.05 7802.66,1905.13 7782.14,1905.13 C7750.03,1905.13 7711.64,1932.27 7711.64,1962.72"/>
<path class="Note" d="M2101.02,1094.61 C2101.02,1108.84 2111.28,1124.73 2138.1,1124.73 C2172.52,1124.73 2208.6,1096.6 2208.6,1067.47 C2208.6,1047.94 2192.05,1037.02 2171.53,1037.02 C2139.42,1037.02 2101.02,1064.16 2101.02,1094.61"/>
<path class="Note" d="M2379.51,1880.04 C2379.51,1894.28 2389.78,1910.16 2416.59,1910.16 C2451.01,1910.16 2487.09,1882.03 2487.09,1852.9 C2487.09,1833.37 2470.54,1822.45 2450.02,1822.45 C2417.91,1822.45 2379.51,1849.59 2379.51,1880.04"/>
<path class="Note" d="M8025.96,1962.72 C8025.96,1976.95 8036.23,1992.84 8063.04,1992.84 C8097.46,1992.84 8133.54,1964.71 8133.54,1935.58 C8133.54,1916.05 8116.99,1905.13 8096.47,1905.13 C8064.36,1905.13 8025.96,1932.27 8025.96,1962.72"/>
<path class="Note" d="M5129.28,1094.61 C5129.28,1108.84 5139.54,1124.73 5166.35,1124.73 C5200.78,1124.73 5236.86,1096.6 5236.86,1067.47 C5236.86,1047.94 5220.31,1037.02 5199.78,1037.02 C5167.68,1037.02 5129.28,1064.16 5129.28,1094.61"/>
<path class="Note" d="M2065.19,1880.04 C2065.19,1894.28 2075.45,1910.16 2102.26,1910.16 C2136.68,1910.16 2172.76,1882.03 2172.76,1852.9 C2172.76,1833.37 2156.21,1822.45 2135.69,1822.45 C2103.58,1822.45 2065.19,1849.59 2065.19,1880.04"/>
<path class="Note" d="M8235.52,1962.72 C8235.52,1976.95 8245.78,1992.84 8272.59,1992.84 C8307.01,1992.84 8343.09,1964.71 8343.09,1935.58 C8343.09,1916.05 8326.54,1905.13 8306.02,1905.13 C8273.91,1905.13 8235.52,1932.27 8235.52,1962.72"/>
<path class="Note" d="M1855.63,1921.38 C1855.63,1935.62 1865.89,1951.5 1892.71,1951.5 C1927.13,1951.5 1963.21,1923.37 1963.21,1894.24 C1963.21,1874.71 1946.66,1863.79 1926.14,1863.79 C1894.03,1863.79 1855.63,1890.93 1855.63,1921.38"/>
<path class="Note" d="M8445.07,1921.38 C8445.07,1935.62 8455.33,1951.5 8482.14,1951.5 C8516.57,1951.5 8552.64,1923.37 8552.64,1894.24 C8552.64,1874.71 8536.09,1863.79 8515.57,1863.79 C8483.47,1863.79 8445.07,1890.93 8445.07,1921.38"/>
<path class="Note" d="M4251.22,1053.27 C4251.22,1067.5 4261.48,1083.39 4288.29,1083.39 C4322.71,1083.39 4358.79,1055.26 4358.79,1026.13 C4358.79,1006.6 4342.24,995.678 4321.72,995.678 C4289.61,995.678 4251.22,1022.82 4251.22,1053.27"/>
<path class="Note" d="M8759.4,1921.38 C8759.4,1935.62 8769.66,1951.5 8796.47,1951.5 C8830.89,1951.5 8866.97,1923.37 8866.97,1894.24 C8866.97,1874.71 8850.42,1863.79 8829.9,1863.79 C8797.79,1863.79 8759.4,1890.93 8759.4,1921.38"/>
<path class="Note" d="M7302.74,2789.49 C7302.74,2803.73 7313,2819.61 7339.81,2819.61 C7374.24,2819.61 7410.32,2791.48 7410.32,2762.35 C7410.32,2742.82 7393.77,2731.9 7373.24,2731.9 C7341.14,2731.9 7302.74,2759.04 7302.74,2789.49"/>
<path class="Note" d="M1646.08,1962.72 C1646.08,1976.95 1656.34,1992.84 1683.15,1992.84 C1717.58,1992.84 1753.66,1964.71 1753.66,1935.58 C1753.66,1916.05 1737.11,1905.13 1716.58,1905.13 C1684.48,1905.13 1646.08,1932.27 1646.08,1962.72"/>
<path class="Note" d="M8968.95,1880.04 C8968.95,1894.28 8979.21,1910.16 9006.02,1910.16 C9040.45,1910.16 9076.52,1882.03 9076.52,1852.9 C9076.52,1833.37 9059.97,1822.45 9039.45,1822.45 C9007.35,1822.45 8968.95,1849.59 8968.95,1880.04"/>
<path class="Note" d="M1331.75,1962.72 C1331.75,1976.95 1342.01,1992.84 1368.82,1992.84 C1403.25,1992.84 1439.33,1964.71 1439.33,1935.58 C1439.33,1916.05 1422.78,1905.13 1402.26,1905.13 C1370.15,1905.13 1331.75,1932.27 1331.75,1962.72"/>
<path class="Note" d="M1751.29,1135.95 C1751.29,1150.18 1761.55,1166.07 1788.36,1166.07 C1822.78,1166.07 1858.86,1137.94 1858.86,1108.81 C1858.86,1089.28 1842.31,1078.36 1821.79,1078.36 C1789.68,1078.36 1751.29,1105.5 1751.29,1135.95"/>
<path class="Note" d="M6762.8,887.918 C6762.8,902.151 6773.06,918.039 6799.87,918.039 C6834.3,918.039 6870.37,889.904 6870.37,860.776 C6870.37,841.247 6853.82,830.324 6833.3,830.324 C6801.2,830.324 6762.8,857.466 6762.8,887.918"/>
<path class="Note" d="M5136.47,2748.15 C5136.47,2762.39 5146.73,2778.27 5173.54,2778.27 C5207.96,2778.27 5244.04,2750.14 5244.04,2721.01 C5244.04,2701.48 5227.49,2690.56 5206.97,2690.56 C5174.86,2690.56 5136.47,2717.7 5136.47,2748.15"/>
<path class="Note" d="M6987.86,1011.93 C6987.86,1026.17 6998.12,1042.05 7024.93,1042.05 C7059.35,1042.05 7095.43,1013.92 7095.43,984.791 C7095.43,965.262 7078.88,954.339 7058.36,954.339 C7026.25,954.339 6987.86,981.481 6987.86,1011.93"/>
<path class="Note" d="M1331.75,2706.82 C1331.75,2721.05 1342.01,2736.94 1368.82,2736.94 C1403.25,2736.94 1439.33,2708.8 1439.33,2679.67 C1439.33,2660.14 1422.78,2649.22 1402.26,2649.22 C1370.15,2649.22 1331.75,2676.36 1331.75,2706.82"/>
<path class="Note" d="M5524.99,1053.27 C5524.99,1067.5 5535.25,1083.39 5562.06,1083.39 C5596.48,1083.39 5632.56,1055.26 5632.56,1026.13 C5632.56,1006.6 5616.01,995.678 5595.49,995.678 C5563.38,995.678 5524.99,1022.82 5524.99,1053.27"/>
<path class="Note" d="M6312.69,1094.61 C6312.69,1108.84 6322.95,1124.73 6349.76,1124.73 C6384.18,1124.73 6420.26,1096.6 6420.26,1067.47 C6420.26,1047.94 6403.71,1037.02 6383.19,1037.02 C6351.08,1037.02 6312.69,1064.16 6312.69,1094.61"/>
<path class="Note" d="M1604.83,2748.15 C1604.83,2762.39 1615.09,2778.27 1641.9,2778.27 C1676.32,2778.27 1712.4,2750.14 1712.4,2721.01 C1712.4,2701.48 1695.85,2690.56 1675.33,2690.56 C1643.22,2690.56 1604.83,2717.7 1604.83,2748.15"/>
<path class="Note" d="M3451.37,1011.93 C3451.37,1026.17 3461.63,1042.05 3488.44,1042.05 C3522.86,1042.05 3558.94,1013.92 3558.94,984.791 C3558.94,965.262 3542.39,954.339 3521.87,954.339 C3489.76,954.339 3451.37,981.481 3451.37,1011.93"/>
<path class="Note" d="M1877.9,2789.49 C1877.9,2803.73 1888.16,2819.61 1914.97,2819.61 C1949.39,2819.61 1985.47,2791.48 1985.47,2762.35 C1985.47,2742.82 1968.92,2731.9 1948.4,2731.9 C1916.29,2731.9 1877.9,2759.04 1877.9,2789.49"/>
<path class="Note" d="M8922.98,1135.95 C8922.98,1150.18 8933.24,1166.07 8960.05,1166.07 C8994.48,1166.07 9030.56,1137.94 9030.56,1108.81 C9030.56,1089.28 9014.01,1078.36 8993.49,1078.36 C8961.38,1078.36 8922.98,1105.5 8922.98,1135.95"/>
<path class="Note" d="M2150.97,2830.83 C2150.97,2845.06 2161.23,2860.95 2188.04,2860.95 C2222.47,2860.95 2258.55,2832.82 2258.55,2803.69 C2258.55,2784.16 2242,2773.24 2221.47,2773.24 C2189.37,2773.24 2150.97,2800.38 2150.97,2830.83"/>
<path class="Note" d="M3801.1,970.595 C3801.1,984.828 3811.37,1000.72 3838.18,1000.72 C3872.6,1000.72 3908.68,972.581 3908.68,943.453 C3908.68,923.924 3892.13,913.001 3871.61,913.001 C3839.5,913.001 3801.1,940.143 3801.1,970.595"/>
<path class="Note" d="M2424.04,2872.17 C2424.04,2886.4 2434.31,2902.29 2461.12,2902.29 C2495.54,2902.29 2531.62,2874.16 2531.62,2845.03 C2531.62,2825.5 2515.07,2814.58 2494.55,2814.58 C2462.44,2814.58 2424.04,2841.72 2424.04,2872.17"/>
<path class="Note" d="M7029.67,2748.15 C7029.67,2762.39 7039.93,2778.27 7066.74,2778.27 C7101.16,2778.27 7137.24,2750.14 7137.24,2721.01 C7137.24,2701.48 7120.69,2690.56 7100.17,2690.56 C7068.06,2690.56 7029.67,2717.7 7029.67,2748.15"/>
<path class="Note" d="M2833.65,2624.14 C2833.65,2638.37 2843.92,2654.26 2870.73,2654.26 C2905.15,2654.26 2941.23,2626.12 2941.23,2597 C2941.23,2577.47 2924.68,2566.54 2904.16,2566.54 C2872.05,2566.54 2833.65,2593.69 2833.65,2624.14"/>
<path class="Note" d="M5862.57,1094.61 C5862.57,1108.84 5872.83,1124.73 5899.64,1124.73 C5934.07,1124.73 5970.15,1096.6 5970.15,1067.47 C5970.15,1047.94 5953.6,1037.02 5933.07,1037.02 C5900.97,1037.02 5862.57,1064.16 5862.57,1094.61"/>
<path class="Note" d="M6620.06,2872.17 C6620.06,2886.4 6630.32,2902.29 6657.13,2902.29 C6691.56,2902.29 6727.63,2874.16 6727.63,2845.03 C6727.63,2825.5 6711.08,2814.58 6690.56,2814.58 C6658.46,2814.58 6620.06,2841.72 6620.06,2872.17"/>
<path class="Note" d="M3106.73,2665.48 C3106.73,2679.71 3116.99,2695.6 3143.8,2695.6 C3178.22,2695.6 3214.3,2667.46 3214.3,2638.33 C3214.3,2618.81 3197.75,2607.88 3177.23,2607.88 C3145.12,2607.88 3106.73,2635.02 3106.73,2665.48"/>
<path class="Note" d="M8125.29,1177.29 C8125.29,1191.52 8135.56,1207.41 8162.37,1207.41 C8196.79,1207.41 8232.87,1179.27 8232.87,1150.15 C8232.87,1130.62 8216.32,1119.69 8195.8,1119.69 C8163.69,1119.69 8125.29,1146.84 8125.29,1177.29"/>
<path class="Note" d="M6346.99,2830.83 C6346.99,2845.06 6357.25,2860.95 6384.06,2860.95 C6418.48,2860.95 6454.56,2832.82 6454.56,2803.69 C6454.56,2784.16 6438.01,2773.24 6417.49,2773.24 C6385.38,2773.24 6346.99,2800.38 6346.99,2830.83"/>
<path class="Note" d="M1526.23,1135.95 C1526.23,1150.18 1536.49,1166.07 1563.3,1166.07 C1597.72,1166.07 1633.8,1137.94 1633.8,1108.81 C1633.8,1089.28 1617.25,1078.36 1596.73,1078.36 C1564.62,1078.36 1526.23,1105.5 1526.23,1135.95"/>
<path class="Note" d="M7900.24,1177.29 C7900.24,1191.52 7910.5,1207.41 7937.31,1207.41 C7971.73,1207.41 8007.81,1179.27 8007.81,1150.15 C8007.81,1130.62 7991.26,1119.69 7970.74,1119.69 C7938.63,1119.69 7900.24,1146.84 7900.24,1177.29"/>
<path class="Note" d="M3498.03,2624.14 C3498.03,2638.37 3508.29,2654.26 3535.1,2654.26 C3569.52,2654.26 3605.6,2626.12 3605.6,2597 C3605.6,2577.47 3589.05,2566.54 3568.53,2566.54 C3536.42,2566.54 3498.03,2593.69 3498.03,2624.14"/>
<path class="Note" d="M6087.63,1135.95 C6087.63,1150.18 6097.89,1166.07 6124.7,1166.07 C6159.12,1166.07 6195.2,1137.94 6195.2,1108.81 C6195.2,1089.28 6178.65,1078.36 6158.13,1078.36 C6126.02,1078.36 6087.63,1105.5 6087.63,1135.95"/>
<path class="Note" d="M3907.64,2748.15 C3907.64,2762.39 3917.9,2778.27 3944.71,2778.27 C3979.13,2778.27 4015.21,2750.14 4015.21,2721.01 C4015.21,2701.48 3998.66,2690.56 3978.14,2690.56 C3946.03,2690.56 3907.64,2717.7 3907.64,2748.15"/>
<path class="Note" d="M6073.91,2789.49 C6073.91,2803.73 6084.17,2819.61 6110.99,2819.61 C6145.41,2819.61 6181.49,2791.48 6181.49,2762.35 C6181.49,2742.82 6164.94,2731.9 6144.42,2731.9 C6112.31,2731.9 6073.91,2759.04 6073.91,2789.49"/>
<path class="Note" d="M7675.18,1135.95 C7675.18,1150.18 7685.44,1166.07 7712.25,1166.07 C7746.68,1166.07 7782.75,1137.94 7782.75,1108.81 C7782.75,1089.28 7766.2,1078.36 7745.68,1078.36 C7713.58,1078.36 7675.18,1105.5 7675.18,1135.95"/>
<path class="Note" d="M4180.71,2789.49 C4180.71,2803.73 4190.97,2819.61 4217.78,2819.61 C4252.21,2819.61 4288.29,2791.48 4288.29,2762.35 C4288.29,2742.82 4271.74,2731.9 4251.21,2731.9 C4219.11,2731.9 4180.71,2759.04 4180.71,2789.49"/>
<path class="Note" d="M7337.59,1094.61 C7337.59,1108.84 7347.86,1124.73 7374.67,1124.73 C7409.09,1124.73 7445.17,1096.6 7445.17,1067.47 C7445.17,1047.94 7428.62,1037.02 7408.1,1037.02 C7375.99,1037.02 7337.59,1064.16 7337.59,1094.61"/>
<path class="Note" d="M4453.78,2830.83 C4453.78,2845.06 4464.04,2860.95 4490.86,2860.95 C4525.28,2860.95 4561.36,2832.82 4561.36,2803.69 C4561.36,2784.16 4544.81,2773.24 4524.29,2773.24 C4492.18,2773.24 4453.78,2800.38 4453.78,2830.83"/>
<path class="Note" d="M4026.16,1011.93 C4026.16,1026.17 4036.42,1042.05 4063.23,1042.05 C4097.66,1042.05 4133.74,1013.92 4133.74,984.791 C4133.74,965.262 4117.19,954.339 4096.66,954.339 C4064.56,954.339 4026.16,981.481 4026.16,1011.93"/>
<path class="Note" d="M5800.84,2748.15 C5800.84,2762.39 5811.1,2778.27 5837.91,2778.27 C5872.34,2778.27 5908.42,2750.14 5908.42,2721.01 C5908.42,2701.48 5891.87,2690.56 5871.34,2690.56 C5839.24,2690.56 5800.84,2717.7 5800.84,2748.15"/>
<path class="Clef" d="M909.689,2017 C903.069,2018.33 896.78,2018.99 890.491,2018.99 C843.158,2018.99 802.776,1985.89 802.776,1935.91 C802.776,1895.53 831.242,1859.45 860.37,1834.29 C865.997,1829.33 871.293,1824.69 876.258,1819.73 C879.237,1837.6 881.554,1853.16 883.871,1866.73 C853.75,1875.67 833.228,1907.44 833.228,1938.56 C833.228,1961.73 851.433,1993.5 877.913,1993.5 C880.561,1993.5 883.54,1992.18 883.54,1989.2 C883.54,1986.22 880.23,1984.57 876.258,1981.92 C863.349,1973.97 856.067,1965.37 856.067,1949.15 C856.067,1928.96 870.962,1912.74 890.491,1908.11 L909.689,2017 M880.561,1676.74 C883.54,1663.5 898.766,1628.74 915.978,1628.74 C920.943,1628.74 928.887,1644.96 928.887,1667.8 C928.887,1702.22 903.4,1728.04 880.561,1750.55 C878.575,1737.31 876.92,1724.4 876.92,1710.5 C876.92,1698.25 877.913,1687 880.561,1676.74 M956.691,1955.77 C956.691,1979.27 947.092,2003.43 923.591,2013.03 C916.64,1973.31 907.703,1920.68 905.386,1906.12 C935.176,1906.12 956.691,1926.31 956.691,1955.77 M811.051,2118.62 C811.051,2140.47 827.932,2169.26 872.617,2169.26 C888.174,2169.26 901.745,2165.29 913.661,2158.01 C931.535,2145.43 936.169,2123.59 936.169,2102.73 C936.169,2089.82 934.183,2074.93 930.873,2056.06 C929.88,2049.44 927.894,2039.51 925.908,2026.6 C958.346,2016.01 982.509,1982.25 982.509,1948.16 C982.509,1898.18 947.092,1864.41 898.766,1864.41 C895.456,1844.55 892.146,1825.02 889.167,1806.49 C924.253,1769.75 948.416,1728.37 948.416,1675.74 C948.416,1645.62 939.148,1621.13 933.852,1609.21 C925.908,1592.33 916.309,1580.75 910.351,1580.75 C908.034,1580.75 897.773,1584.72 886.85,1597.63 C865.666,1622.78 859.708,1665.15 859.708,1692.96 C859.708,1710.83 861.363,1727.05 866.99,1764.12 C866.659,1764.45 849.447,1781.99 842.496,1787.62 C812.375,1815.76 770.669,1855.81 770.669,1922.01 C770.669,1983.9 824.622,2032.56 886.188,2032.56 C895.787,2032.56 904.724,2031.57 912.337,2030.24 C918.626,2062.02 922.267,2085.19 922.267,2102.73 C922.267,2137.16 904.724,2155.36 871.293,2155.36 C863.349,2155.36 856.398,2153.71 855.736,2153.71 C855.405,2153.38 854.743,2153.05 854.743,2152.71 C854.743,2152.05 855.405,2151.72 856.398,2151.39 C871.955,2149.07 887.512,2135.83 887.512,2114.65 C887.512,2096.78 873.941,2077.91 849.116,2077.91 C825.946,2077.91 811.051,2096.78 811.051,2118.62"/>
<path class="Clef" d="M909.689,2885.11 C903.069,2886.44 896.78,2887.1 890.491,2887.1 C843.158,2887.1 802.776,2854 802.776,2804.02 C802.776,2763.64 831.242,2727.56 860.37,2702.4 C865.997,2697.44 871.293,2692.8 876.258,2687.84 C879.237,2705.71 881.554,2721.27 883.871,2734.84 C853.75,2743.78 833.228,2775.55 833.228,2806.67 C833.228,2829.84 851.433,2861.61 877.913,2861.61 C880.561,2861.61 883.54,2860.29 883.54,2857.31 C883.54,2854.33 880.23,2852.68 876.258,2850.03 C863.349,2842.08 856.067,2833.48 856.067,2817.26 C856.067,2797.07 870.962,2780.85 890.491,2776.22 L909.689,2885.11 M880.561,2544.85 C883.54,2531.61 898.766,2496.85 915.978,2496.85 C920.943,2496.85 928.887,2513.07 928.887,2535.91 C928.887,2570.33 903.4,2596.15 880.561,2618.66 C878.575,2605.42 876.92,2592.51 876.92,2578.61 C876.92,2566.36 877.913,2555.11 880.561,2544.85 M956.691,2823.88 C956.691,2847.38 947.092,2871.54 923.591,2881.14 C916.64,2841.42 907.703,2788.79 905.386,2774.23 C935.176,2774.23 956.691,2794.42 956.691,2823.88 M811.051,2986.73 C811.051,3008.58 827.932,3037.37 872.617,3037.37 C888.174,3037.37 901.745,3033.4 913.661,3026.12 C931.535,3013.54 936.169,2991.7 936.169,2970.84 C936.169,2957.93 934.183,2943.04 930.873,2924.17 C929.88,2917.55 927.894,2907.62 925.908,2894.71 C958.346,2884.12 982.509,2850.36 982.509,2816.27 C982.509,2766.29 947.092,2732.52 898.766,2732.52 C895.456,2712.66 892.146,2693.13 889.167,2674.6 C924.253,2637.86 948.416,2596.48 948.416,2543.85 C948.416,2513.73 939.148,2489.24 933.852,2477.32 C925.908,2460.44 916.309,2448.86 910.351,2448.86 C908.034,2448.86 897.773,2452.83 886.85,2465.74 C865.666,2490.89 859.708,2533.26 859.708,2561.07 C859.708,2578.94 861.363,2595.16 866.99,2632.23 C866.659,2632.56 849.447,2650.1 842.496,2655.73 C812.375,2683.87 770.669,2723.92 770.669,2790.12 C770.669,2852.01 824.622,2900.67 886.188,2900.67 C895.787,2900.67 904.724,2899.68 912.337,2898.35 C918.626,2930.13 922.267,2953.3 922.267,2970.84 C922.267,3005.27 904.724,3023.47 871.293,3023.47 C863.349,3023.47 856.398,3021.82 855.736,3021.82 C855.405,3021.49 854.743,3021.16 854.743,3020.82 C854.743,3020.16 855.405,3019.83 856.398,3019.5 C871.955,3017.18 887.512,3003.94 887.512,2982.76 C887.512,2964.89 873.941,2946.02 849.116,2946.02 C825.946,2946.02 811.051,2964.89 811.051,2986.73"/>
<path class="Clef" d="M909.689,1148.89 C903.069,1150.22 896.78,1150.88 890.491,1150.88 C843.158,1150.88 802.776,1117.78 802.776,1067.8 C802.776,1027.42 831.242,991.338 860.37,966.182 C865.997,961.217 871.293,956.583 876.258,951.618 C879.237,969.492 881.554,985.049 883.871,998.62 C853.75,1007.56 833.228,1039.33 833.228,1070.45 C833.228,1093.62 851.433,1125.39 877.913,1125.39 C880.561,1125.39 883.54,1124.07 883.54,1121.09 C883.54,1118.11 880.23,1116.46 876.258,1113.81 C863.349,1105.86 856.067,1097.26 856.067,1081.04 C856.067,1060.85 870.962,1044.63 890.491,1040 L909.689,1148.89 M880.561,808.626 C883.54,795.386 898.766,760.631 915.978,760.631 C920.943,760.631 928.887,776.85 928.887,799.689 C928.887,834.113 903.4,859.931 880.561,882.439 C878.575,869.199 876.92,856.29 876.92,842.388 C876.92,830.141 877.913,818.887 880.561,808.626 M956.691,1087.66 C956.691,1111.16 947.092,1135.32 923.591,1144.92 C916.64,1105.2 907.703,1052.57 905.386,1038.01 C935.176,1038.01 956.691,1058.2 956.691,1087.66 M811.051,1250.51 C811.051,1272.36 827.932,1301.15 872.617,1301.15 C888.174,1301.15 901.745,1297.18 913.661,1289.9 C931.535,1277.32 936.169,1255.48 936.169,1234.62 C936.169,1221.71 934.183,1206.82 930.873,1187.95 C929.88,1181.33 927.894,1171.4 925.908,1158.49 C958.346,1147.9 982.509,1114.14 982.509,1080.05 C982.509,1030.07 947.092,996.303 898.766,996.303 C895.456,976.443 892.146,956.914 889.167,938.378 C924.253,901.637 948.416,860.262 948.416,807.633 C948.416,777.512 939.148,753.018 933.852,741.102 C925.908,724.221 916.309,712.636 910.351,712.636 C908.034,712.636 897.773,716.608 886.85,729.517 C865.666,754.673 859.708,797.041 859.708,824.845 C859.708,842.719 861.363,858.938 866.99,896.01 C866.659,896.341 849.447,913.884 842.496,919.511 C812.375,947.646 770.669,987.697 770.669,1053.9 C770.669,1115.79 824.622,1164.45 886.188,1164.45 C895.787,1164.45 904.724,1163.46 912.337,1162.13 C918.626,1193.91 922.267,1217.08 922.267,1234.62 C922.267,1269.05 904.724,1287.25 871.293,1287.25 C863.349,1287.25 856.398,1285.6 855.736,1285.6 C855.405,1285.27 854.743,1284.94 854.743,1284.6 C854.743,1283.94 855.405,1283.61 856.398,1283.28 C871.955,1280.96 887.512,1267.72 887.512,1246.54 C887.512,1228.67 873.941,1209.8 849.116,1209.8 C825.946,1209.8 811.051,1228.67 811.051,1250.51"/>
<path class="KeySig" d="M1070.17,1676.29 L1099.63,1670.34 L1099.63,1724.95 L1070.17,1731.24 L1070.17,1676.29 M1121.48,1666.03 C1123.47,1665.7 1125.12,1663.38 1125.12,1661.4 L1125.12,1641.87 C1125.12,1639.22 1123.13,1637.24 1120.49,1637.24 L1119.82,1637.24 L1108.9,1639.55 L1108.9,1590.23 L1099.63,1590.23 L1099.63,1641.54 L1070.17,1647.5 L1070.17,1600.83 L1060.91,1600.83 L1060.91,1649.48 L1048,1652.13 C1046.01,1652.46 1044.36,1654.78 1044.36,1656.76 L1044.36,1675.96 C1044.36,1678.61 1046.34,1680.6 1048.99,1680.6 L1049.98,1680.6 L1060.91,1678.28 L1060.91,1732.89 L1048,1735.54 C1046.01,1735.87 1044.36,1738.19 1044.36,1740.18 L1044.36,1759.37 C1044.36,1762.02 1046.34,1764.01 1048.99,1764.01 L1049.98,1764.01 L1060.91,1761.69 L1060.91,1811.01 L1070.17,1811.01 L1070.17,1759.71 L1099.63,1753.75 L1099.63,1800.42 L1108.9,1800.42 L1108.9,1751.76 L1121.48,1749.44 C1123.47,1749.11 1125.12,1746.8 1125.12,1744.81 L1125.12,1725.28 C1125.12,1722.63 1123.13,1720.65 1120.49,1720.65 L1119.82,1720.65 L1108.9,1722.96 L1108.9,1668.35 L1121.48,1666.03 "/>
<path class="KeySig" d="M1070.17,2544.4 L1099.63,2538.45 L1099.63,2593.06 L1070.17,2599.35 L1070.17,2544.4 M1121.48,2534.14 C1123.47,2533.81 1125.12,2531.49 1125.12,2529.51 L1125.12,2509.98 C1125.12,2507.33 1123.13,2505.35 1120.49,2505.35 L1119.82,2505.35 L1108.9,2507.66 L1108.9,2458.34 L1099.63,2458.34 L1099.63,2509.65 L1070.17,2515.61 L1070.17,2468.94 L1060.91,2468.94 L1060.91,2517.59 L1048,2520.24 C1046.01,2520.57 1044.36,2522.89 1044.36,2524.87 L1044.36,2544.07 C1044.36,2546.72 1046.34,2548.71 1048.99,2548.71 L1049.98,2548.71 L1060.91,2546.39 L1060.91,2601 L1048,2603.65 C1046.01,2603.98 1044.36,2606.3 1044.36,2608.29 L1044.36,2627.48 C1044.36,2630.13 1046.34,2632.12 1048.99,2632.12 L1049.98,2632.12 L1060.91,2629.8 L1060.91,2679.12 L1070.17,2679.12 L1070.17,2627.82 L1099.63,2621.86 L1099.63,2668.53 L1108.9,2668.53 L1108.9,2619.87 L1121.48,2617.55 C1123.47,2617.22 1125.12,2614.91 1125.12,2612.92 L1125.12,2593.39 C1125.12,2590.74 1123.13,2588.76 1120.49,2588.76 L1119.82,2588.76 L1108.9,2591.07 L1108.9,2536.46 L1121.48,2534.14 "/>
<path class="KeySig" d="M1070.17,808.183 L1099.63,802.225 L1099.63,856.84 L1070.17,863.129 L1070.17,808.183 M1121.48,797.922 C1123.47,797.591 1125.12,795.274 1125.12,793.288 L1125.12,773.759 C1125.12,771.111 1123.13,769.125 1120.49,769.125 L1119.82,769.125 L1108.9,771.442 L1108.9,722.123 L1099.63,722.123 L1099.63,773.428 L1070.17,779.386 L1070.17,732.715 L1060.91,732.715 L1060.91,781.372 L1048,784.02 C1046.01,784.351 1044.36,786.668 1044.36,788.654 L1044.36,807.852 C1044.36,810.5 1046.34,812.486 1048.99,812.486 L1049.98,812.486 L1060.91,810.169 L1060.91,864.784 L1048,867.432 C1046.01,867.763 1044.36,870.08 1044.36,872.066 L1044.36,891.264 C1044.36,893.912 1046.34,895.898 1048.99,895.898 L1049.98,895.898 L1060.91,893.581 L1060.91,942.9 L1070.17,942.9 L1070.17,891.595 L1099.63,885.637 L1099.63,932.308 L1108.9,932.308 L1108.9,883.651 L1121.48,881.334 C1123.47,881.003 1125.12,878.686 1125.12,876.7 L1125.12,857.171 C1125.12,854.523 1123.13,852.537 1120.49,852.537 L1119.82,852.537 L1108.9,854.854 L1108.9,800.239 L1121.48,797.922 "/>
<path class="TimeSig" d="M1315.31,938.782 C1307.04,944.078 1301.08,953.677 1301.08,964.269 C1301.08,965.593 1301.08,966.917 1301.41,968.241 C1303.07,981.812 1313.99,992.404 1327.56,994.059 L1331.2,994.059 C1347.75,994.059 1360.99,980.819 1360.99,964.269 L1360.99,962.283 C1360.99,960.959 1360.66,958.642 1360.33,957.318 C1357.35,943.085 1344.44,912.633 1288.17,912.633 C1216.01,912.633 1207.74,972.544 1207.74,994.059 C1207.74,1033.45 1212.7,1082.77 1295.45,1082.77 C1328.22,1082.77 1353.71,1063.57 1355.03,1028.15 C1355.03,1026.5 1354.04,1025.5 1352.38,1025.5 L1348.08,1025.5 C1346.76,1025.5 1345.43,1026.83 1345.43,1028.15 C1344.11,1055.63 1324.58,1072.18 1295.45,1072.18 C1266.66,1072.18 1252.75,1056.62 1252.75,1027.49 L1252.75,964.269 C1252.75,945.733 1260.04,924.549 1289.49,924.549 C1305.05,924.549 1312,930.176 1315.64,935.803 C1315.97,936.465 1315.97,936.796 1315.97,937.458 C1315.97,937.789 1315.97,938.451 1315.31,938.782"/>
<path class="Beam" fill-rule="evenodd" d="M4879.95,1680.03 L5097.77,1659.36 L5097.77,1700.88 L4879.95,1721.55 L4879.95,1680.03 "/>
<path class="Beam" fill-rule="evenodd" d="M3253.13,2052.07 L3470.95,2072.74 L3470.95,2114.27 L3253.13,2093.6 L3253.13,2052.07 "/>
<path class="Beam" fill-rule="evenodd" d="M5626.98,2444.82 L6454.47,2506.83 L6454.47,2548.29 L5626.98,2486.28 L5626.98,2444.82 "/>
<path class="Beam" fill-rule="evenodd" d="M4962.61,2506.83 L5243.95,2486.16 L5243.95,2527.61 L4962.61,2548.28 L4962.61,2506.83 "/>
<path class="Beam" fill-rule="evenodd" d="M4006.85,2486.16 L4288.19,2506.83 L4288.19,2548.28 L4006.85,2527.61 L4006.85,2486.16 "/>
<path class="Beam" fill-rule="evenodd" d="M7774.39,873.935 L8007.72,894.604 L8007.72,936.104 L7774.39,915.435 L7774.39,873.935 "/>
<path class="Beam" fill-rule="evenodd" d="M1625.44,832.677 L1858.77,832.677 L1858.77,874.016 L1625.44,874.016 L1625.44,832.677 "/>
<path class="Beam" fill-rule="evenodd" d="M5961.78,811.927 L6195.11,832.596 L6195.11,874.096 L5961.78,853.427 L5961.78,811.927 "/>
<path class="Beam" fill-rule="evenodd" d="M6172.67,1576.67 L6809.6,1638.68 L6809.6,1680.22 L6172.67,1618.21 L6172.67,1576.67 "/>
<path class="Beam" fill-rule="evenodd" d="M2833.65,2858.21 L3114.99,2878.88 L3114.99,2920.33 L2833.65,2899.66 L2833.65,2858.21 "/>
<path class="Beam" fill-rule="evenodd" d="M3900.32,708.576 L4583.76,770.584 L4583.76,812.093 L3900.32,750.085 L3900.32,708.576 "/>
<path class="Beam" fill-rule="evenodd" d="M7128.88,2486.16 L7410.22,2506.83 L7410.22,2548.28 L7128.88,2527.61 L7128.88,2486.16 "/>
<path class="Beam" fill-rule="evenodd" d="M1430.97,2444.82 L2258.45,2506.83 L2258.45,2548.29 L1430.97,2486.28 L1430.97,2444.82 "/>
<path class="Beam" fill-rule="evenodd" d="M8858.61,1638.69 L9076.43,1618.02 L9076.43,1659.54 L8858.61,1680.21 L8858.61,1638.69 "/>
<path class="Beam" fill-rule="evenodd" d="M1745.29,1680.03 L1963.11,1659.36 L1963.11,1700.88 L1745.29,1721.55 L1745.29,1680.03 "/>
<path class="Beam" fill-rule="evenodd" d="M8125.18,1680.12 L8343,1680.12 L8343,1721.46 L8125.18,1721.46 L8125.18,1680.12 "/>
<path class="Beam" fill-rule="evenodd" d="M5514.17,1990.06 L5731.99,2010.73 L5731.99,2052.26 L5514.17,2031.59 L5514.17,1990.06 "/>
<path class="Beam" fill-rule="evenodd" d="M2379.51,2072.74 L2597.33,2052.07 L2597.33,2093.6 L2379.51,2114.27 L2379.51,2072.74 "/>
<path class="Beam" fill-rule="evenodd" d="M3325.52,770.588 L3558.85,749.919 L3558.85,791.419 L3325.52,812.089 L3325.52,770.588 "/>
<path class="Beam" fill-rule="evenodd" d="M2537.82,873.935 L2771.15,894.604 L2771.15,936.104 L2537.82,915.435 L2537.82,873.935 "/>
<path class="Beam" fill-rule="evenodd" d="M8202.87,2610.18 L8484.21,2630.85 L8484.21,2672.3 L8202.87,2651.63 L8202.87,2610.18 "/>
<path class="Beam" fill-rule="evenodd" d="M6312.69,1266.69 L6996.12,1225.36 L6996.12,1266.77 L6312.69,1308.11 L6312.69,1266.69 "/>
<path class="NoteDot" d="M3821.07,1907.48 C3821.07,1916.75 3828.35,1924.03 3837.62,1924.03 C3846.89,1924.03 3854.17,1916.75 3854.17,1907.48 C3854.17,1898.21 3846.89,1890.93 3837.62,1890.93 C3828.35,1890.93 3821.07,1898.21 3821.07,1907.48"/>
<path class="NoteDot" d="M7060.5,1907.48 C7060.5,1916.75 7067.78,1924.03 7077.05,1924.03 C7086.32,1924.03 7093.6,1916.75 7093.6,1907.48 C7093.6,1898.21 7086.32,1890.93 7077.05,1890.93 C7067.78,1890.93 7060.5,1898.21 7060.5,1907.48"/>
<path class="NoteDot" d="M4850.16,1122.05 C4850.16,1131.32 4857.45,1138.6 4866.71,1138.6 C4875.98,1138.6 4883.26,1131.32 4883.26,1122.05 C4883.26,1112.78 4875.98,1105.5 4866.71,1105.5 C4857.45,1105.5 4850.16,1112.78 4850.16,1122.05"/>
<path class="NoteDot" d="M8274.13,1122.05 C8274.13,1131.32 8281.41,1138.6 8290.68,1138.6 C8299.94,1138.6 8307.23,1131.32 8307.23,1122.05 C8307.23,1112.78 8299.94,1105.5 8290.68,1105.5 C8281.41,1105.5 8274.13,1112.78 8274.13,1122.05"/>
</svg>
