<?xml version="1.0" encoding="UTF-8" standalone="no"?>
<svg width="210.058mm" height="296.926mm" viewBox="0 0 9924 14028"
 xmlns="http://www.w3.org/2000/svg" xmlns:xlink="http://www.w3.org/1999/xlink" version="1.2" baseProfile="full">
<title>air_LII</title>
<desc>Generated by MuseScore Studio 4.7.3</desc>
<polyline class="StaffLines" fill="none" stroke="#000000" stroke-width="9.09" stroke-linejoin="bevel" points="708.661,828.424 9215.34,828.424" />
<polyline class="StaffLines" fill="none" stroke="#000000" stroke-width="9.09" stroke-linejoin="bevel" points="708.661,911.101 9215.34,911.101" />
<polyline class="StaffLines" fill="none" stroke="#000000" stroke-width="9.09" stroke-linejoin="bevel" points="708.661,993.778 9215.34,993.778" />
<polyline class="StaffLines" fill="none" stroke="#000000" stroke-width="9.09" stroke-linejoin="bevel" points="708.661,1076.46 9215.34,1076.46" />
<polyline class="StaffLines" fill="none" stroke="#000000" stroke-width="9.09" stroke-linejoin="bevel" points="708.661,1159.13 9215.34,1159.13" />
<polyline class="StaffLines" fill="none" stroke="#000000" stroke-width="9.09" stroke-linejoin="bevel" points="708.661,1696.53 9215.34,1696.53" />
<polyline class="StaffLines" fill="none" stroke="#000000" stroke-width="9.09" stroke-linejoin="bevel" points="708.661,1779.21 9215.34,1779.21" />
<polyline class="StaffLines" fill="none" stroke="#000000" stroke-width="9.09" stroke-linejoin="bevel" points="708.661,1861.89 9215.34,1861.89" />
<polyline class="StaffLines" fill="none" stroke="#000000" stroke-width="9.09" stroke-linejoin="bevel" points="708.661,1944.57 9215.34,1944.57" />
<polyline class="StaffLines" fill="none" stroke="#000000" stroke-width="9.09" stroke-linejoin="bevel" points="708.661,2027.24 9215.34,2027.24" />
<polyline class="BarLine" fill="none" stroke="#000000" stroke-width="14.88" stroke-linejoin="bevel" points="4465.87,823.876 4465.87,1163.68" />
<polyline class="BarLine" fill="none" stroke="#000000" stroke-width="14.88" stroke-linejoin="bevel" points="2466.61,1691.99 2466.61,2031.79" />
<polyline class="BarLine" fill="none" stroke="#000000" stroke-width="45.47" stroke-linejoin="bevel" points="1278.43,1691.99 1278.43,2031.79" />
<polyline class="BarLine" fill="none" stroke="#000000" stroke-width="14.88" stroke-linejoin="bevel" points="1339.19,1691.99 1339.19,2031.79" />
<path class="BarLine" d="M1411.65,1820.55 C1411.65,1810.95 1404.03,1803.01 1394.43,1803.01 C1384.83,1803.01 1377.22,1810.95 1377.22,1820.55 C1377.22,1830.15 1384.83,1838.09 1394.43,1838.09 C1404.03,1838.09 1411.65,1830.15 1411.65,1820.55"/>
<path class="BarLine" d="M1411.65,1903.23 C1411.65,1893.63 1404.03,1885.68 1394.43,1885.68 C1384.83,1885.68 1377.22,1893.63 1377.22,1903.23 C1377.22,1912.83 1384.83,1920.77 1394.43,1920.77 C1404.03,1920.77 1411.65,1912.83 1411.65,1903.23"/>
<polyline class="BarLine" fill="none" stroke="#000000" stroke-width="14.88" stroke-linejoin="bevel" points="8492.59,1691.99 8492.59,2031.79" />
<polyline class="BarLine" fill="none" stroke="#000000" stroke-width="14.88" stroke-linejoin="bevel" points="9131.84,1691.99 9131.84,2031.79" />
<polyline class="BarLine" fill="none" stroke="#000000" stroke-width="45.47" stroke-linejoin="bevel" points="9192.6,1691.99 9192.6,2031.79" />
<path class="BarLine" d="M9093.83,952.439 C9093.83,942.84 9086.22,934.896 9076.62,934.896 C9067.02,934.896 9059.41,942.84 9059.41,952.439 C9059.41,962.038 9067.02,969.982 9076.62,969.982 C9086.22,969.982 9093.83,962.038 9093.83,952.439"/>
<path class="BarLine" d="M9093.83,1035.12 C9093.83,1025.52 9086.22,1017.57 9076.62,1017.57 C9067.02,1017.57 9059.41,1025.52 9059.41,1035.12 C9059.41,1044.72 9067.02,1052.66 9076.62,1052.66 C9086.22,1052.66 9093.83,1044.72 9093.83,1035.12"/>
<polyline class="BarLine" fill="none" stroke="#000000" stroke-width="14.88" stroke-linejoin="bevel" points="9131.84,823.876 9131.84,1163.68" />
<polyline class="BarLine" fill="none" stroke="#000000" stroke-width="45.47" stroke-linejoin="bevel" points="9192.6,823.876 9192.6,1163.68" />
<polyline class="BarLine" fill="none" stroke="#000000" stroke-width="14.88" stroke-linejoin="bevel" points="3406.85,1691.99 3406.85,2031.79" />
<polyline class="BarLine" fill="none" stroke="#000000" stroke-width="14.88" stroke-linejoin="bevel" points="8425.53,823.876 8425.53,1163.68" />
<polyline class="BarLine" fill="none" stroke="#000000" stroke-width="14.88" stroke-linejoin="bevel" points="7412.17,1691.99 7412.17,2031.79" />
<polyline class="BarLine" fill="none" stroke="#000000" stroke-width="14.88" stroke-linejoin="bevel" points="2578.87,823.876 2578.87,1163.68" />
<polyline class="BarLine" fill="none" stroke="#000000" stroke-width="14.88" stroke-linejoin="bevel" points="7482.03,823.876 7482.03,1163.68" />
<polyline class="BarLine" fill="none" stroke="#000000" stroke-width="14.88" stroke-linejoin="bevel" points="5271.83,823.876 5271.83,1163.68" />
<polyline class="BarLine" fill="none" stroke="#000000" stroke-width="14.88" stroke-linejoin="bevel" points="6471.93,1691.99 6471.93,2031.79" />
<polyline class="BarLine" fill="none" stroke="#000000" stroke-width="14.88" stroke-linejoin="bevel" points="5409.51,1691.99 5409.51,2031.79" />
<polyline class="BarLine" fill="none" stroke="#000000" stroke-width="14.88" stroke-linejoin="bevel" points="3522.37,823.876 3522.37,1163.68" />
<polyline class="BarLine" fill="none" stroke="#000000" stroke-width="14.88" stroke-linejoin="bevel" points="4469.27,1691.99 4469.27,2031.79" />
<polyline class="BarLine" fill="none" stroke="#000000" stroke-width="14.88" stroke-linejoin="bevel" points="6538.53,823.876 6538.53,1163.68" />
<polyline class="Stem" fill="none" stroke="#000000" stroke-width="8.27" stroke-linejoin="bevel" points="2331,1931.34 2331,1696.09" />
<polyline class="Stem" fill="none" stroke="#000000" stroke-width="8.27" stroke-linejoin="bevel" points="1866.45,1875.78 1866.45,2130.26" />
<polyline class="Stem" fill="none" stroke="#000000" stroke-width="8.27" stroke-linejoin="bevel" points="6054.45,1834.44 6054.45,2069.03" />
<polyline class="Stem" fill="none" stroke="#000000" stroke-width="8.27" stroke-linejoin="bevel" points="5092.64,1187.24 5092.64,911.101" />
<polyline class="Stem" fill="none" stroke="#000000" stroke-width="8.27" stroke-linejoin="bevel" points="5871.78,1793.1 5871.78,2068.25" />
<polyline class="Stem" fill="none" stroke="#000000" stroke-width="8.27" stroke-linejoin="bevel" points="6237.12,1875.78 6237.12,2088.8" />
<polyline class="Stem" fill="none" stroke="#000000" stroke-width="8.27" stroke-linejoin="bevel" points="4286.69,1063.23 4286.69,787.085" />
<polyline class="Stem" fill="none" stroke="#000000" stroke-width="8.27" stroke-linejoin="bevel" points="5485.96,1063.23 5485.96,827.978" />
<polyline class="Stem" fill="none" stroke="#000000" stroke-width="8.27" stroke-linejoin="bevel" points="2148.33,1890 2148.33,1676.31" />
<polyline class="Stem" fill="none" stroke="#000000" stroke-width="8.27" stroke-linejoin="bevel" points="5524.43,1834.44 5524.43,2089.25" />
<polyline class="Stem" fill="none" stroke="#000000" stroke-width="8.27" stroke-linejoin="bevel" points="5669.36,1021.89 5669.36,808.2" />
<polyline class="Stem" fill="none" stroke="#000000" stroke-width="8.27" stroke-linejoin="bevel" points="4011.6,1063.23 4011.6,787.085" />
<polyline class="Stem" fill="none" stroke="#000000" stroke-width="8.27" stroke-linejoin="bevel" points="5852.75,1063.23 5852.75,827.978" />
<polyline class="Stem" fill="none" stroke="#000000" stroke-width="8.27" stroke-linejoin="bevel" points="3637.3,1007.67 3637.3,1241.81" />
<polyline class="Stem" fill="none" stroke="#000000" stroke-width="8.27" stroke-linejoin="bevel" points="5231.41,2014.01 5231.41,1737.87" />
<polyline class="Stem" fill="none" stroke="#000000" stroke-width="8.27" stroke-linejoin="bevel" points="6036.14,1021.89 6036.14,808.2" />
<polyline class="Stem" fill="none" stroke="#000000" stroke-width="8.27" stroke-linejoin="bevel" points="4957.41,2014.01 4957.41,1737.87" />
<polyline class="Stem" fill="none" stroke="#000000" stroke-width="8.27" stroke-linejoin="bevel" points="6120.32,1007.67 6120.32,1220.69" />
<polyline class="Stem" fill="none" stroke="#000000" stroke-width="8.27" stroke-linejoin="bevel" points="4683.4,1931.34 4683.4,1655.2" />
<polyline class="Stem" fill="none" stroke="#000000" stroke-width="8.27" stroke-linejoin="bevel" points="6686.07,1890 6686.07,1634.53" />
<polyline class="Stem" fill="none" stroke="#000000" stroke-width="8.27" stroke-linejoin="bevel" points="6303.72,966.329 6303.72,1200.92" />
<polyline class="Stem" fill="none" stroke="#000000" stroke-width="8.27" stroke-linejoin="bevel" points="3243.98,924.991 3243.98,1200.47" />
<polyline class="Stem" fill="none" stroke="#000000" stroke-width="8.27" stroke-linejoin="bevel" points="6960.07,1972.68 6960.07,1696.53" />
<polyline class="Stem" fill="none" stroke="#000000" stroke-width="8.27" stroke-linejoin="bevel" points="2968.89,924.991 2968.89,1200.47" />
<polyline class="Stem" fill="none" stroke="#000000" stroke-width="8.27" stroke-linejoin="bevel" points="6653.46,924.991 6653.46,1200.47" />
<polyline class="Stem" fill="none" stroke="#000000" stroke-width="8.27" stroke-linejoin="bevel" points="4333.67,1890 4333.67,1654.75" />
<polyline class="Stem" fill="none" stroke="#000000" stroke-width="8.27" stroke-linejoin="bevel" points="6928.55,924.991 6928.55,1200.47" />
<polyline class="Stem" fill="none" stroke="#000000" stroke-width="8.27" stroke-linejoin="bevel" points="4151,1848.66 4151,1634.97" />
<polyline class="Stem" fill="none" stroke="#000000" stroke-width="8.27" stroke-linejoin="bevel" points="7302.85,1021.89 7302.85,766.416" />
<polyline class="Stem" fill="none" stroke="#000000" stroke-width="8.27" stroke-linejoin="bevel" points="3869.11,1834.44 3869.11,2088.92" />
<polyline class="Stem" fill="none" stroke="#000000" stroke-width="8.27" stroke-linejoin="bevel" points="7134.86,1793.1 7134.86,2068.58" />
<polyline class="Stem" fill="none" stroke="#000000" stroke-width="8.27" stroke-linejoin="bevel" points="2693.8,800.975 2693.8,1076.46" />
<polyline class="Stem" fill="none" stroke="#000000" stroke-width="8.27" stroke-linejoin="bevel" points="7696.17,1104.57 7696.17,828.424" />
<polyline class="Stem" fill="none" stroke="#000000" stroke-width="8.27" stroke-linejoin="bevel" points="8706.72,1931.34 8706.72,1655.2" />
<polyline class="Stem" fill="none" stroke="#000000" stroke-width="8.27" stroke-linejoin="bevel" points="7971.26,1187.24 7971.26,911.101" />
<polyline class="Stem" fill="none" stroke="#000000" stroke-width="8.27" stroke-linejoin="bevel" points="3521.77,1875.78 3521.77,2109.92" />
<polyline class="Stem" fill="none" stroke="#000000" stroke-width="8.27" stroke-linejoin="bevel" points="8246.35,1187.24 8246.35,911.101" />
<polyline class="Stem" fill="none" stroke="#000000" stroke-width="8.27" stroke-linejoin="bevel" points="2344.06,924.991 2344.06,1158.69" />
<polyline class="Stem" fill="none" stroke="#000000" stroke-width="8.27" stroke-linejoin="bevel" points="7527.09,1875.78 7527.09,2109.92" />
<polyline class="Stem" fill="none" stroke="#000000" stroke-width="8.27" stroke-linejoin="bevel" points="2160.66,842.313 2160.66,1138.91" />
<polyline class="Stem" fill="none" stroke="#000000" stroke-width="8.27" stroke-linejoin="bevel" points="8639.67,1187.24 8639.67,911.101" />
<polyline class="Stem" fill="none" stroke="#000000" stroke-width="8.27" stroke-linejoin="bevel" points="7900.31,1931.34 7900.31,1655.2" />
<polyline class="Stem" fill="none" stroke="#000000" stroke-width="8.27" stroke-linejoin="bevel" points="3228.75,2055.35 3228.75,1779.21" />
<polyline class="Stem" fill="none" stroke="#000000" stroke-width="8.27" stroke-linejoin="bevel" points="1977.27,883.652 1977.27,1138.91" />
<polyline class="Stem" fill="none" stroke="#000000" stroke-width="8.27" stroke-linejoin="bevel" points="8174.32,1931.34 8174.32,1696.09" />
<polyline class="Stem" fill="none" stroke="#000000" stroke-width="8.27" stroke-linejoin="bevel" points="8356.98,1890 8356.98,1676.31" />
<polyline class="Stem" fill="none" stroke="#000000" stroke-width="8.27" stroke-linejoin="bevel" points="1793.88,924.991 1793.88,1158.69" />
<polyline class="Stem" fill="none" stroke="#000000" stroke-width="8.27" stroke-linejoin="bevel" points="2954.74,2055.35 2954.74,1779.21" />
<polyline class="Stem" fill="none" stroke="#000000" stroke-width="8.27" stroke-linejoin="bevel" points="1618.32,1890 1618.32,1634.53" />
<polyline class="Stem" fill="none" stroke="#000000" stroke-width="8.27" stroke-linejoin="bevel" points="2680.74,1972.68 2680.74,1696.53" />
<polyline class="Stem" fill="none" stroke="#000000" stroke-width="8.27" stroke-linejoin="bevel" points="1518.79,924.991 1518.79,1200.47" />
<polyline class="Stem" fill="none" stroke="#000000" stroke-width="8.27" stroke-linejoin="bevel" points="4680.01,1063.23 4680.01,787.085" />
<path class="Hook" d="M1862.32,2130.26 C1862.32,2132.58 1864.3,2134.56 1866.62,2134.56 C1868.27,2134.56 1870.26,2133.24 1870.59,2131.91 C1870.59,2131.58 1873.57,2120 1873.9,2119 C1874.23,2117.68 1877.21,2105.1 1889.13,2085.57 C1902.04,2064.06 1921.9,2048.5 1938.45,2025.33 C1954.67,2002.16 1964.6,1980.32 1964.6,1951.19 C1964.6,1921.07 1957.64,1895.91 1940.1,1863.8 C1939.11,1861.49 1937.12,1860.16 1935.14,1860.16 C1934.47,1860.16 1933.81,1860.16 1933.48,1860.49 C1931.83,1861.16 1931.16,1862.48 1931.16,1864.47 C1931.16,1865.46 1931.5,1867.11 1932.16,1868.44 C1945.4,1899.22 1950.69,1916.76 1950.69,1940.6 C1950.69,1968.07 1941.09,1982.3 1935.14,1992.56 C1913.62,2029.3 1878.87,2047.18 1864.96,2051.81 C1862.65,2052.8 1862.32,2054.46 1862.32,2055.45 L1862.32,2130.26 "/>
<path class="Hook" d="M3864.98,2088.92 C3864.98,2091.24 3866.97,2093.22 3869.28,2093.22 C3870.94,2093.22 3872.92,2091.9 3873.26,2090.57 C3873.26,2090.24 3876.23,2078.66 3876.57,2077.67 C3876.9,2076.34 3879.88,2063.76 3891.79,2044.23 C3904.7,2022.72 3924.56,2007.16 3941.11,1983.99 C3957.33,1960.82 3967.26,1938.98 3967.26,1909.85 C3967.26,1879.73 3960.31,1854.57 3942.77,1822.46 C3941.77,1820.15 3939.79,1818.82 3937.8,1818.82 C3937.14,1818.82 3936.48,1818.82 3936.15,1819.15 C3934.49,1819.82 3933.83,1821.14 3933.83,1823.13 C3933.83,1824.12 3934.16,1825.77 3934.82,1827.1 C3948.06,1857.88 3953.36,1875.42 3953.36,1899.26 C3953.36,1926.73 3943.76,1940.96 3937.8,1951.22 C3916.29,1987.96 3881.53,2005.84 3867.63,2010.47 C3865.31,2011.47 3864.98,2013.12 3864.98,2014.11 L3864.98,2088.92 "/>
<path class="Hook" d="M5867.64,2068.25 C5867.64,2070.57 5869.63,2072.55 5871.95,2072.55 C5873.6,2072.55 5875.59,2071.23 5875.92,2069.91 C5875.92,2069.57 5878.9,2057.99 5879.23,2057 C5879.56,2055.67 5882.54,2043.09 5894.46,2023.57 C5907.36,2002.05 5927.22,1986.49 5943.77,1963.32 C5959.99,1940.15 5969.92,1918.31 5969.92,1889.18 C5969.92,1859.06 5962.97,1833.9 5945.43,1801.8 C5944.44,1799.48 5942.45,1798.15 5940.46,1798.15 C5939.8,1798.15 5939.14,1798.15 5938.81,1798.49 C5937.15,1799.15 5936.49,1800.47 5936.49,1802.46 C5936.49,1803.45 5936.82,1805.11 5937.49,1806.43 C5950.73,1837.21 5956.02,1854.76 5956.02,1878.59 C5956.02,1906.06 5946.42,1920.29 5940.46,1930.55 C5918.95,1967.3 5884.19,1985.17 5870.29,1989.8 C5867.98,1990.8 5867.64,1992.45 5867.64,1993.44 L5867.64,2068.25 "/>
<path class="Note" d="M8628.2,1973.03 C8617.28,1973.03 8614.96,1964.09 8614.96,1961.12 C8614.96,1944.9 8670.57,1916.43 8686.13,1916.43 C8694.07,1916.43 8699.37,1921.06 8699.37,1928.35 C8699.37,1944.9 8643.43,1973.03 8628.2,1973.03 M8673.88,1900.87 C8641.77,1900.87 8603.38,1927.68 8603.38,1958.47 C8603.38,1972.7 8613.64,1988.59 8640.45,1988.59 C8674.87,1988.59 8710.95,1960.45 8710.95,1931.33 C8710.95,1911.8 8694.4,1900.87 8673.88,1900.87"/>
<path class="Note" d="M6856.72,1999.81 C6856.72,2014.04 6866.99,2029.93 6893.8,2029.93 C6928.22,2029.93 6964.3,2001.79 6964.3,1972.66 C6964.3,1953.14 6947.75,1942.21 6927.23,1942.21 C6895.12,1942.21 6856.72,1969.35 6856.72,1999.81"/>
<path class="Note" d="M2044.99,1917.13 C2044.99,1931.36 2055.25,1947.25 2082.06,1947.25 C2116.48,1947.25 2152.56,1919.11 2152.56,1889.99 C2152.56,1870.46 2136.01,1859.53 2115.49,1859.53 C2083.38,1859.53 2044.99,1886.68 2044.99,1917.13"/>
<path class="Note" d="M2227.66,1958.47 C2227.66,1972.7 2237.92,1988.59 2264.73,1988.59 C2299.15,1988.59 2335.23,1960.45 2335.23,1931.33 C2335.23,1911.8 2318.68,1900.87 2298.16,1900.87 C2266.05,1900.87 2227.66,1928.02 2227.66,1958.47"/>
<path class="Note" d="M1862.32,1875.79 C1862.32,1890.02 1872.58,1905.91 1899.39,1905.91 C1933.81,1905.91 1969.89,1877.78 1969.89,1848.65 C1969.89,1829.12 1953.34,1818.2 1932.82,1818.2 C1900.71,1818.2 1862.32,1845.34 1862.32,1875.79"/>
<path class="Note" d="M7130.73,1793.11 C7130.73,1807.35 7140.99,1823.23 7167.8,1823.23 C7202.22,1823.23 7238.3,1795.1 7238.3,1765.97 C7238.3,1746.44 7221.75,1735.52 7201.23,1735.52 C7169.12,1735.52 7130.73,1762.66 7130.73,1793.11"/>
<path class="Note" d="M1514.97,1917.13 C1514.97,1931.36 1525.23,1947.25 1552.04,1947.25 C1586.47,1947.25 1622.54,1919.11 1622.54,1889.99 C1622.54,1870.46 1605.99,1859.53 1585.47,1859.53 C1553.37,1859.53 1514.97,1886.68 1514.97,1917.13"/>
<path class="Note" d="M2577.39,1999.81 C2577.39,2014.04 2587.65,2029.93 2614.47,2029.93 C2648.89,2029.93 2684.97,2001.79 2684.97,1972.66 C2684.97,1953.14 2668.42,1942.21 2647.9,1942.21 C2615.79,1942.21 2577.39,1969.35 2577.39,1999.81"/>
<path class="Note" d="M2689.66,800.987 C2689.66,815.22 2699.92,831.108 2726.73,831.108 C2761.16,831.108 2797.24,802.973 2797.24,773.845 C2797.24,754.316 2780.69,743.393 2760.16,743.393 C2728.06,743.393 2689.66,770.535 2689.66,800.987"/>
<path class="Note" d="M2851.4,2082.48 C2851.4,2096.72 2861.66,2112.6 2888.47,2112.6 C2922.89,2112.6 2958.97,2084.47 2958.97,2055.34 C2958.97,2035.81 2942.42,2024.89 2921.9,2024.89 C2889.79,2024.89 2851.4,2052.03 2851.4,2082.48"/>
<path class="Note" d="M1514.65,925.003 C1514.65,939.236 1524.91,955.124 1551.72,955.124 C1586.15,955.124 1622.23,926.989 1622.23,897.861 C1622.23,878.332 1605.68,867.409 1585.16,867.409 C1553.05,867.409 1514.65,894.551 1514.65,925.003"/>
<path class="Note" d="M3125.4,2082.48 C3125.4,2096.72 3135.66,2112.6 3162.47,2112.6 C3196.9,2112.6 3232.98,2084.47 3232.98,2055.34 C3232.98,2035.81 3216.43,2024.89 3195.9,2024.89 C3163.8,2024.89 3125.4,2052.03 3125.4,2082.48"/>
<path class="Note" d="M8561.15,1228.94 C8550.22,1228.94 8547.91,1220 8547.91,1217.02 C8547.91,1200.8 8603.51,1172.34 8619.07,1172.34 C8627.02,1172.34 8632.31,1176.97 8632.31,1184.25 C8632.31,1200.8 8576.37,1228.94 8561.15,1228.94 M8606.82,1156.78 C8574.72,1156.78 8536.32,1183.59 8536.32,1214.37 C8536.32,1228.61 8546.58,1244.49 8573.39,1244.49 C8607.82,1244.49 8643.9,1216.36 8643.9,1187.23 C8643.9,1167.7 8627.35,1156.78 8606.82,1156.78"/>
<path class="Note" d="M8143,1214.37 C8143,1228.61 8153.26,1244.49 8180.07,1244.49 C8214.5,1244.49 8250.58,1216.36 8250.58,1187.23 C8250.58,1167.7 8234.03,1156.78 8213.51,1156.78 C8181.4,1156.78 8143,1183.92 8143,1214.37"/>
<path class="Note" d="M7867.91,1214.37 C7867.91,1228.61 7878.17,1244.49 7904.98,1244.49 C7939.41,1244.49 7975.49,1216.36 7975.49,1187.23 C7975.49,1167.7 7958.94,1156.78 7938.41,1156.78 C7906.31,1156.78 7867.91,1183.92 7867.91,1214.37"/>
<path class="Note" d="M3517.63,1875.79 C3517.63,1890.02 3527.89,1905.91 3554.71,1905.91 C3589.13,1905.91 3625.21,1877.78 3625.21,1848.65 C3625.21,1829.12 3608.66,1818.2 3588.14,1818.2 C3556.03,1818.2 3517.63,1845.34 3517.63,1875.79"/>
<path class="Note" d="M8253.64,1917.13 C8253.64,1931.36 8263.9,1947.25 8290.71,1947.25 C8325.13,1947.25 8361.21,1919.11 8361.21,1889.99 C8361.21,1870.46 8344.66,1859.53 8324.14,1859.53 C8292.03,1859.53 8253.64,1886.68 8253.64,1917.13"/>
<path class="Note" d="M7592.82,1131.7 C7592.82,1145.93 7603.08,1161.82 7629.89,1161.82 C7664.32,1161.82 7700.4,1133.68 7700.4,1104.55 C7700.4,1085.02 7683.85,1074.1 7663.32,1074.1 C7631.22,1074.1 7592.82,1101.24 7592.82,1131.7"/>
<path class="Note" d="M7199.5,1049.02 C7199.5,1063.25 7209.76,1079.14 7236.57,1079.14 C7271,1079.14 7307.08,1051 7307.08,1021.88 C7307.08,1002.35 7290.53,991.425 7270.01,991.425 C7237.9,991.425 7199.5,1018.57 7199.5,1049.02"/>
<path class="Note" d="M3864.98,1834.45 C3864.98,1848.68 3875.24,1864.57 3902.05,1864.57 C3936.48,1864.57 3972.56,1836.44 3972.56,1807.31 C3972.56,1787.78 3956.01,1776.86 3935.48,1776.86 C3903.38,1776.86 3864.98,1804 3864.98,1834.45"/>
<path class="Note" d="M6924.41,925.003 C6924.41,939.236 6934.67,955.124 6961.48,955.124 C6995.91,955.124 7031.99,926.989 7031.99,897.861 C7031.99,878.332 7015.44,867.409 6994.92,867.409 C6962.81,867.409 6924.41,894.551 6924.41,925.003"/>
<path class="Note" d="M4047.65,1875.79 C4047.65,1890.02 4057.91,1905.91 4084.72,1905.91 C4119.15,1905.91 4155.22,1877.78 4155.22,1848.65 C4155.22,1829.12 4138.67,1818.2 4118.15,1818.2 C4086.05,1818.2 4047.65,1845.34 4047.65,1875.79"/>
<path class="Note" d="M1789.74,925.003 C1789.74,939.236 1800,955.124 1826.81,955.124 C1861.24,955.124 1897.32,926.989 1897.32,897.861 C1897.32,878.332 1880.77,867.409 1860.25,867.409 C1828.14,867.409 1789.74,894.551 1789.74,925.003"/>
<path class="Note" d="M6649.32,925.003 C6649.32,939.236 6659.58,955.124 6686.39,955.124 C6720.82,955.124 6756.9,926.989 6756.9,897.861 C6756.9,878.332 6740.35,867.409 6719.82,867.409 C6687.72,867.409 6649.32,894.551 6649.32,925.003"/>
<path class="Note" d="M4230.32,1917.13 C4230.32,1931.36 4240.58,1947.25 4267.39,1947.25 C4301.82,1947.25 4337.89,1919.11 4337.89,1889.99 C4337.89,1870.46 4321.34,1859.53 4300.82,1859.53 C4268.72,1859.53 4230.32,1886.68 4230.32,1917.13"/>
<path class="Note" d="M6299.58,966.341 C6299.58,980.574 6309.84,996.462 6336.66,996.462 C6371.08,996.462 6407.16,968.327 6407.16,939.199 C6407.16,919.67 6390.61,908.747 6370.09,908.747 C6337.98,908.747 6299.58,935.889 6299.58,966.341"/>
<path class="Note" d="M8070.97,1958.47 C8070.97,1972.7 8081.23,1988.59 8108.04,1988.59 C8142.46,1988.59 8178.54,1960.45 8178.54,1931.33 C8178.54,1911.8 8161.99,1900.87 8141.47,1900.87 C8109.36,1900.87 8070.97,1928.02 8070.97,1958.47"/>
<path class="Note" d="M6116.19,1007.68 C6116.19,1021.91 6126.45,1037.8 6153.26,1037.8 C6187.69,1037.8 6223.77,1009.67 6223.77,980.538 C6223.77,961.009 6207.22,950.086 6186.69,950.086 C6154.59,950.086 6116.19,977.228 6116.19,1007.68"/>
<path class="Note" d="M4580.06,1958.47 C4580.06,1972.7 4590.32,1988.59 4617.13,1988.59 C4651.55,1988.59 4687.63,1960.45 4687.63,1931.33 C4687.63,1911.8 4671.08,1900.87 4650.56,1900.87 C4618.45,1900.87 4580.06,1928.02 4580.06,1958.47"/>
<path class="Note" d="M5932.8,1049.02 C5932.8,1063.25 5943.06,1079.14 5969.87,1079.14 C6004.29,1079.14 6040.37,1051 6040.37,1021.88 C6040.37,1002.35 6023.82,991.425 6003.3,991.425 C5971.19,991.425 5932.8,1018.57 5932.8,1049.02"/>
<path class="Note" d="M4854.06,2041.14 C4854.06,2055.38 4864.32,2071.27 4891.13,2071.27 C4925.56,2071.27 4961.64,2043.13 4961.64,2014 C4961.64,1994.47 4945.09,1983.55 4924.56,1983.55 C4892.46,1983.55 4854.06,2010.69 4854.06,2041.14"/>
<path class="Note" d="M7796.96,1958.47 C7796.96,1972.7 7807.23,1988.59 7834.04,1988.59 C7868.46,1988.59 7904.54,1960.45 7904.54,1931.33 C7904.54,1911.8 7887.99,1900.87 7867.47,1900.87 C7835.36,1900.87 7796.96,1928.02 7796.96,1958.47"/>
<path class="Note" d="M5128.06,2041.14 C5128.06,2055.38 5138.33,2071.27 5165.14,2071.27 C5199.56,2071.27 5235.64,2043.13 5235.64,2014 C5235.64,1994.47 5219.09,1983.55 5198.57,1983.55 C5166.46,1983.55 5128.06,2010.69 5128.06,2041.14"/>
<path class="Note" d="M5749.4,1090.36 C5749.4,1104.59 5759.66,1120.48 5786.47,1120.48 C5820.9,1120.48 5856.98,1092.34 5856.98,1063.22 C5856.98,1043.69 5840.43,1032.76 5819.91,1032.76 C5787.8,1032.76 5749.4,1059.91 5749.4,1090.36"/>
<path class="Note" d="M5566.01,1049.02 C5566.01,1063.25 5576.27,1079.14 5603.08,1079.14 C5637.51,1079.14 5673.58,1051 5673.58,1021.88 C5673.58,1002.35 5657.03,991.425 5636.51,991.425 C5604.41,991.425 5566.01,1018.57 5566.01,1049.02"/>
<path class="Note" d="M1973.14,883.664 C1973.14,897.897 1983.4,913.785 2010.21,913.785 C2044.63,913.785 2080.71,885.65 2080.71,856.522 C2080.71,836.993 2064.16,826.07 2043.64,826.07 C2011.53,826.07 1973.14,853.212 1973.14,883.664"/>
<path class="Note" d="M5520.3,1834.45 C5520.3,1848.68 5530.56,1864.57 5557.37,1864.57 C5591.79,1864.57 5627.87,1836.44 5627.87,1807.31 C5627.87,1787.78 5611.32,1776.86 5590.8,1776.86 C5558.69,1776.86 5520.3,1804 5520.3,1834.45"/>
<path class="Note" d="M7522.96,1875.79 C7522.96,1890.02 7533.22,1905.91 7560.03,1905.91 C7594.46,1905.91 7630.54,1877.78 7630.54,1848.65 C7630.54,1829.12 7613.99,1818.2 7593.46,1818.2 C7561.36,1818.2 7522.96,1845.34 7522.96,1875.79"/>
<path class="Note" d="M5382.62,1090.36 C5382.62,1104.59 5392.88,1120.48 5419.69,1120.48 C5454.11,1120.48 5490.19,1092.34 5490.19,1063.22 C5490.19,1043.69 5473.64,1032.76 5453.12,1032.76 C5421.01,1032.76 5382.62,1059.91 5382.62,1090.36"/>
<path class="Note" d="M4989.3,1214.37 C4989.3,1228.61 4999.56,1244.49 5026.37,1244.49 C5060.79,1244.49 5096.87,1216.36 5096.87,1187.23 C5096.87,1167.7 5080.32,1156.78 5059.8,1156.78 C5027.69,1156.78 4989.3,1183.92 4989.3,1214.37"/>
<path class="Note" d="M5867.64,1793.11 C5867.64,1807.35 5877.91,1823.23 5904.72,1823.23 C5939.14,1823.23 5975.22,1795.1 5975.22,1765.97 C5975.22,1746.44 5958.67,1735.52 5938.15,1735.52 C5906.04,1735.52 5867.64,1762.66 5867.64,1793.11"/>
<path class="Note" d="M4601.49,1104.92 C4590.56,1104.92 4588.25,1095.98 4588.25,1093.01 C4588.25,1076.79 4643.85,1048.32 4659.41,1048.32 C4667.36,1048.32 4672.65,1052.95 4672.65,1060.24 C4672.65,1076.79 4616.71,1104.92 4601.49,1104.92 M4647.16,1032.76 C4615.06,1032.76 4576.66,1059.57 4576.66,1090.36 C4576.66,1104.59 4586.92,1120.48 4613.73,1120.48 C4648.16,1120.48 4684.24,1092.34 4684.24,1063.22 C4684.24,1043.69 4667.69,1032.76 4647.16,1032.76"/>
<path class="Note" d="M6050.31,1834.45 C6050.31,1848.68 6060.57,1864.57 6087.39,1864.57 C6121.81,1864.57 6157.89,1836.44 6157.89,1807.31 C6157.89,1787.78 6141.34,1776.86 6120.82,1776.86 C6088.71,1776.86 6050.31,1804 6050.31,1834.45"/>
<path class="Note" d="M2156.53,842.326 C2156.53,856.559 2166.79,872.447 2193.6,872.447 C2228.03,872.447 2264.11,844.312 2264.11,815.184 C2264.11,795.655 2247.56,784.732 2227.03,784.732 C2194.93,784.732 2156.53,811.874 2156.53,842.326"/>
<path class="Note" d="M4183.34,1090.36 C4183.34,1104.59 4193.6,1120.48 4220.41,1120.48 C4254.84,1120.48 4290.92,1092.34 4290.92,1063.22 C4290.92,1043.69 4274.37,1032.76 4253.85,1032.76 C4221.74,1032.76 4183.34,1059.91 4183.34,1090.36"/>
<path class="Note" d="M6232.98,1875.79 C6232.98,1890.02 6243.24,1905.91 6270.05,1905.91 C6304.48,1905.91 6340.56,1877.78 6340.56,1848.65 C6340.56,1829.12 6324.01,1818.2 6303.49,1818.2 C6271.38,1818.2 6232.98,1845.34 6232.98,1875.79"/>
<path class="Note" d="M3908.25,1090.36 C3908.25,1104.59 3918.51,1120.48 3945.32,1120.48 C3979.75,1120.48 4015.83,1092.34 4015.83,1063.22 C4015.83,1043.69 3999.28,1032.76 3978.75,1032.76 C3946.65,1032.76 3908.25,1059.91 3908.25,1090.36"/>
<path class="Note" d="M3633.16,1007.68 C3633.16,1021.91 3643.42,1037.8 3670.23,1037.8 C3704.66,1037.8 3740.74,1009.67 3740.74,980.538 C3740.74,961.009 3724.19,950.086 3703.66,950.086 C3671.56,950.086 3633.16,977.228 3633.16,1007.68"/>
<path class="Note" d="M3239.84,925.003 C3239.84,939.236 3250.1,955.124 3276.91,955.124 C3311.34,955.124 3347.42,926.989 3347.42,897.861 C3347.42,878.332 3330.87,867.409 3310.35,867.409 C3278.24,867.409 3239.84,894.551 3239.84,925.003"/>
<path class="Note" d="M6582.72,1917.13 C6582.72,1931.36 6592.98,1947.25 6619.79,1947.25 C6654.22,1947.25 6690.3,1919.11 6690.3,1889.99 C6690.3,1870.46 6673.75,1859.53 6653.22,1859.53 C6621.12,1859.53 6582.72,1886.68 6582.72,1917.13"/>
<path class="Note" d="M2964.75,925.003 C2964.75,939.236 2975.01,955.124 3001.82,955.124 C3036.25,955.124 3072.33,926.989 3072.33,897.861 C3072.33,878.332 3055.78,867.409 3035.26,867.409 C3003.15,867.409 2964.75,894.551 2964.75,925.003"/>
<path class="Note" d="M2339.92,925.003 C2339.92,939.236 2350.18,955.124 2377,955.124 C2411.42,955.124 2447.5,926.989 2447.5,897.861 C2447.5,878.332 2430.95,867.409 2410.43,867.409 C2378.32,867.409 2339.92,894.551 2339.92,925.003"/>
<path class="Clef" d="M909.689,2012.75 C903.069,2014.08 896.78,2014.74 890.491,2014.74 C843.158,2014.74 802.776,1981.64 802.776,1931.66 C802.776,1891.27 831.242,1855.2 860.37,1830.04 C865.997,1825.07 871.293,1820.44 876.258,1815.48 C879.237,1833.35 881.554,1848.91 883.871,1862.48 C853.75,1871.41 833.228,1903.19 833.228,1934.3 C833.228,1957.47 851.433,1989.25 877.913,1989.25 C880.561,1989.25 883.54,1987.93 883.54,1984.95 C883.54,1981.97 880.23,1980.31 876.258,1977.67 C863.349,1969.72 856.067,1961.12 856.067,1944.9 C856.067,1924.71 870.962,1908.49 890.491,1903.85 L909.689,2012.75 M880.561,1672.48 C883.54,1659.24 898.766,1624.49 915.978,1624.49 C920.943,1624.49 928.887,1640.71 928.887,1663.55 C928.887,1697.97 903.4,1723.79 880.561,1746.3 C878.575,1733.06 876.92,1720.15 876.92,1706.25 C876.92,1694 877.913,1682.74 880.561,1672.48 M956.691,1951.52 C956.691,1975.02 947.092,1999.18 923.591,2008.78 C916.64,1969.06 907.703,1916.43 905.386,1901.87 C935.176,1901.87 956.691,1922.06 956.691,1951.52 M811.051,2114.37 C811.051,2136.21 827.932,2165.01 872.617,2165.01 C888.174,2165.01 901.745,2161.04 913.661,2153.76 C931.535,2141.18 936.169,2119.33 936.169,2098.48 C936.169,2085.57 934.183,2070.68 930.873,2051.81 C929.88,2045.19 927.894,2035.26 925.908,2022.35 C958.346,2011.76 982.509,1978 982.509,1943.9 C982.509,1893.92 947.092,1860.16 898.766,1860.16 C895.456,1840.3 892.146,1820.77 889.167,1802.24 C924.253,1765.49 948.416,1724.12 948.416,1671.49 C948.416,1641.37 939.148,1616.88 933.852,1604.96 C925.908,1588.08 916.309,1576.49 910.351,1576.49 C908.034,1576.49 897.773,1580.47 886.85,1593.37 C865.666,1618.53 859.708,1660.9 859.708,1688.7 C859.708,1706.58 861.363,1722.8 866.99,1759.87 C866.659,1760.2 849.447,1777.74 842.496,1783.37 C812.375,1811.5 770.669,1851.55 770.669,1917.75 C770.669,1979.65 824.622,2028.31 886.188,2028.31 C895.787,2028.31 904.724,2027.32 912.337,2025.99 C918.626,2057.77 922.267,2080.94 922.267,2098.48 C922.267,2132.9 904.724,2151.11 871.293,2151.11 C863.349,2151.11 856.398,2149.45 855.736,2149.45 C855.405,2149.12 854.743,2148.79 854.743,2148.46 C854.743,2147.8 855.405,2147.47 856.398,2147.14 C871.955,2144.82 887.512,2131.58 887.512,2110.4 C887.512,2092.52 873.941,2073.66 849.116,2073.66 C825.946,2073.66 811.051,2092.52 811.051,2114.37"/>
<path class="Clef" d="M909.689,1144.64 C903.069,1145.97 896.78,1146.63 890.491,1146.63 C843.158,1146.63 802.776,1113.53 802.776,1063.55 C802.776,1023.16 831.242,987.085 860.37,961.929 C865.997,956.964 871.293,952.33 876.258,947.365 C879.237,965.239 881.554,980.796 883.871,994.367 C853.75,1003.3 833.228,1035.08 833.228,1066.19 C833.228,1089.36 851.433,1121.14 877.913,1121.14 C880.561,1121.14 883.54,1119.82 883.54,1116.84 C883.54,1113.86 880.23,1112.2 876.258,1109.56 C863.349,1101.61 856.067,1093.01 856.067,1076.79 C856.067,1056.6 870.962,1040.38 890.491,1035.74 L909.689,1144.64 M880.561,804.373 C883.54,791.133 898.766,756.378 915.978,756.378 C920.943,756.378 928.887,772.597 928.887,795.436 C928.887,829.86 903.4,855.678 880.561,878.186 C878.575,864.946 876.92,852.037 876.92,838.135 C876.92,825.888 877.913,814.634 880.561,804.373 M956.691,1083.41 C956.691,1106.91 947.092,1131.07 923.591,1140.67 C916.64,1100.95 907.703,1048.32 905.386,1033.76 C935.176,1033.76 956.691,1053.95 956.691,1083.41 M811.051,1246.26 C811.051,1268.1 827.932,1296.9 872.617,1296.9 C888.174,1296.9 901.745,1292.93 913.661,1285.65 C931.535,1273.07 936.169,1251.22 936.169,1230.37 C936.169,1217.46 934.183,1202.57 930.873,1183.7 C929.88,1177.08 927.894,1167.15 925.908,1154.24 C958.346,1143.65 982.509,1109.89 982.509,1075.79 C982.509,1025.81 947.092,992.05 898.766,992.05 C895.456,972.19 892.146,952.661 889.167,934.125 C924.253,897.384 948.416,856.009 948.416,803.38 C948.416,773.259 939.148,748.765 933.852,736.849 C925.908,719.968 916.309,708.383 910.351,708.383 C908.034,708.383 897.773,712.355 886.85,725.264 C865.666,750.42 859.708,792.788 859.708,820.592 C859.708,838.466 861.363,854.685 866.99,891.757 C866.659,892.088 849.447,909.631 842.496,915.258 C812.375,943.393 770.669,983.444 770.669,1049.64 C770.669,1111.54 824.622,1160.2 886.188,1160.2 C895.787,1160.2 904.724,1159.21 912.337,1157.88 C918.626,1189.66 922.267,1212.83 922.267,1230.37 C922.267,1264.79 904.724,1283 871.293,1283 C863.349,1283 856.398,1281.34 855.736,1281.34 C855.405,1281.01 854.743,1280.68 854.743,1280.35 C854.743,1279.69 855.405,1279.36 856.398,1279.03 C871.955,1276.71 887.512,1263.47 887.512,1242.29 C887.512,1224.41 873.941,1205.55 849.116,1205.55 C825.946,1205.55 811.051,1224.41 811.051,1246.26"/>
<path class="KeySig" d="M1070.17,1672.04 L1099.63,1666.08 L1099.63,1720.7 L1070.17,1726.99 L1070.17,1672.04 M1121.48,1661.78 C1123.47,1661.45 1125.12,1659.13 1125.12,1657.14 L1125.12,1637.62 C1125.12,1634.97 1123.13,1632.98 1120.49,1632.98 L1119.82,1632.98 L1108.9,1635.3 L1108.9,1585.98 L1099.63,1585.98 L1099.63,1637.28 L1070.17,1643.24 L1070.17,1596.57 L1060.91,1596.57 L1060.91,1645.23 L1048,1647.88 C1046.01,1648.21 1044.36,1650.52 1044.36,1652.51 L1044.36,1671.71 C1044.36,1674.36 1046.34,1676.34 1048.99,1676.34 L1049.98,1676.34 L1060.91,1674.03 L1060.91,1728.64 L1048,1731.29 C1046.01,1731.62 1044.36,1733.94 1044.36,1735.92 L1044.36,1755.12 C1044.36,1757.77 1046.34,1759.75 1048.99,1759.75 L1049.98,1759.75 L1060.91,1757.44 L1060.91,1806.76 L1070.17,1806.76 L1070.17,1755.45 L1099.63,1749.49 L1099.63,1796.16 L1108.9,1796.16 L1108.9,1747.51 L1121.48,1745.19 C1123.47,1744.86 1125.12,1742.54 1125.12,1740.56 L1125.12,1721.03 C1125.12,1718.38 1123.13,1716.39 1120.49,1716.39 L1119.82,1716.39 L1108.9,1718.71 L1108.9,1664.1 L1121.48,1661.78 "/>
<path class="KeySig" d="M1070.17,803.93 L1099.63,797.972 L1099.63,852.587 L1070.17,858.876 L1070.17,803.93 M1121.48,793.669 C1123.47,793.338 1125.12,791.021 1125.12,789.035 L1125.12,769.506 C1125.12,766.858 1123.13,764.872 1120.49,764.872 L1119.82,764.872 L1108.9,767.189 L1108.9,717.87 L1099.63,717.87 L1099.63,769.175 L1070.17,775.133 L1070.17,728.462 L1060.91,728.462 L1060.91,777.119 L1048,779.767 C1046.01,780.098 1044.36,782.415 1044.36,784.401 L1044.36,803.599 C1044.36,806.247 1046.34,808.233 1048.99,808.233 L1049.98,808.233 L1060.91,805.916 L1060.91,860.531 L1048,863.179 C1046.01,863.51 1044.36,865.827 1044.36,867.813 L1044.36,887.011 C1044.36,889.659 1046.34,891.645 1048.99,891.645 L1049.98,891.645 L1060.91,889.328 L1060.91,938.647 L1070.17,938.647 L1070.17,887.342 L1099.63,881.384 L1099.63,928.055 L1108.9,928.055 L1108.9,879.398 L1121.48,877.081 C1123.47,876.75 1125.12,874.433 1125.12,872.447 L1125.12,852.918 C1125.12,850.27 1123.13,848.284 1120.49,848.284 L1119.82,848.284 L1108.9,850.601 L1108.9,795.986 L1121.48,793.669 "/>
<path class="TimeSig" d="M1306.19,907.779 C1332.67,897.518 1334.32,880.306 1334.32,874.348 L1334.32,872.693 C1334.32,869.714 1333.33,832.311 1276.4,832.311 C1219.46,832.311 1221.12,872.693 1221.12,872.693 L1221.45,872.693 L1221.12,873.355 C1221.12,885.271 1230.72,894.539 1242.63,894.539 C1254.55,894.539 1263.82,885.271 1263.82,873.355 C1263.82,863.756 1256.54,854.488 1247.27,852.502 L1248.26,851.509 C1252.89,848.199 1259.18,846.544 1265.47,846.544 C1279.37,846.544 1294.27,854.819 1294.27,872.693 C1294.27,893.546 1278.71,896.525 1274.74,897.187 C1270.77,897.849 1252.23,899.173 1248.26,899.173 C1244.29,899.173 1243.96,903.807 1243.96,903.807 L1243.96,910.427 C1243.96,910.427 1244.62,914.068 1248.26,914.399 C1253.89,914.73 1261.5,914.73 1272.09,916.385 C1286.66,918.371 1294.27,928.301 1294.27,951.471 C1294.27,973.648 1279.37,979.606 1265.47,979.606 C1256.2,979.606 1247.6,976.958 1243.96,974.31 C1254.88,973.648 1263.82,964.049 1263.82,953.126 C1263.82,941.21 1254.55,931.611 1242.63,931.611 C1230.72,931.611 1221.12,941.21 1221.12,953.126 C1221.12,980.268 1245.94,993.839 1270.44,993.839 C1302.21,993.839 1336.64,982.916 1336.64,946.837 C1336.64,922.674 1320.09,912.413 1305.52,907.779 L1306.19,907.779 "/>
<path class="TimeSig" d="M1271.95,1118.01 L1271.95,1142.5 L1244.48,1142.5 C1242.16,1142.5 1239.85,1144.49 1239.85,1147.13 L1239.85,1153.42 C1239.85,1156.07 1242.16,1158.06 1244.48,1158.06 L1344.77,1158.06 C1347.42,1158.06 1349.41,1156.07 1349.41,1153.42 L1349.41,1147.13 C1349.41,1144.49 1347.42,1142.5 1344.77,1142.5 L1314.98,1142.5 L1314.98,1118.01 L1344.77,1118.01 C1347.42,1118.01 1349.41,1115.69 1349.41,1113.04 L1349.41,1106.75 C1349.41,1104.44 1347.42,1102.12 1344.77,1102.12 L1314.98,1102.12 L1314.98,1049.49 C1314.98,1047.5 1313.99,1045.85 1312.67,1045.19 L1308.7,1043.2 C1308.03,1042.87 1307.7,1042.87 1307.04,1042.87 C1305.72,1042.87 1304.39,1042.87 1303.4,1043.86 L1273.28,1071.34 C1272.29,1072.33 1271.95,1073.65 1271.95,1074.98 L1271.95,1102.12 L1233.56,1102.12 C1233.56,1102.12 1270.63,1062.4 1309.69,1010.1 C1311.01,1008.45 1311.34,1006.79 1311.34,1005.47 C1311.34,1003.81 1310.68,1002.49 1310.35,1002.16 L1303.07,994.874 C1302.08,994.212 1301.08,993.55 1299.76,993.55 C1297.77,993.55 1253.09,993.55 1250.44,993.55 C1248.12,993.55 1246.47,995.536 1246.14,997.522 C1246.14,997.522 1244.48,1022.02 1235.88,1048.83 C1227.27,1075.64 1217.34,1092.19 1208.73,1104.44 C1208.73,1104.44 1207.74,1106.09 1207.74,1108.08 C1207.74,1108.74 1207.74,1109.4 1208.07,1110.06 C1209.06,1112.38 1211.38,1116.02 1211.38,1116.02 C1211.38,1116.02 1212.04,1118.01 1215.02,1118.01 L1271.95,1118.01 "/>
<path class="Beam" fill-rule="evenodd" d="M2156.53,1117.67 L2348.19,1138.34 L2348.19,1179.92 L2156.53,1159.25 L2156.53,1117.67 "/>
<path class="Beam" fill-rule="evenodd" d="M6050.31,2047.79 L6241.25,2068.46 L6241.25,2110.04 L6050.31,2089.37 L6050.31,2047.79 "/>
<path class="Beam" fill-rule="evenodd" d="M5481.83,807.635 L5673.49,786.965 L5673.49,828.544 L5481.83,849.213 L5481.83,807.635 "/>
<path class="Beam" fill-rule="evenodd" d="M5848.62,807.635 L6040.28,786.965 L6040.28,828.544 L5848.62,849.213 L5848.62,807.635 "/>
<path class="Beam" fill-rule="evenodd" d="M1789.74,1138.34 L1981.4,1117.67 L1981.4,1159.25 L1789.74,1179.92 L1789.74,1138.34 "/>
<path class="Beam" fill-rule="evenodd" d="M6116.19,1200.35 L6307.85,1179.68 L6307.85,1221.26 L6116.19,1241.93 L6116.19,1200.35 "/>
<path class="Beam" fill-rule="evenodd" d="M8170.18,1675.74 L8361.12,1655.07 L8361.12,1696.65 L8170.18,1717.32 L8170.18,1675.74 "/>
<path class="Beam" fill-rule="evenodd" d="M4146.86,1613.74 L4337.8,1634.41 L4337.8,1675.99 L4146.86,1655.32 L4146.86,1613.74 "/>
<path class="Beam" fill-rule="evenodd" d="M2144.2,1655.07 L2335.14,1675.74 L2335.14,1717.32 L2144.2,1696.65 L2144.2,1655.07 "/>
<path class="NoteDot" d="M5669.13,1820.55 C5669.13,1829.82 5676.41,1837.1 5685.68,1837.1 C5694.95,1837.1 5702.23,1829.82 5702.23,1820.55 C5702.23,1811.28 5694.95,1804 5685.68,1804 C5676.41,1804 5669.13,1811.28 5669.13,1820.55"/>
<path class="NoteDot" d="M3666.47,1820.55 C3666.47,1829.82 3673.75,1837.1 3683.02,1837.1 C3692.28,1837.1 3699.57,1829.82 3699.57,1820.55 C3699.57,1811.28 3692.28,1804 3683.02,1804 C3673.75,1804 3666.47,1811.28 3666.47,1820.55"/>
<path class="NoteDot" d="M8685.15,1200.47 C8685.15,1209.74 8692.44,1217.02 8701.7,1217.02 C8710.97,1217.02 8718.25,1209.74 8718.25,1200.47 C8718.25,1191.2 8710.97,1183.92 8701.7,1183.92 C8692.44,1183.92 8685.15,1191.2 8685.15,1200.47"/>
<path class="NoteDot" d="M1663.8,1903.23 C1663.8,1912.49 1671.08,1919.78 1680.35,1919.78 C1689.62,1919.78 1696.9,1912.49 1696.9,1903.23 C1696.9,1893.96 1689.62,1886.68 1680.35,1886.68 C1671.08,1886.68 1663.8,1893.96 1663.8,1903.23"/>
<path class="NoteDot" d="M8752.21,1903.23 C8752.21,1912.49 8759.49,1919.78 8768.76,1919.78 C8778.03,1919.78 8785.31,1912.49 8785.31,1903.23 C8785.31,1893.96 8778.03,1886.68 8768.76,1886.68 C8759.49,1886.68 8752.21,1893.96 8752.21,1903.23"/>
</svg>
