<?xml version="1.0" encoding="UTF-8" standalone="no"?>
<svg
   width="681"
   height="186.43204"
   version="1.2"
   id="svg233"
   xmlns="http://www.w3.org/2000/svg"
   xmlns:svg="http://www.w3.org/2000/svg"
   xmlns:rdf="http://www.w3.org/1999/02/22-rdf-syntax-ns#"
   xmlns:cc="http://creativecommons.org/ns#"
   xmlns:dc="http://purl.org/dc/elements/1.1/">
  <defs
     id="defs233" />
  <title
     id="title1">air_XXXIX</title>
  <desc
     id="desc1">Generated by MuseScore Studio 4.7.3</desc>
  <path
     id="path233"
     class="NoteDot"
     d="m 50.371228,89.360059 c 0,0.742108 0.583599,1.324906 1.324906,1.324906 0.742107,0 1.324906,-0.582798 1.324906,-1.324906 0,-0.742107 -0.582799,-1.324906 -1.324906,-1.324906 -0.741307,0 -1.324906,0.582799 -1.324906,1.324906 M 633.60121,158.85638 c 0,0.7421 0.5836,1.3249 1.3249,1.3249 0.74211,0 1.32491,-0.5828 1.32491,-1.3249 0,-0.74131 -0.5828,-1.32491 -1.32491,-1.32491 -0.7413,0 -1.3249,0.5836 -1.3249,1.32491 M 220.32503,19.863982 c 0,0.741947 0.5836,1.324906 1.32491,1.324906 0.74211,0 1.3249,-0.582959 1.3249,-1.324906 0,-0.741947 -0.58279,-1.324906 -1.3249,-1.324906 -0.74131,0 -1.32491,0.582959 -1.32491,1.324906 m 112.67785,69.496077 c 0,0.742108 0.58359,1.324906 1.3249,1.324906 0.74211,0 1.32491,-0.582798 1.32491,-1.324906 0,-0.742107 -0.5828,-1.324906 -1.32491,-1.324906 -0.74131,0 -1.3249,0.582799 -1.3249,1.324906 M 185.09054,178.71235 c 0,0.74211 0.5828,1.32491 1.32491,1.32491 0.7421,0 1.3249,-0.5828 1.3249,-1.32491 0,-0.7413 -0.5828,-1.3249 -1.3249,-1.3249 -0.74211,0 -1.32491,0.5836 -1.32491,1.3249 m 199.22342,-19.85597 c 0,0.7421 0.5828,1.3249 1.3249,1.3249 0.74211,0 1.32491,-0.5828 1.32491,-1.3249 0,-0.74131 -0.5828,-1.32491 -1.32491,-1.32491 -0.7421,0 -1.3249,0.5836 -1.3249,1.32491 M 464.93228,39.719718 c 0,0.742107 0.5836,1.324906 1.32491,1.324906 0.7421,0 1.3249,-0.582799 1.3249,-1.324906 0,-0.741307 -0.5828,-1.324906 -1.3249,-1.324906 -0.74131,0 -1.32491,0.583599 -1.32491,1.324906 m 15.71875,66.181252 19.63102,-1.65473 v 3.32147 l -19.63102,1.65473 v -3.32147 m 74.33482,-29.783565 19.63103,1.653931 v 3.321471 l -19.63103,-1.654732 v -3.32067 m -150.19229,23.165439 19.63102,-1.654731 v 3.320667 l -19.63102,1.65473 V 99.282844 M 382.85296,0 433.62367,4.9640341 V 8.2891076 L 382.85296,3.3250735 V 0 m -147.10618,109.21043 57.56976,-4.96419 v 3.32147 l -57.56976,4.96419 v -3.32147 m -164.719829,38.05562 17.080479,1.65473 v 3.32468 l -17.080479,-1.65473 v -3.32468 m 32.837649,-8.27365 49.91733,4.96419 v 3.32547 l -49.91733,-4.96419 v -3.32547 m 56.0047,-26.4669 h 57.56976 v 3.30946 H 159.8693 v -3.30946 m 68.07935,34.74055 17.08047,1.65473 v 3.32468 l -17.08047,-1.65473 v -3.32468 M 61.967957,8.2737371 79.33263,9.9283885 V 13.252741 L 61.967957,11.59809 V 8.2737371 M 544.43304,178.70435 l 49.91733,-4.9642 v 3.32628 l -49.91733,4.96419 v -3.32627 m -65.67451,3.31747 h 49.91734 v 3.30946 h -49.91734 v -3.30946 M 509.4243,9.935033 560.19582,8.2803817 V 11.591446 L 509.4243,13.246177 V 9.935033 M 349.44612,8.2737371 366.81159,9.9283885 V 13.252741 L 349.44612,11.59809 V 8.2737371 M 37.140582,18.430121 c -0.662053,0.42397 -1.139179,1.192416 -1.139179,2.040356 0,0.105992 0,0.211984 0.02642,0.317977 0.13209,1.086423 1.007089,1.934363 2.093431,2.066853 h 0.2914 c 1.324905,0 2.38483,-1.059925 2.38483,-2.38483 v -0.158989 c 0,-0.105993 -0.02642,-0.291479 -0.05284,-0.397472 -0.238563,-1.139419 -1.27207,-3.577246 -5.77675,-3.577246 -5.77675,0 -6.438802,4.796159 -6.438802,6.518537 0,3.153436 0.397071,7.101736 7.021601,7.101736 2.623393,0 4.663989,-1.537051 4.769661,-4.37259 0,-0.13209 -0.07925,-0.212145 -0.212145,-0.212145 h -0.344235 c -0.105673,0 -0.212146,0.106473 -0.212146,0.212145 -0.105672,2.199904 -1.669141,3.52481 -4.001135,3.52481 -2.305577,0 -3.418338,-1.245651 -3.418338,-3.577646 v -5.06114 c 0,-1.483895 0.582799,-3.179775 2.941211,-3.179775 1.245652,0 1.802033,0.450468 2.093432,0.900936 0.02642,0.053 0.02642,0.07949 0.02642,0.132491 0,0.0265 0,0.07949 -0.05284,0.105992 M 16.093311,35.250262 c -0.529962,0.106473 -1.033427,0.159309 -1.536891,0.159309 -3.789231,0 -7.0220012,-2.649812 -7.0220012,-6.650948 0,-3.23261 2.2788381,-6.121145 4.6106722,-8.135002 0.450468,-0.397472 0.874438,-0.768445 1.27191,-1.165917 0.238483,1.430898 0.42397,2.67631 0.609457,3.762733 -2.411329,0.715689 -4.0542123,3.259028 -4.0542123,5.750332 0,1.854868 1.4573963,4.398207 3.5772463,4.398207 0.211985,0 0.450468,-0.105672 0.450468,-0.344236 0,-0.238563 -0.264982,-0.370653 -0.582959,-0.582798 -1.033427,-0.636435 -1.616385,-1.324906 -1.616385,-2.623394 0,-1.616305 1.192415,-2.914793 2.755804,-3.285446 l 1.536891,8.71716 M 13.761477,8.0105171 C 13.99996,6.9505924 15.218873,4.16829 16.596775,4.16829 c 0.397472,0 1.033427,1.2984078 1.033427,3.1267779 0,2.7558041 -2.040355,4.8226571 -3.868725,6.6245291 -0.158989,-1.059924 -0.29148,-2.093351 -0.29148,-3.206272 0,-0.9804302 0.0795,-1.8813662 0.29148,-2.7028079 m 6.094567,22.3379939 c 0,1.881286 -0.768446,3.815408 -2.649812,4.583934 -0.556461,-3.179774 -1.27191,-7.393055 -1.457397,-8.558652 2.384831,0 4.107209,1.616305 4.107209,3.974718 M 8.1968718,43.385424 c 0,1.749196 1.351404,4.053972 4.9286502,4.053972 1.245411,0 2.331834,-0.317817 3.285766,-0.900615 1.430899,-1.007089 1.801872,-2.755484 1.801872,-4.425426 0,-1.033507 -0.158988,-2.225522 -0.42397,-3.736155 -0.07949,-0.529962 -0.238483,-1.324906 -0.397471,-2.358412 2.596815,-0.84778 4.531178,-3.550428 4.531178,-6.279494 0,-4.001136 -2.835299,-6.704344 -6.704024,-6.704344 -0.264981,-1.589887 -0.529962,-3.153276 -0.768445,-4.637171 2.8088,-2.941291 4.743163,-6.253555 4.743163,-10.4667562 0,-2.4113287 -0.741948,-4.3721895 -1.165918,-5.3261217 -0.635954,-1.351404 -1.4044,-2.27883816 -1.881366,-2.27883816 -0.185487,0 -1.006928,0.31797742 -1.881366,1.35140406 -1.69588,2.0138569 -2.172846,5.405616 -2.172846,7.6314579 0,1.4308981 0.132491,2.7293061 0.582959,5.6970951 -0.0265,0.0265 -1.404401,1.430899 -1.960861,1.881367 -2.4113288,2.25234 -5.7500916,5.458612 -5.7500916,10.758476 0,4.954587 4.3191932,8.850051 9.2478436,8.850051 0.768445,0 1.483894,-0.07925 2.093351,-0.185727 0.503464,2.544139 0.794943,4.399008 0.794943,5.803168 0,2.756284 -1.4044,4.213281 -4.08071,4.213281 -0.635955,0 -1.192415,-0.132091 -1.245411,-0.132091 -0.0265,-0.02642 -0.07949,-0.05284 -0.07949,-0.08005 0,-0.05284 0.053,-0.07925 0.132491,-0.105672 1.245411,-0.185727 2.490823,-1.245652 2.490823,-2.941211 0,-1.430578 -1.086423,-2.941211 -3.073782,-2.941211 -1.8548679,0 -3.0472832,1.510633 -3.0472832,3.259028 M 16.093311,174.2429 c -0.529962,0.10647 -1.033427,0.15931 -1.536891,0.15931 -3.789231,0 -7.0220012,-2.64982 -7.0220012,-6.65095 0,-3.23261 2.2788381,-6.12099 4.6106722,-8.13516 0.450468,-0.39708 0.874438,-0.76853 1.27191,-1.1656 0.238483,1.43058 0.42397,2.67623 0.609457,3.76257 -2.411329,0.71569 -4.0542123,3.25903 -4.0542123,5.75033 0,1.85487 1.4573963,4.39821 3.5772463,4.39821 0.211985,0 0.450468,-0.10567 0.450468,-0.34423 0,-0.23857 -0.264982,-0.37066 -0.582959,-0.5828 -1.033427,-0.63644 -1.616385,-1.32491 -1.616385,-2.6234 0,-1.6163 1.192415,-2.91479 2.755804,-3.28544 l 1.536891,8.71716 m -2.331834,-27.23943 c 0.238483,-1.05992 1.457396,-3.84262 2.835298,-3.84262 0.397472,0 1.033427,1.29848 1.033427,3.12693 0,2.75549 -2.040355,4.8225 -3.868725,6.62453 -0.158989,-1.05992 -0.29148,-2.09343 -0.29148,-3.20619 0,-0.98067 0.0795,-1.88129 0.29148,-2.70265 m 6.094567,22.33768 c 0,1.88128 -0.768446,3.8154 -2.649812,4.58393 -0.556461,-3.17977 -1.27191,-7.39305 -1.457397,-8.55865 2.384831,0 4.107209,1.6163 4.107209,3.97472 M 8.1968718,182.37806 c 0,1.7492 1.351404,4.05397 4.9286502,4.05397 1.245411,0 2.331834,-0.31782 3.285766,-0.90061 1.430899,-1.00709 1.801872,-2.75549 1.801872,-4.42543 0,-1.03351 -0.158988,-2.22552 -0.42397,-3.73615 -0.07949,-0.52997 -0.238483,-1.32491 -0.397471,-2.35842 2.596815,-0.84778 4.531178,-3.55042 4.531178,-6.27949 0,-4.00114 -2.835299,-6.70458 -6.704024,-6.70458 -0.264981,-1.58989 -0.529962,-3.15336 -0.768445,-4.63678 2.8088,-2.94121 4.743163,-6.25387 4.743163,-10.46715 0,-2.41125 -0.741948,-4.37179 -1.165918,-5.32604 -0.635954,-1.35133 -1.4044,-2.27836 -1.881366,-2.27836 -0.185487,0 -1.006928,0.31782 -1.881366,1.35132 -1.69588,2.01338 -2.172846,5.4053 -2.172846,7.63162 0,1.43058 0.132491,2.72907 0.582959,5.6967 -0.0265,0.0264 -1.404401,1.43057 -1.960861,1.88128 -2.4113288,2.25274 -5.7500916,5.45893 -5.7500916,10.75856 0,4.95459 4.3191932,8.85005 9.2478436,8.85005 0.768445,0 1.483894,-0.0793 2.093351,-0.18573 0.503464,2.54414 0.794943,4.39901 0.794943,5.80317 0,2.75628 -1.4044,4.21328 -4.08071,4.21328 -0.635955,0 -1.192415,-0.13209 -1.245411,-0.13209 -0.0265,-0.0264 -0.07949,-0.0528 -0.07949,-0.08 0,-0.0528 0.053,-0.0793 0.132491,-0.10568 1.245411,-0.18572 2.490823,-1.24565 2.490823,-2.94121 0,-1.43058 -1.086423,-2.94121 -3.073782,-2.94121 -1.8548679,0 -3.0472832,1.51063 -3.0472832,3.25903 m 7.8964392,-77.63148 c -0.529962,0.10647 -1.033427,0.15931 -1.536891,0.15931 -3.789231,0 -7.0220012,-2.64981 -7.0220012,-6.650949 0,-3.23261 2.2788381,-6.120985 4.6106722,-8.135162 0.450468,-0.397072 0.874438,-0.768526 1.27191,-1.165597 0.238483,1.430578 0.42397,2.67623 0.609457,3.762572 -2.411329,0.71569 -4.0542123,3.259029 -4.0542123,5.750332 0,1.854864 1.4573963,4.398204 3.5772463,4.398204 0.211985,0 0.450468,-0.10567 0.450468,-0.34423 0,-0.23857 -0.264982,-0.37066 -0.582959,-0.5828 -1.033427,-0.63644 -1.616385,-1.32491 -1.616385,-2.623394 0,-1.616305 1.192415,-2.914793 2.755804,-3.285447 l 1.536891,8.717161 M 13.761477,77.507155 c 0.238483,-1.059925 1.457396,-3.842627 2.835298,-3.842627 0.397472,0 1.033427,1.298487 1.033427,3.126938 0,2.755484 -2.040355,4.822497 -3.868725,6.624529 -0.158989,-1.059925 -0.29148,-2.093431 -0.29148,-3.206192 0,-0.980671 0.0795,-1.881286 0.29148,-2.702648 m 6.094567,22.337673 c 0,1.881282 -0.768446,3.815412 -2.649812,4.583932 -0.556461,-3.17977 -1.27191,-7.393053 -1.457397,-8.55865 2.384831,0 4.107209,1.616306 4.107209,3.974718 M 8.1968718,112.88174 c 0,1.7492 1.351404,4.05397 4.9286502,4.05397 1.245411,0 2.331834,-0.31781 3.285766,-0.90061 1.430899,-1.00709 1.801872,-2.75549 1.801872,-4.42543 0,-1.0335 -0.158988,-2.22552 -0.42397,-3.73615 -0.07949,-0.52996 -0.238483,-1.32491 -0.397471,-2.35841 2.596815,-0.84778 4.531178,-3.55043 4.531178,-6.279498 0,-4.001136 -2.835299,-6.704585 -6.704024,-6.704585 -0.264981,-1.589887 -0.529962,-3.153356 -0.768445,-4.63677 2.8088,-2.941211 4.743163,-6.253876 4.743163,-10.467157 0,-2.411248 -0.741948,-4.371789 -1.165918,-5.326041 -0.635954,-1.351324 -1.4044,-2.278358 -1.881366,-2.278358 -0.185487,0 -1.006928,0.317817 -1.881366,1.351324 -1.69588,2.013376 -2.172846,5.405296 -2.172846,7.631618 0,1.430578 0.132491,2.729066 0.582959,5.696695 -0.0265,0.02642 -1.404401,1.430578 -1.960861,1.881286 -2.4113288,2.25274 -5.7500916,5.458933 -5.7500916,10.758556 0,4.95459 4.3191932,8.85005 9.2478436,8.85005 0.768445,0 1.483894,-0.0793 2.093351,-0.18573 0.503464,2.54414 0.794943,4.39901 0.794943,5.80317 0,2.75629 -1.4044,4.21328 -4.08071,4.21328 -0.635955,0 -1.192415,-0.13209 -1.245411,-0.13209 -0.0265,-0.0264 -0.07949,-0.0528 -0.07949,-0.08 0,-0.0528 0.053,-0.0793 0.132491,-0.10567 1.245411,-0.18573 2.490823,-1.24566 2.490823,-2.94122 0,-1.43057 -1.086423,-2.94121 -3.073782,-2.94121 -1.8548679,0 -3.0472832,1.51064 -3.0472832,3.25903 M 484.77865,37.523817 c 0,1.139179 0.82216,2.411248 2.96843,2.411248 2.75548,0 5.64386,-2.25274 5.64386,-4.583934 0,-1.563469 -1.32491,-2.438467 -2.96763,-2.438467 -2.57056,0 -5.64466,2.173486 -5.64466,4.611153 m -31.76092,3.309462 c 0,1.139179 0.82137,2.411249 2.96763,2.411249 2.75629,0 5.64466,-2.25274 5.64466,-4.584735 0,-1.562668 -1.3249,-2.437666 -2.96843,-2.437666 -2.56975,0 -5.64386,2.172685 -5.64386,4.611152 m -8.35211,129.064251 c 0,1.13918 0.82137,2.41124 2.96763,2.41124 2.75629,0 5.64466,-2.25193 5.64466,-4.58393 0,-1.56347 -1.3249,-2.43767 -2.96843,-2.43767 -2.56975,0 -5.64386,2.17269 -5.64386,4.61036 M 534.88811,34.214354 c 0,1.139179 0.82217,2.411248 2.96843,2.411248 2.75549,0 5.64386,-2.251939 5.64386,-4.583934 0,-1.563469 -1.3249,-2.437666 -2.96763,-2.437666 -2.57056,0 -5.64466,2.172685 -5.64466,4.610352 M 420.03758,159.96994 c 0,1.13918 0.82137,2.41125 2.96843,2.41125 2.75549,0 5.64386,-2.25274 5.64386,-4.58474 0,-1.56347 -1.3249,-2.43766 -2.96763,-2.43766 -2.57055,0 -5.64466,2.17268 -5.64466,4.61115 M 551.59153,30.904891 c 0,1.139179 0.82137,2.411249 2.96763,2.411249 2.75629,0 5.64466,-2.25194 5.64466,-4.583935 0,-1.563469 -1.3249,-2.437666 -2.96843,-2.437666 -2.56975,0 -5.64386,2.172685 -5.64386,4.610352 M 403.61916,156.66048 c 0,1.13917 0.82136,2.41124 2.96763,2.41124 2.75628,0 5.64466,-2.25274 5.64466,-4.58473 0,-1.56267 -1.32491,-2.43767 -2.96843,-2.43767 -2.56976,0 -5.64386,2.17269 -5.64386,4.61116 m -87.17,-129.065052 c 0,1.139179 0.82136,2.411249 2.96763,2.411249 2.75628,0 5.64386,-2.25194 5.64386,-4.583934 0,-1.563469 -1.32491,-2.437827 -2.96763,-2.437827 -2.56976,0 -5.64386,2.172845 -5.64386,4.610512 m 263.14072,9.928389 c 0,1.139179 0.82136,2.411248 2.96763,2.411248 2.75628,0 5.64386,-2.25274 5.64386,-4.583934 0,-1.563469 -1.32491,-2.438467 -2.96763,-2.438467 -2.56976,0 -5.64386,2.173486 -5.64386,4.611153 M 560.85147,159.96994 c 0,1.13918 0.82136,2.41125 2.96762,2.41125 2.75629,0 5.64386,-2.25274 5.64386,-4.58474 0,-1.56347 -1.3249,-2.43766 -2.96763,-2.43766 -2.56975,0 -5.64385,2.17268 -5.64385,4.61115 m -188.45206,0 c 0,1.13918 0.82136,2.41125 2.96763,2.41125 2.75549,0 5.64386,-2.25274 5.64386,-4.58474 0,-1.56347 -1.32491,-2.43766 -2.96763,-2.43766 -2.57056,0 -5.64386,2.17268 -5.64386,4.61115 M 604.64461,44.141942 c 0,1.139979 0.82136,2.412049 2.96763,2.412049 2.75628,0 5.64386,-2.25274 5.64386,-4.584735 0,-1.563469 -1.32491,-2.437667 -2.96763,-2.437667 -2.56976,0 -5.64386,2.172686 -5.64386,4.610353 m 25.05473,-6.618125 c 0,1.139179 0.82136,2.411248 2.96763,2.411248 2.75628,0 5.64386,-2.25274 5.64386,-4.583934 0,-1.563469 -1.32491,-2.438467 -2.96763,-2.438467 -2.56976,0 -5.64386,2.173486 -5.64386,4.611153 M 70.728347,34.214354 c 0,1.139179 0.822162,2.411248 2.96843,2.411248 2.755484,0 5.643859,-2.251939 5.643859,-4.583934 0,-1.563469 -1.324906,-2.437666 -2.967629,-2.437666 -2.570558,0 -5.64466,2.172685 -5.64466,4.610352 M 338.3065,169.89753 c 0,1.13918 0.82136,2.41124 2.96763,2.41124 2.75629,0 5.64466,-2.25193 5.64466,-4.58393 0,-1.56347 -1.32491,-2.43767 -2.96843,-2.43767 -2.56976,0 -5.64386,2.17269 -5.64386,4.61036 M 654.75407,30.904891 c 0,1.139179 0.82136,2.411249 2.96763,2.411249 2.75628,0 5.64386,-2.25194 5.64386,-4.583935 0,-1.563469 -1.32491,-2.437666 -2.96763,-2.437666 -2.56976,0 -5.64386,2.172685 -5.64386,4.610352 M 313.67846,176.51645 c 0,1.13918 0.82136,2.41125 2.96763,2.41125 2.75629,0 5.64466,-2.25274 5.64466,-4.58393 0,-1.56347 -1.3249,-2.43847 -2.96843,-2.43847 -2.56976,0 -5.64386,2.17349 -5.64386,4.61115 M 281.92955,30.904891 c 0,1.139179 0.82137,2.411249 2.96763,2.411249 2.75629,0 5.64466,-2.25194 5.64466,-4.583935 0,-1.563469 -1.3249,-2.437666 -2.96843,-2.437666 -2.56975,0 -5.64386,2.172685 -5.64386,4.610352 m 7.12087,152.230489 c 0,1.13918 0.82136,2.41125 2.96843,2.41125 2.75549,0 5.64386,-2.25274 5.64386,-4.58474 0,-1.56347 -1.3249,-2.43767 -2.96763,-2.43767 -2.57055,0 -5.64466,2.17269 -5.64466,4.61116 M 518.18549,37.523817 c 0,1.139179 0.82136,2.411248 2.96763,2.411248 2.75549,0 5.64386,-2.25274 5.64386,-4.583934 0,-1.563469 -1.32491,-2.438467 -2.96763,-2.438467 -2.57056,0 -5.64386,2.173486 -5.64386,4.611153 M 478.75853,166.58806 c 0,1.13998 0.82137,2.41125 2.96763,2.41125 2.75549,0 5.64386,-2.25194 5.64386,-4.58393 0,-1.56347 -1.3249,-2.43767 -2.96763,-2.43767 -2.57055,0 -5.64386,2.17269 -5.64386,4.61035 m -214.33535,9.92839 c 0,1.13918 0.82137,2.41125 2.96763,2.41125 2.75549,0 5.64386,-2.25274 5.64386,-4.58393 0,-1.56347 -1.3249,-2.43847 -2.96763,-2.43847 -2.57055,0 -5.64386,2.17349 -5.64386,4.61115 M 38.456682,90.47282 c 0,1.13998 0.821361,2.412049 2.967629,2.412049 2.756284,0 5.644659,-2.25274 5.644659,-4.584734 0,-1.563469 -1.324906,-2.437667 -2.968429,-2.437667 -2.569757,0 -5.643859,2.172685 -5.643859,4.610352 m 442.194348,0 c 0,1.13998 0.82136,2.412049 2.96763,2.412049 2.75548,0 5.64386,-2.25274 5.64386,-4.584734 0,-1.563469 -1.32491,-2.437667 -2.96763,-2.437667 -2.57056,0 -5.64386,2.172685 -5.64386,4.610352 M 98.726691,37.523817 c 0,1.139179 0.821361,2.411248 2.967629,2.411248 2.75628,0 5.64466,-2.25274 5.64466,-4.583934 0,-1.563469 -1.32491,-2.438467 -2.96763,-2.438467 -2.57056,0 -5.644659,2.173486 -5.644659,4.611153 M 236.42484,173.20699 c 0,1.13918 0.82136,2.41125 2.96763,2.41125 2.75548,0 5.64386,-2.25194 5.64386,-4.58394 0,-1.56347 -1.32491,-2.43766 -2.96763,-2.43766 -2.57056,0 -5.64386,2.17268 -5.64386,4.61035 M 74.526944,87.164158 c 0,1.139179 0.821362,2.411249 2.96763,2.411249 2.756284,0 5.644659,-2.252741 5.644659,-4.584735 0,-1.562669 -1.324906,-2.437667 -2.967629,-2.437667 -2.570558,0 -5.64466,2.172686 -5.64466,4.611153 M 341.50389,30.904891 c 0,1.139179 0.82136,2.411249 2.96763,2.411249 2.75628,0 5.64386,-2.25194 5.64386,-4.583935 0,-1.563469 -1.32491,-2.437666 -2.96763,-2.437666 -2.56976,0 -5.64386,2.172685 -5.64386,4.610352 M 220.00641,169.89753 c 0,1.13918 0.82137,2.41124 2.96763,2.41124 2.75549,0 5.64386,-2.25193 5.64386,-4.58393 0,-1.56347 -1.3249,-2.43767 -2.96763,-2.43767 -2.57055,0 -5.64386,2.17269 -5.64386,4.61036 M 93.496715,90.47282 c 0,1.13998 0.821361,2.412049 2.967629,2.412049 2.755484,0 5.643856,-2.25274 5.643856,-4.584734 0,-1.563469 -1.3249,-2.437667 -2.967626,-2.437667 -2.570558,0 -5.643859,2.172685 -5.643859,4.610352 m 483.773175,66.18766 c 0,1.13917 0.82136,2.41124 2.96763,2.41124 2.75628,0 5.64466,-2.25274 5.64466,-4.58473 0,-1.56267 -1.32491,-2.43767 -2.96843,-2.43767 -2.56976,0 -5.64386,2.17269 -5.64386,4.61116 m -402.10694,24.33103 c -0.87419,0 -1.05992,-0.71569 -1.05992,-0.95425 0,-1.29769 4.45184,-3.57685 5.69749,-3.57685 0.63564,0 1.05993,0.37066 1.05993,0.95426 0,1.3249 -4.47826,3.57684 -5.6975,3.57684 m 3.6569,-5.77675 c -2.57055,0 -5.64385,2.14627 -5.64385,4.61115 0,1.13918 0.82136,2.41125 2.96762,2.41125 2.75549,0 5.64386,-2.25274 5.64386,-4.58473 0,-1.56267 -1.3249,-2.43767 -2.96763,-2.43767 m -56.86928,-74.81355 c 0,1.13918 0.82136,2.41125 2.96763,2.41125 2.75548,0 5.64386,-2.25194 5.64386,-4.583937 0,-1.563469 -1.32491,-2.437667 -2.96763,-2.437667 -2.57056,0 -5.64386,2.172686 -5.64386,4.610354 M 256.87482,20.976903 c 0,1.139419 0.82137,2.411649 2.96763,2.411649 2.75629,0 5.64466,-2.25266 5.64466,-4.584495 0,-1.563389 -1.3249,-2.437827 -2.96843,-2.437827 -2.56975,0 -5.64386,2.172846 -5.64386,4.610673 M 159.8693,97.091746 c 0,1.139979 0.82136,2.411248 2.96763,2.411248 2.75548,0 5.64385,-2.251939 5.64385,-4.583934 0,-1.563469 -1.3249,-2.437667 -2.96762,-2.437667 -2.57056,0 -5.64386,2.172686 -5.64386,4.610353 m -14.69165,79.424704 c 0,1.13918 0.82136,2.41125 2.96763,2.41125 2.75629,0 5.64466,-2.25274 5.64466,-4.58393 0,-1.56347 -1.32491,-2.43847 -2.96843,-2.43847 -2.56976,0 -5.64386,2.17349 -5.64386,4.61115 M 425.01939,37.523817 c 0,1.139179 0.82136,2.411248 2.96843,2.411248 2.75548,0 5.64386,-2.25274 5.64386,-4.583934 0,-1.563469 -1.32491,-2.438467 -2.96763,-2.438467 -2.57056,0 -5.64466,2.173486 -5.64466,4.611153 M 128.75923,173.20699 c 0,1.13918 0.82136,2.41125 2.96762,2.41125 2.75549,0 5.64386,-2.25194 5.64386,-4.58394 0,-1.56347 -1.3249,-2.43766 -2.96763,-2.43766 -2.57055,0 -5.64385,2.17268 -5.64385,4.61035 m 50.07904,-79.424707 c 0,1.139979 0.82136,2.411249 2.96763,2.411249 2.75628,0 5.64466,-2.25194 5.64466,-4.583935 0,-1.563469 -1.32491,-2.437666 -2.96763,-2.437666 -2.57056,0 -5.64466,2.172685 -5.64466,4.610352 M 112.3408,169.89753 c 0,1.13918 0.82136,2.41124 2.96763,2.41124 2.75548,0 5.64386,-2.25193 5.64386,-4.58393 0,-1.56347 -1.32491,-2.43767 -2.96763,-2.43767 -2.57056,0 -5.64386,2.17269 -5.64386,4.61036 m 85.46724,-79.42471 c 0,1.13998 0.82136,2.412049 2.96763,2.412049 2.75548,0 5.64386,-2.25274 5.64386,-4.584734 0,-1.563469 -1.32491,-2.437667 -2.96763,-2.437667 -2.57056,0 -5.64386,2.172685 -5.64386,4.610352 m 395.88028,62.87819 c 0,1.13918 0.82136,2.41125 2.96843,2.41125 2.75548,0 5.64386,-2.25274 5.64386,-4.58393 0,-1.56347 -1.32491,-2.43847 -2.96763,-2.43847 -2.57056,0 -5.64466,2.17349 -5.64466,4.61115 m -497.766747,6.61893 c 0,1.13918 0.822162,2.41125 2.96843,2.41125 2.755487,0 5.643857,-2.25274 5.643857,-4.58474 0,-1.56347 -1.3249,-2.43766 -2.96763,-2.43766 -2.570555,0 -5.644657,2.17268 -5.644657,4.61115 M 216.77701,97.091746 c 0,1.139979 0.82136,2.411248 2.96763,2.411248 2.75628,0 5.64466,-2.251939 5.64466,-4.583934 0,-1.563469 -1.32491,-2.437667 -2.96843,-2.437667 -2.56976,0 -5.64386,2.172686 -5.64386,4.610353 M 79.503147,176.51645 c 0,1.13918 0.821361,2.41125 2.967629,2.41125 2.756285,0 5.644659,-2.25274 5.644659,-4.58393 0,-1.56347 -1.324905,-2.43847 -2.967629,-2.43847 -2.570557,0 -5.644659,2.17349 -5.644659,4.61115 M 235.74678,93.782283 c 0,1.139979 0.82136,2.411249 2.96763,2.411249 2.75548,0 5.64386,-2.25194 5.64386,-4.583935 0,-1.563469 -1.32491,-2.437666 -2.96763,-2.437666 -2.57056,0 -5.64386,2.172685 -5.64386,4.610352 M 408.31677,34.214354 c 0,1.139179 0.82136,2.411248 2.96763,2.411248 2.75548,0 5.64386,-2.251939 5.64386,-4.583934 0,-1.563469 -1.32491,-2.437666 -2.96763,-2.437666 -2.57056,0 -5.64386,2.172685 -5.64386,4.610352 M 63.084721,169.89753 c 0,1.13918 0.821362,2.41124 2.967629,2.41124 2.756285,0 5.64466,-2.25193 5.64466,-4.58393 0,-1.56347 -1.324906,-2.43767 -2.96843,-2.43767 -2.569757,0 -5.643859,2.17269 -5.643859,4.61036 M 544.43304,163.2786 c 0,1.13998 0.82136,2.41125 2.96763,2.41125 2.75548,0 5.64386,-2.25194 5.64386,-4.58394 0,-1.56346 -1.32491,-2.43766 -2.96763,-2.43766 -2.57056,0 -5.64386,2.17268 -5.64386,4.61035 m -505.976358,3.30946 c 0,1.13998 0.821361,2.41125 2.967629,2.41125 2.756284,0 5.644659,-2.25194 5.644659,-4.58393 0,-1.56347 -1.324906,-2.43767 -2.968429,-2.43767 -2.569757,0 -5.643859,2.17269 -5.643859,4.61035 M 254.71575,90.47282 c 0,1.13998 0.82136,2.412049 2.96763,2.412049 2.75628,0 5.64466,-2.25274 5.64466,-4.584734 0,-1.563469 -1.32491,-2.437667 -2.96843,-2.437667 -2.56976,0 -5.64386,2.172685 -5.64386,4.610352 m 273.29806,76.11524 c 0,1.13998 0.82216,2.41125 2.96843,2.41125 2.75549,0 5.64386,-2.25194 5.64386,-4.58393 0,-1.56347 -1.3249,-2.43767 -2.96763,-2.43767 -2.57056,0 -5.64466,2.17269 -5.64466,4.61035 m -32.83685,-3.30946 c 0,1.13998 0.82136,2.41125 2.96763,2.41125 2.75628,0 5.64466,-2.25194 5.64466,-4.58394 0,-1.56346 -1.32491,-2.43766 -2.96843,-2.43766 -2.56976,0 -5.64386,2.17268 -5.64386,4.61035 M 123.78142,44.141942 c 0,1.139979 0.82136,2.412049 2.96763,2.412049 2.75629,0 5.64466,-2.25274 5.64466,-4.584735 0,-1.563469 -1.32491,-2.437667 -2.96763,-2.437667 -2.57056,0 -5.64466,2.172686 -5.64466,4.610353 m 149.9033,43.022216 c 0,1.139179 0.82216,2.411249 2.96843,2.411249 2.75548,0 5.64386,-2.252741 5.64386,-4.584735 0,-1.562669 -1.32491,-2.437667 -2.96763,-2.437667 -2.57056,0 -5.64466,2.172686 -5.64466,4.611153 m 18.96977,-3.309463 c 0,1.139179 0.82136,2.411249 2.96763,2.411249 2.75628,0 5.64386,-2.252741 5.64386,-4.583935 0,-1.563469 -1.32491,-2.438467 -2.96763,-2.438467 -2.56976,0 -5.64386,2.173486 -5.64386,4.611153 M 240.1714,17.66752 c 0,1.139419 0.82216,2.411329 2.96843,2.411329 2.75549,0 5.64386,-2.25234 5.64386,-4.584175 0,-1.563389 -1.3249,-2.437826 -2.96763,-2.437826 -2.57056,0 -5.64466,2.172845 -5.64466,4.610672 m 82.90469,73.971698 c -0.875,0 -1.05993,-0.71569 -1.05993,-0.954253 0,-1.298488 4.45105,-3.576845 5.6967,-3.576845 0.63643,0 1.05992,0.370653 1.05992,0.953451 0,1.324906 -4.47826,3.577647 -5.69669,3.577647 m 3.6561,-5.77675 c -2.56976,0 -5.64386,2.146267 -5.64386,4.610352 0,1.13998 0.82136,2.412049 2.96763,2.412049 2.75628,0 5.64466,-2.25274 5.64466,-4.584734 0,-1.563469 -1.32491,-2.437667 -2.96843,-2.437667 m 64.88116,-54.957577 c 0,1.139179 0.82136,2.411249 2.96763,2.411249 2.75628,0 5.64386,-2.25194 5.64386,-4.583935 0,-1.563469 -1.32491,-2.437666 -2.96763,-2.437666 -2.56976,0 -5.64386,2.172685 -5.64386,4.610352 m 247.50203,70.661919 c -0.875,0 -1.05993,-0.71489 -1.05993,-0.95346 0,-1.298484 4.45105,-3.577643 5.6967,-3.577643 0.63643,0 1.05992,0.371454 1.05992,0.954253 0,1.324906 -4.47826,3.57685 -5.69669,3.57685 m 3.6561,-5.775954 c -2.56976,0 -5.64386,2.146268 -5.64386,4.610354 0,1.13918 0.82136,2.41125 2.96763,2.41125 2.75628,0 5.64466,-2.25194 5.64466,-4.583937 0,-1.563469 -1.32491,-2.437667 -2.96843,-2.437667 m -19.09706,65.344684 c -0.875,0 -1.05992,-0.71569 -1.05992,-0.95426 0,-1.29849 4.45104,-3.57684 5.69669,-3.57684 0.63644,0 1.05993,0.37065 1.05993,0.95345 0,1.3249 -4.47827,3.57765 -5.6967,3.57765 m 3.6561,-5.77675 c -2.56976,0 -5.64386,2.14626 -5.64386,4.61115 0,1.13918 0.82136,2.41125 2.96763,2.41125 2.75628,0 5.64466,-2.25274 5.64466,-4.58474 0,-1.56347 -1.32491,-2.43766 -2.96843,-2.43766 M 596.43419,91.639218 c -0.87419,0 -1.05992,-0.71569 -1.05992,-0.954253 0,-1.298488 4.45184,-3.576845 5.6967,-3.576845 0.63643,0 1.05992,0.370653 1.05992,0.953451 0,1.324906 -4.47746,3.577647 -5.6967,3.577647 m 3.65691,-5.77675 c -2.57056,0 -5.64466,2.146267 -5.64466,4.610352 0,1.13998 0.82216,2.412049 2.96843,2.412049 2.75548,0 5.64385,-2.25274 5.64385,-4.584734 0,-1.563469 -1.3249,-2.437667 -2.96762,-2.437667 M 208.41049,20.976903 c 0,1.139419 0.82136,2.411649 2.96763,2.411649 2.75628,0 5.64465,-2.25266 5.64465,-4.584495 0,-1.563389 -1.3249,-2.437827 -2.96842,-2.437827 -2.56976,0 -5.64386,2.172846 -5.64386,4.610673 m -59.57434,16.546914 c 0,1.139179 0.82136,2.411248 2.96763,2.411248 2.75629,0 5.64466,-2.25274 5.64466,-4.583934 0,-1.563469 -1.3249,-2.438467 -2.96763,-2.438467 -2.57056,0 -5.64466,2.173486 -5.64466,4.611153 m 255.95741,46.330878 c 0,1.139179 0.82136,2.411249 2.96763,2.411249 2.75548,0 5.64386,-2.252741 5.64386,-4.583935 0,-1.563469 -1.32491,-2.438467 -2.96763,-2.438467 -2.57056,0 -5.64386,2.173486 -5.64386,4.611153 m 161.21903,16.546515 c 0,1.13918 0.82137,2.41125 2.96763,2.41125 2.75629,0 5.64466,-2.25194 5.64466,-4.583937 0,-1.563469 -1.3249,-2.437667 -2.96843,-2.437667 -2.56975,0 -5.64386,2.172686 -5.64386,4.610354 M 374.90993,20.976903 c 0,1.139419 0.82136,2.411649 2.96843,2.411649 2.75548,0 5.64386,-2.25266 5.64386,-4.584495 0,-1.563389 -1.32491,-2.437827 -2.96763,-2.437827 -2.57056,0 -5.64466,2.172846 -5.64466,4.610673 m 126.57214,19.856376 c 0,1.139179 0.82136,2.411249 2.96763,2.411249 2.75629,0 5.64466,-2.25274 5.64466,-4.584735 0,-1.562668 -1.32491,-2.437666 -2.96843,-2.437666 -2.56976,0 -5.64386,2.172685 -5.64386,4.611152 m 45.56155,56.258467 c 0,1.139979 0.82137,2.411248 2.96763,2.411248 2.75549,0 5.64386,-2.251939 5.64386,-4.583934 0,-1.563469 -1.3249,-2.437667 -2.96763,-2.437667 -2.57055,0 -5.64386,2.172686 -5.64386,4.610353 M 423.76253,80.545232 c 0,1.139179 0.82136,2.411249 2.96763,2.411249 2.75629,0 5.64466,-2.25194 5.64466,-4.583934 0,-1.563469 -1.32491,-2.437667 -2.96763,-2.437667 -2.57056,0 -5.64466,2.172685 -5.64466,4.610352 m 94.82724,13.237051 c 0,1.139979 0.82136,2.411249 2.96763,2.411249 2.75548,0 5.64386,-2.25194 5.64386,-4.583935 0,-1.563469 -1.32491,-2.437666 -2.96763,-2.437666 -2.57056,0 -5.64386,2.172685 -5.64386,4.610352 M 358.20731,37.523817 c 0,1.139179 0.82136,2.411248 2.96763,2.411248 2.75548,0 5.64386,-2.25274 5.64386,-4.583934 0,-1.563469 -1.32491,-2.438467 -2.96763,-2.438467 -2.57056,0 -5.64386,2.173486 -5.64386,4.611153 M 173.89088,30.904891 c 0,1.139179 0.82137,2.411249 2.96763,2.411249 2.75629,0 5.64466,-2.25194 5.64466,-4.583935 0,-1.563469 -1.3249,-2.437666 -2.96763,-2.437666 -2.57055,0 -5.64466,2.172685 -5.64466,4.610352 m 278.30629,56.259267 c 0,1.139179 0.82137,2.411249 2.96763,2.411249 2.75549,0 5.64386,-2.252741 5.64386,-4.584735 0,-1.562669 -1.3249,-2.437667 -2.96763,-2.437667 -2.57055,0 -5.64386,2.172686 -5.64386,4.611153 m 59.39822,72.805782 c 0,1.13918 0.82136,2.41125 2.96763,2.41125 2.75628,0 5.64466,-2.25274 5.64466,-4.58474 0,-1.56347 -1.32491,-2.43766 -2.96763,-2.43766 -2.57056,0 -5.64466,2.17268 -5.64466,4.61115 M 54.025727,30.904891 c 0,1.139179 0.821361,2.411249 2.967629,2.411249 2.755484,0 5.643859,-2.25194 5.643859,-4.583935 0,-1.563469 -1.324906,-2.437666 -2.967629,-2.437666 -2.570558,0 -5.643859,2.172685 -5.643859,4.610352 M 499.62,87.164158 c 0,1.139179 0.82136,2.411249 2.96763,2.411249 2.75628,0 5.64466,-2.252741 5.64466,-4.584735 0,-1.562669 -1.32491,-2.437667 -2.96843,-2.437667 -2.56976,0 -5.64386,2.172686 -5.64386,4.611153 m -6.89832,-67.903789 c 0,0.07949 0.0264,0.211985 0.21135,0.291479 1.13998,0.370974 3.41833,1.801872 5.14111,4.742923 0.47713,0.821362 1.24565,1.961341 1.24565,4.160445 0,1.907704 -0.50354,3.869045 -1.19281,5.77675 -0.0528,0.158508 -0.10567,0.291399 -0.0793,0.397071 0,0.159309 0.10568,0.264982 0.26498,0.264982 0.18493,0 0.31782,-0.105673 0.42349,-0.2914 1.19282,-2.119849 1.64353,-4.583934 1.64353,-6.995183 -0.13289,-3.418337 -2.09343,-5.935738 -2.09343,-5.935738 0.0793,0 -2.43847,-3.259269 -3.15336,-4.37219 -0.98067,-1.510392 -1.43138,-3.020785 -1.48421,-3.126777 -0.0264,-0.0795 -0.26499,-1.033427 -0.26499,-1.033427 -0.0264,-0.105993 -0.1585,-0.211985 -0.31781,-0.211985 -0.18573,0 -0.34424,0.158989 -0.34424,0.344475 v 5.988575 M 403.61916,178.68594 c 0,0.18572 0.15931,0.34503 0.34423,0.34503 0.1329,0 0.2922,-0.10647 0.31862,-0.21214 0,-0.0264 0.23857,-0.95426 0.26498,-1.03351 0.0264,-0.10567 0.26498,-1.11276 1.21844,-2.67623 1.0335,-1.72278 2.62339,-2.96763 3.9483,-4.8225 1.29848,-1.85487 2.09343,-3.60406 2.09343,-5.93606 0,-2.41125 -0.55638,-4.42462 -1.96054,-6.99518 -0.0801,-0.18573 -0.23857,-0.2914 -0.39788,-0.2914 -0.0528,0 -0.10567,0 -0.13209,0.0264 -0.13289,0.0528 -0.18572,0.15851 -0.18572,0.31782 0,0.0793 0.0264,0.21214 0.0793,0.31781 1.05993,2.46489 1.48422,3.86905 1.48422,5.77675 0,2.19911 -0.76853,3.33909 -1.24566,4.16045 -1.72197,2.94121 -4.50468,4.37179 -5.61744,4.74324 -0.18572,0.0793 -0.21214,0.21135 -0.21214,0.2914 v 5.9881 M 74.526944,109.18962 c 0,0.18572 0.159309,0.34503 0.345036,0.34503 0.132091,0 0.2914,-0.10647 0.317818,-0.21214 0,-0.0264 0.238563,-0.95425 0.264981,-1.03351 0.02642,-0.10567 0.264981,-1.11276 1.218433,-2.67623 1.033507,-1.72278 2.623394,-2.96763 3.9483,-4.8225 1.298487,-1.854864 2.093431,-3.60406 2.093431,-5.936054 0,-2.411249 -0.55638,-4.424625 -1.960541,-6.995183 -0.08005,-0.185727 -0.238563,-0.291399 -0.397872,-0.291399 -0.05284,0 -0.105672,0 -0.13209,0.02642 -0.132891,0.05284 -0.185727,0.158508 -0.185727,0.317817 0,0.07925 0.02642,0.212145 0.07925,0.317817 1.059925,2.464886 1.484215,3.869046 1.484215,5.77675 0,2.199104 -0.768525,3.339083 -1.245652,4.160445 -1.721977,2.941207 -4.50468,4.371787 -5.61744,4.743237 -0.185727,0.0793 -0.212146,0.21135 -0.212146,0.2914 v 5.9881 M 240.1714,39.6933 c 0,0.185727 0.15931,0.345036 0.34504,0.345036 0.13209,0 0.2914,-0.106473 0.31782,-0.212145 0,-0.02642 0.23856,-0.954253 0.26498,-1.033507 0.0264,-0.105672 0.26498,-1.112761 1.21923,-2.67623 1.03271,-1.722778 2.62259,-2.967629 3.9475,-4.822497 1.29849,-1.854868 2.09343,-3.604064 2.09343,-5.936059 0,-2.411168 -0.55638,-4.425025 -1.96054,-6.995343 -0.0793,-0.185487 -0.23856,-0.291479 -0.39787,-0.291479 -0.0528,0 -0.10567,0 -0.13209,0.0265 -0.13289,0.053 -0.18573,0.158989 -0.18573,0.317977 0,0.07949 0.0264,0.211985 0.0801,0.317978 1.05992,2.464325 1.48341,3.868725 1.48341,5.77659 0,2.199103 -0.76853,3.339083 -1.24565,4.160444 -1.72198,2.941211 -4.50468,4.371789 -5.61744,4.743243 -0.18493,0.07925 -0.21215,0.211345 -0.21215,0.2914 V 39.6933 m 304.26117,123.58455 v 17.05635 h 0.66216 V 163.27785 Z M 423.76287,80.544408 v 18.772051 h 0.66217 V 80.544408 Z m 150.19238,-1.139996 v 18.824896 h 0.66201 V 79.404412 Z M 181.83355,6.626522 v 22.106524 h 0.66201 V 6.626522 Z m 222.95963,77.227332 v 17.061356 h 0.66202 V 83.853854 Z m 189.65358,6.618126 v 20.39879 h 0.66217 V 90.47198 Z m 50.62352,-14.349035 v 22.106363 h 0.66201 V 76.122945 Z M 208.41016,20.975864 v 20.398634 h 0.66201 V 20.975864 Z m -51.6314,-7.730598 v 22.106682 h 0.66201 V 13.245266 Z M 366.1491,11.558957 v 23.792991 h 0.66202 V 11.558957 Z m -125.97723,6.107614 v 22.026777 h 0.66202 V 17.666571 Z m 278.41755,76.114855 v 18.744064 h 0.66202 V 93.781426 Z M 382.85255,1.6948685 V 18.805005 h 0.66202 V 1.6948685 Z M 399.556,3.3280171 V 28.733046 h 0.66202 V 3.3280171 Z M 292.65416,83.853854 v 22.081506 h 0.66202 V 83.853854 Z M 621.6871,159.9684 v 20.39864 h 0.66202 V 159.9684 Z M 273.6851,87.162525 v 20.408325 h 0.66201 V 87.162525 Z M 46.399384,143.96464 v 20.45149 h 0.662013 V 143.96464 Z M 254.71541,90.47198 v 18.73531 h 0.66201 V 90.47198 Z M 71.027312,148.96087 v 18.76471 h 0.66202 v -18.76471 z m 16.418418,1.59062 v 23.79315 h 0.662172 V 150.55149 Z M 235.74635,93.781426 v 17.061354 h 0.66201 V 93.781426 Z M 103.86414,140.68803 v 17.1092 h 0.66217 v -17.1092 z m 112.9133,-43.597157 v 17.089337 h 0.66201 V 97.090873 Z m -96.49488,45.230147 v 25.40456 h 0.66216 V 142.32102 Z M 197.8076,90.47198 v 23.70823 h 0.66216 V 90.47198 Z m -61.1057,53.48141 v 27.08164 h 0.66202 v -27.08164 z m 42.13678,-50.171964 v 20.398784 h 0.66202 V 93.781426 Z m -25.71836,51.805114 v 28.7581 h 0.66201 v -28.7581 z M 416.25867,4.9610081 V 32.042493 h 0.66202 V 4.9610081 Z M 159.86884,97.090873 v 17.089337 h 0.66217 V 97.090873 Z m 97.00554,-76.115009 v 20.398634 h 0.66202 V 20.975864 Z M 131.72412,19.864011 v 22.106054 h 0.66203 V 19.864011 Z m 49.39456,135.682929 v 22.10715 h 0.66201 V 155.54694 Z M 129.89241,76.122945 v 22.106363 h 0.66201 V 76.122945 Z m 98.0558,72.837925 v 18.76471 h 0.66216 V 148.96087 Z M 93.496275,90.47198 v 20.39879 h 0.662164 V 90.47198 Z m 150.870345,60.07951 v 20.48354 h 0.66217 V 150.55149 Z M 74.527361,87.162525 v 22.027095 h 0.66202 V 87.162525 Z M 321.08876,90.47198 v 20.39879 h 0.66201 V 90.47198 Z M 106.66934,13.245266 v 22.106682 h 0.66202 V 13.245266 Z M 272.36497,152.23827 v 22.10637 H 273.027 V 152.23827 Z M 38.457074,90.47198 v 20.39879 h 0.662021 V 90.47198 Z m 258.535996,68.38441 v 22.10637 h 0.66201 V 158.85639 Z M 61.967525,9.9673999 V 28.733046 h 0.662013 V 9.9673999 Z M 289.87226,6.626522 v 22.106524 h 0.66202 V 6.626522 Z M 432.96197,6.5941559 V 35.351948 h 0.66218 V 6.5941559 Z M 593.68874,153.35028 v 22.08619 h 0.66201 v -22.08619 z m -16.41841,3.30867 v 20.4099 h 0.66201 v -20.4099 z M 349.44659,9.9673999 V 28.733046 h 0.66201 V 9.9673999 Z m 111.51374,6.5871611 v 22.106833 h 0.66202 V 16.554561 Z M 321.62116,152.23827 v 22.10637 h 0.66201 v -22.10637 z m 24.62793,-6.6189 v 22.10621 h 0.66217 V 145.61937 Z M 662.69671,6.626522 v 22.106524 h 0.66201 V 6.626522 Z M 78.670978,11.558957 v 20.483536 h 0.662013 V 11.558957 Z m 558.970942,1.686309 v 22.106682 h 0.66217 V 13.245266 Z M 372.399,159.9684 v 20.39864 h 0.66202 V 159.9684 Z m 188.45214,0 v 18.73359 h 0.66201 V 159.9684 Z M 612.58729,19.864011 v 22.106054 h 0.66202 V 19.864011 Z M 452.19685,87.162525 v 22.053515 h 0.66201 V 87.162525 Z M 587.5325,13.245266 v 22.106682 h 0.66202 V 13.245266 Z M 324.3918,4.9719531 V 25.423591 h 0.66202 V 4.9719531 Z M 403.61957,156.65895 v 22.02694 h 0.66201 v -22.02694 z m 16.41841,3.30945 v 20.39864 H 420.7 V 159.9684 Z M 559.53414,9.946761 v 18.786285 h 0.66201 V 9.946761 Z M 452.60821,145.61937 v 22.10621 h 0.66203 V 145.61937 Z M 542.83069,10.49104 v 21.551453 h 0.66217 V 10.49104 Z M 478.75813,166.5873 v 17.08918 h 0.66202 V 166.5873 Z M 526.12739,11.035474 v 24.316474 h 0.66202 V 11.035474 Z M 495.17654,163.27785 v 20.39863 h 0.66202 v -20.39863 z m 16.4192,-3.30945 v 23.70808 h 0.66217 V 159.9684 Z M 509.42472,11.579909 v 27.081485 h 0.66202 V 11.579909 Z M 528.01415,166.5873 v 17.08918 h 0.66217 V 166.5873 Z M 492.72127,13.298271 v 22.053677 h 0.66202 V 13.298271 Z m 6.89909,73.864254 v 18.772055 h 0.66202 V 87.162525 Z m 55.36505,-9.35671 v 17.114046 h 0.66217 V 77.805815 Z M 480.65067,90.47198 v 17.06213 h 0.66202 V 90.47198 Z m -193.78421,91.0202 v 1.05916 h 12.97371 v -1.05916 z M 121.59751,42.499643 v 1.059164 h 12.97372 v -1.059164 z m 480.86317,0 v 1.059164 h 12.97371 V 42.499643 Z M 345.85201,37.773952 a 0.16531304,0.16531304 0 0 0 -0.05,0.0058 0.16531304,0.16531304 0 0 0 -0.0514,-0.0023 0.16531304,0.16531304 0 0 0 -0.0103,0.0095 0.16531304,0.16531304 0 0 0 -0.0139,0.0016 0.16531304,0.16531304 0 0 0 -0.0316,0.03987 0.16531304,0.16531304 0 0 0 -0.0381,0.04832 0.16531304,0.16531304 0 0 0 -0.003,0.0616 0.16531304,0.16531304 0 0 0 -0.002,0.05082 c 2.61372,7.220377 11.1144,9.476626 16.96504,4.504799 a 0.16532957,0.16532957 0 0 0 -0.19247,-0.267527 c -2.61428,1.578234 -5.98894,1.827867 -9.08403,1.006157 -3.09508,-0.821711 -5.90163,-2.712341 -7.38864,-5.380085 a 0.16531304,0.16531304 0 0 0 -0.0399,-0.03158 0.16531304,0.16531304 0 0 0 -0.0486,-0.03831 0.16531304,0.16531304 0 0 0 -0.0108,-0.0086 z m 0.88811,1.771212 c 1.62879,1.944851 3.97361,3.332268 6.51492,4.006958 2.54146,0.674728 5.26578,0.633135 7.64476,-0.247513 -5.03215,3.042107 -11.29917,1.378624 -14.15968,-3.759445 z m -0.93329,-1.612268 c 3.02767,5.431714 11.37978,7.64843 16.70262,4.435033 -5.77195,4.904953 -14.12406,2.688238 -16.70262,-4.435033 m 33.40236,-12.277542 a 0.16531304,0.16531304 0 0 0 -0.0184,0.0081 0.16531304,0.16531304 0 0 0 -0.008,-0.0055 0.16531304,0.16531304 0 0 0 -0.0428,0.02783 0.16531304,0.16531304 0 0 0 -0.0516,0.03346 0.16531304,0.16531304 0 0 0 -0.0224,0.0577 0.16531304,0.16531304 0 0 0 -0.0183,0.04737 c 0.19533,8.627186 8.65557,14.76242 16.9164,12.266825 a 0.16532957,0.16532957 0 0 0 -0.0696,-0.322094 c -3.47186,0.462651 -7.28702,-0.799649 -10.3907,-3.050211 -3.10369,-2.250562 -5.48921,-5.484569 -6.12841,-8.928448 a 0.16531304,0.16531304 0 0 0 -0.0127,-0.0088 0.16531304,0.16531304 0 0 0 -0.15354,-0.126336 z m 0.34383,1.976821 c 1.02428,2.857017 3.1337,5.452473 5.7566,7.354403 2.6229,1.901936 5.74548,3.100231 8.77928,3.185929 -6.85582,1.046881 -13.40017,-3.698749 -14.53588,-10.540332 z m -0.34015,-1.81156 c 1.29849,6.995983 9.6506,13.052124 16.70342,12.112281 -8.15918,2.464886 -16.51049,-3.591255 -16.70342,-12.112281 m 33.44153,13.076449 a 0.16531304,0.16531304 0 0 0 -0.0866,0.01548 0.16531304,0.16531304 0 0 0 -0.0144,-0.0058 0.16531304,0.16531304 0 0 0 -0.01,0.01001 0.16531304,0.16531304 0 0 0 -0.0139,0.0025 0.16531304,0.16531304 0 0 0 -0.0292,0.04175 0.16531304,0.16531304 0 0 0 -0.0352,0.0505 0.16531304,0.16531304 0 0 0 9.6e-4,0.06161 0.16531304,0.16531304 0 0 0 8e-4,0.05097 c 3.01648,6.981639 11.52023,8.6665 16.97051,3.362299 a 0.16532957,0.16532957 0 0 0 -0.20999,-0.253924 c -2.47422,1.731245 -5.77757,2.196352 -8.87185,1.583271 -3.09427,-0.613082 -5.97046,-2.30249 -7.59754,-4.846283 a 0.16531304,0.16531304 0 0 0 -0.10382,-0.07239 z m 0.99287,1.711014 c 1.72163,1.812492 4.10862,3.029555 6.64423,3.531946 2.53581,0.50243 5.20695,0.287407 7.48981,-0.731906 -4.75631,3.324565 -11.00422,2.086716 -14.13404,-2.80004 z m -1.02836,-1.549612 c 3.31347,5.180342 11.66478,6.835073 16.70342,3.309463 -5.37647,5.232377 -13.72778,3.577646 -16.70342,-3.309463 m 109.94627,3.163685 a 0.16532957,0.16532957 0 0 0 -0.21686,0.05676 c -1.62667,2.543777 -4.50296,4.233301 -7.59723,4.846282 -3.09428,0.612982 -6.39742,0.147576 -8.87123,-1.584052 a 0.16531304,0.16531304 0 0 0 -0.0155,0.0027 0.16531304,0.16531304 0 0 0 -0.19779,0.01751 0.16531304,0.16531304 0 0 0 -0.008,0.01876 0.16531304,0.16531304 0 0 0 -0.01,0.0017 0.16531304,0.16531304 0 0 0 0.003,0.01548 0.16531304,0.16531304 0 0 0 0.0175,0.197791 c 5.45027,5.305007 13.95406,3.620136 16.96973,-3.361517 a 0.16532957,0.16532957 0 0 0 -0.0743,-0.211394 z m -1.10591,1.69569 c -3.12918,4.886312 -9.37649,6.124068 -14.13263,2.79957 2.28249,1.019295 4.95317,1.234358 7.48871,0.732063 2.53548,-0.502284 4.92251,-1.719297 6.64392,-3.531633 z m -15.67426,1.75875 c 5.03785,3.526411 13.38996,1.87168 16.70262,-3.308662 -2.97483,6.887109 -11.32614,8.54184 -16.70262,3.308662 m 50.20443,-7.878716 a 0.16532957,0.16532957 0 0 0 -0.22219,0.0294 c -1.90496,2.292867 -4.92044,3.586802 -8.01376,3.79525 -3.09331,0.208449 -6.25522,-0.669164 -8.45061,-2.685742 a 0.16531304,0.16531304 0 0 0 -0.10727,0.0045 0.16531304,0.16531304 0 0 0 -0.10678,-0.01282 0.16531304,0.16531304 0 0 0 -0.002,0.01736 0.16531304,0.16531304 0 0 0 -0.0175,8.01e-4 0.16531304,0.16531304 0 0 0 0.005,0.10726 0.16531304,0.16531304 0 0 0 -0.0127,0.106792 c 2.32571,2.956335 5.61614,4.299641 8.80165,4.084981 3.1855,-0.214661 6.26606,-1.98727 8.17418,-5.228887 a 0.16532957,0.16532957 0 0 0 -0.0475,-0.218901 z m -1.30839,1.543556 c -1.83034,2.190873 -4.29569,3.402835 -6.84046,3.574319 -2.54464,0.171474 -5.15017,-0.698679 -7.25778,-2.623982 2.09518,1.283572 4.66499,1.831013 7.19289,1.660666 2.52805,-0.170356 5.00129,-1.057769 6.90535,-2.611003 z m -15.48999,-0.282965 c 4.47185,4.107608 12.82316,3.544824 16.70342,-1.12557 -3.76418,6.394773 -12.11549,6.957558 -16.70342,1.12557 M 288.52891,72.304751 c -4.06538,-0.224015 -8.19797,1.648423 -10.68043,5.515802 a 0.16531304,0.16531304 0 0 0 0.003,0.01532 0.16531304,0.16531304 0 0 0 0.0255,0.19701 0.16531304,0.16531304 0 0 0 0.0173,-9.37e-4 0.16531304,0.16531304 0 0 0 0.004,0.01704 0.16531304,0.16531304 0 0 0 0.19685,-0.02799 0.16531304,0.16531304 0 0 0 0.0155,-8.01e-4 c 2.19551,-2.444314 5.64252,-3.816146 9.16298,-4.02494 3.52047,-0.208793 7.10555,0.746067 9.57468,2.914024 a 0.16532957,0.16532957 0 0 0 0.23672,-0.229375 c -2.27282,-2.758538 -5.3942,-4.200945 -8.55617,-4.375179 z m -0.0194,0.321625 c 2.53076,0.140252 5.03265,1.123799 7.07468,2.966717 -2.3915,-1.467414 -5.38072,-2.102803 -8.33007,-1.927881 -2.94964,0.174938 -5.84307,1.159373 -8.0444,2.899326 2.43766,-2.790315 5.89096,-4.127075 9.29979,-3.938162 z m -10.52186,5.283454 c 4.35658,-6.78704 13.84146,-7.349025 18.96977,-1.124769 -5.02103,-4.408614 -14.50512,-3.845829 -18.96977,1.124769 m -27.3975,1.013352 c -4.06538,-0.223792 -8.19797,1.648893 -10.68043,5.516273 a 0.16531304,0.16531304 0 0 0 0.028,0.196854 0.16531304,0.16531304 0 0 0 8.1e-4,0.01548 0.16531304,0.16531304 0 0 0 0.0131,0.0047 0.16531304,0.16531304 0 0 0 0.008,0.01142 0.16531304,0.16531304 0 0 0 0.05,0.0089 0.16531304,0.16531304 0 0 0 0.0608,0.01094 0.16531304,0.16531304 0 0 0 0.0552,-0.02642 0.16531304,0.16531304 0 0 0 0.0463,-0.02205 c 2.19551,-2.444712 5.64251,-3.81677 9.16298,-4.025569 3.52047,-0.208791 7.10556,0.74615 9.57468,2.913712 a 0.16532957,0.16532957 0 0 0 0.23672,-0.229373 c -2.27283,-2.758542 -5.3942,-4.200808 -8.55616,-4.374867 z m -0.0194,0.321626 c 2.53107,0.140128 5.03329,1.123719 7.07546,2.967028 -2.39162,-1.467516 -5.38119,-2.102974 -8.33086,-1.928039 -2.94936,0.174928 -5.84251,1.159145 -8.04378,2.899015 2.43764,-2.78994 5.8906,-4.126713 9.29918,-3.938004 z m -10.52185,5.283948 c 4.35658,-6.787041 13.84146,-7.349825 18.96977,-1.12557 -5.02103,-4.407813 -14.50512,-3.845829 -18.96977,1.12557 m 282.16883,66.381774 c -2.14209,-0.0574 -4.3638,0.52491 -6.40938,1.85017 a 0.16531304,0.16531304 0 0 0 -0.003,0.0153 0.16531304,0.16531304 0 0 0 -0.0582,0.18998 0.16531304,0.16531304 0 0 0 0.0147,0.0141 0.16531304,0.16531304 0 0 0 -0.002,0.009 0.16531304,0.16531304 0 0 0 0.0419,0.0289 0.16531304,0.16531304 0 0 0 0.0507,0.0349 0.16531304,0.16531304 0 0 0 0.0616,-10e-4 0.16531304,0.16531304 0 0 0 0.051,-0.001 c 2.84835,-1.25033 6.30729,-1.06553 9.35093,0.16137 3.04364,1.22688 5.66363,3.49254 6.84827,6.36919 a 0.16532957,0.16532957 0 0 0 0.31381,-0.10069 c -1.21989,-5.22149 -5.54738,-8.44404 -10.25998,-8.57024 z m -0.004,0.32115 c 4.03712,0.10237 7.76944,2.55676 9.40455,6.63095 -1.41283,-2.2076 -3.64874,-3.93707 -6.17891,-4.95699 -2.5302,-1.01993 -5.34062,-1.32474 -7.88945,-0.7144 1.53165,-0.68904 3.11935,-0.99872 4.66381,-0.95956 z m -6.31518,1.66782 c 6.45882,-4.18446 14.66763,-0.87499 16.41842,6.61893 -2.41124,-5.8552 -10.62086,-9.16387 -16.41842,-6.61893 m -22.48417,-1.23486 c -4.61598,-0.17179 -9.02859,2.73463 -10.51142,7.80737 a 0.16531304,0.16531304 0 0 0 0.0822,0.1809 0.16531304,0.16531304 0 0 0 0.005,0.0147 0.16531304,0.16531304 0 0 0 0.009,-0.003 0.16531304,0.16531304 0 0 0 0.0159,0.0128 0.16531304,0.16531304 0 0 0 0.0944,-0.0518 0.16531304,0.16531304 0 0 0 0.10102,-0.0357 c 1.31797,-2.75941 4.00437,-4.82719 7.04684,-5.84524 3.04247,-1.01805 6.43244,-0.98346 9.14625,0.42732 a 0.16532957,0.16532957 0 0 0 0.17497,-0.27925 c -1.92618,-1.43576 -4.06636,-2.14985 -6.16453,-2.22793 z m -0.0164,0.31975 c 1.50461,0.0585 3.0319,0.46048 4.48462,1.22943 -2.45211,-0.75303 -5.20725,-0.6269 -7.72981,0.21718 -2.52283,0.84417 -4.79926,2.40181 -6.30416,4.479 1.82762,-3.90187 5.60506,-6.07887 9.54935,-5.92561 z m -10.33626,7.53404 c 2.12785,-7.27938 10.33747,-10.02606 16.41842,-5.49336 -5.52537,-2.87236 -13.73499,-0.12488 -16.41842,5.49336 M 209.0763,81.099667 c -2.40875,0.0012 -4.85933,0.689144 -7.05826,2.16633 a 0.16531304,0.16531304 0 0 0 -0.0527,0.191691 0.16531304,0.16531304 0 0 0 -0.005,0.01455 0.16531304,0.16531304 0 0 0 0.009,0.0033 0.16531304,0.16531304 0 0 0 0.004,0.01985 0.16531304,0.16531304 0 0 0 0.10554,0.02064 0.16531304,0.16531304 0 0 0 0.1007,0.03737 c 3.11773,-1.432011 7.03246,-1.337595 10.55581,-0.108194 3.52334,1.229393 6.64728,3.590959 8.19748,6.65158 a 0.16532957,0.16532957 0 0 0 0.3049,-0.124773 c -1.76563,-5.55383 -6.86188,-8.874964 -12.16113,-8.872323 z m 0.004,0.326944 c 4.60017,-0.0041 9.03604,2.568788 11.16592,6.961792 -1.74945,-2.38696 -4.43234,-4.219133 -7.40193,-5.255313 -2.96931,-1.036077 -6.20927,-1.270781 -9.06371,-0.490488 1.70734,-0.820193 3.515,-1.214398 5.29972,-1.215991 z m -6.96988,1.976575 c 6.94875,-4.667991 16.43363,-1.358529 18.96977,6.618926 -3.15015,-6.219453 -12.63424,-9.528915 -18.96977,-6.618926 m 355.68941,65.338984 c -0.39283,-0.0216 -0.78611,-0.0189 -1.17769,0.008 -3.13264,0.21475 -6.15897,1.97544 -8.02955,5.19183 a 0.16531304,0.16531304 0 0 0 0.0274,0.10366 0.16531304,0.16531304 0 0 0 0.0105,0.10711 0.16531304,0.16531304 0 0 0 0.0173,-0.002 0.16531304,0.16531304 0 0 0 0.005,0.0169 0.16531304,0.16531304 0 0 0 0.10367,-0.0274 0.16531304,0.16531304 0 0 0 0.1071,-0.0105 c 3.73674,-4.54617 11.85714,-5.10213 16.17935,-1.1092 a 0.16532957,0.16532957 0 0 0 0.24251,-0.22328 c -2.00538,-2.56469 -4.73535,-3.90443 -7.48512,-4.05542 z m -0.0181,0.32992 c 2.12215,0.11568 4.22507,0.98093 5.98284,2.5902 -4.11577,-2.5263 -10.0871,-2.11774 -13.81992,0.94643 1.7937,-2.16126 4.20715,-3.35777 6.70005,-3.52866 0.37804,-0.0259 0.75774,-0.0286 1.13703,-0.008 z m -9.04627,4.95298 c 3.68972,-6.34433 11.89854,-6.90712 16.41923,-1.12557 -4.40301,-4.06758 -12.61263,-3.50559 -16.41923,1.12557 M 175.70645,81.840334 c -4.96133,8e-4 -9.76515,2.971527 -11.68908,8.123994 a 0.16531304,0.16531304 0 0 0 0.002,0.05097 0.16531304,0.16531304 0 0 0 0.002,0.0616 0.16531304,0.16531304 0 0 0 0.0375,0.04831 0.16531304,0.16531304 0 0 0 0.0314,0.0405 0.16531304,0.16531304 0 0 0 0.0139,0.0018 0.16531304,0.16531304 0 0 0 0.0102,0.0095 0.16531304,0.16531304 0 0 0 0.0508,-0.0018 0.16531304,0.16531304 0 0 0 0.0616,-0.0022 0.16531304,0.16531304 0 0 0 0.0486,-0.03768 0.16531304,0.16531304 0 0 0 0.0403,-0.03127 c 1.67707,-2.940194 4.86434,-5.101752 8.38682,-6.121842 3.52249,-1.020089 7.37196,-0.896189 10.361,0.692658 a 0.16532957,0.16532957 0 0 0 0.17746,-0.277686 c -2.29396,-1.742704 -4.93589,-2.55714 -7.53468,-2.556748 z m -0.69172,0.345076 c 2.19469,-0.124365 4.44676,0.352024 6.5082,1.491331 -2.76073,-0.923871 -5.94866,-0.870411 -8.91219,-0.01219 -2.96321,0.858131 -5.68605,2.516072 -7.52561,4.771855 2.07983,-3.787206 5.90359,-6.022846 9.9296,-6.250994 z m -10.84249,7.836702 c 2.89478,-7.752501 12.37966,-10.499179 18.96897,-5.493356 -6.07536,-3.229408 -15.56024,-0.48273 -18.96897,5.493356 m 426.46449,52.101938 c -0.39283,-0.0216 -0.78595,-0.019 -1.17753,0.008 -3.13264,0.21465 -6.15906,1.97521 -8.02924,5.19121 a 0.16531304,0.16531304 0 0 0 0.0363,0.19529 0.16531304,0.16531304 0 0 0 0.002,0.0155 0.16531304,0.16531304 0 0 0 0.01,-9.6e-4 0.16531304,0.16531304 0 0 0 0.0122,0.0161 0.16531304,0.16531304 0 0 0 0.10382,-0.0274 0.16531304,0.16531304 0 0 0 0.10695,-0.0105 c 3.73674,-4.54538 11.85635,-5.10213 16.17856,-1.10841 a 0.16532957,0.16532957 0 0 0 0.24251,-0.22312 c -2.00503,-2.56471 -4.73503,-3.90451 -7.4848,-4.05559 z m -0.018,0.32976 c 2.12198,0.11572 4.22473,0.98089 5.98222,2.58989 -4.1158,-2.52666 -10.08684,-2.11743 -13.81945,0.94659 1.7935,-2.16117 4.20719,-3.35769 6.7002,-3.52851 0.37805,-0.0259 0.75775,-0.0287 1.13703,-0.008 z m -9.04591,4.95234 c 3.68893,-6.34354 11.89854,-6.90632 16.41843,-1.12477 -4.40301,-4.06838 -12.61182,-3.5056 -16.41843,1.12477 M 198.94556,9.5719736 V 36.77448 h 1.19129 V 9.5719736 Z M 442.73225,79.068238 v 27.202512 h 1.19128 V 79.068238 Z m -46.21074,16.910747 c 0,-0.768526 -0.60922,-1.40416 -1.37775,-1.40416 -0.76852,0 -1.37774,0.635634 -1.37774,1.40416 0,0.768525 0.60922,1.40416 1.37774,1.40416 0.76853,0 1.37775,-0.635635 1.37775,-1.40416 m 0,-6.618926 c 0,-0.768525 -0.60922,-1.40416 -1.37775,-1.40416 -0.76852,0 -1.37774,0.635635 -1.37774,1.40416 0,0.768526 0.60922,1.404961 1.37774,1.404961 0.76853,0 1.37775,-0.636435 1.37775,-1.404961 m -6.39555,-10.291821 v 27.202512 h 1.19113 V 79.068238 Z m -6.08932,0 v 27.202512 h 3.63999 V 79.068238 Z m 0,0 v 27.202512 h 3.63999 V 79.068238 Z m -3.63983,0 v 27.202512 h 1.19129 V 79.068238 Z m -2.4472,16.910747 c 0,-0.768526 -0.60922,-1.40416 -1.37774,-1.40416 -0.76853,0 -1.37775,0.635634 -1.37775,1.40416 0,0.768525 0.60922,1.40416 1.37775,1.40416 0.76852,0 1.37774,-0.635635 1.37774,-1.40416 m 0,-6.618926 c 0,-0.768525 -0.60922,-1.40416 -1.37774,-1.40416 -0.76853,0 -1.37775,0.635635 -1.37775,1.40416 0,0.768526 0.60922,1.404961 1.37775,1.404961 0.76852,0 1.37774,-0.636435 1.37774,-1.404961 M 311.62339,79.068238 v 27.202512 h 1.19127 V 79.068238 Z m -161.21899,0 v 27.202512 h 1.19128 V 79.068238 Z M 679.80887,9.5719736 V 36.77448 H 681 V 9.5719736 Z m -372.8246,0 V 36.77448 h 1.19129 V 9.5719736 Z m 263.1407,0 V 36.77448 h 1.19129 V 9.5719736 Z m 14.85735,69.4962644 v 27.202512 h 1.19128 V 79.068238 Z m 94.82655,0 V 106.27075 H 681 V 79.068238 Z M 163.71116,148.56451 v 27.20266 h 1.19112 v -27.20266 z m 91.24723,0 v 27.20266 h 1.19112 V 148.56451 Z M 89.261811,9.5719736 V 36.77448 h 1.191287 V 9.5719736 Z M 362.93456,148.56451 v 27.20266 h 1.19112 v -27.20266 z m 106.35913,0 v 27.20266 h 1.19112 v -27.20266 z m 142.92804,0 v 27.20266 h 1.19128 v -27.20266 z m 65.13781,0 v 27.20266 h 3.64015 v -27.20266 z m -3.63967,0 v 27.20266 h 1.19113 v -27.20266 z m -2.44731,16.91079 c 0,-0.76852 -0.60921,-1.40416 -1.37774,-1.40416 -0.76852,0 -1.37774,0.63564 -1.37774,1.40416 0,0.76853 0.60922,1.40416 1.37774,1.40416 0.76853,0 1.37774,-0.63563 1.37774,-1.40416 m 0,-6.61892 c 0,-0.76853 -0.60921,-1.40416 -1.37774,-1.40416 -0.76852,0 -1.37774,0.63563 -1.37774,1.40416 0,0.76852 0.60922,1.40496 1.37774,1.40496 0.76853,0 1.37774,-0.63644 1.37774,-1.40496 M 443.55281,9.5719736 V 36.77448 h 1.19128 V 9.5719736 Z M 0,175.0398 v 0.72768 h 681 v -0.72768 z m 0,-6.6189 v 0.72768 h 681 v -0.72768 z m 0,-6.6189 v 0.72768 H 681 V 161.802 Z m 0,-6.6189 v 0.72768 h 681 v -0.72768 z m 0,-6.61812 v 0.72768 h 681 v -0.72768 z m 0,-43.02145 v 0.72768 h 681 v -0.72768 z m 0,-6.618899 v 0.727682 h 681 v -0.727682 z m 0,-6.618902 v 0.727682 h 681 v -0.727682 z m 0,-6.619053 v 0.727841 h 681 v -0.727841 z m 0,-6.618125 v 0.727841 H 681 V 79.068551 Z M 0,36.047263 v 0.727682 h 681 v -0.727682 z m 0,-6.619054 v 0.727842 h 681 v -0.727842 z m 0,-6.618747 v 0.727687 h 681 v -0.727687 z m 0,-6.618745 v 0.727686 H 681 V 16.190717 Z M 0,9.5721297 V 10.299815 H 681 V 9.5721297 Z"
     style="stroke-width:0.0800547" />
  <metadata
     id="metadata233">
    <rdf:RDF>
      <cc:Work
         rdf:about="">
        <dc:title>air_XXXIX</dc:title>
      </cc:Work>
    </rdf:RDF>
  </metadata>
</svg>
