<?xml version="1.0" encoding="UTF-8" standalone="no"?>
<svg
   width="681"
   height="186.10622"
   version="1.2"
   id="svg153"
   xmlns="http://www.w3.org/2000/svg"
   xmlns:svg="http://www.w3.org/2000/svg"
   xmlns:rdf="http://www.w3.org/1999/02/22-rdf-syntax-ns#"
   xmlns:cc="http://creativecommons.org/ns#"
   xmlns:dc="http://purl.org/dc/elements/1.1/">
  <defs
     id="defs153" />
  <title
     id="title1">air_V</title>
  <desc
     id="desc1">Generated by MuseScore Studio 4.7.3</desc>
  <path
     id="path153"
     class="NoteDot"
     d="m 328.0619,75.797186 c 0,0.741307 0.58359,1.324906 1.3249,1.324906 0.74211,0 1.32491,-0.583599 1.32491,-1.324906 0,-0.742107 -0.5828,-1.324906 -1.32491,-1.324906 -0.74131,0 -1.3249,0.582799 -1.3249,1.324906 m 240.33072,19.855977 c 0,0.741306 0.5828,1.324906 1.32491,1.324906 0.7421,0 1.3249,-0.5836 1.3249,-1.324906 0,-0.742108 -0.5828,-1.324906 -1.3249,-1.324906 -0.74211,0 -1.32491,0.582798 -1.32491,1.324906 m -293.61115,0 c 0,0.741306 0.58359,1.324906 1.3249,1.324906 0.74211,0 1.32491,-0.5836 1.32491,-1.324906 0,-0.742108 -0.5828,-1.324906 -1.32491,-1.324906 -0.74131,0 -1.3249,0.582798 -1.3249,1.324906 M 38.456682,108.88461 57.798707,107.22988 v 3.32147 l -19.342025,1.65473 v -3.32147 M 33.669409,32.792582 v 1.96054 h -2.199104 c -0.185727,0 -0.370653,0.159309 -0.370653,0.370654 v 0.503544 c 0,0.212145 0.184926,0.371454 0.370653,0.371454 h 8.02869 c 0.212145,0 0.371454,-0.159309 0.371454,-0.371454 v -0.503544 c 0,-0.211345 -0.159309,-0.370654 -0.371454,-0.370654 h -2.384831 v -1.96054 h 2.384831 c 0.212145,0 0.371454,-0.185727 0.371454,-0.397872 v -0.503544 c 0,-0.184927 -0.159309,-0.370654 -0.371454,-0.370654 h -2.384831 v -4.213281 c 0,-0.159309 -0.07925,-0.291399 -0.184927,-0.344235 L 36.61062,26.803687 c -0.05284,-0.02642 -0.07925,-0.02642 -0.132091,-0.02642 -0.105672,0 -0.212145,0 -0.291399,0.07925 l -2.411249,2.199904 c -0.08005,0.07925 -0.106472,0.184927 -0.106472,0.2914 v 2.172685 h -3.073302 c 0,0 2.967629,-3.179774 6.094567,-7.366637 0.105673,-0.13209 0.132091,-0.264981 0.132091,-0.370653 0,-0.132891 -0.05284,-0.238563 -0.07925,-0.264981 l -0.582798,-0.583279 c -0.08005,-0.053 -0.159309,-0.105993 -0.264981,-0.105993 -0.159309,0 -3.736155,0 -3.9483,0 -0.185727,0 -0.317817,0.158989 -0.344235,0.317978 0,0 -0.132891,1.961181 -0.822162,4.107448 -0.688471,2.146268 -1.483415,3.471174 -2.172686,4.451844 0,0 -0.07925,0.13209 -0.07925,0.291399 0,0.05284 0,0.105673 0.02642,0.158509 0.07925,0.185727 0.264981,0.477126 0.264981,0.477126 0,0 0.05284,0.159309 0.291399,0.159309 h 4.557517 m 0.794143,-11.066607 c -0.874999,0 -1.589888,-1.192415 -1.589888,-2.67631 0,-1.483894 0.714889,-2.702808 1.589888,-2.702808 0.874197,0 1.616305,1.218914 1.616305,2.702808 0,1.483895 -0.742108,2.67631 -1.616305,2.67631 m 0.97987,-6.624529 c -1.616306,0 -2.199104,0.476966 -2.569758,0.874437 -0.08005,-0.55646 -0.13289,-0.98043 -0.13289,-1.4044 0,-1.510393 0.529962,-3.471253 2.38483,-3.471253 0.662853,0 1.059925,0.211985 1.324906,0.503464 -0.55638,0.238483 -1.007088,0.953932 -1.007088,1.563389 0,0.953932 0.742107,1.69588 1.696359,1.69588 0.953452,0 1.721978,-0.741948 1.721978,-1.69588 v -0.07949 c 0,-0.238483 -0.05284,-0.635955 -0.158509,-0.84794 -0.345035,-0.953932 -1.457796,-2.3583327 -4.107608,-2.3583327 -2.384831,0 -4.106808,2.2788377 -4.63677,3.4977517 -0.264982,0.635955 -0.662854,1.934363 -0.662854,3.418257 0,1.616385 0.450708,3.444755 2.014177,4.822658 1.536251,1.165917 2.516921,1.218913 3.444756,1.218913 0.927034,0 4.398207,-1.086423 4.398207,-4.160204 0,-2.596816 -2.039795,-3.577246 -3.709736,-3.577246 M 16.093311,34.924439 c -0.529962,0.106473 -1.033427,0.159309 -1.536891,0.159309 -3.789231,0 -7.0220012,-2.649811 -7.0220012,-6.650947 0,-3.233411 2.2788382,-6.121386 4.6106722,-8.135243 0.450468,-0.397471 0.874438,-0.768445 1.27191,-1.165917 0.238483,1.430899 0.42397,2.67631 0.609457,3.762733 -2.411329,0.715129 -4.0542123,3.259268 -4.0542123,5.749771 0,1.854869 1.4573963,4.399008 3.5772463,4.399008 0.211985,0 0.450468,-0.105672 0.450468,-0.344235 0,-0.238563 -0.264982,-0.371454 -0.582959,-0.582799 -1.033427,-0.636435 -1.616385,-1.324906 -1.616385,-2.623393 0,-1.616306 1.192415,-2.914793 2.755804,-3.286247 l 1.536891,8.71796 M 13.761477,7.6844542 c 0.238483,-1.0599247 1.457396,-3.8422271 2.835298,-3.8422271 0.397472,0 1.033427,1.2984078 1.033427,3.1267779 0,2.7558043 -2.040355,4.822658 -3.868725,6.62453 -0.158989,-1.059925 -0.29148,-2.093352 -0.29148,-3.206273 0,-0.9804301 0.0795,-1.8813661 0.29148,-2.7028078 m 6.094567,22.3382338 c 0,1.881286 -0.768446,3.815409 -2.649812,4.583934 -0.556461,-3.179774 -1.27191,-7.393055 -1.457397,-8.558652 2.384831,0 4.107209,1.616305 4.107209,3.974718 M 8.1968718,43.059602 c 0,1.748395 1.351404,4.053972 4.9286502,4.053972 1.245411,0 2.331834,-0.317818 3.285766,-0.900616 1.430899,-1.007089 1.801872,-2.756285 1.801872,-4.425426 0,-1.033507 -0.158988,-2.225522 -0.423969,-3.736154 -0.07949,-0.529963 -0.238484,-1.324906 -0.397472,-2.358413 2.596815,-0.84778 4.531178,-3.550428 4.531178,-6.280294 0,-4.001136 -2.835299,-6.703784 -6.704024,-6.703784 -0.264981,-1.589887 -0.529962,-3.153276 -0.768445,-4.637171 2.8088,-2.941291 4.743163,-6.253555 4.743163,-10.4667561 0,-2.4113288 -0.741948,-4.3721895 -1.165917,-5.3261218 C 17.391719,0.92743413 16.623273,0 16.146307,0 15.96082,0 15.139379,0.31797742 14.264941,1.351404 c -1.69588,2.013857 -2.172846,5.4056161 -2.172846,7.631458 0,1.430898 0.132491,2.729306 0.582959,5.697095 -0.0265,0.0265 -1.404401,1.430899 -1.960861,1.881367 -2.4113287,2.25234 -5.7500916,5.458612 -5.7500916,10.757915 0,4.955389 4.3191932,8.850852 9.2478436,8.850852 0.768445,0 1.483894,-0.07925 2.093351,-0.185727 0.503464,2.54414 0.794943,4.399008 0.794943,5.803168 0,2.755484 -1.4044,4.213281 -4.08071,4.213281 -0.635955,0 -1.192415,-0.132891 -1.245411,-0.132891 -0.0265,-0.02642 -0.07949,-0.05284 -0.07949,-0.07925 0,-0.05284 0.053,-0.07925 0.132491,-0.105672 1.245412,-0.185727 2.490823,-1.245652 2.490823,-2.941211 0,-1.431379 -1.086423,-2.941211 -3.073782,-2.941211 -1.8548679,0 -3.0472832,1.509832 -3.0472832,3.259028 M 16.093311,173.91708 c -0.529962,0.10647 -1.033427,0.1593 -1.536891,0.1593 -3.789231,0 -7.0220012,-2.64981 -7.0220012,-6.65094 0,-3.23341 2.2788382,-6.12099 4.6106722,-8.13517 0.450468,-0.39787 0.874438,-0.76852 1.27191,-1.16559 0.238483,1.43058 0.42397,2.67623 0.609457,3.76257 -2.411329,0.71489 -4.0542123,3.25903 -4.0542123,5.74953 0,1.85487 1.4573963,4.39901 3.5772463,4.39901 0.211985,0 0.450468,-0.10567 0.450468,-0.34424 0,-0.23856 -0.264982,-0.37145 -0.582959,-0.58279 -1.033427,-0.63644 -1.616385,-1.32491 -1.616385,-2.6234 0,-1.6163 1.192415,-2.91479 2.755804,-3.28625 l 1.536891,8.71797 m -2.331834,-27.24023 c 0.238483,-1.05992 1.457396,-3.84183 2.835298,-3.84183 0.397472,0 1.033427,1.29849 1.033427,3.12694 0,2.75549 -2.040355,4.8225 -3.868725,6.62453 -0.158989,-1.05992 -0.29148,-2.09343 -0.29148,-3.20619 0,-0.98067 0.0795,-1.88209 0.29148,-2.70345 m 6.094567,22.33847 c 0,1.88129 -0.768446,3.81541 -2.649812,4.58394 -0.556461,-3.17978 -1.27191,-7.39306 -1.457397,-8.55865 2.384831,0 4.107209,1.6163 4.107209,3.97471 M 8.1968718,182.05224 c 0,1.74839 1.351404,4.05397 4.9286502,4.05397 1.245411,0 2.331834,-0.31782 3.285766,-0.90062 1.430899,-1.00708 1.801872,-2.75628 1.801872,-4.42542 0,-1.03351 -0.158988,-2.22552 -0.423969,-3.73616 -0.07949,-0.52996 -0.238484,-1.3249 -0.397472,-2.35841 2.596815,-0.84778 4.531178,-3.55043 4.531178,-6.28029 0,-4.00114 -2.835299,-6.70379 -6.704024,-6.70379 -0.264981,-1.58988 -0.529962,-3.15335 -0.768445,-4.63677 2.8088,-2.94201 4.743163,-6.25387 4.743163,-10.46715 0,-2.41125 -0.741948,-4.37179 -1.165917,-5.32605 -0.635955,-1.35132 -1.404401,-2.27915 -1.881367,-2.27915 -0.185487,0 -1.006928,0.31861 -1.881366,1.35132 -1.69588,2.01418 -2.172846,5.4061 -2.172846,7.63162 0,1.43138 0.132491,2.72986 0.582959,5.69749 -0.0265,0.0264 -1.404401,1.43058 -1.960861,1.88129 -2.4113287,2.25194 -5.7500916,5.45813 -5.7500916,10.75776 0,4.95538 4.3191932,8.85085 9.2478436,8.85085 0.768445,0 1.483894,-0.0793 2.093351,-0.18573 0.503464,2.54414 0.794943,4.39901 0.794943,5.80317 0,2.75548 -1.4044,4.21328 -4.08071,4.21328 -0.635955,0 -1.192415,-0.13289 -1.245411,-0.13289 -0.0265,-0.0264 -0.07949,-0.0528 -0.07949,-0.0793 0,-0.0528 0.053,-0.0792 0.132491,-0.10567 1.245412,-0.18573 2.490823,-1.24565 2.490823,-2.94121 0,-1.43138 -1.086423,-2.94121 -3.073782,-2.94121 -1.8548679,0 -3.0472832,1.50983 -3.0472832,3.25903 m 7.8964392,-77.63148 c -0.529962,0.10647 -1.033427,0.15931 -1.536891,0.15931 -3.789231,0 -7.0220012,-2.64982 -7.0220012,-6.650951 0,-3.233411 2.2788382,-6.120985 4.6106722,-8.135163 0.450468,-0.397872 0.874438,-0.768525 1.27191,-1.165597 0.238483,1.430579 0.42397,2.67623 0.609457,3.762573 -2.411329,0.714889 -4.0542123,3.259028 -4.0542123,5.749531 0,1.854869 1.4573963,4.399007 3.5772463,4.399007 0.211985,0 0.450468,-0.10567 0.450468,-0.34423 0,-0.23857 -0.264982,-0.37146 -0.582959,-0.5828 -1.033427,-0.63644 -1.616385,-1.32491 -1.616385,-2.623396 0,-1.616306 1.192415,-2.914793 2.755804,-3.286247 l 1.536891,8.717963 M 13.761477,77.180532 c 0.238483,-1.059925 1.457396,-3.841827 2.835298,-3.841827 0.397472,0 1.033427,1.298488 1.033427,3.126938 0,2.755484 -2.040355,4.822498 -3.868725,6.62453 -0.158989,-1.059925 -0.29148,-2.093432 -0.29148,-3.206193 0,-0.98067 0.0795,-1.882086 0.29148,-2.703448 m 6.094567,22.338474 c 0,1.881284 -0.768446,3.815404 -2.649812,4.583934 -0.556461,-3.17977 -1.27191,-7.393055 -1.457397,-8.558652 2.384831,0 4.107209,1.616305 4.107209,3.974718 M 8.1968718,112.55592 c 0,1.7484 1.351404,4.05397 4.9286502,4.05397 1.245411,0 2.331834,-0.31782 3.285766,-0.90061 1.430899,-1.00709 1.801872,-2.75629 1.801872,-4.42543 0,-1.03351 -0.158988,-2.22552 -0.423969,-3.73615 -0.07949,-0.52997 -0.238484,-1.32491 -0.397472,-2.35842 2.596815,-0.84778 4.531178,-3.55042 4.531178,-6.280291 0,-4.001136 -2.835299,-6.703784 -6.704024,-6.703784 -0.264981,-1.589887 -0.529962,-3.153356 -0.768445,-4.63677 2.8088,-2.942012 4.743163,-6.253876 4.743163,-10.467157 0,-2.411249 -0.741948,-4.371789 -1.165917,-5.326042 -0.635955,-1.351324 -1.404401,-2.279158 -1.881367,-2.279158 -0.185487,0 -1.006928,0.318618 -1.881366,1.351324 -1.69588,2.014177 -2.172846,5.406096 -2.172846,7.631618 0,1.431379 0.132491,2.729866 0.582959,5.697495 -0.0265,0.02642 -1.404401,1.430579 -1.960861,1.881287 -2.4113287,2.25194 -5.7500916,5.458132 -5.7500916,10.757755 0,4.955393 4.3191932,8.850853 9.2478436,8.850853 0.768445,0 1.483894,-0.0793 2.093351,-0.18573 0.503464,2.54414 0.794943,4.39901 0.794943,5.80317 0,2.75548 -1.4044,4.21328 -4.08071,4.21328 -0.635955,0 -1.192415,-0.13289 -1.245411,-0.13289 -0.0265,-0.0264 -0.07949,-0.0528 -0.07949,-0.0793 0,-0.0528 0.053,-0.0793 0.132491,-0.10568 1.245412,-0.18572 2.490823,-1.24565 2.490823,-2.94121 0,-1.43138 -1.086423,-2.94121 -3.073782,-2.94121 -1.8548679,0 -3.0472832,1.50983 -3.0472832,3.25903 M 406.91261,86.837535 c 0,1.139979 0.82136,2.411249 2.96763,2.411249 2.75628,0 5.64466,-2.25194 5.64466,-4.583935 0,-1.563469 -1.32491,-2.437666 -2.96763,-2.437666 -2.57056,0 -5.64466,2.172685 -5.64466,4.610352 m 79.72251,76.115245 c 0,1.13918 0.82136,2.41125 2.96763,2.41125 2.75548,0 5.64386,-2.25194 5.64386,-4.58394 0,-1.56347 -1.32491,-2.43766 -2.96763,-2.43766 -2.57056,0 -5.64386,2.17268 -5.64386,4.61035 M 589.5727,21.816677 c -0.875,0 -1.05992,-0.715449 -1.05992,-0.953932 0,-1.298408 4.45104,-3.577246 5.69669,-3.577246 0.63644,0 1.05993,0.370974 1.05993,0.953932 0,1.324906 -4.47826,3.577246 -5.6967,3.577246 m 3.6561,-5.77659 c -2.56975,0 -5.64386,2.146348 -5.64386,4.610673 0,1.139419 0.82137,2.411329 2.96763,2.411329 2.75629,0 5.64466,-2.25234 5.64466,-4.584175 0,-1.563389 -1.3249,-2.437827 -2.96843,-2.437827 M 457.03168,156.33385 c 0,1.13998 0.82136,2.41125 2.96763,2.41125 2.75548,0 5.64386,-2.25194 5.64386,-4.58393 0,-1.56347 -1.32491,-2.43767 -2.96763,-2.43767 -2.57056,0 -5.64386,2.17269 -5.64386,4.61035 M 630.03797,21.816677 c -0.8742,0 -1.05992,-0.715449 -1.05992,-0.953932 0,-1.298408 4.45184,-3.577246 5.69749,-3.577246 0.63564,0 1.05993,0.370974 1.05993,0.953932 0,1.324906 -4.47827,3.577246 -5.6975,3.577246 m 3.6569,-5.77659 c -2.56976,0 -5.64386,2.146348 -5.64386,4.610673 0,1.139419 0.82136,2.411329 2.96763,2.411329 2.75629,0 5.64386,-2.25234 5.64386,-4.584175 0,-1.563389 -1.32491,-2.437827 -2.96763,-2.437827 M 427.42824,159.64332 c 0,1.13917 0.82136,2.41124 2.96763,2.41124 2.75548,0 5.64386,-2.25194 5.64386,-4.58393 0,-1.56347 -1.32491,-2.43767 -2.96763,-2.43767 -2.57056,0 -5.64386,2.17269 -5.64386,4.61036 M 89.07609,44.982517 c -0.874999,0 -1.059925,-0.71569 -1.059925,-0.954253 0,-1.298488 4.451043,-3.577646 5.696695,-3.577646 0.635635,0 1.059925,0.371454 1.059925,0.954252 0,1.324906 -4.478262,3.577647 -5.696695,3.577647 m 3.656099,-5.77675 c -2.569757,0 -5.643859,2.146267 -5.643859,4.610352 0,1.139179 0.821362,2.411249 2.96763,2.411249 2.756284,0 5.644659,-2.25194 5.644659,-4.583934 0,-1.563469 -1.324906,-2.437667 -2.96843,-2.437667 M 397.8248,162.95278 c 0,1.13918 0.82136,2.41125 2.96762,2.41125 2.75629,0 5.64386,-2.25194 5.64386,-4.58394 0,-1.56347 -1.3249,-2.43766 -2.96763,-2.43766 -2.56975,0 -5.64385,2.17268 -5.64385,4.61035 M 127.5544,40.506656 c 0,1.13998 0.82136,2.411249 2.96763,2.411249 2.75548,0 5.64386,-2.25194 5.64386,-4.583934 0,-1.563469 -1.32491,-2.437667 -2.96763,-2.437667 -2.57056,0 -5.64386,2.172686 -5.64386,4.610352 M 368.22135,166.26224 c 0,1.13918 0.82137,2.41125 2.96763,2.41125 2.75629,0 5.64466,-2.25194 5.64466,-4.58393 0,-1.56347 -1.3249,-2.43767 -2.96843,-2.43767 -2.56975,0 -5.64386,2.17268 -5.64386,4.61035 M 352.83724,30.579068 c 0,1.139179 0.82136,2.411249 2.96762,2.411249 2.75629,0 5.64466,-2.25274 5.64466,-4.583934 0,-1.563469 -1.3249,-2.438468 -2.96843,-2.438468 -2.56975,0 -5.64385,2.173487 -5.64385,4.611153 M 516.23776,169.5717 c 0,1.13918 0.82216,2.41125 2.96843,2.41125 2.75548,0 5.64386,-2.25274 5.64386,-4.58393 0,-1.56347 -1.32491,-2.43847 -2.96763,-2.43847 -2.57056,0 -5.64466,2.17349 -5.64466,4.61115 m 7.92782,-138.992632 c 0,1.139179 0.82136,2.411249 2.96763,2.411249 2.75628,0 5.64466,-2.25274 5.64466,-4.583934 0,-1.563469 -1.32491,-2.438468 -2.96763,-2.438468 -2.57056,0 -5.64466,2.173487 -5.64466,4.611153 M 329.15304,169.5717 c 0,1.13918 0.82136,2.41125 2.96843,2.41125 2.75549,0 5.64386,-2.25274 5.64386,-4.58393 0,-1.56347 -1.32491,-2.43847 -2.96763,-2.43847 -2.57056,0 -5.64466,2.17349 -5.64466,4.61115 M 497.18874,23.960143 c 0,1.139179 0.82136,2.411248 2.96762,2.411248 2.75549,0 5.64386,-2.251939 5.64386,-4.584094 0,-1.563389 -1.3249,-2.437827 -2.96763,-2.437827 -2.57055,0 -5.64385,2.172846 -5.64385,4.610673 M 286.73604,170.7373 c -0.875,0 -1.05993,-0.71569 -1.05993,-0.95345 0,-1.29849 4.45105,-3.57765 5.6967,-3.57765 0.63563,0 1.05992,0.37066 1.05992,0.95426 0,1.3249 -4.47826,3.57684 -5.69669,3.57684 m 3.6561,-5.77675 c -2.56976,0 -5.64386,2.14627 -5.64386,4.61115 0,1.13918 0.82136,2.41125 2.96763,2.41125 2.75628,0 5.64466,-2.25274 5.64466,-4.58393 0,-1.56347 -1.32491,-2.43847 -2.96843,-2.43847 M 38.456682,93.456461 c 0,1.139179 0.821361,2.411248 2.967629,2.411248 2.756285,0 5.644659,-2.251939 5.644659,-4.583934 0,-1.563469 -1.324905,-2.437667 -2.968429,-2.437667 -2.569757,0 -5.643859,2.172686 -5.643859,4.610353 M 255.14484,156.33385 c 0,1.13998 0.82136,2.41125 2.96763,2.41125 2.75628,0 5.64466,-2.25194 5.64466,-4.58393 0,-1.56347 -1.32491,-2.43767 -2.96843,-2.43767 -2.56976,0 -5.64386,2.17269 -5.64386,4.61035 M 470.21109,17.341457 c 0,1.139419 0.82136,2.411329 2.96763,2.411329 2.75628,0 5.64466,-2.25234 5.64466,-4.584175 0,-1.563388 -1.32491,-2.437826 -2.96843,-2.437826 -2.56976,0 -5.64386,2.172845 -5.64386,4.610672 M 225.5414,159.64332 c 0,1.13917 0.82136,2.41124 2.96763,2.41124 2.75628,0 5.64466,-2.25194 5.64466,-4.58393 0,-1.56347 -1.32491,-2.43767 -2.96763,-2.43767 -2.57056,0 -5.64466,2.17269 -5.64466,4.61036 M 57.136654,90.146998 c 0,1.139179 0.821362,2.411248 2.96843,2.411248 2.755484,0 5.643859,-2.251939 5.643859,-4.583934 0,-1.563469 -1.324906,-2.437667 -2.967629,-2.437667 -2.570558,0 -5.64466,2.172686 -5.64466,4.610353 M 195.93796,162.95278 c 0,1.13918 0.82216,2.41125 2.96843,2.41125 2.75548,0 5.64385,-2.25194 5.64385,-4.58394 0,-1.56347 -1.3249,-2.43766 -2.96762,-2.43766 -2.57056,0 -5.64466,2.17268 -5.64466,4.61035 M 325.86039,27.269606 c 0,1.139178 0.82136,2.411248 2.96763,2.411248 2.75548,0 5.64386,-2.25274 5.64386,-4.583934 0,-1.563469 -1.32491,-2.438067 -2.96763,-2.438067 -2.57056,0 -5.64386,2.173086 -5.64386,4.610753 M 85.281495,86.837535 c 0,1.139979 0.821362,2.411249 2.967629,2.411249 2.756285,0 5.64466,-2.25194 5.64466,-4.583935 0,-1.563469 -1.324906,-2.437666 -2.967629,-2.437666 -2.570558,0 -5.64466,2.172685 -5.64466,4.610352 m 28.019955,6.618926 c 0,1.139179 0.82217,2.411248 2.96843,2.411248 2.75549,0 5.64386,-2.251939 5.64386,-4.583934 0,-1.563469 -1.3249,-2.437667 -2.96763,-2.437667 -2.57055,0 -5.64466,2.172686 -5.64466,4.610353 m 43.56899,66.186859 c 0,1.13917 0.82137,2.41124 2.96763,2.41124 2.75549,0 5.64386,-2.25194 5.64386,-4.58393 0,-1.56347 -1.3249,-2.43767 -2.96763,-2.43767 -2.57055,0 -5.64386,2.17269 -5.64386,4.61036 m -15.54823,-59.56793 c 0,1.13918 0.82136,2.41124 2.96763,2.41124 2.75549,0 5.64386,-2.25274 5.64386,-4.583929 0,-1.563469 -1.32491,-2.438468 -2.96763,-2.438468 -2.57056,0 -5.64386,2.173487 -5.64386,4.611157 m -26.86957,57.42486 c -0.8742,0 -1.05992,-0.71569 -1.05992,-0.95425 0,-1.29849 4.45184,-3.57685 5.69669,-3.57685 0.63644,0 1.05993,0.37066 1.05993,0.95345 0,1.32491 -4.47827,3.57765 -5.6967,3.57765 m 3.6569,-5.77675 c -2.57056,0 -5.64466,2.14627 -5.64466,4.61035 0,1.13998 0.82136,2.41125 2.96843,2.41125 2.75549,0 5.64386,-2.25194 5.64386,-4.58393 0,-1.56347 -1.32491,-2.43767 -2.96763,-2.43767 m 51.23263,-61.576502 c 0,1.139179 0.82136,2.411248 2.96763,2.411248 2.75548,0 5.64386,-2.251939 5.64386,-4.583934 0,-1.563469 -1.32491,-2.437667 -2.96763,-2.437667 -2.57056,0 -5.64386,2.172686 -5.64386,4.610353 M 82.862241,153.02439 c 0,1.13998 0.821361,2.41205 2.967629,2.41205 2.755484,0 5.643859,-2.25274 5.643859,-4.58474 0,-1.56346 -1.324906,-2.43766 -2.967629,-2.43766 -2.570558,0 -5.643859,2.17268 -5.643859,4.61035 M 197.36213,86.837535 c 0,1.139979 0.82136,2.411249 2.96763,2.411249 2.75628,0 5.64386,-2.25194 5.64386,-4.583935 0,-1.563469 -1.32491,-2.437666 -2.96763,-2.437666 -2.56976,0 -5.64386,2.172685 -5.64386,4.610352 M 40.444441,150.88132 c -0.874998,0 -1.059925,-0.71568 -1.059925,-0.95425 0,-1.29769 4.451044,-3.57684 5.696695,-3.57684 0.636436,0 1.059925,0.37065 1.059925,0.95425 0,1.3249 -4.478262,3.57684 -5.696695,3.57684 m 3.6561,-5.77675 c -2.569757,0 -5.643859,2.14627 -5.643859,4.61116 0,1.13918 0.821361,2.41125 2.967629,2.41125 2.756285,0 5.644659,-2.25274 5.644659,-4.58474 0,-1.56267 -1.324905,-2.43767 -2.968429,-2.43767 M 225.38209,83.528072 c 0,1.13998 0.82136,2.412049 2.96763,2.412049 2.75628,0 5.64466,-2.25274 5.64466,-4.584734 0,-1.563469 -1.32491,-2.437667 -2.96843,-2.437667 -2.56976,0 -5.64386,2.172685 -5.64386,4.610352 m 329.92398,82.734168 c 0,1.13918 0.82136,2.41125 2.96763,2.41125 2.75629,0 5.64466,-2.25194 5.64466,-4.58393 0,-1.56347 -1.3249,-2.43767 -2.96843,-2.43767 -2.56975,0 -5.64386,2.17268 -5.64386,4.61035 M 443.23424,20.65076 c 0,1.139419 0.82137,2.411329 2.96763,2.411329 2.75549,0 5.64386,-2.25234 5.64386,-4.584175 0,-1.563389 -1.3249,-2.437827 -2.96763,-2.437827 -2.57055,0 -5.64386,2.172846 -5.64386,4.610673 M 233.42679,31.744665 c -0.8742,0 -1.05993,-0.715689 -1.05993,-0.953452 0,-1.298487 4.45185,-3.577646 5.6975,-3.577646 0.63563,0 1.05992,0.370654 1.05992,0.954253 0,1.324906 -4.47826,3.576845 -5.69749,3.576845 m 3.6569,-5.77675 c -2.57056,0 -5.64386,2.146268 -5.64386,4.611153 0,1.139179 0.82136,2.411249 2.96763,2.411249 2.75548,0 5.64386,-2.25274 5.64386,-4.583934 0,-1.563469 -1.32491,-2.438468 -2.96763,-2.438468 M 631.30204,160.80971 c -0.8742,0 -1.05993,-0.71569 -1.05993,-0.95425 0,-1.29849 4.45184,-3.57765 5.6967,-3.57765 0.63643,0 1.05992,0.37146 1.05992,0.95426 0,1.3249 -4.47826,3.57764 -5.69669,3.57764 m 3.6569,-5.77675 c -2.57056,0 -5.64466,2.14627 -5.64466,4.61036 0,1.13917 0.82136,2.41124 2.96843,2.41124 2.75548,0 5.64385,-2.25194 5.64385,-4.58393 0,-1.56347 -1.3249,-2.43767 -2.96762,-2.43767 m 16.8299,-71.504888 c 0,1.13998 0.82136,2.412049 2.96763,2.412049 2.75549,0 5.64386,-2.25274 5.64386,-4.584734 0,-1.563469 -1.3249,-2.437667 -2.96763,-2.437667 -2.57056,0 -5.64386,2.172685 -5.64386,4.610352 M 264.85468,97.93152 c -0.875,0 -1.05993,-0.714888 -1.05993,-0.953451 0,-1.298488 4.45105,-3.577647 5.6967,-3.577647 0.63643,0 1.05992,0.371454 1.05992,0.954253 0,1.324906 -4.47826,3.576845 -5.69669,3.576845 m 3.6561,-5.776749 c -2.56976,0 -5.64386,2.147068 -5.64386,4.611152 0,1.139179 0.82136,2.411249 2.96763,2.411249 2.75628,0 5.64466,-2.25274 5.64466,-4.583934 0,-1.563469 -1.32491,-2.438467 -2.96843,-2.438467 m 343.23468,9.086209 c -0.87419,0 -1.05992,-0.71569 -1.05992,-0.95345 0,-1.298486 4.45184,-3.577645 5.69749,-3.577645 0.63564,0 1.05993,0.370654 1.05993,0.954253 0,1.324906 -4.47826,3.576842 -5.6975,3.576842 m 3.6569,-5.776747 c -2.56975,0 -5.64386,2.146268 -5.64386,4.611157 0,1.13918 0.82137,2.41124 2.96763,2.41124 2.75629,0 5.64386,-2.25274 5.64386,-4.583929 0,-1.563469 -1.3249,-2.438468 -2.96763,-2.438468 m -28.50509,65.345477 c -0.87499,0 -1.05992,-0.71569 -1.05992,-0.95425 0,-1.29849 4.45104,-3.57765 5.69669,-3.57765 0.63564,0 1.05993,0.37146 1.05993,0.95426 0,1.3249 -4.47826,3.57764 -5.6967,3.57764 m 3.6561,-5.77675 c -2.56975,0 -5.64386,2.14627 -5.64386,4.61036 0,1.13917 0.82137,2.41124 2.96763,2.41124 2.75629,0 5.64466,-2.25194 5.64466,-4.58393 0,-1.56347 -1.3249,-2.43767 -2.96843,-2.43767 M 416.2566,23.960143 c 0,1.139179 0.82136,2.411248 2.96763,2.411248 2.75628,0 5.64466,-2.251939 5.64466,-4.584094 0,-1.563389 -1.32491,-2.437827 -2.96843,-2.437827 -2.56976,0 -5.64386,2.172846 -5.64386,4.610673 m 142.20843,77.280837 c -0.87419,0 -1.05992,-0.71569 -1.05992,-0.95345 0,-1.298486 4.45184,-3.577645 5.69749,-3.577645 0.63564,0 1.05993,0.370654 1.05993,0.954253 0,1.324906 -4.47826,3.576842 -5.6975,3.576842 m 3.6569,-5.776747 c -2.56975,0 -5.64386,2.146268 -5.64386,4.611157 0,1.13918 0.82137,2.41124 2.96763,2.41124 2.75629,0 5.64386,-2.25274 5.64386,-4.583929 0,-1.563469 -1.3249,-2.438468 -2.96763,-2.438468 M 318.13511,81.385007 c -0.875,0 -1.05993,-0.71569 -1.05993,-0.954253 0,-1.298488 4.45185,-3.576845 5.6967,-3.576845 0.63643,0 1.05992,0.370653 1.05992,0.953452 0,1.324905 -4.47826,3.577646 -5.69669,3.577646 m 3.6569,-5.77675 c -2.57056,0 -5.64466,2.146267 -5.64466,4.611153 0,1.139179 0.82136,2.411249 2.96763,2.411249 2.75628,0 5.64466,-2.252741 5.64466,-4.584735 0,-1.563469 -1.32491,-2.437667 -2.96763,-2.437667 M 271.9051,27.269606 c 0,1.139178 0.82216,2.411248 2.96843,2.411248 2.75548,0 5.64386,-2.25274 5.64386,-4.583934 0,-1.563469 -1.32491,-2.438067 -2.96763,-2.438067 -2.57056,0 -5.64466,2.173086 -5.64466,4.610753 M 53.098693,43.816119 c 0,1.139179 0.821362,2.411249 2.967629,2.411249 2.756285,0 5.64466,-2.25194 5.64466,-4.583934 0,-1.563469 -1.324906,-2.437667 -2.96843,-2.437667 -2.569757,0 -5.643859,2.172685 -5.643859,4.610352 M 518.99324,86.837535 c 0,1.139979 0.82137,2.411249 2.96763,2.411249 2.75629,0 5.64386,-2.25194 5.64386,-4.583935 0,-1.563469 -1.3249,-2.437666 -2.96763,-2.437666 -2.56975,0 -5.64386,2.172685 -5.64386,4.610352 M 156.519,38.363591 c -0.87419,0 -1.05992,-0.715689 -1.05992,-0.954252 0,-1.298488 4.45184,-3.576846 5.69669,-3.576846 0.63644,0 1.05993,0.370653 1.05993,0.953452 0,1.324906 -4.47746,3.577646 -5.6967,3.577646 m 3.6569,-5.77675 c -2.57055,0 -5.64466,2.146268 -5.64466,4.610352 0,1.13998 0.82217,2.41205 2.96843,2.41205 2.75549,0 5.64386,-2.252741 5.64386,-4.584735 0,-1.563469 -1.3249,-2.437667 -2.96763,-2.437667 m 330.79739,57.560157 c 0,1.139179 0.82136,2.411248 2.96762,2.411248 2.75549,0 5.64386,-2.251939 5.64386,-4.583934 0,-1.563469 -1.3249,-2.437667 -2.96763,-2.437667 -2.57055,0 -5.64385,2.172686 -5.64385,4.610353 M 298.88274,23.960143 c 0,1.139179 0.82137,2.411248 2.96763,2.411248 2.75629,0 5.64386,-2.251939 5.64386,-4.584094 0,-1.563389 -1.3249,-2.437827 -2.96763,-2.437827 -2.56975,0 -5.64386,2.172846 -5.64386,4.610673 m 164.07059,69.496318 c 0,1.139179 0.82136,2.411248 2.96763,2.411248 2.75548,0 5.64386,-2.251939 5.64386,-4.583934 0,-1.563469 -1.32491,-2.437667 -2.96763,-2.437667 -2.57056,0 -5.64386,2.172686 -5.64386,4.610353 M 194.99731,33.888531 c 0,1.139179 0.82136,2.411249 2.96763,2.411249 2.75629,0 5.64466,-2.25274 5.64466,-4.584735 0,-1.563469 -1.3249,-2.437667 -2.96763,-2.437667 -2.57056,0 -5.64466,2.172686 -5.64466,4.611153 m 239.93526,56.258467 c 0,1.139179 0.82216,2.411248 2.96843,2.411248 2.75548,0 5.64386,-2.251939 5.64386,-4.583934 0,-1.563469 -1.32491,-2.437667 -2.96763,-2.437667 -2.57056,0 -5.64466,2.172686 -5.64466,4.610353 m -56.03992,-6.618926 c 0,1.13998 0.82136,2.412049 2.96763,2.412049 2.75628,0 5.64466,-2.25274 5.64466,-4.584734 0,-1.563469 -1.32491,-2.437667 -2.96843,-2.437667 -2.56976,0 -5.64386,2.172685 -5.64386,4.610352 M 560.6081,27.269606 c 0,1.139178 0.82136,2.411248 2.96763,2.411248 2.75548,0 5.64386,-2.25274 5.64386,-4.583934 0,-1.563469 -1.32491,-2.438067 -2.96763,-2.438067 -2.57056,0 -5.64386,2.173086 -5.64386,4.610753 m -171.32915,0 c 0,1.139178 0.82216,2.411248 2.96843,2.411248 2.75549,0 5.64386,-2.25274 5.64386,-4.583934 0,-1.563469 -1.3249,-2.438067 -2.96763,-2.438067 -2.57056,0 -5.64466,2.173086 -5.64466,4.610753 m 17.63412,59.567096 v 22.053518 h 0.66201 V 86.836702 Z m 56.03987,6.618902 v 18.744066 h 0.66202 V 93.455604 Z M 298.88233,23.959334 v 18.744064 h 0.66201 V 23.959334 Z m 192.09056,66.186823 v 20.398783 h 0.66201 V 90.146157 Z m 28.01994,-3.309455 v 22.053518 h 0.66201 V 86.836702 Z m 45.42793,-11.03958 v 22.106363 h 0.66201 V 75.797122 Z m -248.27303,4.420679 v 22.053519 h 0.66201 V 80.217801 Z M 617.7011,75.797122 v 22.106363 h 0.66202 V 75.797122 Z m 34.08737,7.730134 v 22.053514 h 0.66201 V 83.527256 Z M 279.84775,4.6458182 V 25.097769 h 0.66202 V 4.6458182 Z m 53.95454,0 V 25.097769 h 0.66202 V 4.6458182 Z M 95.030913,19.537875 v 22.106367 h 0.662173 V 19.537875 Z M 38.457074,149.71407 v 22.05352 h 0.662021 V 149.71407 Z M 225.38254,83.527256 v 22.053514 h 0.66202 V 83.527256 Z M 82.861809,153.02352 v 22.05352 h 0.662012 V 153.02352 Z M 197.36166,86.836702 v 22.053518 h 0.66217 V 86.836702 Z m -84.89633,69.496418 v 22.05337 h 0.66202 v -22.05337 z m 56.87639,-66.186963 v 20.398783 h 0.66218 V 90.146157 Z m -12.47165,69.496423 v 20.39863 h 0.66201 v -20.39863 z m -7.60599,-83.845458 v 22.106363 h 0.66202 V 75.797122 Z M 61.041268,19.537875 v 22.106367 h 0.662173 V 19.537875 Z m 52.260572,73.917729 v 18.744066 h 0.66202 V 93.455604 Z M 239.38164,6.3005432 V 28.407223 h 0.66202 V 6.3005432 Z M 85.281903,86.836702 v 22.053518 h 0.662013 V 86.836702 Z M 195.93834,162.95203 v 18.74391 h 0.66202 V 162.95203 Z M 360.7798,6.3005432 V 28.407223 h 0.66218 V 6.3005432 Z M 225.54187,159.64258 v 20.39863 h 0.66201 V 159.64258 Z M 57.137039,90.146157 v 18.772053 h 0.662012 V 90.146157 Z M 255.14523,156.33312 v 22.05337 h 0.66202 v -22.05337 z m 37.54567,-11.03958 v 22.10622 h 0.66202 V 145.29354 Z M 38.457074,93.455604 v 17.061356 h 0.662021 V 93.455604 Z M 337.09564,145.29354 v 22.10622 h 0.66201 V 145.29354 Z M 162.4739,12.919131 V 35.02534 h 0.66201 V 12.919131 Z M 376.16391,143.63882 v 20.45149 h 0.66218 v -20.45149 z m 21.66045,19.31321 v 18.74391 h 0.66216 v -18.74391 z m 29.60352,-3.30945 v 20.39863 h 0.66201 v -20.39863 z m 29.60336,-3.30946 v 22.05337 h 0.66202 V 156.33312 Z M 628.05068,20.649729 v 20.398946 h 0.66201 V 20.649729 Z M 486.63476,162.95203 v 18.74391 h 0.66202 V 162.95203 Z M 587.58535,20.649729 v 20.398946 h 0.66201 V 20.649729 Z M 524.18043,145.29354 v 22.10622 h 0.66202 V 145.29354 Z M 568.54999,4.6458182 V 25.097769 h 0.66202 V 4.6458182 Z m -171.32839,0 V 25.097769 h 0.66201 V 4.6458182 Z M 135.49701,16.228581 v 22.106206 h 0.66202 V 16.228581 Z m 135.31252,57.913818 v 20.451639 h 0.66202 V 74.142399 Z M 532.1082,6.3005432 V 28.407223 h 0.66202 V 6.3005432 Z M 378.89219,83.527256 v 22.053514 h 0.66217 V 83.527256 Z M 497.18838,23.959334 v 18.744064 h 0.66202 V 23.959334 Z m 66.06033,119.679486 v 20.45149 h 0.66201 V 143.63882 Z M 470.21072,17.340435 v 22.053517 h 0.66201 V 17.340435 Z M 584.90915,159.64258 v 20.39863 h 0.66201 V 159.64258 Z M 443.23384,20.649729 v 20.398946 h 0.66202 V 20.649729 Z M 629.31466,159.64258 v 20.39863 h 0.66202 V 159.64258 Z M 416.25617,23.959334 v 18.744064 h 0.66202 V 23.959334 Z m 18.67684,66.186823 v 20.398783 h 0.66201 V 90.146157 Z M 202.94001,9.6098371 V 31.71667 h 0.66201 V 9.6098371 Z M 84.904453,42.17382 v 1.059164 H 97.878172 V 42.17382 Z m -33.989637,0 v 1.059164 H 63.888527 V 42.17382 Z M 612.63654,10.518896 c -7.84722,0 -15.68668,1.325957 -19.66454,4.050582 a 0.16531304,0.16531304 0 0 0 -0.0192,0.102883 0.16531304,0.16531304 0 0 0 -0.04,0.09678 0.16531304,0.16531304 0 0 0 0.0205,0.0084 0.16531304,0.16531304 0 0 0 -0.004,0.02158 0.16531304,0.16531304 0 0 0 0.10242,0.01923 0.16531304,0.16531304 0 0 0 0.0973,0.04018 c 3.86027,-1.599687 11.69078,-2.420562 19.50772,-2.420562 7.81693,0 15.64729,0.820875 19.50755,2.420562 a 0.16532957,0.16532957 0 0 0 0.15683,-0.289104 c -3.97785,-2.724625 -11.81714,-4.050582 -19.66437,-4.050582 z m 0,0.330695 c 6.90259,0 13.80622,1.060488 17.97666,3.127607 -4.26331,-1.255829 -11.11467,-1.869872 -17.97666,-1.869872 -6.86199,0 -13.7135,0.614043 -17.97682,1.869872 4.17044,-2.067119 11.07423,-3.127607 17.97682,-3.127607 z m -19.57105,3.856224 c 7.82855,-5.3621463 31.31341,-5.3621463 39.14196,0 -7.82855,-3.244138 -31.31341,-3.244138 -39.14196,0 M 611.93043,145.8125 c -8.64901,0 -17.30679,2.57033 -21.66716,7.77985 a 0.16531304,0.16531304 0 0 0 0.007,0.20701 0.16531304,0.16531304 0 0 0 0,0.0128 0.16531304,0.16531304 0 0 0 0.009,0.004 0.16531304,0.16531304 0 0 0 0.005,0.009 0.16531304,0.16531304 0 0 0 0.0128,-0.001 0.16531304,0.16531304 0 0 0 0.20717,-0.006 c 4.24827,-4.03118 12.83658,-6.08665 21.42652,-6.08665 8.58996,0 17.17826,2.05547 21.42653,6.08665 a 0.16532957,0.16532957 0 0 0 0.24048,-0.22609 c -4.36037,-5.20951 -13.018,-7.77985 -21.66701,-7.77985 z m 0,0.33054 c 7.4539,0 14.89718,1.94612 19.51522,5.78771 -4.71674,-3.03304 -12.11215,-4.52967 -19.51522,-4.52967 -7.40295,0 -14.7983,1.49657 -19.51506,4.52951 4.61806,-3.84149 12.06126,-5.78755 19.51506,-5.78755 z m -21.54037,7.55541 c 8.61629,-10.29424 34.46437,-10.29424 43.08066,0 -8.61629,-8.17599 -34.46437,-8.17599 -43.08066,0 M 379.81485,9.2458378 V 36.448658 h 1.19129 V 9.2458378 Z m 171.32839,0 V 36.448658 h 1.19113 V 9.2458378 Z m 126.2163,0 V 36.448658 h 3.64015 V 9.2458378 Z m -3.63967,0 V 36.448658 H 674.911 V 9.2458378 Z m -2.44731,16.9110072 c 0,-0.768526 -0.60921,-1.404961 -1.37774,-1.404961 -0.76852,0 -1.37774,0.636435 -1.37774,1.404961 0,0.768525 0.60922,1.40416 1.37774,1.40416 0.76853,0 1.37774,-0.635635 1.37774,-1.40416 m 0,-6.619006 c 0,-0.768445 -0.60921,-1.4044 -1.37774,-1.4044 -0.76852,0 -1.37774,0.635955 -1.37774,1.4044 0,0.768445 0.60922,1.4044 1.37774,1.4044 0.76853,0 1.37774,-0.635955 1.37774,-1.4044 M 75.817467,78.742416 v 27.202514 h 1.191127 V 78.742416 Z M 677.35954,148.23869 v 27.20266 h 3.64015 v -27.20266 z m -3.63967,0 v 27.20266 H 674.911 V 148.23869 Z M 369.42775,78.742416 v 27.202514 h 1.19128 V 78.742416 Z M 77.62339,9.2458378 V 36.448658 h 1.191279 V 9.2458378 Z M 547.01323,78.742416 v 27.202514 h 1.19113 V 78.742416 Z m 132.79564,0 V 105.94493 H 681 V 78.742416 Z M 186.4739,148.23869 v 27.20266 h 1.19113 v -27.20266 z m 172.28265,0 v 27.20266 h 1.19112 v -27.20266 z m 187.08464,0 v 27.20266 h 1.19127 V 148.23869 Z M 253.40201,78.742416 v 27.202514 h 1.19128 V 78.742416 Z M 221.97489,9.2458378 V 36.448658 h 1.19129 V 9.2458378 Z M 0,174.7132 v 0.72768 h 681 v -0.72768 z m 0,-6.61812 v 0.72768 h 681 v -0.72768 z m 0,-6.6189 v 0.72768 h 681 v -0.72768 z m 0,-6.6189 v 0.72768 h 681 v -0.72768 z m 0,-6.61891 v 0.72769 h 681 v -0.72769 z m 0,-43.02144 v 0.72769 h 681 v -0.72769 z m 0,-6.618121 v 0.727681 h 681 v -0.727681 z m 0,-6.618902 v 0.727682 h 681 v -0.727682 z m 0,-6.619054 v 0.727842 h 681 v -0.727842 z m 0,-6.618901 v 0.727681 H 681 V 78.741952 Z M 0,35.720656 v 0.727689 h 681 v -0.727689 z m 0,-6.618269 v 0.727841 h 681 v -0.727841 z m 0,-6.61906 v 0.727685 h 681 v -0.727685 z m 0,-6.618588 v 0.727684 H 681 V 15.864739 Z M 0,9.2459947 V 9.9736795 H 681 V 9.2459947 Z"
     style="stroke-width:0.0800547" />
  <metadata
     id="metadata153">
    <rdf:RDF>
      <cc:Work
         rdf:about="">
        <dc:title>air_V</dc:title>
      </cc:Work>
    </rdf:RDF>
  </metadata>
</svg>
