<?xml version="1.0" encoding="UTF-8" standalone="no"?>
<svg
   width="681"
   height="119.16004"
   version="1.2"
   id="svg91"
   xmlns="http://www.w3.org/2000/svg"
   xmlns:svg="http://www.w3.org/2000/svg"
   xmlns:rdf="http://www.w3.org/1999/02/22-rdf-syntax-ns#"
   xmlns:cc="http://creativecommons.org/ns#"
   xmlns:dc="http://purl.org/dc/elements/1.1/">
  <defs
     id="defs91" />
  <title
     id="title1">air_VII</title>
  <desc
     id="desc1">Generated by MuseScore Studio 4.7.3</desc>
  <path
     id="path91"
     class="NoteDot"
     d="m 131.47388,28.706188 c 0,0.742107 0.5828,1.324906 1.3249,1.324906 0.74131,0 1.32491,-0.582799 1.32491,-1.324906 0,-0.741307 -0.5836,-1.324906 -1.32491,-1.324906 -0.7421,0 -1.3249,0.583599 -1.3249,1.324906 m 99.03892,79.421502 26.7711,-1.65473 v 3.31587 l -26.7711,1.65473 v -3.31587 M 63.075115,20.653962 c -0.662053,0.42397 -1.139179,1.192415 -1.139179,2.040355 0,0.105993 0,0.211985 0.02642,0.317978 0.13209,1.086743 1.007088,1.934522 2.093431,2.066613 h 0.291399 c 1.324906,0 2.384831,-1.059925 2.384831,-2.384591 v -0.158989 c 0,-0.105992 -0.02642,-0.291479 -0.05284,-0.397471 -0.238563,-1.139419 -1.27207,-3.577246 -5.77675,-3.577246 -5.77675,0 -6.438802,4.796319 -6.438802,6.518297 0,3.153356 0.397071,7.101655 7.021601,7.101655 2.623393,0 4.663989,-1.537051 4.769661,-4.371789 0,-0.132891 -0.07925,-0.212145 -0.212145,-0.212145 h -0.344236 c -0.105672,0 -0.212145,0.105672 -0.212145,0.212145 -0.105672,2.199104 -1.669141,3.52401 -4.001135,3.52401 -2.305577,0 -3.418338,-1.245652 -3.418338,-3.577646 v -5.060821 c 0,-1.483894 0.582799,-3.179774 2.941211,-3.179774 1.245652,0 1.802032,0.450468 2.093432,0.900936 0.02642,0.053 0.02642,0.07949 0.02642,0.132491 0,0.0265 0,0.07949 -0.05284,0.105992 m -19.625419,55.732027 2.358412,-0.477127 v 4.37179 l -2.358412,0.503544 V 76.385989 M 47.5565,75.564627 c 0.159309,-0.02642 0.2922,-0.212145 0.2922,-0.371454 v -1.563469 c 0,-0.211344 -0.159309,-0.370653 -0.371454,-0.370653 h -0.05284 l -0.874198,0.185727 v -3.9483 H 45.8081 v 4.106808 l -2.358412,0.477126 V 70.344258 H 42.70758 v 3.895463 l -1.033506,0.211345 c -0.158509,0.02722 -0.291399,0.212145 -0.291399,0.371454 v 1.537051 c 0,0.211344 0.159308,0.370653 0.371453,0.370653 h 0.07925 l 0.874197,-0.185727 v 4.37259 l -1.033506,0.212145 c -0.158509,0.02642 -0.291399,0.211344 -0.291399,0.370653 v 1.537051 c 0,0.212145 0.159308,0.370654 0.371453,0.370654 h 0.07925 l 0.874197,-0.184927 v 3.947499 h 0.742108 v -4.106808 l 2.358412,-0.477126 v 3.736155 h 0.742108 V 82.42772 l 1.006288,-0.185727 c 0.159309,-0.02642 0.2922,-0.212145 0.2922,-0.371454 V 80.30787 c 0,-0.212145 -0.159309,-0.371454 -0.371454,-0.371454 h -0.05284 l -0.874198,0.185727 v -4.372589 l 1.006288,-0.184927 M 36.194335,89.62304 38.552748,89.145913 v 4.37259 l -2.358413,0.503544 V 89.62304 m 4.107609,-0.821362 c 0.159308,-0.02642 0.291399,-0.212145 0.291399,-0.370654 v -1.563469 c 0,-0.212145 -0.159309,-0.371454 -0.370654,-0.371454 h -0.05364 l -0.874198,0.185727 v -3.948299 h -0.742107 v 4.107608 l -2.358413,0.477127 v -3.736955 h -0.741307 v 3.895463 l -1.033507,0.212145 c -0.159308,0.02642 -0.291399,0.212145 -0.291399,0.370654 v 1.53705 c 0,0.212146 0.158509,0.371454 0.370654,0.371454 h 0.07925 l 0.874998,-0.185727 v 4.37179 l -1.033507,0.212145 c -0.159308,0.02642 -0.291399,0.212145 -0.291399,0.371454 v 1.53625 c 0,0.212145 0.158509,0.371454 0.370654,0.371454 h 0.07925 l 0.874998,-0.185727 v 3.948296 h 0.741307 v -4.107605 l 2.358413,-0.476326 v 3.736155 h 0.742107 v -3.895463 l 1.007089,-0.185727 c 0.159308,-0.02642 0.291399,-0.211345 0.291399,-0.370654 v -1.563469 c 0,-0.212145 -0.159309,-0.370653 -0.370654,-0.370653 h -0.05364 l -0.874198,0.184926 v -4.371789 l 1.007089,-0.185727 m -11.361369,-9.106226 2.358413,-0.477127 v 4.37179 l -2.358413,0.503544 v -4.398207 m 4.107609,-0.821362 c 0.159309,-0.02722 0.291399,-0.212145 0.291399,-0.371454 v -1.563469 c 0,-0.212145 -0.159309,-0.370653 -0.370653,-0.370653 h -0.05364 l -0.874198,0.185727 v -3.9483 h -0.742107 v 4.106808 l -2.358413,0.477126 v -3.736154 h -0.741307 v 3.895463 l -1.033506,0.211345 c -0.159309,0.02642 -0.2914,0.212145 -0.2914,0.371454 v 1.53705 c 0,0.211345 0.158509,0.370654 0.370654,0.370654 h 0.07925 l 0.874998,-0.185727 v 4.37259 l -1.033506,0.212145 c -0.159309,0.02642 -0.2914,0.211344 -0.2914,0.370653 v 1.537051 c 0,0.212145 0.158509,0.370654 0.370654,0.370654 h 0.07925 l 0.874998,-0.185727 v 3.948299 h 0.741307 v -4.106808 l 2.358413,-0.477126 v 3.736155 h 0.742107 v -3.895464 l 1.007089,-0.184926 c 0.159309,-0.02642 0.291399,-0.212145 0.291399,-0.371454 v -1.563469 c 0,-0.211345 -0.159309,-0.370654 -0.370653,-0.370654 h -0.05364 l -0.874198,0.185727 v -4.37259 L 33.048184,78.87409 M 43.449696,6.8895107 45.808108,6.4125446 v 4.3721894 l -2.358412,0.503464 V 6.8895107 M 47.556504,6.068069 c 0.159309,-0.026498 0.2922,-0.2119849 0.2922,-0.3709736 v -1.563389 c 0,-0.2119849 -0.159309,-0.3709736 -0.371454,-0.3709736 H 47.42441 L 46.550216,3.9482196 V 0 H 45.808108 V 4.1072083 L 43.449696,4.5841744 V 0.84793978 H 42.707588 V 4.7431631 l -1.033506,0.211985 c -0.158509,0.026498 -0.291399,0.2119849 -0.291399,0.3709736 v 1.5368909 c 0,0.2119849 0.159308,0.3709736 0.371453,0.3709736 h 0.07925 l 0.874197,-0.1854868 v 4.3721896 l -1.033506,0.211985 c -0.158509,0.0265 -0.291399,0.211985 -0.291399,0.370973 v 1.536891 c 0,0.211985 0.159308,0.370974 0.371453,0.370974 h 0.07925 l 0.874197,-0.185487 v 3.94822 h 0.742108 v -4.107209 l 2.358412,-0.476966 v 3.736235 h 0.742108 v -3.895223 l 1.006288,-0.185487 c 0.159309,-0.0265 0.2922,-0.211985 0.2922,-0.370974 v -1.563389 c 0,-0.211985 -0.159309,-0.370974 -0.371454,-0.370974 H 47.4244 l -0.874198,0.185487 V 6.2535559 L 47.556504,6.068069 m -11.362169,14.058813 2.358413,-0.476966 v 4.372269 l -2.358413,0.503544 v -4.398847 m 4.107609,-0.821442 c 0.159308,-0.0265 0.291399,-0.211985 0.291399,-0.370974 v -1.563389 c 0,-0.211985 -0.159309,-0.370973 -0.370654,-0.370973 h -0.05364 l -0.874198,0.185487 v -3.94822 h -0.742107 v 4.107208 l -2.358413,0.476966 v -3.736234 h -0.741307 v 3.895223 l -1.033507,0.211985 c -0.159308,0.0265 -0.291399,0.211985 -0.291399,0.370974 v 1.536891 c 0,0.211985 0.158509,0.370973 0.370654,0.370973 h 0.07925 L 35.45302,20.28587 v 4.37195 l -1.033507,0.212145 c -0.159308,0.02642 -0.291399,0.212145 -0.291399,0.371454 v 1.53625 c 0,0.212145 0.158509,0.371454 0.370654,0.371454 h 0.07925 l 0.874998,-0.185727 v 3.9483 h 0.741307 v -4.107609 l 2.358413,-0.476325 v 3.736154 h 0.742107 v -3.895463 l 1.007089,-0.185727 c 0.159308,-0.02642 0.291399,-0.211345 0.291399,-0.370654 v -1.563469 c 0,-0.212145 -0.159309,-0.370653 -0.370654,-0.370653 h -0.05364 l -0.874198,0.184926 V 19.490927 L 40.301944,19.30544 M 28.940575,10.198813 31.298988,9.7218473 v 4.3721897 l -2.358413,0.503464 v -4.398688 m 4.107609,-0.8214412 c 0.159309,-0.026498 0.291399,-0.211985 0.291399,-0.3709737 v -1.563389 c 0,-0.2119849 -0.159309,-0.3709736 -0.370653,-0.3709736 H 32.91529 L 32.041095,7.2575223 V 3.3093027 H 31.298988 V 7.416511 L 28.940575,7.8934771 V 4.1572425 h -0.741307 v 3.8952234 l -1.033506,0.2119849 c -0.159309,0.026498 -0.2914,0.2119849 -0.2914,0.3709736 v 1.5368906 c 0,0.211985 0.158509,0.370974 0.370654,0.370974 h 0.07925 l 0.874998,-0.185487 v 4.37219 l -1.033506,0.211985 c -0.159309,0.0265 -0.2914,0.211984 -0.2914,0.370973 v 1.536891 c 0,0.211985 0.158509,0.370974 0.370654,0.370974 h 0.07925 l 0.874998,-0.185487 v 3.948219 h 0.741307 v -4.107208 l 2.358413,-0.476966 v 3.736235 h 0.742107 v -3.895224 l 1.007089,-0.185487 c 0.159309,-0.0265 0.291399,-0.211984 0.291399,-0.370973 v -1.563389 c 0,-0.211985 -0.159309,-0.370974 -0.370653,-0.370974 h -0.05364 l -0.874198,0.185487 V 9.5628586 l 1.0071,-0.1854868 M 16.093311,106.9709 c -0.529962,0.10567 -1.033427,0.15851 -1.536891,0.15851 -3.789231,0 -7.0220012,-2.64981 -7.0220012,-6.65095 0,-3.232608 2.2788382,-6.120983 4.6106722,-8.13436 0.450468,-0.397872 0.874438,-0.768525 1.27191,-1.166397 0.238483,1.431378 0.42397,2.676229 0.609457,3.762572 -2.411329,0.71569 -4.0542123,3.259829 -4.0542123,5.750335 0,1.85487 1.4573963,4.399 3.5772463,4.399 0.211985,0 0.450468,-0.10647 0.450468,-0.34503 0,-0.23776 -0.264982,-0.37065 -0.582959,-0.5828 -1.033427,-0.63563 -1.616385,-1.32491 -1.616385,-2.62339 0,-1.616309 1.192415,-2.914796 2.755804,-3.28545 l 1.536891,8.71796 M 13.761477,79.730676 c 0.238483,-1.059925 1.457396,-3.841827 2.835298,-3.841827 0.397472,0 1.033427,1.297687 1.033427,3.126137 0,2.756285 -2.040355,4.823298 -3.868725,6.62453 -0.158989,-1.059925 -0.29148,-2.093432 -0.29148,-3.206192 0,-0.97987 0.0795,-1.881287 0.29148,-2.702648 m 6.094567,22.337674 c 0,1.88129 -0.768446,3.81621 -2.649812,4.58473 -0.556461,-3.17977 -1.27191,-7.393051 -1.457397,-8.559449 2.384831,0 4.107209,1.616305 4.107209,3.974719 M 8.1968718,115.10606 c 0,1.7484 1.351404,4.05398 4.9286502,4.05398 1.245411,0 2.331834,-0.31782 3.285766,-0.90142 1.430899,-1.00629 1.801872,-2.75549 1.801872,-4.42463 0,-1.0335 -0.158988,-2.22632 -0.423969,-3.73615 -0.07949,-0.52996 -0.238484,-1.32491 -0.397472,-2.35841 2.596815,-0.84778 4.531178,-3.55123 4.531178,-6.2803 0,-4.001133 -2.835299,-6.703781 -6.704024,-6.703781 -0.264981,-1.589887 -0.529962,-3.153356 -0.768445,-4.637571 2.8088,-2.941211 4.743163,-6.253076 4.743163,-10.466357 0,-2.411248 -0.741948,-4.372589 -1.165917,-5.326041 -0.635955,-1.351324 -1.404401,-2.279159 -1.881367,-2.279159 -0.185487,0 -1.006928,0.317818 -1.881366,1.351324 -1.69588,2.014178 -2.172846,5.406097 -2.172846,7.631618 0,1.430579 0.132491,2.729066 0.582959,5.696696 -0.0265,0.02722 -1.404401,1.431378 -1.960861,1.882086 -2.4113287,2.25194 -5.7500916,5.458132 -5.7500916,10.757756 0,4.955389 4.3191932,8.850849 9.2478436,8.850849 0.768445,0 1.483894,-0.08 2.093351,-0.18572 0.503464,2.54333 0.794943,4.3982 0.794943,5.80316 0,2.75549 -1.4044,4.21328 -4.08071,4.21328 -0.635955,0 -1.192415,-0.13289 -1.245411,-0.13289 -0.0265,-0.0264 -0.07949,-0.0528 -0.07949,-0.0792 0,-0.0528 0.053,-0.0793 0.132491,-0.10647 1.245412,-0.18493 2.490823,-1.24485 2.490823,-2.94121 0,-1.43058 -1.086423,-2.94122 -3.073782,-2.94122 -1.8548679,0 -3.0472832,1.51064 -3.0472832,3.25983 M 16.093311,37.474583 c -0.529962,0.105672 -1.033427,0.158509 -1.536891,0.158509 -3.789231,0 -7.0220012,-2.649812 -7.0220012,-6.650948 0,-3.23261 2.2788382,-6.120985 4.6106722,-8.134682 0.450468,-0.397472 0.874438,-0.768446 1.27191,-1.165917 0.238483,1.430898 0.42397,2.676069 0.609457,3.762412 -2.411329,0.71569 -4.0542123,3.259829 -4.0542123,5.750332 0,1.854868 1.4573963,4.399008 3.5772463,4.399008 0.211985,0 0.450468,-0.106473 0.450468,-0.345036 0,-0.238563 -0.264982,-0.370654 -0.582959,-0.582799 -1.033427,-0.635634 -1.616385,-1.324905 -1.616385,-2.623393 0,-1.616305 1.192415,-2.914793 2.755804,-3.285447 l 1.536891,8.717961 M 13.761477,10.234358 c 0.238483,-1.059925 1.457396,-3.8422274 2.835298,-3.8422274 0.397472,0 1.033427,1.2984078 1.033427,3.1267779 0,2.7558045 -2.040355,4.8226575 -3.868725,6.6245295 -0.158989,-1.059925 -0.29148,-2.093351 -0.29148,-3.206272 0,-0.980431 0.0795,-1.881367 0.29148,-2.702808 m 6.094567,22.337673 c 0,1.881286 -0.768446,3.816209 -2.649812,4.584735 -0.556461,-3.179774 -1.27191,-7.393055 -1.457397,-8.559453 2.384831,0 4.107209,1.616305 4.107209,3.974718 M 8.1968718,45.608945 c 0,1.749196 1.351404,4.054772 4.9286502,4.054772 1.245411,0 2.331834,-0.317817 3.285766,-0.901416 1.430899,-1.006288 1.801872,-2.755484 1.801872,-4.424625 0,-1.033507 -0.158988,-2.226322 -0.423969,-3.736155 -0.07949,-0.529962 -0.238484,-1.324906 -0.397472,-2.358412 2.596815,-0.848581 4.531178,-3.551229 4.531178,-6.280295 0,-4.001135 -2.835299,-6.703783 -6.704024,-6.703783 -0.264981,-1.589887 -0.529962,-3.153516 -0.768445,-4.637411 2.8088,-2.941291 4.743163,-6.253556 4.743163,-10.466757 0,-2.4113284 -0.741948,-4.3721891 -1.165917,-5.3261214 -0.635955,-1.351404 -1.404401,-2.2788381 -1.881367,-2.2788381 -0.185487,0 -1.006928,0.3179774 -1.881366,1.351404 -1.69588,2.013857 -2.172846,5.4056161 -2.172846,7.6314575 0,1.430899 0.132491,2.729307 0.582959,5.697096 -0.0265,0.0265 -1.404401,1.430898 -1.960861,1.881366 -2.4113287,2.25234 -5.7500916,5.458533 -5.7500916,10.758156 0,4.955388 4.3191932,8.850051 9.2478436,8.850051 0.768445,0 1.483894,-0.07925 2.093351,-0.184926 0.503464,2.543339 0.794943,4.398207 0.794943,5.803168 0,2.755484 -1.4044,4.213281 -4.08071,4.213281 -0.635955,0 -1.192415,-0.132891 -1.245411,-0.132891 -0.0265,-0.02642 -0.07949,-0.05284 -0.07949,-0.07925 0,-0.05284 0.053,-0.08005 0.132491,-0.106473 1.245412,-0.184927 2.490823,-1.244851 2.490823,-2.941211 0,-1.430578 -1.086423,-2.941211 -3.073782,-2.941211 -1.8548679,0 -3.0472832,1.510633 -3.0472832,3.259028 m 95.3587132,43.77873 c 0,1.139179 0.82136,2.411248 2.96763,2.411248 2.75548,0 5.64386,-2.251939 5.64386,-4.583934 0,-1.563469 -1.32491,-2.437667 -2.96763,-2.437667 -2.57056,0 -5.64386,2.172686 -5.64386,4.610353 M 438.86005,33.128411 c 0,1.13998 0.82137,2.411249 2.96763,2.411249 2.75549,0 5.64386,-2.25194 5.64386,-4.583934 0,-1.563469 -1.3249,-2.437667 -2.96763,-2.437667 -2.57056,0 -5.64386,2.172686 -5.64386,4.610352 m 49.15601,66.187656 c 0,1.139183 0.82217,2.411253 2.96843,2.411253 2.75549,0 5.64386,-2.252745 5.64386,-4.584739 0,-1.563469 -1.3249,-2.437667 -2.96763,-2.437667 -2.57055,0 -5.64466,2.172686 -5.64466,4.611153 M 474.4732,29.819749 c 0,1.139179 0.82137,2.411249 2.96763,2.411249 2.75549,0 5.64386,-2.25274 5.64386,-4.584735 0,-1.563469 -1.3249,-2.437667 -2.96763,-2.437667 -2.57055,0 -5.64386,2.172686 -5.64386,4.611153 m -25.62071,72.804981 c 0,1.13998 0.82136,2.41205 2.96762,2.41205 2.75549,0 5.64386,-2.25274 5.64386,-4.58474 0,-1.563465 -1.3249,-2.437663 -2.96763,-2.437663 -2.57055,0 -5.64385,2.172683 -5.64385,4.610353 m 61.23306,-76.114444 c 0,1.139179 0.82137,2.411249 2.96763,2.411249 2.75629,0 5.64466,-2.25274 5.64466,-4.584735 0,-1.562988 -1.3249,-2.437426 -2.96763,-2.437426 -2.57055,0 -5.64466,2.172445 -5.64466,4.610912 M 409.68811,105.93419 c 0,1.13998 0.82136,2.41125 2.96763,2.41125 2.75628,0 5.64466,-2.25194 5.64466,-4.58393 0,-1.56347 -1.32491,-2.43767 -2.96843,-2.43767 -2.56976,0 -5.64386,2.17269 -5.64386,4.61035 M 119.55853,33.128411 c 0,1.13998 0.82136,2.411249 2.96843,2.411249 2.75549,0 5.64386,-2.25194 5.64386,-4.583934 0,-1.563469 -1.32491,-2.437667 -2.96763,-2.437667 -2.57056,0 -5.64466,2.172686 -5.64466,4.610352 m 104.50105,6.618926 c 0,1.139179 0.82137,2.411249 2.96763,2.411249 2.75549,0 5.64386,-2.25194 5.64386,-4.583934 0,-1.563469 -1.3249,-2.437667 -2.96763,-2.437667 -2.57055,0 -5.64386,2.172685 -5.64386,4.610352 M 403.2469,36.437874 c 0,1.13998 0.82136,2.411249 2.96763,2.411249 2.75629,0 5.64466,-2.25194 5.64466,-4.583934 0,-1.563469 -1.3249,-2.437667 -2.96843,-2.437667 -2.56976,0 -5.64386,2.172686 -5.64386,4.610352 m -42.18724,72.805786 c 0,1.13917 0.82136,2.41124 2.96763,2.41124 2.75548,0 5.64386,-2.25194 5.64386,-4.58393 0,-1.56347 -1.32491,-2.43767 -2.96763,-2.43767 -2.57056,0 -5.64386,2.17269 -5.64386,4.61036 M 555.16358,23.200663 c 0,1.139339 0.82136,2.411409 2.96762,2.411409 2.75549,0 5.64386,-2.25274 5.64386,-4.584254 0,-1.563389 -1.3249,-2.437827 -2.96763,-2.437827 -2.57055,0 -5.64385,2.172846 -5.64385,4.610672 m -233.2683,86.042997 c 0,1.13917 0.82136,2.41124 2.96763,2.41124 2.75628,0 5.64466,-2.25194 5.64466,-4.58393 0,-1.56347 -1.32491,-2.43767 -2.96843,-2.43767 -2.56976,0 -5.64386,2.17269 -5.64386,4.61036 m 270.8684,-84.87724 c -0.87419,0 -1.05992,-0.714888 -1.05992,-0.953451 0,-1.298728 4.45184,-3.577567 5.6975,-3.577567 0.63563,0 1.05992,0.370974 1.05992,0.953933 0,1.324906 -4.47826,3.577085 -5.6975,3.577085 m 3.65691,-5.776429 c -2.57056,0 -5.64386,2.146347 -5.64386,4.610672 0,1.139339 0.82136,2.411409 2.96763,2.411409 2.75548,0 5.64385,-2.25274 5.64385,-4.584254 0,-1.563389 -1.3249,-2.437827 -2.96762,-2.437827 M 282.7309,86.078216 c 0,1.139179 0.82136,2.411248 2.96843,2.411248 2.75548,0 5.64386,-2.251939 5.64386,-4.583934 0,-1.563469 -1.32491,-2.437667 -2.96763,-2.437667 -2.57056,0 -5.64466,2.172686 -5.64466,4.610353 M 644.19565,19.891281 c 0,1.139419 0.82136,2.411328 2.96763,2.411328 2.75628,0 5.64466,-2.25234 5.64466,-4.584174 0,-1.563389 -1.32491,-2.437827 -2.96843,-2.437827 -2.56976,0 -5.64386,2.172846 -5.64386,4.610673 M 164.7046,36.437874 c 0,1.13998 0.82136,2.411249 2.96763,2.411249 2.75548,0 5.64386,-2.25194 5.64386,-4.583934 0,-1.563469 -1.32491,-2.437667 -2.96763,-2.437667 -2.57056,0 -5.64386,2.172686 -5.64386,4.610352 m 91.91725,52.949805 c 0,1.139179 0.82136,2.411248 2.96763,2.411248 2.75628,0 5.64386,-2.251939 5.64386,-4.583934 0,-1.563469 -1.32491,-2.437667 -2.96763,-2.437667 -2.56976,0 -5.64386,2.172686 -5.64386,4.610353 M 79.96026,26.510286 c 0,1.139179 0.821358,2.411249 2.967626,2.411249 2.755484,0 5.643859,-2.25274 5.643859,-4.584735 0,-1.562988 -1.324906,-2.437426 -2.967629,-2.437426 -2.570558,0 -5.643856,2.172445 -5.643856,4.610912 m 278.20862,13.237051 c 0,1.139179 0.82216,2.411249 2.96843,2.411249 2.75548,0 5.64386,-2.25194 5.64386,-4.583934 0,-1.563469 -1.32491,-2.437667 -2.96763,-2.437667 -2.57056,0 -5.64466,2.172685 -5.64466,4.610352 M 230.5128,92.697141 c 0,1.139179 0.82136,2.411249 2.96763,2.411249 2.75548,0 5.64385,-2.25274 5.64385,-4.583934 0,-1.563469 -1.3249,-2.438467 -2.96762,-2.438467 -2.57056,0 -5.64386,2.173486 -5.64386,4.611152 m 345.29689,13.237049 c 0,1.13998 0.82136,2.41125 2.96763,2.41125 2.75549,0 5.64386,-2.25194 5.64386,-4.58393 0,-1.56347 -1.32491,-2.43767 -2.96763,-2.43767 -2.57056,0 -5.64386,2.17269 -5.64386,4.61035 M 322.55653,39.747337 c 0,1.139179 0.82136,2.411249 2.96763,2.411249 2.75548,0 5.64386,-2.25194 5.64386,-4.583934 0,-1.563469 -1.32491,-2.437667 -2.96763,-2.437667 -2.57056,0 -5.64386,2.172685 -5.64386,4.610352 m 294.4045,67.353253 c -0.875,0 -1.05993,-0.71569 -1.05993,-0.95425 0,-1.29849 4.45105,-3.57685 5.6967,-3.57685 0.63644,0 1.05992,0.37066 1.05992,0.95345 0,1.32491 -4.47826,3.57765 -5.69669,3.57765 m 3.6561,-5.77675 c -2.56976,0 -5.64386,2.14627 -5.64386,4.61035 0,1.13998 0.82136,2.41125 2.96763,2.41125 2.75628,0 5.64466,-2.25194 5.64466,-4.58393 0,-1.56347 -1.32491,-2.43767 -2.96843,-2.43767 M 181.88355,96.006604 c 0,1.139179 0.82136,2.411249 2.96763,2.411249 2.75628,0 5.64466,-2.25274 5.64466,-4.584735 0,-1.562668 -1.32491,-2.437667 -2.96843,-2.437667 -2.56976,0 -5.64386,2.172686 -5.64386,4.611153 m 6.56288,-56.259267 c 0,1.139179 0.82137,2.411249 2.96763,2.411249 2.75549,0 5.64386,-2.25194 5.64386,-4.583934 0,-1.563469 -1.3249,-2.437667 -2.96763,-2.437667 -2.57055,0 -5.64386,2.172685 -5.64386,4.610352 m -45.72726,52.949804 c 0,1.139179 0.82216,2.411249 2.96843,2.411249 2.75548,0 5.64386,-2.25274 5.64386,-4.583934 0,-1.563469 -1.32491,-2.438467 -2.96763,-2.438467 -2.57056,0 -5.64466,2.173486 -5.64466,4.611152 M 64.391215,86.078216 c 0,1.139179 0.821361,2.411248 2.967629,2.411248 2.756284,0 5.644659,-2.251939 5.644659,-4.583934 0,-1.563469 -1.324906,-2.437667 -2.968429,-2.437667 -2.569758,0 -5.643859,2.172686 -5.643859,4.610353 M 527.18044,102.62473 c 0,1.13998 0.82136,2.41205 2.96763,2.41205 2.75629,0 5.64466,-2.25274 5.64466,-4.58474 0,-1.563465 -1.3249,-2.437663 -2.96843,-2.437663 -2.56976,0 -5.64386,2.172683 -5.64386,4.610353 M 271.12456,40.912934 c -0.87499,0 -1.05992,-0.714889 -1.05992,-0.953452 0,-1.298488 4.45104,-3.577646 5.6967,-3.577646 0.63643,0 1.05992,0.371454 1.05992,0.954252 0,1.324906 -4.47826,3.576846 -5.6967,3.576846 m 3.6561,-5.775949 c -2.56975,0 -5.64385,2.146267 -5.64385,4.610352 0,1.139179 0.82136,2.411249 2.96762,2.411249 2.75629,0 5.64466,-2.25194 5.64466,-4.583934 0,-1.563469 -1.3249,-2.437667 -2.96843,-2.437667 M 172.64683,18.174747 c 0,0.07949 0.0264,0.211985 0.21215,0.291479 1.13917,0.370974 3.41833,1.801872 5.14031,4.743163 0.47713,0.821602 1.24565,1.960781 1.24565,4.159885 0,1.908505 -0.50354,3.869045 -1.19281,5.77675 -0.0528,0.159308 -0.10568,0.291399 -0.0793,0.397872 0,0.158508 0.10567,0.264981 0.26498,0.264981 0.18573,0 0.31782,-0.106473 0.42429,-0.2914 1.19202,-2.119849 1.64273,-4.584734 1.64273,-6.995983 -0.13289,-3.418097 -2.09343,-5.935418 -2.09343,-5.935418 0.0793,0 -2.43767,-3.259269 -3.15336,-4.37219 -0.98067,-1.510393 -1.43058,-3.020785 -1.48422,-3.126778 -0.0264,-0.07949 -0.26498,-1.033426 -0.26498,-1.033426 -0.0264,-0.105993 -0.1585,-0.211985 -0.31781,-0.211985 -0.18493,0 -0.34424,0.158988 -0.34424,0.344475 v 5.988575 M 103.55517,89.38691 v 22.05352 h 0.66202 V 89.38691 Z m 92.83317,-73.917886 v 22.106364 h 0.66202 V 15.469024 Z m 34.12411,77.227333 v 17.068393 h 0.66201 V 92.696357 Z m 1.48899,-77.227333 v 22.106364 h 0.66201 V 15.469024 Z M 79.959828,26.508757 v 18.744697 h 0.662009 V 26.508757 Z M 256.6214,89.38691 v 18.76393 h 0.66217 V 89.38691 Z m 26.10988,-3.309455 v 22.053365 h 0.66202 V 86.077455 Z M 644.19609,19.890329 v 22.05367 h 0.66201 V 19.890329 Z M 329.83787,84.965447 v 22.106363 h 0.66216 V 84.965447 Z M 590.77629,23.199779 v 20.398952 h 0.66216 V 23.199779 Z M 369.00152,84.965447 v 22.106363 h 0.66201 V 84.965447 Z M 555.16318,23.199779 v 20.398952 h 0.66202 V 23.199779 Z M 172.64648,12.212735 v 22.053206 h 0.66202 V 12.212735 Z M 417.63071,81.656 v 22.10636 h 0.66201 V 81.656 Z m 39.16365,-3.309455 v 22.106375 h 0.66202 V 78.346545 Z m 53.29159,-51.837788 v 18.744697 h 0.66202 V 26.508757 Z m -14.12731,50.183065 v 20.452424 h 0.66217 V 76.691822 Z M 482.415,7.1957112 V 27.64704 h 0.66201 V 7.1957112 Z m 52.70807,71.1508338 v 22.106375 h 0.66202 V 78.346545 Z M 446.8019,8.8504363 V 30.956486 h 0.66202 V 8.8504363 Z M 142.71961,92.696357 v 20.398793 h 0.66202 V 92.696357 Z M 411.18958,12.15973 v 22.106211 h 0.66202 V 12.15973 Z m -134.11013,3.309294 v 22.106364 h 0.66202 V 15.469024 Z M 127.50123,8.8504363 V 30.956486 h 0.66203 V 8.8504363 Z M 583.75148,81.656 v 22.10636 h 0.66217 V 81.656 Z M 366.11158,15.469024 v 22.106364 h 0.66201 V 15.469024 Z M 622.91592,81.656 v 22.10636 h 0.66201 V 81.656 Z M 330.49832,15.469024 v 22.106364 h 0.66217 V 15.469024 Z M 181.88311,96.005027 v 18.744853 h 0.66202 V 96.005027 Z M 64.391687,86.077455 v 22.053365 h 0.662012 V 86.077455 Z m 573.755833,-69.259956 2.35841,-0.476966 v 4.372189 l -2.35841,0.503465 v -4.398688 m 4.1068,-0.821442 c 0.15931,-0.0265 0.2914,-0.211985 0.2914,-0.370973 v -1.563389 c 0,-0.211985 -0.15851,-0.370974 -0.37065,-0.370974 h -0.0528 l -0.87499,0.185487 V 9.9279882 h -0.74131 v 4.1072088 l -2.35841,0.476966 v -3.736235 h -0.74211 v 3.895223 l -1.03351,0.211985 c -0.15931,0.0265 -0.2914,0.211985 -0.2914,0.370974 v 1.536891 c 0,0.211985 0.15931,0.370973 0.37066,0.370973 h 0.0801 l 0.8742,-0.185486 v 4.372189 l -1.03351,0.211985 c -0.15931,0.0265 -0.2914,0.211985 -0.2914,0.370974 v 1.53657 c 0,0.212145 0.15931,0.371454 0.37066,0.371454 h 0.0801 l 0.8742,-0.185727 v 3.9483 h 0.74211 v -4.106808 l 2.35841,-0.477366 v 3.736394 h 0.74131 V 22.85907 l 1.00708,-0.185487 c 0.15931,-0.0265 0.2914,-0.211985 0.2914,-0.370974 V 20.73922 c 0,-0.211985 -0.15851,-0.370973 -0.37065,-0.370973 h -0.0528 l -0.87499,0.185487 v -4.37219 l 1.00708,-0.185487 m -391.68061,70.31752 2.35762,-0.476326 v 4.371789 l -2.35762,0.503544 v -4.399007 m 4.10681,-0.821362 c 0.15931,-0.02642 0.2914,-0.212145 0.2914,-0.370653 v -1.563469 c 0,-0.212145 -0.15851,-0.370654 -0.37065,-0.370654 h -0.0528 l -0.875,0.184927 v -3.9483 h -0.7421 v 4.107609 l -2.35762,0.477126 v -3.736155 h -0.7421 v 3.894663 l -1.03351,0.212145 c -0.15931,0.02642 -0.2914,0.212145 -0.2914,0.370654 v 1.537051 c 0,0.212145 0.15851,0.371454 0.37065,0.371454 h 0.0793 l 0.875,-0.185727 v 4.371789 l -1.03351,0.212145 c -0.15931,0.02642 -0.2914,0.212145 -0.2914,0.371454 v 1.53625 c 0,0.212145 0.15851,0.371454 0.37065,0.371454 h 0.0793 l 0.875,-0.185727 v 3.9483 h 0.7421 v -4.106808 l 2.35762,-0.477126 v 3.736154 h 0.7421 v -3.895463 l 1.00709,-0.185727 c 0.15931,-0.02642 0.2914,-0.211345 0.2914,-0.370654 v -1.563469 c 0,-0.212145 -0.15851,-0.370653 -0.37065,-0.370653 h -0.0528 l -0.875,0.184926 v -4.371789 l 1.00709,-0.185727 m 139.1012,-73.696483 v 27.203133 h 1.19112 V 11.795732 Z m 151.91668,0 v 27.203133 h 1.19113 V 11.795732 Z m -435.60425,0 v 27.203133 h 1.19113 V 11.795732 Z m 567.26505,69.495955 v 27.203443 h 3.64015 V 81.291687 Z m -3.63967,0 V 108.49513 H 674.911 V 81.291687 Z m 6.089,-69.495955 V 38.998865 H 681 V 11.795732 Z M 221.04785,81.291687 v 27.203443 h 1.19129 V 81.291687 Z m 179.17533,0 v 27.203443 h 1.19129 V 81.291687 Z m 166.12171,0 v 27.203443 h 1.19113 V 81.291687 Z M 259.67192,11.795732 v 27.203133 h 1.19128 V 11.795732 Z M 0,107.76697 v 0.72785 h 681 v -0.72785 z m 0,-6.61889 v 0.72768 h 681 v -0.72768 z m 0,-6.618902 v 0.727682 h 681 v -0.727682 z m 0,-6.618125 v 0.72769 h 681 v -0.72769 z m 0,-6.618894 v 0.727682 H 681 V 81.292159 Z M 0,38.270712 v 0.727681 H 681 V 38.270712 Z M 0,31.65181 v 0.727681 H 681 V 31.65181 Z m 0,-6.618902 v 0.727682 h 681 v -0.727682 z m 0,-6.618432 v 0.727685 h 681 v -0.727685 z m 0,-6.618588 v 0.727685 h 681 v -0.727685 z"
     style="stroke-width:0.0800547" />
  <metadata
     id="metadata91">
    <rdf:RDF>
      <cc:Work
         rdf:about="">
        <dc:title>air_VII</dc:title>
      </cc:Work>
    </rdf:RDF>
  </metadata>
</svg>
