<?xml version="1.0" encoding="UTF-8" standalone="no"?>
<svg width="210.058mm" height="296.926mm" viewBox="0 0 9924 14028"
 xmlns="http://www.w3.org/2000/svg" xmlns:xlink="http://www.w3.org/1999/xlink" version="1.2" baseProfile="full">
<title>air_XVI</title>
<desc>Generated by MuseScore Studio 4.7.3</desc>
<polyline class="StaffLines" fill="none" stroke="#000000" stroke-width="9.09" stroke-linejoin="bevel" points="708.661,828.424 9215.34,828.424" />
<polyline class="StaffLines" fill="none" stroke="#000000" stroke-width="9.09" stroke-linejoin="bevel" points="708.661,911.101 9215.34,911.101" />
<polyline class="StaffLines" fill="none" stroke="#000000" stroke-width="9.09" stroke-linejoin="bevel" points="708.661,993.778 9215.34,993.778" />
<polyline class="StaffLines" fill="none" stroke="#000000" stroke-width="9.09" stroke-linejoin="bevel" points="708.661,1076.46 9215.34,1076.46" />
<polyline class="StaffLines" fill="none" stroke="#000000" stroke-width="9.09" stroke-linejoin="bevel" points="708.661,1159.13 9215.34,1159.13" />
<polyline class="StaffLines" fill="none" stroke="#000000" stroke-width="9.09" stroke-linejoin="bevel" points="708.661,1696.53 9215.34,1696.53" />
<polyline class="StaffLines" fill="none" stroke="#000000" stroke-width="9.09" stroke-linejoin="bevel" points="708.661,1779.21 9215.34,1779.21" />
<polyline class="StaffLines" fill="none" stroke="#000000" stroke-width="9.09" stroke-linejoin="bevel" points="708.661,1861.89 9215.34,1861.89" />
<polyline class="StaffLines" fill="none" stroke="#000000" stroke-width="9.09" stroke-linejoin="bevel" points="708.661,1944.57 9215.34,1944.57" />
<polyline class="StaffLines" fill="none" stroke="#000000" stroke-width="9.09" stroke-linejoin="bevel" points="708.661,2027.24 9215.34,2027.24" />
<polyline class="StaffLines" fill="none" stroke="#000000" stroke-width="9.09" stroke-linejoin="bevel" points="708.661,2564.64 9215.34,2564.64" />
<polyline class="StaffLines" fill="none" stroke="#000000" stroke-width="9.09" stroke-linejoin="bevel" points="708.661,2647.32 9215.34,2647.32" />
<polyline class="StaffLines" fill="none" stroke="#000000" stroke-width="9.09" stroke-linejoin="bevel" points="708.661,2730 9215.34,2730" />
<polyline class="StaffLines" fill="none" stroke="#000000" stroke-width="9.09" stroke-linejoin="bevel" points="708.661,2812.68 9215.34,2812.68" />
<polyline class="StaffLines" fill="none" stroke="#000000" stroke-width="9.09" stroke-linejoin="bevel" points="708.661,2895.35 9215.34,2895.35" />
<path class="BarLine" d="M5187.38,1820.55 C5187.38,1810.95 5179.77,1803.01 5170.17,1803.01 C5160.57,1803.01 5152.96,1810.95 5152.96,1820.55 C5152.96,1830.15 5160.57,1838.09 5170.17,1838.09 C5179.77,1838.09 5187.38,1830.15 5187.38,1820.55"/>
<path class="BarLine" d="M5187.38,1903.23 C5187.38,1893.63 5179.77,1885.68 5170.17,1885.68 C5160.57,1885.68 5152.96,1893.63 5152.96,1903.23 C5152.96,1912.83 5160.57,1920.77 5170.17,1920.77 C5179.77,1920.77 5187.38,1912.83 5187.38,1903.23"/>
<polyline class="BarLine" fill="none" stroke="#000000" stroke-width="14.88" stroke-linejoin="bevel" points="5225.39,1691.99 5225.39,2031.79" />
<polyline class="BarLine" fill="none" stroke="#000000" stroke-width="45.47" stroke-linejoin="bevel" points="5286.16,1691.99 5286.16,2031.79" />
<polyline class="BarLine" fill="none" stroke="#000000" stroke-width="14.88" stroke-linejoin="bevel" points="6193.1,823.876 6193.1,1163.68" />
<polyline class="BarLine" fill="none" stroke="#000000" stroke-width="14.88" stroke-linejoin="bevel" points="7698.63,2560.1 7698.63,2899.9" />
<polyline class="BarLine" fill="none" stroke="#000000" stroke-width="14.88" stroke-linejoin="bevel" points="7523.42,823.876 7523.42,1163.68" />
<polyline class="BarLine" fill="none" stroke="#000000" stroke-width="14.88" stroke-linejoin="bevel" points="5952.34,2560.1 5952.34,2899.9" />
<polyline class="BarLine" fill="none" stroke="#000000" stroke-width="14.88" stroke-linejoin="bevel" points="9207.9,823.876 9207.9,1163.68" />
<polyline class="BarLine" fill="none" stroke="#000000" stroke-width="14.88" stroke-linejoin="bevel" points="4328.94,2560.1 4328.94,2899.9" />
<polyline class="BarLine" fill="none" stroke="#000000" stroke-width="14.88" stroke-linejoin="bevel" points="2645.51,1691.99 2645.51,2031.79" />
<polyline class="BarLine" fill="none" stroke="#000000" stroke-width="14.88" stroke-linejoin="bevel" points="2732.55,2560.1 2732.55,2899.9" />
<polyline class="BarLine" fill="none" stroke="#000000" stroke-width="14.88" stroke-linejoin="bevel" points="3178.31,823.876 3178.31,1163.68" />
<polyline class="BarLine" fill="none" stroke="#000000" stroke-width="14.88" stroke-linejoin="bevel" points="9207.9,1691.99 9207.9,2031.79" />
<polyline class="BarLine" fill="none" stroke="#000000" stroke-width="14.88" stroke-linejoin="bevel" points="9131.84,2560.1 9131.84,2899.9" />
<polyline class="BarLine" fill="none" stroke="#000000" stroke-width="45.47" stroke-linejoin="bevel" points="9192.6,2560.1 9192.6,2899.9" />
<polyline class="BarLine" fill="none" stroke="#000000" stroke-width="14.88" stroke-linejoin="bevel" points="7810.76,1691.99 7810.76,2031.79" />
<polyline class="BarLine" fill="none" stroke="#000000" stroke-width="14.88" stroke-linejoin="bevel" points="4024.15,1691.99 4024.15,2031.79" />
<polyline class="BarLine" fill="none" stroke="#000000" stroke-width="14.88" stroke-linejoin="bevel" points="6674.5,1691.99 6674.5,2031.79" />
<polyline class="BarLine" fill="none" stroke="#000000" stroke-width="45.47" stroke-linejoin="bevel" points="5286.16,1691.99 5286.16,2031.79" />
<polyline class="BarLine" fill="none" stroke="#000000" stroke-width="14.88" stroke-linejoin="bevel" points="5346.93,1691.99 5346.93,2031.79" />
<path class="BarLine" d="M5419.38,1820.55 C5419.38,1810.95 5411.76,1803.01 5402.17,1803.01 C5392.57,1803.01 5384.95,1810.95 5384.95,1820.55 C5384.95,1830.15 5392.57,1838.09 5402.17,1838.09 C5411.76,1838.09 5419.38,1830.15 5419.38,1820.55"/>
<path class="BarLine" d="M5419.38,1903.23 C5419.38,1893.63 5411.76,1885.68 5402.17,1885.68 C5392.57,1885.68 5384.95,1893.63 5384.95,1903.23 C5384.95,1912.83 5392.57,1920.77 5402.17,1920.77 C5411.76,1920.77 5419.38,1912.83 5419.38,1903.23"/>
<polyline class="BarLine" fill="none" stroke="#000000" stroke-width="14.88" stroke-linejoin="bevel" points="4508.62,823.876 4508.62,1163.68" />
<polyline class="Stem" fill="none" stroke="#000000" stroke-width="8.27" stroke-linejoin="bevel" points="8564.97,2702.55 8564.97,2957.36" />
<polyline class="Stem" fill="none" stroke="#000000" stroke-width="8.27" stroke-linejoin="bevel" points="3538.32,1972.68 3538.32,1696.53" />
<polyline class="Stem" fill="none" stroke="#000000" stroke-width="8.27" stroke-linejoin="bevel" points="4327.05,1104.57 4327.05,829.085" />
<polyline class="Stem" fill="none" stroke="#000000" stroke-width="8.27" stroke-linejoin="bevel" points="4623.54,1007.67 4623.54,1220.99" />
<polyline class="Stem" fill="none" stroke="#000000" stroke-width="8.27" stroke-linejoin="bevel" points="8189.26,2702.55 8189.26,2957.36" />
<polyline class="Stem" fill="none" stroke="#000000" stroke-width="8.27" stroke-linejoin="bevel" points="7813.55,2619.87 7813.55,2895.35" />
<polyline class="Stem" fill="none" stroke="#000000" stroke-width="8.27" stroke-linejoin="bevel" points="4814.22,966.329 4814.22,1214.2" />
<polyline class="Stem" fill="none" stroke="#000000" stroke-width="8.27" stroke-linejoin="bevel" points="3344.41,2014.01 3344.41,1778.79" />
<polyline class="Stem" fill="none" stroke="#000000" stroke-width="8.27" stroke-linejoin="bevel" points="5004.9,924.991 5004.9,1207.41" />
<polyline class="Stem" fill="none" stroke="#000000" stroke-width="8.27" stroke-linejoin="bevel" points="7319.62,2661.21 7319.62,2936.69" />
<polyline class="Stem" fill="none" stroke="#000000" stroke-width="8.27" stroke-linejoin="bevel" points="5195.58,966.329 5195.58,1200.62" />
<polyline class="Stem" fill="none" stroke="#000000" stroke-width="8.27" stroke-linejoin="bevel" points="7043.12,2840.79 7043.12,2564.64" />
<polyline class="Stem" fill="none" stroke="#000000" stroke-width="8.27" stroke-linejoin="bevel" points="5386.25,1007.67 5386.25,1221.14" />
<polyline class="Stem" fill="none" stroke="#000000" stroke-width="8.27" stroke-linejoin="bevel" points="6792.65,2882.12 6792.65,2646.99" />
<polyline class="Stem" fill="none" stroke="#000000" stroke-width="8.27" stroke-linejoin="bevel" points="6542.18,2840.79 6542.18,2626.98" />
<polyline class="Stem" fill="none" stroke="#000000" stroke-width="8.27" stroke-linejoin="bevel" points="5576.93,966.329 5576.93,1221.14" />
<polyline class="Stem" fill="none" stroke="#000000" stroke-width="8.27" stroke-linejoin="bevel" points="6166.47,2799.45 6166.47,2523.31" />
<polyline class="Stem" fill="none" stroke="#000000" stroke-width="8.27" stroke-linejoin="bevel" points="5767.61,924.991 5767.61,1221.14" />
<polyline class="Stem" fill="none" stroke="#000000" stroke-width="8.27" stroke-linejoin="bevel" points="1608.75,1007.67 1608.75,1220.99" />
<polyline class="Stem" fill="none" stroke="#000000" stroke-width="8.27" stroke-linejoin="bevel" points="5958.29,1007.67 5958.29,1221.14" />
<polyline class="Stem" fill="none" stroke="#000000" stroke-width="8.27" stroke-linejoin="bevel" points="5770.77,2799.45 5770.77,2523.97" />
<polyline class="Stem" fill="none" stroke="#000000" stroke-width="8.27" stroke-linejoin="bevel" points="5195.28,2619.87 5195.28,2895.35" />
<polyline class="Stem" fill="none" stroke="#000000" stroke-width="8.27" stroke-linejoin="bevel" points="4918.79,2799.45 4918.79,2523.31" />
<polyline class="Stem" fill="none" stroke="#000000" stroke-width="8.27" stroke-linejoin="bevel" points="6308.03,883.652 6308.03,1159.13" />
<polyline class="Stem" fill="none" stroke="#000000" stroke-width="8.27" stroke-linejoin="bevel" points="4443.87,2743.89 4443.87,2978.03" />
<polyline class="Stem" fill="none" stroke="#000000" stroke-width="8.27" stroke-linejoin="bevel" points="6594.04,966.329 6594.04,1221.14" />
<polyline class="Stem" fill="none" stroke="#000000" stroke-width="8.27" stroke-linejoin="bevel" points="3949.93,2702.55 3949.93,2957.36" />
<polyline class="Stem" fill="none" stroke="#000000" stroke-width="8.27" stroke-linejoin="bevel" points="6880.06,966.329 6880.06,1221.14" />
<polyline class="Stem" fill="none" stroke="#000000" stroke-width="8.27" stroke-linejoin="bevel" points="3574.22,2661.21 3574.22,2936.69" />
<polyline class="Stem" fill="none" stroke="#000000" stroke-width="8.27" stroke-linejoin="bevel" points="3323.75,2619.87 3323.75,2895.02" />
<polyline class="Stem" fill="none" stroke="#000000" stroke-width="8.27" stroke-linejoin="bevel" points="2847.48,2578.53 2847.48,2854.01" />
<polyline class="Stem" fill="none" stroke="#000000" stroke-width="8.27" stroke-linejoin="bevel" points="7341.85,1104.57 7341.85,829.085" />
<polyline class="Stem" fill="none" stroke="#000000" stroke-width="8.27" stroke-linejoin="bevel" points="1799.42,966.329 1799.42,1214.2" />
<polyline class="Stem" fill="none" stroke="#000000" stroke-width="8.27" stroke-linejoin="bevel" points="2165.69,2702.55 2165.69,2957.36" />
<polyline class="Stem" fill="none" stroke="#000000" stroke-width="8.27" stroke-linejoin="bevel" points="3964.48,1063.23 3964.48,787.085" />
<polyline class="Stem" fill="none" stroke="#000000" stroke-width="8.27" stroke-linejoin="bevel" points="7638.34,1007.67 7638.34,1220.99" />
<polyline class="Stem" fill="none" stroke="#000000" stroke-width="8.27" stroke-linejoin="bevel" points="1789.98,2702.55 1789.98,2957.36" />
<polyline class="Stem" fill="none" stroke="#000000" stroke-width="8.27" stroke-linejoin="bevel" points="1414.27,2619.87 1414.27,2895.35" />
<polyline class="Stem" fill="none" stroke="#000000" stroke-width="8.27" stroke-linejoin="bevel" points="7829.02,966.329 7829.02,1214.2" />
<polyline class="Stem" fill="none" stroke="#000000" stroke-width="8.27" stroke-linejoin="bevel" points="1990.1,924.991 1990.1,1207.41" />
<polyline class="Stem" fill="none" stroke="#000000" stroke-width="8.27" stroke-linejoin="bevel" points="8019.69,883.652 8019.69,1207.41" />
<polyline class="Stem" fill="none" stroke="#000000" stroke-width="8.27" stroke-linejoin="bevel" points="8973.08,1875.78 8973.08,2088.83" />
<polyline class="Stem" fill="none" stroke="#000000" stroke-width="8.27" stroke-linejoin="bevel" points="8210.37,966.329 8210.37,1200.62" />
<polyline class="Stem" fill="none" stroke="#000000" stroke-width="8.27" stroke-linejoin="bevel" points="8779.17,1834.44 8779.17,2069" />
<polyline class="Stem" fill="none" stroke="#000000" stroke-width="8.27" stroke-linejoin="bevel" points="8401.05,1007.67 8401.05,1220.99" />
<polyline class="Stem" fill="none" stroke="#000000" stroke-width="8.27" stroke-linejoin="bevel" points="8488.31,1793.1 8488.31,2068.58" />
<polyline class="Stem" fill="none" stroke="#000000" stroke-width="8.27" stroke-linejoin="bevel" points="8294.4,1751.76 8294.4,2026.91" />
<polyline class="Stem" fill="none" stroke="#000000" stroke-width="8.27" stroke-linejoin="bevel" points="8591.73,966.329 8591.73,1214.2" />
<polyline class="Stem" fill="none" stroke="#000000" stroke-width="8.27" stroke-linejoin="bevel" points="7925.68,1710.42 7925.68,1985.9" />
<polyline class="Stem" fill="none" stroke="#000000" stroke-width="8.27" stroke-linejoin="bevel" points="8782.41,924.991 8782.41,1207.41" />
<polyline class="Stem" fill="none" stroke="#000000" stroke-width="8.27" stroke-linejoin="bevel" points="2180.78,966.329 2180.78,1200.62" />
<polyline class="Stem" fill="none" stroke="#000000" stroke-width="8.27" stroke-linejoin="bevel" points="8973.08,966.329 8973.08,1200.62" />
<polyline class="Stem" fill="none" stroke="#000000" stroke-width="8.27" stroke-linejoin="bevel" points="7470.37,1931.34 7470.37,1655.2" />
<polyline class="Stem" fill="none" stroke="#000000" stroke-width="8.27" stroke-linejoin="bevel" points="7179.5,1931.34 7179.5,1655.2" />
<polyline class="Stem" fill="none" stroke="#000000" stroke-width="8.27" stroke-linejoin="bevel" points="3678.46,1063.23 3678.46,787.085" />
<polyline class="Stem" fill="none" stroke="#000000" stroke-width="8.27" stroke-linejoin="bevel" points="6789.42,1875.78 6789.42,2109.92" />
<polyline class="Stem" fill="none" stroke="#000000" stroke-width="8.27" stroke-linejoin="bevel" points="2371.46,1007.67 2371.46,1220.99" />
<polyline class="Stem" fill="none" stroke="#000000" stroke-width="8.27" stroke-linejoin="bevel" points="1414.27,1875.78 1414.27,2109.92" />
<polyline class="Stem" fill="none" stroke="#000000" stroke-width="8.27" stroke-linejoin="bevel" points="6380.33,1834.44 6380.33,2089.25" />
<polyline class="Stem" fill="none" stroke="#000000" stroke-width="8.27" stroke-linejoin="bevel" points="1804.35,1931.34 1804.35,1655.2" />
<polyline class="Stem" fill="none" stroke="#000000" stroke-width="8.27" stroke-linejoin="bevel" points="6089.47,1793.1 6089.47,2068.58" />
<polyline class="Stem" fill="none" stroke="#000000" stroke-width="8.27" stroke-linejoin="bevel" points="1996,1751.76 1996,2027.24" />
<polyline class="Stem" fill="none" stroke="#000000" stroke-width="8.27" stroke-linejoin="bevel" points="5895.56,1793.1 5895.56,2068.25" />
<polyline class="Stem" fill="none" stroke="#000000" stroke-width="8.27" stroke-linejoin="bevel" points="2562.14,966.329 2562.14,1214.2" />
<polyline class="Stem" fill="none" stroke="#000000" stroke-width="8.27" stroke-linejoin="bevel" points="4720.8,1834.44 4720.8,2089.25" />
<polyline class="Stem" fill="none" stroke="#000000" stroke-width="8.27" stroke-linejoin="bevel" points="2463.93,1931.34 2463.93,1655.86" />
<polyline class="Stem" fill="none" stroke="#000000" stroke-width="8.27" stroke-linejoin="bevel" points="4429.93,1834.44 4429.93,2089.25" />
<polyline class="Stem" fill="none" stroke="#000000" stroke-width="8.27" stroke-linejoin="bevel" points="4139.07,1751.76 4139.07,2027.24" />
<polyline class="Stem" fill="none" stroke="#000000" stroke-width="8.27" stroke-linejoin="bevel" points="3293.23,1007.67 3293.23,1241.81" />
<polyline class="Stem" fill="none" stroke="#000000" stroke-width="8.27" stroke-linejoin="bevel" points="2859.64,1931.34 2859.64,1655.2" />
<polyline class="Stem" fill="none" stroke="#000000" stroke-width="8.27" stroke-linejoin="bevel" points="2752.81,924.991 2752.81,1207.41" />
<polyline class="Stem" fill="none" stroke="#000000" stroke-width="8.27" stroke-linejoin="bevel" points="3150.5,1972.68 3150.5,1758.96" />
<polyline class="Stem" fill="none" stroke="#000000" stroke-width="8.27" stroke-linejoin="bevel" points="3729.98,1793.1 3729.98,2068.58" />
<polyline class="Stem" fill="none" stroke="#000000" stroke-width="8.27" stroke-linejoin="bevel" points="2943.49,966.329 2943.49,1200.62" />
<polyline class="Stem" fill="none" stroke="#000000" stroke-width="8.27" stroke-linejoin="bevel" points="5526.84,1710.42 5526.84,1985.9" />
<path class="Hook" d="M2459.8,1730.33 C2459.8,1731.33 2460.13,1732.98 2462.45,1733.97 C2476.68,1738.61 2505.15,1756.48 2526.66,1793.22 C2532.62,1803.48 2542.22,1817.72 2542.22,1845.19 C2542.22,1869.02 2535.93,1893.52 2527.32,1917.35 C2526.66,1919.33 2526,1920.99 2526.33,1922.31 C2526.33,1924.3 2527.66,1925.62 2529.64,1925.62 C2531.96,1925.62 2533.61,1924.3 2534.94,1921.98 C2549.83,1895.5 2555.46,1864.72 2555.46,1834.6 C2553.8,1791.9 2529.31,1760.45 2529.31,1760.45 C2530.3,1760.45 2498.86,1719.74 2489.92,1705.84 C2477.67,1686.97 2472.05,1668.1 2471.39,1666.78 C2471.05,1665.79 2468.08,1653.87 2468.08,1653.87 C2467.74,1652.55 2466.09,1651.22 2464.1,1651.22 C2461.79,1651.22 2459.8,1653.21 2459.8,1655.53 L2459.8,1730.33 "/>
<path class="Hook" d="M5766.63,2598.44 C5766.63,2599.44 5766.96,2601.09 5769.28,2602.08 C5783.51,2606.72 5811.98,2624.59 5833.5,2661.33 C5839.45,2671.59 5849.05,2685.83 5849.05,2713.3 C5849.05,2737.13 5842.76,2761.63 5834.16,2785.46 C5833.5,2787.44 5832.83,2789.1 5833.16,2790.42 C5833.16,2792.41 5834.49,2793.73 5836.47,2793.73 C5838.79,2793.73 5840.45,2792.41 5841.77,2790.09 C5856.67,2763.61 5862.29,2732.83 5862.29,2702.71 C5860.64,2660.01 5836.14,2628.56 5836.14,2628.56 C5837.14,2628.56 5805.69,2587.85 5796.75,2573.95 C5784.51,2555.08 5778.88,2536.21 5778.22,2534.89 C5777.89,2533.9 5774.91,2521.98 5774.91,2521.98 C5774.58,2520.66 5772.92,2519.33 5770.94,2519.33 C5768.62,2519.33 5766.63,2521.32 5766.63,2523.64 L5766.63,2598.44 "/>
<path class="Hook" d="M4322.92,903.561 C4322.92,904.554 4323.25,906.209 4325.57,907.202 C4339.8,911.836 4368.26,929.71 4389.78,966.451 C4395.74,976.712 4405.34,990.945 4405.34,1018.42 C4405.34,1042.25 4399.05,1066.74 4390.44,1090.58 C4389.78,1092.56 4389.12,1094.22 4389.45,1095.54 C4389.45,1097.53 4390.77,1098.85 4392.76,1098.85 C4395.08,1098.85 4396.73,1097.53 4398.05,1095.21 C4412.95,1068.73 4418.58,1037.95 4418.58,1007.83 C4416.92,965.127 4392.43,933.682 4392.43,933.682 C4393.42,933.682 4361.98,892.969 4353.04,879.067 C4340.79,860.2 4335.16,841.333 4334.5,840.009 C4334.17,839.016 4331.19,827.1 4331.19,827.1 C4330.86,825.776 4329.21,824.452 4327.22,824.452 C4324.9,824.452 4322.92,826.438 4322.92,828.755 L4322.92,903.561 "/>
<path class="Hook" d="M3319.62,2895.02 C3319.62,2897.34 3321.6,2899.32 3323.92,2899.32 C3325.57,2899.32 3327.56,2898 3327.89,2896.68 C3327.89,2896.35 3330.87,2884.76 3331.2,2883.77 C3331.53,2882.44 3334.51,2869.87 3346.43,2850.34 C3359.34,2828.82 3379.2,2813.26 3395.75,2790.09 C3411.97,2766.92 3421.9,2745.08 3421.9,2715.95 C3421.9,2685.83 3414.94,2660.67 3397.4,2628.57 C3396.41,2626.25 3394.42,2624.93 3392.44,2624.93 C3391.77,2624.93 3391.11,2624.93 3390.78,2625.26 C3389.13,2625.92 3388.46,2627.24 3388.46,2629.23 C3388.46,2630.22 3388.8,2631.88 3389.46,2633.2 C3402.7,2663.98 3407.99,2681.53 3407.99,2705.36 C3407.99,2732.83 3398.39,2747.06 3392.44,2757.33 C3370.92,2794.07 3336.17,2811.94 3322.26,2816.57 C3319.95,2817.57 3319.62,2819.22 3319.62,2820.22 L3319.62,2895.02 "/>
<path class="Hook" d="M7337.71,903.561 C7337.71,904.554 7338.04,906.209 7340.36,907.202 C7354.59,911.836 7383.06,929.71 7404.57,966.451 C7410.53,976.712 7420.13,990.945 7420.13,1018.42 C7420.13,1042.25 7413.84,1066.74 7405.24,1090.58 C7404.57,1092.56 7403.91,1094.22 7404.24,1095.54 C7404.24,1097.53 7405.57,1098.85 7407.55,1098.85 C7409.87,1098.85 7411.53,1097.53 7412.85,1095.21 C7427.74,1068.73 7433.37,1037.95 7433.37,1007.83 C7431.72,965.127 7407.22,933.682 7407.22,933.682 C7408.22,933.682 7376.77,892.969 7367.83,879.067 C7355.59,860.2 7349.96,841.333 7349.3,840.009 C7348.97,839.016 7345.99,827.1 7345.99,827.1 C7345.66,825.776 7344,824.452 7342.02,824.452 C7339.7,824.452 7337.71,826.438 7337.71,828.755 L7337.71,903.561 "/>
<path class="Hook" d="M8290.27,2026.91 C8290.27,2029.23 8292.25,2031.21 8294.57,2031.21 C8296.22,2031.21 8298.21,2029.89 8298.54,2028.57 C8298.54,2028.24 8301.52,2016.65 8301.85,2015.66 C8302.18,2014.33 8305.16,2001.76 8317.08,1982.23 C8329.99,1960.71 8349.85,1945.15 8366.4,1921.98 C8382.61,1898.81 8392.54,1876.97 8392.54,1847.84 C8392.54,1817.72 8385.59,1792.56 8368.05,1760.46 C8367.06,1758.14 8365.07,1756.82 8363.09,1756.82 C8362.42,1756.82 8361.76,1756.82 8361.43,1757.15 C8359.78,1757.81 8359.11,1759.13 8359.11,1761.12 C8359.11,1762.11 8359.44,1763.77 8360.11,1765.09 C8373.35,1795.87 8378.64,1813.42 8378.64,1837.25 C8378.64,1864.72 8369.04,1878.95 8363.09,1889.22 C8341.57,1925.96 8306.82,1943.83 8292.91,1948.46 C8290.6,1949.46 8290.27,1951.11 8290.27,1952.11 L8290.27,2026.91 "/>
<path class="Hook" d="M5891.42,2068.25 C5891.42,2070.57 5893.41,2072.55 5895.73,2072.55 C5897.38,2072.55 5899.37,2071.23 5899.7,2069.91 C5899.7,2069.57 5902.68,2057.99 5903.01,2057 C5903.34,2055.67 5906.32,2043.09 5918.23,2023.57 C5931.14,2002.05 5951,1986.49 5967.55,1963.32 C5983.77,1940.15 5993.7,1918.31 5993.7,1889.18 C5993.7,1859.06 5986.75,1833.9 5969.21,1801.8 C5968.21,1799.48 5966.23,1798.15 5964.24,1798.15 C5963.58,1798.15 5962.92,1798.15 5962.59,1798.49 C5960.93,1799.15 5960.27,1800.47 5960.27,1802.46 C5960.27,1803.45 5960.6,1805.11 5961.26,1806.43 C5974.5,1837.21 5979.8,1854.76 5979.8,1878.59 C5979.8,1906.06 5970.2,1920.29 5964.24,1930.55 C5942.73,1967.3 5907.97,1985.17 5894.07,1989.8 C5891.75,1990.8 5891.42,1992.45 5891.42,1993.44 L5891.42,2068.25 "/>
<path class="Note" d="M5572.8,966.341 C5572.8,980.574 5583.06,996.462 5609.87,996.462 C5644.29,996.462 5680.37,968.327 5680.37,939.199 C5680.37,919.67 5663.82,908.747 5643.3,908.747 C5611.19,908.747 5572.8,935.889 5572.8,966.341"/>
<path class="Note" d="M5954.15,1007.68 C5954.15,1021.91 5964.41,1037.8 5991.23,1037.8 C6025.65,1037.8 6061.73,1009.67 6061.73,980.538 C6061.73,961.009 6045.18,950.086 6024.66,950.086 C5992.55,950.086 5954.15,977.228 5954.15,1007.68"/>
<path class="Note" d="M2360.59,1958.47 C2360.59,1972.7 2370.85,1988.59 2397.66,1988.59 C2432.08,1988.59 2468.16,1960.45 2468.16,1931.33 C2468.16,1911.8 2451.61,1900.87 2431.09,1900.87 C2398.98,1900.87 2360.59,1928.02 2360.59,1958.47"/>
<path class="Note" d="M4425.8,1834.45 C4425.8,1848.68 4436.06,1864.57 4462.87,1864.57 C4497.3,1864.57 4533.37,1836.44 4533.37,1807.31 C4533.37,1787.78 4516.82,1776.86 4496.3,1776.86 C4464.2,1776.86 4425.8,1804 4425.8,1834.45"/>
<path class="Note" d="M3289.1,1007.68 C3289.1,1021.91 3299.36,1037.8 3326.17,1037.8 C3360.59,1037.8 3396.67,1009.67 3396.67,980.538 C3396.67,961.009 3380.12,950.086 3359.6,950.086 C3327.49,950.086 3289.1,977.228 3289.1,1007.68"/>
<path class="Note" d="M4741.49,1849.02 C4730.57,1849.02 4728.25,1840.08 4728.25,1837.1 C4728.25,1820.88 4783.86,1792.41 4799.41,1792.41 C4807.36,1792.41 4812.65,1797.05 4812.65,1804.33 C4812.65,1820.88 4756.71,1849.02 4741.49,1849.02 M4787.17,1776.86 C4755.06,1776.86 4716.66,1803.67 4716.66,1834.45 C4716.66,1848.68 4726.92,1864.57 4753.74,1864.57 C4788.16,1864.57 4824.24,1836.44 4824.24,1807.31 C4824.24,1787.78 4807.69,1776.86 4787.17,1776.86"/>
<path class="Note" d="M2558,966.341 C2558,980.574 2568.26,996.462 2595.07,996.462 C2629.5,996.462 2665.58,968.327 2665.58,939.199 C2665.58,919.67 2649.03,908.747 2628.51,908.747 C2596.4,908.747 2558,935.889 2558,966.341"/>
<path class="Note" d="M6063.13,2826.58 C6063.13,2840.81 6073.39,2856.7 6100.2,2856.7 C6134.62,2856.7 6170.7,2828.56 6170.7,2799.44 C6170.7,2779.91 6154.15,2768.98 6133.63,2768.98 C6101.52,2768.98 6063.13,2796.13 6063.13,2826.58"/>
<path class="Note" d="M4223.7,1131.7 C4223.7,1145.93 4233.97,1161.82 4260.78,1161.82 C4295.2,1161.82 4331.28,1133.68 4331.28,1104.55 C4331.28,1085.02 4314.73,1074.1 4294.21,1074.1 C4262.1,1074.1 4223.7,1101.24 4223.7,1131.7"/>
<path class="Note" d="M8185.13,2702.56 C8185.13,2716.79 8195.39,2732.68 8222.2,2732.68 C8256.62,2732.68 8292.7,2704.55 8292.7,2675.42 C8292.7,2655.89 8276.15,2644.97 8255.63,2644.97 C8223.52,2644.97 8185.13,2672.11 8185.13,2702.56"/>
<path class="Note" d="M5522.7,1710.44 C5522.7,1724.67 5532.96,1740.56 5559.77,1740.56 C5594.2,1740.56 5630.28,1712.42 5630.28,1683.29 C5630.28,1663.76 5613.73,1652.84 5593.2,1652.84 C5561.1,1652.84 5522.7,1679.98 5522.7,1710.44"/>
<path class="Note" d="M4619.41,1007.68 C4619.41,1021.91 4629.67,1037.8 4656.48,1037.8 C4690.91,1037.8 4726.98,1009.67 4726.98,980.538 C4726.98,961.009 4710.43,950.086 4689.91,950.086 C4657.81,950.086 4619.41,977.228 4619.41,1007.68"/>
<path class="Note" d="M2756.29,1958.47 C2756.29,1972.7 2766.55,1988.59 2793.36,1988.59 C2827.79,1988.59 2863.87,1960.45 2863.87,1931.33 C2863.87,1911.8 2847.32,1900.87 2826.8,1900.87 C2794.69,1900.87 2756.29,1928.02 2756.29,1958.47"/>
<path class="Note" d="M1991.87,1751.77 C1991.87,1766.01 2002.13,1781.9 2028.94,1781.9 C2063.36,1781.9 2099.44,1753.76 2099.44,1724.63 C2099.44,1705.1 2082.89,1694.18 2062.37,1694.18 C2030.26,1694.18 1991.87,1721.32 1991.87,1751.77"/>
<path class="Note" d="M5891.42,1793.11 C5891.42,1807.35 5901.68,1823.23 5928.49,1823.23 C5962.92,1823.23 5999,1795.1 5999,1765.97 C5999,1746.44 5982.45,1735.52 5961.93,1735.52 C5929.82,1735.52 5891.42,1762.66 5891.42,1793.11"/>
<path class="Note" d="M1701,1958.47 C1701,1972.7 1711.26,1988.59 1738.07,1988.59 C1772.5,1988.59 1808.58,1960.45 1808.58,1931.33 C1808.58,1911.8 1792.03,1900.87 1771.51,1900.87 C1739.4,1900.87 1701,1928.02 1701,1958.47"/>
<path class="Note" d="M6085.33,1793.11 C6085.33,1807.35 6095.59,1823.23 6122.4,1823.23 C6156.83,1823.23 6192.91,1795.1 6192.91,1765.97 C6192.91,1746.44 6176.36,1735.52 6155.84,1735.52 C6123.73,1735.52 6085.33,1762.66 6085.33,1793.11"/>
<path class="Note" d="M1410.14,1875.79 C1410.14,1890.02 1420.4,1905.91 1447.21,1905.91 C1481.63,1905.91 1517.71,1877.78 1517.71,1848.65 C1517.71,1829.12 1501.16,1818.2 1480.64,1818.2 C1448.53,1818.2 1410.14,1845.34 1410.14,1875.79"/>
<path class="Note" d="M6376.2,1834.45 C6376.2,1848.68 6386.46,1864.57 6413.27,1864.57 C6447.69,1864.57 6483.77,1836.44 6483.77,1807.31 C6483.77,1787.78 6467.22,1776.86 6446.7,1776.86 C6414.59,1776.86 6376.2,1804 6376.2,1834.45"/>
<path class="Note" d="M2367.32,1007.68 C2367.32,1021.91 2377.59,1037.8 2404.4,1037.8 C2438.82,1037.8 2474.9,1009.67 2474.9,980.538 C2474.9,961.009 2458.35,950.086 2437.83,950.086 C2405.72,950.086 2367.32,977.228 2367.32,1007.68"/>
<path class="Note" d="M7809.42,2619.88 C7809.42,2634.12 7819.68,2650.01 7846.49,2650.01 C7880.92,2650.01 7916.99,2621.87 7916.99,2592.74 C7916.99,2573.21 7900.44,2562.29 7879.92,2562.29 C7847.82,2562.29 7809.42,2589.43 7809.42,2619.88"/>
<path class="Note" d="M5763.48,925.003 C5763.48,939.236 5773.74,955.124 5800.55,955.124 C5834.97,955.124 5871.05,926.989 5871.05,897.861 C5871.05,878.332 5854.5,867.409 5833.98,867.409 C5801.87,867.409 5763.48,894.551 5763.48,925.003"/>
<path class="Note" d="M6785.29,1875.79 C6785.29,1890.02 6795.55,1905.91 6822.36,1905.91 C6856.79,1905.91 6892.87,1877.78 6892.87,1848.65 C6892.87,1829.12 6876.32,1818.2 6855.79,1818.2 C6823.69,1818.2 6785.29,1845.34 6785.29,1875.79"/>
<path class="Note" d="M3575.11,1090.36 C3575.11,1104.59 3585.37,1120.48 3612.18,1120.48 C3646.61,1120.48 3682.69,1092.34 3682.69,1063.22 C3682.69,1043.69 3666.14,1032.76 3645.62,1032.76 C3613.51,1032.76 3575.11,1059.91 3575.11,1090.36"/>
<path class="Note" d="M7076.15,1958.47 C7076.15,1972.7 7086.42,1988.59 7113.23,1988.59 C7147.65,1988.59 7183.73,1960.45 7183.73,1931.33 C7183.73,1911.8 7167.18,1900.87 7146.66,1900.87 C7114.55,1900.87 7076.15,1928.02 7076.15,1958.47"/>
<path class="Note" d="M8968.95,966.341 C8968.95,980.574 8979.21,996.462 9006.02,996.462 C9040.45,996.462 9076.52,968.327 9076.52,939.199 C9076.52,919.67 9059.97,908.747 9039.45,908.747 C9007.35,908.747 8968.95,935.889 8968.95,966.341"/>
<path class="Note" d="M7391.84,1973.03 C7380.92,1973.03 7378.6,1964.09 7378.6,1961.12 C7378.6,1944.9 7434.21,1916.43 7449.77,1916.43 C7457.71,1916.43 7463.01,1921.06 7463.01,1928.35 C7463.01,1944.9 7407.07,1973.03 7391.84,1973.03 M7437.52,1900.87 C7405.42,1900.87 7367.02,1927.68 7367.02,1958.47 C7367.02,1972.7 7377.28,1988.59 7404.09,1988.59 C7438.52,1988.59 7474.59,1960.45 7474.59,1931.33 C7474.59,1911.8 7458.04,1900.87 7437.52,1900.87"/>
<path class="Note" d="M2176.65,966.341 C2176.65,980.574 2186.91,996.462 2213.72,996.462 C2248.14,996.462 2284.22,968.327 2284.22,939.199 C2284.22,919.67 2267.67,908.747 2247.15,908.747 C2215.04,908.747 2176.65,935.889 2176.65,966.341"/>
<path class="Note" d="M8778.27,925.003 C8778.27,939.236 8788.53,955.124 8815.34,955.124 C8849.77,955.124 8885.85,926.989 8885.85,897.861 C8885.85,878.332 8869.3,867.409 8848.78,867.409 C8816.67,867.409 8778.27,894.551 8778.27,925.003"/>
<path class="Note" d="M8587.59,966.341 C8587.59,980.574 8597.86,996.462 8624.67,996.462 C8659.09,996.462 8695.17,968.327 8695.17,939.199 C8695.17,919.67 8678.62,908.747 8658.1,908.747 C8625.99,908.747 8587.59,935.889 8587.59,966.341"/>
<path class="Note" d="M7921.54,1710.44 C7921.54,1724.67 7931.81,1740.56 7958.62,1740.56 C7993.04,1740.56 8029.12,1712.42 8029.12,1683.29 C8029.12,1663.76 8012.57,1652.84 7992.05,1652.84 C7959.94,1652.84 7921.54,1679.98 7921.54,1710.44"/>
<path class="Note" d="M3047.16,1999.81 C3047.16,2014.04 3057.42,2029.93 3084.23,2029.93 C3118.65,2029.93 3154.73,2001.79 3154.73,1972.66 C3154.73,1953.14 3138.18,1942.21 3117.66,1942.21 C3085.55,1942.21 3047.16,1969.35 3047.16,1999.81"/>
<path class="Note" d="M2748.68,925.003 C2748.68,939.236 2758.94,955.124 2785.75,955.124 C2820.18,955.124 2856.26,926.989 2856.26,897.861 C2856.26,878.332 2839.71,867.409 2819.18,867.409 C2787.08,867.409 2748.68,894.551 2748.68,925.003"/>
<path class="Note" d="M4810.09,966.341 C4810.09,980.574 4820.35,996.462 4847.16,996.462 C4881.58,996.462 4917.66,968.327 4917.66,939.199 C4917.66,919.67 4901.11,908.747 4880.59,908.747 C4848.48,908.747 4810.09,935.889 4810.09,966.341"/>
<path class="Note" d="M8290.27,1751.77 C8290.27,1766.01 8300.53,1781.9 8327.34,1781.9 C8361.76,1781.9 8397.84,1753.76 8397.84,1724.63 C8397.84,1705.1 8381.29,1694.18 8360.77,1694.18 C8328.66,1694.18 8290.27,1721.32 8290.27,1751.77"/>
<path class="Note" d="M8396.92,1007.68 C8396.92,1021.91 8407.18,1037.8 8433.99,1037.8 C8468.41,1037.8 8504.49,1009.67 8504.49,980.538 C8504.49,961.009 8487.94,950.086 8467.42,950.086 C8435.31,950.086 8396.92,977.228 8396.92,1007.68"/>
<path class="Note" d="M8484.18,1793.11 C8484.18,1807.35 8494.44,1823.23 8521.25,1823.23 C8555.67,1823.23 8591.75,1795.1 8591.75,1765.97 C8591.75,1746.44 8575.2,1735.52 8554.68,1735.52 C8522.57,1735.52 8484.18,1762.66 8484.18,1793.11"/>
<path class="Note" d="M8206.24,966.341 C8206.24,980.574 8216.5,996.462 8243.31,996.462 C8277.73,996.462 8313.81,968.327 8313.81,939.199 C8313.81,919.67 8297.26,908.747 8276.74,908.747 C8244.63,908.747 8206.24,935.889 8206.24,966.341"/>
<path class="Note" d="M8775.04,1834.45 C8775.04,1848.68 8785.3,1864.57 8812.11,1864.57 C8846.54,1864.57 8882.62,1836.44 8882.62,1807.31 C8882.62,1787.78 8866.07,1776.86 8845.54,1776.86 C8813.44,1776.86 8775.04,1804 8775.04,1834.45"/>
<path class="Note" d="M7315.48,2661.22 C7315.48,2675.46 7325.74,2691.34 7352.56,2691.34 C7386.98,2691.34 7423.06,2663.21 7423.06,2634.08 C7423.06,2614.55 7406.51,2603.63 7385.99,2603.63 C7353.88,2603.63 7315.48,2630.77 7315.48,2661.22"/>
<path class="Note" d="M8015.56,883.664 C8015.56,897.897 8025.82,913.785 8052.63,913.785 C8087.06,913.785 8123.14,885.65 8123.14,856.522 C8123.14,836.993 8106.59,826.07 8086.06,826.07 C8053.96,826.07 8015.56,853.212 8015.56,883.664"/>
<path class="Note" d="M8968.95,1875.79 C8968.95,1890.02 8979.21,1905.91 9006.02,1905.91 C9040.45,1905.91 9076.52,1877.78 9076.52,1848.65 C9076.52,1829.12 9059.97,1818.2 9039.45,1818.2 C9007.35,1818.2 8968.95,1845.34 8968.95,1875.79"/>
<path class="Note" d="M1985.97,925.003 C1985.97,939.236 1996.23,955.124 2023.04,955.124 C2057.46,955.124 2093.54,926.989 2093.54,897.861 C2093.54,878.332 2076.99,867.409 2056.47,867.409 C2024.36,867.409 1985.97,894.551 1985.97,925.003"/>
<path class="Note" d="M7824.88,966.341 C7824.88,980.574 7835.14,996.462 7861.96,996.462 C7896.38,996.462 7932.46,968.327 7932.46,939.199 C7932.46,919.67 7915.91,908.747 7895.39,908.747 C7863.28,908.747 7824.88,935.889 7824.88,966.341"/>
<path class="Note" d="M5667.42,2826.58 C5667.42,2840.81 5677.68,2856.7 5704.49,2856.7 C5738.92,2856.7 5775,2828.56 5775,2799.44 C5775,2779.91 5758.45,2768.98 5737.92,2768.98 C5705.82,2768.98 5667.42,2796.13 5667.42,2826.58"/>
<path class="Note" d="M3241.07,2041.14 C3241.07,2055.38 3251.33,2071.27 3278.14,2071.27 C3312.56,2071.27 3348.64,2043.13 3348.64,2014 C3348.64,1994.47 3332.09,1983.55 3311.57,1983.55 C3279.46,1983.55 3241.07,2010.69 3241.07,2041.14"/>
<path class="Note" d="M5000.76,925.003 C5000.76,939.236 5011.03,955.124 5037.84,955.124 C5072.26,955.124 5108.34,926.989 5108.34,897.861 C5108.34,878.332 5091.79,867.409 5071.27,867.409 C5039.16,867.409 5000.76,894.551 5000.76,925.003"/>
<path class="Note" d="M1410.14,2619.88 C1410.14,2634.12 1420.4,2650.01 1447.21,2650.01 C1481.63,2650.01 1517.71,2621.87 1517.71,2592.74 C1517.71,2573.21 1501.16,2562.29 1480.64,2562.29 C1448.53,2562.29 1410.14,2589.43 1410.14,2619.88"/>
<path class="Note" d="M7634.21,1007.68 C7634.21,1021.91 7644.47,1037.8 7671.28,1037.8 C7705.7,1037.8 7741.78,1009.67 7741.78,980.538 C7741.78,961.009 7725.23,950.086 7704.71,950.086 C7672.6,950.086 7634.21,977.228 7634.21,1007.68"/>
<path class="Note" d="M1785.85,2702.56 C1785.85,2716.79 1796.11,2732.68 1822.92,2732.68 C1857.34,2732.68 1893.42,2704.55 1893.42,2675.42 C1893.42,2655.89 1876.87,2644.97 1856.35,2644.97 C1824.24,2644.97 1785.85,2672.11 1785.85,2702.56"/>
<path class="Note" d="M3861.13,1090.36 C3861.13,1104.59 3871.39,1120.48 3898.2,1120.48 C3932.63,1120.48 3968.7,1092.34 3968.7,1063.22 C3968.7,1043.69 3952.15,1032.76 3931.63,1032.76 C3899.53,1032.76 3861.13,1059.91 3861.13,1090.36"/>
<path class="Note" d="M2186.38,2717.13 C2175.45,2717.13 2173.14,2708.19 2173.14,2705.21 C2173.14,2688.99 2228.75,2660.52 2244.3,2660.52 C2252.25,2660.52 2257.54,2665.16 2257.54,2672.44 C2257.54,2688.99 2201.6,2717.13 2186.38,2717.13 M2232.06,2644.97 C2199.95,2644.97 2161.55,2671.78 2161.55,2702.56 C2161.55,2716.79 2171.81,2732.68 2198.62,2732.68 C2233.05,2732.68 2269.13,2704.55 2269.13,2675.42 C2269.13,2655.89 2252.58,2644.97 2232.06,2644.97"/>
<path class="Note" d="M1795.29,966.341 C1795.29,980.574 1805.55,996.462 1832.36,996.462 C1866.79,996.462 1902.87,968.327 1902.87,939.199 C1902.87,919.67 1886.32,908.747 1865.79,908.747 C1833.69,908.747 1795.29,935.889 1795.29,966.341"/>
<path class="Note" d="M7238.5,1131.7 C7238.5,1145.93 7248.76,1161.82 7275.57,1161.82 C7310,1161.82 7346.08,1133.68 7346.08,1104.55 C7346.08,1085.02 7329.53,1074.1 7309,1074.1 C7276.9,1074.1 7238.5,1101.24 7238.5,1131.7"/>
<path class="Note" d="M3725.84,1793.11 C3725.84,1807.35 3736.1,1823.23 3762.91,1823.23 C3797.34,1823.23 3833.42,1795.1 3833.42,1765.97 C3833.42,1746.44 3816.87,1735.52 3796.34,1735.52 C3764.24,1735.52 3725.84,1762.66 3725.84,1793.11"/>
<path class="Note" d="M2843.34,2578.55 C2843.34,2592.78 2853.6,2608.67 2880.41,2608.67 C2914.84,2608.67 2950.92,2580.53 2950.92,2551.4 C2950.92,2531.88 2934.37,2520.95 2913.85,2520.95 C2881.74,2520.95 2843.34,2548.09 2843.34,2578.55"/>
<path class="Note" d="M6939.78,2867.92 C6939.78,2882.15 6950.04,2898.04 6976.85,2898.04 C7011.27,2898.04 7047.35,2869.9 7047.35,2840.77 C7047.35,2821.25 7030.8,2810.32 7010.28,2810.32 C6978.17,2810.32 6939.78,2837.46 6939.78,2867.92"/>
<path class="Note" d="M2939.36,966.341 C2939.36,980.574 2949.62,996.462 2976.43,996.462 C3010.85,996.462 3046.93,968.327 3046.93,939.199 C3046.93,919.67 3030.38,908.747 3009.86,908.747 C2977.75,908.747 2939.36,935.889 2939.36,966.341"/>
<path class="Note" d="M5191.44,966.341 C5191.44,980.574 5201.7,996.462 5228.51,996.462 C5262.94,996.462 5299.02,968.327 5299.02,939.199 C5299.02,919.67 5282.47,908.747 5261.95,908.747 C5229.84,908.747 5191.44,935.889 5191.44,966.341"/>
<path class="Note" d="M3319.62,2619.88 C3319.62,2634.12 3329.88,2650.01 3356.69,2650.01 C3391.11,2650.01 3427.19,2621.87 3427.19,2592.74 C3427.19,2573.21 3410.64,2562.29 3390.12,2562.29 C3358.01,2562.29 3319.62,2589.43 3319.62,2619.88"/>
<path class="Note" d="M6875.93,966.341 C6875.93,980.574 6886.19,996.462 6913,996.462 C6947.42,996.462 6983.5,968.327 6983.5,939.199 C6983.5,919.67 6966.95,908.747 6946.43,908.747 C6914.32,908.747 6875.93,935.889 6875.93,966.341"/>
<path class="Note" d="M3570.09,2661.22 C3570.09,2675.46 3580.35,2691.34 3607.16,2691.34 C3641.58,2691.34 3677.66,2663.21 3677.66,2634.08 C3677.66,2614.55 3661.11,2603.63 3640.59,2603.63 C3608.48,2603.63 3570.09,2630.77 3570.09,2661.22"/>
<path class="Note" d="M6589.91,966.341 C6589.91,980.574 6600.17,996.462 6626.98,996.462 C6661.4,996.462 6697.48,968.327 6697.48,939.199 C6697.48,919.67 6680.93,908.747 6660.41,908.747 C6628.3,908.747 6589.91,935.889 6589.91,966.341"/>
<path class="Note" d="M3945.8,2702.56 C3945.8,2716.79 3956.06,2732.68 3982.87,2732.68 C4017.29,2732.68 4053.37,2704.55 4053.37,2675.42 C4053.37,2655.89 4036.82,2644.97 4016.3,2644.97 C3984.19,2644.97 3945.8,2672.11 3945.8,2702.56"/>
<path class="Note" d="M6689.3,2909.25 C6689.3,2923.49 6699.57,2939.38 6726.38,2939.38 C6760.8,2939.38 6796.88,2911.24 6796.88,2882.11 C6796.88,2862.58 6780.33,2851.66 6759.81,2851.66 C6727.7,2851.66 6689.3,2878.8 6689.3,2909.25"/>
<path class="Note" d="M1604.61,1007.68 C1604.61,1021.91 1614.87,1037.8 1641.69,1037.8 C1676.11,1037.8 1712.19,1009.67 1712.19,980.538 C1712.19,961.009 1695.64,950.086 1675.12,950.086 C1643.01,950.086 1604.61,977.228 1604.61,1007.68"/>
<path class="Note" d="M6303.89,883.664 C6303.89,897.897 6314.15,913.785 6340.96,913.785 C6375.39,913.785 6411.47,885.65 6411.47,856.522 C6411.47,836.993 6394.92,826.07 6374.39,826.07 C6342.29,826.07 6303.89,853.212 6303.89,883.664"/>
<path class="Note" d="M4439.73,2743.9 C4439.73,2758.13 4449.99,2774.02 4476.8,2774.02 C4511.23,2774.02 4547.31,2745.89 4547.31,2716.76 C4547.31,2697.23 4530.76,2686.31 4510.23,2686.31 C4478.13,2686.31 4439.73,2713.45 4439.73,2743.9"/>
<path class="Note" d="M5382.12,1007.68 C5382.12,1021.91 5392.38,1037.8 5419.19,1037.8 C5453.62,1037.8 5489.7,1009.67 5489.7,980.538 C5489.7,961.009 5473.15,950.086 5452.62,950.086 C5420.52,950.086 5382.12,977.228 5382.12,1007.68"/>
<path class="Note" d="M4815.44,2826.58 C4815.44,2840.81 4825.7,2856.7 4852.51,2856.7 C4886.94,2856.7 4923.01,2828.56 4923.01,2799.44 C4923.01,2779.91 4906.46,2768.98 4885.94,2768.98 C4853.84,2768.98 4815.44,2796.13 4815.44,2826.58"/>
<path class="Note" d="M3434.98,1999.81 C3434.98,2014.04 3445.24,2029.93 3472.05,2029.93 C3506.47,2029.93 3542.55,2001.79 3542.55,1972.66 C3542.55,1953.14 3526,1942.21 3505.48,1942.21 C3473.37,1942.21 3434.98,1969.35 3434.98,1999.81"/>
<path class="Note" d="M5191.15,2619.88 C5191.15,2634.12 5201.41,2650.01 5228.22,2650.01 C5262.64,2650.01 5298.72,2621.87 5298.72,2592.74 C5298.72,2573.21 5282.17,2562.29 5261.65,2562.29 C5229.54,2562.29 5191.15,2589.43 5191.15,2619.88"/>
<path class="Note" d="M6438.83,2867.92 C6438.83,2882.15 6449.09,2898.04 6475.9,2898.04 C6510.33,2898.04 6546.41,2869.9 6546.41,2840.77 C6546.41,2821.25 6529.86,2810.32 6509.34,2810.32 C6477.23,2810.32 6438.83,2837.46 6438.83,2867.92"/>
<path class="Note" d="M8585.66,2717.13 C8574.74,2717.13 8572.42,2708.19 8572.42,2705.21 C8572.42,2688.99 8628.03,2660.52 8643.58,2660.52 C8651.53,2660.52 8656.82,2665.16 8656.82,2672.44 C8656.82,2688.99 8600.89,2717.13 8585.66,2717.13 M8631.34,2644.97 C8599.23,2644.97 8560.83,2671.78 8560.83,2702.56 C8560.83,2716.79 8571.1,2732.68 8597.91,2732.68 C8632.33,2732.68 8668.41,2704.55 8668.41,2675.42 C8668.41,2655.89 8651.86,2644.97 8631.34,2644.97"/>
<path class="Note" d="M4134.93,1751.77 C4134.93,1766.01 4145.2,1781.9 4172.01,1781.9 C4206.43,1781.9 4242.51,1753.76 4242.51,1724.63 C4242.51,1705.1 4225.96,1694.18 4205.44,1694.18 C4173.33,1694.18 4134.93,1721.32 4134.93,1751.77"/>
<path class="Clef" d="M909.689,2880.86 C903.069,2882.19 896.78,2882.85 890.491,2882.85 C843.158,2882.85 802.776,2849.75 802.776,2799.77 C802.776,2759.38 831.242,2723.31 860.37,2698.15 C865.997,2693.18 871.293,2688.55 876.258,2683.59 C879.237,2701.46 881.554,2717.02 883.871,2730.59 C853.75,2739.52 833.228,2771.3 833.228,2802.41 C833.228,2825.58 851.433,2857.36 877.913,2857.36 C880.561,2857.36 883.54,2856.04 883.54,2853.06 C883.54,2850.08 880.23,2848.42 876.258,2845.78 C863.349,2837.83 856.067,2829.23 856.067,2813.01 C856.067,2792.82 870.962,2776.6 890.491,2771.96 L909.689,2880.86 M880.561,2540.59 C883.54,2527.35 898.766,2492.6 915.978,2492.6 C920.943,2492.6 928.887,2508.82 928.887,2531.66 C928.887,2566.08 903.4,2591.9 880.561,2614.41 C878.575,2601.17 876.92,2588.26 876.92,2574.36 C876.92,2562.11 877.913,2550.85 880.561,2540.59 M956.691,2819.63 C956.691,2843.13 947.092,2867.29 923.591,2876.89 C916.64,2837.17 907.703,2784.54 905.386,2769.98 C935.176,2769.98 956.691,2790.17 956.691,2819.63 M811.051,2982.48 C811.051,3004.32 827.932,3033.12 872.617,3033.12 C888.174,3033.12 901.745,3029.15 913.661,3021.87 C931.535,3009.29 936.169,2987.44 936.169,2966.59 C936.169,2953.68 934.183,2938.79 930.873,2919.92 C929.88,2913.3 927.894,2903.37 925.908,2890.46 C958.346,2879.87 982.509,2846.11 982.509,2812.01 C982.509,2762.03 947.092,2728.27 898.766,2728.27 C895.456,2708.41 892.146,2688.88 889.167,2670.35 C924.253,2633.6 948.416,2592.23 948.416,2539.6 C948.416,2509.48 939.148,2484.99 933.852,2473.07 C925.908,2456.19 916.309,2444.6 910.351,2444.6 C908.034,2444.6 897.773,2448.58 886.85,2461.48 C865.666,2486.64 859.708,2529.01 859.708,2556.81 C859.708,2574.69 861.363,2590.91 866.99,2627.98 C866.659,2628.31 849.447,2645.85 842.496,2651.48 C812.375,2679.61 770.669,2719.66 770.669,2785.86 C770.669,2847.76 824.622,2896.42 886.188,2896.42 C895.787,2896.42 904.724,2895.43 912.337,2894.1 C918.626,2925.88 922.267,2949.05 922.267,2966.59 C922.267,3001.01 904.724,3019.22 871.293,3019.22 C863.349,3019.22 856.398,3017.56 855.736,3017.56 C855.405,3017.23 854.743,3016.9 854.743,3016.57 C854.743,3015.91 855.405,3015.58 856.398,3015.25 C871.955,3012.93 887.512,2999.69 887.512,2978.51 C887.512,2960.63 873.941,2941.77 849.116,2941.77 C825.946,2941.77 811.051,2960.63 811.051,2982.48"/>
<path class="Clef" d="M909.689,2012.75 C903.069,2014.08 896.78,2014.74 890.491,2014.74 C843.158,2014.74 802.776,1981.64 802.776,1931.66 C802.776,1891.27 831.242,1855.2 860.37,1830.04 C865.997,1825.07 871.293,1820.44 876.258,1815.48 C879.237,1833.35 881.554,1848.91 883.871,1862.48 C853.75,1871.41 833.228,1903.19 833.228,1934.3 C833.228,1957.47 851.433,1989.25 877.913,1989.25 C880.561,1989.25 883.54,1987.93 883.54,1984.95 C883.54,1981.97 880.23,1980.31 876.258,1977.67 C863.349,1969.72 856.067,1961.12 856.067,1944.9 C856.067,1924.71 870.962,1908.49 890.491,1903.85 L909.689,2012.75 M880.561,1672.48 C883.54,1659.24 898.766,1624.49 915.978,1624.49 C920.943,1624.49 928.887,1640.71 928.887,1663.55 C928.887,1697.97 903.4,1723.79 880.561,1746.3 C878.575,1733.06 876.92,1720.15 876.92,1706.25 C876.92,1694 877.913,1682.74 880.561,1672.48 M956.691,1951.52 C956.691,1975.02 947.092,1999.18 923.591,2008.78 C916.64,1969.06 907.703,1916.43 905.386,1901.87 C935.176,1901.87 956.691,1922.06 956.691,1951.52 M811.051,2114.37 C811.051,2136.21 827.932,2165.01 872.617,2165.01 C888.174,2165.01 901.745,2161.04 913.661,2153.76 C931.535,2141.18 936.169,2119.33 936.169,2098.48 C936.169,2085.57 934.183,2070.68 930.873,2051.81 C929.88,2045.19 927.894,2035.26 925.908,2022.35 C958.346,2011.76 982.509,1978 982.509,1943.9 C982.509,1893.92 947.092,1860.16 898.766,1860.16 C895.456,1840.3 892.146,1820.77 889.167,1802.24 C924.253,1765.49 948.416,1724.12 948.416,1671.49 C948.416,1641.37 939.148,1616.88 933.852,1604.96 C925.908,1588.08 916.309,1576.49 910.351,1576.49 C908.034,1576.49 897.773,1580.47 886.85,1593.37 C865.666,1618.53 859.708,1660.9 859.708,1688.7 C859.708,1706.58 861.363,1722.8 866.99,1759.87 C866.659,1760.2 849.447,1777.74 842.496,1783.37 C812.375,1811.5 770.669,1851.55 770.669,1917.75 C770.669,1979.65 824.622,2028.31 886.188,2028.31 C895.787,2028.31 904.724,2027.32 912.337,2025.99 C918.626,2057.77 922.267,2080.94 922.267,2098.48 C922.267,2132.9 904.724,2151.11 871.293,2151.11 C863.349,2151.11 856.398,2149.45 855.736,2149.45 C855.405,2149.12 854.743,2148.79 854.743,2148.46 C854.743,2147.8 855.405,2147.47 856.398,2147.14 C871.955,2144.82 887.512,2131.58 887.512,2110.4 C887.512,2092.52 873.941,2073.66 849.116,2073.66 C825.946,2073.66 811.051,2092.52 811.051,2114.37"/>
<path class="Clef" d="M909.689,1144.64 C903.069,1145.97 896.78,1146.63 890.491,1146.63 C843.158,1146.63 802.776,1113.53 802.776,1063.55 C802.776,1023.16 831.242,987.085 860.37,961.929 C865.997,956.964 871.293,952.33 876.258,947.365 C879.237,965.239 881.554,980.796 883.871,994.367 C853.75,1003.3 833.228,1035.08 833.228,1066.19 C833.228,1089.36 851.433,1121.14 877.913,1121.14 C880.561,1121.14 883.54,1119.82 883.54,1116.84 C883.54,1113.86 880.23,1112.2 876.258,1109.56 C863.349,1101.61 856.067,1093.01 856.067,1076.79 C856.067,1056.6 870.962,1040.38 890.491,1035.74 L909.689,1144.64 M880.561,804.373 C883.54,791.133 898.766,756.378 915.978,756.378 C920.943,756.378 928.887,772.597 928.887,795.436 C928.887,829.86 903.4,855.678 880.561,878.186 C878.575,864.946 876.92,852.037 876.92,838.135 C876.92,825.888 877.913,814.634 880.561,804.373 M956.691,1083.41 C956.691,1106.91 947.092,1131.07 923.591,1140.67 C916.64,1100.95 907.703,1048.32 905.386,1033.76 C935.176,1033.76 956.691,1053.95 956.691,1083.41 M811.051,1246.26 C811.051,1268.1 827.932,1296.9 872.617,1296.9 C888.174,1296.9 901.745,1292.93 913.661,1285.65 C931.535,1273.07 936.169,1251.22 936.169,1230.37 C936.169,1217.46 934.183,1202.57 930.873,1183.7 C929.88,1177.08 927.894,1167.15 925.908,1154.24 C958.346,1143.65 982.509,1109.89 982.509,1075.79 C982.509,1025.81 947.092,992.05 898.766,992.05 C895.456,972.19 892.146,952.661 889.167,934.125 C924.253,897.384 948.416,856.009 948.416,803.38 C948.416,773.259 939.148,748.765 933.852,736.849 C925.908,719.968 916.309,708.383 910.351,708.383 C908.034,708.383 897.773,712.355 886.85,725.264 C865.666,750.42 859.708,792.788 859.708,820.592 C859.708,838.466 861.363,854.685 866.99,891.757 C866.659,892.088 849.447,909.631 842.496,915.258 C812.375,943.393 770.669,983.444 770.669,1049.64 C770.669,1111.54 824.622,1160.2 886.188,1160.2 C895.787,1160.2 904.724,1159.21 912.337,1157.88 C918.626,1189.66 922.267,1212.83 922.267,1230.37 C922.267,1264.79 904.724,1283 871.293,1283 C863.349,1283 856.398,1281.34 855.736,1281.34 C855.405,1281.01 854.743,1280.68 854.743,1280.35 C854.743,1279.69 855.405,1279.36 856.398,1279.03 C871.955,1276.71 887.512,1263.47 887.512,1242.29 C887.512,1224.41 873.941,1205.55 849.116,1205.55 C825.946,1205.55 811.051,1224.41 811.051,1246.26"/>
<path class="KeySig" d="M1088.05,2716.76 C1088.05,2742.91 1074.48,2756.81 1055.28,2772.04 L1056.27,2707.49 C1056.93,2704.51 1061.9,2694.91 1075.14,2694.91 C1087.06,2694.91 1088.05,2706.17 1088.05,2713.12 L1088.05,2716.76 M1084.08,2678.69 C1067.53,2678.69 1057.93,2688.95 1056.27,2690.94 L1057.6,2584.69 C1057.6,2582.04 1055.61,2580.06 1052.96,2580.06 L1048.99,2580.06 C1046.34,2580.06 1044.36,2582.04 1044.36,2584.69 L1046.01,2783.62 C1046.01,2786.27 1048,2788.25 1050.65,2788.25 C1051.31,2788.25 1052.63,2787.92 1053.29,2787.59 C1081.76,2773.36 1111.55,2746.22 1111.55,2712.12 C1111.55,2694.91 1103.61,2678.69 1084.08,2678.69"/>
<path class="KeySig" d="M1179.99,2592.74 C1179.99,2618.89 1166.42,2632.79 1147.22,2648.02 L1148.21,2583.47 C1148.87,2580.5 1153.84,2570.9 1167.08,2570.9 C1178.99,2570.9 1179.99,2582.15 1179.99,2589.1 L1179.99,2592.74 M1176.01,2554.68 C1159.46,2554.68 1149.87,2564.94 1148.21,2566.92 L1149.53,2460.67 C1149.53,2458.03 1147.55,2456.04 1144.9,2456.04 L1140.93,2456.04 C1138.28,2456.04 1136.29,2458.03 1136.29,2460.67 L1137.95,2659.6 C1137.95,2662.25 1139.94,2664.24 1142.58,2664.24 C1143.25,2664.24 1144.57,2663.91 1145.23,2663.58 C1173.7,2649.34 1203.49,2622.2 1203.49,2588.11 C1203.49,2570.9 1195.54,2554.68 1176.01,2554.68"/>
<path class="KeySig" d="M1088.05,1848.65 C1088.05,1874.8 1074.48,1888.7 1055.28,1903.93 L1056.27,1839.38 C1056.93,1836.4 1061.9,1826.8 1075.14,1826.8 C1087.06,1826.8 1088.05,1838.06 1088.05,1845.01 L1088.05,1848.65 M1084.08,1810.58 C1067.53,1810.58 1057.93,1820.84 1056.27,1822.83 L1057.6,1716.58 C1057.6,1713.93 1055.61,1711.95 1052.96,1711.95 L1048.99,1711.95 C1046.34,1711.95 1044.36,1713.93 1044.36,1716.58 L1046.01,1915.51 C1046.01,1918.16 1048,1920.14 1050.65,1920.14 C1051.31,1920.14 1052.63,1919.81 1053.29,1919.48 C1081.76,1905.25 1111.55,1878.11 1111.55,1844.01 C1111.55,1826.8 1103.61,1810.58 1084.08,1810.58"/>
<path class="KeySig" d="M1179.99,1724.63 C1179.99,1750.78 1166.42,1764.68 1147.22,1779.91 L1148.21,1715.36 C1148.87,1712.39 1153.84,1702.79 1167.08,1702.79 C1178.99,1702.79 1179.99,1714.04 1179.99,1720.99 L1179.99,1724.63 M1176.01,1686.57 C1159.46,1686.57 1149.87,1696.83 1148.21,1698.81 L1149.53,1592.56 C1149.53,1589.92 1147.55,1587.93 1144.9,1587.93 L1140.93,1587.93 C1138.28,1587.93 1136.29,1589.92 1136.29,1592.56 L1137.95,1791.49 C1137.95,1794.14 1139.94,1796.13 1142.58,1796.13 C1143.25,1796.13 1144.57,1795.8 1145.23,1795.47 C1173.7,1781.23 1203.49,1754.09 1203.49,1720 C1203.49,1702.79 1195.54,1686.57 1176.01,1686.57"/>
<path class="KeySig" d="M1088.05,980.538 C1088.05,1006.69 1074.48,1020.59 1055.28,1035.82 L1056.27,971.27 C1056.93,968.291 1061.9,958.692 1075.14,958.692 C1087.06,958.692 1088.05,969.946 1088.05,976.897 L1088.05,980.538 M1084.08,942.473 C1067.53,942.473 1057.93,952.734 1056.27,954.72 L1057.6,848.469 C1057.6,845.821 1055.61,843.835 1052.96,843.835 L1048.99,843.835 C1046.34,843.835 1044.36,845.821 1044.36,848.469 L1046.01,1047.4 C1046.01,1050.05 1048,1052.03 1050.65,1052.03 C1051.31,1052.03 1052.63,1051.7 1053.29,1051.37 C1081.76,1037.14 1111.55,1010 1111.55,975.904 C1111.55,958.692 1103.61,942.473 1084.08,942.473"/>
<path class="KeySig" d="M1179.99,856.522 C1179.99,882.671 1166.42,896.573 1147.22,911.799 L1148.21,847.254 C1148.87,844.275 1153.84,834.676 1167.08,834.676 C1178.99,834.676 1179.99,845.93 1179.99,852.881 L1179.99,856.522 M1176.01,818.457 C1159.46,818.457 1149.87,828.718 1148.21,830.704 L1149.53,724.453 C1149.53,721.805 1147.55,719.819 1144.9,719.819 L1140.93,719.819 C1138.28,719.819 1136.29,721.805 1136.29,724.453 L1137.95,923.384 C1137.95,926.032 1139.94,928.018 1142.58,928.018 C1143.25,928.018 1144.57,927.687 1145.23,927.356 C1173.7,913.123 1203.49,885.981 1203.49,851.888 C1203.49,834.676 1195.54,818.457 1176.01,818.457"/>
<path class="TimeSig" d="M1393.7,934.529 C1385.42,939.825 1379.46,949.424 1379.46,960.016 C1379.46,961.34 1379.46,962.664 1379.79,963.988 C1381.45,977.559 1392.37,988.151 1405.94,989.806 L1409.58,989.806 C1426.13,989.806 1439.37,976.566 1439.37,960.016 L1439.37,958.03 C1439.37,956.706 1439.04,954.389 1438.71,953.065 C1435.73,938.832 1422.82,908.38 1366.55,908.38 C1294.4,908.38 1286.12,968.291 1286.12,989.806 C1286.12,1029.2 1291.09,1078.51 1373.84,1078.51 C1406.61,1078.51 1432.09,1059.32 1433.42,1023.9 C1433.42,1022.24 1432.42,1021.25 1430.77,1021.25 L1426.47,1021.25 C1425.14,1021.25 1423.82,1022.58 1423.82,1023.9 C1422.49,1051.37 1402.96,1067.92 1373.84,1067.92 C1345.04,1067.92 1331.14,1052.37 1331.14,1023.24 L1331.14,960.016 C1331.14,941.48 1338.42,920.296 1367.88,920.296 C1383.44,920.296 1390.39,925.923 1394.03,931.55 C1394.36,932.212 1394.36,932.543 1394.36,933.205 C1394.36,933.536 1394.36,934.198 1393.7,934.529"/>
<path class="Beam" fill-rule="evenodd" d="M5382.12,1200.47 L5962.42,1200.47 L5962.42,1241.81 L5382.12,1241.81 L5382.12,1200.47 "/>
<path class="Beam" fill-rule="evenodd" d="M6538.05,2605.92 L6796.78,2626.59 L6796.78,2668.06 L6538.05,2647.39 L6538.05,2605.92 "/>
<path class="Beam" fill-rule="evenodd" d="M1604.61,1200.46 L2184.91,1179.79 L2184.91,1221.15 L1604.61,1241.82 L1604.61,1200.46 "/>
<path class="Beam" fill-rule="evenodd" d="M7634.21,1200.46 L8214.51,1179.79 L8214.51,1221.15 L7634.21,1241.82 L7634.21,1200.46 "/>
<path class="Beam" fill-rule="evenodd" d="M8775.04,2047.8 L8977.22,2068.47 L8977.22,2110.03 L8775.04,2089.36 L8775.04,2047.8 "/>
<path class="Beam" fill-rule="evenodd" d="M8396.92,1200.46 L8977.22,1179.79 L8977.22,1221.15 L8396.92,1241.82 L8396.92,1200.46 "/>
<path class="Beam" fill-rule="evenodd" d="M4619.41,1200.46 L5199.71,1179.79 L5199.71,1221.15 L4619.41,1241.82 L4619.41,1200.46 "/>
<path class="Beam" fill-rule="evenodd" d="M2367.32,1200.46 L2947.63,1179.79 L2947.63,1221.15 L2367.32,1241.82 L2367.32,1200.46 "/>
<path class="Beam" fill-rule="evenodd" d="M3146.37,1737.76 L3348.55,1758.43 L3348.55,1799.99 L3146.37,1779.32 L3146.37,1737.76 "/>
<path class="NoteDot" d="M5339.98,2605.98 C5339.98,2615.25 5347.26,2622.53 5356.53,2622.53 C5365.8,2622.53 5373.08,2615.25 5373.08,2605.98 C5373.08,2596.71 5365.8,2589.43 5356.53,2589.43 C5347.26,2589.43 5339.98,2596.71 5339.98,2605.98"/>
<path class="NoteDot" d="M4009.96,1035.12 C4009.96,1044.38 4017.24,1051.67 4026.51,1051.67 C4035.78,1051.67 4043.06,1044.38 4043.06,1035.12 C4043.06,1025.85 4035.78,1018.57 4026.51,1018.57 C4017.24,1018.57 4009.96,1025.85 4009.96,1035.12"/>
<path class="NoteDot" d="M7024.76,952.439 C7024.76,961.707 7032.04,968.989 7041.31,968.989 C7050.58,968.989 7057.86,961.707 7057.86,952.439 C7057.86,943.171 7050.58,935.889 7041.31,935.889 C7032.04,935.889 7024.76,943.171 7024.76,952.439"/>
<path class="NoteDot" d="M2992.17,2523.31 C2992.17,2532.57 2999.46,2539.86 3008.72,2539.86 C3017.99,2539.86 3025.27,2532.57 3025.27,2523.31 C3025.27,2514.04 3017.99,2506.76 3008.72,2506.76 C2999.46,2506.76 2992.17,2514.04 2992.17,2523.31"/>
<path class="NoteDot" d="M8070.38,1655.2 C8070.38,1664.46 8077.66,1671.75 8086.93,1671.75 C8096.2,1671.75 8103.48,1664.46 8103.48,1655.2 C8103.48,1645.93 8096.2,1638.65 8086.93,1638.65 C8077.66,1638.65 8070.38,1645.93 8070.38,1655.2"/>
<path class="NoteDot" d="M5671.53,1655.2 C5671.53,1664.46 5678.82,1671.75 5688.08,1671.75 C5697.35,1671.75 5704.63,1664.46 5704.63,1655.2 C5704.63,1645.93 5697.35,1638.65 5688.08,1638.65 C5678.82,1638.65 5671.53,1645.93 5671.53,1655.2"/>
<path class="NoteDot" d="M2140.7,1737.87 C2140.7,1747.14 2147.98,1754.42 2157.25,1754.42 C2166.52,1754.42 2173.8,1747.14 2173.8,1737.87 C2173.8,1728.6 2166.52,1721.32 2157.25,1721.32 C2147.98,1721.32 2140.7,1728.6 2140.7,1737.87"/>
</svg>
