<?xml version="1.0" encoding="UTF-8" standalone="no"?>
<svg
   width="681"
   height="119.16004"
   version="1.2"
   id="svg144"
   xmlns="http://www.w3.org/2000/svg"
   xmlns:svg="http://www.w3.org/2000/svg"
   xmlns:rdf="http://www.w3.org/1999/02/22-rdf-syntax-ns#"
   xmlns:cc="http://creativecommons.org/ns#"
   xmlns:dc="http://purl.org/dc/elements/1.1/">
  <defs
     id="defs144" />
  <title
     id="title1">air_XXIX</title>
  <desc
     id="desc1">Generated by MuseScore Studio 4.7.3</desc>
  <path
     id="path144"
     class="NoteDot"
     d="m 622.55926,91.584381 c 0,0.741306 0.5828,1.324905 1.3249,1.324905 0.74131,0 1.32491,-0.583599 1.32491,-1.324905 0,-0.742108 -0.5836,-1.324906 -1.32491,-1.324906 -0.7421,0 -1.3249,0.582798 -1.3249,1.324906 m -2.46969,-69.496639 c 0,0.741948 0.5836,1.325227 1.3249,1.325227 0.74211,0 1.32491,-0.583279 1.32491,-1.325227 0,-0.741947 -0.5828,-1.324905 -1.32491,-1.324905 -0.7413,0 -1.3249,0.582958 -1.3249,1.324905 M 79.058843,111.44036 h 20.951927 v 3.30946 H 79.058843 v -3.30946 m 7.91661,-94.316652 h 18.563097 v 3.309383 H 86.975453 v -3.309383 m 481.566067,57.908555 20.95193,1.654732 v 3.319869 l -20.95193,-1.654731 v -3.31987 m -439.43806,36.407297 61.53247,-1.65473 v 3.31026 l -61.53247,1.65473 v -3.31026 M 564.34105,10.5003 586.15917,8.8455681 v 3.3189089 l -21.81812,1.654652 V 10.5003 m -323.64129,99.27972 20.95193,1.65473 v 3.31987 l -20.95193,-1.65473 v -3.31987 m 199.3427,-69.495516 64.12865,4.963394 v 3.31987 l -64.12865,-4.964194 v -3.31907 m -141.35585,38.057222 20.95193,1.654731 v 3.31907 L 298.68661,81.660795 V 78.341726 M 156.6663,40.284504 l 21.81732,1.654732 v 3.319069 L 156.6663,43.603574 v -3.31907 m 340.85947,44.675347 20.95272,1.654731 v 3.31987 l -20.95272,-1.654731 v -3.31987 M 388.26626,41.939236 410.08358,40.284504 v 3.31907 l -21.81732,1.654731 v -3.319069 m -48.9991,39.713554 14.1889,-0.846979 v 3.315066 l -14.1889,0.84778 V 81.65279 m 0,-4.963394 27.71495,-1.654731 v 3.315066 l -27.71495,1.654732 V 76.689396 M 322.16346,10.5003 343.98078,8.8455681 v 3.3189089 l -21.81732,1.654652 V 10.5003 m 94.88248,76.114282 20.95192,1.654732 v 3.31987 l -20.95192,-1.654732 v -3.31987 M 238.65356,8.8455681 260.47088,10.5003 v 3.318829 L 238.65356,12.164477 V 8.8455681 M 59.603941,35.341925 v 1.961341 h -2.199103 c -0.185727,0 -0.370654,0.158508 -0.370654,0.370653 v 0.503545 c 0,0.212145 0.184927,0.370653 0.370654,0.370653 h 8.028689 c 0.212145,0 0.371454,-0.158508 0.371454,-0.370653 v -0.503545 c 0,-0.212145 -0.159309,-0.370653 -0.371454,-0.370653 h -2.38483 v -1.961341 h 2.38483 c 0.212145,0 0.371454,-0.184926 0.371454,-0.397072 v -0.503544 c 0,-0.185727 -0.159309,-0.371454 -0.371454,-0.371454 h -2.38483 v -4.21248 c 0,-0.159309 -0.07925,-0.2922 -0.184927,-0.345036 l -0.318618,-0.158508 c -0.05284,-0.02642 -0.07925,-0.02642 -0.13209,-0.02642 -0.105672,0 -0.212145,0 -0.291399,0.07925 l -2.411249,2.199103 c -0.08006,0.07925 -0.106473,0.185727 -0.106473,0.2914 v 2.172685 H 56.53064 c 0,0 2.967629,-3.179774 6.094567,-7.365836 0.105672,-0.132891 0.13209,-0.264981 0.13209,-0.371454 0,-0.13209 -0.05284,-0.238563 -0.07925,-0.264981 l -0.582798,-0.582799 c -0.08006,-0.05284 -0.159309,-0.105672 -0.264982,-0.105672 -0.159308,0 -3.736154,0 -3.948299,0 -0.185727,0 -0.317817,0.158508 -0.344236,0.317817 0,0 -0.13289,1.960541 -0.822162,4.106808 -0.68847,2.146268 -1.483414,3.471174 -2.172685,4.451844 0,0 -0.07925,0.132891 -0.07925,0.291399 0,0.05284 0,0.106473 0.02642,0.159309 0.07925,0.185727 0.264981,0.477127 0.264981,0.477127 0,0 0.05284,0.158508 0.291399,0.158508 h 4.557516 m 0,-13.159398 v 1.960541 h -2.199103 c -0.185727,0 -0.370654,0.159309 -0.370654,0.371454 v 0.503544 c 0,0.212145 0.184927,0.370653 0.370654,0.370653 h 8.028689 c 0.212145,0 0.371454,-0.158508 0.371454,-0.370653 v -0.503544 c 0,-0.212145 -0.159309,-0.371454 -0.371454,-0.371454 h -2.38483 v -1.960541 h 2.38483 c 0.212145,0 0.371454,-0.185487 0.371454,-0.397472 v -0.503464 c 0,-0.185487 -0.159309,-0.370973 -0.371454,-0.370973 h -2.38483 v -4.213201 c 0,-0.158989 -0.07925,-0.291479 -0.184927,-0.344476 l -0.318618,-0.158988 c -0.05284,-0.0265 -0.07925,-0.0265 -0.13209,-0.0265 -0.105672,0 -0.212145,0 -0.291399,0.0795 l -2.411249,2.199344 c -0.08006,0.07949 -0.106473,0.185486 -0.106473,0.291479 v 2.172846 H 56.53064 c 0,0 2.967629,-3.179775 6.094567,-7.366477 0.105672,-0.132491 0.13209,-0.264981 0.13209,-0.370974 0,-0.13249 -0.05284,-0.238483 -0.07925,-0.264981 l -0.582798,-0.582959 c -0.08006,-0.053 -0.159309,-0.105992 -0.264982,-0.105992 -0.159308,0 -3.736154,0 -3.948299,0 -0.185727,0 -0.317817,0.158989 -0.344236,0.317977 0,0 -0.13289,1.960861 -0.822162,4.107209 -0.68847,2.146347 -1.483414,3.471253 -2.172685,4.451683 0,0 -0.07925,0.132491 -0.07925,0.29148 0,0.053 0,0.105992 0.02642,0.158988 0.07925,0.185487 0.264981,0.476967 0.264981,0.476967 0,0 0.05284,0.158988 0.291399,0.158988 h 4.557516 M 43.449706,76.385987 45.808118,75.90886 v 4.37179 l -2.358412,0.503544 v -4.398207 m 4.106808,-0.821362 c 0.159309,-0.02642 0.2922,-0.212145 0.2922,-0.371454 v -1.563469 c 0,-0.211344 -0.159309,-0.370653 -0.371454,-0.370653 h -0.05284 l -0.874198,0.185727 v -3.9483 h -0.742108 v 4.106808 l -2.358412,0.477126 v -3.736154 h -0.742108 v 3.895463 l -1.033506,0.211345 c -0.158509,0.02722 -0.291399,0.212145 -0.291399,0.371454 v 1.537051 c 0,0.211344 0.159308,0.370653 0.371453,0.370653 h 0.07925 l 0.874197,-0.185727 v 4.37259 l -1.033506,0.212145 c -0.158509,0.02642 -0.291399,0.211344 -0.291399,0.370653 v 1.537051 c 0,0.212145 0.159308,0.370654 0.371453,0.370654 h 0.07925 l 0.874197,-0.184927 v 3.947499 h 0.742108 v -4.106808 l 2.358412,-0.477126 v 3.736155 h 0.742108 V 82.42772 L 47.5565,82.241993 c 0.159309,-0.02642 0.2922,-0.212145 0.2922,-0.371454 V 80.30787 c 0,-0.212145 -0.159309,-0.371454 -0.371454,-0.371454 h -0.05284 l -0.874198,0.185727 v -4.372589 l 1.006288,-0.184927 M 36.194335,89.62304 38.552748,89.145913 v 4.37259 l -2.358413,0.503544 V 89.62304 m 4.107609,-0.821362 c 0.159308,-0.02642 0.291399,-0.212145 0.291399,-0.370654 v -1.563469 c 0,-0.212145 -0.159309,-0.371454 -0.370654,-0.371454 h -0.05364 l -0.874198,0.185727 v -3.948299 h -0.742107 v 4.107608 l -2.358413,0.477127 v -3.736955 h -0.741307 v 3.895463 l -1.033507,0.212145 c -0.159308,0.02642 -0.291399,0.212145 -0.291399,0.370654 v 1.53705 c 0,0.212146 0.158509,0.371454 0.370654,0.371454 h 0.07925 l 0.874998,-0.185727 v 4.37179 l -1.033507,0.212145 c -0.159308,0.02642 -0.291399,0.212145 -0.291399,0.371454 v 1.53625 c 0,0.212145 0.158509,0.371454 0.370654,0.371454 h 0.07925 l 0.874998,-0.185727 v 3.948296 h 0.741307 v -4.107605 l 2.358413,-0.476326 v 3.736155 h 0.742107 v -3.895463 l 1.007089,-0.185727 c 0.159308,-0.02642 0.291399,-0.211345 0.291399,-0.370654 v -1.563469 c 0,-0.212145 -0.159309,-0.370653 -0.370654,-0.370653 h -0.05364 l -0.874198,0.184926 v -4.371789 l 1.007089,-0.185727 m -11.361369,-9.106226 2.358413,-0.477127 v 4.37179 l -2.358413,0.503544 v -4.398207 m 4.107609,-0.821362 c 0.159309,-0.02722 0.291399,-0.212145 0.291399,-0.371454 v -1.563469 c 0,-0.212145 -0.159309,-0.370653 -0.370653,-0.370653 h -0.05364 l -0.874198,0.185727 v -3.9483 h -0.742107 v 4.106808 l -2.358413,0.477126 v -3.736154 h -0.741307 v 3.895463 l -1.033506,0.211345 c -0.159309,0.02642 -0.2914,0.212145 -0.2914,0.371454 v 1.53705 c 0,0.211345 0.158509,0.370654 0.370654,0.370654 h 0.07925 l 0.874998,-0.185727 v 4.37259 l -1.033506,0.212145 c -0.159309,0.02642 -0.2914,0.211344 -0.2914,0.370653 v 1.537051 c 0,0.212145 0.158509,0.370654 0.370654,0.370654 h 0.07925 l 0.874998,-0.185727 v 3.948299 h 0.741307 v -4.106808 l 2.358413,-0.477126 v 3.736155 h 0.742107 v -3.895464 l 1.007089,-0.184926 c 0.159309,-0.02642 0.291399,-0.212145 0.291399,-0.371454 v -1.563469 c 0,-0.211345 -0.159309,-0.370654 -0.370653,-0.370654 h -0.05364 l -0.874198,0.185727 v -4.37259 L 33.048184,78.87409 M 43.449696,6.8895107 45.808108,6.4125446 v 4.3721894 l -2.358412,0.503464 V 6.8895107 M 47.556504,6.068069 c 0.159309,-0.026498 0.2922,-0.2119849 0.2922,-0.3709736 v -1.563389 c 0,-0.2119849 -0.159309,-0.3709736 -0.371454,-0.3709736 H 47.42441 L 46.550216,3.9482196 V 0 H 45.808108 V 4.1072083 L 43.449696,4.5841744 V 0.84793978 H 42.707588 V 4.7431631 l -1.033506,0.211985 c -0.158509,0.026498 -0.291399,0.2119849 -0.291399,0.3709736 v 1.5368909 c 0,0.2119849 0.159308,0.3709736 0.371453,0.3709736 h 0.07925 l 0.874197,-0.1854868 v 4.3721896 l -1.033506,0.211985 c -0.158509,0.0265 -0.291399,0.211985 -0.291399,0.370973 v 1.536891 c 0,0.211985 0.159308,0.370974 0.371453,0.370974 h 0.07925 l 0.874197,-0.185487 v 3.94822 h 0.742108 v -4.107209 l 2.358412,-0.476966 v 3.736235 h 0.742108 v -3.895223 l 1.006288,-0.185487 c 0.159309,-0.0265 0.2922,-0.211985 0.2922,-0.370974 v -1.563389 c 0,-0.211985 -0.159309,-0.370974 -0.371454,-0.370974 H 47.4244 l -0.874198,0.185487 V 6.2535559 L 47.556504,6.068069 m -11.362169,14.058813 2.358413,-0.476966 v 4.372269 l -2.358413,0.503544 v -4.398847 m 4.107609,-0.821442 c 0.159308,-0.0265 0.291399,-0.211985 0.291399,-0.370974 v -1.563389 c 0,-0.211985 -0.159309,-0.370973 -0.370654,-0.370973 h -0.05364 l -0.874198,0.185487 v -3.94822 h -0.742107 v 4.107208 l -2.358413,0.476966 v -3.736234 h -0.741307 v 3.895223 l -1.033507,0.211985 c -0.159308,0.0265 -0.291399,0.211985 -0.291399,0.370974 v 1.536891 c 0,0.211985 0.158509,0.370973 0.370654,0.370973 h 0.07925 L 35.45302,20.28587 v 4.37195 l -1.033507,0.212145 c -0.159308,0.02642 -0.291399,0.212145 -0.291399,0.371454 v 1.53625 c 0,0.212145 0.158509,0.371454 0.370654,0.371454 h 0.07925 l 0.874998,-0.185727 v 3.9483 h 0.741307 v -4.107609 l 2.358413,-0.476325 v 3.736154 h 0.742107 v -3.895463 l 1.007089,-0.185727 c 0.159308,-0.02642 0.291399,-0.211345 0.291399,-0.370654 v -1.563469 c 0,-0.212145 -0.159309,-0.370653 -0.370654,-0.370653 h -0.05364 l -0.874198,0.184926 V 19.490927 L 40.301944,19.30544 M 28.940575,10.198813 31.298988,9.7218473 v 4.3721897 l -2.358413,0.503464 v -4.398688 m 4.107609,-0.8214412 c 0.159309,-0.026498 0.291399,-0.211985 0.291399,-0.3709737 v -1.563389 c 0,-0.2119849 -0.159309,-0.3709736 -0.370653,-0.3709736 H 32.91529 L 32.041095,7.2575223 V 3.3093027 H 31.298988 V 7.416511 L 28.940575,7.8934771 V 4.1572425 h -0.741307 v 3.8952234 l -1.033506,0.2119849 c -0.159309,0.026498 -0.2914,0.2119849 -0.2914,0.3709736 v 1.5368906 c 0,0.211985 0.158509,0.370974 0.370654,0.370974 h 0.07925 l 0.874998,-0.185487 v 4.37219 l -1.033506,0.211985 c -0.159309,0.0265 -0.2914,0.211984 -0.2914,0.370973 v 1.536891 c 0,0.211985 0.158509,0.370974 0.370654,0.370974 h 0.07925 l 0.874998,-0.185487 v 3.948219 h 0.741307 v -4.107208 l 2.358413,-0.476966 v 3.736235 h 0.742107 v -3.895224 l 1.007089,-0.185487 c 0.159309,-0.0265 0.291399,-0.211984 0.291399,-0.370973 v -1.563389 c 0,-0.211985 -0.159309,-0.370974 -0.370653,-0.370974 h -0.05364 l -0.874198,0.185487 V 9.5628586 l 1.0071,-0.1854868 M 16.093311,106.9709 c -0.529962,0.10567 -1.033427,0.15851 -1.536891,0.15851 -3.789231,0 -7.0220012,-2.64981 -7.0220012,-6.65095 0,-3.232608 2.2788382,-6.120983 4.6106722,-8.13436 0.450468,-0.397872 0.874438,-0.768525 1.27191,-1.166397 0.238483,1.431378 0.42397,2.676229 0.609457,3.762572 -2.411329,0.71569 -4.0542123,3.259829 -4.0542123,5.750335 0,1.85487 1.4573963,4.399 3.5772463,4.399 0.211985,0 0.450468,-0.10647 0.450468,-0.34503 0,-0.23776 -0.264982,-0.37065 -0.582959,-0.5828 -1.033427,-0.63563 -1.616385,-1.32491 -1.616385,-2.62339 0,-1.616309 1.192415,-2.914796 2.755804,-3.28545 l 1.536891,8.71796 M 13.761477,79.730676 c 0.238483,-1.059925 1.457396,-3.841827 2.835298,-3.841827 0.397472,0 1.033427,1.297687 1.033427,3.126137 0,2.756285 -2.040355,4.823298 -3.868725,6.62453 -0.158989,-1.059925 -0.29148,-2.093432 -0.29148,-3.206192 0,-0.97987 0.0795,-1.881287 0.29148,-2.702648 m 6.094567,22.337674 c 0,1.88129 -0.768446,3.81621 -2.649812,4.58473 -0.556461,-3.17977 -1.27191,-7.393051 -1.457397,-8.559449 2.384831,0 4.107209,1.616305 4.107209,3.974719 M 8.1968718,115.10606 c 0,1.7484 1.351404,4.05398 4.9286502,4.05398 1.245411,0 2.331834,-0.31782 3.285766,-0.90142 1.430899,-1.00629 1.801872,-2.75549 1.801872,-4.42463 0,-1.0335 -0.158988,-2.22632 -0.423969,-3.73615 -0.07949,-0.52996 -0.238484,-1.32491 -0.397472,-2.35841 2.596815,-0.84778 4.531178,-3.55123 4.531178,-6.2803 0,-4.001133 -2.835299,-6.703781 -6.704024,-6.703781 -0.264981,-1.589887 -0.529962,-3.153356 -0.768445,-4.637571 2.8088,-2.941211 4.743163,-6.253076 4.743163,-10.466357 0,-2.411248 -0.741948,-4.372589 -1.165917,-5.326041 -0.635955,-1.351324 -1.404401,-2.279159 -1.881367,-2.279159 -0.185487,0 -1.006928,0.317818 -1.881366,1.351324 -1.69588,2.014178 -2.172846,5.406097 -2.172846,7.631618 0,1.430579 0.132491,2.729066 0.582959,5.696696 -0.0265,0.02722 -1.404401,1.431378 -1.960861,1.882086 -2.4113287,2.25194 -5.7500916,5.458132 -5.7500916,10.757756 0,4.955389 4.3191932,8.850849 9.2478436,8.850849 0.768445,0 1.483894,-0.08 2.093351,-0.18572 0.503464,2.54333 0.794943,4.3982 0.794943,5.80316 0,2.75549 -1.4044,4.21328 -4.08071,4.21328 -0.635955,0 -1.192415,-0.13289 -1.245411,-0.13289 -0.0265,-0.0264 -0.07949,-0.0528 -0.07949,-0.0792 0,-0.0528 0.053,-0.0793 0.132491,-0.10647 1.245412,-0.18493 2.490823,-1.24485 2.490823,-2.94121 0,-1.43058 -1.086423,-2.94122 -3.073782,-2.94122 -1.8548679,0 -3.0472832,1.51064 -3.0472832,3.25983 M 16.093311,37.474583 c -0.529962,0.105672 -1.033427,0.158509 -1.536891,0.158509 -3.789231,0 -7.0220012,-2.649812 -7.0220012,-6.650948 0,-3.23261 2.2788382,-6.120985 4.6106722,-8.134682 0.450468,-0.397472 0.874438,-0.768446 1.27191,-1.165917 0.238483,1.430898 0.42397,2.676069 0.609457,3.762412 -2.411329,0.71569 -4.0542123,3.259829 -4.0542123,5.750332 0,1.854868 1.4573963,4.399008 3.5772463,4.399008 0.211985,0 0.450468,-0.106473 0.450468,-0.345036 0,-0.238563 -0.264982,-0.370654 -0.582959,-0.582799 -1.033427,-0.635634 -1.616385,-1.324905 -1.616385,-2.623393 0,-1.616305 1.192415,-2.914793 2.755804,-3.285447 l 1.536891,8.717961 M 13.761477,10.234358 c 0.238483,-1.059925 1.457396,-3.8422274 2.835298,-3.8422274 0.397472,0 1.033427,1.2984078 1.033427,3.1267779 0,2.7558045 -2.040355,4.8226575 -3.868725,6.6245295 -0.158989,-1.059925 -0.29148,-2.093351 -0.29148,-3.206272 0,-0.980431 0.0795,-1.881367 0.29148,-2.702808 m 6.094567,22.337673 c 0,1.881286 -0.768446,3.816209 -2.649812,4.584735 -0.556461,-3.179774 -1.27191,-7.393055 -1.457397,-8.559453 2.384831,0 4.107209,1.616305 4.107209,3.974718 M 8.1968718,45.608945 c 0,1.749196 1.351404,4.054772 4.9286502,4.054772 1.245411,0 2.331834,-0.317817 3.285766,-0.901416 1.430899,-1.006288 1.801872,-2.755484 1.801872,-4.424625 0,-1.033507 -0.158988,-2.226322 -0.423969,-3.736155 -0.07949,-0.529962 -0.238484,-1.324906 -0.397472,-2.358412 2.596815,-0.848581 4.531178,-3.551229 4.531178,-6.280295 0,-4.001135 -2.835299,-6.703783 -6.704024,-6.703783 -0.264981,-1.589887 -0.529962,-3.153516 -0.768445,-4.637411 2.8088,-2.941291 4.743163,-6.253556 4.743163,-10.466757 0,-2.4113284 -0.741948,-4.3721891 -1.165917,-5.3261214 -0.635955,-1.351404 -1.404401,-2.2788381 -1.881367,-2.2788381 -0.185487,0 -1.006928,0.3179774 -1.881366,1.351404 -1.69588,2.013857 -2.172846,5.4056161 -2.172846,7.6314575 0,1.430899 0.132491,2.729307 0.582959,5.697096 -0.0265,0.0265 -1.404401,1.430898 -1.960861,1.881366 -2.4113287,2.25234 -5.7500916,5.458533 -5.7500916,10.758156 0,4.955388 4.3191932,8.850051 9.2478436,8.850051 0.768445,0 1.483894,-0.07925 2.093351,-0.184926 0.503464,2.543339 0.794943,4.398207 0.794943,5.803168 0,2.755484 -1.4044,4.213281 -4.08071,4.213281 -0.635955,0 -1.192415,-0.132891 -1.245411,-0.132891 -0.0265,-0.02642 -0.07949,-0.05284 -0.07949,-0.07925 0,-0.05284 0.053,-0.08005 0.132491,-0.106473 1.245412,-0.184927 2.490823,-1.244851 2.490823,-2.941211 0,-1.430578 -1.086423,-2.941211 -3.073782,-2.941211 -1.8548679,0 -3.0472832,1.510633 -3.0472832,3.259028 M 230.71133,29.819749 c 0,1.139179 0.82136,2.411249 2.96763,2.411249 2.75549,0 5.64386,-2.25274 5.64386,-4.584735 0,-1.563469 -1.32491,-2.437667 -2.96763,-2.437667 -2.57056,0 -5.64386,2.172686 -5.64386,4.611153 m 198.68225,82.733371 c 0,1.13918 0.82136,2.41125 2.96763,2.41125 2.75628,0 5.64466,-2.25194 5.64466,-4.58394 0,-1.56347 -1.32491,-2.43766 -2.96843,-2.43766 -2.56976,0 -5.64386,2.17268 -5.64386,4.61035 M 282.48753,36.437874 c 0,1.13998 0.82137,2.411249 2.96763,2.411249 2.75549,0 5.64386,-2.25194 5.64386,-4.583934 0,-1.563469 -1.3249,-2.437667 -2.96763,-2.437667 -2.57055,0 -5.64386,2.172686 -5.64386,4.610352 m -83.5099,-6.618125 c 0,1.139179 0.82137,2.411249 2.96763,2.411249 2.75629,0 5.64386,-2.25274 5.64386,-4.584735 0,-1.563469 -1.3249,-2.437667 -2.96763,-2.437667 -2.56975,0 -5.64386,2.172686 -5.64386,4.611153 m 210.12608,79.423911 c 0,1.13917 0.82136,2.41124 2.96763,2.41124 2.75548,0 5.64386,-2.25194 5.64386,-4.58393 0,-1.56347 -1.32491,-2.43767 -2.96763,-2.43767 -2.57056,0 -5.64386,2.17269 -5.64386,4.61036 M 314.22123,33.128411 c 0,1.13998 0.82136,2.411249 2.96763,2.411249 2.75549,0 5.64386,-2.25194 5.64386,-4.583934 0,-1.563469 -1.32491,-2.437667 -2.96763,-2.437667 -2.57056,0 -5.64386,2.172686 -5.64386,4.610352 m 64.44727,69.496319 c 0,1.13998 0.82136,2.41205 2.96763,2.41205 2.75548,0 5.64386,-2.25274 5.64386,-4.58474 0,-1.563465 -1.32491,-2.437663 -2.96763,-2.437663 -2.57056,0 -5.64386,2.172683 -5.64386,4.610353 m 80.47983,13.23785 c 0,1.13918 0.82136,2.41125 2.96762,2.41125 2.75629,0 5.64466,-2.25274 5.64466,-4.58393 0,-1.56347 -1.3249,-2.43847 -2.96762,-2.43847 -2.57056,0 -5.64466,2.17348 -5.64466,4.61115 M 358.37782,96.006604 c 0,1.139179 0.82217,2.411249 2.96843,2.411249 2.75549,0 5.64386,-2.25274 5.64386,-4.584735 0,-1.562668 -1.3249,-2.437667 -2.96763,-2.437667 -2.57055,0 -5.64466,2.172686 -5.64466,4.611153 M 335.3765,29.819749 c 0,1.139179 0.82136,2.411249 2.96843,2.411249 2.75548,0 5.64386,-2.25274 5.64386,-4.584735 0,-1.563469 -1.32491,-2.437667 -2.96763,-2.437667 -2.57056,0 -5.64466,2.172686 -5.64466,4.611153 m 9.47528,72.804981 c 0,1.13998 0.82136,2.41205 2.96762,2.41205 2.75549,0 5.64386,-2.25274 5.64386,-4.58474 0,-1.563465 -1.3249,-2.437663 -2.96763,-2.437663 -2.57055,0 -5.64385,2.172683 -5.64385,4.610353 m 11.68078,-76.114444 c 0,1.139179 0.82136,2.411249 2.96763,2.411249 2.75629,0 5.64386,-2.25274 5.64386,-4.584735 0,-1.562988 -1.32491,-2.437426 -2.96763,-2.437426 -2.56976,0 -5.64386,2.172445 -5.64386,4.610912 m -178.71099,0 c 0,1.139179 0.82136,2.411249 2.96843,2.411249 2.75548,0 5.64386,-2.25274 5.64386,-4.584735 0,-1.562988 -1.32491,-2.437426 -2.96763,-2.437426 -2.57056,0 -5.64466,2.172445 -5.64466,4.610912 m 153.50336,79.423904 c 0,1.13998 0.82136,2.41125 2.96763,2.41125 2.75548,0 5.64385,-2.25194 5.64385,-4.58393 0,-1.56347 -1.3249,-2.43767 -2.96762,-2.43767 -2.57056,0 -5.64386,2.17269 -5.64386,4.61035 m 56.94133,-79.423904 c 0,1.139179 0.82136,2.411249 2.96763,2.411249 2.75548,0 5.64386,-2.25274 5.64386,-4.584735 0,-1.562988 -1.32491,-2.437426 -2.96763,-2.437426 -2.57056,0 -5.64386,2.172445 -5.64386,4.610912 m -77.23201,76.114444 c 0,1.13998 0.82136,2.41205 2.96843,2.41205 2.75549,0 5.64386,-2.25274 5.64386,-4.58474 0,-1.563465 -1.3249,-2.437663 -2.96763,-2.437663 -2.57056,0 -5.64466,2.172683 -5.64466,4.610353 m 178.54929,3.30946 c 0,1.13998 0.82136,2.41125 2.96762,2.41125 2.75629,0 5.64466,-2.25194 5.64466,-4.58393 0,-1.56347 -1.3249,-2.43767 -2.96762,-2.43767 -2.57056,0 -5.64466,2.17269 -5.64466,4.61035 m 20.29067,6.61893 c 0,1.13918 0.82136,2.41125 2.96763,2.41125 2.75548,0 5.64386,-2.25194 5.64386,-4.58394 0,-1.56347 -1.32491,-2.43766 -2.96763,-2.43766 -2.57056,0 -5.64386,2.17268 -5.64386,4.61035 M 290.74438,99.316067 c 0,1.139183 0.82136,2.411253 2.96763,2.411253 2.75628,0 5.64466,-2.252745 5.64466,-4.584739 0,-1.563469 -1.32491,-2.437667 -2.96843,-2.437667 -2.56976,0 -5.64386,2.172686 -5.64386,4.611153 M 409.42152,23.200663 c 0,1.139339 0.82217,2.411409 2.96843,2.411409 2.75549,0 5.64386,-2.25274 5.64386,-4.584254 0,-1.563389 -1.3249,-2.437827 -2.96763,-2.437827 -2.57055,0 -5.64466,2.172846 -5.64466,4.610672 m 30.62094,-3.309382 c 0,1.139419 0.82136,2.411328 2.96763,2.411328 2.75549,0 5.64386,-2.25234 5.64386,-4.584174 0,-1.563389 -1.32491,-2.437827 -2.96763,-2.437827 -2.57056,0 -5.64386,2.172846 -5.64386,4.610673 M 156.6663,23.200663 c 0,1.139339 0.82137,2.411409 2.96763,2.411409 2.75549,0 5.64386,-2.25274 5.64386,-4.584254 0,-1.563389 -1.3249,-2.437827 -2.96763,-2.437827 -2.57055,0 -5.64386,2.172846 -5.64386,4.610672 m 104.32333,72.805941 c 0,1.139179 0.82137,2.411249 2.96763,2.411249 2.75549,0 5.64386,-2.25274 5.64386,-4.584735 0,-1.562668 -1.3249,-2.437667 -2.96763,-2.437667 -2.57055,0 -5.64386,2.172686 -5.64386,4.611153 m 200.2081,-72.805941 c 0,1.139339 0.82216,2.411409 2.96843,2.411409 2.75548,0 5.64386,-2.25274 5.64386,-4.584254 0,-1.563389 -1.32491,-2.437827 -2.96763,-2.437827 -2.57056,0 -5.64466,2.172846 -5.64466,4.610672 m 68.96635,86.042997 c 0,1.13917 0.82136,2.41124 2.96763,2.41124 2.75549,0 5.64386,-2.25194 5.64386,-4.58393 0,-1.56347 -1.32491,-2.43767 -2.96763,-2.43767 -2.57056,0 -5.64386,2.17269 -5.64386,4.61036 M 240.69976,92.697141 c 0,1.139179 0.82136,2.411249 2.96763,2.411249 2.75549,0 5.64386,-2.25274 5.64386,-4.583934 0,-1.563469 -1.32491,-2.438467 -2.96763,-2.438467 -2.57056,0 -5.64386,2.173486 -5.64386,4.611152 M 482.35379,26.510286 c 0,1.139179 0.82136,2.411249 2.96763,2.411249 2.75629,0 5.64466,-2.25274 5.64466,-4.584735 0,-1.562988 -1.32491,-2.437426 -2.96843,-2.437426 -2.56976,0 -5.64386,2.172445 -5.64386,4.610912 M 210.26455,92.697141 c 0,1.139179 0.82136,2.411249 2.96763,2.411249 2.75549,0 5.64386,-2.25274 5.64386,-4.583934 0,-1.563469 -1.32491,-2.438467 -2.96763,-2.438467 -2.57056,0 -5.64386,2.173486 -5.64386,4.611152 M 503.50986,29.819749 c 0,1.139179 0.82136,2.411249 2.96763,2.411249 2.75548,0 5.64386,-2.25274 5.64386,-4.584735 0,-1.563469 -1.32491,-2.437667 -2.96763,-2.437667 -2.57056,0 -5.64386,2.172686 -5.64386,4.611153 m -313.53598,59.56793 c 0,1.139179 0.82136,2.411248 2.96763,2.411248 2.75628,0 5.64466,-2.251939 5.64466,-4.583934 0,-1.563469 -1.32491,-2.437667 -2.96763,-2.437667 -2.57056,0 -5.64466,2.172686 -5.64466,4.610353 M 524.66512,33.128411 c 0,1.13998 0.82136,2.411249 2.96763,2.411249 2.75629,0 5.64466,-2.25194 5.64466,-4.583934 0,-1.563469 -1.3249,-2.437667 -2.96763,-2.437667 -2.57056,0 -5.64466,2.172686 -5.64466,4.610352 M 169.68401,86.078216 c 0,1.139179 0.82136,2.411248 2.96762,2.411248 2.75629,0 5.64386,-2.251939 5.64386,-4.583934 0,-1.563469 -1.3249,-2.437667 -2.96763,-2.437667 -2.56975,0 -5.64385,2.172686 -5.64385,4.610353 M 556.39882,33.128411 c 0,1.13998 0.82136,2.411249 2.96763,2.411249 2.75628,0 5.64466,-2.25194 5.64466,-4.583934 0,-1.563469 -1.32491,-2.437667 -2.96843,-2.437667 -2.56976,0 -5.64386,2.172686 -5.64386,4.610352 M 149.39413,86.078216 c 0,1.139179 0.82136,2.411248 2.96763,2.411248 2.75549,0 5.64386,-2.251939 5.64386,-4.583934 0,-1.563469 -1.32491,-2.437667 -2.96763,-2.437667 -2.57056,0 -5.64386,2.172686 -5.64386,4.610353 M 124.93261,29.819749 c 0,1.139179 0.82136,2.411249 2.96763,2.411249 2.75548,0 5.64385,-2.25274 5.64385,-4.584735 0,-1.563469 -1.3249,-2.437667 -2.96762,-2.437667 -2.57056,0 -5.64386,2.172686 -5.64386,4.611153 m 435.66668,66.186855 c 0,1.139179 0.82136,2.411249 2.96763,2.411249 2.75549,0 5.64386,-2.25274 5.64386,-4.584735 0,-1.562668 -1.32491,-2.437667 -2.96763,-2.437667 -2.57056,0 -5.64386,2.172686 -5.64386,4.611153 m -431.49583,0 c 0,1.139179 0.82136,2.411249 2.96843,2.411249 2.75548,0 5.64386,-2.25274 5.64386,-4.584735 0,-1.562668 -1.32491,-2.437667 -2.96763,-2.437667 -2.57056,0 -5.64466,2.172686 -5.64466,4.611153 M 577.55489,29.819749 c 0,1.139179 0.82136,2.411249 2.96762,2.411249 2.75549,0 5.64386,-2.25274 5.64386,-4.584735 0,-1.563469 -1.3249,-2.437667 -2.96763,-2.437667 -2.57055,0 -5.64385,2.172686 -5.64385,4.611153 m 32.60789,-2.143866 c -0.875,0 -1.05992,-0.715689 -1.05992,-0.954252 0,-1.297687 4.45184,-3.576846 5.69669,-3.576846 0.63644,0 1.05993,0.370654 1.05993,0.954253 0,1.324906 -4.47827,3.576845 -5.6967,3.576845 m 3.6569,-5.776509 c -2.57056,0 -5.64466,2.146027 -5.64466,4.610912 0,1.139179 0.82136,2.411249 2.96763,2.411249 2.75629,0 5.64466,-2.25274 5.64466,-4.584735 0,-1.562988 -1.32491,-2.437426 -2.96763,-2.437426 M 96.934263,39.747337 c 0,1.139179 0.821361,2.411249 2.967629,2.411249 2.756288,0 5.644658,-2.25194 5.644658,-4.583934 0,-1.563469 -1.3249,-2.437667 -2.96843,-2.437667 -2.56976,0 -5.643857,2.172685 -5.643857,4.610352 m 2.41445,56.259267 c 0,1.139179 0.821367,2.411249 2.967627,2.411249 2.75629,0 5.64466,-2.25274 5.64466,-4.584735 0,-1.562668 -1.3249,-2.437667 -2.96843,-2.437667 -2.56975,0 -5.643857,2.172686 -5.643857,4.611153 m 481.540457,6.618126 c 0,1.13998 0.82136,2.41205 2.96762,2.41205 2.75629,0 5.64466,-2.25274 5.64466,-4.58474 0,-1.563465 -1.3249,-2.437663 -2.96843,-2.437663 -2.56975,0 -5.64385,2.172683 -5.64385,4.610353 M 79.033226,39.747337 c 0,1.139179 0.821362,2.411249 2.967626,2.411249 2.756284,0 5.644659,-2.25194 5.644659,-4.583934 0,-1.563469 -1.324906,-2.437667 -2.968429,-2.437667 -2.569757,0 -5.643856,2.172685 -5.643856,4.610352 m 0.02562,56.259267 c 0,1.139179 0.821362,2.411249 2.967626,2.411249 2.755484,0 5.643859,-2.25274 5.643859,-4.584735 0,-1.562668 -1.324906,-2.437667 -2.967629,-2.437667 -2.570557,0 -5.643856,2.172686 -5.643856,4.611153 M 251.8666,33.128411 c 0,1.13998 0.82216,2.411249 2.96843,2.411249 2.75548,0 5.64386,-2.25194 5.64386,-4.583934 0,-1.563469 -1.32491,-2.437667 -2.96763,-2.437667 -2.57056,0 -5.64466,2.172686 -5.64466,4.610352 m 360.76507,64.04379 c -0.8742,0 -1.05993,-0.715689 -1.05993,-0.954252 0,-1.297688 4.45185,-3.576846 5.6967,-3.576846 0.63643,0 1.05992,0.370654 1.05992,0.954253 0,1.324905 -4.47826,3.576845 -5.69669,3.576845 m 3.6569,-5.77675 c -2.57056,0 -5.64466,2.146268 -5.64466,4.611153 0,1.139179 0.82136,2.411249 2.96843,2.411249 2.75548,0 5.64386,-2.25274 5.64386,-4.584735 0,-1.562668 -1.32491,-2.437667 -2.96763,-2.437667 M 132.87444,7.1957112 V 27.64704 h 0.66202 V 7.1957112 Z M 99.349178,96.005027 v 17.090123 h 0.662012 V 96.005027 Z m -20.290751,0 v 17.090123 h 0.662021 V 96.005027 Z m 531.585813,0 v 18.744853 h 0.66217 V 96.005027 Z M 86.97587,18.778318 v 18.79707 h 0.66202 v -18.79707 z m 17.90099,0 v 18.79707 h 0.66201 v -18.79707 z m 503.29851,7.730439 v 18.744697 h 0.66217 V 26.508757 Z M 129.1039,96.005027 v 17.081213 h 0.66201 V 96.005027 Z M 585.49673,10.530178 V 27.64704 h 0.66202 V 10.530178 Z M 149.39371,86.077455 v 26.462785 h 0.66201 V 86.077455 Z m 20.28997,0 V 111.9944 h 0.66201 V 86.077455 Z M 564.34149,12.134557 v 18.821929 h 0.66201 V 12.134557 Z M 189.97426,89.38691 v 22.06227 h 0.66202 V 89.38691 Z M 532.60776,8.8504363 V 30.956486 h 0.66201 V 8.8504363 Z M 210.26408,92.696357 v 20.398793 h 0.66216 V 92.696357 Z M 503.50943,29.818212 v 17.064476 h 0.66201 V 29.818212 Z M 240.69942,92.696357 v 18.769553 h 0.66201 V 92.696357 Z m 241.65398,-66.1876 v 18.735939 h 0.66201 V 26.508757 Z m -221.36417,69.49627 v 17.063703 h 0.66202 V 96.005027 Z M 461.19815,23.199779 v 20.406925 h 0.66201 V 23.199779 Z m -21.15602,-3.30945 v 22.079312 h 0.66201 V 19.890329 Z m -141.3551,60.137366 v 17.116551 h 0.66202 V 80.027695 Z M 409.42197,23.199779 v 18.769085 h 0.66202 V 23.199779 Z m -90.44513,58.429795 v 18.823346 h 0.66202 V 81.629574 Z m 20.28997,-3.302258 v 25.435044 h 0.66202 V 78.327316 Z m 48.99898,-51.818559 v 17.064324 h 0.66216 V 26.508757 Z M 352.79357,77.51958 v 22.93334 h 0.66216 V 77.51958 Z m 13.5269,-0.807744 v 17.122955 h 0.66201 V 76.711836 Z M 343.31911,10.530178 V 27.64704 h 0.66202 V 10.530178 Z m 43.29117,67.816367 v 22.106375 h 0.66217 V 78.346545 Z m 30.43519,9.953998 v 18.771267 h 0.66216 V 88.300543 Z M 322.16309,12.134557 v 18.821929 h 0.66201 V 12.134557 Z m 266.66874,66.186347 v 22.132016 h 0.66201 V 78.320904 Z M 290.43014,12.15973 v 22.106211 h 0.66201 V 12.15973 Z M 259.8092,12.13456 v 18.821929 h 0.66202 V 12.134557 Z m 207.28173,79.449792 v 22.106358 h 0.66201 V 91.584349 Z M 238.65318,10.530178 V 27.64704 h 0.66201 V 10.530178 Z M 206.92023,7.1957112 V 27.64704 h 0.66202 V 7.1957112 Z M 497.52612,86.64582 v 17.11654 h 0.66217 V 86.64582 Z M 177.8219,26.508757 v 17.064324 h 0.66216 V 26.508757 Z m 339.99418,61.739719 v 22.132784 h 0.66202 V 88.248476 Z m 20.28982,-3.283029 v 22.106363 h 0.66201 V 84.965447 Z M 156.66586,23.199779 v 18.769085 h 0.66202 V 23.199779 Z m 411.87522,53.518469 v 17.116543 h 0.66217 V 76.718248 Z M 356.53221,26.508757 v 18.744697 h 0.66202 V 26.508757 Z m 80.804,63.394442 v 20.478061 h 0.66201 V 89.903199 Z m 19.62826,24.317101 v 1.05915 h 12.97356 V 114.2203 Z M 119.63946,81.291687 v 27.203443 h 1.19113 V 81.291687 Z M 677.35954,11.795732 v 27.203133 h 3.64015 V 11.795732 Z m -3.63967,0 V 38.998865 H 674.911 V 11.795732 Z m -2.44731,16.910456 c 0,-0.768526 -0.60921,-1.40416 -1.37774,-1.40416 -0.76852,0 -1.37774,0.635634 -1.37774,1.40416 0,0.768525 0.60922,1.40496 1.37774,1.40496 0.76853,0 1.37774,-0.636435 1.37774,-1.40496 m 0,-6.618446 c 0,-0.768445 -0.60921,-1.4044 -1.37774,-1.4044 -0.76852,0 -1.37774,0.635955 -1.37774,1.4044 0,0.768446 0.60922,1.404481 1.37774,1.404481 0.76853,0 1.37774,-0.636035 1.37774,-1.404481 m -72.56242,-10.29201 v 27.203133 h 1.19129 V 11.795732 Z M 281.27951,81.291687 v 27.203443 h 1.19128 V 81.291687 Z M 430.57753,11.795732 v 27.203133 h 1.19128 V 11.795732 Z M 70.786787,98.202506 c 0,-0.768526 -0.609216,-1.40416 -1.377742,-1.40416 -0.768525,0 -1.377742,0.635634 -1.377742,1.40416 0,0.768525 0.609217,1.40496 1.377742,1.40496 0.768526,0 1.377742,-0.636435 1.377742,-1.40496 m 0,-6.618125 c 0,-0.768526 -0.609216,-1.404961 -1.377742,-1.404961 -0.768525,0 -1.377742,0.636435 -1.377742,1.404961 0,0.768525 0.609217,1.40416 1.377742,1.40416 0.768526,0 1.377742,-0.635635 1.377742,-1.40416 M 64.391215,81.291687 v 27.203443 h 1.191286 V 81.291687 Z m -6.089324,0 v 27.203443 h 3.639993 V 81.291687 Z M 273.02261,11.795732 v 27.203133 h 1.19128 V 11.795732 Z m 176.6608,69.495955 v 27.203443 h 1.19127 V 81.291687 Z M 115.46769,11.795732 v 27.203133 h 1.19129 V 11.795732 Z M 601.1798,81.291687 v 27.203443 h 1.19129 V 81.291687 Z m 76.17974,0 v 27.203443 h 3.64015 V 81.291687 Z m -3.63967,0 V 108.49513 H 674.911 V 81.291687 Z m -2.44731,16.910819 c 0,-0.768526 -0.60921,-1.40416 -1.37774,-1.40416 -0.76852,0 -1.37774,0.635634 -1.37774,1.40416 0,0.768525 0.60922,1.40496 1.37774,1.40496 0.76853,0 1.37774,-0.636435 1.37774,-1.40496 m 0,-6.618125 c 0,-0.768526 -0.60921,-1.404961 -1.37774,-1.404961 -0.76852,0 -1.37774,0.636435 -1.37774,1.404961 0,0.768525 0.60922,1.40416 1.37774,1.40416 0.76853,0 1.37774,-0.635635 1.37774,-1.40416 M 0,107.76697 v 0.72785 h 681 v -0.72785 z m 0,-6.61889 v 0.72768 h 681 v -0.72768 z m 0,-6.618902 v 0.727682 h 681 v -0.727682 z m 0,-6.618125 v 0.72769 h 681 v -0.72769 z m 0,-6.618894 v 0.727682 H 681 V 81.292159 Z M 0,38.270712 v 0.727681 H 681 V 38.270712 Z M 0,31.65181 v 0.727681 H 681 V 31.65181 Z m 0,-6.618902 v 0.727682 h 681 v -0.727682 z m 0,-6.618432 v 0.727685 h 681 v -0.727685 z m 0,-6.618588 v 0.727685 h 681 v -0.727685 z"
     style="stroke-width:0.0800547" />
  <metadata
     id="metadata144">
    <rdf:RDF>
      <cc:Work
         rdf:about="">
        <dc:title>air_XXIX</dc:title>
      </cc:Work>
    </rdf:RDF>
  </metadata>
</svg>
