<?xml version="1.0" encoding="UTF-8" standalone="no"?>
<svg width="210.058mm" height="296.926mm" viewBox="0 0 9924 14028"
 xmlns="http://www.w3.org/2000/svg" xmlns:xlink="http://www.w3.org/1999/xlink" version="1.2" baseProfile="full">
<title>air_XV</title>
<desc>Generated by MuseScore Studio 4.7.3</desc>
<polyline class="StaffLines" fill="none" stroke="#000000" stroke-width="9.09" stroke-linejoin="bevel" points="708.661,828.424 9215.34,828.424" />
<polyline class="StaffLines" fill="none" stroke="#000000" stroke-width="9.09" stroke-linejoin="bevel" points="708.661,911.101 9215.34,911.101" />
<polyline class="StaffLines" fill="none" stroke="#000000" stroke-width="9.09" stroke-linejoin="bevel" points="708.661,993.778 9215.34,993.778" />
<polyline class="StaffLines" fill="none" stroke="#000000" stroke-width="9.09" stroke-linejoin="bevel" points="708.661,1076.46 9215.34,1076.46" />
<polyline class="StaffLines" fill="none" stroke="#000000" stroke-width="9.09" stroke-linejoin="bevel" points="708.661,1159.13 9215.34,1159.13" />
<polyline class="StaffLines" fill="none" stroke="#000000" stroke-width="9.09" stroke-linejoin="bevel" points="708.661,1696.53 9215.34,1696.53" />
<polyline class="StaffLines" fill="none" stroke="#000000" stroke-width="9.09" stroke-linejoin="bevel" points="708.661,1779.21 9215.34,1779.21" />
<polyline class="StaffLines" fill="none" stroke="#000000" stroke-width="9.09" stroke-linejoin="bevel" points="708.661,1861.89 9215.34,1861.89" />
<polyline class="StaffLines" fill="none" stroke="#000000" stroke-width="9.09" stroke-linejoin="bevel" points="708.661,1944.57 9215.34,1944.57" />
<polyline class="StaffLines" fill="none" stroke="#000000" stroke-width="9.09" stroke-linejoin="bevel" points="708.661,2027.24 9215.34,2027.24" />
<polyline class="BarLine" fill="none" stroke="#000000" stroke-width="14.88" stroke-linejoin="bevel" points="7590.65,1691.99 7590.65,2031.79" />
<polyline class="BarLine" fill="none" stroke="#000000" stroke-width="14.88" stroke-linejoin="bevel" points="9207.9,823.876 9207.9,1163.68" />
<path class="BarLine" d="M9093.83,1820.55 C9093.83,1810.95 9086.22,1803.01 9076.62,1803.01 C9067.02,1803.01 9059.41,1810.95 9059.41,1820.55 C9059.41,1830.15 9067.02,1838.09 9076.62,1838.09 C9086.22,1838.09 9093.83,1830.15 9093.83,1820.55"/>
<path class="BarLine" d="M9093.83,1903.23 C9093.83,1893.63 9086.22,1885.68 9076.62,1885.68 C9067.02,1885.68 9059.41,1893.63 9059.41,1903.23 C9059.41,1912.83 9067.02,1920.77 9076.62,1920.77 C9086.22,1920.77 9093.83,1912.83 9093.83,1903.23"/>
<polyline class="BarLine" fill="none" stroke="#000000" stroke-width="14.88" stroke-linejoin="bevel" points="9131.84,1691.99 9131.84,2031.79" />
<polyline class="BarLine" fill="none" stroke="#000000" stroke-width="45.47" stroke-linejoin="bevel" points="9192.6,1691.99 9192.6,2031.79" />
<polyline class="BarLine" fill="none" stroke="#000000" stroke-width="14.88" stroke-linejoin="bevel" points="4596.87,823.876 4596.87,1163.68" />
<polyline class="BarLine" fill="none" stroke="#000000" stroke-width="14.88" stroke-linejoin="bevel" points="3206.16,823.876 3206.16,1163.68" />
<polyline class="BarLine" fill="none" stroke="#000000" stroke-width="14.88" stroke-linejoin="bevel" points="7771.22,823.876 7771.22,1163.68" />
<polyline class="BarLine" fill="none" stroke="#000000" stroke-width="45.47" stroke-linejoin="bevel" points="7249.76,823.876 7249.76,1163.68" />
<polyline class="BarLine" fill="none" stroke="#000000" stroke-width="14.88" stroke-linejoin="bevel" points="7310.53,823.876 7310.53,1163.68" />
<path class="BarLine" d="M7382.98,952.439 C7382.98,942.84 7375.37,934.896 7365.77,934.896 C7356.17,934.896 7348.56,942.84 7348.56,952.439 C7348.56,962.038 7356.17,969.982 7365.77,969.982 C7375.37,969.982 7382.98,962.038 7382.98,952.439"/>
<path class="BarLine" d="M7382.98,1035.12 C7382.98,1025.52 7375.37,1017.57 7365.77,1017.57 C7356.17,1017.57 7348.56,1025.52 7348.56,1035.12 C7348.56,1044.72 7356.17,1052.66 7365.77,1052.66 C7375.37,1052.66 7382.98,1044.72 7382.98,1035.12"/>
<polyline class="BarLine" fill="none" stroke="#000000" stroke-width="14.88" stroke-linejoin="bevel" points="1815.45,823.876 1815.45,1163.68" />
<polyline class="BarLine" fill="none" stroke="#000000" stroke-width="14.88" stroke-linejoin="bevel" points="4529.22,1691.99 4529.22,2031.79" />
<polyline class="BarLine" fill="none" stroke="#000000" stroke-width="14.88" stroke-linejoin="bevel" points="6103.25,823.876 6103.25,1163.68" />
<path class="BarLine" d="M7150.99,952.439 C7150.99,942.84 7143.37,934.896 7133.78,934.896 C7124.18,934.896 7116.56,942.84 7116.56,952.439 C7116.56,962.038 7124.18,969.982 7133.78,969.982 C7143.37,969.982 7150.99,962.038 7150.99,952.439"/>
<path class="BarLine" d="M7150.99,1035.12 C7150.99,1025.52 7143.37,1017.57 7133.78,1017.57 C7124.18,1017.57 7116.56,1025.52 7116.56,1035.12 C7116.56,1044.72 7124.18,1052.66 7133.78,1052.66 C7143.37,1052.66 7150.99,1044.72 7150.99,1035.12"/>
<polyline class="BarLine" fill="none" stroke="#000000" stroke-width="14.88" stroke-linejoin="bevel" points="7188.99,823.876 7188.99,1163.68" />
<polyline class="BarLine" fill="none" stroke="#000000" stroke-width="45.47" stroke-linejoin="bevel" points="7249.76,823.876 7249.76,1163.68" />
<polyline class="BarLine" fill="none" stroke="#000000" stroke-width="14.88" stroke-linejoin="bevel" points="2917.23,1691.99 2917.23,2031.79" />
<polyline class="BarLine" fill="none" stroke="#000000" stroke-width="14.88" stroke-linejoin="bevel" points="5978.66,1691.99 5978.66,2031.79" />
<path class="TieSegment" stroke="#000000" stroke-width="4.13" stroke-linecap="round" stroke-linejoin="round" fill-rule="evenodd" d="M6504.4,1178.15 C6547.35,1223.4 6676.23,1223.4 6719.19,1178.15 C6676.23,1245.22 6547.35,1245.22 6504.4,1178.15"/>
<polyline class="Stem" fill="none" stroke="#000000" stroke-width="8.27" stroke-linejoin="bevel" points="3552.41,924.991 3552.41,1179.8" />
<polyline class="Stem" fill="none" stroke="#000000" stroke-width="8.27" stroke-linejoin="bevel" points="8348.8,924.991 8348.8,1200.65" />
<polyline class="Stem" fill="none" stroke="#000000" stroke-width="8.27" stroke-linejoin="bevel" points="6500.97,1751.76 6500.97,2026.91" />
<polyline class="Stem" fill="none" stroke="#000000" stroke-width="8.27" stroke-linejoin="bevel" points="4015.07,966.329 4015.07,1221.14" />
<polyline class="Stem" fill="none" stroke="#000000" stroke-width="8.27" stroke-linejoin="bevel" points="6772.57,1793.1 6772.57,2068.74" />
<polyline class="Stem" fill="none" stroke="#000000" stroke-width="8.27" stroke-linejoin="bevel" points="4362.06,966.329 4362.06,1220.81" />
<polyline class="Stem" fill="none" stroke="#000000" stroke-width="8.27" stroke-linejoin="bevel" points="5458.92,1710.42 5458.92,1985.9" />
<polyline class="Stem" fill="none" stroke="#000000" stroke-width="8.27" stroke-linejoin="bevel" points="3321.08,966.329 3321.08,1179.8" />
<polyline class="Stem" fill="none" stroke="#000000" stroke-width="8.27" stroke-linejoin="bevel" points="7044.16,1834.44 7044.16,2078.92" />
<polyline class="Stem" fill="none" stroke="#000000" stroke-width="8.27" stroke-linejoin="bevel" points="4711.8,924.991 4711.8,1158.95" />
<polyline class="Stem" fill="none" stroke="#000000" stroke-width="8.27" stroke-linejoin="bevel" points="5187.32,1669.09 5187.32,1924.21" />
<polyline class="Stem" fill="none" stroke="#000000" stroke-width="8.27" stroke-linejoin="bevel" points="4644.14,1751.76 4644.14,1964.92" />
<polyline class="Stem" fill="none" stroke="#000000" stroke-width="8.27" stroke-linejoin="bevel" points="8679.34,1063.23 8679.34,787.085" />
<polyline class="Stem" fill="none" stroke="#000000" stroke-width="8.27" stroke-linejoin="bevel" points="4915.73,1710.42 4915.73,1944.57" />
<polyline class="Stem" fill="none" stroke="#000000" stroke-width="8.27" stroke-linejoin="bevel" points="4943.12,883.652 4943.12,1148.8" />
<polyline class="Stem" fill="none" stroke="#000000" stroke-width="8.27" stroke-linejoin="bevel" points="2971.35,1007.67 2971.35,1262.15" />
<polyline class="Stem" fill="none" stroke="#000000" stroke-width="8.27" stroke-linejoin="bevel" points="5174.45,842.313 5174.45,1138.64" />
<polyline class="Stem" fill="none" stroke="#000000" stroke-width="8.27" stroke-linejoin="bevel" points="1414.27,1834.44 1414.27,2047.6" />
<polyline class="Stem" fill="none" stroke="#000000" stroke-width="8.27" stroke-linejoin="bevel" points="5504.99,1021.89 5504.99,766.416" />
<polyline class="Stem" fill="none" stroke="#000000" stroke-width="8.27" stroke-linejoin="bevel" points="7315.75,1875.78 7315.75,2089.1" />
<polyline class="Stem" fill="none" stroke="#000000" stroke-width="8.27" stroke-linejoin="bevel" points="4254.32,1793.1 4254.32,2068.25" />
<polyline class="Stem" fill="none" stroke="#000000" stroke-width="8.27" stroke-linejoin="bevel" points="5736.32,980.55 5736.32,766.416" />
<polyline class="Stem" fill="none" stroke="#000000" stroke-width="8.27" stroke-linejoin="bevel" points="9026.33,1063.23 9026.33,787.747" />
<polyline class="Stem" fill="none" stroke="#000000" stroke-width="8.27" stroke-linejoin="bevel" points="5967.65,1063.23 5967.65,766.416" />
<polyline class="Stem" fill="none" stroke="#000000" stroke-width="8.27" stroke-linejoin="bevel" points="3846.93,1875.78 3846.93,2109.92" />
<polyline class="Stem" fill="none" stroke="#000000" stroke-width="8.27" stroke-linejoin="bevel" points="2624.35,1007.67 2624.35,1241.81" />
<polyline class="Stem" fill="none" stroke="#000000" stroke-width="8.27" stroke-linejoin="bevel" points="2393.03,1007.67 2393.03,1221.14" />
<polyline class="Stem" fill="none" stroke="#000000" stroke-width="8.27" stroke-linejoin="bevel" points="6317.38,1021.89 6317.38,808.111" />
<polyline class="Stem" fill="none" stroke="#000000" stroke-width="8.27" stroke-linejoin="bevel" points="3575.33,1710.42 3575.33,2006.73" />
<polyline class="Stem" fill="none" stroke="#000000" stroke-width="8.27" stroke-linejoin="bevel" points="3303.74,1751.76 3303.74,2016.91" />
<polyline class="Stem" fill="none" stroke="#000000" stroke-width="8.27" stroke-linejoin="bevel" points="6548.71,1104.57 6548.71,828.067" />
<polyline class="Stem" fill="none" stroke="#000000" stroke-width="8.27" stroke-linejoin="bevel" points="3032.15,1793.1 3032.15,2027.09" />
<polyline class="Stem" fill="none" stroke="#000000" stroke-width="8.27" stroke-linejoin="bevel" points="6780.04,1104.57 6780.04,828.424" />
<polyline class="Stem" fill="none" stroke="#000000" stroke-width="8.27" stroke-linejoin="bevel" points="2161.7,966.329 2161.7,1221.14" />
<polyline class="Stem" fill="none" stroke="#000000" stroke-width="8.27" stroke-linejoin="bevel" points="7804.79,1972.68 7804.79,1654.73" />
<polyline class="Stem" fill="none" stroke="#000000" stroke-width="8.27" stroke-linejoin="bevel" points="8076.38,1848.66 8076.38,1624.19" />
<polyline class="Stem" fill="none" stroke="#000000" stroke-width="8.27" stroke-linejoin="bevel" points="1930.37,1007.67 1930.37,1221.14" />
<polyline class="Stem" fill="none" stroke="#000000" stroke-width="8.27" stroke-linejoin="bevel" points="8347.97,1807.32 8347.97,1593.65" />
<polyline class="Stem" fill="none" stroke="#000000" stroke-width="8.27" stroke-linejoin="bevel" points="1685.86,1793.1 1685.86,2027.24" />
<polyline class="Stem" fill="none" stroke="#000000" stroke-width="8.27" stroke-linejoin="bevel" points="7589.65,1021.89 7589.65,767.077" />
<polyline class="Stem" fill="none" stroke="#000000" stroke-width="8.27" stroke-linejoin="bevel" points="2735.65,1890 2735.65,1635.19" />
<polyline class="Stem" fill="none" stroke="#000000" stroke-width="8.27" stroke-linejoin="bevel" points="1580.63,842.313 1580.63,1117.46" />
<polyline class="Stem" fill="none" stroke="#000000" stroke-width="8.27" stroke-linejoin="bevel" points="8791.95,1875.78 8791.95,2088.95" />
<polyline class="Stem" fill="none" stroke="#000000" stroke-width="8.27" stroke-linejoin="bevel" points="7886.14,1007.67 7886.14,1220.96" />
<polyline class="Stem" fill="none" stroke="#000000" stroke-width="8.27" stroke-linejoin="bevel" points="8520.35,1793.1 8520.35,2068.89" />
<polyline class="Stem" fill="none" stroke="#000000" stroke-width="8.27" stroke-linejoin="bevel" points="2328.26,1890 2328.26,1634.53" />
<polyline class="Stem" fill="none" stroke="#000000" stroke-width="8.27" stroke-linejoin="bevel" points="8117.47,966.329 8117.47,1210.81" />
<polyline class="Stem" fill="none" stroke="#000000" stroke-width="8.27" stroke-linejoin="bevel" points="1957.46,1751.76 1957.46,2006.88" />
<polyline class="Stem" fill="none" stroke="#000000" stroke-width="8.27" stroke-linejoin="bevel" points="3783.74,966.329 3783.74,1179.8" />
<path class="Hook" d="M2731.52,1709.66 C2731.52,1710.66 2731.85,1712.31 2734.17,1713.3 C2748.4,1717.94 2776.87,1735.81 2798.38,1772.55 C2804.34,1782.81 2813.94,1797.05 2813.94,1824.52 C2813.94,1848.35 2807.65,1872.85 2799.04,1896.68 C2798.38,1898.66 2797.72,1900.32 2798.05,1901.64 C2798.05,1903.63 2799.38,1904.95 2801.36,1904.95 C2803.68,1904.95 2805.33,1903.63 2806.66,1901.31 C2821.55,1874.83 2827.18,1844.05 2827.18,1813.93 C2825.52,1771.23 2801.03,1739.78 2801.03,1739.78 C2802.02,1739.78 2770.58,1699.07 2761.64,1685.17 C2749.39,1666.3 2743.77,1647.44 2743.11,1646.11 C2742.77,1645.12 2739.8,1633.2 2739.8,1633.2 C2739.46,1631.88 2737.81,1630.55 2735.82,1630.55 C2733.51,1630.55 2731.52,1632.54 2731.52,1634.86 L2731.52,1709.66 "/>
<path class="Hook" d="M1576.5,1117.46 C1576.5,1119.78 1578.49,1121.77 1580.8,1121.77 C1582.46,1121.77 1584.44,1120.44 1584.77,1119.12 C1584.77,1118.79 1587.75,1107.2 1588.08,1106.21 C1588.42,1104.88 1591.39,1092.31 1603.31,1072.78 C1616.22,1051.26 1636.08,1035.71 1652.63,1012.54 C1668.85,989.366 1678.78,967.52 1678.78,938.392 C1678.78,908.271 1671.83,883.115 1654.28,851.008 C1653.29,848.691 1651.31,847.367 1649.32,847.367 C1648.66,847.367 1648,847.367 1647.66,847.698 C1646.01,848.36 1645.35,849.684 1645.35,851.67 C1645.35,852.663 1645.68,854.318 1646.34,855.642 C1659.58,886.425 1664.88,903.968 1664.88,927.8 C1664.88,955.273 1655.28,969.506 1649.32,979.767 C1627.8,1016.51 1593.05,1034.38 1579.15,1039.02 C1576.83,1040.01 1576.5,1041.66 1576.5,1042.66 L1576.5,1117.46 "/>
<path class="Hook" d="M7585.52,841.553 C7585.52,842.546 7585.85,844.201 7588.16,845.194 C7602.4,849.828 7630.86,867.702 7652.38,904.443 C7658.34,914.704 7667.94,928.937 7667.94,956.41 C7667.94,980.242 7661.65,1004.74 7653.04,1028.57 C7652.38,1030.55 7651.72,1032.21 7652.05,1033.53 C7652.05,1035.52 7653.37,1036.84 7655.36,1036.84 C7657.67,1036.84 7659.33,1035.52 7660.65,1033.2 C7675.55,1006.72 7681.18,975.939 7681.18,945.818 C7679.52,903.119 7655.03,871.674 7655.03,871.674 C7656.02,871.674 7624.57,830.961 7615.64,817.059 C7603.39,798.192 7597.76,779.325 7597.1,778.001 C7596.77,777.008 7593.79,765.092 7593.79,765.092 C7593.46,763.768 7591.81,762.444 7589.82,762.444 C7587.5,762.444 7585.52,764.43 7585.52,766.747 L7585.52,841.553 "/>
<path class="Hook" d="M9022.2,862.222 C9022.2,863.215 9022.53,864.87 9024.84,865.863 C9039.08,870.497 9067.54,888.371 9089.06,925.112 C9095.02,935.373 9104.61,949.606 9104.61,977.079 C9104.61,1000.91 9098.33,1025.41 9089.72,1049.24 C9089.06,1051.22 9088.4,1052.88 9088.73,1054.2 C9088.73,1056.19 9090.05,1057.51 9092.04,1057.51 C9094.35,1057.51 9096.01,1056.19 9097.33,1053.87 C9112.23,1027.39 9117.85,996.608 9117.85,966.487 C9116.2,923.788 9091.71,892.343 9091.71,892.343 C9092.7,892.343 9061.25,851.63 9052.32,837.728 C9040.07,818.861 9034.44,799.994 9033.78,798.67 C9033.45,797.677 9030.47,785.761 9030.47,785.761 C9030.14,784.437 9028.48,783.113 9026.5,783.113 C9024.18,783.113 9022.2,785.099 9022.2,787.416 L9022.2,862.222 "/>
<path class="Hook" d="M4250.18,2068.25 C4250.18,2070.57 4252.17,2072.55 4254.49,2072.55 C4256.14,2072.55 4258.13,2071.23 4258.46,2069.91 C4258.46,2069.57 4261.44,2057.99 4261.77,2057 C4262.1,2055.67 4265.08,2043.09 4276.99,2023.57 C4289.9,2002.05 4309.76,1986.49 4326.31,1963.32 C4342.53,1940.15 4352.46,1918.31 4352.46,1889.18 C4352.46,1859.06 4345.51,1833.9 4327.97,1801.8 C4326.97,1799.48 4324.99,1798.15 4323,1798.15 C4322.34,1798.15 4321.68,1798.15 4321.35,1798.49 C4319.69,1799.15 4319.03,1800.47 4319.03,1802.46 C4319.03,1803.45 4319.36,1805.11 4320.02,1806.43 C4333.26,1837.21 4338.56,1854.76 4338.56,1878.59 C4338.56,1906.06 4328.96,1920.29 4323,1930.55 C4301.49,1967.3 4266.73,1985.17 4252.83,1989.8 C4250.51,1990.8 4250.18,1992.45 4250.18,1993.44 L4250.18,2068.25 "/>
<path class="Hook" d="M2967.21,1262.15 C2967.21,1264.46 2969.2,1266.45 2971.51,1266.45 C2973.17,1266.45 2975.16,1265.13 2975.49,1263.8 C2975.49,1263.47 2978.47,1251.89 2978.8,1250.89 C2979.13,1249.57 2982.11,1236.99 2994.02,1217.46 C3006.93,1195.95 3026.79,1180.39 3043.34,1157.22 C3059.56,1134.05 3069.49,1112.2 3069.49,1083.08 C3069.49,1052.96 3062.54,1027.8 3045,995.693 C3044,993.376 3042.02,992.052 3040.03,992.052 C3039.37,992.052 3038.71,992.052 3038.38,992.383 C3036.72,993.045 3036.06,994.369 3036.06,996.355 C3036.06,997.348 3036.39,999.003 3037.05,1000.33 C3050.29,1031.11 3055.59,1048.65 3055.59,1072.48 C3055.59,1099.96 3045.99,1114.19 3040.03,1124.45 C3018.52,1161.19 2983.76,1179.07 2969.86,1183.7 C2967.54,1184.69 2967.21,1186.35 2967.21,1187.34 L2967.21,1262.15 "/>
<path class="Hook" d="M4357.92,1220.81 C4357.92,1223.13 4359.91,1225.11 4362.23,1225.11 C4363.88,1225.11 4365.87,1223.79 4366.2,1222.46 C4366.2,1222.13 4369.18,1210.55 4369.51,1209.56 C4369.84,1208.23 4372.82,1195.65 4384.73,1176.12 C4397.64,1154.61 4417.5,1139.05 4434.05,1115.88 C4450.27,1092.71 4460.2,1070.87 4460.2,1041.74 C4460.2,1011.62 4453.25,986.461 4435.71,954.354 C4434.72,952.037 4432.73,950.713 4430.74,950.713 C4430.08,950.713 4429.42,950.713 4429.09,951.044 C4427.43,951.706 4426.77,953.03 4426.77,955.016 C4426.77,956.009 4427.1,957.664 4427.76,958.988 C4441,989.771 4446.3,1007.31 4446.3,1031.15 C4446.3,1058.62 4436.7,1072.85 4430.74,1083.11 C4409.23,1119.85 4374.47,1137.73 4360.57,1142.36 C4358.25,1143.36 4357.92,1145.01 4357.92,1146 L4357.92,1220.81 "/>
<path class="Hook" d="M6496.84,2026.91 C6496.84,2029.23 6498.83,2031.21 6501.14,2031.21 C6502.8,2031.21 6504.78,2029.89 6505.11,2028.57 C6505.11,2028.24 6508.09,2016.65 6508.42,2015.66 C6508.76,2014.33 6511.73,2001.76 6523.65,1982.23 C6536.56,1960.71 6556.42,1945.15 6572.97,1921.98 C6589.19,1898.81 6599.12,1876.97 6599.12,1847.84 C6599.12,1817.72 6592.17,1792.56 6574.62,1760.46 C6573.63,1758.14 6571.65,1756.82 6569.66,1756.82 C6569,1756.82 6568.34,1756.82 6568,1757.15 C6566.35,1757.81 6565.69,1759.13 6565.69,1761.12 C6565.69,1762.11 6566.02,1763.77 6566.68,1765.09 C6579.92,1795.87 6585.22,1813.42 6585.22,1837.25 C6585.22,1864.72 6575.62,1878.95 6569.66,1889.22 C6548.14,1925.96 6513.39,1943.83 6499.49,1948.46 C6497.17,1949.46 6496.84,1951.11 6496.84,1952.11 L6496.84,2026.91 "/>
<path class="Note" d="M8787.81,1875.79 C8787.81,1890.02 8798.08,1905.91 8824.89,1905.91 C8859.31,1905.91 8895.39,1877.78 8895.39,1848.65 C8895.39,1829.12 8878.84,1818.2 8858.32,1818.2 C8826.21,1818.2 8787.81,1845.34 8787.81,1875.79"/>
<path class="Note" d="M6768.43,1793.11 C6768.43,1807.35 6778.69,1823.23 6805.5,1823.23 C6839.93,1823.23 6876.01,1795.1 6876.01,1765.97 C6876.01,1746.44 6859.46,1735.52 6838.94,1735.52 C6806.83,1735.52 6768.43,1762.66 6768.43,1793.11"/>
<path class="Note" d="M8516.22,1793.11 C8516.22,1807.35 8526.48,1823.23 8553.29,1823.23 C8587.72,1823.23 8623.8,1795.1 8623.8,1765.97 C8623.8,1746.44 8607.25,1735.52 8586.72,1735.52 C8554.62,1735.52 8516.22,1762.66 8516.22,1793.11"/>
<path class="Note" d="M8922.98,1090.36 C8922.98,1104.59 8933.24,1120.48 8960.05,1120.48 C8994.48,1120.48 9030.56,1092.34 9030.56,1063.22 C9030.56,1043.69 9014.01,1032.76 8993.49,1032.76 C8961.38,1032.76 8922.98,1059.91 8922.98,1090.36"/>
<path class="Note" d="M1410.14,1834.45 C1410.14,1848.68 1420.4,1864.57 1447.21,1864.57 C1481.63,1864.57 1517.71,1836.44 1517.71,1807.31 C1517.71,1787.78 1501.16,1776.86 1480.64,1776.86 C1448.53,1776.86 1410.14,1804 1410.14,1834.45"/>
<path class="Note" d="M8244.63,1834.45 C8244.63,1848.68 8254.89,1864.57 8281.7,1864.57 C8316.12,1864.57 8352.2,1836.44 8352.2,1807.31 C8352.2,1787.78 8335.65,1776.86 8315.13,1776.86 C8283.02,1776.86 8244.63,1804 8244.63,1834.45"/>
<path class="Note" d="M8575.99,1090.36 C8575.99,1104.59 8586.25,1120.48 8613.06,1120.48 C8647.49,1120.48 8683.57,1092.34 8683.57,1063.22 C8683.57,1043.69 8667.02,1032.76 8646.49,1032.76 C8614.39,1032.76 8575.99,1059.91 8575.99,1090.36"/>
<path class="Note" d="M1681.73,1793.11 C1681.73,1807.35 1691.99,1823.23 1718.8,1823.23 C1753.23,1823.23 1789.31,1795.1 1789.31,1765.97 C1789.31,1746.44 1772.76,1735.52 1752.23,1735.52 C1720.13,1735.52 1681.73,1762.66 1681.73,1793.11"/>
<path class="Note" d="M8113.34,966.341 C8113.34,980.574 8123.6,996.462 8150.41,996.462 C8184.83,996.462 8220.91,968.327 8220.91,939.199 C8220.91,919.67 8204.36,908.747 8183.84,908.747 C8151.73,908.747 8113.34,935.889 8113.34,966.341"/>
<path class="Note" d="M1953.32,1751.77 C1953.32,1766.01 1963.59,1781.9 1990.4,1781.9 C2024.82,1781.9 2060.9,1753.76 2060.9,1724.63 C2060.9,1705.1 2044.35,1694.18 2023.83,1694.18 C1991.72,1694.18 1953.32,1721.32 1953.32,1751.77"/>
<path class="Note" d="M1576.5,842.326 C1576.5,856.559 1586.76,872.447 1613.57,872.447 C1648,872.447 1684.07,844.312 1684.07,815.184 C1684.07,795.655 1667.52,784.732 1647,784.732 C1614.9,784.732 1576.5,811.874 1576.5,842.326"/>
<path class="Note" d="M2224.92,1917.13 C2224.92,1931.36 2235.18,1947.25 2261.99,1947.25 C2296.41,1947.25 2332.49,1919.11 2332.49,1889.99 C2332.49,1870.46 2315.94,1859.53 2295.42,1859.53 C2263.31,1859.53 2224.92,1886.68 2224.92,1917.13"/>
<path class="Note" d="M7882.01,1007.68 C7882.01,1021.91 7892.27,1037.8 7919.08,1037.8 C7953.5,1037.8 7989.58,1009.67 7989.58,980.538 C7989.58,961.009 7973.03,950.086 7952.51,950.086 C7920.4,950.086 7882.01,977.228 7882.01,1007.68"/>
<path class="Note" d="M7486.3,1049.02 C7486.3,1063.25 7496.56,1079.14 7523.38,1079.14 C7557.8,1079.14 7593.88,1051 7593.88,1021.88 C7593.88,1002.35 7577.33,991.425 7556.81,991.425 C7524.7,991.425 7486.3,1018.57 7486.3,1049.02"/>
<path class="Note" d="M2632.31,1917.13 C2632.31,1931.36 2642.57,1947.25 2669.38,1947.25 C2703.8,1947.25 2739.88,1919.11 2739.88,1889.99 C2739.88,1870.46 2723.33,1859.53 2702.81,1859.53 C2670.7,1859.53 2632.31,1886.68 2632.31,1917.13"/>
<path class="Note" d="M7973.03,1875.79 C7973.03,1890.02 7983.3,1905.91 8010.11,1905.91 C8044.53,1905.91 8080.61,1877.78 8080.61,1848.65 C8080.61,1829.12 8064.06,1818.2 8043.54,1818.2 C8011.43,1818.2 7973.03,1845.34 7973.03,1875.79"/>
<path class="Note" d="M6676.69,1131.7 C6676.69,1145.93 6686.95,1161.82 6713.76,1161.82 C6748.19,1161.82 6784.27,1133.68 6784.27,1104.55 C6784.27,1085.02 6767.72,1074.1 6747.19,1074.1 C6715.09,1074.1 6676.69,1101.24 6676.69,1131.7"/>
<path class="Note" d="M6445.36,1131.7 C6445.36,1145.93 6455.63,1161.82 6482.44,1161.82 C6516.86,1161.82 6552.94,1133.68 6552.94,1104.55 C6552.94,1085.02 6536.39,1074.1 6515.87,1074.1 C6483.76,1074.1 6445.36,1101.24 6445.36,1131.7"/>
<path class="Note" d="M3028.01,1793.11 C3028.01,1807.35 3038.27,1823.23 3065.08,1823.23 C3099.51,1823.23 3135.59,1795.1 3135.59,1765.97 C3135.59,1746.44 3119.04,1735.52 3098.52,1735.52 C3066.41,1735.52 3028.01,1762.66 3028.01,1793.11"/>
<path class="Note" d="M1926.24,1007.68 C1926.24,1021.91 1936.5,1037.8 1963.31,1037.8 C1997.73,1037.8 2033.81,1009.67 2033.81,980.538 C2033.81,961.009 2017.26,950.086 1996.74,950.086 C1964.63,950.086 1926.24,977.228 1926.24,1007.68"/>
<path class="Note" d="M7701.44,1999.81 C7701.44,2014.04 7711.7,2029.93 7738.51,2029.93 C7772.94,2029.93 7809.02,2001.79 7809.02,1972.66 C7809.02,1953.14 7792.47,1942.21 7771.94,1942.21 C7739.84,1942.21 7701.44,1969.35 7701.44,1999.81"/>
<path class="Note" d="M3299.61,1751.77 C3299.61,1766.01 3309.87,1781.9 3336.68,1781.9 C3371.1,1781.9 3407.18,1753.76 3407.18,1724.63 C3407.18,1705.1 3390.63,1694.18 3370.11,1694.18 C3338,1694.18 3299.61,1721.32 3299.61,1751.77"/>
<path class="Note" d="M6214.04,1049.02 C6214.04,1063.25 6224.3,1079.14 6251.11,1079.14 C6285.53,1079.14 6321.61,1051 6321.61,1021.88 C6321.61,1002.35 6305.06,991.425 6284.54,991.425 C6252.43,991.425 6214.04,1018.57 6214.04,1049.02"/>
<path class="Note" d="M3571.2,1710.44 C3571.2,1724.67 3581.46,1740.56 3608.27,1740.56 C3642.7,1740.56 3678.77,1712.42 3678.77,1683.29 C3678.77,1663.76 3662.22,1652.84 3641.7,1652.84 C3609.6,1652.84 3571.2,1679.98 3571.2,1710.44"/>
<path class="Note" d="M5864.3,1090.36 C5864.3,1104.59 5874.56,1120.48 5901.37,1120.48 C5935.79,1120.48 5971.87,1092.34 5971.87,1063.22 C5971.87,1043.69 5955.32,1032.76 5934.8,1032.76 C5902.69,1032.76 5864.3,1059.91 5864.3,1090.36"/>
<path class="Note" d="M3842.79,1875.79 C3842.79,1890.02 3853.05,1905.91 3879.86,1905.91 C3914.29,1905.91 3950.37,1877.78 3950.37,1848.65 C3950.37,1829.12 3933.82,1818.2 3913.3,1818.2 C3881.19,1818.2 3842.79,1845.34 3842.79,1875.79"/>
<path class="Note" d="M5632.97,1007.68 C5632.97,1021.91 5643.23,1037.8 5670.04,1037.8 C5704.47,1037.8 5740.55,1009.67 5740.55,980.538 C5740.55,961.009 5724,950.086 5703.47,950.086 C5671.37,950.086 5632.97,977.228 5632.97,1007.68"/>
<path class="Note" d="M2157.56,966.341 C2157.56,980.574 2167.83,996.462 2194.64,996.462 C2229.06,996.462 2265.14,968.327 2265.14,939.199 C2265.14,919.67 2248.59,908.747 2228.07,908.747 C2195.96,908.747 2157.56,935.889 2157.56,966.341"/>
<path class="Note" d="M4250.18,1793.11 C4250.18,1807.35 4260.44,1823.23 4287.25,1823.23 C4321.68,1823.23 4357.76,1795.1 4357.76,1765.97 C4357.76,1746.44 4341.21,1735.52 4320.69,1735.52 C4288.58,1735.52 4250.18,1762.66 4250.18,1793.11"/>
<path class="Note" d="M5401.64,1049.02 C5401.64,1063.25 5411.9,1079.14 5438.72,1079.14 C5473.14,1079.14 5509.22,1051 5509.22,1021.88 C5509.22,1002.35 5492.67,991.425 5472.15,991.425 C5440.04,991.425 5401.64,1018.57 5401.64,1049.02"/>
<path class="Note" d="M5170.32,842.326 C5170.32,856.559 5180.58,872.447 5207.39,872.447 C5241.81,872.447 5277.89,844.312 5277.89,815.184 C5277.89,795.655 5261.34,784.732 5240.82,784.732 C5208.71,784.732 5170.32,811.874 5170.32,842.326"/>
<path class="Note" d="M4938.99,883.664 C4938.99,897.897 4949.25,913.785 4976.06,913.785 C5010.48,913.785 5046.56,885.65 5046.56,856.522 C5046.56,836.993 5030.01,826.07 5009.49,826.07 C4977.38,826.07 4938.99,853.212 4938.99,883.664"/>
<path class="Note" d="M4640,1751.77 C4640,1766.01 4650.27,1781.9 4677.08,1781.9 C4711.5,1781.9 4747.58,1753.76 4747.58,1724.63 C4747.58,1705.1 4731.03,1694.18 4710.51,1694.18 C4678.4,1694.18 4640,1721.32 4640,1751.77"/>
<path class="Note" d="M2388.89,1007.68 C2388.89,1021.91 2399.15,1037.8 2425.96,1037.8 C2460.39,1037.8 2496.47,1009.67 2496.47,980.538 C2496.47,961.009 2479.92,950.086 2459.4,950.086 C2427.29,950.086 2388.89,977.228 2388.89,1007.68"/>
<path class="Note" d="M7311.62,1875.79 C7311.62,1890.02 7321.88,1905.91 7348.69,1905.91 C7383.12,1905.91 7419.19,1877.78 7419.19,1848.65 C7419.19,1829.12 7402.64,1818.2 7382.12,1818.2 C7350.02,1818.2 7311.62,1845.34 7311.62,1875.79"/>
<path class="Note" d="M4911.6,1710.44 C4911.6,1724.67 4921.86,1740.56 4948.67,1740.56 C4983.09,1740.56 5019.17,1712.42 5019.17,1683.29 C5019.17,1663.76 5002.62,1652.84 4982.1,1652.84 C4949.99,1652.84 4911.6,1679.98 4911.6,1710.44"/>
<path class="Note" d="M4707.66,925.003 C4707.66,939.236 4717.92,955.124 4744.73,955.124 C4779.16,955.124 4815.24,926.989 4815.24,897.861 C4815.24,878.332 4798.69,867.409 4778.16,867.409 C4746.06,867.409 4707.66,894.551 4707.66,925.003"/>
<path class="Note" d="M5183.19,1669.1 C5183.19,1683.33 5193.45,1699.22 5220.26,1699.22 C5254.69,1699.22 5290.77,1671.08 5290.77,1641.96 C5290.77,1622.43 5274.22,1611.5 5253.69,1611.5 C5221.59,1611.5 5183.19,1638.65 5183.19,1669.1"/>
<path class="Note" d="M4357.92,966.341 C4357.92,980.574 4368.18,996.462 4395,996.462 C4429.42,996.462 4465.5,968.327 4465.5,939.199 C4465.5,919.67 4448.95,908.747 4428.43,908.747 C4396.32,908.747 4357.92,935.889 4357.92,966.341"/>
<path class="Note" d="M5454.78,1710.44 C5454.78,1724.67 5465.05,1740.56 5491.86,1740.56 C5526.28,1740.56 5562.36,1712.42 5562.36,1683.29 C5562.36,1663.76 5545.81,1652.84 5525.29,1652.84 C5493.18,1652.84 5454.78,1679.98 5454.78,1710.44"/>
<path class="Note" d="M2620.22,1007.68 C2620.22,1021.91 2630.48,1037.8 2657.29,1037.8 C2691.72,1037.8 2727.8,1009.67 2727.8,980.538 C2727.8,961.009 2711.25,950.086 2690.72,950.086 C2658.62,950.086 2620.22,977.228 2620.22,1007.68"/>
<path class="Note" d="M4010.93,966.341 C4010.93,980.574 4021.19,996.462 4048,996.462 C4082.43,996.462 4118.51,968.327 4118.51,939.199 C4118.51,919.67 4101.96,908.747 4081.43,908.747 C4049.33,908.747 4010.93,935.889 4010.93,966.341"/>
<path class="Note" d="M3779.6,966.341 C3779.6,980.574 3789.87,996.462 3816.68,996.462 C3851.1,996.462 3887.18,968.327 3887.18,939.199 C3887.18,919.67 3870.63,908.747 3850.11,908.747 C3818,908.747 3779.6,935.889 3779.6,966.341"/>
<path class="Note" d="M7040.03,1834.45 C7040.03,1848.68 7050.29,1864.57 7077.1,1864.57 C7111.52,1864.57 7147.6,1836.44 7147.6,1807.31 C7147.6,1787.78 7131.05,1776.86 7110.53,1776.86 C7078.42,1776.86 7040.03,1804 7040.03,1834.45"/>
<path class="Note" d="M3548.28,925.003 C3548.28,939.236 3558.54,955.124 3585.35,955.124 C3619.77,955.124 3655.85,926.989 3655.85,897.861 C3655.85,878.332 3639.3,867.409 3618.78,867.409 C3586.67,867.409 3548.28,894.551 3548.28,925.003"/>
<path class="Note" d="M2967.21,1007.68 C2967.21,1021.91 2977.47,1037.8 3004.28,1037.8 C3038.71,1037.8 3074.79,1009.67 3074.79,980.538 C3074.79,961.009 3058.24,950.086 3037.71,950.086 C3005.61,950.086 2967.21,977.228 2967.21,1007.68"/>
<path class="Note" d="M6496.84,1751.77 C6496.84,1766.01 6507.1,1781.9 6533.91,1781.9 C6568.34,1781.9 6604.41,1753.76 6604.41,1724.63 C6604.41,1705.1 6587.86,1694.18 6567.34,1694.18 C6535.24,1694.18 6496.84,1721.32 6496.84,1751.77"/>
<path class="Note" d="M3316.95,966.341 C3316.95,980.574 3327.21,996.462 3354.02,996.462 C3388.45,996.462 3424.52,968.327 3424.52,939.199 C3424.52,919.67 3407.97,908.747 3387.45,908.747 C3355.35,908.747 3316.95,935.889 3316.95,966.341"/>
<path class="Note" d="M8344.66,925.003 C8344.66,939.236 8354.92,955.124 8381.74,955.124 C8416.16,955.124 8452.24,926.989 8452.24,897.861 C8452.24,878.332 8435.69,867.409 8415.17,867.409 C8383.06,867.409 8344.66,894.551 8344.66,925.003"/>
<path class="Clef" d="M909.689,1144.64 C903.069,1145.97 896.78,1146.63 890.491,1146.63 C843.158,1146.63 802.776,1113.53 802.776,1063.55 C802.776,1023.16 831.242,987.085 860.37,961.929 C865.997,956.964 871.293,952.33 876.258,947.365 C879.237,965.239 881.554,980.796 883.871,994.367 C853.75,1003.3 833.228,1035.08 833.228,1066.19 C833.228,1089.36 851.433,1121.14 877.913,1121.14 C880.561,1121.14 883.54,1119.82 883.54,1116.84 C883.54,1113.86 880.23,1112.2 876.258,1109.56 C863.349,1101.61 856.067,1093.01 856.067,1076.79 C856.067,1056.6 870.962,1040.38 890.491,1035.74 L909.689,1144.64 M880.561,804.373 C883.54,791.133 898.766,756.378 915.978,756.378 C920.943,756.378 928.887,772.597 928.887,795.436 C928.887,829.86 903.4,855.678 880.561,878.186 C878.575,864.946 876.92,852.037 876.92,838.135 C876.92,825.888 877.913,814.634 880.561,804.373 M956.691,1083.41 C956.691,1106.91 947.092,1131.07 923.591,1140.67 C916.64,1100.95 907.703,1048.32 905.386,1033.76 C935.176,1033.76 956.691,1053.95 956.691,1083.41 M811.051,1246.26 C811.051,1268.1 827.932,1296.9 872.617,1296.9 C888.174,1296.9 901.745,1292.93 913.661,1285.65 C931.535,1273.07 936.169,1251.22 936.169,1230.37 C936.169,1217.46 934.183,1202.57 930.873,1183.7 C929.88,1177.08 927.894,1167.15 925.908,1154.24 C958.346,1143.65 982.509,1109.89 982.509,1075.79 C982.509,1025.81 947.092,992.05 898.766,992.05 C895.456,972.19 892.146,952.661 889.167,934.125 C924.253,897.384 948.416,856.009 948.416,803.38 C948.416,773.259 939.148,748.765 933.852,736.849 C925.908,719.968 916.309,708.383 910.351,708.383 C908.034,708.383 897.773,712.355 886.85,725.264 C865.666,750.42 859.708,792.788 859.708,820.592 C859.708,838.466 861.363,854.685 866.99,891.757 C866.659,892.088 849.447,909.631 842.496,915.258 C812.375,943.393 770.669,983.444 770.669,1049.64 C770.669,1111.54 824.622,1160.2 886.188,1160.2 C895.787,1160.2 904.724,1159.21 912.337,1157.88 C918.626,1189.66 922.267,1212.83 922.267,1230.37 C922.267,1264.79 904.724,1283 871.293,1283 C863.349,1283 856.398,1281.34 855.736,1281.34 C855.405,1281.01 854.743,1280.68 854.743,1280.35 C854.743,1279.69 855.405,1279.36 856.398,1279.03 C871.955,1276.71 887.512,1263.47 887.512,1242.29 C887.512,1224.41 873.941,1205.55 849.116,1205.55 C825.946,1205.55 811.051,1224.41 811.051,1246.26"/>
<path class="Clef" d="M909.689,2012.75 C903.069,2014.08 896.78,2014.74 890.491,2014.74 C843.158,2014.74 802.776,1981.64 802.776,1931.66 C802.776,1891.27 831.242,1855.2 860.37,1830.04 C865.997,1825.07 871.293,1820.44 876.258,1815.48 C879.237,1833.35 881.554,1848.91 883.871,1862.48 C853.75,1871.41 833.228,1903.19 833.228,1934.3 C833.228,1957.47 851.433,1989.25 877.913,1989.25 C880.561,1989.25 883.54,1987.93 883.54,1984.95 C883.54,1981.97 880.23,1980.31 876.258,1977.67 C863.349,1969.72 856.067,1961.12 856.067,1944.9 C856.067,1924.71 870.962,1908.49 890.491,1903.85 L909.689,2012.75 M880.561,1672.48 C883.54,1659.24 898.766,1624.49 915.978,1624.49 C920.943,1624.49 928.887,1640.71 928.887,1663.55 C928.887,1697.97 903.4,1723.79 880.561,1746.3 C878.575,1733.06 876.92,1720.15 876.92,1706.25 C876.92,1694 877.913,1682.74 880.561,1672.48 M956.691,1951.52 C956.691,1975.02 947.092,1999.18 923.591,2008.78 C916.64,1969.06 907.703,1916.43 905.386,1901.87 C935.176,1901.87 956.691,1922.06 956.691,1951.52 M811.051,2114.37 C811.051,2136.21 827.932,2165.01 872.617,2165.01 C888.174,2165.01 901.745,2161.04 913.661,2153.76 C931.535,2141.18 936.169,2119.33 936.169,2098.48 C936.169,2085.57 934.183,2070.68 930.873,2051.81 C929.88,2045.19 927.894,2035.26 925.908,2022.35 C958.346,2011.76 982.509,1978 982.509,1943.9 C982.509,1893.92 947.092,1860.16 898.766,1860.16 C895.456,1840.3 892.146,1820.77 889.167,1802.24 C924.253,1765.49 948.416,1724.12 948.416,1671.49 C948.416,1641.37 939.148,1616.88 933.852,1604.96 C925.908,1588.08 916.309,1576.49 910.351,1576.49 C908.034,1576.49 897.773,1580.47 886.85,1593.37 C865.666,1618.53 859.708,1660.9 859.708,1688.7 C859.708,1706.58 861.363,1722.8 866.99,1759.87 C866.659,1760.2 849.447,1777.74 842.496,1783.37 C812.375,1811.5 770.669,1851.55 770.669,1917.75 C770.669,1979.65 824.622,2028.31 886.188,2028.31 C895.787,2028.31 904.724,2027.32 912.337,2025.99 C918.626,2057.77 922.267,2080.94 922.267,2098.48 C922.267,2132.9 904.724,2151.11 871.293,2151.11 C863.349,2151.11 856.398,2149.45 855.736,2149.45 C855.405,2149.12 854.743,2148.79 854.743,2148.46 C854.743,2147.8 855.405,2147.47 856.398,2147.14 C871.955,2144.82 887.512,2131.58 887.512,2110.4 C887.512,2092.52 873.941,2073.66 849.116,2073.66 C825.946,2073.66 811.051,2092.52 811.051,2114.37"/>
<path class="KeySig" d="M1088.05,1848.65 C1088.05,1874.8 1074.48,1888.7 1055.28,1903.93 L1056.27,1839.38 C1056.93,1836.4 1061.9,1826.8 1075.14,1826.8 C1087.06,1826.8 1088.05,1838.06 1088.05,1845.01 L1088.05,1848.65 M1084.08,1810.58 C1067.53,1810.58 1057.93,1820.84 1056.27,1822.83 L1057.6,1716.58 C1057.6,1713.93 1055.61,1711.95 1052.96,1711.95 L1048.99,1711.95 C1046.34,1711.95 1044.36,1713.93 1044.36,1716.58 L1046.01,1915.51 C1046.01,1918.16 1048,1920.14 1050.65,1920.14 C1051.31,1920.14 1052.63,1919.81 1053.29,1919.48 C1081.76,1905.25 1111.55,1878.11 1111.55,1844.01 C1111.55,1826.8 1103.61,1810.58 1084.08,1810.58"/>
<path class="KeySig" d="M1179.99,1724.63 C1179.99,1750.78 1166.42,1764.68 1147.22,1779.91 L1148.21,1715.36 C1148.87,1712.39 1153.84,1702.79 1167.08,1702.79 C1178.99,1702.79 1179.99,1714.04 1179.99,1720.99 L1179.99,1724.63 M1176.01,1686.57 C1159.46,1686.57 1149.87,1696.83 1148.21,1698.81 L1149.53,1592.56 C1149.53,1589.92 1147.55,1587.93 1144.9,1587.93 L1140.93,1587.93 C1138.28,1587.93 1136.29,1589.92 1136.29,1592.56 L1137.95,1791.49 C1137.95,1794.14 1139.94,1796.13 1142.58,1796.13 C1143.25,1796.13 1144.57,1795.8 1145.23,1795.47 C1173.7,1781.23 1203.49,1754.09 1203.49,1720 C1203.49,1702.79 1195.54,1686.57 1176.01,1686.57"/>
<path class="KeySig" d="M1088.05,980.538 C1088.05,1006.69 1074.48,1020.59 1055.28,1035.82 L1056.27,971.27 C1056.93,968.291 1061.9,958.692 1075.14,958.692 C1087.06,958.692 1088.05,969.946 1088.05,976.897 L1088.05,980.538 M1084.08,942.473 C1067.53,942.473 1057.93,952.734 1056.27,954.72 L1057.6,848.469 C1057.6,845.821 1055.61,843.835 1052.96,843.835 L1048.99,843.835 C1046.34,843.835 1044.36,845.821 1044.36,848.469 L1046.01,1047.4 C1046.01,1050.05 1048,1052.03 1050.65,1052.03 C1051.31,1052.03 1052.63,1051.7 1053.29,1051.37 C1081.76,1037.14 1111.55,1010 1111.55,975.904 C1111.55,958.692 1103.61,942.473 1084.08,942.473"/>
<path class="KeySig" d="M1179.99,856.522 C1179.99,882.671 1166.42,896.573 1147.22,911.799 L1148.21,847.254 C1148.87,844.275 1153.84,834.676 1167.08,834.676 C1178.99,834.676 1179.99,845.93 1179.99,852.881 L1179.99,856.522 M1176.01,818.457 C1159.46,818.457 1149.87,828.718 1148.21,830.704 L1149.53,724.453 C1149.53,721.805 1147.55,719.819 1144.9,719.819 L1140.93,719.819 C1138.28,719.819 1136.29,721.805 1136.29,724.453 L1137.95,923.384 C1137.95,926.032 1139.94,928.018 1142.58,928.018 C1143.25,928.018 1144.57,927.687 1145.23,927.356 C1173.7,913.123 1203.49,885.981 1203.49,851.888 C1203.49,834.676 1195.54,818.457 1176.01,818.457"/>
<path class="TimeSig" d="M1351.65,979.772 C1340.73,979.772 1331.79,964.877 1331.79,946.341 C1331.79,927.805 1340.73,912.579 1351.65,912.579 C1362.58,912.579 1371.85,927.805 1371.85,946.341 C1371.85,964.877 1362.58,979.772 1351.65,979.772 M1363.9,897.022 C1343.71,897.022 1336.43,902.98 1331.79,907.945 C1330.8,900.994 1330.14,895.698 1330.14,890.402 C1330.14,871.535 1336.76,847.041 1359.93,847.041 C1368.2,847.041 1373.17,849.689 1376.48,853.33 C1369.53,856.309 1363.9,865.246 1363.9,872.859 C1363.9,884.775 1373.17,894.043 1385.09,894.043 C1397,894.043 1406.6,884.775 1406.6,872.859 L1406.6,871.866 C1406.6,868.887 1405.94,863.922 1404.61,861.274 C1400.31,849.358 1386.41,831.815 1353.31,831.815 C1323.52,831.815 1302,860.281 1295.38,875.507 C1292.07,883.451 1287.11,899.67 1287.11,918.206 C1287.11,938.397 1292.74,961.236 1312.27,978.448 C1331.46,993.012 1343.71,993.674 1355.3,993.674 C1366.88,993.674 1410.24,980.103 1410.24,941.707 C1410.24,909.269 1384.75,897.022 1363.9,897.022"/>
<path class="TimeSig" d="M1369.87,1060.58 C1347.36,1053.3 1322.54,1042.37 1322.54,1027.48 C1322.54,1014.57 1334.45,1009.27 1348.68,1009.27 C1369.21,1009.27 1383.11,1018.87 1383.11,1034.1 C1383.11,1049.99 1375.83,1057.6 1369.87,1060.58 M1348.68,1139.03 C1327.5,1139.03 1309.3,1127.44 1309.3,1108.9 C1309.3,1086.73 1326.51,1081.43 1326.51,1081.43 C1349.02,1089.04 1381.12,1100.3 1381.12,1118.5 C1381.12,1127.44 1369.54,1139.03 1348.68,1139.03 M1388.4,1069.52 C1399.33,1061.24 1406.94,1050.65 1406.94,1037.41 C1406.94,1013.58 1380.79,994.047 1348.68,994.047 C1316.58,994.047 1290.43,1013.58 1290.43,1037.41 C1290.43,1050.65 1293.74,1062.56 1309.3,1072.49 C1294.4,1081.1 1286.13,1093.35 1286.13,1109.24 C1286.13,1136.05 1314.26,1157.56 1348.68,1157.56 C1383.11,1157.56 1411.24,1136.05 1411.24,1109.24 C1411.24,1093.35 1405.62,1078.45 1388.4,1069.52"/>
<path class="Rest" d="M6165.58,1916.83 C6165.25,1916.5 6164.59,1915.84 6163.59,1914.52 L6125.53,1867.52 C6125.2,1867.18 6124.87,1866.19 6124.87,1865.53 C6124.87,1864.54 6125.2,1863.21 6125.53,1862.55 L6159.29,1811.58 C6159.62,1810.91 6159.95,1809.92 6159.95,1809.26 L6159.95,1806.28 C6159.95,1805.29 6159.62,1804.29 6158.96,1803.63 L6105.34,1731.14 C6105.34,1731.14 6104.01,1729.16 6102.03,1729.16 C6101.03,1729.16 6100.37,1729.49 6099.38,1730.15 C6098.06,1731.14 6097.72,1732.47 6097.72,1733.46 C6097.72,1735.45 6098.72,1737.1 6098.72,1737.1 L6123.87,1771.53 C6124.54,1772.52 6124.87,1773.84 6124.87,1775.5 C6124.87,1776.82 6124.54,1778.48 6123.87,1779.47 L6090.44,1830.44 C6090.11,1831.11 6089.78,1832.43 6089.78,1833.09 L6089.78,1836.07 C6089.78,1837.06 6090.11,1838.06 6090.77,1838.72 L6127.85,1884.73 C6126.52,1884.4 6123.54,1883.73 6119.57,1883.73 C6102.69,1883.73 6089.45,1897.64 6089.45,1914.52 C6089.45,1919.15 6090.44,1923.79 6093.09,1927.43 C6100.04,1938.02 6124.87,1969.46 6124.87,1969.46 C6124.87,1969.46 6126.52,1971.45 6128.84,1971.45 C6129.5,1971.45 6130.16,1971.45 6130.82,1970.79 C6132.48,1969.46 6133.14,1968.14 6133.14,1966.82 C6133.14,1965.49 6132.48,1964.5 6132.15,1963.84 C6131.16,1962.18 6120.56,1942.98 6120.56,1942.98 C6120.56,1942.98 6118.25,1938.35 6118.25,1932.39 C6118.25,1921.8 6126.19,1913.19 6136.78,1913.19 C6141.09,1913.19 6144.73,1914.52 6147.37,1916.17 L6160.28,1924.45 C6160.28,1924.45 6161.61,1925.11 6162.93,1925.11 C6164.26,1925.11 6165.25,1924.78 6166.24,1923.45 C6166.9,1922.13 6167.23,1921.47 6167.23,1920.48 C6167.23,1919.48 6166.9,1918.82 6166.24,1917.83 L6165.58,1916.83 "/>
<path class="Beam" fill-rule="evenodd" d="M6768.43,2047.9 L7319.89,2068.57 L7319.89,2109.93 L6768.43,2089.26 L6768.43,2047.9 "/>
<path class="Beam" fill-rule="evenodd" d="M3316.95,1159.13 L3787.87,1159.13 L3787.87,1200.47 L3316.95,1200.47 L3316.95,1159.13 "/>
<path class="Beam" fill-rule="evenodd" d="M4707.66,1138.44 L5178.58,1117.77 L5178.58,1159.15 L4707.66,1179.82 L4707.66,1138.44 "/>
<path class="Beam" fill-rule="evenodd" d="M4640,1944.51 L5191.46,1903.17 L5191.46,1944.62 L4640,1985.96 L4640,1944.51 "/>
<path class="Beam" fill-rule="evenodd" d="M5500.86,745.747 L5971.78,745.747 L5971.78,787.085 L5500.86,787.085 L5500.86,745.747 "/>
<path class="Beam" fill-rule="evenodd" d="M1926.24,1200.47 L2397.16,1200.47 L2397.16,1241.81 L1926.24,1241.81 L1926.24,1200.47 "/>
<path class="Beam" fill-rule="evenodd" d="M6313.25,787.008 L6552.84,807.678 L6552.84,849.17 L6313.25,828.5 L6313.25,787.008 "/>
<path class="Beam" fill-rule="evenodd" d="M7800.65,1634.4 L8352.11,1572.39 L8352.11,1613.99 L7800.65,1675.99 L7800.65,1634.4 "/>
<path class="Beam" fill-rule="evenodd" d="M3028.01,2006.56 L3579.47,1985.89 L3579.47,2027.26 L3028.01,2047.93 L3028.01,2006.56 "/>
<path class="Beam" fill-rule="evenodd" d="M7882.01,1200.45 L8352.93,1179.78 L8352.93,1221.16 L7882.01,1241.83 L7882.01,1200.45 "/>
<path class="Beam" fill-rule="evenodd" d="M1410.14,2027.18 L1961.59,1985.85 L1961.59,2027.3 L1410.14,2068.64 L1410.14,2027.18 "/>
<path class="Beam" fill-rule="evenodd" d="M8516.22,2047.86 L8796.08,2068.52 L8796.08,2109.98 L8516.22,2089.31 L8516.22,2047.86 "/>
<path class="NoteDot" d="M5603.62,1655.2 C5603.62,1664.46 5610.9,1671.75 5620.17,1671.75 C5629.43,1671.75 5636.72,1664.46 5636.72,1655.2 C5636.72,1645.93 5629.43,1638.65 5620.17,1638.65 C5610.9,1638.65 5603.62,1645.93 5603.62,1655.2"/>
<path class="NoteDot" d="M6825.52,1117.79 C6825.52,1127.06 6832.81,1134.34 6842.07,1134.34 C6851.34,1134.34 6858.62,1127.06 6858.62,1117.79 C6858.62,1108.53 6851.34,1101.24 6842.07,1101.24 C6832.81,1101.24 6825.52,1108.53 6825.52,1117.79"/>
</svg>
