<?xml version="1.0" encoding="UTF-8" standalone="no"?>
<svg width="210.058mm" height="296.926mm" viewBox="0 0 9924 14028"
 xmlns="http://www.w3.org/2000/svg" xmlns:xlink="http://www.w3.org/1999/xlink" version="1.2" baseProfile="full">
<title>air_LXIII</title>
<desc>Generated by MuseScore Studio 4.7.3</desc>
<polyline class="StaffLines" fill="none" stroke="#000000" stroke-width="9.09" stroke-linejoin="bevel" points="708.661,828.424 9215.34,828.424" />
<polyline class="StaffLines" fill="none" stroke="#000000" stroke-width="9.09" stroke-linejoin="bevel" points="708.661,911.101 9215.34,911.101" />
<polyline class="StaffLines" fill="none" stroke="#000000" stroke-width="9.09" stroke-linejoin="bevel" points="708.661,993.778 9215.34,993.778" />
<polyline class="StaffLines" fill="none" stroke="#000000" stroke-width="9.09" stroke-linejoin="bevel" points="708.661,1076.46 9215.34,1076.46" />
<polyline class="StaffLines" fill="none" stroke="#000000" stroke-width="9.09" stroke-linejoin="bevel" points="708.661,1159.13 9215.34,1159.13" />
<polyline class="StaffLines" fill="none" stroke="#000000" stroke-width="9.09" stroke-linejoin="bevel" points="708.661,1696.53 9215.34,1696.53" />
<polyline class="StaffLines" fill="none" stroke="#000000" stroke-width="9.09" stroke-linejoin="bevel" points="708.661,1779.21 9215.34,1779.21" />
<polyline class="StaffLines" fill="none" stroke="#000000" stroke-width="9.09" stroke-linejoin="bevel" points="708.661,1861.89 9215.34,1861.89" />
<polyline class="StaffLines" fill="none" stroke="#000000" stroke-width="9.09" stroke-linejoin="bevel" points="708.661,1944.57 9215.34,1944.57" />
<polyline class="StaffLines" fill="none" stroke="#000000" stroke-width="9.09" stroke-linejoin="bevel" points="708.661,2027.24 9215.34,2027.24" />
<polyline class="BarLine" fill="none" stroke="#000000" stroke-width="14.88" stroke-linejoin="bevel" points="4610.63,823.876 4610.63,1163.68" />
<polyline class="BarLine" fill="none" stroke="#000000" stroke-width="14.88" stroke-linejoin="bevel" points="9131.84,1691.99 9131.84,2031.79" />
<polyline class="BarLine" fill="none" stroke="#000000" stroke-width="45.47" stroke-linejoin="bevel" points="9192.6,1691.99 9192.6,2031.79" />
<polyline class="BarLine" fill="none" stroke="#000000" stroke-width="14.88" stroke-linejoin="bevel" points="7343.44,1691.99 7343.44,2031.79" />
<polyline class="BarLine" fill="none" stroke="#000000" stroke-width="14.88" stroke-linejoin="bevel" points="4311.39,1691.99 4311.39,2031.79" />
<polyline class="BarLine" fill="none" stroke="#000000" stroke-width="14.88" stroke-linejoin="bevel" points="2031.97,823.876 2031.97,1163.68" />
<polyline class="BarLine" fill="none" stroke="#000000" stroke-width="14.88" stroke-linejoin="bevel" points="9207.9,823.876 9207.9,1163.68" />
<polyline class="BarLine" fill="none" stroke="#000000" stroke-width="14.88" stroke-linejoin="bevel" points="7244.35,823.876 7244.35,1163.68" />
<path class="TieSegment" stroke="#000000" stroke-width="4.13" stroke-linecap="round" stroke-linejoin="round" fill-rule="evenodd" d="M7513.26,2128.94 C7657.25,2209.38 8089.24,2209.38 8233.23,2128.94 C8089.24,2235.84 7657.25,2235.84 7513.26,2128.94"/>
<path class="TieSegment" stroke="#000000" stroke-width="4.13" stroke-linecap="round" stroke-linejoin="round" fill-rule="evenodd" d="M7414.17,1219.49 C7536.63,1293.85 7904.04,1293.85 8026.5,1219.49 C7904.04,1320.3 7536.63,1320.3 7414.17,1219.49"/>
<polyline class="Stem" fill="none" stroke="#000000" stroke-width="8.27" stroke-linejoin="bevel" points="1426.51,1875.78 1426.51,2109.92" />
<polyline class="Stem" fill="none" stroke="#000000" stroke-width="8.27" stroke-linejoin="bevel" points="8884.56,1021.89 8884.56,766.416" />
<polyline class="Stem" fill="none" stroke="#000000" stroke-width="8.27" stroke-linejoin="bevel" points="7557.57,2055.35 7557.57,1779.21" />
<polyline class="Stem" fill="none" stroke="#000000" stroke-width="8.27" stroke-linejoin="bevel" points="2146.89,1007.67 2146.89,1241.81" />
<polyline class="Stem" fill="none" stroke="#000000" stroke-width="8.27" stroke-linejoin="bevel" points="3908.57,1007.67 3908.57,1262.15" />
<polyline class="Stem" fill="none" stroke="#000000" stroke-width="8.27" stroke-linejoin="bevel" points="6948.33,1890 6948.33,1634.53" />
<polyline class="Stem" fill="none" stroke="#000000" stroke-width="8.27" stroke-linejoin="bevel" points="4287.28,1021.89 4287.28,766.416" />
<polyline class="Stem" fill="none" stroke="#000000" stroke-width="8.27" stroke-linejoin="bevel" points="6457.32,1972.68 6457.32,1696.53" />
<polyline class="Stem" fill="none" stroke="#000000" stroke-width="8.27" stroke-linejoin="bevel" points="2957.86,924.991 2957.86,1200.47" />
<polyline class="Stem" fill="none" stroke="#000000" stroke-width="8.27" stroke-linejoin="bevel" points="5966.31,1890 5966.31,1634.53" />
<polyline class="Stem" fill="none" stroke="#000000" stroke-width="8.27" stroke-linejoin="bevel" points="4725.55,924.991 4725.55,1200.47" />
<polyline class="Stem" fill="none" stroke="#000000" stroke-width="8.27" stroke-linejoin="bevel" points="5376.09,1875.78 5376.09,2109.92" />
<polyline class="Stem" fill="none" stroke="#000000" stroke-width="8.27" stroke-linejoin="bevel" points="5144.8,966.329 5144.8,1221.14" />
<polyline class="Stem" fill="none" stroke="#000000" stroke-width="8.27" stroke-linejoin="bevel" points="5048.75,1834.44 5048.75,2088.92" />
<polyline class="Stem" fill="none" stroke="#000000" stroke-width="8.27" stroke-linejoin="bevel" points="5564.05,1007.67 5564.05,1241.81" />
<polyline class="Stem" fill="none" stroke="#000000" stroke-width="8.27" stroke-linejoin="bevel" points="3377.1,966.329 3377.1,1221.14" />
<polyline class="Stem" fill="none" stroke="#000000" stroke-width="8.27" stroke-linejoin="bevel" points="6082.51,1021.89 6082.51,766.416" />
<polyline class="Stem" fill="none" stroke="#000000" stroke-width="8.27" stroke-linejoin="bevel" points="4426.31,1793.1 4426.31,2068.58" />
<polyline class="Stem" fill="none" stroke="#000000" stroke-width="8.27" stroke-linejoin="bevel" points="6501.76,1104.57 6501.76,828.424" />
<polyline class="Stem" fill="none" stroke="#000000" stroke-width="8.27" stroke-linejoin="bevel" points="1708.62,1021.89 1708.62,766.416" />
<polyline class="Stem" fill="none" stroke="#000000" stroke-width="8.27" stroke-linejoin="bevel" points="6921,1021.89 6921,766.416" />
<polyline class="Stem" fill="none" stroke="#000000" stroke-width="8.27" stroke-linejoin="bevel" points="3916.29,1890 3916.29,1634.53" />
<polyline class="Stem" fill="none" stroke="#000000" stroke-width="8.27" stroke-linejoin="bevel" points="2678.36,966.329 2678.36,1220.81" />
<polyline class="Stem" fill="none" stroke="#000000" stroke-width="8.27" stroke-linejoin="bevel" points="2048.95,1834.44 2048.95,2088.92" />
<polyline class="Stem" fill="none" stroke="#000000" stroke-width="8.27" stroke-linejoin="bevel" points="7458.48,1145.9 7458.48,869.762" />
<polyline class="Stem" fill="none" stroke="#000000" stroke-width="8.27" stroke-linejoin="bevel" points="3489.74,1875.78 3489.74,2130.26" />
<polyline class="Stem" fill="none" stroke="#000000" stroke-width="8.27" stroke-linejoin="bevel" points="8087.35,1145.9 8087.35,869.762" />
<polyline class="Stem" fill="none" stroke="#000000" stroke-width="8.27" stroke-linejoin="bevel" points="2376.29,1793.1 2376.29,2068.58" />
<polyline class="Stem" fill="none" stroke="#000000" stroke-width="8.27" stroke-linejoin="bevel" points="2867.3,1834.44 2867.3,2089.25" />
<polyline class="Stem" fill="none" stroke="#000000" stroke-width="8.27" stroke-linejoin="bevel" points="8294.08,2055.35 8294.08,1779.21" />
<path class="Hook" d="M3485.6,2130.26 C3485.6,2132.58 3487.59,2134.56 3489.91,2134.56 C3491.56,2134.56 3493.55,2133.24 3493.88,2131.91 C3493.88,2131.58 3496.86,2120 3497.19,2119 C3497.52,2117.68 3500.5,2105.1 3512.41,2085.57 C3525.32,2064.06 3545.18,2048.5 3561.73,2025.33 C3577.95,2002.16 3587.88,1980.32 3587.88,1951.19 C3587.88,1921.07 3580.93,1895.91 3563.39,1863.8 C3562.4,1861.49 3560.41,1860.16 3558.42,1860.16 C3557.76,1860.16 3557.1,1860.16 3556.77,1860.49 C3555.11,1861.16 3554.45,1862.48 3554.45,1864.47 C3554.45,1865.46 3554.78,1867.11 3555.44,1868.44 C3568.68,1899.22 3573.98,1916.76 3573.98,1940.6 C3573.98,1968.07 3564.38,1982.3 3558.42,1992.56 C3536.91,2029.3 3502.15,2047.18 3488.25,2051.81 C3485.93,2052.8 3485.6,2054.46 3485.6,2055.45 L3485.6,2130.26 "/>
<path class="Hook" d="M2674.22,1220.81 C2674.22,1223.13 2676.21,1225.11 2678.53,1225.11 C2680.18,1225.11 2682.17,1223.79 2682.5,1222.46 C2682.5,1222.13 2685.48,1210.55 2685.81,1209.56 C2686.14,1208.23 2689.12,1195.65 2701.03,1176.12 C2713.94,1154.61 2733.8,1139.05 2750.35,1115.88 C2766.57,1092.71 2776.5,1070.87 2776.5,1041.74 C2776.5,1011.62 2769.55,986.461 2752.01,954.354 C2751.01,952.037 2749.03,950.713 2747.04,950.713 C2746.38,950.713 2745.72,950.713 2745.39,951.044 C2743.73,951.706 2743.07,953.03 2743.07,955.016 C2743.07,956.009 2743.4,957.664 2744.06,958.988 C2757.3,989.771 2762.6,1007.31 2762.6,1031.15 C2762.6,1058.62 2753,1072.85 2747.04,1083.11 C2725.53,1119.85 2690.77,1137.73 2676.87,1142.36 C2674.55,1143.36 2674.22,1145.01 2674.22,1146 L2674.22,1220.81 "/>
<path class="Hook" d="M5044.62,2088.92 C5044.62,2091.24 5046.61,2093.22 5048.92,2093.22 C5050.58,2093.22 5052.56,2091.9 5052.89,2090.57 C5052.89,2090.24 5055.87,2078.66 5056.2,2077.67 C5056.54,2076.34 5059.51,2063.76 5071.43,2044.23 C5084.34,2022.72 5104.2,2007.16 5120.75,1983.99 C5136.97,1960.82 5146.9,1938.98 5146.9,1909.85 C5146.9,1879.73 5139.95,1854.57 5122.4,1822.46 C5121.41,1820.15 5119.43,1818.82 5117.44,1818.82 C5116.78,1818.82 5116.12,1818.82 5115.78,1819.15 C5114.13,1819.82 5113.47,1821.14 5113.47,1823.13 C5113.47,1824.12 5113.8,1825.77 5114.46,1827.1 C5127.7,1857.88 5133,1875.42 5133,1899.26 C5133,1926.73 5123.4,1940.96 5117.44,1951.22 C5095.92,1987.96 5061.17,2005.84 5047.27,2010.47 C5044.95,2011.47 5044.62,2013.12 5044.62,2014.11 L5044.62,2088.92 "/>
<path class="Hook" d="M3904.44,1262.15 C3904.44,1264.46 3906.43,1266.45 3908.74,1266.45 C3910.4,1266.45 3912.38,1265.13 3912.71,1263.8 C3912.71,1263.47 3915.69,1251.89 3916.02,1250.89 C3916.36,1249.57 3919.33,1236.99 3931.25,1217.46 C3944.16,1195.95 3964.02,1180.39 3980.57,1157.22 C3996.79,1134.05 4006.72,1112.2 4006.72,1083.08 C4006.72,1052.96 3999.77,1027.8 3982.22,995.693 C3981.23,993.376 3979.25,992.052 3977.26,992.052 C3976.6,992.052 3975.94,992.052 3975.6,992.383 C3973.95,993.045 3973.29,994.369 3973.29,996.355 C3973.29,997.348 3973.62,999.003 3974.28,1000.33 C3987.52,1031.11 3992.82,1048.65 3992.82,1072.48 C3992.82,1099.96 3983.22,1114.19 3977.26,1124.45 C3955.74,1161.19 3920.99,1179.07 3907.09,1183.7 C3904.77,1184.69 3904.44,1186.35 3904.44,1187.34 L3904.44,1262.15 "/>
<path class="Hook" d="M2044.82,2088.92 C2044.82,2091.24 2046.8,2093.22 2049.12,2093.22 C2050.77,2093.22 2052.76,2091.9 2053.09,2090.57 C2053.09,2090.24 2056.07,2078.66 2056.4,2077.67 C2056.73,2076.34 2059.71,2063.76 2071.63,2044.23 C2084.54,2022.72 2104.4,2007.16 2120.95,1983.99 C2137.16,1960.82 2147.09,1938.98 2147.09,1909.85 C2147.09,1879.73 2140.14,1854.57 2122.6,1822.46 C2121.61,1820.15 2119.62,1818.82 2117.64,1818.82 C2116.97,1818.82 2116.31,1818.82 2115.98,1819.15 C2114.33,1819.82 2113.66,1821.14 2113.66,1823.13 C2113.66,1824.12 2113.99,1825.77 2114.66,1827.1 C2127.9,1857.88 2133.19,1875.42 2133.19,1899.26 C2133.19,1926.73 2123.59,1940.96 2117.64,1951.22 C2096.12,1987.96 2061.37,2005.84 2047.46,2010.47 C2045.15,2011.47 2044.82,2013.12 2044.82,2014.11 L2044.82,2088.92 "/>
<path class="Note" d="M8781.21,1049.02 C8781.21,1063.25 8791.47,1079.14 8818.28,1079.14 C8852.71,1079.14 8888.79,1051 8888.79,1021.88 C8888.79,1002.35 8872.24,991.425 8851.71,991.425 C8819.61,991.425 8781.21,1018.57 8781.21,1049.02"/>
<path class="Note" d="M4183.94,1049.02 C4183.94,1063.25 4194.2,1079.14 4221.01,1079.14 C4255.43,1079.14 4291.51,1051 4291.51,1021.88 C4291.51,1002.35 4274.96,991.425 4254.44,991.425 C4222.33,991.425 4183.94,1018.57 4183.94,1049.02"/>
<path class="Note" d="M1422.38,1875.79 C1422.38,1890.02 1432.64,1905.91 1459.45,1905.91 C1493.87,1905.91 1529.95,1877.78 1529.95,1848.65 C1529.95,1829.12 1513.4,1818.2 1492.88,1818.2 C1460.77,1818.2 1422.38,1845.34 1422.38,1875.79"/>
<path class="Note" d="M2953.72,925.003 C2953.72,939.236 2963.98,955.124 2990.79,955.124 C3025.22,955.124 3061.3,926.989 3061.3,897.861 C3061.3,878.332 3044.75,867.409 3024.22,867.409 C2992.12,867.409 2953.72,894.551 2953.72,925.003"/>
<path class="Note" d="M6844.99,1917.13 C6844.99,1931.36 6855.25,1947.25 6882.06,1947.25 C6916.48,1947.25 6952.56,1919.11 6952.56,1889.99 C6952.56,1870.46 6936.01,1859.53 6915.49,1859.53 C6883.38,1859.53 6844.99,1886.68 6844.99,1917.13"/>
<path class="Note" d="M2142.75,1007.68 C2142.75,1021.91 2153.01,1037.8 2179.83,1037.8 C2214.25,1037.8 2250.33,1009.67 2250.33,980.538 C2250.33,961.009 2233.78,950.086 2213.26,950.086 C2181.15,950.086 2142.75,977.228 2142.75,1007.68"/>
<path class="Note" d="M2044.82,1834.45 C2044.82,1848.68 2055.08,1864.57 2081.89,1864.57 C2116.31,1864.57 2152.39,1836.44 2152.39,1807.31 C2152.39,1787.78 2135.84,1776.86 2115.32,1776.86 C2083.21,1776.86 2044.82,1804 2044.82,1834.45"/>
<path class="Note" d="M3904.44,1007.68 C3904.44,1021.91 3914.7,1037.8 3941.51,1037.8 C3975.94,1037.8 4012.01,1009.67 4012.01,980.538 C4012.01,961.009 3995.46,950.086 3974.94,950.086 C3942.84,950.086 3904.44,977.228 3904.44,1007.68"/>
<path class="Note" d="M2372.16,1793.11 C2372.16,1807.35 2382.42,1823.23 2409.23,1823.23 C2443.65,1823.23 2479.73,1795.1 2479.73,1765.97 C2479.73,1746.44 2463.18,1735.52 2442.66,1735.52 C2410.55,1735.52 2372.16,1762.66 2372.16,1793.11"/>
<path class="Note" d="M8215.56,2097.05 C8204.64,2097.05 8202.32,2088.11 8202.32,2085.13 C8202.32,2068.91 8257.93,2040.45 8273.49,2040.45 C8281.43,2040.45 8286.73,2045.08 8286.73,2052.36 C8286.73,2068.91 8230.79,2097.05 8215.56,2097.05 M8261.24,2024.89 C8229.13,2024.89 8190.74,2051.7 8190.74,2082.48 C8190.74,2096.72 8201,2112.6 8227.81,2112.6 C8262.23,2112.6 8298.31,2084.47 8298.31,2055.34 C8298.31,2035.81 8281.76,2024.89 8261.24,2024.89"/>
<path class="Note" d="M2863.16,1834.45 C2863.16,1848.68 2873.43,1864.57 2900.24,1864.57 C2934.66,1864.57 2970.74,1836.44 2970.74,1807.31 C2970.74,1787.78 2954.19,1776.86 2933.67,1776.86 C2901.56,1776.86 2863.16,1804 2863.16,1834.45"/>
<path class="Note" d="M3372.97,966.341 C3372.97,980.574 3383.23,996.462 3410.04,996.462 C3444.47,996.462 3480.55,968.327 3480.55,939.199 C3480.55,919.67 3464,908.747 3443.47,908.747 C3411.37,908.747 3372.97,935.889 3372.97,966.341"/>
<path class="Note" d="M8008.83,1187.6 C7997.91,1187.6 7995.59,1178.66 7995.59,1175.68 C7995.59,1159.46 8051.2,1131 8066.76,1131 C8074.7,1131 8080,1135.63 8080,1142.91 C8080,1159.46 8024.06,1187.6 8008.83,1187.6 M8054.51,1115.44 C8022.4,1115.44 7984.01,1142.25 7984.01,1173.03 C7984.01,1187.27 7994.27,1203.16 8021.08,1203.16 C8055.5,1203.16 8091.58,1175.02 8091.58,1145.89 C8091.58,1126.36 8075.03,1115.44 8054.51,1115.44"/>
<path class="Note" d="M7379.96,1187.6 C7369.04,1187.6 7366.72,1178.66 7366.72,1175.68 C7366.72,1159.46 7422.33,1131 7437.88,1131 C7445.83,1131 7451.12,1135.63 7451.12,1142.91 C7451.12,1159.46 7395.19,1187.6 7379.96,1187.6 M7425.64,1115.44 C7393.53,1115.44 7355.13,1142.25 7355.13,1173.03 C7355.13,1187.27 7365.4,1203.16 7392.21,1203.16 C7426.63,1203.16 7462.71,1175.02 7462.71,1145.89 C7462.71,1126.36 7446.16,1115.44 7425.64,1115.44"/>
<path class="Note" d="M3485.6,1875.79 C3485.6,1890.02 3495.86,1905.91 3522.68,1905.91 C3557.1,1905.91 3593.18,1877.78 3593.18,1848.65 C3593.18,1829.12 3576.63,1818.2 3556.11,1818.2 C3524,1818.2 3485.6,1845.34 3485.6,1875.79"/>
<path class="Note" d="M6817.66,1049.02 C6817.66,1063.25 6827.92,1079.14 6854.73,1079.14 C6889.15,1079.14 6925.23,1051 6925.23,1021.88 C6925.23,1002.35 6908.68,991.425 6888.16,991.425 C6856.05,991.425 6817.66,1018.57 6817.66,1049.02"/>
<path class="Note" d="M3812.94,1917.13 C3812.94,1931.36 3823.2,1947.25 3850.01,1947.25 C3884.44,1947.25 3920.52,1919.11 3920.52,1889.99 C3920.52,1870.46 3903.97,1859.53 3883.45,1859.53 C3851.34,1859.53 3812.94,1886.68 3812.94,1917.13"/>
<path class="Note" d="M1605.28,1049.02 C1605.28,1063.25 1615.54,1079.14 1642.35,1079.14 C1676.77,1079.14 1712.85,1051 1712.85,1021.88 C1712.85,1002.35 1696.3,991.425 1675.78,991.425 C1643.67,991.425 1605.28,1018.57 1605.28,1049.02"/>
<path class="Note" d="M6398.41,1131.7 C6398.41,1145.93 6408.67,1161.82 6435.48,1161.82 C6469.91,1161.82 6505.98,1133.68 6505.98,1104.55 C6505.98,1085.02 6489.43,1074.1 6468.91,1074.1 C6436.81,1074.1 6398.41,1101.24 6398.41,1131.7"/>
<path class="Note" d="M5979.16,1049.02 C5979.16,1063.25 5989.42,1079.14 6016.23,1079.14 C6050.66,1079.14 6086.74,1051 6086.74,1021.88 C6086.74,1002.35 6070.19,991.425 6049.66,991.425 C6017.56,991.425 5979.16,1018.57 5979.16,1049.02"/>
<path class="Note" d="M4422.18,1793.11 C4422.18,1807.35 4432.44,1823.23 4459.25,1823.23 C4493.68,1823.23 4529.76,1795.1 4529.76,1765.97 C4529.76,1746.44 4513.21,1735.52 4492.68,1735.52 C4460.58,1735.52 4422.18,1762.66 4422.18,1793.11"/>
<path class="Note" d="M6353.98,1999.81 C6353.98,2014.04 6364.24,2029.93 6391.05,2029.93 C6425.47,2029.93 6461.55,2001.79 6461.55,1972.66 C6461.55,1953.14 6445,1942.21 6424.48,1942.21 C6392.37,1942.21 6353.98,1969.35 6353.98,1999.81"/>
<path class="Note" d="M5559.91,1007.68 C5559.91,1021.91 5570.17,1037.8 5596.98,1037.8 C5631.41,1037.8 5667.49,1009.67 5667.49,980.538 C5667.49,961.009 5650.94,950.086 5630.42,950.086 C5598.31,950.086 5559.91,977.228 5559.91,1007.68"/>
<path class="Note" d="M5140.66,966.341 C5140.66,980.574 5150.92,996.462 5177.74,996.462 C5212.16,996.462 5248.24,968.327 5248.24,939.199 C5248.24,919.67 5231.69,908.747 5211.17,908.747 C5179.06,908.747 5140.66,935.889 5140.66,966.341"/>
<path class="Note" d="M5044.62,1834.45 C5044.62,1848.68 5054.88,1864.57 5081.69,1864.57 C5116.12,1864.57 5152.19,1836.44 5152.19,1807.31 C5152.19,1787.78 5135.64,1776.86 5115.12,1776.86 C5083.02,1776.86 5044.62,1804 5044.62,1834.45"/>
<path class="Note" d="M4721.42,925.003 C4721.42,939.236 4731.68,955.124 4758.49,955.124 C4792.91,955.124 4828.99,926.989 4828.99,897.861 C4828.99,878.332 4812.44,867.409 4791.92,867.409 C4759.81,867.409 4721.42,894.551 4721.42,925.003"/>
<path class="Note" d="M5371.96,1875.79 C5371.96,1890.02 5382.22,1905.91 5409.03,1905.91 C5443.45,1905.91 5479.53,1877.78 5479.53,1848.65 C5479.53,1829.12 5462.98,1818.2 5442.46,1818.2 C5410.35,1818.2 5371.96,1845.34 5371.96,1875.79"/>
<path class="Note" d="M2674.22,966.341 C2674.22,980.574 2684.48,996.462 2711.29,996.462 C2745.72,996.462 2781.8,968.327 2781.8,939.199 C2781.8,919.67 2765.25,908.747 2744.73,908.747 C2712.62,908.747 2674.22,935.889 2674.22,966.341"/>
<path class="Note" d="M5862.97,1917.13 C5862.97,1931.36 5873.23,1947.25 5900.04,1947.25 C5934.46,1947.25 5970.54,1919.11 5970.54,1889.99 C5970.54,1870.46 5953.99,1859.53 5933.47,1859.53 C5901.36,1859.53 5862.97,1886.68 5862.97,1917.13"/>
<path class="Note" d="M7479.05,2097.05 C7468.13,2097.05 7465.81,2088.11 7465.81,2085.13 C7465.81,2068.91 7521.42,2040.45 7536.97,2040.45 C7544.92,2040.45 7550.21,2045.08 7550.21,2052.36 C7550.21,2068.91 7494.28,2097.05 7479.05,2097.05 M7524.73,2024.89 C7492.62,2024.89 7454.22,2051.7 7454.22,2082.48 C7454.22,2096.72 7464.49,2112.6 7491.3,2112.6 C7525.72,2112.6 7561.8,2084.47 7561.8,2055.34 C7561.8,2035.81 7545.25,2024.89 7524.73,2024.89"/>
<path class="Clef" d="M909.689,1144.64 C903.069,1145.97 896.78,1146.63 890.491,1146.63 C843.158,1146.63 802.776,1113.53 802.776,1063.55 C802.776,1023.16 831.242,987.085 860.37,961.929 C865.997,956.964 871.293,952.33 876.258,947.365 C879.237,965.239 881.554,980.796 883.871,994.367 C853.75,1003.3 833.228,1035.08 833.228,1066.19 C833.228,1089.36 851.433,1121.14 877.913,1121.14 C880.561,1121.14 883.54,1119.82 883.54,1116.84 C883.54,1113.86 880.23,1112.2 876.258,1109.56 C863.349,1101.61 856.067,1093.01 856.067,1076.79 C856.067,1056.6 870.962,1040.38 890.491,1035.74 L909.689,1144.64 M880.561,804.373 C883.54,791.133 898.766,756.378 915.978,756.378 C920.943,756.378 928.887,772.597 928.887,795.436 C928.887,829.86 903.4,855.678 880.561,878.186 C878.575,864.946 876.92,852.037 876.92,838.135 C876.92,825.888 877.913,814.634 880.561,804.373 M956.691,1083.41 C956.691,1106.91 947.092,1131.07 923.591,1140.67 C916.64,1100.95 907.703,1048.32 905.386,1033.76 C935.176,1033.76 956.691,1053.95 956.691,1083.41 M811.051,1246.26 C811.051,1268.1 827.932,1296.9 872.617,1296.9 C888.174,1296.9 901.745,1292.93 913.661,1285.65 C931.535,1273.07 936.169,1251.22 936.169,1230.37 C936.169,1217.46 934.183,1202.57 930.873,1183.7 C929.88,1177.08 927.894,1167.15 925.908,1154.24 C958.346,1143.65 982.509,1109.89 982.509,1075.79 C982.509,1025.81 947.092,992.05 898.766,992.05 C895.456,972.19 892.146,952.661 889.167,934.125 C924.253,897.384 948.416,856.009 948.416,803.38 C948.416,773.259 939.148,748.765 933.852,736.849 C925.908,719.968 916.309,708.383 910.351,708.383 C908.034,708.383 897.773,712.355 886.85,725.264 C865.666,750.42 859.708,792.788 859.708,820.592 C859.708,838.466 861.363,854.685 866.99,891.757 C866.659,892.088 849.447,909.631 842.496,915.258 C812.375,943.393 770.669,983.444 770.669,1049.64 C770.669,1111.54 824.622,1160.2 886.188,1160.2 C895.787,1160.2 904.724,1159.21 912.337,1157.88 C918.626,1189.66 922.267,1212.83 922.267,1230.37 C922.267,1264.79 904.724,1283 871.293,1283 C863.349,1283 856.398,1281.34 855.736,1281.34 C855.405,1281.01 854.743,1280.68 854.743,1280.35 C854.743,1279.69 855.405,1279.36 856.398,1279.03 C871.955,1276.71 887.512,1263.47 887.512,1242.29 C887.512,1224.41 873.941,1205.55 849.116,1205.55 C825.946,1205.55 811.051,1224.41 811.051,1246.26"/>
<path class="Clef" d="M909.689,2012.75 C903.069,2014.08 896.78,2014.74 890.491,2014.74 C843.158,2014.74 802.776,1981.64 802.776,1931.66 C802.776,1891.27 831.242,1855.2 860.37,1830.04 C865.997,1825.07 871.293,1820.44 876.258,1815.48 C879.237,1833.35 881.554,1848.91 883.871,1862.48 C853.75,1871.41 833.228,1903.19 833.228,1934.3 C833.228,1957.47 851.433,1989.25 877.913,1989.25 C880.561,1989.25 883.54,1987.93 883.54,1984.95 C883.54,1981.97 880.23,1980.31 876.258,1977.67 C863.349,1969.72 856.067,1961.12 856.067,1944.9 C856.067,1924.71 870.962,1908.49 890.491,1903.85 L909.689,2012.75 M880.561,1672.48 C883.54,1659.24 898.766,1624.49 915.978,1624.49 C920.943,1624.49 928.887,1640.71 928.887,1663.55 C928.887,1697.97 903.4,1723.79 880.561,1746.3 C878.575,1733.06 876.92,1720.15 876.92,1706.25 C876.92,1694 877.913,1682.74 880.561,1672.48 M956.691,1951.52 C956.691,1975.02 947.092,1999.18 923.591,2008.78 C916.64,1969.06 907.703,1916.43 905.386,1901.87 C935.176,1901.87 956.691,1922.06 956.691,1951.52 M811.051,2114.37 C811.051,2136.21 827.932,2165.01 872.617,2165.01 C888.174,2165.01 901.745,2161.04 913.661,2153.76 C931.535,2141.18 936.169,2119.33 936.169,2098.48 C936.169,2085.57 934.183,2070.68 930.873,2051.81 C929.88,2045.19 927.894,2035.26 925.908,2022.35 C958.346,2011.76 982.509,1978 982.509,1943.9 C982.509,1893.92 947.092,1860.16 898.766,1860.16 C895.456,1840.3 892.146,1820.77 889.167,1802.24 C924.253,1765.49 948.416,1724.12 948.416,1671.49 C948.416,1641.37 939.148,1616.88 933.852,1604.96 C925.908,1588.08 916.309,1576.49 910.351,1576.49 C908.034,1576.49 897.773,1580.47 886.85,1593.37 C865.666,1618.53 859.708,1660.9 859.708,1688.7 C859.708,1706.58 861.363,1722.8 866.99,1759.87 C866.659,1760.2 849.447,1777.74 842.496,1783.37 C812.375,1811.5 770.669,1851.55 770.669,1917.75 C770.669,1979.65 824.622,2028.31 886.188,2028.31 C895.787,2028.31 904.724,2027.32 912.337,2025.99 C918.626,2057.77 922.267,2080.94 922.267,2098.48 C922.267,2132.9 904.724,2151.11 871.293,2151.11 C863.349,2151.11 856.398,2149.45 855.736,2149.45 C855.405,2149.12 854.743,2148.79 854.743,2148.46 C854.743,2147.8 855.405,2147.47 856.398,2147.14 C871.955,2144.82 887.512,2131.58 887.512,2110.4 C887.512,2092.52 873.941,2073.66 849.116,2073.66 C825.946,2073.66 811.051,2092.52 811.051,2114.37"/>
<path class="KeySig" d="M1070.17,1672.04 L1099.63,1666.08 L1099.63,1720.7 L1070.17,1726.99 L1070.17,1672.04 M1121.48,1661.78 C1123.47,1661.45 1125.12,1659.13 1125.12,1657.14 L1125.12,1637.62 C1125.12,1634.97 1123.13,1632.98 1120.49,1632.98 L1119.82,1632.98 L1108.9,1635.3 L1108.9,1585.98 L1099.63,1585.98 L1099.63,1637.28 L1070.17,1643.24 L1070.17,1596.57 L1060.91,1596.57 L1060.91,1645.23 L1048,1647.88 C1046.01,1648.21 1044.36,1650.52 1044.36,1652.51 L1044.36,1671.71 C1044.36,1674.36 1046.34,1676.34 1048.99,1676.34 L1049.98,1676.34 L1060.91,1674.03 L1060.91,1728.64 L1048,1731.29 C1046.01,1731.62 1044.36,1733.94 1044.36,1735.92 L1044.36,1755.12 C1044.36,1757.77 1046.34,1759.75 1048.99,1759.75 L1049.98,1759.75 L1060.91,1757.44 L1060.91,1806.76 L1070.17,1806.76 L1070.17,1755.45 L1099.63,1749.49 L1099.63,1796.16 L1108.9,1796.16 L1108.9,1747.51 L1121.48,1745.19 C1123.47,1744.86 1125.12,1742.54 1125.12,1740.56 L1125.12,1721.03 C1125.12,1718.38 1123.13,1716.39 1120.49,1716.39 L1119.82,1716.39 L1108.9,1718.71 L1108.9,1664.1 L1121.48,1661.78 "/>
<path class="KeySig" d="M1160.78,1796.06 L1190.24,1790.1 L1190.24,1844.71 L1160.78,1851 L1160.78,1796.06 M1212.09,1785.79 C1214.08,1785.46 1215.73,1783.15 1215.73,1781.16 L1215.73,1761.63 C1215.73,1758.98 1213.74,1757 1211.1,1757 L1210.43,1757 L1199.51,1759.31 L1199.51,1710 L1190.24,1710 L1190.24,1761.3 L1160.78,1767.26 L1160.78,1720.59 L1151.52,1720.59 L1151.52,1769.24 L1138.61,1771.89 C1136.62,1772.22 1134.97,1774.54 1134.97,1776.53 L1134.97,1795.72 C1134.97,1798.37 1136.95,1800.36 1139.6,1800.36 L1140.59,1800.36 L1151.52,1798.04 L1151.52,1852.66 L1138.61,1855.3 C1136.62,1855.64 1134.97,1857.95 1134.97,1859.94 L1134.97,1879.14 C1134.97,1881.78 1136.95,1883.77 1139.6,1883.77 L1140.59,1883.77 L1151.52,1881.45 L1151.52,1930.77 L1160.78,1930.77 L1160.78,1879.47 L1190.24,1873.51 L1190.24,1920.18 L1199.51,1920.18 L1199.51,1871.52 L1212.09,1869.21 C1214.08,1868.88 1215.73,1866.56 1215.73,1864.57 L1215.73,1845.04 C1215.73,1842.4 1213.74,1840.41 1211.1,1840.41 L1210.43,1840.41 L1199.51,1842.73 L1199.51,1788.11 L1212.09,1785.79 "/>
<path class="KeySig" d="M1070.17,803.93 L1099.63,797.972 L1099.63,852.587 L1070.17,858.876 L1070.17,803.93 M1121.48,793.669 C1123.47,793.338 1125.12,791.021 1125.12,789.035 L1125.12,769.506 C1125.12,766.858 1123.13,764.872 1120.49,764.872 L1119.82,764.872 L1108.9,767.189 L1108.9,717.87 L1099.63,717.87 L1099.63,769.175 L1070.17,775.133 L1070.17,728.462 L1060.91,728.462 L1060.91,777.119 L1048,779.767 C1046.01,780.098 1044.36,782.415 1044.36,784.401 L1044.36,803.599 C1044.36,806.247 1046.34,808.233 1048.99,808.233 L1049.98,808.233 L1060.91,805.916 L1060.91,860.531 L1048,863.179 C1046.01,863.51 1044.36,865.827 1044.36,867.813 L1044.36,887.011 C1044.36,889.659 1046.34,891.645 1048.99,891.645 L1049.98,891.645 L1060.91,889.328 L1060.91,938.647 L1070.17,938.647 L1070.17,887.342 L1099.63,881.384 L1099.63,928.055 L1108.9,928.055 L1108.9,879.398 L1121.48,877.081 C1123.47,876.75 1125.12,874.433 1125.12,872.447 L1125.12,852.918 C1125.12,850.27 1123.13,848.284 1120.49,848.284 L1119.82,848.284 L1108.9,850.601 L1108.9,795.986 L1121.48,793.669 "/>
<path class="KeySig" d="M1160.78,927.945 L1190.24,921.987 L1190.24,976.602 L1160.78,982.891 L1160.78,927.945 M1212.09,917.684 C1214.08,917.353 1215.73,915.036 1215.73,913.05 L1215.73,893.521 C1215.73,890.873 1213.74,888.887 1211.1,888.887 L1210.43,888.887 L1199.51,891.204 L1199.51,841.885 L1190.24,841.885 L1190.24,893.19 L1160.78,899.148 L1160.78,852.477 L1151.52,852.477 L1151.52,901.134 L1138.61,903.782 C1136.62,904.113 1134.97,906.43 1134.97,908.416 L1134.97,927.614 C1134.97,930.262 1136.95,932.248 1139.6,932.248 L1140.59,932.248 L1151.52,929.931 L1151.52,984.546 L1138.61,987.194 C1136.62,987.525 1134.97,989.842 1134.97,991.828 L1134.97,1011.03 C1134.97,1013.67 1136.95,1015.66 1139.6,1015.66 L1140.59,1015.66 L1151.52,1013.34 L1151.52,1062.66 L1160.78,1062.66 L1160.78,1011.36 L1190.24,1005.4 L1190.24,1052.07 L1199.51,1052.07 L1199.51,1003.41 L1212.09,1001.1 C1214.08,1000.77 1215.73,998.448 1215.73,996.462 L1215.73,976.933 C1215.73,974.285 1213.74,972.299 1211.1,972.299 L1210.43,972.299 L1199.51,974.616 L1199.51,920.001 L1212.09,917.684 "/>
<path class="TimeSig" d="M1372.49,979.772 C1361.57,979.772 1352.63,964.877 1352.63,946.341 C1352.63,927.805 1361.57,912.579 1372.49,912.579 C1383.41,912.579 1392.68,927.805 1392.68,946.341 C1392.68,964.877 1383.41,979.772 1372.49,979.772 M1384.74,897.022 C1364.55,897.022 1357.26,902.98 1352.63,907.945 C1351.64,900.994 1350.98,895.698 1350.98,890.402 C1350.98,871.535 1357.6,847.041 1380.77,847.041 C1389.04,847.041 1394.01,849.689 1397.32,853.33 C1390.36,856.309 1384.74,865.246 1384.74,872.859 C1384.74,884.775 1394.01,894.043 1405.92,894.043 C1417.84,894.043 1427.44,884.775 1427.44,872.859 L1427.44,871.866 C1427.44,868.887 1426.77,863.922 1425.45,861.274 C1421.15,849.358 1407.25,831.815 1374.15,831.815 C1344.36,831.815 1322.84,860.281 1316.22,875.507 C1312.91,883.451 1307.95,899.67 1307.95,918.206 C1307.95,938.397 1313.57,961.236 1333.1,978.448 C1352.3,993.012 1364.55,993.674 1376.13,993.674 C1387.72,993.674 1431.08,980.103 1431.08,941.707 C1431.08,909.269 1405.59,897.022 1384.74,897.022"/>
<path class="TimeSig" d="M1362.58,1118.01 L1362.58,1142.5 L1335.11,1142.5 C1332.79,1142.5 1330.47,1144.49 1330.47,1147.13 L1330.47,1153.42 C1330.47,1156.07 1332.79,1158.06 1335.11,1158.06 L1435.4,1158.06 C1438.05,1158.06 1440.03,1156.07 1440.03,1153.42 L1440.03,1147.13 C1440.03,1144.49 1438.05,1142.5 1435.4,1142.5 L1405.61,1142.5 L1405.61,1118.01 L1435.4,1118.01 C1438.05,1118.01 1440.03,1115.69 1440.03,1113.04 L1440.03,1106.75 C1440.03,1104.44 1438.05,1102.12 1435.4,1102.12 L1405.61,1102.12 L1405.61,1049.49 C1405.61,1047.5 1404.62,1045.85 1403.29,1045.19 L1399.32,1043.2 C1398.66,1042.87 1398.33,1042.87 1397.66,1042.87 C1396.34,1042.87 1395.02,1042.87 1394.02,1043.86 L1363.9,1071.34 C1362.91,1072.33 1362.58,1073.65 1362.58,1074.98 L1362.58,1102.12 L1324.18,1102.12 C1324.18,1102.12 1361.25,1062.4 1400.31,1010.1 C1401.64,1008.45 1401.97,1006.79 1401.97,1005.47 C1401.97,1003.81 1401.31,1002.49 1400.97,1002.16 L1393.69,994.874 C1392.7,994.212 1391.71,993.55 1390.38,993.55 C1388.4,993.55 1343.71,993.55 1341.06,993.55 C1338.75,993.55 1337.09,995.536 1336.76,997.522 C1336.76,997.522 1335.11,1022.02 1326.5,1048.83 C1317.89,1075.64 1307.96,1092.19 1299.36,1104.44 C1299.36,1104.44 1298.36,1106.09 1298.36,1108.08 C1298.36,1108.74 1298.36,1109.4 1298.7,1110.06 C1299.69,1112.38 1302.01,1116.02 1302.01,1116.02 C1302.01,1116.02 1302.67,1118.01 1305.65,1118.01 L1362.58,1118.01 "/>
<path class="NoteDot" d="M4571.01,1737.87 C4571.01,1747.14 4578.29,1754.42 4587.56,1754.42 C4596.83,1754.42 4604.11,1747.14 4604.11,1737.87 C4604.11,1728.6 4596.83,1721.32 4587.56,1721.32 C4578.29,1721.32 4571.01,1728.6 4571.01,1737.87"/>
<path class="NoteDot" d="M3521.8,952.439 C3521.8,961.707 3529.08,968.989 3538.35,968.989 C3547.62,968.989 3554.9,961.707 3554.9,952.439 C3554.9,943.171 3547.62,935.889 3538.35,935.889 C3529.08,935.889 3521.8,943.171 3521.8,952.439"/>
<path class="NoteDot" d="M3012,1820.55 C3012,1829.82 3019.28,1837.1 3028.55,1837.1 C3037.81,1837.1 3045.1,1829.82 3045.1,1820.55 C3045.1,1811.28 3037.81,1804 3028.55,1804 C3019.28,1804 3012,1811.28 3012,1820.55"/>
<path class="NoteDot" d="M8132.84,1117.79 C8132.84,1127.06 8140.12,1134.34 8149.39,1134.34 C8158.66,1134.34 8165.94,1127.06 8165.94,1117.79 C8165.94,1108.53 8158.66,1101.24 8149.39,1101.24 C8140.12,1101.24 8132.84,1108.53 8132.84,1117.79"/>
<path class="NoteDot" d="M8339.57,2068.58 C8339.57,2077.85 8346.85,2085.13 8356.12,2085.13 C8365.39,2085.13 8372.67,2077.85 8372.67,2068.58 C8372.67,2059.31 8365.39,2052.03 8356.12,2052.03 C8346.85,2052.03 8339.57,2059.31 8339.57,2068.58"/>
<path class="NoteDot" d="M2291.59,952.439 C2291.59,961.707 2298.87,968.989 2308.14,968.989 C2317.4,968.989 2324.69,961.707 2324.69,952.439 C2324.69,943.171 2317.4,935.889 2308.14,935.889 C2298.87,935.889 2291.59,943.171 2291.59,952.439"/>
<path class="NoteDot" d="M1571.21,1820.55 C1571.21,1829.82 1578.49,1837.1 1587.76,1837.1 C1597.03,1837.1 1604.31,1829.82 1604.31,1820.55 C1604.31,1811.28 1597.03,1804 1587.76,1804 C1578.49,1804 1571.21,1811.28 1571.21,1820.55"/>
</svg>
