<?xml version="1.0" encoding="UTF-8" standalone="no"?>
<svg
   width="681"
   height="255.8495"
   version="1.2"
   id="svg283"
   xmlns="http://www.w3.org/2000/svg"
   xmlns:svg="http://www.w3.org/2000/svg"
   xmlns:rdf="http://www.w3.org/1999/02/22-rdf-syntax-ns#"
   xmlns:cc="http://creativecommons.org/ns#"
   xmlns:dc="http://purl.org/dc/elements/1.1/">
  <defs
     id="defs283" />
  <title
     id="title1">air_LXVII</title>
  <desc
     id="desc1">Generated by MuseScore Studio 4.7.3</desc>
  <path
     id="path283"
     class="NoteDot"
     d="m 318.35846,39.640888 c 0,0.742108 0.5828,1.324906 1.32491,1.324906 0.7413,0 1.3249,-0.582798 1.3249,-1.324906 0,-0.742107 -0.5836,-1.324906 -1.3249,-1.324906 -0.74211,0 -1.32491,0.582799 -1.32491,1.324906 M 214.07035,145.5405 c 0,0.74131 0.5828,1.3249 1.32491,1.3249 0.74211,0 1.32491,-0.58359 1.32491,-1.3249 0,-0.74211 -0.5828,-1.32491 -1.32491,-1.32491 -0.74211,0 -1.32491,0.5828 -1.32491,1.32491 M 60.710298,158.77755 c 0,0.74211 0.583599,1.32491 1.324906,1.32491 0.742107,0 1.324906,-0.5828 1.324906,-1.32491 0,-0.74211 -0.582799,-1.32491 -1.324906,-1.32491 -0.741307,0 -1.324906,0.5828 -1.324906,1.32491 M 561.98184,26.403838 c 0,0.741306 0.5836,1.324905 1.3249,1.324905 0.74211,0 1.32491,-0.583599 1.32491,-1.324905 0,-0.742108 -0.5828,-1.324906 -1.32491,-1.324906 -0.7413,0 -1.3249,0.582798 -1.3249,1.324906 M 549.37001,178.63353 c 0,0.7421 0.5836,1.3249 1.32491,1.3249 0.74211,0 1.32491,-0.5828 1.32491,-1.3249 0,-0.74211 -0.5828,-1.32491 -1.32491,-1.32491 -0.74131,0 -1.32491,0.5828 -1.32491,1.32491 M 244.29182,19.784912 c 0,0.741947 0.5828,1.324906 1.3249,1.324906 0.74211,0 1.32491,-0.582959 1.32491,-1.324906 0,-0.741947 -0.5828,-1.324906 -1.32491,-1.324906 -0.7421,0 -1.3249,0.582959 -1.3249,1.324906 M 570.2579,248.12984 c 0,0.74211 0.5836,1.32491 1.3249,1.32491 0.74211,0 1.32491,-0.5828 1.32491,-1.32491 0,-0.7421 -0.5828,-1.3249 -1.32491,-1.3249 -0.7413,0 -1.3249,0.5828 -1.3249,1.3249 M 551.37619,95.900155 c 0,0.741307 0.58279,1.324906 1.3249,1.324906 0.74211,0 1.32491,-0.583599 1.32491,-1.324906 0,-0.742107 -0.5828,-1.324905 -1.32491,-1.324905 -0.74211,0 -1.3249,0.582798 -1.3249,1.324905 M 60.710298,102.51828 c 0,0.74211 0.583599,1.32491 1.324906,1.32491 0.742107,0 1.324906,-0.5828 1.324906,-1.32491 0,-0.7413 -0.582799,-1.3249 -1.324906,-1.3249 -0.741307,0 -1.324906,0.5836 -1.324906,1.3249 m 0,138.99264 c 0,0.74211 0.583599,1.3249 1.324906,1.3249 0.742107,0 1.324906,-0.58279 1.324906,-1.3249 0,-0.74131 -0.582799,-1.32491 -1.324906,-1.32491 -0.741307,0 -1.324906,0.5836 -1.324906,1.32491 m 89.749362,-13.23705 c 0,0.74211 0.5828,1.3249 1.32491,1.3249 0.7421,0 1.3249,-0.58279 1.3249,-1.3249 0,-0.74211 -0.5828,-1.32491 -1.3249,-1.32491 -0.74211,0 -1.32491,0.5828 -1.32491,1.32491 M 290.31609,109.13721 c 0,0.74211 0.5828,1.3249 1.3249,1.3249 0.74131,0 1.32491,-0.58279 1.32491,-1.3249 0,-0.74211 -0.5836,-1.32491 -1.32491,-1.32491 -0.7421,0 -1.3249,0.5828 -1.3249,1.32491 M 210.52233,89.28123 c 0,0.742107 0.5836,1.324906 1.3249,1.324906 0.74211,0 1.32491,-0.582799 1.32491,-1.324906 0,-0.742108 -0.5828,-1.324906 -1.32491,-1.324906 -0.7413,0 -1.3249,0.582798 -1.3249,1.324906 M 105.08544,33.021963 c 0,0.742107 0.58279,1.324906 1.3249,1.324906 0.74211,0 1.32491,-0.582799 1.32491,-1.324906 0,-0.741307 -0.5828,-1.324906 -1.32491,-1.324906 -0.74211,0 -1.3249,0.583599 -1.3249,1.324906 M 47.533288,30.588299 c -0.212145,0.582798 -0.742107,2.490503 -2.040595,2.490503 -1.721978,0 -2.093432,-1.059925 -3.52401,-1.059925 -0.212145,0 -0.42429,0.02722 -0.689271,0.08005 0,0 0.662853,-1.007089 3.471173,-1.881287 2.809121,-0.874998 3.52481,-2.25274 3.52481,-3.842627 0,-1.112761 -0.503544,-3.312185 -4.50468,-3.312185 -4.001936,0 -4.743243,2.411569 -4.743243,3.630002 0,1.086343 0.900616,1.961341 1.986959,1.961341 1.086342,0 1.961341,-0.874998 1.961341,-1.961341 0,-0.741307 -0.529963,-1.563469 -1.219234,-1.82845 -0.07925,-0.02642 -0.185727,-0.158508 -0.185727,-0.291399 0,-0.158509 0.132891,-0.344236 0.610017,-0.476326 0.132091,-0.05364 0.502744,-0.132891 0.900616,-0.132891 1.510633,0 1.802032,0.927835 1.802032,2.279159 0,3.099719 -3.683318,3.762572 -5.220369,6.068149 0,0 -0.794944,1.11276 -0.794944,2.357612 0,1.245651 0.635635,1.324906 0.954253,1.324906 0.423489,0 0.874197,-0.344236 0.874197,-0.821362 0,-0.105672 -0.02642,-0.211345 -0.07925,-0.344235 -0.159309,-0.370654 -0.212145,-0.662053 -0.212145,-0.874198 0,-0.08006 0,-0.159309 0.02642,-0.238563 0.02642,-0.159309 0.238563,-0.42429 0.874198,-0.42429 0.768525,0 1.059925,0.901416 1.537051,1.589887 0.477126,0.689271 1.219234,1.112761 2.067013,1.112761 0.84778,0 1.986959,-0.609217 2.464085,-1.589888 0.477126,-0.97987 1.086343,-2.967629 1.086343,-3.682517 0,-0.345036 -0.212145,-0.503545 -0.449908,-0.503545 -0.185727,0 -0.371454,0.105672 -0.477126,0.370654 M 45.849737,16.209587 c 2.119849,-0.821441 2.25194,-2.199344 2.25194,-2.67631 v -0.13249 c 0,-0.238483 -0.07926,-3.232771 -4.636771,-3.232771 -4.557516,0 -4.425426,3.232771 -4.425426,3.232771 h 0.02642 l -0.02642,0.053 c 0,0.953932 0.768526,1.69588 1.722778,1.69588 0.953452,0 1.69556,-0.741948 1.69556,-1.69588 0,-0.768445 -0.582799,-1.510393 -1.324906,-1.669381 l 0.07925,-0.0795 c 0.371454,-0.264981 0.874998,-0.397472 1.377742,-0.397472 1.113561,0 2.305576,0.662453 2.305576,2.093352 0,1.669381 -1.245651,1.907864 -1.563469,1.96086 -0.317817,0.053 -1.802032,0.158989 -2.119849,0.158989 -0.317817,0 -0.344235,0.370974 -0.344235,0.370974 v 0.529962 c 0,0 0.05284,0.29148 0.344235,0.317978 0.450708,0.0265 1.059925,0.0265 1.907704,0.158988 1.166398,0.158989 1.775614,0.953933 1.775614,2.808801 0,1.775374 -1.192015,2.25234 -2.305576,2.25234 -0.741307,0 -1.430578,-0.211985 -1.721977,-0.42397 0.874197,-0.053 1.589887,-0.821442 1.589887,-1.69588 0,-0.953932 -0.742108,-1.722377 -1.69556,-1.722377 -0.954252,0 -1.722778,0.768445 -1.722778,1.722377 0,2.172846 1.987759,3.259269 3.9483,3.259269 2.54414,0 5.299624,-0.874438 5.299624,-3.762733 0,-1.934362 -1.324906,-2.755804 -2.490503,-3.126778 h 0.05284 m -15.477783,5.824703 c 0,2.093591 -1.086343,3.206352 -2.623394,4.425586 l 0.07925,-5.167533 c 0.05284,-0.238483 0.450709,-1.006929 1.510633,-1.006929 0.954253,0 1.033507,0.900936 1.033507,1.457397 v 0.291479 m -0.317817,-3.047284 c -1.324906,0 -2.093432,0.821442 -2.226323,0.980431 l 0.106473,-8.505896 c 0,-0.211985 -0.159309,-0.370974 -0.371454,-0.370974 h -0.317817 c -0.212145,0 -0.370654,0.158989 -0.370654,0.370974 l 0.132091,15.925369 c 0,0.212145 0.159309,0.370653 0.371454,0.370653 0.05284,0 0.158508,-0.02642 0.211344,-0.05284 2.279159,-1.139179 4.663989,-3.311864 4.663989,-6.041411 0,-1.377902 -0.635634,-2.67631 -2.199103,-2.67631 M 30.37195,161.02709 c 0,2.09343 -1.086343,3.20619 -2.623394,4.42542 l 0.07925,-5.16753 c 0.05284,-0.23856 0.450709,-1.00709 1.510633,-1.00709 0.954253,0 1.033507,0.90142 1.033507,1.4578 v 0.2914 m -0.317817,-3.04769 c -1.324906,0 -2.093432,0.82137 -2.226323,0.98067 l 0.106473,-8.50581 c 0,-0.21215 -0.159309,-0.37065 -0.371454,-0.37065 h -0.317817 c -0.212145,0 -0.370654,0.1585 -0.370654,0.37065 l 0.132091,15.92529 c 0,0.21214 0.159309,0.37065 0.371454,0.37065 0.05284,0 0.158508,-0.0264 0.211344,-0.0528 2.279159,-1.13917 4.663989,-3.31186 4.663989,-6.04173 0,-1.37774 -0.635634,-2.67623 -2.199103,-2.67623 m 0.317817,-66.448637 c 0,2.093431 -1.086343,3.206192 -2.623394,4.425426 l 0.07925,-5.167533 c 0.05284,-0.238564 0.450709,-1.007089 1.510633,-1.007089 0.954253,0 1.033507,0.901416 1.033507,1.457797 v 0.291399 m -0.317817,-3.047684 c -1.324906,0 -2.093432,0.821362 -2.226323,0.980671 l 0.106473,-8.505816 c 0,-0.212145 -0.159309,-0.370654 -0.371454,-0.370654 h -0.317817 c -0.212145,0 -0.370654,0.158509 -0.370654,0.370654 l 0.132091,15.925289 c 0,0.212145 0.159309,0.370653 0.371454,0.370653 0.05284,0 0.158508,-0.02642 0.211344,-0.05284 2.279159,-1.139179 4.663989,-3.311865 4.663989,-6.041731 0,-1.377742 -0.635634,-2.67623 -2.199103,-2.67623 m 0.317829,142.040295 c 0,2.09343 -1.086343,3.20619 -2.623394,4.42542 l 0.07925,-5.16753 c 0.05284,-0.23856 0.450709,-1.00709 1.510633,-1.00709 0.954253,0 1.033507,0.90142 1.033507,1.4578 v 0.2914 m -0.317817,-3.04769 c -1.324906,0 -2.093432,0.82136 -2.226323,0.98067 l 0.106473,-8.50581 c 0,-0.21215 -0.159309,-0.37066 -0.371454,-0.37066 h -0.317817 c -0.212145,0 -0.370654,0.15851 -0.370654,0.37066 l 0.132091,15.92529 c 0,0.21214 0.159309,0.37065 0.371454,0.37065 0.05284,0 0.158508,-0.0264 0.211344,-0.0528 2.279159,-1.13918 4.663989,-3.31186 4.663989,-6.04173 0,-1.37774 -0.635634,-2.67623 -2.199103,-2.67623 M 16.093311,35.171432 c -0.529962,0.106473 -1.033427,0.159309 -1.536891,0.159309 -3.789231,0 -7.0220012,-2.649812 -7.0220012,-6.650947 0,-3.233411 2.2788382,-6.121386 4.6106722,-8.135243 0.450468,-0.397471 0.874438,-0.768445 1.27191,-1.165917 0.238483,1.430898 0.42397,2.67631 0.609457,3.762733 -2.411329,0.715129 -4.0542123,3.259268 -4.0542123,5.749771 0,1.854869 1.4573963,4.399008 3.5772463,4.399008 0.211985,0 0.450468,-0.105672 0.450468,-0.344235 0,-0.238563 -0.264982,-0.371454 -0.582959,-0.582799 -1.033427,-0.636435 -1.616385,-1.324906 -1.616385,-2.623394 0,-1.616305 1.192415,-2.914793 2.755804,-3.286247 l 1.536891,8.717961 M 13.761477,7.9314474 c 0.238483,-1.0599247 1.457396,-3.8422271 2.835298,-3.8422271 0.397472,0 1.033427,1.2984078 1.033427,3.126778 0,2.7558044 -2.040355,4.8226567 -3.868725,6.6245287 -0.158989,-1.059924 -0.29148,-2.093351 -0.29148,-3.206272 0,-0.9804297 0.0795,-1.8813657 0.29148,-2.7028076 m 6.094567,22.3382336 c 0,1.881286 -0.768446,3.815409 -2.649812,4.583934 -0.556461,-3.179774 -1.27191,-7.393055 -1.457397,-8.558652 2.384831,0 4.107209,1.616305 4.107209,3.974718 M 8.1968718,43.306595 c 0,1.748395 1.351404,4.053972 4.9286502,4.053972 1.245411,0 2.331834,-0.317818 3.285766,-0.900616 1.430899,-1.007089 1.801872,-2.756285 1.801872,-4.425426 0,-1.033507 -0.158988,-2.225522 -0.423969,-3.736155 -0.07949,-0.529962 -0.238484,-1.324905 -0.397472,-2.358412 2.596815,-0.84778 4.531178,-3.550428 4.531178,-6.280294 0,-4.001136 -2.835299,-6.703784 -6.704024,-6.703784 -0.264981,-1.589887 -0.529962,-3.153276 -0.768445,-4.637171 2.8088,-2.941291 4.743163,-6.253555 4.743163,-10.4667559 0,-2.4113287 -0.741948,-4.3721895 -1.165917,-5.3261217 -0.635955,-1.3514041 -1.404401,-2.27883817 -1.881367,-2.27883817 -0.185487,0 -1.006928,0.31797742 -1.881366,1.35140397 -1.69588,2.013857 -2.172846,5.4056161 -2.172846,7.6314582 0,1.4308976 0.132491,2.7293056 0.582959,5.6970946 -0.0265,0.0265 -1.404401,1.430899 -1.960861,1.881367 -2.4113287,2.25234 -5.7500916,5.458612 -5.7500916,10.757915 0,4.955389 4.3191932,8.850852 9.2478436,8.850852 0.768445,0 1.483894,-0.07925 2.093351,-0.185727 0.503464,2.54414 0.794943,4.399008 0.794943,5.803168 0,2.755484 -1.4044,4.213281 -4.08071,4.213281 -0.635955,0 -1.192415,-0.132891 -1.245411,-0.132891 -0.0265,-0.02642 -0.07949,-0.05284 -0.07949,-0.07925 0,-0.05284 0.053,-0.07925 0.132491,-0.105672 1.245412,-0.185727 2.490823,-1.245652 2.490823,-2.941212 0,-1.431378 -1.086423,-2.941211 -3.073782,-2.941211 -1.8548679,0 -3.0472832,1.509833 -3.0472832,3.259029 M 16.093311,174.16407 c -0.529962,0.10647 -1.033427,0.15931 -1.536891,0.15931 -3.789231,0 -7.0220012,-2.64981 -7.0220012,-6.65095 0,-3.23341 2.2788382,-6.12098 4.6106722,-8.13516 0.450468,-0.39787 0.874438,-0.76853 1.27191,-1.1656 0.238483,1.43058 0.42397,2.67623 0.609457,3.76257 -2.411329,0.71489 -4.0542123,3.25903 -4.0542123,5.74954 0,1.85486 1.4573963,4.399 3.5772463,4.399 0.211985,0 0.450468,-0.10567 0.450468,-0.34423 0,-0.23856 -0.264982,-0.37146 -0.582959,-0.5828 -1.033427,-0.63644 -1.616385,-1.32491 -1.616385,-2.62339 0,-1.61631 1.192415,-2.9148 2.755804,-3.28625 l 1.536891,8.71796 m -2.331834,-27.24023 c 0.238483,-1.05992 1.457396,-3.84182 2.835298,-3.84182 0.397472,0 1.033427,1.29849 1.033427,3.12694 0,2.75548 -2.040355,4.82249 -3.868725,6.62453 -0.158989,-1.05993 -0.29148,-2.09344 -0.29148,-3.2062 0,-0.98067 0.0795,-1.88208 0.29148,-2.70345 m 6.094567,22.33848 c 0,1.88128 -0.768446,3.81541 -2.649812,4.58393 -0.556461,-3.17977 -1.27191,-7.39305 -1.457397,-8.55865 2.384831,0 4.107209,1.61631 4.107209,3.97472 M 8.1968718,182.29923 c 0,1.7484 1.351404,4.05397 4.9286502,4.05397 1.245411,0 2.331834,-0.31781 3.285766,-0.90061 1.430899,-1.00709 1.801872,-2.75629 1.801872,-4.42543 0,-1.0335 -0.158988,-2.22552 -0.423969,-3.73615 -0.07949,-0.52996 -0.238484,-1.32491 -0.397472,-2.35841 2.596815,-0.84778 4.531178,-3.55043 4.531178,-6.2803 0,-4.00113 -2.835299,-6.70378 -6.704024,-6.70378 -0.264981,-1.58989 -0.529962,-3.15336 -0.768445,-4.63677 2.8088,-2.94201 4.743163,-6.25388 4.743163,-10.46716 0,-2.41125 -0.741948,-4.37179 -1.165917,-5.32604 -0.635955,-1.35133 -1.404401,-2.27916 -1.881367,-2.27916 -0.185487,0 -1.006928,0.31862 -1.881366,1.35132 -1.69588,2.01418 -2.172846,5.4061 -2.172846,7.63162 0,1.43138 0.132491,2.72987 0.582959,5.6975 -0.0265,0.0264 -1.404401,1.43058 -1.960861,1.88128 -2.4113287,2.25194 -5.7500916,5.45814 -5.7500916,10.75776 0,4.95539 4.3191932,8.85085 9.2478436,8.85085 0.768445,0 1.483894,-0.0793 2.093351,-0.18573 0.503464,2.54414 0.794943,4.39901 0.794943,5.80317 0,2.75549 -1.4044,4.21328 -4.08071,4.21328 -0.635955,0 -1.192415,-0.13289 -1.245411,-0.13289 -0.0265,-0.0264 -0.07949,-0.0528 -0.07949,-0.0793 0,-0.0528 0.053,-0.0793 0.132491,-0.10567 1.245412,-0.18573 2.490823,-1.24566 2.490823,-2.94121 0,-1.43138 -1.086423,-2.94122 -3.073782,-2.94122 -1.8548679,0 -3.0472832,1.50984 -3.0472832,3.25903 M 16.093316,104.6677 c -0.529962,0.10648 -1.033427,0.15931 -1.536891,0.15931 -3.789231,0 -7.0220012,-2.64981 -7.0220012,-6.650948 0,-3.233411 2.2788382,-6.120986 4.6106722,-8.135163 0.450468,-0.397872 0.874438,-0.768525 1.27191,-1.165597 0.238483,1.430578 0.42397,2.67623 0.609457,3.762573 -2.411329,0.714889 -4.0542123,3.259028 -4.0542123,5.749531 0,1.854874 1.4573963,4.399014 3.5772463,4.399014 0.211985,0 0.450468,-0.10568 0.450468,-0.34424 0,-0.23856 -0.264982,-0.37145 -0.582959,-0.5828 -1.033427,-0.63643 -1.616385,-1.3249 -1.616385,-2.623394 0,-1.616305 1.192415,-2.914793 2.755804,-3.286247 l 1.536891,8.717961 M 13.761477,77.427525 c 0.238483,-1.059925 1.457396,-3.841827 2.835298,-3.841827 0.397472,0 1.033427,1.298488 1.033427,3.126938 0,2.755484 -2.040355,4.822497 -3.868725,6.62453 -0.158989,-1.059925 -0.29148,-2.093432 -0.29148,-3.206193 0,-0.98067 0.0795,-1.882087 0.29148,-2.703448 m 6.094567,22.338474 c 0,1.881291 -0.768446,3.815411 -2.649812,4.583931 -0.556461,-3.17977 -1.27191,-7.393052 -1.457397,-8.558649 2.384831,0 4.107209,1.616305 4.107209,3.974718 M 8.1968718,112.80291 c 0,1.7484 1.351404,4.05398 4.9286502,4.05398 1.245411,0 2.331834,-0.31782 3.285766,-0.90062 1.430899,-1.00709 1.801872,-2.75628 1.801872,-4.42543 0,-1.0335 -0.158988,-2.22552 -0.423969,-3.73615 -0.07949,-0.52996 -0.238484,-1.32491 -0.397472,-2.35841 2.596815,-0.84778 4.531178,-3.55043 4.531178,-6.280298 0,-4.001136 -2.835299,-6.703784 -6.704024,-6.703784 -0.264981,-1.589887 -0.529962,-3.153356 -0.768445,-4.63677 2.8088,-2.942012 4.743163,-6.253877 4.743163,-10.467157 0,-2.411249 -0.741948,-4.37179 -1.165917,-5.326042 -0.635955,-1.351324 -1.404401,-2.279158 -1.881367,-2.279158 -0.185487,0 -1.006928,0.318617 -1.881366,1.351324 -1.69588,2.014177 -2.172846,5.406096 -2.172846,7.631618 0,1.431378 0.132491,2.729866 0.582959,5.697495 -0.0265,0.02642 -1.404401,1.430579 -1.960861,1.881287 -2.4113287,2.251939 -5.7500916,5.458132 -5.7500916,10.757755 0,4.95539 4.3191932,8.85085 9.2478436,8.85085 0.768445,0 1.483894,-0.0793 2.093351,-0.18572 0.503464,2.54414 0.794943,4.399 0.794943,5.80316 0,2.75549 -1.4044,4.21329 -4.08071,4.21329 -0.635955,0 -1.192415,-0.1329 -1.245411,-0.1329 -0.0265,-0.0264 -0.07949,-0.0528 -0.07949,-0.0793 0,-0.0528 0.053,-0.0793 0.132491,-0.10567 1.245412,-0.18573 2.490823,-1.24565 2.490823,-2.94121 0,-1.43138 -1.086423,-2.94121 -3.073782,-2.94121 -1.8548679,0 -3.0472832,1.50983 -3.0472832,3.25902 m 7.8964392,130.85748 c -0.529962,0.10647 -1.033427,0.15931 -1.536891,0.15931 -3.789231,0 -7.0220012,-2.64981 -7.0220012,-6.65095 0,-3.23341 2.2788382,-6.12099 4.6106722,-8.13516 0.450468,-0.39787 0.874438,-0.76853 1.27191,-1.1656 0.238483,1.43058 0.42397,2.67623 0.609457,3.76257 -2.411329,0.71489 -4.0542123,3.25903 -4.0542123,5.74953 0,1.85487 1.4573963,4.39901 3.5772463,4.39901 0.211985,0 0.450468,-0.10567 0.450468,-0.34423 0,-0.23857 -0.264982,-0.37146 -0.582959,-0.5828 -1.033427,-0.63644 -1.616385,-1.32491 -1.616385,-2.6234 0,-1.6163 1.192415,-2.91479 2.755804,-3.28624 l 1.536891,8.71796 m -2.331834,-27.24023 c 0.238483,-1.05992 1.457396,-3.84182 2.835298,-3.84182 0.397472,0 1.033427,1.29848 1.033427,3.12693 0,2.75549 -2.040355,4.8225 -3.868725,6.62453 -0.158989,-1.05992 -0.29148,-2.09343 -0.29148,-3.20619 0,-0.98067 0.0795,-1.88209 0.29148,-2.70345 m 6.094567,22.33848 c 0,1.88128 -0.768446,3.81541 -2.649812,4.58393 -0.556461,-3.17977 -1.27191,-7.39305 -1.457397,-8.55865 2.384831,0 4.107209,1.6163 4.107209,3.97472 M 8.1968718,251.79555 c 0,1.7484 1.351404,4.05397 4.9286502,4.05397 1.245411,0 2.331834,-0.31781 3.285766,-0.90061 1.430899,-1.00709 1.801872,-2.75629 1.801872,-4.42543 0,-1.03351 -0.158988,-2.22552 -0.423969,-3.73615 -0.07949,-0.52997 -0.238484,-1.32491 -0.397472,-2.35842 2.596815,-0.84778 4.531178,-3.55042 4.531178,-6.28029 0,-4.00114 -2.835299,-6.70378 -6.704024,-6.70378 -0.264981,-1.58989 -0.529962,-3.15336 -0.768445,-4.63677 2.8088,-2.94202 4.743163,-6.25388 4.743163,-10.46716 0,-2.41125 -0.741948,-4.37179 -1.165917,-5.32604 -0.635955,-1.35133 -1.404401,-2.27916 -1.881367,-2.27916 -0.185487,0 -1.006928,0.31862 -1.881366,1.35132 -1.69588,2.01418 -2.172846,5.4061 -2.172846,7.63162 0,1.43138 0.132491,2.72987 0.582959,5.6975 -0.0265,0.0264 -1.404401,1.43057 -1.960861,1.88128 -2.4113287,2.25194 -5.7500916,5.45813 -5.7500916,10.75776 0,4.95539 4.3191932,8.85085 9.2478436,8.85085 0.768445,0 1.483894,-0.0792 2.093351,-0.18573 0.503464,2.54414 0.794943,4.39901 0.794943,5.80317 0,2.75548 -1.4044,4.21328 -4.08071,4.21328 -0.635955,0 -1.192415,-0.13289 -1.245411,-0.13289 -0.0265,-0.0264 -0.07949,-0.0528 -0.07949,-0.0793 0,-0.0528 0.053,-0.0793 0.132491,-0.10568 1.245412,-0.18572 2.490823,-1.24565 2.490823,-2.94121 0,-1.43138 -1.086423,-2.94121 -3.073782,-2.94121 -1.8548679,0 -3.0472832,1.50983 -3.0472832,3.25903 M 288.19944,171.40859 c -0.74211,0 -1.24565,-0.21215 -1.58989,-0.875 -0.34503,-0.66205 -0.82136,-2.35761 -0.84858,-3.0733 -0.0528,-0.71569 0.21215,-1.13918 0.84858,-1.35133 0.31782,-0.10647 0.74131,-0.15931 1.13918,-0.15931 0.74211,0 1.21924,0.15931 1.58989,0.8742 0.37065,0.71569 0.84778,2.41205 0.84778,3.0741 0,1.29849 -0.90062,1.51064 -1.98696,1.51064 m -0.21215,-6.30672 c -3.6569,0 -4.95538,1.85487 -4.95538,3.57685 0,1.72278 1.29848,3.57765 4.95538,3.57765 3.6569,0 4.92817,-1.85487 4.92817,-3.57765 0,-1.72198 -1.27127,-3.57685 -4.92817,-3.57685 M 167.16308,104.79744 c -0.8742,0 -1.05992,-0.71569 -1.05992,-0.95425 0,-1.29769 4.45184,-3.57685 5.69669,-3.57685 0.63644,0 1.05993,0.37066 1.05993,0.95426 0,1.3249 -4.47747,3.57684 -5.6967,3.57684 m 3.6569,-5.776751 c -2.57056,0 -5.64466,2.146271 -5.64466,4.611151 0,1.13918 0.82216,2.41125 2.96843,2.41125 2.75549,0 5.64386,-2.25274 5.64386,-4.58473 0,-1.562673 -1.32491,-2.437671 -2.96763,-2.437671 M 482.86294,232.69609 c 0,1.13918 0.82136,2.41125 2.96763,2.41125 2.75628,0 5.64466,-2.25194 5.64466,-4.58393 0,-1.56347 -1.32491,-2.43767 -2.96763,-2.43767 -2.57056,0 -5.64466,2.17268 -5.64466,4.61035 M 522.06895,34.135524 c 0,1.139179 0.82136,2.411249 2.96843,2.411249 2.75548,0 5.64386,-2.252741 5.64386,-4.584735 0,-1.563469 -1.32491,-2.437667 -2.96763,-2.437667 -2.57056,0 -5.64466,2.172686 -5.64466,4.611153 M 461.10967,230.55303 c -0.875,0 -1.05993,-0.71569 -1.05993,-0.95426 0,-1.29848 4.45185,-3.57684 5.6967,-3.57684 0.63643,0 1.05992,0.37065 1.05992,0.95345 0,1.32491 -4.47826,3.57765 -5.69669,3.57765 m 3.6569,-5.77675 c -2.57056,0 -5.64466,2.14626 -5.64466,4.61035 0,1.13998 0.82136,2.41125 2.96763,2.41125 2.75628,0 5.64466,-2.25194 5.64466,-4.58394 0,-1.56347 -1.32491,-2.43766 -2.96763,-2.43766 M 200.59554,91.560388 c -0.875,0 -1.05992,-0.715689 -1.05992,-0.954252 0,-1.298488 4.45104,-3.577646 5.69669,-3.577646 0.63564,0 1.05993,0.371453 1.05993,0.954252 0,1.324906 -4.47827,3.577646 -5.6967,3.577646 m 3.6561,-5.77675 c -2.56976,0 -5.64386,2.146268 -5.64386,4.610353 0,1.139179 0.82136,2.411248 2.96763,2.411248 2.75629,0 5.64466,-2.251939 5.64466,-4.583934 0,-1.563469 -1.32491,-2.437667 -2.96843,-2.437667 M 95.157848,35.301121 c -0.874198,0 -1.059925,-0.715689 -1.059925,-0.954252 0,-1.298488 4.451844,-3.576846 5.697496,-3.576846 0.635631,0 1.059921,0.370653 1.059921,0.953452 0,1.324906 -4.478258,3.577646 -5.697492,3.577646 m 3.6569,-5.77675 c -2.569757,0 -5.643859,2.146268 -5.643859,4.611153 0,1.139179 0.821362,2.411249 2.967629,2.411249 2.756285,0 5.643862,-2.252741 5.643862,-4.584735 0,-1.563469 -1.32491,-2.437667 -2.967632,-2.437667 m 34.941492,75.697359 c -0.74211,0 -1.24565,-0.21214 -1.58989,-0.875 -0.34423,-0.66205 -0.82136,-2.35841 -0.84778,-3.0733 -0.0528,-0.71569 0.21215,-1.13998 0.84778,-1.351325 0.31782,-0.106472 0.74211,-0.159308 1.13918,-0.159308 0.74211,0 1.21923,0.159308 1.58989,0.874203 0.37145,0.71569 0.84858,2.41124 0.84858,3.0741 0,1.29849 -0.90142,1.51063 -1.98776,1.51063 m -0.21215,-6.306713 c -3.6569,0 -4.95458,1.854873 -4.95458,3.576843 0,1.72278 1.29768,3.57765 4.95458,3.57765 3.6569,0 4.92897,-1.85487 4.92897,-3.57765 0,-1.72197 -1.27207,-3.576843 -4.92897,-3.576843 M 427.90376,227.24356 c -0.8742,0 -1.05992,-0.71569 -1.05992,-0.95425 0,-1.29849 4.45184,-3.57684 5.69669,-3.57684 0.63644,0 1.05993,0.37065 1.05993,0.95345 0,1.3249 -4.47746,3.57764 -5.6967,3.57764 m 3.6569,-5.77675 c -2.57056,0 -5.64466,2.14627 -5.64466,4.61036 0,1.13998 0.82217,2.41124 2.96843,2.41124 2.75549,0 5.64386,-2.25194 5.64386,-4.58393 0,-1.56347 -1.3249,-2.43767 -2.96763,-2.43767 m 82.95752,17.84821 c 0,1.13918 0.82137,2.41125 2.96763,2.41125 2.75549,0 5.64386,-2.25274 5.64386,-4.58394 0,-1.56347 -1.3249,-2.43847 -2.96763,-2.43847 -2.57055,0 -5.64386,2.17349 -5.64386,4.61116 M 404.16273,223.9341 c -0.8742,0 -1.05993,-0.71569 -1.05993,-0.95425 0,-1.29849 4.45185,-3.57685 5.6967,-3.57685 0.63643,0 1.05992,0.37066 1.05992,0.95345 0,1.32491 -4.47826,3.57765 -5.69669,3.57765 m 3.6569,-5.77675 c -2.57056,0 -5.64466,2.14627 -5.64466,4.61115 0,1.13918 0.82136,2.41125 2.96843,2.41125 2.75548,0 5.64386,-2.25274 5.64386,-4.58473 0,-1.56347 -1.32491,-2.43767 -2.96763,-2.43767 M 228.99096,87.084528 c 0,1.139979 0.82136,2.411249 2.96763,2.411249 2.75548,0 5.64385,-2.25194 5.64385,-4.583935 0,-1.563469 -1.3249,-2.437666 -2.96763,-2.437666 -2.57055,0 -5.64385,2.172685 -5.64385,4.610352 M 380.4217,220.62464 c -0.8742,0 -1.05993,-0.71569 -1.05993,-0.95425 0,-1.29769 4.45185,-3.57685 5.6967,-3.57685 0.63643,0 1.05992,0.37065 1.05992,0.95425 0,1.32491 -4.47826,3.57685 -5.69669,3.57685 m 3.6569,-5.77675 c -2.57056,0 -5.64466,2.14627 -5.64466,4.61115 0,1.13918 0.82136,2.41125 2.96843,2.41125 2.75548,0 5.64386,-2.25274 5.64386,-4.58474 0,-1.56266 -1.32491,-2.43766 -2.96763,-2.43766 M 246.95604,91.560388 c -0.8742,0 -1.05993,-0.715689 -1.05993,-0.954252 0,-1.298488 4.45185,-3.577646 5.6975,-3.577646 0.63564,0 1.05993,0.371453 1.05993,0.954252 0,1.324906 -4.47827,3.577646 -5.6975,3.577646 m 3.6569,-5.77675 c -2.57056,0 -5.64386,2.146268 -5.64386,4.610353 0,1.139179 0.82136,2.411248 2.96763,2.411248 2.75548,0 5.64386,-2.251939 5.64386,-4.583934 0,-1.563469 -1.32491,-2.437667 -2.96763,-2.437667 M 507.39171,30.826061 c 0,1.139179 0.82216,2.411249 2.96843,2.411249 2.75549,0 5.64386,-2.25274 5.64386,-4.583934 0,-1.563469 -1.32491,-2.438468 -2.96763,-2.438468 -2.57056,0 -5.64466,2.173486 -5.64466,4.611153 m -386.31214,0 c 0,1.139179 0.82136,2.411249 2.96763,2.411249 2.75629,0 5.64466,-2.25274 5.64466,-4.583934 0,-1.563469 -1.32491,-2.438468 -2.96843,-2.438468 -2.56976,0 -5.64386,2.173486 -5.64386,4.611153 M 347.21579,223.9341 c -0.8742,0 -1.05992,-0.71569 -1.05992,-0.95425 0,-1.29849 4.45184,-3.57685 5.69669,-3.57685 0.63644,0 1.05993,0.37066 1.05993,0.95345 0,1.32491 -4.47746,3.57765 -5.6967,3.57765 m 3.6569,-5.77675 c -2.57056,0 -5.64466,2.14627 -5.64466,4.61115 0,1.13918 0.82216,2.41125 2.96843,2.41125 2.75549,0 5.64386,-2.25274 5.64386,-4.58473 0,-1.56347 -1.3249,-2.43767 -2.96763,-2.43767 M 280.3885,114.72583 c -0.8742,0 -1.05993,-0.71569 -1.05993,-0.95425 0,-1.29849 4.45185,-3.57765 5.6967,-3.57765 0.63643,0 1.05992,0.37145 1.05992,0.95425 0,1.32491 -4.47826,3.57765 -5.69669,3.57765 m 3.6569,-5.77675 c -2.57056,0 -5.64466,2.14627 -5.64466,4.61035 0,1.13918 0.82136,2.41125 2.96843,2.41125 2.75548,0 5.64386,-2.25194 5.64386,-4.58393 0,-1.56347 -1.32491,-2.43767 -2.96763,-2.43767 m 30.10298,122.02744 c -0.74211,0 -1.24565,-0.21215 -1.58988,-0.8742 -0.34424,-0.66286 -0.82137,-2.35841 -0.84778,-3.0741 -0.0528,-0.71489 0.21214,-1.13918 0.84778,-1.35133 0.31781,-0.10567 0.7421,-0.15851 1.13917,-0.15851 0.74211,0 1.21924,0.15851 1.58989,0.8742 0.37146,0.71569 0.84858,2.41125 0.84858,3.0741 0,1.29769 -0.90142,1.50984 -1.98776,1.50984 m -0.21214,-6.30672 c -3.6561,0 -4.95459,1.85487 -4.95459,3.57765 0,1.72198 1.29849,3.57685 4.95459,3.57685 3.6569,0 4.92897,-1.85487 4.92897,-3.57685 0,-1.72278 -1.27207,-3.57765 -4.92897,-3.57765 M 552.05505,31.991658 c -0.875,0 -1.05992,-0.715689 -1.05992,-0.953452 0,-1.298488 4.45104,-3.577646 5.69669,-3.577646 0.63644,0 1.05993,0.370654 1.05993,0.954253 0,1.324905 -4.47827,3.576845 -5.6967,3.576845 m 3.6561,-5.77675 c -2.56976,0 -5.64386,2.146268 -5.64386,4.611153 0,1.139179 0.82136,2.411249 2.96763,2.411249 2.75628,0 5.64466,-2.25274 5.64466,-4.583934 0,-1.563469 -1.32491,-2.438468 -2.96843,-2.438468 M 137.74377,38.610584 c -0.8742,0 -1.05993,-0.715689 -1.05993,-0.954253 0,-1.298487 4.45185,-3.576845 5.6975,-3.576845 0.63563,0 1.05992,0.370653 1.05992,0.953452 0,1.324906 -4.47826,3.577646 -5.69749,3.577646 m 3.6569,-5.77675 c -2.56976,0 -5.64386,2.146268 -5.64386,4.610352 0,1.13998 0.82136,2.41205 2.96763,2.41205 2.75628,0 5.64386,-2.252741 5.64386,-4.584735 0,-1.563469 -1.32491,-2.437667 -2.96763,-2.437667 M 277.7627,233.86169 c -0.87419,0 -1.05992,-0.71489 -1.05992,-0.95345 0,-1.29849 4.45184,-3.57765 5.69749,-3.57765 0.63564,0 1.05993,0.37145 1.05993,0.95425 0,1.32491 -4.47826,3.57685 -5.6975,3.57685 m 3.6569,-5.77595 c -2.57055,0 -5.64386,2.14627 -5.64386,4.61035 0,1.13918 0.82137,2.41125 2.96763,2.41125 2.75549,0 5.64386,-2.25194 5.64386,-4.58393 0,-1.56347 -1.3249,-2.43767 -2.96763,-2.43767 M 308.78391,80.466403 c 0,1.139179 0.82137,2.411248 2.96763,2.411248 2.75629,0 5.64386,-2.25274 5.64386,-4.584734 0,-1.563469 -1.3249,-2.437667 -2.96763,-2.437667 -2.56975,0 -5.64386,2.172685 -5.64386,4.611153 M 254.02167,237.17115 c -0.8742,0 -1.05992,-0.71489 -1.05992,-0.95345 0,-1.29849 4.45184,-3.57765 5.69749,-3.57765 0.63564,0 1.05993,0.37146 1.05993,0.95426 0,1.3249 -4.47827,3.57684 -5.6975,3.57684 m 3.6569,-5.77595 c -2.57056,0 -5.64386,2.14627 -5.64386,4.61035 0,1.13918 0.82136,2.41125 2.96763,2.41125 2.75549,0 5.64386,-2.25194 5.64386,-4.58393 0,-1.56347 -1.32491,-2.43767 -2.96763,-2.43767 M 326.7498,84.941463 c -0.875,0 -1.05993,-0.71569 -1.05993,-0.954253 0,-1.298488 4.45105,-3.576846 5.6967,-3.576846 0.63563,0 1.05992,0.370654 1.05992,0.953452 0,1.324906 -4.47826,3.577647 -5.69669,3.577647 m 3.6561,-5.77675 c -2.56976,0 -5.64386,2.146267 -5.64386,4.610352 0,1.139979 0.82136,2.412049 2.96763,2.412049 2.75628,0 5.64466,-2.25274 5.64466,-4.584735 0,-1.563469 -1.32491,-2.437666 -2.96843,-2.437666 M 230.28064,240.48061 c -0.8742,0 -1.05993,-0.71569 -1.05993,-0.95345 0,-1.29849 4.45185,-3.57764 5.6975,-3.57764 0.63563,0 1.05992,0.37065 1.05992,0.95425 0,1.3249 -4.47826,3.57684 -5.69749,3.57684 m 3.6569,-5.77675 c -2.57056,0 -5.64386,2.14627 -5.64386,4.61116 0,1.13918 0.82136,2.41125 2.96763,2.41125 2.75548,0 5.64386,-2.25274 5.64386,-4.58394 0,-1.56347 -1.32491,-2.43847 -2.96763,-2.43847 M 492.71448,27.516598 c 0,1.139179 0.82216,2.411249 2.96843,2.411249 2.75548,0 5.64385,-2.25274 5.64385,-4.583934 0,-1.563469 -1.3249,-2.438067 -2.96762,-2.438067 -2.57056,0 -5.64466,2.173086 -5.64466,4.610752 m -320.31022,8.208813 c -0.7421,0 -1.24485,-0.212145 -1.58988,-0.874998 -0.34424,-0.662053 -0.82136,-2.358413 -0.84778,-3.073301 -0.0528,-0.71569 0.21214,-1.13998 0.84778,-1.351324 0.31782,-0.106473 0.74211,-0.159309 1.13998,-0.159309 0.7413,0 1.21843,0.159309 1.58988,0.874197 0.37066,0.71569 0.84778,2.411249 0.84778,3.074102 0,1.298488 -0.90141,1.510633 -1.98776,1.510633 m -0.21214,-6.306712 c -3.6561,0 -4.95459,1.854868 -4.95459,3.576846 0,1.722778 1.29849,3.577646 4.95459,3.577646 3.6569,0 4.92897,-1.854868 4.92897,-3.577646 0,-1.721978 -1.27207,-3.576846 -4.92897,-3.576846 M 360.18146,81.632 c -0.8742,0 -1.05993,-0.71569 -1.05993,-0.954253 0,-1.298488 4.45185,-3.576845 5.6975,-3.576845 0.63563,0 1.05992,0.370653 1.05992,0.953451 0,1.324906 -4.47826,3.577647 -5.69749,3.577647 m 3.6569,-5.77675 c -2.57056,0 -5.64386,2.146267 -5.64386,4.611153 0,1.139179 0.82136,2.411248 2.96763,2.411248 2.75548,0 5.64386,-2.25274 5.64386,-4.584734 0,-1.563469 -1.32491,-2.437667 -2.96763,-2.437667 m -163.54302,160.1503 c 0,1.13918 0.82136,2.41125 2.96762,2.41125 2.75629,0 5.64386,-2.25194 5.64386,-4.58393 0,-1.56347 -1.3249,-2.43767 -2.96763,-2.43767 -2.56975,0 -5.64385,2.17269 -5.64385,4.61035 M 384.14904,84.941463 c -0.87419,0 -1.05992,-0.71569 -1.05992,-0.954253 0,-1.298488 4.45184,-3.576846 5.6967,-3.576846 0.63643,0 1.05992,0.370654 1.05992,0.953452 0,1.324906 -4.47746,3.577647 -5.6967,3.577647 m 3.65691,-5.77675 c -2.57056,0 -5.64466,2.146267 -5.64466,4.610352 0,1.139979 0.82216,2.412049 2.96843,2.412049 2.75548,0 5.64385,-2.25274 5.64385,-4.584735 0,-1.563469 -1.3249,-2.437666 -2.96762,-2.437666 M 184.46771,232.69609 c 0,1.13918 0.82136,2.41125 2.96763,2.41125 2.75629,0 5.64466,-2.25194 5.64466,-4.58393 0,-1.56347 -1.3249,-2.43767 -2.96763,-2.43767 -2.57055,0 -5.64466,2.17268 -5.64466,4.61035 M 408.11663,88.250925 c -0.875,0 -1.05992,-0.715689 -1.05992,-0.954252 0,-1.298488 4.45184,-3.576846 5.69669,-3.576846 0.63644,0 1.05993,0.370654 1.05993,0.953452 0,1.324906 -4.47826,3.577646 -5.6967,3.577646 m 3.6569,-5.776749 c -2.57055,0 -5.64466,2.146267 -5.64466,4.610352 0,1.139979 0.82137,2.411249 2.96763,2.411249 2.75629,0 5.64466,-2.25194 5.64466,-4.583935 0,-1.563469 -1.3249,-2.437666 -2.96763,-2.437666 M 168.64089,229.38663 c 0,1.13998 0.82136,2.41125 2.96763,2.41125 2.75548,0 5.64386,-2.25194 5.64386,-4.58394 0,-1.56347 -1.32491,-2.43766 -2.96763,-2.43766 -2.57056,0 -5.64386,2.17268 -5.64386,4.61035 M 478.03804,24.207136 c 0,1.139178 0.82136,2.411248 2.96763,2.411248 2.75548,0 5.64386,-2.25194 5.64386,-4.584094 0,-1.563389 -1.32491,-2.437827 -2.96763,-2.437827 -2.57056,0 -5.64386,2.172846 -5.64386,4.610673 m 52.30697,218.417344 c 0,1.13918 0.82136,2.41125 2.96843,2.41125 2.75548,0 5.64385,-2.25274 5.64385,-4.58474 0,-1.56266 -1.3249,-2.43766 -2.96762,-2.43766 -2.57056,0 -5.64466,2.17268 -5.64466,4.61115 m -389.81294,-8.76279 c -0.8742,0 -1.05992,-0.71489 -1.05992,-0.95345 0,-1.29849 4.45184,-3.57765 5.69669,-3.57765 0.63644,0 1.05993,0.37145 1.05993,0.95425 0,1.32491 -4.47746,3.57685 -5.6967,3.57685 m 3.6569,-5.77595 c -2.57055,0 -5.64466,2.14627 -5.64466,4.61035 0,1.13918 0.82217,2.41125 2.96843,2.41125 2.75549,0 5.64386,-2.25194 5.64386,-4.58393 0,-1.56347 -1.3249,-2.43767 -2.96763,-2.43767 M 441.54829,91.560388 c -0.8742,0 -1.05992,-0.715689 -1.05992,-0.954252 0,-1.298488 4.45184,-3.577646 5.69749,-3.577646 0.63564,0 1.05993,0.371453 1.05993,0.954252 0,1.324906 -4.47826,3.577646 -5.6975,3.577646 m 3.6569,-5.77675 c -2.57056,0 -5.64386,2.146268 -5.64386,4.610353 0,1.139179 0.82136,2.411248 2.96763,2.411248 2.75549,0 5.64386,-2.251939 5.64386,-4.583934 0,-1.563469 -1.3249,-2.437667 -2.96763,-2.437667 M 202.88351,35.301121 c -0.8742,0 -1.05993,-0.715689 -1.05993,-0.954252 0,-1.298488 4.45184,-3.576846 5.6975,-3.576846 0.63563,0 1.05992,0.370653 1.05992,0.953452 0,1.324906 -4.47826,3.577646 -5.69749,3.577646 m 3.6569,-5.77675 c -2.57056,0 -5.64386,2.146268 -5.64386,4.611153 0,1.139179 0.82136,2.411249 2.96763,2.411249 2.75548,0 5.64385,-2.252741 5.64385,-4.584735 0,-1.563469 -1.3249,-2.437667 -2.96762,-2.437667 m 256.98851,64.179082 c 0,1.139179 0.82136,2.411249 2.96763,2.411249 2.75548,0 5.64386,-2.25194 5.64386,-4.583934 0,-1.563469 -1.32491,-2.437667 -2.96763,-2.437667 -2.57056,0 -5.64386,2.172686 -5.64386,4.610352 M 110.54677,242.62448 c 0,1.13918 0.82136,2.41125 2.96763,2.41125 2.75548,0 5.64386,-2.25274 5.64386,-4.58474 0,-1.56266 -1.32491,-2.43766 -2.96763,-2.43766 -2.57056,0 -5.64386,2.17268 -5.64386,4.61115 M 479.50705,97.012916 c 0,1.139179 0.82136,2.411249 2.96762,2.411249 2.75549,0 5.64386,-2.25274 5.64386,-4.583934 0,-1.563469 -1.3249,-2.438468 -2.96763,-2.438468 -2.57055,0 -5.64385,2.173487 -5.64385,4.611153 M 94.719148,236.00555 c 0,1.13918 0.821362,2.41125 2.967629,2.41125 2.756283,0 5.644663,-2.25194 5.644663,-4.58393 0,-1.56347 -1.32491,-2.43767 -2.96843,-2.43767 -2.56976,0 -5.643862,2.17269 -5.643862,4.61035 M 495.48517,100.32238 c 0,1.13918 0.82136,2.41125 2.96763,2.41125 2.75628,0 5.64386,-2.25274 5.64386,-4.583936 0,-1.563469 -1.32491,-2.438468 -2.96763,-2.438468 -2.56976,0 -5.64386,2.173486 -5.64386,4.611154 M 78.891529,239.31502 c 0,1.13918 0.821362,2.41125 2.968427,2.41125 2.755484,0 5.643859,-2.25274 5.643859,-4.58394 0,-1.56347 -1.324906,-2.43847 -2.96763,-2.43847 -2.570557,0 -5.644656,2.17349 -5.644656,4.61116 M 511.4633,103.63184 c 0,1.13918 0.82136,2.41125 2.96762,2.41125 2.75629,0 5.64466,-2.25274 5.64466,-4.58473 0,-1.562673 -1.3249,-2.437671 -2.96843,-2.437671 -2.56975,0 -5.64385,2.172691 -5.64385,4.611151 M 97.144006,108.1069 c -0.874198,0 -1.059925,-0.71569 -1.059925,-0.95425 0,-1.29849 4.451849,-3.57684 5.697499,-3.57684 0.63563,0 1.05992,0.37065 1.05992,0.95345 0,1.3249 -4.47826,3.57764 -5.697494,3.57764 m 3.656904,-5.77675 c -2.569761,0 -5.643863,2.14627 -5.643863,4.61036 0,1.13998 0.821362,2.41205 2.967629,2.41205 2.756284,0 5.643864,-2.25274 5.643864,-4.58474 0,-1.56347 -1.32491,-2.43767 -2.96763,-2.43767 m -50.0174,141.45993 c -0.874998,0 -1.059924,-0.71569 -1.059924,-0.95426 0,-1.29768 4.451844,-3.57684 5.696695,-3.57684 0.636435,0 1.059924,0.37065 1.059924,0.95425 0,1.32491 -4.478262,3.57685 -5.696695,3.57685 m 3.656901,-5.77675 c -2.570558,0 -5.64466,2.14626 -5.64466,4.61115 0,1.13918 0.821362,2.41125 2.967629,2.41125 2.756285,0 5.64466,-2.25274 5.64466,-4.58474 0,-1.56266 -1.324906,-2.43766 -2.967629,-2.43766 M 458.00915,22.06375 c -0.8742,0 -1.05993,-0.715449 -1.05993,-0.953932 0,-1.298408 4.45185,-3.577246 5.6975,-3.577246 0.63563,0 1.05992,0.370974 1.05992,0.953932 0,1.324906 -4.47826,3.577246 -5.69749,3.577246 m 3.6569,-5.77659 c -2.57056,0 -5.64386,2.146348 -5.64386,4.610673 0,1.139419 0.82136,2.411329 2.96763,2.411329 2.75548,0 5.64386,-2.25234 5.64386,-4.584175 0,-1.563389 -1.32491,-2.437827 -2.96763,-2.437827 M 63.677927,35.301121 c -0.874998,0 -1.059925,-0.715689 -1.059925,-0.954252 0,-1.298488 4.451844,-3.576846 5.696695,-3.576846 0.636435,0 1.059925,0.370653 1.059925,0.953452 0,1.324906 -4.478262,3.577646 -5.696695,3.577646 m 3.6569,-5.77675 c -2.570557,0 -5.644659,2.146268 -5.644659,4.611153 0,1.139179 0.821361,2.411249 2.967629,2.411249 2.756284,0 5.644659,-2.252741 5.644659,-4.584735 0,-1.563469 -1.324906,-2.437667 -2.967629,-2.437667 m 11.844099,70.798009 c 0,1.13918 0.821361,2.41125 2.967625,2.41125 2.755485,0 5.643859,-2.25274 5.643859,-4.583936 0,-1.563469 -1.324905,-2.438468 -2.967629,-2.438468 -2.570557,0 -5.643855,2.173486 -5.643855,4.611154 M 234.36423,22.06375 c -0.8742,0 -1.05992,-0.715449 -1.05992,-0.953932 0,-1.298408 4.45184,-3.577246 5.69749,-3.577246 0.63564,0 1.05993,0.370974 1.05993,0.953932 0,1.324906 -4.47827,3.577246 -5.6975,3.577246 m 3.6569,-5.77659 c -2.57056,0 -5.64386,2.146348 -5.64386,4.610673 0,1.139419 0.82136,2.411329 2.96763,2.411329 2.75548,0 5.64386,-2.25234 5.64386,-4.584175 0,-1.563389 -1.32491,-2.437827 -2.96763,-2.437827 m 303.42747,85.20082 c -0.8742,0 -1.05993,-0.71569 -1.05993,-0.95345 0,-1.298494 4.45185,-3.577652 5.6975,-3.577652 0.63563,0 1.05992,0.370653 1.05992,0.954252 0,1.324906 -4.47826,3.57685 -5.69749,3.57685 m 3.6569,-5.776754 c -2.56976,0 -5.64386,2.146268 -5.64386,4.611154 0,1.13918 0.82136,2.41125 2.96763,2.41125 2.75628,0 5.64386,-2.25274 5.64386,-4.583936 0,-1.563469 -1.32491,-2.438468 -2.96763,-2.438468 m 15.22561,158.007244 c -0.875,0 -1.05993,-0.71569 -1.05993,-0.95426 0,-1.29848 4.45105,-3.57684 5.6967,-3.57684 0.63643,0 1.05992,0.37065 1.05992,0.95345 0,1.32491 -4.47826,3.57765 -5.69669,3.57765 m 3.6561,-5.77675 c -2.56976,0 -5.64386,2.14626 -5.64386,4.61035 0,1.13998 0.82136,2.41125 2.96763,2.41125 2.75628,0 5.64466,-2.25194 5.64466,-4.58394 0,-1.56347 -1.32491,-2.43766 -2.96843,-2.43766 m 5.8568,-144.30988 c 0,1.13918 0.82217,2.41125 2.96843,2.41125 2.75549,0 5.64386,-2.25274 5.64386,-4.58473 0,-1.562673 -1.3249,-2.437671 -2.96763,-2.437671 -2.57055,0 -5.64466,2.172691 -5.64466,4.611151 m -519.0605,1.1656 c -0.874998,0 -1.059924,-0.71569 -1.059924,-0.95425 0,-1.29769 4.451844,-3.57685 5.696695,-3.57685 0.636435,0 1.059924,0.37066 1.059924,0.95426 0,1.3249 -4.478262,3.57684 -5.696695,3.57684 m 3.656901,-5.776751 c -2.570558,0 -5.64466,2.146271 -5.64466,4.611151 0,1.13918 0.821362,2.41125 2.967629,2.41125 2.756285,0 5.64466,-2.25274 5.64466,-4.58473 0,-1.562673 -1.324906,-2.437671 -2.967629,-2.437671 M 657.45992,174.29376 c -0.875,0 -1.05992,-0.71569 -1.05992,-0.95425 0,-1.29769 4.45104,-3.57685 5.69669,-3.57685 0.63564,0 1.05993,0.37065 1.05993,0.95425 0,1.32491 -4.47827,3.57685 -5.6967,3.57685 m 3.6561,-5.77675 c -2.56976,0 -5.64386,2.14627 -5.64386,4.61115 0,1.13918 0.82136,2.41125 2.96763,2.41125 2.75629,0 5.64466,-2.25274 5.64466,-4.58473 0,-1.56267 -1.32491,-2.43767 -2.96843,-2.43767 M 587.8099,101.48798 c -0.8742,0 -1.05993,-0.71569 -1.05993,-0.95345 0,-1.298494 4.45185,-3.577652 5.6975,-3.577652 0.63563,0 1.05992,0.370653 1.05992,0.954252 0,1.324906 -4.47826,3.57685 -5.69749,3.57685 m 3.6569,-5.776754 c -2.57056,0 -5.64386,2.146268 -5.64386,4.611154 0,1.13918 0.82136,2.41125 2.96763,2.41125 2.75548,0 5.64386,-2.25274 5.64386,-4.583936 0,-1.563469 -1.32491,-2.438468 -2.96763,-2.438468 m 32.0323,82.315484 c -0.74211,0 -1.24565,-0.21134 -1.58989,-0.8742 -0.34423,-0.66205 -0.82136,-2.35841 -0.84778,-3.0733 -0.0528,-0.71569 0.21215,-1.13998 0.84778,-1.35212 0.31782,-0.10567 0.74211,-0.15851 1.13918,-0.15851 0.74211,0 1.21924,0.15851 1.58989,0.8742 0.37145,0.71569 0.84778,2.41125 0.84778,3.0741 0,1.29849 -0.90062,1.50983 -1.98696,1.50983 m -0.21215,-6.30591 c -3.6569,0 -4.95538,1.85487 -4.95538,3.57685 0,1.72277 1.29848,3.57764 4.95538,3.57764 3.65691,0 4.92898,-1.85487 4.92898,-3.57764 0,-1.72198 -1.27207,-3.57685 -4.92898,-3.57685 M 426.52842,18.754367 c -0.8742,0 -1.05992,-0.715449 -1.05992,-0.953932 0,-1.298408 4.45184,-3.577246 5.69749,-3.577246 0.63564,0 1.05993,0.370974 1.05993,0.953932 0,1.324906 -4.47826,3.577246 -5.6975,3.577246 m 3.6569,-5.776589 c -2.56975,0 -5.64386,2.146347 -5.64386,4.610672 0,1.139419 0.82136,2.411329 2.96763,2.411329 2.75629,0 5.64386,-2.25234 5.64386,-4.584175 0,-1.563389 -1.3249,-2.437826 -2.96763,-2.437826 M 260.28595,17.58845 c 0,1.139419 0.82137,2.411329 2.96763,2.411329 2.75549,0 5.64386,-2.25234 5.64386,-4.584175 0,-1.563389 -1.3249,-2.437826 -2.96763,-2.437826 -2.57055,0 -5.64386,2.172845 -5.64386,4.610672 m 326.23186,163.32423 c -0.87419,0 -1.05992,-0.71568 -1.05992,-0.95425 0,-1.29849 4.45184,-3.57684 5.69749,-3.57684 0.63564,0 1.05993,0.37065 1.05993,0.95345 0,1.3249 -4.47826,3.57764 -5.6975,3.57764 m 3.6569,-5.77675 c -2.57055,0 -5.64385,2.14627 -5.64385,4.61036 0,1.13998 0.82136,2.41125 2.96762,2.41125 2.75549,0 5.64386,-2.25194 5.64386,-4.58394 0,-1.56347 -1.3249,-2.43767 -2.96763,-2.43767 m 34.24742,-76.533127 c -0.74211,0 -1.24565,-0.212145 -1.58989,-0.874197 -0.34503,-0.662854 -0.82136,-2.358413 -0.84778,-3.074102 -0.0536,-0.71569 0.21135,-1.139179 0.84778,-1.351324 0.31782,-0.106473 0.74211,-0.159309 1.13918,-0.159309 0.74211,0 1.21924,0.159309 1.58989,0.874998 0.37065,0.714889 0.84778,2.411249 0.84778,3.073302 0,1.298487 -0.90062,1.510632 -1.98696,1.510632 m -0.21214,-6.306712 c -3.6569,0 -4.95539,1.854868 -4.95539,3.577646 0,1.721978 1.29849,3.576846 4.95539,3.576846 3.6569,0 4.92897,-1.854868 4.92897,-3.576846 0,-1.722778 -1.27207,-3.577646 -4.92897,-3.577646 m -55.90383,90.759659 c 0,1.13998 0.82136,2.41125 2.96763,2.41125 2.75629,0 5.64466,-2.25194 5.64466,-4.58394 0,-1.56346 -1.32491,-2.43766 -2.96763,-2.43766 -2.57056,0 -5.64466,2.17268 -5.64466,4.61035 m 89.52281,-91.495362 c -0.875,0 -1.05992,-0.715689 -1.05992,-0.954252 0,-1.298488 4.45104,-3.577646 5.69669,-3.577646 0.63644,0 1.05993,0.371453 1.05993,0.954252 0,1.324906 -4.47826,3.577646 -5.6967,3.577646 m 3.6561,-5.77675 c -2.56975,0 -5.64386,2.146268 -5.64386,4.610353 0,1.139179 0.82137,2.411248 2.96763,2.411248 2.75629,0 5.64466,-2.251939 5.64466,-4.583934 0,-1.563469 -1.3249,-2.437667 -2.96843,-2.437667 M 404.51337,15.444984 c -0.875,0 -1.05993,-0.715449 -1.05993,-0.953932 0,-1.298408 4.45105,-3.577246 5.6967,-3.577246 0.63563,0 1.05992,0.370974 1.05992,0.953933 0,1.324905 -4.47826,3.577245 -5.69669,3.577245 m 3.6561,-5.7765888 c -2.56976,0 -5.64386,2.1463468 -5.64386,4.6106718 0,1.139419 0.82136,2.411329 2.96763,2.411329 2.75628,0 5.64466,-2.25234 5.64466,-4.584174 0,-1.563389 -1.32491,-2.4378268 -2.96843,-2.4378268 M 588.43913,249.2426 c 0,1.13998 0.82136,2.41125 2.96763,2.41125 2.75628,0 5.64466,-2.25194 5.64466,-4.58393 0,-1.56347 -1.32491,-2.43767 -2.96763,-2.43767 -2.57056,0 -5.64466,2.17269 -5.64466,4.61035 m -48.9959,-68.32992 c -0.875,0 -1.05993,-0.71568 -1.05993,-0.95425 0,-1.29849 4.45105,-3.57684 5.6967,-3.57684 0.63643,0 1.05992,0.37065 1.05992,0.95345 0,1.3249 -4.47826,3.57764 -5.69669,3.57764 m 3.6561,-5.77675 c -2.56976,0 -5.64386,2.14627 -5.64386,4.61036 0,1.13998 0.82136,2.41125 2.96763,2.41125 2.75628,0 5.64466,-2.25194 5.64466,-4.58394 0,-1.56347 -1.32491,-2.43767 -2.96843,-2.43767 m 63.15438,78.58254 c -0.8742,0 -1.05993,-0.71569 -1.05993,-0.95426 0,-1.29848 4.45185,-3.57684 5.6975,-3.57684 0.63563,0 1.05992,0.37065 1.05992,0.95345 0,1.32491 -4.47826,3.57765 -5.69749,3.57765 m 3.6569,-5.77675 c -2.56976,0 -5.64386,2.14626 -5.64386,4.61035 0,1.13998 0.82136,2.41125 2.96763,2.41125 2.75628,0 5.64386,-2.25194 5.64386,-4.58394 0,-1.56347 -1.32491,-2.43766 -2.96763,-2.43766 m 32.72878,-3.72735 c -0.74211,0 -1.24485,-0.21215 -1.58989,-0.875 -0.34424,-0.66205 -0.82136,-2.35841 -0.84778,-3.0733 -0.0528,-0.71569 0.21215,-1.13998 0.84778,-1.35133 0.31782,-0.10647 0.74211,-0.15931 1.13998,-0.15931 0.74131,0 1.21843,0.15931 1.58989,0.8742 0.37065,0.71569 0.84778,2.41125 0.84778,3.0741 0,1.29849 -0.90142,1.51064 -1.98776,1.51064 m -0.21215,-6.30672 c -3.6561,0 -4.95459,1.85487 -4.95459,3.57685 0,1.72278 1.29849,3.57765 4.95459,3.57765 3.6569,0 4.92897,-1.85487 4.92897,-3.57765 0,-1.72198 -1.27207,-3.57685 -4.92897,-3.57685 M 276.95015,22.06375 c -0.8742,0 -1.05993,-0.715449 -1.05993,-0.953932 0,-1.298408 4.45185,-3.577246 5.6975,-3.577246 0.63563,0 1.05992,0.370974 1.05992,0.953932 0,1.324906 -4.47826,3.577246 -5.69749,3.577246 m 3.6569,-5.77659 c -2.57056,0 -5.64386,2.146348 -5.64386,4.610673 0,1.139419 0.82136,2.411329 2.96763,2.411329 2.75548,0 5.64386,-2.25234 5.64386,-4.584175 0,-1.563389 -1.32491,-2.437827 -2.96763,-2.437827 m 228.85007,166.76859 c 0,1.13998 0.82137,2.41125 2.96843,2.41125 2.75549,0 5.64386,-2.25194 5.64386,-4.58394 0,-1.56346 -1.3249,-2.43766 -2.96763,-2.43766 -2.57055,0 -5.64466,2.17268 -5.64466,4.61035 M 50.78351,161.05671 c -0.874998,0 -1.059924,-0.71569 -1.059924,-0.95425 0,-1.29849 4.451844,-3.57765 5.696695,-3.57765 0.636435,0 1.059924,0.37145 1.059924,0.95425 0,1.32491 -4.478262,3.57765 -5.696695,3.57765 m 3.656901,-5.77675 c -2.570558,0 -5.64466,2.14627 -5.64466,4.61035 0,1.13918 0.821362,2.41125 2.967629,2.41125 2.756285,0 5.64466,-2.25194 5.64466,-4.58393 0,-1.56347 -1.324906,-2.43767 -2.967629,-2.43767 M 659.78071,35.301121 c -0.875,0 -1.05993,-0.715689 -1.05993,-0.954252 0,-1.298488 4.45105,-3.576846 5.6967,-3.576846 0.63563,0 1.05992,0.370653 1.05992,0.953452 0,1.324906 -4.47826,3.577646 -5.69669,3.577646 m 3.6561,-5.77675 c -2.56976,0 -5.64386,2.146268 -5.64386,4.611153 0,1.139179 0.82136,2.411249 2.96763,2.411249 2.75628,0 5.64466,-2.252741 5.64466,-4.584735 0,-1.563469 -1.32491,-2.437667 -2.96843,-2.437667 M 493.23323,179.74629 c 0,1.13998 0.82136,2.41125 2.96763,2.41125 2.75548,0 5.64386,-2.25194 5.64386,-4.58394 0,-1.56347 -1.32491,-2.43767 -2.96763,-2.43767 -2.57056,0 -5.64386,2.17269 -5.64386,4.61036 M 79.646445,156.58085 c 0,1.13998 0.821359,2.41125 2.967626,2.41125 2.756285,0 5.64466,-2.25194 5.64466,-4.58394 0,-1.56347 -1.324906,-2.43766 -2.967629,-2.43766 -2.570558,0 -5.644657,2.17268 -5.644657,4.61035 m 397.362095,19.85597 c 0,1.13998 0.82136,2.41205 2.96763,2.41205 2.75628,0 5.64466,-2.25274 5.64466,-4.58473 0,-1.56347 -1.32491,-2.43767 -2.96763,-2.43767 -2.57056,0 -5.64466,2.17269 -5.64466,4.61035 M 99.399948,164.36537 c -0.874197,0 -1.059924,-0.71489 -1.059924,-0.95345 0,-1.29849 4.451846,-3.57765 5.697496,-3.57765 0.63563,0 1.05992,0.37146 1.05992,0.95425 0,1.32491 -4.47826,3.57685 -5.697492,3.57685 m 3.656902,-5.77595 c -2.57056,0 -5.64386,2.14627 -5.64386,4.61035 0,1.13918 0.821361,2.41125 2.96763,2.41125 2.75548,0 5.64386,-2.25194 5.64386,-4.58393 0,-1.56347 -1.32491,-2.43767 -2.96763,-2.43767 m 357.72779,14.53874 c 0,1.13918 0.82137,2.41125 2.96763,2.41125 2.75549,0 5.64386,-2.25274 5.64386,-4.58473 0,-1.56267 -1.3249,-2.43767 -2.96763,-2.43767 -2.57055,0 -5.64386,2.17268 -5.64386,4.61115 M 382.49752,12.135682 c -0.875,0 -1.05993,-0.715449 -1.05993,-0.953933 0,-1.2984068 4.45104,-3.5772451 5.6967,-3.5772451 0.63643,0 1.05992,0.3709736 1.05992,0.9539324 0,1.3249059 -4.47826,3.5772457 -5.69669,3.5772457 m 3.6561,-5.7765896 c -2.56976,0 -5.64386,2.1463477 -5.64386,4.6106726 0,1.139419 0.82136,2.411328 2.96763,2.411328 2.75628,0 5.64466,-2.25234 5.64466,-4.5841736 0,-1.5633892 -1.32491,-2.437827 -2.96843,-2.437827 M 438.43496,170.9843 c -0.87419,0 -1.05992,-0.71569 -1.05992,-0.95346 0,-1.29848 4.45184,-3.57764 5.69749,-3.57764 0.63564,0 1.05993,0.37065 1.05993,0.95425 0,1.32491 -4.47826,3.57685 -5.6975,3.57685 m 3.6569,-5.77675 c -2.57055,0 -5.64386,2.14626 -5.64386,4.61115 0,1.13918 0.82137,2.41125 2.96763,2.41125 2.75549,0 5.64386,-2.25274 5.64386,-4.58394 0,-1.56347 -1.3249,-2.43846 -2.96763,-2.43846 M 136.38123,161.4802 c -0.7421,0 -1.24565,-0.21215 -1.58988,-0.8742 -0.34424,-0.66285 -0.82136,-2.35841 -0.84778,-3.0741 -0.0528,-0.71489 0.21214,-1.13918 0.84778,-1.35133 0.31781,-0.10567 0.7421,-0.1585 1.13918,-0.1585 0.7421,0 1.21923,0.1585 1.58988,0.87419 0.37146,0.71569 0.84858,2.41125 0.84858,3.0733 0,1.29849 -0.90141,1.51064 -1.98776,1.51064 m -0.21214,-6.30671 c -3.6569,0 -4.95459,1.85486 -4.95459,3.57764 0,1.72198 1.29769,3.57685 4.95459,3.57685 3.6569,0 4.92897,-1.85487 4.92897,-3.57685 0,-1.72278 -1.27207,-3.57764 -4.92897,-3.57764 m 34.17296,5.88322 c -0.87499,0 -1.05992,-0.71569 -1.05992,-0.95425 0,-1.29849 4.45104,-3.57765 5.6967,-3.57765 0.63643,0 1.05992,0.37145 1.05992,0.95425 0,1.32491 -4.47826,3.57765 -5.6967,3.57765 m 3.6561,-5.77675 c -2.56975,0 -5.64385,2.14627 -5.64385,4.61035 0,1.13918 0.82136,2.41125 2.96762,2.41125 2.75629,0 5.64466,-2.25194 5.64466,-4.58393 0,-1.56347 -1.3249,-2.43767 -2.96843,-2.43767 M 351.01679,15.444984 c -0.8742,0 -1.05992,-0.715449 -1.05992,-0.953932 0,-1.298408 4.45184,-3.577246 5.69669,-3.577246 0.63644,0 1.05993,0.370974 1.05993,0.953933 0,1.324905 -4.47827,3.577245 -5.6967,3.577245 m 3.6569,-5.7765888 c -2.57056,0 -5.64466,2.1463468 -5.64466,4.6106718 0,1.139419 0.82136,2.411329 2.96843,2.411329 2.75549,0 5.64386,-2.25234 5.64386,-4.584174 0,-1.563389 -1.32491,-2.4378268 -2.96763,-2.4378268 M 404.63425,167.67483 c -0.875,0 -1.05992,-0.71489 -1.05992,-0.95345 0,-1.29849 4.45104,-3.57764 5.69669,-3.57764 0.63644,0 1.05993,0.37145 1.05993,0.95425 0,1.3249 -4.47827,3.57684 -5.6967,3.57684 m 3.6561,-5.77595 c -2.56976,0 -5.64386,2.14627 -5.64386,4.61036 0,1.13918 0.82136,2.41124 2.96763,2.41124 2.75629,0 5.64466,-2.25193 5.64466,-4.58393 0,-1.56347 -1.3249,-2.43767 -2.96843,-2.43767 M 204.14277,147.81886 c -0.8742,0 -1.05993,-0.71569 -1.05993,-0.95346 0,-1.29848 4.45185,-3.57764 5.6975,-3.57764 0.63563,0 1.05992,0.37065 1.05992,0.95425 0,1.32491 -4.47826,3.57685 -5.69749,3.57685 m 3.6569,-5.77675 c -2.57056,0 -5.64386,2.14626 -5.64386,4.61115 0,1.13918 0.82136,2.41125 2.96763,2.41125 2.75548,0 5.64386,-2.25274 5.64386,-4.58394 0,-1.56346 -1.32491,-2.43846 -2.96763,-2.43846 m 421.501,-112.935625 c -0.74131,0 -1.24485,-0.212145 -1.58989,-0.874197 -0.34424,-0.662853 -0.82136,-2.358413 -0.84778,-3.074102 -0.0528,-0.71569 0.21215,-1.139179 0.84778,-1.351324 0.31862,-0.106473 0.74211,-0.159309 1.13998,-0.159309 0.74131,0 1.21843,0.159309 1.58989,0.874998 0.37065,0.714889 0.84778,2.411249 0.84778,3.073302 0,1.298487 -0.90142,1.510632 -1.98776,1.510632 m -0.21135,-6.306632 c -3.6569,0 -4.95539,1.854789 -4.95539,3.577566 0,1.721978 1.29849,3.576846 4.95539,3.576846 3.6561,0 4.92817,-1.854868 4.92817,-3.576846 0,-1.722777 -1.27207,-3.577566 -4.92817,-3.577566 M 380.29761,164.36537 c -0.875,0 -1.05992,-0.71489 -1.05992,-0.95345 0,-1.29849 4.45184,-3.57765 5.69669,-3.57765 0.63644,0 1.05993,0.37146 1.05993,0.95425 0,1.32491 -4.47827,3.57685 -5.6967,3.57685 m 3.6569,-5.77595 c -2.57056,0 -5.64466,2.14627 -5.64466,4.61035 0,1.13918 0.82136,2.41125 2.96763,2.41125 2.75629,0 5.64466,-2.25194 5.64466,-4.58393 0,-1.56347 -1.3249,-2.43767 -2.96763,-2.43767 M 233.0065,143.3438 c 0,1.13918 0.82136,2.41125 2.96763,2.41125 2.75548,0 5.64386,-2.25194 5.64386,-4.58394 0,-1.56347 -1.32491,-2.43767 -2.96763,-2.43767 -2.57056,0 -5.64386,2.17269 -5.64386,4.61036 m 122.95447,17.71291 c -0.8742,0 -1.05992,-0.71569 -1.05992,-0.95425 0,-1.29849 4.45184,-3.57765 5.69669,-3.57765 0.63644,0 1.05993,0.37145 1.05993,0.95425 0,1.32491 -4.47746,3.57765 -5.6967,3.57765 m 3.6569,-5.77675 c -2.57056,0 -5.64466,2.14627 -5.64466,4.61035 0,1.13918 0.82216,2.41125 2.96843,2.41125 2.75549,0 5.64386,-2.25194 5.64386,-4.58393 0,-1.56347 -1.3249,-2.43767 -2.96763,-2.43767 m -51.187,-110.05045 c -0.87419,0 -1.05992,-0.71569 -1.05992,-0.954253 0,-1.298488 4.45184,-3.577646 5.69669,-3.577646 0.63644,0 1.05993,0.371454 1.05993,0.954252 0,1.324906 -4.47826,3.577647 -5.6967,3.577647 m 3.6569,-5.77675 c -2.57055,0 -5.64466,2.146267 -5.64466,4.610352 0,1.139179 0.82137,2.411249 2.96843,2.411249 2.75549,0 5.64386,-2.25194 5.64386,-4.583935 0,-1.563469 -1.3249,-2.437666 -2.96763,-2.437666 m -60.86962,108.3661 c -0.87419,0 -1.05992,-0.71569 -1.05992,-0.95346 0,-1.29848 4.45184,-3.57764 5.69669,-3.57764 0.63644,0 1.05993,0.37065 1.05993,0.95425 0,1.32491 -4.47746,3.57685 -5.6967,3.57685 m 3.6569,-5.77675 c -2.57055,0 -5.64466,2.14626 -5.64466,4.61115 0,1.13918 0.82217,2.41125 2.96843,2.41125 2.75549,0 5.64386,-2.25274 5.64386,-4.58394 0,-1.56346 -1.3249,-2.43846 -2.96763,-2.43846 M 594.64097,31.991658 c -0.875,0 -1.05993,-0.715689 -1.05993,-0.953452 0,-1.298488 4.45105,-3.577646 5.6967,-3.577646 0.63643,0 1.05992,0.370654 1.05992,0.954253 0,1.324905 -4.47826,3.576845 -5.69669,3.576845 m 3.6561,-5.77675 c -2.56976,0 -5.64386,2.146268 -5.64386,4.611153 0,1.139179 0.82136,2.411249 2.96763,2.411249 2.75628,0 5.64466,-2.25274 5.64466,-4.583934 0,-1.563469 -1.32491,-2.438468 -2.96843,-2.438468 M 334.3518,10.969765 c 0,1.139419 0.82216,2.411328 2.96843,2.411328 2.75548,0 5.64385,-2.25234 5.64385,-4.5841736 0,-1.5633892 -1.3249,-2.437827 -2.96762,-2.437827 -2.57056,0 -5.64466,2.1728458 -5.64466,4.6106726 M 322.15946,164.36537 c -0.8742,0 -1.05993,-0.71489 -1.05993,-0.95345 0,-1.29849 4.45185,-3.57765 5.6975,-3.57765 0.63564,0 1.05993,0.37146 1.05993,0.95425 0,1.32491 -4.47827,3.57685 -5.6975,3.57685 m 3.6569,-5.77595 c -2.57056,0 -5.64386,2.14627 -5.64386,4.61035 0,1.13918 0.82136,2.41125 2.96763,2.41125 2.75548,0 5.64386,-2.25194 5.64386,-4.58393 0,-1.56347 -1.32491,-2.43767 -2.96763,-2.43767 m 172.8742,77.41613 c 0,1.13918 0.82136,2.41125 2.96763,2.41125 2.75629,0 5.64386,-2.25194 5.64386,-4.58393 0,-1.56347 -1.32491,-2.43767 -2.96763,-2.43767 -2.56976,0 -5.64386,2.17269 -5.64386,4.61035 M 577.97597,34.135524 c 0,1.139179 0.82137,2.411249 2.96763,2.411249 2.75629,0 5.64466,-2.252741 5.64466,-4.584735 0,-1.563469 -1.3249,-2.437667 -2.96763,-2.437667 -2.57055,0 -5.64466,2.172686 -5.64466,4.611153 M 173.1179,79.352769 v 22.107151 h 0.66217 V 79.352769 Z M 600.59581,6.5475172 V 28.654192 h 0.66201 V 6.5475172 Z M 353.97359,159.88955 v 20.39864 h 0.66201 V 159.88955 Z M 249.23072,146.65253 v 22.05337 h 0.66217 V 146.65253 Z M 378.31023,163.199 v 18.74392 h 0.66201 V 163.199 Z M 665.73551,9.8568113 V 31.963647 h 0.66216 V 9.8568113 Z M 233.00603,143.34292 v 22.05352 h 0.66217 V 143.34292 Z M 585.91859,9.8568113 V 31.963647 h 0.66201 V 9.8568113 Z M 410.58917,143.8858 v 20.45148 h 0.66202 V 143.8858 Z m -208.43376,2.76673 v 22.05337 h 0.66201 V 146.65253 Z M 349.02942,14.278115 v 22.053359 h 0.66202 V 14.278115 Z M 69.632766,9.8568113 V 31.963647 h 0.662013 V 9.8568113 Z M 314.38574,19.784849 v 22.106362 h 0.66202 V 19.784849 Z M 168.35464,159.88955 v 20.39864 h 0.66217 v -20.39864 z m 276.03515,-14.34903 v 22.10637 h 0.66217 V 145.54052 Z M 380.51017,10.968822 v 22.053205 h 0.66202 V 10.968822 Z m 88.21626,137.880368 v 22.10715 h 0.66217 v -22.10715 z m 143.48294,79.42462 v 22.10636 h 0.66202 V 228.27381 Z M 484.95111,152.15864 v 22.10637 h 0.66217 V 152.15864 Z M 97.412542,163.199 v 18.74392 h 0.662172 V 163.199 Z m 403.762478,-7.73091 v 22.10637 h 0.66217 V 155.46809 Z M 79.646805,156.5801 v 22.05336 h 0.662162 V 156.5801 Z m 437.752905,2.19744 v 22.10636 h 0.66217 V 158.77754 Z M 56.738326,79.352769 v 22.107151 h 0.662173 V 79.352769 Z m -7.942151,80.536781 v 20.39864 h 0.662013 V 159.88955 Z M 274.96285,20.896859 v 20.398793 h 0.66201 V 20.896859 Z M 545.39807,155.46809 v 22.10637 h 0.66201 v -22.10637 z m 50.98376,69.49627 v 22.10637 h 0.66202 V 224.96436 Z M 402.52523,14.278115 v 22.053359 h 0.66201 V 14.278115 Z M 87.120817,76.044251 v 22.106211 h 0.662012 V 76.044251 Z M 566.28594,228.27381 v 22.10636 h 0.66202 v -22.10636 z m 9.96291,-69.49627 v 22.10636 h 0.66201 V 158.77754 Z M 103.09971,82.662376 v 22.106204 h 0.66201 V 82.662376 Z m 552.74184,7.73075 v 20.398794 h 0.66217 V 90.393126 Z m -63.36879,65.074964 v 22.10637 h 0.66201 V 155.46809 Z M 424.54105,17.587565 v 22.053363 h 0.66203 V 17.587565 Z m -164.25542,0 v 22.053363 h 0.66201 V 17.587565 Z M 663.41486,148.84919 v 22.10715 h 0.66201 V 148.84919 Z M 593.76473,76.044251 v 22.106211 h 0.66202 V 76.044251 Z M 101.1135,9.8568113 V 31.963647 h 0.66202 V 9.8568113 Z M 577.78662,79.352769 v 22.107151 h 0.66201 V 79.352769 Z M 538.28758,218.34546 v 22.10715 h 0.66217 V 218.34546 Z M 558.00997,6.5475172 V 28.654192 h 0.66202 V 6.5475172 Z M 547.40429,76.044251 v 22.106211 h 0.66201 V 76.044251 Z M 456.0218,20.896859 v 20.398793 h 0.66202 V 20.896859 Z M 56.738326,218.34546 v 22.10715 h 0.662173 v -22.10715 z m 30.095887,-3.30867 v 22.10637 h 0.662012 V 215.03679 Z M 519.40592,79.352769 v 22.107151 h 0.66202 V 79.352769 Z M 102.66175,213.38207 v 20.45164 h 0.66202 V 213.38207 Z M 503.42781,76.044251 v 22.106211 h 0.66201 V 76.044251 Z M 118.48867,218.34546 v 22.10715 h 0.66201 V 218.34546 Z M 487.44892,74.389376 v 20.451639 h 0.66201 V 74.389376 Z M 232.37686,20.896859 v 20.398793 h 0.66201 V 20.896859 Z M 463.5285,93.702581 v 18.744069 h 0.66201 V 93.702581 Z M 138.54473,232.69527 v 18.74407 h 0.66201 V 232.69527 Z M 439.56086,90.393126 v 20.398794 h 0.66217 V 90.393126 Z m 38.47677,-66.186815 v 18.744064 h 0.66202 V 24.206311 Z M 168.64046,229.38582 v 20.3988 h 0.66201 v -20.3988 z m 15.82769,3.30945 v 18.74407 h 0.66202 V 232.69527 Z M 406.12925,87.083679 v 22.053511 h 0.66201 V 87.083679 Z M 208.23801,213.38207 v 20.45164 h 0.66201 V 213.38207 Z M 382.16161,83.774224 v 22.053526 h 0.66217 V 83.774224 Z M 208.83919,9.8568113 V 31.963647 h 0.66202 V 9.8568113 Z M 358.19413,80.464778 V 102.5183 h 0.66201 V 80.464778 Z M 500.65716,4.8927922 V 25.344745 h 0.66202 V 4.8927922 Z M 236.23558,215.03679 v 22.10637 h 0.66202 v -22.10637 z m 23.74092,-1.65472 v 20.45164 h 0.66202 V 213.38207 Z M 324.76158,83.774224 v 22.053526 h 0.66218 V 83.774224 Z M 275.77527,232.69527 v 18.74407 h 0.66218 V 232.69527 Z M 308.78347,80.464778 V 102.5183 h 0.66217 V 80.464778 Z M 143.6995,13.166105 v 22.106212 h 0.66201 V 13.166105 Z M 345.22839,222.76692 v 22.05352 h 0.66217 v -22.05352 z m 177.23165,-7.73013 v 22.10637 h 0.66201 V 215.03679 Z M 286.34344,89.28127 v 22.10621 h 0.66202 V 89.28127 Z M 515.33438,6.5475172 V 28.654192 h 0.66202 V 6.5475172 Z m -386.31211,0 V 28.654192 h 0.66203 V 6.5475172 Z M 378.43438,219.45747 v 22.05352 h 0.66201 V 219.45747 Z M 244.96874,90.393126 v 20.398794 h 0.66202 V 90.393126 Z M 402.1753,222.76692 v 22.05352 h 0.66216 V 222.76692 Z M 228.99063,87.083679 v 22.053511 h 0.66202 V 87.083679 Z M 425.91637,226.07637 v 22.05351 h 0.66201 v -22.05351 z m 33.20599,3.30945 v 20.3988 h 0.66202 v -20.3988 z M 198.60736,90.393126 v 20.398794 h 0.66201 V 90.393126 Z M 530.01161,9.8568113 V 31.963647 h 0.66201 V 9.8568113 Z M 482.86328,232.69527 v 18.74407 h 0.66217 v -18.74407 z m 23.76984,-19.3132 v 20.45164 h 0.66217 V 213.38207 Z M 334.3522,10.968822 v 22.053205 h 0.66202 V 10.968822 Z M 320.17204,163.199 v 18.74392 h 0.66217 V 163.199 Z m 245.9502,18.21449 v 1.05901 h 12.97372 v -1.05901 z m -9.96275,69.49627 v 1.05916 h 12.97371 v -1.05916 z m -48.88624,-69.49627 v 1.05901 h 12.97372 v -1.05901 z m 94.80967,69.49627 v 1.05916 h 12.97356 v -1.05916 z M 304.25928,42.420797 v 1.059156 h 12.97356 v -1.059156 z m -73.43662,99.280693 v 1.05916 h 12.97356 v -1.05916 z m 45.39417,-29.78442 v 1.05916 h 12.97371 v -1.05916 z m -184.906413,52.7405 v -4.34617 l 3.074102,-0.8742 v 4.37179 l -3.074102,0.84858 m 3.656901,-7.41947 c -0.05284,-0.0536 -0.132891,-0.0801 -0.212145,-0.0801 -0.02642,0 -0.07926,0.0264 -0.105673,0.0264 l -3.339083,0.92783 v -4.63757 H 90.56831 v 13.11697 c 0,0.21215 0.159309,0.34424 0.371454,0.34424 h 0.105672 l 3.339083,-0.92704 v 4.63677 h 0.714889 v -13.11616 c 0,-0.10648 -0.05284,-0.23857 -0.13209,-0.2914 m 277.240762,7.41947 v -4.34617 l 3.0733,-0.8742 v 4.37179 l -3.0733,0.84858 m 3.6561,-7.41947 c -0.0528,-0.0536 -0.13209,-0.0801 -0.21134,-0.0801 -0.0272,0 -0.0801,0.0264 -0.10648,0.0264 l -3.33828,0.92783 v -4.63757 h -0.74211 v 13.11697 c 0,0.21215 0.15851,0.34424 0.37066,0.34424 h 0.10647 l 3.33828,-0.92704 v 4.63677 h 0.71569 v -13.11616 c 0,-0.10648 -0.0528,-0.23857 -0.13289,-0.2914 m -61.79425,7.41947 v -4.34617 l 3.0741,-0.8742 v 4.37179 l -3.0741,0.84858 m 3.6569,-7.41947 c -0.0528,-0.0536 -0.13289,-0.0801 -0.21215,-0.0801 -0.0264,0 -0.0793,0.0264 -0.10567,0.0264 l -3.33908,0.92783 v -4.63757 h -0.74211 v 13.11697 c 0,0.21215 0.15931,0.34424 0.37146,0.34424 h 0.10567 l 3.33908,-0.92704 v 4.63677 h 0.71489 v -13.11616 c 0,-0.10648 -0.0528,-0.23857 -0.13209,-0.2914 m 179.74566,27.1998 a 0.16531304,0.16531304 0 0 0 -0.007,0.0161 0.16531304,0.16531304 0 0 0 -0.0171,-0.004 0.16531304,0.16531304 0 0 0 -0.0244,0.1046 0.16531304,0.16531304 0 0 0 -0.0408,0.0995 c 1.4387,3.44719 4.22284,5.60084 7.31782,6.23207 3.09498,0.63123 6.50026,-0.26013 9.17393,-2.86806 a 0.16532957,0.16532957 0 0 0 -0.2103,-0.2536 c -2.41984,1.69757 -5.63561,2.14568 -8.63966,1.53292 -3.00405,-0.61277 -5.78732,-2.28455 -7.34893,-4.79438 a 0.16531304,0.16531304 0 0 0 -0.10461,-0.0244 0.16531304,0.16531304 0 0 0 -0.0994,-0.0408 z m 1.07433,1.71195 c 1.65916,1.77534 3.96178,2.97166 6.41266,3.4716 2.45096,0.49995 5.03813,0.30104 7.26012,-0.68266 -2.31969,1.61426 -4.98477,2.12665 -7.45197,1.62345 -2.46718,-0.50319 -4.71864,-2.01837 -6.22081,-4.41239 z m -1.01065,-1.55945 c 3.18138,5.1131 11.29413,6.76783 16.2239,3.30946 -5.27401,5.14432 -13.38596,3.49039 -16.2239,-3.30946 m -56.67614,-7.86793 a 0.16531304,0.16531304 0 0 0 -0.10883,0.007 0.16531304,0.16531304 0 0 0 -0.10976,-0.007 0.16531304,0.16531304 0 0 0 -0.007,0.0144 0.16531304,0.16531304 0 0 0 -0.008,8e-4 0.16531304,0.16531304 0 0 0 -0.0174,0.0508 0.16531304,0.16531304 0 0 0 -0.0199,0.0585 0.16531304,0.16531304 0 0 0 0.02,0.0583 0.16531304,0.16531304 0 0 0 0.0175,0.051 c 4.60226,5.20583 11.99168,8.35259 19.62999,9.18769 7.6383,0.83509 15.53308,-0.64068 21.15165,-4.72933 a 0.16532957,0.16532957 0 0 0 -0.17684,-0.27847 c -5.41353,2.97867 -13.18666,3.92875 -20.76623,3.10008 -7.57958,-0.82866 -14.96373,-3.43591 -19.60559,-7.51373 z m 1.83422,1.83735 c 4.67786,3.22661 11.13239,5.28314 17.73541,6.00504 6.60326,0.72193 13.34998,0.10855 18.61476,-2.03139 -5.30572,2.96897 -12.12335,4.00643 -18.75142,3.28178 -6.62782,-0.72462 -13.06002,-3.2106 -17.59875,-7.25543 z m -1.9433,-1.71312 c 9.3616,8.22403 29.64266,10.44154 40.56053,4.43424 -11.14842,8.11274 -31.42869,5.89523 -40.56053,-4.43424 m -70.90839,-29.16783 c -4.32589,0.0184 -8.64323,1.67578 -11.68877,5.03062 a 0.16531304,0.16531304 0 0 0 0.005,0.10757 0.16531304,0.16531304 0 0 0 -0.012,0.10664 0.16531304,0.16531304 0 0 0 0.0177,0.01 0.16531304,0.16531304 0 0 0 8e-4,0.01 0.16531304,0.16531304 0 0 0 0.0155,-8e-4 0.16531304,0.16531304 0 0 0 0.19872,0.008 c 3.12266,-2.48848 7.71144,-3.606 12.24244,-3.39654 4.53098,0.20946 8.99715,1.74553 11.87655,4.51199 a 0.16532957,0.16532957 0 0 0 0.24674,-0.21859 c -3.08602,-4.10451 -7.99974,-6.18883 -12.90242,-6.16796 z m 0.002,0.33585 c 4.17943,-0.0173 8.36487,1.52667 11.36981,4.56984 -2.87948,-2.05057 -6.70565,-3.18239 -10.57724,-3.36136 -3.87179,-0.17899 -7.78638,0.59496 -10.84303,2.371 2.8304,-2.38082 6.436,-3.56452 10.05046,-3.57948 z m -11.56825,4.80596 c 6.4244,-7.07684 18.59272,-6.51406 24.33664,1.12557 -5.83759,-5.60864 -18.00591,-6.17062 -24.33664,-1.12557 m 14.40976,-83.546994 c -3.72308,0.05685 -7.42681,1.353221 -10.30126,4.000703 a 0.16531304,0.16531304 0 0 0 -8e-4,0.01548 0.16531304,0.16531304 0 0 0 -0.0253,0.197167 0.16531304,0.16531304 0 0 0 0.0169,0.01141 0.16531304,0.16531304 0 0 0 -8.1e-4,0.0095 0.16531304,0.16531304 0 0 0 0.0155,8e-4 0.16531304,0.16531304 0 0 0 0.19717,0.02533 c 3.31389,-2.188208 7.9533,-2.883596 12.4152,-2.267487 4.4619,0.61611 8.73932,2.542731 11.3362,5.547073 a 0.16532957,0.16532957 0 0 0 0.2658,-0.194821 c -2.99496,-4.863557 -8.47762,-7.428103 -13.91905,-7.345022 z m 0.007,0.335077 c 4.70777,-0.07037 9.44597,1.88175 12.5062,5.613366 -2.6617,-2.291095 -6.34064,-3.757161 -10.15054,-4.283241 -3.80915,-0.525975 -7.74682,-0.112108 -10.9295,1.37125 2.54192,-1.773893 5.54998,-2.656184 8.57384,-2.701375 z m -10.19584,3.787205 c 6.99598,-6.443605 18.98018,-4.789675 23.96759,3.309463 -5.2652,-6.091365 -17.2486,-7.746096 -23.96759,-3.309463 M 493.8703,220.52881 c -2.35389,0.0233 -4.76874,0.9219 -6.81529,2.79159 a 0.16531304,0.16531304 0 0 0 -8e-4,0.0153 0.16531304,0.16531304 0 0 0 -0.0263,0.19716 0.16531304,0.16531304 0 0 0 0.017,0.004 0.16531304,0.16531304 0 0 0 -8e-4,0.0173 0.16531304,0.16531304 0 0 0 0.19733,0.0238 0.16531304,0.16531304 0 0 0 0.0152,0.003 c 4.88653,-3.19404 12.71294,-1.29646 15.59348,3.7818 a 0.16532957,0.16532957 0 0 0 0.29879,-0.139 c -1.2838,-3.46581 -3.94052,-5.69722 -6.96117,-6.42986 -0.75516,-0.18317 -1.53304,-0.27264 -2.31768,-0.26487 z m 0.003,0.32975 c 0.75733,-0.007 1.50787,0.0797 2.23653,0.25642 2.39917,0.58192 4.54919,2.15367 5.93546,4.56594 -3.12569,-3.61514 -8.86882,-5.00774 -13.30316,-3.22627 1.62744,-1.05103 3.39479,-1.57977 5.13117,-1.59609 z m -6.70711,2.58382 c 5.38208,-4.91696 13.29549,-2.99725 15.82762,3.83863 -2.9348,-5.17394 -10.84901,-7.09285 -15.82762,-3.83863 M 392.84,208.29187 c -3.68941,0.0542 -7.36202,1.34216 -10.21526,3.976 a 0.16531304,0.16531304 0 0 0 -8e-4,0.0156 0.16531304,0.16531304 0 0 0 -0.025,0.19717 0.16531304,0.16531304 0 0 0 0.0166,0.0112 0.16531304,0.16531304 0 0 0 0,0.01 0.16531304,0.16531304 0 0 0 0.0155,8e-4 0.16531304,0.16531304 0 0 0 0.19732,0.0252 c 3.28709,-2.17534 7.88472,-2.86442 12.30404,-2.24857 4.41933,0.61585 8.65337,2.53568 11.22033,5.52706 a 0.16532957,0.16532957 0 0 0 0.26644,-0.19388 c -2.95861,-4.84271 -8.38674,-7.39919 -13.77896,-7.32 z m 0.006,0.33476 c 4.65972,-0.067 9.34564,1.87534 12.3708,5.58444 -2.63232,-2.27665 -6.27016,-3.73456 -10.03921,-4.25979 -3.769,-0.52522 -7.66697,-0.11737 -10.82146,1.35265 2.51979,-1.75991 5.49773,-2.63427 8.48987,-2.6773 z m -10.10937,3.76278 c 6.94395,-6.40999 18.81446,-4.75525 23.74103,3.30866 -5.20516,-6.06575 -17.07567,-7.71968 -23.74103,-3.30866 M 511.61653,37.708351 a 0.16531304,0.16531304 0 0 0 -0.005,0.01689 0.16531304,0.16531304 0 0 0 -0.0174,-0.0023 0.16531304,0.16531304 0 0 0 -0.0142,0.106481 0.16531304,0.16531304 0 0 0 -0.0309,0.102878 c 1.63832,3.055729 4.33245,4.740393 7.14175,4.955733 2.80931,0.215339 5.72865,-1.039167 7.81331,-3.809789 a 0.16532957,0.16532957 0 0 0 -0.24657,-0.218742 c -3.90445,3.742807 -11.1431,3.187724 -14.43158,-1.105916 a 0.16531304,0.16531304 0 0 0 -0.10617,-0.01407 0.16531304,0.16531304 0 0 0 -0.1032,-0.03112 z m 1.2299,1.57968 c 3.28543,2.798834 8.49505,3.198355 12.16864,0.93267 -1.85675,1.731552 -4.11066,2.505441 -6.29915,2.337686 -2.18853,-0.167755 -4.29814,-1.276096 -5.86949,-3.270356 z m -1.15178,-1.433964 c 3.3551,4.380595 10.69372,4.94338 14.67724,1.124769 -4.10921,5.461334 -11.44783,4.898549 -14.67724,-1.124769 M 488.66913,12.197005 c -2.20173,0.002 -4.48184,0.848576 -6.44035,2.633988 a 0.16531304,0.16531304 0 0 0 -8e-4,0.01564 0.16531304,0.16531304 0 0 0 -0.0263,0.196854 0.16531304,0.16531304 0 0 0 0.0167,0.01141 0.16531304,0.16531304 0 0 0 -8e-4,0.0097 0.16531304,0.16531304 0 0 0 0.0156,8e-4 0.16531304,0.16531304 0 0 0 0.19685,0.02627 c 4.63454,-3.021794 11.87894,-1.126908 14.44034,3.776957 a 0.16532957,0.16532957 0 0 0 0.30349,-0.128525 c -1.11097,-3.354162 -3.53776,-5.532994 -6.34449,-6.267098 -0.70169,-0.183526 -1.42679,-0.276651 -2.16069,-0.27597 z m 0,0.3296 c 0.70585,-2.4e-4 1.40273,0.08991 2.07704,0.266276 2.19964,0.575318 4.14743,2.083691 5.38134,4.38284 -2.82731,-3.43634 -8.07192,-4.808145 -12.21977,-3.196247 1.52685,-0.971141 3.16471,-1.452326 4.76139,-1.452869 z m -6.32895,2.426603 c 5.14832,-4.693289 12.48694,-2.773896 14.67724,3.838865 -2.61219,-5.001099 -9.95081,-6.920572 -14.67724,-3.838865 M 394.2627,6.9762682e-4 C 390.82904,0.03363055 387.39268,1.2557862 384.6996,3.7793749 a 0.16531304,0.16531304 0 0 0 -0.0209,0.046438 0.16531304,0.16531304 0 0 0 -0.0253,0.056132 0.16531304,0.16531304 0 0 0 0.012,0.060197 0.16531304,0.16531304 0 0 0 0.0102,0.050034 0.16531304,0.16531304 0 0 0 0.009,0.00187 0.16531304,0.16531304 0 0 0 0.007,0.018919 0.16531304,0.16531304 0 0 0 0.10727,0.00359 0.16531304,0.16531304 0 0 0 0.10554,0.020639 c 3.08499,-2.0747274 7.3641,-2.7131896 11.45877,-2.0976839 4.09467,0.6155056 7.99734,2.4837646 10.33644,5.3738303 a 0.16532957,0.16532957 0 0 0 0.27191,-0.1860648 c -2.67821,-4.6825441 -7.6909,-7.17472488 -12.70932,-7.12659117647 z m 0.005,0.33100713318 c 4.29747,-0.040711 8.58748,1.82798424 11.34354,5.36710734 -2.40894,-2.1669937 -5.73746,-3.5659991 -9.19832,-4.0862316 -3.46071,-0.5202101 -7.05323,-0.1616329 -9.99246,1.2012902 2.35035,-1.6454362 5.09838,-2.45612494 7.84724,-2.48216594 z m -9.455,3.56826614 c 6.55088,-6.1385972 17.5584,-4.48394584 22.01585,3.3093828 -4.74724,-5.8654505 -15.75477,-7.52010182 -22.01585,-3.3093828 m 89.77195,77.6164621 c -2.37397,0.02606 -4.8067,0.931212 -6.86501,2.81145 a 0.16531304,0.16531304 0 0 0 -0.0238,0.197479 0.16531304,0.16531304 0 0 0 -0.003,0.01501 0.16531304,0.16531304 0 0 0 0.009,0.0019 0.16531304,0.16531304 0 0 0 0.007,0.01923 0.16531304,0.16531304 0 0 0 0.19748,0.02361 0.16531304,0.16531304 0 0 0 0.015,0.0031 c 4.92013,-3.216431 12.82246,-1.317645 15.7442,3.782426 a 0.16532957,0.16532957 0 0 0 0.29833,-0.140096 c -1.30565,-3.480235 -3.99232,-5.718277 -7.04107,-6.450658 -0.76218,-0.183093 -1.54699,-0.272146 -2.33831,-0.26346 z m 0.004,0.329913 c 0.76413,-0.008 1.5217,0.07827 2.25748,0.255015 2.42571,0.58271 4.60247,2.162582 6.00833,4.589858 -3.16443,-3.638304 -8.97353,-5.034154 -13.44575,-3.230641 1.6407,-1.06119 3.42514,-1.595835 5.17994,-1.614232 z m -6.75719,2.60358 c 5.4133,-4.944981 13.40277,-3.026069 15.97813,3.838625 -2.97644,-5.195552 -10.9659,-7.115265 -15.97813,-3.838625 M 98.987835,240.68792 a 0.16531304,0.16531304 0 0 0 -0.01157,0.008 0.16531304,0.16531304 0 0 0 -0.01391,0 0.16531304,0.16531304 0 0 0 -0.03659,0.035 0.16531304,0.16531304 0 0 0 -0.04472,0.0427 0.16531304,0.16531304 0 0 0 -0.01142,0.0608 0.16531304,0.16531304 0 0 0 -0.0092,0.0499 c 1.585665,7.47553 9.641725,10.84463 16.077715,6.72303 a 0.16532957,0.16532957 0 0 0 -0.1548,-0.29098 c -2.78699,1.20617 -6.14065,0.9992 -9.07307,-0.22703 -2.93242,-1.22623 -5.43517,-3.46812 -6.534005,-6.29915 a 0.16531304,0.16531304 0 0 0 -0.175272,-0.0935 0.16531304,0.16531304 0 0 0 -0.01314,-0.008 z m 0.736127,1.8852 c 1.337498,2.13393 3.453188,3.81506 5.858698,4.82095 2.40535,1.00583 5.08768,1.33111 7.54594,0.7846 -5.36181,2.31998 -11.29091,-0.15962 -13.404638,-5.60555 z m -0.701872,-1.72345 c 2.23753,5.76474 10.15174,9.0742 15.82682,6.61812 -6.34914,4.06598 -14.26255,0.75652 -15.82682,-6.61812 m 419.84236,5.33404 a 0.16531304,0.16531304 0 0 0 -0.12555,0.0155 0.16531304,0.16531304 0 0 0 -0.0125,0.0161 0.16531304,0.16531304 0 0 0 -0.01,-10e-4 0.16531304,0.16531304 0 0 0 -0.0244,0.0446 0.16531304,0.16531304 0 0 0 -0.0297,0.0541 0.16531304,0.16531304 0 0 0 0.008,0.0608 0.16531304,0.16531304 0 0 0 0.006,0.0508 c 1.79185,3.16273 4.70547,4.89801 7.72826,5.11287 3.02278,0.21487 6.15267,-1.09074 8.374,-3.9685 a 0.16532957,0.16532957 0 0 0 -0.24376,-0.22186 c -4.17945,3.91003 -12.00095,3.35475 -15.58581,-1.10748 a 0.16531304,0.16531304 0 0 0 -0.0153,-0.002 0.16531304,0.16531304 0 0 0 -0.0694,-0.0541 z m 1.14611,1.58124 c 3.58068,2.97569 9.29181,3.38155 13.25734,0.94267 -1.9987,1.84116 -4.45047,2.66983 -6.83968,2.5 -2.38941,-0.16984 -4.69952,-1.33714 -6.41766,-3.44267 z m -1.19023,-1.42193 c 3.65369,4.54791 11.56791,5.1099 15.82762,1.12477 -4.3806,5.67508 -12.29401,5.1123 -15.82762,-1.12477 m -19.01485,-139.157 a 0.16531304,0.16531304 0 0 0 -0.0843,0.0249 0.16531304,0.16531304 0 0 0 -0.015,-0.004 0.16531304,0.16531304 0 0 0 -0.009,0.0111 0.16531304,0.16531304 0 0 0 -0.0135,0.004 0.16531304,0.16531304 0 0 0 -0.002,0.0155 0.16531304,0.16531304 0 0 0 -0.0382,0.19498 c 1.81164,3.17635 4.75419,4.91807 7.80502,5.13288 3.05084,0.21481 6.20842,-1.09743 8.4475,-3.98882 a 0.16532957,0.16532957 0 0 0 -0.24345,-0.22203 c -4.21614,3.93176 -12.11384,3.37542 -15.73685,-1.10778 a 0.16531304,0.16531304 0 0 0 -0.11118,-0.0605 z m 1.178,1.58515 c 3.61932,2.99797 9.39668,3.40463 13.40057,0.94282 -2.01732,1.85562 -4.49556,2.69152 -6.91144,2.52142 -2.41566,-0.17009 -4.75192,-1.3448 -6.48913,-3.46424 z m -1.19537,-1.42078 c 3.69213,4.56872 11.68159,5.13151 15.97813,1.12477 -4.41582,5.70229 -12.40528,5.13951 -15.97813,-1.12477 m -72.80491,41.13527 v 27.20267 h 1.19112 v -27.20267 z m -82.47405,0 v 27.20267 h 1.19128 v -27.20267 z m -70.9421,0 v 27.20267 h 1.19113 V 148.48566 Z M 296.97899,9.4928128 V 36.695635 h 1.19128 V 9.4928128 Z M 527.99054,148.48566 v 27.20267 h 1.19129 v -27.20267 z m -335.29957,0 v 27.20267 h 1.19112 v -27.20267 z m 416.17659,0 v 27.20267 h 1.19113 V 148.48566 Z M 371.04495,9.4928128 V 36.695635 h 1.19113 V 9.4928128 Z M 679.80887,148.48566 v 27.20267 H 681 v -27.20267 z m -558.05922,0 v 27.20267 h 1.19112 v -27.20267 z m 7.33063,69.49643 v 27.2025 h 1.19114 v -27.2025 z M 679.80887,78.989393 V 106.19206 H 681 V 78.989393 Z M 222.91242,9.4928128 V 36.695635 h 1.19112 V 9.4928128 Z M 609.78975,78.989393 v 27.202667 h 1.19113 V 78.989393 Z M 218.82884,217.98209 v 27.2025 h 1.19113 v -27.2025 z M 446.55736,9.4928128 V 36.695635 h 1.19113 V 9.4928128 Z m 83.43939,69.4965802 v 27.202667 h 1.19129 V 78.989393 Z M 157.77272,9.4928128 V 36.695635 h 1.19112 V 9.4928128 Z M 299.51682,217.98209 v 27.2025 h 1.19113 v -27.2025 z M 430.09642,78.989393 v 27.202667 h 1.19128 V 78.989393 Z M 368.96994,217.98209 v 27.2025 h 1.19112 v -27.2025 z M 348.72969,78.989393 v 27.202667 h 1.19113 V 78.989393 Z M 449.65776,217.98209 v 27.2025 h 1.19128 v -27.2025 z M 268.93669,78.989393 v 27.202667 h 1.19113 V 78.989393 Z M 548.87841,217.98209 v 27.2025 h 1.19129 v -27.2025 z M 189.14292,78.989393 v 27.202667 h 1.19128 V 78.989393 Z M 83.705978,9.4928128 V 36.695635 h 1.191286 V 9.4928128 Z m 456.896462,0 V 36.695635 h 1.19113 V 9.4928128 Z M 628.00783,217.98209 v 27.2025 h 1.19113 v -27.2025 z M 119.12457,78.989393 v 27.202667 h 1.19129 V 78.989393 Z M 679.80887,9.4928128 V 36.695635 H 681 V 9.4928128 Z M 677.35954,217.98209 v 27.2025 h 3.64015 v -27.2025 z m -3.63967,0 v 27.2025 h 1.19113 v -27.2025 z M 614.66902,9.4928128 V 36.695635 h 1.19129 V 9.4928128 Z M 0,244.4566 v 0.72768 h 681 v -0.72768 z m 0,-6.61812 v 0.72768 h 681 v -0.72768 z m 0,-6.61906 v 0.72769 h 681 v -0.72769 z m 0,-6.6189 v 0.72769 h 681 v -0.72769 z m 0,-6.61891 v 0.72769 h 681 v -0.72769 z m 0,-43.02144 v 0.72769 h 681 v -0.72769 z m 0,-6.61812 v 0.72769 h 681 v -0.72769 z m 0,-6.6189 v 0.72769 h 681 v -0.72769 z m 0,-6.6189 v 0.72769 h 681 v -0.72769 z m 0,-6.6189 v 0.72768 h 681 v -0.72768 z M 0,105.4639 v 0.72769 h 681 v -0.72769 z m 0,-6.618114 v 0.727681 h 681 v -0.727681 z m 0,-6.618902 v 0.727681 h 681 v -0.727681 z m 0,-6.618902 v 0.727682 H 681 V 85.607982 Z M 0,78.98892 v 0.727842 H 681 V 78.98892 Z M 0,35.967633 v 0.727681 h 681 v -0.727681 z m 0,-6.618117 v 0.727681 h 681 v -0.727681 z m 0,-6.619215 v 0.727682 h 681 v -0.727682 z m 0,-6.618588 v 0.727685 H 681 V 16.111713 Z M 0,9.4929689 V 10.220654 H 681 V 9.4929689 Z"
     style="stroke-width:0.0800547" />
  <metadata
     id="metadata283">
    <rdf:RDF>
      <cc:Work
         rdf:about="">
        <dc:title>air_LXVII</dc:title>
      </cc:Work>
    </rdf:RDF>
  </metadata>
</svg>
