<?xml version="1.0" encoding="UTF-8" standalone="no"?>
<svg
   width="681"
   height="47.113575"
   version="1.2"
   id="svg52"
   xmlns="http://www.w3.org/2000/svg"
   xmlns:svg="http://www.w3.org/2000/svg"
   xmlns:rdf="http://www.w3.org/1999/02/22-rdf-syntax-ns#"
   xmlns:cc="http://creativecommons.org/ns#"
   xmlns:dc="http://purl.org/dc/elements/1.1/">
  <defs
     id="defs52" />
  <title
     id="title1">air_LX</title>
  <desc
     id="desc1">Generated by MuseScore Studio 4.7.3</desc>
  <path
     id="path52"
     class="NoteDot"
     d="m 339.84595,26.156845 c 0,0.741307 0.5828,1.324906 1.32491,1.324906 0.74131,0 1.3249,-0.583599 1.3249,-1.324906 0,-0.742108 -0.58359,-1.324906 -1.3249,-1.324906 -0.74211,0 -1.32491,0.582798 -1.32491,1.324906 m 290.80044,-6.619006 c 0,0.741947 0.5836,1.324906 1.3249,1.324906 0.74211,0 1.32491,-0.582959 1.32491,-1.324906 0,-0.741947 -0.5828,-1.324906 -1.32491,-1.324906 -0.7413,0 -1.3249,0.582959 -1.3249,1.324906 m -232.16835,7.70775 c -0.0264,-0.02642 -0.0801,-0.07925 -0.15931,-0.184926 l -3.04688,-3.762973 c -0.0264,-0.0265 -0.0536,-0.105993 -0.0536,-0.158989 0,-0.07949 0.0272,-0.185487 0.0536,-0.238483 l 2.70265,-4.08071 c 0.0264,-0.053 0.0528,-0.132491 0.0528,-0.185487 v -0.238483 c 0,-0.07949 -0.0264,-0.158989 -0.0793,-0.211985 l -4.29254,-5.803088 c 0,0 -0.10647,-0.158989 -0.26498,-0.158989 -0.08,0 -0.13289,0.0265 -0.21214,0.0795 -0.10647,0.07949 -0.13289,0.185487 -0.13289,0.264981 0,0.158989 0.0801,0.291479 0.0801,0.291479 l 2.01338,2.755805 c 0.0528,0.07949 0.0793,0.185486 0.0793,0.317977 0,0.105992 -0.0264,0.238483 -0.0793,0.317977 l -2.67623,4.080711 c -0.0264,0.053 -0.0528,0.158988 -0.0528,0.211984 v 0.238484 c 0,0.07949 0.0264,0.158988 0.0793,0.211984 l 2.96763,3.683479 c -0.10568,-0.02642 -0.34424,-0.08006 -0.66206,-0.08006 -1.35132,0 -2.41124,1.113562 -2.41124,2.464886 0,0.370653 0.0793,0.742107 0.29139,1.033506 0.55638,0.84778 2.54334,3.364701 2.54334,3.364701 0,0 0.13289,0.159309 0.31862,0.159309 0.0528,0 0.10567,0 0.15851,-0.05284 0.13289,-0.106473 0.18573,-0.212145 0.18573,-0.317818 0,-0.106472 -0.0528,-0.185727 -0.0793,-0.238563 -0.08,-0.132891 -0.92783,-1.669942 -0.92783,-1.669942 0,0 -0.18573,-0.370653 -0.18573,-0.847779 0,-0.84778 0.63644,-1.537051 1.48422,-1.537051 0.34423,0 0.63563,0.106473 0.84778,0.238563 l 1.0335,0.662853 c 0,0 0.10648,0.05284 0.21215,0.05284 0.10567,0 0.18572,-0.02642 0.26498,-0.132891 0.0528,-0.105672 0.0793,-0.158508 0.0793,-0.237762 0,-0.08006 -0.0264,-0.132891 -0.0793,-0.212145 l -0.0528,-0.08006 M 46.657489,28.195038 c -1.801231,-0.582798 -3.788991,-1.457796 -3.788991,-2.649812 0,-1.033506 0.954253,-1.457796 2.093432,-1.457796 1.642723,0 2.755484,0.768525 2.755484,1.987759 0,1.27207 -0.582799,1.881286 -1.059925,2.119849 m -1.695559,6.280294 c -1.69556,0 -3.153356,-0.927834 -3.153356,-2.412049 0,-1.774813 1.377742,-2.199103 1.377742,-2.199103 1.802032,0.609216 4.372589,1.510632 4.372589,2.967629 0,0.715689 -0.927834,1.643523 -2.596975,1.643523 m 3.179774,-5.564604 c 0.874198,-0.662854 1.484215,-1.510633 1.484215,-2.570558 0,-1.907704 -2.093432,-3.471414 -4.663989,-3.471414 -2.570558,0 -4.663989,1.56371 -4.663989,3.471414 0,1.059925 0.264981,2.013377 1.510633,2.80832 -1.192015,0.689271 -1.854869,1.669942 -1.854869,2.942012 0,2.146267 2.252741,3.868245 5.008225,3.868245 2.755484,0 5.008224,-1.721978 5.008224,-3.868245 0,-1.27207 -0.450708,-2.464886 -1.82845,-3.179774 m -2.942012,-7.184753 c -0.874197,0 -1.589887,-1.192415 -1.589887,-2.67631 0,-1.483894 0.71569,-2.702808 1.589887,-2.702808 0.874198,0 1.616306,1.218914 1.616306,2.702808 0,1.483895 -0.742108,2.67631 -1.616306,2.67631 m 0.980671,-6.624529 c -1.616305,0 -2.199904,0.476966 -2.570558,0.874437 -0.07925,-0.55646 -0.13209,-0.98043 -0.13209,-1.4044 0,-1.510393 0.529962,-3.471253 2.384831,-3.471253 0.662052,0 1.059924,0.211985 1.324905,0.503464 -0.55718,0.238483 -1.007088,0.953932 -1.007088,1.563389 0,0.953932 0.742107,1.69588 1.695559,1.69588 0.954253,0 1.722778,-0.741948 1.722778,-1.69588 v -0.07949 c 0,-0.238483 -0.05364,-0.635955 -0.159309,-0.84794 -0.344235,-0.953932 -1.456996,-2.3583327 -4.106808,-2.3583327 -2.38483,0 -4.107608,2.2788377 -4.637571,3.4977517 -0.264981,0.635955 -0.662052,1.934363 -0.662052,3.418257 0,1.616385 0.449907,3.444755 2.013376,4.822658 1.537051,1.165917 2.517722,1.218913 3.444756,1.218913 0.927834,0 4.399007,-1.086423 4.399007,-4.160204 0,-2.596816 -2.040595,-3.577246 -3.709736,-3.577246 M 28.940575,7.64899 31.298988,7.1720239 v 4.3721891 l -2.358413,0.503465 V 7.64899 m 4.107609,-0.8214417 c 0.159309,-0.026498 0.291399,-0.2119849 0.291399,-0.3709736 v -1.563389 c 0,-0.2119849 -0.159309,-0.3709736 -0.370653,-0.3709736 H 32.91529 L 32.041095,4.7076989 V 0.75947929 H 31.298988 V 4.8666876 L 28.940575,5.3436537 V 1.6074191 h -0.741307 v 3.8952233 l -1.033506,0.211985 c -0.159309,0.026498 -0.2914,0.2119849 -0.2914,0.3709736 v 1.5368909 c 0,0.2119849 0.158509,0.3709736 0.370654,0.3709736 h 0.07925 l 0.874998,-0.1854868 v 4.3721893 l -1.033506,0.211985 c -0.159309,0.0265 -0.2914,0.211985 -0.2914,0.370974 v 1.536891 c 0,0.211985 0.158509,0.370973 0.370654,0.370973 h 0.07925 l 0.874998,-0.185487 v 3.94822 h 0.741307 V 14.326516 L 31.29898,13.84955 v 3.736234 h 0.742107 v -3.895223 l 1.007089,-0.185487 c 0.159309,-0.0265 0.291399,-0.211985 0.291399,-0.370974 v -1.563389 c 0,-0.211984 -0.159309,-0.370973 -0.370653,-0.370973 h -0.05364 l -0.874198,0.185487 V 7.0130351 l 1.0071,-0.1854868 M 16.093311,34.924439 c -0.529962,0.106473 -1.033427,0.159309 -1.536891,0.159309 -3.789231,0 -7.0220012,-2.649811 -7.0220012,-6.650947 0,-3.233411 2.2788382,-6.121386 4.6106722,-8.135243 0.450468,-0.397471 0.874438,-0.768445 1.27191,-1.165917 0.238483,1.430899 0.42397,2.67631 0.609457,3.762733 -2.411329,0.715129 -4.0542123,3.259268 -4.0542123,5.749771 0,1.854869 1.4573963,4.399008 3.5772463,4.399008 0.211985,0 0.450468,-0.105672 0.450468,-0.344235 0,-0.238563 -0.264982,-0.371454 -0.582959,-0.582799 -1.033427,-0.636435 -1.616385,-1.324906 -1.616385,-2.623393 0,-1.616306 1.192415,-2.914793 2.755804,-3.286247 l 1.536891,8.71796 M 13.761477,7.6844542 c 0.238483,-1.0599247 1.457396,-3.8422271 2.835298,-3.8422271 0.397472,0 1.033427,1.2984078 1.033427,3.1267779 0,2.7558043 -2.040355,4.822658 -3.868725,6.62453 -0.158989,-1.059925 -0.29148,-2.093352 -0.29148,-3.206273 0,-0.9804301 0.0795,-1.8813661 0.29148,-2.7028078 m 6.094567,22.3382338 c 0,1.881286 -0.768446,3.815409 -2.649812,4.583934 -0.556461,-3.179774 -1.27191,-7.393055 -1.457397,-8.558652 2.384831,0 4.107209,1.616305 4.107209,3.974718 M 8.1968718,43.059602 c 0,1.748395 1.351404,4.053972 4.9286502,4.053972 1.245411,0 2.331834,-0.317818 3.285766,-0.900616 1.430899,-1.007089 1.801872,-2.756285 1.801872,-4.425426 0,-1.033507 -0.158988,-2.225522 -0.423969,-3.736154 -0.07949,-0.529963 -0.238484,-1.324906 -0.397472,-2.358413 2.596815,-0.84778 4.531178,-3.550428 4.531178,-6.280294 0,-4.001136 -2.835299,-6.703784 -6.704024,-6.703784 -0.264981,-1.589887 -0.529962,-3.153276 -0.768445,-4.637171 2.8088,-2.941291 4.743163,-6.253555 4.743163,-10.4667561 0,-2.4113288 -0.741948,-4.3721895 -1.165917,-5.3261218 C 17.391719,0.92743413 16.623273,0 16.146307,0 15.96082,0 15.139379,0.31797742 14.264941,1.351404 c -1.69588,2.013857 -2.172846,5.4056161 -2.172846,7.631458 0,1.430898 0.132491,2.729306 0.582959,5.697095 -0.0265,0.0265 -1.404401,1.430899 -1.960861,1.881367 -2.4113287,2.25234 -5.7500916,5.458612 -5.7500916,10.757915 0,4.955389 4.3191932,8.850852 9.2478436,8.850852 0.768445,0 1.483894,-0.07925 2.093351,-0.185727 0.503464,2.54414 0.794943,4.399008 0.794943,5.803168 0,2.755484 -1.4044,4.213281 -4.08071,4.213281 -0.635955,0 -1.192415,-0.132891 -1.245411,-0.132891 -0.0265,-0.02642 -0.07949,-0.05284 -0.07949,-0.07925 0,-0.05284 0.053,-0.07925 0.132491,-0.105672 1.245412,-0.185727 2.490823,-1.245652 2.490823,-2.941211 0,-1.431379 -1.086423,-2.941211 -3.073782,-2.941211 -1.8548679,0 -3.0472832,1.509832 -3.0472832,3.259028 M 618.73184,20.65076 c 0,1.139419 0.82136,2.411329 2.96763,2.411329 2.75628,0 5.64466,-2.25234 5.64466,-4.584175 0,-1.563389 -1.32491,-2.437827 -2.96843,-2.437827 -2.56976,0 -5.64386,2.172846 -5.64386,4.610673 m -517.1496,0 c 0,1.139419 0.82136,2.411329 2.96763,2.411329 2.75628,0 5.64386,-2.25234 5.64386,-4.584175 0,-1.563389 -1.32491,-2.437827 -2.96763,-2.437827 -2.56976,0 -5.64386,2.172846 -5.64386,4.610673 m 488.23223,-3.309303 c 0,1.139419 0.82136,2.411329 2.96763,2.411329 2.75548,0 5.64386,-2.25234 5.64386,-4.584175 0,-1.563388 -1.32491,-2.437826 -2.96763,-2.437826 -2.57056,0 -5.64386,2.172845 -5.64386,4.610672 M 144.9591,23.960143 c 0,1.139179 0.82136,2.411248 2.96763,2.411248 2.75548,0 5.64386,-2.251939 5.64386,-4.584094 0,-1.563389 -1.32491,-2.437827 -2.96763,-2.437827 -2.57056,0 -5.64386,2.172846 -5.64386,4.610673 m 28.91817,3.309463 c 0,1.139178 0.82136,2.411248 2.96763,2.411248 2.75549,0 5.64386,-2.25274 5.64386,-4.583934 0,-1.563469 -1.32491,-2.438067 -2.96763,-2.438067 -2.57056,0 -5.64386,2.173086 -5.64386,4.610753 M 546.43761,14.032074 c 0,1.139419 0.82136,2.411329 2.96763,2.411329 2.75548,0 5.64386,-2.25234 5.64386,-4.584174 0,-1.563389 -1.32491,-2.4378271 -2.96763,-2.4378271 -2.57056,0 -5.64386,2.1728461 -5.64386,4.6106721 M 217.25333,40.506656 c 0,1.13998 0.82216,2.411249 2.96843,2.411249 2.75548,0 5.64386,-2.25194 5.64386,-4.583934 0,-1.563469 -1.32491,-2.437667 -2.96763,-2.437667 -2.57056,0 -5.64466,2.172686 -5.64466,4.610352 m 38.38304,-6.618125 c 0,1.139179 0.82137,2.411249 2.96763,2.411249 2.75549,0 5.64386,-2.25274 5.64386,-4.584735 0,-1.563469 -1.3249,-2.437667 -2.96763,-2.437667 -2.57055,0 -5.64386,2.172686 -5.64386,4.611153 m 252.4182,-16.547074 c 0,1.139419 0.82136,2.411329 2.96762,2.411329 2.75629,0 5.64466,-2.25234 5.64466,-4.584175 0,-1.563388 -1.3249,-2.437826 -2.96843,-2.437826 -2.56975,0 -5.64385,2.172845 -5.64385,4.610672 m -180.12396,9.928149 c 0,1.139178 0.82216,2.411248 2.96843,2.411248 2.75548,0 5.64385,-2.25274 5.64385,-4.583934 0,-1.563469 -1.3249,-2.438067 -2.96762,-2.438067 -2.57056,0 -5.64466,2.173086 -5.64466,4.610753 m 136.7471,-6.618846 c 0,1.139419 0.82136,2.411329 2.96763,2.411329 2.75628,0 5.64465,-2.25234 5.64465,-4.584175 0,-1.563389 -1.3249,-2.437827 -2.96762,-2.437827 -2.57056,0 -5.64466,2.172846 -5.64466,4.610673 M 63.199199,17.341457 c 0,1.139419 0.822163,2.411329 2.96843,2.411329 2.755484,0 5.643859,-2.25234 5.643859,-4.584175 0,-1.563388 -1.324906,-2.437826 -2.967629,-2.437826 -2.570558,0 -5.64466,2.172845 -5.64466,4.610672 m 372.561131,6.618686 c 0,1.139179 0.82137,2.411248 2.96763,2.411248 2.75549,0 5.64386,-2.251939 5.64386,-4.584094 0,-1.563389 -1.3249,-2.437827 -2.96763,-2.437827 -2.57055,0 -5.64386,2.172846 -5.64386,4.610673 m -136.7471,6.618925 c 0,1.139179 0.82137,2.411249 2.96763,2.411249 2.75549,0 5.64386,-2.25274 5.64386,-4.583934 0,-1.563469 -1.3249,-2.438468 -2.96763,-2.438468 -2.57056,0 -5.64386,2.173487 -5.64386,4.611153 m 136.7471,13.752604 c 0,0.184926 0.15851,0.344235 0.34424,0.344235 0.13209,0 0.2914,-0.105672 0.31782,-0.212145 0,-0.02642 0.23856,-0.953452 0.26498,-1.033507 0.0264,-0.105672 0.26498,-1.112761 1.21923,-2.67623 1.03351,-1.721977 2.6234,-2.967629 3.9483,-4.822497 1.29849,-1.854868 2.09343,-3.604064 2.09343,-5.935258 0,-2.411249 -0.55718,-4.425426 -1.96134,-6.995743 -0.0793,-0.185487 -0.23856,-0.29148 -0.39707,-0.29148 -0.0536,0 -0.10647,0 -0.13289,0.0265 -0.13209,0.053 -0.18573,0.158989 -0.18573,0.317978 0,0.07949 0.0272,0.211985 0.0801,0.318217 1.05992,2.464085 1.48341,3.868245 1.48341,5.77595 0,2.199904 -0.76852,3.339083 -1.24485,4.160444 -1.72278,2.941211 -4.50468,4.37259 -5.61824,4.743244 -0.18493,0.07925 -0.21135,0.212145 -0.21135,0.291399 v 5.988895 m 72.29424,-4.964195 c 0,0.185727 0.1593,0.344236 0.34423,0.344236 0.13289,0 0.2922,-0.105672 0.31862,-0.212145 0,-0.02642 0.23856,-0.953452 0.26498,-1.032706 0.0264,-0.106473 0.26498,-1.113562 1.21843,-2.677031 1.03351,-1.721977 2.6234,-2.967629 3.9483,-4.822497 1.29849,-1.854868 2.09343,-3.603264 2.09343,-5.935258 0,-2.411409 -0.55638,-4.425266 -1.96054,-6.995584 -0.0801,-0.185486 -0.23856,-0.291479 -0.39787,-0.291479 -0.0528,0 -0.10567,0 -0.13209,0.0265 -0.13289,0.053 -0.18573,0.158989 -0.18573,0.317978 0,0.07949 0.0264,0.211985 0.0793,0.317977 1.05992,2.464325 1.48421,3.868725 1.48421,5.77683 0,2.199104 -0.76852,3.338282 -1.24565,4.159644 -1.72198,2.941211 -4.50468,4.37259 -5.61744,4.743243 -0.18573,0.08005 -0.21214,0.212145 -0.21214,0.2914 v 5.988894 M 306.95546,12.315541 c 0,0.07949 0.0264,0.211985 0.21215,0.291479 1.13918,0.370974 3.41834,1.801872 5.14031,4.743163 0.47713,0.821442 1.24566,1.960861 1.24566,4.160205 0,1.907784 -0.50355,3.869125 -1.19282,5.77683 -0.0528,0.158508 -0.10567,0.291399 -0.0793,0.397071 0,0.159309 0.10647,0.264981 0.26498,0.264981 0.18572,0 0.31781,-0.105672 0.42429,-0.291399 1.19201,-2.119849 1.64272,-4.584094 1.64272,-6.995423 -0.13289,-3.418257 -2.09343,-5.935579 -2.09343,-5.935579 0.0793,0 -2.43767,-3.259268 -3.15336,-4.372189 -0.98067,-1.5103927 -1.43058,-3.0207855 -1.48341,-3.1267779 -0.0272,-0.079494 -0.26498,-1.0334266 -0.26498,-1.0334266 -0.0272,-0.1059925 -0.15931,-0.211985 -0.31862,-0.211985 -0.18493,0 -0.34424,0.1589887 -0.34424,0.3444755 v 5.988575 M 63.199199,39.367477 c 0,0.185727 0.159309,0.344236 0.345036,0.344236 0.132091,0 0.2914,-0.105672 0.317818,-0.212145 0,-0.02642 0.238563,-0.953452 0.264981,-1.032706 0.02642,-0.106473 0.264981,-1.113562 1.219234,-2.677031 1.032706,-1.721977 2.622593,-2.967629 3.947499,-4.822497 1.298487,-1.854868 2.093431,-3.603264 2.093431,-5.935258 0,-2.411409 -0.55638,-4.425266 -1.960541,-6.995584 -0.07925,-0.185486 -0.238563,-0.291479 -0.397872,-0.291479 -0.05284,0 -0.105672,0 -0.13209,0.0265 -0.132891,0.053 -0.185727,0.158989 -0.185727,0.317978 0,0.07949 0.02642,0.211985 0.08006,0.317977 1.059925,2.464325 1.483414,3.868725 1.483414,5.77683 0,2.199104 -0.768525,3.338282 -1.245652,4.159644 -1.721977,2.941211 -4.50468,4.37259 -5.61744,4.743243 -0.184927,0.08005 -0.212146,0.212145 -0.212146,0.2914 v 5.988894 M 225.19636,22.243609 c 0,0.07949 0.0264,0.211985 0.21135,0.291479 1.13998,0.370974 3.41833,1.802112 5.14111,4.743324 0.47713,0.821361 1.24565,1.96054 1.24565,4.159644 0,1.908505 -0.50354,3.869045 -1.19281,5.77675 -0.0528,0.159308 -0.10567,0.291399 -0.0793,0.397872 0,0.158508 0.10568,0.264981 0.26498,0.264981 0.18493,0 0.31782,-0.106473 0.42349,-0.291399 1.19282,-2.11985 1.64353,-4.584735 1.64353,-6.995984 -0.13289,-3.418337 -2.09343,-5.935258 -2.09343,-5.935258 0.0793,0 -2.43847,-3.259349 -3.15336,-4.37227 -0.98067,-1.510392 -1.43138,-3.020785 -1.48421,-3.126778 -0.0264,-0.07949 -0.26499,-1.033426 -0.26499,-1.033426 -0.0264,-0.105993 -0.1585,-0.211985 -0.31781,-0.211985 -0.18573,0 -0.34424,0.158989 -0.34424,0.344475 v 5.988575 m 364.61811,17.123868 c 0,0.185727 0.15851,0.344236 0.34423,0.344236 0.13209,0 0.2914,-0.105672 0.31782,-0.212145 0,-0.02642 0.23856,-0.953452 0.26498,-1.032706 0.0264,-0.106473 0.26498,-1.113562 1.21924,-2.677031 1.0335,-1.721977 2.62339,-2.967629 3.9483,-4.822497 1.29768,-1.854868 2.09263,-3.603264 2.09263,-5.935258 0,-2.411409 -0.55638,-4.425266 -1.96054,-6.995584 -0.0793,-0.185486 -0.23857,-0.291479 -0.39708,-0.291479 -0.0536,0 -0.10647,0 -0.13289,0.0265 -0.13209,0.053 -0.18572,0.158989 -0.18572,0.317978 0,0.07949 0.0264,0.211985 0.0801,0.317977 1.05993,2.464325 1.48342,3.868725 1.48342,5.77683 0,2.199104 -0.76853,3.338282 -1.24486,4.159644 -1.72277,2.941211 -4.50468,4.37259 -5.61824,4.743243 -0.18492,0.08005 -0.21134,0.212145 -0.21134,0.2914 v 5.988894 M 144.9591,44.331672 c 0,0.184926 0.15851,0.344235 0.34423,0.344235 0.1329,0 0.2914,-0.105672 0.31782,-0.212145 0,-0.02642 0.23857,-0.953452 0.26498,-1.033507 0.0264,-0.105672 0.26498,-1.112761 1.21924,-2.67623 1.0335,-1.721977 2.62339,-2.967629 3.9483,-4.822497 1.29848,-1.854868 2.09343,-3.604064 2.09343,-5.935258 0,-2.411249 -0.55638,-4.425426 -1.96134,-6.995743 -0.0793,-0.185487 -0.23857,-0.29148 -0.39707,-0.29148 -0.0528,0 -0.10648,0 -0.1329,0.0265 -0.13209,0.053 -0.18492,0.158989 -0.18492,0.317978 0,0.07949 0.0264,0.211985 0.0793,0.318217 1.05993,2.464085 1.48422,3.868245 1.48422,5.77595 0,2.199904 -0.76853,3.339083 -1.24565,4.160444 -1.72278,2.941211 -4.50468,4.37259 -5.61745,4.743244 -0.18572,0.07925 -0.21214,0.212145 -0.21214,0.291399 v 5.988895 m 290.80082,-20.37234 v 20.37237 h 0.66202 v -20.37237 z m 28.91806,-3.309605 v 20.398946 h 0.66217 V 20.649729 Z M 335.87324,4.6458182 V 25.097769 h 0.66202 V 4.6458182 Z m 172.1818,12.6946168 v 22.02709 h 0.66201 V 17.340435 Z M 306.95503,6.3533913 V 28.407223 h 0.66201 V 6.3533913 Z M 63.199616,17.340435 v 22.02709 h 0.66202 V 17.340435 Z M 263.57897,9.6098371 V 31.71667 h 0.66202 V 9.6098371 Z M 101.5818,20.649729 v 20.398946 h 0.66217 V 20.649729 Z m 517.15047,0 v 20.398946 h 0.66202 V 20.649729 Z M 225.196,16.28143 v 22.053357 h 0.66202 V 16.28143 Z M 181.81916,4.6458182 V 25.097769 h 0.66201 V 4.6458182 Z m 407.9949,12.6946168 v 22.02709 h 0.66202 v -22.02709 z m -444.85542,6.618899 v 20.37237 h 0.66218 v -20.37237 z m 401.47858,-9.928193 v 22.053364 h 0.66201 V 14.031141 Z M 246.17144,9.2458378 V 36.448658 h 1.19129 V 9.2458378 Z m 431.1881,0 V 36.448658 h 3.64015 V 9.2458378 Z m -3.63967,0 V 36.448658 H 674.911 V 9.2458378 Z m -290.80134,0 V 36.448658 h 1.19129 V 9.2458378 Z m 154.05425,0 V 36.448658 h 1.19112 V 9.2458378 Z m -444.855427,0 V 36.448658 H 93.30864 V 9.2458378 Z M 0,35.720656 v 0.727689 h 681 v -0.727689 z m 0,-6.618269 v 0.727841 h 681 v -0.727841 z m 0,-6.61906 v 0.727685 h 681 v -0.727685 z m 0,-6.618588 v 0.727684 H 681 V 15.864739 Z M 0,9.2459947 V 9.9736795 H 681 V 9.2459947 Z"
     style="stroke-width:0.0800547" />
  <metadata
     id="metadata52">
    <rdf:RDF>
      <cc:Work
         rdf:about="">
        <dc:title>air_LX</dc:title>
      </cc:Work>
    </rdf:RDF>
  </metadata>
</svg>
