<?xml version="1.0" encoding="UTF-8" standalone="no"?>
<svg width="210.058mm" height="296.926mm" viewBox="0 0 9924 14028"
 xmlns="http://www.w3.org/2000/svg" xmlns:xlink="http://www.w3.org/1999/xlink" version="1.2" baseProfile="full">
<title>air_XLI</title>
<desc>Generated by MuseScore Studio 4.7.3</desc>
<polyline class="StaffLines" fill="none" stroke="#000000" stroke-width="9.09" stroke-linejoin="bevel" points="708.661,828.424 9215.34,828.424" />
<polyline class="StaffLines" fill="none" stroke="#000000" stroke-width="9.09" stroke-linejoin="bevel" points="708.661,911.101 9215.34,911.101" />
<polyline class="StaffLines" fill="none" stroke="#000000" stroke-width="9.09" stroke-linejoin="bevel" points="708.661,993.778 9215.34,993.778" />
<polyline class="StaffLines" fill="none" stroke="#000000" stroke-width="9.09" stroke-linejoin="bevel" points="708.661,1076.46 9215.34,1076.46" />
<polyline class="StaffLines" fill="none" stroke="#000000" stroke-width="9.09" stroke-linejoin="bevel" points="708.661,1159.13 9215.34,1159.13" />
<polyline class="StaffLines" fill="none" stroke="#000000" stroke-width="9.09" stroke-linejoin="bevel" points="708.661,1696.53 9215.34,1696.53" />
<polyline class="StaffLines" fill="none" stroke="#000000" stroke-width="9.09" stroke-linejoin="bevel" points="708.661,1779.21 9215.34,1779.21" />
<polyline class="StaffLines" fill="none" stroke="#000000" stroke-width="9.09" stroke-linejoin="bevel" points="708.661,1861.89 9215.34,1861.89" />
<polyline class="StaffLines" fill="none" stroke="#000000" stroke-width="9.09" stroke-linejoin="bevel" points="708.661,1944.57 9215.34,1944.57" />
<polyline class="StaffLines" fill="none" stroke="#000000" stroke-width="9.09" stroke-linejoin="bevel" points="708.661,2027.24 9215.34,2027.24" />
<polyline class="StaffLines" fill="none" stroke="#000000" stroke-width="9.09" stroke-linejoin="bevel" points="708.661,2564.64 9215.34,2564.64" />
<polyline class="StaffLines" fill="none" stroke="#000000" stroke-width="9.09" stroke-linejoin="bevel" points="708.661,2647.32 9215.34,2647.32" />
<polyline class="StaffLines" fill="none" stroke="#000000" stroke-width="9.09" stroke-linejoin="bevel" points="708.661,2730 9215.34,2730" />
<polyline class="StaffLines" fill="none" stroke="#000000" stroke-width="9.09" stroke-linejoin="bevel" points="708.661,2812.68 9215.34,2812.68" />
<polyline class="StaffLines" fill="none" stroke="#000000" stroke-width="9.09" stroke-linejoin="bevel" points="708.661,2895.35 9215.34,2895.35" />
<polyline class="BarLine" fill="none" stroke="#000000" stroke-width="14.88" stroke-linejoin="bevel" points="9207.9,1691.99 9207.9,2031.79" />
<polyline class="BarLine" fill="none" stroke="#000000" stroke-width="14.88" stroke-linejoin="bevel" points="9207.9,823.876 9207.9,1163.68" />
<polyline class="BarLine" fill="none" stroke="#000000" stroke-width="14.88" stroke-linejoin="bevel" points="9131.84,2560.1 9131.84,2899.9" />
<polyline class="BarLine" fill="none" stroke="#000000" stroke-width="45.47" stroke-linejoin="bevel" points="9192.6,2560.1 9192.6,2899.9" />
<polyline class="BarLine" fill="none" stroke="#000000" stroke-width="14.88" stroke-linejoin="bevel" points="2261.18,1691.99 2261.18,2031.79" />
<polyline class="BarLine" fill="none" stroke="#000000" stroke-width="14.88" stroke-linejoin="bevel" points="5397.14,823.876 5397.14,1163.68" />
<polyline class="BarLine" fill="none" stroke="#000000" stroke-width="14.88" stroke-linejoin="bevel" points="4196.61,823.876 4196.61,1163.68" />
<polyline class="BarLine" fill="none" stroke="#000000" stroke-width="14.88" stroke-linejoin="bevel" points="7970,2560.1 7970,2899.9" />
<polyline class="BarLine" fill="none" stroke="#000000" stroke-width="14.88" stroke-linejoin="bevel" points="1640.32,823.876 1640.32,1163.68" />
<polyline class="BarLine" fill="none" stroke="#000000" stroke-width="14.88" stroke-linejoin="bevel" points="6729.68,823.876 6729.68,1163.68" />
<polyline class="BarLine" fill="none" stroke="#000000" stroke-width="14.88" stroke-linejoin="bevel" points="3280.35,1691.99 3280.35,2031.79" />
<polyline class="BarLine" fill="none" stroke="#000000" stroke-width="14.88" stroke-linejoin="bevel" points="6317.72,2560.1 6317.72,2899.9" />
<polyline class="BarLine" fill="none" stroke="#000000" stroke-width="14.88" stroke-linejoin="bevel" points="4515.71,1691.99 4515.71,2031.79" />
<polyline class="BarLine" fill="none" stroke="#000000" stroke-width="14.88" stroke-linejoin="bevel" points="4665.45,2560.1 4665.45,2899.9" />
<polyline class="BarLine" fill="none" stroke="#000000" stroke-width="14.88" stroke-linejoin="bevel" points="5652.66,1691.99 5652.66,2031.79" />
<polyline class="BarLine" fill="none" stroke="#000000" stroke-width="14.88" stroke-linejoin="bevel" points="2859.77,2560.1 2859.77,2899.9" />
<polyline class="BarLine" fill="none" stroke="#000000" stroke-width="14.88" stroke-linejoin="bevel" points="6888.02,1691.99 6888.02,2031.79" />
<polyline class="BarLine" fill="none" stroke="#000000" stroke-width="14.88" stroke-linejoin="bevel" points="2996.09,823.876 2996.09,1163.68" />
<polyline class="BarLine" fill="none" stroke="#000000" stroke-width="14.88" stroke-linejoin="bevel" points="8007.37,823.876 8007.37,1163.68" />
<polyline class="BarLine" fill="none" stroke="#000000" stroke-width="14.88" stroke-linejoin="bevel" points="8024.98,1691.99 8024.98,2031.79" />
<path class="TieSegment" stroke="#000000" stroke-width="4.13" stroke-linecap="round" stroke-linejoin="round" fill-rule="evenodd" d="M8139.81,3038.39 C8228.55,3101.79 8494.76,3101.79 8583.49,3038.39 C8494.76,3128.25 8228.55,3128.25 8139.81,3038.39"/>
<path class="TieSegment" stroke="#000000" stroke-width="4.13" stroke-linecap="round" stroke-linejoin="round" fill-rule="evenodd" d="M7264.07,1760.19 C7319.8,1697.16 7487.01,1697.16 7542.74,1760.19 C7487.01,1721.53 7319.8,1721.53 7264.07,1760.19"/>
<path class="TieSegment" stroke="#000000" stroke-width="4.13" stroke-linecap="round" stroke-linejoin="round" fill-rule="evenodd" d="M4882.33,2004.93 C4938.06,2060.52 5105.27,2060.52 5161,2004.93 C5105.27,2084.89 4938.06,2084.89 4882.33,2004.93"/>
<path class="TieSegment" stroke="#000000" stroke-width="4.13" stroke-linecap="round" stroke-linejoin="round" fill-rule="evenodd" d="M8378.4,1178.15 C8435.45,1229.46 8606.62,1229.46 8663.67,1178.15 C8606.62,1254.1 8435.45,1254.1 8378.4,1178.15"/>
<path class="TieSegment" stroke="#000000" stroke-width="4.13" stroke-linecap="round" stroke-linejoin="round" fill-rule="evenodd" d="M5142.08,2914.37 C5230.81,2977.78 5497.02,2977.78 5585.75,2914.37 C5497.02,3004.23 5230.81,3004.23 5142.08,2914.37"/>
<path class="TieSegment" stroke="#000000" stroke-width="4.13" stroke-linecap="round" stroke-linejoin="round" fill-rule="evenodd" d="M2431,2170.28 C2486.73,2221.08 2653.93,2221.08 2709.67,2170.28 C2653.93,2245.46 2486.73,2245.46 2431,2170.28"/>
<polyline class="LedgerLine" fill="none" stroke="#000000" stroke-width="13.23" stroke-linejoin="bevel" points="5782.45,1241.81 5944.51,1241.81" />
<polyline class="LedgerLine" fill="none" stroke="#000000" stroke-width="13.23" stroke-linejoin="bevel" points="2344.68,2109.92 2506.74,2109.92" />
<polyline class="LedgerLine" fill="none" stroke="#000000" stroke-width="13.23" stroke-linejoin="bevel" points="2639.89,2109.92 2801.95,2109.92" />
<polyline class="LedgerLine" fill="none" stroke="#000000" stroke-width="13.23" stroke-linejoin="bevel" points="8053.5,2978.03 8215.56,2978.03" />
<polyline class="LedgerLine" fill="none" stroke="#000000" stroke-width="13.23" stroke-linejoin="bevel" points="8513.71,2978.03 8675.77,2978.03" />
<polyline class="LedgerLine" fill="none" stroke="#000000" stroke-width="13.23" stroke-linejoin="bevel" points="6025.21,1241.81 6187.27,1241.81" />
<polyline class="LedgerLine" fill="none" stroke="#000000" stroke-width="13.23" stroke-linejoin="bevel" points="5480.65,1241.81 5642.71,1241.81" />
<polyline class="Stem" fill="none" stroke="#000000" stroke-width="8.27" stroke-linejoin="bevel" points="3887.28,1834.44 3887.28,2089.25" />
<polyline class="Stem" fill="none" stroke="#000000" stroke-width="8.27" stroke-linejoin="bevel" points="8631.91,1875.78 8631.91,2109.92" />
<polyline class="Stem" fill="none" stroke="#000000" stroke-width="8.27" stroke-linejoin="bevel" points="5913.08,1228.58 5913.08,953.101" />
<polyline class="Stem" fill="none" stroke="#000000" stroke-width="8.27" stroke-linejoin="bevel" points="8644.34,2964.8 8644.34,2688.66" />
<polyline class="Stem" fill="none" stroke="#000000" stroke-width="8.27" stroke-linejoin="bevel" points="6456.4,1834.44 6456.4,2047.91" />
<polyline class="Stem" fill="none" stroke="#000000" stroke-width="8.27" stroke-linejoin="bevel" points="6155.84,1228.58 6155.84,952.439" />
<polyline class="Stem" fill="none" stroke="#000000" stroke-width="8.27" stroke-linejoin="bevel" points="5611.28,1228.58 5611.28,952.439" />
<polyline class="Stem" fill="none" stroke="#000000" stroke-width="8.27" stroke-linejoin="bevel" points="8184.13,2964.8 8184.13,2688.66" />
<polyline class="Stem" fill="none" stroke="#000000" stroke-width="8.27" stroke-linejoin="bevel" points="6457.64,1145.9 6457.64,848.502" />
<polyline class="Stem" fill="none" stroke="#000000" stroke-width="8.27" stroke-linejoin="bevel" points="1458.75,1063.23 1458.75,787.747" />
<polyline class="Stem" fill="none" stroke="#000000" stroke-width="8.27" stroke-linejoin="bevel" points="7759.09,2923.46 7759.09,2647.98" />
<polyline class="Stem" fill="none" stroke="#000000" stroke-width="8.27" stroke-linejoin="bevel" points="6594.08,1104.57 6594.08,829.014" />
<polyline class="Stem" fill="none" stroke="#000000" stroke-width="8.27" stroke-linejoin="bevel" points="6259.6,1793.1 6259.6,2047.91" />
<polyline class="Stem" fill="none" stroke="#000000" stroke-width="8.27" stroke-linejoin="bevel" points="7298.88,2882.12 7298.88,2605.98" />
<polyline class="Stem" fill="none" stroke="#000000" stroke-width="8.27" stroke-linejoin="bevel" points="5215.57,1187.24 5215.57,911.762" />
<polyline class="Stem" fill="none" stroke="#000000" stroke-width="8.27" stroke-linejoin="bevel" points="6943.81,1063.23 6943.81,787.085" />
<polyline class="Stem" fill="none" stroke="#000000" stroke-width="8.27" stroke-linejoin="bevel" points="6992.07,2840.79 6992.07,2565.31" />
<polyline class="Stem" fill="none" stroke="#000000" stroke-width="8.27" stroke-linejoin="bevel" points="7002.94,1751.76 7002.94,2026.91" />
<polyline class="Stem" fill="none" stroke="#000000" stroke-width="8.27" stroke-linejoin="bevel" points="7245.62,1063.23 7245.62,787.747" />
<polyline class="Stem" fill="none" stroke="#000000" stroke-width="8.27" stroke-linejoin="bevel" points="6062.79,1793.1 6062.79,2068.25" />
<polyline class="Stem" fill="none" stroke="#000000" stroke-width="8.27" stroke-linejoin="bevel" points="7469.36,1063.23 7469.36,828.424" />
<polyline class="Stem" fill="none" stroke="#000000" stroke-width="8.27" stroke-linejoin="bevel" points="6531.86,2799.45 6531.86,2523.31" />
<polyline class="Stem" fill="none" stroke="#000000" stroke-width="8.27" stroke-linejoin="bevel" points="1854.46,1063.23 1854.46,828.424" />
<polyline class="Stem" fill="none" stroke="#000000" stroke-width="8.27" stroke-linejoin="bevel" points="7670.56,1104.57 7670.56,828.424" />
<polyline class="Stem" fill="none" stroke="#000000" stroke-width="8.27" stroke-linejoin="bevel" points="6106.82,2758.11 6106.82,2503.3" />
<polyline class="Stem" fill="none" stroke="#000000" stroke-width="8.27" stroke-linejoin="bevel" points="7871.77,1063.23 7871.77,828.424" />
<polyline class="Stem" fill="none" stroke="#000000" stroke-width="8.27" stroke-linejoin="bevel" points="7199.75,1834.44 7199.75,2089.25" />
<polyline class="Stem" fill="none" stroke="#000000" stroke-width="8.27" stroke-linejoin="bevel" points="5767.58,1793.1 5767.58,2068.58" />
<polyline class="Stem" fill="none" stroke="#000000" stroke-width="8.27" stroke-linejoin="bevel" points="5646.6,2840.79 5646.6,2564.64" />
<polyline class="Stem" fill="none" stroke="#000000" stroke-width="8.27" stroke-linejoin="bevel" points="3210.22,1021.89 3210.22,767.077" />
<polyline class="Stem" fill="none" stroke="#000000" stroke-width="8.27" stroke-linejoin="bevel" points="8221.51,1021.89 8221.51,767.077" />
<polyline class="Stem" fill="none" stroke="#000000" stroke-width="8.27" stroke-linejoin="bevel" points="5186.39,2840.79 5186.39,2564.64" />
<polyline class="Stem" fill="none" stroke="#000000" stroke-width="8.27" stroke-linejoin="bevel" points="8422.71,1104.57 8422.71,828.424" />
<polyline class="Stem" fill="none" stroke="#000000" stroke-width="8.27" stroke-linejoin="bevel" points="4879.58,2758.11 4879.58,2503.3" />
<polyline class="Stem" fill="none" stroke="#000000" stroke-width="8.27" stroke-linejoin="bevel" points="8724.52,1104.57 8724.52,828.424" />
<polyline class="Stem" fill="none" stroke="#000000" stroke-width="8.27" stroke-linejoin="bevel" points="7494.95,1834.44 7494.95,2089.25" />
<polyline class="Stem" fill="none" stroke="#000000" stroke-width="8.27" stroke-linejoin="bevel" points="5417.85,1793.1 5417.85,2068.25" />
<polyline class="Stem" fill="none" stroke="#000000" stroke-width="8.27" stroke-linejoin="bevel" points="9026.33,1021.89 9026.33,767.077" />
<polyline class="Stem" fill="none" stroke="#000000" stroke-width="8.27" stroke-linejoin="bevel" points="2055.66,1104.57 2055.66,828.424" />
<polyline class="Stem" fill="none" stroke="#000000" stroke-width="8.27" stroke-linejoin="bevel" points="4913.76,1145.9 4913.76,869.762" />
<polyline class="Stem" fill="none" stroke="#000000" stroke-width="8.27" stroke-linejoin="bevel" points="4454.54,2799.45 4454.54,2564.64" />
<polyline class="Stem" fill="none" stroke="#000000" stroke-width="8.27" stroke-linejoin="bevel" points="4712.56,1104.57 4712.56,829.085" />
<polyline class="Stem" fill="none" stroke="#000000" stroke-width="8.27" stroke-linejoin="bevel" points="4147.73,2840.79 4147.73,2564.64" />
<polyline class="Stem" fill="none" stroke="#000000" stroke-width="8.27" stroke-linejoin="bevel" points="3840.93,2799.45 3840.93,2564.64" />
<polyline class="Stem" fill="none" stroke="#000000" stroke-width="8.27" stroke-linejoin="bevel" points="1292.39,1931.34 1292.39,1655.2" />
<polyline class="Stem" fill="none" stroke="#000000" stroke-width="8.27" stroke-linejoin="bevel" points="3534.12,2799.45 3534.12,2523.97" />
<polyline class="Stem" fill="none" stroke="#000000" stroke-width="8.27" stroke-linejoin="bevel" points="7790.16,1751.76 7790.16,2026.91" />
<polyline class="Stem" fill="none" stroke="#000000" stroke-width="8.27" stroke-linejoin="bevel" points="1587.6,1972.68 1587.6,1697.2" />
<polyline class="Stem" fill="none" stroke="#000000" stroke-width="8.27" stroke-linejoin="bevel" points="5221.85,1931.34 5221.85,1655.2" />
<polyline class="Stem" fill="none" stroke="#000000" stroke-width="8.27" stroke-linejoin="bevel" points="1784.4,2014.01 1784.4,1737.87" />
<polyline class="Stem" fill="none" stroke="#000000" stroke-width="8.27" stroke-linejoin="bevel" points="3073.9,2799.45 3073.9,2523.31" />
<polyline class="Stem" fill="none" stroke="#000000" stroke-width="8.27" stroke-linejoin="bevel" points="2860.48,1063.23 2860.48,828.424" />
<polyline class="Stem" fill="none" stroke="#000000" stroke-width="8.27" stroke-linejoin="bevel" points="2079.61,2055.35 2079.61,1779.87" />
<polyline class="Stem" fill="none" stroke="#000000" stroke-width="8.27" stroke-linejoin="bevel" points="2256.87,1063.23 2256.87,828.424" />
<polyline class="Stem" fill="none" stroke="#000000" stroke-width="8.27" stroke-linejoin="bevel" points="4926.64,1931.34 4926.64,1655.2" />
<polyline class="Stem" fill="none" stroke="#000000" stroke-width="8.27" stroke-linejoin="bevel" points="2724.16,2840.79 2724.16,2565.05" />
<polyline class="Stem" fill="none" stroke="#000000" stroke-width="8.27" stroke-linejoin="bevel" points="2475.31,2096.69 2475.31,1820.55" />
<polyline class="Stem" fill="none" stroke="#000000" stroke-width="8.27" stroke-linejoin="bevel" points="4410.75,1063.23 4410.75,787.085" />
<polyline class="Stem" fill="none" stroke="#000000" stroke-width="8.27" stroke-linejoin="bevel" points="2519.63,2882.12 2519.63,2584.91" />
<polyline class="Stem" fill="none" stroke="#000000" stroke-width="8.27" stroke-linejoin="bevel" points="2770.52,2096.69 2770.52,1820.55" />
<polyline class="Stem" fill="none" stroke="#000000" stroke-width="8.27" stroke-linejoin="bevel" points="2059.41,2799.45 2059.41,2523.31" />
<polyline class="Stem" fill="none" stroke="#000000" stroke-width="8.27" stroke-linejoin="bevel" points="1752.6,2799.45 1752.6,2523.97" />
<polyline class="Stem" fill="none" stroke="#000000" stroke-width="8.27" stroke-linejoin="bevel" points="8139.9,1793.1 8139.9,2068.58" />
<polyline class="Stem" fill="none" stroke="#000000" stroke-width="8.27" stroke-linejoin="bevel" points="4630.63,1793.1 4630.63,2068.25" />
<polyline class="Stem" fill="none" stroke="#000000" stroke-width="8.27" stroke-linejoin="bevel" points="3045.53,1834.44 3045.53,2088.92" />
<polyline class="Stem" fill="none" stroke="#000000" stroke-width="8.27" stroke-linejoin="bevel" points="1292.39,2799.45 1292.39,2523.31" />
<polyline class="Stem" fill="none" stroke="#000000" stroke-width="8.27" stroke-linejoin="bevel" points="4015.04,1021.89 4015.04,767.077" />
<polyline class="Stem" fill="none" stroke="#000000" stroke-width="8.27" stroke-linejoin="bevel" points="3411.43,1104.57 3411.43,828.424" />
<polyline class="Stem" fill="none" stroke="#000000" stroke-width="8.27" stroke-linejoin="bevel" points="3395.27,1834.44 3395.27,2089.25" />
<polyline class="Stem" fill="none" stroke="#000000" stroke-width="8.27" stroke-linejoin="bevel" points="2458.07,1063.23 2458.07,828.424" />
<polyline class="Stem" fill="none" stroke="#000000" stroke-width="8.27" stroke-linejoin="bevel" points="8435.11,1834.44 8435.11,2088.92" />
<polyline class="Stem" fill="none" stroke="#000000" stroke-width="8.27" stroke-linejoin="bevel" points="3690.48,1834.44 3690.48,2088.92" />
<polyline class="Stem" fill="none" stroke="#000000" stroke-width="8.27" stroke-linejoin="bevel" points="2659.28,1104.57 2659.28,828.424" />
<polyline class="Stem" fill="none" stroke="#000000" stroke-width="8.27" stroke-linejoin="bevel" points="9026.33,1890 9026.33,1635.19" />
<polyline class="Stem" fill="none" stroke="#000000" stroke-width="8.27" stroke-linejoin="bevel" points="3713.24,1104.57 3713.24,828.424" />
<polyline class="Stem" fill="none" stroke="#000000" stroke-width="8.27" stroke-linejoin="bevel" points="4280.89,1834.44 4280.89,2089.25" />
<polyline class="Stem" fill="none" stroke="#000000" stroke-width="8.27" stroke-linejoin="bevel" points="4084.09,1875.78 4084.09,2089.25" />
<polyline class="Stem" fill="none" stroke="#000000" stroke-width="8.27" stroke-linejoin="bevel" points="6653.2,1793.1 6653.2,2047.91" />
<path class="Hook" d="M9022.2,1709.66 C9022.2,1710.66 9022.53,1712.31 9024.84,1713.3 C9039.08,1717.94 9067.54,1735.81 9089.06,1772.55 C9095.02,1782.81 9104.61,1797.05 9104.61,1824.52 C9104.61,1848.35 9098.33,1872.85 9089.72,1896.68 C9089.06,1898.66 9088.4,1900.32 9088.73,1901.64 C9088.73,1903.63 9090.05,1904.95 9092.04,1904.95 C9094.35,1904.95 9096.01,1903.63 9097.33,1901.31 C9112.23,1874.83 9117.85,1844.05 9117.85,1813.93 C9116.2,1771.23 9091.71,1739.78 9091.71,1739.78 C9092.7,1739.78 9061.25,1699.07 9052.32,1685.17 C9040.07,1666.3 9034.44,1647.44 9033.78,1646.11 C9033.45,1645.12 9030.47,1633.2 9030.47,1633.2 C9030.14,1631.88 9028.48,1630.55 9026.5,1630.55 C9024.18,1630.55 9022.2,1632.54 9022.2,1634.86 L9022.2,1709.66 "/>
<path class="Hook" d="M3686.34,2088.92 C3686.34,2091.24 3688.33,2093.22 3690.65,2093.22 C3692.3,2093.22 3694.29,2091.9 3694.62,2090.57 C3694.62,2090.24 3697.6,2078.66 3697.93,2077.67 C3698.26,2076.34 3701.24,2063.76 3713.15,2044.23 C3726.06,2022.72 3745.92,2007.16 3762.47,1983.99 C3778.69,1960.82 3788.62,1938.98 3788.62,1909.85 C3788.62,1879.73 3781.67,1854.57 3764.13,1822.46 C3763.13,1820.15 3761.15,1818.82 3759.16,1818.82 C3758.5,1818.82 3757.84,1818.82 3757.51,1819.15 C3755.85,1819.82 3755.19,1821.14 3755.19,1823.13 C3755.19,1824.12 3755.52,1825.77 3756.18,1827.1 C3769.42,1857.88 3774.72,1875.42 3774.72,1899.26 C3774.72,1926.73 3765.12,1940.96 3759.16,1951.22 C3737.65,1987.96 3702.89,2005.84 3688.99,2010.47 C3686.67,2011.47 3686.34,2013.12 3686.34,2014.11 L3686.34,2088.92 "/>
<path class="Hook" d="M8430.97,2088.92 C8430.97,2091.24 8432.96,2093.22 8435.27,2093.22 C8436.93,2093.22 8438.92,2091.9 8439.25,2090.57 C8439.25,2090.24 8442.23,2078.66 8442.56,2077.67 C8442.89,2076.34 8445.87,2063.76 8457.78,2044.23 C8470.69,2022.72 8490.55,2007.16 8507.1,1983.99 C8523.32,1960.82 8533.25,1938.98 8533.25,1909.85 C8533.25,1879.73 8526.3,1854.57 8508.76,1822.46 C8507.76,1820.15 8505.78,1818.82 8503.79,1818.82 C8503.13,1818.82 8502.47,1818.82 8502.14,1819.15 C8500.48,1819.82 8499.82,1821.14 8499.82,1823.13 C8499.82,1824.12 8500.15,1825.77 8500.81,1827.1 C8514.05,1857.88 8519.35,1875.42 8519.35,1899.26 C8519.35,1926.73 8509.75,1940.96 8503.79,1951.22 C8482.28,1987.96 8447.52,2005.84 8433.62,2010.47 C8431.3,2011.47 8430.97,2013.12 8430.97,2014.11 L8430.97,2088.92 "/>
<path class="Hook" d="M4010.91,841.553 C4010.91,842.546 4011.24,844.201 4013.56,845.194 C4027.79,849.828 4056.26,867.702 4077.77,904.443 C4083.73,914.704 4093.33,928.937 4093.33,956.41 C4093.33,980.242 4087.04,1004.74 4078.43,1028.57 C4077.77,1030.55 4077.11,1032.21 4077.44,1033.53 C4077.44,1035.52 4078.76,1036.84 4080.75,1036.84 C4083.07,1036.84 4084.72,1035.52 4086.05,1033.2 C4100.94,1006.72 4106.57,975.939 4106.57,945.818 C4104.91,903.119 4080.42,871.674 4080.42,871.674 C4081.41,871.674 4049.97,830.961 4041.03,817.059 C4028.78,798.192 4023.16,779.325 4022.49,778.001 C4022.16,777.008 4019.18,765.092 4019.18,765.092 C4018.85,763.768 4017.2,762.444 4015.21,762.444 C4012.9,762.444 4010.91,764.43 4010.91,766.747 L4010.91,841.553 "/>
<path class="Hook" d="M4626.49,2068.25 C4626.49,2070.57 4628.48,2072.55 4630.8,2072.55 C4632.45,2072.55 4634.44,2071.23 4634.77,2069.91 C4634.77,2069.57 4637.75,2057.99 4638.08,2057 C4638.41,2055.67 4641.39,2043.09 4653.3,2023.57 C4666.21,2002.05 4686.07,1986.49 4702.62,1963.32 C4718.84,1940.15 4728.77,1918.31 4728.77,1889.18 C4728.77,1859.06 4721.82,1833.9 4704.28,1801.8 C4703.29,1799.48 4701.3,1798.15 4699.31,1798.15 C4698.65,1798.15 4697.99,1798.15 4697.66,1798.49 C4696,1799.15 4695.34,1800.47 4695.34,1802.46 C4695.34,1803.45 4695.67,1805.11 4696.33,1806.43 C4709.57,1837.21 4714.87,1854.76 4714.87,1878.59 C4714.87,1906.06 4705.27,1920.29 4699.31,1930.55 C4677.8,1967.3 4643.04,1985.17 4629.14,1989.8 C4626.82,1990.8 4626.49,1992.45 4626.49,1993.44 L4626.49,2068.25 "/>
<path class="Hook" d="M3041.4,2088.92 C3041.4,2091.24 3043.38,2093.22 3045.7,2093.22 C3047.36,2093.22 3049.34,2091.9 3049.67,2090.57 C3049.67,2090.24 3052.65,2078.66 3052.98,2077.67 C3053.31,2076.34 3056.29,2063.76 3068.21,2044.23 C3081.12,2022.72 3100.98,2007.16 3117.53,1983.99 C3133.75,1960.82 3143.68,1938.98 3143.68,1909.85 C3143.68,1879.73 3136.73,1854.57 3119.18,1822.46 C3118.19,1820.15 3116.2,1818.82 3114.22,1818.82 C3113.56,1818.82 3112.89,1818.82 3112.56,1819.15 C3110.91,1819.82 3110.25,1821.14 3110.25,1823.13 C3110.25,1824.12 3110.58,1825.77 3111.24,1827.1 C3124.48,1857.88 3129.77,1875.42 3129.77,1899.26 C3129.77,1926.73 3120.18,1940.96 3114.22,1951.22 C3092.7,1987.96 3057.95,2005.84 3044.05,2010.47 C3041.73,2011.47 3041.4,2013.12 3041.4,2014.11 L3041.4,2088.92 "/>
<path class="Hook" d="M1748.47,2598.44 C1748.47,2599.44 1748.8,2601.09 1751.12,2602.08 C1765.35,2606.72 1793.82,2624.59 1815.33,2661.33 C1821.29,2671.59 1830.89,2685.83 1830.89,2713.3 C1830.89,2737.13 1824.6,2761.63 1815.99,2785.46 C1815.33,2787.44 1814.67,2789.1 1815,2790.42 C1815,2792.41 1816.32,2793.73 1818.31,2793.73 C1820.63,2793.73 1822.28,2792.41 1823.61,2790.09 C1838.5,2763.61 1844.13,2732.83 1844.13,2702.71 C1842.47,2660.01 1817.98,2628.56 1817.98,2628.56 C1818.97,2628.56 1787.53,2587.85 1778.59,2573.95 C1766.34,2555.08 1760.72,2536.21 1760.05,2534.89 C1759.72,2533.9 1756.74,2521.98 1756.74,2521.98 C1756.41,2520.66 1754.76,2519.33 1752.77,2519.33 C1750.45,2519.33 1748.47,2521.32 1748.47,2523.64 L1748.47,2598.44 "/>
<path class="Hook" d="M4708.42,903.561 C4708.42,904.554 4708.75,906.209 4711.07,907.202 C4725.3,911.836 4753.77,929.71 4775.28,966.451 C4781.24,976.712 4790.84,990.945 4790.84,1018.42 C4790.84,1042.25 4784.55,1066.74 4775.95,1090.58 C4775.28,1092.56 4774.62,1094.22 4774.95,1095.54 C4774.95,1097.53 4776.28,1098.85 4778.26,1098.85 C4780.58,1098.85 4782.24,1097.53 4783.56,1095.21 C4798.45,1068.73 4804.08,1037.95 4804.08,1007.83 C4802.43,965.127 4777.93,933.682 4777.93,933.682 C4778.93,933.682 4747.48,892.969 4738.54,879.067 C4726.3,860.2 4720.67,841.333 4720.01,840.009 C4719.68,839.016 4716.7,827.1 4716.7,827.1 C4716.37,825.776 4714.71,824.452 4712.73,824.452 C4710.41,824.452 4708.42,826.438 4708.42,828.755 L4708.42,903.561 "/>
<path class="Hook" d="M2075.47,1854.35 C2075.47,1855.34 2075.8,1857 2078.12,1857.99 C2092.35,1862.62 2120.82,1880.5 2142.33,1917.24 C2148.29,1927.5 2157.89,1941.73 2157.89,1969.21 C2157.89,1993.04 2151.6,2017.53 2143,2041.36 C2142.33,2043.35 2141.67,2045 2142,2046.33 C2142,2048.31 2143.33,2049.64 2145.31,2049.64 C2147.63,2049.64 2149.29,2048.31 2150.61,2046 C2165.5,2019.52 2171.13,1988.73 2171.13,1958.61 C2169.48,1915.91 2144.98,1884.47 2144.98,1884.47 C2145.98,1884.47 2114.53,1843.76 2105.59,1829.85 C2093.35,1810.99 2087.72,1792.12 2087.06,1790.8 C2086.73,1789.8 2083.75,1777.89 2083.75,1777.89 C2083.42,1776.56 2081.76,1775.24 2079.78,1775.24 C2077.46,1775.24 2075.47,1777.23 2075.47,1779.54 L2075.47,1854.35 "/>
<path class="Hook" d="M3529.98,2598.44 C3529.98,2599.44 3530.31,2601.09 3532.63,2602.08 C3546.86,2606.72 3575.33,2624.59 3596.84,2661.33 C3602.8,2671.59 3612.4,2685.83 3612.4,2713.3 C3612.4,2737.13 3606.11,2761.63 3597.51,2785.46 C3596.84,2787.44 3596.18,2789.1 3596.51,2790.42 C3596.51,2792.41 3597.84,2793.73 3599.82,2793.73 C3602.14,2793.73 3603.8,2792.41 3605.12,2790.09 C3620.01,2763.61 3625.64,2732.83 3625.64,2702.71 C3623.99,2660.01 3599.49,2628.56 3599.49,2628.56 C3600.49,2628.56 3569.04,2587.85 3560.1,2573.95 C3547.86,2555.08 3542.23,2536.21 3541.57,2534.89 C3541.24,2533.9 3538.26,2521.98 3538.26,2521.98 C3537.93,2520.66 3536.27,2519.33 3534.29,2519.33 C3531.97,2519.33 3529.98,2521.32 3529.98,2523.64 L3529.98,2598.44 "/>
<path class="Hook" d="M1583.46,1771.67 C1583.46,1772.66 1583.79,1774.32 1586.11,1775.31 C1600.34,1779.95 1628.81,1797.82 1650.32,1834.56 C1656.28,1844.82 1665.88,1859.05 1665.88,1886.53 C1665.88,1910.36 1659.59,1934.85 1650.99,1958.69 C1650.32,1960.67 1649.66,1962.33 1649.99,1963.65 C1649.99,1965.64 1651.32,1966.96 1653.3,1966.96 C1655.62,1966.96 1657.27,1965.64 1658.6,1963.32 C1673.49,1936.84 1679.12,1906.06 1679.12,1875.94 C1677.47,1833.24 1652.97,1801.79 1652.97,1801.79 C1653.96,1801.79 1622.52,1761.08 1613.58,1747.18 C1601.34,1728.31 1595.71,1709.44 1595.05,1708.12 C1594.72,1707.13 1591.74,1695.21 1591.74,1695.21 C1591.41,1693.89 1589.75,1692.56 1587.76,1692.56 C1585.45,1692.56 1583.46,1694.55 1583.46,1696.86 L1583.46,1771.67 "/>
<path class="Hook" d="M5413.71,2068.25 C5413.71,2070.57 5415.7,2072.55 5418.02,2072.55 C5419.67,2072.55 5421.66,2071.23 5421.99,2069.91 C5421.99,2069.57 5424.97,2057.99 5425.3,2057 C5425.63,2055.67 5428.61,2043.09 5440.52,2023.57 C5453.43,2002.05 5473.29,1986.49 5489.84,1963.32 C5506.06,1940.15 5515.99,1918.31 5515.99,1889.18 C5515.99,1859.06 5509.04,1833.9 5491.5,1801.8 C5490.5,1799.48 5488.52,1798.15 5486.53,1798.15 C5485.87,1798.15 5485.21,1798.15 5484.88,1798.49 C5483.22,1799.15 5482.56,1800.47 5482.56,1802.46 C5482.56,1803.45 5482.89,1805.11 5483.55,1806.43 C5496.79,1837.21 5502.09,1854.76 5502.09,1878.59 C5502.09,1906.06 5492.49,1920.29 5486.53,1930.55 C5465.02,1967.3 5430.26,1985.17 5416.36,1989.8 C5414.04,1990.8 5413.71,1992.45 5413.71,1993.44 L5413.71,2068.25 "/>
<path class="Hook" d="M9022.2,841.553 C9022.2,842.546 9022.53,844.201 9024.84,845.194 C9039.08,849.828 9067.54,867.702 9089.06,904.443 C9095.02,914.704 9104.61,928.937 9104.61,956.41 C9104.61,980.242 9098.33,1004.74 9089.72,1028.57 C9089.06,1030.55 9088.4,1032.21 9088.73,1033.53 C9088.73,1035.52 9090.05,1036.84 9092.04,1036.84 C9094.35,1036.84 9096.01,1035.52 9097.33,1033.2 C9112.23,1006.72 9117.85,975.939 9117.85,945.818 C9116.2,903.119 9091.71,871.674 9091.71,871.674 C9092.7,871.674 9061.25,830.961 9052.32,817.059 C9040.07,798.192 9034.44,779.325 9033.78,778.001 C9033.45,777.008 9030.47,765.092 9030.47,765.092 C9030.14,763.768 9028.48,762.444 9026.5,762.444 C9024.18,762.444 9022.2,764.43 9022.2,766.747 L9022.2,841.553 "/>
<path class="Hook" d="M7786.03,2026.91 C7786.03,2029.23 7788.01,2031.21 7790.33,2031.21 C7791.98,2031.21 7793.97,2029.89 7794.3,2028.57 C7794.3,2028.24 7797.28,2016.65 7797.61,2015.66 C7797.94,2014.33 7800.92,2001.76 7812.84,1982.23 C7825.75,1960.71 7845.61,1945.15 7862.16,1921.98 C7878.38,1898.81 7888.31,1876.97 7888.31,1847.84 C7888.31,1817.72 7881.35,1792.56 7863.81,1760.46 C7862.82,1758.14 7860.83,1756.82 7858.85,1756.82 C7858.18,1756.82 7857.52,1756.82 7857.19,1757.15 C7855.54,1757.81 7854.87,1759.13 7854.87,1761.12 C7854.87,1762.11 7855.21,1763.77 7855.87,1765.09 C7869.11,1795.87 7874.4,1813.42 7874.4,1837.25 C7874.4,1864.72 7864.8,1878.95 7858.85,1889.22 C7837.33,1925.96 7802.58,1943.83 7788.67,1948.46 C7786.36,1949.46 7786.03,1951.11 7786.03,1952.11 L7786.03,2026.91 "/>
<path class="Hook" d="M4875.45,2577.77 C4875.45,2578.77 4875.78,2580.42 4878.1,2581.41 C4892.33,2586.05 4920.79,2603.92 4942.31,2640.66 C4948.27,2650.92 4957.87,2665.16 4957.87,2692.63 C4957.87,2716.46 4951.58,2740.96 4942.97,2764.79 C4942.31,2766.77 4941.65,2768.43 4941.98,2769.75 C4941.98,2771.74 4943.3,2773.06 4945.29,2773.06 C4947.61,2773.06 4949.26,2771.74 4950.58,2769.42 C4965.48,2742.94 4971.11,2712.16 4971.11,2682.04 C4969.45,2639.34 4944.96,2607.89 4944.96,2607.89 C4945.95,2607.89 4914.51,2567.18 4905.57,2553.28 C4893.32,2534.41 4887.69,2515.55 4887.03,2514.22 C4886.7,2513.23 4883.72,2501.31 4883.72,2501.31 C4883.39,2499.99 4881.74,2498.66 4879.75,2498.66 C4877.43,2498.66 4875.45,2500.65 4875.45,2502.97 L4875.45,2577.77 "/>
<path class="Hook" d="M8217.37,841.553 C8217.37,842.546 8217.7,844.201 8220.02,845.194 C8234.25,849.828 8262.72,867.702 8284.24,904.443 C8290.19,914.704 8299.79,928.937 8299.79,956.41 C8299.79,980.242 8293.5,1004.74 8284.9,1028.57 C8284.24,1030.55 8283.57,1032.21 8283.9,1033.53 C8283.9,1035.52 8285.23,1036.84 8287.21,1036.84 C8289.53,1036.84 8291.19,1035.52 8292.51,1033.2 C8307.41,1006.72 8313.03,975.939 8313.03,945.818 C8311.38,903.119 8286.88,871.674 8286.88,871.674 C8287.88,871.674 8256.43,830.961 8247.49,817.059 C8235.25,798.192 8229.62,779.325 8228.96,778.001 C8228.63,777.008 8225.65,765.092 8225.65,765.092 C8225.32,763.768 8223.66,762.444 8221.68,762.444 C8219.36,762.444 8217.37,764.43 8217.37,766.747 L8217.37,841.553 "/>
<path class="Hook" d="M5211.44,986.238 C5211.44,987.231 5211.77,988.886 5214.08,989.879 C5228.32,994.513 5256.78,1012.39 5278.3,1049.13 C5284.26,1059.39 5293.86,1073.62 5293.86,1101.09 C5293.86,1124.93 5287.57,1149.42 5278.96,1173.25 C5278.3,1175.24 5277.64,1176.89 5277.97,1178.22 C5277.97,1180.2 5279.29,1181.53 5281.28,1181.53 C5283.59,1181.53 5285.25,1180.2 5286.57,1177.89 C5301.47,1151.41 5307.1,1120.62 5307.1,1090.5 C5305.44,1047.8 5280.95,1016.36 5280.95,1016.36 C5281.94,1016.36 5250.49,975.646 5241.56,961.744 C5229.31,942.877 5223.68,924.01 5223.02,922.686 C5222.69,921.693 5219.71,909.777 5219.71,909.777 C5219.38,908.453 5217.73,907.129 5215.74,907.129 C5213.42,907.129 5211.44,909.115 5211.44,911.432 L5211.44,986.238 "/>
<path class="Hook" d="M6102.68,2577.77 C6102.68,2578.77 6103.01,2580.42 6105.33,2581.41 C6119.56,2586.05 6148.03,2603.92 6169.55,2640.66 C6175.5,2650.92 6185.1,2665.16 6185.1,2692.63 C6185.1,2716.46 6178.81,2740.96 6170.21,2764.79 C6169.55,2766.77 6168.88,2768.43 6169.21,2769.75 C6169.21,2771.74 6170.54,2773.06 6172.52,2773.06 C6174.84,2773.06 6176.5,2771.74 6177.82,2769.42 C6192.72,2742.94 6198.34,2712.16 6198.34,2682.04 C6196.69,2639.34 6172.19,2607.89 6172.19,2607.89 C6173.19,2607.89 6141.74,2567.18 6132.8,2553.28 C6120.56,2534.41 6114.93,2515.55 6114.27,2514.22 C6113.94,2513.23 6110.96,2501.31 6110.96,2501.31 C6110.63,2499.99 6108.97,2498.66 6106.99,2498.66 C6104.67,2498.66 6102.68,2500.65 6102.68,2502.97 L6102.68,2577.77 "/>
<path class="Hook" d="M6058.66,2068.25 C6058.66,2070.57 6060.64,2072.55 6062.96,2072.55 C6064.61,2072.55 6066.6,2071.23 6066.93,2069.91 C6066.93,2069.57 6069.91,2057.99 6070.24,2057 C6070.57,2055.67 6073.55,2043.09 6085.47,2023.57 C6098.38,2002.05 6118.24,1986.49 6134.79,1963.32 C6151.01,1940.15 6160.94,1918.31 6160.94,1889.18 C6160.94,1859.06 6153.98,1833.9 6136.44,1801.8 C6135.45,1799.48 6133.46,1798.15 6131.48,1798.15 C6130.81,1798.15 6130.15,1798.15 6129.82,1798.49 C6128.17,1799.15 6127.5,1800.47 6127.5,1802.46 C6127.5,1803.45 6127.84,1805.11 6128.5,1806.43 C6141.74,1837.21 6147.03,1854.76 6147.03,1878.59 C6147.03,1906.06 6137.43,1920.29 6131.48,1930.55 C6109.96,1967.3 6075.21,1985.17 6061.3,1989.8 C6058.99,1990.8 6058.66,1992.45 6058.66,1993.44 L6058.66,2068.25 "/>
<path class="Hook" d="M6987.93,2639.78 C6987.93,2640.77 6988.27,2642.43 6990.58,2643.42 C7004.82,2648.06 7033.28,2665.93 7054.8,2702.67 C7060.75,2712.93 7070.35,2727.17 7070.35,2754.64 C7070.35,2778.47 7064.06,2802.96 7055.46,2826.8 C7054.8,2828.78 7054.13,2830.44 7054.47,2831.76 C7054.47,2833.75 7055.79,2835.07 7057.78,2835.07 C7060.09,2835.07 7061.75,2833.75 7063.07,2831.43 C7077.97,2804.95 7083.59,2774.17 7083.59,2744.05 C7081.94,2701.35 7057.44,2669.9 7057.44,2669.9 C7058.44,2669.9 7026.99,2629.19 7018.06,2615.29 C7005.81,2596.42 7000.18,2577.55 6999.52,2576.23 C6999.19,2575.24 6996.21,2563.32 6996.21,2563.32 C6995.88,2562 6994.22,2560.67 6992.24,2560.67 C6989.92,2560.67 6987.93,2562.66 6987.93,2564.98 L6987.93,2639.78 "/>
<path class="Hook" d="M7241.49,862.222 C7241.49,863.215 7241.82,864.87 7244.14,865.863 C7258.37,870.497 7286.83,888.371 7308.35,925.112 C7314.31,935.373 7323.91,949.606 7323.91,977.079 C7323.91,1000.91 7317.62,1025.41 7309.01,1049.24 C7308.35,1051.22 7307.69,1052.88 7308.02,1054.2 C7308.02,1056.19 7309.34,1057.51 7311.33,1057.51 C7313.65,1057.51 7315.3,1056.19 7316.62,1053.87 C7331.52,1027.39 7337.15,996.608 7337.15,966.487 C7335.49,923.788 7311,892.343 7311,892.343 C7311.99,892.343 7280.55,851.63 7271.61,837.728 C7259.36,818.861 7253.73,799.994 7253.07,798.67 C7252.74,797.677 7249.76,785.761 7249.76,785.761 C7249.43,784.437 7247.78,783.113 7245.79,783.113 C7243.47,783.113 7241.49,785.099 7241.49,787.416 L7241.49,862.222 "/>
<path class="Hook" d="M7754.96,2722.46 C7754.96,2723.45 7755.29,2725.11 7757.61,2726.1 C7771.84,2730.73 7800.3,2748.61 7821.82,2785.35 C7827.78,2795.61 7837.38,2809.84 7837.38,2837.32 C7837.38,2861.15 7831.09,2885.64 7822.48,2909.47 C7821.82,2911.46 7821.16,2913.11 7821.49,2914.44 C7821.49,2916.42 7822.81,2917.75 7824.8,2917.75 C7827.12,2917.75 7828.77,2916.42 7830.09,2914.11 C7844.99,2887.63 7850.62,2856.84 7850.62,2826.72 C7848.96,2784.02 7824.47,2752.58 7824.47,2752.58 C7825.46,2752.58 7794.02,2711.87 7785.08,2697.96 C7772.83,2679.1 7767.2,2660.23 7766.54,2658.91 C7766.21,2657.91 7763.23,2646 7763.23,2646 C7762.9,2644.67 7761.25,2643.35 7759.26,2643.35 C7756.94,2643.35 7754.96,2645.34 7754.96,2647.65 L7754.96,2722.46 "/>
<path class="Hook" d="M5908.95,1027.58 C5908.95,1028.57 5909.28,1030.22 5911.6,1031.22 C5925.83,1035.85 5954.3,1053.73 5975.81,1090.47 C5981.77,1100.73 5991.37,1114.96 5991.37,1142.43 C5991.37,1166.27 5985.08,1190.76 5976.47,1214.59 C5975.81,1216.58 5975.15,1218.23 5975.48,1219.56 C5975.48,1221.54 5976.81,1222.87 5978.79,1222.87 C5981.11,1222.87 5982.76,1221.54 5984.09,1219.23 C5998.98,1192.75 6004.61,1161.96 6004.61,1131.84 C6002.95,1089.14 5978.46,1057.7 5978.46,1057.7 C5979.45,1057.7 5948.01,1016.98 5939.07,1003.08 C5926.82,984.215 5921.2,965.348 5920.54,964.024 C5920.2,963.031 5917.23,951.115 5917.23,951.115 C5916.89,949.791 5915.24,948.467 5913.25,948.467 C5910.94,948.467 5908.95,950.453 5908.95,952.77 L5908.95,1027.58 "/>
<path class="Hook" d="M6998.81,2026.91 C6998.81,2029.23 7000.79,2031.21 7003.11,2031.21 C7004.77,2031.21 7006.75,2029.89 7007.08,2028.57 C7007.08,2028.24 7010.06,2016.65 7010.39,2015.66 C7010.72,2014.33 7013.7,2001.76 7025.62,1982.23 C7038.53,1960.71 7058.39,1945.15 7074.94,1921.98 C7091.16,1898.81 7101.09,1876.97 7101.09,1847.84 C7101.09,1817.72 7094.14,1792.56 7076.59,1760.46 C7075.6,1758.14 7073.61,1756.82 7071.63,1756.82 C7070.97,1756.82 7070.3,1756.82 7069.97,1757.15 C7068.32,1757.81 7067.66,1759.13 7067.66,1761.12 C7067.66,1762.11 7067.99,1763.77 7068.65,1765.09 C7081.89,1795.87 7087.19,1813.42 7087.19,1837.25 C7087.19,1864.72 7077.59,1878.95 7071.63,1889.22 C7050.11,1925.96 7015.36,1943.83 7001.46,1948.46 C6999.14,1949.46 6998.81,1951.11 6998.81,1952.11 L6998.81,2026.91 "/>
<path class="Hook" d="M1454.62,862.222 C1454.62,863.215 1454.95,864.87 1457.26,865.863 C1471.5,870.497 1499.96,888.371 1521.48,925.112 C1527.44,935.373 1537.04,949.606 1537.04,977.079 C1537.04,1000.91 1530.75,1025.41 1522.14,1049.24 C1521.48,1051.22 1520.82,1052.88 1521.15,1054.2 C1521.15,1056.19 1522.47,1057.51 1524.46,1057.51 C1526.77,1057.51 1528.43,1056.19 1529.75,1053.87 C1544.65,1027.39 1550.28,996.608 1550.28,966.487 C1548.62,923.788 1524.13,892.343 1524.13,892.343 C1525.12,892.343 1493.67,851.63 1484.74,837.728 C1472.49,818.861 1466.86,799.994 1466.2,798.67 C1465.87,797.677 1462.89,785.761 1462.89,785.761 C1462.56,784.437 1460.91,783.113 1458.92,783.113 C1456.6,783.113 1454.62,785.099 1454.62,787.416 L1454.62,862.222 "/>
<path class="Hook" d="M3206.09,841.553 C3206.09,842.546 3206.42,844.201 3208.74,845.194 C3222.97,849.828 3251.43,867.702 3272.95,904.443 C3278.91,914.704 3288.51,928.937 3288.51,956.41 C3288.51,980.242 3282.22,1004.74 3273.61,1028.57 C3272.95,1030.55 3272.29,1032.21 3272.62,1033.53 C3272.62,1035.52 3273.94,1036.84 3275.93,1036.84 C3278.25,1036.84 3279.9,1035.52 3281.22,1033.2 C3296.12,1006.72 3301.75,975.939 3301.75,945.818 C3300.09,903.119 3275.6,871.674 3275.6,871.674 C3276.59,871.674 3245.15,830.961 3236.21,817.059 C3223.96,798.192 3218.33,779.325 3217.67,778.001 C3217.34,777.008 3214.36,765.092 3214.36,765.092 C3214.03,763.768 3212.38,762.444 3210.39,762.444 C3208.07,762.444 3206.09,764.43 3206.09,766.747 L3206.09,841.553 "/>
<path class="Note" d="M6255.46,1793.11 C6255.46,1807.35 6265.72,1823.23 6292.53,1823.23 C6326.96,1823.23 6363.04,1795.1 6363.04,1765.97 C6363.04,1746.44 6346.49,1735.52 6325.96,1735.52 C6293.86,1735.52 6255.46,1762.66 6255.46,1793.11"/>
<path class="Note" d="M6888.72,2867.92 C6888.72,2882.15 6898.98,2898.04 6925.79,2898.04 C6960.22,2898.04 6996.3,2869.9 6996.3,2840.77 C6996.3,2821.25 6979.75,2810.32 6959.23,2810.32 C6927.12,2810.32 6888.72,2837.46 6888.72,2867.92"/>
<path class="Note" d="M6452.27,1834.45 C6452.27,1848.68 6462.53,1864.57 6489.34,1864.57 C6523.76,1864.57 6559.84,1836.44 6559.84,1807.31 C6559.84,1787.78 6543.29,1776.86 6522.77,1776.86 C6490.66,1776.86 6452.27,1804 6452.27,1834.45"/>
<path class="Note" d="M2757.14,1090.36 C2757.14,1104.59 2767.4,1120.48 2794.21,1120.48 C2828.63,1120.48 2864.71,1092.34 2864.71,1063.22 C2864.71,1043.69 2848.16,1032.76 2827.64,1032.76 C2795.53,1032.76 2757.14,1059.91 2757.14,1090.36"/>
<path class="Note" d="M3883.15,1834.45 C3883.15,1848.68 3893.41,1864.57 3920.22,1864.57 C3954.64,1864.57 3990.72,1836.44 3990.72,1807.31 C3990.72,1787.78 3974.17,1776.86 3953.65,1776.86 C3921.54,1776.86 3883.15,1804 3883.15,1834.45"/>
<path class="Note" d="M6058.66,1793.11 C6058.66,1807.35 6068.92,1823.23 6095.73,1823.23 C6130.15,1823.23 6166.23,1795.1 6166.23,1765.97 C6166.23,1746.44 6149.68,1735.52 6129.16,1735.52 C6097.05,1735.52 6058.66,1762.66 6058.66,1793.11"/>
<path class="Note" d="M6998.81,1751.77 C6998.81,1766.01 7009.07,1781.9 7035.88,1781.9 C7070.3,1781.9 7106.38,1753.76 7106.38,1724.63 C7106.38,1705.1 7089.83,1694.18 7069.31,1694.18 C7037.2,1694.18 6998.81,1721.32 6998.81,1751.77"/>
<path class="Note" d="M5763.45,1793.11 C5763.45,1807.35 5773.71,1823.23 5800.52,1823.23 C5834.95,1823.23 5871.02,1795.1 5871.02,1765.97 C5871.02,1746.44 5854.47,1735.52 5833.95,1735.52 C5801.85,1735.52 5763.45,1762.66 5763.45,1793.11"/>
<path class="Note" d="M7195.61,1834.45 C7195.61,1848.68 7205.87,1864.57 7232.68,1864.57 C7267.11,1864.57 7303.19,1836.44 7303.19,1807.31 C7303.19,1787.78 7286.64,1776.86 7266.12,1776.86 C7234.01,1776.86 7195.61,1804 7195.61,1834.45"/>
<path class="Note" d="M3106.87,1049.02 C3106.87,1063.25 3117.14,1079.14 3143.95,1079.14 C3178.37,1079.14 3214.45,1051 3214.45,1021.88 C3214.45,1002.35 3197.9,991.425 3177.38,991.425 C3145.27,991.425 3106.87,1018.57 3106.87,1049.02"/>
<path class="Note" d="M7490.82,1834.45 C7490.82,1848.68 7501.08,1864.57 7527.89,1864.57 C7562.32,1864.57 7598.39,1836.44 7598.39,1807.31 C7598.39,1787.78 7581.84,1776.86 7561.32,1776.86 C7529.22,1776.86 7490.82,1804 7490.82,1834.45"/>
<path class="Note" d="M5413.71,1793.11 C5413.71,1807.35 5423.97,1823.23 5450.78,1823.23 C5485.21,1823.23 5521.29,1795.1 5521.29,1765.97 C5521.29,1746.44 5504.74,1735.52 5484.22,1735.52 C5452.11,1735.52 5413.71,1762.66 5413.71,1793.11"/>
<path class="Note" d="M5118.51,1958.47 C5118.51,1972.7 5128.77,1988.59 5155.58,1988.59 C5190,1988.59 5226.08,1960.45 5226.08,1931.33 C5226.08,1911.8 5209.53,1900.87 5189.01,1900.87 C5156.9,1900.87 5118.51,1928.02 5118.51,1958.47"/>
<path class="Note" d="M7786.03,1751.77 C7786.03,1766.01 7796.29,1781.9 7823.1,1781.9 C7857.52,1781.9 7893.6,1753.76 7893.6,1724.63 C7893.6,1705.1 7877.05,1694.18 7856.53,1694.18 C7824.42,1694.18 7786.03,1721.32 7786.03,1751.77"/>
<path class="Note" d="M4823.3,1958.47 C4823.3,1972.7 4833.56,1988.59 4860.37,1988.59 C4894.79,1988.59 4930.87,1960.45 4930.87,1931.33 C4930.87,1911.8 4914.32,1900.87 4893.8,1900.87 C4861.69,1900.87 4823.3,1928.02 4823.3,1958.47"/>
<path class="Note" d="M2555.93,1131.7 C2555.93,1145.93 2566.19,1161.82 2593,1161.82 C2627.43,1161.82 2663.51,1133.68 2663.51,1104.55 C2663.51,1085.02 2646.96,1074.1 2626.43,1074.1 C2594.33,1074.1 2555.93,1101.24 2555.93,1131.7"/>
<path class="Note" d="M4626.49,1793.11 C4626.49,1807.35 4636.75,1823.23 4663.57,1823.23 C4697.99,1823.23 4734.07,1795.1 4734.07,1765.97 C4734.07,1746.44 4717.52,1735.52 4697,1735.52 C4664.89,1735.52 4626.49,1762.66 4626.49,1793.11"/>
<path class="Note" d="M8135.76,1793.11 C8135.76,1807.35 8146.03,1823.23 8172.84,1823.23 C8207.26,1823.23 8243.34,1795.1 8243.34,1765.97 C8243.34,1746.44 8226.79,1735.52 8206.27,1735.52 C8174.16,1735.52 8135.76,1762.66 8135.76,1793.11"/>
<path class="Note" d="M3308.08,1131.7 C3308.08,1145.93 3318.34,1161.82 3345.15,1161.82 C3379.58,1161.82 3415.66,1133.68 3415.66,1104.55 C3415.66,1085.02 3399.11,1074.1 3378.58,1074.1 C3346.48,1074.1 3308.08,1101.24 3308.08,1131.7"/>
<path class="Note" d="M4276.76,1834.45 C4276.76,1848.68 4287.02,1864.57 4313.83,1864.57 C4348.25,1864.57 4384.33,1836.44 4384.33,1807.31 C4384.33,1787.78 4367.78,1776.86 4347.26,1776.86 C4315.15,1776.86 4276.76,1804 4276.76,1834.45"/>
<path class="Note" d="M8430.97,1834.45 C8430.97,1848.68 8441.23,1864.57 8468.04,1864.57 C8502.47,1864.57 8538.55,1836.44 8538.55,1807.31 C8538.55,1787.78 8522,1776.86 8501.47,1776.86 C8469.37,1776.86 8430.97,1804 8430.97,1834.45"/>
<path class="Note" d="M4079.95,1875.79 C4079.95,1890.02 4090.21,1905.91 4117.02,1905.91 C4151.45,1905.91 4187.53,1877.78 4187.53,1848.65 C4187.53,1829.12 4170.98,1818.2 4150.45,1818.2 C4118.35,1818.2 4079.95,1845.34 4079.95,1875.79"/>
<path class="Note" d="M8627.78,1875.79 C8627.78,1890.02 8638.04,1905.91 8664.85,1905.91 C8699.27,1905.91 8735.35,1877.78 8735.35,1848.65 C8735.35,1829.12 8718.8,1818.2 8698.28,1818.2 C8666.17,1818.2 8627.78,1845.34 8627.78,1875.79"/>
<path class="Note" d="M8541,2991.93 C8541,3006.17 8551.26,3022.05 8578.07,3022.05 C8612.49,3022.05 8648.57,2993.92 8648.57,2964.79 C8648.57,2945.26 8632.02,2934.34 8611.5,2934.34 C8579.39,2934.34 8541,2961.48 8541,2991.93"/>
<path class="Note" d="M3609.89,1131.7 C3609.89,1145.93 3620.15,1161.82 3646.96,1161.82 C3681.38,1161.82 3717.46,1133.68 3717.46,1104.55 C3717.46,1085.02 3700.91,1074.1 3680.39,1074.1 C3648.28,1074.1 3609.89,1101.24 3609.89,1131.7"/>
<path class="Note" d="M8922.98,1917.13 C8922.98,1931.36 8933.24,1947.25 8960.05,1947.25 C8994.48,1947.25 9030.56,1919.11 9030.56,1889.99 C9030.56,1870.46 9014.01,1859.53 8993.49,1859.53 C8961.38,1859.53 8922.98,1886.68 8922.98,1917.13"/>
<path class="Note" d="M3686.34,1834.45 C3686.34,1848.68 3696.6,1864.57 3723.41,1864.57 C3757.84,1864.57 3793.92,1836.44 3793.92,1807.31 C3793.92,1787.78 3777.37,1776.86 3756.85,1776.86 C3724.74,1776.86 3686.34,1804 3686.34,1834.45"/>
<path class="Note" d="M5507.93,1255.71 C5507.93,1269.94 5518.19,1285.83 5545,1285.83 C5579.43,1285.83 5615.5,1257.7 5615.5,1228.57 C5615.5,1209.04 5598.95,1198.12 5578.43,1198.12 C5546.33,1198.12 5507.93,1225.26 5507.93,1255.71"/>
<path class="Note" d="M2354.73,1090.36 C2354.73,1104.59 2364.99,1120.48 2391.8,1120.48 C2426.22,1120.48 2462.3,1092.34 2462.3,1063.22 C2462.3,1043.69 2445.75,1032.76 2425.23,1032.76 C2393.12,1032.76 2354.73,1059.91 2354.73,1090.36"/>
<path class="Note" d="M3391.14,1834.45 C3391.14,1848.68 3401.4,1864.57 3428.21,1864.57 C3462.63,1864.57 3498.71,1836.44 3498.71,1807.31 C3498.71,1787.78 3482.16,1776.86 3461.64,1776.86 C3429.53,1776.86 3391.14,1804 3391.14,1834.45"/>
<path class="Note" d="M2153.52,1090.36 C2153.52,1104.59 2163.78,1120.48 2190.59,1120.48 C2225.02,1120.48 2261.1,1092.34 2261.1,1063.22 C2261.1,1043.69 2244.55,1032.76 2224.02,1032.76 C2191.92,1032.76 2153.52,1059.91 2153.52,1090.36"/>
<path class="Note" d="M8080.78,2991.93 C8080.78,3006.17 8091.04,3022.05 8117.85,3022.05 C8152.28,3022.05 8188.36,2993.92 8188.36,2964.79 C8188.36,2945.26 8171.81,2934.34 8151.29,2934.34 C8119.18,2934.34 8080.78,2961.48 8080.78,2991.93"/>
<path class="Note" d="M5809.74,1255.71 C5809.74,1269.94 5820,1285.83 5846.81,1285.83 C5881.23,1285.83 5917.31,1257.7 5917.31,1228.57 C5917.31,1209.04 5900.76,1198.12 5880.24,1198.12 C5848.13,1198.12 5809.74,1225.26 5809.74,1255.71"/>
<path class="Note" d="M3041.4,1834.45 C3041.4,1848.68 3051.66,1864.57 3078.47,1864.57 C3112.89,1864.57 3148.97,1836.44 3148.97,1807.31 C3148.97,1787.78 3132.42,1776.86 3111.9,1776.86 C3079.79,1776.86 3041.4,1804 3041.4,1834.45"/>
<path class="Note" d="M1189.04,2826.58 C1189.04,2840.81 1199.3,2856.7 1226.11,2856.7 C1260.54,2856.7 1296.62,2828.56 1296.62,2799.44 C1296.62,2779.91 1280.07,2768.98 1259.54,2768.98 C1227.44,2768.98 1189.04,2796.13 1189.04,2826.58"/>
<path class="Note" d="M6052.49,1255.71 C6052.49,1269.94 6062.75,1285.83 6089.56,1285.83 C6123.99,1285.83 6160.06,1257.7 6160.06,1228.57 C6160.06,1209.04 6143.51,1198.12 6122.99,1198.12 C6090.89,1198.12 6052.49,1225.26 6052.49,1255.71"/>
<path class="Note" d="M2667.17,2123.82 C2667.17,2138.05 2677.43,2153.94 2704.24,2153.94 C2738.67,2153.94 2774.75,2125.81 2774.75,2096.68 C2774.75,2077.15 2758.2,2066.23 2737.68,2066.23 C2705.57,2066.23 2667.17,2093.37 2667.17,2123.82"/>
<path class="Note" d="M1649.26,2826.58 C1649.26,2840.81 1659.52,2856.7 1686.33,2856.7 C1720.75,2856.7 1756.83,2828.56 1756.83,2799.44 C1756.83,2779.91 1740.28,2768.98 1719.76,2768.98 C1687.65,2768.98 1649.26,2796.13 1649.26,2826.58"/>
<path class="Note" d="M3911.7,1049.02 C3911.7,1063.25 3921.96,1079.14 3948.77,1079.14 C3983.19,1079.14 4019.27,1051 4019.27,1021.88 C4019.27,1002.35 4002.72,991.425 3982.2,991.425 C3950.09,991.425 3911.7,1018.57 3911.7,1049.02"/>
<path class="Note" d="M1956.06,2826.58 C1956.06,2840.81 1966.33,2856.7 1993.14,2856.7 C2027.56,2856.7 2063.64,2828.56 2063.64,2799.44 C2063.64,2779.91 2047.09,2768.98 2026.57,2768.98 C1994.46,2768.98 1956.06,2796.13 1956.06,2826.58"/>
<path class="Note" d="M2371.97,2123.82 C2371.97,2138.05 2382.23,2153.94 2409.04,2153.94 C2443.46,2153.94 2479.54,2125.81 2479.54,2096.68 C2479.54,2077.15 2462.99,2066.23 2442.47,2066.23 C2410.36,2066.23 2371.97,2093.37 2371.97,2123.82"/>
<path class="Note" d="M2416.28,2909.25 C2416.28,2923.49 2426.54,2939.38 2453.35,2939.38 C2487.77,2939.38 2523.85,2911.24 2523.85,2882.11 C2523.85,2862.58 2507.3,2851.66 2486.78,2851.66 C2454.67,2851.66 2416.28,2878.8 2416.28,2909.25"/>
<path class="Note" d="M6354.3,1173.03 C6354.3,1187.27 6364.56,1203.16 6391.37,1203.16 C6425.79,1203.16 6461.87,1175.02 6461.87,1145.89 C6461.87,1126.36 6445.32,1115.44 6424.8,1115.44 C6392.69,1115.44 6354.3,1142.58 6354.3,1173.03"/>
<path class="Note" d="M4307.4,1090.36 C4307.4,1104.59 4317.66,1120.48 4344.47,1120.48 C4378.9,1120.48 4414.98,1092.34 4414.98,1063.22 C4414.98,1043.69 4398.43,1032.76 4377.9,1032.76 C4345.8,1032.76 4307.4,1059.91 4307.4,1090.36"/>
<path class="Note" d="M2620.82,2867.92 C2620.82,2882.15 2631.08,2898.04 2657.89,2898.04 C2692.31,2898.04 2728.39,2869.9 2728.39,2840.77 C2728.39,2821.25 2711.84,2810.32 2691.32,2810.32 C2659.21,2810.32 2620.82,2837.46 2620.82,2867.92"/>
<path class="Note" d="M1976.26,2082.48 C1976.26,2096.72 1986.52,2112.6 2013.33,2112.6 C2047.76,2112.6 2083.84,2084.47 2083.84,2055.34 C2083.84,2035.81 2067.29,2024.89 2046.76,2024.89 C2014.66,2024.89 1976.26,2052.03 1976.26,2082.48"/>
<path class="Note" d="M1952.31,1131.7 C1952.31,1145.93 1962.58,1161.82 1989.39,1161.82 C2023.81,1161.82 2059.89,1133.68 2059.89,1104.55 C2059.89,1085.02 2043.34,1074.1 2022.82,1074.1 C1990.71,1074.1 1952.31,1101.24 1952.31,1131.7"/>
<path class="Note" d="M1681.05,2041.14 C1681.05,2055.38 1691.31,2071.27 1718.13,2071.27 C1752.55,2071.27 1788.63,2043.13 1788.63,2014 C1788.63,1994.47 1772.08,1983.55 1751.56,1983.55 C1719.45,1983.55 1681.05,2010.69 1681.05,2041.14"/>
<path class="Note" d="M2970.56,2826.58 C2970.56,2840.81 2980.82,2856.7 3007.63,2856.7 C3042.05,2856.7 3078.13,2828.56 3078.13,2799.44 C3078.13,2779.91 3061.58,2768.98 3041.06,2768.98 C3008.95,2768.98 2970.56,2796.13 2970.56,2826.58"/>
<path class="Note" d="M1484.25,1999.81 C1484.25,2014.04 1494.51,2029.93 1521.32,2029.93 C1555.74,2029.93 1591.82,2001.79 1591.82,1972.66 C1591.82,1953.14 1575.27,1942.21 1554.75,1942.21 C1522.64,1942.21 1484.25,1969.35 1484.25,1999.81"/>
<path class="Note" d="M1189.04,1958.47 C1189.04,1972.7 1199.3,1988.59 1226.11,1988.59 C1260.54,1988.59 1296.62,1960.45 1296.62,1931.33 C1296.62,1911.8 1280.07,1900.87 1259.54,1900.87 C1227.44,1900.87 1189.04,1928.02 1189.04,1958.47"/>
<path class="Note" d="M3430.77,2826.58 C3430.77,2840.81 3441.03,2856.7 3467.84,2856.7 C3502.27,2856.7 3538.34,2828.56 3538.34,2799.44 C3538.34,2779.91 3521.79,2768.98 3501.27,2768.98 C3469.17,2768.98 3430.77,2796.13 3430.77,2826.58"/>
<path class="Note" d="M1355.4,1090.36 C1355.4,1104.59 1365.67,1120.48 1392.48,1120.48 C1426.9,1120.48 1462.98,1092.34 1462.98,1063.22 C1462.98,1043.69 1446.43,1032.76 1425.91,1032.76 C1393.8,1032.76 1355.4,1059.91 1355.4,1090.36"/>
<path class="Note" d="M3737.58,2826.58 C3737.58,2840.81 3747.84,2856.7 3774.65,2856.7 C3809.07,2856.7 3845.15,2828.56 3845.15,2799.44 C3845.15,2779.91 3828.6,2768.98 3808.08,2768.98 C3775.97,2768.98 3737.58,2796.13 3737.58,2826.58"/>
<path class="Note" d="M7655.75,2950.59 C7655.75,2964.83 7666.01,2980.71 7692.82,2980.71 C7727.24,2980.71 7763.32,2952.58 7763.32,2923.45 C7763.32,2903.92 7746.77,2893 7726.25,2893 C7694.14,2893 7655.75,2920.14 7655.75,2950.59"/>
<path class="Note" d="M6490.73,1131.7 C6490.73,1145.93 6500.99,1161.82 6527.8,1161.82 C6562.22,1161.82 6598.3,1133.68 6598.3,1104.55 C6598.3,1085.02 6581.75,1074.1 6561.23,1074.1 C6529.12,1074.1 6490.73,1101.24 6490.73,1131.7"/>
<path class="Note" d="M4044.39,2867.92 C4044.39,2882.15 4054.65,2898.04 4081.46,2898.04 C4115.88,2898.04 4151.96,2869.9 4151.96,2840.77 C4151.96,2821.25 4135.41,2810.32 4114.89,2810.32 C4082.78,2810.32 4044.39,2837.46 4044.39,2867.92"/>
<path class="Note" d="M4609.21,1131.7 C4609.21,1145.93 4619.47,1161.82 4646.28,1161.82 C4680.71,1161.82 4716.79,1133.68 4716.79,1104.55 C4716.79,1085.02 4700.24,1074.1 4679.71,1074.1 C4647.61,1074.1 4609.21,1101.24 4609.21,1131.7"/>
<path class="Note" d="M4351.2,2826.58 C4351.2,2840.81 4361.46,2856.7 4388.27,2856.7 C4422.69,2856.7 4458.77,2828.56 4458.77,2799.44 C4458.77,2779.91 4442.22,2768.98 4421.7,2768.98 C4389.59,2768.98 4351.2,2796.13 4351.2,2826.58"/>
<path class="Note" d="M8922.98,1049.02 C8922.98,1063.25 8933.24,1079.14 8960.05,1079.14 C8994.48,1079.14 9030.56,1051 9030.56,1021.88 C9030.56,1002.35 9014.01,991.425 8993.49,991.425 C8961.38,991.425 8922.98,1018.57 8922.98,1049.02"/>
<path class="Note" d="M7195.53,2909.25 C7195.53,2923.49 7205.79,2939.38 7232.6,2939.38 C7267.03,2939.38 7303.11,2911.24 7303.11,2882.11 C7303.11,2862.58 7286.56,2851.66 7266.03,2851.66 C7233.93,2851.66 7195.53,2878.8 7195.53,2909.25"/>
<path class="Note" d="M8621.17,1131.7 C8621.17,1145.93 8631.44,1161.82 8658.25,1161.82 C8692.67,1161.82 8728.75,1133.68 8728.75,1104.55 C8728.75,1085.02 8712.2,1074.1 8691.68,1074.1 C8659.57,1074.1 8621.17,1101.24 8621.17,1131.7"/>
<path class="Note" d="M8319.37,1131.7 C8319.37,1145.93 8329.63,1161.82 8356.44,1161.82 C8390.86,1161.82 8426.94,1133.68 8426.94,1104.55 C8426.94,1085.02 8410.39,1074.1 8389.87,1074.1 C8357.76,1074.1 8319.37,1101.24 8319.37,1131.7"/>
<path class="Note" d="M4776.23,2785.24 C4776.23,2799.47 4786.5,2815.36 4813.31,2815.36 C4847.73,2815.36 4883.81,2787.23 4883.81,2758.1 C4883.81,2738.57 4867.26,2727.65 4846.74,2727.65 C4814.63,2727.65 4776.23,2754.79 4776.23,2785.24"/>
<path class="Note" d="M8118.16,1049.02 C8118.16,1063.25 8128.42,1079.14 8155.23,1079.14 C8189.66,1079.14 8225.74,1051 8225.74,1021.88 C8225.74,1002.35 8209.19,991.425 8188.66,991.425 C8156.56,991.425 8118.16,1018.57 8118.16,1049.02"/>
<path class="Note" d="M5083.04,2867.92 C5083.04,2882.15 5093.3,2898.04 5120.12,2898.04 C5154.54,2898.04 5190.62,2869.9 5190.62,2840.77 C5190.62,2821.25 5174.07,2810.32 5153.55,2810.32 C5121.44,2810.32 5083.04,2837.46 5083.04,2867.92"/>
<path class="Note" d="M4810.42,1173.03 C4810.42,1187.27 4820.68,1203.16 4847.49,1203.16 C4881.91,1203.16 4917.99,1175.02 4917.99,1145.89 C4917.99,1126.36 4901.44,1115.44 4880.92,1115.44 C4848.81,1115.44 4810.42,1142.58 4810.42,1173.03"/>
<path class="Note" d="M5543.26,2867.92 C5543.26,2882.15 5553.52,2898.04 5580.33,2898.04 C5614.75,2898.04 5650.83,2869.9 5650.83,2840.77 C5650.83,2821.25 5634.28,2810.32 5613.76,2810.32 C5581.65,2810.32 5543.26,2837.46 5543.26,2867.92"/>
<path class="Note" d="M7768.42,1090.36 C7768.42,1104.59 7778.68,1120.48 7805.49,1120.48 C7839.92,1120.48 7876,1092.34 7876,1063.22 C7876,1043.69 7859.45,1032.76 7838.93,1032.76 C7806.82,1032.76 7768.42,1059.91 7768.42,1090.36"/>
<path class="Note" d="M7567.22,1131.7 C7567.22,1145.93 7577.48,1161.82 7604.29,1161.82 C7638.71,1161.82 7674.79,1133.68 7674.79,1104.55 C7674.79,1085.02 7658.24,1074.1 7637.72,1074.1 C7605.61,1074.1 7567.22,1101.24 7567.22,1131.7"/>
<path class="Note" d="M6003.47,2785.24 C6003.47,2799.47 6013.73,2815.36 6040.54,2815.36 C6074.97,2815.36 6111.05,2787.23 6111.05,2758.1 C6111.05,2738.57 6094.5,2727.65 6073.97,2727.65 C6041.87,2727.65 6003.47,2754.79 6003.47,2785.24"/>
<path class="Note" d="M1751.11,1090.36 C1751.11,1104.59 1761.37,1120.48 1788.18,1120.48 C1822.6,1120.48 1858.68,1092.34 1858.68,1063.22 C1858.68,1043.69 1842.13,1032.76 1821.61,1032.76 C1789.5,1032.76 1751.11,1059.91 1751.11,1090.36"/>
<path class="Note" d="M5112.22,1214.37 C5112.22,1228.61 5122.49,1244.49 5149.3,1244.49 C5183.72,1244.49 5219.8,1216.36 5219.8,1187.23 C5219.8,1167.7 5203.25,1156.78 5182.73,1156.78 C5150.62,1156.78 5112.22,1183.92 5112.22,1214.37"/>
<path class="Note" d="M7366.01,1090.36 C7366.01,1104.59 7376.27,1120.48 7403.08,1120.48 C7437.51,1120.48 7473.59,1092.34 7473.59,1063.22 C7473.59,1043.69 7457.04,1032.76 7436.51,1032.76 C7404.41,1032.76 7366.01,1059.91 7366.01,1090.36"/>
<path class="Note" d="M6428.51,2826.58 C6428.51,2840.81 6438.77,2856.7 6465.58,2856.7 C6500,2856.7 6536.08,2828.56 6536.08,2799.44 C6536.08,2779.91 6519.53,2768.98 6499.01,2768.98 C6466.9,2768.98 6428.51,2796.13 6428.51,2826.58"/>
<path class="Note" d="M7142.28,1090.36 C7142.28,1104.59 7152.54,1120.48 7179.35,1120.48 C7213.77,1120.48 7249.85,1092.34 7249.85,1063.22 C7249.85,1043.69 7233.3,1032.76 7212.78,1032.76 C7180.67,1032.76 7142.28,1059.91 7142.28,1090.36"/>
<path class="Note" d="M6840.47,1090.36 C6840.47,1104.59 6850.73,1120.48 6877.54,1120.48 C6911.96,1120.48 6948.04,1092.34 6948.04,1063.22 C6948.04,1043.69 6931.49,1032.76 6910.97,1032.76 C6878.86,1032.76 6840.47,1059.91 6840.47,1090.36"/>
<path class="Note" d="M6649.07,1793.11 C6649.07,1807.35 6659.33,1823.23 6686.14,1823.23 C6720.57,1823.23 6756.65,1795.1 6756.65,1765.97 C6756.65,1746.44 6740.1,1735.52 6719.57,1735.52 C6687.47,1735.52 6649.07,1762.66 6649.07,1793.11"/>
<path class="Clef" d="M909.689,2012.75 C903.069,2014.08 896.78,2014.74 890.491,2014.74 C843.158,2014.74 802.776,1981.64 802.776,1931.66 C802.776,1891.27 831.242,1855.2 860.37,1830.04 C865.997,1825.07 871.293,1820.44 876.258,1815.48 C879.237,1833.35 881.554,1848.91 883.871,1862.48 C853.75,1871.41 833.228,1903.19 833.228,1934.3 C833.228,1957.47 851.433,1989.25 877.913,1989.25 C880.561,1989.25 883.54,1987.93 883.54,1984.95 C883.54,1981.97 880.23,1980.31 876.258,1977.67 C863.349,1969.72 856.067,1961.12 856.067,1944.9 C856.067,1924.71 870.962,1908.49 890.491,1903.85 L909.689,2012.75 M880.561,1672.48 C883.54,1659.24 898.766,1624.49 915.978,1624.49 C920.943,1624.49 928.887,1640.71 928.887,1663.55 C928.887,1697.97 903.4,1723.79 880.561,1746.3 C878.575,1733.06 876.92,1720.15 876.92,1706.25 C876.92,1694 877.913,1682.74 880.561,1672.48 M956.691,1951.52 C956.691,1975.02 947.092,1999.18 923.591,2008.78 C916.64,1969.06 907.703,1916.43 905.386,1901.87 C935.176,1901.87 956.691,1922.06 956.691,1951.52 M811.051,2114.37 C811.051,2136.21 827.932,2165.01 872.617,2165.01 C888.174,2165.01 901.745,2161.04 913.661,2153.76 C931.535,2141.18 936.169,2119.33 936.169,2098.48 C936.169,2085.57 934.183,2070.68 930.873,2051.81 C929.88,2045.19 927.894,2035.26 925.908,2022.35 C958.346,2011.76 982.509,1978 982.509,1943.9 C982.509,1893.92 947.092,1860.16 898.766,1860.16 C895.456,1840.3 892.146,1820.77 889.167,1802.24 C924.253,1765.49 948.416,1724.12 948.416,1671.49 C948.416,1641.37 939.148,1616.88 933.852,1604.96 C925.908,1588.08 916.309,1576.49 910.351,1576.49 C908.034,1576.49 897.773,1580.47 886.85,1593.37 C865.666,1618.53 859.708,1660.9 859.708,1688.7 C859.708,1706.58 861.363,1722.8 866.99,1759.87 C866.659,1760.2 849.447,1777.74 842.496,1783.37 C812.375,1811.5 770.669,1851.55 770.669,1917.75 C770.669,1979.65 824.622,2028.31 886.188,2028.31 C895.787,2028.31 904.724,2027.32 912.337,2025.99 C918.626,2057.77 922.267,2080.94 922.267,2098.48 C922.267,2132.9 904.724,2151.11 871.293,2151.11 C863.349,2151.11 856.398,2149.45 855.736,2149.45 C855.405,2149.12 854.743,2148.79 854.743,2148.46 C854.743,2147.8 855.405,2147.47 856.398,2147.14 C871.955,2144.82 887.512,2131.58 887.512,2110.4 C887.512,2092.52 873.941,2073.66 849.116,2073.66 C825.946,2073.66 811.051,2092.52 811.051,2114.37"/>
<path class="Clef" d="M909.689,2880.86 C903.069,2882.19 896.78,2882.85 890.491,2882.85 C843.158,2882.85 802.776,2849.75 802.776,2799.77 C802.776,2759.38 831.242,2723.31 860.37,2698.15 C865.997,2693.18 871.293,2688.55 876.258,2683.59 C879.237,2701.46 881.554,2717.02 883.871,2730.59 C853.75,2739.52 833.228,2771.3 833.228,2802.41 C833.228,2825.58 851.433,2857.36 877.913,2857.36 C880.561,2857.36 883.54,2856.04 883.54,2853.06 C883.54,2850.08 880.23,2848.42 876.258,2845.78 C863.349,2837.83 856.067,2829.23 856.067,2813.01 C856.067,2792.82 870.962,2776.6 890.491,2771.96 L909.689,2880.86 M880.561,2540.59 C883.54,2527.35 898.766,2492.6 915.978,2492.6 C920.943,2492.6 928.887,2508.82 928.887,2531.66 C928.887,2566.08 903.4,2591.9 880.561,2614.41 C878.575,2601.17 876.92,2588.26 876.92,2574.36 C876.92,2562.11 877.913,2550.85 880.561,2540.59 M956.691,2819.63 C956.691,2843.13 947.092,2867.29 923.591,2876.89 C916.64,2837.17 907.703,2784.54 905.386,2769.98 C935.176,2769.98 956.691,2790.17 956.691,2819.63 M811.051,2982.48 C811.051,3004.32 827.932,3033.12 872.617,3033.12 C888.174,3033.12 901.745,3029.15 913.661,3021.87 C931.535,3009.29 936.169,2987.44 936.169,2966.59 C936.169,2953.68 934.183,2938.79 930.873,2919.92 C929.88,2913.3 927.894,2903.37 925.908,2890.46 C958.346,2879.87 982.509,2846.11 982.509,2812.01 C982.509,2762.03 947.092,2728.27 898.766,2728.27 C895.456,2708.41 892.146,2688.88 889.167,2670.35 C924.253,2633.6 948.416,2592.23 948.416,2539.6 C948.416,2509.48 939.148,2484.99 933.852,2473.07 C925.908,2456.19 916.309,2444.6 910.351,2444.6 C908.034,2444.6 897.773,2448.58 886.85,2461.48 C865.666,2486.64 859.708,2529.01 859.708,2556.81 C859.708,2574.69 861.363,2590.91 866.99,2627.98 C866.659,2628.31 849.447,2645.85 842.496,2651.48 C812.375,2679.61 770.669,2719.66 770.669,2785.86 C770.669,2847.76 824.622,2896.42 886.188,2896.42 C895.787,2896.42 904.724,2895.43 912.337,2894.1 C918.626,2925.88 922.267,2949.05 922.267,2966.59 C922.267,3001.01 904.724,3019.22 871.293,3019.22 C863.349,3019.22 856.398,3017.56 855.736,3017.56 C855.405,3017.23 854.743,3016.9 854.743,3016.57 C854.743,3015.91 855.405,3015.58 856.398,3015.25 C871.955,3012.93 887.512,2999.69 887.512,2978.51 C887.512,2960.63 873.941,2941.77 849.116,2941.77 C825.946,2941.77 811.051,2960.63 811.051,2982.48"/>
<path class="Clef" d="M909.689,1144.64 C903.069,1145.97 896.78,1146.63 890.491,1146.63 C843.158,1146.63 802.776,1113.53 802.776,1063.55 C802.776,1023.16 831.242,987.085 860.37,961.929 C865.997,956.964 871.293,952.33 876.258,947.365 C879.237,965.239 881.554,980.796 883.871,994.367 C853.75,1003.3 833.228,1035.08 833.228,1066.19 C833.228,1089.36 851.433,1121.14 877.913,1121.14 C880.561,1121.14 883.54,1119.82 883.54,1116.84 C883.54,1113.86 880.23,1112.2 876.258,1109.56 C863.349,1101.61 856.067,1093.01 856.067,1076.79 C856.067,1056.6 870.962,1040.38 890.491,1035.74 L909.689,1144.64 M880.561,804.373 C883.54,791.133 898.766,756.378 915.978,756.378 C920.943,756.378 928.887,772.597 928.887,795.436 C928.887,829.86 903.4,855.678 880.561,878.186 C878.575,864.946 876.92,852.037 876.92,838.135 C876.92,825.888 877.913,814.634 880.561,804.373 M956.691,1083.41 C956.691,1106.91 947.092,1131.07 923.591,1140.67 C916.64,1100.95 907.703,1048.32 905.386,1033.76 C935.176,1033.76 956.691,1053.95 956.691,1083.41 M811.051,1246.26 C811.051,1268.1 827.932,1296.9 872.617,1296.9 C888.174,1296.9 901.745,1292.93 913.661,1285.65 C931.535,1273.07 936.169,1251.22 936.169,1230.37 C936.169,1217.46 934.183,1202.57 930.873,1183.7 C929.88,1177.08 927.894,1167.15 925.908,1154.24 C958.346,1143.65 982.509,1109.89 982.509,1075.79 C982.509,1025.81 947.092,992.05 898.766,992.05 C895.456,972.19 892.146,952.661 889.167,934.125 C924.253,897.384 948.416,856.009 948.416,803.38 C948.416,773.259 939.148,748.765 933.852,736.849 C925.908,719.968 916.309,708.383 910.351,708.383 C908.034,708.383 897.773,712.355 886.85,725.264 C865.666,750.42 859.708,792.788 859.708,820.592 C859.708,838.466 861.363,854.685 866.99,891.757 C866.659,892.088 849.447,909.631 842.496,915.258 C812.375,943.393 770.669,983.444 770.669,1049.64 C770.669,1111.54 824.622,1160.2 886.188,1160.2 C895.787,1160.2 904.724,1159.21 912.337,1157.88 C918.626,1189.66 922.267,1212.83 922.267,1230.37 C922.267,1264.79 904.724,1283 871.293,1283 C863.349,1283 856.398,1281.34 855.736,1281.34 C855.405,1281.01 854.743,1280.68 854.743,1280.35 C854.743,1279.69 855.405,1279.36 856.398,1279.03 C871.955,1276.71 887.512,1263.47 887.512,1242.29 C887.512,1224.41 873.941,1205.55 849.116,1205.55 C825.946,1205.55 811.051,1224.41 811.051,1246.26"/>
<path class="TimeSig" d="M1130.56,979.772 C1119.64,979.772 1110.7,964.877 1110.7,946.341 C1110.7,927.805 1119.64,912.579 1130.56,912.579 C1141.48,912.579 1150.75,927.805 1150.75,946.341 C1150.75,964.877 1141.48,979.772 1130.56,979.772 M1142.81,897.022 C1122.62,897.022 1115.33,902.98 1110.7,907.945 C1109.71,900.994 1109.04,895.698 1109.04,890.402 C1109.04,871.535 1115.66,847.041 1138.83,847.041 C1147.11,847.041 1152.07,849.689 1155.38,853.33 C1148.43,856.309 1142.81,865.246 1142.81,872.859 C1142.81,884.775 1152.07,894.043 1163.99,894.043 C1175.91,894.043 1185.51,884.775 1185.51,872.859 L1185.51,871.866 C1185.51,868.887 1184.84,863.922 1183.52,861.274 C1179.22,849.358 1165.31,831.815 1132.21,831.815 C1102.42,831.815 1080.91,860.281 1074.29,875.507 C1070.98,883.451 1066.01,899.67 1066.01,918.206 C1066.01,938.397 1071.64,961.236 1091.17,978.448 C1110.37,993.012 1122.62,993.674 1134.2,993.674 C1145.79,993.674 1189.15,980.103 1189.15,941.707 C1189.15,909.269 1163.66,897.022 1142.81,897.022"/>
<path class="TimeSig" d="M1148.77,1060.58 C1126.26,1053.3 1101.44,1042.37 1101.44,1027.48 C1101.44,1014.57 1113.36,1009.27 1127.59,1009.27 C1148.11,1009.27 1162.01,1018.87 1162.01,1034.1 C1162.01,1049.99 1154.73,1057.6 1148.77,1060.58 M1127.59,1139.03 C1106.4,1139.03 1088.2,1127.44 1088.2,1108.9 C1088.2,1086.73 1105.41,1081.43 1105.41,1081.43 C1127.92,1089.04 1160.03,1100.3 1160.03,1118.5 C1160.03,1127.44 1148.44,1139.03 1127.59,1139.03 M1167.31,1069.52 C1178.23,1061.24 1185.84,1050.65 1185.84,1037.41 C1185.84,1013.58 1159.7,994.047 1127.59,994.047 C1095.48,994.047 1069.33,1013.58 1069.33,1037.41 C1069.33,1050.65 1072.64,1062.56 1088.2,1072.49 C1073.3,1081.1 1065.03,1093.35 1065.03,1109.24 C1065.03,1136.05 1093.16,1157.56 1127.59,1157.56 C1162.01,1157.56 1190.15,1136.05 1190.15,1109.24 C1190.15,1093.35 1184.52,1078.45 1167.31,1069.52"/>
<path class="Beam" fill-rule="evenodd" d="M7465.22,807.754 L7875.9,807.754 L7875.9,849.093 L7465.22,849.093 L7465.22,807.754 "/>
<path class="Beam" fill-rule="evenodd" d="M1850.32,807.754 L2261,807.754 L2261,849.093 L1850.32,849.093 L1850.32,807.754 "/>
<path class="Beam" fill-rule="evenodd" d="M6453.51,828.214 L6598.21,807.545 L6598.21,849.303 L6453.51,869.972 L6453.51,828.214 "/>
<path class="Beam" fill-rule="evenodd" d="M6453.51,890.222 L6598.21,869.552 L6598.21,911.311 L6453.51,931.98 L6453.51,890.222 "/>
<path class="Beam" fill-rule="evenodd" d="M3836.79,2543.97 L4458.68,2543.97 L4458.68,2585.31 L3836.79,2585.31 L3836.79,2543.97 "/>
<path class="Beam" fill-rule="evenodd" d="M2515.49,2564.55 L2728.3,2543.88 L2728.3,2585.41 L2515.49,2606.08 L2515.49,2564.55 "/>
<path class="Beam" fill-rule="evenodd" d="M2515.49,2626.55 L2728.3,2605.89 L2728.3,2647.42 L2515.49,2668.09 L2515.49,2626.55 "/>
<path class="Beam" fill-rule="evenodd" d="M2453.94,807.754 L2864.62,807.754 L2864.62,849.093 L2453.94,849.093 L2453.94,807.754 "/>
<path class="Beam" fill-rule="evenodd" d="M3883.15,2068.58 L4285.02,2068.58 L4285.02,2109.92 L3883.15,2109.92 L3883.15,2068.58 "/>
<path class="Beam" fill-rule="evenodd" d="M6255.46,2027.24 L6657.34,2027.24 L6657.34,2068.58 L6255.46,2068.58 L6255.46,2027.24 "/>
<path class="NoteDot" d="M2816,2068.58 C2816,2077.85 2823.29,2085.13 2832.55,2085.13 C2841.82,2085.13 2849.1,2077.85 2849.1,2068.58 C2849.1,2059.31 2841.82,2052.03 2832.55,2052.03 C2823.29,2052.03 2816,2059.31 2816,2068.58"/>
<path class="NoteDot" d="M8689.83,2936.69 C8689.83,2945.96 8697.11,2953.24 8706.38,2953.24 C8715.65,2953.24 8722.93,2945.96 8722.93,2936.69 C8722.93,2927.42 8715.65,2920.14 8706.38,2920.14 C8697.11,2920.14 8689.83,2927.42 8689.83,2936.69"/>
</svg>
