<?xml version="1.0" encoding="UTF-8" standalone="no"?>
<svg width="210.058mm" height="296.926mm" viewBox="0 0 9924 14028"
 xmlns="http://www.w3.org/2000/svg" xmlns:xlink="http://www.w3.org/1999/xlink" version="1.2" baseProfile="full">
<title>air_III.midi</title>
<desc>Generated by MuseScore Studio 4.7.3</desc>
<polyline class="StaffLines" fill="none" stroke="#000000" stroke-width="9.09" stroke-linejoin="bevel" points="708.661,828.424 9215.34,828.424" />
<polyline class="StaffLines" fill="none" stroke="#000000" stroke-width="9.09" stroke-linejoin="bevel" points="708.661,911.101 9215.34,911.101" />
<polyline class="StaffLines" fill="none" stroke="#000000" stroke-width="9.09" stroke-linejoin="bevel" points="708.661,993.778 9215.34,993.778" />
<polyline class="StaffLines" fill="none" stroke="#000000" stroke-width="9.09" stroke-linejoin="bevel" points="708.661,1076.46 9215.34,1076.46" />
<polyline class="StaffLines" fill="none" stroke="#000000" stroke-width="9.09" stroke-linejoin="bevel" points="708.661,1159.13 9215.34,1159.13" />
<polyline class="StaffLines" fill="none" stroke="#000000" stroke-width="9.09" stroke-linejoin="bevel" points="708.661,1696.53 9215.34,1696.53" />
<polyline class="StaffLines" fill="none" stroke="#000000" stroke-width="9.09" stroke-linejoin="bevel" points="708.661,1779.21 9215.34,1779.21" />
<polyline class="StaffLines" fill="none" stroke="#000000" stroke-width="9.09" stroke-linejoin="bevel" points="708.661,1861.89 9215.34,1861.89" />
<polyline class="StaffLines" fill="none" stroke="#000000" stroke-width="9.09" stroke-linejoin="bevel" points="708.661,1944.57 9215.34,1944.57" />
<polyline class="StaffLines" fill="none" stroke="#000000" stroke-width="9.09" stroke-linejoin="bevel" points="708.661,2027.24 9215.34,2027.24" />
<polyline class="StaffLines" fill="none" stroke="#000000" stroke-width="9.09" stroke-linejoin="bevel" points="708.661,2564.64 9215.34,2564.64" />
<polyline class="StaffLines" fill="none" stroke="#000000" stroke-width="9.09" stroke-linejoin="bevel" points="708.661,2647.32 9215.34,2647.32" />
<polyline class="StaffLines" fill="none" stroke="#000000" stroke-width="9.09" stroke-linejoin="bevel" points="708.661,2730 9215.34,2730" />
<polyline class="StaffLines" fill="none" stroke="#000000" stroke-width="9.09" stroke-linejoin="bevel" points="708.661,2812.68 9215.34,2812.68" />
<polyline class="StaffLines" fill="none" stroke="#000000" stroke-width="9.09" stroke-linejoin="bevel" points="708.661,2895.35 9215.34,2895.35" />
<polyline class="BarLine" fill="none" stroke="#000000" stroke-width="14.88" stroke-linejoin="bevel" points="5445.59,2560.1 5445.59,2899.9" />
<polyline class="BarLine" fill="none" stroke="#000000" stroke-width="45.47" stroke-linejoin="bevel" points="8634.8,823.876 8634.8,1163.68" />
<polyline class="BarLine" fill="none" stroke="#000000" stroke-width="14.88" stroke-linejoin="bevel" points="8695.57,823.876 8695.57,1163.68" />
<path class="BarLine" d="M8768.02,952.439 C8768.02,942.84 8760.41,934.896 8750.81,934.896 C8741.21,934.896 8733.6,942.84 8733.6,952.439 C8733.6,962.038 8741.21,969.982 8750.81,969.982 C8760.41,969.982 8768.02,962.038 8768.02,952.439"/>
<path class="BarLine" d="M8768.02,1035.12 C8768.02,1025.52 8760.41,1017.57 8750.81,1017.57 C8741.21,1017.57 8733.6,1025.52 8733.6,1035.12 C8733.6,1044.72 8741.21,1052.66 8750.81,1052.66 C8760.41,1052.66 8768.02,1044.72 8768.02,1035.12"/>
<polyline class="BarLine" fill="none" stroke="#000000" stroke-width="14.88" stroke-linejoin="bevel" points="3453.55,823.876 3453.55,1163.68" />
<polyline class="BarLine" fill="none" stroke="#000000" stroke-width="14.88" stroke-linejoin="bevel" points="3333.28,2560.1 3333.28,2899.9" />
<polyline class="BarLine" fill="none" stroke="#000000" stroke-width="14.88" stroke-linejoin="bevel" points="9207.9,1691.99 9207.9,2031.79" />
<path class="BarLine" d="M8536.03,952.439 C8536.03,942.84 8528.42,934.896 8518.82,934.896 C8509.22,934.896 8501.61,942.84 8501.61,952.439 C8501.61,962.038 8509.22,969.982 8518.82,969.982 C8528.42,969.982 8536.03,962.038 8536.03,952.439"/>
<path class="BarLine" d="M8536.03,1035.12 C8536.03,1025.52 8528.42,1017.57 8518.82,1017.57 C8509.22,1017.57 8501.61,1025.52 8501.61,1035.12 C8501.61,1044.72 8509.22,1052.66 8518.82,1052.66 C8528.42,1052.66 8536.03,1044.72 8536.03,1035.12"/>
<polyline class="BarLine" fill="none" stroke="#000000" stroke-width="14.88" stroke-linejoin="bevel" points="8574.04,823.876 8574.04,1163.68" />
<polyline class="BarLine" fill="none" stroke="#000000" stroke-width="45.47" stroke-linejoin="bevel" points="8634.8,823.876 8634.8,1163.68" />
<polyline class="BarLine" fill="none" stroke="#000000" stroke-width="14.88" stroke-linejoin="bevel" points="7502.36,1691.99 7502.36,2031.79" />
<polyline class="BarLine" fill="none" stroke="#000000" stroke-width="14.88" stroke-linejoin="bevel" points="5360.28,823.876 5360.28,1163.68" />
<polyline class="BarLine" fill="none" stroke="#000000" stroke-width="14.88" stroke-linejoin="bevel" points="5424.35,1691.99 5424.35,2031.79" />
<polyline class="BarLine" fill="none" stroke="#000000" stroke-width="14.88" stroke-linejoin="bevel" points="7715.37,2560.1 7715.37,2899.9" />
<polyline class="BarLine" fill="none" stroke="#000000" stroke-width="14.88" stroke-linejoin="bevel" points="3322.66,1691.99 3322.66,2031.79" />
<polyline class="BarLine" fill="none" stroke="#000000" stroke-width="14.88" stroke-linejoin="bevel" points="7271.34,823.876 7271.34,1163.68" />
<polyline class="BarLine" fill="none" stroke="#000000" stroke-width="14.88" stroke-linejoin="bevel" points="9207.9,823.876 9207.9,1163.68" />
<path class="BarLine" d="M9093.83,2688.66 C9093.83,2679.06 9086.22,2671.12 9076.62,2671.12 C9067.02,2671.12 9059.41,2679.06 9059.41,2688.66 C9059.41,2698.26 9067.02,2706.2 9076.62,2706.2 C9086.22,2706.2 9093.83,2698.26 9093.83,2688.66"/>
<path class="BarLine" d="M9093.83,2771.34 C9093.83,2761.74 9086.22,2753.79 9076.62,2753.79 C9067.02,2753.79 9059.41,2761.74 9059.41,2771.34 C9059.41,2780.94 9067.02,2788.88 9076.62,2788.88 C9086.22,2788.88 9093.83,2780.94 9093.83,2771.34"/>
<polyline class="BarLine" fill="none" stroke="#000000" stroke-width="14.88" stroke-linejoin="bevel" points="9131.84,2560.1 9131.84,2899.9" />
<polyline class="BarLine" fill="none" stroke="#000000" stroke-width="45.47" stroke-linejoin="bevel" points="9192.6,2560.1 9192.6,2899.9" />
<path class="Accidental" d="M7269.81,2912.2 L7299.27,2906.24 L7299.27,2960.85 L7269.81,2967.14 L7269.81,2912.2 M7321.12,2901.94 C7323.1,2901.61 7324.76,2899.29 7324.76,2897.3 L7324.76,2877.77 C7324.76,2875.13 7322.77,2873.14 7320.13,2873.14 L7319.46,2873.14 L7308.54,2875.46 L7308.54,2826.14 L7299.27,2826.14 L7299.27,2877.44 L7269.81,2883.4 L7269.81,2836.73 L7260.55,2836.73 L7260.55,2885.39 L7247.64,2888.03 C7245.65,2888.37 7244,2890.68 7244,2892.67 L7244,2911.87 C7244,2914.51 7245.98,2916.5 7248.63,2916.5 L7249.62,2916.5 L7260.55,2914.18 L7260.55,2968.8 L7247.64,2971.45 C7245.65,2971.78 7244,2974.09 7244,2976.08 L7244,2995.28 C7244,2997.93 7245.98,2999.91 7248.63,2999.91 L7249.62,2999.91 L7260.55,2997.6 L7260.55,3046.91 L7269.81,3046.91 L7269.81,2995.61 L7299.27,2989.65 L7299.27,3036.32 L7308.54,3036.32 L7308.54,2987.67 L7321.12,2985.35 C7323.1,2985.02 7324.76,2982.7 7324.76,2980.71 L7324.76,2961.19 C7324.76,2958.54 7322.77,2956.55 7320.13,2956.55 L7319.46,2956.55 L7308.54,2958.87 L7308.54,2904.25 L7321.12,2901.94 "/>
<polyline class="Stem" fill="none" stroke="#000000" stroke-width="8.27" stroke-linejoin="bevel" points="8519.7,2743.89 8519.7,2978.03" />
<polyline class="Stem" fill="none" stroke="#000000" stroke-width="8.27" stroke-linejoin="bevel" points="4618.68,1890 4618.68,1634.53" />
<polyline class="Stem" fill="none" stroke="#000000" stroke-width="8.27" stroke-linejoin="bevel" points="4633.41,1187.24 4633.41,911.101" />
<polyline class="Stem" fill="none" stroke="#000000" stroke-width="8.27" stroke-linejoin="bevel" points="5539.27,1875.78 5539.27,2109.92" />
<polyline class="Stem" fill="none" stroke="#000000" stroke-width="8.27" stroke-linejoin="bevel" points="5127.07,1187.24 5127.07,911.101" />
<polyline class="Stem" fill="none" stroke="#000000" stroke-width="8.27" stroke-linejoin="bevel" points="7929.5,2882.12 7929.5,2605.98" />
<polyline class="Stem" fill="none" stroke="#000000" stroke-width="8.27" stroke-linejoin="bevel" points="4205.08,924.991 4205.08,1200.47" />
<polyline class="Stem" fill="none" stroke="#000000" stroke-width="8.27" stroke-linejoin="bevel" points="3057.93,1931.34 3057.93,1655.2" />
<polyline class="Stem" fill="none" stroke="#000000" stroke-width="8.27" stroke-linejoin="bevel" points="5574.41,1145.9 5574.41,869.762" />
<polyline class="Stem" fill="none" stroke="#000000" stroke-width="8.27" stroke-linejoin="bevel" points="1618,1145.9 1618,869.762" />
<polyline class="Stem" fill="none" stroke="#000000" stroke-width="8.27" stroke-linejoin="bevel" points="6068.08,1145.9 6068.08,869.762" />
<polyline class="Stem" fill="none" stroke="#000000" stroke-width="8.27" stroke-linejoin="bevel" points="7448.71,2923.46 7448.71,2647.32" />
<polyline class="Stem" fill="none" stroke="#000000" stroke-width="8.27" stroke-linejoin="bevel" points="6297.98,1007.67 6297.98,1241.81" />
<polyline class="Stem" fill="none" stroke="#000000" stroke-width="8.27" stroke-linejoin="bevel" points="7086.15,2799.45 7086.15,2523.31" />
<polyline class="Stem" fill="none" stroke="#000000" stroke-width="8.27" stroke-linejoin="bevel" points="6723.59,2840.79 6723.59,2564.64" />
<polyline class="Stem" fill="none" stroke="#000000" stroke-width="8.27" stroke-linejoin="bevel" points="6440.84,1751.76 6440.84,2027.24" />
<polyline class="Stem" fill="none" stroke="#000000" stroke-width="8.27" stroke-linejoin="bevel" points="6814.4,1021.89 6814.4,767.077" />
<polyline class="Stem" fill="none" stroke="#000000" stroke-width="8.27" stroke-linejoin="bevel" points="6361.03,2758.11 6361.03,2502.64" />
<polyline class="Stem" fill="none" stroke="#000000" stroke-width="8.27" stroke-linejoin="bevel" points="7038.14,1063.23 7038.14,787.085" />
<polyline class="Stem" fill="none" stroke="#000000" stroke-width="8.27" stroke-linejoin="bevel" points="6020.11,2743.89 6020.11,2998.37" />
<polyline class="Stem" fill="none" stroke="#000000" stroke-width="8.27" stroke-linejoin="bevel" points="3985.67,966.329 3985.67,1220.81" />
<polyline class="Stem" fill="none" stroke="#000000" stroke-width="8.27" stroke-linejoin="bevel" points="6898,1793.1 6898,2068.25" />
<polyline class="Stem" fill="none" stroke="#000000" stroke-width="8.27" stroke-linejoin="bevel" points="7485.48,1145.9 7485.48,869.762" />
<polyline class="Stem" fill="none" stroke="#000000" stroke-width="8.27" stroke-linejoin="bevel" points="7138.42,1834.44 7138.42,2089.25" />
<polyline class="Stem" fill="none" stroke="#000000" stroke-width="8.27" stroke-linejoin="bevel" points="5560.51,2743.89 5560.51,2978.03" />
<polyline class="Stem" fill="none" stroke="#000000" stroke-width="8.27" stroke-linejoin="bevel" points="8111.28,1063.23 8111.28,787.085" />
<polyline class="Stem" fill="none" stroke="#000000" stroke-width="8.27" stroke-linejoin="bevel" points="5079.72,2702.55 5079.72,2957.36" />
<polyline class="Stem" fill="none" stroke="#000000" stroke-width="8.27" stroke-linejoin="bevel" points="4635.09,2758.11 4635.09,2502.64" />
<polyline class="Stem" fill="none" stroke="#000000" stroke-width="8.27" stroke-linejoin="bevel" points="4272.53,2758.11 4272.53,2502.64" />
<polyline class="Stem" fill="none" stroke="#000000" stroke-width="8.27" stroke-linejoin="bevel" points="3568.47,1007.67 3568.47,1241.81" />
<polyline class="Stem" fill="none" stroke="#000000" stroke-width="8.27" stroke-linejoin="bevel" points="8974.69,1063.23 8974.69,787.085" />
<polyline class="Stem" fill="none" stroke="#000000" stroke-width="8.27" stroke-linejoin="bevel" points="3909.97,2799.45 3909.97,2523.31" />
<polyline class="Stem" fill="none" stroke="#000000" stroke-width="8.27" stroke-linejoin="bevel" points="3547.41,2758.11 3547.41,2502.64" />
<polyline class="Stem" fill="none" stroke="#000000" stroke-width="8.27" stroke-linejoin="bevel" points="3220.34,1021.89 3220.34,766.416" />
<polyline class="Stem" fill="none" stroke="#000000" stroke-width="8.27" stroke-linejoin="bevel" points="5159.62,1890 5159.62,1634.53" />
<polyline class="Stem" fill="none" stroke="#000000" stroke-width="8.27" stroke-linejoin="bevel" points="2035.2,1104.57 2035.2,829.085" />
<polyline class="Stem" fill="none" stroke="#000000" stroke-width="8.27" stroke-linejoin="bevel" points="1435.1,1931.34 1435.1,1655.2" />
<polyline class="Stem" fill="none" stroke="#000000" stroke-width="8.27" stroke-linejoin="bevel" points="3066.62,2799.45 3066.62,2523.31" />
<polyline class="Stem" fill="none" stroke="#000000" stroke-width="8.27" stroke-linejoin="bevel" points="1795.73,1972.68 1795.73,1696.53" />
<polyline class="Stem" fill="none" stroke="#000000" stroke-width="8.27" stroke-linejoin="bevel" points="2522.78,2799.45 2522.78,2523.31" />
<polyline class="Stem" fill="none" stroke="#000000" stroke-width="8.27" stroke-linejoin="bevel" points="2156.36,1931.34 2156.36,1655.2" />
<polyline class="Stem" fill="none" stroke="#000000" stroke-width="8.27" stroke-linejoin="bevel" points="2160.22,2799.45 2160.22,2523.31" />
<polyline class="Stem" fill="none" stroke="#000000" stroke-width="8.27" stroke-linejoin="bevel" points="2516.99,1931.34 2516.99,1655.2" />
<polyline class="Stem" fill="none" stroke="#000000" stroke-width="8.27" stroke-linejoin="bevel" points="1797.66,2840.79 1797.66,2564.64" />
<polyline class="Stem" fill="none" stroke="#000000" stroke-width="8.27" stroke-linejoin="bevel" points="1435.1,2799.45 1435.1,2523.31" />
<polyline class="Stem" fill="none" stroke="#000000" stroke-width="8.27" stroke-linejoin="bevel" points="2901.72,1007.67 2901.72,1262.15" />
<polyline class="Stem" fill="none" stroke="#000000" stroke-width="8.27" stroke-linejoin="bevel" points="2254.61,1145.9 2254.61,869.762" />
<polyline class="Stem" fill="none" stroke="#000000" stroke-width="8.27" stroke-linejoin="bevel" points="2583.72,1063.23 2583.72,787.085" />
<polyline class="Stem" fill="none" stroke="#000000" stroke-width="8.27" stroke-linejoin="bevel" points="3536.79,1890 3536.79,1634.53" />
<polyline class="Stem" fill="none" stroke="#000000" stroke-width="8.27" stroke-linejoin="bevel" points="8943.18,1931.34 8943.18,1655.2" />
<polyline class="Stem" fill="none" stroke="#000000" stroke-width="8.27" stroke-linejoin="bevel" points="3897.42,1931.34 3897.42,1655.2" />
<polyline class="Stem" fill="none" stroke="#000000" stroke-width="8.27" stroke-linejoin="bevel" points="8303.02,1793.1 8303.02,2068.58" />
<polyline class="Stem" fill="none" stroke="#000000" stroke-width="8.27" stroke-linejoin="bevel" points="4258.05,1890 4258.05,1634.53" />
<polyline class="Stem" fill="none" stroke="#000000" stroke-width="8.27" stroke-linejoin="bevel" points="7617.28,1875.78 7617.28,2109.92" />
<polyline class="Stem" fill="none" stroke="#000000" stroke-width="8.27" stroke-linejoin="bevel" points="6080.21,1875.78 6080.21,2109.92" />
<path class="Hook" d="M2897.58,1262.15 C2897.58,1264.46 2899.57,1266.45 2901.89,1266.45 C2903.54,1266.45 2905.53,1265.13 2905.86,1263.8 C2905.86,1263.47 2908.84,1251.89 2909.17,1250.89 C2909.5,1249.57 2912.48,1236.99 2924.4,1217.46 C2937.3,1195.95 2957.16,1180.39 2973.71,1157.22 C2989.93,1134.05 2999.86,1112.2 2999.86,1083.08 C2999.86,1052.96 2992.91,1027.8 2975.37,995.693 C2974.38,993.376 2972.39,992.052 2970.4,992.052 C2969.74,992.052 2969.08,992.052 2968.75,992.383 C2967.09,993.045 2966.43,994.369 2966.43,996.355 C2966.43,997.348 2966.76,999.003 2967.43,1000.33 C2980.67,1031.11 2985.96,1048.65 2985.96,1072.48 C2985.96,1099.96 2976.36,1114.19 2970.4,1124.45 C2948.89,1161.19 2914.13,1179.07 2900.23,1183.7 C2897.92,1184.69 2897.58,1186.35 2897.58,1187.34 L2897.58,1262.15 "/>
<path class="Hook" d="M2031.07,903.561 C2031.07,904.554 2031.4,906.209 2033.72,907.202 C2047.95,911.836 2076.42,929.71 2097.93,966.451 C2103.89,976.712 2113.49,990.945 2113.49,1018.42 C2113.49,1042.25 2107.2,1066.74 2098.59,1090.58 C2097.93,1092.56 2097.27,1094.22 2097.6,1095.54 C2097.6,1097.53 2098.93,1098.85 2100.91,1098.85 C2103.23,1098.85 2104.88,1097.53 2106.21,1095.21 C2121.1,1068.73 2126.73,1037.95 2126.73,1007.83 C2125.07,965.127 2100.58,933.682 2100.58,933.682 C2101.57,933.682 2070.13,892.969 2061.19,879.067 C2048.94,860.2 2043.32,841.333 2042.66,840.009 C2042.32,839.016 2039.35,827.1 2039.35,827.1 C2039.01,825.776 2037.36,824.452 2035.37,824.452 C2033.06,824.452 2031.07,826.438 2031.07,828.755 L2031.07,903.561 "/>
<path class="Hook" d="M6015.98,2998.37 C6015.98,3000.69 6017.97,3002.67 6020.28,3002.67 C6021.94,3002.67 6023.92,3001.35 6024.25,3000.02 C6024.25,2999.69 6027.23,2988.11 6027.56,2987.11 C6027.9,2985.79 6030.87,2973.21 6042.79,2953.68 C6055.7,2932.17 6075.56,2916.61 6092.11,2893.44 C6108.33,2870.27 6118.26,2848.43 6118.26,2819.3 C6118.26,2789.18 6111.31,2764.02 6093.76,2731.91 C6092.77,2729.6 6090.79,2728.27 6088.8,2728.27 C6088.14,2728.27 6087.48,2728.27 6087.14,2728.6 C6085.49,2729.27 6084.83,2730.59 6084.83,2732.58 C6084.83,2733.57 6085.16,2735.22 6085.82,2736.55 C6099.06,2767.33 6104.36,2784.87 6104.36,2808.71 C6104.36,2836.18 6094.76,2850.41 6088.8,2860.67 C6067.28,2897.41 6032.53,2915.29 6018.63,2919.92 C6016.31,2920.91 6015.98,2922.57 6015.98,2923.56 L6015.98,2998.37 "/>
<path class="Hook" d="M3981.54,1220.81 C3981.54,1223.13 3983.52,1225.11 3985.84,1225.11 C3987.5,1225.11 3989.48,1223.79 3989.81,1222.46 C3989.81,1222.13 3992.79,1210.55 3993.12,1209.56 C3993.45,1208.23 3996.43,1195.65 4008.35,1176.12 C4021.26,1154.61 4041.12,1139.05 4057.67,1115.88 C4073.89,1092.71 4083.82,1070.87 4083.82,1041.74 C4083.82,1011.62 4076.87,986.461 4059.32,954.354 C4058.33,952.037 4056.34,950.713 4054.36,950.713 C4053.7,950.713 4053.03,950.713 4052.7,951.044 C4051.05,951.706 4050.39,953.03 4050.39,955.016 C4050.39,956.009 4050.72,957.664 4051.38,958.988 C4064.62,989.771 4069.92,1007.31 4069.92,1031.15 C4069.92,1058.62 4060.32,1072.85 4054.36,1083.11 C4032.84,1119.85 3998.09,1137.73 3984.19,1142.36 C3981.87,1143.36 3981.54,1145.01 3981.54,1146 L3981.54,1220.81 "/>
<path class="Hook" d="M6810.27,841.553 C6810.27,842.546 6810.6,844.201 6812.91,845.194 C6827.15,849.828 6855.61,867.702 6877.13,904.443 C6883.09,914.704 6892.68,928.937 6892.68,956.41 C6892.68,980.242 6886.4,1004.74 6877.79,1028.57 C6877.13,1030.55 6876.47,1032.21 6876.8,1033.53 C6876.8,1035.52 6878.12,1036.84 6880.11,1036.84 C6882.42,1036.84 6884.08,1035.52 6885.4,1033.2 C6900.3,1006.72 6905.92,975.939 6905.92,945.818 C6904.27,903.119 6879.78,871.674 6879.78,871.674 C6880.77,871.674 6849.32,830.961 6840.39,817.059 C6828.14,798.192 6822.51,779.325 6821.85,778.001 C6821.52,777.008 6818.54,765.092 6818.54,765.092 C6818.21,763.768 6816.55,762.444 6814.57,762.444 C6812.25,762.444 6810.27,764.43 6810.27,766.747 L6810.27,841.553 "/>
<path class="Hook" d="M6893.87,2068.25 C6893.87,2070.57 6895.85,2072.55 6898.17,2072.55 C6899.83,2072.55 6901.81,2071.23 6902.14,2069.91 C6902.14,2069.57 6905.12,2057.99 6905.45,2057 C6905.78,2055.67 6908.76,2043.09 6920.68,2023.57 C6933.59,2002.05 6953.45,1986.49 6970,1963.32 C6986.22,1940.15 6996.15,1918.31 6996.15,1889.18 C6996.15,1859.06 6989.2,1833.9 6971.65,1801.8 C6970.66,1799.48 6968.67,1798.15 6966.69,1798.15 C6966.03,1798.15 6965.36,1798.15 6965.03,1798.49 C6963.38,1799.15 6962.72,1800.47 6962.72,1802.46 C6962.72,1803.45 6963.05,1805.11 6963.71,1806.43 C6976.95,1837.21 6982.25,1854.76 6982.25,1878.59 C6982.25,1906.06 6972.65,1920.29 6966.69,1930.55 C6945.17,1967.3 6910.42,1985.17 6896.52,1989.8 C6894.2,1990.8 6893.87,1992.45 6893.87,1993.44 L6893.87,2068.25 "/>
<path class="Note" d="M2954.59,1958.47 C2954.59,1972.7 2964.85,1988.59 2991.66,1988.59 C3026.08,1988.59 3062.16,1960.45 3062.16,1931.33 C3062.16,1911.8 3045.61,1900.87 3025.09,1900.87 C2992.98,1900.87 2954.59,1928.02 2954.59,1958.47"/>
<path class="Note" d="M6711.05,1049.02 C6711.05,1063.25 6721.31,1079.14 6748.12,1079.14 C6782.55,1079.14 6818.63,1051 6818.63,1021.88 C6818.63,1002.35 6802.08,991.425 6781.56,991.425 C6749.45,991.425 6711.05,1018.57 6711.05,1049.02"/>
<path class="Note" d="M6076.08,1875.79 C6076.08,1890.02 6086.34,1905.91 6113.15,1905.91 C6147.57,1905.91 6183.65,1877.78 6183.65,1848.65 C6183.65,1829.12 6167.1,1818.2 6146.58,1818.2 C6114.47,1818.2 6076.08,1845.34 6076.08,1875.79"/>
<path class="Note" d="M2480.38,1090.36 C2480.38,1104.59 2490.64,1120.48 2517.45,1120.48 C2551.87,1120.48 2587.95,1092.34 2587.95,1063.22 C2587.95,1043.69 2571.4,1032.76 2550.88,1032.76 C2518.77,1032.76 2480.38,1059.91 2480.38,1090.36"/>
<path class="Note" d="M6436.71,1751.77 C6436.71,1766.01 6446.97,1781.9 6473.78,1781.9 C6508.2,1781.9 6544.28,1753.76 6544.28,1724.63 C6544.28,1705.1 6527.73,1694.18 6507.21,1694.18 C6475.1,1694.18 6436.71,1721.32 6436.71,1751.77"/>
<path class="Note" d="M4200.95,925.003 C4200.95,939.236 4211.21,955.124 4238.02,955.124 C4272.44,955.124 4308.52,926.989 4308.52,897.861 C4308.52,878.332 4291.97,867.409 4271.45,867.409 C4239.34,867.409 4200.95,894.551 4200.95,925.003"/>
<path class="Note" d="M4554.88,1228.94 C4543.96,1228.94 4541.64,1220 4541.64,1217.02 C4541.64,1200.8 4597.25,1172.34 4612.81,1172.34 C4620.75,1172.34 4626.05,1176.97 4626.05,1184.25 C4626.05,1200.8 4570.11,1228.94 4554.88,1228.94 M4600.56,1156.78 C4568.45,1156.78 4530.06,1183.59 4530.06,1214.37 C4530.06,1228.61 4540.32,1244.49 4567.13,1244.49 C4601.55,1244.49 4637.63,1216.36 4637.63,1187.23 C4637.63,1167.7 4621.08,1156.78 4600.56,1156.78"/>
<path class="Note" d="M7850.98,2923.82 C7840.06,2923.82 7837.74,2914.88 7837.74,2911.9 C7837.74,2895.68 7893.35,2867.22 7908.91,2867.22 C7916.85,2867.22 7922.15,2871.85 7922.15,2879.13 C7922.15,2895.68 7866.21,2923.82 7850.98,2923.82 M7896.66,2851.66 C7864.55,2851.66 7826.16,2878.47 7826.16,2909.25 C7826.16,2923.49 7836.42,2939.38 7863.23,2939.38 C7897.65,2939.38 7933.73,2911.24 7933.73,2882.11 C7933.73,2862.58 7917.18,2851.66 7896.66,2851.66"/>
<path class="Note" d="M6893.87,1793.11 C6893.87,1807.35 6904.13,1823.23 6930.94,1823.23 C6965.36,1823.23 7001.44,1795.1 7001.44,1765.97 C7001.44,1746.44 6984.89,1735.52 6964.37,1735.52 C6932.26,1735.52 6893.87,1762.66 6893.87,1793.11"/>
<path class="Note" d="M5056.28,1917.13 C5056.28,1931.36 5066.54,1947.25 5093.35,1947.25 C5127.77,1947.25 5163.85,1919.11 5163.85,1889.99 C5163.85,1870.46 5147.3,1859.53 5126.78,1859.53 C5094.67,1859.53 5056.28,1886.68 5056.28,1917.13"/>
<path class="Note" d="M7134.29,1834.45 C7134.29,1848.68 7144.55,1864.57 7171.36,1864.57 C7205.78,1864.57 7241.86,1836.44 7241.86,1807.31 C7241.86,1787.78 7225.31,1776.86 7204.79,1776.86 C7172.68,1776.86 7134.29,1804 7134.29,1834.45"/>
<path class="Note" d="M4540.16,1931.69 C4529.23,1931.69 4526.92,1922.76 4526.92,1919.78 C4526.92,1903.56 4582.53,1875.09 4598.08,1875.09 C4606.03,1875.09 4611.32,1879.73 4611.32,1887.01 C4611.32,1903.56 4555.38,1931.69 4540.16,1931.69 M4585.84,1859.53 C4553.73,1859.53 4515.33,1886.35 4515.33,1917.13 C4515.33,1931.36 4525.59,1947.25 4552.4,1947.25 C4586.83,1947.25 4622.91,1919.11 4622.91,1889.99 C4622.91,1870.46 4606.36,1859.53 4585.84,1859.53"/>
<path class="Note" d="M2151.27,1173.03 C2151.27,1187.27 2161.53,1203.16 2188.34,1203.16 C2222.76,1203.16 2258.84,1175.02 2258.84,1145.89 C2258.84,1126.36 2242.29,1115.44 2221.77,1115.44 C2189.66,1115.44 2151.27,1142.58 2151.27,1173.03"/>
<path class="Note" d="M4154.7,1917.13 C4154.7,1931.36 4164.96,1947.25 4191.77,1947.25 C4226.2,1947.25 4262.28,1919.11 4262.28,1889.99 C4262.28,1870.46 4245.73,1859.53 4225.21,1859.53 C4193.1,1859.53 4154.7,1886.68 4154.7,1917.13"/>
<path class="Note" d="M7637.97,1890.35 C7627.05,1890.35 7624.73,1881.42 7624.73,1878.44 C7624.73,1862.22 7680.34,1833.75 7695.9,1833.75 C7703.84,1833.75 7709.14,1838.39 7709.14,1845.67 C7709.14,1862.22 7653.2,1890.35 7637.97,1890.35 M7683.65,1818.2 C7651.54,1818.2 7613.15,1845.01 7613.15,1875.79 C7613.15,1890.02 7623.41,1905.91 7650.22,1905.91 C7684.64,1905.91 7720.72,1877.78 7720.72,1848.65 C7720.72,1829.12 7704.17,1818.2 7683.65,1818.2"/>
<path class="Note" d="M5023.73,1214.37 C5023.73,1228.61 5033.99,1244.49 5060.8,1244.49 C5095.22,1244.49 5131.3,1216.36 5131.3,1187.23 C5131.3,1167.7 5114.75,1156.78 5094.23,1156.78 C5062.12,1156.78 5023.73,1183.92 5023.73,1214.37"/>
<path class="Note" d="M3794.07,1958.47 C3794.07,1972.7 3804.33,1988.59 3831.15,1988.59 C3865.57,1988.59 3901.65,1960.45 3901.65,1931.33 C3901.65,1911.8 3885.1,1900.87 3864.58,1900.87 C3832.47,1900.87 3794.07,1928.02 3794.07,1958.47"/>
<path class="Note" d="M8323.71,1807.68 C8312.79,1807.68 8310.47,1798.74 8310.47,1795.76 C8310.47,1779.54 8366.08,1751.08 8381.64,1751.08 C8389.58,1751.08 8394.88,1755.71 8394.88,1762.99 C8394.88,1779.54 8338.94,1807.68 8323.71,1807.68 M8369.39,1735.52 C8337.28,1735.52 8298.89,1762.33 8298.89,1793.11 C8298.89,1807.35 8309.15,1823.23 8335.96,1823.23 C8370.38,1823.23 8406.46,1795.1 8406.46,1765.97 C8406.46,1746.44 8389.91,1735.52 8369.39,1735.52"/>
<path class="Note" d="M3433.44,1917.13 C3433.44,1931.36 3443.7,1947.25 3470.52,1947.25 C3504.94,1947.25 3541.02,1919.11 3541.02,1889.99 C3541.02,1870.46 3524.47,1859.53 3503.95,1859.53 C3471.84,1859.53 3433.44,1886.68 3433.44,1917.13"/>
<path class="Note" d="M8839.83,1958.47 C8839.83,1972.7 8850.09,1988.59 8876.9,1988.59 C8911.33,1988.59 8947.4,1960.45 8947.4,1931.33 C8947.4,1911.8 8930.85,1900.87 8910.33,1900.87 C8878.23,1900.87 8839.83,1928.02 8839.83,1958.47"/>
<path class="Note" d="M8540.39,2758.46 C8529.47,2758.46 8527.15,2749.53 8527.15,2746.55 C8527.15,2730.33 8582.76,2701.86 8598.32,2701.86 C8606.26,2701.86 8611.56,2706.5 8611.56,2713.78 C8611.56,2730.33 8555.62,2758.46 8540.39,2758.46 M8586.07,2686.31 C8553.96,2686.31 8515.57,2713.12 8515.57,2743.9 C8515.57,2758.13 8525.83,2774.02 8552.64,2774.02 C8587.06,2774.02 8623.14,2745.89 8623.14,2716.76 C8623.14,2697.23 8606.59,2686.31 8586.07,2686.31"/>
<path class="Note" d="M1931.86,1131.7 C1931.86,1145.93 1942.12,1161.82 1968.93,1161.82 C2003.35,1161.82 2039.43,1133.68 2039.43,1104.55 C2039.43,1085.02 2022.88,1074.1 2002.36,1074.1 C1970.25,1074.1 1931.86,1101.24 1931.86,1131.7"/>
<path class="Note" d="M3981.54,966.341 C3981.54,980.574 3991.8,996.462 4018.61,996.462 C4053.03,996.462 4089.11,968.327 4089.11,939.199 C4089.11,919.67 4072.56,908.747 4052.04,908.747 C4019.93,908.747 3981.54,935.889 3981.54,966.341"/>
<path class="Note" d="M5495.89,1187.6 C5484.97,1187.6 5482.65,1178.66 5482.65,1175.68 C5482.65,1159.46 5538.26,1131 5553.82,1131 C5561.76,1131 5567.06,1135.63 5567.06,1142.91 C5567.06,1159.46 5511.12,1187.6 5495.89,1187.6 M5541.57,1115.44 C5509.46,1115.44 5471.07,1142.25 5471.07,1173.03 C5471.07,1187.27 5481.33,1203.16 5508.14,1203.16 C5542.56,1203.16 5578.64,1175.02 5578.64,1145.89 C5578.64,1126.36 5562.09,1115.44 5541.57,1115.44"/>
<path class="Note" d="M2897.58,1007.68 C2897.58,1021.91 2907.85,1037.8 2934.66,1037.8 C2969.08,1037.8 3005.16,1009.67 3005.16,980.538 C3005.16,961.009 2988.61,950.086 2968.09,950.086 C2935.98,950.086 2897.58,977.228 2897.58,1007.68"/>
<path class="Note" d="M1331.75,2826.58 C1331.75,2840.81 1342.01,2856.7 1368.82,2856.7 C1403.25,2856.7 1439.33,2828.56 1439.33,2799.44 C1439.33,2779.91 1422.78,2768.98 1402.26,2768.98 C1370.15,2768.98 1331.75,2796.13 1331.75,2826.58"/>
<path class="Note" d="M2438.47,1973.03 C2427.54,1973.03 2425.23,1964.09 2425.23,1961.12 C2425.23,1944.9 2480.83,1916.43 2496.39,1916.43 C2504.34,1916.43 2509.63,1921.06 2509.63,1928.35 C2509.63,1944.9 2453.69,1973.03 2438.47,1973.03 M2484.14,1900.87 C2452.04,1900.87 2413.64,1927.68 2413.64,1958.47 C2413.64,1972.7 2423.9,1988.59 2450.71,1988.59 C2485.14,1988.59 2521.22,1960.45 2521.22,1931.33 C2521.22,1911.8 2504.67,1900.87 2484.14,1900.87"/>
<path class="Note" d="M1694.31,2867.92 C1694.31,2882.15 1704.57,2898.04 1731.39,2898.04 C1765.81,2898.04 1801.89,2869.9 1801.89,2840.77 C1801.89,2821.25 1785.34,2810.32 1764.82,2810.32 C1732.71,2810.32 1694.31,2837.46 1694.31,2867.92"/>
<path class="Note" d="M2053.01,1958.47 C2053.01,1972.7 2063.27,1988.59 2090.08,1988.59 C2124.51,1988.59 2160.59,1960.45 2160.59,1931.33 C2160.59,1911.8 2144.04,1900.87 2123.51,1900.87 C2091.41,1900.87 2053.01,1928.02 2053.01,1958.47"/>
<path class="Note" d="M2056.87,2826.58 C2056.87,2840.81 2067.13,2856.7 2093.95,2856.7 C2128.37,2856.7 2164.45,2828.56 2164.45,2799.44 C2164.45,2779.91 2147.9,2768.98 2127.38,2768.98 C2095.27,2768.98 2056.87,2796.13 2056.87,2826.58"/>
<path class="Note" d="M1692.38,1999.81 C1692.38,2014.04 1702.64,2029.93 1729.45,2029.93 C1763.88,2029.93 1799.96,2001.79 1799.96,1972.66 C1799.96,1953.14 1783.41,1942.21 1762.89,1942.21 C1730.78,1942.21 1692.38,1969.35 1692.38,1999.81"/>
<path class="Note" d="M2444.26,2841.14 C2433.34,2841.14 2431.02,2832.2 2431.02,2829.23 C2431.02,2813.01 2486.63,2784.54 2502.18,2784.54 C2510.13,2784.54 2515.42,2789.17 2515.42,2796.46 C2515.42,2813.01 2459.48,2841.14 2444.26,2841.14 M2489.94,2768.98 C2457.83,2768.98 2419.43,2795.79 2419.43,2826.58 C2419.43,2840.81 2429.69,2856.7 2456.51,2856.7 C2490.93,2856.7 2527.01,2828.56 2527.01,2799.44 C2527.01,2779.91 2510.46,2768.98 2489.94,2768.98"/>
<path class="Note" d="M1331.75,1958.47 C1331.75,1972.7 1342.01,1988.59 1368.82,1988.59 C1403.25,1988.59 1439.33,1960.45 1439.33,1931.33 C1439.33,1911.8 1422.78,1900.87 1402.26,1900.87 C1370.15,1900.87 1331.75,1928.02 1331.75,1958.47"/>
<path class="Note" d="M2963.27,2826.58 C2963.27,2840.81 2973.54,2856.7 3000.35,2856.7 C3034.77,2856.7 3070.85,2828.56 3070.85,2799.44 C3070.85,2779.91 3054.3,2768.98 3033.78,2768.98 C3001.67,2768.98 2963.27,2796.13 2963.27,2826.58"/>
<path class="Note" d="M7345.37,2950.59 C7345.37,2964.83 7355.63,2980.71 7382.44,2980.71 C7416.86,2980.71 7452.94,2952.58 7452.94,2923.45 C7452.94,2903.92 7436.39,2893 7415.87,2893 C7383.76,2893 7345.37,2920.14 7345.37,2950.59"/>
<path class="Note" d="M5964.73,1173.03 C5964.73,1187.27 5975,1203.16 6001.81,1203.16 C6036.23,1203.16 6072.31,1175.02 6072.31,1145.89 C6072.31,1126.36 6055.76,1115.44 6035.24,1115.44 C6003.13,1115.44 5964.73,1142.58 5964.73,1173.03"/>
<path class="Note" d="M3116.99,1049.02 C3116.99,1063.25 3127.25,1079.14 3154.06,1079.14 C3188.49,1079.14 3224.57,1051 3224.57,1021.88 C3224.57,1002.35 3208.02,991.425 3187.5,991.425 C3155.39,991.425 3116.99,1018.57 3116.99,1049.02"/>
<path class="Note" d="M3444.06,2785.24 C3444.06,2799.47 3454.32,2815.36 3481.13,2815.36 C3515.56,2815.36 3551.64,2787.23 3551.64,2758.1 C3551.64,2738.57 3535.09,2727.65 3514.57,2727.65 C3482.46,2727.65 3444.06,2754.79 3444.06,2785.24"/>
<path class="Note" d="M8871.35,1090.36 C8871.35,1104.59 8881.61,1120.48 8908.42,1120.48 C8942.84,1120.48 8978.92,1092.34 8978.92,1063.22 C8978.92,1043.69 8962.37,1032.76 8941.85,1032.76 C8909.74,1032.76 8871.35,1059.91 8871.35,1090.36"/>
<path class="Note" d="M3806.62,2826.58 C3806.62,2840.81 3816.88,2856.7 3843.69,2856.7 C3878.12,2856.7 3914.2,2828.56 3914.2,2799.44 C3914.2,2779.91 3897.65,2768.98 3877.13,2768.98 C3845.02,2768.98 3806.62,2796.13 3806.62,2826.58"/>
<path class="Note" d="M3564.33,1007.68 C3564.33,1021.91 3574.59,1037.8 3601.4,1037.8 C3635.83,1037.8 3671.91,1009.67 3671.91,980.538 C3671.91,961.009 3655.36,950.086 3634.84,950.086 C3602.73,950.086 3564.33,977.228 3564.33,1007.68"/>
<path class="Note" d="M4169.18,2785.24 C4169.18,2799.47 4179.44,2815.36 4206.26,2815.36 C4240.68,2815.36 4276.76,2787.23 4276.76,2758.1 C4276.76,2738.57 4260.21,2727.65 4239.69,2727.65 C4207.58,2727.65 4169.18,2754.79 4169.18,2785.24"/>
<path class="Note" d="M6982.81,2826.58 C6982.81,2840.81 6993.07,2856.7 7019.88,2856.7 C7054.3,2856.7 7090.38,2828.56 7090.38,2799.44 C7090.38,2779.91 7073.83,2768.98 7053.31,2768.98 C7021.2,2768.98 6982.81,2796.13 6982.81,2826.58"/>
<path class="Note" d="M4556.57,2799.8 C4545.65,2799.8 4543.33,2790.87 4543.33,2787.89 C4543.33,2771.67 4598.94,2743.2 4614.49,2743.2 C4622.44,2743.2 4627.73,2747.84 4627.73,2755.12 C4627.73,2771.67 4571.79,2799.8 4556.57,2799.8 M4602.25,2727.65 C4570.14,2727.65 4531.74,2754.46 4531.74,2785.24 C4531.74,2799.47 4542,2815.36 4568.82,2815.36 C4603.24,2815.36 4639.32,2787.23 4639.32,2758.1 C4639.32,2738.57 4622.77,2727.65 4602.25,2727.65"/>
<path class="Note" d="M8032.76,1104.92 C8021.84,1104.92 8019.52,1095.98 8019.52,1093.01 C8019.52,1076.79 8075.13,1048.32 8090.69,1048.32 C8098.63,1048.32 8103.93,1052.95 8103.93,1060.24 C8103.93,1076.79 8047.99,1104.92 8032.76,1104.92 M8078.44,1032.76 C8046.33,1032.76 8007.94,1059.57 8007.94,1090.36 C8007.94,1104.59 8018.2,1120.48 8045.01,1120.48 C8079.43,1120.48 8115.51,1092.34 8115.51,1063.22 C8115.51,1043.69 8098.96,1032.76 8078.44,1032.76"/>
<path class="Note" d="M5075.58,2702.56 C5075.58,2716.79 5085.84,2732.68 5112.66,2732.68 C5147.08,2732.68 5183.16,2704.55 5183.16,2675.42 C5183.16,2655.89 5166.61,2644.97 5146.09,2644.97 C5113.98,2644.97 5075.58,2672.11 5075.58,2702.56"/>
<path class="Note" d="M6293.85,1007.68 C6293.85,1021.91 6304.11,1037.8 6330.92,1037.8 C6365.34,1037.8 6401.42,1009.67 6401.42,980.538 C6401.42,961.009 6384.87,950.086 6364.35,950.086 C6332.24,950.086 6293.85,977.228 6293.85,1007.68"/>
<path class="Note" d="M1514.65,1173.03 C1514.65,1187.27 1524.91,1203.16 1551.72,1203.16 C1586.15,1203.16 1622.23,1175.02 1622.23,1145.89 C1622.23,1126.36 1605.68,1115.44 1585.16,1115.44 C1553.05,1115.44 1514.65,1142.58 1514.65,1173.03"/>
<path class="Note" d="M6620.25,2867.92 C6620.25,2882.15 6630.51,2898.04 6657.32,2898.04 C6691.74,2898.04 6727.82,2869.9 6727.82,2840.77 C6727.82,2821.25 6711.27,2810.32 6690.75,2810.32 C6658.64,2810.32 6620.25,2837.46 6620.25,2867.92"/>
<path class="Note" d="M5556.37,2743.9 C5556.37,2758.13 5566.63,2774.02 5593.44,2774.02 C5627.87,2774.02 5663.95,2745.89 5663.95,2716.76 C5663.95,2697.23 5647.4,2686.31 5626.88,2686.31 C5594.77,2686.31 5556.37,2713.45 5556.37,2743.9"/>
<path class="Note" d="M6257.69,2785.24 C6257.69,2799.47 6267.95,2815.36 6294.76,2815.36 C6329.18,2815.36 6365.26,2787.23 6365.26,2758.1 C6365.26,2738.57 6348.71,2727.65 6328.19,2727.65 C6296.08,2727.65 6257.69,2754.79 6257.69,2785.24"/>
<path class="Note" d="M7406.95,1187.6 C7396.03,1187.6 7393.71,1178.66 7393.71,1175.68 C7393.71,1159.46 7449.32,1131 7464.88,1131 C7472.82,1131 7478.12,1135.63 7478.12,1142.91 C7478.12,1159.46 7422.18,1187.6 7406.95,1187.6 M7452.63,1115.44 C7420.53,1115.44 7382.13,1142.25 7382.13,1173.03 C7382.13,1187.27 7392.39,1203.16 7419.2,1203.16 C7453.63,1203.16 7489.7,1175.02 7489.7,1145.89 C7489.7,1126.36 7473.15,1115.44 7452.63,1115.44"/>
<path class="Note" d="M6934.79,1090.36 C6934.79,1104.59 6945.05,1120.48 6971.86,1120.48 C7006.29,1120.48 7042.36,1092.34 7042.36,1063.22 C7042.36,1043.69 7025.81,1032.76 7005.29,1032.76 C6973.19,1032.76 6934.79,1059.91 6934.79,1090.36"/>
<path class="Note" d="M6015.98,2743.9 C6015.98,2758.13 6026.24,2774.02 6053.05,2774.02 C6087.48,2774.02 6123.55,2745.89 6123.55,2716.76 C6123.55,2697.23 6107,2686.31 6086.48,2686.31 C6054.38,2686.31 6015.98,2713.45 6015.98,2743.9"/>
<path class="Note" d="M5559.96,1890.35 C5549.04,1890.35 5546.72,1881.42 5546.72,1878.44 C5546.72,1862.22 5602.33,1833.75 5617.88,1833.75 C5625.83,1833.75 5631.12,1838.39 5631.12,1845.67 C5631.12,1862.22 5575.19,1890.35 5559.96,1890.35 M5605.64,1818.2 C5573.53,1818.2 5535.13,1845.01 5535.13,1875.79 C5535.13,1890.02 5545.4,1905.91 5572.21,1905.91 C5606.63,1905.91 5642.71,1877.78 5642.71,1848.65 C5642.71,1829.12 5626.16,1818.2 5605.64,1818.2"/>
<path class="Clef" d="M909.689,2012.75 C903.069,2014.08 896.78,2014.74 890.491,2014.74 C843.158,2014.74 802.776,1981.64 802.776,1931.66 C802.776,1891.27 831.242,1855.2 860.37,1830.04 C865.997,1825.07 871.293,1820.44 876.258,1815.48 C879.237,1833.35 881.554,1848.91 883.871,1862.48 C853.75,1871.41 833.228,1903.19 833.228,1934.3 C833.228,1957.47 851.433,1989.25 877.913,1989.25 C880.561,1989.25 883.54,1987.93 883.54,1984.95 C883.54,1981.97 880.23,1980.31 876.258,1977.67 C863.349,1969.72 856.067,1961.12 856.067,1944.9 C856.067,1924.71 870.962,1908.49 890.491,1903.85 L909.689,2012.75 M880.561,1672.48 C883.54,1659.24 898.766,1624.49 915.978,1624.49 C920.943,1624.49 928.887,1640.71 928.887,1663.55 C928.887,1697.97 903.4,1723.79 880.561,1746.3 C878.575,1733.06 876.92,1720.15 876.92,1706.25 C876.92,1694 877.913,1682.74 880.561,1672.48 M956.691,1951.52 C956.691,1975.02 947.092,1999.18 923.591,2008.78 C916.64,1969.06 907.703,1916.43 905.386,1901.87 C935.176,1901.87 956.691,1922.06 956.691,1951.52 M811.051,2114.37 C811.051,2136.21 827.932,2165.01 872.617,2165.01 C888.174,2165.01 901.745,2161.04 913.661,2153.76 C931.535,2141.18 936.169,2119.33 936.169,2098.48 C936.169,2085.57 934.183,2070.68 930.873,2051.81 C929.88,2045.19 927.894,2035.26 925.908,2022.35 C958.346,2011.76 982.509,1978 982.509,1943.9 C982.509,1893.92 947.092,1860.16 898.766,1860.16 C895.456,1840.3 892.146,1820.77 889.167,1802.24 C924.253,1765.49 948.416,1724.12 948.416,1671.49 C948.416,1641.37 939.148,1616.88 933.852,1604.96 C925.908,1588.08 916.309,1576.49 910.351,1576.49 C908.034,1576.49 897.773,1580.47 886.85,1593.37 C865.666,1618.53 859.708,1660.9 859.708,1688.7 C859.708,1706.58 861.363,1722.8 866.99,1759.87 C866.659,1760.2 849.447,1777.74 842.496,1783.37 C812.375,1811.5 770.669,1851.55 770.669,1917.75 C770.669,1979.65 824.622,2028.31 886.188,2028.31 C895.787,2028.31 904.724,2027.32 912.337,2025.99 C918.626,2057.77 922.267,2080.94 922.267,2098.48 C922.267,2132.9 904.724,2151.11 871.293,2151.11 C863.349,2151.11 856.398,2149.45 855.736,2149.45 C855.405,2149.12 854.743,2148.79 854.743,2148.46 C854.743,2147.8 855.405,2147.47 856.398,2147.14 C871.955,2144.82 887.512,2131.58 887.512,2110.4 C887.512,2092.52 873.941,2073.66 849.116,2073.66 C825.946,2073.66 811.051,2092.52 811.051,2114.37"/>
<path class="Clef" d="M909.689,2880.86 C903.069,2882.19 896.78,2882.85 890.491,2882.85 C843.158,2882.85 802.776,2849.75 802.776,2799.77 C802.776,2759.38 831.242,2723.31 860.37,2698.15 C865.997,2693.18 871.293,2688.55 876.258,2683.59 C879.237,2701.46 881.554,2717.02 883.871,2730.59 C853.75,2739.52 833.228,2771.3 833.228,2802.41 C833.228,2825.58 851.433,2857.36 877.913,2857.36 C880.561,2857.36 883.54,2856.04 883.54,2853.06 C883.54,2850.08 880.23,2848.42 876.258,2845.78 C863.349,2837.83 856.067,2829.23 856.067,2813.01 C856.067,2792.82 870.962,2776.6 890.491,2771.96 L909.689,2880.86 M880.561,2540.59 C883.54,2527.35 898.766,2492.6 915.978,2492.6 C920.943,2492.6 928.887,2508.82 928.887,2531.66 C928.887,2566.08 903.4,2591.9 880.561,2614.41 C878.575,2601.17 876.92,2588.26 876.92,2574.36 C876.92,2562.11 877.913,2550.85 880.561,2540.59 M956.691,2819.63 C956.691,2843.13 947.092,2867.29 923.591,2876.89 C916.64,2837.17 907.703,2784.54 905.386,2769.98 C935.176,2769.98 956.691,2790.17 956.691,2819.63 M811.051,2982.48 C811.051,3004.32 827.932,3033.12 872.617,3033.12 C888.174,3033.12 901.745,3029.15 913.661,3021.87 C931.535,3009.29 936.169,2987.44 936.169,2966.59 C936.169,2953.68 934.183,2938.79 930.873,2919.92 C929.88,2913.3 927.894,2903.37 925.908,2890.46 C958.346,2879.87 982.509,2846.11 982.509,2812.01 C982.509,2762.03 947.092,2728.27 898.766,2728.27 C895.456,2708.41 892.146,2688.88 889.167,2670.35 C924.253,2633.6 948.416,2592.23 948.416,2539.6 C948.416,2509.48 939.148,2484.99 933.852,2473.07 C925.908,2456.19 916.309,2444.6 910.351,2444.6 C908.034,2444.6 897.773,2448.58 886.85,2461.48 C865.666,2486.64 859.708,2529.01 859.708,2556.81 C859.708,2574.69 861.363,2590.91 866.99,2627.98 C866.659,2628.31 849.447,2645.85 842.496,2651.48 C812.375,2679.61 770.669,2719.66 770.669,2785.86 C770.669,2847.76 824.622,2896.42 886.188,2896.42 C895.787,2896.42 904.724,2895.43 912.337,2894.1 C918.626,2925.88 922.267,2949.05 922.267,2966.59 C922.267,3001.01 904.724,3019.22 871.293,3019.22 C863.349,3019.22 856.398,3017.56 855.736,3017.56 C855.405,3017.23 854.743,3016.9 854.743,3016.57 C854.743,3015.91 855.405,3015.58 856.398,3015.25 C871.955,3012.93 887.512,2999.69 887.512,2978.51 C887.512,2960.63 873.941,2941.77 849.116,2941.77 C825.946,2941.77 811.051,2960.63 811.051,2982.48"/>
<path class="Clef" d="M909.689,1144.64 C903.069,1145.97 896.78,1146.63 890.491,1146.63 C843.158,1146.63 802.776,1113.53 802.776,1063.55 C802.776,1023.16 831.242,987.085 860.37,961.929 C865.997,956.964 871.293,952.33 876.258,947.365 C879.237,965.239 881.554,980.796 883.871,994.367 C853.75,1003.3 833.228,1035.08 833.228,1066.19 C833.228,1089.36 851.433,1121.14 877.913,1121.14 C880.561,1121.14 883.54,1119.82 883.54,1116.84 C883.54,1113.86 880.23,1112.2 876.258,1109.56 C863.349,1101.61 856.067,1093.01 856.067,1076.79 C856.067,1056.6 870.962,1040.38 890.491,1035.74 L909.689,1144.64 M880.561,804.373 C883.54,791.133 898.766,756.378 915.978,756.378 C920.943,756.378 928.887,772.597 928.887,795.436 C928.887,829.86 903.4,855.678 880.561,878.186 C878.575,864.946 876.92,852.037 876.92,838.135 C876.92,825.888 877.913,814.634 880.561,804.373 M956.691,1083.41 C956.691,1106.91 947.092,1131.07 923.591,1140.67 C916.64,1100.95 907.703,1048.32 905.386,1033.76 C935.176,1033.76 956.691,1053.95 956.691,1083.41 M811.051,1246.26 C811.051,1268.1 827.932,1296.9 872.617,1296.9 C888.174,1296.9 901.745,1292.93 913.661,1285.65 C931.535,1273.07 936.169,1251.22 936.169,1230.37 C936.169,1217.46 934.183,1202.57 930.873,1183.7 C929.88,1177.08 927.894,1167.15 925.908,1154.24 C958.346,1143.65 982.509,1109.89 982.509,1075.79 C982.509,1025.81 947.092,992.05 898.766,992.05 C895.456,972.19 892.146,952.661 889.167,934.125 C924.253,897.384 948.416,856.009 948.416,803.38 C948.416,773.259 939.148,748.765 933.852,736.849 C925.908,719.968 916.309,708.383 910.351,708.383 C908.034,708.383 897.773,712.355 886.85,725.264 C865.666,750.42 859.708,792.788 859.708,820.592 C859.708,838.466 861.363,854.685 866.99,891.757 C866.659,892.088 849.447,909.631 842.496,915.258 C812.375,943.393 770.669,983.444 770.669,1049.64 C770.669,1111.54 824.622,1160.2 886.188,1160.2 C895.787,1160.2 904.724,1159.21 912.337,1157.88 C918.626,1189.66 922.267,1212.83 922.267,1230.37 C922.267,1264.79 904.724,1283 871.293,1283 C863.349,1283 856.398,1281.34 855.736,1281.34 C855.405,1281.01 854.743,1280.68 854.743,1280.35 C854.743,1279.69 855.405,1279.36 856.398,1279.03 C871.955,1276.71 887.512,1263.47 887.512,1242.29 C887.512,1224.41 873.941,1205.55 849.116,1205.55 C825.946,1205.55 811.051,1224.41 811.051,1246.26"/>
<path class="KeySig" d="M1070.17,1672.04 L1099.63,1666.08 L1099.63,1720.7 L1070.17,1726.99 L1070.17,1672.04 M1121.48,1661.78 C1123.47,1661.45 1125.12,1659.13 1125.12,1657.14 L1125.12,1637.62 C1125.12,1634.97 1123.13,1632.98 1120.49,1632.98 L1119.82,1632.98 L1108.9,1635.3 L1108.9,1585.98 L1099.63,1585.98 L1099.63,1637.28 L1070.17,1643.24 L1070.17,1596.57 L1060.91,1596.57 L1060.91,1645.23 L1048,1647.88 C1046.01,1648.21 1044.36,1650.52 1044.36,1652.51 L1044.36,1671.71 C1044.36,1674.36 1046.34,1676.34 1048.99,1676.34 L1049.98,1676.34 L1060.91,1674.03 L1060.91,1728.64 L1048,1731.29 C1046.01,1731.62 1044.36,1733.94 1044.36,1735.92 L1044.36,1755.12 C1044.36,1757.77 1046.34,1759.75 1048.99,1759.75 L1049.98,1759.75 L1060.91,1757.44 L1060.91,1806.76 L1070.17,1806.76 L1070.17,1755.45 L1099.63,1749.49 L1099.63,1796.16 L1108.9,1796.16 L1108.9,1747.51 L1121.48,1745.19 C1123.47,1744.86 1125.12,1742.54 1125.12,1740.56 L1125.12,1721.03 C1125.12,1718.38 1123.13,1716.39 1120.49,1716.39 L1119.82,1716.39 L1108.9,1718.71 L1108.9,1664.1 L1121.48,1661.78 "/>
<path class="KeySig" d="M1070.17,2540.15 L1099.63,2534.19 L1099.63,2588.81 L1070.17,2595.1 L1070.17,2540.15 M1121.48,2529.89 C1123.47,2529.56 1125.12,2527.24 1125.12,2525.26 L1125.12,2505.73 C1125.12,2503.08 1123.13,2501.09 1120.49,2501.09 L1119.82,2501.09 L1108.9,2503.41 L1108.9,2454.09 L1099.63,2454.09 L1099.63,2505.4 L1070.17,2511.35 L1070.17,2464.68 L1060.91,2464.68 L1060.91,2513.34 L1048,2515.99 C1046.01,2516.32 1044.36,2518.64 1044.36,2520.62 L1044.36,2539.82 C1044.36,2542.47 1046.34,2544.45 1048.99,2544.45 L1049.98,2544.45 L1060.91,2542.14 L1060.91,2596.75 L1048,2599.4 C1046.01,2599.73 1044.36,2602.05 1044.36,2604.03 L1044.36,2623.23 C1044.36,2625.88 1046.34,2627.87 1048.99,2627.87 L1049.98,2627.87 L1060.91,2625.55 L1060.91,2674.87 L1070.17,2674.87 L1070.17,2623.56 L1099.63,2617.6 L1099.63,2664.28 L1108.9,2664.28 L1108.9,2615.62 L1121.48,2613.3 C1123.47,2612.97 1125.12,2610.65 1125.12,2608.67 L1125.12,2589.14 C1125.12,2586.49 1123.13,2584.5 1120.49,2584.5 L1119.82,2584.5 L1108.9,2586.82 L1108.9,2532.21 L1121.48,2529.89 "/>
<path class="KeySig" d="M1070.17,803.93 L1099.63,797.972 L1099.63,852.587 L1070.17,858.876 L1070.17,803.93 M1121.48,793.669 C1123.47,793.338 1125.12,791.021 1125.12,789.035 L1125.12,769.506 C1125.12,766.858 1123.13,764.872 1120.49,764.872 L1119.82,764.872 L1108.9,767.189 L1108.9,717.87 L1099.63,717.87 L1099.63,769.175 L1070.17,775.133 L1070.17,728.462 L1060.91,728.462 L1060.91,777.119 L1048,779.767 C1046.01,780.098 1044.36,782.415 1044.36,784.401 L1044.36,803.599 C1044.36,806.247 1046.34,808.233 1048.99,808.233 L1049.98,808.233 L1060.91,805.916 L1060.91,860.531 L1048,863.179 C1046.01,863.51 1044.36,865.827 1044.36,867.813 L1044.36,887.011 C1044.36,889.659 1046.34,891.645 1048.99,891.645 L1049.98,891.645 L1060.91,889.328 L1060.91,938.647 L1070.17,938.647 L1070.17,887.342 L1099.63,881.384 L1099.63,928.055 L1108.9,928.055 L1108.9,879.398 L1121.48,877.081 C1123.47,876.75 1125.12,874.433 1125.12,872.447 L1125.12,852.918 C1125.12,850.27 1123.13,848.284 1120.49,848.284 L1119.82,848.284 L1108.9,850.601 L1108.9,795.986 L1121.48,793.669 "/>
<path class="TimeSig" d="M1281.87,979.772 C1270.94,979.772 1262.01,964.877 1262.01,946.341 C1262.01,927.805 1270.94,912.579 1281.87,912.579 C1292.79,912.579 1302.06,927.805 1302.06,946.341 C1302.06,964.877 1292.79,979.772 1281.87,979.772 M1294.11,897.022 C1273.92,897.022 1266.64,902.98 1262.01,907.945 C1261.01,900.994 1260.35,895.698 1260.35,890.402 C1260.35,871.535 1266.97,847.041 1290.14,847.041 C1298.42,847.041 1303.38,849.689 1306.69,853.33 C1299.74,856.309 1294.11,865.246 1294.11,872.859 C1294.11,884.775 1303.38,894.043 1315.3,894.043 C1327.21,894.043 1336.81,884.775 1336.81,872.859 L1336.81,871.866 C1336.81,868.887 1336.15,863.922 1334.83,861.274 C1330.52,849.358 1316.62,831.815 1283.52,831.815 C1253.73,831.815 1232.22,860.281 1225.6,875.507 C1222.29,883.451 1217.32,899.67 1217.32,918.206 C1217.32,938.397 1222.95,961.236 1242.48,978.448 C1261.68,993.012 1273.92,993.674 1285.51,993.674 C1297.09,993.674 1340.45,980.103 1340.45,941.707 C1340.45,909.269 1314.97,897.022 1294.11,897.022"/>
<path class="TimeSig" d="M1271.95,1118.01 L1271.95,1142.5 L1244.48,1142.5 C1242.16,1142.5 1239.85,1144.49 1239.85,1147.13 L1239.85,1153.42 C1239.85,1156.07 1242.16,1158.06 1244.48,1158.06 L1344.77,1158.06 C1347.42,1158.06 1349.41,1156.07 1349.41,1153.42 L1349.41,1147.13 C1349.41,1144.49 1347.42,1142.5 1344.77,1142.5 L1314.98,1142.5 L1314.98,1118.01 L1344.77,1118.01 C1347.42,1118.01 1349.41,1115.69 1349.41,1113.04 L1349.41,1106.75 C1349.41,1104.44 1347.42,1102.12 1344.77,1102.12 L1314.98,1102.12 L1314.98,1049.49 C1314.98,1047.5 1313.99,1045.85 1312.67,1045.19 L1308.7,1043.2 C1308.03,1042.87 1307.7,1042.87 1307.04,1042.87 C1305.72,1042.87 1304.39,1042.87 1303.4,1043.86 L1273.28,1071.34 C1272.29,1072.33 1271.95,1073.65 1271.95,1074.98 L1271.95,1102.12 L1233.56,1102.12 C1233.56,1102.12 1270.63,1062.4 1309.69,1010.1 C1311.01,1008.45 1311.34,1006.79 1311.34,1005.47 C1311.34,1003.81 1310.68,1002.49 1310.35,1002.16 L1303.07,994.874 C1302.08,994.212 1301.08,993.55 1299.76,993.55 C1297.77,993.55 1253.09,993.55 1250.44,993.55 C1248.12,993.55 1246.47,995.536 1246.14,997.522 C1246.14,997.522 1244.48,1022.02 1235.88,1048.83 C1227.27,1075.64 1217.34,1092.19 1208.73,1104.44 C1208.73,1104.44 1207.74,1106.09 1207.74,1108.08 C1207.74,1108.74 1207.74,1109.4 1208.07,1110.06 C1209.06,1112.38 1211.38,1116.02 1211.38,1116.02 C1211.38,1116.02 1212.04,1118.01 1215.02,1118.01 L1271.95,1118.01 "/>
<path class="NoteDot" d="M5705.2,2688.66 C5705.2,2697.93 5712.49,2705.21 5721.75,2705.21 C5731.02,2705.21 5738.3,2697.93 5738.3,2688.66 C5738.3,2679.39 5731.02,2672.11 5721.75,2672.11 C5712.49,2672.11 5705.2,2679.39 5705.2,2688.66"/>
<path class="NoteDot" d="M6442.68,952.439 C6442.68,961.707 6449.96,968.989 6459.23,968.989 C6468.5,968.989 6475.78,961.707 6475.78,952.439 C6475.78,943.171 6468.5,935.889 6459.23,935.889 C6449.96,935.889 6442.68,943.171 6442.68,952.439"/>
<path class="NoteDot" d="M7530.96,1117.79 C7530.96,1127.06 7538.24,1134.34 7547.51,1134.34 C7556.78,1134.34 7564.06,1127.06 7564.06,1117.79 C7564.06,1108.53 7556.78,1101.24 7547.51,1101.24 C7538.24,1101.24 7530.96,1108.53 7530.96,1117.79"/>
<path class="NoteDot" d="M1663.48,1117.79 C1663.48,1127.06 1670.77,1134.34 1680.03,1134.34 C1689.3,1134.34 1696.58,1127.06 1696.58,1117.79 C1696.58,1108.53 1689.3,1101.24 1680.03,1101.24 C1670.77,1101.24 1663.48,1108.53 1663.48,1117.79"/>
<path class="NoteDot" d="M3713.16,952.439 C3713.16,961.707 3720.45,968.989 3729.71,968.989 C3738.98,968.989 3746.26,961.707 3746.26,952.439 C3746.26,943.171 3738.98,935.889 3729.71,935.889 C3720.45,935.889 3713.16,943.171 3713.16,952.439"/>
<path class="NoteDot" d="M7761.98,1820.55 C7761.98,1829.82 7769.26,1837.1 7778.53,1837.1 C7787.8,1837.1 7795.08,1829.82 7795.08,1820.55 C7795.08,1811.28 7787.8,1804 7778.53,1804 C7769.26,1804 7761.98,1811.28 7761.98,1820.55"/>
<path class="NoteDot" d="M2629.21,1035.12 C2629.21,1044.38 2636.49,1051.67 2645.76,1051.67 C2655.03,1051.67 2662.31,1044.38 2662.31,1035.12 C2662.31,1025.85 2655.03,1018.57 2645.76,1018.57 C2636.49,1018.57 2629.21,1025.85 2629.21,1035.12"/>
<path class="NoteDot" d="M7974.99,2854.01 C7974.99,2863.28 7982.27,2870.56 7991.54,2870.56 C8000.81,2870.56 8008.09,2863.28 8008.09,2854.01 C8008.09,2844.75 8000.81,2837.46 7991.54,2837.46 C7982.27,2837.46 7974.99,2844.75 7974.99,2854.01"/>
<path class="NoteDot" d="M6585.54,1737.87 C6585.54,1747.14 6592.82,1754.42 6602.09,1754.42 C6611.36,1754.42 6618.64,1747.14 6618.64,1737.87 C6618.64,1728.6 6611.36,1721.32 6602.09,1721.32 C6592.82,1721.32 6585.54,1728.6 6585.54,1737.87"/>
</svg>
