<?xml version="1.0" encoding="UTF-8" standalone="no"?>
<svg
   width="681"
   height="186.10622"
   version="1.2"
   id="svg280"
   xmlns="http://www.w3.org/2000/svg"
   xmlns:svg="http://www.w3.org/2000/svg"
   xmlns:rdf="http://www.w3.org/1999/02/22-rdf-syntax-ns#"
   xmlns:cc="http://creativecommons.org/ns#"
   xmlns:dc="http://purl.org/dc/elements/1.1/">
  <defs
     id="defs280" />
  <title
     id="title1">air_LI</title>
  <desc
     id="desc1">Generated by MuseScore Studio 4.7.3</desc>
  <path
     id="path280"
     class="NoteDot"
     d="m 585.97584,178.38653 c 0,0.74211 0.5836,1.32491 1.32491,1.32491 0.74211,0 1.32491,-0.5828 1.32491,-1.32491 0,-0.74211 -0.5828,-1.3249 -1.32491,-1.3249 -0.74131,0 -1.32491,0.58279 -1.32491,1.3249 M 478.48074,95.653163 c 0,0.741306 0.5836,1.324906 1.32491,1.324906 0.74211,0 1.32491,-0.5836 1.32491,-1.324906 0,-0.742108 -0.5828,-1.324906 -1.32491,-1.324906 -0.74131,0 -1.32491,0.582798 -1.32491,1.324906 M 143.17788,19.537839 c 0,0.741947 0.5828,1.324906 1.32491,1.324906 0.7413,0 1.3249,-0.582959 1.3249,-1.324906 0,-0.741947 -0.5836,-1.324906 -1.3249,-1.324906 -0.74211,0 -1.32491,0.582959 -1.32491,1.324906 m 264.4248,6.619006 c 0,0.741307 0.5828,1.324906 1.32491,1.324906 0.7421,0 1.3249,-0.583599 1.3249,-1.324906 0,-0.742108 -0.5828,-1.324906 -1.3249,-1.324906 -0.74211,0 -1.32491,0.582798 -1.32491,1.324906 m -95.49569,69.496318 c 0,0.741306 0.58279,1.324906 1.3249,1.324906 0.74211,0 1.32491,-0.5836 1.32491,-1.324906 0,-0.742108 -0.5828,-1.324906 -1.32491,-1.324906 -0.74211,0 -1.3249,0.582798 -1.3249,1.324906 M 543.75658,19.537839 c 0,0.741947 0.58279,1.324906 1.3249,1.324906 0.74211,0 1.32491,-0.582959 1.32491,-1.324906 0,-0.741947 -0.5828,-1.324906 -1.32491,-1.324906 -0.74211,0 -1.3249,0.582959 -1.3249,1.324906 m -243.14706,6.619006 c 0,0.741307 0.5828,1.324906 1.32491,1.324906 0.74131,0 1.32491,-0.583599 1.32491,-1.324906 0,-0.742108 -0.5836,-1.324906 -1.32491,-1.324906 -0.74211,0 -1.32491,0.582798 -1.32491,1.324906 m 120.19259,69.496318 c 0,0.741306 0.58279,1.324906 1.3249,1.324906 0.74211,0 1.32491,-0.5836 1.32491,-1.324906 0,-0.742108 -0.5828,-1.324906 -1.32491,-1.324906 -0.74211,0 -1.3249,0.582798 -1.3249,1.324906 M 644.05716,19.537839 c 0,0.741947 0.58279,1.324906 1.3249,1.324906 0.74211,0 1.32491,-0.582959 1.32491,-1.324906 0,-0.741947 -0.5828,-1.324906 -1.32491,-1.324906 -0.74211,0 -1.3249,0.582959 -1.3249,1.324906 M 320.21733,158.53055 c 0,0.74211 0.5828,1.32491 1.32491,1.32491 0.7413,0 1.3249,-0.5828 1.3249,-1.32491 0,-0.7421 -0.5836,-1.3249 -1.3249,-1.3249 -0.74211,0 -1.32491,0.5828 -1.32491,1.3249 M 174.08702,95.653163 c 0,0.741306 0.58279,1.324906 1.3249,1.324906 0.74211,0 1.32491,-0.5836 1.32491,-1.324906 0,-0.742108 -0.5828,-1.324906 -1.32491,-1.324906 -0.74211,0 -1.3249,0.582798 -1.3249,1.324906 m 69.39144,-76.115324 c 0,0.741947 0.5828,1.324906 1.32491,1.324906 0.74211,0 1.3249,-0.582959 1.3249,-1.324906 0,-0.741947 -0.58279,-1.324906 -1.3249,-1.324906 -0.74211,0 -1.32491,0.582959 -1.32491,1.324906 m 347.9347,76.115324 c 0,0.741306 0.5828,1.324906 1.32491,1.324906 0.7421,0 1.3249,-0.5836 1.3249,-1.324906 0,-0.742108 -0.5828,-1.324906 -1.3249,-1.324906 -0.74211,0 -1.32491,0.582798 -1.32491,1.324906 m -420.4843,51.290267 23.30393,1.65473 v 3.31747 l -23.30393,-1.65393 v -3.31827 m 347.49199,-69.493114 41.6837,1.654732 v 3.311864 l -41.6837,-1.654731 v -3.311865 m -6.25227,-57.923845 14.0472,1.654652 v 3.332198 l -14.0472,-1.654651 v -3.332199 m -419.016103,84.388339 41.683703,4.9642 v 3.33267 l -41.683703,-4.96419 v -3.33268 m 290.309703,72.81299 68.58769,4.96419 v 3.31747 l -68.58769,-4.96419 V 176.7278 M 204.79201,34.418494 l 14.04801,1.654731 v 3.331878 l -14.04801,-1.654731 v -3.331878 m 400.5795,0 14.0472,1.654731 v 3.331878 l -14.0472,-1.654731 V 34.418494 M 481.97193,145.2935 h 68.5877 v 3.30867 h -68.5877 V 145.2935 M 38.456682,112.18767 80.14038,107.22427 v 3.33268 l -41.683698,4.9634 v -3.33268 m 7.94223,29.79397 68.587698,-3.30946 v 3.31346 l -68.587698,3.30947 v -3.31347 m 179.278578,4.96579 68.5869,-1.65473 v 3.31027 l -68.5869,1.65473 v -3.31027 M 335.47496,6.299107 376.29407,7.9537584 V 11.265863 L 335.47496,9.6112116 V 6.299107 m 18.7168,105.900573 h 41.6837 v 3.30946 h -41.6837 v -3.30946 m -242.60188,-92.673209 14.04721,1.654652 v 3.332198 L 111.58988,22.85867 v -3.332199 m 169.19729,56.259507 14.3354,1.654732 v 3.331078 l -14.3354,-1.654732 V 75.785978 M 650.9963,86.964822 c -0.0264,0 -0.0793,-0.02722 -0.10567,-0.02722 -0.15931,0 -0.2914,0.08006 -0.34424,0.212145 -0.10647,0.159309 -0.92783,1.722778 -2.11985,2.596976 -0.34503,0.264981 -0.76852,0.450708 -1.19281,0.529962 0.2914,-0.344235 0.47712,-0.768525 0.47712,-1.272069 0,-1.033507 -0.84778,-1.881287 -1.88128,-1.881287 -1.05993,0 -1.90771,0.84778 -1.90771,1.881287 0,1.431378 1.40416,2.093431 2.64982,2.093431 1.40416,0 2.33119,-0.662053 3.23261,-1.642723 l -3.02127,9.43365 0.71569,0.211345 3.70974,-11.68559 c 0.0264,-0.02642 0.0264,-0.07926 0.0264,-0.132091 0,-0.132891 -0.0793,-0.238563 -0.23856,-0.317817 M 37.140582,18.104059 c -0.662053,0.423969 -1.139179,1.192415 -1.139179,2.040355 0,0.105992 0,0.211985 0.02642,0.317977 0.13209,1.086423 1.007089,1.934363 2.093432,2.066853 h 0.291399 c 1.324906,0 2.38483,-1.059924 2.38483,-2.38483 v -0.158989 c 0,-0.105992 -0.02642,-0.291479 -0.05284,-0.397472 -0.238563,-1.139419 -1.27207,-3.577246 -5.77675,-3.577246 -5.776749,0 -6.438802,4.79616 -6.438802,6.518537 0,3.153677 0.397071,7.101176 7.021601,7.101176 2.623394,0 4.663989,-1.536251 4.769661,-4.371789 0,-0.132891 -0.07925,-0.212146 -0.212145,-0.212146 h -0.344235 c -0.105673,0 -0.212145,0.106473 -0.212145,0.212146 -0.105673,2.199103 -1.669142,3.524009 -4.001136,3.524009 -2.305577,0 -3.418337,-1.244851 -3.418337,-3.576846 v -5.06138 c 0,-1.483895 0.582798,-3.179774 2.941211,-3.179774 1.245651,0 1.802032,0.450468 2.093431,0.900936 0.02642,0.053 0.02642,0.07949 0.02642,0.13249 0,0.0265 0,0.07949 -0.05284,0.105993 M 16.093311,173.91708 c -0.529962,0.10647 -1.033427,0.1593 -1.536891,0.1593 -3.789231,0 -7.0220012,-2.64981 -7.0220012,-6.65094 0,-3.23341 2.2788382,-6.12099 4.6106722,-8.13517 0.450468,-0.39787 0.874438,-0.76852 1.27191,-1.16559 0.238483,1.43058 0.42397,2.67623 0.609457,3.76257 -2.411329,0.71489 -4.0542123,3.25903 -4.0542123,5.74953 0,1.85487 1.4573963,4.39901 3.5772463,4.39901 0.211985,0 0.450468,-0.10567 0.450468,-0.34424 0,-0.23856 -0.264982,-0.37145 -0.582959,-0.58279 -1.033427,-0.63644 -1.616385,-1.32491 -1.616385,-2.6234 0,-1.6163 1.192415,-2.91479 2.755804,-3.28625 l 1.536891,8.71797 m -2.331834,-27.24023 c 0.238483,-1.05992 1.457396,-3.84183 2.835298,-3.84183 0.397472,0 1.033427,1.29849 1.033427,3.12694 0,2.75549 -2.040355,4.8225 -3.868725,6.62453 -0.158989,-1.05992 -0.29148,-2.09343 -0.29148,-3.20619 0,-0.98067 0.0795,-1.88209 0.29148,-2.70345 m 6.094567,22.33847 c 0,1.88129 -0.768446,3.81541 -2.649812,4.58394 -0.556461,-3.17978 -1.27191,-7.39306 -1.457397,-8.55865 2.384831,0 4.107209,1.6163 4.107209,3.97471 M 8.1968718,182.05224 c 0,1.74839 1.351404,4.05397 4.9286502,4.05397 1.245411,0 2.331834,-0.31782 3.285766,-0.90062 1.430899,-1.00708 1.801872,-2.75628 1.801872,-4.42542 0,-1.03351 -0.158988,-2.22552 -0.423969,-3.73616 -0.07949,-0.52996 -0.238484,-1.3249 -0.397472,-2.35841 2.596815,-0.84778 4.531178,-3.55043 4.531178,-6.28029 0,-4.00114 -2.835299,-6.70379 -6.704024,-6.70379 -0.264981,-1.58988 -0.529962,-3.15335 -0.768445,-4.63677 2.8088,-2.94201 4.743163,-6.25387 4.743163,-10.46715 0,-2.41125 -0.741948,-4.37179 -1.165917,-5.32605 -0.635955,-1.35132 -1.404401,-2.27915 -1.881367,-2.27915 -0.185487,0 -1.006928,0.31861 -1.881366,1.35132 -1.69588,2.01418 -2.172846,5.4061 -2.172846,7.63162 0,1.43138 0.132491,2.72986 0.582959,5.69749 -0.0265,0.0264 -1.404401,1.43058 -1.960861,1.88129 -2.4113287,2.25194 -5.7500916,5.45813 -5.7500916,10.75776 0,4.95538 4.3191932,8.85085 9.2478436,8.85085 0.768445,0 1.483894,-0.0793 2.093351,-0.18573 0.503464,2.54414 0.794943,4.39901 0.794943,5.80317 0,2.75548 -1.4044,4.21328 -4.08071,4.21328 -0.635955,0 -1.192415,-0.13289 -1.245411,-0.13289 -0.0265,-0.0264 -0.07949,-0.0528 -0.07949,-0.0793 0,-0.0528 0.053,-0.0792 0.132491,-0.10567 1.245412,-0.18573 2.490823,-1.24565 2.490823,-2.94121 0,-1.43138 -1.086423,-2.94121 -3.073782,-2.94121 -1.8548679,0 -3.0472832,1.50983 -3.0472832,3.25903 M 16.093311,34.924439 c -0.529962,0.106473 -1.033427,0.159309 -1.536891,0.159309 -3.789231,0 -7.0220012,-2.649811 -7.0220012,-6.650947 0,-3.233411 2.2788382,-6.121386 4.6106722,-8.135243 0.450468,-0.397471 0.874438,-0.768445 1.27191,-1.165917 0.238483,1.430899 0.42397,2.67631 0.609457,3.762733 -2.411329,0.715129 -4.0542123,3.259268 -4.0542123,5.749771 0,1.854869 1.4573963,4.399008 3.5772463,4.399008 0.211985,0 0.450468,-0.105672 0.450468,-0.344235 0,-0.238563 -0.264982,-0.371454 -0.582959,-0.582799 -1.033427,-0.636435 -1.616385,-1.324906 -1.616385,-2.623393 0,-1.616306 1.192415,-2.914793 2.755804,-3.286247 l 1.536891,8.71796 M 13.761477,7.6844542 c 0.238483,-1.0599247 1.457396,-3.8422271 2.835298,-3.8422271 0.397472,0 1.033427,1.2984078 1.033427,3.1267779 0,2.7558043 -2.040355,4.822658 -3.868725,6.62453 -0.158989,-1.059925 -0.29148,-2.093352 -0.29148,-3.206273 0,-0.9804301 0.0795,-1.8813661 0.29148,-2.7028078 m 6.094567,22.3382338 c 0,1.881286 -0.768446,3.815409 -2.649812,4.583934 -0.556461,-3.179774 -1.27191,-7.393055 -1.457397,-8.558652 2.384831,0 4.107209,1.616305 4.107209,3.974718 M 8.1968718,43.059602 c 0,1.748395 1.351404,4.053972 4.9286502,4.053972 1.245411,0 2.331834,-0.317818 3.285766,-0.900616 1.430899,-1.007089 1.801872,-2.756285 1.801872,-4.425426 0,-1.033507 -0.158988,-2.225522 -0.423969,-3.736154 -0.07949,-0.529963 -0.238484,-1.324906 -0.397472,-2.358413 2.596815,-0.84778 4.531178,-3.550428 4.531178,-6.280294 0,-4.001136 -2.835299,-6.703784 -6.704024,-6.703784 -0.264981,-1.589887 -0.529962,-3.153276 -0.768445,-4.637171 2.8088,-2.941291 4.743163,-6.253555 4.743163,-10.4667561 0,-2.4113288 -0.741948,-4.3721895 -1.165917,-5.3261218 C 17.391719,0.92743413 16.623273,0 16.146307,0 15.96082,0 15.139379,0.31797742 14.264941,1.351404 c -1.69588,2.013857 -2.172846,5.4056161 -2.172846,7.631458 0,1.430898 0.132491,2.729306 0.582959,5.697095 -0.0265,0.0265 -1.404401,1.430899 -1.960861,1.881367 -2.4113287,2.25234 -5.7500916,5.458612 -5.7500916,10.757915 0,4.955389 4.3191932,8.850852 9.2478436,8.850852 0.768445,0 1.483894,-0.07925 2.093351,-0.185727 0.503464,2.54414 0.794943,4.399008 0.794943,5.803168 0,2.755484 -1.4044,4.213281 -4.08071,4.213281 -0.635955,0 -1.192415,-0.132891 -1.245411,-0.132891 -0.0265,-0.02642 -0.07949,-0.05284 -0.07949,-0.07925 0,-0.05284 0.053,-0.07925 0.132491,-0.105672 1.245412,-0.185727 2.490823,-1.245652 2.490823,-2.941211 0,-1.431379 -1.086423,-2.941211 -3.073782,-2.941211 -1.8548679,0 -3.0472832,1.509832 -3.0472832,3.259028 m 7.8964392,61.361154 c -0.529962,0.10647 -1.033427,0.15931 -1.536891,0.15931 -3.789231,0 -7.0220012,-2.64982 -7.0220012,-6.650947 0,-3.233411 2.2788382,-6.120985 4.6106722,-8.135163 0.450468,-0.397872 0.874438,-0.768525 1.27191,-1.165597 0.238483,1.430579 0.42397,2.67623 0.609457,3.762573 -2.411329,0.714889 -4.0542123,3.259028 -4.0542123,5.749531 0,1.854869 1.4573963,4.399003 3.5772463,4.399003 0.211985,0 0.450468,-0.10567 0.450468,-0.34423 0,-0.23857 -0.264982,-0.37146 -0.582959,-0.5828 -1.033427,-0.63644 -1.616385,-1.32491 -1.616385,-2.623392 0,-1.616306 1.192415,-2.914793 2.755804,-3.286247 l 1.536891,8.717959 M 13.761477,77.180532 c 0.238483,-1.059925 1.457396,-3.841827 2.835298,-3.841827 0.397472,0 1.033427,1.298488 1.033427,3.126938 0,2.755484 -2.040355,4.822498 -3.868725,6.62453 -0.158989,-1.059925 -0.29148,-2.093432 -0.29148,-3.206193 0,-0.98067 0.0795,-1.882086 0.29148,-2.703448 m 6.094567,22.338474 c 0,1.881284 -0.768446,3.815404 -2.649812,4.583934 -0.556461,-3.17977 -1.27191,-7.393055 -1.457397,-8.558652 2.384831,0 4.107209,1.616305 4.107209,3.974718 M 8.1968718,112.55592 c 0,1.7484 1.351404,4.05397 4.9286502,4.05397 1.245411,0 2.331834,-0.31782 3.285766,-0.90061 1.430899,-1.00709 1.801872,-2.75629 1.801872,-4.42543 0,-1.03351 -0.158988,-2.22552 -0.423969,-3.73615 -0.07949,-0.52997 -0.238484,-1.32491 -0.397472,-2.35842 2.596815,-0.84778 4.531178,-3.55042 4.531178,-6.280291 0,-4.001136 -2.835299,-6.703784 -6.704024,-6.703784 -0.264981,-1.589887 -0.529962,-3.153356 -0.768445,-4.63677 2.8088,-2.942012 4.743163,-6.253876 4.743163,-10.467157 0,-2.411249 -0.741948,-4.371789 -1.165917,-5.326042 -0.635955,-1.351324 -1.404401,-2.279158 -1.881367,-2.279158 -0.185487,0 -1.006928,0.318618 -1.881366,1.351324 -1.69588,2.014177 -2.172846,5.406096 -2.172846,7.631618 0,1.431379 0.132491,2.729866 0.582959,5.697495 -0.0265,0.02642 -1.404401,1.430579 -1.960861,1.881287 -2.4113287,2.25194 -5.7500916,5.458132 -5.7500916,10.757755 0,4.955393 4.3191932,8.850853 9.2478436,8.850853 0.768445,0 1.483894,-0.0793 2.093351,-0.18573 0.503464,2.54414 0.794943,4.39901 0.794943,5.80317 0,2.75548 -1.4044,4.21328 -4.08071,4.21328 -0.635955,0 -1.192415,-0.13289 -1.245411,-0.13289 -0.0265,-0.0264 -0.07949,-0.0528 -0.07949,-0.0793 0,-0.0528 0.053,-0.0793 0.132491,-0.10568 1.245412,-0.18572 2.490823,-1.24565 2.490823,-2.94121 0,-1.43138 -1.086423,-2.94121 -3.073782,-2.94121 -1.8548679,0 -3.0472832,1.50983 -3.0472832,3.25903 M 408.88756,100.07539 c 0,1.13918 0.82136,2.41124 2.96763,2.41124 2.75548,0 5.64386,-2.25274 5.64386,-4.583929 0,-1.563469 -1.32491,-2.438468 -2.96763,-2.438468 -2.57056,0 -5.64386,2.173487 -5.64386,4.611157 M 395.68813,27.269606 c 0,1.139178 0.82137,2.411248 2.96763,2.411248 2.75549,0 5.64386,-2.25274 5.64386,-4.583934 0,-1.563469 -1.3249,-2.438067 -2.96763,-2.438067 -2.57055,0 -5.64386,2.173086 -5.64386,4.610753 M 383.46218,153.02439 c 0,1.13998 0.82136,2.41205 2.96762,2.41205 2.75629,0 5.64466,-2.25274 5.64466,-4.58474 0,-1.56346 -1.3249,-2.43766 -2.96763,-2.43766 -2.57055,0 -5.64465,2.17268 -5.64465,4.61035 M 605.37151,17.341457 c 0,1.139419 0.82136,2.411329 2.96762,2.411329 2.75549,0 5.64386,-2.25234 5.64386,-4.584175 0,-1.563388 -1.3249,-2.437826 -2.96763,-2.437826 -2.57055,0 -5.64385,2.172845 -5.64385,4.610672 M 131.26253,20.65076 c 0,1.139419 0.82217,2.411329 2.96843,2.411329 2.75549,0 5.64386,-2.25234 5.64386,-4.584175 0,-1.563389 -1.3249,-2.437827 -2.96763,-2.437827 -2.57055,0 -5.64466,2.172846 -5.64466,4.610673 m 297.48341,138.99256 c 0,1.13917 0.82136,2.41124 2.96763,2.41124 2.75628,0 5.64466,-2.25194 5.64466,-4.58393 0,-1.56347 -1.32491,-2.43767 -2.96843,-2.43767 -2.56976,0 -5.64386,2.17269 -5.64386,4.61036 m -77.39052,-3.30947 c 0,1.13998 0.82216,2.41125 2.96843,2.41125 2.75549,0 5.64386,-2.25194 5.64386,-4.58393 0,-1.56347 -1.3249,-2.43767 -2.96763,-2.43767 -2.57056,0 -5.64466,2.17269 -5.64466,4.61035 m 100.0324,9.92839 c 0,1.13918 0.82136,2.41125 2.96763,2.41125 2.75628,0 5.64386,-2.25194 5.64386,-4.58393 0,-1.56347 -1.32491,-2.43767 -2.96763,-2.43767 -2.56976,0 -5.64386,2.17268 -5.64386,4.61035 M 326.19342,83.528072 c 0,1.13998 0.82136,2.412049 2.96763,2.412049 2.75628,0 5.64466,-2.25274 5.64466,-4.584734 0,-1.563469 -1.32491,-2.437667 -2.96843,-2.437667 -2.56976,0 -5.64386,2.172685 -5.64386,4.610352 M 557.29463,17.341457 c 0,1.139419 0.82136,2.411329 2.96763,2.411329 2.75629,0 5.64466,-2.25234 5.64466,-4.584175 0,-1.563388 -1.3249,-2.437826 -2.96763,-2.437826 -2.57056,0 -5.64466,2.172845 -5.64466,4.610672 M 308.30198,159.64332 c 0,1.13917 0.82137,2.41124 2.96843,2.41124 2.75549,0 5.64386,-2.25194 5.64386,-4.58393 0,-1.56347 -1.3249,-2.43767 -2.96763,-2.43767 -2.57055,0 -5.64466,2.17269 -5.64466,4.61036 M 618.75666,20.65076 c 0,1.139419 0.82216,2.411329 2.96843,2.411329 2.75548,0 5.64386,-2.25234 5.64386,-4.584175 0,-1.563389 -1.32491,-2.437827 -2.96763,-2.437827 -2.57056,0 -5.64466,2.172846 -5.64466,4.610673 M 285.6601,166.26224 c 0,1.13918 0.82217,2.41125 2.96843,2.41125 2.75549,0 5.64386,-2.25194 5.64386,-4.58393 0,-1.56347 -1.3249,-2.43767 -2.96763,-2.43767 -2.57055,0 -5.64466,2.17268 -5.64466,4.61035 M 632.14261,23.960143 c 0,1.139179 0.82136,2.411248 2.96763,2.411248 2.75628,0 5.64466,-2.251939 5.64466,-4.584094 0,-1.563389 -1.32491,-2.437827 -2.96843,-2.437827 -2.56976,0 -5.64386,2.172846 -5.64386,4.610673 M 263.01902,169.5717 c 0,1.13918 0.82136,2.41125 2.96763,2.41125 2.75549,0 5.64386,-2.25274 5.64386,-4.58393 0,-1.56347 -1.32491,-2.43847 -2.96763,-2.43847 -2.57056,0 -5.64386,2.17349 -5.64386,4.61115 m 211.01068,0 c 0,1.13918 0.82136,2.41125 2.96763,2.41125 2.75548,0 5.64386,-2.25274 5.64386,-4.58393 0,-1.56347 -1.32491,-2.43847 -2.96763,-2.43847 -2.57056,0 -5.64386,2.17349 -5.64386,4.61115 m -233.65256,6.61813 c 0,1.13998 0.82136,2.41205 2.96763,2.41205 2.75548,0 5.64386,-2.25274 5.64386,-4.58474 0,-1.56347 -1.32491,-2.43766 -2.96763,-2.43766 -2.57056,0 -5.64386,2.17268 -5.64386,4.61035 M 288.69418,27.269606 c 0,1.139178 0.82136,2.411248 2.96763,2.411248 2.75628,0 5.64466,-2.25274 5.64466,-4.583934 0,-1.563469 -1.32491,-2.438067 -2.96763,-2.438067 -2.57056,0 -5.64466,2.173086 -5.64466,4.610753 M 434.52589,20.65076 c 0,1.139419 0.82216,2.411329 2.96843,2.411329 2.75548,0 5.64386,-2.25234 5.64386,-4.584175 0,-1.563389 -1.32491,-2.437827 -2.96763,-2.437827 -2.57056,0 -5.64466,2.172846 -5.64466,4.610673 M 217.73526,169.5717 c 0,1.13918 0.82136,2.41125 2.96763,2.41125 2.75548,0 5.64386,-2.25274 5.64386,-4.58393 0,-1.56347 -1.32491,-2.43847 -2.96763,-2.43847 -2.57056,0 -5.64386,2.17349 -5.64386,4.61115 M 657.59521,30.579068 c 0,1.139179 0.82136,2.411249 2.96763,2.411249 2.75629,0 5.64466,-2.25274 5.64466,-4.583934 0,-1.563469 -1.3249,-2.438468 -2.96763,-2.438468 -2.57056,0 -5.64466,2.173487 -5.64466,4.611153 M 300.19244,100.07539 c 0,1.13918 0.82136,2.41124 2.96763,2.41124 2.75628,0 5.64466,-2.25274 5.64466,-4.583929 0,-1.563469 -1.32491,-2.438468 -2.96843,-2.438468 -2.56976,0 -5.64386,2.173487 -5.64386,4.611157 m 67.49735,-69.496322 c 0,1.139179 0.82136,2.411249 2.96763,2.411249 2.75548,0 5.64386,-2.25274 5.64386,-4.583934 0,-1.563469 -1.32491,-2.438468 -2.96763,-2.438468 -2.57056,0 -5.64386,2.173487 -5.64386,4.611153 M 185.62851,176.18983 c 0,1.13998 0.82136,2.41205 2.96763,2.41205 2.75628,0 5.64466,-2.25274 5.64466,-4.58474 0,-1.56347 -1.32491,-2.43766 -2.96843,-2.43766 -2.56976,0 -5.64386,2.17268 -5.64386,4.61035 M 354.30384,37.197193 c 0,1.13998 0.82136,2.41205 2.96763,2.41205 2.75628,0 5.64466,-2.252741 5.64466,-4.584735 0,-1.563469 -1.32491,-2.437667 -2.96763,-2.437667 -2.57056,0 -5.64466,2.172686 -5.64466,4.610352 M 496.67158,166.26224 c 0,1.13918 0.82136,2.41125 2.96763,2.41125 2.75549,0 5.64386,-2.25194 5.64386,-4.58393 0,-1.56347 -1.32491,-2.43767 -2.96763,-2.43767 -2.57056,0 -5.64386,2.17268 -5.64386,4.61035 m -333.68495,3.30946 c 0,1.13918 0.82136,2.41125 2.96762,2.41125 2.75629,0 5.64466,-2.25274 5.64466,-4.58393 0,-1.56347 -1.3249,-2.43847 -2.96843,-2.43847 -2.56975,0 -5.64385,2.17349 -5.64385,4.61115 M 340.91869,30.579068 c 0,1.139179 0.82136,2.411249 2.96763,2.411249 2.75548,0 5.64385,-2.25274 5.64385,-4.583934 0,-1.563469 -1.3249,-2.438468 -2.96762,-2.438468 -2.57056,0 -5.64386,2.173487 -5.64386,4.611153 M 129.0242,166.26224 c 0,1.13918 0.82137,2.41125 2.96763,2.41125 2.75549,0 5.64386,-2.25194 5.64386,-4.58393 0,-1.56347 -1.3249,-2.43767 -2.96763,-2.43767 -2.57055,0 -5.64386,2.17268 -5.64386,4.61035 m 390.28926,3.30946 c 0,1.13918 0.82136,2.41125 2.96763,2.41125 2.75549,0 5.64386,-2.25274 5.64386,-4.58393 0,-1.56347 -1.3249,-2.43847 -2.96763,-2.43847 -2.57056,0 -5.64386,2.17349 -5.64386,4.61115 m -412.93114,-9.92838 c 0,1.13917 0.82136,2.41124 2.96763,2.41124 2.75549,0 5.64386,-2.25194 5.64386,-4.58393 0,-1.56347 -1.32491,-2.43767 -2.96763,-2.43767 -2.57056,0 -5.64386,2.17269 -5.64386,4.61036 M 531.84203,20.65076 c 0,1.139419 0.82136,2.411329 2.96763,2.411329 2.75628,0 5.64386,-2.25234 5.64386,-4.584175 0,-1.563389 -1.32491,-2.437827 -2.96763,-2.437827 -2.56976,0 -5.64386,2.172846 -5.64386,4.610673 M 354.19176,86.837535 c 0,1.139979 0.82136,2.411249 2.96763,2.411249 2.75548,0 5.64386,-2.25194 5.64386,-4.583935 0,-1.563469 -1.32491,-2.437666 -2.96763,-2.437666 -2.57056,0 -5.64386,2.172685 -5.64386,4.610352 M 83.740441,166.26224 c 0,1.13918 0.821362,2.41125 2.967629,2.41125 2.756285,0 5.643859,-2.25194 5.643859,-4.58393 0,-1.56347 -1.324906,-2.43767 -2.967629,-2.43767 -2.569757,0 -5.643859,2.17268 -5.643859,4.61035 m -22.641878,3.30946 c 0,1.13918 0.821362,2.41125 2.967629,2.41125 2.756285,0 5.64466,-2.25274 5.64466,-4.58393 0,-1.56347 -1.324906,-2.43847 -2.96843,-2.43847 -2.569757,0 -5.643859,2.17349 -5.643859,4.61115 M 38.456682,96.765923 c 0,1.139179 0.821361,2.411249 2.967629,2.411249 2.756285,0 5.644659,-2.25274 5.644659,-4.583934 0,-1.563469 -1.324905,-2.438467 -2.968429,-2.438467 -2.569757,0 -5.643859,2.173486 -5.643859,4.611152 M 541.95534,176.18983 c 0,1.13998 0.82137,2.41205 2.96763,2.41205 2.75549,0 5.64386,-2.25274 5.64386,-4.58474 0,-1.56347 -1.3249,-2.43766 -2.96763,-2.43766 -2.57055,0 -5.64386,2.17268 -5.64386,4.61035 M 38.456682,166.26224 c 0,1.13918 0.821361,2.41125 2.967629,2.41125 2.756285,0 5.644659,-2.25194 5.644659,-4.58393 0,-1.56347 -1.324905,-2.43767 -2.968429,-2.43767 -2.569757,0 -5.643859,2.17268 -5.643859,4.61035 M 517.6115,43.816119 c 0,1.139179 0.82136,2.411249 2.96843,2.411249 2.75548,0 5.64386,-2.25194 5.64386,-4.583934 0,-1.563469 -1.32491,-2.437667 -2.96763,-2.437667 -2.57056,0 -5.64466,2.172685 -5.64466,4.610352 m -400.5787,0 c 0,1.139179 0.82137,2.411249 2.96763,2.411249 2.75549,0 5.64386,-2.25194 5.64386,-4.583934 0,-1.563469 -1.3249,-2.437667 -2.96763,-2.437667 -2.57055,0 -5.64386,2.172685 -5.64386,4.610352 M 54.025727,30.579068 c 0,1.139179 0.821362,2.411249 2.967629,2.411249 2.755484,0 5.643859,-2.25274 5.643859,-4.583934 0,-1.563469 -1.324906,-2.438468 -2.967629,-2.438468 -2.570557,0 -5.643859,2.173487 -5.643859,4.611153 M 156.71594,17.341457 c 0,1.139419 0.82136,2.411329 2.96763,2.411329 2.75548,0 5.64386,-2.25234 5.64386,-4.584175 0,-1.563388 -1.32491,-2.437826 -2.96763,-2.437826 -2.57056,0 -5.64386,2.172845 -5.64386,4.610672 M 52.130832,93.456461 c 0,1.139179 0.821361,2.411248 2.967629,2.411248 2.755484,0 5.643859,-2.251939 5.643859,-4.583934 0,-1.563469 -1.324906,-2.437667 -2.96763,-2.437667 -2.570557,0 -5.643858,2.172686 -5.643858,4.610353 M 184.71428,14.032074 c 0,1.139419 0.82136,2.411329 2.96763,2.411329 2.75549,0 5.64386,-2.25234 5.64386,-4.584174 0,-1.563389 -1.32491,-2.4378271 -2.96763,-2.4378271 -2.57056,0 -5.64386,2.1728461 -5.64386,4.6106721 M 65.804981,90.146998 c 0,1.139179 0.821362,2.411248 2.967629,2.411248 2.755484,0 5.643859,-2.251939 5.643859,-4.583934 0,-1.563469 -1.324906,-2.437667 -2.967629,-2.437667 -2.570557,0 -5.643859,2.172686 -5.643859,4.610353 M 204.79201,17.341457 c 0,1.139419 0.82136,2.411329 2.96843,2.411329 2.75548,0 5.64386,-2.25234 5.64386,-4.584175 0,-1.563388 -1.32491,-2.437826 -2.96763,-2.437826 -2.57056,0 -5.64466,2.172845 -5.64466,4.610672 M 574.0613,179.49929 c 0,1.13998 0.82136,2.41125 2.96763,2.41125 2.75628,0 5.64466,-2.25194 5.64466,-4.58393 0,-1.56347 -1.32491,-2.43767 -2.96763,-2.43767 -2.57056,0 -5.64466,2.17269 -5.64466,4.61035 M 79.47833,86.837535 c 0,1.139979 0.821359,2.411249 2.967626,2.411249 2.756285,0 5.64466,-2.25194 5.64466,-4.583935 0,-1.563469 -1.324906,-2.437666 -2.967629,-2.437666 -2.570558,0 -5.644657,2.172685 -5.644657,4.610352 M 218.17796,20.65076 c 0,1.139419 0.82136,2.411329 2.96763,2.411329 2.75629,0 5.64386,-2.25234 5.64386,-4.584175 0,-1.563389 -1.32491,-2.437827 -2.96763,-2.437827 -2.56976,0 -5.64386,2.172846 -5.64386,4.610673 M 93.152477,83.528072 c 0,1.13998 0.821361,2.412049 2.967629,2.412049 2.756284,0 5.643854,-2.25274 5.643854,-4.584734 0,-1.563469 -1.3249,-2.437667 -2.967624,-2.437667 -2.569757,0 -5.643859,2.172685 -5.643859,4.610352 M 231.56392,23.960143 c 0,1.139179 0.82136,2.411248 2.96762,2.411248 2.75549,0 5.64386,-2.251939 5.64386,-4.584094 0,-1.563389 -1.3249,-2.437827 -2.96763,-2.437827 -2.57055,0 -5.64385,2.172846 -5.64385,4.610673 m 426.03129,76.115247 c 0,1.13918 0.82136,2.41124 2.96763,2.41124 2.75629,0 5.64466,-2.25274 5.64466,-4.583929 0,-1.563469 -1.3249,-2.438468 -2.96763,-2.438468 -2.57056,0 -5.64466,2.173487 -5.64466,4.611157 m -371.07692,0 c 0,1.13918 0.82136,2.41124 2.96843,2.41124 2.75548,0 5.64386,-2.25274 5.64386,-4.583929 0,-1.563469 -1.32491,-2.438468 -2.96763,-2.438468 -2.57056,0 -5.64466,2.173487 -5.64466,4.611157 m 81.34762,-6.618929 c 0,1.139179 0.82136,2.411248 2.96763,2.411248 2.75548,0 5.64386,-2.251939 5.64386,-4.583934 0,-1.563469 -1.32491,-2.437667 -2.96763,-2.437667 -2.57056,0 -5.64386,2.172686 -5.64386,4.610353 M 504.22635,40.506656 c 0,1.13998 0.82136,2.411249 2.96763,2.411249 2.75548,0 5.64386,-2.25194 5.64386,-4.583934 0,-1.563469 -1.32491,-2.437667 -2.96763,-2.437667 -2.57056,0 -5.64386,2.172686 -5.64386,4.610352 m 119.18469,49.640342 c 0,1.139179 0.82136,2.411248 2.96763,2.411248 2.75548,0 5.64386,-2.251939 5.64386,-4.583934 0,-1.563469 -1.32491,-2.437667 -2.96763,-2.437667 -2.57056,0 -5.64386,2.172686 -5.64386,4.610353 M 106.82663,86.837535 c 0,1.139979 0.82136,2.411249 2.96763,2.411249 2.75548,0 5.64385,-2.25194 5.64385,-4.583935 0,-1.563469 -1.3249,-2.437666 -2.96762,-2.437666 -2.57056,0 -5.64386,2.172685 -5.64386,4.610352 m 498.67296,9.928388 c 0,1.139179 0.82136,2.411249 2.96763,2.411249 2.75549,0 5.64386,-2.25274 5.64386,-4.583934 0,-1.563469 -1.32491,-2.438467 -2.96763,-2.438467 -2.57056,0 -5.64386,2.173486 -5.64386,4.611152 M 120.49998,90.146998 c 0,1.139179 0.82136,2.411248 2.96843,2.411248 2.75548,0 5.64385,-2.251939 5.64385,-4.583934 0,-1.563469 -1.3249,-2.437667 -2.96762,-2.437667 -2.57056,0 -5.64466,2.172686 -5.64466,4.610353 m 152.34496,6.618925 c 0,1.139179 0.82136,2.411249 2.96763,2.411249 2.75548,0 5.64386,-2.25274 5.64386,-4.583934 0,-1.563469 -1.32491,-2.438467 -2.96763,-2.438467 -2.57056,0 -5.64386,2.173486 -5.64386,4.611152 m 344.26979,86.042837 c 0,1.13997 0.82137,2.41124 2.96843,2.41124 2.75549,0 5.64386,-2.25194 5.64386,-4.58393 0,-1.56347 -1.3249,-2.43767 -2.96763,-2.43767 -2.57055,0 -5.64466,2.17269 -5.64466,4.61036 m -37.61612,-82.73337 c 0,1.13918 0.82137,2.41124 2.96763,2.41124 2.75549,0 5.64386,-2.25274 5.64386,-4.583929 0,-1.563469 -1.3249,-2.438468 -2.96763,-2.438468 -2.57055,0 -5.64386,2.173487 -5.64386,4.611157 M 134.17413,93.456461 c 0,1.139179 0.82136,2.411248 2.96762,2.411248 2.75629,0 5.64466,-2.251939 5.64466,-4.583934 0,-1.563469 -1.3249,-2.437667 -2.96843,-2.437667 -2.56975,0 -5.64385,2.172686 -5.64385,4.610353 M 484.14782,37.197193 c 0,1.13998 0.82136,2.41205 2.96763,2.41205 2.75628,0 5.64386,-2.252741 5.64386,-4.584735 0,-1.563469 -1.32491,-2.437667 -2.96763,-2.437667 -2.56976,0 -5.64386,2.172686 -5.64386,4.610352 m -102.60856,59.56873 c 0,1.139179 0.82136,2.411249 2.96763,2.411249 2.75628,0 5.64466,-2.25274 5.64466,-4.583934 0,-1.563469 -1.32491,-2.438467 -2.96763,-2.438467 -2.57056,0 -5.64466,2.173486 -5.64466,4.611152 m 169.96101,9.927587 c 0,1.13998 0.82136,2.41205 2.96763,2.41205 2.75628,0 5.64466,-2.25274 5.64466,-4.58473 0,-1.56347 -1.32491,-2.43767 -2.96843,-2.43767 -2.56976,0 -5.64386,2.17268 -5.64386,4.61035 M 327.53273,27.269606 c 0,1.139178 0.82137,2.411248 2.96763,2.411248 2.75629,0 5.64466,-2.25274 5.64466,-4.583934 0,-1.563469 -1.3249,-2.438067 -2.96843,-2.438067 -2.56975,0 -5.64386,2.173086 -5.64386,4.610753 m 210.29339,82.733364 c 0,1.13998 0.82136,2.41125 2.96843,2.41125 2.75548,0 5.64386,-2.25194 5.64386,-4.58393 0,-1.56347 -1.32491,-2.43767 -2.96763,-2.43767 -2.57056,0 -5.64466,2.17269 -5.64466,4.61035 M 162.17247,96.765923 c 0,1.139179 0.82136,2.411249 2.96763,2.411249 2.75548,0 5.64386,-2.25274 5.64386,-4.583934 0,-1.563469 -1.32491,-2.438467 -2.96763,-2.438467 -2.57056,0 -5.64386,2.173486 -5.64386,4.611152 m 361.9803,9.927587 c 0,1.13998 0.82136,2.41205 2.96763,2.41205 2.75549,0 5.64386,-2.25274 5.64386,-4.58473 0,-1.56347 -1.32491,-2.43767 -2.96763,-2.43767 -2.57056,0 -5.64386,2.17268 -5.64386,4.61035 m 115.60385,76.11525 c 0,1.13997 0.82136,2.41124 2.96763,2.41124 2.75628,0 5.64465,-2.25194 5.64465,-4.58393 0,-1.56347 -1.3249,-2.43767 -2.96762,-2.43767 -2.57056,0 -5.64466,2.17269 -5.64466,4.61036 M 103.64685,40.506656 c 0,1.13998 0.82136,2.411249 2.96843,2.411249 2.75549,0 5.64386,-2.25194 5.64386,-4.583934 0,-1.563469 -1.32491,-2.437667 -2.96763,-2.437667 -2.57056,0 -5.64466,2.172686 -5.64466,4.610352 m 406.83177,59.568734 c 0,1.13918 0.82136,2.41124 2.96763,2.41124 2.75629,0 5.64386,-2.25274 5.64386,-4.583929 0,-1.563469 -1.32491,-2.438468 -2.96763,-2.438468 -2.56976,0 -5.64386,2.173487 -5.64386,4.611157 m -55.8742,-69.496322 c 0,1.139179 0.82136,2.411249 2.96763,2.411249 2.75628,0 5.64466,-2.25274 5.64466,-4.583934 0,-1.563469 -1.32491,-2.438468 -2.96763,-2.438468 -2.57056,0 -5.64466,2.173487 -5.64466,4.611153 m 37.96276,66.186855 c 0,1.139179 0.82136,2.411249 2.96843,2.411249 2.75548,0 5.64385,-2.25274 5.64385,-4.583934 0,-1.563469 -1.3249,-2.438467 -2.96762,-2.438467 -2.57056,0 -5.64466,2.173486 -5.64466,4.611152 m -71.42644,-72.80578 c 0,1.139179 0.82136,2.411248 2.96763,2.411248 2.75548,0 5.64386,-2.251939 5.64386,-4.584094 0,-1.563389 -1.32491,-2.437827 -2.96763,-2.437827 -2.57056,0 -5.64386,2.172846 -5.64386,4.610673 M 188.17345,93.456461 c 0,1.139179 0.82136,2.411248 2.96763,2.411248 2.75628,0 5.64386,-2.251939 5.64386,-4.583934 0,-1.563469 -1.32491,-2.437667 -2.96763,-2.437667 -2.56976,0 -5.64386,2.172686 -5.64386,4.610353 m 13.67415,-3.309463 c 0,1.139179 0.82136,2.411248 2.96763,2.411248 2.75548,0 5.64385,-2.251939 5.64385,-4.583934 0,-1.563469 -1.3249,-2.437667 -2.96762,-2.437667 -2.57056,0 -5.64386,2.172686 -5.64386,4.610353 m 264.7186,9.928392 c 0,1.13918 0.82136,2.41124 2.96763,2.41124 2.75628,0 5.64466,-2.25274 5.64466,-4.583929 0,-1.563469 -1.32491,-2.438468 -2.96763,-2.438468 -2.57056,0 -5.64466,2.173487 -5.64466,4.611157 M 222.35842,86.837535 c 0,1.139979 0.82136,2.411249 2.96763,2.411249 2.75548,0 5.64386,-2.25194 5.64386,-4.583935 0,-1.563469 -1.32491,-2.437666 -2.96763,-2.437666 -2.57056,0 -5.64386,2.172685 -5.64386,4.610352 M 314.14758,20.65076 c 0,1.139419 0.82136,2.411329 2.96763,2.411329 2.75548,0 5.64386,-2.25234 5.64386,-4.584175 0,-1.563389 -1.32491,-2.437827 -2.96763,-2.437827 -2.57056,0 -5.64386,2.172846 -5.64386,4.610673 m -57.13106,9.928308 c 0,1.139179 0.82136,2.411249 2.96763,2.411249 2.75548,0 5.64386,-2.25274 5.64386,-4.583934 0,-1.563469 -1.32491,-2.438468 -2.96763,-2.438468 -2.57056,0 -5.64386,2.173487 -5.64386,4.611153 m 177.87202,76.114442 c 0,1.13998 0.82136,2.41205 2.96763,2.41205 2.75548,0 5.64386,-2.25274 5.64386,-4.58473 0,-1.56347 -1.32491,-2.43767 -2.96763,-2.43767 -2.57056,0 -5.64386,2.17268 -5.64386,4.61035 M 252.33412,93.456461 c 0,1.139179 0.82136,2.411248 2.96763,2.411248 2.75548,0 5.64385,-2.251939 5.64385,-4.583934 0,-1.563469 -1.3249,-2.437667 -2.96762,-2.437667 -2.57056,0 -5.64386,2.172686 -5.64386,4.610353 m 142.87929,0 c 0,1.139179 0.82136,2.411248 2.96763,2.411248 2.75628,0 5.64386,-2.251939 5.64386,-4.583934 0,-1.563469 -1.32491,-2.437667 -2.96763,-2.437667 -2.56976,0 -5.64386,2.172686 -5.64386,4.610353 M 83.568324,37.197193 c 0,1.13998 0.822162,2.41205 2.968429,2.41205 2.755484,0 5.643859,-2.252741 5.643859,-4.584735 0,-1.563469 -1.324906,-2.437667 -2.967629,-2.437667 -2.570557,0 -5.644659,2.172686 -5.644659,4.610352 M 585.29298,14.032074 c 0,1.139419 0.82136,2.411329 2.96763,2.411329 2.75628,0 5.64466,-2.25234 5.64466,-4.584174 0,-1.563389 -1.32491,-2.4378271 -2.96843,-2.4378271 -2.56976,0 -5.64386,2.1728461 -5.64386,4.6106721 M 406.10406,156.33385 c 0,1.13998 0.82136,2.41125 2.96763,2.41125 2.75628,0 5.64466,-2.25194 5.64466,-4.58393 0,-1.56347 -1.32491,-2.43767 -2.96843,-2.43767 -2.56976,0 -5.64386,2.17269 -5.64386,4.61035 m 36.72671,-67.903226 c 0,0.07925 0.0264,0.212145 0.21214,0.291399 1.13918,0.370654 3.41834,1.802033 5.14032,4.743244 0.47712,0.821361 1.24565,1.96054 1.24565,4.160444 0,1.907705 -0.50354,3.868249 -1.19282,5.775949 -0.0528,0.15931 -0.10567,0.2922 -0.0793,0.39787 0,0.15931 0.10647,0.26498 0.26498,0.26498 0.18573,0 0.31782,-0.10567 0.42429,-0.2914 1.19202,-2.11984 1.64272,-4.58393 1.64272,-6.995979 -0.13289,-3.417537 -2.09343,-5.935258 -2.09343,-5.935258 0.0793,0 -2.43766,-3.259028 -3.15335,-4.371789 -0.98067,-1.510633 -1.43058,-3.021266 -1.48342,-3.126938 -0.0272,-0.08006 -0.26498,-1.033507 -0.26498,-1.033507 -0.0272,-0.106473 -0.15931,-0.212145 -0.31862,-0.212145 -0.18492,0 -0.34423,0.159309 -0.34423,0.344235 v 5.988895 M 188.17345,113.82799 c 0,0.18573 0.15931,0.34423 0.34423,0.34423 0.13289,0 0.2914,-0.10567 0.31782,-0.21214 0,-0.0264 0.23856,-0.95345 0.26498,-1.03351 0.0272,-0.10567 0.26498,-1.11276 1.21923,-2.67623 1.03351,-1.72197 2.6234,-2.96763 3.9483,-4.82249 1.29849,-1.85487 2.09344,-3.60327 2.09344,-5.935262 0,-2.411249 -0.55638,-4.425426 -1.96135,-6.995984 -0.0793,-0.184926 -0.23776,-0.291399 -0.39707,-0.291399 -0.0528,0 -0.10567,0 -0.13289,0.02642 -0.13209,0.05364 -0.18492,0.159309 -0.18492,0.318618 0,0.07925 0.0264,0.211344 0.0793,0.317817 1.05992,2.464085 1.48421,3.868245 1.48421,5.77675 0,2.1991 -0.76852,3.33828 -1.24565,4.15964 -1.72277,2.94121 -4.50468,4.37259 -5.61744,4.74325 -0.18572,0.0792 -0.21214,0.21214 -0.21214,0.29139 v 5.9889 M 264.9588,12.315543 c 0,0.07949 0.0264,0.211985 0.21214,0.291479 1.13918,0.370974 3.41834,1.801872 5.14032,4.743163 0.47712,0.821442 1.24565,1.960861 1.24565,4.160205 0,1.907784 -0.50354,3.869125 -1.19282,5.77683 -0.0528,0.158508 -0.10567,0.291399 -0.0793,0.397071 0,0.159309 0.10647,0.264981 0.26498,0.264981 0.18573,0 0.31782,-0.105672 0.42429,-0.291399 1.19202,-2.119849 1.64273,-4.584094 1.64273,-6.995423 -0.1329,-3.418257 -2.09344,-5.935579 -2.09344,-5.935579 0.0793,0 -2.43766,-3.259268 -3.15335,-4.372189 -0.98067,-1.5103927 -1.43058,-3.0207855 -1.48342,-3.1267779 -0.0272,-0.079494 -0.26498,-1.0334266 -0.26498,-1.0334266 -0.0272,-0.1059925 -0.15931,-0.211985 -0.31862,-0.211985 -0.18492,0 -0.34423,0.1589887 -0.34423,0.3444755 v 5.988575 m 348.48307,67.841426 c 0,0.08006 0.0264,0.212145 0.21215,0.291399 1.13918,0.371454 3.41834,1.802032 5.14031,4.743244 0.47713,0.821361 1.24565,1.961341 1.24565,4.160444 0,1.907705 -0.50354,3.869046 -1.19201,5.77675 -0.0536,0.158508 -0.10647,0.291399 -0.0801,0.397072 0,0.159308 0.10648,0.264981 0.26499,0.264981 0.18572,0 0.31781,-0.105673 0.42429,-0.291399 1.19201,-2.11985 1.64272,-4.583935 1.64272,-6.995183 -0.13209,-3.418338 -2.09343,-5.936059 -2.09343,-5.936059 0.0793,0 -2.43767,-3.259029 -3.15336,-4.371789 -0.97987,-1.510633 -1.43058,-3.020466 -1.48341,-3.126938 -0.0264,-0.07926 -0.26498,-1.033507 -0.26498,-1.033507 -0.0264,-0.105672 -0.15931,-0.212145 -0.31862,-0.212145 -0.18493,0 -0.34424,0.159309 -0.34424,0.345036 v 5.988094 m 52.09642,1.654732 c 0,0.08005 0.0264,0.212145 0.21135,0.291399 1.13998,0.371454 3.41834,1.802032 5.14111,4.743243 0.47713,0.821362 1.24485,1.961341 1.24485,4.160445 0,1.907704 -0.50274,3.869045 -1.19201,5.776749 -0.0528,0.158509 -0.10567,0.2914 -0.0793,0.397072 0,0.159309 0.10567,0.264981 0.26498,0.264981 0.18492,0 0.31781,-0.105672 0.42349,-0.291399 1.19281,-2.11985 1.64272,-4.583934 1.64272,-6.995183 -0.13209,-3.418337 -2.09263,-5.936059 -2.09263,-5.936059 0.0793,0 -2.43847,-3.259028 -3.15336,-4.371789 -0.98067,-1.510633 -1.43138,-3.021266 -1.48421,-3.126938 -0.0264,-0.07925 -0.26498,-1.033507 -0.26498,-1.033507 -0.0264,-0.105672 -0.15931,-0.212145 -0.31782,-0.212145 -0.18573,0 -0.34424,0.159309 -0.34424,0.345036 v 5.988095 m -40.48047,82.734169 c 0,0.0793 0.0264,0.21134 0.21134,0.2914 1.13998,0.37065 3.41834,1.80203 5.14112,4.74324 0.47712,0.82136 1.24565,1.96054 1.24565,4.15964 0,1.90851 -0.50355,3.86905 -1.19282,5.77675 -0.0528,0.15931 -0.10567,0.2914 -0.0793,0.39788 0,0.1585 0.10567,0.26498 0.26498,0.26498 0.18492,0 0.31782,-0.10648 0.42349,-0.2914 1.19281,-2.11985 1.64352,-4.58474 1.64352,-6.99599 -0.13289,-3.41833 -2.09343,-5.93525 -2.09343,-5.93525 0.0793,0 -2.43847,-3.25983 -3.15336,-4.37259 -0.98067,-1.50984 -1.43137,-3.02047 -1.48421,-3.12694 -0.0264,-0.0793 -0.26498,-1.03271 -0.26498,-1.03271 -0.0264,-0.10647 -0.15851,-0.21214 -0.31782,-0.21214 -0.18573,0 -0.34423,0.15851 -0.34423,0.34423 v 5.9889 M 421.14074,44.331672 c 0,0.184926 0.15851,0.344235 0.34423,0.344235 0.13289,0 0.2914,-0.105672 0.31782,-0.212145 0,-0.02642 0.23856,-0.953452 0.26498,-1.033507 0.0264,-0.105672 0.26498,-1.112761 1.21924,-2.67623 1.0335,-1.721977 2.62339,-2.967629 3.9483,-4.822497 1.29848,-1.854868 2.09343,-3.604064 2.09343,-5.935258 0,-2.411249 -0.55638,-4.425426 -1.96134,-6.995743 -0.0793,-0.185487 -0.23857,-0.29148 -0.39708,-0.29148 -0.0528,0 -0.10647,0 -0.13289,0.0265 -0.13209,0.053 -0.18492,0.158989 -0.18492,0.317978 0,0.07949 0.0264,0.211985 0.0793,0.318217 1.05993,2.464085 1.48422,3.868245 1.48422,5.77595 0,2.199904 -0.76853,3.339083 -1.24566,4.160444 -1.72277,2.941211 -4.50468,4.37259 -5.61744,4.743244 -0.18572,0.07925 -0.21214,0.212145 -0.21214,0.291399 v 5.988895 m -94.94732,61.222656 c 0,0.18573 0.15931,0.34424 0.34423,0.34424 0.13289,0 0.2914,-0.10567 0.31862,-0.21135 0,-0.0264 0.23776,-0.95425 0.26498,-1.0335 0.0264,-0.10648 0.26498,-1.11276 1.21844,-2.67623 1.0335,-1.72278 2.62339,-2.968431 3.9483,-4.823299 1.29848,-1.854868 2.09343,-3.603264 2.09343,-5.935258 0,-2.411249 -0.55638,-4.425426 -1.96054,-6.995183 -0.0801,-0.185727 -0.23857,-0.291399 -0.39788,-0.291399 -0.0528,0 -0.10567,0 -0.13209,0.02642 -0.13289,0.05284 -0.18572,0.158508 -0.18572,0.317817 0,0.07925 0.0264,0.212145 0.0793,0.317817 1.05993,2.464085 1.48422,3.869046 1.48422,5.77675 0,2.199104 -0.76853,3.338283 -1.24566,4.160445 -1.72197,2.941211 -4.50468,4.371789 -5.61744,4.742442 -0.18572,0.08006 -0.21214,0.212145 -0.21214,0.2922 v 5.988088 M 156.71594,39.367477 c 0,0.185727 0.15851,0.344236 0.34423,0.344236 0.13289,0 0.2914,-0.105672 0.31782,-0.212145 0,-0.02642 0.23856,-0.953452 0.26498,-1.032706 0.0264,-0.106473 0.26498,-1.113562 1.21924,-2.677031 1.0335,-1.721977 2.62339,-2.967629 3.9483,-4.822497 1.29848,-1.854868 2.09343,-3.603264 2.09343,-5.935258 0,-2.411409 -0.55638,-4.425266 -1.96134,-6.995584 -0.0793,-0.185486 -0.23857,-0.291479 -0.39708,-0.291479 -0.0528,0 -0.10647,0 -0.13289,0.0265 -0.13209,0.053 -0.18492,0.158989 -0.18492,0.317978 0,0.07949 0.0264,0.211985 0.0793,0.317977 1.05993,2.464325 1.48342,3.868725 1.48342,5.77683 0,2.199104 -0.76773,3.338282 -1.24486,4.159644 -1.72277,2.941211 -4.50468,4.37259 -5.61744,4.743243 -0.18572,0.08005 -0.21214,0.212145 -0.21214,0.2914 v 5.988894 m 400.57869,0 c 0,0.185727 0.15931,0.344236 0.34504,0.344236 0.13209,0 0.2914,-0.105672 0.31782,-0.212145 0,-0.02642 0.23856,-0.953452 0.26498,-1.032706 0.0264,-0.106473 0.26498,-1.113562 1.21843,-2.677031 1.03351,-1.721977 2.62339,-2.967629 3.9483,-4.822497 1.29849,-1.854868 2.09343,-3.603264 2.09343,-5.935258 0,-2.411409 -0.55638,-4.425266 -1.96054,-6.995584 -0.0801,-0.185486 -0.23856,-0.291479 -0.39787,-0.291479 -0.0528,0 -0.10567,0 -0.13209,0.0265 -0.13289,0.053 -0.18573,0.158989 -0.18573,0.317978 0,0.07949 0.0264,0.211985 0.0793,0.317977 1.05992,2.464325 1.48421,3.868725 1.48421,5.77683 0,2.199104 -0.76853,3.338282 -1.24565,4.159644 -1.72198,2.941211 -4.50468,4.37259 -5.61744,4.743243 -0.18573,0.08005 -0.21215,0.212145 -0.21215,0.2914 v 5.988894 m 108.24352,-27.05194 c 0,0.07949 0.0264,0.211985 0.21135,0.291479 1.13998,0.370974 3.41834,1.801872 5.14111,4.743163 0.47713,0.821442 1.24485,1.960861 1.24485,4.160205 0,1.907784 -0.50274,3.869125 -1.19201,5.77683 -0.0528,0.158508 -0.10567,0.291399 -0.0793,0.397071 0,0.159309 0.10567,0.264981 0.26498,0.264981 0.18492,0 0.31781,-0.105672 0.42349,-0.291399 1.19281,-2.119849 1.64272,-4.584094 1.64272,-6.995423 -0.13209,-3.418257 -2.09263,-5.935579 -2.09263,-5.935579 0.0793,0 -2.43847,-3.259268 -3.15336,-4.372189 -0.98067,-1.5103927 -1.43138,-3.0207855 -1.48421,-3.1267779 -0.0264,-0.079494 -0.26498,-1.0334266 -0.26498,-1.0334266 -0.0264,-0.1059925 -0.15931,-0.211985 -0.31782,-0.211985 -0.18573,0 -0.34424,0.1589887 -0.34424,0.3444755 v 5.988575 M 351.35542,178.36011 c 0,0.18573 0.15931,0.34424 0.34504,0.34424 0.13209,0 0.2914,-0.10567 0.31782,-0.21135 0,-0.0272 0.23856,-0.95425 0.26498,-1.0335 0.0264,-0.10648 0.26498,-1.11356 1.21923,-2.67623 1.03271,-1.72278 2.62259,-2.96843 3.9475,-4.8233 1.29849,-1.85487 2.09343,-3.60326 2.09343,-5.93526 0,-2.41125 -0.55638,-4.42542 -1.96054,-6.99518 -0.0793,-0.18573 -0.23856,-0.2922 -0.39787,-0.2922 -0.0528,0 -0.10567,0 -0.13209,0.0272 -0.13289,0.0528 -0.18573,0.15851 -0.18573,0.31781 0,0.0793 0.0264,0.21215 0.0801,0.31782 1.05992,2.46409 1.48341,3.86905 1.48341,5.77675 0,2.19911 -0.76853,3.33828 -1.24565,4.15965 -1.72198,2.94201 -4.50468,4.37259 -5.61744,4.74324 -0.18493,0.08 -0.21215,0.21214 -0.21215,0.2914 v 5.98889 M 314.14758,41.022209 c 0,0.185727 0.15851,0.344235 0.34424,0.344235 0.13209,0 0.2914,-0.105672 0.31781,-0.212145 0,-0.02642 0.23857,-0.953452 0.26499,-1.032706 0.0264,-0.106473 0.26498,-1.113561 1.21923,-2.67703 1.03351,-1.721978 2.62339,-2.967629 3.9483,-4.822498 1.29769,-1.854868 2.09263,-3.603263 2.09263,-5.935258 0,-2.411249 -0.55638,-4.425346 -1.96054,-6.995663 -0.0793,-0.185487 -0.23856,-0.29148 -0.39707,-0.29148 -0.0536,0 -0.10648,0 -0.13289,0.0265 -0.13209,0.053 -0.18573,0.158988 -0.18573,0.317977 0,0.07949 0.0264,0.211985 0.0801,0.317977 1.05993,2.464325 1.48342,3.868405 1.48342,5.77691 0,2.199104 -0.76853,3.338283 -1.24485,4.159645 -1.72278,2.941211 -4.50468,4.372589 -5.61824,4.743243 -0.18493,0.08005 -0.21135,0.212145 -0.21135,0.291399 v 5.988895 m 186.36263,39.134758 c 0,0.08006 0.0264,0.212145 0.21134,0.291399 1.13998,0.371454 3.41834,1.802032 5.14112,4.743244 0.47712,0.821361 1.24485,1.961341 1.24485,4.160444 0,1.907705 -0.50275,3.869046 -1.19202,5.77675 -0.0528,0.158508 -0.10567,0.291399 -0.0793,0.397072 0,0.159308 0.10567,0.264981 0.26498,0.264981 0.18493,0 0.31782,-0.105673 0.42349,-0.291399 1.19281,-2.11985 1.64272,-4.583935 1.64272,-6.995183 -0.13209,-3.418338 -2.09263,-5.936059 -2.09263,-5.936059 0.0793,0 -2.43847,-3.259029 -3.15335,-4.371789 -0.98068,-1.510633 -1.43138,-3.020466 -1.48422,-3.126938 -0.0264,-0.07926 -0.26498,-1.033507 -0.26498,-1.033507 -0.0264,-0.105672 -0.15931,-0.212145 -0.31782,-0.212145 -0.18573,0 -0.34423,0.159309 -0.34423,0.345036 v 5.988094 m -174.31718,3.370289 v 22.027093 h 0.66202 V 83.527256 Z m 27.99836,3.309446 v 27.017687 h 0.66202 V 86.836702 Z m -46.05634,-11.03958 v 22.106363 h 0.66203 V 75.797122 Z m 59.73053,17.658482 v 20.398785 h 0.66202 V 93.455604 Z m 13.67404,3.309447 v 17.089338 h 0.66202 V 96.765051 Z m 13.67341,-3.309447 v 20.398785 h 0.66202 V 93.455604 Z m 21.61634,-17.658482 v 22.106363 h 0.66202 V 75.797122 Z m -136.04254,1.692405 v 17.104511 h 0.66201 V 77.489527 Z m 162.04361,4.978564 v 22.053518 h 0.66201 V 82.468091 Z M 252.33378,93.455604 v 18.744066 h 0.66201 V 93.455604 Z m 61.81336,-72.805875 v 20.37252 h 0.66217 V 20.649729 Z M 264.95835,6.3533913 V 28.407223 h 0.66201 V 6.3533913 Z M 474.50881,75.797122 v 22.106363 h 0.66202 V 75.797122 Z m -252.15084,11.03958 v 22.053518 h 0.66218 V 86.836702 Z M 500.50988,74.195251 v 20.398787 h 0.66201 V 74.195251 Z M 201.84723,90.146157 v 20.398783 h 0.66201 V 90.146157 Z M 434.52632,20.649729 v 20.398946 h 0.66201 V 20.649729 Z M 188.17303,93.455604 v 20.372366 h 0.66202 V 93.455604 Z m 330.24815,-14.33621 v 18.784091 h 0.66217 V 79.119394 Z m 13.67341,0.542875 v 24.859341 h 0.66202 V 79.662269 Z m 13.6742,0.542715 v 27.626076 h 0.66201 V 80.204984 Z M 170.11506,74.142399 v 20.451639 h 0.66202 V 74.142399 Z M 335.47532,7.9685581 V 25.097769 h 0.66217 V 7.9685581 Z M 559.44283,80.747699 v 23.773911 h 0.66216 V 80.747699 Z m 27.99757,-4.950577 v 22.106363 h 0.66203 V 75.797122 Z M 134.17376,93.455604 V 110.5057 h 0.66203 V 93.455604 Z M 613.44225,74.195251 v 20.398787 h 0.66201 V 74.195251 Z M 120.50036,90.146157 V 108.8774 h 0.66201 V 90.146157 Z m 502.91026,0 v 20.398783 h 0.66202 V 90.146157 Z M 106.82616,86.836702 V 107.2491 h 0.66217 V 86.836702 Z M 665.53787,75.849974 v 22.053511 h 0.66201 V 75.849974 Z M 231.56348,23.959334 v 18.744064 h 0.66202 V 23.959334 Z M 93.152125,83.527256 v 22.092764 h 0.66202 V 83.527256 Z M 218.17761,20.649729 v 17.050248 h 0.66202 V 20.649729 Z M 79.478715,86.836702 v 22.092758 h 0.662017 V 86.836702 Z M 204.79237,17.340435 v 18.783152 h 0.66217 V 17.340435 Z M 65.804525,90.146157 v 20.411613 h 0.662173 V 90.146157 Z M 184.71395,14.031141 v 22.053364 h 0.66202 V 14.031141 Z M 52.130487,93.455604 V 112.18685 H 52.7925 V 93.455604 Z m -5.731102,50.167116 v 20.46759 h 0.662012 v -20.46759 z m 22.641881,-1.09278 v 24.86982 h 0.662021 V 142.52994 Z M 38.457074,96.765051 v 17.050099 h 0.662021 V 96.765051 Z M 91.683,141.43732 v 22.65299 h 0.662165 v -22.65299 z m 22.64188,-1.092 v 17.12609 h 0.66217 v -17.12609 z m 22.64111,3.2935 v 20.45149 h 0.66217 V 143.63882 Z M 348.86056,8.5111171 V 28.407223 h 0.66202 V 8.5111171 Z M 170.92922,148.62614 v 18.77362 h 0.66216 V 148.62614 Z M 362.24643,9.0538321 V 35.02534 h 0.66202 V 9.0538321 Z M 193.5711,150.23364 v 23.78423 h 0.66202 V 150.23364 Z M 375.63168,9.5963903 V 28.407223 h 0.66201 V 9.5963903 Z M 156.71559,17.340435 v 22.02709 h 0.66202 V 17.340435 Z M 403.63004,4.6458182 V 25.097769 h 0.66202 V 4.6458182 Z M 225.67711,148.59409 v 18.80567 h 0.66202 V 148.59409 Z M 665.53787,6.3533913 V 28.407223 h 0.66201 V 6.3533913 Z M 248.319,148.04824 v 25.96963 h 0.66202 v -25.96963 z m 22.64189,-0.54599 v 19.89751 h 0.66202 v -19.89751 z m 22.64188,-0.54679 v 17.13485 h 0.66202 V 146.95546 Z M 632.14223,23.959334 v 18.744064 h 0.66201 V 23.959334 Z M 308.30236,159.64258 v 20.39863 h 0.66201 V 159.64258 Z M 618.75713,20.649729 v 17.050248 h 0.66202 V 20.649729 Z M 351.35586,156.33312 v 22.02695 h 0.66202 v -22.02695 z m 32.10664,-3.3096 v 25.38704 h 0.66217 V 153.02352 Z M 605.3711,17.340435 v 18.783152 h 0.66202 V 17.340435 Z M 406.10438,156.33312 v 23.71622 h 0.66218 V 156.33312 Z M 585.29254,14.031141 v 22.053364 h 0.66216 V 14.031141 Z M 428.7455,159.64258 v 22.04538 h 0.66216 v -22.04538 z m 22.64188,6.6189 v 17.06526 h 0.66202 v -17.06526 z m 30.58419,-19.31399 v 20.45227 h 0.66202 V 146.94749 Z M 557.29511,17.340435 v 22.02709 h 0.66202 V 17.340435 Z M 504.61346,146.94749 v 17.14282 h 0.66202 v -17.14282 z m 22.64189,0 v 20.45227 h 0.66201 v -20.45227 z m 22.64189,0 v 27.07038 h 0.66201 V 146.94749 Z M 531.84161,20.649729 v 20.398946 h 0.66202 V 20.649729 Z m -400.57874,0 v 20.398946 h 0.66217 V 20.649729 Z M 582.00388,155.22112 v 22.10636 h 0.66217 V 155.22112 Z M 525.55419,22.808237 v 18.836005 h 0.66201 V 22.808237 Z m 99.50319,135.775183 v 22.05351 h 0.66201 V 158.58342 Z M 124.97545,22.808237 v 18.836005 h 0.66201 V 22.808237 Z m 387.19271,-1.576704 v 17.103254 h 0.66201 V 21.231533 Z m 135.5311,137.299037 v 22.10636 h 0.66202 V 158.53057 Z M 492.09052,12.919131 V 35.02534 h 0.66202 V 12.919131 Z M 421.1403,23.959334 v 20.37237 h 0.66216 V 23.959334 Z M 111.58942,21.231533 v 17.103254 h 0.66217 V 21.231533 Z M 91.511002,12.919131 V 35.02534 h 0.662021 V 12.919131 Z M 462.54704,6.3005432 V 28.407223 h 0.66202 V 6.3005432 Z m -400.579515,0 V 28.407223 h 0.662013 V 6.3005432 Z M 296.63688,4.6458182 V 25.097769 h 0.66202 V 4.6458182 Z m -2.17602,74.4224448 v 18.835222 h 0.66218 V 79.068263 Z M 637.57265,181.16636 v 1.05916 h 12.97372 v -1.05916 z M 515.42757,42.17382 v 1.059164 h 12.97372 V 42.17382 Z m 99.5032,138.99254 v 1.05916 h 12.97371 v -1.05916 z M 114.84884,42.17382 v 1.059164 h 12.97371 V 42.17382 Z M 88.030815,170.94155 a 0.16531304,0.16531304 0 0 0 -0.112893,0.0571 0.16531304,0.16531304 0 0 0 -0.0047,0.0142 0.16531304,0.16531304 0 0 0 -0.0072,0.001 0.16531304,0.16531304 0 0 0 0.0025,0.0128 0.16531304,0.16531304 0 0 0 0.02721,0.20466 c 5.701602,4.8928 14.227018,7.32595 22.749148,7.32595 8.52213,0 17.04755,-2.43315 22.74915,-7.32595 a 0.16532957,0.16532957 0 0 0 -0.19983,-0.26267 c -5.61792,3.77018 -14.08337,5.66981 -22.54932,5.66981 -8.46595,0 -16.931402,-1.89963 -22.549324,-5.66981 a 0.16531304,0.16531304 0 0 0 -0.01298,0.002 0.16531304,0.16531304 0 0 0 -0.09178,-0.03 z m 2.335189,1.72118 c 5.550483,2.87597 12.933396,4.30685 20.318896,4.30685 7.38543,0 14.7681,-1.43092 20.31858,-4.30685 -5.50044,3.7032 -12.90795,5.56428 -20.31858,5.56428 -7.41069,0 -14.818448,-1.86104 -20.318896,-5.56428 z m -2.322621,-1.55638 c 11.320541,7.5972 33.962427,7.5972 45.282967,0 -11.32054,9.71465 -33.962426,9.71465 -45.282967,0 M 555.86773,111.38568 a 0.16532957,0.16532957 0 0 0 -0.21093,0.0754 c -2.42384,4.63204 -9.15878,6.26216 -13.43246,3.25097 a 0.16531304,0.16531304 0 0 0 -0.19795,0.0192 0.16531304,0.16531304 0 0 0 -0.0153,0 0.16531304,0.16531304 0 0 0 0,0.01 0.16531304,0.16531304 0 0 0 -0.0174,0.0109 0.16531304,0.16531304 0 0 0 0.0194,0.19763 0.16531304,0.16531304 0 0 0 0,0.0156 c 2.40737,2.35984 5.36476,3.13061 7.98593,2.49624 2.62116,-0.63437 4.89888,-2.67213 5.96079,-5.87167 a 0.16532957,0.16532957 0 0 0 -0.0924,-0.20404 z m -0.95175,1.75056 c -1.16686,2.13994 -2.97085,3.51392 -4.99451,4.00369 -2.02341,0.4897 -4.2556,0.0928 -6.27163,-1.27635 3.80402,1.58812 8.60957,0.4247 11.26614,-2.72734 z m -12.78692,1.71085 c 4.36299,3.0741 11.19966,1.41937 13.67415,-3.30947 -2.09263,6.30511 -8.9301,7.95985 -13.67415,3.30947 m -143.57593,26.1615 c -4.03011,0.0106 -8.06012,1.60328 -10.91199,4.83674 a 0.16531304,0.16531304 0 0 0 0.007,0.10726 0.16531304,0.16531304 0 0 0 -0.0105,0.10711 0.16531304,0.16531304 0 0 0 0.0174,0.002 0.16531304,0.16531304 0 0 0 0.001,0.0174 0.16531304,0.16531304 0 0 0 0.19873,0.002 0.16531304,0.16531304 0 0 0 0.0155,0.002 c 2.91522,-2.39207 7.18693,-3.46067 11.39904,-3.25129 4.21212,0.20939 8.35692,1.69637 11.02082,4.3658 a 0.16532957,0.16532957 0 0 0 0.25126,-0.21327 c -2.853,-3.9671 -7.42057,-5.98721 -11.98803,-5.97517 z m 10e-4,0.3321 c 3.85633,-0.01 7.70983,1.46446 10.48483,4.3608 -2.66268,-1.94524 -6.18564,-3.02294 -9.75385,-3.20032 -3.56823,-0.17738 -7.18067,0.54572 -10.02295,2.2173 2.6331,-2.25178 5.96097,-3.36921 9.29197,-3.37778 z m -10.78937,4.61407 c 6.01291,-6.81747 17.33425,-6.25468 22.64188,1.12557 -5.4053,-5.41651 -16.72664,-5.97929 -22.64188,-1.12557 M 107.89924,45.193389 a 0.16531304,0.16531304 0 0 0 -0.0106,0.0091 0.16531304,0.16531304 0 0 0 -0.0141,0.0011 0.16531304,0.16531304 0 0 0 -0.005,0.01486 0.16531304,0.16531304 0 0 0 -0.0772,0.182933 c 1.01856,3.169839 3.23828,5.193719 5.80585,5.828521 2.56755,0.634794 5.47478,-0.121475 7.85317,-2.451524 a 0.16532957,0.16532957 0 0 0 -0.21092,-0.253293 c -4.21053,2.964851 -10.79954,1.335689 -13.14352,-3.249566 a 0.16531304,0.16531304 0 0 0 -0.0389,-0.03315 0.16531304,0.16531304 0 0 0 -0.0468,-0.03972 0.16531304,0.16531304 0 0 0 -0.0611,-0.005 0.16531304,0.16531304 0 0 0 -0.051,-0.0042 z m 0.92188,1.76058 c 2.5824,3.104162 7.26505,4.262018 10.99643,2.718883 -1.98211,1.340628 -4.16607,1.723994 -6.13982,1.236005 -1.97381,-0.487998 -3.72762,-1.845046 -4.85661,-3.954888 z m -0.87133,-1.603201 c 2.39364,4.682402 9.08622,6.337133 13.38596,3.309463 -4.68641,4.591139 -11.37898,2.936408 -13.38596,-3.309463 M 214.40582,6.1232339 c -1.78466,0.00612 -3.65769,0.5892309 -5.40652,1.8293765 a 0.16531304,0.16531304 0 0 0 -0.003,0.015479 0.16531304,0.16531304 0 0 0 -0.0502,0.1921626 0.16531304,0.16531304 0 0 0 0.0152,0.013446 0.16531304,0.16531304 0 0 0 -0.002,0.00938 0.16531304,0.16531304 0 0 0 0.043,0.02705 0.16531304,0.16531304 0 0 0 0.0522,0.032835 0.16531304,0.16531304 0 0 0 0.0616,-0.00375 0.16531304,0.16531304 0 0 0 0.0508,-0.00328 c 4.79465,-2.3475892 11.39364,0.360609 13.15712,5.399786 a 0.16532957,0.16532957 0 0 0 0.31881,-0.0835 c -0.59788,-3.377843 -2.60317,-5.7819894 -5.16665,-6.834048 -0.96131,-0.3945217 -2.00037,-0.5986061 -3.07117,-0.594938 z m 8e-4,0.3289754 c 1.02825,-0.00311 2.02408,0.1937933 2.94513,0.5717973 1.98998,0.8166905 3.62061,2.4924475 4.48197,4.8387774 -2.21987,-3.613562 -6.95305,-5.5559141 -11.07116,-4.5432633 1.21469,-0.5721632 2.45058,-0.8637009 3.64406,-0.8673114 z m -5.31167,1.6353205 c 5.51497,-3.910834 12.20755,-1.1640759 13.38595,5.4935162 -1.79963,-5.1424761 -8.493,-7.8892342 -13.38595,-5.4935162 M 331.80687,31.950894 a 0.16531304,0.16531304 0 0 0 -0.0117,0.0075 0.16531304,0.16531304 0 0 0 -0.0141,-8e-4 0.16531304,0.16531304 0 0 0 -0.007,0.01407 0.16531304,0.16531304 0 0 0 -0.10148,0.170892 c 0.59748,3.377734 2.60265,5.781706 5.16603,6.833737 2.56338,1.052031 5.6794,0.749713 8.47752,-1.234436 a 0.16532957,0.16532957 0 0 0 -0.16824,-0.283322 c -4.79466,2.347125 -11.39302,-0.360847 -13.1565,-5.399468 a 0.16531304,0.16531304 0 0 0 -0.0339,-0.038 0.16531304,0.16531304 0 0 0 -0.041,-0.04581 0.16531304,0.16531304 0 0 0 -0.0602,-0.01329 0.16531304,0.16531304 0 0 0 -0.0497,-0.0111 z m 0.67546,1.879565 c 2.21955,3.614232 6.95331,5.556928 11.07194,4.544043 -2.26149,1.065473 -4.59954,1.112809 -6.58982,0.295987 -1.99033,-0.816847 -3.62118,-2.492961 -4.48212,-4.84003 z m -0.64665,-1.716741 c 1.79963,5.141915 8.4922,7.888593 13.38515,5.493356 -5.51497,3.910674 -12.20755,1.163996 -13.38515,-5.493356 m 40.20807,5.336561 a 0.16532957,0.16532957 0 0 0 -0.20404,0.09241 c -2.03966,4.822721 -8.63318,7.007431 -13.1493,4.356106 a 0.16531304,0.16531304 0 0 0 -0.0505,-0.007 0.16531304,0.16531304 0 0 0 -0.0608,-0.0086 0.16531304,0.16531304 0 0 0 -0.0549,0.02908 0.16531304,0.16531304 0 0 0 -0.0447,0.02362 0.16531304,0.16531304 0 0 0 9.6e-4,0.0095 0.16531304,0.16531304 0 0 0 -0.0163,0.01219 0.16531304,0.16531304 0 0 0 0.027,0.103823 0.16531304,0.16531304 0 0 0 0.01,0.107106 c 2.59827,2.155073 5.61528,2.679232 8.1809,1.829378 2.56564,-0.849861 4.67303,-3.071348 5.47046,-6.351687 a 0.16532957,0.16532957 0 0 0 -0.10882,-0.195917 z m -0.8057,1.824215 c -0.98941,2.23243 -2.6785,3.753246 -4.65991,4.409575 -1.98132,0.656313 -4.24419,0.444544 -6.37076,-0.755357 3.93077,1.271414 8.63666,-0.287636 11.03067,-3.654218 z m -12.63127,2.766812 c 4.61035,2.70665 11.30293,0.489134 13.38515,-4.434232 -1.57147,6.46442 -8.26485,8.681135 -13.38515,4.434232 m 149.8712,3.152083 a 0.16531304,0.16531304 0 0 0 -0.004,0.0086 0.16531304,0.16531304 0 0 0 -0.0203,0.0015 0.16531304,0.16531304 0 0 0 -0.0751,0.183717 0.16531304,0.16531304 0 0 0 -0.007,0.01407 c 1.01856,3.169839 3.23844,5.193719 5.806,5.828521 2.56756,0.634794 5.47463,-0.121475 7.85302,-2.451524 a 0.16532957,0.16532957 0 0 0 -0.21076,-0.253293 c -4.21053,2.964851 -10.7997,1.335689 -13.14368,-3.249566 a 0.16531304,0.16531304 0 0 0 -0.0385,-0.03268 0.16531304,0.16531304 0 0 0 -0.0472,-0.04019 0.16531304,0.16531304 0 0 0 -0.0611,-0.005 0.16531304,0.16531304 0 0 0 -0.0508,-0.0042 z m 0.92188,1.760732 c 2.58238,3.104058 7.26496,4.261778 10.99627,2.718731 -1.9821,1.340604 -4.16608,1.723994 -6.13983,1.236005 -1.97376,-0.48799 -3.72744,-1.844958 -4.85644,-3.954736 z m -0.87137,-1.603353 c 2.39364,4.682402 9.08621,6.337133 13.38595,3.309463 -4.6864,4.591139 -11.37898,2.936408 -13.38595,-3.309463 M 614.98533,6.1232339 c -1.78463,0.00612 -3.65768,0.5892309 -5.40651,1.8293765 a 0.16531304,0.16531304 0 0 0 -0.003,0.015322 0.16531304,0.16531304 0 0 0 -0.0502,0.1923195 0.16531304,0.16531304 0 0 0 0.0166,0.00563 0.16531304,0.16531304 0 0 0 -0.003,0.017199 0.16531304,0.16531304 0 0 0 0.1057,0.017981 0.16531304,0.16531304 0 0 0 0.10179,0.034868 c 4.79465,-2.3475924 11.39301,0.3605946 13.1565,5.3997861 a 0.16532957,0.16532957 0 0 0 0.31881,-0.0835 c -0.59748,-3.377849 -2.60265,-5.7819879 -5.16604,-6.8340481 -0.96126,-0.3945225 -2.00022,-0.5986061 -3.071,-0.594938 z m 0,0.3289754 c 1.02825,-0.00311 2.02412,0.1937941 2.94515,0.5717973 1.99011,0.8167801 3.62079,2.4928197 4.4818,4.8395584 -2.21946,-3.6139315 -6.95234,-5.556535 -11.07053,-4.5440443 1.21461,-0.5720816 2.45022,-0.8637009 3.64358,-0.8673114 z m -5.31088,1.6353205 c 5.51497,-3.910834 12.20754,-1.1640759 13.38515,5.4935162 -1.79963,-5.1424761 -8.49221,-7.8892342 -13.38515,-5.4935162 M 514.7407,106.94327 a 0.16531304,0.16531304 0 0 0 -0.005,0.008 0.16531304,0.16531304 0 0 0 -0.0203,0 0.16531304,0.16531304 0 0 0 -0.0863,0.17903 0.16531304,0.16531304 0 0 0 -0.008,0.0133 c 0.84324,3.31083 3.0094,5.54661 5.62853,6.39594 2.61913,0.84932 5.68509,0.31019 8.31068,-1.87551 a 0.16532957,0.16532957 0 0 0 -0.18966,-0.2694 c -4.57614,2.69831 -11.316,0.51246 -13.43778,-4.35783 a 0.16531304,0.16531304 0 0 0 -0.0368,-0.0355 0.16531304,0.16531304 0 0 0 -0.0442,-0.0427 0.16531304,0.16531304 0 0 0 -0.0613,-0.009 0.16531304,0.16531304 0 0 0 -0.0502,-0.007 z m 0.81352,1.82374 c 2.46843,3.41365 7.29634,4.97956 11.29836,3.66438 -2.15979,1.2281 -4.47023,1.45273 -6.5007,0.79429 -2.03062,-0.65848 -3.76963,-2.19641 -4.79766,-4.45867 z m -0.77266,-1.66362 c 2.16549,4.9706 9.00296,7.18812 13.67335,4.43423 -5.17473,4.30775 -12.01141,2.09103 -13.67335,-4.43423 m -13.72553,63.8599 a 0.16532957,0.16532957 0 0 0 -0.21843,0.0494 c -2.18447,3.17468 -6.08817,5.45718 -10.30142,6.47943 -4.21325,1.02225 -8.72899,0.78253 -12.12548,-1.03806 a 0.16531304,0.16531304 0 0 0 -0.10272,0.031 0.16531304,0.16531304 0 0 0 -0.10664,0.0142 0.16531304,0.16531304 0 0 0 -0.005,0.0196 0.16531304,0.16531304 0 0 0 -0.009,0.003 0.16531304,0.16531304 0 0 0 -0.005,0.0507 0.16531304,0.16531304 0 0 0 -0.006,0.0613 0.16531304,0.16531304 0 0 0 0.0306,0.0532 0.16531304,0.16531304 0 0 0 0.0256,0.0443 c 7.44424,5.69331 18.88378,2.918 22.89096,-5.55396 a 0.16532957,0.16532957 0 0 0 -0.0671,-0.21374 z m -1.17799,1.75072 c -4.19877,6.40864 -13.16591,8.58414 -19.83481,4.81236 3.19214,1.12923 6.98965,1.15596 10.57082,0.28707 3.58114,-0.86889 6.9443,-2.63289 9.26399,-5.09943 z m -21.5454,3.8857 c 6.88951,3.69292 18.21005,0.94625 22.64108,-5.49336 -3.9611,8.37453 -15.28245,11.12121 -22.64108,5.49336 M 78.400169,75.579165 c -1.088576,-0.0082 -2.147068,0.193733 -3.128547,0.588058 -2.61727,1.051519 -4.682394,3.470341 -5.326922,6.879392 a 0.16531304,0.16531304 0 0 0 0.0088,0.01282 0.16531304,0.16531304 0 0 0 0.09725,0.173246 0.16531304,0.16531304 0 0 0 0.02017,-9.61e-4 0.16531304,0.16531304 0 0 0 0.0054,0.0081 0.16531304,0.16531304 0 0 0 0.05003,-0.01047 0.16531304,0.16531304 0 0 0 0.0602,-0.01266 0.16531304,0.16531304 0 0 0 0.04159,-0.04534 0.16531304,0.16531304 0 0 0 0.0344,-0.03753 c 1.847896,-5.087807 8.591635,-7.79726 13.445598,-5.401662 a 0.16532957,0.16532957 0 0 0 0.16918,-0.282697 C 82.11244,76.189462 80.21443,75.592718 78.400145,75.579141 Z m -0.0018,0.329129 c 1.220114,0.0087 2.480333,0.311029 3.715345,0.899831 -4.18975,-1.056666 -9.044541,0.89394 -11.338998,4.555459 0.89996,-2.376761 2.580925,-4.070231 4.620343,-4.889591 0.941492,-0.378259 1.957026,-0.57312 3.00331,-0.565699 z m -8.291205,7.16907 c 1.270468,-6.719795 8.107944,-9.467273 13.674146,-5.493356 -4.952183,-2.444071 -11.788857,0.302607 -13.674146,5.493356 M 290.04534,170.96329 a 0.16532957,0.16532957 0 0 0 -0.21843,0.0494 c -2.18447,3.17468 -6.08822,5.45718 -10.30157,6.47943 -4.21335,1.02225 -8.72922,0.78254 -12.12611,-1.03806 a 0.16531304,0.16531304 0 0 0 -0.19403,0.0431 0.16531304,0.16531304 0 0 0 -0.0153,0.002 0.16531304,0.16531304 0 0 0 10e-4,0.01 0.16531304,0.16531304 0 0 0 -0.0156,0.0128 0.16531304,0.16531304 0 0 0 0.0432,0.19389 0.16531304,0.16531304 0 0 0 0.002,0.0155 c 7.44503,5.6933 18.88375,2.91798 22.89174,-5.55396 a 0.16532957,0.16532957 0 0 0 -0.0671,-0.21373 z m -1.17815,1.75088 c -4.19935,6.4086 -13.1662,8.58397 -19.83558,4.81205 3.19248,1.12934 6.99038,1.15614 10.57175,0.28722 3.58115,-0.86887 6.94415,-2.63282 9.26383,-5.09927 z m -21.54603,3.88554 c 6.89032,3.69292 18.21086,0.94625 22.64189,-5.49336 -3.96191,8.37453 -15.28245,11.12121 -22.64189,5.49336 M 394.13495,82.197907 c -1.08857,-0.0082 -2.1471,0.19362 -3.12854,0.587898 -2.61718,1.05143 -4.68209,3.470268 -5.32661,6.879704 a 0.16531304,0.16531304 0 0 0 0.009,0.01282 0.16531304,0.16531304 0 0 0 0.0972,0.173399 0.16531304,0.16531304 0 0 0 0.0202,-9.61e-4 0.16531304,0.16531304 0 0 0 0.005,0.008 0.16531304,0.16531304 0 0 0 0.0496,-0.01032 0.16531304,0.16531304 0 0 0 0.0607,-0.01282 0.16531304,0.16531304 0 0 0 0.0414,-0.04534 0.16531304,0.16531304 0 0 0 0.0344,-0.03752 c 1.84711,-5.087767 8.59165,-7.797251 13.44561,-5.401661 a 0.16532957,0.16532957 0 0 0 0.16933,-0.282697 c -1.76513,-1.260006 -3.6632,-1.85683 -5.4775,-1.870495 z m -0.002,0.329129 c 1.22028,0.0087 2.48087,0.311164 3.71613,0.900151 -4.18982,-1.056818 -9.04508,0.893547 -11.33931,4.554987 0.89992,-2.376938 2.58073,-4.070319 4.62004,-4.889592 0.94144,-0.378218 1.95686,-0.573015 3.00314,-0.565546 z m -8.29075,7.169254 c 1.27047,-6.720596 8.10715,-9.467274 13.67415,-5.493356 -4.95218,-2.444072 -11.78966,0.302606 -13.67415,5.493356 m -163.88169,86.75716 a 0.16531304,0.16531304 0 0 0 -0.005,0.0167 0.16531304,0.16531304 0 0 0 -0.0174,-0.002 0.16531304,0.16531304 0 0 0 -0.015,0.10663 0.16531304,0.16531304 0 0 0 -0.0319,0.10242 c 4.33303,8.24004 15.77397,10.48028 22.89472,4.48369 a 0.16532957,0.16532957 0 0 0 -0.19142,-0.26833 c -3.28165,1.96323 -7.73889,2.40588 -11.95176,1.58077 -4.21288,-0.82512 -8.17404,-2.91659 -10.4731,-5.97253 a 0.16531304,0.16531304 0 0 0 -0.10616,-0.015 0.16531304,0.16531304 0 0 0 -0.10289,-0.0319 z m 1.2396,1.70445 c 2.40209,2.34128 5.80227,3.93891 9.37892,4.63942 3.57618,0.70042 7.32726,0.50362 10.43463,-0.75833 -6.43111,4.0393 -15.38151,2.28646 -19.81355,-3.88109 z m -1.16271,-1.55819 c 4.66399,6.19944 15.98453,8.41695 22.64188,4.43423 -7.03841,5.92725 -18.35895,3.71054 -22.64188,-4.43423 M 363.01571,75.959113 c -1.52112,0.09076 -3.09363,0.568469 -4.60659,1.48351 a 0.16531304,0.16531304 0 0 0 -0.0302,0.04112 0.16531304,0.16531304 0 0 0 -0.0364,0.04941 0.16531304,0.16531304 0 0 0 -8e-4,0.06113 0.16531304,0.16531304 0 0 0 -8e-4,0.05144 0.16531304,0.16531304 0 0 0 0.01,0.01017 0.16531304,0.16531304 0 0 0 0.002,0.0136 0.16531304,0.16531304 0 0 0 0.0407,0.02986 0.16531304,0.16531304 0 0 0 0.05,0.03691 0.16531304,0.16531304 0 0 0 0.0618,8.01e-4 0.16531304,0.16531304 0 0 0 0.0507,8e-4 c 5.13781,-2.066901 11.88702,1.19938 13.4531,6.512269 a 0.16532957,0.16532957 0 0 0 0.32256,-0.06739 c -0.44178,-3.509112 -2.40345,-6.119304 -5.01812,-7.38489 -1.30733,-0.6328 -2.77713,-0.928987 -4.29825,-0.838229 z m 0.0194,0.328192 c 1.46582,-0.08744 2.87828,0.199425 4.1347,0.807584 2.04949,0.992023 3.67099,2.851462 4.43772,5.34897 -2.11144,-3.924115 -6.99871,-6.289301 -11.38591,-5.511112 0.94205,-0.366851 1.88813,-0.590244 2.81349,-0.645442 z m -4.5404,1.296703 c 5.96568,-3.608067 12.80236,-0.299405 13.67335,6.618926 -1.59709,-5.418105 -8.43376,-8.726767 -13.67335,-6.618926 m 165.14411,98.852082 a 0.16531304,0.16531304 0 0 0 -0.0491,0.0127 0.16531304,0.16531304 0 0 0 -0.0511,0.005 0.16531304,0.16531304 0 0 0 -0.003,0.009 0.16531304,0.16531304 0 0 0 -0.0195,0.005 0.16531304,0.16531304 0 0 0 -0.0422,0.19419 0.16531304,0.16531304 0 0 0 -0.005,0.0149 c 4.33303,8.24005 15.77397,10.48029 22.89472,4.48369 a 0.16532957,0.16532957 0 0 0 -0.19138,-0.2683 c -3.28164,1.96322 -7.7391,2.40589 -11.95207,1.58077 -4.21299,-0.82512 -8.1743,-2.91659 -10.47295,-5.97252 a 0.16531304,0.16531304 0 0 0 -0.0438,-0.0258 0.16531304,0.16531304 0 0 0 -0.0532,-0.0314 0.16531304,0.16531304 0 0 0 -0.0119,-0.007 z m 1.14016,1.72274 c 2.40181,2.34081 5.80171,3.93807 9.37797,4.63849 3.57608,0.70038 7.32717,0.50374 10.43448,-0.75802 -6.43075,4.03881 -15.38027,2.28623 -19.81245,-3.88047 z m -1.16337,-1.55912 c 4.66319,6.19944 15.98453,8.41695 22.64189,4.43423 -7.03842,5.92725 -18.35896,3.71054 -22.64189,-4.43423 M 131.00879,79.298892 c -2.30801,0.123205 -4.61799,1.340877 -6.33902,3.680485 a 0.16531304,0.16531304 0 0 0 0.0152,0.198103 0.16531304,0.16531304 0 0 0 0,0.01548 0.16531304,0.16531304 0 0 0 0.013,0.0054 0.16531304,0.16531304 0 0 0 0.007,0.01204 0.16531304,0.16531304 0 0 0 0.0494,0.0122 0.16531304,0.16531304 0 0 0 0.0599,0.01485 0.16531304,0.16531304 0 0 0 0.0571,-0.02314 0.16531304,0.16531304 0 0 0 0.0472,-0.01892 c 3.66544,-3.590183 10.3954,-3.03614 13.42512,1.105131 a 0.16532957,0.16532957 0 0 0 0.28082,-0.172462 c -1.5033,-2.959463 -4.00515,-4.599072 -6.62844,-4.815012 -0.32792,-0.02699 -0.65753,-0.03182 -0.98724,-0.01423 z m 0.0172,0.329914 c 0.31505,-0.01663 0.62994,-0.01201 0.94299,0.01376 2.01446,0.165818 3.95079,1.221075 5.394,3.116195 -3.02793,-2.640085 -7.80552,-3.03373 -11.22424,-0.924696 1.46404,-1.379311 3.17529,-2.114894 4.88725,-2.205259 z m -6.22307,3.448558 c 3.87545,-5.268402 10.71212,-4.705618 13.67415,1.12557 -3.09412,-4.229292 -9.93079,-4.792077 -13.67415,-1.12557 M 103.66088,72.679991 c -2.30801,0.123204 -4.61788,1.340869 -6.33856,3.680484 a 0.16531304,0.16531304 0 0 0 0.01611,0.106169 0.16531304,0.16531304 0 0 0 -0.0011,0.107417 0.16531304,0.16531304 0 0 0 0.01752,0 0.16531304,0.16531304 0 0 0 0.0026,0.01735 0.16531304,0.16531304 0 0 0 0.106161,-0.0161 0.16531304,0.16531304 0 0 0 0.107417,0.0011 c 3.665442,-3.589398 10.395272,-3.036268 13.424182,1.104979 a 0.16532957,0.16532957 0 0 0 0.28098,-0.172309 c -1.5029,-2.95948 -4.00484,-4.599225 -6.62813,-4.815165 -0.32791,-0.02699 -0.65752,-0.03167 -0.98723,-0.01407 z m 0.0172,0.329761 c 0.31505,-0.01664 0.62994,-0.01186 0.94299,0.01391 2.01438,0.165809 3.9507,1.220923 5.39369,3.115882 -3.02785,-2.640141 -7.80599,-3.032833 -11.224707,-0.923287 1.464097,-1.379976 3.175647,-2.116127 4.888027,-2.206509 z m -6.222651,3.448686 c 3.874651,-5.268402 10.712121,-4.705617 13.673351,1.12557 -3.09332,-4.229292 -9.92999,-4.791276 -13.673351,-1.12557 m -46.403165,5.739469 c -1.088584,-0.0082 -2.146956,0.19362 -3.128395,0.587898 -2.617173,1.05143 -4.682081,3.470268 -5.32661,6.879704 a 0.16531304,0.16531304 0 0 0 0.06051,0.08881 0.16531304,0.16531304 0 0 0 0.0455,0.09741 0.16531304,0.16531304 0 0 0 0.01579,-0.0074 0.16531304,0.16531304 0 0 0 0.0099,0.01439 0.16531304,0.16531304 0 0 0 0.08849,-0.06035 0.16531304,0.16531304 0 0 0 0.09757,-0.04565 c 1.847095,-5.087767 8.591643,-7.797251 13.445594,-5.401661 a 0.16532957,0.16532957 0 0 0 0.169179,-0.282697 C 54.764665,82.808355 52.8666,82.211531 51.052303,82.197866 Z m -0.0019,0.329129 c 1.220258,0.0087 2.480728,0.311188 3.715981,0.900151 -4.189793,-1.056738 -9.044961,0.893587 -11.339162,4.554987 0.899912,-2.376938 2.580565,-4.070319 4.619879,-4.889592 0.941452,-0.378218 1.95701,-0.573015 3.003302,-0.565546 z m -8.290709,7.169254 c 1.270469,-6.720596 8.107143,-9.467274 13.67415,-5.493356 -4.952186,-2.444072 -11.789662,0.302606 -13.67415,5.493356 m 124.579005,86.74558 a 0.16531304,0.16531304 0 0 0 -0.12602,0.0116 0.16531304,0.16531304 0 0 0 -0.013,0.0156 0.16531304,0.16531304 0 0 0 -0.009,-10e-4 0.16531304,0.16531304 0 0 0 -0.002,0.0153 0.16531304,0.16531304 0 0 0 -0.0449,0.19357 c 4.33223,8.24006 15.77396,10.48044 22.89472,4.48384 a 0.16532957,0.16532957 0 0 0 -0.19139,-0.2683 c -3.28205,1.96323 -7.73951,2.40588 -11.95239,1.58077 -4.21287,-0.82512 -8.17381,-2.9166 -10.47247,-5.97253 a 0.16531304,0.16531304 0 0 0 -0.0153,-0.002 0.16531304,0.16531304 0 0 0 -0.0677,-0.0563 z m 1.11389,1.71649 c 2.40179,2.34105 5.80172,3.93849 9.37813,4.63896 3.57632,0.70044 7.32771,0.50374 10.43542,-0.75833 -6.43104,4.03938 -15.38184,2.28661 -19.81355,-3.88063 z m -1.16295,-1.55865 c 4.66319,6.19944 15.98373,8.41695 22.64188,4.43423 -7.03841,5.92725 -18.35975,3.71054 -22.64188,-4.43423 m 274.52298,-26.74273 c -3.07492,-0.0783 -6.18208,0.73662 -8.85746,2.58051 a 0.16531304,0.16531304 0 0 0 -0.003,0.0153 0.16531304,0.16531304 0 0 0 -0.0529,0.19169 0.16531304,0.16531304 0 0 0 0.015,0.0136 0.16531304,0.16531304 0 0 0 -0.002,0.009 0.16531304,0.16531304 0 0 0 0.0428,0.0277 0.16531304,0.16531304 0 0 0 0.0518,0.0335 0.16531304,0.16531304 0 0 0 0.0619,-0.003 0.16531304,0.16531304 0 0 0 0.0505,-0.002 c 3.51658,-1.6669 8.0936,-1.68969 12.30764,-0.45781 4.21404,1.23188 8.05814,3.71642 10.12333,7.01511 a 0.16532957,0.16532957 0 0 0 0.29238,-0.15182 c -2.40736,-5.71708 -8.16021,-9.12209 -14.03053,-9.27149 z m -0.006,0.33351 c 5.12728,0.13263 10.16267,2.80304 12.85941,7.34611 -2.2334,-2.59894 -5.55848,-4.54009 -9.14546,-5.58866 -3.58703,-1.04859 -7.43412,-1.20412 -10.71561,-0.21733 2.20106,-1.10785 4.61018,-1.60198 7.00166,-1.54012 z m -8.75727,2.38319 c 7.69406,-5.30282 19.0154,-1.99336 22.64188,6.61893 -4.18846,-6.69018 -15.5098,-9.99964 -22.64188,-6.61893 M 42.789725,170.94375 a 0.16531304,0.16531304 0 0 0 -0.08615,0.0184 0.16531304,0.16531304 0 0 0 -0.01469,-0.005 0.16531304,0.16531304 0 0 0 -0.0094,0.0103 0.16531304,0.16531304 0 0 0 -0.01361,0.003 0.16531304,0.16531304 0 0 0 -0.0028,0.0152 0.16531304,0.16531304 0 0 0 -0.05285,0.19169 c 4.007996,8.47194 15.446721,11.24726 22.891748,5.55396 a 0.16532957,0.16532957 0 0 0 -0.178553,-0.2772 c -3.396482,1.82059 -7.912338,2.0603 -12.125787,1.03805 -4.213449,-1.02225 -8.117422,-3.30475 -10.301892,-6.47943 a 0.16531304,0.16531304 0 0 0 -0.106008,-0.069 z m 1.066353,1.77105 c 2.319722,2.46611 5.682597,4.22985 9.263526,5.09864 3.58128,0.86888 7.378965,0.84211 10.571132,-0.28707 -6.669128,3.77156 -15.635179,1.59642 -19.834658,-4.81157 z m -1.096454,-1.60845 c 4.43103,6.43961 15.752371,9.18628 22.641881,5.49336 -7.359432,5.62785 -18.679972,2.88117 -22.641881,-5.49336 M 564.59729,148.23869 v 27.20266 h 1.19113 v -27.20266 z m -356.32692,0 v 27.20266 h 1.19128 V 148.23869 Z M 175.24935,9.2458378 V 36.448658 h 1.19129 V 9.2458378 Z m 299.43365,0 V 36.448658 h 1.19112 V 9.2458378 Z M 679.80887,78.742416 V 105.94493 H 681 V 78.742416 Z m -2.44933,69.496274 v 27.20266 h 3.64015 v -27.20266 z m -3.63967,0 v 27.20266 H 674.911 V 148.23869 Z M 570.03382,78.742416 v 27.202514 h 1.19112 V 78.742416 Z m -112.93253,0 v 27.202514 h 1.19128 V 78.742416 Z M 279.23014,9.2458378 V 36.448658 h 1.19113 V 9.2458378 Z m 65.49681,69.4965782 v 27.202514 h 1.19113 V 78.742416 Z M 74.104264,9.2458378 V 36.448658 h 1.191278 V 9.2458378 Z M 242.86918,78.742416 v 27.202514 h 1.19129 V 78.742416 Z m -90.16165,0 v 27.202514 h 1.19129 V 78.742416 Z M 386.2233,9.2458378 V 36.448658 h 1.19112 V 9.2458378 Z m 293.58557,0 V 36.448658 H 681 V 9.2458378 Z m -103.98078,0 V 36.448658 h 1.19129 V 9.2458378 Z M 373.99728,148.23869 v 27.20266 h 1.19128 V 148.23869 Z M 0,174.7132 v 0.72768 h 681 v -0.72768 z m 0,-6.61812 v 0.72768 h 681 v -0.72768 z m 0,-6.6189 v 0.72768 h 681 v -0.72768 z m 0,-6.6189 v 0.72768 h 681 v -0.72768 z m 0,-6.61891 v 0.72769 h 681 v -0.72769 z m 0,-43.02144 v 0.72769 h 681 v -0.72769 z m 0,-6.618121 v 0.727681 h 681 v -0.727681 z m 0,-6.618902 v 0.727682 h 681 v -0.727682 z m 0,-6.619054 v 0.727842 h 681 v -0.727842 z m 0,-6.618901 v 0.727681 H 681 V 78.741952 Z M 0,35.720656 v 0.727689 h 681 v -0.727689 z m 0,-6.618269 v 0.727841 h 681 v -0.727841 z m 0,-6.61906 v 0.727685 h 681 v -0.727685 z m 0,-6.618588 v 0.727684 H 681 V 15.864739 Z M 0,9.2459947 V 9.9736795 H 681 V 9.2459947 Z"
     style="stroke-width:0.0800547" />
  <metadata
     id="metadata280">
    <rdf:RDF>
      <cc:Work
         rdf:about="">
        <dc:title>air_LI</dc:title>
      </cc:Work>
    </rdf:RDF>
  </metadata>
</svg>
