<?xml version="1.0" encoding="UTF-8" standalone="no"?>
<svg width="210.058mm" height="296.926mm" viewBox="0 0 9924 14028"
 xmlns="http://www.w3.org/2000/svg" xmlns:xlink="http://www.w3.org/1999/xlink" version="1.2" baseProfile="full">
<title>air_LX</title>
<desc>Generated by MuseScore Studio 4.7.3</desc>
<polyline class="StaffLines" fill="none" stroke="#000000" stroke-width="9.09" stroke-linejoin="bevel" points="708.661,828.424 9215.34,828.424" />
<polyline class="StaffLines" fill="none" stroke="#000000" stroke-width="9.09" stroke-linejoin="bevel" points="708.661,911.101 9215.34,911.101" />
<polyline class="StaffLines" fill="none" stroke="#000000" stroke-width="9.09" stroke-linejoin="bevel" points="708.661,993.778 9215.34,993.778" />
<polyline class="StaffLines" fill="none" stroke="#000000" stroke-width="9.09" stroke-linejoin="bevel" points="708.661,1076.46 9215.34,1076.46" />
<polyline class="StaffLines" fill="none" stroke="#000000" stroke-width="9.09" stroke-linejoin="bevel" points="708.661,1159.13 9215.34,1159.13" />
<polyline class="BarLine" fill="none" stroke="#000000" stroke-width="14.88" stroke-linejoin="bevel" points="1866.78,823.876 1866.78,1163.68" />
<polyline class="BarLine" fill="none" stroke="#000000" stroke-width="14.88" stroke-linejoin="bevel" points="7423.67,823.876 7423.67,1163.68" />
<polyline class="BarLine" fill="none" stroke="#000000" stroke-width="14.88" stroke-linejoin="bevel" points="5499.31,823.876 5499.31,1163.68" />
<polyline class="BarLine" fill="none" stroke="#000000" stroke-width="14.88" stroke-linejoin="bevel" points="9131.84,823.876 9131.84,1163.68" />
<polyline class="BarLine" fill="none" stroke="#000000" stroke-width="45.47" stroke-linejoin="bevel" points="9192.6,823.876 9192.6,1163.68" />
<polyline class="BarLine" fill="none" stroke="#000000" stroke-width="14.88" stroke-linejoin="bevel" points="3791.14,823.876 3791.14,1163.68" />
<polyline class="Stem" fill="none" stroke="#000000" stroke-width="8.27" stroke-linejoin="bevel" points="7538.59,883.652 7538.59,1159.13" />
<polyline class="Stem" fill="none" stroke="#000000" stroke-width="8.27" stroke-linejoin="bevel" points="2523.54,1007.67 2523.54,1262.15" />
<polyline class="Stem" fill="none" stroke="#000000" stroke-width="8.27" stroke-linejoin="bevel" points="8080.43,924.991 8080.43,1200.14" />
<polyline class="Stem" fill="none" stroke="#000000" stroke-width="8.27" stroke-linejoin="bevel" points="2983.98,1021.89 2983.98,766.416" />
<polyline class="Stem" fill="none" stroke="#000000" stroke-width="8.27" stroke-linejoin="bevel" points="3525.82,1187.24 3525.82,911.762" />
<polyline class="Stem" fill="none" stroke="#000000" stroke-width="8.27" stroke-linejoin="bevel" points="8441.66,966.329 8441.66,1221.14" />
<polyline class="Stem" fill="none" stroke="#000000" stroke-width="8.27" stroke-linejoin="bevel" points="1981.7,966.329 1981.7,1221.14" />
<polyline class="Stem" fill="none" stroke="#000000" stroke-width="8.27" stroke-linejoin="bevel" points="4005.28,1104.57 4005.28,828.424" />
<polyline class="Stem" fill="none" stroke="#000000" stroke-width="8.27" stroke-linejoin="bevel" points="1502.25,924.991 1502.25,1200.14" />
<polyline class="Stem" fill="none" stroke="#000000" stroke-width="8.27" stroke-linejoin="bevel" points="4547.11,1063.23 4547.11,787.747" />
<polyline class="Stem" fill="none" stroke="#000000" stroke-width="8.27" stroke-linejoin="bevel" points="7059.14,924.991 7059.14,1200.14" />
<polyline class="Stem" fill="none" stroke="#000000" stroke-width="8.27" stroke-linejoin="bevel" points="4908.34,1021.89 4908.34,766.416" />
<polyline class="Stem" fill="none" stroke="#000000" stroke-width="8.27" stroke-linejoin="bevel" points="6517.3,966.329 6517.3,1221.14" />
<polyline class="Stem" fill="none" stroke="#000000" stroke-width="8.27" stroke-linejoin="bevel" points="6156.07,1007.67 6156.07,1262.15" />
<path class="Hook" d="M2519.41,1262.15 C2519.41,1264.46 2521.39,1266.45 2523.71,1266.45 C2525.37,1266.45 2527.35,1265.13 2527.68,1263.8 C2527.68,1263.47 2530.66,1251.89 2530.99,1250.89 C2531.32,1249.57 2534.3,1236.99 2546.22,1217.46 C2559.13,1195.95 2578.99,1180.39 2595.54,1157.22 C2611.76,1134.05 2621.69,1112.2 2621.69,1083.08 C2621.69,1052.96 2614.74,1027.8 2597.19,995.693 C2596.2,993.376 2594.21,992.052 2592.23,992.052 C2591.57,992.052 2590.9,992.052 2590.57,992.383 C2588.92,993.045 2588.26,994.369 2588.26,996.355 C2588.26,997.348 2588.59,999.003 2589.25,1000.33 C2602.49,1031.11 2607.79,1048.65 2607.79,1072.48 C2607.79,1099.96 2598.19,1114.19 2592.23,1124.45 C2570.71,1161.19 2535.96,1179.07 2522.06,1183.7 C2519.74,1184.69 2519.41,1186.35 2519.41,1187.34 L2519.41,1262.15 "/>
<path class="Hook" d="M8076.3,1200.14 C8076.3,1202.46 8078.28,1204.44 8080.6,1204.44 C8082.25,1204.44 8084.24,1203.12 8084.57,1201.79 C8084.57,1201.46 8087.55,1189.88 8087.88,1188.89 C8088.21,1187.56 8091.19,1174.98 8103.11,1155.45 C8116.02,1133.94 8135.88,1118.38 8152.43,1095.21 C8168.64,1072.04 8178.57,1050.2 8178.57,1021.07 C8178.57,990.948 8171.62,965.792 8154.08,933.685 C8153.09,931.368 8151.1,930.044 8149.12,930.044 C8148.45,930.044 8147.79,930.044 8147.46,930.375 C8145.81,931.037 8145.14,932.361 8145.14,934.347 C8145.14,935.34 8145.47,936.995 8146.14,938.319 C8159.38,969.102 8164.67,986.645 8164.67,1010.48 C8164.67,1037.95 8155.07,1052.18 8149.12,1062.44 C8127.6,1099.18 8092.85,1117.06 8078.94,1121.69 C8076.63,1122.69 8076.3,1124.34 8076.3,1125.33 L8076.3,1200.14 "/>
<path class="Hook" d="M3521.69,986.238 C3521.69,987.231 3522.02,988.886 3524.33,989.879 C3538.57,994.513 3567.03,1012.39 3588.55,1049.13 C3594.51,1059.39 3604.11,1073.62 3604.11,1101.09 C3604.11,1124.93 3597.82,1149.42 3589.21,1173.25 C3588.55,1175.24 3587.89,1176.89 3588.22,1178.22 C3588.22,1180.2 3589.54,1181.53 3591.53,1181.53 C3593.84,1181.53 3595.5,1180.2 3596.82,1177.89 C3611.72,1151.41 3617.35,1120.62 3617.35,1090.5 C3615.69,1047.8 3591.2,1016.36 3591.2,1016.36 C3592.19,1016.36 3560.74,975.646 3551.81,961.744 C3539.56,942.877 3533.93,924.01 3533.27,922.686 C3532.94,921.693 3529.96,909.777 3529.96,909.777 C3529.63,908.453 3527.98,907.129 3525.99,907.129 C3523.67,907.129 3521.69,909.115 3521.69,911.432 L3521.69,986.238 "/>
<path class="Hook" d="M1498.11,1200.14 C1498.11,1202.46 1500.1,1204.44 1502.42,1204.44 C1504.07,1204.44 1506.06,1203.12 1506.39,1201.79 C1506.39,1201.46 1509.37,1189.88 1509.7,1188.89 C1510.03,1187.56 1513.01,1174.98 1524.93,1155.45 C1537.83,1133.94 1557.69,1118.38 1574.24,1095.21 C1590.46,1072.04 1600.39,1050.2 1600.39,1021.07 C1600.39,990.948 1593.44,965.792 1575.9,933.685 C1574.91,931.368 1572.92,930.044 1570.93,930.044 C1570.27,930.044 1569.61,930.044 1569.28,930.375 C1567.62,931.037 1566.96,932.361 1566.96,934.347 C1566.96,935.34 1567.29,936.995 1567.96,938.319 C1581.2,969.102 1586.49,986.645 1586.49,1010.48 C1586.49,1037.95 1576.89,1052.18 1570.93,1062.44 C1549.42,1099.18 1514.66,1117.06 1500.76,1121.69 C1498.45,1122.69 1498.11,1124.34 1498.11,1125.33 L1498.11,1200.14 "/>
<path class="Hook" d="M4542.98,862.222 C4542.98,863.215 4543.31,864.87 4545.63,865.863 C4559.86,870.497 4588.33,888.371 4609.84,925.112 C4615.8,935.373 4625.4,949.606 4625.4,977.079 C4625.4,1000.91 4619.11,1025.41 4610.5,1049.24 C4609.84,1051.22 4609.18,1052.88 4609.51,1054.2 C4609.51,1056.19 4610.84,1057.51 4612.82,1057.51 C4615.14,1057.51 4616.79,1056.19 4618.12,1053.87 C4633.01,1027.39 4638.64,996.608 4638.64,966.487 C4636.98,923.788 4612.49,892.343 4612.49,892.343 C4613.48,892.343 4582.04,851.63 4573.1,837.728 C4560.85,818.861 4555.23,799.994 4554.57,798.67 C4554.23,797.677 4551.26,785.761 4551.26,785.761 C4550.92,784.437 4549.27,783.113 4547.28,783.113 C4544.97,783.113 4542.98,785.099 4542.98,787.416 L4542.98,862.222 "/>
<path class="Hook" d="M7055,1200.14 C7055,1202.46 7056.99,1204.44 7059.3,1204.44 C7060.96,1204.44 7062.95,1203.12 7063.28,1201.79 C7063.28,1201.46 7066.26,1189.88 7066.59,1188.89 C7066.92,1187.56 7069.9,1174.98 7081.81,1155.45 C7094.72,1133.94 7114.58,1118.38 7131.13,1095.21 C7147.35,1072.04 7157.28,1050.2 7157.28,1021.07 C7157.28,990.948 7150.33,965.792 7132.79,933.685 C7131.79,931.368 7129.81,930.044 7127.82,930.044 C7127.16,930.044 7126.5,930.044 7126.17,930.375 C7124.51,931.037 7123.85,932.361 7123.85,934.347 C7123.85,935.34 7124.18,936.995 7124.84,938.319 C7138.08,969.102 7143.38,986.645 7143.38,1010.48 C7143.38,1037.95 7133.78,1052.18 7127.82,1062.44 C7106.31,1099.18 7071.55,1117.06 7057.65,1121.69 C7055.33,1122.69 7055,1124.34 7055,1125.33 L7055,1200.14 "/>
<path class="Hook" d="M6151.94,1262.15 C6151.94,1264.46 6153.92,1266.45 6156.24,1266.45 C6157.89,1266.45 6159.88,1265.13 6160.21,1263.8 C6160.21,1263.47 6163.19,1251.89 6163.52,1250.89 C6163.85,1249.57 6166.83,1236.99 6178.75,1217.46 C6191.66,1195.95 6211.52,1180.39 6228.07,1157.22 C6244.29,1134.05 6254.22,1112.2 6254.22,1083.08 C6254.22,1052.96 6247.26,1027.8 6229.72,995.693 C6228.73,993.376 6226.74,992.052 6224.76,992.052 C6224.09,992.052 6223.43,992.052 6223.1,992.383 C6221.45,993.045 6220.78,994.369 6220.78,996.355 C6220.78,997.348 6221.12,999.003 6221.78,1000.33 C6235.02,1031.11 6240.31,1048.65 6240.31,1072.48 C6240.31,1099.96 6230.71,1114.19 6224.76,1124.45 C6203.24,1161.19 6168.49,1179.07 6154.58,1183.7 C6152.27,1184.69 6151.94,1186.35 6151.94,1187.34 L6151.94,1262.15 "/>
<path class="Note" d="M4443.77,1090.36 C4443.77,1104.59 4454.03,1120.48 4480.84,1120.48 C4515.26,1120.48 4551.34,1092.34 4551.34,1063.22 C4551.34,1043.69 4534.79,1032.76 4514.27,1032.76 C4482.16,1032.76 4443.77,1059.91 4443.77,1090.36"/>
<path class="Note" d="M6151.94,1007.68 C6151.94,1021.91 6162.2,1037.8 6189.01,1037.8 C6223.43,1037.8 6259.51,1009.67 6259.51,980.538 C6259.51,961.009 6242.96,950.086 6222.44,950.086 C6190.33,950.086 6151.94,977.228 6151.94,1007.68"/>
<path class="Note" d="M1498.11,925.003 C1498.11,939.236 1508.38,955.124 1535.19,955.124 C1569.61,955.124 1605.69,926.989 1605.69,897.861 C1605.69,878.332 1589.14,867.409 1568.62,867.409 C1536.51,867.409 1498.11,894.551 1498.11,925.003"/>
<path class="Note" d="M6513.16,966.341 C6513.16,980.574 6523.42,996.462 6550.23,996.462 C6584.66,996.462 6620.74,968.327 6620.74,939.199 C6620.74,919.67 6604.19,908.747 6583.67,908.747 C6551.56,908.747 6513.16,935.889 6513.16,966.341"/>
<path class="Note" d="M4804.99,1049.02 C4804.99,1063.25 4815.26,1079.14 4842.07,1079.14 C4876.49,1079.14 4912.57,1051 4912.57,1021.88 C4912.57,1002.35 4896.02,991.425 4875.5,991.425 C4843.39,991.425 4804.99,1018.57 4804.99,1049.02"/>
<path class="Note" d="M7055,925.003 C7055,939.236 7065.26,955.124 7092.07,955.124 C7126.5,955.124 7162.58,926.989 7162.58,897.861 C7162.58,878.332 7146.03,867.409 7125.5,867.409 C7093.4,867.409 7055,894.551 7055,925.003"/>
<path class="Note" d="M3901.93,1131.7 C3901.93,1145.93 3912.19,1161.82 3939,1161.82 C3973.42,1161.82 4009.5,1133.68 4009.5,1104.55 C4009.5,1085.02 3992.95,1074.1 3972.43,1074.1 C3940.32,1074.1 3901.93,1101.24 3901.93,1131.7"/>
<path class="Note" d="M3422.47,1214.37 C3422.47,1228.61 3432.74,1244.49 3459.55,1244.49 C3493.97,1244.49 3530.05,1216.36 3530.05,1187.23 C3530.05,1167.7 3513.5,1156.78 3492.98,1156.78 C3460.87,1156.78 3422.47,1183.92 3422.47,1214.37"/>
<path class="Note" d="M7534.46,883.664 C7534.46,897.897 7544.72,913.785 7571.53,913.785 C7605.95,913.785 7642.03,885.65 7642.03,856.522 C7642.03,836.993 7625.48,826.07 7604.96,826.07 C7572.85,826.07 7534.46,853.212 7534.46,883.664"/>
<path class="Note" d="M2880.64,1049.02 C2880.64,1063.25 2890.9,1079.14 2917.71,1079.14 C2952.13,1079.14 2988.21,1051 2988.21,1021.88 C2988.21,1002.35 2971.66,991.425 2951.14,991.425 C2919.03,991.425 2880.64,1018.57 2880.64,1049.02"/>
<path class="Note" d="M2519.41,1007.68 C2519.41,1021.91 2529.67,1037.8 2556.48,1037.8 C2590.9,1037.8 2626.98,1009.67 2626.98,980.538 C2626.98,961.009 2610.43,950.086 2589.91,950.086 C2557.8,950.086 2519.41,977.228 2519.41,1007.68"/>
<path class="Note" d="M8076.3,925.003 C8076.3,939.236 8086.56,955.124 8113.37,955.124 C8147.79,955.124 8183.87,926.989 8183.87,897.861 C8183.87,878.332 8167.32,867.409 8146.8,867.409 C8114.69,867.409 8076.3,894.551 8076.3,925.003"/>
<path class="Note" d="M1977.57,966.341 C1977.57,980.574 1987.83,996.462 2014.64,996.462 C2049.07,996.462 2085.14,968.327 2085.14,939.199 C2085.14,919.67 2068.59,908.747 2048.07,908.747 C2015.97,908.747 1977.57,935.889 1977.57,966.341"/>
<path class="Note" d="M8437.52,966.341 C8437.52,980.574 8447.78,996.462 8474.59,996.462 C8509.02,996.462 8545.1,968.327 8545.1,939.199 C8545.1,919.67 8528.55,908.747 8508.02,908.747 C8475.92,908.747 8437.52,935.889 8437.52,966.341"/>
<path class="Clef" d="M909.689,1144.64 C903.069,1145.97 896.78,1146.63 890.491,1146.63 C843.158,1146.63 802.776,1113.53 802.776,1063.55 C802.776,1023.16 831.242,987.085 860.37,961.929 C865.997,956.964 871.293,952.33 876.258,947.365 C879.237,965.239 881.554,980.796 883.871,994.367 C853.75,1003.3 833.228,1035.08 833.228,1066.19 C833.228,1089.36 851.433,1121.14 877.913,1121.14 C880.561,1121.14 883.54,1119.82 883.54,1116.84 C883.54,1113.86 880.23,1112.2 876.258,1109.56 C863.349,1101.61 856.067,1093.01 856.067,1076.79 C856.067,1056.6 870.962,1040.38 890.491,1035.74 L909.689,1144.64 M880.561,804.373 C883.54,791.133 898.766,756.378 915.978,756.378 C920.943,756.378 928.887,772.597 928.887,795.436 C928.887,829.86 903.4,855.678 880.561,878.186 C878.575,864.946 876.92,852.037 876.92,838.135 C876.92,825.888 877.913,814.634 880.561,804.373 M956.691,1083.41 C956.691,1106.91 947.092,1131.07 923.591,1140.67 C916.64,1100.95 907.703,1048.32 905.386,1033.76 C935.176,1033.76 956.691,1053.95 956.691,1083.41 M811.051,1246.26 C811.051,1268.1 827.932,1296.9 872.617,1296.9 C888.174,1296.9 901.745,1292.93 913.661,1285.65 C931.535,1273.07 936.169,1251.22 936.169,1230.37 C936.169,1217.46 934.183,1202.57 930.873,1183.7 C929.88,1177.08 927.894,1167.15 925.908,1154.24 C958.346,1143.65 982.509,1109.89 982.509,1075.79 C982.509,1025.81 947.092,992.05 898.766,992.05 C895.456,972.19 892.146,952.661 889.167,934.125 C924.253,897.384 948.416,856.009 948.416,803.38 C948.416,773.259 939.148,748.765 933.852,736.849 C925.908,719.968 916.309,708.383 910.351,708.383 C908.034,708.383 897.773,712.355 886.85,725.264 C865.666,750.42 859.708,792.788 859.708,820.592 C859.708,838.466 861.363,854.685 866.99,891.757 C866.659,892.088 849.447,909.631 842.496,915.258 C812.375,943.393 770.669,983.444 770.669,1049.64 C770.669,1111.54 824.622,1160.2 886.188,1160.2 C895.787,1160.2 904.724,1159.21 912.337,1157.88 C918.626,1189.66 922.267,1212.83 922.267,1230.37 C922.267,1264.79 904.724,1283 871.293,1283 C863.349,1283 856.398,1281.34 855.736,1281.34 C855.405,1281.01 854.743,1280.68 854.743,1280.35 C854.743,1279.69 855.405,1279.36 856.398,1279.03 C871.955,1276.71 887.512,1263.47 887.512,1242.29 C887.512,1224.41 873.941,1205.55 849.116,1205.55 C825.946,1205.55 811.051,1224.41 811.051,1246.26"/>
<path class="KeySig" d="M1070.17,803.93 L1099.63,797.972 L1099.63,852.587 L1070.17,858.876 L1070.17,803.93 M1121.48,793.669 C1123.47,793.338 1125.12,791.021 1125.12,789.035 L1125.12,769.506 C1125.12,766.858 1123.13,764.872 1120.49,764.872 L1119.82,764.872 L1108.9,767.189 L1108.9,717.87 L1099.63,717.87 L1099.63,769.175 L1070.17,775.133 L1070.17,728.462 L1060.91,728.462 L1060.91,777.119 L1048,779.767 C1046.01,780.098 1044.36,782.415 1044.36,784.401 L1044.36,803.599 C1044.36,806.247 1046.34,808.233 1048.99,808.233 L1049.98,808.233 L1060.91,805.916 L1060.91,860.531 L1048,863.179 C1046.01,863.51 1044.36,865.827 1044.36,867.813 L1044.36,887.011 C1044.36,889.659 1046.34,891.645 1048.99,891.645 L1049.98,891.645 L1060.91,889.328 L1060.91,938.647 L1070.17,938.647 L1070.17,887.342 L1099.63,881.384 L1099.63,928.055 L1108.9,928.055 L1108.9,879.398 L1121.48,877.081 C1123.47,876.75 1125.12,874.433 1125.12,872.447 L1125.12,852.918 C1125.12,850.27 1123.13,848.284 1120.49,848.284 L1119.82,848.284 L1108.9,850.601 L1108.9,795.986 L1121.48,793.669 "/>
<path class="TimeSig" d="M1273.27,979.772 C1262.35,979.772 1253.41,964.877 1253.41,946.341 C1253.41,927.805 1262.35,912.579 1273.27,912.579 C1284.19,912.579 1293.46,927.805 1293.46,946.341 C1293.46,964.877 1284.19,979.772 1273.27,979.772 M1285.52,897.022 C1265.33,897.022 1258.04,902.98 1253.41,907.945 C1252.42,900.994 1251.76,895.698 1251.76,890.402 C1251.76,871.535 1258.38,847.041 1281.55,847.041 C1289.82,847.041 1294.79,849.689 1298.1,853.33 C1291.14,856.309 1285.52,865.246 1285.52,872.859 C1285.52,884.775 1294.79,894.043 1306.7,894.043 C1318.62,894.043 1328.22,884.775 1328.22,872.859 L1328.22,871.866 C1328.22,868.887 1327.55,863.922 1326.23,861.274 C1321.93,849.358 1308.03,831.815 1274.93,831.815 C1245.14,831.815 1223.62,860.281 1217,875.507 C1213.69,883.451 1208.73,899.67 1208.73,918.206 C1208.73,938.397 1214.35,961.236 1233.88,978.448 C1253.08,993.012 1265.33,993.674 1276.91,993.674 C1288.5,993.674 1331.86,980.103 1331.86,941.707 C1331.86,909.269 1306.37,897.022 1285.52,897.022"/>
<path class="TimeSig" d="M1291.48,1060.58 C1268.98,1053.3 1244.15,1042.37 1244.15,1027.48 C1244.15,1014.57 1256.07,1009.27 1270.3,1009.27 C1290.82,1009.27 1304.72,1018.87 1304.72,1034.1 C1304.72,1049.99 1297.44,1057.6 1291.48,1060.58 M1270.3,1139.03 C1249.12,1139.03 1230.91,1127.44 1230.91,1108.9 C1230.91,1086.73 1248.12,1081.43 1248.12,1081.43 C1270.63,1089.04 1302.74,1100.3 1302.74,1118.5 C1302.74,1127.44 1291.15,1139.03 1270.3,1139.03 M1310.02,1069.52 C1320.94,1061.24 1328.56,1050.65 1328.56,1037.41 C1328.56,1013.58 1302.41,994.047 1270.3,994.047 C1238.19,994.047 1212.04,1013.58 1212.04,1037.41 C1212.04,1050.65 1215.35,1062.56 1230.91,1072.49 C1216.02,1081.1 1207.74,1093.35 1207.74,1109.24 C1207.74,1136.05 1235.88,1157.56 1270.3,1157.56 C1304.72,1157.56 1332.86,1136.05 1332.86,1109.24 C1332.86,1093.35 1327.23,1078.45 1310.02,1069.52"/>
<path class="Rest" d="M5686.23,1048.72 C5685.9,1048.39 5685.23,1047.73 5684.24,1046.41 L5646.18,999.405 C5645.85,999.074 5645.51,998.081 5645.51,997.419 C5645.51,996.426 5645.85,995.102 5646.18,994.44 L5679.94,943.466 C5680.27,942.804 5680.6,941.811 5680.6,941.149 L5680.6,938.17 C5680.6,937.177 5680.27,936.184 5679.61,935.522 L5625.99,863.033 C5625.99,863.033 5624.66,861.047 5622.68,861.047 C5621.68,861.047 5621.02,861.378 5620.03,862.04 C5618.7,863.033 5618.37,864.357 5618.37,865.35 C5618.37,867.336 5619.37,868.991 5619.37,868.991 L5644.52,903.415 C5645.18,904.408 5645.51,905.732 5645.51,907.387 C5645.51,908.711 5645.18,910.366 5644.52,911.359 L5611.09,962.333 C5610.76,962.995 5610.43,964.319 5610.43,964.981 L5610.43,967.96 C5610.43,968.953 5610.76,969.946 5611.42,970.608 L5648.49,1016.62 C5647.17,1016.29 5644.19,1015.62 5640.22,1015.62 C5623.34,1015.62 5610.1,1029.53 5610.1,1046.41 C5610.1,1051.04 5611.09,1055.68 5613.74,1059.32 C5620.69,1069.91 5645.51,1101.35 5645.51,1101.35 C5645.51,1101.35 5647.17,1103.34 5649.49,1103.34 C5650.15,1103.34 5650.81,1103.34 5651.47,1102.68 C5653.13,1101.35 5653.79,1100.03 5653.79,1098.71 C5653.79,1097.38 5653.13,1096.39 5652.8,1095.73 C5651.8,1094.07 5641.21,1074.87 5641.21,1074.87 C5641.21,1074.87 5638.89,1070.24 5638.89,1064.28 C5638.89,1053.69 5646.84,1045.08 5657.43,1045.08 C5661.73,1045.08 5665.37,1046.41 5668.02,1048.06 L5680.93,1056.34 C5680.93,1056.34 5682.26,1057 5683.58,1057 C5684.9,1057 5685.9,1056.67 5686.89,1055.34 C5687.55,1054.02 5687.88,1053.36 5687.88,1052.37 C5687.88,1051.37 5687.55,1050.71 5686.89,1049.72 L5686.23,1048.72 "/>
<path class="NoteDot" d="M8586.35,952.439 C8586.35,961.707 8593.64,968.989 8602.9,968.989 C8612.17,968.989 8619.45,961.707 8619.45,952.439 C8619.45,943.171 8612.17,935.889 8602.9,935.889 C8593.64,935.889 8586.35,943.171 8586.35,952.439"/>
<path class="NoteDot" d="M4953.83,1035.12 C4953.83,1044.38 4961.11,1051.67 4970.38,1051.67 C4979.64,1051.67 4986.93,1044.38 4986.93,1035.12 C4986.93,1025.85 4979.64,1018.57 4970.38,1018.57 C4961.11,1018.57 4953.83,1025.85 4953.83,1035.12"/>
</svg>
