<?xml version="1.0" encoding="UTF-8" standalone="no"?>
<svg
   width="681"
   height="186.10622"
   version="1.2"
   id="svg202"
   xmlns="http://www.w3.org/2000/svg"
   xmlns:svg="http://www.w3.org/2000/svg"
   xmlns:rdf="http://www.w3.org/1999/02/22-rdf-syntax-ns#"
   xmlns:cc="http://creativecommons.org/ns#"
   xmlns:dc="http://purl.org/dc/elements/1.1/">
  <defs
     id="defs202" />
  <title
     id="title1">air_XXXII</title>
  <desc
     id="desc1">Generated by MuseScore Studio 4.7.3</desc>
  <path
     id="path202"
     class="NoteDot"
     d="m 284.74428,82.415311 c 0,0.742108 0.5828,1.324906 1.3249,1.324906 0.74211,0 1.32491,-0.582798 1.32491,-1.324906 0,-0.742107 -0.5828,-1.324906 -1.32491,-1.324906 -0.7421,0 -1.3249,0.582799 -1.3249,1.324906 m 322.11624,82.734169 c 0,0.74211 0.5828,1.32491 1.32491,1.32491 0.74211,0 1.32491,-0.5828 1.32491,-1.32491 0,-0.74211 -0.5828,-1.32491 -1.32491,-1.32491 -0.74211,0 -1.32491,0.5828 -1.32491,1.32491 M 61.79664,145.2935 c 0,0.74131 0.582799,1.32491 1.324906,1.32491 0.741307,0 1.324906,-0.5836 1.324906,-1.32491 0,-0.7421 -0.583599,-1.3249 -1.324906,-1.3249 -0.742107,0 -1.324906,0.5828 -1.324906,1.3249 M 480.83916,26.156845 c 0,0.741307 0.5828,1.324906 1.3249,1.324906 0.74211,0 1.32491,-0.583599 1.32491,-1.324906 0,-0.742108 -0.5828,-1.324906 -1.32491,-1.324906 -0.7421,0 -1.3249,0.582798 -1.3249,1.324906 M 45.09402,32.792582 v 1.96054 h -2.199104 c -0.185727,0 -0.370653,0.159309 -0.370653,0.370654 v 0.503544 c 0,0.212145 0.184926,0.371454 0.370653,0.371454 h 8.02869 c 0.212145,0 0.371454,-0.159309 0.371454,-0.371454 v -0.503544 c 0,-0.211345 -0.159309,-0.370654 -0.371454,-0.370654 h -2.384831 v -1.96054 h 2.384831 c 0.212145,0 0.371454,-0.185727 0.371454,-0.397872 v -0.503544 c 0,-0.184927 -0.159309,-0.370654 -0.371454,-0.370654 h -2.384831 v -4.213281 c 0,-0.159309 -0.07925,-0.291399 -0.184926,-0.344235 l -0.317817,-0.159309 c -0.05364,-0.02642 -0.08006,-0.02642 -0.132891,-0.02642 -0.105672,0 -0.212145,0 -0.291399,0.07925 l -2.411249,2.199904 c -0.07925,0.07925 -0.106473,0.184927 -0.106473,0.2914 v 2.172685 h -3.073301 c 0,0 2.967629,-3.179774 6.094567,-7.366637 0.105672,-0.13209 0.13209,-0.264981 0.13209,-0.370653 0,-0.132891 -0.05284,-0.238563 -0.07925,-0.264981 l -0.582798,-0.583279 c -0.07926,-0.053 -0.159309,-0.105993 -0.264982,-0.105993 -0.159309,0 -3.736154,0 -3.948299,0 -0.185727,0 -0.317818,0.158989 -0.344236,0.317978 0,0 -0.132891,1.961181 -0.821361,4.107448 -0.689272,2.146268 -1.484215,3.471174 -2.173486,4.451844 0,0 -0.07926,0.13209 -0.07926,0.291399 0,0.05284 0,0.105673 0.02642,0.158509 0.07925,0.185727 0.264981,0.477126 0.264981,0.477126 0,0 0.05284,0.159309 0.291399,0.159309 h 4.557516 m 0.794143,-11.066607 c -0.874998,0 -1.589887,-1.192415 -1.589887,-2.67631 0,-1.483894 0.714889,-2.702808 1.589887,-2.702808 0.874198,0 1.616305,1.218914 1.616305,2.702808 0,1.483895 -0.742107,2.67631 -1.616305,2.67631 m 0.97987,-6.624529 c -1.616305,0 -2.199104,0.476966 -2.569757,0.874437 -0.08006,-0.55646 -0.132891,-0.98043 -0.132891,-1.4044 0,-1.510393 0.529963,-3.471253 2.384831,-3.471253 0.662853,0 1.059925,0.211985 1.324906,0.503464 -0.556381,0.238483 -1.007089,0.953932 -1.007089,1.563389 0,0.953932 0.742108,1.69588 1.69636,1.69588 0.953452,0 1.721977,-0.741948 1.721977,-1.69588 v -0.07949 c 0,-0.238483 -0.05284,-0.635955 -0.158508,-0.84794 -0.345036,-0.953932 -1.457797,-2.3583327 -4.107609,-2.3583327 -2.38483,0 -4.106808,2.2788377 -4.63677,3.4977517 -0.264981,0.635955 -0.662853,1.934363 -0.662853,3.418257 0,1.616385 0.450708,3.444755 2.014177,4.822658 1.537051,1.165917 2.516921,1.218913 3.444755,1.218913 0.927034,0 4.398208,-1.086423 4.398208,-4.160204 0,-2.596816 -2.039795,-3.577246 -3.709737,-3.577246 M 28.940575,7.64899 31.298988,7.1720239 v 4.3721891 l -2.358413,0.503465 V 7.64899 m 4.107609,-0.8214417 c 0.159309,-0.026498 0.291399,-0.2119849 0.291399,-0.3709736 v -1.563389 c 0,-0.2119849 -0.159309,-0.3709736 -0.370653,-0.3709736 H 32.91529 L 32.041095,4.7076989 V 0.75947929 H 31.298988 V 4.8666876 L 28.940575,5.3436537 V 1.6074191 h -0.741307 v 3.8952233 l -1.033506,0.211985 c -0.159309,0.026498 -0.2914,0.2119849 -0.2914,0.3709736 v 1.5368909 c 0,0.2119849 0.158509,0.3709736 0.370654,0.3709736 h 0.07925 l 0.874998,-0.1854868 v 4.3721893 l -1.033506,0.211985 c -0.159309,0.0265 -0.2914,0.211985 -0.2914,0.370974 v 1.536891 c 0,0.211985 0.158509,0.370973 0.370654,0.370973 h 0.07925 l 0.874998,-0.185487 v 3.94822 h 0.741307 V 14.326516 L 31.29898,13.84955 v 3.736234 h 0.742107 v -3.895223 l 1.007089,-0.185487 c 0.159309,-0.0265 0.291399,-0.211985 0.291399,-0.370974 v -1.563389 c 0,-0.211984 -0.159309,-0.370973 -0.370653,-0.370973 h -0.05364 l -0.874198,0.185487 V 7.0130351 l 1.0071,-0.1854868 M 28.940575,146.64163 31.298988,146.1645 v 4.37259 l -2.358413,0.50354 v -4.399 m 4.107609,-0.82137 c 0.159309,-0.0264 0.291399,-0.21214 0.291399,-0.37065 v -1.56347 c 0,-0.21214 -0.159309,-0.37145 -0.370653,-0.37145 h -0.05364 l -0.874198,0.18572 v -3.94829 h -0.742107 v 4.1076 l -2.358413,0.47633 v -3.73616 h -0.741307 v 3.89547 l -1.033506,0.21214 c -0.159309,0.0264 -0.2914,0.21215 -0.2914,0.37066 v 1.53705 c 0,0.21214 0.158509,0.37065 0.370654,0.37065 h 0.07925 l 0.874998,-0.18493 v 4.37179 l -1.033506,0.21215 c -0.159309,0.0264 -0.2914,0.21214 -0.2914,0.37065 v 1.53705 c 0,0.21215 0.158509,0.37146 0.370654,0.37146 h 0.07925 l 0.874998,-0.18573 v 3.9483 h 0.741307 v -4.10761 l 2.358413,-0.47712 v 3.73695 h 0.742107 v -3.89546 l 1.007089,-0.18573 c 0.159309,-0.0264 0.291399,-0.21215 0.291399,-0.37065 v -1.56347 c 0,-0.21215 -0.159309,-0.37146 -0.370653,-0.37146 h -0.05364 l -0.874198,0.18573 v -4.37179 l 1.007089,-0.18573 m -4.107609,-68.674952 2.358413,-0.477126 v 4.372589 l -2.358413,0.503545 v -4.399008 m 4.107609,-0.821362 c 0.159309,-0.02642 0.291399,-0.212145 0.291399,-0.371454 v -1.562668 c 0,-0.212145 -0.159309,-0.371454 -0.370653,-0.371454 h -0.05364 l -0.874198,0.185727 v -3.9483 h -0.742107 v 4.106808 l -2.358413,0.477126 v -3.736154 h -0.741307 v 3.895463 l -1.033506,0.212145 c -0.159309,0.02642 -0.2914,0.211345 -0.2914,0.370654 v 1.537051 c 0,0.212145 0.158509,0.370653 0.370654,0.370653 h 0.07925 l 0.874998,-0.184926 v 4.371789 l -1.033506,0.212145 c -0.159309,0.02642 -0.2914,0.212145 -0.2914,0.370654 v 1.53705 c 0,0.212146 0.158509,0.370654 0.370654,0.370654 h 0.07925 l 0.874998,-0.184927 v 3.9483 h 0.741307 v -4.107608 l 2.358413,-0.477127 v 3.736155 h 0.742107 v -3.894663 l 1.007089,-0.185727 c 0.159309,-0.02642 0.291399,-0.212145 0.291399,-0.370653 v -1.56347 c 0,-0.212145 -0.159309,-0.371453 -0.370653,-0.371453 h -0.05364 l -0.874198,0.185726 v -4.371789 l 1.007089,-0.185727 M 16.093311,34.924439 c -0.529962,0.106473 -1.033427,0.159309 -1.536891,0.159309 -3.789231,0 -7.0220012,-2.649811 -7.0220012,-6.650947 0,-3.233411 2.2788382,-6.121386 4.6106722,-8.135243 0.450468,-0.397471 0.874438,-0.768445 1.27191,-1.165917 0.238483,1.430899 0.42397,2.67631 0.609457,3.762733 -2.411329,0.715129 -4.0542123,3.259268 -4.0542123,5.749771 0,1.854869 1.4573963,4.399008 3.5772463,4.399008 0.211985,0 0.450468,-0.105672 0.450468,-0.344235 0,-0.238563 -0.264982,-0.371454 -0.582959,-0.582799 -1.033427,-0.636435 -1.616385,-1.324906 -1.616385,-2.623393 0,-1.616306 1.192415,-2.914793 2.755804,-3.286247 l 1.536891,8.71796 M 13.761477,7.6844542 c 0.238483,-1.0599247 1.457396,-3.8422271 2.835298,-3.8422271 0.397472,0 1.033427,1.2984078 1.033427,3.1267779 0,2.7558043 -2.040355,4.822658 -3.868725,6.62453 -0.158989,-1.059925 -0.29148,-2.093352 -0.29148,-3.206273 0,-0.9804301 0.0795,-1.8813661 0.29148,-2.7028078 m 6.094567,22.3382338 c 0,1.881286 -0.768446,3.815409 -2.649812,4.583934 -0.556461,-3.179774 -1.27191,-7.393055 -1.457397,-8.558652 2.384831,0 4.107209,1.616305 4.107209,3.974718 M 8.1968718,43.059602 c 0,1.748395 1.351404,4.053972 4.9286502,4.053972 1.245411,0 2.331834,-0.317818 3.285766,-0.900616 1.430899,-1.007089 1.801872,-2.756285 1.801872,-4.425426 0,-1.033507 -0.158988,-2.225522 -0.423969,-3.736154 -0.07949,-0.529963 -0.238484,-1.324906 -0.397472,-2.358413 2.596815,-0.84778 4.531178,-3.550428 4.531178,-6.280294 0,-4.001136 -2.835299,-6.703784 -6.704024,-6.703784 -0.264981,-1.589887 -0.529962,-3.153276 -0.768445,-4.637171 2.8088,-2.941291 4.743163,-6.253555 4.743163,-10.4667561 0,-2.4113288 -0.741948,-4.3721895 -1.165917,-5.3261218 C 17.391719,0.92743413 16.623273,0 16.146307,0 15.96082,0 15.139379,0.31797742 14.264941,1.351404 c -1.69588,2.013857 -2.172846,5.4056161 -2.172846,7.631458 0,1.430898 0.132491,2.729306 0.582959,5.697095 -0.0265,0.0265 -1.404401,1.430899 -1.960861,1.881367 -2.4113287,2.25234 -5.7500916,5.458612 -5.7500916,10.757915 0,4.955389 4.3191932,8.850852 9.2478436,8.850852 0.768445,0 1.483894,-0.07925 2.093351,-0.185727 0.503464,2.54414 0.794943,4.399008 0.794943,5.803168 0,2.755484 -1.4044,4.213281 -4.08071,4.213281 -0.635955,0 -1.192415,-0.132891 -1.245411,-0.132891 -0.0265,-0.02642 -0.07949,-0.05284 -0.07949,-0.07925 0,-0.05284 0.053,-0.07925 0.132491,-0.105672 1.245412,-0.185727 2.490823,-1.245652 2.490823,-2.941211 0,-1.431379 -1.086423,-2.941211 -3.073782,-2.941211 -1.8548679,0 -3.0472832,1.509832 -3.0472832,3.259028 M 16.093311,173.91708 c -0.529962,0.10647 -1.033427,0.1593 -1.536891,0.1593 -3.789231,0 -7.0220012,-2.64981 -7.0220012,-6.65094 0,-3.23341 2.2788382,-6.12099 4.6106722,-8.13517 0.450468,-0.39787 0.874438,-0.76852 1.27191,-1.16559 0.238483,1.43058 0.42397,2.67623 0.609457,3.76257 -2.411329,0.71489 -4.0542123,3.25903 -4.0542123,5.74953 0,1.85487 1.4573963,4.39901 3.5772463,4.39901 0.211985,0 0.450468,-0.10567 0.450468,-0.34424 0,-0.23856 -0.264982,-0.37145 -0.582959,-0.58279 -1.033427,-0.63644 -1.616385,-1.32491 -1.616385,-2.6234 0,-1.6163 1.192415,-2.91479 2.755804,-3.28625 l 1.536891,8.71797 m -2.331834,-27.24023 c 0.238483,-1.05992 1.457396,-3.84183 2.835298,-3.84183 0.397472,0 1.033427,1.29849 1.033427,3.12694 0,2.75549 -2.040355,4.8225 -3.868725,6.62453 -0.158989,-1.05992 -0.29148,-2.09343 -0.29148,-3.20619 0,-0.98067 0.0795,-1.88209 0.29148,-2.70345 m 6.094567,22.33847 c 0,1.88129 -0.768446,3.81541 -2.649812,4.58394 -0.556461,-3.17978 -1.27191,-7.39306 -1.457397,-8.55865 2.384831,0 4.107209,1.6163 4.107209,3.97471 M 8.1968718,182.05224 c 0,1.74839 1.351404,4.05397 4.9286502,4.05397 1.245411,0 2.331834,-0.31782 3.285766,-0.90062 1.430899,-1.00708 1.801872,-2.75628 1.801872,-4.42542 0,-1.03351 -0.158988,-2.22552 -0.423969,-3.73616 -0.07949,-0.52996 -0.238484,-1.3249 -0.397472,-2.35841 2.596815,-0.84778 4.531178,-3.55043 4.531178,-6.28029 0,-4.00114 -2.835299,-6.70379 -6.704024,-6.70379 -0.264981,-1.58988 -0.529962,-3.15335 -0.768445,-4.63677 2.8088,-2.94201 4.743163,-6.25387 4.743163,-10.46715 0,-2.41125 -0.741948,-4.37179 -1.165917,-5.32605 -0.635955,-1.35132 -1.404401,-2.27915 -1.881367,-2.27915 -0.185487,0 -1.006928,0.31861 -1.881366,1.35132 -1.69588,2.01418 -2.172846,5.4061 -2.172846,7.63162 0,1.43138 0.132491,2.72986 0.582959,5.69749 -0.0265,0.0264 -1.404401,1.43058 -1.960861,1.88129 -2.4113287,2.25194 -5.7500916,5.45813 -5.7500916,10.75776 0,4.95538 4.3191932,8.85085 9.2478436,8.85085 0.768445,0 1.483894,-0.0793 2.093351,-0.18573 0.503464,2.54414 0.794943,4.39901 0.794943,5.80317 0,2.75548 -1.4044,4.21328 -4.08071,4.21328 -0.635955,0 -1.192415,-0.13289 -1.245411,-0.13289 -0.0265,-0.0264 -0.07949,-0.0528 -0.07949,-0.0793 0,-0.0528 0.053,-0.0792 0.132491,-0.10567 1.245412,-0.18573 2.490823,-1.24565 2.490823,-2.94121 0,-1.43138 -1.086423,-2.94121 -3.073782,-2.94121 -1.8548679,0 -3.0472832,1.50983 -3.0472832,3.25903 m 7.8964392,-77.63148 c -0.529962,0.10647 -1.033427,0.15931 -1.536891,0.15931 -3.789231,0 -7.0220012,-2.64982 -7.0220012,-6.650951 0,-3.233411 2.2788382,-6.120985 4.6106722,-8.135163 0.450468,-0.397872 0.874438,-0.768525 1.27191,-1.165597 0.238483,1.430579 0.42397,2.67623 0.609457,3.762573 -2.411329,0.714889 -4.0542123,3.259028 -4.0542123,5.749531 0,1.854869 1.4573963,4.399007 3.5772463,4.399007 0.211985,0 0.450468,-0.10567 0.450468,-0.34423 0,-0.23857 -0.264982,-0.37146 -0.582959,-0.5828 -1.033427,-0.63644 -1.616385,-1.32491 -1.616385,-2.623396 0,-1.616306 1.192415,-2.914793 2.755804,-3.286247 l 1.536891,8.717963 M 13.761477,77.180532 c 0.238483,-1.059925 1.457396,-3.841827 2.835298,-3.841827 0.397472,0 1.033427,1.298488 1.033427,3.126938 0,2.755484 -2.040355,4.822498 -3.868725,6.62453 -0.158989,-1.059925 -0.29148,-2.093432 -0.29148,-3.206193 0,-0.98067 0.0795,-1.882086 0.29148,-2.703448 m 6.094567,22.338474 c 0,1.881284 -0.768446,3.815404 -2.649812,4.583934 -0.556461,-3.17977 -1.27191,-7.393055 -1.457397,-8.558652 2.384831,0 4.107209,1.616305 4.107209,3.974718 M 8.1968718,112.55592 c 0,1.7484 1.351404,4.05397 4.9286502,4.05397 1.245411,0 2.331834,-0.31782 3.285766,-0.90061 1.430899,-1.00709 1.801872,-2.75629 1.801872,-4.42543 0,-1.03351 -0.158988,-2.22552 -0.423969,-3.73615 -0.07949,-0.52997 -0.238484,-1.32491 -0.397472,-2.35842 2.596815,-0.84778 4.531178,-3.55042 4.531178,-6.280291 0,-4.001136 -2.835299,-6.703784 -6.704024,-6.703784 -0.264981,-1.589887 -0.529962,-3.153356 -0.768445,-4.63677 2.8088,-2.942012 4.743163,-6.253876 4.743163,-10.467157 0,-2.411249 -0.741948,-4.371789 -1.165917,-5.326042 -0.635955,-1.351324 -1.404401,-2.279158 -1.881367,-2.279158 -0.185487,0 -1.006928,0.318618 -1.881366,1.351324 -1.69588,2.014177 -2.172846,5.406096 -2.172846,7.631618 0,1.431379 0.132491,2.729866 0.582959,5.697495 -0.0265,0.02642 -1.404401,1.430579 -1.960861,1.881287 -2.4113287,2.25194 -5.7500916,5.458132 -5.7500916,10.757755 0,4.955393 4.3191932,8.850853 9.2478436,8.850853 0.768445,0 1.483894,-0.0793 2.093351,-0.18573 0.503464,2.54414 0.794943,4.39901 0.794943,5.80317 0,2.75548 -1.4044,4.21328 -4.08071,4.21328 -0.635955,0 -1.192415,-0.13289 -1.245411,-0.13289 -0.0265,-0.0264 -0.07949,-0.0528 -0.07949,-0.0793 0,-0.0528 0.053,-0.0793 0.132491,-0.10568 1.245412,-0.18572 2.490823,-1.24565 2.490823,-2.94121 0,-1.43138 -1.086423,-2.94121 -3.073782,-2.94121 -1.8548679,0 -3.0472832,1.50983 -3.0472832,3.25903 M 414.212,78.075544 c -0.8742,0 -1.05992,-0.715689 -1.05992,-0.953452 0,-1.298488 4.45184,-3.577646 5.69749,-3.577646 0.63564,0 1.05993,0.370653 1.05993,0.954252 0,1.324906 -4.47827,3.576846 -5.6975,3.576846 m 3.6569,-5.77675 c -2.57056,0 -5.64386,2.146268 -5.64386,4.611153 0,1.139179 0.82136,2.411249 2.96763,2.411249 2.75548,0 5.64386,-2.252741 5.64386,-4.583935 0,-1.563469 -1.32491,-2.438467 -2.96763,-2.438467 m 98.1367,84.035056 c 0,1.13998 0.82136,2.41125 2.96763,2.41125 2.75629,0 5.64466,-2.25194 5.64466,-4.58393 0,-1.56347 -1.32491,-2.43767 -2.96843,-2.43767 -2.56976,0 -5.64386,2.17269 -5.64386,4.61035 M 343.2731,20.65076 c 0,1.139419 0.82136,2.411329 2.96763,2.411329 2.75548,0 5.64385,-2.25234 5.64385,-4.584175 0,-1.563389 -1.3249,-2.437827 -2.96762,-2.437827 -2.57056,0 -5.64386,2.172846 -5.64386,4.610673 m 149.57427,138.99256 c 0,1.13917 0.82136,2.41124 2.96763,2.41124 2.75548,0 5.64386,-2.25194 5.64386,-4.58393 0,-1.56347 -1.32491,-2.43767 -2.96763,-2.43767 -2.57056,0 -5.64386,2.17269 -5.64386,4.61036 M 470.91157,28.435202 c -0.8742,0 -1.05993,-0.714888 -1.05993,-0.953451 0,-1.298488 4.45185,-3.577647 5.6975,-3.577647 0.63563,0 1.05992,0.371454 1.05992,0.954253 0,1.324906 -4.47826,3.576845 -5.69749,3.576845 m 3.6569,-5.776349 c -2.57056,0 -5.64386,2.146668 -5.64386,4.610753 0,1.139178 0.82136,2.411248 2.96763,2.411248 2.75548,0 5.64386,-2.25274 5.64386,-4.583934 0,-1.563469 -1.32491,-2.438067 -2.96763,-2.438067 m -4.87934,140.293927 c 0,1.13918 0.82136,2.41125 2.96763,2.41125 2.75549,0 5.64386,-2.25194 5.64386,-4.58394 0,-1.56347 -1.32491,-2.43766 -2.96763,-2.43766 -2.57056,0 -5.64386,2.17268 -5.64386,4.61035 m 69.47471,0 c 0,1.13918 0.82216,2.41125 2.96843,2.41125 2.75548,0 5.64385,-2.25194 5.64385,-4.58394 0,-1.56347 -1.3249,-2.43766 -2.96762,-2.43766 -2.57056,0 -5.64466,2.17268 -5.64466,4.61035 m -92.63374,6.61892 c 0,1.13918 0.82136,2.41125 2.96763,2.41125 2.75628,0 5.64466,-2.25274 5.64466,-4.58393 0,-1.56347 -1.32491,-2.43847 -2.96763,-2.43847 -2.57056,0 -5.64466,2.17349 -5.64466,4.61115 M 507.73355,28.435202 c -0.875,0 -1.05993,-0.714888 -1.05993,-0.953451 0,-1.298488 4.45184,-3.577647 5.6967,-3.577647 0.63643,0 1.05992,0.371454 1.05992,0.954253 0,1.324906 -4.47826,3.576845 -5.69669,3.576845 m 3.6569,-5.776349 c -2.57056,0 -5.64466,2.146668 -5.64466,4.610753 0,1.139178 0.82136,2.411248 2.96763,2.411248 2.75628,0 5.64466,-2.25274 5.64466,-4.583934 0,-1.563469 -1.32491,-2.438067 -2.96763,-2.438067 M 420.73086,20.65076 c 0,1.139419 0.82136,2.411329 2.96763,2.411329 2.75548,0 5.64386,-2.25234 5.64386,-4.584175 0,-1.563389 -1.32491,-2.437827 -2.96763,-2.437827 -2.57056,0 -5.64386,2.172846 -5.64386,4.610673 m 114.06199,19.855896 c 0,1.13998 0.82136,2.411249 2.96763,2.411249 2.75548,0 5.64386,-2.25194 5.64386,-4.583934 0,-1.563469 -1.32491,-2.437667 -2.96763,-2.437667 -2.57056,0 -5.64386,2.172686 -5.64386,4.610352 M 413.90699,169.5717 c 0,1.13918 0.82136,2.41125 2.96763,2.41125 2.75629,0 5.64466,-2.25274 5.64466,-4.58393 0,-1.56347 -1.32491,-2.43847 -2.96843,-2.43847 -2.56976,0 -5.64386,2.17349 -5.64386,4.61115 M 314.44378,23.960143 c 0,1.139179 0.82137,2.411248 2.96763,2.411248 2.75549,0 5.64386,-2.251939 5.64386,-4.584094 0,-1.563389 -1.3249,-2.437827 -2.96763,-2.437827 -2.57055,0 -5.64386,2.172846 -5.64386,4.610673 M 381.1566,167.42784 c -0.8742,0 -1.05993,-0.71489 -1.05993,-0.95345 0,-1.29849 4.45185,-3.57765 5.6975,-3.57765 0.63563,0 1.05992,0.37145 1.05992,0.95425 0,1.32491 -4.47826,3.57685 -5.69749,3.57685 m 3.6569,-5.77595 c -2.57056,0 -5.64386,2.14627 -5.64386,4.61035 0,1.13918 0.82136,2.41125 2.96763,2.41125 2.75548,0 5.64386,-2.25194 5.64386,-4.58393 0,-1.56347 -1.32491,-2.43767 -2.96763,-2.43767 M 563.62216,30.579068 c 0,1.139179 0.82136,2.411249 2.96763,2.411249 2.75548,0 5.64386,-2.25274 5.64386,-4.583934 0,-1.563469 -1.32491,-2.438468 -2.96763,-2.438468 -2.57056,0 -5.64386,2.173487 -5.64386,4.611153 M 356.01061,162.95278 c 0,1.13918 0.82136,2.41125 2.96842,2.41125 2.75549,0 5.64386,-2.25194 5.64386,-4.58394 0,-1.56347 -1.3249,-2.43766 -2.96763,-2.43766 -2.57055,0 -5.64465,2.17268 -5.64465,4.61035 M 582.9866,27.269606 c 0,1.139178 0.82136,2.411248 2.96763,2.411248 2.75548,0 5.64386,-2.25274 5.64386,-4.583934 0,-1.563469 -1.32491,-2.438067 -2.96763,-2.438067 -2.57056,0 -5.64386,2.173086 -5.64386,4.610753 M 332.85237,159.64332 c 0,1.13917 0.82136,2.41124 2.96763,2.41124 2.75628,0 5.64466,-2.25194 5.64466,-4.58393 0,-1.56347 -1.32491,-2.43767 -2.96843,-2.43767 -2.56976,0 -5.64386,2.17269 -5.64386,4.61036 M 602.35104,23.960143 c 0,1.139179 0.82136,2.411248 2.96763,2.411248 2.75548,0 5.64386,-2.251939 5.64386,-4.584094 0,-1.563389 -1.32491,-2.437827 -2.96763,-2.437827 -2.57056,0 -5.64386,2.172846 -5.64386,4.610673 M 309.69414,156.33385 c 0,1.13998 0.82136,2.41125 2.96763,2.41125 2.75548,0 5.64385,-2.25194 5.64385,-4.58393 0,-1.56347 -1.3249,-2.43767 -2.96762,-2.43767 -2.57056,0 -5.64386,2.17269 -5.64386,4.61035 M 621.71548,20.65076 c 0,1.139419 0.82136,2.411329 2.96763,2.411329 2.75548,0 5.64386,-2.25234 5.64386,-4.584175 0,-1.563389 -1.32491,-2.437827 -2.96763,-2.437827 -2.57056,0 -5.64386,2.172846 -5.64386,4.610673 M 64.523305,40.506656 c 0,1.13998 0.821361,2.411249 2.967629,2.411249 2.756285,0 5.644659,-2.25194 5.644659,-4.583934 0,-1.563469 -1.324905,-2.437667 -2.967629,-2.437667 -2.570557,0 -5.644659,2.172686 -5.644659,4.610352 M 641.07992,23.960143 c 0,1.139179 0.82136,2.411248 2.96763,2.411248 2.75548,0 5.64386,-2.251939 5.64386,-4.584094 0,-1.563389 -1.32491,-2.437827 -2.96763,-2.437827 -2.57056,0 -5.64386,2.172846 -5.64386,4.610673 M 277.07103,153.02439 c 0,1.13998 0.82136,2.41205 2.96763,2.41205 2.75548,0 5.64386,-2.25274 5.64386,-4.58474 0,-1.56346 -1.32491,-2.43766 -2.96763,-2.43766 -2.57056,0 -5.64386,2.17268 -5.64386,4.61035 M 660.44436,27.269606 c 0,1.139178 0.82136,2.411248 2.96763,2.411248 2.75548,0 5.64386,-2.25274 5.64386,-4.583934 0,-1.563469 -1.32491,-2.438067 -2.96763,-2.438067 -2.57056,0 -5.64386,2.173086 -5.64386,4.610753 M 253.912,156.33385 c 0,1.13998 0.82136,2.41125 2.96843,2.41125 2.75548,0 5.64385,-2.25194 5.64385,-4.58393 0,-1.56347 -1.3249,-2.43767 -2.96762,-2.43767 -2.57056,0 -5.64466,2.17269 -5.64466,4.61035 M 287.38448,18.507374 c -0.875,0 -1.05992,-0.715449 -1.05992,-0.953932 0,-1.298408 4.45104,-3.577246 5.69669,-3.577246 0.63564,0 1.05993,0.370974 1.05993,0.953932 0,1.324906 -4.47826,3.577246 -5.6967,3.577246 m 3.6561,-5.776589 c -2.56975,0 -5.64386,2.146347 -5.64386,4.610672 0,1.139419 0.82136,2.411329 2.96763,2.411329 2.75629,0 5.64466,-2.25234 5.64466,-4.584175 0,-1.563388 -1.3249,-2.437826 -2.96843,-2.437826 M 230.75376,146.40626 c 0,1.13918 0.82136,2.41125 2.96763,2.41125 2.75629,0 5.64466,-2.25274 5.64466,-4.58393 0,-1.56347 -1.32491,-2.43847 -2.96843,-2.43847 -2.56976,0 -5.64386,2.17349 -5.64386,4.61115 m 331.56911,6.61813 c 0,1.13998 0.82136,2.41205 2.96763,2.41205 2.75548,0 5.64386,-2.25274 5.64386,-4.58474 0,-1.56346 -1.32491,-2.43766 -2.96763,-2.43766 -2.57056,0 -5.64386,2.17268 -5.64386,4.61035 m -354.72734,-3.30866 c 0,1.13918 0.82136,2.41125 2.96763,2.41125 2.75548,0 5.64385,-2.25274 5.64385,-4.58474 0,-1.56267 -1.3249,-2.43767 -2.96762,-2.43767 -2.57056,0 -5.64386,2.17269 -5.64386,4.61116 M 401.36642,17.341457 c 0,1.139419 0.82136,2.411329 2.96763,2.411329 2.75548,0 5.64386,-2.25234 5.64386,-4.584175 0,-1.563388 -1.32491,-2.437826 -2.96763,-2.437826 -2.57056,0 -5.64386,2.172845 -5.64386,4.610672 M 184.43729,153.02439 c 0,1.13998 0.82136,2.41205 2.96763,2.41205 2.75549,0 5.64386,-2.25274 5.64386,-4.58474 0,-1.56346 -1.32491,-2.43766 -2.96763,-2.43766 -2.57056,0 -5.64386,2.17268 -5.64386,4.61035 M 49.881293,93.456461 c 0,1.139179 0.821362,2.411248 2.96763,2.411248 2.756284,0 5.644659,-2.251939 5.644659,-4.583934 0,-1.563469 -1.324906,-2.437667 -2.967629,-2.437667 -2.570558,0 -5.64466,2.172686 -5.64466,4.610353 M 161.27826,156.33385 c 0,1.13998 0.82136,2.41125 2.96763,2.41125 2.75628,0 5.64466,-2.25194 5.64466,-4.58393 0,-1.56347 -1.32491,-2.43767 -2.96763,-2.43767 -2.57056,0 -5.64466,2.17269 -5.64466,4.61035 M 67.283592,96.765923 c 0,1.139179 0.821362,2.411249 2.967629,2.411249 2.755484,0 5.643859,-2.25274 5.643859,-4.583934 0,-1.563469 -1.324906,-2.438467 -2.967629,-2.438467 -2.570557,0 -5.643859,2.173486 -5.643859,4.611152 M 101.65189,30.579068 c 0,1.139179 0.82136,2.411249 2.96763,2.411249 2.75548,0 5.64386,-2.25274 5.64386,-4.583934 0,-1.563469 -1.32491,-2.438468 -2.96763,-2.438468 -2.57056,0 -5.64386,2.173487 -5.64386,4.611153 M 84.685087,100.07539 c 0,1.13918 0.821362,2.41124 2.967629,2.41124 2.755484,0 5.643859,-2.25274 5.643859,-4.583929 0,-1.563469 -1.324906,-2.438468 -2.967629,-2.438468 -2.570557,0 -5.643859,2.173487 -5.643859,4.611157 m 43.970063,56.25846 c 0,1.13998 0.82136,2.41125 2.96763,2.41125 2.75629,0 5.64466,-2.25194 5.64466,-4.58393 0,-1.56347 -1.32491,-2.43767 -2.96843,-2.43767 -2.56976,0 -5.64386,2.17269 -5.64386,4.61035 M 104.07434,78.075544 c -0.87499,0 -1.05992,-0.715689 -1.05992,-0.953452 0,-1.298488 4.45104,-3.577646 5.69669,-3.577646 0.63564,0 1.05993,0.370653 1.05993,0.954252 0,1.324906 -4.47826,3.576846 -5.6967,3.576846 m 3.6561,-5.77675 c -2.56975,0 -5.64385,2.146268 -5.64385,4.611153 0,1.139179 0.82136,2.411249 2.96762,2.411249 2.75629,0 5.64466,-2.252741 5.64466,-4.583935 0,-1.563469 -1.3249,-2.438467 -2.96843,-2.438467 M 95.904759,154.19079 c -0.874198,0 -1.059925,-0.71569 -1.059925,-0.95425 0,-1.29849 4.451844,-3.57685 5.697496,-3.57685 0.63563,0 1.05992,0.37065 1.05992,0.95345 0,1.32491 -4.478258,3.57765 -5.697491,3.57765 m 3.6569,-5.77675 c -2.570558,0 -5.643859,2.14627 -5.643859,4.61035 0,1.13998 0.821362,2.41205 2.967629,2.41205 2.755484,0 5.643861,-2.25274 5.643861,-4.58474 0,-1.56346 -1.32491,-2.43766 -2.967631,-2.43766 M 128.18923,80.21941 c 0,1.139179 0.82136,2.411249 2.96763,2.411249 2.75549,0 5.64386,-2.252741 5.64386,-4.584735 0,-1.563469 -1.3249,-2.437667 -2.96763,-2.437667 -2.57056,0 -5.64386,2.172686 -5.64386,4.611153 m 146.62746,4.47506 c -0.8742,0 -1.05993,-0.71569 -1.05993,-0.954253 0,-1.298488 4.45185,-3.576846 5.6975,-3.576846 0.63563,0 1.05992,0.370654 1.05992,0.953452 0,1.324906 -4.47826,3.577647 -5.69749,3.577647 m 3.6569,-5.77675 c -2.57056,0 -5.64386,2.146267 -5.64386,4.610352 0,1.13998 0.82136,2.412049 2.96763,2.412049 2.75548,0 5.64386,-2.25274 5.64386,-4.584734 0,-1.563469 -1.32491,-2.437667 -2.96763,-2.437667 m -226.604537,71.9636 c -0.874999,0 -1.059925,-0.71568 -1.059925,-0.95425 0,-1.29769 4.451844,-3.57684 5.696695,-3.57684 0.636435,0 1.059925,0.37065 1.059925,0.95425 0,1.3249 -4.478262,3.57684 -5.696695,3.57684 m 3.6569,-5.77675 c -2.570558,0 -5.64466,2.14627 -5.64466,4.61116 0,1.13918 0.821362,2.41125 2.96763,2.41125 2.756284,0 5.644659,-2.25274 5.644659,-4.58474 0,-1.56267 -1.324906,-2.43767 -2.967629,-2.43767 M 266.03228,30.579068 c 0,1.139179 0.82136,2.411249 2.96763,2.411249 2.75629,0 5.64466,-2.25274 5.64466,-4.583934 0,-1.563469 -1.3249,-2.438468 -2.96843,-2.438468 -2.56976,0 -5.64386,2.173487 -5.64386,4.611153 m 115.9697,-16.546994 c 0,1.139419 0.82136,2.411329 2.96763,2.411329 2.75548,0 5.64385,-2.25234 5.64385,-4.584174 0,-1.563389 -1.3249,-2.4378271 -2.96762,-2.4378271 -2.57056,0 -5.64386,2.1728461 -5.64386,4.6106721 M 596.93294,167.42784 c -0.8742,0 -1.05993,-0.71489 -1.05993,-0.95345 0,-1.29849 4.45184,-3.57765 5.6975,-3.57765 0.63563,0 1.05992,0.37145 1.05992,0.95425 0,1.32491 -4.47826,3.57685 -5.69749,3.57685 m 3.6569,-5.77595 c -2.57056,0 -5.64386,2.14627 -5.64386,4.61035 0,1.13918 0.82136,2.41125 2.96763,2.41125 2.75548,0 5.64385,-2.25194 5.64385,-4.58393 0,-1.56347 -1.3249,-2.43767 -2.96762,-2.43767 M 121.01633,27.269606 c 0,1.139178 0.82136,2.411248 2.96763,2.411248 2.75548,0 5.64386,-2.25274 5.64386,-4.583934 0,-1.563469 -1.32491,-2.438067 -2.96763,-2.438067 -2.57056,0 -5.64386,2.173086 -5.64386,4.610753 m 35.17125,56.258466 c 0,1.13998 0.82136,2.412049 2.96763,2.412049 2.75548,0 5.64385,-2.25274 5.64385,-4.584734 0,-1.563469 -1.3249,-2.437667 -2.96762,-2.437667 -2.57056,0 -5.64386,2.172685 -5.64386,4.610352 M 661.27533,80.21941 c 0,1.139179 0.82136,2.411249 2.96763,2.411249 2.75628,0 5.64386,-2.252741 5.64386,-4.584735 0,-1.563469 -1.32491,-2.437667 -2.96763,-2.437667 -2.56976,0 -5.64386,2.172686 -5.64386,4.611153 m -487.68625,0 c 0,1.139179 0.82136,2.411249 2.96762,2.411249 2.75629,0 5.64386,-2.252741 5.64386,-4.584735 0,-1.563469 -1.3249,-2.437667 -2.96763,-2.437667 -2.56975,0 -5.64385,2.172686 -5.64385,4.611153 m 470.28475,3.308662 c 0,1.13998 0.82136,2.412049 2.96763,2.412049 2.75548,0 5.64386,-2.25274 5.64386,-4.584734 0,-1.563469 -1.32491,-2.437667 -2.96763,-2.437667 -2.57056,0 -5.64386,2.172685 -5.64386,4.610352 m -452.88326,3.309463 c 0,1.139979 0.82136,2.411249 2.96763,2.411249 2.75629,0 5.64466,-2.25194 5.64466,-4.583935 0,-1.563469 -1.3249,-2.437666 -2.96843,-2.437666 -2.56975,0 -5.64386,2.172685 -5.64386,4.610352 m -50.6098,-62.877392 c 0,1.139179 0.82136,2.411248 2.96763,2.411248 2.75628,0 5.64386,-2.251939 5.64386,-4.584094 0,-1.563389 -1.32491,-2.437827 -2.96763,-2.437827 -2.56976,0 -5.64386,2.172846 -5.64386,4.610673 m 486.09076,62.877392 c 0,1.139979 0.82216,2.411249 2.96843,2.411249 2.75549,0 5.64386,-2.25194 5.64386,-4.583935 0,-1.563469 -1.3249,-2.437666 -2.96763,-2.437666 -2.57056,0 -5.64466,2.172685 -5.64466,4.610352 m -416.44394,3.309463 c 0,1.139179 0.82216,2.411248 2.96843,2.411248 2.75548,0 5.64386,-2.251939 5.64386,-4.583934 0,-1.563469 -1.32491,-2.437667 -2.96763,-2.437667 -2.57056,0 -5.64466,2.172686 -5.64466,4.610353 m 397.40693,-6.618926 c 0,1.13998 0.82136,2.412049 2.96762,2.412049 2.75629,0 5.64466,-2.25274 5.64466,-4.584734 0,-1.563469 -1.3249,-2.437667 -2.96843,-2.437667 -2.56975,0 -5.64385,2.172685 -5.64385,4.610352 m -380.00463,3.309463 c 0,1.139979 0.82136,2.411249 2.96763,2.411249 2.75548,0 5.64386,-2.25194 5.64386,-4.583935 0,-1.563469 -1.32491,-2.437666 -2.96763,-2.437666 -2.57056,0 -5.64386,2.172685 -5.64386,4.610352 M 590.03302,80.21941 c 0,1.139179 0.82136,2.411249 2.96763,2.411249 2.75628,0 5.64386,-2.252741 5.64386,-4.584735 0,-1.563469 -1.32491,-2.437667 -2.96763,-2.437667 -2.56976,0 -5.64386,2.172686 -5.64386,4.611153 m -345.20163,3.308662 c 0,1.13998 0.82136,2.412049 2.96763,2.412049 2.75628,0 5.64385,-2.25274 5.64385,-4.584734 0,-1.563469 -1.3249,-2.437667 -2.96762,-2.437667 -2.56976,0 -5.64386,2.172685 -5.64386,4.610352 m 327.80013,-6.618125 c 0,1.139179 0.82136,2.411249 2.96763,2.411249 2.75548,0 5.64386,-2.252741 5.64386,-4.583935 0,-1.563469 -1.32491,-2.438467 -2.96763,-2.438467 -2.57056,0 -5.64386,2.173486 -5.64386,4.611153 M 246.66784,27.269606 c 0,1.139178 0.82136,2.411248 2.96763,2.411248 2.75629,0 5.64386,-2.25274 5.64386,-4.583934 0,-1.563469 -1.32491,-2.438067 -2.96763,-2.438067 -2.56976,0 -5.64386,2.173086 -5.64386,4.610753 M 227.3034,23.960143 c 0,1.139179 0.82136,2.411248 2.96763,2.411248 2.75629,0 5.64386,-2.251939 5.64386,-4.584094 0,-1.563389 -1.32491,-2.437827 -2.96763,-2.437827 -2.56976,0 -5.64386,2.172846 -5.64386,4.610673 M 159.74521,20.65076 c 0,1.139419 0.82136,2.411329 2.96763,2.411329 2.75628,0 5.64386,-2.25234 5.64386,-4.584175 0,-1.563389 -1.32491,-2.437827 -2.96763,-2.437827 -2.56976,0 -5.64386,2.172846 -5.64386,4.610673 m 384.88797,59.56865 c 0,1.139179 0.82136,2.411249 2.96762,2.411249 2.75629,0 5.64386,-2.252741 5.64386,-4.584735 0,-1.563469 -1.3249,-2.437667 -2.96763,-2.437667 -2.56975,0 -5.64385,2.172686 -5.64385,4.611153 m 96.33627,90.51789 c -0.875,0 -1.05993,-0.71569 -1.05993,-0.95345 0,-1.29849 4.45104,-3.57765 5.6967,-3.57765 0.63643,0 1.05992,0.37066 1.05992,0.95426 0,1.3249 -4.47826,3.57684 -5.69669,3.57684 m 3.6561,-5.77675 c -2.56976,0 -5.64386,2.14627 -5.64386,4.61115 0,1.13918 0.82136,2.41125 2.96763,2.41125 2.75628,0 5.64465,-2.25274 5.64465,-4.58393 0,-1.56347 -1.3249,-2.43847 -2.96842,-2.43847 M 520.51829,94.622058 c -0.875,0 -1.05993,-0.714889 -1.05993,-0.953452 0,-1.298488 4.45105,-3.577647 5.6967,-3.577647 0.63563,0 1.05992,0.371454 1.05992,0.954253 0,1.324906 -4.47826,3.576846 -5.69669,3.576846 m 3.6561,-5.77595 c -2.56976,0 -5.64386,2.146268 -5.64386,4.610353 0,1.139179 0.82136,2.411248 2.96763,2.411248 2.75628,0 5.64466,-2.251939 5.64466,-4.583934 0,-1.563469 -1.32491,-2.437667 -2.96843,-2.437667 M 307.90651,88.003932 c -0.87499,0 -1.05992,-0.715689 -1.05992,-0.954252 0,-1.298488 4.45184,-3.576846 5.69669,-3.576846 0.63644,0 1.05993,0.370654 1.05993,0.953452 0,1.324906 -4.47826,3.577646 -5.6967,3.577646 m 3.6569,-5.776749 c -2.57055,0 -5.64465,2.146267 -5.64465,4.610352 0,1.139979 0.82136,2.411249 2.96762,2.411249 2.75629,0 5.64466,-2.25194 5.64466,-4.583935 0,-1.563469 -1.3249,-2.437666 -2.96763,-2.437666 m 189.56562,7.919815 c 0,1.139179 0.82136,2.411248 2.96763,2.411248 2.75548,0 5.64386,-2.251939 5.64386,-4.583934 0,-1.563469 -1.32491,-2.437667 -2.96763,-2.437667 -2.57056,0 -5.64386,2.172686 -5.64386,4.610353 M 332.0214,86.837535 c 0,1.139979 0.82136,2.411249 2.96763,2.411249 2.75629,0 5.64466,-2.25194 5.64466,-4.583935 0,-1.563469 -1.3249,-2.437666 -2.96843,-2.437666 -2.56976,0 -5.64386,2.172685 -5.64386,4.610352 m 151.70613,0 c 0,1.139979 0.82136,2.411249 2.96763,2.411249 2.75548,0 5.64386,-2.25194 5.64386,-4.583935 0,-1.563469 -1.32491,-2.437666 -2.96763,-2.437666 -2.57056,0 -5.64386,2.172685 -5.64386,4.610352 M 198.47409,27.269606 c 0,1.139178 0.82136,2.411248 2.96763,2.411248 2.75628,0 5.64466,-2.25274 5.64466,-4.583934 0,-1.563469 -1.32491,-2.438067 -2.96843,-2.438067 -2.56976,0 -5.64386,2.173086 -5.64386,4.610753 m 267.85114,56.258466 c 0,1.13998 0.82136,2.412049 2.96843,2.412049 2.75549,0 5.64386,-2.25274 5.64386,-4.584734 0,-1.563469 -1.3249,-2.437667 -2.96763,-2.437667 -2.57056,0 -5.64466,2.172685 -5.64466,4.610352 m -106.30548,3.309463 c 0,1.139979 0.82136,2.411249 2.96763,2.411249 2.75628,0 5.64385,-2.25194 5.64385,-4.583935 0,-1.563469 -1.3249,-2.437666 -2.96762,-2.437666 -2.56976,0 -5.64386,2.172685 -5.64386,4.610352 m 17.40149,-3.309463 c 0,1.13998 0.82137,2.412049 2.96763,2.412049 2.75629,0 5.64466,-2.25274 5.64466,-4.584734 0,-1.563469 -1.3249,-2.437667 -2.96843,-2.437667 -2.56975,0 -5.64386,2.172685 -5.64386,4.610352 M 179.10965,23.960143 c 0,1.139179 0.82136,2.411248 2.96763,2.411248 2.75628,0 5.64466,-2.251939 5.64466,-4.584094 0,-1.563389 -1.32491,-2.437827 -2.96843,-2.437827 -2.56976,0 -5.64386,2.172846 -5.64386,4.610673 M 438.32769,80.21941 c 0,1.139179 0.82136,2.411249 2.96763,2.411249 2.75548,0 5.64386,-2.252741 5.64386,-4.584735 0,-1.563469 -1.32491,-2.437667 -2.96763,-2.437667 -2.57056,0 -5.64386,2.172686 -5.64386,4.611153 m -43.50495,0 c 0,1.139179 0.82217,2.411249 2.96843,2.411249 2.75549,0 5.64386,-2.252741 5.64386,-4.584735 0,-1.563469 -1.3249,-2.437667 -2.96763,-2.437667 -2.57056,0 -5.64466,2.172686 -5.64466,4.611153 M 440.0953,23.960143 c 0,1.139179 0.82136,2.411248 2.96763,2.411248 2.75548,0 5.64386,-2.251939 5.64386,-4.584094 0,-1.563389 -1.32491,-2.437827 -2.96763,-2.437827 -2.57056,0 -5.64386,2.172846 -5.64386,4.610673 m -77.45776,-6.618686 c 0,1.139419 0.82136,2.411329 2.96763,2.411329 2.75548,0 5.64385,-2.25234 5.64385,-4.584175 0,-1.563388 -1.3249,-2.437826 -2.96762,-2.437826 -2.57056,0 -5.64386,2.172845 -5.64386,4.610672 m 49.58713,59.567673 v 22.053519 h 0.66201 V 76.90913 Z m -17.40159,3.308671 v 22.053519 h 0.66217 V 80.217801 Z M 179.10918,23.959334 v 18.744064 h 0.66217 V 23.959334 Z m 198.31247,59.567922 v 22.053514 h 0.66202 V 83.527256 Z m 88.90391,0 v 22.053514 h 0.66217 V 83.527256 Z m -106.30628,3.309446 v 22.053518 h 0.66218 V 86.836702 Z M 206.41676,4.6458182 V 25.097769 h 0.66201 V 4.6458182 Z M 483.72715,86.836702 v 22.053518 h 0.66202 V 86.836702 Z m 17.40143,3.309455 v 20.398783 h 0.66217 V 90.146157 Z M 332.02186,86.836702 v 22.053518 h 0.66201 V 86.836702 Z m 186.50831,6.618902 v 18.744066 h 0.66201 V 93.455604 Z M 544.6327,80.217801 v 22.053519 h 0.66217 V 80.217801 Z M 227.30307,23.959334 v 18.744064 h 0.66202 V 23.959334 Z m -67.55822,-3.309605 v 20.398946 h 0.66201 V 20.649729 Z m 113.0845,62.877527 v 22.053514 h 0.66202 V 83.527256 Z M 254.61049,4.6458182 V 25.097769 h 0.66202 V 4.6458182 Z M 572.63106,76.90913 v 22.053519 h 0.66218 V 76.90913 Z m 17.40159,3.308671 v 22.053519 h 0.66201 V 80.217801 Z m -345.20166,3.309455 v 22.053514 h 0.66202 V 83.527256 Z m 362.60387,0 v 22.053514 h 0.66217 V 83.527256 Z m -380.0053,3.309446 v 22.053518 h 0.66202 V 86.836702 Z M 273.97499,6.3005432 V 28.407223 H 274.637 V 6.3005432 Z M 626.47194,86.836702 v 22.053518 h 0.66201 V 86.836702 Z m -416.44397,3.309455 v 20.398783 h 0.66202 V 90.146157 Z m 433.8454,-6.618901 v 22.053514 h 0.66217 V 83.527256 Z M 190.9909,86.836702 v 22.053518 h 0.66217 V 86.836702 Z m 470.28405,-6.618901 v 22.053519 h 0.66202 V 80.217801 Z m -487.68626,0 v 22.053519 h 0.66201 V 80.217801 Z M 140.38035,23.959334 v 18.744064 h 0.66202 V 23.959334 Z m 15.80675,59.567922 v 22.053514 h 0.66217 V 83.527256 Z M 49.881766,149.71407 v 22.05352 h 0.662012 V 149.71407 Z M 285.39639,17.340435 v 22.053517 h 0.66201 V 17.340435 Z M 93.917336,153.02352 v 22.05352 h 0.662172 V 153.02352 Z M 128.1889,80.217801 v 22.053519 h 0.66201 V 80.217801 Z m 0.46578,76.115319 v 22.05337 h 0.66217 V 156.33312 Z M 102.0862,76.90913 v 22.053519 h 0.66202 V 76.90913 Z M 128.95895,4.6458182 V 25.097769 h 0.66202 V 4.6458182 Z M 92.626925,75.797122 v 22.106363 h 0.662013 V 75.797122 Z m 68.651785,80.535998 v 22.05337 h 0.66202 V 156.33312 Z M 75.225494,74.142399 v 20.451639 h 0.662021 V 74.142399 Z M 184.43688,153.02352 v 22.05352 h 0.66202 V 153.02352 Z M 49.881766,93.455604 v 18.744066 h 0.662012 V 93.455604 Z M 207.59506,149.71407 v 22.05352 h 0.66218 v -22.05352 z m 23.15834,-3.30867 v 22.05352 h 0.66201 V 146.4054 Z m 23.15896,9.92772 v 22.05337 h 0.66202 V 156.33312 Z M 314.44343,23.959334 v 18.744064 h 0.66202 V 23.959334 Z M 277.07069,153.02352 v 22.05352 h 0.66202 V 153.02352 Z M 668.38701,4.6458182 V 25.097769 h 0.66201 V 4.6458182 Z M 109.59368,6.3005432 V 28.407223 h 0.66202 V 6.3005432 Z m 531.4859,17.6587908 v 18.744064 h 0.66202 V 23.959334 Z M 309.69378,156.33312 v 22.05337 h 0.66202 V 156.33312 Z M 621.7151,20.649729 v 20.398946 h 0.66201 V 20.649729 Z M 332.85195,159.64258 v 20.39863 h 0.66203 V 159.64258 Z M 602.3506,23.959334 v 18.744064 h 0.66202 V 23.959334 Z M 356.01108,162.95203 v 18.74391 h 0.66201 V 162.95203 Z M 590.92841,4.6458182 V 25.097769 h 0.66202 V 4.6458182 Z M 387.1114,143.63882 v 20.45149 h 0.66217 V 143.63882 Z M 571.56393,6.3005432 V 28.407223 h 0.66217 V 6.3005432 Z M 421.84969,145.29354 v 22.10622 h 0.66201 V 145.29354 Z M 343.27268,20.649729 v 20.398946 h 0.66201 V 20.649729 Z M 72.465952,16.228581 v 22.106206 h 0.66202 V 16.228581 Z m 470.268738,0 v 22.106206 h 0.66201 V 16.228581 Z M 454.47277,145.29354 v 22.10622 h 0.66202 V 145.29354 Z M 513.68842,4.6458182 V 25.097769 h 0.66201 V 4.6458182 Z M 469.6888,162.95203 v 18.74391 h 0.66202 v -18.74391 z m 23.15818,-3.30945 v 20.39863 H 493.509 V 159.64258 Z M 476.86637,4.6458182 V 25.097769 h 0.66216 V 4.6458182 Z M 516.00594,156.33312 v 22.05337 h 0.66217 V 156.33312 Z M 362.63717,17.340435 v 22.053517 h 0.66201 V 17.340435 Z M 539.16428,162.95203 v 18.74391 h 0.66201 V 162.95203 Z M 440.09497,23.959334 v 18.744064 h 0.66202 V 23.959334 Z M 562.32245,153.02352 v 22.05352 h 0.66202 V 153.02352 Z M 420.73048,20.649729 v 20.398946 h 0.66201 V 20.649729 Z M 305.91917,86.836702 v 22.053518 h 0.66201 V 86.836702 Z m 95.44682,-69.496267 v 22.053517 h 0.66202 V 17.340435 Z M 602.88785,143.63882 v 20.45149 h 0.66201 V 143.63882 Z M 382.0015,14.031141 v 22.053364 h 0.66217 V 14.031141 Z m 56.32586,66.18666 v 22.053519 h 0.66201 V 80.217801 Z m 208.597,65.075739 v 22.10622 h 0.66202 V 145.29354 Z M 203.97945,87.073696 206.33787,86.59657 v 4.371789 l -2.35842,0.503545 v -4.398208 m 4.10761,-0.822162 c 0.15851,-0.02642 0.2914,-0.211344 0.2914,-0.370653 v -1.563469 c 0,-0.212145 -0.15931,-0.370654 -0.37145,-0.370654 h -0.0528 l -0.8742,0.184927 v -3.947499 h -0.7421 v 4.106808 l -2.35842,0.477126 v -3.736155 h -0.7421 v 3.894663 l -1.03351,0.212145 c -0.15851,0.02642 -0.2914,0.212145 -0.2914,0.371454 v 1.536251 c 0,0.212145 0.15931,0.371454 0.37146,0.371454 h 0.0793 l 0.8742,-0.185727 v 4.37259 l -1.03351,0.211344 c -0.15851,0.02722 -0.2914,0.212145 -0.2914,0.371454 v 1.537051 c 0,0.211344 0.15931,0.370653 0.37146,0.370653 h 0.0793 l 0.8742,-0.185727 v 3.9483 h 0.7421 v -4.106808 l 2.35842,-0.477126 v 3.736154 h 0.7421 V 93.114627 L 208.0872,92.9297 c 0.15851,-0.02642 0.2914,-0.212145 0.2914,-0.371454 v -1.563469 c 0,-0.211344 -0.15931,-0.370653 -0.37145,-0.370653 h -0.0528 l -0.8742,0.185727 v -4.37259 l 1.00709,-0.185727 m 412.33634,-2.4873 2.35841,-0.477127 v 4.37179 l -2.35841,0.503544 v -4.398207 m 4.10761,-0.821362 c 0.1585,-0.02642 0.29139,-0.212145 0.29139,-0.371454 v -1.563469 c 0,-0.211345 -0.1593,-0.370653 -0.37145,-0.370653 h -0.0528 l -0.87419,0.185727 v -3.9483 h -0.74211 v 4.106808 l -2.35841,0.477126 v -3.736154 h -0.74211 v 3.895463 l -1.03351,0.211345 c -0.15851,0.02722 -0.2914,0.212145 -0.2914,0.371454 v 1.537051 c 0,0.211344 0.15931,0.370653 0.37146,0.370653 h 0.0793 l 0.8742,-0.185727 v 4.37259 l -1.03351,0.212145 c -0.15851,0.02642 -0.2914,0.211344 -0.2914,0.370653 v 1.537051 c 0,0.212145 0.15931,0.370654 0.37146,0.370654 h 0.0793 l 0.8742,-0.184927 v 3.947499 h 0.74211 v -4.106808 l 2.35841,-0.477126 v 3.736155 h 0.74211 v -3.894663 l 1.00709,-0.185727 c 0.1585,-0.02642 0.29139,-0.212145 0.29139,-0.371454 v -1.562669 c 0,-0.212145 -0.1593,-0.371454 -0.37145,-0.371454 h -0.0528 l -0.87419,0.185727 v -4.37259 l 1.00709,-0.184926 M 459.45978,9.2458378 V 36.448658 h 1.19112 V 9.2458378 Z M 563.16662,78.742416 v 27.202514 h 1.19128 V 78.742416 Z m -212.61178,0 v 27.202514 h 1.19129 V 78.742416 Z M 217.83847,9.2458378 V 36.448658 h 1.19129 V 9.2458378 Z M 679.80887,78.742416 V 105.94493 H 681 V 78.742416 Z m -2.44933,69.496274 v 27.20266 h 3.64015 v -27.20266 z m -3.63967,0 v 27.20266 h 1.19113 v -27.20266 z m -521.90654,0 v 27.20266 h 1.19129 V 148.23869 Z M 263.36492,78.742416 v 27.202514 h 1.19112 V 78.742416 Z m 36.86442,69.496274 v 27.20266 h 1.19112 V 148.23869 Z M 146.72267,78.742416 v 27.202514 h 1.19127 V 78.742416 Z M 92.187089,9.2458378 V 36.448658 h 1.191126 V 9.2458378 Z m 587.621781,0 V 36.448658 H 681 V 9.2458378 Z M 437.06603,148.23869 v 27.20266 h 1.19128 V 148.23869 Z M 333.80824,9.2458378 V 36.448658 h 1.19113 V 9.2458378 Z M 585.4811,148.23869 v 27.20266 h 1.19128 V 148.23869 Z M 554.15734,9.2458378 V 36.448658 h 1.19112 V 9.2458378 Z M 456.86112,78.742416 v 27.202514 h 1.19129 V 78.742416 Z M 0,174.7132 v 0.72768 h 681 v -0.72768 z m 0,-6.61812 v 0.72768 h 681 v -0.72768 z m 0,-6.6189 v 0.72768 h 681 v -0.72768 z m 0,-6.6189 v 0.72768 h 681 v -0.72768 z m 0,-6.61891 v 0.72769 h 681 v -0.72769 z m 0,-43.02144 v 0.72769 h 681 v -0.72769 z m 0,-6.618121 v 0.727681 h 681 v -0.727681 z m 0,-6.618902 v 0.727682 h 681 v -0.727682 z m 0,-6.619054 v 0.727842 h 681 v -0.727842 z m 0,-6.618901 v 0.727681 H 681 V 78.741952 Z M 0,35.720656 v 0.727689 h 681 v -0.727689 z m 0,-6.618269 v 0.727841 h 681 v -0.727841 z m 0,-6.61906 v 0.727685 h 681 v -0.727685 z m 0,-6.618588 v 0.727684 H 681 V 15.864739 Z M 0,9.2459947 V 9.9736795 H 681 V 9.2459947 Z"
     style="stroke-width:0.0800547" />
  <metadata
     id="metadata202">
    <rdf:RDF>
      <cc:Work
         rdf:about="">
        <dc:title>air_XXXII</dc:title>
      </cc:Work>
    </rdf:RDF>
  </metadata>
</svg>
