<?xml version="1.0" encoding="UTF-8" standalone="no"?>
<svg
   width="681"
   height="116.60989"
   version="1.2"
   id="svg141"
   xmlns="http://www.w3.org/2000/svg"
   xmlns:svg="http://www.w3.org/2000/svg"
   xmlns:rdf="http://www.w3.org/1999/02/22-rdf-syntax-ns#"
   xmlns:cc="http://creativecommons.org/ns#"
   xmlns:dc="http://purl.org/dc/elements/1.1/">
  <defs
     id="defs141" />
  <title
     id="title1">air_XXXIII</title>
  <desc
     id="desc1">Generated by MuseScore Studio 4.7.3</desc>
  <path
     id="path141"
     class="NoteDot"
     d="m 636.75456,95.653163 c 0,0.741306 0.5828,1.324906 1.32491,1.324906 0.74211,0 1.32491,-0.5836 1.32491,-1.324906 0,-0.742108 -0.5828,-1.324906 -1.32491,-1.324906 -0.74211,0 -1.32491,0.582798 -1.32491,1.324906 M 285.43195,89.034237 c 0,0.742107 0.5828,1.324906 1.3249,1.324906 0.74211,0 1.32491,-0.582799 1.32491,-1.324906 0,-0.742107 -0.5828,-1.324906 -1.32491,-1.324906 -0.7421,0 -1.3249,0.582799 -1.3249,1.324906 M 564.5652,26.156845 c 0,0.741307 0.5828,1.324906 1.32491,1.324906 0.74211,0 1.32491,-0.583599 1.32491,-1.324906 0,-0.742108 -0.5828,-1.324906 -1.32491,-1.324906 -0.74211,0 -1.32491,0.582798 -1.32491,1.324906 m -351.7373,13.225843 13.93113,-1.654732 v 3.332679 l -13.93113,1.653931 v -3.331878 m 146.93407,-1.654732 13.93113,1.654732 v 3.331878 l -13.93113,-1.653931 v -3.332679 m -120.39592,0 13.93113,1.654732 v 3.331878 L 239.36605,41.060635 V 37.727956 M 394.24235,6.28886 408.17347,7.9435114 V 11.27611 L 394.24235,9.6214586 V 6.28886 m 163.99453,66.190057 15.97492,1.654732 v 3.327075 L 558.23688,75.805992 V 72.478917 M 494.73426,9.5981627 508.66538,7.9435114 V 11.27611 l -13.93112,1.654731 V 9.5981627 M 45.09402,32.792582 v 1.96054 h -2.199104 c -0.185727,0 -0.370653,0.159309 -0.370653,0.370654 v 0.503544 c 0,0.212145 0.184926,0.371454 0.370653,0.371454 h 8.02869 c 0.212145,0 0.371454,-0.159309 0.371454,-0.371454 v -0.503544 c 0,-0.211345 -0.159309,-0.370654 -0.371454,-0.370654 h -2.384831 v -1.96054 h 2.384831 c 0.212145,0 0.371454,-0.185727 0.371454,-0.397872 v -0.503544 c 0,-0.184927 -0.159309,-0.370654 -0.371454,-0.370654 h -2.384831 v -4.213281 c 0,-0.159309 -0.07925,-0.291399 -0.184926,-0.344235 l -0.317817,-0.159309 c -0.05364,-0.02642 -0.08006,-0.02642 -0.132891,-0.02642 -0.105672,0 -0.212145,0 -0.291399,0.07925 l -2.411249,2.199904 c -0.07925,0.07925 -0.106473,0.184927 -0.106473,0.2914 v 2.172685 h -3.073301 c 0,0 2.967629,-3.179774 6.094567,-7.366637 0.105672,-0.13209 0.13209,-0.264981 0.13209,-0.370653 0,-0.132891 -0.05284,-0.238563 -0.07925,-0.264981 l -0.582798,-0.583279 c -0.07926,-0.053 -0.159309,-0.105993 -0.264982,-0.105993 -0.159309,0 -3.736154,0 -3.948299,0 -0.185727,0 -0.317818,0.158989 -0.344236,0.317978 0,0 -0.132891,1.961181 -0.821361,4.107448 -0.689272,2.146268 -1.484215,3.471174 -2.173486,4.451844 0,0 -0.07926,0.13209 -0.07926,0.291399 0,0.05284 0,0.105673 0.02642,0.158509 0.07925,0.185727 0.264981,0.477126 0.264981,0.477126 0,0 0.05284,0.159309 0.291399,0.159309 h 4.557516 m 2.741074,-16.829988 c 2.11985,-0.821441 2.25194,-2.199343 2.25194,-2.67631 v -0.13249 c 0,-0.238483 -0.07925,-3.2327705 -4.63677,-3.2327705 -4.558317,0 -4.425426,3.2327705 -4.425426,3.2327705 h 0.02642 l -0.02642,0.053 c 0,0.953932 0.768525,1.69588 1.721977,1.69588 0.954253,0 1.69636,-0.741948 1.69636,-1.69588 0,-0.768445 -0.582798,-1.510393 -1.324906,-1.669381 l 0.07925,-0.07949 c 0.370654,-0.264981 0.874198,-0.397471 1.377742,-0.397471 1.112761,0 2.305577,0.662452 2.305577,2.093351 0,1.669381 -1.245652,1.907864 -1.563469,1.960861 -0.317817,0.053 -1.802032,0.158988 -2.11985,0.158988 -0.317817,0 -0.344235,0.370974 -0.344235,0.370974 v 0.529962 c 0,0 0.05284,0.29148 0.344235,0.317978 0.450709,0.0265 1.059925,0.0265 1.907705,0.158988 1.166397,0.158989 1.775614,0.953933 1.775614,2.808801 0,1.775374 -1.192816,2.25234 -2.305577,2.25234 -0.742107,0 -1.430578,-0.211985 -1.721977,-0.42397 0.874198,-0.053 1.589887,-0.821442 1.589887,-1.695879 0,-0.953933 -0.742107,-1.722378 -1.69636,-1.722378 -0.953452,0 -1.721977,0.768445 -1.721977,1.722378 0,2.172845 1.986958,3.259268 3.948299,3.259268 2.543339,0 5.299624,-0.874438 5.299624,-3.762733 0,-1.934362 -1.324906,-2.755804 -2.491303,-3.126778 h 0.05364 M 28.940575,7.64899 31.298988,7.1720239 v 4.3721891 l -2.358413,0.503465 V 7.64899 m 4.107609,-0.8214417 c 0.159309,-0.026498 0.291399,-0.2119849 0.291399,-0.3709736 v -1.563389 c 0,-0.2119849 -0.159309,-0.3709736 -0.370653,-0.3709736 H 32.91529 L 32.041095,4.7076989 V 0.75947929 H 31.298988 V 4.8666876 L 28.940575,5.3436537 V 1.6074191 h -0.741307 v 3.8952233 l -1.033506,0.211985 c -0.159309,0.026498 -0.2914,0.2119849 -0.2914,0.3709736 v 1.5368909 c 0,0.2119849 0.158509,0.3709736 0.370654,0.3709736 h 0.07925 l 0.874998,-0.1854868 v 4.3721893 l -1.033506,0.211985 c -0.159309,0.0265 -0.2914,0.211985 -0.2914,0.370974 v 1.536891 c 0,0.211985 0.158509,0.370973 0.370654,0.370973 h 0.07925 l 0.874998,-0.185487 v 3.94822 h 0.741307 V 14.326516 L 31.29898,13.84955 v 3.736234 h 0.742107 v -3.895223 l 1.007089,-0.185487 c 0.159309,-0.0265 0.291399,-0.211985 0.291399,-0.370974 v -1.563389 c 0,-0.211984 -0.159309,-0.370973 -0.370653,-0.370973 h -0.05364 l -0.874198,0.185487 V 7.0130351 l 1.007089,-0.1854868 m -4.107609,70.3177597 2.358413,-0.477126 v 4.372589 l -2.358413,0.503545 v -4.399008 m 4.107609,-0.821362 c 0.159309,-0.02642 0.291399,-0.212145 0.291399,-0.371454 v -1.562668 c 0,-0.212145 -0.159309,-0.371454 -0.370653,-0.371454 h -0.05364 l -0.874198,0.185727 v -3.9483 h -0.742107 v 4.106808 l -2.358413,0.477126 v -3.736154 h -0.741307 v 3.895463 l -1.033506,0.212145 c -0.159309,0.02642 -0.2914,0.211345 -0.2914,0.370654 v 1.537051 c 0,0.212145 0.158509,0.370653 0.370654,0.370653 h 0.07925 l 0.874998,-0.184926 v 4.371789 l -1.033506,0.212145 c -0.159309,0.02642 -0.2914,0.212145 -0.2914,0.370654 v 1.53705 c 0,0.212146 0.158509,0.370654 0.370654,0.370654 h 0.07925 l 0.874998,-0.184927 v 3.9483 h 0.741307 v -4.107608 l 2.358413,-0.477127 v 3.736155 h 0.742107 v -3.894663 l 1.007089,-0.185727 c 0.159309,-0.02642 0.291399,-0.212145 0.291399,-0.370653 v -1.56347 c 0,-0.212145 -0.159309,-0.371453 -0.370653,-0.371453 h -0.05364 l -0.874198,0.185726 v -4.371789 l 1.007089,-0.185727 M 16.093311,34.924439 c -0.529962,0.106473 -1.033427,0.159309 -1.536891,0.159309 -3.789231,0 -7.0220012,-2.649811 -7.0220012,-6.650947 0,-3.233411 2.2788382,-6.121386 4.6106722,-8.135243 0.450468,-0.397471 0.874438,-0.768445 1.27191,-1.165917 0.238483,1.430899 0.42397,2.67631 0.609457,3.762733 -2.411329,0.715129 -4.0542123,3.259268 -4.0542123,5.749771 0,1.854869 1.4573963,4.399008 3.5772463,4.399008 0.211985,0 0.450468,-0.105672 0.450468,-0.344235 0,-0.238563 -0.264982,-0.371454 -0.582959,-0.582799 -1.033427,-0.636435 -1.616385,-1.324906 -1.616385,-2.623393 0,-1.616306 1.192415,-2.914793 2.755804,-3.286247 l 1.536891,8.71796 M 13.761477,7.6844542 c 0.238483,-1.0599247 1.457396,-3.8422271 2.835298,-3.8422271 0.397472,0 1.033427,1.2984078 1.033427,3.1267779 0,2.7558043 -2.040355,4.822658 -3.868725,6.62453 -0.158989,-1.059925 -0.29148,-2.093352 -0.29148,-3.206273 0,-0.9804301 0.0795,-1.8813661 0.29148,-2.7028078 m 6.094567,22.3382338 c 0,1.881286 -0.768446,3.815409 -2.649812,4.583934 -0.556461,-3.179774 -1.27191,-7.393055 -1.457397,-8.558652 2.384831,0 4.107209,1.616305 4.107209,3.974718 M 8.1968718,43.059602 c 0,1.748395 1.351404,4.053972 4.9286502,4.053972 1.245411,0 2.331834,-0.317818 3.285766,-0.900616 1.430899,-1.007089 1.801872,-2.756285 1.801872,-4.425426 0,-1.033507 -0.158988,-2.225522 -0.423969,-3.736154 -0.07949,-0.529963 -0.238484,-1.324906 -0.397472,-2.358413 2.596815,-0.84778 4.531178,-3.550428 4.531178,-6.280294 0,-4.001136 -2.835299,-6.703784 -6.704024,-6.703784 -0.264981,-1.589887 -0.529962,-3.153276 -0.768445,-4.637171 2.8088,-2.941291 4.743163,-6.253555 4.743163,-10.4667561 0,-2.4113288 -0.741948,-4.3721895 -1.165917,-5.3261218 C 17.391719,0.92743413 16.623273,0 16.146307,0 15.96082,0 15.139379,0.31797742 14.264941,1.351404 c -1.69588,2.013857 -2.172846,5.4056161 -2.172846,7.631458 0,1.430898 0.132491,2.729306 0.582959,5.697095 -0.0265,0.0265 -1.404401,1.430899 -1.960861,1.881367 -2.4113287,2.25234 -5.7500916,5.458612 -5.7500916,10.757915 0,4.955389 4.3191932,8.850852 9.2478436,8.850852 0.768445,0 1.483894,-0.07925 2.093351,-0.185727 0.503464,2.54414 0.794943,4.399008 0.794943,5.803168 0,2.755484 -1.4044,4.213281 -4.08071,4.213281 -0.635955,0 -1.192415,-0.132891 -1.245411,-0.132891 -0.0265,-0.02642 -0.07949,-0.05284 -0.07949,-0.07925 0,-0.05284 0.053,-0.07925 0.132491,-0.105672 1.245412,-0.185727 2.490823,-1.245652 2.490823,-2.941211 0,-1.431379 -1.086423,-2.941211 -3.073782,-2.941211 -1.8548679,0 -3.0472832,1.509832 -3.0472832,3.259028 m 7.8964392,61.361154 c -0.529962,0.10647 -1.033427,0.15931 -1.536891,0.15931 -3.789231,0 -7.0220012,-2.64982 -7.0220012,-6.650947 0,-3.233411 2.2788382,-6.120985 4.6106722,-8.135163 0.450468,-0.397872 0.874438,-0.768525 1.27191,-1.165597 0.238483,1.430579 0.42397,2.67623 0.609457,3.762573 -2.411329,0.714889 -4.0542123,3.259028 -4.0542123,5.749531 0,1.854869 1.4573963,4.399003 3.5772463,4.399003 0.211985,0 0.450468,-0.10567 0.450468,-0.34423 0,-0.23857 -0.264982,-0.37146 -0.582959,-0.5828 -1.033427,-0.63644 -1.616385,-1.32491 -1.616385,-2.623392 0,-1.616306 1.192415,-2.914793 2.755804,-3.286247 l 1.536891,8.717959 M 13.761477,77.180532 c 0.238483,-1.059925 1.457396,-3.841827 2.835298,-3.841827 0.397472,0 1.033427,1.298488 1.033427,3.126938 0,2.755484 -2.040355,4.822498 -3.868725,6.62453 -0.158989,-1.059925 -0.29148,-2.093432 -0.29148,-3.206193 0,-0.98067 0.0795,-1.882086 0.29148,-2.703448 m 6.094567,22.338474 c 0,1.881284 -0.768446,3.815404 -2.649812,4.583934 -0.556461,-3.17977 -1.27191,-7.393055 -1.457397,-8.558652 2.384831,0 4.107209,1.616305 4.107209,3.974718 M 8.1968718,112.55592 c 0,1.7484 1.351404,4.05397 4.9286502,4.05397 1.245411,0 2.331834,-0.31782 3.285766,-0.90061 1.430899,-1.00709 1.801872,-2.75629 1.801872,-4.42543 0,-1.03351 -0.158988,-2.22552 -0.423969,-3.73615 -0.07949,-0.52997 -0.238484,-1.32491 -0.397472,-2.35842 2.596815,-0.84778 4.531178,-3.55042 4.531178,-6.280291 0,-4.001136 -2.835299,-6.703784 -6.704024,-6.703784 -0.264981,-1.589887 -0.529962,-3.153356 -0.768445,-4.63677 2.8088,-2.942012 4.743163,-6.253876 4.743163,-10.467157 0,-2.411249 -0.741948,-4.371789 -1.165917,-5.326042 -0.635955,-1.351324 -1.404401,-2.279158 -1.881367,-2.279158 -0.185487,0 -1.006928,0.318618 -1.881366,1.351324 -1.69588,2.014177 -2.172846,5.406096 -2.172846,7.631618 0,1.431379 0.132491,2.729866 0.582959,5.697495 -0.0265,0.02642 -1.404401,1.430579 -1.960861,1.881287 -2.4113287,2.25194 -5.7500916,5.458132 -5.7500916,10.757755 0,4.955393 4.3191932,8.850853 9.2478436,8.850853 0.768445,0 1.483894,-0.0793 2.093351,-0.18573 0.503464,2.54414 0.794943,4.39901 0.794943,5.80317 0,2.75548 -1.4044,4.21328 -4.08071,4.21328 -0.635955,0 -1.192415,-0.13289 -1.245411,-0.13289 -0.0265,-0.0264 -0.07949,-0.0528 -0.07949,-0.0793 0,-0.0528 0.053,-0.0793 0.132491,-0.10568 1.245412,-0.18572 2.490823,-1.24565 2.490823,-2.94121 0,-1.43138 -1.086423,-2.94121 -3.073782,-2.94121 -1.8548679,0 -3.0472832,1.50983 -3.0472832,3.25903 M 72.851399,93.456461 c 0,1.139179 0.821362,2.411248 2.967629,2.411248 2.755484,0 5.643856,-2.251939 5.643856,-4.583934 0,-1.563469 -1.324906,-2.437667 -2.967626,-2.437667 -2.570557,0 -5.643859,2.172686 -5.643859,4.610353 M 64.523305,17.341457 c 0,1.139419 0.821361,2.411329 2.967629,2.411329 2.756285,0 5.644659,-2.25234 5.644659,-4.584175 0,-1.563388 -1.324905,-2.437826 -2.967629,-2.437826 -2.570557,0 -5.644659,2.172845 -5.644659,4.610672 m 275.334655,0 c 0,1.139419 0.82136,2.411329 2.96763,2.411329 2.75548,0 5.64386,-2.25234 5.64386,-4.584175 0,-1.563388 -1.32491,-2.437826 -2.96763,-2.437826 -2.57056,0 -5.64386,2.172845 -5.64386,4.610672 m 178.00251,72.805541 c 0,1.139179 0.82136,2.411248 2.96763,2.411248 2.75628,0 5.64386,-2.251939 5.64386,-4.583934 0,-1.563469 -1.32491,-2.437667 -2.96763,-2.437667 -2.56976,0 -5.64386,2.172686 -5.64386,4.610353 M 429.55449,21.816677 c -0.8742,0 -1.05992,-0.715449 -1.05992,-0.953932 0,-1.298408 4.45184,-3.577246 5.69749,-3.577246 0.63564,0 1.05993,0.370974 1.05993,0.953932 0,1.324906 -4.47827,3.577246 -5.6975,3.577246 m 3.6569,-5.77659 c -2.57056,0 -5.64386,2.146348 -5.64386,4.610673 0,1.139419 0.82136,2.411329 2.96763,2.411329 2.75549,0 5.64386,-2.25234 5.64386,-4.584175 0,-1.563389 -1.32491,-2.437827 -2.96763,-2.437827 m 52.18208,91.819823 c -0.8742,0 -1.05992,-0.71569 -1.05992,-0.95425 0,-1.29849 4.45184,-3.57685 5.69669,-3.57685 0.63644,0 1.05993,0.37065 1.05993,0.95345 0,1.32491 -4.47827,3.57765 -5.6967,3.57765 m 3.6569,-5.77675 c -2.57056,0 -5.64466,2.14627 -5.64466,4.61035 0,1.13998 0.82136,2.41205 2.96843,2.41205 2.75549,0 5.64386,-2.25274 5.64386,-4.58473 0,-1.56347 -1.32491,-2.43767 -2.96763,-2.43767 M 457.42315,37.197193 c 0,1.13998 0.82136,2.41205 2.96763,2.41205 2.75628,0 5.64385,-2.252741 5.64385,-4.584735 0,-1.563469 -1.3249,-2.437667 -2.96763,-2.437667 -2.56975,0 -5.64385,2.172686 -5.64385,4.610352 M 84.427311,30.579068 c 0,1.139179 0.821362,2.411249 2.967629,2.411249 2.756285,0 5.643859,-2.25274 5.643859,-4.583934 0,-1.563469 -1.324906,-2.438468 -2.967629,-2.438468 -2.569757,0 -5.643859,2.173487 -5.643859,4.611153 M 310.48908,17.341457 c 0,1.139419 0.82136,2.411329 2.96763,2.411329 2.75628,0 5.64466,-2.25234 5.64466,-4.584175 0,-1.563388 -1.32491,-2.437826 -2.96763,-2.437826 -2.57056,0 -5.64466,2.172845 -5.64466,4.610672 m 140.48245,86.043393 c 0,1.13918 0.82137,2.41125 2.96763,2.41125 2.75629,0 5.64466,-2.25274 5.64466,-4.58474 0,-1.562665 -1.3249,-2.437664 -2.96843,-2.437664 -2.56975,0 -5.64386,2.172684 -5.64386,4.611154 m 35.8205,-69.496319 c 0,1.139179 0.82136,2.411249 2.96763,2.411249 2.75548,0 5.64385,-2.25274 5.64385,-4.584735 0,-1.563469 -1.3249,-2.437667 -2.96762,-2.437667 -2.57056,0 -5.64386,2.172686 -5.64386,4.611153 m -58.7898,66.186859 c 0,1.13918 0.82136,2.41124 2.96763,2.41124 2.75548,0 5.64386,-2.25274 5.64386,-4.583929 0,-1.563469 -1.32491,-2.438468 -2.96763,-2.438468 -2.57056,0 -5.64386,2.173487 -5.64386,4.611157 m 122.29242,-6.618929 c 0,1.139179 0.82136,2.411248 2.96763,2.411248 2.75628,0 5.64466,-2.251939 5.64466,-4.583934 0,-1.563469 -1.32491,-2.437667 -2.96843,-2.437667 -2.56976,0 -5.64386,2.172686 -5.64386,4.610353 M 405.03212,86.837535 c 0,1.139979 0.82217,2.411249 2.96843,2.411249 2.75549,0 5.64386,-2.25194 5.64386,-4.583935 0,-1.563469 -1.3249,-2.437666 -2.96763,-2.437666 -2.57055,0 -5.64466,2.172685 -5.64466,4.610352 M 500.0611,30.579068 c 0,1.139179 0.82136,2.411249 2.96763,2.411249 2.75548,0 5.64386,-2.25274 5.64386,-4.583934 0,-1.563469 -1.32491,-2.438468 -2.96763,-2.438468 -2.57056,0 -5.64386,2.173487 -5.64386,4.611153 m -395.72978,0 c 0,1.139179 0.82136,2.411249 2.96763,2.411249 2.75548,0 5.64386,-2.25274 5.64386,-4.583934 0,-1.563469 -1.32491,-2.438468 -2.96763,-2.438468 -2.57056,0 -5.64386,2.173487 -5.64386,4.611153 m 410.98581,1.165597 c -0.8742,0 -1.05992,-0.715689 -1.05992,-0.953452 0,-1.298487 4.45184,-3.577646 5.69749,-3.577646 0.63564,0 1.05993,0.370654 1.05993,0.954253 0,1.324906 -4.47827,3.576845 -5.6975,3.576845 m 3.6569,-5.77675 c -2.56976,0 -5.64386,2.146268 -5.64386,4.611153 0,1.139179 0.82136,2.411249 2.96763,2.411249 2.75629,0 5.64386,-2.25274 5.64386,-4.583934 0,-1.563469 -1.32491,-2.438468 -2.96763,-2.438468 M 372.59795,96.765923 c 0,1.139179 0.82136,2.411249 2.96763,2.411249 2.75628,0 5.64466,-2.25274 5.64466,-4.583934 0,-1.563469 -1.32491,-2.438467 -2.96763,-2.438467 -2.57056,0 -5.64466,2.173486 -5.64466,4.611152 M 282.62123,15.197992 c -0.875,0 -1.05993,-0.71545 -1.05993,-0.953933 0,-1.298407 4.45104,-3.577246 5.6967,-3.577246 0.63563,0 1.05992,0.370974 1.05992,0.953933 0,1.324906 -4.47826,3.577246 -5.69669,3.577246 m 3.6561,-5.7765901 c -2.56976,0 -5.64386,2.1463471 -5.64386,4.6106721 0,1.139419 0.82136,2.411329 2.96763,2.411329 2.75628,0 5.64466,-2.25234 5.64466,-4.584174 0,-1.563389 -1.32491,-2.4378271 -2.96843,-2.4378271 m 63.35131,80.7255961 c 0,1.139179 0.82136,2.411248 2.96763,2.411248 2.75548,0 5.64386,-2.251939 5.64386,-4.583934 0,-1.563469 -1.32491,-2.437667 -2.96763,-2.437667 -2.57056,0 -5.64386,2.172686 -5.64386,4.610353 M 554.63762,28.435202 c -0.8742,0 -1.05993,-0.714888 -1.05993,-0.953451 0,-1.298488 4.45185,-3.577647 5.6975,-3.577647 0.63563,0 1.05992,0.371454 1.05992,0.954253 0,1.324906 -4.47826,3.576845 -5.69749,3.576845 m 3.6569,-5.776349 c -2.57056,0 -5.64386,2.146668 -5.64386,4.610753 0,1.139178 0.82136,2.411248 2.96763,2.411248 2.75548,0 5.64386,-2.25274 5.64386,-4.583934 0,-1.563469 -1.32491,-2.438067 -2.96763,-2.438067 M 326.65934,83.528072 c 0,1.13998 0.82136,2.412049 2.96763,2.412049 2.75548,0 5.64385,-2.25274 5.64385,-4.584734 0,-1.563469 -1.3249,-2.437667 -2.96762,-2.437667 -2.57056,0 -5.64386,2.172685 -5.64386,4.610352 m 238.94818,13.237851 c 0,1.139179 0.82136,2.411249 2.96843,2.411249 2.75548,0 5.64386,-2.25274 5.64386,-4.583934 0,-1.563469 -1.32491,-2.438467 -2.96763,-2.438467 -2.57056,0 -5.64466,2.173486 -5.64466,4.611152 M 135.68716,25.12574 c -0.8742,0 -1.05992,-0.714889 -1.05992,-0.953452 0,-1.298568 4.45184,-3.577406 5.69669,-3.577406 0.63644,0 1.05992,0.370973 1.05992,0.953932 0,1.324906 -4.47826,3.576926 -5.69669,3.576926 m 3.6569,-5.77627 c -2.57056,0 -5.64466,2.146348 -5.64466,4.610673 0,1.139179 0.82136,2.411248 2.96843,2.411248 2.75548,0 5.64386,-2.251939 5.64386,-4.584094 0,-1.563389 -1.32491,-2.437827 -2.96763,-2.437827 m 113.29106,4.610673 c 0,1.139179 0.82136,2.411248 2.96843,2.411248 2.75549,0 5.64386,-2.251939 5.64386,-4.584094 0,-1.563389 -1.3249,-2.437827 -2.96763,-2.437827 -2.57056,0 -5.64466,2.172846 -5.64466,4.610673 m 133.665,3.309463 c 0,1.139178 0.82136,2.411248 2.96762,2.411248 2.75629,0 5.64386,-2.25274 5.64386,-4.583934 0,-1.563469 -1.3249,-2.438067 -2.96763,-2.438067 -2.56975,0 -5.64385,2.173086 -5.64385,4.610753 M 275.50436,94.622058 c -0.8742,0 -1.05993,-0.714889 -1.05993,-0.953452 0,-1.298488 4.45185,-3.577647 5.6975,-3.577647 0.63563,0 1.05993,0.371454 1.05993,0.954253 0,1.324906 -4.47827,3.576846 -5.6975,3.576846 m 3.6569,-5.77595 c -2.56976,0 -5.64386,2.146268 -5.64386,4.610353 0,1.139179 0.82136,2.411248 2.96763,2.411248 2.75628,0 5.64386,-2.251939 5.64386,-4.583934 0,-1.563469 -1.32491,-2.437667 -2.96763,-2.437667 m 303.74689,9.085412 c -0.8742,0 -1.05993,-0.714888 -1.05993,-0.953451 0,-1.298488 4.45185,-3.577647 5.6975,-3.577647 0.63563,0 1.05992,0.371454 1.05992,0.954253 0,1.324906 -4.47826,3.576845 -5.69749,3.576845 m 3.6569,-5.776749 c -2.57056,0 -5.64386,2.147068 -5.64386,4.611152 0,1.139179 0.82136,2.411249 2.96763,2.411249 2.75548,0 5.64386,-2.25274 5.64386,-4.583934 0,-1.563469 -1.32491,-2.438467 -2.96763,-2.438467 M 163.55501,30.579068 c 0,1.139179 0.82217,2.411249 2.96843,2.411249 2.75549,0 5.64386,-2.25274 5.64386,-4.583934 0,-1.563469 -1.3249,-2.438468 -2.96763,-2.438468 -2.57055,0 -5.64466,2.173487 -5.64466,4.611153 m 75.81104,-13.237611 c 0,1.139419 0.82136,2.411329 2.96763,2.411329 2.75628,0 5.64466,-2.25234 5.64466,-4.584175 0,-1.563388 -1.32491,-2.437826 -2.96843,-2.437826 -2.56976,0 -5.64386,2.172845 -5.64386,4.610672 m -7.78052,80.590063 c -0.8742,0 -1.05992,-0.714888 -1.05992,-0.953451 0,-1.298488 4.45184,-3.577647 5.69749,-3.577647 0.63564,0 1.05993,0.371454 1.05993,0.954253 0,1.324906 -4.47827,3.576845 -5.6975,3.576845 m 3.6569,-5.776749 c -2.57056,0 -5.64386,2.147068 -5.64386,4.611152 0,1.139179 0.82136,2.411249 2.96763,2.411249 2.75548,0 5.64386,-2.25274 5.64386,-4.583934 0,-1.563469 -1.32491,-2.438467 -2.96763,-2.438467 m 404.75835,-58.26624 c 0,1.139179 0.82217,2.411249 2.96843,2.411249 2.75549,0 5.64386,-2.25274 5.64386,-4.584735 0,-1.563469 -1.3249,-2.437667 -2.96763,-2.437667 -2.57056,0 -5.64466,2.172686 -5.64466,4.611153 M 206.62847,100.07539 c 0,1.13918 0.82136,2.41124 2.96762,2.41124 2.75629,0 5.64466,-2.25274 5.64466,-4.583929 0,-1.563469 -1.3249,-2.438468 -2.96843,-2.438468 -2.56975,0 -5.64385,2.173487 -5.64385,4.611157 M 659.90479,30.579068 c 0,1.139179 0.82136,2.411249 2.96763,2.411249 2.75629,0 5.64466,-2.25274 5.64466,-4.583934 0,-1.563469 -1.32491,-2.438468 -2.96843,-2.438468 -2.56976,0 -5.64386,2.173487 -5.64386,4.611153 M 192.9239,27.269606 c 0,1.139178 0.82136,2.411248 2.96762,2.411248 2.75629,0 5.64466,-2.25274 5.64466,-4.583934 0,-1.563469 -1.3249,-2.438067 -2.96843,-2.438067 -2.56975,0 -5.64385,2.173086 -5.64385,4.610753 m 33.17308,-6.618846 c 0,1.139419 0.82136,2.411329 2.96763,2.411329 2.75628,0 5.64386,-2.25234 5.64386,-4.584175 0,-1.563389 -1.32491,-2.437827 -2.96763,-2.437827 -2.56976,0 -5.64386,2.172846 -5.64386,4.610673 m -51.90269,82.73409 c 0,1.13918 0.82136,2.41125 2.96763,2.41125 2.75628,0 5.64386,-2.25274 5.64386,-4.58474 0,-1.562665 -1.32491,-2.437664 -2.96763,-2.437664 -2.56976,0 -5.64386,2.172684 -5.64386,4.611154 M 373.03104,23.960143 c 0,1.139179 0.82136,2.411248 2.96763,2.411248 2.75549,0 5.64386,-2.251939 5.64386,-4.584094 0,-1.563389 -1.3249,-2.437827 -2.96763,-2.437827 -2.57056,0 -5.64386,2.172846 -5.64386,4.610673 M 151.22498,86.837535 c 0,1.139979 0.82137,2.411249 2.96763,2.411249 2.75549,0 5.64386,-2.25194 5.64386,-4.583935 0,-1.563469 -1.3249,-2.437666 -2.96763,-2.437666 -2.57055,0 -5.64386,2.172685 -5.64386,4.610352 m 475.6028,14.403445 c -0.875,0 -1.05993,-0.71569 -1.05993,-0.95345 0,-1.298486 4.45104,-3.577645 5.6967,-3.577645 0.63563,0 1.05992,0.370654 1.05992,0.954253 0,1.324906 -4.47826,3.576842 -5.69669,3.576842 m 3.6561,-5.776747 c -2.56976,0 -5.64386,2.146268 -5.64386,4.611157 0,1.13918 0.82136,2.41124 2.96763,2.41124 2.75628,0 5.64466,-2.25274 5.64466,-4.583929 0,-1.563469 -1.32491,-2.438468 -2.96843,-2.438468 m -502.229,1.30169 c 0,1.139179 0.82136,2.411249 2.96763,2.411249 2.75628,0 5.64466,-2.25274 5.64466,-4.583934 0,-1.563469 -1.32491,-2.438467 -2.96763,-2.438467 -2.57056,0 -5.64466,2.173486 -5.64466,4.611152 m -78.373587,0 c 0,1.139179 0.821362,2.411249 2.96763,2.411249 2.756284,0 5.644659,-2.25274 5.644659,-4.583934 0,-1.563469 -1.324906,-2.438467 -2.967629,-2.438467 -2.570558,0 -5.64466,2.173486 -5.64466,4.611152 M 212.8279,23.960143 c 0,1.139179 0.82137,2.411248 2.96763,2.411248 2.75549,0 5.64386,-2.251939 5.64386,-4.584094 0,-1.563389 -1.3249,-2.437827 -2.96763,-2.437827 -2.57055,0 -5.64386,2.172846 -5.64386,4.610673 m 407.26967,-6.618686 c 0,1.139419 0.82137,2.411329 2.96763,2.411329 2.75549,0 5.64386,-2.25234 5.64386,-4.584175 0,-1.563388 -1.3249,-2.437826 -2.96763,-2.437826 -2.57055,0 -5.64386,2.172845 -5.64386,4.610672 M 95.820701,90.146998 c 0,1.139179 0.821362,2.411248 2.967629,2.411248 2.75628,0 5.64466,-2.251939 5.64466,-4.583934 0,-1.563469 -1.32491,-2.437667 -2.96843,-2.437667 -2.569757,0 -5.643859,2.172686 -5.643859,4.610353 M 399.56919,30.579068 c 0,1.139179 0.82136,2.411249 2.96763,2.411249 2.75628,0 5.64466,-2.25274 5.64466,-4.583934 0,-1.563469 -1.32491,-2.438468 -2.96843,-2.438468 -2.56976,0 -5.64386,2.173487 -5.64386,4.611153 M 359.76197,20.65076 c 0,1.139419 0.82136,2.411329 2.96763,2.411329 2.75548,0 5.64386,-2.25234 5.64386,-4.584175 0,-1.563389 -1.32491,-2.437827 -2.96763,-2.437827 -2.57056,0 -5.64386,2.172846 -5.64386,4.610673 M 95.820357,90.146157 V 110.54494 H 96.48237 V 90.146157 Z M 136.19749,74.142399 v 20.451639 h 0.66202 V 74.142399 Z m -78.373582,0 v 20.451639 h 0.662021 V 74.142399 Z m 93.400742,12.694303 v 22.053518 h 0.66201 V 86.836702 Z m 30.91223,-7.73091 v 22.107148 h 0.66216 V 79.105792 Z m 43.95974,-58.456063 v 18.783465 h 0.66202 V 20.649729 Z m -13.26908,3.309605 v 17.050098 h 0.66202 V 23.959334 Z m 26.53893,-6.618899 v 22.092759 h 0.66202 V 17.340435 Z m -24.79539,58.456687 v 22.106363 h 0.66202 V 75.797122 Z M 667.84741,6.3005432 V 28.407223 h 0.66203 V 6.3005432 Z M 237.54039,74.142399 v 20.451639 h 0.66201 V 74.142399 Z M 647.94334,9.6098371 V 31.71667 h 0.66217 V 9.6098371 Z M 200.86656,4.6458182 V 25.097769 h 0.66201 V 4.6458182 Z m 72.65046,88.8097858 v 18.744066 h 0.66201 V 93.455604 Z m -20.88147,-69.49627 v 17.050098 h 0.66201 V 23.959334 Z M 171.49757,6.3005432 V 28.407223 h 0.66217 V 6.3005432 Z m 109.13556,7.7305978 v 22.053364 h 0.66201 V 14.031141 Z m 46.02585,69.496115 v 22.053514 h 0.66201 V 83.527256 Z m 22.96929,6.618901 v 20.398783 h 0.66202 V 90.146157 Z M 560.5933,4.6458182 V 25.097769 h 0.66202 V 4.6458182 Z M 380.54051,74.142399 v 20.451639 h 0.66216 V 74.142399 Z M 310.48948,17.340435 v 22.053517 h 0.66201 V 17.340435 Z m -176.78963,6.618899 v 18.744064 h 0.66202 V 23.959334 Z M 521.27282,6.3005432 V 28.407223 h 0.66202 V 6.3005432 Z M 405.03256,86.836702 v 22.053518 h 0.66202 V 86.836702 Z M 508.00297,9.6490823 V 28.407223 h 0.66201 V 9.6490823 Z M 435.94401,75.797122 v 22.106363 h 0.66217 V 75.797122 Z m 22.97008,3.30867 v 22.107148 h 0.66217 V 79.105792 Z M 494.7339,11.22516 v 20.49151 h 0.66201 V 11.22516 Z M 112.27317,6.3005432 V 28.407223 h 0.66202 V 6.3005432 Z M 339.85753,17.340435 v 22.053517 h 0.66201 V 17.340435 Z M 491.3483,82.415239 v 22.106371 h 0.66217 V 82.415239 Z M 465.36585,12.919131 V 35.02534 h 0.66201 V 12.919131 Z m 52.49417,77.227026 v 20.398783 h 0.66217 V 90.146157 Z M 427.56719,20.649729 v 20.398946 h 0.66201 V 20.649729 Z M 92.36987,6.3005432 V 28.407223 h 0.662172 V 6.3005432 Z M 359.76161,20.649729 v 18.783465 h 0.66201 V 20.649729 Z m 198.47571,53.526285 v 17.108578 h 0.66201 V 74.176014 Z M 407.51176,9.5705911 V 28.407223 h 0.66217 V 9.5705911 Z M 573.55013,75.762723 v 18.831315 h 0.66201 V 75.762723 Z m 15.31282,-1.620324 v 20.451639 h 0.66216 V 74.142399 Z M 394.24268,7.9943573 V 25.097769 h 0.66218 V 7.9943573 Z M 64.523649,17.340435 v 22.053517 h 0.662173 V 17.340435 Z m 308.507031,6.618899 v 17.050098 h 0.66202 V 23.959334 Z m 259.75198,51.837788 v 22.106363 h 0.66202 V 75.797122 Z M 72.851063,93.455604 v 18.744066 h 0.662013 V 93.455604 Z M 620.09711,17.340435 v 22.053517 h 0.66217 V 17.340435 Z M 149.22515,75.60387 c -4.69691,0.129825 -9.00406,3.349658 -10.20947,8.56179 a 0.16531304,0.16531304 0 0 0 0.008,0.01329 0.16531304,0.16531304 0 0 0 0.0902,0.176993 0.16531304,0.16531304 0 0 0 0.0161,-0.0067 0.16531304,0.16531304 0 0 0 0.009,0.0147 0.16531304,0.16531304 0 0 0 0.17591,-0.09225 0.16531304,0.16531304 0 0 0 0.0144,-0.0061 c 1.17516,-2.871419 3.78168,-5.134462 6.81248,-6.361381 3.03079,-1.226919 6.47744,-1.414255 9.31855,-0.168708 a 0.16532957,0.16532957 0 0 0 0.15605,-0.290198 c -2.04132,-1.320991 -4.25675,-1.900427 -6.39172,-1.841411 z m 0.005,0.320995 c 1.53802,-0.04027 3.11967,0.267143 4.64645,0.952532 -2.54057,-0.605823 -5.33935,-0.299205 -7.85787,0.720332 -2.51837,1.019481 -4.74247,2.746062 -6.14655,4.948544 1.62221,-4.065084 5.33599,-6.516088 9.35797,-6.621408 z m -10.05297,8.278069 c 1.72998,-7.480315 9.90517,-10.789778 16.35038,-6.618926 -5.78316,-2.535334 -13.95835,0.774129 -16.35038,6.618926 m 525.1325,-46.725765 a 0.16532957,0.16532957 0 0 0 -0.22327,0.01767 c -2.31462,2.504096 -5.93951,3.906479 -9.63612,4.115318 -3.69662,0.208839 -7.45649,-0.776283 -10.03859,-3.003462 a 0.16531304,0.16531304 0 0 0 -0.19856,0 0.16531304,0.16531304 0 0 0 -0.0156,-0.0014 0.16531304,0.16531304 0 0 0 -0.007,0.0125 0.16531304,0.16531304 0 0 0 -0.0123,0.0062 0.16531304,0.16531304 0 0 0 0.001,0.01532 0.16531304,0.16531304 0 0 0 -0.003,0.19888 c 5.42039,6.460529 15.51096,5.890779 20.16848,-1.139684 a 0.16532957,0.16532957 0 0 0 -0.0358,-0.221247 z m -1.35045,1.470854 c -4.48486,5.018711 -12.24115,5.456827 -17.26337,0.975819 2.50848,1.527925 5.6603,2.192235 8.77303,2.016379 3.11297,-0.175865 6.16999,-1.191063 8.49034,-2.992198 z m -18.6555,-0.21618 c 5.24758,4.526295 15.19999,3.96431 19.904,-1.124769 -4.59914,6.942347 -14.55155,7.504331 -19.904,1.124769 M 70.277743,81.220206 c -0.807776,-0.01088 -1.609644,0.07685 -2.389137,0.259866 -3.117972,0.732068 -5.878572,2.986722 -7.239638,6.501789 a 0.16531304,0.16531304 0 0 0 0.0013,0.05097 0.16531304,0.16531304 0 0 0 0.0014,0.06145 0.16531304,0.16531304 0 0 0 0.03722,0.04925 0.16531304,0.16531304 0 0 0 0.03064,0.04065 0.16531304,0.16531304 0 0 0 0.0092,-0.0023 0.16531304,0.16531304 0 0 0 0.0147,0.01392 0.16531304,0.16531304 0 0 0 0.09835,-0.04347 0.16531304,0.16531304 0 0 0 0.103975,-0.02705 c 1.512402,-2.577122 4.286995,-4.348413 7.315161,-5.059395 3.028167,-0.710982 6.300997,-0.359622 8.802267,1.2754 a 0.16532957,0.16532957 0 0 0 0.201858,-0.26033 C 75.17783,82.17417 72.701112,81.252876 70.277807,81.22023 Z m -0.0046,0.329754 c 1.802129,0.02344 3.630827,0.574048 5.3055,1.662857 -2.283497,-0.928131 -4.917755,-1.05003 -7.393487,-0.468753 -2.476053,0.58135 -4.780877,1.863138 -6.412825,3.710817 1.455131,-2.46611 3.699473,-4.067677 6.19189,-4.652869 0.753355,-0.176881 1.528116,-0.262203 2.308922,-0.252052 z m -9.470019,6.491598 C 63.48816,81.107217 71.66335,79.187504 77.153504,84.202934 72.05882,80.872656 63.88363,82.792369 60.803124,88.041558 M 615.37513,78.742416 v 27.202514 h 1.19129 V 78.742416 Z m -496.58516,0 v 27.202514 h 1.19128 V 78.742416 Z M 679.80887,9.2458378 V 36.448658 H 681 V 9.2458378 Z M 611.82552,26.156845 c 0,-0.768526 -0.60922,-1.404961 -1.37774,-1.404961 -0.76853,0 -1.37775,0.636435 -1.37775,1.404961 0,0.768525 0.60922,1.40416 1.37775,1.40416 0.76852,0 1.37774,-0.635635 1.37774,-1.40416 m 0,-6.619006 c 0,-0.768445 -0.60922,-1.4044 -1.37774,-1.4044 -0.76853,0 -1.37775,0.635955 -1.37775,1.4044 0,0.768445 0.60922,1.4044 1.37775,1.4044 0.76852,0 1.37774,-0.635955 1.37774,-1.4044 M 605.4299,9.2458378 V 36.448658 h 1.19128 V 9.2458378 Z m -6.08933,0 V 36.448658 h 3.64015 V 9.2458378 Z m -328.17204,0 V 36.448658 h 1.19129 V 9.2458378 Z m 328.17204,0 V 36.448658 h 3.64015 V 9.2458378 Z m -3.63967,0 V 36.448658 h 1.19128 V 9.2458378 Z m -2.44728,16.9110072 c 0,-0.768526 -0.60922,-1.404961 -1.37774,-1.404961 -0.76853,0 -1.37774,0.636435 -1.37774,1.404961 0,0.768525 0.60921,1.40416 1.37774,1.40416 0.76852,0 1.37774,-0.635635 1.37774,-1.40416 m 0,-6.619006 c 0,-0.768445 -0.60922,-1.4044 -1.37774,-1.4044 -0.76853,0 -1.37774,0.635955 -1.37774,1.4044 0,0.768445 0.60921,1.4044 1.37774,1.4044 0.76852,0 1.37774,-0.635955 1.37774,-1.4044 M 543.18577,9.2458378 V 36.448658 h 1.19129 V 9.2458378 Z m -212.79268,0 V 36.448658 h 1.19129 V 9.2458378 Z m 146.93406,0 V 36.448658 h 1.19128 V 9.2458378 Z M 264.05257,78.742416 v 27.202514 h 1.19113 V 78.742416 Z M 183.45903,9.2458378 V 36.448658 h 1.19128 V 9.2458378 Z M 317.19454,78.742416 v 27.202514 h 1.19112 V 78.742416 Z m 78.37358,0 v 27.202514 h 1.19113 V 78.742416 Z M 124.23526,9.2458378 V 36.448658 h 1.19128 V 9.2458378 Z M 473.94171,78.742416 v 27.202514 h 1.19113 V 78.742416 Z m 66.88808,0 v 27.202514 h 1.19113 V 78.742416 Z m -343.66624,0 v 27.202514 h 1.19129 V 78.742416 Z m 480.19599,0 v 27.202514 h 3.64015 V 78.742416 Z m -3.63967,0 V 105.94493 H 674.911 V 78.742416 Z m -2.44731,16.910747 c 0,-0.768526 -0.60921,-1.404961 -1.37774,-1.404961 -0.76852,0 -1.37774,0.636435 -1.37774,1.404961 0,0.768525 0.60922,1.40416 1.37774,1.40416 0.76853,0 1.37774,-0.635635 1.37774,-1.40416 m 0,-6.618926 c 0,-0.768526 -0.60921,-1.40416 -1.37774,-1.40416 -0.76852,0 -1.37774,0.635634 -1.37774,1.40416 0,0.768525 0.60922,1.40416 1.37774,1.40416 0.76853,0 1.37774,-0.635635 1.37774,-1.40416 M 418.10259,9.2458378 V 36.448658 h 1.19129 V 9.2458378 Z M 0,105.21693 v 0.72769 h 681 v -0.72769 z m 0,-6.618121 v 0.727681 h 681 v -0.727681 z m 0,-6.618902 v 0.727682 h 681 v -0.727682 z m 0,-6.619054 v 0.727842 h 681 v -0.727842 z m 0,-6.618901 v 0.727681 H 681 V 78.741952 Z M 0,35.720656 v 0.727689 h 681 v -0.727689 z m 0,-6.618269 v 0.727841 h 681 v -0.727841 z m 0,-6.61906 v 0.727685 h 681 v -0.727685 z m 0,-6.618588 v 0.727684 H 681 V 15.864739 Z M 0,9.2459947 V 9.9736795 H 681 V 9.2459947 Z"
     style="stroke-width:0.0800547" />
  <metadata
     id="metadata141">
    <rdf:RDF>
      <cc:Work
         rdf:about="">
        <dc:title>air_XXXIII</dc:title>
      </cc:Work>
    </rdf:RDF>
  </metadata>
</svg>
