<?xml version="1.0" encoding="UTF-8" standalone="no"?>
<svg width="210.058mm" height="296.926mm" viewBox="0 0 9924 14028"
 xmlns="http://www.w3.org/2000/svg" xmlns:xlink="http://www.w3.org/1999/xlink" version="1.2" baseProfile="full">
<title>air_XIII</title>
<desc>Generated by MuseScore Studio 4.7.3</desc>
<polyline class="StaffLines" fill="none" stroke="#000000" stroke-width="9.09" stroke-linejoin="bevel" points="708.661,828.424 9215.34,828.424" />
<polyline class="StaffLines" fill="none" stroke="#000000" stroke-width="9.09" stroke-linejoin="bevel" points="708.661,911.101 9215.34,911.101" />
<polyline class="StaffLines" fill="none" stroke="#000000" stroke-width="9.09" stroke-linejoin="bevel" points="708.661,993.778 9215.34,993.778" />
<polyline class="StaffLines" fill="none" stroke="#000000" stroke-width="9.09" stroke-linejoin="bevel" points="708.661,1076.46 9215.34,1076.46" />
<polyline class="StaffLines" fill="none" stroke="#000000" stroke-width="9.09" stroke-linejoin="bevel" points="708.661,1159.13 9215.34,1159.13" />
<polyline class="StaffLines" fill="none" stroke="#000000" stroke-width="9.09" stroke-linejoin="bevel" points="708.661,1696.53 9215.34,1696.53" />
<polyline class="StaffLines" fill="none" stroke="#000000" stroke-width="9.09" stroke-linejoin="bevel" points="708.661,1779.21 9215.34,1779.21" />
<polyline class="StaffLines" fill="none" stroke="#000000" stroke-width="9.09" stroke-linejoin="bevel" points="708.661,1861.89 9215.34,1861.89" />
<polyline class="StaffLines" fill="none" stroke="#000000" stroke-width="9.09" stroke-linejoin="bevel" points="708.661,1944.57 9215.34,1944.57" />
<polyline class="StaffLines" fill="none" stroke="#000000" stroke-width="9.09" stroke-linejoin="bevel" points="708.661,2027.24 9215.34,2027.24" />
<polyline class="StaffLines" fill="none" stroke="#000000" stroke-width="9.09" stroke-linejoin="bevel" points="708.661,2564.64 9215.34,2564.64" />
<polyline class="StaffLines" fill="none" stroke="#000000" stroke-width="9.09" stroke-linejoin="bevel" points="708.661,2647.32 9215.34,2647.32" />
<polyline class="StaffLines" fill="none" stroke="#000000" stroke-width="9.09" stroke-linejoin="bevel" points="708.661,2730 9215.34,2730" />
<polyline class="StaffLines" fill="none" stroke="#000000" stroke-width="9.09" stroke-linejoin="bevel" points="708.661,2812.68 9215.34,2812.68" />
<polyline class="StaffLines" fill="none" stroke="#000000" stroke-width="9.09" stroke-linejoin="bevel" points="708.661,2895.35 9215.34,2895.35" />
<polyline class="BarLine" fill="none" stroke="#000000" stroke-width="14.88" stroke-linejoin="bevel" points="4933.73,823.876 4933.73,1163.68" />
<polyline class="BarLine" fill="none" stroke="#000000" stroke-width="14.88" stroke-linejoin="bevel" points="7018.15,1691.99 7018.15,2031.79" />
<polyline class="BarLine" fill="none" stroke="#000000" stroke-width="45.47" stroke-linejoin="bevel" points="7997.32,1691.99 7997.32,2031.79" />
<polyline class="BarLine" fill="none" stroke="#000000" stroke-width="14.88" stroke-linejoin="bevel" points="8058.09,1691.99 8058.09,2031.79" />
<path class="BarLine" d="M8130.54,1820.55 C8130.54,1810.95 8122.93,1803.01 8113.33,1803.01 C8103.73,1803.01 8096.12,1810.95 8096.12,1820.55 C8096.12,1830.15 8103.73,1838.09 8113.33,1838.09 C8122.93,1838.09 8130.54,1830.15 8130.54,1820.55"/>
<path class="BarLine" d="M8130.54,1903.23 C8130.54,1893.63 8122.93,1885.68 8113.33,1885.68 C8103.73,1885.68 8096.12,1893.63 8096.12,1903.23 C8096.12,1912.83 8103.73,1920.77 8113.33,1920.77 C8122.93,1920.77 8130.54,1912.83 8130.54,1903.23"/>
<polyline class="BarLine" fill="none" stroke="#000000" stroke-width="14.88" stroke-linejoin="bevel" points="5933.32,1691.99 5933.32,2031.79" />
<path class="BarLine" d="M9093.83,2688.66 C9093.83,2679.06 9086.22,2671.12 9076.62,2671.12 C9067.02,2671.12 9059.41,2679.06 9059.41,2688.66 C9059.41,2698.26 9067.02,2706.2 9076.62,2706.2 C9086.22,2706.2 9093.83,2698.26 9093.83,2688.66"/>
<path class="BarLine" d="M9093.83,2771.34 C9093.83,2761.74 9086.22,2753.79 9076.62,2753.79 C9067.02,2753.79 9059.41,2761.74 9059.41,2771.34 C9059.41,2780.94 9067.02,2788.88 9076.62,2788.88 C9086.22,2788.88 9093.83,2780.94 9093.83,2771.34"/>
<polyline class="BarLine" fill="none" stroke="#000000" stroke-width="14.88" stroke-linejoin="bevel" points="9131.84,2560.1 9131.84,2899.9" />
<polyline class="BarLine" fill="none" stroke="#000000" stroke-width="45.47" stroke-linejoin="bevel" points="9192.6,2560.1 9192.6,2899.9" />
<polyline class="BarLine" fill="none" stroke="#000000" stroke-width="14.88" stroke-linejoin="bevel" points="9207.9,1691.99 9207.9,2031.79" />
<polyline class="BarLine" fill="none" stroke="#000000" stroke-width="14.88" stroke-linejoin="bevel" points="4655.19,1691.99 4655.19,2031.79" />
<polyline class="BarLine" fill="none" stroke="#000000" stroke-width="14.88" stroke-linejoin="bevel" points="8265.31,2560.1 8265.31,2899.9" />
<polyline class="BarLine" fill="none" stroke="#000000" stroke-width="14.88" stroke-linejoin="bevel" points="3570.36,1691.99 3570.36,2031.79" />
<polyline class="BarLine" fill="none" stroke="#000000" stroke-width="14.88" stroke-linejoin="bevel" points="2485.54,1691.99 2485.54,2031.79" />
<polyline class="BarLine" fill="none" stroke="#000000" stroke-width="14.88" stroke-linejoin="bevel" points="2704.31,823.876 2704.31,1163.68" />
<polyline class="BarLine" fill="none" stroke="#000000" stroke-width="14.88" stroke-linejoin="bevel" points="2643.25,2560.1 2643.25,2899.9" />
<polyline class="BarLine" fill="none" stroke="#000000" stroke-width="14.88" stroke-linejoin="bevel" points="9207.9,823.876 9207.9,1163.68" />
<polyline class="BarLine" fill="none" stroke="#000000" stroke-width="14.88" stroke-linejoin="bevel" points="3659.86,2560.1 3659.86,2899.9" />
<path class="BarLine" d="M7898.55,1820.55 C7898.55,1810.95 7890.94,1803.01 7881.34,1803.01 C7871.74,1803.01 7864.13,1810.95 7864.13,1820.55 C7864.13,1830.15 7871.74,1838.09 7881.34,1838.09 C7890.94,1838.09 7898.55,1830.15 7898.55,1820.55"/>
<path class="BarLine" d="M7898.55,1903.23 C7898.55,1893.63 7890.94,1885.68 7881.34,1885.68 C7871.74,1885.68 7864.13,1893.63 7864.13,1903.23 C7864.13,1912.83 7871.74,1920.77 7881.34,1920.77 C7890.94,1920.77 7898.55,1912.83 7898.55,1903.23"/>
<polyline class="BarLine" fill="none" stroke="#000000" stroke-width="14.88" stroke-linejoin="bevel" points="7936.56,1691.99 7936.56,2031.79" />
<polyline class="BarLine" fill="none" stroke="#000000" stroke-width="45.47" stroke-linejoin="bevel" points="7997.32,1691.99 7997.32,2031.79" />
<polyline class="BarLine" fill="none" stroke="#000000" stroke-width="14.88" stroke-linejoin="bevel" points="7960.33,823.876 7960.33,1163.68" />
<polyline class="BarLine" fill="none" stroke="#000000" stroke-width="14.88" stroke-linejoin="bevel" points="3819.02,823.876 3819.02,1163.68" />
<polyline class="BarLine" fill="none" stroke="#000000" stroke-width="14.88" stroke-linejoin="bevel" points="4796.25,2560.1 4796.25,2899.9" />
<polyline class="BarLine" fill="none" stroke="#000000" stroke-width="14.88" stroke-linejoin="bevel" points="5812.86,2560.1 5812.86,2899.9" />
<polyline class="BarLine" fill="none" stroke="#000000" stroke-width="14.88" stroke-linejoin="bevel" points="7248.71,2560.1 7248.71,2899.9" />
<polyline class="BarLine" fill="none" stroke="#000000" stroke-width="14.88" stroke-linejoin="bevel" points="6380.59,823.876 6380.59,1163.68" />
<path class="Accidental" d="M5076.38,1894 L5076.38,1839.71 L5114.78,1828.79 L5114.78,1883.4 L5076.38,1894 M5122.06,1801.32 C5121.4,1800.65 5120.41,1800.32 5119.41,1800.32 C5119.08,1800.32 5118.42,1800.65 5118.09,1800.65 L5076.38,1812.24 L5076.38,1754.31 L5067.11,1754.31 L5067.11,1918.16 C5067.11,1920.81 5069.1,1922.46 5071.75,1922.46 L5073.07,1922.46 L5114.78,1910.88 L5114.78,1968.8 L5123.72,1968.8 L5123.72,1804.96 C5123.72,1803.63 5123.05,1801.98 5122.06,1801.32"/>
<path class="Accidental" d="M6354.52,1894 L6354.52,1839.71 L6392.92,1828.79 L6392.92,1883.4 L6354.52,1894 M6400.2,1801.32 C6399.54,1800.65 6398.54,1800.32 6397.55,1800.32 C6397.22,1800.32 6396.56,1800.65 6396.23,1800.65 L6354.52,1812.24 L6354.52,1754.31 L6345.25,1754.31 L6345.25,1918.16 C6345.25,1920.81 6347.24,1922.46 6349.89,1922.46 L6351.21,1922.46 L6392.92,1910.88 L6392.92,1968.8 L6401.85,1968.8 L6401.85,1804.96 C6401.85,1803.63 6401.19,1801.98 6400.2,1801.32"/>
<polyline class="LedgerLine" fill="none" stroke="#000000" stroke-width="13.23" stroke-linejoin="bevel" points="2249.18,2978.03 2411.24,2978.03" />
<polyline class="Stem" fill="none" stroke="#000000" stroke-width="8.27" stroke-linejoin="bevel" points="7105.04,2840.79 7105.04,2584.97" />
<polyline class="Stem" fill="none" stroke="#000000" stroke-width="8.27" stroke-linejoin="bevel" points="8174.46,1063.23 8174.46,828.736" />
<polyline class="Stem" fill="none" stroke="#000000" stroke-width="8.27" stroke-linejoin="bevel" points="4113.56,2840.79 4113.56,2584.97" />
<polyline class="Stem" fill="none" stroke="#000000" stroke-width="8.27" stroke-linejoin="bevel" points="4353.13,2799.45 4353.13,2523.31" />
<polyline class="Stem" fill="none" stroke="#000000" stroke-width="8.27" stroke-linejoin="bevel" points="7524.78,1021.89 7524.78,786.773" />
<polyline class="Stem" fill="none" stroke="#000000" stroke-width="8.27" stroke-linejoin="bevel" points="3417.12,842.313 3417.12,1117.79" />
<polyline class="Stem" fill="none" stroke="#000000" stroke-width="8.27" stroke-linejoin="bevel" points="3873.99,2799.45 3873.99,2564.99" />
<polyline class="Stem" fill="none" stroke="#000000" stroke-width="8.27" stroke-linejoin="bevel" points="7159.84,1007.67 7159.84,1220.83" />
<polyline class="Stem" fill="none" stroke="#000000" stroke-width="8.27" stroke-linejoin="bevel" points="8440.19,1104.57 8440.19,848.781" />
<polyline class="Stem" fill="none" stroke="#000000" stroke-width="8.27" stroke-linejoin="bevel" points="7462.84,2799.45 7462.84,2523.31" />
<polyline class="Stem" fill="none" stroke="#000000" stroke-width="8.27" stroke-linejoin="bevel" points="8705.92,1063.23 8705.92,787.085" />
<polyline class="Stem" fill="none" stroke="#000000" stroke-width="8.27" stroke-linejoin="bevel" points="3396.41,2758.11 3396.41,2502.64" />
<polyline class="Stem" fill="none" stroke="#000000" stroke-width="8.27" stroke-linejoin="bevel" points="2819.23,966.329 2819.23,1221.14" />
<polyline class="Stem" fill="none" stroke="#000000" stroke-width="8.27" stroke-linejoin="bevel" points="4911.17,2702.55 4911.17,2957.36" />
<polyline class="Stem" fill="none" stroke="#000000" stroke-width="8.27" stroke-linejoin="bevel" points="2857.39,2799.45 2857.39,2523.31" />
<polyline class="Stem" fill="none" stroke="#000000" stroke-width="8.27" stroke-linejoin="bevel" points="5450.2,2661.21 5450.2,2936.69" />
<polyline class="Stem" fill="none" stroke="#000000" stroke-width="8.27" stroke-linejoin="bevel" points="1421.54,1972.68 1421.54,1696.53" />
<polyline class="Stem" fill="none" stroke="#000000" stroke-width="8.27" stroke-linejoin="bevel" points="6894.11,966.329 6894.11,1200.78" />
<polyline class="Stem" fill="none" stroke="#000000" stroke-width="8.27" stroke-linejoin="bevel" points="1808.18,1890 1808.18,1634.53" />
<polyline class="Stem" fill="none" stroke="#000000" stroke-width="8.27" stroke-linejoin="bevel" points="3933.94,966.329 3933.94,1221.14" />
<polyline class="Stem" fill="none" stroke="#000000" stroke-width="8.27" stroke-linejoin="bevel" points="2095.6,1875.78 2095.6,2109.92" />
<polyline class="Stem" fill="none" stroke="#000000" stroke-width="8.27" stroke-linejoin="bevel" points="2379.81,2964.8 2379.81,2688.66" />
<polyline class="Stem" fill="none" stroke="#000000" stroke-width="8.27" stroke-linejoin="bevel" points="7822.19,2799.45 7822.19,2523.31" />
<polyline class="Stem" fill="none" stroke="#000000" stroke-width="8.27" stroke-linejoin="bevel" points="6495.52,1007.67 6495.52,1241.81" />
<polyline class="Stem" fill="none" stroke="#000000" stroke-width="8.27" stroke-linejoin="bevel" points="2600.47,1834.44 2600.47,2089.25" />
<polyline class="Stem" fill="none" stroke="#000000" stroke-width="8.27" stroke-linejoin="bevel" points="2140.24,2923.46 2140.24,2667.65" />
<polyline class="Stem" fill="none" stroke="#000000" stroke-width="8.27" stroke-linejoin="bevel" points="3180.42,1710.42 3180.42,1985.9" />
<polyline class="Stem" fill="none" stroke="#000000" stroke-width="8.27" stroke-linejoin="bevel" points="1900.67,2882.12 1900.67,2647.67" />
<polyline class="Stem" fill="none" stroke="#000000" stroke-width="8.27" stroke-linejoin="bevel" points="2302.41,1007.67 2302.41,1241.81" />
<polyline class="Stem" fill="none" stroke="#000000" stroke-width="8.27" stroke-linejoin="bevel" points="4531.83,1007.67 4531.83,1241.81" />
<polyline class="Stem" fill="none" stroke="#000000" stroke-width="8.27" stroke-linejoin="bevel" points="3685.29,1834.44 3685.29,2089.25" />
<polyline class="Stem" fill="none" stroke="#000000" stroke-width="8.27" stroke-linejoin="bevel" points="1661.11,2840.79 1661.11,2584.97" />
<polyline class="Stem" fill="none" stroke="#000000" stroke-width="8.27" stroke-linejoin="bevel" points="4265.24,1875.78 4265.24,2109.92" />
<polyline class="Stem" fill="none" stroke="#000000" stroke-width="8.27" stroke-linejoin="bevel" points="1421.54,2799.45 1421.54,2564.99" />
<polyline class="Stem" fill="none" stroke="#000000" stroke-width="8.27" stroke-linejoin="bevel" points="2003.03,1021.89 2003.03,766.416" />
<polyline class="Stem" fill="none" stroke="#000000" stroke-width="8.27" stroke-linejoin="bevel" points="6077.91,1104.57 6077.91,828.424" />
<polyline class="Stem" fill="none" stroke="#000000" stroke-width="8.27" stroke-linejoin="bevel" points="4869.32,1890 4869.32,1634.53" />
<polyline class="Stem" fill="none" stroke="#000000" stroke-width="8.27" stroke-linejoin="bevel" points="5927.78,2702.55 5927.78,2957.36" />
<polyline class="Stem" fill="none" stroke="#000000" stroke-width="8.27" stroke-linejoin="bevel" points="5156.74,1875.78 5156.74,2109.92" />
<polyline class="Stem" fill="none" stroke="#000000" stroke-width="8.27" stroke-linejoin="bevel" points="5812.18,1021.89 5812.18,808.066" />
<polyline class="Stem" fill="none" stroke="#000000" stroke-width="8.27" stroke-linejoin="bevel" points="6386.34,2716.77 6386.34,2502.98" />
<polyline class="Stem" fill="none" stroke="#000000" stroke-width="8.27" stroke-linejoin="bevel" points="1604.44,1104.57 1604.44,828.424" />
<polyline class="Stem" fill="none" stroke="#000000" stroke-width="8.27" stroke-linejoin="bevel" points="8917.17,1890 8917.17,1634.53" />
<polyline class="Stem" fill="none" stroke="#000000" stroke-width="8.27" stroke-linejoin="bevel" points="8479.45,2840.79 8479.45,2564.64" />
<polyline class="Stem" fill="none" stroke="#000000" stroke-width="8.27" stroke-linejoin="bevel" points="6625.91,2758.11 6625.91,2522.96" />
<polyline class="Stem" fill="none" stroke="#000000" stroke-width="8.27" stroke-linejoin="bevel" points="6048.25,1793.1 6048.25,2068.58" />
<polyline class="Stem" fill="none" stroke="#000000" stroke-width="8.27" stroke-linejoin="bevel" points="8337.21,1931.34 8337.21,1655.2" />
<polyline class="Stem" fill="none" stroke="#000000" stroke-width="8.27" stroke-linejoin="bevel" points="6434.88,1875.78 6434.88,2109.92" />
<polyline class="Stem" fill="none" stroke="#000000" stroke-width="8.27" stroke-linejoin="bevel" points="5543.38,1834.44 5543.38,2089.25" />
<polyline class="Stem" fill="none" stroke="#000000" stroke-width="8.27" stroke-linejoin="bevel" points="5546.45,1063.23 5546.45,828.112" />
<polyline class="Stem" fill="none" stroke="#000000" stroke-width="8.27" stroke-linejoin="bevel" points="6865.48,2799.45 6865.48,2564.99" />
<polyline class="Stem" fill="none" stroke="#000000" stroke-width="8.27" stroke-linejoin="bevel" points="5147.86,1021.89 5147.86,766.416" />
<polyline class="Stem" fill="none" stroke="#000000" stroke-width="8.27" stroke-linejoin="bevel" points="7133.07,1834.44 7133.07,2089.25" />
<polyline class="Stem" fill="none" stroke="#000000" stroke-width="8.27" stroke-linejoin="bevel" points="7790.51,980.55 7790.51,766.728" />
<path class="Note" d="M8400.92,2882.48 C8390,2882.48 8387.68,2873.54 8387.68,2870.56 C8387.68,2854.35 8443.29,2825.88 8458.85,2825.88 C8466.79,2825.88 8472.09,2830.51 8472.09,2837.8 C8472.09,2854.35 8416.15,2882.48 8400.92,2882.48 M8446.6,2810.32 C8414.49,2810.32 8376.1,2837.13 8376.1,2867.92 C8376.1,2882.15 8386.36,2898.04 8413.17,2898.04 C8447.59,2898.04 8483.67,2869.9 8483.67,2840.77 C8483.67,2821.25 8467.12,2810.32 8446.6,2810.32"/>
<path class="Note" d="M5443.11,1090.36 C5443.11,1104.59 5453.37,1120.48 5480.18,1120.48 C5514.6,1120.48 5550.68,1092.34 5550.68,1063.22 C5550.68,1043.69 5534.13,1032.76 5513.61,1032.76 C5481.5,1032.76 5443.11,1059.91 5443.11,1090.36"/>
<path class="Note" d="M7153.76,1849.02 C7142.83,1849.02 7140.52,1840.08 7140.52,1837.1 C7140.52,1820.88 7196.13,1792.41 7211.68,1792.41 C7219.63,1792.41 7224.92,1797.05 7224.92,1804.33 C7224.92,1820.88 7168.98,1849.02 7153.76,1849.02 M7199.44,1776.86 C7167.33,1776.86 7128.93,1803.67 7128.93,1834.45 C7128.93,1848.68 7139.19,1864.57 7166,1864.57 C7200.43,1864.57 7236.51,1836.44 7236.51,1807.31 C7236.51,1787.78 7219.96,1776.86 7199.44,1776.86"/>
<path class="Note" d="M6455.57,1890.35 C6444.65,1890.35 6442.33,1881.42 6442.33,1878.44 C6442.33,1862.22 6497.94,1833.75 6513.5,1833.75 C6521.44,1833.75 6526.74,1838.39 6526.74,1845.67 C6526.74,1862.22 6470.8,1890.35 6455.57,1890.35 M6501.25,1818.2 C6469.15,1818.2 6430.75,1845.01 6430.75,1875.79 C6430.75,1890.02 6441.01,1905.91 6467.82,1905.91 C6502.25,1905.91 6538.32,1877.78 6538.32,1848.65 C6538.32,1829.12 6521.77,1818.2 6501.25,1818.2"/>
<path class="Note" d="M6044.11,1793.11 C6044.11,1807.35 6054.37,1823.23 6081.18,1823.23 C6115.61,1823.23 6151.69,1795.1 6151.69,1765.97 C6151.69,1746.44 6135.14,1735.52 6114.62,1735.52 C6082.51,1735.52 6044.11,1762.66 6044.11,1793.11"/>
<path class="Note" d="M8258.69,1973.03 C8247.77,1973.03 8245.45,1964.09 8245.45,1961.12 C8245.45,1944.9 8301.06,1916.43 8316.62,1916.43 C8324.56,1916.43 8329.86,1921.06 8329.86,1928.35 C8329.86,1944.9 8273.92,1973.03 8258.69,1973.03 M8304.37,1900.87 C8272.26,1900.87 8233.87,1927.68 8233.87,1958.47 C8233.87,1972.7 8244.13,1988.59 8270.94,1988.59 C8305.36,1988.59 8341.44,1960.45 8341.44,1931.33 C8341.44,1911.8 8324.89,1900.87 8304.37,1900.87"/>
<path class="Note" d="M1501.09,1131.7 C1501.09,1145.93 1511.35,1161.82 1538.16,1161.82 C1572.59,1161.82 1608.67,1133.68 1608.67,1104.55 C1608.67,1085.02 1592.12,1074.1 1571.59,1074.1 C1539.49,1074.1 1501.09,1101.24 1501.09,1131.7"/>
<path class="Note" d="M8813.82,1917.13 C8813.82,1931.36 8824.08,1947.25 8850.89,1947.25 C8885.32,1947.25 8921.4,1919.11 8921.4,1889.99 C8921.4,1870.46 8904.85,1859.53 8884.33,1859.53 C8852.22,1859.53 8813.82,1886.68 8813.82,1917.13"/>
<path class="Note" d="M5152.61,1875.79 C5152.61,1890.02 5162.87,1905.91 5189.68,1905.91 C5224.11,1905.91 5260.18,1877.78 5260.18,1848.65 C5260.18,1829.12 5243.63,1818.2 5223.11,1818.2 C5191.01,1818.2 5152.61,1845.34 5152.61,1875.79"/>
<path class="Note" d="M4765.97,1917.13 C4765.97,1931.36 4776.23,1947.25 4803.04,1947.25 C4837.47,1947.25 4873.55,1919.11 4873.55,1889.99 C4873.55,1870.46 4857,1859.53 4836.48,1859.53 C4804.37,1859.53 4765.97,1886.68 4765.97,1917.13"/>
<path class="Note" d="M1899.68,1049.02 C1899.68,1063.25 1909.94,1079.14 1936.76,1079.14 C1971.18,1079.14 2007.26,1051 2007.26,1021.88 C2007.26,1002.35 1990.71,991.425 1970.19,991.425 C1938.08,991.425 1899.68,1018.57 1899.68,1049.02"/>
<path class="Note" d="M7743.67,2841.14 C7732.75,2841.14 7730.43,2832.2 7730.43,2829.23 C7730.43,2813.01 7786.04,2784.54 7801.59,2784.54 C7809.54,2784.54 7814.83,2789.17 7814.83,2796.46 C7814.83,2813.01 7758.89,2841.14 7743.67,2841.14 M7789.35,2768.98 C7757.24,2768.98 7718.84,2795.79 7718.84,2826.58 C7718.84,2840.81 7729.1,2856.7 7755.92,2856.7 C7790.34,2856.7 7826.42,2828.56 7826.42,2799.44 C7826.42,2779.91 7809.87,2768.98 7789.35,2768.98"/>
<path class="Note" d="M4261.11,1875.79 C4261.11,1890.02 4271.37,1905.91 4298.18,1905.91 C4332.6,1905.91 4368.68,1877.78 4368.68,1848.65 C4368.68,1829.12 4352.13,1818.2 4331.61,1818.2 C4299.5,1818.2 4261.11,1845.34 4261.11,1875.79"/>
<path class="Note" d="M1318.19,2826.58 C1318.19,2840.81 1328.45,2856.7 1355.26,2856.7 C1389.69,2856.7 1425.77,2828.56 1425.77,2799.44 C1425.77,2779.91 1409.22,2768.98 1388.7,2768.98 C1356.59,2768.98 1318.19,2796.13 1318.19,2826.58"/>
<path class="Note" d="M2298.28,1007.68 C2298.28,1021.91 2308.54,1037.8 2335.35,1037.8 C2369.77,1037.8 2405.85,1009.67 2405.85,980.538 C2405.85,961.009 2389.3,950.086 2368.78,950.086 C2336.67,950.086 2298.28,977.228 2298.28,1007.68"/>
<path class="Note" d="M3705.98,1849.02 C3695.05,1849.02 3692.74,1840.08 3692.74,1837.1 C3692.74,1820.88 3748.35,1792.41 3763.9,1792.41 C3771.85,1792.41 3777.14,1797.05 3777.14,1804.33 C3777.14,1820.88 3721.2,1849.02 3705.98,1849.02 M3751.66,1776.86 C3719.55,1776.86 3681.15,1803.67 3681.15,1834.45 C3681.15,1848.68 3691.41,1864.57 3718.22,1864.57 C3752.65,1864.57 3788.73,1836.44 3788.73,1807.31 C3788.73,1787.78 3772.18,1776.86 3751.66,1776.86"/>
<path class="Note" d="M1557.76,2867.92 C1557.76,2882.15 1568.02,2898.04 1594.83,2898.04 C1629.26,2898.04 1665.33,2869.9 1665.33,2840.77 C1665.33,2821.25 1648.78,2810.32 1628.26,2810.32 C1596.16,2810.32 1557.76,2837.46 1557.76,2867.92"/>
<path class="Note" d="M3176.29,1710.44 C3176.29,1724.67 3186.55,1740.56 3213.36,1740.56 C3247.78,1740.56 3283.86,1712.42 3283.86,1683.29 C3283.86,1663.76 3267.31,1652.84 3246.79,1652.84 C3214.68,1652.84 3176.29,1679.98 3176.29,1710.44"/>
<path class="Note" d="M1797.33,2909.25 C1797.33,2923.49 1807.59,2939.38 1834.4,2939.38 C1868.82,2939.38 1904.9,2911.24 1904.9,2882.11 C1904.9,2862.58 1888.35,2851.66 1867.83,2851.66 C1835.72,2851.66 1797.33,2878.8 1797.33,2909.25"/>
<path class="Note" d="M7359.49,2826.58 C7359.49,2840.81 7369.75,2856.7 7396.56,2856.7 C7430.99,2856.7 7467.07,2828.56 7467.07,2799.44 C7467.07,2779.91 7450.52,2768.98 7430,2768.98 C7397.89,2768.98 7359.49,2796.13 7359.49,2826.58"/>
<path class="Note" d="M2621.16,1849.02 C2610.23,1849.02 2607.92,1840.08 2607.92,1837.1 C2607.92,1820.88 2663.52,1792.41 2679.08,1792.41 C2687.03,1792.41 2692.32,1797.05 2692.32,1804.33 C2692.32,1820.88 2636.38,1849.02 2621.16,1849.02 M2666.83,1776.86 C2634.73,1776.86 2596.33,1803.67 2596.33,1834.45 C2596.33,1848.68 2606.59,1864.57 2633.4,1864.57 C2667.83,1864.57 2703.91,1836.44 2703.91,1807.31 C2703.91,1787.78 2687.36,1776.86 2666.83,1776.86"/>
<path class="Note" d="M2036.89,2950.59 C2036.89,2964.83 2047.16,2980.71 2073.97,2980.71 C2108.39,2980.71 2144.47,2952.58 2144.47,2923.45 C2144.47,2903.92 2127.92,2893 2107.4,2893 C2075.29,2893 2036.89,2920.14 2036.89,2950.59"/>
<path class="Note" d="M2091.47,1875.79 C2091.47,1890.02 2101.73,1905.91 2128.54,1905.91 C2162.96,1905.91 2199.04,1877.78 2199.04,1848.65 C2199.04,1829.12 2182.49,1818.2 2161.97,1818.2 C2129.86,1818.2 2091.47,1845.34 2091.47,1875.79"/>
<path class="Note" d="M1704.83,1917.13 C1704.83,1931.36 1715.09,1947.25 1741.9,1947.25 C1776.33,1947.25 1812.4,1919.11 1812.4,1889.99 C1812.4,1870.46 1795.85,1859.53 1775.33,1859.53 C1743.23,1859.53 1704.83,1886.68 1704.83,1917.13"/>
<path class="Note" d="M2276.46,2991.93 C2276.46,3006.17 2286.72,3022.05 2313.53,3022.05 C2347.96,3022.05 2384.04,2993.92 2384.04,2964.79 C2384.04,2945.26 2367.49,2934.34 2346.96,2934.34 C2314.86,2934.34 2276.46,2961.48 2276.46,2991.93"/>
<path class="Note" d="M1318.19,1999.81 C1318.19,2014.04 1328.45,2029.93 1355.26,2029.93 C1389.69,2029.93 1425.77,2001.79 1425.77,1972.66 C1425.77,1953.14 1409.22,1942.21 1388.7,1942.21 C1356.59,1942.21 1318.19,1969.35 1318.19,1999.81"/>
<path class="Note" d="M2839.92,980.905 C2829,980.905 2826.68,971.968 2826.68,968.989 C2826.68,952.77 2882.29,924.304 2897.85,924.304 C2905.79,924.304 2911.09,928.938 2911.09,936.22 C2911.09,952.77 2855.15,980.905 2839.92,980.905 M2885.6,908.747 C2853.49,908.747 2815.1,935.558 2815.1,966.341 C2815.1,980.574 2825.36,996.462 2852.17,996.462 C2886.59,996.462 2922.67,968.327 2922.67,939.199 C2922.67,919.67 2906.12,908.747 2885.6,908.747"/>
<path class="Note" d="M3412.98,842.326 C3412.98,856.559 3423.25,872.447 3450.06,872.447 C3484.48,872.447 3520.56,844.312 3520.56,815.184 C3520.56,795.655 3504.01,784.732 3483.49,784.732 C3451.38,784.732 3412.98,811.874 3412.98,842.326"/>
<path class="Note" d="M2778.87,2841.14 C2767.94,2841.14 2765.63,2832.2 2765.63,2829.23 C2765.63,2813.01 2821.23,2784.54 2836.79,2784.54 C2844.74,2784.54 2850.03,2789.17 2850.03,2796.46 C2850.03,2813.01 2794.09,2841.14 2778.87,2841.14 M2824.54,2768.98 C2792.44,2768.98 2754.04,2795.79 2754.04,2826.58 C2754.04,2840.81 2764.3,2856.7 2791.11,2856.7 C2825.54,2856.7 2861.62,2828.56 2861.62,2799.44 C2861.62,2779.91 2845.07,2768.98 2824.54,2768.98"/>
<path class="Note" d="M8627.4,1104.92 C8616.47,1104.92 8614.16,1095.98 8614.16,1093.01 C8614.16,1076.79 8669.76,1048.32 8685.32,1048.32 C8693.27,1048.32 8698.56,1052.95 8698.56,1060.24 C8698.56,1076.79 8642.62,1104.92 8627.4,1104.92 M8673.07,1032.76 C8640.97,1032.76 8602.57,1059.57 8602.57,1090.36 C8602.57,1104.59 8612.83,1120.48 8639.64,1120.48 C8674.07,1120.48 8710.15,1092.34 8710.15,1063.22 C8710.15,1043.69 8693.6,1032.76 8673.07,1032.76"/>
<path class="Note" d="M3293.07,2785.24 C3293.07,2799.47 3303.33,2815.36 3330.14,2815.36 C3364.56,2815.36 3400.64,2787.23 3400.64,2758.1 C3400.64,2738.57 3384.09,2727.65 3363.57,2727.65 C3331.46,2727.65 3293.07,2754.79 3293.07,2785.24"/>
<path class="Note" d="M8336.84,1131.7 C8336.84,1145.93 8347.1,1161.82 8373.92,1161.82 C8408.34,1161.82 8444.42,1133.68 8444.42,1104.55 C8444.42,1085.02 8427.87,1074.1 8407.35,1074.1 C8375.24,1074.1 8336.84,1101.24 8336.84,1131.7"/>
<path class="Note" d="M3954.63,980.905 C3943.71,980.905 3941.39,971.968 3941.39,968.989 C3941.39,952.77 3997,924.304 4012.55,924.304 C4020.5,924.304 4025.79,928.938 4025.79,936.22 C4025.79,952.77 3969.86,980.905 3954.63,980.905 M4000.31,908.747 C3968.2,908.747 3929.8,935.558 3929.8,966.341 C3929.8,980.574 3940.07,996.462 3966.88,996.462 C4001.3,996.462 4037.38,968.327 4037.38,939.199 C4037.38,919.67 4020.83,908.747 4000.31,908.747"/>
<path class="Note" d="M8071.12,1090.36 C8071.12,1104.59 8081.38,1120.48 8108.19,1120.48 C8142.61,1120.48 8178.69,1092.34 8178.69,1063.22 C8178.69,1043.69 8162.14,1032.76 8141.62,1032.76 C8109.51,1032.76 8071.12,1059.91 8071.12,1090.36"/>
<path class="Note" d="M3770.65,2826.58 C3770.65,2840.81 3780.91,2856.7 3807.72,2856.7 C3842.14,2856.7 3878.22,2828.56 3878.22,2799.44 C3878.22,2779.91 3861.67,2768.98 3841.15,2768.98 C3809.04,2768.98 3770.65,2796.13 3770.65,2826.58"/>
<path class="Note" d="M7001.7,2867.92 C7001.7,2882.15 7011.96,2898.04 7038.77,2898.04 C7073.19,2898.04 7109.27,2869.9 7109.27,2840.77 C7109.27,2821.25 7092.72,2810.32 7072.2,2810.32 C7040.09,2810.32 7001.7,2837.46 7001.7,2867.92"/>
<path class="Note" d="M7687.16,1007.68 C7687.16,1021.91 7697.42,1037.8 7724.23,1037.8 C7758.65,1037.8 7794.73,1009.67 7794.73,980.538 C7794.73,961.009 7778.18,950.086 7757.66,950.086 C7725.55,950.086 7687.16,977.228 7687.16,1007.68"/>
<path class="Note" d="M4010.21,2867.92 C4010.21,2882.15 4020.48,2898.04 4047.29,2898.04 C4081.71,2898.04 4117.79,2869.9 4117.79,2840.77 C4117.79,2821.25 4101.24,2810.32 4080.72,2810.32 C4048.61,2810.32 4010.21,2837.46 4010.21,2867.92"/>
<path class="Note" d="M4527.69,1007.68 C4527.69,1021.91 4537.95,1037.8 4564.77,1037.8 C4599.19,1037.8 4635.27,1009.67 4635.27,980.538 C4635.27,961.009 4618.72,950.086 4598.2,950.086 C4566.09,950.086 4527.69,977.228 4527.69,1007.68"/>
<path class="Note" d="M4274.61,2841.14 C4263.68,2841.14 4261.37,2832.2 4261.37,2829.23 C4261.37,2813.01 4316.98,2784.54 4332.53,2784.54 C4340.48,2784.54 4345.77,2789.17 4345.77,2796.46 C4345.77,2813.01 4289.83,2841.14 4274.61,2841.14 M4320.29,2768.98 C4288.18,2768.98 4249.78,2795.79 4249.78,2826.58 C4249.78,2840.81 4260.04,2856.7 4286.85,2856.7 C4321.28,2856.7 4357.36,2828.56 4357.36,2799.44 C4357.36,2779.91 4340.81,2768.98 4320.29,2768.98"/>
<path class="Note" d="M7421.43,1049.02 C7421.43,1063.25 7431.69,1079.14 7458.5,1079.14 C7492.93,1079.14 7529.01,1051 7529.01,1021.88 C7529.01,1002.35 7512.46,991.425 7491.93,991.425 C7459.83,991.425 7421.43,1018.57 7421.43,1049.02"/>
<path class="Note" d="M7155.7,1007.68 C7155.7,1021.91 7165.96,1037.8 7192.77,1037.8 C7227.2,1037.8 7263.28,1009.67 7263.28,980.538 C7263.28,961.009 7246.73,950.086 7226.21,950.086 C7194.1,950.086 7155.7,977.228 7155.7,1007.68"/>
<path class="Note" d="M6762.13,2826.58 C6762.13,2840.81 6772.39,2856.7 6799.2,2856.7 C6833.63,2856.7 6869.7,2828.56 6869.7,2799.44 C6869.7,2779.91 6853.15,2768.98 6832.63,2768.98 C6800.53,2768.98 6762.13,2796.13 6762.13,2826.58"/>
<path class="Note" d="M4931.86,2717.13 C4920.94,2717.13 4918.62,2708.19 4918.62,2705.21 C4918.62,2688.99 4974.23,2660.52 4989.79,2660.52 C4997.73,2660.52 5003.03,2665.16 5003.03,2672.44 C5003.03,2688.99 4947.09,2717.13 4931.86,2717.13 M4977.54,2644.97 C4945.43,2644.97 4907.04,2671.78 4907.04,2702.56 C4907.04,2716.79 4917.3,2732.68 4944.11,2732.68 C4978.53,2732.68 5014.61,2704.55 5014.61,2675.42 C5014.61,2655.89 4998.06,2644.97 4977.54,2644.97"/>
<path class="Note" d="M6889.97,966.341 C6889.97,980.574 6900.24,996.462 6927.05,996.462 C6961.47,996.462 6997.55,968.327 6997.55,939.199 C6997.55,919.67 6981,908.747 6960.48,908.747 C6928.37,908.747 6889.97,935.889 6889.97,966.341"/>
<path class="Note" d="M5446.06,2661.22 C5446.06,2675.46 5456.33,2691.34 5483.14,2691.34 C5517.56,2691.34 5553.64,2663.21 5553.64,2634.08 C5553.64,2614.55 5537.09,2603.63 5516.57,2603.63 C5484.46,2603.63 5446.06,2630.77 5446.06,2661.22"/>
<path class="Note" d="M6491.38,1007.68 C6491.38,1021.91 6501.64,1037.8 6528.45,1037.8 C6562.88,1037.8 6598.96,1009.67 6598.96,980.538 C6598.96,961.009 6582.41,950.086 6561.89,950.086 C6529.78,950.086 6491.38,977.228 6491.38,1007.68"/>
<path class="Note" d="M5974.56,1131.7 C5974.56,1145.93 5984.82,1161.82 6011.63,1161.82 C6046.06,1161.82 6082.14,1133.68 6082.14,1104.55 C6082.14,1085.02 6065.59,1074.1 6045.06,1074.1 C6012.96,1074.1 5974.56,1101.24 5974.56,1131.7"/>
<path class="Note" d="M5708.83,1049.02 C5708.83,1063.25 5719.09,1079.14 5745.91,1079.14 C5780.33,1079.14 5816.41,1051 5816.41,1021.88 C5816.41,1002.35 5799.86,991.425 5779.34,991.425 C5747.23,991.425 5708.83,1018.57 5708.83,1049.02"/>
<path class="Note" d="M5923.64,2702.56 C5923.64,2716.79 5933.9,2732.68 5960.72,2732.68 C5995.14,2732.68 6031.22,2704.55 6031.22,2675.42 C6031.22,2655.89 6014.67,2644.97 5994.15,2644.97 C5962.04,2644.97 5923.64,2672.11 5923.64,2702.56"/>
<path class="Note" d="M5044.51,1049.02 C5044.51,1063.25 5054.77,1079.14 5081.59,1079.14 C5116.01,1079.14 5152.09,1051 5152.09,1021.88 C5152.09,1002.35 5135.54,991.425 5115.02,991.425 C5082.91,991.425 5044.51,1018.57 5044.51,1049.02"/>
<path class="Note" d="M6282.99,2743.9 C6282.99,2758.13 6293.26,2774.02 6320.07,2774.02 C6354.49,2774.02 6390.57,2745.89 6390.57,2716.76 C6390.57,2697.23 6374.02,2686.31 6353.5,2686.31 C6321.39,2686.31 6282.99,2713.45 6282.99,2743.9"/>
<path class="Note" d="M6522.56,2785.24 C6522.56,2799.47 6532.82,2815.36 6559.63,2815.36 C6594.06,2815.36 6630.14,2787.23 6630.14,2758.1 C6630.14,2738.57 6613.59,2727.65 6593.07,2727.65 C6560.96,2727.65 6522.56,2754.79 6522.56,2785.24"/>
<path class="Note" d="M5539.25,1834.45 C5539.25,1848.68 5549.51,1864.57 5576.32,1864.57 C5610.74,1864.57 5646.82,1836.44 5646.82,1807.31 C5646.82,1787.78 5630.27,1776.86 5609.75,1776.86 C5577.64,1776.86 5539.25,1804 5539.25,1834.45"/>
<path class="Clef" d="M909.689,2012.75 C903.069,2014.08 896.78,2014.74 890.491,2014.74 C843.158,2014.74 802.776,1981.64 802.776,1931.66 C802.776,1891.27 831.242,1855.2 860.37,1830.04 C865.997,1825.07 871.293,1820.44 876.258,1815.48 C879.237,1833.35 881.554,1848.91 883.871,1862.48 C853.75,1871.41 833.228,1903.19 833.228,1934.3 C833.228,1957.47 851.433,1989.25 877.913,1989.25 C880.561,1989.25 883.54,1987.93 883.54,1984.95 C883.54,1981.97 880.23,1980.31 876.258,1977.67 C863.349,1969.72 856.067,1961.12 856.067,1944.9 C856.067,1924.71 870.962,1908.49 890.491,1903.85 L909.689,2012.75 M880.561,1672.48 C883.54,1659.24 898.766,1624.49 915.978,1624.49 C920.943,1624.49 928.887,1640.71 928.887,1663.55 C928.887,1697.97 903.4,1723.79 880.561,1746.3 C878.575,1733.06 876.92,1720.15 876.92,1706.25 C876.92,1694 877.913,1682.74 880.561,1672.48 M956.691,1951.52 C956.691,1975.02 947.092,1999.18 923.591,2008.78 C916.64,1969.06 907.703,1916.43 905.386,1901.87 C935.176,1901.87 956.691,1922.06 956.691,1951.52 M811.051,2114.37 C811.051,2136.21 827.932,2165.01 872.617,2165.01 C888.174,2165.01 901.745,2161.04 913.661,2153.76 C931.535,2141.18 936.169,2119.33 936.169,2098.48 C936.169,2085.57 934.183,2070.68 930.873,2051.81 C929.88,2045.19 927.894,2035.26 925.908,2022.35 C958.346,2011.76 982.509,1978 982.509,1943.9 C982.509,1893.92 947.092,1860.16 898.766,1860.16 C895.456,1840.3 892.146,1820.77 889.167,1802.24 C924.253,1765.49 948.416,1724.12 948.416,1671.49 C948.416,1641.37 939.148,1616.88 933.852,1604.96 C925.908,1588.08 916.309,1576.49 910.351,1576.49 C908.034,1576.49 897.773,1580.47 886.85,1593.37 C865.666,1618.53 859.708,1660.9 859.708,1688.7 C859.708,1706.58 861.363,1722.8 866.99,1759.87 C866.659,1760.2 849.447,1777.74 842.496,1783.37 C812.375,1811.5 770.669,1851.55 770.669,1917.75 C770.669,1979.65 824.622,2028.31 886.188,2028.31 C895.787,2028.31 904.724,2027.32 912.337,2025.99 C918.626,2057.77 922.267,2080.94 922.267,2098.48 C922.267,2132.9 904.724,2151.11 871.293,2151.11 C863.349,2151.11 856.398,2149.45 855.736,2149.45 C855.405,2149.12 854.743,2148.79 854.743,2148.46 C854.743,2147.8 855.405,2147.47 856.398,2147.14 C871.955,2144.82 887.512,2131.58 887.512,2110.4 C887.512,2092.52 873.941,2073.66 849.116,2073.66 C825.946,2073.66 811.051,2092.52 811.051,2114.37"/>
<path class="Clef" d="M909.689,2880.86 C903.069,2882.19 896.78,2882.85 890.491,2882.85 C843.158,2882.85 802.776,2849.75 802.776,2799.77 C802.776,2759.38 831.242,2723.31 860.37,2698.15 C865.997,2693.18 871.293,2688.55 876.258,2683.59 C879.237,2701.46 881.554,2717.02 883.871,2730.59 C853.75,2739.52 833.228,2771.3 833.228,2802.41 C833.228,2825.58 851.433,2857.36 877.913,2857.36 C880.561,2857.36 883.54,2856.04 883.54,2853.06 C883.54,2850.08 880.23,2848.42 876.258,2845.78 C863.349,2837.83 856.067,2829.23 856.067,2813.01 C856.067,2792.82 870.962,2776.6 890.491,2771.96 L909.689,2880.86 M880.561,2540.59 C883.54,2527.35 898.766,2492.6 915.978,2492.6 C920.943,2492.6 928.887,2508.82 928.887,2531.66 C928.887,2566.08 903.4,2591.9 880.561,2614.41 C878.575,2601.17 876.92,2588.26 876.92,2574.36 C876.92,2562.11 877.913,2550.85 880.561,2540.59 M956.691,2819.63 C956.691,2843.13 947.092,2867.29 923.591,2876.89 C916.64,2837.17 907.703,2784.54 905.386,2769.98 C935.176,2769.98 956.691,2790.17 956.691,2819.63 M811.051,2982.48 C811.051,3004.32 827.932,3033.12 872.617,3033.12 C888.174,3033.12 901.745,3029.15 913.661,3021.87 C931.535,3009.29 936.169,2987.44 936.169,2966.59 C936.169,2953.68 934.183,2938.79 930.873,2919.92 C929.88,2913.3 927.894,2903.37 925.908,2890.46 C958.346,2879.87 982.509,2846.11 982.509,2812.01 C982.509,2762.03 947.092,2728.27 898.766,2728.27 C895.456,2708.41 892.146,2688.88 889.167,2670.35 C924.253,2633.6 948.416,2592.23 948.416,2539.6 C948.416,2509.48 939.148,2484.99 933.852,2473.07 C925.908,2456.19 916.309,2444.6 910.351,2444.6 C908.034,2444.6 897.773,2448.58 886.85,2461.48 C865.666,2486.64 859.708,2529.01 859.708,2556.81 C859.708,2574.69 861.363,2590.91 866.99,2627.98 C866.659,2628.31 849.447,2645.85 842.496,2651.48 C812.375,2679.61 770.669,2719.66 770.669,2785.86 C770.669,2847.76 824.622,2896.42 886.188,2896.42 C895.787,2896.42 904.724,2895.43 912.337,2894.1 C918.626,2925.88 922.267,2949.05 922.267,2966.59 C922.267,3001.01 904.724,3019.22 871.293,3019.22 C863.349,3019.22 856.398,3017.56 855.736,3017.56 C855.405,3017.23 854.743,3016.9 854.743,3016.57 C854.743,3015.91 855.405,3015.58 856.398,3015.25 C871.955,3012.93 887.512,2999.69 887.512,2978.51 C887.512,2960.63 873.941,2941.77 849.116,2941.77 C825.946,2941.77 811.051,2960.63 811.051,2982.48"/>
<path class="Clef" d="M909.689,1144.64 C903.069,1145.97 896.78,1146.63 890.491,1146.63 C843.158,1146.63 802.776,1113.53 802.776,1063.55 C802.776,1023.16 831.242,987.085 860.37,961.929 C865.997,956.964 871.293,952.33 876.258,947.365 C879.237,965.239 881.554,980.796 883.871,994.367 C853.75,1003.3 833.228,1035.08 833.228,1066.19 C833.228,1089.36 851.433,1121.14 877.913,1121.14 C880.561,1121.14 883.54,1119.82 883.54,1116.84 C883.54,1113.86 880.23,1112.2 876.258,1109.56 C863.349,1101.61 856.067,1093.01 856.067,1076.79 C856.067,1056.6 870.962,1040.38 890.491,1035.74 L909.689,1144.64 M880.561,804.373 C883.54,791.133 898.766,756.378 915.978,756.378 C920.943,756.378 928.887,772.597 928.887,795.436 C928.887,829.86 903.4,855.678 880.561,878.186 C878.575,864.946 876.92,852.037 876.92,838.135 C876.92,825.888 877.913,814.634 880.561,804.373 M956.691,1083.41 C956.691,1106.91 947.092,1131.07 923.591,1140.67 C916.64,1100.95 907.703,1048.32 905.386,1033.76 C935.176,1033.76 956.691,1053.95 956.691,1083.41 M811.051,1246.26 C811.051,1268.1 827.932,1296.9 872.617,1296.9 C888.174,1296.9 901.745,1292.93 913.661,1285.65 C931.535,1273.07 936.169,1251.22 936.169,1230.37 C936.169,1217.46 934.183,1202.57 930.873,1183.7 C929.88,1177.08 927.894,1167.15 925.908,1154.24 C958.346,1143.65 982.509,1109.89 982.509,1075.79 C982.509,1025.81 947.092,992.05 898.766,992.05 C895.456,972.19 892.146,952.661 889.167,934.125 C924.253,897.384 948.416,856.009 948.416,803.38 C948.416,773.259 939.148,748.765 933.852,736.849 C925.908,719.968 916.309,708.383 910.351,708.383 C908.034,708.383 897.773,712.355 886.85,725.264 C865.666,750.42 859.708,792.788 859.708,820.592 C859.708,838.466 861.363,854.685 866.99,891.757 C866.659,892.088 849.447,909.631 842.496,915.258 C812.375,943.393 770.669,983.444 770.669,1049.64 C770.669,1111.54 824.622,1160.2 886.188,1160.2 C895.787,1160.2 904.724,1159.21 912.337,1157.88 C918.626,1189.66 922.267,1212.83 922.267,1230.37 C922.267,1264.79 904.724,1283 871.293,1283 C863.349,1283 856.398,1281.34 855.736,1281.34 C855.405,1281.01 854.743,1280.68 854.743,1280.35 C854.743,1279.69 855.405,1279.36 856.398,1279.03 C871.955,1276.71 887.512,1263.47 887.512,1242.29 C887.512,1224.41 873.941,1205.55 849.116,1205.55 C825.946,1205.55 811.051,1224.41 811.051,1246.26"/>
<path class="KeySig" d="M1088.05,1848.65 C1088.05,1874.8 1074.48,1888.7 1055.28,1903.93 L1056.27,1839.38 C1056.93,1836.4 1061.9,1826.8 1075.14,1826.8 C1087.06,1826.8 1088.05,1838.06 1088.05,1845.01 L1088.05,1848.65 M1084.08,1810.58 C1067.53,1810.58 1057.93,1820.84 1056.27,1822.83 L1057.6,1716.58 C1057.6,1713.93 1055.61,1711.95 1052.96,1711.95 L1048.99,1711.95 C1046.34,1711.95 1044.36,1713.93 1044.36,1716.58 L1046.01,1915.51 C1046.01,1918.16 1048,1920.14 1050.65,1920.14 C1051.31,1920.14 1052.63,1919.81 1053.29,1919.48 C1081.76,1905.25 1111.55,1878.11 1111.55,1844.01 C1111.55,1826.8 1103.61,1810.58 1084.08,1810.58"/>
<path class="KeySig" d="M1088.05,2716.76 C1088.05,2742.91 1074.48,2756.81 1055.28,2772.04 L1056.27,2707.49 C1056.93,2704.51 1061.9,2694.91 1075.14,2694.91 C1087.06,2694.91 1088.05,2706.17 1088.05,2713.12 L1088.05,2716.76 M1084.08,2678.69 C1067.53,2678.69 1057.93,2688.95 1056.27,2690.94 L1057.6,2584.69 C1057.6,2582.04 1055.61,2580.06 1052.96,2580.06 L1048.99,2580.06 C1046.34,2580.06 1044.36,2582.04 1044.36,2584.69 L1046.01,2783.62 C1046.01,2786.27 1048,2788.25 1050.65,2788.25 C1051.31,2788.25 1052.63,2787.92 1053.29,2787.59 C1081.76,2773.36 1111.55,2746.22 1111.55,2712.12 C1111.55,2694.91 1103.61,2678.69 1084.08,2678.69"/>
<path class="KeySig" d="M1088.05,980.538 C1088.05,1006.69 1074.48,1020.59 1055.28,1035.82 L1056.27,971.27 C1056.93,968.291 1061.9,958.692 1075.14,958.692 C1087.06,958.692 1088.05,969.946 1088.05,976.897 L1088.05,980.538 M1084.08,942.473 C1067.53,942.473 1057.93,952.734 1056.27,954.72 L1057.6,848.469 C1057.6,845.821 1055.61,843.835 1052.96,843.835 L1048.99,843.835 C1046.34,843.835 1044.36,845.821 1044.36,848.469 L1046.01,1047.4 C1046.01,1050.05 1048,1052.03 1050.65,1052.03 C1051.31,1052.03 1052.63,1051.7 1053.29,1051.37 C1081.76,1037.14 1111.55,1010 1111.55,975.904 C1111.55,958.692 1103.61,942.473 1084.08,942.473"/>
<path class="TimeSig" d="M1292.62,907.779 C1319.1,897.518 1320.76,880.306 1320.76,874.348 L1320.76,872.693 C1320.76,869.714 1319.77,832.311 1262.83,832.311 C1205.9,832.311 1207.56,872.693 1207.56,872.693 L1207.89,872.693 L1207.56,873.355 C1207.56,885.271 1217.16,894.539 1229.07,894.539 C1240.99,894.539 1250.26,885.271 1250.26,873.355 C1250.26,863.756 1242.97,854.488 1233.71,852.502 L1234.7,851.509 C1239.33,848.199 1245.62,846.544 1251.91,846.544 C1265.81,846.544 1280.71,854.819 1280.71,872.693 C1280.71,893.546 1265.15,896.525 1261.18,897.187 C1257.21,897.849 1238.67,899.173 1234.7,899.173 C1230.73,899.173 1230.4,903.807 1230.4,903.807 L1230.4,910.427 C1230.4,910.427 1231.06,914.068 1234.7,914.399 C1240.33,914.73 1247.94,914.73 1258.53,916.385 C1273.1,918.371 1280.71,928.301 1280.71,951.471 C1280.71,973.648 1265.81,979.606 1251.91,979.606 C1242.64,979.606 1234.04,976.958 1230.4,974.31 C1241.32,973.648 1250.26,964.049 1250.26,953.126 C1250.26,941.21 1240.99,931.611 1229.07,931.611 C1217.16,931.611 1207.56,941.21 1207.56,953.126 C1207.56,980.268 1232.38,993.839 1256.88,993.839 C1288.65,993.839 1323.08,982.916 1323.08,946.837 C1323.08,922.674 1306.53,912.413 1291.96,907.779 L1292.62,907.779 "/>
<path class="TimeSig" d="M1258.39,1118.01 L1258.39,1142.5 L1230.92,1142.5 C1228.6,1142.5 1226.29,1144.49 1226.29,1147.13 L1226.29,1153.42 C1226.29,1156.07 1228.6,1158.06 1230.92,1158.06 L1331.21,1158.06 C1333.86,1158.06 1335.85,1156.07 1335.85,1153.42 L1335.85,1147.13 C1335.85,1144.49 1333.86,1142.5 1331.21,1142.5 L1301.42,1142.5 L1301.42,1118.01 L1331.21,1118.01 C1333.86,1118.01 1335.85,1115.69 1335.85,1113.04 L1335.85,1106.75 C1335.85,1104.44 1333.86,1102.12 1331.21,1102.12 L1301.42,1102.12 L1301.42,1049.49 C1301.42,1047.5 1300.43,1045.85 1299.11,1045.19 L1295.13,1043.2 C1294.47,1042.87 1294.14,1042.87 1293.48,1042.87 C1292.16,1042.87 1290.83,1042.87 1289.84,1043.86 L1259.72,1071.34 C1258.72,1072.33 1258.39,1073.65 1258.39,1074.98 L1258.39,1102.12 L1220,1102.12 C1220,1102.12 1257.07,1062.4 1296.13,1010.1 C1297.45,1008.45 1297.78,1006.79 1297.78,1005.47 C1297.78,1003.81 1297.12,1002.49 1296.79,1002.16 L1289.51,994.874 C1288.51,994.212 1287.52,993.55 1286.2,993.55 C1284.21,993.55 1239.53,993.55 1236.88,993.55 C1234.56,993.55 1232.91,995.536 1232.58,997.522 C1232.58,997.522 1230.92,1022.02 1222.31,1048.83 C1213.71,1075.64 1203.78,1092.19 1195.17,1104.44 C1195.17,1104.44 1194.18,1106.09 1194.18,1108.08 C1194.18,1108.74 1194.18,1109.4 1194.51,1110.06 C1195.5,1112.38 1197.82,1116.02 1197.82,1116.02 C1197.82,1116.02 1198.48,1118.01 1201.46,1118.01 L1258.39,1118.01 "/>
<path class="Beam" fill-rule="evenodd" d="M6382.21,2481.9 L6630.04,2502.56 L6630.04,2544.05 L6382.21,2523.38 L6382.21,2481.9 "/>
<path class="Beam" fill-rule="evenodd" d="M5542.32,807.696 L5816.31,787.026 L5816.31,828.482 L5542.32,849.152 L5542.32,807.696 "/>
<path class="Beam" fill-rule="evenodd" d="M6889.97,1179.74 L7163.97,1200.41 L7163.97,1241.87 L6889.97,1221.2 L6889.97,1179.74 "/>
<path class="Beam" fill-rule="evenodd" d="M6861.34,2543.9 L7109.18,2564.57 L7109.18,2606.05 L6861.34,2585.39 L6861.34,2543.9 "/>
<path class="Beam" fill-rule="evenodd" d="M7520.64,766.357 L7794.64,745.688 L7794.64,787.144 L7520.64,807.813 L7520.64,766.357 "/>
<path class="Beam" fill-rule="evenodd" d="M3869.86,2543.9 L4117.7,2564.57 L4117.7,2606.05 L3869.86,2585.39 L3869.86,2543.9 "/>
<path class="Beam" fill-rule="evenodd" d="M8170.33,807.696 L8444.32,828.365 L8444.32,869.821 L8170.33,849.152 L8170.33,807.696 "/>
<path class="Beam" fill-rule="evenodd" d="M1896.54,2626.58 L2144.37,2647.25 L2144.37,2688.73 L1896.54,2668.06 L1896.54,2626.58 "/>
<path class="Beam" fill-rule="evenodd" d="M1417.4,2543.9 L1665.24,2564.57 L1665.24,2606.05 L1417.4,2585.39 L1417.4,2543.9 "/>
<path class="NoteDot" d="M8524.93,2854.01 C8524.93,2863.28 8532.21,2870.56 8541.48,2870.56 C8550.75,2870.56 8558.03,2863.28 8558.03,2854.01 C8558.03,2844.75 8550.75,2837.46 8541.48,2837.46 C8532.21,2837.46 8524.93,2844.75 8524.93,2854.01"/>
<path class="NoteDot" d="M7277.77,1820.55 C7277.77,1829.82 7285.05,1837.1 7294.32,1837.1 C7303.58,1837.1 7310.87,1829.82 7310.87,1820.55 C7310.87,1811.28 7303.58,1804 7294.32,1804 C7285.05,1804 7277.77,1811.28 7277.77,1820.55"/>
</svg>
