<?xml version="1.0" encoding="UTF-8" standalone="no"?>
<svg
   width="681"
   height="47.113575"
   version="1.2"
   id="svg49"
   xmlns="http://www.w3.org/2000/svg"
   xmlns:svg="http://www.w3.org/2000/svg"
   xmlns:rdf="http://www.w3.org/1999/02/22-rdf-syntax-ns#"
   xmlns:cc="http://creativecommons.org/ns#"
   xmlns:dc="http://purl.org/dc/elements/1.1/">
  <defs
     id="defs49" />
  <title
     id="title1">air_LIX</title>
  <desc
     id="desc1">Generated by MuseScore Studio 4.7.3</desc>
  <path
     id="path49"
     class="NoteDot"
     d="m 620.88371,12.919153 c 0,0.741948 0.5828,1.324906 1.32491,1.324906 0.7421,0 1.3249,-0.582958 1.3249,-1.324906 0,-0.741947 -0.5828,-1.324905 -1.3249,-1.324905 -0.74211,0 -1.32491,0.582958 -1.32491,1.324905 m -444.24855,0 c 0,0.741948 0.5828,1.324906 1.3249,1.324906 0.74131,0 1.32491,-0.582958 1.32491,-1.324906 0,-0.741947 -0.5836,-1.324905 -1.32491,-1.324905 -0.7421,0 -1.3249,0.582958 -1.3249,1.324905 M 33.669409,32.792582 v 1.96054 h -2.199104 c -0.185727,0 -0.370653,0.159309 -0.370653,0.370654 v 0.503544 c 0,0.212145 0.184926,0.371454 0.370653,0.371454 h 8.02869 c 0.212145,0 0.371454,-0.159309 0.371454,-0.371454 v -0.503544 c 0,-0.211345 -0.159309,-0.370654 -0.371454,-0.370654 h -2.384831 v -1.96054 h 2.384831 c 0.212145,0 0.371454,-0.185727 0.371454,-0.397872 v -0.503544 c 0,-0.184927 -0.159309,-0.370654 -0.371454,-0.370654 h -2.384831 v -4.213281 c 0,-0.159309 -0.07925,-0.291399 -0.184927,-0.344235 L 36.61062,26.803687 c -0.05284,-0.02642 -0.07925,-0.02642 -0.132091,-0.02642 -0.105672,0 -0.212145,0 -0.291399,0.07925 l -2.411249,2.199904 c -0.08005,0.07925 -0.106472,0.184927 -0.106472,0.2914 v 2.172685 h -3.073302 c 0,0 2.967629,-3.179774 6.094567,-7.366637 0.105673,-0.13209 0.132091,-0.264981 0.132091,-0.370653 0,-0.132891 -0.05284,-0.238563 -0.07925,-0.264981 l -0.582798,-0.583279 c -0.08005,-0.053 -0.159309,-0.105993 -0.264981,-0.105993 -0.159309,0 -3.736155,0 -3.9483,0 -0.185727,0 -0.317817,0.158989 -0.344235,0.317978 0,0 -0.132891,1.961181 -0.822162,4.107448 -0.688471,2.146268 -1.483415,3.471174 -2.172686,4.451844 0,0 -0.07925,0.13209 -0.07925,0.291399 0,0.05284 0,0.105673 0.02642,0.158509 0.07925,0.185727 0.264981,0.477126 0.264981,0.477126 0,0 0.05284,0.159309 0.291399,0.159309 h 4.557517 m 2.740273,-16.829988 c 2.11985,-0.821441 2.252741,-2.199343 2.252741,-2.67631 v -0.13249 c 0,-0.238483 -0.07925,-3.2327705 -4.637571,-3.2327705 -4.557517,0 -4.424626,3.2327705 -4.424626,3.2327705 h 0.02642 l -0.02642,0.053 c 0,0.953932 0.768526,1.69588 1.721978,1.69588 0.954252,0 1.69636,-0.741948 1.69636,-1.69588 0,-0.768445 -0.583599,-1.510393 -1.324906,-1.669381 l 0.07925,-0.07949 c 0.370653,-0.264981 0.874198,-0.397471 1.377742,-0.397471 1.112761,0 2.305576,0.662452 2.305576,2.093351 0,1.669381 -1.245651,1.907864 -1.563469,1.960861 -0.317817,0.053 -1.802032,0.158988 -2.119849,0.158988 -0.317817,0 -0.344236,0.370974 -0.344236,0.370974 v 0.529962 c 0,0 0.05284,0.29148 0.344236,0.317978 0.450708,0.0265 1.059925,0.0265 1.907704,0.158988 1.166398,0.158989 1.775614,0.953933 1.775614,2.808801 0,1.775374 -1.192815,2.25234 -2.305576,2.25234 -0.742108,0 -1.430578,-0.211985 -1.721978,-0.42397 0.874198,-0.053 1.589888,-0.821442 1.589888,-1.695879 0,-0.953933 -0.742108,-1.722378 -1.69636,-1.722378 -0.953452,0 -1.721978,0.768445 -1.721978,1.722378 0,2.172845 1.986959,3.259268 3.9483,3.259268 2.543339,0 5.299624,-0.874438 5.299624,-3.762733 0,-1.934362 -1.324906,-2.755804 -2.491304,-3.126778 h 0.05284 M 16.093311,34.924439 c -0.529962,0.106473 -1.033427,0.159309 -1.536891,0.159309 -3.789231,0 -7.0220012,-2.649811 -7.0220012,-6.650947 0,-3.233411 2.2788382,-6.121386 4.6106722,-8.135243 0.450468,-0.397471 0.874438,-0.768445 1.27191,-1.165917 0.238483,1.430899 0.42397,2.67631 0.609457,3.762733 -2.411329,0.715129 -4.0542123,3.259268 -4.0542123,5.749771 0,1.854869 1.4573963,4.399008 3.5772463,4.399008 0.211985,0 0.450468,-0.105672 0.450468,-0.344235 0,-0.238563 -0.264982,-0.371454 -0.582959,-0.582799 -1.033427,-0.636435 -1.616385,-1.324906 -1.616385,-2.623393 0,-1.616306 1.192415,-2.914793 2.755804,-3.286247 l 1.536891,8.71796 M 13.761477,7.6844542 c 0.238483,-1.0599247 1.457396,-3.8422271 2.835298,-3.8422271 0.397472,0 1.033427,1.2984078 1.033427,3.1267779 0,2.7558043 -2.040355,4.822658 -3.868725,6.62453 -0.158989,-1.059925 -0.29148,-2.093352 -0.29148,-3.206273 0,-0.9804301 0.0795,-1.8813661 0.29148,-2.7028078 m 6.094567,22.3382338 c 0,1.881286 -0.768446,3.815409 -2.649812,4.583934 -0.556461,-3.179774 -1.27191,-7.393055 -1.457397,-8.558652 2.384831,0 4.107209,1.616305 4.107209,3.974718 M 8.1968718,43.059602 c 0,1.748395 1.351404,4.053972 4.9286502,4.053972 1.245411,0 2.331834,-0.317818 3.285766,-0.900616 1.430899,-1.007089 1.801872,-2.756285 1.801872,-4.425426 0,-1.033507 -0.158988,-2.225522 -0.423969,-3.736154 -0.07949,-0.529963 -0.238484,-1.324906 -0.397472,-2.358413 2.596815,-0.84778 4.531178,-3.550428 4.531178,-6.280294 0,-4.001136 -2.835299,-6.703784 -6.704024,-6.703784 -0.264981,-1.589887 -0.529962,-3.153276 -0.768445,-4.637171 2.8088,-2.941291 4.743163,-6.253555 4.743163,-10.4667561 0,-2.4113288 -0.741948,-4.3721895 -1.165917,-5.3261218 C 17.391719,0.92743413 16.623273,0 16.146307,0 15.96082,0 15.139379,0.31797742 14.264941,1.351404 c -1.69588,2.013857 -2.172846,5.4056161 -2.172846,7.631458 0,1.430898 0.132491,2.729306 0.582959,5.697095 -0.0265,0.0265 -1.404401,1.430899 -1.960861,1.881367 -2.4113287,2.25234 -5.7500916,5.458612 -5.7500916,10.757915 0,4.955389 4.3191932,8.850852 9.2478436,8.850852 0.768445,0 1.483894,-0.07925 2.093351,-0.185727 0.503464,2.54414 0.794943,4.399008 0.794943,5.803168 0,2.755484 -1.4044,4.213281 -4.08071,4.213281 -0.635955,0 -1.192415,-0.132891 -1.245411,-0.132891 -0.0265,-0.02642 -0.07949,-0.05284 -0.07949,-0.07925 0,-0.05284 0.053,-0.07925 0.132491,-0.105672 1.245412,-0.185727 2.490823,-1.245652 2.490823,-2.941211 0,-1.431379 -1.086423,-2.941211 -3.073782,-2.941211 -1.8548679,0 -3.0472832,1.509832 -3.0472832,3.259028 M 610.95612,18.507374 c -0.87419,0 -1.05992,-0.715449 -1.05992,-0.953932 0,-1.298408 4.45184,-3.577246 5.69749,-3.577246 0.63564,0 1.05993,0.370974 1.05993,0.953932 0,1.324906 -4.47826,3.577246 -5.6975,3.577246 m 3.6569,-5.776589 c -2.56975,0 -5.64385,2.146347 -5.64385,4.610672 0,1.139419 0.82136,2.411329 2.96762,2.411329 2.75629,0 5.64386,-2.25234 5.64386,-4.584175 0,-1.563388 -1.3249,-2.437826 -2.96763,-2.437826 m -493.41016,4.610672 c 0,1.139419 0.82136,2.411329 2.96843,2.411329 2.75548,0 5.64385,-2.25234 5.64385,-4.584175 0,-1.563388 -1.3249,-2.437826 -2.96762,-2.437826 -2.57056,0 -5.64466,2.172845 -5.64466,4.610672 m 43.51695,-3.309383 c 0,1.139419 0.82136,2.411329 2.96843,2.411329 2.75548,0 5.64386,-2.25234 5.64386,-4.584174 0,-1.563389 -1.32491,-2.4378271 -2.96763,-2.4378271 -2.57056,0 -5.64466,2.1728461 -5.64466,4.6106721 m 400.7324,0 c 0,1.139419 0.82136,2.411329 2.96763,2.411329 2.75628,0 5.64386,-2.25234 5.64386,-4.584174 0,-1.563389 -1.32491,-2.4378271 -2.96763,-2.4378271 -2.56976,0 -5.64386,2.1728461 -5.64386,4.6106721 m -34.05208,-3.309302 c 0,1.139419 0.82136,2.411328 2.96763,2.411328 2.75548,0 5.64386,-2.25234 5.64386,-4.584174 0,-1.563389 -1.32491,-2.4378269 -2.96763,-2.4378269 -2.57056,0 -5.64386,2.1728457 -5.64386,4.6106729 m -323.5132,0 c 0,1.139419 0.82136,2.411328 2.96763,2.411328 2.75628,0 5.64465,-2.25234 5.64465,-4.584174 0,-1.563389 -1.3249,-2.4378269 -2.96842,-2.4378269 -2.56976,0 -5.64386,2.1728457 -5.64386,4.6106729 M 497.34804,7.4133889 c 0,1.1394191 0.82137,2.4113287 2.96763,2.4113287 2.75549,0 5.64386,-2.25234 5.64386,-4.5841744 0,-1.563389 -1.3249,-2.4378268 -2.96763,-2.4378268 -2.57055,0 -5.64386,2.1728456 -5.64386,4.6106725 m -266.75919,0 c 0,1.1394191 0.82136,2.4113287 2.96763,2.4113287 2.75548,0 5.64386,-2.25234 5.64386,-4.5841744 0,-1.563389 -1.32491,-2.4378268 -2.96763,-2.4378268 -2.57056,0 -5.64386,2.1728456 -5.64386,4.6106725 M 53.098693,20.65076 c 0,1.139419 0.821362,2.411329 2.967629,2.411329 2.756285,0 5.64466,-2.25234 5.64466,-4.584175 0,-1.563389 -1.324906,-2.437827 -2.96843,-2.437827 -2.569757,0 -5.643859,2.172846 -5.643859,4.610673 M 453.83109,10.722772 c 0,1.139419 0.82136,2.411328 2.96763,2.411328 2.75548,0 5.64386,-2.25234 5.64386,-4.584174 0,-1.563389 -1.32491,-2.4378269 -2.96763,-2.4378269 -2.57056,0 -5.64386,2.1728457 -5.64386,4.6106729 M 274.105,20.65076 c 0,1.139419 0.82216,2.411329 2.96843,2.411329 2.75549,0 5.64386,-2.25234 5.64386,-4.584175 0,-1.563389 -1.3249,-2.437827 -2.96763,-2.437827 -2.57056,0 -5.64466,2.172846 -5.64466,4.610673 m 145.67401,-6.618686 c 0,1.139419 0.82136,2.411329 2.96763,2.411329 2.75548,0 5.64385,-2.25234 5.64385,-4.584174 0,-1.563389 -1.3249,-2.4378271 -2.96762,-2.4378271 -2.57056,0 -5.64386,2.1728461 -5.64386,4.6106721 m -77.56904,0 c 0,1.139419 0.82136,2.411329 2.96763,2.411329 2.75548,0 5.64386,-2.25234 5.64386,-4.584174 0,-1.563389 -1.32491,-2.4378271 -2.96763,-2.4378271 -2.57056,0 -5.64386,2.1728461 -5.64386,4.6106721 m 43.51695,3.309383 c 0,1.139419 0.82137,2.411329 2.96763,2.411329 2.75549,0 5.64386,-2.25234 5.64386,-4.584175 0,-1.563388 -1.3249,-2.437826 -2.96763,-2.437826 -2.57055,0 -5.64386,2.172845 -5.64386,4.610672 M 87.150773,20.65076 c 0,1.139419 0.821362,2.411329 2.967629,2.411329 2.756285,0 5.64466,-2.25234 5.64466,-4.584175 0,-1.563389 -1.324906,-2.437827 -2.967629,-2.437827 -2.570558,0 -5.64466,2.172846 -5.64466,4.610673 M 308.15789,17.341457 c 0,1.139419 0.82136,2.411329 2.96763,2.411329 2.75548,0 5.64385,-2.25234 5.64385,-4.584175 0,-1.563388 -1.3249,-2.437826 -2.96762,-2.437826 -2.57056,0 -5.64386,2.172845 -5.64386,4.610672 M 207.88693,32.748552 c 0,0.185727 0.15931,0.345036 0.34423,0.345036 0.13289,0 0.2922,-0.106473 0.31862,-0.212145 0,-0.02642 0.23856,-0.954253 0.26498,-1.033507 0.0264,-0.106473 0.26498,-1.112761 1.21843,-2.67623 1.03351,-1.722778 2.6234,-2.967629 3.9483,-4.822497 1.29849,-1.855189 2.09343,-3.604065 2.09343,-5.935899 0,-2.411329 -0.55638,-4.425186 -1.96054,-6.995503 -0.08,-0.185487 -0.23856,-0.291479 -0.39787,-0.291479 -0.0528,0 -0.10567,0 -0.13209,0.0265 -0.13289,0.053 -0.18573,0.158988 -0.18573,0.317977 0,0.07949 0.0264,0.211985 0.0793,0.317978 1.05992,2.464325 1.48421,3.868725 1.48421,5.776589 0,2.199344 -0.76852,3.338763 -1.24565,4.160205 -1.72198,2.941451 -4.50468,4.372029 -5.61744,4.743483 -0.18573,0.07925 -0.21214,0.211345 -0.21214,0.291399 v 5.988095 M 385.72655,17.340435 v 22.053517 h 0.66201 V 17.340435 Z m 34.05203,-3.309294 v 22.053364 h 0.66202 V 14.031141 Z m -77.56897,0 v 22.053364 h 0.66201 V 14.031141 Z M 53.099118,20.649729 V 41.048675 H 53.76113 V 20.649729 Z M 308.15741,17.340435 v 22.053517 h 0.66218 V 17.340435 Z m 145.67321,-6.618744 v 22.053207 h 0.66216 V 10.721691 Z m -179.72523,9.928038 v 20.398946 h 0.66201 V 20.649729 Z M 497.34772,7.412397 V 29.46638 h 0.66201 V 7.412397 Z m -266.75928,0 V 29.46638 h 0.66202 V 7.412397 Z m 300.8113,3.309294 v 22.053207 h 0.66202 V 10.721691 Z m -323.51245,0 v 22.026933 h 0.66202 V 10.721691 Z m 357.56449,3.30945 v 22.053364 h 0.66201 V 14.031141 Z m -400.7315,0 v 22.053364 h 0.66202 V 14.031141 Z m -77.569131,6.618588 v 20.398946 h 0.662013 V 20.649729 Z M 608.96872,17.340435 v 22.053517 h 0.66217 V 17.340435 Z m -487.76554,0 v 22.053517 h 0.66217 V 17.340435 Z M 264.64095,9.2458378 V 36.448658 h 1.19112 V 9.2458378 Z m 412.71859,0 V 36.448658 h 3.64015 V 9.2458378 Z m -3.63967,0 V 36.448658 H 674.911 V 9.2458378 Z m -297.45776,0 V 36.448658 h 1.19112 V 9.2458378 Z m 111.62101,0 V 36.448658 h 1.19128 V 9.2458378 Z m 111.62116,0 V 36.448658 h 1.19128 V 9.2458378 Z m -444.2486,0 V 36.448658 h 1.19129 V 9.2458378 Z M 0,35.720656 v 0.727689 h 681 v -0.727689 z m 0,-6.618269 v 0.727841 h 681 v -0.727841 z m 0,-6.61906 v 0.727685 h 681 v -0.727685 z m 0,-6.618588 v 0.727684 H 681 V 15.864739 Z M 0,9.2459947 V 9.9736795 H 681 V 9.2459947 Z"
     style="stroke-width:0.0800547" />
  <metadata
     id="metadata49">
    <rdf:RDF>
      <cc:Work
         rdf:about="">
        <dc:title>air_LIX</dc:title>
      </cc:Work>
    </rdf:RDF>
  </metadata>
</svg>
