<?xml version="1.0" encoding="UTF-8" standalone="no"?>
<svg width="210.058mm" height="296.926mm" viewBox="0 0 9924 14028"
 xmlns="http://www.w3.org/2000/svg" xmlns:xlink="http://www.w3.org/1999/xlink" version="1.2" baseProfile="full">
<title>air_XLVII</title>
<desc>Generated by MuseScore Studio 4.7.3</desc>
<polyline class="StaffLines" fill="none" stroke="#000000" stroke-width="9.09" stroke-linejoin="bevel" points="708.661,828.424 9215.34,828.424" />
<polyline class="StaffLines" fill="none" stroke="#000000" stroke-width="9.09" stroke-linejoin="bevel" points="708.661,911.101 9215.34,911.101" />
<polyline class="StaffLines" fill="none" stroke="#000000" stroke-width="9.09" stroke-linejoin="bevel" points="708.661,993.778 9215.34,993.778" />
<polyline class="StaffLines" fill="none" stroke="#000000" stroke-width="9.09" stroke-linejoin="bevel" points="708.661,1076.46 9215.34,1076.46" />
<polyline class="StaffLines" fill="none" stroke="#000000" stroke-width="9.09" stroke-linejoin="bevel" points="708.661,1159.13 9215.34,1159.13" />
<polyline class="StaffLines" fill="none" stroke="#000000" stroke-width="9.09" stroke-linejoin="bevel" points="708.661,1696.53 9215.34,1696.53" />
<polyline class="StaffLines" fill="none" stroke="#000000" stroke-width="9.09" stroke-linejoin="bevel" points="708.661,1779.21 9215.34,1779.21" />
<polyline class="StaffLines" fill="none" stroke="#000000" stroke-width="9.09" stroke-linejoin="bevel" points="708.661,1861.89 9215.34,1861.89" />
<polyline class="StaffLines" fill="none" stroke="#000000" stroke-width="9.09" stroke-linejoin="bevel" points="708.661,1944.57 9215.34,1944.57" />
<polyline class="StaffLines" fill="none" stroke="#000000" stroke-width="9.09" stroke-linejoin="bevel" points="708.661,2027.24 9215.34,2027.24" />
<polyline class="StaffLines" fill="none" stroke="#000000" stroke-width="9.09" stroke-linejoin="bevel" points="708.661,2564.64 9215.34,2564.64" />
<polyline class="StaffLines" fill="none" stroke="#000000" stroke-width="9.09" stroke-linejoin="bevel" points="708.661,2647.32 9215.34,2647.32" />
<polyline class="StaffLines" fill="none" stroke="#000000" stroke-width="9.09" stroke-linejoin="bevel" points="708.661,2730 9215.34,2730" />
<polyline class="StaffLines" fill="none" stroke="#000000" stroke-width="9.09" stroke-linejoin="bevel" points="708.661,2812.68 9215.34,2812.68" />
<polyline class="StaffLines" fill="none" stroke="#000000" stroke-width="9.09" stroke-linejoin="bevel" points="708.661,2895.35 9215.34,2895.35" />
<polyline class="BarLine" fill="none" stroke="#000000" stroke-width="14.88" stroke-linejoin="bevel" points="5902.88,1691.99 5902.88,2031.79" />
<polyline class="BarLine" fill="none" stroke="#000000" stroke-width="14.88" stroke-linejoin="bevel" points="3924.96,1691.99 3924.96,2031.79" />
<polyline class="BarLine" fill="none" stroke="#000000" stroke-width="14.88" stroke-linejoin="bevel" points="9131.84,2560.1 9131.84,2899.9" />
<polyline class="BarLine" fill="none" stroke="#000000" stroke-width="45.47" stroke-linejoin="bevel" points="9192.6,2560.1 9192.6,2899.9" />
<polyline class="BarLine" fill="none" stroke="#000000" stroke-width="14.88" stroke-linejoin="bevel" points="7886.71,823.876 7886.71,1163.68" />
<polyline class="BarLine" fill="none" stroke="#000000" stroke-width="14.88" stroke-linejoin="bevel" points="7205.89,2560.1 7205.89,2899.9" />
<path class="BarLine" d="M9093.83,952.439 C9093.83,942.84 9086.22,934.896 9076.62,934.896 C9067.02,934.896 9059.41,942.84 9059.41,952.439 C9059.41,962.038 9067.02,969.982 9076.62,969.982 C9086.22,969.982 9093.83,962.038 9093.83,952.439"/>
<path class="BarLine" d="M9093.83,1035.12 C9093.83,1025.52 9086.22,1017.57 9076.62,1017.57 C9067.02,1017.57 9059.41,1025.52 9059.41,1035.12 C9059.41,1044.72 9067.02,1052.66 9076.62,1052.66 C9086.22,1052.66 9093.83,1044.72 9093.83,1035.12"/>
<polyline class="BarLine" fill="none" stroke="#000000" stroke-width="14.88" stroke-linejoin="bevel" points="9131.84,823.876 9131.84,1163.68" />
<polyline class="BarLine" fill="none" stroke="#000000" stroke-width="45.47" stroke-linejoin="bevel" points="9192.6,823.876 9192.6,1163.68" />
<polyline class="BarLine" fill="none" stroke="#000000" stroke-width="14.88" stroke-linejoin="bevel" points="1912.66,823.876 1912.66,1163.68" />
<polyline class="BarLine" fill="none" stroke="#000000" stroke-width="14.88" stroke-linejoin="bevel" points="3904.01,823.876 3904.01,1163.68" />
<polyline class="BarLine" fill="none" stroke="#000000" stroke-width="14.88" stroke-linejoin="bevel" points="3933.89,2560.1 3933.89,2899.9" />
<polyline class="BarLine" fill="none" stroke="#000000" stroke-width="45.47" stroke-linejoin="bevel" points="1356.81,1691.99 1356.81,2031.79" />
<polyline class="BarLine" fill="none" stroke="#000000" stroke-width="14.88" stroke-linejoin="bevel" points="1417.58,1691.99 1417.58,2031.79" />
<path class="BarLine" d="M1490.03,1820.55 C1490.03,1810.95 1482.42,1803.01 1472.82,1803.01 C1463.22,1803.01 1455.61,1810.95 1455.61,1820.55 C1455.61,1830.15 1463.22,1838.09 1472.82,1838.09 C1482.42,1838.09 1490.03,1830.15 1490.03,1820.55"/>
<path class="BarLine" d="M1490.03,1903.23 C1490.03,1893.63 1482.42,1885.68 1472.82,1885.68 C1463.22,1885.68 1455.61,1893.63 1455.61,1903.23 C1455.61,1912.83 1463.22,1920.77 1472.82,1920.77 C1482.42,1920.77 1490.03,1912.83 1490.03,1903.23"/>
<polyline class="BarLine" fill="none" stroke="#000000" stroke-width="14.88" stroke-linejoin="bevel" points="9207.9,1691.99 9207.9,2031.79" />
<polyline class="BarLine" fill="none" stroke="#000000" stroke-width="14.88" stroke-linejoin="bevel" points="1915.93,1691.99 1915.93,2031.79" />
<polyline class="BarLine" fill="none" stroke="#000000" stroke-width="14.88" stroke-linejoin="bevel" points="7891.22,1691.99 7891.22,2031.79" />
<polyline class="BarLine" fill="none" stroke="#000000" stroke-width="14.88" stroke-linejoin="bevel" points="5895.36,823.876 5895.36,1163.68" />
<path class="TieSegment" stroke="#000000" stroke-width="4.13" stroke-linecap="round" stroke-linejoin="round" fill-rule="evenodd" d="M1478.59,2669.64 C1634.72,2559.54 2103.1,2559.54 2259.23,2669.64 C2103.1,2586 1634.72,2586 1478.59,2669.64"/>
<path class="TieSegment" stroke="#000000" stroke-width="4.13" stroke-linecap="round" stroke-linejoin="round" fill-rule="evenodd" d="M8065.96,850.741 C8156.31,760.305 8427.35,760.305 8517.7,850.741 C8427.35,786.762 8156.31,786.762 8065.96,850.741"/>
<path class="TieSegment" stroke="#000000" stroke-width="4.13" stroke-linecap="round" stroke-linejoin="round" fill-rule="evenodd" d="M7375.71,2873.04 C7531.84,2956.68 8000.22,2956.68 8156.34,2873.04 C8000.22,2983.13 7531.84,2983.13 7375.71,2873.04"/>
<polyline class="Stem" fill="none" stroke="#000000" stroke-width="8.27" stroke-linejoin="bevel" points="2964.15,1007.67 2964.15,1241.81" />
<polyline class="Stem" fill="none" stroke="#000000" stroke-width="8.27" stroke-linejoin="bevel" points="4670.14,1834.44 4670.14,2089.25" />
<polyline class="Stem" fill="none" stroke="#000000" stroke-width="8.27" stroke-linejoin="bevel" points="5579.87,966.329 5579.87,1221.14" />
<polyline class="Stem" fill="none" stroke="#000000" stroke-width="8.27" stroke-linejoin="bevel" points="8217.2,2799.45 8217.2,2523.31" />
<polyline class="Stem" fill="none" stroke="#000000" stroke-width="8.27" stroke-linejoin="bevel" points="7420.03,2799.45 7420.03,2523.31" />
<polyline class="Stem" fill="none" stroke="#000000" stroke-width="8.27" stroke-linejoin="bevel" points="4742.52,1021.89 4742.52,766.416" />
<polyline class="Stem" fill="none" stroke="#000000" stroke-width="8.27" stroke-linejoin="bevel" points="6010.29,1007.67 6010.29,1241.81" />
<polyline class="Stem" fill="none" stroke="#000000" stroke-width="8.27" stroke-linejoin="bevel" points="1696.38,1021.89 1696.38,766.416" />
<polyline class="Stem" fill="none" stroke="#000000" stroke-width="8.27" stroke-linejoin="bevel" points="6421.69,1021.89 6421.69,766.416" />
<polyline class="Stem" fill="none" stroke="#000000" stroke-width="8.27" stroke-linejoin="bevel" points="6671.14,2661.21 6671.14,2936.69" />
<polyline class="Stem" fill="none" stroke="#000000" stroke-width="8.27" stroke-linejoin="bevel" points="6733.87,1063.23 6733.87,787.085" />
<polyline class="Stem" fill="none" stroke="#000000" stroke-width="8.27" stroke-linejoin="bevel" points="6238.91,2758.11 6238.91,2502.64" />
<polyline class="Stem" fill="none" stroke="#000000" stroke-width="8.27" stroke-linejoin="bevel" points="7046.06,1063.23 7046.06,787.085" />
<polyline class="Stem" fill="none" stroke="#000000" stroke-width="8.27" stroke-linejoin="bevel" points="5608.25,2702.55 5608.25,2957.36" />
<polyline class="Stem" fill="none" stroke="#000000" stroke-width="8.27" stroke-linejoin="bevel" points="7259.03,1007.67 7259.03,1241.81" />
<polyline class="Stem" fill="none" stroke="#000000" stroke-width="8.27" stroke-linejoin="bevel" points="5076.8,2661.21 5076.8,2936.69" />
<polyline class="Stem" fill="none" stroke="#000000" stroke-width="8.27" stroke-linejoin="bevel" points="7571.22,966.329 7571.22,1221.14" />
<polyline class="Stem" fill="none" stroke="#000000" stroke-width="8.27" stroke-linejoin="bevel" points="4722.51,2619.87 4722.51,2895.02" />
<polyline class="Stem" fill="none" stroke="#000000" stroke-width="8.27" stroke-linejoin="bevel" points="4985.28,1793.1 4985.28,2068.58" />
<polyline class="Stem" fill="none" stroke="#000000" stroke-width="8.27" stroke-linejoin="bevel" points="4331.12,1007.67 4331.12,1241.81" />
<polyline class="Stem" fill="none" stroke="#000000" stroke-width="8.27" stroke-linejoin="bevel" points="8001.64,924.991 8001.64,1200.47" />
<polyline class="Stem" fill="none" stroke="#000000" stroke-width="8.27" stroke-linejoin="bevel" points="4048.81,2661.21 4048.81,2936.69" />
<polyline class="Stem" fill="none" stroke="#000000" stroke-width="8.27" stroke-linejoin="bevel" points="8469.92,924.991 8469.92,1200.47" />
<polyline class="Stem" fill="none" stroke="#000000" stroke-width="8.27" stroke-linejoin="bevel" points="2027.59,1007.67 2027.59,1241.81" />
<polyline class="Stem" fill="none" stroke="#000000" stroke-width="8.27" stroke-linejoin="bevel" points="3576.28,2702.55 3576.28,2936.93" />
<polyline class="Stem" fill="none" stroke="#000000" stroke-width="8.27" stroke-linejoin="bevel" points="3221.99,2743.89 3221.99,2957.13" />
<polyline class="Stem" fill="none" stroke="#000000" stroke-width="8.27" stroke-linejoin="bevel" points="5267.68,924.991 5267.68,1200.47" />
<polyline class="Stem" fill="none" stroke="#000000" stroke-width="8.27" stroke-linejoin="bevel" points="4018.94,966.329 4018.94,1221.14" />
<polyline class="Stem" fill="none" stroke="#000000" stroke-width="8.27" stroke-linejoin="bevel" points="2211.44,2743.89 2211.44,2978.03" />
<polyline class="Stem" fill="none" stroke="#000000" stroke-width="8.27" stroke-linejoin="bevel" points="1414.27,2743.89 1414.27,2978.03" />
<polyline class="Stem" fill="none" stroke="#000000" stroke-width="8.27" stroke-linejoin="bevel" points="2438.99,1021.89 2438.99,766.416" />
<polyline class="Stem" fill="none" stroke="#000000" stroke-width="8.27" stroke-linejoin="bevel" points="1597.49,1793.1 1597.49,2068.58" />
<polyline class="Stem" fill="none" stroke="#000000" stroke-width="8.27" stroke-linejoin="bevel" points="8704.58,1890 8704.58,1634.53" />
<polyline class="Stem" fill="none" stroke="#000000" stroke-width="8.27" stroke-linejoin="bevel" points="3588.52,924.991 3588.52,1200.47" />
<polyline class="Stem" fill="none" stroke="#000000" stroke-width="8.27" stroke-linejoin="bevel" points="8105.35,1931.34 8105.35,1655.2" />
<polyline class="Stem" fill="none" stroke="#000000" stroke-width="8.27" stroke-linejoin="bevel" points="2030.85,1751.76 2030.85,2027.24" />
<polyline class="Stem" fill="none" stroke="#000000" stroke-width="8.27" stroke-linejoin="bevel" points="2751.17,1063.23 2751.17,787.085" />
<polyline class="Stem" fill="none" stroke="#000000" stroke-width="8.27" stroke-linejoin="bevel" points="2345.98,1793.1 2345.98,2068.58" />
<polyline class="Stem" fill="none" stroke="#000000" stroke-width="8.27" stroke-linejoin="bevel" points="7572.78,1793.1 7572.78,2068.58" />
<polyline class="Stem" fill="none" stroke="#000000" stroke-width="8.27" stroke-linejoin="bevel" points="2661.12,1751.76 2661.12,2027.24" />
<polyline class="Stem" fill="none" stroke="#000000" stroke-width="8.27" stroke-linejoin="bevel" points="7356.86,1890 7356.86,1634.53" />
<polyline class="Stem" fill="none" stroke="#000000" stroke-width="8.27" stroke-linejoin="bevel" points="2976.25,1710.42 2976.25,1985.9" />
<polyline class="Stem" fill="none" stroke="#000000" stroke-width="8.27" stroke-linejoin="bevel" points="6942.51,1834.44 6942.51,2089.25" />
<polyline class="Stem" fill="none" stroke="#000000" stroke-width="8.27" stroke-linejoin="bevel" points="3291.38,1751.76 3291.38,2027.24" />
<polyline class="Stem" fill="none" stroke="#000000" stroke-width="8.27" stroke-linejoin="bevel" points="6627.38,1793.1 6627.38,2068.58" />
<polyline class="Stem" fill="none" stroke="#000000" stroke-width="8.27" stroke-linejoin="bevel" points="3606.52,1793.1 3606.52,2068.58" />
<polyline class="Stem" fill="none" stroke="#000000" stroke-width="8.27" stroke-linejoin="bevel" points="6417.29,1751.76 6417.29,2026.91" />
<polyline class="Stem" fill="none" stroke="#000000" stroke-width="8.27" stroke-linejoin="bevel" points="3276.33,966.329 3276.33,1221.14" />
<polyline class="Stem" fill="none" stroke="#000000" stroke-width="8.27" stroke-linejoin="bevel" points="5668.06,1834.44 5668.06,2068.97" />
<polyline class="Stem" fill="none" stroke="#000000" stroke-width="8.27" stroke-linejoin="bevel" points="4039.88,1834.44 4039.88,2089.25" />
<polyline class="Stem" fill="none" stroke="#000000" stroke-width="8.27" stroke-linejoin="bevel" points="6017.8,1793.1 6017.8,2068.58" />
<polyline class="Stem" fill="none" stroke="#000000" stroke-width="8.27" stroke-linejoin="bevel" points="4355.01,1875.78 4355.01,2109.92" />
<polyline class="Stem" fill="none" stroke="#000000" stroke-width="8.27" stroke-linejoin="bevel" points="4955.5,966.329 4955.5,1221.14" />
<polyline class="Stem" fill="none" stroke="#000000" stroke-width="8.27" stroke-linejoin="bevel" points="5457.98,1875.78 5457.98,2088.86" />
<path class="Hook" d="M6413.15,2026.91 C6413.15,2029.23 6415.14,2031.21 6417.46,2031.21 C6419.11,2031.21 6421.1,2029.89 6421.43,2028.57 C6421.43,2028.24 6424.41,2016.65 6424.74,2015.66 C6425.07,2014.33 6428.05,2001.76 6439.96,1982.23 C6452.87,1960.71 6472.73,1945.15 6489.28,1921.98 C6505.5,1898.81 6515.43,1876.97 6515.43,1847.84 C6515.43,1817.72 6508.48,1792.56 6490.94,1760.46 C6489.95,1758.14 6487.96,1756.82 6485.97,1756.82 C6485.31,1756.82 6484.65,1756.82 6484.32,1757.15 C6482.66,1757.81 6482,1759.13 6482,1761.12 C6482,1762.11 6482.33,1763.77 6482.99,1765.09 C6496.23,1795.87 6501.53,1813.42 6501.53,1837.25 C6501.53,1864.72 6491.93,1878.95 6485.97,1889.22 C6464.46,1925.96 6429.7,1943.83 6415.8,1948.46 C6413.48,1949.46 6413.15,1951.11 6413.15,1952.11 L6413.15,2026.91 "/>
<path class="Hook" d="M4718.37,2895.02 C4718.37,2897.34 4720.36,2899.32 4722.68,2899.32 C4724.33,2899.32 4726.32,2898 4726.65,2896.68 C4726.65,2896.35 4729.63,2884.76 4729.96,2883.77 C4730.29,2882.44 4733.27,2869.87 4745.18,2850.34 C4758.09,2828.82 4777.95,2813.26 4794.5,2790.09 C4810.72,2766.92 4820.65,2745.08 4820.65,2715.95 C4820.65,2685.83 4813.7,2660.67 4796.16,2628.57 C4795.17,2626.25 4793.18,2624.93 4791.19,2624.93 C4790.53,2624.93 4789.87,2624.93 4789.54,2625.26 C4787.88,2625.92 4787.22,2627.24 4787.22,2629.23 C4787.22,2630.22 4787.55,2631.88 4788.21,2633.2 C4801.45,2663.98 4806.75,2681.53 4806.75,2705.36 C4806.75,2732.83 4797.15,2747.06 4791.19,2757.33 C4769.68,2794.07 4734.92,2811.94 4721.02,2816.57 C4718.7,2817.57 4718.37,2819.22 4718.37,2820.22 L4718.37,2895.02 "/>
<path class="Note" d="M2647.83,1090.36 C2647.83,1104.59 2658.09,1120.48 2684.9,1120.48 C2719.32,1120.48 2755.4,1092.34 2755.4,1063.22 C2755.4,1043.69 2738.85,1032.76 2718.33,1032.76 C2686.22,1032.76 2647.83,1059.91 2647.83,1090.36"/>
<path class="Note" d="M5072.67,2661.22 C5072.67,2675.46 5082.93,2691.34 5109.74,2691.34 C5144.17,2691.34 5180.25,2663.21 5180.25,2634.08 C5180.25,2614.55 5163.7,2603.63 5143.17,2603.63 C5111.07,2603.63 5072.67,2630.77 5072.67,2661.22"/>
<path class="Note" d="M5453.84,1875.79 C5453.84,1890.02 5464.1,1905.91 5490.91,1905.91 C5525.34,1905.91 5561.42,1877.78 5561.42,1848.65 C5561.42,1829.12 5544.87,1818.2 5524.34,1818.2 C5492.24,1818.2 5453.84,1845.34 5453.84,1875.79"/>
<path class="Note" d="M5263.55,925.003 C5263.55,939.236 5273.81,955.124 5300.62,955.124 C5335.05,955.124 5371.12,926.989 5371.12,897.861 C5371.12,878.332 5354.57,867.409 5334.05,867.409 C5301.95,867.409 5263.55,894.551 5263.55,925.003"/>
<path class="Note" d="M4666.01,1834.45 C4666.01,1848.68 4676.27,1864.57 4703.08,1864.57 C4737.51,1864.57 4773.58,1836.44 4773.58,1807.31 C4773.58,1787.78 4757.03,1776.86 4736.51,1776.86 C4704.41,1776.86 4666.01,1804 4666.01,1834.45"/>
<path class="Note" d="M5663.93,1834.45 C5663.93,1848.68 5674.19,1864.57 5701,1864.57 C5735.43,1864.57 5771.51,1836.44 5771.51,1807.31 C5771.51,1787.78 5754.96,1776.86 5734.43,1776.86 C5702.33,1776.86 5663.93,1804 5663.93,1834.45"/>
<path class="Note" d="M4951.36,966.341 C4951.36,980.574 4961.62,996.462 4988.43,996.462 C5022.86,996.462 5058.94,968.327 5058.94,939.199 C5058.94,919.67 5042.39,908.747 5021.87,908.747 C4989.76,908.747 4951.36,935.889 4951.36,966.341"/>
<path class="Note" d="M4350.88,1875.79 C4350.88,1890.02 4361.14,1905.91 4387.95,1905.91 C4422.37,1905.91 4458.45,1877.78 4458.45,1848.65 C4458.45,1829.12 4441.9,1818.2 4421.38,1818.2 C4389.27,1818.2 4350.88,1845.34 4350.88,1875.79"/>
<path class="Note" d="M4035.74,1834.45 C4035.74,1848.68 4046,1864.57 4072.81,1864.57 C4107.24,1864.57 4143.32,1836.44 4143.32,1807.31 C4143.32,1787.78 4126.77,1776.86 4106.25,1776.86 C4074.14,1776.86 4035.74,1804 4035.74,1834.45"/>
<path class="Note" d="M6013.67,1793.11 C6013.67,1807.35 6023.93,1823.23 6050.74,1823.23 C6085.16,1823.23 6121.24,1795.1 6121.24,1765.97 C6121.24,1746.44 6104.69,1735.52 6084.17,1735.52 C6052.06,1735.52 6013.67,1762.66 6013.67,1793.11"/>
<path class="Note" d="M8138.67,2841.14 C8127.75,2841.14 8125.43,2832.2 8125.43,2829.23 C8125.43,2813.01 8181.04,2784.54 8196.6,2784.54 C8204.54,2784.54 8209.84,2789.17 8209.84,2796.46 C8209.84,2813.01 8153.9,2841.14 8138.67,2841.14 M8184.35,2768.98 C8152.24,2768.98 8113.85,2795.79 8113.85,2826.58 C8113.85,2840.81 8124.11,2856.7 8150.92,2856.7 C8185.34,2856.7 8221.42,2828.56 8221.42,2799.44 C8221.42,2779.91 8204.87,2768.98 8184.35,2768.98"/>
<path class="Note" d="M2960.01,1007.68 C2960.01,1021.91 2970.27,1037.8 2997.09,1037.8 C3031.51,1037.8 3067.59,1009.67 3067.59,980.538 C3067.59,961.009 3051.04,950.086 3030.52,950.086 C2998.41,950.086 2960.01,977.228 2960.01,1007.68"/>
<path class="Note" d="M3602.38,1793.11 C3602.38,1807.35 3612.64,1823.23 3639.45,1823.23 C3673.88,1823.23 3709.96,1795.1 3709.96,1765.97 C3709.96,1746.44 3693.41,1735.52 3672.88,1735.52 C3640.78,1735.52 3602.38,1762.66 3602.38,1793.11"/>
<path class="Note" d="M6413.15,1751.77 C6413.15,1766.01 6423.41,1781.9 6450.23,1781.9 C6484.65,1781.9 6520.73,1753.76 6520.73,1724.63 C6520.73,1705.1 6504.18,1694.18 6483.66,1694.18 C6451.55,1694.18 6413.15,1721.32 6413.15,1751.77"/>
<path class="Note" d="M3287.25,1751.77 C3287.25,1766.01 3297.51,1781.9 3324.32,1781.9 C3358.74,1781.9 3394.82,1753.76 3394.82,1724.63 C3394.82,1705.1 3378.27,1694.18 3357.75,1694.18 C3325.64,1694.18 3287.25,1721.32 3287.25,1751.77"/>
<path class="Note" d="M6623.24,1793.11 C6623.24,1807.35 6633.5,1823.23 6660.31,1823.23 C6694.74,1823.23 6730.82,1795.1 6730.82,1765.97 C6730.82,1746.44 6714.27,1735.52 6693.75,1735.52 C6661.64,1735.52 6623.24,1762.66 6623.24,1793.11"/>
<path class="Note" d="M2972.12,1710.44 C2972.12,1724.67 2982.38,1740.56 3009.19,1740.56 C3043.61,1740.56 3079.69,1712.42 3079.69,1683.29 C3079.69,1663.76 3063.14,1652.84 3042.62,1652.84 C3010.51,1652.84 2972.12,1679.98 2972.12,1710.44"/>
<path class="Note" d="M6938.38,1834.45 C6938.38,1848.68 6948.64,1864.57 6975.45,1864.57 C7009.87,1864.57 7045.95,1836.44 7045.95,1807.31 C7045.95,1787.78 7029.4,1776.86 7008.88,1776.86 C6976.77,1776.86 6938.38,1804 6938.38,1834.45"/>
<path class="Note" d="M2656.98,1751.77 C2656.98,1766.01 2667.24,1781.9 2694.05,1781.9 C2728.48,1781.9 2764.56,1753.76 2764.56,1724.63 C2764.56,1705.1 2748.01,1694.18 2727.49,1694.18 C2695.38,1694.18 2656.98,1721.32 2656.98,1751.77"/>
<path class="Note" d="M7253.51,1917.13 C7253.51,1931.36 7263.77,1947.25 7290.58,1947.25 C7325,1947.25 7361.08,1919.11 7361.08,1889.99 C7361.08,1870.46 7344.53,1859.53 7324.01,1859.53 C7291.9,1859.53 7253.51,1886.68 7253.51,1917.13"/>
<path class="Note" d="M2341.85,1793.11 C2341.85,1807.35 2352.11,1823.23 2378.92,1823.23 C2413.34,1823.23 2449.42,1795.1 2449.42,1765.97 C2449.42,1746.44 2432.87,1735.52 2412.35,1735.52 C2380.24,1735.52 2341.85,1762.66 2341.85,1793.11"/>
<path class="Note" d="M7568.64,1793.11 C7568.64,1807.35 7578.9,1823.23 7605.71,1823.23 C7640.14,1823.23 7676.22,1795.1 7676.22,1765.97 C7676.22,1746.44 7659.67,1735.52 7639.14,1735.52 C7607.04,1735.52 7568.64,1762.66 7568.64,1793.11"/>
<path class="Note" d="M2026.72,1751.77 C2026.72,1766.01 2036.98,1781.9 2063.79,1781.9 C2098.21,1781.9 2134.29,1753.76 2134.29,1724.63 C2134.29,1705.1 2117.74,1694.18 2097.22,1694.18 C2065.11,1694.18 2026.72,1721.32 2026.72,1751.77"/>
<path class="Note" d="M2335.64,1049.02 C2335.64,1063.25 2345.9,1079.14 2372.71,1079.14 C2407.14,1079.14 2443.21,1051 2443.21,1021.88 C2443.21,1002.35 2426.66,991.425 2406.14,991.425 C2374.04,991.425 2335.64,1018.57 2335.64,1049.02"/>
<path class="Note" d="M3272.2,966.341 C3272.2,980.574 3282.46,996.462 3309.27,996.462 C3343.7,996.462 3379.77,968.327 3379.77,939.199 C3379.77,919.67 3363.22,908.747 3342.7,908.747 C3310.6,908.747 3272.2,935.889 3272.2,966.341"/>
<path class="Note" d="M8026.83,1973.03 C8015.91,1973.03 8013.59,1964.09 8013.59,1961.12 C8013.59,1944.9 8069.2,1916.43 8084.75,1916.43 C8092.7,1916.43 8097.99,1921.06 8097.99,1928.35 C8097.99,1944.9 8042.05,1973.03 8026.83,1973.03 M8072.51,1900.87 C8040.4,1900.87 8002,1927.68 8002,1958.47 C8002,1972.7 8012.26,1988.59 8039.08,1988.59 C8073.5,1988.59 8109.58,1960.45 8109.58,1931.33 C8109.58,1911.8 8093.03,1900.87 8072.51,1900.87"/>
<path class="Note" d="M5575.74,966.341 C5575.74,980.574 5586,996.462 5612.81,996.462 C5647.23,996.462 5683.31,968.327 5683.31,939.199 C5683.31,919.67 5666.76,908.747 5646.24,908.747 C5614.13,908.747 5575.74,935.889 5575.74,966.341"/>
<path class="Note" d="M1593.35,1793.11 C1593.35,1807.35 1603.62,1823.23 1630.43,1823.23 C1664.85,1823.23 1700.93,1795.1 1700.93,1765.97 C1700.93,1746.44 1684.38,1735.52 1663.86,1735.52 C1631.75,1735.52 1593.35,1762.66 1593.35,1793.11"/>
<path class="Note" d="M8626.06,1931.69 C8615.13,1931.69 8612.82,1922.76 8612.82,1919.78 C8612.82,1903.56 8668.42,1875.09 8683.98,1875.09 C8691.93,1875.09 8697.22,1879.73 8697.22,1887.01 C8697.22,1903.56 8641.28,1931.69 8626.06,1931.69 M8671.73,1859.53 C8639.63,1859.53 8601.23,1886.35 8601.23,1917.13 C8601.23,1931.36 8611.49,1947.25 8638.3,1947.25 C8672.73,1947.25 8708.81,1919.11 8708.81,1889.99 C8708.81,1870.46 8692.26,1859.53 8671.73,1859.53"/>
<path class="Note" d="M7341.51,2841.14 C7330.58,2841.14 7328.27,2832.2 7328.27,2829.23 C7328.27,2813.01 7383.87,2784.54 7399.43,2784.54 C7407.37,2784.54 7412.67,2789.17 7412.67,2796.46 C7412.67,2813.01 7356.73,2841.14 7341.51,2841.14 M7387.18,2768.98 C7355.08,2768.98 7316.68,2795.79 7316.68,2826.58 C7316.68,2840.81 7326.94,2856.7 7353.75,2856.7 C7388.18,2856.7 7424.26,2828.56 7424.26,2799.44 C7424.26,2779.91 7407.71,2768.98 7387.18,2768.98"/>
<path class="Note" d="M3584.39,925.003 C3584.39,939.236 3594.65,955.124 3621.46,955.124 C3655.88,955.124 3691.96,926.989 3691.96,897.861 C3691.96,878.332 3675.41,867.409 3654.89,867.409 C3622.78,867.409 3584.39,894.551 3584.39,925.003"/>
<path class="Note" d="M2023.45,1007.68 C2023.45,1021.91 2033.71,1037.8 2060.52,1037.8 C2094.95,1037.8 2131.03,1009.67 2131.03,980.538 C2131.03,961.009 2114.48,950.086 2093.96,950.086 C2061.85,950.086 2023.45,977.228 2023.45,1007.68"/>
<path class="Note" d="M4639.18,1049.02 C4639.18,1063.25 4649.44,1079.14 4676.25,1079.14 C4710.67,1079.14 4746.75,1051 4746.75,1021.88 C4746.75,1002.35 4730.2,991.425 4709.68,991.425 C4677.57,991.425 4639.18,1018.57 4639.18,1049.02"/>
<path class="Note" d="M6006.15,1007.68 C6006.15,1021.91 6016.41,1037.8 6043.22,1037.8 C6077.65,1037.8 6113.73,1009.67 6113.73,980.538 C6113.73,961.009 6097.18,950.086 6076.65,950.086 C6044.55,950.086 6006.15,977.228 6006.15,1007.68"/>
<path class="Note" d="M6667.01,2661.22 C6667.01,2675.46 6677.27,2691.34 6704.08,2691.34 C6738.5,2691.34 6774.58,2663.21 6774.58,2634.08 C6774.58,2614.55 6758.03,2603.63 6737.51,2603.63 C6705.4,2603.63 6667.01,2630.77 6667.01,2661.22"/>
<path class="Note" d="M1434.96,2758.46 C1424.04,2758.46 1421.72,2749.53 1421.72,2746.55 C1421.72,2730.33 1477.33,2701.86 1492.89,2701.86 C1500.83,2701.86 1506.13,2706.5 1506.13,2713.78 C1506.13,2730.33 1450.19,2758.46 1434.96,2758.46 M1480.64,2686.31 C1448.53,2686.31 1410.14,2713.12 1410.14,2743.9 C1410.14,2758.13 1420.4,2774.02 1447.21,2774.02 C1481.63,2774.02 1517.71,2745.89 1517.71,2716.76 C1517.71,2697.23 1501.16,2686.31 1480.64,2686.31"/>
<path class="Note" d="M6318.34,1049.02 C6318.34,1063.25 6328.6,1079.14 6355.41,1079.14 C6389.83,1079.14 6425.91,1051 6425.91,1021.88 C6425.91,1002.35 6409.36,991.425 6388.84,991.425 C6356.73,991.425 6318.34,1018.57 6318.34,1049.02"/>
<path class="Note" d="M2232.13,2758.46 C2221.21,2758.46 2218.89,2749.53 2218.89,2746.55 C2218.89,2730.33 2274.5,2701.86 2290.06,2701.86 C2298,2701.86 2303.3,2706.5 2303.3,2713.78 C2303.3,2730.33 2247.36,2758.46 2232.13,2758.46 M2277.81,2686.31 C2245.7,2686.31 2207.31,2713.12 2207.31,2743.9 C2207.31,2758.13 2217.57,2774.02 2244.38,2774.02 C2278.8,2774.02 2314.88,2745.89 2314.88,2716.76 C2314.88,2697.23 2298.33,2686.31 2277.81,2686.31"/>
<path class="Note" d="M6135.56,2785.24 C6135.56,2799.47 6145.82,2815.36 6172.63,2815.36 C6207.06,2815.36 6243.14,2787.23 6243.14,2758.1 C6243.14,2738.57 6226.59,2727.65 6206.06,2727.65 C6173.96,2727.65 6135.56,2754.79 6135.56,2785.24"/>
<path class="Note" d="M4014.8,966.341 C4014.8,980.574 4025.06,996.462 4051.87,996.462 C4086.3,996.462 4122.38,968.327 4122.38,939.199 C4122.38,919.67 4105.83,908.747 4085.31,908.747 C4053.2,908.747 4014.8,935.889 4014.8,966.341"/>
<path class="Note" d="M3217.85,2743.9 C3217.85,2758.13 3228.11,2774.02 3254.93,2774.02 C3289.35,2774.02 3325.43,2745.89 3325.43,2716.76 C3325.43,2697.23 3308.88,2686.31 3288.36,2686.31 C3256.25,2686.31 3217.85,2713.45 3217.85,2743.9"/>
<path class="Note" d="M6630.53,1090.36 C6630.53,1104.59 6640.79,1120.48 6667.6,1120.48 C6702.02,1120.48 6738.1,1092.34 6738.1,1063.22 C6738.1,1043.69 6721.55,1032.76 6701.03,1032.76 C6668.92,1032.76 6630.53,1059.91 6630.53,1090.36"/>
<path class="Note" d="M5604.12,2702.56 C5604.12,2716.79 5614.38,2732.68 5641.19,2732.68 C5675.61,2732.68 5711.69,2704.55 5711.69,2675.42 C5711.69,2655.89 5695.14,2644.97 5674.62,2644.97 C5642.51,2644.97 5604.12,2672.11 5604.12,2702.56"/>
<path class="Note" d="M3572.15,2702.56 C3572.15,2716.79 3582.41,2732.68 3609.22,2732.68 C3643.65,2732.68 3679.73,2704.55 3679.73,2675.42 C3679.73,2655.89 3663.18,2644.97 3642.65,2644.97 C3610.55,2644.97 3572.15,2672.11 3572.15,2702.56"/>
<path class="Note" d="M8490.61,939.567 C8479.68,939.567 8477.37,930.63 8477.37,927.651 C8477.37,911.432 8532.98,882.966 8548.53,882.966 C8556.48,882.966 8561.77,887.6 8561.77,894.882 C8561.77,911.432 8505.83,939.567 8490.61,939.567 M8536.29,867.409 C8504.18,867.409 8465.78,894.22 8465.78,925.003 C8465.78,939.236 8476.04,955.124 8502.85,955.124 C8537.28,955.124 8573.36,926.989 8573.36,897.861 C8573.36,878.332 8556.81,867.409 8536.29,867.409"/>
<path class="Note" d="M1593.04,1049.02 C1593.04,1063.25 1603.3,1079.14 1630.11,1079.14 C1664.53,1079.14 1700.61,1051 1700.61,1021.88 C1700.61,1002.35 1684.06,991.425 1663.54,991.425 C1631.43,991.425 1593.04,1018.57 1593.04,1049.02"/>
<path class="Note" d="M8022.33,939.567 C8011.4,939.567 8009.09,930.63 8009.09,927.651 C8009.09,911.432 8064.69,882.966 8080.25,882.966 C8088.2,882.966 8093.49,887.6 8093.49,894.882 C8093.49,911.432 8037.55,939.567 8022.33,939.567 M8068,867.409 C8035.9,867.409 7997.5,894.22 7997.5,925.003 C7997.5,939.236 8007.76,955.124 8034.57,955.124 C8069,955.124 8105.08,926.989 8105.08,897.861 C8105.08,878.332 8088.53,867.409 8068,867.409"/>
<path class="Note" d="M4044.68,2661.22 C4044.68,2675.46 4054.94,2691.34 4081.75,2691.34 C4116.17,2691.34 4152.25,2663.21 4152.25,2634.08 C4152.25,2614.55 4135.7,2603.63 4115.18,2603.63 C4083.07,2603.63 4044.68,2630.77 4044.68,2661.22"/>
<path class="Note" d="M6942.71,1090.36 C6942.71,1104.59 6952.97,1120.48 6979.78,1120.48 C7014.21,1120.48 7050.29,1092.34 7050.29,1063.22 C7050.29,1043.69 7033.74,1032.76 7013.22,1032.76 C6981.11,1032.76 6942.71,1059.91 6942.71,1090.36"/>
<path class="Note" d="M4326.99,1007.68 C4326.99,1021.91 4337.25,1037.8 4364.06,1037.8 C4398.49,1037.8 4434.56,1009.67 4434.56,980.538 C4434.56,961.009 4418.01,950.086 4397.49,950.086 C4365.39,950.086 4326.99,977.228 4326.99,1007.68"/>
<path class="Note" d="M7567.09,966.341 C7567.09,980.574 7577.35,996.462 7604.16,996.462 C7638.58,996.462 7674.66,968.327 7674.66,939.199 C7674.66,919.67 7658.11,908.747 7637.59,908.747 C7605.48,908.747 7567.09,935.889 7567.09,966.341"/>
<path class="Note" d="M4718.37,2619.88 C4718.37,2634.12 4728.63,2650.01 4755.45,2650.01 C4789.87,2650.01 4825.95,2621.87 4825.95,2592.74 C4825.95,2573.21 4809.4,2562.29 4788.88,2562.29 C4756.77,2562.29 4718.37,2589.43 4718.37,2619.88"/>
<path class="Note" d="M7254.9,1007.68 C7254.9,1021.91 7265.16,1037.8 7291.97,1037.8 C7326.4,1037.8 7362.47,1009.67 7362.47,980.538 C7362.47,961.009 7345.92,950.086 7325.4,950.086 C7293.3,950.086 7254.9,977.228 7254.9,1007.68"/>
<path class="Note" d="M5005.97,1807.68 C4995.04,1807.68 4992.73,1798.74 4992.73,1795.76 C4992.73,1779.54 5048.34,1751.08 5063.89,1751.08 C5071.84,1751.08 5077.13,1755.71 5077.13,1762.99 C5077.13,1779.54 5021.19,1807.68 5005.97,1807.68 M5051.65,1735.52 C5019.54,1735.52 4981.14,1762.33 4981.14,1793.11 C4981.14,1807.35 4991.4,1823.23 5018.21,1823.23 C5052.64,1823.23 5088.72,1795.1 5088.72,1765.97 C5088.72,1746.44 5072.17,1735.52 5051.65,1735.52"/>
<path class="Clef" d="M909.689,2012.75 C903.069,2014.08 896.78,2014.74 890.491,2014.74 C843.158,2014.74 802.776,1981.64 802.776,1931.66 C802.776,1891.27 831.242,1855.2 860.37,1830.04 C865.997,1825.07 871.293,1820.44 876.258,1815.48 C879.237,1833.35 881.554,1848.91 883.871,1862.48 C853.75,1871.41 833.228,1903.19 833.228,1934.3 C833.228,1957.47 851.433,1989.25 877.913,1989.25 C880.561,1989.25 883.54,1987.93 883.54,1984.95 C883.54,1981.97 880.23,1980.31 876.258,1977.67 C863.349,1969.72 856.067,1961.12 856.067,1944.9 C856.067,1924.71 870.962,1908.49 890.491,1903.85 L909.689,2012.75 M880.561,1672.48 C883.54,1659.24 898.766,1624.49 915.978,1624.49 C920.943,1624.49 928.887,1640.71 928.887,1663.55 C928.887,1697.97 903.4,1723.79 880.561,1746.3 C878.575,1733.06 876.92,1720.15 876.92,1706.25 C876.92,1694 877.913,1682.74 880.561,1672.48 M956.691,1951.52 C956.691,1975.02 947.092,1999.18 923.591,2008.78 C916.64,1969.06 907.703,1916.43 905.386,1901.87 C935.176,1901.87 956.691,1922.06 956.691,1951.52 M811.051,2114.37 C811.051,2136.21 827.932,2165.01 872.617,2165.01 C888.174,2165.01 901.745,2161.04 913.661,2153.76 C931.535,2141.18 936.169,2119.33 936.169,2098.48 C936.169,2085.57 934.183,2070.68 930.873,2051.81 C929.88,2045.19 927.894,2035.26 925.908,2022.35 C958.346,2011.76 982.509,1978 982.509,1943.9 C982.509,1893.92 947.092,1860.16 898.766,1860.16 C895.456,1840.3 892.146,1820.77 889.167,1802.24 C924.253,1765.49 948.416,1724.12 948.416,1671.49 C948.416,1641.37 939.148,1616.88 933.852,1604.96 C925.908,1588.08 916.309,1576.49 910.351,1576.49 C908.034,1576.49 897.773,1580.47 886.85,1593.37 C865.666,1618.53 859.708,1660.9 859.708,1688.7 C859.708,1706.58 861.363,1722.8 866.99,1759.87 C866.659,1760.2 849.447,1777.74 842.496,1783.37 C812.375,1811.5 770.669,1851.55 770.669,1917.75 C770.669,1979.65 824.622,2028.31 886.188,2028.31 C895.787,2028.31 904.724,2027.32 912.337,2025.99 C918.626,2057.77 922.267,2080.94 922.267,2098.48 C922.267,2132.9 904.724,2151.11 871.293,2151.11 C863.349,2151.11 856.398,2149.45 855.736,2149.45 C855.405,2149.12 854.743,2148.79 854.743,2148.46 C854.743,2147.8 855.405,2147.47 856.398,2147.14 C871.955,2144.82 887.512,2131.58 887.512,2110.4 C887.512,2092.52 873.941,2073.66 849.116,2073.66 C825.946,2073.66 811.051,2092.52 811.051,2114.37"/>
<path class="Clef" d="M909.689,2880.86 C903.069,2882.19 896.78,2882.85 890.491,2882.85 C843.158,2882.85 802.776,2849.75 802.776,2799.77 C802.776,2759.38 831.242,2723.31 860.37,2698.15 C865.997,2693.18 871.293,2688.55 876.258,2683.59 C879.237,2701.46 881.554,2717.02 883.871,2730.59 C853.75,2739.52 833.228,2771.3 833.228,2802.41 C833.228,2825.58 851.433,2857.36 877.913,2857.36 C880.561,2857.36 883.54,2856.04 883.54,2853.06 C883.54,2850.08 880.23,2848.42 876.258,2845.78 C863.349,2837.83 856.067,2829.23 856.067,2813.01 C856.067,2792.82 870.962,2776.6 890.491,2771.96 L909.689,2880.86 M880.561,2540.59 C883.54,2527.35 898.766,2492.6 915.978,2492.6 C920.943,2492.6 928.887,2508.82 928.887,2531.66 C928.887,2566.08 903.4,2591.9 880.561,2614.41 C878.575,2601.17 876.92,2588.26 876.92,2574.36 C876.92,2562.11 877.913,2550.85 880.561,2540.59 M956.691,2819.63 C956.691,2843.13 947.092,2867.29 923.591,2876.89 C916.64,2837.17 907.703,2784.54 905.386,2769.98 C935.176,2769.98 956.691,2790.17 956.691,2819.63 M811.051,2982.48 C811.051,3004.32 827.932,3033.12 872.617,3033.12 C888.174,3033.12 901.745,3029.15 913.661,3021.87 C931.535,3009.29 936.169,2987.44 936.169,2966.59 C936.169,2953.68 934.183,2938.79 930.873,2919.92 C929.88,2913.3 927.894,2903.37 925.908,2890.46 C958.346,2879.87 982.509,2846.11 982.509,2812.01 C982.509,2762.03 947.092,2728.27 898.766,2728.27 C895.456,2708.41 892.146,2688.88 889.167,2670.35 C924.253,2633.6 948.416,2592.23 948.416,2539.6 C948.416,2509.48 939.148,2484.99 933.852,2473.07 C925.908,2456.19 916.309,2444.6 910.351,2444.6 C908.034,2444.6 897.773,2448.58 886.85,2461.48 C865.666,2486.64 859.708,2529.01 859.708,2556.81 C859.708,2574.69 861.363,2590.91 866.99,2627.98 C866.659,2628.31 849.447,2645.85 842.496,2651.48 C812.375,2679.61 770.669,2719.66 770.669,2785.86 C770.669,2847.76 824.622,2896.42 886.188,2896.42 C895.787,2896.42 904.724,2895.43 912.337,2894.1 C918.626,2925.88 922.267,2949.05 922.267,2966.59 C922.267,3001.01 904.724,3019.22 871.293,3019.22 C863.349,3019.22 856.398,3017.56 855.736,3017.56 C855.405,3017.23 854.743,3016.9 854.743,3016.57 C854.743,3015.91 855.405,3015.58 856.398,3015.25 C871.955,3012.93 887.512,2999.69 887.512,2978.51 C887.512,2960.63 873.941,2941.77 849.116,2941.77 C825.946,2941.77 811.051,2960.63 811.051,2982.48"/>
<path class="Clef" d="M909.689,1144.64 C903.069,1145.97 896.78,1146.63 890.491,1146.63 C843.158,1146.63 802.776,1113.53 802.776,1063.55 C802.776,1023.16 831.242,987.085 860.37,961.929 C865.997,956.964 871.293,952.33 876.258,947.365 C879.237,965.239 881.554,980.796 883.871,994.367 C853.75,1003.3 833.228,1035.08 833.228,1066.19 C833.228,1089.36 851.433,1121.14 877.913,1121.14 C880.561,1121.14 883.54,1119.82 883.54,1116.84 C883.54,1113.86 880.23,1112.2 876.258,1109.56 C863.349,1101.61 856.067,1093.01 856.067,1076.79 C856.067,1056.6 870.962,1040.38 890.491,1035.74 L909.689,1144.64 M880.561,804.373 C883.54,791.133 898.766,756.378 915.978,756.378 C920.943,756.378 928.887,772.597 928.887,795.436 C928.887,829.86 903.4,855.678 880.561,878.186 C878.575,864.946 876.92,852.037 876.92,838.135 C876.92,825.888 877.913,814.634 880.561,804.373 M956.691,1083.41 C956.691,1106.91 947.092,1131.07 923.591,1140.67 C916.64,1100.95 907.703,1048.32 905.386,1033.76 C935.176,1033.76 956.691,1053.95 956.691,1083.41 M811.051,1246.26 C811.051,1268.1 827.932,1296.9 872.617,1296.9 C888.174,1296.9 901.745,1292.93 913.661,1285.65 C931.535,1273.07 936.169,1251.22 936.169,1230.37 C936.169,1217.46 934.183,1202.57 930.873,1183.7 C929.88,1177.08 927.894,1167.15 925.908,1154.24 C958.346,1143.65 982.509,1109.89 982.509,1075.79 C982.509,1025.81 947.092,992.05 898.766,992.05 C895.456,972.19 892.146,952.661 889.167,934.125 C924.253,897.384 948.416,856.009 948.416,803.38 C948.416,773.259 939.148,748.765 933.852,736.849 C925.908,719.968 916.309,708.383 910.351,708.383 C908.034,708.383 897.773,712.355 886.85,725.264 C865.666,750.42 859.708,792.788 859.708,820.592 C859.708,838.466 861.363,854.685 866.99,891.757 C866.659,892.088 849.447,909.631 842.496,915.258 C812.375,943.393 770.669,983.444 770.669,1049.64 C770.669,1111.54 824.622,1160.2 886.188,1160.2 C895.787,1160.2 904.724,1159.21 912.337,1157.88 C918.626,1189.66 922.267,1212.83 922.267,1230.37 C922.267,1264.79 904.724,1283 871.293,1283 C863.349,1283 856.398,1281.34 855.736,1281.34 C855.405,1281.01 854.743,1280.68 854.743,1280.35 C854.743,1279.69 855.405,1279.36 856.398,1279.03 C871.955,1276.71 887.512,1263.47 887.512,1242.29 C887.512,1224.41 873.941,1205.55 849.116,1205.55 C825.946,1205.55 811.051,1224.41 811.051,1246.26"/>
<path class="KeySig" d="M1088.05,1848.65 C1088.05,1874.8 1074.48,1888.7 1055.28,1903.93 L1056.27,1839.38 C1056.93,1836.4 1061.9,1826.8 1075.14,1826.8 C1087.06,1826.8 1088.05,1838.06 1088.05,1845.01 L1088.05,1848.65 M1084.08,1810.58 C1067.53,1810.58 1057.93,1820.84 1056.27,1822.83 L1057.6,1716.58 C1057.6,1713.93 1055.61,1711.95 1052.96,1711.95 L1048.99,1711.95 C1046.34,1711.95 1044.36,1713.93 1044.36,1716.58 L1046.01,1915.51 C1046.01,1918.16 1048,1920.14 1050.65,1920.14 C1051.31,1920.14 1052.63,1919.81 1053.29,1919.48 C1081.76,1905.25 1111.55,1878.11 1111.55,1844.01 C1111.55,1826.8 1103.61,1810.58 1084.08,1810.58"/>
<path class="KeySig" d="M1179.99,1724.63 C1179.99,1750.78 1166.42,1764.68 1147.22,1779.91 L1148.21,1715.36 C1148.87,1712.39 1153.84,1702.79 1167.08,1702.79 C1178.99,1702.79 1179.99,1714.04 1179.99,1720.99 L1179.99,1724.63 M1176.01,1686.57 C1159.46,1686.57 1149.87,1696.83 1148.21,1698.81 L1149.53,1592.56 C1149.53,1589.92 1147.55,1587.93 1144.9,1587.93 L1140.93,1587.93 C1138.28,1587.93 1136.29,1589.92 1136.29,1592.56 L1137.95,1791.49 C1137.95,1794.14 1139.94,1796.13 1142.58,1796.13 C1143.25,1796.13 1144.57,1795.8 1145.23,1795.47 C1173.7,1781.23 1203.49,1754.09 1203.49,1720 C1203.49,1702.79 1195.54,1686.57 1176.01,1686.57"/>
<path class="KeySig" d="M1088.05,2716.76 C1088.05,2742.91 1074.48,2756.81 1055.28,2772.04 L1056.27,2707.49 C1056.93,2704.51 1061.9,2694.91 1075.14,2694.91 C1087.06,2694.91 1088.05,2706.17 1088.05,2713.12 L1088.05,2716.76 M1084.08,2678.69 C1067.53,2678.69 1057.93,2688.95 1056.27,2690.94 L1057.6,2584.69 C1057.6,2582.04 1055.61,2580.06 1052.96,2580.06 L1048.99,2580.06 C1046.34,2580.06 1044.36,2582.04 1044.36,2584.69 L1046.01,2783.62 C1046.01,2786.27 1048,2788.25 1050.65,2788.25 C1051.31,2788.25 1052.63,2787.92 1053.29,2787.59 C1081.76,2773.36 1111.55,2746.22 1111.55,2712.12 C1111.55,2694.91 1103.61,2678.69 1084.08,2678.69"/>
<path class="KeySig" d="M1179.99,2592.74 C1179.99,2618.89 1166.42,2632.79 1147.22,2648.02 L1148.21,2583.47 C1148.87,2580.5 1153.84,2570.9 1167.08,2570.9 C1178.99,2570.9 1179.99,2582.15 1179.99,2589.1 L1179.99,2592.74 M1176.01,2554.68 C1159.46,2554.68 1149.87,2564.94 1148.21,2566.92 L1149.53,2460.67 C1149.53,2458.03 1147.55,2456.04 1144.9,2456.04 L1140.93,2456.04 C1138.28,2456.04 1136.29,2458.03 1136.29,2460.67 L1137.95,2659.6 C1137.95,2662.25 1139.94,2664.24 1142.58,2664.24 C1143.25,2664.24 1144.57,2663.91 1145.23,2663.58 C1173.7,2649.34 1203.49,2622.2 1203.49,2588.11 C1203.49,2570.9 1195.54,2554.68 1176.01,2554.68"/>
<path class="KeySig" d="M1088.05,980.538 C1088.05,1006.69 1074.48,1020.59 1055.28,1035.82 L1056.27,971.27 C1056.93,968.291 1061.9,958.692 1075.14,958.692 C1087.06,958.692 1088.05,969.946 1088.05,976.897 L1088.05,980.538 M1084.08,942.473 C1067.53,942.473 1057.93,952.734 1056.27,954.72 L1057.6,848.469 C1057.6,845.821 1055.61,843.835 1052.96,843.835 L1048.99,843.835 C1046.34,843.835 1044.36,845.821 1044.36,848.469 L1046.01,1047.4 C1046.01,1050.05 1048,1052.03 1050.65,1052.03 C1051.31,1052.03 1052.63,1051.7 1053.29,1051.37 C1081.76,1037.14 1111.55,1010 1111.55,975.904 C1111.55,958.692 1103.61,942.473 1084.08,942.473"/>
<path class="KeySig" d="M1179.99,856.522 C1179.99,882.671 1166.42,896.573 1147.22,911.799 L1148.21,847.254 C1148.87,844.275 1153.84,834.676 1167.08,834.676 C1178.99,834.676 1179.99,845.93 1179.99,852.881 L1179.99,856.522 M1176.01,818.457 C1159.46,818.457 1149.87,828.718 1148.21,830.704 L1149.53,724.453 C1149.53,721.805 1147.55,719.819 1144.9,719.819 L1140.93,719.819 C1138.28,719.819 1136.29,721.805 1136.29,724.453 L1137.95,923.384 C1137.95,926.032 1139.94,928.018 1142.58,928.018 C1143.25,928.018 1144.57,927.687 1145.23,927.356 C1173.7,913.123 1203.49,885.981 1203.49,851.888 C1203.49,834.676 1195.54,818.457 1176.01,818.457"/>
<path class="TimeSig" d="M1360.25,979.772 C1349.33,979.772 1340.39,964.877 1340.39,946.341 C1340.39,927.805 1349.33,912.579 1360.25,912.579 C1371.17,912.579 1380.44,927.805 1380.44,946.341 C1380.44,964.877 1371.17,979.772 1360.25,979.772 M1372.5,897.022 C1352.31,897.022 1345.03,902.98 1340.39,907.945 C1339.4,900.994 1338.74,895.698 1338.74,890.402 C1338.74,871.535 1345.36,847.041 1368.53,847.041 C1376.8,847.041 1381.77,849.689 1385.08,853.33 C1378.13,856.309 1372.5,865.246 1372.5,872.859 C1372.5,884.775 1381.77,894.043 1393.68,894.043 C1405.6,894.043 1415.2,884.775 1415.2,872.859 L1415.2,871.866 C1415.2,868.887 1414.54,863.922 1413.21,861.274 C1408.91,849.358 1395.01,831.815 1361.91,831.815 C1332.12,831.815 1310.6,860.281 1303.98,875.507 C1300.67,883.451 1295.71,899.67 1295.71,918.206 C1295.71,938.397 1301.33,961.236 1320.86,978.448 C1340.06,993.012 1352.31,993.674 1363.89,993.674 C1375.48,993.674 1418.84,980.103 1418.84,941.707 C1418.84,909.269 1393.35,897.022 1372.5,897.022"/>
<path class="TimeSig" d="M1350.34,1118.01 L1350.34,1142.5 L1322.87,1142.5 C1320.55,1142.5 1318.23,1144.49 1318.23,1147.13 L1318.23,1153.42 C1318.23,1156.07 1320.55,1158.06 1322.87,1158.06 L1423.16,1158.06 C1425.81,1158.06 1427.79,1156.07 1427.79,1153.42 L1427.79,1147.13 C1427.79,1144.49 1425.81,1142.5 1423.16,1142.5 L1393.37,1142.5 L1393.37,1118.01 L1423.16,1118.01 C1425.81,1118.01 1427.79,1115.69 1427.79,1113.04 L1427.79,1106.75 C1427.79,1104.44 1425.81,1102.12 1423.16,1102.12 L1393.37,1102.12 L1393.37,1049.49 C1393.37,1047.5 1392.38,1045.85 1391.05,1045.19 L1387.08,1043.2 C1386.42,1042.87 1386.09,1042.87 1385.43,1042.87 C1384.1,1042.87 1382.78,1042.87 1381.78,1043.86 L1351.66,1071.34 C1350.67,1072.33 1350.34,1073.65 1350.34,1074.98 L1350.34,1102.12 L1311.94,1102.12 C1311.94,1102.12 1349.02,1062.4 1388.07,1010.1 C1389.4,1008.45 1389.73,1006.79 1389.73,1005.47 C1389.73,1003.81 1389.07,1002.49 1388.74,1002.16 L1381.45,994.874 C1380.46,994.212 1379.47,993.55 1378.14,993.55 C1376.16,993.55 1331.47,993.55 1328.82,993.55 C1326.51,993.55 1324.85,995.536 1324.52,997.522 C1324.52,997.522 1322.87,1022.02 1314.26,1048.83 C1305.65,1075.64 1295.72,1092.19 1287.12,1104.44 C1287.12,1104.44 1286.13,1106.09 1286.13,1108.08 C1286.13,1108.74 1286.13,1109.4 1286.46,1110.06 C1287.45,1112.38 1289.77,1116.02 1289.77,1116.02 C1289.77,1116.02 1290.43,1118.01 1293.41,1118.01 L1350.34,1118.01 "/>
<path class="Beam" fill-rule="evenodd" d="M3217.85,2936.66 L3580.42,2915.99 L3580.42,2957.39 L3217.85,2978.06 L3217.85,2936.66 "/>
<path class="Beam" fill-rule="evenodd" d="M5453.84,2068.49 L5672.2,2047.82 L5672.2,2089.34 L5453.84,2110.01 L5453.84,2068.49 "/>
<path class="NoteDot" d="M4193.51,2605.98 C4193.51,2615.25 4200.79,2622.53 4210.06,2622.53 C4219.33,2622.53 4226.61,2615.25 4226.61,2605.98 C4226.61,2596.71 4219.33,2589.43 4210.06,2589.43 C4200.79,2589.43 4193.51,2596.71 4193.51,2605.98"/>
<path class="NoteDot" d="M8614.61,869.762 C8614.61,879.03 8621.9,886.312 8631.16,886.312 C8640.43,886.312 8647.71,879.03 8647.71,869.762 C8647.71,860.494 8640.43,853.212 8631.16,853.212 C8621.9,853.212 8614.61,860.494 8614.61,869.762"/>
<path class="NoteDot" d="M2356.14,2688.66 C2356.14,2697.93 2363.42,2705.21 2372.69,2705.21 C2381.96,2705.21 2389.24,2697.93 2389.24,2688.66 C2389.24,2679.39 2381.96,2672.11 2372.69,2672.11 C2363.42,2672.11 2356.14,2679.39 2356.14,2688.66"/>
<path class="NoteDot" d="M8750.06,1903.23 C8750.06,1912.49 8757.35,1919.78 8766.61,1919.78 C8775.88,1919.78 8783.16,1912.49 8783.16,1903.23 C8783.16,1893.96 8775.88,1886.68 8766.61,1886.68 C8757.35,1886.68 8750.06,1893.96 8750.06,1903.23"/>
<path class="NoteDot" d="M8150.84,1903.23 C8150.84,1912.49 8158.12,1919.78 8167.39,1919.78 C8176.65,1919.78 8183.94,1912.49 8183.94,1903.23 C8183.94,1893.96 8176.65,1886.68 8167.39,1886.68 C8158.12,1886.68 8150.84,1893.96 8150.84,1903.23"/>
<path class="NoteDot" d="M6162.5,1737.87 C6162.5,1747.14 6169.78,1754.42 6179.05,1754.42 C6188.32,1754.42 6195.6,1747.14 6195.6,1737.87 C6195.6,1728.6 6188.32,1721.32 6179.05,1721.32 C6169.78,1721.32 6162.5,1728.6 6162.5,1737.87"/>
<path class="NoteDot" d="M8262.68,2771.34 C8262.68,2780.61 8269.96,2787.89 8279.23,2787.89 C8288.5,2787.89 8295.78,2780.61 8295.78,2771.34 C8295.78,2762.07 8288.5,2754.79 8279.23,2754.79 C8269.96,2754.79 8262.68,2762.07 8262.68,2771.34"/>
</svg>
