<?xml version="1.0" encoding="UTF-8" standalone="no"?>
<svg width="210.058mm" height="296.926mm" viewBox="0 0 9924 14028"
 xmlns="http://www.w3.org/2000/svg" xmlns:xlink="http://www.w3.org/1999/xlink" version="1.2" baseProfile="full">
<title>air_XXII</title>
<desc>Generated by MuseScore Studio 4.7.3</desc>
<polyline class="StaffLines" fill="none" stroke="#000000" stroke-width="9.09" stroke-linejoin="bevel" points="708.661,828.424 9215.34,828.424" />
<polyline class="StaffLines" fill="none" stroke="#000000" stroke-width="9.09" stroke-linejoin="bevel" points="708.661,911.101 9215.34,911.101" />
<polyline class="StaffLines" fill="none" stroke="#000000" stroke-width="9.09" stroke-linejoin="bevel" points="708.661,993.778 9215.34,993.778" />
<polyline class="StaffLines" fill="none" stroke="#000000" stroke-width="9.09" stroke-linejoin="bevel" points="708.661,1076.46 9215.34,1076.46" />
<polyline class="StaffLines" fill="none" stroke="#000000" stroke-width="9.09" stroke-linejoin="bevel" points="708.661,1159.13 9215.34,1159.13" />
<polyline class="StaffLines" fill="none" stroke="#000000" stroke-width="9.09" stroke-linejoin="bevel" points="708.661,1696.53 9215.34,1696.53" />
<polyline class="StaffLines" fill="none" stroke="#000000" stroke-width="9.09" stroke-linejoin="bevel" points="708.661,1779.21 9215.34,1779.21" />
<polyline class="StaffLines" fill="none" stroke="#000000" stroke-width="9.09" stroke-linejoin="bevel" points="708.661,1861.89 9215.34,1861.89" />
<polyline class="StaffLines" fill="none" stroke="#000000" stroke-width="9.09" stroke-linejoin="bevel" points="708.661,1944.57 9215.34,1944.57" />
<polyline class="StaffLines" fill="none" stroke="#000000" stroke-width="9.09" stroke-linejoin="bevel" points="708.661,2027.24 9215.34,2027.24" />
<polyline class="BarLine" fill="none" stroke="#000000" stroke-width="14.88" stroke-linejoin="bevel" points="3280.3,823.876 3280.3,1163.68" />
<polyline class="BarLine" fill="none" stroke="#000000" stroke-width="14.88" stroke-linejoin="bevel" points="7182.56,1691.99 7182.56,2031.79" />
<polyline class="BarLine" fill="none" stroke="#000000" stroke-width="14.88" stroke-linejoin="bevel" points="4867.06,1691.99 4867.06,2031.79" />
<polyline class="BarLine" fill="none" stroke="#000000" stroke-width="14.88" stroke-linejoin="bevel" points="3064.27,1691.99 3064.27,2031.79" />
<polyline class="BarLine" fill="none" stroke="#000000" stroke-width="14.88" stroke-linejoin="bevel" points="9131.84,1691.99 9131.84,2031.79" />
<polyline class="BarLine" fill="none" stroke="#000000" stroke-width="45.47" stroke-linejoin="bevel" points="9192.6,1691.99 9192.6,2031.79" />
<polyline class="BarLine" fill="none" stroke="#000000" stroke-width="45.47" stroke-linejoin="bevel" points="1135.72,1691.99 1135.72,2031.79" />
<polyline class="BarLine" fill="none" stroke="#000000" stroke-width="14.88" stroke-linejoin="bevel" points="1196.48,1691.99 1196.48,2031.79" />
<path class="BarLine" d="M1268.93,1820.55 C1268.93,1810.95 1261.32,1803.01 1251.72,1803.01 C1242.12,1803.01 1234.51,1810.95 1234.51,1820.55 C1234.51,1830.15 1242.12,1838.09 1251.72,1838.09 C1261.32,1838.09 1268.93,1830.15 1268.93,1820.55"/>
<path class="BarLine" d="M1268.93,1903.23 C1268.93,1893.63 1261.32,1885.68 1251.72,1885.68 C1242.12,1885.68 1234.51,1893.63 1234.51,1903.23 C1234.51,1912.83 1242.12,1920.77 1251.72,1920.77 C1261.32,1920.77 1268.93,1912.83 1268.93,1903.23"/>
<path class="BarLine" d="M9093.83,952.439 C9093.83,942.84 9086.22,934.896 9076.62,934.896 C9067.02,934.896 9059.41,942.84 9059.41,952.439 C9059.41,962.038 9067.02,969.982 9076.62,969.982 C9086.22,969.982 9093.83,962.038 9093.83,952.439"/>
<path class="BarLine" d="M9093.83,1035.12 C9093.83,1025.52 9086.22,1017.57 9076.62,1017.57 C9067.02,1017.57 9059.41,1025.52 9059.41,1035.12 C9059.41,1044.72 9067.02,1052.66 9076.62,1052.66 C9086.22,1052.66 9093.83,1044.72 9093.83,1035.12"/>
<polyline class="BarLine" fill="none" stroke="#000000" stroke-width="14.88" stroke-linejoin="bevel" points="9131.84,823.876 9131.84,1163.68" />
<polyline class="BarLine" fill="none" stroke="#000000" stroke-width="45.47" stroke-linejoin="bevel" points="9192.6,823.876 9192.6,1163.68" />
<polyline class="BarLine" fill="none" stroke="#000000" stroke-width="14.88" stroke-linejoin="bevel" points="7531.61,823.876 7531.61,1163.68" />
<polyline class="BarLine" fill="none" stroke="#000000" stroke-width="14.88" stroke-linejoin="bevel" points="5366.6,823.876 5366.6,1163.68" />
<path class="SlurSegment" stroke="#000000" stroke-width="4.13" stroke-linecap="round" stroke-linejoin="round" fill-rule="evenodd" d="M7696.15,809.408 C7886.24,692.665 8240.49,726.976 8404.65,878.03 C8237.94,753.31 7883.69,718.999 7696.15,809.408"/>
<polyline class="Stem" fill="none" stroke="#000000" stroke-width="8.27" stroke-linejoin="bevel" points="2108.81,1834.44 2108.81,2047.63" />
<polyline class="Stem" fill="none" stroke="#000000" stroke-width="8.27" stroke-linejoin="bevel" points="2804.66,966.329 2804.66,1221.14" />
<polyline class="Stem" fill="none" stroke="#000000" stroke-width="8.27" stroke-linejoin="bevel" points="7297.48,1710.42 7297.48,2006.77" />
<polyline class="Stem" fill="none" stroke="#000000" stroke-width="8.27" stroke-linejoin="bevel" points="4339.89,883.652 4339.89,1179.8" />
<polyline class="Stem" fill="none" stroke="#000000" stroke-width="8.27" stroke-linejoin="bevel" points="6886.28,1751.76 6886.28,2027.24" />
<polyline class="Stem" fill="none" stroke="#000000" stroke-width="8.27" stroke-linejoin="bevel" points="4654.79,924.991 4654.79,1200.47" />
<polyline class="Stem" fill="none" stroke="#000000" stroke-width="8.27" stroke-linejoin="bevel" points="6593.31,1793.1 6593.31,2027.24" />
<polyline class="Stem" fill="none" stroke="#000000" stroke-width="8.27" stroke-linejoin="bevel" points="2332.32,1007.67 2332.32,1241.81" />
<polyline class="Stem" fill="none" stroke="#000000" stroke-width="8.27" stroke-linejoin="bevel" points="3710.11,966.329 3710.11,1179.8" />
<polyline class="Stem" fill="none" stroke="#000000" stroke-width="8.27" stroke-linejoin="bevel" points="5580.73,1063.23 5580.73,787.085" />
<polyline class="Stem" fill="none" stroke="#000000" stroke-width="8.27" stroke-linejoin="bevel" points="6300.34,1751.76 6300.34,2027.24" />
<polyline class="Stem" fill="none" stroke="#000000" stroke-width="8.27" stroke-linejoin="bevel" points="5953.85,966.329 5953.85,1221.14" />
<polyline class="Stem" fill="none" stroke="#000000" stroke-width="8.27" stroke-linejoin="bevel" points="6007.38,1710.42 6007.38,2027.24" />
<polyline class="Stem" fill="none" stroke="#000000" stroke-width="8.27" stroke-linejoin="bevel" points="6426.19,1007.67 6426.19,1241.81" />
<polyline class="Stem" fill="none" stroke="#000000" stroke-width="8.27" stroke-linejoin="bevel" points="5714.41,1751.76 5714.41,2006.86" />
<polyline class="Stem" fill="none" stroke="#000000" stroke-width="8.27" stroke-linejoin="bevel" points="6898.52,966.329 6898.52,1179.54" />
<polyline class="Stem" fill="none" stroke="#000000" stroke-width="8.27" stroke-linejoin="bevel" points="5421.44,1793.1 5421.44,2026.96" />
<polyline class="Stem" fill="none" stroke="#000000" stroke-width="8.27" stroke-linejoin="bevel" points="4981.99,1751.76 4981.99,2027.24" />
<polyline class="Stem" fill="none" stroke="#000000" stroke-width="8.27" stroke-linejoin="bevel" points="7213.42,924.991 7213.42,1159.4" />
<polyline class="Stem" fill="none" stroke="#000000" stroke-width="8.27" stroke-linejoin="bevel" points="7590.45,1751.76 7590.45,2020.42" />
<polyline class="Stem" fill="none" stroke="#000000" stroke-width="8.27" stroke-linejoin="bevel" points="4204.58,1793.1 4204.58,2068.58" />
<polyline class="Stem" fill="none" stroke="#000000" stroke-width="8.27" stroke-linejoin="bevel" points="7883.41,1793.1 7883.41,2034.07" />
<polyline class="Stem" fill="none" stroke="#000000" stroke-width="8.27" stroke-linejoin="bevel" points="7646.53,924.991 7646.53,1200.47" />
<polyline class="Stem" fill="none" stroke="#000000" stroke-width="8.27" stroke-linejoin="bevel" points="3911.61,1834.44 3911.61,2047.63" />
<polyline class="Stem" fill="none" stroke="#000000" stroke-width="8.27" stroke-linejoin="bevel" points="8355.04,966.329 8355.04,1221.14" />
<polyline class="Stem" fill="none" stroke="#000000" stroke-width="8.27" stroke-linejoin="bevel" points="3618.64,1793.1 3618.64,2027.53" />
<polyline class="Stem" fill="none" stroke="#000000" stroke-width="8.27" stroke-linejoin="bevel" points="1859.99,966.329 1859.99,1221.14" />
<polyline class="Stem" fill="none" stroke="#000000" stroke-width="8.27" stroke-linejoin="bevel" points="3395.22,924.991 3395.22,1179.8" />
<polyline class="Stem" fill="none" stroke="#000000" stroke-width="8.27" stroke-linejoin="bevel" points="8176.38,1834.44 8176.38,2047.72" />
<polyline class="Stem" fill="none" stroke="#000000" stroke-width="8.27" stroke-linejoin="bevel" points="3179.19,1751.76 3179.19,2027.24" />
<polyline class="Stem" fill="none" stroke="#000000" stroke-width="8.27" stroke-linejoin="bevel" points="8469.35,1793.1 8469.35,2068.58" />
<polyline class="Stem" fill="none" stroke="#000000" stroke-width="8.27" stroke-linejoin="bevel" points="2401.78,1793.1 2401.78,2068.58" />
<polyline class="Stem" fill="none" stroke="#000000" stroke-width="8.27" stroke-linejoin="bevel" points="1376.39,1751.76 1376.39,2027.24" />
<polyline class="Stem" fill="none" stroke="#000000" stroke-width="8.27" stroke-linejoin="bevel" points="1486.86,1063.23 1486.86,787.085" />
<polyline class="Stem" fill="none" stroke="#000000" stroke-width="8.27" stroke-linejoin="bevel" points="1815.85,1793.1 1815.85,2027.53" />
<polyline class="Stem" fill="none" stroke="#000000" stroke-width="8.27" stroke-linejoin="bevel" points="4025,924.991 4025,1179.8" />
<path class="Note" d="M2104.68,1834.45 C2104.68,1848.68 2114.94,1864.57 2141.75,1864.57 C2176.18,1864.57 2212.25,1836.44 2212.25,1807.31 C2212.25,1787.78 2195.7,1776.86 2175.18,1776.86 C2143.08,1776.86 2104.68,1804 2104.68,1834.45"/>
<path class="Note" d="M4020.87,925.003 C4020.87,939.236 4031.13,955.124 4057.94,955.124 C4092.37,955.124 4128.45,926.989 4128.45,897.861 C4128.45,878.332 4111.9,867.409 4091.37,867.409 C4059.27,867.409 4020.87,894.551 4020.87,925.003"/>
<path class="Note" d="M1811.71,1793.11 C1811.71,1807.35 1821.97,1823.23 1848.78,1823.23 C1883.21,1823.23 1919.29,1795.1 1919.29,1765.97 C1919.29,1746.44 1902.74,1735.52 1882.21,1735.52 C1850.11,1735.52 1811.71,1762.66 1811.71,1793.11"/>
<path class="Note" d="M1383.52,1090.36 C1383.52,1104.59 1393.78,1120.48 1420.59,1120.48 C1455.01,1120.48 1491.09,1092.34 1491.09,1063.22 C1491.09,1043.69 1474.54,1032.76 1454.02,1032.76 C1421.91,1032.76 1383.52,1059.91 1383.52,1090.36"/>
<path class="Note" d="M2422.47,1807.68 C2411.55,1807.68 2409.23,1798.74 2409.23,1795.76 C2409.23,1779.54 2464.84,1751.08 2480.4,1751.08 C2488.34,1751.08 2493.64,1755.71 2493.64,1762.99 C2493.64,1779.54 2437.7,1807.68 2422.47,1807.68 M2468.15,1735.52 C2436.04,1735.52 2397.65,1762.33 2397.65,1793.11 C2397.65,1807.35 2407.91,1823.23 2434.72,1823.23 C2469.14,1823.23 2505.22,1795.1 2505.22,1765.97 C2505.22,1746.44 2488.67,1735.52 2468.15,1735.52"/>
<path class="Note" d="M8490.04,1807.68 C8479.12,1807.68 8476.8,1798.74 8476.8,1795.76 C8476.8,1779.54 8532.41,1751.08 8547.97,1751.08 C8555.91,1751.08 8561.21,1755.71 8561.21,1762.99 C8561.21,1779.54 8505.27,1807.68 8490.04,1807.68 M8535.72,1735.52 C8503.61,1735.52 8465.22,1762.33 8465.22,1793.11 C8465.22,1807.35 8475.48,1823.23 8502.29,1823.23 C8536.71,1823.23 8572.79,1795.1 8572.79,1765.97 C8572.79,1746.44 8556.24,1735.52 8535.72,1735.52"/>
<path class="Note" d="M2800.53,966.341 C2800.53,980.574 2810.79,996.462 2837.6,996.462 C2872.02,996.462 2908.1,968.327 2908.1,939.199 C2908.1,919.67 2891.55,908.747 2871.03,908.747 C2838.92,908.747 2800.53,935.889 2800.53,966.341"/>
<path class="Note" d="M8172.25,1834.45 C8172.25,1848.68 8182.51,1864.57 8209.32,1864.57 C8243.74,1864.57 8279.82,1836.44 8279.82,1807.31 C8279.82,1787.78 8263.27,1776.86 8242.75,1776.86 C8210.64,1776.86 8172.25,1804 8172.25,1834.45"/>
<path class="Note" d="M3175.06,1751.77 C3175.06,1766.01 3185.32,1781.9 3212.13,1781.9 C3246.55,1781.9 3282.63,1753.76 3282.63,1724.63 C3282.63,1705.1 3266.08,1694.18 3245.56,1694.18 C3213.45,1694.18 3175.06,1721.32 3175.06,1751.77"/>
<path class="Note" d="M8375.73,980.905 C8364.81,980.905 8362.49,971.968 8362.49,968.989 C8362.49,952.77 8418.1,924.304 8433.65,924.304 C8441.6,924.304 8446.89,928.938 8446.89,936.22 C8446.89,952.77 8390.96,980.905 8375.73,980.905 M8421.41,908.747 C8389.3,908.747 8350.9,935.558 8350.9,966.341 C8350.9,980.574 8361.17,996.462 8387.98,996.462 C8422.4,996.462 8458.48,968.327 8458.48,939.199 C8458.48,919.67 8441.93,908.747 8421.41,908.747"/>
<path class="Note" d="M3614.51,1793.11 C3614.51,1807.35 3624.77,1823.23 3651.58,1823.23 C3686,1823.23 3722.08,1795.1 3722.08,1765.97 C3722.08,1746.44 3705.53,1735.52 3685.01,1735.52 C3652.9,1735.52 3614.51,1762.66 3614.51,1793.11"/>
<path class="Note" d="M2328.19,1007.68 C2328.19,1021.91 2338.45,1037.8 2365.26,1037.8 C2399.69,1037.8 2435.76,1009.67 2435.76,980.538 C2435.76,961.009 2419.21,950.086 2398.69,950.086 C2366.59,950.086 2328.19,977.228 2328.19,1007.68"/>
<path class="Note" d="M7667.23,939.567 C7656.3,939.567 7653.99,930.63 7653.99,927.651 C7653.99,911.432 7709.59,882.966 7725.15,882.966 C7733.09,882.966 7738.39,887.6 7738.39,894.882 C7738.39,911.432 7682.45,939.567 7667.23,939.567 M7712.9,867.409 C7680.8,867.409 7642.4,894.22 7642.4,925.003 C7642.4,939.236 7652.66,955.124 7679.47,955.124 C7713.9,955.124 7749.98,926.989 7749.98,897.861 C7749.98,878.332 7733.43,867.409 7712.9,867.409"/>
<path class="Note" d="M3907.48,1834.45 C3907.48,1848.68 3917.74,1864.57 3944.55,1864.57 C3978.97,1864.57 4015.05,1836.44 4015.05,1807.31 C4015.05,1787.78 3998.5,1776.86 3977.98,1776.86 C3945.87,1776.86 3907.48,1804 3907.48,1834.45"/>
<path class="Note" d="M1855.85,966.341 C1855.85,980.574 1866.11,996.462 1892.93,996.462 C1927.35,996.462 1963.43,968.327 1963.43,939.199 C1963.43,919.67 1946.88,908.747 1926.36,908.747 C1894.25,908.747 1855.85,935.889 1855.85,966.341"/>
<path class="Note" d="M4225.27,1807.68 C4214.35,1807.68 4212.03,1798.74 4212.03,1795.76 C4212.03,1779.54 4267.64,1751.08 4283.2,1751.08 C4291.14,1751.08 4296.44,1755.71 4296.44,1762.99 C4296.44,1779.54 4240.5,1807.68 4225.27,1807.68 M4270.95,1735.52 C4238.84,1735.52 4200.45,1762.33 4200.45,1793.11 C4200.45,1807.35 4210.71,1823.23 4237.52,1823.23 C4271.94,1823.23 4308.02,1795.1 4308.02,1765.97 C4308.02,1746.44 4291.47,1735.52 4270.95,1735.52"/>
<path class="Note" d="M7879.28,1793.11 C7879.28,1807.35 7889.54,1823.23 7916.35,1823.23 C7950.78,1823.23 7986.86,1795.1 7986.86,1765.97 C7986.86,1746.44 7970.31,1735.52 7949.78,1735.52 C7917.68,1735.52 7879.28,1762.66 7879.28,1793.11"/>
<path class="Note" d="M7209.28,925.003 C7209.28,939.236 7219.54,955.124 7246.35,955.124 C7280.78,955.124 7316.86,926.989 7316.86,897.861 C7316.86,878.332 7300.31,867.409 7279.78,867.409 C7247.68,867.409 7209.28,894.551 7209.28,925.003"/>
<path class="Note" d="M3391.09,925.003 C3391.09,939.236 3401.35,955.124 3428.16,955.124 C3462.59,955.124 3498.66,926.989 3498.66,897.861 C3498.66,878.332 3482.11,867.409 3461.59,867.409 C3429.49,867.409 3391.09,894.551 3391.09,925.003"/>
<path class="Note" d="M4977.85,1751.77 C4977.85,1766.01 4988.11,1781.9 5014.92,1781.9 C5049.35,1781.9 5085.43,1753.76 5085.43,1724.63 C5085.43,1705.1 5068.88,1694.18 5048.36,1694.18 C5016.25,1694.18 4977.85,1721.32 4977.85,1751.77"/>
<path class="Note" d="M6894.39,966.341 C6894.39,980.574 6904.65,996.462 6931.46,996.462 C6965.89,996.462 7001.97,968.327 7001.97,939.199 C7001.97,919.67 6985.42,908.747 6964.89,908.747 C6932.79,908.747 6894.39,935.889 6894.39,966.341"/>
<path class="Note" d="M5417.3,1793.11 C5417.3,1807.35 5427.57,1823.23 5454.38,1823.23 C5488.8,1823.23 5524.88,1795.1 5524.88,1765.97 C5524.88,1746.44 5508.33,1735.52 5487.81,1735.52 C5455.7,1735.52 5417.3,1762.66 5417.3,1793.11"/>
<path class="Note" d="M7586.31,1751.77 C7586.31,1766.01 7596.57,1781.9 7623.38,1781.9 C7657.81,1781.9 7693.89,1753.76 7693.89,1724.63 C7693.89,1705.1 7677.34,1694.18 7656.82,1694.18 C7624.71,1694.18 7586.31,1721.32 7586.31,1751.77"/>
<path class="Note" d="M6422.06,1007.68 C6422.06,1021.91 6432.32,1037.8 6459.13,1037.8 C6493.55,1037.8 6529.63,1009.67 6529.63,980.538 C6529.63,961.009 6513.08,950.086 6492.56,950.086 C6460.45,950.086 6422.06,977.228 6422.06,1007.68"/>
<path class="Note" d="M5710.27,1751.77 C5710.27,1766.01 5720.53,1781.9 5747.35,1781.9 C5781.77,1781.9 5817.85,1753.76 5817.85,1724.63 C5817.85,1705.1 5801.3,1694.18 5780.78,1694.18 C5748.67,1694.18 5710.27,1721.32 5710.27,1751.77"/>
<path class="Note" d="M5949.72,966.341 C5949.72,980.574 5959.98,996.462 5986.79,996.462 C6021.22,996.462 6057.29,968.327 6057.29,939.199 C6057.29,919.67 6040.74,908.747 6020.22,908.747 C5988.12,908.747 5949.72,935.889 5949.72,966.341"/>
<path class="Note" d="M6003.24,1710.44 C6003.24,1724.67 6013.5,1740.56 6040.31,1740.56 C6074.74,1740.56 6110.82,1712.42 6110.82,1683.29 C6110.82,1663.76 6094.27,1652.84 6073.74,1652.84 C6041.64,1652.84 6003.24,1679.98 6003.24,1710.44"/>
<path class="Note" d="M7293.34,1710.44 C7293.34,1724.67 7303.6,1740.56 7330.42,1740.56 C7364.84,1740.56 7400.92,1712.42 7400.92,1683.29 C7400.92,1663.76 7384.37,1652.84 7363.85,1652.84 C7331.74,1652.84 7293.34,1679.98 7293.34,1710.44"/>
<path class="Note" d="M5477.38,1090.36 C5477.38,1104.59 5487.64,1120.48 5514.46,1120.48 C5548.88,1120.48 5584.96,1092.34 5584.96,1063.22 C5584.96,1043.69 5568.41,1032.76 5547.89,1032.76 C5515.78,1032.76 5477.38,1059.91 5477.38,1090.36"/>
<path class="Note" d="M6296.21,1751.77 C6296.21,1766.01 6306.47,1781.9 6333.28,1781.9 C6367.71,1781.9 6403.79,1753.76 6403.79,1724.63 C6403.79,1705.1 6387.24,1694.18 6366.71,1694.18 C6334.61,1694.18 6296.21,1721.32 6296.21,1751.77"/>
<path class="Note" d="M4675.48,939.567 C4664.55,939.567 4662.24,930.63 4662.24,927.651 C4662.24,911.432 4717.84,882.966 4733.4,882.966 C4741.35,882.966 4746.64,887.6 4746.64,894.882 C4746.64,911.432 4690.7,939.567 4675.48,939.567 M4721.15,867.409 C4689.05,867.409 4650.65,894.22 4650.65,925.003 C4650.65,939.236 4660.91,955.124 4687.72,955.124 C4722.15,955.124 4758.23,926.989 4758.23,897.861 C4758.23,878.332 4741.68,867.409 4721.15,867.409"/>
<path class="Note" d="M6589.18,1793.11 C6589.18,1807.35 6599.44,1823.23 6626.25,1823.23 C6660.67,1823.23 6696.75,1795.1 6696.75,1765.97 C6696.75,1746.44 6680.2,1735.52 6659.68,1735.52 C6627.57,1735.52 6589.18,1762.66 6589.18,1793.11"/>
<path class="Note" d="M4335.76,883.664 C4335.76,897.897 4346.02,913.785 4372.83,913.785 C4407.26,913.785 4443.34,885.65 4443.34,856.522 C4443.34,836.993 4426.79,826.07 4406.26,826.07 C4374.16,826.07 4335.76,853.212 4335.76,883.664"/>
<path class="Note" d="M6882.15,1751.77 C6882.15,1766.01 6892.41,1781.9 6919.22,1781.9 C6953.64,1781.9 6989.72,1753.76 6989.72,1724.63 C6989.72,1705.1 6973.17,1694.18 6952.65,1694.18 C6920.54,1694.18 6882.15,1721.32 6882.15,1751.77"/>
<path class="Note" d="M3705.98,966.341 C3705.98,980.574 3716.24,996.462 3743.05,996.462 C3777.48,996.462 3813.55,968.327 3813.55,939.199 C3813.55,919.67 3797,908.747 3776.48,908.747 C3744.38,908.747 3705.98,935.889 3705.98,966.341"/>
<path class="Note" d="M1372.26,1751.77 C1372.26,1766.01 1382.52,1781.9 1409.33,1781.9 C1443.75,1781.9 1479.83,1753.76 1479.83,1724.63 C1479.83,1705.1 1463.28,1694.18 1442.76,1694.18 C1410.65,1694.18 1372.26,1721.32 1372.26,1751.77"/>
<path class="Clef" d="M909.689,1144.64 C903.069,1145.97 896.78,1146.63 890.491,1146.63 C843.158,1146.63 802.776,1113.53 802.776,1063.55 C802.776,1023.16 831.242,987.085 860.37,961.929 C865.997,956.964 871.293,952.33 876.258,947.365 C879.237,965.239 881.554,980.796 883.871,994.367 C853.75,1003.3 833.228,1035.08 833.228,1066.19 C833.228,1089.36 851.433,1121.14 877.913,1121.14 C880.561,1121.14 883.54,1119.82 883.54,1116.84 C883.54,1113.86 880.23,1112.2 876.258,1109.56 C863.349,1101.61 856.067,1093.01 856.067,1076.79 C856.067,1056.6 870.962,1040.38 890.491,1035.74 L909.689,1144.64 M880.561,804.373 C883.54,791.133 898.766,756.378 915.978,756.378 C920.943,756.378 928.887,772.597 928.887,795.436 C928.887,829.86 903.4,855.678 880.561,878.186 C878.575,864.946 876.92,852.037 876.92,838.135 C876.92,825.888 877.913,814.634 880.561,804.373 M956.691,1083.41 C956.691,1106.91 947.092,1131.07 923.591,1140.67 C916.64,1100.95 907.703,1048.32 905.386,1033.76 C935.176,1033.76 956.691,1053.95 956.691,1083.41 M811.051,1246.26 C811.051,1268.1 827.932,1296.9 872.617,1296.9 C888.174,1296.9 901.745,1292.93 913.661,1285.65 C931.535,1273.07 936.169,1251.22 936.169,1230.37 C936.169,1217.46 934.183,1202.57 930.873,1183.7 C929.88,1177.08 927.894,1167.15 925.908,1154.24 C958.346,1143.65 982.509,1109.89 982.509,1075.79 C982.509,1025.81 947.092,992.05 898.766,992.05 C895.456,972.19 892.146,952.661 889.167,934.125 C924.253,897.384 948.416,856.009 948.416,803.38 C948.416,773.259 939.148,748.765 933.852,736.849 C925.908,719.968 916.309,708.383 910.351,708.383 C908.034,708.383 897.773,712.355 886.85,725.264 C865.666,750.42 859.708,792.788 859.708,820.592 C859.708,838.466 861.363,854.685 866.99,891.757 C866.659,892.088 849.447,909.631 842.496,915.258 C812.375,943.393 770.669,983.444 770.669,1049.64 C770.669,1111.54 824.622,1160.2 886.188,1160.2 C895.787,1160.2 904.724,1159.21 912.337,1157.88 C918.626,1189.66 922.267,1212.83 922.267,1230.37 C922.267,1264.79 904.724,1283 871.293,1283 C863.349,1283 856.398,1281.34 855.736,1281.34 C855.405,1281.01 854.743,1280.68 854.743,1280.35 C854.743,1279.69 855.405,1279.36 856.398,1279.03 C871.955,1276.71 887.512,1263.47 887.512,1242.29 C887.512,1224.41 873.941,1205.55 849.116,1205.55 C825.946,1205.55 811.051,1224.41 811.051,1246.26"/>
<path class="Clef" d="M909.689,2012.75 C903.069,2014.08 896.78,2014.74 890.491,2014.74 C843.158,2014.74 802.776,1981.64 802.776,1931.66 C802.776,1891.27 831.242,1855.2 860.37,1830.04 C865.997,1825.07 871.293,1820.44 876.258,1815.48 C879.237,1833.35 881.554,1848.91 883.871,1862.48 C853.75,1871.41 833.228,1903.19 833.228,1934.3 C833.228,1957.47 851.433,1989.25 877.913,1989.25 C880.561,1989.25 883.54,1987.93 883.54,1984.95 C883.54,1981.97 880.23,1980.31 876.258,1977.67 C863.349,1969.72 856.067,1961.12 856.067,1944.9 C856.067,1924.71 870.962,1908.49 890.491,1903.85 L909.689,2012.75 M880.561,1672.48 C883.54,1659.24 898.766,1624.49 915.978,1624.49 C920.943,1624.49 928.887,1640.71 928.887,1663.55 C928.887,1697.97 903.4,1723.79 880.561,1746.3 C878.575,1733.06 876.92,1720.15 876.92,1706.25 C876.92,1694 877.913,1682.74 880.561,1672.48 M956.691,1951.52 C956.691,1975.02 947.092,1999.18 923.591,2008.78 C916.64,1969.06 907.703,1916.43 905.386,1901.87 C935.176,1901.87 956.691,1922.06 956.691,1951.52 M811.051,2114.37 C811.051,2136.21 827.932,2165.01 872.617,2165.01 C888.174,2165.01 901.745,2161.04 913.661,2153.76 C931.535,2141.18 936.169,2119.33 936.169,2098.48 C936.169,2085.57 934.183,2070.68 930.873,2051.81 C929.88,2045.19 927.894,2035.26 925.908,2022.35 C958.346,2011.76 982.509,1978 982.509,1943.9 C982.509,1893.92 947.092,1860.16 898.766,1860.16 C895.456,1840.3 892.146,1820.77 889.167,1802.24 C924.253,1765.49 948.416,1724.12 948.416,1671.49 C948.416,1641.37 939.148,1616.88 933.852,1604.96 C925.908,1588.08 916.309,1576.49 910.351,1576.49 C908.034,1576.49 897.773,1580.47 886.85,1593.37 C865.666,1618.53 859.708,1660.9 859.708,1688.7 C859.708,1706.58 861.363,1722.8 866.99,1759.87 C866.659,1760.2 849.447,1777.74 842.496,1783.37 C812.375,1811.5 770.669,1851.55 770.669,1917.75 C770.669,1979.65 824.622,2028.31 886.188,2028.31 C895.787,2028.31 904.724,2027.32 912.337,2025.99 C918.626,2057.77 922.267,2080.94 922.267,2098.48 C922.267,2132.9 904.724,2151.11 871.293,2151.11 C863.349,2151.11 856.398,2149.45 855.736,2149.45 C855.405,2149.12 854.743,2148.79 854.743,2148.46 C854.743,2147.8 855.405,2147.47 856.398,2147.14 C871.955,2144.82 887.512,2131.58 887.512,2110.4 C887.512,2092.52 873.941,2073.66 849.116,2073.66 C825.946,2073.66 811.051,2092.52 811.051,2114.37"/>
<path class="TimeSig" d="M1172.6,934.529 C1164.33,939.825 1158.37,949.424 1158.37,960.016 C1158.37,961.34 1158.37,962.664 1158.7,963.988 C1160.35,977.559 1171.28,988.151 1184.85,989.806 L1188.49,989.806 C1205.04,989.806 1218.28,976.566 1218.28,960.016 L1218.28,958.03 C1218.28,956.706 1217.95,954.389 1217.62,953.065 C1214.64,938.832 1201.73,908.38 1145.46,908.38 C1073.3,908.38 1065.03,968.291 1065.03,989.806 C1065.03,1029.2 1069.99,1078.51 1152.74,1078.51 C1185.51,1078.51 1211,1059.32 1212.32,1023.9 C1212.32,1022.24 1211.33,1021.25 1209.67,1021.25 L1205.37,1021.25 C1204.05,1021.25 1202.72,1022.58 1202.72,1023.9 C1201.4,1051.37 1181.87,1067.92 1152.74,1067.92 C1123.94,1067.92 1110.04,1052.37 1110.04,1023.24 L1110.04,960.016 C1110.04,941.48 1117.32,920.296 1146.78,920.296 C1162.34,920.296 1169.29,925.923 1172.93,931.55 C1173.26,932.212 1173.26,932.543 1173.26,933.205 C1173.26,933.536 1173.26,934.198 1172.6,934.529"/>
<path class="Beam" fill-rule="evenodd" d="M6003.24,2006.57 L6890.41,2006.57 L6890.41,2047.91 L6003.24,2047.91 L6003.24,2006.57 "/>
<path class="Beam" fill-rule="evenodd" d="M7293.34,1985.88 L8180.52,2027.22 L8180.52,2068.6 L7293.34,2027.27 L7293.34,1985.88 "/>
<path class="Beam" fill-rule="evenodd" d="M3391.09,1159.13 L4344.03,1159.13 L4344.03,1200.47 L3391.09,1200.47 L3391.09,1159.13 "/>
<path class="Beam" fill-rule="evenodd" d="M5417.3,2006.52 L5718.54,1985.86 L5718.54,2027.29 L5417.3,2047.96 L5417.3,2006.52 "/>
<path class="Beam" fill-rule="evenodd" d="M6894.39,1159.09 L7217.55,1138.42 L7217.55,1179.84 L6894.39,1200.51 L6894.39,1159.09 "/>
<path class="Beam" fill-rule="evenodd" d="M3614.51,2006.52 L3915.74,2027.19 L3915.74,2068.63 L3614.51,2047.96 L3614.51,2006.52 "/>
<path class="Beam" fill-rule="evenodd" d="M1811.71,2006.52 L2112.95,2027.19 L2112.95,2068.63 L1811.71,2047.96 L1811.71,2006.52 "/>
</svg>
