<?xml version="1.0" encoding="UTF-8" standalone="no"?>
<svg width="210.058mm" height="296.926mm" viewBox="0 0 9924 14028"
 xmlns="http://www.w3.org/2000/svg" xmlns:xlink="http://www.w3.org/1999/xlink" version="1.2" baseProfile="full">
<title>air_LXII</title>
<desc>Generated by MuseScore Studio 4.7.3</desc>
<polyline class="StaffLines" fill="none" stroke="#000000" stroke-width="9.09" stroke-linejoin="bevel" points="708.661,828.424 9215.34,828.424" />
<polyline class="StaffLines" fill="none" stroke="#000000" stroke-width="9.09" stroke-linejoin="bevel" points="708.661,911.101 9215.34,911.101" />
<polyline class="StaffLines" fill="none" stroke="#000000" stroke-width="9.09" stroke-linejoin="bevel" points="708.661,993.778 9215.34,993.778" />
<polyline class="StaffLines" fill="none" stroke="#000000" stroke-width="9.09" stroke-linejoin="bevel" points="708.661,1076.46 9215.34,1076.46" />
<polyline class="StaffLines" fill="none" stroke="#000000" stroke-width="9.09" stroke-linejoin="bevel" points="708.661,1159.13 9215.34,1159.13" />
<polyline class="BarLine" fill="none" stroke="#000000" stroke-width="14.88" stroke-linejoin="bevel" points="3382.08,823.876 3382.08,1163.68" />
<polyline class="BarLine" fill="none" stroke="#000000" stroke-width="14.88" stroke-linejoin="bevel" points="7417.39,823.876 7417.39,1163.68" />
<polyline class="BarLine" fill="none" stroke="#000000" stroke-width="14.88" stroke-linejoin="bevel" points="5425.61,823.876 5425.61,1163.68" />
<polyline class="BarLine" fill="none" stroke="#000000" stroke-width="14.88" stroke-linejoin="bevel" points="9131.84,823.876 9131.84,1163.68" />
<polyline class="BarLine" fill="none" stroke="#000000" stroke-width="45.47" stroke-linejoin="bevel" points="9192.6,823.876 9192.6,1163.68" />
<path class="Accidental" d="M3469.08,927.945 L3498.53,921.987 L3498.53,976.602 L3469.08,982.891 L3469.08,927.945 M3520.38,917.684 C3522.37,917.353 3524.02,915.036 3524.02,913.05 L3524.02,893.521 C3524.02,890.873 3522.04,888.887 3519.39,888.887 L3518.73,888.887 L3507.8,891.204 L3507.8,841.885 L3498.53,841.885 L3498.53,893.19 L3469.08,899.148 L3469.08,852.477 L3459.81,852.477 L3459.81,901.134 L3446.9,903.782 C3444.91,904.113 3443.26,906.43 3443.26,908.416 L3443.26,927.614 C3443.26,930.262 3445.24,932.248 3447.89,932.248 L3448.88,932.248 L3459.81,929.931 L3459.81,984.546 L3446.9,987.194 C3444.91,987.525 3443.26,989.842 3443.26,991.828 L3443.26,1011.03 C3443.26,1013.67 3445.24,1015.66 3447.89,1015.66 L3448.88,1015.66 L3459.81,1013.34 L3459.81,1062.66 L3469.08,1062.66 L3469.08,1011.36 L3498.53,1005.4 L3498.53,1052.07 L3507.8,1052.07 L3507.8,1003.41 L3520.38,1001.1 C3522.37,1000.77 3524.02,998.448 3524.02,996.462 L3524.02,976.933 C3524.02,974.285 3522.04,972.299 3519.39,972.299 L3518.73,972.299 L3507.8,974.616 L3507.8,920.001 L3520.38,917.684 "/>
<polyline class="Stem" fill="none" stroke="#000000" stroke-width="8.27" stroke-linejoin="bevel" points="2143.71,924.991 2143.71,1200.47" />
<polyline class="Stem" fill="none" stroke="#000000" stroke-width="8.27" stroke-linejoin="bevel" points="8170.8,883.652 8170.8,1159.13" />
<polyline class="Stem" fill="none" stroke="#000000" stroke-width="8.27" stroke-linejoin="bevel" points="7532.31,883.652 7532.31,1159.13" />
<polyline class="Stem" fill="none" stroke="#000000" stroke-width="8.27" stroke-linejoin="bevel" points="2953.11,883.652 2953.11,1158.8" />
<polyline class="Stem" fill="none" stroke="#000000" stroke-width="8.27" stroke-linejoin="bevel" points="1505.23,924.991 1505.23,1200.47" />
<polyline class="Stem" fill="none" stroke="#000000" stroke-width="8.27" stroke-linejoin="bevel" points="3548.76,966.329 3548.76,1221.14" />
<polyline class="Stem" fill="none" stroke="#000000" stroke-width="8.27" stroke-linejoin="bevel" points="6988.42,924.991 6988.42,1200.14" />
<polyline class="Stem" fill="none" stroke="#000000" stroke-width="8.27" stroke-linejoin="bevel" points="4187.25,966.329 4187.25,1221.14" />
<polyline class="Stem" fill="none" stroke="#000000" stroke-width="8.27" stroke-linejoin="bevel" points="6179.02,924.991 6179.02,1200.47" />
<polyline class="Stem" fill="none" stroke="#000000" stroke-width="8.27" stroke-linejoin="bevel" points="5540.54,924.991 5540.54,1200.47" />
<polyline class="Stem" fill="none" stroke="#000000" stroke-width="8.27" stroke-linejoin="bevel" points="4996.65,966.329 4996.65,1220.81" />
<path class="Hook" d="M2948.98,1158.8 C2948.98,1161.12 2950.96,1163.1 2953.28,1163.1 C2954.93,1163.1 2956.92,1161.78 2957.25,1160.46 C2957.25,1160.13 2960.23,1148.54 2960.56,1147.55 C2960.89,1146.22 2963.87,1133.65 2975.79,1114.12 C2988.7,1092.6 3008.56,1077.04 3025.11,1053.87 C3041.32,1030.7 3051.25,1008.86 3051.25,979.73 C3051.25,949.609 3044.3,924.453 3026.76,892.346 C3025.77,890.029 3023.78,888.705 3021.8,888.705 C3021.13,888.705 3020.47,888.705 3020.14,889.036 C3018.49,889.698 3017.82,891.022 3017.82,893.008 C3017.82,894.001 3018.15,895.656 3018.82,896.98 C3032.06,927.763 3037.35,945.306 3037.35,969.138 C3037.35,996.611 3027.75,1010.84 3021.8,1021.11 C3000.28,1057.85 2965.53,1075.72 2951.62,1080.35 C2949.31,1081.35 2948.98,1083 2948.98,1084 L2948.98,1158.8 "/>
<path class="Hook" d="M6984.29,1200.14 C6984.29,1202.46 6986.27,1204.44 6988.59,1204.44 C6990.24,1204.44 6992.23,1203.12 6992.56,1201.79 C6992.56,1201.46 6995.54,1189.88 6995.87,1188.89 C6996.2,1187.56 6999.18,1174.98 7011.1,1155.45 C7024.01,1133.94 7043.87,1118.38 7060.42,1095.21 C7076.63,1072.04 7086.56,1050.2 7086.56,1021.07 C7086.56,990.948 7079.61,965.792 7062.07,933.685 C7061.08,931.368 7059.09,930.044 7057.11,930.044 C7056.44,930.044 7055.78,930.044 7055.45,930.375 C7053.8,931.037 7053.13,932.361 7053.13,934.347 C7053.13,935.34 7053.46,936.995 7054.13,938.319 C7067.37,969.102 7072.66,986.645 7072.66,1010.48 C7072.66,1037.95 7063.06,1052.18 7057.11,1062.44 C7035.59,1099.18 7000.84,1117.06 6986.93,1121.69 C6984.62,1122.69 6984.29,1124.34 6984.29,1125.33 L6984.29,1200.14 "/>
<path class="Hook" d="M4992.51,1220.81 C4992.51,1223.13 4994.5,1225.11 4996.82,1225.11 C4998.47,1225.11 5000.46,1223.79 5000.79,1222.46 C5000.79,1222.13 5003.77,1210.55 5004.1,1209.56 C5004.43,1208.23 5007.41,1195.65 5019.32,1176.12 C5032.23,1154.61 5052.09,1139.05 5068.64,1115.88 C5084.86,1092.71 5094.79,1070.87 5094.79,1041.74 C5094.79,1011.62 5087.84,986.461 5070.3,954.354 C5069.31,952.037 5067.32,950.713 5065.33,950.713 C5064.67,950.713 5064.01,950.713 5063.68,951.044 C5062.02,951.706 5061.36,953.03 5061.36,955.016 C5061.36,956.009 5061.69,957.664 5062.35,958.988 C5075.59,989.771 5080.89,1007.31 5080.89,1031.15 C5080.89,1058.62 5071.29,1072.85 5065.33,1083.11 C5043.82,1119.85 5009.06,1137.73 4995.16,1142.36 C4992.84,1143.36 4992.51,1145.01 4992.51,1146 L4992.51,1220.81 "/>
<path class="Note" d="M4992.51,966.341 C4992.51,980.574 5002.77,996.462 5029.59,996.462 C5064.01,996.462 5100.09,968.327 5100.09,939.199 C5100.09,919.67 5083.54,908.747 5063.02,908.747 C5030.91,908.747 4992.51,935.889 4992.51,966.341"/>
<path class="Note" d="M5536.4,925.003 C5536.4,939.236 5546.66,955.124 5573.47,955.124 C5607.9,955.124 5643.98,926.989 5643.98,897.861 C5643.98,878.332 5627.43,867.409 5606.9,867.409 C5574.8,867.409 5536.4,894.551 5536.4,925.003"/>
<path class="Note" d="M6174.89,925.003 C6174.89,939.236 6185.15,955.124 6211.96,955.124 C6246.39,955.124 6282.47,926.989 6282.47,897.861 C6282.47,878.332 6265.92,867.409 6245.39,867.409 C6213.29,867.409 6174.89,894.551 6174.89,925.003"/>
<path class="Note" d="M4183.12,966.341 C4183.12,980.574 4193.38,996.462 4220.19,996.462 C4254.61,996.462 4290.69,968.327 4290.69,939.199 C4290.69,919.67 4274.14,908.747 4253.62,908.747 C4221.51,908.747 4183.12,935.889 4183.12,966.341"/>
<path class="Note" d="M3544.63,966.341 C3544.63,980.574 3554.89,996.462 3581.7,996.462 C3616.13,996.462 3652.2,968.327 3652.2,939.199 C3652.2,919.67 3635.65,908.747 3615.13,908.747 C3583.03,908.747 3544.63,935.889 3544.63,966.341"/>
<path class="Note" d="M6984.29,925.003 C6984.29,939.236 6994.55,955.124 7021.36,955.124 C7055.78,955.124 7091.86,926.989 7091.86,897.861 C7091.86,878.332 7075.31,867.409 7054.79,867.409 C7022.68,867.409 6984.29,894.551 6984.29,925.003"/>
<path class="Note" d="M2948.98,883.664 C2948.98,897.897 2959.24,913.785 2986.05,913.785 C3020.47,913.785 3056.55,885.65 3056.55,856.522 C3056.55,836.993 3040,826.07 3019.48,826.07 C2987.37,826.07 2948.98,853.212 2948.98,883.664"/>
<path class="Note" d="M7528.17,883.664 C7528.17,897.897 7538.43,913.785 7565.25,913.785 C7599.67,913.785 7635.75,885.65 7635.75,856.522 C7635.75,836.993 7619.2,826.07 7598.68,826.07 C7566.57,826.07 7528.17,853.212 7528.17,883.664"/>
<path class="Note" d="M2139.58,925.003 C2139.58,939.236 2149.84,955.124 2176.65,955.124 C2211.08,955.124 2247.16,926.989 2247.16,897.861 C2247.16,878.332 2230.61,867.409 2210.08,867.409 C2177.98,867.409 2139.58,894.551 2139.58,925.003"/>
<path class="Note" d="M8191.49,898.228 C8180.56,898.228 8178.25,889.291 8178.25,886.312 C8178.25,870.093 8233.86,841.627 8249.41,841.627 C8257.36,841.627 8262.65,846.261 8262.65,853.543 C8262.65,870.093 8206.71,898.228 8191.49,898.228 M8237.17,826.07 C8205.06,826.07 8166.66,852.881 8166.66,883.664 C8166.66,897.897 8176.92,913.785 8203.73,913.785 C8238.16,913.785 8274.24,885.65 8274.24,856.522 C8274.24,836.993 8257.69,826.07 8237.17,826.07"/>
<path class="Note" d="M1501.09,925.003 C1501.09,939.236 1511.35,955.124 1538.16,955.124 C1572.59,955.124 1608.67,926.989 1608.67,897.861 C1608.67,878.332 1592.12,867.409 1571.59,867.409 C1539.49,867.409 1501.09,894.551 1501.09,925.003"/>
<path class="Clef" d="M909.689,1144.64 C903.069,1145.97 896.78,1146.63 890.491,1146.63 C843.158,1146.63 802.776,1113.53 802.776,1063.55 C802.776,1023.16 831.242,987.085 860.37,961.929 C865.997,956.964 871.293,952.33 876.258,947.365 C879.237,965.239 881.554,980.796 883.871,994.367 C853.75,1003.3 833.228,1035.08 833.228,1066.19 C833.228,1089.36 851.433,1121.14 877.913,1121.14 C880.561,1121.14 883.54,1119.82 883.54,1116.84 C883.54,1113.86 880.23,1112.2 876.258,1109.56 C863.349,1101.61 856.067,1093.01 856.067,1076.79 C856.067,1056.6 870.962,1040.38 890.491,1035.74 L909.689,1144.64 M880.561,804.373 C883.54,791.133 898.766,756.378 915.978,756.378 C920.943,756.378 928.887,772.597 928.887,795.436 C928.887,829.86 903.4,855.678 880.561,878.186 C878.575,864.946 876.92,852.037 876.92,838.135 C876.92,825.888 877.913,814.634 880.561,804.373 M956.691,1083.41 C956.691,1106.91 947.092,1131.07 923.591,1140.67 C916.64,1100.95 907.703,1048.32 905.386,1033.76 C935.176,1033.76 956.691,1053.95 956.691,1083.41 M811.051,1246.26 C811.051,1268.1 827.932,1296.9 872.617,1296.9 C888.174,1296.9 901.745,1292.93 913.661,1285.65 C931.535,1273.07 936.169,1251.22 936.169,1230.37 C936.169,1217.46 934.183,1202.57 930.873,1183.7 C929.88,1177.08 927.894,1167.15 925.908,1154.24 C958.346,1143.65 982.509,1109.89 982.509,1075.79 C982.509,1025.81 947.092,992.05 898.766,992.05 C895.456,972.19 892.146,952.661 889.167,934.125 C924.253,897.384 948.416,856.009 948.416,803.38 C948.416,773.259 939.148,748.765 933.852,736.849 C925.908,719.968 916.309,708.383 910.351,708.383 C908.034,708.383 897.773,712.355 886.85,725.264 C865.666,750.42 859.708,792.788 859.708,820.592 C859.708,838.466 861.363,854.685 866.99,891.757 C866.659,892.088 849.447,909.631 842.496,915.258 C812.375,943.393 770.669,983.444 770.669,1049.64 C770.669,1111.54 824.622,1160.2 886.188,1160.2 C895.787,1160.2 904.724,1159.21 912.337,1157.88 C918.626,1189.66 922.267,1212.83 922.267,1230.37 C922.267,1264.79 904.724,1283 871.293,1283 C863.349,1283 856.398,1281.34 855.736,1281.34 C855.405,1281.01 854.743,1280.68 854.743,1280.35 C854.743,1279.69 855.405,1279.36 856.398,1279.03 C871.955,1276.71 887.512,1263.47 887.512,1242.29 C887.512,1224.41 873.941,1205.55 849.116,1205.55 C825.946,1205.55 811.051,1224.41 811.051,1246.26"/>
<path class="KeySig" d="M1088.05,980.538 C1088.05,1006.69 1074.48,1020.59 1055.28,1035.82 L1056.27,971.27 C1056.93,968.291 1061.9,958.692 1075.14,958.692 C1087.06,958.692 1088.05,969.946 1088.05,976.897 L1088.05,980.538 M1084.08,942.473 C1067.53,942.473 1057.93,952.734 1056.27,954.72 L1057.6,848.469 C1057.6,845.821 1055.61,843.835 1052.96,843.835 L1048.99,843.835 C1046.34,843.835 1044.36,845.821 1044.36,848.469 L1046.01,1047.4 C1046.01,1050.05 1048,1052.03 1050.65,1052.03 C1051.31,1052.03 1052.63,1051.7 1053.29,1051.37 C1081.76,1037.14 1111.55,1010 1111.55,975.904 C1111.55,958.692 1103.61,942.473 1084.08,942.473"/>
<path class="TimeSig" d="M1292.62,907.779 C1319.1,897.518 1320.76,880.306 1320.76,874.348 L1320.76,872.693 C1320.76,869.714 1319.77,832.311 1262.83,832.311 C1205.9,832.311 1207.56,872.693 1207.56,872.693 L1207.89,872.693 L1207.56,873.355 C1207.56,885.271 1217.16,894.539 1229.07,894.539 C1240.99,894.539 1250.26,885.271 1250.26,873.355 C1250.26,863.756 1242.97,854.488 1233.71,852.502 L1234.7,851.509 C1239.33,848.199 1245.62,846.544 1251.91,846.544 C1265.81,846.544 1280.71,854.819 1280.71,872.693 C1280.71,893.546 1265.15,896.525 1261.18,897.187 C1257.21,897.849 1238.67,899.173 1234.7,899.173 C1230.73,899.173 1230.4,903.807 1230.4,903.807 L1230.4,910.427 C1230.4,910.427 1231.06,914.068 1234.7,914.399 C1240.33,914.73 1247.94,914.73 1258.53,916.385 C1273.1,918.371 1280.71,928.301 1280.71,951.471 C1280.71,973.648 1265.81,979.606 1251.91,979.606 C1242.64,979.606 1234.04,976.958 1230.4,974.31 C1241.32,973.648 1250.26,964.049 1250.26,953.126 C1250.26,941.21 1240.99,931.611 1229.07,931.611 C1217.16,931.611 1207.56,941.21 1207.56,953.126 C1207.56,980.268 1232.38,993.839 1256.88,993.839 C1288.65,993.839 1323.08,982.916 1323.08,946.837 C1323.08,922.674 1306.53,912.413 1291.96,907.779 L1292.62,907.779 "/>
<path class="TimeSig" d="M1258.39,1118.01 L1258.39,1142.5 L1230.92,1142.5 C1228.6,1142.5 1226.29,1144.49 1226.29,1147.13 L1226.29,1153.42 C1226.29,1156.07 1228.6,1158.06 1230.92,1158.06 L1331.21,1158.06 C1333.86,1158.06 1335.85,1156.07 1335.85,1153.42 L1335.85,1147.13 C1335.85,1144.49 1333.86,1142.5 1331.21,1142.5 L1301.42,1142.5 L1301.42,1118.01 L1331.21,1118.01 C1333.86,1118.01 1335.85,1115.69 1335.85,1113.04 L1335.85,1106.75 C1335.85,1104.44 1333.86,1102.12 1331.21,1102.12 L1301.42,1102.12 L1301.42,1049.49 C1301.42,1047.5 1300.43,1045.85 1299.11,1045.19 L1295.13,1043.2 C1294.47,1042.87 1294.14,1042.87 1293.48,1042.87 C1292.16,1042.87 1290.83,1042.87 1289.84,1043.86 L1259.72,1071.34 C1258.72,1072.33 1258.39,1073.65 1258.39,1074.98 L1258.39,1102.12 L1220,1102.12 C1220,1102.12 1257.07,1062.4 1296.13,1010.1 C1297.45,1008.45 1297.78,1006.79 1297.78,1005.47 C1297.78,1003.81 1297.12,1002.49 1296.79,1002.16 L1289.51,994.874 C1288.51,994.212 1287.52,993.55 1286.2,993.55 C1284.21,993.55 1239.53,993.55 1236.88,993.55 C1234.56,993.55 1232.91,995.536 1232.58,997.522 C1232.58,997.522 1230.92,1022.02 1222.31,1048.83 C1213.71,1075.64 1203.78,1092.19 1195.17,1104.44 C1195.17,1104.44 1194.18,1106.09 1194.18,1108.08 C1194.18,1108.74 1194.18,1109.4 1194.51,1110.06 C1195.5,1112.38 1197.82,1116.02 1197.82,1116.02 C1197.82,1116.02 1198.48,1118.01 1201.46,1118.01 L1258.39,1118.01 "/>
<path class="NoteDot" d="M4331.95,952.439 C4331.95,961.707 4339.23,968.989 4348.5,968.989 C4357.77,968.989 4365.05,961.707 4365.05,952.439 C4365.05,943.171 4357.77,935.889 4348.5,935.889 C4339.23,935.889 4331.95,943.171 4331.95,952.439"/>
<path class="NoteDot" d="M6323.72,869.762 C6323.72,879.03 6331,886.312 6340.27,886.312 C6349.54,886.312 6356.82,879.03 6356.82,869.762 C6356.82,860.494 6349.54,853.212 6340.27,853.212 C6331,853.212 6323.72,860.494 6323.72,869.762"/>
<path class="NoteDot" d="M2288.41,869.762 C2288.41,879.03 2295.7,886.312 2304.96,886.312 C2314.23,886.312 2321.51,879.03 2321.51,869.762 C2321.51,860.494 2314.23,853.212 2304.96,853.212 C2295.7,853.212 2288.41,860.494 2288.41,869.762"/>
</svg>
