<?xml version="1.0" encoding="utf-8"?>
<svg xmlns="http://www.w3.org/2000/svg" xmlns:svg="http://www.w3.org/2000/svg" version="1.1" viewBox="0 0 681 187">
	<title>A score 3 staves long in 6/4 time, in the key of G Major.</title>
	<path d="M284.744 82.415c0 .742.583 1.325 1.325 1.325s1.325-.583 1.325-1.325-.583-1.325-1.325-1.325-1.325.583-1.325 1.325m322.117 82.734c0 .743.582 1.325 1.324 1.325s1.325-.582 1.325-1.325c0-.742-.582-1.324-1.325-1.324-.742 0-1.324.582-1.324 1.324M61.797 145.293c0 .742.582 1.325 1.325 1.325.74 0 1.324-.583 1.324-1.325s-.583-1.324-1.324-1.324c-.743 0-1.325.582-1.325 1.324M480.839 26.158c0 .741.583 1.325 1.325 1.325s1.325-.584 1.325-1.325c0-.742-.583-1.325-1.325-1.325s-1.325.583-1.325 1.325M45.094 32.793v1.96h-2.2c-.185 0-.37.16-.37.37v.504c0 .212.185.372.37.372h8.03c.212 0 .371-.16.371-.372v-.503c0-.212-.16-.37-.371-.37h-2.385v-1.961h2.385c.212 0 .371-.186.371-.398v-.504a.38.38 0 0 0-.371-.37h-2.385v-4.214c0-.16-.08-.291-.185-.344l-.318-.16c-.054-.026-.08-.026-.133-.026-.106 0-.212 0-.291.08l-2.412 2.2a.4.4 0 0 0-.106.29v2.174h-3.073s2.967-3.18 6.094-7.367a.58.58 0 0 0 .132-.37.44.44 0 0 0-.079-.266l-.583-.583c-.079-.053-.159-.106-.265-.106h-3.948c-.186 0-.318.159-.344.318 0 0-.133 1.961-.822 4.107s-1.484 3.472-2.173 4.452c0 0-.08.132-.08.292 0 .052 0 .105.027.158.08.186.265.477.265.477s.053.16.292.16zm.794-11.067c-.875 0-1.59-1.192-1.59-2.676s.715-2.703 1.59-2.703c.874 0 1.616 1.219 1.616 2.703s-.742 2.676-1.616 2.676m.98-6.625c-1.616 0-2.2.477-2.57.875-.08-.557-.133-.98-.133-1.405 0-1.51.53-3.47 2.385-3.47.663 0 1.06.211 1.325.503-.556.238-1.007.954-1.007 1.563 0 .954.742 1.696 1.696 1.696s1.722-.742 1.722-1.696v-.08c0-.238-.052-.635-.158-.847-.345-.954-1.458-2.359-4.108-2.359-2.385 0-4.107 2.28-4.637 3.498a9.4 9.4 0 0 0-.662 3.418c0 1.617.45 3.445 2.014 4.823 1.537 1.166 2.517 1.219 3.445 1.219s4.398-1.087 4.398-4.16c0-2.597-2.04-3.578-3.71-3.578M28.941 7.65l2.358-.477v4.372l-2.358.504zm4.107-.821c.16-.027.292-.212.292-.371V4.893a.36.36 0 0 0-.371-.37h-.054l-.874.185V.759H31.3v4.108l-2.358.477V1.607h-.742v3.896l-1.033.212c-.16.026-.292.212-.292.37v1.537c0 .212.159.371.371.371h.08l.874-.185v4.372l-1.033.212c-.16.027-.292.212-.292.371V14.3c0 .212.159.371.371.371h.08l.874-.185v3.948h.742v-4.107l2.358-.477v3.736h.742V13.69l1.007-.186c.16-.026.292-.212.292-.37V11.57a.36.36 0 0 0-.371-.371h-.054l-.874.185V7.013zm-4.107 139.814 2.358-.477v4.372l-2.358.504zm4.107-.82c.16-.027.292-.213.292-.371v-1.564a.363.363 0 0 0-.371-.371h-.054l-.874.185v-3.948H31.3v4.108l-2.358.476V140.6h-.742v3.895l-1.033.212c-.16.027-.292.213-.292.371v1.537c0 .212.159.37.371.37h.08l.874-.184v4.372l-1.033.212c-.16.026-.292.212-.292.37v1.538c0 .212.159.371.371.371h.08l.874-.186v3.949h.742v-4.108l2.358-.477v3.737h.742v-3.896l1.007-.185c.16-.027.292-.213.292-.371v-1.563a.363.363 0 0 0-.371-.372h-.054l-.874.186v-4.372zm-4.107-68.675 2.358-.477v4.373l-2.358.503zm4.107-.821c.16-.026.292-.212.292-.372V74.39a.363.363 0 0 0-.371-.372h-.054l-.874.186v-3.948H31.3v4.107l-2.358.477v-3.736h-.742v3.895l-1.033.212c-.16.027-.292.212-.292.37v1.538c0 .212.159.37.371.37h.08l.874-.184v4.371l-1.033.213c-.16.026-.292.212-.292.37v1.537c0 .212.159.37.371.37h.08l.874-.184v3.948h.742v-4.107l2.358-.477v3.736h.742v-3.895l1.007-.186c.16-.026.292-.212.292-.37v-1.564a.363.363 0 0 0-.371-.371h-.054l-.874.185V76.51zm-16.955-41.4a7.7 7.7 0 0 1-1.537.16c-3.789 0-7.022-2.65-7.022-6.651 0-3.234 2.28-6.122 4.611-8.135.45-.398.875-.769 1.272-1.166.238 1.43.424 2.676.61 3.762-2.412.716-4.055 3.26-4.055 5.75 0 1.855 1.458 4.4 3.577 4.4.212 0 .451-.107.451-.345 0-.239-.265-.372-.583-.583-1.033-.636-1.616-1.325-1.616-2.623 0-1.617 1.192-2.915 2.755-3.287zm-2.332-27.24c.239-1.06 1.458-3.842 2.836-3.842.397 0 1.033 1.299 1.033 3.127 0 2.756-2.04 4.823-3.869 6.625-.159-1.06-.291-2.094-.291-3.207 0-.98.08-1.881.291-2.703m6.095 22.339c0 1.881-.768 3.815-2.65 4.584a882 882 0 0 1-1.457-8.559c2.385 0 4.107 1.616 4.107 3.975M8.196 43.06c0 1.748 1.352 4.054 4.93 4.054 1.245 0 2.331-.318 3.285-.901 1.431-1.007 1.802-2.756 1.802-4.425 0-1.034-.159-2.226-.424-3.737-.08-.53-.238-1.325-.397-2.358 2.597-.848 4.53-3.55 4.53-6.28 0-4.001-2.834-6.704-6.703-6.704-.265-1.59-.53-3.153-.769-4.637 2.81-2.942 4.744-6.254 4.744-10.467 0-2.411-.742-4.372-1.166-5.326C17.392.927 16.623 0 16.146 0c-.185 0-1.007.318-1.881 1.351-1.696 2.014-2.173 5.406-2.173 7.632 0 1.43.133 2.73.583 5.697-.026.026-1.404 1.43-1.96 1.881-2.412 2.253-5.75 5.459-5.75 10.758 0 4.956 4.318 8.851 9.247 8.851.768 0 1.484-.08 2.093-.186.504 2.545.795 4.4.795 5.804 0 2.755-1.404 4.213-4.08 4.213-.636 0-1.193-.133-1.246-.133-.026-.026-.08-.053-.08-.08 0-.052.054-.079.133-.105 1.246-.186 2.49-1.246 2.49-2.941 0-1.432-1.085-2.941-3.073-2.941-1.855 0-3.047 1.51-3.047 3.259m7.896 130.857a7.7 7.7 0 0 1-1.537.16c-3.789 0-7.022-2.65-7.022-6.652 0-3.233 2.28-6.12 4.611-8.135.45-.398.875-.768 1.272-1.165.238 1.43.424 2.676.61 3.762-2.412.715-4.055 3.26-4.055 5.75 0 1.855 1.458 4.399 3.577 4.399.212 0 .451-.106.451-.344 0-.239-.265-.372-.583-.583-1.033-.637-1.616-1.325-1.616-2.624 0-1.616 1.192-2.914 2.755-3.286zm-2.332-27.24c.239-1.06 1.458-3.842 2.836-3.842.397 0 1.033 1.299 1.033 3.127 0 2.755-2.04 4.822-3.869 6.624-.159-1.06-.291-2.093-.291-3.206 0-.98.08-1.882.291-2.703m6.095 22.338c0 1.882-.768 3.816-2.65 4.584a882 882 0 0 1-1.457-8.558c2.385 0 4.107 1.616 4.107 3.974m-11.66 13.037c0 1.749 1.352 4.054 4.93 4.054 1.245 0 2.331-.318 3.285-.9 1.431-1.007 1.802-2.757 1.802-4.426 0-1.033-.159-2.225-.424-3.736-.08-.53-.238-1.325-.397-2.358 2.597-.848 4.53-3.55 4.53-6.28 0-4.002-2.834-6.704-6.703-6.704-.265-1.59-.53-3.154-.769-4.637 2.81-2.942 4.744-6.254 4.744-10.467 0-2.412-.742-4.372-1.166-5.326-.636-1.352-1.405-2.28-1.882-2.28-.185 0-1.007.319-1.881 1.352-1.696 2.014-2.173 5.406-2.173 7.631 0 1.432.133 2.73.583 5.698-.026.026-1.404 1.43-1.96 1.881-2.412 2.252-5.75 5.458-5.75 10.758 0 4.955 4.318 8.85 9.247 8.85.768 0 1.484-.079 2.093-.185.504 2.544.795 4.399.795 5.803 0 2.756-1.404 4.213-4.08 4.213-.636 0-1.193-.132-1.246-.132-.026-.027-.08-.053-.08-.08 0-.053.054-.079.133-.105 1.246-.186 2.49-1.246 2.49-2.942 0-1.431-1.085-2.94-3.073-2.94-1.855 0-3.047 1.509-3.047 3.258m7.896-77.631a7.7 7.7 0 0 1-1.537.159c-3.789 0-7.022-2.65-7.022-6.65 0-3.234 2.28-6.122 4.611-8.136.45-.398.875-.769 1.272-1.166.238 1.43.424 2.677.61 3.763-2.412.715-4.055 3.259-4.055 5.75 0 1.854 1.458 4.398 3.577 4.398.212 0 .451-.105.451-.344 0-.238-.265-.371-.583-.583-1.033-.636-1.616-1.325-1.616-2.623 0-1.616 1.192-2.915 2.755-3.286zm-2.332-27.24c.239-1.06 1.458-3.842 2.836-3.842.397 0 1.033 1.298 1.033 3.127 0 2.755-2.04 4.822-3.869 6.624-.159-1.06-.291-2.093-.291-3.206 0-.98.08-1.882.291-2.703m6.095 22.338c0 1.881-.768 3.815-2.65 4.584a882 882 0 0 1-1.457-8.559c2.385 0 4.107 1.617 4.107 3.975m-11.66 13.037c0 1.748 1.352 4.054 4.93 4.054 1.245 0 2.331-.318 3.285-.9 1.431-1.008 1.802-2.757 1.802-4.426 0-1.034-.159-2.226-.424-3.736-.08-.53-.238-1.325-.397-2.359 2.597-.847 4.53-3.55 4.53-6.28 0-4.001-2.834-6.704-6.703-6.704-.265-1.59-.53-3.153-.769-4.637 2.81-2.942 4.744-6.253 4.744-10.467 0-2.411-.742-4.372-1.166-5.326-.636-1.351-1.405-2.279-1.882-2.279-.185 0-1.007.319-1.881 1.351-1.696 2.015-2.173 5.406-2.173 7.632 0 1.431.133 2.73.583 5.698-.026.026-1.404 1.43-1.96 1.88-2.412 2.253-5.75 5.459-5.75 10.759 0 4.955 4.318 8.85 9.247 8.85.768 0 1.484-.079 2.093-.185.504 2.544.795 4.399.795 5.803 0 2.755-1.404 4.213-4.08 4.213-.636 0-1.193-.133-1.246-.133-.026-.026-.08-.053-.08-.08 0-.052.054-.078.133-.105 1.246-.185 2.49-1.245 2.49-2.941 0-1.431-1.085-2.941-3.073-2.941-1.855 0-3.047 1.51-3.047 3.259m406.015-34.48a.99.99 0 0 1-1.06-.954c0-1.298 4.452-3.578 5.698-3.578.635 0 1.06.371 1.06.955 0 1.325-4.479 3.577-5.698 3.577m3.657-5.777c-2.57 0-5.644 2.146-5.644 4.61 0 1.14.821 2.412 2.968 2.412 2.755 0 5.644-2.253 5.644-4.584 0-1.563-1.325-2.438-2.968-2.438m98.137 84.035c0 1.14.821 2.411 2.967 2.411 2.757 0 5.645-2.252 5.645-4.584 0-1.563-1.325-2.438-2.969-2.438-2.57 0-5.643 2.173-5.643 4.61M343.273 20.652c0 1.14.821 2.411 2.968 2.411 2.755 0 5.644-2.252 5.644-4.584 0-1.563-1.325-2.438-2.968-2.438-2.57 0-5.644 2.173-5.644 4.61m149.574 138.993c0 1.14.822 2.412 2.968 2.412 2.755 0 5.644-2.252 5.644-4.584 0-1.564-1.325-2.438-2.968-2.438-2.57 0-5.644 2.173-5.644 4.61M470.912 28.435a.99.99 0 0 1-1.06-.953c0-1.299 4.451-3.578 5.697-3.578.636 0 1.06.372 1.06.954 0 1.325-4.478 3.577-5.697 3.577m3.656-5.776c-2.57 0-5.643 2.147-5.643 4.61 0 1.14.821 2.412 2.967 2.412 2.756 0 5.644-2.253 5.644-4.584 0-1.564-1.325-2.438-2.968-2.438m-4.879 140.294c0 1.139.821 2.411 2.968 2.411 2.755 0 5.644-2.252 5.644-4.584 0-1.563-1.325-2.438-2.968-2.438-2.57 0-5.644 2.173-5.644 4.61m69.475 0c0 1.14.822 2.412 2.968 2.412 2.756 0 5.644-2.252 5.644-4.584 0-1.563-1.325-2.438-2.967-2.438-2.571 0-5.645 2.173-5.645 4.61m-92.634 6.62c0 1.139.821 2.41 2.968 2.41 2.756 0 5.644-2.252 5.644-4.583 0-1.563-1.325-2.438-2.967-2.438-2.57 0-5.645 2.173-5.645 4.61m61.204-141.136a.99.99 0 0 1-1.06-.953c0-1.299 4.451-3.578 5.696-3.578.637 0 1.06.372 1.06.954 0 1.325-4.478 3.577-5.696 3.577m3.656-5.776c-2.57 0-5.644 2.147-5.644 4.61 0 1.14.821 2.412 2.967 2.412 2.757 0 5.645-2.253 5.645-4.584 0-1.564-1.325-2.438-2.968-2.438m-90.66-2.008c0 1.14.822 2.411 2.968 2.411 2.756 0 5.644-2.252 5.644-4.584 0-1.563-1.325-2.438-2.967-2.438-2.57 0-5.644 2.173-5.644 4.61m114.062 19.857c0 1.14.821 2.41 2.967 2.41 2.756 0 5.644-2.251 5.644-4.583 0-1.563-1.325-2.438-2.967-2.438-2.57 0-5.644 2.173-5.644 4.61M413.907 169.573c0 1.139.821 2.41 2.968 2.41 2.756 0 5.644-2.252 5.644-4.583 0-1.563-1.325-2.438-2.968-2.438-2.57 0-5.644 2.173-5.644 4.61m-99.463-145.61c0 1.138.821 2.41 2.967 2.41 2.756 0 5.644-2.252 5.644-4.584 0-1.563-1.325-2.438-2.967-2.438-2.57 0-5.644 2.173-5.644 4.611m66.713 143.468a.99.99 0 0 1-1.06-.954c0-1.298 4.452-3.577 5.697-3.577.636 0 1.06.371 1.06.954 0 1.325-4.478 3.577-5.697 3.577m3.656-5.776c-2.57 0-5.643 2.146-5.643 4.61 0 1.14.821 2.411 2.967 2.411 2.756 0 5.644-2.251 5.644-4.583 0-1.564-1.325-2.438-2.968-2.438m178.81-131.073c0 1.14.82 2.411 2.967 2.411 2.755 0 5.644-2.252 5.644-4.584 0-1.563-1.325-2.438-2.968-2.438-2.57 0-5.644 2.173-5.644 4.611M356.011 162.953c0 1.139.821 2.411 2.968 2.411 2.756 0 5.644-2.252 5.644-4.584 0-1.563-1.325-2.438-2.968-2.438-2.57 0-5.644 2.173-5.644 4.61M582.987 27.27c0 1.139.821 2.41 2.967 2.41 2.756 0 5.644-2.252 5.644-4.583 0-1.564-1.325-2.438-2.968-2.438-2.57 0-5.643 2.173-5.643 4.61M332.852 159.644c0 1.14.822 2.412 2.968 2.412 2.756 0 5.645-2.252 5.645-4.584 0-1.564-1.325-2.438-2.969-2.438-2.57 0-5.644 2.173-5.644 4.61M602.351 23.96c0 1.14.821 2.411 2.968 2.411 2.755 0 5.644-2.252 5.644-4.584 0-1.563-1.325-2.438-2.968-2.438-2.57 0-5.644 2.173-5.644 4.611M309.694 156.334c0 1.14.821 2.411 2.968 2.411 2.755 0 5.644-2.252 5.644-4.584 0-1.563-1.325-2.438-2.968-2.438-2.57 0-5.644 2.173-5.644 4.61M621.715 20.652c0 1.14.822 2.411 2.968 2.411 2.756 0 5.644-2.252 5.644-4.584 0-1.563-1.325-2.438-2.968-2.438-2.57 0-5.644 2.173-5.644 4.61M64.523 40.508c0 1.14.822 2.41 2.968 2.41 2.756 0 5.645-2.251 5.645-4.583 0-1.563-1.325-2.438-2.968-2.438-2.57 0-5.645 2.173-5.645 4.61M641.08 23.96c0 1.14.821 2.411 2.968 2.411 2.755 0 5.643-2.252 5.643-4.584 0-1.563-1.325-2.438-2.967-2.438-2.57 0-5.644 2.173-5.644 4.611M277.07 153.024c0 1.14.821 2.412 2.968 2.412 2.755 0 5.644-2.252 5.644-4.584 0-1.564-1.325-2.438-2.968-2.438-2.57 0-5.644 2.173-5.644 4.61M660.444 27.27c0 1.139.822 2.41 2.968 2.41 2.755 0 5.644-2.252 5.644-4.583 0-1.564-1.325-2.438-2.968-2.438-2.57 0-5.644 2.173-5.644 4.61M253.912 156.335c0 1.14.821 2.411 2.968 2.411 2.756 0 5.644-2.252 5.644-4.584 0-1.563-1.325-2.437-2.967-2.437-2.57 0-5.645 2.172-5.645 4.61m33.472-137.827a.99.99 0 0 1-1.06-.954c0-1.298 4.452-3.577 5.697-3.577.636 0 1.06.371 1.06.954 0 1.325-4.478 3.577-5.697 3.577m3.657-5.776c-2.57 0-5.644 2.146-5.644 4.61 0 1.14.821 2.412 2.967 2.412 2.757 0 5.645-2.253 5.645-4.584 0-1.564-1.325-2.438-2.968-2.438m-60.287 133.675c0 1.14.821 2.412 2.967 2.412 2.757 0 5.645-2.253 5.645-4.584 0-1.564-1.325-2.439-2.968-2.439-2.57 0-5.644 2.174-5.644 4.611m331.569 6.618c0 1.14.821 2.412 2.967 2.412 2.756 0 5.644-2.252 5.644-4.584 0-1.564-1.325-2.438-2.967-2.438-2.57 0-5.644 2.173-5.644 4.61m-354.727-3.308c0 1.139.82 2.411 2.967 2.411 2.756 0 5.644-2.253 5.644-4.585 0-1.562-1.325-2.437-2.968-2.437-2.57 0-5.643 2.172-5.643 4.61m193.77-132.374c0 1.14.822 2.412 2.968 2.412 2.756 0 5.644-2.253 5.644-4.584 0-1.564-1.325-2.438-2.968-2.438-2.57 0-5.644 2.173-5.644 4.61M184.437 153.024c0 1.14.822 2.412 2.968 2.412 2.755 0 5.644-2.252 5.644-4.584 0-1.564-1.325-2.438-2.968-2.438-2.57 0-5.644 2.173-5.644 4.61M49.881 93.456c0 1.14.822 2.412 2.968 2.412 2.756 0 5.645-2.252 5.645-4.584 0-1.564-1.325-2.438-2.968-2.438-2.57 0-5.645 2.173-5.645 4.61m111.397 62.878c0 1.14.822 2.411 2.968 2.411 2.756 0 5.645-2.252 5.645-4.584 0-1.563-1.325-2.438-2.968-2.438-2.57 0-5.645 2.173-5.645 4.61M67.284 96.767c0 1.14.821 2.411 2.967 2.411 2.756 0 5.644-2.253 5.644-4.584 0-1.563-1.325-2.438-2.968-2.438-2.57 0-5.643 2.173-5.643 4.61m34.368-66.186c0 1.14.821 2.411 2.968 2.411 2.755 0 5.643-2.252 5.643-4.584 0-1.563-1.325-2.438-2.967-2.438-2.57 0-5.644 2.173-5.644 4.611m-16.967 69.496c0 1.14.821 2.412 2.968 2.412 2.755 0 5.644-2.253 5.644-4.584 0-1.564-1.325-2.439-2.968-2.439-2.57 0-5.644 2.174-5.644 4.611m43.97 56.259c0 1.14.822 2.411 2.968 2.411 2.756 0 5.644-2.252 5.644-4.584 0-1.563-1.324-2.438-2.968-2.438-2.57 0-5.644 2.173-5.644 4.61m-24.58-78.257a.99.99 0 0 1-1.06-.954c0-1.298 4.45-3.578 5.696-3.578.636 0 1.06.371 1.06.955 0 1.325-4.478 3.577-5.697 3.577m3.656-5.777c-2.57 0-5.643 2.146-5.643 4.61 0 1.14.82 2.412 2.967 2.412 2.756 0 5.645-2.253 5.645-4.584 0-1.563-1.325-2.438-2.969-2.438M95.905 154.19a.99.99 0 0 1-1.06-.954c0-1.299 4.452-3.577 5.697-3.577.636 0 1.06.37 1.06.953 0 1.325-4.478 3.578-5.697 3.578m3.657-5.777c-2.57 0-5.644 2.146-5.644 4.61 0 1.14.821 2.412 2.967 2.412 2.756 0 5.644-2.252 5.644-4.584 0-1.564-1.325-2.438-2.967-2.438m28.627-68.195c0 1.14.822 2.412 2.968 2.412 2.755 0 5.644-2.253 5.644-4.585 0-1.564-1.325-2.438-2.968-2.438-2.57 0-5.644 2.173-5.644 4.611m146.628 4.475a.99.99 0 0 1-1.06-.954c0-1.298 4.452-3.577 5.697-3.577.636 0 1.06.371 1.06.954 0 1.325-4.478 3.577-5.697 3.577m3.657-5.776c-2.571 0-5.644 2.146-5.644 4.61 0 1.14.821 2.412 2.967 2.412 2.756 0 5.644-2.253 5.644-4.585 0-1.563-1.325-2.437-2.967-2.437M51.869 150.88a.99.99 0 0 1-1.06-.954c0-1.298 4.452-3.577 5.697-3.577.636 0 1.06.37 1.06.954 0 1.325-4.479 3.577-5.697 3.577m3.657-5.776c-2.57 0-5.645 2.146-5.645 4.61 0 1.14.822 2.412 2.968 2.412 2.756 0 5.645-2.253 5.645-4.585 0-1.562-1.325-2.437-2.968-2.437M266.032 30.579c0 1.14.822 2.411 2.968 2.411 2.756 0 5.645-2.252 5.645-4.584 0-1.563-1.325-2.438-2.969-2.438-2.57 0-5.644 2.173-5.644 4.611m115.97-16.547c0 1.14.821 2.411 2.968 2.411 2.755 0 5.643-2.252 5.643-4.584 0-1.563-1.324-2.438-2.967-2.438-2.57 0-5.644 2.173-5.644 4.611m214.93 153.396a.99.99 0 0 1-1.059-.954c0-1.298 4.452-3.577 5.698-3.577.635 0 1.06.371 1.06.954 0 1.325-4.479 3.577-5.698 3.577m3.657-5.776c-2.57 0-5.644 2.146-5.644 4.61 0 1.14.821 2.411 2.968 2.411 2.755 0 5.643-2.251 5.643-4.583 0-1.564-1.324-2.438-2.967-2.438M121.016 27.27c0 1.139.822 2.41 2.968 2.41 2.755 0 5.644-2.252 5.644-4.583 0-1.564-1.325-2.438-2.968-2.438-2.57 0-5.644 2.173-5.644 4.61m35.172 56.26c0 1.14.82 2.411 2.967 2.411 2.756 0 5.644-2.253 5.644-4.585 0-1.563-1.325-2.437-2.968-2.437-2.57 0-5.643 2.172-5.643 4.61m505.087-3.309c0 1.14.822 2.412 2.968 2.412 2.756 0 5.644-2.253 5.644-4.585 0-1.564-1.325-2.438-2.968-2.438-2.57 0-5.644 2.173-5.644 4.611m-487.686 0c0 1.14.821 2.412 2.968 2.412 2.756 0 5.644-2.253 5.644-4.585 0-1.564-1.325-2.438-2.968-2.438-2.57 0-5.644 2.173-5.644 4.611m470.285 3.31c0 1.14.821 2.411 2.967 2.411 2.756 0 5.644-2.253 5.644-4.585 0-1.563-1.325-2.437-2.967-2.437-2.57 0-5.644 2.172-5.644 4.61m-452.883 3.31c0 1.14.82 2.41 2.967 2.41 2.756 0 5.645-2.251 5.645-4.583 0-1.564-1.325-2.438-2.969-2.438-2.57 0-5.643 2.173-5.643 4.61M140.38 23.96c0 1.14.821 2.411 2.967 2.411 2.757 0 5.644-2.252 5.644-4.584 0-1.563-1.325-2.438-2.967-2.438-2.57 0-5.644 2.173-5.644 4.611m486.09 62.878c0 1.14.823 2.41 2.969 2.41 2.755 0 5.644-2.251 5.644-4.583 0-1.564-1.325-2.438-2.968-2.438-2.57 0-5.644 2.173-5.644 4.61m-416.444 3.31c0 1.14.822 2.411 2.968 2.411 2.756 0 5.644-2.252 5.644-4.584 0-1.563-1.325-2.437-2.968-2.437-2.57 0-5.644 2.172-5.644 4.61m397.407-6.619c0 1.14.82 2.412 2.967 2.412 2.756 0 5.645-2.253 5.645-4.585 0-1.563-1.325-2.437-2.969-2.437-2.57 0-5.643 2.172-5.643 4.61m-380.005 3.31c0 1.14.821 2.41 2.968 2.41 2.755 0 5.643-2.251 5.643-4.583 0-1.564-1.325-2.438-2.967-2.438-2.57 0-5.644 2.173-5.644 4.61m362.603-6.618c0 1.14.821 2.412 2.968 2.412 2.756 0 5.644-2.253 5.644-4.585 0-1.564-1.325-2.438-2.968-2.438-2.57 0-5.644 2.173-5.644 4.611m-345.202 3.31c0 1.14.822 2.411 2.968 2.411 2.756 0 5.644-2.253 5.644-4.585 0-1.563-1.325-2.437-2.968-2.437-2.57 0-5.644 2.172-5.644 4.61m327.8-6.618c0 1.14.822 2.411 2.968 2.411 2.756 0 5.644-2.253 5.644-4.584 0-1.563-1.325-2.438-2.968-2.438-2.57 0-5.643 2.173-5.643 4.61M246.668 27.27c0 1.14.821 2.412 2.967 2.412 2.757 0 5.644-2.253 5.644-4.584 0-1.564-1.325-2.438-2.967-2.438-2.57 0-5.644 2.173-5.644 4.61m-19.365-3.309c0 1.14.822 2.411 2.968 2.411 2.756 0 5.644-2.252 5.644-4.584 0-1.563-1.325-2.438-2.968-2.438-2.57 0-5.644 2.173-5.644 4.611m-67.558-3.31c0 1.14.822 2.412 2.968 2.412 2.756 0 5.644-2.252 5.644-4.584 0-1.563-1.325-2.438-2.968-2.438-2.57 0-5.644 2.173-5.644 4.61m384.888 59.57c0 1.139.822 2.41 2.968 2.41 2.756 0 5.644-2.252 5.644-4.584 0-1.564-1.325-2.438-2.968-2.438-2.57 0-5.644 2.173-5.644 4.611m96.336 90.518a.99.99 0 0 1-1.06-.953c0-1.299 4.452-3.578 5.697-3.578.637 0 1.06.37 1.06.954 0 1.325-4.478 3.577-5.697 3.577m3.657-5.776c-2.57 0-5.644 2.146-5.644 4.61 0 1.14.821 2.412 2.967 2.412 2.757 0 5.645-2.253 5.645-4.584 0-1.563-1.325-2.438-2.968-2.438M520.518 94.622a.99.99 0 0 1-1.06-.953c0-1.299 4.451-3.578 5.697-3.578.636 0 1.06.371 1.06.954 0 1.325-4.478 3.577-5.697 3.577m3.656-5.776c-2.57 0-5.643 2.146-5.643 4.61 0 1.14.82 2.412 2.967 2.412 2.756 0 5.645-2.252 5.645-4.584 0-1.564-1.325-2.438-2.969-2.438m-216.267-.842a.99.99 0 0 1-1.06-.954c0-1.299 4.451-3.577 5.696-3.577.637 0 1.06.37 1.06.953 0 1.325-4.478 3.578-5.696 3.578m3.656-5.777c-2.57 0-5.644 2.146-5.644 4.61 0 1.14.821 2.412 2.967 2.412 2.757 0 5.645-2.252 5.645-4.584 0-1.564-1.325-2.438-2.968-2.438m189.566 7.92c0 1.14.821 2.411 2.968 2.411 2.755 0 5.644-2.252 5.644-4.584 0-1.563-1.325-2.437-2.968-2.437-2.57 0-5.644 2.172-5.644 4.61m-169.108-3.31c0 1.14.822 2.412 2.968 2.412 2.756 0 5.645-2.252 5.645-4.584 0-1.564-1.325-2.438-2.969-2.438-2.57 0-5.644 2.173-5.644 4.61m151.707 0c0 1.14.82 2.412 2.967 2.412 2.756 0 5.644-2.252 5.644-4.584 0-1.564-1.325-2.438-2.968-2.438-2.57 0-5.643 2.173-5.643 4.61M198.474 27.27c0 1.139.821 2.41 2.968 2.41 2.756 0 5.644-2.252 5.644-4.583 0-1.564-1.325-2.438-2.968-2.438-2.57 0-5.644 2.173-5.644 4.61m267.851 56.26c0 1.14.822 2.411 2.969 2.411 2.755 0 5.644-2.253 5.644-4.585 0-1.563-1.325-2.437-2.968-2.437-2.57 0-5.645 2.172-5.645 4.61m-106.305 3.31c0 1.14.821 2.41 2.967 2.41 2.757 0 5.644-2.251 5.644-4.583 0-1.564-1.325-2.438-2.967-2.438-2.57 0-5.644 2.173-5.644 4.61m17.401-3.309c0 1.14.822 2.412 2.968 2.412 2.756 0 5.645-2.253 5.645-4.585 0-1.563-1.325-2.437-2.969-2.437-2.57 0-5.644 2.172-5.644 4.61M179.11 23.96c0 1.14.821 2.411 2.967 2.411 2.757 0 5.645-2.252 5.645-4.584 0-1.563-1.325-2.438-2.968-2.438-2.57 0-5.644 2.173-5.644 4.611m259.218 56.26c0 1.139.821 2.41 2.967 2.41 2.756 0 5.644-2.252 5.644-4.584 0-1.564-1.325-2.438-2.967-2.438-2.571 0-5.644 2.173-5.644 4.611m-43.505 0c0 1.14.822 2.412 2.968 2.412 2.756 0 5.644-2.253 5.644-4.585 0-1.564-1.325-2.438-2.968-2.438-2.57 0-5.644 2.173-5.644 4.611m45.272-56.259c0 1.14.822 2.411 2.968 2.411 2.755 0 5.644-2.252 5.644-4.584 0-1.563-1.325-2.438-2.968-2.438-2.57 0-5.644 2.173-5.644 4.611m-77.457-6.619c0 1.14.82 2.412 2.967 2.412 2.756 0 5.644-2.253 5.644-4.584 0-1.564-1.325-2.438-2.968-2.438-2.57 0-5.643 2.173-5.643 4.61m49.587 59.568v22.054h.662V76.909Zm-17.402 3.309v22.053h.662V80.218ZM179.11 23.959v18.744h.662V23.96Zm198.313 59.568v22.054h.662V83.527Zm88.904 0v22.054h.662V83.527Zm-106.307 3.31v22.053h.662V86.837ZM206.417 4.646v20.452h.662V4.646Zm277.31 82.19v22.054h.662V86.837Zm17.402 3.31v20.399h.662V90.146Zm-169.107-3.31v22.054h.662V86.837Zm186.508 6.62V112.2h.662V93.456Zm26.103-13.238v22.053h.662V80.218Zm-317.33-56.259v18.744h.662V23.96Zm-67.558-3.31v20.4h.662v-20.4Zm113.084 62.878v22.054h.662V83.527ZM254.61 4.646v20.452h.663V4.646Zm318.021 72.263v22.054h.662V76.909Zm17.402 3.309v22.053h.662V80.218Zm-345.202 3.31v22.053h.662V83.527Zm362.604 0v22.053h.662V83.527ZM227.43 86.836v22.053h.662V86.837ZM273.975 6.3v22.106h.662V6.301Zm352.497 80.536v22.053h.662V86.837Zm-416.444 3.31v20.398h.662V90.146Zm433.845-6.62v22.054h.663V83.527Zm-452.882 3.31v22.053h.662V86.837Zm470.284-6.62v22.054h.662V80.218Zm-487.686 0v22.054h.662V80.218ZM140.38 23.96v18.744h.662V23.96Zm15.807 59.568v22.054h.662V83.527ZM49.882 149.714v22.054h.662v-22.054ZM285.396 17.34v22.054h.662V17.34ZM93.917 153.024v22.053h.663v-22.053Zm34.272-72.806v22.053h.662V80.218Zm.466 76.115v22.053h.662v-22.053ZM102.086 76.91v22.054h.662V76.909ZM128.96 4.646v20.452h.662V4.646ZM92.627 75.797v22.106h.662V75.797Zm68.652 80.536v22.053h.662v-22.053Zm-86.054-82.19v20.451h.663V74.142Zm109.212 78.88v22.054h.662v-22.053ZM49.882 93.457V112.2h.662V93.456Zm157.713 56.258v22.054h.662v-22.054zm23.158-3.309v22.054h.662v-22.054Zm23.16 9.928v22.053h.661v-22.053Zm60.53-132.374v18.744h.662V23.96Zm-37.372 129.065v22.053h.662v-22.053ZM668.387 4.646v20.452h.662V4.646ZM109.594 6.3v22.106h.662V6.301ZM641.08 23.959v18.744h.662V23.96ZM309.694 156.333v22.053h.662v-22.053ZM621.715 20.65v20.399h.662v-20.4ZM332.852 159.643v20.398h.662v-20.398ZM602.35 23.959v18.744h.662V23.96ZM356.01 162.952v18.744h.662v-18.744ZM590.928 4.646v20.452h.662V4.646ZM387.111 143.639v20.451h.663V143.64ZM571.564 6.3v22.106h.662V6.301ZM421.85 145.294V167.4h.662v-22.106ZM343.273 20.65v20.399h.662v-20.4ZM72.466 16.229v22.106h.662V16.229Zm470.269 0v22.106h.662V16.229Zm-88.262 129.065V167.4h.662v-22.106ZM513.688 4.646v20.452h.662V4.646Zm-44 158.306v18.744h.663v-18.744zm23.159-3.31v20.4h.662v-20.4ZM476.867 4.647v20.452h.662V4.646Zm39.139 151.687v22.053h.662v-22.053ZM362.637 17.34v22.054h.662V17.34Zm176.527 145.612v18.744h.662v-18.744ZM440.095 23.959v18.744h.662V23.96Zm122.227 129.065v22.053h.662v-22.053ZM420.73 20.65v20.399h.662v-20.4ZM305.92 86.837v22.053h.661V86.837Zm95.446-69.497v22.054h.662V17.34ZM602.888 143.64v20.451h.662V143.64ZM382.002 14.03v22.054h.662V14.03Zm56.325 66.187v22.053h.662V80.218Zm208.597 65.076V167.4h.662v-22.106ZM203.98 87.074l2.359-.477v4.371l-2.359.504zm4.108-.822c.159-.027.291-.212.291-.371v-1.564c0-.212-.159-.37-.371-.37h-.053l-.874.185v-3.948h-.742v4.107l-2.359.477v-3.736h-.742v3.895l-1.033.212c-.159.026-.292.212-.292.371v1.536c0 .213.16.372.372.372h.08l.873-.186v4.373l-1.033.211c-.159.027-.291.212-.291.372v1.537c0 .211.159.37.371.37h.08l.873-.185v3.948h.743V93.75l2.358-.477v3.736h.742v-3.895l1.007-.185c.159-.027.292-.212.292-.372v-1.563c0-.212-.16-.37-.372-.37h-.053l-.874.185v-4.373zm412.337-2.488 2.358-.477v4.372l-2.358.503zm4.107-.821c.159-.027.292-.212.292-.372v-1.563c0-.211-.16-.37-.372-.37h-.053l-.874.185v-3.948h-.742v4.107l-2.358.477v-3.736h-.742v3.895l-1.034.211c-.159.028-.291.212-.291.372v1.537c0 .211.159.37.371.37h.08l.874-.185v4.372l-1.034.212c-.158.027-.291.212-.291.371v1.537c0 .212.159.37.371.37h.08l.874-.184v3.947h.742v-4.106l2.358-.478v3.737h.742v-3.895l1.007-.186c.159-.026.292-.212.292-.371v-1.563a.363.363 0 0 0-.372-.371h-.053l-.874.185v-4.372zM459.46 9.246v27.203h1.19V9.246Zm103.707 69.496v27.203h1.19V78.742Zm-212.612 0v27.203h1.191V78.742ZM217.838 9.246v27.203h1.192V9.246Zm461.97 69.496v27.203H681V78.742Zm-2.448 69.497v27.202H681V148.24zm-3.64 0v27.202h1.191V148.24zm-521.907 0v27.202h1.192V148.24Zm111.552-69.497v27.203h1.191V78.742Zm36.864 69.497v27.202h1.191V148.24ZM146.723 78.742v27.203h1.19V78.742ZM92.187 9.246v27.203h1.191V9.246Zm587.622 0v27.203H681V9.246ZM437.066 148.239v27.202h1.191V148.24ZM333.808 9.246v27.203H335V9.246Zm251.673 138.993v27.202h1.191V148.24ZM554.157 9.246v27.203h1.191V9.246Zm-97.296 69.496v27.203h1.191V78.742ZM0 174.713v.728h681v-.728zm0-6.618v.728h681v-.728zm0-6.619v.728h681v-.728zm0-6.619v.728h681v-.728zm0-6.619v.728h681v-.728zm0-43.021v.728h681v-.728zm0-6.618v.727h681V98.6zm0-6.62v.729h681v-.728zm0-6.618v.728h681v-.728zm0-6.619v.728h681v-.728Zm0-43.021v.727h681v-.727zm0-6.619v.728h681v-.728zm0-6.619v.728h681v-.728zm0-6.618v.727h681v-.727Zm0-6.619v.728h681v-.728Z"/>
</svg>
