<?xml version="1.0" encoding="UTF-8" standalone="no"?>
<svg
   width="681"
   height="119.16004"
   version="1.2"
   id="svg104"
   xmlns="http://www.w3.org/2000/svg"
   xmlns:svg="http://www.w3.org/2000/svg"
   xmlns:rdf="http://www.w3.org/1999/02/22-rdf-syntax-ns#"
   xmlns:cc="http://creativecommons.org/ns#"
   xmlns:dc="http://purl.org/dc/elements/1.1/">
  <defs
     id="defs104" />
  <title
     id="title1">air_XXVIII</title>
  <desc
     id="desc1">Generated by MuseScore Studio 4.7.3</desc>
  <path
     id="path104"
     class="NoteDot"
     d="m 588.04846,22.087742 c 0,0.741948 0.5828,1.325227 1.32491,1.325227 0.7421,0 1.3249,-0.583279 1.3249,-1.325227 0,-0.741947 -0.5828,-1.324905 -1.3249,-1.324905 -0.74211,0 -1.32491,0.582958 -1.32491,1.324905 M 59.603941,35.341925 v 1.961341 h -2.199103 c -0.185727,0 -0.370654,0.158508 -0.370654,0.370653 v 0.503545 c 0,0.212145 0.184927,0.370653 0.370654,0.370653 h 8.028689 c 0.212145,0 0.371454,-0.158508 0.371454,-0.370653 v -0.503545 c 0,-0.212145 -0.159309,-0.370653 -0.371454,-0.370653 h -2.38483 v -1.961341 h 2.38483 c 0.212145,0 0.371454,-0.184926 0.371454,-0.397072 v -0.503544 c 0,-0.185727 -0.159309,-0.371454 -0.371454,-0.371454 h -2.38483 v -4.21248 c 0,-0.159309 -0.07925,-0.2922 -0.184927,-0.345036 l -0.318618,-0.158508 c -0.05284,-0.02642 -0.07925,-0.02642 -0.13209,-0.02642 -0.105672,0 -0.212145,0 -0.291399,0.07925 l -2.411249,2.199103 c -0.08006,0.07925 -0.106473,0.185727 -0.106473,0.2914 v 2.172685 H 56.53064 c 0,0 2.967629,-3.179774 6.094567,-7.365836 0.105672,-0.132891 0.13209,-0.264981 0.13209,-0.371454 0,-0.13209 -0.05284,-0.238563 -0.07925,-0.264981 l -0.582798,-0.582799 c -0.08006,-0.05284 -0.159309,-0.105672 -0.264982,-0.105672 -0.159308,0 -3.736154,0 -3.948299,0 -0.185727,0 -0.317817,0.158508 -0.344236,0.317817 0,0 -0.13289,1.960541 -0.822162,4.106808 -0.68847,2.146268 -1.483414,3.471174 -2.172685,4.451844 0,0 -0.07925,0.132891 -0.07925,0.291399 0,0.05284 0,0.106473 0.02642,0.159309 0.07925,0.185727 0.264981,0.477127 0.264981,0.477127 0,0 0.05284,0.158508 0.291399,0.158508 h 4.557516 m 0.794143,-11.065966 c -0.874998,0 -1.589887,-1.192576 -1.589887,-2.67647 0,-1.483895 0.714889,-2.702808 1.589887,-2.702808 0.874198,0 1.616305,1.218913 1.616305,2.702808 0,1.483894 -0.742107,2.67647 -1.616305,2.67647 m 0.97987,-6.62469 c -1.616305,0 -2.199103,0.476966 -2.569757,0.874438 -0.08006,-0.556461 -0.132891,-0.98043 -0.132891,-1.4044 0,-1.510393 0.529963,-3.471254 2.384831,-3.471254 0.662853,0 1.059925,0.211985 1.324906,0.503464 -0.556381,0.238483 -1.007089,0.953933 -1.007089,1.563389 0,0.953933 0.742108,1.69588 1.69636,1.69588 0.953452,0 1.721977,-0.741947 1.721977,-1.69588 v -0.07949 c 0,-0.238483 -0.05284,-0.635955 -0.158508,-0.84794 -0.345036,-0.953932 -1.457797,-2.358332 -4.107608,-2.358332 -2.384831,0 -4.106808,2.278838 -4.636771,3.497751 -0.264981,0.635955 -0.662853,1.934363 -0.662853,3.418258 0,1.616385 0.450708,3.444755 2.014177,4.822337 1.536251,1.166397 2.516921,1.219233 3.444755,1.219233 0.927034,0 4.398208,-1.086342 4.398208,-4.160204 0,-2.596816 -2.039795,-3.577246 -3.709737,-3.577246 m -17.928258,58.73472 2.358412,-0.477127 v 4.37179 l -2.358412,0.503544 v -4.398207 m 4.106808,-0.821362 c 0.159309,-0.02642 0.2922,-0.212145 0.2922,-0.371454 v -1.563469 c 0,-0.211344 -0.159309,-0.370653 -0.371454,-0.370653 h -0.05284 l -0.874198,0.185727 v -3.9483 h -0.742108 v 4.106808 l -2.358412,0.477126 v -3.736154 h -0.742108 v 3.895463 l -1.033506,0.211345 c -0.158509,0.02722 -0.291399,0.212145 -0.291399,0.371454 v 1.537051 c 0,0.211344 0.159308,0.370653 0.371453,0.370653 h 0.07925 l 0.874197,-0.185727 v 4.37259 l -1.033506,0.212145 c -0.158509,0.02642 -0.291399,0.211344 -0.291399,0.370653 v 1.537051 c 0,0.212145 0.159308,0.370654 0.371453,0.370654 h 0.07925 l 0.874197,-0.184927 v 3.947499 h 0.742108 v -4.106808 l 2.358412,-0.477126 v 3.736155 h 0.742108 V 82.42772 L 47.5565,82.241993 c 0.159309,-0.02642 0.2922,-0.212145 0.2922,-0.371454 V 80.30787 c 0,-0.212145 -0.159309,-0.371454 -0.371454,-0.371454 h -0.05284 l -0.874198,0.185727 v -4.372589 l 1.006288,-0.184927 M 36.194335,89.62304 38.552748,89.145913 v 4.37259 l -2.358413,0.503544 V 89.62304 m 4.107609,-0.821362 c 0.159308,-0.02642 0.291399,-0.212145 0.291399,-0.370654 v -1.563469 c 0,-0.212145 -0.159309,-0.371454 -0.370654,-0.371454 h -0.05364 l -0.874198,0.185727 v -3.948299 h -0.742107 v 4.107608 l -2.358413,0.477127 v -3.736955 h -0.741307 v 3.895463 l -1.033507,0.212145 c -0.159308,0.02642 -0.291399,0.212145 -0.291399,0.370654 v 1.53705 c 0,0.212146 0.158509,0.371454 0.370654,0.371454 h 0.07925 l 0.874998,-0.185727 v 4.37179 l -1.033507,0.212145 c -0.159308,0.02642 -0.291399,0.212145 -0.291399,0.371454 v 1.53625 c 0,0.212145 0.158509,0.371454 0.370654,0.371454 h 0.07925 l 0.874998,-0.185727 v 3.948296 h 0.741307 v -4.107605 l 2.358413,-0.476326 v 3.736155 h 0.742107 v -3.895463 l 1.007089,-0.185727 c 0.159308,-0.02642 0.291399,-0.211345 0.291399,-0.370654 v -1.563469 c 0,-0.212145 -0.159309,-0.370653 -0.370654,-0.370653 h -0.05364 l -0.874198,0.184926 v -4.371789 l 1.007089,-0.185727 m -11.361369,-9.106226 2.358413,-0.477127 v 4.37179 l -2.358413,0.503544 v -4.398207 m 4.107609,-0.821362 c 0.159309,-0.02722 0.291399,-0.212145 0.291399,-0.371454 v -1.563469 c 0,-0.212145 -0.159309,-0.370653 -0.370653,-0.370653 h -0.05364 l -0.874198,0.185727 v -3.9483 h -0.742107 v 4.106808 l -2.358413,0.477126 v -3.736154 h -0.741307 v 3.895463 l -1.033506,0.211345 c -0.159309,0.02642 -0.2914,0.212145 -0.2914,0.371454 v 1.53705 c 0,0.211345 0.158509,0.370654 0.370654,0.370654 h 0.07925 l 0.874998,-0.185727 v 4.37259 l -1.033506,0.212145 c -0.159309,0.02642 -0.2914,0.211344 -0.2914,0.370653 v 1.537051 c 0,0.212145 0.158509,0.370654 0.370654,0.370654 h 0.07925 l 0.874998,-0.185727 v 3.948299 h 0.741307 v -4.106808 l 2.358413,-0.477126 v 3.736155 h 0.742107 v -3.895464 l 1.007089,-0.184926 c 0.159309,-0.02642 0.291399,-0.212145 0.291399,-0.371454 v -1.563469 c 0,-0.211345 -0.159309,-0.370654 -0.370653,-0.370654 h -0.05364 l -0.874198,0.185727 v -4.37259 L 33.048184,78.87409 M 43.449696,6.8895107 45.808108,6.4125446 v 4.3721894 l -2.358412,0.503464 V 6.8895107 M 47.556504,6.068069 c 0.159309,-0.026498 0.2922,-0.2119849 0.2922,-0.3709736 v -1.563389 c 0,-0.2119849 -0.159309,-0.3709736 -0.371454,-0.3709736 H 47.42441 L 46.550216,3.9482196 V 0 H 45.808108 V 4.1072083 L 43.449696,4.5841744 V 0.84793978 H 42.707588 V 4.7431631 l -1.033506,0.211985 c -0.158509,0.026498 -0.291399,0.2119849 -0.291399,0.3709736 v 1.5368909 c 0,0.2119849 0.159308,0.3709736 0.371453,0.3709736 h 0.07925 l 0.874197,-0.1854868 v 4.3721896 l -1.033506,0.211985 c -0.158509,0.0265 -0.291399,0.211985 -0.291399,0.370973 v 1.536891 c 0,0.211985 0.159308,0.370974 0.371453,0.370974 h 0.07925 l 0.874197,-0.185487 v 3.94822 h 0.742108 v -4.107209 l 2.358412,-0.476966 v 3.736235 h 0.742108 v -3.895223 l 1.006288,-0.185487 c 0.159309,-0.0265 0.2922,-0.211985 0.2922,-0.370974 v -1.563389 c 0,-0.211985 -0.159309,-0.370974 -0.371454,-0.370974 H 47.4244 l -0.874198,0.185487 V 6.2535559 L 47.556504,6.068069 m -11.362169,14.058813 2.358413,-0.476966 v 4.372269 l -2.358413,0.503544 v -4.398847 m 4.107609,-0.821442 c 0.159308,-0.0265 0.291399,-0.211985 0.291399,-0.370974 v -1.563389 c 0,-0.211985 -0.159309,-0.370973 -0.370654,-0.370973 h -0.05364 l -0.874198,0.185487 v -3.94822 h -0.742107 v 4.107208 l -2.358413,0.476966 v -3.736234 h -0.741307 v 3.895223 l -1.033507,0.211985 c -0.159308,0.0265 -0.291399,0.211985 -0.291399,0.370974 v 1.536891 c 0,0.211985 0.158509,0.370973 0.370654,0.370973 h 0.07925 L 35.45302,20.28587 v 4.37195 l -1.033507,0.212145 c -0.159308,0.02642 -0.291399,0.212145 -0.291399,0.371454 v 1.53625 c 0,0.212145 0.158509,0.371454 0.370654,0.371454 h 0.07925 l 0.874998,-0.185727 v 3.9483 h 0.741307 v -4.107609 l 2.358413,-0.476325 v 3.736154 h 0.742107 v -3.895463 l 1.007089,-0.185727 c 0.159308,-0.02642 0.291399,-0.211345 0.291399,-0.370654 v -1.563469 c 0,-0.212145 -0.159309,-0.370653 -0.370654,-0.370653 h -0.05364 l -0.874198,0.184926 V 19.490927 L 40.301944,19.30544 M 28.940575,10.198813 31.298988,9.7218473 v 4.3721897 l -2.358413,0.503464 v -4.398688 m 4.107609,-0.8214412 c 0.159309,-0.026498 0.291399,-0.211985 0.291399,-0.3709737 v -1.563389 c 0,-0.2119849 -0.159309,-0.3709736 -0.370653,-0.3709736 H 32.91529 L 32.041095,7.2575223 V 3.3093027 H 31.298988 V 7.416511 L 28.940575,7.8934771 V 4.1572425 h -0.741307 v 3.8952234 l -1.033506,0.2119849 c -0.159309,0.026498 -0.2914,0.2119849 -0.2914,0.3709736 v 1.5368906 c 0,0.211985 0.158509,0.370974 0.370654,0.370974 h 0.07925 l 0.874998,-0.185487 v 4.37219 l -1.033506,0.211985 c -0.159309,0.0265 -0.2914,0.211984 -0.2914,0.370973 v 1.536891 c 0,0.211985 0.158509,0.370974 0.370654,0.370974 h 0.07925 l 0.874998,-0.185487 v 3.948219 h 0.741307 v -4.107208 l 2.358413,-0.476966 v 3.736235 h 0.742107 v -3.895224 l 1.007089,-0.185487 c 0.159309,-0.0265 0.291399,-0.211984 0.291399,-0.370973 v -1.563389 c 0,-0.211985 -0.159309,-0.370974 -0.370653,-0.370974 h -0.05364 l -0.874198,0.185487 V 9.5628586 l 1.0071,-0.1854868 M 16.093311,37.474583 c -0.529962,0.105672 -1.033427,0.158509 -1.536891,0.158509 -3.789231,0 -7.0220012,-2.649812 -7.0220012,-6.650948 0,-3.23261 2.2788382,-6.120985 4.6106722,-8.134682 0.450468,-0.397472 0.874438,-0.768446 1.27191,-1.165917 0.238483,1.430898 0.42397,2.676069 0.609457,3.762412 -2.411329,0.71569 -4.0542123,3.259829 -4.0542123,5.750332 0,1.854868 1.4573963,4.399008 3.5772463,4.399008 0.211985,0 0.450468,-0.106473 0.450468,-0.345036 0,-0.238563 -0.264982,-0.370654 -0.582959,-0.582799 -1.033427,-0.635634 -1.616385,-1.324905 -1.616385,-2.623393 0,-1.616305 1.192415,-2.914793 2.755804,-3.285447 l 1.536891,8.717961 M 13.761477,10.234358 c 0.238483,-1.059925 1.457396,-3.8422274 2.835298,-3.8422274 0.397472,0 1.033427,1.2984078 1.033427,3.1267779 0,2.7558045 -2.040355,4.8226575 -3.868725,6.6245295 -0.158989,-1.059925 -0.29148,-2.093351 -0.29148,-3.206272 0,-0.980431 0.0795,-1.881367 0.29148,-2.702808 m 6.094567,22.337673 c 0,1.881286 -0.768446,3.816209 -2.649812,4.584735 -0.556461,-3.179774 -1.27191,-7.393055 -1.457397,-8.559453 2.384831,0 4.107209,1.616305 4.107209,3.974718 M 8.1968718,45.608945 c 0,1.749196 1.351404,4.054772 4.9286502,4.054772 1.245411,0 2.331834,-0.317817 3.285766,-0.901416 1.430899,-1.006288 1.801872,-2.755484 1.801872,-4.424625 0,-1.033507 -0.158988,-2.226322 -0.423969,-3.736155 -0.07949,-0.529962 -0.238484,-1.324906 -0.397472,-2.358412 2.596815,-0.848581 4.531178,-3.551229 4.531178,-6.280295 0,-4.001135 -2.835299,-6.703783 -6.704024,-6.703783 -0.264981,-1.589887 -0.529962,-3.153516 -0.768445,-4.637411 2.8088,-2.941291 4.743163,-6.253556 4.743163,-10.466757 0,-2.4113284 -0.741948,-4.3721891 -1.165917,-5.3261214 -0.635955,-1.351404 -1.404401,-2.2788381 -1.881367,-2.2788381 -0.185487,0 -1.006928,0.3179774 -1.881366,1.351404 -1.69588,2.013857 -2.172846,5.4056161 -2.172846,7.6314575 0,1.430899 0.132491,2.729307 0.582959,5.697096 -0.0265,0.0265 -1.404401,1.430898 -1.960861,1.881366 -2.4113287,2.25234 -5.7500916,5.458533 -5.7500916,10.758156 0,4.955388 4.3191932,8.850051 9.2478436,8.850051 0.768445,0 1.483894,-0.07925 2.093351,-0.184926 0.503464,2.543339 0.794943,4.398207 0.794943,5.803168 0,2.755484 -1.4044,4.213281 -4.08071,4.213281 -0.635955,0 -1.192415,-0.132891 -1.245411,-0.132891 -0.0265,-0.02642 -0.07949,-0.05284 -0.07949,-0.07925 0,-0.05284 0.053,-0.08005 0.132491,-0.106473 1.245412,-0.184927 2.490823,-1.244851 2.490823,-2.941211 0,-1.430578 -1.086423,-2.941211 -3.073782,-2.941211 -1.8548679,0 -3.0472832,1.510633 -3.0472832,3.259028 M 16.093311,106.9709 c -0.529962,0.10567 -1.033427,0.15851 -1.536891,0.15851 -3.789231,0 -7.0220012,-2.64981 -7.0220012,-6.65095 0,-3.232608 2.2788382,-6.120983 4.6106722,-8.13436 0.450468,-0.397872 0.874438,-0.768525 1.27191,-1.166397 0.238483,1.431378 0.42397,2.676229 0.609457,3.762572 -2.411329,0.71569 -4.0542123,3.259829 -4.0542123,5.750335 0,1.85487 1.4573963,4.399 3.5772463,4.399 0.211985,0 0.450468,-0.10647 0.450468,-0.34503 0,-0.23776 -0.264982,-0.37065 -0.582959,-0.5828 -1.033427,-0.63563 -1.616385,-1.32491 -1.616385,-2.62339 0,-1.616309 1.192415,-2.914796 2.755804,-3.28545 l 1.536891,8.71796 M 13.761477,79.730676 c 0.238483,-1.059925 1.457396,-3.841827 2.835298,-3.841827 0.397472,0 1.033427,1.297687 1.033427,3.126137 0,2.756285 -2.040355,4.823298 -3.868725,6.62453 -0.158989,-1.059925 -0.29148,-2.093432 -0.29148,-3.206192 0,-0.97987 0.0795,-1.881287 0.29148,-2.702648 m 6.094567,22.337674 c 0,1.88129 -0.768446,3.81621 -2.649812,4.58473 -0.556461,-3.17977 -1.27191,-7.393051 -1.457397,-8.559449 2.384831,0 4.107209,1.616305 4.107209,3.974719 M 8.1968718,115.10606 c 0,1.7484 1.351404,4.05398 4.9286502,4.05398 1.245411,0 2.331834,-0.31782 3.285766,-0.90142 1.430899,-1.00629 1.801872,-2.75549 1.801872,-4.42463 0,-1.0335 -0.158988,-2.22632 -0.423969,-3.73615 -0.07949,-0.52996 -0.238484,-1.32491 -0.397472,-2.35841 2.596815,-0.84778 4.531178,-3.55123 4.531178,-6.2803 0,-4.001133 -2.835299,-6.703781 -6.704024,-6.703781 -0.264981,-1.589887 -0.529962,-3.153356 -0.768445,-4.637571 2.8088,-2.941211 4.743163,-6.253076 4.743163,-10.466357 0,-2.411248 -0.741948,-4.372589 -1.165917,-5.326041 -0.635955,-1.351324 -1.404401,-2.279159 -1.881367,-2.279159 -0.185487,0 -1.006928,0.317818 -1.881366,1.351324 -1.69588,2.014178 -2.172846,5.406097 -2.172846,7.631618 0,1.430579 0.132491,2.729066 0.582959,5.696696 -0.0265,0.02722 -1.404401,1.431378 -1.960861,1.882086 -2.4113287,2.25194 -5.7500916,5.458132 -5.7500916,10.757756 0,4.955389 4.3191932,8.850849 9.2478436,8.850849 0.768445,0 1.483894,-0.08 2.093351,-0.18572 0.503464,2.54333 0.794943,4.3982 0.794943,5.80316 0,2.75549 -1.4044,4.21328 -4.08071,4.21328 -0.635955,0 -1.192415,-0.13289 -1.245411,-0.13289 -0.0265,-0.0264 -0.07949,-0.0528 -0.07949,-0.0792 0,-0.0528 0.053,-0.0793 0.132491,-0.10647 1.245412,-0.18493 2.490823,-1.24485 2.490823,-2.94121 0,-1.43058 -1.086423,-2.94122 -3.073782,-2.94122 -1.8548679,0 -3.0472832,1.51064 -3.0472832,3.25983 M 79.033226,29.819749 c 0,1.139179 0.821362,2.411249 2.967626,2.411249 2.756284,0 5.644659,-2.25274 5.644659,-4.584735 0,-1.563469 -1.324906,-2.437667 -2.968429,-2.437667 -2.569757,0 -5.643856,2.172686 -5.643856,4.611153 M 394.24795,19.891281 c 0,1.139419 0.82136,2.411328 2.96763,2.411328 2.75548,0 5.64386,-2.25234 5.64386,-4.584174 0,-1.563389 -1.32491,-2.437827 -2.96763,-2.437827 -2.57056,0 -5.64386,2.172846 -5.64386,4.610673 M 181.087,16.581978 c 0,1.139419 0.82136,2.411329 2.96763,2.411329 2.75629,0 5.64466,-2.25234 5.64466,-4.584175 0,-1.563389 -1.32491,-2.437827 -2.96843,-2.437827 -2.56976,0 -5.64386,2.172846 -5.64386,4.610673 m 186.00158,6.618685 c 0,1.139339 0.82136,2.411409 2.96763,2.411409 2.75548,0 5.64386,-2.25274 5.64386,-4.584254 0,-1.563389 -1.32491,-2.437827 -2.96763,-2.437827 -2.57056,0 -5.64386,2.172846 -5.64386,4.610672 m 157.42684,72.805941 c 0,1.139179 0.82216,2.411249 2.96843,2.411249 2.75548,0 5.64386,-2.25274 5.64386,-4.584735 0,-1.562668 -1.32491,-2.437667 -2.96763,-2.437667 -2.57056,0 -5.64466,2.172686 -5.64466,4.611153 M 432.85915,17.747895 c -0.8742,0 -1.05992,-0.715449 -1.05992,-0.953932 0,-1.298408 4.45184,-3.577246 5.69749,-3.577246 0.63564,0 1.05993,0.370974 1.05993,0.953932 0,1.324906 -4.47827,3.577246 -5.6975,3.577246 m 3.6569,-5.77659 c -2.57056,0 -5.64386,2.146348 -5.64386,4.610673 0,1.139419 0.82136,2.411329 2.96763,2.411329 2.75548,0 5.64386,-2.25234 5.64386,-4.584175 0,-1.563389 -1.32491,-2.437827 -2.96763,-2.437827 m 49.62593,88.510355 c -0.8742,0 -1.05992,-0.715685 -1.05992,-0.954248 0,-1.298488 4.45184,-3.576846 5.69749,-3.576846 0.63564,0 1.05993,0.370653 1.05993,0.953452 0,1.324906 -4.47826,3.577642 -5.6975,3.577642 m 3.6569,-5.776746 c -2.57055,0 -5.64386,2.146268 -5.64386,4.611153 0,1.139183 0.82137,2.411253 2.96763,2.411253 2.75549,0 5.64386,-2.252745 5.64386,-4.584739 0,-1.563469 -1.3249,-2.437667 -2.96763,-2.437667 M 471.61125,29.819749 c 0,1.139179 0.82136,2.411249 2.96763,2.411249 2.75548,0 5.64386,-2.25274 5.64386,-4.584735 0,-1.563469 -1.32491,-2.437667 -2.96763,-2.437667 -2.57056,0 -5.64386,2.172686 -5.64386,4.611153 m -14.36342,69.496318 c 0,1.139183 0.82136,2.411253 2.96763,2.411253 2.75548,0 5.64385,-2.252745 5.64385,-4.584739 0,-1.563469 -1.3249,-2.437667 -2.96762,-2.437667 -2.57056,0 -5.64386,2.172686 -5.64386,4.611153 m 43.50975,-68.330721 c -0.8742,0 -1.05993,-0.715689 -1.05993,-0.954252 0,-1.298488 4.45184,-3.576846 5.6975,-3.576846 0.63563,0 1.05992,0.370653 1.05992,0.953452 0,1.324906 -4.47826,3.577646 -5.69749,3.577646 m 3.6569,-5.77675 c -2.57056,0 -5.64386,2.146268 -5.64386,4.611153 0,1.139179 0.82136,2.411249 2.96763,2.411249 2.75548,0 5.64386,-2.25274 5.64386,-4.584735 0,-1.563469 -1.32491,-2.437667 -2.96763,-2.437667 m -85.54009,85.201454 c -0.875,0 -1.05993,-0.71569 -1.05993,-0.95425 0,-1.29849 4.45105,-3.57765 5.6967,-3.57765 0.63563,0 1.05992,0.37146 1.05992,0.95426 0,1.3249 -4.47826,3.57764 -5.69669,3.57764 m 3.6561,-5.77675 c -2.56976,0 -5.64386,2.14627 -5.64386,4.61036 0,1.13917 0.82136,2.41124 2.96763,2.41124 2.75628,0 5.64466,-2.25194 5.64466,-4.58393 0,-1.56347 -1.32491,-2.43767 -2.96843,-2.43767 M 539.50967,26.510286 c 0,1.139179 0.82136,2.411249 2.96763,2.411249 2.75629,0 5.64386,-2.25274 5.64386,-4.584735 0,-1.562988 -1.32491,-2.437426 -2.96763,-2.437426 -2.56976,0 -5.64386,2.172445 -5.64386,4.610912 m -424.33414,4.47506 c -0.87419,0 -1.05992,-0.715689 -1.05992,-0.954252 0,-1.298488 4.45184,-3.576846 5.6975,-3.576846 0.63563,0 1.05992,0.370653 1.05992,0.953452 0,1.324906 -4.47826,3.577646 -5.6975,3.577646 m 3.65691,-5.77675 c -2.57056,0 -5.64386,2.146268 -5.64386,4.611153 0,1.139179 0.82136,2.411249 2.96763,2.411249 2.75548,0 5.64385,-2.25274 5.64385,-4.584735 0,-1.563469 -1.3249,-2.437667 -2.96762,-2.437667 m -1.41457,68.654142 c -0.8742,0 -1.05993,-0.714888 -1.05993,-0.953452 0,-1.298487 4.45185,-3.577646 5.6975,-3.577646 0.63563,0 1.05992,0.371454 1.05992,0.954253 0,1.324906 -4.47826,3.576845 -5.69749,3.576845 m 3.6569,-5.776749 c -2.57056,0 -5.64386,2.147068 -5.64386,4.611152 0,1.139179 0.82136,2.411249 2.96763,2.411249 2.75548,0 5.64386,-2.25274 5.64386,-4.583934 0,-1.563469 -1.32491,-2.438467 -2.96763,-2.438467 m 259.43979,21.157671 c 0,1.13917 0.82136,2.41124 2.96763,2.41124 2.75628,0 5.64466,-2.25194 5.64466,-4.58393 0,-1.56347 -1.32491,-2.43767 -2.96843,-2.43767 -2.56976,0 -5.64386,2.17269 -5.64386,4.61036 M 274.01774,21.057198 c -0.875,0 -1.05992,-0.715449 -1.05992,-0.953932 0,-1.298408 4.45184,-3.577246 5.69669,-3.577246 0.63644,0 1.05993,0.370973 1.05993,0.953932 0,1.324906 -4.47826,3.577246 -5.6967,3.577246 m 3.6569,-5.77659 c -2.57055,0 -5.64466,2.146348 -5.64466,4.610673 0,1.139419 0.82137,2.411328 2.96763,2.411328 2.75629,0 5.64466,-2.25234 5.64466,-4.584174 0,-1.563389 -1.3249,-2.437827 -2.96763,-2.437827 m 64.46648,95.129442 c -0.8742,0 -1.05992,-0.71569 -1.05992,-0.95425 0,-1.29849 4.45184,-3.57765 5.69669,-3.57765 0.63644,0 1.05993,0.37146 1.05993,0.95426 0,1.3249 -4.47746,3.57764 -5.6967,3.57764 m 3.6569,-5.77675 c -2.57056,0 -5.64466,2.14627 -5.64466,4.61036 0,1.13917 0.82217,2.41124 2.96843,2.41124 2.75549,0 5.64386,-2.25194 5.64386,-4.58393 0,-1.56347 -1.3249,-2.43767 -2.96763,-2.43767 M 578.12087,24.36642 c -0.8742,0 -1.05992,-0.714888 -1.05992,-0.953451 0,-1.298728 4.45184,-3.577567 5.69749,-3.577567 0.63564,0 1.05993,0.370974 1.05993,0.953933 0,1.324906 -4.47826,3.577085 -5.6975,3.577085 m 3.6569,-5.776429 c -2.56975,0 -5.64386,2.146347 -5.64386,4.610672 0,1.139339 0.82137,2.411409 2.96763,2.411409 2.75629,0 5.64386,-2.25274 5.64386,-4.584254 0,-1.563389 -1.3249,-2.437827 -2.96763,-2.437827 m -268.5316,84.034739 c 0,1.13998 0.82136,2.41205 2.96842,2.41205 2.75549,0 5.64386,-2.25274 5.64386,-4.58474 0,-1.563465 -1.3249,-2.437663 -2.96763,-2.437663 -2.57055,0 -5.64465,2.172683 -5.64465,4.610353 m 288.00252,-9.927589 c 0,1.139179 0.82136,2.411249 2.96763,2.411249 2.75628,0 5.64465,-2.25274 5.64465,-4.583934 0,-1.563469 -1.3249,-2.438467 -2.96842,-2.438467 -2.56976,0 -5.64386,2.173486 -5.64386,4.611152 m -326.37596,4.47506 c -0.8742,0 -1.05993,-0.715689 -1.05993,-0.954252 0,-1.297688 4.45185,-3.576846 5.6975,-3.576846 0.63563,0 1.05992,0.370654 1.05992,0.954253 0,1.324905 -4.47826,3.576845 -5.69749,3.576845 m 3.6569,-5.77675 c -2.57056,0 -5.64386,2.146268 -5.64386,4.611153 0,1.139179 0.82136,2.411249 2.96763,2.411249 2.75548,0 5.64386,-2.25274 5.64386,-4.584735 0,-1.562668 -1.32491,-2.437667 -2.96763,-2.437667 M 629.76498,17.747895 c -0.87419,0 -1.05992,-0.715449 -1.05992,-0.953932 0,-1.298408 4.45184,-3.577246 5.6975,-3.577246 0.63563,0 1.05992,0.370974 1.05992,0.953932 0,1.324906 -4.47826,3.577246 -5.6975,3.577246 m 3.6569,-5.77659 c -2.57055,0 -5.64385,2.146348 -5.64385,4.610673 0,1.139419 0.82136,2.411329 2.96762,2.411329 2.75549,0 5.64386,-2.25234 5.64386,-4.584175 0,-1.563389 -1.3249,-2.437827 -2.96763,-2.437827 m -425.17551,1.30129 c 0,1.139419 0.82136,2.411329 2.96763,2.411329 2.75629,0 5.64466,-2.25234 5.64466,-4.584175 0,-1.5633885 -1.32491,-2.4378264 -2.96843,-2.4378264 -2.56976,0 -5.64386,2.1728454 -5.64386,4.6106724 m 131.68204,13.237691 c 0,1.139179 0.82216,2.411249 2.96843,2.411249 2.75548,0 5.64386,-2.25274 5.64386,-4.584735 0,-1.562988 -1.32491,-2.437426 -2.96763,-2.437426 -2.57056,0 -5.64466,2.172445 -5.64466,4.610912 M 236.5137,92.697141 c 0,1.139179 0.82136,2.411249 2.96763,2.411249 2.75548,0 5.64386,-2.25274 5.64386,-4.583934 0,-1.563469 -1.32491,-2.438467 -2.96763,-2.438467 -2.57056,0 -5.64386,2.173486 -5.64386,4.611152 m 393.62994,-5.452528 c -0.875,0 -1.05992,-0.715689 -1.05992,-0.954252 0,-1.298488 4.45104,-3.577646 5.69669,-3.577646 0.63644,0 1.05993,0.371454 1.05993,0.954252 0,1.324906 -4.47826,3.577646 -5.6967,3.577646 m 3.6561,-5.77675 c -2.56975,0 -5.64386,2.146268 -5.64386,4.610353 0,1.139179 0.82137,2.411248 2.96763,2.411248 2.75629,0 5.64466,-2.251939 5.64466,-4.583934 0,-1.563469 -1.3249,-2.437667 -2.96843,-2.437667 M 209.6065,96.006604 c 0,1.139179 0.82136,2.411249 2.96763,2.411249 2.75549,0 5.64386,-2.25274 5.64386,-4.584735 0,-1.562668 -1.32491,-2.437667 -2.96763,-2.437667 -2.57056,0 -5.64386,2.172686 -5.64386,4.611153 M 153.92763,16.581978 c 0,1.139419 0.82136,2.411329 2.96763,2.411329 2.75629,0 5.64386,-2.25234 5.64386,-4.584175 0,-1.563389 -1.32491,-2.437827 -2.96763,-2.437827 -2.56976,0 -5.64386,2.172846 -5.64386,4.610673 m 28.77167,82.734089 c 0,1.139183 0.82137,2.411253 2.96763,2.411253 2.75549,0 5.64386,-2.252745 5.64386,-4.584739 0,-1.563469 -1.3249,-2.437667 -2.96763,-2.437667 -2.57055,0 -5.64386,2.172686 -5.64386,4.611153 M 79.058843,86.078216 c 0,1.139179 0.821362,2.411248 2.967626,2.411248 2.755484,0 5.643859,-2.251939 5.643859,-4.583934 0,-1.563469 -1.324906,-2.437667 -2.967629,-2.437667 -2.570557,0 -5.643856,2.172686 -5.643856,4.610353 m 76.732467,9.928388 c 0,1.139179 0.82216,2.411249 2.96843,2.411249 2.75548,0 5.64385,-2.25274 5.64385,-4.584735 0,-1.562668 -1.3249,-2.437667 -2.96762,-2.437667 -2.57056,0 -5.64466,2.172686 -5.64466,4.611153 m 79.61443,-79.424626 c 0,1.139419 0.82136,2.411329 2.96763,2.411329 2.75629,0 5.64466,-2.25234 5.64466,-4.584175 0,-1.563389 -1.32491,-2.437827 -2.96763,-2.437827 -2.57056,0 -5.64466,2.172846 -5.64466,4.610673 m 327.46951,77.28076 c -0.8742,0 -1.05993,-0.714888 -1.05993,-0.953452 0,-1.298487 4.45185,-3.577646 5.6967,-3.577646 0.63643,0 1.05992,0.371454 1.05992,0.954253 0,1.324906 -4.47826,3.576845 -5.69669,3.576845 m 3.6569,-5.776749 c -2.57056,0 -5.64466,2.147068 -5.64466,4.611152 0,1.139179 0.82136,2.411249 2.96843,2.411249 2.75548,0 5.64386,-2.25274 5.64386,-4.583934 0,-1.563469 -1.32491,-2.438467 -2.96763,-2.438467 M 312.76904,23.200663 c 0,1.139339 0.82136,2.411409 2.96843,2.411409 2.75548,0 5.64386,-2.25274 5.64386,-4.584254 0,-1.563389 -1.32491,-2.437827 -2.96763,-2.437827 -2.57056,0 -5.64466,2.172846 -5.64466,4.610672 M 115.43049,92.696357 v 20.398793 h 0.66201 V 92.696357 Z m 40.36118,3.30867 v 18.744853 h 0.66202 V 96.005027 Z m 34.84946,-19.313205 v 20.452424 h 0.66202 V 76.691822 Z M 79.058427,86.077455 v 22.053365 h 0.662021 V 86.077455 Z m 130.547703,9.927572 v 18.744853 h 0.66201 V 96.005027 Z m 26.90715,-3.30867 v 20.398793 h 0.66201 V 92.696357 Z M 86.97587,7.1957112 V 27.64704 h 0.66202 V 7.1957112 Z m 185.0545,12.6946178 v 22.05367 h 0.66202 V 19.890329 Z M 121.13048,7.1957112 V 27.64704 h 0.66201 V 7.1957112 Z M 272.88533,96.005027 v 18.744853 h 0.66202 V 96.005027 Z M 627.77767,16.581035 v 22.053517 h 0.66202 V 16.581035 Z m -306.58884,61.76551 v 22.106375 h 0.66201 V 78.346545 Z m 26.90715,6.618902 v 22.106363 h 0.66201 V 84.965447 Z M 576.13346,23.199779 v 20.398952 h 0.66217 V 23.199779 Z M 388.45717,84.965447 v 22.106363 h 0.66201 V 84.965447 Z M 208.24676,13.271584 v 22.053513 h 0.66202 V 13.271584 Z m 216.58246,71.693863 v 22.106363 h 0.66202 V 84.965447 Z M 539.5092,26.508757 v 18.744697 h 0.66216 V 26.508757 Z m -74.31957,50.183065 v 20.452424 h 0.66201 V 76.691822 Z M 506.7124,7.1957112 V 27.64704 h 0.66217 V 7.1957112 Z M 492.09678,76.691822 v 20.452424 h 0.66217 V 76.691822 Z M 479.55305,7.1957112 V 27.64704 h 0.66201 V 7.1957112 Z m 44.96277,88.8093158 v 18.744853 h 0.66201 V 96.005027 Z M 430.87179,16.581035 v 22.053517 h 0.66201 V 16.581035 Z m -118.10231,6.618744 v 20.398952 h 0.66201 V 23.199779 Z M 153.92727,16.581035 v 22.053517 h 0.66202 V 16.581035 Z m 406.9606,76.115322 v 20.398793 h 0.66202 V 92.696357 Z M 394.24753,19.890329 v 22.05367 h 0.66202 v -22.05367 z m 207.00076,72.806028 v 20.398793 h 0.66201 V 92.696357 Z M 367.08818,23.199779 v 20.398952 h 0.66201 V 23.199779 Z m 261.06803,62.877676 v 22.053365 h 0.66217 V 86.077455 Z M 339.92883,26.508757 v 18.744697 h 0.66202 V 26.508757 Z M 235.40611,16.581035 v 22.053517 h 0.66201 V 16.581035 Z m -54.31948,0 v 22.053517 h 0.66201 V 16.581035 Z m 404.80022,65.95134 c -7.82652,0 -15.64547,1.336954 -19.61295,4.084049 a 0.16531304,0.16531304 0 0 0 -0.0256,0.03972 0.16531304,0.16531304 0 0 0 -0.0331,0.0516 0.16531304,0.16531304 0 0 0 0,0.06145 0.16531304,0.16531304 0 0 0 0,0.04722 0.16531304,0.16531304 0 0 0 0.0109,0.0044 0.16531304,0.16531304 0 0 0 0.005,0.02564 0.16531304,0.16531304 0 0 0 0.10319,0.01877 0.16531304,0.16531304 0 0 0 0.0968,0.0394 c 3.84938,-1.620981 11.65888,-2.452925 19.45471,-2.452925 7.79583,0 15.60511,0.831952 19.45408,2.452925 a 0.16532957,0.16532957 0 0 0 0.15839,-0.288165 C 601.53119,83.869356 593.71231,82.53241 585.8858,82.53241 Z m 0,0.330698 c 6.8824,0 13.76581,1.068491 17.92491,3.151531 -4.25247,-1.272005 -11.08349,-1.893486 -17.92491,-1.893486 -6.84135,0 -13.6723,0.621513 -17.92508,1.893486 4.15944,-2.082992 11.04275,-3.151531 17.92508,-3.151531 z m -19.51881,3.889204 c 7.80774,-5.406097 31.23015,-5.406097 39.03709,0 -7.80694,-3.287848 -31.22935,-3.287848 -39.03709,0 M 421.40735,11.795732 v 27.203133 h 1.19113 V 11.795732 Z m 145.26167,0 v 27.203133 h 1.19128 V 11.795732 Z m 110.69052,0 v 27.203133 h 3.64015 V 11.795732 Z m -3.63967,0 V 38.998865 H 674.911 V 11.795732 Z m -2.44731,16.910456 c 0,-0.768526 -0.60921,-1.40416 -1.37774,-1.40416 -0.76852,0 -1.37774,0.635634 -1.37774,1.40416 0,0.768525 0.60922,1.40496 1.37774,1.40496 0.76853,0 1.37774,-0.636435 1.37774,-1.40496 m 0,-6.618446 c 0,-0.768445 -0.60921,-1.4044 -1.37774,-1.4044 -0.76852,0 -1.37774,0.635955 -1.37774,1.4044 0,0.768446 0.60922,1.404481 1.37774,1.404481 0.76853,0 1.37774,-0.636035 1.37774,-1.404481 M 70.786787,98.202506 c 0,-0.768526 -0.609216,-1.40416 -1.377742,-1.40416 -0.768525,0 -1.377742,0.635634 -1.377742,1.40416 0,0.768525 0.609217,1.40496 1.377742,1.40496 0.768526,0 1.377742,-0.636435 1.377742,-1.40496 m 0,-6.618125 c 0,-0.768526 -0.609216,-1.404961 -1.377742,-1.404961 -0.768525,0 -1.377742,0.636435 -1.377742,1.404961 0,0.768525 0.609217,1.40416 1.377742,1.40416 0.768526,0 1.377742,-0.635635 1.377742,-1.40416 M 64.391215,81.291687 v 27.203443 h 1.191286 V 81.291687 Z m -6.089324,0 v 27.203443 h 3.639993 V 81.291687 Z M 103.72373,11.795732 v 27.203133 h 1.19113 V 11.795732 Z m 2.24232,69.495955 v 27.203443 h 1.19127 V 81.291687 Z m 157.45484,0 v 27.203443 h 1.19129 V 81.291687 Z m 144.0008,0 v 27.203443 h 1.19129 V 81.291687 Z m 144.00174,0 v 27.203443 h 1.19113 V 81.291687 Z m 125.93611,0 v 27.203443 h 3.64015 V 81.291687 Z m -3.63967,0 V 108.49513 H 674.911 V 81.291687 Z m -2.44731,16.910819 c 0,-0.768526 -0.60921,-1.40416 -1.37774,-1.40416 -0.76852,0 -1.37774,0.635634 -1.37774,1.40416 0,0.768525 0.60922,1.40496 1.37774,1.40496 0.76853,0 1.37774,-0.636435 1.37774,-1.40496 m 0,-6.618125 c 0,-0.768526 -0.60921,-1.404961 -1.37774,-1.404961 -0.76852,0 -1.37774,0.636435 -1.37774,1.404961 0,0.768525 0.60922,1.40416 1.37774,1.40416 0.76853,0 1.37774,-0.635635 1.37774,-1.40416 M 262.56515,11.795732 v 27.203133 h 1.19113 V 11.795732 Z M 0,107.76697 v 0.72785 h 681 v -0.72785 z m 0,-6.61889 v 0.72768 h 681 v -0.72768 z m 0,-6.618902 v 0.727682 h 681 v -0.727682 z m 0,-6.618125 v 0.72769 h 681 v -0.72769 z m 0,-6.618894 v 0.727682 H 681 V 81.292159 Z M 0,38.270712 v 0.727681 H 681 V 38.270712 Z M 0,31.65181 v 0.727681 H 681 V 31.65181 Z m 0,-6.618902 v 0.727682 h 681 v -0.727682 z m 0,-6.618432 v 0.727685 h 681 v -0.727685 z m 0,-6.618588 v 0.727685 h 681 v -0.727685 z"
     style="stroke-width:0.0800547" />
  <metadata
     id="metadata104">
    <rdf:RDF>
      <cc:Work
         rdf:about="">
        <dc:title>air_XXVIII</dc:title>
      </cc:Work>
    </rdf:RDF>
  </metadata>
</svg>
