<?xml version="1.0" encoding="utf-8"?>
<svg xmlns="http://www.w3.org/2000/svg" xmlns:svg="http://www.w3.org/2000/svg" version="1.1" viewBox="0 0 681 187">
	<title>The musical score for Air XIX</title>
	<path d="M635.48 171.768c0 .742.582 1.325 1.324 1.325s1.325-.583 1.325-1.325-.583-1.325-1.325-1.325-1.325.583-1.325 1.325M615.29 89.034c0 .742.583 1.325 1.325 1.325.741 0 1.325-.583 1.325-1.325s-.584-1.325-1.325-1.325c-.742 0-1.325.583-1.325 1.325m-295.773 0c0 .742.583 1.325 1.325 1.325s1.325-.583 1.325-1.325-.583-1.325-1.325-1.325-1.325.583-1.325 1.325m312.565-56.259c0 .742.583 1.325 1.325 1.325s1.325-.583 1.325-1.325c0-.741-.583-1.325-1.325-1.325s-1.325.584-1.325 1.325m-580.712.018v1.96h-2.2a.38.38 0 0 0-.371.37v.504a.38.38 0 0 0 .371.372h8.03c.211 0 .37-.16.37-.372v-.503a.36.36 0 0 0-.37-.37h-2.386v-1.961H57.2c.212 0 .37-.186.37-.398v-.504a.38.38 0 0 0-.37-.37h-2.385v-4.214c0-.16-.079-.291-.185-.344l-.318-.16c-.053-.026-.08-.026-.132-.026-.107 0-.213 0-.293.08l-2.41 2.2a.4.4 0 0 0-.106.29v2.174h-3.075s2.969-3.18 6.095-7.367a.58.58 0 0 0 .133-.37.44.44 0 0 0-.08-.266l-.583-.583c-.08-.053-.158-.106-.265-.106h-3.948c-.185 0-.318.159-.344.318 0 0-.133 1.961-.822 4.107-.69 2.147-1.484 3.472-2.173 4.452 0 0-.079.132-.079.292 0 .052 0 .105.027.158.079.186.265.477.265.477s.052.16.291.16zm2.74-16.83c2.12-.822 2.253-2.2 2.253-2.677v-.132c0-.239-.08-3.233-4.638-3.233S47.3 13.154 47.3 13.154h.026l-.026.053c0 .954.768 1.696 1.722 1.696s1.696-.742 1.696-1.696c0-.769-.583-1.51-1.325-1.67l.08-.08c.37-.264.874-.397 1.378-.397 1.113 0 2.305.663 2.305 2.094 0 1.67-1.245 1.908-1.563 1.96-.319.054-1.802.16-2.12.16s-.345.37-.345.37v.53s.053.292.345.319c.45.026 1.06.026 1.908.159 1.165.159 1.775.953 1.775 2.808 0 1.776-1.192 2.253-2.305 2.253-.742 0-1.432-.212-1.723-.424.875-.053 1.59-.822 1.59-1.696 0-.954-.742-1.723-1.696-1.723a1.72 1.72 0 0 0-1.722 1.723c0 2.173 1.987 3.26 3.948 3.26 2.544 0 5.3-.875 5.3-3.764 0-1.934-1.325-2.755-2.491-3.126zm-16.378-4.104c0 2.094-1.086 3.207-2.623 4.425l.079-5.167c.053-.238.45-1.007 1.51-1.007.954 0 1.034.901 1.034 1.458zm-.318-3.047a2.98 2.98 0 0 0-2.226.98l.106-8.506a.36.36 0 0 0-.37-.37h-.319a.363.363 0 0 0-.371.37l.133 15.926c0 .212.159.37.37.37a.6.6 0 0 0 .212-.052c2.28-1.14 4.664-3.312 4.664-6.042 0-1.378-.636-2.676-2.2-2.676m-7.041 12.975c0 2.094-1.086 3.207-2.623 4.426l.079-5.168c.053-.238.45-1.007 1.51-1.007.955 0 1.034.901 1.034 1.458zm-.318-3.047a2.98 2.98 0 0 0-2.226.98l.106-8.505a.363.363 0 0 0-.371-.371h-.318a.36.36 0 0 0-.37.37l.131 15.926c0 .212.16.37.372.37a.6.6 0 0 0 .211-.052c2.28-1.14 4.664-3.312 4.664-6.042 0-1.378-.635-2.676-2.199-2.676m7.678 132.112c0 2.093-1.086 3.206-2.623 4.425l.079-5.167c.053-.238.45-1.007 1.51-1.007.954 0 1.034.9 1.034 1.457zm-.318-3.047a2.98 2.98 0 0 0-2.226.98l.106-8.506a.36.36 0 0 0-.37-.37h-.319a.363.363 0 0 0-.371.37l.133 15.925c0 .212.159.372.37.372.054 0 .16-.027.212-.053 2.28-1.14 4.664-3.313 4.664-6.042 0-1.378-.636-2.676-2.2-2.676m-7.041 12.975c0 2.094-1.086 3.206-2.623 4.426l.079-5.168c.053-.239.45-1.007 1.51-1.007.955 0 1.034.901 1.034 1.458zm-.318-3.048a2.98 2.98 0 0 0-2.226.981l.106-8.506c0-.212-.159-.37-.371-.37h-.318a.36.36 0 0 0-.37.37l.131 15.926c0 .212.16.37.372.37a.6.6 0 0 0 .211-.053c2.28-1.139 4.664-3.311 4.664-6.041 0-1.378-.635-2.677-2.199-2.677m7.678-76.377c0 2.094-1.086 3.207-2.623 4.426l.079-5.168c.053-.237.45-1.006 1.51-1.006.954 0 1.034.9 1.034 1.457zm-.318-3.046a2.98 2.98 0 0 0-2.226.98l.106-8.506a.36.36 0 0 0-.37-.371h-.319a.363.363 0 0 0-.371.37l.133 15.926c0 .212.159.371.37.371.054 0 .16-.026.212-.052 2.28-1.14 4.664-3.313 4.664-6.042 0-1.378-.636-2.676-2.2-2.676m-7.041 12.975c0 2.093-1.086 3.206-2.623 4.425l.079-5.167c.053-.239.45-1.007 1.51-1.007.955 0 1.034.901 1.034 1.457zm-.318-3.048a2.98 2.98 0 0 0-2.226.98l.106-8.505c0-.212-.159-.37-.371-.37h-.318a.36.36 0 0 0-.37.37l.131 15.925c0 .212.16.371.372.371a.6.6 0 0 0 .211-.053c2.28-1.14 4.664-3.312 4.664-6.042 0-1.377-.635-2.676-2.199-2.676m-13.96 85.681a7.7 7.7 0 0 1-1.538.16c-3.789 0-7.022-2.65-7.022-6.652 0-3.233 2.28-6.12 4.611-8.135.45-.398.875-.768 1.272-1.165.238 1.43.424 2.676.61 3.762-2.412.715-4.055 3.26-4.055 5.75 0 1.855 1.458 4.399 3.577 4.399.212 0 .451-.106.451-.344 0-.239-.265-.372-.583-.583-1.033-.637-1.616-1.325-1.616-2.624 0-1.616 1.192-2.914 2.755-3.286zm-2.332-27.24c.239-1.06 1.458-3.842 2.836-3.842.397 0 1.033 1.299 1.033 3.127 0 2.755-2.04 4.822-3.869 6.624-.159-1.06-.291-2.093-.291-3.206 0-.98.08-1.882.291-2.703m6.095 22.338c0 1.882-.768 3.816-2.65 4.584a882 882 0 0 1-1.457-8.558c2.385 0 4.107 1.616 4.107 3.974m-11.66 13.037c0 1.749 1.352 4.054 4.93 4.054 1.245 0 2.331-.318 3.285-.9 1.431-1.007 1.802-2.757 1.802-4.426 0-1.033-.159-2.225-.424-3.736-.08-.53-.238-1.325-.397-2.358 2.597-.848 4.53-3.55 4.53-6.28 0-4.002-2.834-6.704-6.703-6.704-.265-1.59-.53-3.154-.769-4.637 2.81-2.942 4.744-6.254 4.744-10.467 0-2.412-.742-4.372-1.166-5.326-.636-1.352-1.405-2.28-1.882-2.28-.185 0-1.007.319-1.881 1.352-1.696 2.014-2.173 5.406-2.173 7.631 0 1.432.133 2.73.583 5.698-.026.026-1.404 1.43-1.96 1.881-2.412 2.252-5.75 5.458-5.75 10.758 0 4.955 4.318 8.85 9.247 8.85.768 0 1.484-.079 2.093-.185.504 2.544.795 4.399.795 5.803 0 2.756-1.404 4.213-4.08 4.213-.636 0-1.193-.132-1.246-.132-.026-.027-.08-.053-.08-.08 0-.053.054-.079.133-.105 1.246-.186 2.49-1.246 2.49-2.942 0-1.431-1.085-2.94-3.073-2.94-1.855 0-3.047 1.509-3.047 3.258m7.896-147.128a7.7 7.7 0 0 1-1.537.16c-3.789 0-7.022-2.65-7.022-6.651 0-3.234 2.28-6.122 4.611-8.135.45-.398.875-.769 1.272-1.166.238 1.43.424 2.676.61 3.762-2.412.716-4.055 3.26-4.055 5.75 0 1.855 1.458 4.4 3.577 4.4.212 0 .451-.107.451-.345 0-.239-.265-.372-.583-.583-1.033-.636-1.616-1.325-1.616-2.623 0-1.617 1.192-2.915 2.755-3.287zm-2.332-27.24c.239-1.06 1.458-3.842 2.836-3.842.397 0 1.033 1.299 1.033 3.127 0 2.756-2.04 4.823-3.869 6.625-.159-1.06-.291-2.094-.291-3.207 0-.98.08-1.881.291-2.703m6.095 22.339c0 1.881-.768 3.815-2.65 4.584a882 882 0 0 1-1.457-8.559c2.385 0 4.107 1.616 4.107 3.975M8.196 43.06c0 1.748 1.352 4.054 4.93 4.054 1.245 0 2.331-.318 3.285-.901 1.431-1.007 1.802-2.756 1.802-4.425 0-1.034-.159-2.226-.424-3.737-.08-.53-.238-1.325-.397-2.358 2.597-.848 4.53-3.55 4.53-6.28 0-4.001-2.834-6.704-6.703-6.704-.265-1.59-.53-3.153-.769-4.637 2.81-2.942 4.744-6.254 4.744-10.467 0-2.411-.742-4.372-1.166-5.326C17.392.927 16.623 0 16.146 0c-.185 0-1.007.318-1.881 1.351-1.696 2.014-2.173 5.406-2.173 7.632 0 1.43.133 2.73.583 5.697-.026.026-1.404 1.43-1.96 1.881-2.412 2.253-5.75 5.459-5.75 10.758 0 4.956 4.318 8.851 9.247 8.851.768 0 1.484-.08 2.093-.186.504 2.545.795 4.4.795 5.804 0 2.755-1.404 4.213-4.08 4.213-.636 0-1.193-.133-1.246-.133-.026-.026-.08-.053-.08-.08 0-.052.054-.079.133-.105 1.246-.186 2.49-1.246 2.49-2.941 0-1.432-1.085-2.941-3.073-2.941-1.855 0-3.047 1.51-3.047 3.259m7.896 61.36a7.7 7.7 0 0 1-1.537.16c-3.789 0-7.022-2.65-7.022-6.65 0-3.234 2.28-6.122 4.611-8.136.45-.398.875-.769 1.272-1.166.238 1.43.424 2.677.61 3.763-2.412.715-4.055 3.259-4.055 5.75 0 1.854 1.458 4.398 3.577 4.398.212 0 .451-.105.451-.344 0-.238-.265-.371-.583-.583-1.033-.636-1.616-1.324-1.616-2.623 0-1.616 1.192-2.915 2.755-3.286zm-2.332-27.24c.239-1.06 1.458-3.842 2.836-3.842.397 0 1.033 1.298 1.033 3.127 0 2.755-2.04 4.822-3.869 6.624-.159-1.06-.291-2.093-.291-3.206 0-.98.08-1.882.291-2.703m6.095 22.338c0 1.881-.768 3.815-2.65 4.584a882 882 0 0 1-1.457-8.559c2.385 0 4.107 1.617 4.107 3.975m-11.66 13.037c0 1.748 1.352 4.054 4.93 4.054 1.245 0 2.331-.318 3.285-.9 1.431-1.008 1.802-2.757 1.802-4.426 0-1.034-.159-2.226-.424-3.736-.08-.53-.238-1.325-.397-2.359 2.597-.847 4.53-3.55 4.53-6.28 0-4.001-2.834-6.704-6.703-6.704-.265-1.59-.53-3.153-.769-4.637 2.81-2.942 4.744-6.253 4.744-10.467 0-2.411-.742-4.372-1.166-5.326-.636-1.351-1.405-2.279-1.882-2.279-.185 0-1.007.319-1.881 1.351-1.696 2.015-2.173 5.406-2.173 7.632 0 1.431.133 2.73.583 5.698-.026.026-1.404 1.43-1.96 1.88-2.412 2.253-5.75 5.459-5.75 10.759 0 4.955 4.318 8.85 9.247 8.85.768 0 1.484-.079 2.093-.185.504 2.544.795 4.399.795 5.803 0 2.755-1.404 4.213-4.08 4.213-.636 0-1.193-.133-1.246-.133-.026-.026-.08-.053-.08-.08 0-.052.054-.078.133-.105 1.246-.185 2.49-1.245 2.49-2.941 0-1.431-1.085-2.941-3.073-2.941-1.855 0-3.047 1.51-3.047 3.259m595.178-22.409c0 1.14.821 2.411 2.968 2.411 2.756 0 5.644-2.252 5.644-4.584 0-1.563-1.325-2.437-2.967-2.437-2.571 0-5.645 2.172-5.645 4.61M302.61 17.341c0 1.14.821 2.412 2.968 2.412 2.755 0 5.644-2.253 5.644-4.584 0-1.564-1.325-2.438-2.968-2.438-2.57 0-5.644 2.173-5.644 4.61m209.707 145.612c0 1.139.821 2.411 2.967 2.411 2.757 0 5.645-2.252 5.645-4.584 0-1.563-1.325-2.438-2.968-2.438-2.57 0-5.644 2.173-5.644 4.61M328.037 27.27c0 1.139.821 2.41 2.968 2.41 2.755 0 5.644-2.252 5.644-4.583 0-1.564-1.325-2.438-2.968-2.438-2.57 0-5.644 2.173-5.644 4.61M474.74 167.429a.99.99 0 0 1-1.06-.954c0-1.298 4.45-3.577 5.697-3.577.635 0 1.06.371 1.06.954 0 1.325-4.479 3.577-5.697 3.577m3.656-5.776c-2.57 0-5.644 2.146-5.644 4.61 0 1.14.821 2.411 2.968 2.411 2.756 0 5.644-2.251 5.644-4.583 0-1.564-1.325-2.438-2.968-2.438M353.464 23.96c0 1.14.821 2.411 2.968 2.411 2.756 0 5.644-2.252 5.644-4.584 0-1.563-1.325-2.438-2.968-2.438-2.57 0-5.644 2.173-5.644 4.611m34.892-3.31c0 1.14.821 2.412 2.968 2.412 2.756 0 5.643-2.252 5.643-4.584 0-1.563-1.324-2.438-2.967-2.438-2.57 0-5.644 2.173-5.644 4.61m25.427 13.239c0 1.139.821 2.41 2.968 2.41 2.756 0 5.644-2.252 5.644-4.584 0-1.563-1.325-2.438-2.968-2.438-2.57 0-5.644 2.173-5.644 4.612m23.128 135.683c0 1.139.821 2.41 2.967 2.41 2.757 0 5.645-2.252 5.645-4.583 0-1.563-1.325-2.438-2.968-2.438-2.57 0-5.644 2.173-5.644 4.61M439.21 30.58c0 1.14.821 2.411 2.968 2.411 2.756 0 5.644-2.252 5.644-4.584 0-1.563-1.325-2.438-2.967-2.438-2.571 0-5.645 2.173-5.645 4.611m-28.676 142.302c0 1.14.822 2.411 2.968 2.411 2.756 0 5.644-2.252 5.644-4.584 0-1.563-1.325-2.438-2.968-2.438-2.57 0-5.644 2.173-5.644 4.611M476.09 28.435a.99.99 0 0 1-1.06-.953c0-1.299 4.451-3.578 5.696-3.578.637 0 1.06.372 1.06.954 0 1.325-4.478 3.577-5.696 3.577m3.656-5.776c-2.57 0-5.644 2.147-5.644 4.61 0 1.14.821 2.412 2.967 2.412 2.757 0 5.645-2.253 5.645-4.584 0-1.564-1.325-2.438-2.968-2.438m-95.588 136.984c0 1.14.821 2.412 2.967 2.412 2.756 0 5.644-2.252 5.644-4.584 0-1.564-1.325-2.438-2.967-2.438-2.57 0-5.644 2.173-5.644 4.61M512.243 23.96c0 1.14.821 2.411 2.968 2.411 2.755 0 5.644-2.252 5.644-4.584 0-1.563-1.325-2.438-2.968-2.438-2.57 0-5.644 2.173-5.644 4.611m34.892-3.31c0 1.14.821 2.412 2.968 2.412 2.755 0 5.643-2.252 5.643-4.584 0-1.563-1.325-2.438-2.967-2.438-2.57 0-5.644 2.173-5.644 4.61m27.414 24.333a.99.99 0 0 1-1.06-.955c0-1.298 4.452-3.577 5.697-3.577.636 0 1.06.371 1.06.954 0 1.325-4.478 3.578-5.697 3.578m3.657-5.777c-2.57 0-5.644 2.146-5.644 4.61 0 1.14.821 2.411 2.967 2.411 2.756 0 5.644-2.252 5.644-4.584 0-1.563-1.325-2.437-2.967-2.437m-229.89 123.747c0 1.139.822 2.411 2.968 2.411 2.756 0 5.644-2.252 5.644-4.584 0-1.563-1.325-2.438-2.968-2.438-2.57 0-5.643 2.173-5.643 4.61M622.154 35.055a.99.99 0 0 1-1.06-.954c0-1.299 4.452-3.577 5.698-3.577.635 0 1.06.37 1.06.953 0 1.325-4.479 3.578-5.698 3.578m3.657-5.777c-2.57 0-5.644 2.147-5.644 4.612 0 1.139.822 2.41 2.968 2.41 2.755 0 5.644-2.252 5.644-4.584 0-1.563-1.325-2.438-2.968-2.438m-303.87 136.985c0 1.14.82 2.411 2.967 2.411 2.755 0 5.644-2.251 5.644-4.583 0-1.564-1.325-2.438-2.968-2.438-2.57 0-5.644 2.173-5.644 4.61M231.565 11.89a.99.99 0 0 1-1.06-.954c0-1.299 4.452-3.577 5.696-3.577.637 0 1.06.37 1.06.953 0 1.325-4.478 3.578-5.696 3.578m3.657-5.777c-2.57 0-5.645 2.146-5.645 4.61 0 1.14.821 2.412 2.968 2.412 2.756 0 5.644-2.252 5.644-4.584 0-1.563-1.325-2.438-2.967-2.438m60.34 150.222c0 1.14.823 2.411 2.97 2.411 2.755 0 5.643-2.252 5.643-4.584 0-1.563-1.325-2.438-2.967-2.438-2.571 0-5.645 2.173-5.645 4.61m252.595 3.31c0 1.14.821 2.412 2.968 2.412 2.756 0 5.644-2.252 5.644-4.584 0-1.564-1.325-2.438-2.967-2.438-2.57 0-5.645 2.173-5.645 4.61M194.685 20.651c0 1.14.821 2.411 2.969 2.411 2.755 0 5.643-2.252 5.643-4.584 0-1.563-1.325-2.438-2.967-2.438-2.57 0-5.645 2.173-5.645 4.61M70.824 80.22c0 1.139.822 2.41 2.968 2.41 2.756 0 5.644-2.252 5.644-4.584 0-1.564-1.325-2.438-2.968-2.438-2.57 0-5.644 2.173-5.644 4.611m188.898 79.424c0 1.14.822 2.412 2.968 2.412 2.755 0 5.644-2.252 5.644-4.584 0-1.564-1.325-2.438-2.968-2.438-2.57 0-5.644 2.173-5.644 4.61M96.872 83.528c0 1.14.821 2.412 2.967 2.412 2.757 0 5.645-2.253 5.645-4.585 0-1.563-1.325-2.437-2.968-2.437-2.57 0-5.644 2.172-5.644 4.61m125.273 67.353a.99.99 0 0 1-1.06-.954c0-1.298 4.452-3.577 5.696-3.577.637 0 1.06.37 1.06.954 0 1.325-4.478 3.577-5.696 3.577m3.657-5.776c-2.571 0-5.645 2.146-5.645 4.61 0 1.14.821 2.412 2.968 2.412 2.756 0 5.644-2.253 5.644-4.585 0-1.562-1.325-2.437-2.967-2.437M122.92 80.219c0 1.14.821 2.412 2.968 2.412 2.755 0 5.644-2.253 5.644-4.585 0-1.564-1.325-2.438-2.968-2.438-2.57 0-5.644 2.173-5.644 4.611m37.5 7.785a.99.99 0 0 1-1.06-.954c0-1.299 4.452-3.577 5.697-3.577.636 0 1.06.37 1.06.953 0 1.325-4.479 3.578-5.697 3.578m3.657-5.777c-2.57 0-5.645 2.146-5.645 4.61 0 1.14.822 2.412 2.969 2.412 2.755 0 5.644-2.252 5.644-4.584 0-1.564-1.325-2.438-2.968-2.438m33.428 7.92c0 1.14.821 2.411 2.967 2.411 2.757 0 5.644-2.252 5.644-4.584 0-1.563-1.325-2.437-2.968-2.437-2.57 0-5.643 2.172-5.643 4.61m-13.19 69.496c0 1.14.822 2.412 2.968 2.412 2.757 0 5.645-2.252 5.645-4.584 0-1.564-1.325-2.438-2.968-2.438-2.57 0-5.644 2.173-5.644 4.61m48.7-79.424c0 1.14.823 2.412 2.97 2.412 2.755 0 5.643-2.253 5.643-4.585 0-1.564-1.325-2.438-2.967-2.438-2.571 0-5.645 2.173-5.645 4.611m-86.278 93.828a.99.99 0 0 1-1.06-.954c0-1.298 4.45-3.577 5.696-3.577.636 0 1.06.37 1.06.954 0 1.325-4.478 3.577-5.696 3.577m3.656-5.777c-2.57 0-5.644 2.146-5.644 4.611 0 1.14.821 2.411 2.968 2.411 2.756 0 5.644-2.252 5.644-4.584 0-1.563-1.325-2.438-2.968-2.438m110.658-80.266a.99.99 0 0 1-1.06-.954c0-1.299 4.452-3.577 5.697-3.577.636 0 1.06.37 1.06.953 0 1.325-4.479 3.578-5.697 3.578m3.657-5.777c-2.57 0-5.645 2.146-5.645 4.61 0 1.14.821 2.412 2.968 2.412 2.756 0 5.644-2.252 5.644-4.584 0-1.564-1.325-2.438-2.967-2.438m44.88 9.086a.99.99 0 0 1-1.06-.954c0-1.298 4.451-3.578 5.697-3.578.635 0 1.06.372 1.06.955 0 1.325-4.478 3.577-5.698 3.577m3.657-5.776c-2.57 0-5.644 2.146-5.644 4.61 0 1.14.822 2.411 2.968 2.411 2.755 0 5.644-2.252 5.644-4.584 0-1.563-1.325-2.437-2.968-2.437M158.532 35.054a.99.99 0 0 1-1.06-.954c0-1.299 4.451-3.577 5.697-3.577.636 0 1.06.37 1.06.953 0 1.325-4.478 3.578-5.697 3.578m3.656-5.777c-2.57 0-5.643 2.147-5.643 4.612 0 1.139.821 2.41 2.967 2.41 2.757 0 5.645-2.252 5.645-4.584 0-1.563-1.325-2.438-2.969-2.438M108.91 169.572c0 1.139.821 2.41 2.967 2.41 2.757 0 5.645-2.252 5.645-4.583 0-1.563-1.325-2.438-2.968-2.438-2.57 0-5.644 2.173-5.644 4.61m467.612 14.404a.99.99 0 0 1-1.06-.954c0-1.299 4.452-3.577 5.697-3.577.636 0 1.06.37 1.06.954 0 1.324-4.478 3.577-5.697 3.577m3.657-5.777c-2.57 0-5.645 2.147-5.645 4.61 0 1.14.823 2.412 2.969 2.412 2.755 0 5.644-2.252 5.644-4.584 0-1.563-1.325-2.438-2.968-2.438M82.533 166.262c0 1.14.822 2.411 2.968 2.411 2.756 0 5.644-2.251 5.644-4.583 0-1.564-1.325-2.438-2.968-2.438-2.57 0-5.644 2.173-5.644 4.61m284.064-72.806c0 1.14.821 2.412 2.968 2.412 2.756 0 5.644-2.252 5.644-4.584 0-1.564-1.325-2.438-2.968-2.438-2.57 0-5.644 2.173-5.644 4.61m-310.44 69.497c0 1.139.821 2.411 2.967 2.411 2.756 0 5.644-2.252 5.644-4.584 0-1.563-1.325-2.438-2.967-2.438-2.57 0-5.644 2.173-5.644 4.61m336.488-66.186c0 1.14.822 2.411 2.968 2.411 2.755 0 5.644-2.253 5.644-4.584 0-1.563-1.325-2.438-2.968-2.438-2.57 0-5.644 2.173-5.644 4.61M121.653 30.58c0 1.14.821 2.411 2.967 2.411 2.757 0 5.645-2.252 5.645-4.584 0-1.563-1.325-2.438-2.968-2.438-2.57 0-5.644 2.173-5.644 4.611m-25.427-3.31c0 1.14.821 2.412 2.967 2.412 2.756 0 5.644-2.253 5.644-4.584 0-1.564-1.325-2.438-2.967-2.438-2.57 0-5.644 2.173-5.644 4.61m322.467 72.806c0 1.14.822 2.412 2.968 2.412 2.756 0 5.644-2.253 5.644-4.584 0-1.564-1.325-2.439-2.968-2.439-2.57 0-5.644 2.174-5.644 4.611m37.5 4.475a.99.99 0 0 1-1.06-.954c0-1.297 4.452-3.577 5.697-3.577.636 0 1.06.371 1.06.955 0 1.325-4.478 3.576-5.696 3.576m3.656-5.776c-2.57 0-5.644 2.146-5.644 4.61 0 1.14.821 2.412 2.967 2.412 2.757 0 5.645-2.253 5.645-4.585 0-1.562-1.325-2.437-2.968-2.437m193.91-8.627c0 1.14.822 2.411 2.968 2.411 2.757 0 5.645-2.252 5.645-4.584 0-1.563-1.325-2.437-2.968-2.437-2.57 0-5.644 2.172-5.644 4.61m-160.483 9.928c0 1.14.821 2.412 2.968 2.412 2.755 0 5.644-2.253 5.644-4.584 0-1.564-1.325-2.439-2.968-2.439-2.57 0-5.644 2.174-5.644 4.611m143.117-13.237c0 1.14.822 2.41 2.969 2.41 2.755 0 5.643-2.251 5.643-4.583 0-1.564-1.324-2.438-2.967-2.438-2.57 0-5.645 2.173-5.645 4.61M528.79 96.767c0 1.14.822 2.411 2.968 2.411 2.756 0 5.645-2.253 5.645-4.584 0-1.563-1.325-2.438-2.969-2.438-2.57 0-5.644 2.173-5.644 4.61m28.036-2.143a.99.99 0 0 1-1.06-.953c0-1.299 4.451-3.578 5.697-3.578.636 0 1.06.371 1.06.954 0 1.325-4.478 3.577-5.697 3.577m3.656-5.776c-2.57 0-5.643 2.146-5.643 4.61 0 1.14.82 2.412 2.967 2.412 2.756 0 5.644-2.252 5.644-4.584 0-1.564-1.325-2.438-2.968-2.438M70.8 23.96c0 1.14.821 2.411 2.967 2.411 2.756 0 5.644-2.252 5.644-4.584 0-1.563-1.325-2.438-2.967-2.438-2.57 0-5.644 2.173-5.644 4.611m196.92-3.31c0 1.14.82 2.412 2.967 2.412 2.755 0 5.644-2.252 5.644-4.584 0-1.563-1.325-2.438-2.968-2.438-2.57 0-5.644 2.173-5.644 4.61m357.834 153.397a.99.99 0 0 1-1.06-.954c0-1.298 4.452-3.577 5.696-3.577.637 0 1.06.37 1.06.954 0 1.325-4.477 3.577-5.696 3.577m3.657-5.777c-2.571 0-5.645 2.146-5.645 4.611 0 1.14.822 2.411 2.968 2.411 2.756 0 5.644-2.252 5.644-4.584 0-1.563-1.325-2.438-2.967-2.438m7.186-59.406c0 .186.16.344.345.344.132 0 .292-.106.318-.211 0-.028.239-.955.265-1.034.026-.106.265-1.113 1.22-2.676 1.032-1.723 2.622-2.968 3.947-4.823 1.298-1.855 2.093-3.604 2.093-5.936 0-2.41-.556-4.425-1.96-6.995-.08-.186-.239-.292-.398-.292-.053 0-.106 0-.132.027-.133.053-.186.159-.186.318 0 .08.026.212.08.318 1.06 2.464 1.483 3.869 1.483 5.777 0 2.199-.768 3.338-1.245 4.16-1.722 2.941-4.505 4.372-5.618 4.742-.185.08-.212.213-.212.292zm-55.891-89.326v22.106h.662V19.538Zm22.871 70.608v20.399h.662V90.146Zm-48.537 3.31V112.2h.662V93.456Zm81.557-6.62v22.028h.663V86.837Zm-99.662-12.694v20.452h.662V74.142ZM70.798 23.96v18.744h.662V23.96Zm560.709 124.643v22.107h.662v-22.107zm22.254-58.456v20.399h.662V90.146ZM501.22 75.797v22.106h.662V75.797ZM104.168 4.646v20.452h.662V4.646Zm357.98 74.46v22.107h.662V79.106ZM129.595 6.3v22.106h.662V6.301Zm34.892 3.309v22.107h.662V9.61Zm30.198 11.04v20.399h.663v-20.4Zm231.95 55.147v22.106h.662V75.797ZM56.156 162.952v18.744h.662v-18.744Zm344.431-88.81v20.452h.662V74.142ZM90.476 143.64v20.451h.662V143.64zm26.376 1.655V167.4h.662v-22.106zm465.625 13.237v22.106h.662V158.53Zm-352.9-147.81v22.054h.662V10.722Zm318.581 148.922v20.398h.662v-20.398ZM267.718 20.65v20.399h.662v-20.4Zm39.884 69.496v20.399h.662V90.146ZM302.61 17.34v22.054h.662V17.34Zm33.369-12.694v20.452h.662V4.646ZM152.694 148.602v22.107h.662v-22.107zm106.372-61.765v22.053h.662V86.837Zm-74.75 72.806v20.398h.662v-20.398zm48.701-79.425v22.053h.662V80.218Zm279.3 82.734v18.744h.662v-18.744ZM353.464 23.959v18.744h.662V23.96Zm127.23 119.68v20.451h.663V143.64Zm-283.19-53.493v20.399h.662V90.146ZM388.356 20.65v20.399h.662v-20.4ZM158.433 86.837v22.053h.662V86.837ZM421.726 9.61v22.107h.662V9.61Zm25.426-3.31v22.107h.663V6.301ZM220.157 149.715v22.054h.662v-22.054ZM122.92 80.218v22.053h.662V80.218Zm321.933 65.076V167.4h.662v-22.106zm-185.131 14.349v20.398h.662v-20.398ZM96.872 83.527v22.054h.662V83.527ZM482.044 4.646v20.452h.662V4.646ZM70.824 80.218v22.053h.662V80.218Zm347.653 68.384v22.107h.662v-22.107zM512.243 23.96v18.744h.662V23.96Zm-216.68 132.374v22.053h.662v-22.053zm88.595 3.31v20.398h.662v-20.398ZM547.134 20.65v20.399h.663v-20.4ZM329.882 143.639v20.451h.662V143.64zm18.434 19.313v18.744h.662v-18.744zm18.281-69.496V112.2h.663V93.456ZM628.11 9.61v22.107h.662V9.61Zm-55.758 171.556v1.06h12.973v-1.06zm-1.974-138.992v1.059h12.974v-1.06ZM90.77 84.986V80.64l3.074-.875v4.373zm3.657-7.42a.3.3 0 0 0-.212-.079c-.026 0-.08.027-.106.027l-3.339.927v-4.637h-.741V86.92c0 .212.158.345.37.345h.106l3.34-.928v4.638h.715V77.858c0-.106-.053-.239-.133-.292m203.711 1.176v27.203h1.192V78.742Zm295.774 0v27.203h1.191V78.742Zm-370.358 0v27.203h1.191V78.742Zm-12.86 69.497v27.202h1.191V148.24ZM378.89 9.246v27.203h1.191V9.246Zm84.396 138.993v27.202h1.191V148.24ZM148.968 78.742v27.203h1.191V78.742Zm315.67-69.496v27.203h1.19V9.246Zm-178.54 138.993v27.202h1.192V148.24ZM62.553 95.653c0-.768-.609-1.405-1.377-1.405-.769 0-1.378.637-1.378 1.405 0 .769.61 1.404 1.378 1.404s1.377-.635 1.377-1.404m0-6.619c0-.768-.609-1.404-1.377-1.404-.769 0-1.378.636-1.378 1.404 0 .769.61 1.404 1.378 1.404s1.377-.635 1.377-1.404m-6.395-10.292v27.203h1.191V78.742Zm-6.09 0v27.203h3.64V78.742ZM537.67 9.246v27.203h1.191V9.246Zm139.69 0v27.203H681V9.246Zm-3.64 0v27.203h1.191V9.246Zm-2.447 16.91c0-.768-.61-1.404-1.378-1.404-.769 0-1.378.636-1.378 1.405 0 .768.61 1.404 1.378 1.404s1.378-.636 1.378-1.404m0-6.62c0-.768-.61-1.404-1.378-1.404-.769 0-1.378.636-1.378 1.405 0 .768.61 1.404 1.378 1.404s1.378-.636 1.378-1.404m-296.58 128.7v27.203h1.191V148.24ZM293.145 9.247v27.203h1.191V9.246ZM135.286 148.239v27.202h1.191V148.24ZM220.113 9.246v27.203h1.191V9.246ZM677.36 148.239v27.202H681V148.24zm-3.64 0v27.202h1.191V148.24ZM444.74 78.742v27.203h1.192V78.742ZM147.08 9.246v27.203h1.19V9.246ZM614.1 148.239v27.202h1.191V148.24Zm65.709-69.497v27.203H681V78.742Zm-160.484 0v27.203h1.192V78.742Zm19.369 69.497v27.202h1.191V148.24ZM357.132 78.742v27.203h1.191V78.742Zm253.57-69.496v27.203h1.192V9.246ZM0 174.713v.728h681v-.728zm0-6.618v.728h681v-.728zm0-6.619v.728h681v-.728zm0-6.619v.728h681v-.728zm0-6.619v.728h681v-.728zm0-43.021v.728h681v-.728zm0-6.618v.727h681V98.6zm0-6.62v.729h681v-.728zm0-6.618v.728h681v-.728zm0-6.619v.728h681v-.728Zm0-43.021v.727h681v-.727zm0-6.619v.728h681v-.728zm0-6.619v.728h681v-.728zm0-6.618v.727h681v-.727Zm0-6.619v.728h681v-.728Z"/>
</svg>
