<?xml version="1.0" encoding="utf-8"?>
<svg xmlns="http://www.w3.org/2000/svg" xmlns:svg="http://www.w3.org/2000/svg" version="1.1" viewBox="0 0 681 48">
	<title>The musical score for Air LVII</title>
	<path d="m203.098 37.736 73.909 4.963v3.317l-73.909-4.963zm325.965-33.09 73.91-1.655V6.3l-73.91 1.655zM48.565 18.103c-.662.424-1.139 1.192-1.139 2.04 0 .106 0 .212.026.318.133 1.087 1.008 1.935 2.094 2.067h.291a2.375 2.375 0 0 0 2.385-2.385v-.159c0-.106-.026-.291-.053-.397-.238-1.14-1.272-3.577-5.776-3.577-5.777 0-6.44 4.796-6.44 6.518 0 3.154.398 7.101 7.022 7.101 2.624 0 4.664-1.536 4.77-4.371 0-.133-.08-.213-.212-.213h-.344c-.106 0-.213.107-.213.213-.105 2.199-1.669 3.524-4 3.524-2.305 0-3.419-1.245-3.419-3.577v-5.062c0-1.483.584-3.18 2.941-3.18 1.246 0 1.802.451 2.094.902.026.053.026.08.026.132 0 .027 0 .08-.053.106M28.941 7.65l2.358-.477v4.372l-2.358.504zm4.107-.821c.16-.027.292-.212.292-.371V4.893a.36.36 0 0 0-.371-.37h-.054l-.874.185V.759H31.3v4.108l-2.358.477V1.607h-.742v3.896l-1.033.212c-.16.026-.292.212-.292.37v1.537c0 .212.159.371.371.371h.08l.874-.185v4.372l-1.033.212c-.16.027-.292.212-.292.371V14.3c0 .212.159.371.371.371h.08l.874-.185v3.948h.742v-4.107l2.358-.477v3.736h.742V13.69l1.007-.186c.16-.026.292-.212.292-.37V11.57a.36.36 0 0 0-.371-.371h-.054l-.874.185V7.013zM16.093 34.924a7.7 7.7 0 0 1-1.537.16c-3.789 0-7.022-2.65-7.022-6.651 0-3.234 2.28-6.122 4.611-8.135.45-.398.875-.769 1.272-1.166.238 1.43.424 2.676.61 3.762-2.412.716-4.055 3.26-4.055 5.75 0 1.855 1.458 4.4 3.577 4.4.212 0 .451-.107.451-.345 0-.239-.265-.372-.583-.583-1.033-.636-1.616-1.325-1.616-2.623 0-1.617 1.192-2.915 2.755-3.287zm-2.332-27.24c.239-1.06 1.458-3.842 2.836-3.842.397 0 1.033 1.299 1.033 3.127 0 2.756-2.04 4.823-3.869 6.625-.159-1.06-.291-2.094-.291-3.207 0-.98.08-1.881.291-2.703m6.095 22.339c0 1.881-.768 3.815-2.65 4.584a882 882 0 0 1-1.457-8.559c2.385 0 4.107 1.616 4.107 3.975M8.196 43.06c0 1.748 1.352 4.054 4.93 4.054 1.245 0 2.331-.318 3.285-.901 1.431-1.007 1.802-2.756 1.802-4.425 0-1.034-.159-2.226-.424-3.737-.08-.53-.238-1.325-.397-2.358 2.597-.848 4.53-3.55 4.53-6.28 0-4.001-2.834-6.704-6.703-6.704-.265-1.59-.53-3.153-.769-4.637 2.81-2.942 4.744-6.254 4.744-10.467 0-2.411-.742-4.372-1.166-5.326C17.392.927 16.623 0 16.146 0c-.185 0-1.007.318-1.881 1.351-1.696 2.014-2.173 5.406-2.173 7.632 0 1.43.133 2.73.583 5.697-.026.026-1.404 1.43-1.96 1.881-2.412 2.253-5.75 5.459-5.75 10.758 0 4.956 4.318 8.851 9.247 8.851.768 0 1.484-.08 2.093-.186.504 2.545.795 4.4.795 5.804 0 2.755-1.404 4.213-4.08 4.213-.636 0-1.193-.133-1.246-.133-.026-.026-.08-.053-.08-.08 0-.052.054-.079.133-.105 1.246-.186 2.49-1.246 2.49-2.941 0-1.432-1.085-2.941-3.073-2.941-1.855 0-3.047 1.51-3.047 3.259m612.575-14.625a.99.99 0 0 1-1.06-.953c0-1.299 4.45-3.578 5.696-3.578.637 0 1.06.372 1.06.954 0 1.325-4.478 3.577-5.696 3.577m3.656-5.776c-2.57 0-5.644 2.147-5.644 4.61 0 1.14.821 2.412 2.967 2.412 2.757 0 5.645-2.253 5.645-4.584 0-1.564-1.325-2.438-2.968-2.438m-30.06 1.301c0 1.14.821 2.411 2.968 2.411 2.756 0 5.644-2.252 5.644-4.584 0-1.563-1.325-2.438-2.967-2.438-2.57 0-5.645 2.173-5.645 4.611m-24.416 3.31c0 1.139.822 2.41 2.969 2.41 2.755 0 5.643-2.252 5.643-4.583 0-1.564-1.325-2.438-2.967-2.438-2.57 0-5.645 2.173-5.645 4.61m-366.854-9.928c0 1.14.821 2.412 2.968 2.412 2.755 0 5.644-2.253 5.644-4.584 0-1.564-1.325-2.438-2.968-2.438-2.57 0-5.644 2.173-5.644 4.61M545.537 30.58c0 1.14.821 2.411 2.968 2.411 2.755 0 5.643-2.252 5.643-4.584 0-1.563-1.324-2.438-2.967-2.438-2.57 0-5.644 2.173-5.644 4.611m-24.416-3.31c0 1.14.821 2.412 2.968 2.412 2.755 0 5.644-2.253 5.644-4.584 0-1.564-1.325-2.438-2.968-2.438-2.57 0-5.644 2.173-5.644 4.61m-293.607-6.618c0 1.14.821 2.411 2.968 2.411 2.755 0 5.643-2.252 5.643-4.584 0-1.563-1.324-2.438-2.967-2.438-2.57 0-5.644 2.173-5.644 4.61M67.437 18.508a.99.99 0 0 1-1.06-.954c0-1.298 4.452-3.577 5.698-3.577.636 0 1.06.371 1.06.954 0 1.325-4.478 3.577-5.698 3.577m3.657-5.776c-2.57 0-5.644 2.146-5.644 4.61 0 1.14.822 2.412 2.968 2.412 2.755 0 5.644-2.253 5.644-4.584 0-1.564-1.325-2.438-2.968-2.438m49.292 1.301c0 1.14.82 2.411 2.968 2.411 2.755 0 5.644-2.252 5.644-4.584 0-1.563-1.325-2.438-2.968-2.438-2.57 0-5.644 2.173-5.644 4.611m354.647 9.928c0 1.14.821 2.411 2.967 2.411 2.756 0 5.644-2.252 5.644-4.584 0-1.563-1.325-2.438-2.967-2.438-2.57 0-5.644 2.173-5.644 4.611m-223.103 0c0 1.14.821 2.411 2.967 2.411 2.756 0 5.644-2.252 5.644-4.584 0-1.563-1.325-2.438-2.967-2.438-2.57 0-5.644 2.173-5.644 4.611m186.479-3.31c0 1.14.82 2.412 2.967 2.412 2.756 0 5.645-2.252 5.645-4.584 0-1.563-1.325-2.438-2.968-2.438-2.57 0-5.644 2.173-5.644 4.61m-162.064 6.62c0 1.139.822 2.41 2.968 2.41 2.756 0 5.644-2.252 5.644-4.583 0-1.564-1.325-2.438-2.967-2.438-2.571 0-5.645 2.173-5.645 4.61m125.44 0c0 1.14.821 2.412 2.968 2.412 2.756 0 5.644-2.253 5.644-4.584 0-1.564-1.325-2.438-2.968-2.438-2.57 0-5.644 2.173-5.644 4.61m-99.036 4.476a.99.99 0 0 1-1.06-.954c0-1.298 4.452-3.577 5.696-3.577.637 0 1.06.37 1.06.954 0 1.325-4.478 3.577-5.696 3.577m3.656-5.777c-2.57 0-5.644 2.146-5.644 4.611 0 1.14.821 2.411 2.967 2.411 2.757 0 5.645-2.252 5.645-4.584 0-1.563-1.325-2.438-2.968-2.438M157.01 17.34c0 1.14.821 2.412 2.967 2.412 2.756 0 5.644-2.253 5.644-4.584 0-1.564-1.325-2.438-2.967-2.438-2.571 0-5.644 2.173-5.644 4.61m208.152 6.62c0 1.138.821 2.41 2.967 2.41 2.756 0 5.644-2.252 5.644-4.584 0-1.563-1.325-2.438-2.967-2.438-2.571 0-5.644 2.173-5.644 4.611M65.45 17.34v22.054h.662V17.34Zm54.936-3.309v22.054h.662V14.03Zm289.342-9.385v20.452h.662V4.646ZM308.703 6.3v22.106h.663V6.301ZM438.41 20.65v20.399h.662v-20.4Zm-162.064 6.619v17.067h.662V27.269Zm198.687-3.31v18.744h.662V23.96Zm-223.103 0v18.737h.662V23.96ZM529.063 6.293v18.805h.662V6.293ZM227.513 20.65v20.406h.663V20.65ZM553.48 5.746v22.661h.662V5.747Zm24.416-.546v19.898h.662V5.2ZM203.098 17.34v22.076h.662V17.34ZM602.31 4.653v17.135h.662V4.653Zm24.415-.007v20.452h.663V4.646ZM365.161 23.959v18.744h.662V23.96ZM157.01 17.34v22.054h.662V17.34Zm36.624-8.094v27.203h1.191V9.246Zm318.023 0v27.203h1.191V9.246Zm-155.96 0v27.203h1.192V9.246Zm321.664 0v27.203H681V9.246Zm-3.64 0v27.203h1.191V9.246ZM0 35.72v.727h681v-.727zm0-6.619v.728h681v-.728zm0-6.619v.728h681v-.728zm0-6.618v.727h681v-.727Zm0-6.619v.728h681v-.728Z"/>
</svg>
