<?xml version="1.0" encoding="utf-8"?>
<svg xmlns="http://www.w3.org/2000/svg" xmlns:svg="http://www.w3.org/2000/svg" version="1.1" viewBox="0 0 680 193">
	<title>The musical score for Air IV</title>
	<path d="M355.76 82.23c0 .74.582 1.322 1.323 1.322.74 0 1.321-.582 1.321-1.322s-.581-1.322-1.321-1.322-1.322.581-1.322 1.322m277.514 95.755c0 .74.582 1.322 1.322 1.322s1.322-.581 1.322-1.322c0-.74-.581-1.322-1.322-1.322-.74 0-1.322.582-1.322 1.322M646.78 19.494c0 .74.581 1.322 1.322 1.322.74 0 1.321-.582 1.321-1.322s-.581-1.322-1.321-1.322-1.322.582-1.322 1.322M297.656 151.57c0 .74.581 1.322 1.322 1.322.74 0 1.322-.582 1.322-1.322s-.582-1.322-1.322-1.322-1.322.581-1.322 1.322M68.896 95.438c0 .74.581 1.322 1.322 1.322a1.31 1.31 0 0 0 1.322-1.322c0-.74-.582-1.322-1.322-1.322s-1.322.581-1.322 1.322m60.785-45.659c.563-.18.79-.275 1.078-.467.564-.371.911-1.03.911-1.701 0-1.139-.91-1.905-2.252-1.905-1.306 0-2.409.814-2.409 1.797 0 .491.3.826.755.826a.66.66 0 0 0 .683-.682c0-.204-.06-.348-.251-.54-.12-.107-.168-.191-.168-.275 0-.288.599-.587 1.162-.587.803 0 1.282.443 1.282 1.186 0 1.066-.755 2.073-1.558 2.073-.036 0-.143-.012-.275-.024-.348-.024-.348-.024-.42-.024-.263 0-.407.12-.407.335 0 .192.132.312.348.312.06 0 .143-.012.24-.024a2.4 2.4 0 0 1 .454-.048c.564 0 .947.503.947 1.246 0 1.294-.635 2.54-2.085 2.54-.67 0-1.246-.336-1.246-.719 0-.132.048-.18.24-.264.347-.155.491-.371.491-.695 0-.419-.335-.742-.767-.742-.515 0-.85.407-.85 1.03 0 1.162.886 1.893 2.324 1.893 1.81 0 3.187-1.21 3.187-2.816 0-.934-.575-1.461-1.414-1.725m284.892 138.68c.563-.18.79-.276 1.078-.467.563-.372.91-1.03.91-1.702 0-1.138-.91-1.905-2.252-1.905-1.305 0-2.408.815-2.408 1.798 0 .49.3.826.755.826a.66.66 0 0 0 .683-.683c0-.203-.06-.347-.252-.539-.12-.108-.167-.191-.167-.275 0-.288.599-.587 1.162-.587.803 0 1.282.443 1.282 1.186 0 1.066-.755 2.072-1.558 2.072-.036 0-.144-.012-.275-.023-.348-.024-.348-.024-.42-.024-.263 0-.407.12-.407.335 0 .192.132.312.347.312.06 0 .144-.012.24-.024.168-.036.348-.048.455-.048.563 0 .947.503.947 1.246 0 1.294-.635 2.54-2.085 2.54-.67 0-1.246-.336-1.246-.719 0-.132.048-.18.24-.264.347-.155.49-.371.49-.694 0-.42-.335-.743-.766-.743-.515 0-.85.407-.85 1.03 0 1.162.886 1.893 2.324 1.893 1.809 0 3.187-1.21 3.187-2.815 0-.935-.575-1.462-1.414-1.726M264.825 14.532l15.71-1.651v3.32l-15.71 1.651zm30.1-6.604 15.71 1.651v3.32l-15.71-1.65zm108.864 6.603 15.71-1.651v3.32l-15.71 1.651zm-287.023 24.77 24.404-1.652v3.31l-24.404 1.651zm282.71 137.03 28.768 1.652v3.307l-28.769-1.651zm-47.367-10.468a2 2 0 0 1-.158-.184l-3.041-3.754a.3.3 0 0 1-.053-.16c0-.079.027-.185.053-.237l2.697-4.072a.5.5 0 0 0 .053-.185v-.238a.3.3 0 0 0-.08-.212l-4.283-5.79s-.105-.158-.264-.158c-.08 0-.132.026-.212.08a.32.32 0 0 0-.132.264c0 .158.08.29.08.29l2.01 2.75q.078.12.078.317a.63.63 0 0 1-.079.318l-2.67 4.07a.6.6 0 0 0-.054.212v.238c0 .08.028.16.08.212l2.961 3.675a2.7 2.7 0 0 0-.661-.08c-1.348 0-2.406 1.111-2.406 2.46 0 .37.08.74.29 1.03.557.847 2.54 3.358 2.54 3.358s.132.159.316.159c.053 0 .107 0 .16-.053.131-.106.185-.212.185-.317s-.054-.185-.08-.238c-.08-.133-.925-1.666-.925-1.666s-.186-.37-.186-.846c0-.846.635-1.534 1.481-1.534.344 0 .635.107.846.238l1.031.662s.106.052.212.052a.29.29 0 0 0 .264-.132c.053-.106.08-.158.08-.237 0-.08-.027-.133-.08-.212zm26.724 0a2 2 0 0 1-.159-.184l-3.04-3.755a.3.3 0 0 1-.052-.158c0-.08.026-.186.052-.239l2.697-4.07a.5.5 0 0 0 .053-.186v-.238a.3.3 0 0 0-.08-.212l-4.282-5.79s-.107-.158-.265-.158c-.08 0-.132.026-.211.08a.32.32 0 0 0-.133.264c0 .158.08.29.08.29l2.009 2.75q.079.12.08.317a.63.63 0 0 1-.08.318l-2.67 4.07a.6.6 0 0 0-.053.212v.238a.3.3 0 0 0 .079.212l2.96 3.675a2.7 2.7 0 0 0-.66-.08c-1.348 0-2.405 1.111-2.405 2.46 0 .37.079.74.29 1.03.555.847 2.539 3.358 2.539 3.358s.132.159.317.159c.053 0 .105 0 .158-.053.133-.106.185-.212.185-.317s-.052-.185-.079-.238c-.08-.133-.926-1.666-.926-1.666s-.184-.37-.184-.846c0-.846.634-1.534 1.48-1.534.343 0 .635.107.846.238l1.031.662s.106.052.212.052a.29.29 0 0 0 .264-.132c.053-.106.08-.158.08-.237 0-.08-.027-.133-.08-.212zM52.232 32.72v1.956h-2.195a.38.38 0 0 0-.37.37v.502c0 .212.185.37.37.37h8.011c.212 0 .37-.158.37-.37v-.502c0-.211-.158-.37-.37-.37h-2.38v-1.956h2.38c.212 0 .37-.186.37-.397v-.503a.38.38 0 0 0-.37-.37h-2.38v-4.203c0-.16-.078-.291-.185-.344l-.317-.159c-.053-.026-.079-.026-.132-.026-.106 0-.211 0-.291.08l-2.406 2.194a.4.4 0 0 0-.105.29v2.169h-3.068s2.961-3.173 6.081-7.35a.57.57 0 0 0 .133-.37.43.43 0 0 0-.08-.265l-.582-.582c-.079-.053-.158-.105-.264-.105h-3.94c-.184 0-.316.158-.343.317 0 0-.132 1.957-.82 4.098s-1.48 3.463-2.167 4.442c0 0-.08.132-.08.29 0 .053 0 .106.027.159.08.185.265.476.265.476s.052.159.29.159zm2.734-16.792c2.115-.82 2.247-2.195 2.247-2.67v-.133c0-.238-.08-3.225-4.627-3.225s-4.415 3.225-4.415 3.225h.026l-.026.053c0 .952.767 1.692 1.719 1.692a1.67 1.67 0 0 0 1.691-1.692c0-.767-.581-1.507-1.322-1.666l.08-.079c.37-.264.873-.396 1.375-.396 1.11 0 2.3.66 2.3 2.088 0 1.666-1.242 1.904-1.56 1.957-.317.053-1.798.158-2.115.158s-.344.37-.344.37v.53s.053.29.344.316c.45.027 1.057.027 1.904.16 1.163.158 1.77.95 1.77 2.802 0 1.77-1.189 2.247-2.299 2.247-.74 0-1.428-.212-1.719-.423.872-.053 1.586-.82 1.586-1.692 0-.952-.74-1.719-1.691-1.719s-1.72.767-1.72 1.719c0 2.168 1.984 3.252 3.94 3.252 2.539 0 5.288-.873 5.288-3.755 0-1.93-1.322-2.75-2.485-3.12zm-18.853 1.611 2.353-.475v4.362l-2.353.502zm4.098-.82c.16-.026.291-.21.291-.37v-1.56a.36.36 0 0 0-.37-.37h-.053l-.873.186v-3.94h-.74v4.098l-2.353.476V11.51h-.74v3.887l-1.03.211c-.16.027-.292.212-.292.37v1.534c0 .211.158.37.37.37h.08l.872-.185v4.362l-1.03.212c-.16.026-.292.211-.292.37v1.534c0 .21.158.37.37.37h.08l.872-.186v3.94h.74V24.2l2.353-.476v3.728h.74v-3.887l1.005-.184c.16-.027.291-.212.291-.37v-1.56a.36.36 0 0 0-.37-.37h-.053l-.873.184v-4.362zM28.875 7.632l2.354-.476v4.362l-2.354.503zm4.099-.819c.159-.026.29-.211.29-.37v-1.56a.36.36 0 0 0-.37-.37h-.053l-.872.185V.757h-.74v4.099l-2.354.476V1.604h-.74V5.49l-1.03.212c-.16.026-.291.211-.291.37v1.533c0 .212.158.37.37.37h.079l.873-.185v4.363l-1.031.211c-.16.027-.291.212-.291.37v1.534c0 .211.158.37.37.37h.079l.873-.185v3.94h.74v-4.099l2.353-.476v3.728h.74V13.66l1.005-.185c.159-.027.29-.212.29-.37v-1.56a.36.36 0 0 0-.37-.37h-.053l-.872.185V6.997zm3.139 149.406 2.353-.476v4.362l-2.353.502zm4.098-.82c.16-.027.291-.211.291-.37v-1.56a.36.36 0 0 0-.37-.37h-.053l-.873.184v-3.938h-.74v4.097l-2.353.476v-3.727h-.74v3.885l-1.031.212c-.159.026-.29.212-.29.37v1.534c0 .211.157.37.37.37h.078l.873-.185v4.363l-1.031.21c-.159.028-.29.212-.29.371v1.534c0 .21.157.37.37.37h.078l.873-.186v3.94h.74v-4.098l2.353-.476v3.728h.74v-3.887l1.005-.184c.16-.027.291-.212.291-.371v-1.56c0-.21-.159-.37-.37-.37h-.053l-.873.185v-4.362zm-11.336-9.085 2.354-.476v4.362l-2.354.503zm4.099-.819c.159-.026.29-.212.29-.37v-1.56a.36.36 0 0 0-.37-.37h-.053l-.872.185v-3.94h-.74v4.099l-2.354.475v-3.728h-.74v3.887l-1.03.212c-.16.026-.291.212-.291.37v1.533c0 .212.158.37.37.37h.079l.873-.184v4.362l-1.031.211c-.16.027-.291.212-.291.37v1.534c0 .211.158.37.37.37h.079l.873-.185v3.94h.74v-4.099l2.353-.476v3.728h.74v-3.886l1.005-.186c.159-.026.29-.211.29-.37v-1.56a.36.36 0 0 0-.37-.37h-.053l-.872.185v-4.362zm3.139-58.614 2.353-.476v4.362l-2.353.502zm4.098-.82c.16-.027.29-.211.29-.37v-1.56a.36.36 0 0 0-.369-.37h-.053l-.873.184v-3.938h-.74V84.1l-2.353.476V80.85h-.74v3.886l-1.031.211c-.159.027-.29.212-.29.37v1.534c0 .211.157.37.37.37h.078l.873-.185v4.363l-1.031.21c-.159.028-.29.212-.29.371v1.534c0 .21.157.37.37.37h.078l.873-.186v3.94h.74V93.54l2.353-.476v3.728h.74v-3.887l1.005-.184c.16-.027.291-.212.291-.371v-1.56c0-.21-.159-.37-.37-.37h-.053l-.873.185v-4.362zm-11.336-9.085 2.354-.476v4.362l-2.354.503zm4.099-.819c.159-.026.29-.211.29-.37v-1.56a.36.36 0 0 0-.37-.37h-.053l-.872.185v-3.94h-.74v4.098l-2.354.476v-3.727h-.74v3.886l-1.03.212c-.16.026-.291.21-.291.37v1.533c0 .212.158.37.37.37h.079l.873-.184v4.362l-1.031.211c-.16.027-.291.212-.291.37v1.534c0 .211.158.37.37.37h.079l.873-.185v3.94h.74v-4.099l2.353-.476v3.728h.74V83l1.005-.185c.159-.027.29-.212.29-.37v-1.56a.36.36 0 0 0-.37-.37h-.053l-.872.184v-4.362zM16.057 34.846a7.7 7.7 0 0 1-1.533.159c-3.781 0-7.007-2.644-7.007-6.636 0-3.226 2.274-6.108 4.6-8.117.45-.397.873-.767 1.27-1.163.238 1.427.423 2.67.608 3.754-2.406.713-4.045 3.252-4.045 5.737 0 1.85 1.454 4.389 3.569 4.389.212 0 .45-.106.45-.344s-.265-.37-.582-.581c-1.031-.635-1.613-1.322-1.613-2.618 0-1.612 1.19-2.908 2.75-3.278zM13.731 7.667c.237-1.057 1.454-3.833 2.828-3.833.397 0 1.032 1.295 1.032 3.12 0 2.749-2.036 4.811-3.86 6.609-.16-1.058-.291-2.089-.291-3.2 0-.977.079-1.876.29-2.696m6.081 22.288c0 1.877-.766 3.807-2.643 4.574a880 880 0 0 1-1.455-8.54c2.38 0 4.098 1.613 4.098 3.966M8.178 42.963c0 1.744 1.349 4.045 4.918 4.045 1.243 0 2.327-.318 3.278-.899 1.428-1.005 1.798-2.75 1.798-4.416 0-1.03-.158-2.22-.423-3.727-.08-.529-.238-1.322-.396-2.353 2.59-.846 4.52-3.543 4.52-6.267 0-3.992-2.828-6.688-6.688-6.688-.265-1.587-.53-3.146-.767-4.627 2.802-2.935 4.732-6.24 4.732-10.443 0-2.406-.74-4.363-1.163-5.314C17.353.925 16.586 0 16.11 0c-.185 0-1.005.317-1.877 1.348-1.692 2.01-2.168 5.394-2.168 7.615 0 1.427.132 2.723.582 5.684-.027.026-1.402 1.428-1.957 1.877-2.406 2.247-5.737 5.446-5.737 10.734 0 4.944 4.31 8.83 9.227 8.83.767 0 1.48-.078 2.089-.185.502 2.539.793 4.39.793 5.79 0 2.75-1.401 4.204-4.072 4.204-.634 0-1.19-.132-1.242-.132-.027-.027-.08-.053-.08-.08 0-.052.053-.078.133-.105 1.242-.185 2.485-1.243 2.485-2.934 0-1.429-1.084-2.935-3.067-2.935-1.85 0-3.04 1.506-3.04 3.252m7.878 130.563a7.7 7.7 0 0 1-1.533.159c-3.781 0-7.007-2.644-7.007-6.636 0-3.226 2.274-6.108 4.6-8.117.45-.397.873-.767 1.27-1.163.238 1.427.423 2.67.608 3.754-2.406.713-4.045 3.252-4.045 5.737 0 1.85 1.454 4.389 3.569 4.389.212 0 .45-.106.45-.344s-.265-.37-.582-.581c-1.031-.635-1.613-1.322-1.613-2.618 0-1.612 1.19-2.908 2.75-3.279zm-2.326-27.18c.237-1.057 1.454-3.832 2.828-3.832.397 0 1.032 1.295 1.032 3.12 0 2.749-2.036 4.811-3.86 6.61-.16-1.058-.291-2.09-.291-3.2 0-.978.079-1.878.29-2.697m6.081 22.288c0 1.877-.766 3.807-2.643 4.574a880 880 0 0 1-1.455-8.54c2.38 0 4.098 1.613 4.098 3.966M8.178 181.643c0 1.744 1.349 4.044 4.918 4.044 1.243 0 2.327-.317 3.278-.898 1.428-1.005 1.798-2.75 1.798-4.416 0-1.03-.158-2.22-.423-3.727-.08-.53-.238-1.322-.396-2.354 2.59-.845 4.52-3.542 4.52-6.266 0-3.992-2.828-6.688-6.688-6.688-.265-1.587-.53-3.147-.767-4.627 2.802-2.935 4.732-6.24 4.732-10.443 0-2.406-.74-4.362-1.163-5.314-.634-1.349-1.401-2.274-1.877-2.274-.185 0-1.005.318-1.877 1.348-1.692 2.01-2.168 5.394-2.168 7.614 0 1.428.132 2.724.582 5.685-.027.026-1.402 1.427-1.957 1.877-2.406 2.247-5.737 5.446-5.737 10.734 0 4.944 4.31 8.83 9.227 8.83.767 0 1.48-.079 2.089-.185.502 2.539.793 4.39.793 5.79 0 2.75-1.401 4.204-4.072 4.204-.634 0-1.19-.132-1.242-.132-.027-.027-.08-.053-.08-.08 0-.052.053-.079.133-.105 1.242-.185 2.485-1.243 2.485-2.935 0-1.428-1.084-2.934-3.067-2.934-1.85 0-3.04 1.506-3.04 3.252m7.878-77.457a7.7 7.7 0 0 1-1.533.159c-3.781 0-7.007-2.644-7.007-6.636 0-3.226 2.274-6.108 4.6-8.117.45-.397.873-.767 1.27-1.163.238 1.427.423 2.67.608 3.754-2.406.713-4.045 3.252-4.045 5.737 0 1.85 1.454 4.389 3.569 4.389.212 0 .45-.106.45-.344s-.265-.37-.582-.581c-1.031-.635-1.613-1.322-1.613-2.618 0-1.612 1.19-2.908 2.75-3.279zm-2.326-27.18c.237-1.057 1.454-3.832 2.828-3.832.397 0 1.032 1.295 1.032 3.12 0 2.749-2.036 4.811-3.86 6.61-.16-1.058-.291-2.09-.291-3.2 0-.978.079-1.878.29-2.697m6.081 22.288c0 1.877-.766 3.807-2.643 4.574a880 880 0 0 1-1.455-8.54c2.38 0 4.098 1.613 4.098 3.966M8.178 112.303c0 1.744 1.349 4.044 4.918 4.044 1.243 0 2.327-.317 3.278-.898 1.428-1.005 1.798-2.75 1.798-4.416 0-1.03-.158-2.22-.423-3.727-.08-.53-.238-1.322-.396-2.353 2.59-.846 4.52-3.543 4.52-6.267 0-3.992-2.828-6.688-6.688-6.688-.265-1.587-.53-3.147-.767-4.627 2.802-2.935 4.732-6.24 4.732-10.443 0-2.406-.74-4.362-1.163-5.314-.634-1.349-1.401-2.274-1.877-2.274-.185 0-1.005.318-1.877 1.348-1.692 2.01-2.168 5.394-2.168 7.614 0 1.429.132 2.724.582 5.685-.027.026-1.402 1.427-1.957 1.877-2.406 2.247-5.737 5.446-5.737 10.734 0 4.944 4.31 8.83 9.227 8.83.767 0 1.48-.078 2.089-.185.502 2.539.793 4.39.793 5.79 0 2.75-1.401 4.204-4.072 4.204-.634 0-1.19-.132-1.242-.132-.027-.027-.08-.053-.08-.08 0-.052.053-.079.133-.105 1.242-.185 2.485-1.243 2.485-2.935 0-1.428-1.084-2.934-3.067-2.934-1.85 0-3.04 1.506-3.04 3.252m508.074-25.66c0 1.137.82 2.405 2.961 2.405 2.75 0 5.631-2.247 5.631-4.574 0-1.56-1.321-2.432-2.96-2.432-2.565 0-5.632 2.168-5.632 4.6M395.865 37.113c0 1.138.82 2.407 2.96 2.407 2.75 0 5.632-2.248 5.632-4.574 0-1.56-1.322-2.432-2.961-2.432-2.565 0-5.631 2.167-5.631 4.6m31.719 125.472c0 1.137.82 2.406 2.96 2.406 2.75 0 5.632-2.247 5.632-4.574 0-1.56-1.322-2.432-2.961-2.432-2.565 0-5.631 2.168-5.631 4.6m-317.746-56.133c0 1.138.82 2.407 2.962 2.407 2.749 0 5.63-2.248 5.63-4.574 0-1.56-1.321-2.433-2.96-2.433-2.565 0-5.632 2.168-5.632 4.6m303.691 52.831c0 1.137.82 2.406 2.962 2.406 2.75 0 5.631-2.247 5.631-4.574 0-1.56-1.322-2.432-2.961-2.432-2.565 0-5.632 2.168-5.632 4.6M131.86 86.642c0 1.138.82 2.406 2.962 2.406 2.75 0 5.631-2.247 5.631-4.574 0-1.56-1.322-2.432-2.96-2.432-2.565 0-5.633 2.168-5.633 4.6m323.66 79.246c0 1.137.82 2.406 2.961 2.406 2.75 0 5.631-2.247 5.631-4.574 0-1.56-1.322-2.432-2.96-2.432-2.565 0-5.633 2.168-5.633 4.6M116.766 23.906c0 1.137.82 2.406 2.961 2.406 2.75 0 5.631-2.247 5.631-4.574 0-1.56-1.322-2.432-2.96-2.432-2.565 0-5.632 2.168-5.632 4.6M58.991 97.711a.99.99 0 0 1-1.058-.951c0-1.296 4.442-3.57 5.685-3.57.634 0 1.057.37 1.057.952 0 1.322-4.468 3.57-5.684 3.57m3.648-5.765c-2.565 0-5.63 2.143-5.63 4.601 0 1.137.819 2.406 2.96 2.406 2.75 0 5.631-2.248 5.631-4.574 0-1.56-1.322-2.433-2.96-2.433m336.835 64.035c0 1.137.82 2.406 2.961 2.406 2.75 0 5.632-2.247 5.632-4.574 0-1.56-1.322-2.432-2.96-2.432-2.566 0-5.633 2.168-5.633 4.6M153.881 89.944c0 1.137.82 2.406 2.962 2.406 2.749 0 5.63-2.247 5.63-4.574 0-1.56-1.321-2.432-2.96-2.432-2.565 0-5.632 2.168-5.632 4.6m328.362 89.151c0 1.138.82 2.406 2.96 2.406 2.75 0 5.632-2.247 5.632-4.573 0-1.56-1.322-2.433-2.961-2.433-2.564 0-5.631 2.168-5.631 4.6m26.723-9.905c0 1.137.82 2.406 2.962 2.406 2.75 0 5.631-2.248 5.631-4.574 0-1.56-1.322-2.433-2.96-2.433-2.565 0-5.633 2.169-5.633 4.601M71.617 17.302c0 1.137.82 2.406 2.961 2.406 2.75 0 5.631-2.247 5.631-4.574 0-1.56-1.322-2.432-2.96-2.432-2.565 0-5.632 2.168-5.632 4.6m473.517 155.19c0 1.137.82 2.406 2.961 2.406 2.75 0 5.632-2.248 5.632-4.574 0-1.56-1.322-2.433-2.961-2.433-2.565 0-5.632 2.168-5.632 4.601m12.59-145.284c0 1.137.82 2.406 2.961 2.406 2.75 0 5.632-2.248 5.632-4.574 0-1.56-1.322-2.432-2.96-2.432-2.566 0-5.633 2.168-5.633 4.6M287.751 157.146a.99.99 0 0 1-1.058-.952c0-1.296 4.442-3.57 5.685-3.57.634 0 1.057.37 1.057.952 0 1.322-4.468 3.57-5.684 3.57m3.648-5.764c-2.564 0-5.63 2.142-5.63 4.6 0 1.137.819 2.406 2.96 2.406 2.75 0 5.631-2.247 5.631-4.574 0-1.56-1.322-2.432-2.96-2.432m72.446-110.966c0 1.137.82 2.405 2.962 2.405 2.75 0 5.631-2.247 5.631-4.573 0-1.56-1.322-2.432-2.96-2.432-2.566 0-5.633 2.167-5.633 4.6m-178.5 52.83c0 1.137.82 2.406 2.96 2.406 2.75 0 5.633-2.247 5.633-4.574 0-1.56-1.322-2.432-2.962-2.432-2.564 0-5.631 2.168-5.631 4.6m-56.708-72.642c0 1.137.82 2.406 2.961 2.406 2.75 0 5.632-2.247 5.632-4.574 0-1.56-1.322-2.432-2.961-2.432-2.565 0-5.632 2.168-5.632 4.6m109.584 139.844a.99.99 0 0 1-1.058-.952c0-1.296 4.441-3.57 5.684-3.57.634 0 1.058.37 1.058.952 0 1.322-4.468 3.57-5.684 3.57m3.648-5.764c-2.564 0-5.631 2.142-5.631 4.6 0 1.137.82 2.406 2.96 2.406 2.75 0 5.633-2.247 5.633-4.574 0-1.56-1.322-2.432-2.962-2.432m-32.52-53.67a.99.99 0 0 1-1.057-.952c0-1.296 4.441-3.57 5.684-3.57.634 0 1.057.37 1.057.952 0 1.322-4.468 3.57-5.684 3.57m3.648-5.765c-2.564 0-5.63 2.142-5.63 4.601 0 1.137.819 2.406 2.96 2.406 2.75 0 5.632-2.248 5.632-4.574 0-1.56-1.322-2.433-2.962-2.433m-3.483 67.337c0 1.137.82 2.406 2.961 2.406 2.75 0 5.631-2.247 5.631-4.574 0-1.56-1.322-2.432-2.96-2.432-2.566 0-5.632 2.168-5.632 4.6M331.968 44.881a.99.99 0 0 1-1.058-.952c0-1.295 4.442-3.57 5.684-3.57.635 0 1.057.371 1.057.953 0 1.322-4.467 3.57-5.683 3.57m3.648-5.764c-2.565 0-5.632 2.141-5.632 4.6 0 1.136.82 2.405 2.962 2.405 2.75 0 5.631-2.247 5.631-4.573 0-1.56-1.322-2.432-2.96-2.432m90.347-8.608c0 1.137.82 2.406 2.962 2.406 2.749 0 5.63-2.248 5.63-4.574 0-1.56-1.321-2.433-2.96-2.433-2.565 0-5.632 2.17-5.632 4.601M140.511 17.302c0 1.137.82 2.406 2.96 2.406 2.75 0 5.632-2.247 5.632-4.574 0-1.56-1.322-2.432-2.961-2.432-2.565 0-5.631 2.168-5.631 4.6m32.836 148.586c0 1.137.82 2.406 2.961 2.406 2.75 0 5.632-2.247 5.632-4.574 0-1.56-1.322-2.432-2.961-2.432-2.565 0-5.632 2.168-5.632 4.6M302.05 37.113c0 1.138.82 2.407 2.96 2.407 2.75 0 5.632-2.248 5.632-4.574 0-1.56-1.322-2.432-2.961-2.432-2.565 0-5.631 2.167-5.631 4.6m-166.806 133.24a.99.99 0 0 1-1.057-.952c0-1.296 4.44-3.57 5.684-3.57.635 0 1.057.37 1.057.952 0 1.322-4.468 3.57-5.684 3.57m3.648-5.765c-2.564 0-5.63 2.142-5.63 4.601 0 1.137.819 2.406 2.96 2.406 2.75 0 5.632-2.248 5.632-4.574 0-1.56-1.322-2.433-2.962-2.433m112.933-66.878a.99.99 0 0 1-1.057-.951c0-1.296 4.442-3.57 5.685-3.57.634 0 1.057.37 1.057.952 0 1.322-4.468 3.57-5.685 3.57m3.649-5.765c-2.565 0-5.631 2.143-5.631 4.601 0 1.137.82 2.406 2.96 2.406 2.75 0 5.632-2.248 5.632-4.574 0-1.56-1.322-2.433-2.961-2.433m56.934 4.601c0 1.137.82 2.406 2.96 2.406 2.75 0 5.632-2.248 5.632-4.574 0-1.56-1.322-2.433-2.961-2.433-2.565 0-5.631 2.169-5.631 4.601m-141.98-68.177a.987.987 0 0 1-1.057-.951c0-1.296 4.442-3.57 5.684-3.57.635 0 1.057.37 1.057.952 0 1.322-4.468 3.57-5.684 3.57m3.65-5.764c-2.566 0-5.633 2.142-5.633 4.6 0 1.137.82 2.406 2.961 2.406 2.75 0 5.632-2.248 5.632-4.574 0-1.56-1.322-2.432-2.96-2.432M85.714 173.655a.99.99 0 0 1-1.058-.952c0-1.295 4.441-3.569 5.684-3.569.635 0 1.058.37 1.058.952 0 1.322-4.468 3.57-5.684 3.57m3.648-5.765c-2.564 0-5.631 2.142-5.631 4.601 0 1.137.82 2.406 2.96 2.406 2.75 0 5.633-2.248 5.633-4.574 0-1.56-1.322-2.433-2.962-2.433m484.478 9.066a.99.99 0 0 1-1.057-.952c0-1.296 4.44-3.569 5.684-3.569.634 0 1.057.37 1.057.952 0 1.321-4.468 3.57-5.684 3.57m3.648-5.765c-2.564 0-5.63 2.142-5.63 4.6 0 1.138.819 2.407 2.96 2.407 2.75 0 5.632-2.248 5.632-4.574 0-1.56-1.322-2.433-2.962-2.433m-520.48 4.6c0 1.138.819 2.407 2.96 2.407 2.75 0 5.631-2.248 5.631-4.574 0-1.56-1.322-2.433-2.96-2.433-2.566 0-5.632 2.168-5.632 4.6M287 30.51c0 1.137.82 2.406 2.96 2.406 2.75 0 5.632-2.248 5.632-4.574 0-1.56-1.322-2.433-2.961-2.433-2.565 0-5.631 2.17-5.631 4.601m293.3-13.208c0 1.137.819 2.406 2.96 2.406 2.75 0 5.631-2.247 5.631-4.574 0-1.56-1.322-2.432-2.96-2.432-2.565 0-5.632 2.168-5.632 4.6m43.072 162.957a.99.99 0 0 1-1.058-.952c0-1.296 4.441-3.569 5.684-3.569.634 0 1.058.37 1.058.952 0 1.321-4.469 3.57-5.684 3.57m3.648-5.765c-2.564 0-5.631 2.142-5.631 4.6 0 1.138.819 2.406 2.96 2.406 2.75 0 5.632-2.247 5.632-4.573 0-1.56-1.322-2.433-2.961-2.433m-281.164-86.69a.99.99 0 0 1-1.057-.951c0-1.296 4.442-3.569 5.684-3.569.635 0 1.057.37 1.057.951 0 1.322-4.467 3.57-5.684 3.57m3.649-5.764c-2.565 0-5.632 2.142-5.632 4.6 0 1.138.82 2.406 2.962 2.406 2.75 0 5.631-2.247 5.631-4.574 0-1.56-1.322-2.432-2.961-2.432m131.053-48.23c0 1.137.82 2.406 2.961 2.406 2.75 0 5.632-2.248 5.632-4.574 0-1.56-1.322-2.433-2.961-2.433-2.565 0-5.632 2.168-5.632 4.601m156.318-8.743a.987.987 0 0 1-1.057-.951c0-1.296 4.44-3.57 5.684-3.57.634 0 1.057.37 1.057.952 0 1.322-4.468 3.57-5.684 3.57m3.648-5.764c-2.564 0-5.631 2.141-5.631 4.6 0 1.137.82 2.406 2.96 2.406 2.75 0 5.633-2.247 5.633-4.574 0-1.56-1.322-2.432-2.962-2.432m-137.391 4.6c0 1.137.82 2.406 2.96 2.406 2.75 0 5.633-2.247 5.633-4.574 0-1.56-1.322-2.432-2.962-2.432-2.564 0-5.631 2.168-5.631 4.6M271.95 33.812c0 1.137.82 2.406 2.96 2.406 2.75 0 5.633-2.248 5.633-4.574 0-1.56-1.322-2.433-2.962-2.433-2.564 0-5.631 2.168-5.631 4.601m253.757-6.604c0 1.137.82 2.406 2.96 2.406 2.75 0 5.632-2.248 5.632-4.574 0-1.56-1.322-2.432-2.961-2.432-2.565 0-5.631 2.168-5.631 4.6m-323.4 3.302c0 1.137.82 2.406 2.961 2.406 2.75 0 5.632-2.248 5.632-4.574 0-1.56-1.322-2.433-2.96-2.433-2.566 0-5.633 2.17-5.633 4.601m453.95 79.245c0 1.138.82 2.406 2.962 2.406 2.75 0 5.63-2.247 5.63-4.573 0-1.56-1.321-2.433-2.96-2.433-2.564 0-5.631 2.168-5.631 4.6M396.703 86.642c0 1.138.82 2.406 2.96 2.406 2.75 0 5.633-2.247 5.633-4.574 0-1.56-1.322-2.432-2.961-2.432-2.565 0-5.632 2.168-5.632 4.6m228.506 1.164a.99.99 0 0 1-1.058-.952c0-1.296 4.441-3.569 5.684-3.569.635 0 1.058.37 1.058.951 0 1.322-4.469 3.57-5.684 3.57m3.648-5.764c-2.564 0-5.632 2.142-5.632 4.6 0 1.138.82 2.406 2.961 2.406 2.75 0 5.632-2.247 5.632-4.574 0-1.56-1.322-2.432-2.961-2.432m-217.942-48.23c0 1.137.82 2.406 2.96 2.406 2.75 0 5.632-2.248 5.632-4.574 0-1.56-1.322-2.433-2.961-2.433-2.565 0-5.631 2.168-5.631 4.601m7.81 59.434c0 1.137.819 2.406 2.96 2.406 2.75 0 5.632-2.247 5.632-4.574 0-1.56-1.322-2.432-2.962-2.432-2.564 0-5.63 2.168-5.63 4.6m-184.4-59.434c0 1.137.82 2.406 2.962 2.406 2.749 0 5.63-2.248 5.63-4.574 0-1.56-1.321-2.433-2.96-2.433-2.565 0-5.631 2.168-5.631 4.601M591.76 96.548c0 1.137.82 2.406 2.962 2.406 2.75 0 5.631-2.248 5.631-4.574 0-1.56-1.322-2.433-2.96-2.433-2.565 0-5.633 2.169-5.633 4.601M440.746 99.85c0 1.137.82 2.406 2.96 2.406 2.75 0 5.632-2.248 5.632-4.574 0-1.56-1.321-2.433-2.961-2.433-2.564 0-5.631 2.169-5.631 4.601m128.993-6.604c0 1.137.82 2.406 2.962 2.406 2.749 0 5.63-2.247 5.63-4.574 0-1.56-1.321-2.432-2.96-2.432-2.565 0-5.632 2.168-5.632 4.6m-121.2-59.434c0 1.137.82 2.406 2.96 2.406 2.75 0 5.633-2.248 5.633-4.574 0-1.56-1.322-2.433-2.962-2.433-2.564 0-5.631 2.168-5.631 4.601m99.179 56.132c0 1.137.82 2.406 2.961 2.406 2.75 0 5.631-2.247 5.631-4.574 0-1.56-1.321-2.432-2.96-2.432-2.565 0-5.632 2.168-5.632 4.6m-75.507 16.51c0 1.137.82 2.406 2.96 2.406 2.75 0 5.632-2.248 5.632-4.574 0-1.56-1.322-2.433-2.961-2.433-2.565 0-5.631 2.168-5.631 4.6m22.021-23.113c0 1.138.82 2.407 2.96 2.407 2.75 0 5.632-2.248 5.632-4.575 0-1.56-1.322-2.432-2.96-2.432-2.566 0-5.632 2.168-5.632 4.6M256.9 37.113c0 1.138.82 2.407 2.962 2.407 2.749 0 5.63-2.248 5.63-4.574 0-1.56-1.321-2.432-2.96-2.432-2.565 0-5.632 2.167-5.632 4.6M94.19 27.207c0 1.137.82 2.406 2.962 2.406 2.75 0 5.631-2.248 5.631-4.574 0-1.56-1.322-2.432-2.96-2.432-2.566 0-5.633 2.168-5.633 4.6m508.683-6.604c0 1.137.82 2.406 2.961 2.406 2.75 0 5.631-2.247 5.631-4.574 0-1.56-1.322-2.432-2.96-2.432-2.565 0-5.632 2.168-5.632 4.6m-86.621 66.037v22.004h.66V86.641Zm-22.021-3.302v22.004h.66V83.34ZM456.464 9.59v22.056h.66V9.588Zm23.67 72.64v22.057h.661V82.23Zm89.605 11.016v18.702h.661V93.245Zm-289.864-78.67v17.07h.66v-17.07Zm319.81 59.4v20.406h.66V73.976ZM448.67 75.628v22.056h.66V75.627ZM242.25 9.588v22.057h.66V9.588Zm176.475 83.657v18.702h.66V93.245Zm245.457-7.713v22.056h.66V85.532Zm-267.479 1.11v22.003h.66V86.641ZM533.631 4.634v20.406h.66V4.635ZM294.925 9.623v18.72h.66V9.623Zm208.207 14.282v18.702h.66V23.905Zm-292.9-17.619v22.057h.66V6.286Zm133.64 80.355v22.004h.661V86.641ZM64.932 151.57v22.056h.66V151.57zm26.724-3.302v22.057h.661v-22.057ZM176.37 4.635v20.406h.66V4.635Zm143.962 69.34v20.406h.66V73.976Zm-10.358-62.77v23.742h.66V11.204ZM141.186 144.966v22.056h.66v-22.056zm40.086-1.651v20.405h.66v-20.405ZM337.909 19.494V41.55h.66V19.494Zm-80.142 54.482V94.38h.66V73.976ZM140.51 17.3v22.027h.66V17.3Zm69.005 145.284v18.702h.66v-18.702ZM565.649 4.635v20.406h.66V4.635Zm-329.41 154.648v20.353h.66v-20.353Zm-20.947-83.656v22.056h.66V75.627Zm-86.654-55.024v19.528h.661V20.603Zm56.707 72.642v18.702h.66V93.245Zm186.426-77.053V38.25h.66V16.192Zm-86.003 139.79v22.003h.66v-22.004zm113.708 0v22.022h.66v-22.023ZM153.88 89.942v20.353h.66V89.943Zm259.648 69.34v19.528h.661v-19.528ZM131.86 86.641v22.004h.661V86.641Zm295.724 75.944v17.032h.661v-17.032ZM117.763 82.23v22.056h.66V82.23ZM403.79 16.157v18.79h.66v-18.79Zm-287.024 7.748v17.029h.66V23.905Zm346.677 119.41v20.406h.66v-20.405zm26.725 11.557v22.056h.66v-22.056ZM64.932 73.976V94.38h.66V73.976Zm451.96 70.99v22.057h.66v-22.056ZM102.115 4.637V25.04h.66V4.635Zm450.942 143.632v22.057h.661v-22.057Zm26.725 3.302v22.056h.66V151.57zm.516-134.269v22.004h.66V17.301Zm-508.682 0v22.004h.66V17.301Zm531.257 3.302v20.353h.66V20.603Zm-184.035-6.027v17.07h.66v-17.07Zm210.473 140.296v22.056h.66v-22.056ZM488.482 9.588v22.057h.66V9.588Zm146.41 14.317v18.702h.66V23.905Zm-11.667 62.736v22.004h.66V86.641ZM433.889 6.286v22.057h.66V6.286Zm-169.065 9.871v18.79h.661v-18.79Zm282.894 73.786v20.353h.66V89.943ZM327.805 42.08v1.057h12.945v-1.057zM201.333 96.783l2.352-.476v4.363l-2.352.502zm4.097-.82c.16-.026.291-.211.291-.37v-1.56a.36.36 0 0 0-.37-.37h-.053l-.873.185V89.91h-.74v4.098l-2.352.476v-3.728h-.74v3.887l-1.032.211c-.159.027-.29.212-.29.37v1.534c0 .211.157.37.37.37h.078l.873-.185v4.362l-1.03.212c-.16.026-.292.211-.292.37v1.533c0 .212.158.37.37.37h.08l.872-.185v3.94h.74v-4.099l2.353-.475v3.728h.74v-3.887l1.005-.185c.16-.026.291-.212.291-.37v-1.56a.36.36 0 0 0-.37-.37h-.052l-.874.185v-4.362zm169.665-21.57c-10.323 0-20.643 2.037-25.857 6.189a.17.17 0 0 0-.013.107.17.17 0 0 0-.027.106l.014.01v.008a.2.2 0 0 0 .046.026.2.2 0 0 0 .053.03.2.2 0 0 0 .062-.01.2.2 0 0 0 .051-.006c5.09-3.009 15.386-4.545 25.671-4.545s20.583 1.536 25.671 4.545a.165.165 0 0 0 .187-.271c-5.214-4.153-15.534-6.19-25.858-6.19m0 .33c9.04 0 18.077 1.598 23.588 4.737-5.611-2.335-14.594-3.482-23.588-3.482-8.993 0-17.976 1.147-23.587 3.482 5.51-3.14 14.549-4.737 23.587-4.737M349.34 80.71c10.303-8.204 41.208-8.204 51.51 0-10.302-6.09-41.207-6.09-51.51 0m81.02-43.317a.165.165 0 0 0-.223.016c-3.287 3.497-8.68 5.81-14.296 6.636-5.615.825-11.446.161-15.6-2.242l-.015.004a.165.165 0 0 0-.197.036l.002.016-.015.004a.17.17 0 0 0 .027.104.17.17 0 0 0 .012.108c8.795 7.02 23.935 4.794 30.338-4.46a.165.165 0 0 0-.032-.222m-1.551 1.694c-6.39 7.132-18.642 8.934-26.813 3.942 4.01 1.67 9.032 2.057 13.893 1.343 4.862-.715 9.56-2.53 12.92-5.285m-28.65 2.859c8.4 4.86 23.45 2.648 30.098-4.425-6.34 9.164-21.39 11.376-30.099 4.425M517.205 10.93c-3.528-.041-7.08 1.122-9.89 3.62v.015a.165.165 0 0 0-.03.196l.017.012v.01h.015a.165.165 0 0 0 .196.03c3.208-2.037 7.62-2.592 11.82-1.88 4.2.714 8.18 2.692 10.537 5.673a.165.165 0 0 0 .273-.183c-2.673-4.8-7.78-7.433-12.938-7.493zm-.002.332c4.433.052 8.826 2.05 11.6 5.715-2.441-2.264-5.852-3.764-9.415-4.368s-7.278-.314-10.328 1.018c2.451-1.63 5.304-2.399 8.143-2.365m-9.778 3.411c6.837-6.076 18.125-4.161 22.574 3.83-4.78-6.047-16.066-7.962-22.574-3.83m70.965-8.535c-4.608.148-8.802 3.347-9.93 8.5l.009.013a.165.165 0 0 0 .092.176h.02l.005.007.013-.008a.165.165 0 0 0 .176-.092c1.122-2.839 3.655-5.083 6.615-6.307s6.337-1.423 9.137-.206a.165.165 0 0 0 .154-.29c-2.017-1.297-4.197-1.86-6.292-1.793zm.006.32a10.4 10.4 0 0 1 4.552.915c-2.494-.581-5.23-.265-7.684.75-2.454 1.014-4.614 2.723-5.97 4.896 1.551-4.012 5.163-6.441 9.102-6.561m-9.774 8.215c1.617-7.395 9.603-10.696 15.97-6.604-5.7-2.477-13.684.825-15.97 6.604m-108.857 155.89-.01.008h-.013a.2.2 0 0 0-.035.04.2.2 0 0 0-.042.044.2.2 0 0 0-.007.062.2.2 0 0 0-.005.051c3.136 10.643 16.582 17.289 26.942 13.315a.165.165 0 0 0-.094-.315c-4.609 1.008-10.25-.121-15.234-2.585-4.985-2.463-9.308-6.258-11.306-10.531a.2.2 0 0 0-.038-.036.2.2 0 0 0-.045-.04.2.2 0 0 0-.062-.008.2.2 0 0 0-.051-.005zm.922 2.074c2.295 3.595 6.12 6.71 10.434 8.842s9.112 3.278 13.362 2.917c-9.151 2.247-20.022-3.125-23.796-11.76m-.875-1.916c4.04 8.644 17.403 15.248 26.724 13.208-10.257 3.934-23.62-2.67-26.724-13.208m-319.387-96.45c-8.062.1-15.784 3.528-19.827 9.652a.2.2 0 0 0-.01.052.2.2 0 0 0-.011.06.2.2 0 0 0 .027.056.2.2 0 0 0 .024.047l.01.004.007.01.013-.004a.165.165 0 0 0 .202-.026c3.734-4.312 10.265-7.077 17.252-7.807 6.988-.731 14.425.57 19.969 4.335a.165.165 0 0 0 .198-.263c-5.108-4.253-11.583-6.192-17.854-6.115m.008.344c5.188-.065 10.515 1.267 15.071 4.164-5.198-2.574-11.472-3.415-17.425-2.792-6.084.636-11.83 2.795-15.741 6.202 4.213-4.808 11.02-7.485 18.095-7.574m-19.696 9.398c7.119-10.783 25.838-13.156 37.438-3.5-11.173-7.586-29.892-5.214-37.438 3.5m324.96-12.256c-8.556.093-16.867 1.996-22.764 5.51a.165.165 0 0 0-.061.197l-.005.012.008.007.002.011.013.003a.165.165 0 0 0 .195.063c6.626-2.919 16.462-4.304 26.222-3.819s19.446 2.843 25.781 7.356a.165.165 0 0 0 .205-.258c-6.386-5.636-16.111-8.524-25.919-9.011a61 61 0 0 0-3.676-.071zm.005.33q1.825-.02 3.656.07c8.546.425 17.02 2.69 23.227 6.987-6.284-3.473-14.746-5.309-23.262-5.732-8.573-.427-17.197.577-23.707 2.81 5.57-2.624 12.735-4.053 20.086-4.135m-22.684 5.322c13.394-7.984 39.477-7.645 52.166 3.553-12.756-9.086-38.84-9.424-52.166-3.553m84.185-7.025a30 30 0 0 0-6.486.712c-6.81 1.506-13.043 5.35-16.43 11.05a.2.2 0 0 0-.008.053.2.2 0 0 0-.009.06.2.2 0 0 0 .03.054.2.2 0 0 0 .027.047l.01.003.008.009.013-.004a.165.165 0 0 0 .2-.037c3.58-4.582 9.87-7.883 16.612-9.375 6.744-1.491 13.935-1.172 19.305 1.432a.165.165 0 0 0 .161-.288c-3.93-2.53-8.653-3.713-13.433-3.716zm-.001.33c3.826.003 7.61.773 10.965 2.387-5.082-1.706-11.24-1.756-17.067-.467-5.854 1.295-11.37 3.938-15.12 7.626 3.5-4.48 8.933-7.542 14.809-8.842a29.7 29.7 0 0 1 6.413-.703M484.429 82.23c6.716-11.302 24.775-15.295 36.118-7.99-10.833-5.254-28.892-1.261-36.118 7.99m78.084-4.208c-3.921.008-7.846 1.575-10.626 4.76a.17.17 0 0 0 .007.107.17.17 0 0 0-.01.107l.017.009.001.01a.2.2 0 0 0 .049.016.2.2 0 0 0 .057.02.2.2 0 0 0 .06-.019.2.2 0 0 0 .048-.014c2.84-2.354 6.995-3.404 11.09-3.195 4.096.209 8.123 1.676 10.709 4.306a.165.165 0 0 0 .252-.21c-2.768-3.912-7.209-5.906-11.654-5.897m.001.33c3.74-.007 7.473 1.44 10.165 4.28-2.584-1.905-5.998-2.962-9.456-3.138-3.458-.177-6.961.527-9.725 2.159 2.561-2.202 5.788-3.294 9.016-3.3m-10.503 4.538c5.862-6.713 16.872-6.152 22.021 1.123-5.248-5.338-16.258-5.9-22.021-1.123m-137.845 60.598c-3.73.01-7.419 1.008-10.491 3.126a.17.17 0 0 0-.02.105.17.17 0 0 0-.035.102l.014.013-.002.009a.2.2 0 0 0 .043.028.2.2 0 0 0 .052.033.2.2 0 0 0 .061-.003.2.2 0 0 0 .052-.003c4.134-1.997 9.706-2.187 14.948-.955 5.24 1.231 10.146 3.882 12.958 7.512a.165.165 0 0 0 .274-.181c-3.451-6.232-10.73-9.807-17.854-9.786zm.002.34c6.32-.012 12.772 2.843 16.459 7.881-2.947-2.912-7.231-5.023-11.764-6.088s-9.308-1.082-13.244.213c2.617-1.354 5.568-2 8.55-2.006m-10.4 2.921c8.848-6.099 22.902-2.797 28.108 6.604-5.69-7.343-19.743-10.645-28.108-6.604M135.716 5.231c-6.121.11-12.184 3.548-14.807 9.374l.005.015a.165.165 0 0 0 .054.19l.017-.003.006.017a.165.165 0 0 0 .19-.057l.016-.003c2.22-3.36 6.28-5.875 10.701-7.105s9.197-1.173 12.834.56a.165.165 0 0 0 .164-.285c-2.752-1.905-5.975-2.76-9.18-2.703Zm.004.334c2.517-.046 5.041.485 7.33 1.653-3.415-1.055-7.456-.93-11.24.123s-7.309 3.031-9.688 5.698c2.896-4.66 8.225-7.374 13.598-7.474m-14.66 9.108c3.952-8.78 15.824-12.082 23.743-6.604-7.372-3.51-19.243-.208-23.743 6.604M321.422 137.45q-1.041 0-2.082.032c-11.103.34-22.123 3.414-29.38 9.138a.2.2 0 0 0-.028.049.2.2 0 0 0-.03.053.2.2 0 0 0 .01.062.2.2 0 0 0 .01.054l.007.001.003.012a.165.165 0 0 0 .207.034l.011.002c7.208-4.608 18.195-7.153 29.249-7.492s22.176 1.528 29.653 5.687a.165.165 0 0 0 .174-.28c-7.12-4.939-17.398-7.35-27.804-7.352zm0 .33c9.003.003 17.906 1.825 24.703 5.51-7.344-3.142-17.064-4.52-26.736-4.224-9.673.297-19.291 2.268-26.43 5.855 7.063-4.41 16.693-6.812 26.391-7.11q1.036-.03 2.072-.03m-31.36 8.97c14.432-11.383 43.967-12.288 59.07-1.811-15.038-8.365-44.573-7.46-59.07 1.81M625.447 9.225v27.142h1.189V9.225Zm-154.334 0v27.142h1.188V9.225Zm142.668 69.34v27.142h1.188V78.565Zm-226.523 0v27.142h1.189V78.565Zm-52.83 0v27.142h1.189V78.565ZM224.882 9.225v27.142h1.189V9.225Zm453.397 69.34v27.142h1.188V78.565ZM304.154 95.438c0-.767-.607-1.402-1.374-1.402s-1.375.635-1.375 1.402.608 1.4 1.375 1.4 1.374-.633 1.374-1.4m0-6.604c0-.767-.607-1.401-1.374-1.401s-1.375.634-1.375 1.4c0 .768.608 1.402 1.375 1.402s1.374-.634 1.374-1.401m-6.38-10.269v27.142h1.188V78.565Zm-6.076 0v27.142h3.631V78.565Zm-167.88 69.34v27.142h1.188v-27.142Zm167.88-69.34v27.142h3.631V78.565Zm-3.632 0v27.142h1.189V78.565Zm-2.442 16.873c0-.767-.608-1.402-1.374-1.402s-1.375.635-1.375 1.402.608 1.4 1.375 1.4c.766 0 1.374-.633 1.374-1.4m0-6.604c0-.767-.608-1.401-1.374-1.401s-1.375.634-1.375 1.4c0 .768.608 1.402 1.375 1.402.766 0 1.374-.634 1.374-1.401m34.918-79.609v27.142h1.188V9.225Zm-161.54 0v27.142h1.189V9.225Zm41.07 138.68v27.142h1.188v-27.142Zm40.327-69.34v27.142h1.189V78.565Zm35.926 69.34v27.142h1.188v-27.142Zm-100.423-69.34v27.142h1.189V78.565Zm160.682 69.34v27.142h1.189v-27.142Zm339.251 0v27.142h3.632v-27.142Zm-3.631 0v27.142h1.188v-27.142ZM386.42 9.225v27.142h1.189V9.225Zm161.86 0v27.142h1.189V9.225Zm-102.205 138.68v27.142h1.188v-27.142Zm-345.68-69.34v27.142h1.188V78.565Zm435.295 69.34v27.142h1.188v-27.142ZM678.279 9.225v27.142h1.188V9.225Zm-66.335 138.68v27.142h1.188v-27.142Zm-73.67-69.34v27.142h1.19V78.565Zm-75.507 0v27.142h1.189V78.565ZM129.681 49.78c.563-.18.79-.275 1.078-.467.564-.371.911-1.03.911-1.701 0-1.139-.91-1.905-2.252-1.905-1.306 0-2.409.814-2.409 1.797 0 .491.3.826.755.826a.66.66 0 0 0 .683-.682c0-.204-.06-.348-.252-.54-.12-.107-.167-.191-.167-.275 0-.288.599-.587 1.162-.587.803 0 1.282.443 1.282 1.186 0 1.066-.755 2.073-1.558 2.073-.036 0-.143-.012-.275-.024-.348-.024-.348-.024-.42-.024-.263 0-.407.12-.407.335 0 .192.132.312.348.312.06 0 .143-.012.24-.024a2.4 2.4 0 0 1 .454-.048c.564 0 .947.503.947 1.246 0 1.294-.635 2.54-2.085 2.54-.67 0-1.246-.336-1.246-.719 0-.132.048-.18.24-.264.347-.155.491-.371.491-.695 0-.419-.335-.742-.767-.742-.515 0-.85.407-.85 1.03 0 1.162.886 1.893 2.324 1.893 1.81 0 3.187-1.21 3.187-2.816 0-.934-.575-1.461-1.414-1.725m284.892 138.68c.563-.18.79-.276 1.078-.467.563-.372.91-1.03.91-1.702 0-1.138-.91-1.905-2.252-1.905-1.305 0-2.408.815-2.408 1.798 0 .49.3.826.755.826a.66.66 0 0 0 .683-.683c0-.203-.06-.347-.252-.539-.12-.108-.167-.191-.167-.275 0-.288.599-.587 1.162-.587.803 0 1.282.443 1.282 1.186 0 1.066-.755 2.072-1.558 2.072-.036 0-.144-.012-.275-.023-.348-.024-.348-.024-.42-.024-.263 0-.407.12-.407.335 0 .192.132.312.347.312.06 0 .144-.012.24-.024.168-.036.348-.048.455-.048.563 0 .947.503.947 1.246 0 1.294-.635 2.54-2.085 2.54-.67 0-1.246-.336-1.246-.719 0-.132.048-.18.24-.264.347-.155.49-.371.49-.694 0-.42-.335-.743-.766-.743-.515 0-.85.407-.85 1.03 0 1.162.886 1.893 2.324 1.893 1.809 0 3.187-1.21 3.187-2.815 0-.935-.575-1.462-1.414-1.726M0 174.32v.726h679.468v-.726zm0-6.603v.726h679.468v-.726zm0-6.604v.726h679.468v-.726zm0-6.604v.726h679.468v-.726zm0-6.604v.726h679.468v-.726zm0-42.925v.726h679.468v-.726zm0-6.603v.726h679.468v-.726zm0-6.604v.726h679.468v-.726Zm0-6.604v.726h679.468v-.726Zm0-6.604v.726h679.468v-.726ZM0 35.64v.726h679.468v-.726zm0-6.603v.726h679.468v-.726zm0-6.604v.726h679.468v-.726zm0-6.604v.726h679.468v-.726Zm0-6.604v.726h679.468v-.726Z" style="stroke-width:.0798745"/>
</svg>
