<?xml version="1.0" encoding="UTF-8" standalone="no"?>
<svg
   width="681"
   height="186.10622"
   version="1.2"
   id="svg217"
   xmlns="http://www.w3.org/2000/svg"
   xmlns:svg="http://www.w3.org/2000/svg"
   xmlns:rdf="http://www.w3.org/1999/02/22-rdf-syntax-ns#"
   xmlns:cc="http://creativecommons.org/ns#"
   xmlns:dc="http://purl.org/dc/elements/1.1/">
  <defs
     id="defs217" />
  <title
     id="title1">air_XVI</title>
  <desc
     id="desc1">Generated by MuseScore Studio 4.7.3</desc>
  <path
     id="path217"
     class="NoteDot"
     d="m 114.64157,82.415311 c 0,0.742108 0.5828,1.324906 1.32491,1.324906 0.7421,0 1.3249,-0.582798 1.3249,-1.324906 0,-0.742107 -0.5828,-1.324906 -1.3249,-1.324906 -0.74211,0 -1.32491,0.582799 -1.32491,1.324906 m 282.65967,-6.618125 c 0,0.741307 0.5836,1.324906 1.3249,1.324906 0.74211,0 1.32491,-0.583599 1.32491,-1.324906 0,-0.742107 -0.5828,-1.324906 -1.32491,-1.324906 -0.7413,0 -1.3249,0.582799 -1.3249,1.324906 m 192.0393,0 c 0,0.741307 0.5828,1.324906 1.32491,1.324906 0.74211,0 1.32491,-0.583599 1.32491,-1.324906 0,-0.742107 -0.5828,-1.324906 -1.32491,-1.324906 -0.74211,0 -1.32491,0.582799 -1.32491,1.324906 M 182.80578,145.2935 c 0,0.74131 0.5836,1.32491 1.3249,1.32491 0.74211,0 1.32491,-0.5836 1.32491,-1.32491 0,-0.7421 -0.5828,-1.3249 -1.32491,-1.3249 -0.7413,0 -1.3249,0.5828 -1.3249,1.3249 M 505.63371,19.537839 c 0,0.741947 0.5828,1.324906 1.32491,1.324906 0.7421,0 1.3249,-0.582959 1.3249,-1.324906 0,-0.741947 -0.5828,-1.324906 -1.3249,-1.324906 -0.74211,0 -1.32491,0.582959 -1.32491,1.324906 m -241.34902,6.619006 c 0,0.741307 0.5828,1.324906 1.3249,1.324906 0.74211,0 1.32491,-0.583599 1.32491,-1.324906 0,-0.742108 -0.5828,-1.324906 -1.32491,-1.324906 -0.7421,0 -1.3249,0.582798 -1.3249,1.324906 m 106.4744,125.754785 c 0,0.74211 0.5828,1.32491 1.32491,1.32491 0.7421,0 1.3249,-0.5828 1.3249,-1.32491 0,-0.74211 -0.5828,-1.32491 -1.3249,-1.32491 -0.74211,0 -1.32491,0.5828 -1.32491,1.32491 m -175.60887,-69.505125 16.18546,1.654732 v 3.327075 L 195.15022,85.73358 v -3.327075 m -62.36665,-43.01341 46.45657,-1.654731 v 3.311063 l -46.45657,1.654732 v -3.311064 m 180.29048,0 46.45576,-1.654731 v 3.311063 l -46.45576,1.654732 v -3.311064 m 302.40757,0 46.45576,-1.654731 v 3.311063 l -46.45576,1.654732 v -3.311064 m 30.2703,67.833585 16.18546,1.65473 v 3.32707 l -16.18546,-1.65473 v -3.32707 m -91.32885,-67.833585 46.45576,-1.654731 v 3.311063 l -46.45576,1.654732 v -3.311064 m -482.698041,0 46.455761,-1.654731 v 3.311063 l -46.455761,1.654732 v -3.311064 m 394.945241,112.513735 20.71256,1.65473 v 3.31987 l -20.71256,-1.65473 v -3.31987 M 374.1326,39.393895 h 46.45576 v 3.309463 H 374.1326 V 39.393895 M 54.840684,18.104059 c -0.662853,0.423969 -1.139979,1.192415 -1.139979,2.040355 0,0.105992 0,0.211985 0.02642,0.317977 0.132891,1.086423 1.007089,1.934363 2.093431,2.066853 h 0.2914 c 1.324906,0 2.38483,-1.059924 2.38483,-2.38483 v -0.158989 c 0,-0.105992 -0.02642,-0.291479 -0.05284,-0.397472 -0.238563,-1.139419 -1.27207,-3.577246 -5.77675,-3.577246 -5.775949,0 -6.438802,4.79616 -6.438802,6.518537 0,3.153677 0.397872,7.101176 7.022401,7.101176 2.623394,0 4.663189,-1.536251 4.769662,-4.371789 0,-0.132891 -0.08006,-0.212146 -0.212146,-0.212146 h -0.344235 c -0.106473,0 -0.212145,0.106473 -0.212145,0.212146 -0.106473,2.199103 -1.669942,3.524009 -4.001136,3.524009 -2.305576,0 -3.418337,-1.244851 -3.418337,-3.576846 v -5.06138 c 0,-1.483895 0.582799,-3.179774 2.941211,-3.179774 1.245652,0 1.802032,0.450468 2.093431,0.900936 0.02642,0.053 0.02642,0.07949 0.02642,0.13249 0,0.0265 0,0.07949 -0.05284,0.105993 m -17.108498,-6.24483 c 0,2.093351 -1.086342,3.206272 -2.623393,4.425185 l 0.07925,-5.167133 c 0.05284,-0.238483 0.450708,-1.006928 1.510633,-1.006928 0.953452,0 1.033506,0.900936 1.033506,1.457396 v 0.29148 M 37.413569,8.8119451 c -1.324906,0 -2.092631,0.8214417 -2.225522,0.9804304 l 0.105672,-8.5058959 c 0,-0.2119849 -0.158508,-0.37097363 -0.370653,-0.37097363 h -0.317818 c -0.212145,0 -0.371454,0.15898873 -0.371454,0.37097363 l 0.132891,15.9253694 c 0,0.211985 0.159309,0.370973 0.370654,0.370973 0.05364,0 0.159309,-0.0265 0.212145,-0.053 2.279158,-1.139419 4.663989,-3.312265 4.663989,-6.041571 0,-1.377902 -0.636435,-2.6763099 -2.199904,-2.6763099 M 30.371954,21.787297 c 0,2.093591 -1.086343,3.206352 -2.623394,4.425586 l 0.07925,-5.167533 c 0.05284,-0.238483 0.450709,-1.006929 1.510633,-1.006929 0.954253,0 1.033507,0.900936 1.033507,1.457397 v 0.291479 m -0.317817,-3.047284 c -1.324906,0 -2.093432,0.821442 -2.226323,0.980431 l 0.106473,-8.505896 c 0,-0.211985 -0.159309,-0.370974 -0.371454,-0.370974 h -0.317817 c -0.212145,0 -0.370654,0.158989 -0.370654,0.370974 l 0.132091,15.925369 c 0,0.212145 0.159309,0.370653 0.371454,0.370653 0.05284,0 0.158508,-0.02642 0.211344,-0.05284 2.279159,-1.139179 4.663989,-3.311864 4.663989,-6.041411 0,-1.377902 -0.635634,-2.67631 -2.199103,-2.67631 m 7.678049,62.615374 c 0,2.093431 -1.086342,3.206192 -2.623393,4.425425 l 0.07925,-5.167533 c 0.05284,-0.237762 0.450708,-1.006288 1.510633,-1.006288 0.953452,0 1.033506,0.900616 1.033506,1.456996 v 0.2914 m -0.318617,-3.046884 c -1.324906,0 -2.092631,0.821362 -2.225522,0.97987 l 0.105672,-8.505816 c 0,-0.211344 -0.158508,-0.370653 -0.370653,-0.370653 H 34.60524 c -0.212145,0 -0.371454,0.159309 -0.371454,0.370653 l 0.132891,15.925289 c 0,0.212145 0.159309,0.371454 0.370654,0.371454 0.05364,0 0.159309,-0.02642 0.212145,-0.05284 2.279158,-1.139979 4.663989,-3.312665 4.663989,-6.041731 0,-1.377742 -0.636435,-2.67623 -2.199904,-2.67623 m -7.041615,12.975272 c 0,2.093431 -1.086343,3.206192 -2.623394,4.425426 l 0.07925,-5.167533 c 0.05284,-0.238563 0.450709,-1.007089 1.510633,-1.007089 0.954253,0 1.033507,0.901416 1.033507,1.457797 v 0.291399 m -0.317817,-3.047684 c -1.324906,0 -2.093432,0.821362 -2.226323,0.980671 l 0.106473,-8.505816 c 0,-0.212145 -0.159309,-0.370654 -0.371454,-0.370654 h -0.317817 c -0.212145,0 -0.370654,0.158509 -0.370654,0.370654 l 0.132091,15.925289 c 0,0.212145 0.159309,0.370653 0.371454,0.370653 0.05284,0 0.158508,-0.02642 0.211344,-0.05284 2.279159,-1.139179 4.663989,-3.311864 4.663989,-6.041731 0,-1.377742 -0.635634,-2.67623 -2.199103,-2.67623 m 7.678049,62.615611 c 0,2.09344 -1.086342,3.2062 -2.623393,4.42543 l 0.07925,-5.16753 c 0.05284,-0.23777 0.450708,-1.00629 1.510633,-1.00629 0.953452,0 1.033506,0.90061 1.033506,1.457 v 0.29139 m -0.318617,-3.04688 c -1.324906,0 -2.092631,0.82136 -2.225522,0.97987 l 0.105672,-8.50581 c 0,-0.21135 -0.158508,-0.37066 -0.370653,-0.37066 h -0.317818 c -0.212145,0 -0.371454,0.15931 -0.371454,0.37066 l 0.132891,15.92528 c 0,0.21215 0.159309,0.37146 0.370654,0.37146 0.05364,0 0.159309,-0.0264 0.212145,-0.0528 2.279158,-1.13998 4.663989,-3.31266 4.663989,-6.04173 0,-1.37774 -0.636435,-2.67623 -2.199904,-2.67623 m -7.041615,12.97527 c 0,2.09343 -1.086343,3.2062 -2.623394,4.42543 l 0.07925,-5.16753 c 0.05284,-0.23857 0.450709,-1.00709 1.510633,-1.00709 0.954253,0 1.033507,0.90141 1.033507,1.45779 v 0.2914 m -0.317817,-3.04768 c -1.324906,0 -2.093432,0.82136 -2.226323,0.98067 l 0.106473,-8.50582 c 0,-0.21214 -0.159309,-0.37065 -0.371454,-0.37065 h -0.317817 c -0.212145,0 -0.370654,0.15851 -0.370654,0.37065 l 0.132091,15.92529 c 0,0.21215 0.159309,0.37066 0.371454,0.37066 0.05284,0 0.158508,-0.0264 0.211344,-0.0528 2.279159,-1.13918 4.663989,-3.31186 4.663989,-6.04173 0,-1.37774 -0.635634,-2.67623 -2.199103,-2.67623 M 16.093311,34.924439 c -0.529962,0.106473 -1.033427,0.159309 -1.536891,0.159309 -3.789231,0 -7.0220012,-2.649811 -7.0220012,-6.650947 0,-3.233411 2.2788382,-6.121386 4.6106722,-8.135243 0.450468,-0.397471 0.874438,-0.768445 1.27191,-1.165917 0.238483,1.430899 0.42397,2.67631 0.609457,3.762733 -2.411329,0.715129 -4.0542123,3.259268 -4.0542123,5.749771 0,1.854869 1.4573963,4.399008 3.5772463,4.399008 0.211985,0 0.450468,-0.105672 0.450468,-0.344235 0,-0.238563 -0.264982,-0.371454 -0.582959,-0.582799 -1.033427,-0.636435 -1.616385,-1.324906 -1.616385,-2.623393 0,-1.616306 1.192415,-2.914793 2.755804,-3.286247 l 1.536891,8.71796 M 13.761477,7.6844542 c 0.238483,-1.0599247 1.457396,-3.8422271 2.835298,-3.8422271 0.397472,0 1.033427,1.2984078 1.033427,3.1267779 0,2.7558043 -2.040355,4.822658 -3.868725,6.62453 -0.158989,-1.059925 -0.29148,-2.093352 -0.29148,-3.206273 0,-0.9804301 0.0795,-1.8813661 0.29148,-2.7028078 m 6.094567,22.3382338 c 0,1.881286 -0.768446,3.815409 -2.649812,4.583934 -0.556461,-3.179774 -1.27191,-7.393055 -1.457397,-8.558652 2.384831,0 4.107209,1.616305 4.107209,3.974718 M 8.1968718,43.059602 c 0,1.748395 1.351404,4.053972 4.9286502,4.053972 1.245411,0 2.331834,-0.317818 3.285766,-0.900616 1.430899,-1.007089 1.801872,-2.756285 1.801872,-4.425426 0,-1.033507 -0.158988,-2.225522 -0.423969,-3.736154 -0.07949,-0.529963 -0.238484,-1.324906 -0.397472,-2.358413 2.596815,-0.84778 4.531178,-3.550428 4.531178,-6.280294 0,-4.001136 -2.835299,-6.703784 -6.704024,-6.703784 -0.264981,-1.589887 -0.529962,-3.153276 -0.768445,-4.637171 2.8088,-2.941291 4.743163,-6.253555 4.743163,-10.4667561 0,-2.4113288 -0.741948,-4.3721895 -1.165917,-5.3261218 C 17.391719,0.92743413 16.623273,0 16.146307,0 15.96082,0 15.139379,0.31797742 14.264941,1.351404 c -1.69588,2.013857 -2.172846,5.4056161 -2.172846,7.631458 0,1.430898 0.132491,2.729306 0.582959,5.697095 -0.0265,0.0265 -1.404401,1.430899 -1.960861,1.881367 -2.4113287,2.25234 -5.7500916,5.458612 -5.7500916,10.757915 0,4.955389 4.3191932,8.850852 9.2478436,8.850852 0.768445,0 1.483894,-0.07925 2.093351,-0.185727 0.503464,2.54414 0.794943,4.399008 0.794943,5.803168 0,2.755484 -1.4044,4.213281 -4.08071,4.213281 -0.635955,0 -1.192415,-0.132891 -1.245411,-0.132891 -0.0265,-0.02642 -0.07949,-0.05284 -0.07949,-0.07925 0,-0.05284 0.053,-0.07925 0.132491,-0.105672 1.245412,-0.185727 2.490823,-1.245652 2.490823,-2.941211 0,-1.431379 -1.086423,-2.941211 -3.073782,-2.941211 -1.8548679,0 -3.0472832,1.509832 -3.0472832,3.259028 m 7.8964392,61.361154 c -0.529962,0.10647 -1.033427,0.15931 -1.536891,0.15931 -3.789231,0 -7.0220012,-2.64982 -7.0220012,-6.650947 0,-3.233411 2.2788382,-6.120985 4.6106722,-8.135163 0.450468,-0.397872 0.874438,-0.768525 1.27191,-1.165597 0.238483,1.430579 0.42397,2.67623 0.609457,3.762573 -2.411329,0.714889 -4.0542123,3.259028 -4.0542123,5.749531 0,1.854869 1.4573963,4.399003 3.5772463,4.399003 0.211985,0 0.450468,-0.10567 0.450468,-0.34423 0,-0.23857 -0.264982,-0.37146 -0.582959,-0.5828 -1.033427,-0.63644 -1.616385,-1.32491 -1.616385,-2.623392 0,-1.616306 1.192415,-2.914793 2.755804,-3.286247 l 1.536891,8.717959 M 13.761477,77.180532 c 0.238483,-1.059925 1.457396,-3.841827 2.835298,-3.841827 0.397472,0 1.033427,1.298488 1.033427,3.126938 0,2.755484 -2.040355,4.822498 -3.868725,6.62453 -0.158989,-1.059925 -0.29148,-2.093432 -0.29148,-3.206193 0,-0.98067 0.0795,-1.882086 0.29148,-2.703448 m 6.094567,22.338474 c 0,1.881284 -0.768446,3.815404 -2.649812,4.583934 -0.556461,-3.17977 -1.27191,-7.393055 -1.457397,-8.558652 2.384831,0 4.107209,1.616305 4.107209,3.974718 M 8.1968718,112.55592 c 0,1.7484 1.351404,4.05397 4.9286502,4.05397 1.245411,0 2.331834,-0.31782 3.285766,-0.90061 1.430899,-1.00709 1.801872,-2.75629 1.801872,-4.42543 0,-1.03351 -0.158988,-2.22552 -0.423969,-3.73615 -0.07949,-0.52997 -0.238484,-1.32491 -0.397472,-2.35842 2.596815,-0.84778 4.531178,-3.55042 4.531178,-6.280291 0,-4.001136 -2.835299,-6.703784 -6.704024,-6.703784 -0.264981,-1.589887 -0.529962,-3.153356 -0.768445,-4.63677 2.8088,-2.942012 4.743163,-6.253876 4.743163,-10.467157 0,-2.411249 -0.741948,-4.371789 -1.165917,-5.326042 -0.635955,-1.351324 -1.404401,-2.279158 -1.881367,-2.279158 -0.185487,0 -1.006928,0.318618 -1.881366,1.351324 -1.69588,2.014177 -2.172846,5.406096 -2.172846,7.631618 0,1.431379 0.132491,2.729866 0.582959,5.697495 -0.0265,0.02642 -1.404401,1.430579 -1.960861,1.881287 -2.4113287,2.25194 -5.7500916,5.458132 -5.7500916,10.757755 0,4.955393 4.3191932,8.850853 9.2478436,8.850853 0.768445,0 1.483894,-0.0793 2.093351,-0.18573 0.503464,2.54414 0.794943,4.39901 0.794943,5.80317 0,2.75548 -1.4044,4.21328 -4.08071,4.21328 -0.635955,0 -1.192415,-0.13289 -1.245411,-0.13289 -0.0265,-0.0264 -0.07949,-0.0528 -0.07949,-0.0793 0,-0.0528 0.053,-0.0793 0.132491,-0.10568 1.245412,-0.18572 2.490823,-1.24565 2.490823,-2.94121 0,-1.43138 -1.086423,-2.94121 -3.073782,-2.94121 -1.8548679,0 -3.0472832,1.50983 -3.0472832,3.25903 m 7.8964392,61.36116 c -0.529962,0.10647 -1.033427,0.1593 -1.536891,0.1593 -3.789231,0 -7.0220012,-2.64981 -7.0220012,-6.65094 0,-3.23341 2.2788382,-6.12099 4.6106722,-8.13517 0.450468,-0.39787 0.874438,-0.76852 1.27191,-1.16559 0.238483,1.43058 0.42397,2.67623 0.609457,3.76257 -2.411329,0.71489 -4.0542123,3.25903 -4.0542123,5.74953 0,1.85487 1.4573963,4.39901 3.5772463,4.39901 0.211985,0 0.450468,-0.10567 0.450468,-0.34424 0,-0.23856 -0.264982,-0.37145 -0.582959,-0.58279 -1.033427,-0.63644 -1.616385,-1.32491 -1.616385,-2.6234 0,-1.6163 1.192415,-2.91479 2.755804,-3.28625 l 1.536891,8.71797 M 13.761482,146.6768 c 0.238483,-1.05992 1.457396,-3.84183 2.835298,-3.84183 0.397472,0 1.033427,1.29849 1.033427,3.12694 0,2.75549 -2.040355,4.8225 -3.868725,6.62453 -0.158989,-1.05992 -0.29148,-2.09343 -0.29148,-3.20619 0,-0.98067 0.0795,-1.88209 0.29148,-2.70345 m 6.094567,22.33847 c 0,1.88129 -0.768446,3.81541 -2.649812,4.58394 -0.556461,-3.17978 -1.27191,-7.39306 -1.457397,-8.55865 2.384831,0 4.107209,1.6163 4.107209,3.97471 M 8.1968718,182.05224 c 0,1.74839 1.351404,4.05397 4.9286502,4.05397 1.245411,0 2.331834,-0.31782 3.285766,-0.90062 1.430899,-1.00708 1.801872,-2.75628 1.801872,-4.42542 0,-1.03351 -0.158988,-2.22552 -0.423969,-3.73616 -0.07949,-0.52996 -0.238484,-1.3249 -0.397472,-2.35841 2.596815,-0.84778 4.531178,-3.55043 4.531178,-6.28029 0,-4.00114 -2.835299,-6.70379 -6.704024,-6.70379 -0.264981,-1.58988 -0.529962,-3.15335 -0.768445,-4.63677 2.8088,-2.94201 4.743163,-6.25387 4.743163,-10.46715 0,-2.41125 -0.741948,-4.37179 -1.165917,-5.32605 -0.635955,-1.35132 -1.404401,-2.27915 -1.881367,-2.27915 -0.185487,0 -1.006928,0.31861 -1.881366,1.35132 -1.69588,2.01418 -2.172846,5.4061 -2.172846,7.63162 0,1.43138 0.132491,2.72986 0.582959,5.69749 -0.0265,0.0264 -1.404401,1.43058 -1.960861,1.88129 -2.4113287,2.25194 -5.7500916,5.45813 -5.7500916,10.75776 0,4.95538 4.3191932,8.85085 9.2478436,8.85085 0.768445,0 1.483894,-0.0793 2.093351,-0.18573 0.503464,2.54414 0.794943,4.39901 0.794943,5.80317 0,2.75548 -1.4044,4.21328 -4.08071,4.21328 -0.635955,0 -1.192415,-0.13289 -1.245411,-0.13289 -0.0265,-0.0264 -0.07949,-0.0528 -0.07949,-0.0793 0,-0.0528 0.053,-0.0792 0.132491,-0.10567 1.245412,-0.18573 2.490823,-1.24565 2.490823,-2.94121 0,-1.43138 -1.086423,-2.94121 -3.073782,-2.94121 -1.8548679,0 -3.0472832,1.50983 -3.0472832,3.25903 M 274.28913,83.528072 c 0,1.13998 0.82216,2.412049 2.96843,2.412049 2.75548,0 5.64386,-2.25274 5.64386,-4.584734 0,-1.563469 -1.32491,-2.437667 -2.96763,-2.437667 -2.57056,0 -5.64466,2.172685 -5.64466,4.610352 m 356.30202,77.281638 c -0.8742,0 -1.05993,-0.71569 -1.05993,-0.95425 0,-1.29849 4.45185,-3.57765 5.6967,-3.57765 0.63643,0 1.05992,0.37146 1.05992,0.95426 0,1.3249 -4.47746,3.57764 -5.69669,3.57764 m 3.6569,-5.77675 c -2.57056,0 -5.64466,2.14627 -5.64466,4.61036 0,1.13917 0.82216,2.41124 2.96843,2.41124 2.75548,0 5.64386,-2.25194 5.64386,-4.58393 0,-1.56347 -1.32491,-2.43767 -2.96763,-2.43767 m -175.52081,17.84821 c 0,1.13918 0.82136,2.41125 2.96763,2.41125 2.75628,0 5.64466,-2.25274 5.64466,-4.58474 0,-1.56267 -1.32491,-2.43767 -2.96763,-2.43767 -2.57056,0 -5.64466,2.17269 -5.64466,4.61116 m -99.8827,-19.85678 c 0,1.13998 0.82136,2.41205 2.96763,2.41205 2.75549,0 5.64386,-2.25274 5.64386,-4.58474 0,-1.56346 -1.3249,-2.43766 -2.96763,-2.43766 -2.57056,0 -5.64386,2.17268 -5.64386,4.61035 M 218.25482,103.38485 c 0,1.13918 0.82136,2.41125 2.96762,2.41125 2.75549,0 5.64386,-2.25274 5.64386,-4.58474 0,-1.562665 -1.3249,-2.437664 -2.96763,-2.437664 -2.57055,0 -5.64385,2.172684 -5.64385,4.611154 m 110.51236,66.18685 c 0,1.13918 0.82136,2.41125 2.96763,2.41125 2.75628,0 5.64386,-2.25274 5.64386,-4.58393 0,-1.56347 -1.32491,-2.43847 -2.96763,-2.43847 -2.56976,0 -5.64386,2.17349 -5.64386,4.61115 M 374.1326,23.960143 c 0,1.139179 0.82136,2.411248 2.96763,2.411248 2.75628,0 5.64465,-2.251939 5.64465,-4.584094 0,-1.563389 -1.3249,-2.437827 -2.96842,-2.437827 -2.56976,0 -5.64386,2.172846 -5.64386,4.610673 M 298.68981,162.95278 c 0,1.13918 0.82136,2.41125 2.96763,2.41125 2.75629,0 5.64466,-2.25194 5.64466,-4.58394 0,-1.56347 -1.3249,-2.43766 -2.96843,-2.43766 -2.56976,0 -5.64386,2.17268 -5.64386,4.61035 M 447.92465,14.032074 c 0,1.139419 0.82136,2.411329 2.96763,2.411329 2.75629,0 5.64466,-2.25234 5.64466,-4.584174 0,-1.563389 -1.32491,-2.4378271 -2.96843,-2.4378271 -2.56976,0 -5.64386,2.1728461 -5.64386,4.6106721 M 71.725029,23.960143 c 0,1.139179 0.821362,2.411248 2.96843,2.411248 2.755484,0 5.643855,-2.251939 5.643855,-4.584094 0,-1.563389 -1.324902,-2.437827 -2.967625,-2.437827 -2.570558,0 -5.64466,2.172846 -5.64466,4.610673 M 478.77855,176.18983 c 0,1.13998 0.82216,2.41205 2.96843,2.41205 2.75548,0 5.64386,-2.25274 5.64386,-4.58474 0,-1.56347 -1.32491,-2.43766 -2.96763,-2.43766 -2.57056,0 -5.64466,2.17268 -5.64466,4.61035 M 259.14838,159.64332 c 0,1.13917 0.82136,2.41124 2.96763,2.41124 2.75548,0 5.64385,-2.25194 5.64385,-4.58393 0,-1.56347 -1.3249,-2.43767 -2.96762,-2.43767 -2.57056,0 -5.64386,2.17269 -5.64386,4.61036 M 470.82191,20.65076 c 0,1.139419 0.82136,2.411329 2.96763,2.411329 2.75548,0 5.64386,-2.25234 5.64386,-4.584175 0,-1.563389 -1.32491,-2.437827 -2.96763,-2.437827 -2.57056,0 -5.64386,2.172846 -5.64386,4.610673 m -241.7509,135.68309 c 0,1.13998 0.82136,2.41125 2.96763,2.41125 2.75548,0 5.64386,-2.25194 5.64386,-4.58393 0,-1.56347 -1.32491,-2.43767 -2.96763,-2.43767 -2.57056,0 -5.64386,2.17269 -5.64386,4.61035 M 493.71916,20.65076 c 0,1.139419 0.82136,2.411329 2.96763,2.411329 2.75549,0 5.64386,-2.25234 5.64386,-4.584175 0,-1.563389 -1.3249,-2.437827 -2.96763,-2.437827 -2.57056,0 -5.64386,2.172846 -5.64386,4.610673 M 209.0197,153.02439 c 0,1.13998 0.82136,2.41205 2.96763,2.41205 2.75548,0 5.64386,-2.25274 5.64386,-4.58474 0,-1.56346 -1.32491,-2.43766 -2.96763,-2.43766 -2.57056,0 -5.64386,2.17268 -5.64386,4.61035 M 358.86776,20.65076 c 0,1.139419 0.82136,2.411329 2.96763,2.411329 2.75628,0 5.64466,-2.25234 5.64466,-4.584175 0,-1.563389 -1.32491,-2.437827 -2.96763,-2.437827 -2.57056,0 -5.64466,2.172846 -5.64466,4.610673 m -180.28967,0 c 0,1.139419 0.82136,2.411329 2.96763,2.411329 2.75548,0 5.64385,-2.25234 5.64385,-4.584175 0,-1.563389 -1.3249,-2.437827 -2.96762,-2.437827 -2.57056,0 -5.64386,2.172846 -5.64386,4.610673 m 320.25257,152.23041 c 0,1.13918 0.82136,2.41125 2.96763,2.41125 2.75548,0 5.64386,-2.25274 5.64386,-4.58474 0,-1.56267 -1.32491,-2.43767 -2.96763,-2.43767 -2.57056,0 -5.64386,2.17269 -5.64386,4.61116 M 170.89123,149.71573 c 0,1.13918 0.82136,2.41125 2.96763,2.41125 2.75628,0 5.64466,-2.25274 5.64466,-4.58474 0,-1.56267 -1.32491,-2.43767 -2.96763,-2.43767 -2.57056,0 -5.64466,2.17269 -5.64466,4.61116 m 70.64831,-62.878195 c 0,1.139979 0.82136,2.411249 2.96763,2.411249 2.75628,0 5.64465,-2.25194 5.64465,-4.583935 0,-1.563469 -1.3249,-2.437666 -2.96842,-2.437666 -2.56976,0 -5.64386,2.172685 -5.64386,4.610352 M 522.74461,33.888531 c 0,1.139179 0.82136,2.411249 2.96763,2.411249 2.75628,0 5.64466,-2.25274 5.64466,-4.584735 0,-1.563469 -1.32491,-2.437667 -2.96843,-2.437667 -2.56976,0 -5.64386,2.172686 -5.64386,4.611153 M 86.989863,20.65076 c 0,1.139419 0.821362,2.411329 2.967629,2.411329 2.756285,0 5.64466,-2.25234 5.64466,-4.584175 0,-1.563389 -1.324906,-2.437827 -2.96843,-2.437827 -2.569757,0 -5.643859,2.172846 -5.643859,4.610673 m 31.308607,140.15895 c -0.875,0 -1.05992,-0.71569 -1.05992,-0.95425 0,-1.29849 4.45184,-3.57765 5.69669,-3.57765 0.63644,0 1.05993,0.37146 1.05993,0.95426 0,1.3249 -4.47827,3.57764 -5.6967,3.57764 m 3.6569,-5.77675 c -2.57056,0 -5.64466,2.14627 -5.64466,4.61036 0,1.13917 0.82136,2.41124 2.96763,2.41124 2.75628,0 5.64466,-2.25194 5.64466,-4.58393 0,-1.56347 -1.32491,-2.43767 -2.96763,-2.43767 M 252.37014,30.579068 c 0,1.139179 0.82136,2.411249 2.96763,2.411249 2.75629,0 5.64386,-2.25274 5.64386,-4.583934 0,-1.563469 -1.32491,-2.438468 -2.96763,-2.438468 -2.56976,0 -5.64386,2.173487 -5.64386,4.611153 M 86.234146,159.64332 c 0,1.13917 0.821362,2.41124 2.967629,2.41124 2.755485,0 5.643859,-2.25194 5.643859,-4.58393 0,-1.56347 -1.324905,-2.43767 -2.967629,-2.43767 -2.570557,0 -5.643859,2.17269 -5.643859,4.61036 M 554.42307,23.960143 c 0,1.139179 0.82136,2.411248 2.96763,2.411248 2.75548,0 5.64386,-2.251939 5.64386,-4.584094 0,-1.563389 -1.32491,-2.437827 -2.96763,-2.437827 -2.57056,0 -5.64386,2.172846 -5.64386,4.610673 M 56.156784,153.02439 c 0,1.13998 0.821362,2.41205 2.967629,2.41205 2.755484,0 5.643859,-2.25274 5.643859,-4.58474 0,-1.56346 -1.324906,-2.43766 -2.967629,-2.43766 -2.570557,0 -5.643859,2.17268 -5.643859,4.61035 M 343.60292,17.341457 c 0,1.139419 0.82216,2.411329 2.96843,2.411329 2.75549,0 5.64386,-2.25234 5.64386,-4.584175 0,-1.563388 -1.32491,-2.437826 -2.96763,-2.437826 -2.57056,0 -5.64466,2.172845 -5.64466,4.610672 M 202.7314,106.69351 c 0,1.13998 0.82136,2.41205 2.96763,2.41205 2.75548,0 5.64386,-2.25274 5.64386,-4.58473 0,-1.56347 -1.32491,-2.43767 -2.96763,-2.43767 -2.57056,0 -5.64386,2.17268 -5.64386,4.61035 m 194.24081,62.87819 c 0,1.13918 0.82136,2.41125 2.96763,2.41125 2.75629,0 5.64466,-2.25274 5.64466,-4.58393 0,-1.56347 -1.3249,-2.43847 -2.96843,-2.43847 -2.56976,0 -5.64386,2.17349 -5.64386,4.61115 M 569.68711,20.65076 c 0,1.139419 0.82136,2.411329 2.96843,2.411329 2.75548,0 5.64385,-2.25234 5.64385,-4.584175 0,-1.563389 -1.3249,-2.437827 -2.96762,-2.437827 -2.57056,0 -5.64466,2.172846 -5.64466,4.610673 M 102.2547,17.341457 c 0,1.139419 0.82136,2.411329 2.96763,2.411329 2.75548,0 5.64386,-2.25234 5.64386,-4.584175 0,-1.563388 -1.32491,-2.437826 -2.96763,-2.437826 -2.57056,0 -5.64386,2.172845 -5.64386,4.610672 m 559.02063,76.115004 c 0,1.139179 0.82136,2.411248 2.96763,2.411248 2.75628,0 5.64386,-2.251939 5.64386,-4.583934 0,-1.563469 -1.32491,-2.437667 -2.96763,-2.437667 -2.56976,0 -5.64386,2.172686 -5.64386,4.610353 M 584.95194,14.032074 c 0,1.139419 0.82136,2.411329 2.96763,2.411329 2.75629,0 5.64466,-2.25234 5.64466,-4.584174 0,-1.563389 -1.3249,-2.4378271 -2.96843,-2.4378271 -2.56975,0 -5.64386,2.1728461 -5.64386,4.6106721 M 528.90722,156.33385 c 0,1.13998 0.82136,2.41125 2.96843,2.41125 2.75549,0 5.64386,-2.25194 5.64386,-4.58393 0,-1.56347 -1.3249,-2.43767 -2.96763,-2.43767 -2.57056,0 -5.64466,2.17269 -5.64466,4.61035 m 116.8447,-66.186852 c 0,1.139179 0.82136,2.411248 2.96762,2.411248 2.75629,0 5.64466,-2.251939 5.64466,-4.583934 0,-1.563469 -1.3249,-2.437667 -2.96843,-2.437667 -2.56975,0 -5.64385,2.172686 -5.64385,4.610353 M 600.21678,20.65076 c 0,1.139419 0.82136,2.411329 2.96763,2.411329 2.75548,0 5.64386,-2.25234 5.64386,-4.584175 0,-1.563389 -1.32491,-2.437827 -2.96763,-2.437827 -2.57056,0 -5.64386,2.172846 -5.64386,4.610673 m 22.25041,66.186775 c 0,1.139979 0.82137,2.411249 2.96763,2.411249 2.75549,0 5.64386,-2.25194 5.64386,-4.583935 0,-1.563469 -1.3249,-2.437666 -2.96763,-2.437666 -2.57055,0 -5.64386,2.172685 -5.64386,4.610352 m -6.98557,-62.877392 c 0,1.139179 0.82136,2.411248 2.96763,2.411248 2.75548,0 5.64386,-2.251939 5.64386,-4.584094 0,-1.563389 -1.32491,-2.437827 -2.96763,-2.437827 -2.57056,0 -5.64386,2.172846 -5.64386,4.610673 m -8.53784,59.567929 c 0,1.13998 0.82136,2.412049 2.96763,2.412049 2.75548,0 5.64386,-2.25274 5.64386,-4.584734 0,-1.563469 -1.32491,-2.437667 -2.96763,-2.437667 -2.57056,0 -5.64386,2.172685 -5.64386,4.610352 M 328.33888,20.65076 c 0,1.139419 0.82137,2.411329 2.96763,2.411329 2.75549,0 5.64386,-2.25234 5.64386,-4.584175 0,-1.563389 -1.3249,-2.437827 -2.96763,-2.437827 -2.57055,0 -5.64386,2.172846 -5.64386,4.610673 M 163.31325,17.341457 c 0,1.139419 0.82136,2.411329 2.96763,2.411329 2.75628,0 5.64466,-2.25234 5.64466,-4.584175 0,-1.563388 -1.32491,-2.437826 -2.96843,-2.437826 -2.56976,0 -5.64386,2.172845 -5.64386,4.610672 m 23.89474,86.043393 c 0,1.13918 0.82136,2.41125 2.96763,2.41125 2.75548,0 5.64386,-2.25274 5.64386,-4.58474 0,-1.562665 -1.32491,-2.437664 -2.96763,-2.437664 -2.57056,0 -5.64386,2.172684 -5.64386,4.611154 M 577.4252,80.21941 c 0,1.139179 0.82216,2.411249 2.96843,2.411249 2.75548,0 5.64386,-2.252741 5.64386,-4.584735 0,-1.563469 -1.32491,-2.437667 -2.96763,-2.437667 -2.57056,0 -5.64466,2.172686 -5.64466,4.611153 m 53.32045,-59.56865 c 0,1.139419 0.82217,2.411329 2.96843,2.411329 2.75549,0 5.64386,-2.25234 5.64386,-4.584175 0,-1.563389 -1.3249,-2.437827 -2.96763,-2.437827 -2.57055,0 -5.64466,2.172846 -5.64466,4.610673 m 15.26484,-3.309303 c 0,1.139419 0.82136,2.411329 2.96763,2.411329 2.75629,0 5.64466,-2.25234 5.64466,-4.584175 0,-1.563388 -1.32491,-2.437826 -2.96763,-2.437826 -2.57056,0 -5.64466,2.172845 -5.64466,4.610672 M 117.51954,20.65076 c 0,1.139419 0.82136,2.411329 2.96763,2.411329 2.75548,0 5.64386,-2.25234 5.64386,-4.584175 0,-1.563389 -1.32491,-2.437827 -2.96763,-2.437827 -2.57056,0 -5.64386,2.172846 -5.64386,4.610673 m 417.50066,80.59022 c -0.8742,0 -1.05992,-0.71569 -1.05992,-0.95345 0,-1.298486 4.45184,-3.577645 5.69749,-3.577645 0.63564,0 1.05993,0.370654 1.05993,0.954253 0,1.324906 -4.47826,3.576842 -5.6975,3.576842 m 3.6569,-5.776747 c -2.56975,0 -5.64386,2.146268 -5.64386,4.611157 0,1.13918 0.82137,2.41124 2.96763,2.41124 2.75629,0 5.64386,-2.25274 5.64386,-4.583929 0,-1.563469 -1.3249,-2.438468 -2.96763,-2.438468 M 661.27533,20.65076 c 0,1.139419 0.82136,2.411329 2.96763,2.411329 2.75628,0 5.64386,-2.25234 5.64386,-4.584175 0,-1.563389 -1.32491,-2.437827 -2.96763,-2.437827 -2.56976,0 -5.64386,2.172846 -5.64386,4.610673 m -151.52761,79.42463 c 0,1.13918 0.82216,2.41124 2.96843,2.41124 2.75549,0 5.64386,-2.25274 5.64386,-4.583929 0,-1.563469 -1.3249,-2.438468 -2.96763,-2.438468 -2.57056,0 -5.64466,2.173487 -5.64466,4.611157 M 229.47289,30.579068 c 0,1.139179 0.82136,2.411249 2.96762,2.411249 2.75629,0 5.64466,-2.25274 5.64466,-4.583934 0,-1.563469 -1.3249,-2.438468 -2.96762,-2.438468 -2.57056,0 -5.64466,2.173487 -5.64466,4.611153 M 486.463,93.456461 c 0,1.139179 0.82136,2.411248 2.96763,2.411248 2.75629,0 5.64466,-2.251939 5.64466,-4.583934 0,-1.563469 -1.32491,-2.437667 -2.96843,-2.437667 -2.56976,0 -5.64386,2.172686 -5.64386,4.610353 M 404.66227,17.341457 c 0,1.139419 0.82136,2.411329 2.96763,2.411329 2.75548,0 5.64386,-2.25234 5.64386,-4.584175 0,-1.563388 -1.32491,-2.437826 -2.96763,-2.437826 -2.57056,0 -5.64386,2.172845 -5.64386,4.610672 M 568.44946,153.02439 c 0,1.13998 0.82136,2.41205 2.96763,2.41205 2.75628,0 5.64386,-2.25274 5.64386,-4.58474 0,-1.56346 -1.32491,-2.43766 -2.96763,-2.43766 -2.56976,0 -5.64386,2.17268 -5.64386,4.61035 M 132.78357,23.960143 c 0,1.139179 0.82217,2.411248 2.96843,2.411248 2.75549,0 5.64386,-2.251939 5.64386,-4.584094 0,-1.563389 -1.3249,-2.437827 -2.96763,-2.437827 -2.57055,0 -5.64466,2.172846 -5.64466,4.610673 m 320.92984,66.186855 c 0,1.139179 0.82136,2.411248 2.96763,2.411248 2.75548,0 5.64386,-2.251939 5.64386,-4.583934 0,-1.563469 -1.32491,-2.437667 -2.96763,-2.437667 -2.57056,0 -5.64386,2.172686 -5.64386,4.610353 M 56.156784,93.456461 c 0,1.139179 0.821362,2.411248 2.967629,2.411248 2.755484,0 5.643859,-2.251939 5.643859,-4.583934 0,-1.563469 -1.324906,-2.437667 -2.967629,-2.437667 -2.570557,0 -5.643859,2.172686 -5.643859,4.610353 M 430.42789,86.837535 c 0,1.139979 0.82136,2.411249 2.96763,2.411249 2.75628,0 5.64466,-2.25194 5.64466,-4.583935 0,-1.563469 -1.32491,-2.437666 -2.96763,-2.437666 -2.57056,0 -5.64466,2.172685 -5.64466,4.610352 M 79.441505,100.07539 c 0,1.13918 0.821359,2.41124 2.967626,2.41124 2.756285,0 5.64466,-2.25274 5.64466,-4.583929 0,-1.563469 -1.324906,-2.438468 -2.96763,-2.438468 -2.570557,0 -5.644656,2.173487 -5.644656,4.611157 M 414.90447,86.837535 c 0,1.139979 0.82137,2.411249 2.96763,2.411249 2.75629,0 5.64466,-2.25194 5.64466,-4.583935 0,-1.563469 -1.3249,-2.437666 -2.96763,-2.437666 -2.57055,0 -5.64466,2.172685 -5.64466,4.610352 M 102.72702,83.528072 c 0,1.13998 0.82136,2.412049 2.96763,2.412049 2.75549,0 5.64386,-2.25274 5.64386,-4.584734 0,-1.563469 -1.3249,-2.437667 -2.96763,-2.437667 -2.57056,0 -5.64386,2.172685 -5.64386,4.610352 m 61.19545,16.547318 c 0,1.13918 0.82136,2.41124 2.96762,2.41124 2.75629,0 5.64466,-2.25274 5.64466,-4.583929 0,-1.563469 -1.3249,-2.438468 -2.96762,-2.438468 -2.57056,0 -5.64466,2.173487 -5.64466,4.611157 M 313.07405,23.960143 c 0,1.139179 0.82136,2.411248 2.96763,2.411248 2.75628,0 5.64386,-2.251939 5.64386,-4.584094 0,-1.563389 -1.32491,-2.437827 -2.96763,-2.437827 -2.56976,0 -5.64386,2.172846 -5.64386,4.610673 m 72.31264,56.259267 c 0,1.139179 0.82136,2.411249 2.96763,2.411249 2.75628,0 5.64466,-2.252741 5.64466,-4.584735 0,-1.563469 -1.32491,-2.437667 -2.96843,-2.437667 -2.56976,0 -5.64386,2.172686 -5.64386,4.611153 m 213.14014,79.42391 c 0,1.13917 0.82136,2.41124 2.96762,2.41124 2.75549,0 5.64386,-2.25194 5.64386,-4.58393 0,-1.56347 -1.3249,-2.43767 -2.96763,-2.43767 -2.57055,0 -5.64385,2.17269 -5.64385,4.61036 M 281.39559,33.888531 c 0,1.139179 0.82216,2.411249 2.96843,2.411249 2.75548,0 5.64386,-2.25274 5.64386,-4.584735 0,-1.563469 -1.32491,-2.437667 -2.96763,-2.437667 -2.57056,0 -5.64466,2.172686 -5.64466,4.611153 M 428.65067,169.5717 c 0,1.13918 0.82136,2.41125 2.96763,2.41125 2.75549,0 5.64386,-2.25274 5.64386,-4.58393 0,-1.56347 -1.32491,-2.43847 -2.96763,-2.43847 -2.57056,0 -5.64386,2.17349 -5.64386,4.61115 M 148.04841,20.65076 c 0,1.139419 0.82136,2.411329 2.96763,2.411329 2.75629,0 5.64466,-2.25234 5.64466,-4.584175 0,-1.563389 -1.32491,-2.437827 -2.96763,-2.437827 -2.57056,0 -5.64466,2.172846 -5.64466,4.610673 m 174.79872,70.662635 c -0.8742,0 -1.05992,-0.715689 -1.05992,-0.954252 0,-1.298488 4.45184,-3.577646 5.69669,-3.577646 0.63644,0 1.05992,0.371454 1.05992,0.954252 0,1.324906 -4.47826,3.577646 -5.69669,3.577646 m 3.6569,-5.77675 c -2.57056,0 -5.64466,2.146268 -5.64466,4.610353 0,1.139179 0.82136,2.411248 2.96843,2.411248 2.75548,0 5.64386,-2.251939 5.64386,-4.583934 0,-1.563469 -1.32491,-2.437667 -2.96763,-2.437667 M 206.57643,23.960143 c 0,1.139179 0.82136,2.411248 2.96763,2.411248 2.75548,0 5.64386,-2.251939 5.64386,-4.584094 0,-1.563389 -1.32491,-2.437827 -2.96763,-2.437827 -2.57056,0 -5.64386,2.172846 -5.64386,4.610673 m 90.99822,66.186855 c 0,1.139179 0.82136,2.411248 2.96763,2.411248 2.75628,0 5.64386,-2.251939 5.64386,-4.583934 0,-1.563469 -1.32491,-2.437667 -2.96763,-2.437667 -2.56976,0 -5.64386,2.172686 -5.64386,4.610353 m -165.32984,9.928392 c 0,1.13918 0.82136,2.41124 2.96763,2.41124 2.75548,0 5.64385,-2.25274 5.64385,-4.583929 0,-1.563469 -1.3249,-2.438468 -2.96762,-2.438468 -2.57056,0 -5.64386,2.173487 -5.64386,4.611157 m 287.6815,-76.115247 c 0,1.139179 0.82136,2.411248 2.96843,2.411248 2.75548,0 5.64386,-2.251939 5.64386,-4.584094 0,-1.563389 -1.32491,-2.437827 -2.96763,-2.437827 -2.57056,0 -5.64466,2.172846 -5.64466,4.610673 M 389.39743,20.65076 c 0,1.139419 0.82137,2.411329 2.96763,2.411329 2.75549,0 5.64386,-2.25234 5.64386,-4.584175 0,-1.563389 -1.3249,-2.437827 -2.96763,-2.437827 -2.57056,0 -5.64386,2.172846 -5.64386,4.610673 m 25.50704,88.21304 c 0,0.18572 0.15931,0.34423 0.34504,0.34423 0.13209,0 0.2914,-0.10567 0.31782,-0.21134 0,-0.0272 0.23856,-0.95426 0.26498,-1.03351 0.0264,-0.10647 0.26498,-1.11356 1.21843,-2.67623 1.03351,-1.72278 2.6234,-2.96843 3.9483,-4.8233 1.29849,-1.854866 2.09343,-3.603262 2.09343,-5.935256 0,-2.411249 -0.55638,-4.425426 -1.96054,-6.995183 -0.0801,-0.185727 -0.23856,-0.2922 -0.39787,-0.2922 -0.0528,0 -0.10567,0 -0.13209,0.02722 -0.13289,0.05284 -0.18573,0.158509 -0.18573,0.317818 0,0.07925 0.0264,0.212145 0.0793,0.317817 1.05992,2.464085 1.48421,3.869045 1.48421,5.77675 0,2.199104 -0.76852,3.338282 -1.24565,4.159644 -1.72198,2.94201 -4.50468,4.37259 -5.61744,4.74324 -0.18573,0.0801 -0.21215,0.21215 -0.21215,0.2914 v 5.9889 m 192.03931,-3.30947 c 0,0.18573 0.15851,0.34424 0.34424,0.34424 0.13209,0 0.29139,-0.10567 0.31781,-0.21135 0,-0.0264 0.23857,-0.95425 0.26498,-1.0335 0.0264,-0.10648 0.26499,-1.11276 1.21924,-2.67623 1.0335,-1.72278 2.62339,-2.968431 3.9483,-4.823299 1.29768,-1.854868 2.09263,-3.603264 2.09263,-5.935258 0,-2.411249 -0.55638,-4.425426 -1.96054,-6.995183 -0.0793,-0.185727 -0.23857,-0.291399 -0.39707,-0.291399 -0.0536,0 -0.10648,0 -0.13289,0.02642 -0.13209,0.05284 -0.18573,0.158508 -0.18573,0.317817 0,0.07925 0.0264,0.212145 0.0801,0.317817 1.05993,2.464085 1.48342,3.869046 1.48342,5.77675 0,2.199104 -0.76853,3.338283 -1.24485,4.160445 -1.72278,2.941211 -4.50468,4.371789 -5.61825,4.742442 -0.18492,0.08006 -0.21134,0.212145 -0.21134,0.2922 v 5.988088 M 530.68684,15.624924 c 0,0.07949 0.0264,0.211984 0.21214,0.291479 1.13918,0.370973 3.41834,1.801872 5.14032,4.743163 0.47713,0.821442 1.24565,1.960861 1.24565,4.160365 0,1.907704 -0.50354,3.868244 -1.19201,5.776749 -0.0536,0.158509 -0.10648,0.2914 -0.0801,0.397072 0,0.159309 0.10647,0.264981 0.26498,0.264981 0.18573,0 0.31862,-0.105672 0.42429,-0.291399 1.19202,-2.11985 1.64273,-4.583934 1.64273,-6.995183 -0.13209,-3.418578 -2.09344,-5.935899 -2.09344,-5.935899 0.0801,0 -2.43766,-3.259268 -3.15335,-4.372189 -0.97987,-1.510393 -1.43058,-3.020786 -1.48342,-3.126778 -0.0264,-0.0795 -0.26498,-1.0334268 -0.26498,-1.0334268 -0.0264,-0.1059924 -0.15931,-0.2119849 -0.31781,-0.2119849 -0.18573,0 -0.34504,0.1589887 -0.34504,0.3444755 V 15.624924 M 209.0197,175.05065 c 0,0.18573 0.15851,0.34424 0.34424,0.34424 0.13209,0 0.2914,-0.10568 0.31781,-0.21135 0,-0.0264 0.23857,-0.95425 0.26498,-1.03351 0.0264,-0.10647 0.26499,-1.11276 1.21924,-2.67623 1.0335,-1.72277 2.62339,-2.96842 3.9483,-4.82329 1.29849,-1.85487 2.09343,-3.60327 2.09343,-5.93526 0,-2.41125 -0.55718,-4.42543 -1.96134,-6.99518 -0.0793,-0.18573 -0.23856,-0.2914 -0.39707,-0.2914 -0.0536,0 -0.10648,0 -0.13289,0.0264 -0.13209,0.0528 -0.18573,0.15851 -0.18573,0.31782 0,0.0793 0.0272,0.21215 0.08,0.31782 1.05993,2.46408 1.48342,3.86904 1.48342,5.77675 0,2.1991 -0.76853,3.33828 -1.24485,4.16044 -1.72278,2.94121 -4.50468,4.37179 -5.61824,4.74245 -0.18493,0.08 -0.21135,0.21214 -0.21135,0.2922 v 5.98809 M 289.33862,15.624924 c 0,0.07949 0.0264,0.211984 0.21214,0.291479 1.13918,0.370973 3.41754,1.801872 5.14032,4.743163 0.47712,0.821442 1.24565,1.960861 1.24565,4.160365 0,1.907704 -0.50354,3.868244 -1.19282,5.776749 -0.0528,0.158509 -0.10567,0.2914 -0.0793,0.397072 0,0.159309 0.10567,0.264981 0.26498,0.264981 0.18573,0 0.31782,-0.105672 0.42349,-0.291399 1.19282,-2.11985 1.64352,-4.583934 1.64352,-6.995183 -0.13289,-3.418578 -2.09343,-5.935899 -2.09343,-5.935899 0.0793,0 -2.43766,-3.259268 -3.15335,-4.372189 -0.98067,-1.510393 -1.43138,-3.020786 -1.48422,-3.126778 -0.0264,-0.0795 -0.26498,-1.0334268 -0.26498,-1.0334268 -0.0264,-0.1059924 -0.15851,-0.2119849 -0.31782,-0.2119849 -0.18572,0 -0.34423,0.1589887 -0.34423,0.3444755 V 15.624924 M 404.91444,151.30802 c 0,0.08 0.0264,0.21214 0.21215,0.2914 1.13918,0.37145 3.41834,1.80203 5.14111,4.74324 0.47633,0.82136 1.24485,1.96134 1.24485,4.16044 0,1.90771 -0.50354,3.86905 -1.19201,5.77675 -0.0528,0.15851 -0.10647,0.2914 -0.0801,0.39707 0,0.15931 0.10648,0.26499 0.26499,0.26499 0.18572,0 0.31861,-0.10568 0.42429,-0.2914 1.19281,-2.11985 1.64272,-4.58394 1.64272,-6.99519 -0.13209,-3.41833 -2.09343,-5.93605 -2.09343,-5.93605 0.0801,0 -2.43767,-3.25903 -3.15336,-4.37179 -0.97987,-1.51064 -1.43058,-3.02127 -1.48341,-3.12694 -0.0264,-0.0793 -0.26498,-1.03351 -0.26498,-1.03351 -0.0264,-0.10567 -0.15931,-0.21214 -0.31782,-0.21214 -0.18573,0 -0.34504,0.15931 -0.34504,0.34503 v 5.9881 M 140.18704,81.811699 c 0,0.08005 0.0264,0.212145 0.21214,0.291399 1.13918,0.371454 3.41834,1.802032 5.14032,4.743243 0.47712,0.821362 1.24565,1.961341 1.24565,4.160445 0,1.907704 -0.50355,3.869045 -1.19282,5.776749 -0.0528,0.158509 -0.10567,0.2914 -0.0793,0.397072 0,0.159309 0.10647,0.264981 0.26498,0.264981 0.18573,0 0.31782,-0.105672 0.42429,-0.291399 1.19201,-2.11985 1.64272,-4.583934 1.64272,-6.995183 -0.13289,-3.418337 -2.09343,-5.936059 -2.09343,-5.936059 0.0793,0 -2.43767,-3.259028 -3.15335,-4.371789 -0.98068,-1.510633 -1.43058,-3.021266 -1.48342,-3.126938 -0.0272,-0.07925 -0.26498,-1.033507 -0.26498,-1.033507 -0.0272,-0.105672 -0.15931,-0.212145 -0.31862,-0.212145 -0.18492,0 -0.34423,0.159309 -0.34423,0.345036 v 5.988095 M 385.3871,80.217801 v 22.053519 h 0.66201 V 80.217801 Z M 178.57773,20.649729 v 18.756103 h 0.66201 V 20.649729 Z m 62.96226,66.186973 V 108.89022 H 242.202 V 86.836702 Z m -46.39016,-2.732964 v 17.109202 h 0.66202 V 84.103738 Z M 163.31291,17.340435 v 22.609056 h 0.66202 V 17.340435 Z m 8.55226,58.456687 v 22.106363 h 0.66201 V 75.797122 Z m 34.71092,-51.837788 v 18.744064 h 0.66201 V 23.959334 Z m 67.71348,59.567922 v 22.053514 h 0.66202 V 83.527256 Z m 23.28467,6.618901 v 20.398783 h 0.66202 V 90.146157 Z M 140.18663,75.849974 v 22.053511 h 0.66202 V 75.849974 Z M 320.8597,90.146157 v 20.398783 h 0.66216 V 90.146157 Z M 148.04888,20.649729 v 19.843254 h 0.66202 V 20.649729 Z M 414.90494,86.836702 V 108.8638 h 0.66201 V 86.836702 Z m -312.1783,-3.309446 v 22.053514 h 0.66202 V 83.527256 Z m 327.70172,3.309446 v 22.053518 h 0.66202 V 86.836702 Z M 87.384117,75.797122 v 22.106363 h 0.66202 V 75.797122 Z M 453.71303,90.146157 v 20.398783 h 0.66202 V 90.146157 Z M 56.156368,93.455604 v 18.744066 h 0.662013 V 93.455604 Z m 76.627542,-69.49627 v 17.077301 h 0.66217 V 23.959334 Z m 353.67871,69.49627 v 18.744066 h 0.66201 V 93.455604 Z M 237.41545,6.3005432 V 28.407223 h 0.66217 V 6.3005432 Z M 517.69037,75.797122 v 22.106363 h 0.66202 V 75.797122 Z m 23.28546,0 V 97.903485 H 541.638 V 75.797122 Z M 661.27495,20.649729 v 18.756103 h 0.66202 V 20.649729 Z m -543.75585,0 v 18.756103 h 0.66202 V 20.649729 Z m 528.49182,-3.309294 v 22.609056 h 0.66202 V 17.340435 Z m -68.58533,62.877366 v 22.053519 h 0.66202 V 80.217801 Z m 53.32052,-59.568072 v 19.843254 h 0.66201 V 20.649729 Z m -23.80268,62.877527 v 22.027094 h 0.66202 V 83.527256 Z m 15.52343,3.309446 v 22.053518 h 0.66201 V 86.836702 Z m -6.98571,-62.877368 v 17.077301 h 0.66216 V 23.959334 Z m 30.27038,66.186823 v 18.777683 h 0.66201 V 90.146157 Z m -45.5352,-69.496428 v 18.756103 h 0.66218 V 20.649729 Z m 61.05862,72.805875 v 17.055726 h 0.66202 V 93.455604 Z M 584.95152,14.031141 v 25.91835 h 0.66201 v -25.91835 z m -482.69724,3.309294 v 22.609056 h 0.66202 V 17.340435 Z m 467.43321,3.309294 v 19.843254 h 0.66201 V 20.649729 Z M 56.156368,153.02352 v 22.05352 h 0.662013 v -22.05352 z m 30.077434,6.61906 v 20.39863 h 0.662013 V 159.64258 Z M 554.42268,23.959334 v 17.077301 h 0.66201 V 23.959334 Z M 260.31283,6.3005432 V 28.407223 h 0.66201 V 6.3005432 Z M 116.31109,159.64258 v 20.39863 h 0.66201 V 159.64258 Z M 86.989479,20.649729 v 19.843254 h 0.662012 V 20.649729 Z M 530.68722,9.6628421 V 31.71667 h 0.66202 V 9.6628421 Z M 170.89169,149.71407 v 22.05352 h 0.66201 v -22.05352 z m 38.12763,3.30945 v 22.02709 h 0.66202 v -22.02709 z m 20.05136,3.3096 v 22.05337 h 0.66202 V 156.33312 Z M 493.71883,20.649729 v 20.398946 h 0.66201 V 20.649729 Z M 259.14797,159.64258 v 20.39863 h 0.66202 V 159.64258 Z M 470.82145,20.649729 v 20.398946 h 0.66217 V 20.649729 Z M 298.69016,162.95203 v 18.74391 h 0.66218 V 162.95203 Z M 447.92501,14.031141 v 22.053364 h 0.66202 V 14.031141 Z M 336.70975,145.29354 v 22.10622 h 0.66218 v -22.10622 z m 22.13435,7.72998 v 22.05352 h 0.66202 v -22.05352 z m 46.07073,-7.67712 v 22.05336 h 0.66201 V 145.3464 Z M 419.92665,23.959334 v 17.089341 h 0.66217 V 23.959334 Z m -348.201205,0 v 17.077301 h 0.662021 V 23.959334 Z M 404.66184,17.340435 v 23.70824 h 0.66201 v -23.70824 z m 31.93074,127.953105 v 22.10622 h 0.66202 V 145.29354 Z M 389.39703,20.649729 v 20.398946 h 0.66202 V 20.649729 Z m 77.27283,132.943091 v 17.11639 h 0.66202 v -17.11639 z m 20.05137,1.60187 v 18.82318 h 0.66202 V 155.19469 Z M 374.13221,23.959334 v 17.089341 h 0.66202 V 23.959334 Z M 506.77244,148.60221 v 22.107 h 0.66217 v -22.107 z M 358.86818,20.649729 v 18.756103 h 0.66202 V 20.649729 Z m 170.0394,135.683391 v 22.05337 h 0.66217 V 156.33312 Z M 343.60337,17.340435 v 22.609056 h 0.66202 V 17.340435 Z M 210.67326,85.691079 v 18.830531 h 0.66202 V 85.691079 Z m 117.6653,-65.04135 v 19.843254 h 0.66202 V 20.649729 Z M 568.44899,153.02352 v 22.05352 h 0.66216 v -22.05352 z m 30.07743,6.61906 v 20.39863 h 0.66202 V 159.64258 Z M 313.07359,23.959334 v 17.077301 h 0.66217 V 23.959334 Z M 289.33815,9.6628421 V 31.71667 h 0.66216 V 9.6628421 Z M 226.19669,79.105792 v 22.107148 h 0.66202 V 79.105792 Z m 402.40717,80.536788 v 20.39863 h 0.66202 V 159.64258 Z M 303.60915,9.2458378 V 36.448658 h 1.19128 V 9.2458378 Z m 73.50629,86.4073252 c 0,-0.768526 -0.61002,-1.404961 -1.37775,-1.404961 -0.76852,0 -1.37854,0.636435 -1.37854,1.404961 0,0.768525 0.61002,1.40416 1.37854,1.40416 0.76773,0 1.37775,-0.635635 1.37775,-1.40416 m 0,-6.618926 c 0,-0.768526 -0.61002,-1.40416 -1.37775,-1.40416 -0.76852,0 -1.37854,0.635634 -1.37854,1.40416 0,0.768525 0.61002,1.40416 1.37854,1.40416 0.76773,0 1.37775,-0.635635 1.37775,-1.40416 m -6.39556,-10.291821 v 27.202514 h 1.19113 V 78.742416 Z m -6.08932,0 v 27.202514 h 3.63999 V 78.742416 Z m 112.36761,0 v 27.202514 h 1.19113 V 78.742416 Z m -212.17304,0 v 27.202514 h 1.19113 V 78.742416 Z m 303.13602,0 v 27.202514 h 1.19113 V 78.742416 Z m 109.39839,69.496274 v 27.20266 h 3.64015 v -27.20266 z m -3.63967,0 v 27.20266 h 1.19113 v -27.20266 z m 6.089,-69.496274 V 105.94493 H 681 V 78.742416 Z M 197.11149,9.2458378 V 36.448658 h 1.19128 V 9.2458378 Z M 161.42631,148.23869 v 27.20266 h 1.19128 v -27.20266 z m -6.96789,-69.496274 v 27.202514 h 1.19112 V 78.742416 Z m 134.76652,69.496274 v 27.20266 h 1.19129 V 148.23869 Z M 679.80887,9.2458378 V 36.448658 H 681 V 9.2458378 Z M 419.18583,148.23869 v 27.20266 h 1.19113 V 148.23869 Z M 544.95824,9.2458378 V 36.448658 h 1.19112 V 9.2458378 Z M 558.98455,148.23869 v 27.20266 h 1.19128 V 148.23869 Z M 438.4598,9.2458378 V 36.448658 h 1.19112 V 9.2458378 Z M 364.63056,78.742416 v 27.202514 h 3.63999 V 78.742416 Z m -3.64061,0 v 27.202514 h 1.19128 V 78.742416 Z m -2.44721,16.910747 c 0,-0.768526 -0.60922,-1.404961 -1.37775,-1.404961 -0.76852,0 -1.37774,0.636435 -1.37774,1.404961 0,0.768525 0.60922,1.40416 1.37774,1.40416 0.76853,0 1.37775,-0.635635 1.37775,-1.40416 m 0,-6.618926 c 0,-0.768526 -0.60922,-1.40416 -1.37775,-1.40416 -0.76852,0 -1.37774,0.635634 -1.37774,1.40416 0,0.768525 0.60922,1.40416 1.37774,1.40416 0.76853,0 1.37775,-0.635635 1.37775,-1.40416 M 0,174.7132 v 0.72768 h 681 v -0.72768 z m 0,-6.61812 v 0.72768 h 681 v -0.72768 z m 0,-6.6189 v 0.72768 h 681 v -0.72768 z m 0,-6.6189 v 0.72768 h 681 v -0.72768 z m 0,-6.61891 v 0.72769 h 681 v -0.72769 z m 0,-43.02144 v 0.72769 h 681 v -0.72769 z m 0,-6.618121 v 0.727681 h 681 v -0.727681 z m 0,-6.618902 v 0.727682 h 681 v -0.727682 z m 0,-6.619054 v 0.727842 h 681 v -0.727842 z m 0,-6.618901 v 0.727681 H 681 V 78.741952 Z M 0,35.720656 v 0.727689 h 681 v -0.727689 z m 0,-6.618269 v 0.727841 h 681 v -0.727841 z m 0,-6.61906 v 0.727685 h 681 v -0.727685 z m 0,-6.618588 v 0.727684 H 681 V 15.864739 Z M 0,9.2459947 V 9.9736795 H 681 V 9.2459947 Z"
     style="stroke-width:0.0800547" />
  <metadata
     id="metadata217">
    <rdf:RDF>
      <cc:Work
         rdf:about="">
        <dc:title>air_XVI</dc:title>
      </cc:Work>
    </rdf:RDF>
  </metadata>
</svg>
