<?xml version="1.0" encoding="utf-8"?>
<svg xmlns="http://www.w3.org/2000/svg" xmlns:svg="http://www.w3.org/2000/svg" version="1.1" viewBox="0 0 681 188">
	<title>A score 3 staves long in 6/8 time, in the key of D Minor.</title>
	<path d="M361.854 95.653c0 .741.583 1.325 1.325 1.325s1.325-.584 1.325-1.325c0-.742-.583-1.325-1.325-1.325s-1.325.583-1.325 1.325m50.793-56.26c0 .743.584 1.326 1.325 1.326.742 0 1.325-.583 1.325-1.325s-.583-1.325-1.325-1.325c-.741 0-1.325.583-1.325 1.325m239.025 138.993c0 .742.583 1.324 1.325 1.324s1.325-.582 1.325-1.324-.583-1.325-1.325-1.325-1.325.582-1.325 1.325M391.053 82.415c0 .742.583 1.325 1.325 1.325s1.325-.583 1.325-1.325-.583-1.325-1.325-1.325-1.325.583-1.325 1.325M264.071 165.15c0 .743.583 1.325 1.325 1.325s1.325-.582 1.325-1.325c0-.742-.583-1.324-1.325-1.324s-1.325.582-1.325 1.324M608.986 26.157c0 .741.583 1.325 1.325 1.325s1.325-.584 1.325-1.325c0-.742-.583-1.325-1.325-1.325s-1.325.583-1.325 1.325m-364.135 6.618c0 .742.583 1.325 1.325 1.325s1.325-.583 1.325-1.325c0-.741-.583-1.325-1.325-1.325s-1.325.584-1.325 1.325m-138.68-13.237c0 .742.583 1.325 1.325 1.325s1.325-.583 1.325-1.325-.583-1.325-1.325-1.325-1.325.583-1.325 1.325M458.38 165.149c0 .743.583 1.325 1.325 1.325.741 0 1.325-.582 1.325-1.325 0-.742-.584-1.324-1.325-1.324-.742 0-1.325.582-1.325 1.324m28.76-13.237c0 .742.582 1.325 1.324 1.325s1.325-.583 1.325-1.325-.583-1.325-1.325-1.325-1.325.583-1.325 1.325M215.354 12.919c0 .742.582 1.325 1.325 1.325.742 0 1.324-.583 1.324-1.325s-.582-1.325-1.324-1.325-1.325.583-1.325 1.325m447.17 82.734c0 .741.583 1.325 1.325 1.325s1.325-.584 1.325-1.325c0-.742-.583-1.325-1.325-1.325s-1.325.583-1.325 1.325m-128.03 13.237c0 .742.583 1.325 1.325 1.325s1.325-.583 1.325-1.325-.583-1.325-1.325-1.325-1.325.583-1.325 1.325M165.488 95.653c0 .741.583 1.325 1.324 1.325.743 0 1.325-.584 1.325-1.325 0-.742-.582-1.325-1.325-1.325-.74 0-1.324.583-1.324 1.325m467.837 6.618c0 .742.583 1.325 1.325 1.325s1.325-.583 1.325-1.325c0-.741-.583-1.325-1.325-1.325s-1.325.584-1.325 1.325m-66.56 44.675 30.912 1.654v3.314l-30.912-1.655zM144.415 42.695l31.688-3.31v3.327l-31.688 3.31zm446.017 47.977 11.584-1.655v3.344l-11.584 1.654zm0-4.964 11.584-1.655v3.343l-11.584 1.655zm-487.627-8.257h31.374v3.31h-31.374zM513.45 178.377l30.911 3.31v3.328l-30.911-3.31zm-162.664-29.775h30.912v3.31h-30.912zM56.738 79.106h31.374v3.31H56.738zm196.366 0h31.374v3.31h-31.374zM118.642 36.708l-7.281-.682v3.324l7.28.682zm-24.385 2.679 35.308 3.31v3.323l-35.308-3.31zM471.812 77.45l31.374 1.654v3.314l-31.374-1.655zM279.842 2.99h31.688v3.31h-31.687zm137.96 105.89 31.373 3.31v3.327l-31.374-3.31zm-261.325 39.721h30.912v3.31h-30.912zm45.375-1.655h30.91v3.31h-30.91zM499.45 9.61h31.688v3.31H499.45zM396.16 143.636l30.911-1.654v3.314l-30.911 1.654zM299.172 74.14l31.373-1.655V75.8l-31.373 1.655zm27.21-61.23 31.687 3.31v3.327l-31.687-3.31zm219.607-4.955h31.688v3.31H545.99zm28.22 79.01c-.026 0-.079-.027-.105-.027-.16 0-.292.08-.345.212-.106.16-.927 1.723-2.12 2.597-.344.265-.769.45-1.192.53.291-.345.477-.769.477-1.272a1.89 1.89 0 0 0-1.881-1.882c-1.06 0-1.909.848-1.909 1.882 0 1.431 1.405 2.093 2.65 2.093 1.405 0 2.332-.662 3.233-1.643l-3.02 9.434.715.211 3.71-11.685c.026-.027.026-.08.026-.132q0-.2-.239-.318m-384.362 0c-.026 0-.079-.027-.106-.027-.159 0-.292.08-.344.212-.106.16-.927 1.723-2.12 2.597-.344.265-.769.45-1.192.53.291-.345.476-.769.476-1.272a1.89 1.89 0 0 0-1.881-1.882c-1.06 0-1.908.848-1.908 1.882 0 1.431 1.404 2.093 2.65 2.093 1.404 0 2.332-.662 3.233-1.643l-3.02 9.434.715.211 3.71-11.685c.026-.027.026-.08.026-.132q0-.2-.239-.318m15.356 0c-.027 0-.08-.027-.106-.027-.159 0-.291.08-.344.212-.107.16-.928 1.723-2.12 2.597-.344.265-.769.45-1.193.53.291-.345.477-.769.477-1.272a1.89 1.89 0 0 0-1.881-1.882c-1.06 0-1.908.848-1.908 1.882 0 1.431 1.404 2.093 2.65 2.093 1.404 0 2.332-.662 3.233-1.643l-3.02 9.434.714.211 3.71-11.685c.026-.027.026-.08.026-.132q0-.2-.238-.318M93.683 156.46c-.027 0-.08-.027-.106-.027-.16 0-.292.08-.345.212-.106.16-.927 1.723-2.12 2.597-.344.265-.768.45-1.192.53.291-.344.477-.768.477-1.272a1.89 1.89 0 0 0-1.881-1.881c-1.06 0-1.909.847-1.909 1.88 0 1.432 1.405 2.094 2.65 2.094 1.405 0 2.332-.662 3.233-1.642l-3.02 9.433.715.212 3.71-11.686c.026-.026.026-.08.026-.132q0-.2-.239-.318m15.125 0c-.026 0-.08-.027-.105-.027-.16 0-.292.08-.346.212-.105.16-.927 1.723-2.12 2.597-.344.265-.768.45-1.191.53.291-.344.477-.768.477-1.272a1.89 1.89 0 0 0-1.882-1.881c-1.06 0-1.908.847-1.908 1.881 0 1.431 1.405 2.093 2.65 2.093 1.405 0 2.332-.662 3.233-1.642l-3.021 9.433.716.212 3.71-11.686c.026-.026.026-.08.026-.132q0-.2-.239-.318m540.35-138.993c-.026 0-.079-.026-.105-.026-.16 0-.292.08-.345.212-.106.159-.927 1.722-2.12 2.596a2.85 2.85 0 0 1-1.192.53c.291-.344.477-.768.477-1.272a1.89 1.89 0 0 0-1.882-1.88c-1.06 0-1.908.847-1.908 1.88 0 1.431 1.405 2.094 2.65 2.094 1.405 0 2.332-.663 3.233-1.643l-3.02 9.434.715.211 3.71-11.685c.026-.027.026-.08.026-.133q0-.198-.239-.318m-15.513 0c-.026 0-.079-.026-.105-.026-.16 0-.292.08-.345.212-.106.159-.927 1.722-2.12 2.596a2.85 2.85 0 0 1-1.192.53c.291-.344.477-.768.477-1.272a1.89 1.89 0 0 0-1.882-1.88c-1.06 0-1.908.847-1.908 1.88 0 1.431 1.405 2.094 2.65 2.094 1.405 0 2.332-.663 3.233-1.643l-3.02 9.434.715.211 3.71-11.685c.026-.027.026-.08.026-.133q0-.198-.239-.318M287.991 156.461c-.026 0-.08-.027-.106-.027-.159 0-.292.08-.344.212-.106.16-.928 1.723-2.12 2.597-.344.265-.769.45-1.193.53.292-.344.477-.768.477-1.272a1.89 1.89 0 0 0-1.881-1.881c-1.06 0-1.908.847-1.908 1.88 0 1.432 1.404 2.094 2.65 2.094 1.404 0 2.332-.662 3.232-1.642l-3.02 9.433.715.212 3.71-11.686c.027-.026.027-.08.027-.132q0-.2-.239-.318m15.125 0c-.027 0-.08-.027-.106-.027-.159 0-.292.08-.345.212-.106.16-.928 1.723-2.12 2.597-.344.265-.768.45-1.192.53.291-.344.477-.768.477-1.272a1.89 1.89 0 0 0-1.882-1.881c-1.06 0-1.907.847-1.907 1.881 0 1.431 1.404 2.093 2.65 2.093 1.404 0 2.332-.662 3.232-1.642l-3.02 9.433.715.212 3.71-11.686c.026-.026.026-.08.026-.132q0-.2-.238-.318m255.737-69.496c-.026 0-.079-.027-.105-.027-.16 0-.292.08-.345.212-.106.16-.927 1.723-2.12 2.597a2.85 2.85 0 0 1-1.192.53c.291-.345.477-.769.477-1.272a1.89 1.89 0 0 0-1.881-1.882c-1.06 0-1.908.848-1.908 1.882 0 1.431 1.404 2.093 2.65 2.093 1.404 0 2.332-.662 3.232-1.643l-3.02 9.434.715.211 3.71-11.685c.026-.027.026-.08.026-.132q0-.2-.239-.318M45.572 28.195c-1.801-.583-3.789-1.458-3.789-2.65 0-1.033.954-1.458 2.093-1.458 1.643 0 2.756.769 2.756 1.988 0 1.272-.583 1.881-1.06 2.12m-1.696 6.28c-1.695 0-3.153-.928-3.153-2.412 0-1.775 1.378-2.199 1.378-2.199 1.802.61 4.372 1.51 4.372 2.968 0 .715-.927 1.643-2.597 1.643m3.18-5.564c.874-.663 1.484-1.51 1.484-2.57 0-1.909-2.093-3.472-4.664-3.472s-4.664 1.563-4.664 3.471c0 1.06.265 2.014 1.511 2.808-1.192.69-1.855 1.67-1.855 2.943 0 2.146 2.253 3.868 5.008 3.868s5.009-1.722 5.009-3.868c0-1.273-.451-2.465-1.829-3.18m-2.942-7.185c-.874 0-1.59-1.192-1.59-2.676s.716-2.703 1.59-2.703 1.616 1.219 1.616 2.703-.742 2.676-1.616 2.676m.98-6.625c-1.615 0-2.2.477-2.57.875-.079-.557-.133-.98-.133-1.405 0-1.51.53-3.47 2.385-3.47.663 0 1.06.211 1.325.503-.556.238-1.006.954-1.006 1.563 0 .954.741 1.696 1.695 1.696s1.723-.742 1.723-1.696v-.08c0-.238-.053-.635-.16-.847-.343-.954-1.457-2.359-4.107-2.359-2.385 0-4.107 2.28-4.637 3.498a9.4 9.4 0 0 0-.662 3.418c0 1.617.45 3.445 2.014 4.823 1.537 1.166 2.518 1.219 3.445 1.219s4.399-1.087 4.399-4.16c0-2.597-2.041-3.578-3.71-3.578m-14.723 6.686c0 2.094-1.086 3.207-2.623 4.426l.079-5.168c.053-.238.45-1.007 1.51-1.007.955 0 1.034.901 1.034 1.458zm-.318-3.047a2.98 2.98 0 0 0-2.226.98l.106-8.505a.363.363 0 0 0-.371-.371h-.318a.36.36 0 0 0-.37.37l.131 15.926c0 .212.16.37.372.37a.6.6 0 0 0 .211-.052c2.28-1.14 4.664-3.312 4.664-6.042 0-1.378-.635-2.676-2.199-2.676m.318 142.04c0 2.094-1.086 3.206-2.623 4.426l.079-5.168c.053-.239.45-1.007 1.51-1.007.955 0 1.034.901 1.034 1.458zm-.318-3.048a2.98 2.98 0 0 0-2.226.981l.106-8.506c0-.212-.159-.37-.371-.37h-.318a.36.36 0 0 0-.37.37l.131 15.926c0 .212.16.37.372.37a.6.6 0 0 0 .211-.053c2.28-1.139 4.664-3.311 4.664-6.041 0-1.378-.635-2.677-2.199-2.677m.318-66.448c0 2.093-1.086 3.206-2.623 4.425l.079-5.167c.053-.239.45-1.007 1.51-1.007.955 0 1.034.901 1.034 1.457zm-.318-3.048a2.98 2.98 0 0 0-2.226.98l.106-8.505c0-.212-.159-.37-.371-.37h-.318a.36.36 0 0 0-.37.37l.131 15.925c0 .212.16.37.372.37a.6.6 0 0 0 .211-.052c2.28-1.14 4.664-3.312 4.664-6.042 0-1.377-.635-2.676-2.199-2.676m-13.96 85.681a7.7 7.7 0 0 1-1.538.16c-3.789 0-7.022-2.65-7.022-6.652 0-3.233 2.28-6.12 4.611-8.135.45-.398.875-.768 1.272-1.165.238 1.43.424 2.676.61 3.762-2.412.715-4.055 3.26-4.055 5.75 0 1.855 1.458 4.399 3.577 4.399.212 0 .451-.106.451-.344 0-.239-.265-.372-.583-.583-1.033-.637-1.616-1.325-1.616-2.624 0-1.616 1.192-2.914 2.755-3.286zm-2.332-27.24c.239-1.06 1.458-3.842 2.836-3.842.397 0 1.033 1.299 1.033 3.127 0 2.755-2.04 4.822-3.869 6.624-.159-1.06-.291-2.093-.291-3.206 0-.98.08-1.882.291-2.703m6.095 22.338c0 1.882-.768 3.816-2.65 4.584a882 882 0 0 1-1.457-8.558c2.385 0 4.107 1.616 4.107 3.974m-11.66 13.037c0 1.749 1.352 4.054 4.93 4.054 1.245 0 2.331-.318 3.285-.9 1.431-1.007 1.802-2.757 1.802-4.426 0-1.033-.159-2.225-.424-3.736-.08-.53-.238-1.325-.397-2.358 2.597-.848 4.53-3.55 4.53-6.28 0-4.002-2.834-6.704-6.703-6.704-.265-1.59-.53-3.154-.769-4.637 2.81-2.942 4.744-6.254 4.744-10.467 0-2.412-.742-4.372-1.166-5.326-.636-1.352-1.405-2.28-1.882-2.28-.185 0-1.007.319-1.881 1.352-1.696 2.014-2.173 5.406-2.173 7.631 0 1.432.133 2.73.583 5.698-.026.026-1.404 1.43-1.96 1.881-2.412 2.252-5.75 5.458-5.75 10.758 0 4.955 4.318 8.85 9.247 8.85.768 0 1.484-.079 2.093-.185.504 2.544.795 4.399.795 5.803 0 2.756-1.404 4.213-4.08 4.213-.636 0-1.193-.132-1.246-.132-.026-.027-.08-.053-.08-.08 0-.053.054-.079.133-.105 1.246-.186 2.49-1.246 2.49-2.942 0-1.431-1.085-2.94-3.073-2.94-1.855 0-3.047 1.509-3.047 3.258m7.896-77.631a7.7 7.7 0 0 1-1.537.159c-3.789 0-7.022-2.65-7.022-6.65 0-3.234 2.28-6.122 4.611-8.136.45-.398.875-.769 1.272-1.166.238 1.43.424 2.677.61 3.763-2.412.715-4.055 3.259-4.055 5.75 0 1.854 1.458 4.398 3.577 4.398.212 0 .451-.105.451-.344 0-.238-.265-.371-.583-.583-1.033-.636-1.616-1.325-1.616-2.623 0-1.616 1.192-2.915 2.755-3.286zm-2.332-27.24c.239-1.06 1.458-3.842 2.836-3.842.397 0 1.033 1.298 1.033 3.127 0 2.755-2.04 4.822-3.869 6.624-.159-1.06-.291-2.093-.291-3.206 0-.98.08-1.882.291-2.703m6.095 22.338c0 1.881-.768 3.815-2.65 4.584a882 882 0 0 1-1.457-8.559c2.385 0 4.107 1.617 4.107 3.975m-11.66 13.037c0 1.748 1.352 4.054 4.93 4.054 1.245 0 2.331-.318 3.285-.9 1.431-1.008 1.802-2.757 1.802-4.426 0-1.034-.159-2.226-.424-3.736-.08-.53-.238-1.325-.397-2.359 2.597-.847 4.53-3.55 4.53-6.28 0-4.001-2.834-6.704-6.703-6.704-.265-1.59-.53-3.153-.769-4.637 2.81-2.942 4.744-6.253 4.744-10.467 0-2.411-.742-4.372-1.166-5.326-.636-1.351-1.405-2.279-1.882-2.279-.185 0-1.007.319-1.881 1.351-1.696 2.015-2.173 5.406-2.173 7.632 0 1.431.133 2.73.583 5.698-.026.026-1.404 1.43-1.96 1.88-2.412 2.253-5.75 5.459-5.75 10.759 0 4.955 4.318 8.85 9.247 8.85.768 0 1.484-.079 2.093-.185.504 2.544.795 4.399.795 5.803 0 2.755-1.404 4.213-4.08 4.213-.636 0-1.193-.133-1.246-.133-.026-.026-.08-.053-.08-.08 0-.052.054-.078.133-.105 1.246-.185 2.49-1.245 2.49-2.941 0-1.431-1.085-2.941-3.073-2.941-1.855 0-3.047 1.51-3.047 3.259m7.896-77.632a7.7 7.7 0 0 1-1.537.16c-3.789 0-7.022-2.65-7.022-6.651 0-3.234 2.28-6.122 4.611-8.135.45-.398.875-.769 1.272-1.166.238 1.43.424 2.676.61 3.762-2.412.716-4.055 3.26-4.055 5.75 0 1.855 1.458 4.4 3.577 4.4.212 0 .451-.107.451-.345 0-.239-.265-.372-.583-.583-1.033-.636-1.616-1.325-1.616-2.623 0-1.617 1.192-2.915 2.755-3.287zm-2.332-27.24c.239-1.06 1.458-3.842 2.836-3.842.397 0 1.033 1.299 1.033 3.127 0 2.756-2.04 4.823-3.869 6.625-.159-1.06-.291-2.094-.291-3.207 0-.98.08-1.881.291-2.703m6.095 22.339c0 1.881-.768 3.815-2.65 4.584a882 882 0 0 1-1.457-8.559c2.385 0 4.107 1.616 4.107 3.975M8.196 43.06c0 1.748 1.352 4.054 4.93 4.054 1.245 0 2.331-.318 3.285-.901 1.431-1.007 1.802-2.756 1.802-4.425 0-1.034-.159-2.226-.424-3.737-.08-.53-.238-1.325-.397-2.358 2.597-.848 4.53-3.55 4.53-6.28 0-4.001-2.834-6.704-6.703-6.704-.265-1.59-.53-3.153-.769-4.637 2.81-2.942 4.744-6.254 4.744-10.467 0-2.411-.742-4.372-1.166-5.326C17.392.927 16.623 0 16.146 0c-.185 0-1.007.318-1.881 1.351-1.696 2.014-2.173 5.406-2.173 7.632 0 1.43.133 2.73.583 5.697-.026.026-1.404 1.43-1.96 1.881-2.412 2.253-5.75 5.459-5.75 10.758 0 4.956 4.318 8.851 9.247 8.851.768 0 1.484-.08 2.093-.186.504 2.545.795 4.4.795 5.804 0 2.755-1.404 4.213-4.08 4.213-.636 0-1.193-.133-1.246-.133-.026-.026-.08-.053-.08-.08 0-.052.054-.079.133-.105 1.246-.186 2.49-1.246 2.49-2.941 0-1.432-1.085-2.941-3.073-2.941-1.855 0-3.047 1.51-3.047 3.259m325.755-5.863c0 1.14.82 2.412 2.967 2.412 2.756 0 5.645-2.252 5.645-4.584 0-1.564-1.325-2.438-2.968-2.438-2.57 0-5.644 2.173-5.644 4.61m39.14 135.684c0 1.14.822 2.411 2.968 2.411 2.757 0 5.644-2.252 5.644-4.584 0-1.563-1.325-2.438-2.967-2.438-2.57 0-5.644 2.173-5.644 4.611M318.439 33.89c0 1.139.82 2.41 2.967 2.41 2.756 0 5.645-2.252 5.645-4.584 0-1.563-1.325-2.438-2.968-2.438-2.57 0-5.644 2.173-5.644 4.612m69.778 135.683c0 1.139.822 2.41 2.968 2.41 2.756 0 5.644-2.252 5.644-4.583 0-1.563-1.325-2.438-2.968-2.438-2.57 0-5.644 2.173-5.644 4.61m-136.06-3.309c0 1.14.82 2.411 2.967 2.411 2.756 0 5.644-2.251 5.644-4.583 0-1.564-1.325-2.438-2.968-2.438-2.57 0-5.644 2.173-5.644 4.61M491.508 33.89c0 1.139.821 2.41 2.968 2.41 2.756 0 5.644-2.252 5.644-4.584 0-1.563-1.325-2.438-2.968-2.438-2.57 0-5.644 2.173-5.644 4.612m-188.582-6.62c0 1.14.82 2.412 2.967 2.412 2.756 0 5.645-2.253 5.645-4.584 0-1.564-1.325-2.438-2.968-2.438-2.57 0-5.644 2.173-5.644 4.61m204.095 9.928c0 1.14.821 2.412 2.968 2.412 2.756 0 5.644-2.252 5.644-4.584 0-1.564-1.325-2.438-2.968-2.438-2.57 0-5.644 2.173-5.644 4.61M224.158 169.572c0 1.139.821 2.41 2.968 2.41 2.756 0 5.644-2.252 5.644-4.583 0-1.563-1.325-2.438-2.968-2.438-2.57 0-5.644 2.173-5.644 4.61M522.534 33.89c0 1.139.821 2.41 2.968 2.41 2.756 0 5.644-2.252 5.644-4.584 0-1.563-1.325-2.438-2.968-2.438-2.57 0-5.644 2.173-5.644 4.612m-313.5 138.992c0 1.14.82 2.411 2.967 2.411 2.756 0 5.645-2.252 5.645-4.584 0-1.563-1.325-2.438-2.968-2.438-2.57 0-5.645 2.173-5.645 4.611M538.047 30.58c0 1.14.821 2.411 2.968 2.411 2.756 0 5.644-2.252 5.644-4.584 0-1.563-1.325-2.438-2.968-2.438-2.57 0-5.644 2.173-5.644 4.611M403.342 166.262c0 1.14.822 2.411 2.968 2.411 2.755 0 5.644-2.251 5.644-4.583 0-1.564-1.325-2.438-2.968-2.438-2.57 0-5.644 2.173-5.644 4.61m-209.433 3.31c0 1.139.82 2.41 2.968 2.41 2.755 0 5.644-2.252 5.644-4.583 0-1.563-1.325-2.438-2.968-2.438-2.57 0-5.644 2.173-5.644 4.61m164.059 6.619c0 1.14.821 2.412 2.968 2.412 2.756 0 5.644-2.253 5.644-4.585 0-1.563-1.325-2.438-2.968-2.438-2.57 0-5.644 2.173-5.644 4.61m-179.184-3.308c0 1.14.822 2.411 2.968 2.411 2.756 0 5.644-2.252 5.644-4.584 0-1.563-1.325-2.438-2.968-2.438-2.57 0-5.644 2.173-5.644 4.611M553.56 33.89c0 1.139.821 2.41 2.968 2.41 2.756 0 5.644-2.252 5.644-4.584 0-1.563-1.325-2.438-2.968-2.438-2.57 0-5.644 2.173-5.644 4.612m-389.9 142.3c0 1.14.821 2.413 2.968 2.413 2.755 0 5.643-2.253 5.643-4.585 0-1.563-1.325-2.438-2.967-2.438-2.57 0-5.644 2.173-5.644 4.61M569.073 30.58c0 1.14.821 2.411 2.968 2.411 2.756 0 5.644-2.252 5.644-4.584 0-1.563-1.325-2.438-2.968-2.438-2.57 0-5.644 2.173-5.644 4.611m-281.66-6.619c0 1.14.82 2.411 2.967 2.411 2.756 0 5.645-2.252 5.645-4.584 0-1.563-1.325-2.438-2.968-2.438-2.57 0-5.645 2.173-5.645 4.611M148.536 172.881c0 1.14.822 2.411 2.968 2.411 2.755 0 5.644-2.252 5.644-4.584 0-1.563-1.325-2.438-2.968-2.438-2.57 0-5.644 2.173-5.644 4.611M597.071 27.27c0 1.139.822 2.41 2.968 2.41 2.756 0 5.644-2.252 5.644-4.583 0-1.564-1.325-2.438-2.968-2.438-2.57 0-5.644 2.173-5.644 4.61M418.467 162.954c0 1.139.821 2.411 2.968 2.411 2.755 0 5.643-2.252 5.643-4.584 0-1.563-1.325-2.438-2.967-2.438-2.57 0-5.644 2.173-5.644 4.61M271.899 30.58c0 1.14.822 2.411 2.968 2.411 2.756 0 5.645-2.252 5.645-4.584 0-1.563-1.325-2.438-2.968-2.438-2.57 0-5.645 2.173-5.645 4.611M116.857 176.19c0 1.14.821 2.413 2.967 2.413 2.757 0 5.645-2.253 5.645-4.585 0-1.563-1.325-2.438-2.968-2.438-2.57 0-5.644 2.173-5.644 4.61m329.607-9.927c0 1.14.823 2.411 2.969 2.411 2.755 0 5.644-2.251 5.644-4.583 0-1.564-1.325-2.438-2.968-2.438-2.57 0-5.645 2.173-5.645 4.61M657.595 37.197c0 1.14.822 2.412 2.968 2.412 2.756 0 5.644-2.252 5.644-4.584 0-1.564-1.324-2.438-2.967-2.438-2.57 0-5.645 2.173-5.645 4.61M232.937 33.89c0 1.139.821 2.41 2.967 2.41 2.757 0 5.645-2.252 5.645-4.584 0-1.563-1.325-2.438-2.968-2.438-2.57 0-5.644 2.173-5.644 4.612m242.287 122.445c0 1.14.822 2.411 2.969 2.411 2.755 0 5.643-2.252 5.643-4.584 0-1.563-1.324-2.438-2.967-2.438-2.57 0-5.645 2.173-5.645 4.61M63.92 179.5c0 1.14.822 2.412 2.968 2.412 2.756 0 5.645-2.252 5.645-4.584 0-1.564-1.325-2.438-2.969-2.438-2.57 0-5.644 2.173-5.644 4.61m247.246-3.31c0 1.14.82 2.413 2.967 2.413 2.756 0 5.644-2.253 5.644-4.585 0-1.563-1.325-2.438-2.968-2.438-2.57 0-5.643 2.173-5.643 4.61m-262.37-3.308c0 1.14.821 2.411 2.967 2.411 2.757 0 5.645-2.252 5.645-4.584 0-1.563-1.325-2.438-2.968-2.438-2.57 0-5.644 2.173-5.644 4.611M400.732 40.507c0 1.14.822 2.41 2.968 2.41 2.756 0 5.645-2.251 5.645-4.583 0-1.563-1.325-2.438-2.969-2.438-2.57 0-5.644 2.173-5.644 4.61M48.796 103.386c0 1.139.821 2.411 2.967 2.411 2.757 0 5.645-2.253 5.645-4.585 0-1.562-1.325-2.437-2.968-2.437-2.57 0-5.644 2.172-5.644 4.61m328.667-62.877c0 1.14.821 2.41 2.967 2.41 2.757 0 5.645-2.251 5.645-4.583 0-1.563-1.325-2.438-2.968-2.438-2.57 0-5.644 2.173-5.644 4.61m-27.998 0c0 1.14.82 2.412 2.967 2.412 2.756 0 5.645-2.252 5.645-4.584 0-1.563-1.325-2.438-2.968-2.438-2.57 0-5.644 2.173-5.644 4.61M203.439 17.342c0 1.14.821 2.412 2.968 2.412 2.755 0 5.644-2.253 5.644-4.584 0-1.564-1.325-2.438-2.968-2.438-2.57 0-5.644 2.173-5.644 4.61M64.152 106.694c0 1.14.821 2.412 2.967 2.412 2.756 0 5.644-2.253 5.644-4.585 0-1.564-1.325-2.438-2.967-2.438-2.57 0-5.644 2.173-5.644 4.61M175.44 20.652c0 1.14.821 2.411 2.967 2.411 2.756 0 5.644-2.252 5.644-4.584 0-1.563-1.325-2.438-2.967-2.438-2.571 0-5.644 2.173-5.644 4.61M650.61 96.767c0 1.14.821 2.411 2.967 2.411 2.757 0 5.644-2.253 5.644-4.584 0-1.563-1.325-2.438-2.967-2.438-2.57 0-5.644 2.173-5.644 4.61m-571.103 6.62c0 1.139.822 2.411 2.969 2.411 2.755 0 5.643-2.253 5.643-4.585 0-1.562-1.324-2.437-2.967-2.437-2.57 0-5.645 2.172-5.645 4.61m433.942 56.26c0 1.138.821 2.41 2.967 2.41 2.757 0 5.645-2.251 5.645-4.583 0-1.564-1.325-2.438-2.968-2.438-2.57 0-5.644 2.173-5.644 4.61m107.961-56.258c0 1.139.822 2.411 2.968 2.411 2.756 0 5.644-2.253 5.644-4.585 0-1.562-1.325-2.437-2.968-2.437-2.57 0-5.644 2.172-5.644 4.61m-526.547-3.309c0 1.14.822 2.412 2.968 2.412 2.756 0 5.645-2.253 5.645-4.584 0-1.564-1.325-2.439-2.969-2.439-2.57 0-5.644 2.174-5.644 4.611m65.065-76.115c0 1.14.821 2.411 2.967 2.411 2.756 0 5.644-2.252 5.644-4.584 0-1.563-1.325-2.438-2.967-2.438-2.571 0-5.644 2.173-5.644 4.611m-49.709 79.425c0 1.139.822 2.411 2.968 2.411 2.755 0 5.644-2.253 5.644-4.585 0-1.562-1.325-2.437-2.968-2.437-2.57 0-5.644 2.172-5.644 4.61m483.193 3.31c0 1.14.821 2.412 2.968 2.412 2.756 0 5.644-2.253 5.644-4.585 0-1.564-1.324-2.438-2.968-2.438-2.57 0-5.644 2.173-5.644 4.61m-467.837-6.618c0 1.14.821 2.412 2.968 2.412 2.756 0 5.644-2.253 5.644-4.584 0-1.564-1.325-2.439-2.968-2.439-2.57 0-5.644 2.174-5.644 4.611m402.998 62.878c0 1.139.822 2.411 2.968 2.411 2.756 0 5.645-2.252 5.645-4.584 0-1.563-1.325-2.438-2.969-2.438-2.57 0-5.644 2.173-5.644 4.61m53.917-49.64c0 1.14.822 2.412 2.968 2.412 2.756 0 5.645-2.252 5.645-4.584 0-1.564-1.325-2.438-2.969-2.438-2.57 0-5.644 2.173-5.644 4.61M153.573 96.766c0 1.14.821 2.411 2.968 2.411 2.756 0 5.644-2.253 5.644-4.584 0-1.563-1.325-2.438-2.968-2.438-2.57 0-5.644 2.173-5.644 4.61m390.125 69.497c0 1.14.821 2.411 2.968 2.411 2.756 0 5.644-2.251 5.644-4.583 0-1.564-1.324-2.438-2.968-2.438-2.57 0-5.644 2.173-5.644 4.61M144.415 27.27c0 1.139.821 2.41 2.967 2.41 2.756 0 5.644-2.252 5.644-4.583 0-1.564-1.325-2.438-2.967-2.438-2.571 0-5.644 2.173-5.644 4.61m414.408 142.303c0 1.139.821 2.41 2.968 2.41 2.755 0 5.643-2.252 5.643-4.583 0-1.563-1.325-2.438-2.967-2.438-2.57 0-5.644 2.173-5.644 4.61M128.902 27.27c0 1.139.821 2.41 2.967 2.41 2.756 0 5.644-2.252 5.644-4.583 0-1.564-1.325-2.438-2.967-2.438-2.571 0-5.644 2.173-5.644 4.61m393.678 82.734c0 1.14.821 2.411 2.967 2.411 2.756 0 5.644-2.252 5.644-4.584 0-1.563-1.325-2.437-2.967-2.437-2.571 0-5.644 2.172-5.644 4.61m51.368 62.878c0 1.14.821 2.411 2.967 2.411 2.756 0 5.644-2.252 5.644-4.584 0-1.563-1.325-2.438-2.968-2.438-2.57 0-5.643 2.173-5.643 4.611M117.98 23.961c0 1.138.821 2.41 2.967 2.41 2.756 0 5.644-2.252 5.644-4.584 0-1.563-1.325-2.438-2.967-2.438-2.57 0-5.644 2.173-5.644 4.611m95.504 82.734c0 1.14.822 2.412 2.968 2.412 2.755 0 5.644-2.253 5.644-4.585 0-1.564-1.325-2.438-2.968-2.438-2.57 0-5.644 2.173-5.644 4.61m281.097 0c0 1.14.822 2.413 2.968 2.413 2.756 0 5.644-2.253 5.644-4.585 0-1.564-1.325-2.438-2.968-2.438-2.57 0-5.644 2.173-5.644 4.61m-249.419-3.308c0 1.139.821 2.411 2.968 2.411 2.756 0 5.643-2.253 5.643-4.585 0-1.562-1.324-2.437-2.967-2.437-2.57 0-5.644 2.172-5.644 4.61m234.063 0c0 1.14.822 2.412 2.969 2.412 2.755 0 5.644-2.253 5.644-4.585 0-1.562-1.325-2.437-2.968-2.437-2.57 0-5.645 2.172-5.645 4.61m109.847 72.806c0 1.14.822 2.412 2.968 2.412 2.755 0 5.644-2.253 5.644-4.585 0-1.563-1.325-2.438-2.968-2.438-2.57 0-5.644 2.173-5.644 4.61M94.256 20.652c0 1.14.822 2.411 2.968 2.411 2.756 0 5.644-2.252 5.644-4.584 0-1.563-1.325-2.438-2.968-2.438-2.57 0-5.644 2.173-5.644 4.61m369.614 79.425c0 1.14.821 2.412 2.968 2.412 2.755 0 5.643-2.253 5.643-4.584 0-1.564-1.324-2.439-2.967-2.439-2.57 0-5.644 2.174-5.644 4.611m-203.352 6.619c0 1.14.821 2.412 2.968 2.412 2.755 0 5.644-2.253 5.644-4.585 0-1.564-1.325-2.438-2.968-2.438-2.57 0-5.644 2.173-5.644 4.61m187.996-9.927c0 1.14.821 2.411 2.967 2.411 2.757 0 5.645-2.253 5.645-4.584 0-1.563-1.325-2.438-2.968-2.438-2.57 0-5.644 2.173-5.644 4.61m-172.64 6.62c0 1.139.82 2.411 2.967 2.411 2.756 0 5.645-2.253 5.645-4.585 0-1.562-1.325-2.437-2.968-2.437-2.57 0-5.645 2.172-5.645 4.61m157.285-9.928c0 1.14.822 2.412 2.968 2.412 2.756 0 5.644-2.252 5.644-4.584 0-1.564-1.325-2.438-2.968-2.438-2.57 0-5.644 2.173-5.644 4.61m-141.928 6.62c0 1.139.82 2.41 2.967 2.41 2.756 0 5.644-2.252 5.644-4.583 0-1.564-1.325-2.439-2.968-2.439-2.57 0-5.643 2.174-5.643 4.611M617.07 179.5c0 1.14.822 2.412 2.968 2.412 2.756 0 5.644-2.252 5.644-4.584 0-1.564-1.325-2.438-2.967-2.438-2.571 0-5.645 2.173-5.645 4.61M417.802 90.147c0 1.14.822 2.411 2.968 2.411 2.756 0 5.644-2.252 5.644-4.584 0-1.563-1.325-2.437-2.968-2.437-2.57 0-5.644 2.172-5.644 4.61M62.114 17.341c0 1.14.822 2.412 2.968 2.412 2.756 0 5.644-2.253 5.644-4.584 0-1.564-1.325-2.438-2.968-2.438-2.57 0-5.644 2.173-5.644 4.61m244.47 79.425c0 1.14.823 2.411 2.97 2.411 2.755 0 5.643-2.253 5.643-4.584 0-1.563-1.325-2.438-2.968-2.438-2.57 0-5.644 2.173-5.644 4.61m36.258 76.116c0 1.14.822 2.411 2.968 2.411 2.756 0 5.644-2.252 5.644-4.584 0-1.563-1.324-2.438-2.968-2.438-2.57 0-5.644 2.173-5.644 4.611m296.914 6.618c0 1.14.822 2.412 2.968 2.412 2.756 0 5.644-2.252 5.644-4.584 0-1.564-1.325-2.438-2.968-2.438-2.57 0-5.644 2.173-5.644 4.61M379.138 86.838c0 1.14.822 2.41 2.968 2.41 2.756 0 5.644-2.251 5.644-4.583 0-1.564-1.325-2.438-2.968-2.438-2.57 0-5.644 2.173-5.644 4.61m-29.199 9.929c0 1.14.822 2.411 2.968 2.411 2.756 0 5.644-2.253 5.644-4.584 0-1.563-1.325-2.438-2.968-2.438-2.57 0-5.644 2.173-5.644 4.61M459.83 37.198c0 1.14.822 2.412 2.968 2.412 2.756 0 5.644-2.252 5.644-4.584 0-1.564-1.325-2.438-2.968-2.438-2.57 0-5.644 2.173-5.644 4.61m-137.89 56.26c0 1.139.822 2.41 2.969 2.41 2.756 0 5.644-2.251 5.644-4.583 0-1.564-1.325-2.438-2.968-2.438-2.57 0-5.644 2.173-5.644 4.61m145.832-74.522c0 .08.026.212.212.292 1.139.37 3.418 1.802 5.14 4.743.477.821 1.246 1.96 1.246 4.16 0 1.908-.504 3.869-1.193 5.776-.053.16-.106.293-.08.398 0 .16.106.265.266.265.185 0 .317-.105.424-.291 1.192-2.12 1.643-4.584 1.643-6.996-.133-3.418-2.094-5.935-2.094-5.935.08 0-2.437-3.26-3.153-4.373-.98-1.51-1.43-3.02-1.484-3.126a65 65 0 0 1-.265-1.034c-.027-.106-.159-.212-.318-.212a.35.35 0 0 0-.344.345zM319.108 157.927c0 .08.026.212.212.291 1.14.371 3.418 1.802 5.14 4.744.477.821 1.246 1.96 1.246 4.16 0 1.908-.504 3.868-1.193 5.776-.053.16-.106.292-.08.398 0 .16.106.265.266.265.185 0 .318-.106.424-.292 1.192-2.12 1.643-4.583 1.643-6.996-.133-3.417-2.094-5.935-2.094-5.935.08 0-2.437-3.259-3.153-4.372-.98-1.51-1.43-3.02-1.484-3.127a66 66 0 0 1-.265-1.033c-.027-.107-.159-.212-.318-.212a.35.35 0 0 0-.344.344zM62.114 39.367c0 .186.159.345.345.345.132 0 .291-.106.318-.212 0-.027.238-.954.264-1.033.027-.107.265-1.114 1.22-2.677 1.032-1.722 2.622-2.968 3.947-4.823 1.299-1.855 2.094-3.603 2.094-5.935 0-2.411-.557-4.425-1.96-6.996-.08-.185-.24-.291-.399-.291-.053 0-.105 0-.132.027-.133.053-.186.159-.186.317 0 .08.027.212.08.318 1.06 2.465 1.484 3.87 1.484 5.777 0 2.2-.769 3.339-1.246 4.16-1.722 2.941-4.504 4.373-5.617 4.743-.185.08-.212.212-.212.292zm603.424-20.433c0 .08.027.212.212.292 1.14.37 3.418 1.802 5.14 4.743.478.821 1.246 1.96 1.246 4.16 0 1.908-.503 3.869-1.192 5.776-.053.16-.106.293-.08.398 0 .16.106.265.265.265.185 0 .318-.105.424-.291 1.193-2.12 1.642-4.584 1.642-6.996-.132-3.418-2.092-5.935-2.092-5.935.08 0-2.439-3.26-3.154-4.373-.98-1.51-1.43-3.02-1.484-3.126a65 65 0 0 1-.265-1.034c-.026-.106-.16-.212-.318-.212a.35.35 0 0 0-.344.345zm-540.74 138.993c0 .08.028.212.213.291 1.14.371 3.418 1.802 5.141 4.744.476.821 1.245 1.96 1.245 4.16 0 1.908-.504 3.868-1.192 5.776-.053.16-.106.292-.08.398 0 .16.106.265.266.265.185 0 .318-.106.423-.292 1.193-2.12 1.643-4.583 1.643-6.996-.132-3.417-2.093-5.935-2.093-5.935.08 0-2.438-3.259-3.153-4.372-.98-1.51-1.431-3.02-1.484-3.127a66 66 0 0 1-.265-1.033c-.027-.107-.16-.212-.318-.212a.35.35 0 0 0-.345.344zm-68.061-3.31c0 .08.027.213.212.292 1.14.371 3.419 1.802 5.141 4.743.477.821 1.245 1.961 1.245 4.16 0 1.908-.503 3.869-1.192 5.777-.053.159-.106.292-.08.397 0 .16.107.265.266.265.185 0 .318-.105.423-.291 1.193-2.12 1.643-4.584 1.643-6.995-.132-3.419-2.093-5.936-2.093-5.936.08 0-2.438-3.26-3.153-4.372-.98-1.51-1.431-3.021-1.484-3.127a64 64 0 0 1-.265-1.034c-.027-.105-.16-.212-.318-.212a.35.35 0 0 0-.345.345zm164.689-66.186c0 .079.026.212.212.291 1.139.37 3.417 1.802 5.14 4.743.477.822 1.246 1.96 1.246 4.16 0 1.908-.504 3.869-1.193 5.777-.053.159-.106.292-.08.398 0 .159.106.265.266.265.185 0 .317-.106.423-.292 1.193-2.12 1.644-4.584 1.644-6.996-.133-3.417-2.094-5.935-2.094-5.935.08 0-2.438-3.26-3.153-4.372-.98-1.51-1.432-3.021-1.484-3.127a67 67 0 0 1-.265-1.033c-.027-.107-.159-.213-.318-.213a.35.35 0 0 0-.344.345zm-77.013-61.162v17.055h.662V27.269Zm288.744 66.187V112.2h.662V93.456ZM299.171 75.78v22.123h.662V75.78Zm149.342 20.985v17.054h.663V96.765ZM283.816 80.761v20.452h.662V80.76Zm187.996-1.638v18.78h.662v-18.78ZM268.46 80.761v23.76h.662v-23.76Zm218.708-.827v21.279h.662v-21.28Zm15.356.81v23.778h.662V80.744Zm-249.42.017v20.452h.663V80.76ZM203.44 17.34v22.053h.662V17.34Zm-43.512 6.618v18.744h.662V23.96ZM240.88 9.61v22.108h.662V9.61Zm-19.454 72.86v22.053h.662V82.468Zm93.101-7.5v19.625h.663V74.969Zm160.697 81.364v22.053h.663v-22.053zm55.297-70.608v22.106h.663V85.725Zm59.912 1.607v23.809h.662V87.332ZM454.407 143.64v20.451h.662V143.64ZM161.516 74.142v20.452h.662V74.142Zm382.182 92.12v17.053h.662v-17.054ZM279.842 4.645v23.761h.662V4.646Zm321.513 81.126v18.75h.662v-18.75Zm-467.838-6.666v18.797h.662V79.106Zm433.248 69.515V167.4h.663v-18.78ZM118.161 79.106v22.107h.662V79.106Zm177.194-74.46v17.142h.662V4.646Zm333.998 74.46v22.107h.662V79.106Zm-526.547 0v18.797h.662V79.106Zm555.746-4.964v20.452h.662V74.142ZM87.45 80.761v20.452h.662V80.76ZM62.114 17.34v22.027h.662V17.34zm9.98 63.42v23.76h.662v-23.76Zm354.315 62.895v17.125h.662v-17.125zm102.164 19.296v18.744h.662v-18.744ZM56.738 80.761v20.452h.662V80.76Zm0 67.895v22.053h.662v-22.053zm15.125 6.565v22.106h.662v-22.106ZM310.868 4.646v20.452h.662V4.646Zm100.416 139.82v19.624h.662v-19.624zm236.415 10.755v22.106h.662v-22.106ZM329.884 74.16v17.126h.662V74.159Zm335.654-61.187v22.053h.662V12.972Zm-152.089 146.67v20.435h.662v-20.434zm-388.65-7.677v22.053h.662v-22.053ZM94.256 20.65v20.43h.662V20.65Zm232.125-6.042v17.109h.662V14.608ZM156.477 150.257v20.452h.662v-20.452ZM605.014 4.646v20.452h.662V4.646ZM396.16 145.276V167.4h.662v-22.125Zm228.853 9.945v22.106h.662v-22.106zm-453.411-4.964v23.76h.662v-23.76ZM577.016 9.61v18.797h.662V9.61Zm-390.29 140.647v20.452h.662v-20.452ZM561.503 9.61v22.107h.662V9.61ZM201.85 148.602V167.4h.662v-18.798zm15.125 0v22.107h.662v-22.107zM545.99 9.61v18.797h.662V9.61ZM232.1 148.602V167.4h.663v-18.798ZM514.965 11.265v23.76h.662v-23.76Zm15.513 0v20.452h.662V11.265ZM381.035 150.257v20.452h.662v-20.452ZM117.98 23.959v19.344h.662V23.959ZM260.1 143.64v20.451h.662V143.64ZM499.451 11.265v20.452h.662V11.265Zm-157.557 4.964v18.796h.662V16.23Zm255.12 134.01v23.779h.662v-23.779zM379.138 86.837v22.053h.662V86.837Zm88.634-73.865v22.053h.662V12.972Zm-109.89 61.17v20.452h.662V74.142Zm8.029 76.115v23.76h.662v-23.76Zm-8.504-132.408v20.486h.662V17.849Zm-228.506 9.42v17.058h.662V27.269Zm190.206 124.696v22.053h.662v-22.053zm262.782-2.535v21.28h.662v-21.28ZM408.675 16.229v22.106h.662V16.229Zm-57.89 134.028v20.452h.663v-20.452Zm34.62-134.028v22.106h.663V16.229Zm32.397 73.917v20.434h.662V90.146ZM175.44 20.65v20.433h.662V20.65Zm404.866 91.02v1.06h12.974v-1.06zM111.877 25.418v-4.346l3.074-.875v4.372zm3.657-7.42a.3.3 0 0 0-.212-.08c-.026 0-.08.027-.106.027l-3.339.928v-4.638h-.742v13.117c0 .212.16.344.372.344h.105l3.34-.927v4.637h.714V18.29c0-.106-.053-.239-.132-.292m-27.327-.421 2.359-.477v4.372l-2.359.504zm4.108-.821c.159-.027.292-.212.292-.371V14.82a.36.36 0 0 0-.371-.37h-.054l-.874.185v-3.949h-.742v4.108l-2.359.477v-3.737h-.74v3.896l-1.034.212c-.16.026-.292.212-.292.37v1.537c0 .212.159.371.37.371h.08l.875-.185v4.372l-1.033.212c-.16.027-.292.212-.292.371v1.537c0 .212.159.371.37.371h.08l.875-.186v3.949h.741v-4.107l2.359-.477v3.736h.742v-3.896l1.007-.185c.159-.026.291-.212.291-.37v-1.564a.36.36 0 0 0-.37-.371h-.054l-.874.185v-4.372zm529.508 166.3a.17.17 0 0 0-.124.029l-.012.02h-.011a.2.2 0 0 0-.017.046.2.2 0 0 0-.022.057.2.2 0 0 0 .014.06.2.2 0 0 0 .011.047c2.183 3.017 6.505 4.498 10.816 4.498 4.31 0 8.633-1.481 10.815-4.498a.165.165 0 0 0-.247-.218c-2.076 1.94-6.322 2.95-10.568 2.95-4.247 0-8.493-1.01-10.569-2.95l-.017.001a.2.2 0 0 0-.07-.043zm1.154 1.234c2.366 1.406 5.931 2.088 9.5 2.088s7.135-.682 9.501-2.088c-2.278 2.115-5.882 3.193-9.5 3.193s-7.223-1.078-9.501-3.193m-1.18-1.071c4.272 3.992 17.09 3.992 21.362 0-4.273 5.906-17.09 5.906-21.363 0M382.182 44.06a.2.2 0 0 0-.044.02.2.2 0 0 0-.047.012l-.002.01-.022.011a.17.17 0 0 0 .004.106.17.17 0 0 0-.016.104c2.241 3.051 6.68 4.549 11.106 4.549s8.865-1.498 11.106-4.55a.165.165 0 0 0-.245-.219c-2.134 1.964-6.497 2.986-10.861 2.986s-8.727-1.022-10.861-2.986a.2.2 0 0 0-.046-.016.2.2 0 0 0-.057-.021l-.016-.006zm1.194 1.23c2.43 1.433 6.106 2.13 9.786 2.13s7.355-.697 9.785-2.13c-2.34 2.154-6.056 3.251-9.785 3.251s-7.446-1.097-9.786-3.25m-1.188-1.065c4.39 4.039 17.557 4.039 21.947 0-4.39 5.975-17.557 5.975-21.947 0m121.796 104.013v27.202h1.19V148.24ZM262.435 9.246v27.203h1.192V9.246ZM437 148.239v27.202h1.192V148.24ZM367.998 9.246v27.203h1.191V9.246Zm-34.62 138.993v27.202h1.192V148.24ZM439.073 9.246v27.203h3.64V9.246Zm-3.64 0v27.203h1.191V9.246Zm-2.447 16.91c0-.768-.609-1.404-1.377-1.404-.769 0-1.379.636-1.379 1.405 0 .768.61 1.404 1.379 1.404.768 0 1.377-.636 1.377-1.404m0-6.62c0-.768-.609-1.404-1.377-1.404-.769 0-1.379.636-1.379 1.405 0 .768.61 1.404 1.379 1.404.768 0 1.377-.636 1.377-1.404m18.572 6.619c0-.769-.609-1.405-1.377-1.405-.769 0-1.378.636-1.378 1.405 0 .768.61 1.404 1.378 1.404s1.377-.636 1.377-1.404m0-6.62c0-.768-.609-1.404-1.377-1.404-.769 0-1.378.636-1.378 1.405 0 .768.61 1.404 1.378 1.404s1.377-.636 1.377-1.404m-6.395-10.292v27.203h1.19V9.246Zm-6.09 0v27.203h3.64V9.246Zm42.97 0v27.203h1.191V9.246Zm-73.705 69.496v27.203h1.19V78.742Zm199.268 69.497v27.202h1.191V148.24zm69.754 0v27.202H681V148.24zm-3.64 0v27.202h1.191V148.24zm-2.447 16.91c0-.768-.61-1.404-1.378-1.404-.769 0-1.378.636-1.378 1.404 0 .769.61 1.405 1.378 1.405s1.378-.636 1.378-1.405m0-6.618c0-.769-.61-1.405-1.378-1.405-.769 0-1.378.636-1.378 1.405 0 .768.61 1.404 1.378 1.404s1.378-.636 1.378-1.404M587.607 9.246v27.203h1.19V9.246ZM139.07 148.239v27.202h1.192V148.24ZM679.81 9.246v27.203H681V9.246Zm0 69.496v27.203H681V78.742Zm-67.863 0v27.203h1.19V78.742Zm-467.838 0v27.203h1.191V78.742Zm369.007 0v27.203h1.191V78.742Zm-277.418 0v27.203h1.191V78.742ZM80.647 9.246v27.203h1.191V9.246Zm162.045 138.993v27.202h1.19V148.24ZM193.974 9.246v27.203h1.191V9.246Zm146.5 69.496v27.203h1.192V78.742ZM0 174.713v.728h681v-.728zm0-6.618v.728h681v-.728zm0-6.619v.728h681v-.728zm0-6.619v.728h681v-.728zm0-6.619v.728h681v-.728zm0-43.021v.728h681v-.728zm0-6.618v.727h681V98.6zm0-6.62v.729h681v-.728zm0-6.618v.728h681v-.728zm0-6.619v.728h681v-.728Zm0-43.021v.727h681v-.727zm0-6.619v.728h681v-.728zm0-6.619v.728h681v-.728zm0-6.618v.727h681v-.727Zm0-6.619v.728h681v-.728Z"/>
</svg>
