<?xml version="1.0" encoding="utf-8"?>
<svg xmlns="http://www.w3.org/2000/svg" xmlns:svg="http://www.w3.org/2000/svg" version="1.1" viewBox="0 0 681 187">
	<title>A score 3 staves long in 6/8 time, in the key of G Major.</title>
	<path d="M340.287 145.294c0 .74.583 1.324 1.325 1.324s1.325-.583 1.325-1.325-.583-1.324-1.325-1.324-1.325.582-1.325 1.324M638.63 165.15c0 .743.582 1.325 1.325 1.325.742 0 1.324-.582 1.324-1.325 0-.742-.582-1.324-1.324-1.324s-1.325.582-1.325 1.324M277.903 82.415c0 .742.583 1.325 1.325 1.325s1.325-.583 1.325-1.325-.583-1.325-1.325-1.325-1.325.583-1.325 1.325m-67.885 0c0 .742.583 1.325 1.325 1.325s1.325-.583 1.325-1.325-.583-1.325-1.325-1.325-1.325.583-1.325 1.325m335.06 82.734c0 .743.583 1.325 1.325 1.325s1.325-.582 1.325-1.325c0-.742-.583-1.324-1.325-1.324s-1.325.582-1.325 1.324m-169.7-.004 50.103 3.31v3.317l-50.103-3.31zm-19.134-56.255h35.011v3.31h-35.01zm-209.666-6.62 35.012 1.654v3.313l-35.012-1.654zm323.538 4.964 35.01 1.655v3.312l-35.01-1.654zM450.247 2.99h41.826v3.31h-41.827zM575.401 112.2h35.012v3.31H575.4zm-525.52 66.183 50.103 3.309v3.317L49.88 181.7zm577.044-72.802h35.012v3.31h-35.012zm-219.157-1.655h35.012v3.31h-35.012zm51.235 72.805 50.102 1.655v3.31l-50.102-1.654zM154.277 2.99l41.827 1.655v3.311l-41.827-1.654zm471.726 0 41.827 1.655v3.311l-41.827-1.654zM46.657 28.195c-1.8-.583-3.789-1.458-3.789-2.65 0-1.033.955-1.458 2.094-1.458 1.643 0 2.755.769 2.755 1.988 0 1.272-.582 1.881-1.06 2.12m-1.695 6.28c-1.696 0-3.153-.928-3.153-2.412 0-1.775 1.377-2.199 1.377-2.199 1.802.61 4.373 1.51 4.373 2.968 0 .715-.928 1.643-2.597 1.643m3.18-5.564c.874-.663 1.484-1.51 1.484-2.57 0-1.909-2.094-3.472-4.664-3.472s-4.664 1.563-4.664 3.471c0 1.06.265 2.014 1.51 2.808-1.191.69-1.854 1.67-1.854 2.943 0 2.146 2.252 3.868 5.008 3.868 2.755 0 5.008-1.722 5.008-3.868 0-1.273-.45-2.465-1.828-3.18M45.2 21.726c-.875 0-1.59-1.192-1.59-2.676s.715-2.703 1.59-2.703c.874 0 1.616 1.219 1.616 2.703s-.742 2.676-1.616 2.676m.98-6.625c-1.616 0-2.2.477-2.57.875-.08-.557-.132-.98-.132-1.405 0-1.51.53-3.47 2.385-3.47.662 0 1.06.211 1.324.503-.557.238-1.007.954-1.007 1.563 0 .954.742 1.696 1.696 1.696s1.723-.742 1.723-1.696v-.08c0-.238-.054-.635-.16-.847-.344-.954-1.457-2.359-4.106-2.359-2.385 0-4.108 2.28-4.638 3.498a9.4 9.4 0 0 0-.662 3.418c0 1.617.45 3.445 2.013 4.823 1.537 1.166 2.518 1.219 3.445 1.219.928 0 4.4-1.087 4.4-4.16 0-2.597-2.041-3.578-3.71-3.578M28.94 77.145l2.358-.477v4.373l-2.358.503zm4.107-.821c.16-.026.292-.212.292-.372V74.39a.363.363 0 0 0-.371-.372h-.054l-.874.186v-3.948H31.3v4.107l-2.358.477v-3.736h-.742v3.895l-1.033.212c-.16.027-.292.212-.292.37v1.538c0 .212.159.37.371.37h.08l.874-.184v4.371l-1.033.213c-.16.026-.292.212-.292.37v1.537c0 .212.159.37.371.37h.08l.874-.184v3.948h.742v-4.107l2.358-.477v3.736h.742v-3.895l1.007-.186c.16-.026.292-.212.292-.37v-1.564a.363.363 0 0 0-.371-.371h-.054l-.874.185V76.51zM28.941 7.649l2.358-.477v4.372l-2.358.504zm4.107-.821c.16-.027.292-.212.292-.371V4.893a.36.36 0 0 0-.371-.37h-.054l-.874.185V.759H31.3v4.108l-2.358.477V1.607h-.742v3.896l-1.033.212c-.16.026-.292.212-.292.37v1.537c0 .212.159.371.371.371h.08l.874-.185v4.372l-1.033.212c-.16.027-.292.212-.292.371V14.3c0 .212.159.371.371.371h.08l.874-.185v3.948h.742v-4.107l2.358-.477v3.736h.742V13.69l1.007-.186c.16-.026.292-.212.292-.37V11.57a.36.36 0 0 0-.371-.371h-.054l-.874.185V7.013zm-4.107 139.814 2.358-.477v4.372l-2.358.504zm4.107-.82c.16-.027.292-.213.292-.371v-1.564a.363.363 0 0 0-.371-.371h-.054l-.874.185v-3.948H31.3v4.108l-2.358.476V140.6h-.742v3.895l-1.033.212c-.16.027-.292.213-.292.371v1.537c0 .212.159.37.371.37h.08l.874-.184v4.372l-1.033.212c-.16.026-.292.212-.292.37v1.538c0 .212.159.371.371.371h.08l.874-.186v3.949h.742v-4.108l2.358-.477v3.737h.742v-3.896l1.007-.185c.16-.027.292-.213.292-.371v-1.563a.363.363 0 0 0-.371-.372h-.054l-.874.186v-4.372zm-16.955 28.097a7.7 7.7 0 0 1-1.537.16c-3.789 0-7.022-2.65-7.022-6.652 0-3.233 2.28-6.12 4.611-8.135.45-.398.875-.768 1.272-1.165.238 1.43.424 2.676.61 3.762-2.412.715-4.055 3.26-4.055 5.75 0 1.855 1.458 4.399 3.577 4.399.212 0 .45-.106.45-.344 0-.239-.264-.372-.582-.583-1.033-.637-1.616-1.325-1.616-2.624 0-1.616 1.192-2.914 2.755-3.286zm-2.332-27.24c.239-1.06 1.458-3.842 2.836-3.842.397 0 1.033 1.299 1.033 3.127 0 2.755-2.04 4.822-3.869 6.624-.159-1.06-.291-2.093-.291-3.206 0-.98.08-1.882.291-2.703m6.095 22.338c0 1.882-.768 3.816-2.65 4.584a882 882 0 0 1-1.457-8.558c2.385 0 4.107 1.616 4.107 3.974m-11.66 13.037c0 1.749 1.352 4.054 4.93 4.054 1.245 0 2.331-.318 3.285-.9 1.431-1.007 1.802-2.757 1.802-4.426 0-1.033-.159-2.225-.424-3.736-.08-.53-.238-1.325-.397-2.358 2.597-.848 4.53-3.55 4.53-6.28 0-4.002-2.834-6.704-6.703-6.704-.265-1.59-.53-3.154-.769-4.637 2.81-2.942 4.744-6.254 4.744-10.467 0-2.412-.742-4.372-1.166-5.326-.636-1.352-1.405-2.28-1.882-2.28-.185 0-1.007.319-1.881 1.352-1.696 2.014-2.173 5.406-2.173 7.631 0 1.432.133 2.73.583 5.698-.026.026-1.404 1.43-1.96 1.881-2.412 2.252-5.75 5.458-5.75 10.758 0 4.955 4.318 8.85 9.247 8.85.768 0 1.484-.079 2.093-.185.504 2.544.795 4.399.795 5.803 0 2.756-1.404 4.213-4.08 4.213-.636 0-1.193-.132-1.246-.132-.026-.027-.08-.053-.08-.08 0-.053.054-.079.133-.105 1.246-.186 2.49-1.246 2.49-2.942 0-1.431-1.085-2.94-3.073-2.94-1.855 0-3.047 1.509-3.047 3.258m7.896-77.631a7.7 7.7 0 0 1-1.537.159c-3.789 0-7.022-2.65-7.022-6.65 0-3.234 2.28-6.122 4.611-8.136.45-.398.875-.769 1.272-1.166.238 1.43.424 2.677.61 3.763-2.412.715-4.055 3.259-4.055 5.75 0 1.854 1.458 4.398 3.577 4.398.212 0 .451-.105.451-.344 0-.238-.265-.371-.583-.583-1.033-.636-1.616-1.325-1.616-2.623 0-1.616 1.192-2.915 2.755-3.286zm-2.332-27.24c.239-1.06 1.458-3.842 2.836-3.842.397 0 1.033 1.298 1.033 3.127 0 2.755-2.04 4.822-3.869 6.624-.159-1.06-.291-2.093-.291-3.206 0-.98.08-1.882.291-2.703m6.095 22.338c0 1.881-.768 3.815-2.65 4.584a882 882 0 0 1-1.457-8.559c2.385 0 4.107 1.617 4.107 3.975m-11.66 13.037c0 1.748 1.352 4.054 4.93 4.054 1.245 0 2.331-.318 3.285-.9 1.431-1.008 1.802-2.757 1.802-4.426 0-1.034-.159-2.226-.424-3.736-.08-.53-.238-1.325-.397-2.359 2.597-.847 4.53-3.55 4.53-6.28 0-4.001-2.834-6.704-6.703-6.704-.265-1.59-.53-3.153-.769-4.637 2.81-2.942 4.744-6.253 4.744-10.467 0-2.411-.742-4.372-1.166-5.326-.636-1.351-1.405-2.279-1.882-2.279-.185 0-1.007.319-1.881 1.351-1.696 2.015-2.173 5.406-2.173 7.632 0 1.431.133 2.73.583 5.698-.026.026-1.404 1.43-1.96 1.88-2.412 2.253-5.75 5.459-5.75 10.759 0 4.955 4.318 8.85 9.247 8.85.768 0 1.484-.079 2.093-.185.504 2.544.795 4.399.795 5.803 0 2.755-1.404 4.213-4.08 4.213-.636 0-1.193-.133-1.246-.133-.026-.026-.08-.053-.08-.08 0-.052.054-.078.133-.105 1.246-.185 2.49-1.245 2.49-2.941 0-1.431-1.085-2.941-3.073-2.941-1.855 0-3.047 1.51-3.047 3.259m7.896-77.632a7.7 7.7 0 0 1-1.537.16c-3.789 0-7.022-2.65-7.022-6.651 0-3.234 2.28-6.122 4.611-8.135.45-.398.875-.769 1.272-1.166.238 1.43.424 2.676.61 3.762-2.412.716-4.055 3.26-4.055 5.75 0 1.855 1.458 4.4 3.577 4.4.212 0 .451-.107.451-.345 0-.239-.265-.372-.583-.583-1.033-.636-1.616-1.325-1.616-2.623 0-1.617 1.192-2.915 2.755-3.287zm-2.332-27.24c.239-1.06 1.458-3.842 2.836-3.842.397 0 1.033 1.299 1.033 3.127 0 2.756-2.04 4.823-3.869 6.625-.159-1.06-.291-2.094-.291-3.207 0-.98.08-1.881.291-2.703m6.095 22.339c0 1.881-.768 3.815-2.65 4.584a882 882 0 0 1-1.457-8.559c2.385 0 4.107 1.616 4.107 3.975M8.196 43.06c0 1.748 1.352 4.054 4.93 4.054 1.245 0 2.331-.318 3.285-.901 1.431-1.007 1.802-2.756 1.802-4.425 0-1.034-.159-2.226-.424-3.737-.08-.53-.238-1.325-.397-2.358 2.597-.848 4.53-3.55 4.53-6.28 0-4.001-2.834-6.704-6.703-6.704-.265-1.59-.53-3.153-.769-4.637 2.81-2.942 4.744-6.254 4.744-10.467 0-2.411-.742-4.372-1.166-5.326C17.392.927 16.623 0 16.146 0c-.185 0-1.007.318-1.881 1.351-1.696 2.014-2.173 5.406-2.173 7.632 0 1.43.133 2.73.583 5.697-.026.026-1.404 1.43-1.96 1.881-2.412 2.253-5.75 5.459-5.75 10.758 0 4.956 4.318 8.851 9.247 8.851.768 0 1.484-.08 2.093-.186.504 2.545.795 4.4.795 5.804 0 2.755-1.404 4.213-4.08 4.213-.636 0-1.193-.133-1.246-.133-.026-.026-.08-.053-.08-.08 0-.052.054-.079.133-.105 1.246-.186 2.49-1.246 2.49-2.941 0-1.432-1.085-2.941-3.073-2.941-1.855 0-3.047 1.51-3.047 3.259m433.921 43.778c0 1.14.822 2.41 2.968 2.41 2.756 0 5.644-2.251 5.644-4.583 0-1.564-1.325-2.438-2.968-2.438-2.57 0-5.644 2.173-5.644 4.61M248.421 17.342c0 1.14.821 2.412 2.968 2.412 2.756 0 5.644-2.253 5.644-4.584 0-1.564-1.325-2.438-2.967-2.438-2.57 0-5.645 2.173-5.645 4.61m107.823 69.497c0 1.14.822 2.41 2.968 2.41 2.755 0 5.644-2.251 5.644-4.583 0-1.564-1.325-2.438-2.968-2.438-2.57 0-5.644 2.173-5.644 4.61m19.134 59.57c0 1.138.822 2.41 2.968 2.41 2.755 0 5.644-2.252 5.644-4.583 0-1.564-1.325-2.439-2.968-2.439-2.57 0-5.644 2.174-5.644 4.611M269.004 17.341c0 1.14.821 2.412 2.968 2.412 2.756 0 5.644-2.253 5.644-4.584 0-1.564-1.325-2.438-2.968-2.438-2.57 0-5.644 2.173-5.644 4.61m155.814 135.683c0 1.14.822 2.412 2.968 2.412 2.756 0 5.644-2.252 5.644-4.584 0-1.564-1.325-2.438-2.968-2.438-2.57 0-5.644 2.173-5.644 4.61m-96.445-6.618c0 1.14.82 2.412 2.967 2.412 2.756 0 5.644-2.253 5.644-4.584 0-1.564-1.325-2.439-2.968-2.439-2.57 0-5.643 2.174-5.643 4.611M217.547 17.341c0 1.14.821 2.412 2.968 2.412 2.756 0 5.644-2.253 5.644-4.584 0-1.564-1.324-2.438-2.968-2.438-2.57 0-5.644 2.173-5.644 4.61m82.33-9.928c0 1.14.822 2.412 2.968 2.412 2.757 0 5.645-2.253 5.645-4.584 0-1.564-1.325-2.438-2.968-2.438-2.57 0-5.644 2.173-5.644 4.61m30.048 3.31c0 1.14.82 2.411 2.967 2.411 2.756 0 5.644-2.252 5.644-4.584 0-1.563-1.325-2.438-2.968-2.438-2.57 0-5.643 2.173-5.643 4.61m-35.738 145.612c0 1.14.82 2.411 2.967 2.411 2.756 0 5.645-2.252 5.645-4.584 0-1.563-1.325-2.438-2.969-2.438-2.57 0-5.643 2.173-5.643 4.61m-53.962-69.495c0 1.14.822 2.41 2.968 2.41 2.756 0 5.644-2.251 5.644-4.583 0-1.564-1.325-2.438-2.967-2.438-2.571 0-5.645 2.173-5.645 4.61m133.193 6.62c0 1.139.822 2.41 2.968 2.41 2.755 0 5.644-2.251 5.644-4.583 0-1.564-1.325-2.438-2.968-2.438-2.57 0-5.644 2.173-5.644 4.61m-116.312 52.95c0 1.14.822 2.412 2.968 2.412 2.756 0 5.644-2.253 5.644-4.584 0-1.564-1.325-2.439-2.967-2.439-2.57 0-5.645 2.174-5.645 4.611M360.799 14.032c0 1.14.822 2.411 2.968 2.411 2.756 0 5.645-2.252 5.645-4.584 0-1.563-1.325-2.438-2.969-2.438-2.57 0-5.644 2.173-5.644 4.611M232.387 156.334c0 1.14.822 2.411 2.968 2.411 2.756 0 5.644-2.252 5.644-4.584 0-1.563-1.325-2.438-2.967-2.438-2.571 0-5.645 2.173-5.645 4.61M381.382 17.342c0 1.14.822 2.412 2.968 2.412 2.755 0 5.644-2.253 5.644-4.584 0-1.564-1.325-2.438-2.968-2.438-2.57 0-5.644 2.173-5.644 4.61M187.5 30.58c0 1.14.822 2.411 2.968 2.411 2.755 0 5.644-2.252 5.644-4.584 0-1.563-1.325-2.438-2.968-2.438-2.57 0-5.644 2.173-5.644 4.611m7.807 115.827c0 1.14.821 2.412 2.968 2.412 2.755 0 5.644-2.253 5.644-4.584 0-1.564-1.325-2.439-2.968-2.439-2.57 0-5.644 2.174-5.644 4.611m195.286-56.259c0 1.14.822 2.411 2.969 2.411 2.755 0 5.644-2.252 5.644-4.584 0-1.563-1.325-2.437-2.968-2.437-2.57 0-5.645 2.172-5.645 4.61m21.663-69.496c0 1.14.822 2.411 2.968 2.411 2.756 0 5.644-2.252 5.644-4.584 0-1.563-1.325-2.438-2.968-2.438-2.57 0-5.644 2.173-5.644 4.61m30.048 3.31c0 1.14.821 2.411 2.968 2.411 2.755 0 5.643-2.252 5.643-4.584 0-1.563-1.324-2.438-2.967-2.438-2.57 0-5.644 2.173-5.644 4.611M161.122 156.334c0 1.14.822 2.411 2.968 2.411 2.756 0 5.644-2.252 5.644-4.584 0-1.563-1.325-2.438-2.968-2.438-2.57 0-5.644 2.173-5.644 4.61m5.795-129.063c0 1.139.822 2.41 2.968 2.41 2.755 0 5.644-2.252 5.644-4.583 0-1.564-1.325-2.438-2.968-2.438-2.57 0-5.644 2.173-5.644 4.61m31.186 56.26c0 1.14.822 2.411 2.968 2.411 2.756 0 5.644-2.253 5.644-4.585 0-1.563-1.325-2.437-2.968-2.437-2.57 0-5.644 2.172-5.644 4.61m-74.061 79.425c0 1.139.822 2.411 2.968 2.411 2.756 0 5.644-2.252 5.644-4.584 0-1.563-1.325-2.438-2.968-2.438-2.57 0-5.644 2.173-5.644 4.61M462.886 27.27c0 1.139.822 2.41 2.969 2.41 2.755 0 5.643-2.252 5.643-4.583 0-1.564-1.325-2.438-2.967-2.438-2.57 0-5.645 2.173-5.645 4.61M99.321 166.263c0 1.14.822 2.411 2.969 2.411 2.755 0 5.644-2.251 5.644-4.583 0-1.564-1.325-2.438-2.968-2.438-2.57 0-5.645 2.173-5.645 4.61M483.47 23.96c0 1.14.821 2.411 2.968 2.411 2.756 0 5.644-2.252 5.644-4.584 0-1.563-1.325-2.438-2.968-2.438-2.57 0-5.644 2.173-5.644 4.611M74.6 162.953c0 1.139.822 2.411 2.969 2.411 2.755 0 5.644-2.252 5.644-4.584 0-1.563-1.325-2.438-2.968-2.438-2.57 0-5.645 2.173-5.645 4.61M504.051 30.58c0 1.14.822 2.411 2.968 2.411 2.757 0 5.644-2.252 5.644-4.584 0-1.563-1.325-2.438-2.967-2.438-2.57 0-5.644 2.173-5.644 4.611m-45.049 125.755c0 1.14.822 2.411 2.968 2.411 2.756 0 5.644-2.252 5.644-4.584 0-1.563-1.325-2.438-2.968-2.438-2.57 0-5.644 2.173-5.644 4.61m-409.122 3.31c0 1.14.822 2.412 2.968 2.412 2.756 0 5.645-2.252 5.645-4.584 0-1.564-1.325-2.438-2.968-2.438-2.57 0-5.645 2.173-5.645 4.61m357.887-72.805c0 1.14.822 2.41 2.968 2.41 2.756 0 5.645-2.251 5.645-4.583 0-1.564-1.325-2.438-2.968-2.438-2.57 0-5.645 2.173-5.645 4.61m75.956 72.806c0 1.14.82 2.412 2.967 2.412 2.756 0 5.644-2.252 5.644-4.584 0-1.564-1.325-2.438-2.968-2.438-2.57 0-5.643 2.173-5.643 4.61M146.334 23.96c0 1.14.822 2.411 2.968 2.411 2.756 0 5.644-2.252 5.644-4.584 0-1.563-1.325-2.438-2.968-2.438-2.57 0-5.644 2.173-5.644 4.611m388.592 16.547c0 1.14.821 2.41 2.967 2.41 2.757 0 5.645-2.251 5.645-4.583 0-1.563-1.325-2.438-2.968-2.438-2.57 0-5.644 2.173-5.644 4.61m31.678-9.927c0 1.14.822 2.411 2.968 2.411 2.755 0 5.644-2.252 5.644-4.584 0-1.563-1.325-2.438-2.968-2.438-2.57 0-5.644 2.173-5.644 4.611m-58.16 132.374c0 1.139.821 2.411 2.967 2.411 2.756 0 5.644-2.252 5.644-4.584 0-1.563-1.325-2.438-2.968-2.438-2.57 0-5.643 2.173-5.643 4.61m152.831-72.805c0 1.14.822 2.411 2.968 2.411 2.756 0 5.644-2.252 5.644-4.584 0-1.563-1.325-2.437-2.968-2.437-2.57 0-5.644 2.172-5.644 4.61M597.478 27.27c0 1.139.821 2.41 2.968 2.41 2.755 0 5.644-2.252 5.644-4.583 0-1.564-1.325-2.438-2.968-2.438-2.57 0-5.644 2.173-5.644 4.61M644.1 86.839c0 1.14.822 2.41 2.968 2.41 2.756 0 5.645-2.251 5.645-4.583 0-1.564-1.325-2.438-2.969-2.438-2.57 0-5.644 2.173-5.644 4.61M618.061 23.96c0 1.14.821 2.411 2.968 2.411 2.755 0 5.643-2.252 5.643-4.584 0-1.563-1.324-2.438-2.967-2.438-2.57 0-5.644 2.173-5.644 4.611m-492.31 3.31c0 1.139.822 2.41 2.968 2.41 2.756 0 5.645-2.252 5.645-4.583 0-1.564-1.325-2.438-2.969-2.438-2.57 0-5.643 2.173-5.643 4.61m501.173 62.878c0 1.14.822 2.411 2.968 2.411 2.756 0 5.645-2.252 5.645-4.584 0-1.563-1.325-2.437-2.968-2.437-2.57 0-5.645 2.172-5.645 4.61m-93.761 76.115c0 1.14.821 2.411 2.967 2.411 2.756 0 5.644-2.251 5.644-4.583 0-1.564-1.325-2.438-2.967-2.438-2.571 0-5.644 2.173-5.644 4.61m76.587-72.806c0 1.14.822 2.412 2.968 2.412 2.755 0 5.644-2.252 5.644-4.584 0-1.564-1.325-2.438-2.968-2.438-2.57 0-5.644 2.173-5.644 4.61m28.892-66.186c0 1.139.821 2.41 2.968 2.41 2.756 0 5.644-2.252 5.644-4.583 0-1.564-1.325-2.438-2.967-2.438-2.57 0-5.645 2.173-5.645 4.61m-46.067 69.497c0 1.14.822 2.411 2.968 2.411 2.755 0 5.644-2.253 5.644-4.584 0-1.563-1.325-2.438-2.968-2.438-2.57 0-5.644 2.173-5.644 4.61m66.65-66.186c0 1.14.821 2.411 2.968 2.411 2.756 0 5.644-2.252 5.644-4.584 0-1.563-1.325-2.438-2.968-2.438-2.57 0-5.644 2.173-5.644 4.611M265.988 86.838c0 1.14.822 2.41 2.968 2.41 2.756 0 5.645-2.251 5.645-4.583 0-1.564-1.325-2.438-2.969-2.438-2.57 0-5.644 2.173-5.644 4.61m309.413 3.31c0 1.14.822 2.411 2.968 2.411 2.756 0 5.644-2.252 5.644-4.584 0-1.563-1.325-2.437-2.968-2.437-2.57 0-5.644 2.172-5.644 4.61M94.878 30.579c0 1.14.821 2.411 2.967 2.411 2.757 0 5.644-2.252 5.644-4.584 0-1.563-1.325-2.438-2.967-2.438-2.57 0-5.644 2.173-5.644 4.611m-31.679 9.928c0 1.14.822 2.41 2.969 2.41 2.755 0 5.643-2.251 5.643-4.583 0-1.563-1.324-2.438-2.967-2.438-2.57 0-5.645 2.173-5.645 4.61M49.881 86.839c0 1.14.822 2.41 2.968 2.41 2.756 0 5.645-2.251 5.645-4.583 0-1.564-1.325-2.438-2.968-2.438-2.57 0-5.645 2.173-5.645 4.61m497.522 3.31c0 1.14.821 2.411 2.968 2.411 2.756 0 5.644-2.252 5.644-4.584 0-1.563-1.325-2.437-2.968-2.437-2.57 0-5.644 2.172-5.644 4.61m-366.475-3.31c0 1.14.822 2.412 2.968 2.412 2.756 0 5.645-2.252 5.645-4.584 0-1.564-1.325-2.438-2.969-2.438-2.57 0-5.644 2.173-5.644 4.61m244.015-3.309c0 1.14.822 2.412 2.968 2.412 2.756 0 5.645-2.253 5.645-4.585 0-1.563-1.325-2.437-2.969-2.437-2.57 0-5.644 2.172-5.644 4.61m96.698 6.619c0 1.14.821 2.411 2.967 2.411 2.757 0 5.645-2.252 5.645-4.584 0-1.563-1.325-2.437-2.968-2.437-2.57 0-5.644 2.172-5.644 4.61m-445.997-3.31c0 1.14.821 2.412 2.967 2.412 2.757 0 5.645-2.252 5.645-4.584 0-1.564-1.325-2.438-2.968-2.438-2.57 0-5.644 2.173-5.644 4.61m428.822 6.62c0 1.139.821 2.41 2.968 2.41 2.756 0 5.644-2.251 5.644-4.583 0-1.564-1.325-2.438-2.968-2.438-2.57 0-5.644 2.173-5.644 4.61M92.819 86.838c0 1.14.821 2.41 2.967 2.41 2.756 0 5.644-2.251 5.644-4.583 0-1.564-1.325-2.438-2.967-2.438-2.571 0-5.644 2.173-5.644 4.61m394.473 3.31c0 1.14.82 2.411 2.967 2.411 2.756 0 5.644-2.252 5.644-4.584 0-1.563-1.325-2.437-2.968-2.437-2.57 0-5.643 2.172-5.643 4.61m-323.538-6.619c0 1.14.82 2.412 2.967 2.412 2.756 0 5.645-2.253 5.645-4.585 0-1.563-1.325-2.437-2.968-2.437-2.57 0-5.644 2.172-5.644 4.61m425.88 86.044c0 1.139.82 2.41 2.968 2.41 2.755 0 5.644-2.252 5.644-4.583 0-1.563-1.325-2.438-2.968-2.438-2.57 0-5.644 2.173-5.644 4.61M470.117 86.839c0 1.14.821 2.41 2.967 2.41 2.756 0 5.644-2.251 5.644-4.583 0-1.564-1.325-2.438-2.968-2.438-2.57 0-5.643 2.173-5.643 4.61M118.58 76.91c0 1.14.821 2.411 2.968 2.411 2.755 0 5.644-2.253 5.644-4.584 0-1.563-1.325-2.438-2.968-2.438-2.57 0-5.644 2.173-5.644 4.61m27.998 3.31c0 1.14.822 2.412 2.968 2.412 2.756 0 5.644-2.253 5.644-4.585 0-1.564-1.325-2.438-2.968-2.438-2.57 0-5.644 2.173-5.644 4.611m480.135 89.353c0 1.139.821 2.41 2.968 2.41 2.755 0 5.644-2.252 5.644-4.583 0-1.563-1.325-2.438-2.968-2.438-2.57 0-5.644 2.173-5.644 4.61m-226.616-19.855c0 1.139.822 2.411 2.968 2.411 2.755 0 5.644-2.253 5.644-4.585 0-1.562-1.325-2.437-2.968-2.437-2.57 0-5.644 2.172-5.644 4.61m-71.852-62.877c0 1.14.821 2.41 2.968 2.41 2.756 0 5.644-2.251 5.644-4.583 0-1.564-1.325-2.438-2.968-2.438-2.57 0-5.644 2.173-5.644 4.61m219.157 23.682c0 .185.16.344.344.344.133 0 .292-.106.318-.212 0-.027.239-.954.265-1.033.027-.107.265-1.114 1.22-2.677 1.033-1.722 2.623-2.968 3.948-4.823 1.298-1.854 2.093-3.603 2.093-5.935 0-2.411-.556-4.425-1.961-6.996-.08-.185-.238-.291-.397-.291-.053 0-.106 0-.133.026-.132.054-.185.16-.185.319 0 .079.026.211.08.318 1.06 2.464 1.483 3.868 1.483 5.776 0 2.2-.768 3.339-1.245 4.16-1.723 2.941-4.505 4.373-5.618 4.743-.185.08-.212.212-.212.292zm-471.76-1.655c0 .186.16.344.345.344.133 0 .291-.106.319-.211 0-.028.237-.955.265-1.034.026-.106.265-1.113 1.218-2.676 1.033-1.723 2.623-2.968 3.948-4.823 1.299-1.855 2.094-3.604 2.094-5.936 0-2.41-.557-4.425-1.96-6.995-.08-.186-.24-.292-.399-.292-.053 0-.105 0-.132.027-.133.053-.186.159-.186.318a.8.8 0 0 0 .08.318c1.06 2.464 1.484 3.869 1.484 5.777 0 2.199-.769 3.338-1.246 4.16-1.722 2.941-4.504 4.372-5.617 4.742-.186.08-.212.213-.212.292zM605.42 10.66c0 .08.027.212.212.291 1.14.371 3.419 1.802 5.14 4.744.478.821 1.246 1.96 1.246 4.16 0 1.908-.503 3.869-1.192 5.776-.053.159-.106.292-.08.398 0 .159.107.265.265.265.186 0 .318-.106.425-.292 1.192-2.12 1.642-4.584 1.642-6.995-.133-3.418-2.093-5.936-2.093-5.936.08 0-2.438-3.26-3.153-4.372-.981-1.51-1.431-3.02-1.484-3.127a57 57 0 0 1-.265-1.033c-.027-.106-.16-.212-.318-.212a.35.35 0 0 0-.345.344zm-62.552 11.583c0 .08.026.212.212.291 1.14.371 3.418 1.802 5.141 4.743.476.822 1.245 1.961 1.245 4.16 0 1.909-.504 3.87-1.192 5.777-.053.16-.106.291-.08.398 0 .158.106.265.265.265.186 0 .319-.107.424-.292 1.193-2.12 1.643-4.584 1.643-6.996-.132-3.418-2.093-5.935-2.093-5.935.08 0-2.438-3.26-3.154-4.372-.98-1.51-1.43-3.021-1.483-3.127-.027-.08-.265-1.033-.265-1.033-.027-.106-.16-.212-.318-.212a.35.35 0 0 0-.345.344zM161.122 178.36c0 .186.16.344.344.344.133 0 .292-.105.318-.211 0-.027.239-.954.265-1.033.027-.107.265-1.114 1.22-2.677 1.033-1.723 2.623-2.968 3.948-4.823 1.298-1.855 2.093-3.603 2.093-5.935 0-2.412-.556-4.426-1.961-6.995-.08-.186-.238-.293-.397-.293-.053 0-.106 0-.133.028-.132.052-.185.158-.185.317 0 .08.026.212.08.318 1.06 2.464 1.483 3.87 1.483 5.777 0 2.199-.768 3.338-1.245 4.16-1.723 2.942-4.505 4.372-5.618 4.743-.185.08-.212.212-.212.291zM412.256 41.021c0 .186.16.344.345.344.132 0 .29-.105.317-.212 0-.026.239-.953.265-1.032.027-.107.265-1.114 1.22-2.677 1.033-1.722 2.623-2.968 3.948-4.823 1.298-1.855 2.093-3.603 2.093-5.935 0-2.411-.556-4.426-1.961-6.996-.08-.185-.238-.291-.397-.291-.053 0-.106 0-.133.026-.132.053-.185.16-.185.318a.8.8 0 0 0 .08.318c1.06 2.464 1.484 3.869 1.484 5.777 0 2.2-.769 3.338-1.246 4.16-1.723 2.94-4.505 4.372-5.618 4.743-.185.08-.212.212-.212.291zM232.386 178.36c0 .186.16.344.346.344.132 0 .291-.105.318-.211 0-.027.238-.954.265-1.033.026-.107.265-1.114 1.219-2.677 1.033-1.723 2.623-2.968 3.947-4.823 1.299-1.855 2.094-3.603 2.094-5.935 0-2.412-.556-4.426-1.96-6.995-.08-.186-.24-.293-.399-.293-.052 0-.105 0-.132.028-.133.052-.185.158-.185.317 0 .08.026.212.08.318 1.06 2.464 1.483 3.87 1.483 5.777 0 2.199-.768 3.338-1.246 4.16-1.722 2.942-4.504 4.372-5.617 4.743-.185.08-.212.212-.212.291zm61.8 0c0 .185.16.343.345.343.133 0 .291-.105.318-.211 0-.027.238-.954.265-1.034.027-.106.265-1.113 1.219-2.676 1.033-1.723 2.623-2.968 3.948-4.823 1.299-1.855 2.093-3.603 2.093-5.935 0-2.412-.556-4.426-1.96-6.995-.08-.186-.239-.293-.398-.293-.053 0-.106 0-.132.028-.133.052-.186.158-.186.317 0 .08.027.212.08.318 1.06 2.464 1.484 3.87 1.484 5.777 0 2.199-.769 3.338-1.246 4.16-1.722 2.942-4.505 4.372-5.617 4.743-.186.08-.212.212-.212.291zm66.611-142.303c0 .186.16.344.345.344.133 0 .291-.105.318-.211 0-.027.238-.954.265-1.034.027-.106.265-1.112 1.219-2.676 1.033-1.723 2.623-2.968 3.948-4.823 1.299-1.855 2.093-3.603 2.093-5.935 0-2.412-.556-4.426-1.96-6.996-.08-.185-.239-.291-.398-.291-.053 0-.106 0-.132.026-.133.053-.186.16-.186.318a.8.8 0 0 0 .08.318c1.06 2.464 1.484 3.869 1.484 5.777 0 2.199-.769 3.338-1.246 4.16-1.722 2.941-4.505 4.372-5.617 4.743-.186.08-.212.212-.212.292zm-60.922-6.619c0 .186.16.345.345.345.132 0 .291-.106.318-.212 0-.026.238-.954.265-1.034.026-.105.265-1.112 1.218-2.676 1.034-1.723 2.624-2.968 3.948-4.822 1.299-1.855 2.094-3.604 2.094-5.936 0-2.411-.557-4.425-1.96-6.996-.08-.185-.24-.291-.399-.291-.052 0-.105 0-.132.026-.133.053-.185.16-.185.318a.8.8 0 0 0 .079.318c1.06 2.465 1.484 3.87 1.484 5.777 0 2.2-.768 3.339-1.245 4.16-1.722 2.941-4.505 4.372-5.618 4.743-.186.08-.212.213-.212.292zm-51.457 9.928c0 .186.16.345.345.345.132 0 .292-.106.318-.212 0-.027.239-.954.265-1.033.026-.107.265-1.114 1.218-2.677 1.034-1.722 2.624-2.968 3.949-4.823 1.298-1.855 2.093-3.603 2.093-5.935 0-2.411-.556-4.425-1.96-6.996-.08-.185-.239-.291-.398-.291-.053 0-.106 0-.132.027-.133.053-.186.159-.186.317a.8.8 0 0 0 .08.318c1.06 2.465 1.483 3.87 1.483 5.777 0 2.2-.768 3.339-1.245 4.16-1.722 2.941-4.505 4.373-5.618 4.743-.185.08-.212.212-.212.292zM133.694 10.661c0 .08.027.212.212.291 1.14.371 3.418 1.802 5.141 4.744.476.821 1.245 1.96 1.245 4.16 0 1.908-.504 3.869-1.192 5.776-.053.159-.107.292-.08.398 0 .159.106.265.266.265.185 0 .317-.106.423-.292 1.193-2.12 1.643-4.584 1.643-6.995-.132-3.418-2.094-5.936-2.094-5.936.08 0-2.437-3.26-3.152-4.372-.98-1.51-1.432-3.02-1.484-3.127-.027-.08-.265-1.033-.265-1.033-.027-.106-.16-.212-.318-.212a.35.35 0 0 0-.345.344zM71.142 22.244c0 .08.027.212.212.291 1.14.371 3.418 1.802 5.14 4.743.478.822 1.246 1.961 1.246 4.16 0 1.909-.503 3.87-1.193 5.777-.052.16-.105.291-.079.398 0 .158.106.265.265.265.186 0 .318-.107.424-.292 1.193-2.12 1.643-4.584 1.643-6.996-.133-3.418-2.093-5.935-2.093-5.935.079 0-2.438-3.26-3.154-4.372-.98-1.51-1.43-3.021-1.484-3.127-.026-.08-.265-1.033-.265-1.033-.026-.106-.158-.212-.318-.212a.35.35 0 0 0-.344.344zm47.439 76.691a.35.35 0 0 0 .344.345c.132 0 .292-.106.318-.212 0-.026.239-.954.265-1.033.026-.106.265-1.113 1.22-2.676 1.033-1.723 2.623-2.968 3.948-4.823 1.298-1.855 2.093-3.604 2.093-5.936 0-2.411-.557-4.425-1.961-6.995-.08-.186-.239-.292-.397-.292-.054 0-.107 0-.133.027-.132.053-.186.16-.186.318a.8.8 0 0 0 .08.317c1.06 2.465 1.483 3.87 1.483 5.777 0 2.2-.768 3.34-1.244 4.16-1.723 2.942-4.505 4.372-5.619 4.744-.185.08-.211.212-.211.291zm209.665 9.929c0 .186.16.344.344.344.133 0 .292-.106.318-.211 0-.028.239-.955.265-1.034.027-.106.265-1.113 1.22-2.676 1.033-1.723 2.623-2.968 3.948-4.823 1.298-1.855 2.093-3.604 2.093-5.936 0-2.41-.556-4.425-1.961-6.995-.08-.186-.238-.292-.397-.292-.053 0-.106 0-.133.027-.132.053-.185.159-.185.318 0 .08.026.212.08.318 1.059 2.464 1.483 3.869 1.483 5.777 0 2.199-.768 3.338-1.245 4.16-1.723 2.941-4.505 4.372-5.618 4.742-.186.08-.212.213-.212.292zm-95.859 47.47v22.026h.662v-22.027ZM195.442 6.286v22.12h.662V6.287Zm22.105 11.053v22.054h.663V17.34Zm241.456 138.993v22.065h.662v-22.065ZM328.246 86.837v22.027h.662V86.837Zm96.572 66.187v17.067h.662v-17.067Zm-68.574-66.187v23.708h.662V86.837Zm-90.255 0v22.053h.662V86.837Zm107.43 6.619v17.089h.662v-17.09Zm-133.193-6.62v22.054h.662V86.837Zm8.195-69.496v22.028h.662V17.34Zm386.236 127.954V167.4h.662v-22.106ZM390.594 90.146v20.399h.662V90.146Zm17.175-3.31v18.745h.662V86.837Zm-209.666-3.309v22.054h.662V83.527Zm226.84 0v22.054h.662V83.527Zm-244.014 3.31v18.729h.662v-18.73Zm261.189 0v18.744h.662V86.837Zm-278.364-3.31v21.227h.662V83.527ZM71.142 16.281v22.054h.662V16.28Zm328.956 133.433v18.745h.662v-18.745ZM146.579 80.218v23.724h.662V80.218ZM269.003 17.34v22.054h.663V17.34Zm328.573 127.954V167.4h.662v-22.106Zm-127.46-58.457v22.07h.662v-22.07Zm-351.535-9.928v22.026h.662V76.91Zm368.71 13.237v19.572h.662V90.146Zm17.175 3.31v17.074h.662V93.456Zm-411.648-6.62v22.054h.662V86.837Zm428.823 3.31v20.399h.662V90.146Zm-445.998-3.31v22.028h.662V86.837Zm471.76 3.31v20.373h.662V90.146Zm-172.025 56.26v20.42h.662v-20.42ZM49.882 86.835v22.054h.662V86.837Zm278.49 59.57v22.053h.662v-22.054Zm247.03-56.26v23.708h.661V90.146ZM299.877 7.412V29.44h.662V7.412ZM102.82 6.301v22.106h.662V6.301Zm489.756 90.464v17.09h.662v-17.09Zm74.593-90.478v22.12h.662V6.287ZM609.75 93.456v20.398h.662V93.456Zm36.835-87.983v19.625h.662V5.473Zm-19.66 84.673v17.09h.662v-17.09Zm17.175-3.31v20.4h.662v-20.4ZM626.003 4.66v17.13h.662V4.658Zm-451.144.814v19.625h.662V5.473ZM605.42 4.7v20.399h.663v-20.4Zm-275.494 6.023v22.053h.662V10.722Zm153.798 148.92v19.572h.662v-19.571ZM574.546 6.302v22.106h.662V6.301ZM294.187 156.333v22.027h.662v-22.027ZM133.694 4.7v20.399h.662v-20.4ZM360.8 14.03v22.027h.662V14.031Zm182.07 2.25v22.054h.661V16.28ZM49.881 159.643v20.42h.662v-20.42Zm491.224-16.004v20.451h.662V143.64ZM511.994 6.3v22.106h.662V6.301ZM99.322 166.26v17.068h.662v-17.068ZM491.412 4.646v17.142h.662V4.646Zm-367.37 158.306v18.744h.662v-18.744ZM470.829 4.646v20.452h.662V4.646ZM161.122 156.333v22.027h.662v-22.027ZM154.277 4.66v17.13h.662V4.658Zm295.969-.013v17.142h.662V4.646Zm-193.139 141.76v22.053h.662v-22.054Zm251.336 16.546v17.078h.662v-17.078ZM381.382 17.34v22.054h.662V17.34Zm30.874 3.31v20.372h.662V20.65Zm-216.95 125.755v22.054h.663v-22.054ZM74.603 162.952v18.744h.662v-18.744Zm586.673-72.806v17.09h.662v-17.09Zm-403.35-14.323c-4.924 0-9.86 1.638-12.351 4.97l.002.017a.165.165 0 0 0 .008.195h.02l.003.02a.165.165 0 0 0 .194-.011h.017c2.383-2.195 7.245-3.333 12.107-3.333 4.863 0 9.724 1.138 12.107 3.333a.165.165 0 0 0 .245-.22c-2.492-3.333-7.427-4.97-12.352-4.97zm0 .33c4.195 0 8.377 1.223 10.982 3.626-2.698-1.633-6.837-2.428-10.981-2.428s-8.284.795-10.983 2.428c2.606-2.403 6.789-3.625 10.983-3.625m-12.219 4.74c4.889-6.54 19.551-6.54 24.439 0-4.888-4.503-19.55-4.503-24.439 0m110.988 53.502c-9.16 0-18.319 1.953-22.949 5.941v.015a.165.165 0 0 0-.032.199l.016.004v.016a.165.165 0 0 0 .198.028l.014.003c4.505-2.835 13.634-4.287 22.753-4.287s18.248 1.452 22.753 4.287a.165.165 0 0 0 .196-.265c-4.63-3.987-13.79-5.941-22.95-5.941zm0 .33c8.006 0 16.01 1.53 20.893 4.533-4.984-2.198-12.934-3.275-20.893-3.275s-15.91 1.077-20.894 3.275c4.883-3.003 12.887-4.533 20.894-4.533m-22.84 5.736c9.135-7.868 36.544-7.868 45.68 0-9.136-5.75-36.545-5.75-45.68 0m260.601 32.695a.17.17 0 0 0-.106.018.17.17 0 0 0-.106 0l-.008.019-.01.002.003.016a.165.165 0 0 0 .014.196c3.634 3.664 10.817 5.457 17.996 5.457 7.18 0 14.362-1.793 17.996-5.457a.165.165 0 0 0-.213-.25c-3.512 2.5-10.651 3.788-17.783 3.788s-14.27-1.288-17.783-3.789zm1.476 1.247c3.916 1.93 10.106 2.873 16.307 2.873s12.39-.943 16.306-2.873c-3.814 2.736-10.058 4.13-16.306 4.13s-12.492-1.394-16.307-4.13m-1.572-1.112c7.151 5.092 28.605 5.092 35.757 0-7.152 7.21-28.606 7.21-35.757 0M449.54 148.24v27.202h1.19V148.24ZM320.46 9.246v27.203h1.19V9.246Zm-1.553 138.993v27.202h1.19V148.24ZM432.839 9.246v27.203h1.191V9.246ZM185.842 148.239v27.202h1.192V148.24ZM346.78 78.742v27.203h1.192V78.742ZM557.14 9.246v27.203h1.191V9.246Zm23.03 138.993v27.202h1.192V148.24Zm99.64-69.497v27.203H681V78.742Zm0-69.496v27.203H681V9.246ZM565.936 78.742v27.203h1.192V78.742ZM85.413 9.246v27.203h1.191V9.246Zm51.702 69.496v27.203h1.19V78.742Zm323.537 0v27.203h1.191V78.742Zm-229.89 0v27.203h1.191V78.742Zm76.728 0v27.203h3.64V78.742Zm-3.64 0v27.203h1.19V78.742Zm-2.448 16.911c0-.768-.61-1.405-1.378-1.405s-1.377.637-1.377 1.405c0 .769.609 1.404 1.377 1.404.769 0 1.378-.635 1.378-1.404m0-6.619c0-.768-.61-1.404-1.378-1.404s-1.377.636-1.377 1.404c0 .769.609 1.404 1.377 1.404.769 0 1.378-.635 1.378-1.404M677.36 148.24v27.202H681V148.24zm-3.64 0v27.202h1.191V148.24ZM319.974 95.653c0-.768-.61-1.405-1.378-1.405s-1.378.637-1.378 1.405c0 .769.61 1.404 1.378 1.404.769 0 1.378-.635 1.378-1.404m0-6.619c0-.768-.61-1.404-1.378-1.404s-1.378.636-1.378 1.404c0 .769.61 1.404 1.378 1.404.769 0 1.378-.635 1.378-1.404m-6.396-10.292v27.203h1.192V78.742Zm-6.088 0v27.203h3.64V78.742ZM208.082 9.246v27.203h1.191V9.246ZM0 174.713v.728h681v-.728zm0-6.618v.728h681v-.728zm0-6.619v.728h681v-.728zm0-6.619v.728h681v-.728zm0-6.619v.728h681v-.728zm0-43.021v.728h681v-.728zm0-6.618v.727h681V98.6zm0-6.62v.729h681v-.728zm0-6.618v.728h681v-.728zm0-6.619v.728h681v-.728Zm0-43.021v.727h681v-.727zm0-6.619v.728h681v-.728zm0-6.619v.728h681v-.728zm0-6.618v.727h681v-.727Zm0-6.619v.728h681v-.728Z"/>
</svg>
