<?xml version="1.0" encoding="utf-8"?>
<svg xmlns="http://www.w3.org/2000/svg" xmlns:svg="http://www.w3.org/2000/svg" version="1.1" viewBox="0 0 681 256">
	<title>The musical score for Air XI</title>
	<path d="M203.245 158.53c0 .743.582 1.325 1.324 1.325s1.325-.582 1.325-1.324-.582-1.325-1.325-1.325c-.742 0-1.324.582-1.324 1.325m406.257-69.497c0 .742.582 1.325 1.324 1.325s1.325-.583 1.325-1.325-.582-1.325-1.325-1.325c-.742 0-1.324.583-1.324 1.325M420.245 26.157c0 .741.583 1.325 1.325 1.325.741 0 1.325-.584 1.325-1.325 0-.742-.584-1.325-1.325-1.325-.742 0-1.325.583-1.325 1.325M410.4 165.149c0 .743.582 1.325 1.325 1.325.742 0 1.324-.582 1.324-1.325 0-.742-.582-1.324-1.325-1.324-.742 0-1.324.582-1.324 1.324m238.412 76.115c0 .742.583 1.325 1.325 1.325s1.325-.583 1.325-1.325c0-.741-.583-1.325-1.325-1.325s-1.325.584-1.325 1.325M224.058 32.775c0 .742.583 1.325 1.325 1.325s1.325-.583 1.325-1.325c0-.741-.583-1.325-1.325-1.325s-1.325.584-1.325 1.325m374.488 132.374c0 .743.584 1.325 1.325 1.325.742 0 1.325-.582 1.325-1.325 0-.742-.583-1.324-1.325-1.324-.741 0-1.325.582-1.325 1.324M411.851 108.89c0 .742.583 1.325 1.325 1.325s1.325-.583 1.325-1.325-.583-1.325-1.325-1.325-1.325.583-1.325 1.325m-225.49 132.374c0 .742.582 1.325 1.324 1.325s1.325-.583 1.325-1.325c0-.741-.583-1.325-1.325-1.325s-1.325.584-1.325 1.325m-8.014-152.23c0 .742.583 1.325 1.325 1.325s1.325-.583 1.325-1.325-.583-1.325-1.325-1.325-1.325.583-1.325 1.325M426.07 214.79c0 .741.582 1.325 1.324 1.325s1.325-.584 1.325-1.325c0-.742-.582-1.325-1.325-1.325-.742 0-1.324.583-1.324 1.325M616.43 12.92c0 .741.584 1.324 1.325 1.324.742 0 1.325-.583 1.325-1.325s-.583-1.325-1.325-1.325c-.741 0-1.325.583-1.325 1.325m-41.544 203.513 13.571 1.654v3.335l-13.571-1.655zM44.008 32.792v1.961H41.81c-.185 0-.37.16-.37.37v.504c0 .212.185.372.37.372h8.03c.211 0 .37-.16.37-.372v-.503c0-.212-.159-.37-.37-.37h-2.386v-1.961h2.385c.212 0 .372-.186.372-.398v-.504a.38.38 0 0 0-.372-.37h-2.385v-4.214c0-.16-.079-.291-.185-.344l-.318-.16c-.053-.026-.08-.026-.132-.026-.106 0-.213 0-.292.08l-2.411 2.2a.4.4 0 0 0-.107.29v2.174h-3.073s2.968-3.18 6.095-7.367a.58.58 0 0 0 .132-.37.44.44 0 0 0-.08-.266l-.582-.583c-.08-.053-.16-.106-.265-.106h-3.948c-.186 0-.318.159-.345.318 0 0-.133 1.961-.822 4.107-.688 2.147-1.483 3.472-2.173 4.452 0 0-.079.132-.079.292 0 .052 0 .105.027.158.079.186.265.477.265.477s.052.16.291.16zm.795-11.067c-.875 0-1.59-1.192-1.59-2.676s.715-2.703 1.59-2.703c.874 0 1.616 1.219 1.616 2.703s-.742 2.676-1.616 2.676m.98-6.625c-1.617 0-2.2.477-2.57.875-.08-.557-.133-.98-.133-1.405 0-1.51.53-3.47 2.385-3.47.663 0 1.06.211 1.325.503-.557.238-1.007.954-1.007 1.563 0 .954.742 1.696 1.696 1.696.953 0 1.722-.742 1.722-1.696v-.08c0-.238-.053-.635-.159-.847-.345-.954-1.457-2.359-4.107-2.359-2.385 0-4.107 2.28-4.637 3.498a9.4 9.4 0 0 0-.663 3.418c0 1.617.45 3.445 2.014 4.823 1.537 1.166 2.517 1.219 3.445 1.219s4.398-1.087 4.398-4.16c0-2.597-2.04-3.578-3.71-3.578m-15.41 6.686c0 2.094-1.086 3.207-2.623 4.426l.079-5.168c.053-.238.45-1.007 1.51-1.007.955 0 1.034.901 1.034 1.458zm-.318-3.047a2.98 2.98 0 0 0-2.226.98l.106-8.505a.363.363 0 0 0-.371-.371h-.318a.36.36 0 0 0-.37.37l.131 15.926c0 .212.16.37.372.37a.6.6 0 0 0 .211-.052c2.28-1.14 4.664-3.312 4.664-6.042 0-1.378-.635-2.676-2.199-2.676m.318 142.04c0 2.094-1.086 3.206-2.623 4.426l.079-5.168c.053-.239.45-1.007 1.51-1.007.955 0 1.034.901 1.034 1.458zm-.318-3.048a2.98 2.98 0 0 0-2.226.981l.106-8.506c0-.212-.159-.37-.371-.37h-.318a.36.36 0 0 0-.37.37l.131 15.926c0 .212.16.37.372.37a.6.6 0 0 0 .211-.053c2.28-1.139 4.664-3.311 4.664-6.041 0-1.378-.635-2.677-2.199-2.677m.318 72.544c0 2.094-1.086 3.207-2.623 4.426l.079-5.168c.053-.238.45-1.007 1.51-1.007.955 0 1.034.902 1.034 1.458zm-.318-3.047a2.98 2.98 0 0 0-2.226.98l.106-8.505c0-.213-.159-.371-.371-.371h-.318a.36.36 0 0 0-.37.37l.131 15.926c0 .212.16.37.372.37a.6.6 0 0 0 .211-.052c2.28-1.14 4.664-3.312 4.664-6.042 0-1.378-.635-2.676-2.199-2.676m.318-135.945c0 2.093-1.086 3.206-2.623 4.425l.079-5.167c.053-.239.45-1.007 1.51-1.007.955 0 1.034.901 1.034 1.457zm-.318-3.048a2.98 2.98 0 0 0-2.226.98l.106-8.505c0-.212-.159-.37-.371-.37h-.318a.36.36 0 0 0-.37.37l.131 15.925c0 .212.16.37.372.37a.6.6 0 0 0 .211-.052c2.28-1.14 4.664-3.312 4.664-6.042 0-1.377-.635-2.676-2.199-2.676m-13.96 85.681a7.7 7.7 0 0 1-1.538.16c-3.789 0-7.022-2.65-7.022-6.652 0-3.233 2.28-6.12 4.611-8.135.45-.398.875-.768 1.272-1.165.238 1.43.424 2.676.61 3.762-2.412.715-4.055 3.26-4.055 5.75 0 1.855 1.458 4.399 3.577 4.399.212 0 .451-.106.451-.344 0-.239-.265-.372-.583-.583-1.033-.637-1.616-1.325-1.616-2.624 0-1.616 1.192-2.914 2.755-3.286zm-2.332-27.24c.239-1.06 1.458-3.842 2.836-3.842.397 0 1.033 1.299 1.033 3.127 0 2.755-2.04 4.822-3.869 6.624-.159-1.06-.291-2.093-.291-3.206 0-.98.08-1.882.291-2.703m6.095 22.338c0 1.882-.768 3.816-2.65 4.584a882 882 0 0 1-1.457-8.558c2.385 0 4.107 1.616 4.107 3.974m-11.66 13.037c0 1.749 1.352 4.054 4.93 4.054 1.245 0 2.331-.318 3.285-.9 1.431-1.007 1.802-2.757 1.802-4.426 0-1.033-.159-2.225-.424-3.736-.08-.53-.238-1.325-.397-2.358 2.597-.848 4.53-3.55 4.53-6.28 0-4.002-2.834-6.704-6.703-6.704-.265-1.59-.53-3.154-.769-4.637 2.81-2.942 4.744-6.254 4.744-10.467 0-2.412-.742-4.372-1.166-5.326-.636-1.352-1.405-2.28-1.882-2.28-.185 0-1.007.319-1.881 1.352-1.696 2.014-2.173 5.406-2.173 7.631 0 1.432.133 2.73.583 5.698-.026.026-1.404 1.43-1.96 1.881-2.412 2.252-5.75 5.458-5.75 10.758 0 4.955 4.318 8.85 9.247 8.85.768 0 1.484-.079 2.093-.185.504 2.544.795 4.399.795 5.803 0 2.756-1.404 4.213-4.08 4.213-.636 0-1.193-.132-1.246-.132-.026-.027-.08-.053-.08-.08 0-.053.054-.079.133-.105 1.246-.186 2.49-1.246 2.49-2.942 0-1.431-1.085-2.94-3.073-2.94-1.855 0-3.047 1.509-3.047 3.258m7.896-147.128a7.7 7.7 0 0 1-1.537.16c-3.789 0-7.022-2.65-7.022-6.651 0-3.234 2.28-6.122 4.611-8.135.45-.398.875-.769 1.272-1.166.238 1.43.424 2.676.61 3.762-2.412.716-4.055 3.26-4.055 5.75 0 1.855 1.458 4.4 3.577 4.4.212 0 .451-.107.451-.345 0-.239-.265-.372-.583-.583-1.033-.636-1.616-1.325-1.616-2.623 0-1.617 1.192-2.915 2.755-3.287zm-2.332-27.24c.239-1.06 1.458-3.842 2.836-3.842.397 0 1.033 1.299 1.033 3.127 0 2.756-2.04 4.823-3.869 6.625-.159-1.06-.291-2.094-.291-3.207 0-.98.08-1.881.291-2.703m6.095 22.339c0 1.881-.768 3.815-2.65 4.584a882 882 0 0 1-1.457-8.559c2.385 0 4.107 1.616 4.107 3.975M8.196 43.06c0 1.748 1.352 4.054 4.93 4.054 1.245 0 2.331-.318 3.285-.901 1.431-1.007 1.802-2.756 1.802-4.425 0-1.034-.159-2.226-.424-3.737-.08-.53-.238-1.325-.397-2.358 2.597-.848 4.53-3.55 4.53-6.28 0-4.001-2.834-6.704-6.703-6.704-.265-1.59-.53-3.153-.769-4.637 2.81-2.942 4.744-6.254 4.744-10.467 0-2.411-.742-4.372-1.166-5.326C17.392.927 16.623 0 16.146 0c-.185 0-1.007.318-1.881 1.351-1.696 2.014-2.173 5.406-2.173 7.632 0 1.43.133 2.73.583 5.697-.026.026-1.404 1.43-1.96 1.881-2.412 2.253-5.75 5.459-5.75 10.758 0 4.956 4.318 8.851 9.247 8.851.768 0 1.484-.08 2.093-.186.504 2.545.795 4.4.795 5.804 0 2.755-1.404 4.213-4.08 4.213-.636 0-1.193-.133-1.246-.133-.026-.026-.08-.053-.08-.08 0-.052.054-.079.133-.105 1.246-.186 2.49-1.246 2.49-2.941 0-1.432-1.085-2.941-3.073-2.941-1.855 0-3.047 1.51-3.047 3.259m7.896 200.353a7.7 7.7 0 0 1-1.537.16c-3.789 0-7.022-2.65-7.022-6.651 0-3.234 2.28-6.121 4.611-8.135.45-.398.875-.769 1.272-1.166.238 1.43.424 2.676.61 3.763-2.412.714-4.055 3.259-4.055 5.75 0 1.854 1.458 4.398 3.577 4.398.212 0 .451-.106.451-.344 0-.239-.265-.372-.583-.583-1.033-.636-1.616-1.325-1.616-2.623 0-1.617 1.192-2.915 2.755-3.287zm-2.332-27.24c.239-1.06 1.458-3.842 2.836-3.842.397 0 1.033 1.299 1.033 3.127 0 2.756-2.04 4.823-3.869 6.625-.159-1.06-.291-2.094-.291-3.206 0-.981.08-1.882.291-2.704m6.095 22.339c0 1.88-.768 3.815-2.65 4.584a882 882 0 0 1-1.457-8.56c2.385 0 4.107 1.617 4.107 3.976m-11.66 13.037c0 1.748 1.352 4.054 4.93 4.054 1.245 0 2.331-.318 3.285-.901 1.431-1.007 1.802-2.756 1.802-4.426 0-1.033-.159-2.225-.424-3.736-.08-.53-.238-1.325-.397-2.358 2.597-.848 4.53-3.55 4.53-6.28 0-4.002-2.834-6.704-6.703-6.704-.265-1.59-.53-3.154-.769-4.637 2.81-2.942 4.744-6.254 4.744-10.467 0-2.411-.742-4.372-1.166-5.326-.636-1.351-1.405-2.28-1.882-2.28-.185 0-1.007.32-1.881 1.352-1.696 2.014-2.173 5.406-2.173 7.632 0 1.431.133 2.73.583 5.697-.026.027-1.404 1.43-1.96 1.881-2.412 2.252-5.75 5.459-5.75 10.758 0 4.956 4.318 8.851 9.247 8.851.768 0 1.484-.08 2.093-.186.504 2.544.795 4.4.795 5.803 0 2.756-1.404 4.214-4.08 4.214-.636 0-1.193-.133-1.246-.133-.026-.027-.08-.053-.08-.08 0-.052.054-.079.133-.105 1.246-.186 2.49-1.246 2.49-2.941 0-1.432-1.085-2.942-3.073-2.942-1.855 0-3.047 1.51-3.047 3.26m7.896-147.128a7.7 7.7 0 0 1-1.537.159c-3.789 0-7.022-2.65-7.022-6.65 0-3.234 2.28-6.122 4.611-8.136.45-.398.875-.769 1.272-1.166.238 1.43.424 2.677.61 3.763-2.412.715-4.055 3.259-4.055 5.75 0 1.854 1.458 4.398 3.577 4.398.212 0 .451-.105.451-.344 0-.238-.265-.371-.583-.583-1.033-.636-1.616-1.325-1.616-2.623 0-1.616 1.192-2.915 2.755-3.286zm-2.332-27.24c.239-1.06 1.458-3.842 2.836-3.842.397 0 1.033 1.298 1.033 3.127 0 2.755-2.04 4.822-3.869 6.624-.159-1.06-.291-2.093-.291-3.206 0-.98.08-1.882.291-2.703m6.095 22.338c0 1.881-.768 3.815-2.65 4.584a882 882 0 0 1-1.457-8.559c2.385 0 4.107 1.617 4.107 3.975m-11.66 13.037c0 1.748 1.352 4.054 4.93 4.054 1.245 0 2.331-.318 3.285-.9 1.431-1.008 1.802-2.757 1.802-4.426 0-1.034-.159-2.226-.424-3.736-.08-.53-.238-1.325-.397-2.359 2.597-.847 4.53-3.55 4.53-6.28 0-4.001-2.834-6.704-6.703-6.704-.265-1.59-.53-3.153-.769-4.637 2.81-2.942 4.744-6.253 4.744-10.467 0-2.411-.742-4.372-1.166-5.326-.636-1.351-1.405-2.279-1.882-2.279-.185 0-1.007.319-1.881 1.351-1.696 2.015-2.173 5.406-2.173 7.632 0 1.431.133 2.73.583 5.698-.026.026-1.404 1.43-1.96 1.88-2.412 2.253-5.75 5.459-5.75 10.759 0 4.955 4.318 8.85 9.247 8.85.768 0 1.484-.079 2.093-.185.504 2.544.795 4.399.795 5.803 0 2.755-1.404 4.213-4.08 4.213-.636 0-1.193-.133-1.246-.133-.026-.026-.08-.053-.08-.08 0-.052.054-.078.133-.105 1.246-.185 2.49-1.245 2.49-2.941 0-1.431-1.085-2.941-3.073-2.941-1.855 0-3.047 1.51-3.047 3.259M184.145 27.27c0 1.139.821 2.41 2.968 2.41 2.755 0 5.644-2.252 5.644-4.583 0-1.564-1.325-2.438-2.968-2.438-2.57 0-5.644 2.173-5.644 4.61m422.36-8.762a.99.99 0 0 1-1.06-.954c0-1.298 4.45-3.577 5.696-3.577.636 0 1.06.371 1.06.954 0 1.325-4.478 3.577-5.697 3.577m3.656-5.776c-2.57 0-5.643 2.146-5.643 4.61 0 1.14.82 2.412 2.967 2.412 2.756 0 5.645-2.253 5.645-4.584 0-1.564-1.325-2.438-2.969-2.438M479.806 235.759c0 1.139.821 2.41 2.967 2.41 2.757 0 5.645-2.251 5.645-4.583 0-1.564-1.325-2.438-2.968-2.438-2.57 0-5.644 2.173-5.644 4.61M363.646 23.96c0 1.14.82 2.411 2.967 2.411 2.756 0 5.644-2.252 5.644-4.584 0-1.563-1.325-2.438-2.968-2.438-2.57 0-5.644 2.173-5.644 4.611m274.588 17.713a.99.99 0 0 1-1.06-.954c0-1.299 4.452-3.577 5.697-3.577.636 0 1.06.37 1.06.953 0 1.325-4.478 3.578-5.697 3.578m3.657-5.777c-2.57 0-5.645 2.147-5.645 4.61 0 1.14.823 2.412 2.969 2.412 2.755 0 5.644-2.252 5.644-4.584 0-1.563-1.325-2.438-2.968-2.438m19.385 1.301c0 1.14.822 2.412 2.968 2.412 2.756 0 5.644-2.252 5.644-4.584 0-1.564-1.325-2.438-2.968-2.438-2.57 0-5.644 2.173-5.644 4.61M450.977 239.068c0 1.14.822 2.411 2.968 2.411 2.755 0 5.644-2.252 5.644-4.584 0-1.563-1.325-2.438-2.968-2.438-2.57 0-5.644 2.173-5.644 4.611M346.96 27.27c0 1.139.821 2.41 2.967 2.41 2.757 0 5.645-2.252 5.645-4.583 0-1.564-1.325-2.438-2.968-2.438-2.57 0-5.644 2.173-5.644 4.61m171.576 201.87c0 1.14.82 2.412 2.967 2.412 2.756 0 5.644-2.252 5.644-4.584 0-1.564-1.325-2.438-2.968-2.438-2.57 0-5.643 2.173-5.643 4.61m-102.392-8.761a.99.99 0 0 1-1.06-.955c0-1.297 4.452-3.576 5.697-3.576.636 0 1.06.37 1.06.954 0 1.325-4.478 3.577-5.697 3.577m3.657-5.777c-2.57 0-5.644 2.146-5.644 4.611 0 1.14.821 2.411 2.968 2.411 2.755 0 5.643-2.252 5.643-4.584 0-1.563-1.324-2.438-2.967-2.438M576.518 27.27c0 1.139.822 2.41 2.969 2.41 2.755 0 5.643-2.252 5.643-4.583 0-1.564-1.324-2.438-2.967-2.438-2.57 0-5.645 2.173-5.645 4.61M387.097 220.379a.99.99 0 0 1-1.06-.955c0-1.297 4.452-3.576 5.697-3.576.636 0 1.06.37 1.06.954 0 1.325-4.478 3.577-5.697 3.577m3.657-5.777c-2.571 0-5.644 2.146-5.644 4.611 0 1.14.821 2.411 2.967 2.411 2.756 0 5.644-2.252 5.644-4.584 0-1.563-1.325-2.438-2.967-2.438m149.132 22.323a.99.99 0 0 1-1.06-.953c0-1.299 4.451-3.578 5.697-3.578.636 0 1.06.372 1.06.954 0 1.325-4.479 3.577-5.697 3.577m3.656-5.776c-2.57 0-5.644 2.146-5.644 4.61 0 1.14.822 2.412 2.968 2.412 2.756 0 5.644-2.252 5.644-4.584 0-1.564-1.324-2.438-2.968-2.438M63.438 50.435c0 1.14.821 2.411 2.967 2.411 2.757 0 5.645-2.252 5.645-4.584 0-1.563-1.325-2.438-2.968-2.438-2.57 0-5.644 2.173-5.644 4.611m-14.642 52.95c0 1.139.821 2.411 2.967 2.411 2.757 0 5.645-2.253 5.645-4.585 0-1.562-1.325-2.437-2.968-2.437-2.57 0-5.644 2.172-5.644 4.61M356.28 219.213c0 1.14.822 2.411 2.969 2.411 2.755 0 5.644-2.252 5.644-4.584 0-1.563-1.325-2.438-2.968-2.438-2.57 0-5.645 2.173-5.645 4.611M66.723 100.075c0 1.14.822 2.412 2.968 2.412 2.756 0 5.644-2.253 5.644-4.584 0-1.564-1.324-2.439-2.968-2.439-2.57 0-5.644 2.174-5.644 4.611m262.499 123.612a.99.99 0 0 1-1.06-.954c0-1.299 4.452-3.577 5.697-3.577.636 0 1.06.37 1.06.953 0 1.325-4.479 3.578-5.697 3.578m3.657-5.777c-2.57 0-5.645 2.147-5.645 4.61 0 1.14.821 2.413 2.969 2.413 2.755 0 5.643-2.253 5.643-4.585 0-1.563-1.324-2.438-2.967-2.438M84.65 96.766c0 1.14.821 2.411 2.967 2.411 2.757 0 5.645-2.253 5.645-4.584 0-1.563-1.325-2.438-2.968-2.438-2.57 0-5.644 2.173-5.644 4.61m223.22 122.447c0 1.14.82 2.411 2.967 2.411 2.756 0 5.644-2.252 5.644-4.584 0-1.563-1.325-2.438-2.968-2.438-2.57 0-5.644 2.173-5.644 4.611M102.578 96.766c0 1.14.821 2.411 2.968 2.411 2.756 0 5.644-2.253 5.644-4.584 0-1.563-1.324-2.438-2.968-2.438-2.57 0-5.644 2.173-5.644 4.61m185.928 125.756c0 1.14.821 2.412 2.968 2.412 2.756 0 5.644-2.253 5.644-4.585 0-1.563-1.325-2.438-2.968-2.438-2.57 0-5.644 2.173-5.644 4.61m-168-122.445c0 1.14.82 2.412 2.967 2.412 2.756 0 5.645-2.253 5.645-4.584 0-1.564-1.325-2.439-2.969-2.439-2.57 0-5.643 2.174-5.643 4.611M269.142 225.83c0 1.14.821 2.411 2.968 2.411 2.756 0 5.644-2.252 5.644-4.584 0-1.563-1.325-2.437-2.968-2.437-2.57 0-5.644 2.173-5.644 4.61M138.433 103.385c0 1.139.821 2.411 2.968 2.411 2.756 0 5.644-2.253 5.644-4.585 0-1.562-1.325-2.437-2.968-2.437-2.57 0-5.644 2.172-5.644 4.61m191.84-76.114c0 1.139.821 2.41 2.968 2.41 2.755 0 5.643-2.252 5.643-4.583 0-1.564-1.324-2.438-2.967-2.438-2.57 0-5.644 2.173-5.644 4.61M168.418 91.314a.99.99 0 0 1-1.06-.954c0-1.298 4.452-3.578 5.698-3.578.636 0 1.06.372 1.06.955 0 1.325-4.478 3.577-5.698 3.577m3.657-5.776c-2.57 0-5.644 2.146-5.644 4.61 0 1.14.822 2.411 2.968 2.411 2.756 0 5.644-2.252 5.644-4.584 0-1.563-1.325-2.437-2.968-2.437m68.238 143.603c0 1.14.821 2.41 2.968 2.41 2.755 0 5.644-2.251 5.644-4.583 0-1.564-1.325-2.438-2.968-2.438-2.57 0-5.644 2.173-5.644 4.61M559.833 23.96c0 1.14.82 2.411 2.967 2.411 2.755 0 5.644-2.252 5.644-4.584 0-1.563-1.325-2.438-2.968-2.438-2.57 0-5.644 2.173-5.644 4.611M213.254 253.471a.99.99 0 0 1-1.06-.954c0-1.298 4.452-3.577 5.697-3.577.636 0 1.06.371 1.06.954 0 1.325-4.478 3.577-5.697 3.577m3.657-5.776c-2.57 0-5.644 2.146-5.644 4.61 0 1.14.821 2.411 2.967 2.411 2.757 0 5.644-2.252 5.644-4.584 0-1.563-1.325-2.437-2.967-2.437m-14.403-133.216a.99.99 0 0 1-1.06-.954c0-1.299 4.452-3.578 5.697-3.578.636 0 1.06.371 1.06.954 0 1.325-4.479 3.578-5.697 3.578m3.657-5.777c-2.57 0-5.645 2.146-5.645 4.61 0 1.14.822 2.412 2.968 2.412 2.756 0 5.645-2.252 5.645-4.584 0-1.564-1.325-2.438-2.968-2.438m21.246 1.301c0 1.14.822 2.411 2.968 2.411 2.756 0 5.645-2.252 5.645-4.584 0-1.563-1.325-2.437-2.968-2.437-2.57 0-5.645 2.172-5.645 4.61m339.533 129.065c0 1.14.822 2.411 2.968 2.411 2.756 0 5.645-2.252 5.645-4.584 0-1.563-1.325-2.438-2.969-2.438-2.57 0-5.644 2.173-5.644 4.611m-390.511 7.785a.99.99 0 0 1-1.06-.955c0-1.298 4.452-3.577 5.697-3.577.636 0 1.06.371 1.06.954 0 1.325-4.478 3.578-5.697 3.578m3.657-5.777c-2.57 0-5.644 2.146-5.644 4.611 0 1.14.821 2.411 2.967 2.411 2.757 0 5.644-2.253 5.644-4.585 0-1.563-1.325-2.437-2.967-2.437M313.586 33.889c0 1.139.822 2.41 2.968 2.41 2.756 0 5.644-2.252 5.644-4.584 0-1.563-1.325-2.438-2.968-2.438-2.57 0-5.644 2.173-5.644 4.612M100.713 50.435c0 1.14.822 2.411 2.968 2.411 2.756 0 5.644-2.252 5.644-4.584 0-1.563-1.325-2.438-2.967-2.438-2.571 0-5.645 2.173-5.645 4.611m154.697 56.259c0 1.14.821 2.412 2.967 2.412 2.757 0 5.645-2.253 5.645-4.585 0-1.564-1.325-2.438-2.968-2.438-2.57 0-5.644 2.173-5.644 4.61M145.616 242.378c0 1.14.823 2.412 2.969 2.412 2.755 0 5.644-2.253 5.644-4.585 0-1.563-1.325-2.438-2.968-2.438-2.57 0-5.645 2.173-5.645 4.611m127.721-138.992c0 1.139.822 2.411 2.968 2.411 2.756 0 5.645-2.253 5.645-4.585 0-1.562-1.325-2.437-2.969-2.437-2.57 0-5.644 2.172-5.644 4.61M126.253 239.069c0 1.14.821 2.411 2.967 2.411 2.756 0 5.644-2.252 5.644-4.584 0-1.563-1.325-2.438-2.967-2.438-2.571 0-5.644 2.173-5.644 4.611m165.012-138.993c0 1.14.821 2.412 2.967 2.412 2.757 0 5.645-2.253 5.645-4.584 0-1.564-1.325-2.439-2.968-2.439-2.57 0-5.644 2.174-5.644 4.611M106.888 235.76c0 1.139.822 2.41 2.968 2.41 2.756 0 5.645-2.251 5.645-4.583 0-1.564-1.325-2.438-2.969-2.438-2.57 0-5.644 2.173-5.644 4.61m202.304-129.064c0 1.14.822 2.412 2.968 2.412 2.756 0 5.644-2.253 5.644-4.585 0-1.564-1.325-2.438-2.968-2.438-2.57 0-5.644 2.173-5.644 4.61M87.525 232.45c0 1.14.821 2.411 2.967 2.411 2.756 0 5.644-2.252 5.644-4.584 0-1.563-1.325-2.437-2.968-2.437-2.57 0-5.643 2.172-5.643 4.61M327.12 110.003c0 1.14.821 2.411 2.967 2.411 2.757 0 5.644-2.252 5.644-4.584 0-1.563-1.325-2.437-2.967-2.437-2.57 0-5.644 2.172-5.644 4.61M68.16 229.14c0 1.14.822 2.41 2.968 2.41 2.755 0 5.644-2.251 5.644-4.583 0-1.564-1.325-2.438-2.968-2.438-2.57 0-5.644 2.173-5.644 4.61m276.887-115.827c0 1.14.821 2.412 2.968 2.412 2.756 0 5.644-2.252 5.644-4.584 0-1.564-1.325-2.438-2.968-2.438-2.57 0-5.644 2.173-5.644 4.61M48.796 225.83c0 1.14.821 2.411 2.967 2.411 2.757 0 5.645-2.252 5.645-4.584 0-1.563-1.325-2.437-2.968-2.437-2.57 0-5.644 2.173-5.644 4.61M296.9 43.816c0 1.14.821 2.411 2.967 2.411 2.757 0 5.645-2.252 5.645-4.584 0-1.563-1.325-2.437-2.968-2.437-2.57 0-5.644 2.172-5.644 4.61m246.246-23.165c0 1.14.821 2.411 2.967 2.411 2.757 0 5.644-2.252 5.644-4.584 0-1.563-1.325-2.438-2.967-2.438-2.57 0-5.644 2.173-5.644 4.61m36.708 221.727c0 1.14.821 2.412 2.968 2.412 2.756 0 5.644-2.253 5.644-4.585 0-1.563-1.325-2.438-2.968-2.438-2.57 0-5.644 2.173-5.644 4.611M375.032 114.48a.99.99 0 0 1-1.06-.954c0-1.299 4.452-3.578 5.698-3.578.636 0 1.06.371 1.06.954 0 1.325-4.478 3.578-5.698 3.578m3.657-5.777c-2.57 0-5.644 2.146-5.644 4.61 0 1.14.822 2.412 2.968 2.412 2.756 0 5.644-2.252 5.644-4.584 0-1.564-1.325-2.438-2.968-2.438m23.235 5.777a.99.99 0 0 1-1.06-.954c0-1.299 4.452-3.578 5.697-3.578.636 0 1.06.371 1.06.954 0 1.325-4.478 3.578-5.697 3.578m3.657-5.777c-2.571 0-5.644 2.146-5.644 4.61 0 1.14.821 2.412 2.967 2.412 2.756 0 5.644-2.252 5.644-4.584 0-1.564-1.325-2.438-2.967-2.438m120.878-88.051c0 1.14.822 2.411 2.969 2.411 2.755 0 5.643-2.252 5.643-4.584 0-1.563-1.324-2.438-2.967-2.438-2.57 0-5.645 2.173-5.645 4.61m-92.433 89.353c0 1.14.82 2.411 2.967 2.411 2.756 0 5.645-2.252 5.645-4.584 0-1.563-1.325-2.437-2.969-2.437-2.57 0-5.643 2.172-5.643 4.61m27.998-3.31c0 1.14.821 2.413 2.968 2.413 2.755 0 5.643-2.253 5.643-4.585 0-1.564-1.325-2.438-2.967-2.438-2.57 0-5.644 2.173-5.644 4.61m17.927-3.308c0 1.139.822 2.411 2.968 2.411 2.755 0 5.644-2.253 5.644-4.585 0-1.562-1.325-2.437-2.968-2.437-2.57 0-5.644 2.172-5.644 4.61M117.4 43.817c0 1.14.822 2.411 2.968 2.411 2.756 0 5.645-2.252 5.645-4.584 0-1.563-1.325-2.437-2.969-2.437-2.57 0-5.644 2.172-5.644 4.61m543.4 115.827c0 1.14.821 2.412 2.968 2.412 2.755 0 5.643-2.252 5.643-4.584 0-1.564-1.324-2.438-2.967-2.438-2.57 0-5.644 2.173-5.644 4.61m-162.92-59.568c0 1.14.821 2.412 2.967 2.412 2.756 0 5.644-2.253 5.644-4.584 0-1.564-1.325-2.439-2.967-2.439-2.57 0-5.644 2.174-5.644 4.611m143.91 62.878c0 1.139.822 2.411 2.968 2.411 2.755 0 5.644-2.252 5.644-4.584 0-1.563-1.325-2.438-2.968-2.438-2.57 0-5.644 2.173-5.644 4.61m-123.996-61.711a.99.99 0 0 1-1.06-.953c0-1.299 4.452-3.578 5.698-3.578.635 0 1.06.37 1.06.954 0 1.325-4.479 3.577-5.698 3.577m3.657-5.777c-2.57 0-5.644 2.147-5.644 4.611 0 1.14.822 2.412 2.968 2.412 2.755 0 5.644-2.253 5.644-4.584 0-1.564-1.325-2.439-2.968-2.439m101.33 70.798c0 1.14.82 2.411 2.967 2.411 2.756 0 5.644-2.251 5.644-4.583 0-1.564-1.325-2.438-2.968-2.438-2.57 0-5.644 2.173-5.644 4.61m-80.082-72.806c0 1.14.822 2.412 2.968 2.412 2.756 0 5.644-2.252 5.644-4.584 0-1.564-1.325-2.438-2.968-2.438-2.57 0-5.644 2.173-5.644 4.61M509.773 23.96c0 1.14.822 2.411 2.968 2.411 2.755 0 5.644-2.252 5.644-4.584 0-1.563-1.325-2.438-2.968-2.438-2.57 0-5.644 2.173-5.644 4.611m78.846 146.777a.99.99 0 0 1-1.06-.953c0-1.299 4.452-3.578 5.697-3.578.636 0 1.06.37 1.06.954 0 1.325-4.478 3.577-5.697 3.577m3.657-5.776c-2.57 0-5.645 2.146-5.645 4.61 0 1.14.822 2.412 2.968 2.412 2.756 0 5.645-2.253 5.645-4.584 0-1.563-1.325-2.438-2.968-2.438M268.901 43.816c0 1.14.823 2.411 2.969 2.411 2.755 0 5.644-2.252 5.644-4.584 0-1.563-1.325-2.437-2.968-2.437-2.57 0-5.645 2.172-5.645 4.61m303.782 47.497a.99.99 0 0 1-1.06-.954c0-1.298 4.452-3.578 5.697-3.578.636 0 1.06.372 1.06.955 0 1.325-4.478 3.577-5.697 3.577m3.657-5.776c-2.57 0-5.644 2.146-5.644 4.61 0 1.14.821 2.411 2.967 2.411 2.756 0 5.644-2.252 5.644-4.584 0-1.563-1.325-2.437-2.967-2.437M134.086 33.889c0 1.139.821 2.41 2.968 2.41 2.755 0 5.644-2.252 5.644-4.584 0-1.563-1.325-2.438-2.968-2.438-2.57 0-5.644 2.173-5.644 4.612m424.07 132.373c0 1.14.822 2.411 2.97 2.411 2.755 0 5.643-2.251 5.643-4.583 0-1.564-1.325-2.438-2.968-2.438-2.57 0-5.644 2.173-5.644 4.61m41.417-74.949a.99.99 0 0 1-1.06-.954c0-1.298 4.452-3.578 5.698-3.578.635 0 1.06.372 1.06.955 0 1.325-4.479 3.577-5.698 3.577m3.657-5.776c-2.57 0-5.644 2.146-5.644 4.61 0 1.14.821 2.411 2.968 2.411 2.755 0 5.643-2.252 5.643-4.584 0-1.563-1.324-2.437-2.967-2.437m-64.084 77.416c0 1.139.821 2.411 2.968 2.411 2.756 0 5.644-2.252 5.644-4.584 0-1.563-1.325-2.438-2.967-2.438-2.57 0-5.645 2.173-5.645 4.61M245.859 44.983a.99.99 0 0 1-1.06-.954c0-1.298 4.452-3.577 5.698-3.577.635 0 1.06.371 1.06.954 0 1.325-4.478 3.578-5.698 3.578m3.657-5.777c-2.57 0-5.644 2.146-5.644 4.61 0 1.14.822 2.411 2.968 2.411 2.756 0 5.644-2.252 5.644-4.584 0-1.563-1.325-2.437-2.968-2.437m270.621 120.437c0 1.14.822 2.412 2.968 2.412 2.756 0 5.645-2.252 5.645-4.584 0-1.564-1.325-2.438-2.969-2.438-2.57 0-5.644 2.173-5.644 4.61m89.702 83.9a.99.99 0 0 1-1.06-.954c0-1.298 4.452-3.577 5.698-3.577.636 0 1.06.37 1.06.954 0 1.325-4.478 3.577-5.698 3.577m3.657-5.777c-2.57 0-5.644 2.147-5.644 4.611 0 1.14.822 2.412 2.968 2.412 2.756 0 5.644-2.253 5.644-4.585 0-1.563-1.325-2.438-2.968-2.438m-112.369-78.123c0 1.14.822 2.412 2.968 2.412 2.756 0 5.645-2.252 5.645-4.584 0-1.564-1.325-2.438-2.969-2.438-2.57 0-5.644 2.173-5.644 4.61m160.148-69.496c0 1.14.822 2.411 2.968 2.411 2.756 0 5.644-2.252 5.644-4.584 0-1.563-1.325-2.437-2.968-2.437-2.57 0-5.644 2.172-5.644 4.61m-179.157 66.187c0 1.14.821 2.411 2.967 2.411 2.757 0 5.644-2.252 5.644-4.584 0-1.563-1.325-2.438-2.968-2.438-2.57 0-5.643 2.173-5.643 4.61M493.087 23.96c0 1.14.821 2.411 2.967 2.411 2.757 0 5.644-2.252 5.644-4.584 0-1.563-1.325-2.438-2.967-2.438-2.57 0-5.644 2.173-5.644 4.611m-29.98 135.683c0 1.14.822 2.412 2.968 2.412 2.756 0 5.644-2.252 5.644-4.584 0-1.564-1.325-2.438-2.967-2.438-2.57 0-5.644 2.173-5.644 4.61m175.778 83.9a.99.99 0 0 1-1.06-.954c0-1.298 4.452-3.577 5.697-3.577.636 0 1.06.37 1.06.954 0 1.325-4.478 3.577-5.697 3.577m3.657-5.777c-2.571 0-5.644 2.147-5.644 4.611 0 1.14.821 2.412 2.967 2.412 2.756 0 5.644-2.253 5.644-4.585 0-1.563-1.325-2.438-2.967-2.438M380.332 20.651c0 1.14.821 2.411 2.968 2.411 2.755 0 5.644-2.252 5.644-4.584 0-1.563-1.325-2.438-2.968-2.438-2.57 0-5.644 2.173-5.644 4.61M150.772 33.89c0 1.139.822 2.41 2.968 2.41 2.756 0 5.644-2.252 5.644-4.584 0-1.563-1.325-2.438-2.967-2.438-2.571 0-5.645 2.173-5.645 4.612m283.861 129.064c0 1.139.822 2.411 2.968 2.411 2.756 0 5.644-2.252 5.644-4.584 0-1.563-1.325-2.438-2.968-2.438-2.57 0-5.644 2.173-5.644 4.61m-385.837 6.62c0 1.139.821 2.41 2.967 2.41 2.757 0 5.645-2.252 5.645-4.583 0-1.563-1.325-2.438-2.968-2.438-2.57 0-5.644 2.173-5.644 4.61M465.088 30.58c0 1.14.822 2.411 2.968 2.411 2.756 0 5.645-2.252 5.645-4.584 0-1.563-1.325-2.438-2.968-2.438-2.57 0-5.645 2.173-5.645 4.611m-64.615 136.849a.99.99 0 0 1-1.06-.954c0-1.298 4.452-3.577 5.698-3.577.635 0 1.06.371 1.06.954 0 1.325-4.479 3.577-5.698 3.577m3.657-5.776c-2.57 0-5.644 2.146-5.644 4.61 0 1.14.821 2.411 2.968 2.411 2.755 0 5.644-2.251 5.644-4.583 0-1.564-1.325-2.438-2.968-2.438m-336.324 4.61c0 1.14.82 2.411 2.968 2.411 2.755 0 5.644-2.251 5.644-4.583 0-1.564-1.325-2.438-2.968-2.438-2.57 0-5.644 2.173-5.644 4.61m304.152 1.166a.99.99 0 0 1-1.06-.954c0-1.298 4.452-3.577 5.697-3.577.637 0 1.06.371 1.06.954 0 1.325-4.478 3.577-5.697 3.577m3.657-5.776c-2.57 0-5.644 2.146-5.644 4.61 0 1.14.82 2.411 2.968 2.411 2.755 0 5.644-2.251 5.644-4.583 0-1.564-1.325-2.438-2.968-2.438m-288.8 7.92c0 1.139.823 2.41 2.969 2.41 2.755 0 5.644-2.252 5.644-4.583 0-1.563-1.325-2.438-2.968-2.438-2.57 0-5.645 2.173-5.645 4.61m20.998 1.166a.99.99 0 0 1-1.06-.953c0-1.299 4.452-3.578 5.697-3.578.636 0 1.06.37 1.06.954 0 1.325-4.478 3.577-5.697 3.577m3.657-5.776c-2.57 0-5.645 2.146-5.645 4.61 0 1.14.822 2.412 2.969 2.412 2.755 0 5.643-2.253 5.643-4.584 0-1.563-1.324-2.438-2.967-2.438m55.988-134.382c0 1.14.822 2.411 2.968 2.411 2.756 0 5.645-2.252 5.645-4.584 0-1.563-1.325-2.438-2.969-2.438-2.57 0-5.644 2.173-5.644 4.611m174.038 132.374c0 1.139.822 2.411 2.968 2.411 2.756 0 5.644-2.252 5.644-4.584 0-1.563-1.325-2.438-2.967-2.438-2.571 0-5.645 2.173-5.645 4.61m-207.155 3.31c0 1.14.821 2.411 2.967 2.411 2.756 0 5.644-2.251 5.644-4.583 0-1.564-1.325-2.438-2.967-2.438-2.571 0-5.644 2.173-5.644 4.61m180.628-5.452a.99.99 0 0 1-1.06-.955c0-1.298 4.452-3.577 5.697-3.577.636 0 1.06.371 1.06.954 0 1.325-4.479 3.578-5.697 3.578m3.657-5.777c-2.57 0-5.645 2.146-5.645 4.61 0 1.14.822 2.412 2.969 2.412 2.755 0 5.643-2.252 5.643-4.584 0-1.564-1.324-2.438-2.967-2.438M214.13 35.054a.99.99 0 0 1-1.06-.954c0-1.299 4.452-3.577 5.698-3.577.636 0 1.06.37 1.06.953 0 1.325-4.478 3.578-5.698 3.578m3.657-5.777c-2.57 0-5.644 2.147-5.644 4.612 0 1.139.822 2.41 2.968 2.41 2.756 0 5.644-2.252 5.644-4.584 0-1.563-1.325-2.438-2.968-2.438m76.184 127.057c0 1.14.822 2.411 2.968 2.411 2.756 0 5.645-2.252 5.645-4.584 0-1.563-1.325-2.438-2.968-2.438-2.57 0-5.645 2.173-5.645 4.61M442.046 35.055a.99.99 0 0 1-1.06-.954c0-1.299 4.452-3.577 5.698-3.577.635 0 1.06.37 1.06.953 0 1.325-4.479 3.578-5.698 3.578m3.657-5.777c-2.57 0-5.644 2.147-5.644 4.612 0 1.139.822 2.41 2.968 2.41 2.755 0 5.644-2.252 5.644-4.584 0-1.563-1.325-2.438-2.968-2.438M193.317 164.118a.99.99 0 0 1-1.06-.953c0-1.299 4.452-3.578 5.698-3.578.635 0 1.06.372 1.06.955 0 1.324-4.479 3.576-5.698 3.576m3.657-5.776c-2.57 0-5.644 2.147-5.644 4.61 0 1.14.821 2.412 2.968 2.412 2.755 0 5.643-2.252 5.643-4.584 0-1.563-1.324-2.438-2.967-2.438m77.988-5.318c0 1.14.821 2.412 2.967 2.412 2.757 0 5.645-2.252 5.645-4.584 0-1.564-1.325-2.438-2.969-2.438-2.57 0-5.643 2.173-5.643 4.61m-110.16 11.094a.99.99 0 0 1-1.06-.953c0-1.299 4.452-3.578 5.698-3.578.635 0 1.06.372 1.06.955 0 1.324-4.479 3.576-5.698 3.576m3.657-5.776c-2.57 0-5.644 2.147-5.644 4.61 0 1.14.822 2.412 2.968 2.412 2.755 0 5.644-2.252 5.644-4.584 0-1.563-1.325-2.438-2.968-2.438m87.493-2.008c0 1.14.821 2.411 2.967 2.411 2.757 0 5.645-2.252 5.645-4.584 0-1.563-1.325-2.438-2.968-2.438-2.57 0-5.644 2.173-5.644 4.61m-28.475 3.31c0 1.14.821 2.412 2.968 2.412 2.756 0 5.644-2.252 5.644-4.584 0-1.564-1.325-2.438-2.968-2.438-2.57 0-5.644 2.173-5.644 4.61M499.17 232.45c0 1.14.821 2.411 2.968 2.411 2.755 0 5.644-2.252 5.644-4.584 0-1.563-1.325-2.437-2.968-2.437-2.57 0-5.644 2.172-5.644 4.61M410.317 28.435a.99.99 0 0 1-1.06-.953c0-1.299 4.452-3.578 5.697-3.578.637 0 1.06.372 1.06.954 0 1.325-4.478 3.577-5.697 3.577m3.657-5.776c-2.57 0-5.644 2.147-5.644 4.61 0 1.14.82 2.412 2.968 2.412 2.755 0 5.644-2.253 5.644-4.584 0-1.564-1.325-2.438-2.968-2.438m44.945 192.13v22.107h.662V214.79Zm-231.442-55.146v20.398h.662v-20.398zm47.485-6.62v22.054h.662v-22.053zm-112.147 9.929v18.744h.662v-18.744zm131.157-6.619v22.053h.662v-22.053ZM448.002 9.61v22.107h.661V9.61ZM191.33 162.952v18.744h.662v-18.744ZM220.085 9.61v22.107h.662V9.61Zm92.897 150.033v20.398h.662v-20.398zm28.514 3.309v18.744h.662v-18.744Zm-199.214-19.313v20.451h.662V143.64ZM175.402 6.3v22.106h.661V6.301Zm-61.634 138.993V167.4h.662v-22.106zm264.145-1.655v20.451h.662V143.64zm-283.155 1.655V167.4h.662v-22.106zm311.67-1.655v20.451h.662V143.64zm-330.68 0v20.451h.662V143.64Zm358.885 19.313v18.744h.662v-18.744ZM56.738 145.294V167.4h.662v-22.106ZM158.714 9.61v22.107h.663V9.61Zm304.393 150.033v20.398h.662v-20.398zm19.01-3.31v22.053h.662v-22.053ZM473.031 6.301v22.106h.662V6.301Zm-56.759-1.655v20.452h.662V4.646Zm76.814 19.313v18.744h.662V23.96ZM644.84 218.1v22.107h.663v-22.108ZM509.773 23.958v18.744h.662V23.96Zm-257.958-4.421v22.106h.662V19.538Zm249.312 140.105v20.398h.662v-20.398Zm160.148-69.497v20.399h.662V90.146Zm-45.48 127.952v22.108h.661v-22.108zm-95.657-58.455v20.398h.662v-20.398zm19.01 3.309v18.744h.661v-18.744ZM276.843 19.538v22.106h.662V19.538Zm289.255 124.1v20.452h.663V143.64zm31.488-53.492v20.399h.662V90.146ZM142.027 9.61v22.107h.663V9.61Zm428.668 80.536v20.399h.662V90.146ZM526.46 20.65v20.399h.663v-20.4Zm68.115 124.644V167.4h.662v-22.106ZM71.38 22.847v25.416h.662V22.847ZM630.721 143.64v20.451h.662V143.64Zm-88.024-50.183V112.2h.662V93.456Zm99.092 69.496v18.744h.662v-18.744Zm-118.04-87.155v22.106h.661V75.797Zm137.05 83.846v20.398h.662v-20.398ZM505.82 75.797v22.106h.662V75.797Zm37.324-55.147v20.399h.662v-20.4Zm-55.252 58.456v22.107h.662V79.106Zm99.904 140.607v20.493h.662v-20.493ZM469.966 82.415v22.107h.662V82.415ZM304.842 19.538v22.106h.663V19.538Zm254.99 4.421v18.744h.662V23.96Zm15.055 194.18v18.757h.662V218.14ZM441.968 85.725v22.106h.662V85.725Zm142.493-81.08v20.453h.662V4.646Zm-38.62 208.49v20.452h.662v-20.452ZM380.33 20.65v20.399h.663v-20.4Zm27.547 68.384v22.107h.663V89.034ZM518.534 229.14v20.399h.662v-20.4ZM604.516 17.34v22.054h.662V17.34ZM380.987 89.034v22.107h.662V89.034ZM48.797 225.83v22.054h.661v-22.054ZM321.528 9.61v22.108h.662V9.61ZM68.16 229.14v20.399h.663v-20.4zm431.01 3.31v18.743h.663v-18.744ZM352.99 89.033v22.107h.663V89.034ZM87.525 232.448v18.744h.662v-18.744ZM192.087 4.646v20.452h.662V4.646Zm-77.256 208.49v20.45h.662v-20.45Zm202.304-130.72v22.106h.662V82.415ZM134.195 214.79v22.106h.662V214.79ZM299.207 75.797v22.106h.662V75.797ZM153.56 218.098v22.108h.662v-22.108ZM281.28 79.106v22.107h.662V79.106ZM125.342 19.538v22.106h.662V19.538Zm138.01 62.877v22.107h.663V82.415Zm-80.964 138.993v22.106h.662v-22.106ZM338.215 4.646v20.452h.662V4.646Zm-119.006 223.38v22.107h.663v-22.106Zm16.145-142.301v22.106h.662V85.725Zm252.394 127.41v20.452h.662v-20.452ZM644.188 16.23v22.106h.662V16.229ZM208.463 89.034v22.107h.662V89.034Zm31.85 140.105v20.399h.662v-20.4Zm428.905-216.22v22.106h.662V12.92ZM166.43 90.146v20.399h.662V90.146ZM363.645 23.96v18.744h.662V23.96Zm-8.744-19.313v20.452h.662V4.646Zm-85.759 221.183v22.054h.662v-22.054ZM146.376 79.106v22.107h.662V79.106Zm142.13 143.414v22.053h.662V222.52ZM128.448 75.797v22.106h.662V75.797ZM307.87 219.21v22.054h.662V219.21ZM110.52 74.142v20.452h.663V74.142ZM327.236 222.52v22.053h.662V222.52ZM92.593 74.142v20.452h.662V74.142ZM356.281 219.21v22.054h.662V219.21ZM74.666 75.797v22.106h.662V75.797Zm33.99-52.95v25.416h.662V22.847ZM56.738 79.106v22.107h.662V79.106ZM385.11 219.21v22.054h.662V219.21zm29.047 0v22.054h.662V219.21ZM255.95 156.333v22.053h.662v-22.053zm79.111-70.608v22.106h.662V85.725Zm-40.346-43.551v1.059h12.974v-1.06Zm-196.187 0v1.059h12.974v-1.06Zm-37.275 6.619v1.059h12.973v-1.06zm37.275 0v1.059h12.974v-1.06Zm-37.275-6.62v1.06h12.973v-1.06Zm137.082 69.497v1.06h12.974v-1.06zm10.747 138.993v1.059h12.974v-1.06zm133.78-138.993v1.06h12.974v-1.06zm27.998 0v1.06h12.973v-1.06zM115.215 42.174v1.059h12.974v-1.06Zm282.537 69.496v1.06h12.974v-1.06zM241.688 42.174v1.059h12.974v-1.06Zm25.03 0v1.059h12.973v-1.06Zm4.712 108.678c0 2.093-1.087 3.206-2.624 4.425l.08-5.167c.053-.238.45-1.007 1.51-1.007.954 0 1.034.9 1.034 1.457zm-.318-3.047c-1.325 0-2.094.821-2.226.98l.106-8.506c0-.211-.16-.37-.37-.37h-.32c-.21 0-.37.159-.37.37l.132 15.925c0 .212.16.372.372.372a.6.6 0 0 0 .212-.053c2.278-1.14 4.663-3.313 4.663-6.042 0-1.378-.636-2.676-2.2-2.676m265.484-52.89v-4.347l3.074-.874v4.372zm3.657-7.42a.3.3 0 0 0-.212-.08c-.027 0-.08.027-.106.027l-3.34.928v-4.638h-.741v13.117c0 .213.16.345.371.345h.106l3.339-.927v4.636h.715V87.786c0-.106-.053-.238-.132-.291m72.43 158.472a.17.17 0 0 0-.105.012.17.17 0 0 0-.105-.01l-.002.021-.02.002a.17.17 0 0 0 .01.105.17.17 0 0 0-.009.105c2.825 3.358 8.41 5.003 13.988 5.003s11.163-1.645 13.987-5.003a.165.165 0 0 0-.23-.235c-2.71 2.186-8.235 3.318-13.757 3.318s-11.048-1.132-13.757-3.318zm1.167 1.16c3.05 1.674 7.816 2.489 12.59 2.489s9.54-.815 12.59-2.489c-2.95 2.483-7.767 3.747-12.59 3.747s-9.64-1.264-12.59-3.747m-1.271-1.031c5.545 4.473 22.178 4.473 27.722 0-5.544 6.59-22.177 6.59-27.722 0m-208.127-37.937c-5.577 0-11.163 1.644-13.988 5.001a.165.165 0 0 0 0 .193l-.002.017.015.008.008.015a.2.2 0 0 0 .046.015.2.2 0 0 0 .058.018.2.2 0 0 0 .059-.017.2.2 0 0 0 .047-.014c2.71-2.185 8.235-3.317 13.757-3.317s11.049 1.132 13.758 3.317a.165.165 0 0 0 .23-.235c-2.824-3.357-8.41-5.001-13.988-5.001zm0 .33c4.823 0 9.64 1.264 12.59 3.746-3.05-1.673-7.816-2.488-12.59-2.488s-9.54.815-12.59 2.488c2.95-2.482 7.767-3.746 12.59-3.746m-13.862 4.777c5.545-6.59 22.179-6.59 27.723 0-5.544-4.471-22.178-4.471-27.723 0M588.96 80.194c-5.14 0-10.285 1.27-12.9 3.891v.019a.17.17 0 0 0-.025.183l.025.006v.026a.17.17 0 0 0 .183.02l.018.005c2.495-1.484 7.602-2.259 12.7-2.259s10.204.775 12.699 2.26a.165.165 0 0 0 .202-.26c-2.616-2.62-7.76-3.891-12.902-3.891m0 .33c4.477 0 8.948 1.001 11.66 2.948-2.811-1.157-7.228-1.717-11.66-1.717s-8.848.56-11.659 1.717c2.712-1.947 7.183-2.948 11.66-2.948m-12.783 3.678c5.113-5.124 20.454-5.124 25.567 0-5.113-3.043-20.454-3.043-25.567 0m-198.42 32.665a.2.2 0 0 0-.042.022.2.2 0 0 0-.046.014l-.008.014-.015.008a.2.2 0 0 0-.015.047.2.2 0 0 0-.018.058.2.2 0 0 0 .017.06.2.2 0 0 0 .013.045c2.607 3.256 7.765 4.852 12.913 4.852s10.305-1.596 12.912-4.852a.165.165 0 0 0-.235-.23c-2.494 2.1-7.587 3.19-12.677 3.19s-10.183-1.09-12.677-3.19a.2.2 0 0 0-.046-.014.2.2 0 0 0-.059-.019l-.016-.005zm1.235 1.193c2.819 1.591 7.188 2.365 11.564 2.365s8.744-.774 11.563-2.365c-2.721 2.382-7.138 3.596-11.563 3.596s-8.842-1.214-11.564-3.596m-1.22-1.028c5.113 4.304 20.454 4.304 25.567 0-5.113 6.386-20.454 6.386-25.567 0m-3.077 52.784a.17.17 0 0 0-.116.051v.026l-.024.007a.17.17 0 0 0 .028.183v.018c2.78 2.663 8.246 3.955 13.71 3.955s10.931-1.292 13.71-3.955a.165.165 0 0 0-.196-.263c-2.658 1.512-8.091 2.3-13.514 2.3-5.422 0-10.856-.788-13.513-2.3l-.018.005a.2.2 0 0 0-.068-.026zm1.171.895c2.984 1.183 7.698 1.757 12.427 1.757 4.73 0 9.444-.574 12.428-1.757-2.885 1.99-7.654 3.014-12.428 3.014s-9.543-1.024-12.427-3.014m-1.168-.73c5.438 3.096 21.752 3.096 27.19 0-5.438 5.213-21.752 5.213-27.19 0m-192.806-18.19c-5.473 0-10.955 1.683-13.725 5.113a.165.165 0 0 0 .004.194v.017l.014.007.008.014a.2.2 0 0 0 .047.014.2.2 0 0 0 .059.017.2.2 0 0 0 .058-.019.2.2 0 0 0 .047-.014c2.656-2.256 8.073-3.424 13.488-3.424s10.832 1.168 13.49 3.424a.165.165 0 0 0 .235-.23c-2.77-3.43-8.252-5.113-13.725-5.113zm0 .331c4.72 0 9.431 1.286 12.326 3.813-2.993-1.718-7.656-2.556-12.326-2.556s-9.333.838-12.327 2.556c2.895-2.527 7.607-3.813 12.327-3.813m-13.596 4.886c5.438-6.735 21.753-6.735 27.191 0-5.438-4.618-21.753-4.618-27.19 0M317.918 38.569a.165.165 0 0 0-.19.12c-.857 3.23-3.348 6.084-6.446 7.927s-6.795 2.67-10.041 1.884a.17.17 0 0 0-.092.055.17.17 0 0 0-.1.041l.007.016-.015.01a.17.17 0 0 0 .056.091.17.17 0 0 0 .041.1c7.636 3.219 16.1-1.818 16.915-10.065a.165.165 0 0 0-.135-.179zm-.506 1.924c-1.593 6.383-8.067 10.235-14.436 8.589 2.858.2 5.874-.634 8.475-2.182s4.774-3.8 5.96-6.407m-16.21 8.167c6.6 1.6 14.944-3.364 16.686-9.928a12.01 12.01 0 0 1-16.686 9.928m-31.217 88.535a8 8 0 0 0-.684.01c-3.642.216-7.107 3.006-9.2 8.226l.003.009a.165.165 0 0 0 .076.2h.01l.002.006.01-.004a.165.165 0 0 0 .2-.076c2.11-4.23 5.498-6.46 8.999-6.667 3.5-.207 7.13 1.609 9.724 5.558a.165.165 0 0 0 .283-.17c-2.526-4.627-5.998-6.992-9.423-7.092zm-.009.33c2.574.076 5.198 1.49 7.41 4.288-2.371-2.329-5.221-3.409-8.004-3.244s-5.484 1.572-7.565 4.163c2.026-3.297 4.725-5.032 7.504-5.197q.327-.018.655-.01zm-9.722 7.967c4.155-10.36 13.66-10.922 19.01-1.126-5.242-7.978-14.747-7.417-19.01 1.126m218.719-1.105c-4.971 0-9.786 2.971-11.718 8.129a.165.165 0 0 0 .069.186l.004.015.014.002.01.01.014-.006a.165.165 0 0 0 .187-.066c1.683-2.943 4.879-5.106 8.409-6.126s7.387-.895 10.38.696a.165.165 0 0 0 .178-.277 12.4 12.4 0 0 0-7.547-2.562zm-.693.345c2.2-.124 4.456.354 6.52 1.495-2.765-.926-5.96-.873-8.93-.015s-5.7 2.518-7.545 4.777c2.086-3.792 5.92-6.03 9.955-6.257m-10.87 7.842c2.907-7.76 12.412-10.507 19.01-5.494-6.085-3.235-15.59-.488-19.01 5.494M89.058 101.482a.165.165 0 0 0-.225.015c-3.837 4.087-10.227 6.971-16.924 8.207s-13.695.824-18.738-1.625a.17.17 0 0 0-.103.036.17.17 0 0 0-.107.022l.003.014-.014.005a.17.17 0 0 0 .036.103.17.17 0 0 0 .021.107c5.329 3.543 12.493 4.473 19.25 3.226 6.758-1.248 13.118-4.674 16.831-9.886a.165.165 0 0 0-.03-.224m-1.738 1.883c-3.739 4.092-9.276 6.822-15.123 7.902-5.846 1.079-11.993.505-16.946-1.983 4.85 1.663 10.897 1.82 16.718.745 5.822-1.074 11.414-3.38 15.351-6.664m-34.221 4.863c10.181 4.943 28.109 1.633 35.855-6.618-7.362 10.334-25.29 13.644-35.855 6.618m243.03 98.964a35 35 0 0 0-4.115.23c-7.295.835-14.335 3.936-18.695 9.047a.165.165 0 0 0 .004.205l-.001.014h.008l.007.015a.17.17 0 0 0 .109-.01.17.17 0 0 0 .11.006c4.405-3.983 11.441-6.543 18.676-7.372 7.236-.828 14.668.075 19.86 2.959a.165.165 0 0 0 .179-.278c-4.39-3.245-10.203-4.796-16.141-4.816zm-.001.332c4.975.017 9.856 1.121 13.855 3.394-5.045-2.064-11.49-2.64-17.788-1.918-6.3.72-12.447 2.739-16.895 5.89 4.305-3.969 10.428-6.416 16.752-7.14a35 35 0 0 1 4.076-.226m-22.684 9.053c8.648-10.14 28.012-12.358 38.728-4.435-10.475-5.819-29.839-3.601-38.728 4.435M106.886 101.445a.17.17 0 0 0-.087.033l-.014-.002-.006.01-.01.004-.002.014a.165.165 0 0 0-.02.202c3.712 5.212 10.072 8.638 16.83 9.886s13.921.317 19.25-3.226a.165.165 0 0 0-.163-.286c-5.044 2.448-12.042 2.86-18.739 1.624-6.696-1.236-13.086-4.12-16.923-8.207a.17.17 0 0 0-.116-.052zm1.628 1.92c3.937 3.285 9.53 5.59 15.351 6.664 5.822 1.075 11.868.918 16.718-.744-4.953 2.487-11.1 3.06-16.946 1.982-5.847-1.08-11.385-3.81-15.123-7.903m-1.633-1.755c7.746 8.251 25.674 11.56 35.855 6.618-10.566 7.026-28.494 3.716-35.855-6.618m533.724 49.637c-3.327.125-6.51 2.47-7.067 6.267a.165.165 0 0 0 .109.17l.007.012.008-.004.015.01a.17.17 0 0 0 .087-.064.17.17 0 0 0 .096-.052c.648-2.146 2.793-3.807 5.232-4.563s5.148-.598 6.896.806a.165.165 0 0 0 .225-.241 7.18 7.18 0 0 0-5.608-2.34zm.005.32a6.86 6.86 0 0 1 4.009 1.12c-1.695-.63-3.743-.563-5.624.02-1.882.582-3.608 1.686-4.65 3.163 1.086-2.625 3.62-4.207 6.265-4.304m-6.908 5.97c.873-5.946 8.308-8.25 12.39-3.838-3.615-2.904-11.05-.601-12.39 3.839m-149.366-49.453a.165.165 0 0 0-.218.05c-1.793 2.63-4.907 4.363-8.232 4.977s-6.852.106-9.465-1.71a.165.165 0 0 0-.198.02h-.015v.01l-.017.011a.165.165 0 0 0 .02.198v.016c5.716 5.525 14.825 3.844 18.193-3.359a.165.165 0 0 0-.068-.213zm-1.11 1.628c-3.452 5.183-10.335 6.453-15.41 2.844 2.45 1.13 5.357 1.392 8.13.88s5.396-1.795 7.28-3.724m-16.9 1.825c5.317 3.694 14.281 2.04 17.928-3.31-3.323 7.108-12.287 8.763-17.927 3.31m-327.91-72.969a.165.165 0 0 0-.189.12c-.856 3.23-3.348 6.084-6.445 7.927s-6.795 2.67-10.042 1.884l-.013.008a.165.165 0 0 0-.178.088v.02l-.008.005.008.014a.165.165 0 0 0 .088.178c7.636 3.219 16.1-1.818 16.915-10.065a.165.165 0 0 0-.135-.179zm-.506 1.925a11.817 11.817 0 0 1-14.434 8.588c2.857.2 5.873-.634 8.475-2.182 2.6-1.548 4.773-3.8 5.96-6.406m-16.209 8.166c6.6 1.6 14.944-3.364 16.686-9.928a12.01 12.01 0 0 1-16.686 9.928M497.763 220.72a7 7 0 0 0-1.898.296c-2.447.737-4.484 2.823-5.298 5.978a.17.17 0 0 0 .055.092.17.17 0 0 0 .039.1l.02.001.005.008a.2.2 0 0 0 .05-.007.2.2 0 0 0 .062-.009.2.2 0 0 0 .044-.042.2.2 0 0 0 .037-.035c2.018-4.592 8.285-6.48 12.505-3.767a.165.165 0 0 0 .2-.262c-1.816-1.635-3.873-2.39-5.82-2.353zm.007.33c1.366-.027 2.79.371 4.149 1.204-3.665-1.316-8.088.016-10.417 3.137.978-2.1 2.59-3.496 4.458-4.059a6.7 6.7 0 0 1 1.81-.283m-7.043 5.985c1.604-6.215 7.976-8.134 12.746-3.838-4.311-2.773-10.683-.853-12.746 3.838M171.857 37.472a.165.165 0 0 0-.223.03c-1.903 2.291-4.915 3.584-8.005 3.792-3.09.209-6.249-.668-8.442-2.684a.2.2 0 0 0-.048-.018.2.2 0 0 0-.058-.02.2.2 0 0 0-.06.016.2.2 0 0 0-.048.014l-.007.012-.013.006a.2.2 0 0 0-.017.047.2.2 0 0 0-.022.059.2.2 0 0 0 .017.059.2.2 0 0 0 .014.049c2.323 2.955 5.61 4.298 8.793 4.083s6.26-1.986 8.166-5.226a.165.165 0 0 0-.048-.219zm-1.309 1.544c-1.828 2.189-4.29 3.4-6.832 3.571s-5.145-.698-7.25-2.622c2.093 1.282 4.66 1.83 7.185 1.66s4.995-1.057 6.897-2.61m-15.473-.284c4.468 4.105 12.81 3.543 16.686-1.125-3.759 6.392-12.102 6.954-16.686 1.125m350.658-28.78c-3.183 0-6.365 1.56-8.48 4.661a.17.17 0 0 0 .02.105.17.17 0 0 0 .003.108h.018l.003.017a.17.17 0 0 0 .105-.02.17.17 0 0 0 .108-.003c2.047-2.156 5.133-3.242 8.223-3.242s6.175 1.086 8.223 3.242a.165.165 0 0 0 .256-.207c-2.115-3.101-5.297-4.66-8.48-4.66m0 .331c2.54 0 5.072 1.041 7.038 3.1-1.997-1.419-4.514-2.136-7.038-2.136s-5.042.717-7.039 2.135c1.966-2.058 4.498-3.099 7.039-3.099m-8.343 4.423c4.171-6.118 12.514-6.118 16.685 0-4.171-4.391-12.514-4.391-16.685 0M68.137 212.474c-5.504-.07-10.887 1.19-15.129 3.964a.2.2 0 0 0-.03.044.2.2 0 0 0-.035.051.2.2 0 0 0 .004.063.2.2 0 0 0 .003.053l.007.003.003.016a.17.17 0 0 0 .108.022.17.17 0 0 0 .103.036c5.384-2.602 12.913-3.091 20.149-1.854 7.236 1.236 14.175 4.198 18.39 8.44a.165.165 0 0 0 .248-.216c-4.106-5.367-11.02-8.87-18.315-10.116a35.4 35.4 0 0 0-5.506-.506zm-.004.331c1.817.023 3.647.191 5.454.5 6.325 1.081 12.353 3.878 16.468 8.097-4.303-3.41-10.38-5.78-16.68-6.857s-12.818-.86-18.009.928c3.773-1.866 8.226-2.724 12.767-2.668M53.1 216.577c11.219-7.337 30.582-4.028 38.728 6.619-8.502-8.56-27.866-11.869-38.728-6.62M483.622 9.247v27.203h1.191V9.246Zm-280.943 0v27.203h1.19V9.246Zm43.808 138.993v27.202h1.191V148.24Zm433.322-69.497v27.203H681V78.742ZM360.507 148.24v27.202h1.19V148.24Zm292.497-52.586c0-.768-.61-1.405-1.378-1.405-.769 0-1.378.637-1.378 1.405 0 .769.609 1.404 1.378 1.404s1.378-.635 1.378-1.404m0-6.619c0-.768-.61-1.404-1.378-1.404-.769 0-1.378.636-1.378 1.404 0 .769.609 1.404 1.378 1.404s1.378-.635 1.378-1.404m-6.396-10.292v27.203h1.19V78.742Zm-6.089 0v27.203h3.64V78.742ZM453.643 148.24v27.202h1.191V148.24Zm186.876-69.497v27.203h3.64V78.742Zm-3.64 0v27.203h1.19V78.742Zm-2.448 16.911c0-.768-.609-1.405-1.377-1.405-.769 0-1.378.637-1.378 1.405 0 .769.61 1.404 1.378 1.404s1.377-.635 1.377-1.404m0-6.619c0-.768-.609-1.404-1.377-1.404-.769 0-1.378.636-1.378 1.404 0 .769.61 1.404 1.378 1.404s1.377-.635 1.377-1.404m-57.264 59.205v27.202h1.192V148.24Zm-15.936-69.497v27.203h1.191V78.742Zm118.578 69.497v27.202H681V148.24ZM287.435 9.246v27.203h1.191V9.246Zm-122.454 208.49v27.202h1.191v-27.203ZM452.559 78.741v27.203h1.191V78.742ZM259.678 217.735v27.203h1.19v-27.203ZM363.58 78.742v27.203h1.19V78.742Zm12.064 138.993v27.203h1.191v-27.203Zm-129.7-138.993v27.203h1.191V78.742ZM91.249 9.246v27.203h1.19V9.246Zm65.718 69.496v27.203h1.19V78.742ZM470.34 217.735v27.203h1.19v-27.203ZM679.809 9.245V36.45H681V9.246Zm-81.421 208.49v27.203h1.19v-27.203Zm-3.336-208.49V36.45h1.19V9.246Zm-196.186 0V36.45h1.19V9.246Zm278.494 208.49v27.203H681v-27.203zm-3.64 0v27.203h1.191v-27.203ZM153.35 148.24v27.202h1.192V148.24ZM0 244.209v.728h681v-.728zm0-6.618v.728h681v-.728zm0-6.619v.728h681v-.728zm0-6.618v.727h681v-.727zm0-6.62v.728h681v-.727zm0-43.02v.727h681v-.728zm0-6.619v.728h681v-.728zm0-6.619v.728h681v-.728zm0-6.619v.728h681v-.728zm0-6.619v.728h681v-.728zm0-43.021v.728h681v-.728zm0-6.618v.727h681V98.6zm0-6.62v.729h681v-.728zm0-6.618v.728h681v-.728zm0-6.619v.728h681v-.728Zm0-43.021v.727h681v-.727zm0-6.619v.728h681v-.728zm0-6.619v.728h681v-.728zm0-6.618v.727h681v-.727Zm0-6.619v.728h681v-.728Z"/>
</svg>
