<?xml version="1.0" encoding="UTF-8" standalone="no"?>
<svg width="210.058mm" height="296.926mm" viewBox="0 0 9924 14028"
 xmlns="http://www.w3.org/2000/svg" xmlns:xlink="http://www.w3.org/1999/xlink" version="1.2" baseProfile="full">
<title>air_XXXVII</title>
<desc>Generated by MuseScore Studio 4.7.3</desc>
<polyline class="StaffLines" fill="none" stroke="#000000" stroke-width="9.09" stroke-linejoin="bevel" points="708.661,860.47 9215.34,860.47" />
<polyline class="StaffLines" fill="none" stroke="#000000" stroke-width="9.09" stroke-linejoin="bevel" points="708.661,943.147 9215.34,943.147" />
<polyline class="StaffLines" fill="none" stroke="#000000" stroke-width="9.09" stroke-linejoin="bevel" points="708.661,1025.82 9215.34,1025.82" />
<polyline class="StaffLines" fill="none" stroke="#000000" stroke-width="9.09" stroke-linejoin="bevel" points="708.661,1108.5 9215.34,1108.5" />
<polyline class="StaffLines" fill="none" stroke="#000000" stroke-width="9.09" stroke-linejoin="bevel" points="708.661,1191.18 9215.34,1191.18" />
<polyline class="StaffLines" fill="none" stroke="#000000" stroke-width="9.09" stroke-linejoin="bevel" points="708.661,1728.58 9215.34,1728.58" />
<polyline class="StaffLines" fill="none" stroke="#000000" stroke-width="9.09" stroke-linejoin="bevel" points="708.661,1811.26 9215.34,1811.26" />
<polyline class="StaffLines" fill="none" stroke="#000000" stroke-width="9.09" stroke-linejoin="bevel" points="708.661,1893.93 9215.34,1893.93" />
<polyline class="StaffLines" fill="none" stroke="#000000" stroke-width="9.09" stroke-linejoin="bevel" points="708.661,1976.61 9215.34,1976.61" />
<polyline class="StaffLines" fill="none" stroke="#000000" stroke-width="9.09" stroke-linejoin="bevel" points="708.661,2059.29 9215.34,2059.29" />
<polyline class="BarLine" fill="none" stroke="#000000" stroke-width="14.88" stroke-linejoin="bevel" points="5322.41,855.923 5322.41,1195.73" />
<polyline class="BarLine" fill="none" stroke="#000000" stroke-width="14.88" stroke-linejoin="bevel" points="9131.84,1724.03 9131.84,2063.84" />
<polyline class="BarLine" fill="none" stroke="#000000" stroke-width="45.47" stroke-linejoin="bevel" points="9192.6,1724.03 9192.6,2063.84" />
<polyline class="BarLine" fill="none" stroke="#000000" stroke-width="14.88" stroke-linejoin="bevel" points="8360.97,1724.03 8360.97,2063.84" />
<polyline class="BarLine" fill="none" stroke="#000000" stroke-width="14.88" stroke-linejoin="bevel" points="7327.49,1724.03 7327.49,2063.84" />
<polyline class="BarLine" fill="none" stroke="#000000" stroke-width="14.88" stroke-linejoin="bevel" points="2034.48,855.923 2034.48,1195.73" />
<polyline class="BarLine" fill="none" stroke="#000000" stroke-width="14.88" stroke-linejoin="bevel" points="5751.12,1724.03 5751.12,2063.84" />
<polyline class="BarLine" fill="none" stroke="#000000" stroke-width="14.88" stroke-linejoin="bevel" points="4412.55,1724.03 4412.55,2063.84" />
<polyline class="BarLine" fill="none" stroke="#000000" stroke-width="14.88" stroke-linejoin="bevel" points="2870.6,1724.03 2870.6,2063.84" />
<polyline class="BarLine" fill="none" stroke="#000000" stroke-width="14.88" stroke-linejoin="bevel" points="4181.59,855.923 4181.59,1195.73" />
<polyline class="BarLine" fill="none" stroke="#000000" stroke-width="14.88" stroke-linejoin="bevel" points="6463.24,855.923 6463.24,1195.73" />
<polyline class="BarLine" fill="none" stroke="#000000" stroke-width="14.88" stroke-linejoin="bevel" points="7750.35,855.923 7750.35,1195.73" />
<polyline class="BarLine" fill="none" stroke="#000000" stroke-width="14.88" stroke-linejoin="bevel" points="9207.9,855.923 9207.9,1195.73" />
<polyline class="BarLine" fill="none" stroke="#000000" stroke-width="14.88" stroke-linejoin="bevel" points="3175.3,855.923 3175.3,1195.73" />
<path class="SlurSegment" stroke="#000000" stroke-width="4.13" stroke-linecap="round" stroke-linejoin="round" fill-rule="evenodd" d="M5915.65,1654.17 C6101.31,1557.8 6423.6,1619.81 6560.24,1778.19 C6418.6,1645.79 6096.31,1583.78 5915.65,1654.17"/>
<path class="Accidental" d="M6227.55,1786.76 L6257.01,1780.81 L6257.01,1835.42 L6227.55,1841.71 L6227.55,1786.76 M6278.85,1776.5 C6280.84,1776.17 6282.49,1773.85 6282.49,1771.87 L6282.49,1752.34 C6282.49,1749.69 6280.51,1747.71 6277.86,1747.71 L6277.2,1747.71 L6266.27,1750.02 L6266.27,1700.7 L6257.01,1700.7 L6257.01,1752.01 L6227.55,1757.97 L6227.55,1711.3 L6218.28,1711.3 L6218.28,1759.95 L6205.37,1762.6 C6203.38,1762.93 6201.73,1765.25 6201.73,1767.23 L6201.73,1786.43 C6201.73,1789.08 6203.71,1791.07 6206.36,1791.07 L6207.36,1791.07 L6218.28,1788.75 L6218.28,1843.36 L6205.37,1846.01 C6203.38,1846.34 6201.73,1848.66 6201.73,1850.65 L6201.73,1869.84 C6201.73,1872.49 6203.71,1874.48 6206.36,1874.48 L6207.36,1874.48 L6218.28,1872.16 L6218.28,1921.48 L6227.55,1921.48 L6227.55,1870.18 L6257.01,1864.22 L6257.01,1910.89 L6266.27,1910.89 L6266.27,1862.23 L6278.85,1859.91 C6280.84,1859.58 6282.49,1857.27 6282.49,1855.28 L6282.49,1835.75 C6282.49,1833.1 6280.51,1831.12 6277.86,1831.12 L6277.2,1831.12 L6266.27,1833.43 L6266.27,1778.82 L6278.85,1776.5 "/>
<polyline class="LedgerLine" fill="none" stroke="#000000" stroke-width="13.23" stroke-linejoin="bevel" points="4776.39,1273.86 4938.45,1273.86" />
<polyline class="Stem" fill="none" stroke="#000000" stroke-width="8.27" stroke-linejoin="bevel" points="8901.86,1053.93 8901.86,840.279" />
<polyline class="Stem" fill="none" stroke="#000000" stroke-width="8.27" stroke-linejoin="bevel" points="1921.43,1922.05 1921.43,1666.57" />
<polyline class="Stem" fill="none" stroke="#000000" stroke-width="8.27" stroke-linejoin="bevel" points="8575.11,2046.06 8575.11,1769.92" />
<polyline class="Stem" fill="none" stroke="#000000" stroke-width="8.27" stroke-linejoin="bevel" points="4907.02,1301.97 4907.02,1025.82" />
<polyline class="Stem" fill="none" stroke="#000000" stroke-width="8.27" stroke-linejoin="bevel" points="7999.25,2004.72 7999.25,1728.58" />
<polyline class="Stem" fill="none" stroke="#000000" stroke-width="8.27" stroke-linejoin="bevel" points="7541.62,1963.38 7541.62,1687.24" />
<polyline class="Stem" fill="none" stroke="#000000" stroke-width="8.27" stroke-linejoin="bevel" points="5162.67,1053.93 5162.67,798.462" />
<polyline class="Stem" fill="none" stroke="#000000" stroke-width="8.27" stroke-linejoin="bevel" points="1711.61,1039.71 1711.61,1273.86" />
<polyline class="Stem" fill="none" stroke="#000000" stroke-width="8.27" stroke-linejoin="bevel" points="4395.72,1053.93 4395.72,798.462" />
<polyline class="Stem" fill="none" stroke="#000000" stroke-width="8.27" stroke-linejoin="bevel" points="7118.31,1922.05 7118.31,1666.57" />
<polyline class="Stem" fill="none" stroke="#000000" stroke-width="8.27" stroke-linejoin="bevel" points="5536.55,1053.93 5536.55,798.462" />
<polyline class="Stem" fill="none" stroke="#000000" stroke-width="8.27" stroke-linejoin="bevel" points="6714.01,1907.82 6714.01,2141.97" />
<polyline class="Stem" fill="none" stroke="#000000" stroke-width="8.27" stroke-linejoin="bevel" points="5792.2,1095.27 5792.2,819.132" />
<polyline class="Stem" fill="none" stroke="#000000" stroke-width="8.27" stroke-linejoin="bevel" points="6510.62,1866.49 6510.62,2079.7" />
<polyline class="Stem" fill="none" stroke="#000000" stroke-width="8.27" stroke-linejoin="bevel" points="2149.4,915.699 2149.4,1191.18" />
<polyline class="Stem" fill="none" stroke="#000000" stroke-width="8.27" stroke-linejoin="bevel" points="6204.28,1039.71 6204.28,1273.86" />
<polyline class="Stem" fill="none" stroke="#000000" stroke-width="8.27" stroke-linejoin="bevel" points="6307.23,1825.15 6307.23,2066.82" />
<polyline class="Stem" fill="none" stroke="#000000" stroke-width="8.27" stroke-linejoin="bevel" points="4045.99,1095.27 4045.99,859.992" />
<polyline class="Stem" fill="none" stroke="#000000" stroke-width="8.27" stroke-linejoin="bevel" points="6069.43,1783.81 6069.43,2051.76" />
<polyline class="Stem" fill="none" stroke="#000000" stroke-width="8.27" stroke-linejoin="bevel" points="6578.16,998.376 6578.16,1253.19" />
<polyline class="Stem" fill="none" stroke="#000000" stroke-width="8.27" stroke-linejoin="bevel" points="5866.04,1742.47 5866.04,2038.88" />
<polyline class="Stem" fill="none" stroke="#000000" stroke-width="8.27" stroke-linejoin="bevel" points="6833.81,998.376 6833.81,1253.19" />
<polyline class="Stem" fill="none" stroke="#000000" stroke-width="8.27" stroke-linejoin="bevel" points="2504.26,1177.95 2504.26,901.809" />
<polyline class="Stem" fill="none" stroke="#000000" stroke-width="8.27" stroke-linejoin="bevel" points="7089.45,998.376 7089.45,1253.19" />
<polyline class="Stem" fill="none" stroke="#000000" stroke-width="8.27" stroke-linejoin="bevel" points="5442.73,1783.81 5442.73,2059.29" />
<polyline class="Stem" fill="none" stroke="#000000" stroke-width="8.27" stroke-linejoin="bevel" points="7444.32,1012.6 7444.32,798.941" />
<polyline class="Stem" fill="none" stroke="#000000" stroke-width="8.27" stroke-linejoin="bevel" points="5137.64,1907.82 5137.64,2141.97" />
<polyline class="Stem" fill="none" stroke="#000000" stroke-width="8.27" stroke-linejoin="bevel" points="4832.56,1783.81 4832.56,2059.29" />
<polyline class="Stem" fill="none" stroke="#000000" stroke-width="8.27" stroke-linejoin="bevel" points="7614.75,1053.93 7614.75,818.654" />
<polyline class="Stem" fill="none" stroke="#000000" stroke-width="8.27" stroke-linejoin="bevel" points="4527.47,1907.82 4527.47,2141.97" />
<polyline class="Stem" fill="none" stroke="#000000" stroke-width="8.27" stroke-linejoin="bevel" points="2759.91,1095.27 2759.91,819.132" />
<polyline class="Stem" fill="none" stroke="#000000" stroke-width="8.27" stroke-linejoin="bevel" points="3875.55,1053.93 3875.55,840.279" />
<polyline class="Stem" fill="none" stroke="#000000" stroke-width="8.27" stroke-linejoin="bevel" points="7865.27,1039.71 7865.27,1294.53" />
<polyline class="Stem" fill="none" stroke="#000000" stroke-width="8.27" stroke-linejoin="bevel" points="4104.16,1783.81 4104.16,2059.29" />
<polyline class="Stem" fill="none" stroke="#000000" stroke-width="8.27" stroke-linejoin="bevel" points="3898.29,1963.38 3898.29,1687.24" />
<polyline class="Stem" fill="none" stroke="#000000" stroke-width="8.27" stroke-linejoin="bevel" points="8035.71,1081.05 8035.71,1294.53" />
<polyline class="Stem" fill="none" stroke="#000000" stroke-width="8.27" stroke-linejoin="bevel" points="3694.9,1922.05 3694.9,1708.05" />
<polyline class="Stem" fill="none" stroke="#000000" stroke-width="8.27" stroke-linejoin="bevel" points="8206.14,1039.71 8206.14,1294.53" />
<polyline class="Stem" fill="none" stroke="#000000" stroke-width="8.27" stroke-linejoin="bevel" points="3491.51,1963.38 3491.51,1714.85" />
<polyline class="Stem" fill="none" stroke="#000000" stroke-width="8.27" stroke-linejoin="bevel" points="8376.57,998.376 8376.57,1294.53" />
<polyline class="Stem" fill="none" stroke="#000000" stroke-width="8.27" stroke-linejoin="bevel" points="3288.12,2004.72 3288.12,1721.64" />
<polyline class="Stem" fill="none" stroke="#000000" stroke-width="8.27" stroke-linejoin="bevel" points="8547,1039.71 8547,1273.86" />
<polyline class="Stem" fill="none" stroke="#000000" stroke-width="8.27" stroke-linejoin="bevel" points="3084.73,1963.38 3084.73,1728.44" />
<polyline class="Stem" fill="none" stroke="#000000" stroke-width="8.27" stroke-linejoin="bevel" points="3015.56,1053.93 3015.56,798.462" />
<polyline class="Stem" fill="none" stroke="#000000" stroke-width="8.27" stroke-linejoin="bevel" points="2734.99,2004.72 2734.99,1748.85" />
<polyline class="Stem" fill="none" stroke="#000000" stroke-width="8.27" stroke-linejoin="bevel" points="4651.37,1136.61 4651.37,860.47" />
<polyline class="Stem" fill="none" stroke="#000000" stroke-width="8.27" stroke-linejoin="bevel" points="9072.3,1095.27 9072.3,859.992" />
<polyline class="Stem" fill="none" stroke="#000000" stroke-width="8.27" stroke-linejoin="bevel" points="2531.6,1963.38 2531.6,1728.98" />
<polyline class="Stem" fill="none" stroke="#000000" stroke-width="8.27" stroke-linejoin="bevel" points="3290.22,1039.71 3290.22,1273.86" />
<polyline class="Stem" fill="none" stroke="#000000" stroke-width="8.27" stroke-linejoin="bevel" points="2226.52,1922.05 2226.52,1666.57" />
<polyline class="Stem" fill="none" stroke="#000000" stroke-width="8.27" stroke-linejoin="bevel" points="1616.35,1922.05 1616.35,1666.57" />
<path class="Note" d="M2428.26,1990.51 C2428.26,2004.75 2438.52,2020.64 2465.33,2020.64 C2499.75,2020.64 2535.83,1992.5 2535.83,1963.37 C2535.83,1943.84 2519.28,1932.92 2498.76,1932.92 C2466.65,1932.92 2428.26,1960.06 2428.26,1990.51"/>
<path class="Note" d="M6709.88,1907.84 C6709.88,1922.07 6720.14,1937.96 6746.95,1937.96 C6781.38,1937.96 6817.46,1909.82 6817.46,1880.69 C6817.46,1861.17 6800.91,1850.24 6780.38,1850.24 C6748.28,1850.24 6709.88,1877.38 6709.88,1907.84"/>
<path class="Note" d="M1513,1949.18 C1513,1963.41 1523.26,1979.3 1550.07,1979.3 C1584.5,1979.3 1620.58,1951.16 1620.58,1922.03 C1620.58,1902.5 1604.03,1891.58 1583.5,1891.58 C1551.4,1891.58 1513,1918.72 1513,1949.18"/>
<path class="Note" d="M8496.59,2087.76 C8485.66,2087.76 8483.35,2078.82 8483.35,2075.84 C8483.35,2059.62 8538.95,2031.15 8554.51,2031.15 C8562.45,2031.15 8567.75,2035.79 8567.75,2043.07 C8567.75,2059.62 8511.81,2087.76 8496.59,2087.76 M8542.26,2015.6 C8510.16,2015.6 8471.76,2042.41 8471.76,2073.19 C8471.76,2087.42 8482.02,2103.31 8508.83,2103.31 C8543.26,2103.31 8579.34,2075.18 8579.34,2046.05 C8579.34,2026.52 8562.79,2015.6 8542.26,2015.6"/>
<path class="Note" d="M1818.09,1949.18 C1818.09,1963.41 1828.35,1979.3 1855.16,1979.3 C1889.58,1979.3 1925.66,1951.16 1925.66,1922.03 C1925.66,1902.5 1909.11,1891.58 1888.59,1891.58 C1856.48,1891.58 1818.09,1918.72 1818.09,1949.18"/>
<path class="Note" d="M2912.21,1081.07 C2912.21,1095.3 2922.47,1111.19 2949.28,1111.19 C2983.71,1111.19 3019.79,1083.05 3019.79,1053.92 C3019.79,1034.39 3003.24,1023.47 2982.72,1023.47 C2950.61,1023.47 2912.21,1050.61 2912.21,1081.07"/>
<path class="Note" d="M2123.17,1949.18 C2123.17,1963.41 2133.43,1979.3 2160.24,1979.3 C2194.67,1979.3 2230.75,1951.16 2230.75,1922.03 C2230.75,1902.5 2214.2,1891.58 2193.67,1891.58 C2161.57,1891.58 2123.17,1918.72 2123.17,1949.18"/>
<path class="Note" d="M8968.95,1122.4 C8968.95,1136.64 8979.21,1152.52 9006.02,1152.52 C9040.45,1152.52 9076.52,1124.39 9076.52,1095.26 C9076.52,1075.73 9059.97,1064.81 9039.45,1064.81 C9007.35,1064.81 8968.95,1091.95 8968.95,1122.4"/>
<path class="Note" d="M4548.03,1163.74 C4548.03,1177.98 4558.29,1193.86 4585.1,1193.86 C4619.52,1193.86 4655.6,1165.73 4655.6,1136.6 C4655.6,1117.07 4639.05,1106.15 4618.53,1106.15 C4586.42,1106.15 4548.03,1133.29 4548.03,1163.74"/>
<path class="Note" d="M7920.73,2046.42 C7909.81,2046.42 7907.49,2037.48 7907.49,2034.5 C7907.49,2018.28 7963.1,1989.82 7978.65,1989.82 C7986.6,1989.82 7991.89,1994.45 7991.89,2001.73 C7991.89,2018.28 7935.96,2046.42 7920.73,2046.42 M7966.41,1974.26 C7934.3,1974.26 7895.9,2001.07 7895.9,2031.85 C7895.9,2046.09 7906.17,2061.97 7932.98,2061.97 C7967.4,2061.97 8003.48,2033.84 8003.48,2004.71 C8003.48,1985.18 7986.93,1974.26 7966.41,1974.26"/>
<path class="Note" d="M3310.91,1054.29 C3299.99,1054.29 3297.67,1045.35 3297.67,1042.37 C3297.67,1026.16 3353.28,997.69 3368.84,997.69 C3376.78,997.69 3382.08,1002.32 3382.08,1009.61 C3382.08,1026.16 3326.14,1054.29 3310.91,1054.29 M3356.59,982.133 C3324.49,982.133 3286.09,1008.94 3286.09,1039.73 C3286.09,1053.96 3296.35,1069.85 3323.16,1069.85 C3357.59,1069.85 3393.66,1041.71 3393.66,1012.58 C3393.66,993.056 3377.11,982.133 3356.59,982.133"/>
<path class="Note" d="M2631.65,2031.85 C2631.65,2046.09 2641.91,2061.97 2668.72,2061.97 C2703.14,2061.97 2739.22,2033.84 2739.22,2004.71 C2739.22,1985.18 2722.67,1974.26 2702.15,1974.26 C2670.04,1974.26 2631.65,2001.4 2631.65,2031.85"/>
<path class="Note" d="M4292.38,1081.07 C4292.38,1095.3 4302.64,1111.19 4329.45,1111.19 C4363.87,1111.19 4399.95,1083.05 4399.95,1053.92 C4399.95,1034.39 4383.4,1023.47 4362.88,1023.47 C4330.77,1023.47 4292.38,1050.61 4292.38,1081.07"/>
<path class="Note" d="M2656.56,1122.4 C2656.56,1136.64 2666.82,1152.52 2693.64,1152.52 C2728.06,1152.52 2764.14,1124.39 2764.14,1095.26 C2764.14,1075.73 2747.59,1064.81 2727.07,1064.81 C2694.96,1064.81 2656.56,1091.95 2656.56,1122.4"/>
<path class="Note" d="M8542.87,1039.73 C8542.87,1053.96 8553.13,1069.85 8579.94,1069.85 C8614.36,1069.85 8650.44,1041.71 8650.44,1012.58 C8650.44,993.056 8633.89,982.133 8613.37,982.133 C8581.26,982.133 8542.87,1009.27 8542.87,1039.73"/>
<path class="Note" d="M2981.38,1990.51 C2981.38,2004.75 2991.64,2020.64 3018.46,2020.64 C3052.88,2020.64 3088.96,1992.5 3088.96,1963.37 C3088.96,1943.84 3072.41,1932.92 3051.89,1932.92 C3019.78,1932.92 2981.38,1960.06 2981.38,1990.51"/>
<path class="Note" d="M7463.1,2005.08 C7452.18,2005.08 7449.86,1996.14 7449.86,1993.16 C7449.86,1976.94 7505.47,1948.48 7521.03,1948.48 C7528.97,1948.48 7534.27,1953.11 7534.27,1960.39 C7534.27,1976.94 7478.33,2005.08 7463.1,2005.08 M7508.78,1932.92 C7476.67,1932.92 7438.28,1959.73 7438.28,1990.51 C7438.28,2004.75 7448.54,2020.64 7475.35,2020.64 C7509.77,2020.64 7545.85,1992.5 7545.85,1963.37 C7545.85,1943.84 7529.3,1932.92 7508.78,1932.92"/>
<path class="Note" d="M8372.44,998.388 C8372.44,1012.62 8382.7,1028.51 8409.51,1028.51 C8443.93,1028.51 8480.01,1000.37 8480.01,971.246 C8480.01,951.717 8463.46,940.794 8442.94,940.794 C8410.83,940.794 8372.44,967.936 8372.44,998.388"/>
<path class="Note" d="M3184.77,2031.85 C3184.77,2046.09 3195.03,2061.97 3221.85,2061.97 C3256.27,2061.97 3292.35,2033.84 3292.35,2004.71 C3292.35,1985.18 3275.8,1974.26 3255.28,1974.26 C3223.17,1974.26 3184.77,2001.4 3184.77,2031.85"/>
<path class="Note" d="M8202,1039.73 C8202,1053.96 8212.26,1069.85 8239.08,1069.85 C8273.5,1069.85 8309.58,1041.71 8309.58,1012.58 C8309.58,993.056 8293.03,982.133 8272.51,982.133 C8240.4,982.133 8202,1009.27 8202,1039.73"/>
<path class="Note" d="M3388.16,1990.51 C3388.16,2004.75 3398.42,2020.64 3425.23,2020.64 C3459.66,2020.64 3495.74,1992.5 3495.74,1963.37 C3495.74,1943.84 3479.19,1932.92 3458.67,1932.92 C3426.56,1932.92 3388.16,1960.06 3388.16,1990.51"/>
<path class="Note" d="M8031.57,1081.07 C8031.57,1095.3 8041.83,1111.19 8068.64,1111.19 C8103.07,1111.19 8139.15,1083.05 8139.15,1053.92 C8139.15,1034.39 8122.6,1023.47 8102.07,1023.47 C8069.97,1023.47 8031.57,1050.61 8031.57,1081.07"/>
<path class="Note" d="M3591.55,1949.18 C3591.55,1963.41 3601.81,1979.3 3628.62,1979.3 C3663.05,1979.3 3699.13,1951.16 3699.13,1922.03 C3699.13,1902.5 3682.58,1891.58 3662.06,1891.58 C3629.95,1891.58 3591.55,1918.72 3591.55,1949.18"/>
<path class="Note" d="M4803.67,1329.1 C4803.67,1343.33 4813.94,1359.22 4840.75,1359.22 C4875.17,1359.22 4911.25,1331.08 4911.25,1301.95 C4911.25,1282.43 4894.7,1271.5 4874.18,1271.5 C4842.07,1271.5 4803.67,1298.64 4803.67,1329.1"/>
<path class="Note" d="M3794.94,1990.51 C3794.94,2004.75 3805.2,2020.64 3832.01,2020.64 C3866.44,2020.64 3902.52,1992.5 3902.52,1963.37 C3902.52,1943.84 3885.97,1932.92 3865.45,1932.92 C3833.34,1932.92 3794.94,1960.06 3794.94,1990.51"/>
<path class="Note" d="M7861.14,1039.73 C7861.14,1053.96 7871.4,1069.85 7898.21,1069.85 C7932.64,1069.85 7968.71,1041.71 7968.71,1012.58 C7968.71,993.056 7952.16,982.133 7931.64,982.133 C7899.54,982.133 7861.14,1009.27 7861.14,1039.73"/>
<path class="Note" d="M4100.03,1783.82 C4100.03,1798.05 4110.29,1813.94 4137.1,1813.94 C4171.52,1813.94 4207.6,1785.81 4207.6,1756.68 C4207.6,1737.15 4191.05,1726.23 4170.53,1726.23 C4138.42,1726.23 4100.03,1753.37 4100.03,1783.82"/>
<path class="Note" d="M3772.21,1081.07 C3772.21,1095.3 3782.47,1111.19 3809.28,1111.19 C3843.7,1111.19 3879.78,1083.05 3879.78,1053.92 C3879.78,1034.39 3863.23,1023.47 3842.71,1023.47 C3810.6,1023.47 3772.21,1050.61 3772.21,1081.07"/>
<path class="Note" d="M2400.91,1205.08 C2400.91,1219.31 2411.18,1235.2 2437.99,1235.2 C2472.41,1235.2 2508.49,1207.07 2508.49,1177.94 C2508.49,1158.41 2491.94,1147.49 2471.42,1147.49 C2439.31,1147.49 2400.91,1174.63 2400.91,1205.08"/>
<path class="Note" d="M7511.4,1081.07 C7511.4,1095.3 7521.66,1111.19 7548.47,1111.19 C7582.9,1111.19 7618.98,1083.05 7618.98,1053.92 C7618.98,1034.39 7602.43,1023.47 7581.9,1023.47 C7549.8,1023.47 7511.4,1050.61 7511.4,1081.07"/>
<path class="Note" d="M4523.34,1907.84 C4523.34,1922.07 4533.6,1937.96 4560.41,1937.96 C4594.84,1937.96 4630.92,1909.82 4630.92,1880.69 C4630.92,1861.17 4614.37,1850.24 4593.84,1850.24 C4561.74,1850.24 4523.34,1877.38 4523.34,1907.84"/>
<path class="Note" d="M5059.32,1081.07 C5059.32,1095.3 5069.58,1111.19 5096.4,1111.19 C5130.82,1111.19 5166.9,1083.05 5166.9,1053.92 C5166.9,1034.39 5150.35,1023.47 5129.83,1023.47 C5097.72,1023.47 5059.32,1050.61 5059.32,1081.07"/>
<path class="Note" d="M4828.42,1783.82 C4828.42,1798.05 4838.69,1813.94 4865.5,1813.94 C4899.92,1813.94 4936,1785.81 4936,1756.68 C4936,1737.15 4919.45,1726.23 4898.93,1726.23 C4866.82,1726.23 4828.42,1753.37 4828.42,1783.82"/>
<path class="Note" d="M7340.97,1039.73 C7340.97,1053.96 7351.23,1069.85 7378.04,1069.85 C7412.46,1069.85 7448.54,1041.71 7448.54,1012.58 C7448.54,993.056 7431.99,982.133 7411.47,982.133 C7379.36,982.133 7340.97,1009.27 7340.97,1039.73"/>
<path class="Note" d="M5133.51,1907.84 C5133.51,1922.07 5143.77,1937.96 5170.58,1937.96 C5205.01,1937.96 5241.08,1909.82 5241.08,1880.69 C5241.08,1861.17 5224.53,1850.24 5204.01,1850.24 C5171.91,1850.24 5133.51,1877.38 5133.51,1907.84"/>
<path class="Note" d="M7085.32,998.388 C7085.32,1012.62 7095.58,1028.51 7122.39,1028.51 C7156.82,1028.51 7192.9,1000.37 7192.9,971.246 C7192.9,951.717 7176.35,940.794 7155.82,940.794 C7123.72,940.794 7085.32,967.936 7085.32,998.388"/>
<path class="Note" d="M5438.59,1783.82 C5438.59,1798.05 5448.86,1813.94 5475.67,1813.94 C5510.09,1813.94 5546.17,1785.81 5546.17,1756.68 C5546.17,1737.15 5529.62,1726.23 5509.1,1726.23 C5476.99,1726.23 5438.59,1753.37 5438.59,1783.82"/>
<path class="Note" d="M6829.67,998.388 C6829.67,1012.62 6839.93,1028.51 6866.74,1028.51 C6901.17,1028.51 6937.25,1000.37 6937.25,971.246 C6937.25,951.717 6920.7,940.794 6900.17,940.794 C6868.07,940.794 6829.67,967.936 6829.67,998.388"/>
<path class="Note" d="M2145.27,915.711 C2145.27,929.944 2155.53,945.832 2182.34,945.832 C2216.76,945.832 2252.84,917.697 2252.84,888.569 C2252.84,869.04 2236.29,858.117 2215.77,858.117 C2183.66,858.117 2145.27,885.259 2145.27,915.711"/>
<path class="Note" d="M6574.02,998.388 C6574.02,1012.62 6584.28,1028.51 6611.09,1028.51 C6645.52,1028.51 6681.6,1000.37 6681.6,971.246 C6681.6,951.717 6665.05,940.794 6644.53,940.794 C6612.42,940.794 6574.02,967.936 6574.02,998.388"/>
<path class="Note" d="M5861.91,1742.48 C5861.91,1756.72 5872.17,1772.6 5898.98,1772.6 C5933.4,1772.6 5969.48,1744.47 5969.48,1715.34 C5969.48,1695.81 5952.93,1684.89 5932.41,1684.89 C5900.3,1684.89 5861.91,1712.03 5861.91,1742.48"/>
<path class="Note" d="M1707.48,1039.73 C1707.48,1053.96 1717.74,1069.85 1744.55,1069.85 C1778.97,1069.85 1815.05,1041.71 1815.05,1012.58 C1815.05,993.056 1798.5,982.133 1777.98,982.133 C1745.87,982.133 1707.48,1009.27 1707.48,1039.73"/>
<path class="Note" d="M7014.96,1949.18 C7014.96,1963.41 7025.23,1979.3 7052.04,1979.3 C7086.46,1979.3 7122.54,1951.16 7122.54,1922.03 C7122.54,1902.5 7105.99,1891.58 7085.47,1891.58 C7053.36,1891.58 7014.96,1918.72 7014.96,1949.18"/>
<path class="Note" d="M6065.3,1783.82 C6065.3,1798.05 6075.56,1813.94 6102.37,1813.94 C6136.79,1813.94 6172.87,1785.81 6172.87,1756.68 C6172.87,1737.15 6156.32,1726.23 6135.8,1726.23 C6103.69,1726.23 6065.3,1753.37 6065.3,1783.82"/>
<path class="Note" d="M6200.15,1039.73 C6200.15,1053.96 6210.41,1069.85 6237.22,1069.85 C6271.64,1069.85 6307.72,1041.71 6307.72,1012.58 C6307.72,993.056 6291.17,982.133 6270.65,982.133 C6238.54,982.133 6200.15,1009.27 6200.15,1039.73"/>
<path class="Note" d="M6303.1,1825.16 C6303.1,1839.39 6313.36,1855.28 6340.17,1855.28 C6374.6,1855.28 6410.68,1827.15 6410.68,1798.02 C6410.68,1778.49 6394.13,1767.57 6373.6,1767.57 C6341.5,1767.57 6303.1,1794.71 6303.1,1825.16"/>
<path class="Note" d="M3942.64,1122.4 C3942.64,1136.64 3952.9,1152.52 3979.71,1152.52 C4014.14,1152.52 4050.21,1124.39 4050.21,1095.26 C4050.21,1075.73 4033.66,1064.81 4013.14,1064.81 C3981.04,1064.81 3942.64,1091.95 3942.64,1122.4"/>
<path class="Note" d="M5688.85,1122.4 C5688.85,1136.64 5699.11,1152.52 5725.92,1152.52 C5760.34,1152.52 5796.42,1124.39 5796.42,1095.26 C5796.42,1075.73 5779.87,1064.81 5759.35,1064.81 C5727.24,1064.81 5688.85,1091.95 5688.85,1122.4"/>
<path class="Note" d="M6506.49,1866.5 C6506.49,1880.73 6516.75,1896.62 6543.56,1896.62 C6577.99,1896.62 6614.07,1868.48 6614.07,1839.36 C6614.07,1819.83 6597.52,1808.9 6576.99,1808.9 C6544.89,1808.9 6506.49,1836.05 6506.49,1866.5"/>
<path class="Note" d="M5433.2,1081.07 C5433.2,1095.3 5443.46,1111.19 5470.27,1111.19 C5504.7,1111.19 5540.78,1083.05 5540.78,1053.92 C5540.78,1034.39 5524.23,1023.47 5503.7,1023.47 C5471.6,1023.47 5433.2,1050.61 5433.2,1081.07"/>
<path class="Note" d="M8798.52,1081.07 C8798.52,1095.3 8808.78,1111.19 8835.59,1111.19 C8870.01,1111.19 8906.09,1083.05 8906.09,1053.92 C8906.09,1034.39 8889.54,1023.47 8869.02,1023.47 C8836.91,1023.47 8798.52,1050.61 8798.52,1081.07"/>
<path class="Clef" d="M909.689,2044.8 C903.069,2046.12 896.78,2046.78 890.491,2046.78 C843.158,2046.78 802.776,2013.68 802.776,1963.7 C802.776,1923.32 831.242,1887.24 860.37,1862.09 C865.997,1857.12 871.293,1852.49 876.258,1847.52 C879.237,1865.4 881.554,1880.95 883.871,1894.52 C853.75,1903.46 833.228,1935.24 833.228,1966.35 C833.228,1989.52 851.433,2021.3 877.913,2021.3 C880.561,2021.3 883.54,2019.97 883.54,2016.99 C883.54,2014.02 880.23,2012.36 876.258,2009.71 C863.349,2001.77 856.067,1993.16 856.067,1976.94 C856.067,1956.75 870.962,1940.53 890.491,1935.9 L909.689,2044.8 M880.561,1704.53 C883.54,1691.29 898.766,1656.54 915.978,1656.54 C920.943,1656.54 928.887,1672.75 928.887,1695.59 C928.887,1730.02 903.4,1755.84 880.561,1778.34 C878.575,1765.1 876.92,1752.19 876.92,1738.29 C876.92,1726.05 877.913,1714.79 880.561,1704.53 M956.691,1983.56 C956.691,2007.06 947.092,2031.23 923.591,2040.83 C916.64,2001.11 907.703,1948.48 905.386,1933.91 C935.176,1933.91 956.691,1954.1 956.691,1983.56 M811.051,2146.42 C811.051,2168.26 827.932,2197.06 872.617,2197.06 C888.174,2197.06 901.745,2193.09 913.661,2185.8 C931.535,2173.23 936.169,2151.38 936.169,2130.53 C936.169,2117.62 934.183,2102.72 930.873,2083.86 C929.88,2077.24 927.894,2067.31 925.908,2054.4 C958.346,2043.81 982.509,2010.04 982.509,1975.95 C982.509,1925.97 947.092,1892.21 898.766,1892.21 C895.456,1872.35 892.146,1852.82 889.167,1834.28 C924.253,1797.54 948.416,1756.17 948.416,1703.54 C948.416,1673.42 939.148,1648.92 933.852,1637.01 C925.908,1620.13 916.309,1608.54 910.351,1608.54 C908.034,1608.54 897.773,1612.51 886.85,1625.42 C865.666,1650.58 859.708,1692.95 859.708,1720.75 C859.708,1738.62 861.363,1754.84 866.99,1791.91 C866.659,1792.25 849.447,1809.79 842.496,1815.42 C812.375,1843.55 770.669,1883.6 770.669,1949.8 C770.669,2011.7 824.622,2060.36 886.188,2060.36 C895.787,2060.36 904.724,2059.36 912.337,2058.04 C918.626,2089.81 922.267,2112.98 922.267,2130.53 C922.267,2164.95 904.724,2183.16 871.293,2183.16 C863.349,2183.16 856.398,2181.5 855.736,2181.5 C855.405,2181.17 854.743,2180.84 854.743,2180.51 C854.743,2179.85 855.405,2179.52 856.398,2179.18 C871.955,2176.87 887.512,2163.63 887.512,2142.44 C887.512,2124.57 873.941,2105.7 849.116,2105.7 C825.946,2105.7 811.051,2124.57 811.051,2146.42"/>
<path class="Clef" d="M909.689,1176.69 C903.069,1178.01 896.78,1178.67 890.491,1178.67 C843.158,1178.67 802.776,1145.57 802.776,1095.59 C802.776,1055.21 831.242,1019.13 860.37,993.976 C865.997,989.011 871.293,984.377 876.258,979.412 C879.237,997.286 881.554,1012.84 883.871,1026.41 C853.75,1035.35 833.228,1067.13 833.228,1098.24 C833.228,1121.41 851.433,1153.19 877.913,1153.19 C880.561,1153.19 883.54,1151.86 883.54,1148.88 C883.54,1145.9 880.23,1144.25 876.258,1141.6 C863.349,1133.66 856.067,1125.05 856.067,1108.83 C856.067,1088.64 870.962,1072.42 890.491,1067.79 L909.689,1176.69 M880.561,836.42 C883.54,823.18 898.766,788.425 915.978,788.425 C920.943,788.425 928.887,804.644 928.887,827.483 C928.887,861.907 903.4,887.725 880.561,910.233 C878.575,896.993 876.92,884.084 876.92,870.182 C876.92,857.935 877.913,846.681 880.561,836.42 M956.691,1115.45 C956.691,1138.95 947.092,1163.12 923.591,1172.72 C916.64,1133 907.703,1080.37 905.386,1065.8 C935.176,1065.8 956.691,1085.99 956.691,1115.45 M811.051,1278.3 C811.051,1300.15 827.932,1328.95 872.617,1328.95 C888.174,1328.95 901.745,1324.98 913.661,1317.69 C931.535,1305.12 936.169,1283.27 936.169,1262.42 C936.169,1249.51 934.183,1234.61 930.873,1215.75 C929.88,1209.13 927.894,1199.2 925.908,1186.29 C958.346,1175.69 982.509,1141.93 982.509,1107.84 C982.509,1057.86 947.092,1024.1 898.766,1024.1 C895.456,1004.24 892.146,984.708 889.167,966.172 C924.253,929.431 948.416,888.056 948.416,835.427 C948.416,805.306 939.148,780.812 933.852,768.896 C925.908,752.015 916.309,740.43 910.351,740.43 C908.034,740.43 897.773,744.402 886.85,757.311 C865.666,782.467 859.708,824.835 859.708,852.639 C859.708,870.513 861.363,886.732 866.99,923.804 C866.659,924.135 849.447,941.678 842.496,947.305 C812.375,975.44 770.669,1015.49 770.669,1081.69 C770.669,1143.59 824.622,1192.24 886.188,1192.24 C895.787,1192.24 904.724,1191.25 912.337,1189.93 C918.626,1221.7 922.267,1244.87 922.267,1262.42 C922.267,1296.84 904.724,1315.05 871.293,1315.05 C863.349,1315.05 856.398,1313.39 855.736,1313.39 C855.405,1313.06 854.743,1312.73 854.743,1312.4 C854.743,1311.74 855.405,1311.4 856.398,1311.07 C871.955,1308.76 887.512,1295.52 887.512,1274.33 C887.512,1256.46 873.941,1237.59 849.116,1237.59 C825.946,1237.59 811.051,1256.46 811.051,1278.3"/>
<path class="KeySig" d="M1070.17,835.976 L1099.63,830.018 L1099.63,884.633 L1070.17,890.922 L1070.17,835.976 M1121.48,825.715 C1123.47,825.384 1125.12,823.067 1125.12,821.081 L1125.12,801.552 C1125.12,798.904 1123.13,796.918 1120.49,796.918 L1119.82,796.918 L1108.9,799.235 L1108.9,749.916 L1099.63,749.916 L1099.63,801.221 L1070.17,807.179 L1070.17,760.508 L1060.91,760.508 L1060.91,809.165 L1048,811.813 C1046.01,812.144 1044.36,814.461 1044.36,816.447 L1044.36,835.645 C1044.36,838.293 1046.34,840.279 1048.99,840.279 L1049.98,840.279 L1060.91,837.962 L1060.91,892.577 L1048,895.225 C1046.01,895.556 1044.36,897.873 1044.36,899.859 L1044.36,919.057 C1044.36,921.705 1046.34,923.691 1048.99,923.691 L1049.98,923.691 L1060.91,921.374 L1060.91,970.693 L1070.17,970.693 L1070.17,919.388 L1099.63,913.43 L1099.63,960.101 L1108.9,960.101 L1108.9,911.444 L1121.48,909.127 C1123.47,908.796 1125.12,906.479 1125.12,904.493 L1125.12,884.964 C1125.12,882.316 1123.13,880.33 1120.49,880.33 L1119.82,880.33 L1108.9,882.647 L1108.9,828.032 L1121.48,825.715 "/>
<path class="KeySig" d="M1160.78,959.992 L1190.24,954.034 L1190.24,1008.65 L1160.78,1014.94 L1160.78,959.992 M1212.09,949.731 C1214.08,949.4 1215.73,947.083 1215.73,945.097 L1215.73,925.568 C1215.73,922.92 1213.74,920.934 1211.1,920.934 L1210.43,920.934 L1199.51,923.251 L1199.51,873.932 L1190.24,873.932 L1190.24,925.237 L1160.78,931.195 L1160.78,884.524 L1151.52,884.524 L1151.52,933.181 L1138.61,935.829 C1136.62,936.16 1134.97,938.477 1134.97,940.463 L1134.97,959.661 C1134.97,962.309 1136.95,964.295 1139.6,964.295 L1140.59,964.295 L1151.52,961.978 L1151.52,1016.59 L1138.61,1019.24 C1136.62,1019.57 1134.97,1021.89 1134.97,1023.88 L1134.97,1043.07 C1134.97,1045.72 1136.95,1047.71 1139.6,1047.71 L1140.59,1047.71 L1151.52,1045.39 L1151.52,1094.71 L1160.78,1094.71 L1160.78,1043.4 L1190.24,1037.45 L1190.24,1084.12 L1199.51,1084.12 L1199.51,1035.46 L1212.09,1033.14 C1214.08,1032.81 1215.73,1030.5 1215.73,1028.51 L1215.73,1008.98 C1215.73,1006.33 1213.74,1004.35 1211.1,1004.35 L1210.43,1004.35 L1199.51,1006.66 L1199.51,952.048 L1212.09,949.731 "/>
<path class="KeySig" d="M1251.41,794.638 L1280.87,788.68 L1280.87,843.295 L1251.41,849.584 L1251.41,794.638 M1302.71,784.377 C1304.7,784.046 1306.36,781.729 1306.36,779.743 L1306.36,760.214 C1306.36,757.566 1304.37,755.58 1301.72,755.58 L1301.06,755.58 L1290.14,757.897 L1290.14,708.578 L1280.87,708.578 L1280.87,759.883 L1251.41,765.841 L1251.41,719.17 L1242.14,719.17 L1242.14,767.827 L1229.23,770.475 C1227.25,770.806 1225.59,773.123 1225.59,775.109 L1225.59,794.307 C1225.59,796.955 1227.58,798.941 1230.23,798.941 L1231.22,798.941 L1242.14,796.624 L1242.14,851.239 L1229.23,853.887 C1227.25,854.218 1225.59,856.535 1225.59,858.521 L1225.59,877.719 C1225.59,880.367 1227.58,882.353 1230.23,882.353 L1231.22,882.353 L1242.14,880.036 L1242.14,929.355 L1251.41,929.355 L1251.41,878.05 L1280.87,872.092 L1280.87,918.763 L1290.14,918.763 L1290.14,870.106 L1302.71,867.789 C1304.7,867.458 1306.36,865.141 1306.36,863.155 L1306.36,843.626 C1306.36,840.978 1304.37,838.992 1301.72,838.992 L1301.06,838.992 L1290.14,841.309 L1290.14,786.694 L1302.71,784.377 "/>
<path class="KeySig" d="M1070.17,1704.09 L1099.63,1698.13 L1099.63,1752.74 L1070.17,1759.03 L1070.17,1704.09 M1121.48,1693.83 C1123.47,1693.49 1125.12,1691.18 1125.12,1689.19 L1125.12,1669.66 C1125.12,1667.01 1123.13,1665.03 1120.49,1665.03 L1119.82,1665.03 L1108.9,1667.35 L1108.9,1618.03 L1099.63,1618.03 L1099.63,1669.33 L1070.17,1675.29 L1070.17,1628.62 L1060.91,1628.62 L1060.91,1677.28 L1048,1679.92 C1046.01,1680.25 1044.36,1682.57 1044.36,1684.56 L1044.36,1703.76 C1044.36,1706.4 1046.34,1708.39 1048.99,1708.39 L1049.98,1708.39 L1060.91,1706.07 L1060.91,1760.69 L1048,1763.34 C1046.01,1763.67 1044.36,1765.98 1044.36,1767.97 L1044.36,1787.17 C1044.36,1789.82 1046.34,1791.8 1048.99,1791.8 L1049.98,1791.8 L1060.91,1789.48 L1060.91,1838.8 L1070.17,1838.8 L1070.17,1787.5 L1099.63,1781.54 L1099.63,1828.21 L1108.9,1828.21 L1108.9,1779.55 L1121.48,1777.24 C1123.47,1776.91 1125.12,1774.59 1125.12,1772.6 L1125.12,1753.07 C1125.12,1750.43 1123.13,1748.44 1120.49,1748.44 L1119.82,1748.44 L1108.9,1750.76 L1108.9,1696.14 L1121.48,1693.83 "/>
<path class="KeySig" d="M1160.78,1828.1 L1190.24,1822.14 L1190.24,1876.76 L1160.78,1883.05 L1160.78,1828.1 M1212.09,1817.84 C1214.08,1817.51 1215.73,1815.19 1215.73,1813.21 L1215.73,1793.68 C1215.73,1791.03 1213.74,1789.04 1211.1,1789.04 L1210.43,1789.04 L1199.51,1791.36 L1199.51,1742.04 L1190.24,1742.04 L1190.24,1793.35 L1160.78,1799.31 L1160.78,1752.63 L1151.52,1752.63 L1151.52,1801.29 L1138.61,1803.94 C1136.62,1804.27 1134.97,1806.59 1134.97,1808.57 L1134.97,1827.77 C1134.97,1830.42 1136.95,1832.41 1139.6,1832.41 L1140.59,1832.41 L1151.52,1830.09 L1151.52,1884.7 L1138.61,1887.35 C1136.62,1887.68 1134.97,1890 1134.97,1891.99 L1134.97,1911.18 C1134.97,1913.83 1136.95,1915.82 1139.6,1915.82 L1140.59,1915.82 L1151.52,1913.5 L1151.52,1962.82 L1160.78,1962.82 L1160.78,1911.51 L1190.24,1905.56 L1190.24,1952.23 L1199.51,1952.23 L1199.51,1903.57 L1212.09,1901.25 C1214.08,1900.92 1215.73,1898.61 1215.73,1896.62 L1215.73,1877.09 C1215.73,1874.44 1213.74,1872.46 1211.1,1872.46 L1210.43,1872.46 L1199.51,1874.77 L1199.51,1820.16 L1212.09,1817.84 "/>
<path class="KeySig" d="M1251.41,1662.75 L1280.87,1656.79 L1280.87,1711.4 L1251.41,1717.69 L1251.41,1662.75 M1302.71,1652.49 C1304.7,1652.16 1306.36,1649.84 1306.36,1647.85 L1306.36,1628.32 C1306.36,1625.68 1304.37,1623.69 1301.72,1623.69 L1301.06,1623.69 L1290.14,1626.01 L1290.14,1576.69 L1280.87,1576.69 L1280.87,1627.99 L1251.41,1633.95 L1251.41,1587.28 L1242.14,1587.28 L1242.14,1635.94 L1229.23,1638.58 C1227.25,1638.92 1225.59,1641.23 1225.59,1643.22 L1225.59,1662.42 C1225.59,1665.06 1227.58,1667.05 1230.23,1667.05 L1231.22,1667.05 L1242.14,1664.73 L1242.14,1719.35 L1229.23,1722 C1227.25,1722.33 1225.59,1724.64 1225.59,1726.63 L1225.59,1745.83 C1225.59,1748.48 1227.58,1750.46 1230.23,1750.46 L1231.22,1750.46 L1242.14,1748.15 L1242.14,1797.46 L1251.41,1797.46 L1251.41,1746.16 L1280.87,1740.2 L1280.87,1786.87 L1290.14,1786.87 L1290.14,1738.22 L1302.71,1735.9 C1304.7,1735.57 1306.36,1733.25 1306.36,1731.26 L1306.36,1711.74 C1306.36,1709.09 1304.37,1707.1 1301.72,1707.1 L1301.06,1707.1 L1290.14,1709.42 L1290.14,1654.8 L1302.71,1652.49 "/>
<path class="TimeSig" d="M1496.56,966.576 C1488.29,971.872 1482.33,981.471 1482.33,992.063 C1482.33,993.387 1482.33,994.711 1482.66,996.035 C1484.31,1009.61 1495.24,1020.2 1508.81,1021.85 L1512.45,1021.85 C1529,1021.85 1542.24,1008.61 1542.24,992.063 L1542.24,990.077 C1542.24,988.753 1541.91,986.436 1541.58,985.112 C1538.6,970.879 1525.69,940.427 1469.42,940.427 C1397.26,940.427 1388.99,1000.34 1388.99,1021.85 C1388.99,1061.24 1393.95,1110.56 1476.7,1110.56 C1509.47,1110.56 1534.96,1091.36 1536.28,1055.95 C1536.28,1054.29 1535.29,1053.3 1533.63,1053.3 L1529.33,1053.3 C1528.01,1053.3 1526.68,1054.62 1526.68,1055.95 C1525.36,1083.42 1505.83,1099.97 1476.7,1099.97 C1447.9,1099.97 1434,1084.41 1434,1055.28 L1434,992.063 C1434,973.527 1441.28,952.343 1470.74,952.343 C1486.3,952.343 1493.25,957.97 1496.89,963.597 C1497.22,964.259 1497.22,964.59 1497.22,965.252 C1497.22,965.583 1497.22,966.245 1496.56,966.576"/>
<path class="Rest" d="M6020.63,1080.77 C6020.3,1080.44 6019.63,1079.78 6018.64,1078.45 L5980.58,1031.45 C5980.25,1031.12 5979.91,1030.13 5979.91,1029.47 C5979.91,1028.47 5980.25,1027.15 5980.58,1026.49 L6014.34,975.513 C6014.67,974.851 6015,973.858 6015,973.196 L6015,970.217 C6015,969.224 6014.67,968.231 6014.01,967.569 L5960.39,895.08 C5960.39,895.08 5959.06,893.094 5957.08,893.094 C5956.08,893.094 5955.42,893.425 5954.43,894.087 C5953.1,895.08 5952.77,896.404 5952.77,897.397 C5952.77,899.383 5953.77,901.038 5953.77,901.038 L5978.92,935.462 C5979.58,936.455 5979.91,937.779 5979.91,939.434 C5979.91,940.758 5979.58,942.413 5978.92,943.406 L5945.49,994.38 C5945.16,995.042 5944.83,996.366 5944.83,997.028 L5944.83,1000.01 C5944.83,1001 5945.16,1001.99 5945.82,1002.65 L5982.89,1048.66 C5981.57,1048.33 5978.59,1047.67 5974.62,1047.67 C5957.74,1047.67 5944.5,1061.57 5944.5,1078.45 C5944.5,1083.09 5945.49,1087.72 5948.14,1091.36 C5955.09,1101.95 5979.91,1133.4 5979.91,1133.4 C5979.91,1133.4 5981.57,1135.39 5983.89,1135.39 C5984.55,1135.39 5985.21,1135.39 5985.87,1134.72 C5987.53,1133.4 5988.19,1132.08 5988.19,1130.75 C5988.19,1129.43 5987.53,1128.43 5987.2,1127.77 C5986.2,1126.12 5975.61,1106.92 5975.61,1106.92 C5975.61,1106.92 5973.29,1102.29 5973.29,1096.33 C5973.29,1085.74 5981.24,1077.13 5991.83,1077.13 C5996.13,1077.13 5999.77,1078.45 6002.42,1080.11 L6015.33,1088.38 C6015.33,1088.38 6016.66,1089.05 6017.98,1089.05 C6019.3,1089.05 6020.3,1088.71 6021.29,1087.39 C6021.95,1086.07 6022.28,1085.4 6022.28,1084.41 C6022.28,1083.42 6021.95,1082.76 6021.29,1081.76 L6020.63,1080.77 "/>
<path class="Beam" fill-rule="evenodd" d="M3871.42,818.994 L4050.12,839.663 L4050.12,881.277 L3871.42,860.608 L3871.42,818.994 "/>
<path class="Beam" fill-rule="evenodd" d="M5861.91,2017.91 L6514.76,2059.25 L6514.76,2100.67 L5861.91,2059.33 L5861.91,2017.91 "/>
<path class="Beam" fill-rule="evenodd" d="M7440.18,777.655 L7618.88,798.325 L7618.88,839.939 L7440.18,819.27 L7440.18,777.655 "/>
<path class="Beam" fill-rule="evenodd" d="M7861.14,1273.86 L8380.7,1273.86 L8380.7,1315.19 L7861.14,1315.19 L7861.14,1273.86 "/>
<path class="Beam" fill-rule="evenodd" d="M3080.6,1707.9 L3699.03,1687.23 L3699.03,1728.59 L3080.6,1749.26 L3080.6,1707.9 "/>
<path class="Beam" fill-rule="evenodd" d="M2527.47,1707.81 L2739.13,1728.48 L2739.13,1770.02 L2527.47,1749.35 L2527.47,1707.81 "/>
<path class="Beam" fill-rule="evenodd" d="M8897.73,818.994 L9076.43,839.663 L9076.43,881.277 L8897.73,860.608 L8897.73,818.994 "/>
<path class="NoteDot" d="M3434.92,984.486 C3434.92,993.754 3442.2,1001.04 3451.47,1001.04 C3460.74,1001.04 3468.02,993.754 3468.02,984.486 C3468.02,975.218 3460.74,967.936 3451.47,967.936 C3442.2,967.936 3434.92,975.218 3434.92,984.486"/>
<path class="NoteDot" d="M8620.59,2017.95 C8620.59,2027.22 8627.87,2034.5 8637.14,2034.5 C8646.41,2034.5 8653.69,2027.22 8653.69,2017.95 C8653.69,2008.68 8646.41,2001.4 8637.14,2001.4 C8627.87,2001.4 8620.59,2008.68 8620.59,2017.95"/>
</svg>
