<?xml version="1.0" encoding="UTF-8" standalone="no"?>
<svg width="210.058mm" height="296.926mm" viewBox="0 0 9924 14028"
 xmlns="http://www.w3.org/2000/svg" xmlns:xlink="http://www.w3.org/1999/xlink" version="1.2" baseProfile="full">
<title>air_XIX</title>
<desc>Generated by MuseScore Studio 4.7.3</desc>
<polyline class="StaffLines" fill="none" stroke="#000000" stroke-width="9.09" stroke-linejoin="bevel" points="708.661,828.424 9215.34,828.424" />
<polyline class="StaffLines" fill="none" stroke="#000000" stroke-width="9.09" stroke-linejoin="bevel" points="708.661,911.101 9215.34,911.101" />
<polyline class="StaffLines" fill="none" stroke="#000000" stroke-width="9.09" stroke-linejoin="bevel" points="708.661,993.778 9215.34,993.778" />
<polyline class="StaffLines" fill="none" stroke="#000000" stroke-width="9.09" stroke-linejoin="bevel" points="708.661,1076.46 9215.34,1076.46" />
<polyline class="StaffLines" fill="none" stroke="#000000" stroke-width="9.09" stroke-linejoin="bevel" points="708.661,1159.13 9215.34,1159.13" />
<polyline class="StaffLines" fill="none" stroke="#000000" stroke-width="9.09" stroke-linejoin="bevel" points="708.661,1696.53 9215.34,1696.53" />
<polyline class="StaffLines" fill="none" stroke="#000000" stroke-width="9.09" stroke-linejoin="bevel" points="708.661,1779.21 9215.34,1779.21" />
<polyline class="StaffLines" fill="none" stroke="#000000" stroke-width="9.09" stroke-linejoin="bevel" points="708.661,1861.89 9215.34,1861.89" />
<polyline class="StaffLines" fill="none" stroke="#000000" stroke-width="9.09" stroke-linejoin="bevel" points="708.661,1944.57 9215.34,1944.57" />
<polyline class="StaffLines" fill="none" stroke="#000000" stroke-width="9.09" stroke-linejoin="bevel" points="708.661,2027.24 9215.34,2027.24" />
<polyline class="StaffLines" fill="none" stroke="#000000" stroke-width="9.09" stroke-linejoin="bevel" points="708.661,2564.64 9215.34,2564.64" />
<polyline class="StaffLines" fill="none" stroke="#000000" stroke-width="9.09" stroke-linejoin="bevel" points="708.661,2647.32 9215.34,2647.32" />
<polyline class="StaffLines" fill="none" stroke="#000000" stroke-width="9.09" stroke-linejoin="bevel" points="708.661,2730 9215.34,2730" />
<polyline class="StaffLines" fill="none" stroke="#000000" stroke-width="9.09" stroke-linejoin="bevel" points="708.661,2812.68 9215.34,2812.68" />
<polyline class="StaffLines" fill="none" stroke="#000000" stroke-width="9.09" stroke-linejoin="bevel" points="708.661,2895.35 9215.34,2895.35" />
<polyline class="BarLine" fill="none" stroke="#000000" stroke-width="14.88" stroke-linejoin="bevel" points="8344.66,823.876 8344.66,1163.68" />
<polyline class="BarLine" fill="none" stroke="#000000" stroke-width="14.88" stroke-linejoin="bevel" points="5177.2,1691.99 5177.2,2031.79" />
<polyline class="BarLine" fill="none" stroke="#000000" stroke-width="14.88" stroke-linejoin="bevel" points="7445.17,2560.1 7445.17,2899.9" />
<polyline class="BarLine" fill="none" stroke="#000000" stroke-width="14.88" stroke-linejoin="bevel" points="7203.23,1691.99 7203.23,2031.79" />
<polyline class="BarLine" fill="none" stroke="#000000" stroke-width="14.88" stroke-linejoin="bevel" points="9207.9,1691.99 9207.9,2031.79" />
<polyline class="BarLine" fill="none" stroke="#000000" stroke-width="14.88" stroke-linejoin="bevel" points="8387.1,2560.1 8387.1,2899.9" />
<polyline class="BarLine" fill="none" stroke="#000000" stroke-width="14.88" stroke-linejoin="bevel" points="2553.34,823.876 2553.34,1163.68" />
<polyline class="BarLine" fill="none" stroke="#000000" stroke-width="14.88" stroke-linejoin="bevel" points="6271.56,1691.99 6271.56,2031.79" />
<polyline class="BarLine" fill="none" stroke="#000000" stroke-width="14.88" stroke-linejoin="bevel" points="9131.84,2560.1 9131.84,2899.9" />
<polyline class="BarLine" fill="none" stroke="#000000" stroke-width="45.47" stroke-linejoin="bevel" points="9192.6,2560.1 9192.6,2899.9" />
<polyline class="BarLine" fill="none" stroke="#000000" stroke-width="14.88" stroke-linejoin="bevel" points="3465.63,823.876 3465.63,1163.68" />
<polyline class="BarLine" fill="none" stroke="#000000" stroke-width="14.88" stroke-linejoin="bevel" points="2406.02,2560.1 2406.02,2899.9" />
<polyline class="BarLine" fill="none" stroke="#000000" stroke-width="14.88" stroke-linejoin="bevel" points="4377.91,823.876 4377.91,1163.68" />
<polyline class="BarLine" fill="none" stroke="#000000" stroke-width="14.88" stroke-linejoin="bevel" points="5396.56,2560.1 5396.56,2899.9" />
<path class="BarLine" d="M9093.83,952.439 C9093.83,942.84 9086.22,934.896 9076.62,934.896 C9067.02,934.896 9059.41,942.84 9059.41,952.439 C9059.41,962.038 9067.02,969.982 9076.62,969.982 C9086.22,969.982 9093.83,962.038 9093.83,952.439"/>
<path class="BarLine" d="M9093.83,1035.12 C9093.83,1025.52 9086.22,1017.57 9076.62,1017.57 C9067.02,1017.57 9059.41,1025.52 9059.41,1035.12 C9059.41,1044.72 9067.02,1052.66 9076.62,1052.66 C9086.22,1052.66 9093.83,1044.72 9093.83,1035.12"/>
<polyline class="BarLine" fill="none" stroke="#000000" stroke-width="14.88" stroke-linejoin="bevel" points="9131.84,823.876 9131.84,1163.68" />
<polyline class="BarLine" fill="none" stroke="#000000" stroke-width="45.47" stroke-linejoin="bevel" points="9192.6,823.876 9192.6,1163.68" />
<polyline class="BarLine" fill="none" stroke="#000000" stroke-width="14.88" stroke-linejoin="bevel" points="7432.38,823.876 7432.38,1163.68" />
<polyline class="BarLine" fill="none" stroke="#000000" stroke-width="45.47" stroke-linejoin="bevel" points="1356.81,1691.99 1356.81,2031.79" />
<polyline class="BarLine" fill="none" stroke="#000000" stroke-width="14.88" stroke-linejoin="bevel" points="1417.58,1691.99 1417.58,2031.79" />
<path class="BarLine" d="M1490.03,1820.55 C1490.03,1810.95 1482.42,1803.01 1472.82,1803.01 C1463.22,1803.01 1455.61,1810.95 1455.61,1820.55 C1455.61,1830.15 1463.22,1838.09 1472.82,1838.09 C1482.42,1838.09 1490.03,1830.15 1490.03,1820.55"/>
<path class="BarLine" d="M1490.03,1903.23 C1490.03,1893.63 1482.42,1885.68 1472.82,1885.68 C1463.22,1885.68 1455.61,1893.63 1455.61,1903.23 C1455.61,1912.83 1463.22,1920.77 1472.82,1920.77 C1482.42,1920.77 1490.03,1912.83 1490.03,1903.23"/>
<polyline class="BarLine" fill="none" stroke="#000000" stroke-width="14.88" stroke-linejoin="bevel" points="4289.89,2560.1 4289.89,2899.9" />
<polyline class="BarLine" fill="none" stroke="#000000" stroke-width="14.88" stroke-linejoin="bevel" points="6520.1,823.876 6520.1,1163.68" />
<polyline class="BarLine" fill="none" stroke="#000000" stroke-width="14.88" stroke-linejoin="bevel" points="2576.93,1691.99 2576.93,2031.79" />
<polyline class="BarLine" fill="none" stroke="#000000" stroke-width="14.88" stroke-linejoin="bevel" points="6503.23,2560.1 6503.23,2899.9" />
<polyline class="BarLine" fill="none" stroke="#000000" stroke-width="14.88" stroke-linejoin="bevel" points="5449,823.876 5449,1163.68" />
<polyline class="BarLine" fill="none" stroke="#000000" stroke-width="14.88" stroke-linejoin="bevel" points="3347.96,2560.1 3347.96,2899.9" />
<polyline class="BarLine" fill="none" stroke="#000000" stroke-width="14.88" stroke-linejoin="bevel" points="3508.6,1691.99 3508.6,2031.79" />
<polyline class="BarLine" fill="none" stroke="#000000" stroke-width="14.88" stroke-linejoin="bevel" points="8134.91,1691.99 8134.91,2031.79" />
<polyline class="BarLine" fill="none" stroke="#000000" stroke-width="14.88" stroke-linejoin="bevel" points="4440.27,1691.99 4440.27,2031.79" />
<path class="Accidental" d="M1842.5,1769.98 L1842.5,1715.7 L1880.9,1704.77 L1880.9,1759.39 L1842.5,1769.98 M1888.18,1677.3 C1887.52,1676.64 1886.53,1676.31 1885.53,1676.31 C1885.2,1676.31 1884.54,1676.64 1884.21,1676.64 L1842.5,1688.22 L1842.5,1630.3 L1833.24,1630.3 L1833.24,1794.14 C1833.24,1796.79 1835.22,1798.45 1837.87,1798.45 L1839.19,1798.45 L1880.9,1786.86 L1880.9,1844.79 L1889.84,1844.79 L1889.84,1680.94 C1889.84,1679.62 1889.18,1677.96 1888.18,1677.3"/>
<polyline class="LedgerLine" fill="none" stroke="#000000" stroke-width="13.23" stroke-linejoin="bevel" points="7833.5,1241.81 7995.56,1241.81" />
<polyline class="LedgerLine" fill="none" stroke="#000000" stroke-width="13.23" stroke-linejoin="bevel" points="7858.15,2978.03 8020.21,2978.03" />
<polyline class="Stem" fill="none" stroke="#000000" stroke-width="8.27" stroke-linejoin="bevel" points="8558.79,1104.57 8558.79,828.424" />
<polyline class="Stem" fill="none" stroke="#000000" stroke-width="8.27" stroke-linejoin="bevel" points="5292.13,1875.78 5292.13,2109.92" />
<polyline class="Stem" fill="none" stroke="#000000" stroke-width="8.27" stroke-linejoin="bevel" points="5063.77,2743.89 5063.77,2978.03" />
<polyline class="Stem" fill="none" stroke="#000000" stroke-width="8.27" stroke-linejoin="bevel" points="4833.5,2758.11 4833.5,2502.64" />
<polyline class="Stem" fill="none" stroke="#000000" stroke-width="8.27" stroke-linejoin="bevel" points="7547.3,966.329 7547.3,1221.14" />
<polyline class="Stem" fill="none" stroke="#000000" stroke-width="8.27" stroke-linejoin="bevel" points="5511.48,2702.55 5511.48,2957.36" />
<polyline class="Stem" fill="none" stroke="#000000" stroke-width="8.27" stroke-linejoin="bevel" points="4404.81,2661.21 4404.81,2936.69" />
<polyline class="Stem" fill="none" stroke="#000000" stroke-width="8.27" stroke-linejoin="bevel" points="7111.45,1007.67 7111.45,1241.81" />
<polyline class="Stem" fill="none" stroke="#000000" stroke-width="8.27" stroke-linejoin="bevel" points="5940.18,2840.79 5940.18,2564.64" />
<polyline class="Stem" fill="none" stroke="#000000" stroke-width="8.27" stroke-linejoin="bevel" points="1597.49,1710.42 1597.49,1985.9" />
<polyline class="Stem" fill="none" stroke="#000000" stroke-width="8.27" stroke-linejoin="bevel" points="6734.23,1021.89 6734.23,766.416" />
<polyline class="Stem" fill="none" stroke="#000000" stroke-width="8.27" stroke-linejoin="bevel" points="1922.87,1751.76 1922.87,2027.24" />
<polyline class="Stem" fill="none" stroke="#000000" stroke-width="8.27" stroke-linejoin="bevel" points="3957.1,2702.55 3957.1,2957.36" />
<polyline class="Stem" fill="none" stroke="#000000" stroke-width="8.27" stroke-linejoin="bevel" points="6269.66,2799.45 6269.66,2523.31" />
<polyline class="Stem" fill="none" stroke="#000000" stroke-width="8.27" stroke-linejoin="bevel" points="2248.24,1710.42 2248.24,1985.9" />
<polyline class="Stem" fill="none" stroke="#000000" stroke-width="8.27" stroke-linejoin="bevel" points="3462.88,2578.53 3462.88,2854.01" />
<polyline class="Stem" fill="none" stroke="#000000" stroke-width="8.27" stroke-linejoin="bevel" points="6298.38,1063.23 6298.38,787.085" />
<polyline class="Stem" fill="none" stroke="#000000" stroke-width="8.27" stroke-linejoin="bevel" points="5980.76,1104.57 5980.76,828.424" />
<polyline class="Stem" fill="none" stroke="#000000" stroke-width="8.27" stroke-linejoin="bevel" points="2691.85,1793.1 2691.85,2068.58" />
<polyline class="Stem" fill="none" stroke="#000000" stroke-width="8.27" stroke-linejoin="bevel" points="5563.92,966.329 5563.92,1221.14" />
<polyline class="Stem" fill="none" stroke="#000000" stroke-width="8.27" stroke-linejoin="bevel" points="3179.91,1834.44 3179.91,2089.25" />
<polyline class="Stem" fill="none" stroke="#000000" stroke-width="8.27" stroke-linejoin="bevel" points="6717.37,2758.11 6717.37,2502.64" />
<polyline class="Stem" fill="none" stroke="#000000" stroke-width="8.27" stroke-linejoin="bevel" points="5128.07,1007.67 5128.07,1241.81" />
<polyline class="Stem" fill="none" stroke="#000000" stroke-width="8.27" stroke-linejoin="bevel" points="7112.38,2743.89 7112.38,2978.03" />
<polyline class="Stem" fill="none" stroke="#000000" stroke-width="8.27" stroke-linejoin="bevel" points="3623.52,1710.42 3623.52,1985.9" />
<polyline class="Stem" fill="none" stroke="#000000" stroke-width="8.27" stroke-linejoin="bevel" points="3015.17,2702.55 3015.17,2957.36" />
<polyline class="Stem" fill="none" stroke="#000000" stroke-width="8.27" stroke-linejoin="bevel" points="3948.9,1793.1 3948.9,2068.58" />
<polyline class="Stem" fill="none" stroke="#000000" stroke-width="8.27" stroke-linejoin="bevel" points="2620.16,2840.79 2620.16,2564.64" />
<polyline class="Stem" fill="none" stroke="#000000" stroke-width="8.27" stroke-linejoin="bevel" points="4909.66,1021.89 4909.66,766.416" />
<polyline class="Stem" fill="none" stroke="#000000" stroke-width="8.27" stroke-linejoin="bevel" points="4492.83,924.991 4492.83,1200.47" />
<polyline class="Stem" fill="none" stroke="#000000" stroke-width="8.27" stroke-linejoin="bevel" points="4555.19,1834.44 4555.19,2089.25" />
<polyline class="Stem" fill="none" stroke="#000000" stroke-width="8.27" stroke-linejoin="bevel" points="4056.98,966.329 4056.98,1221.14" />
<polyline class="Stem" fill="none" stroke="#000000" stroke-width="8.27" stroke-linejoin="bevel" points="7560.09,2702.55 7560.09,2957.36" />
<polyline class="Stem" fill="none" stroke="#000000" stroke-width="8.27" stroke-linejoin="bevel" points="3580.55,842.313 3580.55,1117.79" />
<polyline class="Stem" fill="none" stroke="#000000" stroke-width="8.27" stroke-linejoin="bevel" points="7988.78,2964.8 7988.78,2688.66" />
<polyline class="Stem" fill="none" stroke="#000000" stroke-width="8.27" stroke-linejoin="bevel" points="2172.45,2799.45 2172.45,2523.31" />
<polyline class="Stem" fill="none" stroke="#000000" stroke-width="8.27" stroke-linejoin="bevel" points="1842.97,2758.11 1842.97,2502.64" />
<polyline class="Stem" fill="none" stroke="#000000" stroke-width="8.27" stroke-linejoin="bevel" points="5716.71,1890 5716.71,1634.53" />
<polyline class="Stem" fill="none" stroke="#000000" stroke-width="8.27" stroke-linejoin="bevel" points="1414.27,2743.89 1414.27,2978.03" />
<polyline class="Stem" fill="none" stroke="#000000" stroke-width="8.27" stroke-linejoin="bevel" points="6042.09,1931.34 6042.09,1655.2" />
<polyline class="Stem" fill="none" stroke="#000000" stroke-width="8.27" stroke-linejoin="bevel" points="3144.7,966.329 3144.7,1221.14" />
<polyline class="Stem" fill="none" stroke="#000000" stroke-width="8.27" stroke-linejoin="bevel" points="2767.48,1104.57 2767.48,828.424" />
<polyline class="Stem" fill="none" stroke="#000000" stroke-width="8.27" stroke-linejoin="bevel" points="2331.63,1063.23 2331.63,787.085" />
<polyline class="Stem" fill="none" stroke="#000000" stroke-width="8.27" stroke-linejoin="bevel" points="6485.7,1972.68 6485.7,1696.53" />
<polyline class="Stem" fill="none" stroke="#000000" stroke-width="8.27" stroke-linejoin="bevel" points="2014.01,1021.89 2014.01,766.416" />
<polyline class="Stem" fill="none" stroke="#000000" stroke-width="8.27" stroke-linejoin="bevel" points="6973.76,1931.34 6973.76,1655.2" />
<polyline class="Stem" fill="none" stroke="#000000" stroke-width="8.27" stroke-linejoin="bevel" points="8879.22,1834.44 8879.22,2089.25" />
<polyline class="Stem" fill="none" stroke="#000000" stroke-width="8.27" stroke-linejoin="bevel" points="8601.23,2840.79 8601.23,2564.64" />
<polyline class="Stem" fill="none" stroke="#000000" stroke-width="8.27" stroke-linejoin="bevel" points="1597.17,1007.67 1597.17,1241.81" />
<polyline class="Stem" fill="none" stroke="#000000" stroke-width="8.27" stroke-linejoin="bevel" points="7417.37,1890 7417.37,1634.53" />
<polyline class="Stem" fill="none" stroke="#000000" stroke-width="8.27" stroke-linejoin="bevel" points="8662.3,1793.1 8662.3,2068.25" />
<polyline class="Stem" fill="none" stroke="#000000" stroke-width="8.27" stroke-linejoin="bevel" points="7643.53,1875.78 7643.53,2109.92" />
<polyline class="Stem" fill="none" stroke="#000000" stroke-width="8.27" stroke-linejoin="bevel" points="8249.83,1834.44 8249.83,2089.25" />
<polyline class="Stem" fill="none" stroke="#000000" stroke-width="8.27" stroke-linejoin="bevel" points="7964.13,1228.58 7964.13,952.439" />
<path class="Hook" d="M8658.16,2068.25 C8658.16,2070.57 8660.15,2072.55 8662.47,2072.55 C8664.12,2072.55 8666.11,2071.23 8666.44,2069.91 C8666.44,2069.57 8669.42,2057.99 8669.75,2057 C8670.08,2055.67 8673.06,2043.09 8684.98,2023.57 C8697.88,2002.05 8717.74,1986.49 8734.29,1963.32 C8750.51,1940.15 8760.44,1918.31 8760.44,1889.18 C8760.44,1859.06 8753.49,1833.9 8735.95,1801.8 C8734.96,1799.48 8732.97,1798.15 8730.98,1798.15 C8730.32,1798.15 8729.66,1798.15 8729.33,1798.49 C8727.67,1799.15 8727.01,1800.47 8727.01,1802.46 C8727.01,1803.45 8727.34,1805.11 8728.01,1806.43 C8741.25,1837.21 8746.54,1854.76 8746.54,1878.59 C8746.54,1906.06 8736.94,1920.29 8730.98,1930.55 C8709.47,1967.3 8674.71,1985.17 8660.81,1989.8 C8658.5,1990.8 8658.16,1992.45 8658.16,1993.44 L8658.16,2068.25 "/>
<path class="Note" d="M8522.71,2882.48 C8511.79,2882.48 8509.47,2873.54 8509.47,2870.56 C8509.47,2854.35 8565.08,2825.88 8580.63,2825.88 C8588.58,2825.88 8593.87,2830.51 8593.87,2837.8 C8593.87,2854.35 8537.94,2882.48 8522.71,2882.48 M8568.39,2810.32 C8536.28,2810.32 8497.88,2837.13 8497.88,2867.92 C8497.88,2882.15 8508.15,2898.04 8534.96,2898.04 C8569.38,2898.04 8605.46,2869.9 8605.46,2840.77 C8605.46,2821.25 8588.91,2810.32 8568.39,2810.32"/>
<path class="Note" d="M4052.85,966.341 C4052.85,980.574 4063.11,996.462 4089.92,996.462 C4124.34,996.462 4160.42,968.327 4160.42,939.199 C4160.42,919.67 4143.87,908.747 4123.35,908.747 C4091.24,908.747 4052.85,935.889 4052.85,966.341"/>
<path class="Note" d="M1593.04,1007.68 C1593.04,1021.91 1603.3,1037.8 1630.11,1037.8 C1664.53,1037.8 1700.61,1009.67 1700.61,980.538 C1700.61,961.009 1684.06,950.086 1663.54,950.086 C1631.43,950.086 1593.04,977.228 1593.04,1007.68"/>
<path class="Note" d="M7664.22,1890.35 C7653.3,1890.35 7650.98,1881.42 7650.98,1878.44 C7650.98,1862.22 7706.59,1833.75 7722.15,1833.75 C7730.09,1833.75 7735.39,1838.39 7735.39,1845.67 C7735.39,1862.22 7679.45,1890.35 7664.22,1890.35 M7709.9,1818.2 C7677.79,1818.2 7639.4,1845.01 7639.4,1875.79 C7639.4,1890.02 7649.66,1905.91 7676.47,1905.91 C7710.89,1905.91 7746.97,1877.78 7746.97,1848.65 C7746.97,1829.12 7730.42,1818.2 7709.9,1818.2"/>
<path class="Note" d="M7314.02,1917.13 C7314.02,1931.36 7324.28,1947.25 7351.09,1947.25 C7385.52,1947.25 7421.6,1919.11 7421.6,1889.99 C7421.6,1870.46 7405.05,1859.53 7384.52,1859.53 C7352.42,1859.53 7314.02,1886.68 7314.02,1917.13"/>
<path class="Note" d="M8658.16,1793.11 C8658.16,1807.35 8668.43,1823.23 8695.24,1823.23 C8729.66,1823.23 8765.74,1795.1 8765.74,1765.97 C8765.74,1746.44 8749.19,1735.52 8728.67,1735.52 C8696.56,1735.52 8658.16,1762.66 8658.16,1793.11"/>
<path class="Note" d="M6870.42,1958.47 C6870.42,1972.7 6880.68,1988.59 6907.49,1988.59 C6941.91,1988.59 6977.99,1960.45 6977.99,1931.33 C6977.99,1911.8 6961.44,1900.87 6940.92,1900.87 C6908.81,1900.87 6870.42,1928.02 6870.42,1958.47"/>
<path class="Note" d="M8875.08,1834.45 C8875.08,1848.68 8885.34,1864.57 8912.15,1864.57 C8946.58,1864.57 8982.66,1836.44 8982.66,1807.31 C8982.66,1787.78 8966.11,1776.86 8945.59,1776.86 C8913.48,1776.86 8875.08,1804 8875.08,1834.45"/>
<path class="Note" d="M6407.18,2014.37 C6396.25,2014.37 6393.94,2005.43 6393.94,2002.45 C6393.94,1986.24 6449.54,1957.77 6465.1,1957.77 C6473.04,1957.77 6478.34,1962.4 6478.34,1969.69 C6478.34,1986.24 6422.4,2014.37 6407.18,2014.37 M6452.85,1942.21 C6420.75,1942.21 6382.35,1969.02 6382.35,1999.81 C6382.35,2014.04 6392.61,2029.93 6419.42,2029.93 C6453.85,2029.93 6489.93,2001.79 6489.93,1972.66 C6489.93,1953.14 6473.38,1942.21 6452.85,1942.21"/>
<path class="Note" d="M5938.75,1958.47 C5938.75,1972.7 5949.01,1988.59 5975.82,1988.59 C6010.24,1988.59 6046.32,1960.45 6046.32,1931.33 C6046.32,1911.8 6029.77,1900.87 6009.25,1900.87 C5977.14,1900.87 5938.75,1928.02 5938.75,1958.47"/>
<path class="Note" d="M1910.66,1049.02 C1910.66,1063.25 1920.92,1079.14 1947.73,1079.14 C1982.15,1079.14 2018.23,1051 2018.23,1021.88 C2018.23,1002.35 2001.68,991.425 1981.16,991.425 C1949.05,991.425 1910.66,1018.57 1910.66,1049.02"/>
<path class="Note" d="M2228.28,1090.36 C2228.28,1104.59 2238.54,1120.48 2265.35,1120.48 C2299.78,1120.48 2335.86,1092.34 2335.86,1063.22 C2335.86,1043.69 2319.31,1032.76 2298.78,1032.76 C2266.68,1032.76 2228.28,1059.91 2228.28,1090.36"/>
<path class="Note" d="M5613.37,1917.13 C5613.37,1931.36 5623.63,1947.25 5650.44,1947.25 C5684.86,1947.25 5720.94,1919.11 5720.94,1889.99 C5720.94,1870.46 5704.39,1859.53 5683.87,1859.53 C5651.76,1859.53 5613.37,1886.68 5613.37,1917.13"/>
<path class="Note" d="M1410.14,2743.9 C1410.14,2758.13 1420.4,2774.02 1447.21,2774.02 C1481.63,2774.02 1517.71,2745.89 1517.71,2716.76 C1517.71,2697.23 1501.16,2686.31 1480.64,2686.31 C1448.53,2686.31 1410.14,2713.45 1410.14,2743.9"/>
<path class="Note" d="M5287.99,1875.79 C5287.99,1890.02 5298.25,1905.91 5325.06,1905.91 C5359.49,1905.91 5395.57,1877.78 5395.57,1848.65 C5395.57,1829.12 5379.02,1818.2 5358.49,1818.2 C5326.39,1818.2 5287.99,1845.34 5287.99,1875.79"/>
<path class="Note" d="M1739.62,2785.24 C1739.62,2799.47 1749.88,2815.36 1776.69,2815.36 C1811.12,2815.36 1847.19,2787.23 1847.19,2758.1 C1847.19,2738.57 1830.64,2727.65 1810.12,2727.65 C1778.02,2727.65 1739.62,2754.79 1739.62,2785.24"/>
<path class="Note" d="M7910.26,3006.5 C7899.34,3006.5 7897.02,2997.56 7897.02,2994.58 C7897.02,2978.36 7952.63,2949.9 7968.18,2949.9 C7976.13,2949.9 7981.42,2954.53 7981.42,2961.81 C7981.42,2978.36 7925.49,3006.5 7910.26,3006.5 M7955.94,2934.34 C7923.83,2934.34 7885.43,2961.15 7885.43,2991.93 C7885.43,3006.17 7895.7,3022.05 7922.51,3022.05 C7956.93,3022.05 7993.01,2993.92 7993.01,2964.79 C7993.01,2945.26 7976.46,2934.34 7955.94,2934.34"/>
<path class="Note" d="M2069.1,2826.58 C2069.1,2840.81 2079.36,2856.7 2106.17,2856.7 C2140.6,2856.7 2176.68,2828.56 2176.68,2799.44 C2176.68,2779.91 2160.13,2768.98 2139.6,2768.98 C2107.5,2768.98 2069.1,2796.13 2069.1,2826.58"/>
<path class="Note" d="M2688.96,1146.26 C2678.03,1146.26 2675.72,1137.32 2675.72,1134.34 C2675.72,1118.12 2731.32,1089.66 2746.88,1089.66 C2754.82,1089.66 2760.12,1094.29 2760.12,1101.57 C2760.12,1118.12 2704.18,1146.26 2688.96,1146.26 M2734.63,1074.1 C2702.53,1074.1 2664.13,1100.91 2664.13,1131.7 C2664.13,1145.93 2674.39,1161.82 2701.2,1161.82 C2735.63,1161.82 2771.71,1133.68 2771.71,1104.55 C2771.71,1085.02 2755.16,1074.1 2734.63,1074.1"/>
<path class="Note" d="M4575.88,1849.02 C4564.96,1849.02 4562.64,1840.08 4562.64,1837.1 C4562.64,1820.88 4618.25,1792.41 4633.81,1792.41 C4641.75,1792.41 4647.05,1797.05 4647.05,1804.33 C4647.05,1820.88 4591.11,1849.02 4575.88,1849.02 M4621.56,1776.86 C4589.45,1776.86 4551.06,1803.67 4551.06,1834.45 C4551.06,1848.68 4561.32,1864.57 4588.13,1864.57 C4622.55,1864.57 4658.63,1836.44 4658.63,1807.31 C4658.63,1787.78 4642.08,1776.86 4621.56,1776.86"/>
<path class="Note" d="M3969.59,1807.68 C3958.66,1807.68 3956.35,1798.74 3956.35,1795.76 C3956.35,1779.54 4011.96,1751.08 4027.51,1751.08 C4035.46,1751.08 4040.75,1755.71 4040.75,1762.99 C4040.75,1779.54 3984.81,1807.68 3969.59,1807.68 M4015.27,1735.52 C3983.16,1735.52 3944.76,1762.33 3944.76,1793.11 C3944.76,1807.35 3955.02,1823.23 3981.83,1823.23 C4016.26,1823.23 4052.34,1795.1 4052.34,1765.97 C4052.34,1746.44 4035.79,1735.52 4015.27,1735.52"/>
<path class="Note" d="M2541.64,2882.48 C2530.71,2882.48 2528.4,2873.54 2528.4,2870.56 C2528.4,2854.35 2584,2825.88 2599.56,2825.88 C2607.5,2825.88 2612.8,2830.51 2612.8,2837.8 C2612.8,2854.35 2556.86,2882.48 2541.64,2882.48 M2587.31,2810.32 C2555.21,2810.32 2516.81,2837.13 2516.81,2867.92 C2516.81,2882.15 2527.07,2898.04 2553.88,2898.04 C2588.31,2898.04 2624.39,2869.9 2624.39,2840.77 C2624.39,2821.25 2607.84,2810.32 2587.31,2810.32"/>
<path class="Note" d="M3619.38,1710.44 C3619.38,1724.67 3629.65,1740.56 3656.46,1740.56 C3690.88,1740.56 3726.96,1712.42 3726.96,1683.29 C3726.96,1663.76 3710.41,1652.84 3689.89,1652.84 C3657.78,1652.84 3619.38,1679.98 3619.38,1710.44"/>
<path class="Note" d="M3011.03,2702.56 C3011.03,2716.79 3021.29,2732.68 3048.1,2732.68 C3082.53,2732.68 3118.61,2704.55 3118.61,2675.42 C3118.61,2655.89 3102.06,2644.97 3081.54,2644.97 C3049.43,2644.97 3011.03,2672.11 3011.03,2702.56"/>
<path class="Note" d="M3175.78,1834.45 C3175.78,1848.68 3186.04,1864.57 3212.85,1864.57 C3247.28,1864.57 3283.35,1836.44 3283.35,1807.31 C3283.35,1787.78 3266.8,1776.86 3246.28,1776.86 C3214.18,1776.86 3175.78,1804 3175.78,1834.45"/>
<path class="Note" d="M2712.54,1807.68 C2701.62,1807.68 2699.3,1798.74 2699.3,1795.76 C2699.3,1779.54 2754.91,1751.08 2770.46,1751.08 C2778.41,1751.08 2783.7,1755.71 2783.7,1762.99 C2783.7,1779.54 2727.76,1807.68 2712.54,1807.68 M2758.22,1735.52 C2726.11,1735.52 2687.71,1762.33 2687.71,1793.11 C2687.71,1807.35 2697.97,1823.23 2724.79,1823.23 C2759.21,1823.23 2795.29,1795.1 2795.29,1765.97 C2795.29,1746.44 2778.74,1735.52 2758.22,1735.52"/>
<path class="Note" d="M2244.11,1710.44 C2244.11,1724.67 2254.37,1740.56 2281.18,1740.56 C2315.6,1740.56 2351.68,1712.42 2351.68,1683.29 C2351.68,1663.76 2335.13,1652.84 2314.61,1652.84 C2282.5,1652.84 2244.11,1679.98 2244.11,1710.44"/>
<path class="Note" d="M3483.57,2593.11 C3472.64,2593.11 3470.33,2584.17 3470.33,2581.19 C3470.33,2564.98 3525.94,2536.51 3541.49,2536.51 C3549.44,2536.51 3554.73,2541.14 3554.73,2548.43 C3554.73,2564.98 3498.79,2593.11 3483.57,2593.11 M3529.25,2520.95 C3497.14,2520.95 3458.74,2547.76 3458.74,2578.55 C3458.74,2592.78 3469,2608.67 3495.81,2608.67 C3530.24,2608.67 3566.32,2580.53 3566.32,2551.4 C3566.32,2531.88 3549.77,2520.95 3529.25,2520.95"/>
<path class="Note" d="M1918.73,1751.77 C1918.73,1766.01 1928.99,1781.9 1955.8,1781.9 C1990.23,1781.9 2026.31,1753.76 2026.31,1724.63 C2026.31,1705.1 2009.76,1694.18 1989.23,1694.18 C1957.13,1694.18 1918.73,1721.32 1918.73,1751.77"/>
<path class="Note" d="M3952.96,2702.56 C3952.96,2716.79 3963.23,2732.68 3990.04,2732.68 C4024.46,2732.68 4060.54,2704.55 4060.54,2675.42 C4060.54,2655.89 4043.99,2644.97 4023.47,2644.97 C3991.36,2644.97 3952.96,2672.11 3952.96,2702.56"/>
<path class="Note" d="M1593.35,1710.44 C1593.35,1724.67 1603.62,1740.56 1630.43,1740.56 C1664.85,1740.56 1700.93,1712.42 1700.93,1683.29 C1700.93,1663.76 1684.38,1652.84 1663.86,1652.84 C1631.75,1652.84 1593.35,1679.98 1593.35,1710.44"/>
<path class="Note" d="M3140.56,966.341 C3140.56,980.574 3150.82,996.462 3177.64,996.462 C3212.06,996.462 3248.14,968.327 3248.14,939.199 C3248.14,919.67 3231.59,908.747 3211.07,908.747 C3178.96,908.747 3140.56,935.889 3140.56,966.341"/>
<path class="Note" d="M7555.95,2702.56 C7555.95,2716.79 7566.21,2732.68 7593.02,2732.68 C7627.45,2732.68 7663.53,2704.55 7663.53,2675.42 C7663.53,2655.89 7646.98,2644.97 7626.46,2644.97 C7594.35,2644.97 7555.95,2672.11 7555.95,2702.56"/>
<path class="Note" d="M4400.67,2661.22 C4400.67,2675.46 4410.94,2691.34 4437.75,2691.34 C4472.17,2691.34 4508.25,2663.21 4508.25,2634.08 C4508.25,2614.55 4491.7,2603.63 4471.18,2603.63 C4439.07,2603.63 4400.67,2630.77 4400.67,2661.22"/>
<path class="Note" d="M3601.24,856.89 C3590.32,856.89 3588,847.953 3588,844.974 C3588,828.755 3643.61,800.289 3659.16,800.289 C3667.11,800.289 3672.4,804.923 3672.4,812.205 C3672.4,828.755 3616.46,856.89 3601.24,856.89 M3646.92,784.732 C3614.81,784.732 3576.41,811.543 3576.41,842.326 C3576.41,856.559 3586.67,872.447 3613.49,872.447 C3647.91,872.447 3683.99,844.312 3683.99,815.184 C3683.99,795.655 3667.44,784.732 3646.92,784.732"/>
<path class="Note" d="M4730.16,2785.24 C4730.16,2799.47 4740.42,2815.36 4767.23,2815.36 C4801.65,2815.36 4837.73,2787.23 4837.73,2758.1 C4837.73,2738.57 4821.18,2727.65 4800.66,2727.65 C4768.55,2727.65 4730.16,2754.79 4730.16,2785.24"/>
<path class="Note" d="M8480.27,1146.26 C8469.35,1146.26 8467.03,1137.32 8467.03,1134.34 C8467.03,1118.12 8522.64,1089.66 8538.2,1089.66 C8546.14,1089.66 8551.44,1094.29 8551.44,1101.57 C8551.44,1118.12 8495.5,1146.26 8480.27,1146.26 M8525.95,1074.1 C8493.84,1074.1 8455.45,1100.91 8455.45,1131.7 C8455.45,1145.93 8465.71,1161.82 8492.52,1161.82 C8526.94,1161.82 8563.02,1133.68 8563.02,1104.55 C8563.02,1085.02 8546.47,1074.1 8525.95,1074.1"/>
<path class="Note" d="M5059.64,2743.9 C5059.64,2758.13 5069.9,2774.02 5096.71,2774.02 C5131.13,2774.02 5167.21,2745.89 5167.21,2716.76 C5167.21,2697.23 5150.66,2686.31 5130.14,2686.31 C5098.03,2686.31 5059.64,2713.45 5059.64,2743.9"/>
<path class="Note" d="M7885.61,1270.28 C7874.69,1270.28 7872.37,1261.34 7872.37,1258.36 C7872.37,1242.14 7927.98,1213.67 7943.54,1213.67 C7951.48,1213.67 7956.78,1218.31 7956.78,1225.59 C7956.78,1242.14 7900.84,1270.28 7885.61,1270.28 M7931.29,1198.12 C7899.18,1198.12 7860.79,1224.93 7860.79,1255.71 C7860.79,1269.94 7871.05,1285.83 7897.86,1285.83 C7932.28,1285.83 7968.36,1257.7 7968.36,1228.57 C7968.36,1209.04 7951.81,1198.12 7931.29,1198.12"/>
<path class="Note" d="M7543.17,966.341 C7543.17,980.574 7553.43,996.462 7580.24,996.462 C7614.66,996.462 7650.74,968.327 7650.74,939.199 C7650.74,919.67 7634.19,908.747 7613.67,908.747 C7581.56,908.747 7543.17,935.889 7543.17,966.341"/>
<path class="Note" d="M7107.32,1007.68 C7107.32,1021.91 7117.58,1037.8 7144.39,1037.8 C7178.81,1037.8 7214.89,1009.67 7214.89,980.538 C7214.89,961.009 7198.34,950.086 7177.82,950.086 C7145.71,950.086 7107.32,977.228 7107.32,1007.68"/>
<path class="Note" d="M5507.35,2702.56 C5507.35,2716.79 5517.61,2732.68 5544.42,2732.68 C5578.84,2732.68 5614.92,2704.55 5614.92,2675.42 C5614.92,2655.89 5598.37,2644.97 5577.85,2644.97 C5545.74,2644.97 5507.35,2672.11 5507.35,2702.56"/>
<path class="Note" d="M6655.71,1063.58 C6644.78,1063.58 6642.47,1054.65 6642.47,1051.67 C6642.47,1035.45 6698.08,1006.98 6713.63,1006.98 C6721.58,1006.98 6726.87,1011.62 6726.87,1018.9 C6726.87,1035.45 6670.93,1063.58 6655.71,1063.58 M6701.39,991.425 C6669.28,991.425 6630.88,1018.24 6630.88,1049.02 C6630.88,1063.25 6641.14,1079.14 6667.95,1079.14 C6702.38,1079.14 6738.46,1051 6738.46,1021.88 C6738.46,1002.35 6721.91,991.425 6701.39,991.425"/>
<path class="Note" d="M5836.83,2867.92 C5836.83,2882.15 5847.09,2898.04 5873.9,2898.04 C5908.33,2898.04 5944.4,2869.9 5944.4,2840.77 C5944.4,2821.25 5927.85,2810.32 5907.33,2810.32 C5875.23,2810.32 5836.83,2837.46 5836.83,2867.92"/>
<path class="Note" d="M6195.03,1090.36 C6195.03,1104.59 6205.29,1120.48 6232.1,1120.48 C6266.53,1120.48 6302.61,1092.34 6302.61,1063.22 C6302.61,1043.69 6286.06,1032.76 6265.54,1032.76 C6233.43,1032.76 6195.03,1059.91 6195.03,1090.36"/>
<path class="Note" d="M6166.31,2826.58 C6166.31,2840.81 6176.57,2856.7 6203.38,2856.7 C6237.81,2856.7 6273.89,2828.56 6273.89,2799.44 C6273.89,2779.91 6257.34,2768.98 6236.81,2768.98 C6204.71,2768.98 6166.31,2796.13 6166.31,2826.58"/>
<path class="Note" d="M5877.41,1131.7 C5877.41,1145.93 5887.67,1161.82 5914.48,1161.82 C5948.91,1161.82 5984.99,1133.68 5984.99,1104.55 C5984.99,1085.02 5968.44,1074.1 5947.91,1074.1 C5915.81,1074.1 5877.41,1101.24 5877.41,1131.7"/>
<path class="Note" d="M5559.79,966.341 C5559.79,980.574 5570.05,996.462 5596.86,996.462 C5631.29,996.462 5667.36,968.327 5667.36,939.199 C5667.36,919.67 5650.81,908.747 5630.29,908.747 C5598.19,908.747 5559.79,935.889 5559.79,966.341"/>
<path class="Note" d="M5123.94,1007.68 C5123.94,1021.91 5134.2,1037.8 5161.01,1037.8 C5195.44,1037.8 5231.51,1009.67 5231.51,980.538 C5231.51,961.009 5214.96,950.086 5194.44,950.086 C5162.34,950.086 5123.94,977.228 5123.94,1007.68"/>
<path class="Note" d="M6638.85,2799.8 C6627.92,2799.8 6625.61,2790.87 6625.61,2787.89 C6625.61,2771.67 6681.21,2743.2 6696.77,2743.2 C6704.71,2743.2 6710.01,2747.84 6710.01,2755.12 C6710.01,2771.67 6654.07,2799.8 6638.85,2799.8 M6684.52,2727.65 C6652.42,2727.65 6614.02,2754.46 6614.02,2785.24 C6614.02,2799.47 6624.28,2815.36 6651.09,2815.36 C6685.52,2815.36 6721.6,2787.23 6721.6,2758.1 C6721.6,2738.57 6705.05,2727.65 6684.52,2727.65"/>
<path class="Note" d="M4806.32,1049.02 C4806.32,1063.25 4816.58,1079.14 4843.39,1079.14 C4877.81,1079.14 4913.89,1051 4913.89,1021.88 C4913.89,1002.35 4897.34,991.425 4876.82,991.425 C4844.71,991.425 4806.32,1018.57 4806.32,1049.02"/>
<path class="Note" d="M7108.24,2743.9 C7108.24,2758.13 7118.5,2774.02 7145.31,2774.02 C7179.74,2774.02 7215.82,2745.89 7215.82,2716.76 C7215.82,2697.23 7199.27,2686.31 7178.75,2686.31 C7146.64,2686.31 7108.24,2713.45 7108.24,2743.9"/>
<path class="Note" d="M4488.7,925.003 C4488.7,939.236 4498.96,955.124 4525.77,955.124 C4560.19,955.124 4596.27,926.989 4596.27,897.861 C4596.27,878.332 4579.72,867.409 4559.2,867.409 C4527.09,867.409 4488.7,894.551 4488.7,925.003"/>
<path class="Note" d="M8245.69,1834.45 C8245.69,1848.68 8255.95,1864.57 8282.76,1864.57 C8317.19,1864.57 8353.27,1836.44 8353.27,1807.31 C8353.27,1787.78 8336.72,1776.86 8316.2,1776.86 C8284.09,1776.86 8245.69,1804 8245.69,1834.45"/>
<path class="Clef" d="M909.689,2012.75 C903.069,2014.08 896.78,2014.74 890.491,2014.74 C843.158,2014.74 802.776,1981.64 802.776,1931.66 C802.776,1891.27 831.242,1855.2 860.37,1830.04 C865.997,1825.07 871.293,1820.44 876.258,1815.48 C879.237,1833.35 881.554,1848.91 883.871,1862.48 C853.75,1871.41 833.228,1903.19 833.228,1934.3 C833.228,1957.47 851.433,1989.25 877.913,1989.25 C880.561,1989.25 883.54,1987.93 883.54,1984.95 C883.54,1981.97 880.23,1980.31 876.258,1977.67 C863.349,1969.72 856.067,1961.12 856.067,1944.9 C856.067,1924.71 870.962,1908.49 890.491,1903.85 L909.689,2012.75 M880.561,1672.48 C883.54,1659.24 898.766,1624.49 915.978,1624.49 C920.943,1624.49 928.887,1640.71 928.887,1663.55 C928.887,1697.97 903.4,1723.79 880.561,1746.3 C878.575,1733.06 876.92,1720.15 876.92,1706.25 C876.92,1694 877.913,1682.74 880.561,1672.48 M956.691,1951.52 C956.691,1975.02 947.092,1999.18 923.591,2008.78 C916.64,1969.06 907.703,1916.43 905.386,1901.87 C935.176,1901.87 956.691,1922.06 956.691,1951.52 M811.051,2114.37 C811.051,2136.21 827.932,2165.01 872.617,2165.01 C888.174,2165.01 901.745,2161.04 913.661,2153.76 C931.535,2141.18 936.169,2119.33 936.169,2098.48 C936.169,2085.57 934.183,2070.68 930.873,2051.81 C929.88,2045.19 927.894,2035.26 925.908,2022.35 C958.346,2011.76 982.509,1978 982.509,1943.9 C982.509,1893.92 947.092,1860.16 898.766,1860.16 C895.456,1840.3 892.146,1820.77 889.167,1802.24 C924.253,1765.49 948.416,1724.12 948.416,1671.49 C948.416,1641.37 939.148,1616.88 933.852,1604.96 C925.908,1588.08 916.309,1576.49 910.351,1576.49 C908.034,1576.49 897.773,1580.47 886.85,1593.37 C865.666,1618.53 859.708,1660.9 859.708,1688.7 C859.708,1706.58 861.363,1722.8 866.99,1759.87 C866.659,1760.2 849.447,1777.74 842.496,1783.37 C812.375,1811.5 770.669,1851.55 770.669,1917.75 C770.669,1979.65 824.622,2028.31 886.188,2028.31 C895.787,2028.31 904.724,2027.32 912.337,2025.99 C918.626,2057.77 922.267,2080.94 922.267,2098.48 C922.267,2132.9 904.724,2151.11 871.293,2151.11 C863.349,2151.11 856.398,2149.45 855.736,2149.45 C855.405,2149.12 854.743,2148.79 854.743,2148.46 C854.743,2147.8 855.405,2147.47 856.398,2147.14 C871.955,2144.82 887.512,2131.58 887.512,2110.4 C887.512,2092.52 873.941,2073.66 849.116,2073.66 C825.946,2073.66 811.051,2092.52 811.051,2114.37"/>
<path class="Clef" d="M909.689,1144.64 C903.069,1145.97 896.78,1146.63 890.491,1146.63 C843.158,1146.63 802.776,1113.53 802.776,1063.55 C802.776,1023.16 831.242,987.085 860.37,961.929 C865.997,956.964 871.293,952.33 876.258,947.365 C879.237,965.239 881.554,980.796 883.871,994.367 C853.75,1003.3 833.228,1035.08 833.228,1066.19 C833.228,1089.36 851.433,1121.14 877.913,1121.14 C880.561,1121.14 883.54,1119.82 883.54,1116.84 C883.54,1113.86 880.23,1112.2 876.258,1109.56 C863.349,1101.61 856.067,1093.01 856.067,1076.79 C856.067,1056.6 870.962,1040.38 890.491,1035.74 L909.689,1144.64 M880.561,804.373 C883.54,791.133 898.766,756.378 915.978,756.378 C920.943,756.378 928.887,772.597 928.887,795.436 C928.887,829.86 903.4,855.678 880.561,878.186 C878.575,864.946 876.92,852.037 876.92,838.135 C876.92,825.888 877.913,814.634 880.561,804.373 M956.691,1083.41 C956.691,1106.91 947.092,1131.07 923.591,1140.67 C916.64,1100.95 907.703,1048.32 905.386,1033.76 C935.176,1033.76 956.691,1053.95 956.691,1083.41 M811.051,1246.26 C811.051,1268.1 827.932,1296.9 872.617,1296.9 C888.174,1296.9 901.745,1292.93 913.661,1285.65 C931.535,1273.07 936.169,1251.22 936.169,1230.37 C936.169,1217.46 934.183,1202.57 930.873,1183.7 C929.88,1177.08 927.894,1167.15 925.908,1154.24 C958.346,1143.65 982.509,1109.89 982.509,1075.79 C982.509,1025.81 947.092,992.05 898.766,992.05 C895.456,972.19 892.146,952.661 889.167,934.125 C924.253,897.384 948.416,856.009 948.416,803.38 C948.416,773.259 939.148,748.765 933.852,736.849 C925.908,719.968 916.309,708.383 910.351,708.383 C908.034,708.383 897.773,712.355 886.85,725.264 C865.666,750.42 859.708,792.788 859.708,820.592 C859.708,838.466 861.363,854.685 866.99,891.757 C866.659,892.088 849.447,909.631 842.496,915.258 C812.375,943.393 770.669,983.444 770.669,1049.64 C770.669,1111.54 824.622,1160.2 886.188,1160.2 C895.787,1160.2 904.724,1159.21 912.337,1157.88 C918.626,1189.66 922.267,1212.83 922.267,1230.37 C922.267,1264.79 904.724,1283 871.293,1283 C863.349,1283 856.398,1281.34 855.736,1281.34 C855.405,1281.01 854.743,1280.68 854.743,1280.35 C854.743,1279.69 855.405,1279.36 856.398,1279.03 C871.955,1276.71 887.512,1263.47 887.512,1242.29 C887.512,1224.41 873.941,1205.55 849.116,1205.55 C825.946,1205.55 811.051,1224.41 811.051,1246.26"/>
<path class="Clef" d="M909.689,2880.86 C903.069,2882.19 896.78,2882.85 890.491,2882.85 C843.158,2882.85 802.776,2849.75 802.776,2799.77 C802.776,2759.38 831.242,2723.31 860.37,2698.15 C865.997,2693.18 871.293,2688.55 876.258,2683.59 C879.237,2701.46 881.554,2717.02 883.871,2730.59 C853.75,2739.52 833.228,2771.3 833.228,2802.41 C833.228,2825.58 851.433,2857.36 877.913,2857.36 C880.561,2857.36 883.54,2856.04 883.54,2853.06 C883.54,2850.08 880.23,2848.42 876.258,2845.78 C863.349,2837.83 856.067,2829.23 856.067,2813.01 C856.067,2792.82 870.962,2776.6 890.491,2771.96 L909.689,2880.86 M880.561,2540.59 C883.54,2527.35 898.766,2492.6 915.978,2492.6 C920.943,2492.6 928.887,2508.82 928.887,2531.66 C928.887,2566.08 903.4,2591.9 880.561,2614.41 C878.575,2601.17 876.92,2588.26 876.92,2574.36 C876.92,2562.11 877.913,2550.85 880.561,2540.59 M956.691,2819.63 C956.691,2843.13 947.092,2867.29 923.591,2876.89 C916.64,2837.17 907.703,2784.54 905.386,2769.98 C935.176,2769.98 956.691,2790.17 956.691,2819.63 M811.051,2982.48 C811.051,3004.32 827.932,3033.12 872.617,3033.12 C888.174,3033.12 901.745,3029.15 913.661,3021.87 C931.535,3009.29 936.169,2987.44 936.169,2966.59 C936.169,2953.68 934.183,2938.79 930.873,2919.92 C929.88,2913.3 927.894,2903.37 925.908,2890.46 C958.346,2879.87 982.509,2846.11 982.509,2812.01 C982.509,2762.03 947.092,2728.27 898.766,2728.27 C895.456,2708.41 892.146,2688.88 889.167,2670.35 C924.253,2633.6 948.416,2592.23 948.416,2539.6 C948.416,2509.48 939.148,2484.99 933.852,2473.07 C925.908,2456.19 916.309,2444.6 910.351,2444.6 C908.034,2444.6 897.773,2448.58 886.85,2461.48 C865.666,2486.64 859.708,2529.01 859.708,2556.81 C859.708,2574.69 861.363,2590.91 866.99,2627.98 C866.659,2628.31 849.447,2645.85 842.496,2651.48 C812.375,2679.61 770.669,2719.66 770.669,2785.86 C770.669,2847.76 824.622,2896.42 886.188,2896.42 C895.787,2896.42 904.724,2895.43 912.337,2894.1 C918.626,2925.88 922.267,2949.05 922.267,2966.59 C922.267,3001.01 904.724,3019.22 871.293,3019.22 C863.349,3019.22 856.398,3017.56 855.736,3017.56 C855.405,3017.23 854.743,3016.9 854.743,3016.57 C854.743,3015.91 855.405,3015.58 856.398,3015.25 C871.955,3012.93 887.512,2999.69 887.512,2978.51 C887.512,2960.63 873.941,2941.77 849.116,2941.77 C825.946,2941.77 811.051,2960.63 811.051,2982.48"/>
<path class="KeySig" d="M1088.05,1848.65 C1088.05,1874.8 1074.48,1888.7 1055.28,1903.93 L1056.27,1839.38 C1056.93,1836.4 1061.9,1826.8 1075.14,1826.8 C1087.06,1826.8 1088.05,1838.06 1088.05,1845.01 L1088.05,1848.65 M1084.08,1810.58 C1067.53,1810.58 1057.93,1820.84 1056.27,1822.83 L1057.6,1716.58 C1057.6,1713.93 1055.61,1711.95 1052.96,1711.95 L1048.99,1711.95 C1046.34,1711.95 1044.36,1713.93 1044.36,1716.58 L1046.01,1915.51 C1046.01,1918.16 1048,1920.14 1050.65,1920.14 C1051.31,1920.14 1052.63,1919.81 1053.29,1919.48 C1081.76,1905.25 1111.55,1878.11 1111.55,1844.01 C1111.55,1826.8 1103.61,1810.58 1084.08,1810.58"/>
<path class="KeySig" d="M1179.99,1724.63 C1179.99,1750.78 1166.42,1764.68 1147.22,1779.91 L1148.21,1715.36 C1148.87,1712.39 1153.84,1702.79 1167.08,1702.79 C1178.99,1702.79 1179.99,1714.04 1179.99,1720.99 L1179.99,1724.63 M1176.01,1686.57 C1159.46,1686.57 1149.87,1696.83 1148.21,1698.81 L1149.53,1592.56 C1149.53,1589.92 1147.55,1587.93 1144.9,1587.93 L1140.93,1587.93 C1138.28,1587.93 1136.29,1589.92 1136.29,1592.56 L1137.95,1791.49 C1137.95,1794.14 1139.94,1796.13 1142.58,1796.13 C1143.25,1796.13 1144.57,1795.8 1145.23,1795.47 C1173.7,1781.23 1203.49,1754.09 1203.49,1720 C1203.49,1702.79 1195.54,1686.57 1176.01,1686.57"/>
<path class="KeySig" d="M1088.05,2716.76 C1088.05,2742.91 1074.48,2756.81 1055.28,2772.04 L1056.27,2707.49 C1056.93,2704.51 1061.9,2694.91 1075.14,2694.91 C1087.06,2694.91 1088.05,2706.17 1088.05,2713.12 L1088.05,2716.76 M1084.08,2678.69 C1067.53,2678.69 1057.93,2688.95 1056.27,2690.94 L1057.6,2584.69 C1057.6,2582.04 1055.61,2580.06 1052.96,2580.06 L1048.99,2580.06 C1046.34,2580.06 1044.36,2582.04 1044.36,2584.69 L1046.01,2783.62 C1046.01,2786.27 1048,2788.25 1050.65,2788.25 C1051.31,2788.25 1052.63,2787.92 1053.29,2787.59 C1081.76,2773.36 1111.55,2746.22 1111.55,2712.12 C1111.55,2694.91 1103.61,2678.69 1084.08,2678.69"/>
<path class="KeySig" d="M1179.99,2592.74 C1179.99,2618.89 1166.42,2632.79 1147.22,2648.02 L1148.21,2583.47 C1148.87,2580.5 1153.84,2570.9 1167.08,2570.9 C1178.99,2570.9 1179.99,2582.15 1179.99,2589.1 L1179.99,2592.74 M1176.01,2554.68 C1159.46,2554.68 1149.87,2564.94 1148.21,2566.92 L1149.53,2460.67 C1149.53,2458.03 1147.55,2456.04 1144.9,2456.04 L1140.93,2456.04 C1138.28,2456.04 1136.29,2458.03 1136.29,2460.67 L1137.95,2659.6 C1137.95,2662.25 1139.94,2664.24 1142.58,2664.24 C1143.25,2664.24 1144.57,2663.91 1145.23,2663.58 C1173.7,2649.34 1203.49,2622.2 1203.49,2588.11 C1203.49,2570.9 1195.54,2554.68 1176.01,2554.68"/>
<path class="KeySig" d="M1088.05,980.538 C1088.05,1006.69 1074.48,1020.59 1055.28,1035.82 L1056.27,971.27 C1056.93,968.291 1061.9,958.692 1075.14,958.692 C1087.06,958.692 1088.05,969.946 1088.05,976.897 L1088.05,980.538 M1084.08,942.473 C1067.53,942.473 1057.93,952.734 1056.27,954.72 L1057.6,848.469 C1057.6,845.821 1055.61,843.835 1052.96,843.835 L1048.99,843.835 C1046.34,843.835 1044.36,845.821 1044.36,848.469 L1046.01,1047.4 C1046.01,1050.05 1048,1052.03 1050.65,1052.03 C1051.31,1052.03 1052.63,1051.7 1053.29,1051.37 C1081.76,1037.14 1111.55,1010 1111.55,975.904 C1111.55,958.692 1103.61,942.473 1084.08,942.473"/>
<path class="KeySig" d="M1179.99,856.522 C1179.99,882.671 1166.42,896.573 1147.22,911.799 L1148.21,847.254 C1148.87,844.275 1153.84,834.676 1167.08,834.676 C1178.99,834.676 1179.99,845.93 1179.99,852.881 L1179.99,856.522 M1176.01,818.457 C1159.46,818.457 1149.87,828.718 1148.21,830.704 L1149.53,724.453 C1149.53,721.805 1147.55,719.819 1144.9,719.819 L1140.93,719.819 C1138.28,719.819 1136.29,721.805 1136.29,724.453 L1137.95,923.384 C1137.95,926.032 1139.94,928.018 1142.58,928.018 C1143.25,928.018 1144.57,927.687 1145.23,927.356 C1173.7,913.123 1203.49,885.981 1203.49,851.888 C1203.49,834.676 1195.54,818.457 1176.01,818.457"/>
<path class="TimeSig" d="M1384.57,907.779 C1411.05,897.518 1412.71,880.306 1412.71,874.348 L1412.71,872.693 C1412.71,869.714 1411.71,832.311 1354.78,832.311 C1297.85,832.311 1299.5,872.693 1299.5,872.693 L1299.83,872.693 L1299.5,873.355 C1299.5,885.271 1309.1,894.539 1321.02,894.539 C1332.93,894.539 1342.2,885.271 1342.2,873.355 C1342.2,863.756 1334.92,854.488 1325.65,852.502 L1326.65,851.509 C1331.28,848.199 1337.57,846.544 1343.86,846.544 C1357.76,846.544 1372.65,854.819 1372.65,872.693 C1372.65,893.546 1357.1,896.525 1353.13,897.187 C1349.15,897.849 1330.62,899.173 1326.65,899.173 C1322.67,899.173 1322.34,903.807 1322.34,903.807 L1322.34,910.427 C1322.34,910.427 1323,914.068 1326.65,914.399 C1332.27,914.73 1339.89,914.73 1350.48,916.385 C1365.04,918.371 1372.65,928.301 1372.65,951.471 C1372.65,973.648 1357.76,979.606 1343.86,979.606 C1334.59,979.606 1325.98,976.958 1322.34,974.31 C1333.27,973.648 1342.2,964.049 1342.2,953.126 C1342.2,941.21 1332.93,931.611 1321.02,931.611 C1309.1,931.611 1299.5,941.21 1299.5,953.126 C1299.5,980.268 1324.33,993.839 1348.82,993.839 C1380.6,993.839 1415.02,982.916 1415.02,946.837 C1415.02,922.674 1398.47,912.413 1383.91,907.779 L1384.57,907.779 "/>
<path class="TimeSig" d="M1350.34,1118.01 L1350.34,1142.5 L1322.87,1142.5 C1320.55,1142.5 1318.23,1144.49 1318.23,1147.13 L1318.23,1153.42 C1318.23,1156.07 1320.55,1158.06 1322.87,1158.06 L1423.16,1158.06 C1425.81,1158.06 1427.79,1156.07 1427.79,1153.42 L1427.79,1147.13 C1427.79,1144.49 1425.81,1142.5 1423.16,1142.5 L1393.37,1142.5 L1393.37,1118.01 L1423.16,1118.01 C1425.81,1118.01 1427.79,1115.69 1427.79,1113.04 L1427.79,1106.75 C1427.79,1104.44 1425.81,1102.12 1423.16,1102.12 L1393.37,1102.12 L1393.37,1049.49 C1393.37,1047.5 1392.38,1045.85 1391.05,1045.19 L1387.08,1043.2 C1386.42,1042.87 1386.09,1042.87 1385.43,1042.87 C1384.1,1042.87 1382.78,1042.87 1381.78,1043.86 L1351.66,1071.34 C1350.67,1072.33 1350.34,1073.65 1350.34,1074.98 L1350.34,1102.12 L1311.94,1102.12 C1311.94,1102.12 1349.02,1062.4 1388.07,1010.1 C1389.4,1008.45 1389.73,1006.79 1389.73,1005.47 C1389.73,1003.81 1389.07,1002.49 1388.74,1002.16 L1381.45,994.874 C1380.46,994.212 1379.47,993.55 1378.14,993.55 C1376.16,993.55 1331.47,993.55 1328.82,993.55 C1326.51,993.55 1324.85,995.536 1324.52,997.522 C1324.52,997.522 1322.87,1022.02 1314.26,1048.83 C1305.65,1075.64 1295.72,1092.19 1287.12,1104.44 C1287.12,1104.44 1286.13,1106.09 1286.13,1108.08 C1286.13,1108.74 1286.13,1109.4 1286.46,1110.06 C1287.45,1112.38 1289.77,1116.02 1289.77,1116.02 C1289.77,1116.02 1290.43,1118.01 1293.41,1118.01 L1350.34,1118.01 "/>
<path class="NoteDot" d="M8604.28,1117.79 C8604.28,1127.06 8611.56,1134.34 8620.83,1134.34 C8630.1,1134.34 8637.38,1127.06 8637.38,1117.79 C8637.38,1108.53 8630.1,1101.24 8620.83,1101.24 C8611.56,1101.24 8604.28,1108.53 8604.28,1117.79"/>
<path class="NoteDot" d="M4699.89,1820.55 C4699.89,1829.82 4707.17,1837.1 4716.44,1837.1 C4725.71,1837.1 4732.99,1829.82 4732.99,1820.55 C4732.99,1811.28 4725.71,1804 4716.44,1804 C4707.17,1804 4699.89,1811.28 4699.89,1820.55"/>
<path class="NoteDot" d="M8394.53,1820.55 C8394.53,1829.82 8401.81,1837.1 8411.08,1837.1 C8420.34,1837.1 8427.63,1829.82 8427.63,1820.55 C8427.63,1811.28 8420.34,1804 8411.08,1804 C8401.81,1804 8394.53,1811.28 8394.53,1820.55"/>
<path class="NoteDot" d="M8646.72,2854.01 C8646.72,2863.28 8654,2870.56 8663.27,2870.56 C8672.54,2870.56 8679.82,2863.28 8679.82,2854.01 C8679.82,2844.75 8672.54,2837.46 8663.27,2837.46 C8654,2837.46 8646.72,2844.75 8646.72,2854.01"/>
</svg>
