<?xml version="1.0" encoding="utf-8"?>
<svg xmlns="http://www.w3.org/2000/svg" xmlns:svg="http://www.w3.org/2000/svg" version="1.1" viewBox="0 0 681 187">
	<title>A score 3 staves long in 6/4 time, in the key of G Major.</title>
	<path d="M469.944 82.323a1.31 1.31 0 0 0 1.323 1.323 1.31 1.31 0 0 0 1.324-1.323 1.31 1.31 0 0 0-1.324-1.324 1.31 1.31 0 0 0-1.323 1.324m111.107 89.252a1.31 1.31 0 0 0 1.324 1.323 1.31 1.31 0 0 0 1.323-1.323 1.31 1.31 0 0 0-1.323-1.324 1.31 1.31 0 0 0-1.324 1.324M153.577 26.127c0 .741.582 1.324 1.323 1.324a1.31 1.31 0 0 0 1.323-1.324 1.31 1.31 0 0 0-1.323-1.323 1.31 1.31 0 0 0-1.323 1.323m410.44 62.807a1.31 1.31 0 0 0 1.324 1.324 1.31 1.31 0 0 0 1.324-1.324 1.31 1.31 0 0 0-1.324-1.323 1.31 1.31 0 0 0-1.323 1.323M240.254 19.516c0 .741.583 1.323 1.324 1.323a1.31 1.31 0 0 0 1.323-1.323 1.31 1.31 0 0 0-1.323-1.324c-.74 0-1.324.583-1.324 1.324M76.352 32.738a1.31 1.31 0 0 0 1.323 1.324A1.31 1.31 0 0 0 79 32.738a1.31 1.31 0 0 0-1.324-1.323c-.74 0-1.323.583-1.323 1.323m469.192 0a1.31 1.31 0 0 0 1.324 1.324 1.31 1.31 0 0 0 1.323-1.324 1.31 1.31 0 0 0-1.323-1.323 1.31 1.31 0 0 0-1.324 1.323M458.52 19.516a1.31 1.31 0 0 0 1.324 1.323 1.31 1.31 0 0 0 1.323-1.323 1.31 1.31 0 0 0-1.323-1.324 1.31 1.31 0 0 0-1.324 1.324m-58.972 138.837a1.31 1.31 0 0 0 1.323 1.323 1.31 1.31 0 0 0 1.323-1.323 1.31 1.31 0 0 0-1.323-1.324 1.31 1.31 0 0 0-1.323 1.324M45.043 32.756v1.958h-2.196c-.186 0-.37.16-.37.37v.503c0 .212.184.371.37.371h8.02c.211 0 .37-.159.37-.37v-.504c0-.21-.159-.37-.37-.37h-2.383v-1.958h2.382c.212 0 .371-.186.371-.398v-.503c0-.184-.159-.37-.37-.37h-2.383v-4.208c0-.16-.079-.291-.184-.344l-.318-.16c-.053-.026-.08-.026-.133-.026-.105 0-.212 0-.29.08l-2.41 2.197a.4.4 0 0 0-.106.29v2.171h-3.07s2.965-3.176 6.088-7.358a.58.58 0 0 0 .132-.37.44.44 0 0 0-.079-.265l-.582-.583c-.08-.053-.16-.106-.265-.106h-3.944c-.185 0-.317.16-.343.318 0 0-.133 1.959-.82 4.103-.69 2.144-1.483 3.467-2.172 4.447 0 0-.08.132-.08.29 0 .053 0 .106.027.159.08.186.265.477.265.477s.053.159.291.159zm.794-11.054c-.874 0-1.588-1.191-1.588-2.674s.714-2.7 1.588-2.7c.873 0 1.614 1.218 1.614 2.7s-.741 2.674-1.614 2.674m.978-6.618c-1.614 0-2.196.477-2.566.874-.08-.556-.133-.98-.133-1.403 0-1.509.53-3.467 2.382-3.467.662 0 1.059.212 1.323.503-.555.238-1.006.953-1.006 1.561 0 .953.742 1.694 1.695 1.694.952 0 1.72-.74 1.72-1.694v-.08c0-.237-.053-.634-.158-.846-.345-.953-1.457-2.356-4.103-2.356-2.383 0-4.103 2.277-4.632 3.494a9.4 9.4 0 0 0-.662 3.414c0 1.615.45 3.441 2.012 4.818 1.535 1.164 2.514 1.217 3.44 1.217s4.394-1.085 4.394-4.155c0-2.594-2.038-3.574-3.706-3.574M28.908 7.64l2.356-.476v4.367l-2.356.503zm4.103-.82c.16-.027.291-.212.291-.37V4.887c0-.212-.159-.37-.37-.37h-.054l-.873.184V.76h-.741V4.86l-2.356.477V1.606h-.74v3.89l-1.033.212c-.159.027-.29.212-.29.37v1.536c0 .212.158.37.37.37h.079l.874-.185v4.367l-1.033.212c-.159.027-.29.212-.29.37v1.536c0 .212.158.37.37.37h.079l.874-.185v3.944h.74V14.31l2.356-.476v3.732h.741v-3.89l1.006-.186c.16-.027.291-.212.291-.37v-1.562c0-.212-.159-.37-.37-.37h-.054l-.873.184V7.005zm-4.103 139.657 2.356-.477v4.368l-2.356.503zm4.103-.82c.16-.027.291-.212.291-.37v-1.562a.36.36 0 0 0-.37-.371h-.054l-.873.185v-3.944h-.741v4.103l-2.356.476v-3.732h-.74v3.891l-1.033.212c-.159.026-.29.212-.29.37v1.536c0 .212.158.37.37.37h.079l.874-.185v4.367l-1.033.212c-.159.026-.29.212-.29.37v1.535c0 .212.158.372.37.372h.079l.874-.186v3.944h.74v-4.103l2.356-.477v3.733h.741v-3.891l1.006-.186c.16-.026.291-.211.291-.37v-1.562a.36.36 0 0 0-.37-.37h-.054l-.873.185v-4.367zm-4.103-68.598 2.356-.477v4.368l-2.356.503zm4.103-.82c.16-.027.291-.213.291-.372v-1.56a.36.36 0 0 0-.37-.372h-.054l-.873.186v-3.944h-.741v4.102l-2.356.477v-3.732h-.74v3.89l-1.033.213c-.159.026-.29.21-.29.37v1.535c0 .212.157.37.37.37h.079l.874-.184v4.367l-1.033.212c-.159.026-.29.212-.29.37v1.535c0 .212.157.37.37.37h.079l.874-.184v3.944h.74v-4.103l2.356-.477v3.732h.741v-3.89l1.006-.186c.16-.026.291-.212.291-.37v-1.562a.36.36 0 0 0-.37-.37h-.054l-.873.185v-4.367zM16.075 34.885c-.53.107-1.032.16-1.535.16-3.785 0-7.014-2.647-7.014-6.644 0-3.23 2.276-6.115 4.605-8.126.45-.397.874-.768 1.27-1.165.24 1.43.424 2.673.61 3.759-2.409.714-4.05 3.255-4.05 5.743 0 1.853 1.456 4.394 3.573 4.394.212 0 .45-.105.45-.344 0-.238-.264-.37-.582-.582-1.032-.636-1.615-1.323-1.615-2.62 0-1.615 1.191-2.912 2.753-3.283zm-2.329-27.21c.238-1.058 1.456-3.837 2.832-3.837.397 0 1.032 1.297 1.032 3.123 0 2.753-2.038 4.817-3.864 6.617-.159-1.058-.291-2.09-.291-3.202 0-.98.08-1.88.291-2.7m6.088 22.313c0 1.88-.768 3.811-2.647 4.579a881 881 0 0 1-1.456-8.55c2.382 0 4.103 1.615 4.103 3.971M8.188 43.011c0 1.747 1.35 4.05 4.923 4.05 1.244 0 2.329-.318 3.282-.9 1.43-1.006 1.8-2.753 1.8-4.42 0-1.033-.16-2.223-.424-3.732-.08-.53-.238-1.324-.397-2.356 2.594-.847 4.526-3.547 4.526-6.273 0-3.997-2.832-6.697-6.696-6.697-.265-1.588-.53-3.15-.768-4.632 2.806-2.938 4.738-6.246 4.738-10.455 0-2.408-.741-4.367-1.165-5.32C17.372.926 16.605 0 16.128 0c-.185 0-1.006.318-1.88 1.35-1.693 2.011-2.17 5.4-2.17 7.623 0 1.43.133 2.726.583 5.69-.027.027-1.403 1.43-1.959 1.88-2.408 2.25-5.743 5.452-5.743 10.746 0 4.95 4.314 8.84 9.237 8.84.768 0 1.482-.079 2.091-.185.503 2.541.794 4.394.794 5.797 0 2.752-1.403 4.208-4.076 4.208-.635 0-1.191-.133-1.244-.133-.027-.026-.08-.052-.08-.079 0-.053.053-.079.133-.105 1.244-.186 2.488-1.245 2.488-2.938 0-1.43-1.085-2.938-3.07-2.938-1.853 0-3.044 1.508-3.044 3.255m7.887 130.71c-.53.107-1.032.16-1.535.16-3.785 0-7.014-2.647-7.014-6.644 0-3.23 2.276-6.114 4.605-8.126.45-.397.874-.767 1.27-1.164.24 1.43.424 2.673.61 3.759-2.409.714-4.05 3.255-4.05 5.743 0 1.852 1.456 4.394 3.573 4.394.212 0 .45-.106.45-.344s-.264-.371-.582-.582c-1.032-.636-1.615-1.324-1.615-2.62 0-1.615 1.191-2.912 2.753-3.283zm-2.329-27.21c.238-1.059 1.456-3.837 2.832-3.837.397 0 1.032 1.297 1.032 3.123 0 2.752-2.038 4.817-3.864 6.617-.159-1.059-.291-2.09-.291-3.202 0-.98.08-1.88.291-2.7m6.088 22.313c0 1.879-.768 3.81-2.647 4.578a881 881 0 0 1-1.456-8.549c2.382 0 4.103 1.615 4.103 3.97M8.188 181.849c0 1.746 1.35 4.05 4.923 4.05 1.244 0 2.329-.318 3.282-.9 1.43-1.006 1.8-2.754 1.8-4.42 0-1.033-.16-2.224-.424-3.733-.08-.53-.238-1.323-.397-2.355 2.594-.847 4.526-3.547 4.526-6.274 0-3.996-2.832-6.696-6.696-6.696-.265-1.588-.53-3.15-.768-4.632 2.806-2.938 4.738-6.246 4.738-10.455 0-2.409-.741-4.367-1.165-5.32-.635-1.35-1.402-2.277-1.879-2.277-.185 0-1.006.319-1.88 1.35-1.693 2.012-2.17 5.4-2.17 7.623 0 1.43.133 2.727.583 5.691-.027.027-1.403 1.43-1.959 1.88-2.408 2.249-5.743 5.452-5.743 10.745 0 4.95 4.314 8.841 9.237 8.841.768 0 1.482-.08 2.091-.185.503 2.54.794 4.394.794 5.796 0 2.753-1.403 4.209-4.076 4.209-.635 0-1.191-.133-1.244-.133-.027-.026-.08-.053-.08-.08 0-.052.053-.078.133-.105 1.244-.185 2.488-1.244 2.488-2.938 0-1.43-1.085-2.938-3.07-2.938-1.853 0-3.044 1.509-3.044 3.256m7.887-77.545c-.53.107-1.032.16-1.535.16-3.785 0-7.014-2.647-7.014-6.644 0-3.23 2.276-6.114 4.605-8.126.45-.397.874-.768 1.27-1.164.24 1.429.424 2.673.61 3.758-2.409.714-4.05 3.256-4.05 5.743 0 1.853 1.456 4.394 3.573 4.394.212 0 .45-.105.45-.344 0-.238-.264-.37-.582-.582-1.032-.635-1.615-1.323-1.615-2.62 0-1.615 1.191-2.912 2.753-3.283zm-2.329-27.21c.238-1.059 1.456-3.838 2.832-3.838.397 0 1.032 1.297 1.032 3.124 0 2.752-2.038 4.817-3.864 6.617-.159-1.059-.291-2.091-.291-3.203 0-.98.08-1.88.291-2.7m6.088 22.313c0 1.88-.768 3.811-2.647 4.58a881 881 0 0 1-1.456-8.55c2.382 0 4.103 1.615 4.103 3.97M8.188 112.43c0 1.746 1.35 4.049 4.923 4.049 1.244 0 2.329-.317 3.282-.9 1.43-1.006 1.8-2.753 1.8-4.42 0-1.032-.16-2.223-.424-3.732-.08-.53-.238-1.323-.397-2.356 2.594-.847 4.526-3.546 4.526-6.273 0-3.997-2.832-6.696-6.696-6.696-.265-1.588-.53-3.15-.768-4.632 2.806-2.939 4.738-6.247 4.738-10.455 0-2.409-.741-4.367-1.165-5.32-.635-1.35-1.402-2.277-1.879-2.277-.185 0-1.006.318-1.88 1.35-1.693 2.012-2.17 5.4-2.17 7.623 0 1.43.133 2.727.583 5.691-.027.026-1.403 1.429-1.959 1.88C8.294 88.21 4.96 91.412 4.96 96.706c0 4.95 4.314 8.84 9.237 8.84.768 0 1.482-.078 2.091-.185.503 2.542.794 4.394.794 5.797 0 2.752-1.403 4.208-4.076 4.208-.635 0-1.191-.132-1.244-.132-.027-.027-.08-.053-.08-.08 0-.052.053-.079.133-.105 1.244-.186 2.488-1.244 2.488-2.938 0-1.43-1.085-2.938-3.07-2.938-1.853 0-3.044 1.508-3.044 3.256m379.746-17.914a.99.99 0 0 1-1.06-.953c0-1.297 4.448-3.573 5.691-3.573.636 0 1.059.37 1.059.953 0 1.323-4.473 3.573-5.69 3.573m3.652-5.77c-2.567 0-5.638 2.144-5.638 4.606 0 1.137.821 2.408 2.965 2.408 2.753 0 5.638-2.25 5.638-4.579 0-1.561-1.324-2.435-2.965-2.435M424.4 162.77c0 1.138.82 2.408 2.964 2.408 2.754 0 5.638-2.249 5.638-4.578 0-1.562-1.323-2.435-2.964-2.435-2.567 0-5.638 2.17-5.638 4.605m73.473-132.225c0 1.138.82 2.408 2.964 2.408 2.753 0 5.637-2.25 5.637-4.579 0-1.561-1.323-2.435-2.964-2.435-2.567 0-5.637 2.17-5.637 4.606m37.756 7.776a.99.99 0 0 1-1.059-.954c0-1.297 4.447-3.572 5.691-3.572.635 0 1.059.37 1.059.952 0 1.323-4.473 3.574-5.691 3.574m3.653-5.77c-2.567 0-5.638 2.143-5.638 4.604 0 1.14.82 2.41 2.964 2.41 2.754 0 5.638-2.25 5.638-4.58 0-1.562-1.323-2.435-2.964-2.435m-95.554 133.526c0 1.138.82 2.408 2.965 2.408 2.752 0 5.637-2.25 5.637-4.579 0-1.561-1.323-2.435-2.964-2.435-2.568 0-5.638 2.17-5.638 4.606m-56.08-3.306c0 1.138.82 2.408 2.964 2.408 2.753 0 5.638-2.249 5.638-4.578 0-1.562-1.323-2.435-2.964-2.435-2.568 0-5.639 2.17-5.639 4.605m85.074 9.917c0 1.138.82 2.409 2.964 2.409 2.752 0 5.637-2.25 5.637-4.58 0-1.56-1.323-2.435-2.964-2.435-2.568 0-5.637 2.17-5.637 4.606M64.45 37.155c0 1.14.821 2.41 2.965 2.41 2.753 0 5.638-2.25 5.638-4.58 0-1.562-1.323-2.435-2.964-2.435-2.567 0-5.638 2.17-5.638 4.605m382.168-13.222c0 1.138.82 2.409 2.964 2.409 2.753 0 5.638-2.25 5.638-4.58 0-1.56-1.324-2.434-2.965-2.434-2.567 0-5.637 2.17-5.637 4.605M349.2 159.464c0 1.138.82 2.409 2.965 2.409 2.753 0 5.638-2.25 5.638-4.58 0-1.56-1.324-2.434-2.965-2.434-2.567 0-5.638 2.17-5.638 4.605M585.67 31.71a.99.99 0 0 1-1.058-.952c0-1.297 4.447-3.574 5.691-3.574.635 0 1.059.37 1.059.953 0 1.324-4.473 3.573-5.691 3.573m3.652-5.77c-2.567 0-5.637 2.144-5.637 4.606 0 1.138.82 2.408 2.964 2.408 2.753 0 5.638-2.25 5.638-4.579 0-1.561-1.324-2.435-2.965-2.435m-281.625 141.3a.99.99 0 0 1-1.06-.951c0-1.298 4.448-3.574 5.691-3.574.636 0 1.059.37 1.059.953 0 1.323-4.473 3.573-5.69 3.573m3.652-5.77c-2.567 0-5.638 2.144-5.638 4.606 0 1.137.82 2.408 2.965 2.408 2.753 0 5.638-2.25 5.638-4.579 0-1.561-1.324-2.435-2.965-2.435m190.362 7.911c0 1.138.82 2.409 2.964 2.409 2.752 0 5.637-2.25 5.637-4.579 0-1.562-1.323-2.436-2.964-2.436-2.568 0-5.637 2.171-5.637 4.606m-224.992-3.305c0 1.138.82 2.408 2.965 2.408 2.753 0 5.638-2.25 5.638-4.579 0-1.561-1.324-2.435-2.965-2.435-2.567 0-5.638 2.17-5.638 4.606M228.353 23.933c0 1.138.82 2.409 2.965 2.409 2.753 0 5.638-2.25 5.638-4.58 0-1.56-1.324-2.434-2.964-2.434-2.568 0-5.639 2.17-5.639 4.605m19.375 145.448c0 1.138.82 2.409 2.964 2.409 2.753 0 5.639-2.25 5.639-4.579 0-1.562-1.324-2.436-2.965-2.436-2.567 0-5.638 2.171-5.638 4.606m405-138.836c0 1.138.82 2.408 2.965 2.408 2.752 0 5.637-2.25 5.637-4.579 0-1.561-1.323-2.435-2.964-2.435-2.568 0-5.638 2.17-5.638 4.606m-433.992 135.53c0 1.139.82 2.41 2.964 2.41 2.753 0 5.639-2.25 5.639-4.58 0-1.561-1.324-2.435-2.965-2.435-2.567 0-5.638 2.17-5.638 4.606M192.582 27.239c0 1.138.82 2.409 2.964 2.409 2.753 0 5.638-2.25 5.638-4.58 0-1.561-1.323-2.435-2.964-2.435-2.568 0-5.638 2.171-5.638 4.606M420.3 37.155c0 1.14.821 2.41 2.965 2.41 2.752 0 5.638-2.25 5.638-4.58 0-1.562-1.324-2.435-2.965-2.435-2.567 0-5.638 2.17-5.638 4.605m110.403 142.143c0 1.138.82 2.408 2.964 2.408 2.752 0 5.637-2.25 5.637-4.578 0-1.562-1.323-2.435-2.964-2.435-2.568 0-5.637 2.17-5.637 4.605M180.29 169.38c0 1.138.82 2.409 2.965 2.409 2.752 0 5.637-2.25 5.637-4.579 0-1.562-1.323-2.436-2.964-2.436-2.568 0-5.638 2.171-5.638 4.606M49.825 99.963c0 1.138.82 2.409 2.965 2.409 2.753 0 5.638-2.25 5.638-4.58 0-1.56-1.324-2.435-2.964-2.435-2.568 0-5.639 2.171-5.639 4.606m88.962 70.583a.99.99 0 0 1-1.059-.953c0-1.297 4.447-3.573 5.69-3.573.636 0 1.06.37 1.06.953 0 1.323-4.474 3.573-5.691 3.573m3.653-5.77c-2.568 0-5.639 2.143-5.639 4.605 0 1.138.82 2.409 2.966 2.409 2.752 0 5.637-2.25 5.637-4.579 0-1.562-1.323-2.436-2.964-2.436M78.663 103.27c0 1.138.82 2.408 2.964 2.408 2.754 0 5.639-2.25 5.639-4.58 0-1.56-1.324-2.434-2.965-2.434-2.567 0-5.638 2.17-5.638 4.606m29.146 66.112c0 1.138.82 2.409 2.966 2.409 2.752 0 5.637-2.25 5.637-4.579 0-1.562-1.323-2.436-2.964-2.436-2.568 0-5.639 2.171-5.639 4.606m-.308-69.418c0 1.138.82 2.409 2.964 2.409 2.753 0 5.638-2.25 5.638-4.58 0-1.56-1.323-2.435-2.965-2.435-2.567 0-5.637 2.171-5.637 4.606m-28.684 72.724c0 1.138.82 2.409 2.965 2.409 2.753 0 5.638-2.25 5.638-4.58 0-1.56-1.323-2.435-2.964-2.435-2.568 0-5.639 2.17-5.639 4.606m59.507-71.56a.99.99 0 0 1-1.059-.952c0-1.297 4.446-3.574 5.69-3.574.636 0 1.06.37 1.06.954 0 1.323-4.474 3.572-5.691 3.572m3.652-5.77c-2.567 0-5.638 2.144-5.638 4.606 0 1.138.82 2.409 2.965 2.409 2.753 0 5.638-2.25 5.638-4.58 0-1.56-1.323-2.435-2.965-2.435m-92.15 74.024c0 1.138.82 2.409 2.964 2.409 2.753 0 5.638-2.25 5.638-4.579 0-1.562-1.324-2.436-2.964-2.436-2.568 0-5.639 2.171-5.639 4.606M175.037 23.933c0 1.138.82 2.409 2.965 2.409 2.752 0 5.637-2.25 5.637-4.58 0-1.56-1.323-2.434-2.964-2.434-2.568 0-5.638 2.17-5.638 4.605M382.81 38.321a.99.99 0 0 1-1.059-.954c0-1.297 4.447-3.572 5.692-3.572.634 0 1.058.37 1.058.952 0 1.323-4.473 3.574-5.69 3.574m3.652-5.77c-2.568 0-5.638 2.143-5.638 4.604 0 1.14.82 2.41 2.965 2.41 2.752 0 5.637-2.25 5.637-4.58 0-1.562-1.323-2.435-2.964-2.435M261.715 20.628c0 1.138.82 2.408 2.965 2.408 2.752 0 5.637-2.25 5.637-4.579 0-1.561-1.323-2.435-2.964-2.435-2.568 0-5.638 2.17-5.638 4.606M97.813 33.85c0 1.138.82 2.409 2.964 2.409 2.753 0 5.638-2.25 5.638-4.58 0-1.561-1.324-2.434-2.964-2.434-2.568 0-5.638 2.17-5.638 4.605m528.45 130.084a.99.99 0 0 1-1.058-.952c0-1.297 4.446-3.574 5.69-3.574.636 0 1.06.371 1.06.953 0 1.324-4.474 3.573-5.692 3.573m3.653-5.77c-2.568 0-5.637 2.145-5.637 4.606 0 1.138.82 2.408 2.964 2.408 2.752 0 5.637-2.249 5.637-4.578 0-1.562-1.323-2.435-2.964-2.435m20.292-58.202c0 1.138.82 2.409 2.964 2.409 2.753 0 5.638-2.25 5.638-4.58 0-1.56-1.324-2.435-2.965-2.435-2.566 0-5.637 2.171-5.637 4.606m-432.321-3.306c0 1.138.82 2.409 2.965 2.409 2.752 0 5.637-2.25 5.637-4.579 0-1.562-1.323-2.436-2.964-2.436-2.568 0-5.638 2.171-5.638 4.606m391.05-8.752a.99.99 0 0 1-1.06-.953c0-1.297 4.448-3.573 5.692-3.573.635 0 1.059.37 1.059.953 0 1.323-4.474 3.573-5.692 3.573m3.653-5.77c-2.567 0-5.637 2.144-5.637 4.605 0 1.139.82 2.409 2.964 2.409 2.752 0 5.638-2.25 5.638-4.58 0-1.56-1.324-2.434-2.965-2.434M246.724 99.963c0 1.138.82 2.409 2.965 2.409 2.753 0 5.638-2.25 5.638-4.58 0-1.56-1.323-2.435-2.964-2.435-2.568 0-5.639 2.171-5.639 4.606m98.33-59.502c0 1.139.82 2.409 2.964 2.409 2.753 0 5.638-2.25 5.638-4.58 0-1.56-1.324-2.434-2.964-2.434-2.568 0-5.638 2.17-5.638 4.605m209.047 54.055a.99.99 0 0 1-1.058-.953c0-1.297 4.446-3.573 5.69-3.573.636 0 1.06.37 1.06.953 0 1.323-4.474 3.573-5.692 3.573m3.653-5.77c-2.568 0-5.637 2.144-5.637 4.606 0 1.137.82 2.408 2.964 2.408 2.752 0 5.637-2.25 5.637-4.579 0-1.561-1.323-2.435-2.964-2.435m-282.192 7.911c0 1.138.82 2.409 2.964 2.409 2.754 0 5.639-2.25 5.639-4.579 0-1.562-1.324-2.436-2.965-2.436-2.567 0-5.638 2.171-5.638 4.606M115.358 37.155c0 1.14.82 2.41 2.964 2.41 2.753 0 5.638-2.25 5.638-4.58 0-1.562-1.324-2.435-2.964-2.435-2.568 0-5.638 2.17-5.638 4.605m191.027 60.667a.99.99 0 0 1-1.058-.953c0-1.297 4.446-3.573 5.69-3.573.636 0 1.059.37 1.059.953 0 1.323-4.474 3.573-5.69 3.573m3.652-5.77c-2.568 0-5.638 2.144-5.638 4.605 0 1.138.82 2.409 2.964 2.409 2.753 0 5.638-2.25 5.638-4.579 0-1.562-1.323-2.436-2.964-2.436m203.787-2.005c0 1.138.82 2.408 2.964 2.408 2.752 0 5.637-2.25 5.637-4.578 0-1.562-1.323-2.435-2.964-2.435-2.567 0-5.637 2.17-5.637 4.605m-166.168 6.611c0 1.138.82 2.409 2.964 2.409 2.753 0 5.638-2.25 5.638-4.579 0-1.562-1.324-2.436-2.965-2.436-2.567 0-5.637 2.171-5.637 4.606m146.942-9.917c0 1.139.82 2.409 2.965 2.409 2.752 0 5.637-2.25 5.637-4.58 0-1.56-1.323-2.434-2.964-2.434-2.568 0-5.638 2.17-5.638 4.605m76.536 90.417a.99.99 0 0 1-1.06-.953c0-1.297 4.448-3.573 5.692-3.573.635 0 1.059.37 1.059.952 0 1.324-4.473 3.574-5.691 3.574m3.652-5.77c-2.567 0-5.637 2.144-5.637 4.605 0 1.139.82 2.41 2.964 2.41 2.753 0 5.638-2.25 5.638-4.58 0-1.562-1.324-2.435-2.965-2.435M307.562 41.627a.99.99 0 0 1-1.058-.954c0-1.297 4.447-3.573 5.69-3.573.636 0 1.06.37 1.06.953 0 1.323-4.474 3.573-5.692 3.573m3.653-5.77c-2.567 0-5.637 2.144-5.637 4.605 0 1.139.82 2.409 2.964 2.409 2.752 0 5.638-2.25 5.638-4.58 0-1.56-1.324-2.434-2.965-2.434M279.26 17.322c0 1.138.82 2.409 2.965 2.409 2.752 0 5.637-2.25 5.637-4.58 0-1.561-1.323-2.435-2.964-2.435-2.568 0-5.638 2.17-5.638 4.606m178.783 66.112c0 1.139.82 2.41 2.964 2.41 2.752 0 5.638-2.25 5.638-4.58 0-1.562-1.324-2.435-2.965-2.435-2.567 0-5.637 2.17-5.637 4.605m-316.368-52.89c0 1.139.82 2.41 2.965 2.41 2.752 0 5.637-2.25 5.637-4.58 0-1.561-1.323-2.435-2.964-2.435-2.568 0-5.638 2.17-5.638 4.606m287.53 62.807c0 1.137.82 2.408 2.964 2.408 2.753 0 5.638-2.25 5.638-4.579 0-1.561-1.324-2.435-2.964-2.435-2.568 0-5.638 2.17-5.638 4.606m50.775-66.113c0 1.138.82 2.409 2.965 2.409 2.753 0 5.638-2.25 5.638-4.58 0-1.561-1.323-2.435-2.964-2.435-2.568 0-5.639 2.171-5.639 4.606M179.595 99.963c0 1.138.82 2.409 2.965 2.409 2.752 0 5.637-2.25 5.637-4.58 0-1.56-1.323-2.435-2.964-2.435-2.568 0-5.638 2.171-5.638 4.606m315.004 8.779a.35.35 0 0 0 .344.343c.133 0 .291-.105.318-.21 0-.028.238-.954.264-1.033.027-.106.265-1.112 1.218-2.673 1.033-1.721 2.62-2.965 3.944-4.818 1.297-1.853 2.091-3.6 2.091-5.929 0-2.408-.555-4.42-1.959-6.987-.08-.186-.238-.292-.396-.292-.053 0-.107 0-.133.027-.132.053-.185.159-.185.318 0 .079.026.212.08.317 1.058 2.462 1.482 3.865 1.482 5.77 0 2.197-.768 3.335-1.244 4.155-1.721 2.94-4.5 4.368-5.612 4.738-.185.08-.211.212-.211.291zm-6.686-98.093c0 .08.027.212.212.291 1.138.37 3.414 1.8 5.135 4.738.476.82 1.243 1.959 1.243 4.155 0 1.906-.502 3.865-1.19 5.77-.053.159-.106.292-.08.397 0 .16.106.265.265.265.185 0 .318-.106.423-.291 1.192-2.118 1.641-4.579 1.641-6.988-.132-3.414-2.09-5.928-2.09-5.928.079 0-2.436-3.256-3.15-4.368-.98-1.508-1.43-3.017-1.483-3.123a65 65 0 0 1-.264-1.032c-.027-.106-.16-.212-.318-.212a.35.35 0 0 0-.344.344zM261.715 40.976a.35.35 0 0 0 .344.344c.133 0 .291-.106.318-.212 0-.026.238-.952.264-1.031.027-.107.265-1.113 1.218-2.674 1.033-1.72 2.62-2.965 3.944-4.818 1.297-1.852 2.091-3.599 2.091-5.928 0-2.409-.556-4.42-1.959-6.988-.08-.185-.238-.291-.397-.291-.052 0-.106 0-.132.026-.132.053-.185.16-.185.318a.8.8 0 0 0 .08.318c1.058 2.461 1.482 3.864 1.482 5.77 0 2.197-.768 3.335-1.245 4.155-1.72 2.938-4.5 4.368-5.61 4.738-.186.08-.213.212-.213.291zM424.4 183.12c0 .185.16.343.344.343.133 0 .291-.105.317-.212 0-.026.239-.952.265-1.032.027-.105.265-1.111 1.218-2.673 1.032-1.72 2.62-2.964 3.944-4.817 1.297-1.853 2.09-3.6 2.09-5.929 0-2.408-.555-4.42-1.958-6.988-.08-.185-.238-.291-.397-.291-.053 0-.105 0-.133.026-.132.054-.184.16-.184.319 0 .079.026.21.079.317 1.059 2.461 1.482 3.864 1.482 5.77 0 2.197-.767 3.335-1.244 4.155-1.72 2.938-4.5 4.368-5.61 4.738-.186.08-.213.212-.213.291zM105.746 15.607c0 .08.027.212.212.292 1.138.37 3.415 1.8 5.135 4.737.476.82 1.244 1.959 1.244 4.156 0 1.906-.503 3.864-1.191 5.77-.053.159-.106.291-.08.397 0 .16.107.265.265.265.186 0 .317-.106.424-.291 1.19-2.118 1.64-4.58 1.64-6.988-.132-3.415-2.09-5.929-2.09-5.929.079 0-2.435-3.256-3.15-4.367-.98-1.509-1.43-3.018-1.482-3.124-.027-.079-.265-1.032-.265-1.032-.027-.106-.159-.212-.318-.212a.35.35 0 0 0-.344.345zm69.29 28.675c0 .185.16.344.345.344.132 0 .291-.106.318-.212 0-.027.238-.953.264-1.032.027-.106.265-1.112 1.218-2.674 1.032-1.72 2.62-2.964 3.943-4.817 1.297-1.853 2.091-3.6 2.091-5.928 0-2.409-.555-4.42-1.958-6.988-.08-.186-.238-.291-.397-.291-.053 0-.106 0-.132.026-.133.053-.186.159-.186.318 0 .079.027.211.08.318 1.059 2.46 1.482 3.863 1.482 5.769 0 2.197-.768 3.335-1.244 4.156-1.72 2.938-4.5 4.367-5.612 4.738-.184.079-.211.212-.211.29zM429.204 93.35v18.723h.662V93.35Zm122.912 0v18.723h.661V93.35Zm-268.62-19.292v20.429h.661V74.059ZM606.95 86.74v22.029h.662V86.739ZM254.658 75.712v22.082h.661V75.712Zm403.484 0v22.082h.66V75.712ZM225.82 74.059v20.429h.662V74.059ZM149.608 6.293v22.082h.662V6.293Zm-26.317 6.612v22.081h.661V12.905Zm51.746 11.027v20.35h.661v-20.35zM57.76 145.13v22.082h.661V145.13zm28.992 3.305v22.083h.661v-22.083Zm57.521-72.723v22.082h.662V75.712Zm-28.529 69.418v22.082h.661V145.13zm-.309-69.418v22.082h.662V75.712Zm29.301 69.418v22.082h.661V145.13zM86.597 79.017v22.082h.661V79.017Zm101.626 66.113v22.082h.662V145.13zM57.76 75.712v22.082h.661V75.712Zm47.987-66.06v22.03h.661V9.651ZM355.59 74.059v20.429h.661V74.059ZM200.516 4.641V25.07h.66V4.64Zm26.154 138.837v20.428h.66v-20.428zm28.992 1.652v22.082h.661V145.13zm405-138.837v22.082h.66V6.293Zm-432.308 17.64v18.722h.661V23.932Zm56.3 119.545v20.428h.661v-20.428zm28.992 0v20.428h.661v-20.428zm35.555 15.985v20.376h.66v-20.376ZM591.619 6.293v22.082h.661V6.293ZM387.647 162.77v18.723h.661v-18.723Zm126.177-72.724v20.376h.662V90.045Zm27.753-77.14v22.081h.661V12.905Zm-46.978 73.834v22.003h.661V86.739ZM261.715 20.627v20.35h.661v-20.35Zm162.684 142.142v20.35h.661v-20.35ZM505.805 6.293v22.082h.662V6.293ZM451.66 143.478v20.428h.662v-20.428ZM487.914 4.693V25.07h.661V4.693Zm-29.872 78.74v22.03h.662v-22.03Zm22.61 65.002v22.083h.662v-22.083zm28.993-3.305v22.082h.66V145.13zM446.619 23.932v18.723h.66V23.932Zm92.017 131.115v22.081h.662v-22.081ZM428.235 12.905v22.081h.66V12.905Zm-355.85 0v22.081h.66V12.905Zm316.373 0v22.081h.662V12.905Zm-201.23 62.807v22.082h.662V75.712Zm91.732-58.391V39.35h.661V17.32Zm297.823 134.42v22.082h.661V151.74ZM352.987 16.211v22.08h.661v-22.08zm32.961 77.14v18.723h.662V93.35Zm-72.437-77.14v22.08h.662v-22.08zm-1.177 57.848v20.429h.66V74.059Zm311.944 88.71v18.723h.661v-18.723Zm-99.617 13.459 2.356-.477v4.367l-2.356.503zm4.103-.82c.159-.027.292-.212.292-.372v-1.561c0-.211-.16-.37-.37-.37h-.054l-.873.185v-3.944h-.742v4.102l-2.355.477v-3.732h-.74v3.891l-1.033.211c-.16.027-.291.212-.291.371v1.536c0 .21.158.37.37.37h.08l.873-.186v4.368l-1.032.212c-.16.026-.291.211-.291.37v1.535c0 .212.158.37.37.37h.08l.873-.184V187h.74v-4.102l2.356-.477v3.732h.742v-3.89l1.006-.186c.158-.026.29-.212.29-.37v-1.562a.36.36 0 0 0-.37-.37h-.053l-.873.185v-4.368zm147.834-27.336v27.172h3.636v-27.172zm-3.635 0v27.172h1.19v-27.172zm-2.445 16.892c0-.768-.608-1.403-1.376-1.403s-1.376.635-1.376 1.403.608 1.403 1.376 1.403 1.376-.635 1.376-1.403m0-6.611c0-.768-.608-1.403-1.376-1.403s-1.376.635-1.376 1.403c0 .767.608 1.402 1.376 1.402s1.376-.635 1.376-1.402m8.527-149.118v27.173h1.19V9.235Zm-154.857 0v27.173h1.19V9.235ZM208.433 78.654v27.172h1.19V78.654Zm351.263 69.418v27.172h1.19v-27.172ZM376.495 78.654v27.172h1.19V78.654ZM371.37 9.235v27.173h1.19V9.235Zm171.291 69.419v27.172h1.19V78.654Zm89.333-69.419v27.173h3.636V9.235Zm-3.636 0v27.173h1.19V9.235Zm-2.444 16.892c0-.767-.609-1.403-1.377-1.403-.767 0-1.376.636-1.376 1.403 0 .768.609 1.403 1.376 1.403.768 0 1.377-.635 1.377-1.403m0-6.611c0-.768-.609-1.403-1.377-1.403-.767 0-1.376.635-1.376 1.403 0 .767.609 1.403 1.376 1.403.768 0 1.377-.636 1.377-1.403m53.13 59.138v27.172h1.19V78.654Zm-469.763 69.418v27.172h1.19v-27.172ZM218.9 9.235v27.173h1.19V9.235Zm425.566 16.892c0-.767-.609-1.403-1.377-1.403-.767 0-1.376.636-1.376 1.403 0 .768.609 1.403 1.376 1.403.768 0 1.377-.635 1.377-1.403m0-6.611c0-.768-.609-1.403-1.377-1.403-.767 0-1.376.635-1.376 1.403 0 .767.609 1.403 1.376 1.403.768 0 1.377-.636 1.377-1.403m-6.389-10.28v27.172h1.19V9.235Zm-6.082 0v27.172h3.636V9.235ZM378.193 148.071v27.172h1.19v-27.172ZM0 174.517v.727h680.236v-.727zm0-6.61v.726h680.236v-.727zm0-6.612v.727h680.236v-.727zm0-6.612v.727h680.236v-.727zm0-6.611v.727h680.236v-.727zm0-42.973v.727h680.236v-.727zm0-6.61v.726h680.236v-.727zm0-6.612v.727h680.236v-.727zm0-6.612v.727h680.236v-.727zm0-6.611v.726h680.236v-.726ZM0 35.68v.726h680.236v-.726zm0-6.611v.727h680.236v-.727zm0-6.612v.727h680.236v-.727zm0-6.611v.727h680.236v-.727Zm0-6.611v.726h680.236v-.726Z" style="stroke-width:.0799648"/>
</svg>
