<?xml version="1.0" encoding="UTF-8" standalone="no"?>
<svg
   width="681"
   height="119.16004"
   version="1.2"
   id="svg110"
   xmlns="http://www.w3.org/2000/svg"
   xmlns:svg="http://www.w3.org/2000/svg"
   xmlns:rdf="http://www.w3.org/1999/02/22-rdf-syntax-ns#"
   xmlns:cc="http://creativecommons.org/ns#"
   xmlns:dc="http://purl.org/dc/elements/1.1/">
  <defs
     id="defs110" />
  <title
     id="title1">air_XXIV</title>
  <desc
     id="desc1">Generated by MuseScore Studio 4.7.3</desc>
  <path
     id="path110"
     class="NoteDot"
     d="m 599.76927,22.087742 c 0,0.741948 0.5836,1.325227 1.32491,1.325227 0.74211,0 1.32491,-0.583279 1.32491,-1.325227 0,-0.741947 -0.5828,-1.324905 -1.32491,-1.324905 -0.74131,0 -1.32491,0.582958 -1.32491,1.324905 M 76.305761,91.584381 c 0,0.741306 0.583599,1.324905 1.324906,1.324905 0.742107,0 1.324906,-0.583599 1.324906,-1.324905 0,-0.742108 -0.582799,-1.324906 -1.324906,-1.324906 -0.741307,0 -1.324906,0.582798 -1.324906,1.324906 M 507.816,15.469057 c 0,0.741947 0.5828,1.324906 1.32491,1.324906 0.7413,0 1.3249,-0.582959 1.3249,-1.324906 0,-0.741947 -0.5836,-1.324906 -1.3249,-1.324906 -0.74211,0 -1.32491,0.582959 -1.32491,1.324906 M 185.26906,98.202506 c 0,0.742107 0.5828,1.324906 1.32491,1.324906 0.7421,0 1.3249,-0.582799 1.3249,-1.324906 0,-0.741307 -0.5828,-1.324906 -1.3249,-1.324906 -0.74211,0 -1.32491,0.583599 -1.32491,1.324906 M 142.19561,28.706188 c 0,0.742107 0.5828,1.324906 1.32491,1.324906 0.7421,0 1.3249,-0.582799 1.3249,-1.324906 0,-0.741307 -0.5828,-1.324906 -1.3249,-1.324906 -0.74211,0 -1.32491,0.583599 -1.32491,1.324906 m 161.50163,69.496318 c 0,0.742107 0.58279,1.324906 1.3249,1.324906 0.74211,0 1.32491,-0.582799 1.32491,-1.324906 0,-0.741307 -0.5828,-1.324906 -1.32491,-1.324906 -0.74211,0 -1.3249,0.583599 -1.3249,1.324906 M 234.14968,22.087742 c 0,0.741948 0.5828,1.325227 1.32491,1.325227 0.74211,0 1.32491,-0.583279 1.32491,-1.325227 0,-0.741947 -0.5828,-1.324905 -1.32491,-1.324905 -0.74211,0 -1.32491,0.582958 -1.32491,1.324905 m 189.40711,69.496639 c 0,0.741306 0.5828,1.324905 1.32491,1.324905 0.7421,0 1.3249,-0.583599 1.3249,-1.324905 0,-0.742108 -0.5828,-1.324906 -1.3249,-1.324906 -0.74211,0 -1.32491,0.582798 -1.32491,1.324906 M 86.975453,17.123708 h 21.553937 v 3.309383 H 86.975453 V 17.123708 M 59.603941,35.341925 v 1.961341 h -2.199103 c -0.185727,0 -0.370654,0.158508 -0.370654,0.370653 v 0.503545 c 0,0.212145 0.184927,0.370653 0.370654,0.370653 h 8.028689 c 0.212145,0 0.371454,-0.158508 0.371454,-0.370653 v -0.503545 c 0,-0.212145 -0.159309,-0.370653 -0.371454,-0.370653 h -2.38483 v -1.961341 h 2.38483 c 0.212145,0 0.371454,-0.184926 0.371454,-0.397072 v -0.503544 c 0,-0.185727 -0.159309,-0.371454 -0.371454,-0.371454 h -2.38483 v -4.21248 c 0,-0.159309 -0.07925,-0.2922 -0.184927,-0.345036 l -0.318618,-0.158508 c -0.05284,-0.02642 -0.07925,-0.02642 -0.13209,-0.02642 -0.105672,0 -0.212145,0 -0.291399,0.07925 l -2.411249,2.199103 c -0.08006,0.07925 -0.106473,0.185727 -0.106473,0.2914 v 2.172685 H 56.53064 c 0,0 2.967629,-3.179774 6.094567,-7.365836 0.105672,-0.132891 0.13209,-0.264981 0.13209,-0.371454 0,-0.13209 -0.05284,-0.238563 -0.07925,-0.264981 l -0.582798,-0.582799 c -0.08006,-0.05284 -0.159309,-0.105672 -0.264982,-0.105672 -0.159308,0 -3.736154,0 -3.948299,0 -0.185727,0 -0.317817,0.158508 -0.344236,0.317817 0,0 -0.13289,1.960541 -0.822162,4.106808 -0.68847,2.146268 -1.483414,3.471174 -2.172685,4.451844 0,0 -0.07925,0.132891 -0.07925,0.291399 0,0.05284 0,0.106473 0.02642,0.159309 0.07925,0.185727 0.264981,0.477127 0.264981,0.477127 0,0 0.05284,0.158508 0.291399,0.158508 h 4.557516 m 0.794143,-11.065966 c -0.874998,0 -1.589887,-1.192576 -1.589887,-2.67647 0,-1.483895 0.714889,-2.702808 1.589887,-2.702808 0.874198,0 1.616305,1.218913 1.616305,2.702808 0,1.483894 -0.742107,2.67647 -1.616305,2.67647 m 0.97987,-6.62469 c -1.616305,0 -2.199103,0.476966 -2.569757,0.874438 -0.08006,-0.556461 -0.132891,-0.98043 -0.132891,-1.4044 0,-1.510393 0.529963,-3.471254 2.384831,-3.471254 0.662853,0 1.059925,0.211985 1.324906,0.503464 -0.556381,0.238483 -1.007089,0.953933 -1.007089,1.563389 0,0.953933 0.742108,1.69588 1.69636,1.69588 0.953452,0 1.721977,-0.741947 1.721977,-1.69588 v -0.07949 c 0,-0.238483 -0.05284,-0.635955 -0.158508,-0.84794 -0.345036,-0.953932 -1.457797,-2.358332 -4.107608,-2.358332 -2.384831,0 -4.106808,2.278838 -4.636771,3.497751 -0.264981,0.635955 -0.662853,1.934363 -0.662853,3.418258 0,1.616385 0.450708,3.444755 2.014177,4.822337 1.536251,1.166397 2.516921,1.219233 3.444755,1.219233 0.927034,0 4.398208,-1.086342 4.398208,-4.160204 0,-2.596816 -2.039795,-3.577246 -3.709737,-3.577246 m -17.928258,58.73472 2.358412,-0.477127 v 4.37179 l -2.358412,0.503544 v -4.398207 m 4.106808,-0.821362 c 0.159309,-0.02642 0.2922,-0.212145 0.2922,-0.371454 v -1.563469 c 0,-0.211344 -0.159309,-0.370653 -0.371454,-0.370653 h -0.05284 l -0.874198,0.185727 v -3.9483 h -0.742108 v 4.106808 l -2.358412,0.477126 v -3.736154 h -0.742108 v 3.895463 l -1.033506,0.211345 c -0.158509,0.02722 -0.291399,0.212145 -0.291399,0.371454 v 1.537051 c 0,0.211344 0.159308,0.370653 0.371453,0.370653 h 0.07925 l 0.874197,-0.185727 v 4.37259 l -1.033506,0.212145 c -0.158509,0.02642 -0.291399,0.211344 -0.291399,0.370653 v 1.537051 c 0,0.212145 0.159308,0.370654 0.371453,0.370654 h 0.07925 l 0.874197,-0.184927 v 3.947499 h 0.742108 v -4.106808 l 2.358412,-0.477126 v 3.736155 h 0.742108 V 82.42772 L 47.5565,82.241993 c 0.159309,-0.02642 0.2922,-0.212145 0.2922,-0.371454 V 80.30787 c 0,-0.212145 -0.159309,-0.371454 -0.371454,-0.371454 h -0.05284 l -0.874198,0.185727 v -4.372589 l 1.006288,-0.184927 M 36.194335,89.62304 38.552748,89.145913 v 4.37259 l -2.358413,0.503544 V 89.62304 m 4.107609,-0.821362 c 0.159308,-0.02642 0.291399,-0.212145 0.291399,-0.370654 v -1.563469 c 0,-0.212145 -0.159309,-0.371454 -0.370654,-0.371454 h -0.05364 l -0.874198,0.185727 v -3.948299 h -0.742107 v 4.107608 l -2.358413,0.477127 v -3.736955 h -0.741307 v 3.895463 l -1.033507,0.212145 c -0.159308,0.02642 -0.291399,0.212145 -0.291399,0.370654 v 1.53705 c 0,0.212146 0.158509,0.371454 0.370654,0.371454 h 0.07925 l 0.874998,-0.185727 v 4.37179 l -1.033507,0.212145 c -0.159308,0.02642 -0.291399,0.212145 -0.291399,0.371454 v 1.53625 c 0,0.212145 0.158509,0.371454 0.370654,0.371454 h 0.07925 l 0.874998,-0.185727 v 3.948296 h 0.741307 v -4.107605 l 2.358413,-0.476326 v 3.736155 h 0.742107 v -3.895463 l 1.007089,-0.185727 c 0.159308,-0.02642 0.291399,-0.211345 0.291399,-0.370654 v -1.563469 c 0,-0.212145 -0.159309,-0.370653 -0.370654,-0.370653 h -0.05364 l -0.874198,0.184926 v -4.371789 l 1.007089,-0.185727 m -11.361369,-9.106226 2.358413,-0.477127 v 4.37179 l -2.358413,0.503544 v -4.398207 m 4.107609,-0.821362 c 0.159309,-0.02722 0.291399,-0.212145 0.291399,-0.371454 v -1.563469 c 0,-0.212145 -0.159309,-0.370653 -0.370653,-0.370653 h -0.05364 l -0.874198,0.185727 v -3.9483 h -0.742107 v 4.106808 l -2.358413,0.477126 v -3.736154 h -0.741307 v 3.895463 l -1.033506,0.211345 c -0.159309,0.02642 -0.2914,0.212145 -0.2914,0.371454 v 1.53705 c 0,0.211345 0.158509,0.370654 0.370654,0.370654 h 0.07925 l 0.874998,-0.185727 v 4.37259 l -1.033506,0.212145 c -0.159309,0.02642 -0.2914,0.211344 -0.2914,0.370653 v 1.537051 c 0,0.212145 0.158509,0.370654 0.370654,0.370654 h 0.07925 l 0.874998,-0.185727 v 3.948299 h 0.741307 v -4.106808 l 2.358413,-0.477126 v 3.736155 h 0.742107 v -3.895464 l 1.007089,-0.184926 c 0.159309,-0.02642 0.291399,-0.212145 0.291399,-0.371454 v -1.563469 c 0,-0.211345 -0.159309,-0.370654 -0.370653,-0.370654 h -0.05364 l -0.874198,0.185727 v -4.37259 L 33.048184,78.87409 M 43.449696,6.8895107 45.808108,6.4125446 v 4.3721894 l -2.358412,0.503464 V 6.8895107 M 47.556504,6.068069 c 0.159309,-0.026498 0.2922,-0.2119849 0.2922,-0.3709736 v -1.563389 c 0,-0.2119849 -0.159309,-0.3709736 -0.371454,-0.3709736 H 47.42441 L 46.550216,3.9482196 V 0 H 45.808108 V 4.1072083 L 43.449696,4.5841744 V 0.84793978 H 42.707588 V 4.7431631 l -1.033506,0.211985 c -0.158509,0.026498 -0.291399,0.2119849 -0.291399,0.3709736 v 1.5368909 c 0,0.2119849 0.159308,0.3709736 0.371453,0.3709736 h 0.07925 l 0.874197,-0.1854868 v 4.3721896 l -1.033506,0.211985 c -0.158509,0.0265 -0.291399,0.211985 -0.291399,0.370973 v 1.536891 c 0,0.211985 0.159308,0.370974 0.371453,0.370974 h 0.07925 l 0.874197,-0.185487 v 3.94822 h 0.742108 v -4.107209 l 2.358412,-0.476966 v 3.736235 h 0.742108 v -3.895223 l 1.006288,-0.185487 c 0.159309,-0.0265 0.2922,-0.211985 0.2922,-0.370974 v -1.563389 c 0,-0.211985 -0.159309,-0.370974 -0.371454,-0.370974 H 47.4244 l -0.874198,0.185487 V 6.2535559 L 47.556504,6.068069 m -11.362169,14.058813 2.358413,-0.476966 v 4.372269 l -2.358413,0.503544 v -4.398847 m 4.107609,-0.821442 c 0.159308,-0.0265 0.291399,-0.211985 0.291399,-0.370974 v -1.563389 c 0,-0.211985 -0.159309,-0.370973 -0.370654,-0.370973 h -0.05364 l -0.874198,0.185487 v -3.94822 h -0.742107 v 4.107208 l -2.358413,0.476966 v -3.736234 h -0.741307 v 3.895223 l -1.033507,0.211985 c -0.159308,0.0265 -0.291399,0.211985 -0.291399,0.370974 v 1.536891 c 0,0.211985 0.158509,0.370973 0.370654,0.370973 h 0.07925 L 35.45302,20.28587 v 4.37195 l -1.033507,0.212145 c -0.159308,0.02642 -0.291399,0.212145 -0.291399,0.371454 v 1.53625 c 0,0.212145 0.158509,0.371454 0.370654,0.371454 h 0.07925 l 0.874998,-0.185727 v 3.9483 h 0.741307 v -4.107609 l 2.358413,-0.476325 v 3.736154 h 0.742107 v -3.895463 l 1.007089,-0.185727 c 0.159308,-0.02642 0.291399,-0.211345 0.291399,-0.370654 v -1.563469 c 0,-0.212145 -0.159309,-0.370653 -0.370654,-0.370653 h -0.05364 l -0.874198,0.184926 V 19.490927 L 40.301944,19.30544 M 28.940575,10.198813 31.298988,9.7218473 v 4.3721897 l -2.358413,0.503464 v -4.398688 m 4.107609,-0.8214412 c 0.159309,-0.026498 0.291399,-0.211985 0.291399,-0.3709737 v -1.563389 c 0,-0.2119849 -0.159309,-0.3709736 -0.370653,-0.3709736 H 32.91529 L 32.041095,7.2575223 V 3.3093027 H 31.298988 V 7.416511 L 28.940575,7.8934771 V 4.1572425 h -0.741307 v 3.8952234 l -1.033506,0.2119849 c -0.159309,0.026498 -0.2914,0.2119849 -0.2914,0.3709736 v 1.5368906 c 0,0.211985 0.158509,0.370974 0.370654,0.370974 h 0.07925 l 0.874998,-0.185487 v 4.37219 l -1.033506,0.211985 c -0.159309,0.0265 -0.2914,0.211984 -0.2914,0.370973 v 1.536891 c 0,0.211985 0.158509,0.370974 0.370654,0.370974 h 0.07925 l 0.874998,-0.185487 v 3.948219 h 0.741307 v -4.107208 l 2.358413,-0.476966 v 3.736235 h 0.742107 v -3.895224 l 1.007089,-0.185487 c 0.159309,-0.0265 0.291399,-0.211984 0.291399,-0.370973 v -1.563389 c 0,-0.211985 -0.159309,-0.370974 -0.370653,-0.370974 h -0.05364 l -0.874198,0.185487 V 9.5628586 l 1.0071,-0.1854868 M 16.093311,106.9709 c -0.529962,0.10567 -1.033427,0.15851 -1.536891,0.15851 -3.789231,0 -7.0220012,-2.64981 -7.0220012,-6.65095 0,-3.232608 2.2788382,-6.120983 4.6106722,-8.13436 0.450468,-0.397872 0.874438,-0.768525 1.27191,-1.166397 0.238483,1.431378 0.42397,2.676229 0.609457,3.762572 -2.411329,0.71569 -4.0542123,3.259829 -4.0542123,5.750335 0,1.85487 1.4573963,4.399 3.5772463,4.399 0.211985,0 0.450468,-0.10647 0.450468,-0.34503 0,-0.23776 -0.264982,-0.37065 -0.582959,-0.5828 -1.033427,-0.63563 -1.616385,-1.32491 -1.616385,-2.62339 0,-1.616309 1.192415,-2.914796 2.755804,-3.28545 l 1.536891,8.71796 M 13.761477,79.730676 c 0.238483,-1.059925 1.457396,-3.841827 2.835298,-3.841827 0.397472,0 1.033427,1.297687 1.033427,3.126137 0,2.756285 -2.040355,4.823298 -3.868725,6.62453 -0.158989,-1.059925 -0.29148,-2.093432 -0.29148,-3.206192 0,-0.97987 0.0795,-1.881287 0.29148,-2.702648 m 6.094567,22.337674 c 0,1.88129 -0.768446,3.81621 -2.649812,4.58473 -0.556461,-3.17977 -1.27191,-7.393051 -1.457397,-8.559449 2.384831,0 4.107209,1.616305 4.107209,3.974719 M 8.1968718,115.10606 c 0,1.7484 1.351404,4.05398 4.9286502,4.05398 1.245411,0 2.331834,-0.31782 3.285766,-0.90142 1.430899,-1.00629 1.801872,-2.75549 1.801872,-4.42463 0,-1.0335 -0.158988,-2.22632 -0.423969,-3.73615 -0.07949,-0.52996 -0.238484,-1.32491 -0.397472,-2.35841 2.596815,-0.84778 4.531178,-3.55123 4.531178,-6.2803 0,-4.001133 -2.835299,-6.703781 -6.704024,-6.703781 -0.264981,-1.589887 -0.529962,-3.153356 -0.768445,-4.637571 2.8088,-2.941211 4.743163,-6.253076 4.743163,-10.466357 0,-2.411248 -0.741948,-4.372589 -1.165917,-5.326041 -0.635955,-1.351324 -1.404401,-2.279159 -1.881367,-2.279159 -0.185487,0 -1.006928,0.317818 -1.881366,1.351324 -1.69588,2.014178 -2.172846,5.406097 -2.172846,7.631618 0,1.430579 0.132491,2.729066 0.582959,5.696696 -0.0265,0.02722 -1.404401,1.431378 -1.960861,1.882086 -2.4113287,2.25194 -5.7500916,5.458132 -5.7500916,10.757756 0,4.955389 4.3191932,8.850849 9.2478436,8.850849 0.768445,0 1.483894,-0.08 2.093351,-0.18572 0.503464,2.54333 0.794943,4.3982 0.794943,5.80316 0,2.75549 -1.4044,4.21328 -4.08071,4.21328 -0.635955,0 -1.192415,-0.13289 -1.245411,-0.13289 -0.0265,-0.0264 -0.07949,-0.0528 -0.07949,-0.0792 0,-0.0528 0.053,-0.0793 0.132491,-0.10647 1.245412,-0.18493 2.490823,-1.24485 2.490823,-2.94121 0,-1.43058 -1.086423,-2.94122 -3.073782,-2.94122 -1.8548679,0 -3.0472832,1.51064 -3.0472832,3.25983 M 16.093311,37.474583 c -0.529962,0.105672 -1.033427,0.158509 -1.536891,0.158509 -3.789231,0 -7.0220012,-2.649812 -7.0220012,-6.650948 0,-3.23261 2.2788382,-6.120985 4.6106722,-8.134682 0.450468,-0.397472 0.874438,-0.768446 1.27191,-1.165917 0.238483,1.430898 0.42397,2.676069 0.609457,3.762412 -2.411329,0.71569 -4.0542123,3.259829 -4.0542123,5.750332 0,1.854868 1.4573963,4.399008 3.5772463,4.399008 0.211985,0 0.450468,-0.106473 0.450468,-0.345036 0,-0.238563 -0.264982,-0.370654 -0.582959,-0.582799 -1.033427,-0.635634 -1.616385,-1.324905 -1.616385,-2.623393 0,-1.616305 1.192415,-2.914793 2.755804,-3.285447 l 1.536891,8.717961 M 13.761477,10.234358 c 0.238483,-1.059925 1.457396,-3.8422274 2.835298,-3.8422274 0.397472,0 1.033427,1.2984078 1.033427,3.1267779 0,2.7558045 -2.040355,4.8226575 -3.868725,6.6245295 -0.158989,-1.059925 -0.29148,-2.093351 -0.29148,-3.206272 0,-0.980431 0.0795,-1.881367 0.29148,-2.702808 m 6.094567,22.337673 c 0,1.881286 -0.768446,3.816209 -2.649812,4.584735 -0.556461,-3.179774 -1.27191,-7.393055 -1.457397,-8.559453 2.384831,0 4.107209,1.616305 4.107209,3.974718 M 8.1968718,45.608945 c 0,1.749196 1.351404,4.054772 4.9286502,4.054772 1.245411,0 2.331834,-0.317817 3.285766,-0.901416 1.430899,-1.006288 1.801872,-2.755484 1.801872,-4.424625 0,-1.033507 -0.158988,-2.226322 -0.423969,-3.736155 -0.07949,-0.529962 -0.238484,-1.324906 -0.397472,-2.358412 2.596815,-0.848581 4.531178,-3.551229 4.531178,-6.280295 0,-4.001135 -2.835299,-6.703783 -6.704024,-6.703783 -0.264981,-1.589887 -0.529962,-3.153516 -0.768445,-4.637411 2.8088,-2.941291 4.743163,-6.253556 4.743163,-10.466757 0,-2.4113284 -0.741948,-4.3721891 -1.165917,-5.3261214 -0.635955,-1.351404 -1.404401,-2.2788381 -1.881367,-2.2788381 -0.185487,0 -1.006928,0.3179774 -1.881366,1.351404 -1.69588,2.013857 -2.172846,5.4056161 -2.172846,7.6314575 0,1.430899 0.132491,2.729307 0.582959,5.697096 -0.0265,0.0265 -1.404401,1.430898 -1.960861,1.881366 -2.4113287,2.25234 -5.7500916,5.458533 -5.7500916,10.758156 0,4.955388 4.3191932,8.850051 9.2478436,8.850051 0.768445,0 1.483894,-0.07925 2.093351,-0.184926 0.503464,2.543339 0.794943,4.398207 0.794943,5.803168 0,2.755484 -1.4044,4.213281 -4.08071,4.213281 -0.635955,0 -1.192415,-0.132891 -1.245411,-0.132891 -0.0265,-0.02642 -0.07949,-0.05284 -0.07949,-0.07925 0,-0.05284 0.053,-0.08005 0.132491,-0.106473 1.245412,-0.184927 2.490823,-1.244851 2.490823,-2.941211 0,-1.430578 -1.086423,-2.941211 -3.073782,-2.941211 -1.8548679,0 -3.0472832,1.510633 -3.0472832,3.259028 M 190.89771,29.819749 c 0,1.139179 0.82136,2.411249 2.96763,2.411249 2.75628,0 5.64386,-2.25274 5.64386,-4.584735 0,-1.563469 -1.32491,-2.437667 -2.96763,-2.437667 -2.56976,0 -5.64386,2.172686 -5.64386,4.611153 m 71.06219,-6.619086 c 0,1.139339 0.82136,2.411409 2.96843,2.411409 2.75548,0 5.64386,-2.25274 5.64386,-4.584254 0,-1.563389 -1.32491,-2.437827 -2.96763,-2.437827 -2.57056,0 -5.64466,2.172846 -5.64466,4.610672 m 81.60299,72.805941 c 0,1.139179 0.82217,2.411249 2.96843,2.411249 2.75549,0 5.64386,-2.25274 5.64386,-4.584735 0,-1.562668 -1.3249,-2.437667 -2.96763,-2.437667 -2.57055,0 -5.64466,2.172686 -5.64466,4.611153 M 282.85178,26.510286 c 0,1.139179 0.82136,2.411249 2.96763,2.411249 2.75549,0 5.64386,-2.25274 5.64386,-4.584735 0,-1.562988 -1.3249,-2.437426 -2.96763,-2.437426 -2.57056,0 -5.64386,2.172445 -5.64386,4.610912 M 99.925108,39.747337 c 0,1.139179 0.821362,2.411249 2.967632,2.411249 2.75548,0 5.64386,-2.25194 5.64386,-4.583934 0,-1.563469 -1.32491,-2.437667 -2.96763,-2.437667 -2.57056,0 -5.643862,2.172685 -5.643862,4.610352 M 490.65387,96.006604 c 0,1.139179 0.82216,2.411249 2.96843,2.411249 2.75548,0 5.64386,-2.25274 5.64386,-4.584735 0,-1.562668 -1.32491,-2.437667 -2.96763,-2.437667 -2.57056,0 -5.64466,2.172686 -5.64466,4.611153 m -198.87118,3.309463 c 0,1.139183 0.82136,2.411253 2.96763,2.411253 2.75548,0 5.64386,-2.252745 5.64386,-4.584739 0,-1.563469 -1.32491,-2.437667 -2.96763,-2.437667 -2.57056,0 -5.64386,2.172686 -5.64386,4.611153 m 31.87059,-76.115404 c 0,1.139339 0.82136,2.411409 2.96843,2.411409 2.75548,0 5.64386,-2.25274 5.64386,-4.584254 0,-1.563389 -1.32491,-2.437827 -2.96763,-2.437827 -2.57056,0 -5.64466,2.172846 -5.64466,4.610672 m 35.86933,8.208973 c -0.74211,0 -1.24566,-0.212145 -1.58989,-0.874998 -0.34504,-0.662053 -0.82136,-2.358413 -0.84778,-3.073301 -0.0536,-0.71569 0.21134,-1.13998 0.84778,-1.351324 0.31782,-0.106473 0.74211,-0.159309 1.13918,-0.159309 0.74211,0 1.21923,0.159309 1.58989,0.874197 0.37065,0.71569 0.84778,2.411249 0.84778,3.074102 0,1.298488 -0.90062,1.510633 -1.98696,1.510633 m -0.21215,-6.306712 c -3.6569,0 -4.95539,1.854868 -4.95539,3.576846 0,1.722778 1.29849,3.577646 4.95539,3.577646 3.6569,0 4.92897,-1.854868 4.92897,-3.577646 0,-1.721978 -1.27207,-3.576846 -4.92897,-3.576846 m -189.30383,1.407362 c 0,1.139179 0.82136,2.411249 2.96762,2.411249 2.75549,0 5.64386,-2.25274 5.64386,-4.584735 0,-1.562988 -1.3249,-2.437426 -2.96763,-2.437426 -2.57055,0 -5.64385,2.172445 -5.64385,4.610912 m 75.177,82.733374 c 0,1.13917 0.82136,2.41124 2.96763,2.41124 2.75628,0 5.64466,-2.25194 5.64466,-4.58393 0,-1.56347 -1.32491,-2.43767 -2.96763,-2.43767 -2.57056,0 -5.64466,2.17269 -5.64466,4.61036 M 411.64224,96.006604 c 0,1.139179 0.82136,2.411249 2.96763,2.411249 2.75549,0 5.64386,-2.25274 5.64386,-4.584735 0,-1.562668 -1.3249,-2.437667 -2.96763,-2.437667 -2.57056,0 -5.64386,2.172686 -5.64386,4.611153 M 220.4283,105.93419 c 0,1.13998 0.82136,2.41125 2.96763,2.41125 2.75548,0 5.64386,-2.25194 5.64386,-4.58393 0,-1.56347 -1.32491,-2.43767 -2.96763,-2.43767 -2.57056,0 -5.64386,2.17269 -5.64386,4.61035 M 455.09916,23.200663 c 0,1.139339 0.82136,2.411409 2.96763,2.411409 2.75548,0 5.64385,-2.25274 5.64385,-4.584254 0,-1.563389 -1.3249,-2.437827 -2.96762,-2.437827 -2.57056,0 -5.64386,2.172846 -5.64386,4.610672 M 79.033226,39.747337 c 0,1.139179 0.821362,2.411249 2.967626,2.411249 2.756284,0 5.644659,-2.25194 5.644659,-4.583934 0,-1.563469 -1.324906,-2.437667 -2.968429,-2.437667 -2.569757,0 -5.643856,2.172685 -5.643856,4.610352 m 51.247834,-9.927588 c 0,1.139179 0.82136,2.411249 2.96763,2.411249 2.75549,0 5.64386,-2.25274 5.64386,-4.584735 0,-1.563469 -1.3249,-2.437667 -2.96763,-2.437667 -2.57056,0 -5.64386,2.172686 -5.64386,4.611153 m 43.07345,72.804981 c 0,1.13998 0.82137,2.41205 2.96763,2.41205 2.75629,0 5.64386,-2.25274 5.64386,-4.58474 0,-1.563465 -1.3249,-2.437663 -2.96763,-2.437663 -2.56975,0 -5.64386,2.172683 -5.64386,4.610353 M 495.90065,19.891281 c 0,1.139419 0.82137,2.411328 2.96763,2.411328 2.75629,0 5.64466,-2.25234 5.64466,-4.584174 0,-1.563389 -1.3249,-2.437827 -2.96763,-2.437827 -2.57055,0 -5.64466,2.172846 -5.64466,4.610673 M 136.22032,96.006604 c 0,1.139179 0.82217,2.411249 2.96843,2.411249 2.75549,0 5.64386,-2.25274 5.64386,-4.584735 0,-1.562668 -1.3249,-2.437667 -2.96763,-2.437667 -2.57055,0 -5.64466,2.172686 -5.64466,4.611153 m 404.74555,-3.309463 c 0,1.139179 0.82136,2.411249 2.96843,2.411249 2.75548,0 5.64386,-2.25274 5.64386,-4.583934 0,-1.563469 -1.32491,-2.438467 -2.96763,-2.438467 -2.57056,0 -5.64466,2.173486 -5.64466,4.611152 m -429.50087,0 c 0,1.139179 0.82136,2.411249 2.96763,2.411249 2.75548,0 5.64386,-2.25274 5.64386,-4.583934 0,-1.563469 -1.32491,-2.438467 -2.96763,-2.438467 -2.57056,0 -5.64386,2.173486 -5.64386,4.611152 M 535.62622,16.581978 c 0,1.139419 0.82136,2.411329 2.96763,2.411329 2.75628,0 5.64386,-2.25234 5.64386,-4.584175 0,-1.563389 -1.32491,-2.437827 -2.96763,-2.437827 -2.56976,0 -5.64386,2.172846 -5.64386,4.610673 m 20.89108,3.309303 c 0,1.139419 0.82216,2.411328 2.96843,2.411328 2.75548,0 5.64386,-2.25234 5.64386,-4.584174 0,-1.563389 -1.32491,-2.437827 -2.96763,-2.437827 -2.57056,0 -5.64466,2.172846 -5.64466,4.610673 m 29.8276,81.014669 c -0.74211,0 -1.24566,-0.21214 -1.58989,-0.87499 -0.34424,-0.662057 -0.82136,-2.358417 -0.84778,-3.073305 -0.0528,-0.71569 0.21214,-1.13998 0.84778,-1.351324 0.31782,-0.106473 0.74211,-0.159309 1.13918,-0.159309 0.74211,0 1.21923,0.159309 1.58988,0.874197 0.37146,0.71569 0.84858,2.411249 0.84858,3.074102 0,1.298489 -0.90141,1.510629 -1.98775,1.510629 m -0.21215,-6.306708 c -3.6561,0 -4.95459,1.854868 -4.95459,3.576846 0,1.722778 1.29849,3.577642 4.95459,3.577642 3.6569,0 4.92897,-1.854864 4.92897,-3.577642 0,-1.721978 -1.27207,-3.576846 -4.92897,-3.576846 M 64.391215,96.006604 c 0,1.139179 0.821361,2.411249 2.967629,2.411249 2.756284,0 5.644659,-2.25274 5.644659,-4.584735 0,-1.562668 -1.324906,-2.437667 -2.968429,-2.437667 -2.569758,0 -5.643859,2.172686 -5.643859,4.611153 M 587.85473,23.200663 c 0,1.139339 0.82136,2.411409 2.96763,2.411409 2.75628,0 5.64466,-2.25274 5.64466,-4.584254 0,-1.563389 -1.32491,-2.437827 -2.96843,-2.437827 -2.56976,0 -5.64386,2.172846 -5.64386,4.610672 M 463.42245,92.697141 c 0,1.139179 0.82136,2.411249 2.96843,2.411249 2.75548,0 5.64386,-2.25274 5.64386,-4.583934 0,-1.563469 -1.32491,-2.438467 -2.96763,-2.438467 -2.57056,0 -5.64466,2.173486 -5.64466,4.611152 M 222.23514,26.510286 c 0,1.139179 0.82136,2.411249 2.96763,2.411249 2.75548,0 5.64385,-2.25274 5.64385,-4.584735 0,-1.562988 -1.3249,-2.437426 -2.96762,-2.437426 -2.57056,0 -5.64386,2.172445 -5.64386,4.610912 m 405.34515,-6.619005 c 0,1.139419 0.82136,2.411328 2.96763,2.411328 2.75548,0 5.64386,-2.25234 5.64386,-4.584174 0,-1.563389 -1.32491,-2.437827 -2.96763,-2.437827 -2.57056,0 -5.64386,2.172846 -5.64386,4.610673 M 370.79511,99.316067 c 0,1.139183 0.82137,2.411253 2.96763,2.411253 2.75549,0 5.64386,-2.252745 5.64386,-4.584739 0,-1.563469 -1.3249,-2.437667 -2.96763,-2.437667 -2.57055,0 -5.64386,2.172686 -5.64386,4.611153 M 648.47137,23.200663 c 0,1.139339 0.82137,2.411409 2.96763,2.411409 2.75629,0 5.64466,-2.25274 5.64466,-4.584254 0,-1.563389 -1.3249,-2.437827 -2.96763,-2.437827 -2.57055,0 -5.64466,2.172846 -5.64466,4.610672 M 463.42245,113.06867 c 0,0.18493 0.15931,0.34424 0.34503,0.34424 0.13209,0 0.2914,-0.10568 0.31782,-0.21215 0,-0.0264 0.23856,-0.95345 0.26498,-1.03351 0.0264,-0.10567 0.26498,-1.11276 1.21844,-2.67623 1.0335,-1.72197 2.62339,-2.96762 3.9483,-4.82249 1.29848,-1.85487 2.09343,-3.60407 2.09343,-5.935261 0,-2.41205 -0.55638,-4.425426 -1.96054,-6.995984 -0.0793,-0.185727 -0.23857,-0.291399 -0.39788,-0.291399 -0.0528,0 -0.10567,0 -0.13209,0.02642 -0.13289,0.05284 -0.18572,0.159309 -0.18572,0.317817 0,0.08006 0.0264,0.212145 0.0793,0.318618 1.05993,2.464085 1.48422,3.868245 1.48422,5.775949 0,2.1999 -0.76853,3.33908 -1.24566,4.16044 -1.72197,2.94121 -4.50468,4.37259 -5.61744,4.74325 -0.18572,0.0793 -0.21214,0.21214 -0.21214,0.2914 v 5.98889 M 261.9599,43.572352 c 0,0.184927 0.15931,0.344236 0.34503,0.344236 0.13209,0 0.2914,-0.106473 0.31782,-0.212145 0,-0.02642 0.23856,-0.954253 0.26498,-1.033507 0.0264,-0.105672 0.26498,-1.112761 1.21844,-2.67623 1.0335,-1.721977 2.62339,-2.967629 3.9483,-4.822497 1.29848,-1.854868 2.09343,-3.604064 2.09343,-5.936059 0,-2.411249 -0.55638,-4.424625 -1.96054,-6.995103 -0.0793,-0.185487 -0.23857,-0.291479 -0.39788,-0.291479 -0.0528,0 -0.10567,0 -0.13209,0.0265 -0.13289,0.053 -0.18572,0.158989 -0.18572,0.317977 0,0.0795 0.0264,0.211985 0.0793,0.317978 1.05993,2.464485 1.48422,3.868645 1.48422,5.776349 0,2.199905 -0.76853,3.339084 -1.24566,4.160445 -1.72197,2.941211 -4.50468,4.371789 -5.61744,4.743243 -0.18572,0.07926 -0.21214,0.212145 -0.21214,0.2914 v 5.988894 m 81.60299,72.804976 c 0,0.18573 0.15931,0.34504 0.34504,0.34504 0.13209,0 0.2914,-0.10647 0.31782,-0.21215 0,-0.0264 0.23856,-0.95425 0.26498,-1.0335 0.0264,-0.10568 0.26498,-1.11276 1.21923,-2.67623 1.03271,-1.72278 2.6226,-2.96763 3.9475,-4.8225 1.29849,-1.85487 2.09343,-3.60406 2.09343,-5.93606 0,-2.411246 -0.55638,-4.424622 -1.96054,-6.99518 -0.0793,-0.185727 -0.23856,-0.291399 -0.39787,-0.291399 -0.0528,0 -0.10567,0 -0.13209,0.02642 -0.13289,0.05284 -0.18573,0.159309 -0.18573,0.317817 0,0.07925 0.0264,0.212145 0.0801,0.317817 1.05992,2.464886 1.48341,3.869046 1.48341,5.776745 0,2.1991 -0.76852,3.33908 -1.24565,4.16045 -1.72198,2.94121 -4.50468,4.37179 -5.61744,4.74324 -0.18493,0.0793 -0.21215,0.21214 -0.21215,0.2914 v 5.98809 m 284.0174,-74.459705 c 0,0.184927 0.15851,0.344235 0.34424,0.344235 0.13289,0 0.2914,-0.105672 0.31781,-0.212145 0,-0.02642 0.23857,-0.953452 0.26498,-1.033506 0.0264,-0.105673 0.26499,-1.112761 1.21924,-2.67623 1.0335,-1.721978 2.62339,-2.967629 3.9483,-4.822498 1.29849,-1.854868 2.09343,-3.604064 2.09343,-5.935258 0,-2.412049 -0.55638,-4.425506 -1.96134,-6.995823 -0.0793,-0.185487 -0.23857,-0.291479 -0.39707,-0.291479 -0.0528,0 -0.10648,0 -0.13289,0.0265 -0.13209,0.053 -0.18493,0.158988 -0.18493,0.317977 0,0.07949 0.0264,0.211985 0.0793,0.317978 1.05993,2.464405 1.48342,3.868565 1.48342,5.776269 0,2.199904 -0.76773,3.339083 -1.24485,4.160445 -1.72278,2.941211 -4.50468,4.372589 -5.61744,4.743243 -0.18573,0.07925 -0.21215,0.212145 -0.21215,0.291399 v 5.988895 m -457.57366,4.963394 c 0,0.185727 0.1585,0.345036 0.34423,0.345036 0.13209,0 0.2914,-0.106473 0.31782,-0.212145 0,-0.02642 0.23856,-0.954253 0.26498,-1.033507 0.0264,-0.105672 0.26498,-1.112761 1.21923,-2.67623 1.03351,-1.722778 2.6234,-2.967629 3.9483,-4.822497 1.29769,-1.854869 2.09263,-3.604065 2.09263,-5.936059 0,-2.411249 -0.55638,-4.424625 -1.96054,-6.995183 -0.0793,-0.185727 -0.23856,-0.291399 -0.39707,-0.291399 -0.0536,0 -0.10647,0 -0.13289,0.02642 -0.13209,0.05284 -0.18573,0.159309 -0.18573,0.317817 0,0.07925 0.0264,0.212145 0.0801,0.317817 1.05992,2.464886 1.48341,3.869046 1.48341,5.77675 0,2.199104 -0.76852,3.339083 -1.24485,4.160445 -1.72278,2.941211 -4.50468,4.371789 -5.61824,4.743243 -0.18493,0.07925 -0.21134,0.212145 -0.21134,0.291399 v 5.988095 m 58.3639,40.79029 c 0,0.07925 0.0264,0.212145 0.21215,0.291399 1.13918,0.370654 3.41833,1.802032 5.14031,4.743243 0.47713,0.821362 1.24565,1.960541 1.24565,4.159645 0,1.908505 -0.50354,3.86905 -1.19281,5.77675 -0.0528,0.15931 -0.10567,0.2914 -0.0793,0.39787 0,0.15851 0.10568,0.26498 0.26498,0.26498 0.18573,0 0.31782,-0.10647 0.42429,-0.29139 1.19202,-2.11985 1.64273,-4.584741 1.64273,-6.99599 -0.13289,-3.418337 -2.09343,-5.935258 -2.09343,-5.935258 0.0793,0 -2.43767,-3.259029 -3.15336,-4.37259 -0.98067,-1.509832 -1.43058,-3.020465 -1.48421,-3.126138 -0.0264,-0.08005 -0.26499,-1.033506 -0.26499,-1.033506 -0.0264,-0.106473 -0.1585,-0.212145 -0.31781,-0.212145 -0.18573,0 -0.34424,0.158508 -0.34424,0.344235 v 5.988895 M 535.62622,38.608158 c 0,0.184927 0.15931,0.344236 0.34423,0.344236 0.13289,0 0.2914,-0.105673 0.31782,-0.212145 0,-0.02642 0.23856,-0.953452 0.26498,-1.033507 0.0272,-0.105672 0.26498,-1.112761 1.21923,-2.67623 1.03351,-1.721977 2.6234,-2.967629 3.9483,-4.822497 1.29849,-1.854869 2.09344,-3.604065 2.09344,-5.935259 0,-2.411568 -0.55638,-4.425425 -1.96135,-6.995743 -0.0793,-0.185487 -0.23776,-0.291479 -0.39707,-0.291479 -0.0528,0 -0.10567,0 -0.13289,0.0265 -0.13209,0.053 -0.18492,0.158989 -0.18492,0.317977 0,0.07949 0.0264,0.211985 0.0793,0.317978 1.05992,2.464325 1.48421,3.868725 1.48421,5.776189 0,2.199904 -0.76852,3.339083 -1.24565,4.160445 -1.72277,2.941211 -4.50468,4.37259 -5.61744,4.743243 -0.18572,0.07925 -0.21214,0.212145 -0.21214,0.291399 V 38.60816 M 111.465,113.06867 c 0,0.18493 0.15851,0.34424 0.34423,0.34424 0.13289,0 0.2914,-0.10568 0.31782,-0.21215 0,-0.0264 0.23856,-0.95345 0.26498,-1.03351 0.0264,-0.10567 0.26498,-1.11276 1.21924,-2.67623 1.0335,-1.72197 2.62339,-2.96762 3.9483,-4.82249 1.29848,-1.85487 2.09343,-3.60407 2.09343,-5.935261 0,-2.41205 -0.55638,-4.425426 -1.96134,-6.995984 -0.0793,-0.185727 -0.23857,-0.291399 -0.39708,-0.291399 -0.0528,0 -0.10647,0 -0.13289,0.02642 -0.13209,0.05284 -0.18492,0.159309 -0.18492,0.317817 0,0.08006 0.0264,0.212145 0.0793,0.318618 1.05993,2.464085 1.48342,3.868245 1.48342,5.775949 0,2.1999 -0.76773,3.33908 -1.24486,4.16044 -1.72277,2.94121 -4.50468,4.37259 -5.61744,4.74325 -0.18572,0.0793 -0.21214,0.21214 -0.21214,0.2914 v 5.98889 M 463.4228,92.696357 v 20.372373 h 0.66217 V 92.696357 Z m -351.95815,0 v 20.372373 h 0.66202 V 92.696357 Z M 535.62576,16.581035 v 22.027091 h 0.66217 V 16.581035 Z m 52.22853,6.618744 v 20.398952 h 0.66216 V 23.199779 Z M 136.2208,96.005027 v 18.744853 h 0.66201 V 96.005027 Z m 45.07628,-17.658482 v 22.106375 h 0.66217 V 78.346545 Z M 495.9011,19.890329 v 22.05367 h 0.66202 v -22.05367 z m 45.06518,72.806028 v 20.398793 h 0.66202 V 92.696357 Z m -476.574593,3.30867 v 18.744853 h 0.662012 V 96.005027 Z M 228.3702,81.708844 v 22.053516 h 0.66202 V 81.708844 Z M 455.09883,23.199779 v 20.398952 h 0.66201 V 23.199779 Z M 253.12619,84.965447 v 22.106363 h 0.66218 V 84.965447 Z M 86.97587,18.778318 v 18.79707 h 0.66202 v -18.79707 z m 83.03037,7.730439 v 20.372218 h 0.66201 V 26.508757 Z m 320.64799,69.49627 v 18.744853 h 0.66202 V 96.005027 Z M 299.72446,76.691822 v 20.452424 h 0.66218 V 76.691822 Z m 23.92918,-53.492043 v 20.398952 h 0.66217 V 23.199779 Z M 198.84032,7.1957112 V 27.64704 h 0.66203 V 7.1957112 Z M 627.57988,19.890329 v 22.027252 h 0.66202 V 19.890329 Z M 343.56334,96.005027 V 116.3774 h 0.66202 V 96.005027 Z m -60.71197,-69.49627 v 18.744697 h 0.66201 V 26.508757 Z m 95.88556,50.183065 v 20.452424 h 0.66201 V 76.691822 Z M 261.96036,23.199779 v 20.372525 h 0.66202 V 23.199779 Z M 138.22373,7.1957112 V 27.64704 h 0.66201 V 7.1957112 Z M 411.64177,96.005027 v 18.744853 h 0.66217 V 96.005027 Z M 648.47182,23.199779 v 20.398952 h 0.66202 V 23.199779 Z m -426.23706,3.308978 v 18.744697 h 0.66201 V 26.508757 Z M 556.5177,19.890329 v 22.05367 h 0.66201 V 19.890329 Z M 107.86687,18.778318 v 18.79707 h 0.66218 v -18.79707 z m 206.32232,-6.982586 v 27.203133 h 1.19129 V 11.795732 Z m 120.15294,0 v 27.203133 h 3.64015 V 11.795732 Z m -3.63967,0 v 27.203133 h 1.19128 V 11.795732 Z m -2.44726,16.910456 c 0,-0.768526 -0.60921,-1.40416 -1.37774,-1.40416 -0.76853,0 -1.37774,0.635634 -1.37774,1.40416 0,0.768525 0.60921,1.40496 1.37774,1.40496 0.76853,0 1.37774,-0.636435 1.37774,-1.40496 m 0,-6.618446 c 0,-0.768445 -0.60921,-1.4044 -1.37774,-1.4044 -0.76853,0 -1.37774,0.635955 -1.37774,1.4044 0,0.768446 0.60921,1.404481 1.37774,1.404481 0.76853,0 1.37774,-0.636035 1.37774,-1.404481 m 18.5719,6.618446 c 0,-0.768526 -0.60922,-1.40416 -1.37774,-1.40416 -0.76853,0 -1.37774,0.635634 -1.37774,1.40416 0,0.768525 0.60921,1.40496 1.37774,1.40496 0.76852,0 1.37774,-0.636435 1.37774,-1.40496 m 0,-6.618446 c 0,-0.768445 -0.60922,-1.4044 -1.37774,-1.4044 -0.76853,0 -1.37774,0.635955 -1.37774,1.4044 0,0.768446 0.60921,1.404481 1.37774,1.404481 0.76852,0 1.37774,-0.636035 1.37774,-1.404481 m -6.39564,-10.29201 v 27.203133 h 1.19127 V 11.795732 Z m -6.08933,0 v 27.203133 h 3.64015 V 11.795732 Z m 52.09453,0 v 27.203133 h 1.19112 V 11.795732 Z m 190.92288,69.495955 v 27.203443 h 3.64015 V 81.291687 Z m -3.63967,0 V 108.49513 H 674.911 V 81.291687 Z m 6.089,-69.495955 V 38.998865 H 681 V 11.795732 Z m -397.491,69.495955 V 108.49513 H 283.509 V 81.291687 Z m 249.18398,0 v 27.203443 h 1.19112 V 81.291687 Z M 120.8162,11.795732 v 27.203133 h 1.19128 V 11.795732 Z M 0,107.76697 v 0.72785 h 681 v -0.72785 z m 0,-6.61889 v 0.72768 h 681 v -0.72768 z m 0,-6.618902 v 0.727682 h 681 v -0.727682 z m 0,-6.618125 v 0.72769 h 681 v -0.72769 z m 0,-6.618894 v 0.727682 H 681 V 81.292159 Z M 0,38.270712 v 0.727681 H 681 V 38.270712 Z M 0,31.65181 v 0.727681 H 681 V 31.65181 Z m 0,-6.618902 v 0.727682 h 681 v -0.727682 z m 0,-6.618432 v 0.727685 h 681 v -0.727685 z m 0,-6.618588 v 0.727685 h 681 v -0.727685 z"
     style="stroke-width:0.0800547" />
  <metadata
     id="metadata110">
    <rdf:RDF>
      <cc:Work
         rdf:about="">
        <dc:title>air_XXIV</dc:title>
      </cc:Work>
    </rdf:RDF>
  </metadata>
</svg>
