<?xml version="1.0" encoding="UTF-8" standalone="no"?>
<svg width="210.058mm" height="296.926mm" viewBox="0 0 9924 14028"
 xmlns="http://www.w3.org/2000/svg" xmlns:xlink="http://www.w3.org/1999/xlink" version="1.2" baseProfile="full">
<title>air_XLIX</title>
<desc>Generated by MuseScore Studio 4.7.3</desc>
<polyline class="StaffLines" fill="none" stroke="#000000" stroke-width="9.09" stroke-linejoin="bevel" points="708.661,828.424 9215.34,828.424" />
<polyline class="StaffLines" fill="none" stroke="#000000" stroke-width="9.09" stroke-linejoin="bevel" points="708.661,911.101 9215.34,911.101" />
<polyline class="StaffLines" fill="none" stroke="#000000" stroke-width="9.09" stroke-linejoin="bevel" points="708.661,993.778 9215.34,993.778" />
<polyline class="StaffLines" fill="none" stroke="#000000" stroke-width="9.09" stroke-linejoin="bevel" points="708.661,1076.46 9215.34,1076.46" />
<polyline class="StaffLines" fill="none" stroke="#000000" stroke-width="9.09" stroke-linejoin="bevel" points="708.661,1159.13 9215.34,1159.13" />
<polyline class="StaffLines" fill="none" stroke="#000000" stroke-width="9.09" stroke-linejoin="bevel" points="708.661,1696.53 9215.34,1696.53" />
<polyline class="StaffLines" fill="none" stroke="#000000" stroke-width="9.09" stroke-linejoin="bevel" points="708.661,1779.21 9215.34,1779.21" />
<polyline class="StaffLines" fill="none" stroke="#000000" stroke-width="9.09" stroke-linejoin="bevel" points="708.661,1861.89 9215.34,1861.89" />
<polyline class="StaffLines" fill="none" stroke="#000000" stroke-width="9.09" stroke-linejoin="bevel" points="708.661,1944.57 9215.34,1944.57" />
<polyline class="StaffLines" fill="none" stroke="#000000" stroke-width="9.09" stroke-linejoin="bevel" points="708.661,2027.24 9215.34,2027.24" />
<polyline class="StaffLines" fill="none" stroke="#000000" stroke-width="9.09" stroke-linejoin="bevel" points="708.661,2564.64 9215.34,2564.64" />
<polyline class="StaffLines" fill="none" stroke="#000000" stroke-width="9.09" stroke-linejoin="bevel" points="708.661,2647.32 9215.34,2647.32" />
<polyline class="StaffLines" fill="none" stroke="#000000" stroke-width="9.09" stroke-linejoin="bevel" points="708.661,2730 9215.34,2730" />
<polyline class="StaffLines" fill="none" stroke="#000000" stroke-width="9.09" stroke-linejoin="bevel" points="708.661,2812.68 9215.34,2812.68" />
<polyline class="StaffLines" fill="none" stroke="#000000" stroke-width="9.09" stroke-linejoin="bevel" points="708.661,2895.35 9215.34,2895.35" />
<polyline class="BarLine" fill="none" stroke="#000000" stroke-width="14.88" stroke-linejoin="bevel" points="4362.56,823.876 4362.56,1163.68" />
<polyline class="BarLine" fill="none" stroke="#000000" stroke-width="14.88" stroke-linejoin="bevel" points="5841.49,1691.99 5841.49,2031.79" />
<path class="BarLine" d="M9093.83,2688.66 C9093.83,2679.06 9086.22,2671.12 9076.62,2671.12 C9067.02,2671.12 9059.41,2679.06 9059.41,2688.66 C9059.41,2698.26 9067.02,2706.2 9076.62,2706.2 C9086.22,2706.2 9093.83,2698.26 9093.83,2688.66"/>
<path class="BarLine" d="M9093.83,2771.34 C9093.83,2761.74 9086.22,2753.79 9076.62,2753.79 C9067.02,2753.79 9059.41,2761.74 9059.41,2771.34 C9059.41,2780.94 9067.02,2788.88 9076.62,2788.88 C9086.22,2788.88 9093.83,2780.94 9093.83,2771.34"/>
<polyline class="BarLine" fill="none" stroke="#000000" stroke-width="14.88" stroke-linejoin="bevel" points="9131.84,2560.1 9131.84,2899.9" />
<polyline class="BarLine" fill="none" stroke="#000000" stroke-width="45.47" stroke-linejoin="bevel" points="9192.6,2560.1 9192.6,2899.9" />
<polyline class="BarLine" fill="none" stroke="#000000" stroke-width="14.88" stroke-linejoin="bevel" points="5109.67,1691.99 5109.67,2031.79" />
<polyline class="BarLine" fill="none" stroke="#000000" stroke-width="14.88" stroke-linejoin="bevel" points="8121.62,1691.99 8121.62,2031.79" />
<polyline class="BarLine" fill="none" stroke="#000000" stroke-width="14.88" stroke-linejoin="bevel" points="9207.9,1691.99 9207.9,2031.79" />
<polyline class="BarLine" fill="none" stroke="#000000" stroke-width="14.88" stroke-linejoin="bevel" points="3684.31,1691.99 3684.31,2031.79" />
<polyline class="BarLine" fill="none" stroke="#000000" stroke-width="14.88" stroke-linejoin="bevel" points="2490.47,1691.99 2490.47,2031.79" />
<polyline class="BarLine" fill="none" stroke="#000000" stroke-width="45.47" stroke-linejoin="bevel" points="1278.43,1691.99 1278.43,2031.79" />
<polyline class="BarLine" fill="none" stroke="#000000" stroke-width="14.88" stroke-linejoin="bevel" points="1339.19,1691.99 1339.19,2031.79" />
<path class="BarLine" d="M1411.65,1820.55 C1411.65,1810.95 1404.03,1803.01 1394.43,1803.01 C1384.83,1803.01 1377.22,1810.95 1377.22,1820.55 C1377.22,1830.15 1384.83,1838.09 1394.43,1838.09 C1404.03,1838.09 1411.65,1830.15 1411.65,1820.55"/>
<path class="BarLine" d="M1411.65,1903.23 C1411.65,1893.63 1404.03,1885.68 1394.43,1885.68 C1384.83,1885.68 1377.22,1893.63 1377.22,1903.23 C1377.22,1912.83 1384.83,1920.77 1394.43,1920.77 C1404.03,1920.77 1411.65,1912.83 1411.65,1903.23"/>
<polyline class="BarLine" fill="none" stroke="#000000" stroke-width="14.88" stroke-linejoin="bevel" points="8062.52,2560.1 8062.52,2899.9" />
<polyline class="BarLine" fill="none" stroke="#000000" stroke-width="14.88" stroke-linejoin="bevel" points="2498.6,823.876 2498.6,1163.68" />
<polyline class="BarLine" fill="none" stroke="#000000" stroke-width="14.88" stroke-linejoin="bevel" points="2892.52,2560.1 2892.52,2899.9" />
<path class="BarLine" d="M9093.83,952.439 C9093.83,942.84 9086.22,934.896 9076.62,934.896 C9067.02,934.896 9059.41,942.84 9059.41,952.439 C9059.41,962.038 9067.02,969.982 9076.62,969.982 C9086.22,969.982 9093.83,962.038 9093.83,952.439"/>
<path class="BarLine" d="M9093.83,1035.12 C9093.83,1025.52 9086.22,1017.57 9076.62,1017.57 C9067.02,1017.57 9059.41,1025.52 9059.41,1035.12 C9059.41,1044.72 9067.02,1052.66 9076.62,1052.66 C9086.22,1052.66 9093.83,1044.72 9093.83,1035.12"/>
<polyline class="BarLine" fill="none" stroke="#000000" stroke-width="14.88" stroke-linejoin="bevel" points="9131.84,823.876 9131.84,1163.68" />
<polyline class="BarLine" fill="none" stroke="#000000" stroke-width="45.47" stroke-linejoin="bevel" points="9192.6,823.876 9192.6,1163.68" />
<polyline class="BarLine" fill="none" stroke="#000000" stroke-width="14.88" stroke-linejoin="bevel" points="6927.77,1691.99 6927.77,2031.79" />
<polyline class="BarLine" fill="none" stroke="#000000" stroke-width="14.88" stroke-linejoin="bevel" points="8329.68,823.876 8329.68,1163.68" />
<polyline class="BarLine" fill="none" stroke="#000000" stroke-width="14.88" stroke-linejoin="bevel" points="4408.74,2560.1 4408.74,2899.9" />
<polyline class="BarLine" fill="none" stroke="#000000" stroke-width="14.88" stroke-linejoin="bevel" points="3430.58,823.876 3430.58,1163.68" />
<polyline class="BarLine" fill="none" stroke="#000000" stroke-width="14.88" stroke-linejoin="bevel" points="7126.44,823.876 7126.44,1163.68" />
<polyline class="BarLine" fill="none" stroke="#000000" stroke-width="14.88" stroke-linejoin="bevel" points="6194.46,823.876 6194.46,1163.68" />
<polyline class="BarLine" fill="none" stroke="#000000" stroke-width="14.88" stroke-linejoin="bevel" points="6080.3,2560.1 6080.3,2899.9" />
<polyline class="BarLine" fill="none" stroke="#000000" stroke-width="14.88" stroke-linejoin="bevel" points="5099.73,823.876 5099.73,1163.68" />
<path class="SlurSegment" stroke="#000000" stroke-width="4.13" stroke-linecap="round" stroke-linejoin="round" fill-rule="evenodd" d="M7092.3,1663.46 C7151.15,1589.46 7258.71,1596.49 7307.43,1677.52 C7257.29,1618.3 7149.72,1611.27 7092.3,1663.46"/>
<path class="SlurSegment" stroke="#000000" stroke-width="4.13" stroke-linecap="round" stroke-linejoin="round" fill-rule="evenodd" d="M6006.02,1760.2 C6058.93,1643.41 6220.27,1595.04 6328.71,1663.46 C6227.87,1620.39 6066.53,1668.75 6006.02,1760.2"/>
<path class="SlurSegment" stroke="#000000" stroke-width="4.13" stroke-linecap="round" stroke-linejoin="round" fill-rule="evenodd" d="M2655,1663.46 C2713.85,1589.46 2821.41,1596.49 2870.12,1677.52 C2819.98,1618.3 2712.42,1611.27 2655,1663.46"/>
<path class="SlurSegment" stroke="#000000" stroke-width="4.13" stroke-linecap="round" stroke-linejoin="round" fill-rule="evenodd" d="M4573.28,2531.57 C4655.15,2442.17 4810.48,2449.2 4883.94,2545.63 C4809.32,2474.84 4653.99,2467.82 4573.28,2531.57"/>
<path class="SlurSegment" stroke="#000000" stroke-width="4.13" stroke-linecap="round" stroke-linejoin="round" fill-rule="evenodd" d="M3057.06,2545.63 C3150.71,2411.38 3383.71,2363.01 3523.05,2448.9 C3389.08,2388.92 3156.09,2437.29 3057.06,2545.63"/>
<path class="SlurSegment" stroke="#000000" stroke-width="4.13" stroke-linecap="round" stroke-linejoin="round" fill-rule="evenodd" d="M1568.72,1760.2 C1621.63,1643.41 1782.97,1595.04 1891.4,1663.46 C1790.57,1620.39 1629.23,1668.75 1568.72,1760.2"/>
<polyline class="Stem" fill="none" stroke="#000000" stroke-width="8.27" stroke-linejoin="bevel" points="6816.55,2702.55 6816.55,2936.96" />
<polyline class="Stem" fill="none" stroke="#000000" stroke-width="8.27" stroke-linejoin="bevel" points="6601.78,1793.1 6601.78,2068.58" />
<polyline class="Stem" fill="none" stroke="#000000" stroke-width="8.27" stroke-linejoin="bevel" points="3939.44,2578.53 3939.44,2854.01" />
<polyline class="Stem" fill="none" stroke="#000000" stroke-width="8.27" stroke-linejoin="bevel" points="8000.87,1007.67 8000.87,1241.81" />
<polyline class="Stem" fill="none" stroke="#000000" stroke-width="8.27" stroke-linejoin="bevel" points="3473.44,2537.2 3473.44,2812.68" />
<polyline class="Stem" fill="none" stroke="#000000" stroke-width="8.27" stroke-linejoin="bevel" points="3200.98,1063.23 3200.98,787.085" />
<polyline class="Stem" fill="none" stroke="#000000" stroke-width="8.27" stroke-linejoin="bevel" points="7847.76,2799.45 7847.76,2564.38" />
<polyline class="Stem" fill="none" stroke="#000000" stroke-width="8.27" stroke-linejoin="bevel" points="8543.81,1021.89 8543.81,766.416" />
<polyline class="Stem" fill="none" stroke="#000000" stroke-width="8.27" stroke-linejoin="bevel" points="3007.44,2661.21 3007.44,2936.69" />
<polyline class="Stem" fill="none" stroke="#000000" stroke-width="8.27" stroke-linejoin="bevel" points="7537.1,2758.11 7537.1,2544.24" />
<polyline class="Stem" fill="none" stroke="#000000" stroke-width="8.27" stroke-linejoin="bevel" points="2613.52,1007.67 2613.52,1241.81" />
<polyline class="Stem" fill="none" stroke="#000000" stroke-width="8.27" stroke-linejoin="bevel" points="7458.37,924.991 7458.37,1158.75" />
<polyline class="Stem" fill="none" stroke="#000000" stroke-width="8.27" stroke-linejoin="bevel" points="4523.67,2619.87 4523.67,2874.95" />
<polyline class="Stem" fill="none" stroke="#000000" stroke-width="8.27" stroke-linejoin="bevel" points="2522.43,2799.45 2522.43,2523.31" />
<polyline class="Stem" fill="none" stroke="#000000" stroke-width="8.27" stroke-linejoin="bevel" points="2269,1021.89 2269,766.416" />
<polyline class="Stem" fill="none" stroke="#000000" stroke-width="8.27" stroke-linejoin="bevel" points="1519.1,1875.78 1519.1,2109.92" />
<polyline class="Stem" fill="none" stroke="#000000" stroke-width="8.27" stroke-linejoin="bevel" points="2056.43,2758.11 2056.43,2502.64" />
<polyline class="Stem" fill="none" stroke="#000000" stroke-width="8.27" stroke-linejoin="bevel" points="1841.79,1751.76 1841.79,2027.24" />
<polyline class="Stem" fill="none" stroke="#000000" stroke-width="8.27" stroke-linejoin="bevel" points="1646.55,2743.89 1646.55,2957.09" />
<polyline class="Stem" fill="none" stroke="#000000" stroke-width="8.27" stroke-linejoin="bevel" points="2164.47,1793.1 2164.47,2068.58" />
<polyline class="Stem" fill="none" stroke="#000000" stroke-width="8.27" stroke-linejoin="bevel" points="1335.89,2702.55 1335.89,2936.96" />
<polyline class="Stem" fill="none" stroke="#000000" stroke-width="8.27" stroke-linejoin="bevel" points="7241.37,883.652 7241.37,1138.84" />
<polyline class="Stem" fill="none" stroke="#000000" stroke-width="8.27" stroke-linejoin="bevel" points="4834.33,2661.21 4834.33,2895.08" />
<polyline class="Stem" fill="none" stroke="#000000" stroke-width="8.27" stroke-linejoin="bevel" points="2605.39,1751.76 2605.39,2006.96" />
<polyline class="Stem" fill="none" stroke="#000000" stroke-width="8.27" stroke-linejoin="bevel" points="6797.64,924.991 6797.64,1200.47" />
<polyline class="Stem" fill="none" stroke="#000000" stroke-width="8.27" stroke-linejoin="bevel" points="5145,2702.55 5145,2957.36" />
<polyline class="Stem" fill="none" stroke="#000000" stroke-width="8.27" stroke-linejoin="bevel" points="2820.51,1793.1 2820.51,2026.86" />
<polyline class="Stem" fill="none" stroke="#000000" stroke-width="8.27" stroke-linejoin="bevel" points="6309.38,883.652 6309.38,1159.13" />
<polyline class="Stem" fill="none" stroke="#000000" stroke-width="8.27" stroke-linejoin="bevel" points="3035.64,1834.44 3035.64,2089.25" />
<polyline class="Stem" fill="none" stroke="#000000" stroke-width="8.27" stroke-linejoin="bevel" points="3545.5,1007.67 3545.5,1241.81" />
<polyline class="Stem" fill="none" stroke="#000000" stroke-width="8.27" stroke-linejoin="bevel" points="3358.32,1875.78 3358.32,2109.92" />
<polyline class="Stem" fill="none" stroke="#000000" stroke-width="8.27" stroke-linejoin="bevel" points="5610.99,2743.89 5610.99,2978.03" />
<polyline class="Stem" fill="none" stroke="#000000" stroke-width="8.27" stroke-linejoin="bevel" points="1943.5,1063.23 1943.5,787.085" />
<polyline class="Stem" fill="none" stroke="#000000" stroke-width="8.27" stroke-linejoin="bevel" points="5865.66,924.991 5865.66,1200.47" />
<polyline class="Stem" fill="none" stroke="#000000" stroke-width="8.27" stroke-linejoin="bevel" points="3898.45,1890 3898.45,1654.81" />
<polyline class="Stem" fill="none" stroke="#000000" stroke-width="8.27" stroke-linejoin="bevel" points="8276.66,2799.45 8276.66,2523.31" />
<polyline class="Stem" fill="none" stroke="#000000" stroke-width="8.27" stroke-linejoin="bevel" points="8881.91,1875.78 8881.91,2109.92" />
<polyline class="Stem" fill="none" stroke="#000000" stroke-width="8.27" stroke-linejoin="bevel" points="4113.57,1848.66 4113.57,1634.91" />
<polyline class="Stem" fill="none" stroke="#000000" stroke-width="8.27" stroke-linejoin="bevel" points="8559.22,1834.44 8559.22,2089.25" />
<polyline class="Stem" fill="none" stroke="#000000" stroke-width="8.27" stroke-linejoin="bevel" points="4229.48,1834.44 4229.48,2068.96" />
<polyline class="Stem" fill="none" stroke="#000000" stroke-width="8.27" stroke-linejoin="bevel" points="8335.75,1890 8335.75,1634.53" />
<polyline class="Stem" fill="none" stroke="#000000" stroke-width="8.27" stroke-linejoin="bevel" points="7127.22,2743.89 7127.22,2957.09" />
<polyline class="Stem" fill="none" stroke="#000000" stroke-width="8.27" stroke-linejoin="bevel" points="4444.6,1875.78 4444.6,2088.87" />
<polyline class="Stem" fill="none" stroke="#000000" stroke-width="8.27" stroke-linejoin="bevel" points="1618,1187.24 1618,911.101" />
<polyline class="Stem" fill="none" stroke="#000000" stroke-width="8.27" stroke-linejoin="bevel" points="4758.94,1890 4758.94,1676.25" />
<polyline class="Stem" fill="none" stroke="#000000" stroke-width="8.27" stroke-linejoin="bevel" points="7795.62,1875.78 7795.62,2109.92" />
<polyline class="Stem" fill="none" stroke="#000000" stroke-width="8.27" stroke-linejoin="bevel" points="5540.15,800.975 5540.15,1076.46" />
<polyline class="Stem" fill="none" stroke="#000000" stroke-width="8.27" stroke-linejoin="bevel" points="5214.65,924.991 5214.65,1200.47" />
<polyline class="Stem" fill="none" stroke="#000000" stroke-width="8.27" stroke-linejoin="bevel" points="7472.94,1834.44 7472.94,2089.25" />
<polyline class="Stem" fill="none" stroke="#000000" stroke-width="8.27" stroke-linejoin="bevel" points="4974.06,1931.34 4974.06,1696.15" />
<polyline class="Stem" fill="none" stroke="#000000" stroke-width="8.27" stroke-linejoin="bevel" points="3871,966.329 3871,1221.14" />
<polyline class="Stem" fill="none" stroke="#000000" stroke-width="8.27" stroke-linejoin="bevel" points="5224.59,1834.44 5224.59,2089.25" />
<polyline class="Stem" fill="none" stroke="#000000" stroke-width="8.27" stroke-linejoin="bevel" points="7257.81,1793.1 7257.81,2026.86" />
<polyline class="Stem" fill="none" stroke="#000000" stroke-width="8.27" stroke-linejoin="bevel" points="7042.69,1751.76 7042.69,2006.96" />
<polyline class="Stem" fill="none" stroke="#000000" stroke-width="8.27" stroke-linejoin="bevel" points="6294.43,2758.11 6294.43,2523.04" />
<polyline class="Stem" fill="none" stroke="#000000" stroke-width="8.27" stroke-linejoin="bevel" points="6605.1,2716.77 6605.1,2502.9" />
<polyline class="Stem" fill="none" stroke="#000000" stroke-width="8.27" stroke-linejoin="bevel" points="5956.41,1875.78 5956.41,2109.92" />
<polyline class="Stem" fill="none" stroke="#000000" stroke-width="8.27" stroke-linejoin="bevel" points="4477.48,924.991 4477.48,1200.47" />
<polyline class="Stem" fill="none" stroke="#000000" stroke-width="8.27" stroke-linejoin="bevel" points="6279.09,1751.76 6279.09,2027.24" />
<polyline class="Stem" fill="none" stroke="#000000" stroke-width="8.27" stroke-linejoin="bevel" points="7675.37,966.329 7675.37,1221.14" />
<path class="Note" d="M4870.72,1958.47 C4870.72,1972.7 4880.98,1988.59 4907.79,1988.59 C4942.21,1988.59 4978.29,1960.45 4978.29,1931.33 C4978.29,1911.8 4961.74,1900.87 4941.22,1900.87 C4909.11,1900.87 4870.72,1928.02 4870.72,1958.47"/>
<path class="Note" d="M6191.09,2785.24 C6191.09,2799.47 6201.35,2815.36 6228.16,2815.36 C6262.58,2815.36 6298.66,2787.23 6298.66,2758.1 C6298.66,2738.57 6282.11,2727.65 6261.59,2727.65 C6229.48,2727.65 6191.09,2754.79 6191.09,2785.24"/>
<path class="Note" d="M6274.96,1751.77 C6274.96,1766.01 6285.22,1781.9 6312.03,1781.9 C6346.45,1781.9 6382.53,1753.76 6382.53,1724.63 C6382.53,1705.1 6365.98,1694.18 6345.46,1694.18 C6313.35,1694.18 6274.96,1721.32 6274.96,1751.77"/>
<path class="Note" d="M5952.27,1875.79 C5952.27,1890.02 5962.53,1905.91 5989.34,1905.91 C6023.77,1905.91 6059.85,1877.78 6059.85,1848.65 C6059.85,1829.12 6043.3,1818.2 6022.78,1818.2 C5990.67,1818.2 5952.27,1845.34 5952.27,1875.79"/>
<path class="Note" d="M8198.13,2841.14 C8187.21,2841.14 8184.89,2832.2 8184.89,2829.23 C8184.89,2813.01 8240.5,2784.54 8256.06,2784.54 C8264,2784.54 8269.3,2789.17 8269.3,2796.46 C8269.3,2813.01 8213.36,2841.14 8198.13,2841.14 M8243.81,2768.98 C8211.7,2768.98 8173.31,2795.79 8173.31,2826.58 C8173.31,2840.81 8183.57,2856.7 8210.38,2856.7 C8244.8,2856.7 8280.88,2828.56 8280.88,2799.44 C8280.88,2779.91 8264.33,2768.98 8243.81,2768.98"/>
<path class="Note" d="M7038.56,1751.77 C7038.56,1766.01 7048.82,1781.9 7075.63,1781.9 C7110.05,1781.9 7146.13,1753.76 7146.13,1724.63 C7146.13,1705.1 7129.58,1694.18 7109.06,1694.18 C7076.95,1694.18 7038.56,1721.32 7038.56,1751.77"/>
<path class="Note" d="M1514.65,1214.37 C1514.65,1228.61 1524.91,1244.49 1551.72,1244.49 C1586.15,1244.49 1622.23,1216.36 1622.23,1187.23 C1622.23,1167.7 1605.68,1156.78 1585.16,1156.78 C1553.05,1156.78 1514.65,1183.92 1514.65,1214.37"/>
<path class="Note" d="M5245.28,1849.02 C5234.36,1849.02 5232.04,1840.08 5232.04,1837.1 C5232.04,1820.88 5287.65,1792.41 5303.21,1792.41 C5311.15,1792.41 5316.45,1797.05 5316.45,1804.33 C5316.45,1820.88 5260.51,1849.02 5245.28,1849.02 M5290.96,1776.86 C5258.85,1776.86 5220.46,1803.67 5220.46,1834.45 C5220.46,1848.68 5230.72,1864.57 5257.53,1864.57 C5291.95,1864.57 5328.03,1836.44 5328.03,1807.31 C5328.03,1787.78 5311.48,1776.86 5290.96,1776.86"/>
<path class="Note" d="M7253.68,1793.11 C7253.68,1807.35 7263.94,1823.23 7290.75,1823.23 C7325.18,1823.23 7361.26,1795.1 7361.26,1765.97 C7361.26,1746.44 7344.71,1735.52 7324.18,1735.52 C7292.08,1735.52 7253.68,1762.66 7253.68,1793.11"/>
<path class="Note" d="M1840.15,1090.36 C1840.15,1104.59 1850.41,1120.48 1877.23,1120.48 C1911.65,1120.48 1947.73,1092.34 1947.73,1063.22 C1947.73,1043.69 1931.18,1032.76 1910.66,1032.76 C1878.55,1032.76 1840.15,1059.91 1840.15,1090.36"/>
<path class="Note" d="M7468.8,1834.45 C7468.8,1848.68 7479.07,1864.57 7505.88,1864.57 C7540.3,1864.57 7576.38,1836.44 7576.38,1807.31 C7576.38,1787.78 7559.83,1776.86 7539.31,1776.86 C7507.2,1776.86 7468.8,1804 7468.8,1834.45"/>
<path class="Note" d="M4655.59,1917.13 C4655.59,1931.36 4665.86,1947.25 4692.67,1947.25 C4727.09,1947.25 4763.17,1919.11 4763.17,1889.99 C4763.17,1870.46 4746.62,1859.53 4726.1,1859.53 C4693.99,1859.53 4655.59,1886.68 4655.59,1917.13"/>
<path class="Note" d="M7791.49,1875.79 C7791.49,1890.02 7801.75,1905.91 7828.56,1905.91 C7862.99,1905.91 7899.06,1877.78 7899.06,1848.65 C7899.06,1829.12 7882.51,1818.2 7861.99,1818.2 C7829.89,1818.2 7791.49,1845.34 7791.49,1875.79"/>
<path class="Note" d="M4440.47,1875.79 C4440.47,1890.02 4450.73,1905.91 4477.54,1905.91 C4511.97,1905.91 4548.05,1877.78 4548.05,1848.65 C4548.05,1829.12 4531.5,1818.2 4510.97,1818.2 C4478.87,1818.2 4440.47,1845.34 4440.47,1875.79"/>
<path class="Note" d="M2165.65,1049.02 C2165.65,1063.25 2175.92,1079.14 2202.73,1079.14 C2237.15,1079.14 2273.23,1051 2273.23,1021.88 C2273.23,1002.35 2256.68,991.425 2236.16,991.425 C2204.05,991.425 2165.65,1018.57 2165.65,1049.02"/>
<path class="Note" d="M4225.35,1834.45 C4225.35,1848.68 4235.61,1864.57 4262.42,1864.57 C4296.84,1864.57 4332.92,1836.44 4332.92,1807.31 C4332.92,1787.78 4316.37,1776.86 4295.85,1776.86 C4263.74,1776.86 4225.35,1804 4225.35,1834.45"/>
<path class="Note" d="M8232.4,1917.13 C8232.4,1931.36 8242.66,1947.25 8269.48,1947.25 C8303.9,1947.25 8339.98,1919.11 8339.98,1889.99 C8339.98,1870.46 8323.43,1859.53 8302.91,1859.53 C8270.8,1859.53 8232.4,1886.68 8232.4,1917.13"/>
<path class="Note" d="M4010.22,1875.79 C4010.22,1890.02 4020.48,1905.91 4047.3,1905.91 C4081.72,1905.91 4117.8,1877.78 4117.8,1848.65 C4117.8,1829.12 4101.25,1818.2 4080.73,1818.2 C4048.62,1818.2 4010.22,1845.34 4010.22,1875.79"/>
<path class="Note" d="M8555.09,1834.45 C8555.09,1848.68 8565.35,1864.57 8592.16,1864.57 C8626.58,1864.57 8662.66,1836.44 8662.66,1807.31 C8662.66,1787.78 8646.11,1776.86 8625.59,1776.86 C8593.48,1776.86 8555.09,1804 8555.09,1834.45"/>
<path class="Note" d="M7744.41,2826.58 C7744.41,2840.81 7754.68,2856.7 7781.49,2856.7 C7815.91,2856.7 7851.99,2828.56 7851.99,2799.44 C7851.99,2779.91 7835.44,2768.98 7814.92,2768.98 C7782.81,2768.98 7744.41,2796.13 7744.41,2826.58"/>
<path class="Note" d="M8877.77,1875.79 C8877.77,1890.02 8888.03,1905.91 8914.85,1905.91 C8949.27,1905.91 8985.35,1877.78 8985.35,1848.65 C8985.35,1829.12 8968.8,1818.2 8948.28,1818.2 C8916.17,1818.2 8877.77,1845.34 8877.77,1875.79"/>
<path class="Note" d="M3795.1,1917.13 C3795.1,1931.36 3805.36,1947.25 3832.17,1947.25 C3866.6,1947.25 3902.68,1919.11 3902.68,1889.99 C3902.68,1870.46 3886.13,1859.53 3865.6,1859.53 C3833.5,1859.53 3795.1,1886.68 3795.1,1917.13"/>
<path class="Note" d="M3354.19,1875.79 C3354.19,1890.02 3364.45,1905.91 3391.26,1905.91 C3425.68,1905.91 3461.76,1877.78 3461.76,1848.65 C3461.76,1829.12 3445.21,1818.2 3424.69,1818.2 C3392.58,1818.2 3354.19,1845.34 3354.19,1875.79"/>
<path class="Note" d="M3031.5,1834.45 C3031.5,1848.68 3041.76,1864.57 3068.57,1864.57 C3103,1864.57 3139.08,1836.44 3139.08,1807.31 C3139.08,1787.78 3122.53,1776.86 3102,1776.86 C3069.9,1776.86 3031.5,1804 3031.5,1834.45"/>
<path class="Note" d="M2816.38,1793.11 C2816.38,1807.35 2826.64,1823.23 2853.45,1823.23 C2887.87,1823.23 2923.95,1795.1 2923.95,1765.97 C2923.95,1746.44 2907.4,1735.52 2886.88,1735.52 C2854.77,1735.52 2816.38,1762.66 2816.38,1793.11"/>
<path class="Note" d="M2634.21,1022.24 C2623.29,1022.24 2620.97,1013.31 2620.97,1010.33 C2620.97,994.109 2676.58,965.643 2692.13,965.643 C2700.08,965.643 2705.37,970.277 2705.37,977.559 C2705.37,994.109 2649.44,1022.24 2634.21,1022.24 M2679.89,950.086 C2647.78,950.086 2609.38,976.897 2609.38,1007.68 C2609.38,1021.91 2619.65,1037.8 2646.46,1037.8 C2680.88,1037.8 2716.96,1009.67 2716.96,980.538 C2716.96,961.009 2700.41,950.086 2679.89,950.086"/>
<path class="Note" d="M2601.25,1751.77 C2601.25,1766.01 2611.52,1781.9 2638.33,1781.9 C2672.75,1781.9 2708.83,1753.76 2708.83,1724.63 C2708.83,1705.1 2692.28,1694.18 2671.76,1694.18 C2639.65,1694.18 2601.25,1721.32 2601.25,1751.77"/>
<path class="Note" d="M7433.75,2785.24 C7433.75,2799.47 7444.01,2815.36 7470.82,2815.36 C7505.25,2815.36 7541.32,2787.23 7541.32,2758.1 C7541.32,2738.57 7524.77,2727.65 7504.25,2727.65 C7472.15,2727.65 7433.75,2754.79 7433.75,2785.24"/>
<path class="Note" d="M3097.64,1090.36 C3097.64,1104.59 3107.9,1120.48 3134.71,1120.48 C3169.13,1120.48 3205.21,1092.34 3205.21,1063.22 C3205.21,1043.69 3188.66,1032.76 3168.14,1032.76 C3136.03,1032.76 3097.64,1059.91 3097.64,1090.36"/>
<path class="Note" d="M2160.34,1793.11 C2160.34,1807.35 2170.6,1823.23 2197.41,1823.23 C2231.84,1823.23 2267.92,1795.1 2267.92,1765.97 C2267.92,1746.44 2251.37,1735.52 2230.84,1735.52 C2198.74,1735.52 2160.34,1762.66 2160.34,1793.11"/>
<path class="Note" d="M1331.75,2702.56 C1331.75,2716.79 1342.01,2732.68 1368.82,2732.68 C1403.25,2732.68 1439.33,2704.55 1439.33,2675.42 C1439.33,2655.89 1422.78,2644.97 1402.26,2644.97 C1370.15,2644.97 1331.75,2672.11 1331.75,2702.56"/>
<path class="Note" d="M7123.08,2743.9 C7123.08,2758.13 7133.34,2774.02 7160.16,2774.02 C7194.58,2774.02 7230.66,2745.89 7230.66,2716.76 C7230.66,2697.23 7214.11,2686.31 7193.59,2686.31 C7161.48,2686.31 7123.08,2713.45 7123.08,2743.9"/>
<path class="Note" d="M1837.66,1751.77 C1837.66,1766.01 1847.92,1781.9 1874.73,1781.9 C1909.15,1781.9 1945.23,1753.76 1945.23,1724.63 C1945.23,1705.1 1928.68,1694.18 1908.16,1694.18 C1876.05,1694.18 1837.66,1721.32 1837.66,1751.77"/>
<path class="Note" d="M1642.42,2743.9 C1642.42,2758.13 1652.68,2774.02 1679.49,2774.02 C1713.91,2774.02 1749.99,2745.89 1749.99,2716.76 C1749.99,2697.23 1733.44,2686.31 1712.92,2686.31 C1680.81,2686.31 1642.42,2713.45 1642.42,2743.9"/>
<path class="Note" d="M1514.97,1875.79 C1514.97,1890.02 1525.23,1905.91 1552.04,1905.91 C1586.47,1905.91 1622.54,1877.78 1622.54,1848.65 C1622.54,1829.12 1605.99,1818.2 1585.47,1818.2 C1553.37,1818.2 1514.97,1845.34 1514.97,1875.79"/>
<path class="Note" d="M1953.08,2785.24 C1953.08,2799.47 1963.34,2815.36 1990.16,2815.36 C2024.58,2815.36 2060.66,2787.23 2060.66,2758.1 C2060.66,2738.57 2044.11,2727.65 2023.59,2727.65 C1991.48,2727.65 1953.08,2754.79 1953.08,2785.24"/>
<path class="Note" d="M3541.37,1007.68 C3541.37,1021.91 3551.63,1037.8 3578.44,1037.8 C3612.86,1037.8 3648.94,1009.67 3648.94,980.538 C3648.94,961.009 3632.39,950.086 3611.87,950.086 C3579.76,950.086 3541.37,977.228 3541.37,1007.68"/>
<path class="Note" d="M2419.08,2826.58 C2419.08,2840.81 2429.34,2856.7 2456.15,2856.7 C2490.58,2856.7 2526.66,2828.56 2526.66,2799.44 C2526.66,2779.91 2510.11,2768.98 2489.59,2768.98 C2457.48,2768.98 2419.08,2796.13 2419.08,2826.58"/>
<path class="Note" d="M6812.42,2702.56 C6812.42,2716.79 6822.68,2732.68 6849.49,2732.68 C6883.91,2732.68 6919.99,2704.55 6919.99,2675.42 C6919.99,2655.89 6903.44,2644.97 6882.92,2644.97 C6850.81,2644.97 6812.42,2672.11 6812.42,2702.56"/>
<path class="Note" d="M3891.69,980.905 C3880.77,980.905 3878.45,971.968 3878.45,968.989 C3878.45,952.77 3934.06,924.304 3949.62,924.304 C3957.56,924.304 3962.86,928.938 3962.86,936.22 C3962.86,952.77 3906.92,980.905 3891.69,980.905 M3937.37,908.747 C3905.26,908.747 3866.87,935.558 3866.87,966.341 C3866.87,980.574 3877.13,996.462 3903.94,996.462 C3938.36,996.462 3974.44,968.327 3974.44,939.199 C3974.44,919.67 3957.89,908.747 3937.37,908.747"/>
<path class="Note" d="M8465.29,1063.58 C8454.37,1063.58 8452.05,1054.65 8452.05,1051.67 C8452.05,1035.45 8507.66,1006.98 8523.21,1006.98 C8531.16,1006.98 8536.45,1011.62 8536.45,1018.9 C8536.45,1035.45 8480.52,1063.58 8465.29,1063.58 M8510.97,991.425 C8478.86,991.425 8440.46,1018.24 8440.46,1049.02 C8440.46,1063.25 8450.73,1079.14 8477.54,1079.14 C8511.96,1079.14 8548.04,1051 8548.04,1021.88 C8548.04,1002.35 8531.49,991.425 8510.97,991.425"/>
<path class="Note" d="M3003.31,2661.22 C3003.31,2675.46 3013.57,2691.34 3040.38,2691.34 C3074.8,2691.34 3110.88,2663.21 3110.88,2634.08 C3110.88,2614.55 3094.33,2603.63 3073.81,2603.63 C3041.7,2603.63 3003.31,2630.77 3003.31,2661.22"/>
<path class="Note" d="M7996.74,1007.68 C7996.74,1021.91 8007,1037.8 8033.81,1037.8 C8068.23,1037.8 8104.31,1009.67 8104.31,980.538 C8104.31,961.009 8087.76,950.086 8067.24,950.086 C8035.13,950.086 7996.74,977.228 7996.74,1007.68"/>
<path class="Note" d="M3469.31,2537.21 C3469.31,2551.44 3479.57,2567.33 3506.38,2567.33 C3540.8,2567.33 3576.88,2539.19 3576.88,2510.07 C3576.88,2490.54 3560.33,2479.61 3539.81,2479.61 C3507.7,2479.61 3469.31,2506.76 3469.31,2537.21"/>
<path class="Note" d="M7671.23,966.341 C7671.23,980.574 7681.49,996.462 7708.31,996.462 C7742.73,996.462 7778.81,968.327 7778.81,939.199 C7778.81,919.67 7762.26,908.747 7741.74,908.747 C7709.63,908.747 7671.23,935.889 7671.23,966.341"/>
<path class="Note" d="M3935.31,2578.55 C3935.31,2592.78 3945.57,2608.67 3972.38,2608.67 C4006.8,2608.67 4042.88,2580.53 4042.88,2551.4 C4042.88,2531.88 4026.33,2520.95 4005.81,2520.95 C3973.7,2520.95 3935.31,2548.09 3935.31,2578.55"/>
<path class="Note" d="M7454.23,925.003 C7454.23,939.236 7464.49,955.124 7491.31,955.124 C7525.73,955.124 7561.81,926.989 7561.81,897.861 C7561.81,878.332 7545.26,867.409 7524.74,867.409 C7492.63,867.409 7454.23,894.551 7454.23,925.003"/>
<path class="Note" d="M6501.75,2743.9 C6501.75,2758.13 6512.01,2774.02 6538.82,2774.02 C6573.25,2774.02 6609.33,2745.89 6609.33,2716.76 C6609.33,2697.23 6592.78,2686.31 6572.26,2686.31 C6540.15,2686.31 6501.75,2713.45 6501.75,2743.9"/>
<path class="Note" d="M7237.23,883.664 C7237.23,897.897 7247.49,913.785 7274.3,913.785 C7308.73,913.785 7344.81,885.65 7344.81,856.522 C7344.81,836.993 7328.26,826.07 7307.74,826.07 C7275.63,826.07 7237.23,853.212 7237.23,883.664"/>
<path class="Note" d="M4519.53,2619.88 C4519.53,2634.12 4529.79,2650.01 4556.6,2650.01 C4591.03,2650.01 4627.11,2621.87 4627.11,2592.74 C4627.11,2573.21 4610.56,2562.29 4590.03,2562.29 C4557.93,2562.29 4519.53,2589.43 4519.53,2619.88"/>
<path class="Note" d="M4498.17,939.567 C4487.25,939.567 4484.93,930.63 4484.93,927.651 C4484.93,911.432 4540.54,882.966 4556.1,882.966 C4564.04,882.966 4569.34,887.6 4569.34,894.882 C4569.34,911.432 4513.4,939.567 4498.17,939.567 M4543.85,867.409 C4511.74,867.409 4473.35,894.22 4473.35,925.003 C4473.35,939.236 4483.61,955.124 4510.42,955.124 C4544.84,955.124 4580.92,926.989 4580.92,897.861 C4580.92,878.332 4564.37,867.409 4543.85,867.409"/>
<path class="Note" d="M6793.5,925.003 C6793.5,939.236 6803.76,955.124 6830.57,955.124 C6865,955.124 6901.08,926.989 6901.08,897.861 C6901.08,878.332 6884.53,867.409 6864.01,867.409 C6831.9,867.409 6793.5,894.551 6793.5,925.003"/>
<path class="Note" d="M4830.2,2661.22 C4830.2,2675.46 4840.46,2691.34 4867.27,2691.34 C4901.69,2691.34 4937.77,2663.21 4937.77,2634.08 C4937.77,2614.55 4921.22,2603.63 4900.7,2603.63 C4868.59,2603.63 4830.2,2630.77 4830.2,2661.22"/>
<path class="Note" d="M6330.08,898.228 C6319.15,898.228 6316.84,889.291 6316.84,886.312 C6316.84,870.093 6372.44,841.627 6388,841.627 C6395.94,841.627 6401.24,846.261 6401.24,853.543 C6401.24,870.093 6345.3,898.228 6330.08,898.228 M6375.75,826.07 C6343.65,826.07 6305.25,852.881 6305.25,883.664 C6305.25,897.897 6315.51,913.785 6342.32,913.785 C6376.75,913.785 6412.83,885.65 6412.83,856.522 C6412.83,836.993 6396.28,826.07 6375.75,826.07"/>
<path class="Note" d="M5140.86,2702.56 C5140.86,2716.79 5151.12,2732.68 5177.93,2732.68 C5212.36,2732.68 5248.44,2704.55 5248.44,2675.42 C5248.44,2655.89 5231.89,2644.97 5211.37,2644.97 C5179.26,2644.97 5140.86,2672.11 5140.86,2702.56"/>
<path class="Note" d="M5861.52,925.003 C5861.52,939.236 5871.78,955.124 5898.59,955.124 C5933.02,955.124 5969.1,926.989 5969.1,897.861 C5969.1,878.332 5952.55,867.409 5932.02,867.409 C5899.92,867.409 5861.52,894.551 5861.52,925.003"/>
<path class="Note" d="M5606.86,2743.9 C5606.86,2758.13 5617.12,2774.02 5643.93,2774.02 C5678.36,2774.02 5714.44,2745.89 5714.44,2716.76 C5714.44,2697.23 5697.89,2686.31 5677.36,2686.31 C5645.26,2686.31 5606.86,2713.45 5606.86,2743.9"/>
<path class="Note" d="M5536.02,800.987 C5536.02,815.22 5546.28,831.108 5573.09,831.108 C5607.52,831.108 5643.6,802.973 5643.6,773.845 C5643.6,754.316 5627.05,743.393 5606.52,743.393 C5574.42,743.393 5536.02,770.535 5536.02,800.987"/>
<path class="Note" d="M5210.52,925.003 C5210.52,939.236 5220.78,955.124 5247.59,955.124 C5282.01,955.124 5318.09,926.989 5318.09,897.861 C5318.09,878.332 5301.54,867.409 5281.02,867.409 C5248.91,867.409 5210.52,894.551 5210.52,925.003"/>
<path class="Note" d="M6597.64,1793.11 C6597.64,1807.35 6607.9,1823.23 6634.72,1823.23 C6669.14,1823.23 6705.22,1795.1 6705.22,1765.97 C6705.22,1746.44 6688.67,1735.52 6668.15,1735.52 C6636.04,1735.52 6597.64,1762.66 6597.64,1793.11"/>
<path class="Clef" d="M909.689,2012.75 C903.069,2014.08 896.78,2014.74 890.491,2014.74 C843.158,2014.74 802.776,1981.64 802.776,1931.66 C802.776,1891.27 831.242,1855.2 860.37,1830.04 C865.997,1825.07 871.293,1820.44 876.258,1815.48 C879.237,1833.35 881.554,1848.91 883.871,1862.48 C853.75,1871.41 833.228,1903.19 833.228,1934.3 C833.228,1957.47 851.433,1989.25 877.913,1989.25 C880.561,1989.25 883.54,1987.93 883.54,1984.95 C883.54,1981.97 880.23,1980.31 876.258,1977.67 C863.349,1969.72 856.067,1961.12 856.067,1944.9 C856.067,1924.71 870.962,1908.49 890.491,1903.85 L909.689,2012.75 M880.561,1672.48 C883.54,1659.24 898.766,1624.49 915.978,1624.49 C920.943,1624.49 928.887,1640.71 928.887,1663.55 C928.887,1697.97 903.4,1723.79 880.561,1746.3 C878.575,1733.06 876.92,1720.15 876.92,1706.25 C876.92,1694 877.913,1682.74 880.561,1672.48 M956.691,1951.52 C956.691,1975.02 947.092,1999.18 923.591,2008.78 C916.64,1969.06 907.703,1916.43 905.386,1901.87 C935.176,1901.87 956.691,1922.06 956.691,1951.52 M811.051,2114.37 C811.051,2136.21 827.932,2165.01 872.617,2165.01 C888.174,2165.01 901.745,2161.04 913.661,2153.76 C931.535,2141.18 936.169,2119.33 936.169,2098.48 C936.169,2085.57 934.183,2070.68 930.873,2051.81 C929.88,2045.19 927.894,2035.26 925.908,2022.35 C958.346,2011.76 982.509,1978 982.509,1943.9 C982.509,1893.92 947.092,1860.16 898.766,1860.16 C895.456,1840.3 892.146,1820.77 889.167,1802.24 C924.253,1765.49 948.416,1724.12 948.416,1671.49 C948.416,1641.37 939.148,1616.88 933.852,1604.96 C925.908,1588.08 916.309,1576.49 910.351,1576.49 C908.034,1576.49 897.773,1580.47 886.85,1593.37 C865.666,1618.53 859.708,1660.9 859.708,1688.7 C859.708,1706.58 861.363,1722.8 866.99,1759.87 C866.659,1760.2 849.447,1777.74 842.496,1783.37 C812.375,1811.5 770.669,1851.55 770.669,1917.75 C770.669,1979.65 824.622,2028.31 886.188,2028.31 C895.787,2028.31 904.724,2027.32 912.337,2025.99 C918.626,2057.77 922.267,2080.94 922.267,2098.48 C922.267,2132.9 904.724,2151.11 871.293,2151.11 C863.349,2151.11 856.398,2149.45 855.736,2149.45 C855.405,2149.12 854.743,2148.79 854.743,2148.46 C854.743,2147.8 855.405,2147.47 856.398,2147.14 C871.955,2144.82 887.512,2131.58 887.512,2110.4 C887.512,2092.52 873.941,2073.66 849.116,2073.66 C825.946,2073.66 811.051,2092.52 811.051,2114.37"/>
<path class="Clef" d="M909.689,2880.86 C903.069,2882.19 896.78,2882.85 890.491,2882.85 C843.158,2882.85 802.776,2849.75 802.776,2799.77 C802.776,2759.38 831.242,2723.31 860.37,2698.15 C865.997,2693.18 871.293,2688.55 876.258,2683.59 C879.237,2701.46 881.554,2717.02 883.871,2730.59 C853.75,2739.52 833.228,2771.3 833.228,2802.41 C833.228,2825.58 851.433,2857.36 877.913,2857.36 C880.561,2857.36 883.54,2856.04 883.54,2853.06 C883.54,2850.08 880.23,2848.42 876.258,2845.78 C863.349,2837.83 856.067,2829.23 856.067,2813.01 C856.067,2792.82 870.962,2776.6 890.491,2771.96 L909.689,2880.86 M880.561,2540.59 C883.54,2527.35 898.766,2492.6 915.978,2492.6 C920.943,2492.6 928.887,2508.82 928.887,2531.66 C928.887,2566.08 903.4,2591.9 880.561,2614.41 C878.575,2601.17 876.92,2588.26 876.92,2574.36 C876.92,2562.11 877.913,2550.85 880.561,2540.59 M956.691,2819.63 C956.691,2843.13 947.092,2867.29 923.591,2876.89 C916.64,2837.17 907.703,2784.54 905.386,2769.98 C935.176,2769.98 956.691,2790.17 956.691,2819.63 M811.051,2982.48 C811.051,3004.32 827.932,3033.12 872.617,3033.12 C888.174,3033.12 901.745,3029.15 913.661,3021.87 C931.535,3009.29 936.169,2987.44 936.169,2966.59 C936.169,2953.68 934.183,2938.79 930.873,2919.92 C929.88,2913.3 927.894,2903.37 925.908,2890.46 C958.346,2879.87 982.509,2846.11 982.509,2812.01 C982.509,2762.03 947.092,2728.27 898.766,2728.27 C895.456,2708.41 892.146,2688.88 889.167,2670.35 C924.253,2633.6 948.416,2592.23 948.416,2539.6 C948.416,2509.48 939.148,2484.99 933.852,2473.07 C925.908,2456.19 916.309,2444.6 910.351,2444.6 C908.034,2444.6 897.773,2448.58 886.85,2461.48 C865.666,2486.64 859.708,2529.01 859.708,2556.81 C859.708,2574.69 861.363,2590.91 866.99,2627.98 C866.659,2628.31 849.447,2645.85 842.496,2651.48 C812.375,2679.61 770.669,2719.66 770.669,2785.86 C770.669,2847.76 824.622,2896.42 886.188,2896.42 C895.787,2896.42 904.724,2895.43 912.337,2894.1 C918.626,2925.88 922.267,2949.05 922.267,2966.59 C922.267,3001.01 904.724,3019.22 871.293,3019.22 C863.349,3019.22 856.398,3017.56 855.736,3017.56 C855.405,3017.23 854.743,3016.9 854.743,3016.57 C854.743,3015.91 855.405,3015.58 856.398,3015.25 C871.955,3012.93 887.512,2999.69 887.512,2978.51 C887.512,2960.63 873.941,2941.77 849.116,2941.77 C825.946,2941.77 811.051,2960.63 811.051,2982.48"/>
<path class="Clef" d="M909.689,1144.64 C903.069,1145.97 896.78,1146.63 890.491,1146.63 C843.158,1146.63 802.776,1113.53 802.776,1063.55 C802.776,1023.16 831.242,987.085 860.37,961.929 C865.997,956.964 871.293,952.33 876.258,947.365 C879.237,965.239 881.554,980.796 883.871,994.367 C853.75,1003.3 833.228,1035.08 833.228,1066.19 C833.228,1089.36 851.433,1121.14 877.913,1121.14 C880.561,1121.14 883.54,1119.82 883.54,1116.84 C883.54,1113.86 880.23,1112.2 876.258,1109.56 C863.349,1101.61 856.067,1093.01 856.067,1076.79 C856.067,1056.6 870.962,1040.38 890.491,1035.74 L909.689,1144.64 M880.561,804.373 C883.54,791.133 898.766,756.378 915.978,756.378 C920.943,756.378 928.887,772.597 928.887,795.436 C928.887,829.86 903.4,855.678 880.561,878.186 C878.575,864.946 876.92,852.037 876.92,838.135 C876.92,825.888 877.913,814.634 880.561,804.373 M956.691,1083.41 C956.691,1106.91 947.092,1131.07 923.591,1140.67 C916.64,1100.95 907.703,1048.32 905.386,1033.76 C935.176,1033.76 956.691,1053.95 956.691,1083.41 M811.051,1246.26 C811.051,1268.1 827.932,1296.9 872.617,1296.9 C888.174,1296.9 901.745,1292.93 913.661,1285.65 C931.535,1273.07 936.169,1251.22 936.169,1230.37 C936.169,1217.46 934.183,1202.57 930.873,1183.7 C929.88,1177.08 927.894,1167.15 925.908,1154.24 C958.346,1143.65 982.509,1109.89 982.509,1075.79 C982.509,1025.81 947.092,992.05 898.766,992.05 C895.456,972.19 892.146,952.661 889.167,934.125 C924.253,897.384 948.416,856.009 948.416,803.38 C948.416,773.259 939.148,748.765 933.852,736.849 C925.908,719.968 916.309,708.383 910.351,708.383 C908.034,708.383 897.773,712.355 886.85,725.264 C865.666,750.42 859.708,792.788 859.708,820.592 C859.708,838.466 861.363,854.685 866.99,891.757 C866.659,892.088 849.447,909.631 842.496,915.258 C812.375,943.393 770.669,983.444 770.669,1049.64 C770.669,1111.54 824.622,1160.2 886.188,1160.2 C895.787,1160.2 904.724,1159.21 912.337,1157.88 C918.626,1189.66 922.267,1212.83 922.267,1230.37 C922.267,1264.79 904.724,1283 871.293,1283 C863.349,1283 856.398,1281.34 855.736,1281.34 C855.405,1281.01 854.743,1280.68 854.743,1280.35 C854.743,1279.69 855.405,1279.36 856.398,1279.03 C871.955,1276.71 887.512,1263.47 887.512,1242.29 C887.512,1224.41 873.941,1205.55 849.116,1205.55 C825.946,1205.55 811.051,1224.41 811.051,1246.26"/>
<path class="KeySig" d="M1070.17,1672.04 L1099.63,1666.08 L1099.63,1720.7 L1070.17,1726.99 L1070.17,1672.04 M1121.48,1661.78 C1123.47,1661.45 1125.12,1659.13 1125.12,1657.14 L1125.12,1637.62 C1125.12,1634.97 1123.13,1632.98 1120.49,1632.98 L1119.82,1632.98 L1108.9,1635.3 L1108.9,1585.98 L1099.63,1585.98 L1099.63,1637.28 L1070.17,1643.24 L1070.17,1596.57 L1060.91,1596.57 L1060.91,1645.23 L1048,1647.88 C1046.01,1648.21 1044.36,1650.52 1044.36,1652.51 L1044.36,1671.71 C1044.36,1674.36 1046.34,1676.34 1048.99,1676.34 L1049.98,1676.34 L1060.91,1674.03 L1060.91,1728.64 L1048,1731.29 C1046.01,1731.62 1044.36,1733.94 1044.36,1735.92 L1044.36,1755.12 C1044.36,1757.77 1046.34,1759.75 1048.99,1759.75 L1049.98,1759.75 L1060.91,1757.44 L1060.91,1806.76 L1070.17,1806.76 L1070.17,1755.45 L1099.63,1749.49 L1099.63,1796.16 L1108.9,1796.16 L1108.9,1747.51 L1121.48,1745.19 C1123.47,1744.86 1125.12,1742.54 1125.12,1740.56 L1125.12,1721.03 C1125.12,1718.38 1123.13,1716.39 1120.49,1716.39 L1119.82,1716.39 L1108.9,1718.71 L1108.9,1664.1 L1121.48,1661.78 "/>
<path class="KeySig" d="M1070.17,2540.15 L1099.63,2534.19 L1099.63,2588.81 L1070.17,2595.1 L1070.17,2540.15 M1121.48,2529.89 C1123.47,2529.56 1125.12,2527.24 1125.12,2525.26 L1125.12,2505.73 C1125.12,2503.08 1123.13,2501.09 1120.49,2501.09 L1119.82,2501.09 L1108.9,2503.41 L1108.9,2454.09 L1099.63,2454.09 L1099.63,2505.4 L1070.17,2511.35 L1070.17,2464.68 L1060.91,2464.68 L1060.91,2513.34 L1048,2515.99 C1046.01,2516.32 1044.36,2518.64 1044.36,2520.62 L1044.36,2539.82 C1044.36,2542.47 1046.34,2544.45 1048.99,2544.45 L1049.98,2544.45 L1060.91,2542.14 L1060.91,2596.75 L1048,2599.4 C1046.01,2599.73 1044.36,2602.05 1044.36,2604.03 L1044.36,2623.23 C1044.36,2625.88 1046.34,2627.87 1048.99,2627.87 L1049.98,2627.87 L1060.91,2625.55 L1060.91,2674.87 L1070.17,2674.87 L1070.17,2623.56 L1099.63,2617.6 L1099.63,2664.28 L1108.9,2664.28 L1108.9,2615.62 L1121.48,2613.3 C1123.47,2612.97 1125.12,2610.65 1125.12,2608.67 L1125.12,2589.14 C1125.12,2586.49 1123.13,2584.5 1120.49,2584.5 L1119.82,2584.5 L1108.9,2586.82 L1108.9,2532.21 L1121.48,2529.89 "/>
<path class="KeySig" d="M1070.17,803.93 L1099.63,797.972 L1099.63,852.587 L1070.17,858.876 L1070.17,803.93 M1121.48,793.669 C1123.47,793.338 1125.12,791.021 1125.12,789.035 L1125.12,769.506 C1125.12,766.858 1123.13,764.872 1120.49,764.872 L1119.82,764.872 L1108.9,767.189 L1108.9,717.87 L1099.63,717.87 L1099.63,769.175 L1070.17,775.133 L1070.17,728.462 L1060.91,728.462 L1060.91,777.119 L1048,779.767 C1046.01,780.098 1044.36,782.415 1044.36,784.401 L1044.36,803.599 C1044.36,806.247 1046.34,808.233 1048.99,808.233 L1049.98,808.233 L1060.91,805.916 L1060.91,860.531 L1048,863.179 C1046.01,863.51 1044.36,865.827 1044.36,867.813 L1044.36,887.011 C1044.36,889.659 1046.34,891.645 1048.99,891.645 L1049.98,891.645 L1060.91,889.328 L1060.91,938.647 L1070.17,938.647 L1070.17,887.342 L1099.63,881.384 L1099.63,928.055 L1108.9,928.055 L1108.9,879.398 L1121.48,877.081 C1123.47,876.75 1125.12,874.433 1125.12,872.447 L1125.12,852.918 C1125.12,850.27 1123.13,848.284 1120.49,848.284 L1119.82,848.284 L1108.9,850.601 L1108.9,795.986 L1121.48,793.669 "/>
<path class="TimeSig" d="M1306.19,907.779 C1332.67,897.518 1334.32,880.306 1334.32,874.348 L1334.32,872.693 C1334.32,869.714 1333.33,832.311 1276.4,832.311 C1219.46,832.311 1221.12,872.693 1221.12,872.693 L1221.45,872.693 L1221.12,873.355 C1221.12,885.271 1230.72,894.539 1242.63,894.539 C1254.55,894.539 1263.82,885.271 1263.82,873.355 C1263.82,863.756 1256.54,854.488 1247.27,852.502 L1248.26,851.509 C1252.89,848.199 1259.18,846.544 1265.47,846.544 C1279.37,846.544 1294.27,854.819 1294.27,872.693 C1294.27,893.546 1278.71,896.525 1274.74,897.187 C1270.77,897.849 1252.23,899.173 1248.26,899.173 C1244.29,899.173 1243.96,903.807 1243.96,903.807 L1243.96,910.427 C1243.96,910.427 1244.62,914.068 1248.26,914.399 C1253.89,914.73 1261.5,914.73 1272.09,916.385 C1286.66,918.371 1294.27,928.301 1294.27,951.471 C1294.27,973.648 1279.37,979.606 1265.47,979.606 C1256.2,979.606 1247.6,976.958 1243.96,974.31 C1254.88,973.648 1263.82,964.049 1263.82,953.126 C1263.82,941.21 1254.55,931.611 1242.63,931.611 C1230.72,931.611 1221.12,941.21 1221.12,953.126 C1221.12,980.268 1245.94,993.839 1270.44,993.839 C1302.21,993.839 1336.64,982.916 1336.64,946.837 C1336.64,922.674 1320.09,912.413 1305.52,907.779 L1306.19,907.779 "/>
<path class="TimeSig" d="M1271.95,1118.01 L1271.95,1142.5 L1244.48,1142.5 C1242.16,1142.5 1239.85,1144.49 1239.85,1147.13 L1239.85,1153.42 C1239.85,1156.07 1242.16,1158.06 1244.48,1158.06 L1344.77,1158.06 C1347.42,1158.06 1349.41,1156.07 1349.41,1153.42 L1349.41,1147.13 C1349.41,1144.49 1347.42,1142.5 1344.77,1142.5 L1314.98,1142.5 L1314.98,1118.01 L1344.77,1118.01 C1347.42,1118.01 1349.41,1115.69 1349.41,1113.04 L1349.41,1106.75 C1349.41,1104.44 1347.42,1102.12 1344.77,1102.12 L1314.98,1102.12 L1314.98,1049.49 C1314.98,1047.5 1313.99,1045.85 1312.67,1045.19 L1308.7,1043.2 C1308.03,1042.87 1307.7,1042.87 1307.04,1042.87 C1305.72,1042.87 1304.39,1042.87 1303.4,1043.86 L1273.28,1071.34 C1272.29,1072.33 1271.95,1073.65 1271.95,1074.98 L1271.95,1102.12 L1233.56,1102.12 C1233.56,1102.12 1270.63,1062.4 1309.69,1010.1 C1311.01,1008.45 1311.34,1006.79 1311.34,1005.47 C1311.34,1003.81 1310.68,1002.49 1310.35,1002.16 L1303.07,994.874 C1302.08,994.212 1301.08,993.55 1299.76,993.55 C1297.77,993.55 1253.09,993.55 1250.44,993.55 C1248.12,993.55 1246.47,995.536 1246.14,997.522 C1246.14,997.522 1244.48,1022.02 1235.88,1048.83 C1227.27,1075.64 1217.34,1092.19 1208.73,1104.44 C1208.73,1104.44 1207.74,1106.09 1207.74,1108.08 C1207.74,1108.74 1207.74,1109.4 1208.07,1110.06 C1209.06,1112.38 1211.38,1116.02 1211.38,1116.02 C1211.38,1116.02 1212.04,1118.01 1215.02,1118.01 L1271.95,1118.01 "/>
<path class="Beam" fill-rule="evenodd" d="M6290.3,2502.59 L6609.23,2481.92 L6609.23,2523.35 L6290.3,2544.02 L6290.3,2502.59 "/>
<path class="Beam" fill-rule="evenodd" d="M4519.53,2853.97 L4838.46,2874.64 L4838.46,2916.07 L4519.53,2895.4 L4519.53,2853.97 "/>
<path class="Beam" fill-rule="evenodd" d="M7237.23,1117.71 L7462.5,1138.38 L7462.5,1179.89 L7237.23,1159.22 L7237.23,1117.71 "/>
<path class="Beam" fill-rule="evenodd" d="M6812.42,2915.98 L7131.35,2936.65 L7131.35,2978.07 L6812.42,2957.4 L6812.42,2915.98 "/>
<path class="Beam" fill-rule="evenodd" d="M1331.75,2915.98 L1650.69,2936.65 L1650.69,2978.07 L1331.75,2957.4 L1331.75,2915.98 "/>
<path class="Beam" fill-rule="evenodd" d="M7532.96,2523.26 L7851.9,2543.93 L7851.9,2585.36 L7532.96,2564.69 L7532.96,2523.26 "/>
<path class="Beam" fill-rule="evenodd" d="M2601.25,1985.82 L2824.65,2006.49 L2824.65,2048 L2601.25,2027.33 L2601.25,1985.82 "/>
<path class="Beam" fill-rule="evenodd" d="M3894.31,1634.44 L4117.7,1613.77 L4117.7,1655.28 L3894.31,1675.95 L3894.31,1634.44 "/>
<path class="Beam" fill-rule="evenodd" d="M4225.35,2047.82 L4448.74,2068.49 L4448.74,2110.01 L4225.35,2089.34 L4225.35,2047.82 "/>
<path class="Beam" fill-rule="evenodd" d="M7038.56,1985.82 L7261.95,2006.49 L7261.95,2048 L7038.56,2027.33 L7038.56,1985.82 "/>
<path class="Beam" fill-rule="evenodd" d="M4754.81,1655.11 L4978.2,1675.78 L4978.2,1717.29 L4754.81,1696.62 L4754.81,1655.11 "/>
<path class="NoteDot" d="M4622.18,869.762 C4622.18,879.03 4629.46,886.312 4638.73,886.312 C4648,886.312 4655.28,879.03 4655.28,869.762 C4655.28,860.494 4648,853.212 4638.73,853.212 C4629.46,853.212 4622.18,860.494 4622.18,869.762"/>
<path class="NoteDot" d="M8589.3,1035.12 C8589.3,1044.38 8596.58,1051.67 8605.85,1051.67 C8615.12,1051.67 8622.4,1044.38 8622.4,1035.12 C8622.4,1025.85 8615.12,1018.57 8605.85,1018.57 C8596.58,1018.57 8589.3,1025.85 8589.3,1035.12"/>
<path class="NoteDot" d="M5369.29,1820.55 C5369.29,1829.82 5376.57,1837.1 5385.84,1837.1 C5395.11,1837.1 5402.39,1829.82 5402.39,1820.55 C5402.39,1811.28 5395.11,1804 5385.84,1804 C5376.57,1804 5369.29,1811.28 5369.29,1820.55"/>
<path class="NoteDot" d="M8322.14,2771.34 C8322.14,2780.61 8329.42,2787.89 8338.69,2787.89 C8347.96,2787.89 8355.24,2780.61 8355.24,2771.34 C8355.24,2762.07 8347.96,2754.79 8338.69,2754.79 C8329.42,2754.79 8322.14,2762.07 8322.14,2771.34"/>
</svg>
