<?xml version="1.0" encoding="UTF-8" standalone="no"?>
<svg
   width="681"
   height="119.57176"
   version="1.2"
   id="svg164"
   xmlns="http://www.w3.org/2000/svg"
   xmlns:svg="http://www.w3.org/2000/svg"
   xmlns:rdf="http://www.w3.org/1999/02/22-rdf-syntax-ns#"
   xmlns:cc="http://creativecommons.org/ns#"
   xmlns:dc="http://purl.org/dc/elements/1.1/">
  <defs
     id="defs164" />
  <title
     id="title1">air_XVIII</title>
  <desc
     id="desc1">Generated by MuseScore Studio 4.7.3</desc>
  <path
     id="path164"
     class="NoteDot"
     d="m 516.38426,91.996102 c 0,0.742108 0.5828,1.324906 1.32491,1.324906 0.7421,0 1.3249,-0.582798 1.3249,-1.324906 0,-0.742107 -0.5828,-1.324906 -1.3249,-1.324906 -0.74211,0 -1.32491,0.582799 -1.32491,1.324906 M 177.53978,22.499787 c 0,0.741948 0.58279,1.324906 1.3249,1.324906 0.74131,0 1.32491,-0.582958 1.32491,-1.324906 0,-0.741947 -0.5836,-1.324906 -1.32491,-1.324906 -0.74211,0 -1.3249,0.582959 -1.3249,1.324906 M 471.2542,91.996102 c 0,0.742108 0.5828,1.324906 1.32491,1.324906 0.74211,0 1.3249,-0.582798 1.3249,-1.324906 0,-0.742107 -0.58279,-1.324906 -1.3249,-1.324906 -0.74211,0 -1.32491,0.582799 -1.32491,1.324906 m -19.56377,-76.11508 c 0,0.741947 0.5836,1.324906 1.3249,1.324906 0.74211,0 1.32491,-0.582959 1.32491,-1.324906 0,-0.741947 -0.5828,-1.324906 -1.32491,-1.324906 -0.7413,0 -1.3249,0.582959 -1.3249,1.324906 M 68.071331,91.996102 c 0,0.742108 0.582798,1.324906 1.324906,1.324906 0.742107,0 1.324906,-0.582798 1.324906,-1.324906 0,-0.742107 -0.582799,-1.324906 -1.324906,-1.324906 -0.742108,0 -1.324906,0.582799 -1.324906,1.324906 M 292.22779,105.23315 c 0,0.74211 0.5828,1.32491 1.32491,1.32491 0.74211,0 1.32491,-0.5828 1.32491,-1.32491 0,-0.7413 -0.5828,-1.3249 -1.32491,-1.3249 -0.74211,0 -1.32491,0.5836 -1.32491,1.3249 M 113.20139,85.377176 c 0,0.742108 0.58279,1.324906 1.3249,1.324906 0.74211,0 1.32491,-0.582798 1.32491,-1.324906 0,-0.742107 -0.5828,-1.324905 -1.32491,-1.324905 -0.74211,0 -1.3249,0.582798 -1.3249,1.324905 M 543.209,9.2623363 c 0,0.7419477 0.5828,1.3249057 1.32491,1.3249057 0.7413,0 1.3249,-0.582958 1.3249,-1.3249057 0,-0.7419473 -0.5836,-1.3249057 -1.3249,-1.3249057 -0.74211,0 -1.32491,0.5829584 -1.32491,1.3249057 m 75.87908,95.9708137 c 0,0.74211 0.5828,1.32491 1.32491,1.32491 0.74211,0 1.32491,-0.5828 1.32491,-1.32491 0,-0.7413 -0.5828,-1.3249 -1.32491,-1.3249 -0.74211,0 -1.32491,0.5836 -1.32491,1.3249 M 561.51432,91.996102 c 0,0.742108 0.5828,1.324906 1.3249,1.324906 0.74211,0 1.32491,-0.582798 1.32491,-1.324906 0,-0.742107 -0.5828,-1.324906 -1.32491,-1.324906 -0.7421,0 -1.3249,0.582799 -1.3249,1.324906 m 36.87721,-69.496315 c 0,0.741948 0.5828,1.324906 1.32491,1.324906 0.74211,0 1.3249,-0.582958 1.3249,-1.324906 0,-0.741947 -0.58279,-1.324906 -1.3249,-1.324906 -0.74211,0 -1.32491,0.582959 -1.32491,1.324906 m -483.0735,13.237051 c 0,0.742108 0.5828,1.324906 1.32491,1.324906 0.74211,0 1.3249,-0.582798 1.3249,-1.324906 0,-0.741307 -0.58279,-1.324906 -1.3249,-1.324906 -0.74211,0 -1.32491,0.583599 -1.32491,1.324906 m 352.30409,-4.966596 -7.28018,0.432296 v 3.315867 l 7.28018,-0.433096 v -3.315067 m -27.84624,6.618926 27.84624,-1.654731 v 3.315066 l -27.84624,1.654732 v -3.315067 m 119.36482,-4.964194 -7.28098,-0.433096 v 3.315867 l 7.28098,0.432295 v -3.315066 m -27.84705,3.309463 27.84705,1.654731 v 3.315067 l -27.84705,-1.654732 v -3.315066 m -176.03796,4.961792 22.10631,1.654732 v 3.319069 l -22.10631,-1.654731 v -3.31907 M 587.77948,82.065312 580.4993,81.66744 v 3.314266 l 7.28018,0.397872 V 82.065312 M 557.542,75.44719 l 30.23748,1.654731 v 3.314263 L 557.542,78.761456 V 75.44719 M 245.25328,5.9524734 310.24892,7.6071248 V 10.917548 L 245.25328,9.2628967 V 5.9524734 m -113.72897,94.3148866 -7.28017,0.39787 v 3.31427 l 7.28017,-0.39788 v -3.31426 m -30.23747,6.61812 30.23747,-1.65473 v 3.31427 l -30.23747,1.65473 v -3.31427 m -14.892584,0 -7.280175,0.39868 v 3.31426 l 7.280175,-0.39867 v -3.31427 m -30.237472,6.61893 30.237472,-1.65473 v 3.31426 l -30.237472,1.65473 v -3.31426 m 262.336166,-28.129635 -7.28018,0.398672 v 3.314266 l 7.28018,-0.398672 v -3.314266 m -30.23747,-3.309463 30.23747,-1.654731 v 3.314266 l -30.23747,1.654731 v -3.314266 m 80.12598,3.309463 16.21589,0.844577 v 3.314266 l -16.21589,-0.844577 v -3.314266 m 0,-4.963394 31.77053,1.654731 v 3.313466 l -31.77053,-1.654731 v -3.313466 m 166.32573,26.474099 -7.28018,0.39868 v 3.31426 l 7.28018,-0.39867 v -3.31427 m -30.23748,6.61893 30.23748,-1.65473 v 3.31426 l -30.23748,1.65473 v -3.31426 m -23.21267,-81.079436 14.95823,-0.846179 v 3.315067 l -14.95823,0.846178 v -3.315066 m 0,4.964194 29.2544,-1.654731 v 3.315066 l -29.2544,1.653931 v -3.314266 m -299.84422,56.252859 16.21589,1.689155 v 3.327075 l -16.21589,-1.689155 v -3.327075 m 0,4.964195 31.76973,3.308658 v 3.32788 l -31.76973,-3.30946 v -3.327078 m 308.16431,8.279258 -7.28018,0.39868 v 3.31426 l 7.28018,-0.39867 v -3.31427 m -30.23747,6.61893 30.23747,-1.65473 v 3.31426 l -30.23747,1.65473 v -3.31426 M 54.840684,21.065927 c -0.662853,0.42397 -1.139979,1.192415 -1.139979,2.040355 0,0.105993 0,0.211985 0.02642,0.317977 0.132891,1.086503 1.007089,1.934283 2.093431,2.067174 h 0.2914 c 1.324906,0 2.38483,-1.059925 2.38483,-2.385151 v -0.158989 c 0,-0.105992 -0.02642,-0.291479 -0.05284,-0.397471 -0.238563,-1.139419 -1.27207,-3.577246 -5.77675,-3.577246 -5.775949,0 -6.438802,4.796079 -6.438802,6.518857 0,3.153356 0.397872,7.100855 7.022401,7.100855 2.623394,0 4.663189,-1.53625 4.769662,-4.371789 0,-0.132891 -0.08006,-0.212145 -0.212146,-0.212145 h -0.344235 c -0.106473,0 -0.212145,0.106473 -0.212145,0.212145 -0.106473,2.199104 -1.669942,3.524009 -4.001136,3.524009 -2.305576,0 -3.418337,-1.244851 -3.418337,-3.576845 v -5.061381 c 0,-1.483895 0.582799,-3.179774 2.941211,-3.179774 1.245652,0 1.802032,0.450468 2.093431,0.900936 0.02642,0.053 0.02642,0.07949 0.02642,0.13249 0,0.0265 0,0.07949 -0.05284,0.105993 m -17.108498,-6.24483 c 0,2.093351 -1.086342,3.206272 -2.623393,4.425186 l 0.07925,-5.167133 c 0.05284,-0.238483 0.450708,-1.006929 1.510633,-1.006929 0.953452,0 1.033506,0.900936 1.033506,1.457397 v 0.291479 m -0.318617,-3.047283 c -1.324906,0 -2.092631,0.821441 -2.225522,0.98043 l 0.105672,-8.5058958 c 0,-0.2119849 -0.158508,-0.3709736 -0.370653,-0.3709736 H 34.60524 c -0.212145,0 -0.371454,0.1589887 -0.371454,0.3709736 l 0.132891,15.9253688 c 0,0.211985 0.159309,0.370974 0.370654,0.370974 0.05364,0 0.159309,-0.0265 0.212145,-0.053 2.279158,-1.139419 4.663989,-3.312264 4.663989,-6.041571 0,-1.377902 -0.636435,-2.676309 -2.199904,-2.676309 m -7.041615,12.975511 c 0,2.093432 -1.086343,3.206193 -2.623394,4.425426 l 0.07925,-5.167533 c 0.05284,-0.238563 0.450709,-1.006928 1.510633,-1.006928 0.954253,0 1.033507,0.901256 1.033507,1.457636 v 0.291399 m -0.317817,-3.047443 c -1.324906,0 -2.093432,0.821441 -2.226323,0.98043 l 0.106473,-8.505896 c 0,-0.211985 -0.159309,-0.370973 -0.371454,-0.370973 h -0.317817 c -0.212145,0 -0.370654,0.158988 -0.370654,0.370973 l 0.132091,15.925369 c 0,0.212145 0.159309,0.370654 0.371454,0.370654 0.05284,0 0.158508,-0.02642 0.211344,-0.05284 2.279159,-1.139179 4.663989,-3.311865 4.663989,-6.041731 0,-1.377582 -0.635634,-2.67599 -2.199103,-2.67599 m 7.678049,62.61537 c 0,2.093431 -1.086342,3.206192 -2.623393,4.425426 l 0.07925,-5.167534 c 0.05284,-0.237762 0.450708,-1.006288 1.510633,-1.006288 0.953452,0 1.033506,0.900616 1.033506,1.456996 v 0.2914 m -0.318617,-3.046884 c -1.324906,0 -2.092631,0.821362 -2.225522,0.97987 l 0.105672,-8.505812 c 0,-0.211345 -0.158508,-0.370654 -0.370653,-0.370654 h -0.317818 c -0.212145,0 -0.371454,0.159309 -0.371454,0.370654 l 0.132891,15.925285 c 0,0.212145 0.159309,0.371454 0.370654,0.371454 0.05364,0 0.159309,-0.02642 0.212145,-0.05284 2.279158,-1.139979 4.663989,-3.312665 4.663989,-6.041731 0,-1.377742 -0.636435,-2.67623 -2.199904,-2.67623 M 30.371954,94.24564 c 0,2.093432 -1.086343,3.206192 -2.623394,4.425426 l 0.07925,-5.167533 c 0.05284,-0.238563 0.450709,-1.007089 1.510633,-1.007089 0.954253,0 1.033507,0.901417 1.033507,1.457797 v 0.291399 m -0.317817,-3.047684 c -1.324906,0 -2.093432,0.821362 -2.226323,0.980671 l 0.106473,-8.505816 c 0,-0.212145 -0.159309,-0.370653 -0.371454,-0.370653 h -0.317817 c -0.212145,0 -0.370654,0.158508 -0.370654,0.370653 L 27.006453,99.5981 c 0,0.212145 0.159309,0.370653 0.371454,0.370653 0.05284,0 0.158508,-0.02642 0.211344,-0.05284 2.279159,-1.139179 4.663989,-3.311864 4.663989,-6.041731 0,-1.377742 -0.635634,-2.67623 -2.199103,-2.67623 M 16.093311,37.886308 c -0.529962,0.106473 -1.033427,0.159309 -1.536891,0.159309 -3.789231,0 -7.0220012,-2.649812 -7.0220012,-6.650948 0,-3.233411 2.2788382,-6.120985 4.6106722,-8.135242 0.450468,-0.397472 0.874438,-0.768446 1.27191,-1.165917 0.238483,1.430898 0.42397,2.67663 0.609457,3.762973 -2.411329,0.714888 -4.0542123,3.259028 -4.0542123,5.749531 0,1.854868 1.4573963,4.399008 3.5772463,4.399008 0.211985,0 0.450468,-0.105673 0.450468,-0.344236 0,-0.238563 -0.264982,-0.371454 -0.582959,-0.582798 -1.033427,-0.636435 -1.616385,-1.324906 -1.616385,-2.623394 0,-1.616305 1.192415,-2.914793 2.755804,-3.286247 l 1.536891,8.717961 M 13.761477,10.646323 c 0.238483,-1.0599251 1.457396,-3.8422273 2.835298,-3.8422273 0.397472,0 1.033427,1.2984076 1.033427,3.1267777 0,2.7558046 -2.040355,4.8226576 -3.868725,6.6245296 -0.158989,-1.059925 -0.29148,-2.093351 -0.29148,-3.206272 0,-0.980431 0.0795,-1.881367 0.29148,-2.702808 m 6.094567,22.338233 c 0,1.881287 -0.768446,3.815409 -2.649812,4.583935 -0.556461,-3.179775 -1.27191,-7.393055 -1.457397,-8.558652 2.384831,0 4.107209,1.616305 4.107209,3.974717 M 8.1968718,46.02147 c 0,1.748396 1.351404,4.053972 4.9286502,4.053972 1.245411,0 2.331834,-0.317817 3.285766,-0.900616 1.430899,-1.007088 1.801872,-2.756284 1.801872,-4.425426 0,-1.033506 -0.158988,-2.225521 -0.423969,-3.736154 -0.07949,-0.529962 -0.238484,-1.324906 -0.397472,-2.358413 2.596815,-0.847779 4.531178,-3.550427 4.531178,-6.280294 0,-4.001136 -2.835299,-6.703783 -6.704024,-6.703783 -0.264981,-1.589888 -0.529962,-3.153277 -0.768445,-4.637171 2.8088,-2.941291 4.743163,-6.253556 4.743163,-10.466757 0,-2.4113285 -0.741948,-4.372189 -1.165917,-5.3261212 -0.635955,-1.3514041 -1.404401,-2.2788382 -1.881367,-2.2788382 -0.185487,0 -1.006928,0.3179774 -1.881366,1.351404 -1.69588,2.013857 -2.172846,5.4056159 -2.172846,7.6314574 0,1.430899 0.132491,2.729307 0.582959,5.697096 -0.0265,0.0265 -1.404401,1.430898 -1.960861,1.881366 -2.4113287,2.25234 -5.7500916,5.458292 -5.7500916,10.757916 0,4.955388 4.3191932,8.850852 9.2478436,8.850852 0.768445,0 1.483894,-0.07925 2.093351,-0.185727 0.503464,2.544139 0.794943,4.399007 0.794943,5.803167 0,2.755485 -1.4044,4.213281 -4.08071,4.213281 -0.635955,0 -1.192415,-0.132891 -1.245411,-0.132891 -0.0265,-0.02642 -0.07949,-0.05284 -0.07949,-0.07925 0,-0.05284 0.053,-0.07925 0.132491,-0.105672 1.245412,-0.185727 2.490823,-1.245652 2.490823,-2.941211 0,-1.431379 -1.086423,-2.941211 -3.073782,-2.941211 -1.8548679,0 -3.0472832,1.509832 -3.0472832,3.259028 m 7.8964392,61.361146 c -0.529962,0.10648 -1.033427,0.15931 -1.536891,0.15931 -3.789231,0 -7.0220012,-2.64981 -7.0220012,-6.65095 0,-3.233403 2.2788382,-6.120977 4.6106722,-8.135154 0.450468,-0.397872 0.874438,-0.768526 1.27191,-1.165597 0.238483,1.430578 0.42397,2.676229 0.609457,3.762572 -2.411329,0.714889 -4.0542123,3.259029 -4.0542123,5.749529 0,1.85487 1.4573963,4.39901 3.5772463,4.39901 0.211985,0 0.450468,-0.10568 0.450468,-0.34424 0,-0.23856 -0.264982,-0.37145 -0.582959,-0.5828 -1.033427,-0.63643 -1.616385,-1.3249 -1.616385,-2.62339 0,-1.61631 1.192415,-2.91479 2.755804,-3.286244 l 1.536891,8.717954 M 13.761477,80.142397 c 0.238483,-1.059921 1.457396,-3.841823 2.835298,-3.841823 0.397472,0 1.033427,1.298487 1.033427,3.126938 0,2.75548 -2.040355,4.822494 -3.868725,6.624526 -0.158989,-1.059925 -0.29148,-2.093432 -0.29148,-3.206192 0,-0.980671 0.0795,-1.882087 0.29148,-2.703449 m 6.094567,22.338473 c 0,1.88129 -0.768446,3.81541 -2.649812,4.58394 -0.556461,-3.17978 -1.27191,-7.39306 -1.457397,-8.558657 2.384831,0 4.107209,1.616307 4.107209,3.974717 M 8.1968718,115.51778 c 0,1.7484 1.351404,4.05398 4.9286502,4.05398 1.245411,0 2.331834,-0.31782 3.285766,-0.90062 1.430899,-1.00709 1.801872,-2.75628 1.801872,-4.42542 0,-1.03351 -0.158988,-2.22553 -0.423969,-3.73616 -0.07949,-0.52996 -0.238484,-1.32491 -0.397472,-2.35841 2.596815,-0.84778 4.531178,-3.55043 4.531178,-6.2803 0,-4.001132 -2.835299,-6.70378 -6.704024,-6.70378 -0.264981,-1.589887 -0.529962,-3.153356 -0.768445,-4.63677 2.8088,-2.942012 4.743163,-6.253876 4.743163,-10.467157 0,-2.411246 -0.741948,-4.371786 -1.165917,-5.326038 -0.635955,-1.351324 -1.404401,-2.279159 -1.881367,-2.279159 -0.185487,0 -1.006928,0.318618 -1.881366,1.351324 -1.69588,2.014177 -2.172846,5.406097 -2.172846,7.631615 0,1.431379 0.132491,2.729867 0.582959,5.697496 -0.0265,0.02642 -1.404401,1.430578 -1.960861,1.881286 -2.4113287,2.25194 -5.7500916,5.458132 -5.7500916,10.757756 0,4.955387 4.3191932,8.850847 9.2478436,8.850847 0.768445,0 1.483894,-0.0793 2.093351,-0.18572 0.503464,2.54414 0.794943,4.39901 0.794943,5.80317 0,2.75548 -1.4044,4.21328 -4.08071,4.21328 -0.635955,0 -1.192415,-0.13289 -1.245411,-0.13289 -0.0265,-0.0264 -0.07949,-0.0528 -0.07949,-0.0793 0,-0.0528 0.053,-0.0793 0.132491,-0.10567 1.245412,-0.18573 2.490823,-1.24565 2.490823,-2.94121 0,-1.43138 -1.086423,-2.94121 -3.073782,-2.94121 -1.8548679,0 -3.0472832,1.50983 -3.0472832,3.25902 M 56.156784,96.418326 c 0,1.139179 0.821362,2.411248 2.967629,2.411248 2.755484,0 5.643859,-2.251939 5.643859,-4.583934 0,-1.563469 -1.324906,-2.437667 -2.967629,-2.437667 -2.570557,0 -5.643859,2.172686 -5.643859,4.610353 m 368.186146,3.309463 c 0,1.139181 0.82136,2.411251 2.96763,2.411251 2.75628,0 5.64466,-2.252743 5.64466,-4.583937 0,-1.563469 -1.32491,-2.438467 -2.96843,-2.438467 -2.56976,0 -5.64386,2.173486 -5.64386,4.611153 m 80.12678,-3.309463 c 0,1.139179 0.82137,2.411248 2.96763,2.411248 2.75549,0 5.64386,-2.251939 5.64386,-4.583934 0,-1.563469 -1.3249,-2.437667 -2.96763,-2.437667 -2.57055,0 -5.64386,2.172686 -5.64386,4.610353 m -45.13005,0 c 0,1.139179 0.82136,2.411248 2.96763,2.411248 2.75548,0 5.64385,-2.251939 5.64385,-4.583934 0,-1.563469 -1.3249,-2.437667 -2.96762,-2.437667 -2.57056,0 -5.64386,2.172686 -5.64386,4.610353 m 7.62121,-82.733686 c 0,1.139419 0.82136,2.411329 2.96763,2.411329 2.75548,0 5.64386,-2.25234 5.64386,-4.584175 0,-1.5633886 -1.32491,-2.4378265 -2.96763,-2.4378265 -2.57056,0 -5.64386,2.1728455 -5.64386,4.6106725 m -75.41317,95.97074 c 0,1.13998 0.82137,2.41205 2.96763,2.41205 2.75549,0 5.64386,-2.25274 5.64386,-4.58474 0,-1.56347 -1.3249,-2.43767 -2.96763,-2.43767 -2.57055,0 -5.64386,2.17269 -5.64386,4.61036 m 89.70934,-92.661437 c 0,1.139419 0.82136,2.411329 2.96763,2.411329 2.75549,0 5.64386,-2.252341 5.64386,-4.584175 0,-1.563389 -1.32491,-2.437827 -2.96763,-2.437827 -2.57056,0 -5.64386,2.172846 -5.64386,4.610673 M 375.99307,106.34671 c 0,1.13918 0.82136,2.41125 2.96843,2.41125 2.75548,0 5.64386,-2.25274 5.64386,-4.58473 0,-1.56267 -1.32491,-2.43767 -2.96763,-2.43767 -2.57056,0 -5.64466,2.17269 -5.64466,4.61115 M 165.62443,26.922011 c 0,1.139179 0.82136,2.411249 2.96843,2.411249 2.75548,0 5.64386,-2.25194 5.64386,-4.583935 0,-1.563549 -1.32491,-2.437986 -2.96763,-2.437986 -2.57056,0 -5.64466,2.173005 -5.64466,4.610672 M 280.19957,36.8504 c 0,1.139178 0.82136,2.411248 2.96763,2.411248 2.75628,0 5.64466,-2.25274 5.64466,-4.584735 0,-1.563469 -1.32491,-2.437666 -2.96763,-2.437666 -2.57056,0 -5.64466,2.172685 -5.64466,4.611153 m 80.23966,66.18685 c 0,1.13918 0.82137,2.41125 2.96763,2.41125 2.75629,0 5.64466,-2.25274 5.64466,-4.58393 0,-1.563473 -1.3249,-2.438471 -2.96763,-2.438471 -2.57055,0 -5.64466,2.173481 -5.64466,4.611151 M 495.55322,13.68464 c 0,1.139419 0.82136,2.411329 2.96763,2.411329 2.75628,0 5.64386,-2.25234 5.64386,-4.584175 0,-1.5633886 -1.32491,-2.4378265 -2.96763,-2.4378265 -2.56976,0 -5.64386,2.1728455 -5.64386,4.6106725 m -170.10991,89.35261 c 0,1.13918 0.82136,2.41125 2.96762,2.41125 2.75549,0 5.64386,-2.25274 5.64386,-4.58393 0,-1.563473 -1.3249,-2.438471 -2.96763,-2.438471 -2.57055,0 -5.64385,2.173481 -5.64385,4.611151 M 509.84939,10.375257 c 0,1.139419 0.82136,2.411329 2.96763,2.411329 2.75629,0 5.64466,-2.25234 5.64466,-4.5841744 0,-1.5633887 -1.32491,-2.4378266 -2.96843,-2.4378266 -2.56976,0 -5.64386,2.1728456 -5.64386,4.610672 M 309.88867,106.34671 c 0,1.13918 0.82216,2.41125 2.96843,2.41125 2.75548,0 5.64386,-2.25274 5.64386,-4.58473 0,-1.56267 -1.32491,-2.43767 -2.96763,-2.43767 -2.57056,0 -5.64466,2.17269 -5.64466,4.61115 M 531.29365,13.68464 c 0,1.139419 0.82217,2.411329 2.96843,2.411329 2.75549,0 5.64386,-2.25234 5.64386,-4.584175 0,-1.5633886 -1.3249,-2.4378265 -2.96763,-2.4378265 -2.57055,0 -5.64466,2.1728455 -5.64466,4.6106725 m 2.75149,79.424223 c 0,1.139179 0.82136,2.411249 2.96843,2.411249 2.75548,0 5.64385,-2.25194 5.64385,-4.583935 0,-1.563469 -1.3249,-2.437666 -2.96762,-2.437666 -2.57056,0 -5.64466,2.172685 -5.64466,4.610352 M 376.69995,26.922011 c 0,1.139179 0.82136,2.411249 2.96763,2.411249 2.75629,0 5.64466,-2.25194 5.64466,-4.583935 0,-1.563549 -1.32491,-2.437986 -2.96843,-2.437986 -2.56976,0 -5.64386,2.173005 -5.64386,4.610672 m -96.3867,82.733369 c 0,1.13998 0.82136,2.41205 2.96763,2.41205 2.75548,0 5.64386,-2.25274 5.64386,-4.58474 0,-1.56347 -1.32491,-2.43767 -2.96763,-2.43767 -2.57056,0 -5.64386,2.17269 -5.64386,4.61036 M 549.59977,96.418326 c 0,1.139179 0.82136,2.411248 2.96763,2.411248 2.75548,0 5.64386,-2.251939 5.64386,-4.583934 0,-1.563469 -1.32491,-2.437667 -2.96763,-2.437667 -2.57056,0 -5.64386,2.172686 -5.64386,4.610353 M 245.31652,86.489937 c 0,1.13998 0.82136,2.41205 2.96763,2.41205 2.75628,0 5.64466,-2.252741 5.64466,-4.584735 0,-1.563469 -1.32491,-2.437667 -2.96843,-2.437667 -2.56976,0 -5.64386,2.172686 -5.64386,4.610352 m 333.85867,16.547313 c 0,1.13918 0.82137,2.41125 2.96763,2.41125 2.75629,0 5.64466,-2.25274 5.64466,-4.58393 0,-1.563473 -1.3249,-2.438471 -2.96763,-2.438471 -2.57055,0 -5.64466,2.173481 -5.64466,4.611151 M 144.18017,33.540937 c 0,1.139179 0.82136,2.411248 2.96763,2.411248 2.75628,0 5.64466,-2.25274 5.64466,-4.583934 0,-1.563469 -1.32491,-2.438467 -2.96843,-2.438467 -2.56976,0 -5.64386,2.173486 -5.64386,4.611153 M 558.47864,16.993943 c 0,1.139419 0.82136,2.411329 2.96763,2.411329 2.75549,0 5.64386,-2.252341 5.64386,-4.584175 0,-1.563389 -1.32491,-2.437827 -2.96763,-2.437827 -2.57056,0 -5.64386,2.172846 -5.64386,4.610673 M 212.52049,86.489937 c 0,1.13998 0.82217,2.41205 2.96843,2.41205 2.75549,0 5.64386,-2.252741 5.64386,-4.584735 0,-1.563469 -1.3249,-2.437667 -2.96763,-2.437667 -2.57055,0 -5.64466,2.172686 -5.64466,4.610352 m 46.23482,-52.949 c 0,1.139179 0.82136,2.411248 2.96763,2.411248 2.75628,0 5.64386,-2.25274 5.64386,-4.583934 0,-1.563469 -1.32491,-2.438467 -2.96763,-2.438467 -2.56976,0 -5.64386,2.173486 -5.64386,4.611153 m -61.78865,49.640338 c 0,1.139179 0.82136,2.411249 2.96843,2.411249 2.75548,0 5.64386,-2.252741 5.64386,-4.584735 0,-1.562665 -1.32491,-2.437664 -2.96763,-2.437664 -2.57056,0 -5.64466,2.172683 -5.64466,4.61115 M 588.46394,24.778946 c -0.87419,0 -1.05992,-0.71569 -1.05992,-0.954253 0,-1.298408 4.45184,-3.577246 5.6975,-3.577246 0.63563,0 1.05992,0.370974 1.05992,0.953933 0,1.324905 -4.47826,3.577566 -5.6975,3.577566 m 3.65691,-5.77691 c -2.57056,0 -5.64386,2.146347 -5.64386,4.610512 0,1.139179 0.82136,2.411249 2.96763,2.411249 2.75548,0 5.64385,-2.25194 5.64385,-4.583934 0,-1.563389 -1.3249,-2.437827 -2.96762,-2.437827 M 103.40349,40.159062 c 0,1.139979 0.82136,2.412049 2.96762,2.412049 2.75549,0 5.64386,-2.25274 5.64386,-4.584735 0,-1.563469 -1.3249,-2.437666 -2.96763,-2.437666 -2.57055,0 -5.64385,2.172685 -5.64385,4.610352 m 78.00933,39.712753 c 0,1.139176 0.82137,2.411246 2.96763,2.411246 2.75629,0 5.64466,-2.252737 5.64466,-4.583931 0,-1.563469 -1.3249,-2.438468 -2.96843,-2.438468 -2.56975,0 -5.64386,2.173487 -5.64386,4.611153 M 355.25569,16.993943 c 0,1.139419 0.82136,2.411329 2.96763,2.411329 2.75548,0 5.64386,-2.252341 5.64386,-4.584175 0,-1.563389 -1.32491,-2.437827 -2.96763,-2.437827 -2.57056,0 -5.64386,2.172846 -5.64386,4.610673 M 146.4169,79.871815 c 0,1.139176 0.82136,2.411246 2.96763,2.411246 2.75548,0 5.64385,-2.252737 5.64385,-4.583931 0,-1.563469 -1.3249,-2.438468 -2.96762,-2.438468 -2.57056,0 -5.64386,2.173487 -5.64386,4.611153 M 647.64201,16.993943 c 0,1.139419 0.82136,2.411329 2.96763,2.411329 2.75628,0 5.64466,-2.252341 5.64466,-4.584175 0,-1.563389 -1.32491,-2.437827 -2.96843,-2.437827 -2.56976,0 -5.64386,2.172846 -5.64386,4.610673 M 130.86226,83.181275 c 0,1.139179 0.82136,2.411249 2.96843,2.411249 2.75548,0 5.64386,-2.252741 5.64386,-4.584735 0,-1.562665 -1.32491,-2.437664 -2.96763,-2.437664 -2.57056,0 -5.64466,2.172683 -5.64466,4.61115 M 609.1613,107.51231 c -0.875,0 -1.05993,-0.71569 -1.05993,-0.95425 0,-1.29769 4.45105,-3.57685 5.6967,-3.57685 0.63563,0 1.05992,0.37066 1.05992,0.95426 0,1.3249 -4.47826,3.57684 -5.69669,3.57684 m 3.6561,-5.77675 c -2.56976,0 -5.64386,2.14627 -5.64386,4.61115 0,1.13918 0.82136,2.41125 2.96763,2.41125 2.75628,0 5.64466,-2.25274 5.64466,-4.58473 0,-1.56267 -1.32491,-2.43767 -2.96843,-2.43767 M 323.0889,40.159062 c 0,1.139979 0.82136,2.412049 2.96762,2.412049 2.75549,0 5.64386,-2.25274 5.64386,-4.584735 0,-1.563469 -1.3249,-2.437666 -2.96763,-2.437666 -2.57055,0 -5.64385,2.172685 -5.64385,4.610352 m -251.363871,0 c 0,1.139979 0.821362,2.412049 2.96843,2.412049 2.755484,0 5.643855,-2.25274 5.643855,-4.584735 0,-1.563469 -1.324902,-2.437666 -2.967625,-2.437666 -2.570558,0 -5.64466,2.172685 -5.64466,4.610352 m 29.561811,46.330875 c 0,1.13998 0.82136,2.41205 2.96763,2.41205 2.75548,0 5.64386,-2.252741 5.64386,-4.584735 0,-1.563469 -1.32491,-2.437667 -2.96763,-2.437667 -2.57056,0 -5.64386,2.172686 -5.64386,4.610352 m 136.0242,-59.567926 c 0,1.139179 0.82137,2.411249 2.96763,2.411249 2.75549,0 5.64386,-2.25194 5.64386,-4.583935 0,-1.563549 -1.3249,-2.437986 -2.96763,-2.437986 -2.57055,0 -5.64386,2.173005 -5.64386,4.610672 M 85.732203,93.108863 c 0,1.139179 0.822162,2.411249 2.96843,2.411249 2.755484,0 5.643859,-2.25194 5.643859,-4.583935 0,-1.563469 -1.324906,-2.437666 -2.967629,-2.437666 -2.570558,0 -5.64466,2.172685 -5.64466,4.610352 M 206.40191,23.612548 c 0,1.139179 0.82136,2.411249 2.96763,2.411249 2.75548,0 5.64386,-2.25194 5.64386,-4.583934 0,-1.563389 -1.32491,-2.437827 -2.96763,-2.437827 -2.57056,0 -5.64386,2.172845 -5.64386,4.610512 m 95.24272,9.928389 c 0,1.139179 0.82136,2.411248 2.96763,2.411248 2.75549,0 5.64386,-2.25274 5.64386,-4.583934 0,-1.563469 -1.32491,-2.438467 -2.96763,-2.438467 -2.57056,0 -5.64386,2.173486 -5.64386,4.611153 m 187.27045,59.567926 c 0,1.139179 0.82216,2.411249 2.96843,2.411249 2.75548,0 5.64386,-2.25194 5.64386,-4.583935 0,-1.563469 -1.32491,-2.437666 -2.96763,-2.437666 -2.57056,0 -5.64466,2.172685 -5.64466,4.610352 M 407.60909,23.612548 c 0,1.139179 0.82136,2.411249 2.96762,2.411249 2.75629,0 5.64466,-2.25194 5.64466,-4.583934 0,-1.563389 -1.3249,-2.437827 -2.96843,-2.437827 -2.56975,0 -5.64385,2.172845 -5.64385,4.610512 m 32.16679,-6.618605 c 0,1.139419 0.82136,2.411329 2.96763,2.411329 2.75628,0 5.64466,-2.252341 5.64466,-4.584175 0,-1.563389 -1.32491,-2.437827 -2.96843,-2.437827 -2.56976,0 -5.64386,2.172846 -5.64386,4.610673 M 206.40191,43.984077 c 0,0.185727 0.15851,0.344236 0.34424,0.344236 0.13209,0 0.2914,-0.105673 0.31781,-0.212145 0,-0.02642 0.23857,-0.953452 0.26498,-1.032707 0.0264,-0.106472 0.26499,-1.113561 1.21924,-2.67703 1.0335,-1.721977 2.62339,-2.967629 3.9483,-4.822497 1.29769,-1.854869 2.09263,-3.603264 2.09263,-5.935259 0,-2.411248 -0.55638,-4.425425 -1.96054,-6.995663 -0.0793,-0.185487 -0.23856,-0.291479 -0.39707,-0.291479 -0.0536,0 -0.10648,0 -0.13289,0.0265 -0.13209,0.053 -0.18573,0.158989 -0.18573,0.317977 0,0.07949 0.0264,0.211985 0.08,0.317978 1.05993,2.464245 1.48342,3.868405 1.48342,5.77691 0,2.199103 -0.76853,3.338282 -1.24485,4.159644 -1.72278,2.941211 -4.50468,4.37259 -5.61824,4.743243 -0.18493,0.08006 -0.21135,0.212145 -0.21135,0.291399 v 5.988895 M 152.1224,15.277409 c 0,0.07949 0.0264,0.211985 0.21214,0.291479 1.13918,0.370974 3.41834,1.801872 5.14112,4.743164 0.47632,0.821441 1.24485,1.96086 1.24485,4.160284 0,1.907704 -0.50355,3.869046 -1.19202,5.77675 -0.0528,0.158508 -0.10647,0.291399 -0.08,0.397071 0,0.159309 0.10647,0.264982 0.26498,0.264982 0.18573,0 0.31862,-0.105673 0.42429,-0.2914 1.19282,-2.119849 1.64272,-4.583934 1.64272,-6.995183 -0.13209,-3.418497 -2.09343,-5.935818 -2.09343,-5.935818 0.0801,0 -2.43766,-3.259269 -3.15335,-4.37219 -0.97987,-1.510392 -1.43058,-3.020785 -1.48342,-3.126778 -0.0264,-0.07949 -0.26498,-1.0334262 -0.26498,-1.0334262 -0.0264,-0.1059924 -0.15931,-0.2119849 -0.31782,-0.2119849 -0.18572,0 -0.34503,0.1589887 -0.34503,0.3444755 v 5.9885746 m -72.45434,6.618686 c 0,0.07949 0.02642,0.211985 0.211345,0.291479 1.139976,0.370974 3.418334,1.802032 5.141112,4.743243 0.477126,0.821362 1.244851,1.960541 1.244851,4.160445 0,1.907704 -0.502744,3.868245 -1.192015,5.775949 -0.05284,0.159309 -0.105673,0.2922 -0.07926,0.397872 0,0.159309 0.105673,0.264981 0.264982,0.264981 0.184926,0 0.317817,-0.105672 0.423489,-0.291399 1.192816,-2.119849 1.642723,-4.583934 1.642723,-6.995983 -0.13209,-3.417537 -2.09263,-5.935259 -2.09263,-5.935259 0.07925,0 -2.438468,-3.259268 -3.153356,-4.372189 -0.980671,-1.510393 -1.431379,-3.020786 -1.484215,-3.126778 -0.02642,-0.07949 -0.264981,-1.033427 -0.264981,-1.033427 -0.02642,-0.105992 -0.159309,-0.211985 -0.317815,-0.211985 -0.185727,0 -0.344235,0.158989 -0.344235,0.344476 v 5.988575 M 309.58652,9.2538801 V 31.369004 h 0.66201 V 9.2538801 Z M 85.732675,93.108086 v 20.417084 h 0.662021 V 93.108086 Z M 245.25284,7.6160421 V 24.750102 h 0.66202 V 7.6160421 Z M 101.28644,86.489185 v 22.035855 h 0.66201 V 86.489185 Z m 29.57616,-3.309447 v 23.726532 h 0.66217 V 83.179738 Z m 15.55391,-3.308667 v 22.053359 h 0.66202 V 79.871071 Z M 647.64157,16.992922 v 22.053363 h 0.66202 V 16.992922 Z M 181.41326,79.871071 v 20.433179 h 0.66201 V 79.871071 Z m 15.55376,3.308667 v 18.744692 h 0.66216 V 83.179738 Z M 586.47663,23.61182 v 20.398635 h 0.66201 V 23.61182 Z M 266.69798,8.16204 v 23.206964 h 0.66201 V 8.16204 Z m -54.17705,78.327145 v 17.054785 h 0.66202 V 86.489185 Z m -46.89612,-59.56791 v 18.743912 h 0.66201 V 26.921275 Z m 392.85345,-9.928353 v 22.034126 h 0.66202 V 16.992922 Z M 245.31617,86.489185 v 22.053355 h 0.66202 V 86.489185 Z m 42.93889,-2.7844 v 23.778755 h 0.66201 V 83.704785 Z m 29.57631,-1.618611 v 22.088696 h 0.66202 V 82.086174 Z M 531.29405,13.683628 v 23.727939 h 0.66202 V 13.683628 Z M 333.38514,78.759063 v 22.106357 h 0.66201 V 78.759063 Z M 509.84986,10.374334 v 27.036457 h 0.66201 V 10.374334 Z M 368.38188,82.085398 v 18.780022 h 0.66201 V 82.085398 Z m 127.17101,-68.40177 v 24.535684 h 0.66202 V 13.683628 Z M 383.93564,82.89548 v 21.27939 h 0.66217 V 82.89548 Z m 15.55391,0.810081 v 23.777979 h 0.66202 V 83.705561 Z m 81.76716,-66.712639 v 22.03491 h 0.66202 V 16.992922 Z M 152.12276,9.3153285 V 31.369004 h 0.66202 V 9.3153285 Z m 314.83777,4.3682995 v 23.727939 h 0.66201 V 13.683628 Z m -34.67496,63.420711 v 20.451637 h 0.66202 V 77.104339 Z m 27.05365,19.313202 v 18.725609 h 0.66202 V 96.417541 Z m 29.57632,-3.309455 v 20.417084 h 0.66202 V 93.108086 Z m -49.14,-76.115164 v 22.034126 h 0.66201 V 16.992922 Z m 64.69376,79.424619 v 18.725609 h 0.66202 V 96.417541 Z M 407.60948,23.61182 v 20.398635 h 0.66202 V 23.61182 Z M 288.14217,8.707882 V 34.67845 h 0.66201 V 8.707882 Z m 245.90329,84.400204 v 20.417084 h 0.66217 V 93.108086 Z m 23.49607,-15.986079 v 17.124362 h 0.66216 V 77.122007 Z M 376.69959,26.921275 V 43.98575 h 0.66202 V 26.921275 Z M 587.11784,78.74061 v 22.12481 h 0.66202 V 78.74061 Z m 27.99837,3.32712 v 22.10714 h 0.66201 V 82.06773 Z M 355.25525,16.992922 v 25.387675 h 0.66216 V 16.992922 Z m -243.9099,-1.111854 v 22.106053 h 0.66201 V 15.881068 Z m 219.68536,0 v 22.106053 h 0.66202 V 15.881068 Z m -251.363114,0.053 v 22.053048 h 0.662169 V 15.934073 Z M 206.40144,23.61182 v 20.372217 h 0.66216 V 23.61182 Z M 56.156368,96.417541 v 18.725609 h 0.662013 V 96.417541 Z M 524.37197,80.375004 c -5.93958,-0.04437 -11.92274,2.211416 -15.72606,6.682697 a 0.16531304,0.16531304 0 0 0 -0.0158,0.04925 0.16531304,0.16531304 0 0 0 -0.0189,0.05863 0.16531304,0.16531304 0 0 0 0.0194,0.05848 0.16531304,0.16531304 0 0 0 0.0164,0.0491 0.16531304,0.16531304 0 0 0 0.0117,0.0058 0.16531304,0.16531304 0 0 0 0.006,0.01172 0.16531304,0.16531304 0 0 0 0.0489,0.01579 0.16531304,0.16531304 0 0 0 0.0591,0.01908 0.16531304,0.16531304 0 0 0 0.0583,-0.01939 0.16531304,0.16531304 0 0 0 0.0491,-0.01642 c 3.54341,-3.072877 9.00068,-4.763785 14.5168,-4.973713 5.51613,-0.209919 11.08606,1.061246 14.85266,3.855917 a 0.16532957,0.16532957 0 0 0 0.21593,-0.249074 c -3.64583,-3.678804 -8.85273,-5.508711 -14.09355,-5.547858 z m -0.003,0.344772 c 4.45267,0.03229 8.87864,1.37233 12.30466,4.054332 -3.70472,-2.058511 -8.51682,-2.970095 -13.2894,-2.788467 -4.77241,0.181621 -9.50133,1.456108 -13.03891,3.790088 3.70888,-3.388021 8.88291,-5.093235 14.02365,-5.055953 z m -15.59731,6.445023 c 7.08804,-8.332895 21.87575,-8.895679 29.57622,-1.12557 -7.61961,-5.653465 -22.40812,-5.090681 -29.57622,1.12557 M 479.2419,80.375004 c -5.93958,-0.04437 -11.92275,2.211416 -15.72607,6.682697 a 0.16531304,0.16531304 0 0 0 0.002,0.200289 0.16531304,0.16531304 0 0 0 -10e-4,0.01517 0.16531304,0.16531304 0 0 0 0.0119,0.0059 0.16531304,0.16531304 0 0 0 0.006,0.01157 0.16531304,0.16531304 0 0 0 0.0486,0.01579 0.16531304,0.16531304 0 0 0 0.0593,0.01908 0.16531304,0.16531304 0 0 0 0.0583,-0.01939 0.16531304,0.16531304 0 0 0 0.0491,-0.01642 c 3.54381,-3.072885 9.00109,-4.763785 14.51711,-4.973713 5.51603,-0.209919 11.08575,1.061246 14.85235,3.855917 a 0.16532957,0.16532957 0 0 0 0.21592,-0.249074 c -3.64582,-3.678804 -8.85273,-5.508711 -14.09354,-5.547858 z m -0.003,0.344772 c 4.45269,0.03229 8.87865,1.37233 12.30467,4.054332 -3.70467,-2.058511 -8.5166,-2.970095 -13.28908,-2.788467 -4.77267,0.181629 -9.5018,1.45642 -13.0397,3.790712 3.70893,-3.388364 8.88312,-5.093859 14.02411,-5.056577 z m -15.59729,6.445023 c 7.08804,-8.332895 21.87576,-8.895679 29.57622,-1.12557 -7.61961,-5.653465 -22.40732,-5.090681 -29.57622,1.12557 M 241.55313,33.795975 a 0.16531304,0.16531304 0 0 0 -0.007,0.01595 0.16531304,0.16531304 0 0 0 -0.0167,-0.0044 0.16531304,0.16531304 0 0 0 -0.0269,0.103823 0.16531304,0.16531304 0 0 0 -0.0433,0.09866 c 3.31478,8.512149 14.15647,11.858701 21.69248,6.695362 a 0.16532957,0.16532957 0 0 0 -0.16385,-0.285979 c -3.38551,1.593345 -7.74591,1.579376 -11.73475,0.348206 -3.98884,-1.23117 -7.59875,-3.677274 -9.49743,-6.901439 a 0.16531304,0.16531304 0 0 0 -0.10429,-0.02705 0.16531304,0.16531304 0 0 0 -0.0982,-0.04315 z m 1.04134,1.829843 c 2.07609,2.520324 5.18654,4.416252 8.561,5.457796 3.37447,1.041536 7.01235,1.228496 10.14772,0.316625 -6.64022,3.283429 -15.0743,0.680056 -18.70872,-5.774421 z m -0.98128,-1.675802 c 3.85303,6.542874 14.57476,9.852337 21.44506,6.618926 -7.44749,5.102689 -18.16922,1.793226 -21.44506,-6.618926 M 366.57767,7.6995368 c -2.44269,0.061385 -4.89175,0.7269768 -7.10626,2.0837685 a 0.16531304,0.16531304 0 0 0 -0.0299,0.041122 0.16531304,0.16531304 0 0 0 -0.0363,0.050034 0.16531304,0.16531304 0 0 0 0,0.060979 0.16531304,0.16531304 0 0 0 0,0.051441 0.16531304,0.16531304 0 0 0 0.009,0.00375 0.16531304,0.16531304 0 0 0 0.003,0.020014 0.16531304,0.16531304 0 0 0 0.18935,0.06051 0.16531304,0.16531304 0 0 0 0.0144,0.0061 c 3.5057,-1.4362881 7.92769,-1.2039588 11.91737,0.236724 3.98969,1.440685 7.53994,4.087169 9.31903,7.431801 a 0.16532957,0.16532957 0 0 0 0.30239,-0.131027 c -2.13879,-6.283092 -8.3397,-10.072092 -14.58216,-9.9152191 z m 0.0111,0.331789 c 5.48915,-0.1359935 10.94458,2.8504932 13.50674,7.9174452 -1.9899,-2.651944 -5.06358,-4.724481 -8.44531,-5.945628 -3.38189,-1.2212112 -7.07087,-1.5905493 -10.29625,-0.8216556 1.6838,-0.7310158 3.46023,-1.1061963 5.23482,-1.1501616 z m -7.03094,1.8929031 c 7.78212,-4.7679799 18.50465,-0.8960527 21.44506,7.7438551 -3.60966,-6.78608 -14.3322,-10.6580074 -21.44506,-7.7438551 M 380.23514,111.03628 a 0.16531304,0.16531304 0 0 0 -0.0147,0.0142 0.16531304,0.16531304 0 0 0 -0.009,-0.002 0.16531304,0.16531304 0 0 0 -0.0303,0.0408 0.16531304,0.16531304 0 0 0 -0.0367,0.0494 0.16531304,0.16531304 0 0 0 -10e-4,0.0615 0.16531304,0.16531304 0 0 0 -8e-4,0.0511 c 1.34122,3.38431 3.99318,5.50858 6.9635,6.1406 2.97033,0.63202 6.25717,-0.22868 8.85965,-2.77392 a 0.16532957,0.16532957 0 0 0 -0.21061,-0.25331 c -4.68935,3.29827 -12.376,1.66278 -15.31688,-3.2591 a 0.16531304,0.16531304 0 0 0 -0.10397,-0.0261 0.16531304,0.16531304 0 0 0 -0.0988,-0.0429 z m 1.04493,1.72775 c 3.14279,3.44862 8.75743,4.64287 13.03141,2.7719 -2.2389,1.54975 -4.78806,2.03207 -7.13691,1.53229 -2.34849,-0.49971 -4.48021,-1.97778 -5.8945,-4.30419 z m -0.98406,-1.574 c 2.99725,5.01623 10.77457,6.67096 15.55384,3.30946 -5.13231,5.01943 -12.90883,3.3647 -15.55384,-3.30946 M 459.84973,2.1554332 c -6.13936,-0.1355279 -12.39475,2.5388527 -15.90744,7.6754046 a 0.16531304,0.16531304 0 0 0 0.003,0.015322 0.16531304,0.16531304 0 0 0 0.0202,0.1981052 0.16531304,0.16531304 0 0 0 0.017,-4.81e-4 0.16531304,0.16531304 0 0 0 0.003,0.01689 0.16531304,0.16531304 0 0 0 0.19795,-0.02236 0.16531304,0.16531304 0 0 0 0.0155,-4.81e-4 c 3.01808,-3.1898352 7.91122,-5.2105945 12.97809,-5.827421 5.06687,-0.6168258 10.30177,0.1709129 13.99676,2.5434583 a 0.16532957,0.16532957 0 0 0 0.19935,-0.2623666 C 468.19666,3.656337 464.05033,2.2481406 459.84971,2.1554108 Z m -0.008,0.3405457 c 3.46883,0.074702 6.89724,1.0607861 9.74948,3.0200337 -3.57926,-1.667296 -8.07856,-2.1664245 -12.45399,-1.6337731 -4.37543,0.5326522 -8.62359,2.0965095 -11.69846,4.573908 3.56167,-4.0069756 9.02875,-6.0759046 14.40297,-5.9601686 z m -15.76262,7.42825 c 5.8544,-8.5608132 19.4469,-10.21546459 27.18419,-3.3093826 -7.48141,-4.8036044 -21.0739,-3.1489531 -27.18448,3.3093826 M 503.60324,2.0999345e-4 C 496.36706,-0.03164459 488.95362,3.5619677 485.41518,9.8430333 a 0.16531304,0.16531304 0 0 0 0.04,0.1960717 0.16531304,0.16531304 0 0 0 0.002,0.01517 0.16531304,0.16531304 0 0 0 0.0128,0.0036 0.16531304,0.16531304 0 0 0 0.008,0.01032 0.16531304,0.16531304 0 0 0 0.0511,0.0063 0.16531304,0.16531304 0 0 0 0.0613,0.0075 0.16531304,0.16531304 0 0 0 0.0536,-0.03018 0.16531304,0.16531304 0 0 0 0.0452,-0.02549 c 2.87476,-3.6637014 7.872,-6.3341201 13.20434,-7.5684552 5.33234,-1.234336 10.99476,-1.0314949 15.18679,0.9964621 a 0.16532957,0.16532957 0 0 0 0.16558,-0.284882 C 511.13525,1.028373 507.39359,0.01688859 503.60321,2.0278853e-4 Z M 503.60092,0.3423191 c 3.03089,0.0103519 6.02718,0.6664293 8.67969,2.0370176 -3.99349,-1.3188642 -8.84921,-1.3112758 -13.46155,-0.2436042 -4.61277,1.0677685 -8.97823,3.1950623 -11.98617,6.1349754 3.77235,-5.0788036 10.34562,-7.95032459 16.76803,-7.9283888 z m -18.04174,9.5819098 c 5.33805,-9.47551865 19.63423,-12.7849014 28.59315,-6.6186853 -8.48099,-4.10280528 -22.77717,-0.7934225 -28.59315,6.6186853 m 68.36034,93.3576911 a 0.16531304,0.16531304 0 0 0 -0.0499,0.0147 0.16531304,0.16531304 0 0 0 -0.0513,0.007 0.16531304,0.16531304 0 0 0 -0.002,0.009 0.16531304,0.16531304 0 0 0 -0.018,0.005 0.16531304,0.16531304 0 0 0 -0.035,0.19764 0.16531304,0.16531304 0 0 0 -0.004,0.0144 c 5.67215,9.69343 20.54988,13.02317 29.81241,6.67191 a 0.16532957,0.16532957 0 0 0 -0.16558,-0.28519 c -4.30628,2.08761 -10.1494,2.32046 -15.6665,1.08589 -5.51709,-1.23457 -10.70349,-3.93538 -13.70906,-7.65977 a 0.16531304,0.16531304 0 0 0 -0.0457,-0.0249 0.16531304,0.16531304 0 0 0 -0.0538,-0.0296 0.16531304,0.16531304 0 0 0 -0.0116,-0.006 z m 1.3073,1.83375 c 3.13397,2.98857 7.6651,5.14076 12.44069,6.20941 4.77604,1.06874 9.79265,1.05293 13.9017,-0.31491 -8.4903,4.37391 -20.5255,1.68063 -26.34239,-5.8945 z m -1.32491,-1.66934 c 6.07856,7.53235 20.86707,10.84101 29.57623,6.61893 -9.17188,6.2891 -23.95959,2.97963 -29.57623,-6.61893 M 192.18859,69.718977 c -2.29961,0.09477 -4.63654,1.05605 -6.58841,2.964996 a 0.16531304,0.16531304 0 0 0 -0.017,0.197943 0.16531304,0.16531304 0 0 0 -0.003,0.01532 0.16531304,0.16531304 0 0 0 0.01,0.0017 0.16531304,0.16531304 0 0 0 0.008,0.01876 0.16531304,0.16531304 0 0 0 0.19794,0.01704 0.16531304,0.16531304 0 0 0 0.0153,0.0026 c 4.68936,-3.298263 12.37602,-1.662913 15.31688,3.258164 a 0.16532957,0.16532957 0 0 0 0.29568,-0.145572 c -1.34083,-3.38393 -3.99279,-5.508062 -6.9632,-6.139974 -0.74261,-0.15798 -1.50502,-0.222664 -2.27156,-0.191067 z m 0.0135,0.329442 c 0.73903,-0.03007 1.47371,0.03273 2.18931,0.184966 2.3489,0.499702 4.48091,1.977808 5.89496,4.304511 -3.14251,-3.44863 -8.75746,-4.643343 -13.03172,-2.772519 1.55673,-1.077409 3.26079,-1.648343 4.94745,-1.716958 z m -6.48627,2.753763 c 5.13231,-5.019433 12.90962,-3.364701 15.55383,3.308662 -2.99725,-5.015429 -10.77457,-6.670161 -15.55383,-3.308662 m -63.92891,-1.366567 c -6.31702,0.129761 -12.64037,2.857194 -16.33116,7.886953 a 0.16531304,0.16531304 0 0 0 -0.0124,0.05003 0.16531304,0.16531304 0 0 0 -0.0147,0.06004 0.16531304,0.16531304 0 0 0 0.0239,0.05723 0.16531304,0.16531304 0 0 0 0.0197,0.04753 0.16531304,0.16531304 0 0 0 0.0122,0.005 0.16531304,0.16531304 0 0 0 0.007,0.0111 0.16531304,0.16531304 0 0 0 0.05,0.01235 0.16531304,0.16531304 0 0 0 0.06,0.0147 0.16531304,0.16531304 0 0 0 0.0571,-0.02377 0.16531304,0.16531304 0 0 0 0.0477,-0.0197 c 3.32793,-3.336241 8.67642,-5.430945 14.19267,-6.048199 5.51626,-0.617246 11.19529,0.243527 15.17819,2.761736 a 0.16532957,0.16532957 0 0 0 0.1967,-0.264557 c -3.66407,-3.180854 -8.57348,-4.65138 -13.48672,-4.550455 z m 0.007,0.344612 c 4.12753,-0.08659 8.24969,0.949097 11.60167,3.189997 -3.86661,-1.786934 -8.76011,-2.343955 -13.53346,-1.809838 -4.77309,0.534094 -9.42206,2.158813 -12.79813,4.755908 3.70314,-3.906335 9.21998,-6.020484 14.72992,-6.136067 z m -16.20461,7.64008 c 6.49644,-8.853254 21.28415,-10.507985 29.57622,-3.309463 -8.05671,-5.093883 -22.84442,-3.439152 -29.57622,3.309463 m -29.529948,0.954697 c -5.939581,-0.04437 -11.922744,2.211416 -15.726064,6.682697 a 0.16531304,0.16531304 0 0 0 -0.01579,0.04925 0.16531304,0.16531304 0 0 0 -0.01892,0.05863 0.16531304,0.16531304 0 0 0 0.01939,0.05817 0.16531304,0.16531304 0 0 0 0.01642,0.04941 0.16531304,0.16531304 0 0 0 0.01189,0.0059 0.16531304,0.16531304 0 0 0 0.0059,0.01157 0.16531304,0.16531304 0 0 0 0.04863,0.01579 0.16531304,0.16531304 0 0 0 0.05926,0.01908 0.16531304,0.16531304 0 0 0 0.05832,-0.01939 0.16531304,0.16531304 0 0 0 0.0491,-0.01642 c 3.543815,-3.072885 9.00109,-4.763785 14.517118,-4.973713 5.516024,-0.209919 11.085737,1.061246 14.852336,3.855917 a 0.16532957,0.16532957 0 0 0 0.215932,-0.249074 C 86.506733,82.244042 81.299829,80.414135 76.059016,80.374988 Z m -0.0028,0.344772 c 4.452682,0.03229 8.878644,1.37233 12.304659,4.054332 -3.70467,-2.058511 -8.516596,-2.970095 -13.289084,-2.788467 -4.772663,0.181629 -9.501784,1.45642 -13.039692,3.790712 3.70892,-3.388364 8.883122,-5.093859 14.024117,-5.056577 z m -15.597304,6.445023 c 7.088046,-8.332895 21.875754,-8.895679 29.576219,-1.12557 -7.61961,-5.653465 -22.407317,-5.090681 -29.576219,1.12557 M 597.70868,81.704193 v 27.202667 h 1.19113 V 81.704193 Z M 93.938598,12.207775 V 39.41059 h 1.191287 V 12.207775 Z M 414.87804,81.704193 v 27.202667 h 1.19129 V 81.704193 Z M 398.14425,12.207775 V 39.41059 h 1.19114 V 12.207775 Z M 235.85157,81.704193 v 27.202667 h 1.19128 V 81.704193 Z M 227.8461,12.207775 V 39.41059 h 1.19128 V 12.207775 Z m 451.96277,0 V 39.41059 H 681 V 12.207775 Z m -102.79668,0 V 39.41059 h 1.19112 V 12.207775 Z m 100.34735,69.496418 v 27.202667 h 3.64015 V 81.704193 Z m -3.63967,0 V 108.90686 H 674.911 V 81.704193 Z M 0,108.1787 v 0.72769 h 681 v -0.72769 z m 0,-6.61811 v 0.72768 h 681 v -0.72768 z m 0,-6.618906 v 0.72769 h 681 v -0.72769 z m 0,-6.618902 v 0.72769 h 681 v -0.72769 z M 0,81.703881 V 82.43157 H 681 V 81.703881 Z M 0,38.682436 v 0.72769 h 681 v -0.72769 z m 0,-6.618117 v 0.72769 h 681 v -0.72769 z m 0,-6.618902 v 0.72769 h 681 v -0.72769 z M 0,18.82652 v 0.727685 H 681 V 18.82652 Z m 0,-6.618588 v 0.727685 h 681 v -0.727685 z"
     style="stroke-width:0.0800547" />
  <metadata
     id="metadata164">
    <rdf:RDF>
      <cc:Work
         rdf:about="">
        <dc:title>air_XVIII</dc:title>
      </cc:Work>
    </rdf:RDF>
  </metadata>
</svg>
