<?xml version="1.0" encoding="UTF-8" standalone="no"?>
<svg
   width="681"
   height="116.60989"
   version="1.2"
   id="svg156"
   xmlns="http://www.w3.org/2000/svg"
   xmlns:svg="http://www.w3.org/2000/svg"
   xmlns:rdf="http://www.w3.org/1999/02/22-rdf-syntax-ns#"
   xmlns:cc="http://creativecommons.org/ns#"
   xmlns:dc="http://purl.org/dc/elements/1.1/">
  <defs
     id="defs156" />
  <title
     id="title1">air_LII</title>
  <desc
     id="desc1">Generated by MuseScore Studio 4.7.3</desc>
  <path
     id="path156"
     class="NoteDot"
     d="m 643.92427,95.653163 c 0,0.741306 0.58279,1.324906 1.3249,1.324906 0.74211,0 1.32491,-0.5836 1.32491,-1.324906 0,-0.742108 -0.5828,-1.324906 -1.32491,-1.324906 -0.74211,0 -1.3249,0.582798 -1.3249,1.324906 m -567.460801,0 c 0,0.741306 0.582798,1.324906 1.324906,1.324906 0.742107,0 1.324906,-0.5836 1.324906,-1.324906 0,-0.742108 -0.582799,-1.324906 -1.324906,-1.324906 -0.742108,0 -1.324906,0.582798 -1.324906,1.324906 M 638.55579,39.393895 c 0,0.742108 0.5836,1.324906 1.32491,1.324906 0.74211,0 1.32491,-0.582798 1.32491,-1.324906 0,-0.742107 -0.5828,-1.324905 -1.32491,-1.324905 -0.74131,0 -1.32491,0.582798 -1.32491,1.324905 m -401.7691,49.640342 c 0,0.742107 0.58279,1.324906 1.3249,1.324906 0.74131,0 1.32491,-0.582799 1.32491,-1.324906 0,-0.742107 -0.5836,-1.324906 -1.32491,-1.324906 -0.74211,0 -1.3249,0.582799 -1.3249,1.324906 m 160.32242,0 c 0,0.742107 0.58279,1.324906 1.3249,1.324906 0.74211,0 1.32491,-0.582799 1.32491,-1.324906 0,-0.742107 -0.5828,-1.324906 -1.32491,-1.324906 -0.74211,0 -1.3249,0.582799 -1.3249,1.324906 M 114.92176,75.786779 130.20741,77.44151 v 3.328676 l -15.28565,-1.654731 v -3.328676 m 160.32242,-3.308662 15.28565,1.654731 v 3.328676 l -15.28565,-1.654731 v -3.328676 m 322.08583,4.963393 15.28565,-1.654731 v 3.328676 l -15.28565,1.654731 V 77.44151 M 432.89838,39.384289 448.24167,37.729557 v 3.328676 l -15.34329,1.654732 V 39.384289 M 86.545559,34.420095 101.88885,32.765363 v 3.328676 L 86.545559,37.748771 V 34.420095 M 411.47813,7.9455928 426.82142,6.2908614 V 9.6194573 L 411.47813,11.274109 V 7.9455928 m -29.36328,0 15.34329,-1.6547314 V 9.6194573 L 382.11485,11.274109 V 7.9455928 m 45.50952,99.2802872 15.28565,1.65473 v 3.32867 l -15.28565,-1.65473 v -3.32867 m -311.71553,-74.460517 15.34329,1.654732 v 3.328676 l -15.34329,-1.654732 v -3.328676 m -70.81482,0.02722 v 1.96054 h -2.199104 c -0.185727,0 -0.370653,0.159309 -0.370653,0.370654 v 0.503544 c 0,0.212145 0.184926,0.371454 0.370653,0.371454 h 8.02869 c 0.212145,0 0.371454,-0.159309 0.371454,-0.371454 v -0.503544 c 0,-0.211345 -0.159309,-0.370654 -0.371454,-0.370654 h -2.384831 v -1.96054 h 2.384831 c 0.212145,0 0.371454,-0.185727 0.371454,-0.397872 v -0.503544 c 0,-0.184927 -0.159309,-0.370654 -0.371454,-0.370654 h -2.384831 v -4.213281 c 0,-0.159309 -0.07925,-0.291399 -0.184926,-0.344235 l -0.317817,-0.159309 c -0.05364,-0.02642 -0.08006,-0.02642 -0.132891,-0.02642 -0.105672,0 -0.212145,0 -0.291399,0.07925 l -2.411249,2.199904 c -0.07925,0.07925 -0.106473,0.184927 -0.106473,0.2914 v 2.172685 h -3.073301 c 0,0 2.967629,-3.179774 6.094567,-7.366637 0.105672,-0.13209 0.13209,-0.264981 0.13209,-0.370653 0,-0.132891 -0.05284,-0.238563 -0.07925,-0.264981 l -0.582798,-0.583279 c -0.07926,-0.053 -0.159309,-0.105993 -0.264982,-0.105993 -0.159309,0 -3.736154,0 -3.948299,0 -0.185727,0 -0.317818,0.158989 -0.344236,0.317978 0,0 -0.132891,1.961181 -0.821361,4.107448 -0.689272,2.146268 -1.484215,3.471174 -2.173486,4.451844 0,0 -0.07926,0.13209 -0.07926,0.291399 0,0.05284 0,0.105673 0.02642,0.158509 0.07925,0.185727 0.264981,0.477126 0.264981,0.477126 0,0 0.05284,0.159309 0.291399,0.159309 h 4.557516 m 2.741074,-16.829988 c 2.11985,-0.821441 2.25194,-2.199343 2.25194,-2.67631 v -0.13249 c 0,-0.238483 -0.07925,-3.2327705 -4.63677,-3.2327705 -4.558317,0 -4.425426,3.2327705 -4.425426,3.2327705 h 0.02642 l -0.02642,0.053 c 0,0.953932 0.768525,1.69588 1.721977,1.69588 0.954253,0 1.69636,-0.741948 1.69636,-1.69588 0,-0.768445 -0.582798,-1.510393 -1.324906,-1.669381 l 0.07925,-0.07949 c 0.370654,-0.264981 0.874198,-0.397471 1.377742,-0.397471 1.112761,0 2.305577,0.662452 2.305577,2.093351 0,1.669381 -1.245652,1.907864 -1.563469,1.960861 -0.317817,0.053 -1.802032,0.158988 -2.11985,0.158988 -0.317817,0 -0.344235,0.370974 -0.344235,0.370974 v 0.529962 c 0,0 0.05284,0.29148 0.344235,0.317978 0.450709,0.0265 1.059925,0.0265 1.907705,0.158988 1.166397,0.158989 1.775614,0.953933 1.775614,2.808801 0,1.775374 -1.192816,2.25234 -2.305577,2.25234 -0.742107,0 -1.430578,-0.211985 -1.721977,-0.42397 0.874198,-0.053 1.589887,-0.821442 1.589887,-1.695879 0,-0.953933 -0.742107,-1.722378 -1.69636,-1.722378 -0.953452,0 -1.721977,0.768445 -1.721977,1.722378 0,2.172845 1.986958,3.259268 3.948299,3.259268 2.543339,0 5.299624,-0.874438 5.299624,-3.762733 0,-1.934362 -1.324906,-2.755804 -2.491303,-3.126778 h 0.05364 M 28.940575,7.64899 31.298988,7.1720239 v 4.3721891 l -2.358413,0.503465 V 7.64899 m 4.107609,-0.8214417 c 0.159309,-0.026498 0.291399,-0.2119849 0.291399,-0.3709736 v -1.563389 c 0,-0.2119849 -0.159309,-0.3709736 -0.370653,-0.3709736 H 32.91529 L 32.041095,4.7076989 V 0.75947929 H 31.298988 V 4.8666876 L 28.940575,5.3436537 V 1.6074191 h -0.741307 v 3.8952233 l -1.033506,0.211985 c -0.159309,0.026498 -0.2914,0.2119849 -0.2914,0.3709736 v 1.5368909 c 0,0.2119849 0.158509,0.3709736 0.370654,0.3709736 h 0.07925 l 0.874998,-0.1854868 v 4.3721893 l -1.033506,0.211985 c -0.159309,0.0265 -0.2914,0.211985 -0.2914,0.370974 v 1.536891 c 0,0.211985 0.158509,0.370973 0.370654,0.370973 h 0.07925 l 0.874998,-0.185487 v 3.94822 h 0.741307 V 14.326516 L 31.29898,13.84955 v 3.736234 h 0.742107 v -3.895223 l 1.007089,-0.185487 c 0.159309,-0.0265 0.291399,-0.211985 0.291399,-0.370974 v -1.563389 c 0,-0.211984 -0.159309,-0.370973 -0.370653,-0.370973 h -0.05364 l -0.874198,0.185487 V 7.0130351 l 1.007089,-0.1854868 m -4.107609,70.3177597 2.358413,-0.477126 v 4.372589 l -2.358413,0.503545 v -4.399008 m 4.107609,-0.821362 c 0.159309,-0.02642 0.291399,-0.212145 0.291399,-0.371454 v -1.562668 c 0,-0.212145 -0.159309,-0.371454 -0.370653,-0.371454 h -0.05364 l -0.874198,0.185727 v -3.9483 h -0.742107 v 4.106808 l -2.358413,0.477126 v -3.736154 h -0.741307 v 3.895463 l -1.033506,0.212145 c -0.159309,0.02642 -0.2914,0.211345 -0.2914,0.370654 v 1.537051 c 0,0.212145 0.158509,0.370653 0.370654,0.370653 h 0.07925 l 0.874998,-0.184926 v 4.371789 l -1.033506,0.212145 c -0.159309,0.02642 -0.2914,0.212145 -0.2914,0.370654 v 1.53705 c 0,0.212146 0.158509,0.370654 0.370654,0.370654 h 0.07925 l 0.874998,-0.184927 v 3.9483 h 0.741307 v -4.107608 l 2.358413,-0.477127 v 3.736155 h 0.742107 v -3.894663 l 1.007089,-0.185727 c 0.159309,-0.02642 0.291399,-0.212145 0.291399,-0.370653 v -1.56347 c 0,-0.212145 -0.159309,-0.371453 -0.370653,-0.371453 h -0.05364 l -0.874198,0.185726 v -4.371789 l 1.007089,-0.185727 M 16.093311,34.924439 c -0.529962,0.106473 -1.033427,0.159309 -1.536891,0.159309 -3.789231,0 -7.0220012,-2.649811 -7.0220012,-6.650947 0,-3.233411 2.2788382,-6.121386 4.6106722,-8.135243 0.450468,-0.397471 0.874438,-0.768445 1.27191,-1.165917 0.238483,1.430899 0.42397,2.67631 0.609457,3.762733 -2.411329,0.715129 -4.0542123,3.259268 -4.0542123,5.749771 0,1.854869 1.4573963,4.399008 3.5772463,4.399008 0.211985,0 0.450468,-0.105672 0.450468,-0.344235 0,-0.238563 -0.264982,-0.371454 -0.582959,-0.582799 -1.033427,-0.636435 -1.616385,-1.324906 -1.616385,-2.623393 0,-1.616306 1.192415,-2.914793 2.755804,-3.286247 l 1.536891,8.71796 M 13.761477,7.6844542 c 0.238483,-1.0599247 1.457396,-3.8422271 2.835298,-3.8422271 0.397472,0 1.033427,1.2984078 1.033427,3.1267779 0,2.7558043 -2.040355,4.822658 -3.868725,6.62453 -0.158989,-1.059925 -0.29148,-2.093352 -0.29148,-3.206273 0,-0.9804301 0.0795,-1.8813661 0.29148,-2.7028078 m 6.094567,22.3382338 c 0,1.881286 -0.768446,3.815409 -2.649812,4.583934 -0.556461,-3.179774 -1.27191,-7.393055 -1.457397,-8.558652 2.384831,0 4.107209,1.616305 4.107209,3.974718 M 8.1968718,43.059602 c 0,1.748395 1.351404,4.053972 4.9286502,4.053972 1.245411,0 2.331834,-0.317818 3.285766,-0.900616 1.430899,-1.007089 1.801872,-2.756285 1.801872,-4.425426 0,-1.033507 -0.158988,-2.225522 -0.423969,-3.736154 -0.07949,-0.529963 -0.238484,-1.324906 -0.397472,-2.358413 2.596815,-0.84778 4.531178,-3.550428 4.531178,-6.280294 0,-4.001136 -2.835299,-6.703784 -6.704024,-6.703784 -0.264981,-1.589887 -0.529962,-3.153276 -0.768445,-4.637171 2.8088,-2.941291 4.743163,-6.253555 4.743163,-10.4667561 0,-2.4113288 -0.741948,-4.3721895 -1.165917,-5.3261218 C 17.391719,0.92743413 16.623273,0 16.146307,0 15.96082,0 15.139379,0.31797742 14.264941,1.351404 c -1.69588,2.013857 -2.172846,5.4056161 -2.172846,7.631458 0,1.430898 0.132491,2.729306 0.582959,5.697095 -0.0265,0.0265 -1.404401,1.430899 -1.960861,1.881367 -2.4113287,2.25234 -5.7500916,5.458612 -5.7500916,10.757915 0,4.955389 4.3191932,8.850852 9.2478436,8.850852 0.768445,0 1.483894,-0.07925 2.093351,-0.185727 0.503464,2.54414 0.794943,4.399008 0.794943,5.803168 0,2.755484 -1.4044,4.213281 -4.08071,4.213281 -0.635955,0 -1.192415,-0.132891 -1.245411,-0.132891 -0.0265,-0.02642 -0.07949,-0.05284 -0.07949,-0.07925 0,-0.05284 0.053,-0.07925 0.132491,-0.105672 1.245412,-0.185727 2.490823,-1.245652 2.490823,-2.941211 0,-1.431379 -1.086423,-2.941211 -3.073782,-2.941211 -1.8548679,0 -3.0472832,1.509832 -3.0472832,3.259028 m 7.8964392,61.361154 c -0.529962,0.10647 -1.033427,0.15931 -1.536891,0.15931 -3.789231,0 -7.0220012,-2.64982 -7.0220012,-6.650947 0,-3.233411 2.2788382,-6.120985 4.6106722,-8.135163 0.450468,-0.397872 0.874438,-0.768525 1.27191,-1.165597 0.238483,1.430579 0.42397,2.67623 0.609457,3.762573 -2.411329,0.714889 -4.0542123,3.259028 -4.0542123,5.749531 0,1.854869 1.4573963,4.399003 3.5772463,4.399003 0.211985,0 0.450468,-0.10567 0.450468,-0.34423 0,-0.23857 -0.264982,-0.37146 -0.582959,-0.5828 -1.033427,-0.63644 -1.616385,-1.32491 -1.616385,-2.623392 0,-1.616306 1.192415,-2.914793 2.755804,-3.286247 l 1.536891,8.717959 M 13.761477,77.180532 c 0.238483,-1.059925 1.457396,-3.841827 2.835298,-3.841827 0.397472,0 1.033427,1.298488 1.033427,3.126938 0,2.755484 -2.040355,4.822498 -3.868725,6.62453 -0.158989,-1.059925 -0.29148,-2.093432 -0.29148,-3.206193 0,-0.98067 0.0795,-1.882086 0.29148,-2.703448 m 6.094567,22.338474 c 0,1.881284 -0.768446,3.815404 -2.649812,4.583934 -0.556461,-3.17977 -1.27191,-7.393055 -1.457397,-8.558652 2.384831,0 4.107209,1.616305 4.107209,3.974718 M 8.1968718,112.55592 c 0,1.7484 1.351404,4.05397 4.9286502,4.05397 1.245411,0 2.331834,-0.31782 3.285766,-0.90061 1.430899,-1.00709 1.801872,-2.75629 1.801872,-4.42543 0,-1.03351 -0.158988,-2.22552 -0.423969,-3.73615 -0.07949,-0.52997 -0.238484,-1.32491 -0.397472,-2.35842 2.596815,-0.84778 4.531178,-3.55042 4.531178,-6.280291 0,-4.001136 -2.835299,-6.703784 -6.704024,-6.703784 -0.264981,-1.589887 -0.529962,-3.153356 -0.768445,-4.63677 2.8088,-2.942012 4.743163,-6.253876 4.743163,-10.467157 0,-2.411249 -0.741948,-4.371789 -1.165917,-5.326042 -0.635955,-1.351324 -1.404401,-2.279158 -1.881367,-2.279158 -0.185487,0 -1.006928,0.318618 -1.881366,1.351324 -1.69588,2.014177 -2.172846,5.406096 -2.172846,7.631618 0,1.431379 0.132491,2.729866 0.582959,5.697495 -0.0265,0.02642 -1.404401,1.430579 -1.960861,1.881287 -2.4113287,2.25194 -5.7500916,5.458132 -5.7500916,10.757755 0,4.955393 4.3191932,8.850853 9.2478436,8.850853 0.768445,0 1.483894,-0.0793 2.093351,-0.18573 0.503464,2.54414 0.794943,4.39901 0.794943,5.80317 0,2.75548 -1.4044,4.21328 -4.08071,4.21328 -0.635955,0 -1.192415,-0.13289 -1.245411,-0.13289 -0.0265,-0.0264 -0.07949,-0.0528 -0.07949,-0.0793 0,-0.0528 0.053,-0.0793 0.132491,-0.10568 1.245412,-0.18572 2.490823,-1.24565 2.490823,-2.94121 0,-1.43138 -1.086423,-2.94121 -3.073782,-2.94121 -1.8548679,0 -3.0472832,1.50983 -3.0472832,3.25903 M 130.59007,17.341457 c 0,1.139419 0.82137,2.411329 2.96843,2.411329 2.75549,0 5.64386,-2.25234 5.64386,-4.584175 0,-1.563388 -1.3249,-2.437826 -2.96763,-2.437826 -2.57055,0 -5.64466,2.172845 -5.64466,4.610672 m 50.02061,0 c 0,1.139419 0.82136,2.411329 2.96763,2.411329 2.75628,0 5.64465,-2.25234 5.64465,-4.584175 0,-1.563388 -1.3249,-2.437826 -2.96762,-2.437826 -2.57056,0 -5.64466,2.172845 -5.64466,4.610672 m 289.63563,79.424466 c 0,1.139179 0.82137,2.411249 2.96763,2.411249 2.75629,0 5.64466,-2.25274 5.64466,-4.583934 0,-1.563469 -1.3249,-2.438467 -2.96843,-2.438467 -2.56975,0 -5.64386,2.173486 -5.64386,4.611152 M 202.63293,17.341457 c 0,1.139419 0.82137,2.411329 2.96763,2.411329 2.75629,0 5.64466,-2.25234 5.64466,-4.584175 0,-1.563388 -1.3249,-2.437826 -2.96763,-2.437826 -2.57055,0 -5.64466,2.172845 -5.64466,4.610672 m 31.48713,6.618686 c 0,1.139179 0.82136,2.411248 2.96763,2.411248 2.75629,0 5.64466,-2.251939 5.64466,-4.584094 0,-1.563389 -1.3249,-2.437827 -2.96843,-2.437827 -2.56976,0 -5.64386,2.172846 -5.64386,4.610673 m 22.02226,6.618925 c 0,1.139179 0.82136,2.411249 2.96763,2.411249 2.75628,0 5.64466,-2.25274 5.64466,-4.583934 0,-1.563469 -1.32491,-2.438468 -2.96843,-2.438468 -2.56976,0 -5.64386,2.173487 -5.64386,4.611153 m 186.10565,62.877393 c 0,1.139179 0.82136,2.411248 2.96763,2.411248 2.75628,0 5.64466,-2.251939 5.64466,-4.583934 0,-1.563469 -1.32491,-2.437667 -2.96763,-2.437667 -2.57056,0 -5.64466,2.172686 -5.64466,4.610353 M 278.16458,30.579068 c 0,1.139179 0.82136,2.411249 2.96763,2.411249 2.75628,0 5.64466,-2.25274 5.64466,-4.583934 0,-1.563469 -1.32491,-2.438468 -2.96763,-2.438468 -2.57056,0 -5.64466,2.173487 -5.64466,4.611153 M 115.90884,10.722772 c 0,1.139419 0.82136,2.411328 2.96763,2.411328 2.75628,0 5.64465,-2.25234 5.64465,-4.584174 0,-1.563389 -1.3249,-2.4378269 -2.96842,-2.4378269 -2.56976,0 -5.64386,2.1728457 -5.64386,4.6106729 m 311.71553,79.424226 c 0,1.139179 0.82136,2.411248 2.96843,2.411248 2.75548,0 5.64386,-2.251939 5.64386,-4.583934 0,-1.563469 -1.32491,-2.437667 -2.96763,-2.437667 -2.57056,0 -5.64466,2.172686 -5.64466,4.610353 M 311.63947,31.744665 c -0.875,0 -1.05993,-0.715689 -1.05993,-0.953452 0,-1.298487 4.45105,-3.577646 5.6967,-3.577646 0.63643,0 1.05992,0.370654 1.05992,0.954253 0,1.324906 -4.47826,3.576845 -5.69669,3.576845 m 3.6561,-5.77675 c -2.56976,0 -5.64386,2.146268 -5.64386,4.611153 0,1.139179 0.82136,2.411249 2.96763,2.411249 2.75628,0 5.64466,-2.25274 5.64466,-4.583934 0,-1.563469 -1.32491,-2.438468 -2.96843,-2.438468 m 97.7052,60.86962 c 0,1.139979 0.82216,2.411249 2.96843,2.411249 2.75549,0 5.64386,-2.25194 5.64386,-4.583935 0,-1.563469 -1.32491,-2.437666 -2.96763,-2.437666 -2.57056,0 -5.64466,2.172685 -5.64466,4.610352 M 342.68549,40.506656 c 0,1.13998 0.82137,2.411249 2.96763,2.411249 2.75549,0 5.64386,-2.25194 5.64386,-4.583934 0,-1.563469 -1.3249,-2.437667 -2.96763,-2.437667 -2.57055,0 -5.64386,2.172686 -5.64386,4.610352 m 31.48713,-9.927588 c 0,1.139179 0.82137,2.411249 2.96763,2.411249 2.75549,0 5.64386,-2.25274 5.64386,-4.583934 0,-1.563469 -1.3249,-2.438468 -2.96763,-2.438468 -2.57056,0 -5.64386,2.173487 -5.64386,4.611153 m 171.34436,62.877393 c 0,1.139179 0.82136,2.411248 2.96763,2.411248 2.75628,0 5.64466,-2.251939 5.64466,-4.583934 0,-1.563469 -1.32491,-2.437667 -2.96843,-2.437667 -2.56976,0 -5.64386,2.172686 -5.64386,4.610353 M 385.19456,90.146998 c 0,1.139179 0.82136,2.411248 2.96763,2.411248 2.75548,0 5.64386,-2.251939 5.64386,-4.583934 0,-1.563469 -1.32491,-2.437667 -2.96763,-2.437667 -2.57056,0 -5.64386,2.172686 -5.64386,4.610353 M 101.2276,14.032074 c 0,1.139419 0.82136,2.411329 2.96763,2.411329 2.75548,0 5.64386,-2.25234 5.64386,-4.584174 0,-1.563389 -1.32491,-2.4378271 -2.96763,-2.4378271 -2.57056,0 -5.64386,2.1728461 -5.64386,4.6106721 m 287.62626,13.237532 c 0,1.139178 0.82136,2.411248 2.96763,2.411248 2.75629,0 5.64386,-2.25274 5.64386,-4.583934 0,-1.563469 -1.32491,-2.438067 -2.96763,-2.438067 -2.56976,0 -5.64386,2.173086 -5.64386,4.610753 m 14.68124,3.309462 c 0,1.139179 0.82136,2.411249 2.96763,2.411249 2.75628,0 5.64466,-2.25274 5.64466,-4.583934 0,-1.563469 -1.32491,-2.438468 -2.96763,-2.438468 -2.57056,0 -5.64466,2.173487 -5.64466,4.611153 m -49.74121,76.114442 c 0,1.13998 0.82216,2.41205 2.96843,2.41205 2.75548,0 5.64386,-2.25274 5.64386,-4.58473 0,-1.56347 -1.32491,-2.43767 -2.96763,-2.43767 -2.57056,0 -5.64466,2.17268 -5.64466,4.61035 m 213.65809,-6.61812 c 0,1.13918 0.82216,2.41124 2.96843,2.41124 2.75548,0 5.64386,-2.25274 5.64386,-4.583929 0,-1.563469 -1.32491,-2.438468 -2.96763,-2.438468 -2.57056,0 -5.64466,2.173487 -5.64466,4.611157 m -235.59309,6.61812 c 0,1.13998 0.82136,2.41205 2.96763,2.41205 2.75629,0 5.64466,-2.25274 5.64466,-4.58473 0,-1.56347 -1.32491,-2.43767 -2.96843,-2.43767 -2.56976,0 -5.64386,2.17268 -5.64386,4.61035 m 86.35825,-79.423904 c 0,1.139178 0.82136,2.411248 2.96763,2.411248 2.75548,0 5.64386,-2.25274 5.64386,-4.583934 0,-1.563469 -1.32491,-2.438067 -2.96763,-2.438067 -2.57056,0 -5.64386,2.173086 -5.64386,4.610753 M 309.92389,100.07539 c 0,1.13918 0.82137,2.41124 2.96763,2.41124 2.75549,0 5.64386,-2.25274 5.64386,-4.583929 0,-1.563469 -1.3249,-2.438468 -2.96763,-2.438468 -2.57055,0 -5.64386,2.173487 -5.64386,4.611157 M 432.89838,23.960143 c 0,1.139179 0.82136,2.411248 2.96763,2.411248 2.75628,0 5.64466,-2.251939 5.64466,-4.584094 0,-1.563389 -1.32491,-2.437827 -2.96843,-2.437827 -2.56976,0 -5.64386,2.172846 -5.64386,4.610673 m 156.4894,76.115247 c 0,1.13918 0.82136,2.41124 2.96763,2.41124 2.75548,0 5.64385,-2.25274 5.64385,-4.583929 0,-1.563469 -1.3249,-2.438468 -2.96762,-2.438468 -2.57056,0 -5.64386,2.173487 -5.64386,4.611157 M 447.57962,20.65076 c 0,1.139419 0.82136,2.411329 2.96843,2.411329 2.75548,0 5.64385,-2.25234 5.64385,-4.584175 0,-1.563389 -1.3249,-2.437827 -2.96763,-2.437827 -2.57055,0 -5.64465,2.172846 -5.64465,4.610673 M 281.92555,96.765923 c 0,1.139179 0.82136,2.411249 2.96763,2.411249 2.75628,0 5.64386,-2.25274 5.64386,-4.583934 0,-1.563469 -1.32491,-2.438467 -2.96763,-2.438467 -2.56976,0 -5.64386,2.173486 -5.64386,4.611152 M 475.57796,17.341457 c 0,1.139419 0.82136,2.411329 2.96763,2.411329 2.75628,0 5.64466,-2.25234 5.64466,-4.584175 0,-1.563388 -1.32491,-2.437826 -2.96843,-2.437826 -2.56976,0 -5.64386,2.172845 -5.64386,4.610672 m -389.032401,0 c 0,1.139419 0.821362,2.411329 2.967629,2.411329 2.756285,0 5.64466,-2.25234 5.64466,-4.584175 0,-1.563388 -1.324906,-2.437826 -2.967629,-2.437826 -2.570558,0 -5.64466,2.172845 -5.64466,4.610672 M 267.30195,93.456461 c 0,1.139179 0.82136,2.411248 2.96763,2.411248 2.75628,0 5.64386,-2.251939 5.64386,-4.583934 0,-1.563469 -1.32491,-2.437667 -2.96763,-2.437667 -2.56976,0 -5.64386,2.172686 -5.64386,4.610353 M 497.60022,17.341457 c 0,1.139419 0.82136,2.411329 2.96763,2.411329 2.75628,0 5.64466,-2.25234 5.64466,-4.584175 0,-1.563388 -1.32491,-2.437826 -2.96763,-2.437826 -2.57056,0 -5.64466,2.172845 -5.64466,4.610672 M 252.67835,90.146998 c 0,1.139179 0.82136,2.411248 2.96763,2.411248 2.75629,0 5.64466,-2.251939 5.64466,-4.583934 0,-1.563469 -1.32491,-2.437667 -2.96843,-2.437667 -2.56976,0 -5.64386,2.172686 -5.64386,4.610353 M 519.62247,27.269606 c 0,1.139178 0.82137,2.411248 2.96763,2.411248 2.75629,0 5.64466,-2.25274 5.64466,-4.583934 0,-1.563469 -1.3249,-2.438067 -2.96763,-2.438067 -2.57055,0 -5.64466,2.173086 -5.64466,4.610753 m 31.48713,6.618925 c 0,1.139179 0.82137,2.411249 2.96763,2.411249 2.75629,0 5.64466,-2.25274 5.64466,-4.584735 0,-1.563469 -1.3249,-2.437667 -2.96843,-2.437667 -2.56975,0 -5.64386,2.172686 -5.64386,4.611153 m 52.90178,62.877392 c 0,1.139179 0.82136,2.411249 2.96762,2.411249 2.75549,0 5.64386,-2.25274 5.64386,-4.583934 0,-1.563469 -1.3249,-2.438467 -2.96763,-2.438467 -2.57055,0 -5.64385,2.173486 -5.64385,4.611152 M 224.87134,93.456461 c 0,1.139179 0.82136,2.411248 2.96843,2.411248 2.75548,0 5.64386,-2.251939 5.64386,-4.583934 0,-1.563469 -1.32491,-2.437667 -2.96763,-2.437667 -2.57056,0 -5.64466,2.172686 -5.64466,4.610353 M 573.13186,40.506656 c 0,1.13998 0.82136,2.411249 2.96763,2.411249 2.75629,0 5.64466,-2.25194 5.64466,-4.583934 0,-1.563469 -1.32491,-2.437667 -2.96843,-2.437667 -2.56976,0 -5.64386,2.172686 -5.64386,4.610352 m 22.02226,0 c 0,1.13998 0.82136,2.411249 2.96763,2.411249 2.75628,0 5.64466,-2.25194 5.64466,-4.583934 0,-1.563469 -1.32491,-2.437667 -2.96763,-2.437667 -2.57056,0 -5.64466,2.172686 -5.64466,4.610352 m 33.47489,1.166398 c -0.875,0 -1.05993,-0.71569 -1.05993,-0.954253 0,-1.298487 4.45105,-3.576845 5.6967,-3.576845 0.63643,0 1.05992,0.370653 1.05992,0.953452 0,1.324906 -4.47826,3.577646 -5.69669,3.577646 m 3.6561,-5.77675 c -2.56976,0 -5.64386,2.146268 -5.64386,4.610352 0,1.13998 0.82136,2.411249 2.96763,2.411249 2.75628,0 5.64466,-2.25194 5.64466,-4.583934 0,-1.563469 -1.32491,-2.437667 -2.96843,-2.437667 M 193.47147,110.00297 c 0,1.13998 0.82136,2.41125 2.96763,2.41125 2.75628,0 5.64466,-2.25194 5.64466,-4.58393 0,-1.56347 -1.32491,-2.43767 -2.96843,-2.43767 -2.56976,0 -5.64386,2.17269 -5.64386,4.61035 M 64.523305,17.341457 c 0,1.139419 0.821361,2.411329 2.967629,2.411329 2.756285,0 5.644659,-2.25234 5.644659,-4.584175 0,-1.563388 -1.324905,-2.437826 -2.967629,-2.437826 -2.570557,0 -5.644659,2.172845 -5.644659,4.610672 M 171.53647,110.00297 c 0,1.13998 0.82136,2.41125 2.96763,2.41125 2.75548,0 5.64386,-2.25194 5.64386,-4.58393 0,-1.56347 -1.32491,-2.43767 -2.96763,-2.43767 -2.57056,0 -5.64386,2.17269 -5.64386,4.61035 M 158.58842,7.4133889 c 0,1.1394191 0.82136,2.4113287 2.96763,2.4113287 2.75628,0 5.64466,-2.25234 5.64466,-4.5841744 0,-1.563389 -1.32491,-2.4378268 -2.96843,-2.4378268 -2.56976,0 -5.64386,2.1728456 -5.64386,4.6106725 m -8.98775,95.9714611 c 0,1.13918 0.82136,2.41125 2.96843,2.41125 2.75549,0 5.64386,-2.25274 5.64386,-4.58474 0,-1.562665 -1.3249,-2.437664 -2.96763,-2.437664 -2.57056,0 -5.64466,2.172684 -5.64466,4.611154 M 64.548922,96.765923 c 0,1.139179 0.821362,2.411249 2.967629,2.411249 2.756285,0 5.643859,-2.25274 5.643859,-4.583934 0,-1.563469 -1.324905,-2.438467 -2.967629,-2.438467 -2.569757,0 -5.643859,2.173486 -5.643859,4.611152 M 514.11711,86.837535 c 0,1.139979 0.82136,2.411249 2.96763,2.411249 2.75548,0 5.64386,-2.25194 5.64386,-4.583935 0,-1.563469 -1.32491,-2.437666 -2.96763,-2.437666 -2.57056,0 -5.64386,2.172685 -5.64386,4.610352 M 92.355932,93.456461 c 0,1.139179 0.821362,2.411248 2.967629,2.411248 2.755484,0 5.643859,-2.251939 5.643859,-4.583934 0,-1.563469 -1.324906,-2.437667 -2.967629,-2.437667 -2.570558,0 -5.643859,2.172686 -5.643859,4.610353 m 29.247198,6.618929 c 0,1.13918 0.82136,2.41124 2.96763,2.41124 2.75548,0 5.64386,-2.25274 5.64386,-4.583929 0,-1.563469 -1.32491,-2.438468 -2.96763,-2.438468 -2.57056,0 -5.64386,2.173487 -5.64386,4.611157 m -14.6236,-3.309467 c 0,1.139179 0.82136,2.411249 2.96763,2.411249 2.75548,0 5.64386,-2.25274 5.64386,-4.583934 0,-1.563469 -1.32491,-2.438467 -2.96763,-2.438467 -2.57056,0 -5.64386,2.173486 -5.64386,4.611152 m 385.20178,6.618927 c 0,1.13918 0.82216,2.41125 2.96843,2.41125 2.75549,0 5.64386,-2.25274 5.64386,-4.58474 0,-1.562665 -1.32491,-2.437664 -2.96763,-2.437664 -2.57056,0 -5.64466,2.172684 -5.64466,4.611154 m 141.81537,-2.14387 c -0.8742,0 -1.05993,-0.71569 -1.05993,-0.95345 0,-1.298486 4.45185,-3.577645 5.6975,-3.577645 0.63563,0 1.05992,0.370654 1.05992,0.954253 0,1.324906 -4.47826,3.576842 -5.69749,3.576842 m 3.6569,-5.776747 c -2.57056,0 -5.64386,2.146268 -5.64386,4.611157 0,1.13918 0.82136,2.41124 2.96763,2.41124 2.75548,0 5.64386,-2.25274 5.64386,-4.583929 0,-1.563469 -1.32491,-2.438468 -2.96763,-2.438468 M 413.00077,108.8638 c 0,0.18572 0.15931,0.34423 0.34504,0.34423 0.13209,0 0.2914,-0.10567 0.31782,-0.21134 0,-0.0272 0.23856,-0.95426 0.26498,-1.03351 0.0264,-0.10647 0.26498,-1.11356 1.21923,-2.67623 1.03271,-1.72278 2.62259,-2.96843 3.9475,-4.8233 1.29849,-1.854866 2.09343,-3.603262 2.09343,-5.935256 0,-2.411249 -0.55638,-4.425426 -1.96054,-6.995183 -0.0793,-0.185727 -0.23856,-0.2922 -0.39787,-0.2922 -0.0528,0 -0.10567,0 -0.13209,0.02722 -0.13289,0.05284 -0.18573,0.158509 -0.18573,0.317818 0,0.07925 0.0264,0.212145 0.0801,0.317817 1.05992,2.464085 1.48341,3.869045 1.48341,5.77675 0,2.199104 -0.76853,3.338282 -1.24565,4.159644 -1.72198,2.94201 -4.50468,4.37259 -5.61744,4.74324 -0.18493,0.0801 -0.21215,0.21215 -0.21215,0.2914 v 5.9889 m -160.32242,1.65473 c 0,0.18572 0.15931,0.34423 0.34424,0.34423 0.13289,0 0.2914,-0.10567 0.31862,-0.21214 0,-0.0264 0.23776,-0.95345 0.26498,-1.03271 0.0264,-0.10647 0.26498,-1.11356 1.21843,-2.67703 1.03351,-1.72198 2.62339,-2.96763 3.9483,-4.8225 1.29849,-1.85487 2.09343,-3.603259 2.09343,-5.935253 0,-2.411249 -0.55638,-4.425426 -1.96054,-6.995984 -0.08,-0.184926 -0.23856,-0.291399 -0.39787,-0.291399 -0.0528,0 -0.10567,0 -0.13209,0.02642 -0.13289,0.05364 -0.18573,0.159309 -0.18573,0.318618 0,0.07925 0.0264,0.211345 0.0793,0.317817 1.05992,2.464085 1.48421,3.868245 1.48421,5.77675 0,2.199104 -0.76853,3.338283 -1.24565,4.159644 -1.72198,2.941207 -4.50468,4.372587 -5.61744,4.743237 -0.18573,0.0801 -0.21215,0.21215 -0.21215,0.2914 v 5.9889 m -160.322418,3.30946 c 0,0.18573 0.158509,0.34423 0.344236,0.34423 0.13209,0 0.291399,-0.10567 0.317817,-0.21214 0,-0.0264 0.238563,-0.95345 0.264981,-1.03351 0.02642,-0.10567 0.264981,-1.11276 1.219234,-2.67623 1.033506,-1.72197 2.623393,-2.96763 3.948299,-4.82249 1.298488,-1.85487 2.093431,-3.60327 2.093431,-5.935258 0,-2.411249 -0.55718,-4.425426 -1.96134,-6.995984 -0.07925,-0.184926 -0.238564,-0.291399 -0.397072,-0.291399 -0.05364,0 -0.106473,0 -0.132891,0.02642 -0.13209,0.05364 -0.185727,0.159309 -0.185727,0.318618 0,0.07925 0.02722,0.211344 0.08006,0.317817 1.059925,2.464085 1.483414,3.868245 1.483414,5.77675 0,2.199106 -0.768525,3.338286 -1.244851,4.159646 -1.722778,2.94121 -4.50468,4.37259 -5.618241,4.74325 -0.184927,0.0792 -0.211345,0.21214 -0.211345,0.29139 v 5.9889 M 317.59434,6.3005432 V 28.407223 h 0.66201 V 6.3005432 Z M 64.523649,17.340435 v 22.053517 h 0.662173 V 17.340435 Z m 93.019691,61.765357 v 22.107148 h 0.66202 V 79.105792 Z M 72.491593,74.142399 v 20.451639 h 0.662021 V 74.142399 Z M 179.47834,85.724846 v 22.106214 h 0.66201 V 85.724846 Z M 86.545888,17.340435 V 36.049169 H 87.20806 V 17.340435 Z M 611.95326,77.487182 v 17.106856 h 0.66201 V 77.487182 Z m -14.62281,1.583426 v 18.832877 h 0.66202 V 79.070608 Z M 101.22718,14.031141 v 20.434601 h 0.66201 V 14.031141 Z m 100.18694,71.693705 v 22.106214 h 0.66202 V 85.724846 Z m 373.98055,-9.927724 v 22.106363 h 0.66202 V 75.797122 Z M 634.5839,16.228581 v 22.106206 h 0.66201 V 16.228581 Z m -518.67543,-5.50689 v 23.744051 h 0.66201 V 10.721691 Z m 429.60812,82.733913 v 18.744066 h 0.66201 V 93.455604 Z M 130.59054,17.340435 v 18.708734 h 0.66201 V 17.340435 Z m 472.50619,-1.111854 v 22.106206 h 0.66202 V 16.228581 Z M 224.87172,93.455604 v 18.744066 h 0.66202 V 93.455604 Z M 581.07449,16.228581 v 22.106206 h 0.66201 V 16.228581 Z m 58.87713,59.568541 v 22.106363 h 0.66202 V 75.797122 Z M 559.05225,9.6098371 V 31.71667 h 0.66201 V 9.6098371 Z M 158.58875,7.412397 V 29.46638 h 0.66216 V 7.412397 Z m 355.52793,79.424305 v 22.053518 h 0.66201 V 86.836702 Z m -261.43876,3.309455 v 20.372363 h 0.66201 V 90.146157 Z M 527.56509,4.6458182 V 25.097769 h 0.66202 V 4.6458182 Z M 275.2446,74.177735 v 17.106857 h 0.66202 V 74.177735 Z m 222.35595,-56.8373 v 22.053517 h 0.66216 V 17.340435 Z M 289.8682,75.761161 v 18.832877 h 0.66201 V 75.761161 Z M 475.5783,17.340435 v 22.053517 h 0.66217 V 17.340435 Z m -294.96715,0 v 22.053517 h 0.66201 V 17.340435 Z M 500.12398,79.105792 V 101.21294 H 500.786 V 79.105792 Z M 202.63339,17.340435 v 22.053517 h 0.66201 V 17.340435 Z m 244.9467,3.309294 v 18.780183 h 0.66202 V 20.649729 Z m 30.60889,53.49267 v 20.451639 h 0.66203 V 74.142399 Z m -160.32321,1.654723 v 22.106363 h 0.66202 V 75.797122 Z M 432.89802,23.959334 v 17.053228 h 0.66202 V 23.959334 Z m -93.09647,58.455905 v 22.106371 h 0.66202 V 82.415239 Z M 426.15904,7.9907613 V 25.097769 h 0.66201 V 7.9907613 Z M 361.73655,82.415239 v 22.106371 h 0.66202 V 82.415239 Z M 234.12039,23.959334 v 18.744064 h 0.66217 V 23.959334 Z M 411.47775,9.5741879 V 28.407223 h 0.66202 V 9.5741879 Z M 264.08494,6.3005432 V 28.407223 h 0.66202 V 6.3005432 Z M 396.79646,7.9907613 V 25.097769 h 0.66201 V 7.9907613 Z M 385.19415,90.146157 v 20.398783 h 0.66202 V 90.146157 Z M 114.92139,77.487182 v 17.106856 h 0.66201 V 77.487182 Z M 382.11439,9.5741879 V 28.407223 h 0.66217 V 9.5741879 Z M 286.10719,6.3005432 V 28.407223 h 0.66201 V 6.3005432 Z M 442.24832,93.455604 v 17.053376 h 0.66217 V 93.455604 Z M 413.00113,86.836702 V 108.8638 h 0.66202 V 86.836702 Z M 350.6274,16.228581 v 22.106206 h 0.66201 V 16.228581 Z m 76.99733,73.917576 v 18.780023 h 0.66217 V 90.146157 Z M 92.355492,93.455604 v 20.372366 h 0.662165 V 93.455604 Z M 129.54498,79.070608 V 97.903485 H 130.207 V 79.070608 Z M 466.11307,9.2458378 V 36.448658 h 1.19129 V 9.2458378 Z M 300.45903,78.742416 v 27.202514 h 1.19128 V 78.742416 Z M 224.65517,9.2458378 V 36.448658 h 1.19128 V 9.2458378 Z M 375.72971,78.742416 v 27.202514 h 1.19113 V 78.742416 Z m 85.05175,0 v 27.202514 h 1.19112 V 78.742416 Z M 364.7078,9.2458378 V 36.448658 h 1.19113 V 9.2458378 Z m 176.93692,0 V 36.448658 H 542.836 V 9.2458378 Z m -392.5212,0 V 36.448658 h 1.19128 V 9.2458378 Z M 536.05215,78.742416 v 27.202514 h 1.19112 V 78.742416 Z M 617.17636,9.2458378 V 36.448658 h 1.19129 V 9.2458378 Z M 215.40728,78.742416 v 27.202514 h 1.19113 V 78.742416 Z M 677.35954,9.2458378 V 36.448658 h 3.64015 V 9.2458378 Z m -3.63967,0 V 36.448658 H 674.911 V 9.2458378 Z m -2.44731,16.9110072 c 0,-0.768526 -0.60921,-1.404961 -1.37774,-1.404961 -0.76852,0 -1.37774,0.636435 -1.37774,1.404961 0,0.768525 0.60922,1.40416 1.37774,1.40416 0.76853,0 1.37774,-0.635635 1.37774,-1.40416 m 0,-6.619006 c 0,-0.768445 -0.60921,-1.4044 -1.37774,-1.4044 -0.76852,0 -1.37774,0.635955 -1.37774,1.4044 0,0.768445 0.60922,1.4044 1.37774,1.4044 0.76853,0 1.37774,-0.635955 1.37774,-1.4044 m 6.08698,59.204577 v 27.202514 h 3.64015 V 78.742416 Z m -3.63967,0 V 105.94493 H 674.911 V 78.742416 Z m -51.17499,0 v 27.202514 h 1.19113 V 78.742416 Z M 56.277667,95.653163 c 0,-0.768526 -0.610017,-1.404961 -1.378543,-1.404961 -0.768525,0 -1.377742,0.636435 -1.377742,1.404961 0,0.768525 0.609217,1.40416 1.377742,1.40416 0.768526,0 1.378543,-0.635635 1.378543,-1.40416 m 0,-6.618926 c 0,-0.768526 -0.610017,-1.40416 -1.378543,-1.40416 -0.768525,0 -1.377742,0.635634 -1.377742,1.40416 0,0.768525 0.609217,1.40416 1.377742,1.40416 0.768526,0 1.378543,-0.635635 1.378543,-1.40416 M 49.881293,78.742416 V 105.94493 H 51.07258 V 78.742416 Z m -6.088539,0 v 27.202514 h 3.639993 V 78.742416 Z m 96.343836,0 v 27.202514 h 1.19129 V 78.742416 Z M 300.18681,9.2458378 V 36.448658 h 1.19128 V 9.2458378 Z M 0,105.21693 v 0.72769 h 681 v -0.72769 z m 0,-6.618121 v 0.727681 h 681 v -0.727681 z m 0,-6.618902 v 0.727682 h 681 v -0.727682 z m 0,-6.619054 v 0.727842 h 681 v -0.727842 z m 0,-6.618901 v 0.727681 H 681 V 78.741952 Z M 0,35.720656 v 0.727689 h 681 v -0.727689 z m 0,-6.618269 v 0.727841 h 681 v -0.727841 z m 0,-6.61906 v 0.727685 h 681 v -0.727685 z m 0,-6.618588 v 0.727684 H 681 V 15.864739 Z M 0,9.2459947 V 9.9736795 H 681 V 9.2459947 Z"
     style="stroke-width:0.0800547" />
  <metadata
     id="metadata156">
    <rdf:RDF>
      <cc:Work
         rdf:about="">
        <dc:title>air_LII</dc:title>
      </cc:Work>
    </rdf:RDF>
  </metadata>
</svg>
