<?xml version="1.0" encoding="UTF-8" standalone="no"?>
<svg width="210.058mm" height="296.926mm" viewBox="0 0 9924 14028"
 xmlns="http://www.w3.org/2000/svg" xmlns:xlink="http://www.w3.org/1999/xlink" version="1.2" baseProfile="full">
<title>air_LXI</title>
<desc>Generated by MuseScore Studio 4.7.3</desc>
<polyline class="StaffLines" fill="none" stroke="#000000" stroke-width="9.09" stroke-linejoin="bevel" points="708.661,828.424 9215.34,828.424" />
<polyline class="StaffLines" fill="none" stroke="#000000" stroke-width="9.09" stroke-linejoin="bevel" points="708.661,911.101 9215.34,911.101" />
<polyline class="StaffLines" fill="none" stroke="#000000" stroke-width="9.09" stroke-linejoin="bevel" points="708.661,993.778 9215.34,993.778" />
<polyline class="StaffLines" fill="none" stroke="#000000" stroke-width="9.09" stroke-linejoin="bevel" points="708.661,1076.46 9215.34,1076.46" />
<polyline class="StaffLines" fill="none" stroke="#000000" stroke-width="9.09" stroke-linejoin="bevel" points="708.661,1159.13 9215.34,1159.13" />
<polyline class="StaffLines" fill="none" stroke="#000000" stroke-width="9.09" stroke-linejoin="bevel" points="708.661,1696.53 9215.34,1696.53" />
<polyline class="StaffLines" fill="none" stroke="#000000" stroke-width="9.09" stroke-linejoin="bevel" points="708.661,1779.21 9215.34,1779.21" />
<polyline class="StaffLines" fill="none" stroke="#000000" stroke-width="9.09" stroke-linejoin="bevel" points="708.661,1861.89 9215.34,1861.89" />
<polyline class="StaffLines" fill="none" stroke="#000000" stroke-width="9.09" stroke-linejoin="bevel" points="708.661,1944.57 9215.34,1944.57" />
<polyline class="StaffLines" fill="none" stroke="#000000" stroke-width="9.09" stroke-linejoin="bevel" points="708.661,2027.24 9215.34,2027.24" />
<polyline class="BarLine" fill="none" stroke="#000000" stroke-width="14.88" stroke-linejoin="bevel" points="1807.41,823.876 1807.41,1163.68" />
<polyline class="BarLine" fill="none" stroke="#000000" stroke-width="14.88" stroke-linejoin="bevel" points="5626.19,1691.99 5626.19,2031.79" />
<polyline class="BarLine" fill="none" stroke="#000000" stroke-width="14.88" stroke-linejoin="bevel" points="9207.9,823.876 9207.9,1163.68" />
<polyline class="BarLine" fill="none" stroke="#000000" stroke-width="14.88" stroke-linejoin="bevel" points="9131.84,1691.99 9131.84,2031.79" />
<polyline class="BarLine" fill="none" stroke="#000000" stroke-width="45.47" stroke-linejoin="bevel" points="9192.6,1691.99 9192.6,2031.79" />
<polyline class="BarLine" fill="none" stroke="#000000" stroke-width="14.88" stroke-linejoin="bevel" points="5507.65,823.876 5507.65,1163.68" />
<polyline class="Stem" fill="none" stroke="#000000" stroke-width="8.27" stroke-linejoin="bevel" points="7421.15,924.991 7421.15,1200.14" />
<polyline class="Stem" fill="none" stroke="#000000" stroke-width="8.27" stroke-linejoin="bevel" points="7706.5,883.652 7706.5,1159.13" />
<polyline class="Stem" fill="none" stroke="#000000" stroke-width="8.27" stroke-linejoin="bevel" points="2464.93,1007.67 2464.93,1262.15" />
<polyline class="Stem" fill="none" stroke="#000000" stroke-width="8.27" stroke-linejoin="bevel" points="6522.82,1834.44 6522.82,2089.25" />
<polyline class="Stem" fill="none" stroke="#000000" stroke-width="8.27" stroke-linejoin="bevel" points="2750.28,966.329 2750.28,1221.14" />
<polyline class="Stem" fill="none" stroke="#000000" stroke-width="8.27" stroke-linejoin="bevel" points="5741.11,1793.1 5741.11,2068.58" />
<polyline class="Stem" fill="none" stroke="#000000" stroke-width="8.27" stroke-linejoin="bevel" points="3178.31,966.329 3178.31,1221.14" />
<polyline class="Stem" fill="none" stroke="#000000" stroke-width="8.27" stroke-linejoin="bevel" points="7924.89,1890 7924.89,1634.53" />
<polyline class="Stem" fill="none" stroke="#000000" stroke-width="8.27" stroke-linejoin="bevel" points="5101.74,1834.44 5101.74,2089.25" />
<polyline class="Stem" fill="none" stroke="#000000" stroke-width="8.27" stroke-linejoin="bevel" points="4580.6,1875.78 4580.6,2109.92" />
<polyline class="Stem" fill="none" stroke="#000000" stroke-width="8.27" stroke-linejoin="bevel" points="3720.9,924.991 3720.9,1200.14" />
<polyline class="Stem" fill="none" stroke="#000000" stroke-width="8.27" stroke-linejoin="bevel" points="4158.67,1890 4158.67,1634.53" />
<polyline class="Stem" fill="none" stroke="#000000" stroke-width="8.27" stroke-linejoin="bevel" points="4006.25,966.329 4006.25,1221.14" />
<polyline class="Stem" fill="none" stroke="#000000" stroke-width="8.27" stroke-linejoin="bevel" points="3637.53,1931.34 3637.53,1655.2" />
<polyline class="Stem" fill="none" stroke="#000000" stroke-width="8.27" stroke-linejoin="bevel" points="4434.28,966.329 4434.28,1221.14" />
<polyline class="Stem" fill="none" stroke="#000000" stroke-width="8.27" stroke-linejoin="bevel" points="2855.81,1972.68 2855.81,1696.53" />
<polyline class="Stem" fill="none" stroke="#000000" stroke-width="8.27" stroke-linejoin="bevel" points="5175.53,1063.23 5175.53,787.085" />
<polyline class="Stem" fill="none" stroke="#000000" stroke-width="8.27" stroke-linejoin="bevel" points="2334.67,1972.68 2334.67,1696.53" />
<polyline class="Stem" fill="none" stroke="#000000" stroke-width="8.27" stroke-linejoin="bevel" points="1475.29,1063.23 1475.29,787.085" />
<polyline class="Stem" fill="none" stroke="#000000" stroke-width="8.27" stroke-linejoin="bevel" points="8446.03,1931.34 8446.03,1655.2" />
<polyline class="Stem" fill="none" stroke="#000000" stroke-width="8.27" stroke-linejoin="bevel" points="5721.79,1021.89 5721.79,766.416" />
<polyline class="Stem" fill="none" stroke="#000000" stroke-width="8.27" stroke-linejoin="bevel" points="1813.53,1972.68 1813.53,1696.53" />
<polyline class="Stem" fill="none" stroke="#000000" stroke-width="8.27" stroke-linejoin="bevel" points="1292.39,1890 1292.39,1634.53" />
<polyline class="Stem" fill="none" stroke="#000000" stroke-width="8.27" stroke-linejoin="bevel" points="2021.54,1021.89 2021.54,766.416" />
<polyline class="Stem" fill="none" stroke="#000000" stroke-width="8.27" stroke-linejoin="bevel" points="6165.17,1007.67 6165.17,1262.15" />
<polyline class="Stem" fill="none" stroke="#000000" stroke-width="8.27" stroke-linejoin="bevel" points="8776.57,842.313 8776.57,1117.79" />
<polyline class="Stem" fill="none" stroke="#000000" stroke-width="8.27" stroke-linejoin="bevel" points="6450.52,966.329 6450.52,1221.14" />
<polyline class="Stem" fill="none" stroke="#000000" stroke-width="8.27" stroke-linejoin="bevel" points="8134.53,842.313 8134.53,1117.79" />
<polyline class="Stem" fill="none" stroke="#000000" stroke-width="8.27" stroke-linejoin="bevel" points="6878.55,966.329 6878.55,1221.14" />
<polyline class="Stem" fill="none" stroke="#000000" stroke-width="8.27" stroke-linejoin="bevel" points="7043.96,1875.78 7043.96,2109.92" />
<path class="Hook" d="M7417.01,1200.14 C7417.01,1202.46 7419,1204.44 7421.32,1204.44 C7422.97,1204.44 7424.96,1203.12 7425.29,1201.79 C7425.29,1201.46 7428.27,1189.88 7428.6,1188.89 C7428.93,1187.56 7431.91,1174.98 7443.83,1155.45 C7456.73,1133.94 7476.59,1118.38 7493.14,1095.21 C7509.36,1072.04 7519.29,1050.2 7519.29,1021.07 C7519.29,990.948 7512.34,965.792 7494.8,933.685 C7493.81,931.368 7491.82,930.044 7489.83,930.044 C7489.17,930.044 7488.51,930.044 7488.18,930.375 C7486.52,931.037 7485.86,932.361 7485.86,934.347 C7485.86,935.34 7486.19,936.995 7486.86,938.319 C7500.1,969.102 7505.39,986.645 7505.39,1010.48 C7505.39,1037.95 7495.79,1052.18 7489.83,1062.44 C7468.32,1099.18 7433.56,1117.06 7419.66,1121.69 C7417.35,1122.69 7417.01,1124.34 7417.01,1125.33 L7417.01,1200.14 "/>
<path class="Hook" d="M6161.04,1262.15 C6161.04,1264.46 6163.03,1266.45 6165.34,1266.45 C6167,1266.45 6168.98,1265.13 6169.31,1263.8 C6169.31,1263.47 6172.29,1251.89 6172.62,1250.89 C6172.96,1249.57 6175.93,1236.99 6187.85,1217.46 C6200.76,1195.95 6220.62,1180.39 6237.17,1157.22 C6253.39,1134.05 6263.32,1112.2 6263.32,1083.08 C6263.32,1052.96 6256.37,1027.8 6238.82,995.693 C6237.83,993.376 6235.85,992.052 6233.86,992.052 C6233.2,992.052 6232.54,992.052 6232.2,992.383 C6230.55,993.045 6229.89,994.369 6229.89,996.355 C6229.89,997.348 6230.22,999.003 6230.88,1000.33 C6244.12,1031.11 6249.42,1048.65 6249.42,1072.48 C6249.42,1099.96 6239.82,1114.19 6233.86,1124.45 C6212.34,1161.19 6177.59,1179.07 6163.69,1183.7 C6161.37,1184.69 6161.04,1186.35 6161.04,1187.34 L6161.04,1262.15 "/>
<path class="Hook" d="M2460.79,1262.15 C2460.79,1264.46 2462.78,1266.45 2465.1,1266.45 C2466.75,1266.45 2468.74,1265.13 2469.07,1263.8 C2469.07,1263.47 2472.05,1251.89 2472.38,1250.89 C2472.71,1249.57 2475.69,1236.99 2487.6,1217.46 C2500.51,1195.95 2520.37,1180.39 2536.92,1157.22 C2553.14,1134.05 2563.07,1112.2 2563.07,1083.08 C2563.07,1052.96 2556.12,1027.8 2538.58,995.693 C2537.59,993.376 2535.6,992.052 2533.61,992.052 C2532.95,992.052 2532.29,992.052 2531.96,992.383 C2530.3,993.045 2529.64,994.369 2529.64,996.355 C2529.64,997.348 2529.97,999.003 2530.63,1000.33 C2543.87,1031.11 2549.17,1048.65 2549.17,1072.48 C2549.17,1099.96 2539.57,1114.19 2533.61,1124.45 C2512.1,1161.19 2477.34,1179.07 2463.44,1183.7 C2461.12,1184.69 2460.79,1186.35 2460.79,1187.34 L2460.79,1262.15 "/>
<path class="Hook" d="M3716.77,1200.14 C3716.77,1202.46 3718.76,1204.44 3721.07,1204.44 C3722.73,1204.44 3724.71,1203.12 3725.04,1201.79 C3725.04,1201.46 3728.02,1189.88 3728.35,1188.89 C3728.69,1187.56 3731.66,1174.98 3743.58,1155.45 C3756.49,1133.94 3776.35,1118.38 3792.9,1095.21 C3809.12,1072.04 3819.05,1050.2 3819.05,1021.07 C3819.05,990.948 3812.1,965.792 3794.55,933.685 C3793.56,931.368 3791.58,930.044 3789.59,930.044 C3788.93,930.044 3788.27,930.044 3787.93,930.375 C3786.28,931.037 3785.62,932.361 3785.62,934.347 C3785.62,935.34 3785.95,936.995 3786.61,938.319 C3799.85,969.102 3805.15,986.645 3805.15,1010.48 C3805.15,1037.95 3795.55,1052.18 3789.59,1062.44 C3768.07,1099.18 3733.32,1117.06 3719.42,1121.69 C3717.1,1122.69 3716.77,1124.34 3716.77,1125.33 L3716.77,1200.14 "/>
<path class="Note" d="M1371.94,1090.36 C1371.94,1104.59 1382.2,1120.48 1409.01,1120.48 C1443.44,1120.48 1479.52,1092.34 1479.52,1063.22 C1479.52,1043.69 1462.97,1032.76 1442.44,1032.76 C1410.34,1032.76 1371.94,1059.91 1371.94,1090.36"/>
<path class="Note" d="M5761.8,1807.68 C5750.88,1807.68 5748.56,1798.74 5748.56,1795.76 C5748.56,1779.54 5804.17,1751.08 5819.73,1751.08 C5827.67,1751.08 5832.97,1755.71 5832.97,1762.99 C5832.97,1779.54 5777.03,1807.68 5761.8,1807.68 M5807.48,1735.52 C5775.37,1735.52 5736.98,1762.33 5736.98,1793.11 C5736.98,1807.35 5747.24,1823.23 5774.05,1823.23 C5808.47,1823.23 5844.55,1795.1 5844.55,1765.97 C5844.55,1746.44 5828,1735.52 5807.48,1735.52"/>
<path class="Note" d="M6446.39,966.341 C6446.39,980.574 6456.65,996.462 6483.46,996.462 C6517.89,996.462 6553.97,968.327 6553.97,939.199 C6553.97,919.67 6537.42,908.747 6516.89,908.747 C6484.79,908.747 6446.39,935.889 6446.39,966.341"/>
<path class="Note" d="M8155.22,856.89 C8144.29,856.89 8141.98,847.953 8141.98,844.974 C8141.98,828.755 8197.59,800.289 8213.14,800.289 C8221.09,800.289 8226.38,804.923 8226.38,812.205 C8226.38,828.755 8170.44,856.89 8155.22,856.89 M8200.9,784.732 C8168.79,784.732 8130.39,811.543 8130.39,842.326 C8130.39,856.559 8140.65,872.447 8167.46,872.447 C8201.89,872.447 8237.97,844.312 8237.97,815.184 C8237.97,795.655 8221.42,784.732 8200.9,784.732"/>
<path class="Note" d="M6161.04,1007.68 C6161.04,1021.91 6171.3,1037.8 6198.11,1037.8 C6232.54,1037.8 6268.61,1009.67 6268.61,980.538 C6268.61,961.009 6252.06,950.086 6231.54,950.086 C6199.44,950.086 6161.04,977.228 6161.04,1007.68"/>
<path class="Note" d="M8772.43,842.326 C8772.43,856.559 8782.69,872.447 8809.5,872.447 C8843.93,872.447 8880.01,844.312 8880.01,815.184 C8880.01,795.655 8863.46,784.732 8842.94,784.732 C8810.83,784.732 8772.43,811.874 8772.43,842.326"/>
<path class="Note" d="M8367.51,1973.03 C8356.59,1973.03 8354.27,1964.09 8354.27,1961.12 C8354.27,1944.9 8409.88,1916.43 8425.43,1916.43 C8433.38,1916.43 8438.67,1921.06 8438.67,1928.35 C8438.67,1944.9 8382.73,1973.03 8367.51,1973.03 M8413.19,1900.87 C8381.08,1900.87 8342.68,1927.68 8342.68,1958.47 C8342.68,1972.7 8352.94,1988.59 8379.76,1988.59 C8414.18,1988.59 8450.26,1960.45 8450.26,1931.33 C8450.26,1911.8 8433.71,1900.87 8413.19,1900.87"/>
<path class="Note" d="M6874.42,966.341 C6874.42,980.574 6884.68,996.462 6911.49,996.462 C6945.91,996.462 6981.99,968.327 6981.99,939.199 C6981.99,919.67 6965.44,908.747 6944.92,908.747 C6912.81,908.747 6874.42,935.889 6874.42,966.341"/>
<path class="Note" d="M1918.2,1049.02 C1918.2,1063.25 1928.46,1079.14 1955.27,1079.14 C1989.69,1079.14 2025.77,1051 2025.77,1021.88 C2025.77,1002.35 2009.22,991.425 1988.7,991.425 C1956.59,991.425 1918.2,1018.57 1918.2,1049.02"/>
<path class="Note" d="M7821.54,1917.13 C7821.54,1931.36 7831.8,1947.25 7858.61,1947.25 C7893.04,1947.25 7929.12,1919.11 7929.12,1889.99 C7929.12,1870.46 7912.57,1859.53 7892.04,1859.53 C7859.94,1859.53 7821.54,1886.68 7821.54,1917.13"/>
<path class="Note" d="M7064.65,1890.35 C7053.73,1890.35 7051.41,1881.42 7051.41,1878.44 C7051.41,1862.22 7107.02,1833.75 7122.58,1833.75 C7130.52,1833.75 7135.82,1838.39 7135.82,1845.67 C7135.82,1862.22 7079.88,1890.35 7064.65,1890.35 M7110.33,1818.2 C7078.23,1818.2 7039.83,1845.01 7039.83,1875.79 C7039.83,1890.02 7050.09,1905.91 7076.9,1905.91 C7111.33,1905.91 7147.4,1877.78 7147.4,1848.65 C7147.4,1829.12 7130.85,1818.2 7110.33,1818.2"/>
<path class="Note" d="M1189.04,1917.13 C1189.04,1931.36 1199.3,1947.25 1226.11,1947.25 C1260.54,1947.25 1296.62,1919.11 1296.62,1889.99 C1296.62,1870.46 1280.07,1859.53 1259.54,1859.53 C1227.44,1859.53 1189.04,1886.68 1189.04,1917.13"/>
<path class="Note" d="M5618.44,1049.02 C5618.44,1063.25 5628.7,1079.14 5655.51,1079.14 C5689.94,1079.14 5726.02,1051 5726.02,1021.88 C5726.02,1002.35 5709.47,991.425 5688.95,991.425 C5656.84,991.425 5618.44,1018.57 5618.44,1049.02"/>
<path class="Note" d="M1710.18,1999.81 C1710.18,2014.04 1720.44,2029.93 1747.26,2029.93 C1781.68,2029.93 1817.76,2001.79 1817.76,1972.66 C1817.76,1953.14 1801.21,1942.21 1780.69,1942.21 C1748.58,1942.21 1710.18,1969.35 1710.18,1999.81"/>
<path class="Note" d="M5072.19,1090.36 C5072.19,1104.59 5082.45,1120.48 5109.26,1120.48 C5143.68,1120.48 5179.76,1092.34 5179.76,1063.22 C5179.76,1043.69 5163.21,1032.76 5142.69,1032.76 C5110.58,1032.76 5072.19,1059.91 5072.19,1090.36"/>
<path class="Note" d="M2231.33,1999.81 C2231.33,2014.04 2241.59,2029.93 2268.4,2029.93 C2302.82,2029.93 2338.9,2001.79 2338.9,1972.66 C2338.9,1953.14 2322.35,1942.21 2301.83,1942.21 C2269.72,1942.21 2231.33,1969.35 2231.33,1999.81"/>
<path class="Note" d="M4454.97,980.905 C4444.05,980.905 4441.73,971.968 4441.73,968.989 C4441.73,952.77 4497.34,924.304 4512.9,924.304 C4520.84,924.304 4526.14,928.938 4526.14,936.22 C4526.14,952.77 4470.2,980.905 4454.97,980.905 M4500.65,908.747 C4468.54,908.747 4430.15,935.558 4430.15,966.341 C4430.15,980.574 4440.41,996.462 4467.22,996.462 C4501.64,996.462 4537.72,968.327 4537.72,939.199 C4537.72,919.67 4521.17,908.747 4500.65,908.747"/>
<path class="Note" d="M2777.29,2014.37 C2766.37,2014.37 2764.05,2005.43 2764.05,2002.45 C2764.05,1986.24 2819.66,1957.77 2835.22,1957.77 C2843.16,1957.77 2848.46,1962.4 2848.46,1969.69 C2848.46,1986.24 2792.52,2014.37 2777.29,2014.37 M2822.97,1942.21 C2790.86,1942.21 2752.47,1969.02 2752.47,1999.81 C2752.47,2014.04 2762.73,2029.93 2789.54,2029.93 C2823.96,2029.93 2860.04,2001.79 2860.04,1972.66 C2860.04,1953.14 2843.49,1942.21 2822.97,1942.21"/>
<path class="Note" d="M4002.12,966.341 C4002.12,980.574 4012.38,996.462 4039.19,996.462 C4073.62,996.462 4109.7,968.327 4109.7,939.199 C4109.7,919.67 4093.15,908.747 4072.62,908.747 C4040.52,908.747 4002.12,935.889 4002.12,966.341"/>
<path class="Note" d="M3534.18,1958.47 C3534.18,1972.7 3544.44,1988.59 3571.25,1988.59 C3605.68,1988.59 3641.75,1960.45 3641.75,1931.33 C3641.75,1911.8 3625.2,1900.87 3604.68,1900.87 C3572.58,1900.87 3534.18,1928.02 3534.18,1958.47"/>
<path class="Note" d="M3716.77,925.003 C3716.77,939.236 3727.03,955.124 3753.84,955.124 C3788.27,955.124 3824.34,926.989 3824.34,897.861 C3824.34,878.332 3807.79,867.409 3787.27,867.409 C3755.17,867.409 3716.77,894.551 3716.77,925.003"/>
<path class="Note" d="M4055.32,1917.13 C4055.32,1931.36 4065.58,1947.25 4092.39,1947.25 C4126.82,1947.25 4162.9,1919.11 4162.9,1889.99 C4162.9,1870.46 4146.35,1859.53 4125.82,1859.53 C4093.72,1859.53 4055.32,1886.68 4055.32,1917.13"/>
<path class="Note" d="M7417.01,925.003 C7417.01,939.236 7427.28,955.124 7454.09,955.124 C7488.51,955.124 7524.59,926.989 7524.59,897.861 C7524.59,878.332 7508.04,867.409 7487.52,867.409 C7455.41,867.409 7417.01,894.551 7417.01,925.003"/>
<path class="Note" d="M4576.46,1875.79 C4576.46,1890.02 4586.72,1905.91 4613.54,1905.91 C4647.96,1905.91 4684.04,1877.78 4684.04,1848.65 C4684.04,1829.12 4667.49,1818.2 4646.97,1818.2 C4614.86,1818.2 4576.46,1845.34 4576.46,1875.79"/>
<path class="Note" d="M6518.69,1834.45 C6518.69,1848.68 6528.95,1864.57 6555.76,1864.57 C6590.18,1864.57 6626.26,1836.44 6626.26,1807.31 C6626.26,1787.78 6609.71,1776.86 6589.19,1776.86 C6557.08,1776.86 6518.69,1804 6518.69,1834.45"/>
<path class="Note" d="M5097.6,1834.45 C5097.6,1848.68 5107.87,1864.57 5134.68,1864.57 C5169.1,1864.57 5205.18,1836.44 5205.18,1807.31 C5205.18,1787.78 5188.63,1776.86 5168.11,1776.86 C5136,1776.86 5097.6,1804 5097.6,1834.45"/>
<path class="Note" d="M2460.79,1007.68 C2460.79,1021.91 2471.05,1037.8 2497.87,1037.8 C2532.29,1037.8 2568.37,1009.67 2568.37,980.538 C2568.37,961.009 2551.82,950.086 2531.3,950.086 C2499.19,950.086 2460.79,977.228 2460.79,1007.68"/>
<path class="Note" d="M3174.17,966.341 C3174.17,980.574 3184.43,996.462 3211.24,996.462 C3245.67,996.462 3281.75,968.327 3281.75,939.199 C3281.75,919.67 3265.2,908.747 3244.67,908.747 C3212.57,908.747 3174.17,935.889 3174.17,966.341"/>
<path class="Note" d="M2746.15,966.341 C2746.15,980.574 2756.41,996.462 2783.22,996.462 C2817.64,996.462 2853.72,968.327 2853.72,939.199 C2853.72,919.67 2837.17,908.747 2816.65,908.747 C2784.54,908.747 2746.15,935.889 2746.15,966.341"/>
<path class="Note" d="M7702.37,883.664 C7702.37,897.897 7712.63,913.785 7739.44,913.785 C7773.86,913.785 7809.94,885.65 7809.94,856.522 C7809.94,836.993 7793.39,826.07 7772.87,826.07 C7740.76,826.07 7702.37,853.212 7702.37,883.664"/>
<path class="Clef" d="M909.689,1144.64 C903.069,1145.97 896.78,1146.63 890.491,1146.63 C843.158,1146.63 802.776,1113.53 802.776,1063.55 C802.776,1023.16 831.242,987.085 860.37,961.929 C865.997,956.964 871.293,952.33 876.258,947.365 C879.237,965.239 881.554,980.796 883.871,994.367 C853.75,1003.3 833.228,1035.08 833.228,1066.19 C833.228,1089.36 851.433,1121.14 877.913,1121.14 C880.561,1121.14 883.54,1119.82 883.54,1116.84 C883.54,1113.86 880.23,1112.2 876.258,1109.56 C863.349,1101.61 856.067,1093.01 856.067,1076.79 C856.067,1056.6 870.962,1040.38 890.491,1035.74 L909.689,1144.64 M880.561,804.373 C883.54,791.133 898.766,756.378 915.978,756.378 C920.943,756.378 928.887,772.597 928.887,795.436 C928.887,829.86 903.4,855.678 880.561,878.186 C878.575,864.946 876.92,852.037 876.92,838.135 C876.92,825.888 877.913,814.634 880.561,804.373 M956.691,1083.41 C956.691,1106.91 947.092,1131.07 923.591,1140.67 C916.64,1100.95 907.703,1048.32 905.386,1033.76 C935.176,1033.76 956.691,1053.95 956.691,1083.41 M811.051,1246.26 C811.051,1268.1 827.932,1296.9 872.617,1296.9 C888.174,1296.9 901.745,1292.93 913.661,1285.65 C931.535,1273.07 936.169,1251.22 936.169,1230.37 C936.169,1217.46 934.183,1202.57 930.873,1183.7 C929.88,1177.08 927.894,1167.15 925.908,1154.24 C958.346,1143.65 982.509,1109.89 982.509,1075.79 C982.509,1025.81 947.092,992.05 898.766,992.05 C895.456,972.19 892.146,952.661 889.167,934.125 C924.253,897.384 948.416,856.009 948.416,803.38 C948.416,773.259 939.148,748.765 933.852,736.849 C925.908,719.968 916.309,708.383 910.351,708.383 C908.034,708.383 897.773,712.355 886.85,725.264 C865.666,750.42 859.708,792.788 859.708,820.592 C859.708,838.466 861.363,854.685 866.99,891.757 C866.659,892.088 849.447,909.631 842.496,915.258 C812.375,943.393 770.669,983.444 770.669,1049.64 C770.669,1111.54 824.622,1160.2 886.188,1160.2 C895.787,1160.2 904.724,1159.21 912.337,1157.88 C918.626,1189.66 922.267,1212.83 922.267,1230.37 C922.267,1264.79 904.724,1283 871.293,1283 C863.349,1283 856.398,1281.34 855.736,1281.34 C855.405,1281.01 854.743,1280.68 854.743,1280.35 C854.743,1279.69 855.405,1279.36 856.398,1279.03 C871.955,1276.71 887.512,1263.47 887.512,1242.29 C887.512,1224.41 873.941,1205.55 849.116,1205.55 C825.946,1205.55 811.051,1224.41 811.051,1246.26"/>
<path class="Clef" d="M909.689,2012.75 C903.069,2014.08 896.78,2014.74 890.491,2014.74 C843.158,2014.74 802.776,1981.64 802.776,1931.66 C802.776,1891.27 831.242,1855.2 860.37,1830.04 C865.997,1825.07 871.293,1820.44 876.258,1815.48 C879.237,1833.35 881.554,1848.91 883.871,1862.48 C853.75,1871.41 833.228,1903.19 833.228,1934.3 C833.228,1957.47 851.433,1989.25 877.913,1989.25 C880.561,1989.25 883.54,1987.93 883.54,1984.95 C883.54,1981.97 880.23,1980.31 876.258,1977.67 C863.349,1969.72 856.067,1961.12 856.067,1944.9 C856.067,1924.71 870.962,1908.49 890.491,1903.85 L909.689,2012.75 M880.561,1672.48 C883.54,1659.24 898.766,1624.49 915.978,1624.49 C920.943,1624.49 928.887,1640.71 928.887,1663.55 C928.887,1697.97 903.4,1723.79 880.561,1746.3 C878.575,1733.06 876.92,1720.15 876.92,1706.25 C876.92,1694 877.913,1682.74 880.561,1672.48 M956.691,1951.52 C956.691,1975.02 947.092,1999.18 923.591,2008.78 C916.64,1969.06 907.703,1916.43 905.386,1901.87 C935.176,1901.87 956.691,1922.06 956.691,1951.52 M811.051,2114.37 C811.051,2136.21 827.932,2165.01 872.617,2165.01 C888.174,2165.01 901.745,2161.04 913.661,2153.76 C931.535,2141.18 936.169,2119.33 936.169,2098.48 C936.169,2085.57 934.183,2070.68 930.873,2051.81 C929.88,2045.19 927.894,2035.26 925.908,2022.35 C958.346,2011.76 982.509,1978 982.509,1943.9 C982.509,1893.92 947.092,1860.16 898.766,1860.16 C895.456,1840.3 892.146,1820.77 889.167,1802.24 C924.253,1765.49 948.416,1724.12 948.416,1671.49 C948.416,1641.37 939.148,1616.88 933.852,1604.96 C925.908,1588.08 916.309,1576.49 910.351,1576.49 C908.034,1576.49 897.773,1580.47 886.85,1593.37 C865.666,1618.53 859.708,1660.9 859.708,1688.7 C859.708,1706.58 861.363,1722.8 866.99,1759.87 C866.659,1760.2 849.447,1777.74 842.496,1783.37 C812.375,1811.5 770.669,1851.55 770.669,1917.75 C770.669,1979.65 824.622,2028.31 886.188,2028.31 C895.787,2028.31 904.724,2027.32 912.337,2025.99 C918.626,2057.77 922.267,2080.94 922.267,2098.48 C922.267,2132.9 904.724,2151.11 871.293,2151.11 C863.349,2151.11 856.398,2149.45 855.736,2149.45 C855.405,2149.12 854.743,2148.79 854.743,2148.46 C854.743,2147.8 855.405,2147.47 856.398,2147.14 C871.955,2144.82 887.512,2131.58 887.512,2110.4 C887.512,2092.52 873.941,2073.66 849.116,2073.66 C825.946,2073.66 811.051,2092.52 811.051,2114.37"/>
<path class="TimeSig" d="M1133.2,845.386 C1144.12,845.386 1153.06,860.612 1153.06,879.148 C1153.06,897.684 1144.12,912.579 1133.2,912.579 C1122.27,912.579 1113.01,897.684 1113.01,879.148 C1113.01,860.612 1122.27,845.386 1133.2,845.386 M1120.95,928.467 C1141.14,928.467 1148.42,922.509 1153.06,917.544 C1154.05,924.495 1154.71,929.791 1154.71,935.087 C1154.71,953.954 1148.09,978.448 1124.92,978.448 C1116.65,978.448 1111.68,975.8 1108.37,972.159 C1115.32,969.18 1120.95,960.243 1120.95,952.63 C1120.95,940.714 1111.68,931.446 1099.77,931.446 C1087.85,931.446 1078.25,940.714 1078.25,952.63 L1078.25,953.623 C1078.25,956.602 1078.91,961.567 1080.24,964.215 C1084.54,976.131 1098.44,993.674 1131.54,993.674 C1161.33,993.674 1182.85,965.208 1189.47,949.982 C1192.78,942.038 1197.74,925.819 1197.74,907.283 C1197.74,887.092 1192.12,864.253 1172.59,847.041 C1153.39,832.477 1141.14,831.815 1129.56,831.815 C1117.97,831.815 1074.61,845.386 1074.61,883.782 C1074.61,916.22 1100.1,928.467 1120.95,928.467"/>
<path class="TimeSig" d="M1129.24,1118.01 L1129.24,1142.5 L1101.77,1142.5 C1099.45,1142.5 1097.14,1144.49 1097.14,1147.13 L1097.14,1153.42 C1097.14,1156.07 1099.45,1158.06 1101.77,1158.06 L1202.06,1158.06 C1204.71,1158.06 1206.7,1156.07 1206.7,1153.42 L1206.7,1147.13 C1206.7,1144.49 1204.71,1142.5 1202.06,1142.5 L1172.27,1142.5 L1172.27,1118.01 L1202.06,1118.01 C1204.71,1118.01 1206.7,1115.69 1206.7,1113.04 L1206.7,1106.75 C1206.7,1104.44 1204.71,1102.12 1202.06,1102.12 L1172.27,1102.12 L1172.27,1049.49 C1172.27,1047.5 1171.28,1045.85 1169.96,1045.19 L1165.98,1043.2 C1165.32,1042.87 1164.99,1042.87 1164.33,1042.87 C1163.01,1042.87 1161.68,1042.87 1160.69,1043.86 L1130.57,1071.34 C1129.57,1072.33 1129.24,1073.65 1129.24,1074.98 L1129.24,1102.12 L1090.85,1102.12 C1090.85,1102.12 1127.92,1062.4 1166.98,1010.1 C1168.3,1008.45 1168.63,1006.79 1168.63,1005.47 C1168.63,1003.81 1167.97,1002.49 1167.64,1002.16 L1160.36,994.874 C1159.36,994.212 1158.37,993.55 1157.05,993.55 C1155.06,993.55 1110.38,993.55 1107.73,993.55 C1105.41,993.55 1103.76,995.536 1103.43,997.522 C1103.43,997.522 1101.77,1022.02 1093.16,1048.83 C1084.56,1075.64 1074.63,1092.19 1066.02,1104.44 C1066.02,1104.44 1065.03,1106.09 1065.03,1108.08 C1065.03,1108.74 1065.03,1109.4 1065.36,1110.06 C1066.35,1112.38 1068.67,1116.02 1068.67,1116.02 C1068.67,1116.02 1069.33,1118.01 1072.31,1118.01 L1129.24,1118.01 "/>
<path class="NoteDot" d="M3323,952.439 C3323,961.707 3330.29,968.989 3339.55,968.989 C3348.82,968.989 3356.1,961.707 3356.1,952.439 C3356.1,943.171 3348.82,935.889 3339.55,935.889 C3330.29,935.889 3323,943.171 3323,952.439"/>
<path class="NoteDot" d="M7023.25,952.439 C7023.25,961.707 7030.53,968.989 7039.8,968.989 C7049.07,968.989 7056.35,961.707 7056.35,952.439 C7056.35,943.171 7049.07,935.889 7039.8,935.889 C7030.53,935.889 7023.25,943.171 7023.25,952.439"/>
<path class="NoteDot" d="M5767.27,1035.12 C5767.27,1044.38 5774.56,1051.67 5783.82,1051.67 C5793.09,1051.67 5800.37,1044.38 5800.37,1035.12 C5800.37,1025.85 5793.09,1018.57 5783.82,1018.57 C5774.56,1018.57 5767.27,1025.85 5767.27,1035.12"/>
<path class="NoteDot" d="M2067.03,1035.12 C2067.03,1044.38 2074.31,1051.67 2083.58,1051.67 C2092.85,1051.67 2100.13,1044.38 2100.13,1035.12 C2100.13,1025.85 2092.85,1018.57 2083.58,1018.57 C2074.31,1018.57 2067.03,1025.85 2067.03,1035.12"/>
</svg>
