<?xml version="1.0" encoding="UTF-8" standalone="no"?>
<svg
   width="681"
   height="186.10622"
   version="1.2"
   id="svg183"
   xmlns="http://www.w3.org/2000/svg"
   xmlns:svg="http://www.w3.org/2000/svg"
   xmlns:rdf="http://www.w3.org/1999/02/22-rdf-syntax-ns#"
   xmlns:cc="http://creativecommons.org/ns#"
   xmlns:dc="http://purl.org/dc/elements/1.1/">
  <defs
     id="defs183" />
  <title
     id="title1">air_XLV</title>
  <desc
     id="desc1">Generated by MuseScore Studio 4.7.3</desc>
  <path
     id="path183"
     class="NoteDot"
     d="m 541.32131,26.156845 c 0,0.741307 0.5828,1.324906 1.32491,1.324906 0.7421,0 1.3249,-0.583599 1.3249,-1.324906 0,-0.742108 -0.5828,-1.324906 -1.3249,-1.324906 -0.74211,0 -1.32491,0.582798 -1.32491,1.324906 m 100.07403,56.258466 c 0,0.742108 0.5836,1.324906 1.3249,1.324906 0.74211,0 1.32491,-0.582798 1.32491,-1.324906 0,-0.742107 -0.5828,-1.324906 -1.32491,-1.324906 -0.7413,0 -1.3249,0.582799 -1.3249,1.324906 M 60.710298,165.14948 c 0,0.74211 0.583599,1.32491 1.324906,1.32491 0.742107,0 1.324906,-0.5828 1.324906,-1.32491 0,-0.74211 -0.582799,-1.32491 -1.324906,-1.32491 -0.741307,0 -1.324906,0.5828 -1.324906,1.32491 m 162.140462,0 c 0,0.74211 0.5828,1.32491 1.3249,1.32491 0.74131,0 1.32491,-0.5828 1.32491,-1.32491 0,-0.74211 -0.5836,-1.32491 -1.32491,-1.32491 -0.7421,0 -1.3249,0.5828 -1.3249,1.32491 M 344.78133,19.537839 c 0,0.741947 0.5836,1.324906 1.3249,1.324906 0.74211,0 1.32491,-0.582959 1.32491,-1.324906 0,-0.741947 -0.5828,-1.324906 -1.32491,-1.324906 -0.7413,0 -1.3249,0.582959 -1.3249,1.324906 m -8.61389,84.381771 18.30691,-1.65473 v 3.32308 l -18.30691,1.65473 v -3.32308 M 71.379993,6.3004679 H 88.040181 V 9.6098507 H 71.379993 V 6.3004679 m 18.91453,135.6819721 35.956587,1.65393 v 3.31347 l -35.956587,-1.65473 v -3.31267 M 567.76899,2.9890037 600.42572,4.6436551 V 7.9572808 L 567.76899,6.3026294 V 2.9890037 M 252.43419,145.2863 l 35.95658,3.30946 v 3.32307 l -35.95658,-3.30946 V 145.2863 M 44.008478,32.792582 v 1.96054 h -2.199104 c -0.185727,0 -0.370653,0.159309 -0.370653,0.370654 v 0.503544 c 0,0.212145 0.184926,0.371454 0.370653,0.371454 h 8.02869 c 0.212145,0 0.371454,-0.159309 0.371454,-0.371454 v -0.503544 c 0,-0.211345 -0.159309,-0.370654 -0.371454,-0.370654 h -2.384831 v -1.96054 h 2.384831 c 0.212145,0 0.371454,-0.185727 0.371454,-0.397872 v -0.503544 c 0,-0.184927 -0.159309,-0.370654 -0.371454,-0.370654 h -2.384831 v -4.213281 c 0,-0.159309 -0.07925,-0.291399 -0.184926,-0.344235 l -0.318618,-0.159309 c -0.05284,-0.02642 -0.07925,-0.02642 -0.13209,-0.02642 -0.105673,0 -0.212145,0 -0.2914,0.07925 l -2.411248,2.199904 c -0.08005,0.07925 -0.106473,0.184927 -0.106473,0.2914 v 2.172685 h -3.073301 c 0,0 2.967629,-3.179774 6.094567,-7.366637 0.105672,-0.13209 0.13209,-0.264981 0.13209,-0.370653 0,-0.132891 -0.05284,-0.238563 -0.07925,-0.264981 l -0.582799,-0.583279 c -0.08005,-0.053 -0.159309,-0.105993 -0.264981,-0.105993 -0.159309,0 -3.736154,0 -3.9483,0 -0.185727,0 -0.317817,0.158989 -0.344235,0.317978 0,0 -0.132891,1.961181 -0.822162,4.107448 -0.688471,2.146268 -1.483414,3.471174 -2.172686,4.451844 0,0 -0.07925,0.13209 -0.07925,0.291399 0,0.05284 0,0.105673 0.02642,0.158509 0.07925,0.185727 0.264981,0.477126 0.264981,0.477126 0,0 0.05284,0.159309 0.2914,0.159309 h 4.557516 m 0.794143,-11.066607 c -0.874998,0 -1.589887,-1.192415 -1.589887,-2.67631 0,-1.483894 0.714889,-2.702808 1.589887,-2.702808 0.874198,0 1.616305,1.218914 1.616305,2.702808 0,1.483895 -0.742107,2.67631 -1.616305,2.67631 m 0.97987,-6.624529 c -1.616305,0 -2.199104,0.476966 -2.569757,0.874437 -0.08005,-0.55646 -0.132891,-0.98043 -0.132891,-1.4044 0,-1.510393 0.529962,-3.471253 2.384831,-3.471253 0.662853,0 1.059924,0.211985 1.324905,0.503464 -0.55638,0.238483 -1.007088,0.953932 -1.007088,1.563389 0,0.953932 0.742107,1.69588 1.69636,1.69588 0.953452,0 1.721977,-0.741948 1.721977,-1.69588 v -0.07949 c 0,-0.238483 -0.05284,-0.635955 -0.158508,-0.84794 -0.345036,-0.953932 -1.457797,-2.3583327 -4.107609,-2.3583327 -2.38483,0 -4.106808,2.2788377 -4.63677,3.4977517 -0.264981,0.635955 -0.662853,1.934363 -0.662853,3.418257 0,1.616385 0.450708,3.444755 2.014177,4.822658 1.53625,1.165917 2.516921,1.218913 3.444755,1.218913 0.927034,0 4.398207,-1.086423 4.398207,-4.160204 0,-2.596816 -2.039794,-3.577246 -3.709736,-3.577246 m -15.410537,6.685851 c 0,2.093591 -1.086343,3.206352 -2.623394,4.425586 l 0.07925,-5.167533 c 0.05284,-0.238483 0.450709,-1.006929 1.510633,-1.006929 0.954253,0 1.033507,0.900936 1.033507,1.457397 v 0.291479 m -0.317817,-3.047284 c -1.324906,0 -2.093432,0.821442 -2.226323,0.980431 l 0.106473,-8.505896 c 0,-0.211985 -0.159309,-0.370974 -0.371454,-0.370974 h -0.317817 c -0.212145,0 -0.370654,0.158989 -0.370654,0.370974 l 0.132091,15.925369 c 0,0.212145 0.159309,0.370653 0.371454,0.370653 0.05284,0 0.158508,-0.02642 0.211344,-0.05284 2.279159,-1.139179 4.663989,-3.311864 4.663989,-6.041411 0,-1.377902 -0.635634,-2.67631 -2.199103,-2.67631 m 0.317817,72.543762 c 0,2.093431 -1.086343,3.206192 -2.623394,4.425426 l 0.07925,-5.167533 c 0.05284,-0.238563 0.450709,-1.007089 1.510633,-1.007089 0.954253,0 1.033507,0.901416 1.033507,1.457797 v 0.291399 m -0.317817,-3.047684 c -1.324906,0 -2.093432,0.821362 -2.226323,0.980671 l 0.106473,-8.505816 c 0,-0.212145 -0.159309,-0.370654 -0.371454,-0.370654 h -0.317817 c -0.212145,0 -0.370654,0.158509 -0.370654,0.370654 l 0.132091,15.925289 c 0,0.212145 0.159309,0.370653 0.371454,0.370653 0.05284,0 0.158508,-0.02642 0.211344,-0.05284 2.279159,-1.139179 4.663989,-3.311864 4.663989,-6.041731 0,-1.377742 -0.635634,-2.67623 -2.199103,-2.67623 m 0.317817,72.543999 c 0,2.09343 -1.086343,3.2062 -2.623394,4.42543 l 0.07925,-5.16753 c 0.05284,-0.23857 0.450709,-1.00709 1.510633,-1.00709 0.954253,0 1.033507,0.90141 1.033507,1.45779 v 0.2914 m -0.317817,-3.04768 c -1.324906,0 -2.093432,0.82136 -2.226323,0.98067 l 0.106473,-8.50582 c 0,-0.21214 -0.159309,-0.37065 -0.371454,-0.37065 h -0.317817 c -0.212145,0 -0.370654,0.15851 -0.370654,0.37065 l 0.132091,15.92529 c 0,0.21215 0.159309,0.37066 0.371454,0.37066 0.05284,0 0.158508,-0.0264 0.211344,-0.0528 2.279159,-1.13918 4.663989,-3.31186 4.663989,-6.04173 0,-1.37774 -0.635634,-2.67623 -2.199103,-2.67623 M 16.093311,34.924439 c -0.529962,0.106473 -1.033427,0.159309 -1.536891,0.159309 -3.789231,0 -7.0220012,-2.649811 -7.0220012,-6.650947 0,-3.233411 2.2788382,-6.121386 4.6106722,-8.135243 0.450468,-0.397471 0.874438,-0.768445 1.27191,-1.165917 0.238483,1.430899 0.42397,2.67631 0.609457,3.762733 -2.411329,0.715129 -4.0542123,3.259268 -4.0542123,5.749771 0,1.854869 1.4573963,4.399008 3.5772463,4.399008 0.211985,0 0.450468,-0.105672 0.450468,-0.344235 0,-0.238563 -0.264982,-0.371454 -0.582959,-0.582799 -1.033427,-0.636435 -1.616385,-1.324906 -1.616385,-2.623393 0,-1.616306 1.192415,-2.914793 2.755804,-3.286247 l 1.536891,8.71796 M 13.761477,7.6844542 c 0.238483,-1.0599247 1.457396,-3.8422271 2.835298,-3.8422271 0.397472,0 1.033427,1.2984078 1.033427,3.1267779 0,2.7558043 -2.040355,4.822658 -3.868725,6.62453 -0.158989,-1.059925 -0.29148,-2.093352 -0.29148,-3.206273 0,-0.9804301 0.0795,-1.8813661 0.29148,-2.7028078 m 6.094567,22.3382338 c 0,1.881286 -0.768446,3.815409 -2.649812,4.583934 -0.556461,-3.179774 -1.27191,-7.393055 -1.457397,-8.558652 2.384831,0 4.107209,1.616305 4.107209,3.974718 M 8.1968718,43.059602 c 0,1.748395 1.351404,4.053972 4.9286502,4.053972 1.245411,0 2.331834,-0.317818 3.285766,-0.900616 1.430899,-1.007089 1.801872,-2.756285 1.801872,-4.425426 0,-1.033507 -0.158988,-2.225522 -0.423969,-3.736154 -0.07949,-0.529963 -0.238484,-1.324906 -0.397472,-2.358413 2.596815,-0.84778 4.531178,-3.550428 4.531178,-6.280294 0,-4.001136 -2.835299,-6.703784 -6.704024,-6.703784 -0.264981,-1.589887 -0.529962,-3.153276 -0.768445,-4.637171 2.8088,-2.941291 4.743163,-6.253555 4.743163,-10.4667561 0,-2.4113288 -0.741948,-4.3721895 -1.165917,-5.3261218 C 17.391719,0.92743413 16.623273,0 16.146307,0 15.96082,0 15.139379,0.31797742 14.264941,1.351404 c -1.69588,2.013857 -2.172846,5.4056161 -2.172846,7.631458 0,1.430898 0.132491,2.729306 0.582959,5.697095 -0.0265,0.0265 -1.404401,1.430899 -1.960861,1.881367 -2.4113287,2.25234 -5.7500916,5.458612 -5.7500916,10.757915 0,4.955389 4.3191932,8.850852 9.2478436,8.850852 0.768445,0 1.483894,-0.07925 2.093351,-0.185727 0.503464,2.54414 0.794943,4.399008 0.794943,5.803168 0,2.755484 -1.4044,4.213281 -4.08071,4.213281 -0.635955,0 -1.192415,-0.132891 -1.245411,-0.132891 -0.0265,-0.02642 -0.07949,-0.05284 -0.07949,-0.07925 0,-0.05284 0.053,-0.07925 0.132491,-0.105672 1.245412,-0.185727 2.490823,-1.245652 2.490823,-2.941211 0,-1.431379 -1.086423,-2.941211 -3.073782,-2.941211 -1.8548679,0 -3.0472832,1.509832 -3.0472832,3.259028 m 7.8964392,61.361154 c -0.529962,0.10647 -1.033427,0.15931 -1.536891,0.15931 -3.789231,0 -7.0220012,-2.64982 -7.0220012,-6.650947 0,-3.233411 2.2788382,-6.120985 4.6106722,-8.135163 0.450468,-0.397872 0.874438,-0.768525 1.27191,-1.165597 0.238483,1.430579 0.42397,2.67623 0.609457,3.762573 -2.411329,0.714889 -4.0542123,3.259028 -4.0542123,5.749531 0,1.854869 1.4573963,4.399003 3.5772463,4.399003 0.211985,0 0.450468,-0.10567 0.450468,-0.34423 0,-0.23857 -0.264982,-0.37146 -0.582959,-0.5828 -1.033427,-0.63644 -1.616385,-1.32491 -1.616385,-2.623392 0,-1.616306 1.192415,-2.914793 2.755804,-3.286247 l 1.536891,8.717959 M 13.761477,77.180532 c 0.238483,-1.059925 1.457396,-3.841827 2.835298,-3.841827 0.397472,0 1.033427,1.298488 1.033427,3.126938 0,2.755484 -2.040355,4.822498 -3.868725,6.62453 -0.158989,-1.059925 -0.29148,-2.093432 -0.29148,-3.206193 0,-0.98067 0.0795,-1.882086 0.29148,-2.703448 m 6.094567,22.338474 c 0,1.881284 -0.768446,3.815404 -2.649812,4.583934 -0.556461,-3.17977 -1.27191,-7.393055 -1.457397,-8.558652 2.384831,0 4.107209,1.616305 4.107209,3.974718 M 8.1968718,112.55592 c 0,1.7484 1.351404,4.05397 4.9286502,4.05397 1.245411,0 2.331834,-0.31782 3.285766,-0.90061 1.430899,-1.00709 1.801872,-2.75629 1.801872,-4.42543 0,-1.03351 -0.158988,-2.22552 -0.423969,-3.73615 -0.07949,-0.52997 -0.238484,-1.32491 -0.397472,-2.35842 2.596815,-0.84778 4.531178,-3.55042 4.531178,-6.280291 0,-4.001136 -2.835299,-6.703784 -6.704024,-6.703784 -0.264981,-1.589887 -0.529962,-3.153356 -0.768445,-4.63677 2.8088,-2.942012 4.743163,-6.253876 4.743163,-10.467157 0,-2.411249 -0.741948,-4.371789 -1.165917,-5.326042 -0.635955,-1.351324 -1.404401,-2.279158 -1.881367,-2.279158 -0.185487,0 -1.006928,0.318618 -1.881366,1.351324 -1.69588,2.014177 -2.172846,5.406096 -2.172846,7.631618 0,1.431379 0.132491,2.729866 0.582959,5.697495 -0.0265,0.02642 -1.404401,1.430579 -1.960861,1.881287 -2.4113287,2.25194 -5.7500916,5.458132 -5.7500916,10.757755 0,4.955393 4.3191932,8.850853 9.2478436,8.850853 0.768445,0 1.483894,-0.0793 2.093351,-0.18573 0.503464,2.54414 0.794943,4.39901 0.794943,5.80317 0,2.75548 -1.4044,4.21328 -4.08071,4.21328 -0.635955,0 -1.192415,-0.13289 -1.245411,-0.13289 -0.0265,-0.0264 -0.07949,-0.0528 -0.07949,-0.0793 0,-0.0528 0.053,-0.0793 0.132491,-0.10568 1.245412,-0.18572 2.490823,-1.24565 2.490823,-2.94121 0,-1.43138 -1.086423,-2.94121 -3.073782,-2.94121 -1.8548679,0 -3.0472832,1.50983 -3.0472832,3.25903 m 7.8964392,61.36116 c -0.529962,0.10647 -1.033427,0.1593 -1.536891,0.1593 -3.789231,0 -7.0220012,-2.64981 -7.0220012,-6.65094 0,-3.23341 2.2788382,-6.12099 4.6106722,-8.13517 0.450468,-0.39787 0.874438,-0.76852 1.27191,-1.16559 0.238483,1.43058 0.42397,2.67623 0.609457,3.76257 -2.411329,0.71489 -4.0542123,3.25903 -4.0542123,5.74953 0,1.85487 1.4573963,4.39901 3.5772463,4.39901 0.211985,0 0.450468,-0.10567 0.450468,-0.34424 0,-0.23856 -0.264982,-0.37145 -0.582959,-0.58279 -1.033427,-0.63644 -1.616385,-1.32491 -1.616385,-2.6234 0,-1.6163 1.192415,-2.91479 2.755804,-3.28625 l 1.536891,8.71797 M 13.761482,146.6768 c 0.238483,-1.05992 1.457396,-3.84183 2.835298,-3.84183 0.397472,0 1.033427,1.29849 1.033427,3.12694 0,2.75549 -2.040355,4.8225 -3.868725,6.62453 -0.158989,-1.05992 -0.29148,-2.09343 -0.29148,-3.20619 0,-0.98067 0.0795,-1.88209 0.29148,-2.70345 m 6.094567,22.33847 c 0,1.88129 -0.768446,3.81541 -2.649812,4.58394 -0.556461,-3.17978 -1.27191,-7.39306 -1.457397,-8.55865 2.384831,0 4.107209,1.6163 4.107209,3.97471 M 8.1968718,182.05224 c 0,1.74839 1.351404,4.05397 4.9286502,4.05397 1.245411,0 2.331834,-0.31782 3.285766,-0.90062 1.430899,-1.00708 1.801872,-2.75628 1.801872,-4.42542 0,-1.03351 -0.158988,-2.22552 -0.423969,-3.73616 -0.07949,-0.52996 -0.238484,-1.3249 -0.397472,-2.35841 2.596815,-0.84778 4.531178,-3.55043 4.531178,-6.28029 0,-4.00114 -2.835299,-6.70379 -6.704024,-6.70379 -0.264981,-1.58988 -0.529962,-3.15335 -0.768445,-4.63677 2.8088,-2.94201 4.743163,-6.25387 4.743163,-10.46715 0,-2.41125 -0.741948,-4.37179 -1.165917,-5.32605 -0.635955,-1.35132 -1.404401,-2.27915 -1.881367,-2.27915 -0.185487,0 -1.006928,0.31861 -1.881366,1.35132 -1.69588,2.01418 -2.172846,5.4061 -2.172846,7.63162 0,1.43138 0.132491,2.72986 0.582959,5.69749 -0.0265,0.0264 -1.404401,1.43058 -1.960861,1.88129 -2.4113287,2.25194 -5.7500916,5.45813 -5.7500916,10.75776 0,4.95538 4.3191932,8.85085 9.2478436,8.85085 0.768445,0 1.483894,-0.0793 2.093351,-0.18573 0.503464,2.54414 0.794943,4.39901 0.794943,5.80317 0,2.75548 -1.4044,4.21328 -4.08071,4.21328 -0.635955,0 -1.192415,-0.13289 -1.245411,-0.13289 -0.0265,-0.0264 -0.07949,-0.0528 -0.07949,-0.0793 0,-0.0528 0.053,-0.0792 0.132491,-0.10567 1.245412,-0.18573 2.490823,-1.24565 2.490823,-2.94121 0,-1.43138 -1.086423,-2.94121 -3.073782,-2.94121 -1.8548679,0 -3.0472832,1.50983 -3.0472832,3.25903 M 298.45365,91.313395 c -0.8742,0 -1.05992,-0.715689 -1.05992,-0.954252 0,-1.298488 4.45184,-3.577646 5.69749,-3.577646 0.63564,0 1.05993,0.371454 1.05993,0.954252 0,1.324906 -4.47827,3.577646 -5.6975,3.577646 m 3.6569,-5.77675 c -2.57056,0 -5.64386,2.146268 -5.64386,4.610353 0,1.139179 0.82136,2.411248 2.96763,2.411248 2.75549,0 5.64386,-2.251939 5.64386,-4.583934 0,-1.563469 -1.32491,-2.437667 -2.96763,-2.437667 M 203.41987,20.65076 c 0,1.139419 0.82136,2.411329 2.96763,2.411329 2.75548,0 5.64386,-2.25234 5.64386,-4.584175 0,-1.563389 -1.32491,-2.437827 -2.96763,-2.437827 -2.57056,0 -5.64386,2.172846 -5.64386,4.610673 m 196.1269,158.84853 c 0,1.13998 0.82136,2.41125 2.96763,2.41125 2.75549,0 5.64386,-2.25194 5.64386,-4.58393 0,-1.56347 -1.3249,-2.43767 -2.96763,-2.43767 -2.57056,0 -5.64386,2.17269 -5.64386,4.61035 M 227.41628,27.269606 c 0,1.139178 0.82136,2.411248 2.96763,2.411248 2.75548,0 5.64386,-2.25274 5.64386,-4.583934 0,-1.563469 -1.32491,-2.438067 -2.96763,-2.438067 -2.57056,0 -5.64386,2.173086 -5.64386,4.610753 M 373.07587,172.88117 c 0,1.13918 0.82137,2.41125 2.96763,2.41125 2.75549,0 5.64386,-2.25274 5.64386,-4.58474 0,-1.56267 -1.3249,-2.43767 -2.96763,-2.43767 -2.57055,0 -5.64386,2.17269 -5.64386,4.61116 M 260.87756,27.269606 c 0,1.139178 0.82136,2.411248 2.96763,2.411248 2.75548,0 5.64386,-2.25274 5.64386,-4.583934 0,-1.563469 -1.32491,-2.438067 -2.96763,-2.438067 -2.57056,0 -5.64386,2.173086 -5.64386,4.610753 m 23.99641,-6.618846 c 0,1.139419 0.82136,2.411329 2.96762,2.411329 2.75629,0 5.64386,-2.25234 5.64386,-4.584175 0,-1.563389 -1.3249,-2.437827 -2.96763,-2.437827 -2.56975,0 -5.64385,2.172846 -5.64385,4.610673 m 23.9964,6.618846 c 0,1.139178 0.82136,2.411248 2.96763,2.411248 2.75629,0 5.64466,-2.25274 5.64466,-4.583934 0,-1.563469 -1.3249,-2.438067 -2.96843,-2.438067 -2.56975,0 -5.64386,2.173086 -5.64386,4.610753 m 17.02124,156.705544 c -0.8742,0 -1.05992,-0.71569 -1.05992,-0.95425 0,-1.29849 4.45184,-3.57685 5.69749,-3.57685 0.63564,0 1.05993,0.37066 1.05993,0.95346 0,1.3249 -4.47826,3.57764 -5.6975,3.57764 m 3.6569,-5.77675 c -2.56976,0 -5.64386,2.14627 -5.64386,4.61036 0,1.13997 0.82136,2.41124 2.96763,2.41124 2.75629,0 5.64386,-2.25194 5.64386,-4.58393 0,-1.56347 -1.3249,-2.43767 -2.96763,-2.43767 m 5.30603,-156.381723 c -0.875,0 -1.05992,-0.715449 -1.05992,-0.953932 0,-1.298408 4.45104,-3.577246 5.69669,-3.577246 0.63644,0 1.05993,0.370974 1.05993,0.953932 0,1.324906 -4.47827,3.577246 -5.6967,3.577246 m 3.6561,-5.77659 c -2.56976,0 -5.64386,2.146348 -5.64386,4.610673 0,1.139419 0.82136,2.411329 2.96763,2.411329 2.75628,0 5.64466,-2.25234 5.64466,-4.584175 0,-1.563389 -1.32491,-2.437827 -2.96843,-2.437827 M 179.42346,27.269606 c 0,1.139178 0.82137,2.411248 2.96763,2.411248 2.75549,0 5.64386,-2.25274 5.64386,-4.583934 0,-1.563469 -1.3249,-2.438067 -2.96763,-2.438067 -2.57055,0 -5.64386,2.173086 -5.64386,4.610753 M 297.43375,179.49929 c 0,1.13998 0.82137,2.41125 2.96763,2.41125 2.75629,0 5.64466,-2.25194 5.64466,-4.58393 0,-1.56347 -1.3249,-2.43767 -2.96843,-2.43767 -2.56975,0 -5.64386,2.17269 -5.64386,4.61035 m 90.5275,-152.229684 c 0,1.139178 0.82136,2.411248 2.96763,2.411248 2.75548,0 5.64386,-2.25274 5.64386,-4.583934 0,-1.563469 -1.32491,-2.438067 -2.96763,-2.438067 -2.57056,0 -5.64386,2.173086 -5.64386,4.610753 M 279.78649,172.88117 c 0,1.13918 0.82136,2.41125 2.96763,2.41125 2.75628,0 5.64466,-2.25274 5.64466,-4.58474 0,-1.56267 -1.32491,-2.43767 -2.96843,-2.43767 -2.56976,0 -5.64386,2.17269 -5.64386,4.61116 M 411.95766,17.341457 c 0,1.139419 0.82136,2.411329 2.96763,2.411329 2.75628,0 5.64386,-2.25234 5.64386,-4.584175 0,-1.563388 -1.32491,-2.437826 -2.96763,-2.437826 -2.56976,0 -5.64386,2.172845 -5.64386,4.610672 M 262.13922,169.5717 c 0,1.13918 0.82136,2.41125 2.96763,2.41125 2.75628,0 5.64466,-2.25274 5.64466,-4.58393 0,-1.56347 -1.32491,-2.43847 -2.96843,-2.43847 -2.56976,0 -5.64386,2.17349 -5.64386,4.61115 M 435.95407,17.341457 c 0,1.139419 0.82136,2.411329 2.96763,2.411329 2.75628,0 5.64466,-2.25234 5.64466,-4.584175 0,-1.563388 -1.32491,-2.437826 -2.96843,-2.437826 -2.56976,0 -5.64386,2.172845 -5.64386,4.610672 m 16.5337,155.539713 c 0,1.13918 0.82216,2.41125 2.96843,2.41125 2.75549,0 5.64386,-2.25274 5.64386,-4.58474 0,-1.56267 -1.32491,-2.43767 -2.96763,-2.43767 -2.57056,0 -5.64466,2.17269 -5.64466,4.61116 m -207.99582,-6.61893 c 0,1.13918 0.82137,2.41125 2.96763,2.41125 2.75629,0 5.64466,-2.25194 5.64466,-4.58393 0,-1.56347 -1.3249,-2.43767 -2.96843,-2.43767 -2.56975,0 -5.64386,2.17268 -5.64386,4.61035 M 461.93823,18.507374 c -0.875,0 -1.05992,-0.715449 -1.05992,-0.953932 0,-1.298408 4.45184,-3.577246 5.69669,-3.577246 0.63644,0 1.05993,0.370974 1.05993,0.953932 0,1.324906 -4.47826,3.577246 -5.6967,3.577246 m 3.6569,-5.776589 c -2.57055,0 -5.64466,2.146347 -5.64466,4.610672 0,1.139419 0.82137,2.411329 2.96763,2.411329 2.75629,0 5.64466,-2.25234 5.64466,-4.584175 0,-1.563388 -1.3249,-2.437826 -2.96763,-2.437826 M 155.42706,27.269606 c 0,1.139178 0.82136,2.411248 2.96763,2.411248 2.75548,0 5.64385,-2.25274 5.64385,-4.583934 0,-1.563469 -1.3249,-2.438067 -2.96762,-2.438067 -2.57056,0 -5.64386,2.173086 -5.64386,4.610753 M 210.93541,169.5717 c 0,1.13918 0.82216,2.41125 2.96843,2.41125 2.75548,0 5.64386,-2.25274 5.64386,-4.58393 0,-1.56347 -1.32491,-2.43847 -2.96763,-2.43847 -2.57056,0 -5.64466,2.17349 -5.64466,4.61115 M 495.94549,20.65076 c 0,1.139419 0.82136,2.411329 2.96762,2.411329 2.75549,0 5.64386,-2.25234 5.64386,-4.584175 0,-1.563389 -1.3249,-2.437827 -2.96763,-2.437827 -2.57055,0 -5.64385,2.172846 -5.64385,4.610673 m 33.46127,6.618846 c 0,1.139178 0.82137,2.411248 2.96763,2.411248 2.75549,0 5.64386,-2.25274 5.64386,-4.583934 0,-1.563469 -1.3249,-2.438067 -2.96763,-2.438067 -2.57055,0 -5.64386,2.173086 -5.64386,4.610753 M 353.8123,83.528072 c 0,1.13998 0.82136,2.412049 2.96763,2.412049 2.75629,0 5.64386,-2.25274 5.64386,-4.584734 0,-1.563469 -1.32491,-2.437667 -2.96763,-2.437667 -2.56976,0 -5.64386,2.172685 -5.64386,4.610352 M 163.75195,180.66569 c -0.8742,0 -1.05993,-0.71569 -1.05993,-0.95425 0,-1.29849 4.45185,-3.57685 5.6975,-3.57685 0.63563,0 1.05992,0.37066 1.05992,0.95345 0,1.32491 -4.47826,3.57765 -5.69749,3.57765 m 3.6569,-5.77675 c -2.57056,0 -5.64386,2.14627 -5.64386,4.61035 0,1.13998 0.82136,2.41125 2.96763,2.41125 2.75548,0 5.64386,-2.25194 5.64386,-4.58393 0,-1.56347 -1.32491,-2.43767 -2.96763,-2.43767 M 559.82596,23.960143 c 0,1.139179 0.82137,2.411248 2.96843,2.411248 2.75549,0 5.64386,-2.251939 5.64386,-4.584094 0,-1.563389 -1.3249,-2.437827 -2.96763,-2.437827 -2.57055,0 -5.64466,2.172846 -5.64466,4.610673 M 135.29409,172.88117 c 0,1.13918 0.82136,2.41125 2.96763,2.41125 2.75548,0 5.64386,-2.25274 5.64386,-4.58474 0,-1.56267 -1.32491,-2.43767 -2.96763,-2.43767 -2.57056,0 -5.64386,2.17269 -5.64386,4.61116 m 343.66458,-3.30947 c 0,1.13918 0.82136,2.41125 2.96843,2.41125 2.75548,0 5.64386,-2.25274 5.64386,-4.58393 0,-1.56347 -1.32491,-2.43847 -2.96763,-2.43847 -2.57056,0 -5.64466,2.17349 -5.64466,4.61115 m -361.31185,0 c 0,1.13918 0.82137,2.41125 2.96763,2.41125 2.75549,0 5.64386,-2.25274 5.64386,-4.58393 0,-1.56347 -1.3249,-2.43847 -2.96763,-2.43847 -2.57055,0 -5.64386,2.17349 -5.64386,4.61115 M 575.8241,27.269606 c 0,1.139178 0.82136,2.411248 2.96763,2.411248 2.75549,0 5.64386,-2.25274 5.64386,-4.583934 0,-1.563469 -1.32491,-2.438067 -2.96763,-2.438067 -2.57056,0 -5.64386,2.173086 -5.64386,4.610753 M 99.999558,166.26224 c 0,1.13918 0.821362,2.41125 2.967632,2.41125 2.75548,0 5.64386,-2.25194 5.64386,-4.58393 0,-1.56347 -1.32491,-2.43767 -2.96763,-2.43767 -2.57056,0 -5.643862,2.17268 -5.643862,4.61035 M 591.82144,30.579068 c 0,1.139179 0.82136,2.411249 2.96763,2.411249 2.75628,0 5.64466,-2.25274 5.64466,-4.583934 0,-1.563469 -1.32491,-2.438468 -2.96763,-2.438468 -2.57056,0 -5.64466,2.173487 -5.64466,4.611153 M 131.42985,20.65076 c 0,1.139419 0.82216,2.411329 2.96843,2.411329 2.75548,0 5.64386,-2.25234 5.64386,-4.584175 0,-1.563389 -1.32491,-2.437827 -2.96763,-2.437827 -2.57056,0 -5.64466,2.172846 -5.64466,4.610673 M 82.352292,162.95278 c 0,1.13918 0.821362,2.41125 2.967629,2.41125 2.756285,0 5.643859,-2.25194 5.643859,-4.58394 0,-1.56347 -1.324906,-2.43766 -2.967629,-2.43766 -2.569757,0 -5.643859,2.17268 -5.643859,4.61035 M 607.81958,33.888531 c 0,1.139179 0.82136,2.411249 2.96763,2.411249 2.75548,0 5.64386,-2.25274 5.64386,-4.584735 0,-1.563469 -1.32491,-2.437667 -2.96763,-2.437667 -2.57056,0 -5.64386,2.172686 -5.64386,4.611153 M 505.42957,166.26224 c 0,1.13918 0.82136,2.41125 2.96763,2.41125 2.75628,0 5.64466,-2.25194 5.64466,-4.58393 0,-1.56347 -1.32491,-2.43767 -2.96763,-2.43767 -2.57056,0 -5.64466,2.17268 -5.64466,4.61035 m -456.633819,0 c 0,1.13918 0.821362,2.41125 2.967629,2.41125 2.756285,0 5.64466,-2.25194 5.64466,-4.58393 0,-1.56347 -1.324906,-2.43767 -2.967629,-2.43767 -2.570558,0 -5.64466,2.17268 -5.64466,4.61035 M 631.81599,40.506656 c 0,1.13998 0.82136,2.411249 2.96763,2.411249 2.75548,0 5.64385,-2.25194 5.64385,-4.583934 0,-1.563469 -1.3249,-2.437667 -2.96762,-2.437667 -2.57056,0 -5.64386,2.172686 -5.64386,4.610352 M 107.43344,27.269606 c 0,1.139178 0.82136,2.411248 2.96843,2.411248 2.75549,0 5.64386,-2.25274 5.64386,-4.583934 0,-1.563469 -1.32491,-2.438067 -2.96763,-2.438067 -2.57056,0 -5.64466,2.173086 -5.64466,4.610753 m -27.997539,0 c 0,1.139178 0.821359,2.411248 2.967626,2.411248 2.755484,0 5.643859,-2.25274 5.643859,-4.583934 0,-1.563469 -1.324906,-2.438067 -2.967629,-2.438067 -2.570558,0 -5.643856,2.173086 -5.643856,4.610753 m 576.376489,0 c 0,1.139178 0.82137,2.411248 2.96763,2.411248 2.75549,0 5.64386,-2.25274 5.64386,-4.583934 0,-1.563469 -1.3249,-2.438067 -2.96763,-2.438067 -2.57055,0 -5.64386,2.173086 -5.64386,4.610753 M 543.3531,157.50025 c -0.875,0 -1.05992,-0.71569 -1.05992,-0.95425 0,-1.29849 4.45104,-3.57685 5.69669,-3.57685 0.63564,0 1.05993,0.37066 1.05993,0.95345 0,1.32491 -4.47827,3.57765 -5.6967,3.57765 m 3.6561,-5.77675 c -2.56976,0 -5.64386,2.14627 -5.64386,4.61035 0,1.13998 0.82136,2.41125 2.96763,2.41125 2.75628,0 5.64466,-2.25194 5.64466,-4.58393 0,-1.56347 -1.32491,-2.43767 -2.96843,-2.43767 M 63.437763,27.269606 c 0,1.139178 0.821361,2.411248 2.967629,2.411248 2.756284,0 5.644659,-2.25274 5.644659,-4.583934 0,-1.563469 -1.324906,-2.438067 -2.968429,-2.438067 -2.569757,0 -5.643859,2.173086 -5.643859,4.610753 M 631.46855,88.003932 c -0.875,0 -1.05993,-0.715689 -1.05993,-0.954252 0,-1.298488 4.45185,-3.576846 5.6967,-3.576846 0.63643,0 1.05992,0.370654 1.05992,0.953452 0,1.324906 -4.47826,3.577646 -5.69669,3.577646 m 3.6569,-5.776749 c -2.57056,0 -5.64466,2.146267 -5.64466,4.610352 0,1.139979 0.82136,2.411249 2.96763,2.411249 2.75628,0 5.64466,-2.25194 5.64466,-4.583935 0,-1.563469 -1.32491,-2.437666 -2.96763,-2.437666 m -54.05376,84.035057 c 0,1.13918 0.82136,2.41125 2.96763,2.41125 2.75628,0 5.64386,-2.25194 5.64386,-4.58393 0,-1.56347 -1.32491,-2.43767 -2.96763,-2.43767 -2.56976,0 -5.64386,2.17268 -5.64386,4.61035 m 21.9422,-69.496317 c 0,1.139179 0.82136,2.411249 2.96763,2.411249 2.75549,0 5.64386,-2.25274 5.64386,-4.583934 0,-1.563469 -1.3249,-2.438467 -2.96763,-2.438467 -2.57056,0 -5.64386,2.173486 -5.64386,4.611152 m -554.218139,0 c 0,1.139179 0.821362,2.411249 2.967629,2.411249 2.756285,0 5.64466,-2.25274 5.64466,-4.583934 0,-1.563469 -1.324906,-2.438467 -2.967629,-2.438467 -2.570558,0 -5.64466,2.173486 -5.64466,4.611152 M 576.5462,100.07539 c 0,1.13918 0.82136,2.41124 2.96763,2.41124 2.75628,0 5.64465,-2.25274 5.64465,-4.583929 0,-1.563469 -1.3249,-2.438468 -2.96843,-2.438468 -2.56975,0 -5.64385,2.173487 -5.64385,4.611157 M 75.263448,90.146998 c 0,1.139179 0.821362,2.411248 2.967629,2.411248 2.755481,0 5.643856,-2.251939 5.643856,-4.583934 0,-1.563469 -1.324906,-2.437667 -2.967629,-2.437667 -2.570554,0 -5.643856,2.172686 -5.643856,4.610353 M 550.0793,103.38485 c 0,1.13918 0.82136,2.41125 2.96763,2.41125 2.75548,0 5.64386,-2.25274 5.64386,-4.58474 0,-1.562665 -1.32491,-2.437664 -2.96763,-2.437664 -2.57056,0 -5.64386,2.172684 -5.64386,4.611154 M 101.73034,96.765923 c 0,1.139179 0.82136,2.411249 2.96763,2.411249 2.75629,0 5.64466,-2.25274 5.64466,-4.583934 0,-1.563469 -1.32491,-2.438467 -2.96763,-2.438467 -2.57056,0 -5.64466,2.173486 -5.64466,4.611152 m 26.4677,-6.618925 c 0,1.139179 0.82136,2.411248 2.96763,2.411248 2.75548,0 5.64386,-2.251939 5.64386,-4.583934 0,-1.563469 -1.32491,-2.437667 -2.96763,-2.437667 -2.57056,0 -5.64386,2.172686 -5.64386,4.610353 m 26.4669,-3.309463 c 0,1.139979 0.82136,2.411249 2.96762,2.411249 2.75629,0 5.64466,-2.25194 5.64466,-4.583935 0,-1.563469 -1.3249,-2.437666 -2.96762,-2.437666 -2.57056,0 -5.64466,2.172685 -5.64466,4.610352 m 359.48179,3.309463 c 0,1.139179 0.82136,2.411248 2.96843,2.411248 2.75548,0 5.64386,-2.251939 5.64386,-4.583934 0,-1.563469 -1.32491,-2.437667 -2.96763,-2.437667 -2.57056,0 -5.64466,2.172686 -5.64466,4.610353 m -333.0141,-6.618926 c 0,1.13998 0.82136,2.412049 2.96763,2.412049 2.75549,0 5.64386,-2.25274 5.64386,-4.584734 0,-1.563469 -1.3249,-2.437667 -2.96763,-2.437667 -2.57056,0 -5.64386,2.172685 -5.64386,4.610352 m 306.5472,13.237851 c 0,1.139179 0.82137,2.411249 2.96763,2.411249 2.75549,0 5.64386,-2.25274 5.64386,-4.583934 0,-1.563469 -1.3249,-2.438467 -2.96763,-2.438467 -2.57055,0 -5.64386,2.173486 -5.64386,4.611152 M 217.0644,80.21941 c 0,1.139179 0.82136,2.411249 2.96763,2.411249 2.75628,0 5.64466,-2.252741 5.64466,-4.584735 0,-1.563469 -1.32491,-2.437667 -2.96843,-2.437667 -2.56976,0 -5.64386,2.172686 -5.64386,4.611153 m 244.14774,9.927588 c 0,1.139179 0.82136,2.411248 2.96763,2.411248 2.75628,0 5.64466,-2.251939 5.64466,-4.583934 0,-1.563469 -1.32491,-2.437667 -2.96763,-2.437667 -2.57056,0 -5.64466,2.172686 -5.64466,4.610353 M 243.5321,83.528072 c 0,1.13998 0.82136,2.412049 2.96763,2.412049 2.75548,0 5.64386,-2.25274 5.64386,-4.584734 0,-1.563469 -1.32491,-2.437667 -2.96763,-2.437667 -2.57056,0 -5.64386,2.172685 -5.64386,4.610352 m 191.21314,3.309463 c 0,1.139979 0.82136,2.411249 2.96763,2.411249 2.75548,0 5.64386,-2.25194 5.64386,-4.583935 0,-1.563469 -1.32491,-2.437666 -2.96763,-2.437666 -2.57056,0 -5.64386,2.172685 -5.64386,4.610352 m -164.74624,0 c 0,1.139979 0.82136,2.411249 2.96762,2.411249 2.75629,0 5.64466,-2.25194 5.64466,-4.583935 0,-1.563469 -1.3249,-2.437666 -2.96843,-2.437666 -2.56975,0 -5.64385,2.172685 -5.64385,4.610352 m 138.27854,-3.309463 c 0,1.13998 0.82136,2.412049 2.96763,2.412049 2.75629,0 5.64466,-2.25274 5.64466,-4.584734 0,-1.563469 -1.3249,-2.437667 -2.96763,-2.437667 -2.57056,0 -5.64466,2.172685 -5.64466,4.610352 m -72.1101,3.309463 c 0,1.139979 0.82136,2.411249 2.96763,2.411249 2.75628,0 5.64386,-2.25194 5.64386,-4.583935 0,-1.563469 -1.32491,-2.437666 -2.96763,-2.437666 -2.56976,0 -5.64386,2.172685 -5.64386,4.610352 m 45.64321,-6.618125 c 0,1.139179 0.82136,2.411249 2.96763,2.411249 2.75548,0 5.64385,-2.252741 5.64385,-4.584735 0,-1.563469 -1.3249,-2.437667 -2.96762,-2.437667 -2.57056,0 -5.64386,2.172686 -5.64386,4.611153 m 225.73194,92.66176 c 0,1.13918 0.82136,2.41125 2.96763,2.41125 2.75548,0 5.64386,-2.25274 5.64386,-4.58474 0,-1.56267 -1.32491,-2.43767 -2.96763,-2.43767 -2.57056,0 -5.64386,2.17269 -5.64386,4.61116 m -181.52572,6.61812 c 0,1.13998 0.82216,2.41125 2.96843,2.41125 2.75549,0 5.64386,-2.25194 5.64386,-4.58393 0,-1.56347 -1.32491,-2.43767 -2.96763,-2.43767 -2.57056,0 -5.64466,2.17269 -5.64466,4.61035 m 209.98358,1.1664 c -0.8742,0 -1.05993,-0.71569 -1.05993,-0.95425 0,-1.29849 4.45185,-3.57685 5.6975,-3.57685 0.63563,0 1.05992,0.37066 1.05992,0.95345 0,1.32491 -4.47826,3.57765 -5.69749,3.57765 m 3.6569,-5.77675 c -2.57056,0 -5.64386,2.14627 -5.64386,4.61035 0,1.13998 0.82136,2.41125 2.96763,2.41125 2.75548,0 5.64386,-2.25194 5.64386,-4.58393 0,-1.56347 -1.32491,-2.43767 -2.96763,-2.43767 M 284.87353,20.649729 v 20.398946 h 0.66202 V 20.649729 Z m 68.93839,62.877527 v 20.429124 h 0.66201 V 83.527256 Z m 27.99836,-3.309455 v 22.053519 h 0.66201 V 80.217801 Z m 26.46762,3.309455 v 22.053514 h 0.66202 V 83.527256 Z m -72.11086,3.309446 v 18.714358 h 0.66201 V 86.836702 Z M 163.36889,4.6458182 V 25.097769 h 0.66201 V 4.6458182 Z M 296.4663,90.146157 v 20.398783 h 0.66201 V 90.146157 Z m 138.27861,-3.309455 v 22.053518 h 0.66201 V 86.836702 Z m -164.74546,0 v 22.053518 h 0.66201 V 86.836702 Z m 191.21309,3.309455 v 20.398783 h 0.66201 V 90.146157 Z M 243.53167,83.527256 v 22.053514 h 0.66201 V 83.527256 Z m 252.09002,-9.384857 v 20.451639 h 0.66201 V 74.142399 Z m -278.55687,6.075402 v 22.053519 h 0.66202 V 80.217801 Z m 269.83653,65.075739 v 22.10622 h 0.66202 v -22.10622 z m 155.05399,9.92758 v 22.10636 h 0.66202 V 155.22112 Z M 514.14717,90.146157 v 20.398783 h 0.66201 V 90.146157 Z M 181.13228,83.527256 v 22.053514 h 0.66202 V 83.527256 Z m 434.35215,65.074954 v 22.107 h 0.66201 v -22.107 z M 154.66528,86.836702 v 22.053518 h 0.66217 V 86.836702 Z M 187.36529,4.6458182 V 25.097769 h 0.66202 V 4.6458182 Z M 128.19765,90.146157 v 20.398783 h 0.66202 V 90.146157 Z M 558.02107,79.105792 v 22.107148 h 0.66218 V 79.105792 Z M 109.67296,74.142399 v 20.451639 h 0.66201 V 74.142399 Z m 474.8159,1.654723 v 22.106363 h 0.66201 V 75.797122 Z M 75.263024,90.146157 v 20.398783 h 0.662013 V 90.146157 Z M 610.95571,74.142399 v 20.451639 h 0.66201 V 74.142399 Z m -554.217384,0 v 20.451639 h 0.662173 V 74.142399 Z M 629.48118,86.836702 v 22.053518 h 0.66202 V 86.836702 Z M 71.380369,7.9551121 V 25.097769 h 0.662013 V 7.9551121 Z M 460.43044,148.60221 v 22.107 h 0.66201 v -22.107 z m 128.58386,-4.96339 v 20.45149 h 0.66201 V 143.63882 Z M 203.4194,20.649729 v 20.398946 h 0.66216 V 20.649729 Z M 663.75415,4.6458182 V 25.097769 h 0.66217 V 4.6458182 Z M 56.738326,143.63882 v 20.45149 h 0.662173 V 143.63882 Z M 639.75774,16.228581 v 22.106206 h 0.66217 V 16.228581 Z M 90.294859,143.65399 v 17.12686 h 0.662173 V 143.65399 Z M 615.76134,9.6098371 V 31.71667 h 0.66216 V 9.6098371 Z M 107.94224,144.46579 v 19.62452 h 0.66202 V 144.46579 Z M 599.76414,6.2838125 V 28.407223 h 0.66202 V 6.2838125 Z M 125.58868,145.27822 v 22.12154 h 0.66201 v -22.12154 z m 308.37085,9.9429 v 22.10636 h 0.66201 v -22.10636 z m -290.72362,-6.61891 v 22.107 h 0.66201 v -22.107 z m 26.4709,6.61891 v 22.10636 h 0.66202 V 155.22112 Z M 567.76852,4.662548 V 21.78832 h 0.66217 V 4.662548 Z M 541.365,156.33312 v 22.05337 h 0.66201 V 156.33312 Z M 235.35889,4.6458182 V 25.097769 h 0.66202 V 4.6458182 Z m 301.98977,0 V 25.097769 h 0.66201 V 4.6458182 Z M 87.377712,7.9551121 V 25.097769 h 0.662013 V 7.9551121 Z M 407.48862,155.22112 v 22.10636 h 0.66201 v -22.10636 z m -188.61053,-9.92758 v 22.10622 h 0.66202 V 145.29354 Z M 495.94504,20.649729 v 20.398946 h 0.66217 V 20.649729 Z M 252.43463,146.97861 v 17.1117 h 0.66202 v -17.1117 z M 459.95089,17.340435 v 22.053517 h 0.66202 V 17.340435 Z M 270.08185,148.60221 v 18.79755 h 0.66201 V 148.60221 Z M 435.95371,17.340435 v 22.053517 h 0.66201 V 17.340435 Z M 287.72908,150.22645 v 20.48276 h 0.66216 V 150.22645 Z M 411.9573,17.340435 v 22.053517 h 0.66201 V 17.340435 Z M 305.37646,155.22112 v 22.10636 h 0.66201 V 155.22112 Z M 395.90382,4.6458182 V 25.097769 h 0.66217 V 4.6458182 Z M 131.43018,20.649729 v 20.398946 h 0.66216 V 20.649729 Z M 268.81943,4.6458182 V 25.097769 h 0.66201 V 4.6458182 Z M 331.84721,158.53057 v 22.10636 h 0.66217 v -22.10636 z m 49.17049,-9.92836 v 22.107 h 0.66202 v -22.107 z M 332.86713,20.649729 v 20.398946 h 0.66217 V 20.649729 Z M 115.37607,4.6458182 V 25.097769 h 0.66201 V 4.6458182 Z m 201.43695,0 V 25.097769 h 0.66202 V 4.6458182 Z M 513.37226,143.63882 v 20.45149 h 0.66202 V 143.63882 Z M 583.76586,5.4731022 V 25.097769 h 0.66217 V 5.4731022 Z M 321.72075,181.16636 v 1.05916 h 12.97372 v -1.05916 z M 531.9004,148.23869 v 27.20266 h 1.19128 v -27.20266 z m -168.28944,0 v 27.20266 h 1.19128 V 148.23869 Z M 378.49645,9.2458378 V 36.448658 h 1.19113 V 9.2458378 Z m -280.52712,0 V 36.448658 h 1.191279 V 9.2458378 Z m 421.97258,0 V 36.448658 h 1.19113 V 9.2458378 Z M 372.34584,78.742416 v 27.202514 h 1.19112 V 78.742416 Z M 201.47135,148.23869 v 27.20266 h 1.19128 V 148.23869 Z M 679.80887,9.2458378 V 36.448658 H 681 V 9.2458378 Z m 0,69.4965782 V 105.94493 H 681 V 78.742416 Z m -139.19439,0 v 27.202514 h 1.19113 V 78.742416 Z m -333.01488,0 v 27.202514 h 1.19113 V 78.742416 Z m 469.75994,69.496274 v 27.20266 h 3.64015 v -27.20266 z m -3.63967,0 v 27.20266 H 674.911 V 148.23869 Z M 251.41268,9.2458378 V 36.448658 h 1.19129 V 9.2458378 Z M 0,174.7132 v 0.72768 h 681 v -0.72768 z m 0,-6.61812 v 0.72768 h 681 v -0.72768 z m 0,-6.6189 v 0.72768 h 681 v -0.72768 z m 0,-6.6189 v 0.72768 h 681 v -0.72768 z m 0,-6.61891 v 0.72769 h 681 v -0.72769 z m 0,-43.02144 v 0.72769 h 681 v -0.72769 z m 0,-6.618121 v 0.727681 h 681 v -0.727681 z m 0,-6.618902 v 0.727682 h 681 v -0.727682 z m 0,-6.619054 v 0.727842 h 681 v -0.727842 z m 0,-6.618901 v 0.727681 H 681 V 78.741952 Z M 0,35.720656 v 0.727689 h 681 v -0.727689 z m 0,-6.618269 v 0.727841 h 681 v -0.727841 z m 0,-6.61906 v 0.727685 h 681 v -0.727685 z m 0,-6.618588 v 0.727684 H 681 V 15.864739 Z M 0,9.2459947 V 9.9736795 H 681 V 9.2459947 Z"
     style="stroke-width:0.0800547" />
  <metadata
     id="metadata183">
    <rdf:RDF>
      <cc:Work
         rdf:about="">
        <dc:title>air_XLV</dc:title>
      </cc:Work>
    </rdf:RDF>
  </metadata>
</svg>
