<?xml version="1.0" encoding="UTF-8" standalone="no"?>
<svg
   width="681"
   height="192.0891"
   version="1.2"
   id="svg244"
   xmlns="http://www.w3.org/2000/svg"
   xmlns:svg="http://www.w3.org/2000/svg"
   xmlns:rdf="http://www.w3.org/1999/02/22-rdf-syntax-ns#"
   xmlns:cc="http://creativecommons.org/ns#"
   xmlns:dc="http://purl.org/dc/elements/1.1/">
  <defs
     id="defs244" />
  <title
     id="title1">air_XLI</title>
  <desc
     id="desc1">Generated by MuseScore Studio 4.7.3</desc>
  <path
     id="path244"
     class="NoteDot"
     d="m 638.93045,178.38653 c 0,0.74211 0.5828,1.32491 1.32491,1.32491 0.7421,0 1.3249,-0.5828 1.3249,-1.32491 0,-0.74211 -0.5828,-1.32491 -1.3249,-1.32491 -0.74211,0 -1.32491,0.5828 -1.32491,1.32491 M 168.70254,108.89021 c 0,0.74211 0.5836,1.32491 1.3249,1.32491 0.74211,0 1.32491,-0.5828 1.32491,-1.32491 0,-0.7421 -0.5828,-1.3249 -1.32491,-1.3249 -0.7413,0 -1.3249,0.5828 -1.3249,1.3249 M 444.0476,105.58075 H 476.22 v 3.30946 h -32.1724 v -3.30946 m -189.91465,3.30946 h 32.1716 v 3.30947 h -32.1716 v -3.30947 M 139.71792,7.9551193 H 172.5948 V 11.264502 H 139.71792 V 7.9551193 m 4.92737,145.6032307 17.03645,-1.65393 v 3.32468 l -17.03645,1.65473 v -3.32548 m 0,-4.96339 17.03645,-1.65473 v 3.32467 l -17.03645,1.65473 v -3.32467 m 105.77632,-1.64753 h 49.78524 v 3.30947 h -49.78524 v -3.30947 M 459.90244,14.557073 471.48636,12.902342 v 3.343006 l -11.58392,1.654651 v -3.342926 m 0,-4.9640338 11.58392,-1.6546514 v 3.3429262 l -11.58392,1.654651 V 9.5930392 M 91.395278,7.9551193 H 124.27216 V 11.264502 H 91.395278 V 7.9551193 m 449.499342,0 H 573.7715 V 11.264502 H 540.89462 V 7.9551193 M 35.232877,28.195038 c -1.802032,-0.582798 -3.78899,-1.457797 -3.78899,-2.649812 0,-1.033506 0.954252,-1.457796 2.093431,-1.457796 1.642723,0 2.755484,0.768525 2.755484,1.987759 0,1.272069 -0.582798,1.881286 -1.059925,2.119849 m -1.695559,6.280294 c -1.69636,0 -3.153356,-0.927834 -3.153356,-2.412049 0,-1.774813 1.377742,-2.199104 1.377742,-2.199104 1.802032,0.609217 4.37259,1.510633 4.37259,2.96763 0,0.715689 -0.927835,1.643523 -2.596976,1.643523 m 3.179774,-5.564605 c 0.874198,-0.662853 1.483415,-1.510632 1.483415,-2.570557 0,-1.907704 -2.092631,-3.471414 -4.663189,-3.471414 -2.570558,0 -4.663989,1.56371 -4.663989,3.471414 0,1.059925 0.264981,2.013377 1.510633,2.80832 -1.192816,0.689271 -1.854868,1.669942 -1.854868,2.942012 0,2.146267 2.25194,3.868245 5.008224,3.868245 2.755484,0 5.008224,-1.721978 5.008224,-3.868245 0,-1.27207 -0.450708,-2.464886 -1.82845,-3.179775 m -2.942011,-7.184752 c -0.874198,0 -1.589887,-1.192415 -1.589887,-2.67631 0,-1.483895 0.715689,-2.702808 1.589887,-2.702808 0.874197,0 1.616305,1.218913 1.616305,2.702808 0,1.483895 -0.742108,2.67631 -1.616305,2.67631 m 0.98067,-6.624529 c -1.616305,0 -2.199904,0.476966 -2.570557,0.874437 -0.07925,-0.55646 -0.132891,-0.98043 -0.132891,-1.4044 0,-1.510393 0.529962,-3.471253 2.38483,-3.471253 0.662854,0 1.059925,0.211985 1.324906,0.503464 -0.55638,0.238483 -1.006288,0.953932 -1.006288,1.563389 0,0.953932 0.741307,1.695879 1.69556,1.695879 0.954252,0 1.722777,-0.741947 1.722777,-1.695879 v -0.07949 c 0,-0.238484 -0.05364,-0.635955 -0.159308,-0.84794 -0.344236,-0.953932 -1.457797,-2.3583327 -4.107609,-2.3583327 -2.384831,0 -4.106808,2.2788377 -4.63677,3.4977517 -0.264982,0.635955 -0.662854,1.934362 -0.662854,3.418257 0,1.616385 0.450709,3.444755 2.014178,4.822658 1.537051,1.165917 2.517721,1.218913 3.444755,1.218913 0.927834,0 4.399008,-1.086423 4.399008,-4.160205 0,-2.596815 -2.040596,-3.577245 -3.709737,-3.577245 m -18.66244,19.822993 c -0.529962,0.106473 -1.033427,0.159309 -1.536891,0.159309 -3.789231,0 -7.0220012,-2.649812 -7.0220012,-6.650947 0,-3.233411 2.2788381,-6.121386 4.6106722,-8.135243 0.450468,-0.397471 0.874438,-0.768445 1.27191,-1.165917 0.238483,1.430898 0.42397,2.67631 0.609457,3.762733 -2.411329,0.715129 -4.0542123,3.259268 -4.0542123,5.749771 0,1.854868 1.4573963,4.399008 3.5772463,4.399008 0.211985,0 0.450468,-0.105672 0.450468,-0.344235 0,-0.238563 -0.264982,-0.371454 -0.582959,-0.582799 -1.033427,-0.636435 -1.616385,-1.324906 -1.616385,-2.623394 0,-1.616305 1.192415,-2.914793 2.755804,-3.286247 l 1.536891,8.717961 M 13.761477,7.6844542 c 0.238483,-1.0599247 1.457396,-3.8422271 2.835298,-3.8422271 0.397472,0 1.033427,1.2984078 1.033427,3.1267779 0,2.7558043 -2.040355,4.822657 -3.868725,6.624529 -0.158989,-1.059924 -0.29148,-2.093351 -0.29148,-3.206272 0,-0.9804301 0.0795,-1.8813662 0.29148,-2.7028078 m 6.094567,22.3382338 c 0,1.881286 -0.768446,3.815409 -2.649812,4.583934 -0.556461,-3.179774 -1.27191,-7.393055 -1.457397,-8.558652 2.384831,0 4.107209,1.616305 4.107209,3.974718 M 8.1968718,43.059602 c 0,1.748395 1.351404,4.053972 4.9286502,4.053972 1.245411,0 2.331834,-0.317818 3.285766,-0.900616 1.430899,-1.007089 1.801872,-2.756285 1.801872,-4.425426 0,-1.033507 -0.158988,-2.225522 -0.42397,-3.736155 -0.07949,-0.529962 -0.238483,-1.324906 -0.397471,-2.358412 2.596815,-0.84778 4.531178,-3.550428 4.531178,-6.280294 0,-4.001136 -2.835299,-6.703784 -6.704024,-6.703784 -0.264981,-1.589887 -0.529962,-3.153276 -0.768445,-4.637171 2.8088,-2.941291 4.743163,-6.253555 4.743163,-10.4667562 0,-2.4113287 -0.741948,-4.3721894 -1.165918,-5.3261217 C 17.391719,0.92743413 16.623273,0 16.146307,0 15.96082,0 15.139379,0.31797741 14.264941,1.351404 c -1.69588,2.013857 -2.172846,5.4056161 -2.172846,7.631458 0,1.430898 0.132491,2.729306 0.582959,5.697095 -0.0265,0.0265 -1.404401,1.430899 -1.960861,1.881367 -2.4113288,2.25234 -5.7500916,5.458612 -5.7500916,10.757915 0,4.955389 4.3191932,8.850852 9.2478436,8.850852 0.768445,0 1.483894,-0.07925 2.093351,-0.185727 0.503464,2.54414 0.794943,4.399008 0.794943,5.803168 0,2.755484 -1.4044,4.213281 -4.08071,4.213281 -0.635955,0 -1.192415,-0.132891 -1.245411,-0.132891 -0.0265,-0.02642 -0.07949,-0.05284 -0.07949,-0.07925 0,-0.05284 0.053,-0.07926 0.132491,-0.105673 1.245411,-0.185727 2.490823,-1.245651 2.490823,-2.941211 0,-1.431378 -1.086423,-2.941211 -3.073782,-2.941211 -1.8548679,0 -3.0472832,1.509833 -3.0472832,3.259029 M 16.093311,173.91707 c -0.529962,0.10648 -1.033427,0.15931 -1.536891,0.15931 -3.789231,0 -7.0220012,-2.64981 -7.0220012,-6.65094 0,-3.23341 2.2788381,-6.12099 4.6106722,-8.13517 0.450468,-0.39787 0.874438,-0.76852 1.27191,-1.16559 0.238483,1.43057 0.42397,2.67623 0.609457,3.76257 -2.411329,0.71489 -4.0542123,3.25903 -4.0542123,5.74953 0,1.85487 1.4573963,4.39901 3.5772463,4.39901 0.211985,0 0.450468,-0.10567 0.450468,-0.34424 0,-0.23856 -0.264982,-0.37145 -0.582959,-0.5828 -1.033427,-0.63643 -1.616385,-1.3249 -1.616385,-2.62339 0,-1.6163 1.192415,-2.91479 2.755804,-3.28625 l 1.536891,8.71796 m -2.331834,-27.24022 c 0.238483,-1.05993 1.457396,-3.84183 2.835298,-3.84183 0.397472,0 1.033427,1.29849 1.033427,3.12694 0,2.75548 -2.040355,4.8225 -3.868725,6.62453 -0.158989,-1.05992 -0.29148,-2.09343 -0.29148,-3.20619 0,-0.98067 0.0795,-1.88209 0.29148,-2.70345 m 6.094567,22.33847 c 0,1.88129 -0.768446,3.81541 -2.649812,4.58394 -0.556461,-3.17978 -1.27191,-7.39306 -1.457397,-8.55865 2.384831,0 4.107209,1.6163 4.107209,3.97471 M 8.1968718,182.05224 c 0,1.74839 1.351404,4.05397 4.9286502,4.05397 1.245411,0 2.331834,-0.31782 3.285766,-0.90062 1.430899,-1.00709 1.801872,-2.75628 1.801872,-4.42542 0,-1.03351 -0.158988,-2.22552 -0.42397,-3.73616 -0.07949,-0.52996 -0.238483,-1.3249 -0.397471,-2.35841 2.596815,-0.84778 4.531178,-3.55043 4.531178,-6.28029 0,-4.00114 -2.835299,-6.70379 -6.704024,-6.70379 -0.264981,-1.58988 -0.529962,-3.15335 -0.768445,-4.63677 2.8088,-2.94201 4.743163,-6.25387 4.743163,-10.46715 0,-2.41125 -0.741948,-4.37179 -1.165918,-5.32605 -0.635954,-1.35132 -1.4044,-2.27915 -1.881366,-2.27915 -0.185487,0 -1.006928,0.31861 -1.881366,1.35132 -1.69588,2.01418 -2.172846,5.4061 -2.172846,7.63162 0,1.43138 0.132491,2.72986 0.582959,5.69749 -0.0265,0.0264 -1.404401,1.43058 -1.960861,1.88129 -2.4113288,2.25194 -5.7500916,5.45813 -5.7500916,10.75775 0,4.95539 4.3191932,8.85086 9.2478436,8.85086 0.768445,0 1.483894,-0.0793 2.093351,-0.18573 0.503464,2.54414 0.794943,4.39901 0.794943,5.80317 0,2.75548 -1.4044,4.21328 -4.08071,4.21328 -0.635955,0 -1.192415,-0.13289 -1.245411,-0.13289 -0.0265,-0.0264 -0.07949,-0.0528 -0.07949,-0.0793 0,-0.0528 0.053,-0.0792 0.132491,-0.10567 1.245411,-0.18573 2.490823,-1.24565 2.490823,-2.94121 0,-1.43138 -1.086423,-2.94121 -3.073782,-2.94121 -1.8548679,0 -3.0472832,1.50983 -3.0472832,3.25903 m 7.8964392,-77.63148 c -0.529962,0.10647 -1.033427,0.15931 -1.536891,0.15931 -3.789231,0 -7.0220012,-2.64982 -7.0220012,-6.650952 0,-3.23341 2.2788381,-6.120985 4.6106722,-8.135162 0.450468,-0.397872 0.874438,-0.768526 1.27191,-1.165597 0.238483,1.430578 0.42397,2.67623 0.609457,3.762573 -2.411329,0.714888 -4.0542123,3.259028 -4.0542123,5.749531 0,1.854868 1.4573963,4.399007 3.5772463,4.399007 0.211985,0 0.450468,-0.10567 0.450468,-0.34423 0,-0.23857 -0.264982,-0.37146 -0.582959,-0.5828 -1.033427,-0.63644 -1.616385,-1.32491 -1.616385,-2.623397 0,-1.616305 1.192415,-2.914793 2.755804,-3.286247 l 1.536891,8.717964 M 13.761477,77.180532 c 0.238483,-1.059925 1.457396,-3.841827 2.835298,-3.841827 0.397472,0 1.033427,1.298488 1.033427,3.126938 0,2.755484 -2.040355,4.822497 -3.868725,6.624529 -0.158989,-1.059924 -0.29148,-2.093431 -0.29148,-3.206192 0,-0.98067 0.0795,-1.882087 0.29148,-2.703448 m 6.094567,22.338473 c 0,1.881285 -0.768446,3.815405 -2.649812,4.583935 -0.556461,-3.17977 -1.27191,-7.393055 -1.457397,-8.558652 2.384831,0 4.107209,1.616305 4.107209,3.974717 M 8.1968718,112.55592 c 0,1.74839 1.351404,4.05397 4.9286502,4.05397 1.245411,0 2.331834,-0.31782 3.285766,-0.90061 1.430899,-1.00709 1.801872,-2.75629 1.801872,-4.42543 0,-1.03351 -0.158988,-2.22552 -0.42397,-3.73616 -0.07949,-0.52996 -0.238483,-1.3249 -0.397471,-2.35841 2.596815,-0.84778 4.531178,-3.55043 4.531178,-6.280292 0,-4.001135 -2.835299,-6.703783 -6.704024,-6.703783 -0.264981,-1.589887 -0.529962,-3.153356 -0.768445,-4.636771 2.8088,-2.942011 4.743163,-6.253876 4.743163,-10.467157 0,-2.411248 -0.741948,-4.371789 -1.165918,-5.326041 -0.635954,-1.351324 -1.4044,-2.279159 -1.881366,-2.279159 -0.185487,0 -1.006928,0.318618 -1.881366,1.351324 -1.69588,2.014178 -2.172846,5.406097 -2.172846,7.631618 0,1.431379 0.132491,2.729867 0.582959,5.697496 -0.0265,0.02642 -1.404401,1.430578 -1.960861,1.881286 -2.4113288,2.25194 -5.7500916,5.458132 -5.7500916,10.757756 0,4.955393 4.3191932,8.850853 9.2478436,8.850853 0.768445,0 1.483894,-0.0793 2.093351,-0.18573 0.503464,2.54414 0.794943,4.39901 0.794943,5.80317 0,2.75548 -1.4044,4.21328 -4.08071,4.21328 -0.635955,0 -1.192415,-0.13289 -1.245411,-0.13289 -0.0265,-0.0264 -0.07949,-0.0528 -0.07949,-0.0793 0,-0.0528 0.053,-0.0793 0.132491,-0.10568 1.245411,-0.18572 2.490823,-1.24565 2.490823,-2.94121 0,-1.43138 -1.086423,-2.94121 -3.073782,-2.94121 -1.8548679,0 -3.0472832,1.50983 -3.0472832,3.25903 M 475.55795,86.837535 c 0,1.139979 0.82136,2.411248 2.96763,2.411248 2.75628,0 5.64466,-2.25194 5.64466,-4.583934 0,-1.563469 -1.32491,-2.437667 -2.96843,-2.437667 -2.56976,0 -5.64386,2.172686 -5.64386,4.610353 m 15.32247,-56.258467 c 0,1.139179 0.82136,2.411249 2.96763,2.411249 2.75549,0 5.64386,-2.25274 5.64386,-4.583934 0,-1.563469 -1.3249,-2.438468 -2.96763,-2.438468 -2.57056,0 -5.64386,2.173486 -5.64386,4.611153 m 24.16132,0 c 0,1.139179 0.82136,2.411249 2.96763,2.411249 2.75549,0 5.64386,-2.25274 5.64386,-4.583934 0,-1.563469 -1.3249,-2.438468 -2.96763,-2.438468 -2.57056,0 -5.64386,2.173486 -5.64386,4.611153 M 457.90107,169.5717 c 0,1.13918 0.82137,2.41125 2.96763,2.41125 2.75549,0 5.64386,-2.25274 5.64386,-4.58393 0,-1.56347 -1.3249,-2.43847 -2.96763,-2.43847 -2.57055,0 -5.64386,2.17349 -5.64386,4.61115 M 532.95239,30.579068 c 0,1.139179 0.82136,2.411249 2.96763,2.411249 2.75628,0 5.64466,-2.25274 5.64466,-4.583934 0,-1.563469 -1.32491,-2.438468 -2.96843,-2.438468 -2.56976,0 -5.64386,2.173486 -5.64386,4.611153 m -180.42657,9.927588 c 0,1.13998 0.82217,2.411249 2.96843,2.411249 2.75549,0 5.64386,-2.25194 5.64386,-4.583934 0,-1.563469 -1.3249,-2.437667 -2.96763,-2.437667 -2.57055,0 -5.64466,2.172685 -5.64466,4.610352 M 83.453048,30.579068 c 0,1.139179 0.821361,2.411249 2.967629,2.411249 2.755484,0 5.643859,-2.25274 5.643859,-4.583934 0,-1.563469 -1.324906,-2.438468 -2.967629,-2.438468 -2.570558,0 -5.643859,2.173486 -5.643859,4.611153 M 423.87461,166.26224 c 0,1.13918 0.82136,2.41125 2.96763,2.41125 2.75628,0 5.64466,-2.25194 5.64466,-4.58393 0,-1.56347 -1.32491,-2.43767 -2.96843,-2.43767 -2.56976,0 -5.64386,2.17268 -5.64386,4.61035 M 549.0602,33.888531 c 0,1.139179 0.82136,2.411249 2.96763,2.411249 2.75549,0 5.64386,-2.252741 5.64386,-4.584735 0,-1.563469 -1.3249,-2.437667 -2.96763,-2.437667 -2.57056,0 -5.64386,2.172686 -5.64386,4.611153 m 16.10702,-3.309463 c 0,1.139179 0.82136,2.411249 2.96763,2.411249 2.75628,0 5.64465,-2.25274 5.64465,-4.583934 0,-1.563469 -1.3249,-2.438468 -2.96762,-2.438468 -2.57056,0 -5.64466,2.173486 -5.64466,4.611153 M 387.03262,172.88117 c 0,1.13918 0.82136,2.41124 2.96763,2.41124 2.75548,0 5.64386,-2.25274 5.64386,-4.58473 0,-1.56267 -1.32491,-2.43767 -2.96763,-2.43767 -2.57056,0 -5.64386,2.17269 -5.64386,4.61116 M 328.3653,37.197193 c 0,1.13998 0.82137,2.41205 2.96763,2.41205 2.75549,0 5.64386,-2.252741 5.64386,-4.584735 0,-1.563469 -1.3249,-2.437667 -2.96763,-2.437667 -2.57055,0 -5.64386,2.172686 -5.64386,4.610352 m 21.82453,135.683977 c 0,1.13918 0.82136,2.41124 2.96843,2.41124 2.75548,0 5.64386,-2.25274 5.64386,-4.58473 0,-1.56267 -1.32491,-2.43767 -2.96763,-2.43767 -2.57056,0 -5.64466,2.17269 -5.64466,4.61116 M 593.16556,27.269605 c 0,1.139179 0.82136,2.411249 2.96763,2.411249 2.75628,0 5.64466,-2.25274 5.64466,-4.583934 0,-1.563469 -1.32491,-2.438067 -2.96843,-2.438067 -2.56976,0 -5.64386,2.173086 -5.64386,4.610752 M 325.62823,166.26224 c 0,1.13918 0.82217,2.41125 2.96843,2.41125 2.75549,0 5.64386,-2.25194 5.64386,-4.58393 0,-1.56347 -1.3249,-2.43767 -2.96763,-2.43767 -2.57055,0 -5.64466,2.17268 -5.64466,4.61035 M 609.27337,33.888531 c 0,1.139179 0.82137,2.411249 2.96763,2.411249 2.75549,0 5.64386,-2.252741 5.64386,-4.584735 0,-1.563469 -1.3249,-2.437667 -2.96763,-2.437667 -2.57056,0 -5.64386,2.172686 -5.64386,4.611153 m 24.16052,0 c 0,1.139179 0.82217,2.411249 2.96843,2.411249 2.75549,0 5.64386,-2.252741 5.64386,-4.584735 0,-1.563469 -1.3249,-2.437667 -2.96763,-2.437667 -2.57056,0 -5.64466,2.172686 -5.64466,4.611153 M 519.30466,176.18983 c 0,1.13998 0.82136,2.41205 2.96763,2.41205 2.75628,0 5.64466,-2.25274 5.64466,-4.58474 0,-1.56347 -1.32491,-2.43766 -2.96843,-2.43766 -2.56976,0 -5.64386,2.17268 -5.64386,4.61035 M 657.59521,27.269605 c 0,1.139179 0.82136,2.411249 2.96763,2.411249 2.75629,0 5.64466,-2.25274 5.64466,-4.583934 0,-1.563469 -1.3249,-2.438067 -2.96763,-2.438067 -2.57055,0 -5.64466,2.173086 -5.64466,4.610752 M 291.60257,169.5717 c 0,1.13918 0.82136,2.41125 2.96763,2.41125 2.75548,0 5.64386,-2.25274 5.64386,-4.58393 0,-1.56347 -1.32491,-2.43847 -2.96763,-2.43847 -2.57056,0 -5.64386,2.17349 -5.64386,4.61115 M 312.25749,33.888531 c 0,1.139179 0.82136,2.411249 2.96763,2.411249 2.75628,0 5.64466,-2.252741 5.64466,-4.584735 0,-1.563469 -1.32491,-2.437667 -2.96843,-2.437667 -2.56976,0 -5.64386,2.172686 -5.64386,4.611153 M 267.04097,172.88117 c 0,1.13918 0.82137,2.41124 2.96763,2.41124 2.75549,0 5.64386,-2.25274 5.64386,-4.58473 0,-1.56267 -1.3249,-2.43767 -2.96763,-2.43767 -2.57055,0 -5.64386,2.17269 -5.64386,4.61116 M 462.88208,33.888531 c 0,1.139179 0.82136,2.411249 2.96763,2.411249 2.75548,0 5.64386,-2.252741 5.64386,-4.584735 0,-1.563469 -1.32491,-2.437667 -2.96763,-2.437667 -2.57056,0 -5.64386,2.172686 -5.64386,4.611153 m 93.26537,145.610759 c 0,1.13998 0.82136,2.41125 2.96763,2.41125 2.75548,0 5.64386,-2.25194 5.64386,-4.58393 0,-1.56347 -1.32491,-2.43767 -2.96763,-2.43767 -2.57056,0 -5.64386,2.17268 -5.64386,4.61035 M 242.47938,169.5717 c 0,1.13918 0.82136,2.41125 2.96763,2.41125 2.75548,0 5.64386,-2.25274 5.64386,-4.58393 0,-1.56347 -1.32491,-2.43847 -2.96763,-2.43847 -2.57056,0 -5.64386,2.17349 -5.64386,4.61115 M 51.774588,30.579068 c 0,1.139179 0.822162,2.411249 2.968429,2.411249 2.755484,0 5.643859,-2.25274 5.643859,-4.583934 0,-1.563469 -1.324906,-2.438468 -2.967629,-2.438468 -2.570557,0 -5.644659,2.173486 -5.644659,4.611153 M 217.91779,169.5717 c 0,1.13918 0.82136,2.41125 2.96763,2.41125 2.75628,0 5.64385,-2.25274 5.64385,-4.58393 0,-1.56347 -1.3249,-2.43847 -2.96762,-2.43847 -2.56976,0 -5.64386,2.17349 -5.64386,4.61115 M 38.456682,100.07539 c 0,1.13917 0.821361,2.41124 2.967629,2.41124 2.756284,0 5.644659,-2.25274 5.644659,-4.58393 0,-1.563469 -1.324906,-2.438467 -2.968429,-2.438467 -2.569757,0 -5.643859,2.173486 -5.643859,4.611157 m 23.632959,3.30946 c 0,1.13918 0.821361,2.41125 2.967629,2.41125 2.755484,0 5.643859,-2.25274 5.643859,-4.58474 0,-1.562666 -1.324906,-2.437664 -2.96763,-2.437664 -2.570557,0 -5.643858,2.172684 -5.643858,4.611154 M 181.0758,169.5717 c 0,1.13918 0.82136,2.41125 2.96763,2.41125 2.75548,0 5.64385,-2.25274 5.64385,-4.58393 0,-1.56347 -1.3249,-2.43847 -2.96762,-2.43847 -2.57056,0 -5.64386,2.17349 -5.64386,4.61115 M 77.844413,106.69351 c 0,1.13998 0.821361,2.41205 2.968429,2.41205 2.755484,0 5.643859,-2.25274 5.643859,-4.58473 0,-1.56347 -1.324906,-2.43767 -2.967629,-2.43767 -2.570557,0 -5.644659,2.17268 -5.644659,4.61035 M 99.560061,33.888531 c 0,1.139179 0.822159,2.411249 2.968429,2.411249 2.75548,0 5.64386,-2.252741 5.64386,-4.584735 0,-1.563469 -1.32491,-2.437667 -2.96763,-2.437667 -2.57056,0 -5.644659,2.172686 -5.644659,4.611153 m 1.917309,76.114439 c 0,1.13998 0.82136,2.41125 2.96763,2.41125 2.75629,0 5.64466,-2.25194 5.64466,-4.58393 0,-1.56347 -1.32491,-2.43767 -2.96843,-2.43767 -2.56976,0 -5.64386,2.17269 -5.64386,4.61035 m 51.60008,62.8782 c 0,1.13918 0.82136,2.41124 2.96763,2.41124 2.75549,0 5.64386,-2.25274 5.64386,-4.58473 0,-1.56267 -1.32491,-2.43767 -2.96763,-2.43767 -2.57056,0 -5.64386,2.17269 -5.64386,4.61116 M 288.09617,30.579068 c 0,1.139179 0.82136,2.411249 2.96763,2.411249 2.75628,0 5.64466,-2.25274 5.64466,-4.583934 0,-1.563469 -1.32491,-2.438468 -2.96843,-2.438468 -2.56976,0 -5.64386,2.173486 -5.64386,4.611153 m 163.86404,6.618125 c 0,1.13998 0.82136,2.41205 2.96763,2.41205 2.75548,0 5.64386,-2.252741 5.64386,-4.584735 0,-1.563469 -1.32491,-2.437667 -2.96763,-2.437667 -2.57056,0 -5.64386,2.172686 -5.64386,4.610352 M 136.70306,176.18983 c 0,1.13998 0.82136,2.41205 2.96763,2.41205 2.75548,0 5.64385,-2.25274 5.64385,-4.58474 0,-1.56347 -1.3249,-2.43766 -2.96762,-2.43766 -2.57056,0 -5.64386,2.17268 -5.64386,4.61035 m -3.54723,-62.87739 c 0,1.13918 0.82136,2.41125 2.96763,2.41125 2.75548,0 5.64386,-2.25194 5.64386,-4.58394 0,-1.56347 -1.32491,-2.43767 -2.96763,-2.43767 -2.57056,0 -5.64386,2.17269 -5.64386,4.61036 M 99.860266,169.5717 c 0,1.13918 0.822164,2.41125 2.968434,2.41125 2.75548,0 5.64385,-2.25274 5.64385,-4.58393 0,-1.56347 -1.3249,-2.43847 -2.96762,-2.43847 -2.57056,0 -5.644664,2.17349 -5.644664,4.61115 M 256.41851,27.269605 c 0,1.139179 0.82136,2.411249 2.96763,2.411249 2.75548,0 5.64386,-2.25274 5.64386,-4.583934 0,-1.563469 -1.32491,-2.438067 -2.96763,-2.438067 -2.57056,0 -5.64386,2.173086 -5.64386,4.610752 M 75.299473,169.5717 c 0,1.13918 0.821361,2.41125 2.967629,2.41125 2.755484,0 5.643859,-2.25274 5.643859,-4.58393 0,-1.56347 -1.324906,-2.43847 -2.967629,-2.43847 -2.570558,0 -5.643859,2.17349 -5.643859,4.61115 m 81.488517,-56.25926 c 0,1.13918 0.82136,2.41125 2.96763,2.41125 2.75628,0 5.64466,-2.25194 5.64466,-4.58394 0,-1.56347 -1.32491,-2.43767 -2.96763,-2.43767 -2.57056,0 -5.64466,2.17269 -5.64466,4.61036 m 271.0109,-69.496321 c 0,1.139179 0.82136,2.411249 2.96763,2.411249 2.75629,0 5.64386,-2.25194 5.64386,-4.583935 0,-1.563469 -1.32491,-2.437666 -2.96763,-2.437666 -2.56976,0 -5.64386,2.172685 -5.64386,4.610352 M 38.456682,169.5717 c 0,1.13918 0.821361,2.41125 2.967629,2.41125 2.756284,0 5.644659,-2.25274 5.644659,-4.58393 0,-1.56347 -1.324906,-2.43847 -2.968429,-2.43847 -2.569757,0 -5.643859,2.17349 -5.643859,4.61115 M 186.74687,90.146997 c 0,1.139179 0.82137,2.411249 2.96763,2.411249 2.75549,0 5.64386,-2.25194 5.64386,-4.583934 0,-1.563469 -1.3249,-2.437667 -2.96763,-2.437667 -2.57055,0 -5.64386,2.172686 -5.64386,4.610352 M 408.3656,43.816119 c 0,1.139179 0.82137,2.411249 2.96763,2.411249 2.75549,0 5.64386,-2.25194 5.64386,-4.583935 0,-1.563469 -1.3249,-2.437666 -2.96763,-2.437666 -2.57055,0 -5.64386,2.172685 -5.64386,4.610352 M 590.17311,182.80875 c 0,1.13998 0.82137,2.41125 2.96763,2.41125 2.75629,0 5.64466,-2.25194 5.64466,-4.58393 0,-1.56347 -1.3249,-2.43767 -2.96763,-2.43767 -2.57055,0 -5.64466,2.17269 -5.64466,4.61035 M 115.66787,30.579068 c 0,1.139179 0.82137,2.411249 2.96763,2.411249 2.75629,0 5.64466,-2.25274 5.64466,-4.583934 0,-1.563469 -1.3249,-2.438468 -2.96843,-2.438468 -2.56975,0 -5.64386,2.173486 -5.64386,4.611153 m 99.07735,59.567929 c 0,1.139179 0.82136,2.411249 2.96763,2.411249 2.75548,0 5.64386,-2.25194 5.64386,-4.583934 0,-1.563469 -1.32491,-2.437667 -2.96763,-2.437667 -2.57056,0 -5.64386,2.172686 -5.64386,4.610352 M 131.77569,30.579068 c 0,1.139179 0.82136,2.411249 2.96763,2.411249 2.75548,0 5.64386,-2.25274 5.64386,-4.583934 0,-1.563469 -1.32491,-2.438468 -2.96763,-2.438468 -2.57056,0 -5.64386,2.173486 -5.64386,4.611153 m 252.42859,13.237051 c 0,1.139179 0.82137,2.411249 2.96763,2.411249 2.75629,0 5.64386,-2.25194 5.64386,-4.583935 0,-1.563469 -1.3249,-2.437666 -2.96763,-2.437666 -2.56975,0 -5.64386,2.172685 -5.64386,4.610352 m -145.8269,46.330878 c 0,1.139179 0.82136,2.411249 2.96763,2.411249 2.75628,0 5.64465,-2.25194 5.64465,-4.583934 0,-1.563469 -1.3249,-2.437667 -2.96762,-2.437667 -2.57056,0 -5.64466,2.172686 -5.64466,4.610352 m 419.21783,6.618926 c 0,1.139179 0.82136,2.411249 2.96763,2.411249 2.75629,0 5.64466,-2.252741 5.64466,-4.583935 0,-1.563469 -1.3249,-2.438467 -2.96763,-2.438467 -2.57055,0 -5.64466,2.173486 -5.64466,4.611153 M 232.25719,33.888531 c 0,1.139179 0.82136,2.411249 2.96763,2.411249 2.75548,0 5.64386,-2.252741 5.64386,-4.584735 0,-1.563469 -1.32491,-2.437667 -2.96763,-2.437667 -2.57056,0 -5.64386,2.172686 -5.64386,4.611153 M 627.0159,182.80875 c 0,1.13998 0.82137,2.41125 2.96763,2.41125 2.75549,0 5.64386,-2.25194 5.64386,-4.58393 0,-1.56347 -1.3249,-2.43767 -2.96763,-2.43767 -2.57055,0 -5.64386,2.17269 -5.64386,4.61035 m 6.94715,-89.35229 c 0,1.139179 0.82137,2.411249 2.96763,2.411249 2.75549,0 5.64386,-2.25194 5.64386,-4.583934 0,-1.563469 -1.3249,-2.437667 -2.96763,-2.437667 -2.57055,0 -5.64386,2.172685 -5.64386,4.610352 m -364.07533,0 c 0,1.139179 0.82136,2.411249 2.96763,2.411249 2.75628,0 5.64466,-2.25194 5.64466,-4.583934 0,-1.563469 -1.32491,-2.437667 -2.96843,-2.437667 -2.56976,0 -5.64386,2.172685 -5.64386,4.610352 m 348.31976,-3.309463 c 0,1.139179 0.82136,2.411249 2.96763,2.411249 2.75629,0 5.64466,-2.25194 5.64466,-4.583934 0,-1.563469 -1.32491,-2.437667 -2.96843,-2.437667 -2.56976,0 -5.64386,2.172686 -5.64386,4.610352 m -332.56419,0 c 0,1.139179 0.82137,2.411249 2.96763,2.411249 2.75549,0 5.64386,-2.25194 5.64386,-4.583934 0,-1.563469 -1.3249,-2.437667 -2.96763,-2.437667 -2.57055,0 -5.64386,2.172686 -5.64386,4.610352 M 208.09587,33.888531 c 0,1.139179 0.82136,2.411249 2.96763,2.411249 2.75628,0 5.64466,-2.252741 5.64466,-4.584735 0,-1.563469 -1.32491,-2.437667 -2.96843,-2.437667 -2.56976,0 -5.64386,2.172686 -5.64386,4.611153 m 386.47865,52.949004 c 0,1.139979 0.82217,2.411248 2.96843,2.411248 2.75549,0 5.64386,-2.25194 5.64386,-4.583934 0,-1.563469 -1.3249,-2.437667 -2.96763,-2.437667 -2.57055,0 -5.64466,2.172686 -5.64466,4.610353 m -280.93368,0 c 0,1.139979 0.82136,2.411248 2.96843,2.411248 2.75548,0 5.64386,-2.25194 5.64386,-4.583934 0,-1.563469 -1.32491,-2.437667 -2.96763,-2.437667 -2.57056,0 -5.64466,2.172686 -5.64466,4.610353 M 147.8827,33.888531 c 0,1.139179 0.82136,2.411249 2.96763,2.411249 2.75628,0 5.64466,-2.252741 5.64466,-4.584735 0,-1.563469 -1.32491,-2.437667 -2.96843,-2.437667 -2.56976,0 -5.64386,2.172686 -5.64386,4.611153 m 181.51371,66.186859 c 0,1.13917 0.82136,2.41124 2.96763,2.41124 2.75548,0 5.64386,-2.25274 5.64386,-4.58393 0,-1.563469 -1.32491,-2.438467 -2.96763,-2.438467 -2.57056,0 -5.64386,2.173486 -5.64386,4.611157 M 566.57698,83.528072 c 0,1.139979 0.82136,2.412049 2.96763,2.412049 2.75548,0 5.64386,-2.25274 5.64386,-4.584735 0,-1.563469 -1.32491,-2.437667 -2.96763,-2.437667 -2.57056,0 -5.64386,2.172686 -5.64386,4.610353 M 353.02937,100.07539 c 0,1.13917 0.82136,2.41124 2.96763,2.41124 2.75548,0 5.64386,-2.25274 5.64386,-4.58393 0,-1.563469 -1.32491,-2.438467 -2.96763,-2.438467 -2.57056,0 -5.64386,2.173486 -5.64386,4.611157 m 23.63216,-13.237855 c 0,1.139979 0.82136,2.411248 2.96763,2.411248 2.75628,0 5.64466,-2.25194 5.64466,-4.583934 0,-1.563469 -1.32491,-2.437667 -2.96763,-2.437667 -2.57056,0 -5.64466,2.172686 -5.64466,4.610353 m 166.28249,3.309462 c 0,1.139179 0.82136,2.411249 2.96763,2.411249 2.75628,0 5.64386,-2.25194 5.64386,-4.583934 0,-1.563469 -1.32491,-2.437667 -2.96763,-2.437667 -2.56976,0 -5.64386,2.172686 -5.64386,4.610352 M 191.98806,27.269605 c 0,1.139179 0.82216,2.411249 2.96843,2.411249 2.75548,0 5.64386,-2.25274 5.64386,-4.583934 0,-1.563469 -1.32491,-2.438067 -2.96763,-2.438067 -2.57056,0 -5.64466,2.173086 -5.64466,4.610752 m 327.323,62.877392 c 0,1.139179 0.82136,2.411249 2.96763,2.411249 2.75629,0 5.64466,-2.25194 5.64466,-4.583934 0,-1.563469 -1.3249,-2.437667 -2.96763,-2.437667 -2.57056,0 -5.64466,2.172686 -5.64466,4.610352 M 404.65987,86.837535 c 0,1.139979 0.82136,2.411248 2.96763,2.411248 2.75628,0 5.64386,-2.25194 5.64386,-4.583934 0,-1.563469 -1.32491,-2.437667 -2.96763,-2.437667 -2.56976,0 -5.64386,2.172686 -5.64386,4.610353 m 98.89642,-3.309463 c 0,1.139979 0.82136,2.412049 2.96763,2.412049 2.75548,0 5.64386,-2.25274 5.64386,-4.584735 0,-1.563469 -1.32491,-2.437667 -2.96763,-2.437667 -2.57056,0 -5.64386,2.172686 -5.64386,4.610353 m -75.26346,3.309463 c 0,1.139979 0.82136,2.411248 2.96763,2.411248 2.75548,0 5.64386,-2.25194 5.64386,-4.583934 0,-1.563469 -1.32491,-2.437667 -2.96763,-2.437667 -2.57056,0 -5.64386,2.172686 -5.64386,4.610353 m -174.15988,3.309462 c 0,1.139179 0.82136,2.411249 2.96763,2.411249 2.75548,0 5.64386,-2.25194 5.64386,-4.583934 0,-1.563469 -1.32491,-2.437667 -2.96763,-2.437667 -2.57056,0 -5.64386,2.172686 -5.64386,4.610352 M 163.99051,30.579068 c 0,1.139179 0.82137,2.411249 2.96763,2.411249 2.75549,0 5.64386,-2.25274 5.64386,-4.583934 0,-1.563469 -1.3249,-2.438468 -2.96763,-2.438468 -2.57055,0 -5.64386,2.173486 -5.64386,4.611153 m 295.81266,59.567929 c 0,1.139179 0.82137,2.411249 2.96763,2.411249 2.75549,0 5.64386,-2.25194 5.64386,-4.583934 0,-1.563469 -1.3249,-2.437667 -2.96763,-2.437667 -2.57055,0 -5.64386,2.172686 -5.64386,4.610352 m 34.93989,82.734173 c 0,1.13918 0.82137,2.41124 2.96763,2.41124 2.75629,0 5.64466,-2.25274 5.64466,-4.58473 0,-1.56267 -1.3249,-2.43767 -2.96763,-2.43767 -2.57055,0 -5.64466,2.17269 -5.64466,4.61116 M 444.0476,86.837535 c 0,1.139979 0.82136,2.411248 2.96763,2.411248 2.75629,0 5.64466,-2.25194 5.64466,-4.583934 0,-1.563469 -1.32491,-2.437667 -2.96843,-2.437667 -2.56976,0 -5.64386,2.172686 -5.64386,4.610353 M 199.93109,10.660889 c 0,0.0795 0.0264,0.211985 0.21214,0.29148 1.13918,0.370973 3.41754,1.801872 5.14032,4.743163 0.47712,0.821441 1.24565,1.96086 1.24565,4.160204 0,1.907865 -0.50354,3.869046 -1.19282,5.77675 -0.0528,0.158508 -0.10567,0.291399 -0.0793,0.397072 0,0.159308 0.10567,0.264981 0.26498,0.264981 0.18573,0 0.31782,-0.105673 0.42349,-0.2914 1.19282,-2.119849 1.64352,-4.584014 1.64352,-6.995343 -0.13289,-3.418257 -2.09343,-5.935578 -2.09343,-5.935578 0.0793,0 -2.43766,-3.2592685 -3.15335,-4.3721894 -0.98067,-1.5103927 -1.43138,-3.0207855 -1.48422,-3.1267779 -0.0264,-0.079494 -0.26498,-1.0334266 -0.26498,-1.0334266 -0.0264,-0.1059925 -0.15851,-0.211985 -0.31782,-0.211985 -0.18572,0 -0.34423,0.1589887 -0.34423,0.3444756 V 10.660889 M 59.717619,12.315541 c 0,0.07949 0.02642,0.211985 0.211344,0.291479 1.13998,0.370974 3.418337,1.801872 5.141115,4.743163 0.477127,0.821442 1.245652,1.960861 1.245652,4.160205 0,1.907784 -0.503544,3.869125 -1.192815,5.776829 -0.05284,0.158509 -0.105673,0.2914 -0.07925,0.397072 0,0.159309 0.105673,0.264981 0.264982,0.264981 0.184926,0 0.317817,-0.105672 0.423489,-0.291399 1.192816,-2.11985 1.643524,-4.584094 1.643524,-6.995423 -0.132891,-3.418257 -2.093432,-5.935579 -2.093432,-5.935579 0.07925,0 -2.438467,-3.259268 -3.153356,-4.372189 C 61.148197,8.8442872 60.697489,7.3338945 60.644653,7.227902 60.618234,7.1484077 60.379671,6.1944754 60.379671,6.1944754 60.353253,6.088483 60.221163,5.9824905 60.061854,5.9824905 c -0.185727,0 -0.344235,0.1589887 -0.344235,0.3444755 v 5.988575 M 503.55629,105.55433 c 0,0.18573 0.15851,0.34424 0.34424,0.34424 0.13289,0 0.29139,-0.10567 0.31781,-0.21135 0,-0.0264 0.23857,-0.95425 0.26498,-1.0335 0.0264,-0.10648 0.26499,-1.11276 1.21924,-2.67623 1.0335,-1.72278 2.62339,-2.968433 3.9483,-4.823302 1.29849,-1.854868 2.09343,-3.603263 2.09343,-5.935258 0,-2.411248 -0.55638,-4.425426 -1.96134,-6.995183 -0.0793,-0.185727 -0.23857,-0.291399 -0.39707,-0.291399 -0.0528,0 -0.10648,0 -0.13289,0.02642 -0.1321,0.05284 -0.18493,0.158509 -0.18493,0.317818 0,0.07925 0.0264,0.212145 0.0793,0.317817 1.05993,2.464085 1.48422,3.869045 1.48422,5.77675 0,2.199103 -0.76853,3.338282 -1.24565,4.160444 -1.72278,2.941211 -4.50468,4.371789 -5.61744,4.742443 -0.18573,0.08006 -0.21215,0.212145 -0.21215,0.2922 v 5.98809 M 416.30783,25.553232 c 0,0.07925 0.0264,0.211344 0.21215,0.291399 1.13918,0.370654 3.41834,1.802032 5.14031,4.743243 0.47713,0.821362 1.24566,1.960541 1.24566,4.159644 0,1.908505 -0.50355,3.869046 -1.19282,5.77675 -0.0528,0.159309 -0.10567,0.291399 -0.0793,0.397872 0,0.158509 0.10647,0.264981 0.26498,0.264981 0.18572,0 0.31781,-0.106472 0.42429,-0.291399 1.19201,-2.119849 1.64272,-4.584735 1.64272,-6.995983 -0.13289,-3.418338 -2.09343,-5.935258 -2.09343,-5.935258 0.0793,0 -2.43767,-3.259829 -3.15336,-4.37259 -0.98067,-1.510233 -1.43057,-3.020626 -1.48341,-3.126618 -0.0272,-0.07949 -0.26498,-1.033427 -0.26498,-1.033427 -0.0272,-0.105992 -0.15931,-0.211985 -0.31862,-0.211985 -0.18493,0 -0.34424,0.158989 -0.34424,0.344476 v 5.988895 M 564.08968,161.2364 c 0,0.0793 0.0264,0.21215 0.21214,0.2914 1.13918,0.37066 3.41754,1.80204 5.14032,4.74325 0.47713,0.82136 1.24565,1.96054 1.24565,4.16044 0,1.90771 -0.50354,3.86825 -1.19281,5.77595 -0.0528,0.15931 -0.10568,0.2914 -0.0793,0.39787 0,0.15851 0.10567,0.26498 0.26498,0.26498 0.18573,0 0.31782,-0.10647 0.42349,-0.2914 1.19282,-2.11984 1.64353,-4.58473 1.64353,-6.99598 -0.1329,-3.41834 -2.09344,-5.93526 -2.09344,-5.93526 0.0793,0 -2.43766,-3.25903 -3.15335,-4.37259 -0.98067,-1.50983 -1.43138,-3.02046 -1.48422,-3.12613 -0.0264,-0.0801 -0.26498,-1.03351 -0.26498,-1.03351 -0.0264,-0.10647 -0.15851,-0.21215 -0.31782,-0.21215 -0.18572,0 -0.34423,0.15931 -0.34423,0.34424 v 5.98889 M 522.98397,12.315541 c 0,0.07949 0.0264,0.211985 0.21215,0.291479 1.13918,0.370974 3.41754,1.801872 5.14031,4.743163 0.47713,0.821442 1.24566,1.960861 1.24566,4.160205 0,1.907784 -0.50355,3.869125 -1.19282,5.776829 -0.0528,0.158509 -0.10567,0.2914 -0.0793,0.397072 0,0.159309 0.10567,0.264981 0.26498,0.264981 0.18572,0 0.31781,-0.105672 0.42349,-0.291399 1.19281,-2.11985 1.64352,-4.584094 1.64352,-6.995423 -0.13289,-3.418257 -2.09343,-5.935579 -2.09343,-5.935579 0.0793,0 -2.43767,-3.259268 -3.15336,-4.372189 -0.98067,-1.5103928 -1.43138,-3.0207855 -1.48421,-3.126778 -0.0264,-0.079494 -0.26498,-1.0334266 -0.26498,-1.0334266 -0.0264,-0.1059924 -0.15851,-0.2119849 -0.31782,-0.2119849 -0.18573,0 -0.34424,0.1589887 -0.34424,0.3444755 v 5.988575 M 502.68529,154.61748 c 0,0.0793 0.0272,0.21214 0.21215,0.2914 1.13998,0.37145 3.41834,1.80203 5.14111,4.74324 0.47633,0.82136 1.24486,1.96134 1.24486,4.16045 0,1.9077 -0.50355,3.86824 -1.19202,5.77675 -0.0528,0.1585 -0.10647,0.29139 -0.0793,0.39707 0,0.15931 0.10567,0.26498 0.26498,0.26498 0.18492,0 0.31782,-0.10567 0.42349,-0.2914 1.19281,-2.11985 1.64272,-4.58394 1.64272,-6.99518 -0.13209,-3.41834 -2.09343,-5.93606 -2.09343,-5.93606 0.0801,0 -2.43767,-3.25903 -3.15256,-4.37179 -0.98067,-1.51063 -1.43137,-3.02127 -1.48421,-3.12694 -0.0264,-0.0793 -0.26498,-1.03351 -0.26498,-1.03351 -0.0264,-0.10567 -0.15931,-0.21214 -0.31782,-0.21214 -0.18573,0 -0.34504,0.15931 -0.34504,0.34503 v 5.9881 m -74.39246,-45.75369 c 0,0.18573 0.15851,0.34424 0.34423,0.34424 0.13209,0 0.2914,-0.10567 0.31782,-0.21134 0,-0.0272 0.23857,-0.95426 0.26498,-1.03351 0.0264,-0.10647 0.26498,-1.11356 1.21924,-2.67623 1.0335,-1.72278 2.62339,-2.96843 3.9483,-4.8233 1.29848,-1.854867 2.09343,-3.603262 2.09343,-5.935257 0,-2.411249 -0.55718,-4.425426 -1.96134,-6.995183 -0.0793,-0.185727 -0.23857,-0.2922 -0.39707,-0.2922 -0.0536,0 -0.10648,0 -0.1329,0.02722 -0.13209,0.05284 -0.18572,0.158508 -0.18572,0.317817 0,0.07926 0.0272,0.212145 0.0801,0.317818 1.05993,2.464084 1.48342,3.869045 1.48342,5.776749 0,2.199104 -0.76853,3.338283 -1.24485,4.159645 -1.72278,2.942011 -4.50468,4.372591 -5.61825,4.743241 -0.18492,0.0801 -0.21134,0.21215 -0.21134,0.2914 v 5.98889 m 3.52401,40.78949 c 0,0.0801 0.0264,0.21215 0.21214,0.2914 1.13918,0.37146 3.41834,1.80204 5.14112,4.74325 0.47632,0.82136 1.24485,1.96134 1.24485,4.16044 0,1.90771 -0.50354,3.86905 -1.19201,5.77675 -0.0528,0.15851 -0.10648,0.2914 -0.0801,0.39707 0,0.15931 0.10647,0.26498 0.26498,0.26498 0.18573,0 0.31862,-0.10567 0.42429,-0.2914 1.19282,-2.11984 1.64272,-4.58393 1.64272,-6.99518 -0.13209,-3.41834 -2.09343,-5.93606 -2.09343,-5.93606 0.0801,0 -2.43766,-3.25903 -3.15335,-4.37179 -0.97987,-1.51063 -1.43058,-3.02046 -1.48342,-3.12693 -0.0264,-0.0793 -0.26498,-1.03351 -0.26498,-1.03351 -0.0264,-0.10567 -0.15931,-0.21215 -0.31782,-0.21215 -0.18572,0 -0.34503,0.15931 -0.34503,0.34504 v 5.98809 M 360.46886,22.243609 c 0,0.07949 0.0264,0.211985 0.21134,0.291479 1.13998,0.370974 3.41834,1.802112 5.14111,4.743323 0.47713,0.821362 1.24566,1.960541 1.24566,4.159645 0,1.908504 -0.50355,3.869045 -1.19282,5.776749 -0.0528,0.159309 -0.10567,0.2914 -0.0793,0.397872 0,0.158509 0.10567,0.264982 0.26498,0.264982 0.18492,0 0.31782,-0.106473 0.42349,-0.2914 1.19281,-2.119849 1.64352,-4.584734 1.64352,-6.995983 -0.13289,-3.418337 -2.09343,-5.935258 -2.09343,-5.935258 0.0793,0 -2.43847,-3.259349 -3.15336,-4.37227 -0.98067,-1.510393 -1.43137,-3.020785 -1.48421,-3.126778 -0.0264,-0.07949 -0.26498,-1.033426 -0.26498,-1.033426 -0.0264,-0.105993 -0.15851,-0.211985 -0.31782,-0.211985 -0.18573,0 -0.34423,0.158988 -0.34423,0.344475 v 5.988575 m 240.63893,-11.58272 c 0,0.0795 0.0264,0.211985 0.21215,0.29148 1.13917,0.370973 3.41833,1.801872 5.14111,4.743163 0.47633,0.821441 1.24485,1.96086 1.24485,4.160204 0,1.907865 -0.50354,3.869046 -1.19201,5.77675 -0.0528,0.158508 -0.10648,0.291399 -0.0801,0.397072 0,0.159308 0.10647,0.264981 0.26498,0.264981 0.18573,0 0.31862,-0.105673 0.42429,-0.2914 1.19282,-2.119849 1.64273,-4.584014 1.64273,-6.995343 -0.13209,-3.418257 -2.09343,-5.935578 -2.09343,-5.935578 0.0801,0 -2.43767,-3.2592685 -3.15336,-4.3721894 -0.97987,-1.5103927 -1.43058,-3.0207855 -1.48342,-3.1267779 -0.0264,-0.079494 -0.26498,-1.0334266 -0.26498,-1.0334266 -0.0264,-0.1059925 -0.15931,-0.211985 -0.31781,-0.211985 -0.18573,0 -0.34504,0.1589887 -0.34504,0.3444756 V 10.660889 M 333.57126,149.65328 c 0,0.0801 0.0264,0.21215 0.21215,0.2914 1.13918,0.37146 3.41754,1.80204 5.14031,4.74325 0.47713,0.82136 1.24566,1.96134 1.24566,4.16044 0,1.90771 -0.50355,3.86905 -1.19282,5.77675 -0.0528,0.15851 -0.10567,0.2914 -0.0793,0.39707 0,0.15931 0.10567,0.26498 0.26498,0.26498 0.18572,0 0.31781,-0.10567 0.42349,-0.2914 1.19281,-2.11984 1.64352,-4.58393 1.64352,-6.99518 -0.13289,-3.41834 -2.09343,-5.93606 -2.09343,-5.93606 0.0793,0 -2.43767,-3.25903 -3.15336,-4.37179 -0.98067,-1.51063 -1.43138,-3.02046 -1.48421,-3.12693 -0.0264,-0.0793 -0.26498,-1.03351 -0.26498,-1.03351 -0.0264,-0.10567 -0.15851,-0.21215 -0.31782,-0.21215 -0.18573,0 -0.34424,0.15931 -0.34424,0.34504 v 5.98809 m 233.00572,-44.09895 c 0,0.18573 0.15851,0.34424 0.34424,0.34424 0.13209,0 0.29139,-0.10567 0.31781,-0.21135 0,-0.0264 0.23857,-0.95425 0.26498,-1.0335 0.0264,-0.10648 0.26499,-1.11276 1.21924,-2.67623 1.0335,-1.72278 2.62339,-2.968433 3.9483,-4.823302 1.29849,-1.854868 2.09343,-3.603263 2.09343,-5.935258 0,-2.411248 -0.55718,-4.425426 -1.96134,-6.995183 -0.0793,-0.185727 -0.23857,-0.291399 -0.39707,-0.291399 -0.0536,0 -0.10648,0 -0.13289,0.02642 -0.1321,0.05284 -0.18573,0.158509 -0.18573,0.317818 0,0.07925 0.0272,0.212145 0.08,0.317817 1.05993,2.464085 1.48342,3.869045 1.48342,5.77675 0,2.199103 -0.76853,3.338282 -1.24485,4.160444 -1.72278,2.941211 -4.50468,4.371789 -5.61825,4.742443 -0.18492,0.08006 -0.21134,0.212145 -0.21134,0.2922 v 5.98809 m 98.96136,-94.893441 c 0,0.0795 0.0264,0.211985 0.21135,0.29148 1.13998,0.370973 3.41834,1.801872 5.14111,4.743163 0.47713,0.821441 1.24486,1.96086 1.24486,4.160204 0,1.907865 -0.50275,3.869046 -1.19202,5.77675 -0.0528,0.158508 -0.10567,0.291399 -0.0793,0.397072 0,0.159308 0.10567,0.264981 0.26498,0.264981 0.18492,0 0.31781,-0.105673 0.42349,-0.2914 1.19281,-2.119849 1.64272,-4.584014 1.64272,-6.995343 -0.13209,-3.418257 -2.09263,-5.935578 -2.09263,-5.935578 0.0793,0 -2.43847,-3.2592685 -3.15336,-4.3721894 -0.98067,-1.5103927 -1.43138,-3.0207855 -1.48421,-3.1267779 -0.0264,-0.079494 -0.26498,-1.0334266 -0.26498,-1.0334266 -0.0264,-0.1059925 -0.15931,-0.211985 -0.31782,-0.211985 -0.18573,0 -0.34424,0.1589887 -0.34424,0.3444756 V 10.660889 M 376.66153,108.86379 c 0,0.18573 0.15931,0.34424 0.34503,0.34424 0.13209,0 0.2914,-0.10567 0.31782,-0.21134 0,-0.0272 0.23856,-0.95426 0.26498,-1.03351 0.0264,-0.10647 0.26498,-1.11356 1.21843,-2.67623 1.03351,-1.72278 2.6234,-2.96843 3.9483,-4.8233 1.29849,-1.854867 2.09344,-3.603262 2.09344,-5.935257 0,-2.411249 -0.55639,-4.425426 -1.96055,-6.995183 -0.0801,-0.185727 -0.23856,-0.2922 -0.39787,-0.2922 -0.0528,0 -0.10567,0 -0.13209,0.02722 -0.13289,0.05284 -0.18572,0.158508 -0.18572,0.317817 0,0.07926 0.0264,0.212145 0.0793,0.317818 1.05992,2.464084 1.48421,3.869045 1.48421,5.776749 0,2.199104 -0.76852,3.338283 -1.24565,4.159645 -1.72197,2.942011 -4.50468,4.372591 -5.61744,4.743241 -0.18573,0.0801 -0.21214,0.21215 -0.21214,0.2914 v 5.98889 M 70.031871,85.121161 c 0,0.07925 0.02642,0.212145 0.212145,0.291399 1.139179,0.371454 3.418337,1.802032 5.140315,4.743243 0.477126,0.821362 1.245651,1.960541 1.245651,4.160445 0,1.907704 -0.503544,3.868245 -1.192015,5.776752 -0.05364,0.15851 -0.106472,0.2914 -0.08005,0.39707 0,0.15931 0.106472,0.26498 0.264981,0.26498 0.185727,0 0.317817,-0.10567 0.42429,-0.2914 1.192015,-2.119848 1.642723,-4.583933 1.642723,-6.995182 -0.13209,-3.418337 -2.093431,-5.936058 -2.093431,-5.936058 0.07925,0 -2.437667,-3.259029 -3.153356,-4.37179 -0.97987,-1.510632 -1.430578,-3.021265 -1.483415,-3.126938 -0.02642,-0.07925 -0.264981,-1.033506 -0.264981,-1.033506 -0.02642,-0.105672 -0.159309,-0.212145 -0.318618,-0.212145 -0.184926,0 -0.344235,0.159309 -0.344235,0.344235 v 5.988895 M 225.86002,151.30802 c 0,0.08 0.0264,0.21214 0.21214,0.29139 1.13918,0.37146 3.41834,1.80204 5.14032,4.74325 0.47712,0.82136 1.24565,1.96134 1.24565,4.16044 0,1.90771 -0.50355,3.86905 -1.19202,5.77675 -0.0536,0.15851 -0.10647,0.2914 -0.08,0.39707 0,0.15931 0.10647,0.26499 0.26498,0.26499 0.18573,0 0.31862,-0.10568 0.42429,-0.2914 1.19202,-2.11985 1.64272,-4.58394 1.64272,-6.99519 -0.13209,-3.41833 -2.09343,-5.93606 -2.09343,-5.93606 0.0801,0 -2.43766,-3.25902 -3.15335,-4.37178 -0.97987,-1.51064 -1.43058,-3.02127 -1.48342,-3.12694 -0.0264,-0.0793 -0.26498,-1.03351 -0.26498,-1.03351 -0.0264,-0.10567 -0.15931,-0.21214 -0.31782,-0.21214 -0.18572,0 -0.34503,0.1593 -0.34503,0.34503 v 5.9881 M 109.4196,91.740087 c 0,0.07925 0.0264,0.212145 0.21215,0.291399 1.13918,0.370653 3.41833,1.802032 5.14031,4.743243 0.47713,0.821362 1.24565,1.960541 1.24565,4.160441 0,1.90771 -0.50354,3.86825 -1.19201,5.77595 -0.0536,0.15931 -0.10647,0.2914 -0.0801,0.39787 0,0.15851 0.10648,0.26499 0.26498,0.26499 0.18573,0 0.31862,-0.10648 0.42429,-0.2914 1.19202,-2.11985 1.64273,-4.58474 1.64273,-6.99599 -0.13209,-3.418334 -2.09343,-5.935255 -2.09343,-5.935255 0.08,0 -2.43767,-3.259028 -3.15336,-4.372589 -0.97987,-1.509833 -1.43058,-3.020466 -1.48341,-3.126138 -0.0264,-0.08006 -0.26498,-1.033507 -0.26498,-1.033507 -0.0264,-0.106472 -0.15931,-0.212145 -0.31782,-0.212145 -0.18573,0 -0.34504,0.159309 -0.34504,0.344236 v 5.988895 M 320.19972,15.624923 c 0,0.07949 0.0264,0.211985 0.21215,0.29148 1.13918,0.370973 3.41833,1.801872 5.14031,4.743163 0.47713,0.821441 1.24565,1.960861 1.24565,4.160364 0,1.907705 -0.50354,3.868245 -1.19201,5.77675 -0.0536,0.158509 -0.10647,0.291399 -0.0801,0.397072 0,0.159309 0.10648,0.264981 0.26498,0.264981 0.18573,0 0.31862,-0.105672 0.42429,-0.291399 1.19202,-2.11985 1.64273,-4.583935 1.64273,-6.995183 -0.13209,-3.418578 -2.09343,-5.935899 -2.09343,-5.935899 0.0801,0 -2.43767,-3.259268 -3.15336,-4.372189 -0.97987,-1.510393 -1.43058,-3.020786 -1.48341,-3.126778 -0.0264,-0.0795 -0.26499,-1.0334268 -0.26499,-1.0334268 -0.0264,-0.1059925 -0.1593,-0.2119849 -0.31781,-0.2119849 -0.18573,0 -0.34504,0.1589887 -0.34504,0.3444755 V 15.624923 M 83.241703,151.30802 c 0,0.08 0.02642,0.21214 0.212145,0.29139 1.139179,0.37146 3.418337,1.80204 5.140315,4.74325 0.477126,0.82136 1.245652,1.96134 1.245652,4.16044 0,1.90771 -0.503545,3.86905 -1.192816,5.77675 -0.05284,0.15851 -0.105672,0.2914 -0.07925,0.39707 0,0.15931 0.105672,0.26499 0.264981,0.26499 0.185727,0 0.317817,-0.10568 0.42429,-0.2914 1.192015,-2.11985 1.642723,-4.58394 1.642723,-6.99519 -0.132891,-3.41833 -2.093431,-5.93606 -2.093431,-5.93606 0.07925,0 -2.437667,-3.25902 -3.153356,-4.37178 -0.980671,-1.51064 -1.430578,-3.02127 -1.484215,-3.12694 -0.02642,-0.0793 -0.264981,-1.03351 -0.264981,-1.03351 -0.02642,-0.10567 -0.158509,-0.21214 -0.317818,-0.21214 -0.185727,0 -0.344235,0.1593 -0.344235,0.34503 v 5.9881 M 186.74687,110.51853 c 0,0.18572 0.15851,0.34423 0.34424,0.34423 0.13289,0 0.2914,-0.10567 0.31782,-0.21214 0,-0.0264 0.23856,-0.95346 0.26498,-1.03271 0.0264,-0.10647 0.26498,-1.11356 1.21923,-2.67703 1.03351,-1.72198 2.6234,-2.96763 3.9483,-4.8225 1.29849,-1.85487 2.09343,-3.603261 2.09343,-5.935255 0,-2.411249 -0.55638,-4.425426 -1.96134,-6.995984 -0.0793,-0.184926 -0.23856,-0.291399 -0.39707,-0.291399 -0.0528,0 -0.10647,0 -0.13289,0.02642 -0.13209,0.05364 -0.18493,0.159309 -0.18493,0.318618 0,0.07925 0.0264,0.211344 0.0793,0.317817 1.05992,2.464085 1.48341,3.868245 1.48341,5.77675 0,2.199103 -0.76772,3.338282 -1.24485,4.159644 -1.72278,2.941209 -4.50468,4.372589 -5.61744,4.743239 -0.18573,0.0801 -0.21215,0.21215 -0.21215,0.2914 v 5.9889 m 126.89393,-1.65474 c 0,0.18573 0.15931,0.34424 0.34503,0.34424 0.13209,0 0.2914,-0.10567 0.31782,-0.21134 0,-0.0272 0.23856,-0.95426 0.26498,-1.03351 0.0264,-0.10647 0.26498,-1.11356 1.21843,-2.67623 1.03351,-1.72278 2.6234,-2.96843 3.9483,-4.8233 1.29849,-1.854867 2.09344,-3.603262 2.09344,-5.935257 0,-2.411249 -0.55639,-4.425426 -1.96055,-6.995183 -0.0793,-0.185727 -0.23856,-0.2922 -0.39787,-0.2922 -0.0528,0 -0.10567,0 -0.13209,0.02722 -0.13289,0.05284 -0.18572,0.158508 -0.18572,0.317817 0,0.07926 0.0264,0.212145 0.0793,0.317818 1.05992,2.464084 1.48421,3.869045 1.48421,5.776749 0,2.199104 -0.76852,3.338283 -1.24565,4.159645 -1.72197,2.942011 -4.50468,4.372591 -5.61744,4.743241 -0.18573,0.0801 -0.21214,0.21215 -0.21214,0.2914 v 5.98889 M 264.36074,10.660889 c 0,0.0795 0.0264,0.211985 0.21215,0.29148 1.13918,0.370973 3.41833,1.801872 5.14031,4.743163 0.47713,0.821441 1.24565,1.96086 1.24565,4.160204 0,1.907865 -0.50354,3.869046 -1.19281,5.77675 -0.0528,0.158508 -0.10567,0.291399 -0.0793,0.397072 0,0.159308 0.10568,0.264981 0.26498,0.264981 0.18573,0 0.31782,-0.105673 0.42429,-0.2914 1.19202,-2.119849 1.64273,-4.584014 1.64273,-6.995343 -0.13289,-3.418257 -2.09343,-5.935578 -2.09343,-5.935578 0.0793,0 -2.43767,-3.2592685 -3.15336,-4.3721894 -0.98067,-1.5103927 -1.43058,-3.0207855 -1.48421,-3.1267779 -0.0264,-0.079494 -0.26499,-1.0334266 -0.26499,-1.0334266 -0.0264,-0.1059925 -0.1585,-0.211985 -0.31781,-0.211985 -0.18493,0 -0.34424,0.1589887 -0.34424,0.3444756 v 5.9885743 m 353.84674,99.857641 c 0,0.18572 0.15931,0.34423 0.34424,0.34423 0.13289,0 0.2922,-0.10567 0.31862,-0.21214 0,-0.0264 0.23856,-0.95346 0.26498,-1.03271 0.0264,-0.10647 0.26498,-1.11356 1.21843,-2.67703 1.03351,-1.72198 2.62339,-2.96763 3.9483,-4.8225 1.29849,-1.85487 2.09343,-3.603261 2.09343,-5.935255 0,-2.411249 -0.55638,-4.425426 -1.96054,-6.995984 -0.08,-0.184926 -0.23856,-0.291399 -0.39787,-0.291399 -0.0528,0 -0.10567,0 -0.13209,0.02642 -0.13289,0.05364 -0.18573,0.159309 -0.18573,0.318618 0,0.07925 0.0264,0.211344 0.0793,0.317817 1.05993,2.464085 1.48422,3.868245 1.48422,5.77675 0,2.199103 -0.76853,3.338282 -1.24565,4.159644 -1.72198,2.941209 -4.50468,4.372589 -5.61744,4.743239 -0.18573,0.0801 -0.21215,0.21215 -0.21215,0.2914 v 5.9889 m -379.8301,0 c 0,0.18572 0.1593,0.34423 0.34503,0.34423 0.13209,0 0.2914,-0.10567 0.31782,-0.21214 0,-0.0264 0.23856,-0.95346 0.26498,-1.03271 0.0264,-0.10647 0.26498,-1.11356 1.21843,-2.67703 1.03351,-1.72198 2.6234,-2.96763 3.9483,-4.8225 1.29849,-1.85487 2.09343,-3.603259 2.09343,-5.935253 0,-2.411249 -0.55638,-4.425426 -1.96054,-6.995984 -0.08,-0.184926 -0.23856,-0.291399 -0.39787,-0.291399 -0.0528,0 -0.10567,0 -0.13209,0.02642 -0.13289,0.05364 -0.18573,0.159309 -0.18573,0.318618 0,0.07925 0.0264,0.211344 0.0793,0.317817 1.05992,2.464085 1.48421,3.868245 1.48421,5.77675 0,2.199103 -0.76852,3.338282 -1.24565,4.159644 -1.72198,2.941207 -4.50468,4.372587 -5.61744,4.743237 -0.18573,0.0801 -0.21214,0.21215 -0.21214,0.2914 v 5.9889 M 665.53824,80.156967 c 0,0.08005 0.0264,0.212145 0.21135,0.291399 1.13998,0.371454 3.41834,1.802032 5.14111,4.743243 0.47713,0.821362 1.24486,1.961341 1.24486,4.160445 0,1.907704 -0.50275,3.869045 -1.19202,5.77675 -0.0528,0.158508 -0.10567,0.291399 -0.0793,0.397071 0,0.159309 0.10567,0.264981 0.26498,0.264981 0.18492,0 0.31781,-0.105672 0.42349,-0.291399 1.19281,-2.119849 1.64272,-4.583934 1.64272,-6.995183 -0.13209,-3.418337 -2.09263,-5.936059 -2.09263,-5.936059 0.0793,0 -2.43847,-3.259028 -3.15336,-4.371789 -0.98067,-1.510633 -1.43138,-3.020465 -1.48421,-3.126938 -0.0264,-0.07925 -0.26498,-1.033506 -0.26498,-1.033506 -0.0264,-0.105673 -0.15931,-0.212145 -0.31782,-0.212145 -0.18573,0 -0.34424,0.159308 -0.34424,0.345035 v 5.988095 M 475.55751,86.836702 V 107.2355 h 0.66216 V 86.836702 Z m -205.66938,6.618902 v 17.089336 h 0.66201 V 93.455604 Z m 15.75484,-3.309447 v 20.398783 h 0.66201 V 90.146157 Z M 240.19986,9.6098371 V 31.71667 h 0.66201 V 9.6098371 Z M 665.53787,74.19525 v 20.398788 h 0.66201 V 74.19525 Z M 155.82529,9.6098371 V 31.71667 h 0.66202 V 9.6098371 Z m 82.55254,80.5363199 v 20.372363 h 0.66201 V 90.146157 Z m 379.83002,0 v 20.372363 h 0.66201 V 90.146157 Z M 139.71756,9.6098371 V 28.407223 h 0.66202 V 9.6098371 Z M 214.7448,90.146157 v 20.398783 h 0.66201 V 90.146157 Z M 216.03849,9.6098371 V 31.71667 h 0.66202 V 9.6098371 Z m 48.3218,-4.9111708 V 25.097768 h 0.66217 V 4.6986663 Z M 46.399384,145.29354 v 22.10621 h 0.662013 V 145.29354 Z M 186.74643,90.146157 v 20.372363 h 0.66202 V 90.146157 Z m 126.89474,-3.309455 v 22.027088 h 0.66217 V 86.836702 Z m 280.9338,0 v 22.053518 h 0.66202 V 86.836702 Z M 83.241287,145.3464 v 22.05335 h 0.66202 V 145.3464 Z m 24.561643,-0.0529 v 22.10621 h 0.66201 V 145.2935 Z M 164.7306,89.034261 v 22.106209 h 0.66202 V 89.034301 Z m -20.08498,61.190589 v 23.79298 h 0.66217 V 150.22489 Z M 296.03882,6.3005432 V 28.407223 h 0.66202 V 6.3005432 Z M 141.09773,89.034301 v 22.106209 h 0.66201 V 89.034301 Z m 19.92158,59.600749 v 22.07416 h 0.66202 v -22.07416 z m 176.319,-72.837928 v 22.106363 h 0.66201 V 75.797122 Z M 123.61046,9.6098371 V 28.407223 h 0.66217 V 9.6098371 Z M 109.41997,85.777538 v 22.053522 h 0.66201 V 85.777538 Z M 171.9324,9.6098371 V 28.407223 h 0.66201 V 9.6098371 Z M 189.01767,145.29354 v 22.10621 h 0.66203 V 145.29354 Z M 85.787092,82.415239 v 22.106371 h 0.66202 V 82.415239 Z M 360.97118,75.797122 v 22.106363 h 0.66202 V 75.797122 Z M 70.032255,79.159421 v 22.053519 h 0.662021 V 79.159421 Z m 496.544355,4.367834 v 22.027095 h 0.66201 V 83.527255 Z M 225.86037,145.3464 v 22.05335 h 0.66217 V 145.3464 Z M 46.399384,75.797122 v 22.106363 h 0.662013 V 75.797122 Z M 250.422,148.60221 v 18.79754 h 0.66202 v -18.79754 z m 24.56086,0 v 22.107 h 0.66201 v -22.107 z M 320.20019,9.6628421 V 31.71667 h 0.66201 V 9.6628421 Z M 299.54434,148.60221 v 18.79754 h 0.66218 V 148.60221 Z M 336.30713,12.919131 V 35.02534 h 0.66202 V 12.919131 Z M 107.50272,9.6098371 V 31.71667 h 0.66202 V 9.6098371 Z M 665.53787,4.6986663 V 25.097768 h 0.66201 V 4.6986663 Z M 376.66191,86.836702 v 22.027088 h 0.66202 V 86.836702 Z m 166.28167,3.309455 v 20.398783 h 0.66217 V 90.146157 Z M 641.37651,9.6098371 V 31.71667 h 0.66201 V 9.6098371 Z M 333.57089,143.69167 v 20.39864 h 0.66201 V 143.69167 Z M 617.21514,9.6098371 V 31.71667 h 0.66217 V 9.6098371 Z M 358.13253,148.60221 v 22.107 h 0.66201 v -22.107 z M 601.10819,4.6986663 V 25.097768 h 0.66201 V 4.6986663 Z m -401.17743,0 V 25.097768 h 0.66202 V 4.6986663 Z M 394.97443,148.60221 v 22.107 h 0.66202 v -22.107 z m 9.68506,-61.765508 v 22.053518 h 0.66202 V 86.836702 Z m 114.65199,3.309455 v 20.398783 h 0.66202 V 90.146157 Z M 573.10983,9.6098371 V 28.407223 h 0.66201 V 9.6098371 Z M 431.81728,143.69167 v 20.39864 h 0.66202 V 143.69167 Z M 557.0021,9.6098371 V 31.71667 h 0.66201 V 9.6098371 Z m -465.606486,0 V 28.407223 h 0.662173 V 9.6098371 Z M 465.84367,145.29354 v 22.10621 h 0.66202 V 145.29354 Z M 540.89499,9.6098371 V 28.407223 H 541.557 V 9.6098371 Z M 428.29237,86.836702 v 22.027088 h 0.66218 V 86.836702 Z M 522.98353,6.3533913 V 28.407223 h 0.66217 V 6.3533913 Z M 503.55587,83.527255 v 22.027095 h 0.66201 V 83.527255 Z m -0.87014,65.128585 v 22.05337 h 0.66203 V 148.65584 Z M 498.82232,6.3005432 V 28.407223 h 0.66201 V 6.3005432 Z M 360.46849,16.28143 v 22.053357 h 0.66203 V 16.28143 Z m 166.77873,135.63024 v 22.1062 h 0.66217 v -22.1062 z M 444.04799,86.836702 V 107.2355 h 0.66202 V 86.836702 Z M 470.82473,9.6570565 V 31.71667 h 0.66202 V 9.6570565 Z M 564.08929,155.27397 v 22.05351 h 0.66201 V 155.27397 Z M 59.717234,6.3533913 V 28.407223 h 0.662021 V 6.3533913 Z M 459.90211,11.217186 V 35.02534 h 0.66202 V 11.217186 Z M 598.11567,158.53057 v 22.10636 h 0.66218 V 158.53057 Z M 392.14687,19.537875 v 22.106367 h 0.66203 V 19.537875 Z m 43.59466,0 v 22.106367 h 0.66201 V 19.537875 Z m 24.06129,70.608282 V 107.2355 h 0.66202 V 90.146157 Z m 175.15492,68.384413 v 22.10636 h 0.66202 V 158.53057 Z M 416.30746,19.59088 v 22.053362 h 0.66201 V 19.59088 Z m 217.65523,73.864724 v 18.744066 h 0.66201 V 93.455604 Z M 254.13251,90.146157 v 20.398783 h 0.66202 V 90.146157 Z M 382.02042,42.17382 v 1.059164 h 12.97371 V 42.17382 Z m 43.59465,0 v 1.059164 h 12.97356 V 42.17382 Z m 199.21621,138.99254 v 1.05916 h 12.97356 v -1.05916 z m -36.84206,0 v 1.05916 h 12.97371 v -1.05916 z M 154.60414,111.67009 v 1.05916 h 12.97356 v -1.05916 z m -23.63303,0 v 1.05916 h 12.97371 v -1.05916 z M 406.18085,42.17382 v 1.059164 h 12.97372 V 42.17382 Z m -268.39782,74.72517 a 0.16531304,0.16531304 0 0 0 -0.003,0.0205 0.16531304,0.16531304 0 0 0 -0.0208,9.6e-4 0.16531304,0.16531304 0 0 0 0.005,0.10554 0.16531304,0.16531304 0 0 0 -0.0155,0.10429 c 2.27782,3.07279 6.78801,4.58079 11.28693,4.58079 4.49892,0 9.00934,-1.50801 11.28757,-4.58079 a 0.16532957,0.16532957 0 0 0 -0.24424,-0.22062 c -2.1703,1.97796 -6.60669,3.0069 -11.04333,3.0069 -4.43663,0 -8.87281,-1.02896 -11.0427,-3.0069 a 0.16531304,0.16531304 0 0 0 -0.10555,0.005 0.16531304,0.16531304 0 0 0 -0.10428,-0.0155 z m 21.21638,1.19379 c -2.37843,2.17753 -6.16488,3.28756 -9.96385,3.28756 -3.79888,0 -7.58492,-1.10999 -9.96306,-3.28741 2.46843,1.44975 6.21326,2.15429 9.96306,2.15429 3.74996,0 7.49515,-0.70458 9.96385,-2.15444 z m -21.11795,-1.061 c 4.46145,4.06678 17.84661,4.06678 22.30886,0 -4.46225,6.01851 -17.84741,6.01851 -22.30886,0 m 217.03581,59.40261 a 0.16531304,0.16531304 0 0 0 -0.0136,0.006 0.16531304,0.16531304 0 0 0 -0.0572,0.0232 0.16531304,0.16531304 0 0 0 -0.0463,0.0189 0.16531304,0.16531304 0 0 0 -0.006,0.0136 0.16531304,0.16531304 0 0 0 -0.0127,0.008 0.16531304,0.16531304 0 0 0 -0.0113,0.0488 0.16531304,0.16531304 0 0 0 -0.0139,0.0602 0.16531304,0.16531304 0 0 0 0.023,0.0564 0.16531304,0.16531304 0 0 0 0.0191,0.0468 c 3.60971,3.65567 10.74504,5.4445 17.8766,5.4445 7.13156,0 14.26689,-1.78883 17.8766,-5.4445 a 0.16532957,0.16532957 0 0 0 -0.21374,-0.25065 c -3.488,2.49267 -10.57889,3.7765 -17.66286,3.7765 -7.08397,0 -14.17486,-1.28383 -17.66286,-3.7765 a 0.16531304,0.16531304 0 0 0 -0.0488,-0.0114 0.16531304,0.16531304 0 0 0 -0.0463,-0.0194 z m 1.56295,1.27556 c 3.89026,1.92282 10.03762,2.86227 16.19497,2.86227 6.15736,0 12.30472,-0.93945 16.19498,-2.86227 -3.78846,2.72847 -9.98968,4.11969 -16.19498,4.11969 -6.20529,0 -12.40651,-1.39122 -16.19497,-4.11969 z m -1.56396,-1.11024 c 7.10326,5.07627 28.41463,5.07627 35.51788,0 -7.10325,7.19372 -28.41462,7.19372 -35.51788,0 M 613.99019,37.442007 a 0.16531304,0.16531304 0 0 0 -0.0435,0.0208 0.16531304,0.16531304 0 0 0 -0.0471,0.01204 0.16531304,0.16531304 0 0 0 -0.009,0.01454 0.16531304,0.16531304 0 0 0 -0.015,0.0072 0.16531304,0.16531304 0 0 0 -0.0161,0.0455 0.16531304,0.16531304 0 0 0 -0.0203,0.05801 0.16531304,0.16531304 0 0 0 0.0152,0.05942 0.16531304,0.16531304 0 0 0 0.012,0.04691 c 2.33124,3.103559 6.94651,4.626132 11.5507,4.626132 4.60421,0 9.21963,-1.522573 11.55088,-4.626132 a 0.16532957,0.16532957 0 0 0 -0.24267,-0.222183 c -2.22244,1.998834 -6.76546,3.038171 -11.30821,3.038171 -4.54274,0 -9.08559,-1.039337 -11.30804,-3.038171 a 0.16531304,0.16531304 0 0 0 -0.0453,-0.0161 0.16531304,0.16531304 0 0 0 -0.0582,-0.02048 0.16531304,0.16531304 0 0 0 -0.0158,-0.0056 z m 1.20504,1.220678 c 2.52555,1.473941 6.37116,2.190404 10.2223,2.190404 3.85116,0 7.69691,-0.716463 10.22246,-2.190404 -2.43403,2.211737 -6.32219,3.339158 -10.22246,3.339158 -3.90026,0 -7.78826,-1.127421 -10.2223,-3.339158 z M 613.999,37.607074 c 4.56713,4.107608 18.2701,4.107608 22.83722,0 -4.56712,6.080157 -18.27009,6.080157 -22.83722,0 M 334.15104,103.63195 a 0.16531304,0.16531304 0 0 0 -0.12352,0.0272 0.16531304,0.16531304 0 0 0 -0.003,0.0188 0.16531304,0.16531304 0 0 0 -0.0192,0 0.16531304,0.16531304 0 0 0 0,0.10648 0.16531304,0.16531304 0 0 0 -0.0188,0.10491 c 2.27507,3.26422 6.78868,4.87161 11.29006,4.87161 4.50138,0 9.01499,-1.60739 11.29006,-4.87161 a 0.16532957,0.16532957 0 0 0 -0.25235,-0.21155 c -2.17221,2.16675 -6.60334,3.28928 -11.03771,3.28928 -4.43437,0 -8.8655,-1.12253 -11.0377,-3.28928 a 0.16531304,0.16531304 0 0 0 -0.0163,0 0.16531304,0.16531304 0 0 0 -0.0715,-0.0458 z m 1.20129,1.33623 c 2.4689,1.56611 6.19539,2.32956 9.92413,2.32956 3.72875,0 7.45523,-0.76345 9.92413,-2.32956 -2.38126,2.29514 -6.14576,3.46205 -9.92413,3.46205 -3.77837,0 -7.54287,-1.16691 -9.92413,-3.46205 z m -1.23029,-1.17345 c 4.46145,4.45024 17.8474,4.45024 22.30885,0 -4.46145,6.40118 -17.8474,6.40118 -22.30885,0 m 201.824,-23.542362 c -4.493,0 -8.99326,1.255899 -11.27833,3.84029 a 0.16531304,0.16531304 0 0 0 10e-4,0.01798 0.16531304,0.16531304 0 0 0 -0.013,0.185751 0.16531304,0.16531304 0 0 0 0.0255,0.01642 0.16531304,0.16531304 0 0 0 8e-4,0.01313 0.16531304,0.16531304 0 0 0 0.0421,0.01439 0.16531304,0.16531304 0 0 0 0.0583,0.02017 0.16531304,0.16531304 0 0 0 0.0593,-0.01299 0.16531304,0.16531304 0 0 0 0.0441,-0.0095 c 2.1671,-1.503323 6.61748,-2.291718 11.06021,-2.291718 4.44275,0 8.89313,0.788395 11.06022,2.291718 a 0.16532957,0.16532957 0 0 0 0.21813,-0.245319 c -2.28508,-2.584391 -6.78533,-3.84029 -11.27835,-3.84029 z m 0,0.330698 c 3.85843,0 7.71006,0.961722 10.0783,2.835531 -2.46387,-1.146592 -6.26191,-1.703037 -10.0783,-1.703037 -3.81637,0 -7.61442,0.556445 -10.07829,1.703037 2.36824,-1.873801 6.21987,-2.835531 10.07829,-2.835531 z m -11.15443,3.619067 c 4.46145,-5.04585 17.8474,-5.04585 22.30885,0 -4.46145,-3.094917 -17.8474,-3.094917 -22.30885,0 m 70.08004,102.162947 a 0.16531304,0.16531304 0 0 0 -0.073,0.0455 0.16531304,0.16531304 0 0 0 -0.0161,0 0.16531304,0.16531304 0 0 0 -0.006,0.0138 0.16531304,0.16531304 0 0 0 -0.0125,0.008 0.16531304,0.16531304 0 0 0 -0.0114,0.0488 0.16531304,0.16531304 0 0 0 -0.0138,0.0599 0.16531304,0.16531304 0 0 0 0.0231,0.0572 0.16531304,0.16531304 0 0 0 0.0189,0.0463 c 3.6101,3.65567 10.74557,5.44451 17.87723,5.44451 7.13166,0 14.26705,-1.78884 17.87675,-5.44451 a 0.16532957,0.16532957 0 0 0 -0.21374,-0.25064 c -3.488,2.49228 -10.57894,3.77587 -17.66301,3.77587 -7.08408,0 -14.17508,-1.28359 -17.66349,-3.77587 a 0.16531304,0.16531304 0 0 0 -0.12321,-0.0285 z m 1.59015,1.27274 c 3.89051,1.92286 10.03856,2.86212 16.19654,2.86212 6.15791,0 12.30571,-0.9393 16.19592,-2.86212 -3.78838,2.72888 -9.99008,4.12033 -16.19592,4.12033 -6.20589,0 -12.40785,-1.3914 -16.19654,-4.12033 z m -1.56306,-1.10972 c 7.10406,5.07547 28.41543,5.07547 35.51869,0 -7.10326,7.19372 -28.41463,7.19372 -35.51869,0 M 585.11038,78.742416 v 27.202514 h 1.19128 V 78.742416 Z M 583.70066,9.2458378 V 36.448658 h 1.19128 V 9.2458378 Z m -401.17664,0 V 36.448658 h 1.19113 V 9.2458378 Z M 494.09143,78.742416 v 27.202514 h 1.19128 V 78.742416 Z m -322.4805,69.496274 v 27.20266 h 1.19128 V 148.23869 Z M 395.19505,78.742416 v 27.202514 h 1.19113 V 78.742416 Z m -79.0309,69.496274 v 27.20266 h 1.19127 V 148.23869 Z M 304.17673,78.742416 v 27.202514 h 1.19128 V 78.742416 Z m 144.25942,69.496274 v 27.20266 h 1.19128 V 148.23869 Z M 205.28036,78.742416 v 27.202514 h 1.19113 V 78.742416 Z M 481.41557,9.2458378 V 36.448658 h 1.19112 V 9.2458378 Z m -407.427322,0 V 36.448658 h 1.191127 V 9.2458378 Z M 580.70908,148.23869 v 27.20266 h 1.19114 V 148.23869 Z M 278.63129,9.2458378 V 36.448658 h 1.19129 V 9.2458378 Z m 96.10806,0 V 36.448658 h 1.19129 V 9.2458378 Z M 123.69098,78.742416 v 27.202514 h 1.19112 V 78.742416 Z m 553.66856,69.496274 v 27.20266 h 3.64015 v -27.20266 z m -3.63967,0 v 27.20266 h 1.19113 v -27.20266 z m 6.089,-138.9928522 V 36.448658 H 681 V 9.2458378 Z m 0,69.4965782 V 105.94493 H 681 V 78.742416 Z M 0,174.71319 v 0.72769 h 681 v -0.72769 z m 0,-6.61811 v 0.72768 h 681 v -0.72768 z m 0,-6.6189 v 0.72768 h 681 v -0.72768 z m 0,-6.61891 v 0.72769 h 681 v -0.72769 z m 0,-6.6189 v 0.72768 h 681 v -0.72768 z m 0,-43.02144 v 0.72768 h 681 v -0.72768 z m 0,-6.618122 v 0.727682 h 681 v -0.727682 z m 0,-6.618901 v 0.727681 h 681 v -0.727681 z m 0,-6.619054 v 0.727842 h 681 v -0.727842 z m 0,-6.618902 v 0.727682 H 681 V 78.741951 Z M 0,35.720656 v 0.727689 h 681 v -0.727689 z m 0,-6.618269 v 0.727841 h 681 v -0.727841 z m 0,-6.619061 v 0.727686 h 681 v -0.727686 z m 0,-6.618587 v 0.727684 H 681 V 15.864739 Z M 0,9.2459947 V 9.9736794 H 681 V 9.2459947 Z"
     style="stroke-width:0.0800547" />
  <metadata
     id="metadata244">
    <rdf:RDF>
      <cc:Work
         rdf:about="">
        <dc:title>air_XLI</dc:title>
      </cc:Work>
    </rdf:RDF>
  </metadata>
</svg>
