<?xml version="1.0" encoding="UTF-8" standalone="no"?>
<svg
   width="681"
   height="116.60989"
   version="1.2"
   id="svg195"
   xmlns="http://www.w3.org/2000/svg"
   xmlns:svg="http://www.w3.org/2000/svg"
   xmlns:rdf="http://www.w3.org/1999/02/22-rdf-syntax-ns#"
   xmlns:cc="http://creativecommons.org/ns#"
   xmlns:dc="http://purl.org/dc/elements/1.1/">
  <defs
     id="defs195" />
  <title
     id="title1">air_LV</title>
  <desc
     id="desc1">Generated by MuseScore Studio 4.7.3</desc>
  <path
     id="path195"
     class="NoteDot"
     d="m 176.30533,75.797186 c 0,0.741307 0.5836,1.324906 1.32491,1.324906 0.74211,0 1.3249,-0.583599 1.3249,-1.324906 0,-0.742107 -0.58279,-1.324906 -1.3249,-1.324906 -0.74131,0 -1.32491,0.582799 -1.32491,1.324906 M 640.39065,32.77497 c 0,0.742107 0.5828,1.324906 1.32491,1.324906 0.7421,0 1.3249,-0.582799 1.3249,-1.324906 0,-0.741307 -0.5828,-1.324906 -1.3249,-1.324906 -0.74211,0 -1.32491,0.583599 -1.32491,1.324906 m 5.63425,62.878193 c 0,0.741306 0.5836,1.324906 1.32491,1.324906 0.74211,0 1.3249,-0.5836 1.3249,-1.324906 0,-0.742108 -0.58279,-1.324906 -1.3249,-1.324906 -0.74131,0 -1.32491,0.582798 -1.32491,1.324906 m -235.15679,0 c 0,0.741306 0.5836,1.324906 1.32491,1.324906 0.74211,0 1.32491,-0.5836 1.32491,-1.324906 0,-0.742108 -0.5828,-1.324906 -1.32491,-1.324906 -0.74131,0 -1.32491,0.582798 -1.32491,1.324906 M 113.06769,12.919153 c 0,0.741948 0.5828,1.324906 1.32491,1.324906 0.74131,0 1.32491,-0.582958 1.32491,-1.324906 0,-0.741947 -0.5836,-1.324905 -1.32491,-1.324905 -0.74211,0 -1.32491,0.582958 -1.32491,1.324905 M 68.071331,102.27129 c 0,0.74211 0.582798,1.3249 1.324906,1.3249 0.742107,0 1.324906,-0.58279 1.324906,-1.3249 0,-0.74131 -0.582799,-1.32491 -1.324906,-1.32491 -0.742108,0 -1.324906,0.5836 -1.324906,1.32491 M 229.40004,82.415311 c 0,0.742108 0.58359,1.324906 1.3249,1.324906 0.74211,0 1.32491,-0.582798 1.32491,-1.324906 0,-0.742107 -0.5828,-1.324906 -1.32491,-1.324906 -0.74131,0 -1.3249,0.582799 -1.3249,1.324906 m -4.66639,-62.877472 c 0,0.741947 0.58279,1.324906 1.3249,1.324906 0.74211,0 1.32491,-0.582959 1.32491,-1.324906 0,-0.741947 -0.5828,-1.324906 -1.32491,-1.324906 -0.74211,0 -1.3249,0.582959 -1.3249,1.324906 m 365.90138,6.619006 c 0,0.741307 0.5836,1.324906 1.32491,1.324906 0.7421,0 1.3249,-0.583599 1.3249,-1.324906 0,-0.742108 -0.5828,-1.324906 -1.3249,-1.324906 -0.74131,0 -1.32491,0.582798 -1.32491,1.324906 m -256.95249,0 c 0,0.741307 0.5828,1.324906 1.3249,1.324906 0.74211,0 1.32491,-0.583599 1.32491,-1.324906 0,-0.742108 -0.5828,-1.324906 -1.32491,-1.324906 -0.7421,0 -1.3249,0.582798 -1.3249,1.324906 m 110.55319,0 c 0,0.741307 0.5828,1.324906 1.3249,1.324906 0.74211,0 1.32491,-0.583599 1.32491,-1.324906 0,-0.742108 -0.5828,-1.324906 -1.32491,-1.324906 -0.7421,0 -1.3249,0.582798 -1.3249,1.324906 m -60.79757,0 c 0,0.741307 0.5828,1.324906 1.3249,1.324906 0.74211,0 1.32491,-0.583599 1.32491,-1.324906 0,-0.742108 -0.5828,-1.324906 -1.32491,-1.324906 -0.7421,0 -1.3249,0.582798 -1.3249,1.324906 m -195.44804,76.074415 -7.28018,-1.01349 v 3.34148 l 7.28018,1.0135 v -3.34149 m -23.59933,1.67875 35.66198,4.96419 v 3.34149 l -35.66198,-4.9642 v -3.34148 m 378.39152,4.9738 36.8508,3.30946 v 3.32227 l -36.8508,-3.30946 v -3.32227 M 351.86697,7.9551193 h -7.28018 v 3.3093827 h 7.28018 V 7.9551193 M 329.71022,2.9911652 H 363.1715 V 6.3004679 H 329.71022 V 2.9911652 m 135.01792,9.9279878 h -7.28098 v 3.309383 h 7.28098 V 12.919153 M 440.26341,7.9551193 h 35.76926 V 11.264502 H 440.26341 V 7.9551193 m 99.155,26.4593717 11.96578,1.654731 v 3.340684 l -11.96578,-1.654731 v -3.340684 m 0,4.963394 11.96578,1.654731 v 3.341485 L 539.41841,42.719369 V 39.377885 M 242.91808,9.0488271 235.6379,8.6887409 v 3.3134651 l 7.28018,0.360007 V 9.0488271 M 220.76133,2.9890838 254.22261,4.6438152 V 7.9572007 L 220.76133,6.3024693 V 2.9890838 m 388.05893,10.4586712 -7.28098,-0.720012 v 3.325473 l 7.28098,0.720093 V 13.447755 M 586.66271,6.2923824 620.12399,9.6017652 V 12.927239 L 586.66271,9.6179362 V 6.2923824 M 280.48376,112.19968 h 36.8508 v 3.30946 h -36.8508 v -3.30946 m 208.01583,0 h 36.8508 v 3.30946 h -36.8508 v -3.30946 M 241.08483,99.490186 233.80465,98.814524 v 3.323876 l 7.28018,0.67566 v -3.323874 m -23.59934,2.774694 35.66198,3.30867 v 3.32387 l -35.66198,-3.30946 v -3.32308 m -66.57752,-62.878189 34.57484,3.309462 v 3.323873 L 150.90797,42.710563 V 39.386691 M 123.3099,29.466308 h -7.28098 v 3.308662 h 7.28098 v -3.308662 m -22.15755,4.963393 h 33.46128 v 3.309463 H 101.15235 V 34.429701 M 87.698348,82.415311 H 80.41817 v 3.309463 h 7.280178 V 82.415311 M 64.099015,77.451117 h 35.66198 V 80.76058 H 64.099015 V 77.451117 M 658.57508,12.919153 h -7.28017 v 3.309383 h 7.28017 V 12.919153 M 636.41833,7.9551193 h 33.46128 V 11.264502 H 636.41833 V 7.9551193 m -234.79574,0 h -7.28018 v 3.3093827 h 7.28018 V 7.9551193 M 379.46584,2.9911652 h 33.46128 V 6.3004679 H 379.46584 V 2.9911652 m -44.69856,105.8926448 36.85,3.30946 v 3.32227 l -36.85,-3.30946 v -3.32227 M 52.93298,28.195038 c -1.802032,-0.582798 -3.788991,-1.457796 -3.788991,-2.649812 0,-1.033506 0.953452,-1.457796 2.092631,-1.457796 1.643524,0 2.756285,0.768525 2.756285,1.987759 0,1.27207 -0.582799,1.881286 -1.059925,2.119849 m -1.69636,6.280294 c -1.695559,0 -3.152555,-0.927834 -3.152555,-2.412049 0,-1.774813 1.377742,-2.199103 1.377742,-2.199103 1.802032,0.609216 4.371789,1.510632 4.371789,2.967629 0,0.715689 -0.927034,1.643523 -2.596976,1.643523 m 3.179774,-5.564604 c 0.874999,-0.662854 1.484215,-1.510633 1.484215,-2.570558 0,-1.907704 -2.093431,-3.471414 -4.663989,-3.471414 -2.569757,0 -4.663188,1.56371 -4.663188,3.471414 0,1.059925 0.264981,2.013377 1.510633,2.80832 -1.192816,0.689271 -1.854869,1.669942 -1.854869,2.942012 0,2.146267 2.25194,3.868245 5.007424,3.868245 2.756285,0 5.008224,-1.721978 5.008224,-3.868245 0,-1.27207 -0.449907,-2.464886 -1.82845,-3.179774 m -2.942011,-7.184753 c -0.874198,0 -1.589887,-1.192415 -1.589887,-2.67631 0,-1.483894 0.715689,-2.702808 1.589887,-2.702808 0.874998,0 1.617105,1.218914 1.617105,2.702808 0,1.483895 -0.742107,2.67631 -1.617105,2.67631 m 0.98067,-6.624529 c -1.616305,0 -2.199103,0.476966 -2.570557,0.874437 -0.07925,-0.55646 -0.132091,-0.98043 -0.132091,-1.4044 0,-1.510393 0.529963,-3.471253 2.384831,-3.471253 0.662053,0 1.059925,0.211985 1.324906,0.503464 -0.556381,0.238483 -1.007089,0.953932 -1.007089,1.563389 0,0.953932 0.742108,1.69588 1.69636,1.69588 0.953452,0 1.721977,-0.741948 1.721977,-1.69588 v -0.07949 c 0,-0.238483 -0.05284,-0.635955 -0.159308,-0.84794 -0.344236,-0.953932 -1.456997,-2.3583327 -4.106808,-2.3583327 -2.384831,0 -4.107609,2.2788377 -4.637571,3.4977517 -0.264982,0.635955 -0.662053,1.934363 -0.662053,3.418257 0,1.616385 0.450708,3.444755 2.014177,4.822658 1.536251,1.165917 2.516921,1.218913 3.444755,1.218913 0.927034,0 4.398208,-1.086423 4.398208,-4.160204 0,-2.596816 -2.040596,-3.577246 -3.709737,-3.577246 M 37.732186,11.859229 c 0,2.093351 -1.086342,3.206272 -2.623393,4.425185 l 0.07925,-5.167133 c 0.05284,-0.238483 0.450708,-1.006928 1.510633,-1.006928 0.953452,0 1.033506,0.900936 1.033506,1.457396 v 0.29148 M 37.413569,8.8119451 c -1.324906,0 -2.092631,0.8214417 -2.225522,0.9804304 l 0.105672,-8.5058959 c 0,-0.2119849 -0.158508,-0.37097363 -0.370653,-0.37097363 h -0.317818 c -0.212145,0 -0.371454,0.15898873 -0.371454,0.37097363 l 0.132891,15.9253694 c 0,0.211985 0.159309,0.370973 0.370654,0.370973 0.05364,0 0.159309,-0.0265 0.212145,-0.053 2.279158,-1.139419 4.663989,-3.312265 4.663989,-6.041571 0,-1.377902 -0.636435,-2.6763099 -2.199904,-2.6763099 M 30.371954,21.787297 c 0,2.093591 -1.086343,3.206352 -2.623394,4.425586 l 0.07925,-5.167533 c 0.05284,-0.238483 0.450709,-1.006929 1.510633,-1.006929 0.954253,0 1.033507,0.900936 1.033507,1.457397 v 0.291479 m -0.317817,-3.047284 c -1.324906,0 -2.093432,0.821442 -2.226323,0.980431 l 0.106473,-8.505896 c 0,-0.211985 -0.159309,-0.370974 -0.371454,-0.370974 h -0.317817 c -0.212145,0 -0.370654,0.158989 -0.370654,0.370974 l 0.132091,15.925369 c 0,0.212145 0.159309,0.370653 0.371454,0.370653 0.05284,0 0.158508,-0.02642 0.211344,-0.05284 2.279159,-1.139179 4.663989,-3.311864 4.663989,-6.041411 0,-1.377902 -0.635634,-2.67631 -2.199103,-2.67631 m 7.678049,62.615374 c 0,2.093431 -1.086342,3.206192 -2.623393,4.425425 l 0.07925,-5.167533 c 0.05284,-0.237762 0.450708,-1.006288 1.510633,-1.006288 0.953452,0 1.033506,0.900616 1.033506,1.456996 v 0.2914 m -0.318617,-3.046884 c -1.324906,0 -2.092631,0.821362 -2.225522,0.97987 l 0.105672,-8.505816 c 0,-0.211344 -0.158508,-0.370653 -0.370653,-0.370653 H 34.60524 c -0.212145,0 -0.371454,0.159309 -0.371454,0.370653 l 0.132891,15.925289 c 0,0.212145 0.159309,0.371454 0.370654,0.371454 0.05364,0 0.159309,-0.02642 0.212145,-0.05284 2.279158,-1.139979 4.663989,-3.312665 4.663989,-6.041731 0,-1.377742 -0.636435,-2.67623 -2.199904,-2.67623 m -7.041615,12.975272 c 0,2.093431 -1.086343,3.206192 -2.623394,4.425426 l 0.07925,-5.167533 c 0.05284,-0.238563 0.450709,-1.007089 1.510633,-1.007089 0.954253,0 1.033507,0.901416 1.033507,1.457797 v 0.291399 m -0.317817,-3.047684 c -1.324906,0 -2.093432,0.821362 -2.226323,0.980671 l 0.106473,-8.505816 c 0,-0.212145 -0.159309,-0.370654 -0.371454,-0.370654 h -0.317817 c -0.212145,0 -0.370654,0.158509 -0.370654,0.370654 l 0.132091,15.925289 c 0,0.212145 0.159309,0.370653 0.371454,0.370653 0.05284,0 0.158508,-0.02642 0.211344,-0.05284 2.279159,-1.139179 4.663989,-3.311864 4.663989,-6.041731 0,-1.377742 -0.635634,-2.67623 -2.199103,-2.67623 M 16.093311,104.42076 c -0.529962,0.10647 -1.033427,0.15931 -1.536891,0.15931 -3.789231,0 -7.0220012,-2.64982 -7.0220012,-6.650951 0,-3.233411 2.2788382,-6.120985 4.6106722,-8.135163 0.450468,-0.397872 0.874438,-0.768525 1.27191,-1.165597 0.238483,1.430579 0.42397,2.67623 0.609457,3.762573 -2.411329,0.714889 -4.0542123,3.259028 -4.0542123,5.749531 0,1.854869 1.4573963,4.399007 3.5772463,4.399007 0.211985,0 0.450468,-0.10567 0.450468,-0.34423 0,-0.23857 -0.264982,-0.37146 -0.582959,-0.5828 -1.033427,-0.63644 -1.616385,-1.32491 -1.616385,-2.623396 0,-1.616306 1.192415,-2.914793 2.755804,-3.286247 l 1.536891,8.717963 M 13.761477,77.180532 c 0.238483,-1.059925 1.457396,-3.841827 2.835298,-3.841827 0.397472,0 1.033427,1.298488 1.033427,3.126938 0,2.755484 -2.040355,4.822498 -3.868725,6.62453 -0.158989,-1.059925 -0.29148,-2.093432 -0.29148,-3.206193 0,-0.98067 0.0795,-1.882086 0.29148,-2.703448 m 6.094567,22.338474 c 0,1.881284 -0.768446,3.815404 -2.649812,4.583934 -0.556461,-3.17977 -1.27191,-7.393055 -1.457397,-8.558652 2.384831,0 4.107209,1.616305 4.107209,3.974718 M 8.1968718,112.55592 c 0,1.7484 1.351404,4.05397 4.9286502,4.05397 1.245411,0 2.331834,-0.31782 3.285766,-0.90061 1.430899,-1.00709 1.801872,-2.75629 1.801872,-4.42543 0,-1.03351 -0.158988,-2.22552 -0.423969,-3.73615 -0.07949,-0.52997 -0.238484,-1.32491 -0.397472,-2.35842 2.596815,-0.84778 4.531178,-3.55042 4.531178,-6.280291 0,-4.001136 -2.835299,-6.703784 -6.704024,-6.703784 -0.264981,-1.589887 -0.529962,-3.153356 -0.768445,-4.63677 2.8088,-2.942012 4.743163,-6.253876 4.743163,-10.467157 0,-2.411249 -0.741948,-4.371789 -1.165917,-5.326042 -0.635955,-1.351324 -1.404401,-2.279158 -1.881367,-2.279158 -0.185487,0 -1.006928,0.318618 -1.881366,1.351324 -1.69588,2.014177 -2.172846,5.406096 -2.172846,7.631618 0,1.431379 0.132491,2.729866 0.582959,5.697495 -0.0265,0.02642 -1.404401,1.430579 -1.960861,1.881287 -2.4113287,2.25194 -5.7500916,5.458132 -5.7500916,10.757755 0,4.955393 4.3191932,8.850853 9.2478436,8.850853 0.768445,0 1.483894,-0.0793 2.093351,-0.18573 0.503464,2.54414 0.794943,4.39901 0.794943,5.80317 0,2.75548 -1.4044,4.21328 -4.08071,4.21328 -0.635955,0 -1.192415,-0.13289 -1.245411,-0.13289 -0.0265,-0.0264 -0.07949,-0.0528 -0.07949,-0.0793 0,-0.0528 0.053,-0.0793 0.132491,-0.10568 1.245412,-0.18572 2.490823,-1.24565 2.490823,-2.94121 0,-1.43138 -1.086423,-2.94121 -3.073782,-2.94121 -1.8548679,0 -3.0472832,1.50983 -3.0472832,3.25903 M 16.093311,34.924439 c -0.529962,0.106473 -1.033427,0.159309 -1.536891,0.159309 -3.789231,0 -7.0220012,-2.649811 -7.0220012,-6.650947 0,-3.233411 2.2788382,-6.121386 4.6106722,-8.135243 0.450468,-0.397471 0.874438,-0.768445 1.27191,-1.165917 0.238483,1.430899 0.42397,2.67631 0.609457,3.762733 -2.411329,0.715129 -4.0542123,3.259268 -4.0542123,5.749771 0,1.854869 1.4573963,4.399008 3.5772463,4.399008 0.211985,0 0.450468,-0.105672 0.450468,-0.344235 0,-0.238563 -0.264982,-0.371454 -0.582959,-0.582799 -1.033427,-0.636435 -1.616385,-1.324906 -1.616385,-2.623393 0,-1.616306 1.192415,-2.914793 2.755804,-3.286247 l 1.536891,8.71796 M 13.761477,7.6844542 c 0.238483,-1.0599247 1.457396,-3.8422271 2.835298,-3.8422271 0.397472,0 1.033427,1.2984078 1.033427,3.1267779 0,2.7558043 -2.040355,4.822658 -3.868725,6.62453 -0.158989,-1.059925 -0.29148,-2.093352 -0.29148,-3.206273 0,-0.9804301 0.0795,-1.8813661 0.29148,-2.7028078 m 6.094567,22.3382338 c 0,1.881286 -0.768446,3.815409 -2.649812,4.583934 -0.556461,-3.179774 -1.27191,-7.393055 -1.457397,-8.558652 2.384831,0 4.107209,1.616305 4.107209,3.974718 M 8.1968718,43.059602 c 0,1.748395 1.351404,4.053972 4.9286502,4.053972 1.245411,0 2.331834,-0.317818 3.285766,-0.900616 1.430899,-1.007089 1.801872,-2.756285 1.801872,-4.425426 0,-1.033507 -0.158988,-2.225522 -0.423969,-3.736154 -0.07949,-0.529963 -0.238484,-1.324906 -0.397472,-2.358413 2.596815,-0.84778 4.531178,-3.550428 4.531178,-6.280294 0,-4.001136 -2.835299,-6.703784 -6.704024,-6.703784 -0.264981,-1.589887 -0.529962,-3.153276 -0.768445,-4.637171 2.8088,-2.941291 4.743163,-6.253555 4.743163,-10.4667561 0,-2.4113288 -0.741948,-4.3721895 -1.165917,-5.3261218 C 17.391719,0.92743413 16.623273,0 16.146307,0 15.96082,0 15.139379,0.31797742 14.264941,1.351404 c -1.69588,2.013857 -2.172846,5.4056161 -2.172846,7.631458 0,1.430898 0.132491,2.729306 0.582959,5.697095 -0.0265,0.0265 -1.404401,1.430899 -1.960861,1.881367 -2.4113287,2.25234 -5.7500916,5.458612 -5.7500916,10.757915 0,4.955389 4.3191932,8.850852 9.2478436,8.850852 0.768445,0 1.483894,-0.07925 2.093351,-0.185727 0.503464,2.54414 0.794943,4.399008 0.794943,5.803168 0,2.755484 -1.4044,4.213281 -4.08071,4.213281 -0.635955,0 -1.192415,-0.132891 -1.245411,-0.132891 -0.0265,-0.02642 -0.07949,-0.05284 -0.07949,-0.07925 0,-0.05284 0.053,-0.07925 0.132491,-0.105672 1.245412,-0.185727 2.490823,-1.245652 2.490823,-2.941211 0,-1.431379 -1.086423,-2.941211 -3.073782,-2.941211 -1.8548679,0 -3.0472832,1.509832 -3.0472832,3.259028 M 649.9708,30.579068 c 0,1.139179 0.82216,2.411249 2.96843,2.411249 2.75548,0 5.64386,-2.25274 5.64386,-4.583934 0,-1.563469 -1.32491,-2.438468 -2.96763,-2.438468 -2.57056,0 -5.64466,2.173487 -5.64466,4.611153 m -404.35248,0 c 0,1.139179 0.82137,2.411249 2.96763,2.411249 2.75549,0 5.64386,-2.25274 5.64386,-4.583934 0,-1.563469 -1.3249,-2.438468 -2.96763,-2.438468 -2.57055,0 -5.64386,2.173487 -5.64386,4.611153 m 125.3369,66.186855 c 0,1.139179 0.82137,2.411249 2.96843,2.411249 2.75549,0 5.64386,-2.25274 5.64386,-4.583934 0,-1.563469 -1.3249,-2.438467 -2.96763,-2.438467 -2.57055,0 -5.64466,2.173486 -5.64466,4.611152 M 264.65534,33.888531 c 0,1.139179 0.82136,2.411249 2.96763,2.411249 2.75629,0 5.64466,-2.25274 5.64466,-4.584735 0,-1.563469 -1.32491,-2.437667 -2.96843,-2.437667 -2.56976,0 -5.64386,2.172686 -5.64386,4.611153 m 88.20591,59.56793 c 0,1.139179 0.82136,2.411248 2.96763,2.411248 2.75629,0 5.64386,-2.251939 5.64386,-4.583934 0,-1.563469 -1.32491,-2.437667 -2.96763,-2.437667 -2.56976,0 -5.64386,2.172686 -5.64386,4.610353 M 234.3138,27.269606 c 0,1.139178 0.82136,2.411248 2.96762,2.411248 2.75629,0 5.64466,-2.25274 5.64466,-4.583934 0,-1.563469 -1.3249,-2.438067 -2.96763,-2.438067 -2.57055,0 -5.64465,2.173086 -5.64465,4.610753 m 164.63977,72.805784 c 0,1.13918 0.82136,2.41124 2.96763,2.41124 2.75628,0 5.64466,-2.25274 5.64466,-4.583929 0,-1.563469 -1.32491,-2.438468 -2.96843,-2.438468 -2.56976,0 -5.64386,2.173487 -5.64386,4.611157 m -64.18629,-9.928392 c 0,1.139179 0.82136,2.411248 2.96763,2.411248 2.75548,0 5.64386,-2.251939 5.64386,-4.583934 0,-1.563469 -1.32491,-2.437667 -2.96763,-2.437667 -2.57056,0 -5.64386,2.172686 -5.64386,4.610353 M 290.08953,33.888531 c 0,1.139179 0.82136,2.411249 2.96843,2.411249 2.75549,0 5.64386,-2.25274 5.64386,-4.584735 0,-1.563469 -1.32491,-2.437667 -2.96763,-2.437667 -2.57056,0 -5.64466,2.172686 -5.64466,4.611153 m 26.58298,59.56793 c 0,1.139179 0.82136,2.411248 2.96763,2.411248 2.75628,0 5.64466,-2.251939 5.64466,-4.583934 0,-1.563469 -1.32491,-2.437667 -2.96763,-2.437667 -2.57056,0 -5.64466,2.172686 -5.64466,4.610353 M 212.8191,23.960143 c 0,1.139179 0.82136,2.411248 2.96763,2.411248 2.75548,0 5.64386,-2.251939 5.64386,-4.584094 0,-1.563389 -1.32491,-2.437827 -2.96763,-2.437827 -2.57056,0 -5.64386,2.172846 -5.64386,4.610673 m 85.75944,72.80578 c 0,1.139179 0.82136,2.411249 2.96763,2.411249 2.75548,0 5.64385,-2.25274 5.64385,-4.583934 0,-1.563469 -1.3249,-2.438467 -2.96762,-2.438467 -2.57056,0 -5.64386,2.173486 -5.64386,4.611152 m 23.18945,-66.186855 c 0,1.139179 0.82136,2.411249 2.96763,2.411249 2.75549,0 5.64386,-2.25274 5.64386,-4.583934 0,-1.563469 -1.32491,-2.438468 -2.96763,-2.438468 -2.57056,0 -5.64386,2.173487 -5.64386,4.611153 m 257.20306,66.186855 c 0,1.139179 0.82137,2.411249 2.96763,2.411249 2.75549,0 5.64386,-2.25274 5.64386,-4.583934 0,-1.563469 -1.3249,-2.438467 -2.96763,-2.438467 -2.57055,0 -5.64386,2.173486 -5.64386,4.611152 M 280.48376,86.837535 c 0,1.139979 0.82217,2.411249 2.96843,2.411249 2.75549,0 5.64386,-2.25194 5.64386,-4.583935 0,-1.563469 -1.3249,-2.437666 -2.96763,-2.437666 -2.57055,0 -5.64466,2.172685 -5.64466,4.610352 m 62.77893,-59.567929 c 0,1.139178 0.82136,2.411248 2.96763,2.411248 2.75628,0 5.64466,-2.25274 5.64466,-4.583934 0,-1.563469 -1.32491,-2.438067 -2.96763,-2.438067 -2.57056,0 -5.64466,2.173086 -5.64466,4.610753 m 11.30453,3.309462 c 0,1.139179 0.82136,2.411249 2.96763,2.411249 2.75548,0 5.64386,-2.25274 5.64386,-4.583934 0,-1.563469 -1.32491,-2.438468 -2.96763,-2.438468 -2.57056,0 -5.64386,2.173487 -5.64386,4.611153 m 279.54314,69.496322 c 0,1.13918 0.82136,2.41124 2.96762,2.41124 2.75629,0 5.64466,-2.25274 5.64466,-4.583929 0,-1.563469 -1.3249,-2.438468 -2.96763,-2.438468 -2.57055,0 -5.64465,2.173487 -5.64465,4.611157 M 252.48622,90.146998 c 0,1.139179 0.82136,2.411248 2.96763,2.411248 2.75548,0 5.64386,-2.251939 5.64386,-4.583934 0,-1.563469 -1.32491,-2.437667 -2.96763,-2.437667 -2.57056,0 -5.64386,2.172686 -5.64386,4.610353 m 119.03739,-59.56793 c 0,1.139179 0.82136,2.411249 2.96763,2.411249 2.75549,0 5.64386,-2.25274 5.64386,-4.583934 0,-1.563469 -1.32491,-2.438468 -2.96763,-2.438468 -2.57056,0 -5.64386,2.173487 -5.64386,4.611153 M 240.42277,86.837535 c 0,1.139979 0.82216,2.411249 2.96843,2.411249 2.75549,0 5.64386,-2.25194 5.64386,-4.583935 0,-1.563469 -1.3249,-2.437666 -2.96763,-2.437666 -2.57056,0 -5.64466,2.172685 -5.64466,4.610352 m 320.45351,6.618926 c 0,1.139179 0.82216,2.411248 2.96843,2.411248 2.75549,0 5.64386,-2.251939 5.64386,-4.583934 0,-1.563469 -1.32491,-2.437667 -2.96763,-2.437667 -2.57056,0 -5.64466,2.172686 -5.64466,4.610353 M 433.36029,86.837535 c 0,1.139979 0.82136,2.411249 2.96763,2.411249 2.75549,0 5.64386,-2.25194 5.64386,-4.583935 0,-1.563469 -1.3249,-2.437666 -2.96763,-2.437666 -2.57056,0 -5.64386,2.172685 -5.64386,4.610352 M 393.01831,27.269606 c 0,1.139178 0.82136,2.411248 2.96763,2.411248 2.75628,0 5.64466,-2.25274 5.64466,-4.583934 0,-1.563469 -1.32491,-2.438067 -2.96843,-2.438067 -2.56976,0 -5.64386,2.173086 -5.64386,4.610753 M 217.48549,83.528072 c 0,1.13998 0.82136,2.412049 2.96763,2.412049 2.75628,0 5.64466,-2.25274 5.64466,-4.584734 0,-1.563469 -1.32491,-2.437667 -2.96843,-2.437667 -2.56976,0 -5.64386,2.172685 -5.64386,4.610352 M 404.32284,30.579068 c 0,1.139179 0.82136,2.411249 2.96763,2.411249 2.75548,0 5.64386,-2.25274 5.64386,-4.583934 0,-1.563469 -1.32491,-2.438468 -2.96763,-2.438468 -2.57056,0 -5.64386,2.173487 -5.64386,4.611153 M 199.39152,93.456461 c 0,1.139179 0.82136,2.411248 2.96763,2.411248 2.75548,0 5.64386,-2.251939 5.64386,-4.583934 0,-1.563469 -1.32491,-2.437667 -2.96763,-2.437667 -2.57056,0 -5.64386,2.172686 -5.64386,4.610353 M 184.82075,27.269606 c 0,1.139178 0.82137,2.411248 2.96763,2.411248 2.75629,0 5.64466,-2.25274 5.64466,-4.583934 0,-1.563469 -1.3249,-2.438067 -2.96843,-2.438067 -2.56975,0 -5.64386,2.173086 -5.64386,4.610753 m 2.50732,59.567929 c 0,1.139979 0.82216,2.411249 2.96843,2.411249 2.75548,0 5.64386,-2.25194 5.64386,-4.583935 0,-1.563469 -1.32491,-2.437666 -2.96763,-2.437666 -2.57056,0 -5.64466,2.172685 -5.64466,4.610352 M 432.32038,30.579068 c 0,1.139179 0.82216,2.411249 2.96843,2.411249 2.75549,0 5.64386,-2.25274 5.64386,-4.583934 0,-1.563469 -1.32491,-2.438468 -2.96763,-2.438468 -2.57056,0 -5.64466,2.173487 -5.64466,4.611153 m 110.46193,59.56793 c 0,1.139179 0.82136,2.411248 2.96763,2.411248 2.75628,0 5.64466,-2.251939 5.64466,-4.583934 0,-1.563469 -1.32491,-2.437667 -2.96843,-2.437667 -2.56976,0 -5.64386,2.172686 -5.64386,4.610353 m -82.28106,0 c 0,1.139179 0.82136,2.411248 2.96763,2.411248 2.75628,0 5.64466,-2.251939 5.64466,-4.583934 0,-1.563469 -1.32491,-2.437667 -2.96763,-2.437667 -2.57056,0 -5.64466,2.172686 -5.64466,4.610353 M 164.39079,76.909947 c 0,1.139179 0.82136,2.411249 2.96762,2.411249 2.75629,0 5.64466,-2.252741 5.64466,-4.583935 0,-1.563469 -1.3249,-2.438467 -2.96843,-2.438467 -2.56975,0 -5.64385,2.173486 -5.64385,4.611153 M 456.12386,33.888531 c 0,1.139179 0.82136,2.411249 2.96763,2.411249 2.75628,0 5.64386,-2.25274 5.64386,-4.584735 0,-1.563469 -1.32491,-2.437667 -2.96763,-2.437667 -2.56976,0 -5.64386,2.172686 -5.64386,4.611153 m 11.30453,-3.309463 c 0,1.139179 0.82136,2.411249 2.96763,2.411249 2.75548,0 5.64386,-2.25274 5.64386,-4.583934 0,-1.563469 -1.32491,-2.438468 -2.96763,-2.438468 -2.57056,0 -5.64386,2.173487 -5.64386,4.611153 m 16.95559,-3.309462 c 0,1.139178 0.82216,2.411248 2.96843,2.411248 2.75548,0 5.64386,-2.25274 5.64386,-4.583934 0,-1.563469 -1.32491,-2.438067 -2.96763,-2.438067 -2.57056,0 -5.64466,2.173086 -5.64466,4.610753 M 69.47469,30.579068 c 0,1.139179 0.821362,2.411249 2.967629,2.411249 2.756285,0 5.643859,-2.25274 5.643859,-4.583934 0,-1.563469 -1.324905,-2.438468 -2.967629,-2.438468 -2.569757,0 -5.643859,2.173487 -5.643859,4.611153 m 66.91775,49.640342 c 0,1.139179 0.82136,2.411249 2.96763,2.411249 2.75629,0 5.64466,-2.252741 5.64466,-4.584735 0,-1.563469 -1.32491,-2.437667 -2.96763,-2.437667 -2.57056,0 -5.64466,2.172686 -5.64466,4.611153 m 31.47192,-56.259267 c 0,1.139179 0.82136,2.411248 2.96763,2.411248 2.75628,0 5.64466,-2.251939 5.64466,-4.584094 0,-1.563389 -1.32491,-2.437827 -2.96843,-2.437827 -2.56976,0 -5.64386,2.172846 -5.64386,4.610673 M 150.90797,20.65076 c 0,1.139419 0.82136,2.411329 2.96763,2.411329 2.75628,0 5.64466,-2.25234 5.64466,-4.584175 0,-1.563389 -1.32491,-2.437827 -2.96763,-2.437827 -2.57056,0 -5.64466,2.172846 -5.64466,4.610673 m -41.65649,59.56865 c 0,1.139179 0.82137,2.411249 2.96763,2.411249 2.75549,0 5.64386,-2.252741 5.64386,-4.584735 0,-1.563469 -1.3249,-2.437667 -2.96763,-2.437667 -2.57055,0 -5.64386,2.172686 -5.64386,4.611153 m 415.43686,13.237051 c 0,1.139179 0.82136,2.411248 2.96763,2.411248 2.75548,0 5.64386,-2.251939 5.64386,-4.583934 0,-1.563469 -1.32491,-2.437667 -2.96763,-2.437667 -2.57056,0 -5.64386,2.172686 -5.64386,4.610353 M 91.156712,103.38485 c 0,1.13918 0.821362,2.41125 2.96843,2.41125 2.755484,0 5.643859,-2.25274 5.643859,-4.58474 0,-1.562665 -1.324906,-2.437664 -2.967629,-2.437664 -2.570558,0 -5.64466,2.172684 -5.64466,4.611154 M 550.72214,23.960143 c 0,1.139179 0.82136,2.411248 2.96843,2.411248 2.75548,0 5.64386,-2.251939 5.64386,-4.584094 0,-1.563389 -1.32491,-2.437827 -2.96763,-2.437827 -2.57056,0 -5.64466,2.172846 -5.64466,4.610673 M 79.094068,100.07539 c 0,1.13918 0.821361,2.41124 2.967625,2.41124 2.756285,0 5.64466,-2.25274 5.64466,-4.583929 0,-1.563469 -1.324906,-2.438468 -2.96843,-2.438468 -2.569757,0 -5.643855,2.173487 -5.643855,4.611157 M 133.95157,17.341457 c 0,1.139419 0.82217,2.411329 2.96843,2.411329 2.75549,0 5.64386,-2.25234 5.64386,-4.584175 0,-1.563388 -1.3249,-2.437826 -2.96763,-2.437826 -2.57056,0 -5.64466,2.172845 -5.64466,4.610672 m 444.76891,9.928149 c 0,1.139178 0.82136,2.411248 2.96763,2.411248 2.75629,0 5.64466,-2.25274 5.64466,-4.583934 0,-1.563469 -1.3249,-2.438067 -2.96843,-2.438067 -2.56976,0 -5.64386,2.173086 -5.64386,4.610753 M 101.15235,17.341457 c 0,1.139419 0.82216,2.411329 2.96843,2.411329 2.75548,0 5.64386,-2.25234 5.64386,-4.584175 0,-1.563388 -1.32491,-2.437826 -2.96763,-2.437826 -2.57056,0 -5.64466,2.172845 -5.64466,4.610672 M 56.156784,103.38485 c 0,1.13918 0.821362,2.41125 2.967629,2.41125 2.755484,0 5.643859,-2.25274 5.643859,-4.58474 0,-1.562665 -1.324906,-2.437664 -2.967629,-2.437664 -2.570557,0 -5.643859,2.172684 -5.643859,4.611154 M 506.59357,96.765923 c 0,1.139179 0.82136,2.411249 2.96843,2.411249 2.75548,0 5.64385,-2.25274 5.64385,-4.583934 0,-1.563469 -1.3249,-2.438467 -2.96762,-2.438467 -2.57056,0 -5.64466,2.173486 -5.64466,4.611152 m 93.62241,-66.186855 c 0,1.139179 0.82136,2.411249 2.96763,2.411249 2.75548,0 5.64386,-2.25274 5.64386,-4.583934 0,-1.563469 -1.32491,-2.438468 -2.96763,-2.438468 -2.57056,0 -5.64386,2.173487 -5.64386,4.611153 M 488.49959,86.837535 c 0,1.139979 0.82137,2.411249 2.96763,2.411249 2.75629,0 5.64466,-2.25194 5.64466,-4.583935 0,-1.563469 -1.3249,-2.437666 -2.96843,-2.437666 -2.56975,0 -5.64386,2.172685 -5.64386,4.610352 M 611.51971,33.888531 c 0,1.139179 0.82136,2.411249 2.96763,2.411249 2.75628,0 5.64466,-2.25274 5.64466,-4.584735 0,-1.563469 -1.32491,-2.437667 -2.96843,-2.437667 -2.56976,0 -5.64386,2.172686 -5.64386,4.611153 m -4.55031,66.186859 c 0,1.13918 0.82136,2.41124 2.96763,2.41124 2.75548,0 5.64386,-2.25274 5.64386,-4.583929 0,-1.563469 -1.32491,-2.438468 -2.96763,-2.438468 -2.57056,0 -5.64386,2.173487 -5.64386,4.611157 m 54.30593,-66.186859 c 0,1.139179 0.82136,2.411249 2.96763,2.411249 2.75628,0 5.64386,-2.25274 5.64386,-4.584735 0,-1.563469 -1.32491,-2.437667 -2.96763,-2.437667 -2.56976,0 -5.64386,2.172686 -5.64386,4.611153 m -32.79923,0 c 0,1.139179 0.82136,2.411249 2.96763,2.411249 2.75629,0 5.64466,-2.25274 5.64466,-4.584735 0,-1.563469 -1.3249,-2.437667 -2.96843,-2.437667 -2.56976,0 -5.64386,2.172686 -5.64386,4.611153 M 539.41841,20.65076 c 0,1.139419 0.82136,2.411329 2.96763,2.411329 2.75548,0 5.64386,-2.25234 5.64386,-4.584175 0,-1.563389 -1.32491,-2.437827 -2.96763,-2.437827 -2.57056,0 -5.64386,2.172846 -5.64386,4.610673 M 122.64784,14.032074 c 0,1.139419 0.82137,2.411329 2.96763,2.411329 2.75549,0 5.64386,-2.25234 5.64386,-4.584174 0,-1.563389 -1.3249,-2.4378271 -2.96763,-2.4378271 -2.57055,0 -5.64386,2.1728461 -5.64386,4.6106721 m 175.38472,1.59285 c 0,0.07949 0.0264,0.211984 0.21135,0.291479 1.13998,0.370973 3.41833,1.801872 5.14111,4.743163 0.47713,0.821442 1.24565,1.960861 1.24565,4.160365 0,1.907704 -0.50354,3.868244 -1.19281,5.776749 -0.0528,0.158509 -0.10567,0.2914 -0.0793,0.397072 0,0.159309 0.10568,0.264981 0.26499,0.264981 0.18492,0 0.31781,-0.105672 0.42349,-0.291399 1.19281,-2.11985 1.64352,-4.583934 1.64352,-6.995183 -0.13289,-3.418578 -2.09343,-5.935899 -2.09343,-5.935899 0.0793,0 -2.43847,-3.259268 -3.15336,-4.372189 -0.98067,-1.510393 -1.43138,-3.020786 -1.48421,-3.126778 -0.0264,-0.0795 -0.26498,-1.0334268 -0.26498,-1.0334268 -0.0264,-0.1059924 -0.15851,-0.2119849 -0.31782,-0.2119849 -0.18573,0 -0.34424,0.1589887 -0.34424,0.3444755 v 5.9885752 m 162.46869,94.893606 c 0,0.18572 0.15931,0.34423 0.34504,0.34423 0.13209,0 0.2914,-0.10567 0.31781,-0.21214 0,-0.0264 0.23857,-0.95345 0.26498,-1.03271 0.0264,-0.10647 0.26499,-1.11356 1.21844,-2.67703 1.0335,-1.72198 2.62339,-2.96763 3.9483,-4.8225 1.29849,-1.85487 2.09343,-3.603261 2.09343,-5.935255 0,-2.411249 -0.55638,-4.425426 -1.96054,-6.995984 -0.0801,-0.184926 -0.23856,-0.291399 -0.39787,-0.291399 -0.0528,0 -0.10568,0 -0.13209,0.02642 -0.13289,0.05364 -0.18573,0.159309 -0.18573,0.318618 0,0.07925 0.0264,0.211345 0.0793,0.317817 1.05993,2.464085 1.48422,3.868245 1.48422,5.77675 0,2.199104 -0.76853,3.338283 -1.24565,4.159644 -1.72198,2.941209 -4.50468,4.372589 -5.61744,4.743239 -0.18573,0.0801 -0.21215,0.21215 -0.21215,0.2914 v 5.9889 M 77.416921,12.315541 c 0,0.07949 0.02642,0.211985 0.212145,0.291479 1.139179,0.370974 3.418334,1.801872 5.140311,4.743163 0.477127,0.821442 1.245652,1.960861 1.245652,4.160205 0,1.907784 -0.503544,3.869125 -1.192015,5.77683 -0.05364,0.158508 -0.106473,0.291399 -0.08006,0.397071 0,0.159309 0.106473,0.264981 0.264981,0.264981 0.185727,0 0.318618,-0.105672 0.424291,-0.291399 1.192015,-2.119849 1.642723,-4.584094 1.642723,-6.995423 -0.132091,-3.418257 -2.093432,-5.935579 -2.093432,-5.935579 0.08006,0 -2.437666,-3.259268 -3.153352,-4.372189 C 78.8483,8.8442873 78.397591,7.3338945 78.344755,7.2279021 78.318337,7.1484077 78.079774,6.1944755 78.079774,6.1944755 78.053356,6.088483 77.920465,5.9824905 77.761957,5.9824905 c -0.185727,0 -0.345036,0.1589887 -0.345036,0.3444755 v 5.988575 m 58.975519,89.929329 c 0,0.18573 0.15931,0.34504 0.34504,0.34504 0.13209,0 0.2914,-0.10648 0.31782,-0.21215 0,-0.0264 0.23856,-0.95425 0.26498,-1.03351 0.0264,-0.10567 0.26498,-1.11276 1.21843,-2.676226 1.03351,-1.722778 2.62339,-2.967629 3.9483,-4.822497 1.29849,-1.854869 2.09343,-3.604065 2.09343,-5.936059 0,-2.411249 -0.55638,-4.424625 -1.96054,-6.995183 -0.08,-0.185727 -0.23856,-0.291399 -0.39787,-0.291399 -0.0528,0 -0.10567,0 -0.13209,0.02642 -0.13289,0.05284 -0.18573,0.158508 -0.18573,0.317817 0,0.07925 0.0264,0.212145 0.0793,0.317817 1.05993,2.464886 1.48422,3.869046 1.48422,5.77675 0,2.199104 -0.76853,3.339083 -1.24565,4.160445 -1.72198,2.941211 -4.50468,4.371789 -5.61744,4.743243 -0.18573,0.07925 -0.21215,0.211345 -0.21215,0.291399 v 5.988093 m 370.2016,-5.479817 v 17.089337 h 0.66201 V 96.765051 Z M 619.4623,11.231727 V 31.71667 h 0.66202 V 11.231727 Z M 488.49916,86.836702 v 27.017688 h 0.66201 V 86.836702 Z M 608.15785,10.113775 v 18.293448 h 0.66202 V 10.113775 Z M 64.098671,79.105792 v 22.107148 h 0.662012 V 79.105792 Z M 524.68797,93.455604 v 20.398786 h 0.66201 V 93.455604 Z M 101.15275,17.340435 v 18.74407 h 0.66202 V 17.340435 Z M 586.66315,7.9877904 V 25.097769 h 0.66202 V 7.9877904 Z M 133.9519,17.340435 v 18.74407 h 0.66217 V 17.340435 Z M 87.036695,79.105792 v 18.797693 h 0.662013 V 79.105792 Z m 12.062624,0 v 22.107148 h 0.662013 V 79.105792 Z M 550.72249,23.959334 v 18.698409 h 0.66217 V 23.959334 Z M 109.2511,80.217801 v 22.053519 h 0.66202 V 80.217801 Z m 41.65724,-59.568072 v 20.430848 h 0.66201 V 20.649729 Z M 636.41874,9.6098371 V 31.71667 h 0.66201 V 9.6098371 Z M 614.91122,75.797122 v 22.106363 h 0.66202 V 75.797122 Z M 167.86478,23.959334 v 18.744064 h 0.66201 V 23.959334 Z m -31.47199,56.258467 v 22.027089 h 0.66217 V 80.217801 Z M 77.417305,6.3533913 V 28.407223 h 0.662021 V 6.3533913 Z M 492.32663,4.6458182 V 25.097769 h 0.66201 V 4.6458182 Z M 669.21789,9.6098371 V 31.71667 h 0.66216 V 9.6098371 Z m -193.8477,0 V 28.407223 h 0.66201 V 9.6098371 Z M 184.82043,27.268789 v 17.057287 h 0.66202 V 27.268789 Z M 164.39037,76.90913 v 28.71808 h 0.66201 V 76.90913 Z M 464.06652,9.6098371 V 31.71667 h 0.66201 V 9.6098371 Z m 78.71617,80.5363199 v 20.428333 h 0.66201 V 90.146157 Z m -82.28111,0 v 20.372363 h 0.66217 V 90.146157 Z M 187.3284,86.836702 V 108.8197 h 0.66216 V 86.836702 Z M 440.26305,9.6098371 V 28.407223 h 0.66202 V 9.6098371 Z M 199.39117,93.455604 v 17.043686 h 0.66202 V 93.455604 Z M 220.76094,4.6620789 V 21.78832 h 0.66202 V 4.6620789 Z M 217.4851,83.527256 v 20.430054 h 0.66203 V 83.527256 Z M 412.26469,4.6458182 V 28.407223 h 0.66202 V 4.6458182 Z M 253.56008,6.2841256 V 28.407223 h 0.66218 V 6.2841256 Z M 400.96087,4.6458182 V 25.097769 h 0.66217 V 4.6458182 Z M 560.87662,93.455604 v 18.744066 h 0.66217 V 93.455604 Z M 240.42313,86.836702 v 19.249258 h 0.66202 V 86.836702 Z m 12.06263,3.309455 v 17.058853 h 0.66217 V 90.146157 Z M 379.46539,4.6458182 V 28.407223 h 0.66218 V 4.6458182 Z M 657.91344,9.6098371 V 28.407223 h 0.66201 V 9.6098371 Z M 362.50989,4.6458182 V 28.407223 h 0.66202 V 4.6458182 Z M 280.48412,86.836702 v 27.017688 h 0.66217 V 86.836702 Z M 351.20529,4.6458182 V 25.097769 h 0.66201 V 4.6458182 Z M 578.97071,96.765051 v 17.059789 h 0.66201 V 96.765051 Z M 433.3599,86.836702 v 22.053518 h 0.66201 V 86.836702 Z m -134.78169,9.928349 v 17.089339 h 0.66202 V 96.765051 Z M 329.71059,4.6458182 V 28.407223 h 0.66201 V 4.6458182 Z M 316.67292,93.455604 v 20.398786 h 0.66202 V 93.455604 Z M 242.25642,5.7251498 V 25.097769 h 0.66202 V 5.7251498 Z m 92.51044,84.4210072 v 20.428333 h 0.66202 V 90.146157 Z M 298.03221,9.6628421 V 31.71667 h 0.66202 V 9.6628421 Z M 122.64745,14.031141 v 22.053364 h 0.66201 V 14.031141 Z M 352.8608,93.455604 v 18.744066 h 0.66217 V 93.455604 Z m 18.09486,3.309447 v 17.059789 h 0.66202 V 96.765051 Z M 272.59795,9.6098371 V 31.71667 h 0.66201 V 9.6098371 Z M 539.41804,20.649729 V 41.09433 h 0.66201 V 20.649729 Z m 102.63502,55.147393 v 22.106363 h 0.66202 V 75.797122 Z m -235.15688,0 v 22.106363 h 0.66201 V 75.797122 Z m -148.28897,-44.982693 2.35841,-0.477126 v 4.37259 l -2.35841,0.503544 v -4.399008 m 4.1068,-0.821361 c 0.15931,-0.02642 0.2914,-0.212145 0.2914,-0.371454 v -1.562669 c 0,-0.212145 -0.15851,-0.371454 -0.37065,-0.371454 h -0.0528 l -0.87499,0.185727 v -3.948299 h -0.74131 v 4.106808 l -2.35841,0.477126 v -3.736155 h -0.74211 v 3.895464 l -1.03351,0.212145 c -0.15931,0.02642 -0.2914,0.211344 -0.2914,0.370653 v 1.537051 c 0,0.212145 0.15851,0.370654 0.37066,0.370654 h 0.0801 l 0.8742,-0.184927 v 4.371789 l -1.03351,0.212145 c -0.15931,0.02642 -0.2914,0.212146 -0.2914,0.370654 v 1.537051 c 0,0.212145 0.15851,0.370653 0.37066,0.370653 h 0.0801 l 0.8742,-0.184926 v 3.948299 h 0.74211 v -4.107608 l 2.35841,-0.477126 v 3.736154 h 0.74131 V 36.85616 l 1.00708,-0.185727 c 0.15931,-0.02642 0.2914,-0.212145 0.2914,-0.370653 v -1.563469 c 0,-0.212145 -0.15851,-0.371454 -0.37065,-0.371454 h -0.0528 l -0.87499,0.185727 v -4.371789 l 1.00708,-0.185727 m -132.3697,47.15224 2.35841,-0.477126 v 4.372589 l -2.35841,0.503545 v -4.399008 m 4.1068,-0.821362 c 0.15931,-0.02642 0.2914,-0.212145 0.2914,-0.371454 v -1.562668 c 0,-0.212145 -0.1585,-0.371454 -0.37065,-0.371454 h -0.0528 l -0.87419,0.185727 v -3.9483 h -0.74211 v 4.106808 l -2.35841,0.477126 v -3.736154 h -0.74211 v 3.895463 l -1.03351,0.212145 c -0.15851,0.02642 -0.2914,0.211345 -0.2914,0.370654 v 1.537051 c 0,0.212145 0.15931,0.370653 0.37066,0.370653 h 0.08 l 0.8742,-0.184926 v 4.371789 l -1.03351,0.212145 c -0.15851,0.02642 -0.2914,0.212145 -0.2914,0.370654 v 1.53705 c 0,0.212146 0.15931,0.370654 0.37066,0.370654 h 0.08 l 0.8742,-0.184927 v 3.9483 h 0.74211 v -4.107608 l 2.35841,-0.477127 v 3.736155 h 0.74211 v -3.894663 l 1.00628,-0.185727 c 0.15931,-0.02642 0.2914,-0.212145 0.2914,-0.370653 v -1.56347 c 0,-0.212145 -0.1585,-0.371453 -0.37065,-0.371453 h -0.0528 l -0.87419,0.185726 v -4.371789 l 1.00628,-0.185727 m 315.62461,-45.509517 2.35761,-0.477126 v 4.37259 l -2.35761,0.503544 v -4.399008 m 4.10681,-0.821361 c 0.15931,-0.02642 0.2914,-0.212145 0.2914,-0.371454 v -1.562669 c 0,-0.212145 -0.15851,-0.371454 -0.37065,-0.371454 h -0.0528 l -0.875,0.185727 v -3.948299 h -0.74211 v 4.106808 l -2.35761,0.477126 v -3.736155 h -0.74211 v 3.895464 l -1.0335,0.212145 c -0.15931,0.02642 -0.2914,0.211344 -0.2914,0.370653 v 1.537051 c 0,0.212145 0.15851,0.370654 0.37065,0.370654 h 0.0793 l 0.87499,-0.184927 v 4.371789 l -1.0335,0.212145 c -0.15931,0.02642 -0.2914,0.212146 -0.2914,0.370654 v 1.537051 c 0,0.212145 0.15851,0.370653 0.37065,0.370653 h 0.0793 l 0.87499,-0.184926 v 3.948299 h 0.74211 v -4.107608 l 2.35761,-0.477126 v 3.736154 h 0.74211 V 36.85616 l 1.00709,-0.185727 c 0.15931,-0.02642 0.2914,-0.212145 0.2914,-0.370653 v -1.563469 c 0,-0.212145 -0.15851,-0.371454 -0.37065,-0.371454 h -0.0528 l -0.875,0.185727 v -4.371789 l 1.00709,-0.185727 m 157.5018,73.636672 a 0.16531304,0.16531304 0 0 0 -0.0743,0.0366 0.16531304,0.16531304 0 0 0 -0.0166,-0.002 0.16531304,0.16531304 0 0 0 -10e-4,0.0109 0.16531304,0.16531304 0 0 0 -0.0213,0.0105 0.16531304,0.16531304 0 0 0 -0.004,0.19404 0.16531304,0.16531304 0 0 0 -0.002,0.0166 c 2.63103,3.37628 7.84034,5.03329 13.03923,5.03329 5.19889,0 10.40819,-1.65701 13.03922,-5.03329 a 0.16532957,0.16532957 0 0 0 -0.23937,-0.22578 c -2.52018,2.21306 -7.66051,3.35964 -12.79985,3.35964 -5.13933,0 -10.27951,-1.14658 -12.79969,-3.35964 a 0.16531304,0.16531304 0 0 0 -0.11977,-0.0408 z m 1.25132,1.24446 c 2.84652,1.67194 7.25397,2.48654 11.66813,2.48654 4.41413,0 8.82178,-0.81447 11.66829,-2.48639 -2.74983,2.46862 -7.20432,3.72474 -11.66829,3.72474 -4.46399,0 -8.91829,-1.25624 -11.66813,-3.72489 z m -1.24062,-1.07947 c 5.16353,4.5343 20.65412,4.5343 25.81765,0 -5.16353,6.62613 -20.65412,6.62613 -25.81765,0 M 569.25563,9.2458378 V 36.448658 h 1.19112 V 9.2458378 Z m 110.55324,0 V 36.448658 H 681 V 9.2458378 Z M 389.48866,78.742416 v 27.202514 h 1.19127 V 78.742416 Z M 531.14635,26.156845 c 0,-0.768526 -0.60921,-1.404961 -1.37774,-1.404961 -0.76852,0 -1.37774,0.636435 -1.37774,1.404961 0,0.768525 0.60922,1.40416 1.37774,1.40416 0.76853,0 1.37774,-0.635635 1.37774,-1.40416 m 0,-6.619006 c 0,-0.768445 -0.60921,-1.4044 -1.37774,-1.4044 -0.76852,0 -1.37774,0.635955 -1.37774,1.4044 0,0.768445 0.60922,1.4044 1.37774,1.4044 0.76853,0 1.37774,-0.635955 1.37774,-1.4044 M 524.75082,9.2458378 V 36.448658 h 1.19114 V 9.2458378 Z m -6.08947,0 V 36.448658 h 3.64014 V 9.2458378 Z M 479.03472,78.742416 v 27.202514 h 1.19129 V 78.742416 Z M 518.66135,9.2458378 V 36.448658 h 3.64014 V 9.2458378 Z m -3.63968,0 V 36.448658 h 1.19129 V 9.2458378 Z m -2.44721,16.9110072 c 0,-0.768526 -0.60922,-1.404961 -1.37775,-1.404961 -0.76852,0 -1.37774,0.636435 -1.37774,1.404961 0,0.768525 0.60922,1.40416 1.37774,1.40416 0.76853,0 1.37775,-0.635635 1.37775,-1.40416 m 0,-6.619006 c 0,-0.768445 -0.60922,-1.4044 -1.37775,-1.4044 -0.76852,0 -1.37774,0.635955 -1.37774,1.4044 0,0.768445 0.60922,1.4044 1.37774,1.4044 0.76853,0 1.37775,-0.635955 1.37775,-1.4044 M 91.688316,9.2458378 V 36.448658 h 1.191126 V 9.2458378 Z m 111.665874,0 V 36.448658 h 1.19129 V 9.2458378 Z M 154.92593,78.742416 v 27.202514 h 1.19113 V 78.742416 Z M 422.85631,9.2458378 V 36.448658 h 1.19129 V 9.2458378 Z M 271.01968,78.742416 v 27.202514 h 1.19128 V 78.742416 Z m 326.4848,0 v 27.202514 h 1.19128 V 78.742416 Z m 79.85506,0 v 27.202514 h 3.64015 V 78.742416 Z m -3.63967,0 V 105.94493 H 674.911 V 78.742416 Z m -2.44731,16.910747 c 0,-0.768526 -0.60921,-1.404961 -1.37774,-1.404961 -0.76852,0 -1.37774,0.636435 -1.37774,1.404961 0,0.768525 0.60922,1.40416 1.37774,1.40416 0.76853,0 1.37774,-0.635635 1.37774,-1.40416 m 0,-6.618926 c 0,-0.768526 -0.60921,-1.40416 -1.37774,-1.40416 -0.76852,0 -1.37774,0.635634 -1.37774,1.40416 0,0.768525 0.60922,1.40416 1.37774,1.40416 0.76853,0 1.37774,-0.635635 1.37774,-1.40416 M 312.30306,9.2458378 V 36.448658 h 1.19129 V 9.2458378 Z M 0,105.21693 v 0.72769 h 681 v -0.72769 z m 0,-6.618121 v 0.727681 h 681 v -0.727681 z m 0,-6.618902 v 0.727682 h 681 v -0.727682 z m 0,-6.619054 v 0.727842 h 681 v -0.727842 z m 0,-6.618901 v 0.727681 H 681 V 78.741952 Z M 0,35.720656 v 0.727689 h 681 v -0.727689 z m 0,-6.618269 v 0.727841 h 681 v -0.727841 z m 0,-6.61906 v 0.727685 h 681 v -0.727685 z m 0,-6.618588 v 0.727684 H 681 V 15.864739 Z M 0,9.2459947 V 9.9736795 H 681 V 9.2459947 Z"
     style="stroke-width:0.0800547" />
  <metadata
     id="metadata195">
    <rdf:RDF>
      <cc:Work
         rdf:about="">
        <dc:title>air_LV</dc:title>
      </cc:Work>
    </rdf:RDF>
  </metadata>
</svg>
