<?xml version="1.0" encoding="UTF-8" standalone="no"?>
<svg width="210.058mm" height="296.926mm" viewBox="0 0 9924 14028"
 xmlns="http://www.w3.org/2000/svg" xmlns:xlink="http://www.w3.org/1999/xlink" version="1.2" baseProfile="full">
<title>air_XXXII</title>
<desc>Generated by MuseScore Studio 4.7.3</desc>
<polyline class="StaffLines" fill="none" stroke="#000000" stroke-width="9.09" stroke-linejoin="bevel" points="708.661,828.424 9215.34,828.424" />
<polyline class="StaffLines" fill="none" stroke="#000000" stroke-width="9.09" stroke-linejoin="bevel" points="708.661,911.101 9215.34,911.101" />
<polyline class="StaffLines" fill="none" stroke="#000000" stroke-width="9.09" stroke-linejoin="bevel" points="708.661,993.778 9215.34,993.778" />
<polyline class="StaffLines" fill="none" stroke="#000000" stroke-width="9.09" stroke-linejoin="bevel" points="708.661,1076.46 9215.34,1076.46" />
<polyline class="StaffLines" fill="none" stroke="#000000" stroke-width="9.09" stroke-linejoin="bevel" points="708.661,1159.13 9215.34,1159.13" />
<polyline class="StaffLines" fill="none" stroke="#000000" stroke-width="9.09" stroke-linejoin="bevel" points="708.661,1696.53 9215.34,1696.53" />
<polyline class="StaffLines" fill="none" stroke="#000000" stroke-width="9.09" stroke-linejoin="bevel" points="708.661,1779.21 9215.34,1779.21" />
<polyline class="StaffLines" fill="none" stroke="#000000" stroke-width="9.09" stroke-linejoin="bevel" points="708.661,1861.89 9215.34,1861.89" />
<polyline class="StaffLines" fill="none" stroke="#000000" stroke-width="9.09" stroke-linejoin="bevel" points="708.661,1944.57 9215.34,1944.57" />
<polyline class="StaffLines" fill="none" stroke="#000000" stroke-width="9.09" stroke-linejoin="bevel" points="708.661,2027.24 9215.34,2027.24" />
<polyline class="StaffLines" fill="none" stroke="#000000" stroke-width="9.09" stroke-linejoin="bevel" points="708.661,2564.64 9215.34,2564.64" />
<polyline class="StaffLines" fill="none" stroke="#000000" stroke-width="9.09" stroke-linejoin="bevel" points="708.661,2647.32 9215.34,2647.32" />
<polyline class="StaffLines" fill="none" stroke="#000000" stroke-width="9.09" stroke-linejoin="bevel" points="708.661,2730 9215.34,2730" />
<polyline class="StaffLines" fill="none" stroke="#000000" stroke-width="9.09" stroke-linejoin="bevel" points="708.661,2812.68 9215.34,2812.68" />
<polyline class="StaffLines" fill="none" stroke="#000000" stroke-width="9.09" stroke-linejoin="bevel" points="708.661,2895.35 9215.34,2895.35" />
<polyline class="BarLine" fill="none" stroke="#000000" stroke-width="14.88" stroke-linejoin="bevel" points="6422.96,1691.99 6422.96,2031.79" />
<polyline class="BarLine" fill="none" stroke="#000000" stroke-width="14.88" stroke-linejoin="bevel" points="7638.33,823.876 7638.33,1163.68" />
<polyline class="BarLine" fill="none" stroke="#000000" stroke-width="14.88" stroke-linejoin="bevel" points="8029.61,2560.1 8029.61,2899.9" />
<polyline class="BarLine" fill="none" stroke="#000000" stroke-width="14.88" stroke-linejoin="bevel" points="4885.85,823.876 4885.85,1163.68" />
<polyline class="BarLine" fill="none" stroke="#000000" stroke-width="14.88" stroke-linejoin="bevel" points="6175.69,2560.1 6175.69,2899.9" />
<polyline class="BarLine" fill="none" stroke="#000000" stroke-width="14.88" stroke-linejoin="bevel" points="9207.9,823.876 9207.9,1163.68" />
<polyline class="BarLine" fill="none" stroke="#000000" stroke-width="14.88" stroke-linejoin="bevel" points="1867.65,823.876 1867.65,1163.68" />
<polyline class="BarLine" fill="none" stroke="#000000" stroke-width="14.88" stroke-linejoin="bevel" points="2548.88,1691.99 2548.88,2031.79" />
<polyline class="BarLine" fill="none" stroke="#000000" stroke-width="14.88" stroke-linejoin="bevel" points="4466.4,2560.1 4466.4,2899.9" />
<polyline class="BarLine" fill="none" stroke="#000000" stroke-width="14.88" stroke-linejoin="bevel" points="4005.91,1691.99 4005.91,2031.79" />
<polyline class="BarLine" fill="none" stroke="#000000" stroke-width="14.88" stroke-linejoin="bevel" points="2612.47,2560.1 2612.47,2899.9" />
<polyline class="BarLine" fill="none" stroke="#000000" stroke-width="14.88" stroke-linejoin="bevel" points="9131.84,2560.1 9131.84,2899.9" />
<polyline class="BarLine" fill="none" stroke="#000000" stroke-width="45.47" stroke-linejoin="bevel" points="9192.6,2560.1 9192.6,2899.9" />
<polyline class="BarLine" fill="none" stroke="#000000" stroke-width="14.88" stroke-linejoin="bevel" points="9207.9,1691.99 9207.9,2031.79" />
<polyline class="BarLine" fill="none" stroke="#000000" stroke-width="14.88" stroke-linejoin="bevel" points="3437.22,823.876 3437.22,1163.68" />
<polyline class="BarLine" fill="none" stroke="#000000" stroke-width="14.88" stroke-linejoin="bevel" points="5095.04,1691.99 5095.04,2031.79" />
<polyline class="BarLine" fill="none" stroke="#000000" stroke-width="14.88" stroke-linejoin="bevel" points="7750.87,1691.99 7750.87,2031.79" />
<polyline class="BarLine" fill="none" stroke="#000000" stroke-width="14.88" stroke-linejoin="bevel" points="6455.42,823.876 6455.42,1163.68" />
<path class="Accidental" d="M8458.65,1754.72 L8488.11,1748.76 L8488.11,1803.37 L8458.65,1809.66 L8458.65,1754.72 M8509.96,1744.46 C8511.94,1744.13 8513.6,1741.81 8513.6,1739.82 L8513.6,1720.29 C8513.6,1717.65 8511.61,1715.66 8508.96,1715.66 L8508.3,1715.66 L8497.38,1717.98 L8497.38,1668.66 L8488.11,1668.66 L8488.11,1719.96 L8458.65,1725.92 L8458.65,1679.25 L8449.38,1679.25 L8449.38,1727.91 L8436.47,1730.55 C8434.49,1730.89 8432.83,1733.2 8432.83,1735.19 L8432.83,1754.39 C8432.83,1757.03 8434.82,1759.02 8437.47,1759.02 L8438.46,1759.02 L8449.38,1756.7 L8449.38,1811.32 L8436.47,1813.97 C8434.49,1814.3 8432.83,1816.61 8432.83,1818.6 L8432.83,1837.8 C8432.83,1840.45 8434.82,1842.43 8437.47,1842.43 L8438.46,1842.43 L8449.38,1840.12 L8449.38,1889.43 L8458.65,1889.43 L8458.65,1838.13 L8488.11,1832.17 L8488.11,1878.84 L8497.38,1878.84 L8497.38,1830.19 L8509.96,1827.87 C8511.94,1827.54 8513.6,1825.22 8513.6,1823.23 L8513.6,1803.71 C8513.6,1801.06 8511.61,1799.07 8508.96,1799.07 L8508.3,1799.07 L8497.38,1801.39 L8497.38,1746.77 L8509.96,1744.46 "/>
<path class="Accidental" d="M3256.66,1796.06 L3286.12,1790.1 L3286.12,1844.71 L3256.66,1851 L3256.66,1796.06 M3307.97,1785.79 C3309.95,1785.46 3311.61,1783.15 3311.61,1781.16 L3311.61,1761.63 C3311.61,1758.98 3309.62,1757 3306.97,1757 L3306.31,1757 L3295.39,1759.31 L3295.39,1710 L3286.12,1710 L3286.12,1761.3 L3256.66,1767.26 L3256.66,1720.59 L3247.39,1720.59 L3247.39,1769.24 L3234.48,1771.89 C3232.5,1772.22 3230.84,1774.54 3230.84,1776.53 L3230.84,1795.72 C3230.84,1798.37 3232.83,1800.36 3235.48,1800.36 L3236.47,1800.36 L3247.39,1798.04 L3247.39,1852.66 L3234.48,1855.3 C3232.5,1855.64 3230.84,1857.95 3230.84,1859.94 L3230.84,1879.14 C3230.84,1881.78 3232.83,1883.77 3235.48,1883.77 L3236.47,1883.77 L3247.39,1881.45 L3247.39,1930.77 L3256.66,1930.77 L3256.66,1879.47 L3286.12,1873.51 L3286.12,1920.18 L3295.39,1920.18 L3295.39,1871.52 L3307.97,1869.21 C3309.95,1868.88 3311.61,1866.56 3311.61,1864.57 L3311.61,1845.04 C3311.61,1842.4 3309.62,1840.41 3306.97,1840.41 L3306.31,1840.41 L3295.39,1842.73 L3295.39,1788.11 L3307.97,1785.79 "/>
<polyline class="Stem" fill="none" stroke="#000000" stroke-width="8.27" stroke-linejoin="bevel" points="8793.82,2799.45 8793.82,2523.31" />
<polyline class="Stem" fill="none" stroke="#000000" stroke-width="8.27" stroke-linejoin="bevel" points="6188.14,1710.42 6188.14,1985.9" />
<polyline class="Stem" fill="none" stroke="#000000" stroke-width="8.27" stroke-linejoin="bevel" points="5484.55,883.652 5484.55,1159.13" />
<polyline class="Stem" fill="none" stroke="#000000" stroke-width="8.27" stroke-linejoin="bevel" points="8243.74,2758.11 8243.74,2502.64" />
<polyline class="Stem" fill="none" stroke="#000000" stroke-width="8.27" stroke-linejoin="bevel" points="5726.44,924.991 5726.44,1200.47" />
<polyline class="Stem" fill="none" stroke="#000000" stroke-width="8.27" stroke-linejoin="bevel" points="4534.17,1793.1 4534.17,2068.58" />
<polyline class="Stem" fill="none" stroke="#000000" stroke-width="8.27" stroke-linejoin="bevel" points="5968.33,966.329 5968.33,1221.14" />
<polyline class="Stem" fill="none" stroke="#000000" stroke-width="8.27" stroke-linejoin="bevel" points="7737.02,2619.87 7737.02,2895.35" />
<polyline class="Stem" fill="none" stroke="#000000" stroke-width="8.27" stroke-linejoin="bevel" points="6210.22,1007.67 6210.22,1241.81" />
<polyline class="Stem" fill="none" stroke="#000000" stroke-width="8.27" stroke-linejoin="bevel" points="7447.74,2743.89 7447.74,2978.03" />
<polyline class="Stem" fill="none" stroke="#000000" stroke-width="8.27" stroke-linejoin="bevel" points="5242.66,924.991 5242.66,1200.47" />
<polyline class="Stem" fill="none" stroke="#000000" stroke-width="8.27" stroke-linejoin="bevel" points="7158.46,2661.21 7158.46,2936.69" />
<polyline class="Stem" fill="none" stroke="#000000" stroke-width="8.27" stroke-linejoin="bevel" points="6669.55,1021.89 6669.55,766.416" />
<polyline class="Stem" fill="none" stroke="#000000" stroke-width="8.27" stroke-linejoin="bevel" points="6869.17,2702.55 6869.17,2957.36" />
<polyline class="Stem" fill="none" stroke="#000000" stroke-width="8.27" stroke-linejoin="bevel" points="6579.89,2743.89 6579.89,2978.03" />
<polyline class="Stem" fill="none" stroke="#000000" stroke-width="8.27" stroke-linejoin="bevel" points="7129.51,1021.89 7129.51,766.416" />
<polyline class="Stem" fill="none" stroke="#000000" stroke-width="8.27" stroke-linejoin="bevel" points="6389.82,2799.45 6389.82,2523.31" />
<polyline class="Stem" fill="none" stroke="#000000" stroke-width="8.27" stroke-linejoin="bevel" points="7492.34,1187.24 7492.34,911.101" />
<polyline class="Stem" fill="none" stroke="#000000" stroke-width="8.27" stroke-linejoin="bevel" points="1618,1187.24 1618,911.101" />
<polyline class="Stem" fill="none" stroke="#000000" stroke-width="8.27" stroke-linejoin="bevel" points="5000.77,966.329 5000.77,1221.14" />
<polyline class="Stem" fill="none" stroke="#000000" stroke-width="8.27" stroke-linejoin="bevel" points="5982.31,2799.45 5982.31,2523.31" />
<polyline class="Stem" fill="none" stroke="#000000" stroke-width="8.27" stroke-linejoin="bevel" points="7852.46,1063.23 7852.46,787.085" />
<polyline class="Stem" fill="none" stroke="#000000" stroke-width="8.27" stroke-linejoin="bevel" points="5548.38,2758.11 5548.38,2502.64" />
<polyline class="Stem" fill="none" stroke="#000000" stroke-width="8.27" stroke-linejoin="bevel" points="8094.35,1021.89 8094.35,766.416" />
<polyline class="Stem" fill="none" stroke="#000000" stroke-width="8.27" stroke-linejoin="bevel" points="5159.89,2743.89 5159.89,2978.03" />
<polyline class="Stem" fill="none" stroke="#000000" stroke-width="8.27" stroke-linejoin="bevel" points="8237.03,1007.67 8237.03,1241.81" />
<polyline class="Stem" fill="none" stroke="#000000" stroke-width="8.27" stroke-linejoin="bevel" points="4870.6,2702.55 4870.6,2957.36" />
<polyline class="Stem" fill="none" stroke="#000000" stroke-width="8.27" stroke-linejoin="bevel" points="8478.92,966.329 8478.92,1221.14" />
<polyline class="Stem" fill="none" stroke="#000000" stroke-width="8.27" stroke-linejoin="bevel" points="4581.32,2661.21 4581.32,2936.69" />
<polyline class="Stem" fill="none" stroke="#000000" stroke-width="8.27" stroke-linejoin="bevel" points="8720.81,1007.67 8720.81,1241.81" />
<polyline class="Stem" fill="none" stroke="#000000" stroke-width="8.27" stroke-linejoin="bevel" points="2081.78,1063.23 2081.78,787.085" />
<polyline class="Stem" fill="none" stroke="#000000" stroke-width="8.27" stroke-linejoin="bevel" points="9061.92,1021.89 9061.92,766.416" />
<polyline class="Stem" fill="none" stroke="#000000" stroke-width="8.27" stroke-linejoin="bevel" points="4173.81,2619.87 4173.81,2895.35" />
<polyline class="Stem" fill="none" stroke="#000000" stroke-width="8.27" stroke-linejoin="bevel" points="4640.65,1007.67 4640.65,1241.81" />
<polyline class="Stem" fill="none" stroke="#000000" stroke-width="8.27" stroke-linejoin="bevel" points="3884.53,2661.21 3884.53,2936.69" />
<polyline class="Stem" fill="none" stroke="#000000" stroke-width="8.27" stroke-linejoin="bevel" points="3595.24,2537.2 3595.24,2812.68" />
<polyline class="Stem" fill="none" stroke="#000000" stroke-width="8.27" stroke-linejoin="bevel" points="3305.96,2578.53 3305.96,2854.01" />
<polyline class="Stem" fill="none" stroke="#000000" stroke-width="8.27" stroke-linejoin="bevel" points="1335.89,1875.78 1335.89,2109.92" />
<polyline class="Stem" fill="none" stroke="#000000" stroke-width="8.27" stroke-linejoin="bevel" points="3016.68,2619.87 3016.68,2895.35" />
<polyline class="Stem" fill="none" stroke="#000000" stroke-width="8.27" stroke-linejoin="bevel" points="1652.47,1890 1652.47,1634.53" />
<polyline class="Stem" fill="none" stroke="#000000" stroke-width="8.27" stroke-linejoin="bevel" points="2727.4,2661.21 2727.4,2936.69" />
<polyline class="Stem" fill="none" stroke="#000000" stroke-width="8.27" stroke-linejoin="bevel" points="1869.84,1931.34 1869.84,1655.2" />
<polyline class="Stem" fill="none" stroke="#000000" stroke-width="8.27" stroke-linejoin="bevel" points="2323.68,1021.89 2323.68,766.416" />
<polyline class="Stem" fill="none" stroke="#000000" stroke-width="8.27" stroke-linejoin="bevel" points="1988,1669.09 1988,1944.57" />
<polyline class="Stem" fill="none" stroke="#000000" stroke-width="8.27" stroke-linejoin="bevel" points="2319.88,2661.21 2319.88,2936.69" />
<polyline class="Stem" fill="none" stroke="#000000" stroke-width="8.27" stroke-linejoin="bevel" points="2314.06,1710.42 2314.06,1985.9" />
<polyline class="Stem" fill="none" stroke="#000000" stroke-width="8.27" stroke-linejoin="bevel" points="1885.96,2619.87 1885.96,2895.35" />
<polyline class="Stem" fill="none" stroke="#000000" stroke-width="8.27" stroke-linejoin="bevel" points="4277.81,924.991 4277.81,1200.47" />
<polyline class="Stem" fill="none" stroke="#000000" stroke-width="8.27" stroke-linejoin="bevel" points="1335.89,2578.53 1335.89,2854.01" />
<polyline class="Stem" fill="none" stroke="#000000" stroke-width="8.27" stroke-linejoin="bevel" points="2663.8,1751.76 2663.8,2027.24" />
<polyline class="Stem" fill="none" stroke="#000000" stroke-width="8.27" stroke-linejoin="bevel" points="2466.35,1007.67 2466.35,1241.81" />
<polyline class="Stem" fill="none" stroke="#000000" stroke-width="8.27" stroke-linejoin="bevel" points="2881.17,1710.42 2881.17,1985.9" />
<polyline class="Stem" fill="none" stroke="#000000" stroke-width="8.27" stroke-linejoin="bevel" points="8973.08,1710.42 8973.08,1985.9" />
<polyline class="Stem" fill="none" stroke="#000000" stroke-width="8.27" stroke-linejoin="bevel" points="3098.55,1793.1 3098.55,2068.58" />
<polyline class="Stem" fill="none" stroke="#000000" stroke-width="8.27" stroke-linejoin="bevel" points="8755.71,1751.76 8755.71,2027.24" />
<polyline class="Stem" fill="none" stroke="#000000" stroke-width="8.27" stroke-linejoin="bevel" points="3336.35,1834.44 3336.35,2089.25" />
<polyline class="Stem" fill="none" stroke="#000000" stroke-width="8.27" stroke-linejoin="bevel" points="8538.34,1793.1 8538.34,2068.58" />
<polyline class="Stem" fill="none" stroke="#000000" stroke-width="8.27" stroke-linejoin="bevel" points="4135.14,1063.23 4135.14,787.085" />
<polyline class="Stem" fill="none" stroke="#000000" stroke-width="8.27" stroke-linejoin="bevel" points="3553.72,1793.1 3553.72,2068.58" />
<polyline class="Stem" fill="none" stroke="#000000" stroke-width="8.27" stroke-linejoin="bevel" points="8300.54,1751.76 8300.54,2027.24" />
<polyline class="Stem" fill="none" stroke="#000000" stroke-width="8.27" stroke-linejoin="bevel" points="3771.09,1751.76 3771.09,2027.24" />
<polyline class="Stem" fill="none" stroke="#000000" stroke-width="8.27" stroke-linejoin="bevel" points="8083.16,1710.42 8083.16,1985.9" />
<polyline class="Stem" fill="none" stroke="#000000" stroke-width="8.27" stroke-linejoin="bevel" points="7865.79,1669.09 7865.79,1944.57" />
<polyline class="Stem" fill="none" stroke="#000000" stroke-width="8.27" stroke-linejoin="bevel" points="3893.25,1021.89 3893.25,766.416" />
<polyline class="Stem" fill="none" stroke="#000000" stroke-width="8.27" stroke-linejoin="bevel" points="4120.83,1751.76 4120.83,2027.24" />
<polyline class="Stem" fill="none" stroke="#000000" stroke-width="8.27" stroke-linejoin="bevel" points="2708.24,966.329 2708.24,1221.14" />
<polyline class="Stem" fill="none" stroke="#000000" stroke-width="8.27" stroke-linejoin="bevel" points="3552.14,1007.67 3552.14,1241.81" />
<polyline class="Stem" fill="none" stroke="#000000" stroke-width="8.27" stroke-linejoin="bevel" points="7516.05,1710.42 7516.05,1985.9" />
<polyline class="Stem" fill="none" stroke="#000000" stroke-width="8.27" stroke-linejoin="bevel" points="7189.99,1875.78 7189.99,2109.92" />
<polyline class="Stem" fill="none" stroke="#000000" stroke-width="8.27" stroke-linejoin="bevel" points="4860.23,1793.1 4860.23,2068.58" />
<polyline class="Stem" fill="none" stroke="#000000" stroke-width="8.27" stroke-linejoin="bevel" points="6972.62,1834.44 6972.62,2089.25" />
<polyline class="Stem" fill="none" stroke="#000000" stroke-width="8.27" stroke-linejoin="bevel" points="6755.25,1793.1 6755.25,2068.58" />
<polyline class="Stem" fill="none" stroke="#000000" stroke-width="8.27" stroke-linejoin="bevel" points="3291.24,1021.89 3291.24,766.416" />
<polyline class="Stem" fill="none" stroke="#000000" stroke-width="8.27" stroke-linejoin="bevel" points="5209.96,1793.1 5209.96,2068.58" />
<polyline class="Stem" fill="none" stroke="#000000" stroke-width="8.27" stroke-linejoin="bevel" points="6537.88,1751.76 6537.88,2027.24" />
<polyline class="Stem" fill="none" stroke="#000000" stroke-width="8.27" stroke-linejoin="bevel" points="5427.34,1751.76 5427.34,2027.24" />
<polyline class="Stem" fill="none" stroke="#000000" stroke-width="8.27" stroke-linejoin="bevel" points="2950.13,1007.67 2950.13,1241.81" />
<polyline class="Stem" fill="none" stroke="#000000" stroke-width="8.27" stroke-linejoin="bevel" points="5644.71,1710.42 5644.71,1985.9" />
<polyline class="Stem" fill="none" stroke="#000000" stroke-width="8.27" stroke-linejoin="bevel" points="5862.08,1669.09 5862.08,1944.57" />
<path class="Note" d="M5238.53,925.003 C5238.53,939.236 5248.79,955.124 5275.6,955.124 C5310.02,955.124 5346.1,926.989 5346.1,897.861 C5346.1,878.332 5329.55,867.409 5309.03,867.409 C5276.92,867.409 5238.53,894.551 5238.53,925.003"/>
<path class="Note" d="M6206.09,1007.68 C6206.09,1021.91 6216.35,1037.8 6243.16,1037.8 C6277.58,1037.8 6313.66,1009.67 6313.66,980.538 C6313.66,961.009 6297.11,950.086 6276.59,950.086 C6244.48,950.086 6206.09,977.228 6206.09,1007.68"/>
<path class="Note" d="M5640.57,1710.44 C5640.57,1724.67 5650.84,1740.56 5677.65,1740.56 C5712.07,1740.56 5748.15,1712.42 5748.15,1683.29 C5748.15,1663.76 5731.6,1652.84 5711.08,1652.84 C5678.97,1652.84 5640.57,1679.98 5640.57,1710.44"/>
<path class="Note" d="M6184.01,1710.44 C6184.01,1724.67 6194.27,1740.56 6221.08,1740.56 C6255.5,1740.56 6291.58,1712.42 6291.58,1683.29 C6291.58,1663.76 6275.03,1652.84 6254.51,1652.84 C6222.4,1652.84 6184.01,1679.98 6184.01,1710.44"/>
<path class="Note" d="M2946,1007.68 C2946,1021.91 2956.26,1037.8 2983.07,1037.8 C3017.5,1037.8 3053.58,1009.67 3053.58,980.538 C3053.58,961.009 3037.03,950.086 3016.5,950.086 C2984.4,950.086 2946,977.228 2946,1007.68"/>
<path class="Note" d="M5423.2,1751.77 C5423.2,1766.01 5433.46,1781.9 5460.27,1781.9 C5494.7,1781.9 5530.78,1753.76 5530.78,1724.63 C5530.78,1705.1 5514.23,1694.18 5493.7,1694.18 C5461.6,1694.18 5423.2,1721.32 5423.2,1751.77"/>
<path class="Note" d="M5205.83,1793.11 C5205.83,1807.35 5216.09,1823.23 5242.9,1823.23 C5277.33,1823.23 5313.4,1795.1 5313.4,1765.97 C5313.4,1746.44 5296.85,1735.52 5276.33,1735.52 C5244.23,1735.52 5205.83,1762.66 5205.83,1793.11"/>
<path class="Note" d="M6533.74,1751.77 C6533.74,1766.01 6544,1781.9 6570.82,1781.9 C6605.24,1781.9 6641.32,1753.76 6641.32,1724.63 C6641.32,1705.1 6624.77,1694.18 6604.25,1694.18 C6572.14,1694.18 6533.74,1721.32 6533.74,1751.77"/>
<path class="Note" d="M3187.89,1049.02 C3187.89,1063.25 3198.15,1079.14 3224.96,1079.14 C3259.39,1079.14 3295.47,1051 3295.47,1021.88 C3295.47,1002.35 3278.92,991.425 3258.39,991.425 C3226.29,991.425 3187.89,1018.57 3187.89,1049.02"/>
<path class="Note" d="M6751.12,1793.11 C6751.12,1807.35 6761.38,1823.23 6788.19,1823.23 C6822.61,1823.23 6858.69,1795.1 6858.69,1765.97 C6858.69,1746.44 6842.14,1735.52 6821.62,1735.52 C6789.51,1735.52 6751.12,1762.66 6751.12,1793.11"/>
<path class="Note" d="M4856.09,1793.11 C4856.09,1807.35 4866.35,1823.23 4893.16,1823.23 C4927.59,1823.23 4963.67,1795.1 4963.67,1765.97 C4963.67,1746.44 4947.12,1735.52 4926.59,1735.52 C4894.49,1735.52 4856.09,1762.66 4856.09,1793.11"/>
<path class="Note" d="M6968.49,1834.45 C6968.49,1848.68 6978.75,1864.57 7005.56,1864.57 C7039.98,1864.57 7076.06,1836.44 7076.06,1807.31 C7076.06,1787.78 7059.51,1776.86 7038.99,1776.86 C7006.88,1776.86 6968.49,1804 6968.49,1834.45"/>
<path class="Note" d="M4554.86,1807.68 C4543.93,1807.68 4541.62,1798.74 4541.62,1795.76 C4541.62,1779.54 4597.23,1751.08 4612.78,1751.08 C4620.73,1751.08 4626.02,1755.71 4626.02,1762.99 C4626.02,1779.54 4570.08,1807.68 4554.86,1807.68 M4600.54,1735.52 C4568.43,1735.52 4530.03,1762.33 4530.03,1793.11 C4530.03,1807.35 4540.29,1823.23 4567.1,1823.23 C4601.53,1823.23 4637.61,1795.1 4637.61,1765.97 C4637.61,1746.44 4621.06,1735.52 4600.54,1735.52"/>
<path class="Note" d="M7210.69,1890.35 C7199.76,1890.35 7197.45,1881.42 7197.45,1878.44 C7197.45,1862.22 7253.05,1833.75 7268.61,1833.75 C7276.55,1833.75 7281.85,1838.39 7281.85,1845.67 C7281.85,1862.22 7225.91,1890.35 7210.69,1890.35 M7256.36,1818.2 C7224.26,1818.2 7185.86,1845.01 7185.86,1875.79 C7185.86,1890.02 7196.12,1905.91 7222.93,1905.91 C7257.36,1905.91 7293.44,1877.78 7293.44,1848.65 C7293.44,1829.12 7276.89,1818.2 7256.36,1818.2"/>
<path class="Note" d="M8715.3,2841.14 C8704.37,2841.14 8702.06,2832.2 8702.06,2829.23 C8702.06,2813.01 8757.66,2784.54 8773.22,2784.54 C8781.17,2784.54 8786.46,2789.17 8786.46,2796.46 C8786.46,2813.01 8730.52,2841.14 8715.3,2841.14 M8760.97,2768.98 C8728.87,2768.98 8690.47,2795.79 8690.47,2826.58 C8690.47,2840.81 8700.73,2856.7 8727.54,2856.7 C8761.97,2856.7 8798.05,2828.56 8798.05,2799.44 C8798.05,2779.91 8781.5,2768.98 8760.97,2768.98"/>
<path class="Note" d="M7511.92,1710.44 C7511.92,1724.67 7522.18,1740.56 7548.99,1740.56 C7583.42,1740.56 7619.49,1712.42 7619.49,1683.29 C7619.49,1663.76 7602.94,1652.84 7582.42,1652.84 C7550.32,1652.84 7511.92,1679.98 7511.92,1710.44"/>
<path class="Note" d="M2704.11,966.341 C2704.11,980.574 2714.37,996.462 2741.18,996.462 C2775.61,996.462 2811.68,968.327 2811.68,939.199 C2811.68,919.67 2795.13,908.747 2774.61,908.747 C2742.51,908.747 2704.11,935.889 2704.11,966.341"/>
<path class="Note" d="M3548.01,1007.68 C3548.01,1021.91 3558.27,1037.8 3585.08,1037.8 C3619.51,1037.8 3655.58,1009.67 3655.58,980.538 C3655.58,961.009 3639.03,950.086 3618.51,950.086 C3586.41,950.086 3548.01,977.228 3548.01,1007.68"/>
<path class="Note" d="M3789.9,1049.02 C3789.9,1063.25 3800.16,1079.14 3826.97,1079.14 C3861.4,1079.14 3897.47,1051 3897.47,1021.88 C3897.47,1002.35 3880.92,991.425 3860.4,991.425 C3828.3,991.425 3789.9,1018.57 3789.9,1049.02"/>
<path class="Note" d="M7861.66,1669.1 C7861.66,1683.33 7871.92,1699.22 7898.73,1699.22 C7933.15,1699.22 7969.23,1671.08 7969.23,1641.96 C7969.23,1622.43 7952.68,1611.5 7932.16,1611.5 C7900.05,1611.5 7861.66,1638.65 7861.66,1669.1"/>
<path class="Note" d="M3766.96,1751.77 C3766.96,1766.01 3777.22,1781.9 3804.03,1781.9 C3838.46,1781.9 3874.53,1753.76 3874.53,1724.63 C3874.53,1705.1 3857.98,1694.18 3837.46,1694.18 C3805.36,1694.18 3766.96,1721.32 3766.96,1751.77"/>
<path class="Note" d="M8079.03,1710.44 C8079.03,1724.67 8089.29,1740.56 8116.1,1740.56 C8150.53,1740.56 8186.6,1712.42 8186.6,1683.29 C8186.6,1663.76 8170.05,1652.84 8149.53,1652.84 C8117.43,1652.84 8079.03,1679.98 8079.03,1710.44"/>
<path class="Note" d="M3549.59,1793.11 C3549.59,1807.35 3559.85,1823.23 3586.66,1823.23 C3621.08,1823.23 3657.16,1795.1 3657.16,1765.97 C3657.16,1746.44 3640.61,1735.52 3620.09,1735.52 C3587.98,1735.52 3549.59,1762.66 3549.59,1793.11"/>
<path class="Note" d="M8296.4,1751.77 C8296.4,1766.01 8306.66,1781.9 8333.47,1781.9 C8367.9,1781.9 8403.98,1753.76 8403.98,1724.63 C8403.98,1705.1 8387.43,1694.18 8366.9,1694.18 C8334.8,1694.18 8296.4,1721.32 8296.4,1751.77"/>
<path class="Note" d="M3332.21,1834.45 C3332.21,1848.68 3342.48,1864.57 3369.29,1864.57 C3403.71,1864.57 3439.79,1836.44 3439.79,1807.31 C3439.79,1787.78 3423.24,1776.86 3402.72,1776.86 C3370.61,1776.86 3332.21,1804 3332.21,1834.45"/>
<path class="Note" d="M8534.2,1793.11 C8534.2,1807.35 8544.47,1823.23 8571.28,1823.23 C8605.7,1823.23 8641.78,1795.1 8641.78,1765.97 C8641.78,1746.44 8625.23,1735.52 8604.71,1735.52 C8572.6,1735.52 8534.2,1762.66 8534.2,1793.11"/>
<path class="Note" d="M2462.22,1007.68 C2462.22,1021.91 2472.48,1037.8 2499.29,1037.8 C2533.72,1037.8 2569.79,1009.67 2569.79,980.538 C2569.79,961.009 2553.24,950.086 2532.72,950.086 C2500.62,950.086 2462.22,977.228 2462.22,1007.68"/>
<path class="Note" d="M3094.41,1793.11 C3094.41,1807.35 3104.67,1823.23 3131.48,1823.23 C3165.91,1823.23 3201.99,1795.1 3201.99,1765.97 C3201.99,1746.44 3185.44,1735.52 3164.91,1735.52 C3132.81,1735.52 3094.41,1762.66 3094.41,1793.11"/>
<path class="Note" d="M8751.58,1751.77 C8751.58,1766.01 8761.84,1781.9 8788.65,1781.9 C8823.07,1781.9 8859.15,1753.76 8859.15,1724.63 C8859.15,1705.1 8842.6,1694.18 8822.08,1694.18 C8789.97,1694.18 8751.58,1721.32 8751.58,1751.77"/>
<path class="Note" d="M2877.04,1710.44 C2877.04,1724.67 2887.3,1740.56 2914.11,1740.56 C2948.54,1740.56 2984.61,1712.42 2984.61,1683.29 C2984.61,1663.76 2968.06,1652.84 2947.54,1652.84 C2915.44,1652.84 2877.04,1679.98 2877.04,1710.44"/>
<path class="Note" d="M8968.95,1710.44 C8968.95,1724.67 8979.21,1740.56 9006.02,1740.56 C9040.45,1740.56 9076.52,1712.42 9076.52,1683.29 C9076.52,1663.76 9059.97,1652.84 9039.45,1652.84 C9007.35,1652.84 8968.95,1679.98 8968.95,1710.44"/>
<path class="Note" d="M2659.67,1751.77 C2659.67,1766.01 2669.93,1781.9 2696.74,1781.9 C2731.16,1781.9 2767.24,1753.76 2767.24,1724.63 C2767.24,1705.1 2750.69,1694.18 2730.17,1694.18 C2698.06,1694.18 2659.67,1721.32 2659.67,1751.77"/>
<path class="Note" d="M2220.33,1049.02 C2220.33,1063.25 2230.59,1079.14 2257.4,1079.14 C2291.82,1079.14 2327.9,1051 2327.9,1021.88 C2327.9,1002.35 2311.35,991.425 2290.83,991.425 C2258.72,991.425 2220.33,1018.57 2220.33,1049.02"/>
<path class="Note" d="M8165.22,2799.8 C8154.3,2799.8 8151.98,2790.87 8151.98,2787.89 C8151.98,2771.67 8207.59,2743.2 8223.15,2743.2 C8231.09,2743.2 8236.39,2747.84 8236.39,2755.12 C8236.39,2771.67 8180.45,2799.8 8165.22,2799.8 M8210.9,2727.65 C8178.79,2727.65 8140.4,2754.46 8140.4,2785.24 C8140.4,2799.47 8150.66,2815.36 8177.47,2815.36 C8211.89,2815.36 8247.97,2787.23 8247.97,2758.1 C8247.97,2738.57 8231.42,2727.65 8210.9,2727.65"/>
<path class="Note" d="M5480.42,883.664 C5480.42,897.897 5490.68,913.785 5517.49,913.785 C5551.91,913.785 5587.99,885.65 5587.99,856.522 C5587.99,836.993 5571.44,826.07 5550.92,826.07 C5518.81,826.07 5480.42,853.212 5480.42,883.664"/>
<path class="Note" d="M4031.79,1090.36 C4031.79,1104.59 4042.05,1120.48 4068.86,1120.48 C4103.29,1120.48 4139.37,1092.34 4139.37,1063.22 C4139.37,1043.69 4122.82,1032.76 4102.29,1032.76 C4070.19,1032.76 4031.79,1059.91 4031.79,1090.36"/>
<path class="Note" d="M1356.58,2593.11 C1345.65,2593.11 1343.34,2584.17 1343.34,2581.19 C1343.34,2564.98 1398.95,2536.51 1414.5,2536.51 C1422.45,2536.51 1427.74,2541.14 1427.74,2548.43 C1427.74,2564.98 1371.8,2593.11 1356.58,2593.11 M1402.26,2520.95 C1370.15,2520.95 1331.75,2547.76 1331.75,2578.55 C1331.75,2592.78 1342.01,2608.67 1368.82,2608.67 C1403.25,2608.67 1439.33,2580.53 1439.33,2551.4 C1439.33,2531.88 1422.78,2520.95 1402.26,2520.95"/>
<path class="Note" d="M4141.52,1766.34 C4130.6,1766.34 4128.28,1757.4 4128.28,1754.42 C4128.28,1738.2 4183.89,1709.74 4199.45,1709.74 C4207.39,1709.74 4212.69,1714.37 4212.69,1721.65 C4212.69,1738.2 4156.75,1766.34 4141.52,1766.34 M4187.2,1694.18 C4155.09,1694.18 4116.7,1720.99 4116.7,1751.77 C4116.7,1766.01 4126.96,1781.9 4153.77,1781.9 C4188.19,1781.9 4224.27,1753.76 4224.27,1724.63 C4224.27,1705.1 4207.72,1694.18 4187.2,1694.18"/>
<path class="Note" d="M2309.93,1710.44 C2309.93,1724.67 2320.19,1740.56 2347,1740.56 C2381.42,1740.56 2417.5,1712.42 2417.5,1683.29 C2417.5,1663.76 2400.95,1652.84 2380.43,1652.84 C2348.32,1652.84 2309.93,1679.98 2309.93,1710.44"/>
<path class="Note" d="M1906.65,2634.45 C1895.73,2634.45 1893.41,2625.51 1893.41,2622.53 C1893.41,2606.31 1949.02,2577.85 1964.58,2577.85 C1972.52,2577.85 1977.82,2582.48 1977.82,2589.76 C1977.82,2606.31 1921.88,2634.45 1906.65,2634.45 M1952.33,2562.29 C1920.22,2562.29 1881.83,2589.1 1881.83,2619.88 C1881.83,2634.12 1892.09,2650.01 1918.9,2650.01 C1953.32,2650.01 1989.4,2621.87 1989.4,2592.74 C1989.4,2573.21 1972.85,2562.29 1952.33,2562.29"/>
<path class="Note" d="M2008.7,1683.66 C1997.77,1683.66 1995.46,1674.72 1995.46,1671.75 C1995.46,1655.53 2051.06,1627.06 2066.62,1627.06 C2074.56,1627.06 2079.86,1631.69 2079.86,1638.98 C2079.86,1655.53 2023.92,1683.66 2008.7,1683.66 M2054.37,1611.5 C2022.27,1611.5 1983.87,1638.31 1983.87,1669.1 C1983.87,1683.33 1994.13,1699.22 2020.94,1699.22 C2055.37,1699.22 2091.45,1671.08 2091.45,1641.96 C2091.45,1622.43 2074.9,1611.5 2054.37,1611.5"/>
<path class="Note" d="M2315.75,2661.22 C2315.75,2675.46 2326.01,2691.34 2352.82,2691.34 C2387.25,2691.34 2423.33,2663.21 2423.33,2634.08 C2423.33,2614.55 2406.78,2603.63 2386.25,2603.63 C2354.15,2603.63 2315.75,2630.77 2315.75,2661.22"/>
<path class="Note" d="M1766.5,1958.47 C1766.5,1972.7 1776.76,1988.59 1803.57,1988.59 C1837.99,1988.59 1874.07,1960.45 1874.07,1931.33 C1874.07,1911.8 1857.52,1900.87 1837,1900.87 C1804.89,1900.87 1766.5,1928.02 1766.5,1958.47"/>
<path class="Note" d="M1978.44,1090.36 C1978.44,1104.59 1988.7,1120.48 2015.51,1120.48 C2049.93,1120.48 2086.01,1092.34 2086.01,1063.22 C2086.01,1043.69 2069.46,1032.76 2048.94,1032.76 C2016.83,1032.76 1978.44,1059.91 1978.44,1090.36"/>
<path class="Note" d="M1549.13,1917.13 C1549.13,1931.36 1559.39,1947.25 1586.2,1947.25 C1620.62,1947.25 1656.7,1919.11 1656.7,1889.99 C1656.7,1870.46 1640.15,1859.53 1619.63,1859.53 C1587.52,1859.53 1549.13,1886.68 1549.13,1917.13"/>
<path class="Note" d="M2723.26,2661.22 C2723.26,2675.46 2733.52,2691.34 2760.33,2691.34 C2794.76,2691.34 2830.84,2663.21 2830.84,2634.08 C2830.84,2614.55 2814.29,2603.63 2793.77,2603.63 C2761.66,2603.63 2723.26,2630.77 2723.26,2661.22"/>
<path class="Note" d="M1331.75,1875.79 C1331.75,1890.02 1342.01,1905.91 1368.82,1905.91 C1403.25,1905.91 1439.33,1877.78 1439.33,1848.65 C1439.33,1829.12 1422.78,1818.2 1402.26,1818.2 C1370.15,1818.2 1331.75,1845.34 1331.75,1875.79"/>
<path class="Note" d="M3012.55,2619.88 C3012.55,2634.12 3022.81,2650.01 3049.62,2650.01 C3084.04,2650.01 3120.12,2621.87 3120.12,2592.74 C3120.12,2573.21 3103.57,2562.29 3083.05,2562.29 C3050.94,2562.29 3012.55,2589.43 3012.55,2619.88"/>
<path class="Note" d="M5722.31,925.003 C5722.31,939.236 5732.57,955.124 5759.38,955.124 C5793.8,955.124 5829.88,926.989 5829.88,897.861 C5829.88,878.332 5813.33,867.409 5792.81,867.409 C5760.7,867.409 5722.31,894.551 5722.31,925.003"/>
<path class="Note" d="M3301.83,2578.55 C3301.83,2592.78 3312.09,2608.67 3338.9,2608.67 C3373.32,2608.67 3409.4,2580.53 3409.4,2551.4 C3409.4,2531.88 3392.85,2520.95 3372.33,2520.95 C3340.22,2520.95 3301.83,2548.09 3301.83,2578.55"/>
<path class="Note" d="M7732.89,2619.88 C7732.89,2634.12 7743.15,2650.01 7769.96,2650.01 C7804.38,2650.01 7840.46,2621.87 7840.46,2592.74 C7840.46,2573.21 7823.91,2562.29 7803.39,2562.29 C7771.28,2562.29 7732.89,2589.43 7732.89,2619.88"/>
<path class="Note" d="M3591.11,2537.21 C3591.11,2551.44 3601.37,2567.33 3628.18,2567.33 C3662.61,2567.33 3698.69,2539.19 3698.69,2510.07 C3698.69,2490.54 3682.14,2479.61 3661.61,2479.61 C3629.51,2479.61 3591.11,2506.76 3591.11,2537.21"/>
<path class="Note" d="M4298.51,939.567 C4287.58,939.567 4285.27,930.63 4285.27,927.651 C4285.27,911.432 4340.87,882.966 4356.43,882.966 C4364.37,882.966 4369.67,887.6 4369.67,894.882 C4369.67,911.432 4313.73,939.567 4298.51,939.567 M4344.18,867.409 C4312.08,867.409 4273.68,894.22 4273.68,925.003 C4273.68,939.236 4283.94,955.124 4310.75,955.124 C4345.18,955.124 4381.26,926.989 4381.26,897.861 C4381.26,878.332 4364.71,867.409 4344.18,867.409"/>
<path class="Note" d="M3880.39,2661.22 C3880.39,2675.46 3890.65,2691.34 3917.47,2691.34 C3951.89,2691.34 3987.97,2663.21 3987.97,2634.08 C3987.97,2614.55 3971.42,2603.63 3950.9,2603.63 C3918.79,2603.63 3880.39,2630.77 3880.39,2661.22"/>
<path class="Note" d="M8958.57,1049.02 C8958.57,1063.25 8968.83,1079.14 8995.64,1079.14 C9030.06,1079.14 9066.14,1051 9066.14,1021.88 C9066.14,1002.35 9049.59,991.425 9029.07,991.425 C8996.96,991.425 8958.57,1018.57 8958.57,1049.02"/>
<path class="Note" d="M4169.68,2619.88 C4169.68,2634.12 4179.94,2650.01 4206.75,2650.01 C4241.17,2650.01 4277.25,2621.87 4277.25,2592.74 C4277.25,2573.21 4260.7,2562.29 4240.18,2562.29 C4208.07,2562.29 4169.68,2589.43 4169.68,2619.88"/>
<path class="Note" d="M8716.68,1007.68 C8716.68,1021.91 8726.94,1037.8 8753.75,1037.8 C8788.17,1037.8 8824.25,1009.67 8824.25,980.538 C8824.25,961.009 8807.7,950.086 8787.18,950.086 C8755.07,950.086 8716.68,977.228 8716.68,1007.68"/>
<path class="Note" d="M1514.65,1214.37 C1514.65,1228.61 1524.91,1244.49 1551.72,1244.49 C1586.15,1244.49 1622.23,1216.36 1622.23,1187.23 C1622.23,1167.7 1605.68,1156.78 1585.16,1156.78 C1553.05,1156.78 1514.65,1183.92 1514.65,1214.37"/>
<path class="Note" d="M8474.79,966.341 C8474.79,980.574 8485.05,996.462 8511.86,996.462 C8546.28,996.462 8582.36,968.327 8582.36,939.199 C8582.36,919.67 8565.81,908.747 8545.29,908.747 C8513.18,908.747 8474.79,935.889 8474.79,966.341"/>
<path class="Note" d="M4577.19,2661.22 C4577.19,2675.46 4587.45,2691.34 4614.26,2691.34 C4648.68,2691.34 4684.76,2663.21 4684.76,2634.08 C4684.76,2614.55 4668.21,2603.63 4647.69,2603.63 C4615.58,2603.63 4577.19,2630.77 4577.19,2661.22"/>
<path class="Note" d="M8232.9,1007.68 C8232.9,1021.91 8243.16,1037.8 8269.97,1037.8 C8304.39,1037.8 8340.47,1009.67 8340.47,980.538 C8340.47,961.009 8323.92,950.086 8303.4,950.086 C8271.29,950.086 8232.9,977.228 8232.9,1007.68"/>
<path class="Note" d="M4866.47,2702.56 C4866.47,2716.79 4876.73,2732.68 4903.54,2732.68 C4937.97,2732.68 4974.05,2704.55 4974.05,2675.42 C4974.05,2655.89 4957.5,2644.97 4936.97,2644.97 C4904.87,2644.97 4866.47,2672.11 4866.47,2702.56"/>
<path class="Note" d="M7991.01,1049.02 C7991.01,1063.25 8001.27,1079.14 8028.08,1079.14 C8062.5,1079.14 8098.58,1051 8098.58,1021.88 C8098.58,1002.35 8082.03,991.425 8061.51,991.425 C8029.4,991.425 7991.01,1018.57 7991.01,1049.02"/>
<path class="Note" d="M5155.75,2743.9 C5155.75,2758.13 5166.01,2774.02 5192.83,2774.02 C5227.25,2774.02 5263.33,2745.89 5263.33,2716.76 C5263.33,2697.23 5246.78,2686.31 5226.26,2686.31 C5194.15,2686.31 5155.75,2713.45 5155.75,2743.9"/>
<path class="Note" d="M7749.12,1090.36 C7749.12,1104.59 7759.38,1120.48 7786.19,1120.48 C7820.61,1120.48 7856.69,1092.34 7856.69,1063.22 C7856.69,1043.69 7840.14,1032.76 7819.62,1032.76 C7787.51,1032.76 7749.12,1059.91 7749.12,1090.36"/>
<path class="Note" d="M5469.86,2799.8 C5458.94,2799.8 5456.62,2790.87 5456.62,2787.89 C5456.62,2771.67 5512.23,2743.2 5527.79,2743.2 C5535.73,2743.2 5541.03,2747.84 5541.03,2755.12 C5541.03,2771.67 5485.09,2799.8 5469.86,2799.8 M5515.54,2727.65 C5483.43,2727.65 5445.04,2754.46 5445.04,2785.24 C5445.04,2799.47 5455.3,2815.36 5482.11,2815.36 C5516.53,2815.36 5552.61,2787.23 5552.61,2758.1 C5552.61,2738.57 5536.06,2727.65 5515.54,2727.65"/>
<path class="Note" d="M4636.52,1007.68 C4636.52,1021.91 4646.78,1037.8 4673.59,1037.8 C4708.01,1037.8 4744.09,1009.67 4744.09,980.538 C4744.09,961.009 4727.54,950.086 4707.02,950.086 C4674.91,950.086 4636.52,977.228 4636.52,1007.68"/>
<path class="Note" d="M5878.96,2826.58 C5878.96,2840.81 5889.22,2856.7 5916.03,2856.7 C5950.46,2856.7 5986.54,2828.56 5986.54,2799.44 C5986.54,2779.91 5969.99,2768.98 5949.46,2768.98 C5917.36,2768.98 5878.96,2796.13 5878.96,2826.58"/>
<path class="Note" d="M7389,1214.37 C7389,1228.61 7399.26,1244.49 7426.07,1244.49 C7460.49,1244.49 7496.57,1216.36 7496.57,1187.23 C7496.57,1167.7 7480.02,1156.78 7459.5,1156.78 C7427.39,1156.78 7389,1183.92 7389,1214.37"/>
<path class="Note" d="M5964.2,966.341 C5964.2,980.574 5974.46,996.462 6001.27,996.462 C6035.69,996.462 6071.77,968.327 6071.77,939.199 C6071.77,919.67 6055.22,908.747 6034.7,908.747 C6002.59,908.747 5964.2,935.889 5964.2,966.341"/>
<path class="Note" d="M7050.99,1063.58 C7040.06,1063.58 7037.75,1054.65 7037.75,1051.67 C7037.75,1035.45 7093.36,1006.98 7108.91,1006.98 C7116.86,1006.98 7122.15,1011.62 7122.15,1018.9 C7122.15,1035.45 7066.21,1063.58 7050.99,1063.58 M7096.67,991.425 C7064.56,991.425 7026.16,1018.24 7026.16,1049.02 C7026.16,1063.25 7036.42,1079.14 7063.23,1079.14 C7097.66,1079.14 7133.74,1051 7133.74,1021.88 C7133.74,1002.35 7117.19,991.425 7096.67,991.425"/>
<path class="Note" d="M6286.47,2826.58 C6286.47,2840.81 6296.73,2856.7 6323.54,2856.7 C6357.97,2856.7 6394.05,2828.56 6394.05,2799.44 C6394.05,2779.91 6377.5,2768.98 6356.98,2768.98 C6324.87,2768.98 6286.47,2796.13 6286.47,2826.58"/>
<path class="Note" d="M7443.6,2743.9 C7443.6,2758.13 7453.87,2774.02 7480.68,2774.02 C7515.1,2774.02 7551.18,2745.89 7551.18,2716.76 C7551.18,2697.23 7534.63,2686.31 7514.11,2686.31 C7482,2686.31 7443.6,2713.45 7443.6,2743.9"/>
<path class="Note" d="M6575.76,2743.9 C6575.76,2758.13 6586.02,2774.02 6612.83,2774.02 C6647.25,2774.02 6683.33,2745.89 6683.33,2716.76 C6683.33,2697.23 6666.78,2686.31 6646.26,2686.31 C6614.15,2686.31 6575.76,2713.45 6575.76,2743.9"/>
<path class="Note" d="M6591.03,1063.58 C6580.11,1063.58 6577.79,1054.65 6577.79,1051.67 C6577.79,1035.45 6633.4,1006.98 6648.96,1006.98 C6656.9,1006.98 6662.2,1011.62 6662.2,1018.9 C6662.2,1035.45 6606.26,1063.58 6591.03,1063.58 M6636.71,991.425 C6604.6,991.425 6566.21,1018.24 6566.21,1049.02 C6566.21,1063.25 6576.47,1079.14 6603.28,1079.14 C6637.7,1079.14 6673.78,1051 6673.78,1021.88 C6673.78,1002.35 6657.23,991.425 6636.71,991.425"/>
<path class="Note" d="M6865.04,2702.56 C6865.04,2716.79 6875.3,2732.68 6902.11,2732.68 C6936.53,2732.68 6972.61,2704.55 6972.61,2675.42 C6972.61,2655.89 6956.06,2644.97 6935.54,2644.97 C6903.43,2644.97 6865.04,2672.11 6865.04,2702.56"/>
<path class="Note" d="M4996.64,966.341 C4996.64,980.574 5006.9,996.462 5033.71,996.462 C5068.13,996.462 5104.21,968.327 5104.21,939.199 C5104.21,919.67 5087.66,908.747 5067.14,908.747 C5035.03,908.747 4996.64,935.889 4996.64,966.341"/>
<path class="Note" d="M7154.32,2661.22 C7154.32,2675.46 7164.58,2691.34 7191.39,2691.34 C7225.82,2691.34 7261.9,2663.21 7261.9,2634.08 C7261.9,2614.55 7245.35,2603.63 7224.82,2603.63 C7192.72,2603.63 7154.32,2630.77 7154.32,2661.22"/>
<path class="Note" d="M5882.77,1683.66 C5871.85,1683.66 5869.53,1674.72 5869.53,1671.75 C5869.53,1655.53 5925.14,1627.06 5940.7,1627.06 C5948.64,1627.06 5953.94,1631.69 5953.94,1638.98 C5953.94,1655.53 5898,1683.66 5882.77,1683.66 M5928.45,1611.5 C5896.34,1611.5 5857.95,1638.31 5857.95,1669.1 C5857.95,1683.33 5868.21,1699.22 5895.02,1699.22 C5929.44,1699.22 5965.52,1671.08 5965.52,1641.96 C5965.52,1622.43 5948.97,1611.5 5928.45,1611.5"/>
<path class="Clef" d="M909.689,2012.75 C903.069,2014.08 896.78,2014.74 890.491,2014.74 C843.158,2014.74 802.776,1981.64 802.776,1931.66 C802.776,1891.27 831.242,1855.2 860.37,1830.04 C865.997,1825.07 871.293,1820.44 876.258,1815.48 C879.237,1833.35 881.554,1848.91 883.871,1862.48 C853.75,1871.41 833.228,1903.19 833.228,1934.3 C833.228,1957.47 851.433,1989.25 877.913,1989.25 C880.561,1989.25 883.54,1987.93 883.54,1984.95 C883.54,1981.97 880.23,1980.31 876.258,1977.67 C863.349,1969.72 856.067,1961.12 856.067,1944.9 C856.067,1924.71 870.962,1908.49 890.491,1903.85 L909.689,2012.75 M880.561,1672.48 C883.54,1659.24 898.766,1624.49 915.978,1624.49 C920.943,1624.49 928.887,1640.71 928.887,1663.55 C928.887,1697.97 903.4,1723.79 880.561,1746.3 C878.575,1733.06 876.92,1720.15 876.92,1706.25 C876.92,1694 877.913,1682.74 880.561,1672.48 M956.691,1951.52 C956.691,1975.02 947.092,1999.18 923.591,2008.78 C916.64,1969.06 907.703,1916.43 905.386,1901.87 C935.176,1901.87 956.691,1922.06 956.691,1951.52 M811.051,2114.37 C811.051,2136.21 827.932,2165.01 872.617,2165.01 C888.174,2165.01 901.745,2161.04 913.661,2153.76 C931.535,2141.18 936.169,2119.33 936.169,2098.48 C936.169,2085.57 934.183,2070.68 930.873,2051.81 C929.88,2045.19 927.894,2035.26 925.908,2022.35 C958.346,2011.76 982.509,1978 982.509,1943.9 C982.509,1893.92 947.092,1860.16 898.766,1860.16 C895.456,1840.3 892.146,1820.77 889.167,1802.24 C924.253,1765.49 948.416,1724.12 948.416,1671.49 C948.416,1641.37 939.148,1616.88 933.852,1604.96 C925.908,1588.08 916.309,1576.49 910.351,1576.49 C908.034,1576.49 897.773,1580.47 886.85,1593.37 C865.666,1618.53 859.708,1660.9 859.708,1688.7 C859.708,1706.58 861.363,1722.8 866.99,1759.87 C866.659,1760.2 849.447,1777.74 842.496,1783.37 C812.375,1811.5 770.669,1851.55 770.669,1917.75 C770.669,1979.65 824.622,2028.31 886.188,2028.31 C895.787,2028.31 904.724,2027.32 912.337,2025.99 C918.626,2057.77 922.267,2080.94 922.267,2098.48 C922.267,2132.9 904.724,2151.11 871.293,2151.11 C863.349,2151.11 856.398,2149.45 855.736,2149.45 C855.405,2149.12 854.743,2148.79 854.743,2148.46 C854.743,2147.8 855.405,2147.47 856.398,2147.14 C871.955,2144.82 887.512,2131.58 887.512,2110.4 C887.512,2092.52 873.941,2073.66 849.116,2073.66 C825.946,2073.66 811.051,2092.52 811.051,2114.37"/>
<path class="Clef" d="M909.689,2880.86 C903.069,2882.19 896.78,2882.85 890.491,2882.85 C843.158,2882.85 802.776,2849.75 802.776,2799.77 C802.776,2759.38 831.242,2723.31 860.37,2698.15 C865.997,2693.18 871.293,2688.55 876.258,2683.59 C879.237,2701.46 881.554,2717.02 883.871,2730.59 C853.75,2739.52 833.228,2771.3 833.228,2802.41 C833.228,2825.58 851.433,2857.36 877.913,2857.36 C880.561,2857.36 883.54,2856.04 883.54,2853.06 C883.54,2850.08 880.23,2848.42 876.258,2845.78 C863.349,2837.83 856.067,2829.23 856.067,2813.01 C856.067,2792.82 870.962,2776.6 890.491,2771.96 L909.689,2880.86 M880.561,2540.59 C883.54,2527.35 898.766,2492.6 915.978,2492.6 C920.943,2492.6 928.887,2508.82 928.887,2531.66 C928.887,2566.08 903.4,2591.9 880.561,2614.41 C878.575,2601.17 876.92,2588.26 876.92,2574.36 C876.92,2562.11 877.913,2550.85 880.561,2540.59 M956.691,2819.63 C956.691,2843.13 947.092,2867.29 923.591,2876.89 C916.64,2837.17 907.703,2784.54 905.386,2769.98 C935.176,2769.98 956.691,2790.17 956.691,2819.63 M811.051,2982.48 C811.051,3004.32 827.932,3033.12 872.617,3033.12 C888.174,3033.12 901.745,3029.15 913.661,3021.87 C931.535,3009.29 936.169,2987.44 936.169,2966.59 C936.169,2953.68 934.183,2938.79 930.873,2919.92 C929.88,2913.3 927.894,2903.37 925.908,2890.46 C958.346,2879.87 982.509,2846.11 982.509,2812.01 C982.509,2762.03 947.092,2728.27 898.766,2728.27 C895.456,2708.41 892.146,2688.88 889.167,2670.35 C924.253,2633.6 948.416,2592.23 948.416,2539.6 C948.416,2509.48 939.148,2484.99 933.852,2473.07 C925.908,2456.19 916.309,2444.6 910.351,2444.6 C908.034,2444.6 897.773,2448.58 886.85,2461.48 C865.666,2486.64 859.708,2529.01 859.708,2556.81 C859.708,2574.69 861.363,2590.91 866.99,2627.98 C866.659,2628.31 849.447,2645.85 842.496,2651.48 C812.375,2679.61 770.669,2719.66 770.669,2785.86 C770.669,2847.76 824.622,2896.42 886.188,2896.42 C895.787,2896.42 904.724,2895.43 912.337,2894.1 C918.626,2925.88 922.267,2949.05 922.267,2966.59 C922.267,3001.01 904.724,3019.22 871.293,3019.22 C863.349,3019.22 856.398,3017.56 855.736,3017.56 C855.405,3017.23 854.743,3016.9 854.743,3016.57 C854.743,3015.91 855.405,3015.58 856.398,3015.25 C871.955,3012.93 887.512,2999.69 887.512,2978.51 C887.512,2960.63 873.941,2941.77 849.116,2941.77 C825.946,2941.77 811.051,2960.63 811.051,2982.48"/>
<path class="Clef" d="M909.689,1144.64 C903.069,1145.97 896.78,1146.63 890.491,1146.63 C843.158,1146.63 802.776,1113.53 802.776,1063.55 C802.776,1023.16 831.242,987.085 860.37,961.929 C865.997,956.964 871.293,952.33 876.258,947.365 C879.237,965.239 881.554,980.796 883.871,994.367 C853.75,1003.3 833.228,1035.08 833.228,1066.19 C833.228,1089.36 851.433,1121.14 877.913,1121.14 C880.561,1121.14 883.54,1119.82 883.54,1116.84 C883.54,1113.86 880.23,1112.2 876.258,1109.56 C863.349,1101.61 856.067,1093.01 856.067,1076.79 C856.067,1056.6 870.962,1040.38 890.491,1035.74 L909.689,1144.64 M880.561,804.373 C883.54,791.133 898.766,756.378 915.978,756.378 C920.943,756.378 928.887,772.597 928.887,795.436 C928.887,829.86 903.4,855.678 880.561,878.186 C878.575,864.946 876.92,852.037 876.92,838.135 C876.92,825.888 877.913,814.634 880.561,804.373 M956.691,1083.41 C956.691,1106.91 947.092,1131.07 923.591,1140.67 C916.64,1100.95 907.703,1048.32 905.386,1033.76 C935.176,1033.76 956.691,1053.95 956.691,1083.41 M811.051,1246.26 C811.051,1268.1 827.932,1296.9 872.617,1296.9 C888.174,1296.9 901.745,1292.93 913.661,1285.65 C931.535,1273.07 936.169,1251.22 936.169,1230.37 C936.169,1217.46 934.183,1202.57 930.873,1183.7 C929.88,1177.08 927.894,1167.15 925.908,1154.24 C958.346,1143.65 982.509,1109.89 982.509,1075.79 C982.509,1025.81 947.092,992.05 898.766,992.05 C895.456,972.19 892.146,952.661 889.167,934.125 C924.253,897.384 948.416,856.009 948.416,803.38 C948.416,773.259 939.148,748.765 933.852,736.849 C925.908,719.968 916.309,708.383 910.351,708.383 C908.034,708.383 897.773,712.355 886.85,725.264 C865.666,750.42 859.708,792.788 859.708,820.592 C859.708,838.466 861.363,854.685 866.99,891.757 C866.659,892.088 849.447,909.631 842.496,915.258 C812.375,943.393 770.669,983.444 770.669,1049.64 C770.669,1111.54 824.622,1160.2 886.188,1160.2 C895.787,1160.2 904.724,1159.21 912.337,1157.88 C918.626,1189.66 922.267,1212.83 922.267,1230.37 C922.267,1264.79 904.724,1283 871.293,1283 C863.349,1283 856.398,1281.34 855.736,1281.34 C855.405,1281.01 854.743,1280.68 854.743,1280.35 C854.743,1279.69 855.405,1279.36 856.398,1279.03 C871.955,1276.71 887.512,1263.47 887.512,1242.29 C887.512,1224.41 873.941,1205.55 849.116,1205.55 C825.946,1205.55 811.051,1224.41 811.051,1246.26"/>
<path class="KeySig" d="M1070.17,1672.04 L1099.63,1666.08 L1099.63,1720.7 L1070.17,1726.99 L1070.17,1672.04 M1121.48,1661.78 C1123.47,1661.45 1125.12,1659.13 1125.12,1657.14 L1125.12,1637.62 C1125.12,1634.97 1123.13,1632.98 1120.49,1632.98 L1119.82,1632.98 L1108.9,1635.3 L1108.9,1585.98 L1099.63,1585.98 L1099.63,1637.28 L1070.17,1643.24 L1070.17,1596.57 L1060.91,1596.57 L1060.91,1645.23 L1048,1647.88 C1046.01,1648.21 1044.36,1650.52 1044.36,1652.51 L1044.36,1671.71 C1044.36,1674.36 1046.34,1676.34 1048.99,1676.34 L1049.98,1676.34 L1060.91,1674.03 L1060.91,1728.64 L1048,1731.29 C1046.01,1731.62 1044.36,1733.94 1044.36,1735.92 L1044.36,1755.12 C1044.36,1757.77 1046.34,1759.75 1048.99,1759.75 L1049.98,1759.75 L1060.91,1757.44 L1060.91,1806.76 L1070.17,1806.76 L1070.17,1755.45 L1099.63,1749.49 L1099.63,1796.16 L1108.9,1796.16 L1108.9,1747.51 L1121.48,1745.19 C1123.47,1744.86 1125.12,1742.54 1125.12,1740.56 L1125.12,1721.03 C1125.12,1718.38 1123.13,1716.39 1120.49,1716.39 L1119.82,1716.39 L1108.9,1718.71 L1108.9,1664.1 L1121.48,1661.78 "/>
<path class="KeySig" d="M1070.17,2540.15 L1099.63,2534.19 L1099.63,2588.81 L1070.17,2595.1 L1070.17,2540.15 M1121.48,2529.89 C1123.47,2529.56 1125.12,2527.24 1125.12,2525.26 L1125.12,2505.73 C1125.12,2503.08 1123.13,2501.09 1120.49,2501.09 L1119.82,2501.09 L1108.9,2503.41 L1108.9,2454.09 L1099.63,2454.09 L1099.63,2505.4 L1070.17,2511.35 L1070.17,2464.68 L1060.91,2464.68 L1060.91,2513.34 L1048,2515.99 C1046.01,2516.32 1044.36,2518.64 1044.36,2520.62 L1044.36,2539.82 C1044.36,2542.47 1046.34,2544.45 1048.99,2544.45 L1049.98,2544.45 L1060.91,2542.14 L1060.91,2596.75 L1048,2599.4 C1046.01,2599.73 1044.36,2602.05 1044.36,2604.03 L1044.36,2623.23 C1044.36,2625.88 1046.34,2627.87 1048.99,2627.87 L1049.98,2627.87 L1060.91,2625.55 L1060.91,2674.87 L1070.17,2674.87 L1070.17,2623.56 L1099.63,2617.6 L1099.63,2664.28 L1108.9,2664.28 L1108.9,2615.62 L1121.48,2613.3 C1123.47,2612.97 1125.12,2610.65 1125.12,2608.67 L1125.12,2589.14 C1125.12,2586.49 1123.13,2584.5 1120.49,2584.5 L1119.82,2584.5 L1108.9,2586.82 L1108.9,2532.21 L1121.48,2529.89 "/>
<path class="KeySig" d="M1070.17,803.93 L1099.63,797.972 L1099.63,852.587 L1070.17,858.876 L1070.17,803.93 M1121.48,793.669 C1123.47,793.338 1125.12,791.021 1125.12,789.035 L1125.12,769.506 C1125.12,766.858 1123.13,764.872 1120.49,764.872 L1119.82,764.872 L1108.9,767.189 L1108.9,717.87 L1099.63,717.87 L1099.63,769.175 L1070.17,775.133 L1070.17,728.462 L1060.91,728.462 L1060.91,777.119 L1048,779.767 C1046.01,780.098 1044.36,782.415 1044.36,784.401 L1044.36,803.599 C1044.36,806.247 1046.34,808.233 1048.99,808.233 L1049.98,808.233 L1060.91,805.916 L1060.91,860.531 L1048,863.179 C1046.01,863.51 1044.36,865.827 1044.36,867.813 L1044.36,887.011 C1044.36,889.659 1046.34,891.645 1048.99,891.645 L1049.98,891.645 L1060.91,889.328 L1060.91,938.647 L1070.17,938.647 L1070.17,887.342 L1099.63,881.384 L1099.63,928.055 L1108.9,928.055 L1108.9,879.398 L1121.48,877.081 C1123.47,876.75 1125.12,874.433 1125.12,872.447 L1125.12,852.918 C1125.12,850.27 1123.13,848.284 1120.49,848.284 L1119.82,848.284 L1108.9,850.601 L1108.9,795.986 L1121.48,793.669 "/>
<path class="TimeSig" d="M1281.87,979.772 C1270.94,979.772 1262.01,964.877 1262.01,946.341 C1262.01,927.805 1270.94,912.579 1281.87,912.579 C1292.79,912.579 1302.06,927.805 1302.06,946.341 C1302.06,964.877 1292.79,979.772 1281.87,979.772 M1294.11,897.022 C1273.92,897.022 1266.64,902.98 1262.01,907.945 C1261.01,900.994 1260.35,895.698 1260.35,890.402 C1260.35,871.535 1266.97,847.041 1290.14,847.041 C1298.42,847.041 1303.38,849.689 1306.69,853.33 C1299.74,856.309 1294.11,865.246 1294.11,872.859 C1294.11,884.775 1303.38,894.043 1315.3,894.043 C1327.21,894.043 1336.81,884.775 1336.81,872.859 L1336.81,871.866 C1336.81,868.887 1336.15,863.922 1334.83,861.274 C1330.52,849.358 1316.62,831.815 1283.52,831.815 C1253.73,831.815 1232.22,860.281 1225.6,875.507 C1222.29,883.451 1217.32,899.67 1217.32,918.206 C1217.32,938.397 1222.95,961.236 1242.48,978.448 C1261.68,993.012 1273.92,993.674 1285.51,993.674 C1297.09,993.674 1340.45,980.103 1340.45,941.707 C1340.45,909.269 1314.97,897.022 1294.11,897.022"/>
<path class="TimeSig" d="M1271.95,1118.01 L1271.95,1142.5 L1244.48,1142.5 C1242.16,1142.5 1239.85,1144.49 1239.85,1147.13 L1239.85,1153.42 C1239.85,1156.07 1242.16,1158.06 1244.48,1158.06 L1344.77,1158.06 C1347.42,1158.06 1349.41,1156.07 1349.41,1153.42 L1349.41,1147.13 C1349.41,1144.49 1347.42,1142.5 1344.77,1142.5 L1314.98,1142.5 L1314.98,1118.01 L1344.77,1118.01 C1347.42,1118.01 1349.41,1115.69 1349.41,1113.04 L1349.41,1106.75 C1349.41,1104.44 1347.42,1102.12 1344.77,1102.12 L1314.98,1102.12 L1314.98,1049.49 C1314.98,1047.5 1313.99,1045.85 1312.67,1045.19 L1308.7,1043.2 C1308.03,1042.87 1307.7,1042.87 1307.04,1042.87 C1305.72,1042.87 1304.39,1042.87 1303.4,1043.86 L1273.28,1071.34 C1272.29,1072.33 1271.95,1073.65 1271.95,1074.98 L1271.95,1102.12 L1233.56,1102.12 C1233.56,1102.12 1270.63,1062.4 1309.69,1010.1 C1311.01,1008.45 1311.34,1006.79 1311.34,1005.47 C1311.34,1003.81 1310.68,1002.49 1310.35,1002.16 L1303.07,994.874 C1302.08,994.212 1301.08,993.55 1299.76,993.55 C1297.77,993.55 1253.09,993.55 1250.44,993.55 C1248.12,993.55 1246.47,995.536 1246.14,997.522 C1246.14,997.522 1244.48,1022.02 1235.88,1048.83 C1227.27,1075.64 1217.34,1092.19 1208.73,1104.44 C1208.73,1104.44 1207.74,1106.09 1207.74,1108.08 C1207.74,1108.74 1207.74,1109.4 1208.07,1110.06 C1209.06,1112.38 1211.38,1116.02 1211.38,1116.02 C1211.38,1116.02 1212.04,1118.01 1215.02,1118.01 L1271.95,1118.01 "/>
<path class="NoteDot" d="M6715.04,1035.12 C6715.04,1044.38 6722.32,1051.67 6731.59,1051.67 C6740.86,1051.67 6748.14,1044.38 6748.14,1035.12 C6748.14,1025.85 6740.86,1018.57 6731.59,1018.57 C6722.32,1018.57 6715.04,1025.85 6715.04,1035.12"/>
<path class="NoteDot" d="M1480.59,2523.31 C1480.59,2532.57 1487.87,2539.86 1497.14,2539.86 C1506.4,2539.86 1513.69,2532.57 1513.69,2523.31 C1513.69,2514.04 1506.4,2506.76 1497.14,2506.76 C1487.87,2506.76 1480.59,2514.04 1480.59,2523.31"/>
<path class="NoteDot" d="M8289.23,2771.34 C8289.23,2780.61 8296.51,2787.89 8305.78,2787.89 C8315.05,2787.89 8322.33,2780.61 8322.33,2771.34 C8322.33,2762.07 8315.05,2754.79 8305.78,2754.79 C8296.51,2754.79 8289.23,2762.07 8289.23,2771.34"/>
<path class="NoteDot" d="M4265.53,1737.87 C4265.53,1747.14 4272.81,1754.42 4282.08,1754.42 C4291.35,1754.42 4298.63,1747.14 4298.63,1737.87 C4298.63,1728.6 4291.35,1721.32 4282.08,1721.32 C4272.81,1721.32 4265.53,1728.6 4265.53,1737.87"/>
</svg>
