<?xml version="1.0" encoding="UTF-8" standalone="no"?>
<svg
   width="680.53827"
   height="185.98003"
   version="1.2"
   id="svg211"
   xmlns="http://www.w3.org/2000/svg"
   xmlns:svg="http://www.w3.org/2000/svg"
   xmlns:rdf="http://www.w3.org/1999/02/22-rdf-syntax-ns#"
   xmlns:cc="http://creativecommons.org/ns#"
   xmlns:dc="http://purl.org/dc/elements/1.1/">
  <defs
     id="defs211" />
  <title
     id="title1">air_I</title>
  <desc
     id="desc1">Generated by MuseScore Studio 4.7.3</desc>
  <path
     id="path211"
     class="NoteDot"
     d="m 583.47771,165.03751 c 0,0.7416 0.5832,1.32399 1.32401,1.32399 0.74161,0 1.32401,-0.58239 1.32401,-1.32399 0,-0.74161 -0.5824,-1.32402 -1.32401,-1.32402 -0.74081,0 -1.32401,0.58241 -1.32401,1.32402 M 482.43633,88.973868 c 0,0.741605 0.5824,1.324007 1.32402,1.324007 0.74081,0 1.324,-0.582402 1.324,-1.324007 0,-0.741604 -0.58319,-1.324008 -1.324,-1.324008 -0.74162,0 -1.32402,0.582404 -1.32402,1.324008 M 116.53505,19.524591 c 0,0.741445 0.5824,1.324007 1.32401,1.324007 0.7416,0 1.324,-0.582562 1.324,-1.324007 0,-0.741444 -0.5824,-1.324007 -1.324,-1.324007 -0.74161,0 -1.32401,0.582563 -1.32401,1.324007 m 147.62404,76.063713 c 0,0.740806 0.5824,1.32401 1.32401,1.32401 0.74161,0 1.32402,-0.583204 1.32402,-1.32401 0,-0.741603 -0.58241,-1.324006 -1.32402,-1.324006 -0.74161,0 -1.32401,0.582403 -1.32401,1.324006 M 102.06137,88.973868 c 0,0.741605 0.5832,1.324007 1.324,1.324007 0.74161,0 1.32401,-0.582402 1.32401,-1.324007 0,-0.741604 -0.5824,-1.324008 -1.32401,-1.324008 -0.7408,0 -1.324,0.582404 -1.324,1.324008 m -34.036195,6.614436 c 0,0.740806 0.582403,1.32401 1.324008,1.32401 0.741604,0 1.324008,-0.583204 1.324008,-1.32401 0,-0.741603 -0.582404,-1.324006 -1.324008,-1.324006 -0.741605,0 -1.324008,0.582403 -1.324008,1.324006 m 0,56.220326 c 0,0.7416 0.582403,1.32401 1.324008,1.32401 0.741604,0 1.324008,-0.58241 1.324008,-1.32401 0,-0.74161 -0.582404,-1.32402 -1.324008,-1.32402 -0.741605,0 -1.324008,0.58241 -1.324008,1.32402 M 486.63717,26.139108 c 0,0.740805 0.58239,1.32401 1.32399,1.32401 0.74161,0 1.32401,-0.583205 1.32401,-1.32401 0,-0.741602 -0.5824,-1.324006 -1.32401,-1.324006 -0.7416,0 -1.32399,0.582404 -1.32399,1.324006 M 338.0755,158.42306 c 0,0.74161 0.58241,1.32401 1.32402,1.32401 0.74081,0 1.32402,-0.5824 1.32402,-1.32401 0,-0.74159 -0.58321,-1.324 -1.32402,-1.324 -0.74161,0 -1.32402,0.58241 -1.32402,1.324 m 43.93146,0 c 0,0.74161 0.58241,1.32401 1.32402,1.32401 0.74161,0 1.324,-0.5824 1.324,-1.32401 0,-0.74159 -0.58239,-1.324 -1.324,-1.324 -0.74161,0 -1.32402,0.58241 -1.32402,1.324 M 283.77361,26.139108 c 0,0.740805 0.5832,1.32401 1.32401,1.32401 0.7416,0 1.32402,-0.583205 1.32402,-1.32401 0,-0.741602 -0.58242,-1.324006 -1.32402,-1.324006 -0.74081,0 -1.32401,0.582404 -1.32401,1.324006 m 35.6242,-6.614517 c 0,0.741445 0.58321,1.324007 1.32401,1.324007 0.74159,0 1.32399,-0.582562 1.32399,-1.324007 0,-0.741444 -0.5824,-1.324007 -1.32399,-1.324007 -0.7408,0 -1.32401,0.582563 -1.32401,1.324007 m 1.67841,54.553191 12.59447,-1.653608 v 3.335219 l -12.59447,1.653609 v -3.33522 m 218.27644,-1.653608 12.59448,1.653608 v 3.33522 l -12.59448,-1.653609 v -3.335219 m -396.70946,71.108406 16.0641,-1.65361 v 3.32402 l -16.0641,1.65361 v -3.32402 M 54.856301,30.320734 c -0.212002,0.582402 -0.741604,2.488815 -2.038413,2.488815 -1.721609,0 -2.092011,-1.059208 -3.522419,-1.059208 -0.212001,0 -0.423203,0.02719 -0.688005,0.08 0,0 0.661604,-1.006403 3.468821,-1.880008 2.806416,-0.874407 3.521621,-2.251214 3.521621,-3.840022 0,-1.112008 -0.503205,-3.309941 -4.501627,-3.309941 -3.998423,0 -4.740028,2.409935 -4.740028,3.627542 0,1.085605 0.900806,1.960011 1.986413,1.960011 1.085604,0 1.95921,-0.874406 1.95921,-1.960011 0,-0.740805 -0.529603,-1.562409 -1.218406,-1.827211 -0.0792,-0.0264 -0.184801,-0.158401 -0.184801,-0.2912 0,-0.158403 0.132,-0.344002 0.608802,-0.476003 0.132802,-0.0536 0.503204,-0.132803 0.900005,-0.132803 1.509609,0 1.800812,0.927207 1.800812,2.277614 0,3.097617 -3.680822,3.760021 -5.216031,6.064034 0,0 -0.794405,1.112008 -0.794405,2.356015 0,1.244807 0.635205,1.324007 0.952805,1.324007 0.424004,0 0.873607,-0.344002 0.873607,-0.820804 0,-0.105601 -0.0264,-0.211202 -0.07921,-0.344003 -0.158401,-0.370402 -0.212,-0.661603 -0.212,-0.873606 0,-0.08 0,-0.1592 0.0264,-0.238401 0.02719,-0.1592 0.2384,-0.424002 0.874405,-0.424002 0.768003,0 1.059205,0.900806 1.536008,1.588809 0.476004,0.688804 1.217608,1.112007 2.064813,1.112007 0.848003,0 1.986411,-0.608804 2.463212,-1.588809 0.476003,-0.979205 1.085608,-2.965616 1.085608,-3.680022 0,-0.344801 -0.212002,-0.503201 -0.450403,-0.503201 -0.185602,0 -0.370403,0.1056 -0.476802,0.370402 M 53.173889,15.951771 c 2.118413,-0.820885 2.251213,-2.197853 2.251213,-2.674496 v -0.1324 c 0,-0.238321 -0.0792,-3.2305784 -4.634426,-3.2305784 -4.554426,0 -4.421626,3.2305784 -4.421626,3.2305784 h 0.0264 l -0.0264,0.05296 c 0,0.953285 0.768006,1.694729 1.720811,1.694729 0.953605,0 1.69521,-0.741444 1.69521,-1.694729 0,-0.767925 -0.583205,-1.509369 -1.324008,-1.66825 l 0.0792,-0.07944 c 0.370404,-0.264801 0.873606,-0.397201 1.376808,-0.397201 1.112007,0 2.304014,0.662003 2.304014,2.091931 0,1.668249 -1.244807,1.906572 -1.562409,1.95953 -0.3176,0.05296 -1.80081,0.158882 -2.118413,0.158882 -0.317602,0 -0.344002,0.370723 -0.344002,0.370723 v 0.529602 c 0,0 0.0528,0.291283 0.344002,0.317762 0.450403,0.02649 1.059208,0.02649 1.906413,0.158882 1.164805,0.15888 1.774409,0.953284 1.774409,2.806894 0,1.774171 -1.192007,2.250813 -2.304014,2.250813 -0.741604,0 -1.429608,-0.21184 -1.72081,-0.42368 0.873606,-0.05296 1.58881,-0.820887 1.58881,-1.694731 0,-0.953286 -0.741604,-1.72121 -1.695209,-1.72121 -0.952805,0 -1.720811,0.767924 -1.720811,1.72121 0,2.171373 1.985611,3.257059 3.945624,3.257059 2.541614,0 5.29603,-0.873846 5.29603,-3.760181 0,-1.933052 -1.324009,-2.753936 -2.489616,-3.124658 h 0.0528 M 37.706602,11.851188 c 0,2.091932 -1.085606,3.204099 -2.621614,4.422185 l 0.0792,-5.16363 c 0.0528,-0.238321 0.450401,-1.006246 1.509609,-1.006246 0.952805,0 1.032805,0.900327 1.032805,1.456409 v 0.291282 M 37.3882,8.8059702 c -1.324006,0 -2.091212,0.8208848 -2.224012,0.9797657 l 0.1056,-8.5001285 c 0,-0.2118413 -0.1584,-0.37072218 -0.370401,-0.37072218 h -0.317603 c -0.212,0 -0.371202,0.15888088 -0.371202,0.37072218 l 0.132801,15.9145706 c 0,0.211841 0.1592,0.370722 0.370403,0.370722 0.0536,0 0.1592,-0.02649 0.212,-0.05296 2.277613,-1.138647 4.660828,-3.310019 4.660828,-6.037475 0,-1.376968 -0.636005,-2.6744948 -2.198414,-2.6744948 M 30.351361,21.772524 c 0,2.092172 -1.085606,3.204179 -2.621615,4.422584 l 0.07921,-5.164028 c 0.0528,-0.238322 0.450403,-1.006246 1.509608,-1.006246 0.953608,0 1.032807,0.900326 1.032807,1.456409 v 0.291281 m -0.317602,-3.045217 c -1.324006,0 -2.092012,0.820885 -2.224813,0.979765 l 0.106402,-8.500128 c 0,-0.211841 -0.159203,-0.370721 -0.371204,-0.370721 h -0.317601 c -0.212001,0 -0.370402,0.15888 -0.370402,0.370721 l 0.132001,15.91457 c 0,0.212003 0.159201,0.370403 0.371201,0.370403 0.0528,0 0.158401,-0.0264 0.211201,-0.0528 2.277613,-1.138408 4.660827,-3.309619 4.660827,-6.037314 0,-1.376969 -0.635203,-2.674496 -2.197612,-2.674496 m 7.672843,62.572916 c 0,2.092011 -1.085606,3.204019 -2.621613,4.422426 l 0.0792,-5.16403 c 0.0528,-0.237601 0.450402,-1.005606 1.509609,-1.005606 0.952806,0 1.032805,0.900006 1.032805,1.45601 v 0.2912 m -0.318411,-3.04482 c -1.324006,0 -2.091212,0.820804 -2.224012,0.979205 l 0.1056,-8.500048 c 0,-0.211201 -0.1584,-0.370403 -0.370401,-0.370403 h -0.317603 c -0.212,0 -0.371202,0.159202 -0.371202,0.370403 l 0.132801,15.91449 c 0,0.212001 0.1592,0.371204 0.370403,0.371204 0.0536,0 0.1592,-0.0264 0.212,-0.0528 2.277614,-1.139208 4.660828,-3.310421 4.660828,-6.037637 0,-1.376807 -0.636005,-2.674414 -2.198414,-2.674414 m -7.03684,12.966482 c 0,2.092011 -1.085606,3.204018 -2.621615,4.422425 l 0.07921,-5.16403 c 0.0528,-0.2384 0.450403,-1.006404 1.509608,-1.006404 0.953608,0 1.032807,0.900804 1.032807,1.456807 v 0.291202 M 30.03377,88.176267 c -1.324006,0 -2.092012,0.820804 -2.224813,0.980006 l 0.106402,-8.500048 c 0,-0.212002 -0.159203,-0.370403 -0.371204,-0.370403 h -0.317601 c -0.212001,0 -0.370402,0.158401 -0.370402,0.370403 l 0.132001,15.914489 c 0,0.212003 0.159201,0.370403 0.371201,0.370403 0.0528,0 0.158401,-0.0264 0.211201,-0.0528 2.277613,-1.138408 4.660827,-3.309619 4.660827,-6.037635 0,-1.376806 -0.635203,-2.674415 -2.197612,-2.674415 m 7.672843,62.573153 c 0,2.09203 -1.085606,3.20402 -2.621613,4.42243 l 0.0792,-5.16402 c 0.0528,-0.2376 0.450402,-1.00561 1.509609,-1.00561 0.952806,0 1.032805,0.90001 1.032805,1.45601 v 0.29119 m -0.318402,-3.04481 c -1.324006,0 -2.091212,0.82081 -2.224012,0.97921 l 0.1056,-8.50005 c 0,-0.2112 -0.1584,-0.3704 -0.370401,-0.3704 h -0.317603 c -0.212,0 -0.371202,0.1592 -0.371202,0.3704 l 0.132801,15.91449 c 0,0.21201 0.1592,0.37119 0.370403,0.37119 0.0536,0 0.1592,-0.0264 0.212,-0.0527 2.277614,-1.13921 4.660828,-3.31042 4.660828,-6.03765 0,-1.37679 -0.636005,-2.67441 -2.198414,-2.67441 m -7.036839,12.96648 c 0,2.09201 -1.085606,3.20401 -2.621615,4.42243 l 0.07921,-5.16404 c 0.0528,-0.2384 0.450403,-1.00641 1.509608,-1.00641 0.953608,0 1.032807,0.90081 1.032807,1.45682 v 0.2912 m -0.317602,-3.04562 c -1.324006,0 -2.092011,0.8208 -2.224813,0.98001 l 0.106402,-8.50005 c 0,-0.21201 -0.159203,-0.37041 -0.371204,-0.37041 h -0.317601 c -0.212001,0 -0.370402,0.1584 -0.370402,0.37041 l 0.132001,15.9145 c 0,0.21199 0.159201,0.3704 0.371201,0.3704 0.0528,0 0.158401,-0.0264 0.211201,-0.0528 2.277614,-1.13841 4.660827,-3.30962 4.660827,-6.03763 0,-1.37682 -0.635203,-2.67442 -2.197612,-2.67442 M 16.082399,34.900759 c -0.529602,0.106402 -1.032726,0.159201 -1.535848,0.159201 -3.786662,0 -7.017241,-2.648016 -7.017241,-6.646438 0,-3.231218 2.2772932,-6.117234 4.607547,-8.129726 0.450162,-0.397201 0.873844,-0.767926 1.271047,-1.165126 0.238321,1.429928 0.423682,2.674494 0.609043,3.760179 -2.409693,0.714646 -4.0514628,3.257061 -4.0514628,5.745876 0,1.853609 1.4564078,4.396024 3.5748208,4.396024 0.21184,0 0.450162,-0.105601 0.450162,-0.344003 0,-0.238401 -0.264801,-0.371201 -0.582563,-0.582402 -1.032726,-0.636004 -1.615289,-1.324009 -1.615289,-2.621617 0,-1.615208 1.191606,-2.912815 2.753936,-3.284017 l 1.535848,8.712049 M 13.752145,7.6792439 c 0.238322,-1.0592062 1.45641,-3.8396221 2.833377,-3.8396221 0.397202,0 1.032726,1.2975276 1.032726,3.1246579 0,2.7539356 -2.038971,4.8193873 -3.866103,6.6200383 -0.15888,-1.059206 -0.291281,-2.091932 -0.291281,-3.204098 0,-0.9797663 0.07943,-1.8800916 0.291281,-2.7009761 m 6.090436,22.3230871 c 0,1.880012 -0.767925,3.812823 -2.648016,4.580827 -0.556083,-3.177619 -1.271047,-7.388044 -1.456408,-8.552849 2.383213,0 4.104424,1.615209 4.104424,3.972022 M 8.191314,43.030406 c 0,1.74721 1.3504875,4.051223 4.925309,4.051223 1.244566,0 2.330252,-0.317602 3.283538,-0.900004 1.429928,-1.006407 1.80065,-2.754418 1.80065,-4.422427 0,-1.032805 -0.158881,-2.224013 -0.423682,-3.733621 -0.07944,-0.529603 -0.238322,-1.324008 -0.397203,-2.356814 2.595055,-0.847205 4.528106,-3.548019 4.528106,-6.276035 0,-3.998422 -2.833376,-6.699239 -6.699477,-6.699239 -0.264802,-1.588809 -0.529604,-3.151138 -0.767926,-4.634026 2.806897,-2.939297 4.739949,-6.249315 4.739949,-10.4596596 0,-2.4096938 -0.741446,-4.369225 -1.165128,-5.3225103 C 17.379926,0.92680529 16.612002,0 16.13536,0 c -0.185362,0 -1.006246,0.31776181 -1.880092,1.3504878 -1.694729,2.0124915 -2.171372,5.4019508 -2.171372,7.6262834 0,1.4299278 0.132401,2.7274548 0.582563,5.6932328 -0.02648,0.02648 -1.403449,1.429928 -1.959531,1.880091 -2.4096936,2.250812 -5.7461923,5.454911 -5.7461923,10.750621 0,4.952029 4.3162645,8.844851 9.2415733,8.844851 0.767924,0 1.482887,-0.0792 2.09193,-0.185602 0.503124,2.542414 0.794406,4.396025 0.794406,5.799233 0,2.753616 -1.403449,4.210425 -4.077944,4.210425 -0.635523,0 -1.191606,-0.132802 -1.244567,-0.132802 -0.02648,-0.0264 -0.07943,-0.05281 -0.07943,-0.0792 0,-0.0528 0.05296,-0.0792 0.132401,-0.105601 1.244567,-0.185599 2.489134,-1.244807 2.489134,-2.939216 0,-1.430409 -1.085686,-2.939216 -3.071698,-2.939216 -1.8536101,0 -3.0452168,1.508807 -3.0452168,3.256818 m 7.8910848,61.319554 c -0.529602,0.10641 -1.032726,0.15921 -1.535848,0.15921 -3.786662,0 -7.0172408,-2.64802 -7.0172408,-6.646452 0,-3.231218 2.2772932,-6.116834 4.6075468,-8.129646 0.450163,-0.397602 0.873845,-0.768004 1.271047,-1.164807 0.238321,1.42961 0.423682,2.674415 0.609044,3.760023 -2.409694,0.714403 -4.0514636,3.256819 -4.0514636,5.745633 0,1.853609 1.4564086,4.396029 3.5748206,4.396029 0.21184,0 0.450162,-0.1056 0.450162,-0.344 0,-0.2384 -0.264801,-0.3712 -0.582563,-0.5824 -1.032726,-0.63601 -1.615289,-1.32401 -1.615289,-2.621625 0,-1.615209 1.191606,-2.912817 2.753936,-3.284018 l 1.535848,8.712053 M 13.752145,77.128201 c 0.238322,-1.059206 1.45641,-3.839223 2.833377,-3.839223 0.397202,0 1.032726,1.297606 1.032726,3.124818 0,2.753616 -2.038971,4.819227 -3.866103,6.620039 -0.15888,-1.059207 -0.291281,-2.092014 -0.291281,-3.204018 0,-0.980007 0.07943,-1.880811 0.291281,-2.701616 m 6.090436,22.323326 c 0,1.880013 -0.767925,3.812823 -2.648016,4.580833 -0.556083,-3.17762 -1.271047,-7.388049 -1.456408,-8.552855 2.383213,0 4.104424,1.615208 4.104424,3.972022 M 8.191314,112.4796 c 0,1.74721 1.3504875,4.05123 4.925309,4.05123 1.244566,0 2.330252,-0.3176 3.283538,-0.90001 1.429928,-1.00641 1.80065,-2.75441 1.80065,-4.42242 0,-1.03281 -0.158881,-2.22402 -0.423682,-3.73363 -0.07944,-0.5296 -0.238322,-1.324 -0.397203,-2.3568 2.595055,-0.84721 4.528106,-3.54803 4.528106,-6.276047 0,-3.998421 -2.833376,-6.699237 -6.699477,-6.699237 -0.264802,-1.588809 -0.529604,-3.151218 -0.767926,-4.633626 2.806897,-2.940018 4.739949,-6.249637 4.739949,-10.460061 0,-2.409612 -0.741446,-4.368824 -1.165128,-5.32243 -0.635524,-1.350408 -1.403448,-2.277614 -1.88009,-2.277614 -0.185362,0 -1.006246,0.318404 -1.880092,1.35041 -1.694729,2.01281 -2.171372,5.402429 -2.171372,7.626443 0,1.430409 0.132401,2.728015 0.582563,5.693632 -0.02648,0.0264 -1.403449,1.429609 -1.959531,1.880011 -2.4096936,2.250412 -5.7461923,5.454431 -5.7461923,10.750461 0,4.952038 4.3162645,8.844848 9.2415733,8.844848 0.767924,0 1.482887,-0.0792 2.09193,-0.18561 0.503124,2.54243 0.794406,4.39604 0.794406,5.79925 0,2.75361 -1.403449,4.21042 -4.077944,4.21042 -0.635523,0 -1.191606,-0.1328 -1.244567,-0.1328 -0.02648,-0.0264 -0.07943,-0.0528 -0.07943,-0.0792 0,-0.0528 0.05296,-0.0792 0.132401,-0.1056 1.244567,-0.18559 2.489134,-1.2448 2.489134,-2.93921 0,-1.4304 -1.085686,-2.93922 -3.071698,-2.93922 -1.8536101,0 -3.0452168,1.50882 -3.0452168,3.25682 m 7.8910848,61.31955 c -0.529602,0.1064 -1.032726,0.15921 -1.535848,0.15921 -3.786662,0 -7.0172408,-2.64802 -7.0172408,-6.64645 0,-3.23121 2.2772932,-6.11683 4.6075468,-8.12964 0.450163,-0.39759 0.873845,-0.768 1.271047,-1.16481 0.238321,1.42961 0.423682,2.67442 0.609044,3.76003 -2.409694,0.71439 -4.0514636,3.25681 -4.0514636,5.74563 0,1.8536 1.4564086,4.39602 3.5748206,4.39602 0.21184,0 0.450162,-0.1056 0.450162,-0.34399 0,-0.2384 -0.264801,-0.37121 -0.582563,-0.58241 -1.032726,-0.636 -1.615289,-1.32401 -1.615289,-2.62161 0,-1.61521 1.191606,-2.91282 2.753936,-3.28402 l 1.535848,8.71204 M 13.75215,146.57744 c 0.238322,-1.0592 1.45641,-3.83922 2.833377,-3.83922 0.397202,0 1.032726,1.2976 1.032726,3.12482 0,2.75361 -2.038971,4.81922 -3.866103,6.62004 -0.15888,-1.05921 -0.291281,-2.09202 -0.291281,-3.20402 0,-0.98001 0.07944,-1.88082 0.291281,-2.70162 m 6.090436,22.32332 c 0,1.88002 -0.767925,3.81283 -2.648016,4.58083 -0.556083,-3.17761 -1.271047,-7.38804 -1.456408,-8.55284 2.383213,0 4.104424,1.6152 4.104424,3.97201 M 8.191314,181.92879 c 0,1.74722 1.3504875,4.05123 4.925309,4.05123 1.244566,0 2.330252,-0.3176 3.283538,-0.9 1.429928,-1.0064 1.80065,-2.75442 1.80065,-4.42242 0,-1.03281 -0.158881,-2.22402 -0.423682,-3.73363 -0.07944,-0.5296 -0.238322,-1.32401 -0.397203,-2.35681 2.595055,-0.84721 4.528106,-3.54802 4.528106,-6.27603 0,-3.99843 -2.833376,-6.69925 -6.699477,-6.69925 -0.264802,-1.58881 -0.529604,-3.15121 -0.767926,-4.63362 2.806897,-2.94002 4.739949,-6.24964 4.739949,-10.46006 0,-2.40962 -0.741446,-4.36883 -1.165128,-5.32243 -0.635524,-1.35041 -1.403448,-2.27761 -1.88009,-2.27761 -0.185362,0 -1.006246,0.3184 -1.880092,1.3504 -1.694729,2.01281 -2.171372,5.40243 -2.171372,7.62644 0,1.43042 0.132401,2.72801 0.582563,5.69363 -0.02648,0.0264 -1.403449,1.42961 -1.959531,1.88003 -2.4096936,2.2504 -5.7461923,5.45442 -5.7461923,10.75044 0,4.95204 4.3162645,8.84486 9.2415733,8.84486 0.767924,0 1.482887,-0.0792 2.09193,-0.18561 0.503124,2.54243 0.794406,4.39604 0.794406,5.79925 0,2.75361 -1.403449,4.21042 -4.077944,4.21042 -0.635523,0 -1.191606,-0.13281 -1.244567,-0.13281 -0.02648,-0.0264 -0.07943,-0.0528 -0.07943,-0.0792 0,-0.0527 0.05296,-0.0792 0.132401,-0.1056 1.244567,-0.18561 2.489134,-1.2448 2.489134,-2.93921 0,-1.43041 -1.085686,-2.93922 -3.071698,-2.93922 -1.8536101,0 -3.0452168,1.50881 -3.0452168,3.25681 M 406.75031,90.085875 c 0,1.138404 0.8216,2.409613 2.96641,2.409613 2.75361,0 5.64003,-2.250413 5.64003,-4.580828 0,-1.562406 -1.324,-2.436013 -2.96561,-2.436013 -2.56882,0 -5.64083,2.171213 -5.64083,4.607228 m 16.74008,76.063625 c 0,1.13841 0.82082,2.40962 2.96642,2.40962 2.75362,0 5.64004,-2.25041 5.64004,-4.58083 0,-1.5624 -1.32401,-2.43601 -2.96561,-2.43601 -2.56883,0 -5.64085,2.17121 -5.64085,4.60722 m -51.40429,-2.1424 c -0.87361,0 -1.05919,-0.7144 -1.05919,-0.95281 0,-1.29761 4.44882,-3.57522 5.69362,-3.57522 0.63521,0 1.05921,0.3712 1.05921,0.9536 0,1.32401 -4.47522,3.57443 -5.69364,3.57443 m 3.65443,-5.77204 c -2.56801,0 -5.64003,2.14482 -5.64003,4.60724 0,1.13839 0.8208,2.40961 2.96562,2.40961 2.75442,0 5.64003,-2.25042 5.64003,-4.58083 0,-1.56241 -1.324,-2.43602 -2.96562,-2.43602 M 352.57399,27.251115 c 0,1.138408 0.82082,2.409615 2.96563,2.409615 2.75441,0 5.64083,-2.251214 5.64083,-4.580826 0,-1.56241 -1.32401,-2.436416 -2.96643,-2.436416 -2.568,0 -5.64003,2.171614 -5.64003,4.607627 m -78.72044,4.472025 c -0.87441,0 -1.05921,-0.715202 -1.05921,-0.952805 0,-1.297608 4.44882,-3.575221 5.69283,-3.575221 0.63601,0 1.05921,0.370403 1.05921,0.953608 0,1.324005 -4.47523,3.574418 -5.69283,3.574418 m 3.65441,-5.772832 c -2.56881,0 -5.64083,2.144811 -5.64083,4.608027 0,1.138405 0.8208,2.409613 2.96563,2.409613 2.75441,0 5.64083,-2.251212 5.64083,-4.580827 0,-1.562407 -1.32401,-2.436813 -2.96563,-2.436813 m 50.64671,134.750372 c -0.87361,0 -1.05922,-0.7152 -1.05922,-0.95361 0,-1.29761 4.44882,-3.57522 5.69283,-3.57522 0.63601,0 1.0592,0.37121 1.0592,0.95361 0,1.324 -4.47521,3.57522 -5.69281,3.57522 m 3.65441,-5.77283 c -2.56882,0 -5.64084,2.1448 -5.64084,4.60722 0,1.13841 0.8208,2.40961 2.96642,2.40961 2.75362,0 5.64004,-2.25041 5.64004,-4.58082 0,-1.56242 -1.324,-2.43601 -2.96562,-2.43601 M 371.30851,23.943896 c 0,1.138406 0.82079,2.409614 2.96642,2.409614 2.7536,0 5.64002,-2.250413 5.64002,-4.580986 0,-1.56233 -1.324,-2.436173 -2.96561,-2.436173 -2.56881,0 -5.64083,2.171371 -5.64083,4.607545 m 18.73531,6.614439 c 0,1.138405 0.82079,2.409613 2.96561,2.409613 2.75362,0 5.64003,-2.251212 5.64003,-4.580827 0,-1.562407 -1.32402,-2.436813 -2.96561,-2.436813 -2.56883,0 -5.64003,2.172013 -5.64003,4.608027 m 19.02409,3.307217 c 0,1.138407 0.8208,2.409614 2.96564,2.409614 2.75441,0 5.64001,-2.251211 5.64001,-4.581624 0,-1.562409 -1.324,-2.436014 -2.96561,-2.436014 -2.56801,0 -5.64004,2.171211 -5.64004,4.608024 M 293.60645,166.1495 c 0,1.13841 0.82082,2.40962 2.96563,2.40962 2.75441,0 5.64003,-2.25041 5.64003,-4.58083 0,-1.5624 -1.32401,-2.43601 -2.96563,-2.43601 -2.56801,0 -5.64003,2.17121 -5.64003,4.60722 M 427.80242,37.171974 c 0,1.139205 0.8208,2.410411 2.96561,2.410411 2.75443,0 5.64084,-2.251213 5.64084,-4.581626 0,-1.562408 -1.32401,-2.436014 -2.9656,-2.436014 -2.56883,0 -5.64085,2.171214 -5.64085,4.607229 M 270.50232,162.8423 c 0,1.13839 0.82161,2.40961 2.96643,2.40961 2.7536,0 5.64003,-2.25042 5.64003,-4.58083 0,-1.56241 -1.32401,-2.43602 -2.96561,-2.43602 -2.56882,0 -5.64085,2.17122 -5.64085,4.60724 M 446.53774,33.865552 c 0,1.138407 0.8208,2.409614 2.9656,2.409614 2.75363,0 5.64005,-2.251211 5.64005,-4.581624 0,-1.562409 -1.32402,-2.436014 -2.96561,-2.436014 -2.56884,0 -5.64004,2.171211 -5.64004,4.608024 M 247.399,159.53507 c 0,1.13841 0.8208,2.40961 2.96561,2.40961 2.75442,0 5.64003,-2.25041 5.64003,-4.58082 0,-1.56242 -1.32399,-2.43601 -2.96562,-2.43601 -2.56801,0 -5.64002,2.17121 -5.64002,4.60722 M 476.71631,31.72314 c -0.87362,0 -1.05922,-0.715202 -1.05922,-0.952805 0,-1.297608 4.44885,-3.575221 5.69365,-3.575221 0.63518,0 1.0592,0.370403 1.0592,0.953608 0,1.324005 -4.47521,3.574418 -5.69363,3.574418 m 3.65442,-5.772832 c -2.56883,0 -5.64003,2.144811 -5.64003,4.608027 0,1.138405 0.82079,2.409613 2.9656,2.409613 2.75362,0 5.64004,-2.251212 5.64004,-4.580827 0,-1.562407 -1.32402,-2.436813 -2.96561,-2.436813 M 224.29485,166.1495 c 0,1.13841 0.82161,2.40962 2.96644,2.40962 2.75361,0 5.64002,-2.25041 5.64002,-4.58083 0,-1.5624 -1.324,-2.43601 -2.96561,-2.43601 -2.56882,0 -5.64085,2.17121 -5.64085,4.60722 m 222.29969,-3.3072 c 0,1.13839 0.82079,2.40961 2.96561,2.40961 2.75362,0 5.64003,-2.25042 5.64003,-4.58083 0,-1.56241 -1.32402,-2.43602 -2.96561,-2.43602 -2.56881,0 -5.64003,2.17122 -5.64003,4.60724 m -245.403,0 c 0,1.13839 0.8208,2.40961 2.96561,2.40961 2.75441,0 5.64003,-2.25042 5.64003,-4.58083 0,-1.56241 -1.324,-2.43602 -2.96561,-2.43602 -2.56803,0 -5.64003,2.17122 -5.64003,4.60724 M 512.34051,25.108702 c -0.8736,0 -1.0592,-0.714403 -1.0592,-0.952804 0,-1.297687 4.4488,-3.574981 5.69364,-3.574981 0.63519,0 1.05918,0.370723 1.05918,0.953285 0,1.324009 -4.47522,3.5745 -5.69362,3.5745 m 3.65443,-5.772351 c -2.56883,0 -5.64003,2.144892 -5.64003,4.607545 0,1.138406 0.8208,2.409614 2.9656,2.409614 2.75362,0 5.64004,-2.250413 5.64004,-4.580986 0,-1.56233 -1.32401,-2.436173 -2.96561,-2.436173 M 178.0874,159.53507 c 0,1.13841 0.8216,2.40961 2.96642,2.40961 2.75361,0 5.64003,-2.25041 5.64003,-4.58082 0,-1.56242 -1.32401,-2.43601 -2.96561,-2.43601 -2.56882,0 -5.64084,2.17121 -5.64084,4.60722 M 538.45665,23.943896 c 0,1.138406 0.8208,2.409614 2.96563,2.409614 2.75442,0 5.64083,-2.250413 5.64083,-4.580986 0,-1.56233 -1.32401,-2.436173 -2.96642,-2.436173 -2.56802,0 -5.64004,2.171371 -5.64004,4.607545 m 28.19297,3.307219 c 0,1.138408 0.82081,2.409615 2.96562,2.409615 2.75442,0 5.64083,-2.251214 5.64083,-4.580826 0,-1.56241 -1.32401,-2.436416 -2.96562,-2.436416 -2.56881,0 -5.64083,2.171614 -5.64083,4.607627 m 18.73531,-3.307219 c 0,1.138406 0.82079,2.409614 2.96562,2.409614 2.7536,0 5.64002,-2.250413 5.64002,-4.580986 0,-1.56233 -1.324,-2.436173 -2.96561,-2.436173 -2.56881,0 -5.64003,2.171371 -5.64003,4.607545 M 150.10883,162.8423 c 0,1.13839 0.82082,2.40961 2.96562,2.40961 2.75362,0 5.64004,-2.25042 5.64004,-4.58083 0,-1.56241 -1.32401,-2.43602 -2.96562,-2.43602 -2.56881,0 -5.64004,2.17122 -5.64004,4.60724 M 604.11944,30.558335 c 0,1.138405 0.82079,2.409613 2.96561,2.409613 2.75362,0 5.64003,-2.251212 5.64003,-4.580827 0,-1.562407 -1.32402,-2.436813 -2.96561,-2.436813 -2.56883,0 -5.64003,2.172013 -5.64003,4.608027 m -360.44527,3.307217 c 0,1.138407 0.8208,2.409614 2.96561,2.409614 2.75442,0 5.64084,-2.251211 5.64084,-4.581624 0,-1.562409 -1.32399,-2.436014 -2.96642,-2.436014 -2.568,0 -5.64003,2.171211 -5.64003,4.608024 M 134.70636,166.1495 c 0,1.13841 0.82081,2.40962 2.96561,2.40962 2.75361,0 5.64004,-2.25041 5.64004,-4.58083 0,-1.5624 -1.32402,-2.43601 -2.96562,-2.43601 -2.56882,0 -5.64003,2.17121 -5.64003,4.60722 M 623.14354,33.865552 c 0,1.138407 0.8208,2.409614 2.96562,2.409614 2.75442,0 5.64084,-2.251211 5.64084,-4.581624 0,-1.562409 -1.32401,-2.436014 -2.96642,-2.436014 -2.56802,0 -5.64004,2.171211 -5.64004,4.608024 M 102.03657,157.39345 c -0.87361,0 -1.05921,-0.7152 -1.05921,-0.9536 0,-1.2976 4.44882,-3.57442 5.69283,-3.57442 0.63601,0 1.05921,0.3704 1.05921,0.95281 0,1.32401 -4.47523,3.57521 -5.69283,3.57521 m 3.65442,-5.77282 c -2.56882,0 -5.64083,2.14481 -5.64083,4.60722 0,1.13921 0.8208,2.40962 2.96641,2.40962 2.75362,0 5.64004,-2.25042 5.64004,-4.58083 0,-1.56241 -1.32401,-2.43601 -2.96562,-2.43601 M 641.87805,37.171974 c 0,1.139205 0.8208,2.410411 2.9664,2.410411 2.75362,0 5.64004,-2.251213 5.64004,-4.581626 0,-1.562408 -1.32399,-2.436014 -2.9656,-2.436014 -2.56882,0 -5.64084,2.171214 -5.64084,4.607229 M 469.69786,169.45673 c 0,1.13841 0.82081,2.4096 2.96642,2.4096 2.75362,0 5.64004,-2.25121 5.64004,-4.58082 0,-1.56241 -1.32401,-2.4368 -2.96564,-2.4368 -2.5688,0 -5.64082,2.17201 -5.64082,4.60802 M 58.10432,157.39345 c -0.873607,0 -1.059207,-0.7152 -1.059207,-0.9536 0,-1.2976 4.448825,-3.57442 5.693632,-3.57442 0.635205,0 1.059206,0.3704 1.059206,0.95281 0,1.32401 -4.475226,3.57521 -5.693631,3.57521 m 3.65442,-5.77282 c -2.568815,0 -5.640032,2.14481 -5.640032,4.60722 0,1.13921 0.820804,2.40962 2.965616,2.40962 2.753617,0 5.640032,-2.25042 5.640032,-4.58083 0,-1.56241 -1.324006,-2.43601 -2.965616,-2.43601 M 660.61336,33.865552 c 0,1.138407 0.8208,2.409614 2.9656,2.409614 2.75362,0 5.64005,-2.251211 5.64005,-4.581624 0,-1.562409 -1.32402,-2.436014 -2.96562,-2.436014 -2.56883,0 -5.64003,2.171211 -5.64003,4.608024 m -435.6737,3.306422 c 0,1.139205 0.82082,2.410411 2.96563,2.410411 2.75362,0 5.64003,-2.251213 5.64003,-4.581626 0,-1.562408 -1.32401,-2.436014 -2.96563,-2.436014 -2.5688,0 -5.64003,2.171214 -5.64003,4.607229 M 492.80201,172.76395 c 0,1.13841 0.8208,2.40961 2.9656,2.40961 2.75361,0 5.64004,-2.25121 5.64004,-4.58162 0,-1.56162 -1.32402,-2.43603 -2.96561,-2.43603 -2.56884,0 -5.64003,2.17122 -5.64003,4.60804 M 206.20517,33.865552 c 0,1.138407 0.8208,2.409614 2.96561,2.409614 2.75362,0 5.64003,-2.251211 5.64003,-4.581624 0,-1.562409 -1.32401,-2.436014 -2.96561,-2.436014 -2.56883,0 -5.64003,2.171211 -5.64003,4.608024 m -19.02492,-3.307217 c 0,1.138405 0.8208,2.409613 2.96562,2.409613 2.75443,0 5.64084,-2.251212 5.64084,-4.580827 0,-1.562407 -1.32401,-2.436813 -2.96563,-2.436813 -2.56881,0 -5.64083,2.172013 -5.64083,4.608027 M 58.10432,101.17234 c -0.873607,0 -1.059207,-0.71521 -1.059207,-0.95281 0,-1.297605 4.448825,-3.575219 5.693632,-3.575219 0.635205,0 1.059206,0.370402 1.059206,0.953607 0,1.324007 -4.475226,3.574422 -5.693631,3.574422 m 3.65442,-5.772836 c -2.568815,0 -5.640032,2.144813 -5.640032,4.608026 0,1.13841 0.820804,2.40961 2.965616,2.40961 2.753617,0 5.640032,-2.25121 5.640032,-4.580822 0,-1.562409 -1.324006,-2.436814 -2.965616,-2.436814 m 454.14658,80.670866 c 0,1.13919 0.82082,2.41041 2.96642,2.41041 2.75363,0 5.64004,-2.25121 5.64004,-4.58163 0,-1.5624 -1.324,-2.43601 -2.96562,-2.43601 -2.56882,0 -5.64084,2.17121 -5.64084,4.60723 M 660.82696,90.085875 c 0,1.138404 0.8208,2.409613 2.96561,2.409613 2.75442,0 5.64004,-2.250413 5.64004,-4.580828 0,-1.562406 -1.32401,-2.436013 -2.96563,-2.436013 -2.56802,0 -5.64002,2.171213 -5.64002,4.607228 M 92.14131,94.5579 c -0.874405,0 -1.059207,-0.714404 -1.059207,-0.952806 0,-1.297606 4.448827,-3.57522 5.692833,-3.57522 0.636003,0 1.059206,0.371202 1.059206,0.953604 0,1.32401 -4.475224,3.574422 -5.692832,3.574422 m 3.65442,-5.772033 c -2.568813,0 -5.640831,2.144812 -5.640831,4.607226 0,1.138407 0.820804,2.409613 2.965616,2.409613 2.754415,0 5.640834,-2.250413 5.640834,-4.580825 0,-1.562409 -1.32401,-2.436014 -2.965619,-2.436014 m 547.13113,-2.007212 c 0,1.139206 0.8208,2.409613 2.9664,2.409613 2.75362,0 5.64003,-2.250411 5.64003,-4.580825 0,-1.562409 -1.324,-2.436013 -2.96561,-2.436013 -2.56882,0 -5.64082,2.171211 -5.64082,4.607225 M 168.44574,23.943896 c 0,1.138406 0.82081,2.409614 2.96562,2.409614 2.75441,0 5.64003,-2.250413 5.64003,-4.580986 0,-1.56233 -1.324,-2.436173 -2.96562,-2.436173 -2.56801,0 -5.64003,2.171371 -5.64003,4.607545 m 456.58181,59.527539 c 0,1.13921 0.8208,2.410415 2.96561,2.410415 2.75362,0 5.64003,-2.251212 5.64003,-4.581627 0,-1.562409 -1.32401,-2.436013 -2.96561,-2.436013 -2.5688,0 -5.64003,2.171213 -5.64003,4.607225 m -491.3772,13.228877 c 0,1.138407 0.8208,2.409614 2.96562,2.409614 2.7536,0 5.64003,-2.251213 5.64003,-4.580825 0,-1.562409 -1.32401,-2.436816 -2.96562,-2.436816 -2.56882,0 -5.64003,2.172013 -5.64003,4.608027 m 473.47711,-9.921657 c 0,1.139206 0.8208,2.409613 2.9656,2.409613 2.75442,0 5.64083,-2.250411 5.64083,-4.580825 0,-1.562409 -1.32398,-2.436013 -2.9664,-2.436013 -2.56801,0 -5.64003,2.171211 -5.64003,4.607225 m -455.57781,6.614438 c 0,1.138407 0.8208,2.409613 2.96563,2.409613 2.75441,0 5.64082,-2.250413 5.64082,-4.580825 0,-1.562409 -1.32402,-2.436014 -2.96641,-2.436014 -2.56802,0 -5.64004,2.171211 -5.64004,4.607226 m 437.6785,-3.307218 c 0,1.138404 0.82079,2.409613 2.96563,2.409613 2.75359,0 5.64003,-2.250413 5.64003,-4.580828 0,-1.562406 -1.32402,-2.436013 -2.96563,-2.436013 -2.56881,0 -5.64003,2.171213 -5.64003,4.607228 m -419.7784,9.921655 c 0,1.13841 0.8208,2.40961 2.96562,2.40961 2.75362,0 5.64003,-2.25121 5.64003,-4.580822 0,-1.562409 -1.32402,-2.436814 -2.96562,-2.436814 -2.5688,0 -5.64003,2.172014 -5.64003,4.608026 m 401.87828,-6.614437 c 0,1.138407 0.82083,2.409613 2.96564,2.409613 2.75442,0 5.64003,-2.250413 5.64003,-4.580825 0,-1.562409 -1.32401,-2.436014 -2.96562,-2.436014 -2.56802,0 -5.64005,2.171211 -5.64005,4.607226 m -382.85417,9.921657 c 0,1.13841 0.8208,2.40961 2.96562,2.40961 2.75442,0 5.64083,-2.25121 5.64083,-4.58162 0,-1.561612 -1.32401,-2.436015 -2.96642,-2.436015 -2.56802,0 -5.64003,2.171215 -5.64003,4.608025 m 17.9001,3.30642 c 0,1.13921 0.82082,2.41042 2.96562,2.41042 2.75362,0 5.64004,-2.25122 5.64004,-4.58164 0,-1.5624 -1.32401,-2.43601 -2.96562,-2.43601 -2.56882,0 -5.64004,2.17121 -5.64004,4.60723 m 17.8993,-3.30642 c 0,1.13841 0.82079,2.40961 2.96563,2.40961 2.75441,0 5.64083,-2.25121 5.64083,-4.58162 0,-1.561612 -1.32402,-2.436015 -2.96562,-2.436015 -2.56882,0 -5.64084,2.171215 -5.64084,4.608025 m 319.07542,-6.614438 c 0,1.138407 0.8208,2.409614 2.96561,2.409614 2.75441,0 5.64084,-2.251213 5.64084,-4.580825 0,-1.562409 -1.32399,-2.436816 -2.96642,-2.436816 -2.56801,0 -5.64003,2.172013 -5.64003,4.608027 m -289.10965,4.472028 c -0.87439,0 -1.0592,-0.71521 -1.0592,-0.95281 0,-1.297605 4.44802,-3.575219 5.69285,-3.575219 0.63519,0 1.05919,0.370402 1.05919,0.953607 0,1.324007 -4.47523,3.574422 -5.69284,3.574422 m 3.65362,-5.772836 c -2.56801,0 -5.64003,2.144813 -5.64003,4.608026 0,1.13841 0.82082,2.40961 2.96563,2.40961 2.75441,0 5.64082,-2.25121 5.64082,-4.580822 0,-1.562409 -1.324,-2.436814 -2.96642,-2.436814 M 149.71124,27.251115 c 0,1.138408 0.8208,2.409615 2.96562,2.409615 2.75361,0 5.64002,-2.251214 5.64002,-4.580826 0,-1.56241 -1.324,-2.436416 -2.96561,-2.436416 -2.56881,0 -5.64003,2.171614 -5.64003,4.607627 m 381.70457,66.141978 c 0,1.138407 0.82082,2.409613 2.96562,2.409613 2.75362,0 5.64004,-2.250413 5.64004,-4.580825 0,-1.562409 -1.32402,-2.436014 -2.96563,-2.436014 -2.56881,0 -5.64003,2.171211 -5.64003,4.607226 m 7.59365,79.370857 c 0,1.13841 0.82081,2.40961 2.96561,2.40961 2.75442,0 5.64003,-2.25121 5.64003,-4.58162 0,-1.56162 -1.324,-2.43603 -2.9656,-2.43603 -2.56804,0 -5.64004,2.17122 -5.64004,4.60804 M 506.55167,91.251482 c -0.8736,0 -1.05921,-0.715205 -1.05921,-0.953607 0,-1.297607 4.44883,-3.57522 5.69364,-3.57522 0.6352,0 1.05919,0.371201 1.05919,0.953605 0,1.324008 -4.47521,3.575222 -5.69362,3.575222 m 3.65444,-5.772835 c -2.56883,0 -5.64004,2.144813 -5.64004,4.607228 0,1.138404 0.82079,2.409613 2.96561,2.409613 2.75362,0 5.64003,-2.250413 5.64003,-4.580828 0,-1.562406 -1.32401,-2.436013 -2.9656,-2.436013 M 106.61419,25.108702 c -0.8736,0 -1.05921,-0.714403 -1.05921,-0.952804 0,-1.297687 4.44883,-3.574981 5.69364,-3.574981 0.63519,0 1.0592,0.370723 1.0592,0.953285 0,1.324009 -4.47522,3.5745 -5.69363,3.5745 m 3.65442,-5.772351 c -2.56881,0 -5.64003,2.144892 -5.64003,4.607545 0,1.138406 0.8208,2.409614 2.96562,2.409614 2.75362,0 5.64003,-2.250413 5.64003,-4.580986 0,-1.56233 -1.32401,-2.436173 -2.96562,-2.436173 M 573.55766,170.62153 c -0.87441,0 -1.0592,-0.7152 -1.0592,-0.9528 0,-1.2976 4.44881,-3.57522 5.69283,-3.57522 0.63599,0 1.05919,0.3704 1.05919,0.9536 0,1.32402 -4.47522,3.57442 -5.69282,3.57442 m 3.65443,-5.77282 c -2.56883,0 -5.64083,2.1448 -5.64083,4.60802 0,1.13841 0.8208,2.4096 2.9656,2.4096 2.75442,0 5.64084,-2.25121 5.64084,-4.58082 0,-1.56241 -1.32402,-2.4368 -2.96561,-2.4368 M 472.51548,91.251482 c -0.8736,0 -1.05921,-0.715205 -1.05921,-0.953607 0,-1.297607 4.44882,-3.57522 5.69284,-3.57522 0.63599,0 1.0592,0.371201 1.0592,0.953605 0,1.324008 -4.47443,3.575222 -5.69283,3.575222 m 3.65443,-5.772835 c -2.56883,0 -5.64083,2.144813 -5.64083,4.607228 0,1.138404 0.8216,2.409613 2.96641,2.409613 2.75362,0 5.64003,-2.250413 5.64003,-4.580828 0,-1.562406 -1.32402,-2.436013 -2.96561,-2.436013 M 313.13856,96.700312 c 0,1.138407 0.82163,2.409614 2.96644,2.409614 2.75361,0 5.64003,-2.251213 5.64003,-4.580825 0,-1.562409 -1.32401,-2.436816 -2.96563,-2.436816 -2.56882,0 -5.64084,2.172013 -5.64084,4.608027 m 11.93368,-3.307219 c 0,1.138407 0.8208,2.409613 2.96562,2.409613 2.75361,0 5.64003,-2.250413 5.64003,-4.580825 0,-1.562409 -1.32401,-2.436014 -2.96561,-2.436014 -2.56883,0 -5.64004,2.171211 -5.64004,4.607226 m 27.97936,-3.307218 c 0,1.138404 0.8208,2.409613 2.96562,2.409613 2.7536,0 5.64003,-2.250413 5.64003,-4.580828 0,-1.562406 -1.32401,-2.436013 -2.96562,-2.436013 -2.56881,0 -5.64003,2.171213 -5.64003,4.607228 m 89.4989,6.614437 c 0,1.138407 0.82082,2.409614 2.96563,2.409614 2.75362,0 5.64004,-2.251213 5.64004,-4.580825 0,-1.562409 -1.32402,-2.436816 -2.96563,-2.436816 -2.56881,0 -5.64004,2.172013 -5.64004,4.608027 m -71.59959,-3.307219 c 0,1.138407 0.8208,2.409613 2.9656,2.409613 2.75442,0 5.64083,-2.250413 5.64083,-4.580825 0,-1.562409 -1.32399,-2.436014 -2.96561,-2.436014 -2.5688,0 -5.64082,2.171211 -5.64082,4.607226 m 53.69948,0 c 0,1.138407 0.82082,2.409613 2.96563,2.409613 2.75442,0 5.64085,-2.250413 5.64085,-4.580825 0,-1.562409 -1.32402,-2.436014 -2.96644,-2.436014 -2.56802,0 -5.64004,2.171211 -5.64004,4.607226 m -35.79938,3.307219 c 0,1.138407 0.8208,2.409614 2.96561,2.409614 2.75362,0 5.64003,-2.251213 5.64003,-4.580825 0,-1.562409 -1.32401,-2.436816 -2.96561,-2.436816 -2.56883,0 -5.64003,2.172013 -5.64003,4.608027 m -79.37326,-71.59161 c -0.87441,0 -1.0592,-0.714403 -1.0592,-0.952804 0,-1.297687 4.44882,-3.574981 5.69282,-3.574981 0.63602,0 1.05922,0.370723 1.05922,0.953285 0,1.324009 -4.47523,3.5745 -5.69284,3.5745 m 3.65443,-5.772351 c -2.56882,0 -5.64085,2.144892 -5.64085,4.607545 0,1.138406 0.82081,2.409614 2.96561,2.409614 2.75442,0 5.64085,-2.250413 5.64085,-4.580986 0,-1.56233 -1.324,-2.436173 -2.96561,-2.436173 m -24.85694,81.835989 c -0.87362,0 -1.05923,-0.71521 -1.05923,-0.95281 0,-1.297605 4.44883,-3.575219 5.69365,-3.575219 0.63519,0 1.0592,0.370402 1.0592,0.953607 0,1.324007 -4.47523,3.574422 -5.69362,3.574422 m 3.65441,-5.772836 c -2.56882,0 -5.64002,2.144813 -5.64002,4.608026 0,1.13841 0.8208,2.40961 2.9656,2.40961 2.75362,0 5.64004,-2.25121 5.64004,-4.580822 0,-1.562409 -1.32401,-2.436814 -2.96562,-2.436814 m -21.42686,67.442036 v 18.7312 h 0.66157 v -18.7312 z M 396.78742,74.092127 v 20.437772 h 0.66157 V 74.092127 Z m 53.69951,0 v 20.437772 h 0.66159 V 74.092127 Z m -79.53559,19.300109 v 18.731354 h 0.66157 V 93.392236 Z M 321.0759,75.701825 v 18.828074 h 0.66155 V 75.701825 Z m 31.97534,14.38321 v 20.384955 h 0.66155 V 90.085035 Z m 226.45723,55.110005 v 22.09121 h 0.66155 V 145.19504 Z M 104.62826,23.943089 v 18.731354 h 0.66155 V 23.943089 Z M 157.64761,4.6426682 V 25.080752 h 0.66172 V 4.6426682 Z M 333.00862,74.135407 v 17.087289 h 0.66171 V 74.135407 Z M 470.5294,90.085035 v 20.384955 h 0.66172 V 90.085035 Z m 34.0363,0 v 20.384955 h 0.66155 V 90.085035 Z m 42.38102,58.416415 v 22.09201 h 0.66156 V 148.50145 Z M 168.44532,23.943089 v 18.731354 h 0.66158 V 23.943089 Z m 125.78072,51.80264 v 22.091373 h 0.66158 V 75.745729 Z M 539.3523,74.135407 v 17.087289 h 0.66155 V 74.135407 Z m 11.93365,1.566418 v 18.828074 h 0.66157 V 75.701825 Z m -291.09603,0.0439 v 22.091373 h 0.66156 V 75.745729 Z M 195.11751,6.2962711 V 28.387963 h 0.66157 V 6.2962711 Z M 523.84252,151.80867 v 22.0912 h 0.66173 v -22.0912 z M 214.14153,9.6033212 V 31.695165 h 0.66173 V 9.6033212 Z m 18.06903,69.4488338 v 22.092165 h 0.66155 V 79.052155 Z m 0.66561,-66.141785 v 22.091222 h 0.66156 V 12.91037 Z m 267.86309,135.59108 v 22.09201 h 0.66157 V 148.50145 Z M 214.31045,82.359358 v 22.091382 h 0.66156 V 82.359358 Z M 251.61144,9.6033212 V 31.695165 h 0.66157 V 9.6033212 Z M 571.32762,93.392236 v 18.731354 h 0.66158 V 93.392236 Z M 196.41112,79.052155 v 22.092165 h 0.66156 V 79.052155 Z m 392.81661,11.03288 v 20.384955 h 0.66157 V 90.085035 Z M 177.38617,75.745729 v 22.091373 h 0.66156 V 75.745729 Z M 607.12783,86.777823 V 108.8164 h 0.66158 V 86.777823 Z m -455.57775,6.614413 v 18.731354 h 0.66156 V 93.392236 Z M 625.02715,83.47062 v 22.03856 h 0.66157 V 83.47062 Z M 141.58674,74.092127 v 20.437772 h 0.66173 V 74.092127 Z m 336.04833,71.102913 v 22.09121 h 0.66171 V 145.19504 Z M 279.8044,6.2962711 V 28.387963 h 0.66157 V 6.2962711 Z M 642.92726,86.777823 V 108.8164 h 0.66156 V 86.777823 Z m 17.89932,3.307212 v 20.384955 h 0.66156 V 90.085035 Z M 90.155355,93.392236 v 18.731354 h 0.661562 V 93.392236 Z M 446.59412,162.84154 v 18.7312 h 0.66155 v -18.7312 z m -15.1665,-19.30012 v 20.43763 h 0.66157 V 143.54142 Z M 64.055208,75.745729 v 22.091373 h 0.661565 V 75.745729 Z M 307.49175,23.943089 v 18.731354 h 0.66156 V 23.943089 Z M 360.51128,4.6426682 V 25.080752 h 0.66156 V 4.6426682 Z m 9.5888,158.1988718 v 18.7312 h 0.66158 v -18.7312 z m 1.20875,-138.898451 v 18.731354 h 0.66174 V 23.943089 Z M 56.118292,156.22712 v 22.03842 h 0.661563 V 156.22712 Z M 668.54975,9.6033212 V 31.695165 h 0.66171 V 9.6033212 Z M 326.16856,159.53434 v 20.38479 h 0.66173 v -20.38479 z m -226.11799,-3.30722 v 22.03842 h 0.66156 V 156.22712 Z M 649.81526,12.91037 v 22.091222 h 0.66158 V 12.91037 Z M 397.98025,6.2962711 V 28.387963 h 0.66156 V 6.2962711 Z M 142.64284,145.16066 v 18.81839 h 0.66157 V 145.16066 Z M 631.08079,9.6033212 V 31.695165 h 0.66155 V 9.6033212 Z M 158.04527,143.57503 v 17.09681 h 0.66158 V 143.57503 Z M 612.05582,6.2962711 V 28.387963 h 0.66173 V 6.2962711 Z M 417.00518,9.6033212 V 31.695165 h 0.66156 V 9.6033212 Z m 168.3794,14.3397678 v 18.731354 h 0.66158 V 23.943089 Z M 435.73967,12.91037 v 22.091222 h 0.66157 V 12.91037 Z M 574.58687,4.6426682 V 25.080752 h 0.66157 V 4.6426682 Z M 301.54374,143.54142 v 20.43763 h 0.66158 V 143.54142 Z M 454.47415,9.6033212 V 31.695165 h 0.66157 V 9.6033212 Z M 178.08773,159.53434 v 20.38479 h 0.66172 V 159.53434 Z M 538.45619,23.943089 v 18.731354 h 0.66172 V 23.943089 Z M 201.19115,162.84154 v 18.7312 h 0.66157 v -18.7312 z M 510.35447,23.943089 v 18.731354 h 0.66158 V 23.943089 Z M 232.23209,143.54142 v 20.43763 h 0.66158 v -20.43763 z m 15.16649,15.99292 v 20.38479 h 0.66159 V 159.53434 Z M 482.66713,6.2962711 V 28.387963 h 0.66156 V 6.2962711 Z M 424.65007,93.392236 v 18.731354 h 0.66156 V 93.392236 Z m -17.89932,-3.307201 v 20.384955 h 0.66158 V 90.085035 Z m 80.00641,79.606895 2.35681,-0.4768 v 4.36962 l -2.35681,0.5032 v -4.39602 m 4.10483,-0.82081 c 0.1592,-0.0264 0.2912,-0.212 0.2912,-0.3704 v -1.5624 c 0,-0.21201 -0.1592,-0.37121 -0.3704,-0.37121 h -0.0535 l -0.87361,0.1856 v -3.94562 h -0.74161 v 4.10483 l -2.35681,0.476 v -3.73362 h -0.74078 v 3.89282 l -1.03282,0.212 c -0.1592,0.0264 -0.2912,0.21199 -0.2912,0.37039 v 1.53602 c 0,0.21201 0.1584,0.37041 0.37039,0.37041 h 0.0793 l 0.87441,-0.18481 v 4.36882 l -1.03282,0.212 c -0.1592,0.0264 -0.2912,0.212 -0.2912,0.3704 v 1.53602 c 0,0.212 0.1584,0.3712 0.37039,0.3712 h 0.0793 l 0.87441,-0.1856 v 3.94561 h 0.74078 v -4.10481 l 2.35682,-0.4768 v 3.73442 h 0.7416 v -3.89282 l 1.00641,-0.18561 c 0.15921,-0.0264 0.29121,-0.212 0.29121,-0.3704 v -1.56241 c 0,-0.212 -0.15921,-0.3712 -0.3704,-0.3712 h -0.0535 l -0.8736,0.1856 v -4.36883 l 1.0064,-0.1856 M 200.16037,30.793537 l 2.35682,-0.476805 v 4.369625 l -2.35682,0.503204 v -4.396024 m 4.10484,-0.820806 c 0.1584,-0.0264 0.29119,-0.212001 0.29119,-0.371203 V 28.03992 c 0,-0.212002 -0.15919,-0.371201 -0.3712,-0.371201 h -0.0528 l -0.8736,0.185599 v -3.945622 h -0.74161 v 4.104023 l -2.35682,0.476804 V 24.7559 h -0.7416 v 3.892823 l -1.03281,0.212002 c -0.15839,0.0264 -0.29121,0.2112 -0.29121,0.370403 v 1.536009 c 0,0.211999 0.15921,0.3704 0.37122,0.3704 h 0.0792 l 0.87361,-0.184801 v 4.368826 l -1.03281,0.211999 c -0.15839,0.0264 -0.29121,0.212003 -0.29121,0.370403 v 1.536009 c 0,0.212003 0.15921,0.370403 0.37122,0.370403 h 0.0792 l 0.87361,-0.1848 v 3.94562 h 0.74159 v -4.104823 l 2.35683,-0.476801 v 3.73362 h 0.74161 V 36.83117 l 1.0064,-0.185601 c 0.15841,-0.0264 0.2912,-0.212002 0.2912,-0.370403 v -1.562409 c 0,-0.211999 -0.1592,-0.371202 -0.37121,-0.371202 h -0.0528 l -0.87361,0.185603 v -4.368827 l 1.00641,-0.1856 m 218.10044,8.656049 v -4.342424 l 3.07202,-0.874405 v 4.369623 l -3.07202,0.847206 m 3.65442,-7.414442 c -0.0528,-0.0528 -0.132,-0.07921 -0.21201,-0.07921 -0.0264,0 -0.0792,0.0264 -0.10558,0.0264 l -3.33683,0.926406 v -4.633627 h -0.74081 v 13.107276 c 0,0.212001 0.1584,0.344801 0.37041,0.344801 h 0.1056 l 3.33682,-0.927205 v 4.634425 h 0.7152 V 31.505541 c 0,-0.1056 -0.0535,-0.238403 -0.1328,-0.291203 M 200.93712,108.07797 v -4.34241 l 3.07123,-0.87441 v 4.36962 l -3.07123,0.8472 m 3.65364,-7.41443 c -0.0528,-0.0528 -0.132,-0.0792 -0.2112,-0.0792 -0.0264,0 -0.08,0.0264 -0.10641,0.0264 l -3.33603,0.92639 v -4.633625 h -0.74158 v 13.107275 c 0,0.212 0.15838,0.34479 0.37039,0.34479 h 0.1064 l 3.33602,-0.92719 v 4.63442 h 0.7152 v -13.10808 c 0,-0.1056 -0.0527,-0.23839 -0.13279,-0.29119 m 14.91207,-62.03481 v -4.342424 l 3.07123,-0.874405 v 4.369623 l -3.07123,0.847206 m 3.65443,-7.414442 c -0.0535,-0.0528 -0.1328,-0.07921 -0.21199,-0.07921 -0.0264,0 -0.0793,0.0264 -0.10642,0.0264 l -3.33602,0.926406 v -4.633627 h -0.74159 v 13.107276 c 0,0.212001 0.15918,0.344801 0.37039,0.344801 h 0.1064 l 3.33603,-0.927205 v 4.634425 h 0.7152 V 31.505541 c 0,-0.1056 -0.0527,-0.238403 -0.132,-0.291203 m 179.86663,-0.420801 2.35601,-0.476805 v 4.369625 l -2.35601,0.503204 v -4.396024 m 4.10402,-0.820806 c 0.15919,-0.0264 0.29119,-0.212001 0.29119,-0.371203 V 28.03992 c 0,-0.212002 -0.1584,-0.371201 -0.37039,-0.371201 h -0.0528 l -0.87441,0.185599 v -3.945622 h -0.74161 v 4.104023 l -2.356,0.476804 V 24.7559 h -0.74161 v 3.892823 l -1.03282,0.212002 c -0.15918,0.0264 -0.29119,0.2112 -0.29119,0.370403 v 1.536009 c 0,0.211999 0.15841,0.3704 0.37039,0.3704 h 0.0793 l 0.8744,-0.184801 v 4.368826 l -1.0328,0.211999 c -0.1592,0.0264 -0.29121,0.212003 -0.29121,0.370403 v 1.536009 c 0,0.212003 0.15841,0.370403 0.37039,0.370403 h 0.0793 l 0.8744,-0.1848 v 3.94562 h 0.74162 v -4.104823 l 2.356,-0.476801 v 3.73362 h 0.7416 V 36.83117 l 1.00641,-0.185601 c 0.1592,-0.0264 0.29121,-0.212002 0.29121,-0.370403 v -1.562409 c 0,-0.211999 -0.15841,-0.371202 -0.3704,-0.371202 h -0.0528 l -0.87441,0.185603 v -4.368827 l 1.00641,-0.1856 M 182.43,100.24273 l 2.35681,-0.476802 v 4.369632 l -2.35681,0.5032 v -4.39603 m 4.10402,-0.820803 c 0.15921,-0.0264 0.2912,-0.212001 0.2912,-0.370402 v -1.562409 c 0,-0.212001 -0.15839,-0.371201 -0.37039,-0.371201 h -0.0528 l -0.87441,0.185599 v -3.945622 h -0.7408 v 4.104824 L 182.43,97.938719 v -3.733622 h -0.7416 v 3.892823 l -1.03281,0.212001 c -0.1592,0.0264 -0.2912,0.212001 -0.2912,0.370403 v 1.536006 c 0,0.21201 0.15839,0.37041 0.3704,0.37041 h 0.08 l 0.87361,-0.18481 v 4.36883 l -1.03281,0.21199 c -0.1592,0.0264 -0.2912,0.212 -0.2912,0.37041 v 1.53601 c 0,0.21201 0.15839,0.37121 0.3704,0.37121 h 0.08 l 0.87361,-0.1856 v 3.94561 h 0.7416 v -4.10482 l 2.35682,-0.4768 v 3.73442 h 0.7408 v -3.89282 l 1.00641,-0.18561 c 0.1592,-0.0264 0.2912,-0.212 0.2912,-0.3704 v -1.5624 c 0,-0.212 -0.1584,-0.37121 -0.3704,-0.37121 h -0.0528 l -0.87441,0.18561 v -4.368831 l 1.00641,-0.185602 m 323.93464,78.105243 v -4.34242 l 3.07202,-0.87441 v 4.36963 l -3.07202,0.8472 m 3.65443,-7.41444 c -0.0528,-0.0528 -0.132,-0.0792 -0.21201,-0.0792 -0.0264,0 -0.0792,0.0264 -0.1056,0.0264 l -3.33682,0.9264 v -4.63362 h -0.74079 v 13.10727 c 0,0.21199 0.15838,0.34479 0.37039,0.34479 h 0.1056 l 3.33682,-0.9272 v 4.63443 h 0.7152 v -13.10813 c 0,-0.10559 -0.0527,-0.23839 -0.13279,-0.2912 m 102.97667,-139.319193 2.35682,-0.476805 v 4.369625 l -2.35682,0.503204 v -4.396024 m 4.10401,-0.820806 c 0.1592,-0.0264 0.2912,-0.212001 0.2912,-0.371203 V 28.03992 c 0,-0.212002 -0.15841,-0.371201 -0.3704,-0.371201 h -0.0528 l -0.87441,0.185599 v -3.945622 h -0.74079 v 4.104023 l -2.35682,0.476804 V 24.7559 h -0.74161 v 3.892823 l -1.03282,0.212002 c -0.15919,0.0264 -0.29119,0.2112 -0.29119,0.370403 v 1.536009 c 0,0.211999 0.1584,0.3704 0.37039,0.3704 h 0.08 l 0.87361,-0.184801 v 4.368826 l -1.03282,0.211999 c -0.15919,0.0264 -0.29119,0.212003 -0.29119,0.370403 v 1.536009 c 0,0.212003 0.1584,0.370403 0.37039,0.370403 h 0.08 l 0.87361,-0.1848 v 3.94562 h 0.74161 v -4.104823 l 2.35681,-0.476801 v 3.73362 h 0.7408 V 36.83117 l 1.00639,-0.185601 c 0.15921,-0.0264 0.29121,-0.212002 0.29121,-0.370403 v -1.562409 c 0,-0.211999 -0.15841,-0.371202 -0.3704,-0.371202 h -0.0528 l -0.8744,0.185603 v -4.368827 l 1.0064,-0.1856 m 15.23769,8.656049 v -4.342424 l 3.07202,-0.874405 v 4.369623 l -3.07202,0.847206 m 3.65443,-7.414442 c -0.0528,-0.0528 -0.132,-0.07921 -0.21201,-0.07921 -0.0264,0 -0.0792,0.0264 -0.10559,0.0264 l -3.33683,0.926406 v -4.633627 h -0.7408 v 13.107276 c 0,0.212001 0.15841,0.344801 0.37042,0.344801 h 0.10559 l 3.33681,-0.927205 v 4.634425 h 0.71521 V 31.505541 c 0,-0.1056 -0.0528,-0.238403 -0.1328,-0.291203 M 82.899602,144.36833 c -8.546534,0 -17.093161,1.90539 -21.415434,5.79596 a 0.16520095,0.16520095 0 0 0 -0.02469,0.19797 0.16520095,0.16520095 0 0 0 -0.0031,0.015 0.16520095,0.16520095 0 0 0 0.0091,0.002 0.16520095,0.16520095 0 0 0 0.0066,0.0185 0.16520095,0.16520095 0 0 0 0.197971,0.0246 0.16520095,0.16520095 0 0 0 0.015,0.003 c 4.197922,-2.73595 12.710851,-4.13892 21.214648,-4.13892 8.503802,0 17.016515,1.40298 21.214023,4.13892 a 0.16521747,0.16521747 0 0 0 0.20063,-0.26109 c -4.321866,-3.89062 -12.868115,-5.79601 -21.414644,-5.79601 z m 0,0.33046 c 7.462195,0 14.922179,1.48988 19.473698,4.41331 -4.653421,-2.11833 -12.058128,-3.15611 -19.473698,-3.15611 -7.415573,0 -14.820447,1.03779 -19.474173,3.15611 4.551834,-2.92343 12.011983,-4.41331 19.474173,-4.41331 z m -21.304864,5.58823 c 8.522449,-7.67125 34.087393,-7.67125 42.609042,0 -8.521649,-5.55443 -34.086593,-5.55443 -42.609042,0 M 256.98044,103.55918 a 0.16520095,0.16520095 0 0 0 -0.0146,0.005 0.16520095,0.16520095 0 0 0 -0.0576,0.0217 0.16520095,0.16520095 0 0 0 -0.046,0.0175 0.16520095,0.16520095 0 0 0 0,0.0103 0.16520095,0.16520095 0 0 0 -0.0194,0.0115 0.16520095,0.16520095 0 0 0 0.0156,0.10531 0.16520095,0.16520095 0 0 0 -0.003,0.10625 c 3.32797,3.55216 9.90562,5.29035 16.47774,5.29035 6.57214,0 13.14957,-1.73818 16.47714,-5.29035 a 0.16521747,0.16521747 0 0 0 -0.21921,-0.24547 c -3.20777,2.38639 -9.73566,3.61767 -16.25793,3.61767 -6.52224,0 -13.05038,-1.23127 -16.25851,-3.61767 a 0.16520095,0.16520095 0 0 0 -0.0478,-0.012 0.16520095,0.16520095 0 0 0 -0.0454,-0.0206 z m 1.45251,1.24705 c 3.58844,1.83726 9.23918,2.73377 14.8993,2.73377 5.66012,0 11.31069,-0.8965 14.89883,-2.73377 -3.48686,2.64328 -9.19037,3.99094 -14.89883,3.99094 -5.70846,0 -11.41212,-1.34766 -14.8993,-3.99094 z m -1.4579,-1.08188 c 6.54324,4.86723 26.17135,4.86723 32.71378,0 -6.54243,6.98404 -26.17054,6.98404 -32.71378,0 M 492.36272,80.002953 c -6.56516,0 -13.12687,1.31168 -16.46087,4.013776 a 0.16520095,0.16520095 0 0 0 -0.0219,0.04047 0.16520095,0.16520095 0 0 0 -0.029,0.05328 0.16520095,0.16520095 0 0 0 0.004,0.06125 0.16520095,0.16520095 0 0 0 0.003,0.04563 0.16520095,0.16520095 0 0 0 0.0121,0.0043 0.16520095,0.16520095 0 0 0 0.008,0.0275 0.16520095,0.16520095 0 0 0 0.10277,0.01078 0.16520095,0.16520095 0 0 0 0.0979,0.03375 c 3.21275,-1.564344 9.75504,-2.372516 16.28447,-2.372516 6.52943,0 13.07187,0.808172 16.28462,2.372516 a 0.16521747,0.16521747 0 0 0 0.17641,-0.276882 c -3.334,-2.702095 -9.89587,-4.013776 -16.46103,-4.013776 z m 0,0.330474 c 5.75819,0 11.51518,1.046382 14.99305,3.081425 -3.57535,-1.226968 -9.27774,-1.824227 -14.99305,-1.824227 -5.71531,0 -11.41755,0.597259 -14.9929,1.824227 3.47788,-2.035043 9.23471,-3.081425 14.9929,-3.081425 z m -16.35681,3.811614 c 6.54244,-5.302431 26.17134,-5.302431 32.71377,0 -6.54243,-3.185619 -26.17133,-3.185619 -32.71377,0 m 200.89435,63.993139 v 27.18421 h 3.63768 v -27.18421 z m -3.6372,0 v 27.18421 h 1.19032 V 148.13818 Z M 124.19196,78.689025 v 27.184065 h 1.19032 V 78.689025 Z m 555.15596,0 v 27.184065 h 1.19034 V 78.689025 Z M 414.03267,148.13818 v 27.18421 h 1.19046 V 148.13818 Z M 343.11554,9.2395686 V 36.423943 h 1.19048 V 9.2395686 Z m 336.23238,0 V 36.423943 h 1.19034 V 9.2395686 Z M 168.62971,148.13818 v 27.18421 h 1.19048 v -27.18421 z m 148.08085,0 v 27.18421 h 1.19047 V 148.13818 Z M 557.19114,9.2395686 V 36.423943 h 1.19048 V 9.2395686 Z m 4.67847,69.4494564 v 27.184065 h 1.19033 V 78.689025 Z m -319.07542,0 v 27.184065 h 1.19032 V 78.689025 Z M 140.25282,9.2395686 V 36.423943 h 1.19033 V 9.2395686 Z M 562.11351,148.13818 v 27.18421 h 1.19048 V 148.13818 Z M 343.5932,78.689025 v 27.184065 h 1.19033 V 78.689025 Z m 117.47817,0 v 27.184065 h 1.19047 V 78.689025 Z M 262.40868,9.2395686 V 36.423943 h 1.19048 V 9.2395686 Z m 202.8635,0 V 36.423943 h 1.19049 V 9.2395686 Z M 0,174.59474 v 0.72718 h 680.53826 v -0.72718 z m 0,-6.61364 v 0.72719 h 680.53826 v -0.72719 z m 0,-6.61441 v 0.72719 h 680.53826 v -0.72719 z m 0,-6.61442 v 0.72719 h 680.53826 v -0.72719 z m 0,-6.61441 v 0.7272 h 680.53826 v -0.7272 z m 0,-42.99227 v 0.72719 h 680.53826 v -0.72719 z m 0,-6.613637 v 0.72719 h 680.53826 v -0.72719 z m 0,-6.614412 v 0.727187 h 680.53826 v -0.727187 z m 0,-6.614567 v 0.727349 H 680.53826 V 85.302974 Z M 0,78.688562 V 79.41575 H 680.53826 V 78.688562 Z M 0,35.696435 v 0.727197 h 680.53826 v -0.727197 z m 0,-6.613781 v 0.727348 h 680.53826 v -0.727348 z m 0,-6.614573 v 0.727192 h 680.53826 v -0.727192 z m 0,-6.6141 v 0.727192 H 680.53826 V 15.853981 Z M 0,9.2397256 V 9.9669169 H 680.53826 V 9.2397256 Z"
     style="stroke-width:0.0800004" />
  <metadata
     id="metadata218">
    <rdf:RDF>
      <cc:Work
         rdf:about="">
        <dc:title>air_I</dc:title>
      </cc:Work>
    </rdf:RDF>
  </metadata>
</svg>
