<?xml version="1.0" encoding="utf-8"?>
<svg xmlns="http://www.w3.org/2000/svg" xmlns:svg="http://www.w3.org/2000/svg" version="1.1" viewBox="0 0 681 120">
	<title>The musical score for Air XXIX</title>
	<path d="M622.56 91.584c0 .742.582 1.325 1.324 1.325.741 0 1.325-.583 1.325-1.325s-.584-1.325-1.325-1.325c-.742 0-1.325.583-1.325 1.325m-2.47-69.496c0 .742.584 1.325 1.325 1.325.743 0 1.325-.583 1.325-1.325s-.582-1.325-1.325-1.325c-.74 0-1.324.583-1.324 1.325M79.059 111.44h20.952v3.31H79.059zm7.916-94.316h18.564v3.31H86.975zm481.567 57.908 20.951 1.655v3.32l-20.951-1.655zM129.103 111.44l61.533-1.655v3.31l-61.533 1.655zM564.341 10.5l21.818-1.654v3.318l-21.818 1.655zM240.7 109.78l20.952 1.655v3.32L240.7 113.1zm199.342-69.495 64.13 4.963v3.32l-64.13-4.964zM298.687 78.343l20.952 1.654v3.32l-20.952-1.655zm-142.02-38.056 21.817 1.654v3.32l-21.818-1.655zm340.86 44.676 20.952 1.655v3.32l-20.952-1.655zm-109.26-43.02 21.818-1.655v3.319l-21.818 1.654zm-48.999 39.714 14.19-.847v3.315l-14.19.848zm0-4.964 27.715-1.654v3.315l-27.715 1.654zM322.163 10.5l21.818-1.654v3.318l-21.818 1.655zm94.883 76.115 20.952 1.654v3.32l-20.952-1.655zM238.654 8.847 260.47 10.5v3.32l-21.817-1.656zM59.604 35.342v1.961h-2.2a.38.38 0 0 0-.37.37v.504c0 .213.185.371.37.371h8.03a.36.36 0 0 0 .371-.37v-.504c0-.212-.16-.37-.371-.37h-2.385v-1.962h2.385c.212 0 .371-.185.371-.397v-.504a.38.38 0 0 0-.371-.371h-2.385v-4.213c0-.159-.08-.292-.185-.345l-.319-.158c-.053-.027-.08-.027-.132-.027-.106 0-.212 0-.291.08l-2.412 2.199a.4.4 0 0 0-.106.291v2.173H56.53s2.967-3.18 6.094-7.366a.58.58 0 0 0 .132-.371.44.44 0 0 0-.079-.265l-.583-.583c-.08-.053-.16-.106-.265-.106h-3.948c-.186 0-.318.159-.344.318 0 0-.133 1.96-.822 4.107-.689 2.146-1.484 3.47-2.173 4.452 0 0-.08.132-.08.291 0 .053 0 .106.027.16.08.185.265.476.265.476s.053.159.291.159zm0-13.16v1.961h-2.2c-.185 0-.37.16-.37.372v.503c0 .212.185.37.37.37h8.03a.36.36 0 0 0 .371-.37v-.503a.363.363 0 0 0-.371-.372h-2.385v-1.96h2.385c.212 0 .371-.186.371-.398v-.503a.38.38 0 0 0-.371-.371h-2.385v-4.214c0-.159-.08-.291-.185-.344l-.319-.16c-.053-.026-.08-.026-.132-.026-.106 0-.212 0-.291.08l-2.412 2.2a.4.4 0 0 0-.106.29v2.174h-3.073s2.967-3.18 6.094-7.367a.58.58 0 0 0 .132-.37.44.44 0 0 0-.079-.266l-.583-.583c-.08-.053-.16-.106-.265-.106h-3.948c-.186 0-.318.16-.344.318 0 0-.133 1.961-.822 4.107s-1.484 3.472-2.173 4.452c0 0-.08.133-.08.292 0 .053 0 .106.027.159.08.185.265.477.265.477s.053.159.291.159zM43.45 76.386l2.358-.477v4.372l-2.358.503zm4.107-.821c.159-.027.292-.213.292-.372V73.63c0-.212-.16-.371-.372-.371h-.053l-.874.186v-3.949h-.742v4.107l-2.358.477v-3.736h-.742v3.896l-1.034.211c-.158.027-.291.212-.291.372v1.537c0 .21.159.37.371.37h.08l.874-.186v4.373l-1.034.212c-.158.027-.291.212-.291.37v1.538c0 .212.159.37.371.37h.08l.874-.184v3.947h.742v-4.107l2.358-.477v3.736h.742v-3.894l1.007-.186c.159-.026.292-.212.292-.371v-1.563a.363.363 0 0 0-.372-.372h-.053l-.874.186V75.75zM36.194 89.623l2.359-.477v4.373l-2.359.503zm4.108-.821c.16-.027.291-.212.291-.371v-1.563a.363.363 0 0 0-.37-.372h-.054l-.874.186v-3.948h-.742v4.107l-2.359.477v-3.737h-.741v3.896l-1.033.212c-.16.026-.292.212-.292.37v1.538c0 .212.159.371.37.371h.08l.875-.186v4.372l-1.033.212c-.16.027-.292.212-.292.372v1.536c0 .212.159.371.37.371h.08l.875-.185v3.948h.741V96.3l2.359-.476v3.736h.742v-3.895l1.007-.186c.16-.026.291-.211.291-.37v-1.564c0-.212-.159-.37-.37-.37h-.054l-.874.184v-4.372zM28.94 79.695l2.358-.477v4.372l-2.358.504zm4.107-.82c.16-.028.292-.213.292-.372v-1.564c0-.212-.16-.37-.371-.37h-.054l-.874.185v-3.948H31.3v4.107l-2.358.477v-3.736h-.742v3.895l-1.033.212c-.16.026-.292.212-.292.371v1.537c0 .211.159.37.371.37h.08l.874-.185v4.373l-1.033.212c-.16.026-.292.211-.292.37v1.537c0 .213.159.371.371.371h.08l.874-.186v3.949h.742v-4.107l2.358-.477v3.736h.742v-3.896l1.007-.185c.16-.026.292-.212.292-.371v-1.563c0-.212-.16-.371-.371-.371h-.054l-.874.186v-4.373zM43.45 6.89l2.358-.477v4.372l-2.358.503zm4.107-.822c.159-.026.292-.212.292-.37V4.133a.363.363 0 0 0-.372-.371h-.053l-.874.185V0h-.742v4.107l-2.358.477V.848h-.742v3.895l-1.034.212c-.158.027-.291.212-.291.371v1.537c0 .212.159.371.371.371h.08l.874-.186v4.373l-1.034.212c-.158.026-.291.212-.291.37v1.538c0 .212.159.37.371.37h.08l.874-.185v3.948h.742v-4.107l2.358-.477v3.736h.742v-3.895l1.006-.185c.16-.027.293-.212.293-.371V10.81a.363.363 0 0 0-.372-.37h-.053l-.874.185V6.254zM36.194 20.127l2.359-.477v4.372l-2.359.504zm4.108-.82c.16-.027.291-.213.291-.372v-1.563a.36.36 0 0 0-.37-.37h-.054l-.874.185v-3.949h-.742v4.108l-2.359.477v-3.737h-.741v3.896l-1.033.212c-.16.026-.292.212-.292.37V20.1c0 .212.159.371.37.371h.08l.875-.185v4.372l-1.033.212c-.16.026-.292.212-.292.371v1.537c0 .212.159.371.37.371h.08l.875-.186v3.949h.741v-4.108l2.359-.476v3.736h.742v-3.896l1.007-.185c.16-.027.291-.212.291-.37v-1.564c0-.213-.159-.371-.37-.371h-.054l-.874.185V19.49zM28.94 10.2l2.358-.477v4.372l-2.358.504zm4.107-.82c.16-.027.292-.213.292-.372V7.443a.36.36 0 0 0-.371-.371h-.054l-.874.186V3.309H31.3v4.108l-2.358.476V4.157h-.742v3.895l-1.033.212c-.16.027-.292.212-.292.371v1.537c0 .212.159.371.371.371h.08l.874-.185v4.372l-1.033.212c-.16.026-.292.212-.292.37v1.538c0 .212.159.37.371.37h.08l.874-.185v3.949h.742v-4.108l2.358-.477v3.737h.742V16.24l1.007-.185c.16-.027.292-.212.292-.371V14.12a.36.36 0 0 0-.371-.371h-.054l-.874.185V9.563zm-16.955 97.594a7.8 7.8 0 0 1-1.537.158c-3.789 0-7.022-2.65-7.022-6.65 0-3.233 2.28-6.122 4.611-8.135.45-.398.875-.768 1.272-1.166.238 1.431.424 2.676.61 3.762-2.412.716-4.055 3.26-4.055 5.75 0 1.855 1.458 4.4 3.577 4.4.212 0 .451-.107.451-.345s-.265-.371-.583-.583c-1.033-.636-1.616-1.325-1.616-2.624 0-1.616 1.192-2.914 2.755-3.285zm-2.332-27.24c.239-1.06 1.458-3.842 2.836-3.842.397 0 1.033 1.298 1.033 3.126 0 2.756-2.04 4.823-3.869 6.625-.159-1.06-.291-2.094-.291-3.207 0-.98.08-1.881.291-2.702m6.095 22.337c0 1.882-.768 3.817-2.65 4.585a877 877 0 0 1-1.457-8.56c2.385 0 4.107 1.617 4.107 3.975m-11.66 13.038c0 1.748 1.352 4.054 4.93 4.054 1.245 0 2.331-.318 3.285-.901 1.431-1.007 1.802-2.756 1.802-4.425 0-1.034-.159-2.226-.424-3.736-.08-.53-.238-1.325-.397-2.359 2.597-.847 4.53-3.55 4.53-6.28 0-4.001-2.834-6.704-6.703-6.704-.265-1.59-.53-3.153-.769-4.637 2.81-2.941 4.744-6.253 4.744-10.467 0-2.41-.742-4.372-1.166-5.326-.636-1.35-1.405-2.279-1.882-2.279-.185 0-1.007.318-1.881 1.352-1.696 2.014-2.173 5.406-2.173 7.631 0 1.43.133 2.73.583 5.697-.026.027-1.404 1.431-1.96 1.882-2.412 2.252-5.75 5.458-5.75 10.758 0 4.955 4.318 8.85 9.247 8.85.768 0 1.484-.08 2.093-.185.504 2.543.795 4.398.795 5.803 0 2.755-1.404 4.213-4.08 4.213-.636 0-1.193-.133-1.246-.133-.026-.026-.08-.052-.08-.079 0-.053.054-.08.133-.106 1.246-.185 2.49-1.245 2.49-2.941 0-1.431-1.085-2.942-3.073-2.942-1.855 0-3.047 1.51-3.047 3.26m7.896-77.631a7.8 7.8 0 0 1-1.537.158c-3.789 0-7.022-2.65-7.022-6.65 0-3.233 2.28-6.122 4.611-8.136.45-.397.875-.768 1.272-1.165.238 1.43.424 2.676.61 3.762-2.412.716-4.055 3.26-4.055 5.75 0 1.855 1.458 4.4 3.577 4.4.212 0 .451-.107.451-.346 0-.238-.265-.37-.583-.583-1.033-.635-1.616-1.324-1.616-2.623 0-1.616 1.192-2.915 2.755-3.285zm-2.332-27.24c.239-1.06 1.458-3.843 2.836-3.843.397 0 1.033 1.299 1.033 3.127 0 2.756-2.04 4.823-3.869 6.624-.159-1.06-.291-2.093-.291-3.206 0-.98.08-1.881.291-2.703m6.095 22.338c0 1.881-.768 3.816-2.65 4.585a877 877 0 0 1-1.457-8.56c2.385 0 4.107 1.617 4.107 3.975M8.196 45.609c0 1.75 1.352 4.055 4.93 4.055 1.245 0 2.331-.318 3.285-.902 1.431-1.006 1.802-2.755 1.802-4.424 0-1.034-.159-2.227-.424-3.736-.08-.53-.238-1.325-.397-2.359 2.597-.848 4.53-3.551 4.53-6.28 0-4.001-2.834-6.704-6.703-6.704-.265-1.59-.53-3.153-.769-4.637 2.81-2.942 4.744-6.254 4.744-10.467 0-2.411-.742-4.372-1.166-5.326-.636-1.352-1.405-2.28-1.882-2.28-.185 0-1.007.319-1.881 1.352-1.696 2.014-2.173 5.406-2.173 7.632 0 1.43.133 2.73.583 5.697-.026.026-1.404 1.43-1.96 1.881-2.412 2.253-5.75 5.459-5.75 10.758 0 4.956 4.318 8.85 9.247 8.85.768 0 1.484-.079 2.093-.184.504 2.543.795 4.398.795 5.803 0 2.755-1.404 4.213-4.08 4.213-.636 0-1.193-.133-1.246-.133-.026-.026-.08-.053-.08-.08 0-.052.054-.08.133-.106 1.246-.185 2.49-1.245 2.49-2.94 0-1.431-1.085-2.942-3.073-2.942-1.855 0-3.047 1.51-3.047 3.259m222.514-15.79c0 1.14.822 2.412 2.968 2.412 2.755 0 5.644-2.253 5.644-4.585 0-1.563-1.325-2.437-2.968-2.437-2.57 0-5.644 2.172-5.644 4.61m198.683 82.734c0 1.14.82 2.411 2.967 2.411 2.756 0 5.645-2.252 5.645-4.584 0-1.563-1.325-2.437-2.969-2.437-2.57 0-5.643 2.172-5.643 4.61M282.488 36.438c0 1.14.82 2.411 2.967 2.411 2.756 0 5.644-2.252 5.644-4.584 0-1.563-1.325-2.437-2.968-2.437-2.57 0-5.643 2.172-5.643 4.61m-83.51-6.618c0 1.139.821 2.411 2.967 2.411 2.757 0 5.644-2.253 5.644-4.585 0-1.563-1.325-2.437-2.968-2.437-2.57 0-5.643 2.172-5.643 4.61m210.126 79.425c0 1.139.821 2.41 2.967 2.41 2.756 0 5.644-2.251 5.644-4.583 0-1.563-1.325-2.438-2.967-2.438-2.571 0-5.644 2.173-5.644 4.61M314.22 33.129c0 1.14.822 2.412 2.968 2.412 2.755 0 5.644-2.252 5.644-4.584 0-1.564-1.325-2.438-2.968-2.438-2.57 0-5.644 2.173-5.644 4.61m64.447 69.497c0 1.14.822 2.412 2.968 2.412 2.756 0 5.644-2.253 5.644-4.585 0-1.563-1.325-2.438-2.968-2.438-2.57 0-5.643 2.173-5.643 4.61m80.48 13.239c0 1.139.82 2.41 2.967 2.41 2.756 0 5.645-2.252 5.645-4.583 0-1.564-1.325-2.439-2.968-2.439-2.57 0-5.645 2.174-5.645 4.612m-100.77-19.856c0 1.139.822 2.41 2.968 2.41 2.756 0 5.644-2.252 5.644-4.584 0-1.563-1.325-2.438-2.968-2.438-2.57 0-5.644 2.173-5.644 4.612M335.377 29.82c0 1.139.82 2.411 2.968 2.411 2.755 0 5.644-2.253 5.644-4.585 0-1.563-1.325-2.437-2.968-2.437-2.57 0-5.644 2.172-5.644 4.61m9.475 72.806c0 1.14.821 2.412 2.967 2.412 2.756 0 5.644-2.253 5.644-4.585 0-1.563-1.325-2.438-2.967-2.438-2.57 0-5.644 2.173-5.644 4.61m11.68-76.114c0 1.14.822 2.412 2.968 2.412 2.756 0 5.644-2.253 5.644-4.585 0-1.563-1.325-2.438-2.968-2.438-2.57 0-5.643 2.173-5.643 4.611m-178.711 0c0 1.14.82 2.412 2.968 2.412 2.755 0 5.644-2.253 5.644-4.585 0-1.563-1.325-2.438-2.968-2.438-2.57 0-5.644 2.173-5.644 4.611m153.503 79.424c0 1.14.821 2.411 2.968 2.411 2.755 0 5.643-2.252 5.643-4.583 0-1.564-1.324-2.438-2.967-2.438-2.57 0-5.644 2.173-5.644 4.61m56.941-79.424c0 1.14.822 2.412 2.968 2.412 2.755 0 5.644-2.253 5.644-4.585 0-1.563-1.325-2.438-2.968-2.438-2.57 0-5.644 2.173-5.644 4.611m-77.232 76.115c0 1.14.822 2.412 2.969 2.412 2.755 0 5.644-2.253 5.644-4.585 0-1.563-1.325-2.438-2.968-2.438-2.57 0-5.645 2.173-5.645 4.61m178.55 3.31c0 1.14.82 2.411 2.967 2.411 2.756 0 5.645-2.252 5.645-4.583 0-1.564-1.325-2.438-2.968-2.438-2.57 0-5.644 2.173-5.644 4.61m20.29 6.62c0 1.138.822 2.41 2.968 2.41 2.755 0 5.644-2.252 5.644-4.584 0-1.563-1.325-2.437-2.968-2.437-2.57 0-5.644 2.172-5.644 4.61m-219.13-13.237c0 1.14.822 2.411 2.968 2.411 2.756 0 5.645-2.252 5.645-4.584 0-1.564-1.325-2.438-2.969-2.438-2.57 0-5.644 2.173-5.644 4.611m118.678-76.115c0 1.139.822 2.411 2.968 2.411 2.755 0 5.644-2.253 5.644-4.584 0-1.564-1.325-2.438-2.968-2.438-2.57 0-5.644 2.173-5.644 4.61m30.62-3.309c0 1.14.822 2.412 2.968 2.412 2.756 0 5.644-2.253 5.644-4.585 0-1.563-1.325-2.437-2.968-2.437-2.57 0-5.644 2.172-5.644 4.61m-283.376 3.31c0 1.139.822 2.411 2.968 2.411 2.755 0 5.644-2.253 5.644-4.584 0-1.564-1.325-2.438-2.968-2.438-2.57 0-5.644 2.173-5.644 4.61M260.99 96.008c0 1.139.821 2.41 2.967 2.41 2.756 0 5.644-2.252 5.644-4.584 0-1.563-1.325-2.438-2.968-2.438-2.57 0-5.643 2.173-5.643 4.612M461.198 23.2c0 1.139.822 2.411 2.968 2.411 2.756 0 5.644-2.253 5.644-4.584 0-1.564-1.325-2.438-2.968-2.438-2.57 0-5.644 2.173-5.644 4.61m68.966 86.044c0 1.139.821 2.41 2.968 2.41 2.755 0 5.644-2.251 5.644-4.583 0-1.563-1.325-2.438-2.968-2.438-2.57 0-5.644 2.173-5.644 4.61M240.7 92.698c0 1.14.821 2.411 2.967 2.411 2.756 0 5.644-2.252 5.644-4.584 0-1.563-1.325-2.438-2.967-2.438-2.57 0-5.644 2.173-5.644 4.611M482.354 26.51c0 1.14.821 2.412 2.967 2.412 2.757 0 5.645-2.253 5.645-4.585 0-1.563-1.325-2.438-2.968-2.438-2.57 0-5.644 2.173-5.644 4.611m-272.09 66.187c0 1.14.822 2.411 2.968 2.411 2.756 0 5.644-2.252 5.644-4.584 0-1.563-1.325-2.438-2.968-2.438-2.57 0-5.643 2.173-5.643 4.611M503.51 29.82c0 1.139.821 2.411 2.967 2.411 2.756 0 5.644-2.253 5.644-4.585 0-1.563-1.325-2.437-2.967-2.437-2.57 0-5.644 2.172-5.644 4.61M189.974 89.389c0 1.139.821 2.41 2.968 2.41 2.756 0 5.644-2.251 5.644-4.583 0-1.563-1.325-2.438-2.967-2.438-2.571 0-5.645 2.173-5.645 4.61m334.691-56.259c0 1.14.821 2.412 2.968 2.412 2.756 0 5.644-2.252 5.644-4.584 0-1.564-1.324-2.438-2.967-2.438-2.57 0-5.645 2.173-5.645 4.61m-354.981 52.95c0 1.14.821 2.411 2.968 2.411 2.756 0 5.643-2.251 5.643-4.583 0-1.564-1.324-2.438-2.967-2.438-2.57 0-5.644 2.173-5.644 4.61m386.715-52.95c0 1.14.821 2.412 2.967 2.412 2.757 0 5.645-2.252 5.645-4.584 0-1.564-1.325-2.438-2.968-2.438-2.57 0-5.644 2.173-5.644 4.61m-407.005 52.95c0 1.14.821 2.411 2.968 2.411 2.755 0 5.644-2.251 5.644-4.583 0-1.564-1.325-2.438-2.968-2.438-2.57 0-5.644 2.173-5.644 4.61M124.933 29.82c0 1.139.821 2.411 2.967 2.411 2.756 0 5.644-2.253 5.644-4.585 0-1.563-1.325-2.437-2.968-2.437-2.57 0-5.643 2.172-5.643 4.61m435.666 66.188c0 1.139.822 2.41 2.968 2.41 2.755 0 5.644-2.252 5.644-4.584 0-1.563-1.325-2.438-2.968-2.438-2.57 0-5.644 2.173-5.644 4.612m-431.496 0c0 1.139.822 2.41 2.969 2.41 2.755 0 5.644-2.252 5.644-4.584 0-1.563-1.325-2.438-2.968-2.438-2.57 0-5.645 2.173-5.645 4.612M577.555 29.82c0 1.139.821 2.411 2.968 2.411 2.755 0 5.643-2.253 5.643-4.585 0-1.563-1.325-2.437-2.967-2.437-2.57 0-5.644 2.172-5.644 4.61m32.608-2.143a.99.99 0 0 1-1.06-.954c0-1.298 4.452-3.577 5.697-3.577.636 0 1.06.37 1.06.954 0 1.325-4.479 3.577-5.697 3.577m3.657-5.777c-2.57 0-5.645 2.146-5.645 4.611 0 1.14.821 2.412 2.968 2.412 2.756 0 5.644-2.253 5.644-4.585 0-1.563-1.325-2.438-2.967-2.438M96.934 39.747c0 1.14.822 2.412 2.968 2.412 2.756 0 5.645-2.252 5.645-4.584 0-1.564-1.325-2.438-2.969-2.438-2.57 0-5.644 2.173-5.644 4.61m2.415 56.26c0 1.139.821 2.41 2.967 2.41 2.757 0 5.645-2.252 5.645-4.584 0-1.563-1.325-2.438-2.968-2.438-2.57 0-5.644 2.173-5.644 4.612m481.54 6.618c0 1.14.822 2.412 2.968 2.412 2.756 0 5.644-2.253 5.644-4.585 0-1.563-1.324-2.438-2.968-2.438-2.57 0-5.644 2.173-5.644 4.61M79.033 39.748c0 1.14.822 2.412 2.968 2.412 2.756 0 5.645-2.252 5.645-4.584 0-1.564-1.325-2.438-2.969-2.438-2.57 0-5.644 2.173-5.644 4.61m.026 56.26c0 1.139.821 2.41 2.967 2.41 2.756 0 5.644-2.252 5.644-4.584 0-1.563-1.325-2.438-2.967-2.438-2.57 0-5.644 2.173-5.644 4.612m172.808-62.879c0 1.14.822 2.412 2.968 2.412 2.756 0 5.644-2.252 5.644-4.584 0-1.564-1.325-2.438-2.968-2.438-2.57 0-5.644 2.173-5.644 4.61m360.765 64.044a.99.99 0 0 1-1.06-.954c0-1.298 4.452-3.577 5.696-3.577.637 0 1.06.37 1.06.954 0 1.325-4.478 3.577-5.696 3.577m3.657-5.777c-2.571 0-5.645 2.147-5.645 4.612 0 1.139.821 2.41 2.968 2.41 2.756 0 5.644-2.252 5.644-4.584 0-1.563-1.325-2.438-2.967-2.438m-483.415-84.2v20.452h.662V7.196ZM99.35 96.006v17.09h.662v-17.09Zm-20.29 0v17.09h.661v-17.09Zm531.585 0v18.745h.662V96.005ZM86.976 18.778v18.797h.662V18.778zm17.9 0v18.797h.663V18.778zm503.3 7.73v18.745h.662V26.51ZM129.103 96.006v17.081h.662V96.005ZM585.497 10.53v17.117h.662V10.53ZM149.394 86.077v26.463h.662V86.077Zm20.29 0v25.917h.662V86.077ZM564.34 12.135v18.821h.663V12.135ZM189.974 89.387v22.062h.662V89.387ZM532.608 8.85v22.106h.662V8.85ZM210.264 92.696v20.4h.662v-20.4ZM503.51 29.818v17.065h.662V29.818ZM240.7 92.696v18.77h.662v-18.77ZM482.353 26.51v18.736h.662V26.509ZM260.99 96.005v17.064h.662V96.005ZM461.2 23.2v20.407h.661V23.2Zm-21.157-3.31v22.08h.662V19.89ZM298.687 80.028v17.116h.662V80.028ZM409.422 23.2v18.769h.662v-18.77Zm-90.445 58.43v18.823h.662V81.63Zm20.29-3.303v25.435h.662V78.327Zm48.999-51.818v17.064h.662V26.51Zm-35.472 51.01v22.934h.662V77.52Zm13.526-.807v17.123h.662V76.712Zm-23-66.182v17.117h.661V10.53Zm43.29 67.817v22.106h.662V78.347Zm30.435 9.954v18.77h.663v-18.77Zm-94.882-76.166v18.821h.662V12.135ZM588.832 78.32v22.132h.662V78.32ZM290.43 12.16v22.106h.662V12.16Zm-30.62-.025v18.821h.661V12.135Zm207.28 79.45v22.106h.663V91.584ZM238.654 10.53v17.117h.662V10.53ZM206.92 7.196v20.451h.662V7.196Zm290.606 79.45v17.116h.662V86.646ZM177.822 26.509v17.064h.662V26.51Zm339.994 61.74v22.132h.662V88.248Zm20.29-3.284v22.107h.662V84.965ZM156.666 23.2v18.769h.662v-18.77ZM568.54 76.718v17.117h.662V76.718Zm-212.009-50.21v18.745h.662V26.51Zm80.804 63.395v20.478h.662V89.903Zm19.628 24.317v1.06h12.974v-1.06ZM119.64 81.292v27.203h1.192V81.292Zm557.72-69.496v27.203H681V11.796Zm-3.64 0v27.203h1.192V11.796Zm-2.446 16.91c0-.768-.61-1.404-1.378-1.404-.769 0-1.378.636-1.378 1.404 0 .769.61 1.405 1.378 1.405s1.378-.636 1.378-1.405m0-6.618c0-.769-.61-1.405-1.378-1.405-.769 0-1.378.636-1.378 1.405 0 .768.61 1.404 1.378 1.404s1.378-.636 1.378-1.404M598.71 11.796v27.203h1.191V11.796ZM281.28 81.292v27.203h1.19V81.292Zm149.298-69.496v27.203h1.19V11.796ZM70.787 98.203c0-.769-.61-1.405-1.378-1.405s-1.378.636-1.378 1.405c0 .768.61 1.404 1.378 1.404.769 0 1.378-.636 1.378-1.404m0-6.619c0-.768-.61-1.405-1.378-1.405s-1.378.637-1.378 1.405c0 .769.61 1.405 1.378 1.405.769 0 1.378-.636 1.378-1.405M64.39 81.292v27.203h1.192V81.292Zm-6.09 0v27.203h3.64V81.292Zm214.722-69.496v27.203h1.19V11.796Zm176.66 69.496v27.203h1.192V81.292ZM115.468 11.796v27.203h1.191V11.796ZM601.18 81.292v27.203h1.191V81.292Zm76.18 0v27.203H681V81.292Zm-3.64 0v27.203h1.191V81.292Zm-2.447 16.91c0-.768-.61-1.404-1.378-1.404-.769 0-1.378.636-1.378 1.405 0 .768.61 1.404 1.378 1.404s1.378-.636 1.378-1.404m0-6.619c0-.768-.61-1.405-1.378-1.405-.769 0-1.378.637-1.378 1.405 0 .769.61 1.405 1.378 1.405s1.378-.636 1.378-1.405M0 107.767v.728h681v-.728zm0-6.619v.728h681v-.728zm0-6.619v.728h681v-.728zm0-6.618v.728h681v-.728zm0-6.619v.728h681v-.728Zm0-43.021v.727h681v-.727Zm0-6.62v.728h681v-.727Zm0-6.618v.728h681v-.728zm0-6.619v.728h681v-.728zm0-6.618v.728h681v-.728z"/>
</svg>
