<?xml version="1.0" encoding="utf-8"?>
<svg xmlns="http://www.w3.org/2000/svg" xmlns:svg="http://www.w3.org/2000/svg" version="1.1" viewBox="0 0 681 187">
	<title>The musical score for Air XL</title>
	<path d="M534.46 19.53c0 .742.583 1.324 1.324 1.324s1.324-.582 1.324-1.324-.583-1.324-1.324-1.324-1.325.582-1.325 1.324m-424.23 6.616c0 .741.583 1.325 1.325 1.325s1.324-.584 1.324-1.325-.582-1.324-1.324-1.324-1.324.583-1.324 1.324m244.198 125.705c0 .742.582 1.324 1.324 1.324.74 0 1.324-.582 1.324-1.324s-.583-1.325-1.324-1.325-1.324.583-1.324 1.325M244.804 26.146c0 .741.583 1.325 1.324 1.325s1.324-.584 1.324-1.325-.582-1.324-1.324-1.324c-.74 0-1.324.583-1.324 1.324m335.121 138.937c0 .742.583 1.325 1.324 1.325s1.325-.583 1.325-1.325-.583-1.324-1.325-1.324c-.741 0-1.324.582-1.324 1.324m65.447-103.857c.12 0 .24.048.312.24l.024.144c.144.528.432 1.656 1.416 1.656.792 0 1.32-.456 1.32-1.296 0-1.608-1.272-2.112-2.736-2.112-1.345 0-2.857 1.656-2.857 3.553 0 .456.096.936.312 1.416.624 1.416 3.409 3.12 3.553 3.169.072.048.12.096.12.168s-.048.168-.12.312c-.144.264-2.905 5.233-2.905 5.233a.9.9 0 0 0-.048.24c0 .193.096.385.264.48a.4.4 0 0 0 .264.097c.192 0 .384-.12.48-.288 0 0 2.977-5.378 3.05-5.498 0 .024.143-.096.215-.096.288.048 4.13 1.176 4.13 3 0 .77-.457 1.25-1.105 1.37h-.072c-.384 0-.72-.265-.72-.865v-.216c0-.72-.48-1.248-1.008-1.248-.096 0-.168 0-.24.024-.72.168-1.369.48-1.369 1.248 0 .072 0 .168.024.264.144.816 1.008 1.92 2.305 1.92 1.824 0 3.36-1.68 3.36-3.48 0-.168-.023-.36-.047-.553-.288-2.112-3.313-3.84-3.553-3.937-.216-.144-.312-.216-.312-.312 0-.048.024-.072.024-.12.096-.144 3.073-5.521 3.073-5.521a.4.4 0 0 0 .096-.264.58.58 0 0 0-.289-.48 1.2 1.2 0 0 0-.264-.049.55.55 0 0 0-.48.264s-3.049 5.522-3.169 5.69c-.048.096-.096.144-.168.144-.048 0-.12-.024-.192-.048-.168-.072-3.073-1.176-3.577-2.04a2.3 2.3 0 0 1-.264-1.009c0-.528.24-1.056 1.032-1.2zm5.378 3.817c0 .6.504 1.104 1.104 1.104s1.08-.504 1.08-1.104-.48-1.08-1.08-1.08-1.104.48-1.104 1.08m-5.281 3.89c0-.601-.48-1.105-1.105-1.105-.576 0-1.08.504-1.08 1.104s.504 1.08 1.08 1.08c.624 0 1.105-.48 1.105-1.08m27.562 61.762c.12 0 .24.048.312.24l.024.144c.144.529.432 1.657 1.416 1.657.792 0 1.32-.456 1.32-1.296 0-1.609-1.272-2.113-2.736-2.113-1.345 0-2.857 1.656-2.857 3.553 0 .456.096.936.312 1.416.624 1.417 3.41 3.121 3.553 3.17.072.047.12.095.12.167s-.048.168-.12.312c-.144.265-2.905 5.234-2.905 5.234a.9.9 0 0 0-.048.24c0 .192.096.384.264.48a.4.4 0 0 0 .264.096c.192 0 .385-.12.48-.288 0 0 2.977-5.377 3.05-5.498 0 .024.143-.096.215-.096.289.048 4.13 1.177 4.13 3.001 0 .769-.456 1.249-1.105 1.369h-.072c-.384 0-.72-.264-.72-.865v-.216c0-.72-.48-1.248-1.008-1.248-.096 0-.168 0-.24.024-.72.168-1.369.48-1.369 1.248 0 .072 0 .168.024.264.144.817 1.009 1.921 2.305 1.921 1.825 0 3.361-1.68 3.361-3.481 0-.168-.024-.36-.048-.552-.288-2.113-3.313-3.841-3.553-3.937-.216-.144-.312-.216-.312-.312 0-.048.024-.072.024-.12.096-.144 3.073-5.522 3.073-5.522a.4.4 0 0 0 .096-.264.58.58 0 0 0-.288-.48 1.2 1.2 0 0 0-.264-.048.55.55 0 0 0-.48.264s-3.05 5.522-3.17 5.69c-.047.096-.095.144-.167.144-.048 0-.12-.024-.193-.048-.168-.072-3.072-1.177-3.577-2.041a2.3 2.3 0 0 1-.264-1.008c0-.528.24-1.057 1.033-1.2zm5.377 3.816c0 .6.504 1.105 1.105 1.105.6 0 1.08-.504 1.08-1.105 0-.6-.48-1.08-1.08-1.08s-1.105.48-1.105 1.08m-5.281 3.89c0-.6-.48-1.105-1.105-1.105-.576 0-1.08.504-1.08 1.105 0 .6.504 1.08 1.08 1.08.625 0 1.105-.48 1.105-1.08M552.704 74.102l14.783-1.654v3.328l-14.783 1.655zM283.443 7.94l13.654 1.654v3.332l-13.654-1.654zm233.08 99.242 14.782 1.654v3.33l-14.783-1.655zm130.367 1.654 14.783-1.654v3.33l-14.783 1.653zm-172.475-1.654 14.783 1.654v3.33l-14.783-1.655zm-41.898 71.122 14.309-1.654v3.33l-14.309 1.654zm13.655-76.083 14.784 1.653v3.329l-14.784-1.654zm-165.73 71.13 19.691-1.064v3.313l-19.691 1.063zm0 4.963 30.609-1.654v3.313l-30.609 1.654zm237.71-31.435 14.309-1.654v3.33l-14.309 1.654zm-427.349 31.42 11.58-1.703v3.344l-11.58 1.702zm0 4.963 22.497-3.308v3.343l-22.497 3.308zm212.01-74.413h14.784v3.308h-14.783zm115.116-6.626 14.782 1.653v3.329l-14.782-1.654zm-236.363 72.776 19.691-2.127v3.327l-19.691 2.128zm0 4.963 30.608-3.309v3.328l-30.608 3.308zM655.956 2.978l13.655 1.654v3.332L655.957 6.31zm-310.24 34.734 13.653 1.654v3.332l-13.654-1.654zm235.23 38.044 14.783 1.654v3.329l-14.782-1.654zM45.076 32.78v1.96h-2.198c-.186 0-.37.16-.37.37v.504c0 .212.184.371.37.371h8.025c.212 0 .372-.159.372-.371v-.503c0-.212-.16-.37-.372-.37H48.52v-1.96h2.384c.212 0 .372-.186.372-.398v-.504a.38.38 0 0 0-.372-.37H48.52v-4.212c0-.159-.079-.291-.185-.344l-.317-.16c-.054-.025-.08-.025-.133-.025-.106 0-.212 0-.291.079l-2.41 2.199a.4.4 0 0 0-.107.291v2.172h-3.072s2.966-3.179 6.092-7.364a.58.58 0 0 0 .132-.37.44.44 0 0 0-.08-.265l-.582-.583c-.079-.053-.159-.106-.265-.106h-3.946c-.186 0-.318.159-.344.318 0 0-.133 1.96-.821 4.105-.69 2.146-1.484 3.47-2.173 4.45 0 0-.08.133-.08.292 0 .053 0 .105.027.158.08.186.265.477.265.477s.053.16.291.16zm2.74-16.824c2.119-.82 2.251-2.198 2.251-2.675v-.132c0-.239-.08-3.232-4.635-3.232-4.556 0-4.424 3.232-4.424 3.232h.027l-.027.052c0 .954.769 1.696 1.722 1.696.954 0 1.695-.742 1.695-1.696 0-.768-.582-1.51-1.324-1.668l.08-.08c.37-.265.873-.397 1.376-.397 1.113 0 2.305.662 2.305 2.093 0 1.668-1.245 1.907-1.563 1.96s-1.801.159-2.119.159c-.317 0-.344.37-.344.37v.53s.053.291.344.318c.45.026 1.06.026 1.907.159 1.166.159 1.775.953 1.775 2.808 0 1.774-1.192 2.251-2.305 2.251-.741 0-1.43-.212-1.72-.424.873-.053 1.588-.82 1.588-1.695 0-.954-.741-1.722-1.695-1.722-.953 0-1.722.768-1.722 1.722 0 2.172 1.987 3.258 3.947 3.258 2.542 0 5.298-.874 5.298-3.761 0-1.934-1.325-2.755-2.49-3.126zm-18.887-8.31 2.357-.477v4.37l-2.357.504zm4.106-.821c.16-.027.291-.212.291-.371V4.891c0-.212-.159-.37-.37-.37h-.054l-.874.185V.759h-.742v4.106l-2.357.477V1.607h-.741V5.5l-1.033.212c-.16.027-.291.212-.291.371V7.62c0 .212.158.371.37.371h.08l.874-.185v4.37l-1.033.212c-.16.027-.291.212-.291.371v1.536c0 .212.158.371.37.371h.08l.874-.185v3.946h.741v-4.105l2.357-.477v3.735h.742v-3.894l1.007-.185c.16-.027.291-.212.291-.371v-1.563c0-.212-.159-.37-.37-.37h-.054l-.874.185V7.01zm-4.106 70.29 2.357-.478v4.371l-2.357.504zm4.106-.82c.16-.027.291-.213.291-.372V74.36a.363.363 0 0 0-.37-.371h-.054l-.874.185v-3.946h-.742v4.105l-2.357.477v-3.735h-.741v3.894l-1.033.212c-.16.026-.291.211-.291.37v1.537c0 .212.158.37.37.37h.08l.874-.184v4.37l-1.033.212c-.16.026-.291.212-.291.37v1.537c0 .212.158.37.37.37h.08l.874-.185v3.947h.741v-4.106l2.357-.477v3.735h.742v-3.893l1.007-.186c.16-.026.291-.212.291-.37v-1.563a.363.363 0 0 0-.37-.372h-.054l-.874.186v-4.37zm-4.106 70.29 2.357-.477v4.37l-2.357.504zm4.106-.821c.16-.027.291-.212.291-.37v-1.564a.363.363 0 0 0-.37-.37h-.054l-.874.185v-3.947h-.742v4.106l-2.357.476v-3.734h-.741v3.893l-1.033.213c-.16.026-.291.212-.291.37v1.536c0 .213.158.371.37.371h.08l.874-.185v4.37l-1.033.212c-.16.027-.291.212-.291.37v1.537c0 .212.158.371.37.371h.08l.874-.185v3.947h.74v-4.106l2.358-.477v3.735h.742v-3.894l1.007-.185c.16-.027.291-.213.291-.371v-1.563a.363.363 0 0 0-.37-.371h-.054l-.874.186v-4.37zm-16.948 28.085c-.53.107-1.033.16-1.536.16-3.788 0-7.02-2.65-7.02-6.649 0-3.232 2.278-6.118 4.61-8.132.45-.397.873-.768 1.27-1.165.239 1.43.424 2.675.61 3.761-2.41.715-4.053 3.258-4.053 5.748 0 1.854 1.457 4.397 3.576 4.397.212 0 .45-.106.45-.344 0-.239-.265-.372-.582-.583-1.033-.636-1.616-1.324-1.616-2.622 0-1.616 1.192-2.914 2.755-3.285zm-2.331-27.229c.238-1.06 1.457-3.84 2.834-3.84.397 0 1.033 1.298 1.033 3.125 0 2.755-2.04 4.821-3.867 6.622-.159-1.06-.291-2.092-.291-3.205 0-.98.079-1.88.29-2.702m6.093 22.33c0 1.88-.768 3.813-2.649 4.582a882 882 0 0 1-1.457-8.556c2.384 0 4.106 1.616 4.106 3.974M8.194 181.979c0 1.748 1.35 4.053 4.926 4.053 1.245 0 2.331-.318 3.285-.9 1.43-1.007 1.8-2.756 1.8-4.424 0-1.033-.158-2.225-.423-3.735-.08-.53-.238-1.324-.397-2.357 2.596-.848 4.53-3.55 4.53-6.278 0-4-2.835-6.701-6.702-6.701-.265-1.59-.53-3.152-.768-4.635 2.807-2.941 4.74-6.252 4.74-10.463 0-2.41-.74-4.37-1.165-5.324-.635-1.35-1.403-2.278-1.88-2.278-.186 0-1.007.318-1.88 1.35-1.696 2.014-2.173 5.404-2.173 7.629 0 1.43.133 2.729.583 5.695-.027.027-1.404 1.43-1.96 1.88-2.41 2.252-5.748 5.457-5.748 10.754 0 4.954 4.318 8.848 9.244 8.848.768 0 1.484-.08 2.093-.186.503 2.543.794 4.397.794 5.8 0 2.755-1.403 4.212-4.079 4.212-.635 0-1.192-.133-1.245-.133-.026-.026-.08-.052-.08-.079 0-.053.054-.079.133-.105 1.245-.186 2.49-1.246 2.49-2.94 0-1.431-1.086-2.94-3.072-2.94-1.854 0-3.046 1.509-3.046 3.257m7.893-77.6c-.53.106-1.033.16-1.536.16-3.788 0-7.02-2.65-7.02-6.65 0-3.231 2.278-6.118 4.61-8.131.45-.398.873-.768 1.27-1.165.239 1.43.424 2.675.61 3.76-2.41.716-4.053 3.259-4.053 5.748 0 1.854 1.457 4.397 3.576 4.397.212 0 .45-.105.45-.344 0-.238-.265-.371-.582-.582-1.033-.636-1.616-1.325-1.616-2.623 0-1.615 1.192-2.913 2.755-3.285zm-2.331-27.23c.238-1.059 1.457-3.84 2.834-3.84.397 0 1.033 1.298 1.033 3.126 0 2.754-2.04 4.82-3.867 6.622-.159-1.06-.291-2.093-.291-3.205 0-.98.08-1.881.291-2.702m6.092 22.33c0 1.88-.768 3.813-2.649 4.581a882 882 0 0 1-1.456-8.555c2.383 0 4.105 1.616 4.105 3.973M8.194 112.511c0 1.748 1.35 4.052 4.926 4.052 1.245 0 2.331-.318 3.285-.9 1.43-1.007 1.8-2.755 1.8-4.424 0-1.033-.158-2.224-.423-3.734-.08-.53-.238-1.325-.397-2.358 2.596-.847 4.53-3.549 4.53-6.278 0-4-2.835-6.7-6.702-6.7-.265-1.59-.53-3.153-.768-4.636 2.807-2.94 4.74-6.251 4.74-10.463 0-2.41-.74-4.37-1.165-5.324-.635-1.35-1.403-2.278-1.88-2.278-.186 0-1.007.319-1.88 1.351-1.696 2.013-2.173 5.404-2.173 7.629 0 1.43.133 2.728.583 5.695-.027.026-1.404 1.43-1.96 1.88-2.41 2.251-5.748 5.456-5.748 10.754 0 4.953 4.318 8.847 9.244 8.847.768 0 1.484-.08 2.093-.186.503 2.544.794 4.398.794 5.801 0 2.755-1.403 4.212-4.079 4.212-.635 0-1.192-.133-1.245-.133-.026-.026-.08-.053-.08-.08 0-.052.054-.078.133-.105 1.245-.185 2.49-1.245 2.49-2.94 0-1.43-1.086-2.94-3.072-2.94-1.854 0-3.046 1.51-3.046 3.258m7.893-77.6c-.53.106-1.033.159-1.536.159-3.788 0-7.02-2.65-7.02-6.649 0-3.232 2.278-6.119 4.61-8.132.45-.397.873-.768 1.27-1.165.239 1.43.424 2.675.61 3.761-2.41.715-4.053 3.258-4.053 5.748 0 1.854 1.457 4.397 3.576 4.397.212 0 .45-.106.45-.344 0-.239-.265-.371-.582-.583-1.033-.636-1.616-1.324-1.616-2.622 0-1.616 1.192-2.914 2.755-3.285zM13.756 7.681c.238-1.06 1.457-3.84 2.834-3.84.397 0 1.033 1.298 1.033 3.125 0 2.755-2.04 4.82-3.867 6.622-.159-1.06-.291-2.092-.291-3.205 0-.98.08-1.88.291-2.702m6.092 22.33c0 1.88-.768 3.814-2.649 4.582a882 882 0 0 1-1.456-8.555c2.383 0 4.105 1.615 4.105 3.973M8.194 43.042c0 1.748 1.35 4.053 4.926 4.053 1.245 0 2.331-.318 3.285-.9 1.43-1.007 1.8-2.756 1.8-4.424 0-1.033-.158-2.225-.423-3.735-.08-.53-.238-1.324-.397-2.357 2.596-.848 4.53-3.55 4.53-6.278 0-4-2.835-6.701-6.702-6.701-.265-1.59-.53-3.152-.768-4.636 2.807-2.94 4.74-6.25 4.74-10.462 0-2.41-.74-4.37-1.165-5.324C17.385.928 16.617 0 16.14 0c-.186 0-1.007.318-1.88 1.35-1.696 2.014-2.173 5.404-2.173 7.63 0 1.43.133 2.727.583 5.694-.027.027-1.404 1.43-1.96 1.88-2.41 2.252-5.748 5.457-5.748 10.754 0 4.954 4.318 8.848 9.244 8.848.768 0 1.484-.08 2.093-.186.503 2.543.794 4.397.794 5.8 0 2.755-1.403 4.212-4.079 4.212-.635 0-1.192-.132-1.245-.132-.026-.027-.08-.053-.08-.08 0-.052.054-.079.133-.105 1.245-.186 2.49-1.245 2.49-2.94 0-1.431-1.086-2.94-3.072-2.94-1.854 0-3.046 1.509-3.046 3.257M558.886 93.42c0 1.139.821 2.41 2.967 2.41 2.755 0 5.642-2.25 5.642-4.582 0-1.563-1.324-2.436-2.967-2.436-2.569 0-5.642 2.171-5.642 4.608M52.02 100.035c0 1.139.82 2.41 2.966 2.41 2.754 0 5.642-2.251 5.642-4.582 0-1.562-1.325-2.437-2.967-2.437-2.57 0-5.641 2.173-5.641 4.61m394.143 59.543c0 1.14.821 2.41 2.967 2.41 2.755 0 5.641-2.25 5.641-4.581 0-1.563-1.324-2.437-2.966-2.437-2.569 0-5.642 2.172-5.642 4.608M73.202 96.727c0 1.139.82 2.41 2.966 2.41 2.754 0 5.642-2.251 5.642-4.582 0-1.563-1.325-2.437-2.967-2.437-2.57 0-5.641 2.172-5.641 4.61m416.54 66.16c0 1.138.82 2.41 2.966 2.41 2.755 0 5.642-2.251 5.642-4.582 0-1.563-1.324-2.437-2.967-2.437-2.57 0-5.641 2.172-5.641 4.608m-57.226 0c0 1.14.821 2.41 2.966 2.41 2.756 0 5.643-2.25 5.643-4.581 0-1.563-1.324-2.437-2.967-2.437-2.57 0-5.642 2.172-5.642 4.608M94.384 93.42c0 1.139.82 2.41 2.966 2.41 2.754 0 5.642-2.25 5.642-4.582 0-1.563-1.325-2.436-2.967-2.436-2.57 0-5.641 2.171-5.641 4.608m317.661 59.544c0 1.14.821 2.411 2.967 2.411 2.755 0 5.642-2.252 5.642-4.583 0-1.563-1.324-2.436-2.967-2.436-2.569 0-5.642 2.171-5.642 4.608m13.628-135.628c0 1.138.82 2.41 2.967 2.41 2.754 0 5.641-2.252 5.641-4.582 0-1.563-1.324-2.437-2.966-2.437-2.57 0-5.642 2.172-5.642 4.609M125.026 90.11c0 1.139.822 2.41 2.967 2.41 2.754 0 5.642-2.25 5.642-4.582 0-1.563-1.325-2.437-2.967-2.437-2.57 0-5.642 2.172-5.642 4.609m-2.002-66.16c0 1.138.822 2.41 2.968 2.41 2.754 0 5.641-2.251 5.641-4.582 0-1.563-1.324-2.437-2.966-2.437-2.57 0-5.643 2.172-5.643 4.609m259.09 138.936c0 1.14.822 2.41 2.967 2.41 2.754 0 5.642-2.25 5.642-4.581 0-1.563-1.325-2.437-2.967-2.437-2.57 0-5.642 2.172-5.642 4.608M146.209 93.42c0 1.139.82 2.41 2.966 2.41 2.754 0 5.642-2.25 5.642-4.582 0-1.563-1.325-2.436-2.967-2.436-2.57 0-5.641 2.171-5.641 4.608m21.182-9.924c0 1.14.82 2.41 2.966 2.41 2.754 0 5.642-2.251 5.642-4.582 0-1.563-1.325-2.437-2.967-2.437-2.57 0-5.641 2.172-5.641 4.609m201.077 76.084c0 1.14.82 2.41 2.966 2.41 2.754 0 5.642-2.25 5.642-4.581 0-1.563-1.325-2.437-2.967-2.437-2.57 0-5.641 2.172-5.641 4.608m37.716-132.32c0 1.138.82 2.41 2.967 2.41 2.754 0 5.642-2.252 5.642-4.582 0-1.563-1.325-2.437-2.967-2.437-2.57 0-5.642 2.172-5.642 4.609M198.033 106.65c0 1.14.822 2.41 2.967 2.41 2.754 0 5.642-2.251 5.642-4.582 0-1.563-1.325-2.437-2.967-2.437-2.57 0-5.642 2.172-5.642 4.609m256.59-82.7c0 1.138.82 2.41 2.966 2.41 2.755 0 5.642-2.251 5.642-4.582 0-1.563-1.324-2.437-2.966-2.437-2.57 0-5.643 2.172-5.643 4.609m-318.605 6.616c0 1.139.822 2.41 2.967 2.41 2.755 0 5.642-2.252 5.642-4.582 0-1.563-1.325-2.437-2.967-2.437-2.57 0-5.642 2.172-5.642 4.609m206.5 125.704c0 1.14.822 2.41 2.967 2.41 2.755 0 5.642-2.25 5.642-4.582 0-1.562-1.325-2.436-2.967-2.436-2.57 0-5.642 2.172-5.642 4.608m-123.302-52.928c0 1.14.822 2.41 2.967 2.41 2.754 0 5.642-2.251 5.642-4.582 0-1.562-1.325-2.437-2.967-2.437-2.57 0-5.642 2.172-5.642 4.61m21.182-3.309c0 1.139.822 2.41 2.967 2.41 2.754 0 5.642-2.251 5.642-4.582 0-1.562-1.325-2.437-2.967-2.437-2.57 0-5.642 2.173-5.642 4.61m-75.43-72.777c0 1.138.82 2.41 2.967 2.41 2.754 0 5.642-2.252 5.642-4.582 0-1.563-1.325-2.437-2.967-2.437-2.57 0-5.642 2.172-5.642 4.609m145.42 125.704c0 1.14.822 2.411 2.967 2.411 2.755 0 5.643-2.252 5.643-4.583 0-1.563-1.325-2.436-2.968-2.436-2.568 0-5.641 2.171-5.641 4.608M386.695 27.26c0 1.138.821 2.41 2.967 2.41 2.755 0 5.642-2.252 5.642-4.582 0-1.563-1.324-2.437-2.967-2.437-2.57 0-5.642 2.172-5.642 4.609m-113.668 77.25a.99.99 0 0 1-1.06-.954c0-1.297 4.45-3.576 5.695-3.576.636 0 1.06.37 1.06.954 0 1.325-4.477 3.576-5.695 3.576m3.655-5.775c-2.57 0-5.642 2.146-5.642 4.61 0 1.138.821 2.41 2.967 2.41 2.755 0 5.642-2.252 5.642-4.583 0-1.562-1.325-2.437-2.967-2.437m22.788 57.537c0 1.14.821 2.41 2.967 2.41 2.755 0 5.641-2.25 5.641-4.582 0-1.562-1.324-2.436-2.966-2.436-2.569 0-5.642 2.172-5.642 4.608m3.343-62.852c0 1.139.822 2.41 2.967 2.41 2.755 0 5.642-2.25 5.642-4.582 0-1.563-1.325-2.436-2.967-2.436-2.57 0-5.642 2.171-5.642 4.608m207.399 76.085c0 1.138.821 2.41 2.967 2.41 2.754 0 5.641-2.252 5.641-4.582 0-1.563-1.324-2.438-2.966-2.438-2.57 0-5.642 2.173-5.642 4.61m-229.771-9.925c0 1.14.821 2.41 2.966 2.41 2.755 0 5.642-2.25 5.642-4.581 0-1.563-1.324-2.437-2.966-2.437-2.57 0-5.642 2.172-5.642 4.608m380.57-132.32c0 1.138.82 2.41 2.966 2.41 2.755 0 5.641-2.252 5.641-4.582 0-1.563-1.324-2.437-2.966-2.437-2.569 0-5.642 2.172-5.642 4.609m-476.555 6.616c0 1.139.821 2.41 2.968 2.41 2.754 0 5.641-2.252 5.641-4.583 0-1.563-1.324-2.436-2.966-2.436-2.57 0-5.643 2.171-5.643 4.609m75.515 125.704c0 1.14.821 2.41 2.967 2.41 2.754 0 5.641-2.25 5.641-4.581 0-1.563-1.324-2.437-2.966-2.437-2.57 0-5.642 2.172-5.642 4.608m56.965-66.16c0 1.139.82 2.41 2.966 2.41 2.755 0 5.642-2.25 5.642-4.582 0-1.563-1.324-2.436-2.967-2.436-2.569 0-5.641 2.171-5.641 4.608M239.5 156.271c0 1.14.82 2.41 2.966 2.41 2.755 0 5.642-2.25 5.642-4.582 0-1.562-1.325-2.436-2.967-2.436-2.57 0-5.641 2.172-5.641 4.608m119.209-132.32c0 1.138.82 2.41 2.966 2.41 2.755 0 5.642-2.251 5.642-4.582 0-1.563-1.325-2.437-2.967-2.437-2.57 0-5.641 2.172-5.641 4.609m-13.787 66.16c0 1.139.82 2.41 2.966 2.41 2.754 0 5.642-2.25 5.642-4.582 0-1.563-1.325-2.437-2.967-2.437-2.57 0-5.641 2.172-5.641 4.609M203.944 23.95c0 1.138.821 2.41 2.967 2.41 2.755 0 5.642-2.251 5.642-4.582 0-1.563-1.324-2.437-2.966-2.437-2.57 0-5.643 2.172-5.643 4.609m7.569 132.32c0 1.14.82 2.41 2.966 2.41 2.755 0 5.643-2.25 5.643-4.582 0-1.562-1.325-2.436-2.968-2.436-2.568 0-5.641 2.172-5.641 4.608m154.59-62.852c0 1.139.822 2.41 2.967 2.41 2.755 0 5.642-2.25 5.642-4.582 0-1.563-1.325-2.436-2.967-2.436-2.568 0-5.641 2.171-5.641 4.608m21.182-9.924c0 1.14.82 2.41 2.966 2.41 2.755 0 5.642-2.251 5.642-4.582 0-1.563-1.325-2.437-2.967-2.437-2.568 0-5.641 2.172-5.641 4.609m-186.69 76.084c0 1.14.82 2.41 2.966 2.41 2.755 0 5.642-2.25 5.642-4.581 0-1.563-1.324-2.437-2.967-2.437-2.569 0-5.642 2.172-5.642 4.608m323.264 6.617c0 1.138.82 2.41 2.967 2.41 2.754 0 5.642-2.251 5.642-4.582 0-1.563-1.325-2.437-2.967-2.437-2.57 0-5.642 2.172-5.642 4.609m14.225-3.309c0 1.14.82 2.41 2.966 2.41 2.755 0 5.642-2.25 5.642-4.581 0-1.563-1.325-2.437-2.967-2.437-2.569 0-5.641 2.172-5.641 4.608m-356.518 0c0 1.14.82 2.41 2.966 2.41 2.755 0 5.642-2.25 5.642-4.581 0-1.563-1.325-2.437-2.967-2.437-2.57 0-5.641 2.172-5.641 4.608m164.15-142.245c0 1.14.821 2.41 2.967 2.41 2.754 0 5.641-2.25 5.641-4.581 0-1.563-1.324-2.437-2.966-2.437-2.57 0-5.642 2.172-5.642 4.608m-184.62 142.245c0 1.14.82 2.41 2.966 2.41 2.754 0 5.641-2.25 5.641-4.581 0-1.563-1.324-2.437-2.966-2.437-2.57 0-5.642 2.172-5.642 4.608M417.93 83.495c0 1.14.82 2.41 2.966 2.41 2.755 0 5.642-2.251 5.642-4.582 0-1.563-1.325-2.437-2.967-2.437-2.57 0-5.641 2.172-5.641 4.609m-277.304 76.084c0 1.14.82 2.41 2.966 2.41 2.755 0 5.642-2.25 5.642-4.581 0-1.563-1.325-2.437-2.967-2.437-2.569 0-5.641 2.172-5.641 4.608M98.32 27.26c0 1.138.82 2.41 2.966 2.41 2.755 0 5.642-2.252 5.642-4.582 0-1.563-1.325-2.437-2.967-2.437-2.57 0-5.641 2.172-5.641 4.609m134.574 3.308c0 1.139.821 2.41 2.966 2.41 2.756 0 5.643-2.252 5.643-4.582 0-1.563-1.325-2.437-2.967-2.437-2.57 0-5.642 2.172-5.642 4.609m415.124-6.616c0 1.138.82 2.41 2.966 2.41 2.755 0 5.642-2.251 5.642-4.582 0-1.563-1.324-2.437-2.967-2.437-2.568 0-5.641 2.172-5.641 4.609m-535.38 135.628c0 1.14.82 2.41 2.966 2.41 2.755 0 5.642-2.25 5.642-4.581 0-1.563-1.324-2.437-2.967-2.437-2.569 0-5.642 2.172-5.642 4.608M432.05 86.803c0 1.14.821 2.41 2.967 2.41 2.754 0 5.641-2.251 5.641-4.582 0-1.563-1.324-2.437-2.966-2.437-2.57 0-5.642 2.172-5.642 4.609m-330.33 76.084c0 1.14.821 2.41 2.966 2.41 2.756 0 5.643-2.25 5.643-4.581 0-1.563-1.325-2.437-2.967-2.437-2.57 0-5.642 2.172-5.642 4.608M318.47 38.348a.99.99 0 0 1-1.06-.954c0-1.298 4.45-3.575 5.695-3.575.635 0 1.06.37 1.06.953 0 1.324-4.477 3.576-5.696 3.576m3.656-5.774c-2.57 0-5.642 2.145-5.642 4.608 0 1.14.821 2.411 2.967 2.411 2.754 0 5.641-2.251 5.641-4.583 0-1.562-1.324-2.436-2.966-2.436m151.986-2.007c0 1.139.821 2.41 2.966 2.41 2.756 0 5.643-2.252 5.643-4.582 0-1.563-1.325-2.437-2.967-2.437-2.57 0-5.642 2.172-5.642 4.609M90.802 166.196c0 1.138.822 2.41 2.967 2.41 2.755 0 5.642-2.251 5.642-4.582 0-1.563-1.324-2.437-2.967-2.437-2.569 0-5.642 2.172-5.642 4.609m477.213 3.308c0 1.138.821 2.41 2.967 2.41 2.754 0 5.641-2.252 5.641-4.582 0-1.563-1.324-2.438-2.966-2.438-2.57 0-5.642 2.173-5.642 4.61m-497.683-3.308c0 1.138.82 2.41 2.966 2.41 2.756 0 5.643-2.251 5.643-4.582 0-1.563-1.325-2.437-2.968-2.437-2.568 0-5.641 2.172-5.641 4.609m389.96-79.393c0 1.14.822 2.41 2.967 2.41 2.755 0 5.642-2.251 5.642-4.582 0-1.563-1.325-2.437-2.967-2.437-2.57 0-5.641 2.172-5.641 4.609M49.86 166.196c0 1.138.821 2.41 2.967 2.41 2.755 0 5.642-2.251 5.642-4.582 0-1.563-1.324-2.437-2.966-2.437-2.57 0-5.643 2.172-5.643 4.609M474.414 90.11c0 1.139.821 2.41 2.967 2.41 2.754 0 5.641-2.25 5.641-4.582 0-1.563-1.324-2.437-2.966-2.437-2.57 0-5.642 2.172-5.642 4.609M493.6 23.95c0 1.138.82 2.41 2.966 2.41 2.755 0 5.643-2.251 5.643-4.582 0-1.563-1.325-2.437-2.967-2.437-2.57 0-5.642 2.172-5.642 4.609m97.583 1.165a.99.99 0 0 1-1.06-.953c0-1.298 4.45-3.576 5.696-3.576.635 0 1.06.37 1.06.953 0 1.325-4.477 3.576-5.696 3.576m3.656-5.774c-2.57 0-5.642 2.145-5.642 4.609 0 1.138.821 2.41 2.967 2.41 2.754 0 5.641-2.251 5.641-4.582 0-1.563-1.324-2.437-2.966-2.437m-.874 153.47c0 1.139.821 2.41 2.966 2.41 2.755 0 5.642-2.252 5.642-4.583 0-1.562-1.324-2.436-2.966-2.436-2.57 0-5.642 2.171-5.642 4.609m-105.43-79.393c0 1.139.821 2.41 2.967 2.41 2.755 0 5.642-2.25 5.642-4.582 0-1.563-1.324-2.436-2.967-2.436-2.569 0-5.642 2.171-5.642 4.608M257.6 33.875c0 1.139.821 2.41 2.967 2.41 2.755 0 5.642-2.252 5.642-4.583 0-1.563-1.324-2.436-2.967-2.436-2.569 0-5.642 2.171-5.642 4.609m30.897 0c0 1.139.821 2.41 2.967 2.41 2.754 0 5.641-2.252 5.641-4.583 0-1.563-1.324-2.436-2.966-2.436-2.57 0-5.642 2.171-5.642 4.609m-12.992-3.308c0 1.139.82 2.41 2.966 2.41 2.754 0 5.642-2.252 5.642-4.582 0-1.563-1.325-2.437-2.967-2.437-2.57 0-5.641 2.172-5.641 4.609M661.01 90.11c0 1.139.821 2.41 2.967 2.41 2.755 0 5.641-2.25 5.641-4.582 0-1.563-1.324-2.437-2.966-2.437-2.569 0-5.642 2.172-5.642 4.609M522.55 23.95c0 1.138.82 2.41 2.966 2.41 2.755 0 5.642-2.251 5.642-4.582 0-1.563-1.324-2.437-2.967-2.437-2.569 0-5.641 2.172-5.641 4.609M446.17 83.495c0 1.14.821 2.41 2.967 2.41 2.755 0 5.642-2.251 5.642-4.582 0-1.563-1.324-2.437-2.967-2.437-2.569 0-5.642 2.172-5.642 4.609m70.351 6.616c0 1.139.821 2.41 2.967 2.41 2.755 0 5.642-2.25 5.642-4.582 0-1.563-1.324-2.437-2.967-2.437-2.569 0-5.642 2.172-5.642 4.609m91.09 86.008c0 1.14.821 2.411 2.966 2.411 2.755 0 5.642-2.252 5.642-4.583 0-1.562-1.324-2.436-2.966-2.436-2.57 0-5.642 2.172-5.642 4.608m9.49-74.919a.99.99 0 0 1-1.059-.953c0-1.298 4.45-3.576 5.695-3.576.636 0 1.06.37 1.06.954 0 1.324-4.477 3.575-5.695 3.575m3.655-5.774c-2.57 0-5.642 2.145-5.642 4.61 0 1.138.82 2.41 2.966 2.41 2.755 0 5.643-2.252 5.643-4.583 0-1.562-1.325-2.437-2.967-2.437m-90.114-2.007c0 1.139.82 2.41 2.966 2.41 2.755 0 5.642-2.25 5.642-4.582 0-1.563-1.325-2.436-2.967-2.436-2.57 0-5.641 2.171-5.641 4.608M64.497 23.951c0 1.138.821 2.41 2.967 2.41 2.755 0 5.642-2.251 5.642-4.582 0-1.563-1.324-2.437-2.966-2.437-2.57 0-5.643 2.172-5.643 4.609m495.75 3.308c0 1.138.821 2.41 2.967 2.41 2.755 0 5.642-2.252 5.642-4.582 0-1.563-1.324-2.437-2.967-2.437-2.569 0-5.642 2.172-5.642 4.609m-15.482 69.468c0 1.139.82 2.41 2.967 2.41 2.754 0 5.641-2.251 5.641-4.582 0-1.563-1.324-2.437-2.966-2.437-2.57 0-5.642 2.172-5.642 4.61m42.364 3.307c0 1.139.821 2.41 2.967 2.41 2.754 0 5.641-2.251 5.641-4.582 0-1.562-1.324-2.437-2.966-2.437-2.57 0-5.642 2.173-5.642 4.61m-39.874-79.394c0 1.14.821 2.41 2.966 2.41 2.756 0 5.643-2.25 5.643-4.581 0-1.563-1.325-2.437-2.967-2.437-2.57 0-5.642 2.172-5.642 4.608m92.275 156.643a.99.99 0 0 1-1.06-.954c0-1.298 4.45-3.575 5.695-3.575.636 0 1.06.37 1.06.953 0 1.324-4.476 3.576-5.695 3.576m3.655-5.774c-2.57 0-5.642 2.145-5.642 4.608 0 1.14.822 2.411 2.967 2.411 2.755 0 5.642-2.252 5.642-4.583 0-1.562-1.325-2.436-2.967-2.436m-70.177-74.784c0 1.139.82 2.41 2.966 2.41 2.755 0 5.642-2.251 5.642-4.582 0-1.563-1.325-2.437-2.967-2.437-2.57 0-5.641 2.172-5.641 4.61M459.81 156.27c0 1.14.821 2.41 2.967 2.41 2.754 0 5.641-2.25 5.641-4.582 0-1.562-1.324-2.436-2.966-2.436-2.57 0-5.642 2.172-5.642 4.608M646.89 93.42c0 1.139.82 2.41 2.966 2.41 2.755 0 5.643-2.25 5.643-4.582 0-1.563-1.325-2.436-2.967-2.436-2.57 0-5.642 2.171-5.642 4.608m-99.634-52.413c0 .185.16.344.344.344.133 0 .291-.106.319-.212 0-.027.237-.953.264-1.032.027-.107.265-1.114 1.218-2.676 1.033-1.722 2.623-2.967 3.947-4.821 1.298-1.854 2.093-3.602 2.093-5.933 0-2.41-.557-4.423-1.96-6.993-.08-.185-.239-.291-.398-.291-.053 0-.105 0-.132.026-.133.053-.186.16-.186.318a.8.8 0 0 0 .08.318c1.06 2.463 1.483 3.867 1.483 5.775 0 2.198-.768 3.337-1.245 4.158-1.721 2.94-4.503 4.37-5.615 4.741-.186.08-.212.212-.212.291zm54.649 113.55c0 .079.026.212.212.29 1.139.372 3.417 1.802 5.138 4.742.477.821 1.245 1.96 1.245 4.159 0 1.907-.503 3.867-1.192 5.774-.053.159-.106.292-.08.397 0 .16.107.265.266.265.185 0 .317-.105.424-.291 1.191-2.12 1.642-4.582 1.642-6.993-.133-3.416-2.093-5.933-2.093-5.933.08 0-2.436-3.258-3.152-4.37-.98-1.51-1.43-3.02-1.483-3.126a57 57 0 0 1-.264-1.033c-.028-.106-.16-.212-.319-.212a.35.35 0 0 0-.344.345zM123.024 44.314c0 .185.16.344.345.344.132 0 .292-.106.318-.212 0-.026.238-.953.265-1.033.026-.106.265-1.112 1.219-2.675 1.032-1.722 2.621-2.967 3.946-4.82 1.298-1.855 2.092-3.603 2.092-5.934 0-2.41-.556-4.423-1.96-6.993-.079-.185-.238-.291-.397-.291-.053 0-.106 0-.132.026-.133.053-.186.16-.186.318 0 .08.026.212.08.318 1.06 2.463 1.483 3.867 1.483 5.774 0 2.199-.768 3.338-1.245 4.159-1.722 2.94-4.503 4.37-5.616 4.741-.184.08-.212.212-.212.291zm245.444 135.629a.35.35 0 0 0 .344.344c.132 0 .29-.106.317-.212 0-.027.239-.953.265-1.033.027-.106.265-1.113 1.219-2.675 1.033-1.722 2.622-2.967 3.947-4.821 1.297-1.854 2.091-3.602 2.091-5.933 0-2.41-.556-4.424-1.96-6.993-.079-.185-.238-.291-.396-.291-.054 0-.107 0-.133.026-.132.054-.186.16-.186.318 0 .08.027.212.08.318 1.06 2.463 1.483 3.867 1.483 5.775 0 2.198-.768 3.337-1.244 4.158-1.722 2.94-4.503 4.37-5.616 4.74-.185.08-.212.213-.212.292zM265.538 15.619c0 .08.027.212.212.291 1.14.37 3.417 1.801 5.14 4.741.476.821 1.244 1.96 1.244 4.159 0 1.907-.504 3.867-1.192 5.774-.053.159-.106.292-.08.397 0 .16.107.265.265.265.186 0 .319-.105.424-.291 1.193-2.12 1.642-4.582 1.642-6.992-.132-3.418-2.092-5.934-2.092-5.934.08 0-2.437-3.258-3.152-4.37-.98-1.51-1.43-3.02-1.483-3.126-.027-.08-.265-1.033-.265-1.033-.026-.106-.16-.212-.318-.212a.35.35 0 0 0-.345.344zm315.409 61.839v17.098h.661V77.458Zm65.942 15.96v17.046h.662V93.418Zm14.121-3.308v18.773h.662V90.11Zm-144.488 0v18.773h.662V90.11ZM283.442 9.646v18.75h.662V9.646Zm40.98 3.268v22.097h.662V12.914Zm-58.883-3.255v22.045h.662V9.659Zm222.997 83.76v17.045h.661V93.418Zm134.52-17.652v22.097h.66V75.767ZM57.8 143.58v20.444h.661V143.58ZM474.414 90.11v18.773h.662V90.11ZM78.27 143.581v20.444h.662V143.58Zm382.021-56.78v18.7h.662v-18.7Zm-369.49 79.394v18.687h.662v-18.687zm10.918-3.308v20.39h.661v-20.39ZM345.716 20.64v18.777h.662V20.641ZM112.638 159.58v22.093h.662V159.58ZM432.05 86.802v18.7h.662v-18.7Zm-291.426 72.777v20.39h.662v-20.39zm20.47 3.308v18.736h.663v-18.736zm256.834-79.393v20.428h.662V83.494Zm-236.363 79.393v18.7h.662v-18.7zm19.03-3.308v19.952h.662v-19.952ZM240.833 6.298v22.098h.662V6.298Zm146.452 77.196v22.044h.662V83.494ZM211.512 156.27v22.081h.662v-22.08Zm154.591-62.852v18.737h.662V93.418ZM203.944 23.95v18.736h.662V23.95Zm140.977 66.16v20.39h.662V90.11Zm13.787-66.16v17.042h.662V23.95ZM239.5 156.27v22.045h.662V156.27zm20.471 3.309v20.39h.662v-20.39Zm56.964-66.16V110.5h.662V93.418Zm-36.493 66.16v20.373h.661v-20.373zm19.029-3.309v22.653h.662V156.27zm3.343-62.852v17.083h.662V93.418ZM192.395 9.606v22.098h.662V9.606Zm86.584 69.468v22.098h.662V79.074Zm115.656-74.43v20.444h.661V4.644Zm-84.248 148.318v25.37h.662v-25.37ZM172.907 4.644v20.444h.66V4.644Zm75.43 71.123v22.097h.661V75.767Zm94.18 80.503v22.045h.662V156.27ZM227.154 79.074v22.098h.662V79.074Zm325.55-3.345v18.827h.662V75.73zm-346.732 6.653v22.098h.662V82.382ZM414.123 4.644v20.444h.662V4.644Zm-45.656 154.935v20.364h.662v-20.364ZM143.957 6.298v22.098h.661V6.298Zm23.433 77.196v22.044h.662V83.494Zm214.724 79.393v18.736h.662v-18.736zM146.208 93.418v18.737h.662V93.418ZM123.025 23.95v20.364h.662V23.95Zm2.001 66.16v20.39h.662V90.11Zm300.647-72.777v22.045h.662V17.333Zm-13.627 135.63v22.044h.662v-22.045Zm20.47 9.924v17.044h.661v-17.044ZM94.383 93.418v18.737h.662V93.418Zm351.78 66.16v18.775h.661V159.58ZM81.14 74.114v20.443h.662V74.113ZM454.623 23.95v18.736h.662V23.95Zm5.187 132.32v22.045h.662V156.27ZM59.958 75.767v22.097h.662V75.767ZM296.435 11.22v20.484h.661V11.22ZM489.74 162.887v18.736h.662v-18.736zm28.41-14.382v18.828h.662v-18.828Zm-36.1-142.207v22.098h.661V6.298Zm49.747 140.629v17.098h.662v-17.098ZM668.95 6.257v18.83h.662V6.258Zm-130.867 156.63v18.736h.662v-18.736zM106.26 4.644v20.444h.661V4.644Zm549.698.04V21.78h.662V4.684Zm-80.003 140.551v22.098h.662v-22.098ZM493.6 23.95v18.736h.662V23.95Zm101.468 55.087v18.827h.662V79.037Zm6.836 69.56v22.044h.661v-22.045ZM589.197 23.95v18.736h.662V23.95Zm-66.648 0v18.736h.662V23.95Zm93.002 127.9v22.098h.661v-22.097ZM64.498 23.95v18.736h.662V23.95ZM568.187 4.644v20.444h.662V4.644Zm77.295 147.207v22.097h.662v-22.097ZM547.254 20.64v20.365h.662V20.64Zm19.572 53.509v17.098h.661V74.15Zm-36.183 19.268v17.046h.662V93.418Zm-84.472-9.924v20.428h.662V83.494Zm-109.7 69.705 2.358-.477v4.37l-2.358.504zm4.105-.82c.16-.027.292-.213.292-.372v-1.563c0-.211-.159-.37-.37-.37h-.054l-.873.185v-3.947h-.742v4.106l-2.358.476v-3.734h-.742v3.894l-1.033.211c-.158.027-.29.212-.29.371v1.537c0 .211.158.37.37.37h.08l.873-.185v4.37l-1.033.212c-.158.027-.29.212-.29.371v1.536c0 .212.158.37.37.37h.08l.873-.184v3.946h.742v-4.105l2.358-.477v3.735h.742v-3.894l1.005-.185c.16-.027.292-.212.292-.372v-1.562a.363.363 0 0 0-.37-.37h-.054l-.873.185v-4.371zm-146.027 4.13 2.357-.478v4.37l-2.357.504zm4.106-.822c.159-.026.29-.21.29-.37v-1.563a.36.36 0 0 0-.37-.37h-.052l-.875.184v-3.945h-.742v4.105l-2.357.477v-3.735h-.741v3.893l-1.033.212c-.16.027-.292.212-.292.371v1.536c0 .212.159.371.37.371h.08l.875-.185v4.37l-1.033.212c-.16.027-.292.212-.292.371v1.537c0 .21.159.37.37.37h.08l.875-.186v3.947h.741v-4.105l2.357-.477v3.735h.742v-3.894l1.007-.185c.159-.026.29-.212.29-.371v-1.563a.36.36 0 0 0-.37-.37h-.052l-.875.185v-4.37zm55.269.822 2.357-.477v4.37l-2.357.504zm4.106-.822c.158-.026.291-.21.291-.37v-1.563c0-.212-.16-.37-.37-.37h-.054l-.874.184v-3.945h-.742v4.105l-2.357.477v-3.735h-.741v3.893l-1.033.212c-.16.027-.292.212-.292.371v1.536c0 .212.159.371.371.371h.08l.874-.185v4.37l-1.033.212c-.16.027-.292.212-.292.371v1.537c0 .21.159.37.371.37h.08l.874-.186v3.947h.74v-4.105l2.358-.477v3.735h.742v-3.894l1.007-.185c.158-.026.291-.212.291-.371v-1.563c0-.211-.16-.37-.37-.37h-.054l-.874.185v-4.37zm35.395-2.486 2.356-.477v4.37l-2.356.504zm4.105-.82c.16-.027.291-.213.291-.372v-1.563a.36.36 0 0 0-.37-.37h-.053l-.875.185v-3.947h-.742v4.106l-2.356.476v-3.734h-.742v3.894l-1.033.211c-.16.027-.292.212-.292.371v1.537c0 .211.159.37.371.37h.08l.874-.185v4.37l-1.033.212c-.16.027-.292.212-.292.371v1.536c0 .212.159.37.37.37h.08l.875-.184v3.946h.742v-4.105l2.356-.477v3.735h.742v-3.894l1.007-.185c.159-.027.291-.212.291-.372v-1.562a.36.36 0 0 0-.37-.37h-.053l-.875.185v-4.371zM45.973 96.962l2.357-.477v4.371l-2.357.504zm4.106-.82c.158-.027.291-.213.291-.371v-1.563a.363.363 0 0 0-.371-.371h-.053l-.874.185v-3.946h-.742v4.106l-2.357.476v-3.735h-.742v3.894l-1.033.212c-.158.026-.291.212-.291.37v1.537c0 .212.16.37.371.37h.08l.873-.184v4.37l-1.033.212c-.158.026-.291.212-.291.37v1.537c0 .212.16.371.371.371h.08l.873-.186v3.947h.742v-4.106l2.357-.476v3.735h.742v-3.894l1.007-.186c.158-.026.291-.212.291-.37v-1.563c0-.212-.159-.37-.371-.37h-.053l-.874.184v-4.37zm312.342 60.366 2.357-.477v4.37l-2.357.504zm4.106-.822c.158-.026.291-.21.291-.37v-1.563c0-.212-.159-.37-.371-.37h-.053l-.874.184v-3.945h-.742v4.105l-2.357.477v-3.735h-.742v3.893l-1.033.212c-.158.027-.291.212-.291.371v1.536c0 .212.16.371.371.371h.08l.873-.185v4.37l-1.033.212c-.158.027-.291.212-.291.371v1.537c0 .21.16.37.371.37h.08l.873-.186v3.947h.742v-4.105l2.357-.477v3.735h.742v-3.894l1.007-.185c.158-.026.291-.212.291-.371v-1.563c0-.211-.159-.37-.371-.37h-.053l-.874.185v-4.37zm118.58-76.483c-2.38.128-4.758 1.366-6.525 3.744a.165.165 0 0 0 .014.198v.015l.013.006.007.012.016-.003a.165.165 0 0 0 .198-.011c3.772-3.658 10.729-3.104 13.874 1.105a.165.165 0 0 0 .279-.175c-1.564-3.003-4.151-4.662-6.858-4.878a8 8 0 0 0-1.018-.013zm.018.33q.488-.026.974.013c2.092.166 4.106 1.246 5.606 3.185-3.143-2.711-8.114-3.107-11.646-.927 1.512-1.419 3.287-2.177 5.066-2.271m-6.41 3.512c3.98-5.354 11.04-4.792 14.121 1.125-3.21-4.296-10.27-4.859-14.121-1.125M196.71 142.108a53 53 0 0 0-7.126.45c-9.482 1.245-18.634 5.028-24.308 10.965a.2.2 0 0 0-.02.052.2.2 0 0 0-.022.057.2.2 0 0 0 .019.06.2.2 0 0 0 .016.052l.008.004.004.009h.012a.165.165 0 0 0 .208.007c5.736-4.817 14.903-8.066 24.333-9.304s19.124-.463 25.909 2.71a.165.165 0 0 0 .156-.29c-5.26-3.204-12.099-4.733-19.19-4.772zm-.002.332c5.887.034 11.592 1.102 16.339 3.298-6.582-2.246-15.017-2.686-23.256-1.605-8.238 1.081-16.274 3.683-22.053 7.55 5.621-4.68 13.626-7.712 21.89-8.797 2.356-.309 4.732-.46 7.08-.446m-31.312 11.198c11.273-11.797 36.482-15.105 50.417-6.617-13.66-6.39-38.868-3.081-50.417 6.617m-65.253-7.297q-.63-.006-1.261.014c-6.728.212-13.39 2.618-17.753 7.168a.165.165 0 0 0-.008.203l-.002.014.01.006.005.011a.2.2 0 0 0 .05.02.2.2 0 0 0 .057.022.2.2 0 0 0 .06-.017.2.2 0 0 0 .05-.015c4.316-3.42 10.926-5.284 17.59-5.494 6.665-.21 13.38 1.235 17.903 4.375a.165.165 0 0 0 .206-.257c-4.35-4-10.599-5.991-16.906-6.05zm-.003.33c5.4.051 10.752 1.537 14.864 4.485-4.451-2.344-10.28-3.396-16.072-3.213s-11.542 1.6-15.837 4.218c4.22-3.446 9.98-5.292 15.797-5.475q.625-.02 1.248-.014m-18.891 6.967c8.647-9.021 26.491-9.584 35.69-1.125-9.132-6.342-26.977-5.78-35.69 1.125m375.614-81.052c-2.38.128-4.758 1.366-6.524 3.743a.17.17 0 0 0 .015.107.17.17 0 0 0-.002.107l.02.008v.01l.015-.003a.165.165 0 0 0 .199-.012c3.771-3.657 10.729-3.103 13.874 1.106a.165.165 0 0 0 .279-.175c-1.564-3.003-4.152-4.662-6.858-4.878a8 8 0 0 0-1.018-.013zm.018.33q.488-.026.974.013c2.093.166 4.107 1.245 5.607 3.185-3.143-2.711-8.114-3.107-11.646-.928 1.512-1.418 3.286-2.175 5.065-2.27m-6.41 3.512c3.979-5.354 11.04-4.792 14.122 1.125-3.21-4.296-10.272-4.86-14.122-1.125m-154.886 64.555a53 53 0 0 0-7.126.45c-9.483 1.245-18.635 5.028-24.309 10.965a.17.17 0 0 0 .002.11.17.17 0 0 0-.01.11l.013.007v.007h.012a.165.165 0 0 0 .208.008c5.736-4.817 14.903-8.066 24.333-9.303s19.124-.464 25.909 2.71a.165.165 0 0 0 .156-.291c-5.26-3.204-12.099-4.733-19.19-4.772zm-.002.332c5.887.034 11.592 1.102 16.338 3.298-6.58-2.246-15.016-2.686-23.254-1.605-8.24 1.081-16.276 3.683-22.055 7.551 5.622-4.68 13.627-7.713 21.89-8.797 2.356-.31 4.733-.46 7.08-.447m-31.313 11.198c11.274-11.797 36.482-15.105 50.418-6.617-13.66-6.389-38.868-3.08-50.418 6.617m164.35-79.927c-2.38.128-4.757 1.366-6.524 3.743a.165.165 0 0 0 .014.198v.016l.013.006.007.011.015-.002a.165.165 0 0 0 .199-.012c3.772-3.657 10.729-3.103 13.874 1.106a.165.165 0 0 0 .279-.175c-1.564-3.003-4.152-4.662-6.858-4.878a8 8 0 0 0-1.018-.013zm.018.33q.489-.026.975.013c2.092.166 4.106 1.245 5.606 3.185-3.143-2.711-8.113-3.107-11.646-.928 1.512-1.418 3.287-2.175 5.065-2.27m-6.41 3.512c3.98-5.354 11.04-4.792 14.122 1.125-3.21-4.296-10.27-4.86-14.122-1.125M579.736 9.242v27.192h1.19V9.242Zm99.8 69.469v27.191h1.191V78.711ZM223.433 9.242v27.192h1.19V9.242Zm6.606 138.937v27.192h1.19v-27.192Zm375.617-69.468v27.191h1.19V78.711ZM307.022 9.242v27.192h1.19V9.242Zm200.04 69.469v27.191h1.19V78.711Zm-178.148 69.468v27.192h1.19v-27.192zm79.554-69.468v27.191h1.19V78.711Zm-73.007 0v27.191h1.19V78.711ZM155.506 9.242v27.192h1.191V9.242Zm221.729 0v27.192h1.19V9.242ZM261.58 78.711v27.191h1.19V78.711Zm141.004 69.468v27.192h1.191v-27.192ZM188.573 78.711v27.191h1.19V78.711Zm291.708 69.468v27.192h1.19v-27.192ZM115.566 78.711v27.191h1.19V78.711Zm442.988 69.468v27.192h1.19v-27.192ZM445.161 9.242v27.192h1.191V9.242Zm234.375 0v27.192h1.191V9.242Zm-590.677 0v27.192h1.19V9.242ZM628.083 148.18v27.192h1.19v-27.192ZM639.75 26.146c0-.768-.61-1.404-1.378-1.404s-1.377.636-1.377 1.404c0 .769.609 1.404 1.377 1.404s1.378-.635 1.378-1.404m0-6.616c0-.768-.61-1.404-1.378-1.404s-1.377.636-1.377 1.404.609 1.404 1.377 1.404 1.378-.636 1.378-1.404m-6.394-10.288v27.192h1.19V9.242Zm-6.086 0v27.192h3.639V9.242Zm49.818 138.937v27.192h3.639v-27.192zm-3.638 0v27.192h1.19v-27.192zm-2.446 16.904c0-.768-.61-1.404-1.378-1.404s-1.377.636-1.377 1.404c0 .769.61 1.404 1.377 1.404.769 0 1.378-.635 1.378-1.404m0-6.616c0-.768-.61-1.404-1.378-1.404s-1.377.636-1.377 1.404.61 1.404 1.377 1.404c.769 0 1.378-.636 1.378-1.404M627.27 9.242v27.192h3.639V9.242Zm-3.64 0v27.192h1.192V9.242Zm-2.445 16.904c0-.768-.61-1.404-1.378-1.404s-1.377.636-1.377 1.404c0 .769.61 1.404 1.377 1.404.769 0 1.378-.635 1.378-1.404m0-6.616c0-.768-.61-1.404-1.378-1.404s-1.377.636-1.377 1.404.61 1.404 1.377 1.404c.769 0 1.378-.636 1.378-1.404M513.088 9.242v27.192h1.191V9.242ZM131.164 148.18v27.192h1.19v-27.192ZM0 174.643v.728h680.727v-.728zm0-6.615v.727h680.727v-.727zm0-6.617v.728h680.727v-.728zm0-6.616v.728h680.727v-.728zm0-6.616v.727h680.727v-.727zm0-43.004v.727h680.727v-.727zm0-6.616v.728h680.727v-.728zm0-6.616v.727h680.727v-.727zm0-6.616v.727h680.727v-.727zm0-6.617v.728h680.727v-.728zm0-43.004v.728h680.727v-.728zm0-6.615v.727h680.727v-.727zm0-6.617v.728h680.727v-.728zm0-6.616v.728h680.727v-.728Zm0-6.616v.728h680.727v-.728Z" style="stroke-width:.0800227"/>
</svg>
