<?xml version="1.0" encoding="UTF-8" standalone="no"?>
<svg width="210.058mm" height="296.926mm" viewBox="0 0 9924 14028"
 xmlns="http://www.w3.org/2000/svg" xmlns:xlink="http://www.w3.org/1999/xlink" version="1.2" baseProfile="full">
<title>air_XXXIX</title>
<desc>Generated by MuseScore Studio 4.7.3</desc>
<polyline class="StaffLines" fill="none" stroke="#000000" stroke-width="9.09" stroke-linejoin="bevel" points="708.661,832.677 9215.34,832.677" />
<polyline class="StaffLines" fill="none" stroke="#000000" stroke-width="9.09" stroke-linejoin="bevel" points="708.661,915.354 9215.34,915.354" />
<polyline class="StaffLines" fill="none" stroke="#000000" stroke-width="9.09" stroke-linejoin="bevel" points="708.661,998.031 9215.34,998.031" />
<polyline class="StaffLines" fill="none" stroke="#000000" stroke-width="9.09" stroke-linejoin="bevel" points="708.661,1080.71 9215.34,1080.71" />
<polyline class="StaffLines" fill="none" stroke="#000000" stroke-width="9.09" stroke-linejoin="bevel" points="708.661,1163.39 9215.34,1163.39" />
<polyline class="StaffLines" fill="none" stroke="#000000" stroke-width="9.09" stroke-linejoin="bevel" points="708.661,1700.79 9215.34,1700.79" />
<polyline class="StaffLines" fill="none" stroke="#000000" stroke-width="9.09" stroke-linejoin="bevel" points="708.661,1783.46 9215.34,1783.46" />
<polyline class="StaffLines" fill="none" stroke="#000000" stroke-width="9.09" stroke-linejoin="bevel" points="708.661,1866.14 9215.34,1866.14" />
<polyline class="StaffLines" fill="none" stroke="#000000" stroke-width="9.09" stroke-linejoin="bevel" points="708.661,1948.82 9215.34,1948.82" />
<polyline class="StaffLines" fill="none" stroke="#000000" stroke-width="9.09" stroke-linejoin="bevel" points="708.661,2031.5 9215.34,2031.5" />
<polyline class="StaffLines" fill="none" stroke="#000000" stroke-width="9.09" stroke-linejoin="bevel" points="708.661,2568.9 9215.34,2568.9" />
<polyline class="StaffLines" fill="none" stroke="#000000" stroke-width="9.09" stroke-linejoin="bevel" points="708.661,2651.57 9215.34,2651.57" />
<polyline class="StaffLines" fill="none" stroke="#000000" stroke-width="9.09" stroke-linejoin="bevel" points="708.661,2734.25 9215.34,2734.25" />
<polyline class="StaffLines" fill="none" stroke="#000000" stroke-width="9.09" stroke-linejoin="bevel" points="708.661,2816.93 9215.34,2816.93" />
<polyline class="StaffLines" fill="none" stroke="#000000" stroke-width="9.09" stroke-linejoin="bevel" points="708.661,2899.61 9215.34,2899.61" />
<polyline class="BarLine" fill="none" stroke="#000000" stroke-width="14.88" stroke-linejoin="bevel" points="6256.72,828.13 6256.72,1167.93" />
<path class="BarLine" d="M9093.83,2692.91 C9093.83,2683.31 9086.22,2675.37 9076.62,2675.37 C9067.02,2675.37 9059.41,2683.31 9059.41,2692.91 C9059.41,2702.51 9067.02,2710.46 9076.62,2710.46 C9086.22,2710.46 9093.83,2702.51 9093.83,2692.91"/>
<path class="BarLine" d="M9093.83,2775.59 C9093.83,2765.99 9086.22,2758.05 9076.62,2758.05 C9067.02,2758.05 9059.41,2765.99 9059.41,2775.59 C9059.41,2785.19 9067.02,2793.13 9076.62,2793.13 C9086.22,2793.13 9093.83,2785.19 9093.83,2775.59"/>
<polyline class="BarLine" fill="none" stroke="#000000" stroke-width="14.88" stroke-linejoin="bevel" points="9131.84,2564.35 9131.84,2904.15" />
<polyline class="BarLine" fill="none" stroke="#000000" stroke-width="45.47" stroke-linejoin="bevel" points="9192.6,2564.35 9192.6,2904.15" />
<polyline class="BarLine" fill="none" stroke="#000000" stroke-width="14.88" stroke-linejoin="bevel" points="8363.64,2564.35 8363.64,2904.15" />
<polyline class="BarLine" fill="none" stroke="#000000" stroke-width="14.88" stroke-linejoin="bevel" points="6578.26,2564.35 6578.26,2904.15" />
<polyline class="BarLine" fill="none" stroke="#000000" stroke-width="14.88" stroke-linejoin="bevel" points="5249.68,2564.35 5249.68,2904.15" />
<polyline class="BarLine" fill="none" stroke="#000000" stroke-width="14.88" stroke-linejoin="bevel" points="1831.11,828.13 1831.11,1167.93" />
<polyline class="BarLine" fill="none" stroke="#000000" stroke-width="14.88" stroke-linejoin="bevel" points="3900.9,2564.35 3900.9,2904.15" />
<polyline class="BarLine" fill="none" stroke="#000000" stroke-width="14.88" stroke-linejoin="bevel" points="2761.09,2564.35 2761.09,2904.15" />
<polyline class="BarLine" fill="none" stroke="#000000" stroke-width="14.88" stroke-linejoin="bevel" points="9207.9,1696.24 9207.9,2036.04" />
<polyline class="BarLine" fill="none" stroke="#000000" stroke-width="14.88" stroke-linejoin="bevel" points="8023.38,1696.24 8023.38,2036.04" />
<polyline class="BarLine" fill="none" stroke="#000000" stroke-width="14.88" stroke-linejoin="bevel" points="7837.79,828.13 7837.79,1167.93" />
<polyline class="BarLine" fill="none" stroke="#000000" stroke-width="14.88" stroke-linejoin="bevel" points="4550.78,828.13 4550.78,1167.93" />
<polyline class="BarLine" fill="none" stroke="#000000" stroke-width="14.88" stroke-linejoin="bevel" points="9207.9,828.13 9207.9,1167.93" />
<polyline class="BarLine" fill="none" stroke="#000000" stroke-width="14.88" stroke-linejoin="bevel" points="2594.87,1696.24 2594.87,2036.04" />
<polyline class="BarLine" fill="none" stroke="#000000" stroke-width="14.88" stroke-linejoin="bevel" points="4608.73,1696.24 4608.73,2036.04" />
<path class="BarLine" d="M5429.8,1824.8 C5429.8,1815.2 5422.19,1807.26 5412.59,1807.26 C5402.99,1807.26 5395.38,1815.2 5395.38,1824.8 C5395.38,1834.4 5402.99,1842.35 5412.59,1842.35 C5422.19,1842.35 5429.8,1834.4 5429.8,1824.8"/>
<path class="BarLine" d="M5429.8,1907.48 C5429.8,1897.88 5422.19,1889.94 5412.59,1889.94 C5402.99,1889.94 5395.38,1897.88 5395.38,1907.48 C5395.38,1917.08 5402.99,1925.02 5412.59,1925.02 C5422.19,1925.02 5429.8,1917.08 5429.8,1907.48"/>
<polyline class="BarLine" fill="none" stroke="#000000" stroke-width="14.88" stroke-linejoin="bevel" points="5467.81,1696.24 5467.81,2036.04" />
<polyline class="BarLine" fill="none" stroke="#000000" stroke-width="45.47" stroke-linejoin="bevel" points="5528.57,1696.24 5528.57,2036.04" />
<polyline class="BarLine" fill="none" stroke="#000000" stroke-width="45.47" stroke-linejoin="bevel" points="5528.57,1696.24 5528.57,2036.04" />
<polyline class="BarLine" fill="none" stroke="#000000" stroke-width="14.88" stroke-linejoin="bevel" points="5589.34,1696.24 5589.34,2036.04" />
<path class="BarLine" d="M5661.79,1824.8 C5661.79,1815.2 5654.18,1807.26 5644.58,1807.26 C5634.98,1807.26 5627.37,1815.2 5627.37,1824.8 C5627.37,1834.4 5634.98,1842.35 5644.58,1842.35 C5654.18,1842.35 5661.79,1834.4 5661.79,1824.8"/>
<path class="BarLine" d="M5661.79,1907.48 C5661.79,1897.88 5654.18,1889.94 5644.58,1889.94 C5634.98,1889.94 5627.37,1897.88 5627.37,1907.48 C5627.37,1917.08 5634.98,1925.02 5644.58,1925.02 C5654.18,1925.02 5661.79,1917.08 5661.79,1907.48"/>
<polyline class="BarLine" fill="none" stroke="#000000" stroke-width="14.88" stroke-linejoin="bevel" points="6246.47,1696.24 6246.47,2036.04" />
<polyline class="BarLine" fill="none" stroke="#000000" stroke-width="14.88" stroke-linejoin="bevel" points="3201.22,828.13 3201.22,1167.93" />
<path class="SlurSegment" stroke="#000000" stroke-width="4.13" stroke-linecap="round" stroke-linejoin="round" fill-rule="evenodd" d="M7973.35,2549.88 C8019.43,2470.64 8121.98,2463.61 8178.44,2535.83 C8123.44,2485.01 8020.9,2492.04 7973.35,2549.88"/>
<path class="SlurSegment" stroke="#000000" stroke-width="4.13" stroke-linecap="round" stroke-linejoin="round" fill-rule="evenodd" d="M2759.41,1833.07 C2795.57,1736.23 2914.05,1701.92 2996.36,1764.45 C2920.47,1724.11 2801.99,1758.42 2759.41,1833.07"/>
<path class="SlurSegment" stroke="#000000" stroke-width="4.13" stroke-linecap="round" stroke-linejoin="round" fill-rule="evenodd" d="M7563.16,2632.56 C7609.25,2553.31 7711.79,2546.28 7768.26,2618.5 C7713.26,2567.69 7610.71,2574.71 7563.16,2632.56"/>
<path class="SlurSegment" stroke="#000000" stroke-width="4.13" stroke-linecap="round" stroke-linejoin="round" fill-rule="evenodd" d="M3233.31,1750.39 C3320.11,1692.08 3438.59,1733.42 3470.27,1833.07 C3430.92,1755.38 3312.45,1714.04 3233.31,1750.39"/>
<path class="SlurSegment" stroke="#000000" stroke-width="4.13" stroke-linecap="round" stroke-linejoin="round" fill-rule="evenodd" d="M6742.8,2701.18 C6769.38,2610.25 6871.93,2575.94 6947.89,2632.56 C6878.87,2596.68 6776.32,2631 6742.8,2701.18"/>
<path class="SlurSegment" stroke="#000000" stroke-width="4.13" stroke-linecap="round" stroke-linejoin="round" fill-rule="evenodd" d="M7152.98,2618.5 C7233.66,2566.23 7336.2,2607.57 7358.07,2701.18 C7327.95,2628.04 7225.4,2586.71 7152.98,2618.5"/>
<path class="SlurSegment" stroke="#000000" stroke-width="4.13" stroke-linecap="round" stroke-linejoin="round" fill-rule="evenodd" d="M3707.22,1764.45 C3761.64,1679.67 3880.12,1672.64 3944.18,1750.39 C3881.46,1695.33 3762.99,1702.35 3707.22,1764.45"/>
<path class="SlurSegment" stroke="#000000" stroke-width="4.13" stroke-linecap="round" stroke-linejoin="round" fill-rule="evenodd" d="M4181.13,1681.77 C4235.55,1596.99 4354.03,1589.97 4418.09,1667.72 C4355.37,1612.65 4236.9,1619.68 4181.13,1681.77"/>
<path class="SlurSegment" stroke="#000000" stroke-width="4.13" stroke-linecap="round" stroke-linejoin="round" fill-rule="evenodd" d="M7443.94,1196.46 C7499.8,1247.77 7604.12,1240.74 7652.59,1182.4 C7605.57,1262.28 7501.25,1269.31 7443.94,1196.46"/>
<path class="SlurSegment" stroke="#000000" stroke-width="4.13" stroke-linecap="round" stroke-linejoin="round" fill-rule="evenodd" d="M7026.65,1279.13 C7089.58,1323.18 7193.91,1302.51 7235.29,1237.8 C7198.13,1323.83 7093.81,1344.5 7026.65,1279.13"/>
<path class="SlurSegment" stroke="#000000" stroke-width="4.13" stroke-linecap="round" stroke-linejoin="round" fill-rule="evenodd" d="M5862.87,1196.46 C5904.26,1261.17 6008.58,1281.84 6071.52,1237.8 C6004.36,1303.16 5900.04,1282.49 5862.87,1196.46"/>
<path class="SlurSegment" stroke="#000000" stroke-width="4.13" stroke-linecap="round" stroke-linejoin="round" fill-rule="evenodd" d="M5445.58,1031.1 C5461.8,1118.49 5566.13,1194.14 5654.23,1182.4 C5552.31,1213.19 5447.99,1137.54 5445.58,1031.1"/>
<path class="SlurSegment" stroke="#000000" stroke-width="4.13" stroke-linecap="round" stroke-linejoin="round" fill-rule="evenodd" d="M5028.29,1182.4 C5066.11,1250.25 5170.44,1277.94 5236.93,1237.8 C5164.83,1299.07 5060.5,1271.38 5028.29,1182.4"/>
<polyline class="LedgerLine" fill="none" stroke="#000000" stroke-width="13.23" stroke-linejoin="bevel" points="8234.27,1246.06 8396.33,1246.06" />
<polyline class="LedgerLine" fill="none" stroke="#000000" stroke-width="13.23" stroke-linejoin="bevel" points="2227.59,1246.06 2389.65,1246.06" />
<polyline class="LedgerLine" fill="none" stroke="#000000" stroke-width="13.23" stroke-linejoin="bevel" points="4292.04,2982.28 4454.1,2982.28" />
<polyline class="Stem" fill="none" stroke="#000000" stroke-width="8.27" stroke-linejoin="bevel" points="6716.82,1838.69 6716.82,2051.82" />
<polyline class="Stem" fill="none" stroke="#000000" stroke-width="8.27" stroke-linejoin="bevel" points="7645.37,1894.25 7645.37,1680.47" />
<polyline class="Stem" fill="none" stroke="#000000" stroke-width="8.27" stroke-linejoin="bevel" points="6953.78,1797.35 6953.78,2031.84" />
<polyline class="Stem" fill="none" stroke="#000000" stroke-width="8.27" stroke-linejoin="bevel" points="6867.6,1150.16 6867.6,874.677" />
<polyline class="Stem" fill="none" stroke="#000000" stroke-width="8.27" stroke-linejoin="bevel" points="7308.46,2789.48 7308.46,3002.95" />
<polyline class="Stem" fill="none" stroke="#000000" stroke-width="8.27" stroke-linejoin="bevel" points="7076.25,1191.5 7076.25,853.212" />
<polyline class="Stem" fill="none" stroke="#000000" stroke-width="8.27" stroke-linejoin="bevel" points="7103.37,2706.8 7103.37,3002.95" />
<polyline class="Stem" fill="none" stroke="#000000" stroke-width="8.27" stroke-linejoin="bevel" points="6898.27,2748.14 6898.27,3002.95" />
<polyline class="Stem" fill="none" stroke="#000000" stroke-width="8.27" stroke-linejoin="bevel" points="7284.89,1150.16 7284.89,846.412" />
<polyline class="Stem" fill="none" stroke="#000000" stroke-width="8.27" stroke-linejoin="bevel" points="6693.18,2789.48 6693.18,3002.95" />
<polyline class="Stem" fill="none" stroke="#000000" stroke-width="8.27" stroke-linejoin="bevel" points="7493.54,1108.82 7493.54,839.612" />
<polyline class="Stem" fill="none" stroke="#000000" stroke-width="8.27" stroke-linejoin="bevel" points="6366.53,2803.7 6366.53,2527.56" />
<polyline class="Stem" fill="none" stroke="#000000" stroke-width="8.27" stroke-linejoin="bevel" points="7702.19,1067.48 7702.19,832.812" />
<polyline class="Stem" fill="none" stroke="#000000" stroke-width="8.27" stroke-linejoin="bevel" points="5959.68,2706.8 5959.68,2961.61" />
<polyline class="Stem" fill="none" stroke="#000000" stroke-width="8.27" stroke-linejoin="bevel" points="5754.59,2665.46 5754.59,2940.61" />
<polyline class="Stem" fill="none" stroke="#000000" stroke-width="8.27" stroke-linejoin="bevel" points="4764.92,1026.14 4764.92,770.669" />
<polyline class="Stem" fill="none" stroke="#000000" stroke-width="8.27" stroke-linejoin="bevel" points="8051.93,1150.16 8051.93,874.016" />
<polyline class="Stem" fill="none" stroke="#000000" stroke-width="8.27" stroke-linejoin="bevel" points="6361.39,1797.35 6361.39,2072.83" />
<polyline class="Stem" fill="none" stroke="#000000" stroke-width="8.27" stroke-linejoin="bevel" points="8364.9,1232.83 8364.9,956.693" />
<polyline class="Stem" fill="none" stroke="#000000" stroke-width="8.27" stroke-linejoin="bevel" points="7718.64,2706.8 7718.64,2940.81" />
<polyline class="Stem" fill="none" stroke="#000000" stroke-width="8.27" stroke-linejoin="bevel" points="5364.6,2706.8 5364.6,2961.61" />
<polyline class="Stem" fill="none" stroke="#000000" stroke-width="8.27" stroke-linejoin="bevel" points="8677.87,1150.16 8677.87,874.016" />
<polyline class="Stem" fill="none" stroke="#000000" stroke-width="8.27" stroke-linejoin="bevel" points="1695.51,1108.82 1695.51,852.952" />
<polyline class="Stem" fill="none" stroke="#000000" stroke-width="8.27" stroke-linejoin="bevel" points="8990.84,1067.48 8990.84,791.338" />
<polyline class="Stem" fill="none" stroke="#000000" stroke-width="8.27" stroke-linejoin="bevel" points="5037.95,2803.7 5037.95,2527.56" />
<polyline class="Stem" fill="none" stroke="#000000" stroke-width="8.27" stroke-linejoin="bevel" points="4730.31,2886.38 4730.31,2610.24" />
<polyline class="Stem" fill="none" stroke="#000000" stroke-width="8.27" stroke-linejoin="bevel" points="6470.86,1191.5 6470.86,915.354" />
<polyline class="Stem" fill="none" stroke="#000000" stroke-width="8.27" stroke-linejoin="bevel" points="5077.89,1067.48 5077.89,833.071" />
<polyline class="Stem" fill="none" stroke="#000000" stroke-width="8.27" stroke-linejoin="bevel" points="7923.74,2665.46 7923.74,2920.41" />
<polyline class="Stem" fill="none" stroke="#000000" stroke-width="8.27" stroke-linejoin="bevel" points="8128.83,2624.13 8128.83,2900.02" />
<polyline class="Stem" fill="none" stroke="#000000" stroke-width="8.27" stroke-linejoin="bevel" points="6121.12,1150.16 6121.12,790.934" />
<polyline class="Stem" fill="none" stroke="#000000" stroke-width="8.27" stroke-linejoin="bevel" points="4333.72,1067.48 4333.72,791.338" />
<polyline class="Stem" fill="none" stroke="#000000" stroke-width="8.27" stroke-linejoin="bevel" points="1486.86,1067.48 1486.86,833.071" />
<polyline class="Stem" fill="none" stroke="#000000" stroke-width="8.27" stroke-linejoin="bevel" points="4422.67,2969.05 4422.67,2692.91" />
<polyline class="Stem" fill="none" stroke="#000000" stroke-width="8.27" stroke-linejoin="bevel" points="1193.18,1838.69 1193.18,2093.5" />
<polyline class="Stem" fill="none" stroke="#000000" stroke-width="8.27" stroke-linejoin="bevel" points="4115.03,2886.38 4115.03,2610.24" />
<polyline class="Stem" fill="none" stroke="#000000" stroke-width="8.27" stroke-linejoin="bevel" points="2045.25,1150.16 2045.25,874.016" />
<polyline class="Stem" fill="none" stroke="#000000" stroke-width="8.27" stroke-linejoin="bevel" points="4723.66,1838.69 4723.66,2093.5" />
<polyline class="Stem" fill="none" stroke="#000000" stroke-width="8.27" stroke-linejoin="bevel" points="1643.75,1797.35 1643.75,2072.5" />
<polyline class="Stem" fill="none" stroke="#000000" stroke-width="8.27" stroke-linejoin="bevel" points="3765.29,2845.04 3765.29,2589.17" />
<polyline class="Stem" fill="none" stroke="#000000" stroke-width="8.27" stroke-linejoin="bevel" points="1880.7,1838.69 1880.7,2093.5" />
<polyline class="Stem" fill="none" stroke="#000000" stroke-width="8.27" stroke-linejoin="bevel" points="3560.2,2803.7 3560.2,2569.3" />
<polyline class="Stem" fill="none" stroke="#000000" stroke-width="8.27" stroke-linejoin="bevel" points="2335.34,1935.59 2335.34,1659.45" />
<polyline class="Stem" fill="none" stroke="#000000" stroke-width="8.27" stroke-linejoin="bevel" points="2975.23,2927.72 2975.23,2651.57" />
<polyline class="Stem" fill="none" stroke="#000000" stroke-width="8.27" stroke-linejoin="bevel" points="2358.22,1232.83 2358.22,956.693" />
<polyline class="Stem" fill="none" stroke="#000000" stroke-width="8.27" stroke-linejoin="bevel" points="3921.53,970.582 3921.53,1225.39" />
<polyline class="Stem" fill="none" stroke="#000000" stroke-width="8.27" stroke-linejoin="bevel" points="2709.79,1921.37 2709.79,2134.84" />
<polyline class="Stem" fill="none" stroke="#000000" stroke-width="8.27" stroke-linejoin="bevel" points="5912.47,1108.82 5912.47,770.534" />
<polyline class="Stem" fill="none" stroke="#000000" stroke-width="8.27" stroke-linejoin="bevel" points="2625.49,2886.38 2625.49,2527.15" />
<polyline class="Stem" fill="none" stroke="#000000" stroke-width="8.27" stroke-linejoin="bevel" points="2946.75,1880.03 2946.75,2134.84" />
<polyline class="Stem" fill="none" stroke="#000000" stroke-width="8.27" stroke-linejoin="bevel" points="2420.4,2845.04 2420.4,2506.75" />
<polyline class="Stem" fill="none" stroke="#000000" stroke-width="8.27" stroke-linejoin="bevel" points="3183.7,1838.69 3183.7,2134.84" />
<polyline class="Stem" fill="none" stroke="#000000" stroke-width="8.27" stroke-linejoin="bevel" points="2215.3,2803.7 2215.3,2486.36" />
<polyline class="Stem" fill="none" stroke="#000000" stroke-width="8.27" stroke-linejoin="bevel" points="3420.66,1921.37 3420.66,2134.84" />
<polyline class="Stem" fill="none" stroke="#000000" stroke-width="8.27" stroke-linejoin="bevel" points="2010.21,2679.68 2010.21,2465.96" />
<polyline class="Stem" fill="none" stroke="#000000" stroke-width="8.27" stroke-linejoin="bevel" points="3657.61,1880.03 3657.61,2093.15" />
<polyline class="Stem" fill="none" stroke="#000000" stroke-width="8.27" stroke-linejoin="bevel" points="1805.12,2886.38 1805.12,2589.17" />
<polyline class="Stem" fill="none" stroke="#000000" stroke-width="8.27" stroke-linejoin="bevel" points="1600.03,2803.7 1600.03,2569.3" />
<polyline class="Stem" fill="none" stroke="#000000" stroke-width="8.27" stroke-linejoin="bevel" points="3894.56,1838.69 3894.56,2072.72" />
<polyline class="Stem" fill="none" stroke="#000000" stroke-width="8.27" stroke-linejoin="bevel" points="1292.39,2762.36 1292.39,2506.89" />
<polyline class="Stem" fill="none" stroke="#000000" stroke-width="8.27" stroke-linejoin="bevel" points="4131.52,1797.35 4131.52,2052.28" />
<polyline class="Stem" fill="none" stroke="#000000" stroke-width="8.27" stroke-linejoin="bevel" points="8478.57,2706.8 8478.57,2961.61" />
<polyline class="Stem" fill="none" stroke="#000000" stroke-width="8.27" stroke-linejoin="bevel" points="4368.47,1756.02 4368.47,2031.85" />
<polyline class="Stem" fill="none" stroke="#000000" stroke-width="8.27" stroke-linejoin="bevel" points="5703.83,1067.48 5703.83,750.135" />
<polyline class="Stem" fill="none" stroke="#000000" stroke-width="8.27" stroke-linejoin="bevel" points="5495.18,943.464 5495.18,729.735" />
<polyline class="Stem" fill="none" stroke="#000000" stroke-width="8.27" stroke-linejoin="bevel" points="7190.73,1880.03 7190.73,2114.17" />
<polyline class="Stem" fill="none" stroke="#000000" stroke-width="8.27" stroke-linejoin="bevel" points="3712.89,929.244 3712.89,1204.39" />
<polyline class="Stem" fill="none" stroke="#000000" stroke-width="8.27" stroke-linejoin="bevel" points="5286.53,1150.16 5286.53,852.952" />
<polyline class="Stem" fill="none" stroke="#000000" stroke-width="8.27" stroke-linejoin="bevel" points="2671.19,1150.16 2671.19,874.016" />
<polyline class="Stem" fill="none" stroke="#000000" stroke-width="8.27" stroke-linejoin="bevel" points="3316.14,970.582 3316.14,1225.39" />
<polyline class="Stem" fill="none" stroke="#000000" stroke-width="8.27" stroke-linejoin="bevel" points="8770.66,1935.59 8770.66,1659.45" />
<polyline class="Stem" fill="none" stroke="#000000" stroke-width="8.27" stroke-linejoin="bevel" points="8138.3,1838.69 8138.3,2093.5" />
<polyline class="Stem" fill="none" stroke="#000000" stroke-width="8.27" stroke-linejoin="bevel" points="5769.25,1756.02 5769.25,1969.14" />
<polyline class="Stem" fill="none" stroke="#000000" stroke-width="8.27" stroke-linejoin="bevel" points="2984.16,1067.48 2984.16,791.338" />
<polyline class="Stem" fill="none" stroke="#000000" stroke-width="8.27" stroke-linejoin="bevel" points="7882.33,1935.59 7882.33,1700.44" />
<polyline class="Stem" fill="none" stroke="#000000" stroke-width="8.27" stroke-linejoin="bevel" points="6006.21,1714.68 6006.21,1949.17" />
<polyline class="Stem" fill="none" stroke="#000000" stroke-width="8.27" stroke-linejoin="bevel" points="7513.55,2748.14 7513.55,2961.2" />
<path class="Hook" d="M3708.75,1204.39 C3708.75,1206.71 3710.74,1208.7 3713.06,1208.7 C3714.71,1208.7 3716.7,1207.37 3717.03,1206.05 C3717.03,1205.72 3720.01,1194.13 3720.34,1193.14 C3720.67,1191.82 3723.65,1179.24 3735.57,1159.71 C3748.47,1138.19 3768.33,1122.64 3784.88,1099.47 C3801.1,1076.3 3811.03,1054.45 3811.03,1025.32 C3811.03,995.201 3804.08,970.045 3786.54,937.938 C3785.55,935.621 3783.56,934.297 3781.57,934.297 C3780.91,934.297 3780.25,934.297 3779.92,934.628 C3778.26,935.29 3777.6,936.614 3777.6,938.6 C3777.6,939.593 3777.93,941.248 3778.6,942.572 C3791.84,973.355 3797.13,990.898 3797.13,1014.73 C3797.13,1042.2 3787.53,1056.44 3781.57,1066.7 C3760.06,1103.44 3725.3,1121.31 3711.4,1125.95 C3709.09,1126.94 3708.75,1128.59 3708.75,1129.59 L3708.75,1204.39 "/>
<path class="Hook" d="M1639.61,2072.5 C1639.61,2074.82 1641.6,2076.81 1643.92,2076.81 C1645.57,2076.81 1647.56,2075.48 1647.89,2074.16 C1647.89,2073.83 1650.87,2062.24 1651.2,2061.25 C1651.53,2059.93 1654.51,2047.35 1666.42,2027.82 C1679.33,2006.3 1699.19,1990.75 1715.74,1967.58 C1731.96,1944.41 1741.89,1922.56 1741.89,1893.43 C1741.89,1863.31 1734.94,1838.16 1717.4,1806.05 C1716.4,1803.73 1714.42,1802.41 1712.43,1802.41 C1711.77,1802.41 1711.11,1802.41 1710.78,1802.74 C1709.12,1803.4 1708.46,1804.72 1708.46,1806.71 C1708.46,1807.7 1708.79,1809.36 1709.45,1810.68 C1722.69,1841.47 1727.99,1859.01 1727.99,1882.84 C1727.99,1910.31 1718.39,1924.55 1712.43,1934.81 C1690.92,1971.55 1656.16,1989.42 1642.26,1994.06 C1639.94,1995.05 1639.61,1996.7 1639.61,1997.7 L1639.61,2072.5 "/>
<path class="Hook" d="M5750.45,2940.61 C5750.45,2942.93 5752.44,2944.92 5754.75,2944.92 C5756.41,2944.92 5758.4,2943.59 5758.73,2942.27 C5758.73,2941.94 5761.71,2930.35 5762.04,2929.36 C5762.37,2928.04 5765.35,2915.46 5777.26,2895.93 C5790.17,2874.41 5810.03,2858.86 5826.58,2835.69 C5842.8,2812.52 5852.73,2790.67 5852.73,2761.54 C5852.73,2731.42 5845.78,2706.27 5828.24,2674.16 C5827.24,2671.84 5825.26,2670.52 5823.27,2670.52 C5822.61,2670.52 5821.95,2670.52 5821.62,2670.85 C5819.96,2671.51 5819.3,2672.83 5819.3,2674.82 C5819.3,2675.81 5819.63,2677.47 5820.29,2678.79 C5833.53,2709.58 5838.83,2727.12 5838.83,2750.95 C5838.83,2778.42 5829.23,2792.66 5823.27,2802.92 C5801.76,2839.66 5767,2857.53 5753.1,2862.17 C5750.78,2863.16 5750.45,2864.81 5750.45,2865.81 L5750.45,2940.61 "/>
<path class="Hook" d="M6863.47,949.153 C6863.47,950.146 6863.8,951.801 6866.11,952.794 C6880.35,957.428 6908.81,975.302 6930.33,1012.04 C6936.29,1022.3 6945.89,1036.54 6945.89,1064.01 C6945.89,1087.84 6939.6,1112.34 6930.99,1136.17 C6930.33,1138.15 6929.67,1139.81 6930,1141.13 C6930,1143.12 6931.32,1144.44 6933.31,1144.44 C6935.62,1144.44 6937.28,1143.12 6938.6,1140.8 C6953.5,1114.32 6959.13,1083.54 6959.13,1053.42 C6957.47,1010.72 6932.98,979.274 6932.98,979.274 C6933.97,979.274 6902.52,938.561 6893.59,924.659 C6881.34,905.792 6875.71,886.925 6875.05,885.601 C6874.72,884.608 6871.74,872.692 6871.74,872.692 C6871.41,871.368 6869.76,870.044 6867.77,870.044 C6865.45,870.044 6863.47,872.03 6863.47,874.347 L6863.47,949.153 "/>
<path class="Note" d="M6949.64,1797.37 C6949.64,1811.6 6959.9,1827.49 6986.71,1827.49 C7021.14,1827.49 7057.22,1799.35 7057.22,1770.22 C7057.22,1750.7 7040.67,1739.77 7020.14,1739.77 C6988.04,1739.77 6949.64,1766.91 6949.64,1797.37"/>
<path class="Note" d="M1383.52,1094.61 C1383.52,1108.84 1393.78,1124.73 1420.59,1124.73 C1455.01,1124.73 1491.09,1096.6 1491.09,1067.47 C1491.09,1047.94 1474.54,1037.02 1454.02,1037.02 C1421.91,1037.02 1383.52,1064.16 1383.52,1094.61"/>
<path class="Note" d="M7099.23,2706.82 C7099.23,2721.05 7109.49,2736.94 7136.3,2736.94 C7170.73,2736.94 7206.81,2708.8 7206.81,2679.67 C7206.81,2660.14 7190.26,2649.22 7169.74,2649.22 C7137.63,2649.22 7099.23,2676.36 7099.23,2706.82"/>
<path class="Note" d="M6357.26,1797.37 C6357.26,1811.6 6367.52,1827.49 6394.33,1827.49 C6428.75,1827.49 6464.83,1799.35 6464.83,1770.22 C6464.83,1750.7 6448.28,1739.77 6427.76,1739.77 C6395.65,1739.77 6357.26,1766.91 6357.26,1797.37"/>
<path class="Note" d="M2880.81,1094.61 C2880.81,1108.84 2891.07,1124.73 2917.88,1124.73 C2952.31,1124.73 2988.39,1096.6 2988.39,1067.47 C2988.39,1047.94 2971.84,1037.02 2951.32,1037.02 C2919.21,1037.02 2880.81,1064.16 2880.81,1094.61"/>
<path class="Note" d="M5183.19,1177.29 C5183.19,1191.52 5193.45,1207.41 5220.26,1207.41 C5254.68,1207.41 5290.76,1179.27 5290.76,1150.15 C5290.76,1130.62 5274.21,1119.69 5253.69,1119.69 C5221.58,1119.69 5183.19,1146.84 5183.19,1177.29"/>
<path class="Note" d="M7186.6,1880.04 C7186.6,1894.28 7196.86,1910.16 7223.67,1910.16 C7258.09,1910.16 7294.17,1882.03 7294.17,1852.9 C7294.17,1833.37 7277.62,1822.45 7257.1,1822.45 C7224.99,1822.45 7186.6,1849.59 7186.6,1880.04"/>
<path class="Note" d="M6002.07,1714.69 C6002.07,1728.92 6012.33,1744.81 6039.14,1744.81 C6073.57,1744.81 6109.65,1716.68 6109.65,1687.55 C6109.65,1668.02 6093.1,1657.1 6072.58,1657.1 C6040.47,1657.1 6002.07,1684.24 6002.07,1714.69"/>
<path class="Note" d="M7542.03,1921.38 C7542.03,1935.62 7552.29,1951.5 7579.1,1951.5 C7613.52,1951.5 7649.6,1923.37 7649.6,1894.24 C7649.6,1874.71 7633.05,1863.79 7612.53,1863.79 C7580.42,1863.79 7542.03,1890.93 7542.03,1921.38"/>
<path class="Note" d="M6972.9,1218.63 C6972.9,1232.86 6983.16,1248.75 7009.97,1248.75 C7044.4,1248.75 7080.48,1220.61 7080.48,1191.48 C7080.48,1171.96 7063.93,1161.03 7043.4,1161.03 C7011.3,1161.03 6972.9,1188.17 6972.9,1218.63"/>
<path class="Note" d="M5391.83,970.595 C5391.83,984.828 5402.09,1000.72 5428.91,1000.72 C5463.33,1000.72 5499.41,972.581 5499.41,943.453 C5499.41,923.924 5482.86,913.001 5462.34,913.001 C5430.23,913.001 5391.83,940.143 5391.83,970.595"/>
<path class="Note" d="M7778.98,1962.72 C7778.98,1976.95 7789.24,1992.84 7816.05,1992.84 C7850.48,1992.84 7886.56,1964.71 7886.56,1935.58 C7886.56,1916.05 7870.01,1905.13 7849.48,1905.13 C7817.38,1905.13 7778.98,1932.27 7778.98,1962.72"/>
<path class="Note" d="M5765.12,1756.03 C5765.12,1770.26 5775.38,1786.15 5802.19,1786.15 C5836.61,1786.15 5872.69,1758.01 5872.69,1728.89 C5872.69,1709.36 5856.14,1698.43 5835.62,1698.43 C5803.51,1698.43 5765.12,1725.58 5765.12,1756.03"/>
<path class="Note" d="M2567.84,1177.29 C2567.84,1191.52 2578.1,1207.41 2604.91,1207.41 C2639.34,1207.41 2675.42,1179.27 2675.42,1150.15 C2675.42,1130.62 2658.87,1119.69 2638.35,1119.69 C2606.24,1119.69 2567.84,1146.84 2567.84,1177.29"/>
<path class="Note" d="M3312.01,970.595 C3312.01,984.828 3322.27,1000.72 3349.08,1000.72 C3383.51,1000.72 3419.59,972.581 3419.59,943.453 C3419.59,923.924 3403.04,913.001 3382.51,913.001 C3350.41,913.001 3312.01,940.143 3312.01,970.595"/>
<path class="Note" d="M8158.99,1853.27 C8148.07,1853.27 8145.75,1844.33 8145.75,1841.35 C8145.75,1825.13 8201.36,1796.67 8216.91,1796.67 C8224.86,1796.67 8230.15,1801.3 8230.15,1808.58 C8230.15,1825.13 8174.22,1853.27 8158.99,1853.27 M8204.67,1781.11 C8172.56,1781.11 8134.16,1807.92 8134.16,1838.7 C8134.16,1852.94 8144.43,1868.83 8171.24,1868.83 C8205.66,1868.83 8241.74,1840.69 8241.74,1811.56 C8241.74,1792.03 8225.19,1781.11 8204.67,1781.11"/>
<path class="Note" d="M8499.26,2721.38 C8488.33,2721.38 8486.02,2712.44 8486.02,2709.46 C8486.02,2693.24 8541.62,2664.78 8557.18,2664.78 C8565.13,2664.78 8570.42,2669.41 8570.42,2676.69 C8570.42,2693.24 8514.48,2721.38 8499.26,2721.38 M8544.93,2649.22 C8512.83,2649.22 8474.43,2676.03 8474.43,2706.82 C8474.43,2721.05 8484.69,2736.94 8511.5,2736.94 C8545.93,2736.94 8582.01,2708.8 8582.01,2679.67 C8582.01,2660.14 8565.46,2649.22 8544.93,2649.22"/>
<path class="Note" d="M8692.14,1977.28 C8681.21,1977.28 8678.9,1968.35 8678.9,1965.37 C8678.9,1949.15 8734.5,1920.68 8750.06,1920.68 C8758.01,1920.68 8763.3,1925.32 8763.3,1932.6 C8763.3,1949.15 8707.36,1977.28 8692.14,1977.28 M8737.81,1905.13 C8705.71,1905.13 8667.31,1931.94 8667.31,1962.72 C8667.31,1976.95 8677.57,1992.84 8704.38,1992.84 C8738.81,1992.84 8774.89,1964.71 8774.89,1935.58 C8774.89,1916.05 8758.34,1905.13 8737.81,1905.13"/>
<path class="Note" d="M5600.48,1094.61 C5600.48,1108.84 5610.74,1124.73 5637.55,1124.73 C5671.98,1124.73 5708.05,1096.6 5708.05,1067.47 C5708.05,1047.94 5691.5,1037.02 5670.98,1037.02 C5638.88,1037.02 5600.48,1064.16 5600.48,1094.61"/>
<path class="Note" d="M4744.35,1853.27 C4733.42,1853.27 4731.11,1844.33 4731.11,1841.35 C4731.11,1825.13 4786.71,1796.67 4802.27,1796.67 C4810.22,1796.67 4815.51,1801.3 4815.51,1808.58 C4815.51,1825.13 4759.57,1853.27 4744.35,1853.27 M4790.02,1781.11 C4757.92,1781.11 4719.52,1807.92 4719.52,1838.7 C4719.52,1852.94 4729.78,1868.83 4756.59,1868.83 C4791.02,1868.83 4827.1,1840.69 4827.1,1811.56 C4827.1,1792.03 4810.55,1781.11 4790.02,1781.11"/>
<path class="Note" d="M3708.75,929.256 C3708.75,943.489 3719.02,959.377 3745.83,959.377 C3780.25,959.377 3816.33,931.242 3816.33,902.114 C3816.33,882.585 3799.78,871.662 3779.26,871.662 C3747.15,871.662 3708.75,898.804 3708.75,929.256"/>
<path class="Note" d="M4364.34,1756.03 C4364.34,1770.26 4374.6,1786.15 4401.41,1786.15 C4435.84,1786.15 4471.91,1758.01 4471.91,1728.89 C4471.91,1709.36 4455.36,1698.43 4434.84,1698.43 C4402.74,1698.43 4364.34,1725.58 4364.34,1756.03"/>
<path class="Note" d="M4127.38,1797.37 C4127.38,1811.6 4137.65,1827.49 4164.46,1827.49 C4198.88,1827.49 4234.96,1799.35 4234.96,1770.22 C4234.96,1750.7 4218.41,1739.77 4197.89,1739.77 C4165.78,1739.77 4127.38,1766.91 4127.38,1797.37"/>
<path class="Note" d="M2254.87,1259.96 C2254.87,1274.2 2265.13,1290.09 2291.94,1290.09 C2326.37,1290.09 2362.45,1261.95 2362.45,1232.82 C2362.45,1213.29 2345.9,1202.37 2325.38,1202.37 C2293.27,1202.37 2254.87,1229.51 2254.87,1259.96"/>
<path class="Note" d="M6894.14,2748.15 C6894.14,2762.39 6904.4,2778.27 6931.21,2778.27 C6965.64,2778.27 7001.72,2750.14 7001.72,2721.01 C7001.72,2701.48 6985.17,2690.56 6964.64,2690.56 C6932.54,2690.56 6894.14,2717.7 6894.14,2748.15"/>
<path class="Note" d="M7304.32,2789.49 C7304.32,2803.73 7314.59,2819.61 7341.4,2819.61 C7375.82,2819.61 7411.9,2791.48 7411.9,2762.35 C7411.9,2742.82 7395.35,2731.9 7374.83,2731.9 C7342.72,2731.9 7304.32,2759.04 7304.32,2789.49"/>
<path class="Note" d="M3890.43,1838.7 C3890.43,1852.94 3900.69,1868.83 3927.5,1868.83 C3961.93,1868.83 3998.01,1840.69 3998.01,1811.56 C3998.01,1792.03 3981.46,1781.11 3960.93,1781.11 C3928.83,1781.11 3890.43,1808.25 3890.43,1838.7"/>
<path class="Note" d="M1189.04,2789.49 C1189.04,2803.73 1199.3,2819.61 1226.11,2819.61 C1260.54,2819.61 1296.62,2791.48 1296.62,2762.35 C1296.62,2742.82 1280.07,2731.9 1259.54,2731.9 C1227.44,2731.9 1189.04,2759.04 1189.04,2789.49"/>
<path class="Note" d="M7509.42,2748.15 C7509.42,2762.39 7519.68,2778.27 7546.49,2778.27 C7580.91,2778.27 7616.99,2750.14 7616.99,2721.01 C7616.99,2701.48 7600.44,2690.56 7579.92,2690.56 C7547.81,2690.56 7509.42,2717.7 7509.42,2748.15"/>
<path class="Note" d="M1496.68,2830.83 C1496.68,2845.06 1506.94,2860.95 1533.75,2860.95 C1568.18,2860.95 1604.26,2832.82 1604.26,2803.69 C1604.26,2784.16 1587.71,2773.24 1567.18,2773.24 C1535.08,2773.24 1496.68,2800.38 1496.68,2830.83"/>
<path class="Note" d="M5809.13,1135.95 C5809.13,1150.18 5819.39,1166.07 5846.2,1166.07 C5880.62,1166.07 5916.7,1137.94 5916.7,1108.81 C5916.7,1089.28 5900.15,1078.36 5879.63,1078.36 C5847.52,1078.36 5809.13,1105.5 5809.13,1135.95"/>
<path class="Note" d="M3653.48,1880.04 C3653.48,1894.28 3663.74,1910.16 3690.55,1910.16 C3724.97,1910.16 3761.05,1882.03 3761.05,1852.9 C3761.05,1833.37 3744.5,1822.45 3723.98,1822.45 C3691.87,1822.45 3653.48,1849.59 3653.48,1880.04"/>
<path class="Note" d="M1701.77,2913.51 C1701.77,2927.74 1712.03,2943.63 1738.84,2943.63 C1773.27,2943.63 1809.35,2915.49 1809.35,2886.37 C1809.35,2866.84 1792.8,2855.91 1772.28,2855.91 C1740.17,2855.91 1701.77,2883.06 1701.77,2913.51"/>
<path class="Note" d="M3416.52,1921.38 C3416.52,1935.62 3426.78,1951.5 3453.59,1951.5 C3488.02,1951.5 3524.1,1923.37 3524.1,1894.24 C3524.1,1874.71 3507.55,1863.79 3487.02,1863.79 C3454.92,1863.79 3416.52,1890.93 3416.52,1921.38"/>
<path class="Note" d="M1906.86,2706.82 C1906.86,2721.05 1917.13,2736.94 1943.94,2736.94 C1978.36,2736.94 2014.44,2708.8 2014.44,2679.67 C2014.44,2660.14 1997.89,2649.22 1977.37,2649.22 C1945.26,2649.22 1906.86,2676.36 1906.86,2706.82"/>
<path class="Note" d="M8124.69,2624.14 C8124.69,2638.37 8134.95,2654.26 8161.77,2654.26 C8196.19,2654.26 8232.27,2626.12 8232.27,2597 C8232.27,2577.47 8215.72,2566.54 8195.2,2566.54 C8163.09,2566.54 8124.69,2593.69 8124.69,2624.14"/>
<path class="Note" d="M3179.57,1838.7 C3179.57,1852.94 3189.83,1868.83 3216.64,1868.83 C3251.06,1868.83 3287.14,1840.69 3287.14,1811.56 C3287.14,1792.03 3270.59,1781.11 3250.07,1781.11 C3217.96,1781.11 3179.57,1808.25 3179.57,1838.7"/>
<path class="Note" d="M2111.96,2830.83 C2111.96,2845.06 2122.22,2860.95 2149.03,2860.95 C2183.45,2860.95 2219.53,2832.82 2219.53,2803.69 C2219.53,2784.16 2202.98,2773.24 2182.46,2773.24 C2150.35,2773.24 2111.96,2800.38 2111.96,2830.83"/>
<path class="Note" d="M2942.61,1880.04 C2942.61,1894.28 2952.87,1910.16 2979.68,1910.16 C3014.11,1910.16 3050.19,1882.03 3050.19,1852.9 C3050.19,1833.37 3033.64,1822.45 3013.12,1822.45 C2981.01,1822.45 2942.61,1849.59 2942.61,1880.04"/>
<path class="Note" d="M2317.05,2872.17 C2317.05,2886.4 2327.31,2902.29 2354.12,2902.29 C2388.54,2902.29 2424.62,2874.16 2424.62,2845.03 C2424.62,2825.5 2408.07,2814.58 2387.55,2814.58 C2355.44,2814.58 2317.05,2841.72 2317.05,2872.17"/>
<path class="Note" d="M6017.77,1177.29 C6017.77,1191.52 6028.03,1207.41 6054.85,1207.41 C6089.27,1207.41 6125.35,1179.27 6125.35,1150.15 C6125.35,1130.62 6108.8,1119.69 6088.28,1119.69 C6056.17,1119.69 6017.77,1146.84 6017.77,1177.29"/>
<path class="Note" d="M2522.14,2913.51 C2522.14,2927.74 2532.4,2943.63 2559.21,2943.63 C2593.64,2943.63 2629.72,2915.49 2629.72,2886.37 C2629.72,2866.84 2613.17,2855.91 2592.64,2855.91 C2560.54,2855.91 2522.14,2883.06 2522.14,2913.51"/>
<path class="Note" d="M2705.66,1921.38 C2705.66,1935.62 2715.92,1951.5 2742.73,1951.5 C2777.15,1951.5 2813.23,1923.37 2813.23,1894.24 C2813.23,1874.71 2796.68,1863.79 2776.16,1863.79 C2744.05,1863.79 2705.66,1890.93 2705.66,1921.38"/>
<path class="Note" d="M3917.4,970.595 C3917.4,984.828 3927.66,1000.72 3954.47,1000.72 C3988.9,1000.72 4024.98,972.581 4024.98,943.453 C4024.98,923.924 4008.43,913.001 3987.9,913.001 C3955.8,913.001 3917.4,940.143 3917.4,970.595"/>
<path class="Note" d="M2232,1962.72 C2232,1976.95 2242.26,1992.84 2269.07,1992.84 C2303.49,1992.84 2339.57,1964.71 2339.57,1935.58 C2339.57,1916.05 2323.02,1905.13 2302.5,1905.13 C2270.39,1905.13 2232,1932.27 2232,1962.72"/>
<path class="Note" d="M2896.7,2969.41 C2885.78,2969.41 2883.46,2960.47 2883.46,2957.49 C2883.46,2941.28 2939.07,2912.81 2954.63,2912.81 C2962.57,2912.81 2967.87,2917.44 2967.87,2924.73 C2967.87,2941.28 2911.93,2969.41 2896.7,2969.41 M2942.38,2897.25 C2910.27,2897.25 2871.88,2924.06 2871.88,2954.85 C2871.88,2969.08 2882.14,2984.97 2908.95,2984.97 C2943.37,2984.97 2979.45,2956.83 2979.45,2927.7 C2979.45,2908.18 2962.9,2897.25 2942.38,2897.25"/>
<path class="Note" d="M7919.6,2665.48 C7919.6,2679.71 7929.86,2695.6 7956.67,2695.6 C7991.1,2695.6 8027.18,2667.46 8027.18,2638.33 C8027.18,2618.81 8010.63,2607.88 7990.1,2607.88 C7958,2607.88 7919.6,2635.02 7919.6,2665.48"/>
<path class="Note" d="M1876.57,1838.7 C1876.57,1852.94 1886.83,1868.83 1913.64,1868.83 C1948.06,1868.83 1984.14,1840.69 1984.14,1811.56 C1984.14,1792.03 1967.59,1781.11 1947.07,1781.11 C1914.96,1781.11 1876.57,1808.25 1876.57,1838.7"/>
<path class="Note" d="M3456.86,2830.83 C3456.86,2845.06 3467.12,2860.95 3493.93,2860.95 C3528.35,2860.95 3564.43,2832.82 3564.43,2803.69 C3564.43,2784.16 3547.88,2773.24 3527.36,2773.24 C3495.25,2773.24 3456.86,2800.38 3456.86,2830.83"/>
<path class="Note" d="M4974.54,1094.61 C4974.54,1108.84 4984.8,1124.73 5011.61,1124.73 C5046.04,1124.73 5082.11,1096.6 5082.11,1067.47 C5082.11,1047.94 5065.56,1037.02 5045.04,1037.02 C5012.94,1037.02 4974.54,1064.16 4974.54,1094.61"/>
<path class="Note" d="M1639.61,1797.37 C1639.61,1811.6 1649.87,1827.49 1676.68,1827.49 C1711.11,1827.49 1747.19,1799.35 1747.19,1770.22 C1747.19,1750.7 1730.64,1739.77 1710.12,1739.77 C1678.01,1739.77 1639.61,1766.91 1639.61,1797.37"/>
<path class="Note" d="M3661.95,2872.17 C3661.95,2886.4 3672.21,2902.29 3699.02,2902.29 C3733.44,2902.29 3769.52,2874.16 3769.52,2845.03 C3769.52,2825.5 3752.97,2814.58 3732.45,2814.58 C3700.34,2814.58 3661.95,2841.72 3661.95,2872.17"/>
<path class="Note" d="M1941.9,1177.29 C1941.9,1191.52 1952.16,1207.41 1978.97,1207.41 C2013.4,1207.41 2049.48,1179.27 2049.48,1150.15 C2049.48,1130.62 2032.93,1119.69 2012.41,1119.69 C1980.3,1119.69 1941.9,1146.84 1941.9,1177.29"/>
<path class="Note" d="M6712.69,1838.7 C6712.69,1852.94 6722.95,1868.83 6749.76,1868.83 C6784.18,1868.83 6820.26,1840.69 6820.26,1811.56 C6820.26,1792.03 6803.71,1781.11 6783.19,1781.11 C6751.08,1781.11 6712.69,1808.25 6712.69,1838.7"/>
<path class="Note" d="M1189.04,1838.7 C1189.04,1852.94 1199.3,1868.83 1226.11,1868.83 C1260.54,1868.83 1296.62,1840.69 1296.62,1811.56 C1296.62,1792.03 1280.07,1781.11 1259.54,1781.11 C1227.44,1781.11 1189.04,1808.25 1189.04,1838.7"/>
<path class="Note" d="M4011.69,2913.51 C4011.69,2927.74 4021.95,2943.63 4048.76,2943.63 C4083.18,2943.63 4119.26,2915.49 4119.26,2886.37 C4119.26,2866.84 4102.71,2855.91 4082.19,2855.91 C4050.08,2855.91 4011.69,2883.06 4011.69,2913.51"/>
<path class="Note" d="M6689.05,2789.49 C6689.05,2803.73 6699.31,2819.61 6726.12,2819.61 C6760.54,2819.61 6796.62,2791.48 6796.62,2762.35 C6796.62,2742.82 6780.07,2731.9 6759.55,2731.9 C6727.44,2731.9 6689.05,2759.04 6689.05,2789.49"/>
<path class="Note" d="M7181.55,1177.29 C7181.55,1191.52 7191.81,1207.41 7218.62,1207.41 C7253.04,1207.41 7289.12,1179.27 7289.12,1150.15 C7289.12,1130.62 7272.57,1119.69 7252.05,1119.69 C7219.94,1119.69 7181.55,1146.84 7181.55,1177.29"/>
<path class="Note" d="M4319.32,2996.19 C4319.32,3010.42 4329.58,3026.31 4356.4,3026.31 C4390.82,3026.31 4426.9,2998.17 4426.9,2969.04 C4426.9,2949.51 4410.35,2938.59 4389.83,2938.59 C4357.72,2938.59 4319.32,2965.73 4319.32,2996.19"/>
<path class="Note" d="M4230.37,1094.61 C4230.37,1108.84 4240.63,1124.73 4267.44,1124.73 C4301.87,1124.73 4337.95,1096.6 4337.95,1067.47 C4337.95,1047.94 4321.4,1037.02 4300.87,1037.02 C4268.77,1037.02 4230.37,1064.16 4230.37,1094.61"/>
<path class="Note" d="M4626.96,2913.51 C4626.96,2927.74 4637.22,2943.63 4664.03,2943.63 C4698.46,2943.63 4734.54,2915.49 4734.54,2886.37 C4734.54,2866.84 4717.99,2855.91 4697.46,2855.91 C4665.36,2855.91 4626.96,2883.06 4626.96,2913.51"/>
<path class="Note" d="M8887.49,1094.61 C8887.49,1108.84 8897.75,1124.73 8924.56,1124.73 C8958.99,1124.73 8995.06,1096.6 8995.06,1067.47 C8995.06,1047.94 8978.51,1037.02 8957.99,1037.02 C8925.89,1037.02 8887.49,1064.16 8887.49,1094.61"/>
<path class="Note" d="M4934.6,2830.83 C4934.6,2845.06 4944.86,2860.95 4971.67,2860.95 C5006.1,2860.95 5042.18,2832.82 5042.18,2803.69 C5042.18,2784.16 5025.63,2773.24 5005.1,2773.24 C4973,2773.24 4934.6,2800.38 4934.6,2830.83"/>
<path class="Note" d="M1592.16,1135.95 C1592.16,1150.18 1602.43,1166.07 1629.24,1166.07 C1663.66,1166.07 1699.74,1137.94 1699.74,1108.81 C1699.74,1089.28 1683.19,1078.36 1662.67,1078.36 C1630.56,1078.36 1592.16,1105.5 1592.16,1135.95"/>
<path class="Note" d="M8574.52,1177.29 C8574.52,1191.52 8584.78,1207.41 8611.59,1207.41 C8646.02,1207.41 8682.09,1179.27 8682.09,1150.15 C8682.09,1130.62 8665.54,1119.69 8645.02,1119.69 C8612.92,1119.69 8574.52,1146.84 8574.52,1177.29"/>
<path class="Note" d="M8261.55,1259.96 C8261.55,1274.2 8271.81,1290.09 8298.62,1290.09 C8333.05,1290.09 8369.12,1261.95 8369.12,1232.82 C8369.12,1213.29 8352.57,1202.37 8332.05,1202.37 C8299.95,1202.37 8261.55,1229.51 8261.55,1259.96"/>
<path class="Note" d="M5360.47,2706.82 C5360.47,2721.05 5370.73,2736.94 5397.54,2736.94 C5431.96,2736.94 5468.04,2708.8 5468.04,2679.67 C5468.04,2660.14 5451.49,2649.22 5430.97,2649.22 C5398.86,2649.22 5360.47,2676.36 5360.47,2706.82"/>
<path class="Note" d="M7714.51,2706.82 C7714.51,2721.05 7724.77,2736.94 7751.58,2736.94 C7786.01,2736.94 7822.08,2708.8 7822.08,2679.67 C7822.08,2660.14 7805.53,2649.22 7785.01,2649.22 C7752.91,2649.22 7714.51,2676.36 7714.51,2706.82"/>
<path class="Note" d="M7948.58,1177.29 C7948.58,1191.52 7958.84,1207.41 7985.65,1207.41 C8020.08,1207.41 8056.15,1179.27 8056.15,1150.15 C8056.15,1130.62 8039.6,1119.69 8019.08,1119.69 C7986.98,1119.69 7948.58,1146.84 7948.58,1177.29"/>
<path class="Note" d="M4661.57,1053.27 C4661.57,1067.5 4671.83,1083.39 4698.64,1083.39 C4733.07,1083.39 4769.14,1055.26 4769.14,1026.13 C4769.14,1006.6 4752.59,995.678 4732.07,995.678 C4699.97,995.678 4661.57,1022.82 4661.57,1053.27"/>
<path class="Note" d="M5750.45,2665.48 C5750.45,2679.71 5760.71,2695.6 5787.52,2695.6 C5821.95,2695.6 5858.03,2667.46 5858.03,2638.33 C5858.03,2618.81 5841.48,2607.88 5820.95,2607.88 C5788.85,2607.88 5750.45,2635.02 5750.45,2665.48"/>
<path class="Note" d="M7598.84,1094.61 C7598.84,1108.84 7609.1,1124.73 7635.91,1124.73 C7670.34,1124.73 7706.42,1096.6 7706.42,1067.47 C7706.42,1047.94 7689.87,1037.02 7669.34,1037.02 C7637.24,1037.02 7598.84,1064.16 7598.84,1094.61"/>
<path class="Note" d="M5955.54,2706.82 C5955.54,2721.05 5965.8,2736.94 5992.62,2736.94 C6027.04,2736.94 6063.12,2708.8 6063.12,2679.67 C6063.12,2660.14 6046.57,2649.22 6026.05,2649.22 C5993.94,2649.22 5955.54,2676.36 5955.54,2706.82"/>
<path class="Note" d="M7390.19,1135.95 C7390.19,1150.18 7400.46,1166.07 7427.27,1166.07 C7461.69,1166.07 7497.77,1137.94 7497.77,1108.81 C7497.77,1089.28 7481.22,1078.36 7460.7,1078.36 C7428.59,1078.36 7390.19,1105.5 7390.19,1135.95"/>
<path class="Note" d="M6263.18,2830.83 C6263.18,2845.06 6273.44,2860.95 6300.25,2860.95 C6334.68,2860.95 6370.76,2832.82 6370.76,2803.69 C6370.76,2784.16 6354.21,2773.24 6333.68,2773.24 C6301.58,2773.24 6263.18,2800.38 6263.18,2830.83"/>
<path class="Note" d="M6367.51,1218.63 C6367.51,1232.86 6377.77,1248.75 6404.58,1248.75 C6439.01,1248.75 6475.09,1220.61 6475.09,1191.48 C6475.09,1171.96 6458.54,1161.03 6438.01,1161.03 C6405.91,1161.03 6367.51,1188.17 6367.51,1218.63"/>
<path class="Note" d="M6764.25,1177.29 C6764.25,1191.52 6774.52,1207.41 6801.33,1207.41 C6835.75,1207.41 6871.83,1179.27 6871.83,1150.15 C6871.83,1130.62 6855.28,1119.69 6834.76,1119.69 C6802.65,1119.69 6764.25,1146.84 6764.25,1177.29"/>
<path class="Clef" d="M909.689,2017 C903.069,2018.33 896.78,2018.99 890.491,2018.99 C843.158,2018.99 802.776,1985.89 802.776,1935.91 C802.776,1895.53 831.242,1859.45 860.37,1834.29 C865.997,1829.33 871.293,1824.69 876.258,1819.73 C879.237,1837.6 881.554,1853.16 883.871,1866.73 C853.75,1875.67 833.228,1907.44 833.228,1938.56 C833.228,1961.73 851.433,1993.5 877.913,1993.5 C880.561,1993.5 883.54,1992.18 883.54,1989.2 C883.54,1986.22 880.23,1984.57 876.258,1981.92 C863.349,1973.97 856.067,1965.37 856.067,1949.15 C856.067,1928.96 870.962,1912.74 890.491,1908.11 L909.689,2017 M880.561,1676.74 C883.54,1663.5 898.766,1628.74 915.978,1628.74 C920.943,1628.74 928.887,1644.96 928.887,1667.8 C928.887,1702.22 903.4,1728.04 880.561,1750.55 C878.575,1737.31 876.92,1724.4 876.92,1710.5 C876.92,1698.25 877.913,1687 880.561,1676.74 M956.691,1955.77 C956.691,1979.27 947.092,2003.43 923.591,2013.03 C916.64,1973.31 907.703,1920.68 905.386,1906.12 C935.176,1906.12 956.691,1926.31 956.691,1955.77 M811.051,2118.62 C811.051,2140.47 827.932,2169.26 872.617,2169.26 C888.174,2169.26 901.745,2165.29 913.661,2158.01 C931.535,2145.43 936.169,2123.59 936.169,2102.73 C936.169,2089.82 934.183,2074.93 930.873,2056.06 C929.88,2049.44 927.894,2039.51 925.908,2026.6 C958.346,2016.01 982.509,1982.25 982.509,1948.16 C982.509,1898.18 947.092,1864.41 898.766,1864.41 C895.456,1844.55 892.146,1825.02 889.167,1806.49 C924.253,1769.75 948.416,1728.37 948.416,1675.74 C948.416,1645.62 939.148,1621.13 933.852,1609.21 C925.908,1592.33 916.309,1580.75 910.351,1580.75 C908.034,1580.75 897.773,1584.72 886.85,1597.63 C865.666,1622.78 859.708,1665.15 859.708,1692.96 C859.708,1710.83 861.363,1727.05 866.99,1764.12 C866.659,1764.45 849.447,1781.99 842.496,1787.62 C812.375,1815.76 770.669,1855.81 770.669,1922.01 C770.669,1983.9 824.622,2032.56 886.188,2032.56 C895.787,2032.56 904.724,2031.57 912.337,2030.24 C918.626,2062.02 922.267,2085.19 922.267,2102.73 C922.267,2137.16 904.724,2155.36 871.293,2155.36 C863.349,2155.36 856.398,2153.71 855.736,2153.71 C855.405,2153.38 854.743,2153.05 854.743,2152.71 C854.743,2152.05 855.405,2151.72 856.398,2151.39 C871.955,2149.07 887.512,2135.83 887.512,2114.65 C887.512,2096.78 873.941,2077.91 849.116,2077.91 C825.946,2077.91 811.051,2096.78 811.051,2118.62"/>
<path class="Clef" d="M909.689,2885.11 C903.069,2886.44 896.78,2887.1 890.491,2887.1 C843.158,2887.1 802.776,2854 802.776,2804.02 C802.776,2763.64 831.242,2727.56 860.37,2702.4 C865.997,2697.44 871.293,2692.8 876.258,2687.84 C879.237,2705.71 881.554,2721.27 883.871,2734.84 C853.75,2743.78 833.228,2775.55 833.228,2806.67 C833.228,2829.84 851.433,2861.61 877.913,2861.61 C880.561,2861.61 883.54,2860.29 883.54,2857.31 C883.54,2854.33 880.23,2852.68 876.258,2850.03 C863.349,2842.08 856.067,2833.48 856.067,2817.26 C856.067,2797.07 870.962,2780.85 890.491,2776.22 L909.689,2885.11 M880.561,2544.85 C883.54,2531.61 898.766,2496.85 915.978,2496.85 C920.943,2496.85 928.887,2513.07 928.887,2535.91 C928.887,2570.33 903.4,2596.15 880.561,2618.66 C878.575,2605.42 876.92,2592.51 876.92,2578.61 C876.92,2566.36 877.913,2555.11 880.561,2544.85 M956.691,2823.88 C956.691,2847.38 947.092,2871.54 923.591,2881.14 C916.64,2841.42 907.703,2788.79 905.386,2774.23 C935.176,2774.23 956.691,2794.42 956.691,2823.88 M811.051,2986.73 C811.051,3008.58 827.932,3037.37 872.617,3037.37 C888.174,3037.37 901.745,3033.4 913.661,3026.12 C931.535,3013.54 936.169,2991.7 936.169,2970.84 C936.169,2957.93 934.183,2943.04 930.873,2924.17 C929.88,2917.55 927.894,2907.62 925.908,2894.71 C958.346,2884.12 982.509,2850.36 982.509,2816.27 C982.509,2766.29 947.092,2732.52 898.766,2732.52 C895.456,2712.66 892.146,2693.13 889.167,2674.6 C924.253,2637.86 948.416,2596.48 948.416,2543.85 C948.416,2513.73 939.148,2489.24 933.852,2477.32 C925.908,2460.44 916.309,2448.86 910.351,2448.86 C908.034,2448.86 897.773,2452.83 886.85,2465.74 C865.666,2490.89 859.708,2533.26 859.708,2561.07 C859.708,2578.94 861.363,2595.16 866.99,2632.23 C866.659,2632.56 849.447,2650.1 842.496,2655.73 C812.375,2683.87 770.669,2723.92 770.669,2790.12 C770.669,2852.01 824.622,2900.67 886.188,2900.67 C895.787,2900.67 904.724,2899.68 912.337,2898.35 C918.626,2930.13 922.267,2953.3 922.267,2970.84 C922.267,3005.27 904.724,3023.47 871.293,3023.47 C863.349,3023.47 856.398,3021.82 855.736,3021.82 C855.405,3021.49 854.743,3021.16 854.743,3020.82 C854.743,3020.16 855.405,3019.83 856.398,3019.5 C871.955,3017.18 887.512,3003.94 887.512,2982.76 C887.512,2964.89 873.941,2946.02 849.116,2946.02 C825.946,2946.02 811.051,2964.89 811.051,2986.73"/>
<path class="Clef" d="M909.689,1148.89 C903.069,1150.22 896.78,1150.88 890.491,1150.88 C843.158,1150.88 802.776,1117.78 802.776,1067.8 C802.776,1027.42 831.242,991.338 860.37,966.182 C865.997,961.217 871.293,956.583 876.258,951.618 C879.237,969.492 881.554,985.049 883.871,998.62 C853.75,1007.56 833.228,1039.33 833.228,1070.45 C833.228,1093.62 851.433,1125.39 877.913,1125.39 C880.561,1125.39 883.54,1124.07 883.54,1121.09 C883.54,1118.11 880.23,1116.46 876.258,1113.81 C863.349,1105.86 856.067,1097.26 856.067,1081.04 C856.067,1060.85 870.962,1044.63 890.491,1040 L909.689,1148.89 M880.561,808.626 C883.54,795.386 898.766,760.631 915.978,760.631 C920.943,760.631 928.887,776.85 928.887,799.689 C928.887,834.113 903.4,859.931 880.561,882.439 C878.575,869.199 876.92,856.29 876.92,842.388 C876.92,830.141 877.913,818.887 880.561,808.626 M956.691,1087.66 C956.691,1111.16 947.092,1135.32 923.591,1144.92 C916.64,1105.2 907.703,1052.57 905.386,1038.01 C935.176,1038.01 956.691,1058.2 956.691,1087.66 M811.051,1250.51 C811.051,1272.36 827.932,1301.15 872.617,1301.15 C888.174,1301.15 901.745,1297.18 913.661,1289.9 C931.535,1277.32 936.169,1255.48 936.169,1234.62 C936.169,1221.71 934.183,1206.82 930.873,1187.95 C929.88,1181.33 927.894,1171.4 925.908,1158.49 C958.346,1147.9 982.509,1114.14 982.509,1080.05 C982.509,1030.07 947.092,996.303 898.766,996.303 C895.456,976.443 892.146,956.914 889.167,938.378 C924.253,901.637 948.416,860.262 948.416,807.633 C948.416,777.512 939.148,753.018 933.852,741.102 C925.908,724.221 916.309,712.636 910.351,712.636 C908.034,712.636 897.773,716.608 886.85,729.517 C865.666,754.673 859.708,797.041 859.708,824.845 C859.708,842.719 861.363,858.938 866.99,896.01 C866.659,896.341 849.447,913.884 842.496,919.511 C812.375,947.646 770.669,987.697 770.669,1053.9 C770.669,1115.79 824.622,1164.45 886.188,1164.45 C895.787,1164.45 904.724,1163.46 912.337,1162.13 C918.626,1193.91 922.267,1217.08 922.267,1234.62 C922.267,1269.05 904.724,1287.25 871.293,1287.25 C863.349,1287.25 856.398,1285.6 855.736,1285.6 C855.405,1285.27 854.743,1284.94 854.743,1284.6 C854.743,1283.94 855.405,1283.61 856.398,1283.28 C871.955,1280.96 887.512,1267.72 887.512,1246.54 C887.512,1228.67 873.941,1209.8 849.116,1209.8 C825.946,1209.8 811.051,1228.67 811.051,1250.51"/>
<path class="TimeSig" d="M1172.6,938.782 C1164.33,944.078 1158.37,953.677 1158.37,964.269 C1158.37,965.593 1158.37,966.917 1158.7,968.241 C1160.35,981.812 1171.28,992.404 1184.85,994.059 L1188.49,994.059 C1205.04,994.059 1218.28,980.819 1218.28,964.269 L1218.28,962.283 C1218.28,960.959 1217.95,958.642 1217.62,957.318 C1214.64,943.085 1201.73,912.633 1145.46,912.633 C1073.3,912.633 1065.03,972.544 1065.03,994.059 C1065.03,1033.45 1069.99,1082.77 1152.74,1082.77 C1185.51,1082.77 1211,1063.57 1212.32,1028.15 C1212.32,1026.5 1211.33,1025.5 1209.67,1025.5 L1205.37,1025.5 C1204.05,1025.5 1202.72,1026.83 1202.72,1028.15 C1201.4,1055.63 1181.87,1072.18 1152.74,1072.18 C1123.94,1072.18 1110.04,1056.62 1110.04,1027.49 L1110.04,964.269 C1110.04,945.733 1117.32,924.549 1146.78,924.549 C1162.34,924.549 1169.29,930.176 1172.93,935.803 C1173.26,936.465 1173.26,936.796 1173.26,937.458 C1173.26,937.789 1173.26,938.451 1172.6,938.782"/>
<path class="Beam" fill-rule="evenodd" d="M5073.75,811.914 L5290.67,832.583 L5290.67,874.109 L5073.75,853.44 L5073.75,811.914 "/>
<path class="Beam" fill-rule="evenodd" d="M7072.11,832.666 L7706.32,811.997 L7706.32,853.357 L7072.11,874.027 L7072.11,832.666 "/>
<path class="Beam" fill-rule="evenodd" d="M6689.05,2982.28 L7312.59,2982.28 L7312.59,3023.62 L6689.05,3023.62 L6689.05,2982.28 "/>
<path class="Beam" fill-rule="evenodd" d="M7509.42,2940.84 L8132.96,2878.83 L8132.96,2920.38 L7509.42,2982.39 L7509.42,2940.84 "/>
<path class="Beam" fill-rule="evenodd" d="M1482.73,811.914 L1699.64,832.583 L1699.64,874.109 L1482.73,853.44 L1482.73,811.914 "/>
<path class="Beam" fill-rule="evenodd" d="M3556.07,2548.13 L3769.43,2568.8 L3769.43,2610.33 L3556.07,2589.66 L3556.07,2548.13 "/>
<path class="Beam" fill-rule="evenodd" d="M2705.66,2114.17 L3424.79,2114.17 L3424.79,2155.51 L2705.66,2155.51 L2705.66,2114.17 "/>
<path class="Beam" fill-rule="evenodd" d="M2006.08,2444.78 L2629.62,2506.79 L2629.62,2548.33 L2006.08,2486.32 L2006.08,2444.78 "/>
<path class="Beam" fill-rule="evenodd" d="M1595.89,2548.13 L1809.25,2568.8 L1809.25,2610.33 L1595.89,2589.66 L1595.89,2548.13 "/>
<path class="Beam" fill-rule="evenodd" d="M3653.48,2072.76 L4372.61,2010.75 L4372.61,2052.24 L3653.48,2114.25 L3653.48,2072.76 "/>
<path class="Beam" fill-rule="evenodd" d="M5491.05,708.563 L6125.25,770.571 L6125.25,812.106 L5491.05,750.098 L5491.05,708.563 "/>
<path class="Beam" fill-rule="evenodd" d="M5765.12,1948.75 L6010.34,1928.08 L6010.34,1969.56 L5765.12,1990.23 L5765.12,1948.75 "/>
<path class="Beam" fill-rule="evenodd" d="M7641.24,1659.38 L7886.46,1680.04 L7886.46,1721.53 L7641.24,1700.86 L7641.24,1659.38 "/>
<path class="Beam" fill-rule="evenodd" d="M6712.69,2031.42 L6957.91,2010.75 L6957.91,2052.24 L6712.69,2072.91 L6712.69,2031.42 "/>
<path class="NoteDot" d="M6516.34,1204.72 C6516.34,1213.99 6523.63,1221.27 6532.89,1221.27 C6542.16,1221.27 6549.44,1213.99 6549.44,1204.72 C6549.44,1195.46 6542.16,1188.17 6532.89,1188.17 C6523.63,1188.17 6516.34,1195.46 6516.34,1204.72"/>
<path class="NoteDot" d="M5509.3,2692.91 C5509.3,2702.18 5516.58,2709.46 5525.85,2709.46 C5535.12,2709.46 5542.4,2702.18 5542.4,2692.91 C5542.4,2683.65 5535.12,2676.36 5525.85,2676.36 C5516.58,2676.36 5509.3,2683.65 5509.3,2692.91"/>
<path class="NoteDot" d="M3020.71,2940.94 C3020.71,2950.21 3027.99,2957.49 3037.26,2957.49 C3046.53,2957.49 3053.81,2950.21 3053.81,2940.94 C3053.81,2931.68 3046.53,2924.39 3037.26,2924.39 C3027.99,2924.39 3020.71,2931.68 3020.71,2940.94"/>
<path class="NoteDot" d="M4868.35,1824.8 C4868.35,1834.07 4875.64,1841.35 4884.9,1841.35 C4894.17,1841.35 4901.45,1834.07 4901.45,1824.8 C4901.45,1815.53 4894.17,1808.25 4884.9,1808.25 C4875.64,1808.25 4868.35,1815.53 4868.35,1824.8"/>
<path class="NoteDot" d="M3460.84,956.693 C3460.84,965.961 3468.13,973.243 3477.39,973.243 C3486.66,973.243 3493.94,965.961 3493.94,956.693 C3493.94,947.425 3486.66,940.143 3477.39,940.143 C3468.13,940.143 3460.84,947.425 3460.84,956.693"/>
<path class="NoteDot" d="M8623.26,2692.91 C8623.26,2702.18 8630.55,2709.46 8639.81,2709.46 C8649.08,2709.46 8656.36,2702.18 8656.36,2692.91 C8656.36,2683.65 8649.08,2676.36 8639.81,2676.36 C8630.55,2676.36 8623.26,2683.65 8623.26,2692.91"/>
<path class="NoteDot" d="M1337.87,1824.8 C1337.87,1834.07 1345.16,1841.35 1354.42,1841.35 C1363.69,1841.35 1370.97,1834.07 1370.97,1824.8 C1370.97,1815.53 1363.69,1808.25 1354.42,1808.25 C1345.16,1808.25 1337.87,1815.53 1337.87,1824.8"/>
</svg>
