<?xml version="1.0" encoding="utf-8"?>
<svg xmlns="http://www.w3.org/2000/svg" xmlns:svg="http://www.w3.org/2000/svg" version="1.1" viewBox="0 0 681 120">
	<title>The musical score for Air XXVIII</title>
	<path d="M588.048 22.088c0 .742.583 1.325 1.325 1.325s1.325-.583 1.325-1.325-.583-1.325-1.325-1.325-1.325.583-1.325 1.325M59.604 35.342v1.961h-2.2a.38.38 0 0 0-.37.37v.504c0 .213.185.371.37.371h8.03a.36.36 0 0 0 .371-.37v-.504c0-.212-.16-.37-.371-.37h-2.385v-1.962h2.385c.212 0 .371-.185.371-.397v-.504a.38.38 0 0 0-.371-.371h-2.385v-4.213c0-.159-.08-.292-.185-.345l-.319-.158c-.053-.027-.08-.027-.132-.027-.106 0-.212 0-.291.08l-2.412 2.199a.4.4 0 0 0-.106.291v2.173H56.53s2.967-3.18 6.094-7.366a.58.58 0 0 0 .132-.371.44.44 0 0 0-.079-.265l-.583-.583c-.08-.053-.16-.106-.265-.106h-3.948c-.186 0-.318.159-.344.318 0 0-.133 1.96-.822 4.107-.689 2.146-1.484 3.47-2.173 4.452 0 0-.08.132-.08.291 0 .053 0 .106.027.16.08.185.265.476.265.476s.053.159.291.159zm.794-11.066c-.875 0-1.59-1.193-1.59-2.677s.715-2.702 1.59-2.702c.874 0 1.616 1.219 1.616 2.702 0 1.484-.742 2.677-1.616 2.677m.98-6.625c-1.616 0-2.2.477-2.57.875-.08-.557-.133-.98-.133-1.405 0-1.51.53-3.471 2.385-3.471.663 0 1.06.212 1.325.504-.556.238-1.007.953-1.007 1.563 0 .954.742 1.696 1.696 1.696s1.722-.742 1.722-1.696v-.08c0-.238-.053-.636-.158-.848-.345-.953-1.458-2.358-4.108-2.358-2.385 0-4.107 2.279-4.637 3.498a9.4 9.4 0 0 0-.662 3.418c0 1.617.45 3.445 2.014 4.822 1.536 1.167 2.517 1.22 3.444 1.22.928 0 4.399-1.087 4.399-4.16 0-2.597-2.04-3.578-3.71-3.578M43.45 76.386l2.358-.477v4.372l-2.358.503zm4.107-.821c.159-.027.292-.213.292-.372V73.63c0-.212-.16-.371-.372-.371h-.053l-.874.186v-3.949h-.742v4.107l-2.358.477v-3.736h-.742v3.896l-1.034.211c-.158.027-.291.212-.291.372v1.537c0 .21.159.37.371.37h.08l.874-.186v4.373l-1.034.212c-.158.027-.291.212-.291.37v1.538c0 .212.159.37.371.37h.08l.874-.184v3.947h.742v-4.107l2.358-.477v3.736h.742v-3.894l1.007-.186c.159-.026.292-.212.292-.371v-1.563a.363.363 0 0 0-.372-.372h-.053l-.874.186V75.75zM36.194 89.623l2.359-.477v4.373l-2.359.503zm4.108-.821c.16-.027.291-.212.291-.371v-1.563a.363.363 0 0 0-.37-.372h-.054l-.874.186v-3.948h-.742v4.107l-2.359.477v-3.737h-.741v3.896l-1.033.212c-.16.026-.292.212-.292.37v1.538c0 .212.159.371.37.371h.08l.875-.186v4.372l-1.033.212c-.16.027-.292.212-.292.372v1.536c0 .212.159.371.37.371h.08l.875-.185v3.948h.741V96.3l2.359-.476v3.736h.742v-3.895l1.007-.186c.16-.026.291-.211.291-.37v-1.564c0-.212-.159-.37-.37-.37h-.054l-.874.184v-4.372zM28.94 79.695l2.358-.477v4.372l-2.358.504zm4.107-.82c.16-.028.292-.213.292-.372v-1.564c0-.212-.16-.37-.371-.37h-.054l-.874.185v-3.948H31.3v4.107l-2.358.477v-3.736h-.742v3.895l-1.033.212c-.16.026-.292.212-.292.371v1.537c0 .211.159.37.371.37h.08l.874-.185v4.373l-1.033.212c-.16.026-.292.211-.292.37v1.537c0 .213.159.371.371.371h.08l.874-.186v3.949h.742v-4.107l2.358-.477v3.736h.742v-3.896l1.007-.185c.16-.026.292-.212.292-.371v-1.563c0-.212-.16-.371-.371-.371h-.054l-.874.186v-4.373zM43.45 6.89l2.358-.477v4.372l-2.358.503zm4.107-.822c.159-.026.292-.212.292-.37V4.133a.363.363 0 0 0-.372-.371h-.053l-.874.185V0h-.742v4.107l-2.358.477V.848h-.742v3.895l-1.034.212c-.158.027-.291.212-.291.371v1.537c0 .212.159.371.371.371h.08l.874-.186v4.373l-1.034.212c-.158.026-.291.212-.291.37v1.538c0 .212.159.37.371.37h.08l.874-.185v3.948h.742v-4.107l2.358-.477v3.736h.742v-3.895l1.006-.185c.16-.027.293-.212.293-.371V10.81a.363.363 0 0 0-.372-.37h-.053l-.874.185V6.254zM36.194 20.127l2.359-.477v4.372l-2.359.504zm4.108-.82c.16-.027.291-.213.291-.372v-1.563a.36.36 0 0 0-.37-.37h-.054l-.874.185v-3.949h-.742v4.108l-2.359.477v-3.737h-.741v3.896l-1.033.212c-.16.026-.292.212-.292.37V20.1c0 .212.159.371.37.371h.08l.875-.185v4.372l-1.033.212c-.16.026-.292.212-.292.371v1.537c0 .212.159.371.37.371h.08l.875-.186v3.949h.741v-4.108l2.359-.476v3.736h.742v-3.896l1.007-.185c.16-.027.291-.212.291-.37v-1.564c0-.213-.159-.371-.37-.371h-.054l-.874.185V19.49zM28.94 10.2l2.358-.477v4.372l-2.358.504zm4.107-.82c.16-.027.292-.213.292-.372V7.443a.36.36 0 0 0-.371-.371h-.054l-.874.186V3.309H31.3v4.108l-2.358.476V4.157h-.742v3.895l-1.033.212c-.16.027-.292.212-.292.371v1.537c0 .212.159.371.371.371h.08l.874-.185v4.372l-1.033.212c-.16.026-.292.212-.292.37v1.538c0 .212.159.37.371.37h.08l.874-.185v3.949h.742v-4.108l2.358-.477v3.737h.742V16.24l1.007-.185c.16-.027.292-.212.292-.371V14.12a.36.36 0 0 0-.371-.371h-.054l-.874.185V9.563zM16.093 37.475a7.8 7.8 0 0 1-1.537.158c-3.789 0-7.022-2.65-7.022-6.65 0-3.233 2.28-6.122 4.611-8.136.45-.397.875-.768 1.272-1.165.238 1.43.424 2.676.61 3.762-2.412.716-4.055 3.26-4.055 5.75 0 1.855 1.458 4.4 3.577 4.4.212 0 .451-.107.451-.346 0-.238-.265-.37-.583-.583-1.033-.635-1.616-1.324-1.616-2.623 0-1.616 1.192-2.915 2.755-3.285zm-2.332-27.24c.239-1.06 1.458-3.843 2.836-3.843.397 0 1.033 1.299 1.033 3.127 0 2.756-2.04 4.823-3.869 6.624-.159-1.06-.291-2.093-.291-3.206 0-.98.08-1.881.291-2.703m6.095 22.338c0 1.881-.768 3.816-2.65 4.585a877 877 0 0 1-1.457-8.56c2.385 0 4.107 1.617 4.107 3.975M8.196 45.609c0 1.75 1.352 4.055 4.93 4.055 1.245 0 2.331-.318 3.285-.902 1.431-1.006 1.802-2.755 1.802-4.424 0-1.034-.159-2.227-.424-3.736-.08-.53-.238-1.325-.397-2.359 2.597-.848 4.53-3.551 4.53-6.28 0-4.001-2.834-6.704-6.703-6.704-.265-1.59-.53-3.153-.769-4.637 2.81-2.942 4.744-6.254 4.744-10.467 0-2.411-.742-4.372-1.166-5.326-.636-1.352-1.405-2.28-1.882-2.28-.185 0-1.007.319-1.881 1.352-1.696 2.014-2.173 5.406-2.173 7.632 0 1.43.133 2.73.583 5.697-.026.026-1.404 1.43-1.96 1.881-2.412 2.253-5.75 5.459-5.75 10.758 0 4.956 4.318 8.85 9.247 8.85.768 0 1.484-.079 2.093-.184.504 2.543.795 4.398.795 5.803 0 2.755-1.404 4.213-4.08 4.213-.636 0-1.193-.133-1.246-.133-.026-.026-.08-.053-.08-.08 0-.052.054-.08.133-.106 1.246-.185 2.49-1.245 2.49-2.94 0-1.431-1.085-2.942-3.073-2.942-1.855 0-3.047 1.51-3.047 3.259m7.896 61.362a7.8 7.8 0 0 1-1.537.158c-3.789 0-7.022-2.65-7.022-6.65 0-3.233 2.28-6.122 4.611-8.135.45-.398.875-.768 1.272-1.166.238 1.431.424 2.676.61 3.762-2.412.716-4.055 3.26-4.055 5.75 0 1.855 1.458 4.4 3.577 4.4.212 0 .451-.107.451-.345s-.265-.371-.583-.583c-1.033-.636-1.616-1.325-1.616-2.624 0-1.616 1.192-2.914 2.755-3.285zm-2.332-27.24c.239-1.06 1.458-3.842 2.836-3.842.397 0 1.033 1.298 1.033 3.126 0 2.756-2.04 4.823-3.869 6.625-.159-1.06-.291-2.094-.291-3.207 0-.98.08-1.881.291-2.702m6.095 22.337c0 1.882-.768 3.817-2.65 4.585a877 877 0 0 1-1.457-8.56c2.385 0 4.107 1.617 4.107 3.975m-11.66 13.038c0 1.748 1.352 4.054 4.93 4.054 1.245 0 2.331-.318 3.285-.901 1.431-1.007 1.802-2.756 1.802-4.425 0-1.034-.159-2.226-.424-3.736-.08-.53-.238-1.325-.397-2.359 2.597-.847 4.53-3.55 4.53-6.28 0-4.001-2.834-6.704-6.703-6.704-.265-1.59-.53-3.153-.769-4.637 2.81-2.941 4.744-6.253 4.744-10.467 0-2.41-.742-4.372-1.166-5.326-.636-1.35-1.405-2.279-1.882-2.279-.185 0-1.007.318-1.881 1.352-1.696 2.014-2.173 5.406-2.173 7.631 0 1.43.133 2.73.583 5.697-.026.027-1.404 1.431-1.96 1.882-2.412 2.252-5.75 5.458-5.75 10.758 0 4.955 4.318 8.85 9.247 8.85.768 0 1.484-.08 2.093-.185.504 2.543.795 4.398.795 5.803 0 2.755-1.404 4.213-4.08 4.213-.636 0-1.193-.133-1.246-.133-.026-.026-.08-.052-.08-.079 0-.053.054-.08.133-.106 1.246-.185 2.49-1.245 2.49-2.941 0-1.431-1.085-2.942-3.073-2.942-1.855 0-3.047 1.51-3.047 3.26M79.033 29.82c0 1.139.822 2.411 2.968 2.411 2.756 0 5.645-2.253 5.645-4.585 0-1.563-1.325-2.437-2.969-2.437-2.57 0-5.644 2.172-5.644 4.61m315.215-9.928c0 1.14.821 2.412 2.968 2.412 2.755 0 5.643-2.253 5.643-4.585 0-1.563-1.324-2.437-2.967-2.437-2.57 0-5.644 2.172-5.644 4.61m-213.161-3.309c0 1.14.821 2.411 2.968 2.411 2.756 0 5.644-2.252 5.644-4.584 0-1.563-1.325-2.438-2.968-2.438-2.57 0-5.644 2.173-5.644 4.611m186.002 6.619c0 1.139.82 2.411 2.967 2.411 2.756 0 5.644-2.253 5.644-4.584 0-1.564-1.325-2.438-2.968-2.438-2.57 0-5.643 2.173-5.643 4.61m157.426 72.807c0 1.139.823 2.41 2.969 2.41 2.755 0 5.644-2.252 5.644-4.584 0-1.563-1.325-2.438-2.968-2.438-2.57 0-5.645 2.173-5.645 4.612m-91.656-78.26a.99.99 0 0 1-1.06-.953c0-1.298 4.452-3.577 5.698-3.577.635 0 1.06.37 1.06.954 0 1.325-4.479 3.577-5.698 3.577m3.657-5.777c-2.57 0-5.644 2.147-5.644 4.611 0 1.14.822 2.411 2.968 2.411 2.755 0 5.644-2.252 5.644-4.584 0-1.563-1.325-2.438-2.968-2.438m49.626 88.51a.99.99 0 0 1-1.06-.954c0-1.298 4.452-3.576 5.698-3.576.635 0 1.06.37 1.06.953 0 1.325-4.479 3.578-5.698 3.578m3.657-5.777c-2.57 0-5.644 2.146-5.644 4.611 0 1.14.821 2.411 2.968 2.411 2.755 0 5.644-2.252 5.644-4.584 0-1.564-1.325-2.438-2.968-2.438M471.61 29.82c0 1.139.822 2.411 2.968 2.411 2.755 0 5.644-2.253 5.644-4.585 0-1.563-1.325-2.437-2.968-2.437-2.57 0-5.644 2.172-5.644 4.61m-14.363 69.497c0 1.14.821 2.411 2.967 2.411 2.756 0 5.644-2.252 5.644-4.584 0-1.564-1.325-2.438-2.967-2.438-2.57 0-5.644 2.173-5.644 4.611m43.51-68.33a.99.99 0 0 1-1.06-.955c0-1.298 4.451-3.577 5.697-3.577.636 0 1.06.37 1.06.954 0 1.325-4.478 3.577-5.697 3.577m3.656-5.776c-2.57 0-5.643 2.146-5.643 4.61 0 1.14.821 2.412 2.967 2.412 2.756 0 5.644-2.253 5.644-4.585 0-1.563-1.325-2.437-2.968-2.437m-85.54 85.201a.99.99 0 0 1-1.06-.954c0-1.299 4.452-3.578 5.697-3.578.636 0 1.06.372 1.06.954 0 1.325-4.478 3.578-5.697 3.578m3.656-5.777c-2.57 0-5.643 2.147-5.643 4.61 0 1.14.821 2.412 2.967 2.412 2.757 0 5.645-2.252 5.645-4.584 0-1.563-1.325-2.438-2.969-2.438M539.51 26.51c0 1.14.821 2.412 2.967 2.412 2.757 0 5.644-2.253 5.644-4.585 0-1.563-1.325-2.438-2.967-2.438-2.57 0-5.644 2.173-5.644 4.611m-424.334 4.475a.99.99 0 0 1-1.06-.954c0-1.298 4.451-3.577 5.697-3.577.636 0 1.06.37 1.06.954 0 1.325-4.478 3.577-5.697 3.577m3.656-5.776c-2.57 0-5.643 2.146-5.643 4.61 0 1.14.82 2.412 2.967 2.412 2.756 0 5.644-2.253 5.644-4.585 0-1.563-1.325-2.437-2.968-2.437m-1.414 68.654a.99.99 0 0 1-1.06-.954c0-1.298 4.452-3.577 5.697-3.577.636 0 1.06.371 1.06.954 0 1.325-4.478 3.577-5.697 3.577m3.657-5.777c-2.57 0-5.644 2.147-5.644 4.611 0 1.14.821 2.411 2.968 2.411 2.755 0 5.643-2.252 5.643-4.584 0-1.563-1.325-2.438-2.967-2.438m259.44 21.158c0 1.139.82 2.41 2.967 2.41 2.756 0 5.645-2.251 5.645-4.583 0-1.564-1.325-2.438-2.969-2.438-2.57 0-5.643 2.173-5.643 4.61M274.018 21.058a.99.99 0 0 1-1.06-.954c0-1.298 4.452-3.577 5.697-3.577.636 0 1.06.371 1.06.954 0 1.325-4.479 3.577-5.697 3.577m3.657-5.776c-2.57 0-5.645 2.146-5.645 4.61 0 1.14.821 2.412 2.968 2.412 2.756 0 5.644-2.253 5.644-4.585 0-1.563-1.325-2.437-2.967-2.437m64.466 95.129a.99.99 0 0 1-1.06-.954c0-1.299 4.452-3.578 5.697-3.578.636 0 1.06.372 1.06.954 0 1.325-4.478 3.578-5.697 3.578m3.657-5.777c-2.57 0-5.645 2.147-5.645 4.61 0 1.14.823 2.412 2.969 2.412 2.755 0 5.644-2.252 5.644-4.584 0-1.563-1.325-2.438-2.968-2.438m232.323-80.267a.99.99 0 0 1-1.06-.953c0-1.299 4.452-3.578 5.697-3.578.636 0 1.06.371 1.06.954 0 1.325-4.478 3.577-5.697 3.577m3.657-5.776c-2.57 0-5.644 2.146-5.644 4.61 0 1.14.821 2.412 2.968 2.412 2.756 0 5.643-2.253 5.643-4.584 0-1.564-1.325-2.438-2.967-2.438m-268.532 84.035c0 1.14.822 2.412 2.969 2.412 2.755 0 5.643-2.253 5.643-4.585 0-1.563-1.324-2.438-2.967-2.438-2.57 0-5.645 2.173-5.645 4.61m288.003-9.927c0 1.14.821 2.411 2.967 2.411 2.757 0 5.645-2.252 5.645-4.584 0-1.563-1.325-2.438-2.968-2.438-2.57 0-5.644 2.173-5.644 4.611m-326.376 4.475a.99.99 0 0 1-1.06-.954c0-1.298 4.452-3.577 5.697-3.577.636 0 1.06.37 1.06.954 0 1.325-4.478 3.577-5.697 3.577m3.657-5.777c-2.57 0-5.644 2.147-5.644 4.612 0 1.139.821 2.41 2.967 2.41 2.756 0 5.644-2.252 5.644-4.584 0-1.563-1.325-2.438-2.967-2.438m351.235-73.647a.99.99 0 0 1-1.06-.954c0-1.298 4.452-3.577 5.698-3.577.635 0 1.06.37 1.06.954 0 1.325-4.479 3.577-5.698 3.577m3.657-5.777c-2.57 0-5.644 2.147-5.644 4.611 0 1.14.821 2.411 2.968 2.411 2.755 0 5.644-2.252 5.644-4.584 0-1.563-1.325-2.438-2.968-2.438m-425.176 1.302c0 1.139.822 2.41 2.968 2.41 2.756 0 5.645-2.251 5.645-4.583 0-1.564-1.325-2.438-2.969-2.438-2.57 0-5.644 2.173-5.644 4.61M339.928 26.51c0 1.14.823 2.412 2.969 2.412 2.755 0 5.644-2.253 5.644-4.585 0-1.563-1.325-2.438-2.968-2.438-2.57 0-5.645 2.173-5.645 4.611M236.514 92.697c0 1.14.821 2.411 2.967 2.411 2.756 0 5.644-2.252 5.644-4.584 0-1.563-1.325-2.438-2.967-2.438-2.571 0-5.644 2.173-5.644 4.611m393.63-5.452a.99.99 0 0 1-1.06-.955c0-1.298 4.45-3.577 5.696-3.577.637 0 1.06.371 1.06.954 0 1.325-4.478 3.578-5.696 3.578m3.656-5.777c-2.57 0-5.644 2.146-5.644 4.61 0 1.14.821 2.411 2.968 2.411 2.756 0 5.644-2.251 5.644-4.583 0-1.564-1.325-2.438-2.968-2.438M209.607 96.007c0 1.139.82 2.41 2.967 2.41 2.756 0 5.644-2.252 5.644-4.584 0-1.563-1.325-2.438-2.968-2.438-2.57 0-5.644 2.173-5.644 4.612m-55.678-79.425c0 1.14.821 2.411 2.967 2.411 2.757 0 5.644-2.252 5.644-4.584 0-1.563-1.325-2.438-2.968-2.438-2.57 0-5.643 2.173-5.643 4.611m28.771 82.734c0 1.14.822 2.411 2.968 2.411 2.755 0 5.644-2.252 5.644-4.584 0-1.564-1.325-2.438-2.968-2.438-2.57 0-5.644 2.173-5.644 4.611M79.06 86.078c0 1.14.821 2.411 2.967 2.411 2.756 0 5.644-2.251 5.644-4.583 0-1.564-1.325-2.438-2.967-2.438-2.57 0-5.644 2.173-5.644 4.61m76.732 9.929c0 1.139.822 2.41 2.969 2.41 2.755 0 5.644-2.252 5.644-4.584 0-1.563-1.325-2.438-2.968-2.438-2.57 0-5.645 2.173-5.645 4.612m79.615-79.425c0 1.14.821 2.411 2.967 2.411 2.757 0 5.645-2.252 5.645-4.584 0-1.563-1.325-2.438-2.968-2.438-2.57 0-5.644 2.173-5.644 4.611m327.47 77.28a.99.99 0 0 1-1.06-.953c0-1.298 4.451-3.577 5.696-3.577.636 0 1.06.371 1.06.954 0 1.325-4.478 3.577-5.697 3.577m3.657-5.777c-2.57 0-5.645 2.147-5.645 4.611 0 1.14.822 2.411 2.969 2.411 2.755 0 5.644-2.252 5.644-4.584 0-1.563-1.325-2.438-2.968-2.438M312.77 23.201c0 1.139.821 2.411 2.968 2.411 2.756 0 5.644-2.253 5.644-4.584 0-1.564-1.325-2.438-2.967-2.438-2.57 0-5.645 2.173-5.645 4.61M115.43 92.697v20.4h.663v-20.4Zm40.362 3.309v18.745h.662V96.005Zm34.85-19.313v20.452h.661V76.692ZM79.057 86.077v22.054h.662V86.077Zm130.548 9.928v18.745h.662V96.005Zm26.907-3.309v20.4h.662v-20.4ZM86.976 7.196v20.451h.662V7.196ZM272.03 19.89v22.054h.662V19.89ZM121.13 7.196v20.451h.662V7.196Zm151.755 88.809v18.745h.662V96.005Zm354.893-79.424v22.054h.662V16.58Zm-306.59 61.766v22.106h.663V78.347Zm26.908 6.618v22.107h.662V84.965ZM576.133 23.2v20.399h.663v-20.4ZM388.457 84.965v22.107h.662V84.965Zm-180.21-71.693v22.053h.662V13.272Zm216.582 71.693v22.107h.662V84.965ZM539.51 26.51v18.744h.662V26.51Zm-74.32 50.183v20.452h.663V76.692Zm41.523-69.496v20.451h.663V7.196Zm-14.615 69.496v20.452h.662V76.692ZM479.553 7.196v20.451h.662V7.196Zm44.963 88.809v18.745h.662V96.005Zm-93.644-79.424v22.054h.662V16.58ZM312.769 23.2v20.399h.662v-20.4ZM153.927 16.58v22.054h.662V16.58Zm406.96 76.115v20.4h.663v-20.4ZM394.248 19.89v22.054h.663V19.89zm207.001 72.806v20.4h.662v-20.4ZM367.088 23.2v20.399h.662v-20.4Zm261.068 62.877v22.054h.662V86.077ZM339.93 26.51v18.744h.662V26.51ZM235.406 16.58v22.054h.662V16.58Zm-54.32 0v22.054h.663V16.58Zm404.8 65.951c-7.826 0-15.645 1.337-19.612 4.084a.2.2 0 0 0-.026.04.2.2 0 0 0-.033.052.2.2 0 0 0 0 .061.2.2 0 0 0 0 .047l.011.005.005.025a.17.17 0 0 0 .103.02.17.17 0 0 0 .097.039c3.85-1.621 11.659-2.453 19.455-2.453s15.605.832 19.454 2.453a.165.165 0 0 0 .158-.289c-3.967-2.747-11.786-4.084-19.612-4.084Zm0 .331c6.883 0 13.767 1.069 17.926 3.152-4.253-1.272-11.084-1.894-17.925-1.894s-13.672.622-17.925 1.894c4.16-2.083 11.043-3.152 17.925-3.152m-19.518 3.89c7.808-5.407 31.23-5.407 39.037 0-7.807-3.289-31.23-3.289-39.037 0m-144.96-74.957v27.203h1.19V11.796Zm145.261 0v27.203h1.191V11.796Zm110.69 0v27.203H681V11.796Zm-3.64 0v27.203h1.192V11.796Zm-2.446 16.91c0-.768-.61-1.404-1.378-1.404-.769 0-1.378.636-1.378 1.404 0 .769.61 1.405 1.378 1.405s1.378-.636 1.378-1.405m0-6.618c0-.769-.61-1.405-1.378-1.405-.769 0-1.378.636-1.378 1.405 0 .768.61 1.404 1.378 1.404s1.378-.636 1.378-1.404M70.787 98.203c0-.769-.61-1.405-1.378-1.405s-1.378.636-1.378 1.405c0 .768.61 1.404 1.378 1.404.769 0 1.378-.636 1.378-1.404m0-6.619c0-.768-.61-1.405-1.378-1.405s-1.378.637-1.378 1.405c0 .769.61 1.405 1.378 1.405.769 0 1.378-.636 1.378-1.405M64.39 81.292v27.203h1.192V81.292Zm-6.09 0v27.203h3.64V81.292Zm45.423-69.496v27.203h1.19V11.796Zm2.242 69.496v27.203h1.191V81.292Zm157.455 0v27.203h1.191V81.292Zm144 0v27.203h1.192V81.292Zm144.002 0v27.203h1.192V81.292Zm125.937 0v27.203H681V81.292Zm-3.64 0v27.203h1.191V81.292Zm-2.447 16.91c0-.768-.61-1.404-1.378-1.404-.769 0-1.378.636-1.378 1.405 0 .768.61 1.404 1.378 1.404s1.378-.636 1.378-1.404m0-6.619c0-.768-.61-1.405-1.378-1.405-.769 0-1.378.637-1.378 1.405 0 .769.61 1.405 1.378 1.405s1.378-.636 1.378-1.405M262.565 11.796v27.203h1.191V11.796ZM0 107.767v.728h681v-.728zm0-6.619v.728h681v-.728zm0-6.619v.728h681v-.728zm0-6.618v.728h681v-.728zm0-6.619v.728h681v-.728Zm0-43.021v.727h681v-.727Zm0-6.62v.728h681v-.727Zm0-6.618v.728h681v-.728zm0-6.619v.728h681v-.728zm0-6.618v.728h681v-.728z"/>
</svg>
