<?xml version="1.0" encoding="UTF-8" standalone="no"?>
<svg
   width="681"
   height="137.59648"
   version="1.2"
   id="svg164"
   xmlns="http://www.w3.org/2000/svg"
   xmlns:svg="http://www.w3.org/2000/svg"
   xmlns:rdf="http://www.w3.org/1999/02/22-rdf-syntax-ns#"
   xmlns:cc="http://creativecommons.org/ns#"
   xmlns:dc="http://purl.org/dc/elements/1.1/">
  <defs
     id="defs164" />
  <title
     id="title1">air_XXX</title>
  <desc
     id="desc1">Generated by MuseScore Studio 4.7.3</desc>
  <path
     id="path164"
     class="NoteDot"
     d="m 71.919562,95.67902 c 0,0.742108 0.582799,1.324906 1.324906,1.324906 0.742107,0 1.324906,-0.582798 1.324906,-1.324906 0,-0.742107 -0.582799,-1.324906 -1.324906,-1.324906 -0.742107,0 -1.324906,0.582799 -1.324906,1.324906 M 466.39568,32.801628 c 0,0.742107 0.5828,1.324906 1.32491,1.324906 0.7421,0 1.3249,-0.582799 1.3249,-1.324906 0,-0.742107 -0.5828,-1.324906 -1.3249,-1.324906 -0.74211,0 -1.32491,0.582799 -1.32491,1.324906 m -350.93435,44.47521 -2.44647,-6.202641 c -0.0665,-0.173719 -0.10648,-0.348238 -0.10648,-0.414684 0,-0.240964 0.22736,-0.334629 0.82857,-0.334629 h 0.53477 v -0.627629 h -4.17085 v 0.627629 h 0.26738 c 0.61482,0.01361 0.81496,0.16091 1.0295,0.749313 l 3.38231,8.475395 h 0.53477 l 3.0749,-7.914211 c 0.40108,-1.043114 0.68127,-1.283278 1.457,-1.310497 h 0.13369 v -0.627629 h -3.62328 v 0.627629 h 0.25458 c 0.68126,0 1.08234,0.267383 1.08234,0.695676 0,0.187328 -0.0664,0.481129 -0.16011,0.748512 l -2.07262,5.507766 m 6.43,-7.486719 c -0.4283,0 -0.77573,0.348238 -0.77573,0.77573 0,0.427493 0.34743,0.775731 0.76212,0.775731 0.4411,0 0.78854,-0.348238 0.78854,-0.775731 0,-0.427492 -0.34744,-0.77573 -0.77493,-0.77573 m 0.62843,3.329476 -2.51372,0.146501 v 0.575593 h 0.68206 c 0.50755,0.01281 0.5748,0.09286 0.5748,0.668457 v 3.823414 c -0.0136,0.200137 -0.0272,0.280192 -0.0801,0.347438 -0.0937,0.120082 -0.34824,0.173719 -0.92303,0.187328 h -0.0937 v 0.481129 h 3.46317 v -0.481129 h -0.0937 c -0.89581,-0.02722 -1.01589,-0.09366 -1.01589,-0.574793 v -5.173938 m 4.8249,-0.200937 c -1.64433,0 -2.914,1.457797 -2.914,3.329476 0,1.830852 1.28328,3.301458 2.88758,3.301458 1.60429,0 2.88757,-1.470606 2.88757,-3.315067 0,-1.831652 -1.28328,-3.315867 -2.86115,-3.315867 m 0,0.574793 c 0.93584,0 1.45699,0.975867 1.45699,2.741074 0,1.778016 -0.52115,2.740274 -1.48341,2.740274 -0.96306,0 -1.48422,-0.962258 -1.48422,-2.726665 0,-1.818843 0.50835,-2.754683 1.51064,-2.754683 M 536.56926,0.12032227 h -0.49474 l -0.53476,0.80214847 C 534.89852,0.32085939 534.05554,0 533.10689,0 c -1.7652,0 -2.9284,1.1096387 -2.9284,2.7941505 0,1.4572364 0.7221,2.17917 2.68744,2.6871974 l 1.27047,0.3208593 c 0.98867,0.2540137 1.08234,0.280752 1.36333,0.4946583 0.40107,0.3074902 0.61482,0.7486719 0.61482,1.2700684 0,0.5347656 -0.20014,0.9759473 -0.60121,1.3502832 -0.4411,0.374336 -0.8822,0.5213965 -1.61791,0.5213965 -2.01898,0 -3.02126,-1.4839746 -3.3687,-3.2888087 h -0.57479 l 0.0528,3.8102052 h 0.52196 l 0.60121,-0.9091016 c 0.89581,0.7353028 1.63152,1.0026855 2.80752,1.0026855 1.96534,0 3.2222,-1.149746 3.2222,-2.9412109 0,-0.8422559 -0.26738,-1.5374513 -0.80214,-2.0454786 -0.36105,-0.3475977 -0.88221,-0.5748731 -1.95174,-0.8422559 L 532.9732,3.8636818 c -1.19041,-0.3074903 -1.75159,-0.8288868 -1.75159,-1.6444044 0,-0.9358399 0.76212,-1.57755863 1.89809,-1.57755863 1.72518,0 2.67383,1.43049813 3.03488,2.95458023 h 0.57479 l -0.16011,-3.47597673 m 4.62556,3.30217783 c -1.64432,0 -2.91479,1.4572364 -2.91479,3.3289162 0,1.8315723 1.28328,3.3021777 2.88758,3.3021777 1.60429,0 2.88837,-1.4706054 2.88837,-3.3155469 0,-1.8315723 -1.28408,-3.315547 -2.86116,-3.315547 m 0,0.5748731 c 0.93584,0 1.457,0.9759473 1.457,2.7406739 0,1.7780958 -0.52116,2.740674 -1.48421,2.740674 -0.96226,0 -1.48342,-0.9625782 -1.48342,-2.7273048 0,-1.8182032 0.50755,-2.7540431 1.51063,-2.7540431 m 5.9889,-0.374336 -2.31278,0.1470606 v 0.5748731 h 0.48113 c 0.50834,0.013369 0.57559,0.093584 0.57559,0.668457 v 3.8235744 c -0.0136,0.2005371 -0.0272,0.2807519 -0.0808,0.3475976 -0.0937,0.1203223 -0.34744,0.1737989 -0.92224,0.187168 h -0.0536 V 9.853057 h 3.38231 V 9.3717679 h -0.0528 c -0.89581,-0.026738 -1.01669,-0.093584 -1.01669,-0.574873 V 6.818262 c 0,-0.6550879 0.0937,-1.2566993 0.24096,-1.5641895 0.281,-0.6016114 0.88221,-1.0160548 1.457,-1.0160548 0.34744,0 0.74851,0.187168 0.94945,0.46792 0.20014,0.2941211 0.2938,0.6951953 0.2938,1.3369141 v 2.7941505 c -0.0128,0.2005371 -0.0264,0.2807519 -0.08,0.3475976 -0.0937,0.1203223 -0.36105,0.1737989 -0.93584,0.187168 h -0.0536 V 9.853057 h 3.38231 V 9.3717679 h -0.0528 c -0.88301,-0.026738 -1.00309,-0.093584 -1.00309,-0.574873 V 6.1096975 c 0,-0.9625782 -0.04,-1.2032227 -0.28099,-1.6577735 -0.33383,-0.6417188 -1.00229,-1.0294239 -1.80444,-1.0294239 -0.86939,0 -1.52424,0.4010743 -2.11264,1.2834376 V 3.6230372 m 8.07512,5.2407034 c -0.7357,-0.013369 -0.77573,-0.026738 -0.93584,-0.1203223 -0.0937,-0.053477 -0.16091,-0.2005371 -0.16091,-0.3475977 0,-0.4010742 0.36105,-0.574873 1.25686,-0.6016113 1.25686,-0.026738 1.457,-0.053477 1.91171,-0.2540137 0.80215,-0.3609668 1.24325,-1.0561622 1.24325,-1.9385255 0,-0.5347656 -0.12008,-0.8689941 -0.48113,-1.3101758 0.22735,-0.2406445 0.34744,-0.3208594 0.45471,-0.3208594 0.0664,0 0.10647,0.040107 0.13369,0.187168 0.0536,0.3208594 0.26738,0.4946582 0.60121,0.4946582 0.34824,0 0.60201,-0.280752 0.60201,-0.6417188 0,-0.4545508 -0.36104,-0.7754101 -0.8822,-0.7754101 -0.42829,0 -0.66846,0.1336914 -1.28408,0.6951953 -0.56118,-0.374336 -0.98867,-0.5080274 -1.65713,-0.5080274 -1.59149,0 -2.6338,0.8823633 -2.6338,2.2192775 0,0.7887793 0.42749,1.4572363 1.12317,1.7914649 -0.89582,0.2005371 -1.27047,0.6016113 -1.27047,1.3369141 0,0.5882422 0.26738,0.9358399 0.89581,1.1497461 -0.82857,0.3074903 -1.22964,0.7219333 -1.22964,1.2700683 0,0.401074 0.26738,0.77541 0.69487,1.002686 0.52116,0.267383 1.1632,0.374336 2.12546,0.374336 2.23272,0 3.34228,-0.708565 3.34228,-2.112325 0,-0.6684567 -0.30741,-1.2032223 -0.78854,-1.4037595 -0.36104,-0.1336914 -0.78854,-0.1871679 -1.69796,-0.1871679 h -1.36333 m 0.78854,-4.8663674 c 0.82857,0 1.29689,0.5748731 1.29689,1.6176661 0,1.042793 -0.50835,1.6711426 -1.35053,1.6711426 -0.82856,0 -1.35052,-0.6283496 -1.35052,-1.6310352 0,-1.0561622 0.50835,-1.6577735 1.40416,-1.6577735 m -0.12008,6.0161138 c 1.10956,0 1.18961,0 1.37694,0.02674 0.54757,0.05348 0.86859,0.347598 0.86859,0.77541 0,0.762041 -0.86859,1.203223 -2.35281,1.203223 -1.13597,0 -1.7644,-0.334229 -1.7644,-0.93584 0,-0.441182 0.24016,-0.735303 0.8822,-1.069531 h 0.98948 M 308.7655,69.6164 h -0.49474 l -0.53476,0.802149 c -0.64124,-0.601212 -1.48342,-0.922231 -2.43287,-0.922231 -1.7652,0 -2.9276,1.109559 -2.9276,2.79391 0,1.457797 0.7213,2.17909 2.68664,2.687438 l 1.27047,0.321019 c 0.98947,0.253774 1.08234,0.280992 1.36333,0.494739 0.40107,0.30741 0.61482,0.748511 0.61482,1.269668 0,0.534765 -0.20014,0.975867 -0.60121,1.350523 -0.4411,0.374656 -0.8822,0.521156 -1.61791,0.521156 -2.01898,0 -3.02126,-1.483414 -3.3687,-3.288648 h -0.57479 l 0.0528,3.810605 h 0.52196 l 0.60121,-0.909421 c 0.89581,0.734902 1.63152,1.002285 2.80752,1.002285 1.96534,0 3.2222,-1.149586 3.2222,-2.941211 0,-0.842176 -0.26738,-1.537051 -0.80214,-2.045399 -0.36105,-0.347437 -0.88221,-0.574793 -1.95174,-0.842176 l -1.43058,-0.361046 c -1.18961,-0.307411 -1.75159,-0.828567 -1.75159,-1.644325 0,-0.93584 0.76212,-1.577078 1.89889,-1.577078 1.72438,0 2.67383,1.430578 3.03408,2.95402 h 0.57559 L 308.7655,69.6164 m 4.62556,3.302258 c -1.64432,0 -2.91479,1.457797 -2.91479,3.329476 0,1.830852 1.28328,3.301458 2.88758,3.301458 1.60429,0 2.88837,-1.470606 2.88837,-3.315067 0,-1.831652 -1.28408,-3.315867 -2.86116,-3.315867 m 0,0.574793 c 0.93584,0 1.457,0.975867 1.457,2.741074 0,1.778016 -0.52116,2.740274 -1.48421,2.740274 -0.96226,0 -1.48342,-0.962258 -1.48342,-2.726665 0,-1.818843 0.50755,-2.754683 1.51063,-2.754683 m 5.9889,-0.373856 -2.31278,0.146501 v 0.575593 h 0.48193 c 0.50754,0.01281 0.57479,0.09286 0.57479,0.668457 v 3.823414 c -0.0136,0.200137 -0.0272,0.280192 -0.0808,0.347438 -0.0929,0.120082 -0.34744,0.173719 -0.92224,0.187328 h -0.0536 v 0.481129 h 3.38231 v -0.481129 h -0.0528 c -0.89581,-0.02722 -1.01669,-0.09366 -1.01669,-0.574793 V 76.31458 c 0,-0.654848 0.0937,-1.256859 0.24096,-1.56427 0.281,-0.601211 0.88221,-1.015894 1.457,-1.015894 0.34824,0 0.74931,0.187328 0.94945,0.467519 0.20094,0.294602 0.2938,0.695676 0.2938,1.336914 v 2.794711 c -0.0128,0.200137 -0.0264,0.280192 -0.08,0.347438 -0.0937,0.120082 -0.36105,0.173719 -0.93584,0.187328 h -0.0536 v 0.481129 h 3.38311 v -0.481129 h -0.0536 c -0.88221,-0.02722 -1.00309,-0.09366 -1.00309,-0.574793 v -2.687438 c 0,-0.962257 -0.04,-1.203222 -0.28019,-1.657933 -0.33463,-0.641239 -1.00309,-1.029504 -1.80524,-1.029504 -0.86859,0 -1.52424,0.401074 -2.11264,1.283277 v -1.08234 m 8.07512,5.240383 c -0.7357,-0.01361 -0.77573,-0.02642 -0.93584,-0.120082 -0.0937,-0.05364 -0.16091,-0.200937 -0.16091,-0.347437 0,-0.401074 0.36105,-0.574793 1.25686,-0.602012 1.25686,-0.02642 1.457,-0.05364 1.91171,-0.253773 0.80215,-0.361047 1.24325,-1.055922 1.24325,-1.938926 0,-0.534766 -0.12008,-0.868594 -0.48113,-1.309696 0.22735,-0.240964 0.34744,-0.321019 0.45471,-0.321019 0.0664,0 0.10727,0.04003 0.13369,0.187328 0.0536,0.321019 0.26738,0.494738 0.60121,0.494738 0.34824,0 0.60201,-0.280992 0.60201,-0.642039 0,-0.454711 -0.36104,-0.77573 -0.8822,-0.77573 -0.42829,0 -0.66846,0.133691 -1.28328,0.695676 -0.56198,-0.374657 -0.98947,-0.508348 -1.65793,-0.508348 -1.59149,0 -2.6338,0.882203 -2.6338,2.219117 0,0.78934 0.42749,1.457797 1.12317,1.791625 -0.89582,0.200938 -1.27047,0.602012 -1.27047,1.336914 0,0.588403 0.26738,0.93584 0.89581,1.149586 -0.82857,0.308211 -1.22964,0.722094 -1.22964,1.270469 0,0.401074 0.26738,0.775731 0.69487,1.002285 0.52116,0.267383 1.1632,0.374657 2.12546,0.374657 2.23272,0 3.34228,-0.708485 3.34228,-2.112645 0,-0.668457 -0.30741,-1.203223 -0.78854,-1.403359 -0.36104,-0.133692 -0.78854,-0.187329 -1.69796,-0.187329 h -1.36333 m 0.78854,-4.866527 c 0.82857,0 1.29689,0.574793 1.29689,1.617906 0,1.043113 -0.50835,1.671543 -1.35053,1.671543 -0.82856,0 -1.34972,-0.62843 -1.34972,-1.631515 0,-1.055922 0.50755,-1.657934 1.40336,-1.657934 m -0.12008,6.016113 c 1.10956,0 1.18961,0 1.37694,0.02722 0.54837,0.05364 0.86859,0.347438 0.86859,0.77493 0,0.762121 -0.86859,1.203223 -2.35281,1.203223 -1.13597,0 -1.7644,-0.333829 -1.7644,-0.93584 0,-0.441102 0.24016,-0.734903 0.8822,-1.069532 h 0.98948 M 255.963,7.7808401 253.51653,1.5775587 c -0.0664,-0.1737989 -0.10648,-0.3475977 -0.10648,-0.4144434 0,-0.24064456 0.22736,-0.33422855 0.82857,-0.33422855 h 0.53476 V 0.20053712 h -4.17085 v 0.62834963 h 0.26739 c 0.61482,0.0133691 0.81495,0.16042969 1.0295,0.74867195 l 3.38231,8.4760353 h 0.53477 l 3.0749,-7.9145314 c 0.40107,-1.042793 0.68127,-1.28343757 1.457,-1.31017585 h 0.13369 V 0.20053712 h -3.62328 v 0.62834963 h 0.25457 c 0.68127,0 1.08234,0.26738285 1.08234,0.69519535 0,0.187168 -0.0664,0.4812891 -0.1601,0.7486719 L 255.963,7.7808401 m 6.42999,-7.486719 c -0.42829,0 -0.77573,0.34759767 -0.77573,0.7754102 0,0.4278125 0.34744,0.7754102 0.76213,0.7754102 0.4411,0 0.78853,-0.3475977 0.78853,-0.7754102 0,-0.42781253 -0.34743,-0.7754102 -0.77493,-0.7754102 m 0.62843,3.3289161 -2.51371,0.1470606 v 0.5748731 h 0.68206 c 0.50755,0.013369 0.57479,0.093584 0.57479,0.668457 v 3.8235744 c -0.0136,0.2005371 -0.0272,0.2807519 -0.0801,0.3475976 -0.0937,0.1203223 -0.34824,0.1737989 -0.92303,0.187168 h -0.0937 V 9.853057 h 3.46317 V 9.3717679 h -0.0937 c -0.89581,-0.026738 -1.0159,-0.093584 -1.0159,-0.574873 V 3.6230372 m 4.8249,-0.2005371 c -1.64432,0 -2.91399,1.4572364 -2.91399,3.3289162 0,1.8315723 1.28328,3.3021777 2.88758,3.3021777 1.60429,0 2.88757,-1.4706054 2.88757,-3.3155469 0,-1.8315723 -1.28328,-3.315547 -2.86116,-3.315547 m 0,0.5748731 c 0.93584,0 1.457,0.9759473 1.457,2.7406739 0,1.7780958 -0.52116,2.740674 -1.48341,2.740674 -0.96306,0 -1.48422,-0.9625782 -1.48422,-2.7273048 0,-1.8182032 0.50835,-2.7540431 1.51063,-2.7540431 M 598.79741,42.729216 h 16.86433 v 3.309463 H 598.79741 V 42.729216 M 122.73991,9.6281032 139.60424,11.282835 v 3.325233 L 122.73991,12.953337 V 9.6281032 M 530.29377,46.038679 h 16.86433 v 3.309463 H 530.29377 V 46.038679 M 385.81899,9.6361087 h 49.26808 V 12.945411 H 385.81899 V 9.6361087 m -32.40456,-0.00801 16.86353,1.6547313 v 3.325234 L 353.41443,12.953337 V 9.6281032 m -195.43523,0.00801 h 49.26889 V 12.945411 H 157.9792 V 9.6361087 M 398.14742,118.84446 h 43.75792 v 3.30946 h -43.75792 v -3.30946 m 91.62344,-29.793972 15.02788,1.654731 v 3.329477 L 489.77086,92.379965 V 89.050488 M 37.140582,24.748922 c -0.662053,0.42429 -1.139179,1.192816 -1.139179,2.040595 0,0.105673 0,0.212145 0.02642,0.317818 0.13209,1.086342 1.007089,1.934122 2.093432,2.067013 h 0.291399 c 1.324906,0 2.38483,-1.059925 2.38483,-2.384831 v -0.159309 c 0,-0.105672 -0.02642,-0.291399 -0.05284,-0.397071 -0.238563,-1.13998 -1.27207,-3.577486 -5.77675,-3.577486 -5.776749,0 -6.438802,4.795919 -6.438802,6.518697 0,3.153356 0.397071,7.101656 7.021601,7.101656 2.623394,0 4.663989,-1.537051 4.769661,-4.37259 0,-0.13209 -0.07925,-0.212145 -0.212145,-0.212145 h -0.344235 c -0.105673,0 -0.212145,0.106473 -0.212145,0.212145 -0.105673,2.199104 -1.669142,3.524009 -4.001136,3.524009 -2.305577,0 -3.418337,-1.244851 -3.418337,-3.576845 v -5.061061 c 0,-1.484215 0.582798,-3.179774 2.941211,-3.179774 1.245651,0 1.802032,0.450708 2.093431,0.900616 0.02642,0.05284 0.02642,0.08005 0.02642,0.132891 0,0.02642 0,0.07925 -0.05284,0.105672 M 16.093311,41.569223 c -0.529962,0.106473 -1.033427,0.159309 -1.536891,0.159309 -3.789231,0 -7.0220012,-2.649812 -7.0220012,-6.650948 0,-3.23261 2.2788382,-6.120985 4.6106722,-8.135162 0.450468,-0.397072 0.874438,-0.768526 1.27191,-1.165597 0.238483,1.430578 0.42397,2.67623 0.609457,3.762572 -2.411329,0.71569 -4.0542123,3.259029 -4.0542123,5.750332 0,1.854869 1.4573963,4.398208 3.5772463,4.398208 0.211985,0 0.450468,-0.105673 0.450468,-0.344236 0,-0.238563 -0.264982,-0.370653 -0.582959,-0.582798 -1.033427,-0.636435 -1.616385,-1.324906 -1.616385,-2.623394 0,-1.616305 1.192415,-2.914793 2.755804,-3.286247 l 1.536891,8.717961 M 13.761477,14.329398 c 0.238483,-1.059925 1.457396,-3.842227 2.835298,-3.842227 0.397472,0 1.033427,1.298407 1.033427,3.126778 0,2.755804 -2.040355,4.822657 -3.868725,6.624529 -0.158989,-1.059925 -0.29148,-2.093351 -0.29148,-3.206272 0,-0.980431 0.0795,-1.881367 0.29148,-2.702808 m 6.094567,22.338073 c 0,1.881287 -0.768446,3.815409 -2.649812,4.583935 -0.556461,-3.179775 -1.27191,-7.393055 -1.457397,-8.558652 2.384831,0 4.107209,1.616305 4.107209,3.974717 M 8.1968718,49.704385 c 0,1.749196 1.351404,4.053972 4.9286502,4.053972 1.245411,0 2.331834,-0.317817 3.285766,-0.900616 1.430899,-1.007088 1.801872,-2.755484 1.801872,-4.425426 0,-1.033506 -0.158988,-2.225521 -0.423969,-3.736154 -0.07949,-0.529962 -0.238484,-1.324906 -0.397472,-2.358413 2.596815,-0.847779 4.531178,-3.550427 4.531178,-6.279493 0,-4.001937 -2.835299,-6.704585 -6.704024,-6.704585 -0.264981,-1.589887 -0.529962,-3.153356 -0.768445,-4.63677 2.8088,-2.941531 4.743163,-6.253796 4.743163,-10.466997 0,-2.411328 -0.741948,-4.3721891 -1.165917,-5.3261214 -0.635955,-1.351404 -1.404401,-2.2788381 -1.881367,-2.2788381 -0.185487,0 -1.006928,0.3179774 -1.881366,1.351404 -1.69588,2.0138565 -2.172846,5.4056165 -2.172846,7.6314575 0,1.430899 0.132491,2.729307 0.582959,5.697096 -0.0265,0.0265 -1.404401,1.430898 -1.960861,1.881366 -2.4113287,2.252741 -5.7500916,5.458933 -5.7500916,10.758556 0,4.954588 4.3191932,8.850052 9.2478436,8.850052 0.768445,0 1.483894,-0.07926 2.093351,-0.185727 0.503464,2.544139 0.794943,4.399007 0.794943,5.803167 0,2.756285 -1.4044,4.213281 -4.08071,4.213281 -0.635955,0 -1.192415,-0.13209 -1.245411,-0.13209 -0.0265,-0.02642 -0.07949,-0.05364 -0.07949,-0.08006 0,-0.05284 0.053,-0.07925 0.132491,-0.105672 1.245412,-0.185727 2.490823,-1.245652 2.490823,-2.941211 0,-1.431379 -1.086423,-2.941211 -3.073782,-2.941211 -1.8548679,0 -3.0472832,1.509832 -3.0472832,3.259028 m 7.8964392,61.36115 c -0.529962,0.10648 -1.033427,0.15932 -1.536891,0.15932 -3.789231,0 -7.0220012,-2.64981 -7.0220012,-6.65095 0,-3.23261 2.2788382,-6.120988 4.6106722,-8.135165 0.450468,-0.397072 0.874438,-0.768526 1.27191,-1.165597 0.238483,1.430578 0.42397,2.67623 0.609457,3.762572 -2.411329,0.71569 -4.0542123,3.25903 -4.0542123,5.75034 0,1.85487 1.4573963,4.3982 3.5772463,4.3982 0.211985,0 0.450468,-0.10567 0.450468,-0.34423 0,-0.23856 -0.264982,-0.37065 -0.582959,-0.5828 -1.033427,-0.63644 -1.616385,-1.32491 -1.616385,-2.62339 0,-1.61631 1.192415,-2.9148 2.755804,-3.28625 l 1.536891,8.71796 M 13.761477,83.826116 c 0.238483,-1.059925 1.457396,-3.842627 2.835298,-3.842627 0.397472,0 1.033427,1.298487 1.033427,3.126938 0,2.755484 -2.040355,4.822497 -3.868725,6.624529 -0.158989,-1.059925 -0.29148,-2.093431 -0.29148,-3.206192 0,-0.980671 0.0795,-1.881287 0.29148,-2.702648 m 6.094567,22.337674 c 0,1.88129 -0.768446,3.81541 -2.649812,4.58393 -0.556461,-3.17977 -1.27191,-7.39305 -1.457397,-8.55865 2.384831,0 4.107209,1.61631 4.107209,3.97472 M 8.1968718,119.2007 c 0,1.7492 1.351404,4.05398 4.9286502,4.05398 1.245411,0 2.331834,-0.31782 3.285766,-0.90062 1.430899,-1.00709 1.801872,-2.75548 1.801872,-4.42543 0,-1.0335 -0.158988,-2.22552 -0.423969,-3.73615 -0.07949,-0.52996 -0.238484,-1.32491 -0.397472,-2.35841 2.596815,-0.84778 4.531178,-3.55043 4.531178,-6.2795 0,-4.00193 -2.835299,-6.704582 -6.704024,-6.704582 -0.264981,-1.589887 -0.529962,-3.153356 -0.768445,-4.63677 2.8088,-2.941211 4.743163,-6.253876 4.743163,-10.467157 0,-2.411249 -0.741948,-4.371789 -1.165917,-5.326042 -0.635955,-1.351323 -1.404401,-2.278357 -1.881367,-2.278357 -0.185487,0 -1.006928,0.317817 -1.881366,1.351324 -1.69588,2.013376 -2.172846,5.405295 -2.172846,7.630817 0,1.431379 0.132491,2.729867 0.582959,5.697496 -0.0265,0.02642 -1.404401,1.430578 -1.960861,1.881286 -2.4113287,2.25274 -5.7500916,5.458933 -5.7500916,10.758555 0,4.95459 4.3191932,8.85005 9.2478436,8.85005 0.768445,0 1.483894,-0.0793 2.093351,-0.18572 0.503464,2.54414 0.794943,4.399 0.794943,5.80316 0,2.75629 -1.4044,4.21328 -4.08071,4.21328 -0.635955,0 -1.192415,-0.13209 -1.245411,-0.13209 -0.0265,-0.0264 -0.07949,-0.0536 -0.07949,-0.08 0,-0.0528 0.053,-0.0793 0.132491,-0.10567 1.245412,-0.18573 2.490823,-1.24565 2.490823,-2.94121 0,-1.43138 -1.086423,-2.94122 -3.073782,-2.94122 -1.8548679,0 -3.0472832,1.50984 -3.0472832,3.25903 m 123.7949532,0.75652 c 0,1.13998 0.82136,2.41125 2.96763,2.41125 2.75549,0 5.64386,-2.25194 5.64386,-4.58394 0,-1.56346 -1.3249,-2.43766 -2.96763,-2.43766 -2.57056,0 -5.64386,2.17268 -5.64386,4.61035 m 364.20263,-6.61812 c 0,1.13917 0.82136,2.41124 2.96762,2.41124 2.75549,0 5.64386,-2.25274 5.64386,-4.58473 0,-1.56267 -1.3249,-2.43767 -2.96762,-2.43767 -2.57056,0 -5.64385,2.17269 -5.64385,4.61116 m -14.36583,-3.30947 c 0,1.13918 0.82136,2.41125 2.96762,2.41125 2.75629,0 5.64466,-2.25274 5.64466,-4.58393 0,-1.56347 -1.3249,-2.43847 -2.96843,-2.43847 -2.56976,0 -5.64386,2.17349 -5.64386,4.61115 M 226.64215,33.914389 c 0,1.139179 0.82136,2.411249 2.96763,2.411249 2.75548,0 5.64386,-2.25194 5.64386,-4.583935 0,-1.563469 -1.32491,-2.437666 -2.96763,-2.437666 -2.57056,0 -5.64386,2.172685 -5.64386,4.610352 m 26.29078,24.331036 c -0.875,0 -1.05993,-0.714889 -1.05993,-0.953452 0,-1.298488 4.45104,-3.577646 5.6967,-3.577646 0.63563,0 1.05992,0.371454 1.05992,0.954253 0,1.324905 -4.47826,3.576845 -5.69669,3.576845 m 3.6561,-5.775949 c -2.56976,0 -5.64386,2.146267 -5.64386,4.610352 0,1.139179 0.82136,2.411249 2.96763,2.411249 2.75628,0 5.64466,-2.25194 5.64466,-4.583934 0,-1.563469 -1.32491,-2.437667 -2.96843,-2.437667 M 460.2803,106.72017 c 0,1.13918 0.82136,2.41125 2.96843,2.41125 2.75548,0 5.64386,-2.25194 5.64386,-4.58394 0,-1.56346 -1.32491,-2.43766 -2.96763,-2.43766 -2.57056,0 -5.64466,2.17268 -5.64466,4.61035 M 182.44153,30.604926 c 0,1.139979 0.82136,2.411249 2.96763,2.411249 2.75548,0 5.64386,-2.25194 5.64386,-4.583935 0,-1.563469 -1.32491,-2.437666 -2.96763,-2.437666 -2.57056,0 -5.64386,2.172685 -5.64386,4.610352 m 258.80175,72.805784 c 0,1.13918 0.82136,2.41125 2.96763,2.41125 2.75629,0 5.64466,-2.25194 5.64466,-4.58394 0,-1.563468 -1.3249,-2.437666 -2.96843,-2.437666 -2.56976,0 -5.64386,2.172686 -5.64386,4.610356 M 287.40049,30.604926 c 0,1.139979 0.82136,2.411249 2.96763,2.411249 2.75549,0 5.64386,-2.25194 5.64386,-4.583935 0,-1.563469 -1.3249,-2.437666 -2.96763,-2.437666 -2.57056,0 -5.64386,2.172685 -5.64386,4.610352 m 139.47777,69.496314 c 0,1.13998 0.82136,2.41125 2.96763,2.41125 2.75548,0 5.64386,-2.25194 5.64386,-4.583932 0,-1.563469 -1.32491,-2.437666 -2.96763,-2.437666 -2.57056,0 -5.64386,2.172685 -5.64386,4.610348 M 321.16838,27.295463 c 0,1.13998 0.82136,2.411249 2.96763,2.411249 2.75629,0 5.64386,-2.25194 5.64386,-4.583934 0,-1.563469 -1.32491,-2.437747 -2.96763,-2.437747 -2.56976,0 -5.64386,2.172765 -5.64386,4.610432 m 91.34406,69.496318 c 0,1.13998 0.82136,2.411249 2.96763,2.411249 2.75628,0 5.64466,-2.25194 5.64466,-4.583934 0,-1.563469 -1.32491,-2.437667 -2.96843,-2.437667 -2.56976,0 -5.64386,2.172685 -5.64386,4.610352 M 345.4714,30.604926 c 0,1.139979 0.82216,2.411249 2.96843,2.411249 2.75548,0 5.64386,-2.25194 5.64386,-4.583935 0,-1.563469 -1.32491,-2.437666 -2.96763,-2.437666 -2.57056,0 -5.64466,2.172685 -5.64466,4.610352 m -179.23215,3.309463 c 0,1.139179 0.82136,2.411249 2.96763,2.411249 2.75548,0 5.64386,-2.25194 5.64386,-4.583935 0,-1.563469 -1.32491,-2.437666 -2.96763,-2.437666 -2.57056,0 -5.64386,2.172685 -5.64386,4.610352 m 231.90817,69.496321 c 0,1.13918 0.82136,2.41125 2.96763,2.41125 2.75548,0 5.64385,-2.25194 5.64385,-4.58394 0,-1.563468 -1.3249,-2.437666 -2.96762,-2.437666 -2.57056,0 -5.64386,2.172686 -5.64386,4.610356 m 126.04458,6.61892 c 0,1.13918 0.82136,2.41125 2.96763,2.41125 2.75628,0 5.64466,-2.25274 5.64466,-4.58393 0,-1.56347 -1.32491,-2.43847 -2.96763,-2.43847 -2.57056,0 -5.64466,2.17349 -5.64466,4.61115 M 361.67368,33.914389 c 0,1.139179 0.82136,2.411249 2.96843,2.411249 2.75548,0 5.64386,-2.25194 5.64386,-4.583935 0,-1.563469 -1.32491,-2.437666 -2.96763,-2.437666 -2.57056,0 -5.64466,2.172685 -5.64466,4.610352 m 16.20228,3.309463 c 0,1.139179 0.82136,2.411248 2.96843,2.411248 2.75548,0 5.64385,-2.251939 5.64385,-4.583934 0,-1.563469 -1.3249,-2.437667 -2.96762,-2.437667 -2.57056,0 -5.64466,2.172686 -5.64466,4.610353 m -10.74175,62.877388 c 0,1.13998 0.82136,2.41125 2.96763,2.41125 2.75628,0 5.64466,-2.25194 5.64466,-4.583932 0,-1.563469 -1.32491,-2.437666 -2.96843,-2.437666 -2.56976,0 -5.64386,2.172685 -5.64386,4.610348 M 150.03697,37.223852 c 0,1.139179 0.82136,2.411248 2.96763,2.411248 2.75629,0 5.64386,-2.251939 5.64386,-4.583934 0,-1.563469 -1.32491,-2.437667 -2.96763,-2.437667 -2.56976,0 -5.64386,2.172686 -5.64386,4.610353 m 195.54891,62.877388 c 0,1.13998 0.82216,2.41125 2.96843,2.41125 2.75548,0 5.64386,-2.25194 5.64386,-4.583932 0,-1.563469 -1.32491,-2.437666 -2.96763,-2.437666 -2.57056,0 -5.64466,2.172685 -5.64466,4.610348 m 48.49235,-66.186851 c 0,1.139179 0.82137,2.411249 2.96843,2.411249 2.75549,0 5.64386,-2.25194 5.64386,-4.583935 0,-1.563469 -1.3249,-2.437666 -2.96763,-2.437666 -2.57055,0 -5.64466,2.172685 -5.64466,4.610352 m -70.03989,62.877392 c 0,1.13998 0.82137,2.411249 2.96763,2.411249 2.75549,0 5.64386,-2.25194 5.64386,-4.583934 0,-1.563469 -1.3249,-2.437667 -2.96763,-2.437667 -2.57055,0 -5.64386,2.172685 -5.64386,4.610352 m 86.24217,-66.186855 c 0,1.139979 0.82136,2.411249 2.96763,2.411249 2.75629,0 5.64466,-2.25194 5.64466,-4.583935 0,-1.563469 -1.32491,-2.437666 -2.96763,-2.437666 -2.57056,0 -5.64466,2.172685 -5.64466,4.610352 m 135.45982,86.043634 c 0,1.13918 0.82136,2.41125 2.96763,2.41125 2.75629,0 5.64386,-2.25274 5.64386,-4.58474 0,-1.56347 -1.32491,-2.43766 -2.96763,-2.43766 -2.56976,0 -5.64386,2.17268 -5.64386,4.61115 M 302.49001,96.791781 c 0,1.13998 0.82136,2.411249 2.96763,2.411249 2.75628,0 5.64466,-2.25194 5.64466,-4.583934 0,-1.563469 -1.32491,-2.437667 -2.96843,-2.437667 -2.56976,0 -5.64386,2.172685 -5.64386,4.610352 M 426.48279,37.223852 c 0,1.139179 0.82136,2.411248 2.96763,2.411248 2.75628,0 5.64466,-2.251939 5.64466,-4.583934 0,-1.563469 -1.32491,-2.437667 -2.96763,-2.437667 -2.57056,0 -5.64466,2.172686 -5.64466,4.610353 m 29.9861,-2.143866 c -0.87499,0 -1.05992,-0.714889 -1.05992,-0.953452 0,-1.298488 4.45104,-3.577646 5.69669,-3.577646 0.63564,0 1.05993,0.371454 1.05993,0.954252 0,1.324906 -4.47826,3.576846 -5.6967,3.576846 m 3.6561,-5.775949 c -2.56975,0 -5.64386,2.146267 -5.64386,4.610352 0,1.139179 0.82137,2.411249 2.96763,2.411249 2.75629,0 5.64466,-2.25194 5.64466,-4.583935 0,-1.563469 -1.3249,-2.437666 -2.96843,-2.437666 m -329.12504,4.610352 c 0,1.139179 0.82137,2.411249 2.96763,2.411249 2.75549,0 5.64386,-2.25194 5.64386,-4.583935 0,-1.563469 -1.3249,-2.437666 -2.96763,-2.437666 -2.57055,0 -5.64386,2.172685 -5.64386,4.610352 m 140.47766,66.186851 c 0,1.13998 0.82136,2.41125 2.96763,2.41125 2.75548,0 5.64385,-2.25194 5.64385,-4.583932 0,-1.563469 -1.3249,-2.437666 -2.96762,-2.437666 -2.57056,0 -5.64386,2.172685 -5.64386,4.610348 M 530.29377,30.604926 c 0,1.139979 0.82136,2.411249 2.96763,2.411249 2.75628,0 5.64386,-2.25194 5.64386,-4.583935 0,-1.563469 -1.32491,-2.437666 -2.96763,-2.437666 -2.56976,0 -5.64386,2.172685 -5.64386,4.610352 m 36.9949,82.734174 c 0,1.13917 0.82136,2.41124 2.96763,2.41124 2.75548,0 5.64385,-2.25274 5.64385,-4.58473 0,-1.56267 -1.3249,-2.43767 -2.96762,-2.43767 -2.57056,0 -5.64386,2.17269 -5.64386,4.61116 m -317.3594,16.54651 c 0,1.13918 0.82136,2.41125 2.96763,2.41125 2.75549,0 5.64386,-2.25194 5.64386,-4.58394 0,-1.56347 -1.32491,-2.43766 -2.96763,-2.43766 -2.57056,0 -5.64386,2.17268 -5.64386,4.61035 M 588.8362,106.72017 c 0,1.13918 0.82136,2.41125 2.96843,2.41125 2.75548,0 5.64386,-2.25194 5.64386,-4.58394 0,-1.56346 -1.32491,-2.43766 -2.96763,-2.43766 -2.57056,0 -5.64466,2.17268 -5.64466,4.61035 M 546.49605,30.604926 c 0,1.139979 0.82136,2.411249 2.96763,2.411249 2.75548,0 5.64386,-2.25194 5.64386,-4.583935 0,-1.563469 -1.32491,-2.437666 -2.96763,-2.437666 -2.57056,0 -5.64386,2.172685 -5.64386,4.610352 m 27.99834,-3.309463 c 0,1.13998 0.82136,2.411249 2.96763,2.411249 2.75549,0 5.64386,-2.25194 5.64386,-4.583934 0,-1.563469 -1.3249,-2.437747 -2.96763,-2.437747 -2.57056,0 -5.64386,2.172765 -5.64386,4.610432 M 227.64844,126.57615 c 0,1.13918 0.82136,2.41124 2.96843,2.41124 2.75548,0 5.64386,-2.25193 5.64386,-4.58393 0,-1.56347 -1.32491,-2.43767 -2.96763,-2.43767 -2.57056,0 -5.64466,2.17269 -5.64466,4.61036 M 598.79741,27.295463 c 0,1.13998 0.82136,2.411249 2.96763,2.411249 2.75628,0 5.64466,-2.25194 5.64466,-4.583934 0,-1.563469 -1.32491,-2.437747 -2.96843,-2.437747 -2.56976,0 -5.64386,2.172765 -5.64386,4.610432 m -483.99973,3.309463 c 0,1.139979 0.82136,2.411249 2.96763,2.411249 2.75548,0 5.64385,-2.25194 5.64385,-4.583935 0,-1.563469 -1.3249,-2.437666 -2.96762,-2.437666 -2.57056,0 -5.64386,2.172685 -5.64386,4.610352 m 500.20201,-3.309463 c 0,1.13998 0.82136,2.411249 2.96763,2.411249 2.75628,0 5.64466,-2.25194 5.64466,-4.583934 0,-1.563469 -1.32491,-2.437747 -2.96843,-2.437747 -2.56976,0 -5.64386,2.172765 -5.64386,4.610432 M 206.1009,126.57615 c 0,1.13918 0.82137,2.41124 2.96763,2.41124 2.75549,0 5.64386,-2.25193 5.64386,-4.58393 0,-1.56347 -1.3249,-2.43767 -2.96763,-2.43767 -2.57055,0 -5.64386,2.17269 -5.64386,4.61036 M 631.20197,37.223852 c 0,1.139179 0.82136,2.411248 2.96763,2.411248 2.75628,0 5.64466,-2.251939 5.64466,-4.583934 0,-1.563469 -1.32491,-2.437667 -2.96843,-2.437667 -2.56976,0 -5.64386,2.172686 -5.64386,4.610353 m 24.30301,0 c 0,1.139179 0.82217,2.411248 2.96843,2.411248 2.75549,0 5.64386,-2.251939 5.64386,-4.583934 0,-1.563469 -1.3249,-2.437667 -2.96763,-2.437667 -2.57055,0 -5.64466,2.172686 -5.64466,4.610353 M 90.493859,27.295463 c 0,1.13998 0.821362,2.411249 2.967629,2.411249 2.756285,0 5.64466,-2.25194 5.64466,-4.583934 0,-1.563469 -1.324906,-2.437747 -2.96763,-2.437747 -2.570557,0 -5.644659,2.172765 -5.644659,4.610432 m -36.468132,3.309463 c 0,1.139979 0.821362,2.411249 2.967629,2.411249 2.755484,0 5.643859,-2.25194 5.643859,-4.583935 0,-1.563469 -1.324906,-2.437666 -2.967629,-2.437666 -2.570557,0 -5.643859,2.172685 -5.643859,4.610352 m 7.966247,67.353253 c -0.874198,0 -1.059925,-0.71569 -1.059925,-0.954253 0,-1.298488 4.451844,-3.576845 5.697496,-3.576845 0.635635,0 1.059925,0.370653 1.059925,0.953451 0,1.324906 -4.478262,3.577647 -5.697496,3.577647 m 3.6569,-5.77675 c -2.570557,0 -5.643859,2.146267 -5.643859,4.610352 0,1.13998 0.821362,2.411249 2.96763,2.411249 2.755484,0 5.643859,-2.25194 5.643859,-4.583934 0,-1.563469 -1.324906,-2.437667 -2.96763,-2.437667 M 175.0877,123.26668 c 0,1.13998 0.82136,2.41125 2.96763,2.41125 2.75628,0 5.64466,-2.25194 5.64466,-4.58393 0,-1.56347 -1.32491,-2.43767 -2.96843,-2.43767 -2.56976,0 -5.64386,2.17269 -5.64386,4.61035 m 444.7617,-19.85597 c 0,1.13918 0.82137,2.41125 2.96763,2.41125 2.75549,0 5.64386,-2.25194 5.64386,-4.58394 0,-1.563468 -1.3249,-2.437666 -2.96763,-2.437666 -2.57055,0 -5.64386,2.172686 -5.64386,4.610356 m -509.4059,16.54651 c 0,1.13998 0.82136,2.41125 2.96763,2.41125 2.75628,0 5.64466,-2.25194 5.64466,-4.58394 0,-1.56346 -1.32491,-2.43766 -2.96843,-2.43766 -2.56976,0 -5.64386,2.17268 -5.64386,4.61035 m 43.09587,3.30946 c 0,1.13998 0.82216,2.41125 2.96843,2.41125 2.75548,0 5.64385,-2.25194 5.64385,-4.58393 0,-1.56347 -1.3249,-2.43767 -2.96762,-2.43767 -2.57056,0 -5.64466,2.17269 -5.64466,4.61035 M 643.3847,104.5763 c -0.8742,0 -1.05993,-0.71489 -1.05993,-0.95345 0,-1.29849 4.45185,-3.57764 5.6975,-3.57764 0.63563,0 1.05992,0.37145 1.05992,0.95425 0,1.3249 -4.47826,3.57684 -5.69749,3.57684 m 3.6569,-5.775946 c -2.57056,0 -5.64386,2.146266 -5.64386,4.610356 0,1.13918 0.82136,2.41125 2.96763,2.41125 2.75548,0 5.64386,-2.25194 5.64386,-4.58394 0,-1.563468 -1.32491,-2.437666 -2.96763,-2.437666 M 198.64381,37.223852 c 0,1.139179 0.82136,2.411248 2.96763,2.411248 2.75548,0 5.64385,-2.251939 5.64385,-4.583934 0,-1.563469 -1.3249,-2.437667 -2.96762,-2.437667 -2.57056,0 -5.64386,2.172686 -5.64386,4.610353 M 38.456682,96.791781 c 0,1.13998 0.821361,2.411249 2.967629,2.411249 2.756285,0 5.644659,-2.25194 5.644659,-4.583934 0,-1.563469 -1.324905,-2.437667 -2.968429,-2.437667 -2.569757,0 -5.643859,2.172685 -5.643859,4.610352 M 385.81864,11.290702 v 23.761249 h 0.66202 V 11.290702 Z M 139.93365,95.679028 v 22.106362 h 0.66201 V 95.679028 Z M 38.457074,96.791037 v 20.398633 h 0.662021 V 96.791037 Z M 183.0303,98.988475 v 22.106365 h 0.66201 V 98.988475 Z M 649.33961,80.787278 v 20.451492 h 0.66201 V 80.787278 Z M 118.3861,95.679028 v 22.106362 h 0.66201 V 95.679028 Z m 509.40596,-14.89175 v 20.451492 h 0.66201 V 80.787278 Z M 54.025375,30.604061 v 18.744065 h 0.662021 V 30.604061 Z m 36.468844,-3.309446 v 20.398787 h 0.662165 V 27.294615 Z M 122.73955,11.323224 v 17.109825 h 0.66201 V 11.323224 Z M 60.004623,96.791037 v 20.398633 h 0.662013 V 96.791037 Z M 596.77882,82.44201 v 22.1062 h 0.66202 V 82.44201 Z M 138.94171,12.912904 v 18.829592 h 0.66218 V 12.912904 Z M 575.2305,89.060127 v 22.107143 h 0.66201 V 89.060127 Z m -361.18775,9.928348 v 25.415815 h 0.66202 V 98.988475 Z M 157.97958,11.290702 v 23.761249 h 0.66201 V 11.290702 Z m 395.70337,81.078871 v 22.106367 h 0.66202 V 92.369573 Z m -21.54833,-6.618117 v 22.106364 h 0.66202 V 85.751456 Z M 663.44769,12.945427 v 22.106524 h 0.66202 V 12.945427 Z M 174.1819,11.290702 v 20.451794 h 0.66202 V 11.290702 Z m 464.96277,1.654725 v 22.106524 h 0.66201 V 12.945427 Z M 235.59108,98.988475 v 25.415815 h 0.66202 V 98.988475 Z m 379.40817,-71.69386 v 17.08934 h 0.66202 V 27.294615 Z M 190.38423,11.290702 v 17.142347 h 0.66202 V 11.290702 Z m 16.20139,0 v 23.761249 h 0.66202 V 11.290702 Z m 392.21224,16.003913 v 17.08934 h 0.66202 v -17.08934 z m -340.9267,71.69386 v 28.725265 h 0.66201 V 98.988475 Z m 316.6229,-71.69386 v 20.398787 h 0.66201 V 27.294615 Z m -70.3578,65.038846 v 18.833809 h 0.66201 V 92.333461 Z M 234.58399,11.290702 V 31.742496 H 235.246 V 11.290702 Z m 255.18729,79.460893 v 17.106225 h 0.66202 V 90.751595 Z m 56.72441,-60.147534 v 17.089341 h 0.66202 V 30.604061 Z m -287.6079,-1.111856 v 25.415666 h 0.66202 V 29.492205 Z M 468.22295,82.44201 v 22.1062 h 0.66202 v -22.1062 z m -196.74577,17.65847 v 18.74392 h 0.66201 V 100.10048 Z M 530.29336,30.604061 v 17.089341 h 0.66202 V 30.604061 Z m -242.89326,0 v 18.744065 h 0.66201 V 30.604061 Z m 153.84285,72.805879 v 17.08918 h 0.66201 V 103.40994 Z M 321.16803,27.294615 v 20.398787 h 0.66202 V 27.294615 Z m 105.70978,72.805865 v 20.39864 h 0.66218 V 100.10048 Z M 353.41399,11.323224 v 17.109825 h 0.66216 V 11.323224 Z m 109.00985,-0.03252 v 20.451794 h 0.66201 V 11.290702 Z m -49.91179,85.500335 v 23.708081 h 0.66202 V 96.791037 Z m -14.36498,6.618901 v 17.08918 h 0.66201 v -17.08918 z m -95.65744,-6.618901 v 20.398631 h 0.66202 V 96.791037 Z M 434.42547,11.290702 v 23.761249 h 0.66202 V 11.290702 Z M 324.03796,96.791037 v 20.398633 h 0.66202 V 96.791037 Z m 94.18518,-85.500335 v 17.142347 h 0.66202 V 11.290702 Z m -48.60682,1.622202 v 18.829592 h 0.66201 V 12.912904 Z m 32.4045,-1.622202 v 20.451794 h 0.66217 V 11.290702 Z m -34.8862,88.809778 v 18.74392 h 0.66201 V 100.10048 Z M 161.48197,98.988475 v 22.106365 h 0.66202 V 98.988475 Z m 184.10432,1.112005 v 18.74392 h 0.66202 v -18.74392 z m -120.12182,24.83339 v 1.05901 h 12.97371 v -1.05901 z m -95.65728,-6.6189 v 1.05901 h 12.97356 v -1.05901 z m 74.10895,0 v 1.05901 h 12.97372 v -1.05901 z m 0,6.6189 v 1.05901 h 12.97372 v -1.05901 z m 21.54833,-6.6189 v 1.05901 h 12.97371 v -1.05901 z m -52.56062,0 v 1.05901 h 12.97356 v -1.05901 z m -64.6442,0 v 1.05901 h 12.97355 v -1.05901 z m 43.09586,0 v 1.05901 h 12.97356 v -1.05901 z m 96.38904,0 v 1.05901 h 12.97449 v -1.05901 z m 0,6.6189 v 1.05901 h 12.97449 v -1.05901 z m 1.01679,-69.496421 v 1.059164 h 12.97356 v -1.059164 z m 0,-6.618901 v 1.059164 h 12.97356 v -1.059164 z m 205.47082,54.827522 2.35842,-0.47633 v 4.37179 l -2.35842,0.50355 v -4.39901 m 4.10681,-0.82136 c 0.15931,-0.0264 0.2922,-0.21215 0.2922,-0.37066 v -1.56347 c 0,-0.21214 -0.15931,-0.37065 -0.37145,-0.37065 h -0.0528 l -0.8742,0.18493 v -3.948303 h -0.7421 v 4.107613 l -2.35842,0.47712 v -3.736153 h -0.7421 v 3.894663 l -1.03351,0.21215 c -0.15851,0.0264 -0.2914,0.21214 -0.2914,0.37065 v 1.53705 c 0,0.21214 0.15931,0.37145 0.37145,0.37145 h 0.0793 l 0.8742,-0.18572 v 4.37179 l -1.03351,0.21214 c -0.15851,0.0264 -0.2914,0.21215 -0.2914,0.37145 v 1.53626 c 0,0.21214 0.15931,0.37145 0.37145,0.37145 h 0.0793 l 0.8742,-0.18573 v 3.9483 h 0.7421 v -4.10681 l 2.35842,-0.47712 v 3.73615 h 0.7421 v -3.89546 l 1.00629,-0.18573 c 0.15931,-0.0264 0.2922,-0.21134 0.2922,-0.37065 v -1.56347 c 0,-0.21215 -0.15931,-0.37065 -0.37145,-0.37065 h -0.0528 l -0.8742,0.18492 v -4.37179 l 1.00629,-0.18572 m 124.44909,0.82136 2.35842,-0.47633 v 4.37179 l -2.35842,0.50355 v -4.39901 m 4.10681,-0.82136 c 0.15931,-0.0264 0.2922,-0.21215 0.2922,-0.37066 v -1.56347 c 0,-0.21214 -0.15931,-0.37065 -0.37145,-0.37065 h -0.0528 l -0.8742,0.18493 v -3.948303 h -0.7421 v 4.107613 l -2.35842,0.47712 v -3.736153 h -0.7421 v 3.894663 l -1.03351,0.21215 c -0.15851,0.0264 -0.2914,0.21214 -0.2914,0.37065 v 1.53705 c 0,0.21214 0.15931,0.37145 0.37145,0.37145 h 0.0793 l 0.8742,-0.18572 v 4.37179 l -1.03351,0.21214 c -0.15851,0.0264 -0.2914,0.21215 -0.2914,0.37145 v 1.53626 c 0,0.21214 0.15931,0.37145 0.37145,0.37145 h 0.0793 l 0.8742,-0.18573 v 3.9483 h 0.7421 v -4.10681 l 2.35842,-0.47712 v 3.73615 h 0.7421 v -3.89546 l 1.00629,-0.18573 c 0.15931,-0.0264 0.2922,-0.21134 0.2922,-0.37065 v -1.56347 c 0,-0.21215 -0.15931,-0.37065 -0.37145,-0.37065 h -0.0528 l -0.8742,0.18492 v -4.37179 l 1.00629,-0.18572 m -442.90603,-68.67496 2.35761,-0.476326 v 4.371789 l -2.35761,0.503545 V 34.14975 m 4.1068,-0.821362 c 0.15931,-0.02642 0.2914,-0.212145 0.2914,-0.370653 v -1.563469 c 0,-0.212145 -0.15851,-0.370654 -0.37065,-0.370654 h -0.0528 l -0.87499,0.184927 v -3.9483 h -0.74211 v 4.107609 l -2.35761,0.477126 v -3.736155 h -0.74211 v 3.894663 l -1.03351,0.212145 c -0.15931,0.02642 -0.2914,0.212145 -0.2914,0.370654 v 1.537051 c 0,0.212145 0.15851,0.371454 0.37066,0.371454 h 0.0793 l 0.875,-0.185727 v 4.371789 l -1.03351,0.212145 c -0.15931,0.02642 -0.2914,0.212145 -0.2914,0.371454 v 1.53625 c 0,0.212145 0.15851,0.371454 0.37066,0.371454 h 0.0793 l 0.875,-0.185727 v 3.9483 h 0.74211 v -4.106808 l 2.35761,-0.477126 v 3.736154 h 0.74211 v -3.895463 l 1.00708,-0.185727 c 0.15931,-0.02642 0.2914,-0.211345 0.2914,-0.370654 v -1.563469 c 0,-0.212145 -0.15851,-0.370653 -0.37065,-0.370653 h -0.0528 l -0.87499,0.184926 v -4.371789 l 1.00708,-0.185727 m 94.06432,93.483122 2.35841,-0.47633 v 4.37179 l -2.35841,0.50354 v -4.399 m 4.10681,-0.82136 c 0.15931,-0.0264 0.2914,-0.21215 0.2914,-0.37066 v -1.56347 c 0,-0.21214 -0.15851,-0.37065 -0.37066,-0.37065 h -0.0528 l -0.875,0.18493 v -3.9483 h -0.74131 v 4.1076 l -2.35841,0.47713 v -3.73615 h -0.74211 v 3.89466 l -1.0335,0.21214 c -0.15931,0.0264 -0.2914,0.21215 -0.2914,0.37066 v 1.53705 c 0,0.21214 0.15931,0.37145 0.37065,0.37145 h 0.0801 l 0.87419,-0.18572 v 4.37179 l -1.0335,0.21214 c -0.15931,0.0264 -0.2914,0.21215 -0.2914,0.37145 v 1.53625 c 0,0.21215 0.15931,0.37146 0.37065,0.37146 h 0.0801 l 0.87419,-0.18573 v 3.9483 h 0.74211 v -4.10681 l 2.35841,-0.47712 v 3.73615 h 0.74131 v -3.89546 l 1.00709,-0.18573 c 0.15931,-0.0264 0.2914,-0.21134 0.2914,-0.37065 v -1.56347 c 0,-0.21215 -0.15851,-0.37065 -0.37066,-0.37065 h -0.0528 l -0.875,0.18492 v -4.37179 l 1.00709,-0.18572 M 514.72788,85.387143 v 27.202667 h 1.19128 V 85.387143 Z m 162.63166,0 v 27.202667 h 3.64015 V 85.387143 Z m -3.63967,0 V 112.58981 H 674.911 V 85.387143 Z m -572.7413,0 v 27.202667 h 1.19129 V 85.387143 Z M 217.17724,15.890721 v 27.202816 h 1.19128 V 15.890721 Z m 347.85222,0 v 27.202816 h 1.19128 V 15.890721 Z m -43.00774,16.910907 c 0,-0.768525 -0.60922,-1.40416 -1.37775,-1.40416 -0.76852,0 -1.37774,0.635635 -1.37774,1.40416 0,0.768526 0.60922,1.40416 1.37774,1.40416 0.76853,0 1.37775,-0.635634 1.37775,-1.40416 m 0,-6.618926 c 0,-0.768525 -0.60922,-1.40416 -1.37775,-1.40416 -0.76852,0 -1.37774,0.635635 -1.37774,1.40416 0,0.768526 0.60922,1.40416 1.37774,1.40416 0.76853,0 1.37775,-0.635634 1.37775,-1.40416 m -6.39557,-10.291981 v 27.202816 h 1.19128 V 15.890721 Z m -6.08854,0 v 27.202816 h 3.63999 V 15.890721 Z m -197.83417,0 v 27.202816 h 1.19128 V 15.890721 Z m 197.83417,0 v 27.202816 h 3.63999 V 15.890721 Z m -3.64046,0 v 27.202816 h 1.19113 V 15.890721 Z m -2.44733,16.910907 c 0,-0.768525 -0.60922,-1.40416 -1.37775,-1.40416 -0.76852,0 -1.37774,0.635635 -1.37774,1.40416 0,0.768526 0.60922,1.40416 1.37774,1.40416 0.76853,0 1.37775,-0.635634 1.37775,-1.40416 m 0,-6.618926 c 0,-0.768525 -0.60922,-1.40416 -1.37775,-1.40416 -0.76852,0 -1.37774,0.635635 -1.37774,1.40416 0,0.768526 0.60922,1.40416 1.37774,1.40416 0.76853,0 1.37775,-0.635634 1.37775,-1.40416 M 293.0252,85.387143 v 27.202667 h 1.19112 V 85.387143 Z M 445.0163,15.890721 v 27.202816 h 1.19114 V 15.890721 Z M 196.63601,85.387143 v 27.202667 h 1.19128 V 85.387143 Z m 413.74852,0 v 27.202667 h 1.19129 V 85.387143 Z M 81.028995,15.890721 v 27.202816 h 1.191279 V 15.890721 Z m 598.779875,0 V 43.093537 H 681 V 15.890721 Z m -291.1264,69.496422 v 27.202667 h 1.19129 V 85.387143 Z M 0,111.86165 v 0.72769 h 681 v -0.72769 z m 0,-6.61811 v 0.72768 h 681 v -0.72768 z m 0,-6.618906 v 0.727682 h 681 v -0.727682 z m 0,-6.618901 v 0.727689 h 681 v -0.727689 z m 0,-6.618117 v 0.727681 H 681 V 85.387616 Z M 0,42.365383 v 0.72769 h 681 v -0.72769 z m 0,-6.618117 v 0.72769 h 681 v -0.72769 z m 0,-6.618902 v 0.72769 h 681 v -0.72769 z m 0,-6.618742 v 0.727685 h 681 v -0.727685 z m 0,-6.618744 v 0.727841 h 681 v -0.727841 z"
     style="stroke-width:0.0800547" />
  <metadata
     id="metadata164">
    <rdf:RDF>
      <cc:Work
         rdf:about="">
        <dc:title>air_XXX</dc:title>
      </cc:Work>
    </rdf:RDF>
  </metadata>
</svg>
