<?xml version="1.0" encoding="utf-8"?>
<svg xmlns="http://www.w3.org/2000/svg" xmlns:svg="http://www.w3.org/2000/svg" version="1.1" viewBox="0 0 681 187">
	<title>The musical score for Air XLIII</title>
	<path d="M326.731 19.538c0 .742.584 1.325 1.325 1.325.742 0 1.325-.583 1.325-1.325s-.583-1.325-1.325-1.325c-.741 0-1.325.583-1.325 1.325m-216.299 6.619c0 .741.583 1.325 1.325 1.325s1.325-.584 1.325-1.325c0-.742-.583-1.325-1.325-1.325s-1.325.583-1.325 1.325m144.323 0c0 .741.583 1.325 1.325 1.325s1.325-.584 1.325-1.325c0-.742-.583-1.325-1.325-1.325s-1.325.583-1.325 1.325M45.094 32.793v1.96h-2.2c-.185 0-.37.16-.37.37v.504c0 .212.185.372.37.372h8.03c.212 0 .371-.16.371-.372v-.503c0-.212-.16-.37-.371-.37h-2.385v-1.961h2.385c.212 0 .371-.186.371-.398v-.504a.38.38 0 0 0-.371-.37h-2.385v-4.214c0-.16-.08-.291-.185-.344l-.318-.16c-.054-.026-.08-.026-.133-.026-.106 0-.212 0-.291.08l-2.412 2.2a.4.4 0 0 0-.106.29v2.174h-3.073s2.967-3.18 6.094-7.367a.58.58 0 0 0 .132-.37.44.44 0 0 0-.079-.266l-.583-.583c-.079-.053-.159-.106-.265-.106h-3.948c-.186 0-.318.159-.344.318 0 0-.133 1.961-.822 4.107s-1.484 3.472-2.173 4.452c0 0-.08.132-.08.292 0 .052 0 .105.027.158.08.186.265.477.265.477s.053.16.292.16zm.794-11.067c-.875 0-1.59-1.192-1.59-2.676s.715-2.703 1.59-2.703c.874 0 1.616 1.219 1.616 2.703s-.742 2.676-1.616 2.676m.98-6.625c-1.616 0-2.2.477-2.57.875-.08-.557-.133-.98-.133-1.405 0-1.51.53-3.47 2.385-3.47.663 0 1.06.211 1.325.503-.556.238-1.007.954-1.007 1.563 0 .954.742 1.696 1.696 1.696s1.722-.742 1.722-1.696v-.08c0-.238-.052-.635-.158-.847-.345-.954-1.458-2.359-4.108-2.359-2.385 0-4.107 2.28-4.637 3.498a9.4 9.4 0 0 0-.662 3.418c0 1.617.45 3.445 2.014 4.823 1.537 1.166 2.517 1.219 3.445 1.219s4.398-1.087 4.398-4.16c0-2.597-2.04-3.578-3.71-3.578M28.941 77.145l2.358-.477v4.373l-2.358.503zm4.107-.821c.16-.026.292-.212.292-.372V74.39a.363.363 0 0 0-.371-.372h-.054l-.874.186v-3.948H31.3v4.107l-2.358.477v-3.736h-.742v3.895l-1.033.212c-.16.027-.292.212-.292.37v1.538c0 .212.159.37.371.37h.08l.874-.184v4.371l-1.033.213c-.16.026-.292.212-.292.37v1.537c0 .212.159.37.371.37h.08l.874-.184v3.948h.742v-4.107l2.358-.477v3.736h.742v-3.895l1.007-.186c.16-.026.292-.212.292-.37v-1.564a.363.363 0 0 0-.371-.371h-.054l-.874.185V76.51zM28.941 7.649l2.358-.477v4.372l-2.358.504zm4.107-.821c.16-.027.292-.212.292-.371V4.893a.36.36 0 0 0-.371-.37h-.054l-.874.185V.759H31.3v4.108l-2.358.477V1.607h-.742v3.896l-1.033.212c-.16.026-.292.212-.292.37v1.537c0 .212.159.371.371.371h.08l.874-.185v4.372l-1.033.212c-.16.027-.292.212-.292.371V14.3c0 .212.159.371.371.371h.08l.874-.185v3.948h.742v-4.107l2.358-.477v3.736h.742V13.69l1.007-.186c.16-.026.292-.212.292-.37V11.57a.36.36 0 0 0-.371-.371h-.054l-.874.185V7.013zm-4.107 139.814 2.358-.477v4.372l-2.358.504zm4.107-.82c.16-.027.292-.213.292-.371v-1.564a.363.363 0 0 0-.371-.371h-.054l-.874.185v-3.948H31.3v4.108l-2.358.476V140.6h-.742v3.895l-1.033.212c-.16.027-.292.213-.292.371v1.537c0 .212.159.37.371.37h.08l.874-.184v4.372l-1.033.212c-.16.026-.292.212-.292.37v1.538c0 .212.159.371.371.371h.08l.874-.186v3.949h.742v-4.108l2.358-.477v3.737h.742v-3.896l1.007-.185c.16-.027.292-.213.292-.371v-1.563a.363.363 0 0 0-.371-.372h-.054l-.874.186v-4.372zM16.093 34.924a7.7 7.7 0 0 1-1.537.16c-3.789 0-7.022-2.65-7.022-6.651 0-3.234 2.28-6.122 4.611-8.135.45-.398.875-.769 1.272-1.166.238 1.43.424 2.676.61 3.762-2.412.716-4.055 3.26-4.055 5.75 0 1.855 1.458 4.4 3.577 4.4.212 0 .451-.107.451-.345 0-.239-.265-.372-.583-.583-1.033-.636-1.616-1.325-1.616-2.623 0-1.617 1.192-2.915 2.755-3.287zm-2.332-27.24c.239-1.06 1.458-3.842 2.836-3.842.397 0 1.033 1.299 1.033 3.127 0 2.756-2.04 4.823-3.869 6.625-.159-1.06-.291-2.094-.291-3.207 0-.98.08-1.881.291-2.703m6.095 22.339c0 1.881-.768 3.815-2.65 4.584a882 882 0 0 1-1.457-8.559c2.385 0 4.107 1.616 4.107 3.975M8.196 43.06c0 1.748 1.352 4.054 4.93 4.054 1.245 0 2.331-.318 3.285-.901 1.431-1.007 1.802-2.756 1.802-4.425 0-1.034-.159-2.226-.424-3.737-.08-.53-.238-1.325-.397-2.358 2.597-.848 4.53-3.55 4.53-6.28 0-4.001-2.834-6.704-6.703-6.704-.265-1.59-.53-3.153-.769-4.637 2.81-2.942 4.744-6.254 4.744-10.467 0-2.411-.742-4.372-1.166-5.326C17.392.927 16.623 0 16.146 0c-.185 0-1.007.318-1.881 1.351-1.696 2.014-2.173 5.406-2.173 7.632 0 1.43.133 2.73.583 5.697-.026.026-1.404 1.43-1.96 1.881-2.412 2.253-5.75 5.459-5.75 10.758 0 4.956 4.318 8.851 9.247 8.851.768 0 1.484-.08 2.093-.186.504 2.545.795 4.4.795 5.804 0 2.755-1.404 4.213-4.08 4.213-.636 0-1.193-.133-1.246-.133-.026-.026-.08-.053-.08-.08 0-.052.054-.079.133-.105 1.246-.186 2.49-1.246 2.49-2.941 0-1.432-1.085-2.941-3.073-2.941-1.855 0-3.047 1.51-3.047 3.259m7.896 130.857a7.7 7.7 0 0 1-1.537.16c-3.789 0-7.022-2.65-7.022-6.652 0-3.233 2.28-6.12 4.611-8.135.45-.398.875-.768 1.272-1.165.238 1.43.424 2.676.61 3.762-2.412.715-4.055 3.26-4.055 5.75 0 1.855 1.458 4.399 3.577 4.399.212 0 .451-.106.451-.344 0-.239-.265-.372-.583-.583-1.033-.637-1.616-1.325-1.616-2.624 0-1.616 1.192-2.914 2.755-3.286zm-2.332-27.24c.239-1.06 1.458-3.842 2.836-3.842.397 0 1.033 1.299 1.033 3.127 0 2.755-2.04 4.822-3.869 6.624-.159-1.06-.291-2.093-.291-3.206 0-.98.08-1.882.291-2.703m6.095 22.338c0 1.882-.768 3.816-2.65 4.584a882 882 0 0 1-1.457-8.558c2.385 0 4.107 1.616 4.107 3.974m-11.66 13.037c0 1.749 1.352 4.054 4.93 4.054 1.245 0 2.331-.318 3.285-.9 1.431-1.007 1.802-2.757 1.802-4.426 0-1.033-.159-2.225-.424-3.736-.08-.53-.238-1.325-.397-2.358 2.597-.848 4.53-3.55 4.53-6.28 0-4.002-2.834-6.704-6.703-6.704-.265-1.59-.53-3.154-.769-4.637 2.81-2.942 4.744-6.254 4.744-10.467 0-2.412-.742-4.372-1.166-5.326-.636-1.352-1.405-2.28-1.882-2.28-.185 0-1.007.319-1.881 1.352-1.696 2.014-2.173 5.406-2.173 7.631 0 1.432.133 2.73.583 5.698-.026.026-1.404 1.43-1.96 1.881-2.412 2.252-5.75 5.458-5.75 10.758 0 4.955 4.318 8.85 9.247 8.85.768 0 1.484-.079 2.093-.185.504 2.544.795 4.399.795 5.803 0 2.756-1.404 4.213-4.08 4.213-.636 0-1.193-.132-1.246-.132-.026-.027-.08-.053-.08-.08 0-.053.054-.079.133-.105 1.246-.186 2.49-1.246 2.49-2.942 0-1.431-1.085-2.94-3.073-2.94-1.855 0-3.047 1.509-3.047 3.258m7.896-77.631a7.7 7.7 0 0 1-1.537.159c-3.789 0-7.022-2.65-7.022-6.65 0-3.234 2.28-6.122 4.611-8.136.45-.398.875-.769 1.272-1.166.238 1.43.424 2.677.61 3.763-2.412.715-4.055 3.259-4.055 5.75 0 1.854 1.458 4.398 3.577 4.398.212 0 .451-.105.451-.344 0-.238-.265-.371-.583-.583-1.033-.636-1.616-1.325-1.616-2.623 0-1.616 1.192-2.915 2.755-3.286zm-2.332-27.24c.239-1.06 1.458-3.842 2.836-3.842.397 0 1.033 1.298 1.033 3.127 0 2.755-2.04 4.822-3.869 6.624-.159-1.06-.291-2.093-.291-3.206 0-.98.08-1.882.291-2.703m6.095 22.338c0 1.881-.768 3.815-2.65 4.584a882 882 0 0 1-1.457-8.559c2.385 0 4.107 1.617 4.107 3.975m-11.66 13.037c0 1.748 1.352 4.054 4.93 4.054 1.245 0 2.331-.318 3.285-.9 1.431-1.008 1.802-2.757 1.802-4.426 0-1.034-.159-2.226-.424-3.736-.08-.53-.238-1.325-.397-2.359 2.597-.847 4.53-3.55 4.53-6.28 0-4.001-2.834-6.704-6.703-6.704-.265-1.59-.53-3.153-.769-4.637 2.81-2.942 4.744-6.253 4.744-10.467 0-2.411-.742-4.372-1.166-5.326-.636-1.351-1.405-2.279-1.882-2.279-.185 0-1.007.319-1.881 1.351-1.696 2.015-2.173 5.406-2.173 7.632 0 1.431.133 2.73.583 5.698-.026.026-1.404 1.43-1.96 1.88-2.412 2.253-5.75 5.459-5.75 10.759 0 4.955 4.318 8.85 9.247 8.85.768 0 1.484-.079 2.093-.185.504 2.544.795 4.399.795 5.803 0 2.755-1.404 4.213-4.08 4.213-.636 0-1.193-.133-1.246-.133-.026-.026-.08-.053-.08-.08 0-.052.054-.078.133-.105 1.246-.185 2.49-1.245 2.49-2.941 0-1.431-1.085-2.941-3.073-2.941-1.855 0-3.047 1.51-3.047 3.259m271.876-27.862a.99.99 0 0 1-1.06-.954c0-1.298 4.452-3.577 5.697-3.577.636 0 1.06.371 1.06.954 0 1.325-4.478 3.577-5.697 3.577m3.657-5.776c-2.57 0-5.645 2.146-5.645 4.61 0 1.14.822 2.412 2.968 2.412 2.756 0 5.645-2.253 5.645-4.585 0-1.563-1.325-2.437-2.968-2.437m227.762 84.035c0 1.139.821 2.411 2.968 2.411 2.755 0 5.644-2.252 5.644-4.584 0-1.563-1.325-2.438-2.968-2.438-2.57 0-5.644 2.173-5.644 4.61M446.5 21.818a.99.99 0 0 1-1.06-.954c0-1.299 4.452-3.578 5.697-3.578.636 0 1.06.371 1.06.954 0 1.325-4.479 3.578-5.697 3.578m3.657-5.777c-2.57 0-5.645 2.146-5.645 4.61 0 1.14.821 2.412 2.969 2.412 2.755 0 5.643-2.252 5.643-4.584 0-1.563-1.324-2.438-2.967-2.438m23.08 144.77a.99.99 0 0 1-1.06-.955c0-1.298 4.451-3.577 5.696-3.577.637 0 1.06.371 1.06.954 0 1.325-4.477 3.578-5.696 3.578m3.656-5.777c-2.57 0-5.644 2.146-5.644 4.61 0 1.14.822 2.412 2.968 2.412 2.756 0 5.644-2.252 5.644-4.584 0-1.564-1.325-2.438-2.968-2.438m4.413-131.073c0 1.14.821 2.411 2.968 2.411 2.756 0 5.644-2.252 5.644-4.584 0-1.563-1.325-2.438-2.968-2.438-2.57 0-5.644 2.173-5.644 4.611M444.42 169.572c0 1.139.821 2.41 2.968 2.41 2.756 0 5.644-2.252 5.644-4.583 0-1.563-1.325-2.438-2.968-2.438-2.57 0-5.644 2.173-5.644 4.61M273.935 23.962c0 1.138.822 2.41 2.968 2.41 2.755 0 5.644-2.252 5.644-4.584 0-1.563-1.325-2.438-2.968-2.438-2.57 0-5.644 2.173-5.644 4.611M417.59 146.406c0 1.14.822 2.412 2.968 2.412 2.755 0 5.644-2.253 5.644-4.584 0-1.564-1.325-2.439-2.968-2.439-2.57 0-5.644 2.174-5.644 4.611M515.299 27.27c0 1.139.821 2.41 2.968 2.41 2.756 0 5.644-2.252 5.644-4.583 0-1.564-1.325-2.438-2.968-2.438-2.57 0-5.644 2.173-5.644 4.61M390.76 153.025c0 1.14.821 2.412 2.967 2.412 2.757 0 5.644-2.252 5.644-4.584 0-1.564-1.325-2.438-2.967-2.438-2.57 0-5.644 2.173-5.644 4.61M539.828 30.58c0 1.14.822 2.411 2.968 2.411 2.755 0 5.644-2.252 5.644-4.584 0-1.563-1.325-2.438-2.968-2.438-2.57 0-5.644 2.173-5.644 4.611M395.453 17.341c0 1.14.822 2.412 2.968 2.412 2.756 0 5.644-2.253 5.644-4.584 0-1.564-1.325-2.438-2.968-2.438-2.57 0-5.644 2.173-5.644 4.61M564.357 33.89c0 1.139.821 2.41 2.968 2.41 2.756 0 5.644-2.252 5.644-4.584 0-1.563-1.325-2.438-2.967-2.438-2.57 0-5.645 2.173-5.645 4.612m-209.89 122.445c0 1.14.822 2.411 2.968 2.411 2.755 0 5.644-2.252 5.644-4.584 0-1.563-1.325-2.438-2.968-2.438-2.57 0-5.644 2.173-5.644 4.61M590.874 31.746a.99.99 0 0 1-1.06-.954c0-1.298 4.452-3.577 5.697-3.577.636 0 1.06.37 1.06.954 0 1.325-4.478 3.577-5.697 3.577m3.656-5.777c-2.57 0-5.643 2.146-5.643 4.611 0 1.14.821 2.411 2.967 2.411 2.756 0 5.644-2.252 5.644-4.584 0-1.563-1.325-2.438-2.968-2.438M327.638 159.643c0 1.14.821 2.412 2.967 2.412 2.757 0 5.645-2.252 5.645-4.584 0-1.564-1.325-2.438-2.969-2.438-2.57 0-5.643 2.173-5.643 4.61M370.924 23.96c0 1.14.821 2.411 2.968 2.411 2.756 0 5.643-2.252 5.643-4.584 0-1.563-1.324-2.438-2.967-2.438-2.57 0-5.644 2.173-5.644 4.611m-70.115 138.993c0 1.139.821 2.411 2.967 2.411 2.756 0 5.644-2.252 5.644-4.584 0-1.563-1.325-2.438-2.967-2.438-2.57 0-5.644 2.173-5.644 4.61m354.47-152.23c0 1.14.822 2.412 2.969 2.412 2.755 0 5.644-2.252 5.644-4.584 0-1.563-1.325-2.438-2.968-2.438-2.57 0-5.645 2.173-5.645 4.61m-381.3 148.921c0 1.14.822 2.412 2.968 2.412 2.756 0 5.645-2.252 5.645-4.584 0-1.564-1.325-2.438-2.969-2.438-2.57 0-5.644 2.173-5.644 4.61M242.84 27.27c0 1.139.822 2.41 2.968 2.41 2.756 0 5.644-2.252 5.644-4.583 0-1.564-1.325-2.438-2.968-2.438-2.57 0-5.644 2.173-5.644 4.61m4.31 129.065c0 1.14.822 2.411 2.968 2.411 2.756 0 5.644-2.252 5.644-4.584 0-1.563-1.325-2.438-2.968-2.438-2.57 0-5.643 2.173-5.643 4.61m300.635 9.93c0 1.138.821 2.41 2.967 2.41 2.757 0 5.645-2.251 5.645-4.583 0-1.564-1.325-2.438-2.968-2.438-2.57 0-5.644 2.173-5.644 4.61M220.32 153.024c0 1.14.821 2.412 2.968 2.412 2.756 0 5.644-2.252 5.644-4.584 0-1.564-1.325-2.438-2.968-2.438-2.57 0-5.644 2.173-5.644 4.61M437.934 76.91c0 1.14.821 2.411 2.967 2.411 2.756 0 5.644-2.253 5.644-4.584 0-1.563-1.325-2.438-2.967-2.438-2.57 0-5.644 2.173-5.644 4.61M64.524 30.58c0 1.14.82 2.411 2.967 2.411 2.756 0 5.645-2.252 5.645-4.584 0-1.563-1.325-2.438-2.968-2.438-2.57 0-5.645 2.173-5.645 4.611M51.87 78.076a.99.99 0 0 1-1.06-.954c0-1.298 4.452-3.578 5.697-3.578.636 0 1.06.371 1.06.955 0 1.325-4.479 3.577-5.697 3.577m3.657-5.777c-2.57 0-5.645 2.146-5.645 4.61 0 1.14.822 2.412 2.968 2.412 2.756 0 5.645-2.253 5.645-4.584 0-1.563-1.325-2.438-2.968-2.438m128.501 84.035c0 1.14.822 2.411 2.968 2.411 2.756 0 5.644-2.252 5.644-4.584 0-1.563-1.325-2.438-2.968-2.438-2.57 0-5.644 2.173-5.644 4.61M90.895 80.22c0 1.14.821 2.412 2.968 2.412 2.756 0 5.644-2.253 5.644-4.585 0-1.564-1.325-2.438-2.967-2.438-2.571 0-5.645 2.173-5.645 4.611m66.303 79.424c0 1.14.821 2.412 2.967 2.412 2.757 0 5.645-2.252 5.645-4.584 0-1.564-1.325-2.438-2.967-2.438-2.571 0-5.645 2.173-5.645 4.61m-36.973-81.567a.99.99 0 0 1-1.06-.954c0-1.298 4.452-3.578 5.697-3.578.636 0 1.06.371 1.06.955 0 1.325-4.478 3.577-5.697 3.577m3.656-5.777c-2.57 0-5.643 2.146-5.643 4.61 0 1.14.821 2.412 2.967 2.412 2.756 0 5.644-2.253 5.644-4.584 0-1.563-1.325-2.438-2.968-2.438m6.488 90.654c0 1.139.821 2.411 2.968 2.411 2.755 0 5.644-2.252 5.644-4.584 0-1.563-1.325-2.438-2.968-2.438-2.57 0-5.644 2.173-5.644 4.61m28.882-76.114c0 1.14.822 2.41 2.968 2.41 2.755 0 5.644-2.251 5.644-4.583 0-1.564-1.325-2.438-2.968-2.438-2.57 0-5.644 2.173-5.644 4.61m-55.711 72.806c0 1.14.82 2.412 2.967 2.412 2.756 0 5.645-2.252 5.645-4.584 0-1.564-1.325-2.438-2.968-2.438-2.57 0-5.644 2.173-5.644 4.61M208.846 23.96c0 1.14.821 2.411 2.968 2.411 2.756 0 5.644-2.252 5.644-4.584 0-1.563-1.325-2.438-2.967-2.438-2.57 0-5.645 2.173-5.645 4.611M76.711 156.334c0 1.14.821 2.411 2.967 2.411 2.756 0 5.644-2.252 5.644-4.584 0-1.563-1.325-2.438-2.967-2.438-2.57 0-5.644 2.173-5.644 4.61m119.347-69.495c0 1.14.821 2.41 2.968 2.41 2.756 0 5.644-2.251 5.644-4.583 0-1.564-1.325-2.438-2.967-2.438-2.57 0-5.645 2.173-5.645 4.61M49.881 153.025c0 1.14.822 2.412 2.968 2.412 2.756 0 5.645-2.252 5.645-4.584 0-1.564-1.325-2.438-2.968-2.438-2.57 0-5.645 2.173-5.645 4.61m173.52-69.496c0 1.14.821 2.412 2.967 2.412 2.757 0 5.644-2.253 5.644-4.585 0-1.563-1.325-2.437-2.967-2.437-2.57 0-5.644 2.172-5.644 4.61m66.887-56.258c0 1.139.821 2.41 2.968 2.41 2.755 0 5.644-2.252 5.644-4.583 0-1.564-1.325-2.438-2.968-2.438-2.57 0-5.644 2.173-5.644 4.61m284.327 142.303c0 1.139.822 2.411 2.968 2.411 2.755 0 5.644-2.253 5.644-4.584 0-1.563-1.325-2.438-2.968-2.438-2.57 0-5.644 2.173-5.644 4.61M98.518 30.58c0 1.14.821 2.411 2.967 2.411 2.756 0 5.644-2.252 5.644-4.584 0-1.563-1.325-2.438-2.967-2.438-2.571 0-5.644 2.173-5.644 4.611m366.758 56.259c0 1.14.821 2.41 2.967 2.41 2.757 0 5.645-2.251 5.645-4.583 0-1.564-1.325-2.438-2.968-2.438-2.57 0-5.644 2.173-5.644 4.61m187.19 0c0 1.14.821 2.412 2.968 2.412 2.756 0 5.644-2.252 5.644-4.584 0-1.564-1.325-2.438-2.967-2.438-2.57 0-5.645 2.173-5.645 4.61M250.743 80.22c0 1.14.822 2.412 2.968 2.412 2.756 0 5.644-2.253 5.644-4.585 0-1.564-1.325-2.438-2.968-2.438-2.57 0-5.644 2.173-5.644 4.611M613.44 97.932a.99.99 0 0 1-1.06-.954c0-1.298 4.452-3.578 5.697-3.578.636 0 1.06.372 1.06.955 0 1.325-4.478 3.577-5.697 3.577m3.657-5.777c-2.57 0-5.645 2.147-5.645 4.61 0 1.14.822 2.412 2.969 2.412 2.755 0 5.644-2.253 5.644-4.584 0-1.563-1.325-2.438-2.968-2.438M174.04 25.125a.99.99 0 0 1-1.06-.953c0-1.298 4.452-3.577 5.697-3.577.636 0 1.06.37 1.06.954 0 1.325-4.478 3.577-5.697 3.577m3.657-5.777c-2.57 0-5.644 2.147-5.644 4.611 0 1.14.821 2.411 2.967 2.411 2.756 0 5.644-2.252 5.644-4.584 0-1.563-1.325-2.438-2.967-2.438M584.11 93.456c0 1.14.82 2.412 2.967 2.412 2.756 0 5.644-2.252 5.644-4.584 0-1.564-1.325-2.438-2.968-2.438-2.57 0-5.643 2.173-5.643 4.61M147.523 30.58c0 1.14.822 2.411 2.968 2.411 2.756 0 5.645-2.252 5.645-4.584 0-1.563-1.325-2.438-2.968-2.438-2.57 0-5.645 2.173-5.645 4.611m409.245 59.568c0 1.14.821 2.411 2.967 2.411 2.757 0 5.645-2.252 5.645-4.584 0-1.563-1.325-2.437-2.968-2.437-2.57 0-5.644 2.172-5.644 4.61m73.493 80.59a.99.99 0 0 1-1.06-.953c0-1.299 4.451-3.578 5.697-3.578.636 0 1.06.37 1.06.954 0 1.325-4.478 3.577-5.697 3.577m3.656-5.776c-2.57 0-5.643 2.146-5.643 4.61 0 1.14.82 2.412 2.967 2.412 2.756 0 5.644-2.253 5.644-4.584 0-1.563-1.325-2.438-2.968-2.438M529.425 86.838c0 1.14.822 2.41 2.969 2.41 2.755 0 5.643-2.251 5.643-4.583 0-1.564-1.324-2.438-2.967-2.438-2.57 0-5.645 2.173-5.645 4.61m-210.326 0c0 1.14.821 2.412 2.968 2.412 2.756 0 5.644-2.252 5.644-4.584 0-1.564-1.325-2.438-2.967-2.438-2.57 0-5.645 2.173-5.645 4.61M129.613 27.27c0 1.139.821 2.41 2.967 2.41 2.756 0 5.644-2.252 5.644-4.583 0-1.564-1.325-2.438-2.968-2.438-2.57 0-5.643 2.173-5.643 4.61m226.294 59.569c0 1.14.82 2.41 2.967 2.41 2.756 0 5.644-2.251 5.644-4.583 0-1.564-1.325-2.438-2.968-2.438-2.57 0-5.643 2.173-5.643 4.61m245.537 86.044c0 1.14.821 2.411 2.968 2.411 2.756 0 5.644-2.252 5.644-4.584 0-1.563-1.325-2.438-2.968-2.438-2.57 0-5.644 2.173-5.644 4.611M383.248 83.528c0 1.14.822 2.412 2.969 2.412 2.755 0 5.644-2.253 5.644-4.585 0-1.563-1.325-2.437-2.968-2.437-2.57 0-5.645 2.172-5.645 4.61m-66.443-61.711a.99.99 0 0 1-1.06-.954c0-1.299 4.45-3.578 5.696-3.578.637 0 1.06.371 1.06.954 0 1.325-4.478 3.578-5.696 3.578m3.656-5.777c-2.57 0-5.644 2.146-5.644 4.61 0 1.14.821 2.412 2.967 2.412 2.757 0 5.645-2.252 5.645-4.584 0-1.563-1.325-2.438-2.968-2.438m90.13 64.18c0 1.139.821 2.41 2.968 2.41 2.756 0 5.644-2.252 5.644-4.584 0-1.564-1.325-2.438-2.968-2.438-2.57 0-5.644 2.173-5.644 4.611m9.391-49.64c0 1.14.822 2.411 2.968 2.411 2.756 0 5.644-2.252 5.644-4.584 0-1.563-1.325-2.438-2.968-2.438-2.57 0-5.644 2.173-5.644 4.611m72.636 52.95c0 1.14.822 2.411 2.968 2.411 2.756 0 5.644-2.253 5.644-4.585 0-1.563-1.325-2.437-2.968-2.437-2.57 0-5.644 2.172-5.644 4.61M273.935 44.332a.35.35 0 0 0 .345.344c.132 0 .29-.106.317-.212 0-.027.239-.954.265-1.034.027-.105.265-1.113 1.22-2.676 1.033-1.722 2.623-2.968 3.948-4.822 1.298-1.855 2.093-3.605 2.093-5.936 0-2.411-.557-4.425-1.961-6.995-.08-.186-.239-.292-.397-.292-.054 0-.107 0-.133.027-.132.053-.186.159-.186.318 0 .079.027.212.08.318 1.06 2.464 1.484 3.868 1.484 5.776 0 2.2-.769 3.339-1.245 4.16-1.723 2.941-4.505 4.373-5.618 4.743-.185.08-.212.213-.212.292zM137.555 10.66c0 .08.026.212.212.291 1.14.371 3.418 1.802 5.14 4.744.477.821 1.246 1.96 1.246 4.16 0 1.908-.504 3.869-1.193 5.776-.053.159-.106.292-.08.398 0 .159.107.265.266.265.186 0 .318-.106.424-.292 1.192-2.12 1.643-4.584 1.643-6.995-.133-3.418-2.094-5.936-2.094-5.936.08 0-2.437-3.26-3.153-4.372-.98-1.51-1.43-3.02-1.484-3.127-.027-.08-.265-1.033-.265-1.033-.027-.106-.159-.212-.318-.212a.35.35 0 0 0-.344.344zm300.378 66.248v22.054h.663V76.909Zm-54.684 6.618v22.054h.662V83.527ZM137.554 4.7v20.399h.663v-20.4Zm218.352 82.138v22.053h.662V86.837Zm54.685-6.62v22.054h.662V80.218ZM155.466 6.302v22.106h.662V6.301Zm373.96 80.536v22.053h.662V86.837Zm27.341 3.31v20.398h.663V90.146Zm27.343 3.309V112.2h.662V93.456ZM172.052 23.959v18.744h.662V23.96Zm447.343 50.183v20.452h.662V74.142Zm33.071 12.695v22.053h.663V86.837Zm-401.723-6.62v22.054h.662V80.218ZM49.882 153.025v22.053h.662v-22.053ZM223.4 83.527v22.054h.662V83.527ZM76.71 156.333v22.053h.662v-22.053Zm119.348-69.496v22.053h.662V86.837Zm12.788-62.878v18.744h.662V23.96ZM103.54 159.643v20.398h.662v-20.398zm26.829 3.309v18.744h.662v-18.744zm28.882-76.115v22.053h.662V86.837Zm-2.053 72.806v20.398h.662v-20.398Zm-38.96-82.734v22.054h.661V76.909Zm65.79 79.424v22.053h.661v-22.053ZM90.894 80.218v22.053h.662V80.218ZM106.46 6.3v22.106h.662V6.301ZM49.882 76.909v22.054h.662V76.909Zm170.44 76.115v22.053h.661v-22.053zm26.828 3.31v22.052h.662v-22.053Zm3.632-151.688v20.452h.662V4.646Zm23.198 154.997v20.398h.662v-20.398zm26.828 3.309v18.744h.662v-18.744ZM655.28 10.722v22.053h.662V10.722Zm-327.642 148.92v20.4h.662v-20.4Zm137.638-72.805v22.053h.662V86.837ZM273.935 23.959v20.373h.662V23.959zm80.532 132.374v22.053h.662v-22.053ZM596.828 6.301v22.106h.663V6.301Zm-524.362 0v22.106h.662V6.301ZM572.3 9.61v22.107h.662V9.61ZM390.76 153.024v22.053h.662v-22.053ZM547.77 6.3v22.106h.662V6.301ZM417.59 146.405v22.054h.662v-22.054ZM523.24 4.645v20.453h.662V4.646Zm-70.88 140.649V167.4h.663v-22.106ZM298.23 4.646v20.452h.662V4.646Zm173.018 154.997v20.398h.662v-20.398Zm10.057-135.684v18.744h.662V23.96Zm30.187 138.993v18.744h.662v-18.744ZM444.512 20.65v20.399h.662v-20.4ZM319.099 86.837v22.053h.662V86.837ZM427.925 6.3v22.106h.662V6.301Zm-149.84 77.226v22.054h.663V83.527ZM395.454 17.34v22.054h.662V17.34ZM555.728 143.64v20.451h.662V143.64ZM370.924 23.959v18.744h.662V23.96Zm211.633 121.335V167.4h.662v-22.106ZM314.817 20.65v20.399h.662v-20.4Zm294.57 127.952v22.107h.662v-22.107zM492.618 83.527v22.054h.662V83.527Zm143.597 61.767V167.4h.662v-22.106ZM244.641 81.676v-4.345l3.073-.875v4.373zm3.657-7.42a.3.3 0 0 0-.212-.078c-.027 0-.08.026-.107.026l-3.338.927v-4.637h-.742v13.117c0 .212.16.345.37.345h.107l3.338-.928v4.637h.716V74.548c0-.105-.053-.238-.132-.291m-61.704 4.485v27.203h1.191V78.742Zm46.782-69.496v27.203h1.19V9.246Zm446.433 0v27.203H681V9.246Zm-32.801 16.91c0-.768-.61-1.404-1.378-1.404s-1.378.636-1.378 1.405c0 .768.61 1.404 1.378 1.404.769 0 1.378-.636 1.378-1.404m0-6.62c0-.768-.61-1.404-1.378-1.404s-1.378.636-1.378 1.405c0 .768.61 1.404 1.378 1.404.769 0 1.378-.636 1.378-1.404m-6.396-10.292v27.203h1.192V9.246Zm-6.089 0v27.203h3.64V9.246Zm0 0v27.203h3.64V9.246Zm-3.64 0v27.203h1.19V9.246Zm-2.447 16.91c0-.768-.61-1.404-1.378-1.404s-1.378.636-1.378 1.405c0 .768.61 1.404 1.378 1.404s1.378-.636 1.378-1.404m0-6.62c0-.768-.61-1.404-1.378-1.404s-1.378.636-1.378 1.405c0 .768.61 1.404 1.378 1.404s1.378-.636 1.378-1.404M505.835 9.246v27.203h1.19V9.246ZM677.36 148.239v27.202H681V148.24zm-3.64 0v27.202h1.191V148.24zm-2.447 16.91c0-.768-.61-1.404-1.378-1.404-.769 0-1.378.636-1.378 1.404 0 .769.61 1.405 1.378 1.405s1.378-.636 1.378-1.405m0-6.618c0-.769-.61-1.405-1.378-1.405-.769 0-1.378.636-1.378 1.405 0 .768.61 1.404 1.378 1.404s1.378-.636 1.378-1.404M346.442 78.742v27.203h1.19V78.742Zm173.52 0v27.203h1.19V78.742Zm159.847 0v27.203H681V78.742ZM210.856 148.24v27.202h1.191V148.24ZM89.053 9.246v27.203h1.191V9.246Zm292.243 138.993v27.202h1.191V148.24zm157.025 0v27.202h1.191V148.24ZM361.459 9.246v27.203h1.191V9.246ZM0 174.713v.728h681v-.728zm0-6.618v.728h681v-.728zm0-6.619v.728h681v-.728zm0-6.619v.728h681v-.728zm0-6.619v.728h681v-.728zm0-43.021v.728h681v-.728zm0-6.618v.727h681V98.6zm0-6.62v.729h681v-.728zm0-6.618v.728h681v-.728zm0-6.619v.728h681v-.728Zm0-43.021v.727h681v-.727zm0-6.619v.728h681v-.728zm0-6.619v.728h681v-.728zm0-6.618v.727h681v-.727Zm0-6.619v.728h681v-.728Z"/>
</svg>
