<?xml version="1.0" encoding="utf-8"?>
<svg xmlns="http://www.w3.org/2000/svg" xmlns:svg="http://www.w3.org/2000/svg" version="1.1" viewBox="0 0 681 191">
	<title>The musical score for Air XXXVIII</title>
	<path d="M450.662 34.76c0 .741.583 1.325 1.325 1.325.74 0 1.325-.584 1.325-1.325 0-.742-.584-1.325-1.325-1.325-.742 0-1.325.583-1.325 1.325m108.819 0c0 .741.583 1.325 1.325 1.325.741 0 1.325-.584 1.325-1.325 0-.742-.584-1.325-1.325-1.325-.742 0-1.325.583-1.325 1.325m-258.65 0c0 .741.582 1.325 1.324 1.325s1.325-.584 1.325-1.325c0-.742-.583-1.325-1.325-1.325s-1.325.583-1.325 1.325m346.319-6.619c0 .742.583 1.325 1.325 1.325s1.325-.583 1.325-1.325-.583-1.325-1.325-1.325-1.325.583-1.325 1.325m-502.87 132.374c0 .742.583 1.325 1.325 1.325s1.325-.583 1.325-1.325-.583-1.325-1.325-1.325-1.325.583-1.325 1.325m-59.668 9.255 24.539.672v3.31l-24.54-.672zm-35.814 3.982 60.354 1.655v3.31l-60.354-1.655zm0-62.886 47.832-4.964v3.327l-47.832 4.964zm0 4.964 47.832-4.964v3.327l-47.832 4.964zm280.39-74.463 41.748-4.964v3.332L329.187 44.7zm0 4.964 41.747-4.964V44.7l-41.747 4.964zM669.88 8.281l-7.28.452v3.316l7.28-.451zm-26.703-3.31 26.703-1.654v3.315l-26.703 1.655zM103.985 8.285h21.205v3.31h-21.205zm401.586 142.3 72.292-3.309v3.313l-72.292 3.31zm0-4.965 72.292-3.309v3.313l-72.292 3.31zm-182.01-130.72-7.28.45v3.316l7.28-.45zm-26.703-3.31 26.703-1.655v3.316l-26.703 1.655zm-30.265 99.284h71.416v3.309h-71.416zM615.787 9.64l14.357-1.361v3.324l-14.357 1.361zm-20.542-3.016 34.899-3.31v3.325l-34.9 3.31zM384.517 106.885l16.385.68v3.311l-16.385-.678zm-23.584 3.989 39.97 1.654v3.312l-39.97-1.654zM582.21 14.9l-7.28.45v3.316l7.28-.45zm-26.702-3.31 26.702-1.655v3.316l-26.702 1.655zM165.612 15.19l14.357 1.36v3.325l-14.357-1.361zM145.07 8.278l34.9 3.309v3.324l-34.9-3.31zm21.73 69.5 47.832 3.309v3.317L166.8 81.095zm0-4.965 47.832 3.31v3.317L166.8 76.13zm257.105 1.655 24.247 1.655v3.317l-24.247-1.654zm-13.84 72.808 72.291 3.31v3.312l-72.292-3.31zm0-4.964 72.292 3.31v3.312l-72.292-3.31zM500.73 9.938l41.746 1.655v3.312l-41.746-1.655zm0-4.964 41.746 1.655v3.312l-41.746-1.655zm-28.131 102.592h24.246v3.309h-24.246zm70.753 1.948 16.385 1.356v3.32l-16.384-1.356zm-23.585 3.01 39.97 3.31v3.32l-39.97-3.309zM185.595 41.378H206.8v3.31h-21.205zM473.392 9.936l-7.28.452v3.315l7.28-.45zM446.69 6.627l26.703-1.655v3.316L446.69 9.943zm-327.058 64.52 24.247 3.31v3.34l-24.247-3.31zm455.167 36.419h24.247v3.309h-24.247zm70.754 1.948 16.385 1.356v3.32l-16.385-1.356zm-23.584 3.01 39.97 3.31v3.32l-39.97-3.309zM391.91 4.964l41.746 4.964v3.333L391.91 8.297zm0-4.964 41.746 4.964v3.333L391.91 3.333zM255.165 10.912l14.357.68v3.314l-14.357-.681zm-20.542-5.938 34.899 1.654v3.314l-34.9-1.655zM297.15 180.37l72.292 1.655v3.31l-72.292-1.655zm0 4.964 72.292 1.655v3.31l-72.292-1.655zm-118.722-11.584-7.28.262v3.312l7.28-.262zm-46.063 6.619 46.063-1.655v3.312l-46.063 1.655zm69.278-4.963h72.292v3.31h-72.292zm0 4.964h72.292v3.31h-72.292zM47.48 20.089c-.662.424-1.14 1.192-1.14 2.04 0 .106 0 .212.027.318.132 1.086 1.007 1.934 2.093 2.067h.292a2.375 2.375 0 0 0 2.385-2.385v-.159c0-.106-.027-.291-.053-.397-.239-1.14-1.272-3.578-5.777-3.578-5.777 0-6.439 4.796-6.439 6.519 0 3.153.397 7.102 7.022 7.102 2.623 0 4.664-1.538 4.77-4.373 0-.132-.08-.212-.213-.212h-.344c-.106 0-.212.106-.212.212-.106 2.2-1.67 3.524-4.001 3.524-2.306 0-3.419-1.245-3.419-3.577V22.13c0-1.484.583-3.18 2.942-3.18 1.245 0 1.802.45 2.093.901.026.053.026.08.026.133 0 .026 0 .08-.052.106m-17.108 73.18c0 2.093-1.086 3.205-2.623 4.425l.079-5.168c.053-.239.45-1.007 1.51-1.007.955 0 1.034.901 1.034 1.458zm-.318-3.047a2.98 2.98 0 0 0-2.226.98l.106-8.506c0-.212-.159-.37-.371-.37h-.318a.36.36 0 0 0-.37.37l.131 15.926c0 .212.16.371.372.371a.6.6 0 0 0 .211-.054c2.28-1.139 4.664-3.311 4.664-6.04 0-1.38-.635-2.677-2.199-2.677m.318-66.45c0 2.094-1.086 3.207-2.623 4.426l.079-5.167c.053-.239.45-1.007 1.51-1.007.955 0 1.034.9 1.034 1.457zm-.318-3.047a2.98 2.98 0 0 0-2.226.98l.106-8.506a.363.363 0 0 0-.371-.37h-.318a.36.36 0 0 0-.37.37l.131 15.925c0 .212.16.372.372.372a.6.6 0 0 0 .211-.054c2.28-1.14 4.664-3.312 4.664-6.04 0-1.379-.635-2.677-2.199-2.677m.318 142.04c0 2.093-1.086 3.206-2.623 4.425l.079-5.168c.053-.238.45-1.006 1.51-1.006.955 0 1.034.9 1.034 1.457zm-.318-3.046a2.98 2.98 0 0 0-2.226.98l.106-8.506c0-.213-.159-.371-.371-.371h-.318a.36.36 0 0 0-.37.37l.131 15.926c0 .212.16.371.372.371a.6.6 0 0 0 .211-.052c2.28-1.14 4.664-3.313 4.664-6.042 0-1.378-.635-2.676-2.199-2.676M16.094 175.9a7.7 7.7 0 0 1-1.538.16c-3.789 0-7.022-2.65-7.022-6.651 0-3.233 2.28-6.121 4.611-8.135.45-.397.875-.769 1.272-1.166.238 1.43.424 2.676.61 3.763-2.412.715-4.055 3.259-4.055 5.75 0 1.855 1.458 4.398 3.577 4.398.212 0 .451-.106.451-.344 0-.239-.265-.37-.583-.583-1.033-.636-1.616-1.325-1.616-2.623 0-1.617 1.192-2.915 2.755-3.286zm-2.332-27.239c.239-1.06 1.458-3.843 2.836-3.843.397 0 1.033 1.299 1.033 3.127 0 2.756-2.04 4.823-3.869 6.625-.159-1.06-.291-2.094-.291-3.206 0-.981.08-1.882.291-2.703M19.856 171c0 1.881-.768 3.815-2.65 4.584a882 882 0 0 1-1.457-8.56c2.385 0 4.107 1.617 4.107 3.976m-11.66 13.037c0 1.749 1.352 4.054 4.93 4.054 1.245 0 2.331-.318 3.285-.901 1.431-1.007 1.802-2.756 1.802-4.426 0-1.033-.159-2.225-.424-3.736-.08-.53-.238-1.325-.397-2.358 2.597-.848 4.53-3.55 4.53-6.28 0-4-2.834-6.704-6.703-6.704-.265-1.59-.53-3.154-.769-4.637 2.81-2.941 4.744-6.254 4.744-10.467 0-2.411-.742-4.372-1.166-5.326-.636-1.351-1.405-2.278-1.882-2.278-.185 0-1.007.317-1.881 1.35-1.696 2.014-2.173 5.406-2.173 7.632 0 1.431.133 2.73.583 5.697-.026.027-1.404 1.43-1.96 1.881-2.412 2.253-5.75 5.46-5.75 10.759 0 4.955 4.318 8.85 9.247 8.85.768 0 1.484-.08 2.093-.186.504 2.544.795 4.4.795 5.803 0 2.757-1.404 4.214-4.08 4.214-.636 0-1.193-.132-1.246-.132-.026-.027-.08-.053-.08-.08 0-.053.054-.08.133-.106 1.246-.186 2.49-1.246 2.49-2.941 0-1.43-1.085-2.942-3.073-2.942-1.855 0-3.047 1.511-3.047 3.26m7.896-77.632a7.7 7.7 0 0 1-1.537.16c-3.789 0-7.022-2.65-7.022-6.652 0-3.232 2.28-6.12 4.611-8.135.45-.397.875-.768 1.272-1.165.238 1.43.424 2.676.61 3.762-2.412.716-4.055 3.26-4.055 5.75 0 1.855 1.458 4.399 3.577 4.399.212 0 .451-.106.451-.344 0-.24-.265-.371-.583-.583-1.033-.637-1.616-1.325-1.616-2.624 0-1.616 1.192-2.914 2.755-3.286zm-2.332-27.24c.239-1.06 1.458-3.842 2.836-3.842.397 0 1.033 1.299 1.033 3.127 0 2.755-2.04 4.822-3.869 6.624-.159-1.06-.291-2.093-.291-3.206 0-.98.08-1.881.291-2.702m6.095 22.337c0 1.882-.768 3.816-2.65 4.584a882 882 0 0 1-1.457-8.558c2.385 0 4.107 1.616 4.107 3.974M8.196 114.54c0 1.75 1.352 4.054 4.93 4.054 1.245 0 2.331-.318 3.285-.9 1.431-1.008 1.802-2.756 1.802-4.426 0-1.033-.159-2.225-.424-3.736-.08-.53-.238-1.325-.397-2.358 2.597-.848 4.53-3.55 4.53-6.28 0-4.002-2.834-6.704-6.703-6.704-.265-1.59-.53-3.154-.769-4.637 2.81-2.941 4.744-6.254 4.744-10.467 0-2.412-.742-4.372-1.166-5.326-.636-1.352-1.405-2.279-1.882-2.279-.185 0-1.007.318-1.881 1.352-1.696 2.013-2.173 5.405-2.173 7.63 0 1.432.133 2.73.583 5.698-.026.026-1.404 1.43-1.96 1.881-2.412 2.253-5.75 5.46-5.75 10.759 0 4.954 4.318 8.85 9.247 8.85.768 0 1.484-.08 2.093-.186.504 2.544.795 4.399.795 5.803 0 2.756-1.404 4.213-4.08 4.213-.636 0-1.193-.132-1.246-.132-.026-.026-.08-.053-.08-.08 0-.053.054-.079.133-.105 1.246-.186 2.49-1.246 2.49-2.942 0-1.431-1.085-2.94-3.073-2.94-1.855 0-3.047 1.509-3.047 3.258m7.896-77.631a7.7 7.7 0 0 1-1.537.16c-3.789 0-7.022-2.65-7.022-6.652 0-3.232 2.28-6.12 4.611-8.135.45-.397.875-.768 1.272-1.166.238 1.431.424 2.677.61 3.763-2.412.716-4.055 3.259-4.055 5.75 0 1.855 1.458 4.398 3.577 4.398.212 0 .451-.105.451-.344 0-.238-.265-.37-.583-.583-1.033-.636-1.616-1.324-1.616-2.623 0-1.616 1.192-2.915 2.755-3.286zm-2.332-27.24c.239-1.06 1.458-3.842 2.836-3.842.397 0 1.033 1.298 1.033 3.127 0 2.755-2.04 4.822-3.869 6.624-.159-1.06-.291-2.093-.291-3.206 0-.98.08-1.882.291-2.703m6.095 22.338c0 1.881-.768 3.815-2.65 4.584a882 882 0 0 1-1.457-8.559c2.385 0 4.107 1.617 4.107 3.975M8.196 45.044c0 1.75 1.352 4.054 4.93 4.054 1.245 0 2.331-.318 3.285-.9 1.431-1.008 1.802-2.756 1.802-4.426 0-1.034-.159-2.226-.424-3.736-.08-.53-.238-1.325-.397-2.359 2.597-.847 4.53-3.55 4.53-6.28 0-4.001-2.834-6.704-6.703-6.704-.265-1.59-.53-3.153-.769-4.637 2.81-2.941 4.744-6.253 4.744-10.466 0-2.412-.742-4.373-1.166-5.327-.636-1.351-1.405-2.278-1.882-2.278-.185 0-1.007.318-1.881 1.351-1.696 2.014-2.173 5.406-2.173 7.631 0 1.431.133 2.73.583 5.698-.026.026-1.404 1.43-1.96 1.88-2.412 2.253-5.75 5.46-5.75 10.76 0 4.954 4.318 8.85 9.247 8.85.768 0 1.484-.08 2.093-.186.504 2.544.795 4.399.795 5.803 0 2.756-1.404 4.213-4.08 4.213-.636 0-1.193-.132-1.246-.132-.026-.026-.08-.054-.08-.08 0-.053.054-.08.133-.106 1.246-.185 2.49-1.245 2.49-2.94 0-1.432-1.085-2.942-3.073-2.942-1.855 0-3.047 1.51-3.047 3.259m87.769 43.779c0 1.139.821 2.41 2.967 2.41 2.756 0 5.644-2.252 5.644-4.584 0-1.563-1.325-2.438-2.968-2.438-2.57 0-5.643 2.173-5.643 4.612m129.554 69.496c0 1.14.821 2.411 2.967 2.411 2.757 0 5.644-2.253 5.644-4.585 0-1.563-1.325-2.437-2.967-2.437-2.57 0-5.644 2.173-5.644 4.611m-47.754 0c0 1.14.822 2.411 2.968 2.411 2.756 0 5.644-2.253 5.644-4.585 0-1.563-1.325-2.437-2.968-2.437-2.57 0-5.644 2.173-5.644 4.611m137.19-125.756c0 1.14.822 2.412 2.969 2.412 2.755 0 5.643-2.252 5.643-4.584 0-1.564-1.324-2.438-2.967-2.438-2.57 0-5.644 2.173-5.644 4.61m-26.041 3.31c0 1.139.821 2.411 2.968 2.411 2.755 0 5.643-2.253 5.643-4.584 0-1.563-1.324-2.438-2.967-2.438-2.57 0-5.644 2.173-5.644 4.61m-39.52 125.756c0 1.14.822 2.412 2.969 2.412 2.755 0 5.643-2.253 5.643-4.585 0-1.564-1.325-2.438-2.967-2.438-2.57 0-5.645 2.173-5.645 4.61m-117.031 0c0 1.14.821 2.413 2.968 2.413 2.755 0 5.643-2.253 5.643-4.585 0-1.564-1.325-2.438-2.967-2.438-2.57 0-5.644 2.173-5.644 4.61M329.187 29.255c0 1.14.821 2.411 2.968 2.411 2.756 0 5.644-2.252 5.644-4.584 0-1.563-1.325-2.437-2.968-2.437-2.57 0-5.644 2.172-5.644 4.61m-220.7 129.065c0 1.14.822 2.411 2.968 2.411 2.757 0 5.644-2.253 5.644-4.585 0-1.563-1.325-2.437-2.967-2.437-2.57 0-5.644 2.173-5.644 4.611m152.43-125.756c0 1.14.821 2.412 2.967 2.412 2.757 0 5.644-2.252 5.644-4.584 0-1.564-1.325-2.438-2.968-2.438-2.57 0-5.643 2.173-5.643 4.61M84.61 155.01c0 1.139.822 2.41 2.968 2.41 2.756 0 5.644-2.252 5.644-4.583 0-1.564-1.325-2.439-2.968-2.439-2.57 0-5.644 2.174-5.644 4.612M342.88 25.944c0 1.14.822 2.412 2.97 2.412 2.755 0 5.643-2.252 5.643-4.584 0-1.564-1.325-2.438-2.968-2.438-2.57 0-5.644 2.173-5.644 4.61M273.273 158.32c0 1.14.822 2.411 2.968 2.411 2.756 0 5.645-2.253 5.645-4.585 0-1.563-1.325-2.437-2.969-2.437-2.57 0-5.644 2.173-5.644 4.611M48.796 151.7c0 1.14.821 2.411 2.967 2.411 2.757 0 5.645-2.252 5.645-4.584 0-1.563-1.325-2.438-2.968-2.438-2.57 0-5.644 2.173-5.644 4.611m307.78-129.065c0 1.14.822 2.411 2.969 2.411 2.756 0 5.644-2.252 5.644-4.584 0-1.563-1.325-2.437-2.968-2.437-2.57 0-5.644 2.172-5.644 4.61m-109.354 6.619c0 1.14.821 2.411 2.967 2.411 2.756 0 5.644-2.252 5.644-4.584 0-1.563-1.325-2.437-2.968-2.437-2.57 0-5.643 2.172-5.643 4.61m49.927 132.374c0 1.14.822 2.412 2.968 2.412 2.755 0 5.644-2.253 5.644-4.585 0-1.564-1.325-2.438-2.968-2.438-2.57 0-5.644 2.173-5.644 4.61m73.122-142.301c0 1.14.82 2.411 2.968 2.411 2.755 0 5.644-2.252 5.644-4.584 0-1.563-1.325-2.438-2.968-2.438-2.57 0-5.644 2.173-5.644 4.61m13.695 3.31c0 1.14.82 2.411 2.968 2.411 2.755 0 5.644-2.252 5.644-4.584 0-1.563-1.325-2.437-2.968-2.437-2.57 0-5.644 2.172-5.644 4.61M661.275 98.75c0 1.14.822 2.411 2.968 2.411 2.756 0 5.644-2.251 5.644-4.583 0-1.564-1.325-2.438-2.968-2.438-2.57 0-5.644 2.173-5.644 4.61M321.027 158.32c0 1.14.821 2.411 2.967 2.411 2.757 0 5.645-2.253 5.645-4.585 0-1.563-1.325-2.437-2.968-2.437-2.57 0-5.644 2.172-5.644 4.611m324.525-62.878c0 1.14.822 2.411 2.968 2.411 2.756 0 5.644-2.252 5.644-4.584 0-1.563-1.325-2.438-2.968-2.438-2.57 0-5.644 2.173-5.644 4.61m-247.89-69.496c0 1.14.82 2.412 2.968 2.412 2.755 0 5.644-2.252 5.644-4.584 0-1.564-1.325-2.438-2.968-2.438-2.57 0-5.645 2.173-5.645 4.61m-170.981 0c0 1.14.821 2.412 2.968 2.412 2.756 0 5.644-2.252 5.644-4.584 0-1.564-1.325-2.438-2.968-2.438-2.57 0-5.644 2.173-5.644 4.61m395.288 66.187c0 1.14.821 2.412 2.967 2.412 2.756 0 5.644-2.252 5.644-4.584 0-1.564-1.325-2.438-2.967-2.438-2.571 0-5.644 2.173-5.644 4.61M411.356 29.254c0 1.14.822 2.411 2.969 2.411 2.755 0 5.644-2.252 5.644-4.584 0-1.563-1.325-2.437-2.968-2.437-2.57 0-5.645 2.172-5.645 4.61M598.383 92.13c0 1.14.821 2.412 2.967 2.412 2.756 0 5.644-2.252 5.644-4.584 0-1.564-1.325-2.438-2.967-2.438-2.571 0-5.644 2.173-5.644 4.61M425.05 32.563c0 1.14.822 2.412 2.969 2.412 2.755 0 5.644-2.252 5.644-4.584 0-1.564-1.325-2.438-2.968-2.438-2.57 0-5.645 2.173-5.645 4.61m-80.147 129.065c0 1.14.821 2.412 2.967 2.412 2.756 0 5.644-2.253 5.644-4.585 0-1.564-1.325-2.438-2.967-2.438-2.57 0-5.644 2.173-5.644 4.61m229.894-69.496c0 1.14.821 2.412 2.967 2.412 2.757 0 5.645-2.252 5.645-4.584 0-1.564-1.325-2.438-2.968-2.438-2.57 0-5.644 2.173-5.644 4.61M438.746 35.873c0 1.139.822 2.411 2.969 2.411 2.755 0 5.644-2.253 5.644-4.584 0-1.563-1.325-2.438-2.968-2.438-2.57 0-5.645 2.173-5.645 4.61m120.33 62.878c0 1.14.82 2.411 2.967 2.411 2.755 0 5.644-2.251 5.644-4.583 0-1.564-1.325-2.438-2.968-2.438-2.57 0-5.644 2.173-5.644 4.61M206.138 25.944c0 1.14.821 2.412 2.967 2.412 2.756 0 5.644-2.252 5.644-4.584 0-1.564-1.325-2.438-2.967-2.438-2.571 0-5.644 2.173-5.644 4.61M543.35 95.441c0 1.14.822 2.411 2.968 2.411 2.756 0 5.644-2.252 5.644-4.584 0-1.563-1.325-2.438-2.968-2.438-2.57 0-5.643 2.173-5.643 4.61M368.78 168.248c0 1.139.822 2.41 2.968 2.41 2.756 0 5.644-2.251 5.644-4.583 0-1.564-1.324-2.438-2.968-2.438-2.57 0-5.644 2.173-5.644 4.61M185.595 25.945c0 1.14.821 2.412 2.968 2.412 2.756 0 5.644-2.252 5.644-4.584 0-1.564-1.325-2.438-2.967-2.438-2.571 0-5.645 2.173-5.645 4.61m334.172 66.187c0 1.14.82 2.412 2.967 2.412 2.756 0 5.645-2.252 5.645-4.584 0-1.564-1.325-2.438-2.969-2.438-2.57 0-5.643 2.173-5.643 4.61m-54.98-62.877c0 1.14.823 2.411 2.969 2.411 2.755 0 5.644-2.252 5.644-4.584 0-1.563-1.325-2.437-2.968-2.437-2.57 0-5.645 2.172-5.645 4.61m31.395 62.877c0 1.14.821 2.412 2.968 2.412 2.756 0 5.644-2.252 5.644-4.584 0-1.564-1.325-2.438-2.968-2.438-2.57 0-5.644 2.173-5.644 4.61m-3.396-62.877c0 1.14.821 2.411 2.967 2.411 2.757 0 5.645-2.252 5.645-4.584 0-1.563-1.325-2.437-2.968-2.437-2.57 0-5.644 2.172-5.644 4.61m-321.42 6.619c0 1.139.82 2.411 2.967 2.411 2.755 0 5.644-2.253 5.644-4.584 0-1.563-1.325-2.438-2.968-2.438-2.57 0-5.644 2.173-5.644 4.61m301.233 56.26c0 1.14.82 2.411 2.967 2.411 2.756 0 5.644-2.252 5.644-4.584 0-1.564-1.325-2.438-2.968-2.438-2.57 0-5.643 2.173-5.643 4.61m-70.477 72.806c0 1.14.823 2.411 2.969 2.411 2.755 0 5.644-2.252 5.644-4.584 0-1.563-1.325-2.437-2.968-2.437-2.57 0-5.645 2.172-5.645 4.61m104.36-132.374c0 1.14.821 2.412 2.967 2.412 2.757 0 5.645-2.252 5.645-4.584 0-1.564-1.325-2.438-2.968-2.438-2.57 0-5.644 2.173-5.644 4.61m13.695 0c0 1.14.821 2.412 2.967 2.412 2.757 0 5.645-2.252 5.645-4.584 0-1.564-1.325-2.438-2.968-2.438-2.57 0-5.644 2.173-5.644 4.61M439.548 98.75c0 1.14.821 2.411 2.967 2.411 2.757 0 5.644-2.251 5.644-4.583 0-1.564-1.325-2.438-2.967-2.438-2.57 0-5.644 2.173-5.644 4.61m94.323-62.877c0 1.139.821 2.411 2.967 2.411 2.757 0 5.645-2.253 5.645-4.584 0-1.563-1.325-2.438-2.968-2.438-2.57 0-5.644 2.173-5.644 4.61m-376.2-3.309c0 1.14.82 2.412 2.967 2.412 2.755 0 5.644-2.252 5.644-4.584 0-1.564-1.325-2.438-2.968-2.438-2.57 0-5.644 2.173-5.644 4.61m258.293 62.878c0 1.14.821 2.411 2.967 2.411 2.757 0 5.645-2.252 5.645-4.584 0-1.563-1.325-2.438-2.968-2.438-2.57 0-5.644 2.173-5.644 4.61m131.603-56.258c0 1.14.82 2.412 2.967 2.412 2.756 0 5.645-2.253 5.645-4.585 0-1.563-1.325-2.438-2.968-2.438-2.57 0-5.644 2.173-5.644 4.611M400.24 95.441c0 1.14.821 2.411 2.968 2.411 2.755 0 5.644-2.252 5.644-4.584 0-1.563-1.325-2.438-2.968-2.438-2.57 0-5.644 2.173-5.644 4.61m25.758 72.807c0 1.139.822 2.41 2.968 2.41 2.756 0 5.644-2.251 5.644-4.583 0-1.564-1.325-2.438-2.968-2.438-2.57 0-5.644 2.173-5.644 4.61m-41.481-76.115c0 1.14.82 2.412 2.967 2.412 2.756 0 5.645-2.252 5.645-4.584 0-1.564-1.325-2.438-2.969-2.438-2.57 0-5.643 2.173-5.643 4.61m65.358 79.425c0 1.14.822 2.411 2.968 2.411 2.756 0 5.644-2.252 5.644-4.584 0-1.563-1.325-2.437-2.968-2.437-2.57 0-5.644 2.172-5.644 4.61M137.127 29.254c0 1.14.822 2.411 2.968 2.411 2.756 0 5.645-2.252 5.645-4.584 0-1.563-1.325-2.437-2.968-2.437-2.57 0-5.645 2.172-5.645 4.61M360.932 92.13c0 1.14.82 2.412 2.967 2.412 2.756 0 5.645-2.252 5.645-4.584 0-1.564-1.325-2.438-2.968-2.438-2.57 0-5.644 2.173-5.644 4.61m212.675-56.258c0 1.139.821 2.411 2.968 2.411 2.755 0 5.644-2.253 5.644-4.584 0-1.563-1.325-2.438-2.968-2.438-2.57 0-5.644 2.173-5.644 4.61m-236.26 59.569c0 1.14.822 2.411 2.968 2.411 2.756 0 5.644-2.252 5.644-4.584 0-1.563-1.325-2.438-2.968-2.438-2.57 0-5.644 2.173-5.644 4.61m249.955-62.877c0 1.14.82 2.412 2.968 2.412 2.755 0 5.644-2.252 5.644-4.584 0-1.564-1.325-2.438-2.968-2.438-2.57 0-5.644 2.173-5.644 4.61m-273.54 62.878c0 1.14.822 2.411 2.968 2.411 2.756 0 5.644-2.252 5.644-4.584 0-1.563-1.325-2.438-2.968-2.438-2.57 0-5.643 2.173-5.643 4.61m159.989 79.425c0 1.14.821 2.412 2.968 2.412 2.756 0 5.643-2.253 5.643-4.584 0-1.564-1.325-2.439-2.967-2.439-2.57 0-5.644 2.174-5.644 4.611M290.178 95.441c0 1.14.821 2.411 2.967 2.411 2.756 0 5.644-2.252 5.644-4.584 0-1.563-1.325-2.438-2.968-2.438-2.57 0-5.643 2.173-5.643 4.61m317.666-66.186c0 1.14.822 2.411 2.968 2.411 2.756 0 5.644-2.252 5.644-4.584 0-1.563-1.325-2.437-2.968-2.437-2.57 0-5.644 2.172-5.644 4.61m-491.259 0c0 1.14.822 2.411 2.968 2.411 2.755 0 5.644-2.252 5.644-4.584 0-1.563-1.325-2.437-2.968-2.437-2.57 0-5.644 2.172-5.644 4.61M266.593 95.44c0 1.14.821 2.411 2.967 2.411 2.757 0 5.645-2.252 5.645-4.584 0-1.563-1.325-2.438-2.968-2.438-2.57 0-5.644 2.173-5.644 4.61m354.946-69.496c0 1.14.822 2.412 2.968 2.412 2.755 0 5.644-2.252 5.644-4.584 0-1.564-1.325-2.438-2.968-2.438-2.57 0-5.644 2.173-5.644 4.61m13.695 3.31c0 1.14.822 2.411 2.968 2.411 2.755 0 5.644-2.252 5.644-4.584 0-1.563-1.325-2.437-2.968-2.437-2.57 0-5.644 2.172-5.644 4.61M497.628 174.865c0 1.14.822 2.412 2.969 2.412 2.755 0 5.644-2.253 5.644-4.584 0-1.564-1.325-2.439-2.968-2.439-2.57 0-5.645 2.174-5.645 4.611M221.751 105.37c0 1.14.821 2.411 2.967 2.411 2.757 0 5.645-2.252 5.645-4.584 0-1.563-1.325-2.438-2.968-2.438-2.57 0-5.644 2.174-5.644 4.611m299.754 66.187c0 1.14.822 2.411 2.968 2.411 2.756 0 5.644-2.252 5.644-4.584 0-1.563-1.325-2.437-2.968-2.437-2.57 0-5.644 2.172-5.644 4.61m-315.477-66.187c0 1.14.821 2.411 2.968 2.411 2.755 0 5.644-2.252 5.644-4.584 0-1.563-1.325-2.438-2.968-2.438-2.57 0-5.644 2.174-5.644 4.611m455.247-79.425c0 1.14.822 2.412 2.968 2.412 2.756 0 5.644-2.252 5.644-4.584 0-1.564-1.325-2.438-2.968-2.438-2.57 0-5.644 2.173-5.644 4.61m-470.97 76.116c0 1.139.82 2.411 2.967 2.411 2.756 0 5.645-2.252 5.645-4.584 0-1.563-1.325-2.438-2.969-2.438-2.57 0-5.644 2.173-5.644 4.61M96.042 29.255c0 1.14.822 2.411 2.968 2.411 2.756 0 5.645-2.252 5.645-4.584 0-1.563-1.325-2.437-2.968-2.437-2.57 0-5.645 2.172-5.645 4.61m449.34 138.993c0 1.139.822 2.41 2.968 2.41 2.756 0 5.644-2.251 5.644-4.583 0-1.564-1.325-2.438-2.968-2.438-2.57 0-5.644 2.173-5.644 4.61M64.365 35.874c0 1.139.821 2.411 2.967 2.411 2.756 0 5.644-2.253 5.644-4.584 0-1.563-1.325-2.438-2.967-2.438-2.57 0-5.644 2.173-5.644 4.61M48.795 98.75c0 1.14.822 2.411 2.968 2.411 2.757 0 5.645-2.251 5.645-4.583 0-1.564-1.325-2.438-2.968-2.438-2.57 0-5.644 2.173-5.644 4.61m110.062-3.31c0 1.14.822 2.412 2.968 2.412 2.756 0 5.644-2.252 5.644-4.584 0-1.563-1.325-2.438-2.968-2.438-2.57 0-5.644 2.173-5.644 4.61m410.4 69.497c0 1.14.822 2.411 2.968 2.411 2.757 0 5.645-2.252 5.645-4.584 0-1.563-1.325-2.437-2.968-2.437-2.57 0-5.644 2.172-5.644 4.61M135.273 102.06c0 1.139.822 2.411 2.968 2.411 2.756 0 5.645-2.252 5.645-4.584 0-1.563-1.325-2.438-2.969-2.438-2.57 0-5.644 2.173-5.644 4.61M64.52 95.442c0 1.14.822 2.411 2.968 2.411 2.755 0 5.644-2.252 5.644-4.584 0-1.563-1.325-2.438-2.968-2.438-2.57 0-5.644 2.173-5.644 4.61m110.062 3.31c0 1.14.822 2.411 2.968 2.411 2.756 0 5.644-2.251 5.644-4.583 0-1.564-1.325-2.438-2.967-2.438-2.57 0-5.645 2.173-5.645 4.61m-62.893-6.619c0 1.14.822 2.412 2.969 2.412 2.755 0 5.644-2.252 5.644-4.584 0-1.564-1.325-2.438-2.968-2.438-2.57 0-5.645 2.173-5.645 4.61m-31.446 0c0 1.14.821 2.412 2.968 2.412 2.756 0 5.644-2.252 5.644-4.584 0-1.564-1.325-2.438-2.967-2.438-2.57 0-5.645 2.173-5.645 4.61m121.4 69.497c0 1.14.823 2.412 2.97 2.412 2.755 0 5.643-2.253 5.643-4.585 0-1.564-1.325-2.438-2.968-2.438-2.57 0-5.644 2.173-5.644 4.61m393.48 1.167a.99.99 0 0 1-1.06-.954c0-1.299 4.452-3.577 5.697-3.577.636 0 1.06.37 1.06.953 0 1.325-4.478 3.578-5.697 3.578m3.657-5.777c-2.57 0-5.644 2.147-5.644 4.61 0 1.14.821 2.413 2.968 2.413 2.755 0 5.643-2.253 5.643-4.585 0-1.564-1.324-2.438-2.967-2.438M72.307 17.61c0 .08.026.212.212.292 1.14.37 3.419 1.802 5.14 4.743.478.821 1.246 1.961 1.246 4.16 0 1.908-.503 3.87-1.193 5.777-.053.159-.105.291-.079.397 0 .16.107.265.265.265.186 0 .318-.106.424-.291 1.192-2.12 1.643-4.584 1.643-6.996-.133-3.418-2.093-5.935-2.093-5.935.079 0-2.438-3.26-3.154-4.372-.98-1.51-1.43-3.021-1.483-3.127-.027-.08-.265-1.034-.265-1.034-.027-.106-.16-.212-.319-.212a.35.35 0 0 0-.344.345zm337.757 126.375v18.781h.662v-18.781ZM143.216 76.08v23.807h.662V76.08ZM64.519 95.44v20.387h.662V95.44Zm102.282-20.945V93.27h.662V74.495Zm15.723 1.087v20.996h.662V75.582ZM48.796 98.75v18.71h.662v-18.71Zm544.34 62.878v20.399h.662v-20.4ZM198.247 76.67v23.218h.662V76.67Zm-78.616-3.808V89.96h.662V72.862ZM72.307 11.647v22.054h.662V11.647ZM213.97 77.758v25.44h.662v-25.44ZM669.218 4.996v18.777h.662V4.996ZM229.693 81.091v22.106h.662V81.091Zm347.508 62.893v18.781h.663v-18.781ZM103.985 9.94v17.142h.662V9.94Zm539.192-3.33v20.472h.662V6.61ZM266.592 95.44v17.09h.662V95.44Zm362.89-90.433v18.766h.662V5.007ZM290.177 95.44v17.09h.662V95.44Zm325.61-89.134v20.776h.662V6.306ZM313.762 95.44v17.09h.662V95.44Zm23.585 0v17.09h.662V95.44ZM595.244 8.254v22.138h.662V8.254ZM360.932 92.13v20.413h.662V92.13Zm220.617-80.515V33.7h.662V11.615ZM384.516 92.13v21.39h.662V92.13Zm15.724 3.31v18.73h.662V95.44Zm23.665-19.29v17.119h.662v-17.12Zm131.603-62.921V37.01h.662V13.23ZM447.49 77.759v18.82h.662v-18.82Zm94.323-69.487V33.7h.662V8.271Zm11.511 136.804v20.999h.662v-20.999ZM528.118 7.73v22.663h.662V7.729Zm1.33 138.44v23.215h.662V146.17ZM514.423 7.187v23.206h.662V7.186ZM472.597 92.13v17.09h.662V92.13Zm23.585 0v17.09h.662V92.13Zm4.546-85.487v20.44h.662V6.642Zm-376.2 3.297v17.142h.661V9.94ZM505.57 147.263v25.43h.662v-25.43zm14.196-55.133v22.081h.662v-22.08ZM472.73 6.65v20.432h.662V6.651Zm70.621 88.79v20.725h.662V95.44Zm15.724 3.31v18.716h.662V98.75Zm15.722-6.62v17.09h.662V92.13ZM446.69 8.265V33.7h.662V8.265ZM598.382 92.13v17.09h.662V92.13ZM432.994 6.591v23.8h.662v-23.8Zm188.973 85.54v22.08h.662v-22.08ZM419.3 4.962v22.12h.662V4.962ZM645.552 95.44v20.725h.662V95.44ZM405.604 3.334v20.439h.662V3.334ZM661.275 98.75v18.717h.662V98.75ZM145.07 9.971v17.111h.662V9.971Zm246.84-8.265v18.757h.661V1.706Zm89.785 145.557v25.43h.662v-25.43ZM370.272 19.325v23.747h.662V19.325ZM48.796 151.699v23.717h.662V151.7zm307.78-129.065v22.067h.663V22.634ZM84.612 155.01v21.389h.662v-21.39zM342.882 25.944V46.33h.662V25.944ZM108.487 158.317v18.736h.662v-18.736zm23.878 3.31v20.387h.662v-20.387ZM329.187 29.253v18.705h.662V29.253ZM177.766 158.317v22.066h.662v-22.066zM322.899 11.615v18.777h.662V11.615ZM201.643 161.627v20.399h.662v-20.4zm23.876-3.31v23.709h.662v-23.709zm23.877 3.31v20.399h.663v-20.4Zm47.462-148.398V33.7h.662V13.229Zm160.96 132.94v23.215h.661V146.17ZM165.611 11.92v18.473h.662V11.919Zm107.66 146.398v23.709h.663v-23.709ZM268.86 8.27v22.123h.662V8.269Zm28.29 153.358v25.37h.662v-25.37ZM255.165 7.62v19.462h.662V7.62Zm65.861 150.697v29.227h.662v-29.227zm23.877 3.31v26.463h.662v-26.463ZM234.623 6.646v17.127h.661V6.646Zm134.157 161.6v20.391h.662v-20.391ZM206.137 25.944v17.089h.662v-17.09Zm227.804 119.132v20.999h.662v-20.999ZM179.307 13.218V33.7h.662V13.218Zm6.288 12.726v17.089h.662v-17.09ZM80.243 92.13v22.066h.662V92.13Zm15.722-3.309v23.743h.662V88.82ZM79.36 138.264c-9.81-.125-19.424 1.883-26.348 6.226l-.003.012a.165.165 0 0 0-.057.202l.01.003-.002.01a.165.165 0 0 0 .203.057l.01.004c7.748-3.858 19.084-5.247 30.255-4.417s22.177 3.878 29.269 8.84a.165.165 0 0 0 .202-.262c-7.093-6.079-18.11-9.658-29.33-10.492a69 69 0 0 0-4.209-.183m-.004.33q2.094.028 4.19.183c9.8.728 19.44 3.571 26.394 8.32-7.066-3.93-16.713-6.34-26.488-7.066s-19.673.233-27.242 3.075c6.5-3.147 14.747-4.616 23.146-4.511M53.1 144.63c15.738-9.872 45.585-7.654 59.692 4.435-14.264-9.978-44.11-12.195-59.692-4.435m339.558 5.593v27.203h1.192v-27.203ZM279.451 11.23v27.203h1.191V11.23ZM679.81 80.727v27.202H681V80.727ZM483.322 11.23v27.203h1.19V11.23Zm-20.19 69.497v27.202h1.192V80.727ZM86.579 11.23v27.203h1.192V11.23Zm170.55 69.497v27.202h1.191V80.727Zm422.68-69.497v27.203H681V11.23Zm-2.448 138.993v27.203H681v-27.203zm-3.64 0v27.203h1.191v-27.203ZM0 176.698v.728h681v-.728zm0-6.619v.728h681v-.728zm0-6.619v.728h681v-.728zm0-6.618v.727h681v-.727zm0-6.619v.728h681v-.728zm0-43.021v.728h681v-.728zm0-6.619v.728h681v-.728zm0-6.619v.728h681v-.728zm0-6.619v.728h681v-.728zm0-6.618v.728h681v-.728Zm0-43.022v.728h681v-.728zm0-6.618v.728h681v-.728zm0-6.62v.728h681v-.727zm0-6.618v.728h681v-.728zm0-6.619v.728h681v-.728z"/>
</svg>
