<?xml version="1.0" encoding="UTF-8" standalone="no"?>
<svg width="210.058mm" height="296.926mm" viewBox="0 0 9924 14028"
 xmlns="http://www.w3.org/2000/svg" xmlns:xlink="http://www.w3.org/1999/xlink" version="1.2" baseProfile="full">
<title>air_XXVII</title>
<desc>Generated by MuseScore Studio 4.7.3</desc>
<polyline class="StaffLines" fill="none" stroke="#000000" stroke-width="9.09" stroke-linejoin="bevel" points="708.661,853.346 9215.34,853.346" />
<polyline class="StaffLines" fill="none" stroke="#000000" stroke-width="9.09" stroke-linejoin="bevel" points="708.661,936.023 9215.34,936.023" />
<polyline class="StaffLines" fill="none" stroke="#000000" stroke-width="9.09" stroke-linejoin="bevel" points="708.661,1018.7 9215.34,1018.7" />
<polyline class="StaffLines" fill="none" stroke="#000000" stroke-width="9.09" stroke-linejoin="bevel" points="708.661,1101.38 9215.34,1101.38" />
<polyline class="StaffLines" fill="none" stroke="#000000" stroke-width="9.09" stroke-linejoin="bevel" points="708.661,1184.05 9215.34,1184.05" />
<polyline class="StaffLines" fill="none" stroke="#000000" stroke-width="9.09" stroke-linejoin="bevel" points="708.661,1721.46 9215.34,1721.46" />
<polyline class="StaffLines" fill="none" stroke="#000000" stroke-width="9.09" stroke-linejoin="bevel" points="708.661,1804.13 9215.34,1804.13" />
<polyline class="StaffLines" fill="none" stroke="#000000" stroke-width="9.09" stroke-linejoin="bevel" points="708.661,1886.81 9215.34,1886.81" />
<polyline class="StaffLines" fill="none" stroke="#000000" stroke-width="9.09" stroke-linejoin="bevel" points="708.661,1969.49 9215.34,1969.49" />
<polyline class="StaffLines" fill="none" stroke="#000000" stroke-width="9.09" stroke-linejoin="bevel" points="708.661,2052.17 9215.34,2052.17" />
<polyline class="StaffLines" fill="none" stroke="#000000" stroke-width="9.09" stroke-linejoin="bevel" points="708.661,2589.57 9215.34,2589.57" />
<polyline class="StaffLines" fill="none" stroke="#000000" stroke-width="9.09" stroke-linejoin="bevel" points="708.661,2672.24 9215.34,2672.24" />
<polyline class="StaffLines" fill="none" stroke="#000000" stroke-width="9.09" stroke-linejoin="bevel" points="708.661,2754.92 9215.34,2754.92" />
<polyline class="StaffLines" fill="none" stroke="#000000" stroke-width="9.09" stroke-linejoin="bevel" points="708.661,2837.6 9215.34,2837.6" />
<polyline class="StaffLines" fill="none" stroke="#000000" stroke-width="9.09" stroke-linejoin="bevel" points="708.661,2920.28 9215.34,2920.28" />
<polyline class="BarLine" fill="none" stroke="#000000" stroke-width="14.88" stroke-linejoin="bevel" points="4838.43,848.799 4838.43,1188.6" />
<polyline class="BarLine" fill="none" stroke="#000000" stroke-width="14.88" stroke-linejoin="bevel" points="7712.91,1716.91 7712.91,2056.71" />
<polyline class="BarLine" fill="none" stroke="#000000" stroke-width="14.88" stroke-linejoin="bevel" points="8202.61,2585.02 8202.61,2924.82" />
<polyline class="BarLine" fill="none" stroke="#000000" stroke-width="14.88" stroke-linejoin="bevel" points="6653.83,2585.02 6653.83,2924.82" />
<polyline class="BarLine" fill="none" stroke="#000000" stroke-width="14.88" stroke-linejoin="bevel" points="1737.07,848.799 1737.07,1188.6" />
<polyline class="BarLine" fill="none" stroke="#000000" stroke-width="14.88" stroke-linejoin="bevel" points="5486.17,2585.02 5486.17,2924.82" />
<polyline class="BarLine" fill="none" stroke="#000000" stroke-width="14.88" stroke-linejoin="bevel" points="3937.4,2585.02 3937.4,2924.82" />
<polyline class="BarLine" fill="none" stroke="#000000" stroke-width="14.88" stroke-linejoin="bevel" points="2769.74,2585.02 2769.74,2924.82" />
<polyline class="BarLine" fill="none" stroke="#000000" stroke-width="14.88" stroke-linejoin="bevel" points="9207.9,1716.91 9207.9,2056.71" />
<polyline class="BarLine" fill="none" stroke="#000000" stroke-width="14.88" stroke-linejoin="bevel" points="6367.98,848.799 6367.98,1188.6" />
<polyline class="BarLine" fill="none" stroke="#000000" stroke-width="14.88" stroke-linejoin="bevel" points="7521.53,848.799 7521.53,1188.6" />
<polyline class="BarLine" fill="none" stroke="#000000" stroke-width="14.88" stroke-linejoin="bevel" points="9207.9,848.799 9207.9,1188.6" />
<polyline class="BarLine" fill="none" stroke="#000000" stroke-width="14.88" stroke-linejoin="bevel" points="2799.4,1716.91 2799.4,2056.71" />
<polyline class="BarLine" fill="none" stroke="#000000" stroke-width="14.88" stroke-linejoin="bevel" points="4419.55,1716.91 4419.55,2056.71" />
<path class="BarLine" d="M5416.23,1845.47 C5416.23,1835.87 5408.62,1827.93 5399.02,1827.93 C5389.42,1827.93 5381.81,1835.87 5381.81,1845.47 C5381.81,1855.07 5389.42,1863.02 5399.02,1863.02 C5408.62,1863.02 5416.23,1855.07 5416.23,1845.47"/>
<path class="BarLine" d="M5416.23,1928.15 C5416.23,1918.55 5408.62,1910.61 5399.02,1910.61 C5389.42,1910.61 5381.81,1918.55 5381.81,1928.15 C5381.81,1937.75 5389.42,1945.69 5399.02,1945.69 C5408.62,1945.69 5416.23,1937.75 5416.23,1928.15"/>
<polyline class="BarLine" fill="none" stroke="#000000" stroke-width="14.88" stroke-linejoin="bevel" points="5454.24,1716.91 5454.24,2056.71" />
<polyline class="BarLine" fill="none" stroke="#000000" stroke-width="45.47" stroke-linejoin="bevel" points="5515.01,1716.91 5515.01,2056.71" />
<polyline class="BarLine" fill="none" stroke="#000000" stroke-width="14.88" stroke-linejoin="bevel" points="3266.62,848.799 3266.62,1188.6" />
<polyline class="BarLine" fill="none" stroke="#000000" stroke-width="45.47" stroke-linejoin="bevel" points="5515.01,1716.91 5515.01,2056.71" />
<polyline class="BarLine" fill="none" stroke="#000000" stroke-width="14.88" stroke-linejoin="bevel" points="5575.77,1716.91 5575.77,2056.71" />
<path class="BarLine" d="M5648.23,1845.47 C5648.23,1835.87 5640.61,1827.93 5631.01,1827.93 C5621.41,1827.93 5613.8,1835.87 5613.8,1845.47 C5613.8,1855.07 5621.41,1863.02 5631.01,1863.02 C5640.61,1863.02 5648.23,1855.07 5648.23,1845.47"/>
<path class="BarLine" d="M5648.23,1928.15 C5648.23,1918.55 5640.61,1910.61 5631.01,1910.61 C5621.41,1910.61 5613.8,1918.55 5613.8,1928.15 C5613.8,1937.75 5621.41,1945.69 5631.01,1945.69 C5640.61,1945.69 5648.23,1937.75 5648.23,1928.15"/>
<polyline class="BarLine" fill="none" stroke="#000000" stroke-width="14.88" stroke-linejoin="bevel" points="6009.31,1716.91 6009.31,2056.71" />
<polyline class="BarLine" fill="none" stroke="#000000" stroke-width="14.88" stroke-linejoin="bevel" points="9131.84,2585.02 9131.84,2924.82" />
<polyline class="BarLine" fill="none" stroke="#000000" stroke-width="45.47" stroke-linejoin="bevel" points="9192.6,2585.02 9192.6,2924.82" />
<path class="SlurSegment" stroke="#000000" stroke-width="4.13" stroke-linecap="round" stroke-linejoin="round" fill-rule="evenodd" d="M1385.5,2085.24 C1415.3,2143.68 1498.74,2164.35 1552.38,2126.57 C1493.91,2183.86 1410.47,2163.19 1385.5,2085.24"/>
<path class="SlurSegment" stroke="#000000" stroke-width="4.13" stroke-linecap="round" stroke-linejoin="round" fill-rule="evenodd" d="M7686.07,902.953 C7740.26,790.442 7897.08,749.104 7999.7,820.275 C7903.76,774.44 7746.94,815.779 7686.07,902.953"/>
<path class="TieSegment" stroke="#000000" stroke-width="4.13" stroke-linecap="round" stroke-linejoin="round" fill-rule="evenodd" d="M8372.42,2980.64 C8440.64,3036.06 8645.31,3036.06 8713.53,2980.64 C8645.31,3062.52 8440.64,3062.52 8372.42,2980.64"/>
<path class="TieSegment" stroke="#000000" stroke-width="4.13" stroke-linecap="round" stroke-linejoin="round" fill-rule="evenodd" d="M5655.99,2856.62 C5724.21,2895.31 5928.87,2895.31 5997.09,2856.62 C5928.87,2921.77 5724.21,2921.77 5655.99,2856.62"/>
<path class="TieSegment" stroke="#000000" stroke-width="4.13" stroke-linecap="round" stroke-linejoin="round" fill-rule="evenodd" d="M4589.37,2029.85 C4661.16,2087.18 4876.53,2087.18 4948.32,2029.85 C4876.53,2113.64 4661.16,2113.64 4589.37,2029.85"/>
<path class="TieSegment" stroke="#000000" stroke-width="4.13" stroke-linecap="round" stroke-linejoin="round" fill-rule="evenodd" d="M2939.56,2939.3 C3007.78,2994.72 3212.44,2994.72 3280.66,2939.3 C3212.44,3021.18 3007.78,3021.18 2939.56,2939.3"/>
<path class="TieSegment" stroke="#000000" stroke-width="4.13" stroke-linecap="round" stroke-linejoin="round" fill-rule="evenodd" d="M6547.22,958.341 C6614.48,874.93 6816.26,874.93 6883.52,958.341 C6816.26,901.387 6614.48,901.387 6547.22,958.341"/>
<path class="Accidental" d="M3615.98,2647.75 L3645.44,2641.79 L3645.44,2696.41 L3615.98,2702.7 L3615.98,2647.75 M3667.28,2637.49 C3669.27,2637.16 3670.92,2634.84 3670.92,2632.85 L3670.92,2613.33 C3670.92,2610.68 3668.94,2608.69 3666.29,2608.69 L3665.63,2608.69 L3654.7,2611.01 L3654.7,2561.69 L3645.44,2561.69 L3645.44,2612.99 L3615.98,2618.95 L3615.98,2572.28 L3606.71,2572.28 L3606.71,2620.94 L3593.8,2623.59 C3591.81,2623.92 3590.16,2626.23 3590.16,2628.22 L3590.16,2647.42 C3590.16,2650.07 3592.15,2652.05 3594.79,2652.05 L3595.79,2652.05 L3606.71,2649.74 L3606.71,2704.35 L3593.8,2707 C3591.81,2707.33 3590.16,2709.65 3590.16,2711.63 L3590.16,2730.83 C3590.16,2733.48 3592.15,2735.46 3594.79,2735.46 L3595.79,2735.46 L3606.71,2733.15 L3606.71,2782.47 L3615.98,2782.47 L3615.98,2731.16 L3645.44,2725.2 L3645.44,2771.87 L3654.7,2771.87 L3654.7,2723.22 L3667.28,2720.9 C3669.27,2720.57 3670.92,2718.25 3670.92,2716.27 L3670.92,2696.74 C3670.92,2694.09 3668.94,2692.1 3666.29,2692.1 L3665.63,2692.1 L3654.7,2694.42 L3654.7,2639.81 L3667.28,2637.49 "/>
<polyline class="LedgerLine" fill="none" stroke="#000000" stroke-width="13.23" stroke-linejoin="bevel" points="3820.56,1266.73 3982.62,1266.73" />
<polyline class="LedgerLine" fill="none" stroke="#000000" stroke-width="13.23" stroke-linejoin="bevel" points="3350.12,1266.73 3512.18,1266.73" />
<polyline class="LedgerLine" fill="none" stroke="#000000" stroke-width="13.23" stroke-linejoin="bevel" points="4526.23,1266.73 4688.29,1266.73" />
<polyline class="LedgerLine" fill="none" stroke="#000000" stroke-width="13.23" stroke-linejoin="bevel" points="3585.34,1266.73 3747.4,1266.73" />
<polyline class="LedgerLine" fill="none" stroke="#000000" stroke-width="13.23" stroke-linejoin="bevel" points="3585.34,1349.41 3747.4,1349.41" />
<polyline class="Stem" fill="none" stroke="#000000" stroke-width="8.27" stroke-linejoin="bevel" points="6223.45,1873.58 6223.45,1597.44" />
<polyline class="Stem" fill="none" stroke="#000000" stroke-width="8.27" stroke-linejoin="bevel" points="5009.17,1956.26 5009.17,1680.12" />
<polyline class="Stem" fill="none" stroke="#000000" stroke-width="8.27" stroke-linejoin="bevel" points="8060.09,2907.05 8060.09,2610.06" />
<polyline class="Stem" fill="none" stroke="#000000" stroke-width="8.27" stroke-linejoin="bevel" points="7821.66,2865.71 7821.66,2599.9" />
<polyline class="Stem" fill="none" stroke="#000000" stroke-width="8.27" stroke-linejoin="bevel" points="5993.44,1088.15 5993.44,853.346" />
<polyline class="Stem" fill="none" stroke="#000000" stroke-width="8.27" stroke-linejoin="bevel" points="7583.24,2824.37 7583.24,2589.74" />
<polyline class="Stem" fill="none" stroke="#000000" stroke-width="8.27" stroke-linejoin="bevel" points="6228.66,1170.83 6228.66,853.346" />
<polyline class="Stem" fill="none" stroke="#000000" stroke-width="8.27" stroke-linejoin="bevel" points="7344.81,2824.37 7344.81,2548.05" />
<polyline class="Stem" fill="none" stroke="#000000" stroke-width="8.27" stroke-linejoin="bevel" points="7106.39,2783.03 7106.39,2537.89" />
<polyline class="Stem" fill="none" stroke="#000000" stroke-width="8.27" stroke-linejoin="bevel" points="6867.96,2741.69 6867.96,2527.73" />
<polyline class="Stem" fill="none" stroke="#000000" stroke-width="8.27" stroke-linejoin="bevel" points="6482.9,1032.59 6482.9,1266.73" />
<polyline class="Stem" fill="none" stroke="#000000" stroke-width="8.27" stroke-linejoin="bevel" points="1502.25,1032.59 1502.25,1287.07" />
<polyline class="Stem" fill="none" stroke="#000000" stroke-width="8.27" stroke-linejoin="bevel" points="6835.73,1032.59 6835.73,1266.73" />
<polyline class="Stem" fill="none" stroke="#000000" stroke-width="8.27" stroke-linejoin="bevel" points="6412.1,2727.47 6412.1,2981.95" />
<polyline class="Stem" fill="none" stroke="#000000" stroke-width="8.27" stroke-linejoin="bevel" points="3127.3,1170.83 3127.3,873.837" />
<polyline class="Stem" fill="none" stroke="#000000" stroke-width="8.27" stroke-linejoin="bevel" points="6390.33,1832.24 6390.33,1597.44" />
<polyline class="Stem" fill="none" stroke="#000000" stroke-width="8.27" stroke-linejoin="bevel" points="7283.01,1032.59 7283.01,1287.07" />
<polyline class="Stem" fill="none" stroke="#000000" stroke-width="8.27" stroke-linejoin="bevel" points="6057.94,2783.03 6057.94,2527.56" />
<polyline class="Stem" fill="none" stroke="#000000" stroke-width="8.27" stroke-linejoin="bevel" points="5700.31,2783.03 5700.31,2527.56" />
<polyline class="Stem" fill="none" stroke="#000000" stroke-width="8.27" stroke-linejoin="bevel" points="5755.68,1900.7 5755.68,2155.18" />
<polyline class="Stem" fill="none" stroke="#000000" stroke-width="8.27" stroke-linejoin="bevel" points="7636.45,991.252 7636.45,1245.91" />
<polyline class="Stem" fill="none" stroke="#000000" stroke-width="8.27" stroke-linejoin="bevel" points="1951.2,1005.47 1951.2,791.517" />
<polyline class="Stem" fill="none" stroke="#000000" stroke-width="8.27" stroke-linejoin="bevel" points="5244.44,2727.47 5244.44,2982.28" />
<polyline class="Stem" fill="none" stroke="#000000" stroke-width="8.27" stroke-linejoin="bevel" points="7793.27,949.913 7793.27,1240.09" />
<polyline class="Stem" fill="none" stroke="#000000" stroke-width="8.27" stroke-linejoin="bevel" points="5006.02,2768.81 5006.02,2982.28" />
<polyline class="Stem" fill="none" stroke="#000000" stroke-width="8.27" stroke-linejoin="bevel" points="7950.08,908.575 7950.08,1234.27" />
<polyline class="Stem" fill="none" stroke="#000000" stroke-width="8.27" stroke-linejoin="bevel" points="4767.59,2727.47 4767.59,2982.28" />
<polyline class="Stem" fill="none" stroke="#000000" stroke-width="8.27" stroke-linejoin="bevel" points="8185.3,949.913 8185.3,1225.55" />
<polyline class="Stem" fill="none" stroke="#000000" stroke-width="8.27" stroke-linejoin="bevel" points="4529.17,2644.8 4529.17,2920.28" />
<polyline class="Stem" fill="none" stroke="#000000" stroke-width="8.27" stroke-linejoin="bevel" points="8519.74,964.134 8519.74,729.791" />
<polyline class="Stem" fill="none" stroke="#000000" stroke-width="8.27" stroke-linejoin="bevel" points="4290.74,2686.13 4290.74,2920.28" />
<polyline class="Stem" fill="none" stroke="#000000" stroke-width="8.27" stroke-linejoin="bevel" points="4052.32,2644.8 4052.32,2920.28" />
<polyline class="Stem" fill="none" stroke="#000000" stroke-width="8.27" stroke-linejoin="bevel" points="8676.55,1005.47 8676.55,747.244" />
<polyline class="Stem" fill="none" stroke="#000000" stroke-width="8.27" stroke-linejoin="bevel" points="2186.42,1046.81 2186.42,801.673" />
<polyline class="Stem" fill="none" stroke="#000000" stroke-width="8.27" stroke-linejoin="bevel" points="8833.36,1046.81 8833.36,764.698" />
<polyline class="Stem" fill="none" stroke="#000000" stroke-width="8.27" stroke-linejoin="bevel" points="5523,1088.15 5523,853.525" />
<polyline class="Stem" fill="none" stroke="#000000" stroke-width="8.27" stroke-linejoin="bevel" points="9068.59,1088.15 9068.59,790.878" />
<polyline class="Stem" fill="none" stroke="#000000" stroke-width="8.27" stroke-linejoin="bevel" points="3695.67,2686.13 3695.67,2961.28" />
<polyline class="Stem" fill="none" stroke="#000000" stroke-width="8.27" stroke-linejoin="bevel" points="3951.19,1294.84 3951.19,1039.37" />
<polyline class="Stem" fill="none" stroke="#000000" stroke-width="8.27" stroke-linejoin="bevel" points="8416.74,2907.05 8416.74,2630.91" />
<polyline class="Stem" fill="none" stroke="#000000" stroke-width="8.27" stroke-linejoin="bevel" points="6557.21,1790.91 6557.21,1597.44" />
<polyline class="Stem" fill="none" stroke="#000000" stroke-width="8.27" stroke-linejoin="bevel" points="5287.78,1129.49 5287.78,863.681" />
<polyline class="Stem" fill="none" stroke="#000000" stroke-width="8.27" stroke-linejoin="bevel" points="3341.51,2865.71 3341.51,2589.57" />
<polyline class="Stem" fill="none" stroke="#000000" stroke-width="8.27" stroke-linejoin="bevel" points="2983.88,2865.71 2983.88,2589.57" />
<polyline class="Stem" fill="none" stroke="#000000" stroke-width="8.27" stroke-linejoin="bevel" points="1435.1,1997.6 1435.1,1721.94" />
<polyline class="Stem" fill="none" stroke="#000000" stroke-width="8.27" stroke-linejoin="bevel" points="2421.64,1088.15 2421.64,811.829" />
<polyline class="Stem" fill="none" stroke="#000000" stroke-width="8.27" stroke-linejoin="bevel" points="2627.22,2783.03 2627.22,2568.9" />
<polyline class="Stem" fill="none" stroke="#000000" stroke-width="8.27" stroke-linejoin="bevel" points="1601.98,2038.94 1601.98,1741.64" />
<polyline class="Stem" fill="none" stroke="#000000" stroke-width="8.27" stroke-linejoin="bevel" points="2388.8,2824.37 2388.8,2568.9" />
<polyline class="Stem" fill="none" stroke="#000000" stroke-width="8.27" stroke-linejoin="bevel" points="1768.86,2080.28 1768.86,1804.13" />
<polyline class="Stem" fill="none" stroke="#000000" stroke-width="8.27" stroke-linejoin="bevel" points="2150.37,2783.03 2150.37,2568.9" />
<polyline class="Stem" fill="none" stroke="#000000" stroke-width="8.27" stroke-linejoin="bevel" points="1812.74,2727.47 1812.74,2982.28" />
<polyline class="Stem" fill="none" stroke="#000000" stroke-width="8.27" stroke-linejoin="bevel" points="1574.31,2768.81 1574.31,2982.28" />
<polyline class="Stem" fill="none" stroke="#000000" stroke-width="8.27" stroke-linejoin="bevel" points="3480.75,1294.84 3480.75,1039.37" />
<polyline class="Stem" fill="none" stroke="#000000" stroke-width="8.27" stroke-linejoin="bevel" points="2545.77,1818.02 2545.77,2093.17" />
<polyline class="Stem" fill="none" stroke="#000000" stroke-width="8.27" stroke-linejoin="bevel" points="1335.89,2727.47 1335.89,2982.28" />
<polyline class="Stem" fill="none" stroke="#000000" stroke-width="8.27" stroke-linejoin="bevel" points="8774.38,2907.05 8774.38,2630.91" />
<polyline class="Stem" fill="none" stroke="#000000" stroke-width="8.27" stroke-linejoin="bevel" points="3715.97,1336.18 3715.97,1039.37" />
<polyline class="Stem" fill="none" stroke="#000000" stroke-width="8.27" stroke-linejoin="bevel" points="3013.53,1873.58 3013.53,1659.62" />
<polyline class="Stem" fill="none" stroke="#000000" stroke-width="8.27" stroke-linejoin="bevel" points="2656.86,1088.15 2656.86,853.525" />
<polyline class="Stem" fill="none" stroke="#000000" stroke-width="8.27" stroke-linejoin="bevel" points="5052.56,1170.83 5052.56,873.837" />
<polyline class="Stem" fill="none" stroke="#000000" stroke-width="8.27" stroke-linejoin="bevel" points="3263.85,1914.92 3263.85,1669.78" />
<polyline class="Stem" fill="none" stroke="#000000" stroke-width="8.27" stroke-linejoin="bevel" points="8954.27,1900.7 8954.27,2155.18" />
<polyline class="Stem" fill="none" stroke="#000000" stroke-width="8.27" stroke-linejoin="bevel" points="3514.18,1956.26 3514.18,1679.95" />
<polyline class="Stem" fill="none" stroke="#000000" stroke-width="8.27" stroke-linejoin="bevel" points="4633.69,1956.26 4633.69,1680.12" />
<polyline class="Stem" fill="none" stroke="#000000" stroke-width="8.27" stroke-linejoin="bevel" points="3764.5,2080.28 3764.5,1721.46" />
<polyline class="Stem" fill="none" stroke="#000000" stroke-width="8.27" stroke-linejoin="bevel" points="8177.36,1997.6 8177.36,1721.46" />
<polyline class="Stem" fill="none" stroke="#000000" stroke-width="8.27" stroke-linejoin="bevel" points="7927.04,1914.92 7927.04,1660.11" />
<polyline class="Stem" fill="none" stroke="#000000" stroke-width="8.27" stroke-linejoin="bevel" points="4014.82,1956.26 4014.82,1721.46" />
<polyline class="Stem" fill="none" stroke="#000000" stroke-width="8.27" stroke-linejoin="bevel" points="6807.53,2080.28 6807.53,1597.44" />
<polyline class="Stem" fill="none" stroke="#000000" stroke-width="8.27" stroke-linejoin="bevel" points="4265.14,1997.6 4265.14,1721.46" />
<polyline class="Stem" fill="none" stroke="#000000" stroke-width="8.27" stroke-linejoin="bevel" points="2892.08,1129.49 2892.08,863.681" />
<polyline class="Stem" fill="none" stroke="#000000" stroke-width="8.27" stroke-linejoin="bevel" points="7558.49,2038.94 7558.49,1741.96" />
<polyline class="Stem" fill="none" stroke="#000000" stroke-width="8.27" stroke-linejoin="bevel" points="4656.86,1294.84 4656.86,1019.36" />
<polyline class="Stem" fill="none" stroke="#000000" stroke-width="8.27" stroke-linejoin="bevel" points="7308.17,1997.6 7308.17,1731.79" />
<polyline class="Stem" fill="none" stroke="#000000" stroke-width="8.27" stroke-linejoin="bevel" points="7057.85,1956.26 7057.85,1721.62" />
<polyline class="Stem" fill="none" stroke="#000000" stroke-width="8.27" stroke-linejoin="bevel" points="5758.22,1129.49 5758.22,853.346" />
<path class="Hook" d="M4652.72,1093.84 C4652.72,1094.83 4653.05,1096.49 4655.37,1097.48 C4669.6,1102.11 4698.07,1119.99 4719.58,1156.73 C4725.54,1166.99 4735.14,1181.22 4735.14,1208.69 C4735.14,1232.53 4728.85,1257.02 4720.25,1280.85 C4719.58,1282.84 4718.92,1284.49 4719.25,1285.82 C4719.25,1287.8 4720.58,1289.13 4722.56,1289.13 C4724.88,1289.13 4726.53,1287.8 4727.86,1285.49 C4742.75,1259.01 4748.38,1228.22 4748.38,1198.1 C4746.73,1155.4 4722.23,1123.96 4722.23,1123.96 C4723.22,1123.96 4691.78,1083.25 4682.84,1069.34 C4670.6,1050.48 4664.97,1031.61 4664.31,1030.29 C4663.98,1029.29 4661,1017.38 4661,1017.38 C4660.67,1016.05 4659.01,1014.73 4657.02,1014.73 C4654.71,1014.73 4652.72,1016.71 4652.72,1019.03 L4652.72,1093.84 "/>
<path class="Hook" d="M7922.91,1734.59 C7922.91,1735.58 7923.24,1737.23 7925.55,1738.23 C7939.79,1742.86 7968.25,1760.73 7989.77,1797.48 C7995.73,1807.74 8005.33,1821.97 8005.33,1849.44 C8005.33,1873.27 7999.04,1897.77 7990.43,1921.6 C7989.77,1923.59 7989.11,1925.24 7989.44,1926.57 C7989.44,1928.55 7990.76,1929.88 7992.75,1929.88 C7995.06,1929.88 7996.72,1928.55 7998.04,1926.23 C8012.94,1899.75 8018.57,1868.97 8018.57,1838.85 C8016.91,1796.15 7992.42,1764.71 7992.42,1764.71 C7993.41,1764.71 7961.96,1723.99 7953.03,1710.09 C7940.78,1691.22 7935.15,1672.36 7934.49,1671.03 C7934.16,1670.04 7931.18,1658.12 7931.18,1658.12 C7930.85,1656.8 7929.2,1655.48 7927.21,1655.48 C7924.89,1655.48 7922.91,1657.46 7922.91,1659.78 L7922.91,1734.59 "/>
<path class="Hook" d="M8950.14,2155.18 C8950.14,2157.5 8952.12,2159.48 8954.44,2159.48 C8956.1,2159.48 8958.08,2158.16 8958.41,2156.84 C8958.41,2156.5 8961.39,2144.92 8961.72,2143.93 C8962.05,2142.6 8965.03,2130.02 8976.95,2110.5 C8989.86,2088.98 9009.72,2073.42 9026.27,2050.25 C9042.49,2027.08 9052.42,2005.24 9052.42,1976.11 C9052.42,1945.99 9045.47,1920.83 9027.92,1888.73 C9026.93,1886.41 9024.94,1885.08 9022.96,1885.08 C9022.3,1885.08 9021.63,1885.08 9021.3,1885.42 C9019.65,1886.08 9018.99,1887.4 9018.99,1889.39 C9018.99,1890.38 9019.32,1892.04 9019.98,1893.36 C9033.22,1924.14 9038.52,1941.69 9038.52,1965.52 C9038.52,1992.99 9028.92,2007.22 9022.96,2017.48 C9001.44,2054.23 8966.69,2072.1 8952.79,2076.73 C8950.47,2077.73 8950.14,2079.38 8950.14,2080.37 L8950.14,2155.18 "/>
<path class="Hook" d="M2541.64,2093.17 C2541.64,2095.49 2543.62,2097.48 2545.94,2097.48 C2547.6,2097.48 2549.58,2096.15 2549.91,2094.83 C2549.91,2094.5 2552.89,2082.91 2553.22,2081.92 C2553.55,2080.59 2556.53,2068.02 2568.45,2048.49 C2581.36,2026.97 2601.22,2011.42 2617.77,1988.25 C2633.99,1965.08 2643.92,1943.23 2643.92,1914.1 C2643.92,1883.98 2636.97,1858.82 2619.42,1826.72 C2618.43,1824.4 2616.44,1823.08 2614.46,1823.08 C2613.8,1823.08 2613.13,1823.08 2612.8,1823.41 C2611.15,1824.07 2610.49,1825.39 2610.49,1827.38 C2610.49,1828.37 2610.82,1830.03 2611.48,1831.35 C2624.72,1862.13 2630.01,1879.68 2630.01,1903.51 C2630.01,1930.98 2620.42,1945.22 2614.46,1955.48 C2592.94,1992.22 2558.19,2010.09 2544.29,2014.73 C2541.97,2015.72 2541.64,2017.37 2541.64,2018.37 L2541.64,2093.17 "/>
<path class="Hook" d="M3691.53,2961.28 C3691.53,2963.6 3693.52,2965.59 3695.84,2965.59 C3697.49,2965.59 3699.48,2964.26 3699.81,2962.94 C3699.81,2962.61 3702.79,2951.02 3703.12,2950.03 C3703.45,2948.7 3706.43,2936.13 3718.34,2916.6 C3731.25,2895.08 3751.11,2879.53 3767.66,2856.36 C3783.88,2833.19 3793.81,2811.34 3793.81,2782.21 C3793.81,2752.09 3786.86,2726.93 3769.32,2694.83 C3768.32,2692.51 3766.34,2691.19 3764.35,2691.19 C3763.69,2691.19 3763.03,2691.19 3762.7,2691.52 C3761.04,2692.18 3760.38,2693.5 3760.38,2695.49 C3760.38,2696.48 3760.71,2698.14 3761.37,2699.46 C3774.61,2730.24 3779.91,2747.79 3779.91,2771.62 C3779.91,2799.09 3770.31,2813.33 3764.35,2823.59 C3742.84,2860.33 3708.08,2878.2 3694.18,2882.84 C3691.86,2883.83 3691.53,2885.48 3691.53,2886.48 L3691.53,2961.28 "/>
<path class="Hook" d="M5751.55,2155.18 C5751.55,2157.5 5753.54,2159.48 5755.85,2159.48 C5757.51,2159.48 5759.49,2158.16 5759.83,2156.84 C5759.83,2156.5 5762.8,2144.92 5763.14,2143.93 C5763.47,2142.6 5766.45,2130.02 5778.36,2110.5 C5791.27,2088.98 5811.13,2073.42 5827.68,2050.25 C5843.9,2027.08 5853.83,2005.24 5853.83,1976.11 C5853.83,1945.99 5846.88,1920.83 5829.34,1888.73 C5828.34,1886.41 5826.36,1885.08 5824.37,1885.08 C5823.71,1885.08 5823.05,1885.08 5822.72,1885.42 C5821.06,1886.08 5820.4,1887.4 5820.4,1889.39 C5820.4,1890.38 5820.73,1892.04 5821.39,1893.36 C5834.63,1924.14 5839.93,1941.69 5839.93,1965.52 C5839.93,1992.99 5830.33,2007.22 5824.37,2017.48 C5802.86,2054.23 5768.1,2072.1 5754.2,2076.73 C5751.88,2077.73 5751.55,2079.38 5751.55,2080.37 L5751.55,2155.18 "/>
<path class="Hook" d="M1498.11,1287.07 C1498.11,1289.39 1500.1,1291.37 1502.42,1291.37 C1504.07,1291.37 1506.06,1290.05 1506.39,1288.73 C1506.39,1288.39 1509.37,1276.81 1509.7,1275.82 C1510.03,1274.49 1513.01,1261.91 1524.93,1242.39 C1537.83,1220.87 1557.69,1205.31 1574.24,1182.14 C1590.46,1158.97 1600.39,1137.13 1600.39,1108 C1600.39,1077.88 1593.44,1052.72 1575.9,1020.62 C1574.91,1018.3 1572.92,1016.97 1570.93,1016.97 C1570.27,1016.97 1569.61,1016.97 1569.28,1017.31 C1567.62,1017.97 1566.96,1019.29 1566.96,1021.28 C1566.96,1022.27 1567.29,1023.93 1567.96,1025.25 C1581.2,1056.03 1586.49,1073.58 1586.49,1097.41 C1586.49,1124.88 1576.89,1139.11 1570.93,1149.37 C1549.42,1186.12 1514.66,1203.99 1500.76,1208.62 C1498.45,1209.62 1498.11,1211.27 1498.11,1212.26 L1498.11,1287.07 "/>
<path class="Hook" d="M7278.87,1287.07 C7278.87,1289.39 7280.86,1291.37 7283.17,1291.37 C7284.83,1291.37 7286.82,1290.05 7287.15,1288.73 C7287.15,1288.39 7290.13,1276.81 7290.46,1275.82 C7290.79,1274.49 7293.77,1261.91 7305.68,1242.39 C7318.59,1220.87 7338.45,1205.31 7355,1182.14 C7371.22,1158.97 7381.15,1137.13 7381.15,1108 C7381.15,1077.88 7374.2,1052.72 7356.66,1020.62 C7355.66,1018.3 7353.68,1016.97 7351.69,1016.97 C7351.03,1016.97 7350.37,1016.97 7350.04,1017.31 C7348.38,1017.97 7347.72,1019.29 7347.72,1021.28 C7347.72,1022.27 7348.05,1023.93 7348.71,1025.25 C7361.95,1056.03 7367.25,1073.58 7367.25,1097.41 C7367.25,1124.88 7357.65,1139.11 7351.69,1149.37 C7330.18,1186.12 7295.42,1203.99 7281.52,1208.62 C7279.2,1209.62 7278.87,1211.27 7278.87,1212.26 L7278.87,1287.07 "/>
<path class="Hook" d="M6407.96,2981.95 C6407.96,2984.27 6409.95,2986.26 6412.27,2986.26 C6413.92,2986.26 6415.91,2984.93 6416.24,2983.61 C6416.24,2983.28 6419.22,2971.69 6419.55,2970.7 C6419.88,2969.37 6422.86,2956.8 6434.78,2937.27 C6447.68,2915.75 6467.54,2900.2 6484.09,2877.03 C6500.31,2853.86 6510.24,2832.01 6510.24,2802.88 C6510.24,2772.76 6503.29,2747.6 6485.75,2715.5 C6484.76,2713.18 6482.77,2711.86 6480.78,2711.86 C6480.12,2711.86 6479.46,2711.86 6479.13,2712.19 C6477.47,2712.85 6476.81,2714.17 6476.81,2716.16 C6476.81,2717.15 6477.14,2718.81 6477.81,2720.13 C6491.05,2750.91 6496.34,2768.46 6496.34,2792.29 C6496.34,2819.76 6486.74,2834 6480.78,2844.26 C6459.27,2881 6424.51,2898.87 6410.61,2903.51 C6408.3,2904.5 6407.96,2906.15 6407.96,2907.15 L6407.96,2981.95 "/>
<path class="Note" d="M6453.86,1818.04 C6453.86,1832.27 6464.12,1848.16 6490.93,1848.16 C6525.36,1848.16 6561.44,1820.02 6561.44,1790.89 C6561.44,1771.36 6544.89,1760.44 6524.36,1760.44 C6492.26,1760.44 6453.86,1787.58 6453.86,1818.04"/>
<path class="Note" d="M1847.85,1032.6 C1847.85,1046.84 1858.11,1062.72 1884.92,1062.72 C1919.35,1062.72 1955.43,1034.59 1955.43,1005.46 C1955.43,985.932 1938.88,975.009 1918.36,975.009 C1886.25,975.009 1847.85,1002.15 1847.85,1032.6"/>
<path class="Note" d="M6120.1,1900.71 C6120.1,1914.95 6130.36,1930.83 6157.17,1930.83 C6191.6,1930.83 6227.67,1902.7 6227.67,1873.57 C6227.67,1854.04 6211.12,1843.12 6190.6,1843.12 C6158.5,1843.12 6120.1,1870.26 6120.1,1900.71"/>
<path class="Note" d="M4553.51,1321.97 C4553.51,1336.21 4563.77,1352.09 4590.58,1352.09 C4625.01,1352.09 4661.08,1323.96 4661.08,1294.83 C4661.08,1275.3 4644.53,1264.38 4624.01,1264.38 C4591.91,1264.38 4553.51,1291.52 4553.51,1321.97"/>
<path class="Note" d="M5751.55,1900.71 C5751.55,1914.95 5761.81,1930.83 5788.62,1930.83 C5823.05,1930.83 5859.13,1902.7 5859.13,1873.57 C5859.13,1854.04 5842.58,1843.12 5822.05,1843.12 C5789.95,1843.12 5751.55,1870.26 5751.55,1900.71"/>
<path class="Note" d="M6286.98,1859.37 C6286.98,1873.61 6297.24,1889.5 6324.05,1889.5 C6358.48,1889.5 6394.56,1861.36 6394.56,1832.23 C6394.56,1812.7 6378.01,1801.78 6357.48,1801.78 C6325.38,1801.78 6286.98,1828.92 6286.98,1859.37"/>
<path class="Note" d="M3023.96,1197.96 C3023.96,1212.19 3034.22,1228.08 3061.03,1228.08 C3095.45,1228.08 3131.53,1199.94 3131.53,1170.81 C3131.53,1151.29 3114.98,1140.36 3094.46,1140.36 C3062.35,1140.36 3023.96,1167.5 3023.96,1197.96"/>
<path class="Note" d="M4949.21,1197.96 C4949.21,1212.19 4959.48,1228.08 4986.29,1228.08 C5020.71,1228.08 5056.79,1199.94 5056.79,1170.81 C5056.79,1151.29 5040.24,1140.36 5019.72,1140.36 C4987.61,1140.36 4949.21,1167.5 4949.21,1197.96"/>
<path class="Note" d="M4905.82,1983.39 C4905.82,1997.62 4916.08,2013.51 4942.89,2013.51 C4977.32,2013.51 5013.4,1985.38 5013.4,1956.25 C5013.4,1936.72 4996.85,1925.8 4976.33,1925.8 C4944.22,1925.8 4905.82,1952.94 4905.82,1983.39"/>
<path class="Note" d="M6704.18,2107.41 C6704.18,2121.64 6714.44,2137.53 6741.25,2137.53 C6775.68,2137.53 6811.76,2109.39 6811.76,2080.26 C6811.76,2060.73 6795.21,2049.81 6774.68,2049.81 C6742.58,2049.81 6704.18,2076.95 6704.18,2107.41"/>
<path class="Note" d="M4530.34,1983.39 C4530.34,1997.62 4540.6,2013.51 4567.41,2013.51 C4601.84,2013.51 4637.92,1985.38 4637.92,1956.25 C4637.92,1936.72 4621.37,1925.8 4600.84,1925.8 C4568.74,1925.8 4530.34,1952.94 4530.34,1983.39"/>
<path class="Note" d="M6954.5,1983.39 C6954.5,1997.62 6964.76,2013.51 6991.57,2013.51 C7026,2013.51 7062.08,1985.38 7062.08,1956.25 C7062.08,1936.72 7045.53,1925.8 7025.01,1925.8 C6992.9,1925.8 6954.5,1952.94 6954.5,1983.39"/>
<path class="Note" d="M8671.03,2934.18 C8671.03,2948.41 8681.29,2964.3 8708.1,2964.3 C8742.53,2964.3 8778.61,2936.16 8778.61,2907.04 C8778.61,2887.51 8762.06,2876.58 8741.53,2876.58 C8709.43,2876.58 8671.03,2903.73 8671.03,2934.18"/>
<path class="Note" d="M3377.41,1321.97 C3377.41,1336.21 3387.67,1352.09 3414.48,1352.09 C3448.9,1352.09 3484.98,1323.96 3484.98,1294.83 C3484.98,1275.3 3468.43,1264.38 3447.91,1264.38 C3415.8,1264.38 3377.41,1291.52 3377.41,1321.97"/>
<path class="Note" d="M7204.82,2024.73 C7204.82,2038.96 7215.08,2054.85 7241.9,2054.85 C7276.32,2054.85 7312.4,2026.71 7312.4,1997.59 C7312.4,1978.06 7295.85,1967.13 7275.33,1967.13 C7243.22,1967.13 7204.82,1994.28 7204.82,2024.73"/>
<path class="Note" d="M8313.39,2934.18 C8313.39,2948.41 8323.65,2964.3 8350.47,2964.3 C8384.89,2964.3 8420.97,2936.16 8420.97,2907.04 C8420.97,2887.51 8404.42,2876.58 8383.9,2876.58 C8351.79,2876.58 8313.39,2903.73 8313.39,2934.18"/>
<path class="Note" d="M7455.14,2066.07 C7455.14,2080.3 7465.41,2096.19 7492.22,2096.19 C7526.64,2096.19 7562.72,2068.05 7562.72,2038.93 C7562.72,2019.4 7546.17,2008.47 7525.65,2008.47 C7493.54,2008.47 7455.14,2035.62 7455.14,2066.07"/>
<path class="Note" d="M4161.79,2024.73 C4161.79,2038.96 4172.05,2054.85 4198.86,2054.85 C4233.29,2054.85 4269.37,2026.71 4269.37,1997.59 C4269.37,1978.06 4252.82,1967.13 4232.29,1967.13 C4200.19,1967.13 4161.79,1994.28 4161.79,2024.73"/>
<path class="Note" d="M5184.43,1156.62 C5184.43,1170.85 5194.7,1186.74 5221.51,1186.74 C5255.93,1186.74 5292.01,1158.6 5292.01,1129.48 C5292.01,1109.95 5275.46,1099.02 5254.94,1099.02 C5222.83,1099.02 5184.43,1126.17 5184.43,1156.62"/>
<path class="Note" d="M3911.47,1983.39 C3911.47,1997.62 3921.73,2013.51 3948.54,2013.51 C3982.97,2013.51 4019.05,1985.38 4019.05,1956.25 C4019.05,1936.72 4002.5,1925.8 3981.97,1925.8 C3949.87,1925.8 3911.47,1952.94 3911.47,1983.39"/>
<path class="Note" d="M5419.66,1115.28 C5419.66,1129.51 5429.92,1145.4 5456.73,1145.4 C5491.15,1145.4 5527.23,1117.27 5527.23,1088.14 C5527.23,1068.61 5510.68,1057.69 5490.16,1057.69 C5458.05,1057.69 5419.66,1084.83 5419.66,1115.28"/>
<path class="Note" d="M7823.69,1942.05 C7823.69,1956.28 7833.96,1972.17 7860.77,1972.17 C7895.19,1972.17 7931.27,1944.04 7931.27,1914.91 C7931.27,1895.38 7914.72,1884.46 7894.2,1884.46 C7862.09,1884.46 7823.69,1911.6 7823.69,1942.05"/>
<path class="Note" d="M3661.15,2107.41 C3661.15,2121.64 3671.41,2137.53 3698.22,2137.53 C3732.65,2137.53 3768.72,2109.39 3768.72,2080.26 C3768.72,2060.73 3752.17,2049.81 3731.65,2049.81 C3699.55,2049.81 3661.15,2076.95 3661.15,2107.41"/>
<path class="Note" d="M8074.02,2024.73 C8074.02,2038.96 8084.28,2054.85 8111.09,2054.85 C8145.51,2054.85 8181.59,2026.71 8181.59,1997.59 C8181.59,1978.06 8165.04,1967.13 8144.52,1967.13 C8112.41,1967.13 8074.02,1994.28 8074.02,2024.73"/>
<path class="Note" d="M7956.74,2934.18 C7956.74,2948.41 7967,2964.3 7993.81,2964.3 C8028.24,2964.3 8064.32,2936.16 8064.32,2907.04 C8064.32,2887.51 8047.77,2876.58 8027.24,2876.58 C7995.14,2876.58 7956.74,2903.73 7956.74,2934.18"/>
<path class="Note" d="M5654.88,1156.62 C5654.88,1170.85 5665.14,1186.74 5691.95,1186.74 C5726.37,1186.74 5762.45,1158.6 5762.45,1129.48 C5762.45,1109.95 5745.9,1099.02 5725.38,1099.02 C5693.27,1099.02 5654.88,1126.17 5654.88,1156.62"/>
<path class="Note" d="M3410.83,1983.39 C3410.83,1997.62 3421.09,2013.51 3447.9,2013.51 C3482.32,2013.51 3518.4,1985.38 3518.4,1956.25 C3518.4,1936.72 3501.85,1925.8 3481.33,1925.8 C3449.22,1925.8 3410.83,1952.94 3410.83,1983.39"/>
<path class="Note" d="M3160.51,1942.05 C3160.51,1956.28 3170.77,1972.17 3197.58,1972.17 C3232,1972.17 3268.08,1944.04 3268.08,1914.91 C3268.08,1895.38 3251.53,1884.46 3231.01,1884.46 C3198.9,1884.46 3160.51,1911.6 3160.51,1942.05"/>
<path class="Note" d="M8950.14,1900.71 C8950.14,1914.95 8960.4,1930.83 8987.21,1930.83 C9021.63,1930.83 9057.71,1902.7 9057.71,1873.57 C9057.71,1854.04 9041.16,1843.12 9020.64,1843.12 C8988.53,1843.12 8950.14,1870.26 8950.14,1900.71"/>
<path class="Note" d="M2553.52,1115.28 C2553.52,1129.51 2563.78,1145.4 2590.59,1145.4 C2625.01,1145.4 2661.09,1117.27 2661.09,1088.14 C2661.09,1068.61 2644.54,1057.69 2624.02,1057.69 C2591.91,1057.69 2553.52,1084.83 2553.52,1115.28"/>
<path class="Note" d="M7718.32,2892.84 C7718.32,2907.07 7728.58,2922.96 7755.39,2922.96 C7789.81,2922.96 7825.89,2894.82 7825.89,2865.7 C7825.89,2846.17 7809.34,2835.24 7788.82,2835.24 C7756.71,2835.24 7718.32,2862.39 7718.32,2892.84"/>
<path class="Note" d="M2910.19,1900.71 C2910.19,1914.95 2920.45,1930.83 2947.26,1930.83 C2981.68,1930.83 3017.76,1902.7 3017.76,1873.57 C3017.76,1854.04 3001.21,1843.12 2980.69,1843.12 C2948.58,1843.12 2910.19,1870.26 2910.19,1900.71"/>
<path class="Note" d="M2318.29,1115.28 C2318.29,1129.51 2328.56,1145.4 2355.37,1145.4 C2389.79,1145.4 2425.87,1117.27 2425.87,1088.14 C2425.87,1068.61 2409.32,1057.69 2388.8,1057.69 C2356.69,1057.69 2318.29,1084.83 2318.29,1115.28"/>
<path class="Note" d="M7479.89,2851.5 C7479.89,2865.73 7490.15,2881.62 7516.96,2881.62 C7551.39,2881.62 7587.47,2853.49 7587.47,2824.36 C7587.47,2804.83 7570.92,2793.91 7550.39,2793.91 C7518.29,2793.91 7479.89,2821.05 7479.89,2851.5"/>
<path class="Note" d="M5890.1,1115.28 C5890.1,1129.51 5900.36,1145.4 5927.17,1145.4 C5961.59,1145.4 5997.67,1117.27 5997.67,1088.14 C5997.67,1068.61 5981.12,1057.69 5960.6,1057.69 C5928.49,1057.69 5890.1,1084.83 5890.1,1115.28"/>
<path class="Note" d="M2541.64,1818.04 C2541.64,1832.27 2551.9,1848.16 2578.71,1848.16 C2613.13,1848.16 2649.21,1820.02 2649.21,1790.89 C2649.21,1771.36 2632.66,1760.44 2612.14,1760.44 C2580.03,1760.44 2541.64,1787.58 2541.64,1818.04"/>
<path class="Note" d="M1331.75,2727.48 C1331.75,2741.72 1342.01,2757.61 1368.82,2757.61 C1403.25,2757.61 1439.33,2729.47 1439.33,2700.34 C1439.33,2680.81 1422.78,2669.89 1402.26,2669.89 C1370.15,2669.89 1331.75,2697.03 1331.75,2727.48"/>
<path class="Note" d="M7241.47,2851.5 C7241.47,2865.73 7251.73,2881.62 7278.54,2881.62 C7312.96,2881.62 7349.04,2853.49 7349.04,2824.36 C7349.04,2804.83 7332.49,2793.91 7311.97,2793.91 C7279.86,2793.91 7241.47,2821.05 7241.47,2851.5"/>
<path class="Note" d="M6125.32,1197.96 C6125.32,1212.19 6135.58,1228.08 6162.39,1228.08 C6196.81,1228.08 6232.89,1199.94 6232.89,1170.81 C6232.89,1151.29 6216.34,1140.36 6195.82,1140.36 C6163.71,1140.36 6125.32,1167.5 6125.32,1197.96"/>
<path class="Note" d="M1570.18,2768.82 C1570.18,2783.06 1580.44,2798.94 1607.25,2798.94 C1641.67,2798.94 1677.75,2770.81 1677.75,2741.68 C1677.75,2722.15 1661.2,2711.23 1640.68,2711.23 C1608.57,2711.23 1570.18,2738.37 1570.18,2768.82"/>
<path class="Note" d="M7003.04,2810.16 C7003.04,2824.39 7013.3,2840.28 7040.11,2840.28 C7074.54,2840.28 7110.62,2812.15 7110.62,2783.02 C7110.62,2763.49 7094.07,2752.57 7073.54,2752.57 C7041.44,2752.57 7003.04,2779.71 7003.04,2810.16"/>
<path class="Note" d="M1808.6,2727.48 C1808.6,2741.72 1818.86,2757.61 1845.67,2757.61 C1880.1,2757.61 1916.18,2729.47 1916.18,2700.34 C1916.18,2680.81 1899.63,2669.89 1879.11,2669.89 C1847,2669.89 1808.6,2697.03 1808.6,2727.48"/>
<path class="Note" d="M1665.51,2107.41 C1665.51,2121.64 1675.78,2137.53 1702.59,2137.53 C1737.01,2137.53 1773.09,2109.39 1773.09,2080.26 C1773.09,2060.73 1756.54,2049.81 1736.02,2049.81 C1703.91,2049.81 1665.51,2076.95 1665.51,2107.41"/>
<path class="Note" d="M2047.03,2810.16 C2047.03,2824.39 2057.29,2840.28 2084.1,2840.28 C2118.52,2840.28 2154.6,2812.15 2154.6,2783.02 C2154.6,2763.49 2138.05,2752.57 2117.53,2752.57 C2085.42,2752.57 2047.03,2779.71 2047.03,2810.16"/>
<path class="Note" d="M6764.62,2768.82 C6764.62,2783.06 6774.88,2798.94 6801.69,2798.94 C6836.11,2798.94 6872.19,2770.81 6872.19,2741.68 C6872.19,2722.15 6855.64,2711.23 6835.12,2711.23 C6803.01,2711.23 6764.62,2738.37 6764.62,2768.82"/>
<path class="Note" d="M1498.63,2066.07 C1498.63,2080.3 1508.89,2096.19 1535.71,2096.19 C1570.13,2096.19 1606.21,2068.05 1606.21,2038.93 C1606.21,2019.4 1589.66,2008.47 1569.14,2008.47 C1537.03,2008.47 1498.63,2035.62 1498.63,2066.07"/>
<path class="Note" d="M2285.45,2851.5 C2285.45,2865.73 2295.71,2881.62 2322.52,2881.62 C2356.95,2881.62 2393.03,2853.49 2393.03,2824.36 C2393.03,2804.83 2376.48,2793.91 2355.95,2793.91 C2323.85,2793.91 2285.45,2821.05 2285.45,2851.5"/>
<path class="Note" d="M6478.77,1032.6 C6478.77,1046.84 6489.03,1062.72 6515.84,1062.72 C6550.26,1062.72 6586.34,1034.59 6586.34,1005.46 C6586.34,985.932 6569.79,975.009 6549.27,975.009 C6517.16,975.009 6478.77,1002.15 6478.77,1032.6"/>
<path class="Note" d="M2523.88,2810.16 C2523.88,2824.39 2534.14,2840.28 2560.95,2840.28 C2595.37,2840.28 2631.45,2812.15 2631.45,2783.02 C2631.45,2763.49 2614.9,2752.57 2594.38,2752.57 C2562.27,2752.57 2523.88,2779.71 2523.88,2810.16"/>
<path class="Note" d="M1331.75,2024.73 C1331.75,2038.96 1342.01,2054.85 1368.82,2054.85 C1403.25,2054.85 1439.33,2026.71 1439.33,1997.59 C1439.33,1978.06 1422.78,1967.13 1402.26,1967.13 C1370.15,1967.13 1331.75,1994.28 1331.75,2024.73"/>
<path class="Note" d="M2083.07,1073.94 C2083.07,1088.17 2093.33,1104.06 2120.15,1104.06 C2154.57,1104.06 2190.65,1075.93 2190.65,1046.8 C2190.65,1027.27 2174.1,1016.35 2153.58,1016.35 C2121.47,1016.35 2083.07,1043.49 2083.07,1073.94"/>
<path class="Note" d="M1498.11,1032.6 C1498.11,1046.84 1508.38,1062.72 1535.19,1062.72 C1569.61,1062.72 1605.69,1034.59 1605.69,1005.46 C1605.69,985.932 1589.14,975.009 1568.62,975.009 C1536.51,975.009 1498.11,1002.15 1498.11,1032.6"/>
<path class="Note" d="M2880.53,2892.84 C2880.53,2907.07 2890.79,2922.96 2917.6,2922.96 C2952.02,2922.96 2988.1,2894.82 2988.1,2865.7 C2988.1,2846.17 2971.55,2835.24 2951.03,2835.24 C2918.92,2835.24 2880.53,2862.39 2880.53,2892.84"/>
<path class="Note" d="M6407.96,2727.48 C6407.96,2741.72 6418.23,2757.61 6445.04,2757.61 C6479.46,2757.61 6515.54,2729.47 6515.54,2700.34 C6515.54,2680.81 6498.99,2669.89 6478.47,2669.89 C6446.36,2669.89 6407.96,2697.03 6407.96,2727.48"/>
<path class="Note" d="M3238.17,2892.84 C3238.17,2907.07 3248.43,2922.96 3275.24,2922.96 C3309.66,2922.96 3345.74,2894.82 3345.74,2865.7 C3345.74,2846.17 3329.19,2835.24 3308.67,2835.24 C3276.56,2835.24 3238.17,2862.39 3238.17,2892.84"/>
<path class="Note" d="M6831.6,1032.6 C6831.6,1046.84 6841.86,1062.72 6868.67,1062.72 C6903.09,1062.72 6939.17,1034.59 6939.17,1005.46 C6939.17,985.932 6922.62,975.009 6902.1,975.009 C6869.99,975.009 6831.6,1002.15 6831.6,1032.6"/>
<path class="Note" d="M3612.63,1363.31 C3612.63,1377.54 3622.89,1393.43 3649.7,1393.43 C3684.12,1393.43 3720.2,1365.3 3720.2,1336.17 C3720.2,1316.64 3703.65,1305.72 3683.13,1305.72 C3651.02,1305.72 3612.63,1332.86 3612.63,1363.31"/>
<path class="Note" d="M8965.24,1115.28 C8965.24,1129.51 8975.5,1145.4 9002.31,1145.4 C9036.73,1145.4 9072.81,1117.27 9072.81,1088.14 C9072.81,1068.61 9056.26,1057.69 9035.74,1057.69 C9003.63,1057.69 8965.24,1084.83 8965.24,1115.28"/>
<path class="Note" d="M3691.53,2686.15 C3691.53,2700.38 3701.79,2716.27 3728.6,2716.27 C3763.03,2716.27 3799.11,2688.13 3799.11,2659 C3799.11,2639.47 3782.56,2628.55 3762.04,2628.55 C3729.93,2628.55 3691.53,2655.69 3691.53,2686.15"/>
<path class="Note" d="M8730.02,1073.94 C8730.02,1088.17 8740.28,1104.06 8767.09,1104.06 C8801.51,1104.06 8837.59,1075.93 8837.59,1046.8 C8837.59,1027.27 8821.04,1016.35 8800.52,1016.35 C8768.41,1016.35 8730.02,1043.49 8730.02,1073.94"/>
<path class="Note" d="M8573.2,1032.6 C8573.2,1046.84 8583.47,1062.72 8610.28,1062.72 C8644.7,1062.72 8680.78,1034.59 8680.78,1005.46 C8680.78,985.932 8664.23,975.009 8643.71,975.009 C8611.6,975.009 8573.2,1002.15 8573.2,1032.6"/>
<path class="Note" d="M5954.6,2810.16 C5954.6,2824.39 5964.86,2840.28 5991.67,2840.28 C6026.09,2840.28 6062.17,2812.15 6062.17,2783.02 C6062.17,2763.49 6045.62,2752.57 6025.1,2752.57 C5992.99,2752.57 5954.6,2779.71 5954.6,2810.16"/>
<path class="Note" d="M7278.87,1032.6 C7278.87,1046.84 7289.13,1062.72 7315.94,1062.72 C7350.37,1062.72 7386.45,1034.59 7386.45,1005.46 C7386.45,985.932 7369.9,975.009 7349.37,975.009 C7317.27,975.009 7278.87,1002.15 7278.87,1032.6"/>
<path class="Note" d="M4048.19,2644.81 C4048.19,2659.04 4058.45,2674.93 4085.26,2674.93 C4119.68,2674.93 4155.76,2646.79 4155.76,2617.67 C4155.76,2598.14 4139.21,2587.21 4118.69,2587.21 C4086.58,2587.21 4048.19,2614.36 4048.19,2644.81"/>
<path class="Note" d="M5596.96,2810.16 C5596.96,2824.39 5607.22,2840.28 5634.03,2840.28 C5668.46,2840.28 5704.54,2812.15 5704.54,2783.02 C5704.54,2763.49 5687.99,2752.57 5667.46,2752.57 C5635.36,2752.57 5596.96,2779.71 5596.96,2810.16"/>
<path class="Note" d="M8416.39,991.264 C8416.39,1005.5 8426.65,1021.38 8453.46,1021.38 C8487.89,1021.38 8523.97,993.25 8523.97,964.122 C8523.97,944.593 8507.42,933.67 8486.89,933.67 C8454.79,933.67 8416.39,960.812 8416.39,991.264"/>
<path class="Note" d="M4286.61,2686.15 C4286.61,2700.38 4296.87,2716.27 4323.68,2716.27 C4358.11,2716.27 4394.18,2688.13 4394.18,2659 C4394.18,2639.47 4377.63,2628.55 4357.11,2628.55 C4325.01,2628.55 4286.61,2655.69 4286.61,2686.15"/>
<path class="Note" d="M8181.17,949.925 C8181.17,964.158 8191.43,980.046 8218.24,980.046 C8252.67,980.046 8288.74,951.911 8288.74,922.783 C8288.74,903.254 8272.19,892.331 8251.67,892.331 C8219.57,892.331 8181.17,919.473 8181.17,949.925"/>
<path class="Note" d="M4525.03,2644.81 C4525.03,2659.04 4535.3,2674.93 4562.11,2674.93 C4596.53,2674.93 4632.61,2646.79 4632.61,2617.67 C4632.61,2598.14 4616.06,2587.21 4595.54,2587.21 C4563.43,2587.21 4525.03,2614.36 4525.03,2644.81"/>
<path class="Note" d="M7945.95,908.587 C7945.95,922.82 7956.21,938.708 7983.02,938.708 C8017.44,938.708 8053.52,910.573 8053.52,881.445 C8053.52,861.916 8036.97,850.993 8016.45,850.993 C7984.34,850.993 7945.95,878.135 7945.95,908.587"/>
<path class="Note" d="M4763.46,2727.48 C4763.46,2741.72 4773.72,2757.61 4800.53,2757.61 C4834.95,2757.61 4871.03,2729.47 4871.03,2700.34 C4871.03,2680.81 4854.48,2669.89 4833.96,2669.89 C4801.85,2669.89 4763.46,2697.03 4763.46,2727.48"/>
<path class="Note" d="M3847.85,1321.97 C3847.85,1336.21 3858.11,1352.09 3884.92,1352.09 C3919.34,1352.09 3955.42,1323.96 3955.42,1294.83 C3955.42,1275.3 3938.87,1264.38 3918.35,1264.38 C3886.24,1264.38 3847.85,1291.52 3847.85,1321.97"/>
<path class="Note" d="M7789.13,949.925 C7789.13,964.158 7799.4,980.046 7826.21,980.046 C7860.63,980.046 7896.71,951.911 7896.71,922.783 C7896.71,903.254 7880.16,892.331 7859.64,892.331 C7827.53,892.331 7789.13,919.473 7789.13,949.925"/>
<path class="Note" d="M5001.88,2768.82 C5001.88,2783.06 5012.14,2798.94 5038.96,2798.94 C5073.38,2798.94 5109.46,2770.81 5109.46,2741.68 C5109.46,2722.15 5092.91,2711.23 5072.39,2711.23 C5040.28,2711.23 5001.88,2738.37 5001.88,2768.82"/>
<path class="Note" d="M7632.32,991.264 C7632.32,1005.5 7642.58,1021.38 7669.39,1021.38 C7703.82,1021.38 7739.9,993.25 7739.9,964.122 C7739.9,944.593 7723.35,933.67 7702.82,933.67 C7670.72,933.67 7632.32,960.812 7632.32,991.264"/>
<path class="Note" d="M5240.31,2727.48 C5240.31,2741.72 5250.57,2757.61 5277.38,2757.61 C5311.8,2757.61 5347.88,2729.47 5347.88,2700.34 C5347.88,2680.81 5331.33,2669.89 5310.81,2669.89 C5278.7,2669.89 5240.31,2697.03 5240.31,2727.48"/>
<path class="Note" d="M2788.74,1156.62 C2788.74,1170.85 2799,1186.74 2825.81,1186.74 C2860.23,1186.74 2896.31,1158.6 2896.31,1129.48 C2896.31,1109.95 2879.76,1099.02 2859.24,1099.02 C2827.13,1099.02 2788.74,1126.17 2788.74,1156.62"/>
<path class="Clef" d="M909.689,1169.56 C903.069,1170.89 896.78,1171.55 890.491,1171.55 C843.158,1171.55 802.776,1138.45 802.776,1088.47 C802.776,1048.09 831.242,1012.01 860.37,986.852 C865.997,981.887 871.293,977.253 876.258,972.288 C879.237,990.162 881.554,1005.72 883.871,1019.29 C853.75,1028.23 833.228,1060 833.228,1091.12 C833.228,1114.29 851.433,1146.06 877.913,1146.06 C880.561,1146.06 883.54,1144.74 883.54,1141.76 C883.54,1138.78 880.23,1137.13 876.258,1134.48 C863.349,1126.53 856.067,1117.93 856.067,1101.71 C856.067,1081.52 870.962,1065.3 890.491,1060.66 L909.689,1169.56 M880.561,829.296 C883.54,816.056 898.766,781.301 915.978,781.301 C920.943,781.301 928.887,797.52 928.887,820.359 C928.887,854.783 903.4,880.601 880.561,903.109 C878.575,889.869 876.92,876.96 876.92,863.058 C876.92,850.811 877.913,839.557 880.561,829.296 M956.691,1108.33 C956.691,1131.83 947.092,1155.99 923.591,1165.59 C916.64,1125.87 907.703,1073.24 905.386,1058.68 C935.176,1058.68 956.691,1078.87 956.691,1108.33 M811.051,1271.18 C811.051,1293.03 827.932,1321.82 872.617,1321.82 C888.174,1321.82 901.745,1317.85 913.661,1310.57 C931.535,1297.99 936.169,1276.15 936.169,1255.29 C936.169,1242.38 934.183,1227.49 930.873,1208.62 C929.88,1202 927.894,1192.07 925.908,1179.16 C958.346,1168.57 982.509,1134.81 982.509,1100.72 C982.509,1050.73 947.092,1016.97 898.766,1016.97 C895.456,997.113 892.146,977.584 889.167,959.048 C924.253,922.307 948.416,880.932 948.416,828.303 C948.416,798.182 939.148,773.688 933.852,761.772 C925.908,744.891 916.309,733.306 910.351,733.306 C908.034,733.306 897.773,737.278 886.85,750.187 C865.666,775.343 859.708,817.711 859.708,845.515 C859.708,863.389 861.363,879.608 866.99,916.68 C866.659,917.011 849.447,934.554 842.496,940.181 C812.375,968.316 770.669,1008.37 770.669,1074.57 C770.669,1136.46 824.622,1185.12 886.188,1185.12 C895.787,1185.12 904.724,1184.13 912.337,1182.8 C918.626,1214.58 922.267,1237.75 922.267,1255.29 C922.267,1289.72 904.724,1307.92 871.293,1307.92 C863.349,1307.92 856.398,1306.27 855.736,1306.27 C855.405,1305.94 854.743,1305.6 854.743,1305.27 C854.743,1304.61 855.405,1304.28 856.398,1303.95 C871.955,1301.63 887.512,1288.39 887.512,1267.21 C887.512,1249.33 873.941,1230.47 849.116,1230.47 C825.946,1230.47 811.051,1249.33 811.051,1271.18"/>
<path class="Clef" d="M909.689,2905.78 C903.069,2907.11 896.78,2907.77 890.491,2907.77 C843.158,2907.77 802.776,2874.67 802.776,2824.69 C802.776,2784.31 831.242,2748.23 860.37,2723.07 C865.997,2718.11 871.293,2713.47 876.258,2708.51 C879.237,2726.38 881.554,2741.94 883.871,2755.51 C853.75,2764.45 833.228,2796.22 833.228,2827.34 C833.228,2850.51 851.433,2882.28 877.913,2882.28 C880.561,2882.28 883.54,2880.96 883.54,2877.98 C883.54,2875 880.23,2873.35 876.258,2870.7 C863.349,2862.75 856.067,2854.15 856.067,2837.93 C856.067,2817.74 870.962,2801.52 890.491,2796.89 L909.689,2905.78 M880.561,2565.52 C883.54,2552.28 898.766,2517.52 915.978,2517.52 C920.943,2517.52 928.887,2533.74 928.887,2556.58 C928.887,2591 903.4,2616.82 880.561,2639.33 C878.575,2626.09 876.92,2613.18 876.92,2599.28 C876.92,2587.03 877.913,2575.78 880.561,2565.52 M956.691,2844.55 C956.691,2868.05 947.092,2892.21 923.591,2901.81 C916.64,2862.09 907.703,2809.46 905.386,2794.9 C935.176,2794.9 956.691,2815.09 956.691,2844.55 M811.051,3007.4 C811.051,3029.25 827.932,3058.04 872.617,3058.04 C888.174,3058.04 901.745,3054.07 913.661,3046.79 C931.535,3034.21 936.169,3012.37 936.169,2991.51 C936.169,2978.6 934.183,2963.71 930.873,2944.84 C929.88,2938.22 927.894,2928.29 925.908,2915.38 C958.346,2904.79 982.509,2871.03 982.509,2836.94 C982.509,2786.96 947.092,2753.19 898.766,2753.19 C895.456,2733.33 892.146,2713.8 889.167,2695.27 C924.253,2658.53 948.416,2617.15 948.416,2564.52 C948.416,2534.4 939.148,2509.91 933.852,2497.99 C925.908,2481.11 916.309,2469.53 910.351,2469.53 C908.034,2469.53 897.773,2473.5 886.85,2486.41 C865.666,2511.56 859.708,2553.93 859.708,2581.74 C859.708,2599.61 861.363,2615.83 866.99,2652.9 C866.659,2653.23 849.447,2670.77 842.496,2676.4 C812.375,2704.54 770.669,2744.59 770.669,2810.79 C770.669,2872.68 824.622,2921.34 886.188,2921.34 C895.787,2921.34 904.724,2920.35 912.337,2919.02 C918.626,2950.8 922.267,2973.97 922.267,2991.51 C922.267,3025.94 904.724,3044.14 871.293,3044.14 C863.349,3044.14 856.398,3042.49 855.736,3042.49 C855.405,3042.16 854.743,3041.83 854.743,3041.49 C854.743,3040.83 855.405,3040.5 856.398,3040.17 C871.955,3037.85 887.512,3024.61 887.512,3003.43 C887.512,2985.56 873.941,2966.69 849.116,2966.69 C825.946,2966.69 811.051,2985.56 811.051,3007.4"/>
<path class="Clef" d="M909.689,2037.67 C903.069,2039 896.78,2039.66 890.491,2039.66 C843.158,2039.66 802.776,2006.56 802.776,1956.58 C802.776,1916.2 831.242,1880.12 860.37,1854.96 C865.997,1850 871.293,1845.36 876.258,1840.4 C879.237,1858.27 881.554,1873.83 883.871,1887.4 C853.75,1896.34 833.228,1928.11 833.228,1959.23 C833.228,1982.4 851.433,2014.17 877.913,2014.17 C880.561,2014.17 883.54,2012.85 883.54,2009.87 C883.54,2006.89 880.23,2005.24 876.258,2002.59 C863.349,1994.64 856.067,1986.04 856.067,1969.82 C856.067,1949.63 870.962,1933.41 890.491,1928.77 L909.689,2037.67 M880.561,1697.41 C883.54,1684.17 898.766,1649.41 915.978,1649.41 C920.943,1649.41 928.887,1665.63 928.887,1688.47 C928.887,1722.89 903.4,1748.71 880.561,1771.22 C878.575,1757.98 876.92,1745.07 876.92,1731.17 C876.92,1718.92 877.913,1707.67 880.561,1697.41 M956.691,1976.44 C956.691,1999.94 947.092,2024.1 923.591,2033.7 C916.64,1993.98 907.703,1941.35 905.386,1926.79 C935.176,1926.79 956.691,1946.98 956.691,1976.44 M811.051,2139.29 C811.051,2161.14 827.932,2189.93 872.617,2189.93 C888.174,2189.93 901.745,2185.96 913.661,2178.68 C931.535,2166.1 936.169,2144.26 936.169,2123.4 C936.169,2110.49 934.183,2095.6 930.873,2076.73 C929.88,2070.11 927.894,2060.18 925.908,2047.27 C958.346,2036.68 982.509,2002.92 982.509,1968.83 C982.509,1918.84 947.092,1885.08 898.766,1885.08 C895.456,1865.22 892.146,1845.69 889.167,1827.16 C924.253,1790.42 948.416,1749.04 948.416,1696.41 C948.416,1666.29 939.148,1641.8 933.852,1629.88 C925.908,1613 916.309,1601.42 910.351,1601.42 C908.034,1601.42 897.773,1605.39 886.85,1618.3 C865.666,1643.45 859.708,1685.82 859.708,1713.62 C859.708,1731.5 861.363,1747.72 866.99,1784.79 C866.659,1785.12 849.447,1802.66 842.496,1808.29 C812.375,1836.43 770.669,1876.48 770.669,1942.68 C770.669,2004.57 824.622,2053.23 886.188,2053.23 C895.787,2053.23 904.724,2052.24 912.337,2050.91 C918.626,2082.69 922.267,2105.86 922.267,2123.4 C922.267,2157.83 904.724,2176.03 871.293,2176.03 C863.349,2176.03 856.398,2174.38 855.736,2174.38 C855.405,2174.05 854.743,2173.71 854.743,2173.38 C854.743,2172.72 855.405,2172.39 856.398,2172.06 C871.955,2169.74 887.512,2156.5 887.512,2135.32 C887.512,2117.44 873.941,2098.58 849.116,2098.58 C825.946,2098.58 811.051,2117.44 811.051,2139.29"/>
<path class="KeySig" d="M1070.17,828.852 L1099.63,822.894 L1099.63,877.509 L1070.17,883.798 L1070.17,828.852 M1121.48,818.591 C1123.47,818.26 1125.12,815.943 1125.12,813.957 L1125.12,794.428 C1125.12,791.78 1123.13,789.794 1120.49,789.794 L1119.82,789.794 L1108.9,792.111 L1108.9,742.792 L1099.63,742.792 L1099.63,794.097 L1070.17,800.055 L1070.17,753.384 L1060.91,753.384 L1060.91,802.041 L1048,804.689 C1046.01,805.02 1044.36,807.337 1044.36,809.323 L1044.36,828.521 C1044.36,831.169 1046.34,833.155 1048.99,833.155 L1049.98,833.155 L1060.91,830.838 L1060.91,885.453 L1048,888.101 C1046.01,888.432 1044.36,890.749 1044.36,892.735 L1044.36,911.933 C1044.36,914.581 1046.34,916.567 1048.99,916.567 L1049.98,916.567 L1060.91,914.25 L1060.91,963.569 L1070.17,963.569 L1070.17,912.264 L1099.63,906.306 L1099.63,952.977 L1108.9,952.977 L1108.9,904.32 L1121.48,902.003 C1123.47,901.672 1125.12,899.355 1125.12,897.369 L1125.12,877.84 C1125.12,875.192 1123.13,873.206 1120.49,873.206 L1119.82,873.206 L1108.9,875.523 L1108.9,820.908 L1121.48,818.591 "/>
<path class="KeySig" d="M1070.17,2565.07 L1099.63,2559.11 L1099.63,2613.73 L1070.17,2620.02 L1070.17,2565.07 M1121.48,2554.81 C1123.47,2554.48 1125.12,2552.16 1125.12,2550.18 L1125.12,2530.65 C1125.12,2528 1123.13,2526.01 1120.49,2526.01 L1119.82,2526.01 L1108.9,2528.33 L1108.9,2479.01 L1099.63,2479.01 L1099.63,2530.32 L1070.17,2536.28 L1070.17,2489.6 L1060.91,2489.6 L1060.91,2538.26 L1048,2540.91 C1046.01,2541.24 1044.36,2543.56 1044.36,2545.54 L1044.36,2564.74 C1044.36,2567.39 1046.34,2569.38 1048.99,2569.38 L1049.98,2569.38 L1060.91,2567.06 L1060.91,2621.67 L1048,2624.32 C1046.01,2624.65 1044.36,2626.97 1044.36,2628.96 L1044.36,2648.15 C1044.36,2650.8 1046.34,2652.79 1048.99,2652.79 L1049.98,2652.79 L1060.91,2650.47 L1060.91,2699.79 L1070.17,2699.79 L1070.17,2648.48 L1099.63,2642.53 L1099.63,2689.2 L1108.9,2689.2 L1108.9,2640.54 L1121.48,2638.22 C1123.47,2637.89 1125.12,2635.58 1125.12,2633.59 L1125.12,2614.06 C1125.12,2611.41 1123.13,2609.43 1120.49,2609.43 L1119.82,2609.43 L1108.9,2611.74 L1108.9,2557.13 L1121.48,2554.81 "/>
<path class="KeySig" d="M1070.17,1696.96 L1099.63,1691 L1099.63,1745.62 L1070.17,1751.91 L1070.17,1696.96 M1121.48,1686.7 C1123.47,1686.37 1125.12,1684.05 1125.12,1682.07 L1125.12,1662.54 C1125.12,1659.89 1123.13,1657.9 1120.49,1657.9 L1119.82,1657.9 L1108.9,1660.22 L1108.9,1610.9 L1099.63,1610.9 L1099.63,1662.21 L1070.17,1668.17 L1070.17,1621.49 L1060.91,1621.49 L1060.91,1670.15 L1048,1672.8 C1046.01,1673.13 1044.36,1675.45 1044.36,1677.43 L1044.36,1696.63 C1044.36,1699.28 1046.34,1701.27 1048.99,1701.27 L1049.98,1701.27 L1060.91,1698.95 L1060.91,1753.56 L1048,1756.21 C1046.01,1756.54 1044.36,1758.86 1044.36,1760.85 L1044.36,1780.04 C1044.36,1782.69 1046.34,1784.68 1048.99,1784.68 L1049.98,1784.68 L1060.91,1782.36 L1060.91,1831.68 L1070.17,1831.68 L1070.17,1780.37 L1099.63,1774.42 L1099.63,1821.09 L1108.9,1821.09 L1108.9,1772.43 L1121.48,1770.11 C1123.47,1769.78 1125.12,1767.47 1125.12,1765.48 L1125.12,1745.95 C1125.12,1743.3 1123.13,1741.32 1120.49,1741.32 L1119.82,1741.32 L1108.9,1743.63 L1108.9,1689.02 L1121.48,1686.7 "/>
<path class="TimeSig" d="M1273.27,1004.69 C1262.35,1004.69 1253.41,989.799 1253.41,971.263 C1253.41,952.727 1262.35,937.501 1273.27,937.501 C1284.19,937.501 1293.46,952.727 1293.46,971.263 C1293.46,989.799 1284.19,1004.69 1273.27,1004.69 M1285.52,921.944 C1265.33,921.944 1258.04,927.902 1253.41,932.867 C1252.42,925.916 1251.76,920.62 1251.76,915.324 C1251.76,896.457 1258.38,871.963 1281.55,871.963 C1289.82,871.963 1294.79,874.611 1298.1,878.252 C1291.14,881.231 1285.52,890.168 1285.52,897.781 C1285.52,909.697 1294.79,918.965 1306.7,918.965 C1318.62,918.965 1328.22,909.697 1328.22,897.781 L1328.22,896.788 C1328.22,893.809 1327.55,888.844 1326.23,886.196 C1321.93,874.28 1308.03,856.737 1274.93,856.737 C1245.14,856.737 1223.62,885.203 1217,900.429 C1213.69,908.373 1208.73,924.592 1208.73,943.128 C1208.73,963.319 1214.35,986.158 1233.88,1003.37 C1253.08,1017.93 1265.33,1018.6 1276.91,1018.6 C1288.5,1018.6 1331.86,1005.03 1331.86,966.629 C1331.86,934.191 1306.37,921.944 1285.52,921.944"/>
<path class="TimeSig" d="M1291.48,1085.5 C1268.98,1078.22 1244.15,1067.3 1244.15,1052.4 C1244.15,1039.49 1256.07,1034.2 1270.3,1034.2 C1290.82,1034.2 1304.72,1043.79 1304.72,1059.02 C1304.72,1074.91 1297.44,1082.52 1291.48,1085.5 M1270.3,1163.95 C1249.12,1163.95 1230.91,1152.36 1230.91,1133.83 C1230.91,1111.65 1248.12,1106.35 1248.12,1106.35 C1270.63,1113.97 1302.74,1125.22 1302.74,1143.43 C1302.74,1152.36 1291.15,1163.95 1270.3,1163.95 M1310.02,1094.44 C1320.94,1086.16 1328.56,1075.57 1328.56,1062.33 C1328.56,1038.5 1302.41,1018.97 1270.3,1018.97 C1238.19,1018.97 1212.04,1038.5 1212.04,1062.33 C1212.04,1075.57 1215.35,1087.49 1230.91,1097.42 C1216.02,1106.02 1207.74,1118.27 1207.74,1134.16 C1207.74,1160.97 1235.88,1182.48 1270.3,1182.48 C1304.72,1182.48 1332.86,1160.97 1332.86,1134.16 C1332.86,1118.27 1327.23,1103.37 1310.02,1094.44"/>
<path class="Rest" d="M4406.67,951.508 C4406.33,951.508 4405.67,951.177 4405.34,951.177 C4403.36,951.177 4401.7,952.17 4401.04,953.825 C4399.71,955.811 4389.45,975.34 4374.56,986.263 C4370.26,989.573 4364.96,991.89 4359.66,992.883 C4363.3,988.58 4365.62,983.284 4365.62,976.995 C4365.62,964.086 4355.03,953.494 4342.12,953.494 C4328.88,953.494 4318.29,964.086 4318.29,976.995 C4318.29,994.869 4335.83,1003.14 4351.39,1003.14 C4368.93,1003.14 4380.52,994.869 4391.77,982.622 L4354.04,1100.46 L4362.97,1103.11 L4409.31,957.135 C4409.64,956.804 4409.64,956.142 4409.64,955.48 C4409.64,953.825 4408.65,952.501 4406.67,951.508"/>
<path class="Rest" d="M8537.87,1819.62 C8537.54,1819.62 8536.88,1819.29 8536.55,1819.29 C8534.56,1819.29 8532.91,1820.28 8532.25,1821.93 C8530.92,1823.92 8520.66,1843.45 8505.77,1854.37 C8501.46,1857.68 8496.17,1860 8490.87,1860.99 C8494.51,1856.69 8496.83,1851.39 8496.83,1845.1 C8496.83,1832.2 8486.24,1821.6 8473.33,1821.6 C8460.09,1821.6 8449.5,1832.2 8449.5,1845.1 C8449.5,1862.98 8467.04,1871.25 8482.6,1871.25 C8500.14,1871.25 8511.72,1862.98 8522.98,1850.73 L8485.24,1968.57 L8494.18,1971.22 L8540.52,1825.24 C8540.85,1824.91 8540.85,1824.25 8540.85,1823.59 C8540.85,1821.93 8539.86,1820.61 8537.87,1819.62"/>
<path class="Rest" d="M8788.19,1819.62 C8787.86,1819.62 8787.2,1819.29 8786.87,1819.29 C8784.88,1819.29 8783.23,1820.28 8782.57,1821.93 C8781.24,1823.92 8770.98,1843.45 8756.09,1854.37 C8751.78,1857.68 8746.49,1860 8741.19,1860.99 C8744.83,1856.69 8747.15,1851.39 8747.15,1845.1 C8747.15,1832.2 8736.56,1821.6 8723.65,1821.6 C8710.41,1821.6 8699.82,1832.2 8699.82,1845.1 C8699.82,1862.98 8717.36,1871.25 8732.92,1871.25 C8750.46,1871.25 8762.05,1862.98 8773.3,1850.73 L8735.57,1968.57 L8744.5,1971.22 L8790.84,1825.24 C8791.17,1824.91 8791.17,1824.25 8791.17,1823.59 C8791.17,1821.93 8790.18,1820.61 8788.19,1819.62"/>
<path class="Rest" d="M2379.69,1819.62 C2379.36,1819.62 2378.7,1819.29 2378.37,1819.29 C2376.38,1819.29 2374.73,1820.28 2374.07,1821.93 C2372.74,1823.92 2362.48,1843.45 2347.59,1854.37 C2343.28,1857.68 2337.99,1860 2332.69,1860.99 C2336.33,1856.69 2338.65,1851.39 2338.65,1845.1 C2338.65,1832.2 2328.06,1821.6 2315.15,1821.6 C2301.91,1821.6 2291.32,1832.2 2291.32,1845.1 C2291.32,1862.98 2308.86,1871.25 2324.42,1871.25 C2341.96,1871.25 2353.54,1862.98 2364.8,1850.73 L2327.06,1968.57 L2336,1971.22 L2382.34,1825.24 C2382.67,1824.91 2382.67,1824.25 2382.67,1823.59 C2382.67,1821.93 2381.68,1820.61 2379.69,1819.62"/>
<path class="Rest" d="M4171.44,951.508 C4171.11,951.508 4170.45,951.177 4170.12,951.177 C4168.13,951.177 4166.48,952.17 4165.82,953.825 C4164.49,955.811 4154.23,975.34 4139.34,986.263 C4135.03,989.573 4129.74,991.89 4124.44,992.883 C4128.08,988.58 4130.4,983.284 4130.4,976.995 C4130.4,964.086 4119.81,953.494 4106.9,953.494 C4093.66,953.494 4083.07,964.086 4083.07,976.995 C4083.07,994.869 4100.61,1003.14 4116.17,1003.14 C4133.71,1003.14 4145.3,994.869 4156.55,982.622 L4118.82,1100.46 L4127.75,1103.11 L4174.09,957.135 C4174.42,956.804 4174.42,956.142 4174.42,955.48 C4174.42,953.825 4173.43,952.501 4171.44,951.508"/>
<path class="Rest" d="M2129.37,1819.62 C2129.04,1819.62 2128.38,1819.29 2128.05,1819.29 C2126.06,1819.29 2124.41,1820.28 2123.75,1821.93 C2122.42,1823.92 2112.16,1843.45 2097.27,1854.37 C2092.96,1857.68 2087.67,1860 2082.37,1860.99 C2086.01,1856.69 2088.33,1851.39 2088.33,1845.1 C2088.33,1832.2 2077.74,1821.6 2064.83,1821.6 C2051.59,1821.6 2041,1832.2 2041,1845.1 C2041,1862.98 2058.54,1871.25 2074.1,1871.25 C2091.64,1871.25 2103.22,1862.98 2114.48,1850.73 L2076.74,1968.57 L2085.68,1971.22 L2132.02,1825.24 C2132.35,1824.91 2132.35,1824.25 2132.35,1823.59 C2132.35,1821.93 2131.36,1820.61 2129.37,1819.62"/>
<path class="Beam" fill-rule="evenodd" d="M7632.32,1225.38 L8189.44,1204.71 L8189.44,1246.08 L7632.32,1266.75 L7632.32,1225.38 "/>
<path class="Beam" fill-rule="evenodd" d="M7632.32,1163.37 L7797.4,1157.25 L7797.4,1198.61 L7632.32,1204.74 L7632.32,1163.37 "/>
<path class="Beam" fill-rule="evenodd" d="M6863.83,2506.87 L7348.95,2527.54 L7348.95,2568.92 L6863.83,2548.25 L6863.83,2506.87 "/>
<path class="Beam" fill-rule="evenodd" d="M2146.24,2548.23 L2631.36,2548.23 L2631.36,2589.57 L2146.24,2589.57 L2146.24,2548.23 "/>
<path class="Beam" fill-rule="evenodd" d="M1430.97,1700.64 L1606.11,1721.31 L1606.11,1762.94 L1430.97,1742.27 L1430.97,1700.64 "/>
<path class="Beam" fill-rule="evenodd" d="M1430.97,1762.65 L1606.11,1783.32 L1606.11,1824.95 L1430.97,1804.28 L1430.97,1762.65 "/>
<path class="Beam" fill-rule="evenodd" d="M1331.75,2961.61 L1816.87,2961.61 L1816.87,3002.95 L1331.75,3002.95 L1331.75,2961.61 "/>
<path class="Beam" fill-rule="evenodd" d="M7579.1,2568.88 L8064.22,2589.55 L8064.22,2630.92 L7579.1,2610.25 L7579.1,2568.88 "/>
<path class="Beam" fill-rule="evenodd" d="M5754.09,832.677 L6232.8,832.677 L6232.8,874.016 L5754.09,874.016 L5754.09,832.677 "/>
<path class="Beam" fill-rule="evenodd" d="M3009.4,1638.76 L3518.31,1659.43 L3518.31,1700.8 L3009.4,1680.13 L3009.4,1638.76 "/>
<path class="Beam" fill-rule="evenodd" d="M1947.07,770.65 L2425.77,791.319 L2425.77,832.696 L1947.07,812.027 L1947.07,770.65 "/>
<path class="Beam" fill-rule="evenodd" d="M3760.36,1700.79 L4269.27,1700.79 L4269.27,1742.13 L3760.36,1742.13 L3760.36,1700.79 "/>
<path class="Beam" fill-rule="evenodd" d="M8515.6,708.534 L9072.72,770.541 L9072.72,812.135 L8515.6,750.127 L8515.6,708.534 "/>
<path class="Beam" fill-rule="evenodd" d="M8515.6,770.541 L8680.68,788.915 L8680.68,830.509 L8515.6,812.135 L8515.6,770.541 "/>
<path class="Beam" fill-rule="evenodd" d="M2652.73,832.658 L3131.44,853.327 L3131.44,894.704 L2652.73,874.035 L2652.73,832.658 "/>
<path class="Beam" fill-rule="evenodd" d="M3476.62,1018.7 L3955.33,1018.7 L3955.33,1060.04 L3476.62,1060.04 L3476.62,1018.7 "/>
<path class="Beam" fill-rule="evenodd" d="M5048.43,853.327 L5527.14,832.658 L5527.14,874.035 L5048.43,894.704 L5048.43,853.327 "/>
<path class="Beam" fill-rule="evenodd" d="M7053.72,1700.77 L7562.63,1721.44 L7562.63,1762.81 L7053.72,1742.14 L7053.72,1700.77 "/>
<path class="Beam" fill-rule="evenodd" d="M4048.19,2899.61 L4533.3,2899.61 L4533.3,2940.94 L4048.19,2940.94 L4048.19,2899.61 "/>
<path class="Beam" fill-rule="evenodd" d="M4763.46,2961.61 L5248.58,2961.61 L5248.58,3002.95 L4763.46,3002.95 L4763.46,2961.61 "/>
<path class="Beam" fill-rule="evenodd" d="M6219.31,1576.77 L6811.66,1576.77 L6811.66,1618.11 L6219.31,1618.11 L6219.31,1576.77 "/>
<path class="Beam" fill-rule="evenodd" d="M6219.31,1638.78 L6394.46,1638.78 L6394.46,1680.12 L6219.31,1680.12 L6219.31,1638.78 "/>
<path class="NoteDot" d="M3387,2878.94 C3387,2888.2 3394.28,2895.49 3403.55,2895.49 C3412.82,2895.49 3420.1,2888.2 3420.1,2878.94 C3420.1,2869.67 3412.82,2862.39 3403.55,2862.39 C3394.28,2862.39 3387,2869.67 3387,2878.94"/>
<path class="NoteDot" d="M6980.43,977.362 C6980.43,986.63 6987.71,993.912 6996.98,993.912 C7006.25,993.912 7013.53,986.63 7013.53,977.362 C7013.53,968.094 7006.25,960.812 6996.98,960.812 C6987.71,960.812 6980.43,968.094 6980.43,977.362"/>
<path class="NoteDot" d="M6103.43,2796.26 C6103.43,2805.53 6110.71,2812.81 6119.98,2812.81 C6129.25,2812.81 6136.53,2805.53 6136.53,2796.26 C6136.53,2786.99 6129.25,2779.71 6119.98,2779.71 C6110.71,2779.71 6103.43,2786.99 6103.43,2796.26"/>
<path class="NoteDot" d="M8819.86,2878.94 C8819.86,2888.2 8827.14,2895.49 8836.41,2895.49 C8845.68,2895.49 8852.96,2888.2 8852.96,2878.94 C8852.96,2869.67 8845.68,2862.39 8836.41,2862.39 C8827.14,2862.39 8819.86,2869.67 8819.86,2878.94"/>
<path class="NoteDot" d="M5054.65,1928.15 C5054.65,1937.42 5061.94,1944.7 5071.2,1944.7 C5080.47,1944.7 5087.75,1937.42 5087.75,1928.15 C5087.75,1918.88 5080.47,1911.6 5071.2,1911.6 C5061.94,1911.6 5054.65,1918.88 5054.65,1928.15"/>
</svg>
