<?xml version="1.0" encoding="utf-8"?>
<svg xmlns="http://www.w3.org/2000/svg" xmlns:svg="http://www.w3.org/2000/svg" version="1.1" viewBox="0 0 681 193">
	<title>The musical score for Air XLI</title>
	<path d="M638.93 178.387c0 .742.583 1.324 1.325 1.324s1.325-.582 1.325-1.324-.583-1.325-1.325-1.325-1.325.582-1.325 1.325M168.703 108.89c0 .742.583 1.325 1.324 1.325.743 0 1.325-.583 1.325-1.325s-.582-1.325-1.325-1.325c-.74 0-1.324.583-1.324 1.325m275.345-3.31h32.172v3.31h-32.172zm-189.915 3.31h32.172v3.31h-32.172zM139.718 7.955h32.877v3.31h-32.877zm4.927 145.603 17.037-1.654v3.325l-17.037 1.655zm0-4.963 17.037-1.655v3.325l-17.037 1.655zm105.777-1.648h49.785v3.31h-49.785zm209.48-132.39 11.584-1.655v3.343L459.902 17.9zm0-4.964 11.584-1.655v3.343l-11.584 1.655zM91.395 7.955h32.877v3.31H91.395zm449.5 0h32.876v3.31h-32.876zM35.233 28.195c-1.802-.583-3.79-1.458-3.79-2.65 0-1.033.955-1.458 2.094-1.458 1.643 0 2.756.769 2.756 1.988 0 1.272-.583 1.881-1.06 2.12m-1.696 6.28c-1.696 0-3.153-.928-3.153-2.412 0-1.775 1.378-2.199 1.378-2.199 1.802.61 4.372 1.51 4.372 2.968 0 .715-.928 1.643-2.597 1.643m3.18-5.564c.874-.663 1.484-1.51 1.484-2.57 0-1.909-2.093-3.472-4.664-3.472s-4.664 1.563-4.664 3.471c0 1.06.265 2.014 1.511 2.808-1.193.69-1.855 1.67-1.855 2.943 0 2.146 2.252 3.868 5.008 3.868s5.009-1.722 5.009-3.868c0-1.273-.451-2.465-1.829-3.18m-2.942-7.185c-.874 0-1.59-1.192-1.59-2.676s.716-2.703 1.59-2.703 1.616 1.219 1.616 2.703-.742 2.676-1.616 2.676m.98-6.625c-1.616 0-2.2.477-2.57.875-.08-.557-.133-.98-.133-1.405 0-1.51.53-3.47 2.385-3.47.663 0 1.06.211 1.325.503-.556.238-1.006.954-1.006 1.563 0 .954.741 1.696 1.695 1.696s1.723-.742 1.723-1.696v-.08c0-.238-.054-.635-.16-.847-.343-.954-1.457-2.359-4.107-2.359-2.385 0-4.107 2.28-4.637 3.498a9.4 9.4 0 0 0-.662 3.418c0 1.617.45 3.445 2.014 4.823 1.537 1.166 2.517 1.219 3.444 1.219.928 0 4.4-1.087 4.4-4.16 0-2.597-2.041-3.578-3.71-3.578M16.093 34.924a7.7 7.7 0 0 1-1.537.16c-3.789 0-7.022-2.65-7.022-6.651 0-3.234 2.28-6.122 4.611-8.135.45-.398.875-.769 1.272-1.166.238 1.43.424 2.676.61 3.762-2.412.716-4.055 3.26-4.055 5.75 0 1.855 1.458 4.4 3.577 4.4.212 0 .451-.107.451-.345 0-.239-.265-.372-.583-.583-1.033-.636-1.616-1.325-1.616-2.623 0-1.617 1.192-2.915 2.755-3.287zm-2.332-27.24c.239-1.06 1.458-3.842 2.836-3.842.397 0 1.033 1.299 1.033 3.127 0 2.756-2.04 4.823-3.869 6.625-.159-1.06-.291-2.094-.291-3.207 0-.98.08-1.881.291-2.703m6.095 22.339c0 1.881-.768 3.815-2.65 4.584a882 882 0 0 1-1.457-8.559c2.385 0 4.107 1.616 4.107 3.975M8.196 43.06c0 1.748 1.352 4.054 4.93 4.054 1.245 0 2.331-.318 3.285-.901 1.431-1.007 1.802-2.756 1.802-4.425 0-1.034-.159-2.226-.424-3.737-.08-.53-.238-1.325-.397-2.358 2.597-.848 4.53-3.55 4.53-6.28 0-4.001-2.834-6.704-6.703-6.704-.265-1.59-.53-3.153-.769-4.637 2.81-2.942 4.744-6.254 4.744-10.467 0-2.411-.742-4.372-1.166-5.326C17.392.927 16.623 0 16.146 0c-.185 0-1.007.318-1.881 1.351-1.696 2.014-2.173 5.406-2.173 7.632 0 1.43.133 2.73.583 5.697-.026.026-1.404 1.43-1.96 1.881-2.412 2.253-5.75 5.459-5.75 10.758 0 4.956 4.318 8.851 9.247 8.851.768 0 1.484-.08 2.093-.186.504 2.545.795 4.4.795 5.804 0 2.755-1.404 4.213-4.08 4.213-.636 0-1.193-.133-1.246-.133-.026-.026-.08-.053-.08-.08 0-.052.054-.079.133-.105 1.246-.186 2.49-1.246 2.49-2.941 0-1.432-1.085-2.941-3.073-2.941-1.855 0-3.047 1.51-3.047 3.259m7.896 130.857a7.7 7.7 0 0 1-1.537.16c-3.789 0-7.022-2.65-7.022-6.652 0-3.233 2.28-6.12 4.611-8.135.45-.398.875-.768 1.272-1.165.238 1.43.424 2.676.61 3.762-2.412.715-4.055 3.26-4.055 5.75 0 1.855 1.458 4.399 3.577 4.399.212 0 .451-.106.451-.344 0-.239-.265-.372-.583-.583-1.033-.637-1.616-1.325-1.616-2.624 0-1.616 1.192-2.914 2.755-3.286zm-2.332-27.24c.239-1.06 1.458-3.842 2.836-3.842.397 0 1.033 1.299 1.033 3.127 0 2.755-2.04 4.822-3.869 6.624-.159-1.06-.291-2.093-.291-3.206 0-.98.08-1.882.291-2.703m6.095 22.338c0 1.882-.768 3.816-2.65 4.584a882 882 0 0 1-1.457-8.558c2.385 0 4.107 1.616 4.107 3.974m-11.66 13.037c0 1.749 1.352 4.054 4.93 4.054 1.245 0 2.331-.318 3.285-.9 1.431-1.007 1.802-2.757 1.802-4.426 0-1.033-.159-2.225-.424-3.736-.08-.53-.238-1.325-.397-2.358 2.597-.848 4.53-3.55 4.53-6.28 0-4.002-2.834-6.704-6.703-6.704-.265-1.59-.53-3.154-.769-4.637 2.81-2.942 4.744-6.254 4.744-10.467 0-2.412-.742-4.372-1.166-5.326-.636-1.352-1.405-2.28-1.882-2.28-.185 0-1.007.319-1.881 1.352-1.696 2.014-2.173 5.406-2.173 7.631 0 1.432.133 2.73.583 5.698-.026.026-1.404 1.43-1.96 1.881-2.412 2.252-5.75 5.458-5.75 10.758 0 4.955 4.318 8.85 9.247 8.85.768 0 1.484-.079 2.093-.185.504 2.544.795 4.399.795 5.803 0 2.756-1.404 4.213-4.08 4.213-.636 0-1.193-.132-1.246-.132-.026-.027-.08-.053-.08-.08 0-.053.054-.079.133-.105 1.246-.186 2.49-1.246 2.49-2.942 0-1.431-1.085-2.94-3.073-2.94-1.855 0-3.047 1.509-3.047 3.258m7.896-77.631a7.7 7.7 0 0 1-1.537.159c-3.789 0-7.022-2.65-7.022-6.65 0-3.234 2.28-6.122 4.611-8.136.45-.398.875-.769 1.272-1.166.238 1.43.424 2.677.61 3.763-2.412.715-4.055 3.259-4.055 5.75 0 1.854 1.458 4.398 3.577 4.398.212 0 .451-.105.451-.344 0-.238-.265-.371-.583-.583-1.033-.636-1.616-1.325-1.616-2.623 0-1.616 1.192-2.915 2.755-3.286zm-2.332-27.24c.239-1.06 1.458-3.842 2.836-3.842.397 0 1.033 1.298 1.033 3.127 0 2.755-2.04 4.822-3.869 6.624-.159-1.06-.291-2.093-.291-3.206 0-.98.08-1.882.291-2.703m6.095 22.338c0 1.881-.768 3.815-2.65 4.584a882 882 0 0 1-1.457-8.559c2.385 0 4.107 1.617 4.107 3.975m-11.66 13.037c0 1.748 1.352 4.054 4.93 4.054 1.245 0 2.331-.318 3.285-.9 1.431-1.008 1.802-2.757 1.802-4.426 0-1.034-.159-2.226-.424-3.736-.08-.53-.238-1.325-.397-2.359 2.597-.847 4.53-3.55 4.53-6.28 0-4.001-2.834-6.704-6.703-6.704-.265-1.59-.53-3.153-.769-4.637 2.81-2.942 4.744-6.253 4.744-10.467 0-2.411-.742-4.372-1.166-5.326-.636-1.351-1.405-2.279-1.882-2.279-.185 0-1.007.319-1.881 1.351-1.696 2.015-2.173 5.406-2.173 7.632 0 1.431.133 2.73.583 5.698-.026.026-1.404 1.43-1.96 1.88-2.412 2.253-5.75 5.459-5.75 10.759 0 4.955 4.318 8.85 9.247 8.85.768 0 1.484-.079 2.093-.185.504 2.544.795 4.399.795 5.803 0 2.755-1.404 4.213-4.08 4.213-.636 0-1.193-.133-1.246-.133-.026-.026-.08-.053-.08-.08 0-.052.054-.078.133-.105 1.246-.185 2.49-1.245 2.49-2.941 0-1.431-1.085-2.941-3.073-2.941-1.855 0-3.047 1.51-3.047 3.259m467.36-25.718c0 1.14.822 2.41 2.969 2.41 2.756 0 5.644-2.251 5.644-4.583 0-1.564-1.325-2.438-2.968-2.438-2.57 0-5.644 2.173-5.644 4.61M490.88 30.58c0 1.14.822 2.411 2.968 2.411 2.756 0 5.644-2.252 5.644-4.584 0-1.563-1.325-2.438-2.968-2.438-2.57 0-5.644 2.173-5.644 4.611m24.162 0c0 1.14.821 2.411 2.967 2.411 2.756 0 5.644-2.252 5.644-4.584 0-1.563-1.325-2.438-2.967-2.438-2.571 0-5.644 2.173-5.644 4.611m-57.14 138.993c0 1.139.82 2.41 2.967 2.41 2.755 0 5.644-2.252 5.644-4.583 0-1.563-1.325-2.438-2.968-2.438-2.57 0-5.644 2.173-5.644 4.61M532.952 30.58c0 1.14.822 2.411 2.968 2.411 2.756 0 5.645-2.252 5.645-4.584 0-1.563-1.325-2.438-2.969-2.438-2.57 0-5.644 2.173-5.644 4.611m-180.426 9.928c0 1.14.822 2.41 2.968 2.41 2.756 0 5.644-2.251 5.644-4.583 0-1.563-1.325-2.438-2.968-2.438-2.57 0-5.644 2.173-5.644 4.61M83.453 30.58c0 1.14.821 2.411 2.968 2.411 2.755 0 5.644-2.252 5.644-4.584 0-1.563-1.325-2.438-2.968-2.438-2.57 0-5.644 2.173-5.644 4.611m340.422 135.683c0 1.14.821 2.411 2.967 2.411 2.757 0 5.645-2.251 5.645-4.583 0-1.564-1.325-2.438-2.969-2.438-2.57 0-5.643 2.173-5.643 4.61M549.06 33.89c0 1.139.822 2.41 2.968 2.41 2.755 0 5.644-2.252 5.644-4.584 0-1.563-1.325-2.438-2.968-2.438-2.57 0-5.644 2.173-5.644 4.612m16.107-3.31c0 1.14.822 2.411 2.968 2.411 2.756 0 5.645-2.252 5.645-4.584 0-1.563-1.325-2.438-2.968-2.438-2.57 0-5.645 2.173-5.645 4.611M387.033 172.881c0 1.14.821 2.411 2.967 2.411 2.756 0 5.644-2.252 5.644-4.584 0-1.563-1.325-2.438-2.968-2.438-2.57 0-5.643 2.173-5.643 4.611M328.365 37.197c0 1.14.822 2.412 2.968 2.412 2.755 0 5.644-2.252 5.644-4.584 0-1.564-1.325-2.438-2.968-2.438-2.57 0-5.644 2.173-5.644 4.61m21.825 135.684c0 1.14.821 2.411 2.968 2.411 2.756 0 5.644-2.252 5.644-4.584 0-1.563-1.325-2.438-2.968-2.438-2.57 0-5.644 2.173-5.644 4.611M593.166 27.27c0 1.139.82 2.41 2.967 2.41 2.756 0 5.645-2.252 5.645-4.583 0-1.564-1.325-2.438-2.969-2.438-2.57 0-5.643 2.173-5.643 4.61M325.628 166.263c0 1.14.822 2.411 2.969 2.411 2.755 0 5.644-2.251 5.644-4.583 0-1.564-1.325-2.438-2.968-2.438-2.57 0-5.645 2.173-5.645 4.61M609.273 33.89c0 1.139.822 2.41 2.968 2.41 2.755 0 5.644-2.252 5.644-4.584 0-1.563-1.325-2.438-2.968-2.438-2.57 0-5.644 2.173-5.644 4.612m24.16 0c0 1.139.823 2.41 2.97 2.41 2.755 0 5.643-2.252 5.643-4.584 0-1.563-1.325-2.438-2.967-2.438-2.571 0-5.645 2.173-5.645 4.612m-114.13 142.3c0 1.14.822 2.413 2.968 2.413 2.757 0 5.645-2.253 5.645-4.585 0-1.563-1.325-2.438-2.968-2.438-2.57 0-5.644 2.173-5.644 4.61m138.29-148.92c0 1.14.822 2.412 2.968 2.412 2.756 0 5.644-2.253 5.644-4.584 0-1.564-1.324-2.438-2.967-2.438-2.57 0-5.645 2.173-5.645 4.61M291.603 169.573c0 1.139.82 2.41 2.967 2.41 2.756 0 5.644-2.252 5.644-4.583 0-1.563-1.325-2.438-2.968-2.438-2.57 0-5.643 2.173-5.643 4.61M312.257 33.89c0 1.139.822 2.41 2.968 2.41 2.756 0 5.645-2.252 5.645-4.584 0-1.563-1.325-2.438-2.969-2.438-2.57 0-5.644 2.173-5.644 4.612M267.041 172.88c0 1.14.821 2.411 2.968 2.411 2.755 0 5.643-2.252 5.643-4.584 0-1.563-1.324-2.438-2.967-2.438-2.57 0-5.644 2.173-5.644 4.611M462.882 33.89c0 1.139.821 2.41 2.968 2.41 2.755 0 5.644-2.252 5.644-4.584 0-1.563-1.325-2.438-2.968-2.438-2.57 0-5.644 2.173-5.644 4.612m93.265 145.61c0 1.14.822 2.412 2.968 2.412 2.756 0 5.644-2.252 5.644-4.584 0-1.564-1.325-2.438-2.968-2.438-2.57 0-5.644 2.173-5.644 4.61m-313.668-9.927c0 1.139.822 2.41 2.968 2.41 2.755 0 5.644-2.252 5.644-4.583 0-1.563-1.325-2.438-2.968-2.438-2.57 0-5.644 2.173-5.644 4.61M51.775 30.58c0 1.14.822 2.411 2.968 2.411 2.756 0 5.644-2.252 5.644-4.584 0-1.563-1.325-2.438-2.968-2.438-2.57 0-5.644 2.173-5.644 4.611m166.143 138.993c0 1.139.821 2.41 2.967 2.41 2.757 0 5.644-2.252 5.644-4.583 0-1.563-1.325-2.438-2.967-2.438-2.57 0-5.644 2.173-5.644 4.61M38.457 100.076c0 1.14.821 2.412 2.967 2.412 2.757 0 5.645-2.253 5.645-4.584 0-1.564-1.325-2.439-2.968-2.439-2.57 0-5.644 2.174-5.644 4.611m23.633 3.31c0 1.139.821 2.411 2.967 2.411 2.756 0 5.644-2.253 5.644-4.585 0-1.562-1.325-2.437-2.968-2.437-2.57 0-5.643 2.172-5.643 4.61m118.986 66.188c0 1.139.821 2.41 2.967 2.41 2.756 0 5.644-2.252 5.644-4.583 0-1.563-1.325-2.438-2.967-2.438-2.57 0-5.644 2.173-5.644 4.61M77.844 106.695c0 1.14.822 2.412 2.969 2.412 2.755 0 5.644-2.253 5.644-4.585 0-1.564-1.325-2.438-2.968-2.438-2.57 0-5.645 2.173-5.645 4.61M99.56 33.89c0 1.139.822 2.41 2.968 2.41 2.756 0 5.644-2.252 5.644-4.584 0-1.563-1.325-2.438-2.967-2.438-2.57 0-5.645 2.173-5.645 4.612m1.917 76.114c0 1.14.822 2.411 2.968 2.411 2.756 0 5.645-2.252 5.645-4.584 0-1.563-1.325-2.437-2.969-2.437-2.57 0-5.644 2.172-5.644 4.61m51.6 62.878c0 1.14.822 2.411 2.968 2.411 2.756 0 5.644-2.252 5.644-4.584 0-1.563-1.325-2.438-2.968-2.438-2.57 0-5.644 2.173-5.644 4.611M288.097 30.58c0 1.14.82 2.411 2.967 2.411 2.756 0 5.644-2.252 5.644-4.584 0-1.563-1.324-2.438-2.968-2.438-2.57 0-5.644 2.173-5.644 4.611m163.864 6.618c0 1.14.822 2.412 2.968 2.412 2.755 0 5.644-2.252 5.644-4.584 0-1.564-1.325-2.438-2.968-2.438-2.57 0-5.644 2.173-5.644 4.61M136.703 176.19c0 1.14.821 2.412 2.968 2.412 2.755 0 5.644-2.253 5.644-4.585 0-1.563-1.325-2.438-2.968-2.438-2.57 0-5.644 2.173-5.644 4.61m-3.547-62.877c0 1.14.821 2.412 2.967 2.412 2.756 0 5.644-2.252 5.644-4.584 0-1.564-1.325-2.438-2.967-2.438-2.57 0-5.644 2.173-5.644 4.61m-33.296 56.26c0 1.139.822 2.41 2.969 2.41 2.755 0 5.644-2.252 5.644-4.583 0-1.563-1.325-2.438-2.968-2.438-2.57 0-5.645 2.173-5.645 4.61M256.42 27.27c0 1.139.82 2.41 2.967 2.41 2.756 0 5.644-2.252 5.644-4.583 0-1.564-1.325-2.438-2.968-2.438-2.57 0-5.643 2.173-5.643 4.61M75.299 169.573c0 1.139.822 2.41 2.968 2.41 2.756 0 5.644-2.252 5.644-4.583 0-1.563-1.325-2.438-2.968-2.438-2.57 0-5.644 2.173-5.644 4.61m81.489-56.259c0 1.14.821 2.412 2.968 2.412 2.756 0 5.644-2.252 5.644-4.584 0-1.564-1.325-2.438-2.967-2.438-2.57 0-5.645 2.173-5.645 4.61m271.01-69.496c0 1.14.822 2.411 2.969 2.411 2.756 0 5.643-2.252 5.643-4.584 0-1.563-1.325-2.437-2.967-2.437-2.57 0-5.644 2.172-5.644 4.61M38.457 169.572c0 1.139.821 2.41 2.967 2.41 2.757 0 5.645-2.252 5.645-4.583 0-1.563-1.325-2.438-2.968-2.438-2.57 0-5.644 2.173-5.644 4.61m148.29-79.424c0 1.14.821 2.411 2.967 2.411 2.756 0 5.644-2.252 5.644-4.584 0-1.563-1.325-2.437-2.967-2.437-2.57 0-5.644 2.172-5.644 4.61m221.619-46.33c0 1.138.821 2.41 2.967 2.41 2.756 0 5.644-2.252 5.644-4.584 0-1.563-1.325-2.437-2.968-2.437-2.57 0-5.643 2.172-5.643 4.61M590.173 182.81c0 1.14.821 2.411 2.968 2.411 2.756 0 5.644-2.252 5.644-4.584 0-1.563-1.324-2.438-2.967-2.438-2.57 0-5.645 2.173-5.645 4.61M115.668 30.58c0 1.14.821 2.411 2.967 2.411 2.757 0 5.645-2.252 5.645-4.584 0-1.563-1.325-2.438-2.968-2.438-2.57 0-5.644 2.173-5.644 4.611m99.077 59.568c0 1.14.822 2.411 2.968 2.411 2.755 0 5.644-2.252 5.644-4.584 0-1.563-1.325-2.437-2.968-2.437-2.57 0-5.644 2.172-5.644 4.61m-82.97-59.568c0 1.14.822 2.411 2.968 2.411 2.756 0 5.644-2.252 5.644-4.584 0-1.563-1.325-2.438-2.967-2.438-2.571 0-5.644 2.173-5.644 4.611m252.428 13.237c0 1.14.822 2.411 2.968 2.411 2.756 0 5.644-2.252 5.644-4.584 0-1.563-1.325-2.437-2.968-2.437-2.57 0-5.644 2.172-5.644 4.61M238.377 90.147c0 1.14.822 2.411 2.968 2.411 2.756 0 5.645-2.252 5.645-4.584 0-1.563-1.325-2.437-2.968-2.437-2.57 0-5.645 2.172-5.645 4.61m419.218 6.619c0 1.14.822 2.411 2.968 2.411 2.756 0 5.645-2.253 5.645-4.584 0-1.563-1.325-2.438-2.968-2.438-2.57 0-5.645 2.173-5.645 4.61M232.257 33.89c0 1.139.822 2.41 2.968 2.41 2.755 0 5.644-2.252 5.644-4.584 0-1.563-1.325-2.438-2.968-2.438-2.57 0-5.644 2.173-5.644 4.612m394.759 148.92c0 1.14.821 2.411 2.968 2.411 2.755 0 5.643-2.252 5.643-4.584 0-1.563-1.325-2.438-2.967-2.438-2.57 0-5.644 2.173-5.644 4.61m6.947-89.352c0 1.14.821 2.412 2.968 2.412 2.755 0 5.644-2.252 5.644-4.584 0-1.564-1.325-2.438-2.968-2.438-2.57 0-5.644 2.173-5.644 4.61m-364.075 0c0 1.14.821 2.412 2.967 2.412 2.757 0 5.645-2.252 5.645-4.584 0-1.564-1.325-2.438-2.968-2.438-2.57 0-5.644 2.173-5.644 4.61m348.32-3.309c0 1.14.82 2.411 2.967 2.411 2.756 0 5.645-2.252 5.645-4.584 0-1.563-1.325-2.437-2.969-2.437-2.57 0-5.644 2.172-5.644 4.61m-332.564 0c0 1.14.822 2.411 2.968 2.411 2.755 0 5.644-2.252 5.644-4.584 0-1.563-1.325-2.437-2.968-2.437-2.57 0-5.644 2.172-5.644 4.61m-77.547-56.258c0 1.139.821 2.41 2.967 2.41 2.757 0 5.645-2.252 5.645-4.584 0-1.563-1.325-2.438-2.968-2.438-2.57 0-5.644 2.173-5.644 4.612m386.479 52.949c0 1.14.822 2.41 2.968 2.41 2.755 0 5.644-2.251 5.644-4.583 0-1.564-1.325-2.438-2.968-2.438-2.57 0-5.644 2.173-5.644 4.61m-280.934 0c0 1.14.821 2.412 2.968 2.412 2.756 0 5.644-2.252 5.644-4.584 0-1.564-1.325-2.438-2.967-2.438-2.571 0-5.645 2.173-5.645 4.61M147.883 33.89c0 1.139.821 2.41 2.967 2.41 2.757 0 5.645-2.252 5.645-4.584 0-1.563-1.325-2.438-2.968-2.438-2.57 0-5.644 2.173-5.644 4.612m181.513 66.186c0 1.14.822 2.412 2.968 2.412 2.756 0 5.644-2.253 5.644-4.584 0-1.564-1.325-2.439-2.968-2.439-2.57 0-5.644 2.174-5.644 4.611m237.181-16.547c0 1.14.821 2.412 2.968 2.412 2.755 0 5.643-2.253 5.643-4.585 0-1.563-1.324-2.437-2.967-2.437-2.57 0-5.644 2.172-5.644 4.61m-213.548 16.547c0 1.14.822 2.412 2.968 2.412 2.755 0 5.644-2.253 5.644-4.584 0-1.564-1.325-2.439-2.968-2.439-2.57 0-5.644 2.174-5.644 4.611m23.633-13.237c0 1.14.82 2.41 2.967 2.41 2.756 0 5.645-2.251 5.645-4.583 0-1.564-1.325-2.438-2.968-2.438-2.57 0-5.644 2.173-5.644 4.61m166.282 3.31c0 1.14.821 2.411 2.968 2.411 2.756 0 5.644-2.252 5.644-4.584 0-1.563-1.325-2.437-2.968-2.437-2.57 0-5.644 2.172-5.644 4.61M191.988 27.27c0 1.139.822 2.41 2.968 2.41 2.756 0 5.644-2.252 5.644-4.583 0-1.564-1.325-2.438-2.967-2.438-2.57 0-5.645 2.173-5.645 4.61m327.323 62.878c0 1.14.821 2.411 2.968 2.411 2.756 0 5.644-2.252 5.644-4.584 0-1.563-1.325-2.437-2.967-2.437-2.57 0-5.645 2.172-5.645 4.61m-114.651-3.31c0 1.14.821 2.412 2.967 2.412 2.757 0 5.644-2.252 5.644-4.584 0-1.564-1.325-2.438-2.967-2.438-2.57 0-5.644 2.173-5.644 4.61m98.896-3.309c0 1.14.822 2.412 2.968 2.412 2.755 0 5.644-2.253 5.644-4.585 0-1.563-1.325-2.437-2.968-2.437-2.57 0-5.644 2.172-5.644 4.61m-75.263 3.31c0 1.14.821 2.41 2.967 2.41 2.756 0 5.644-2.251 5.644-4.583 0-1.564-1.325-2.438-2.967-2.438-2.57 0-5.644 2.173-5.644 4.61m-174.16 3.31c0 1.14.821 2.411 2.968 2.411 2.755 0 5.643-2.252 5.643-4.584 0-1.563-1.324-2.437-2.967-2.437-2.57 0-5.644 2.172-5.644 4.61m-90.142-59.568c0 1.14.82 2.411 2.967 2.411 2.756 0 5.644-2.252 5.644-4.584 0-1.563-1.325-2.438-2.968-2.438-2.57 0-5.643 2.173-5.643 4.611m295.812 59.568c0 1.14.822 2.411 2.968 2.411 2.755 0 5.644-2.252 5.644-4.584 0-1.563-1.325-2.437-2.968-2.437-2.57 0-5.644 2.172-5.644 4.61m34.94 82.734c0 1.14.821 2.411 2.968 2.411 2.756 0 5.644-2.252 5.644-4.584 0-1.563-1.325-2.438-2.967-2.438-2.57 0-5.645 2.173-5.645 4.611m-50.695-86.043c0 1.14.821 2.41 2.967 2.41 2.757 0 5.645-2.251 5.645-4.583 0-1.564-1.325-2.438-2.969-2.438-2.57 0-5.643 2.173-5.643 4.61M199.93 10.662c0 .08.026.212.212.291 1.14.371 3.418 1.802 5.14 4.744.478.821 1.246 1.96 1.246 4.16 0 1.908-.503 3.869-1.193 5.776-.052.159-.105.292-.079.398 0 .159.106.265.265.265.186 0 .318-.106.424-.292 1.192-2.12 1.643-4.584 1.643-6.995-.133-3.418-2.093-5.936-2.093-5.936.079 0-2.438-3.26-3.154-4.372-.98-1.51-1.431-3.02-1.484-3.127-.026-.08-.265-1.033-.265-1.033-.026-.106-.158-.212-.318-.212a.35.35 0 0 0-.344.344zM59.718 12.316c0 .079.026.212.211.291 1.14.371 3.418 1.802 5.141 4.743.477.822 1.246 1.961 1.246 4.16 0 1.908-.504 3.87-1.193 5.777-.053.159-.106.292-.08.397 0 .16.106.265.266.265.185 0 .317-.105.423-.291 1.193-2.12 1.644-4.584 1.644-6.996-.133-3.418-2.094-5.935-2.094-5.935.08 0-2.438-3.26-3.153-4.372-.98-1.51-1.432-3.021-1.484-3.127a65 65 0 0 1-.265-1.034c-.027-.106-.159-.212-.318-.212a.35.35 0 0 0-.344.345zm443.838 93.238a.35.35 0 0 0 .345.345c.132 0 .29-.106.317-.212 0-.026.239-.954.265-1.033.027-.107.265-1.113 1.22-2.677 1.033-1.722 2.623-2.968 3.948-4.823 1.298-1.855 2.093-3.603 2.093-5.935 0-2.411-.556-4.425-1.961-6.995-.08-.186-.239-.292-.397-.292-.053 0-.107 0-.133.027-.132.053-.185.158-.185.318 0 .079.026.212.08.317 1.06 2.464 1.484 3.87 1.484 5.777 0 2.2-.769 3.338-1.246 4.16-1.723 2.942-4.505 4.372-5.618 4.743-.185.08-.212.212-.212.292zm-87.248-80c0 .078.026.21.212.29 1.14.371 3.418 1.803 5.14 4.744.477.821 1.246 1.96 1.246 4.16 0 1.908-.504 3.869-1.193 5.776-.053.16-.106.292-.08.398 0 .159.107.265.266.265.186 0 .318-.106.424-.291 1.192-2.12 1.643-4.585 1.643-6.996-.133-3.419-2.094-5.936-2.094-5.936.08 0-2.437-3.26-3.153-4.372-.98-1.51-1.43-3.02-1.483-3.127a57 57 0 0 1-.265-1.033c-.028-.106-.16-.212-.319-.212a.35.35 0 0 0-.344.344zM564.09 161.235c0 .08.026.213.212.292 1.139.37 3.417 1.802 5.14 4.743.477.821 1.246 1.96 1.246 4.16 0 1.908-.504 3.869-1.193 5.776-.053.16-.106.292-.08.398 0 .159.106.265.266.265.185 0 .317-.106.423-.291 1.193-2.12 1.644-4.585 1.644-6.996-.133-3.418-2.094-5.935-2.094-5.935.08 0-2.437-3.26-3.153-4.373-.98-1.51-1.431-3.02-1.484-3.126a67 67 0 0 1-.265-1.034c-.027-.106-.159-.212-.318-.212a.35.35 0 0 0-.344.345zm-41.106-148.92c0 .079.026.212.212.291 1.14.371 3.418 1.802 5.14 4.743.478.822 1.246 1.961 1.246 4.16 0 1.908-.503 3.87-1.193 5.777-.053.159-.105.292-.079.397 0 .16.106.265.265.265.186 0 .318-.105.423-.291 1.193-2.12 1.644-4.584 1.644-6.996-.133-3.418-2.093-5.935-2.093-5.935.079 0-2.438-3.26-3.154-4.372-.98-1.51-1.431-3.021-1.484-3.127-.026-.08-.265-1.034-.265-1.034-.026-.106-.159-.212-.318-.212a.35.35 0 0 0-.344.345zm-20.299 142.301c0 .08.027.213.212.292 1.14.371 3.419 1.802 5.142 4.743.476.821 1.244 1.961 1.244 4.16 0 1.908-.503 3.869-1.192 5.777-.052.159-.106.292-.079.397 0 .16.106.265.265.265.185 0 .318-.105.424-.291 1.192-2.12 1.642-4.584 1.642-6.995-.132-3.419-2.093-5.936-2.093-5.936.08 0-2.438-3.26-3.153-4.372-.98-1.51-1.431-3.021-1.484-3.127a64 64 0 0 1-.265-1.034c-.026-.105-.16-.212-.318-.212a.35.35 0 0 0-.345.345zm-74.392-45.753a.35.35 0 0 0 .344.344c.132 0 .291-.106.318-.211 0-.028.238-.955.265-1.034.026-.106.265-1.113 1.22-2.676 1.033-1.723 2.622-2.968 3.947-4.823 1.299-1.855 2.094-3.604 2.094-5.936 0-2.41-.557-4.425-1.962-6.995-.079-.186-.238-.292-.397-.292-.053 0-.106 0-.133.027-.132.053-.185.159-.185.318a.8.8 0 0 0 .08.318c1.06 2.464 1.483 3.869 1.483 5.777 0 2.199-.768 3.338-1.245 4.16-1.722 2.941-4.504 4.372-5.618 4.743-.185.08-.211.212-.211.29zm3.524 40.79c0 .08.026.211.212.29 1.14.372 3.418 1.803 5.141 4.744.476.821 1.245 1.961 1.245 4.16 0 1.908-.504 3.87-1.192 5.777-.053.159-.107.292-.08.397 0 .16.106.265.265.265.186 0 .318-.106.424-.291 1.193-2.12 1.643-4.584 1.643-6.995-.132-3.419-2.094-5.936-2.094-5.936.08 0-2.437-3.26-3.153-4.372-.98-1.51-1.43-3.02-1.483-3.127a64 64 0 0 1-.265-1.034c-.027-.105-.16-.212-.318-.212a.35.35 0 0 0-.345.345zm-71.348-127.41c0 .08.026.213.211.292 1.14.371 3.419 1.802 5.141 4.743.477.822 1.246 1.961 1.246 4.16 0 1.909-.504 3.87-1.193 5.777-.053.16-.106.291-.08.398 0 .158.107.265.266.265.185 0 .318-.107.423-.292 1.193-2.12 1.644-4.584 1.644-6.996-.133-3.418-2.094-5.935-2.094-5.935.08 0-2.438-3.26-3.153-4.372-.98-1.51-1.431-3.021-1.484-3.127-.027-.08-.265-1.033-.265-1.033-.027-.106-.159-.212-.318-.212a.35.35 0 0 0-.344.344zM601.108 10.66c0 .08.026.212.212.291 1.14.371 3.418 1.802 5.141 4.744.476.821 1.245 1.96 1.245 4.16 0 1.908-.504 3.869-1.192 5.776-.053.159-.107.292-.08.398 0 .159.106.265.265.265.185 0 .318-.106.424-.292 1.193-2.12 1.643-4.584 1.643-6.995-.132-3.418-2.094-5.936-2.094-5.936.08 0-2.437-3.26-3.153-4.372-.98-1.51-1.43-3.02-1.483-3.127-.027-.08-.265-1.033-.265-1.033-.027-.106-.16-.212-.318-.212a.35.35 0 0 0-.345.344zM333.57 149.653c0 .08.027.212.212.292 1.14.371 3.418 1.802 5.14 4.743.478.821 1.246 1.961 1.246 4.16 0 1.908-.503 3.87-1.192 5.777-.053.159-.106.292-.08.397 0 .16.106.265.265.265.186 0 .318-.106.424-.291 1.193-2.12 1.643-4.584 1.643-6.995-.133-3.419-2.093-5.936-2.093-5.936.08 0-2.438-3.26-3.154-4.372-.98-1.51-1.43-3.02-1.484-3.127a64 64 0 0 1-.265-1.034c-.026-.105-.158-.212-.318-.212a.35.35 0 0 0-.344.345zm233.006-44.099a.35.35 0 0 0 .344.345c.132 0 .292-.106.318-.212 0-.026.239-.954.265-1.033.026-.107.265-1.113 1.22-2.677 1.033-1.722 2.623-2.968 3.947-4.823 1.299-1.855 2.094-3.603 2.094-5.935 0-2.411-.557-4.425-1.961-6.995-.08-.186-.239-.292-.397-.292-.054 0-.107 0-.133.027-.132.053-.186.158-.186.318 0 .079.027.212.08.317 1.06 2.464 1.483 3.87 1.483 5.777 0 2.2-.768 3.338-1.245 4.16-1.722 2.942-4.504 4.372-5.618 4.743-.185.08-.211.212-.211.292zm98.961-94.893c0 .08.027.212.212.291 1.14.371 3.418 1.802 5.14 4.744.478.821 1.246 1.96 1.246 4.16 0 1.908-.503 3.869-1.192 5.776-.053.159-.106.292-.08.398 0 .159.106.265.265.265.185 0 .318-.106.424-.292 1.193-2.12 1.642-4.584 1.642-6.995-.132-3.418-2.092-5.936-2.092-5.936.08 0-2.439-3.26-3.154-4.372-.98-1.51-1.43-3.02-1.484-3.127-.026-.08-.265-1.033-.265-1.033-.026-.106-.16-.212-.318-.212a.35.35 0 0 0-.344.344zm-288.876 98.203c0 .186.159.344.345.344.132 0 .291-.106.317-.211 0-.028.239-.955.265-1.034.027-.106.265-1.113 1.219-2.676 1.033-1.723 2.623-2.968 3.948-4.823 1.299-1.855 2.094-3.604 2.094-5.936 0-2.41-.557-4.425-1.961-6.995-.08-.186-.239-.292-.398-.292-.053 0-.106 0-.132.027-.133.053-.186.159-.186.318 0 .08.027.212.08.318 1.06 2.464 1.484 3.869 1.484 5.777 0 2.199-.769 3.338-1.246 4.16-1.722 2.941-4.505 4.372-5.617 4.742-.186.08-.212.213-.212.292zM70.032 85.12c0 .08.026.212.212.292 1.14.371 3.418 1.802 5.14 4.743.477.821 1.246 1.96 1.246 4.16 0 1.908-.504 3.868-1.192 5.777-.054.159-.107.291-.08.397 0 .16.106.265.265.265.186 0 .318-.106.424-.291 1.192-2.12 1.643-4.584 1.643-6.996-.132-3.418-2.094-5.936-2.094-5.936.08 0-2.437-3.259-3.153-4.371-.98-1.511-1.43-3.022-1.483-3.127-.027-.08-.265-1.034-.265-1.034-.027-.105-.16-.212-.319-.212a.35.35 0 0 0-.344.344zm155.828 66.186c0 .08.026.212.212.291 1.14.372 3.418 1.802 5.14 4.744.478.821 1.246 1.961 1.246 4.16 0 1.908-.503 3.87-1.192 5.777-.053.158-.106.291-.08.397 0 .16.107.265.265.265.186 0 .319-.106.424-.291 1.192-2.12 1.643-4.584 1.643-6.996-.132-3.418-2.093-5.936-2.093-5.936.08 0-2.438-3.259-3.154-4.372-.98-1.51-1.43-3.02-1.483-3.126a64 64 0 0 1-.265-1.034c-.026-.106-.16-.212-.318-.212a.35.35 0 0 0-.345.345zM109.42 91.74c0 .08.026.212.212.291 1.139.371 3.418 1.803 5.14 4.744.477.821 1.246 1.96 1.246 4.16 0 1.908-.504 3.868-1.192 5.776-.054.16-.107.292-.08.398 0 .159.106.265.265.265.185 0 .318-.106.424-.291 1.192-2.12 1.643-4.585 1.643-6.996-.132-3.419-2.094-5.936-2.094-5.936.08 0-2.438-3.259-3.153-4.372-.98-1.51-1.43-3.02-1.484-3.126a67 67 0 0 1-.265-1.034c-.026-.106-.159-.212-.317-.212a.35.35 0 0 0-.345.344zM320.2 15.624c0 .08.026.212.212.291 1.14.371 3.418 1.802 5.14 4.744.477.821 1.246 1.96 1.246 4.16 0 1.908-.504 3.868-1.192 5.777-.054.158-.107.291-.08.397 0 .16.106.265.265.265.185 0 .318-.106.424-.292 1.192-2.12 1.643-4.584 1.643-6.995-.132-3.418-2.094-5.936-2.094-5.936.08 0-2.437-3.259-3.153-4.372-.98-1.51-1.43-3.02-1.483-3.127a65 65 0 0 1-.265-1.033c-.027-.106-.16-.212-.318-.212a.35.35 0 0 0-.345.344zM83.242 151.308c0 .08.026.212.212.291 1.139.372 3.418 1.802 5.14 4.744.477.821 1.246 1.961 1.246 4.16 0 1.908-.504 3.87-1.193 5.777-.053.158-.106.291-.08.397 0 .16.106.265.266.265.185 0 .318-.106.424-.291 1.192-2.12 1.643-4.584 1.643-6.996-.133-3.418-2.094-5.936-2.094-5.936.08 0-2.437-3.259-3.153-4.372-.98-1.51-1.43-3.02-1.484-3.126a64 64 0 0 1-.265-1.034c-.027-.106-.159-.212-.318-.212a.35.35 0 0 0-.344.345zm103.505-40.79a.35.35 0 0 0 .344.345c.133 0 .292-.106.318-.212 0-.027.238-.954.265-1.033.026-.107.265-1.114 1.22-2.677 1.033-1.722 2.623-2.968 3.947-4.823 1.299-1.854 2.094-3.603 2.094-5.935 0-2.411-.557-4.425-1.961-6.996-.08-.185-.239-.291-.398-.291-.052 0-.106 0-.132.026-.133.054-.185.16-.185.319 0 .079.026.211.079.318 1.06 2.464 1.483 3.868 1.483 5.776 0 2.2-.767 3.339-1.245 4.16-1.722 2.941-4.504 4.373-5.617 4.743-.186.08-.212.212-.212.292zm126.894-1.655c0 .186.16.344.345.344.132 0 .291-.106.318-.211 0-.028.238-.955.265-1.034.026-.106.265-1.113 1.218-2.676 1.034-1.723 2.623-2.968 3.948-4.823 1.299-1.855 2.094-3.604 2.094-5.936 0-2.41-.557-4.425-1.96-6.995-.08-.186-.24-.292-.399-.292-.052 0-.105 0-.132.027-.133.053-.185.159-.185.318 0 .08.026.212.079.318 1.06 2.464 1.484 3.869 1.484 5.777 0 2.199-.768 3.338-1.246 4.16-1.722 2.941-4.504 4.372-5.617 4.743-.186.08-.212.212-.212.29zM264.36 10.66c0 .08.026.212.212.291 1.14.371 3.418 1.802 5.14 4.744.477.821 1.246 1.96 1.246 4.16 0 1.908-.504 3.869-1.193 5.776-.053.159-.106.292-.08.398 0 .159.106.265.266.265.185 0 .318-.106.424-.292 1.192-2.12 1.643-4.584 1.643-6.995-.133-3.418-2.094-5.936-2.094-5.936.08 0-2.437-3.26-3.153-4.372-.98-1.51-1.43-3.02-1.484-3.127-.027-.08-.265-1.033-.265-1.033-.027-.106-.159-.212-.318-.212a.35.35 0 0 0-.344.344zm353.846 99.858c0 .185.16.344.345.344.133 0 .292-.106.318-.212 0-.027.239-.954.265-1.033.027-.107.265-1.114 1.219-2.677 1.033-1.722 2.623-2.968 3.948-4.823 1.298-1.854 2.093-3.603 2.093-5.935 0-2.411-.556-4.425-1.96-6.996-.08-.185-.239-.291-.398-.291-.053 0-.106 0-.132.026-.133.054-.186.16-.186.319 0 .079.027.211.08.318 1.06 2.464 1.484 3.868 1.484 5.776 0 2.2-.769 3.339-1.246 4.16-1.722 2.941-4.505 4.373-5.617 4.743-.186.08-.213.212-.213.292zm-379.83 0c0 .185.16.344.345.344.133 0 .292-.106.318-.212 0-.027.239-.954.265-1.033.027-.107.265-1.114 1.219-2.677 1.033-1.722 2.623-2.968 3.948-4.823 1.298-1.854 2.093-3.603 2.093-5.935 0-2.411-.556-4.425-1.96-6.996-.08-.185-.239-.291-.398-.291-.053 0-.106 0-.132.026-.133.054-.186.16-.186.319 0 .079.027.211.08.318 1.06 2.464 1.484 3.868 1.484 5.776 0 2.2-.769 3.339-1.246 4.16-1.722 2.941-4.505 4.373-5.617 4.743-.186.08-.213.212-.213.292zm427.161-30.362c0 .08.027.212.212.291 1.14.372 3.418 1.802 5.14 4.744.478.821 1.246 1.961 1.246 4.16 0 1.908-.503 3.87-1.192 5.777-.053.158-.106.291-.08.397 0 .16.106.265.265.265.185 0 .318-.106.424-.292 1.193-2.12 1.642-4.583 1.642-6.995-.132-3.418-2.092-5.936-2.092-5.936.08 0-2.439-3.259-3.154-4.372-.98-1.51-1.43-3.02-1.484-3.127-.026-.079-.265-1.033-.265-1.033-.026-.106-.16-.212-.318-.212a.35.35 0 0 0-.344.345zm-189.98 6.68v20.399h.662v-20.4Zm-205.67 6.619v17.089h.662v-17.09Zm15.755-3.31v20.399h.662V90.146ZM240.2 9.61v22.107h.662V9.61Zm425.338 64.585v20.399h.662V74.195ZM155.825 9.61v22.107h.662V9.61Zm82.553 80.536v20.373h.662V90.146Zm379.83 0v20.373h.662V90.146ZM139.718 9.61v18.797h.662V9.61Zm75.027 80.536v20.399h.662V90.146Zm1.293-80.536v22.107h.663V9.61Zm48.322-4.911v20.399h.662v-20.4ZM46.4 145.294V167.4h.661v-22.106Zm140.346-55.148v20.373h.662V90.146Zm126.895-3.31v22.028h.662V86.837Zm280.934 0v22.054h.662V86.837Zm-511.334 58.51V167.4h.662v-22.054Zm24.562-.053V167.4h.662v-22.107Zm56.928-56.259v22.106h.662V89.034Zm-20.085 61.19v23.794h.662v-23.793ZM296.039 6.302v22.106h.662V6.301ZM141.098 89.034v22.107h.662V89.034Zm19.921 59.601v22.074h.662v-22.074zm176.32-72.838v22.106H338V75.797ZM123.61 9.61v18.797h.663V9.61Zm-14.19 76.168v22.053h.662V85.778ZM171.932 9.61v18.797h.662V9.61Zm17.086 135.684V167.4h.662v-22.106ZM85.788 82.415v22.107h.661V82.415Zm275.183-6.618v22.106h.662V75.797ZM70.032 79.16v22.054h.662V79.159Zm496.545 4.368v22.027h.662V83.527Zm-340.717 61.82V167.4h.663v-22.054ZM46.4 75.796v22.106h.661V75.797Zm204.022 72.805V167.4h.662v-18.798zm24.56 0v22.107h.663v-22.107zM320.2 9.662v22.055h.662V9.663Zm-20.656 138.94V167.4h.663v-18.798ZM336.307 12.92v22.106h.662V12.92ZM107.503 9.61v22.108h.662V9.61ZM665.538 4.7v20.399h.662v-20.4ZM376.662 86.837v22.027h.662V86.837Zm166.282 3.31v20.398h.662V90.146ZM641.377 9.61v22.107h.662V9.61ZM333.57 143.692v20.398h.662v-20.398ZM617.215 9.61v22.107h.662V9.61ZM358.133 148.602v22.107h.662v-22.107zM601.108 4.7v20.399h.662v-20.4Zm-401.177 0v20.399h.662v-20.4Zm195.043 143.903v22.107h.662v-22.107zm9.685-61.765v22.053h.663V86.837Zm114.652 3.31v20.398h.662V90.146ZM573.11 9.61v18.797h.662V9.61ZM431.817 143.692v20.398h.662v-20.398ZM557.002 9.61v22.107h.662V9.61Zm-465.606 0v18.797h.662V9.61Zm374.448 135.684V167.4h.662v-22.106ZM540.895 9.61v18.797h.662V9.61ZM428.292 86.837v22.027h.663V86.837Zm94.692-80.484v22.054h.662V6.353Zm-19.428 77.174v22.027h.662V83.527Zm-.87 65.129v22.053h.662v-22.053ZM498.822 6.3v22.106h.662V6.301Zm-138.354 9.98v22.054h.663V16.28Zm166.78 135.63v22.107h.661v-22.106zm-83.2-65.074v20.399h.662v-20.4Zm26.777-77.18v22.06h.662V9.657Zm93.264 145.617v22.053h.662v-22.053ZM59.717 6.354v22.053h.662V6.353Zm400.185 4.863v23.808h.662V11.217Zm138.214 147.314v22.106h.662V158.53ZM392.146 19.538v22.106h.663V19.538Zm43.596 0v22.106h.662V19.538Zm24.06 70.608v17.09h.663v-17.09Zm175.156 68.385v22.106h.662V158.53ZM416.308 19.59v22.053h.661V19.591Zm217.655 73.865V112.2h.662V93.456Zm-379.83-3.31v20.399h.662V90.146ZM382.02 42.174v1.059h12.974v-1.06Zm43.595 0v1.059h12.974v-1.06Zm199.216 138.992v1.06h12.974v-1.06zm-36.842 0v1.06h12.974v-1.06zM154.604 111.67v1.06h12.974v-1.06zm-23.633 0v1.06h12.974v-1.06zm275.21-69.496v1.059h12.974v-1.06Zm-268.398 74.725-.003.02-.02.001a.17.17 0 0 0 .004.106.17.17 0 0 0-.015.104c2.278 3.073 6.788 4.581 11.287 4.581s9.009-1.508 11.287-4.58a.165.165 0 0 0-.244-.221c-2.17 1.978-6.607 3.007-11.043 3.007-4.437 0-8.873-1.03-11.043-3.007a.17.17 0 0 0-.106.005.17.17 0 0 0-.104-.016zm21.216 1.194c-2.378 2.177-6.164 3.287-9.963 3.287-3.8 0-7.585-1.11-9.963-3.287 2.468 1.45 6.213 2.154 9.963 2.154s7.495-.704 9.963-2.154m-21.118-1.061c4.462 4.067 17.847 4.067 22.31 0-4.463 6.018-17.848 6.018-22.31 0m217.036 59.402-.013.006a.2.2 0 0 0-.058.024.2.2 0 0 0-.046.018l-.006.014-.013.008a.2.2 0 0 0-.01.049.2.2 0 0 0-.015.06.2.2 0 0 0 .023.056.2.2 0 0 0 .02.047c3.61 3.656 10.744 5.445 17.876 5.445s14.267-1.789 17.877-5.445a.165.165 0 0 0-.214-.25c-3.488 2.492-10.58 3.776-17.663 3.776s-14.175-1.284-17.663-3.776a.2.2 0 0 0-.049-.012.2.2 0 0 0-.046-.02zm1.563 1.276c3.89 1.923 10.038 2.862 16.195 2.862 6.158 0 12.305-.94 16.195-2.862-3.788 2.728-9.99 4.12-16.195 4.12s-12.406-1.392-16.195-4.12m-1.564-1.11c7.104 5.076 28.415 5.076 35.518 0-7.103 7.193-28.414 7.193-35.518 0M613.99 37.442a.2.2 0 0 0-.043.02.2.2 0 0 0-.047.013l-.01.014-.014.008a.2.2 0 0 0-.017.045.2.2 0 0 0-.02.058.2.2 0 0 0 .015.06.2.2 0 0 0 .012.046c2.332 3.104 6.947 4.627 11.551 4.627s9.22-1.523 11.551-4.627a.165.165 0 0 0-.243-.222c-2.222 2-6.765 3.038-11.308 3.038s-9.086-1.039-11.308-3.038a.2.2 0 0 0-.045-.016.2.2 0 0 0-.058-.02zm1.205 1.22c2.526 1.475 6.371 2.191 10.223 2.191 3.85 0 7.696-.716 10.222-2.19-2.434 2.211-6.322 3.339-10.222 3.339s-7.789-1.128-10.223-3.34M614 37.608c4.567 4.108 18.27 4.108 22.837 0-4.567 6.08-18.27 6.08-22.837 0m-279.848 66.025a.17.17 0 0 0-.123.027l-.003.019h-.02a.17.17 0 0 0 0 .106.17.17 0 0 0-.018.105c2.275 3.265 6.788 4.872 11.29 4.872s9.015-1.607 11.29-4.872a.165.165 0 0 0-.253-.211c-2.172 2.167-6.603 3.29-11.037 3.29s-8.866-1.123-11.038-3.29h-.016a.17.17 0 0 0-.072-.046m1.201 1.336c2.47 1.566 6.196 2.33 9.924 2.33 3.73 0 7.456-.764 9.925-2.33-2.382 2.295-6.146 3.462-9.925 3.462-3.778 0-7.542-1.167-9.924-3.462m-1.23-1.173c4.461 4.45 17.847 4.45 22.309 0-4.462 6.4-17.848 6.4-22.309 0m201.824-23.543c-4.493 0-8.993 1.256-11.278 3.84v.019a.165.165 0 0 0-.012.185l.025.017.001.013a.2.2 0 0 0 .042.014.2.2 0 0 0 .058.02.2.2 0 0 0 .06-.012.2.2 0 0 0 .044-.01c2.167-1.503 6.617-2.292 11.06-2.292s8.893.789 11.06 2.292a.165.165 0 0 0 .218-.245c-2.285-2.585-6.785-3.84-11.278-3.84m0 .331c3.858 0 7.71.962 10.078 2.836-2.464-1.147-6.262-1.703-10.078-1.703s-7.614.556-10.078 1.703c2.368-1.874 6.22-2.836 10.078-2.836m-11.154 3.62c4.461-5.047 17.847-5.047 22.308 0-4.461-3.096-17.847-3.096-22.308 0m70.08 102.162a.17.17 0 0 0-.073.046h-.016l-.006.013-.013.008a.2.2 0 0 0-.011.05.2.2 0 0 0-.014.06.2.2 0 0 0 .023.056.2.2 0 0 0 .019.047c3.61 3.655 10.745 5.444 17.877 5.444s14.267-1.789 17.877-5.444a.165.165 0 0 0-.214-.251c-3.488 2.492-10.579 3.776-17.663 3.776s-14.175-1.284-17.663-3.776a.17.17 0 0 0-.124-.029zm1.59 1.273c3.89 1.923 10.038 2.862 16.196 2.862s12.306-.94 16.196-2.862c-3.788 2.729-9.99 4.12-16.196 4.12s-12.408-1.391-16.196-4.12m-1.563-1.11c7.104 5.076 28.415 5.076 35.518 0-7.103 7.194-28.414 7.194-35.518 0M585.11 78.742v27.203h1.192V78.742ZM583.7 9.246v27.203h1.192V9.246Zm-401.176 0v27.203h1.191V9.246Zm311.567 69.496v27.203h1.192V78.742Zm-322.48 69.497v27.202h1.191V148.24Zm223.584-69.497v27.203h1.191V78.742Zm-79.03 69.497v27.202h1.19V148.24Zm-11.988-69.497v27.203h1.191V78.742Zm144.26 69.497v27.202h1.19V148.24ZM205.28 78.742v27.203h1.191V78.742ZM481.416 9.246v27.203h1.19V9.246Zm-407.428 0v27.203h1.191V9.246ZM580.71 148.239v27.202h1.191V148.24ZM278.631 9.246v27.203h1.192V9.246Zm96.108 0v27.203h1.192V9.246ZM123.691 78.742v27.203h1.191V78.742ZM677.36 148.24v27.202H681V148.24zm-3.64 0v27.202h1.191V148.24zm6.089-138.993v27.203H681V9.246Zm0 69.496v27.203H681V78.742ZM0 174.713v.728h681v-.728zm0-6.618v.728h681v-.728zm0-6.619v.728h681v-.728zm0-6.619v.728h681v-.728zm0-6.619v.728h681v-.728zm0-43.021v.728h681v-.728zm0-6.618v.727h681V98.6zm0-6.62v.729h681v-.728zm0-6.618v.728h681v-.728zm0-6.619v.728h681v-.728Zm0-43.021v.727h681v-.727zm0-6.619v.728h681v-.728zm0-6.619v.728h681v-.728zm0-6.618v.727h681v-.727Zm0-6.619v.728h681v-.728Z"/>
</svg>
