<?xml version="1.0" encoding="UTF-8" standalone="no"?>
<svg
   width="681"
   height="116.60989"
   version="1.2"
   id="svg101"
   xmlns="http://www.w3.org/2000/svg"
   xmlns:svg="http://www.w3.org/2000/svg"
   xmlns:rdf="http://www.w3.org/1999/02/22-rdf-syntax-ns#"
   xmlns:cc="http://creativecommons.org/ns#"
   xmlns:dc="http://purl.org/dc/elements/1.1/">
  <defs
     id="defs101" />
  <title
     id="title1">air_XXXI</title>
  <desc
     id="desc1">Generated by MuseScore Studio 4.7.3</desc>
  <path
     id="path101"
     class="Beam"
     d="M 184.67345,2.9846007 203.3102,4.6393321 V 7.9616838 L 184.67345,6.3069524 V 2.9846007 M 578.05523,27.245589 c -0.0272,-0.02642 -0.0801,-0.07925 -0.15931,-0.184926 l -3.04768,-3.762973 c -0.0264,-0.0265 -0.0528,-0.105993 -0.0528,-0.158989 0,-0.07949 0.0264,-0.185487 0.0528,-0.238483 l 2.70344,-4.08071 c 0.0264,-0.053 0.0528,-0.132491 0.0528,-0.185487 v -0.238483 c 0,-0.07949 -0.0264,-0.158989 -0.0793,-0.211985 l -4.29334,-5.803088 c 0,0 -0.10567,-0.158989 -0.26498,-0.158989 -0.0793,0 -0.13209,0.0265 -0.21135,0.0795 -0.10647,0.07949 -0.13289,0.185487 -0.13289,0.264981 0,0.158989 0.0793,0.291479 0.0793,0.291479 l 2.01417,2.755805 c 0.0528,0.07949 0.0793,0.185486 0.0793,0.317977 0,0.105992 -0.0264,0.238483 -0.0793,0.317977 l -2.67623,4.080711 c -0.0264,0.053 -0.0528,0.158988 -0.0528,0.211984 v 0.238484 c 0,0.07949 0.0264,0.158988 0.0793,0.211984 l 2.96763,3.683479 c -0.10567,-0.02642 -0.34423,-0.08006 -0.66205,-0.08006 -1.35132,0 -2.41125,1.113562 -2.41125,2.464886 0,0.370653 0.0793,0.742107 0.2914,1.033506 0.55638,0.84778 2.54334,3.364701 2.54334,3.364701 0,0 0.13289,0.159309 0.31782,0.159309 0.0536,0 0.10647,0 0.15931,-0.05284 0.13289,-0.106473 0.18572,-0.212145 0.18572,-0.317818 0,-0.106472 -0.0528,-0.185727 -0.0801,-0.238563 -0.0793,-0.132891 -0.92704,-1.669942 -0.92704,-1.669942 0,0 -0.18572,-0.370653 -0.18572,-0.847779 0,-0.84778 0.63643,-1.537051 1.48421,-1.537051 0.34424,0 0.63564,0.106473 0.84778,0.238563 l 1.03351,0.662853 c 0,0 0.10567,0.05284 0.21214,0.05284 0.10567,0 0.18493,-0.02642 0.26498,-0.132891 0.0528,-0.105672 0.0793,-0.158508 0.0793,-0.237762 0,-0.08006 -0.0264,-0.132891 -0.0793,-0.212145 l -0.0528,-0.08006 m -241.28018,0 c -0.0264,-0.02642 -0.0801,-0.07925 -0.15931,-0.184926 l -3.04688,-3.762973 c -0.0264,-0.0265 -0.0536,-0.105993 -0.0536,-0.158989 0,-0.07949 0.0272,-0.185487 0.0536,-0.238483 l 2.70265,-4.08071 c 0.0264,-0.053 0.0528,-0.132491 0.0528,-0.185487 v -0.238483 c 0,-0.07949 -0.0264,-0.158989 -0.0793,-0.211985 l -4.29253,-5.803088 c 0,0 -0.10648,-0.158989 -0.26499,-0.158989 -0.08,0 -0.13289,0.0265 -0.21214,0.0795 -0.10647,0.07949 -0.13289,0.185487 -0.13289,0.264981 0,0.158989 0.0801,0.291479 0.0801,0.291479 l 2.01338,2.755805 c 0.0528,0.07949 0.0793,0.185486 0.0793,0.317977 0,0.105992 -0.0264,0.238483 -0.0793,0.317977 l -2.67623,4.080711 c -0.0264,0.053 -0.0528,0.158988 -0.0528,0.211984 v 0.238484 c 0,0.07949 0.0264,0.158988 0.0793,0.211984 l 2.96763,3.683479 c -0.10567,-0.02642 -0.34424,-0.08006 -0.66206,-0.08006 -1.35132,0 -2.41124,1.113562 -2.41124,2.464886 0,0.370653 0.0793,0.742107 0.2914,1.033506 0.55638,0.84778 2.54333,3.364701 2.54333,3.364701 0,0 0.1329,0.159309 0.31862,0.159309 0.0528,0 0.10567,0 0.15851,-0.05284 0.13289,-0.106473 0.18573,-0.212145 0.18573,-0.317818 0,-0.106472 -0.0528,-0.185727 -0.0793,-0.238563 -0.08,-0.132891 -0.92783,-1.669942 -0.92783,-1.669942 0,0 -0.18573,-0.370653 -0.18573,-0.847779 0,-0.84778 0.63644,-1.537051 1.48422,-1.537051 0.34423,0 0.63563,0.106473 0.84778,0.238563 l 1.0335,0.662853 c 0,0 0.10648,0.05284 0.21215,0.05284 0.10567,0 0.18573,-0.02642 0.26498,-0.132891 0.0528,-0.105672 0.0793,-0.158508 0.0793,-0.237762 0,-0.08006 -0.0264,-0.132891 -0.0793,-0.212145 l -0.0528,-0.08006 M 37.140582,18.104059 c -0.662053,0.423969 -1.139179,1.192415 -1.139179,2.040355 0,0.105992 0,0.211985 0.02642,0.317977 0.13209,1.086423 1.007089,1.934363 2.093432,2.066853 h 0.291399 c 1.324906,0 2.38483,-1.059924 2.38483,-2.38483 v -0.158989 c 0,-0.105992 -0.02642,-0.291479 -0.05284,-0.397472 -0.238563,-1.139419 -1.27207,-3.577246 -5.77675,-3.577246 -5.776749,0 -6.438802,4.79616 -6.438802,6.518537 0,3.153677 0.397071,7.101176 7.021601,7.101176 2.623394,0 4.663989,-1.536251 4.769661,-4.371789 0,-0.132891 -0.07925,-0.212146 -0.212145,-0.212146 h -0.344235 c -0.105673,0 -0.212145,0.106473 -0.212145,0.212146 -0.105673,2.199103 -1.669142,3.524009 -4.001136,3.524009 -2.305577,0 -3.418337,-1.244851 -3.418337,-3.576846 v -5.06138 c 0,-1.483895 0.582798,-3.179774 2.941211,-3.179774 1.245651,0 1.802032,0.450468 2.093431,0.900936 0.02642,0.053 0.02642,0.07949 0.02642,0.13249 0,0.0265 0,0.07949 -0.05284,0.105993 M 16.093311,104.42076 c -0.529962,0.10647 -1.033427,0.15931 -1.536891,0.15931 -3.789231,0 -7.0220012,-2.64982 -7.0220012,-6.650951 0,-3.233411 2.2788382,-6.120985 4.6106722,-8.135163 0.450468,-0.397872 0.874438,-0.768525 1.27191,-1.165597 0.238483,1.430579 0.42397,2.67623 0.609457,3.762573 -2.411329,0.714889 -4.0542123,3.259028 -4.0542123,5.749531 0,1.854869 1.4573963,4.399007 3.5772463,4.399007 0.211985,0 0.450468,-0.10567 0.450468,-0.34423 0,-0.23857 -0.264982,-0.37146 -0.582959,-0.5828 -1.033427,-0.63644 -1.616385,-1.32491 -1.616385,-2.623396 0,-1.616306 1.192415,-2.914793 2.755804,-3.286247 l 1.536891,8.717963 M 13.761477,77.180532 c 0.238483,-1.059925 1.457396,-3.841827 2.835298,-3.841827 0.397472,0 1.033427,1.298488 1.033427,3.126938 0,2.755484 -2.040355,4.822498 -3.868725,6.62453 -0.158989,-1.059925 -0.29148,-2.093432 -0.29148,-3.206193 0,-0.98067 0.0795,-1.882086 0.29148,-2.703448 m 6.094567,22.338474 c 0,1.881284 -0.768446,3.815404 -2.649812,4.583934 -0.556461,-3.17977 -1.27191,-7.393055 -1.457397,-8.558652 2.384831,0 4.107209,1.616305 4.107209,3.974718 M 8.1968718,112.55592 c 0,1.7484 1.351404,4.05397 4.9286502,4.05397 1.245411,0 2.331834,-0.31782 3.285766,-0.90061 1.430899,-1.00709 1.801872,-2.75629 1.801872,-4.42543 0,-1.03351 -0.158988,-2.22552 -0.423969,-3.73615 -0.07949,-0.52997 -0.238484,-1.32491 -0.397472,-2.35842 2.596815,-0.84778 4.531178,-3.55042 4.531178,-6.280291 0,-4.001136 -2.835299,-6.703784 -6.704024,-6.703784 -0.264981,-1.589887 -0.529962,-3.153356 -0.768445,-4.63677 2.8088,-2.942012 4.743163,-6.253876 4.743163,-10.467157 0,-2.411249 -0.741948,-4.371789 -1.165917,-5.326042 -0.635955,-1.351324 -1.404401,-2.279158 -1.881367,-2.279158 -0.185487,0 -1.006928,0.318618 -1.881366,1.351324 -1.69588,2.014177 -2.172846,5.406096 -2.172846,7.631618 0,1.431379 0.132491,2.729866 0.582959,5.697495 -0.0265,0.02642 -1.404401,1.430579 -1.960861,1.881287 -2.4113287,2.25194 -5.7500916,5.458132 -5.7500916,10.757755 0,4.955393 4.3191932,8.850853 9.2478436,8.850853 0.768445,0 1.483894,-0.0793 2.093351,-0.18573 0.503464,2.54414 0.794943,4.39901 0.794943,5.80317 0,2.75548 -1.4044,4.21328 -4.08071,4.21328 -0.635955,0 -1.192415,-0.13289 -1.245411,-0.13289 -0.0265,-0.0264 -0.07949,-0.0528 -0.07949,-0.0793 0,-0.0528 0.053,-0.0793 0.132491,-0.10568 1.245412,-0.18572 2.490823,-1.24565 2.490823,-2.94121 0,-1.43138 -1.086423,-2.94121 -3.073782,-2.94121 -1.8548679,0 -3.0472832,1.50983 -3.0472832,3.25903 M 16.093311,34.924439 c -0.529962,0.106473 -1.033427,0.159309 -1.536891,0.159309 -3.789231,0 -7.0220012,-2.649811 -7.0220012,-6.650947 0,-3.233411 2.2788382,-6.121386 4.6106722,-8.135243 0.450468,-0.397471 0.874438,-0.768445 1.27191,-1.165917 0.238483,1.430899 0.42397,2.67631 0.609457,3.762733 -2.411329,0.715129 -4.0542123,3.259268 -4.0542123,5.749771 0,1.854869 1.4573963,4.399008 3.5772463,4.399008 0.211985,0 0.450468,-0.105672 0.450468,-0.344235 0,-0.238563 -0.264982,-0.371454 -0.582959,-0.582799 -1.033427,-0.636435 -1.616385,-1.324906 -1.616385,-2.623393 0,-1.616306 1.192415,-2.914793 2.755804,-3.286247 l 1.536891,8.71796 M 13.761477,7.6844542 c 0.238483,-1.0599247 1.457396,-3.8422271 2.835298,-3.8422271 0.397472,0 1.033427,1.2984078 1.033427,3.1267779 0,2.7558043 -2.040355,4.822658 -3.868725,6.62453 -0.158989,-1.059925 -0.29148,-2.093352 -0.29148,-3.206273 0,-0.9804301 0.0795,-1.8813661 0.29148,-2.7028078 m 6.094567,22.3382338 c 0,1.881286 -0.768446,3.815409 -2.649812,4.583934 -0.556461,-3.179774 -1.27191,-7.393055 -1.457397,-8.558652 2.384831,0 4.107209,1.616305 4.107209,3.974718 M 8.1968718,43.059602 c 0,1.748395 1.351404,4.053972 4.9286502,4.053972 1.245411,0 2.331834,-0.317818 3.285766,-0.900616 1.430899,-1.007089 1.801872,-2.756285 1.801872,-4.425426 0,-1.033507 -0.158988,-2.225522 -0.423969,-3.736154 -0.07949,-0.529963 -0.238484,-1.324906 -0.397472,-2.358413 2.596815,-0.84778 4.531178,-3.550428 4.531178,-6.280294 0,-4.001136 -2.835299,-6.703784 -6.704024,-6.703784 -0.264981,-1.589887 -0.529962,-3.153276 -0.768445,-4.637171 2.8088,-2.941291 4.743163,-6.253555 4.743163,-10.4667561 0,-2.4113288 -0.741948,-4.3721895 -1.165917,-5.3261218 C 17.391719,0.92743413 16.623273,0 16.146307,0 15.96082,0 15.139379,0.31797742 14.264941,1.351404 c -1.69588,2.013857 -2.172846,5.4056161 -2.172846,7.631458 0,1.430898 0.132491,2.729306 0.582959,5.697095 -0.0265,0.0265 -1.404401,1.430899 -1.960861,1.881367 -2.4113287,2.25234 -5.7500916,5.458612 -5.7500916,10.757915 0,4.955389 4.3191932,8.850852 9.2478436,8.850852 0.768445,0 1.483894,-0.07925 2.093351,-0.185727 0.503464,2.54414 0.794943,4.399008 0.794943,5.803168 0,2.755484 -1.4044,4.213281 -4.08071,4.213281 -0.635955,0 -1.192415,-0.132891 -1.245411,-0.132891 -0.0265,-0.02642 -0.07949,-0.05284 -0.07949,-0.07925 0,-0.05284 0.053,-0.07925 0.132491,-0.105672 1.245412,-0.185727 2.490823,-1.245652 2.490823,-2.941211 0,-1.431379 -1.086423,-2.941211 -3.073782,-2.941211 -1.8548679,0 -3.0472832,1.509832 -3.0472832,3.259028 M 38.456682,86.837535 c 0,1.139979 0.821361,2.411249 2.967629,2.411249 2.756285,0 5.644659,-2.25194 5.644659,-4.583935 0,-1.563469 -1.324905,-2.437666 -2.968429,-2.437666 -2.569757,0 -5.643859,2.172685 -5.643859,4.610352 M 226.84789,30.579068 c 0,1.139179 0.82136,2.411249 2.96843,2.411249 2.75548,0 5.64386,-2.25274 5.64386,-4.583934 0,-1.563469 -1.32491,-2.438468 -2.96763,-2.438468 -2.57056,0 -5.64466,2.173487 -5.64466,4.611153 m 267.84954,60.734327 c -0.8742,0 -1.05992,-0.715689 -1.05992,-0.954252 0,-1.298488 4.45184,-3.577646 5.69669,-3.577646 0.63644,0 1.05993,0.371454 1.05993,0.954252 0,1.324906 -4.47746,3.577646 -5.6967,3.577646 m 3.6569,-5.77675 c -2.57056,0 -5.64466,2.146268 -5.64466,4.610353 0,1.139179 0.82217,2.411248 2.96843,2.411248 2.75549,0 5.64386,-2.251939 5.64386,-4.583934 0,-1.563469 -1.3249,-2.437667 -2.96763,-2.437667 M 282.75972,38.363591 c -0.8742,0 -1.05992,-0.715689 -1.05992,-0.954252 0,-1.298488 4.45184,-3.576846 5.69749,-3.576846 0.63564,0 1.05993,0.370653 1.05993,0.953452 0,1.324906 -4.47827,3.577646 -5.6975,3.577646 m 3.6569,-5.77675 c -2.57056,0 -5.64386,2.146268 -5.64386,4.610352 0,1.13998 0.82136,2.41205 2.96763,2.41205 2.75548,0 5.64386,-2.252741 5.64386,-4.584735 0,-1.563469 -1.32491,-2.437667 -2.96763,-2.437667 M 446.03776,97.93152 c -0.8742,0 -1.05992,-0.714888 -1.05992,-0.953451 0,-1.298488 4.45184,-3.577647 5.69749,-3.577647 0.63564,0 1.05993,0.371454 1.05993,0.954253 0,1.324906 -4.47827,3.576845 -5.6975,3.576845 m 3.6569,-5.776749 c -2.57056,0 -5.64386,2.147068 -5.64386,4.611152 0,1.139179 0.82136,2.411249 2.96763,2.411249 2.75549,0 5.64386,-2.25274 5.64386,-4.583934 0,-1.563469 -1.32491,-2.438467 -2.96763,-2.438467 M 122.80715,23.960143 c 0,1.139179 0.82136,2.411248 2.96763,2.411248 2.75549,0 5.64386,-2.251939 5.64386,-4.584094 0,-1.563389 -1.3249,-2.437827 -2.96763,-2.437827 -2.57056,0 -5.64386,2.172846 -5.64386,4.610673 m 432.1715,76.115247 c 0,1.13918 0.82136,2.41124 2.96763,2.41124 2.75548,0 5.64386,-2.25274 5.64386,-4.583929 0,-1.563469 -1.32491,-2.438468 -2.96763,-2.438468 -2.57056,0 -5.64386,2.173487 -5.64386,4.611157 M 194.70591,27.269606 c 0,1.139178 0.82137,2.411248 2.96763,2.411248 2.75629,0 5.64386,-2.25274 5.64386,-4.583934 0,-1.563469 -1.3249,-2.438067 -2.96763,-2.438067 -2.56975,0 -5.64386,2.173086 -5.64386,4.610753 M 387.91402,97.93152 c -0.875,0 -1.05993,-0.714888 -1.05993,-0.953451 0,-1.298488 4.45185,-3.577647 5.6967,-3.577647 0.63643,0 1.05992,0.371454 1.05992,0.954253 0,1.324906 -4.47826,3.576845 -5.69669,3.576845 m 3.6569,-5.776749 c -2.57056,0 -5.64466,2.147068 -5.64466,4.611152 0,1.139179 0.82136,2.411249 2.96763,2.411249 2.75628,0 5.64466,-2.25274 5.64466,-4.583934 0,-1.563469 -1.32491,-2.438467 -2.96763,-2.438467 m -33.9288,-54.957578 c 0,1.13998 0.82136,2.41205 2.96843,2.41205 2.75548,0 5.64386,-2.252741 5.64386,-4.584735 0,-1.563469 -1.32491,-2.437667 -2.96763,-2.437667 -2.57056,0 -5.64466,2.172686 -5.64466,4.610352 m -4.15564,52.949805 c 0,1.139179 0.82216,2.411248 2.96843,2.411248 2.75548,0 5.64386,-2.251939 5.64386,-4.583934 0,-1.563469 -1.32491,-2.437667 -2.96763,-2.437667 -2.57056,0 -5.64466,2.172686 -5.64466,4.610353 M 384.60456,20.65076 c 0,1.139419 0.82136,2.411329 2.96763,2.411329 2.75628,0 5.64385,-2.25234 5.64385,-4.584175 0,-1.563389 -1.3249,-2.437827 -2.96762,-2.437827 -2.56976,0 -5.64386,2.172846 -5.64386,4.610673 M 321.0475,93.456461 c 0,1.139179 0.82136,2.411248 2.96763,2.411248 2.75548,0 5.64386,-2.251939 5.64386,-4.583934 0,-1.563469 -1.32491,-2.437667 -2.96763,-2.437667 -2.57056,0 -5.64386,2.172686 -5.64386,4.610353 M 411.56619,20.65076 c 0,1.139419 0.82216,2.411329 2.96843,2.411329 2.75549,0 5.64386,-2.25234 5.64386,-4.584175 0,-1.563389 -1.32491,-2.437827 -2.96763,-2.437827 -2.57056,0 -5.64466,2.172846 -5.64466,4.610673 m 36.42731,-6.618686 c 0,1.139419 0.82136,2.411329 2.96763,2.411329 2.75628,0 5.64386,-2.25234 5.64386,-4.584174 0,-1.563389 -1.32491,-2.4378271 -2.96763,-2.4378271 -2.56976,0 -5.64386,2.1728461 -5.64386,4.6106721 m 139.42413,92.661436 c 0,1.13998 0.82136,2.41205 2.96843,2.41205 2.75548,0 5.64386,-2.25274 5.64386,-4.58473 0,-1.56347 -1.32491,-2.43767 -2.96763,-2.43767 -2.57056,0 -5.64466,2.17268 -5.64466,4.61035 M 279.14285,96.765923 c 0,1.139179 0.82136,2.411249 2.96763,2.411249 2.75628,0 5.64466,-2.25274 5.64466,-4.583934 0,-1.563469 -1.32491,-2.438467 -2.96843,-2.438467 -2.56976,0 -5.64386,2.173486 -5.64386,4.611152 M 474.95593,17.341457 c 0,1.139419 0.82137,2.411329 2.96763,2.411329 2.75549,0 5.64386,-2.25234 5.64386,-4.584175 0,-1.563388 -1.3249,-2.437826 -2.96763,-2.437826 -2.57055,0 -5.64386,2.172845 -5.64386,4.610672 M 246.70307,100.07539 c 0,1.13918 0.82136,2.41124 2.96843,2.41124 2.75548,0 5.64386,-2.25274 5.64386,-4.583929 0,-1.563469 -1.32491,-2.438468 -2.96763,-2.438468 -2.57056,0 -5.64466,2.173487 -5.64466,4.611157 M 503.90533,21.816677 c -0.875,0 -1.05993,-0.715449 -1.05993,-0.953932 0,-1.298408 4.45105,-3.577246 5.6967,-3.577246 0.63643,0 1.05992,0.370974 1.05992,0.953932 0,1.324906 -4.47826,3.577246 -5.69669,3.577246 m 3.6561,-5.77659 c -2.56976,0 -5.64386,2.146348 -5.64386,4.610673 0,1.139419 0.82136,2.411329 2.96763,2.411329 2.75628,0 5.64466,-2.25234 5.64466,-4.584175 0,-1.563389 -1.32491,-2.437827 -2.96843,-2.437827 M 214.26409,106.69351 c 0,1.13998 0.82136,2.41205 2.96763,2.41205 2.75548,0 5.64385,-2.25274 5.64385,-4.58473 0,-1.56347 -1.3249,-2.43767 -2.96762,-2.43767 -2.57056,0 -5.64386,2.17268 -5.64386,4.61035 M 95.844718,27.269606 c 0,1.139178 0.821361,2.411248 2.967629,2.411248 2.756283,0 5.644663,-2.25274 5.644663,-4.583934 0,-1.563469 -1.32491,-2.438067 -2.96843,-2.438067 -2.569761,0 -5.643862,2.173086 -5.643862,4.610753 m 80.886502,-3.309463 c 0,1.139179 0.82137,2.411248 2.96763,2.411248 2.75549,0 5.64386,-2.251939 5.64386,-4.584094 0,-1.563389 -1.3249,-2.437827 -2.96763,-2.437827 -2.57056,0 -5.64386,2.172846 -5.64386,4.610673 m 5.09309,76.115247 c 0,1.13918 0.82136,2.41124 2.96763,2.41124 2.75548,0 5.64385,-2.25274 5.64385,-4.583929 0,-1.563469 -1.3249,-2.438468 -2.96763,-2.438468 -2.57055,0 -5.64385,2.173487 -5.64385,4.611157 M 598.9223,20.65076 c 0,1.139419 0.82136,2.411329 2.96762,2.411329 2.75629,0 5.64466,-2.25234 5.64466,-4.584175 0,-1.563389 -1.3249,-2.437827 -2.96843,-2.437827 -2.56975,0 -5.64385,2.172846 -5.64385,4.610673 m 26.96243,3.309383 c 0,1.139179 0.82136,2.411248 2.96763,2.411248 2.75548,0 5.64386,-2.251939 5.64386,-4.584094 0,-1.563389 -1.32491,-2.437827 -2.96763,-2.437827 -2.57056,0 -5.64386,2.172846 -5.64386,4.610673 m 26.96164,-3.309383 c 0,1.139419 0.82136,2.411329 2.96843,2.411329 2.75548,0 5.64385,-2.25234 5.64385,-4.584175 0,-1.563389 -1.3249,-2.437827 -2.96762,-2.437827 -2.57056,0 -5.64466,2.172846 -5.64466,4.610673 M 135.77602,96.765923 c 0,1.139179 0.82136,2.411249 2.96763,2.411249 2.75548,0 5.64386,-2.25274 5.64386,-4.583934 0,-1.563469 -1.32491,-2.438467 -2.96763,-2.438467 -2.57056,0 -5.64386,2.173486 -5.64386,4.611152 M 54.025727,37.197193 c 0,1.13998 0.821362,2.41205 2.967629,2.41205 2.755484,0 5.643859,-2.252741 5.643859,-4.584735 0,-1.563469 -1.324906,-2.437667 -2.967629,-2.437667 -2.570557,0 -5.643859,2.172686 -5.643859,4.610352 m 49.310513,46.330879 c 0,1.13998 0.82136,2.412049 2.96763,2.412049 2.75548,0 5.64386,-2.25274 5.64386,-4.584734 0,-1.563469 -1.32491,-2.437667 -2.96763,-2.437667 -2.57056,0 -5.64386,2.172685 -5.64386,4.610352 M 621.84517,97.93152 c -0.875,0 -1.05993,-0.714888 -1.05993,-0.953451 0,-1.298488 4.45105,-3.577647 5.6967,-3.577647 0.63643,0 1.05992,0.371454 1.05992,0.954253 0,1.324906 -4.47826,3.576845 -5.69669,3.576845 m 3.6561,-5.776749 c -2.56976,0 -5.64386,2.147068 -5.64386,4.611152 0,1.139179 0.82136,2.411249 2.96763,2.411249 2.75628,0 5.64466,-2.25274 5.64466,-4.583934 0,-1.563469 -1.32491,-2.438467 -2.96843,-2.438467 m -554.604808,1.30169 c 0,1.139179 0.821362,2.411248 2.96763,2.411248 2.756284,0 5.643859,-2.251939 5.643859,-4.583934 0,-1.563469 -1.324906,-2.437667 -2.96763,-2.437667 -2.569757,0 -5.643859,2.172686 -5.643859,4.610353 M 253.81033,27.269606 c 0,1.139178 0.82136,2.411248 2.96763,2.411248 2.75628,0 5.64385,-2.25274 5.64385,-4.583934 0,-1.563469 -1.3249,-2.438067 -2.96762,-2.438067 -2.56976,0 -5.64386,2.173086 -5.64386,4.610753 M 149.76879,20.65076 c 0,1.139419 0.82136,2.411329 2.96843,2.411329 2.75548,0 5.64386,-2.25234 5.64386,-4.584175 0,-1.563389 -1.32491,-2.437827 -2.96763,-2.437827 -2.57056,0 -5.64466,2.172846 -5.64466,4.610673 m 342.94122,69.495397 v 20.398783 h 0.66217 V 90.146157 Z m -389.3742,-6.618901 v 22.053514 h 0.66201 V 83.527256 Z M 625.88435,23.959334 v 18.744064 h 0.66202 V 23.959334 Z M 184.67393,4.6752127 V 21.78832 h 0.66201 V 4.6752127 Z M 143.71779,74.142399 v 20.451639 h 0.66218 V 74.142399 Z M 61.967525,12.919131 V 35.02534 h 0.662013 V 12.919131 Z m 590.879165,7.730598 v 20.398946 h 0.66217 V 20.649729 Z m -25.04666,53.49267 v 20.451639 h 0.66202 V 74.142399 Z m -32.43983,8.27284 v 22.106371 h 0.66217 V 82.415239 Z M 189.76615,75.797122 v 22.106363 h 0.66202 V 75.797122 Z M 598.92263,20.649729 v 20.398946 h 0.66217 V 20.649729 Z M 202.64856,6.2711479 V 25.097769 h 0.66201 V 6.2711479 Z M 103.78736,4.6458182 V 25.097769 h 0.66202 V 4.6458182 Z m 45.98176,16.0039108 v 20.398946 h 0.66217 V 20.649729 Z m 72.43687,61.76551 v 22.106371 h 0.66202 V 82.415239 Z m 32.43968,-6.618117 v 22.106363 h 0.66202 V 75.797122 Z M 501.91724,20.649729 v 20.398946 h 0.66202 V 20.649729 Z m -214.83173,53.49267 v 20.451639 h 0.66201 V 74.142399 Z M 474.95553,17.340435 v 22.053517 h 0.66202 V 17.340435 Z M 234.79054,6.3005432 V 28.407223 h 0.66201 V 6.3005432 Z m 213.20249,7.7305978 v 22.053364 h 0.66217 V 14.031141 Z m 114.92749,61.765981 v 22.106363 h 0.66201 V 75.797122 Z M 122.80678,23.959334 v 18.744064 h 0.66201 V 23.959334 Z m 198.24039,69.49627 v 18.744066 h 0.66201 V 93.455604 Z m 90.51939,-72.805875 v 20.398946 h 0.66201 V 20.649729 Z m -58.07971,69.496428 v 20.398783 h 0.66201 V 90.146157 Z m 31.11737,-69.496428 v 20.398946 h 0.66201 V 20.649729 Z m 9.26461,53.49267 v 20.451639 h 0.66218 V 74.142399 Z M 365.58481,12.919131 V 35.02534 h 0.66201 V 12.919131 Z M 261.75303,4.6458182 V 25.097769 h 0.66202 V 4.6458182 Z m 26.96156,8.2733128 V 35.02534 h 0.66201 V 12.919131 Z m 163.27805,61.223268 v 20.451639 h 0.66201 V 74.142399 Z M 38.457074,86.836702 v 22.053518 h 0.662021 V 86.836702 Z m 32.43906,6.618902 v 18.744066 h 0.662013 V 93.455604 Z M 220.79976,27.504966 223.15817,27.02784 v 4.37259 l -2.35841,0.503544 v -4.399008 m 4.1068,-0.821361 c 0.15931,-0.02642 0.2922,-0.212145 0.2922,-0.370654 v -1.563469 c 0,-0.212145 -0.15931,-0.371454 -0.37145,-0.371454 h -0.0528 l -0.87419,0.185727 v -3.948219 h -0.74211 v 4.107528 l -2.35841,0.476326 v -3.735914 h -0.74211 v 3.895223 l -1.03351,0.212145 c -0.15851,0.02642 -0.2914,0.212145 -0.2914,0.370653 v 1.537051 c 0,0.212145 0.15931,0.370654 0.37146,0.370654 h 0.0793 l 0.8742,-0.184927 v 4.37179 l -1.03351,0.212145 c -0.15851,0.02642 -0.2914,0.212145 -0.2914,0.370653 v 1.537051 c 0,0.212145 0.15931,0.371454 0.37146,0.371454 h 0.0793 l 0.8742,-0.185727 v 3.9483 h 0.74211 v -4.107609 l 2.35841,-0.476326 v 3.736155 h 0.74211 v -3.895464 l 1.00628,-0.185727 c 0.15931,-0.02642 0.2922,-0.212145 0.2922,-0.370653 v -1.563469 c 0,-0.212145 -0.15931,-0.370653 -0.37145,-0.370653 h -0.0528 l -0.87419,0.184926 v -4.371789 l 1.00628,-0.185727 m 324.02315,70.317679 2.35842,-0.477126 v 4.372592 l -2.35842,0.50354 v -4.399006 m 4.10761,-0.821361 c 0.15851,-0.02642 0.2914,-0.212145 0.2914,-0.370654 V 94.2458 c 0,-0.212145 -0.15931,-0.371454 -0.37145,-0.371454 h -0.0528 l -0.8742,0.185727 v -3.948299 h -0.7421 v 4.107608 l -2.35842,0.476326 v -3.736155 h -0.7421 v 3.895464 l -1.03351,0.212145 c -0.15851,0.02642 -0.2914,0.212145 -0.2914,0.370653 v 1.537051 c 0,0.212145 0.15931,0.370654 0.37145,0.370654 h 0.0793 l 0.8742,-0.184927 v 4.371787 l -1.03351,0.21215 c -0.15851,0.0264 -0.2914,0.21214 -0.2914,0.37065 v 1.53705 c 0,0.21215 0.15931,0.37146 0.37145,0.37146 h 0.0793 l 0.8742,-0.18573 v 3.9483 h 0.7421 v -4.10761 l 2.35842,-0.47633 v 3.73616 h 0.7421 v -3.89546 l 1.00709,-0.18573 c 0.15851,-0.0264 0.2914,-0.21215 0.2914,-0.37066 v -1.56346 c 0,-0.21215 -0.15931,-0.37066 -0.37145,-0.37066 h -0.0528 l -0.8742,0.18493 v -4.37179 l 1.00709,-0.185727 m -377.26195,0.821361 2.35841,-0.477126 v 4.372592 l -2.35841,0.50354 v -4.399006 m 4.10761,-0.821361 c 0.15851,-0.02642 0.2914,-0.212145 0.2914,-0.370654 V 94.2458 c 0,-0.212145 -0.15931,-0.371454 -0.37066,-0.371454 h -0.0536 l -0.8742,0.185727 v -3.948299 h -0.74211 v 4.107608 l -2.35841,0.476326 v -3.736155 h -0.74131 v 3.895464 l -1.0335,0.212145 c -0.15931,0.02642 -0.2914,0.212145 -0.2914,0.370653 v 1.537051 c 0,0.212145 0.15851,0.370654 0.37065,0.370654 h 0.0793 l 0.875,-0.184927 v 4.371787 l -1.0335,0.21215 c -0.15931,0.0264 -0.2914,0.21214 -0.2914,0.37065 v 1.53705 c 0,0.21215 0.15851,0.37146 0.37065,0.37146 h 0.0793 l 0.875,-0.18573 v 3.9483 h 0.74131 v -4.10761 l 2.35841,-0.47633 v 3.73616 h 0.74211 v -3.89546 l 1.00709,-0.18573 c 0.15851,-0.0264 0.2914,-0.21215 0.2914,-0.37066 v -1.56346 c 0,-0.21215 -0.15931,-0.37066 -0.37066,-0.37066 h -0.0536 l -0.8742,0.18493 v -4.37179 l 1.00709,-0.185727 M 321.21557,9.2458378 V 36.448658 h 1.19127 V 9.2458378 Z m 117.31302,0 V 36.448658 h 1.19128 V 9.2458378 Z m 112.67501,0 V 36.448658 h 3.64014 V 9.2458378 Z m -3.64046,0 V 36.448658 h 1.19129 V 9.2458378 Z m -2.44643,16.9110072 c 0,-0.768526 -0.60922,-1.404961 -1.37775,-1.404961 -0.76852,0 -1.37854,0.636435 -1.37854,1.404961 0,0.768525 0.61002,1.40416 1.37854,1.40416 0.76853,0 1.37775,-0.635635 1.37775,-1.40416 m 0,-6.619006 c 0,-0.768445 -0.60922,-1.4044 -1.37775,-1.4044 -0.76852,0 -1.37854,0.635955 -1.37854,1.4044 0,0.768445 0.61002,1.4044 1.37854,1.4044 0.76853,0 1.37775,-0.635955 1.37775,-1.4044 m 18.57189,6.619006 c 0,-0.768526 -0.60921,-1.404961 -1.37774,-1.404961 -0.76852,0 -1.37774,0.636435 -1.37774,1.404961 0,0.768525 0.60922,1.40416 1.37774,1.40416 0.76853,0 1.37774,-0.635635 1.37774,-1.40416 m 0,-6.619006 c 0,-0.768445 -0.60921,-1.4044 -1.37774,-1.4044 -0.76852,0 -1.37774,0.635955 -1.37774,1.4044 0,0.768445 0.60922,1.4044 1.37774,1.4044 0.76853,0 1.37774,-0.635955 1.37774,-1.4044 M 557.29307,9.2458378 V 36.448658 h 1.19114 V 9.2458378 Z m -6.08947,0 V 36.448658 h 3.64014 V 9.2458378 Z M 677.35954,78.742416 v 27.202514 h 3.64015 V 78.742416 Z m -3.63967,0 V 105.94493 H 674.911 V 78.742416 Z m -2.44731,16.910747 c 0,-0.768526 -0.60921,-1.404961 -1.37774,-1.404961 -0.76852,0 -1.37774,0.636435 -1.37774,1.404961 0,0.768525 0.60922,1.40416 1.37774,1.40416 0.76853,0 1.37774,-0.635635 1.37774,-1.40416 m 0,-6.618926 c 0,-0.768526 -0.60921,-1.40416 -1.37774,-1.40416 -0.76852,0 -1.37774,0.635634 -1.37774,1.40416 0,0.768525 0.60922,1.40416 1.37774,1.40416 0.76853,0 1.37774,-0.635635 1.37774,-1.40416 M 86.379838,9.2458378 V 36.448658 h 1.191287 V 9.2458378 Z m 593.429032,0 V 36.448658 H 681 V 9.2458378 Z M 168.21502,78.742416 v 27.202514 h 1.19112 V 78.742416 Z m 143.36755,0 v 27.202514 h 1.19129 V 78.742416 Z m 123.00332,0 v 27.202514 h 1.19129 V 78.742416 Z m 106.78349,0 v 27.202514 h 1.19112 V 78.742416 Z M 213.23939,9.2458378 V 36.448658 h 1.19128 V 9.2458378 Z M 0,105.21693 v 0.72769 h 681 v -0.72769 z m 0,-6.618121 v 0.727681 h 681 v -0.727681 z m 0,-6.618902 v 0.727682 h 681 v -0.727682 z m 0,-6.619054 v 0.727842 h 681 v -0.727842 z m 0,-6.618901 v 0.727681 H 681 V 78.741952 Z M 0,35.720656 v 0.727689 h 681 v -0.727689 z m 0,-6.618269 v 0.727841 h 681 v -0.727841 z m 0,-6.61906 v 0.727685 h 681 v -0.727685 z m 0,-6.618588 v 0.727684 H 681 V 15.864739 Z M 0,9.2459947 V 9.9736795 H 681 V 9.2459947 Z"
     style="stroke-width:0.0800547" />
  <metadata
     id="metadata101">
    <rdf:RDF>
      <cc:Work
         rdf:about="">
        <dc:title>air_XXXI</dc:title>
      </cc:Work>
    </rdf:RDF>
  </metadata>
</svg>
