<?xml version="1.0" encoding="UTF-8" standalone="no"?>
<svg
   width="681"
   height="186.10622"
   version="1.2"
   id="svg176"
   xmlns="http://www.w3.org/2000/svg"
   xmlns:svg="http://www.w3.org/2000/svg"
   xmlns:rdf="http://www.w3.org/1999/02/22-rdf-syntax-ns#"
   xmlns:cc="http://creativecommons.org/ns#"
   xmlns:dc="http://purl.org/dc/elements/1.1/">
  <defs
     id="defs176" />
  <title
     id="title1">air_XXIII</title>
  <desc
     id="desc1">Generated by MuseScore Studio 4.7.3</desc>
  <path
     id="path176"
     class="NoteDot"
     d="m 620.78604,165.14948 c 0,0.74211 0.5836,1.32491 1.32491,1.32491 0.74211,0 1.32491,-0.5828 1.32491,-1.32491 0,-0.74211 -0.5828,-1.32491 -1.32491,-1.32491 -0.74131,0 -1.32491,0.5828 -1.32491,1.32491 M 273.72474,95.653163 c 0,0.741306 0.5828,1.324906 1.32491,1.324906 0.74131,0 1.3249,-0.5836 1.3249,-1.324906 0,-0.742108 -0.58359,-1.324906 -1.3249,-1.324906 -0.74211,0 -1.32491,0.582798 -1.32491,1.324906 M 69.051201,171.76761 c 0,0.7421 0.582798,1.3249 1.324906,1.3249 0.742107,0 1.324906,-0.5828 1.324906,-1.3249 0,-0.74131 -0.582799,-1.32491 -1.324906,-1.32491 -0.742108,0 -1.324906,0.5836 -1.324906,1.32491 m 247.793429,-95.978429 17.17254,1.654731 v 3.324673 L 316.84463,79.113854 V 75.789181 M 79.720896,9.6031261 98.105463,7.9484747 V 11.271227 L 79.720896,12.925878 V 9.6031261 M 307.70638,7.9484747 326.09095,6.2938234 V 9.6164953 L 307.70638,11.271227 V 7.9484747 M 527.74963,36.078028 546.1342,34.423297 v 3.323072 L 527.74963,39.4003 v -3.322272 m 16.42964,41.365884 17.17254,1.654731 v 3.324674 l -17.17254,-1.654732 v -3.324673 m -414.25285,71.154248 23.3976,-1.65473 v 3.31827 l -23.3976,1.65393 v -3.31747 m 303.12486,-1.65473 23.3976,1.65473 v 3.31747 l -23.3976,-1.65393 v -3.31827 M 52.349381,32.792582 v 1.96054 h -2.199104 c -0.185727,0 -0.371454,0.159309 -0.371454,0.370654 v 0.503544 c 0,0.212145 0.185727,0.371454 0.371454,0.371454 h 8.02869 c 0.212145,0 0.370653,-0.159309 0.370653,-0.371454 v -0.503544 c 0,-0.211345 -0.158508,-0.370654 -0.370653,-0.370654 h -2.384831 v -1.96054 h 2.384831 c 0.212145,0 0.370653,-0.185727 0.370653,-0.397872 v -0.503544 c 0,-0.184927 -0.158508,-0.370654 -0.370653,-0.370654 h -2.384831 v -4.213281 c 0,-0.159309 -0.07925,-0.291399 -0.185727,-0.344235 l -0.317817,-0.159309 c -0.05284,-0.02642 -0.07925,-0.02642 -0.132891,-0.02642 -0.105672,0 -0.211344,0 -0.291399,0.07925 l -2.411249,2.199904 c -0.07925,0.07925 -0.105672,0.184927 -0.105672,0.2914 v 2.172685 h -3.074102 c 0,0 2.967629,-3.179774 6.094567,-7.366637 0.106473,-0.13209 0.132891,-0.264981 0.132891,-0.370653 0,-0.132891 -0.05284,-0.238563 -0.08006,-0.264981 l -0.582798,-0.583279 c -0.07925,-0.053 -0.158509,-0.105993 -0.264981,-0.105993 -0.158509,0 -3.736155,0 -3.9483,0 -0.184926,0 -0.317817,0.158989 -0.344235,0.317978 0,0 -0.132091,1.961181 -0.821362,4.107448 -0.689271,2.146268 -1.484215,3.471174 -2.172686,4.451844 0,0 -0.08005,0.13209 -0.08005,0.291399 0,0.05284 0,0.105673 0.02722,0.158509 0.07926,0.185727 0.264982,0.477126 0.264982,0.477126 0,0 0.05284,0.159309 0.291399,0.159309 h 4.557516 m 0,-13.159878 v 1.960861 h -2.199104 c -0.185727,0 -0.371454,0.158988 -0.371454,0.370973 v 0.503464 c 0,0.211985 0.185727,0.370974 0.371454,0.370974 h 8.02869 c 0.212145,0 0.370653,-0.158989 0.370653,-0.370974 v -0.503464 c 0,-0.211985 -0.158508,-0.370973 -0.370653,-0.370973 h -2.384831 v -1.960861 h 2.384831 c 0.212145,0 0.370653,-0.185487 0.370653,-0.397472 v -0.503464 c 0,-0.185487 -0.158508,-0.370974 -0.370653,-0.370974 h -2.384831 v -4.213201 c 0,-0.158988 -0.07925,-0.291479 -0.185727,-0.344475 l -0.317817,-0.158989 c -0.05284,-0.0265 -0.07925,-0.0265 -0.132891,-0.0265 -0.105672,0 -0.211344,0 -0.291399,0.07949 l -2.411249,2.199344 c -0.07925,0.07949 -0.105672,0.185487 -0.105672,0.291479 v 2.172846 H 49.27528 c 0,0 2.967629,-3.179774 6.094567,-7.366477 0.106473,-0.13249 0.132891,-0.264981 0.132891,-0.370973 0,-0.132491 -0.05284,-0.238483 -0.08006,-0.264981 L 54.839884,9.7754039 c -0.07925,-0.052996 -0.158509,-0.1059925 -0.264981,-0.1059925 -0.158509,0 -3.736155,0 -3.9483,0 -0.184926,0 -0.317817,0.1589887 -0.344235,0.3179775 0,0 -0.132091,1.9608611 -0.821362,4.1072081 -0.689271,2.146348 -1.484215,3.471254 -2.172686,4.451684 0,0 -0.08005,0.132491 -0.08005,0.291479 0,0.053 0,0.105993 0.02722,0.158989 0.07926,0.185487 0.264982,0.476966 0.264982,0.476966 0,0 0.05284,0.158989 0.291399,0.158989 h 4.557516 M 36.194335,87.073696 38.552748,86.59657 v 4.371789 l -2.358413,0.503545 v -4.398208 m 4.107609,-0.822162 c 0.159308,-0.02642 0.291399,-0.211344 0.291399,-0.370653 v -1.563469 c 0,-0.212145 -0.159309,-0.370654 -0.370654,-0.370654 h -0.05364 l -0.874198,0.184927 v -3.947499 h -0.742107 v 4.106808 l -2.358413,0.477126 v -3.736155 h -0.741307 v 3.894663 l -1.033507,0.212145 c -0.159308,0.02642 -0.291399,0.212145 -0.291399,0.371454 v 1.536251 c 0,0.212145 0.158509,0.371454 0.370654,0.371454 h 0.07925 l 0.874998,-0.185727 v 4.37259 l -1.033507,0.211344 c -0.159308,0.02722 -0.291399,0.212145 -0.291399,0.371454 v 1.537051 c 0,0.211344 0.158509,0.370653 0.370654,0.370653 h 0.07925 l 0.874998,-0.185727 v 3.9483 h 0.741307 v -4.106808 l 2.358413,-0.477126 v 3.736154 h 0.742107 V 93.114627 L 40.301944,92.9297 c 0.159308,-0.02642 0.291399,-0.212145 0.291399,-0.371454 v -1.563469 c 0,-0.211344 -0.159309,-0.370653 -0.370654,-0.370653 h -0.05364 l -0.874198,0.185727 v -4.37259 l 1.007089,-0.185727 m -11.361369,-9.106226 2.358413,-0.477126 v 4.372589 l -2.358413,0.503545 v -4.399008 m 4.107609,-0.821362 c 0.159309,-0.02642 0.291399,-0.212145 0.291399,-0.371454 v -1.562668 c 0,-0.212145 -0.159309,-0.371454 -0.370653,-0.371454 h -0.05364 l -0.874198,0.185727 v -3.9483 h -0.742107 v 4.106808 l -2.358413,0.477126 v -3.736154 h -0.741307 v 3.895463 l -1.033506,0.212145 c -0.159309,0.02642 -0.2914,0.211345 -0.2914,0.370654 v 1.537051 c 0,0.212145 0.158509,0.370653 0.370654,0.370653 h 0.07925 l 0.874998,-0.184926 v 4.371789 l -1.033506,0.212145 c -0.159309,0.02642 -0.2914,0.212145 -0.2914,0.370654 v 1.53705 c 0,0.212146 0.158509,0.370654 0.370654,0.370654 h 0.07925 l 0.874998,-0.184927 v 3.9483 h 0.741307 v -4.107608 l 2.358413,-0.477127 v 3.736155 h 0.742107 v -3.894663 l 1.007089,-0.185727 c 0.159309,-0.02642 0.291399,-0.212145 0.291399,-0.370653 v -1.56347 c 0,-0.212145 -0.159309,-0.371453 -0.370653,-0.371453 h -0.05364 l -0.874198,0.185726 v -4.371789 l 1.007089,-0.185727 m 3.146151,-58.746968 2.358413,-0.476966 v 4.37219 l -2.358413,0.503464 v -4.398688 m 4.107609,-0.821441 c 0.159308,-0.0265 0.291399,-0.211985 0.291399,-0.370974 v -1.563389 c 0,-0.211985 -0.159309,-0.370974 -0.370654,-0.370974 h -0.05364 l -0.874198,0.185487 v -3.948219 h -0.742107 v 4.107208 l -2.358413,0.476966 v -3.736235 h -0.741307 v 3.895224 l -1.033507,0.211985 c -0.159308,0.0265 -0.291399,0.211985 -0.291399,0.370973 v 1.536891 c 0,0.211985 0.158509,0.370974 0.370654,0.370974 h 0.07925 l 0.874998,-0.185487 v 4.372189 l -1.033507,0.211985 c -0.159308,0.0265 -0.291399,0.211985 -0.291399,0.370974 v 1.537211 c 0,0.211345 0.158509,0.370653 0.370654,0.370653 H 34.578 l 0.874998,-0.185727 v 3.9483 h 0.741307 v -4.106808 l 2.358413,-0.477126 v 3.736154 h 0.742107 v -3.895463 l 1.007089,-0.184926 c 0.159308,-0.02642 0.291399,-0.212306 0.291399,-0.371294 V 21.4987 c 0,-0.211985 -0.159309,-0.370974 -0.370654,-0.370974 h -0.05364 l -0.874198,0.185487 v -4.37219 L 40.30191,16.755537 M 28.940575,7.64899 31.298988,7.1720239 v 4.3721891 l -2.358413,0.503465 V 7.64899 m 4.107609,-0.8214417 c 0.159309,-0.026498 0.291399,-0.2119849 0.291399,-0.3709736 v -1.563389 c 0,-0.2119849 -0.159309,-0.3709736 -0.370653,-0.3709736 H 32.91529 L 32.041095,4.7076989 V 0.75947929 H 31.298988 V 4.8666876 L 28.940575,5.3436537 V 1.6074191 h -0.741307 v 3.8952233 l -1.033506,0.211985 c -0.159309,0.026498 -0.2914,0.2119849 -0.2914,0.3709736 v 1.5368909 c 0,0.2119849 0.158509,0.3709736 0.370654,0.3709736 h 0.07925 l 0.874998,-0.1854868 v 4.3721893 l -1.033506,0.211985 c -0.159309,0.0265 -0.2914,0.211985 -0.2914,0.370974 v 1.536891 c 0,0.211985 0.158509,0.370973 0.370654,0.370973 h 0.07925 l 0.874998,-0.185487 v 3.94822 h 0.741307 V 14.326516 L 31.29898,13.84955 v 3.736234 h 0.742107 v -3.895223 l 1.007089,-0.185487 c 0.159309,-0.0265 0.291399,-0.211985 0.291399,-0.370974 v -1.563389 c 0,-0.211984 -0.159309,-0.370973 -0.370653,-0.370973 h -0.05364 l -0.874198,0.185487 V 7.0130351 l 1.007089,-0.1854868 m 3.146151,149.7424617 2.358413,-0.47712 v 4.37179 l -2.358413,0.50354 v -4.39821 m 4.107609,-0.82216 c 0.159308,-0.0264 0.291399,-0.21134 0.291399,-0.37065 v -1.56347 c 0,-0.21215 -0.159309,-0.37065 -0.370654,-0.37065 h -0.05364 L 39.29484,153.628 v -3.9475 h -0.742107 v 4.10681 l -2.358413,0.47713 v -3.73616 h -0.741307 v 3.89467 l -1.033507,0.21214 c -0.159308,0.0264 -0.291399,0.21215 -0.291399,0.37146 v 1.53625 c 0,0.21214 0.158509,0.37145 0.370654,0.37145 h 0.07925 l 0.874998,-0.18573 v 4.37259 l -1.033507,0.21135 c -0.159308,0.0272 -0.291399,0.21214 -0.291399,0.37145 v 1.53705 c 0,0.21135 0.158509,0.37066 0.370654,0.37066 h 0.07925 l 0.874998,-0.18573 v 3.9483 h 0.741307 v -4.10681 l 2.358413,-0.47713 v 3.73616 h 0.742107 v -3.89547 l 1.007089,-0.18492 c 0.159308,-0.0264 0.291399,-0.21215 0.291399,-0.37146 v -1.56346 c 0,-0.21135 -0.159309,-0.37066 -0.370654,-0.37066 h -0.05364 l -0.874198,0.18573 v -4.37259 l 1.007089,-0.18573 m -11.361369,-9.10622 2.358413,-0.47713 v 4.37259 l -2.358413,0.50354 v -4.399 m 4.107609,-0.82137 c 0.159309,-0.0264 0.291399,-0.21214 0.291399,-0.37065 v -1.56347 c 0,-0.21214 -0.159309,-0.37145 -0.370653,-0.37145 h -0.05364 l -0.874198,0.18572 v -3.94829 h -0.742107 v 4.1076 l -2.358413,0.47633 v -3.73616 h -0.741307 v 3.89547 l -1.033506,0.21214 c -0.159309,0.0264 -0.2914,0.21215 -0.2914,0.37066 v 1.53705 c 0,0.21214 0.158509,0.37065 0.370654,0.37065 h 0.07925 l 0.874998,-0.18493 v 4.37179 l -1.033506,0.21215 c -0.159309,0.0264 -0.2914,0.21214 -0.2914,0.37065 v 1.53705 c 0,0.21215 0.158509,0.37146 0.370654,0.37146 h 0.07925 l 0.874998,-0.18573 v 3.9483 h 0.741307 v -4.10761 l 2.358413,-0.47712 v 3.73695 h 0.742107 v -3.89546 l 1.007089,-0.18573 c 0.159309,-0.0264 0.291399,-0.21215 0.291399,-0.37065 v -1.56347 c 0,-0.21215 -0.159309,-0.37146 -0.370653,-0.37146 h -0.05364 l -0.874198,0.18573 v -4.37179 l 1.007089,-0.18573 M 16.09327,104.42076 c -0.529962,0.10647 -1.033427,0.15931 -1.536891,0.15931 -3.789231,0 -7.0220012,-2.64982 -7.0220012,-6.650951 0,-3.233411 2.2788382,-6.120985 4.6106722,-8.135163 0.450468,-0.397872 0.874438,-0.768525 1.27191,-1.165597 0.238483,1.430579 0.42397,2.67623 0.609457,3.762573 -2.411329,0.714889 -4.0542123,3.259028 -4.0542123,5.749531 0,1.854869 1.4573963,4.399007 3.5772463,4.399007 0.211985,0 0.450468,-0.10567 0.450468,-0.34423 0,-0.23857 -0.264982,-0.37146 -0.582959,-0.5828 -1.033427,-0.63644 -1.616385,-1.32491 -1.616385,-2.623396 0,-1.616306 1.192415,-2.914793 2.755804,-3.286247 l 1.536891,8.717963 M 13.761477,77.180532 c 0.238483,-1.059925 1.457396,-3.841827 2.835298,-3.841827 0.397472,0 1.033427,1.298488 1.033427,3.126938 0,2.755484 -2.040355,4.822498 -3.868725,6.62453 -0.158989,-1.059925 -0.29148,-2.093432 -0.29148,-3.206193 0,-0.98067 0.0795,-1.882086 0.29148,-2.703448 m 6.094567,22.338474 c 0,1.881284 -0.768446,3.815404 -2.649812,4.583934 -0.556461,-3.17977 -1.27191,-7.393055 -1.457397,-8.558652 2.384831,0 4.107209,1.616305 4.107209,3.974718 M 8.1968718,112.55592 c 0,1.7484 1.351404,4.05397 4.9286502,4.05397 1.245411,0 2.331834,-0.31782 3.285766,-0.90061 1.430899,-1.00709 1.801872,-2.75629 1.801872,-4.42543 0,-1.03351 -0.158988,-2.22552 -0.423969,-3.73615 -0.07949,-0.52997 -0.238484,-1.32491 -0.397472,-2.35842 2.596815,-0.84778 4.531178,-3.55042 4.531178,-6.280291 0,-4.001136 -2.835299,-6.703784 -6.704024,-6.703784 -0.264981,-1.589887 -0.529962,-3.153356 -0.768445,-4.63677 2.8088,-2.942012 4.743163,-6.253876 4.743163,-10.467157 0,-2.411249 -0.741948,-4.371789 -1.165917,-5.326042 -0.635955,-1.351324 -1.404401,-2.279158 -1.881367,-2.279158 -0.185487,0 -1.006928,0.318618 -1.881366,1.351324 -1.69588,2.014177 -2.172846,5.406096 -2.172846,7.631618 0,1.431379 0.132491,2.729866 0.582959,5.697495 -0.0265,0.02642 -1.404401,1.430579 -1.960861,1.881287 -2.4113287,2.25194 -5.7500916,5.458132 -5.7500916,10.757755 0,4.955393 4.3191932,8.850853 9.2478436,8.850853 0.768445,0 1.483894,-0.0793 2.093351,-0.18573 0.503464,2.54414 0.794943,4.39901 0.794943,5.80317 0,2.75548 -1.4044,4.21328 -4.08071,4.21328 -0.635955,0 -1.192415,-0.13289 -1.245411,-0.13289 -0.0265,-0.0264 -0.07949,-0.0528 -0.07949,-0.0793 0,-0.0528 0.053,-0.0793 0.132491,-0.10568 1.245412,-0.18572 2.490823,-1.24565 2.490823,-2.94121 0,-1.43138 -1.086423,-2.94121 -3.073782,-2.94121 -1.8548679,0 -3.0472832,1.50983 -3.0472832,3.25903 m 7.8964392,61.36116 c -0.529962,0.10647 -1.033427,0.1593 -1.536891,0.1593 -3.789231,0 -7.0220012,-2.64981 -7.0220012,-6.65094 0,-3.23341 2.2788382,-6.12099 4.6106722,-8.13517 0.450468,-0.39787 0.874438,-0.76852 1.27191,-1.16559 0.238483,1.43058 0.42397,2.67623 0.609457,3.76257 -2.411329,0.71489 -4.0542123,3.25903 -4.0542123,5.74953 0,1.85487 1.4573963,4.39901 3.5772463,4.39901 0.211985,0 0.450468,-0.10567 0.450468,-0.34424 0,-0.23856 -0.264982,-0.37145 -0.582959,-0.58279 -1.033427,-0.63644 -1.616385,-1.32491 -1.616385,-2.6234 0,-1.6163 1.192415,-2.91479 2.755804,-3.28625 l 1.536891,8.71797 M 13.761482,146.6768 c 0.238483,-1.05992 1.457396,-3.84183 2.835298,-3.84183 0.397472,0 1.033427,1.29849 1.033427,3.12694 0,2.75549 -2.040355,4.8225 -3.868725,6.62453 -0.158989,-1.05992 -0.29148,-2.09343 -0.29148,-3.20619 0,-0.98067 0.0795,-1.88209 0.29148,-2.70345 m 6.094567,22.33847 c 0,1.88129 -0.768446,3.81541 -2.649812,4.58394 -0.556461,-3.17978 -1.27191,-7.39306 -1.457397,-8.55865 2.384831,0 4.107209,1.6163 4.107209,3.97471 M 8.1968718,182.05224 c 0,1.74839 1.351404,4.05397 4.9286502,4.05397 1.245411,0 2.331834,-0.31782 3.285766,-0.90062 1.430899,-1.00708 1.801872,-2.75628 1.801872,-4.42542 0,-1.03351 -0.158988,-2.22552 -0.423969,-3.73616 -0.07949,-0.52996 -0.238484,-1.3249 -0.397472,-2.35841 2.596815,-0.84778 4.531178,-3.55043 4.531178,-6.28029 0,-4.00114 -2.835299,-6.70379 -6.704024,-6.70379 -0.264981,-1.58988 -0.529962,-3.15335 -0.768445,-4.63677 2.8088,-2.94201 4.743163,-6.25387 4.743163,-10.46715 0,-2.41125 -0.741948,-4.37179 -1.165917,-5.32605 -0.635955,-1.35132 -1.404401,-2.27915 -1.881367,-2.27915 -0.185487,0 -1.006928,0.31861 -1.881366,1.35132 -1.69588,2.01418 -2.172846,5.4061 -2.172846,7.63162 0,1.43138 0.132491,2.72986 0.582959,5.69749 -0.0265,0.0264 -1.404401,1.43058 -1.960861,1.88129 -2.4113287,2.25194 -5.7500916,5.45813 -5.7500916,10.75776 0,4.95538 4.3191932,8.85085 9.2478436,8.85085 0.768445,0 1.483894,-0.0793 2.093351,-0.18573 0.503464,2.54414 0.794943,4.39901 0.794943,5.80317 0,2.75548 -1.4044,4.21328 -4.08071,4.21328 -0.635955,0 -1.192415,-0.13289 -1.245411,-0.13289 -0.0265,-0.0264 -0.07949,-0.0528 -0.07949,-0.0793 0,-0.0528 0.053,-0.0792 0.132491,-0.10567 1.245412,-0.18573 2.490823,-1.24565 2.490823,-2.94121 0,-1.43138 -1.086423,-2.94121 -3.073782,-2.94121 -1.8548679,0 -3.0472832,1.50983 -3.0472832,3.25903 M 16.093311,34.924439 c -0.529962,0.106473 -1.033427,0.159309 -1.536891,0.159309 -3.789231,0 -7.0220012,-2.649811 -7.0220012,-6.650947 0,-3.233411 2.2788382,-6.121386 4.6106722,-8.135243 0.450468,-0.397471 0.874438,-0.768445 1.27191,-1.165917 0.238483,1.430899 0.42397,2.67631 0.609457,3.762733 -2.411329,0.715129 -4.0542123,3.259268 -4.0542123,5.749771 0,1.854869 1.4573963,4.399008 3.5772463,4.399008 0.211985,0 0.450468,-0.105672 0.450468,-0.344235 0,-0.238563 -0.264982,-0.371454 -0.582959,-0.582799 -1.033427,-0.636435 -1.616385,-1.324906 -1.616385,-2.623393 0,-1.616306 1.192415,-2.914793 2.755804,-3.286247 l 1.536891,8.71796 M 13.761477,7.6844542 c 0.238483,-1.0599247 1.457396,-3.8422271 2.835298,-3.8422271 0.397472,0 1.033427,1.2984078 1.033427,3.1267779 0,2.7558043 -2.040355,4.822658 -3.868725,6.62453 -0.158989,-1.059925 -0.29148,-2.093352 -0.29148,-3.206273 0,-0.9804301 0.0795,-1.8813661 0.29148,-2.7028078 m 6.094567,22.3382338 c 0,1.881286 -0.768446,3.815409 -2.649812,4.583934 -0.556461,-3.179774 -1.27191,-7.393055 -1.457397,-8.558652 2.384831,0 4.107209,1.616305 4.107209,3.974718 M 8.1968718,43.059602 c 0,1.748395 1.351404,4.053972 4.9286502,4.053972 1.245411,0 2.331834,-0.317818 3.285766,-0.900616 1.430899,-1.007089 1.801872,-2.756285 1.801872,-4.425426 0,-1.033507 -0.158988,-2.225522 -0.423969,-3.736154 -0.07949,-0.529963 -0.238484,-1.324906 -0.397472,-2.358413 2.596815,-0.84778 4.531178,-3.550428 4.531178,-6.280294 0,-4.001136 -2.835299,-6.703784 -6.704024,-6.703784 -0.264981,-1.589887 -0.529962,-3.153276 -0.768445,-4.637171 2.8088,-2.941291 4.743163,-6.253555 4.743163,-10.4667561 0,-2.4113288 -0.741948,-4.3721895 -1.165917,-5.3261218 C 17.391719,0.92743413 16.623273,0 16.146307,0 15.96082,0 15.139379,0.31797742 14.264941,1.351404 c -1.69588,2.013857 -2.172846,5.4056161 -2.172846,7.631458 0,1.430898 0.132491,2.729306 0.582959,5.697095 -0.0265,0.0265 -1.404401,1.430899 -1.960861,1.881367 -2.4113287,2.25234 -5.7500916,5.458612 -5.7500916,10.757915 0,4.955389 4.3191932,8.850852 9.2478436,8.850852 0.768445,0 1.483894,-0.07925 2.093351,-0.185727 0.503464,2.54414 0.794943,4.399008 0.794943,5.803168 0,2.755484 -1.4044,4.213281 -4.08071,4.213281 -0.635955,0 -1.192415,-0.132891 -1.245411,-0.132891 -0.0265,-0.02642 -0.07949,-0.05284 -0.07949,-0.07925 0,-0.05284 0.053,-0.07925 0.132491,-0.105672 1.245412,-0.185727 2.490823,-1.245652 2.490823,-2.941211 0,-1.431379 -1.086423,-2.941211 -3.073782,-2.941211 -1.8548679,0 -3.0472832,1.509832 -3.0472832,3.259028 M 402.9427,110.00297 c 0,1.13998 0.82136,2.41125 2.96762,2.41125 2.75629,0 5.64386,-2.25194 5.64386,-4.58393 0,-1.56347 -1.3249,-2.43767 -2.96763,-2.43767 -2.56975,0 -5.64385,2.17269 -5.64385,4.61035 m 22.16635,59.56873 c 0,1.13918 0.82136,2.41125 2.96763,2.41125 2.75548,0 5.64386,-2.25274 5.64386,-4.58393 0,-1.56347 -1.32491,-2.43847 -2.96763,-2.43847 -2.57056,0 -5.64386,2.17349 -5.64386,4.61115 M 227.57879,103.38485 c 0,1.13918 0.82216,2.41125 2.96843,2.41125 2.75548,0 5.64386,-2.25274 5.64386,-4.58474 0,-1.562665 -1.32491,-2.437664 -2.96763,-2.437664 -2.57056,0 -5.64466,2.172684 -5.64466,4.611154 m 163.42694,62.87739 c 0,1.13918 0.82136,2.41125 2.96763,2.41125 2.75549,0 5.64386,-2.25194 5.64386,-4.58393 0,-1.56347 -1.3249,-2.43767 -2.96763,-2.43767 -2.57056,0 -5.64386,2.17268 -5.64386,4.61035 M 308.9024,96.765923 c 0,1.139179 0.82136,2.411249 2.96762,2.411249 2.75549,0 5.64386,-2.25274 5.64386,-4.583934 0,-1.563469 -1.3249,-2.438467 -2.96763,-2.438467 -2.57055,0 -5.64385,2.173486 -5.64385,4.611152 m 48.00002,72.805777 c 0,1.13918 0.82136,2.41125 2.96762,2.41125 2.75549,0 5.64386,-2.25274 5.64386,-4.58393 0,-1.56347 -1.3249,-2.43847 -2.96763,-2.43847 -2.57055,0 -5.64385,2.17349 -5.64385,4.61115 M 71.778666,33.888531 c 0,1.139179 0.821361,2.411249 2.967629,2.411249 2.755484,0 5.643856,-2.25274 5.643856,-4.584735 0,-1.563469 -1.324903,-2.437667 -2.967626,-2.437667 -2.570558,0 -5.643859,2.172686 -5.643859,4.611153 M 322.7991,172.88117 c 0,1.13918 0.82136,2.41125 2.96763,2.41125 2.75548,0 5.64386,-2.25274 5.64386,-4.58474 0,-1.56267 -1.32491,-2.43767 -2.96763,-2.43767 -2.57056,0 -5.64386,2.17269 -5.64386,4.61116 M 89.50118,30.579068 c 0,1.139179 0.821362,2.411249 2.96843,2.411249 2.755484,0 5.643859,-2.25274 5.643859,-4.583934 0,-1.563469 -1.324906,-2.438468 -2.967629,-2.438468 -2.570558,0 -5.64466,2.173487 -5.64466,4.611153 m 27.99834,-3.309462 c 0,1.139178 0.82137,2.411248 2.96763,2.411248 2.75629,0 5.64466,-2.25274 5.64466,-4.583934 0,-1.563469 -1.3249,-2.438067 -2.96843,-2.438067 -2.56975,0 -5.64386,2.173086 -5.64386,4.610753 m 26.58458,0 c 0,1.139178 0.82136,2.411248 2.96763,2.411248 2.75628,0 5.64466,-2.25274 5.64466,-4.583934 0,-1.563469 -1.32491,-2.438067 -2.96843,-2.438067 -2.56976,0 -5.64386,2.173086 -5.64386,4.610753 M 279.23091,176.18983 c 0,1.13998 0.82136,2.41205 2.96763,2.41205 2.75548,0 5.64386,-2.25274 5.64386,-4.58474 0,-1.56347 -1.32491,-2.43766 -2.96763,-2.43766 -2.57056,0 -5.64386,2.17268 -5.64386,4.61035 M 170.66868,27.269606 c 0,1.139178 0.82136,2.411248 2.96763,2.411248 2.75628,0 5.64466,-2.25274 5.64466,-4.583934 0,-1.563469 -1.32491,-2.438067 -2.96843,-2.438067 -2.56976,0 -5.64386,2.173086 -5.64386,4.610753 m 74.45811,152.229684 c 0,1.13998 0.82216,2.41125 2.96843,2.41125 2.75548,0 5.64386,-2.25194 5.64386,-4.58393 0,-1.56347 -1.32491,-2.43767 -2.96763,-2.43767 -2.57056,0 -5.64466,2.17269 -5.64466,4.61035 M 197.25326,27.269606 c 0,1.139178 0.82136,2.411248 2.96762,2.411248 2.75629,0 5.64386,-2.25274 5.64386,-4.583934 0,-1.563469 -1.3249,-2.438067 -2.96763,-2.438067 -2.56975,0 -5.64385,2.173086 -5.64385,4.610753 m 13.77021,152.229684 c 0,1.13998 0.82136,2.41125 2.96843,2.41125 2.75548,0 5.64386,-2.25194 5.64386,-4.58393 0,-1.56347 -1.32491,-2.43767 -2.96763,-2.43767 -2.57056,0 -5.64466,2.17269 -5.64466,4.61035 M 235.28966,28.435202 c -0.8742,0 -1.05992,-0.714888 -1.05992,-0.953451 0,-1.298488 4.45184,-3.577647 5.69749,-3.577647 0.63564,0 1.05993,0.371454 1.05993,0.954253 0,1.324906 -4.47826,3.576845 -5.6975,3.576845 m 3.6569,-5.776349 c -2.57055,0 -5.64386,2.146668 -5.64386,4.610753 0,1.139178 0.82137,2.411248 2.96763,2.411248 2.75549,0 5.64386,-2.25274 5.64386,-4.583934 0,-1.563469 -1.3249,-2.438067 -2.96763,-2.438067 M 176.92015,172.88117 c 0,1.13918 0.82136,2.41125 2.96763,2.41125 2.75629,0 5.64466,-2.25274 5.64466,-4.58474 0,-1.56267 -1.3249,-2.43767 -2.96843,-2.43767 -2.56976,0 -5.64386,2.17269 -5.64386,4.61116 M 273.17957,27.269606 c 0,1.139178 0.82136,2.411248 2.96763,2.411248 2.75548,0 5.64386,-2.25274 5.64386,-4.583934 0,-1.563469 -1.32491,-2.438067 -2.96763,-2.438067 -2.57056,0 -5.64386,2.173086 -5.64386,4.610753 m 26.58458,3.309462 c 0,1.139179 0.82136,2.411249 2.96763,2.411249 2.75548,0 5.64386,-2.25274 5.64386,-4.583934 0,-1.563469 -1.32491,-2.438468 -2.96763,-2.438468 -2.57056,0 -5.64386,2.173487 -5.64386,4.611153 m 17.72251,-3.309462 c 0,1.139178 0.82137,2.411248 2.96843,2.411248 2.75549,0 5.64386,-2.25274 5.64386,-4.583934 0,-1.563469 -1.3249,-2.438067 -2.96763,-2.438067 -2.57055,0 -5.64466,2.173086 -5.64466,4.610753 M 144.71974,169.5717 c 0,1.13918 0.82136,2.41125 2.96762,2.41125 2.75629,0 5.64466,-2.25274 5.64466,-4.58393 0,-1.56347 -1.3249,-2.43847 -2.96762,-2.43847 -2.57056,0 -5.64466,2.17349 -5.64466,4.61115 M 345.48501,23.960143 c 0,1.139179 0.82136,2.411248 2.96763,2.411248 2.75628,0 5.64466,-2.251939 5.64466,-4.584094 0,-1.563389 -1.32491,-2.437827 -2.96843,-2.437827 -2.56976,0 -5.64386,2.172846 -5.64386,4.610673 m 26.58458,3.309463 c 0,1.139178 0.82136,2.411248 2.96762,2.411248 2.75629,0 5.64466,-2.25274 5.64466,-4.583934 0,-1.563469 -1.3249,-2.438067 -2.96843,-2.438067 -2.56975,0 -5.64385,2.173086 -5.64385,4.610753 M 121.98419,172.88117 c 0,1.13918 0.82136,2.41125 2.96763,2.41125 2.75628,0 5.64466,-2.25274 5.64466,-4.58474 0,-1.56267 -1.32491,-2.43767 -2.96843,-2.43767 -2.56976,0 -5.64386,2.17269 -5.64386,4.61116 M 398.65416,30.579068 c 0,1.139179 0.82136,2.411249 2.96763,2.411249 2.75629,0 5.64466,-2.25274 5.64466,-4.583934 0,-1.563469 -1.3249,-2.438468 -2.96843,-2.438468 -2.56976,0 -5.64386,2.173487 -5.64386,4.611153 m 26.58458,-3.309462 c 0,1.139178 0.82136,2.411248 2.96763,2.411248 2.75628,0 5.64386,-2.25274 5.64386,-4.583934 0,-1.563469 -1.32491,-2.438067 -2.96763,-2.438067 -2.56976,0 -5.64386,2.173086 -5.64386,4.610753 M 59.123613,177.35623 c -0.874198,0 -1.059925,-0.71569 -1.059925,-0.95426 0,-1.29848 4.451844,-3.57684 5.697496,-3.57684 0.635634,0 1.059924,0.37065 1.059924,0.95345 0,1.32491 -4.478262,3.57765 -5.697495,3.57765 m 3.6569,-5.77675 c -2.570557,0 -5.643859,2.14626 -5.643859,4.61035 0,1.13998 0.821362,2.41205 2.967629,2.41205 2.755484,0 5.643859,-2.25274 5.643859,-4.58474 0,-1.56347 -1.324906,-2.43766 -2.967629,-2.43766 M 463.27515,25.12574 c -0.8742,0 -1.05993,-0.714889 -1.05993,-0.953452 0,-1.298568 4.45185,-3.577406 5.6975,-3.577406 0.63563,0 1.05992,0.370973 1.05992,0.953932 0,1.324906 -4.47826,3.576926 -5.69749,3.576926 m 3.6569,-5.77627 c -2.57056,0 -5.64386,2.146348 -5.64386,4.610673 0,1.139179 0.82136,2.411248 2.96763,2.411248 2.75548,0 5.64386,-2.251939 5.64386,-4.584094 0,-1.563389 -1.32491,-2.437827 -2.96763,-2.437827 m 34.233,4.610673 c 0,1.139179 0.82137,2.411248 2.96763,2.411248 2.75549,0 5.64386,-2.251939 5.64386,-4.584094 0,-1.563389 -1.3249,-2.437827 -2.96763,-2.437827 -2.57055,0 -5.64386,2.172846 -5.64386,4.610673 M 480.04501,162.95278 c 0,1.13918 0.82137,2.41125 2.96763,2.41125 2.75549,0 5.64386,-2.25194 5.64386,-4.58394 0,-1.56347 -1.3249,-2.43766 -2.96763,-2.43766 -2.57056,0 -5.64386,2.17268 -5.64386,4.61035 M 527.74963,20.65076 c 0,1.139419 0.82136,2.411329 2.96763,2.411329 2.75548,0 5.64386,-2.25234 5.64386,-4.584175 0,-1.563389 -1.32491,-2.437827 -2.96763,-2.437827 -2.57056,0 -5.64386,2.172846 -5.64386,4.610673 m 17.72252,-3.309303 c 0,1.139419 0.82136,2.411329 2.96843,2.411329 2.75548,0 5.64386,-2.25234 5.64386,-4.584175 0,-1.563388 -1.32491,-2.437826 -2.96763,-2.437826 -2.57056,0 -5.64466,2.172845 -5.64466,4.610672 m 109.57092,92.661513 c 0,1.13998 0.82136,2.41125 2.96763,2.41125 2.75548,0 5.64386,-2.25194 5.64386,-4.58393 0,-1.56347 -1.32491,-2.43767 -2.96763,-2.43767 -2.57056,0 -5.64386,2.17269 -5.64386,4.61035 M 573.47049,20.65076 c 0,1.139419 0.82136,2.411329 2.96763,2.411329 2.75629,0 5.64466,-2.25234 5.64466,-4.584175 0,-1.563389 -1.3249,-2.437827 -2.96843,-2.437827 -2.56976,0 -5.64386,2.172846 -5.64386,4.610673 m 56.80684,92.66168 c 0,1.13918 0.82137,2.41125 2.96763,2.41125 2.75549,0 5.64386,-2.25194 5.64386,-4.58394 0,-1.56347 -1.3249,-2.43767 -2.96763,-2.43767 -2.57055,0 -5.64386,2.17269 -5.64386,4.61036 M 600.05507,27.269606 c 0,1.139178 0.82136,2.411248 2.96763,2.411248 2.75628,0 5.64466,-2.25274 5.64466,-4.583934 0,-1.563469 -1.32491,-2.438067 -2.96843,-2.438067 -2.56976,0 -5.64386,2.173086 -5.64386,4.610753 m 26.58458,0 c 0,1.139178 0.82136,2.411248 2.96763,2.411248 2.75628,0 5.64466,-2.25274 5.64466,-4.583934 0,-1.563469 -1.32491,-2.438067 -2.96843,-2.438067 -2.56976,0 -5.64386,2.173086 -5.64386,4.610753 M 605.5116,110.00297 c 0,1.13998 0.82136,2.41125 2.96763,2.41125 2.75548,0 5.64386,-2.25194 5.64386,-4.58393 0,-1.56347 -1.32491,-2.43767 -2.96763,-2.43767 -2.57056,0 -5.64386,2.17269 -5.64386,4.61035 m 47.71262,-82.733364 c 0,1.139178 0.82137,2.411248 2.96763,2.411248 2.75629,0 5.64386,-2.25274 5.64386,-4.583934 0,-1.563469 -1.3249,-2.438067 -2.96763,-2.438067 -2.56975,0 -5.64386,2.173086 -5.64386,4.610753 m -72.47915,79.423904 c 0,1.13998 0.82136,2.41205 2.96843,2.41205 2.75548,0 5.64386,-2.25274 5.64386,-4.58473 0,-1.56347 -1.32491,-2.43767 -2.96763,-2.43767 -2.57056,0 -5.64466,2.17268 -5.64466,4.61035 m -30.50566,64.04379 c -0.875,0 -1.05993,-0.71569 -1.05993,-0.95345 0,-1.29849 4.45105,-3.57765 5.6967,-3.57765 0.63643,0 1.05992,0.37066 1.05992,0.95426 0,1.3249 -4.47826,3.57684 -5.69669,3.57684 m 3.6561,-5.77675 c -2.56976,0 -5.64386,2.14627 -5.64386,4.61115 0,1.13918 0.82136,2.41125 2.96763,2.41125 2.75628,0 5.64466,-2.25274 5.64466,-4.58393 0,-1.56347 -1.32491,-2.43847 -2.96843,-2.43847 M 59.123613,97.93152 c -0.874198,0 -1.059925,-0.714888 -1.059925,-0.953451 0,-1.298488 4.451844,-3.577647 5.697496,-3.577647 0.635634,0 1.059924,0.371454 1.059924,0.954253 0,1.324906 -4.478262,3.576845 -5.697495,3.576845 m 3.6569,-5.776749 c -2.570557,0 -5.643859,2.147068 -5.643859,4.611152 0,1.139179 0.821362,2.411249 2.967629,2.411249 2.755484,0 5.643859,-2.25274 5.643859,-4.583934 0,-1.563469 -1.324906,-2.438467 -2.967629,-2.438467 m 31.504738,4.611152 c 0,1.139179 0.821362,2.411249 2.967629,2.411249 2.75629,0 5.64386,-2.25274 5.64386,-4.583934 0,-1.563469 -1.32491,-2.438467 -2.96763,-2.438467 -2.569757,0 -5.643859,2.173486 -5.643859,4.611152 m 458.462269,6.618927 c 0,1.13918 0.82137,2.41125 2.96763,2.41125 2.75549,0 5.64386,-2.25274 5.64386,-4.58474 0,-1.562665 -1.3249,-2.437664 -2.96763,-2.437664 -2.57055,0 -5.64386,2.172684 -5.64386,4.611154 M 119.05098,96.765923 c 0,1.139179 0.82137,2.411249 2.96763,2.411249 2.75629,0 5.64466,-2.25274 5.64466,-4.583934 0,-1.563469 -1.3249,-2.438467 -2.96843,-2.438467 -2.56975,0 -5.64386,2.173486 -5.64386,4.611152 m 34.23061,3.309467 c 0,1.13918 0.82136,2.41124 2.96763,2.41124 2.75628,0 5.64466,-2.25274 5.64466,-4.583929 0,-1.563469 -1.32491,-2.438468 -2.96843,-2.438468 -2.56976,0 -5.64386,2.173487 -5.64386,4.611157 m 382.95464,0 c 0,1.13918 0.82217,2.41124 2.96843,2.41124 2.75549,0 5.64386,-2.25274 5.64386,-4.583929 0,-1.563469 -1.3249,-2.438468 -2.96763,-2.438468 -2.57055,0 -5.64466,2.173487 -5.64466,4.611157 m -358.18891,6.61812 c 0,1.13998 0.82137,2.41205 2.96763,2.41205 2.75629,0 5.64466,-2.25274 5.64466,-4.58473 0,-1.56347 -1.3249,-2.43767 -2.96843,-2.43767 -2.56975,0 -5.64386,2.17268 -5.64386,4.61035 M 511.4705,96.765923 c 0,1.139179 0.82136,2.411249 2.96843,2.411249 2.75548,0 5.64386,-2.25274 5.64386,-4.583934 0,-1.563469 -1.32491,-2.438467 -2.96763,-2.438467 -2.57056,0 -5.64466,2.173486 -5.64466,4.611152 m 99.38876,70.661917 c -0.875,0 -1.05993,-0.71489 -1.05993,-0.95345 0,-1.29849 4.45105,-3.57765 5.6967,-3.57765 0.63643,0 1.05992,0.37145 1.05992,0.95425 0,1.32491 -4.47826,3.57685 -5.69669,3.57685 m 3.6561,-5.77595 c -2.56976,0 -5.64386,2.14627 -5.64386,4.61035 0,1.13918 0.82136,2.41125 2.96763,2.41125 2.75628,0 5.64466,-2.25194 5.64466,-4.58393 0,-1.56347 -1.32491,-2.43767 -2.96843,-2.43767 m -127.81059,-61.5765 c 0,1.13918 0.82136,2.41124 2.96763,2.41124 2.75628,0 5.64466,-2.25274 5.64466,-4.583929 0,-1.563469 -1.32491,-2.438468 -2.96843,-2.438468 -2.56976,0 -5.64386,2.173487 -5.64386,4.611157 m -222.90762,1.16559 c -0.87419,0 -1.05992,-0.71569 -1.05992,-0.95345 0,-1.298486 4.45184,-3.577645 5.6967,-3.577645 0.63643,0 1.05992,0.370654 1.05992,0.954253 0,1.324906 -4.47746,3.576842 -5.6967,3.576842 m 3.65691,-5.776747 c -2.57056,0 -5.64466,2.146268 -5.64466,4.611157 0,1.13918 0.82216,2.41124 2.96843,2.41124 2.75548,0 5.64385,-2.25274 5.64385,-4.583929 0,-1.563469 -1.3249,-2.438468 -2.96762,-2.438468 m 194.48497,7.920617 c 0,1.13918 0.82137,2.41125 2.96763,2.41125 2.75629,0 5.64466,-2.25274 5.64466,-4.58474 0,-1.562665 -1.3249,-2.437664 -2.96843,-2.437664 -2.56975,0 -5.64386,2.172684 -5.64386,4.611154 m 52.2093,62.87739 c 0,1.13918 0.82136,2.41125 2.96763,2.41125 2.75629,0 5.64466,-2.25194 5.64466,-4.58393 0,-1.56347 -1.32491,-2.43767 -2.96843,-2.43767 -2.56976,0 -5.64386,2.17268 -5.64386,4.61035 M 325.41288,100.07539 c 0,1.13918 0.82137,2.41124 2.96763,2.41124 2.75549,0 5.64386,-2.25274 5.64386,-4.583929 0,-1.563469 -1.3249,-2.438468 -2.96763,-2.438468 -2.57055,0 -5.64386,2.173487 -5.64386,4.611157 m 27.99835,3.30946 c 0,1.13918 0.82136,2.41125 2.96763,2.41125 2.75548,0 5.64386,-2.25274 5.64386,-4.58474 0,-1.562665 -1.32491,-2.437664 -2.96763,-2.437664 -2.57056,0 -5.64386,2.172684 -5.64386,4.611154 m 74.2972,3.30866 c 0,1.13998 0.82136,2.41205 2.96763,2.41205 2.75628,0 5.64466,-2.25274 5.64466,-4.58473 0,-1.56347 -1.32491,-2.43767 -2.96843,-2.43767 -2.56976,0 -5.64386,2.17268 -5.64386,4.61035 m -49.53147,3.30946 c 0,1.13998 0.82136,2.41125 2.96763,2.41125 2.75548,0 5.64386,-2.25194 5.64386,-4.58393 0,-1.56347 -1.32491,-2.43767 -2.96763,-2.43767 -2.57056,0 -5.64386,2.17269 -5.64386,4.61035 m 69.66764,62.8782 c 0,1.13918 0.82136,2.41125 2.96763,2.41125 2.75628,0 5.64385,-2.25274 5.64385,-4.58474 0,-1.56267 -1.3249,-2.43767 -2.96762,-2.43767 -2.56976,0 -5.64386,2.17269 -5.64386,4.61116 M 202.81306,106.69351 c 0,1.13998 0.82136,2.41205 2.96843,2.41205 2.75548,0 5.64386,-2.25274 5.64386,-4.58473 0,-1.56347 -1.32491,-2.43767 -2.96763,-2.43767 -2.57056,0 -5.64466,2.17268 -5.64466,4.61035 m -72.88625,43.54013 v 20.47557 h 0.66201 V 150.23364 Z M 386.11885,85.724846 v 22.106214 h 0.66201 V 85.724846 Z M 316.8443,77.483123 v 17.110915 h 0.66201 V 77.483123 Z m 44.50871,1.622669 v 22.107148 h 0.66217 V 79.105792 Z m 71.69871,69.520348 v 18.77362 h 0.66201 v -18.77362 z m -34.1041,-4.98732 v 20.45149 h 0.66201 V 143.63882 Z M 79.720448,11.234698 V 31.71667 h 0.662169 V 11.234698 Z M 333.35559,79.074675 v 18.82881 h 0.66201 v -18.82881 z m 136.526,0.03112 v 22.107145 h 0.66217 V 79.105792 Z M 364.8443,145.29354 v 22.10622 h 0.66201 v -22.10622 z m 251.96979,-1.65472 v 20.45149 h 0.66216 v -20.45149 z m -60.61974,1.65472 v 22.10622 h 0.66202 V 145.29354 Z M 494.64743,75.797122 v 22.106363 h 0.66201 V 75.797122 Z m -224.89533,0 v 22.106363 h 0.66201 V 75.797122 Z M 97.443811,9.6397007 V 28.407223 h 0.662013 V 9.6397007 Z M 330.74098,148.60221 v 22.107 h 0.66202 v -22.107 z M 519.41312,74.142399 v 20.451639 h 0.66201 V 74.142399 Z m -63.62585,76.091241 v 20.47557 h 0.66201 V 150.23364 Z M 235.52135,79.105792 v 22.107148 h 0.66216 V 79.105792 Z m -24.76569,3.309447 v 22.106371 h 0.66202 V 82.415239 Z m 333.42313,-3.277393 v 18.765639 h 0.66218 V 79.137846 Z m -358.18881,3.277393 v 22.106371 h 0.66201 V 82.415239 Z m 336.10105,61.223581 v 20.45149 h 0.66203 V 143.63882 Z M 161.22429,75.797122 v 22.106363 h 0.66202 V 75.797122 Z M 125.44217,4.6458182 V 25.097769 h 0.66202 V 4.6458182 Z m 26.58459,0 V 25.097769 h 0.66201 V 4.6458182 Z M 560.68931,80.728622 v 20.484318 h 0.66217 V 80.728622 Z M 126.99354,74.142399 v 20.451639 h 0.66218 V 74.142399 Z M 178.61134,4.6458182 V 25.097769 h 0.66201 V 4.6458182 Z M 102.22787,74.142399 v 20.451639 h 0.66201 V 74.142399 Z m 184.94488,77.769271 v 22.1062 h 0.66202 v -22.1062 z M 65.078556,74.142399 v 20.451639 h 0.662021 V 74.142399 Z m 523.609114,8.27284 v 22.106371 h 0.66201 V 82.415239 Z M 205.19593,4.6458182 V 25.097769 h 0.66201 V 4.6458182 Z M 253.06944,155.22112 v 22.10636 h 0.66202 V 155.22112 Z M 241.24448,4.6458182 V 25.097769 h 0.66217 V 4.6458182 Z M 613.4535,85.724846 v 22.106214 h 0.66202 V 85.724846 Z M 661.16691,4.6458182 V 25.097769 h 0.66201 V 4.6458182 Z M 638.21919,89.034301 v 22.106209 h 0.66201 V 89.034301 Z M 634.58233,4.6458182 V 25.097769 h 0.66202 V 4.6458182 Z M 218.96612,155.22112 v 22.10636 h 0.66202 V 155.22112 Z M 607.99774,4.6458182 V 25.097769 h 0.66202 V 4.6458182 Z m 54.98713,81.0790278 v 22.106214 h 0.66202 V 85.724846 Z M 573.47008,20.649729 v 20.398946 h 0.66201 V 20.649729 Z M 281.12143,4.6458182 V 25.097769 h 0.66201 V 4.6458182 Z M 184.8628,148.60221 v 22.107 h 0.66202 v -22.107 z M 307.70602,9.5801288 V 28.407223 h 0.66201 V 9.5801288 Z m 237.76647,7.7603062 v 18.773618 h 0.66218 V 17.340435 Z M 325.42922,7.9849757 V 25.097769 h 0.66218 V 7.9849757 Z m 20.05544,15.9743583 v 18.744064 h 0.66202 V 23.959334 Z M 527.74928,20.649729 V 37.70952 h 0.66202 V 20.649729 Z M 480.04463,162.95203 v 18.74391 h 0.66202 V 162.95203 Z M 501.16469,23.959334 v 18.744064 h 0.66202 V 23.959334 Z M 65.078556,151.91167 v 22.1062 h 0.662021 v -22.1062 z M 461.28775,23.959334 v 18.744064 h 0.66216 V 23.959334 Z M 152.66235,148.62614 v 18.77362 h 0.66201 V 148.62614 Z M 380.01218,4.6458182 V 25.097769 h 0.66216 V 4.6458182 Z m 26.58457,1.654725 V 28.407223 h 0.66202 V 6.3005432 Z m 26.58459,-1.654725 V 25.097769 h 0.66201 V 4.6458182 Z M 435.651,82.415239 v 22.106371 h 0.66217 V 82.415239 Z m -24.76569,3.309607 v 22.106214 h 0.66202 V 85.724846 Z m 217.20727,25.945244 v 1.05916 h 12.97372 v -1.05916 z m -85.88907,54.82751 2.35842,-0.47712 v 4.37259 l -2.35842,0.50354 v -4.39901 m 4.10681,-0.82136 c 0.15931,-0.0264 0.2914,-0.21214 0.2914,-0.37065 v -1.56347 c 0,-0.21215 -0.15851,-0.37146 -0.37065,-0.37146 h -0.0528 l -0.875,0.18573 v -3.9483 h -0.7413 v 4.10761 l -2.35842,0.47633 v -3.73616 h -0.7421 v 3.89546 l -1.03351,0.21215 c -0.15931,0.0264 -0.2914,0.21214 -0.2914,0.37065 v 1.53705 c 0,0.21215 0.15931,0.37066 0.37065,0.37066 h 0.0801 l 0.8742,-0.18493 v 4.37179 l -1.03351,0.21215 c -0.15931,0.0264 -0.2914,0.21214 -0.2914,0.37065 v 1.53705 c 0,0.21214 0.15931,0.37145 0.37065,0.37145 h 0.0801 l 0.8742,-0.18572 v 3.9483 h 0.7421 v -4.10761 l 2.35842,-0.47633 v 3.73616 h 0.7413 v -3.89547 l 1.00709,-0.18572 c 0.15931,-0.0264 0.2914,-0.21215 0.2914,-0.37066 v -1.56347 c 0,-0.21214 -0.15851,-0.37065 -0.37065,-0.37065 h -0.0528 l -0.875,0.18493 v -4.37179 l 1.00709,-0.18573 M 223.83789,9.2458378 V 36.448658 h 1.19113 V 9.2458378 Z M 571.28092,78.742416 v 27.202514 h 1.19128 V 78.742416 Z M 313.33424,148.23869 v 27.20266 h 1.19113 V 148.23869 Z M 143.81677,78.742416 v 27.202514 h 1.19112 V 78.742416 Z M 679.80887,9.2458378 V 36.448658 H 681 V 9.2458378 Z m -115.80323,0 V 36.448658 h 1.19112 V 9.2458378 Z M 679.80887,78.742416 V 105.94493 H 681 V 78.742416 Z M 108.03464,9.2458378 V 36.448658 h 1.19129 V 9.2458378 Z M 252.34535,78.742416 v 27.202514 h 1.19112 V 78.742416 Z m 347.0612,69.496274 v 27.20266 h 1.19129 v -27.20266 z m -431.95128,0 v 27.20266 h 1.19129 v -27.20266 z m 509.90427,0 v 27.20266 h 3.64015 v -27.20266 z m -3.63967,0 v 27.20266 H 674.911 V 148.23869 Z M 336.02006,9.2458378 V 36.448658 h 1.19128 V 9.2458378 Z m 7.92636,69.4965782 v 27.202514 h 1.19113 V 78.742416 Z M 451.8233,9.2458378 V 36.448658 h 1.19129 V 9.2458378 Z m 0.65092,69.4965782 v 27.202514 h 1.19112 V 78.742416 Z m 18.10597,69.496274 v 27.20266 h 1.19113 V 148.23869 Z M 0,174.7132 v 0.72768 h 681 v -0.72768 z m 0,-6.61812 v 0.72768 h 681 v -0.72768 z m 0,-6.6189 v 0.72768 h 681 v -0.72768 z m 0,-6.6189 v 0.72768 h 681 v -0.72768 z m 0,-6.61891 v 0.72769 h 681 v -0.72769 z m 0,-43.02144 v 0.72769 h 681 v -0.72769 z m 0,-6.618121 v 0.727681 h 681 v -0.727681 z m 0,-6.618902 v 0.727682 h 681 v -0.727682 z m 0,-6.619054 v 0.727842 h 681 v -0.727842 z m 0,-6.618901 v 0.727681 H 681 V 78.741952 Z M 0,35.720656 v 0.727689 h 681 v -0.727689 z m 0,-6.618269 v 0.727841 h 681 v -0.727841 z m 0,-6.61906 v 0.727685 h 681 v -0.727685 z m 0,-6.618588 v 0.727684 H 681 V 15.864739 Z M 0,9.2459947 V 9.9736795 H 681 V 9.2459947 Z"
     style="stroke-width:0.0800547" />
  <metadata
     id="metadata176">
    <rdf:RDF>
      <cc:Work
         rdf:about="">
        <dc:title>air_XXIII</dc:title>
      </cc:Work>
    </rdf:RDF>
  </metadata>
</svg>
