<?xml version="1.0" encoding="utf-8"?>
<svg xmlns="http://www.w3.org/2000/svg" xmlns:svg="http://www.w3.org/2000/svg" version="1.1" viewBox="0 0 681 187">
	<title>A score 3 staves long in 4/4 time, in the key of C Major.</title>
	<path d="M585.976 178.387c0 .742.583 1.324 1.325 1.324s1.325-.582 1.325-1.324-.583-1.325-1.325-1.325-1.325.582-1.325 1.325M478.48 95.653c0 .741.583 1.325 1.325 1.325s1.325-.584 1.325-1.325c0-.742-.583-1.325-1.325-1.325s-1.325.583-1.325 1.325M143.178 19.538c0 .742.583 1.325 1.325 1.325.741 0 1.325-.583 1.325-1.325s-.584-1.325-1.325-1.325c-.742 0-1.325.583-1.325 1.325m264.425 6.619c0 .741.582 1.325 1.325 1.325.742 0 1.324-.584 1.324-1.325 0-.742-.582-1.325-1.324-1.325s-1.325.583-1.325 1.325m-95.496 69.496c0 .741.583 1.325 1.325 1.325s1.325-.584 1.325-1.325c0-.742-.583-1.325-1.325-1.325s-1.325.583-1.325 1.325m231.65-76.115c0 .742.582 1.325 1.324 1.325s1.325-.583 1.325-1.325-.582-1.325-1.325-1.325c-.742 0-1.324.583-1.324 1.325M300.61 26.157c0 .741.582 1.325 1.324 1.325s1.325-.584 1.325-1.325c0-.742-.583-1.325-1.325-1.325s-1.324.583-1.324 1.325m120.192 69.496c0 .741.583 1.325 1.325 1.325s1.325-.584 1.325-1.325c0-.742-.583-1.325-1.325-1.325s-1.325.583-1.325 1.325m223.255-76.115c0 .742.583 1.325 1.325 1.325s1.325-.583 1.325-1.325-.583-1.325-1.325-1.325-1.325.583-1.325 1.325M320.217 158.53c0 .742.583 1.324 1.325 1.324s1.325-.582 1.325-1.324-.583-1.325-1.325-1.325-1.325.582-1.325 1.325m-146.13-62.878c0 .741.583 1.325 1.325 1.325s1.325-.584 1.325-1.325c0-.742-.583-1.325-1.325-1.325s-1.325.583-1.325 1.325m69.391-76.115c0 .742.583 1.325 1.325 1.325s1.325-.583 1.325-1.325-.583-1.325-1.325-1.325-1.325.583-1.325 1.325m347.935 76.115c0 .741.583 1.325 1.325 1.325s1.325-.584 1.325-1.325c0-.742-.583-1.325-1.325-1.325s-1.325.583-1.325 1.325m-420.484 51.29 23.304 1.655v3.318l-23.304-1.654zM518.42 77.45l41.684 1.655v3.312l-41.684-1.655zm-6.252-57.924 14.047 1.655v3.332l-14.047-1.654zM93.152 103.915l41.684 4.964v3.333l-41.684-4.965zm290.31 72.813 68.588 4.964v3.317l-68.588-4.964zm-178.67-142.31 14.048 1.655v3.332l-14.048-1.655zm400.58 0 14.047 1.655v3.332l-14.047-1.655zm-123.4 110.875h68.588v3.31h-68.588zM38.457 112.189l41.683-4.964v3.333l-41.683 4.963zm7.942 29.794 68.588-3.31v3.314l-68.588 3.31zm179.278 4.965 68.587-1.654v3.31l-68.587 1.655zM335.475 6.298l40.82 1.655v3.312l-40.82-1.655zm18.717 105.9h41.683v3.31h-41.683zM111.59 19.527l14.047 1.655v3.332L111.59 22.86zm169.197 56.26 14.336 1.655v3.33l-14.336-1.654zm370.21 11.179c-.027 0-.08-.027-.106-.027-.16 0-.292.08-.345.212-.106.16-.927 1.723-2.12 2.597a2.85 2.85 0 0 1-1.192.53c.291-.345.477-.769.477-1.272a1.89 1.89 0 0 0-1.881-1.882c-1.06 0-1.908.848-1.908 1.882 0 1.431 1.404 2.093 2.65 2.093 1.404 0 2.33-.662 3.232-1.643l-3.021 9.434.716.211 3.71-11.685c.026-.027.026-.08.026-.132q0-.2-.239-.318M37.141 18.105c-.662.423-1.14 1.191-1.14 2.04 0 .105 0 .211.027.317.132 1.087 1.007 1.935 2.093 2.067h.292a2.375 2.375 0 0 0 2.384-2.385v-.159c0-.106-.026-.291-.052-.397-.239-1.14-1.272-3.577-5.777-3.577-5.777 0-6.439 4.796-6.439 6.518 0 3.154.397 7.101 7.022 7.101 2.623 0 4.664-1.536 4.77-4.371 0-.133-.08-.213-.213-.213h-.344c-.106 0-.212.107-.212.213-.106 2.199-1.67 3.524-4.001 3.524-2.306 0-3.419-1.245-3.419-3.577v-5.062c0-1.483.583-3.18 2.942-3.18 1.245 0 1.802.451 2.093.902.026.053.026.08.026.132 0 .027 0 .08-.052.106M16.093 173.917a7.7 7.7 0 0 1-1.537.16c-3.789 0-7.022-2.65-7.022-6.652 0-3.233 2.28-6.12 4.611-8.135.45-.398.875-.768 1.272-1.165.238 1.43.424 2.676.61 3.762-2.412.715-4.055 3.26-4.055 5.75 0 1.855 1.458 4.399 3.577 4.399.212 0 .451-.106.451-.344 0-.239-.265-.372-.583-.583-1.033-.637-1.616-1.325-1.616-2.624 0-1.616 1.192-2.914 2.755-3.286zm-2.332-27.24c.239-1.06 1.458-3.842 2.836-3.842.397 0 1.033 1.299 1.033 3.127 0 2.755-2.04 4.822-3.869 6.624-.159-1.06-.291-2.093-.291-3.206 0-.98.08-1.882.291-2.703m6.095 22.338c0 1.882-.768 3.816-2.65 4.584a882 882 0 0 1-1.457-8.558c2.385 0 4.107 1.616 4.107 3.974m-11.66 13.037c0 1.749 1.352 4.054 4.93 4.054 1.245 0 2.331-.318 3.285-.9 1.431-1.007 1.802-2.757 1.802-4.426 0-1.033-.159-2.225-.424-3.736-.08-.53-.238-1.325-.397-2.358 2.597-.848 4.53-3.55 4.53-6.28 0-4.002-2.834-6.704-6.703-6.704-.265-1.59-.53-3.154-.769-4.637 2.81-2.942 4.744-6.254 4.744-10.467 0-2.412-.742-4.372-1.166-5.326-.636-1.352-1.405-2.28-1.882-2.28-.185 0-1.007.319-1.881 1.352-1.696 2.014-2.173 5.406-2.173 7.631 0 1.432.133 2.73.583 5.698-.026.026-1.404 1.43-1.96 1.881-2.412 2.252-5.75 5.458-5.75 10.758 0 4.955 4.318 8.85 9.247 8.85.768 0 1.484-.079 2.093-.185.504 2.544.795 4.399.795 5.803 0 2.756-1.404 4.213-4.08 4.213-.636 0-1.193-.132-1.246-.132-.026-.027-.08-.053-.08-.08 0-.053.054-.079.133-.105 1.246-.186 2.49-1.246 2.49-2.942 0-1.431-1.085-2.94-3.073-2.94-1.855 0-3.047 1.509-3.047 3.258m7.896-147.128a7.7 7.7 0 0 1-1.537.16c-3.789 0-7.022-2.65-7.022-6.651 0-3.234 2.28-6.122 4.611-8.135.45-.398.875-.769 1.272-1.166.238 1.43.424 2.676.61 3.762-2.412.716-4.055 3.26-4.055 5.75 0 1.855 1.458 4.4 3.577 4.4.212 0 .451-.107.451-.345 0-.239-.265-.372-.583-.583-1.033-.636-1.616-1.325-1.616-2.623 0-1.617 1.192-2.915 2.755-3.287zm-2.332-27.24c.239-1.06 1.458-3.842 2.836-3.842.397 0 1.033 1.299 1.033 3.127 0 2.756-2.04 4.823-3.869 6.625-.159-1.06-.291-2.094-.291-3.207 0-.98.08-1.881.291-2.703m6.095 22.339c0 1.881-.768 3.815-2.65 4.584a882 882 0 0 1-1.457-8.559c2.385 0 4.107 1.616 4.107 3.975M8.196 43.06c0 1.748 1.352 4.054 4.93 4.054 1.245 0 2.331-.318 3.285-.901 1.431-1.007 1.802-2.756 1.802-4.425 0-1.034-.159-2.226-.424-3.737-.08-.53-.238-1.325-.397-2.358 2.597-.848 4.53-3.55 4.53-6.28 0-4.001-2.834-6.704-6.703-6.704-.265-1.59-.53-3.153-.769-4.637 2.81-2.942 4.744-6.254 4.744-10.467 0-2.411-.742-4.372-1.166-5.326C17.392.927 16.623 0 16.146 0c-.185 0-1.007.318-1.881 1.351-1.696 2.014-2.173 5.406-2.173 7.632 0 1.43.133 2.73.583 5.697-.026.026-1.404 1.43-1.96 1.881-2.412 2.253-5.75 5.459-5.75 10.758 0 4.956 4.318 8.851 9.247 8.851.768 0 1.484-.08 2.093-.186.504 2.545.795 4.4.795 5.804 0 2.755-1.404 4.213-4.08 4.213-.636 0-1.193-.133-1.246-.133-.026-.026-.08-.053-.08-.08 0-.052.054-.079.133-.105 1.246-.186 2.49-1.246 2.49-2.941 0-1.432-1.085-2.941-3.073-2.941-1.855 0-3.047 1.51-3.047 3.259m7.896 61.36a7.7 7.7 0 0 1-1.537.16c-3.789 0-7.022-2.65-7.022-6.65 0-3.234 2.28-6.122 4.611-8.136.45-.398.875-.769 1.272-1.166.238 1.43.424 2.677.61 3.763-2.412.715-4.055 3.259-4.055 5.75 0 1.854 1.458 4.398 3.577 4.398.212 0 .451-.105.451-.344 0-.238-.265-.371-.583-.583-1.033-.636-1.616-1.324-1.616-2.623 0-1.616 1.192-2.915 2.755-3.286zm-2.332-27.24c.239-1.06 1.458-3.842 2.836-3.842.397 0 1.033 1.298 1.033 3.127 0 2.755-2.04 4.822-3.869 6.624-.159-1.06-.291-2.093-.291-3.206 0-.98.08-1.882.291-2.703m6.095 22.338c0 1.881-.768 3.815-2.65 4.584a882 882 0 0 1-1.457-8.559c2.385 0 4.107 1.617 4.107 3.975m-11.66 13.037c0 1.748 1.352 4.054 4.93 4.054 1.245 0 2.331-.318 3.285-.9 1.431-1.008 1.802-2.757 1.802-4.426 0-1.034-.159-2.226-.424-3.736-.08-.53-.238-1.325-.397-2.359 2.597-.847 4.53-3.55 4.53-6.28 0-4.001-2.834-6.704-6.703-6.704-.265-1.59-.53-3.153-.769-4.637 2.81-2.942 4.744-6.253 4.744-10.467 0-2.411-.742-4.372-1.166-5.326-.636-1.351-1.405-2.279-1.882-2.279-.185 0-1.007.319-1.881 1.351-1.696 2.015-2.173 5.406-2.173 7.632 0 1.431.133 2.73.583 5.698-.026.026-1.404 1.43-1.96 1.88-2.412 2.253-5.75 5.459-5.75 10.759 0 4.955 4.318 8.85 9.247 8.85.768 0 1.484-.079 2.093-.185.504 2.544.795 4.399.795 5.803 0 2.755-1.404 4.213-4.08 4.213-.636 0-1.193-.133-1.246-.133-.026-.026-.08-.053-.08-.08 0-.052.054-.078.133-.105 1.246-.185 2.49-1.245 2.49-2.941 0-1.431-1.085-2.941-3.073-2.941-1.855 0-3.047 1.51-3.047 3.259m400.69-12.48c0 1.139.822 2.41 2.968 2.41 2.756 0 5.644-2.252 5.644-4.583 0-1.564-1.325-2.439-2.968-2.439-2.57 0-5.643 2.174-5.643 4.611m-13.2-72.805c0 1.139.822 2.41 2.968 2.41 2.755 0 5.644-2.252 5.644-4.583 0-1.564-1.325-2.438-2.968-2.438-2.57 0-5.644 2.173-5.644 4.61m-12.226 125.755c0 1.14.822 2.412 2.968 2.412 2.756 0 5.644-2.252 5.644-4.584 0-1.564-1.324-2.438-2.967-2.438-2.57 0-5.645 2.173-5.645 4.61m221.91-135.683c0 1.14.82 2.412 2.967 2.412 2.756 0 5.644-2.253 5.644-4.584 0-1.564-1.325-2.438-2.968-2.438-2.57 0-5.643 2.173-5.643 4.61m-474.11 3.31c0 1.14.823 2.411 2.969 2.411 2.755 0 5.644-2.252 5.644-4.584 0-1.563-1.325-2.438-2.968-2.438-2.57 0-5.644 2.173-5.644 4.61m297.483 138.993c0 1.14.821 2.412 2.968 2.412 2.756 0 5.644-2.252 5.644-4.584 0-1.564-1.325-2.438-2.968-2.438-2.57 0-5.644 2.173-5.644 4.61m-77.39-3.31c0 1.14.822 2.412 2.968 2.412 2.755 0 5.644-2.252 5.644-4.584 0-1.563-1.325-2.438-2.968-2.438-2.57 0-5.645 2.173-5.645 4.61m100.033 9.93c0 1.138.821 2.41 2.967 2.41 2.757 0 5.644-2.251 5.644-4.583 0-1.564-1.325-2.438-2.967-2.438-2.57 0-5.644 2.173-5.644 4.61M326.193 83.528c0 1.14.822 2.412 2.968 2.412 2.756 0 5.645-2.253 5.645-4.585 0-1.563-1.325-2.437-2.969-2.437-2.57 0-5.644 2.172-5.644 4.61m231.102-66.187c0 1.14.821 2.412 2.967 2.412 2.757 0 5.645-2.253 5.645-4.584 0-1.564-1.325-2.438-2.968-2.438-2.57 0-5.644 2.173-5.644 4.61M308.302 159.643c0 1.14.821 2.412 2.968 2.412 2.756 0 5.644-2.252 5.644-4.584 0-1.564-1.325-2.438-2.967-2.438-2.57 0-5.645 2.173-5.645 4.61M618.757 20.651c0 1.14.822 2.411 2.968 2.411 2.756 0 5.644-2.252 5.644-4.584 0-1.563-1.325-2.438-2.968-2.438-2.57 0-5.644 2.173-5.644 4.61M285.66 166.263c0 1.14.822 2.411 2.969 2.411 2.755 0 5.643-2.251 5.643-4.583 0-1.564-1.325-2.438-2.967-2.438-2.57 0-5.645 2.173-5.645 4.61M632.143 23.96c0 1.14.821 2.411 2.967 2.411 2.757 0 5.645-2.252 5.645-4.584 0-1.563-1.325-2.438-2.969-2.438-2.57 0-5.643 2.173-5.643 4.611M263.019 169.572c0 1.139.821 2.41 2.968 2.41 2.755 0 5.644-2.252 5.644-4.583 0-1.563-1.325-2.438-2.968-2.438-2.57 0-5.644 2.173-5.644 4.61m211.01 0c0 1.14.822 2.412 2.968 2.412 2.756 0 5.644-2.253 5.644-4.584 0-1.563-1.325-2.438-2.967-2.438-2.571 0-5.644 2.173-5.644 4.61m-233.653 6.619c0 1.14.822 2.412 2.968 2.412 2.755 0 5.644-2.253 5.644-4.585 0-1.563-1.325-2.438-2.968-2.438-2.57 0-5.644 2.173-5.644 4.61m48.317-148.92c0 1.14.822 2.412 2.968 2.412 2.756 0 5.644-2.253 5.644-4.584 0-1.564-1.324-2.438-2.967-2.438-2.57 0-5.645 2.173-5.645 4.61m145.832-6.618c0 1.14.822 2.411 2.968 2.411 2.756 0 5.644-2.252 5.644-4.584 0-1.563-1.325-2.438-2.967-2.438-2.571 0-5.645 2.173-5.645 4.61m-216.79 148.922c0 1.139.82 2.41 2.967 2.41 2.755 0 5.644-2.252 5.644-4.583 0-1.563-1.325-2.438-2.968-2.438-2.57 0-5.644 2.173-5.644 4.61M657.595 30.58c0 1.14.822 2.411 2.968 2.411 2.756 0 5.644-2.252 5.644-4.584 0-1.563-1.324-2.438-2.967-2.438-2.57 0-5.645 2.173-5.645 4.611m-357.403 69.496c0 1.14.822 2.412 2.968 2.412 2.756 0 5.645-2.253 5.645-4.584 0-1.564-1.325-2.439-2.969-2.439-2.57 0-5.644 2.174-5.644 4.611M367.69 30.58c0 1.14.821 2.411 2.967 2.411 2.756 0 5.644-2.252 5.644-4.584 0-1.563-1.325-2.438-2.967-2.438-2.57 0-5.644 2.173-5.644 4.611M185.629 176.19c0 1.14.82 2.413 2.967 2.413 2.756 0 5.645-2.253 5.645-4.585 0-1.563-1.325-2.438-2.969-2.438-2.57 0-5.643 2.173-5.643 4.61M354.304 37.198c0 1.14.821 2.412 2.967 2.412 2.757 0 5.645-2.252 5.645-4.584 0-1.564-1.325-2.438-2.968-2.438-2.57 0-5.644 2.173-5.644 4.61m142.368 129.065c0 1.14.82 2.411 2.967 2.411 2.756 0 5.644-2.251 5.644-4.583 0-1.564-1.325-2.438-2.968-2.438-2.57 0-5.643 2.173-5.643 4.61m-333.685 3.31c0 1.139.821 2.41 2.967 2.41 2.757 0 5.645-2.252 5.645-4.583 0-1.563-1.325-2.438-2.969-2.438-2.57 0-5.643 2.173-5.643 4.61M340.919 30.58c0 1.14.821 2.411 2.967 2.411 2.756 0 5.644-2.252 5.644-4.584 0-1.563-1.325-2.438-2.967-2.438-2.571 0-5.644 2.173-5.644 4.611M129.024 166.262c0 1.14.822 2.411 2.968 2.411 2.755 0 5.644-2.251 5.644-4.583 0-1.564-1.325-2.438-2.968-2.438-2.57 0-5.644 2.173-5.644 4.61m390.29 3.31c0 1.139.82 2.41 2.967 2.41 2.756 0 5.644-2.252 5.644-4.583 0-1.563-1.325-2.438-2.968-2.438-2.57 0-5.644 2.173-5.644 4.61m-412.93-9.928c0 1.14.82 2.412 2.967 2.412 2.755 0 5.644-2.252 5.644-4.584 0-1.564-1.325-2.438-2.968-2.438-2.57 0-5.644 2.173-5.644 4.61m425.46-138.992c0 1.14.821 2.411 2.968 2.411 2.756 0 5.644-2.252 5.644-4.584 0-1.563-1.325-2.438-2.968-2.438-2.57 0-5.644 2.173-5.644 4.61m-177.65 66.188c0 1.14.821 2.41 2.967 2.41 2.756 0 5.644-2.251 5.644-4.583 0-1.564-1.325-2.438-2.967-2.438-2.57 0-5.644 2.173-5.644 4.61M83.74 166.263c0 1.14.822 2.411 2.968 2.411 2.756 0 5.644-2.251 5.644-4.583 0-1.564-1.325-2.438-2.968-2.438-2.57 0-5.644 2.173-5.644 4.61m-22.641 3.31c0 1.139.82 2.41 2.967 2.41 2.756 0 5.645-2.252 5.645-4.583 0-1.563-1.325-2.438-2.969-2.438-2.57 0-5.643 2.173-5.643 4.61M38.457 96.767c0 1.14.821 2.411 2.967 2.411 2.757 0 5.645-2.253 5.645-4.584 0-1.563-1.325-2.438-2.968-2.438-2.57 0-5.644 2.173-5.644 4.61m503.498 79.425c0 1.14.822 2.412 2.968 2.412 2.755 0 5.644-2.253 5.644-4.585 0-1.563-1.325-2.438-2.968-2.438-2.57 0-5.644 2.173-5.644 4.61m-503.498-9.927c0 1.14.821 2.411 2.967 2.411 2.757 0 5.645-2.251 5.645-4.583 0-1.564-1.325-2.438-2.968-2.438-2.57 0-5.644 2.173-5.644 4.61M517.612 43.816c0 1.14.82 2.411 2.968 2.411 2.755 0 5.644-2.252 5.644-4.584 0-1.563-1.325-2.437-2.968-2.437-2.57 0-5.644 2.172-5.644 4.61m-400.58 0c0 1.14.822 2.411 2.968 2.411 2.756 0 5.644-2.252 5.644-4.584 0-1.563-1.325-2.437-2.967-2.437-2.57 0-5.644 2.172-5.644 4.61M54.026 30.58c0 1.14.821 2.411 2.967 2.411 2.756 0 5.644-2.252 5.644-4.584 0-1.563-1.325-2.438-2.967-2.438-2.571 0-5.644 2.173-5.644 4.611m102.69-13.238c0 1.14.821 2.412 2.968 2.412 2.755 0 5.643-2.253 5.643-4.584 0-1.564-1.324-2.438-2.967-2.438-2.57 0-5.644 2.173-5.644 4.61M52.13 93.456c0 1.14.821 2.412 2.967 2.412 2.756 0 5.644-2.252 5.644-4.584 0-1.564-1.325-2.438-2.967-2.438-2.57 0-5.644 2.173-5.644 4.61m132.583-79.424c0 1.14.822 2.411 2.968 2.411 2.755 0 5.644-2.252 5.644-4.584 0-1.563-1.325-2.438-2.968-2.438-2.57 0-5.644 2.173-5.644 4.611M65.805 90.147c0 1.14.821 2.411 2.968 2.411 2.755 0 5.643-2.252 5.643-4.584 0-1.563-1.324-2.437-2.967-2.437-2.57 0-5.644 2.172-5.644 4.61m138.987-72.806c0 1.14.821 2.412 2.968 2.412 2.756 0 5.644-2.253 5.644-4.584 0-1.564-1.325-2.438-2.967-2.438-2.57 0-5.645 2.173-5.645 4.61M574.062 179.5c0 1.14.82 2.412 2.967 2.412 2.756 0 5.645-2.252 5.645-4.584 0-1.564-1.325-2.438-2.968-2.438-2.57 0-5.645 2.173-5.645 4.61M79.478 86.838c0 1.14.822 2.41 2.968 2.41 2.756 0 5.645-2.251 5.645-4.583 0-1.564-1.325-2.438-2.968-2.438-2.57 0-5.645 2.173-5.645 4.61m138.7-66.186c0 1.14.821 2.411 2.968 2.411 2.756 0 5.643-2.252 5.643-4.584 0-1.563-1.324-2.438-2.967-2.438-2.57 0-5.644 2.173-5.644 4.61M93.152 83.529c0 1.14.822 2.412 2.968 2.412 2.756 0 5.644-2.253 5.644-4.585 0-1.563-1.325-2.437-2.968-2.437-2.57 0-5.644 2.172-5.644 4.61M231.564 23.96c0 1.14.821 2.411 2.968 2.411 2.755 0 5.643-2.252 5.643-4.584 0-1.563-1.325-2.438-2.967-2.438-2.57 0-5.644 2.173-5.644 4.611m426.031 76.115c0 1.14.822 2.412 2.968 2.412 2.756 0 5.644-2.253 5.644-4.584 0-1.564-1.324-2.439-2.967-2.439-2.57 0-5.645 2.174-5.645 4.611m-371.077 0c0 1.14.822 2.412 2.969 2.412 2.755 0 5.644-2.253 5.644-4.584 0-1.564-1.325-2.439-2.968-2.439-2.57 0-5.645 2.174-5.645 4.611m81.348-6.619c0 1.14.821 2.412 2.968 2.412 2.755 0 5.643-2.252 5.643-4.584 0-1.564-1.325-2.438-2.967-2.438-2.57 0-5.644 2.173-5.644 4.61m136.36-52.95c0 1.14.822 2.412 2.968 2.412 2.755 0 5.644-2.252 5.644-4.584 0-1.563-1.325-2.438-2.968-2.438-2.57 0-5.644 2.173-5.644 4.61m119.185 49.641c0 1.14.821 2.411 2.968 2.411 2.755 0 5.644-2.252 5.644-4.584 0-1.563-1.325-2.437-2.968-2.437-2.57 0-5.644 2.172-5.644 4.61m-516.584-3.31c0 1.14.821 2.412 2.967 2.412 2.756 0 5.644-2.252 5.644-4.584 0-1.564-1.325-2.438-2.968-2.438-2.57 0-5.643 2.173-5.643 4.61M605.5 96.767c0 1.14.821 2.411 2.967 2.411 2.756 0 5.644-2.253 5.644-4.584 0-1.563-1.325-2.438-2.968-2.438-2.57 0-5.643 2.173-5.643 4.61m-485-6.618c0 1.14.821 2.411 2.968 2.411 2.756 0 5.644-2.252 5.644-4.584 0-1.563-1.325-2.437-2.967-2.437-2.57 0-5.645 2.172-5.645 4.61m152.345 6.619c0 1.14.821 2.411 2.968 2.411 2.755 0 5.643-2.253 5.643-4.584 0-1.563-1.324-2.438-2.967-2.438-2.57 0-5.644 2.173-5.644 4.61m344.27 86.044c0 1.14.821 2.411 2.968 2.411 2.756 0 5.644-2.252 5.644-4.584 0-1.563-1.325-2.438-2.968-2.438-2.57 0-5.644 2.173-5.644 4.61m-37.616-82.733c0 1.14.821 2.412 2.967 2.412 2.756 0 5.644-2.253 5.644-4.584 0-1.564-1.325-2.439-2.968-2.439-2.57 0-5.643 2.174-5.643 4.611m-445.325-6.619c0 1.14.821 2.412 2.968 2.412 2.756 0 5.644-2.252 5.644-4.584 0-1.564-1.324-2.438-2.968-2.438-2.57 0-5.644 2.173-5.644 4.61m349.974-56.259c0 1.14.821 2.412 2.967 2.412 2.757 0 5.644-2.252 5.644-4.584 0-1.564-1.325-2.438-2.967-2.438-2.57 0-5.644 2.173-5.644 4.61M381.539 96.766c0 1.14.822 2.411 2.968 2.411 2.756 0 5.645-2.253 5.645-4.584 0-1.563-1.325-2.438-2.968-2.438-2.57 0-5.645 2.173-5.645 4.61m169.961 9.929c0 1.14.822 2.412 2.968 2.412 2.756 0 5.645-2.253 5.645-4.585 0-1.564-1.325-2.438-2.969-2.438-2.57 0-5.644 2.173-5.644 4.61M327.533 27.27c0 1.139.821 2.41 2.967 2.41 2.757 0 5.645-2.252 5.645-4.583 0-1.564-1.325-2.438-2.968-2.438-2.57 0-5.644 2.173-5.644 4.61m210.293 82.734c0 1.14.821 2.411 2.969 2.411 2.755 0 5.643-2.252 5.643-4.584 0-1.563-1.325-2.437-2.967-2.437-2.57 0-5.645 2.172-5.645 4.61M162.172 96.766c0 1.14.822 2.411 2.968 2.411 2.756 0 5.644-2.253 5.644-4.584 0-1.563-1.325-2.438-2.968-2.438-2.57 0-5.644 2.173-5.644 4.61m361.98 9.929c0 1.14.822 2.412 2.968 2.412 2.756 0 5.644-2.253 5.644-4.585 0-1.564-1.325-2.438-2.967-2.438-2.57 0-5.644 2.173-5.644 4.61m115.604 76.116c0 1.14.821 2.411 2.967 2.411 2.757 0 5.645-2.252 5.645-4.584 0-1.563-1.325-2.438-2.968-2.438-2.57 0-5.644 2.173-5.644 4.61M103.647 40.508c0 1.14.821 2.41 2.968 2.41 2.756 0 5.644-2.251 5.644-4.583 0-1.563-1.325-2.438-2.967-2.438-2.571 0-5.645 2.173-5.645 4.61m406.832 59.57c0 1.139.821 2.41 2.967 2.41 2.757 0 5.644-2.252 5.644-4.583 0-1.564-1.325-2.439-2.968-2.439-2.57 0-5.643 2.174-5.643 4.611M454.604 30.58c0 1.14.822 2.411 2.968 2.411 2.756 0 5.645-2.252 5.645-4.584 0-1.563-1.325-2.438-2.968-2.438-2.57 0-5.645 2.173-5.645 4.611m37.963 66.187c0 1.14.822 2.411 2.969 2.411 2.755 0 5.643-2.253 5.643-4.584 0-1.563-1.324-2.438-2.967-2.438-2.57 0-5.645 2.173-5.645 4.61M421.141 23.96c0 1.14.821 2.411 2.967 2.411 2.756 0 5.644-2.252 5.644-4.584 0-1.563-1.325-2.438-2.967-2.438-2.571 0-5.644 2.173-5.644 4.611M188.173 93.456c0 1.14.822 2.412 2.968 2.412 2.756 0 5.644-2.252 5.644-4.584 0-1.564-1.325-2.438-2.968-2.438-2.57 0-5.644 2.173-5.644 4.61m13.675-3.309c0 1.14.821 2.411 2.967 2.411 2.756 0 5.644-2.252 5.644-4.584 0-1.563-1.325-2.437-2.968-2.437-2.57 0-5.643 2.172-5.643 4.61m264.718 9.928c0 1.14.822 2.412 2.968 2.412 2.756 0 5.644-2.253 5.644-4.584 0-1.564-1.324-2.439-2.967-2.439-2.57 0-5.645 2.174-5.645 4.611M222.358 86.838c0 1.14.822 2.41 2.968 2.41 2.756 0 5.644-2.251 5.644-4.583 0-1.564-1.325-2.438-2.968-2.438-2.57 0-5.644 2.173-5.644 4.61m91.79-66.186c0 1.14.82 2.411 2.967 2.411 2.756 0 5.644-2.252 5.644-4.584 0-1.563-1.325-2.438-2.968-2.438-2.57 0-5.643 2.173-5.643 4.61m-57.131 9.93c0 1.138.82 2.41 2.967 2.41 2.756 0 5.644-2.252 5.644-4.584 0-1.563-1.325-2.438-2.968-2.438-2.57 0-5.643 2.173-5.643 4.611m177.872 76.115c0 1.14.82 2.412 2.967 2.412 2.756 0 5.644-2.253 5.644-4.585 0-1.564-1.325-2.438-2.968-2.438-2.57 0-5.643 2.173-5.643 4.61M252.334 93.457c0 1.14.821 2.412 2.968 2.412 2.755 0 5.644-2.252 5.644-4.584 0-1.564-1.325-2.438-2.968-2.438-2.57 0-5.644 2.173-5.644 4.61m142.88 0c0 1.14.82 2.412 2.967 2.412 2.756 0 5.644-2.252 5.644-4.584 0-1.564-1.325-2.438-2.968-2.438-2.57 0-5.644 2.173-5.644 4.61M83.568 37.197c0 1.14.822 2.412 2.969 2.412 2.755 0 5.644-2.252 5.644-4.584 0-1.564-1.325-2.438-2.968-2.438-2.57 0-5.645 2.173-5.645 4.61m501.725-23.165c0 1.14.821 2.411 2.968 2.411 2.756 0 5.644-2.252 5.644-4.584 0-1.563-1.325-2.438-2.968-2.438-2.57 0-5.644 2.173-5.644 4.611M406.104 156.334c0 1.14.821 2.411 2.968 2.411 2.756 0 5.644-2.252 5.644-4.584 0-1.563-1.325-2.438-2.968-2.438-2.57 0-5.644 2.173-5.644 4.61m36.727-67.902c0 .079.026.212.212.291 1.14.37 3.418 1.802 5.14 4.743.477.822 1.246 1.96 1.246 4.16 0 1.908-.504 3.869-1.193 5.777-.053.159-.106.292-.08.398 0 .159.107.265.266.265.185 0 .318-.106.424-.292 1.192-2.12 1.643-4.584 1.643-6.996-.133-3.417-2.094-5.935-2.094-5.935.08 0-2.437-3.26-3.153-4.372-.98-1.51-1.43-3.021-1.483-3.127a59 59 0 0 1-.265-1.033c-.028-.107-.16-.213-.32-.213a.35.35 0 0 0-.343.345zm-254.658 25.397c0 .186.16.344.345.344.133 0 .291-.105.318-.212 0-.026.238-.953.264-1.033.028-.106.265-1.113 1.22-2.677 1.033-1.722 2.623-2.967 3.948-4.822 1.299-1.855 2.093-3.603 2.093-5.935 0-2.412-.556-4.426-1.96-6.996-.08-.185-.239-.292-.398-.292-.053 0-.106 0-.133.027-.132.053-.185.159-.185.318 0 .08.027.212.08.318 1.06 2.464 1.484 3.868 1.484 5.777 0 2.199-.769 3.338-1.246 4.16-1.723 2.94-4.505 4.372-5.617 4.743-.186.079-.213.212-.213.291zM264.96 12.316c0 .079.026.212.212.291 1.14.371 3.418 1.802 5.14 4.743.477.822 1.246 1.961 1.246 4.16 0 1.908-.504 3.87-1.193 5.777-.053.159-.106.292-.08.397 0 .16.107.265.266.265.185 0 .318-.105.424-.291 1.192-2.12 1.643-4.584 1.643-6.996-.133-3.418-2.094-5.935-2.094-5.935.08 0-2.437-3.26-3.153-4.372-.98-1.51-1.43-3.021-1.483-3.127a57 57 0 0 1-.265-1.034c-.028-.106-.16-.212-.319-.212a.35.35 0 0 0-.344.345zm348.483 67.841c0 .08.026.212.212.291 1.14.372 3.418 1.802 5.14 4.744.477.821 1.246 1.961 1.246 4.16 0 1.908-.504 3.87-1.192 5.777-.054.158-.107.291-.08.397 0 .16.106.265.265.265.186 0 .318-.106.424-.292 1.192-2.12 1.643-4.583 1.643-6.995-.132-3.418-2.094-5.936-2.094-5.936.08 0-2.437-3.259-3.153-4.372-.98-1.51-1.43-3.02-1.483-3.127a64 64 0 0 1-.265-1.033c-.027-.106-.16-.212-.319-.212a.35.35 0 0 0-.344.345zm52.096 1.655c0 .08.027.212.212.291 1.14.372 3.418 1.802 5.14 4.743.478.822 1.246 1.962 1.246 4.16 0 1.908-.503 3.87-1.193 5.778-.052.158-.105.29-.079.397 0 .159.106.265.265.265.185 0 .318-.106.424-.292 1.192-2.12 1.642-4.584 1.642-6.995-.132-3.418-2.092-5.936-2.092-5.936.08 0-2.439-3.26-3.154-4.372-.98-1.51-1.431-3.021-1.484-3.127a64 64 0 0 1-.265-1.033c-.026-.106-.16-.212-.318-.212a.35.35 0 0 0-.344.345zm-40.48 82.734c0 .08.026.211.211.291 1.14.37 3.418 1.802 5.141 4.744.477.82 1.246 1.96 1.246 4.16 0 1.908-.504 3.868-1.193 5.776-.053.16-.106.291-.08.398 0 .158.106.265.266.265.185 0 .317-.107.423-.292 1.193-2.12 1.644-4.584 1.644-6.996-.133-3.418-2.094-5.935-2.094-5.935.08 0-2.438-3.26-3.153-4.372-.98-1.51-1.432-3.02-1.484-3.127-.027-.08-.265-1.033-.265-1.033-.027-.107-.159-.212-.318-.212a.35.35 0 0 0-.344.344zM421.14 44.332a.35.35 0 0 0 .344.344c.133 0 .291-.106.318-.212 0-.027.238-.954.265-1.034.026-.105.265-1.113 1.219-2.676 1.034-1.722 2.623-2.968 3.948-4.822 1.299-1.855 2.094-3.605 2.094-5.936 0-2.411-.557-4.425-1.962-6.995-.079-.186-.238-.292-.397-.292-.052 0-.106 0-.133.027-.132.053-.184.159-.184.318 0 .079.026.212.079.318 1.06 2.464 1.484 3.868 1.484 5.776 0 2.2-.769 3.339-1.246 4.16-1.722 2.941-4.504 4.373-5.617 4.743-.186.08-.212.213-.212.292zm-94.948 61.222c0 .186.16.345.345.345.133 0 .291-.106.318-.212 0-.026.238-.954.265-1.033.027-.107.265-1.113 1.219-2.677 1.033-1.722 2.623-2.968 3.948-4.823 1.299-1.855 2.093-3.603 2.093-5.935 0-2.411-.556-4.425-1.96-6.995-.08-.186-.239-.292-.398-.292-.053 0-.106 0-.132.027-.133.053-.186.158-.186.318 0 .079.027.212.08.317 1.06 2.464 1.484 3.87 1.484 5.777 0 2.2-.769 3.338-1.246 4.16-1.722 2.942-4.505 4.372-5.617 4.743-.186.08-.212.212-.212.292zM156.716 39.367a.35.35 0 0 0 .344.345c.133 0 .292-.106.318-.212 0-.027.239-.954.265-1.033.026-.107.265-1.114 1.22-2.677 1.033-1.722 2.623-2.968 3.948-4.823 1.298-1.855 2.093-3.603 2.093-5.935 0-2.411-.556-4.425-1.961-6.996-.08-.185-.239-.291-.397-.291-.053 0-.107 0-.133.027-.132.053-.185.159-.185.317a.8.8 0 0 0 .079.318c1.06 2.465 1.483 3.87 1.483 5.777 0 2.2-.767 3.339-1.244 4.16-1.723 2.941-4.505 4.373-5.618 4.743-.186.08-.212.212-.212.292zm400.579 0c0 .186.159.345.345.345.132 0 .291-.106.318-.212 0-.027.238-.954.265-1.033.026-.107.265-1.114 1.218-2.677 1.033-1.722 2.623-2.968 3.948-4.823 1.299-1.855 2.094-3.603 2.094-5.935 0-2.411-.557-4.425-1.96-6.996-.081-.185-.24-.291-.399-.291-.053 0-.105 0-.132.027-.133.053-.186.159-.186.317a.8.8 0 0 0 .08.318c1.06 2.465 1.484 3.87 1.484 5.777 0 2.2-.769 3.339-1.246 4.16-1.722 2.941-4.504 4.373-5.617 4.743-.186.08-.212.212-.212.292zm108.243-27.051c0 .079.027.212.212.291 1.14.371 3.418 1.802 5.14 4.743.478.822 1.246 1.961 1.246 4.16 0 1.908-.503 3.87-1.192 5.777-.053.159-.106.292-.08.397 0 .16.106.265.265.265.185 0 .318-.105.424-.291 1.193-2.12 1.642-4.584 1.642-6.996-.132-3.418-2.092-5.935-2.092-5.935.08 0-2.439-3.26-3.154-4.372-.98-1.51-1.43-3.021-1.484-3.127-.026-.08-.265-1.034-.265-1.034-.026-.106-.16-.212-.318-.212a.35.35 0 0 0-.344.345zM351.355 178.36c0 .186.16.344.345.344.133 0 .292-.105.318-.211 0-.027.239-.954.265-1.033.027-.107.265-1.114 1.22-2.677 1.032-1.723 2.622-2.968 3.947-4.823 1.298-1.855 2.093-3.603 2.093-5.935 0-2.412-.556-4.426-1.96-6.995-.08-.186-.239-.293-.398-.293-.053 0-.106 0-.132.028-.133.052-.186.158-.186.317 0 .08.027.212.08.318 1.06 2.464 1.484 3.87 1.484 5.777 0 2.199-.769 3.338-1.246 4.16-1.722 2.942-4.505 4.372-5.617 4.743-.185.08-.213.212-.213.291zM314.148 41.021a.35.35 0 0 0 .344.344c.132 0 .291-.105.318-.212 0-.026.238-.953.265-1.032.026-.107.265-1.114 1.219-2.677 1.033-1.722 2.623-2.968 3.948-4.823 1.298-1.855 2.093-3.603 2.093-5.935 0-2.411-.557-4.426-1.96-6.996-.08-.185-.24-.291-.398-.291-.053 0-.106 0-.133.026-.132.053-.185.16-.185.318 0 .08.026.212.08.318 1.06 2.464 1.483 3.869 1.483 5.777 0 2.2-.768 3.338-1.245 4.16-1.723 2.94-4.504 4.372-5.618 4.743-.185.08-.211.212-.211.291zM500.51 80.156c0 .08.027.212.212.291 1.14.372 3.418 1.802 5.14 4.744.478.821 1.246 1.961 1.246 4.16 0 1.908-.503 3.87-1.192 5.777-.053.158-.106.291-.08.397 0 .16.106.265.265.265.185 0 .318-.106.424-.292 1.193-2.12 1.642-4.583 1.642-6.995-.132-3.418-2.092-5.936-2.092-5.936.08 0-2.439-3.259-3.154-4.372-.98-1.51-1.43-3.02-1.484-3.127a64 64 0 0 1-.265-1.033c-.026-.106-.159-.212-.318-.212a.35.35 0 0 0-.344.345zm-174.317 3.37v22.027h.662V83.527Zm27.998 3.31v27.017h.662V86.837Zm-46.056-11.04v22.106h.662V75.797Zm59.73 17.659v20.398h.663V93.456Zm13.675 3.31v17.088h.662V96.765Zm13.673-3.31v20.398h.662V93.456Zm21.616-17.659v22.106h.662V75.797ZM280.787 77.49v17.104h.662V77.49Zm162.043 4.978v22.054h.662V82.468ZM252.334 93.456V112.2h.662V93.456Zm61.813-72.806v20.372h.662V20.65ZM264.958 6.353v22.054h.662V6.353Zm209.55 69.444v22.106h.663V75.797Zm-252.15 11.04v22.053h.662V86.837ZM500.51 74.195v20.399h.662V74.195ZM201.847 90.146v20.399h.662V90.146Zm232.68-69.496v20.399h.661v-20.4ZM188.172 93.456v20.372h.662V93.456Zm330.248-14.337v18.784h.662V79.12Zm13.674.543v24.86h.662v-24.86Zm13.674.543v27.626h.662V80.205Zm-375.654-6.063v20.452h.662V74.142ZM335.475 7.97v17.129h.662V7.968Zm223.968 72.779v23.774h.662V80.748Zm27.997-4.95v22.105h.662V75.797ZM134.174 93.455v17.05h.662v-17.05Zm479.268-19.26v20.398h.662V74.195ZM120.5 90.145v18.731h.662v-18.73Zm502.91 0v20.399h.663V90.146Zm-516.584-3.31v20.413h.662V86.837ZM665.538 75.85v22.053h.662V75.85ZM231.563 23.96v18.743h.663V23.96ZM93.153 83.526v22.093h.661V83.527ZM218.177 20.65V37.7h.662V20.65Zm-138.7 66.187v22.092h.663V86.837ZM204.793 17.34v18.784h.663V17.34ZM65.805 90.146v20.412h.662V90.146Zm118.909-76.115v22.054h.662V14.03ZM52.13 93.456v18.73h.662v-18.73Zm-5.73 50.167v20.467h.661v-20.467zm22.641-1.093v24.87h.662v-24.87ZM38.457 96.765v17.05h.662v-17.05Zm53.226 44.672v22.653h.662v-22.653zm22.642-1.092v17.126h.662v-17.126zm22.641 3.294v20.451h.662V143.64ZM348.861 8.51v19.896h.662V8.511ZM170.929 148.626V167.4h.662v-18.774ZM362.246 9.054v25.971h.662V9.054Zm-168.675 141.18v23.784h.662v-23.784ZM375.631 9.596v18.811h.663V9.597ZM156.717 17.34v22.028h.662V17.34ZM403.63 4.646v20.452h.662V4.646ZM225.677 148.594V167.4h.662v-18.806Zm439.86-142.24v22.053h.663V6.353ZM248.32 148.047v25.97h.662v-25.97zm22.642-.546V167.4h.662v-19.898zm22.642-.547v17.135h.662v-17.135ZM632.143 23.96v18.744h.661V23.96Zm-323.84 135.684v20.398h.661v-20.398ZM618.756 20.65V37.7h.662V20.65ZM351.356 156.333v22.027h.662v-22.027zm32.107-3.31v25.388h.662v-25.387ZM605.37 17.34v18.784h.662V17.34ZM406.104 156.333v23.716h.663v-23.716ZM585.293 14.031v22.054h.662V14.03ZM428.746 159.643v22.045h.662v-22.045zm22.641 6.618v17.066h.662V166.26zm30.585-19.314V167.4h.662v-20.453ZM557.295 17.34v22.028h.662V17.34Zm-52.682 129.607v17.143h.662v-17.143zm22.642 0V167.4h.662v-20.453zm22.642 0v27.07h.662v-27.07ZM531.842 20.65v20.399h.662v-20.4Zm-400.58 0v20.399h.663v-20.4ZM582.005 155.22v22.106h.662v-22.106Zm-56.45-132.413v18.836h.662V22.808Zm99.503 135.775v22.054h.662v-22.054ZM124.975 22.808v18.836h.662V22.808Zm387.193-1.576v17.103h.662V21.232ZM647.7 158.53v22.106h.662V158.53ZM492.091 12.919v22.106h.662V12.92Zm-70.95 11.04v20.373h.661V23.959Zm-309.552-2.727v17.103h.663V21.232Zm-20.078-8.313v22.106h.662V12.92Zm371.036-6.618v22.106h.662V6.301Zm-400.58 0v22.106h.663V6.301Zm234.67-1.655v20.452h.662V4.646Zm-2.176 74.422v18.835h.662V79.068Zm343.112 102.098v1.06h12.973v-1.06zM515.428 42.174v1.059H528.4v-1.06Zm99.503 138.992v1.06h12.973v-1.06zM114.849 42.174v1.059h12.974v-1.06ZM88.03 170.942a.17.17 0 0 0-.113.057l-.005.014h-.007l.003.014a.165.165 0 0 0 .027.204c5.701 4.893 14.227 7.326 22.749 7.326s17.047-2.433 22.749-7.326a.165.165 0 0 0-.2-.262c-5.618 3.77-14.083 5.67-22.55 5.67-8.465 0-16.93-1.9-22.548-5.67l-.013.002a.17.17 0 0 0-.092-.03zm2.335 1.72c5.55 2.877 12.933 4.308 20.319 4.308s14.768-1.431 20.318-4.307c-5.5 3.703-12.907 5.564-20.318 5.564-7.41 0-14.819-1.861-20.319-5.564m-2.323-1.556c11.32 7.598 33.963 7.598 45.283 0-11.32 9.715-33.962 9.715-45.283 0m467.825-59.72a.165.165 0 0 0-.211.075c-2.424 4.632-9.159 6.262-13.433 3.251a.165.165 0 0 0-.198.02h-.015v.01l-.017.01a.165.165 0 0 0 .02.198v.015c2.406 2.36 5.364 3.131 7.985 2.497 2.621-.635 4.899-2.673 5.96-5.872a.165.165 0 0 0-.092-.204zm-.952 1.75c-1.167 2.14-2.97 3.514-4.995 4.004-2.023.49-4.255.093-6.271-1.276 3.804 1.588 8.61.424 11.266-2.728m-12.787 1.711c4.363 3.074 11.2 1.42 13.674-3.31-2.092 6.306-8.93 7.96-13.674 3.31M398.553 141.01c-4.03.01-8.06 1.603-10.912 4.836a.17.17 0 0 0 .007.108.17.17 0 0 0-.01.107l.017.002.001.017a.165.165 0 0 0 .199.002l.015.002c2.915-2.392 7.187-3.46 11.4-3.251 4.211.21 8.356 1.696 11.02 4.366a.165.165 0 0 0 .251-.214c-2.853-3.967-7.42-5.987-11.988-5.975zm.001.332c3.856-.01 7.71 1.464 10.485 4.36-2.663-1.945-6.186-3.022-9.754-3.2-3.568-.177-7.18.546-10.023 2.217 2.633-2.251 5.961-3.369 9.292-3.377m-10.79 4.614c6.014-6.818 17.335-6.255 22.643 1.125-5.406-5.416-16.727-5.979-22.642-1.125M107.899 45.193l-.01.01h-.014l-.005.015a.165.165 0 0 0-.078.183c1.019 3.17 3.239 5.194 5.806 5.829s5.475-.122 7.853-2.452a.165.165 0 0 0-.21-.253c-4.211 2.965-10.8 1.336-13.144-3.25a.2.2 0 0 0-.039-.033.2.2 0 0 0-.047-.04.2.2 0 0 0-.06-.004.2.2 0 0 0-.052-.005zm.922 1.761c2.583 3.104 7.265 4.262 10.997 2.719-1.983 1.34-4.167 1.724-6.14 1.236-1.974-.488-3.728-1.845-4.857-3.955m-.871-1.603c2.393 4.682 9.086 6.337 13.386 3.31-4.687 4.59-11.38 2.936-13.386-3.31M214.406 6.123c-1.785.006-3.658.59-5.407 1.83l-.003.015a.165.165 0 0 0-.05.192l.015.014-.002.01a.2.2 0 0 0 .043.026.2.2 0 0 0 .053.033.2.2 0 0 0 .061-.004.2.2 0 0 0 .05-.003c4.796-2.348 11.395.36 13.158 5.4a.165.165 0 0 0 .319-.084c-.598-3.378-2.603-5.782-5.167-6.834a8 8 0 0 0-3.071-.595zm0 .33a7.7 7.7 0 0 1 2.946.571c1.99.817 3.62 2.492 4.482 4.839-2.22-3.614-6.953-5.556-11.071-4.543 1.214-.573 2.45-.864 3.644-.868m-5.311 1.635c5.515-3.911 12.208-1.165 13.386 5.493-1.8-5.142-8.493-7.89-13.386-5.493M331.807 31.95l-.012.007h-.014l-.007.014a.165.165 0 0 0-.101.17c.597 3.378 2.602 5.782 5.166 6.834 2.563 1.052 5.679.75 8.477-1.234a.165.165 0 0 0-.168-.283c-4.795 2.347-11.393-.361-13.157-5.4a.2.2 0 0 0-.033-.038.2.2 0 0 0-.042-.046.2.2 0 0 0-.06-.013.2.2 0 0 0-.05-.011zm.675 1.88c2.22 3.614 6.954 5.556 11.072 4.544-2.261 1.065-4.6 1.112-6.59.295-1.99-.816-3.62-2.492-4.482-4.84m-.646-1.717c1.8 5.142 8.492 7.888 13.385 5.493-5.515 3.91-12.208 1.164-13.385-5.493m40.208 5.336a.165.165 0 0 0-.204.093c-2.04 4.822-8.633 7.007-13.15 4.356a.2.2 0 0 0-.05-.007.2.2 0 0 0-.06-.009.2.2 0 0 0-.056.03.2.2 0 0 0-.044.023v.01l-.016.012a.17.17 0 0 0 .027.103.17.17 0 0 0 .01.108c2.598 2.155 5.615 2.679 8.181 1.829s4.673-3.071 5.47-6.352a.165.165 0 0 0-.108-.196m-.806 1.824c-.99 2.233-2.678 3.754-4.66 4.41-1.981.656-4.244.445-6.37-.755 3.93 1.271 8.636-.288 11.03-3.655m-12.631 2.767c4.61 2.707 11.303.49 13.385-4.434-1.572 6.464-8.265 8.681-13.385 4.434m149.871 3.152-.004.009-.02.001a.165.165 0 0 0-.075.184l-.007.014c1.018 3.17 3.238 5.194 5.806 5.829s5.474-.122 7.853-2.452a.165.165 0 0 0-.211-.253c-4.21 2.965-10.8 1.336-13.144-3.25a.2.2 0 0 0-.038-.032.2.2 0 0 0-.048-.04.2.2 0 0 0-.06-.005.2.2 0 0 0-.051-.005zm.922 1.761c2.582 3.104 7.265 4.262 10.996 2.719-1.982 1.34-4.166 1.724-6.14 1.236s-3.727-1.845-4.856-3.955m-.872-1.603c2.394 4.682 9.087 6.337 13.386 3.31-4.686 4.59-11.379 2.936-13.386-3.31M614.985 6.123c-1.784.006-3.657.59-5.406 1.83l-.003.015a.165.165 0 0 0-.05.192l.016.006-.003.017a.17.17 0 0 0 .106.018.17.17 0 0 0 .102.035c4.794-2.348 11.393.36 13.156 5.4a.165.165 0 0 0 .319-.084c-.597-3.378-2.603-5.782-5.166-6.834-.961-.394-2-.598-3.071-.595zm0 .33a7.7 7.7 0 0 1 2.945.571c1.99.817 3.621 2.493 4.482 4.84-2.22-3.614-6.952-5.557-11.07-4.544 1.214-.573 2.45-.864 3.643-.868m-5.31 1.635c5.514-3.911 12.207-1.165 13.385 5.493-1.8-5.142-8.493-7.89-13.386-5.493m-94.933 98.855-.005.008h-.02a.165.165 0 0 0-.087.18l-.008.013c.843 3.31 3.01 5.546 5.629 6.396s5.685.31 8.31-1.876a.165.165 0 0 0-.19-.27c-4.575 2.699-11.315.513-13.437-4.357a.2.2 0 0 0-.037-.036.2.2 0 0 0-.044-.042.2.2 0 0 0-.061-.01.2.2 0 0 0-.05-.006zm.813 1.824c2.469 3.414 7.297 4.98 11.299 3.664-2.16 1.228-4.47 1.453-6.501.795-2.03-.659-3.77-2.197-4.798-4.459m-.772-1.664c2.165 4.971 9.003 7.189 13.673 4.435-5.175 4.307-12.011 2.09-13.673-4.435m-13.726 63.86a.165.165 0 0 0-.218.05c-2.185 3.174-6.089 5.457-10.302 6.48-4.213 1.021-8.729.782-12.125-1.039a.17.17 0 0 0-.103.031.17.17 0 0 0-.107.014l-.005.02-.009.003a.2.2 0 0 0-.005.05.2.2 0 0 0-.006.062.2.2 0 0 0 .03.053.2.2 0 0 0 .027.044c7.444 5.694 18.883 2.918 22.89-5.554a.165.165 0 0 0-.067-.213zm-1.178 1.751c-4.199 6.409-13.166 8.584-19.835 4.812 3.192 1.13 6.99 1.156 10.571.287 3.581-.868 6.944-2.632 9.264-5.099m-21.545 3.886c6.89 3.693 18.21.946 22.64-5.494-3.96 8.375-15.282 11.122-22.64 5.494M78.4 75.58a8.2 8.2 0 0 0-3.128.587c-2.618 1.052-4.683 3.47-5.327 6.88l.009.012a.165.165 0 0 0 .097.174l.02-.001.005.008a.2.2 0 0 0 .05-.01.2.2 0 0 0 .06-.013.2.2 0 0 0 .042-.046.2.2 0 0 0 .035-.037c1.847-5.088 8.591-7.797 13.445-5.402a.165.165 0 0 0 .17-.283c-1.766-1.26-3.664-1.856-5.478-1.87m-.002.328c1.22.009 2.48.311 3.716.9-4.19-1.057-9.045.894-11.34 4.556.9-2.377 2.582-4.07 4.621-4.89a7.9 7.9 0 0 1 3.003-.566m-8.29 7.17c1.27-6.72 8.107-9.468 13.673-5.494-4.952-2.444-11.789.303-13.674 5.493m219.938 87.886a.165.165 0 0 0-.218.05c-2.185 3.174-6.088 5.457-10.302 6.48-4.213 1.021-8.729.782-12.126-1.039a.165.165 0 0 0-.194.043l-.015.002v.01l-.015.013a.165.165 0 0 0 .043.194l.002.015c7.446 5.694 18.884 2.918 22.892-5.554a.165.165 0 0 0-.067-.213zm-1.178 1.751c-4.2 6.409-13.166 8.584-19.835 4.812 3.192 1.13 6.99 1.156 10.571.287 3.582-.868 6.945-2.632 9.264-5.099m-21.546 3.886c6.89 3.693 18.211.946 22.642-5.494-3.962 8.375-15.282 11.122-22.642 5.494m126.814-94.402a8.2 8.2 0 0 0-3.129.588c-2.617 1.051-4.682 3.47-5.326 6.88l.009.012a.165.165 0 0 0 .097.174l.02-.001.005.008a.2.2 0 0 0 .05-.01.2.2 0 0 0 .06-.013.2.2 0 0 0 .042-.046.2.2 0 0 0 .034-.037c1.847-5.088 8.592-7.797 13.446-5.402a.165.165 0 0 0 .17-.283c-1.766-1.26-3.664-1.856-5.478-1.87zm-.002.329c1.22.009 2.48.311 3.716.9-4.19-1.057-9.045.894-11.34 4.555.9-2.377 2.581-4.07 4.62-4.89a7.9 7.9 0 0 1 3.004-.565m-8.29 7.17c1.27-6.721 8.106-9.468 13.673-5.494-4.952-2.444-11.79.303-13.674 5.493m-163.881 86.757-.005.017-.018-.002a.17.17 0 0 0-.015.107.17.17 0 0 0-.032.102c4.333 8.24 15.774 10.48 22.895 4.484a.165.165 0 0 0-.191-.268c-3.282 1.963-7.74 2.405-11.952 1.58-4.213-.825-8.174-2.916-10.473-5.972a.17.17 0 0 0-.107-.015.17.17 0 0 0-.102-.032zm1.24 1.705c2.401 2.341 5.801 3.939 9.378 4.64s7.327.503 10.435-.759c-6.431 4.04-15.382 2.286-19.814-3.881m-1.164-1.558c4.664 6.2 15.985 8.417 22.642 4.434-7.038 5.927-18.359 3.71-22.642-4.434M363.016 75.96c-1.521.09-3.094.568-4.607 1.483a.2.2 0 0 0-.03.04.2.2 0 0 0-.036.05.2.2 0 0 0-.001.061.2.2 0 0 0-.001.052l.01.01.002.013a.2.2 0 0 0 .04.03.2.2 0 0 0 .05.037.2.2 0 0 0 .062.001.2.2 0 0 0 .051 0c5.138-2.066 11.887 1.2 13.453 6.513a.165.165 0 0 0 .323-.067c-.442-3.51-2.404-6.12-5.018-7.385a8.65 8.65 0 0 0-4.299-.838zm.02.327a8.3 8.3 0 0 1 4.134.808c2.05.992 3.67 2.851 4.438 5.349-2.112-3.924-7-6.29-11.386-5.511.942-.367 1.888-.59 2.813-.646m-4.541 1.297c5.965-3.608 12.802-.3 13.673 6.619-1.597-5.418-8.434-8.727-13.673-6.619m165.144 98.852a.2.2 0 0 0-.05.013.2.2 0 0 0-.05.005l-.003.009-.02.005a.165.165 0 0 0-.042.194l-.005.015c4.333 8.24 15.774 10.48 22.895 4.484a.165.165 0 0 0-.192-.269c-3.281 1.963-7.739 2.406-11.952 1.581s-8.174-2.917-10.473-5.972a.2.2 0 0 0-.044-.026.2.2 0 0 0-.053-.032zm1.14 1.723c2.402 2.34 5.802 3.938 9.378 4.638s7.327.504 10.434-.758c-6.43 4.04-15.38 2.287-19.812-3.88m-1.163-1.56c4.663 6.2 15.984 8.418 22.642 4.435-7.039 5.927-18.36 3.71-22.642-4.434M131.009 79.299c-2.308.123-4.618 1.34-6.34 3.68a.165.165 0 0 0 .016.198v.016l.013.005.007.012a.2.2 0 0 0 .05.013.2.2 0 0 0 .06.014.2.2 0 0 0 .056-.023.2.2 0 0 0 .048-.019c3.665-3.59 10.395-3.036 13.425 1.106a.165.165 0 0 0 .28-.173c-1.503-2.96-4.005-4.599-6.628-4.815a7 7 0 0 0-.987-.014m.017.33q.473-.025.943.014c2.014.165 3.95 1.22 5.394 3.116-3.028-2.64-7.806-3.034-11.224-.925 1.464-1.38 3.175-2.115 4.887-2.205m-6.223 3.448c3.875-5.268 10.712-4.705 13.674 1.126-3.094-4.23-9.93-4.792-13.674-1.126M103.66 72.68c-2.308.123-4.618 1.34-6.339 3.68a.17.17 0 0 0 .016.107.17.17 0 0 0 0 .107h.017l.002.017a.17.17 0 0 0 .107-.016.17.17 0 0 0 .107.001c3.665-3.589 10.395-3.036 13.424 1.105a.165.165 0 0 0 .281-.172c-1.503-2.96-4.005-4.6-6.628-4.815a7 7 0 0 0-.987-.014zm.017.33q.473-.025.943.014c2.014.165 3.95 1.22 5.394 3.116-3.028-2.64-7.806-3.033-11.225-.924 1.464-1.38 3.176-2.116 4.888-2.206m-6.223 3.448c3.875-5.268 10.713-4.705 13.674 1.126-3.094-4.23-9.93-4.791-13.674-1.126m-46.403 5.74a8.2 8.2 0 0 0-3.128.588c-2.617 1.051-4.682 3.47-5.327 6.88a.17.17 0 0 0 .06.088.17.17 0 0 0 .046.098l.016-.008.01.015a.17.17 0 0 0 .088-.06.17.17 0 0 0 .098-.046c1.847-5.088 8.592-7.798 13.446-5.402a.165.165 0 0 0 .169-.283c-1.765-1.26-3.663-1.856-5.478-1.87m-.002.329c1.22.009 2.481.311 3.716.9-4.19-1.057-9.045.894-11.339 4.555.9-2.377 2.58-4.07 4.62-4.89a7.9 7.9 0 0 1 3.003-.565m-8.29 7.17c1.27-6.721 8.107-9.468 13.674-5.494-4.952-2.444-11.79.303-13.674 5.493m124.579 86.746a.17.17 0 0 0-.126.011l-.013.016h-.01l-.001.014a.165.165 0 0 0-.045.194c4.332 8.24 15.774 10.48 22.894 4.484a.165.165 0 0 0-.19-.269c-3.283 1.964-7.74 2.406-11.953 1.581s-8.174-2.916-10.473-5.972l-.015-.002a.17.17 0 0 0-.068-.057zm1.114 1.716c2.401 2.341 5.801 3.939 9.378 4.64s7.327.503 10.435-.759c-6.43 4.04-15.382 2.287-19.813-3.88m-1.163-1.558c4.663 6.2 15.983 8.417 22.641 4.434-7.038 5.927-18.36 3.71-22.641-4.434m274.523-26.743c-3.075-.078-6.182.737-8.858 2.58l-.003.016a.165.165 0 0 0-.053.191l.015.014-.002.01a.2.2 0 0 0 .043.027.2.2 0 0 0 .052.033.2.2 0 0 0 .062-.003.2.2 0 0 0 .05-.002c3.517-1.667 8.094-1.69 12.308-.458s8.058 3.717 10.123 7.016a.165.165 0 0 0 .293-.152c-2.408-5.717-8.16-9.122-14.031-9.272zm-.006.333c5.127.133 10.162 2.804 12.859 7.347-2.233-2.6-5.558-4.54-9.145-5.59-3.587-1.048-7.435-1.203-10.716-.216 2.201-1.108 4.61-1.602 7.002-1.54m-8.758 2.384c7.694-5.303 19.016-1.994 22.642 6.619-4.188-6.69-15.51-10-22.642-6.62m-390.26 18.37a.17.17 0 0 0-.085.02l-.015-.006-.01.01-.013.003-.003.016a.165.165 0 0 0-.053.191c4.008 8.472 15.447 11.248 22.892 5.554a.165.165 0 0 0-.179-.277c-3.396 1.82-7.912 2.06-12.125 1.038-4.214-1.022-8.118-3.305-10.302-6.48a.17.17 0 0 0-.106-.068m1.067 1.772c2.32 2.466 5.683 4.23 9.264 5.098 3.58.87 7.379.843 10.57-.287-6.668 3.772-15.634 1.597-19.834-4.811m-1.096-1.609c4.43 6.44 15.752 9.187 22.642 5.494-7.36 5.628-18.68 2.88-22.642-5.494m521.837-22.867v27.202h1.191V148.24zm-356.327 0v27.202h1.192V148.24ZM175.25 9.246v27.203h1.19V9.246Zm299.433 0v27.203h1.191V9.246Zm205.126 69.496v27.203H681V78.742Zm-2.45 69.497v27.202H681V148.24zm-3.64 0v27.202h1.192V148.24ZM570.035 78.742v27.203h1.19V78.742Zm-112.933 0v27.203h1.192V78.742ZM279.231 9.246v27.203h1.19V9.246Zm65.496 69.496v27.203h1.191V78.742ZM74.104 9.246v27.203h1.192V9.246ZM242.87 78.742v27.203h1.191V78.742Zm-90.161 0v27.203h1.19V78.742ZM386.223 9.246v27.203h1.191V9.246Zm293.586 0v27.203H681V9.246Zm-103.98 0v27.203h1.19V9.246ZM373.996 148.239v27.202h1.192V148.24ZM0 174.713v.728h681v-.728zm0-6.618v.728h681v-.728zm0-6.619v.728h681v-.728zm0-6.619v.728h681v-.728zm0-6.619v.728h681v-.728zm0-43.021v.728h681v-.728zm0-6.618v.727h681V98.6zm0-6.62v.729h681v-.728zm0-6.618v.728h681v-.728zm0-6.619v.728h681v-.728Zm0-43.021v.727h681v-.727zm0-6.619v.728h681v-.728zm0-6.619v.728h681v-.728zm0-6.618v.727h681v-.727Zm0-6.619v.728h681v-.728Z"/>
</svg>
