<?xml version="1.0" encoding="utf-8"?>
<svg xmlns="http://www.w3.org/2000/svg" xmlns:svg="http://www.w3.org/2000/svg" version="1.1" viewBox="0 0 681 117">
	<title>A score 2 staves long in 9/4 time, in the key of C Major.</title>
	<path d="M108.744 26.157c0 .741.583 1.325 1.325 1.325s1.325-.584 1.325-1.325c0-.742-.583-1.325-1.325-1.325s-1.325.583-1.325 1.325m296.222 0c0 .741.583 1.325 1.325 1.325s1.324-.584 1.324-1.325c0-.742-.582-1.325-1.324-1.325s-1.325.583-1.325 1.325m100.547-6.62c0 .743.583 1.326 1.325 1.326s1.325-.583 1.325-1.325-.583-1.325-1.325-1.325-1.325.583-1.325 1.325m-296.223 0c0 .742.584 1.325 1.325 1.325.742 0 1.325-.583 1.325-1.325s-.583-1.325-1.325-1.325c-.741 0-1.325.583-1.325 1.325M33.67 32.793v1.96h-2.2c-.185 0-.37.16-.37.37v.504c0 .212.185.372.37.372H39.5c.212 0 .371-.16.371-.372v-.503c0-.212-.159-.37-.371-.37h-2.385v-1.961H39.5c.212 0 .371-.186.371-.398v-.504a.38.38 0 0 0-.371-.37h-2.385v-4.214c0-.16-.08-.291-.185-.344l-.318-.16c-.053-.026-.08-.026-.132-.026-.106 0-.213 0-.292.08l-2.411 2.2a.4.4 0 0 0-.107.29v2.174h-3.073s2.968-3.18 6.095-7.367a.58.58 0 0 0 .132-.37.44.44 0 0 0-.08-.266l-.582-.583c-.08-.053-.16-.106-.265-.106h-3.949c-.185 0-.317.159-.344.318 0 0-.133 1.961-.822 4.107-.688 2.147-1.483 3.472-2.173 4.452 0 0-.079.132-.079.292 0 .052 0 .105.027.158.079.186.265.477.265.477s.052.16.29.16zm.317-21.825c.875 0 1.59 1.219 1.59 2.703s-.715 2.676-1.59 2.676-1.616-1.193-1.616-2.676.741-2.703 1.616-2.703m-.98 6.65c1.616 0 2.199-.476 2.57-.874.08.557.132.98.132 1.405 0 1.51-.53 3.471-2.384 3.471-.662 0-1.06-.212-1.325-.503.556-.239 1.007-.954 1.007-1.564 0-.954-.742-1.696-1.696-1.696s-1.723.742-1.723 1.696v.08c0 .238.053.636.16.848.344.953 1.457 2.358 4.107 2.358 2.384 0 4.107-2.279 4.637-3.498a9.4 9.4 0 0 0 .662-3.418c0-1.616-.45-3.445-2.013-4.823-1.537-1.166-2.518-1.219-3.445-1.219-.928 0-4.399 1.087-4.399 4.16 0 2.597 2.04 3.578 3.71 3.578M16.093 104.42a7.7 7.7 0 0 1-1.537.16c-3.789 0-7.022-2.65-7.022-6.652 0-3.233 2.28-6.12 4.611-8.135.45-.398.875-.769 1.272-1.166.238 1.43.424 2.677.61 3.763-2.412.715-4.055 3.259-4.055 5.75 0 1.854 1.458 4.398 3.577 4.398.212 0 .451-.105.451-.344 0-.238-.265-.371-.583-.583-1.033-.636-1.616-1.324-1.616-2.623 0-1.616 1.192-2.915 2.755-3.286zm-2.332-27.24c.239-1.06 1.458-3.842 2.836-3.842.397 0 1.033 1.298 1.033 3.127 0 2.755-2.04 4.822-3.869 6.624-.159-1.06-.291-2.093-.291-3.206 0-.98.08-1.882.291-2.703m6.095 22.338c0 1.881-.768 3.815-2.65 4.584a882 882 0 0 1-1.457-8.559c2.385 0 4.107 1.617 4.107 3.975m-11.66 13.037c0 1.748 1.352 4.054 4.93 4.054 1.245 0 2.331-.318 3.285-.9 1.431-1.008 1.802-2.757 1.802-4.426 0-1.034-.159-2.226-.424-3.736-.08-.53-.238-1.325-.397-2.359 2.597-.847 4.53-3.55 4.53-6.28 0-4.001-2.834-6.704-6.703-6.704-.265-1.59-.53-3.153-.769-4.637 2.81-2.942 4.744-6.253 4.744-10.467 0-2.411-.742-4.372-1.166-5.326-.636-1.351-1.405-2.279-1.882-2.279-.185 0-1.007.319-1.881 1.351-1.696 2.015-2.173 5.406-2.173 7.632 0 1.431.133 2.73.583 5.698-.026.026-1.404 1.43-1.96 1.88-2.412 2.253-5.75 5.459-5.75 10.759 0 4.955 4.318 8.85 9.247 8.85.768 0 1.484-.079 2.093-.185.504 2.544.795 4.399.795 5.803 0 2.755-1.404 4.213-4.08 4.213-.636 0-1.193-.133-1.246-.133-.026-.026-.08-.053-.08-.08 0-.052.054-.078.133-.105 1.246-.185 2.49-1.245 2.49-2.941 0-1.431-1.085-2.941-3.073-2.941-1.855 0-3.047 1.51-3.047 3.259m7.896-77.632a7.7 7.7 0 0 1-1.537.16c-3.789 0-7.022-2.65-7.022-6.651 0-3.234 2.28-6.122 4.611-8.135.45-.398.875-.769 1.272-1.166.238 1.43.424 2.676.61 3.762-2.412.716-4.055 3.26-4.055 5.75 0 1.855 1.458 4.4 3.577 4.4.212 0 .451-.107.451-.345 0-.239-.265-.372-.583-.583-1.033-.636-1.616-1.325-1.616-2.623 0-1.617 1.192-2.915 2.755-3.287zm-2.332-27.24c.239-1.06 1.458-3.842 2.836-3.842.397 0 1.033 1.299 1.033 3.127 0 2.756-2.04 4.823-3.869 6.625-.159-1.06-.291-2.094-.291-3.207 0-.98.08-1.881.291-2.703m6.095 22.339c0 1.881-.768 3.815-2.65 4.584a882 882 0 0 1-1.457-8.559c2.385 0 4.107 1.616 4.107 3.975M8.196 43.06c0 1.748 1.352 4.054 4.93 4.054 1.245 0 2.331-.318 3.285-.901 1.431-1.007 1.802-2.756 1.802-4.425 0-1.034-.159-2.226-.424-3.737-.08-.53-.238-1.325-.397-2.358 2.597-.848 4.53-3.55 4.53-6.28 0-4.001-2.834-6.704-6.703-6.704-.265-1.59-.53-3.153-.769-4.637 2.81-2.942 4.744-6.254 4.744-10.467 0-2.411-.742-4.372-1.166-5.326C17.392.927 16.623 0 16.146 0c-.185 0-1.007.318-1.881 1.351-1.696 2.014-2.173 5.406-2.173 7.632 0 1.43.133 2.73.583 5.697-.026.026-1.404 1.43-1.96 1.881-2.412 2.253-5.75 5.459-5.75 10.758 0 4.956 4.318 8.851 9.247 8.851.768 0 1.484-.08 2.093-.186.504 2.545.795 4.4.795 5.804 0 2.755-1.404 4.213-4.08 4.213-.636 0-1.193-.133-1.246-.133-.026-.026-.08-.053-.08-.08 0-.052.054-.079.133-.105 1.246-.186 2.49-1.246 2.49-2.941 0-1.432-1.085-2.941-3.073-2.941-1.855 0-3.047 1.51-3.047 3.259M559.88 14.032c0 1.14.821 2.411 2.967 2.411 2.756 0 5.644-2.252 5.644-4.584 0-1.563-1.325-2.438-2.968-2.438-2.57 0-5.643 2.173-5.643 4.611m-396.77 6.619c0 1.14.822 2.411 2.968 2.411 2.756 0 5.644-2.252 5.644-4.584 0-1.563-1.325-2.438-2.967-2.438-2.571 0-5.644 2.173-5.644 4.61m34.265 0c0 1.14.821 2.412 2.967 2.412 2.757 0 5.645-2.252 5.645-4.584 0-1.563-1.325-2.438-2.968-2.438-2.57 0-5.644 2.173-5.644 4.61m-57.11 3.31c0 1.14.822 2.411 2.969 2.411 2.755 0 5.644-2.252 5.644-4.584 0-1.563-1.325-2.438-2.968-2.438-2.57 0-5.645 2.173-5.645 4.611m211.09 66.187c0 1.14.822 2.411 2.968 2.411 2.755 0 5.644-2.252 5.644-4.584 0-1.563-1.325-2.437-2.968-2.437-2.57 0-5.645 2.172-5.645 4.61m113.765 0c0 1.14.822 2.411 2.968 2.411 2.756 0 5.644-2.252 5.644-4.584 0-1.563-1.325-2.437-2.968-2.437-2.57 0-5.644 2.172-5.644 4.61m-155.484 3.31c0 1.139.821 2.41 2.968 2.41 2.756 0 5.644-2.251 5.644-4.583 0-1.564-1.325-2.438-2.968-2.438-2.57 0-5.644 2.173-5.644 4.61m227.4-76.115c0 1.14.821 2.412 2.968 2.412 2.755 0 5.643-2.253 5.643-4.584 0-1.564-1.324-2.438-2.967-2.438-2.57 0-5.645 2.173-5.645 4.61M267.916 96.766c0 1.14.821 2.411 2.968 2.411 2.756 0 5.644-2.253 5.644-4.584 0-1.563-1.325-2.438-2.968-2.438-2.57 0-5.644 2.173-5.644 4.61m-27.103-79.424c0 1.14.822 2.412 2.968 2.412 2.756 0 5.644-2.253 5.644-4.584 0-1.564-1.325-2.438-2.968-2.438-2.57 0-5.644 2.173-5.644 4.61m-14.617 82.734c0 1.14.822 2.412 2.968 2.412 2.756 0 5.644-2.253 5.644-4.584 0-1.564-1.325-2.439-2.968-2.439-2.57 0-5.644 2.174-5.644 4.611m37.461-79.424c0 1.14.821 2.411 2.968 2.411 2.756 0 5.644-2.252 5.644-4.584 0-1.563-1.325-2.438-2.968-2.438-2.57 0-5.644 2.173-5.644 4.61m-98.053 83.9a.99.99 0 0 1-1.06-.954c0-1.297 4.452-3.577 5.697-3.577.636 0 1.06.371 1.06.955 0 1.325-4.478 3.576-5.697 3.576m3.657-5.776c-2.571 0-5.644 2.146-5.644 4.61 0 1.14.821 2.412 2.967 2.412 2.756 0 5.644-2.253 5.644-4.585 0-1.562-1.325-2.437-2.967-2.437M299.91 21.817a.99.99 0 0 1-1.06-.954c0-1.299 4.452-3.578 5.697-3.578.636 0 1.06.371 1.06.954 0 1.325-4.478 3.578-5.697 3.578m3.657-5.777c-2.57 0-5.644 2.146-5.644 4.61 0 1.14.821 2.412 2.968 2.412 2.755 0 5.643-2.252 5.643-4.584 0-1.563-1.325-2.438-2.967-2.438m-181.67 87.345c0 1.139.821 2.411 2.968 2.411 2.755 0 5.643-2.253 5.643-4.585 0-1.562-1.324-2.437-2.967-2.437-2.57 0-5.644 2.172-5.644 4.61M349.32 30.58c0 1.14.822 2.411 2.968 2.411 2.755 0 5.644-2.252 5.644-4.584 0-1.563-1.325-2.438-2.968-2.438-2.57 0-5.644 2.173-5.644 4.611M80.176 103.385c0 1.139.822 2.411 2.969 2.411 2.755 0 5.644-2.253 5.644-4.585 0-1.562-1.325-2.437-2.968-2.437-2.57 0-5.645 2.172-5.645 4.61M393.051 27.27c0 1.139.821 2.41 2.968 2.41 2.756 0 5.644-2.252 5.644-4.583 0-1.564-1.324-2.438-2.967-2.438-2.57 0-5.645 2.173-5.645 4.61M38.457 96.767c0 1.14.821 2.411 2.967 2.411 2.757 0 5.645-2.253 5.645-4.584 0-1.563-1.325-2.438-2.968-2.438-2.57 0-5.644 2.173-5.644 4.61m470.37-2.143a.99.99 0 0 1-1.06-.953c0-1.299 4.452-3.578 5.698-3.578.635 0 1.06.371 1.06.954 0 1.325-4.479 3.577-5.698 3.577m3.657-5.776c-2.57 0-5.644 2.146-5.644 4.61 0 1.14.821 2.412 2.968 2.412 2.756 0 5.644-2.252 5.644-4.584 0-1.564-1.325-2.438-2.968-2.438m56.936 7.92c0 1.14.821 2.411 2.967 2.411 2.757 0 5.645-2.253 5.645-4.584 0-1.563-1.325-2.438-2.968-2.438-2.57 0-5.644 2.173-5.644 4.61M96.83 27.27c0 1.139.82 2.41 2.967 2.41 2.755 0 5.644-2.252 5.644-4.583 0-1.564-1.325-2.438-2.968-2.438-2.57 0-5.644 2.173-5.644 4.61m396.77-6.618c0 1.14.82 2.411 2.967 2.411 2.755 0 5.644-2.252 5.644-4.584 0-1.563-1.325-2.438-2.968-2.438-2.57 0-5.644 2.173-5.644 4.61m119.53 80.591a.99.99 0 0 1-1.06-.953c0-1.299 4.451-3.578 5.696-3.578.636 0 1.06.37 1.06.954 0 1.325-4.478 3.577-5.697 3.577m3.657-5.777c-2.57 0-5.645 2.147-5.645 4.611 0 1.14.822 2.412 2.969 2.412 2.755 0 5.644-2.253 5.644-4.584 0-1.564-1.325-2.439-2.968-2.439m28.759-84.741c0 1.14.821 2.411 2.968 2.411 2.756 0 5.644-2.252 5.644-4.584 0-1.563-1.325-2.438-2.967-2.438-2.57 0-5.645 2.173-5.645 4.61M436.489 23.96c0 1.14.821 2.411 2.967 2.411 2.757 0 5.644-2.252 5.644-4.584 0-1.563-1.325-2.438-2.967-2.438-2.57 0-5.644 2.173-5.644 4.611M596.132 11.89a.99.99 0 0 1-1.06-.954c0-1.299 4.452-3.577 5.697-3.577.637 0 1.06.37 1.06.953 0 1.325-4.478 3.578-5.697 3.578m3.657-5.777c-2.57 0-5.644 2.146-5.644 4.61 0 1.14.821 2.412 2.967 2.412 2.757 0 5.645-2.252 5.645-4.584 0-1.563-1.325-2.438-2.968-2.438M459.332 20.651c0 1.14.822 2.411 2.968 2.411 2.756 0 5.645-2.252 5.645-4.584 0-1.563-1.325-2.438-2.969-2.438-2.57 0-5.644 2.173-5.644 4.61m-54.804 67.354a.99.99 0 0 1-1.06-.954c0-1.299 4.452-3.577 5.697-3.577.636 0 1.06.37 1.06.953 0 1.325-4.478 3.578-5.697 3.578m3.657-5.777c-2.57 0-5.644 2.146-5.644 4.61 0 1.14.821 2.412 2.967 2.412 2.756 0 5.644-2.252 5.644-4.584 0-1.564-1.325-2.438-2.967-2.438M53.099 30.58c0 1.14.821 2.411 2.967 2.411 2.757 0 5.645-2.252 5.645-4.584 0-1.563-1.325-2.438-2.968-2.438-2.57 0-5.644 2.173-5.644 4.611m187.714 8.788c0 .186.16.345.345.345.133 0 .291-.106.317-.212 0-.027.24-.954.265-1.033.028-.107.265-1.114 1.22-2.677 1.033-1.722 2.623-2.968 3.948-4.823 1.298-1.855 2.093-3.603 2.093-5.935 0-2.411-.556-4.425-1.96-6.996-.08-.185-.239-.291-.398-.291-.053 0-.106 0-.133.027-.132.053-.185.159-.185.317a.8.8 0 0 0 .08.318c1.06 2.465 1.484 3.87 1.484 5.777 0 2.2-.769 3.339-1.246 4.16-1.723 2.941-4.505 4.373-5.617 4.743-.186.08-.213.212-.213.292zm-100.547 4.965c0 .185.16.344.345.344.132 0 .292-.106.318-.212 0-.027.239-.954.265-1.034.027-.105.265-1.113 1.219-2.676 1.033-1.722 2.623-2.968 3.948-4.822 1.298-1.855 2.093-3.605 2.093-5.936 0-2.411-.556-4.425-1.96-6.995-.08-.186-.239-.292-.398-.292-.053 0-.106 0-.132.027-.133.053-.186.159-.186.318 0 .079.027.212.08.318 1.06 2.464 1.484 3.868 1.484 5.776 0 2.2-.769 3.339-1.246 4.16-1.722 2.941-4.505 4.373-5.617 4.743-.186.08-.213.213-.213.292zm296.223 0c0 .185.16.344.344.344.133 0 .292-.106.318-.212 0-.027.239-.954.265-1.034.027-.105.265-1.113 1.22-2.676 1.033-1.722 2.623-2.968 3.947-4.822 1.299-1.855 2.094-3.605 2.094-5.936 0-2.411-.556-4.425-1.961-6.995-.08-.186-.238-.292-.397-.292-.053 0-.106 0-.133.027-.132.053-.185.159-.185.318 0 .079.026.212.079.318 1.06 2.464 1.484 3.868 1.484 5.776 0 2.2-.768 3.339-1.245 4.16-1.723 2.941-4.505 4.373-5.618 4.743-.186.08-.212.213-.212.292zm100.546-4.965c0 .186.16.345.345.345.132 0 .292-.106.318-.212 0-.027.239-.954.265-1.033.027-.107.265-1.114 1.22-2.677 1.032-1.722 2.622-2.968 3.947-4.823 1.298-1.855 2.093-3.603 2.093-5.935 0-2.411-.556-4.425-1.96-6.996-.08-.185-.239-.291-.398-.291-.053 0-.106 0-.132.027-.133.053-.186.159-.186.317 0 .08.026.212.08.318 1.06 2.465 1.484 3.87 1.484 5.777 0 2.2-.769 3.339-1.246 4.16-1.722 2.941-4.505 4.373-5.618 4.743-.184.08-.212.212-.212.292zM506.84 93.456V112.2h.662V93.456ZM493.598 20.65v20.399h.662v-20.4Zm100.547-9.928v22.053h.662V10.722ZM459.332 20.65v20.399h.662v-20.4Zm186.211-9.928v22.053h.662V10.722ZM436.488 23.959v20.373h.662V23.959ZM104.771 4.646v20.452h.662V4.646ZM46.4 74.142v20.452h.662V74.142Zm41.72 4.964v22.107h.662V79.106Zm312.875-74.46v20.452h.662V4.646Zm218.088 71.151v22.106h.662V75.797ZM61.042 6.301v22.106h.661V6.301Zm68.797 72.805v22.107h.662V79.106ZM357.263 6.3v22.106h.662V6.301ZM171.559 79.106v22.107h.662V79.106ZM297.922 20.65v20.399h.662v-20.4ZM234.14 75.797v22.106h.662V75.797Zm29.518-55.147v20.399h.662v-20.4Zm12.202 53.492v20.452h.662V74.142ZM240.813 17.34v22.028h.662V17.34zm68.823 76.116V112.2h.662V93.456Zm41.72-3.31v20.399h.662V90.146Zm226.006-16.004v20.452h.662V74.142ZM197.376 20.65v20.399h.662v-20.4ZM402.54 86.837v22.053h.662V86.837ZM163.11 20.65v20.399h.662v-20.4Zm302.01 69.496v20.399h.662V90.146ZM140.267 23.96v20.373h.662V23.959zm419.612-9.928v22.054h.662V14.03Zm-22.843 3.31v22.027h.662V17.34Zm-153.45-8.095v27.203h1.191V9.246ZM677.36 78.742v27.203H681V78.742Zm-3.64 0v27.203h1.191V78.742Zm6.089-69.496v27.203H681V9.246ZM393.076 78.742v27.203h1.191V78.742ZM87.365 9.246v27.203h1.19V9.246ZM0 105.216v.729h681v-.728zM0 98.6v.727h681V98.6zm0-6.62v.729h681v-.728zm0-6.618v.728h681v-.728zm0-6.619v.728h681v-.728Zm0-43.021v.727h681v-.727zm0-6.619v.728h681v-.728zm0-6.619v.728h681v-.728zm0-6.618v.727h681v-.727Zm0-6.619v.728h681v-.728Z"/>
</svg>
