<?xml version="1.0" encoding="UTF-8" standalone="no"?>
<svg
   width="681"
   height="186.10622"
   version="1.2"
   id="svg245"
   xmlns="http://www.w3.org/2000/svg"
   xmlns:svg="http://www.w3.org/2000/svg"
   xmlns:rdf="http://www.w3.org/1999/02/22-rdf-syntax-ns#"
   xmlns:cc="http://creativecommons.org/ns#"
   xmlns:dc="http://purl.org/dc/elements/1.1/">
  <defs
     id="defs245" />
  <title
     id="title1">air_VI</title>
  <desc
     id="desc1">Generated by MuseScore Studio 4.7.3</desc>
  <path
     id="path245"
     class="NoteDot"
     d="m 643.92347,165.14948 c 0,0.74211 0.58279,1.32491 1.3249,1.32491 0.74211,0 1.32491,-0.5828 1.32491,-1.32491 0,-0.74211 -0.5828,-1.32491 -1.32491,-1.32491 -0.74211,0 -1.3249,0.5828 -1.3249,1.32491 m -55.77814,-62.87819 c 0,0.74211 0.5836,1.3249 1.3249,1.3249 0.74211,0 1.32491,-0.58279 1.32491,-1.3249 0,-0.74131 -0.5828,-1.32491 -1.32491,-1.32491 -0.7413,0 -1.3249,0.5836 -1.3249,1.32491 m 60.09309,0 c 0,0.74211 0.58279,1.3249 1.3249,1.3249 0.74211,0 1.32491,-0.58279 1.32491,-1.3249 0,-0.74131 -0.5828,-1.32491 -1.32491,-1.32491 -0.74211,0 -1.3249,0.5836 -1.3249,1.32491 m -63.80043,56.25926 c 0,0.74211 0.5836,1.32491 1.32491,1.32491 0.74211,0 1.3249,-0.5828 1.3249,-1.32491 0,-0.7421 -0.58279,-1.3249 -1.3249,-1.3249 -0.74131,0 -1.32491,0.5828 -1.32491,1.3249 M 145.61555,26.156845 c 0,0.741307 0.5828,1.324906 1.3249,1.324906 0.74211,0 1.32491,-0.583599 1.32491,-1.324906 0,-0.742108 -0.5828,-1.324906 -1.32491,-1.324906 -0.7421,0 -1.3249,0.582798 -1.3249,1.324906 m 492.35344,0 c 0,0.741307 0.5828,1.324906 1.32491,1.324906 0.74211,0 1.32491,-0.583599 1.32491,-1.324906 0,-0.742108 -0.5828,-1.324906 -1.32491,-1.324906 -0.74211,0 -1.32491,0.582798 -1.32491,1.324906 m -59.98661,-6.619006 c 0,0.741947 0.5828,1.324906 1.3249,1.324906 0.74211,0 1.32491,-0.582959 1.32491,-1.324906 0,-0.741947 -0.5828,-1.324906 -1.32491,-1.324906 -0.7421,0 -1.3249,0.582959 -1.3249,1.324906 m -73.73922,64.532204 h 18.61353 v 3.309463 H 504.24316 V 84.070043 M 275.19855,41.03902 l 15.54983,1.654732 v 3.327875 L 275.19855,44.367696 V 41.03902 m 127.2374,135.68317 15.28565,1.65473 v 3.32868 l -15.28565,-1.65473 v -3.32868 m 147.75703,-92.657751 19.69907,-1.654732 v 3.320671 l -19.69907,1.654731 v -3.32067 M 451.941,77.442311 467.54687,75.78758 v 3.327875 L 451.941,80.770186 v -3.327875 m -206.51721,-39.712754 15.54903,1.654732 v 3.328676 l -15.54903,-1.654732 v -3.328676 m 21.36421,44.676948 15.60507,1.654732 v 3.327875 L 266.788,85.734381 v -3.327876 m 84.46495,95.970415 15.28565,-1.65473 v 3.32868 l -15.28565,1.65473 v -3.32868 M 544.2353,4.6364502 559.78434,2.9817988 V 6.3098343 L 544.2353,7.9644857 V 4.6364502 m 6.98318,138.9927198 15.28565,-1.65474 v 3.32868 l -15.28565,1.65473 v -3.32867 M 214.48584,84.061237 230.09171,82.406505 v 3.327876 l -15.60587,1.654731 v -3.327875 m 29.8412,95.970423 15.28565,1.65473 v 3.32867 l -15.28565,-1.65473 v -3.32867 m 259.85608,-34.74456 19.69907,1.65473 v 3.32147 l -19.69907,-1.65473 V 145.2871 M 208.69308,36.066821 220.2762,34.363256 v 3.345487 l -11.58312,1.702765 v -3.344687 m 0,4.964194 22.50499,-3.309463 v 3.344687 l -22.50499,3.309463 v -3.344687 m 6.38676,135.691175 15.28566,1.65473 v 3.32868 l -15.28566,-1.65473 v -3.32868 m 229.97805,-1.65473 15.28565,-1.65473 v 3.32868 l -15.28565,1.65473 v -3.32868 M 33.669409,32.792582 v 1.96054 h -2.199104 c -0.185727,0 -0.370653,0.159309 -0.370653,0.370654 v 0.503544 c 0,0.212145 0.184926,0.371454 0.370653,0.371454 h 8.02869 c 0.212145,0 0.371454,-0.159309 0.371454,-0.371454 v -0.503544 c 0,-0.211345 -0.159309,-0.370654 -0.371454,-0.370654 h -2.384831 v -1.96054 h 2.384831 c 0.212145,0 0.371454,-0.185727 0.371454,-0.397872 v -0.503544 c 0,-0.184927 -0.159309,-0.370654 -0.371454,-0.370654 h -2.384831 v -4.213281 c 0,-0.159309 -0.07925,-0.291399 -0.184927,-0.344235 L 36.61062,26.803687 c -0.05284,-0.02642 -0.07925,-0.02642 -0.132091,-0.02642 -0.105672,0 -0.212145,0 -0.291399,0.07925 l -2.411249,2.199904 c -0.08005,0.07925 -0.106472,0.184927 -0.106472,0.2914 v 2.172685 h -3.073302 c 0,0 2.967629,-3.179774 6.094567,-7.366637 0.105673,-0.13209 0.132091,-0.264981 0.132091,-0.370653 0,-0.132891 -0.05284,-0.238563 -0.07925,-0.264981 l -0.582798,-0.583279 c -0.08005,-0.053 -0.159309,-0.105993 -0.264981,-0.105993 -0.159309,0 -3.736155,0 -3.9483,0 -0.185727,0 -0.317817,0.158989 -0.344235,0.317978 0,0 -0.132891,1.961181 -0.822162,4.107448 -0.688471,2.146268 -1.483415,3.471174 -2.172686,4.451844 0,0 -0.07925,0.13209 -0.07925,0.291399 0,0.05284 0,0.105673 0.02642,0.158509 0.07925,0.185727 0.264981,0.477126 0.264981,0.477126 0,0 0.05284,0.159309 0.291399,0.159309 h 4.557517 m 2.740273,-16.829988 c 2.11985,-0.821441 2.252741,-2.199343 2.252741,-2.67631 v -0.13249 c 0,-0.238483 -0.07925,-3.2327705 -4.637571,-3.2327705 -4.557517,0 -4.424626,3.2327705 -4.424626,3.2327705 h 0.02642 l -0.02642,0.053 c 0,0.953932 0.768526,1.69588 1.721978,1.69588 0.954252,0 1.69636,-0.741948 1.69636,-1.69588 0,-0.768445 -0.583599,-1.510393 -1.324906,-1.669381 l 0.07925,-0.07949 c 0.370653,-0.264981 0.874198,-0.397471 1.377742,-0.397471 1.112761,0 2.305576,0.662452 2.305576,2.093351 0,1.669381 -1.245651,1.907864 -1.563469,1.960861 -0.317817,0.053 -1.802032,0.158988 -2.119849,0.158988 -0.317817,0 -0.344236,0.370974 -0.344236,0.370974 v 0.529962 c 0,0 0.05284,0.29148 0.344236,0.317978 0.450708,0.0265 1.059925,0.0265 1.907704,0.158988 1.166398,0.158989 1.775614,0.953933 1.775614,2.808801 0,1.775374 -1.192815,2.25234 -2.305576,2.25234 -0.742108,0 -1.430578,-0.211985 -1.721978,-0.42397 0.874198,-0.053 1.589888,-0.821442 1.589888,-1.695879 0,-0.953933 -0.742108,-1.722378 -1.69636,-1.722378 -0.953452,0 -1.721978,0.768445 -1.721978,1.722378 0,2.172845 1.986959,3.259268 3.9483,3.259268 2.543339,0 5.299624,-0.874438 5.299624,-3.762733 0,-1.934362 -1.324906,-2.755804 -2.491304,-3.126778 h 0.05284 M 16.093311,173.91708 c -0.529962,0.10647 -1.033427,0.1593 -1.536891,0.1593 -3.789231,0 -7.0220012,-2.64981 -7.0220012,-6.65094 0,-3.23341 2.2788382,-6.12099 4.6106722,-8.13517 0.450468,-0.39787 0.874438,-0.76852 1.27191,-1.16559 0.238483,1.43058 0.42397,2.67623 0.609457,3.76257 -2.411329,0.71489 -4.0542123,3.25903 -4.0542123,5.74953 0,1.85487 1.4573963,4.39901 3.5772463,4.39901 0.211985,0 0.450468,-0.10567 0.450468,-0.34424 0,-0.23856 -0.264982,-0.37145 -0.582959,-0.58279 -1.033427,-0.63644 -1.616385,-1.32491 -1.616385,-2.6234 0,-1.6163 1.192415,-2.91479 2.755804,-3.28625 l 1.536891,8.71797 m -2.331834,-27.24023 c 0.238483,-1.05992 1.457396,-3.84183 2.835298,-3.84183 0.397472,0 1.033427,1.29849 1.033427,3.12694 0,2.75549 -2.040355,4.8225 -3.868725,6.62453 -0.158989,-1.05992 -0.29148,-2.09343 -0.29148,-3.20619 0,-0.98067 0.0795,-1.88209 0.29148,-2.70345 m 6.094567,22.33847 c 0,1.88129 -0.768446,3.81541 -2.649812,4.58394 -0.556461,-3.17978 -1.27191,-7.39306 -1.457397,-8.55865 2.384831,0 4.107209,1.6163 4.107209,3.97471 M 8.1968718,182.05224 c 0,1.74839 1.351404,4.05397 4.9286502,4.05397 1.245411,0 2.331834,-0.31782 3.285766,-0.90062 1.430899,-1.00708 1.801872,-2.75628 1.801872,-4.42542 0,-1.03351 -0.158988,-2.22552 -0.423969,-3.73616 -0.07949,-0.52996 -0.238484,-1.3249 -0.397472,-2.35841 2.596815,-0.84778 4.531178,-3.55043 4.531178,-6.28029 0,-4.00114 -2.835299,-6.70379 -6.704024,-6.70379 -0.264981,-1.58988 -0.529962,-3.15335 -0.768445,-4.63677 2.8088,-2.94201 4.743163,-6.25387 4.743163,-10.46715 0,-2.41125 -0.741948,-4.37179 -1.165917,-5.32605 -0.635955,-1.35132 -1.404401,-2.27915 -1.881367,-2.27915 -0.185487,0 -1.006928,0.31861 -1.881366,1.35132 -1.69588,2.01418 -2.172846,5.4061 -2.172846,7.63162 0,1.43138 0.132491,2.72986 0.582959,5.69749 -0.0265,0.0264 -1.404401,1.43058 -1.960861,1.88129 -2.4113287,2.25194 -5.7500916,5.45813 -5.7500916,10.75776 0,4.95538 4.3191932,8.85085 9.2478436,8.85085 0.768445,0 1.483894,-0.0793 2.093351,-0.18573 0.503464,2.54414 0.794943,4.39901 0.794943,5.80317 0,2.75548 -1.4044,4.21328 -4.08071,4.21328 -0.635955,0 -1.192415,-0.13289 -1.245411,-0.13289 -0.0265,-0.0264 -0.07949,-0.0528 -0.07949,-0.0793 0,-0.0528 0.053,-0.0792 0.132491,-0.10567 1.245412,-0.18573 2.490823,-1.24565 2.490823,-2.94121 0,-1.43138 -1.086423,-2.94121 -3.073782,-2.94121 -1.8548679,0 -3.0472832,1.50983 -3.0472832,3.25903 M 16.093311,34.924439 c -0.529962,0.106473 -1.033427,0.159309 -1.536891,0.159309 -3.789231,0 -7.0220012,-2.649811 -7.0220012,-6.650947 0,-3.233411 2.2788382,-6.121386 4.6106722,-8.135243 0.450468,-0.397471 0.874438,-0.768445 1.27191,-1.165917 0.238483,1.430899 0.42397,2.67631 0.609457,3.762733 -2.411329,0.715129 -4.0542123,3.259268 -4.0542123,5.749771 0,1.854869 1.4573963,4.399008 3.5772463,4.399008 0.211985,0 0.450468,-0.105672 0.450468,-0.344235 0,-0.238563 -0.264982,-0.371454 -0.582959,-0.582799 -1.033427,-0.636435 -1.616385,-1.324906 -1.616385,-2.623393 0,-1.616306 1.192415,-2.914793 2.755804,-3.286247 l 1.536891,8.71796 M 13.761477,7.6844542 c 0.238483,-1.0599247 1.457396,-3.8422271 2.835298,-3.8422271 0.397472,0 1.033427,1.2984078 1.033427,3.1267779 0,2.7558043 -2.040355,4.822658 -3.868725,6.62453 -0.158989,-1.059925 -0.29148,-2.093352 -0.29148,-3.206273 0,-0.9804301 0.0795,-1.8813661 0.29148,-2.7028078 m 6.094567,22.3382338 c 0,1.881286 -0.768446,3.815409 -2.649812,4.583934 -0.556461,-3.179774 -1.27191,-7.393055 -1.457397,-8.558652 2.384831,0 4.107209,1.616305 4.107209,3.974718 M 8.1968718,43.059602 c 0,1.748395 1.351404,4.053972 4.9286502,4.053972 1.245411,0 2.331834,-0.317818 3.285766,-0.900616 1.430899,-1.007089 1.801872,-2.756285 1.801872,-4.425426 0,-1.033507 -0.158988,-2.225522 -0.423969,-3.736154 -0.07949,-0.529963 -0.238484,-1.324906 -0.397472,-2.358413 2.596815,-0.84778 4.531178,-3.550428 4.531178,-6.280294 0,-4.001136 -2.835299,-6.703784 -6.704024,-6.703784 -0.264981,-1.589887 -0.529962,-3.153276 -0.768445,-4.637171 2.8088,-2.941291 4.743163,-6.253555 4.743163,-10.4667561 0,-2.4113288 -0.741948,-4.3721895 -1.165917,-5.3261218 C 17.391719,0.92743413 16.623273,0 16.146307,0 15.96082,0 15.139379,0.31797742 14.264941,1.351404 c -1.69588,2.013857 -2.172846,5.4056161 -2.172846,7.631458 0,1.430898 0.132491,2.729306 0.582959,5.697095 -0.0265,0.0265 -1.404401,1.430899 -1.960861,1.881367 -2.4113287,2.25234 -5.7500916,5.458612 -5.7500916,10.757915 0,4.955389 4.3191932,8.850852 9.2478436,8.850852 0.768445,0 1.483894,-0.07925 2.093351,-0.185727 0.503464,2.54414 0.794943,4.399008 0.794943,5.803168 0,2.755484 -1.4044,4.213281 -4.08071,4.213281 -0.635955,0 -1.192415,-0.132891 -1.245411,-0.132891 -0.0265,-0.02642 -0.07949,-0.05284 -0.07949,-0.07925 0,-0.05284 0.053,-0.07925 0.132491,-0.105672 1.245412,-0.185727 2.490823,-1.245652 2.490823,-2.941211 0,-1.431379 -1.086423,-2.941211 -3.073782,-2.941211 -1.8548679,0 -3.0472832,1.509832 -3.0472832,3.259028 m 7.8964392,61.361154 c -0.529962,0.10647 -1.033427,0.15931 -1.536891,0.15931 -3.789231,0 -7.0220012,-2.64982 -7.0220012,-6.650947 0,-3.233411 2.2788382,-6.120985 4.6106722,-8.135163 0.450468,-0.397872 0.874438,-0.768525 1.27191,-1.165597 0.238483,1.430579 0.42397,2.67623 0.609457,3.762573 -2.411329,0.714889 -4.0542123,3.259028 -4.0542123,5.749531 0,1.854869 1.4573963,4.399003 3.5772463,4.399003 0.211985,0 0.450468,-0.10567 0.450468,-0.34423 0,-0.23857 -0.264982,-0.37146 -0.582959,-0.5828 -1.033427,-0.63644 -1.616385,-1.32491 -1.616385,-2.623392 0,-1.616306 1.192415,-2.914793 2.755804,-3.286247 l 1.536891,8.717959 M 13.761477,77.180532 c 0.238483,-1.059925 1.457396,-3.841827 2.835298,-3.841827 0.397472,0 1.033427,1.298488 1.033427,3.126938 0,2.755484 -2.040355,4.822498 -3.868725,6.62453 -0.158989,-1.059925 -0.29148,-2.093432 -0.29148,-3.206193 0,-0.98067 0.0795,-1.882086 0.29148,-2.703448 m 6.094567,22.338474 c 0,1.881284 -0.768446,3.815404 -2.649812,4.583934 -0.556461,-3.17977 -1.27191,-7.393055 -1.457397,-8.558652 2.384831,0 4.107209,1.616305 4.107209,3.974718 M 8.1968718,112.55592 c 0,1.7484 1.351404,4.05397 4.9286502,4.05397 1.245411,0 2.331834,-0.31782 3.285766,-0.90061 1.430899,-1.00709 1.801872,-2.75629 1.801872,-4.42543 0,-1.03351 -0.158988,-2.22552 -0.423969,-3.73615 -0.07949,-0.52997 -0.238484,-1.32491 -0.397472,-2.35842 2.596815,-0.84778 4.531178,-3.55042 4.531178,-6.280291 0,-4.001136 -2.835299,-6.703784 -6.704024,-6.703784 -0.264981,-1.589887 -0.529962,-3.153356 -0.768445,-4.63677 2.8088,-2.942012 4.743163,-6.253876 4.743163,-10.467157 0,-2.411249 -0.741948,-4.371789 -1.165917,-5.326042 -0.635955,-1.351324 -1.404401,-2.279158 -1.881367,-2.279158 -0.185487,0 -1.006928,0.318618 -1.881366,1.351324 -1.69588,2.014177 -2.172846,5.406096 -2.172846,7.631618 0,1.431379 0.132491,2.729866 0.582959,5.697495 -0.0265,0.02642 -1.404401,1.430579 -1.960861,1.881287 -2.4113287,2.25194 -5.7500916,5.458132 -5.7500916,10.757755 0,4.955393 4.3191932,8.850853 9.2478436,8.850853 0.768445,0 1.483894,-0.0793 2.093351,-0.18573 0.503464,2.54414 0.794943,4.39901 0.794943,5.80317 0,2.75548 -1.4044,4.21328 -4.08071,4.21328 -0.635955,0 -1.192415,-0.13289 -1.245411,-0.13289 -0.0265,-0.0264 -0.07949,-0.0528 -0.07949,-0.0793 0,-0.0528 0.053,-0.0793 0.132491,-0.10568 1.245412,-0.18572 2.490823,-1.24565 2.490823,-2.94121 0,-1.43138 -1.086423,-2.94121 -3.073782,-2.94121 -1.8548679,0 -3.0472832,1.50983 -3.0472832,3.25903 M 514.2524,106.69351 c 0,1.13998 0.82136,2.41205 2.96763,2.41205 2.75549,0 5.64386,-2.25274 5.64386,-4.58473 0,-1.56347 -1.32491,-2.43767 -2.96763,-2.43767 -2.57056,0 -5.64386,2.17268 -5.64386,4.61035 M 275.19855,20.65076 c 0,1.139419 0.82136,2.411329 2.96763,2.411329 2.75628,0 5.64466,-2.25234 5.64466,-4.584175 0,-1.563389 -1.32491,-2.437827 -2.96763,-2.437827 -2.57056,0 -5.64466,2.172846 -5.64466,4.610673 m -14.88698,3.309383 c 0,1.139179 0.82136,2.411248 2.96763,2.411248 2.75548,0 5.64386,-2.251939 5.64386,-4.584094 0,-1.563389 -1.32491,-2.437827 -2.96763,-2.437827 -2.57056,0 -5.64386,2.172846 -5.64386,4.610673 m 29.77476,3.309463 c 0,1.139178 0.82136,2.411248 2.96763,2.411248 2.75548,0 5.64386,-2.25274 5.64386,-4.583934 0,-1.563469 -1.32491,-2.438067 -2.96763,-2.438067 -2.57056,0 -5.64386,2.173086 -5.64386,4.610753 M 417.05955,162.95278 c 0,1.13918 0.82136,2.41125 2.96763,2.41125 2.75628,0 5.64386,-2.25194 5.64386,-4.58394 0,-1.56347 -1.32491,-2.43766 -2.96763,-2.43766 -2.56976,0 -5.64386,2.17268 -5.64386,4.61035 M 320.07163,25.12574 c -0.8742,0 -1.05992,-0.714889 -1.05992,-0.953452 0,-1.298568 4.45184,-3.577406 5.69749,-3.577406 0.63564,0 1.05993,0.370973 1.05993,0.953932 0,1.324906 -4.47826,3.576926 -5.6975,3.576926 m 3.6569,-5.77627 c -2.57056,0 -5.64386,2.146348 -5.64386,4.610673 0,1.139179 0.82137,2.411248 2.96763,2.411248 2.75549,0 5.64386,-2.251939 5.64386,-4.584094 0,-1.563389 -1.3249,-2.437827 -2.96763,-2.437827 m 135.95296,136.98438 c 0,1.13998 0.82136,2.41125 2.96763,2.41125 2.75628,0 5.64386,-2.25194 5.64386,-4.58393 0,-1.56347 -1.32491,-2.43767 -2.96763,-2.43767 -2.56976,0 -5.64386,2.17269 -5.64386,4.61035 m -57.24554,3.30947 c 0,1.13917 0.82136,2.41124 2.96763,2.41124 2.75548,0 5.64386,-2.25194 5.64386,-4.58393 0,-1.56347 -1.32491,-2.43767 -2.96763,-2.43767 -2.57056,0 -5.64386,2.17269 -5.64386,4.61036 M 351.58118,37.197193 c 0,1.13998 0.82136,2.41205 2.96763,2.41205 2.75548,0 5.64385,-2.252741 5.64385,-4.584735 0,-1.563469 -1.3249,-2.437667 -2.96762,-2.437667 -2.57056,0 -5.64386,2.172686 -5.64386,4.610352 m 28.91897,119.136657 c 0,1.13998 0.82136,2.41125 2.96763,2.41125 2.75628,0 5.64466,-2.25194 5.64466,-4.58393 0,-1.56347 -1.32491,-2.43767 -2.96843,-2.43767 -2.56976,0 -5.64386,2.17269 -5.64386,4.61035 m 2.87637,-142.301776 c 0,1.139419 0.82136,2.411329 2.96843,2.411329 2.75548,0 5.64386,-2.25234 5.64386,-4.584174 0,-1.563389 -1.32491,-2.4378271 -2.96763,-2.4378271 -2.57056,0 -5.64466,2.1728461 -5.64466,4.6106721 M 365.87655,159.64332 c 0,1.13917 0.82136,2.41124 2.96763,2.41124 2.75548,0 5.64386,-2.25194 5.64386,-4.58393 0,-1.56347 -1.32491,-2.43767 -2.96763,-2.43767 -2.57056,0 -5.64386,2.17269 -5.64386,4.61036 M 405.70779,27.269606 c 0,1.139178 0.82136,2.411248 2.96762,2.411248 2.75629,0 5.64466,-2.25274 5.64466,-4.583934 0,-1.563469 -1.3249,-2.438067 -2.96843,-2.438067 -2.56975,0 -5.64385,2.173086 -5.64385,4.610753 m 68.5973,125.754784 c 0,1.13998 0.82136,2.41205 2.96763,2.41205 2.75628,0 5.64466,-2.25274 5.64466,-4.58474 0,-1.56346 -1.32491,-2.43766 -2.96843,-2.43766 -2.56976,0 -5.64386,2.17268 -5.64386,4.61035 m -123.05214,9.92839 c 0,1.13918 0.82136,2.41125 2.96763,2.41125 2.75549,0 5.64386,-2.25194 5.64386,-4.58394 0,-1.56347 -1.32491,-2.43766 -2.96763,-2.43766 -2.57056,0 -5.64386,2.17268 -5.64386,4.61035 m 76.7861,-138.992637 c 0,1.139179 0.82137,2.411248 2.96763,2.411248 2.75549,0 5.64386,-2.251939 5.64386,-4.584094 0,-1.563389 -1.3249,-2.437827 -2.96763,-2.437827 -2.57055,0 -5.64386,2.172846 -5.64386,4.610673 M 459.8352,20.65076 c 0,1.139419 0.82136,2.411329 2.96762,2.411329 2.75549,0 5.64386,-2.25234 5.64386,-4.584175 0,-1.563389 -1.3249,-2.437827 -2.96763,-2.437827 -2.57055,0 -5.64385,2.172846 -5.64385,4.610673 m 22.33046,16.546433 c 0,1.13998 0.82137,2.41205 2.96763,2.41205 2.75629,0 5.64466,-2.252741 5.64466,-4.584735 0,-1.563469 -1.3249,-2.437667 -2.96763,-2.437667 -2.57055,0 -5.64466,2.172686 -5.64466,4.610352 M 319.85228,176.18983 c 0,1.13998 0.82136,2.41205 2.96763,2.41205 2.75629,0 5.64466,-2.25274 5.64466,-4.58474 0,-1.56347 -1.32491,-2.43766 -2.96843,-2.43766 -2.56976,0 -5.64386,2.17268 -5.64386,4.61035 M 504.49693,30.579068 c 0,1.139179 0.82136,2.411249 2.96763,2.411249 2.75629,0 5.64466,-2.25274 5.64466,-4.583934 0,-1.563469 -1.3249,-2.438468 -2.96843,-2.438468 -2.56976,0 -5.64386,2.173487 -5.64386,4.611153 M 288.93674,164.11838 c -0.87499,0 -1.05992,-0.71489 -1.05992,-0.95346 0,-1.29848 4.45104,-3.57764 5.69669,-3.57764 0.63564,0 1.05993,0.37145 1.05993,0.95425 0,1.32491 -4.47826,3.57685 -5.6967,3.57685 m 3.6561,-5.77595 c -2.56975,0 -5.64386,2.14626 -5.64386,4.61035 0,1.13918 0.82137,2.41125 2.96763,2.41125 2.75629,0 5.64466,-2.25194 5.64466,-4.58394 0,-1.56347 -1.3249,-2.43766 -2.96843,-2.43766 M 536.29307,27.269606 c 0,1.139178 0.82136,2.411248 2.96763,2.411248 2.75549,0 5.64386,-2.25274 5.64386,-4.583934 0,-1.563469 -1.3249,-2.438067 -2.96763,-2.438067 -2.57056,0 -5.64386,2.173086 -5.64386,4.610753 M 245.42379,20.65076 c 0,1.139419 0.82136,2.411329 2.96763,2.411329 2.75629,0 5.64466,-2.25234 5.64466,-4.584175 0,-1.563389 -1.32491,-2.437827 -2.96843,-2.437827 -2.56976,0 -5.64386,2.172846 -5.64386,4.610673 m 305.75626,3.309383 c 0,1.139179 0.82136,2.411248 2.96763,2.411248 2.75629,0 5.64466,-2.251939 5.64466,-4.584094 0,-1.563389 -1.32491,-2.437827 -2.96763,-2.437827 -2.57056,0 -5.64466,2.172846 -5.64466,4.610673 M 258.95064,166.26224 c 0,1.13918 0.82136,2.41125 2.96763,2.41125 2.75628,0 5.64466,-2.25194 5.64466,-4.58393 0,-1.56347 -1.32491,-2.43767 -2.96763,-2.43767 -2.57056,0 -5.64466,2.17268 -5.64466,4.61035 M 566.06783,23.960143 c 0,1.139179 0.82136,2.411248 2.96763,2.411248 2.75548,0 5.64386,-2.251939 5.64386,-4.584094 0,-1.563389 -1.32491,-2.437827 -2.96763,-2.437827 -2.57056,0 -5.64386,2.172846 -5.64386,4.610673 M 496.24089,166.26224 c 0,1.13918 0.82136,2.41125 2.96763,2.41125 2.75548,0 5.64386,-2.25194 5.64386,-4.58393 0,-1.56347 -1.32491,-2.43767 -2.96763,-2.43767 -2.57056,0 -5.64386,2.17268 -5.64386,4.61035 m -251.91385,-6.61892 c 0,1.13917 0.82136,2.41124 2.96763,2.41124 2.75629,0 5.64466,-2.25194 5.64466,-4.58393 0,-1.56347 -1.32491,-2.43767 -2.96843,-2.43767 -2.56976,0 -5.64386,2.17269 -5.64386,4.61036 M 230.53681,17.341457 c 0,1.139419 0.82136,2.411329 2.96763,2.411329 2.75549,0 5.64386,-2.25234 5.64386,-4.584175 0,-1.563388 -1.3249,-2.437826 -2.96763,-2.437826 -2.57056,0 -5.64386,2.172845 -5.64386,4.610672 m -0.83337,145.611323 c 0,1.13918 0.82136,2.41125 2.96763,2.41125 2.75549,0 5.64386,-2.25194 5.64386,-4.58394 0,-1.56347 -1.3249,-2.43766 -2.96763,-2.43766 -2.57056,0 -5.64386,2.17268 -5.64386,4.61035 M 594.37599,27.269606 c 0,1.139178 0.82136,2.411248 2.96763,2.411248 2.75628,0 5.64466,-2.25274 5.64466,-4.583934 0,-1.563469 -1.32491,-2.438067 -2.96843,-2.438067 -2.56976,0 -5.64386,2.173086 -5.64386,4.610753 M 515.2779,169.5717 c 0,1.13918 0.82137,2.41125 2.96763,2.41125 2.75629,0 5.64466,-2.25274 5.64466,-4.58393 0,-1.56347 -1.3249,-2.43847 -2.96843,-2.43847 -2.56975,0 -5.64386,2.17349 -5.64386,4.61115 M 215.07984,156.33385 c 0,1.13998 0.82137,2.41125 2.96763,2.41125 2.75549,0 5.64386,-2.25194 5.64386,-4.58393 0,-1.56347 -1.3249,-2.43767 -2.96763,-2.43767 -2.57055,0 -5.64386,2.17269 -5.64386,4.61035 M 628.04141,28.435202 c -0.8742,0 -1.05993,-0.714888 -1.05993,-0.953451 0,-1.298488 4.45184,-3.577647 5.6975,-3.577647 0.63563,0 1.05992,0.371454 1.05992,0.954253 0,1.324906 -4.47826,3.576845 -5.69749,3.576845 m 3.6569,-5.776349 c -2.57056,0 -5.64386,2.146668 -5.64386,4.610753 0,1.139178 0.82136,2.411248 2.96763,2.411248 2.75548,0 5.64386,-2.25274 5.64386,-4.583934 0,-1.563469 -1.32491,-2.438067 -2.96763,-2.438067 M 193.14405,166.26224 c 0,1.13918 0.82136,2.41125 2.96762,2.41125 2.75629,0 5.64386,-2.25194 5.64386,-4.58393 0,-1.56347 -1.3249,-2.43767 -2.96763,-2.43767 -2.56975,0 -5.64385,2.17268 -5.64385,4.61035 m 26.4709,-145.61148 c 0,1.139419 0.82136,2.411329 2.96762,2.411329 2.75549,0 5.64386,-2.25234 5.64386,-4.584175 0,-1.563389 -1.3249,-2.437827 -2.96763,-2.437827 -2.57055,0 -5.64385,2.172846 -5.64385,4.610673 m -10.92187,3.309383 c 0,1.139179 0.82136,2.411248 2.96763,2.411248 2.75548,0 5.64386,-2.251939 5.64386,-4.584094 0,-1.563389 -1.32491,-2.437827 -2.96763,-2.437827 -2.57056,0 -5.64386,2.172846 -5.64386,4.610673 m -31.79614,3.309463 c 0,1.139178 0.82136,2.411248 2.96763,2.411248 2.75548,0 5.64385,-2.25274 5.64385,-4.583934 0,-1.563469 -1.3249,-2.438067 -2.96762,-2.438067 -2.57056,0 -5.64386,2.173086 -5.64386,4.610753 M 161.74338,159.64332 c 0,1.13917 0.82136,2.41124 2.96843,2.41124 2.75548,0 5.64385,-2.25194 5.64385,-4.58393 0,-1.56347 -1.3249,-2.43767 -2.96762,-2.43767 -2.57056,0 -5.64466,2.17269 -5.64466,4.61036 M 53.124311,100.07539 c 0,1.13918 0.821361,2.41124 2.967629,2.41124 2.755484,0 5.643859,-2.25274 5.643859,-4.583929 0,-1.563469 -1.324906,-2.438468 -2.967629,-2.438468 -2.570558,0 -5.643859,2.173487 -5.643859,4.611157 m 86.684069,76.11444 c 0,1.13998 0.82136,2.41205 2.96763,2.41205 2.75548,0 5.64386,-2.25274 5.64386,-4.58474 0,-1.56347 -1.32491,-2.43766 -2.96763,-2.43766 -2.57056,0 -5.64386,2.17268 -5.64386,4.61035 M 75.538837,106.69351 c 0,1.13998 0.822162,2.41205 2.968429,2.41205 2.755481,0 5.643856,-2.25274 5.643856,-4.58473 0,-1.56347 -1.324906,-2.43767 -2.967629,-2.43767 -2.570554,0 -5.644656,2.17268 -5.644656,4.61035 m 22.415323,-6.61812 c 0,1.13918 0.821362,2.41124 2.96763,2.41124 2.75628,0 5.64466,-2.25274 5.64466,-4.583929 0,-1.563469 -1.32491,-2.438468 -2.96843,-2.438468 -2.56976,0 -5.64386,2.173487 -5.64386,4.611157 m 19.91842,69.49631 c 0,1.13918 0.82136,2.41125 2.96763,2.41125 2.75548,0 5.64386,-2.25274 5.64386,-4.58393 0,-1.56347 -1.32491,-2.43847 -2.96763,-2.43847 -2.57056,0 -5.64386,2.17349 -5.64386,4.61115 m 11.96178,-79.424702 c 0,1.139179 0.82136,2.411248 2.96763,2.411248 2.75548,0 5.64386,-2.251939 5.64386,-4.583934 0,-1.563469 -1.32491,-2.437667 -2.96763,-2.437667 -2.57056,0 -5.64386,2.172686 -5.64386,4.610353 m 22.41452,9.928392 c 0,1.13918 0.82137,2.41124 2.96763,2.41124 2.75629,0 5.64466,-2.25274 5.64466,-4.583929 0,-1.563469 -1.3249,-2.438468 -2.96843,-2.438468 -2.56975,0 -5.64386,2.173487 -5.64386,4.611157 m 22.41533,-3.309467 c 0,1.139179 0.82136,2.411249 2.96763,2.411249 2.75548,0 5.64386,-2.25274 5.64386,-4.583934 0,-1.563469 -1.32491,-2.438467 -2.96763,-2.438467 -2.57056,0 -5.64386,2.173486 -5.64386,4.611152 M 82.328276,162.95278 c 0,1.13918 0.821361,2.41125 2.967629,2.41125 2.755484,0 5.643859,-2.25194 5.643859,-4.58394 0,-1.56347 -1.324906,-2.43766 -2.967629,-2.43766 -2.570558,0 -5.643859,2.17268 -5.643859,4.61035 M 206.54361,106.69351 c 0,1.13998 0.82136,2.41205 2.96763,2.41205 2.75628,0 5.64466,-2.25274 5.64466,-4.58473 0,-1.56347 -1.32491,-2.43767 -2.96843,-2.43767 -2.56976,0 -5.64386,2.17268 -5.64386,4.61035 m 336.73264,59.56873 c 0,1.13918 0.82136,2.41125 2.96763,2.41125 2.75628,0 5.64386,-2.25194 5.64386,-4.58393 0,-1.56347 -1.32491,-2.43767 -2.96763,-2.43767 -2.56976,0 -5.64386,2.17268 -5.64386,4.61035 m -482.88377,6.61893 c 0,1.13918 0.821362,2.41125 2.96763,2.41125 2.756284,0 5.643858,-2.25274 5.643858,-4.58474 0,-1.56267 -1.324905,-2.43767 -2.967629,-2.43767 -2.569757,0 -5.643859,2.17269 -5.643859,4.61116 m 161.09495,-69.49632 c 0,1.13918 0.82136,2.41125 2.96762,2.41125 2.75549,0 5.64386,-2.25274 5.64386,-4.58474 0,-1.562665 -1.3249,-2.437664 -2.96763,-2.437664 -2.57055,0 -5.64385,2.172684 -5.64385,4.611154 M 38.456682,166.26224 c 0,1.13918 0.821361,2.41125 2.967629,2.41125 2.756285,0 5.644659,-2.25194 5.644659,-4.58393 0,-1.56347 -1.324905,-2.43767 -2.968429,-2.43767 -2.569757,0 -5.643859,2.17268 -5.643859,4.61035 M 236.43044,100.07539 c 0,1.13918 0.82136,2.41124 2.96763,2.41124 2.75629,0 5.64386,-2.25274 5.64386,-4.583929 0,-1.563469 -1.32491,-2.438468 -2.96763,-2.438468 -2.56976,0 -5.64386,2.173487 -5.64386,4.611157 M 162.00916,23.960143 c 0,1.139179 0.82136,2.411248 2.96843,2.411248 2.75548,0 5.64386,-2.251939 5.64386,-4.584094 0,-1.563389 -1.32491,-2.437827 -2.96763,-2.437827 -2.57056,0 -5.64466,2.172846 -5.64466,4.610673 M 557.89985,162.95278 c 0,1.13918 0.82136,2.41125 2.96763,2.41125 2.75628,0 5.64466,-2.25194 5.64466,-4.58394 0,-1.56347 -1.32491,-2.43766 -2.96843,-2.43766 -2.56976,0 -5.64386,2.17268 -5.64386,4.61035 M 258.84577,103.38485 c 0,1.13918 0.82136,2.41125 2.96763,2.41125 2.75548,0 5.64386,-2.25274 5.64386,-4.58474 0,-1.562665 -1.32491,-2.437664 -2.96763,-2.437664 -2.57056,0 -5.64386,2.172684 -5.64386,4.611154 m 313.67768,59.56793 c 0,1.13918 0.82136,2.41125 2.96762,2.41125 2.75629,0 5.64466,-2.25194 5.64466,-4.58394 0,-1.56347 -1.3249,-2.43766 -2.96763,-2.43766 -2.57055,0 -5.64465,2.17268 -5.64465,4.61035 M 133.701,30.579068 c 0,1.139179 0.82136,2.411249 2.96763,2.411249 2.75629,0 5.64386,-2.25274 5.64386,-4.583934 0,-1.563469 -1.32491,-2.438468 -2.96763,-2.438468 -2.56976,0 -5.64386,2.173487 -5.64386,4.611153 m 504.61063,77.280842 c -0.875,0 -1.05993,-0.71569 -1.05993,-0.95425 0,-1.29849 4.45105,-3.57685 5.6967,-3.57685 0.63563,0 1.05992,0.37065 1.05992,0.95345 0,1.32491 -4.47826,3.57765 -5.69669,3.57765 m 3.6561,-5.77675 c -2.56976,0 -5.64386,2.14627 -5.64386,4.61035 0,1.13998 0.82136,2.41205 2.96763,2.41205 2.75628,0 5.64466,-2.25274 5.64466,-4.58473 0,-1.56347 -1.32491,-2.43767 -2.96843,-2.43767 m -368.17894,4.61035 c 0,1.13998 0.82136,2.41205 2.96763,2.41205 2.75628,0 5.64385,-2.25274 5.64385,-4.58473 0,-1.56347 -1.3249,-2.43767 -2.96762,-2.43767 -2.56976,0 -5.64386,2.17268 -5.64386,4.61035 m 29.9853,4.47586 c -0.8742,0 -1.05993,-0.71569 -1.05993,-0.95425 0,-1.29849 4.45185,-3.57685 5.6975,-3.57685 0.63563,0 1.05992,0.37066 1.05992,0.95346 0,1.3249 -4.47826,3.57764 -5.69749,3.57764 m 3.6569,-5.77675 c -2.57056,0 -5.64386,2.14627 -5.64386,4.61035 0,1.13998 0.82136,2.41125 2.96763,2.41125 2.75548,0 5.64386,-2.25194 5.64386,-4.58393 0,-1.56347 -1.32491,-2.43767 -2.96763,-2.43767 m 27.97833,7.91982 c 0,1.13918 0.82136,2.41125 2.96763,2.41125 2.75628,0 5.64466,-2.25194 5.64466,-4.58394 0,-1.56347 -1.32491,-2.43767 -2.96843,-2.43767 -2.56976,0 -5.64386,2.17269 -5.64386,4.61036 m 269.23689,-6.61893 c 0,1.13998 0.82136,2.41205 2.96763,2.41205 2.75548,0 5.64386,-2.25274 5.64386,-4.58473 0,-1.56347 -1.32491,-2.43767 -2.96763,-2.43767 -2.57056,0 -5.64386,2.17268 -5.64386,4.61035 M 97.761228,23.960143 c 0,1.139179 0.821362,2.411248 2.967632,2.411248 2.75548,0 5.64386,-2.251939 5.64386,-4.584094 0,-1.563389 -1.32491,-2.437827 -2.96763,-2.437827 -2.57056,0 -5.643862,2.172846 -5.643862,4.610673 m 291.942812,72.80578 c 0,1.139179 0.82136,2.411249 2.96763,2.411249 2.75629,0 5.64466,-2.25274 5.64466,-4.583934 0,-1.563469 -1.3249,-2.438467 -2.96843,-2.438467 -2.56975,0 -5.64386,2.173486 -5.64386,4.611152 m 210.62642,69.496317 c 0,1.13918 0.82216,2.41125 2.96843,2.41125 2.75548,0 5.64386,-2.25194 5.64386,-4.58393 0,-1.56347 -1.32491,-2.43767 -2.96763,-2.43767 -2.57056,0 -5.64466,2.17268 -5.64466,4.61035 m -24.09968,-62.87739 c 0,1.13918 0.82136,2.41125 2.96763,2.41125 2.75628,0 5.64466,-2.25274 5.64466,-4.58474 0,-1.562665 -1.32491,-2.437664 -2.96763,-2.437664 -2.57056,0 -5.64466,2.172684 -5.64466,4.611154 m -164.11141,0 c 0,1.13918 0.82136,2.41125 2.96763,2.41125 2.75548,0 5.64386,-2.25274 5.64386,-4.58474 0,-1.562665 -1.32491,-2.437664 -2.96763,-2.437664 -2.57056,0 -5.64386,2.172684 -5.64386,4.611154 m 31.8794,-3.30946 c 0,1.13918 0.82136,2.41124 2.96763,2.41124 2.75628,0 5.64466,-2.25274 5.64466,-4.583929 0,-1.563469 -1.32491,-2.438468 -2.96843,-2.438468 -2.56976,0 -5.64386,2.173487 -5.64386,4.611157 m 117.28899,3.30946 c 0,1.13918 0.82136,2.41125 2.96763,2.41125 2.75549,0 5.64386,-2.25274 5.64386,-4.58474 0,-1.562665 -1.3249,-2.437664 -2.96763,-2.437664 -2.57056,0 -5.64386,2.172684 -5.64386,4.611154 M 75.429962,27.269606 c 0,1.139178 0.821362,2.411248 2.967629,2.411248 2.756282,0 5.643856,-2.25274 5.643856,-4.583934 0,-1.563469 -1.324906,-2.438067 -2.967629,-2.438067 -2.569754,0 -5.643856,2.173086 -5.643856,4.610753 M 53.098693,20.65076 c 0,1.139419 0.821362,2.411329 2.967629,2.411329 2.756285,0 5.64466,-2.25234 5.64466,-4.584175 0,-1.563389 -1.324906,-2.437827 -2.96843,-2.437827 -2.569757,0 -5.643859,2.172846 -5.643859,4.610673 m 489.152057,86.04275 c 0,1.13998 0.82136,2.41205 2.96763,2.41205 2.75548,0 5.64385,-2.25274 5.64385,-4.58473 0,-1.56347 -1.3249,-2.43767 -2.96762,-2.43767 -2.57056,0 -5.64386,2.17268 -5.64386,4.61035 m -83.30817,-9.927587 c 0,1.139179 0.82137,2.411249 2.96763,2.411249 2.75549,0 5.64386,-2.25274 5.64386,-4.583934 0,-1.563469 -1.3249,-2.438467 -2.96763,-2.438467 -2.57055,0 -5.64386,2.173486 -5.64386,4.611152 m 14.94302,-3.309462 c 0,1.139179 0.82136,2.411248 2.96763,2.411248 2.75629,0 5.64386,-2.251939 5.64386,-4.583934 0,-1.563469 -1.32491,-2.437667 -2.96763,-2.437667 -2.56976,0 -5.64386,2.172686 -5.64386,4.610353 m 22.41533,13.237049 c 0,1.13998 0.82136,2.41205 2.96763,2.41205 2.75548,0 5.64386,-2.25274 5.64386,-4.58473 0,-1.56347 -1.32491,-2.43767 -2.96763,-2.43767 -2.57056,0 -5.64386,2.17268 -5.64386,4.61035 m -129.01141,0 c 0,1.13998 0.82136,2.41205 2.96763,2.41205 2.75548,0 5.64386,-2.25274 5.64386,-4.58473 0,-1.56347 -1.32491,-2.43767 -2.96763,-2.43767 -2.57056,0 -5.64386,2.17268 -5.64386,4.61035 m 77.76837,52.94981 c 0,1.13917 0.82136,2.41124 2.96763,2.41124 2.75548,0 5.64386,-2.25194 5.64386,-4.58393 0,-1.56347 -1.32491,-2.43767 -2.96763,-2.43767 -2.57056,0 -5.64386,2.17269 -5.64386,4.61036 m 188.93799,7.78452 c -0.8742,0 -1.05993,-0.71489 -1.05993,-0.95345 0,-1.29849 4.45185,-3.57765 5.6975,-3.57765 0.63563,0 1.05992,0.37145 1.05992,0.95425 0,1.32491 -4.47826,3.57685 -5.69749,3.57685 m 3.6569,-5.77595 c -2.57056,0 -5.64386,2.14627 -5.64386,4.61035 0,1.13918 0.82136,2.41125 2.96763,2.41125 2.75548,0 5.64386,-2.25194 5.64386,-4.58393 0,-1.56347 -1.32491,-2.43767 -2.96763,-2.43767 M 162.00916,44.331672 c 0,0.184926 0.15931,0.344235 0.34503,0.344235 0.13209,0 0.2914,-0.105672 0.31782,-0.212145 0,-0.02642 0.23856,-0.953452 0.26498,-1.033507 0.0264,-0.105672 0.26498,-1.112761 1.21843,-2.67623 1.03351,-1.721977 2.6234,-2.967629 3.9483,-4.822497 1.29849,-1.854868 2.09344,-3.604064 2.09344,-5.935258 0,-2.411249 -0.55638,-4.425426 -1.96054,-6.995743 -0.0793,-0.185487 -0.23857,-0.29148 -0.39788,-0.29148 -0.0528,0 -0.10567,0 -0.13209,0.0265 -0.13289,0.053 -0.18572,0.158989 -0.18572,0.317978 0,0.07949 0.0264,0.211985 0.0793,0.318217 1.05992,2.464085 1.48422,3.868245 1.48422,5.77595 0,2.199904 -0.76853,3.339083 -1.24566,4.160444 -1.72197,2.941211 -4.50468,4.37259 -5.61744,4.743244 -0.18572,0.07925 -0.21214,0.212145 -0.21214,0.291399 v 5.988895 M 608.27349,149.65329 c 0,0.08 0.0264,0.21214 0.21134,0.29139 1.13998,0.37146 3.41834,1.80204 5.14112,4.74325 0.47713,0.82136 1.24565,1.96134 1.24565,4.16044 0,1.90771 -0.50354,3.86905 -1.19281,5.77675 -0.0528,0.15851 -0.10568,0.2914 -0.0793,0.39707 0,0.15931 0.10567,0.26498 0.26498,0.26498 0.18493,0 0.31782,-0.10567 0.42349,-0.29139 1.19282,-2.11985 1.64353,-4.58394 1.64353,-6.99519 -0.1329,-3.41833 -2.09344,-5.93606 -2.09344,-5.93606 0.0793,0 -2.43846,-3.25902 -3.15335,-4.37179 -0.98067,-1.51063 -1.43138,-3.02046 -1.48422,-3.12693 -0.0264,-0.0793 -0.26498,-1.03351 -0.26498,-1.03351 -0.0264,-0.10567 -0.15851,-0.21215 -0.31782,-0.21215 -0.18572,0 -0.34423,0.15931 -0.34423,0.34504 v 5.9881 M 602.31822,10.660889 c 0,0.0795 0.0272,0.211985 0.21214,0.29148 1.13998,0.370973 3.41834,1.801872 5.14112,4.743163 0.47632,0.821441 1.24485,1.960861 1.24485,4.160204 0,1.907865 -0.50355,3.869046 -1.19202,5.77675 -0.0528,0.158509 -0.10647,0.291399 -0.0793,0.397072 0,0.159309 0.10567,0.264981 0.26498,0.264981 0.18493,0 0.31782,-0.105672 0.42349,-0.291399 1.19282,-2.11985 1.64272,-4.584015 1.64272,-6.995343 -0.13209,-3.418258 -2.09343,-5.935579 -2.09343,-5.935579 0.0801,0 -2.43766,-3.2592684 -3.15255,-4.3721894 -0.98067,-1.5103927 -1.43138,-3.0207854 -1.48422,-3.1267779 -0.0264,-0.079494 -0.26498,-1.0334266 -0.26498,-1.0334266 -0.0264,-0.1059925 -0.15931,-0.211985 -0.31782,-0.211985 -0.18572,0 -0.34503,0.1589888 -0.34503,0.3444756 v 5.9885743 m 10.27022,77.769735 c 0,0.07925 0.0264,0.212145 0.21214,0.291399 1.13918,0.370654 3.41834,1.802033 5.14032,4.743244 0.47713,0.821361 1.24565,1.96054 1.24565,4.160444 0,1.907705 -0.50354,3.868249 -1.19281,5.775949 -0.0528,0.15931 -0.10568,0.2922 -0.0793,0.39787 0,0.15931 0.10567,0.26498 0.26498,0.26498 0.18573,0 0.31782,-0.10567 0.42429,-0.2914 1.19202,-2.11984 1.64273,-4.58393 1.64273,-6.995979 -0.13289,-3.417537 -2.09344,-5.935258 -2.09344,-5.935258 0.0793,0 -2.43766,-3.259028 -3.15335,-4.371789 -0.98067,-1.510633 -1.43058,-3.021266 -1.48422,-3.126938 -0.0264,-0.08006 -0.26498,-1.033507 -0.26498,-1.033507 -0.0264,-0.106473 -0.15851,-0.212145 -0.31781,-0.212145 -0.18573,0 -0.34424,0.159309 -0.34424,0.344235 v 5.988895 M 327.7949,151.91167 v 22.1062 h 0.66203 v -22.1062 z M 550.19259,85.696707 v 18.824903 h 0.66202 V 85.696707 Z m -83.30821,-8.210302 v 17.107633 h 0.66202 V 77.486405 Z m 102.34608,6.611705 v 17.11483 h 0.66201 V 84.09811 Z m 70.72116,59.54071 v 20.45149 h 0.66202 V 143.63882 Z M 451.94136,79.071393 v 18.832092 h 0.66216 V 79.071393 Z M 53.099118,20.649729 V 41.048675 H 53.76113 V 20.649729 Z M 83.37263,4.6458182 V 25.097769 h 0.662012 V 4.6458182 Z M 97.7609,23.959334 v 18.744064 h 0.66202 V 23.959334 Z m 486.41258,55.146458 v 22.107148 h 0.66202 V 79.105792 Z m -164.11221,0 v 22.107148 h 0.66202 V 79.105792 Z m -22.41454,-4.963393 v 20.451639 h 0.66201 V 74.142399 Z m 214.94134,8.325692 v 22.053519 h 0.66201 V 82.468091 Z m -4.31498,61.223579 v 20.39864 h 0.66201 V 143.69167 Z M 141.64356,6.3005432 V 28.407223 h 0.66217 V 6.3005432 Z M 258.95111,166.26148 v 17.05322 h 0.66202 v -17.05322 z m 313.5727,-3.30945 v 18.74391 h 0.66216 v -18.74391 z m -328.19722,-3.30945 v 22.08948 h 0.66217 V 159.64258 Z M 162.00952,23.959334 v 20.37237 h 0.66202 v -20.37237 z m 181.34243,65.074967 v 22.106209 h 0.66201 V 89.034301 Z M 565.84252,143.674 v 17.10685 h 0.66201 V 143.674 Z M 309.72896,85.724846 v 22.106214 h 0.66201 V 85.724846 Z M 184.8395,4.6458182 V 25.097769 h 0.66218 V 4.6458182 Z M 551.21892,145.25743 v 18.83288 h 0.66202 v -18.83288 z m 93.04753,-62.842191 v 22.106371 h 0.66217 V 82.415239 Z M 281.73138,85.68951 v 18.8321 h 0.66202 V 85.68951 Z M 208.69269,23.959334 v 18.695127 h 0.66202 V 23.959334 Z m 10.92184,-3.309605 v 20.398946 h 0.66202 V 20.649729 Z m 47.17304,63.455578 v 17.107633 h 0.66201 V 84.105307 Z M 46.399385,143.63882 v 20.45149 h 0.662012 V 143.63882 Z M 244.37303,75.797122 v 22.106363 h 0.66217 V 75.797122 Z M 68.335159,148.60221 v 22.107 h 0.662021 v -22.107 z M 229.42922,84.105307 v 17.107633 h 0.66216 V 84.105307 Z m 1.10715,-66.764872 v 22.102302 h 0.66202 V 17.340435 Z M 82.327851,162.95203 v 18.74391 h 0.662013 V 162.95203 Z M 214.48618,85.68951 v 18.8321 h 0.66218 v -18.8321 z m 308.73438,62.8855 v 18.82475 h 0.66201 V 148.57501 Z M 245.42421,20.649729 v 18.779407 h 0.66202 V 20.649729 Z M 504.1827,146.97548 v 17.11483 h 0.66201 V 146.97548 Z M 182.6061,74.142399 v 20.451639 h 0.66202 V 74.142399 Z m 291.69852,78.881121 v 22.05352 h 0.66216 V 153.02352 Z M 160.19155,75.797122 v 22.106363 h 0.66203 V 75.797122 Z m -34.37631,69.496418 v 22.10622 h 0.66201 v -22.10622 z m 4.01869,-55.147383 v 20.398783 h 0.66201 V 90.146157 Z M 260.31111,23.959334 v 17.054005 h 0.66217 V 23.959334 Z M 459.68102,156.33312 v 18.78004 h 0.66217 V 156.33312 Z M 275.19894,20.649729 v 22.088853 h 0.66202 V 20.649729 Z M 105.89677,75.797122 v 22.106363 h 0.66203 V 75.797122 Z m 41.85347,76.114548 v 22.1062 h 0.66201 v -22.1062 z M 83.481448,82.415239 v 22.106371 h 0.662021 V 82.415239 Z m 78.262262,77.227341 v 20.39863 h 0.66217 V 159.64258 Z M 61.06691,75.797122 v 22.106363 h 0.662012 V 75.797122 Z m 383.99052,83.845458 v 17.05322 h 0.66217 V 159.64258 Z M 290.086,27.268789 v 17.054005 h 0.66201 V 27.268789 Z m 27.9982,-3.309455 v 18.744064 h 0.66217 V 23.959334 Z m 98.97502,138.992696 v 17.05322 h 0.66202 V 162.95203 Z M 359.52301,12.919131 V 35.02534 h 0.66201 V 12.919131 Z m 42.91247,146.723449 v 18.78002 h 0.66216 V 159.64258 Z M 383.37697,14.031141 v 22.053364 h 0.66202 V 14.031141 Z m -2.87728,142.301979 v 22.05337 h 0.66218 v -22.05337 z m -179.41298,-12.6943 v 20.45149 h 0.66201 v -20.45149 z m 13.99269,12.6943 v 22.08948 h 0.66217 V 156.33312 Z M 633.9963,4.6458182 V 25.097769 h 0.66201 V 4.6458182 Z m -220.34581,0 V 25.097769 h 0.66201 V 4.6458182 Z M 365.8761,159.64258 v 18.78002 h 0.66218 v -18.78002 z m -136.17311,3.30945 v 17.05322 h 0.66218 V 162.95203 Z M 602.31855,4.6986663 V 25.097769 h 0.66217 V 4.6986663 Z M 504.24274,85.724846 v 18.796764 h 0.66202 V 85.724846 Z M 428.03861,23.959334 v 18.744064 h 0.66217 V 23.959334 Z M 375.2314,82.415239 v 22.106371 h 0.66202 V 82.415239 Z M 566.06736,23.959334 v 18.744064 h 0.66216 V 23.959334 Z M 351.25251,162.95203 v 17.05322 h 0.66217 V 162.95203 Z M 559.12261,4.6809982 V 21.78832 h 0.66217 V 4.6809982 Z M 459.83472,20.649729 v 20.398946 h 0.66217 V 20.649729 Z M 286.94854,162.95203 v 18.74391 h 0.66217 V 162.95203 Z M 544.23493,6.2652062 V 25.097769 h 0.66201 V 6.2652062 Z m -54.1267,6.6539248 V 35.02534 h 0.66217 V 12.919131 Z M 512.4396,6.3005432 V 28.407223 h 0.66201 V 6.3005432 Z M 473.88527,93.455604 v 18.744066 h 0.66201 V 93.455604 Z m 48.30896,-7.730758 v 18.796764 h 0.66202 V 85.724846 Z M 333.2255,111.67009 v 1.05916 h 12.97356 v -1.05916 z m 165.2233,-84.165124 2.35841,-0.477126 v 4.37259 l -2.35841,0.503544 v -4.399008 m 4.10681,-0.821361 c 0.1593,-0.02642 0.29139,-0.212145 0.29139,-0.370654 v -1.563469 c 0,-0.212145 -0.1585,-0.371454 -0.37065,-0.371454 h -0.0528 l -0.87499,0.185727 v -3.948219 h -0.74131 v 4.107528 l -2.35841,0.476326 v -3.735914 h -0.74211 v 3.895223 l -1.03351,0.212145 c -0.15931,0.02642 -0.2914,0.212145 -0.2914,0.370653 v 1.537051 c 0,0.212145 0.15851,0.370654 0.37066,0.370654 h 0.0801 l 0.8742,-0.184927 v 4.37179 l -1.03351,0.212145 c -0.15931,0.02642 -0.2914,0.212145 -0.2914,0.370653 v 1.537051 c 0,0.212145 0.15851,0.371454 0.37066,0.371454 h 0.0801 l 0.8742,-0.185727 v 3.9483 h 0.74211 v -4.107609 l 2.35841,-0.476326 v 3.736155 h 0.74131 v -3.895464 l 1.00709,-0.185727 c 0.1593,-0.02642 0.29139,-0.212145 0.29139,-0.370653 v -1.563469 c 0,-0.212145 -0.1585,-0.370653 -0.37065,-0.370653 h -0.0528 l -0.87499,0.184926 v -4.371789 l 1.00709,-0.185727 m -374.90274,0.821361 2.35761,-0.477126 v 4.37259 l -2.35761,0.503544 v -4.399008 m 4.1068,-0.821361 c 0.15931,-0.02642 0.2914,-0.212145 0.2914,-0.370654 v -1.563469 c 0,-0.212145 -0.1585,-0.371454 -0.37065,-0.371454 h -0.0528 l -0.87499,0.185727 v -3.948219 h -0.74211 v 4.107528 l -2.35761,0.476326 v -3.735914 h -0.74211 v 3.895223 l -1.03351,0.212145 c -0.15931,0.02642 -0.2914,0.212145 -0.2914,0.370653 v 1.537051 c 0,0.212145 0.15851,0.370654 0.37066,0.370654 h 0.0793 l 0.875,-0.184927 v 4.37179 l -1.03351,0.212145 c -0.15931,0.02642 -0.2914,0.212145 -0.2914,0.370653 v 1.537051 c 0,0.212145 0.15851,0.371454 0.37066,0.371454 h 0.0793 l 0.875,-0.185727 v 3.9483 h 0.74211 v -4.107609 l 2.35761,-0.476326 v 3.736155 h 0.74211 v -3.895464 l 1.00708,-0.185727 c 0.15931,-0.02642 0.2914,-0.212145 0.2914,-0.370653 v -1.563469 c 0,-0.212145 -0.1585,-0.370653 -0.37065,-0.370653 h -0.0528 l -0.87499,0.184926 v -4.371789 l 1.00708,-0.185727 m 377.4701,139.813995 2.35841,-0.47712 v 4.37259 l -2.35841,0.50354 v -4.39901 m 4.10681,-0.82136 c 0.15931,-0.0264 0.2914,-0.21214 0.2914,-0.37065 v -1.56347 c 0,-0.21215 -0.15851,-0.37146 -0.37066,-0.37146 h -0.0528 l -0.875,0.18573 v -3.9483 h -0.74131 v 4.10761 l -2.35841,0.47633 v -3.73616 h -0.74211 v 3.89546 l -1.03351,0.21215 c -0.1593,0.0264 -0.29139,0.21214 -0.29139,0.37065 v 1.53705 c 0,0.21215 0.1593,0.37066 0.37065,0.37066 h 0.08 l 0.8742,-0.18493 v 4.37179 l -1.03351,0.21215 c -0.1593,0.0264 -0.29139,0.21214 -0.29139,0.37065 v 1.53705 c 0,0.21214 0.1593,0.37145 0.37065,0.37145 h 0.08 l 0.8742,-0.18572 v 3.9483 h 0.74211 v -4.10761 l 2.35841,-0.47633 v 3.73616 h 0.74131 v -3.89547 l 1.00709,-0.18572 c 0.15931,-0.0264 0.2914,-0.21215 0.2914,-0.37066 v -1.56347 c 0,-0.21214 -0.15851,-0.37065 -0.37066,-0.37065 h -0.0528 l -0.875,0.18493 v -4.37179 l 1.00709,-0.18573 m -458.992235,4.13083 2.357612,-0.47713 v 4.37259 l -2.357612,0.50354 v -4.399 m 4.106808,-0.82137 c 0.159309,-0.0264 0.291399,-0.21214 0.291399,-0.37065 v -1.56347 c 0,-0.21214 -0.158508,-0.37145 -0.370653,-0.37145 h -0.05284 l -0.874999,0.18572 v -3.9483 h -0.742107 v 4.10761 l -2.357612,0.47633 v -3.73616 h -0.742107 v 3.89547 l -1.033507,0.21214 c -0.159309,0.0264 -0.291399,0.21215 -0.291399,0.37066 v 1.53705 c 0,0.21214 0.158508,0.37065 0.370653,0.37065 h 0.07925 l 0.874999,-0.18493 v 4.37179 l -1.033507,0.21215 c -0.159309,0.0264 -0.291399,0.21214 -0.291399,0.37065 v 1.53705 c 0,0.21215 0.158508,0.37146 0.370653,0.37146 h 0.07925 l 0.874999,-0.18573 v 3.9483 h 0.742107 v -4.10761 l 2.357612,-0.47713 v 3.73696 h 0.742107 v -3.89546 l 1.007089,-0.18573 c 0.159309,-0.0264 0.291399,-0.21215 0.291399,-0.37065 v -1.56347 c 0,-0.21215 -0.158508,-0.37146 -0.370653,-0.37146 h -0.05284 l -0.874999,0.18573 v -4.37179 l 1.007089,-0.18573 m 496.787673,-68.67495 2.35841,-0.477129 v 4.372589 l -2.35841,0.50355 v -4.39901 m 4.10761,-0.821364 c 0.1593,-0.02642 0.29139,-0.212145 0.29139,-0.370654 v -1.563469 c 0,-0.212145 -0.1593,-0.371454 -0.37065,-0.371454 h -0.0536 l -0.87419,0.185727 v -3.948299 h -0.74211 v 4.107608 l -2.35841,0.476326 v -3.736155 h -0.74131 v 3.895464 l -1.03351,0.212145 c -0.15931,0.02642 -0.2914,0.212145 -0.2914,0.370653 v 1.537052 c 0,0.21214 0.15851,0.37065 0.37066,0.37065 h 0.0793 l 0.875,-0.18492 v 4.37179 l -1.03351,0.21214 c -0.15931,0.0264 -0.2914,0.21215 -0.2914,0.37065 v 1.53705 c 0,0.21215 0.15851,0.37146 0.37066,0.37146 h 0.0793 l 0.875,-0.18573 v 3.9483 h 0.74131 v -4.10761 l 2.35841,-0.47712 v 3.73695 h 0.74211 v -3.89546 l 1.00709,-0.18573 c 0.1593,-0.0264 0.29139,-0.21214 0.29139,-0.37065 v -1.56347 c 0,-0.21215 -0.1593,-0.37146 -0.37065,-0.37146 h -0.0536 l -0.87419,0.18573 v -4.371787 l 1.00709,-0.185727 m -447.5228,67.008214 2.35842,-0.47712 v 4.37259 l -2.35842,0.50354 v -4.39901 m 4.10761,-0.82136 c 0.15931,-0.0264 0.2914,-0.21214 0.2914,-0.37065 v -1.56347 c 0,-0.21215 -0.15931,-0.37146 -0.37065,-0.37146 h -0.0536 l -0.8742,0.18573 v -3.9483 h -0.7421 v 4.10761 l -2.35842,0.47633 v -3.73616 h -0.7413 v 3.89546 l -1.03351,0.21215 c -0.15931,0.0264 -0.2914,0.21214 -0.2914,0.37065 v 1.53705 c 0,0.21215 0.15851,0.37066 0.37065,0.37066 h 0.0793 l 0.875,-0.18493 v 4.37179 l -1.03351,0.21215 c -0.15931,0.0264 -0.2914,0.21214 -0.2914,0.37065 v 1.53705 c 0,0.21214 0.15851,0.37145 0.37065,0.37145 h 0.0793 l 0.875,-0.18572 v 3.9483 h 0.7413 v -4.10761 l 2.35842,-0.47633 v 3.73616 h 0.7421 v -3.89547 l 1.00709,-0.18572 c 0.15931,-0.0264 0.2914,-0.21215 0.2914,-0.37066 v -1.56347 c 0,-0.21214 -0.15931,-0.37065 -0.37065,-0.37065 h -0.0536 l -0.8742,0.18493 v -4.37179 l 1.00709,-0.18573 m 394.78914,-61.15541 c 0,2.09343 -1.08635,3.20619 -2.6234,4.42542 l 0.0793,-5.16753 c 0.0528,-0.23776 0.45071,-1.00629 1.51063,-1.00629 0.95425,0 1.03351,0.90062 1.03351,1.457 v 0.2914 m -0.31782,-3.04689 c -1.32491,0 -2.09343,0.82136 -2.22632,0.97987 l 0.10647,-8.505813 c 0,-0.211345 -0.15931,-0.370654 -0.37145,-0.370654 h -0.31782 c -0.21215,0 -0.37065,0.159309 -0.37065,0.370654 l 0.13209,15.925293 c 0,0.21214 0.15931,0.37145 0.37145,0.37145 0.0528,0 0.15851,-0.0264 0.21135,-0.0528 2.27915,-1.13998 4.66398,-3.31266 4.66398,-6.04173 0,-1.37774 -0.63563,-2.67623 -2.1991,-2.67623 m -104.33214,-1.16319 2.35842,-0.477129 v 4.372589 l -2.35842,0.50355 v -4.39901 m 4.10761,-0.821364 c 0.15851,-0.02642 0.2914,-0.212145 0.2914,-0.370654 v -1.563469 c 0,-0.212145 -0.15931,-0.371454 -0.37145,-0.371454 h -0.0528 l -0.8742,0.185727 v -3.948299 h -0.7421 v 4.107608 l -2.35842,0.476326 v -3.736155 h -0.7421 v 3.895464 l -1.03271,0.212145 c -0.15931,0.02642 -0.2922,0.212145 -0.2922,0.370653 v 1.537052 c 0,0.21214 0.15931,0.37065 0.37145,0.37065 h 0.0793 l 0.8742,-0.18492 v 4.37179 l -1.03271,0.21214 c -0.15931,0.0264 -0.2922,0.21215 -0.2922,0.37065 v 1.53705 c 0,0.21215 0.15931,0.37146 0.37145,0.37146 h 0.0793 l 0.8742,-0.18573 v 3.9483 h 0.7421 v -4.10761 l 2.35842,-0.47712 v 3.73695 h 0.7421 v -3.89546 l 1.00709,-0.18573 c 0.15851,-0.0264 0.2914,-0.21214 0.2914,-0.37065 v -1.56347 c 0,-0.21215 -0.15931,-0.37146 -0.37145,-0.37146 h -0.0528 l -0.8742,0.18573 v -4.371787 l 1.00709,-0.185727 M 285.44501,11.789921 c -1.98479,-0.09296 -4.07345,0.424251 -6.03131,1.650973 a 0.16531304,0.16531304 0 0 0 -0.0239,0.104603 0.16531304,0.16531304 0 0 0 -0.0407,0.09976 0.16531304,0.16531304 0 0 0 0.0163,0.0066 0.16531304,0.16531304 0 0 0 -0.004,0.01704 0.16531304,0.16531304 0 0 0 0.10445,0.02392 0.16531304,0.16531304 0 0 0 0.0997,0.04065 c 5.38238,-2.265469 12.74325,1.007045 14.66675,6.520709 a 0.16532957,0.16532957 0 0 0 0.31881,-0.08303 c -0.64129,-3.640624 -2.85525,-6.313116 -5.69639,-7.576274 -1.06543,-0.473684 -2.21896,-0.749151 -3.40983,-0.804925 z m -0.0153,0.328975 c 1.14997,0.05426 2.26279,0.320967 3.29084,0.778032 2.25667,1.0033 4.09045,2.93576 5.02172,5.558175 -2.4273,-4.118347 -7.82931,-6.519899 -12.51309,-5.562866 1.39985,-0.580179 2.82604,-0.83819 4.20053,-0.773341 z m -5.9282,1.46215 c 6.17863,-3.871287 13.62212,-0.561984 14.88698,6.618686 -1.95974,-5.617521 -9.40323,-8.926824 -14.88698,-6.618686 M 256.43908,9.6311012 c -2.50305,0.1358577 -4.99825,1.4087508 -6.8442,3.8502898 a 0.16531304,0.16531304 0 0 0 0.002,0.01517 0.16531304,0.16531304 0 0 0 0.01,0.198573 0.16531304,0.16531304 0 0 0 0.0177,4.81e-4 0.16531304,0.16531304 0 0 0 0.002,0.01736 0.16531304,0.16531304 0 0 0 0.1068,-0.01485 0.16531304,0.16531304 0 0 0 0.10695,0.0025 c 3.95465,-3.7734431 11.29953,-3.218311 14.64204,1.106694 a 0.16532957,0.16532957 0 0 0 0.27613,-0.17981 c -1.66622,-3.075695 -4.40034,-4.7698523 -7.24856,-4.9851275 -0.35603,-0.02691 -0.71377,-0.030666 -1.07135,-0.011258 z m 0.0178,0.3297567 c 0.34344,-0.018465 0.68687,-0.014576 1.02867,0.011258 2.22517,0.1681841 4.37138,1.2875321 5.9694,3.3025701 -3.33926,-2.831916 -8.64031,-3.232609 -12.36736,-0.934857 1.59356,-1.4828 3.47691,-2.277226 5.36929,-2.3789711 z m -6.73018,3.6201881 c 4.15885,-5.500641 11.60234,-4.9380164 14.88698,1.125169 -3.40953,-4.411736 -10.85302,-4.9742808 -14.88698,-1.125169 M 227.12514,5.4576228 c -5.96728,-0.1356647 -11.9234,3.2887719 -14.28336,9.1872192 a 0.16531304,0.16531304 0 0 0 0.0644,0.187785 0.16531304,0.16531304 0 0 0 0.004,0.01532 0.16531304,0.16531304 0 0 0 0.01,-0.0023 0.16531304,0.16531304 0 0 0 0.0144,0.01407 0.16531304,0.16531304 0 0 0 0.0988,-0.04237 0.16531304,0.16531304 0 0 0 0.10414,-0.02595 c 1.9543,-3.249275 5.64241,-5.7082224 9.70632,-6.9395892 4.06392,-1.2313659 8.49639,-1.2328982 11.92519,0.3852634 A 0.16532957,0.16532957 0 0 0 234.9332,7.951251 c -2.38031,-1.6347802 -5.09497,-2.431914 -7.80737,-2.4935802 z m -0.0102,0.3319454 c 2.0394,0.045693 4.07815,0.5213781 5.96923,1.4625632 -3.184,-0.9371864 -6.89157,-0.760777 -10.33691,0.2831624 -3.44559,1.0440123 -6.62775,2.9554972 -8.7563,5.5026682 2.69016,-4.6925254 7.90201,-7.365389 13.12398,-7.2483938 z M 212.99522,14.706215 C 216.38794,6.2264974 227.31061,2.9171146 234.83895,8.0875298 227.8822,4.804405 216.96033,8.1137077 212.99522,14.706215 M 622.54409,148.23869 v 27.20266 h 1.19113 V 148.23869 Z M 120.36949,78.742416 v 27.202514 h 1.19128 V 78.742416 Z M 44.852255,95.653163 c 0,-0.768526 -0.609217,-1.404961 -1.377742,-1.404961 -0.768526,0 -1.377742,0.636435 -1.377742,1.404961 0,0.768525 0.609216,1.40416 1.377742,1.40416 0.768525,0 1.377742,-0.635635 1.377742,-1.40416 m 0,-6.618926 c 0,-0.768526 -0.609217,-1.40416 -1.377742,-1.40416 -0.768526,0 -1.377742,0.635634 -1.377742,1.40416 0,0.768525 0.609216,1.40416 1.377742,1.40416 0.768525,0 1.377742,-0.635635 1.377742,-1.40416 M 38.45661,78.742416 v 27.202514 h 1.191278 V 78.742416 Z m -6.088539,0 v 27.202514 h 3.640145 V 78.742416 Z M 183.67918,148.23869 v 27.20266 h 1.19128 v -27.20266 z m 251.91381,0 v 27.20266 h 1.19128 V 148.23869 Z M 308.61976,9.2458378 V 36.448658 h 1.19129 V 9.2458378 Z m 65.29261,0 V 36.448658 h 1.19129 V 9.2458378 Z m 303.44717,0 V 36.448658 h 3.64015 V 9.2458378 Z m -3.63967,0 V 36.448658 H 674.911 V 9.2458378 Z m -2.44731,16.9110072 c 0,-0.768526 -0.60921,-1.404961 -1.37774,-1.404961 -0.76852,0 -1.37774,0.636435 -1.37774,1.404961 0,0.768525 0.60922,1.40416 1.37774,1.40416 0.76853,0 1.37774,-0.635635 1.37774,-1.40416 m 0,-6.619006 c 0,-0.768445 -0.60921,-1.4044 -1.37774,-1.4044 -0.76852,0 -1.37774,0.635955 -1.37774,1.4044 0,0.768445 0.60922,1.4044 1.37774,1.4044 0.76853,0 1.37774,-0.635955 1.37774,-1.4044 M 616.58956,9.2458378 V 36.448658 h 1.19128 V 9.2458378 Z M 277.4841,148.23869 v 27.20266 h 1.19128 V 148.23869 Z M 450.37028,9.2458378 V 36.448658 h 1.19128 V 9.2458378 Z M 341.78806,148.23869 v 27.20266 h 1.19129 V 148.23869 Z M 197.07881,78.742416 v 27.202514 h 1.19112 V 78.742416 Z m 336.73258,69.496274 v 27.20266 h 1.19113 V 148.23869 Z M 679.80887,78.742416 V 105.94493 H 681 V 78.742416 Z M 199.22825,9.2458378 V 36.448658 h 1.19113 V 9.2458378 Z m 93.09397,69.4965782 v 27.202514 h 1.19128 V 78.742416 Z m 334.53671,0 v 27.202514 h 1.19127 V 78.742416 Z m -269.03427,0 v 27.202514 h 1.19113 V 78.742416 Z M 120.09242,9.2458378 V 36.448658 h 1.19128 V 9.2458378 Z M 677.35954,148.23869 v 27.20266 h 3.64015 v -27.20266 z m -3.63967,0 v 27.20266 h 1.19113 v -27.20266 z m -569.45577,0 v 27.20266 h 1.19112 V 148.23869 Z M 434.53382,78.742416 v 27.202514 h 1.19129 V 78.742416 Z m 98.25203,0 v 27.202514 h 1.19128 V 78.742416 Z M 526.82819,9.2458378 V 36.448658 h 1.19127 V 9.2458378 Z M 0,174.7132 v 0.72768 h 681 v -0.72768 z m 0,-6.61812 v 0.72768 h 681 v -0.72768 z m 0,-6.6189 v 0.72768 h 681 v -0.72768 z m 0,-6.6189 v 0.72768 h 681 v -0.72768 z m 0,-6.61891 v 0.72769 h 681 v -0.72769 z m 0,-43.02144 v 0.72769 h 681 v -0.72769 z m 0,-6.618121 v 0.727681 h 681 v -0.727681 z m 0,-6.618902 v 0.727682 h 681 v -0.727682 z m 0,-6.619054 v 0.727842 h 681 v -0.727842 z m 0,-6.618901 v 0.727681 H 681 V 78.741952 Z M 0,35.720656 v 0.727689 h 681 v -0.727689 z m 0,-6.618269 v 0.727841 h 681 v -0.727841 z m 0,-6.61906 v 0.727685 h 681 v -0.727685 z m 0,-6.618588 v 0.727684 H 681 V 15.864739 Z M 0,9.2459947 V 9.9736795 H 681 V 9.2459947 Z"
     style="stroke-width:0.0800547" />
  <metadata
     id="metadata245">
    <rdf:RDF>
      <cc:Work
         rdf:about="">
        <dc:title>air_VI</dc:title>
      </cc:Work>
    </rdf:RDF>
  </metadata>
</svg>
