<?xml version="1.0" encoding="utf-8"?>
<svg xmlns="http://www.w3.org/2000/svg" xmlns:svg="http://www.w3.org/2000/svg" version="1.1" viewBox="0 0 681 187">
	<title>A score 3 staves long in 6/4 time, in the key of D Major.</title>
	<path d="M383.874 75.797c0 .741.583 1.325 1.325 1.325s1.325-.584 1.325-1.325c0-.742-.583-1.325-1.325-1.325s-1.325.583-1.325 1.325m255.263 102.59c0 .742.583 1.324 1.325 1.324s1.325-.582 1.325-1.324-.583-1.325-1.325-1.325-1.325.582-1.325 1.325m-264.396-33.094c0 .742.584 1.325 1.325 1.325.742 0 1.325-.583 1.325-1.325s-.583-1.324-1.325-1.324c-.741 0-1.325.582-1.325 1.324M357.079 26.158c0 .741.584 1.325 1.325 1.325.742 0 1.325-.584 1.325-1.325 0-.742-.583-1.325-1.325-1.325-.741 0-1.325.583-1.325 1.325m79.064 49.64c0 .741.583 1.325 1.325 1.325s1.325-.584 1.325-1.325c0-.742-.583-1.325-1.325-1.325s-1.325.583-1.325 1.325m-125.126 69.497c0 .74.582 1.324 1.325 1.324.742 0 1.324-.583 1.324-1.325s-.582-1.324-1.324-1.324-1.325.582-1.325 1.324m-90.448-49.64c0 .741.583 1.325 1.325 1.325s1.325-.584 1.325-1.325c0-.742-.583-1.325-1.325-1.325s-1.325.583-1.325 1.325m189.5-69.496c0 .741.583 1.325 1.325 1.325s1.325-.584 1.325-1.325c0-.742-.583-1.325-1.325-1.325s-1.325.583-1.325 1.325m133.06 69.496c0 .741.584 1.325 1.325 1.325.742 0 1.325-.584 1.325-1.325 0-.742-.583-1.325-1.325-1.325-.741 0-1.325.583-1.325 1.325M168.301 75.797c0 .741.582 1.325 1.325 1.325.742 0 1.324-.584 1.324-1.325 0-.742-.582-1.325-1.324-1.325s-1.325.583-1.325 1.325m418.164 0c0 .741.584 1.325 1.325 1.325.742 0 1.325-.584 1.325-1.325 0-.742-.583-1.325-1.325-1.325-.741 0-1.325.583-1.325 1.325M128.89 26.157c0 .741.583 1.325 1.325 1.325s1.325-.584 1.325-1.325c0-.742-.583-1.325-1.325-1.325s-1.325.583-1.325 1.325m509.844 49.64c0 .741.583 1.325 1.325 1.325s1.325-.584 1.325-1.325c0-.742-.583-1.325-1.325-1.325s-1.325.583-1.325 1.325m-400.907 69.497c0 .74.583 1.324 1.325 1.324s1.325-.583 1.325-1.325-.583-1.324-1.325-1.324-1.325.582-1.325 1.324m210.104 0c0 .742.583 1.325 1.325 1.325.741 0 1.325-.583 1.325-1.325s-.584-1.324-1.325-1.324c-.742 0-1.325.582-1.325 1.324m-273.828 0c0 .742.583 1.325 1.325 1.325s1.325-.583 1.325-1.325-.583-1.324-1.325-1.324-1.325.582-1.325 1.324M585.269 26.158c0 .741.584 1.325 1.325 1.325.742 0 1.325-.584 1.325-1.325 0-.742-.583-1.325-1.325-1.325-.741 0-1.325.583-1.325 1.325M123.344 151.912c0 .742.582 1.325 1.324 1.325s1.325-.583 1.325-1.325-.582-1.325-1.325-1.325c-.742 0-1.324.583-1.324 1.325M638.259 26.157c0 .741.583 1.325 1.325 1.325s1.325-.584 1.325-1.325c0-.742-.583-1.325-1.325-1.325s-1.325.583-1.325 1.325m-456.38 0c0 .741.583 1.325 1.325 1.325.743 0 1.325-.584 1.325-1.325 0-.742-.582-1.325-1.325-1.325-.742 0-1.324.583-1.324 1.325m329.775 138.992c0 .743.583 1.325 1.325 1.325s1.325-.582 1.325-1.325c0-.742-.583-1.324-1.325-1.324s-1.325.582-1.325 1.324M313.07 9.596l12.7-1.655v3.338l-12.7 1.654zm228.19 0 12.7-1.655v3.338l-12.7 1.654zm-461.54.007 17.861-1.655v3.324l-17.86 1.654zm-27.372 23.19v1.96H50.15a.38.38 0 0 0-.371.37v.504a.38.38 0 0 0 .371.372h8.029c.212 0 .37-.16.37-.372v-.503a.36.36 0 0 0-.37-.37h-2.385v-1.961h2.385c.212 0 .37-.186.37-.398v-.504a.38.38 0 0 0-.37-.37h-2.385v-4.214c0-.16-.08-.291-.186-.344l-.317-.16c-.053-.026-.08-.026-.133-.026-.106 0-.212 0-.292.08l-2.41 2.2a.4.4 0 0 0-.107.29v2.174h-3.074s2.968-3.18 6.095-7.367a.58.58 0 0 0 .133-.37.43.43 0 0 0-.08-.266l-.583-.583c-.08-.053-.159-.106-.265-.106h-3.948c-.185 0-.318.159-.345.318 0 0-.132 1.961-.821 4.107-.69 2.147-1.484 3.472-2.173 4.452 0 0-.08.132-.08.292 0 .052 0 .105.027.158.08.186.265.477.265.477s.053.16.292.16zm.794-11.067c-.874 0-1.59-1.192-1.59-2.676s.716-2.703 1.59-2.703 1.616 1.219 1.616 2.703-.742 2.676-1.616 2.676m.98-6.625c-1.616 0-2.2.477-2.57.875-.08-.557-.132-.98-.132-1.405 0-1.51.53-3.47 2.385-3.47.662 0 1.06.211 1.324.503-.557.238-1.007.954-1.007 1.563 0 .954.743 1.696 1.696 1.696.954 0 1.723-.742 1.723-1.696v-.08c0-.238-.054-.635-.16-.847-.344-.954-1.457-2.359-4.106-2.359-2.385 0-4.108 2.28-4.638 3.498a9.4 9.4 0 0 0-.662 3.418c0 1.617.45 3.445 2.013 4.823 1.537 1.166 2.518 1.219 3.445 1.219.928 0 4.4-1.087 4.4-4.16 0-2.597-2.041-3.578-3.71-3.578m-17.93 71.973 2.359-.477v4.371l-2.359.504zm4.108-.822c.16-.027.291-.212.291-.371v-1.564c0-.212-.159-.37-.37-.37h-.054l-.874.185v-3.948h-.742v4.107l-2.359.477v-3.736h-.741v3.895l-1.033.212c-.16.026-.292.212-.292.371v1.536c0 .213.159.372.37.372h.08l.875-.186v4.373l-1.033.211c-.16.027-.292.212-.292.372v1.537c0 .211.159.37.37.37h.08l.875-.185v3.948h.741V93.75l2.359-.477v3.736h.742v-3.895l1.007-.185c.16-.027.291-.212.291-.372v-1.563c0-.212-.159-.37-.37-.37h-.054l-.874.185v-4.373zM28.94 77.145l2.358-.477v4.373l-2.358.503zm4.107-.821c.16-.026.292-.212.292-.372V74.39a.363.363 0 0 0-.371-.372h-.054l-.874.186v-3.948H31.3v4.107l-2.358.477v-3.736h-.742v3.895l-1.033.212c-.16.027-.292.212-.292.37v1.538c0 .212.159.37.371.37h.08l.874-.184v4.371l-1.033.213c-.16.026-.292.212-.292.37v1.537c0 .212.159.37.371.37h.08l.874-.184v3.948h.742v-4.107l2.358-.477v3.736h.742v-3.895l1.007-.186c.16-.026.292-.212.292-.37v-1.564a.363.363 0 0 0-.371-.371h-.054l-.874.185V76.51zm3.146-58.747 2.359-.477v4.372l-2.359.504zm4.108-.821c.16-.027.291-.212.291-.371V14.82a.36.36 0 0 0-.37-.37h-.054l-.874.185v-3.949h-.742v4.108l-2.359.477v-3.737h-.741v3.896l-1.034.212c-.159.026-.29.212-.29.37v1.537c0 .212.158.371.37.371h.079l.875-.185v4.372l-1.034.212c-.159.027-.29.212-.29.371v1.537c0 .212.158.371.37.371h.079l.875-.186v3.949h.741v-4.107l2.359-.477v3.736h.742v-3.896l1.007-.185c.16-.026.291-.212.291-.37v-1.564a.36.36 0 0 0-.37-.371h-.054l-.874.185v-4.372zM28.94 7.649l2.358-.477v4.372l-2.358.504zm4.107-.821c.16-.027.292-.212.292-.371V4.893a.36.36 0 0 0-.371-.37h-.054l-.874.185V.759H31.3v4.108l-2.358.477V1.607h-.742v3.896l-1.033.212c-.16.026-.292.212-.292.37v1.537c0 .212.159.371.371.371h.08l.874-.185v4.372l-1.033.212c-.16.027-.292.212-.292.371V14.3c0 .212.159.371.371.371h.08l.874-.185v3.948h.742v-4.107l2.358-.477v3.736h.742V13.69l1.007-.186c.16-.026.292-.212.292-.37V11.57a.36.36 0 0 0-.371-.371h-.054l-.874.185V7.013zm3.146 149.742 2.359-.477v4.372l-2.359.503zm4.108-.822c.16-.027.291-.211.291-.37v-1.564c0-.212-.159-.37-.37-.37h-.054l-.874.184v-3.947h-.742v4.106l-2.359.477v-3.736h-.741v3.895l-1.033.212c-.16.026-.292.212-.292.372v1.536c0 .212.159.371.37.371h.08l.875-.185v4.372l-1.033.211c-.16.028-.292.213-.292.372v1.537c0 .211.159.37.37.37h.08l.875-.185v3.948h.741v-4.107l2.359-.477v3.736h.742v-3.895l1.007-.185c.16-.026.291-.212.291-.371v-1.564c0-.211-.159-.37-.37-.37h-.054l-.874.185v-4.372zm-11.361-9.106 2.358-.478v4.373l-2.358.504zm4.107-.82c.16-.027.292-.213.292-.371v-1.564a.363.363 0 0 0-.371-.371h-.054l-.874.185v-3.948H31.3v4.108l-2.358.476V140.6h-.742v3.895l-1.033.212c-.16.027-.292.213-.292.371v1.537c0 .212.159.37.371.37h.08l.874-.184v4.372l-1.033.212c-.16.026-.292.212-.292.37v1.538c0 .212.159.371.371.371h.08l.874-.186v3.949h.742v-4.108l2.358-.477v3.737h.742v-3.896l1.007-.185c.16-.027.292-.213.292-.371v-1.563a.363.363 0 0 0-.371-.372h-.054l-.874.186v-4.372zm-16.955 28.097a7.7 7.7 0 0 1-1.537.16c-3.789 0-7.022-2.65-7.022-6.652 0-3.233 2.28-6.12 4.611-8.135.45-.398.874-.768 1.272-1.165.238 1.43.424 2.676.61 3.762-2.412.715-4.055 3.26-4.055 5.75 0 1.855 1.458 4.399 3.577 4.399.212 0 .45-.106.45-.344 0-.239-.264-.372-.582-.583-1.033-.637-1.616-1.325-1.616-2.624 0-1.616 1.192-2.914 2.755-3.286zm-2.332-27.24c.239-1.06 1.458-3.842 2.836-3.842.397 0 1.033 1.299 1.033 3.127 0 2.755-2.04 4.822-3.869 6.624-.159-1.06-.291-2.093-.291-3.206 0-.98.08-1.882.291-2.703m6.095 22.338c0 1.882-.768 3.816-2.65 4.584a882 882 0 0 1-1.457-8.558c2.385 0 4.107 1.616 4.107 3.974m-11.66 13.037c0 1.749 1.352 4.054 4.93 4.054 1.245 0 2.331-.318 3.285-.9 1.431-1.007 1.802-2.757 1.802-4.426 0-1.033-.159-2.225-.424-3.736-.08-.53-.238-1.325-.397-2.358 2.597-.848 4.53-3.55 4.53-6.28 0-4.002-2.834-6.704-6.703-6.704-.265-1.59-.53-3.154-.769-4.637 2.81-2.942 4.744-6.254 4.744-10.467 0-2.412-.742-4.372-1.166-5.326-.636-1.352-1.405-2.28-1.882-2.28-.185 0-1.007.319-1.881 1.352-1.696 2.014-2.173 5.406-2.173 7.631 0 1.432.133 2.73.583 5.698-.026.026-1.404 1.43-1.96 1.881-2.412 2.252-5.75 5.458-5.75 10.758 0 4.955 4.318 8.85 9.247 8.85.768 0 1.484-.079 2.093-.185.504 2.544.795 4.399.795 5.803 0 2.756-1.404 4.213-4.08 4.213-.636 0-1.193-.132-1.246-.132-.026-.027-.08-.053-.08-.08 0-.053.054-.079.133-.105 1.246-.186 2.49-1.246 2.49-2.942 0-1.431-1.085-2.94-3.073-2.94-1.855 0-3.047 1.509-3.047 3.258m7.896-77.631a7.7 7.7 0 0 1-1.537.159c-3.789 0-7.022-2.65-7.022-6.65 0-3.234 2.28-6.122 4.611-8.136.45-.398.875-.769 1.272-1.166.238 1.43.424 2.677.61 3.763-2.412.715-4.055 3.259-4.055 5.75 0 1.854 1.458 4.398 3.577 4.398.212 0 .451-.105.451-.344 0-.238-.265-.371-.583-.583-1.033-.636-1.616-1.325-1.616-2.623 0-1.616 1.192-2.915 2.755-3.286zm-2.332-27.24c.239-1.06 1.458-3.842 2.836-3.842.397 0 1.033 1.298 1.033 3.127 0 2.755-2.04 4.822-3.869 6.624-.159-1.06-.291-2.093-.291-3.206 0-.98.08-1.882.291-2.703m6.095 22.338c0 1.881-.768 3.815-2.65 4.584a882 882 0 0 1-1.457-8.559c2.385 0 4.107 1.617 4.107 3.975m-11.66 13.037c0 1.748 1.352 4.054 4.93 4.054 1.245 0 2.331-.318 3.285-.9 1.431-1.008 1.802-2.757 1.802-4.426 0-1.034-.159-2.226-.424-3.736-.08-.53-.238-1.325-.397-2.359 2.597-.847 4.53-3.55 4.53-6.28 0-4.001-2.834-6.704-6.703-6.704-.265-1.59-.53-3.153-.769-4.637 2.81-2.942 4.744-6.253 4.744-10.467 0-2.411-.742-4.372-1.166-5.326-.636-1.351-1.405-2.279-1.882-2.279-.185 0-1.007.319-1.881 1.351-1.696 2.015-2.173 5.406-2.173 7.632 0 1.431.133 2.73.583 5.698-.026.026-1.404 1.43-1.96 1.88-2.412 2.253-5.75 5.459-5.75 10.759 0 4.955 4.318 8.85 9.247 8.85.768 0 1.484-.079 2.093-.185.504 2.544.795 4.399.795 5.803 0 2.755-1.404 4.213-4.08 4.213-.636 0-1.193-.133-1.246-.133-.026-.026-.08-.053-.08-.08 0-.052.054-.078.133-.105 1.246-.185 2.49-1.245 2.49-2.941 0-1.431-1.085-2.941-3.073-2.941-1.855 0-3.047 1.51-3.047 3.259m7.896-77.632a7.7 7.7 0 0 1-1.537.16c-3.789 0-7.022-2.65-7.022-6.651 0-3.234 2.28-6.122 4.611-8.135.45-.398.875-.769 1.272-1.166.238 1.43.424 2.676.61 3.762-2.412.716-4.055 3.26-4.055 5.75 0 1.855 1.458 4.4 3.577 4.4.212 0 .451-.107.451-.345 0-.239-.265-.372-.583-.583-1.033-.636-1.616-1.325-1.616-2.623 0-1.617 1.192-2.915 2.755-3.287zm-2.332-27.24c.239-1.06 1.458-3.842 2.836-3.842.397 0 1.033 1.299 1.033 3.127 0 2.756-2.04 4.823-3.869 6.625-.159-1.06-.291-2.094-.291-3.207 0-.98.08-1.881.291-2.703m6.095 22.339c0 1.881-.768 3.815-2.65 4.584a882 882 0 0 1-1.457-8.559c2.385 0 4.107 1.616 4.107 3.975M8.196 43.06c0 1.748 1.352 4.054 4.93 4.054 1.245 0 2.331-.318 3.285-.901 1.431-1.007 1.802-2.756 1.802-4.425 0-1.034-.159-2.226-.424-3.737-.08-.53-.238-1.325-.397-2.358 2.597-.848 4.53-3.55 4.53-6.28 0-4.001-2.834-6.704-6.703-6.704-.265-1.59-.53-3.153-.769-4.637 2.81-2.942 4.744-6.254 4.744-10.467 0-2.411-.742-4.372-1.166-5.326C17.392.927 16.623 0 16.146 0c-.185 0-1.007.318-1.881 1.351-1.696 2.014-2.173 5.406-2.173 7.632 0 1.43.133 2.73.583 5.697-.026.026-1.404 1.43-1.96 1.881-2.412 2.253-5.75 5.459-5.75 10.758 0 4.956 4.318 8.851 9.247 8.851.768 0 1.484-.08 2.093-.186.504 2.545.795 4.4.795 5.804 0 2.755-1.404 4.213-4.08 4.213-.636 0-1.193-.133-1.246-.133-.026-.026-.08-.053-.08-.08 0-.052.054-.079.133-.105 1.246-.186 2.49-1.246 2.49-2.941 0-1.432-1.085-2.941-3.073-2.941-1.855 0-3.047 1.51-3.047 3.259M394.54 83.528c0 1.14.822 2.412 2.968 2.412 2.756 0 5.644-2.253 5.644-4.585 0-1.563-1.324-2.437-2.967-2.437-2.57 0-5.645 2.172-5.645 4.61M317.166 30.58c0 1.14.822 2.411 2.968 2.411 2.756 0 5.645-2.252 5.645-4.584 0-1.563-1.325-2.438-2.968-2.438-2.57 0-5.645 2.173-5.645 4.611m-12.038 3.31c0 1.139.821 2.41 2.967 2.41 2.756 0 5.644-2.252 5.644-4.584 0-1.563-1.325-2.438-2.967-2.438-2.57 0-5.644 2.173-5.644 4.612m57.698 112.517c0 1.14.822 2.412 2.968 2.412 2.756 0 5.645-2.253 5.645-4.584 0-1.564-1.325-2.439-2.968-2.439-2.57 0-5.645 2.174-5.645 4.611M345.165 27.27c0 1.139.821 2.41 2.967 2.41 2.757 0 5.645-2.252 5.645-4.583 0-1.564-1.325-2.438-2.968-2.438-2.57 0-5.644 2.173-5.644 4.61m-4.055 125.755c0 1.14.821 2.412 2.968 2.412 2.755 0 5.644-2.252 5.644-4.584 0-1.564-1.325-2.438-2.968-2.438-2.57 0-5.644 2.173-5.644 4.61m63.724 0c0 1.14.822 2.412 2.968 2.412 2.756 0 5.645-2.252 5.645-4.584 0-1.564-1.325-2.438-2.969-2.438-2.57 0-5.644 2.173-5.644 4.61m-78.202-3.308c0 1.139.821 2.411 2.968 2.411 2.755 0 5.644-2.253 5.644-4.585 0-1.562-1.325-2.437-2.968-2.437-2.57 0-5.644 2.172-5.644 4.61M368.057 23.96c0 1.14.822 2.411 2.968 2.411 2.755 0 5.644-2.252 5.644-4.584 0-1.563-1.325-2.438-2.968-2.438-2.57 0-5.644 2.173-5.644 4.611m12.039 3.31c0 1.139.821 2.41 2.967 2.41 2.757 0 5.645-2.252 5.645-4.583 0-1.564-1.325-2.438-2.968-2.438-2.57 0-5.644 2.173-5.644 4.61m-100.069 1.166a.99.99 0 0 1-1.06-.953c0-1.299 4.452-3.578 5.697-3.578.637 0 1.06.372 1.06.954 0 1.325-4.477 3.577-5.697 3.577m3.657-5.776c-2.57 0-5.644 2.147-5.644 4.61 0 1.14.822 2.412 2.968 2.412 2.756 0 5.644-2.253 5.644-4.584 0-1.564-1.325-2.438-2.968-2.438m15.418 123.747c0 1.14.821 2.412 2.968 2.412 2.756 0 5.644-2.253 5.644-4.584 0-1.564-1.325-2.439-2.968-2.439-2.57 0-5.644 2.174-5.644 4.611M398.155 27.27c0 1.139.821 2.41 2.967 2.41 2.756 0 5.644-2.252 5.644-4.583 0-1.564-1.325-2.438-2.968-2.438-2.57 0-5.643 2.173-5.643 4.61m-138.173 0c0 1.14.821 2.412 2.967 2.412 2.756 0 5.644-2.253 5.644-4.584 0-1.564-1.325-2.438-2.967-2.438-2.57 0-5.644 2.173-5.644 4.61m161.064-3.309c0 1.14.822 2.411 2.969 2.411 2.755 0 5.644-2.252 5.644-4.584 0-1.563-1.325-2.438-2.968-2.438-2.57 0-5.645 2.173-5.645 4.611M267.921 156.334c0 1.14.821 2.411 2.967 2.411 2.756 0 5.644-2.252 5.644-4.584 0-1.563-1.325-2.438-2.967-2.438-2.57 0-5.644 2.173-5.644 4.61M433.086 27.27c0 1.139.821 2.41 2.967 2.41 2.756 0 5.644-2.252 5.644-4.583 0-1.564-1.325-2.438-2.967-2.438-2.571 0-5.644 2.173-5.644 4.61M253.443 153.025c0 1.14.821 2.412 2.967 2.412 2.756 0 5.644-2.252 5.644-4.584 0-1.564-1.325-2.438-2.967-2.438-2.57 0-5.644 2.173-5.644 4.61M463.07 15.198a.99.99 0 0 1-1.06-.954c0-1.298 4.452-3.577 5.698-3.577.635 0 1.06.37 1.06.954 0 1.325-4.479 3.577-5.698 3.577m3.657-5.777c-2.57 0-5.644 2.147-5.644 4.611 0 1.14.821 2.411 2.968 2.411 2.755 0 5.644-2.252 5.644-4.584 0-1.563-1.325-2.438-2.968-2.438M488.17 27.27c0 1.139.822 2.41 2.968 2.41 2.756 0 5.645-2.252 5.645-4.583 0-1.564-1.325-2.438-2.969-2.438-2.57 0-5.644 2.173-5.644 4.61m-253.29-8.762a.99.99 0 0 1-1.06-.954c0-1.298 4.452-3.577 5.697-3.577.637 0 1.06.371 1.06.954 0 1.325-4.477 3.577-5.697 3.577m3.657-5.776c-2.57 0-5.644 2.146-5.644 4.61 0 1.14.822 2.412 2.968 2.412 2.756 0 5.644-2.253 5.644-4.584 0-1.564-1.325-2.438-2.968-2.438m-12.625 136.985c0 1.139.821 2.411 2.967 2.411 2.756 0 5.644-2.253 5.644-4.585 0-1.562-1.325-2.437-2.967-2.437-2.57 0-5.644 2.172-5.644 4.61m282.304-121.28a.99.99 0 0 1-1.06-.953c0-1.299 4.452-3.578 5.698-3.578.635 0 1.06.372 1.06.954 0 1.325-4.479 3.577-5.698 3.577m3.657-5.776c-2.57 0-5.644 2.147-5.644 4.61 0 1.14.821 2.412 2.968 2.412 2.755 0 5.644-2.253 5.644-4.584 0-1.564-1.325-2.438-2.968-2.438M204.196 156.334c0 1.14.821 2.411 2.967 2.411 2.757 0 5.645-2.252 5.645-4.584 0-1.563-1.325-2.438-2.968-2.438-2.57 0-5.644 2.173-5.644 4.61M533.317 33.89c0 1.139.822 2.41 2.968 2.41 2.756 0 5.645-2.252 5.645-4.584 0-1.563-1.325-2.438-2.969-2.438-2.57 0-5.644 2.173-5.644 4.612m-343.6 119.135c0 1.14.822 2.412 2.968 2.412 2.757 0 5.645-2.252 5.645-4.584 0-1.564-1.325-2.438-2.968-2.438-2.57 0-5.644 2.173-5.644 4.61m246.298-3.308c0 1.139.821 2.411 2.968 2.411 2.756 0 5.644-2.253 5.644-4.585 0-1.562-1.325-2.437-2.968-2.437-2.57 0-5.644 2.172-5.644 4.61M545.356 30.58c0 1.14.822 2.411 2.969 2.411 2.755 0 5.643-2.252 5.643-4.584 0-1.563-1.325-2.438-2.967-2.438-2.57 0-5.645 2.173-5.645 4.611m-340.46-3.31c0 1.14.821 2.412 2.968 2.412 2.755 0 5.644-2.253 5.644-4.584 0-1.564-1.325-2.438-2.968-2.438-2.57 0-5.644 2.173-5.644 4.61m-42.708 122.447c0 1.139.822 2.411 2.968 2.411 2.756 0 5.644-2.253 5.644-4.585 0-1.562-1.325-2.437-2.968-2.437-2.57 0-5.644 2.172-5.644 4.61M573.354 27.27c0 1.139.822 2.41 2.968 2.41 2.756 0 5.645-2.252 5.645-4.583 0-1.564-1.325-2.438-2.968-2.438-2.57 0-5.645 2.173-5.645 4.61M192.857 23.96c0 1.14.821 2.411 2.967 2.411 2.757 0 5.645-2.252 5.645-4.584 0-1.563-1.325-2.438-2.968-2.438-2.57 0-5.644 2.173-5.644 4.611m403.39 0c0 1.14.821 2.411 2.967 2.411 2.756 0 5.644-2.252 5.644-4.584 0-1.563-1.325-2.438-2.967-2.438-2.57 0-5.644 2.173-5.644 4.611M463.546 153.024c0 1.14.821 2.412 2.967 2.412 2.757 0 5.645-2.252 5.645-4.584 0-1.564-1.325-2.438-2.968-2.438-2.57 0-5.644 2.173-5.644 4.61m-350.13 1.167a.99.99 0 0 1-1.06-.954c0-1.299 4.452-3.577 5.697-3.577.636 0 1.06.37 1.06.953 0 1.325-4.478 3.578-5.697 3.578m3.657-5.777c-2.57 0-5.645 2.146-5.645 4.61 0 1.14.822 2.412 2.969 2.412 2.755 0 5.643-2.252 5.643-4.584 0-1.564-1.324-2.438-2.967-2.438M608.286 27.27c0 1.139.82 2.41 2.968 2.41 2.755 0 5.644-2.252 5.644-4.583 0-1.564-1.325-2.438-2.968-2.438-2.57 0-5.644 2.173-5.644 4.61M89.712 153.025c0 1.14.821 2.412 2.967 2.412 2.757 0 5.644-2.252 5.644-4.584 0-1.564-1.325-2.438-2.967-2.438-2.57 0-5.644 2.173-5.644 4.61M626.344 27.27c0 1.139.822 2.41 2.968 2.41 2.756 0 5.644-2.252 5.644-4.583 0-1.564-1.325-2.438-2.968-2.438-2.57 0-5.644 2.173-5.644 4.61M59.124 147.573a.99.99 0 0 1-1.06-.954c0-1.298 4.452-3.577 5.697-3.577.636 0 1.06.37 1.06.954 0 1.325-4.478 3.577-5.697 3.577m3.657-5.777c-2.571 0-5.644 2.146-5.644 4.611 0 1.14.821 2.412 2.967 2.412 2.756 0 5.644-2.253 5.644-4.584 0-1.564-1.325-2.439-2.967-2.439m415.243 14.539c0 1.14.821 2.411 2.967 2.411 2.757 0 5.645-2.252 5.645-4.584 0-1.563-1.325-2.438-2.969-2.438-2.57 0-5.643 2.173-5.643 4.61M169.965 27.27c0 1.139.821 2.41 2.968 2.41 2.755 0 5.643-2.252 5.643-4.583 0-1.564-1.324-2.438-2.967-2.438-2.57 0-5.644 2.173-5.644 4.61m329.776 138.993c0 1.14.821 2.411 2.968 2.411 2.755 0 5.643-2.251 5.643-4.583 0-1.564-1.325-2.438-2.967-2.438-2.57 0-5.644 2.173-5.644 4.61M649.237 23.96c0 1.14.821 2.411 2.967 2.411 2.756 0 5.644-2.252 5.644-4.584 0-1.563-1.325-2.438-2.967-2.438-2.571 0-5.644 2.173-5.644 4.611m12.038 3.31c0 1.139.822 2.41 2.968 2.41 2.756 0 5.644-2.252 5.644-4.583 0-1.564-1.325-2.438-2.968-2.438-2.57 0-5.644 2.173-5.644 4.61m0 59.569c0 1.14.822 2.41 2.968 2.41 2.756 0 5.644-2.251 5.644-4.583 0-1.564-1.325-2.438-2.968-2.438-2.57 0-5.644 2.173-5.644 4.61M151.906 27.27c0 1.139.822 2.41 2.968 2.41 2.756 0 5.644-2.252 5.644-4.583 0-1.564-1.325-2.438-2.968-2.438-2.57 0-5.644 2.173-5.644 4.61M649.4 83.53c0 1.14.821 2.411 2.968 2.411 2.756 0 5.644-2.253 5.644-4.585 0-1.563-1.325-2.437-2.968-2.437-2.57 0-5.644 2.172-5.644 4.61M139.868 23.96c0 1.14.821 2.411 2.967 2.411 2.756 0 5.644-2.252 5.644-4.584 0-1.563-1.325-2.438-2.968-2.438-2.57 0-5.643 2.173-5.643 4.611M59.124 88.004a.99.99 0 0 1-1.06-.954c0-1.299 4.452-3.577 5.697-3.577.636 0 1.06.37 1.06.953 0 1.325-4.478 3.578-5.697 3.578m3.657-5.777c-2.571 0-5.644 2.146-5.644 4.61 0 1.14.821 2.412 2.967 2.412 2.756 0 5.644-2.252 5.644-4.584 0-1.564-1.325-2.438-2.967-2.438m464.49 74.107c0 1.14.821 2.411 2.968 2.411 2.755 0 5.643-2.252 5.643-4.584 0-1.563-1.325-2.438-2.967-2.438-2.57 0-5.645 2.173-5.645 4.61M626.82 80.22c0 1.14.822 2.412 2.968 2.412 2.756 0 5.644-2.253 5.644-4.585 0-1.564-1.325-2.438-2.967-2.438-2.57 0-5.645 2.173-5.645 4.611M83.856 96.766c0 1.14.821 2.411 2.967 2.411 2.756 0 5.644-2.253 5.644-4.584 0-1.563-1.325-2.438-2.967-2.438-2.571 0-5.644 2.173-5.644 4.61m525.15-9.927c0 1.14.822 2.41 2.968 2.41 2.756 0 5.644-2.251 5.644-4.583 0-1.564-1.325-2.438-2.967-2.438-2.57 0-5.644 2.173-5.644 4.61m-505.351-2.143a.99.99 0 0 1-1.06-.954c0-1.298 4.452-3.577 5.697-3.577.636 0 1.06.371 1.06.954 0 1.325-4.478 3.577-5.697 3.577m3.657-5.776c-2.571 0-5.644 2.146-5.644 4.61 0 1.14.821 2.412 2.967 2.412 2.756 0 5.644-2.253 5.644-4.585 0-1.563-1.325-2.437-2.967-2.437m489.818 4.61c0 1.14.822 2.412 2.968 2.412 2.756 0 5.644-2.253 5.644-4.585 0-1.563-1.325-2.437-2.968-2.437-2.57 0-5.644 2.172-5.644 4.61M128.388 96.766c0 1.14.821 2.411 2.967 2.411 2.756 0 5.644-2.253 5.644-4.584 0-1.563-1.325-2.438-2.967-2.438-2.57 0-5.644 2.173-5.644 4.61m27.998-16.546c0 1.14.821 2.412 2.968 2.412 2.755 0 5.644-2.253 5.644-4.585 0-1.564-1.325-2.438-2.968-2.438-2.57 0-5.644 2.173-5.644 4.611m385.362 79.424c0 1.14.822 2.412 2.968 2.412 2.756 0 5.644-2.252 5.644-4.584 0-1.564-1.325-2.438-2.967-2.438-2.57 0-5.645 2.173-5.645 4.61M574.55 80.22c0 1.14.822 2.412 2.968 2.412 2.756 0 5.645-2.253 5.645-4.585 0-1.564-1.325-2.438-2.969-2.438-2.57 0-5.644 2.173-5.644 4.611M116.975 27.27c0 1.14.822 2.412 2.968 2.412 2.755 0 5.644-2.253 5.644-4.584 0-1.564-1.325-2.438-2.968-2.438-2.57 0-5.644 2.173-5.644 4.61m61.991 56.26c0 1.14.822 2.411 2.969 2.411 2.755 0 5.644-2.253 5.644-4.585 0-1.563-1.325-2.437-2.968-2.437-2.57 0-5.645 2.172-5.645 4.61m11.876 3.31c0 1.14.821 2.41 2.967 2.41 2.757 0 5.645-2.251 5.645-4.583 0-1.564-1.325-2.438-2.968-2.438-2.57 0-5.644 2.173-5.644 4.61M88.977 30.58c0 1.14.821 2.411 2.967 2.411 2.757 0 5.645-2.252 5.645-4.584 0-1.563-1.325-2.438-2.968-2.438-2.57 0-5.644 2.173-5.644 4.611m444.225 67.353a.99.99 0 0 1-1.06-.954c0-1.298 4.452-3.578 5.697-3.578.636 0 1.06.372 1.06.955 0 1.325-4.478 3.577-5.697 3.577m3.657-5.777c-2.57 0-5.645 2.147-5.645 4.61 0 1.14.822 2.412 2.968 2.412 2.756 0 5.645-2.253 5.645-4.584 0-1.563-1.325-2.438-2.968-2.438m-328.204 4.61c0 1.14.821 2.412 2.967 2.412 2.757 0 5.644-2.253 5.644-4.584 0-1.563-1.325-2.438-2.967-2.438-2.57 0-5.644 2.173-5.644 4.61m304.746 0c0 1.14.823 2.412 2.969 2.412 2.755 0 5.644-2.253 5.644-4.584 0-1.563-1.325-2.438-2.968-2.438-2.57 0-5.645 2.173-5.645 4.61m61.516 60.735a.99.99 0 0 1-1.06-.954c0-1.298 4.452-3.577 5.698-3.577.635 0 1.06.37 1.06.954 0 1.325-4.479 3.577-5.698 3.577m3.657-5.776c-2.57 0-5.644 2.146-5.644 4.61 0 1.14.821 2.411 2.968 2.411 2.755 0 5.644-2.252 5.644-4.584 0-1.563-1.325-2.437-2.968-2.437m-89.904-67.03a.99.99 0 0 1-1.06-.954c0-1.298 4.452-3.577 5.697-3.577.636 0 1.06.371 1.06.954 0 1.325-4.478 3.577-5.697 3.577m3.657-5.776c-2.57 0-5.645 2.146-5.645 4.61 0 1.14.822 2.412 2.968 2.412 2.756 0 5.645-2.253 5.645-4.585 0-1.563-1.325-2.437-2.968-2.437m-261.091 7.92c0 1.14.821 2.41 2.967 2.41 2.756 0 5.644-2.251 5.644-4.583 0-1.564-1.325-2.438-2.967-2.438-2.571 0-5.644 2.173-5.644 4.61m11.875 3.31c0 1.14.821 2.411 2.968 2.411 2.755 0 5.644-2.252 5.644-4.584 0-1.563-1.325-2.437-2.968-2.437-2.57 0-5.644 2.172-5.644 4.61m29.985-2.143a.99.99 0 0 1-1.06-.954c0-1.299 4.452-3.577 5.697-3.577.637 0 1.06.37 1.06.953 0 1.325-4.478 3.578-5.697 3.578m3.657-5.777c-2.57 0-5.644 2.146-5.644 4.61 0 1.14.82 2.412 2.968 2.412 2.755 0 5.644-2.252 5.644-4.584 0-1.564-1.325-2.438-2.968-2.438m181.931 4.61c0 1.14.822 2.412 2.968 2.412 2.756 0 5.644-2.252 5.644-4.584 0-1.564-1.325-2.438-2.967-2.438-2.57 0-5.645 2.173-5.645 4.61M71.779 33.89c0 1.139.821 2.41 2.967 2.41 2.756 0 5.644-2.252 5.644-4.584 0-1.563-1.325-2.438-2.967-2.438-2.571 0-5.644 2.173-5.644 4.612m375.03 49.64c0 1.14.822 2.411 2.968 2.411 2.756 0 5.644-2.253 5.644-4.585 0-1.563-1.325-2.437-2.968-2.437-2.57 0-5.644 2.172-5.644 4.61M317.63 111.17a.99.99 0 0 1-1.06-.954c0-1.298 4.451-3.577 5.696-3.577.637 0 1.06.37 1.06.954 0 1.325-4.478 3.577-5.697 3.577m3.657-5.776c-2.57 0-5.644 2.146-5.644 4.61 0 1.14.821 2.411 2.967 2.411 2.757 0 5.645-2.252 5.645-4.584 0-1.563-1.325-2.437-2.968-2.437m50.675-25.174c0 1.14.821 2.412 2.968 2.412 2.755 0 5.643-2.253 5.643-4.585 0-1.564-1.325-2.438-2.967-2.438-2.57 0-5.644 2.173-5.644 4.611m233.545 99.28c0 1.14.822 2.412 2.968 2.412 2.756 0 5.644-2.252 5.644-4.584 0-1.564-1.324-2.438-2.968-2.438-2.57 0-5.644 2.173-5.644 4.61M424.228 80.22c0 1.14.822 2.412 2.968 2.412 2.756 0 5.644-2.253 5.644-4.585 0-1.564-1.325-2.438-2.968-2.438-2.57 0-5.644 2.173-5.644 4.611m-126.4 29.784c0 1.14.822 2.411 2.968 2.411 2.756 0 5.644-2.252 5.644-4.584 0-1.563-1.325-2.437-2.968-2.437-2.57 0-5.644 2.172-5.644 4.61m108.587-23.165c0 1.14.822 2.41 2.968 2.41 2.756 0 5.645-2.251 5.645-4.583 0-1.564-1.325-2.438-2.969-2.438-2.57 0-5.644 2.173-5.644 4.61m-16.059 62.879c0 1.139.822 2.411 2.968 2.411 2.756 0 5.645-2.253 5.645-4.585 0-1.562-1.325-2.437-2.969-2.437-2.57 0-5.644 2.172-5.644 4.61m238.853 30.95a.99.99 0 0 1-1.06-.954c0-1.298 4.452-3.576 5.698-3.576.636 0 1.06.37 1.06.953 0 1.325-4.478 3.578-5.698 3.578m3.657-5.777c-2.57 0-5.644 2.146-5.644 4.61 0 1.14.822 2.412 2.968 2.412 2.756 0 5.644-2.252 5.644-4.584 0-1.564-1.325-2.438-2.968-2.438m-242.51-3.148c0 .186.16.345.345.345.133 0 .291-.106.318-.212 0-.026.238-.954.265-1.033.027-.106.265-1.113 1.219-2.677 1.033-1.722 2.623-2.967 3.948-4.822 1.299-1.855 2.093-3.604 2.093-5.936 0-2.411-.556-4.425-1.96-6.995-.08-.186-.239-.292-.398-.292-.053 0-.106 0-.132.027-.133.052-.186.158-.186.317 0 .08.027.213.08.318 1.06 2.465 1.484 3.87 1.484 5.777 0 2.2-.769 3.34-1.246 4.16-1.722 2.942-4.505 4.372-5.617 4.744-.186.079-.212.211-.212.291zm4.183-66.187c0 .186.16.345.345.345.132 0 .292-.106.318-.212 0-.026.239-.954.265-1.033.026-.107.265-1.113 1.218-2.677 1.034-1.722 2.624-2.968 3.949-4.823 1.298-1.855 2.093-3.603 2.093-5.935 0-2.411-.556-4.426-1.96-6.995-.08-.186-.239-.292-.398-.292-.053 0-.106 0-.132.027-.133.053-.186.158-.186.318 0 .079.026.212.08.317 1.06 2.464 1.483 3.87 1.483 5.777 0 2.2-.768 3.338-1.245 4.16-1.722 2.942-4.505 4.372-5.618 4.743-.185.08-.212.212-.212.292zm-26.483-61.222a.35.35 0 0 0 .344.344c.133 0 .292-.106.318-.212 0-.027.239-.954.265-1.034.027-.105.265-1.113 1.22-2.676 1.033-1.722 2.623-2.968 3.948-4.822 1.298-1.855 2.093-3.605 2.093-5.936 0-2.411-.556-4.425-1.961-6.995-.08-.186-.239-.292-.397-.292-.053 0-.107 0-.133.027-.132.053-.185.159-.185.318 0 .079.026.212.08.318 1.06 2.464 1.483 3.868 1.483 5.776 0 2.2-.768 3.339-1.245 4.16-1.723 2.941-4.505 4.373-5.618 4.743-.185.08-.212.213-.212.292zm78.753 61.222a.35.35 0 0 0 .344.345c.132 0 .291-.106.318-.212 0-.026.238-.954.265-1.033.026-.107.265-1.113 1.219-2.677 1.033-1.722 2.623-2.968 3.948-4.823 1.299-1.855 2.094-3.603 2.094-5.935 0-2.411-.558-4.425-1.962-6.995-.08-.186-.238-.292-.397-.292-.053 0-.106 0-.133.027-.132.053-.185.158-.185.318 0 .079.027.212.08.317 1.06 2.464 1.483 3.87 1.483 5.777 0 2.2-.769 3.338-1.245 4.16-1.723 2.942-4.505 4.372-5.618 4.743-.185.08-.212.212-.212.292zm-120.177 66.187a.35.35 0 0 0 .344.345c.133 0 .292-.106.318-.212 0-.026.239-.954.265-1.033.027-.106.265-1.113 1.22-2.677 1.033-1.722 2.623-2.967 3.948-4.822 1.298-1.855 2.093-3.604 2.093-5.936 0-2.411-.556-4.425-1.961-6.995-.08-.186-.239-.292-.397-.292-.053 0-.107 0-.133.027-.132.052-.185.158-.185.317 0 .08.026.213.08.318 1.06 2.465 1.483 3.87 1.483 5.777 0 2.2-.768 3.34-1.245 4.16-1.723 2.942-4.505 4.372-5.618 4.744-.185.079-.212.211-.212.291zm94.414-127.41c0 .186.16.345.345.345.132 0 .292-.106.318-.212 0-.027.239-.954.265-1.034.027-.105.265-1.113 1.219-2.676 1.033-1.722 2.623-2.968 3.948-4.822 1.298-1.855 2.093-3.605 2.093-5.936 0-2.411-.556-4.425-1.96-6.995-.08-.186-.239-.292-.398-.292-.053 0-.106 0-.132.027-.133.053-.186.159-.186.318 0 .079.026.212.08.318 1.06 2.464 1.484 3.868 1.484 5.776 0 2.2-.769 3.339-1.246 4.16-1.722 2.941-4.505 4.373-5.618 4.743-.185.08-.212.213-.212.292zm42.5 130.719c0 .185.16.344.344.344.133 0 .292-.106.319-.211 0-.027.238-.955.265-1.034.026-.106.265-1.113 1.218-2.676 1.034-1.723 2.623-2.969 3.948-4.823 1.299-1.855 2.094-3.604 2.094-5.936 0-2.411-.557-4.425-1.96-6.995-.08-.186-.24-.291-.399-.291-.052 0-.105 0-.132.026-.133.053-.185.159-.185.318 0 .08.026.212.079.318 1.06 2.464 1.484 3.869 1.484 5.776 0 2.2-.768 3.339-1.246 4.16-1.722 2.942-4.504 4.373-5.617 4.743-.186.08-.212.212-.212.293zm-210.103 0a.35.35 0 0 0 .344.344c.132 0 .292-.106.318-.211 0-.027.239-.955.265-1.034.026-.106.265-1.113 1.22-2.676 1.033-1.723 2.623-2.969 3.948-4.824 1.297-1.854 2.092-3.603 2.092-5.935 0-2.411-.556-4.425-1.96-6.995-.08-.186-.239-.291-.397-.291-.054 0-.107 0-.133.026-.132.053-.186.159-.186.318 0 .08.026.212.08.318 1.06 2.464 1.483 3.869 1.483 5.776 0 2.2-.768 3.339-1.244 4.16-1.723 2.942-4.505 4.373-5.619 4.743-.185.08-.211.212-.211.293zm-63.725 0c0 .185.16.344.345.344.132 0 .291-.106.318-.211 0-.027.238-.955.265-1.034.026-.106.265-1.113 1.218-2.676 1.034-1.723 2.623-2.969 3.948-4.824 1.299-1.854 2.094-3.603 2.094-5.935 0-2.411-.557-4.425-1.96-6.995-.08-.186-.24-.291-.399-.291-.052 0-.105 0-.132.026-.133.053-.185.159-.185.318 0 .08.026.212.079.318 1.06 2.464 1.484 3.869 1.484 5.776 0 2.2-.768 3.339-1.246 4.16-1.722 2.942-4.504 4.373-5.617 4.743-.186.08-.212.212-.212.293zM596.247 44.33a.35.35 0 0 0 .344.345c.133 0 .291-.106.318-.212 0-.027.238-.954.265-1.034.026-.105.265-1.113 1.22-2.676 1.033-1.722 2.623-2.968 3.947-4.822 1.299-1.855 2.094-3.605 2.094-5.936 0-2.411-.557-4.425-1.961-6.995-.08-.186-.239-.292-.398-.292-.052 0-.106 0-.132.027-.133.053-.185.159-.185.318 0 .079.026.212.079.318 1.06 2.464 1.484 3.868 1.484 5.776 0 2.2-.768 3.339-1.246 4.16-1.722 2.941-4.504 4.373-5.617 4.743-.186.08-.212.213-.212.292zm-403.39 0c0 .185.159.344.345.344.132 0 .291-.106.318-.212 0-.027.238-.954.265-1.034.026-.105.265-1.113 1.218-2.676 1.033-1.722 2.623-2.968 3.948-4.822 1.299-1.855 2.094-3.605 2.094-5.936 0-2.411-.557-4.425-1.96-6.995-.08-.186-.24-.292-.399-.292-.053 0-.105 0-.132.027-.133.053-.186.159-.186.318 0 .079.027.212.08.318 1.06 2.464 1.484 3.868 1.484 5.776 0 2.2-.769 3.339-1.246 4.16-1.722 2.941-4.504 4.373-5.617 4.743-.186.08-.212.213-.212.292zm456.38 0a.35.35 0 0 0 .344.344c.132 0 .291-.106.318-.212 0-.027.238-.954.265-1.034.026-.105.265-1.113 1.22-2.676 1.033-1.722 2.622-2.968 3.947-4.822 1.298-1.855 2.093-3.605 2.093-5.936 0-2.411-.556-4.425-1.96-6.995-.08-.186-.24-.292-.398-.292-.053 0-.106 0-.133.027-.132.053-.185.159-.185.318 0 .079.026.212.08.318 1.06 2.464 1.483 3.868 1.483 5.776 0 2.2-.768 3.339-1.245 4.16-1.722 2.941-4.504 4.373-5.618 4.743-.185.08-.211.213-.211.292zM527.27 178.36c0 .186.16.344.345.344.132 0 .292-.105.318-.211 0-.027.239-.954.265-1.033.026-.107.265-1.114 1.22-2.677 1.032-1.723 2.622-2.968 3.947-4.823 1.298-1.855 2.093-3.603 2.093-5.935 0-2.412-.556-4.426-1.96-6.995-.08-.186-.239-.293-.398-.293-.053 0-.106 0-.132.028-.133.052-.186.158-.186.317 0 .08.026.212.08.318 1.06 2.464 1.483 3.87 1.483 5.777 0 2.199-.768 3.338-1.245 4.16-1.722 2.942-4.505 4.372-5.618 4.743-.185.08-.212.212-.212.291zm122.13-72.807c0 .186.16.345.344.345.133 0 .292-.106.319-.212 0-.026.238-.954.265-1.033.026-.107.265-1.113 1.218-2.677 1.034-1.722 2.624-2.968 3.949-4.823 1.298-1.855 2.093-3.603 2.093-5.935 0-2.411-.556-4.426-1.96-6.995-.08-.186-.24-.292-.398-.292-.053 0-.106 0-.132.027-.133.053-.186.158-.186.318 0 .079.026.212.08.317 1.06 2.464 1.483 3.87 1.483 5.777 0 2.2-.768 3.338-1.245 4.16-1.722 2.942-4.505 4.372-5.618 4.743-.185.08-.212.212-.212.292zm-52.268 0a.35.35 0 0 0 .344.345c.133 0 .291-.106.318-.212 0-.026.238-.954.265-1.033.026-.107.265-1.113 1.219-2.677 1.033-1.722 2.623-2.968 3.948-4.823 1.299-1.855 2.094-3.603 2.094-5.935 0-2.411-.557-4.426-1.962-6.995-.08-.186-.238-.292-.397-.292-.053 0-.106 0-.133.027-.132.053-.185.158-.185.318 0 .079.027.212.08.317 1.06 2.464 1.483 3.87 1.483 5.777 0 2.2-.768 3.338-1.245 4.16-1.723 2.942-4.504 4.372-5.617 4.743-.186.08-.212.212-.212.292zm-418.166 0c0 .186.16.345.346.345.132 0 .29-.106.317-.212 0-.026.239-.954.265-1.033.027-.107.265-1.113 1.219-2.677 1.033-1.722 2.623-2.968 3.948-4.823 1.299-1.855 2.093-3.603 2.093-5.935 0-2.411-.556-4.426-1.96-6.995-.08-.186-.239-.292-.398-.292-.053 0-.106 0-.132.027-.133.053-.186.158-.186.318 0 .079.027.212.08.317 1.06 2.464 1.484 3.87 1.484 5.777 0 2.2-.769 3.338-1.246 4.16-1.722 2.942-4.505 4.372-5.617 4.743-.186.08-.212.212-.212.292zm-39.1-61.222a.35.35 0 0 0 .345.344c.132 0 .291-.106.318-.212 0-.027.238-.954.265-1.034.026-.105.265-1.113 1.219-2.676 1.033-1.722 2.623-2.968 3.948-4.822 1.298-1.855 2.093-3.605 2.093-5.936 0-2.411-.557-4.425-1.96-6.995-.08-.186-.24-.292-.398-.292-.053 0-.106 0-.133.027-.132.053-.185.159-.185.318 0 .079.026.212.08.318 1.06 2.464 1.483 3.868 1.483 5.776 0 2.2-.769 3.339-1.245 4.16-1.723 2.941-4.505 4.373-5.618 4.743-.185.08-.211.213-.211.292zm91.368 64.532a.35.35 0 0 0 .344.344c.132 0 .291-.106.318-.211 0-.028.238-.955.265-1.034.026-.106.265-1.113 1.219-2.676 1.033-1.723 2.623-2.968 3.948-4.823 1.299-1.855 2.094-3.604 2.094-5.936 0-2.41-.558-4.425-1.962-6.995-.079-.186-.238-.292-.397-.292-.053 0-.106 0-.133.027-.132.053-.185.159-.185.318 0 .08.027.212.08.318 1.06 2.464 1.483 3.869 1.483 5.777 0 2.199-.768 3.338-1.245 4.16-1.723 2.941-4.504 4.372-5.618 4.742-.185.08-.211.213-.211.292zm173.598 44.16v22.053h.662v-22.053ZM231.235 86.837v22.027h.662V86.837Zm11.876 3.31v20.398h.662V90.146Zm278.233-16.005v20.452h.662V74.142Zm17.813 0v20.452h.662V74.142Zm-322.56 0v20.452h.662V74.142Zm325.151 85.5v20.4h.662v-20.4ZM190.842 86.838v22.053h.662V86.837Zm-50.975-62.878v20.373h.662V23.959zm39.1 59.568v22.027h.662V83.527Zm-54.05-78.881v20.452h.663V4.646ZM574.55 80.218v22.053h.662V80.218ZM96.92 9.64v18.767h.662V9.64Zm59.466 70.578v22.053h.662V80.218Zm370.885 76.115v22.027h.662v-22.027ZM159.849 4.646v20.452h.662V4.646ZM597.13 83.527v22.027h.662V83.527Zm-460.8-9.385v20.452h.661V74.142Zm472.675 12.695v22.053h.662V86.837Zm-507.338-3.31v22.054h.662V83.527Zm525.151-3.31v22.054h.662V80.218ZM91.8 74.143v20.452h.661V74.142Zm179.31 12.695v22.053h.662V86.837Zm-213.973 0v22.053h.662V86.837Zm592.264-3.31v22.027h.662V83.527Zm11.875 3.31v22.053h.662V86.837Zm-88.345 69.496v22.053h.662v-22.053ZM177.907 4.646v20.452h.662V4.646Zm329.776 138.993v20.451h.662V143.64ZM669.218 4.646v20.452h.662V4.646ZM478.024 156.333v22.053h.662v-22.053ZM649.236 23.96v20.373h.662V23.959Zm-35.788 131.262v22.106h.662v-22.106Zm-556.312-8.816v22.054h.662v-22.054Zm32.575 6.619v22.053h.662v-22.053ZM634.287 4.646v20.452h.662V4.646ZM111.429 153.024v22.053h.662v-22.053Zm504.8-148.378v20.452h.661V4.646ZM79.72 11.234v20.483h.663V11.234Zm516.526 12.725v20.373h.662V23.959ZM458.684 86.837v22.053h.662V86.837ZM192.857 23.959v20.373h.662V23.959Zm-30.669 125.755v22.054h.662v-22.054ZM581.297 4.646v20.452h.662V4.646Zm-117.75 148.378v22.027h.661v-22.027ZM212.836 4.646v20.452h.663V4.646ZM446.81 83.527v22.027h.662V83.527ZM553.3 9.653v18.754h.662V9.653Zm-363.58 143.37v22.028h.661v-22.027zm216.697-66.186v22.053h.662V86.837ZM541.26 11.22v20.496h.662V11.22ZM225.912 149.714v22.054h.662v-22.054ZM514.172 4.646v20.452h.662V4.646ZM635.164 155.22v22.106h.662v-22.106ZM496.114 4.646v20.452h.662V4.646ZM253.443 153.024v22.027h.662v-22.027ZM461.083 14.03v22.054h.663V14.03Zm-137.5 71.694v22.106h.662V85.725ZM232.894 17.34v22.054h.662V17.34Zm35.026 138.993v22.053h.662v-22.053ZM441.027 4.646v20.452h.663V4.646Zm-5.01 145.068v22.054h.661v-22.054ZM421.046 23.96v20.373h.662V23.959ZM305.77 85.725v22.106h.662V85.725Zm-37.846-81.08v20.453h.662V4.646Zm31.178 141.76v22.054h.662v-22.054ZM406.096 4.645v20.453h.662V4.646ZM371.96 80.219v22.053h.662V80.218Zm16.08-75.572v20.452h.662V4.646Zm-61.407 145.068v22.027h.662v-22.027ZM368.057 23.96v20.373h.662V23.959zm56.171 56.259v22.053h.662V80.218Zm-83.118 72.806v22.053h.662v-22.053zm21.717-6.619v22.054h.662v-22.054Zm-9.72-141.76v20.453h.663V4.646Zm-67.125 0v20.453h.662V4.646Zm27.088 6.576v20.496h.662V11.22Zm81.47 72.306v22.027h.663V83.527ZM325.11 9.653v18.754h.662V9.653Zm65.247 140.061v22.027h.662v-22.027zm96.327-66.187v22.054h.662V83.527Zm-282.487 72.806v22.053h.662v-22.053zm85.441-8.094v27.202h1.191V148.24ZM451.62 9.246v27.203h1.191V9.246Zm-228.19 0v27.203h1.192V9.246Zm340.461 0v27.203h1.192V9.246ZM152.724 148.239v27.202h1.19V148.24Zm527.085-69.497v27.203H681V78.742ZM363.688 95.653c0-.768-.61-1.405-1.378-1.405s-1.378.637-1.378 1.405c0 .769.61 1.404 1.378 1.404.769 0 1.378-.635 1.378-1.404m0-6.619c0-.768-.61-1.404-1.378-1.404s-1.378.636-1.378 1.404c0 .769.61 1.404 1.378 1.404.769 0 1.378-.635 1.378-1.404m-6.396-10.292v27.203h1.192V78.742Zm-6.09 0v27.203h3.64V78.742ZM679.81 9.246v27.203H681V9.246ZM146.92 78.742v27.203h1.192V78.742Zm418.165 0v27.203h1.19V78.742Zm-1.62 69.497v27.202h1.19V148.24ZM261.644 78.742v27.203h1.19V78.742ZM107.51 9.246v27.203h1.192V9.246Zm369.708 69.496v27.203h1.191V78.742ZM677.36 148.24v27.202H681V148.24zm-3.64 0v27.202h1.191V148.24zm-2.447 16.91c0-.768-.61-1.404-1.378-1.404-.769 0-1.378.636-1.378 1.404 0 .769.61 1.405 1.378 1.405s1.378-.636 1.378-1.405m0-6.618c0-.769-.61-1.405-1.378-1.405-.769 0-1.378.636-1.378 1.405 0 .768.61 1.404 1.378 1.404s1.378-.636 1.378-1.404m-320.07-79.789v27.203h3.64V78.742Zm-3.64 0v27.203h1.19V78.742Zm-2.447 16.911c0-.768-.61-1.405-1.378-1.405s-1.378.637-1.378 1.405c0 .769.61 1.404 1.378 1.404.769 0 1.378-.635 1.378-1.404m0-6.619c0-.768-.61-1.404-1.378-1.404s-1.378.636-1.378 1.404c0 .769.61 1.404 1.378 1.404.769 0 1.378-.635 1.378-1.404m81.436 59.205v27.202h1.19V148.24ZM335.7 9.246v27.203h1.191V9.246ZM0 174.713v.728h681v-.728zm0-6.618v.728h681v-.728zm0-6.619v.728h681v-.728zm0-6.619v.728h681v-.728zm0-6.619v.728h681v-.728zm0-43.021v.728h681v-.728zm0-6.618v.727h681V98.6zm0-6.62v.729h681v-.728zm0-6.618v.728h681v-.728zm0-6.619v.728h681v-.728Zm0-43.021v.727h681v-.727zm0-6.619v.728h681v-.728zm0-6.619v.728h681v-.728zm0-6.618v.727h681v-.727Zm0-6.619v.728h681v-.728Z"/>
</svg>
