<?xml version="1.0" encoding="UTF-8" standalone="no"?>
<svg width="210.058mm" height="296.926mm" viewBox="0 0 9924 14028"
 xmlns="http://www.w3.org/2000/svg" xmlns:xlink="http://www.w3.org/1999/xlink" version="1.2" baseProfile="full">
<title>air_XXIII</title>
<desc>Generated by MuseScore Studio 4.7.3</desc>
<polyline class="StaffLines" fill="none" stroke="#000000" stroke-width="9.09" stroke-linejoin="bevel" points="708.661,828.424 9215.34,828.424" />
<polyline class="StaffLines" fill="none" stroke="#000000" stroke-width="9.09" stroke-linejoin="bevel" points="708.661,911.101 9215.34,911.101" />
<polyline class="StaffLines" fill="none" stroke="#000000" stroke-width="9.09" stroke-linejoin="bevel" points="708.661,993.778 9215.34,993.778" />
<polyline class="StaffLines" fill="none" stroke="#000000" stroke-width="9.09" stroke-linejoin="bevel" points="708.661,1076.46 9215.34,1076.46" />
<polyline class="StaffLines" fill="none" stroke="#000000" stroke-width="9.09" stroke-linejoin="bevel" points="708.661,1159.13 9215.34,1159.13" />
<polyline class="StaffLines" fill="none" stroke="#000000" stroke-width="9.09" stroke-linejoin="bevel" points="708.661,1696.53 9215.34,1696.53" />
<polyline class="StaffLines" fill="none" stroke="#000000" stroke-width="9.09" stroke-linejoin="bevel" points="708.661,1779.21 9215.34,1779.21" />
<polyline class="StaffLines" fill="none" stroke="#000000" stroke-width="9.09" stroke-linejoin="bevel" points="708.661,1861.89 9215.34,1861.89" />
<polyline class="StaffLines" fill="none" stroke="#000000" stroke-width="9.09" stroke-linejoin="bevel" points="708.661,1944.57 9215.34,1944.57" />
<polyline class="StaffLines" fill="none" stroke="#000000" stroke-width="9.09" stroke-linejoin="bevel" points="708.661,2027.24 9215.34,2027.24" />
<polyline class="StaffLines" fill="none" stroke="#000000" stroke-width="9.09" stroke-linejoin="bevel" points="708.661,2564.64 9215.34,2564.64" />
<polyline class="StaffLines" fill="none" stroke="#000000" stroke-width="9.09" stroke-linejoin="bevel" points="708.661,2647.32 9215.34,2647.32" />
<polyline class="StaffLines" fill="none" stroke="#000000" stroke-width="9.09" stroke-linejoin="bevel" points="708.661,2730 9215.34,2730" />
<polyline class="StaffLines" fill="none" stroke="#000000" stroke-width="9.09" stroke-linejoin="bevel" points="708.661,2812.68 9215.34,2812.68" />
<polyline class="StaffLines" fill="none" stroke="#000000" stroke-width="9.09" stroke-linejoin="bevel" points="708.661,2895.35 9215.34,2895.35" />
<polyline class="BarLine" fill="none" stroke="#000000" stroke-width="14.88" stroke-linejoin="bevel" points="6594.33,2560.1 6594.33,2899.9" />
<polyline class="BarLine" fill="none" stroke="#000000" stroke-width="14.88" stroke-linejoin="bevel" points="6368.16,1691.99 6368.16,2031.79" />
<polyline class="BarLine" fill="none" stroke="#000000" stroke-width="14.88" stroke-linejoin="bevel" points="6360.03,823.876 6360.03,1163.68" />
<polyline class="BarLine" fill="none" stroke="#000000" stroke-width="14.88" stroke-linejoin="bevel" points="5012.49,1691.99 5012.49,2031.79" />
<polyline class="BarLine" fill="none" stroke="#000000" stroke-width="14.88" stroke-linejoin="bevel" points="4913.48,823.876 4913.48,1163.68" />
<polyline class="BarLine" fill="none" stroke="#000000" stroke-width="14.88" stroke-linejoin="bevel" points="9131.84,2560.1 9131.84,2899.9" />
<polyline class="BarLine" fill="none" stroke="#000000" stroke-width="45.47" stroke-linejoin="bevel" points="9192.6,2560.1 9192.6,2899.9" />
<polyline class="BarLine" fill="none" stroke="#000000" stroke-width="14.88" stroke-linejoin="bevel" points="2807.86,2560.1 2807.86,2899.9" />
<polyline class="BarLine" fill="none" stroke="#000000" stroke-width="14.88" stroke-linejoin="bevel" points="8203.56,2560.1 8203.56,2899.9" />
<polyline class="BarLine" fill="none" stroke="#000000" stroke-width="14.88" stroke-linejoin="bevel" points="3868.26,1691.99 3868.26,2031.79" />
<polyline class="BarLine" fill="none" stroke="#000000" stroke-width="14.88" stroke-linejoin="bevel" points="2065.61,823.876 2065.61,1163.68" />
<polyline class="BarLine" fill="none" stroke="#000000" stroke-width="14.88" stroke-linejoin="bevel" points="9207.9,1691.99 9207.9,2031.79" />
<polyline class="BarLine" fill="none" stroke="#000000" stroke-width="14.88" stroke-linejoin="bevel" points="7761.35,823.876 7761.35,1163.68" />
<polyline class="BarLine" fill="none" stroke="#000000" stroke-width="14.88" stroke-linejoin="bevel" points="9207.9,823.876 9207.9,1163.68" />
<polyline class="BarLine" fill="none" stroke="#000000" stroke-width="14.88" stroke-linejoin="bevel" points="2512.58,1691.99 2512.58,2031.79" />
<polyline class="BarLine" fill="none" stroke="#000000" stroke-width="14.88" stroke-linejoin="bevel" points="4630.1,2560.1 4630.1,2899.9" />
<polyline class="BarLine" fill="none" stroke="#000000" stroke-width="14.88" stroke-linejoin="bevel" points="7852.23,1691.99 7852.23,2031.79" />
<polyline class="BarLine" fill="none" stroke="#000000" stroke-width="14.88" stroke-linejoin="bevel" points="3512.16,823.876 3512.16,1163.68" />
<path class="Accidental" d="M7481.57,2788.18 L7511.03,2782.22 L7511.03,2836.84 L7481.57,2843.13 L7481.57,2788.18 M7532.87,2777.92 C7534.86,2777.59 7536.51,2775.27 7536.51,2773.29 L7536.51,2753.76 C7536.51,2751.11 7534.53,2749.12 7531.88,2749.12 L7531.22,2749.12 L7520.29,2751.44 L7520.29,2702.12 L7511.03,2702.12 L7511.03,2753.43 L7481.57,2759.38 L7481.57,2712.71 L7472.3,2712.71 L7472.3,2761.37 L7459.39,2764.02 C7457.4,2764.35 7455.75,2766.67 7455.75,2768.65 L7455.75,2787.85 C7455.75,2790.5 7457.74,2792.48 7460.38,2792.48 L7461.38,2792.48 L7472.3,2790.17 L7472.3,2844.78 L7459.39,2847.43 C7457.4,2847.76 7455.75,2850.08 7455.75,2852.06 L7455.75,2871.26 C7455.75,2873.91 7457.74,2875.9 7460.38,2875.9 L7461.38,2875.9 L7472.3,2873.58 L7472.3,2922.9 L7481.57,2922.9 L7481.57,2871.59 L7511.03,2865.64 L7511.03,2912.31 L7520.29,2912.31 L7520.29,2863.65 L7532.87,2861.33 C7534.86,2861 7536.51,2858.68 7536.51,2856.7 L7536.51,2837.17 C7536.51,2834.52 7534.53,2832.54 7531.88,2832.54 L7531.22,2832.54 L7520.29,2834.85 L7520.29,2780.24 L7532.87,2777.92 "/>
<polyline class="LedgerLine" fill="none" stroke="#000000" stroke-width="13.23" stroke-linejoin="bevel" points="8554.45,2109.92 8716.51,2109.92" />
<polyline class="Stem" fill="none" stroke="#000000" stroke-width="8.27" stroke-linejoin="bevel" points="5845.35,2055.35 5845.35,1779.21" />
<polyline class="Stem" fill="none" stroke="#000000" stroke-width="8.27" stroke-linejoin="bevel" points="6154.71,2014.01 6154.71,1737.87" />
<polyline class="Stem" fill="none" stroke="#000000" stroke-width="8.27" stroke-linejoin="bevel" points="6123.86,1021.89 6123.86,766.416" />
<polyline class="Stem" fill="none" stroke="#000000" stroke-width="8.27" stroke-linejoin="bevel" points="5791.78,1063.23 5791.78,787.085" />
<polyline class="Stem" fill="none" stroke="#000000" stroke-width="8.27" stroke-linejoin="bevel" points="5459.7,1021.89 5459.7,766.416" />
<polyline class="Stem" fill="none" stroke="#000000" stroke-width="8.27" stroke-linejoin="bevel" points="2619.77,2799.45 2619.77,2564.94" />
<polyline class="Stem" fill="none" stroke="#000000" stroke-width="8.27" stroke-linejoin="bevel" points="6474.95,1007.67 6474.95,1241.81" />
<polyline class="Stem" fill="none" stroke="#000000" stroke-width="8.27" stroke-linejoin="bevel" points="1525.72,2882.12 1525.72,2605.98" />
<polyline class="Stem" fill="none" stroke="#000000" stroke-width="8.27" stroke-linejoin="bevel" points="6973.07,1007.67 6973.07,1241.81" />
<polyline class="Stem" fill="none" stroke="#000000" stroke-width="8.27" stroke-linejoin="bevel" points="6709.25,2743.89 6709.25,2978.03" />
<polyline class="Stem" fill="none" stroke="#000000" stroke-width="8.27" stroke-linejoin="bevel" points="7305.15,966.329 7305.15,1179.43" />
<polyline class="Stem" fill="none" stroke="#000000" stroke-width="8.27" stroke-linejoin="bevel" points="5028.4,1007.67 5028.4,1241.81" />
<polyline class="Stem" fill="none" stroke="#000000" stroke-width="8.27" stroke-linejoin="bevel" points="4777.88,1021.89 4777.88,808.126" />
<polyline class="Stem" fill="none" stroke="#000000" stroke-width="8.27" stroke-linejoin="bevel" points="7526.54,924.991 7526.54,1159.5" />
<polyline class="Stem" fill="none" stroke="#000000" stroke-width="8.27" stroke-linejoin="bevel" points="4556.49,1063.23 4556.49,828.052" />
<polyline class="Stem" fill="none" stroke="#000000" stroke-width="8.27" stroke-linejoin="bevel" points="3022,2840.79 3022,2564.64" />
<polyline class="Stem" fill="none" stroke="#000000" stroke-width="8.27" stroke-linejoin="bevel" points="4224.41,1021.89 4224.41,766.416" />
<polyline class="Stem" fill="none" stroke="#000000" stroke-width="8.27" stroke-linejoin="bevel" points="7876.27,966.329 7876.27,1221.14" />
<polyline class="Stem" fill="none" stroke="#000000" stroke-width="8.27" stroke-linejoin="bevel" points="8994.44,2055.35 8994.44,1779.21" />
<polyline class="Stem" fill="none" stroke="#000000" stroke-width="8.27" stroke-linejoin="bevel" points="8307.57,1021.89 8307.57,766.416" />
<polyline class="Stem" fill="none" stroke="#000000" stroke-width="8.27" stroke-linejoin="bevel" points="3448,2923.46 3448,2647.32" />
<polyline class="Stem" fill="none" stroke="#000000" stroke-width="8.27" stroke-linejoin="bevel" points="8639.65,1021.89 8639.65,766.416" />
<polyline class="Stem" fill="none" stroke="#000000" stroke-width="8.27" stroke-linejoin="bevel" points="8685.08,2096.69 8685.08,1820.55" />
<polyline class="Stem" fill="none" stroke="#000000" stroke-width="8.27" stroke-linejoin="bevel" points="8971.73,1021.89 8971.73,766.416" />
<polyline class="Stem" fill="none" stroke="#000000" stroke-width="8.27" stroke-linejoin="bevel" points="8375.72,2055.35 8375.72,1779.21" />
<polyline class="Stem" fill="none" stroke="#000000" stroke-width="8.27" stroke-linejoin="bevel" points="3726.29,1021.89 3726.29,766.416" />
<polyline class="Stem" fill="none" stroke="#000000" stroke-width="8.27" stroke-linejoin="bevel" points="3874,2923.46 3874,2647.32" />
<polyline class="Stem" fill="none" stroke="#000000" stroke-width="8.27" stroke-linejoin="bevel" points="3275.99,1021.89 3275.99,766.416" />
<polyline class="Stem" fill="none" stroke="#000000" stroke-width="8.27" stroke-linejoin="bevel" points="8066.36,2014.01 8066.36,1737.87" />
<polyline class="Stem" fill="none" stroke="#000000" stroke-width="8.27" stroke-linejoin="bevel" points="1525.72,1890 1525.72,1634.53" />
<polyline class="Stem" fill="none" stroke="#000000" stroke-width="8.27" stroke-linejoin="bevel" points="4300,2882.12 4300,2605.98" />
<polyline class="Stem" fill="none" stroke="#000000" stroke-width="8.27" stroke-linejoin="bevel" points="1989.77,1890 1989.77,1634.53" />
<polyline class="Stem" fill="none" stroke="#000000" stroke-width="8.27" stroke-linejoin="bevel" points="2943.91,1021.89 2943.91,766.416" />
<polyline class="Stem" fill="none" stroke="#000000" stroke-width="8.27" stroke-linejoin="bevel" points="2299.13,1890 2299.13,1634.53" />
<polyline class="Stem" fill="none" stroke="#000000" stroke-width="8.27" stroke-linejoin="bevel" points="7716.62,1972.68 7716.62,1716.8" />
<polyline class="Stem" fill="none" stroke="#000000" stroke-width="8.27" stroke-linejoin="bevel" points="2611.83,1021.89 2611.83,766.416" />
<polyline class="Stem" fill="none" stroke="#000000" stroke-width="8.27" stroke-linejoin="bevel" points="2279.75,1021.89 2279.75,766.416" />
<polyline class="Stem" fill="none" stroke="#000000" stroke-width="8.27" stroke-linejoin="bevel" points="2726.72,1931.34 2726.72,1655.2" />
<polyline class="Stem" fill="none" stroke="#000000" stroke-width="8.27" stroke-linejoin="bevel" points="7234.47,2758.11 7234.47,2502.64" />
<polyline class="Stem" fill="none" stroke="#000000" stroke-width="8.27" stroke-linejoin="bevel" points="3036.08,2014.01 3036.08,1737.87" />
<polyline class="Stem" fill="none" stroke="#000000" stroke-width="8.27" stroke-linejoin="bevel" points="7510.38,1931.34 7510.38,1696.93" />
<polyline class="Stem" fill="none" stroke="#000000" stroke-width="8.27" stroke-linejoin="bevel" points="3345.44,2014.01 3345.44,1737.87" />
<polyline class="Stem" fill="none" stroke="#000000" stroke-width="8.27" stroke-linejoin="bevel" points="3654.8,1972.68 3654.8,1696.53" />
<polyline class="Stem" fill="none" stroke="#000000" stroke-width="8.27" stroke-linejoin="bevel" points="6406.24,2840.79 6406.24,2585.02" />
<polyline class="Stem" fill="none" stroke="#000000" stroke-width="8.27" stroke-linejoin="bevel" points="7201.02,1890 7201.02,1634.53" />
<polyline class="Stem" fill="none" stroke="#000000" stroke-width="8.27" stroke-linejoin="bevel" points="4844.23,2840.79 4844.23,2564.64" />
<polyline class="Stem" fill="none" stroke="#000000" stroke-width="8.27" stroke-linejoin="bevel" points="1930.01,1063.23 1930.01,828.796" />
<polyline class="Stem" fill="none" stroke="#000000" stroke-width="8.27" stroke-linejoin="bevel" points="4082.39,1931.34 4082.39,1655.2" />
<polyline class="Stem" fill="none" stroke="#000000" stroke-width="8.27" stroke-linejoin="bevel" points="6891.66,1931.34 6891.66,1655.2" />
<polyline class="Stem" fill="none" stroke="#000000" stroke-width="8.27" stroke-linejoin="bevel" points="7660.47,2799.45 7660.47,2523.31" />
<polyline class="Stem" fill="none" stroke="#000000" stroke-width="8.27" stroke-linejoin="bevel" points="8417.7,2758.11 8417.7,2502.64" />
<polyline class="Stem" fill="none" stroke="#000000" stroke-width="8.27" stroke-linejoin="bevel" points="5270.23,2799.45 5270.23,2523.31" />
<polyline class="Stem" fill="none" stroke="#000000" stroke-width="8.27" stroke-linejoin="bevel" points="6582.3,1972.68 6582.3,1696.53" />
<polyline class="Stem" fill="none" stroke="#000000" stroke-width="8.27" stroke-linejoin="bevel" points="4876.89,1931.34 4876.89,1696.14" />
<polyline class="Stem" fill="none" stroke="#000000" stroke-width="8.27" stroke-linejoin="bevel" points="1708.62,1104.57 1708.62,848.721" />
<polyline class="Stem" fill="none" stroke="#000000" stroke-width="8.27" stroke-linejoin="bevel" points="5696.23,2758.11 5696.23,2502.64" />
<polyline class="Stem" fill="none" stroke="#000000" stroke-width="8.27" stroke-linejoin="bevel" points="6122.24,2799.45 6122.24,2564.94" />
<polyline class="Stem" fill="none" stroke="#000000" stroke-width="8.27" stroke-linejoin="bevel" points="5226.62,1972.68 5226.62,1696.53" />
<polyline class="Stem" fill="none" stroke="#000000" stroke-width="8.27" stroke-linejoin="bevel" points="4670.64,1890 4670.64,1676.26" />
<polyline class="Stem" fill="none" stroke="#000000" stroke-width="8.27" stroke-linejoin="bevel" points="5535.98,2055.35 5535.98,1779.21" />
<polyline class="Stem" fill="none" stroke="#000000" stroke-width="8.27" stroke-linejoin="bevel" points="2335.77,2840.79 2335.77,2585.02" />
<path class="Note" d="M3242.09,2041.14 C3242.09,2055.38 3252.35,2071.27 3279.17,2071.27 C3313.59,2071.27 3349.67,2043.13 3349.67,2014 C3349.67,1994.47 3333.12,1983.55 3312.6,1983.55 C3280.49,1983.55 3242.09,2010.69 3242.09,2041.14"/>
<path class="Note" d="M6302.89,2867.92 C6302.89,2882.15 6313.15,2898.04 6339.96,2898.04 C6374.39,2898.04 6410.46,2869.9 6410.46,2840.77 C6410.46,2821.25 6393.91,2810.32 6373.39,2810.32 C6341.29,2810.32 6302.89,2837.46 6302.89,2867.92"/>
<path class="Note" d="M5432.64,2082.48 C5432.64,2096.72 5442.9,2112.6 5469.71,2112.6 C5504.13,2112.6 5540.21,2084.47 5540.21,2055.34 C5540.21,2035.81 5523.66,2024.89 5503.14,2024.89 C5471.03,2024.89 5432.64,2052.03 5432.64,2082.48"/>
<path class="Note" d="M6051.36,2041.14 C6051.36,2055.38 6061.62,2071.27 6088.43,2071.27 C6122.86,2071.27 6158.94,2043.13 6158.94,2014 C6158.94,1994.47 6142.39,1983.55 6121.86,1983.55 C6089.76,1983.55 6051.36,2010.69 6051.36,2041.14"/>
<path class="Note" d="M5123.28,1999.81 C5123.28,2014.04 5133.54,2029.93 5160.35,2029.93 C5194.77,2029.93 5230.85,2001.79 5230.85,1972.66 C5230.85,1953.14 5214.3,1942.21 5193.78,1942.21 C5161.67,1942.21 5123.28,1969.35 5123.28,1999.81"/>
<path class="Note" d="M4773.54,1958.47 C4773.54,1972.7 4783.8,1988.59 4810.61,1988.59 C4845.03,1988.59 4881.11,1960.45 4881.11,1931.33 C4881.11,1911.8 4864.56,1900.87 4844.04,1900.87 C4811.93,1900.87 4773.54,1928.02 4773.54,1958.47"/>
<path class="Note" d="M7131.12,2785.24 C7131.12,2799.47 7141.38,2815.36 7168.19,2815.36 C7202.62,2815.36 7238.7,2787.23 7238.7,2758.1 C7238.7,2738.57 7222.15,2727.65 7201.62,2727.65 C7169.52,2727.65 7131.12,2754.79 7131.12,2785.24"/>
<path class="Note" d="M6478.95,1999.81 C6478.95,2014.04 6489.21,2029.93 6516.02,2029.93 C6550.45,2029.93 6586.53,2001.79 6586.53,1972.66 C6586.53,1953.14 6569.98,1942.21 6549.45,1942.21 C6517.35,1942.21 6478.95,1969.35 6478.95,1999.81"/>
<path class="Note" d="M4003.87,1973.03 C3992.95,1973.03 3990.63,1964.09 3990.63,1961.12 C3990.63,1944.9 4046.24,1916.43 4061.79,1916.43 C4069.74,1916.43 4075.03,1921.06 4075.03,1928.35 C4075.03,1944.9 4019.1,1973.03 4003.87,1973.03 M4049.55,1900.87 C4017.44,1900.87 3979.04,1927.68 3979.04,1958.47 C3979.04,1972.7 3989.31,1988.59 4016.12,1988.59 C4050.54,1988.59 4086.62,1960.45 4086.62,1931.33 C4086.62,1911.8 4070.07,1900.87 4049.55,1900.87"/>
<path class="Note" d="M6788.31,1958.47 C6788.31,1972.7 6798.57,1988.59 6825.38,1988.59 C6859.81,1988.59 6895.89,1960.45 6895.89,1931.33 C6895.89,1911.8 6879.34,1900.87 6858.81,1900.87 C6826.71,1900.87 6788.31,1928.02 6788.31,1958.47"/>
<path class="Note" d="M8339.18,2799.8 C8328.25,2799.8 8325.94,2790.87 8325.94,2787.89 C8325.94,2771.67 8381.54,2743.2 8397.1,2743.2 C8405.05,2743.2 8410.34,2747.84 8410.34,2755.12 C8410.34,2771.67 8354.4,2799.8 8339.18,2799.8 M8384.85,2727.65 C8352.75,2727.65 8314.35,2754.46 8314.35,2785.24 C8314.35,2799.47 8324.61,2815.36 8351.42,2815.36 C8385.85,2815.36 8421.93,2787.23 8421.93,2758.1 C8421.93,2738.57 8405.38,2727.65 8384.85,2727.65"/>
<path class="Note" d="M7097.67,1917.13 C7097.67,1931.36 7107.93,1947.25 7134.75,1947.25 C7169.17,1947.25 7205.25,1919.11 7205.25,1889.99 C7205.25,1870.46 7188.7,1859.53 7168.18,1859.53 C7136.07,1859.53 7097.67,1886.68 7097.67,1917.13"/>
<path class="Note" d="M2932.73,2041.14 C2932.73,2055.38 2942.99,2071.27 2969.8,2071.27 C3004.23,2071.27 3040.31,2043.13 3040.31,2014 C3040.31,1994.47 3023.76,1983.55 3003.23,1983.55 C2971.13,1983.55 2932.73,2010.69 2932.73,2041.14"/>
<path class="Note" d="M7407.03,1958.47 C7407.03,1972.7 7417.3,1988.59 7444.11,1988.59 C7478.53,1988.59 7514.61,1960.45 7514.61,1931.33 C7514.61,1911.8 7498.06,1900.87 7477.54,1900.87 C7445.43,1900.87 7407.03,1928.02 7407.03,1958.47"/>
<path class="Note" d="M2623.37,1958.47 C2623.37,1972.7 2633.63,1988.59 2660.44,1988.59 C2694.87,1988.59 2730.95,1960.45 2730.95,1931.33 C2730.95,1911.8 2714.4,1900.87 2693.87,1900.87 C2661.77,1900.87 2623.37,1928.02 2623.37,1958.47"/>
<path class="Note" d="M2195.78,1917.13 C2195.78,1931.36 2206.04,1947.25 2232.85,1947.25 C2267.28,1947.25 2303.36,1919.11 2303.36,1889.99 C2303.36,1870.46 2286.81,1859.53 2266.28,1859.53 C2234.18,1859.53 2195.78,1886.68 2195.78,1917.13"/>
<path class="Note" d="M7613.28,1999.81 C7613.28,2014.04 7623.54,2029.93 7650.35,2029.93 C7684.77,2029.93 7720.85,2001.79 7720.85,1972.66 C7720.85,1953.14 7704.3,1942.21 7683.78,1942.21 C7651.67,1942.21 7613.28,1969.35 7613.28,1999.81"/>
<path class="Note" d="M1886.42,1917.13 C1886.42,1931.36 1896.68,1947.25 1923.49,1947.25 C1957.92,1947.25 1993.99,1919.11 1993.99,1889.99 C1993.99,1870.46 1977.44,1859.53 1956.92,1859.53 C1924.82,1859.53 1886.42,1886.68 1886.42,1917.13"/>
<path class="Note" d="M1447.2,1931.69 C1436.28,1931.69 1433.96,1922.76 1433.96,1919.78 C1433.96,1903.56 1489.57,1875.09 1505.13,1875.09 C1513.07,1875.09 1518.37,1879.73 1518.37,1887.01 C1518.37,1903.56 1462.43,1931.69 1447.2,1931.69 M1492.88,1859.53 C1460.77,1859.53 1422.38,1886.35 1422.38,1917.13 C1422.38,1931.36 1432.64,1947.25 1459.45,1947.25 C1493.87,1947.25 1529.95,1919.11 1529.95,1889.99 C1529.95,1870.46 1513.4,1859.53 1492.88,1859.53"/>
<path class="Note" d="M7581.95,2841.14 C7571.02,2841.14 7568.71,2832.2 7568.71,2829.23 C7568.71,2813.01 7624.31,2784.54 7639.87,2784.54 C7647.82,2784.54 7653.11,2789.17 7653.11,2796.46 C7653.11,2813.01 7597.17,2841.14 7581.95,2841.14 M7627.62,2768.98 C7595.52,2768.98 7557.12,2795.79 7557.12,2826.58 C7557.12,2840.81 7567.38,2856.7 7594.19,2856.7 C7628.62,2856.7 7664.7,2828.56 7664.7,2799.44 C7664.7,2779.91 7648.15,2768.98 7627.62,2768.98"/>
<path class="Note" d="M7963.01,2041.14 C7963.01,2055.38 7973.27,2071.27 8000.09,2071.27 C8034.51,2071.27 8070.59,2043.13 8070.59,2014 C8070.59,1994.47 8054.04,1983.55 8033.52,1983.55 C8001.41,1983.55 7963.01,2010.69 7963.01,2041.14"/>
<path class="Note" d="M8868.38,1049.02 C8868.38,1063.25 8878.64,1079.14 8905.45,1079.14 C8939.88,1079.14 8975.95,1051 8975.95,1021.88 C8975.95,1002.35 8959.4,991.425 8938.88,991.425 C8906.78,991.425 8868.38,1018.57 8868.38,1049.02"/>
<path class="Note" d="M8272.38,2082.48 C8272.38,2096.72 8282.64,2112.6 8309.45,2112.6 C8343.87,2112.6 8379.95,2084.47 8379.95,2055.34 C8379.95,2035.81 8363.4,2024.89 8342.88,2024.89 C8310.77,2024.89 8272.38,2052.03 8272.38,2082.48"/>
<path class="Note" d="M8536.3,1049.02 C8536.3,1063.25 8546.56,1079.14 8573.37,1079.14 C8607.8,1079.14 8643.88,1051 8643.88,1021.88 C8643.88,1002.35 8627.33,991.425 8606.8,991.425 C8574.7,991.425 8536.3,1018.57 8536.3,1049.02"/>
<path class="Note" d="M8204.22,1049.02 C8204.22,1063.25 8214.48,1079.14 8241.29,1079.14 C8275.72,1079.14 8311.8,1051 8311.8,1021.88 C8311.8,1002.35 8295.25,991.425 8274.72,991.425 C8242.62,991.425 8204.22,1018.57 8204.22,1049.02"/>
<path class="Note" d="M8581.74,2123.82 C8581.74,2138.05 8592,2153.94 8618.81,2153.94 C8653.23,2153.94 8689.31,2125.81 8689.31,2096.68 C8689.31,2077.15 8672.76,2066.23 8652.24,2066.23 C8620.13,2066.23 8581.74,2093.37 8581.74,2123.82"/>
<path class="Note" d="M7872.14,966.341 C7872.14,980.574 7882.4,996.462 7909.21,996.462 C7943.64,996.462 7979.72,968.327 7979.72,939.199 C7979.72,919.67 7963.17,908.747 7942.64,908.747 C7910.54,908.747 7872.14,935.889 7872.14,966.341"/>
<path class="Note" d="M8891.1,2082.48 C8891.1,2096.72 8901.36,2112.6 8928.17,2112.6 C8962.59,2112.6 8998.67,2084.47 8998.67,2055.34 C8998.67,2035.81 8982.12,2024.89 8961.6,2024.89 C8929.49,2024.89 8891.1,2052.03 8891.1,2082.48"/>
<path class="Note" d="M7522.4,925.003 C7522.4,939.236 7532.66,955.124 7559.48,955.124 C7593.9,955.124 7629.98,926.989 7629.98,897.861 C7629.98,878.332 7613.43,867.409 7592.91,867.409 C7560.8,867.409 7522.4,894.551 7522.4,925.003"/>
<path class="Note" d="M7301.02,966.341 C7301.02,980.574 7311.28,996.462 7338.09,996.462 C7372.51,996.462 7408.59,968.327 7408.59,939.199 C7408.59,919.67 7392.04,908.747 7371.52,908.747 C7339.41,908.747 7301.02,935.889 7301.02,966.341"/>
<path class="Note" d="M6705.12,2743.9 C6705.12,2758.13 6715.38,2774.02 6742.19,2774.02 C6776.61,2774.02 6812.69,2745.89 6812.69,2716.76 C6812.69,2697.23 6796.14,2686.31 6775.62,2686.31 C6743.51,2686.31 6705.12,2713.45 6705.12,2743.9"/>
<path class="Note" d="M6968.94,1007.68 C6968.94,1021.91 6979.2,1037.8 7006.01,1037.8 C7040.43,1037.8 7076.51,1009.67 7076.51,980.538 C7076.51,961.009 7059.96,950.086 7039.44,950.086 C7007.33,950.086 6968.94,977.228 6968.94,1007.68"/>
<path class="Note" d="M6495.64,1022.24 C6484.72,1022.24 6482.4,1013.31 6482.4,1010.33 C6482.4,994.109 6538.01,965.643 6553.57,965.643 C6561.51,965.643 6566.81,970.277 6566.81,977.559 C6566.81,994.109 6510.87,1022.24 6495.64,1022.24 M6541.32,950.086 C6509.21,950.086 6470.82,976.897 6470.82,1007.68 C6470.82,1021.91 6481.08,1037.8 6507.89,1037.8 C6542.31,1037.8 6578.39,1009.67 6578.39,980.538 C6578.39,961.009 6561.84,950.086 6541.32,950.086"/>
<path class="Note" d="M1447.2,2923.82 C1436.28,2923.82 1433.96,2914.88 1433.96,2911.9 C1433.96,2895.68 1489.57,2867.22 1505.13,2867.22 C1513.07,2867.22 1518.37,2871.85 1518.37,2879.13 C1518.37,2895.68 1462.43,2923.82 1447.2,2923.82 M1492.88,2851.66 C1460.77,2851.66 1422.38,2878.47 1422.38,2909.25 C1422.38,2923.49 1432.64,2939.38 1459.45,2939.38 C1493.87,2939.38 1529.95,2911.24 1529.95,2882.11 C1529.95,2862.58 1513.4,2851.66 1492.88,2851.66"/>
<path class="Note" d="M6020.51,1049.02 C6020.51,1063.25 6030.77,1079.14 6057.58,1079.14 C6092.01,1079.14 6128.08,1051 6128.08,1021.88 C6128.08,1002.35 6111.53,991.425 6091.01,991.425 C6058.91,991.425 6020.51,1018.57 6020.51,1049.02"/>
<path class="Note" d="M5688.43,1090.36 C5688.43,1104.59 5698.69,1120.48 5725.5,1120.48 C5759.93,1120.48 5796.01,1092.34 5796.01,1063.22 C5796.01,1043.69 5779.46,1032.76 5758.93,1032.76 C5726.83,1032.76 5688.43,1059.91 5688.43,1090.36"/>
<path class="Note" d="M2232.42,2867.92 C2232.42,2882.15 2242.68,2898.04 2269.49,2898.04 C2303.92,2898.04 2340,2869.9 2340,2840.77 C2340,2821.25 2323.45,2810.32 2302.92,2810.32 C2270.82,2810.32 2232.42,2837.46 2232.42,2867.92"/>
<path class="Note" d="M5356.35,1049.02 C5356.35,1063.25 5366.61,1079.14 5393.42,1079.14 C5427.85,1079.14 5463.93,1051 5463.93,1021.88 C5463.93,1002.35 5447.38,991.425 5426.85,991.425 C5394.75,991.425 5356.35,1018.57 5356.35,1049.02"/>
<path class="Note" d="M5024.27,1007.68 C5024.27,1021.91 5034.53,1037.8 5061.34,1037.8 C5095.77,1037.8 5131.85,1009.67 5131.85,980.538 C5131.85,961.009 5115.3,950.086 5094.77,950.086 C5062.67,950.086 5024.27,977.228 5024.27,1007.68"/>
<path class="Note" d="M2516.42,2826.58 C2516.42,2840.81 2526.68,2856.7 2553.49,2856.7 C2587.92,2856.7 2624,2828.56 2624,2799.44 C2624,2779.91 2607.45,2768.98 2586.93,2768.98 C2554.82,2768.98 2516.42,2796.13 2516.42,2826.58"/>
<path class="Note" d="M4674.53,1049.02 C4674.53,1063.25 4684.79,1079.14 4711.61,1079.14 C4746.03,1079.14 4782.11,1051 4782.11,1021.88 C4782.11,1002.35 4765.56,991.425 4745.04,991.425 C4712.93,991.425 4674.53,1018.57 4674.53,1049.02"/>
<path class="Note" d="M4453.15,1090.36 C4453.15,1104.59 4463.41,1120.48 4490.22,1120.48 C4524.64,1120.48 4560.72,1092.34 4560.72,1063.22 C4560.72,1043.69 4544.17,1032.76 4523.65,1032.76 C4491.54,1032.76 4453.15,1059.91 4453.15,1090.36"/>
<path class="Note" d="M4121.07,1049.02 C4121.07,1063.25 4131.33,1079.14 4158.14,1079.14 C4192.56,1079.14 4228.64,1051 4228.64,1021.88 C4228.64,1002.35 4212.09,991.425 4191.57,991.425 C4159.46,991.425 4121.07,1018.57 4121.07,1049.02"/>
<path class="Note" d="M2918.65,2867.92 C2918.65,2882.15 2928.91,2898.04 2955.72,2898.04 C2990.15,2898.04 3026.23,2869.9 3026.23,2840.77 C3026.23,2821.25 3009.68,2810.32 2989.15,2810.32 C2957.05,2810.32 2918.65,2837.46 2918.65,2867.92"/>
<path class="Note" d="M3647.77,1063.58 C3636.85,1063.58 3634.53,1054.65 3634.53,1051.67 C3634.53,1035.45 3690.14,1006.98 3705.7,1006.98 C3713.64,1006.98 3718.94,1011.62 3718.94,1018.9 C3718.94,1035.45 3663,1063.58 3647.77,1063.58 M3693.45,991.425 C3661.34,991.425 3622.95,1018.24 3622.95,1049.02 C3622.95,1063.25 3633.21,1079.14 3660.02,1079.14 C3694.44,1079.14 3730.52,1051 3730.52,1021.88 C3730.52,1002.35 3713.97,991.425 3693.45,991.425"/>
<path class="Note" d="M3344.65,2950.59 C3344.65,2964.83 3354.91,2980.71 3381.73,2980.71 C3416.15,2980.71 3452.23,2952.58 3452.23,2923.45 C3452.23,2903.92 3435.68,2893 3415.16,2893 C3383.05,2893 3344.65,2920.14 3344.65,2950.59"/>
<path class="Note" d="M3172.64,1049.02 C3172.64,1063.25 3182.9,1079.14 3209.71,1079.14 C3244.14,1079.14 3280.21,1051 3280.21,1021.88 C3280.21,1002.35 3263.66,991.425 3243.14,991.425 C3211.04,991.425 3172.64,1018.57 3172.64,1049.02"/>
<path class="Note" d="M3770.65,2950.59 C3770.65,2964.83 3780.92,2980.71 3807.73,2980.71 C3842.15,2980.71 3878.23,2952.58 3878.23,2923.45 C3878.23,2903.92 3861.68,2893 3841.16,2893 C3809.05,2893 3770.65,2920.14 3770.65,2950.59"/>
<path class="Note" d="M2840.56,1049.02 C2840.56,1063.25 2850.82,1079.14 2877.63,1079.14 C2912.06,1079.14 2948.14,1051 2948.14,1021.88 C2948.14,1002.35 2931.59,991.425 2911.06,991.425 C2878.96,991.425 2840.56,1018.57 2840.56,1049.02"/>
<path class="Note" d="M4196.66,2909.25 C4196.66,2923.49 4206.92,2939.38 4233.73,2939.38 C4268.15,2939.38 4304.23,2911.24 4304.23,2882.11 C4304.23,2862.58 4287.68,2851.66 4267.16,2851.66 C4235.05,2851.66 4196.66,2878.8 4196.66,2909.25"/>
<path class="Note" d="M2508.48,1049.02 C2508.48,1063.25 2518.74,1079.14 2545.55,1079.14 C2579.98,1079.14 2616.06,1051 2616.06,1021.88 C2616.06,1002.35 2599.51,991.425 2578.98,991.425 C2546.88,991.425 2508.48,1018.57 2508.48,1049.02"/>
<path class="Note" d="M2176.4,1049.02 C2176.4,1063.25 2186.66,1079.14 2213.47,1079.14 C2247.9,1079.14 2283.98,1051 2283.98,1021.88 C2283.98,1002.35 2267.43,991.425 2246.9,991.425 C2214.8,991.425 2176.4,1018.57 2176.4,1049.02"/>
<path class="Note" d="M1826.66,1090.36 C1826.66,1104.59 1836.92,1120.48 1863.74,1120.48 C1898.16,1120.48 1934.24,1092.34 1934.24,1063.22 C1934.24,1043.69 1917.69,1032.76 1897.17,1032.76 C1865.06,1032.76 1826.66,1059.91 1826.66,1090.36"/>
<path class="Note" d="M4740.89,2867.92 C4740.89,2882.15 4751.15,2898.04 4777.96,2898.04 C4812.38,2898.04 4848.46,2869.9 4848.46,2840.77 C4848.46,2821.25 4831.91,2810.32 4811.39,2810.32 C4779.28,2810.32 4740.89,2837.46 4740.89,2867.92"/>
<path class="Note" d="M1605.28,1131.7 C1605.28,1145.93 1615.54,1161.82 1642.35,1161.82 C1676.77,1161.82 1712.85,1133.68 1712.85,1104.55 C1712.85,1085.02 1696.3,1074.1 1675.78,1074.1 C1643.67,1074.1 1605.28,1101.24 1605.28,1131.7"/>
<path class="Note" d="M5166.89,2826.58 C5166.89,2840.81 5177.15,2856.7 5203.96,2856.7 C5238.38,2856.7 5274.46,2828.56 5274.46,2799.44 C5274.46,2779.91 5257.91,2768.98 5237.39,2768.98 C5205.28,2768.98 5166.89,2796.13 5166.89,2826.58"/>
<path class="Note" d="M4567.3,1917.13 C4567.3,1931.36 4577.56,1947.25 4604.37,1947.25 C4638.79,1947.25 4674.87,1919.11 4674.87,1889.99 C4674.87,1870.46 4658.32,1859.53 4637.8,1859.53 C4605.69,1859.53 4567.3,1886.68 4567.3,1917.13"/>
<path class="Note" d="M5592.89,2785.24 C5592.89,2799.47 5603.15,2815.36 5629.96,2815.36 C5664.38,2815.36 5700.46,2787.23 5700.46,2758.1 C5700.46,2738.57 5683.91,2727.65 5663.39,2727.65 C5631.28,2727.65 5592.89,2754.79 5592.89,2785.24"/>
<path class="Note" d="M3551.45,1999.81 C3551.45,2014.04 3561.72,2029.93 3588.53,2029.93 C3622.95,2029.93 3659.03,2001.79 3659.03,1972.66 C3659.03,1953.14 3642.48,1942.21 3621.96,1942.21 C3589.85,1942.21 3551.45,1969.35 3551.45,1999.81"/>
<path class="Note" d="M6018.89,2826.58 C6018.89,2840.81 6029.15,2856.7 6055.96,2856.7 C6090.38,2856.7 6126.46,2828.56 6126.46,2799.44 C6126.46,2779.91 6109.91,2768.98 6089.39,2768.98 C6057.28,2768.98 6018.89,2796.13 6018.89,2826.58"/>
<path class="Note" d="M5742,2082.48 C5742,2096.72 5752.26,2112.6 5779.07,2112.6 C5813.5,2112.6 5849.57,2084.47 5849.57,2055.34 C5849.57,2035.81 5833.02,2024.89 5812.5,2024.89 C5780.4,2024.89 5742,2052.03 5742,2082.48"/>
<path class="Clef" d="M909.689,1144.64 C903.069,1145.97 896.78,1146.63 890.491,1146.63 C843.158,1146.63 802.776,1113.53 802.776,1063.55 C802.776,1023.16 831.242,987.085 860.37,961.929 C865.997,956.964 871.293,952.33 876.258,947.365 C879.237,965.239 881.554,980.796 883.871,994.367 C853.75,1003.3 833.228,1035.08 833.228,1066.19 C833.228,1089.36 851.433,1121.14 877.913,1121.14 C880.561,1121.14 883.54,1119.82 883.54,1116.84 C883.54,1113.86 880.23,1112.2 876.258,1109.56 C863.349,1101.61 856.067,1093.01 856.067,1076.79 C856.067,1056.6 870.962,1040.38 890.491,1035.74 L909.689,1144.64 M880.561,804.373 C883.54,791.133 898.766,756.378 915.978,756.378 C920.943,756.378 928.887,772.597 928.887,795.436 C928.887,829.86 903.4,855.678 880.561,878.186 C878.575,864.946 876.92,852.037 876.92,838.135 C876.92,825.888 877.913,814.634 880.561,804.373 M956.691,1083.41 C956.691,1106.91 947.092,1131.07 923.591,1140.67 C916.64,1100.95 907.703,1048.32 905.386,1033.76 C935.176,1033.76 956.691,1053.95 956.691,1083.41 M811.051,1246.26 C811.051,1268.1 827.932,1296.9 872.617,1296.9 C888.174,1296.9 901.745,1292.93 913.661,1285.65 C931.535,1273.07 936.169,1251.22 936.169,1230.37 C936.169,1217.46 934.183,1202.57 930.873,1183.7 C929.88,1177.08 927.894,1167.15 925.908,1154.24 C958.346,1143.65 982.509,1109.89 982.509,1075.79 C982.509,1025.81 947.092,992.05 898.766,992.05 C895.456,972.19 892.146,952.661 889.167,934.125 C924.253,897.384 948.416,856.009 948.416,803.38 C948.416,773.259 939.148,748.765 933.852,736.849 C925.908,719.968 916.309,708.383 910.351,708.383 C908.034,708.383 897.773,712.355 886.85,725.264 C865.666,750.42 859.708,792.788 859.708,820.592 C859.708,838.466 861.363,854.685 866.99,891.757 C866.659,892.088 849.447,909.631 842.496,915.258 C812.375,943.393 770.669,983.444 770.669,1049.64 C770.669,1111.54 824.622,1160.2 886.188,1160.2 C895.787,1160.2 904.724,1159.21 912.337,1157.88 C918.626,1189.66 922.267,1212.83 922.267,1230.37 C922.267,1264.79 904.724,1283 871.293,1283 C863.349,1283 856.398,1281.34 855.736,1281.34 C855.405,1281.01 854.743,1280.68 854.743,1280.35 C854.743,1279.69 855.405,1279.36 856.398,1279.03 C871.955,1276.71 887.512,1263.47 887.512,1242.29 C887.512,1224.41 873.941,1205.55 849.116,1205.55 C825.946,1205.55 811.051,1224.41 811.051,1246.26"/>
<path class="Clef" d="M909.689,2880.86 C903.069,2882.19 896.78,2882.85 890.491,2882.85 C843.158,2882.85 802.776,2849.75 802.776,2799.77 C802.776,2759.38 831.242,2723.31 860.37,2698.15 C865.997,2693.18 871.293,2688.55 876.258,2683.59 C879.237,2701.46 881.554,2717.02 883.871,2730.59 C853.75,2739.52 833.228,2771.3 833.228,2802.41 C833.228,2825.58 851.433,2857.36 877.913,2857.36 C880.561,2857.36 883.54,2856.04 883.54,2853.06 C883.54,2850.08 880.23,2848.42 876.258,2845.78 C863.349,2837.83 856.067,2829.23 856.067,2813.01 C856.067,2792.82 870.962,2776.6 890.491,2771.96 L909.689,2880.86 M880.561,2540.59 C883.54,2527.35 898.766,2492.6 915.978,2492.6 C920.943,2492.6 928.887,2508.82 928.887,2531.66 C928.887,2566.08 903.4,2591.9 880.561,2614.41 C878.575,2601.17 876.92,2588.26 876.92,2574.36 C876.92,2562.11 877.913,2550.85 880.561,2540.59 M956.691,2819.63 C956.691,2843.13 947.092,2867.29 923.591,2876.89 C916.64,2837.17 907.703,2784.54 905.386,2769.98 C935.176,2769.98 956.691,2790.17 956.691,2819.63 M811.051,2982.48 C811.051,3004.32 827.932,3033.12 872.617,3033.12 C888.174,3033.12 901.745,3029.15 913.661,3021.87 C931.535,3009.29 936.169,2987.44 936.169,2966.59 C936.169,2953.68 934.183,2938.79 930.873,2919.92 C929.88,2913.3 927.894,2903.37 925.908,2890.46 C958.346,2879.87 982.509,2846.11 982.509,2812.01 C982.509,2762.03 947.092,2728.27 898.766,2728.27 C895.456,2708.41 892.146,2688.88 889.167,2670.35 C924.253,2633.6 948.416,2592.23 948.416,2539.6 C948.416,2509.48 939.148,2484.99 933.852,2473.07 C925.908,2456.19 916.309,2444.6 910.351,2444.6 C908.034,2444.6 897.773,2448.58 886.85,2461.48 C865.666,2486.64 859.708,2529.01 859.708,2556.81 C859.708,2574.69 861.363,2590.91 866.99,2627.98 C866.659,2628.31 849.447,2645.85 842.496,2651.48 C812.375,2679.61 770.669,2719.66 770.669,2785.86 C770.669,2847.76 824.622,2896.42 886.188,2896.42 C895.787,2896.42 904.724,2895.43 912.337,2894.1 C918.626,2925.88 922.267,2949.05 922.267,2966.59 C922.267,3001.01 904.724,3019.22 871.293,3019.22 C863.349,3019.22 856.398,3017.56 855.736,3017.56 C855.405,3017.23 854.743,3016.9 854.743,3016.57 C854.743,3015.91 855.405,3015.58 856.398,3015.25 C871.955,3012.93 887.512,2999.69 887.512,2978.51 C887.512,2960.63 873.941,2941.77 849.116,2941.77 C825.946,2941.77 811.051,2960.63 811.051,2982.48"/>
<path class="Clef" d="M909.689,2012.75 C903.069,2014.08 896.78,2014.74 890.491,2014.74 C843.158,2014.74 802.776,1981.64 802.776,1931.66 C802.776,1891.27 831.242,1855.2 860.37,1830.04 C865.997,1825.07 871.293,1820.44 876.258,1815.48 C879.237,1833.35 881.554,1848.91 883.871,1862.48 C853.75,1871.41 833.228,1903.19 833.228,1934.3 C833.228,1957.47 851.433,1989.25 877.913,1989.25 C880.561,1989.25 883.54,1987.93 883.54,1984.95 C883.54,1981.97 880.23,1980.31 876.258,1977.67 C863.349,1969.72 856.067,1961.12 856.067,1944.9 C856.067,1924.71 870.962,1908.49 890.491,1903.85 L909.689,2012.75 M880.561,1672.48 C883.54,1659.24 898.766,1624.49 915.978,1624.49 C920.943,1624.49 928.887,1640.71 928.887,1663.55 C928.887,1697.97 903.4,1723.79 880.561,1746.3 C878.575,1733.06 876.92,1720.15 876.92,1706.25 C876.92,1694 877.913,1682.74 880.561,1672.48 M956.691,1951.52 C956.691,1975.02 947.092,1999.18 923.591,2008.78 C916.64,1969.06 907.703,1916.43 905.386,1901.87 C935.176,1901.87 956.691,1922.06 956.691,1951.52 M811.051,2114.37 C811.051,2136.21 827.932,2165.01 872.617,2165.01 C888.174,2165.01 901.745,2161.04 913.661,2153.76 C931.535,2141.18 936.169,2119.33 936.169,2098.48 C936.169,2085.57 934.183,2070.68 930.873,2051.81 C929.88,2045.19 927.894,2035.26 925.908,2022.35 C958.346,2011.76 982.509,1978 982.509,1943.9 C982.509,1893.92 947.092,1860.16 898.766,1860.16 C895.456,1840.3 892.146,1820.77 889.167,1802.24 C924.253,1765.49 948.416,1724.12 948.416,1671.49 C948.416,1641.37 939.148,1616.88 933.852,1604.96 C925.908,1588.08 916.309,1576.49 910.351,1576.49 C908.034,1576.49 897.773,1580.47 886.85,1593.37 C865.666,1618.53 859.708,1660.9 859.708,1688.7 C859.708,1706.58 861.363,1722.8 866.99,1759.87 C866.659,1760.2 849.447,1777.74 842.496,1783.37 C812.375,1811.5 770.669,1851.55 770.669,1917.75 C770.669,1979.65 824.622,2028.31 886.188,2028.31 C895.787,2028.31 904.724,2027.32 912.337,2025.99 C918.626,2057.77 922.267,2080.94 922.267,2098.48 C922.267,2132.9 904.724,2151.11 871.293,2151.11 C863.349,2151.11 856.398,2149.45 855.736,2149.45 C855.405,2149.12 854.743,2148.79 854.743,2148.46 C854.743,2147.8 855.405,2147.47 856.398,2147.14 C871.955,2144.82 887.512,2131.58 887.512,2110.4 C887.512,2092.52 873.941,2073.66 849.116,2073.66 C825.946,2073.66 811.051,2092.52 811.051,2114.37"/>
<path class="KeySig" d="M1070.17,2540.15 L1099.63,2534.19 L1099.63,2588.81 L1070.17,2595.1 L1070.17,2540.15 M1121.48,2529.89 C1123.47,2529.56 1125.12,2527.24 1125.12,2525.26 L1125.12,2505.73 C1125.12,2503.08 1123.13,2501.09 1120.49,2501.09 L1119.82,2501.09 L1108.9,2503.41 L1108.9,2454.09 L1099.63,2454.09 L1099.63,2505.4 L1070.17,2511.35 L1070.17,2464.68 L1060.91,2464.68 L1060.91,2513.34 L1048,2515.99 C1046.01,2516.32 1044.36,2518.64 1044.36,2520.62 L1044.36,2539.82 C1044.36,2542.47 1046.34,2544.45 1048.99,2544.45 L1049.98,2544.45 L1060.91,2542.14 L1060.91,2596.75 L1048,2599.4 C1046.01,2599.73 1044.36,2602.05 1044.36,2604.03 L1044.36,2623.23 C1044.36,2625.88 1046.34,2627.87 1048.99,2627.87 L1049.98,2627.87 L1060.91,2625.55 L1060.91,2674.87 L1070.17,2674.87 L1070.17,2623.56 L1099.63,2617.6 L1099.63,2664.28 L1108.9,2664.28 L1108.9,2615.62 L1121.48,2613.3 C1123.47,2612.97 1125.12,2610.65 1125.12,2608.67 L1125.12,2589.14 C1125.12,2586.49 1123.13,2584.5 1120.49,2584.5 L1119.82,2584.5 L1108.9,2586.82 L1108.9,2532.21 L1121.48,2529.89 "/>
<path class="KeySig" d="M1160.78,2664.17 L1190.24,2658.21 L1190.24,2712.82 L1160.78,2719.11 L1160.78,2664.17 M1212.09,2653.9 C1214.08,2653.57 1215.73,2651.26 1215.73,2649.27 L1215.73,2629.74 C1215.73,2627.09 1213.74,2625.11 1211.1,2625.11 L1210.43,2625.11 L1199.51,2627.42 L1199.51,2578.11 L1190.24,2578.11 L1190.24,2629.41 L1160.78,2635.37 L1160.78,2588.7 L1151.52,2588.7 L1151.52,2637.35 L1138.61,2640 C1136.62,2640.33 1134.97,2642.65 1134.97,2644.64 L1134.97,2663.83 C1134.97,2666.48 1136.95,2668.47 1139.6,2668.47 L1140.59,2668.47 L1151.52,2666.15 L1151.52,2720.77 L1138.61,2723.41 C1136.62,2723.75 1134.97,2726.06 1134.97,2728.05 L1134.97,2747.25 C1134.97,2749.89 1136.95,2751.88 1139.6,2751.88 L1140.59,2751.88 L1151.52,2749.56 L1151.52,2798.88 L1160.78,2798.88 L1160.78,2747.58 L1190.24,2741.62 L1190.24,2788.29 L1199.51,2788.29 L1199.51,2739.63 L1212.09,2737.32 C1214.08,2736.99 1215.73,2734.67 1215.73,2732.68 L1215.73,2713.15 C1215.73,2710.51 1213.74,2708.52 1211.1,2708.52 L1210.43,2708.52 L1199.51,2710.84 L1199.51,2656.22 L1212.09,2653.9 "/>
<path class="KeySig" d="M1070.17,803.93 L1099.63,797.972 L1099.63,852.587 L1070.17,858.876 L1070.17,803.93 M1121.48,793.669 C1123.47,793.338 1125.12,791.021 1125.12,789.035 L1125.12,769.506 C1125.12,766.858 1123.13,764.872 1120.49,764.872 L1119.82,764.872 L1108.9,767.189 L1108.9,717.87 L1099.63,717.87 L1099.63,769.175 L1070.17,775.133 L1070.17,728.462 L1060.91,728.462 L1060.91,777.119 L1048,779.767 C1046.01,780.098 1044.36,782.415 1044.36,784.401 L1044.36,803.599 C1044.36,806.247 1046.34,808.233 1048.99,808.233 L1049.98,808.233 L1060.91,805.916 L1060.91,860.531 L1048,863.179 C1046.01,863.51 1044.36,865.827 1044.36,867.813 L1044.36,887.011 C1044.36,889.659 1046.34,891.645 1048.99,891.645 L1049.98,891.645 L1060.91,889.328 L1060.91,938.647 L1070.17,938.647 L1070.17,887.342 L1099.63,881.384 L1099.63,928.055 L1108.9,928.055 L1108.9,879.398 L1121.48,877.081 C1123.47,876.75 1125.12,874.433 1125.12,872.447 L1125.12,852.918 C1125.12,850.27 1123.13,848.284 1120.49,848.284 L1119.82,848.284 L1108.9,850.601 L1108.9,795.986 L1121.48,793.669 "/>
<path class="KeySig" d="M1160.78,927.945 L1190.24,921.987 L1190.24,976.602 L1160.78,982.891 L1160.78,927.945 M1212.09,917.684 C1214.08,917.353 1215.73,915.036 1215.73,913.05 L1215.73,893.521 C1215.73,890.873 1213.74,888.887 1211.1,888.887 L1210.43,888.887 L1199.51,891.204 L1199.51,841.885 L1190.24,841.885 L1190.24,893.19 L1160.78,899.148 L1160.78,852.477 L1151.52,852.477 L1151.52,901.134 L1138.61,903.782 C1136.62,904.113 1134.97,906.43 1134.97,908.416 L1134.97,927.614 C1134.97,930.262 1136.95,932.248 1139.6,932.248 L1140.59,932.248 L1151.52,929.931 L1151.52,984.546 L1138.61,987.194 C1136.62,987.525 1134.97,989.842 1134.97,991.828 L1134.97,1011.03 C1134.97,1013.67 1136.95,1015.66 1139.6,1015.66 L1140.59,1015.66 L1151.52,1013.34 L1151.52,1062.66 L1160.78,1062.66 L1160.78,1011.36 L1190.24,1005.4 L1190.24,1052.07 L1199.51,1052.07 L1199.51,1003.41 L1212.09,1001.1 C1214.08,1000.77 1215.73,998.448 1215.73,996.462 L1215.73,976.933 C1215.73,974.285 1213.74,972.299 1211.1,972.299 L1210.43,972.299 L1199.51,974.616 L1199.51,920.001 L1212.09,917.684 "/>
<path class="KeySig" d="M1070.17,1672.04 L1099.63,1666.08 L1099.63,1720.7 L1070.17,1726.99 L1070.17,1672.04 M1121.48,1661.78 C1123.47,1661.45 1125.12,1659.13 1125.12,1657.14 L1125.12,1637.62 C1125.12,1634.97 1123.13,1632.98 1120.49,1632.98 L1119.82,1632.98 L1108.9,1635.3 L1108.9,1585.98 L1099.63,1585.98 L1099.63,1637.28 L1070.17,1643.24 L1070.17,1596.57 L1060.91,1596.57 L1060.91,1645.23 L1048,1647.88 C1046.01,1648.21 1044.36,1650.52 1044.36,1652.51 L1044.36,1671.71 C1044.36,1674.36 1046.34,1676.34 1048.99,1676.34 L1049.98,1676.34 L1060.91,1674.03 L1060.91,1728.64 L1048,1731.29 C1046.01,1731.62 1044.36,1733.94 1044.36,1735.92 L1044.36,1755.12 C1044.36,1757.77 1046.34,1759.75 1048.99,1759.75 L1049.98,1759.75 L1060.91,1757.44 L1060.91,1806.76 L1070.17,1806.76 L1070.17,1755.45 L1099.63,1749.49 L1099.63,1796.16 L1108.9,1796.16 L1108.9,1747.51 L1121.48,1745.19 C1123.47,1744.86 1125.12,1742.54 1125.12,1740.56 L1125.12,1721.03 C1125.12,1718.38 1123.13,1716.39 1120.49,1716.39 L1119.82,1716.39 L1108.9,1718.71 L1108.9,1664.1 L1121.48,1661.78 "/>
<path class="KeySig" d="M1160.78,1796.06 L1190.24,1790.1 L1190.24,1844.71 L1160.78,1851 L1160.78,1796.06 M1212.09,1785.79 C1214.08,1785.46 1215.73,1783.15 1215.73,1781.16 L1215.73,1761.63 C1215.73,1758.98 1213.74,1757 1211.1,1757 L1210.43,1757 L1199.51,1759.31 L1199.51,1710 L1190.24,1710 L1190.24,1761.3 L1160.78,1767.26 L1160.78,1720.59 L1151.52,1720.59 L1151.52,1769.24 L1138.61,1771.89 C1136.62,1772.22 1134.97,1774.54 1134.97,1776.53 L1134.97,1795.72 C1134.97,1798.37 1136.95,1800.36 1139.6,1800.36 L1140.59,1800.36 L1151.52,1798.04 L1151.52,1852.66 L1138.61,1855.3 C1136.62,1855.64 1134.97,1857.95 1134.97,1859.94 L1134.97,1879.14 C1134.97,1881.78 1136.95,1883.77 1139.6,1883.77 L1140.59,1883.77 L1151.52,1881.45 L1151.52,1930.77 L1160.78,1930.77 L1160.78,1879.47 L1190.24,1873.51 L1190.24,1920.18 L1199.51,1920.18 L1199.51,1871.52 L1212.09,1869.21 C1214.08,1868.88 1215.73,1866.56 1215.73,1864.57 L1215.73,1845.04 C1215.73,1842.4 1213.74,1840.41 1211.1,1840.41 L1210.43,1840.41 L1199.51,1842.73 L1199.51,1788.11 L1212.09,1785.79 "/>
<path class="TimeSig" d="M1362.58,953.624 L1362.58,978.118 L1335.11,978.118 C1332.79,978.118 1330.47,980.104 1330.47,982.752 L1330.47,989.041 C1330.47,991.689 1332.79,993.675 1335.11,993.675 L1435.4,993.675 C1438.05,993.675 1440.03,991.689 1440.03,989.041 L1440.03,982.752 C1440.03,980.104 1438.05,978.118 1435.4,978.118 L1405.61,978.118 L1405.61,953.624 L1435.4,953.624 C1438.05,953.624 1440.03,951.307 1440.03,948.659 L1440.03,942.37 C1440.03,940.053 1438.05,937.736 1435.4,937.736 L1405.61,937.736 L1405.61,885.107 C1405.61,883.121 1404.62,881.466 1403.29,880.804 L1399.32,878.818 C1398.66,878.487 1398.33,878.487 1397.66,878.487 C1396.34,878.487 1395.02,878.487 1394.02,879.48 L1363.9,906.953 C1362.91,907.946 1362.58,909.27 1362.58,910.594 L1362.58,937.736 L1324.18,937.736 C1324.18,937.736 1361.25,898.016 1400.31,845.718 C1401.64,844.063 1401.97,842.408 1401.97,841.084 C1401.97,839.429 1401.31,838.105 1400.97,837.774 L1393.69,830.492 C1392.7,829.83 1391.71,829.168 1390.38,829.168 C1388.4,829.168 1343.71,829.168 1341.06,829.168 C1338.75,829.168 1337.09,831.154 1336.76,833.14 C1336.76,833.14 1335.11,857.634 1326.5,884.445 C1317.89,911.256 1307.96,927.806 1299.36,940.053 C1299.36,940.053 1298.36,941.708 1298.36,943.694 C1298.36,944.356 1298.36,945.018 1298.7,945.68 C1299.69,947.997 1302.01,951.638 1302.01,951.638 C1302.01,951.638 1302.67,953.624 1305.65,953.624 L1362.58,953.624 "/>
<path class="TimeSig" d="M1362.58,1118.01 L1362.58,1142.5 L1335.11,1142.5 C1332.79,1142.5 1330.47,1144.49 1330.47,1147.13 L1330.47,1153.42 C1330.47,1156.07 1332.79,1158.06 1335.11,1158.06 L1435.4,1158.06 C1438.05,1158.06 1440.03,1156.07 1440.03,1153.42 L1440.03,1147.13 C1440.03,1144.49 1438.05,1142.5 1435.4,1142.5 L1405.61,1142.5 L1405.61,1118.01 L1435.4,1118.01 C1438.05,1118.01 1440.03,1115.69 1440.03,1113.04 L1440.03,1106.75 C1440.03,1104.44 1438.05,1102.12 1435.4,1102.12 L1405.61,1102.12 L1405.61,1049.49 C1405.61,1047.5 1404.62,1045.85 1403.29,1045.19 L1399.32,1043.2 C1398.66,1042.87 1398.33,1042.87 1397.66,1042.87 C1396.34,1042.87 1395.02,1042.87 1394.02,1043.86 L1363.9,1071.34 C1362.91,1072.33 1362.58,1073.65 1362.58,1074.98 L1362.58,1102.12 L1324.18,1102.12 C1324.18,1102.12 1361.25,1062.4 1400.31,1010.1 C1401.64,1008.45 1401.97,1006.79 1401.97,1005.47 C1401.97,1003.81 1401.31,1002.49 1400.97,1002.16 L1393.69,994.874 C1392.7,994.212 1391.71,993.55 1390.38,993.55 C1388.4,993.55 1343.71,993.55 1341.06,993.55 C1338.75,993.55 1337.09,995.536 1336.76,997.522 C1336.76,997.522 1335.11,1022.02 1326.5,1048.83 C1317.89,1075.64 1307.96,1092.19 1299.36,1104.44 C1299.36,1104.44 1298.36,1106.09 1298.36,1108.08 C1298.36,1108.74 1298.36,1109.4 1298.7,1110.06 C1299.69,1112.38 1302.01,1116.02 1302.01,1116.02 C1302.01,1116.02 1302.67,1118.01 1305.65,1118.01 L1362.58,1118.01 "/>
<path class="Beam" fill-rule="evenodd" d="M6118.1,2543.92 L6410.37,2564.59 L6410.37,2606.03 L6118.1,2585.37 L6118.1,2543.92 "/>
<path class="Beam" fill-rule="evenodd" d="M2331.63,2564.59 L2623.9,2543.92 L2623.9,2585.37 L2331.63,2606.03 L2331.63,2564.59 "/>
<path class="Beam" fill-rule="evenodd" d="M7506.25,1675.77 L7720.76,1696.44 L7720.76,1737.97 L7506.25,1717.3 L7506.25,1675.77 "/>
<path class="Beam" fill-rule="evenodd" d="M7301.02,1159.05 L7530.67,1138.38 L7530.67,1179.89 L7301.02,1200.55 L7301.02,1159.05 "/>
<path class="Beam" fill-rule="evenodd" d="M4552.36,807.671 L4782.01,787.002 L4782.01,828.507 L4552.36,849.177 L4552.36,807.671 "/>
<path class="Beam" fill-rule="evenodd" d="M1704.49,828.34 L1934.14,807.671 L1934.14,849.177 L1704.49,869.846 L1704.49,828.34 "/>
<path class="Beam" fill-rule="evenodd" d="M4666.51,1655.1 L4881.02,1675.77 L4881.02,1717.3 L4666.51,1696.63 L4666.51,1655.1 "/>
<path class="NoteDot" d="M1571.21,2854.01 C1571.21,2863.28 1578.49,2870.56 1587.76,2870.56 C1597.03,2870.56 1604.31,2863.28 1604.31,2854.01 C1604.31,2844.75 1597.03,2837.46 1587.76,2837.46 C1578.49,2837.46 1571.21,2844.75 1571.21,2854.01"/>
<path class="NoteDot" d="M4127.88,1903.23 C4127.88,1912.49 4135.16,1919.78 4144.43,1919.78 C4153.69,1919.78 4160.98,1912.49 4160.98,1903.23 C4160.98,1893.96 4153.69,1886.68 4144.43,1886.68 C4135.16,1886.68 4127.88,1893.96 4127.88,1903.23"/>
<path class="NoteDot" d="M8463.18,2771.34 C8463.18,2780.61 8470.47,2787.89 8479.73,2787.89 C8489,2787.89 8496.28,2780.61 8496.28,2771.34 C8496.28,2762.07 8489,2754.79 8479.73,2754.79 C8470.47,2754.79 8463.18,2762.07 8463.18,2771.34"/>
</svg>
