<?xml version="1.0" encoding="utf-8"?>
<svg xmlns="http://www.w3.org/2000/svg" xmlns:svg="http://www.w3.org/2000/svg" version="1.1" viewBox="0 0 681 51">
	<title>The musical score for Air LVIII</title>
	<path d="M163.978 16.46c0 .742.582 1.325 1.325 1.325.742 0 1.325-.583 1.325-1.324s-.583-1.325-1.325-1.325c-.743 0-1.325.583-1.325 1.325m470.601 6.618c0 .742.583 1.325 1.325 1.325s1.325-.583 1.325-1.325-.583-1.325-1.325-1.325-1.325.583-1.325 1.325m-320.583 0c0 .742.584 1.325 1.325 1.325.742 0 1.325-.583 1.325-1.325s-.583-1.325-1.325-1.325c-.741 0-1.325.583-1.325 1.325m39.14 14.886L371.7 39.62v3.322l-18.562-1.655zm0 4.964 18.562 1.655v3.322l-18.562-1.655zM203.118 31.346l18.562 1.655v3.322l-18.562-1.655zm0 4.964 18.562 1.655v3.322l-18.562-1.655zm35.8 3.313 27.511-1.655v3.316l-27.511 1.655zM53.098 24.727l18.562 1.655v3.323L53.1 28.05zm0 4.964 18.561 1.655v3.322L53.1 33.014zM396.879 9.84l27.512 1.655v3.315l-27.512-1.655zm63.164 6.619 27.512 1.654v3.316l-27.512-1.655zm53.7 6.618 27.512 1.655v3.315l-27.512-1.655zm53.7-16.555 27.511-3.31v3.333l-27.512 3.31zM88.898 33.004l27.512-1.654v3.315L88.898 36.32zm-55.229 3.33v1.96H31.47a.38.38 0 0 0-.37.371v.504c0 .212.185.37.37.37H39.5a.36.36 0 0 0 .371-.37v-.504c0-.212-.159-.37-.371-.37h-2.385v-1.962H39.5c.212 0 .371-.185.371-.397v-.503c0-.186-.159-.37-.371-.37h-2.385v-4.214c0-.16-.08-.292-.185-.345l-.318-.159c-.053-.026-.08-.026-.132-.026-.106 0-.213 0-.292.08l-2.411 2.198a.4.4 0 0 0-.107.292v2.173h-3.073s2.968-3.18 6.095-7.367a.58.58 0 0 0 .132-.371.44.44 0 0 0-.08-.265l-.582-.583c-.08-.053-.16-.105-.265-.105h-3.949c-.185 0-.317.158-.344.317 0 0-.133 1.96-.822 4.107-.688 2.147-1.483 3.472-2.173 4.452 0 0-.079.133-.079.291 0 .054 0 .107.027.16.079.185.265.477.265.477s.052.158.29.158zm2.74-16.829c2.12-.821 2.253-2.2 2.253-2.676v-.133c0-.238-.079-3.233-4.637-3.233S29.6 16.695 29.6 16.695h.027l-.027.053c0 .954.769 1.696 1.722 1.696.954 0 1.697-.742 1.697-1.696 0-.768-.584-1.51-1.325-1.67l.079-.079c.37-.265.874-.397 1.378-.397 1.112 0 2.305.662 2.305 2.093 0 1.67-1.245 1.908-1.563 1.961s-1.802.159-2.12.159-.344.371-.344.371v.53s.053.291.344.318c.45.026 1.06.026 1.908.159 1.166.159 1.775.954 1.775 2.809 0 1.775-1.193 2.252-2.305 2.252-.742 0-1.43-.212-1.722-.424.874-.053 1.59-.821 1.59-1.696 0-.954-.743-1.722-1.697-1.722-.953 0-1.722.768-1.722 1.722 0 2.173 1.987 3.26 3.949 3.26 2.543 0 5.3-.875 5.3-3.763 0-1.935-1.326-2.756-2.492-3.127zM16.093 38.466a7.8 7.8 0 0 1-1.537.159c-3.789 0-7.022-2.65-7.022-6.651 0-3.233 2.28-6.121 4.611-8.135.45-.398.875-.769 1.272-1.166.238 1.431.424 2.676.61 3.762-2.412.716-4.055 3.26-4.055 5.75 0 1.856 1.458 4.4 3.577 4.4.212 0 .451-.107.451-.345 0-.239-.265-.37-.583-.583-1.033-.636-1.616-1.325-1.616-2.623 0-1.617 1.192-2.915 2.755-3.286zm-2.332-27.24c.239-1.06 1.458-3.842 2.836-3.842.397 0 1.033 1.298 1.033 3.126 0 2.756-2.04 4.823-3.869 6.625-.159-1.06-.291-2.093-.291-3.206 0-.98.08-1.882.291-2.703m6.095 22.337c0 1.882-.768 3.817-2.65 4.585a877 877 0 0 1-1.457-8.56c2.385 0 4.107 1.617 4.107 3.975M8.196 46.6c0 1.75 1.352 4.055 4.93 4.055 1.245 0 2.331-.318 3.285-.901 1.431-1.007 1.802-2.756 1.802-4.425 0-1.033-.159-2.226-.424-3.736-.08-.53-.238-1.325-.397-2.358 2.597-.849 4.53-3.552 4.53-6.28 0-4.002-2.834-6.705-6.703-6.705-.265-1.59-.53-3.153-.769-4.637 2.81-2.941 4.744-6.253 4.744-10.467 0-2.411-.742-4.372-1.166-5.326-.636-1.351-1.405-2.279-1.882-2.279-.185 0-1.007.318-1.881 1.352-1.696 2.014-2.173 5.405-2.173 7.631 0 1.431.133 2.73.583 5.697-.026.027-1.404 1.431-1.96 1.882-2.412 2.252-5.75 5.458-5.75 10.758 0 4.955 4.318 8.85 9.247 8.85.768 0 1.484-.08 2.093-.185.504 2.543.795 4.398.795 5.803 0 2.756-1.404 4.213-4.08 4.213-.636 0-1.193-.132-1.246-.132-.026-.027-.08-.053-.08-.08 0-.053.054-.08.133-.106 1.246-.185 2.49-1.245 2.49-2.941 0-1.431-1.085-2.942-3.073-2.942-1.855 0-3.047 1.511-3.047 3.26m551.303.757c0 1.139.821 2.411 2.968 2.411 2.756 0 5.644-2.253 5.644-4.584 0-1.563-1.324-2.438-2.968-2.438-2.57 0-5.644 2.173-5.644 4.61M115.748 14.265c0 1.14.822 2.411 2.968 2.411 2.756 0 5.644-2.252 5.644-4.584 0-1.563-1.325-2.438-2.967-2.438-2.571 0-5.645 2.173-5.645 4.611m-26.85 3.31c0 1.139.822 2.41 2.968 2.41 2.756 0 5.645-2.252 5.645-4.583 0-1.564-1.325-2.438-2.968-2.438-2.57 0-5.645 2.173-5.645 4.61m443.753 29.785c0 1.139.82 2.411 2.967 2.411 2.756 0 5.644-2.253 5.644-4.584 0-1.563-1.325-2.438-2.968-2.438-2.57 0-5.643 2.173-5.643 4.61M152.063 20.884c0 1.14.822 2.411 2.968 2.411 2.755 0 5.644-2.252 5.644-4.584 0-1.563-1.325-2.438-2.968-2.438-2.57 0-5.644 2.173-5.644 4.61m51.055-3.309c0 1.14.821 2.412 2.968 2.412 2.755 0 5.644-2.253 5.644-4.584 0-1.564-1.325-2.438-2.968-2.438-2.57 0-5.644 2.173-5.644 4.61m383.232 6.62c0 1.138.821 2.41 2.968 2.41 2.756 0 5.644-2.252 5.644-4.584 0-1.563-1.325-2.438-2.968-2.438-2.57 0-5.644 2.173-5.644 4.611M505.8 44.048c0 1.14.822 2.412 2.969 2.412 2.755 0 5.644-2.252 5.644-4.584 0-1.564-1.325-2.438-2.968-2.438-2.57 0-5.645 2.173-5.645 4.61M221.018 20.883c0 1.14.82 2.411 2.968 2.411 2.755 0 5.644-2.252 5.644-4.584 0-1.563-1.325-2.438-2.968-2.438-2.57 0-5.645 2.173-5.645 4.61M478.952 40.74c0 1.139.821 2.411 2.967 2.411 2.757 0 5.645-2.252 5.645-4.584 0-1.563-1.325-2.438-2.968-2.438-2.57 0-5.644 2.173-5.644 4.61M238.918 24.193c0 1.14.821 2.412 2.967 2.412 2.756 0 5.644-2.253 5.644-4.585 0-1.563-1.325-2.438-2.967-2.438-2.571 0-5.644 2.173-5.644 4.611M452.1 37.43c0 1.14.821 2.412 2.968 2.412 2.755 0 5.644-2.252 5.644-4.584 0-1.564-1.325-2.438-2.968-2.438-2.57 0-5.644 2.173-5.644 4.61M265.767 20.883c0 1.14.822 2.411 2.968 2.411 2.756 0 5.645-2.252 5.645-4.584 0-1.563-1.325-2.438-2.969-2.438-2.57 0-5.644 2.173-5.644 4.61M53.1 10.956c0 1.14.821 2.411 2.967 2.411 2.757 0 5.645-2.252 5.645-4.584 0-1.563-1.325-2.438-2.968-2.438-2.57 0-5.644 2.173-5.644 4.61M415.787 34.12c0 1.14.821 2.411 2.967 2.411 2.756 0 5.644-2.252 5.644-4.584 0-1.563-1.325-2.437-2.967-2.437-2.571 0-5.644 2.172-5.644 4.61M70.999 14.264c0 1.14.821 2.411 2.968 2.411 2.755 0 5.643-2.252 5.643-4.584 0-1.563-1.324-2.438-2.967-2.438-2.57 0-5.644 2.173-5.644 4.611m317.937 16.547c0 1.14.822 2.411 2.969 2.411 2.755 0 5.644-2.252 5.644-4.584 0-1.564-1.325-2.438-2.968-2.438-2.57 0-5.645 2.173-5.645 4.611m-86.854-3.31c0 1.14.821 2.412 2.967 2.412 2.757 0 5.645-2.253 5.645-4.585 0-1.562-1.325-2.437-2.968-2.437-2.57 0-5.644 2.172-5.644 4.61m68.955 0c0 1.14.821 2.412 2.968 2.412 2.756 0 5.643-2.253 5.643-4.585 0-1.562-1.325-2.437-2.967-2.437-2.57 0-5.644 2.172-5.644 4.61m251.627-3.309c0 1.14.822 2.412 2.969 2.412 2.755 0 5.643-2.253 5.643-4.585 0-1.563-1.324-2.438-2.967-2.438-2.57 0-5.645 2.173-5.645 4.611m-269.527 0c0 1.14.822 2.412 2.968 2.412 2.756 0 5.644-2.253 5.644-4.585 0-1.563-1.325-2.438-2.968-2.438-2.57 0-5.644 2.173-5.644 4.611M594.292 4.918V22.02h.662V4.918ZM353.137 24.19V44.62h.662V24.19Zm17.9 3.31v18.714h.662V27.5Zm25.842-15.985V28.64h.662V11.516ZM302.082 27.5v18.745h.662V27.5ZM71 14.263v18.715h.662V14.263Zm352.73-1.132v18.817h.661V13.131Zm-370.63-2.177v20.428h.662V10.954Zm212.669 9.928v18.764h.662V20.882Zm194.276-2.747v17.122h.662V18.135Zm26.85 1.615v18.817h.661V19.75Zm-247.977 4.441v17.07h.662V24.19Zm274.826.562v17.123h.662V24.753Zm-292.725-3.871v18.714h.662V20.882Zm-105.27-6.619v18.764h.662V14.263ZM540.592 26.37v18.817h.662V26.369Zm-337.474-8.797v20.429h.662V17.572zm364.325-9.425v37.039h.662V8.147ZM88.899 17.572v17.07h.662v-17.07Zm63.164 3.31v22.054h.662V20.882Zm470.601 3.31V44.59h.663V24.191Zm-65.348 21.523v1.06h12.974v-1.06zm-26.85 0v1.06h12.974v-1.06ZM215.398 6.16c-2.99.164-5.946 1.561-8.106 4.24l.002.015a.165.165 0 0 0 .004.2l.018.008v.01a.2.2 0 0 0 .05.014.2.2 0 0 0 .059.017.2.2 0 0 0 .058-.02.2.2 0 0 0 .048-.017c2.34-2.098 5.725-3.017 9.044-2.809 3.32.21 6.563 1.545 8.621 3.92a.165.165 0 0 0 .266-.196c-2.325-3.765-6.221-5.593-10.064-5.382m.02.318c3.198-.177 6.43 1.113 8.712 3.8-2.065-1.668-4.772-2.616-7.535-2.79s-5.566.428-7.824 1.824c1.928-1.763 4.276-2.703 6.646-2.834m-7.998 4.026c4.873-6.042 13.823-5.48 17.9 1.125-4.189-4.832-13.138-5.395-17.9-1.125M71.432.006c-5.108-.1-10.13 1.086-14.122 3.741l-.003.014a.165.165 0 0 0-.054.196l.014.005-.003.015a.165.165 0 0 0 .197.052l.013.005c5.037-2.445 12.025-2.856 18.711-1.62s13.066 4.118 16.896 8.203a.165.165 0 0 0 .255-.21C89.631 5.2 83.282 1.775 76.534.528a31.5 31.5 0 0 0-5.102-.521m-.005.331c1.684.033 3.378.206 5.047.515C82.311 1.93 87.84 4.66 91.57 8.75c-3.93-3.283-9.512-5.587-15.325-6.661-5.812-1.075-11.85-.92-16.693.74C63.084 1.057 67.223.257 71.427.338M57.402 3.885c10.553-7.019 28.453-3.71 35.8 6.619-7.732-8.246-25.632-11.555-35.8-6.619m308.015 8.894c-2.989.163-5.946 1.56-8.106 4.24l.002.015a.165.165 0 0 0 .004.199h.017l.002.018a.165.165 0 0 0 .199-.006h.016c2.339-2.097 5.724-3.016 9.043-2.808 3.32.209 6.563 1.545 8.622 3.919a.165.165 0 0 0 .265-.195c-2.325-3.765-6.22-5.593-10.063-5.382zm.02.318c3.197-.177 6.429 1.113 8.712 3.8-2.065-1.669-4.772-2.616-7.535-2.79s-5.567.428-7.824 1.824c1.928-1.764 4.276-2.703 6.646-2.834m-7.997 4.025c4.873-6.042 13.822-5.48 17.9 1.126-4.19-4.832-13.14-5.395-17.9-1.126m-64.822-4.335V39.99h1.19V12.787Zm150.018 0V39.99h1.192V12.787Zm170.564 0V39.99h1.191V12.787Zm64.16 0V39.99H681V12.787Zm-3.64 0V39.99h1.191V12.787Zm-531.122 0V39.99h1.192V12.787ZM0 39.262v.728h681v-.728zm0-6.619v.728h681v-.728zm0-6.619v.728h681v-.728zm0-6.618v.728h681v-.728zm0-6.619v.728h681v-.728z"/>
</svg>
