<?xml version="1.0" encoding="UTF-8" standalone="no"?>
<svg
   width="681"
   height="190.30003"
   version="1.2"
   id="svg258"
   xmlns="http://www.w3.org/2000/svg"
   xmlns:svg="http://www.w3.org/2000/svg"
   xmlns:rdf="http://www.w3.org/1999/02/22-rdf-syntax-ns#"
   xmlns:cc="http://creativecommons.org/ns#"
   xmlns:dc="http://purl.org/dc/elements/1.1/">
  <defs
     id="defs258" />
  <title
     id="title1">air_XXXVIII</title>
  <desc
     id="desc1">Generated by MuseScore Studio 4.7.3</desc>
  <path
     id="path258"
     class="NoteDot"
     d="m 450.66172,34.760087 c 0,0.741307 0.5828,1.324906 1.32491,1.324906 0.74131,0 1.3249,-0.583599 1.3249,-1.324906 0,-0.742107 -0.58359,-1.324906 -1.3249,-1.324906 -0.74211,0 -1.32491,0.582799 -1.32491,1.324906 m 108.81921,0 c 0,0.741307 0.5828,1.324906 1.3249,1.324906 0.74131,0 1.32491,-0.583599 1.32491,-1.324906 0,-0.742107 -0.5836,-1.324906 -1.32491,-1.324906 -0.7421,0 -1.3249,0.582799 -1.3249,1.324906 m -258.65045,0 c 0,0.741307 0.58279,1.324906 1.3249,1.324906 0.74211,0 1.32491,-0.583599 1.32491,-1.324906 0,-0.742107 -0.5828,-1.324906 -1.32491,-1.324906 -0.74211,0 -1.3249,0.582799 -1.3249,1.324906 m 346.31839,-6.618926 c 0,0.742108 0.5828,1.324906 1.32491,1.324906 0.7421,0 1.3249,-0.582798 1.3249,-1.324906 0,-0.742107 -0.5828,-1.324905 -1.3249,-1.324905 -0.74211,0 -1.32491,0.582798 -1.32491,1.324905 M 144.27943,160.51487 c 0,0.74211 0.5828,1.32491 1.32491,1.32491 0.74211,0 1.32491,-0.5828 1.32491,-1.32491 0,-0.74211 -0.5828,-1.3249 -1.32491,-1.3249 -0.74211,0 -1.32491,0.58279 -1.32491,1.3249 m -59.668794,9.25513 24.539174,0.67246 v 3.31026 L 84.610636,173.08026 V 169.77 m -35.814885,3.98192 60.354059,1.65473 v 3.31027 l -60.354059,-1.65473 v -3.31027 m 0,-62.8862 47.831902,-4.96419 v 3.32788 l -47.831902,4.96339 v -3.32708 m 0,4.9642 47.831902,-4.9642 v 3.32708 l -47.831902,4.96419 v -3.32707 M 329.18666,41.367005 370.93361,36.40281 v 3.332679 l -41.74695,4.964194 v -3.332678 m 0,4.964194 41.74695,-4.964194 v 3.332678 l -41.74695,4.964195 V 46.331199 M 669.87961,8.2818227 662.59943,8.7330112 v 3.3156268 l 7.28018,-0.451108 V 8.2818227 M 643.17655,4.9724399 669.87961,3.3177885 V 6.6334956 L 643.17655,8.288147 V 4.9724399 m -539.19107,3.312585 h 21.2041 v 3.3093031 h -21.2041 V 8.2850249 M 505.57127,150.58568 577.8631,147.27622 v 3.31266 l -72.29183,3.30947 v -3.31267 m 0,-4.96419 72.29183,-3.30946 v 3.31266 l -72.29183,3.30946 v -3.31266 M 323.56122,14.900508 l -7.28098,0.451189 v 3.315707 l 7.28098,-0.451189 v -3.315707 m -26.70306,-3.309303 26.70306,-1.654731 v 3.315707 l -26.70306,1.654652 v -3.315628 m -30.26549,99.283325 h 71.41603 v 3.30946 h -71.41603 v -3.30946 M 615.78663,9.6389906 630.14364,8.2775798 v 3.3241932 l -14.35701,1.361411 V 9.6389906 M 595.24458,6.6229284 630.14364,3.3135456 V 6.6377385 L 595.24458,9.9471213 V 6.6229284 M 384.5165,106.8854 l 16.3848,0.67887 v 3.31186 l -16.3848,-0.67806 v -3.31267 m -23.58493,3.98833 39.96973,1.65473 v 3.31187 l -39.96973,-1.65474 v -3.31186 m 221.2793,-95.973222 -7.28018,0.451189 v 3.315707 l 7.28018,-0.451189 v -3.315707 m -26.70226,-3.309303 26.70226,-1.654731 v 3.315707 l -26.70226,1.654652 v -3.315628 m -389.89619,3.598381 14.35702,1.361331 v 3.324193 l -14.35702,-1.361331 v -3.324193 m -20.54204,-6.9120062 34.89906,3.3093832 v 3.324192 L 145.07038,11.601773 V 8.2775798 m 21.73005,69.4999202 47.83191,3.309463 v 3.316668 L 166.80043,81.094968 V 77.7775 m 0,-4.964194 47.83191,3.309463 v 3.317468 l -47.83191,-3.309463 v -3.317468 m 257.1046,1.654731 24.24698,1.654732 v 3.317468 l -24.24698,-1.654731 v -3.317469 m -13.84067,72.808183 72.29183,3.30946 v 3.31267 l -72.29183,-3.30947 v -3.31266 m 0,-4.96419 72.29183,3.30946 v 3.31266 l -72.29183,-3.30946 v -3.31266 M 500.72876,9.9383954 542.4749,11.593047 v 3.311944 L 500.72876,13.25034 V 9.9383954 m 0,-4.9640342 41.74614,1.6546514 V 9.9409571 L 500.72876,8.2863057 V 4.9743612 M 472.59752,107.56587 h 24.24618 v 3.30866 h -24.24618 v -3.30866 m 70.75398,1.94693 16.3848,1.35613 v 3.32067 l -16.3848,-1.35613 v -3.32067 m -23.58493,3.01086 39.96973,3.30946 v 3.32067 l -39.96973,-3.30946 v -3.32067 M 185.59488,41.378212 h 21.2049 v 3.309463 h -21.2049 v -3.309463 m 287.79758,-31.441738 -7.28097,0.451189 v 3.315707 l 7.28097,-0.451189 V 9.936474 M 446.68941,6.6271713 473.39246,4.9724399 V 8.288147 L 446.68941,9.9428784 V 6.6271713 M 119.63138,71.147367 143.87756,74.45683 v 3.339883 L 119.63138,74.48725 V 71.147367 M 574.7978,107.56587 h 24.24698 v 3.30866 H 574.7978 v -3.30866 m 70.75398,1.94693 16.3856,1.35613 v 3.32067 l -16.3856,-1.35613 v -3.32067 m -23.58413,3.01086 39.96973,3.30946 v 3.32067 l -39.96973,-3.30946 v -3.32067 M 391.90955,4.9639541 433.65569,9.9279882 V 13.260667 L 391.90955,8.2966328 V 4.9639541 M 391.90955,0 433.65569,4.9639541 V 8.2966328 L 391.90955,3.3325987 V 0 m -136.7447,10.911781 14.35702,0.680705 v 3.313066 L 255.16485,14.224846 V 10.911781 M 234.62281,4.9738008 269.52187,6.6284522 V 9.9415175 L 234.62281,8.2868661 V 4.9738008 m 62.52755,175.3970492 72.29183,1.65473 v 3.31026 l -72.29183,-1.65473 v -3.31026 m 0,4.96419 72.29183,1.65473 v 3.31027 l -72.29183,-1.65473 v -3.31027 m -118.72198,-11.58392 -7.28097,0.26178 v 3.31187 l 7.28097,-0.26178 v -3.31187 m -46.06349,6.61893 46.06349,-1.65473 v 3.31186 l -46.06349,1.65473 v -3.31186 m 69.27777,-4.9626 h 72.29263 v 3.30867 h -72.29263 v -3.30867 m 0,4.9634 h 72.29263 v 3.30946 h -72.29263 v -3.30946 M 47.479651,20.088616 c -0.662052,0.423969 -1.139179,1.192415 -1.139179,2.040355 0,0.105992 0,0.211985 0.02642,0.317977 0.132091,1.086263 1.007089,1.934042 2.093432,2.066933 h 0.291399 c 1.324906,0 2.384831,-1.059924 2.384831,-2.38491 v -0.158989 c 0,-0.105993 -0.02642,-0.291479 -0.05284,-0.397472 -0.238564,-1.139419 -1.27207,-3.577246 -5.77675,-3.577246 -5.77675,0 -6.438803,4.79616 -6.438803,6.518617 0,3.153356 0.397072,7.101656 7.021601,7.101656 2.623394,0 4.663989,-1.537051 4.769661,-4.37259 0,-0.13209 -0.07925,-0.212145 -0.212145,-0.212145 h -0.344235 c -0.105672,0 -0.212145,0.106473 -0.212145,0.212145 -0.105672,2.199104 -1.669141,3.52401 -4.001136,3.52401 -2.305576,0 -3.418337,-1.244851 -3.418337,-3.576846 v -5.06114 c 0,-1.483895 0.582798,-3.179775 2.941211,-3.179775 1.245652,0 1.802032,0.450468 2.093431,0.900936 0.02642,0.053 0.02642,0.0795 0.02642,0.132491 0,0.0265 0,0.07949 -0.05284,0.105993 M 30.371954,93.268092 c 0,2.093431 -1.086343,3.206192 -2.623394,4.425426 l 0.07925,-5.167534 c 0.05284,-0.238563 0.450709,-1.007088 1.510633,-1.007088 0.954253,0 1.033507,0.901416 1.033507,1.457797 v 0.291399 m -0.317817,-3.046883 c -1.324906,0 -2.093432,0.821361 -2.226323,0.97987 l 0.106473,-8.505816 c 0,-0.212145 -0.159309,-0.370654 -0.371454,-0.370654 h -0.317817 c -0.212145,0 -0.370654,0.158509 -0.370654,0.370654 l 0.132091,15.925289 c 0,0.212145 0.159309,0.371454 0.371454,0.371454 0.05284,0 0.158508,-0.02642 0.211344,-0.05364 2.279159,-1.139179 4.663989,-3.311865 4.663989,-6.040931 0,-1.378542 -0.635634,-2.676229 -2.199103,-2.676229 M 30.37195,23.771771 c 0,2.093431 -1.086343,3.206192 -2.623394,4.425426 l 0.07925,-5.167293 c 0.05284,-0.238483 0.450709,-1.006929 1.510633,-1.006929 0.954253,0 1.033507,0.900936 1.033507,1.457397 v 0.291399 M 30.054137,20.72457 c -1.324906,0 -2.093432,0.821442 -2.226323,0.980431 l 0.106473,-8.505896 c 0,-0.211985 -0.159309,-0.370974 -0.371454,-0.370974 h -0.317817 c -0.212145,0 -0.370654,0.158989 -0.370654,0.370974 l 0.132091,15.925129 c 0,0.212145 0.159309,0.371454 0.371454,0.371454 0.05284,0 0.158508,-0.02642 0.211344,-0.05364 2.279159,-1.139179 4.663989,-3.311865 4.663989,-6.040931 0,-1.378142 -0.635634,-2.67655 -2.199103,-2.67655 m 0.317817,142.039843 c 0,2.09343 -1.086343,3.20619 -2.623394,4.42543 l 0.07925,-5.16754 c 0.05284,-0.23856 0.450709,-1.00629 1.510633,-1.00629 0.954253,0 1.033507,0.90062 1.033507,1.457 v 0.2914 m -0.317817,-3.04688 c -1.324906,0 -2.093432,0.82136 -2.226323,0.97987 l 0.106473,-8.50582 c 0,-0.21214 -0.159309,-0.37065 -0.371454,-0.37065 h -0.317817 c -0.212145,0 -0.370654,0.15851 -0.370654,0.37065 l 0.132091,15.92529 c 0,0.21214 0.159309,0.37145 0.371454,0.37145 0.05284,0 0.158508,-0.0264 0.211344,-0.0528 2.279159,-1.13998 4.663989,-3.31267 4.663989,-6.04173 0,-1.37775 -0.635634,-2.67623 -2.199103,-2.67623 m -13.960826,16.18386 c -0.529962,0.10647 -1.033427,0.15931 -1.536891,0.15931 -3.789231,0 -7.0220012,-2.64981 -7.0220012,-6.65095 0,-3.23261 2.2788382,-6.12098 4.6106722,-8.13516 0.450468,-0.39707 0.874438,-0.76852 1.27191,-1.1656 0.238483,1.43058 0.42397,2.67623 0.609457,3.76258 -2.411329,0.71569 -4.0542123,3.25903 -4.0542123,5.75033 0,1.85487 1.4573963,4.39821 3.5772463,4.39821 0.211985,0 0.450468,-0.10568 0.450468,-0.34424 0,-0.23856 -0.264982,-0.37065 -0.582959,-0.5828 -1.033427,-0.63643 -1.616385,-1.3249 -1.616385,-2.62339 0,-1.61631 1.192415,-2.91479 2.755804,-3.28545 l 1.536891,8.71716 M 13.761473,148.662 c 0.238483,-1.05993 1.457396,-3.84263 2.835298,-3.84263 0.397472,0 1.033427,1.29849 1.033427,3.12694 0,2.75548 -2.040355,4.8225 -3.868725,6.62453 -0.158989,-1.05993 -0.29148,-2.09343 -0.29148,-3.20619 0,-0.98068 0.0795,-1.88129 0.29148,-2.70265 m 6.094567,22.33767 c 0,1.88129 -0.768446,3.81541 -2.649812,4.58393 -0.556461,-3.17977 -1.27191,-7.39305 -1.457397,-8.55865 2.384831,0 4.107209,1.61631 4.107209,3.97472 M 8.1968718,184.03655 c 0,1.7492 1.351404,4.05398 4.9286502,4.05398 1.245411,0 2.331834,-0.31782 3.285766,-0.90062 1.430899,-1.00709 1.801872,-2.75548 1.801872,-4.42543 0,-1.0335 -0.158988,-2.22552 -0.423969,-3.73615 -0.07949,-0.52996 -0.238484,-1.32491 -0.397472,-2.35841 2.596815,-0.84778 4.531178,-3.55043 4.531178,-6.2795 0,-4.00113 -2.835299,-6.70458 -6.704024,-6.70458 -0.264981,-1.58989 -0.529962,-3.15336 -0.768445,-4.63677 2.8088,-2.94121 4.743163,-6.25388 4.743163,-10.46716 0,-2.41125 -0.741948,-4.37179 -1.165917,-5.32604 -0.635955,-1.35132 -1.404401,-2.27836 -1.881367,-2.27836 -0.185487,0 -1.006928,0.31782 -1.881366,1.35133 -1.69588,2.01337 -2.172846,5.40529 -2.172846,7.63162 0,1.43057 0.132491,2.72906 0.582959,5.69669 -0.0265,0.0264 -1.404401,1.43058 -1.960861,1.88129 -2.4113287,2.25274 -5.7500916,5.45893 -5.7500916,10.75855 0,4.95459 4.3191932,8.85005 9.2478436,8.85005 0.768445,0 1.483894,-0.0793 2.093351,-0.18572 0.503464,2.54414 0.794943,4.399 0.794943,5.80316 0,2.75629 -1.4044,4.21329 -4.08071,4.21329 -0.635955,0 -1.192415,-0.13209 -1.245411,-0.13209 -0.0265,-0.0264 -0.07949,-0.0528 -0.07949,-0.0801 0,-0.0528 0.053,-0.0793 0.132491,-0.10567 1.245412,-0.18573 2.490823,-1.24565 2.490823,-2.94121 0,-1.43058 -1.086423,-2.94121 -3.073782,-2.94121 -1.8548679,0 -3.0472832,1.51063 -3.0472832,3.25902 m 7.8964392,-77.63148 c -0.529962,0.10648 -1.033427,0.15931 -1.536891,0.15931 -3.789231,0 -7.0220012,-2.64981 -7.0220012,-6.650944 0,-3.232611 2.2788382,-6.120986 4.6106722,-8.135163 0.450468,-0.397071 0.874438,-0.768525 1.27191,-1.165597 0.238483,1.430578 0.42397,2.67623 0.609457,3.762573 -2.411329,0.715689 -4.0542123,3.259028 -4.0542123,5.750331 0,1.85487 1.4573963,4.39821 3.5772463,4.39821 0.211985,0 0.450468,-0.10567 0.450468,-0.34424 0,-0.23856 -0.264982,-0.37065 -0.582959,-0.5828 -1.033427,-0.63643 -1.616385,-1.3249 -1.616385,-2.62339 0,-1.616305 1.192415,-2.914793 2.755804,-3.286247 l 1.536891,8.717957 M 13.761477,79.165649 c 0.238483,-1.059924 1.457396,-3.842627 2.835298,-3.842627 0.397472,0 1.033427,1.298488 1.033427,3.126938 0,2.755484 -2.040355,4.822497 -3.868725,6.624529 -0.158989,-1.059924 -0.29148,-2.093431 -0.29148,-3.206192 0,-0.98067 0.0795,-1.881286 0.29148,-2.702648 m 6.094567,22.337671 c 0,1.88129 -0.768446,3.81541 -2.649812,4.58394 -0.556461,-3.17978 -1.27191,-7.393058 -1.457397,-8.558655 2.384831,0 4.107209,1.616305 4.107209,3.974715 M 8.1968718,114.54024 c 0,1.74919 1.351404,4.05397 4.9286502,4.05397 1.245411,0 2.331834,-0.31782 3.285766,-0.90062 1.430899,-1.00709 1.801872,-2.75548 1.801872,-4.42542 0,-1.03351 -0.158988,-2.22552 -0.423969,-3.73616 -0.07949,-0.52996 -0.238484,-1.3249 -0.397472,-2.35841 2.596815,-0.84778 4.531178,-3.55043 4.531178,-6.27949 0,-4.00194 -2.835299,-6.704588 -6.704024,-6.704588 -0.264981,-1.589887 -0.529962,-3.153356 -0.768445,-4.636771 2.8088,-2.941211 4.743163,-6.253876 4.743163,-10.467156 0,-2.411249 -0.741948,-4.37179 -1.165917,-5.326042 -0.635955,-1.351324 -1.404401,-2.278358 -1.881367,-2.278358 -0.185487,0 -1.006928,0.317817 -1.881366,1.351324 -1.69588,2.013377 -2.172846,5.405296 -2.172846,7.630818 0,1.431378 0.132491,2.729866 0.582959,5.697495 -0.0265,0.02642 -1.404401,1.430578 -1.960861,1.881287 -2.4113287,2.25274 -5.7500916,5.458932 -5.7500916,10.758556 0,4.954585 4.3191932,8.850055 9.2478436,8.850055 0.768445,0 1.483894,-0.0793 2.093351,-0.18573 0.503464,2.54414 0.794943,4.39901 0.794943,5.80317 0,2.75628 -1.4044,4.21328 -4.08071,4.21328 -0.635955,0 -1.192415,-0.13209 -1.245411,-0.13209 -0.0265,-0.0264 -0.07949,-0.0536 -0.07949,-0.0801 0,-0.0528 0.053,-0.0793 0.132491,-0.10567 1.245412,-0.18573 2.490823,-1.24565 2.490823,-2.94121 0,-1.43138 -1.086423,-2.94121 -3.073782,-2.94121 -1.8548679,0 -3.0472832,1.50983 -3.0472832,3.25903 M 16.093311,36.908756 c -0.529962,0.106473 -1.033427,0.159309 -1.536891,0.159309 -3.789231,0 -7.0220012,-2.649812 -7.0220012,-6.650947 0,-3.232611 2.2788382,-6.120986 4.6106722,-8.135003 0.450468,-0.397471 0.874438,-0.768445 1.27191,-1.165917 0.238483,1.430899 0.42397,2.67639 0.609457,3.762733 -2.411329,0.715689 -4.0542123,3.259028 -4.0542123,5.750332 0,1.854868 1.4573963,4.398207 3.5772463,4.398207 0.211985,0 0.450468,-0.105672 0.450468,-0.344235 0,-0.238564 -0.264982,-0.370654 -0.582959,-0.582799 -1.033427,-0.636435 -1.616385,-1.324906 -1.616385,-2.623394 0,-1.616305 1.192415,-2.914793 2.755804,-3.286247 l 1.536891,8.717961 M 13.761477,9.6690112 C 13.99996,8.6090864 15.218873,5.826784 16.596775,5.826784 c 0.397472,0 1.033427,1.2984078 1.033427,3.126778 0,2.755804 -2.040355,4.822657 -3.868725,6.624529 -0.158989,-1.059924 -0.29148,-2.093351 -0.29148,-3.206272 0,-0.98043 0.0795,-1.881366 0.29148,-2.7028078 m 6.094567,22.3379938 c 0,1.881286 -0.768446,3.815408 -2.649812,4.583934 -0.556461,-3.179774 -1.27191,-7.393055 -1.457397,-8.558652 2.384831,0 4.107209,1.616305 4.107209,3.974718 M 8.1968718,45.043919 c 0,1.749196 1.351404,4.053972 4.9286502,4.053972 1.245411,0 2.331834,-0.317818 3.285766,-0.900616 1.430899,-1.007089 1.801872,-2.755484 1.801872,-4.425426 0,-1.033507 -0.158988,-2.225522 -0.423969,-3.736155 -0.07949,-0.529962 -0.238484,-1.324906 -0.397472,-2.358412 2.596815,-0.84778 4.531178,-3.550428 4.531178,-6.279494 0,-4.001936 -2.835299,-6.704584 -6.704024,-6.704584 -0.264981,-1.589647 -0.529962,-3.153036 -0.768445,-4.636931 2.8088,-2.941291 4.743163,-6.253555 4.743163,-10.4667562 0,-2.4113287 -0.741948,-4.3721895 -1.165917,-5.3261217 -0.635955,-1.351404 -1.404401,-2.2788382 -1.881367,-2.2788382 -0.185487,0 -1.006928,0.3179775 -1.881366,1.3514041 -1.69588,2.0138569 -2.172846,5.405616 -2.172846,7.631458 0,1.430898 0.132491,2.729306 0.582959,5.697095 -0.0265,0.0265 -1.404401,1.430899 -1.960861,1.881367 -2.4113287,2.25234 -5.7500916,5.458852 -5.7500916,10.758476 0,4.954587 4.3191932,8.850051 9.2478436,8.850051 0.768445,0 1.483894,-0.07925 2.093351,-0.185727 0.503464,2.54414 0.794943,4.399008 0.794943,5.803168 0,2.756284 -1.4044,4.213281 -4.08071,4.213281 -0.635955,0 -1.192415,-0.132091 -1.245411,-0.132091 -0.0265,-0.02642 -0.07949,-0.05364 -0.07949,-0.08005 0,-0.05284 0.053,-0.07925 0.132491,-0.105673 1.245412,-0.185727 2.490823,-1.245651 2.490823,-2.941211 0,-1.431378 -1.086423,-2.941211 -3.073782,-2.941211 -1.8548679,0 -3.0472832,1.509833 -3.0472832,3.259029 M 95.9656,88.822652 c 0,1.139179 0.821362,2.411249 2.967629,2.411249 2.755481,0 5.643861,-2.25274 5.643861,-4.584735 0,-1.563469 -1.32491,-2.437667 -2.96763,-2.437667 -2.570558,0 -5.64386,2.172686 -5.64386,4.611153 m 129.55418,69.496318 c 0,1.13918 0.82136,2.41125 2.96763,2.41125 2.75629,0 5.64386,-2.25274 5.64386,-4.58474 0,-1.56346 -1.32491,-2.43766 -2.96763,-2.43766 -2.56976,0 -5.64386,2.17268 -5.64386,4.61115 m -47.75345,0 c 0,1.13918 0.82136,2.41125 2.96763,2.41125 2.75628,0 5.64386,-2.25274 5.64386,-4.58474 0,-1.56346 -1.32491,-2.43766 -2.96763,-2.43766 -2.56976,0 -5.64386,2.17268 -5.64386,4.61115 M 314.95693,32.563385 c 0,1.139179 0.82137,2.411249 2.96763,2.411249 2.75549,0 5.64386,-2.25194 5.64386,-4.583934 0,-1.563469 -1.3249,-2.437667 -2.96763,-2.437667 -2.57055,0 -5.64386,2.172685 -5.64386,4.610352 m -26.041,3.309463 c 0,1.139179 0.82136,2.411249 2.96763,2.411249 2.75548,0 5.64386,-2.252741 5.64386,-4.583935 0,-1.563469 -1.32491,-2.438467 -2.96763,-2.438467 -2.57056,0 -5.64386,2.173486 -5.64386,4.611153 M 249.39611,161.62763 c 0,1.13998 0.82216,2.41205 2.96843,2.41205 2.75548,0 5.64386,-2.25274 5.64386,-4.58473 0,-1.56347 -1.32491,-2.43767 -2.96763,-2.43767 -2.57056,0 -5.64466,2.17269 -5.64466,4.61035 m -117.03122,0 c 0,1.13998 0.82136,2.41205 2.96763,2.41205 2.75548,0 5.64386,-2.25274 5.64386,-4.58473 0,-1.56347 -1.32491,-2.43767 -2.96763,-2.43767 -2.57056,0 -5.64386,2.17269 -5.64386,4.61035 M 329.18666,29.253922 c 0,1.139179 0.82137,2.411249 2.96843,2.411249 2.75549,0 5.64386,-2.25194 5.64386,-4.583934 0,-1.563469 -1.3249,-2.437667 -2.96763,-2.437667 -2.57055,0 -5.64466,2.172686 -5.64466,4.610352 M 108.48776,158.31897 c 0,1.13918 0.82136,2.41125 2.96763,2.41125 2.75629,0 5.64386,-2.25274 5.64386,-4.58474 0,-1.56346 -1.32491,-2.43766 -2.96763,-2.43766 -2.56976,0 -5.64386,2.17268 -5.64386,4.61115 M 260.91759,32.563385 c 0,1.139179 0.82136,2.411249 2.96762,2.411249 2.75629,0 5.64386,-2.25194 5.64386,-4.583934 0,-1.563469 -1.3249,-2.437667 -2.96763,-2.437667 -2.56975,0 -5.64385,2.172685 -5.64385,4.610352 M 84.610636,155.00951 c 0,1.13918 0.822162,2.41125 2.96843,2.41125 2.755484,0 5.643859,-2.25274 5.643859,-4.58394 0,-1.56347 -1.324906,-2.43847 -2.967629,-2.43847 -2.570558,0 -5.64466,2.17349 -5.64466,4.61116 M 342.88163,25.944459 c 0,1.13998 0.82136,2.411249 2.96843,2.411249 2.75548,0 5.64386,-2.25194 5.64386,-4.583934 0,-1.563309 -1.32491,-2.437747 -2.96763,-2.437747 -2.57056,0 -5.64466,2.172766 -5.64466,4.610432 m -69.6084,132.374511 c 0,1.13918 0.82137,2.41125 2.96763,2.41125 2.75629,0 5.64466,-2.25274 5.64466,-4.58474 0,-1.56346 -1.3249,-2.43766 -2.96843,-2.43766 -2.56975,0 -5.64386,2.17268 -5.64386,4.61115 M 48.795751,151.70004 c 0,1.13918 0.821362,2.41125 2.967629,2.41125 2.756285,0 5.64466,-2.25274 5.64466,-4.58393 0,-1.56347 -1.324906,-2.43847 -2.967629,-2.43847 -2.570558,0 -5.64466,2.17349 -5.64466,4.61115 M 356.57659,22.635317 c 0,1.139659 0.82136,2.410928 2.96843,2.410928 2.75549,0 5.64386,-2.251939 5.64386,-4.583774 0,-1.563389 -1.3249,-2.437827 -2.96763,-2.437827 -2.57056,0 -5.64466,2.172846 -5.64466,4.610673 m -109.35397,6.618605 c 0,1.139179 0.82136,2.411249 2.96763,2.411249 2.75548,0 5.64386,-2.25194 5.64386,-4.583934 0,-1.563469 -1.32491,-2.437667 -2.96763,-2.437667 -2.57056,0 -5.64386,2.172686 -5.64386,4.610352 m 49.92774,132.373708 c 0,1.13998 0.82136,2.41205 2.96763,2.41205 2.75548,0 5.64386,-2.25274 5.64386,-4.58473 0,-1.56347 -1.32491,-2.43767 -2.96763,-2.43767 -2.57056,0 -5.64386,2.17269 -5.64386,4.61035 m 73.1212,-142.301696 c 0,1.139419 0.82136,2.411329 2.96843,2.411329 2.75548,0 5.64385,-2.25234 5.64385,-4.584175 0,-1.563389 -1.3249,-2.437826 -2.96762,-2.437826 -2.57056,0 -5.64466,2.172845 -5.64466,4.610672 m 13.69496,3.309383 c 0,1.139659 0.82136,2.410928 2.96843,2.410928 2.75548,0 5.64386,-2.251939 5.64386,-4.583774 0,-1.563389 -1.32491,-2.437827 -2.96763,-2.437827 -2.57056,0 -5.64466,2.172846 -5.64466,4.610673 M 661.27533,98.75024 c 0,1.139179 0.82136,2.41125 2.96763,2.41125 2.75628,0 5.64386,-2.251941 5.64386,-4.583935 0,-1.563469 -1.32491,-2.437667 -2.96763,-2.437667 -2.56976,0 -5.64386,2.172685 -5.64386,4.610352 m -340.24864,59.56873 c 0,1.13918 0.82136,2.41125 2.96762,2.41125 2.75629,0 5.64466,-2.25274 5.64466,-4.58474 0,-1.56346 -1.3249,-2.43766 -2.96843,-2.43766 -2.56975,0 -5.64385,2.17268 -5.64385,4.61115 M 645.55178,95.440777 c 0,1.13998 0.82216,2.411249 2.96843,2.411249 2.75548,0 5.64386,-2.25194 5.64386,-4.583934 0,-1.563469 -1.32491,-2.437667 -2.96763,-2.437667 -2.57056,0 -5.64466,2.172686 -5.64466,4.610352 M 397.66148,25.944459 c 0,1.13998 0.82137,2.411249 2.96843,2.411249 2.75549,0 5.64386,-2.25194 5.64386,-4.583934 0,-1.563309 -1.3249,-2.437747 -2.96763,-2.437747 -2.57055,0 -5.64466,2.172766 -5.64466,4.610432 m -170.9817,0 c 0,1.13998 0.82136,2.411249 2.96843,2.411249 2.75548,0 5.64385,-2.25194 5.64385,-4.583934 0,-1.563309 -1.3249,-2.437747 -2.96762,-2.437747 -2.57056,0 -5.64466,2.172766 -5.64466,4.610432 m 395.28787,66.186856 c 0,1.139979 0.82136,2.412049 2.96763,2.412049 2.75549,0 5.64386,-2.252741 5.64386,-4.584735 0,-1.563469 -1.32491,-2.437667 -2.96763,-2.437667 -2.57056,0 -5.64386,2.172686 -5.64386,4.610353 M 411.35645,29.253922 c 0,1.139179 0.82136,2.411249 2.96843,2.411249 2.75548,0 5.64386,-2.25194 5.64386,-4.583934 0,-1.563469 -1.32491,-2.437667 -2.96763,-2.437667 -2.57056,0 -5.64466,2.172686 -5.64466,4.610352 m 187.02628,62.877393 c 0,1.139979 0.82136,2.412049 2.96763,2.412049 2.75548,0 5.64385,-2.252741 5.64385,-4.584735 0,-1.563469 -1.3249,-2.437667 -2.96762,-2.437667 -2.57056,0 -5.64386,2.172686 -5.64386,4.610353 M 425.05141,32.563385 c 0,1.139179 0.82136,2.411249 2.96843,2.411249 2.75549,0 5.64386,-2.25194 5.64386,-4.583934 0,-1.563469 -1.32491,-2.437667 -2.96763,-2.437667 -2.57056,0 -5.64466,2.172685 -5.64466,4.610352 m -80.1476,129.064245 c 0,1.13998 0.82136,2.41205 2.96763,2.41205 2.75548,0 5.64386,-2.25274 5.64386,-4.58473 0,-1.56347 -1.32491,-2.43767 -2.96763,-2.43767 -2.57056,0 -5.64386,2.17269 -5.64386,4.61035 M 574.7978,92.131315 c 0,1.139979 0.82136,2.412049 2.96763,2.412049 2.75628,0 5.64466,-2.252741 5.64466,-4.584735 0,-1.563469 -1.32491,-2.437667 -2.96843,-2.437667 -2.56976,0 -5.64386,2.172686 -5.64386,4.610353 M 438.74638,35.872848 c 0,1.139179 0.82136,2.411249 2.96843,2.411249 2.75548,0 5.64385,-2.252741 5.64385,-4.583935 0,-1.563469 -1.3249,-2.438467 -2.96762,-2.438467 -2.57056,0 -5.64466,2.173486 -5.64466,4.611153 M 559.07505,98.75024 c 0,1.139179 0.82136,2.41125 2.96763,2.41125 2.75548,0 5.64386,-2.251941 5.64386,-4.583935 0,-1.563469 -1.32491,-2.437667 -2.96763,-2.437667 -2.57056,0 -5.64386,2.172685 -5.64386,4.610352 M 206.13773,25.944459 c 0,1.13998 0.82136,2.411249 2.96763,2.411249 2.75548,0 5.64386,-2.25194 5.64386,-4.583934 0,-1.563309 -1.32491,-2.437747 -2.96763,-2.437747 -2.57056,0 -5.64386,2.172766 -5.64386,4.610432 M 543.3515,95.440777 c 0,1.13998 0.82136,2.411249 2.96763,2.411249 2.75628,0 5.64386,-2.25194 5.64386,-4.583934 0,-1.563469 -1.32491,-2.437667 -2.96763,-2.437667 -2.56976,0 -5.64386,2.172686 -5.64386,4.610352 M 368.78014,168.24656 c 0,1.13918 0.82136,2.41125 2.96763,2.41125 2.75628,0 5.64466,-2.25194 5.64466,-4.58394 0,-1.56347 -1.32491,-2.43766 -2.96843,-2.43766 -2.56976,0 -5.64386,2.17268 -5.64386,4.61035 M 185.59488,25.944459 c 0,1.13998 0.82137,2.411249 2.96843,2.411249 2.75549,0 5.64386,-2.25194 5.64386,-4.583934 0,-1.563309 -1.3249,-2.437747 -2.96763,-2.437747 -2.57055,0 -5.64466,2.172766 -5.64466,4.610432 m 334.17169,66.186856 c 0,1.139979 0.82136,2.412049 2.96763,2.412049 2.75629,0 5.64466,-2.252741 5.64466,-4.584735 0,-1.563469 -1.3249,-2.437667 -2.96843,-2.437667 -2.56976,0 -5.64386,2.172686 -5.64386,4.610353 M 464.78738,29.253922 c 0,1.139179 0.82216,2.411249 2.96843,2.411249 2.75548,0 5.64386,-2.25194 5.64386,-4.583934 0,-1.563469 -1.32491,-2.437667 -2.96763,-2.437667 -2.57056,0 -5.64466,2.172686 -5.64466,4.610352 m 31.39427,62.877393 c 0,1.139979 0.82136,2.412049 2.96843,2.412049 2.75548,0 5.64386,-2.252741 5.64386,-4.584735 0,-1.563469 -1.32491,-2.437667 -2.96763,-2.437667 -2.57056,0 -5.64466,2.172686 -5.64466,4.610353 m -3.39593,-62.877393 c 0,1.139179 0.82137,2.411249 2.96763,2.411249 2.75629,0 5.64466,-2.25194 5.64466,-4.583934 0,-1.563469 -1.3249,-2.437667 -2.96763,-2.437667 -2.57055,0 -5.64466,2.172686 -5.64466,4.610352 m -321.42057,6.618926 c 0,1.139179 0.82137,2.411249 2.96763,2.411249 2.75549,0 5.64386,-2.252741 5.64386,-4.583935 0,-1.563469 -1.3249,-2.438467 -2.96763,-2.438467 -2.57055,0 -5.64386,2.173486 -5.64386,4.611153 m 301.23237,56.258467 c 0,1.139979 0.82136,2.412049 2.96763,2.412049 2.75548,0 5.64386,-2.252741 5.64386,-4.584735 0,-1.563469 -1.32491,-2.437667 -2.96763,-2.437667 -2.57056,0 -5.64386,2.172686 -5.64386,4.610353 M 402.12133,164.9371 c 0,1.13997 0.82217,2.41124 2.96843,2.41124 2.75549,0 5.64386,-2.25194 5.64386,-4.58393 0,-1.56347 -1.3249,-2.43767 -2.96763,-2.43767 -2.57055,0 -5.64466,2.17269 -5.64466,4.61036 M 506.48069,32.563385 c 0,1.139179 0.82136,2.411249 2.96763,2.411249 2.75628,0 5.64466,-2.25194 5.64466,-4.583934 0,-1.563469 -1.32491,-2.437667 -2.96763,-2.437667 -2.57056,0 -5.64466,2.172685 -5.64466,4.610352 m 13.69496,0 c 0,1.139179 0.82136,2.411249 2.96763,2.411249 2.75629,0 5.64466,-2.25194 5.64466,-4.583934 0,-1.563469 -1.3249,-2.437667 -2.96763,-2.437667 -2.57056,0 -5.64466,2.172685 -5.64466,4.610352 M 439.54772,98.75024 c 0,1.139179 0.82137,2.41125 2.96763,2.41125 2.75629,0 5.64386,-2.251941 5.64386,-4.583935 0,-1.563469 -1.3249,-2.437667 -2.96763,-2.437667 -2.56975,0 -5.64386,2.172685 -5.64386,4.610352 m 94.3229,-62.877392 c 0,1.139179 0.82136,2.411249 2.96763,2.411249 2.75628,0 5.64466,-2.252741 5.64466,-4.583935 0,-1.563469 -1.32491,-2.438467 -2.96763,-2.438467 -2.57056,0 -5.64466,2.173486 -5.64466,4.611153 M 157.67019,32.563385 c 0,1.139179 0.82136,2.411249 2.96763,2.411249 2.75548,0 5.64386,-2.25194 5.64386,-4.583934 0,-1.563469 -1.32491,-2.437667 -2.96763,-2.437667 -2.57056,0 -5.64386,2.172685 -5.64386,4.610352 M 415.9628,95.440777 c 0,1.13998 0.82136,2.411249 2.96763,2.411249 2.75628,0 5.64466,-2.25194 5.64466,-4.583934 0,-1.563469 -1.32491,-2.437667 -2.96843,-2.437667 -2.56976,0 -5.64386,2.172686 -5.64386,4.610352 M 547.56558,39.182311 c 0,1.139179 0.82136,2.411248 2.96763,2.411248 2.75628,0 5.64466,-2.25274 5.64466,-4.584734 0,-1.562669 -1.32491,-2.437667 -2.96763,-2.437667 -2.57056,0 -5.64466,2.172686 -5.64466,4.611153 M 400.24005,95.440777 c 0,1.13998 0.82136,2.411249 2.96763,2.411249 2.75548,0 5.64386,-2.25194 5.64386,-4.583934 0,-1.563469 -1.32491,-2.437667 -2.96763,-2.437667 -2.57056,0 -5.64386,2.172686 -5.64386,4.610352 m 25.75841,72.805783 c 0,1.13918 0.82136,2.41125 2.96763,2.41125 2.75628,0 5.64386,-2.25194 5.64386,-4.58394 0,-1.56347 -1.32491,-2.43766 -2.96763,-2.43766 -2.56976,0 -5.64386,2.17268 -5.64386,4.61035 M 384.5165,92.131315 c 0,1.139979 0.82136,2.412049 2.96763,2.412049 2.75628,0 5.64465,-2.252741 5.64465,-4.584735 0,-1.563469 -1.3249,-2.437667 -2.96842,-2.437667 -2.56976,0 -5.64386,2.172686 -5.64386,4.610353 m 65.35828,79.424705 c 0,1.13918 0.82217,2.41125 2.96843,2.41125 2.75549,0 5.64386,-2.25194 5.64386,-4.58393 0,-1.56347 -1.3249,-2.43767 -2.96763,-2.43767 -2.57055,0 -5.64466,2.17268 -5.64466,4.61035 M 137.12734,29.253922 c 0,1.139179 0.82137,2.411249 2.96763,2.411249 2.75629,0 5.64466,-2.25194 5.64466,-4.583934 0,-1.563469 -1.3249,-2.437667 -2.96763,-2.437667 -2.57055,0 -5.64466,2.172686 -5.64466,4.610352 m 223.80423,62.877393 c 0,1.139979 0.82136,2.412049 2.96763,2.412049 2.75628,0 5.64466,-2.252741 5.64466,-4.584735 0,-1.563469 -1.32491,-2.437667 -2.96763,-2.437667 -2.57056,0 -5.64466,2.172686 -5.64466,4.610353 M 573.60659,35.872848 c 0,1.139179 0.82136,2.411249 2.96843,2.411249 2.75548,0 5.64385,-2.252741 5.64385,-4.583935 0,-1.563469 -1.3249,-2.438467 -2.96762,-2.438467 -2.57056,0 -5.64466,2.173486 -5.64466,4.611153 M 337.34664,95.440777 c 0,1.13998 0.82217,2.411249 2.96843,2.411249 2.75549,0 5.64386,-2.25194 5.64386,-4.583934 0,-1.563469 -1.3249,-2.437667 -2.96763,-2.437667 -2.57055,0 -5.64466,2.172686 -5.64466,4.610352 M 587.30155,32.563385 c 0,1.139179 0.82136,2.411249 2.96843,2.411249 2.75548,0 5.64386,-2.25194 5.64386,-4.583934 0,-1.563469 -1.32491,-2.437667 -2.96763,-2.437667 -2.57056,0 -5.64466,2.172685 -5.64466,4.610352 M 313.76252,95.440777 c 0,1.13998 0.82136,2.411249 2.96763,2.411249 2.75548,0 5.64386,-2.25194 5.64386,-4.583934 0,-1.563469 -1.32491,-2.437667 -2.96763,-2.437667 -2.57056,0 -5.64386,2.172686 -5.64386,4.610352 m 159.98939,79.424703 c 0,1.13918 0.82136,2.41125 2.96763,2.41125 2.75628,0 5.64386,-2.25274 5.64386,-4.58393 0,-1.56347 -1.32491,-2.43847 -2.96763,-2.43847 -2.56976,0 -5.64386,2.17349 -5.64386,4.61115 M 290.17759,95.440777 c 0,1.13998 0.82136,2.411249 2.96763,2.411249 2.75549,0 5.64386,-2.25194 5.64386,-4.583934 0,-1.563469 -1.32491,-2.437667 -2.96763,-2.437667 -2.57056,0 -5.64386,2.172686 -5.64386,4.610352 M 607.8444,29.253922 c 0,1.139179 0.82136,2.411249 2.96763,2.411249 2.75548,0 5.64385,-2.25194 5.64385,-4.583934 0,-1.563469 -1.3249,-2.437667 -2.96762,-2.437667 -2.57056,0 -5.64386,2.172686 -5.64386,4.610352 m -491.2591,0 c 0,1.139179 0.82136,2.411249 2.96763,2.411249 2.75548,0 5.64386,-2.25194 5.64386,-4.583934 0,-1.563469 -1.32491,-2.437667 -2.96763,-2.437667 -2.57056,0 -5.64386,2.172686 -5.64386,4.610352 m 150.00737,66.186855 c 0,1.13998 0.82136,2.411249 2.96763,2.411249 2.75628,0 5.64465,-2.25194 5.64465,-4.583934 0,-1.563469 -1.3249,-2.437667 -2.96842,-2.437667 -2.56976,0 -5.64386,2.172686 -5.64386,4.610352 M 621.53936,25.944459 c 0,1.13998 0.82136,2.411249 2.96763,2.411249 2.75548,0 5.64386,-2.25194 5.64386,-4.583934 0,-1.563309 -1.32491,-2.437747 -2.96763,-2.437747 -2.57056,0 -5.64386,2.172766 -5.64386,4.610432 m 13.69496,3.309463 c 0,1.139179 0.82137,2.411249 2.96763,2.411249 2.75549,0 5.64386,-2.25194 5.64386,-4.583934 0,-1.563469 -1.3249,-2.437667 -2.96763,-2.437667 -2.57055,0 -5.64386,2.172686 -5.64386,4.610352 M 497.62824,174.86548 c 0,1.13918 0.82216,2.41125 2.96843,2.41125 2.75548,0 5.64385,-2.25274 5.64385,-4.58393 0,-1.56347 -1.3249,-2.43847 -2.96762,-2.43847 -2.57056,0 -5.64466,2.17349 -5.64466,4.61115 M 221.75081,105.36917 c 0,1.13917 0.82136,2.41124 2.96762,2.41124 2.75629,0 5.64466,-2.25274 5.64466,-4.58393 0,-1.56347 -1.3249,-2.43847 -2.96843,-2.43847 -2.56975,0 -5.64385,2.17349 -5.64385,4.61116 m 299.75455,66.18685 c 0,1.13918 0.82136,2.41125 2.96763,2.41125 2.75629,0 5.64386,-2.25194 5.64386,-4.58393 0,-1.56347 -1.32491,-2.43767 -2.96763,-2.43767 -2.56976,0 -5.64386,2.17268 -5.64386,4.61035 m -315.4773,-66.18685 c 0,1.13917 0.82136,2.41124 2.96762,2.41124 2.75549,0 5.64386,-2.25274 5.64386,-4.58393 0,-1.56347 -1.3249,-2.43847 -2.96763,-2.43847 -2.57055,0 -5.64385,2.17349 -5.64385,4.61116 M 661.27533,25.944459 c 0,1.13998 0.82136,2.411249 2.96763,2.411249 2.75628,0 5.64386,-2.25194 5.64386,-4.583934 0,-1.563309 -1.32491,-2.437747 -2.96763,-2.437747 -2.56976,0 -5.64386,2.172766 -5.64386,4.610432 M 190.3045,102.0597 c 0,1.13918 0.82137,2.41125 2.96763,2.41125 2.75629,0 5.64466,-2.25194 5.64466,-4.583933 0,-1.563469 -1.3249,-2.437666 -2.96843,-2.437666 -2.56975,0 -5.64386,2.172685 -5.64386,4.610349 M 96.042453,29.253922 c 0,1.139179 0.821361,2.411249 2.967629,2.411249 2.756288,0 5.644658,-2.25194 5.644658,-4.583934 0,-1.563469 -1.3249,-2.437667 -2.96763,-2.437667 -2.570555,0 -5.644657,2.172686 -5.644657,4.610352 M 545.38169,168.24656 c 0,1.13918 0.82216,2.41125 2.96843,2.41125 2.75548,0 5.64386,-2.25194 5.64386,-4.58394 0,-1.56347 -1.32491,-2.43766 -2.96763,-2.43766 -2.57056,0 -5.64466,2.17268 -5.64466,4.61035 M 64.364796,35.872848 c 0,1.139179 0.821362,2.411249 2.96763,2.411249 2.755484,0 5.643859,-2.252741 5.643859,-4.583935 0,-1.563469 -1.324906,-2.438467 -2.96763,-2.438467 -2.570557,0 -5.643859,2.173486 -5.643859,4.611153 M 48.795751,98.75024 c 0,1.139179 0.821362,2.41125 2.967629,2.41125 2.756285,0 5.64466,-2.251941 5.64466,-4.583935 0,-1.563469 -1.324906,-2.437667 -2.967629,-2.437667 -2.570558,0 -5.64466,2.172685 -5.64466,4.610352 M 158.8582,95.440777 c 0,1.13998 0.82136,2.411249 2.96763,2.411249 2.75629,0 5.64386,-2.25194 5.64386,-4.583934 0,-1.563469 -1.3249,-2.437667 -2.96763,-2.437667 -2.56976,0 -5.64386,2.172686 -5.64386,4.610352 M 569.25881,164.9371 c 0,1.13997 0.82136,2.41124 2.96763,2.41124 2.75629,0 5.64466,-2.25194 5.64466,-4.58393 0,-1.56347 -1.3249,-2.43767 -2.96843,-2.43767 -2.56975,0 -5.64386,2.17269 -5.64386,4.61036 M 135.27328,102.0597 c 0,1.13918 0.82136,2.41125 2.96763,2.41125 2.75628,0 5.64466,-2.25194 5.64466,-4.583933 0,-1.563469 -1.32491,-2.437666 -2.96843,-2.437666 -2.56976,0 -5.64386,2.172685 -5.64386,4.610349 M 64.519302,95.440777 c 0,1.13998 0.821362,2.411249 2.967629,2.411249 2.755484,0 5.643859,-2.25194 5.643859,-4.583934 0,-1.563469 -1.324906,-2.437667 -2.967629,-2.437667 -2.570558,0 -5.643859,2.172686 -5.643859,4.610352 M 174.58095,98.75024 c 0,1.139179 0.82217,2.41125 2.96843,2.41125 2.75549,0 5.64386,-2.251941 5.64386,-4.583935 0,-1.563469 -1.3249,-2.437667 -2.96763,-2.437667 -2.57055,0 -5.64466,2.172685 -5.64466,4.610352 m -62.8926,-6.618925 c 0,1.139979 0.82136,2.412049 2.96843,2.412049 2.75548,0 5.64386,-2.252741 5.64386,-4.584735 0,-1.563469 -1.32491,-2.437667 -2.96763,-2.437667 -2.57056,0 -5.64466,2.172686 -5.64466,4.610353 m -31.446301,0 c 0,1.139979 0.821362,2.412049 2.967629,2.412049 2.756285,0 5.64466,-2.252741 5.64466,-4.584735 0,-1.563469 -1.324906,-2.437667 -2.967629,-2.437667 -2.570558,0 -5.64466,2.172686 -5.64466,4.610353 M 201.64266,161.62763 c 0,1.13998 0.82216,2.41205 2.96843,2.41205 2.75548,0 5.64386,-2.25274 5.64386,-4.58473 0,-1.56347 -1.32491,-2.43767 -2.96763,-2.43767 -2.57056,0 -5.64466,2.17269 -5.64466,4.61035 m 393.48024,1.1664 c -0.8742,0 -1.05993,-0.71569 -1.05993,-0.95425 0,-1.29849 4.45185,-3.57685 5.6975,-3.57685 0.63563,0 1.05992,0.37066 1.05992,0.95345 0,1.32491 -4.47826,3.57765 -5.69749,3.57765 m 3.6569,-5.77675 c -2.57056,0 -5.64386,2.14627 -5.64386,4.61035 0,1.13998 0.82136,2.41205 2.96763,2.41205 2.75548,0 5.64386,-2.25274 5.64386,-4.58473 0,-1.56347 -1.32491,-2.43767 -2.96763,-2.43767 M 72.307027,17.6094 c 0,0.07949 0.02642,0.211985 0.212145,0.29148 1.139179,0.370973 3.418337,1.801872 5.140315,4.743163 0.477126,0.821121 1.245651,1.961101 1.245651,4.160204 0,1.907705 -0.503544,3.869046 -1.192815,5.77675 -0.05284,0.158509 -0.105672,0.291399 -0.07925,0.397072 0,0.159309 0.106472,0.264981 0.264981,0.264981 0.185727,0 0.317817,-0.105672 0.42429,-0.291399 1.192015,-2.11985 1.642723,-4.583935 1.642723,-6.995183 -0.132891,-3.418418 -2.093431,-5.935739 -2.093431,-5.935739 0.07925,0 -2.437667,-3.259268 -3.153356,-4.372189 -0.980671,-1.510393 -1.430579,-3.020786 -1.483415,-3.126778 -0.02722,-0.0795 -0.264981,-1.033427 -0.264981,-1.033427 -0.02722,-0.105992 -0.159309,-0.211985 -0.318618,-0.211985 -0.184926,0 -0.344235,0.158989 -0.344235,0.344476 V 17.6094 M 410.06397,143.98358 v 18.78159 h 0.66201 V 143.98358 Z M 143.21589,76.081212 v 23.80659 h 0.66201 V 76.081212 Z M 64.518958,95.439913 v 20.387527 h 0.662013 V 95.439913 Z M 166.80076,74.49528 V 93.2689 h 0.66217 V 74.49528 Z m 15.72278,1.087151 v 20.995916 h 0.66202 V 75.582431 Z M 48.796175,98.749368 v 18.709662 h 0.662013 V 98.749368 Z M 593.13555,161.62689 v 20.39863 h 0.66202 V 161.62689 Z M 198.24711,76.670359 v 23.217443 h 0.66201 V 76.670359 Z m -78.6161,-3.808228 v 17.097315 h 0.66202 V 72.862131 Z M 72.306627,11.647309 v 22.05367 h 0.662012 V 11.647309 Z M 213.96989,77.758295 v 25.438955 h 0.66202 V 77.758295 Z M 669.21789,4.9961985 V 23.77263 h 0.66216 V 4.9961985 Z M 229.69345,81.091038 v 22.106212 h 0.66202 V 81.091038 Z m 347.50792,62.892542 v 18.78159 h 0.66217 V 143.98358 Z M 103.98516,9.9397347 V 27.082077 h 0.66202 V 9.9397347 Z M 643.17695,6.6098018 V 27.082077 h 0.66202 V 6.6098018 Z M 266.59228,95.439913 v 17.089337 h 0.66201 V 95.439913 Z M 629.48197,5.0069875 V 23.77263 h 0.66201 V 5.0069875 Z M 290.17715,95.439913 v 17.089337 h 0.66202 V 95.439913 Z M 615.78698,6.3056875 V 27.082077 h 0.66217 V 6.3056875 Z M 313.76219,95.439913 v 17.089337 h 0.66201 V 95.439913 Z m 23.58487,0 v 17.089337 h 0.66202 V 95.439913 Z M 595.24418,8.2535818 V 30.391532 h 0.66201 V 8.2535818 Z M 360.93194,92.130466 v 20.412384 h 0.66201 V 92.130466 Z m 220.61725,-80.51568 v 22.086193 h 0.66202 V 11.614786 Z m -197.03316,80.51568 v 21.389004 h 0.66217 V 92.130466 Z m 15.72357,3.309447 v 18.730467 h 0.66217 V 95.439913 Z M 423.90547,76.149227 V 93.2689 h 0.66201 V 76.149227 Z m 131.60279,-62.92068 v 23.781887 h 0.66202 V 13.228547 Z M 447.49034,77.759072 v 18.819275 h 0.66202 V 77.759072 Z M 541.81327,8.2718759 V 33.700979 h 0.66201 V 8.2718759 Z m 11.511,136.8044841 v 20.99826 h 0.66217 V 145.07636 Z M 528.11828,7.7290047 V 30.391532 h 0.66202 V 7.7290047 Z m 1.32966,138.4409053 v 23.21415 h 0.66218 V 146.16991 Z M 514.4233,7.1862896 V 30.391532 h 0.66201 V 7.1862896 Z M 472.59719,92.130466 v 17.089344 h 0.66202 V 92.130466 Z m 23.58488,0 v 17.089344 h 0.66201 V 92.130466 Z M 500.72831,6.6434184 V 27.082077 h 0.66217 V 6.6434184 Z M 124.52717,9.9397347 V 27.082077 h 0.66202 V 9.9397347 Z M 505.57083,147.26254 v 25.43113 h 0.66202 v -25.43113 z m 14.19612,-55.132074 v 22.080724 h 0.66201 V 92.130466 Z M 472.72994,6.6509236 V 27.082077 h 0.66217 V 6.6509236 Z m 70.6211,88.7889894 v 20.724647 h 0.66218 V 95.439913 Z m 15.72357,3.309455 v 18.716852 h 0.66216 V 98.749368 Z m 15.72277,-6.618902 v 17.089344 h 0.66202 V 92.130466 Z M 446.68901,8.2645268 V 33.700979 h 0.66202 V 8.2645268 Z M 598.38226,92.130466 v 17.089344 h 0.66218 V 92.130466 Z M 432.99403,6.5910394 V 30.391532 h 0.66201 V 6.5910394 Z M 621.96729,92.130466 v 22.080724 h 0.66202 V 92.130466 Z M 419.29904,4.962582 v 22.119495 h 0.66216 V 4.962582 Z m 226.25313,90.477331 v 20.724647 h 0.66202 V 95.439913 Z M 405.60404,3.3341245 V 23.77263 h 0.66218 V 3.3341245 Z M 661.27495,98.749368 v 18.716852 h 0.66202 V 98.749368 Z M 145.06997,9.9710065 V 27.082077 h 0.66202 V 9.9710065 Z M 391.90921,1.7056678 V 20.463493 h 0.66202 V 1.7056678 Z m 89.7853,145.5568722 v 25.43113 h 0.66201 V 147.26254 Z M 370.27192,19.324902 v 23.747333 h 0.66202 V 19.324902 Z M 48.796175,151.69932 v 23.717 h 0.662013 v -23.717 z M 356.57693,22.634352 v 22.066964 h 0.66217 V 22.634352 Z M 84.610973,155.00877 v 21.389 h 0.662172 v -21.389 z M 342.8821,25.943643 v 20.385971 h 0.66201 V 25.943643 Z M 108.4873,158.31744 v 18.73516 h 0.66217 v -18.73516 z m 23.87726,3.30945 v 20.38675 h 0.66202 V 161.62689 Z M 329.1871,29.253098 v 18.704821 h 0.66203 V 29.253098 Z M 177.76591,158.31744 v 22.0654 h 0.66203 v -22.0654 z M 322.89875,11.614786 v 18.776746 h 0.66201 V 11.614786 Z M 201.64302,161.62689 v 20.39863 h 0.66202 v -20.39863 z m 23.87633,-3.30945 v 23.70808 h 0.66201 v -23.70808 z m 23.87711,3.30945 v 20.39863 h 0.66217 V 161.62689 Z M 296.85782,13.228547 v 20.472432 h 0.66201 V 13.228547 Z M 457.8174,146.16991 v 23.21415 h 0.66202 V 146.16991 Z M 165.61198,11.919057 V 30.391532 H 166.274 V 11.919057 Z M 273.27279,158.31744 v 23.70808 h 0.66217 V 158.31744 Z M 268.86023,8.2693742 V 30.391532 h 0.66202 V 8.2693742 Z M 297.14989,161.62689 v 25.37094 h 0.66217 V 161.62689 Z M 255.16524,7.6200238 V 27.082077 h 0.66203 V 7.6200238 Z M 321.02621,158.31744 v 29.22638 h 0.66218 v -29.22638 z m 23.87727,3.30945 v 26.46356 h 0.66202 V 161.62689 Z M 234.62245,6.6459201 V 23.77263 h 0.66202 V 6.6459201 Z M 368.77981,168.24579 v 20.39144 h 0.66201 V 168.24579 Z M 206.13735,25.943643 v 17.089341 h 0.66202 V 25.943643 Z M 433.94107,145.07636 v 20.99826 h 0.66202 V 145.07636 Z M 179.30697,13.217602 v 20.483377 h 0.66202 V 13.217602 Z m 6.28836,12.726041 v 17.089341 h 0.66202 V 25.943643 Z M 80.242522,92.130466 v 22.065554 h 0.662012 V 92.130466 Z m 15.722622,-3.309455 v 23.742639 h 0.662173 V 88.821011 Z M 79.359265,138.26388 c -9.810964,-0.12441 -19.423785,1.88283 -26.348488,6.22645 a 0.16531304,0.16531304 0 0 0 -0.0026,0.0116 0.16531304,0.16531304 0 0 0 -0.05738,0.20217 0.16531304,0.16531304 0 0 0 0.01048,0.003 0.16531304,0.16531304 0 0 0 -0.0025,0.0108 0.16531304,0.16531304 0 0 0 0.202954,0.0565 0.16531304,0.16531304 0 0 0 0.01078,0.004 c 7.747601,-3.85867 19.083648,-5.2474 30.254123,-4.41755 11.170478,0.82985 22.176966,3.87846 29.269386,8.83933 a 0.16532957,0.16532957 0 0 0 0.20232,-0.26097 c -7.09357,-6.07876 -18.11037,-9.65854 -29.329577,-10.49201 -1.402399,-0.10418 -2.807872,-0.16548 -4.209435,-0.18325 z m -0.0042,0.33101 c 1.39467,0.0174 2.793611,0.0783 4.189269,0.182 9.800293,0.72806 19.440536,3.57139 26.394606,8.31991 -7.06546,-3.92887 -16.712826,-6.33959 -26.487798,-7.06577 -9.775272,-0.7262 -19.67336,0.23265 -27.241903,3.07475 6.500133,-3.14673 14.746875,-4.6159 23.145826,-4.51089 z m -26.256329,6.03552 c 15.738762,-9.87235 45.584766,-7.65483 59.692004,4.43423 -14.264146,-9.97722 -44.11015,-12.19474 -59.692004,-4.43423 m 339.558524,5.59258 v 27.20267 h 1.19129 V 150.22299 Z M 279.45107,11.230305 v 27.202661 h 1.19113 V 11.230305 Z m 400.3578,69.496428 V 107.92939 H 681 V 80.726733 Z M 483.32172,11.230305 v 27.202661 h 1.19112 V 11.230305 Z M 463.1326,80.726733 v 27.202657 h 1.19128 V 80.726733 Z M 86.578414,11.230305 V 38.432966 H 87.76954 V 11.230305 Z M 257.12783,80.726733 v 27.202657 h 1.19114 V 80.726733 Z M 679.80887,11.230305 V 38.432966 H 681 V 11.230305 Z m -2.44933,138.992685 v 27.20267 h 3.64015 v -27.20267 z m -3.63967,0 v 27.20267 H 674.911 V 150.22299 Z M 0,176.69829 v 0.72768 h 681 v -0.72768 z m 0,-6.6189 v 0.72768 h 681 v -0.72768 z m 0,-6.6189 v 0.72768 h 681 v -0.72768 z m 0,-6.61891 v 0.72769 h 681 v -0.72769 z m 0,-6.61811 v 0.72768 h 681 v -0.72768 z m 0,-43.02145 v 0.72768 h 681 v -0.72768 z m 0,-6.6189 v 0.72769 h 681 v -0.72769 z m 0,-6.618904 v 0.727689 h 681 v -0.727689 z m 0,-6.618902 v 0.72769 h 681 v -0.72769 z m 0,-6.618269 v 0.727842 H 681 V 80.727045 Z M 0,37.704973 v 0.727681 h 681 v -0.727681 z m 0,-6.618125 v 0.727689 h 681 v -0.727689 z m 0,-6.619054 v 0.727681 h 681 v -0.727681 z m 0,-6.618588 v 0.727685 h 681 v -0.727685 z m 0,-6.618745 v 0.727685 h 681 v -0.727685 z"
     style="stroke-width:0.0800547" />
  <metadata
     id="metadata258">
    <rdf:RDF>
      <cc:Work
         rdf:about="">
        <dc:title>air_XXXVIII</dc:title>
      </cc:Work>
    </rdf:RDF>
  </metadata>
</svg>
