<?xml version="1.0" encoding="utf-8"?>
<svg xmlns="http://www.w3.org/2000/svg" xmlns:svg="http://www.w3.org/2000/svg" version="1.1" viewBox="0 0 681 187">
	<title>The musical score for Air VI</title>
	<path d="M643.923 165.15c0 .742.583 1.324 1.325 1.324s1.325-.582 1.325-1.325c0-.742-.583-1.324-1.325-1.324s-1.325.582-1.325 1.324m-55.778-62.878c0 .742.584 1.325 1.325 1.325.742 0 1.325-.583 1.325-1.325 0-.741-.583-1.325-1.325-1.325-.741 0-1.325.584-1.325 1.325m60.093 0c0 .742.583 1.325 1.325 1.325s1.325-.583 1.325-1.325c0-.741-.583-1.325-1.325-1.325s-1.325.584-1.325 1.325m-63.8 56.26c0 .742.584 1.324 1.325 1.324.742 0 1.325-.582 1.325-1.324s-.583-1.325-1.325-1.325c-.741 0-1.325.582-1.325 1.325M145.616 26.157c0 .741.582 1.325 1.324 1.325s1.325-.584 1.325-1.325c0-.742-.582-1.325-1.325-1.325-.742 0-1.324.583-1.324 1.325m492.353 0c0 .741.583 1.325 1.325 1.325s1.325-.584 1.325-1.325c0-.742-.583-1.325-1.325-1.325s-1.325.583-1.325 1.325m-59.987-6.62c0 .743.583 1.326 1.325 1.326s1.325-.583 1.325-1.325-.583-1.325-1.325-1.325-1.325.583-1.325 1.325M504.243 84.07h18.614v3.31h-18.614zM275.2 41.039l15.55 1.655v3.328l-15.55-1.654zm127.237 135.683 15.286 1.655v3.329l-15.286-1.655zm147.757-92.658 19.7-1.654v3.32l-19.7 1.655zm-98.252-6.623 15.606-1.654v3.327L451.94 80.77zM245.424 37.73l15.549 1.654v3.329l-15.55-1.655zm21.365 44.677 15.605 1.654v3.328l-15.605-1.655zm84.465 95.97 15.286-1.655v3.329l-15.286 1.655zM544.235 4.637l15.55-1.654V6.31l-15.55 1.654zm6.983 138.993 15.286-1.655v3.33l-15.286 1.654zM214.486 84.061l15.606-1.654v3.327l-15.606 1.655zm29.841 95.97 15.286 1.655v3.33l-15.286-1.656zm259.856-34.745 19.7 1.655v3.321l-19.7-1.654zm-295.49-109.22 11.583-1.704v3.346l-11.583 1.703zm0 4.964 22.505-3.31v3.345l-22.505 3.31zm6.387 135.691 15.285 1.655v3.329l-15.285-1.655zm229.978-1.655 15.286-1.654v3.328l-15.286 1.655zM33.669 32.793v1.96H31.47c-.185 0-.37.16-.37.37v.504c0 .212.185.372.37.372H39.5c.212 0 .371-.16.371-.372v-.503c0-.212-.159-.37-.371-.37h-2.385v-1.961H39.5c.212 0 .371-.186.371-.398v-.504a.38.38 0 0 0-.371-.37h-2.385v-4.214c0-.16-.08-.291-.185-.344l-.318-.16c-.053-.026-.08-.026-.132-.026-.106 0-.213 0-.292.08l-2.411 2.2a.4.4 0 0 0-.107.29v2.174h-3.073s2.968-3.18 6.095-7.367a.58.58 0 0 0 .132-.37.44.44 0 0 0-.08-.266l-.582-.583c-.08-.053-.16-.106-.265-.106h-3.949c-.185 0-.317.159-.344.318 0 0-.133 1.961-.822 4.107-.688 2.147-1.483 3.472-2.173 4.452 0 0-.079.132-.079.292 0 .052 0 .105.027.158.079.186.265.477.265.477s.052.16.29.16zm2.74-16.83c2.12-.822 2.253-2.2 2.253-2.677v-.132c0-.239-.079-3.233-4.637-3.233S29.6 13.154 29.6 13.154h.027l-.027.053c0 .954.769 1.696 1.722 1.696.954 0 1.697-.742 1.697-1.696 0-.769-.584-1.51-1.325-1.67l.079-.08c.37-.264.874-.397 1.378-.397 1.112 0 2.305.663 2.305 2.094 0 1.67-1.245 1.908-1.563 1.96-.318.054-1.802.16-2.12.16s-.344.37-.344.37v.53s.053.292.344.319c.45.026 1.06.026 1.908.159 1.166.159 1.775.953 1.775 2.808 0 1.776-1.193 2.253-2.305 2.253-.742 0-1.43-.212-1.722-.424.874-.053 1.59-.822 1.59-1.696 0-.954-.743-1.723-1.697-1.723-.953 0-1.722.769-1.722 1.723 0 2.173 1.987 3.26 3.949 3.26 2.543 0 5.3-.875 5.3-3.764 0-1.934-1.326-2.755-2.492-3.126zM16.093 173.917a7.7 7.7 0 0 1-1.537.16c-3.789 0-7.022-2.65-7.022-6.652 0-3.233 2.28-6.12 4.611-8.135.45-.398.875-.768 1.272-1.165.238 1.43.424 2.676.61 3.762-2.412.715-4.055 3.26-4.055 5.75 0 1.855 1.458 4.399 3.577 4.399.212 0 .451-.106.451-.344 0-.239-.265-.372-.583-.583-1.033-.637-1.616-1.325-1.616-2.624 0-1.616 1.192-2.914 2.755-3.286zm-2.332-27.24c.239-1.06 1.458-3.842 2.836-3.842.397 0 1.033 1.299 1.033 3.127 0 2.755-2.04 4.822-3.869 6.624-.159-1.06-.291-2.093-.291-3.206 0-.98.08-1.882.291-2.703m6.095 22.338c0 1.882-.768 3.816-2.65 4.584a882 882 0 0 1-1.457-8.558c2.385 0 4.107 1.616 4.107 3.974m-11.66 13.037c0 1.749 1.352 4.054 4.93 4.054 1.245 0 2.331-.318 3.285-.9 1.431-1.007 1.802-2.757 1.802-4.426 0-1.033-.159-2.225-.424-3.736-.08-.53-.238-1.325-.397-2.358 2.597-.848 4.53-3.55 4.53-6.28 0-4.002-2.834-6.704-6.703-6.704-.265-1.59-.53-3.154-.769-4.637 2.81-2.942 4.744-6.254 4.744-10.467 0-2.412-.742-4.372-1.166-5.326-.636-1.352-1.405-2.28-1.882-2.28-.185 0-1.007.319-1.881 1.352-1.696 2.014-2.173 5.406-2.173 7.631 0 1.432.133 2.73.583 5.698-.026.026-1.404 1.43-1.96 1.881-2.412 2.252-5.75 5.458-5.75 10.758 0 4.955 4.318 8.85 9.247 8.85.768 0 1.484-.079 2.093-.185.504 2.544.795 4.399.795 5.803 0 2.756-1.404 4.213-4.08 4.213-.636 0-1.193-.132-1.246-.132-.026-.027-.08-.053-.08-.08 0-.053.054-.079.133-.105 1.246-.186 2.49-1.246 2.49-2.942 0-1.431-1.085-2.94-3.073-2.94-1.855 0-3.047 1.509-3.047 3.258m7.896-147.128a7.7 7.7 0 0 1-1.537.16c-3.789 0-7.022-2.65-7.022-6.651 0-3.234 2.28-6.122 4.611-8.135.45-.398.875-.769 1.272-1.166.238 1.43.424 2.676.61 3.762-2.412.716-4.055 3.26-4.055 5.75 0 1.855 1.458 4.4 3.577 4.4.212 0 .451-.107.451-.345 0-.239-.265-.372-.583-.583-1.033-.636-1.616-1.325-1.616-2.623 0-1.617 1.192-2.915 2.755-3.287zm-2.332-27.24c.239-1.06 1.458-3.842 2.836-3.842.397 0 1.033 1.299 1.033 3.127 0 2.756-2.04 4.823-3.869 6.625-.159-1.06-.291-2.094-.291-3.207 0-.98.08-1.881.291-2.703m6.095 22.339c0 1.881-.768 3.815-2.65 4.584a882 882 0 0 1-1.457-8.559c2.385 0 4.107 1.616 4.107 3.975M8.196 43.06c0 1.748 1.352 4.054 4.93 4.054 1.245 0 2.331-.318 3.285-.901 1.431-1.007 1.802-2.756 1.802-4.425 0-1.034-.159-2.226-.424-3.737-.08-.53-.238-1.325-.397-2.358 2.597-.848 4.53-3.55 4.53-6.28 0-4.001-2.834-6.704-6.703-6.704-.265-1.59-.53-3.153-.769-4.637 2.81-2.942 4.744-6.254 4.744-10.467 0-2.411-.742-4.372-1.166-5.326C17.392.927 16.623 0 16.146 0c-.185 0-1.007.318-1.881 1.351-1.696 2.014-2.173 5.406-2.173 7.632 0 1.43.133 2.73.583 5.697-.026.026-1.404 1.43-1.96 1.881-2.412 2.253-5.75 5.459-5.75 10.758 0 4.956 4.318 8.851 9.247 8.851.768 0 1.484-.08 2.093-.186.504 2.545.795 4.4.795 5.804 0 2.755-1.404 4.213-4.08 4.213-.636 0-1.193-.133-1.246-.133-.026-.026-.08-.053-.08-.08 0-.052.054-.079.133-.105 1.246-.186 2.49-1.246 2.49-2.941 0-1.432-1.085-2.941-3.073-2.941-1.855 0-3.047 1.51-3.047 3.259m7.896 61.36a7.7 7.7 0 0 1-1.537.16c-3.789 0-7.022-2.65-7.022-6.65 0-3.234 2.28-6.122 4.611-8.136.45-.398.875-.769 1.272-1.166.238 1.43.424 2.677.61 3.763-2.412.715-4.055 3.259-4.055 5.75 0 1.854 1.458 4.398 3.577 4.398.212 0 .451-.105.451-.344 0-.238-.265-.371-.583-.583-1.033-.636-1.616-1.324-1.616-2.623 0-1.616 1.192-2.915 2.755-3.286zm-2.332-27.24c.239-1.06 1.458-3.842 2.836-3.842.397 0 1.033 1.298 1.033 3.127 0 2.755-2.04 4.822-3.869 6.624-.159-1.06-.291-2.093-.291-3.206 0-.98.08-1.882.291-2.703m6.095 22.338c0 1.881-.768 3.815-2.65 4.584a882 882 0 0 1-1.457-8.559c2.385 0 4.107 1.617 4.107 3.975m-11.66 13.037c0 1.748 1.352 4.054 4.93 4.054 1.245 0 2.331-.318 3.285-.9 1.431-1.008 1.802-2.757 1.802-4.426 0-1.034-.159-2.226-.424-3.736-.08-.53-.238-1.325-.397-2.359 2.597-.847 4.53-3.55 4.53-6.28 0-4.001-2.834-6.704-6.703-6.704-.265-1.59-.53-3.153-.769-4.637 2.81-2.942 4.744-6.253 4.744-10.467 0-2.411-.742-4.372-1.166-5.326-.636-1.351-1.405-2.279-1.882-2.279-.185 0-1.007.319-1.881 1.351-1.696 2.015-2.173 5.406-2.173 7.632 0 1.431.133 2.73.583 5.698-.026.026-1.404 1.43-1.96 1.88-2.412 2.253-5.75 5.459-5.75 10.759 0 4.955 4.318 8.85 9.247 8.85.768 0 1.484-.079 2.093-.185.504 2.544.795 4.399.795 5.803 0 2.755-1.404 4.213-4.08 4.213-.636 0-1.193-.133-1.246-.133-.026-.026-.08-.053-.08-.08 0-.052.054-.078.133-.105 1.246-.185 2.49-1.245 2.49-2.941 0-1.431-1.085-2.941-3.073-2.941-1.855 0-3.047 1.51-3.047 3.259m506.055-5.862c0 1.14.822 2.412 2.968 2.412 2.756 0 5.644-2.253 5.644-4.585 0-1.564-1.325-2.438-2.968-2.438-2.57 0-5.644 2.173-5.644 4.61M275.2 20.652c0 1.14.82 2.411 2.967 2.411 2.756 0 5.645-2.252 5.645-4.584 0-1.563-1.325-2.438-2.968-2.438-2.57 0-5.644 2.173-5.644 4.61m-14.887 3.31c0 1.14.82 2.411 2.967 2.411 2.756 0 5.644-2.252 5.644-4.584 0-1.563-1.325-2.438-2.968-2.438-2.57 0-5.643 2.173-5.643 4.611m29.774 3.31c0 1.139.822 2.41 2.968 2.41 2.755 0 5.644-2.252 5.644-4.583 0-1.564-1.325-2.438-2.968-2.438-2.57 0-5.644 2.173-5.644 4.61M417.06 162.954c0 1.139.82 2.411 2.967 2.411 2.756 0 5.644-2.252 5.644-4.584 0-1.563-1.325-2.438-2.968-2.438-2.57 0-5.643 2.173-5.643 4.61M320.072 25.127a.99.99 0 0 1-1.06-.954c0-1.298 4.452-3.577 5.697-3.577.636 0 1.06.37 1.06.954 0 1.325-4.478 3.577-5.697 3.577m3.657-5.777c-2.571 0-5.644 2.147-5.644 4.611 0 1.14.821 2.411 2.967 2.411 2.756 0 5.644-2.252 5.644-4.584 0-1.563-1.325-2.438-2.967-2.438M459.68 156.334c0 1.14.822 2.411 2.968 2.411 2.756 0 5.644-2.252 5.644-4.584 0-1.563-1.325-2.438-2.968-2.438-2.57 0-5.644 2.173-5.644 4.61m-57.245 3.31c0 1.14.821 2.412 2.968 2.412 2.755 0 5.643-2.252 5.643-4.584 0-1.564-1.324-2.438-2.967-2.438-2.57 0-5.644 2.173-5.644 4.61M351.581 37.197c0 1.14.822 2.412 2.968 2.412 2.755 0 5.644-2.252 5.644-4.584 0-1.564-1.325-2.438-2.968-2.438-2.57 0-5.644 2.173-5.644 4.61m28.92 119.137c0 1.14.82 2.411 2.967 2.411 2.756 0 5.644-2.252 5.644-4.584 0-1.563-1.324-2.438-2.968-2.438-2.57 0-5.644 2.173-5.644 4.61m2.877-142.3c0 1.138.82 2.41 2.968 2.41 2.755 0 5.644-2.252 5.644-4.584 0-1.563-1.325-2.438-2.968-2.438-2.57 0-5.644 2.173-5.644 4.611m-17.5 145.611c0 1.14.82 2.412 2.967 2.412 2.756 0 5.644-2.252 5.644-4.584 0-1.564-1.325-2.438-2.968-2.438-2.57 0-5.643 2.173-5.643 4.61m39.83-132.373c0 1.139.822 2.41 2.968 2.41 2.757 0 5.645-2.252 5.645-4.583 0-1.564-1.325-2.438-2.968-2.438-2.57 0-5.644 2.173-5.644 4.61m68.597 125.755c0 1.14.821 2.412 2.968 2.412 2.756 0 5.644-2.252 5.644-4.584 0-1.564-1.325-2.438-2.968-2.438-2.57 0-5.644 2.173-5.644 4.61m-123.052 9.929c0 1.139.821 2.411 2.968 2.411 2.755 0 5.643-2.252 5.643-4.584 0-1.563-1.324-2.438-2.967-2.438-2.57 0-5.644 2.173-5.644 4.61M428.039 23.96c0 1.14.821 2.411 2.968 2.411 2.755 0 5.644-2.252 5.644-4.584 0-1.563-1.325-2.438-2.968-2.438-2.57 0-5.644 2.173-5.644 4.611m31.796-3.31c0 1.14.822 2.412 2.968 2.412 2.755 0 5.644-2.252 5.644-4.584 0-1.563-1.325-2.438-2.968-2.438-2.57 0-5.644 2.173-5.644 4.61m22.33 16.547c0 1.14.822 2.412 2.968 2.412 2.757 0 5.645-2.252 5.645-4.584 0-1.564-1.325-2.438-2.968-2.438-2.57 0-5.644 2.173-5.644 4.61M319.852 176.19c0 1.14.822 2.412 2.968 2.412 2.756 0 5.645-2.253 5.645-4.585 0-1.563-1.325-2.438-2.969-2.438-2.57 0-5.644 2.173-5.644 4.61M504.497 30.58c0 1.14.821 2.411 2.968 2.411 2.756 0 5.644-2.252 5.644-4.584 0-1.563-1.325-2.438-2.968-2.438-2.57 0-5.644 2.173-5.644 4.611m-215.56 133.54a.99.99 0 0 1-1.06-.954c0-1.299 4.45-3.578 5.697-3.578.635 0 1.06.372 1.06.955 0 1.324-4.479 3.576-5.697 3.576m3.656-5.776c-2.57 0-5.644 2.147-5.644 4.61 0 1.14.821 2.412 2.968 2.412 2.756 0 5.644-2.252 5.644-4.584 0-1.563-1.325-2.438-2.968-2.438m243.7-131.072c0 1.139.821 2.41 2.968 2.41 2.755 0 5.644-2.252 5.644-4.583 0-1.564-1.325-2.438-2.968-2.438-2.57 0-5.644 2.173-5.644 4.61m-290.87-6.618c0 1.14.822 2.411 2.968 2.411 2.757 0 5.645-2.252 5.645-4.584 0-1.563-1.325-2.438-2.968-2.438-2.57 0-5.644 2.173-5.644 4.61m305.756 3.31c0 1.14.821 2.411 2.968 2.411 2.756 0 5.644-2.252 5.644-4.584 0-1.563-1.325-2.438-2.967-2.438-2.57 0-5.645 2.173-5.645 4.611M258.95 166.262c0 1.14.822 2.411 2.968 2.411 2.757 0 5.645-2.251 5.645-4.583 0-1.564-1.325-2.438-2.968-2.438-2.57 0-5.644 2.173-5.644 4.61M566.068 23.96c0 1.14.821 2.411 2.967 2.411 2.756 0 5.644-2.252 5.644-4.584 0-1.563-1.325-2.438-2.967-2.438-2.57 0-5.644 2.173-5.644 4.611M496.24 166.262c0 1.14.821 2.411 2.968 2.411 2.755 0 5.643-2.251 5.643-4.583 0-1.564-1.325-2.438-2.967-2.438-2.57 0-5.644 2.173-5.644 4.61m-251.914-6.619c0 1.14.821 2.412 2.968 2.412 2.756 0 5.644-2.252 5.644-4.584 0-1.564-1.325-2.438-2.968-2.438-2.57 0-5.644 2.173-5.644 4.61m-13.79-142.302c0 1.14.821 2.412 2.967 2.412 2.756 0 5.644-2.253 5.644-4.584 0-1.564-1.325-2.438-2.967-2.438-2.57 0-5.644 2.173-5.644 4.61m-.834 145.612c0 1.139.822 2.411 2.968 2.411 2.756 0 5.644-2.252 5.644-4.584 0-1.563-1.325-2.438-2.968-2.438-2.57 0-5.644 2.173-5.644 4.61M594.376 27.27c0 1.139.821 2.41 2.968 2.41 2.756 0 5.644-2.252 5.644-4.583 0-1.564-1.325-2.438-2.968-2.438-2.57 0-5.644 2.173-5.644 4.61m-79.098 142.303c0 1.139.821 2.41 2.968 2.41 2.756 0 5.644-2.252 5.644-4.583 0-1.563-1.325-2.438-2.968-2.438-2.57 0-5.644 2.173-5.644 4.61M215.08 156.335c0 1.14.821 2.411 2.967 2.411 2.756 0 5.644-2.252 5.644-4.584 0-1.563-1.325-2.438-2.967-2.438-2.57 0-5.644 2.173-5.644 4.61M628.04 28.436a.99.99 0 0 1-1.06-.953c0-1.299 4.452-3.578 5.698-3.578.636 0 1.06.372 1.06.954 0 1.325-4.478 3.577-5.698 3.577m3.657-5.776c-2.57 0-5.644 2.147-5.644 4.61 0 1.14.822 2.412 2.968 2.412 2.756 0 5.644-2.253 5.644-4.584 0-1.564-1.325-2.438-2.968-2.438M193.144 166.262c0 1.14.821 2.411 2.968 2.411 2.756 0 5.644-2.251 5.644-4.583 0-1.564-1.325-2.438-2.968-2.438-2.57 0-5.644 2.173-5.644 4.61m26.47-145.611c0 1.14.822 2.411 2.969 2.411 2.755 0 5.643-2.252 5.643-4.584 0-1.563-1.324-2.438-2.967-2.438-2.57 0-5.644 2.173-5.644 4.61m-10.922 3.31c0 1.14.821 2.411 2.968 2.411 2.755 0 5.644-2.252 5.644-4.584 0-1.563-1.325-2.438-2.968-2.438-2.57 0-5.644 2.173-5.644 4.611m-31.796 3.31c0 1.139.821 2.41 2.968 2.41 2.755 0 5.643-2.252 5.643-4.583 0-1.564-1.324-2.438-2.967-2.438-2.57 0-5.644 2.173-5.644 4.61m-15.154 132.374c0 1.14.822 2.412 2.969 2.412 2.755 0 5.644-2.252 5.644-4.584 0-1.564-1.325-2.438-2.968-2.438-2.57 0-5.645 2.173-5.645 4.61M53.124 100.075c0 1.14.822 2.412 2.968 2.412 2.755 0 5.644-2.253 5.644-4.584 0-1.564-1.325-2.439-2.968-2.439-2.57 0-5.644 2.174-5.644 4.611m86.684 76.115c0 1.14.822 2.412 2.968 2.412 2.755 0 5.644-2.253 5.644-4.585 0-1.563-1.325-2.438-2.968-2.438-2.57 0-5.644 2.173-5.644 4.61m-64.27-69.495c0 1.14.823 2.412 2.97 2.412 2.755 0 5.643-2.253 5.643-4.585 0-1.564-1.325-2.438-2.968-2.438-2.57 0-5.644 2.173-5.644 4.61m22.415-6.618c0 1.14.822 2.412 2.968 2.412 2.756 0 5.644-2.253 5.644-4.584 0-1.564-1.324-2.439-2.968-2.439-2.57 0-5.644 2.174-5.644 4.611m19.919 69.497c0 1.139.82 2.41 2.967 2.41 2.756 0 5.644-2.252 5.644-4.583 0-1.563-1.325-2.438-2.968-2.438-2.57 0-5.643 2.173-5.643 4.61m11.961-79.424c0 1.14.822 2.411 2.968 2.411 2.755 0 5.644-2.252 5.644-4.584 0-1.563-1.325-2.437-2.968-2.437-2.57 0-5.644 2.172-5.644 4.61m22.415 9.928c0 1.14.821 2.412 2.968 2.412 2.756 0 5.644-2.253 5.644-4.584 0-1.564-1.325-2.439-2.968-2.439-2.57 0-5.644 2.174-5.644 4.611m22.415-3.31c0 1.14.822 2.412 2.968 2.412 2.755 0 5.644-2.253 5.644-4.584 0-1.563-1.325-2.438-2.968-2.438-2.57 0-5.644 2.173-5.644 4.61m-92.336 66.188c0 1.139.822 2.411 2.968 2.411 2.755 0 5.644-2.252 5.644-4.584 0-1.563-1.325-2.438-2.968-2.438-2.57 0-5.644 2.173-5.644 4.61m124.216-56.258c0 1.14.821 2.412 2.967 2.412 2.757 0 5.645-2.253 5.645-4.585 0-1.564-1.325-2.438-2.969-2.438-2.57 0-5.643 2.173-5.643 4.61m336.732 59.57c0 1.138.822 2.41 2.968 2.41 2.756 0 5.644-2.251 5.644-4.583 0-1.564-1.325-2.438-2.968-2.438-2.57 0-5.644 2.173-5.644 4.61m-482.884 6.62c0 1.138.822 2.41 2.968 2.41 2.756 0 5.644-2.252 5.644-4.584 0-1.563-1.325-2.438-2.968-2.438-2.57 0-5.644 2.173-5.644 4.611m161.095-69.496c0 1.139.822 2.411 2.968 2.411 2.756 0 5.644-2.253 5.644-4.585 0-1.562-1.325-2.437-2.968-2.437-2.57 0-5.644 2.172-5.644 4.61m-183.03 62.878c0 1.14.821 2.411 2.967 2.411 2.757 0 5.645-2.251 5.645-4.583 0-1.564-1.325-2.438-2.968-2.438-2.57 0-5.644 2.173-5.644 4.61m197.973-66.187c0 1.14.822 2.412 2.968 2.412 2.756 0 5.644-2.253 5.644-4.584 0-1.564-1.325-2.439-2.968-2.439-2.57 0-5.644 2.174-5.644 4.611M162.01 23.96c0 1.14.82 2.411 2.968 2.411 2.755 0 5.643-2.252 5.643-4.584 0-1.563-1.324-2.438-2.967-2.438-2.57 0-5.645 2.173-5.645 4.611M557.9 162.953c0 1.139.822 2.411 2.968 2.411 2.757 0 5.645-2.252 5.645-4.584 0-1.563-1.325-2.438-2.968-2.438-2.57 0-5.644 2.173-5.644 4.61m-299.054-59.567c0 1.139.821 2.411 2.967 2.411 2.756 0 5.644-2.253 5.644-4.585 0-1.562-1.325-2.437-2.967-2.437-2.57 0-5.644 2.172-5.644 4.61m313.677 59.569c0 1.139.822 2.411 2.968 2.411 2.756 0 5.645-2.252 5.645-4.584 0-1.563-1.325-2.438-2.968-2.438-2.57 0-5.645 2.173-5.645 4.61M133.701 30.58c0 1.14.821 2.411 2.968 2.411 2.756 0 5.643-2.252 5.643-4.584 0-1.563-1.324-2.438-2.967-2.438-2.57 0-5.644 2.173-5.644 4.611m504.61 77.28a.99.99 0 0 1-1.06-.953c0-1.299 4.452-3.577 5.697-3.577.636 0 1.06.37 1.06.953 0 1.325-4.478 3.578-5.696 3.578m3.656-5.777c-2.57 0-5.644 2.146-5.644 4.61 0 1.14.821 2.413 2.968 2.413 2.756 0 5.644-2.253 5.644-4.585 0-1.564-1.325-2.438-2.968-2.438m-368.18 4.61c0 1.14.822 2.413 2.968 2.413 2.757 0 5.644-2.253 5.644-4.585 0-1.564-1.325-2.438-2.967-2.438-2.57 0-5.644 2.173-5.644 4.61m29.985 4.476a.99.99 0 0 1-1.06-.954c0-1.298 4.452-3.577 5.698-3.577.635 0 1.06.37 1.06.954 0 1.325-4.479 3.577-5.698 3.577m3.657-5.776c-2.57 0-5.644 2.146-5.644 4.61 0 1.14.821 2.411 2.968 2.411 2.755 0 5.644-2.252 5.644-4.584 0-1.563-1.325-2.437-2.968-2.437m27.978 7.92c0 1.139.822 2.41 2.968 2.41 2.756 0 5.645-2.251 5.645-4.583 0-1.564-1.325-2.438-2.969-2.438-2.57 0-5.644 2.173-5.644 4.61m269.237-6.618c0 1.14.822 2.412 2.968 2.412 2.755 0 5.644-2.253 5.644-4.585 0-1.564-1.325-2.438-2.968-2.438-2.57 0-5.644 2.173-5.644 4.61M97.761 23.96c0 1.14.822 2.411 2.968 2.411 2.755 0 5.644-2.252 5.644-4.584 0-1.563-1.325-2.438-2.968-2.438-2.57 0-5.644 2.173-5.644 4.611m291.943 72.806c0 1.14.821 2.411 2.968 2.411 2.756 0 5.644-2.253 5.644-4.584 0-1.563-1.325-2.438-2.968-2.438-2.57 0-5.644 2.173-5.644 4.61m210.626 69.497c0 1.14.823 2.411 2.969 2.411 2.755 0 5.644-2.251 5.644-4.583 0-1.564-1.325-2.438-2.968-2.438-2.57 0-5.645 2.173-5.645 4.61m-24.1-62.877c0 1.139.822 2.411 2.968 2.411 2.757 0 5.645-2.253 5.645-4.585 0-1.562-1.325-2.437-2.968-2.437-2.57 0-5.644 2.172-5.644 4.61m-164.112 0c0 1.14.822 2.412 2.968 2.412 2.755 0 5.644-2.253 5.644-4.585 0-1.562-1.325-2.437-2.968-2.437-2.57 0-5.644 2.172-5.644 4.61m31.88-3.309c0 1.14.821 2.412 2.967 2.412 2.757 0 5.645-2.253 5.645-4.584 0-1.564-1.325-2.439-2.968-2.439-2.57 0-5.644 2.174-5.644 4.611m117.289 3.31c0 1.139.821 2.411 2.967 2.411 2.756 0 5.644-2.253 5.644-4.585 0-1.562-1.325-2.437-2.967-2.437-2.57 0-5.644 2.172-5.644 4.61M75.43 27.27c0 1.139.821 2.41 2.968 2.41 2.756 0 5.643-2.252 5.643-4.583 0-1.564-1.324-2.438-2.967-2.438-2.57 0-5.644 2.173-5.644 4.61m-22.331-6.618c0 1.14.821 2.411 2.967 2.411 2.757 0 5.645-2.252 5.645-4.584 0-1.563-1.325-2.438-2.968-2.438-2.57 0-5.644 2.173-5.644 4.61m489.152 86.044c0 1.14.821 2.412 2.967 2.412 2.756 0 5.644-2.253 5.644-4.585 0-1.564-1.325-2.438-2.967-2.438-2.57 0-5.644 2.173-5.644 4.61m-83.308-9.927c0 1.14.821 2.411 2.967 2.411 2.756 0 5.644-2.253 5.644-4.584 0-1.563-1.325-2.438-2.968-2.438-2.57 0-5.643 2.173-5.643 4.61m14.943-3.309c0 1.14.821 2.412 2.967 2.412 2.757 0 5.644-2.252 5.644-4.584 0-1.564-1.325-2.438-2.968-2.438-2.57 0-5.643 2.173-5.643 4.61m22.415 13.238c0 1.14.821 2.412 2.968 2.412 2.755 0 5.643-2.253 5.643-4.585 0-1.564-1.324-2.438-2.967-2.438-2.57 0-5.644 2.173-5.644 4.61m-129.011 0c0 1.14.82 2.413 2.967 2.413 2.756 0 5.644-2.253 5.644-4.585 0-1.564-1.325-2.438-2.968-2.438-2.57 0-5.643 2.173-5.643 4.61m77.768 52.95c0 1.14.821 2.412 2.968 2.412 2.755 0 5.643-2.252 5.643-4.584 0-1.564-1.325-2.438-2.967-2.438-2.57 0-5.644 2.173-5.644 4.61m188.938 7.785a.99.99 0 0 1-1.06-.954c0-1.298 4.452-3.577 5.697-3.577.636 0 1.06.371 1.06.954 0 1.325-4.478 3.577-5.697 3.577m3.657-5.776c-2.57 0-5.644 2.146-5.644 4.61 0 1.14.821 2.411 2.968 2.411 2.755 0 5.643-2.251 5.643-4.583 0-1.564-1.325-2.438-2.967-2.438M162.009 44.332c0 .185.16.344.345.344.132 0 .292-.106.318-.212 0-.027.239-.954.265-1.034.026-.105.265-1.113 1.218-2.676 1.034-1.722 2.624-2.968 3.949-4.822 1.298-1.855 2.093-3.605 2.093-5.936 0-2.411-.556-4.425-1.96-6.995-.08-.186-.239-.292-.398-.292-.053 0-.106 0-.132.027-.133.053-.186.159-.186.318 0 .079.026.212.08.318 1.06 2.464 1.483 3.868 1.483 5.776 0 2.2-.768 3.339-1.245 4.16-1.722 2.941-4.505 4.373-5.618 4.743-.185.08-.212.213-.212.292zm446.264 105.321c0 .08.027.212.212.292 1.14.371 3.418 1.802 5.14 4.743.478.821 1.247 1.961 1.247 4.16 0 1.908-.504 3.87-1.193 5.777-.053.159-.106.292-.08.397 0 .16.106.265.265.265.185 0 .318-.106.424-.291 1.193-2.12 1.643-4.584 1.643-6.995-.132-3.419-2.093-5.936-2.093-5.936.08 0-2.438-3.26-3.153-4.372-.981-1.51-1.432-3.02-1.485-3.127a64 64 0 0 1-.265-1.034c-.026-.105-.158-.212-.317-.212a.35.35 0 0 0-.345.345zm-5.955-138.992c0 .08.027.212.212.291 1.14.371 3.419 1.802 5.141 4.744.477.821 1.245 1.96 1.245 4.16 0 1.908-.503 3.869-1.192 5.776-.052.159-.106.292-.079.398 0 .159.106.265.265.265.185 0 .318-.106.423-.292 1.193-2.12 1.643-4.584 1.643-6.995-.132-3.418-2.093-5.936-2.093-5.936.08 0-2.438-3.26-3.153-4.372-.98-1.51-1.431-3.02-1.484-3.127-.026-.08-.265-1.033-.265-1.033-.026-.106-.16-.212-.318-.212a.35.35 0 0 0-.345.344zm10.27 77.77c0 .079.027.212.213.291 1.139.37 3.418 1.802 5.14 4.743.477.822 1.246 1.96 1.246 4.16 0 1.908-.504 3.869-1.193 5.777-.053.159-.106.292-.08.398 0 .159.106.265.265.265.186 0 .318-.106.425-.292 1.192-2.12 1.642-4.584 1.642-6.996-.132-3.417-2.093-5.935-2.093-5.935.08 0-2.438-3.26-3.153-4.372-.981-1.51-1.431-3.021-1.485-3.127a67 67 0 0 1-.265-1.033c-.026-.107-.158-.213-.317-.213a.35.35 0 0 0-.345.345zm-284.793 63.48v22.107h.662v-22.106zm222.398-66.214v18.825h.662V85.697Zm-83.309-8.21v17.107h.662V77.486Zm102.346 6.611v17.115h.662V84.098Zm70.722 59.54v20.452h.662V143.64Zm-188.01-64.567v18.832h.662V79.071ZM53.098 20.65v20.399h.662v-20.4ZM83.373 4.646v20.452h.662V4.646ZM97.76 23.959v18.744h.662V23.96Zm486.412 55.147v22.107h.663V79.106Zm-164.112 0v22.107h.662V79.106Zm-22.414-4.964v20.452h.662V74.142Zm214.941 8.326v22.054h.662V82.468Zm-4.315 61.224v20.398h.662v-20.398ZM141.643 6.3v22.106h.663V6.301Zm117.308 159.96v17.054h.662V166.26zm313.573-3.309v18.744h.662v-18.744zm-328.197-3.31v22.09h.662v-22.09ZM162.01 23.96v20.373h.662V23.959zm181.342 65.075v22.107h.662V89.034Zm222.49 54.64v17.107h.663v-17.107ZM309.73 85.724v22.107h.662V85.725ZM184.839 4.647v20.452h.663V4.646Zm366.38 140.611v18.833h.662v-18.833zm93.047-62.842v22.107h.663V82.415ZM281.731 85.69v18.832h.662V85.69Zm-73.038-61.73v18.694h.662V23.96Zm10.922-3.31v20.399h.662v-20.4Zm47.173 63.455v17.108h.662V84.105ZM46.399 143.64v20.451h.662V143.64Zm197.974-67.842v22.106h.662V75.797ZM68.335 148.602v22.107h.662v-22.107zM229.43 84.105v17.108h.662V84.105Zm1.107-66.765v22.103h.662V17.34ZM82.328 162.952v18.744h.662v-18.744ZM214.486 85.69v18.832h.662V85.69zm308.735 62.885V167.4h.662v-18.825ZM245.424 20.65v18.78h.662V20.65Zm258.759 126.325v17.115h.662v-17.115ZM182.606 74.142v20.452h.662V74.142Zm291.699 78.882v22.053h.662v-22.053ZM160.192 75.797v22.106h.662V75.797Zm-34.377 69.497V167.4h.662v-22.106zm4.019-55.148v20.399h.662V90.146ZM260.31 23.96v17.054h.662V23.96Zm199.37 132.374v18.78h.662v-18.78ZM275.199 20.65v22.089h.662v-22.09ZM105.897 75.797v22.106h.662V75.797Zm41.853 76.115v22.106h.662v-22.106zM83.481 82.415v22.107h.662V82.415Zm78.263 77.228v20.398h.662v-20.398ZM61.067 75.797v22.106h.662V75.797Zm383.99 83.846v17.053h.663v-17.053ZM290.086 27.269v17.054h.662V27.269Zm27.998-3.31v18.744h.662V23.96Zm98.975 138.993v17.053h.662v-17.053ZM359.523 12.919v22.106h.662V12.92Zm42.912 146.724v18.78h.663v-18.78ZM383.377 14.03v22.054h.662V14.03ZM380.5 156.333v22.053h.662v-22.053zM201.087 143.64v20.451h.662V143.64zm13.992 12.694v22.09h.663v-22.09ZM633.996 4.646v20.452h.662V4.646Zm-220.346 0v20.452h.663V4.646Zm-47.774 154.997v18.78h.662v-18.78zm-136.173 3.309v17.053h.662v-17.053ZM602.319 4.699v20.399h.662v-20.4Zm-98.076 81.026v18.797h.662V85.725Zm-76.204-61.766v18.744h.662V23.96ZM375.23 82.415v22.107h.662V82.415ZM566.067 23.96v18.744h.663V23.96ZM351.253 162.952v17.053h.662v-17.053ZM559.123 4.681v17.107h.662V4.681ZM459.835 20.65v20.399h.662v-20.4ZM286.949 162.952v18.744h.662v-18.744ZM544.235 6.265v18.833h.662V6.265Zm-54.127 6.654v22.106h.662V12.92Zm22.332-6.618v22.106h.662V6.301Zm-38.555 87.155V112.2h.662V93.456Zm48.31-7.731v18.797h.661V85.725Zm-188.97 25.945v1.06H346.2v-1.06zM498.45 27.505l2.358-.477V31.4l-2.358.504zm4.107-.821c.159-.027.291-.213.291-.371v-1.564a.36.36 0 0 0-.37-.371h-.053l-.875.186v-3.948h-.742v4.107l-2.358.476v-3.736h-.742v3.896l-1.034.212c-.16.026-.291.212-.291.37v1.538c0 .212.158.37.37.37h.08l.875-.185v4.372l-1.034.212c-.159.027-.291.212-.291.37v1.538c0 .212.158.371.37.371h.08l.875-.185v3.948h.742v-4.108l2.358-.476v3.736h.742v-3.895l1.007-.186c.159-.026.291-.212.291-.37v-1.564a.36.36 0 0 0-.37-.37h-.053l-.875.184V26.87zm-374.903.821 2.358-.477V31.4l-2.358.504zm4.107-.821c.16-.027.291-.213.291-.371v-1.564a.36.36 0 0 0-.37-.371h-.053l-.875.186v-3.948h-.742v4.107l-2.358.476v-3.736h-.742v3.896l-1.034.212c-.159.026-.29.212-.29.37v1.538c0 .212.158.37.37.37h.079l.875-.185v4.372l-1.033.212c-.16.027-.292.212-.292.37v1.538c0 .212.159.371.37.371h.08l.875-.185v3.948h.742v-4.108l2.358-.476v3.736h.742v-3.895l1.007-.186c.16-.026.291-.212.291-.37v-1.564a.36.36 0 0 0-.37-.37h-.053l-.875.184V26.87zm377.47 139.814 2.359-.478v4.373l-2.359.504zm4.107-.82c.16-.027.291-.213.291-.371v-1.564a.36.36 0 0 0-.37-.371h-.053l-.875.185v-3.948h-.741v4.108l-2.359.476v-3.736h-.742v3.895l-1.033.212c-.16.027-.292.213-.292.371v1.537c0 .212.16.37.37.37h.08l.875-.184v4.372l-1.034.212c-.159.026-.29.212-.29.37v1.538c0 .212.158.371.37.371h.08l.874-.186v3.949h.742v-4.108l2.358-.476v3.736h.742v-3.896l1.007-.185c.16-.027.291-.213.291-.371v-1.564a.36.36 0 0 0-.37-.37h-.053l-.875.185v-4.372zm-458.992 4.131 2.357-.477v4.373l-2.357.503zm4.106-.821c.16-.027.292-.212.292-.37v-1.564a.36.36 0 0 0-.37-.372h-.054l-.875.186v-3.948h-.742v4.107l-2.357.476v-3.736h-.742v3.896l-1.034.212c-.16.026-.291.212-.291.37v1.538c0 .212.158.37.37.37h.08l.875-.185v4.372l-1.034.212c-.16.027-.291.212-.291.371v1.537c0 .212.158.371.37.371h.08l.875-.185v3.948h.742v-4.108l2.357-.477v3.737h.742v-3.895l1.007-.186c.16-.026.292-.212.292-.37v-1.564a.36.36 0 0 0-.37-.372h-.054l-.875.186v-4.372zM555.24 100.31l2.359-.477v4.372l-2.359.504zm4.108-.82c.159-.027.291-.213.291-.371v-1.564a.363.363 0 0 0-.37-.371h-.054l-.874.186V93.42h-.742v4.108l-2.359.476V94.27h-.741v3.895l-1.034.213c-.159.026-.291.212-.291.37v1.537c0 .212.158.371.37.371h.08l.875-.185v4.372l-1.034.212c-.159.026-.291.212-.291.37v1.538c0 .212.159.371.37.371h.08l.875-.186v3.949h.741v-4.108l2.359-.477v3.737h.742v-3.896l1.007-.185c.16-.027.291-.212.291-.37v-1.564a.363.363 0 0 0-.37-.372h-.054l-.874.186v-4.372zm-447.523 67.009 2.359-.478v4.373l-2.359.504zm4.108-.82c.159-.027.291-.213.291-.371v-1.564a.363.363 0 0 0-.37-.371h-.054l-.874.185v-3.948h-.742v4.108l-2.359.476v-3.736h-.741v3.895l-1.034.212c-.159.027-.291.213-.291.371v1.537c0 .212.158.37.37.37h.08l.875-.184v4.372l-1.034.212c-.159.026-.291.212-.291.37v1.538c0 .212.158.371.37.371h.08l.875-.186v3.949h.741v-4.108l2.359-.476v3.736h.742v-3.896l1.007-.185c.16-.027.291-.213.291-.371v-1.564c0-.212-.16-.37-.37-.37h-.054l-.874.185v-4.372zm394.789-61.155c0 2.093-1.086 3.206-2.623 4.425l.079-5.167c.053-.238.45-1.007 1.51-1.007.955 0 1.034.901 1.034 1.457zm-.318-3.047a2.98 2.98 0 0 0-2.226.98l.106-8.506c0-.211-.159-.37-.371-.37h-.318c-.212 0-.37.159-.37.37l.132 15.925c0 .212.159.372.371.372a.6.6 0 0 0 .211-.053c2.28-1.14 4.664-3.313 4.664-6.042 0-1.378-.635-2.676-2.199-2.676m-104.332-1.163 2.359-.477v4.372l-2.359.504zm4.108-.82c.158-.027.291-.213.291-.371v-1.564a.363.363 0 0 0-.371-.371h-.053l-.874.186V93.42h-.742v4.108l-2.359.476V94.27h-.742v3.896l-1.033.212c-.159.026-.292.212-.292.37v1.537c0 .213.16.371.372.371h.079l.874-.185v4.372l-1.033.212c-.159.026-.292.212-.292.37v1.538c0 .212.16.371.372.371h.079l.874-.186v3.949h.742v-4.108l2.359-.477v3.737h.742v-3.895l1.007-.186c.158-.027.291-.212.291-.37v-1.564a.363.363 0 0 0-.371-.372h-.053l-.874.186v-4.372zm-124.734-87.7c-1.985-.092-4.073.425-6.031 1.652a.17.17 0 0 0-.024.104.17.17 0 0 0-.04.1l.015.007-.004.017a.17.17 0 0 0 .105.024.17.17 0 0 0 .1.04c5.382-2.265 12.743 1.008 14.666 6.521a.165.165 0 0 0 .32-.083c-.642-3.64-2.856-6.313-5.697-7.576a9.5 9.5 0 0 0-3.41-.805zm-.015.33a9.2 9.2 0 0 1 3.29.778c2.257 1.003 4.091 2.936 5.022 5.558-2.427-4.118-7.829-6.52-12.513-5.563 1.4-.58 2.826-.838 4.2-.773m-5.928 1.462c6.178-3.871 13.622-.562 14.886 6.619-1.96-5.618-9.403-8.927-14.886-6.619m-23.063-3.95c-2.503.136-4.998 1.409-6.844 3.85l.002.016a.165.165 0 0 0 .01.198h.018l.002.018a.17.17 0 0 0 .106-.015.17.17 0 0 0 .107.003c3.955-3.774 11.3-3.219 14.642 1.106a.165.165 0 0 0 .276-.18c-1.666-3.075-4.4-4.77-7.248-4.985a8 8 0 0 0-1.071-.01zm.018.33a8 8 0 0 1 1.029.011c2.225.168 4.37 1.288 5.969 3.303-3.34-2.832-8.64-3.233-12.367-.935 1.593-1.483 3.477-2.277 5.369-2.38m-6.73 3.62c4.159-5.5 11.602-4.938 14.887 1.125-3.41-4.412-10.853-4.974-14.887-1.125m-22.602-8.123c-5.967-.136-11.923 3.288-14.283 9.187a.165.165 0 0 0 .064.188l.004.015.01-.002.015.014a.17.17 0 0 0 .098-.043.17.17 0 0 0 .105-.026c1.954-3.249 5.642-5.708 9.706-6.94 4.064-1.23 8.496-1.232 11.925.386a.165.165 0 0 0 .164-.286c-2.38-1.635-5.095-2.432-7.807-2.493zm-.01.332a14.1 14.1 0 0 1 5.97 1.462c-3.185-.937-6.892-.76-10.338.283-3.445 1.044-6.627 2.956-8.756 5.503 2.69-4.693 7.902-7.365 13.124-7.248m-14.12 8.916c3.393-8.48 14.316-11.789 21.844-6.618-6.957-3.284-17.879.026-21.844 6.618m409.55 133.533v27.202h1.19V148.24ZM120.368 78.742v27.203h1.192V78.742ZM44.852 95.653c0-.768-.609-1.405-1.377-1.405-.769 0-1.378.637-1.378 1.405 0 .769.609 1.404 1.378 1.404s1.377-.635 1.377-1.404m0-6.619c0-.768-.609-1.404-1.377-1.404-.769 0-1.378.636-1.378 1.404 0 .769.609 1.404 1.378 1.404s1.377-.635 1.377-1.404m-6.395-10.292v27.203h1.19V78.742Zm-6.089 0v27.203h3.64V78.742ZM183.68 148.24v27.202h1.191V148.24zm251.914 0v27.202h1.191V148.24ZM308.62 9.246v27.203h1.191V9.246Zm65.292 0v27.203h1.192V9.246Zm303.448 0v27.203H681V9.246Zm-3.64 0v27.203h1.191V9.246Zm-2.447 16.91c0-.768-.61-1.404-1.378-1.404-.769 0-1.378.636-1.378 1.405 0 .768.61 1.404 1.378 1.404s1.378-.636 1.378-1.404m0-6.62c0-.768-.61-1.404-1.378-1.404-.769 0-1.378.636-1.378 1.405 0 .768.61 1.404 1.378 1.404s1.378-.636 1.378-1.404M616.59 9.246v27.203h1.19V9.246ZM277.484 148.239v27.202h1.191V148.24ZM450.37 9.246v27.203h1.192V9.246ZM341.788 148.239v27.202h1.191V148.24Zm-144.71-69.497v27.203h1.192V78.742Zm336.733 69.497v27.202h1.192V148.24ZM679.81 78.742v27.203H681V78.742ZM199.229 9.246v27.203h1.19V9.246Zm93.093 69.496v27.203h1.192V78.742Zm334.537 0v27.203h1.191V78.742Zm-269.034 0v27.203h1.19V78.742ZM120.092 9.246v27.203h1.192V9.246ZM677.36 148.239v27.202H681V148.24zm-3.64 0v27.202h1.191V148.24zm-569.456 0v27.202h1.191V148.24Zm330.27-69.497v27.203h1.191V78.742Zm98.252 0v27.203h1.191V78.742Zm-5.958-69.496v27.203h1.191V9.246ZM0 174.713v.728h681v-.728zm0-6.618v.728h681v-.728zm0-6.619v.728h681v-.728zm0-6.619v.728h681v-.728zm0-6.619v.728h681v-.728zm0-43.021v.728h681v-.728zm0-6.618v.727h681V98.6zm0-6.62v.729h681v-.728zm0-6.618v.728h681v-.728zm0-6.619v.728h681v-.728Zm0-43.021v.727h681v-.727zm0-6.619v.728h681v-.728zm0-6.619v.728h681v-.728zm0-6.618v.727h681v-.727Zm0-6.619v.728h681v-.728Z"/>
</svg>
