<?xml version="1.0" encoding="UTF-8" standalone="no"?>
<svg width="210.058mm" height="296.926mm" viewBox="0 0 9924 14028"
 xmlns="http://www.w3.org/2000/svg" xmlns:xlink="http://www.w3.org/1999/xlink" version="1.2" baseProfile="full">
<title>air_XIV</title>
<desc>Generated by MuseScore Studio 4.7.3</desc>
<polyline class="StaffLines" fill="none" stroke="#000000" stroke-width="9.09" stroke-linejoin="bevel" points="708.661,828.424 9215.34,828.424" />
<polyline class="StaffLines" fill="none" stroke="#000000" stroke-width="9.09" stroke-linejoin="bevel" points="708.661,911.101 9215.34,911.101" />
<polyline class="StaffLines" fill="none" stroke="#000000" stroke-width="9.09" stroke-linejoin="bevel" points="708.661,993.778 9215.34,993.778" />
<polyline class="StaffLines" fill="none" stroke="#000000" stroke-width="9.09" stroke-linejoin="bevel" points="708.661,1076.46 9215.34,1076.46" />
<polyline class="StaffLines" fill="none" stroke="#000000" stroke-width="9.09" stroke-linejoin="bevel" points="708.661,1159.13 9215.34,1159.13" />
<polyline class="StaffLines" fill="none" stroke="#000000" stroke-width="9.09" stroke-linejoin="bevel" points="708.661,1696.53 9215.34,1696.53" />
<polyline class="StaffLines" fill="none" stroke="#000000" stroke-width="9.09" stroke-linejoin="bevel" points="708.661,1779.21 9215.34,1779.21" />
<polyline class="StaffLines" fill="none" stroke="#000000" stroke-width="9.09" stroke-linejoin="bevel" points="708.661,1861.89 9215.34,1861.89" />
<polyline class="StaffLines" fill="none" stroke="#000000" stroke-width="9.09" stroke-linejoin="bevel" points="708.661,1944.57 9215.34,1944.57" />
<polyline class="StaffLines" fill="none" stroke="#000000" stroke-width="9.09" stroke-linejoin="bevel" points="708.661,2027.24 9215.34,2027.24" />
<polyline class="StaffLines" fill="none" stroke="#000000" stroke-width="9.09" stroke-linejoin="bevel" points="708.661,2564.64 9215.34,2564.64" />
<polyline class="StaffLines" fill="none" stroke="#000000" stroke-width="9.09" stroke-linejoin="bevel" points="708.661,2647.32 9215.34,2647.32" />
<polyline class="StaffLines" fill="none" stroke="#000000" stroke-width="9.09" stroke-linejoin="bevel" points="708.661,2730 9215.34,2730" />
<polyline class="StaffLines" fill="none" stroke="#000000" stroke-width="9.09" stroke-linejoin="bevel" points="708.661,2812.68 9215.34,2812.68" />
<polyline class="StaffLines" fill="none" stroke="#000000" stroke-width="9.09" stroke-linejoin="bevel" points="708.661,2895.35 9215.34,2895.35" />
<polyline class="BarLine" fill="none" stroke="#000000" stroke-width="14.88" stroke-linejoin="bevel" points="2926,823.876 2926,1163.68" />
<polyline class="BarLine" fill="none" stroke="#000000" stroke-width="14.88" stroke-linejoin="bevel" points="7864.8,823.876 7864.8,1163.68" />
<polyline class="BarLine" fill="none" stroke="#000000" stroke-width="14.88" stroke-linejoin="bevel" points="9207.9,823.876 9207.9,1163.68" />
<polyline class="BarLine" fill="none" stroke="#000000" stroke-width="14.88" stroke-linejoin="bevel" points="3510.02,1691.99 3510.02,2031.79" />
<path class="BarLine" d="M9093.83,2688.66 C9093.83,2679.06 9086.22,2671.12 9076.62,2671.12 C9067.02,2671.12 9059.41,2679.06 9059.41,2688.66 C9059.41,2698.26 9067.02,2706.2 9076.62,2706.2 C9086.22,2706.2 9093.83,2698.26 9093.83,2688.66"/>
<path class="BarLine" d="M9093.83,2771.34 C9093.83,2761.74 9086.22,2753.79 9076.62,2753.79 C9067.02,2753.79 9059.41,2761.74 9059.41,2771.34 C9059.41,2780.94 9067.02,2788.88 9076.62,2788.88 C9086.22,2788.88 9093.83,2780.94 9093.83,2771.34"/>
<polyline class="BarLine" fill="none" stroke="#000000" stroke-width="14.88" stroke-linejoin="bevel" points="9131.84,2560.1 9131.84,2899.9" />
<polyline class="BarLine" fill="none" stroke="#000000" stroke-width="45.47" stroke-linejoin="bevel" points="9192.6,2560.1 9192.6,2899.9" />
<polyline class="BarLine" fill="none" stroke="#000000" stroke-width="14.88" stroke-linejoin="bevel" points="4729.5,823.876 4729.5,1163.68" />
<polyline class="BarLine" fill="none" stroke="#000000" stroke-width="14.88" stroke-linejoin="bevel" points="8043.18,2560.1 8043.18,2899.9" />
<polyline class="BarLine" fill="none" stroke="#000000" stroke-width="14.88" stroke-linejoin="bevel" points="5638.37,1691.99 5638.37,2031.79" />
<polyline class="BarLine" fill="none" stroke="#000000" stroke-width="14.88" stroke-linejoin="bevel" points="5805.48,2560.1 5805.48,2899.9" />
<polyline class="BarLine" fill="none" stroke="#000000" stroke-width="14.88" stroke-linejoin="bevel" points="7528.92,1691.99 7528.92,2031.79" />
<polyline class="BarLine" fill="none" stroke="#000000" stroke-width="14.88" stroke-linejoin="bevel" points="3357.99,2560.1 3357.99,2899.9" />
<polyline class="BarLine" fill="none" stroke="#000000" stroke-width="14.88" stroke-linejoin="bevel" points="9207.9,1691.99 9207.9,2031.79" />
<polyline class="BarLine" fill="none" stroke="#000000" stroke-width="14.88" stroke-linejoin="bevel" points="6399.22,823.876 6399.22,1163.68" />
<path class="SlurSegment" stroke="#000000" stroke-width="4.13" stroke-linecap="round" stroke-linejoin="round" fill-rule="evenodd" d="M6689.07,1746.14 C6738.97,1679.09 6827.59,1686.11 6866.3,1760.2 C6825.98,1706.39 6737.37,1699.36 6689.07,1746.14"/>
<path class="SlurSegment" stroke="#000000" stroke-width="4.13" stroke-linecap="round" stroke-linejoin="round" fill-rule="evenodd" d="M1463.88,1677.52 C1534.58,1626.51 1623.2,1660.82 1641.12,1746.14 C1615.68,1680.25 1527.06,1645.94 1463.88,1677.52"/>
<path class="SlurSegment" stroke="#000000" stroke-width="4.13" stroke-linecap="round" stroke-linejoin="round" fill-rule="evenodd" d="M1818.35,1760.2 C1889.05,1709.19 1977.66,1743.5 1995.58,1828.82 C1970.14,1762.93 1881.53,1728.62 1818.35,1760.2"/>
<path class="SlurSegment" stroke="#000000" stroke-width="4.13" stroke-linecap="round" stroke-linejoin="round" fill-rule="evenodd" d="M2172.81,1760.2 C2211.52,1686.11 2300.14,1679.09 2350.04,1746.14 C2301.75,1699.36 2213.13,1706.39 2172.81,1760.2"/>
<path class="SlurSegment" stroke="#000000" stroke-width="4.13" stroke-linecap="round" stroke-linejoin="round" fill-rule="evenodd" d="M2793.12,1894.96 C2818.56,1960.85 2907.18,1995.16 2970.36,1963.58 C2899.66,2014.59 2811.04,1980.27 2793.12,1894.96"/>
<path class="SlurSegment" stroke="#000000" stroke-width="4.13" stroke-linecap="round" stroke-linejoin="round" fill-rule="evenodd" d="M8491,1677.52 C8620.8,1555.97 8886.65,1548.94 9022.7,1663.46 C8887.35,1575.39 8621.5,1582.41 8491,1677.52"/>
<path class="SlurSegment" stroke="#000000" stroke-width="4.13" stroke-linecap="round" stroke-linejoin="round" fill-rule="evenodd" d="M4990.95,2545.63 C5178.41,2458.13 5493.07,2533.78 5620.27,2696.93 C5486.89,2559.5 5172.22,2483.85 4990.95,2545.63"/>
<path class="SlurSegment" stroke="#000000" stroke-width="4.13" stroke-linecap="round" stroke-linejoin="round" fill-rule="evenodd" d="M3674.56,1977.64 C3722.85,2024.41 3811.47,2017.39 3851.79,1963.58 C3813.08,2037.66 3724.46,2044.69 3674.56,1977.64"/>
<path class="SlurSegment" stroke="#000000" stroke-width="4.13" stroke-linecap="round" stroke-linejoin="round" fill-rule="evenodd" d="M4294.87,1963.58 C4335.19,2017.39 4423.81,2024.41 4472.1,1977.64 C4422.2,2044.69 4333.58,2037.66 4294.87,1963.58"/>
<path class="SlurSegment" stroke="#000000" stroke-width="4.13" stroke-linecap="round" stroke-linejoin="round" fill-rule="evenodd" d="M4649.33,2046.26 C4700.5,2126.81 4830.33,2138.21 4887.14,2060.31 C4828.99,2160.93 4699.16,2149.53 4649.33,2046.26"/>
<path class="SlurSegment" stroke="#000000" stroke-width="4.13" stroke-linecap="round" stroke-linejoin="round" fill-rule="evenodd" d="M2093.21,2490.23 C2160.61,2424.66 2265.5,2445.33 2302.98,2531.57 C2261.29,2466.7 2156.4,2446.03 2093.21,2490.23"/>
<path class="SlurSegment" stroke="#000000" stroke-width="4.13" stroke-linecap="round" stroke-linejoin="round" fill-rule="evenodd" d="M5064.37,2046.26 C5127.55,2077.84 5216.16,2043.53 5241.6,1977.64 C5223.68,2062.95 5135.07,2097.26 5064.37,2046.26"/>
<path class="SlurSegment" stroke="#000000" stroke-width="4.13" stroke-linecap="round" stroke-linejoin="round" fill-rule="evenodd" d="M2512.76,2545.63 C2589.63,2488.11 2694.52,2522.42 2722.53,2614.25 C2687.66,2543.38 2582.77,2509.07 2512.76,2545.63"/>
<path class="SlurSegment" stroke="#000000" stroke-width="4.13" stroke-linecap="round" stroke-linejoin="round" fill-rule="evenodd" d="M6334.6,1663.46 C6384.51,1596.41 6473.13,1603.44 6511.84,1677.52 C6471.52,1623.71 6382.9,1616.68 6334.6,1663.46"/>
<path class="SlurSegment" stroke="#000000" stroke-width="4.13" stroke-linecap="round" stroke-linejoin="round" fill-rule="evenodd" d="M3522.53,2628.31 C3677.02,2497.53 3991.68,2490.5 4151.85,2614.25 C3992.27,2516.95 3677.61,2523.98 3522.53,2628.31"/>
<path class="SlurSegment" stroke="#000000" stroke-width="4.13" stroke-linecap="round" stroke-linejoin="round" fill-rule="evenodd" d="M3147.59,1977.64 C3173.03,2043.53 3261.64,2077.84 3324.82,2046.26 C3254.12,2097.26 3165.51,2062.95 3147.59,1977.64"/>
<path class="Accidental" d="M4757.84,1961.41 L4787.29,1955.45 L4787.29,2010.07 L4757.84,2016.36 L4757.84,1961.41 M4809.14,1951.15 C4811.13,1950.82 4812.78,1948.5 4812.78,1946.52 L4812.78,1926.99 C4812.78,1924.34 4810.8,1922.35 4808.15,1922.35 L4807.49,1922.35 L4796.56,1924.67 L4796.56,1875.35 L4787.29,1875.35 L4787.29,1926.66 L4757.84,1932.61 L4757.84,1885.94 L4748.57,1885.94 L4748.57,1934.6 L4735.66,1937.25 C4733.67,1937.58 4732.02,1939.9 4732.02,1941.88 L4732.02,1961.08 C4732.02,1963.73 4734,1965.71 4736.65,1965.71 L4737.64,1965.71 L4748.57,1963.4 L4748.57,2018.01 L4735.66,2020.66 C4733.67,2020.99 4732.02,2023.31 4732.02,2025.29 L4732.02,2044.49 C4732.02,2047.14 4734,2049.13 4736.65,2049.13 L4737.64,2049.13 L4748.57,2046.81 L4748.57,2096.13 L4757.84,2096.13 L4757.84,2044.82 L4787.29,2038.86 L4787.29,2085.54 L4796.56,2085.54 L4796.56,2036.88 L4809.14,2034.56 C4811.13,2034.23 4812.78,2031.91 4812.78,2029.93 L4812.78,2010.4 C4812.78,2007.75 4810.8,2005.76 4808.15,2005.76 L4807.49,2005.76 L4796.56,2008.08 L4796.56,1953.47 L4809.14,1951.15 "/>
<polyline class="Stem" fill="none" stroke="#000000" stroke-width="8.27" stroke-linejoin="bevel" points="5113.97,1931.34 5113.97,1696.07" />
<polyline class="Stem" fill="none" stroke="#000000" stroke-width="8.27" stroke-linejoin="bevel" points="4184.13,924.991 4184.13,1200.47" />
<polyline class="Stem" fill="none" stroke="#000000" stroke-width="8.27" stroke-linejoin="bevel" points="1674.55,1063.23 1674.55,787.085" />
<polyline class="Stem" fill="none" stroke="#000000" stroke-width="8.27" stroke-linejoin="bevel" points="5661,924.991 5661,1200.47" />
<polyline class="Stem" fill="none" stroke="#000000" stroke-width="8.27" stroke-linejoin="bevel" points="1919.53,1187.24 1919.53,911.101" />
<polyline class="Stem" fill="none" stroke="#000000" stroke-width="8.27" stroke-linejoin="bevel" points="5905.97,966.329 5905.97,1221.14" />
<polyline class="Stem" fill="none" stroke="#000000" stroke-width="8.27" stroke-linejoin="bevel" points="7907.58,2799.45 7907.58,2522.9" />
<polyline class="Stem" fill="none" stroke="#000000" stroke-width="8.27" stroke-linejoin="bevel" points="6150.94,1007.67 6150.94,1241.81" />
<polyline class="Stem" fill="none" stroke="#000000" stroke-width="8.27" stroke-linejoin="bevel" points="7697.81,2758.11 7697.81,2502.5" />
<polyline class="Stem" fill="none" stroke="#000000" stroke-width="8.27" stroke-linejoin="bevel" points="7488.03,2716.77 7488.03,2482.1" />
<polyline class="Stem" fill="none" stroke="#000000" stroke-width="8.27" stroke-linejoin="bevel" points="5252.71,924.991 5252.71,1158.63" />
<polyline class="Stem" fill="none" stroke="#000000" stroke-width="8.27" stroke-linejoin="bevel" points="6613.36,1021.89 6613.36,766.416" />
<polyline class="Stem" fill="none" stroke="#000000" stroke-width="8.27" stroke-linejoin="bevel" points="7278.26,2675.43 7278.26,2461.7" />
<polyline class="Stem" fill="none" stroke="#000000" stroke-width="8.27" stroke-linejoin="bevel" points="6980.82,1063.23 6980.82,787.085" />
<polyline class="Stem" fill="none" stroke="#000000" stroke-width="8.27" stroke-linejoin="bevel" points="6864.38,2661.21 6864.38,2936.69" />
<polyline class="Stem" fill="none" stroke="#000000" stroke-width="8.27" stroke-linejoin="bevel" points="7126.58,924.991 7126.58,1200.47" />
<polyline class="Stem" fill="none" stroke="#000000" stroke-width="8.27" stroke-linejoin="bevel" points="6648.93,2799.45 6648.93,2523.31" />
<polyline class="Stem" fill="none" stroke="#000000" stroke-width="8.27" stroke-linejoin="bevel" points="7371.55,883.652 7371.55,1159.13" />
<polyline class="Stem" fill="none" stroke="#000000" stroke-width="8.27" stroke-linejoin="bevel" points="6235.06,2661.21 6235.06,2936.69" />
<polyline class="Stem" fill="none" stroke="#000000" stroke-width="8.27" stroke-linejoin="bevel" points="7616.52,924.991 7616.52,1200.47" />
<polyline class="Stem" fill="none" stroke="#000000" stroke-width="8.27" stroke-linejoin="bevel" points="6019.61,2799.45 6019.61,2523.31" />
<polyline class="Stem" fill="none" stroke="#000000" stroke-width="8.27" stroke-linejoin="bevel" points="2164.5,1187.24 2164.5,911.101" />
<polyline class="Stem" fill="none" stroke="#000000" stroke-width="8.27" stroke-linejoin="bevel" points="5570.66,2785.23 5570.66,2998.3" />
<polyline class="Stem" fill="none" stroke="#000000" stroke-width="8.27" stroke-linejoin="bevel" points="7979.73,966.329 7979.73,1221.14" />
<polyline class="Stem" fill="none" stroke="#000000" stroke-width="8.27" stroke-linejoin="bevel" points="5360.88,2743.89 5360.88,2977.9" />
<polyline class="Stem" fill="none" stroke="#000000" stroke-width="8.27" stroke-linejoin="bevel" points="8347.19,1007.67 8347.19,1241.81" />
<polyline class="Stem" fill="none" stroke="#000000" stroke-width="8.27" stroke-linejoin="bevel" points="5151.11,2702.55 5151.11,2957.49" />
<polyline class="Stem" fill="none" stroke="#000000" stroke-width="8.27" stroke-linejoin="bevel" points="4941.34,2661.21 4941.34,2937.09" />
<polyline class="Stem" fill="none" stroke="#000000" stroke-width="8.27" stroke-linejoin="bevel" points="8959.62,966.329 8959.62,1221.14" />
<polyline class="Stem" fill="none" stroke="#000000" stroke-width="8.27" stroke-linejoin="bevel" points="4626.67,2661.21 4626.67,2936.69" />
<polyline class="Stem" fill="none" stroke="#000000" stroke-width="8.27" stroke-linejoin="bevel" points="5089.39,800.975 5089.39,1138.96" />
<polyline class="Stem" fill="none" stroke="#000000" stroke-width="8.27" stroke-linejoin="bevel" points="4312.01,2661.21 4312.01,2936.69" />
<polyline class="Stem" fill="none" stroke="#000000" stroke-width="8.27" stroke-linejoin="bevel" points="4102.24,2702.55 4102.24,2957.36" />
<polyline class="Stem" fill="none" stroke="#000000" stroke-width="8.27" stroke-linejoin="bevel" points="3892.46,2743.89 3892.46,2957.36" />
<polyline class="Stem" fill="none" stroke="#000000" stroke-width="8.27" stroke-linejoin="bevel" points="1414.27,1793.1 1414.27,2069.06" />
<polyline class="Stem" fill="none" stroke="#000000" stroke-width="8.27" stroke-linejoin="bevel" points="3682.69,2702.55 3682.69,2957.36" />
<polyline class="Stem" fill="none" stroke="#000000" stroke-width="8.27" stroke-linejoin="bevel" points="3472.91,2743.89 3472.91,2957.36" />
<polyline class="Stem" fill="none" stroke="#000000" stroke-width="8.27" stroke-linejoin="bevel" points="1591.5,1834.44 1591.5,2089.41" />
<polyline class="Stem" fill="none" stroke="#000000" stroke-width="8.27" stroke-linejoin="bevel" points="2409.47,1063.23 2409.47,787.085" />
<polyline class="Stem" fill="none" stroke="#000000" stroke-width="8.27" stroke-linejoin="bevel" points="1768.74,1875.78 1768.74,2109.76" />
<polyline class="Stem" fill="none" stroke="#000000" stroke-width="8.27" stroke-linejoin="bevel" points="2882.69,2743.89 2882.69,2978.03" />
<polyline class="Stem" fill="none" stroke="#000000" stroke-width="8.27" stroke-linejoin="bevel" points="1945.97,1917.12 1945.97,2130.11" />
<polyline class="Stem" fill="none" stroke="#000000" stroke-width="8.27" stroke-linejoin="bevel" points="2672.92,2702.55 2672.92,2915.75" />
<polyline class="Stem" fill="none" stroke="#000000" stroke-width="8.27" stroke-linejoin="bevel" points="2123.2,1875.78 2123.2,2088.79" />
<polyline class="Stem" fill="none" stroke="#000000" stroke-width="8.27" stroke-linejoin="bevel" points="2463.14,2661.21 2463.14,2902.15" />
<polyline class="Stem" fill="none" stroke="#000000" stroke-width="8.27" stroke-linejoin="bevel" points="2253.37,2619.87 2253.37,2888.55" />
<polyline class="Stem" fill="none" stroke="#000000" stroke-width="8.27" stroke-linejoin="bevel" points="2300.43,1834.44 2300.43,2069.04" />
<polyline class="Stem" fill="none" stroke="#000000" stroke-width="8.27" stroke-linejoin="bevel" points="2043.59,2578.53 2043.59,2874.95" />
<polyline class="Stem" fill="none" stroke="#000000" stroke-width="8.27" stroke-linejoin="bevel" points="2477.66,1875.78 2477.66,2109.92" />
<polyline class="Stem" fill="none" stroke="#000000" stroke-width="8.27" stroke-linejoin="bevel" points="1728.93,2578.53 1728.93,2854.01" />
<polyline class="Stem" fill="none" stroke="#000000" stroke-width="8.27" stroke-linejoin="bevel" points="2842.72,1807.32 2842.72,1593.66" />
<polyline class="Stem" fill="none" stroke="#000000" stroke-width="8.27" stroke-linejoin="bevel" points="1414.27,2578.53 1414.27,2854.01" />
<polyline class="Stem" fill="none" stroke="#000000" stroke-width="8.27" stroke-linejoin="bevel" points="2555.24,1007.67 2555.24,1241.81" />
<polyline class="Stem" fill="none" stroke="#000000" stroke-width="8.27" stroke-linejoin="bevel" points="3019.96,1848.66 3019.96,1614.02" />
<polyline class="Stem" fill="none" stroke="#000000" stroke-width="8.27" stroke-linejoin="bevel" points="3040.92,966.329 3040.92,1262.48" />
<polyline class="Stem" fill="none" stroke="#000000" stroke-width="8.27" stroke-linejoin="bevel" points="3197.19,1890 3197.19,1634.37" />
<polyline class="Stem" fill="none" stroke="#000000" stroke-width="8.27" stroke-linejoin="bevel" points="3204.24,1007.67 3204.24,1262.48" />
<polyline class="Stem" fill="none" stroke="#000000" stroke-width="8.27" stroke-linejoin="bevel" points="3374.42,1931.34 3374.42,1654.72" />
<polyline class="Stem" fill="none" stroke="#000000" stroke-width="8.27" stroke-linejoin="bevel" points="3367.55,1049.01 3367.55,1262.48" />
<polyline class="Stem" fill="none" stroke="#000000" stroke-width="8.27" stroke-linejoin="bevel" points="4844.42,924.991 4844.42,1200.47" />
<polyline class="Stem" fill="none" stroke="#000000" stroke-width="8.27" stroke-linejoin="bevel" points="3530.87,1007.67 3530.87,1262.48" />
<polyline class="Stem" fill="none" stroke="#000000" stroke-width="8.27" stroke-linejoin="bevel" points="3724.16,1890 3724.16,1654.73" />
<polyline class="Stem" fill="none" stroke="#000000" stroke-width="8.27" stroke-linejoin="bevel" points="3793.4,1063.23 3793.4,787.085" />
<polyline class="Stem" fill="none" stroke="#000000" stroke-width="8.27" stroke-linejoin="bevel" points="8973.08,1751.76 8973.08,2027.24" />
<polyline class="Stem" fill="none" stroke="#000000" stroke-width="8.27" stroke-linejoin="bevel" points="3901.39,1848.66 3901.39,1634.99" />
<polyline class="Stem" fill="none" stroke="#000000" stroke-width="8.27" stroke-linejoin="bevel" points="8795.85,1793.1 8795.85,2027.24" />
<polyline class="Stem" fill="none" stroke="#000000" stroke-width="8.27" stroke-linejoin="bevel" points="4078.62,1890 4078.62,1634.53" />
<polyline class="Stem" fill="none" stroke="#000000" stroke-width="8.27" stroke-linejoin="bevel" points="8618.62,1751.76 8618.62,2027.24" />
<polyline class="Stem" fill="none" stroke="#000000" stroke-width="8.27" stroke-linejoin="bevel" points="4344.47,1848.66 4344.47,1634.95" />
<polyline class="Stem" fill="none" stroke="#000000" stroke-width="8.27" stroke-linejoin="bevel" points="8441.39,1793.1 8441.39,2027.24" />
<polyline class="Stem" fill="none" stroke="#000000" stroke-width="8.27" stroke-linejoin="bevel" points="8042.62,1875.78 8042.62,2109.92" />
<polyline class="Stem" fill="none" stroke="#000000" stroke-width="8.27" stroke-linejoin="bevel" points="4521.7,1890 4521.7,1653.25" />
<polyline class="Stem" fill="none" stroke="#000000" stroke-width="8.27" stroke-linejoin="bevel" points="7643.84,1875.78 7643.84,2109.92" />
<polyline class="Stem" fill="none" stroke="#000000" stroke-width="8.27" stroke-linejoin="bevel" points="4698.93,1931.34 4698.93,1671.55" />
<polyline class="Stem" fill="none" stroke="#000000" stroke-width="8.27" stroke-linejoin="bevel" points="3939.16,1007.67 3939.16,1241.81" />
<polyline class="Stem" fill="none" stroke="#000000" stroke-width="8.27" stroke-linejoin="bevel" points="4936.74,1972.68 4936.74,1696.11" />
<polyline class="Stem" fill="none" stroke="#000000" stroke-width="8.27" stroke-linejoin="bevel" points="5416.02,883.652 5416.02,1159.13" />
<polyline class="Stem" fill="none" stroke="#000000" stroke-width="8.27" stroke-linejoin="bevel" points="4494.68,883.652 4494.68,1158.8" />
<polyline class="Stem" fill="none" stroke="#000000" stroke-width="8.27" stroke-linejoin="bevel" points="6284.99,1751.76 6284.99,2027.72" />
<polyline class="Stem" fill="none" stroke="#000000" stroke-width="8.27" stroke-linejoin="bevel" points="7358.98,1972.68 7358.98,1696.53" />
<polyline class="Stem" fill="none" stroke="#000000" stroke-width="8.27" stroke-linejoin="bevel" points="6993.92,1710.42 6993.92,1985.9" />
<polyline class="Stem" fill="none" stroke="#000000" stroke-width="8.27" stroke-linejoin="bevel" points="5291.2,1890 5291.2,1676.33" />
<polyline class="Stem" fill="none" stroke="#000000" stroke-width="8.27" stroke-linejoin="bevel" points="6816.69,1875.78 6816.69,2088.78" />
<polyline class="Stem" fill="none" stroke="#000000" stroke-width="8.27" stroke-linejoin="bevel" points="5468.43,1931.34 5468.43,1655.2" />
<polyline class="Stem" fill="none" stroke="#000000" stroke-width="8.27" stroke-linejoin="bevel" points="6639.46,1834.44 6639.46,2068.42" />
<polyline class="Stem" fill="none" stroke="#000000" stroke-width="8.27" stroke-linejoin="bevel" points="6462.22,1793.1 6462.22,2048.07" />
<polyline class="Stem" fill="none" stroke="#000000" stroke-width="8.27" stroke-linejoin="bevel" points="6019.14,1793.1 6019.14,2068.58" />
<path class="Hook" d="M4490.55,1158.8 C4490.55,1161.12 4492.53,1163.1 4494.85,1163.1 C4496.5,1163.1 4498.49,1161.78 4498.82,1160.46 C4498.82,1160.13 4501.8,1148.54 4502.13,1147.55 C4502.46,1146.22 4505.44,1133.65 4517.36,1114.12 C4530.27,1092.6 4550.13,1077.04 4566.68,1053.87 C4582.89,1030.7 4592.82,1008.86 4592.82,979.73 C4592.82,949.609 4585.87,924.453 4568.33,892.346 C4567.34,890.029 4565.35,888.705 4563.37,888.705 C4562.7,888.705 4562.04,888.705 4561.71,889.036 C4560.06,889.698 4559.39,891.022 4559.39,893.008 C4559.39,894.001 4559.72,895.656 4560.39,896.98 C4573.63,927.763 4578.92,945.306 4578.92,969.138 C4578.92,996.611 4569.32,1010.84 4563.37,1021.11 C4541.85,1057.85 4507.1,1075.72 4493.19,1080.35 C4490.88,1081.35 4490.55,1083 4490.55,1084 L4490.55,1158.8 "/>
<path class="Note" d="M6989.79,1710.44 C6989.79,1724.67 7000.05,1740.56 7026.86,1740.56 C7061.28,1740.56 7097.36,1712.42 7097.36,1683.29 C7097.36,1663.76 7080.81,1652.84 7060.29,1652.84 C7028.18,1652.84 6989.79,1679.98 6989.79,1710.44"/>
<path class="Note" d="M7612.39,925.003 C7612.39,939.236 7622.65,955.124 7649.46,955.124 C7683.89,955.124 7719.97,926.989 7719.97,897.861 C7719.97,878.332 7703.42,867.409 7682.89,867.409 C7650.79,867.409 7612.39,894.551 7612.39,925.003"/>
<path class="Note" d="M5010.62,1958.47 C5010.62,1972.7 5020.88,1988.59 5047.69,1988.59 C5082.12,1988.59 5118.2,1960.45 5118.2,1931.33 C5118.2,1911.8 5101.65,1900.87 5081.12,1900.87 C5049.02,1900.87 5010.62,1928.02 5010.62,1958.47"/>
<path class="Note" d="M6280.86,1751.77 C6280.86,1766.01 6291.12,1781.9 6317.93,1781.9 C6352.35,1781.9 6388.43,1753.76 6388.43,1724.63 C6388.43,1705.1 6371.88,1694.18 6351.36,1694.18 C6319.25,1694.18 6280.86,1721.32 6280.86,1751.77"/>
<path class="Note" d="M5411.89,883.664 C5411.89,897.897 5422.15,913.785 5448.96,913.785 C5483.38,913.785 5519.46,885.65 5519.46,856.522 C5519.46,836.993 5502.91,826.07 5482.39,826.07 C5450.28,826.07 5411.89,853.212 5411.89,883.664"/>
<path class="Note" d="M4180,925.003 C4180,939.236 4190.26,955.124 4217.07,955.124 C4251.5,955.124 4287.57,926.989 4287.57,897.861 C4287.57,878.332 4271.02,867.409 4250.5,867.409 C4218.4,867.409 4180,894.551 4180,925.003"/>
<path class="Note" d="M6458.09,1793.11 C6458.09,1807.35 6468.35,1823.23 6495.16,1823.23 C6529.59,1823.23 6565.66,1795.1 6565.66,1765.97 C6565.66,1746.44 6549.11,1735.52 6528.59,1735.52 C6496.49,1735.52 6458.09,1762.66 6458.09,1793.11"/>
<path class="Note" d="M5365.09,1958.47 C5365.09,1972.7 5375.35,1988.59 5402.16,1988.59 C5436.58,1988.59 5472.66,1960.45 5472.66,1931.33 C5472.66,1911.8 5456.11,1900.87 5435.59,1900.87 C5403.48,1900.87 5365.09,1928.02 5365.09,1958.47"/>
<path class="Note" d="M6635.32,1834.45 C6635.32,1848.68 6645.58,1864.57 6672.39,1864.57 C6706.82,1864.57 6742.9,1836.44 6742.9,1807.31 C6742.9,1787.78 6726.35,1776.86 6705.82,1776.86 C6673.72,1776.86 6635.32,1804 6635.32,1834.45"/>
<path class="Note" d="M5187.85,1917.13 C5187.85,1931.36 5198.11,1947.25 5224.93,1947.25 C5259.35,1947.25 5295.43,1919.11 5295.43,1889.99 C5295.43,1870.46 5278.88,1859.53 5258.36,1859.53 C5226.25,1859.53 5187.85,1886.68 5187.85,1917.13"/>
<path class="Note" d="M6812.55,1875.79 C6812.55,1890.02 6822.81,1905.91 6849.63,1905.91 C6884.05,1905.91 6920.13,1877.78 6920.13,1848.65 C6920.13,1829.12 6903.58,1818.2 6883.06,1818.2 C6850.95,1818.2 6812.55,1845.34 6812.55,1875.79"/>
<path class="Note" d="M8218.52,2846.44 C8209.25,2846.44 8202.96,2843.79 8198.66,2835.51 C8194.35,2827.24 8188.4,2806.06 8188.07,2797.12 C8187.4,2788.18 8190.71,2782.89 8198.66,2780.24 C8202.63,2778.91 8207.93,2778.25 8212.89,2778.25 C8222.16,2778.25 8228.12,2780.24 8232.75,2789.17 C8237.38,2798.11 8243.34,2819.3 8243.34,2827.57 C8243.34,2843.79 8232.09,2846.44 8218.52,2846.44 M8215.87,2767.66 C8170.19,2767.66 8153.97,2790.83 8153.97,2812.34 C8153.97,2833.86 8170.19,2857.03 8215.87,2857.03 C8261.55,2857.03 8277.44,2833.86 8277.44,2812.34 C8277.44,2790.83 8261.55,2767.66 8215.87,2767.66"/>
<path class="Note" d="M1571.21,1090.36 C1571.21,1104.59 1581.47,1120.48 1608.28,1120.48 C1642.7,1120.48 1678.78,1092.34 1678.78,1063.22 C1678.78,1043.69 1662.23,1032.76 1641.71,1032.76 C1609.6,1032.76 1571.21,1059.91 1571.21,1090.36"/>
<path class="Note" d="M4833.39,1999.81 C4833.39,2014.04 4843.65,2029.93 4870.46,2029.93 C4904.89,2029.93 4940.96,2001.79 4940.96,1972.66 C4940.96,1953.14 4924.41,1942.21 4903.89,1942.21 C4871.79,1942.21 4833.39,1969.35 4833.39,1999.81"/>
<path class="Note" d="M7255.63,1999.81 C7255.63,2014.04 7265.89,2029.93 7292.71,2029.93 C7327.13,2029.93 7363.21,2001.79 7363.21,1972.66 C7363.21,1953.14 7346.66,1942.21 7326.14,1942.21 C7294.03,1942.21 7255.63,1969.35 7255.63,1999.81"/>
<path class="Note" d="M3935.03,1007.68 C3935.03,1021.91 3945.29,1037.8 3972.1,1037.8 C4006.52,1037.8 4042.6,1009.67 4042.6,980.538 C4042.6,961.009 4026.05,950.086 4005.53,950.086 C3973.42,950.086 3935.03,977.228 3935.03,1007.68"/>
<path class="Note" d="M4595.59,1958.47 C4595.59,1972.7 4605.85,1988.59 4632.66,1988.59 C4667.08,1988.59 4703.16,1960.45 4703.16,1931.33 C4703.16,1911.8 4686.61,1900.87 4666.09,1900.87 C4633.98,1900.87 4595.59,1928.02 4595.59,1958.47"/>
<path class="Note" d="M4418.35,1917.13 C4418.35,1931.36 4428.62,1947.25 4455.43,1947.25 C4489.85,1947.25 4525.93,1919.11 4525.93,1889.99 C4525.93,1870.46 4509.38,1859.53 4488.86,1859.53 C4456.75,1859.53 4418.35,1886.68 4418.35,1917.13"/>
<path class="Note" d="M7664.54,1890.35 C7653.61,1890.35 7651.3,1881.42 7651.3,1878.44 C7651.3,1862.22 7706.9,1833.75 7722.46,1833.75 C7730.4,1833.75 7735.7,1838.39 7735.7,1845.67 C7735.7,1862.22 7679.76,1890.35 7664.54,1890.35 M7710.21,1818.2 C7678.11,1818.2 7639.71,1845.01 7639.71,1875.79 C7639.71,1890.02 7649.97,1905.91 7676.78,1905.91 C7711.21,1905.91 7747.29,1877.78 7747.29,1848.65 C7747.29,1829.12 7730.74,1818.2 7710.21,1818.2"/>
<path class="Note" d="M5656.86,925.003 C5656.86,939.236 5667.12,955.124 5693.93,955.124 C5728.36,955.124 5764.44,926.989 5764.44,897.861 C5764.44,878.332 5747.89,867.409 5727.36,867.409 C5695.26,867.409 5656.86,894.551 5656.86,925.003"/>
<path class="Note" d="M8063.31,1890.35 C8052.38,1890.35 8050.07,1881.42 8050.07,1878.44 C8050.07,1862.22 8105.67,1833.75 8121.23,1833.75 C8129.18,1833.75 8134.47,1838.39 8134.47,1845.67 C8134.47,1862.22 8078.53,1890.35 8063.31,1890.35 M8108.98,1818.2 C8076.88,1818.2 8038.48,1845.01 8038.48,1875.79 C8038.48,1890.02 8048.74,1905.91 8075.55,1905.91 C8109.98,1905.91 8146.06,1877.78 8146.06,1848.65 C8146.06,1829.12 8129.51,1818.2 8108.98,1818.2"/>
<path class="Note" d="M4241.12,1875.79 C4241.12,1890.02 4251.38,1905.91 4278.19,1905.91 C4312.62,1905.91 4348.7,1877.78 4348.7,1848.65 C4348.7,1829.12 4332.15,1818.2 4311.63,1818.2 C4279.52,1818.2 4241.12,1845.34 4241.12,1875.79"/>
<path class="Note" d="M8437.25,1793.11 C8437.25,1807.35 8447.51,1823.23 8474.33,1823.23 C8508.75,1823.23 8544.83,1795.1 8544.83,1765.97 C8544.83,1746.44 8528.28,1735.52 8507.76,1735.52 C8475.65,1735.52 8437.25,1762.66 8437.25,1793.11"/>
<path class="Note" d="M7804.23,2826.58 C7804.23,2840.81 7814.5,2856.7 7841.31,2856.7 C7875.73,2856.7 7911.81,2828.56 7911.81,2799.44 C7911.81,2779.91 7895.26,2768.98 7874.74,2768.98 C7842.63,2768.98 7804.23,2796.13 7804.23,2826.58"/>
<path class="Note" d="M3975.27,1917.13 C3975.27,1931.36 3985.54,1947.25 4012.35,1947.25 C4046.77,1947.25 4082.85,1919.11 4082.85,1889.99 C4082.85,1870.46 4066.3,1859.53 4045.78,1859.53 C4013.67,1859.53 3975.27,1886.68 3975.27,1917.13"/>
<path class="Note" d="M8614.49,1751.77 C8614.49,1766.01 8624.75,1781.9 8651.56,1781.9 C8685.98,1781.9 8722.06,1753.76 8722.06,1724.63 C8722.06,1705.1 8705.51,1694.18 8684.99,1694.18 C8652.88,1694.18 8614.49,1721.32 8614.49,1751.77"/>
<path class="Note" d="M3798.04,1875.79 C3798.04,1890.02 3808.3,1905.91 3835.11,1905.91 C3869.54,1905.91 3905.62,1877.78 3905.62,1848.65 C3905.62,1829.12 3889.07,1818.2 3868.55,1818.2 C3836.44,1818.2 3798.04,1845.34 3798.04,1875.79"/>
<path class="Note" d="M8791.72,1793.11 C8791.72,1807.35 8801.98,1823.23 8828.79,1823.23 C8863.21,1823.23 8899.29,1795.1 8899.29,1765.97 C8899.29,1746.44 8882.74,1735.52 8862.22,1735.52 C8830.11,1735.52 8791.72,1762.66 8791.72,1793.11"/>
<path class="Note" d="M5901.83,966.341 C5901.83,980.574 5912.1,996.462 5938.91,996.462 C5973.33,996.462 6009.41,968.327 6009.41,939.199 C6009.41,919.67 5992.86,908.747 5972.34,908.747 C5940.23,908.747 5901.83,935.889 5901.83,966.341"/>
<path class="Note" d="M8968.95,1751.77 C8968.95,1766.01 8979.21,1781.9 9006.02,1781.9 C9040.45,1781.9 9076.52,1753.76 9076.52,1724.63 C9076.52,1705.1 9059.97,1694.18 9039.45,1694.18 C9007.35,1694.18 8968.95,1721.32 8968.95,1751.77"/>
<path class="Note" d="M3690.05,1090.36 C3690.05,1104.59 3700.31,1120.48 3727.12,1120.48 C3761.55,1120.48 3797.63,1092.34 3797.63,1063.22 C3797.63,1043.69 3781.08,1032.76 3760.56,1032.76 C3728.45,1032.76 3690.05,1059.91 3690.05,1090.36"/>
<path class="Note" d="M3620.81,1917.13 C3620.81,1931.36 3631.07,1947.25 3657.88,1947.25 C3692.31,1947.25 3728.39,1919.11 3728.39,1889.99 C3728.39,1870.46 3711.84,1859.53 3691.31,1859.53 C3659.21,1859.53 3620.81,1886.68 3620.81,1917.13"/>
<path class="Note" d="M3526.74,1007.68 C3526.74,1021.91 3537,1037.8 3563.81,1037.8 C3598.23,1037.8 3634.31,1009.67 3634.31,980.538 C3634.31,961.009 3617.76,950.086 3597.24,950.086 C3565.13,950.086 3526.74,977.228 3526.74,1007.68"/>
<path class="Note" d="M4490.55,883.664 C4490.55,897.897 4500.81,913.785 4527.62,913.785 C4562.04,913.785 4598.12,885.65 4598.12,856.522 C4598.12,836.993 4581.57,826.07 4561.05,826.07 C4528.94,826.07 4490.55,853.212 4490.55,883.664"/>
<path class="Note" d="M3363.42,1049.02 C3363.42,1063.25 3373.68,1079.14 3400.49,1079.14 C3434.92,1079.14 3471,1051 3471,1021.88 C3471,1002.35 3454.45,991.425 3433.92,991.425 C3401.82,991.425 3363.42,1018.57 3363.42,1049.02"/>
<path class="Note" d="M3271.07,1958.47 C3271.07,1972.7 3281.33,1988.59 3308.15,1988.59 C3342.57,1988.59 3378.65,1960.45 3378.65,1931.33 C3378.65,1911.8 3362.1,1900.87 3341.58,1900.87 C3309.47,1900.87 3271.07,1928.02 3271.07,1958.47"/>
<path class="Note" d="M3200.11,1007.68 C3200.11,1021.91 3210.37,1037.8 3237.18,1037.8 C3271.6,1037.8 3307.68,1009.67 3307.68,980.538 C3307.68,961.009 3291.13,950.086 3270.61,950.086 C3238.5,950.086 3200.11,977.228 3200.11,1007.68"/>
<path class="Note" d="M3093.84,1917.13 C3093.84,1931.36 3104.1,1947.25 3130.91,1947.25 C3165.34,1947.25 3201.42,1919.11 3201.42,1889.99 C3201.42,1870.46 3184.87,1859.53 3164.34,1859.53 C3132.24,1859.53 3093.84,1886.68 3093.84,1917.13"/>
<path class="Note" d="M7594.46,2785.24 C7594.46,2799.47 7604.72,2815.36 7631.53,2815.36 C7665.96,2815.36 7702.03,2787.23 7702.03,2758.1 C7702.03,2738.57 7685.48,2727.65 7664.96,2727.65 C7632.86,2727.65 7594.46,2754.79 7594.46,2785.24"/>
<path class="Note" d="M3036.79,966.341 C3036.79,980.574 3047.05,996.462 3073.86,996.462 C3108.29,996.462 3144.36,968.327 3144.36,939.199 C3144.36,919.67 3127.81,908.747 3107.29,908.747 C3075.19,908.747 3036.79,935.889 3036.79,966.341"/>
<path class="Note" d="M2916.61,1875.79 C2916.61,1890.02 2926.87,1905.91 2953.68,1905.91 C2988.11,1905.91 3024.18,1877.78 3024.18,1848.65 C3024.18,1829.12 3007.63,1818.2 2987.11,1818.2 C2955.01,1818.2 2916.61,1845.34 2916.61,1875.79"/>
<path class="Note" d="M2575.93,1022.24 C2565,1022.24 2562.69,1013.31 2562.69,1010.33 C2562.69,994.109 2618.29,965.643 2633.85,965.643 C2641.8,965.643 2647.09,970.277 2647.09,977.559 C2647.09,994.109 2591.15,1022.24 2575.93,1022.24 M2621.6,950.086 C2589.5,950.086 2551.1,976.897 2551.1,1007.68 C2551.1,1021.91 2561.36,1037.8 2588.17,1037.8 C2622.6,1037.8 2658.68,1009.67 2658.68,980.538 C2658.68,961.009 2642.13,950.086 2621.6,950.086"/>
<path class="Note" d="M6146.81,1007.68 C6146.81,1021.91 6157.07,1037.8 6183.88,1037.8 C6218.3,1037.8 6254.38,1009.67 6254.38,980.538 C6254.38,961.009 6237.83,950.086 6217.31,950.086 C6185.2,950.086 6146.81,977.228 6146.81,1007.68"/>
<path class="Note" d="M2306.13,1090.36 C2306.13,1104.59 2316.39,1120.48 2343.2,1120.48 C2377.62,1120.48 2413.7,1092.34 2413.7,1063.22 C2413.7,1043.69 2397.15,1032.76 2376.63,1032.76 C2344.52,1032.76 2306.13,1059.91 2306.13,1090.36"/>
<path class="Note" d="M7384.69,2743.9 C7384.69,2758.13 7394.95,2774.02 7421.76,2774.02 C7456.18,2774.02 7492.26,2745.89 7492.26,2716.76 C7492.26,2697.23 7475.71,2686.31 7455.19,2686.31 C7423.08,2686.31 7384.69,2713.45 7384.69,2743.9"/>
<path class="Note" d="M5248.57,925.003 C5248.57,939.236 5258.83,955.124 5285.64,955.124 C5320.07,955.124 5356.15,926.989 5356.15,897.861 C5356.15,878.332 5339.6,867.409 5319.08,867.409 C5286.97,867.409 5248.57,894.551 5248.57,925.003"/>
<path class="Note" d="M2739.38,1834.45 C2739.38,1848.68 2749.64,1864.57 2776.45,1864.57 C2810.87,1864.57 2846.95,1836.44 2846.95,1807.31 C2846.95,1787.78 2830.4,1776.86 2809.88,1776.86 C2777.77,1776.86 2739.38,1804 2739.38,1834.45"/>
<path class="Note" d="M1410.14,2578.55 C1410.14,2592.78 1420.4,2608.67 1447.21,2608.67 C1481.63,2608.67 1517.71,2580.53 1517.71,2551.4 C1517.71,2531.88 1501.16,2520.95 1480.64,2520.95 C1448.53,2520.95 1410.14,2548.09 1410.14,2578.55"/>
<path class="Note" d="M2473.53,1875.79 C2473.53,1890.02 2483.79,1905.91 2510.6,1905.91 C2545.03,1905.91 2581.1,1877.78 2581.1,1848.65 C2581.1,1829.12 2564.55,1818.2 2544.03,1818.2 C2511.93,1818.2 2473.53,1845.34 2473.53,1875.79"/>
<path class="Note" d="M1724.8,2578.55 C1724.8,2592.78 1735.06,2608.67 1761.87,2608.67 C1796.3,2608.67 1832.37,2580.53 1832.37,2551.4 C1832.37,2531.88 1815.82,2520.95 1795.3,2520.95 C1763.2,2520.95 1724.8,2548.09 1724.8,2578.55"/>
<path class="Note" d="M2296.3,1834.45 C2296.3,1848.68 2306.56,1864.57 2333.37,1864.57 C2367.79,1864.57 2403.87,1836.44 2403.87,1807.31 C2403.87,1787.78 2387.32,1776.86 2366.8,1776.86 C2334.69,1776.86 2296.3,1804 2296.3,1834.45"/>
<path class="Note" d="M2039.46,2578.55 C2039.46,2592.78 2049.72,2608.67 2076.53,2608.67 C2110.96,2608.67 2147.04,2580.53 2147.04,2551.4 C2147.04,2531.88 2130.49,2520.95 2109.96,2520.95 C2077.86,2520.95 2039.46,2548.09 2039.46,2578.55"/>
<path class="Note" d="M7174.91,2702.56 C7174.91,2716.79 7185.17,2732.68 7211.98,2732.68 C7246.41,2732.68 7282.49,2704.55 7282.49,2675.42 C7282.49,2655.89 7265.94,2644.97 7245.41,2644.97 C7213.31,2644.97 7174.91,2672.11 7174.91,2702.56"/>
<path class="Note" d="M6534.83,1063.58 C6523.91,1063.58 6521.59,1054.65 6521.59,1051.67 C6521.59,1035.45 6577.2,1006.98 6592.76,1006.98 C6600.7,1006.98 6606,1011.62 6606,1018.9 C6606,1035.45 6550.06,1063.58 6534.83,1063.58 M6580.51,991.425 C6548.41,991.425 6510.01,1018.24 6510.01,1049.02 C6510.01,1063.25 6520.27,1079.14 6547.08,1079.14 C6581.51,1079.14 6617.58,1051 6617.58,1021.88 C6617.58,1002.35 6601.03,991.425 6580.51,991.425"/>
<path class="Note" d="M2249.24,2619.88 C2249.24,2634.12 2259.5,2650.01 2286.31,2650.01 C2320.73,2650.01 2356.81,2621.87 2356.81,2592.74 C2356.81,2573.21 2340.26,2562.29 2319.74,2562.29 C2287.63,2562.29 2249.24,2589.43 2249.24,2619.88"/>
<path class="Note" d="M2119.07,1875.79 C2119.07,1890.02 2129.33,1905.91 2156.14,1905.91 C2190.56,1905.91 2226.64,1877.78 2226.64,1848.65 C2226.64,1829.12 2210.09,1818.2 2189.57,1818.2 C2157.46,1818.2 2119.07,1845.34 2119.07,1875.79"/>
<path class="Note" d="M2459.01,2661.22 C2459.01,2675.46 2469.27,2691.34 2496.08,2691.34 C2530.51,2691.34 2566.59,2663.21 2566.59,2634.08 C2566.59,2614.55 2550.04,2603.63 2529.51,2603.63 C2497.41,2603.63 2459.01,2630.77 2459.01,2661.22"/>
<path class="Note" d="M1941.83,1917.13 C1941.83,1931.36 1952.09,1947.25 1978.91,1947.25 C2013.33,1947.25 2049.41,1919.11 2049.41,1889.99 C2049.41,1870.46 2032.86,1859.53 2012.34,1859.53 C1980.23,1859.53 1941.83,1886.68 1941.83,1917.13"/>
<path class="Note" d="M2668.78,2702.56 C2668.78,2716.79 2679.05,2732.68 2705.86,2732.68 C2740.28,2732.68 2776.36,2704.55 2776.36,2675.42 C2776.36,2655.89 2759.81,2644.97 2739.29,2644.97 C2707.18,2644.97 2668.78,2672.11 2668.78,2702.56"/>
<path class="Note" d="M1764.6,1875.79 C1764.6,1890.02 1774.86,1905.91 1801.67,1905.91 C1836.1,1905.91 1872.18,1877.78 1872.18,1848.65 C1872.18,1829.12 1855.63,1818.2 1835.1,1818.2 C1803,1818.2 1764.6,1845.34 1764.6,1875.79"/>
<path class="Note" d="M2903.38,2758.46 C2892.46,2758.46 2890.14,2749.53 2890.14,2746.55 C2890.14,2730.33 2945.75,2701.86 2961.31,2701.86 C2969.25,2701.86 2974.55,2706.5 2974.55,2713.78 C2974.55,2730.33 2918.61,2758.46 2903.38,2758.46 M2949.06,2686.31 C2916.96,2686.31 2878.56,2713.12 2878.56,2743.9 C2878.56,2758.13 2888.82,2774.02 2915.63,2774.02 C2950.06,2774.02 2986.13,2745.89 2986.13,2716.76 C2986.13,2697.23 2969.58,2686.31 2949.06,2686.31"/>
<path class="Note" d="M1587.37,1834.45 C1587.37,1848.68 1597.63,1864.57 1624.44,1864.57 C1658.87,1864.57 1694.94,1836.44 1694.94,1807.31 C1694.94,1787.78 1678.39,1776.86 1657.87,1776.86 C1625.77,1776.86 1587.37,1804 1587.37,1834.45"/>
<path class="Note" d="M2061.15,1214.37 C2061.15,1228.61 2071.42,1244.49 2098.23,1244.49 C2132.65,1244.49 2168.73,1216.36 2168.73,1187.23 C2168.73,1167.7 2152.18,1156.78 2131.66,1156.78 C2099.55,1156.78 2061.15,1183.92 2061.15,1214.37"/>
<path class="Note" d="M6860.25,2661.22 C6860.25,2675.46 6870.51,2691.34 6897.32,2691.34 C6931.74,2691.34 6967.82,2663.21 6967.82,2634.08 C6967.82,2614.55 6951.27,2603.63 6930.75,2603.63 C6898.64,2603.63 6860.25,2630.77 6860.25,2661.22"/>
<path class="Note" d="M3468.78,2743.9 C3468.78,2758.13 3479.04,2774.02 3505.85,2774.02 C3540.28,2774.02 3576.36,2745.89 3576.36,2716.76 C3576.36,2697.23 3559.81,2686.31 3539.28,2686.31 C3507.18,2686.31 3468.78,2713.45 3468.78,2743.9"/>
<path class="Note" d="M6877.47,1090.36 C6877.47,1104.59 6887.73,1120.48 6914.54,1120.48 C6948.97,1120.48 6985.04,1092.34 6985.04,1063.22 C6985.04,1043.69 6968.49,1032.76 6947.97,1032.76 C6915.87,1032.76 6877.47,1059.91 6877.47,1090.36"/>
<path class="Note" d="M1410.14,1793.11 C1410.14,1807.35 1420.4,1823.23 1447.21,1823.23 C1481.63,1823.23 1517.71,1795.1 1517.71,1765.97 C1517.71,1746.44 1501.16,1735.52 1480.64,1735.52 C1448.53,1735.52 1410.14,1762.66 1410.14,1793.11"/>
<path class="Note" d="M3678.55,2702.56 C3678.55,2716.79 3688.82,2732.68 3715.63,2732.68 C3750.05,2732.68 3786.13,2704.55 3786.13,2675.42 C3786.13,2655.89 3769.58,2644.97 3749.06,2644.97 C3716.95,2644.97 3678.55,2672.11 3678.55,2702.56"/>
<path class="Note" d="M6545.59,2826.58 C6545.59,2840.81 6555.85,2856.7 6582.66,2856.7 C6617.08,2856.7 6653.16,2828.56 6653.16,2799.44 C6653.16,2779.91 6636.61,2768.98 6616.09,2768.98 C6583.98,2768.98 6545.59,2796.13 6545.59,2826.58"/>
<path class="Note" d="M3888.33,2743.9 C3888.33,2758.13 3898.59,2774.02 3925.4,2774.02 C3959.83,2774.02 3995.9,2745.89 3995.9,2716.76 C3995.9,2697.23 3979.35,2686.31 3958.83,2686.31 C3926.73,2686.31 3888.33,2713.45 3888.33,2743.9"/>
<path class="Note" d="M7122.44,925.003 C7122.44,939.236 7132.7,955.124 7159.52,955.124 C7193.94,955.124 7230.02,926.989 7230.02,897.861 C7230.02,878.332 7213.47,867.409 7192.95,867.409 C7160.84,867.409 7122.44,894.551 7122.44,925.003"/>
<path class="Note" d="M4098.1,2702.56 C4098.1,2716.79 4108.36,2732.68 4135.18,2732.68 C4169.6,2732.68 4205.68,2704.55 4205.68,2675.42 C4205.68,2655.89 4189.13,2644.97 4168.61,2644.97 C4136.5,2644.97 4098.1,2672.11 4098.1,2702.56"/>
<path class="Note" d="M4840.28,925.003 C4840.28,939.236 4850.54,955.124 4877.36,955.124 C4911.78,955.124 4947.86,926.989 4947.86,897.861 C4947.86,878.332 4931.31,867.409 4910.79,867.409 C4878.68,867.409 4840.28,894.551 4840.28,925.003"/>
<path class="Note" d="M4307.88,2661.22 C4307.88,2675.46 4318.14,2691.34 4344.95,2691.34 C4379.37,2691.34 4415.45,2663.21 4415.45,2634.08 C4415.45,2614.55 4398.9,2603.63 4378.38,2603.63 C4346.27,2603.63 4307.88,2630.77 4307.88,2661.22"/>
<path class="Note" d="M8955.49,966.341 C8955.49,980.574 8965.75,996.462 8992.56,996.462 C9026.98,996.462 9063.06,968.327 9063.06,939.199 C9063.06,919.67 9046.51,908.747 9025.99,908.747 C8993.88,908.747 8955.49,935.889 8955.49,966.341"/>
<path class="Note" d="M4622.54,2661.22 C4622.54,2675.46 4632.8,2691.34 4659.61,2691.34 C4694.04,2691.34 4730.12,2663.21 4730.12,2634.08 C4730.12,2614.55 4713.57,2603.63 4693.04,2603.63 C4660.94,2603.63 4622.54,2630.77 4622.54,2661.22"/>
<path class="Note" d="M6230.93,2661.22 C6230.93,2675.46 6241.19,2691.34 6268,2691.34 C6302.42,2691.34 6338.5,2663.21 6338.5,2634.08 C6338.5,2614.55 6321.95,2603.63 6301.43,2603.63 C6269.32,2603.63 6230.93,2630.77 6230.93,2661.22"/>
<path class="Note" d="M4937.2,2661.22 C4937.2,2675.46 4947.46,2691.34 4974.27,2691.34 C5008.7,2691.34 5044.78,2663.21 5044.78,2634.08 C5044.78,2614.55 5028.23,2603.63 5007.71,2603.63 C4975.6,2603.63 4937.2,2630.77 4937.2,2661.22"/>
<path class="Note" d="M7367.42,883.664 C7367.42,897.897 7377.68,913.785 7404.49,913.785 C7438.91,913.785 7474.99,885.65 7474.99,856.522 C7474.99,836.993 7458.44,826.07 7437.92,826.07 C7405.81,826.07 7367.42,853.212 7367.42,883.664"/>
<path class="Note" d="M8367.88,1022.24 C8356.95,1022.24 8354.64,1013.31 8354.64,1010.33 C8354.64,994.109 8410.25,965.643 8425.8,965.643 C8433.75,965.643 8439.04,970.277 8439.04,977.559 C8439.04,994.109 8383.1,1022.24 8367.88,1022.24 M8413.56,950.086 C8381.45,950.086 8343.05,976.897 8343.05,1007.68 C8343.05,1021.91 8353.31,1037.8 8380.12,1037.8 C8414.55,1037.8 8450.63,1009.67 8450.63,980.538 C8450.63,961.009 8434.08,950.086 8413.56,950.086"/>
<path class="Note" d="M5146.98,2702.56 C5146.98,2716.79 5157.24,2732.68 5184.05,2732.68 C5218.47,2732.68 5254.55,2704.55 5254.55,2675.42 C5254.55,2655.89 5238,2644.97 5217.48,2644.97 C5185.37,2644.97 5146.98,2672.11 5146.98,2702.56"/>
<path class="Note" d="M8000.42,980.905 C7989.49,980.905 7987.18,971.968 7987.18,968.989 C7987.18,952.77 8042.79,924.304 8058.34,924.304 C8066.29,924.304 8071.58,928.938 8071.58,936.22 C8071.58,952.77 8015.64,980.905 8000.42,980.905 M8046.1,908.747 C8013.99,908.747 7975.59,935.558 7975.59,966.341 C7975.59,980.574 7985.85,996.462 8012.66,996.462 C8047.09,996.462 8083.17,968.327 8083.17,939.199 C8083.17,919.67 8066.62,908.747 8046.1,908.747"/>
<path class="Note" d="M5356.75,2743.9 C5356.75,2758.13 5367.01,2774.02 5393.82,2774.02 C5428.25,2774.02 5464.33,2745.89 5464.33,2716.76 C5464.33,2697.23 5447.78,2686.31 5427.25,2686.31 C5395.15,2686.31 5356.75,2713.45 5356.75,2743.9"/>
<path class="Note" d="M5085.26,800.987 C5085.26,815.22 5095.52,831.108 5122.33,831.108 C5156.75,831.108 5192.83,802.973 5192.83,773.845 C5192.83,754.316 5176.28,743.393 5155.76,743.393 C5123.65,743.393 5085.26,770.535 5085.26,800.987"/>
<path class="Note" d="M5566.53,2785.24 C5566.53,2799.47 5576.79,2815.36 5603.6,2815.36 C5638.02,2815.36 5674.1,2787.23 5674.1,2758.1 C5674.1,2738.57 5657.55,2727.65 5637.03,2727.65 C5604.92,2727.65 5566.53,2754.79 5566.53,2785.24"/>
<path class="Note" d="M5916.26,2826.58 C5916.26,2840.81 5926.52,2856.7 5953.34,2856.7 C5987.76,2856.7 6023.84,2828.56 6023.84,2799.44 C6023.84,2779.91 6007.29,2768.98 5986.77,2768.98 C5954.66,2768.98 5916.26,2796.13 5916.26,2826.58"/>
<path class="Note" d="M1816.18,1214.37 C1816.18,1228.61 1826.44,1244.49 1853.25,1244.49 C1887.68,1244.49 1923.76,1216.36 1923.76,1187.23 C1923.76,1167.7 1907.21,1156.78 1886.68,1156.78 C1854.58,1156.78 1816.18,1183.92 1816.18,1214.37"/>
<path class="Note" d="M6015.01,1793.11 C6015.01,1807.35 6025.27,1823.23 6052.08,1823.23 C6086.51,1823.23 6122.59,1795.1 6122.59,1765.97 C6122.59,1746.44 6106.04,1735.52 6085.51,1735.52 C6053.41,1735.52 6015.01,1762.66 6015.01,1793.11"/>
<path class="Clef" d="M909.689,1144.64 C903.069,1145.97 896.78,1146.63 890.491,1146.63 C843.158,1146.63 802.776,1113.53 802.776,1063.55 C802.776,1023.16 831.242,987.085 860.37,961.929 C865.997,956.964 871.293,952.33 876.258,947.365 C879.237,965.239 881.554,980.796 883.871,994.367 C853.75,1003.3 833.228,1035.08 833.228,1066.19 C833.228,1089.36 851.433,1121.14 877.913,1121.14 C880.561,1121.14 883.54,1119.82 883.54,1116.84 C883.54,1113.86 880.23,1112.2 876.258,1109.56 C863.349,1101.61 856.067,1093.01 856.067,1076.79 C856.067,1056.6 870.962,1040.38 890.491,1035.74 L909.689,1144.64 M880.561,804.373 C883.54,791.133 898.766,756.378 915.978,756.378 C920.943,756.378 928.887,772.597 928.887,795.436 C928.887,829.86 903.4,855.678 880.561,878.186 C878.575,864.946 876.92,852.037 876.92,838.135 C876.92,825.888 877.913,814.634 880.561,804.373 M956.691,1083.41 C956.691,1106.91 947.092,1131.07 923.591,1140.67 C916.64,1100.95 907.703,1048.32 905.386,1033.76 C935.176,1033.76 956.691,1053.95 956.691,1083.41 M811.051,1246.26 C811.051,1268.1 827.932,1296.9 872.617,1296.9 C888.174,1296.9 901.745,1292.93 913.661,1285.65 C931.535,1273.07 936.169,1251.22 936.169,1230.37 C936.169,1217.46 934.183,1202.57 930.873,1183.7 C929.88,1177.08 927.894,1167.15 925.908,1154.24 C958.346,1143.65 982.509,1109.89 982.509,1075.79 C982.509,1025.81 947.092,992.05 898.766,992.05 C895.456,972.19 892.146,952.661 889.167,934.125 C924.253,897.384 948.416,856.009 948.416,803.38 C948.416,773.259 939.148,748.765 933.852,736.849 C925.908,719.968 916.309,708.383 910.351,708.383 C908.034,708.383 897.773,712.355 886.85,725.264 C865.666,750.42 859.708,792.788 859.708,820.592 C859.708,838.466 861.363,854.685 866.99,891.757 C866.659,892.088 849.447,909.631 842.496,915.258 C812.375,943.393 770.669,983.444 770.669,1049.64 C770.669,1111.54 824.622,1160.2 886.188,1160.2 C895.787,1160.2 904.724,1159.21 912.337,1157.88 C918.626,1189.66 922.267,1212.83 922.267,1230.37 C922.267,1264.79 904.724,1283 871.293,1283 C863.349,1283 856.398,1281.34 855.736,1281.34 C855.405,1281.01 854.743,1280.68 854.743,1280.35 C854.743,1279.69 855.405,1279.36 856.398,1279.03 C871.955,1276.71 887.512,1263.47 887.512,1242.29 C887.512,1224.41 873.941,1205.55 849.116,1205.55 C825.946,1205.55 811.051,1224.41 811.051,1246.26"/>
<path class="Clef" d="M909.689,2012.75 C903.069,2014.08 896.78,2014.74 890.491,2014.74 C843.158,2014.74 802.776,1981.64 802.776,1931.66 C802.776,1891.27 831.242,1855.2 860.37,1830.04 C865.997,1825.07 871.293,1820.44 876.258,1815.48 C879.237,1833.35 881.554,1848.91 883.871,1862.48 C853.75,1871.41 833.228,1903.19 833.228,1934.3 C833.228,1957.47 851.433,1989.25 877.913,1989.25 C880.561,1989.25 883.54,1987.93 883.54,1984.95 C883.54,1981.97 880.23,1980.31 876.258,1977.67 C863.349,1969.72 856.067,1961.12 856.067,1944.9 C856.067,1924.71 870.962,1908.49 890.491,1903.85 L909.689,2012.75 M880.561,1672.48 C883.54,1659.24 898.766,1624.49 915.978,1624.49 C920.943,1624.49 928.887,1640.71 928.887,1663.55 C928.887,1697.97 903.4,1723.79 880.561,1746.3 C878.575,1733.06 876.92,1720.15 876.92,1706.25 C876.92,1694 877.913,1682.74 880.561,1672.48 M956.691,1951.52 C956.691,1975.02 947.092,1999.18 923.591,2008.78 C916.64,1969.06 907.703,1916.43 905.386,1901.87 C935.176,1901.87 956.691,1922.06 956.691,1951.52 M811.051,2114.37 C811.051,2136.21 827.932,2165.01 872.617,2165.01 C888.174,2165.01 901.745,2161.04 913.661,2153.76 C931.535,2141.18 936.169,2119.33 936.169,2098.48 C936.169,2085.57 934.183,2070.68 930.873,2051.81 C929.88,2045.19 927.894,2035.26 925.908,2022.35 C958.346,2011.76 982.509,1978 982.509,1943.9 C982.509,1893.92 947.092,1860.16 898.766,1860.16 C895.456,1840.3 892.146,1820.77 889.167,1802.24 C924.253,1765.49 948.416,1724.12 948.416,1671.49 C948.416,1641.37 939.148,1616.88 933.852,1604.96 C925.908,1588.08 916.309,1576.49 910.351,1576.49 C908.034,1576.49 897.773,1580.47 886.85,1593.37 C865.666,1618.53 859.708,1660.9 859.708,1688.7 C859.708,1706.58 861.363,1722.8 866.99,1759.87 C866.659,1760.2 849.447,1777.74 842.496,1783.37 C812.375,1811.5 770.669,1851.55 770.669,1917.75 C770.669,1979.65 824.622,2028.31 886.188,2028.31 C895.787,2028.31 904.724,2027.32 912.337,2025.99 C918.626,2057.77 922.267,2080.94 922.267,2098.48 C922.267,2132.9 904.724,2151.11 871.293,2151.11 C863.349,2151.11 856.398,2149.45 855.736,2149.45 C855.405,2149.12 854.743,2148.79 854.743,2148.46 C854.743,2147.8 855.405,2147.47 856.398,2147.14 C871.955,2144.82 887.512,2131.58 887.512,2110.4 C887.512,2092.52 873.941,2073.66 849.116,2073.66 C825.946,2073.66 811.051,2092.52 811.051,2114.37"/>
<path class="Clef" d="M909.689,2880.86 C903.069,2882.19 896.78,2882.85 890.491,2882.85 C843.158,2882.85 802.776,2849.75 802.776,2799.77 C802.776,2759.38 831.242,2723.31 860.37,2698.15 C865.997,2693.18 871.293,2688.55 876.258,2683.59 C879.237,2701.46 881.554,2717.02 883.871,2730.59 C853.75,2739.52 833.228,2771.3 833.228,2802.41 C833.228,2825.58 851.433,2857.36 877.913,2857.36 C880.561,2857.36 883.54,2856.04 883.54,2853.06 C883.54,2850.08 880.23,2848.42 876.258,2845.78 C863.349,2837.83 856.067,2829.23 856.067,2813.01 C856.067,2792.82 870.962,2776.6 890.491,2771.96 L909.689,2880.86 M880.561,2540.59 C883.54,2527.35 898.766,2492.6 915.978,2492.6 C920.943,2492.6 928.887,2508.82 928.887,2531.66 C928.887,2566.08 903.4,2591.9 880.561,2614.41 C878.575,2601.17 876.92,2588.26 876.92,2574.36 C876.92,2562.11 877.913,2550.85 880.561,2540.59 M956.691,2819.63 C956.691,2843.13 947.092,2867.29 923.591,2876.89 C916.64,2837.17 907.703,2784.54 905.386,2769.98 C935.176,2769.98 956.691,2790.17 956.691,2819.63 M811.051,2982.48 C811.051,3004.32 827.932,3033.12 872.617,3033.12 C888.174,3033.12 901.745,3029.15 913.661,3021.87 C931.535,3009.29 936.169,2987.44 936.169,2966.59 C936.169,2953.68 934.183,2938.79 930.873,2919.92 C929.88,2913.3 927.894,2903.37 925.908,2890.46 C958.346,2879.87 982.509,2846.11 982.509,2812.01 C982.509,2762.03 947.092,2728.27 898.766,2728.27 C895.456,2708.41 892.146,2688.88 889.167,2670.35 C924.253,2633.6 948.416,2592.23 948.416,2539.6 C948.416,2509.48 939.148,2484.99 933.852,2473.07 C925.908,2456.19 916.309,2444.6 910.351,2444.6 C908.034,2444.6 897.773,2448.58 886.85,2461.48 C865.666,2486.64 859.708,2529.01 859.708,2556.81 C859.708,2574.69 861.363,2590.91 866.99,2627.98 C866.659,2628.31 849.447,2645.85 842.496,2651.48 C812.375,2679.61 770.669,2719.66 770.669,2785.86 C770.669,2847.76 824.622,2896.42 886.188,2896.42 C895.787,2896.42 904.724,2895.43 912.337,2894.1 C918.626,2925.88 922.267,2949.05 922.267,2966.59 C922.267,3001.01 904.724,3019.22 871.293,3019.22 C863.349,3019.22 856.398,3017.56 855.736,3017.56 C855.405,3017.23 854.743,3016.9 854.743,3016.57 C854.743,3015.91 855.405,3015.58 856.398,3015.25 C871.955,3012.93 887.512,2999.69 887.512,2978.51 C887.512,2960.63 873.941,2941.77 849.116,2941.77 C825.946,2941.77 811.051,2960.63 811.051,2982.48"/>
<path class="KeySig" d="M1088.05,2716.76 C1088.05,2742.91 1074.48,2756.81 1055.28,2772.04 L1056.27,2707.49 C1056.93,2704.51 1061.9,2694.91 1075.14,2694.91 C1087.06,2694.91 1088.05,2706.17 1088.05,2713.12 L1088.05,2716.76 M1084.08,2678.69 C1067.53,2678.69 1057.93,2688.95 1056.27,2690.94 L1057.6,2584.69 C1057.6,2582.04 1055.61,2580.06 1052.96,2580.06 L1048.99,2580.06 C1046.34,2580.06 1044.36,2582.04 1044.36,2584.69 L1046.01,2783.62 C1046.01,2786.27 1048,2788.25 1050.65,2788.25 C1051.31,2788.25 1052.63,2787.92 1053.29,2787.59 C1081.76,2773.36 1111.55,2746.22 1111.55,2712.12 C1111.55,2694.91 1103.61,2678.69 1084.08,2678.69"/>
<path class="KeySig" d="M1179.99,2592.74 C1179.99,2618.89 1166.42,2632.79 1147.22,2648.02 L1148.21,2583.47 C1148.87,2580.5 1153.84,2570.9 1167.08,2570.9 C1178.99,2570.9 1179.99,2582.15 1179.99,2589.1 L1179.99,2592.74 M1176.01,2554.68 C1159.46,2554.68 1149.87,2564.94 1148.21,2566.92 L1149.53,2460.67 C1149.53,2458.03 1147.55,2456.04 1144.9,2456.04 L1140.93,2456.04 C1138.28,2456.04 1136.29,2458.03 1136.29,2460.67 L1137.95,2659.6 C1137.95,2662.25 1139.94,2664.24 1142.58,2664.24 C1143.25,2664.24 1144.57,2663.91 1145.23,2663.58 C1173.7,2649.34 1203.49,2622.2 1203.49,2588.11 C1203.49,2570.9 1195.54,2554.68 1176.01,2554.68"/>
<path class="KeySig" d="M1088.05,1848.65 C1088.05,1874.8 1074.48,1888.7 1055.28,1903.93 L1056.27,1839.38 C1056.93,1836.4 1061.9,1826.8 1075.14,1826.8 C1087.06,1826.8 1088.05,1838.06 1088.05,1845.01 L1088.05,1848.65 M1084.08,1810.58 C1067.53,1810.58 1057.93,1820.84 1056.27,1822.83 L1057.6,1716.58 C1057.6,1713.93 1055.61,1711.95 1052.96,1711.95 L1048.99,1711.95 C1046.34,1711.95 1044.36,1713.93 1044.36,1716.58 L1046.01,1915.51 C1046.01,1918.16 1048,1920.14 1050.65,1920.14 C1051.31,1920.14 1052.63,1919.81 1053.29,1919.48 C1081.76,1905.25 1111.55,1878.11 1111.55,1844.01 C1111.55,1826.8 1103.61,1810.58 1084.08,1810.58"/>
<path class="KeySig" d="M1179.99,1724.63 C1179.99,1750.78 1166.42,1764.68 1147.22,1779.91 L1148.21,1715.36 C1148.87,1712.39 1153.84,1702.79 1167.08,1702.79 C1178.99,1702.79 1179.99,1714.04 1179.99,1720.99 L1179.99,1724.63 M1176.01,1686.57 C1159.46,1686.57 1149.87,1696.83 1148.21,1698.81 L1149.53,1592.56 C1149.53,1589.92 1147.55,1587.93 1144.9,1587.93 L1140.93,1587.93 C1138.28,1587.93 1136.29,1589.92 1136.29,1592.56 L1137.95,1791.49 C1137.95,1794.14 1139.94,1796.13 1142.58,1796.13 C1143.25,1796.13 1144.57,1795.8 1145.23,1795.47 C1173.7,1781.23 1203.49,1754.09 1203.49,1720 C1203.49,1702.79 1195.54,1686.57 1176.01,1686.57"/>
<path class="KeySig" d="M1088.05,980.538 C1088.05,1006.69 1074.48,1020.59 1055.28,1035.82 L1056.27,971.27 C1056.93,968.291 1061.9,958.692 1075.14,958.692 C1087.06,958.692 1088.05,969.946 1088.05,976.897 L1088.05,980.538 M1084.08,942.473 C1067.53,942.473 1057.93,952.734 1056.27,954.72 L1057.6,848.469 C1057.6,845.821 1055.61,843.835 1052.96,843.835 L1048.99,843.835 C1046.34,843.835 1044.36,845.821 1044.36,848.469 L1046.01,1047.4 C1046.01,1050.05 1048,1052.03 1050.65,1052.03 C1051.31,1052.03 1052.63,1051.7 1053.29,1051.37 C1081.76,1037.14 1111.55,1010 1111.55,975.904 C1111.55,958.692 1103.61,942.473 1084.08,942.473"/>
<path class="KeySig" d="M1179.99,856.522 C1179.99,882.671 1166.42,896.573 1147.22,911.799 L1148.21,847.254 C1148.87,844.275 1153.84,834.676 1167.08,834.676 C1178.99,834.676 1179.99,845.93 1179.99,852.881 L1179.99,856.522 M1176.01,818.457 C1159.46,818.457 1149.87,828.718 1148.21,830.704 L1149.53,724.453 C1149.53,721.805 1147.55,719.819 1144.9,719.819 L1140.93,719.819 C1138.28,719.819 1136.29,721.805 1136.29,724.453 L1137.95,923.384 C1137.95,926.032 1139.94,928.018 1142.58,928.018 C1143.25,928.018 1144.57,927.687 1145.23,927.356 C1173.7,913.123 1203.49,885.981 1203.49,851.888 C1203.49,834.676 1195.54,818.457 1176.01,818.457"/>
<path class="TimeSig" d="M1373.33,907.779 C1399.81,897.518 1401.47,880.306 1401.47,874.348 L1401.47,872.693 C1401.47,869.714 1400.48,832.311 1343.54,832.311 C1286.61,832.311 1288.27,872.693 1288.27,872.693 L1288.6,872.693 L1288.27,873.355 C1288.27,885.271 1297.87,894.539 1309.78,894.539 C1321.7,894.539 1330.97,885.271 1330.97,873.355 C1330.97,863.756 1323.68,854.488 1314.42,852.502 L1315.41,851.509 C1320.04,848.199 1326.33,846.544 1332.62,846.544 C1346.52,846.544 1361.42,854.819 1361.42,872.693 C1361.42,893.546 1345.86,896.525 1341.89,897.187 C1337.92,897.849 1319.38,899.173 1315.41,899.173 C1311.44,899.173 1311.11,903.807 1311.11,903.807 L1311.11,910.427 C1311.11,910.427 1311.77,914.068 1315.41,914.399 C1321.04,914.73 1328.65,914.73 1339.24,916.385 C1353.8,918.371 1361.42,928.301 1361.42,951.471 C1361.42,973.648 1346.52,979.606 1332.62,979.606 C1323.35,979.606 1314.75,976.958 1311.11,974.31 C1322.03,973.648 1330.97,964.049 1330.97,953.126 C1330.97,941.21 1321.7,931.611 1309.78,931.611 C1297.87,931.611 1288.27,941.21 1288.27,953.126 C1288.27,980.268 1313.09,993.839 1337.59,993.839 C1369.36,993.839 1403.79,982.916 1403.79,946.837 C1403.79,922.674 1387.24,912.413 1372.67,907.779 L1373.33,907.779 "/>
<path class="TimeSig" d="M1394.36,1087.39 C1391.71,1094.67 1385.09,1118.5 1368.88,1118.5 C1347.36,1118.5 1342.73,1105.26 1324.85,1105.26 C1322.2,1105.26 1319.56,1105.6 1316.25,1106.26 C1316.25,1106.26 1324.52,1093.68 1359.61,1082.76 C1394.69,1071.83 1403.63,1054.62 1403.63,1034.76 C1403.63,1020.86 1397.34,993.386 1347.36,993.386 C1297.38,993.386 1288.11,1023.51 1288.11,1038.73 C1288.11,1052.3 1299.37,1063.23 1312.94,1063.23 C1326.51,1063.23 1337.43,1052.3 1337.43,1038.73 C1337.43,1029.47 1330.81,1019.2 1322.2,1015.89 C1321.21,1015.56 1319.89,1013.91 1319.89,1012.25 C1319.89,1010.27 1321.54,1007.95 1327.5,1006.3 C1329.16,1005.63 1333.79,1004.64 1338.75,1004.64 C1357.62,1004.64 1361.26,1016.23 1361.26,1033.11 C1361.26,1071.83 1315.25,1080.11 1296.06,1108.91 C1296.06,1108.91 1286.13,1122.81 1286.13,1138.36 C1286.13,1153.92 1294.07,1154.91 1298.04,1154.91 C1303.34,1154.91 1308.96,1150.61 1308.96,1144.65 C1308.96,1143.33 1308.63,1142.01 1307.97,1140.35 C1305.99,1135.72 1305.32,1132.08 1305.32,1129.43 C1305.32,1128.43 1305.32,1127.44 1305.65,1126.45 C1305.99,1124.46 1308.63,1121.15 1316.58,1121.15 C1326.18,1121.15 1329.82,1132.41 1335.78,1141.01 C1341.73,1149.62 1351,1154.91 1361.59,1154.91 C1372.19,1154.91 1386.42,1147.3 1392.38,1135.05 C1398.33,1122.81 1405.95,1097.98 1405.95,1089.05 C1405.95,1084.74 1403.3,1082.76 1400.32,1082.76 C1398,1082.76 1395.69,1084.08 1394.36,1087.39"/>
<path class="Rest" d="M8786.64,1048.72 C8786.31,1048.39 8785.65,1047.73 8784.66,1046.41 L8746.59,999.405 C8746.26,999.074 8745.93,998.081 8745.93,997.419 C8745.93,996.426 8746.26,995.102 8746.59,994.44 L8780.35,943.466 C8780.68,942.804 8781.02,941.811 8781.02,941.149 L8781.02,938.17 C8781.02,937.177 8780.68,936.184 8780.02,935.522 L8726.4,863.033 C8726.4,863.033 8725.08,861.047 8723.09,861.047 C8722.1,861.047 8721.44,861.378 8720.44,862.04 C8719.12,863.033 8718.79,864.357 8718.79,865.35 C8718.79,867.336 8719.78,868.991 8719.78,868.991 L8744.94,903.415 C8745.6,904.408 8745.93,905.732 8745.93,907.387 C8745.93,908.711 8745.6,910.366 8744.94,911.359 L8711.51,962.333 C8711.17,962.995 8710.84,964.319 8710.84,964.981 L8710.84,967.96 C8710.84,968.953 8711.17,969.946 8711.84,970.608 L8748.91,1016.62 C8747.58,1016.29 8744.61,1015.62 8740.63,1015.62 C8723.75,1015.62 8710.51,1029.53 8710.51,1046.41 C8710.51,1051.04 8711.51,1055.68 8714.15,1059.32 C8721.1,1069.91 8745.93,1101.35 8745.93,1101.35 C8745.93,1101.35 8747.58,1103.34 8749.9,1103.34 C8750.56,1103.34 8751.23,1103.34 8751.89,1102.68 C8753.54,1101.35 8754.2,1100.03 8754.2,1098.71 C8754.2,1097.38 8753.54,1096.39 8753.21,1095.73 C8752.22,1094.07 8741.63,1074.87 8741.63,1074.87 C8741.63,1074.87 8739.31,1070.24 8739.31,1064.28 C8739.31,1053.69 8747.25,1045.08 8757.85,1045.08 C8762.15,1045.08 8765.79,1046.41 8768.44,1048.06 L8781.35,1056.34 C8781.35,1056.34 8782.67,1057 8783.99,1057 C8785.32,1057 8786.31,1056.67 8787.3,1055.34 C8787.97,1054.02 8788.3,1053.36 8788.3,1052.37 C8788.3,1051.37 8787.97,1050.71 8787.3,1049.72 L8786.64,1048.72 "/>
<path class="Rest" d="M5825.29,1916.83 C5824.96,1916.5 5824.3,1915.84 5823.31,1914.52 L5785.24,1867.52 C5784.91,1867.18 5784.58,1866.19 5784.58,1865.53 C5784.58,1864.54 5784.91,1863.21 5785.24,1862.55 L5819,1811.58 C5819.33,1810.91 5819.67,1809.92 5819.67,1809.26 L5819.67,1806.28 C5819.67,1805.29 5819.33,1804.29 5818.67,1803.63 L5765.05,1731.14 C5765.05,1731.14 5763.73,1729.16 5761.74,1729.16 C5760.75,1729.16 5760.09,1729.49 5759.09,1730.15 C5757.77,1731.14 5757.44,1732.47 5757.44,1733.46 C5757.44,1735.45 5758.43,1737.1 5758.43,1737.1 L5783.59,1771.53 C5784.25,1772.52 5784.58,1773.84 5784.58,1775.5 C5784.58,1776.82 5784.25,1778.48 5783.59,1779.47 L5750.16,1830.44 C5749.82,1831.11 5749.49,1832.43 5749.49,1833.09 L5749.49,1836.07 C5749.49,1837.06 5749.82,1838.06 5750.49,1838.72 L5787.56,1884.73 C5786.23,1884.4 5783.26,1883.73 5779.28,1883.73 C5762.4,1883.73 5749.16,1897.64 5749.16,1914.52 C5749.16,1919.15 5750.16,1923.79 5752.8,1927.43 C5759.75,1938.02 5784.58,1969.46 5784.58,1969.46 C5784.58,1969.46 5786.23,1971.45 5788.55,1971.45 C5789.21,1971.45 5789.88,1971.45 5790.54,1970.79 C5792.19,1969.46 5792.85,1968.14 5792.85,1966.82 C5792.85,1965.49 5792.19,1964.5 5791.86,1963.84 C5790.87,1962.18 5780.28,1942.98 5780.28,1942.98 C5780.28,1942.98 5777.96,1938.35 5777.96,1932.39 C5777.96,1921.8 5785.9,1913.19 5796.5,1913.19 C5800.8,1913.19 5804.44,1914.52 5807.09,1916.17 L5820,1924.45 C5820,1924.45 5821.32,1925.11 5822.64,1925.11 C5823.97,1925.11 5824.96,1924.78 5825.95,1923.45 C5826.62,1922.13 5826.95,1921.47 5826.95,1920.48 C5826.95,1919.48 5826.62,1918.82 5825.95,1917.83 L5825.29,1916.83 "/>
<path class="Beam" fill-rule="evenodd" d="M2838.59,1572.38 L3378.55,1634.39 L3378.55,1676 L2838.59,1613.99 L2838.59,1572.38 "/>
<path class="Beam" fill-rule="evenodd" d="M7274.12,2440.53 L7911.71,2502.54 L7911.71,2544.07 L7274.12,2482.06 L7274.12,2440.53 "/>
<path class="Beam" fill-rule="evenodd" d="M2039.46,2853.97 L2677.05,2895.31 L2677.05,2936.73 L2039.46,2895.4 L2039.46,2853.97 "/>
<path class="Beam" fill-rule="evenodd" d="M2119.07,2068.45 L2304.57,2047.78 L2304.57,2089.38 L2119.07,2110.05 L2119.07,2068.45 "/>
<path class="Beam" fill-rule="evenodd" d="M3036.79,1241.81 L3535,1241.81 L3535,1283.15 L3036.79,1283.15 L3036.79,1241.81 "/>
<path class="Beam" fill-rule="evenodd" d="M3720.02,1634.4 L3905.52,1613.73 L3905.52,1655.32 L3720.02,1675.99 L3720.02,1634.4 "/>
<path class="Beam" fill-rule="evenodd" d="M8437.25,2006.57 L8977.22,2006.57 L8977.22,2047.91 L8437.25,2047.91 L8437.25,2006.57 "/>
<path class="Beam" fill-rule="evenodd" d="M4340.34,1613.75 L4940.87,1675.75 L4940.87,1717.31 L4340.34,1655.31 L4340.34,1613.75 "/>
<path class="Beam" fill-rule="evenodd" d="M1410.14,2047.78 L1950.1,2109.78 L1950.1,2151.39 L1410.14,2089.39 L1410.14,2047.78 "/>
<path class="Beam" fill-rule="evenodd" d="M6280.86,2006.44 L6820.82,2068.45 L6820.82,2110.06 L6280.86,2048.05 L6280.86,2006.44 "/>
<path class="Beam" fill-rule="evenodd" d="M3468.78,2936.69 L4106.37,2936.69 L4106.37,2978.03 L3468.78,2978.03 L3468.78,2936.69 "/>
<path class="Beam" fill-rule="evenodd" d="M5109.83,1675.74 L5295.33,1655.07 L5295.33,1696.66 L5109.83,1717.33 L5109.83,1675.74 "/>
<path class="Beam" fill-rule="evenodd" d="M4937.2,2915.92 L5574.79,2977.93 L5574.79,3019.47 L4937.2,2957.46 L4937.2,2915.92 "/>
<path class="Beam" fill-rule="evenodd" d="M5085.26,1117.64 L5256.84,1138.31 L5256.84,1179.95 L5085.26,1159.28 L5085.26,1117.64 "/>
<path class="NoteDot" d="M4328.83,869.762 C4328.83,879.03 4336.11,886.312 4345.38,886.312 C4354.65,886.312 4361.93,879.03 4361.93,869.762 C4361.93,860.494 4354.65,853.212 4345.38,853.212 C4336.11,853.212 4328.83,860.494 4328.83,869.762"/>
<path class="NoteDot" d="M8318.68,2771.34 C8318.68,2780.61 8325.96,2787.89 8335.23,2787.89 C8344.5,2787.89 8351.78,2780.61 8351.78,2771.34 C8351.78,2762.07 8344.5,2754.79 8335.23,2754.79 C8325.96,2754.79 8318.68,2762.07 8318.68,2771.34"/>
</svg>
