<?xml version="1.0" encoding="utf-8"?>
<svg xmlns="http://www.w3.org/2000/svg" xmlns:svg="http://www.w3.org/2000/svg" version="1.1" viewBox="0 0 681 187">
	<title>A score 3 staves long in 4/4 time, in the key of C Major.</title>
	<path d="M50.371 89.36c0 .742.584 1.325 1.325 1.325.742 0 1.325-.583 1.325-1.325s-.583-1.325-1.325-1.325c-.741 0-1.325.583-1.325 1.325m583.23 69.496c0 .742.584 1.325 1.325 1.325.742 0 1.325-.583 1.325-1.325 0-.74-.583-1.325-1.325-1.325-.741 0-1.325.584-1.325 1.325M220.325 19.864c0 .742.584 1.325 1.325 1.325.742 0 1.325-.583 1.325-1.325s-.583-1.325-1.325-1.325c-.741 0-1.325.583-1.325 1.325M333.003 89.36c0 .742.583 1.325 1.325 1.325s1.325-.583 1.325-1.325-.583-1.325-1.325-1.325-1.325.583-1.325 1.325M185.09 178.712c0 .742.582 1.325 1.324 1.325s1.325-.583 1.325-1.325c0-.741-.582-1.325-1.325-1.325-.742 0-1.324.584-1.324 1.325m199.223-19.856c0 .742.583 1.325 1.325 1.325s1.325-.583 1.325-1.325c0-.74-.583-1.325-1.325-1.325s-1.325.584-1.325 1.325M464.932 39.72c0 .742.584 1.325 1.325 1.325.742 0 1.325-.583 1.325-1.325s-.583-1.325-1.325-1.325c-.741 0-1.325.583-1.325 1.325m15.719 66.181 19.631-1.655v3.322l-19.631 1.654zm74.335-29.784 19.63 1.654v3.322l-19.63-1.655zM404.794 99.282l19.63-1.655v3.32l-19.63 1.656zM382.853 0l50.77 4.964v3.325l-50.77-4.964zM235.747 109.21l57.57-4.964v3.322l-57.57 4.964zm-164.72 38.056 17.08 1.655v3.324l-17.08-1.654zm32.838-8.274 49.917 4.965v3.325l-49.917-4.964zm56.004-26.466h57.57v3.309h-57.57zm68.08 34.741 17.08 1.655v3.324l-17.08-1.654zM61.968 8.274l17.365 1.654v3.325l-17.365-1.655zm482.465 170.43 49.917-4.964v3.326l-49.917 4.965zm-65.674 3.318h49.917v3.31h-49.917zM509.424 9.935l50.772-1.655v3.311l-50.772 1.655zM349.446 8.274l17.366 1.654v3.325l-17.366-1.655zM37.141 18.43c-.662.424-1.14 1.193-1.14 2.04 0 .106 0 .212.027.318.132 1.087 1.007 1.935 2.093 2.067h.292a2.375 2.375 0 0 0 2.384-2.385v-.159c0-.106-.026-.291-.052-.397-.239-1.14-1.272-3.577-5.777-3.577-5.777 0-6.439 4.796-6.439 6.518 0 3.154.397 7.102 7.022 7.102 2.623 0 4.664-1.537 4.77-4.373 0-.132-.08-.212-.213-.212h-.344c-.106 0-.212.107-.212.212-.106 2.2-1.67 3.525-4.001 3.525-2.306 0-3.419-1.245-3.419-3.577V20.47c0-1.483.583-3.18 2.942-3.18 1.245 0 1.802.451 2.093.902.026.053.026.08.026.132 0 .027 0 .08-.052.106M16.093 35.25a7.7 7.7 0 0 1-1.537.16c-3.789 0-7.022-2.65-7.022-6.651 0-3.233 2.28-6.122 4.611-8.135.45-.398.875-.769 1.272-1.166.238 1.43.424 2.676.61 3.762-2.412.716-4.055 3.26-4.055 5.75 0 1.856 1.458 4.399 3.577 4.399.212 0 .451-.106.451-.344 0-.239-.265-.37-.583-.583-1.033-.636-1.616-1.325-1.616-2.623 0-1.617 1.192-2.915 2.755-3.286zM13.761 8.01C14 6.95 15.22 4.169 16.597 4.169c.397 0 1.033 1.299 1.033 3.127 0 2.756-2.04 4.823-3.869 6.625-.159-1.06-.291-2.094-.291-3.207 0-.98.08-1.881.291-2.702m6.095 22.338c0 1.88-.768 3.815-2.65 4.583a882 882 0 0 1-1.457-8.558c2.385 0 4.107 1.616 4.107 3.975M8.196 43.385c0 1.75 1.352 4.054 4.93 4.054 1.245 0 2.331-.317 3.285-.9 1.431-1.007 1.802-2.756 1.802-4.426 0-1.033-.159-2.225-.424-3.736-.08-.53-.238-1.325-.397-2.358 2.597-.848 4.53-3.55 4.53-6.28 0-4-2.834-6.704-6.703-6.704-.265-1.59-.53-3.153-.769-4.637 2.81-2.942 4.744-6.254 4.744-10.467 0-2.411-.742-4.372-1.166-5.326-.636-1.352-1.405-2.279-1.882-2.279-.185 0-1.007.318-1.881 1.351-1.696 2.014-2.173 5.406-2.173 7.632 0 1.43.133 2.73.583 5.697-.026.027-1.404 1.43-1.96 1.881-2.412 2.253-5.75 5.459-5.75 10.759 0 4.954 4.318 8.85 9.247 8.85.768 0 1.484-.08 2.093-.186.504 2.544.795 4.4.795 5.803 0 2.757-1.404 4.214-4.08 4.214-.636 0-1.193-.132-1.246-.132-.026-.027-.08-.053-.08-.08 0-.053.054-.08.133-.106 1.246-.186 2.49-1.246 2.49-2.941 0-1.431-1.085-2.942-3.073-2.942-1.855 0-3.047 1.511-3.047 3.26m7.896 130.857a7.7 7.7 0 0 1-1.537.16c-3.789 0-7.022-2.65-7.022-6.652 0-3.232 2.28-6.12 4.611-8.135.45-.397.875-.768 1.272-1.166.238 1.431.424 2.677.61 3.763-2.412.716-4.055 3.26-4.055 5.75 0 1.855 1.458 4.399 3.577 4.399.212 0 .451-.106.451-.345 0-.238-.265-.37-.583-.582-1.033-.637-1.616-1.325-1.616-2.624 0-1.616 1.192-2.915 2.755-3.285zm-2.332-27.24c.239-1.06 1.458-3.842 2.836-3.842.397 0 1.033 1.298 1.033 3.127 0 2.755-2.04 4.822-3.869 6.624-.159-1.06-.291-2.093-.291-3.206 0-.98.08-1.881.291-2.703m6.095 22.338c0 1.881-.768 3.816-2.65 4.584a882 882 0 0 1-1.457-8.559c2.385 0 4.107 1.617 4.107 3.975m-11.66 13.037c0 1.75 1.352 4.054 4.93 4.054 1.245 0 2.331-.318 3.285-.9 1.431-1.008 1.802-2.756 1.802-4.426 0-1.034-.159-2.226-.424-3.736-.08-.53-.238-1.325-.397-2.359 2.597-.847 4.53-3.55 4.53-6.28 0-4-2.834-6.704-6.703-6.704-.265-1.59-.53-3.153-.769-4.636 2.81-2.942 4.744-6.254 4.744-10.468 0-2.41-.742-4.371-1.166-5.326-.636-1.351-1.405-2.278-1.882-2.278-.185 0-1.007.318-1.881 1.351-1.696 2.014-2.173 5.406-2.173 7.632 0 1.43.133 2.729.583 5.697-.026.026-1.404 1.43-1.96 1.88-2.412 2.254-5.75 5.46-5.75 10.76 0 4.954 4.318 8.85 9.247 8.85.768 0 1.484-.08 2.093-.186.504 2.544.795 4.399.795 5.803 0 2.756-1.404 4.213-4.08 4.213-.636 0-1.193-.132-1.246-.132-.026-.026-.08-.053-.08-.08 0-.053.054-.08.133-.106 1.246-.185 2.49-1.245 2.49-2.94 0-1.431-1.085-2.942-3.073-2.942-1.855 0-3.047 1.51-3.047 3.26m7.896-77.632a7.7 7.7 0 0 1-1.537.159c-3.789 0-7.022-2.65-7.022-6.651 0-3.233 2.28-6.121 4.611-8.135.45-.397.875-.769 1.272-1.166.238 1.43.424 2.676.61 3.763-2.412.715-4.055 3.259-4.055 5.75 0 1.855 1.458 4.398 3.577 4.398.212 0 .451-.105.451-.344 0-.238-.265-.37-.583-.583-1.033-.636-1.616-1.325-1.616-2.623 0-1.616 1.192-2.915 2.755-3.286zm-2.332-27.24c.239-1.06 1.458-3.842 2.836-3.842.397 0 1.033 1.298 1.033 3.126 0 2.756-2.04 4.823-3.869 6.625-.159-1.06-.291-2.093-.291-3.206 0-.98.08-1.881.291-2.703m6.095 22.338c0 1.881-.768 3.815-2.65 4.584a882 882 0 0 1-1.457-8.559c2.385 0 4.107 1.616 4.107 3.975m-11.66 13.037c0 1.749 1.352 4.054 4.93 4.054 1.245 0 2.331-.318 3.285-.9 1.431-1.008 1.802-2.756 1.802-4.426 0-1.034-.159-2.226-.424-3.736-.08-.53-.238-1.325-.397-2.359 2.597-.848 4.53-3.55 4.53-6.28 0-4-2.834-6.704-6.703-6.704-.265-1.59-.53-3.153-.769-4.637 2.81-2.941 4.744-6.254 4.744-10.467 0-2.411-.742-4.372-1.166-5.326-.636-1.351-1.405-2.278-1.882-2.278-.185 0-1.007.318-1.881 1.351-1.696 2.013-2.173 5.405-2.173 7.632 0 1.43.133 2.729.583 5.696-.026.027-1.404 1.43-1.96 1.882-2.412 2.252-5.75 5.459-5.75 10.758 0 4.955 4.318 8.85 9.247 8.85.768 0 1.484-.08 2.093-.185.504 2.544.795 4.399.795 5.803 0 2.756-1.404 4.213-4.08 4.213-.636 0-1.193-.132-1.246-.132-.026-.027-.08-.053-.08-.08 0-.053.054-.08.133-.106 1.246-.186 2.49-1.245 2.49-2.941 0-1.43-1.085-2.941-3.073-2.941-1.855 0-3.047 1.51-3.047 3.259m476.582-75.358c0 1.139.822 2.411 2.968 2.411 2.756 0 5.644-2.253 5.644-4.584 0-1.563-1.325-2.438-2.968-2.438-2.57 0-5.644 2.173-5.644 4.61m-31.761 3.31c0 1.14.821 2.412 2.967 2.412 2.757 0 5.645-2.253 5.645-4.585 0-1.563-1.325-2.438-2.968-2.438-2.57 0-5.644 2.173-5.644 4.611m-8.352 129.065c0 1.139.821 2.41 2.967 2.41 2.757 0 5.645-2.251 5.645-4.583 0-1.564-1.325-2.438-2.969-2.438-2.57 0-5.643 2.173-5.643 4.61m90.222-135.683c0 1.14.822 2.412 2.969 2.412 2.755 0 5.643-2.252 5.643-4.584 0-1.564-1.324-2.438-2.967-2.438-2.57 0-5.645 2.173-5.645 4.61M420.038 159.97c0 1.14.82 2.411 2.968 2.411 2.756 0 5.644-2.253 5.644-4.585 0-1.563-1.325-2.437-2.968-2.437-2.57 0-5.644 2.172-5.644 4.61M551.592 30.906c0 1.14.82 2.411 2.967 2.411 2.756 0 5.645-2.252 5.645-4.584 0-1.563-1.325-2.437-2.969-2.437-2.57 0-5.643 2.172-5.643 4.61M403.619 156.66c0 1.14.822 2.412 2.968 2.412 2.756 0 5.644-2.253 5.644-4.585 0-1.563-1.324-2.438-2.968-2.438-2.57 0-5.644 2.173-5.644 4.611M316.45 27.595c0 1.14.822 2.412 2.968 2.412 2.756 0 5.644-2.252 5.644-4.584 0-1.564-1.325-2.438-2.968-2.438-2.57 0-5.644 2.173-5.644 4.61m263.14 9.929c0 1.139.822 2.411 2.969 2.411 2.756 0 5.643-2.253 5.643-4.584 0-1.563-1.325-2.438-2.967-2.438-2.57 0-5.644 2.173-5.644 4.61M560.85 159.97c0 1.14.822 2.411 2.968 2.411 2.756 0 5.644-2.253 5.644-4.585 0-1.563-1.325-2.437-2.968-2.437-2.57 0-5.644 2.172-5.644 4.61m-188.452 0c0 1.14.822 2.412 2.968 2.412 2.756 0 5.644-2.253 5.644-4.585 0-1.563-1.325-2.437-2.968-2.437-2.57 0-5.644 2.172-5.644 4.61M604.645 44.143c0 1.14.821 2.412 2.967 2.412 2.757 0 5.644-2.253 5.644-4.585 0-1.563-1.325-2.437-2.968-2.437-2.57 0-5.643 2.172-5.643 4.61m25.054-6.618c0 1.139.822 2.411 2.968 2.411 2.756 0 5.644-2.253 5.644-4.584 0-1.563-1.325-2.438-2.968-2.438-2.57 0-5.644 2.173-5.644 4.61M70.73 34.215c0 1.14.822 2.412 2.968 2.412 2.755 0 5.644-2.252 5.644-4.584 0-1.564-1.325-2.438-2.968-2.438-2.57 0-5.645 2.173-5.645 4.61m267.579 135.684c0 1.139.82 2.41 2.967 2.41 2.756 0 5.645-2.251 5.645-4.583 0-1.564-1.325-2.438-2.969-2.438-2.57 0-5.643 2.173-5.643 4.61M654.754 30.906c0 1.14.821 2.411 2.968 2.411 2.756 0 5.644-2.252 5.644-4.584 0-1.563-1.325-2.437-2.968-2.437-2.57 0-5.644 2.172-5.644 4.61M313.678 176.516c0 1.14.822 2.412 2.968 2.412 2.756 0 5.645-2.253 5.645-4.584 0-1.564-1.325-2.439-2.969-2.439-2.57 0-5.644 2.174-5.644 4.611M281.93 30.905c0 1.14.82 2.411 2.967 2.411 2.756 0 5.645-2.252 5.645-4.584 0-1.563-1.325-2.437-2.969-2.437-2.57 0-5.643 2.172-5.643 4.61m7.12 152.23c0 1.14.822 2.412 2.969 2.412 2.755 0 5.644-2.253 5.644-4.585 0-1.564-1.325-2.438-2.968-2.438-2.57 0-5.645 2.173-5.645 4.611M518.185 37.524c0 1.139.822 2.411 2.968 2.411 2.756 0 5.644-2.253 5.644-4.584 0-1.563-1.325-2.438-2.968-2.438-2.57 0-5.644 2.173-5.644 4.61M478.76 166.589c0 1.14.82 2.411 2.967 2.411 2.756 0 5.644-2.252 5.644-4.584 0-1.563-1.325-2.437-2.968-2.437-2.57 0-5.643 2.172-5.643 4.61m-214.336 9.928c0 1.14.822 2.412 2.968 2.412 2.755 0 5.644-2.253 5.644-4.584 0-1.564-1.325-2.439-2.968-2.439-2.57 0-5.644 2.174-5.644 4.611M38.457 90.473c0 1.14.821 2.412 2.967 2.412 2.757 0 5.645-2.253 5.645-4.585 0-1.563-1.325-2.438-2.968-2.438-2.57 0-5.644 2.173-5.644 4.61m442.194 0c0 1.14.821 2.413 2.968 2.413 2.755 0 5.644-2.253 5.644-4.585 0-1.563-1.325-2.438-2.968-2.438-2.57 0-5.644 2.173-5.644 4.61M98.727 37.525c0 1.139.821 2.411 2.967 2.411 2.757 0 5.645-2.253 5.645-4.584 0-1.563-1.325-2.438-2.968-2.438-2.57 0-5.644 2.173-5.644 4.61m137.698 135.684c0 1.14.821 2.411 2.967 2.411 2.756 0 5.644-2.252 5.644-4.584 0-1.563-1.325-2.437-2.967-2.437-2.57 0-5.644 2.172-5.644 4.61M74.527 87.164c0 1.14.821 2.411 2.968 2.411 2.756 0 5.644-2.252 5.644-4.584 0-1.563-1.325-2.438-2.967-2.438-2.571 0-5.645 2.173-5.645 4.611m266.977-56.26c0 1.14.821 2.412 2.968 2.412 2.756 0 5.643-2.252 5.643-4.584 0-1.563-1.325-2.437-2.967-2.437-2.57 0-5.644 2.172-5.644 4.61M220.006 169.898c0 1.139.822 2.41 2.968 2.41 2.756 0 5.644-2.251 5.644-4.583 0-1.564-1.325-2.438-2.968-2.438-2.57 0-5.644 2.173-5.644 4.61M93.496 90.474c0 1.14.822 2.412 2.968 2.412 2.756 0 5.644-2.253 5.644-4.585 0-1.563-1.325-2.438-2.967-2.438-2.571 0-5.644 2.173-5.644 4.61M577.27 156.66c0 1.14.821 2.412 2.968 2.412 2.756 0 5.644-2.253 5.644-4.585 0-1.563-1.325-2.438-2.968-2.438-2.57 0-5.644 2.173-5.644 4.611m-402.107 24.332a.99.99 0 0 1-1.06-.955c0-1.297 4.452-3.577 5.698-3.577.635 0 1.06.371 1.06.955 0 1.325-4.479 3.577-5.698 3.577m3.657-5.777c-2.57 0-5.644 2.146-5.644 4.61 0 1.14.821 2.412 2.968 2.412 2.755 0 5.643-2.253 5.643-4.585 0-1.562-1.324-2.437-2.967-2.437M121.95 100.4c0 1.14.822 2.411 2.968 2.411 2.756 0 5.644-2.251 5.644-4.583 0-1.564-1.325-2.438-2.968-2.438-2.57 0-5.643 2.173-5.643 4.61m134.924-79.424c0 1.14.821 2.412 2.967 2.412 2.757 0 5.645-2.253 5.645-4.585 0-1.563-1.325-2.438-2.968-2.438-2.57 0-5.644 2.173-5.644 4.61m-97.006 76.116c0 1.14.822 2.411 2.968 2.411 2.755 0 5.644-2.252 5.644-4.584 0-1.563-1.325-2.438-2.968-2.438-2.57 0-5.644 2.173-5.644 4.61m-14.691 79.425c0 1.14.821 2.412 2.967 2.412 2.757 0 5.645-2.253 5.645-4.584 0-1.564-1.325-2.439-2.968-2.439-2.57 0-5.644 2.174-5.644 4.611M425.019 37.524c0 1.139.822 2.411 2.969 2.411 2.755 0 5.644-2.253 5.644-4.584 0-1.563-1.325-2.438-2.968-2.438-2.57 0-5.645 2.173-5.645 4.61M128.76 173.208c0 1.14.822 2.411 2.968 2.411 2.755 0 5.644-2.252 5.644-4.584 0-1.563-1.325-2.437-2.968-2.437-2.57 0-5.644 2.172-5.644 4.61m50.08-79.425c0 1.14.82 2.412 2.967 2.412 2.756 0 5.645-2.252 5.645-4.584 0-1.564-1.325-2.438-2.968-2.438-2.57 0-5.645 2.173-5.645 4.61m-66.497 76.116c0 1.139.821 2.41 2.967 2.41 2.756 0 5.644-2.251 5.644-4.583 0-1.564-1.325-2.438-2.967-2.438-2.57 0-5.644 2.173-5.644 4.61m85.467-79.424c0 1.14.821 2.412 2.968 2.412 2.755 0 5.644-2.253 5.644-4.585 0-1.563-1.325-2.438-2.968-2.438-2.57 0-5.644 2.173-5.644 4.61m395.88 62.879c0 1.14.822 2.411 2.969 2.411 2.755 0 5.644-2.252 5.644-4.584 0-1.563-1.325-2.438-2.968-2.438-2.57 0-5.645 2.173-5.645 4.611M95.922 159.97c0 1.14.822 2.411 2.968 2.411 2.755 0 5.644-2.253 5.644-4.585 0-1.563-1.325-2.437-2.968-2.437-2.57 0-5.644 2.172-5.644 4.61m120.855-62.877c0 1.14.821 2.411 2.968 2.411 2.756 0 5.644-2.252 5.644-4.584 0-1.563-1.325-2.438-2.968-2.438-2.57 0-5.644 2.173-5.644 4.61M79.503 176.517c0 1.14.822 2.412 2.968 2.412 2.756 0 5.644-2.253 5.644-4.584 0-1.564-1.324-2.439-2.967-2.439-2.57 0-5.645 2.174-5.645 4.611m156.244-82.734c0 1.14.821 2.412 2.967 2.412 2.756 0 5.644-2.252 5.644-4.584 0-1.564-1.325-2.438-2.967-2.438-2.57 0-5.644 2.173-5.644 4.61m172.57-59.568c0 1.14.821 2.412 2.967 2.412 2.756 0 5.644-2.252 5.644-4.584 0-1.564-1.325-2.438-2.967-2.438-2.57 0-5.644 2.173-5.644 4.61M63.085 169.898c0 1.139.821 2.41 2.967 2.41 2.757 0 5.645-2.251 5.645-4.583 0-1.564-1.325-2.438-2.968-2.438-2.57 0-5.644 2.173-5.644 4.61m481.348-6.618c0 1.14.821 2.41 2.968 2.41 2.755 0 5.644-2.251 5.644-4.583 0-1.564-1.325-2.438-2.968-2.438-2.57 0-5.644 2.173-5.644 4.61m-505.976 3.31c0 1.14.821 2.411 2.967 2.411 2.757 0 5.645-2.252 5.645-4.584 0-1.563-1.325-2.437-2.968-2.437-2.57 0-5.644 2.172-5.644 4.61m216.259-76.115c0 1.14.821 2.412 2.967 2.412 2.757 0 5.645-2.253 5.645-4.585 0-1.563-1.325-2.438-2.968-2.438-2.57 0-5.644 2.173-5.644 4.61m273.298 76.116c0 1.14.822 2.411 2.968 2.411 2.756 0 5.644-2.252 5.644-4.584 0-1.563-1.325-2.437-2.968-2.437-2.57 0-5.644 2.172-5.644 4.61m-32.837-3.31c0 1.14.821 2.412 2.968 2.412 2.756 0 5.644-2.252 5.644-4.584 0-1.564-1.325-2.438-2.968-2.438-2.57 0-5.644 2.173-5.644 4.61M123.781 44.143c0 1.14.822 2.412 2.968 2.412 2.756 0 5.645-2.253 5.645-4.585 0-1.563-1.325-2.437-2.968-2.437-2.57 0-5.645 2.172-5.645 4.61m149.904 43.022c0 1.14.822 2.411 2.968 2.411 2.756 0 5.644-2.252 5.644-4.584 0-1.563-1.325-2.438-2.968-2.438-2.57 0-5.644 2.173-5.644 4.611m18.97-3.31c0 1.14.82 2.412 2.967 2.412 2.756 0 5.644-2.253 5.644-4.584 0-1.563-1.325-2.438-2.968-2.438-2.57 0-5.644 2.173-5.644 4.61m-52.483-66.186c0 1.139.823 2.41 2.969 2.41 2.755 0 5.644-2.251 5.644-4.583 0-1.564-1.325-2.438-2.968-2.438-2.57 0-5.645 2.173-5.645 4.61m82.905 73.972a.99.99 0 0 1-1.06-.954c0-1.299 4.451-3.577 5.697-3.577.636 0 1.06.37 1.06.954 0 1.324-4.478 3.577-5.697 3.577m3.656-5.777c-2.57 0-5.644 2.147-5.644 4.61 0 1.14.822 2.413 2.968 2.413 2.756 0 5.645-2.253 5.645-4.585 0-1.563-1.325-2.438-2.969-2.438m64.881-54.957c0 1.14.822 2.411 2.968 2.411 2.756 0 5.644-2.252 5.644-4.584 0-1.563-1.325-2.437-2.968-2.437-2.57 0-5.644 2.172-5.644 4.61m247.502 70.662a.99.99 0 0 1-1.06-.954c0-1.298 4.452-3.577 5.697-3.577.637 0 1.06.371 1.06.954 0 1.325-4.478 3.577-5.697 3.577m3.656-5.776c-2.57 0-5.643 2.146-5.643 4.61 0 1.14.821 2.411 2.967 2.411 2.757 0 5.645-2.251 5.645-4.583 0-1.564-1.325-2.438-2.969-2.438m-19.097 65.345a.99.99 0 0 1-1.06-.955c0-1.298 4.452-3.577 5.697-3.577.637 0 1.06.371 1.06.954 0 1.325-4.478 3.578-5.697 3.578m3.657-5.777c-2.57 0-5.644 2.146-5.644 4.61 0 1.14.821 2.412 2.967 2.412 2.757 0 5.645-2.253 5.645-4.585 0-1.563-1.325-2.437-2.968-2.437m-30.897-63.72a.99.99 0 0 1-1.06-.954c0-1.299 4.452-3.577 5.697-3.577.636 0 1.06.37 1.06.954 0 1.324-4.478 3.577-5.697 3.577m3.657-5.777c-2.57 0-5.645 2.147-5.645 4.61 0 1.14.823 2.413 2.969 2.413 2.755 0 5.644-2.253 5.644-4.585 0-1.563-1.325-2.438-2.968-2.438m-391.68-64.885c0 1.14.82 2.412 2.967 2.412 2.756 0 5.645-2.253 5.645-4.585 0-1.563-1.325-2.438-2.969-2.438-2.57 0-5.644 2.173-5.644 4.61m-59.574 16.548c0 1.139.822 2.411 2.968 2.411 2.756 0 5.644-2.253 5.644-4.584 0-1.563-1.324-2.438-2.967-2.438-2.57 0-5.645 2.173-5.645 4.61m255.958 46.332c0 1.139.82 2.41 2.967 2.41 2.756 0 5.644-2.252 5.644-4.583 0-1.563-1.325-2.438-2.968-2.438-2.57 0-5.643 2.173-5.643 4.61m161.219 16.547c0 1.14.821 2.411 2.967 2.411 2.757 0 5.645-2.251 5.645-4.583 0-1.564-1.325-2.438-2.969-2.438-2.57 0-5.643 2.173-5.643 4.61M374.91 20.977c0 1.14.821 2.412 2.968 2.412 2.756 0 5.644-2.253 5.644-4.585 0-1.563-1.325-2.438-2.967-2.438-2.571 0-5.645 2.173-5.645 4.61m126.572 19.857c0 1.14.821 2.412 2.968 2.412 2.756 0 5.644-2.253 5.644-4.585 0-1.563-1.325-2.438-2.968-2.438-2.57 0-5.644 2.173-5.644 4.611m45.562 56.259c0 1.14.821 2.411 2.967 2.411 2.756 0 5.644-2.252 5.644-4.584 0-1.563-1.325-2.438-2.968-2.438-2.57 0-5.643 2.173-5.643 4.61M423.763 80.546c0 1.14.82 2.411 2.967 2.411 2.756 0 5.645-2.251 5.645-4.583 0-1.564-1.325-2.438-2.968-2.438-2.57 0-5.644 2.173-5.644 4.61m94.827 13.237c0 1.14.821 2.412 2.967 2.412 2.756 0 5.644-2.252 5.644-4.584 0-1.564-1.325-2.438-2.967-2.438-2.57 0-5.644 2.173-5.644 4.61M358.207 37.524c0 1.139.822 2.411 2.968 2.411 2.755 0 5.644-2.253 5.644-4.584 0-1.563-1.325-2.438-2.968-2.438-2.57 0-5.644 2.173-5.644 4.61m-184.316-6.618c0 1.14.821 2.411 2.968 2.411 2.756 0 5.644-2.252 5.644-4.584 0-1.563-1.325-2.437-2.967-2.437-2.571 0-5.645 2.172-5.645 4.61m278.306 56.26c0 1.138.822 2.41 2.968 2.41 2.755 0 5.644-2.252 5.644-4.584 0-1.563-1.325-2.438-2.968-2.438-2.57 0-5.644 2.173-5.644 4.611m59.398 72.806c0 1.14.822 2.411 2.968 2.411 2.756 0 5.645-2.253 5.645-4.585 0-1.563-1.325-2.437-2.968-2.437-2.57 0-5.645 2.172-5.645 4.61M54.025 30.906c0 1.14.822 2.411 2.968 2.411 2.756 0 5.644-2.252 5.644-4.584 0-1.563-1.325-2.437-2.967-2.437-2.571 0-5.644 2.172-5.644 4.61m445.594 56.26c0 1.138.821 2.41 2.968 2.41 2.756 0 5.644-2.252 5.644-4.584 0-1.563-1.325-2.438-2.968-2.438-2.57 0-5.644 2.173-5.644 4.611m-6.898-67.904c0 .08.026.212.211.292 1.14.37 3.418 1.802 5.141 4.743.477.821 1.246 1.961 1.246 4.16 0 1.908-.504 3.87-1.193 5.777-.053.158-.106.291-.08.397 0 .16.106.265.266.265.185 0 .317-.106.423-.291 1.193-2.12 1.644-4.584 1.644-6.996-.133-3.418-2.094-5.935-2.094-5.935.08 0-2.438-3.26-3.153-4.372-.98-1.51-1.431-3.021-1.484-3.127-.027-.08-.265-1.034-.265-1.034-.027-.106-.159-.212-.318-.212a.35.35 0 0 0-.344.345zm-89.103 159.426c0 .186.16.345.344.345.133 0 .293-.107.319-.212 0-.027.239-.954.265-1.034.026-.105.265-1.112 1.218-2.676 1.034-1.723 2.624-2.968 3.949-4.822 1.298-1.855 2.093-3.604 2.093-5.936 0-2.412-.556-4.425-1.96-6.996-.08-.185-.239-.291-.398-.291-.053 0-.106 0-.132.026-.133.053-.186.159-.186.318 0 .08.026.212.08.318 1.06 2.465 1.483 3.869 1.483 5.777 0 2.199-.768 3.339-1.245 4.16-1.722 2.941-4.505 4.372-5.618 4.743-.185.08-.212.212-.212.292zM74.527 109.19c0 .185.16.345.345.345.132 0 .291-.107.318-.212 0-.027.238-.955.265-1.034.026-.106.265-1.113 1.218-2.676 1.034-1.723 2.624-2.968 3.949-4.823 1.298-1.855 2.093-3.604 2.093-5.936 0-2.411-.556-4.424-1.96-6.995-.08-.186-.24-.291-.398-.291-.053 0-.106 0-.133.026-.132.053-.185.159-.185.318a.8.8 0 0 0 .079.318c1.06 2.465 1.484 3.869 1.484 5.776 0 2.2-.768 3.34-1.245 4.16-1.722 2.942-4.505 4.373-5.618 4.744-.186.08-.212.211-.212.292zM240.17 39.693c0 .186.16.345.345.345.133 0 .292-.106.318-.212 0-.026.239-.954.265-1.033.027-.106.265-1.113 1.22-2.677 1.032-1.722 2.622-2.967 3.947-4.822 1.298-1.855 2.093-3.604 2.093-5.936 0-2.411-.556-4.425-1.96-6.995-.08-.186-.239-.292-.398-.292-.053 0-.106 0-.132.027-.133.053-.186.159-.186.318 0 .079.027.212.08.318 1.06 2.464 1.484 3.868 1.484 5.776 0 2.2-.769 3.34-1.246 4.16-1.722 2.942-4.505 4.372-5.617 4.744-.185.08-.213.211-.213.291zm304.262 123.585v17.056h.662v-17.056Zm-120.67-82.734v18.772h.662V80.544Zm150.192-1.14V98.23h.662V79.404ZM181.834 6.627v22.106h.662V6.627Zm222.96 77.227v17.061h.661V83.854Zm189.653 6.618v20.399h.662V90.472Zm50.623-14.35V98.23h.662V76.123ZM208.41 20.977v20.398h.662V20.976Zm-51.631-7.73v22.106h.662V13.245Zm209.37-1.687v23.793h.662V11.559Zm-125.977 6.108v22.026h.662V17.667ZM518.589 93.78v18.744h.662V93.781ZM382.853 1.695v17.11h.662V1.695Zm16.703 1.633v25.405h.662V3.328ZM292.654 83.854v22.081h.662V83.854Zm329.033 76.114v20.399h.662v-20.399ZM273.685 87.163v20.408h.662V87.163ZM46.4 143.965v20.451h.662v-20.451Zm208.316-53.493v18.735h.662V90.472ZM71.027 148.961v18.765h.662V148.96zm16.419 1.59v23.794h.662V150.55Zm148.3-56.77v17.062h.662V93.78Zm-131.882 46.907v17.11h.662v-17.11zm112.913-43.597v17.09h.662V97.09Zm-96.494 45.23v25.405h.662V142.32Zm77.525-51.849v23.708h.662V90.472Zm-61.106 53.481v27.082h.662v-27.082zm42.137-50.172v20.4h.662v-20.4Zm-25.719 51.806v28.758h.662v-28.758zM416.26 4.96v27.081h.662V4.961Zm-256.39 92.13v17.09h.662V97.09Zm97.005-76.115v20.398h.662V20.976Zm-125.15-1.112V41.97h.662V19.864Zm49.395 135.683v22.107h.662v-22.107Zm-51.227-79.424v22.106h.662V76.123Zm98.056 72.838v18.765h.662V148.96ZM93.496 90.472v20.399h.662V90.472Zm150.87 60.08v20.483h.663v-20.484ZM74.528 87.161v22.028h.662V87.163Zm246.562 3.31v20.399h.662V90.472Zm-214.42-77.227v22.107h.662V13.245Zm165.696 138.993v22.107h.662v-22.107ZM38.457 90.472v20.399h.662V90.472Zm258.536 68.384v22.107h.662v-22.107ZM61.968 9.967v18.766h.662V9.967Zm227.904-3.34v22.106h.662V6.627Zm143.09-.033v28.758h.662V6.594ZM593.689 153.35v22.086h.662V153.35zm-16.419 3.309v20.41h.662v-20.41zM349.447 9.967v18.766h.662V9.967Zm111.513 6.588V38.66h.662V16.555ZM321.621 152.238v22.107h.662v-22.107zm24.628-6.619v22.107h.662v-22.107ZM662.697 6.627v22.106h.662V6.627ZM78.67 11.559v20.483h.662V11.56Zm558.97 1.686v22.107h.663V13.245ZM372.4 159.968v20.399h.662v-20.399Zm188.452 0v18.734h.662v-18.734Zm51.736-140.104V41.97h.662V19.864Zm-160.39 67.299v22.053h.662V87.163Zm135.336-73.918v22.107h.662V13.245ZM324.392 4.972v20.452h.662V4.972Zm79.228 151.687v22.027h.662v-22.027zm16.418 3.31v20.398h.662v-20.399ZM559.534 9.946v18.786h.662V9.947ZM452.608 145.619v22.107h.662v-22.107Zm90.223-135.128v21.551h.662V10.491Zm-64.073 156.096v17.09h.662v-17.09Zm47.37-155.552v24.317h.661V11.035Zm-30.951 152.243v20.398h.662v-20.398zm16.419-3.31v23.708h.662v-23.708ZM509.425 11.58V38.66h.662V11.58Zm18.59 155.007v17.09h.661v-17.09ZM492.72 13.298v22.054h.662V13.298Zm6.9 73.865v18.772h.661V87.163Zm55.364-9.357V94.92h.663V77.806Zm-74.334 12.666v17.062h.662V90.472Zm-193.785 91.02v1.06h12.974v-1.06zM121.598 42.5v1.059h12.973v-1.06zm480.863 0v1.059h12.973v-1.06Zm-256.609-4.726a.2.2 0 0 0-.05.006.2.2 0 0 0-.051-.003l-.01.01-.015.002a.2.2 0 0 0-.031.04.2.2 0 0 0-.038.048.2.2 0 0 0-.003.061.2.2 0 0 0-.002.051c2.613 7.22 11.114 9.477 16.965 4.505a.165.165 0 0 0-.193-.268c-2.614 1.579-5.989 1.828-9.084 1.007s-5.901-2.713-7.388-5.38a.2.2 0 0 0-.04-.032.2.2 0 0 0-.049-.038zm.888 1.771c1.629 1.945 3.974 3.332 6.515 4.007 2.542.675 5.266.633 7.645-.247-5.032 3.042-11.3 1.378-14.16-3.76m-.933-1.612c3.027 5.432 11.38 7.648 16.702 4.435-5.771 4.905-14.124 2.688-16.702-4.435m33.402-12.278-.018.008-.008-.005a.2.2 0 0 0-.043.028.2.2 0 0 0-.052.033.2.2 0 0 0-.022.058.2.2 0 0 0-.018.047c.195 8.628 8.655 14.763 16.916 12.267a.165.165 0 0 0-.07-.322c-3.471.463-7.287-.8-10.39-3.05s-5.49-5.485-6.129-8.929l-.012-.008a.165.165 0 0 0-.154-.127zm.344 1.977c1.024 2.857 3.134 5.453 5.757 7.355s5.745 3.1 8.779 3.186c-6.856 1.046-13.4-3.7-14.536-10.54m-.34-1.811c1.298 6.996 9.65 13.052 16.703 12.112-8.159 2.465-16.51-3.591-16.703-12.112m33.441 13.076a.17.17 0 0 0-.086.016l-.015-.006-.01.01-.013.002a.2.2 0 0 0-.03.042.2.2 0 0 0-.035.05.2.2 0 0 0 .001.062.2.2 0 0 0 0 .051c3.017 6.982 11.521 8.667 16.971 3.362a.165.165 0 0 0-.21-.254c-2.474 1.732-5.777 2.197-8.871 1.584s-5.97-2.303-7.598-4.847a.17.17 0 0 0-.104-.072zm.993 1.711c1.722 1.813 4.109 3.03 6.645 3.532s5.206.287 7.49-.732c-4.757 3.325-11.005 2.087-14.135-2.8m-1.028-1.55c3.313 5.18 11.665 6.836 16.703 3.31-5.376 5.232-13.727 3.578-16.703-3.31m109.946 3.164a.165.165 0 0 0-.217.057c-1.626 2.544-4.503 4.233-7.597 4.846s-6.397.148-8.871-1.584l-.016.003a.165.165 0 0 0-.197.017l-.008.02h-.01l.003.016a.165.165 0 0 0 .017.198c5.45 5.305 13.954 3.62 16.97-3.361a.165.165 0 0 0-.075-.212zm-1.106 1.696c-3.129 4.886-9.376 6.124-14.132 2.8 2.282 1.019 4.953 1.234 7.488.731 2.536-.502 4.923-1.719 6.644-3.531m-15.674 1.759c5.038 3.526 13.39 1.871 16.703-3.31-2.975 6.888-11.327 8.543-16.703 3.31m50.204-7.88a.165.165 0 0 0-.222.03c-1.905 2.293-4.92 3.587-8.014 3.796s-6.255-.67-8.45-2.686a.17.17 0 0 0-.107.004.17.17 0 0 0-.107-.013l-.002.018h-.018a.17.17 0 0 0 .005.108.17.17 0 0 0-.012.107c2.325 2.956 5.616 4.3 8.801 4.085s6.266-1.988 8.174-5.23a.165.165 0 0 0-.047-.218zm-1.308 1.544c-1.83 2.191-4.296 3.403-6.84 3.575-2.545.171-5.15-.699-7.258-2.624 2.095 1.283 4.665 1.83 7.193 1.66s5.001-1.057 6.905-2.61m-15.49-.283c4.472 4.108 12.823 3.545 16.703-1.125-3.764 6.395-12.115 6.957-16.703 1.125M288.53 72.305c-4.065-.224-8.198 1.648-10.68 5.516l.002.015a.165.165 0 0 0 .026.197l.017-.001.004.017a.165.165 0 0 0 .197-.028h.016c2.195-2.445 5.642-3.817 9.163-4.026s7.105.746 9.574 2.914a.165.165 0 0 0 .237-.23c-2.273-2.758-5.394-4.2-8.556-4.374m-.02.321c2.531.14 5.033 1.124 7.075 2.967-2.391-1.467-5.38-2.103-8.33-1.928s-5.843 1.16-8.044 2.9a11.47 11.47 0 0 1 9.3-3.939m-10.521 5.284a11.68 11.68 0 0 1 18.97-1.125c-5.022-4.409-14.506-3.846-18.97 1.125m-27.398 1.013c-4.065-.224-8.198 1.65-10.68 5.516a.165.165 0 0 0 .028.197v.016l.014.004.008.012a.2.2 0 0 0 .05.009.2.2 0 0 0 .06.01.2.2 0 0 0 .056-.026.2.2 0 0 0 .046-.022c2.195-2.444 5.642-3.816 9.163-4.025s7.105.746 9.575 2.913a.165.165 0 0 0 .236-.229c-2.273-2.758-5.394-4.2-8.556-4.375m-.02.322a11.48 11.48 0 0 1 7.076 2.967c-2.391-1.468-5.381-2.103-8.33-1.928-2.95.175-5.843 1.159-8.044 2.899a11.47 11.47 0 0 1 9.299-3.938m-10.521 5.284a11.68 11.68 0 0 1 18.97-1.126c-5.021-4.408-14.505-3.846-18.97 1.126m282.169 66.382c-2.142-.058-4.364.524-6.41 1.85l-.003.015a.165.165 0 0 0-.058.19l.015.014-.002.01a.2.2 0 0 0 .042.028.2.2 0 0 0 .05.035.2.2 0 0 0 .062-.001.2.2 0 0 0 .051-.001c2.848-1.25 6.307-1.066 9.351.161s5.664 3.493 6.848 6.37a.165.165 0 0 0 .314-.101c-1.22-5.222-5.547-8.444-10.26-8.57zm-.004.32c4.037.103 7.77 2.557 9.404 6.632-1.413-2.208-3.648-3.937-6.179-4.957-2.53-1.02-5.34-1.325-7.89-.715a10.7 10.7 0 0 1 4.665-.96m-6.315 1.668c6.458-4.184 14.667-.874 16.418 6.62-2.411-5.856-10.62-9.164-16.418-6.62m-22.485-1.234c-4.616-.172-9.028 2.734-10.511 7.807a.165.165 0 0 0 .082.18l.005.016.01-.003.015.012a.17.17 0 0 0 .094-.051.17.17 0 0 0 .101-.036c1.318-2.76 4.005-4.827 7.047-5.845 3.043-1.018 6.433-.984 9.147.427a.165.165 0 0 0 .175-.28c-1.927-1.435-4.067-2.15-6.165-2.227zm-.016.32a10.44 10.44 0 0 1 4.485 1.229c-2.453-.753-5.208-.627-7.73.217s-4.8 2.402-6.304 4.479c1.827-3.902 5.605-6.079 9.549-5.926m-10.336 7.533c2.128-7.279 10.337-10.026 16.418-5.493-5.525-2.872-13.735-.125-16.418 5.493M209.076 81.1c-2.408 0-4.859.689-7.058 2.166a.165.165 0 0 0-.053.192l-.005.014.01.004.003.02a.17.17 0 0 0 .106.02.17.17 0 0 0 .1.037c3.118-1.432 7.033-1.337 10.556-.108 3.524 1.23 6.648 3.591 8.198 6.652a.165.165 0 0 0 .305-.125c-1.766-5.554-6.862-8.875-12.161-8.872zm.004.327c4.6-.004 9.036 2.568 11.166 6.961-1.75-2.387-4.432-4.219-7.402-5.255s-6.209-1.27-9.063-.49a12.24 12.24 0 0 1 5.3-1.216m-6.97 1.976c6.95-4.668 16.434-1.358 18.97 6.62-3.15-6.22-12.634-9.53-18.97-6.62m355.69 65.34a10 10 0 0 0-1.178.007c-3.132.215-6.159 1.976-8.03 5.192a.17.17 0 0 0 .028.104.17.17 0 0 0 .01.107l.018-.002.005.017a.17.17 0 0 0 .103-.028.17.17 0 0 0 .108-.01c3.736-4.546 11.857-5.102 16.179-1.11a.165.165 0 0 0 .242-.223c-2.005-2.564-4.735-3.904-7.485-4.055zm-.018.33c2.122.115 4.225.98 5.983 2.59-4.116-2.527-10.088-2.118-13.82.946 1.793-2.162 4.207-3.358 6.7-3.529a9 9 0 0 1 1.137-.008m-9.047 4.952c3.69-6.344 11.899-6.907 16.42-1.126-4.403-4.067-12.613-3.505-16.42 1.126M175.706 81.84c-4.96.001-9.765 2.972-11.689 8.124a.2.2 0 0 0 .002.051.2.2 0 0 0 .002.062.2.2 0 0 0 .038.048.2.2 0 0 0 .031.04l.014.003.01.009a.2.2 0 0 0 .051-.002.2.2 0 0 0 .062-.002.2.2 0 0 0 .048-.038.2.2 0 0 0 .04-.03c1.678-2.941 4.865-5.103 8.387-6.123s7.372-.896 10.361.693a.165.165 0 0 0 .178-.278 12.4 12.4 0 0 0-7.535-2.557zm-.691.345a12 12 0 0 1 6.508 1.492c-2.76-.924-5.949-.87-8.912-.012s-5.686 2.516-7.526 4.771a12.09 12.09 0 0 1 9.93-6.25m-10.843 7.837c2.895-7.752 12.38-10.5 18.97-5.493-6.076-3.23-15.561-.483-18.97 5.493m426.465 52.102a10 10 0 0 0-1.178.008c-3.132.215-6.159 1.975-8.029 5.191a.165.165 0 0 0 .036.196l.002.015h.01l.012.015a.17.17 0 0 0 .104-.027.17.17 0 0 0 .107-.01c3.737-4.546 11.857-5.103 16.179-1.11a.165.165 0 0 0 .242-.222c-2.005-2.565-4.735-3.905-7.485-4.056zm-.018.33c2.122.116 4.224.98 5.982 2.59-4.116-2.527-10.087-2.118-13.82.946 1.794-2.16 4.208-3.357 6.7-3.528a9 9 0 0 1 1.138-.008m-9.046 4.952c3.689-6.343 11.898-6.906 16.418-1.125-4.403-4.068-12.612-3.505-16.418 1.125M198.946 9.572v27.202h1.19V9.572Zm243.786 69.496v27.203h1.192V79.068Zm-46.21 16.911c0-.769-.61-1.404-1.378-1.404-.769 0-1.378.635-1.378 1.404s.61 1.404 1.378 1.404 1.378-.635 1.378-1.404m0-6.619c0-.768-.61-1.404-1.378-1.404-.769 0-1.378.636-1.378 1.404 0 .769.61 1.405 1.378 1.405s1.378-.636 1.378-1.405m-6.396-10.292v27.203h1.191V79.068Zm-6.09 0v27.203h3.64V79.068Zm0 0v27.203h3.64V79.068Zm-3.64 0v27.203h1.192V79.068ZM377.95 95.98c0-.769-.61-1.404-1.378-1.404-.769 0-1.378.635-1.378 1.404s.61 1.404 1.378 1.404 1.378-.635 1.378-1.404m0-6.619c0-.768-.61-1.404-1.378-1.404-.769 0-1.378.636-1.378 1.404 0 .769.61 1.405 1.378 1.405s1.378-.636 1.378-1.405m-66.327-10.292v27.203h1.192V79.068Zm-161.219 0v27.203h1.192V79.068ZM679.81 9.572v27.202H681V9.572Zm-372.825 0v27.202h1.192V9.572Zm263.141 0v27.202h1.191V9.572Zm14.857 69.496v27.203h1.192V79.068Zm94.827 0v27.203H681V79.068ZM163.71 148.565v27.202h1.191v-27.202zm91.247 0v27.202h1.192v-27.202ZM89.262 9.572v27.202h1.191V9.572Zm273.673 138.993v27.202h1.19v-27.202zm106.359 0v27.202h1.19v-27.202zm142.928 0v27.202h1.191v-27.202zm65.138 0v27.202H681v-27.202zm-3.64 0v27.202h1.191v-27.202zm-2.447 16.91c0-.768-.61-1.404-1.378-1.404-.769 0-1.378.636-1.378 1.404 0 .769.61 1.404 1.378 1.404s1.378-.635 1.378-1.404m0-6.619c0-.768-.61-1.404-1.378-1.404-.769 0-1.378.636-1.378 1.404 0 .769.61 1.405 1.378 1.405s1.378-.636 1.378-1.405M443.553 9.572v27.202h1.191V9.572ZM0 175.04v.727h681v-.727zm0-6.62v.729h681v-.728zm0-6.618v.728h681v-.728Zm0-6.619v.728h681v-.728zm0-6.618v.728h681v-.728zm0-43.021v.727h681v-.727zm0-6.62v.728h681v-.727zm0-6.618v.727h681v-.727zm0-6.62v.729h681v-.728zm0-6.617v.727h681v-.727Zm0-43.022v.728h681v-.728zm0-6.619v.728h681v-.728zm0-6.619v.728h681v-.728zm0-6.618v.727h681v-.727Zm0-6.619v.728h681v-.728Z"/>
</svg>
