<?xml version="1.0" encoding="utf-8"?>
<svg xmlns="http://www.w3.org/2000/svg" xmlns:svg="http://www.w3.org/2000/svg" version="1.1" viewBox="0 0 681 117">
	<title>A score 2 staves long in 3/4 time, in the key of F Major.</title>
	<path d="M329.797 32.775c0 .742.583 1.325 1.325 1.325s1.325-.583 1.325-1.325c0-.741-.582-1.325-1.325-1.325-.742 0-1.325.584-1.325 1.325m154.986-13.237c0 .742.582 1.325 1.325 1.325.742 0 1.324-.583 1.324-1.325s-.582-1.325-1.324-1.325-1.325.583-1.325 1.325m-309.97 13.237c0 .742.582 1.325 1.324 1.325s1.325-.583 1.325-1.325c0-.741-.583-1.325-1.325-1.325s-1.325.584-1.325 1.325m-40.879 56.26c0 .741.584 1.324 1.325 1.324.742 0 1.325-.583 1.325-1.325s-.583-1.325-1.325-1.325c-.741 0-1.325.583-1.325 1.325m184.34 13.237c0 .742.583 1.325 1.325 1.325s1.325-.583 1.325-1.325c0-.741-.583-1.325-1.325-1.325s-1.325.584-1.325 1.325M111.462 6.298l30.35 1.655v3.314l-30.35-1.655zm154.985 0 30.351 1.655v3.314l-30.351-1.655zM413.49 39.391l30.351-1.654v3.314l-30.351 1.655zM237.71 108.883l34.986 3.31v3.323l-34.986-3.31zm177.701-4.959 34.985-1.654v3.313l-34.985 1.654zM48.796 108.89l37.273-1.655v3.313L48.796 112.2zm-4.788-76.096v1.96H41.81c-.185 0-.37.16-.37.37v.504c0 .212.185.372.37.372h8.03c.211 0 .37-.16.37-.372v-.503c0-.212-.159-.37-.37-.37h-2.386v-1.961h2.385c.212 0 .372-.186.372-.398v-.504a.38.38 0 0 0-.372-.37h-2.385v-4.214c0-.16-.079-.291-.185-.344l-.318-.16c-.053-.026-.08-.026-.132-.026-.106 0-.213 0-.292.08l-2.411 2.2a.4.4 0 0 0-.107.29v2.174h-3.073s2.968-3.18 6.095-7.367a.58.58 0 0 0 .132-.37.44.44 0 0 0-.08-.266l-.582-.583c-.08-.053-.16-.106-.265-.106h-3.948c-.186 0-.318.159-.345.318 0 0-.133 1.961-.822 4.107-.688 2.147-1.483 3.472-2.173 4.452 0 0-.079.132-.079.292 0 .052 0 .105.027.158.079.186.265.477.265.477s.052.16.291.16zm2.74-16.83c2.12-.822 2.254-2.2 2.254-2.677v-.132c0-.239-.08-3.233-4.638-3.233s-4.425 3.233-4.425 3.233h.027l-.027.053c0 .954.769 1.696 1.722 1.696.955 0 1.697-.742 1.697-1.696 0-.769-.584-1.51-1.325-1.67l.079-.08c.37-.264.874-.397 1.378-.397 1.112 0 2.305.663 2.305 2.094 0 1.67-1.245 1.908-1.563 1.96-.318.054-1.802.16-2.12.16s-.344.37-.344.37v.53s.053.292.344.319c.45.026 1.06.026 1.908.159 1.166.159 1.775.953 1.775 2.808 0 1.776-1.193 2.253-2.305 2.253-.742 0-1.43-.212-1.722-.424.874-.053 1.59-.822 1.59-1.696 0-.954-.742-1.723-1.697-1.723-.953 0-1.722.769-1.722 1.723 0 2.173 1.987 3.26 3.949 3.26 2.543 0 5.3-.875 5.3-3.764 0-1.934-1.326-2.755-2.492-3.126zm-16.377 75.32c0 2.094-1.086 3.207-2.623 4.426l.079-5.167c.053-.239.45-1.007 1.51-1.007.955 0 1.034.901 1.034 1.457zm-.318-3.048a2.98 2.98 0 0 0-2.226.98l.106-8.505c0-.212-.159-.37-.371-.37h-.318a.36.36 0 0 0-.37.37l.131 15.925c0 .212.16.37.372.37a.6.6 0 0 0 .211-.052c2.28-1.14 4.664-3.312 4.664-6.042 0-1.377-.635-2.676-2.199-2.676m.318-66.449c0 2.094-1.086 3.207-2.623 4.426l.079-5.168c.053-.238.45-1.007 1.51-1.007.955 0 1.034.901 1.034 1.458zm-.318-3.047a2.98 2.98 0 0 0-2.226.98l.106-8.505a.363.363 0 0 0-.371-.371h-.318a.36.36 0 0 0-.37.37l.131 15.926c0 .212.16.37.372.37a.6.6 0 0 0 .211-.052c2.28-1.14 4.664-3.312 4.664-6.042 0-1.378-.635-2.676-2.199-2.676m-13.96 85.68a7.7 7.7 0 0 1-1.538.16c-3.789 0-7.022-2.65-7.022-6.65 0-3.234 2.28-6.122 4.611-8.136.45-.398.875-.769 1.272-1.166.238 1.43.424 2.677.61 3.763-2.412.715-4.055 3.259-4.055 5.75 0 1.854 1.458 4.398 3.577 4.398.212 0 .451-.105.451-.344 0-.238-.265-.371-.583-.583-1.033-.636-1.616-1.324-1.616-2.623 0-1.616 1.192-2.915 2.755-3.286zm-2.332-27.24c.239-1.06 1.458-3.842 2.836-3.842.397 0 1.033 1.298 1.033 3.127 0 2.755-2.04 4.822-3.869 6.624-.159-1.06-.291-2.093-.291-3.206 0-.98.08-1.882.291-2.703m6.095 22.338c0 1.881-.768 3.815-2.65 4.584a882 882 0 0 1-1.457-8.559c2.385 0 4.107 1.617 4.107 3.975m-11.66 13.037c0 1.748 1.352 4.054 4.93 4.054 1.245 0 2.331-.318 3.285-.9 1.431-1.008 1.802-2.757 1.802-4.426 0-1.034-.159-2.226-.424-3.736-.08-.53-.238-1.325-.397-2.359 2.597-.847 4.53-3.55 4.53-6.28 0-4.001-2.834-6.704-6.703-6.704-.265-1.59-.53-3.153-.769-4.637 2.81-2.942 4.744-6.253 4.744-10.467 0-2.411-.742-4.372-1.166-5.326-.636-1.351-1.405-2.279-1.882-2.279-.185 0-1.007.319-1.881 1.351-1.696 2.015-2.173 5.406-2.173 7.632 0 1.431.133 2.73.583 5.698-.026.026-1.404 1.43-1.96 1.88-2.412 2.253-5.75 5.459-5.75 10.759 0 4.955 4.318 8.85 9.247 8.85.768 0 1.484-.079 2.093-.185.504 2.544.795 4.399.795 5.803 0 2.755-1.404 4.213-4.08 4.213-.636 0-1.193-.133-1.246-.133-.026-.026-.08-.053-.08-.08 0-.052.054-.078.133-.105 1.246-.185 2.49-1.245 2.49-2.941 0-1.431-1.085-2.941-3.073-2.941-1.855 0-3.047 1.51-3.047 3.259m7.896-77.632a7.7 7.7 0 0 1-1.537.16c-3.789 0-7.022-2.65-7.022-6.651 0-3.234 2.28-6.122 4.611-8.135.45-.398.875-.769 1.272-1.166.238 1.43.424 2.676.61 3.762-2.412.716-4.055 3.26-4.055 5.75 0 1.855 1.458 4.4 3.577 4.4.212 0 .451-.107.451-.345 0-.239-.265-.372-.583-.583-1.033-.636-1.616-1.325-1.616-2.623 0-1.617 1.192-2.915 2.755-3.287zm-2.332-27.24c.239-1.06 1.458-3.842 2.836-3.842.397 0 1.033 1.299 1.033 3.127 0 2.756-2.04 4.823-3.869 6.625-.159-1.06-.291-2.094-.291-3.207 0-.98.08-1.881.291-2.703m6.095 22.339c0 1.881-.768 3.815-2.65 4.584a882 882 0 0 1-1.457-8.559c2.385 0 4.107 1.616 4.107 3.975M8.196 43.06c0 1.748 1.352 4.054 4.93 4.054 1.245 0 2.331-.318 3.285-.901 1.431-1.007 1.802-2.756 1.802-4.425 0-1.034-.159-2.226-.424-3.737-.08-.53-.238-1.325-.397-2.358 2.597-.848 4.53-3.55 4.53-6.28 0-4.001-2.834-6.704-6.703-6.704-.265-1.59-.53-3.153-.769-4.637 2.81-2.942 4.744-6.254 4.744-10.467 0-2.411-.742-4.372-1.166-5.326C17.392.927 16.623 0 16.146 0c-.185 0-1.007.318-1.881 1.351-1.696 2.014-2.173 5.406-2.173 7.632 0 1.43.133 2.73.583 5.697-.026.026-1.404 1.43-1.96 1.881-2.412 2.253-5.75 5.459-5.75 10.758 0 4.956 4.318 8.851 9.247 8.851.768 0 1.484-.08 2.093-.186.504 2.545.795 4.4.795 5.804 0 2.755-1.404 4.213-4.08 4.213-.636 0-1.193-.133-1.246-.133-.026-.026-.08-.053-.08-.08 0-.052.054-.079.133-.105 1.246-.186 2.49-1.246 2.49-2.941 0-1.432-1.085-2.941-3.073-2.941-1.855 0-3.047 1.51-3.047 3.259m154.7-9.171c0 1.139.821 2.41 2.968 2.41 2.756 0 5.644-2.252 5.644-4.584 0-1.563-1.325-2.438-2.967-2.438-2.57 0-5.645 2.173-5.645 4.612m95.608-6.62c0 1.14.821 2.412 2.967 2.412 2.756 0 5.644-2.253 5.644-4.584 0-1.564-1.325-2.438-2.967-2.438-2.571 0-5.644 2.173-5.644 4.61M63.438 30.58c0 1.14.821 2.411 2.967 2.411 2.757 0 5.645-2.252 5.645-4.584 0-1.563-1.325-2.438-2.968-2.438-2.57 0-5.644 2.173-5.644 4.611M598.48 104.55a.99.99 0 0 1-1.06-.954c0-1.297 4.452-3.577 5.697-3.577.636 0 1.06.371 1.06.955 0 1.325-4.478 3.576-5.697 3.576m3.656-5.776c-2.57 0-5.643 2.146-5.643 4.61 0 1.14.821 2.412 2.967 2.412 2.756 0 5.644-2.253 5.644-4.585 0-1.562-1.325-2.437-2.968-2.437m-295.778 4.61c0 1.14.822 2.412 2.968 2.412 2.755 0 5.644-2.253 5.644-4.585 0-1.562-1.325-2.437-2.968-2.437-2.57 0-5.644 2.172-5.644 4.61M288.194 30.58c0 1.14.821 2.411 2.967 2.411 2.756 0 5.644-2.252 5.644-4.584 0-1.563-1.325-2.438-2.967-2.438-2.57 0-5.644 2.173-5.644 4.611m-16.16 66.187c0 1.14.822 2.411 2.968 2.411 2.757 0 5.645-2.253 5.645-4.584 0-1.563-1.325-2.438-2.968-2.438-2.57 0-5.644 2.173-5.644 4.61m45.847-62.876c0 1.139.822 2.41 2.969 2.41 2.755 0 5.643-2.252 5.643-4.584 0-1.563-1.324-2.438-2.967-2.438-2.57 0-5.645 2.173-5.645 4.612m166.176 62.877c0 1.14.822 2.411 2.968 2.411 2.756 0 5.644-2.253 5.644-4.584 0-1.563-1.325-2.438-2.968-2.438-2.57 0-5.644 2.173-5.644 4.61m-246.347-6.618c0 1.14.822 2.411 2.969 2.411 2.755 0 5.644-2.252 5.644-4.584 0-1.563-1.325-2.437-2.968-2.437-2.57 0-5.645 2.172-5.645 4.61m332.752-58.402a.99.99 0 0 1-1.06-.954c0-1.298 4.451-3.577 5.697-3.577.636 0 1.06.37 1.06.954 0 1.325-4.479 3.577-5.697 3.577m3.656-5.777c-2.57 0-5.644 2.146-5.644 4.611 0 1.14.821 2.411 2.968 2.411 2.756 0 5.644-2.252 5.644-4.584 0-1.563-1.325-2.438-2.968-2.438M374.336 27.27c0 1.139.822 2.41 2.968 2.41 2.756 0 5.644-2.252 5.644-4.583 0-1.564-1.325-2.438-2.967-2.438-2.571 0-5.645 2.173-5.645 4.61m-241.127 3.31c0 1.14.821 2.411 2.967 2.411 2.756 0 5.644-2.252 5.644-4.584 0-1.563-1.325-2.438-2.967-2.438-2.571 0-5.644 2.173-5.644 4.611m58.427 62.877c0 1.14.821 2.412 2.967 2.412 2.756 0 5.644-2.252 5.644-4.584 0-1.564-1.325-2.438-2.967-2.438-2.57 0-5.644 2.173-5.644 4.61M413.49 23.96c0 1.14.821 2.411 2.968 2.411 2.756 0 5.644-2.252 5.644-4.584 0-1.563-1.325-2.438-2.968-2.438-2.57 0-5.644 2.173-5.644 4.611m221.785 3.31c0 1.139.822 2.41 2.968 2.41 2.756 0 5.644-2.252 5.644-4.583 0-1.564-1.324-2.438-2.967-2.438-2.57 0-5.645 2.173-5.645 4.61M443.18 17.342c0 1.14.821 2.412 2.968 2.412 2.755 0 5.643-2.253 5.643-4.584 0-1.564-1.324-2.438-2.967-2.438-2.57 0-5.644 2.173-5.644 4.61m-321.16 72.806c0 1.14.821 2.411 2.967 2.411 2.757 0 5.645-2.252 5.645-4.584 0-1.563-1.325-2.437-2.969-2.437-2.57 0-5.643 2.172-5.643 4.61m350.85-69.496c0 1.14.82 2.411 2.967 2.411 2.755 0 5.644-2.252 5.644-4.584 0-1.563-1.325-2.438-2.968-2.438-2.57 0-5.644 2.173-5.644 4.61M85.408 86.839c0 1.14.82 2.41 2.967 2.41 2.756 0 5.644-2.251 5.644-4.583 0-1.564-1.324-2.438-2.968-2.438-2.57 0-5.644 2.173-5.644 4.61M219.351 30.58c0 1.14.821 2.411 2.967 2.411 2.757 0 5.645-2.252 5.645-4.584 0-1.563-1.325-2.438-2.968-2.438-2.57 0-5.644 2.173-5.644 4.611M103.52 27.27c0 1.14.82 2.412 2.967 2.412 2.756 0 5.644-2.253 5.644-4.584 0-1.564-1.325-2.438-2.968-2.438-2.57 0-5.643 2.173-5.643 4.61M48.796 93.457c0 1.14.821 2.412 2.967 2.412 2.757 0 5.645-2.252 5.645-4.584 0-1.564-1.325-2.438-2.968-2.438-2.57 0-5.644 2.173-5.644 4.61M529.322 27.27c0 1.139.821 2.41 2.968 2.41 2.755 0 5.643-2.252 5.643-4.583 0-1.564-1.325-2.438-2.967-2.438-2.57 0-5.644 2.173-5.644 4.61m-113.91 59.569c0 1.14.821 2.41 2.968 2.41 2.755 0 5.644-2.251 5.644-4.583 0-1.564-1.325-2.438-2.968-2.438-2.57 0-5.644 2.173-5.644 4.61m34.323-6.618c0 1.14.821 2.412 2.967 2.412 2.757 0 5.645-2.253 5.645-4.585 0-1.564-1.325-2.438-2.968-2.438-2.57 0-5.644 2.173-5.644 4.611m-78.111 9.928c0 1.14.821 2.411 2.967 2.411 2.757 0 5.645-2.252 5.645-4.584 0-1.563-1.325-2.437-2.968-2.437-2.57 0-5.644 2.172-5.644 4.61m163.919 9.928c0 1.14.821 2.412 2.968 2.412 2.755 0 5.643-2.253 5.643-4.584 0-1.564-1.324-2.439-2.967-2.439-2.57 0-5.644 2.174-5.644 4.611m-343.907 13.753a.35.35 0 0 0 .344.344c.132 0 .291-.105.318-.212 0-.026.238-.953.265-1.033.026-.106.265-1.113 1.22-2.677 1.033-1.722 2.622-2.967 3.947-4.822 1.299-1.855 2.094-3.603 2.094-5.935 0-2.412-.557-4.426-1.962-6.996-.079-.185-.238-.292-.397-.292-.053 0-.106 0-.132.027-.133.053-.186.159-.186.318 0 .08.027.212.08.318 1.06 2.464 1.483 3.868 1.483 5.777 0 2.199-.768 3.338-1.245 4.16-1.722 2.94-4.504 4.372-5.618 4.743-.185.079-.211.212-.211.291zm35.658-101.512c0 .079.026.212.211.291 1.14.371 3.418 1.802 5.141 4.743.477.822 1.245 1.961 1.245 4.16 0 1.908-.503 3.87-1.192 5.777-.053.159-.106.292-.08.397 0 .16.106.265.266.265.185 0 .318-.105.423-.291 1.193-2.12 1.643-4.584 1.643-6.996-.132-3.418-2.093-5.935-2.093-5.935.08 0-2.438-3.26-3.153-4.372-.98-1.51-1.431-3.021-1.484-3.127-.027-.08-.265-1.034-.265-1.034-.027-.106-.16-.212-.318-.212a.35.35 0 0 0-.344.345zm154.985-1.655c0 .08.026.212.211.291 1.14.371 3.419 1.802 5.141 4.744.478.821 1.246 1.96 1.246 4.16 0 1.908-.504 3.869-1.193 5.776-.053.159-.105.292-.08.398 0 .159.107.265.266.265.185 0 .318-.106.423-.292 1.193-2.12 1.644-4.584 1.644-6.995-.133-3.418-2.094-5.936-2.094-5.936.08 0-2.438-3.26-3.153-4.372-.98-1.51-1.431-3.02-1.484-3.127-.027-.08-.265-1.033-.265-1.033-.026-.106-.159-.212-.318-.212a.35.35 0 0 0-.344.344zm-10.655 99.858c0 .185.159.344.344.344.133 0 .292-.106.318-.212 0-.027.239-.954.265-1.033.027-.107.265-1.114 1.219-2.677 1.033-1.722 2.623-2.968 3.948-4.823 1.299-1.854 2.094-3.603 2.094-5.935 0-2.411-.557-4.425-1.961-6.996-.08-.185-.239-.291-.398-.291-.053 0-.106 0-.132.026-.133.054-.186.16-.186.319 0 .079.027.211.08.318 1.06 2.464 1.484 3.868 1.484 5.776 0 2.2-.769 3.339-1.246 4.16-1.722 2.941-4.504 4.373-5.617 4.743-.186.08-.212.212-.212.292zm165.64-99.858c0 .08.027.212.212.291 1.14.371 3.419 1.802 5.14 4.744.478.821 1.246 1.96 1.246 4.16 0 1.908-.503 3.869-1.193 5.776-.052.159-.105.292-.079.398 0 .159.106.265.265.265.186 0 .318-.106.424-.292 1.192-2.12 1.643-4.584 1.643-6.995-.133-3.418-2.093-5.936-2.093-5.936.079 0-2.438-3.26-3.154-4.372-.98-1.51-1.43-3.02-1.484-3.127-.026-.08-.265-1.033-.265-1.033-.026-.106-.158-.212-.318-.212a.35.35 0 0 0-.344.344zm-87.529 69.557v23.724h.662V80.218ZM71.38 6.3v22.106h.662V6.301Zm465.884-1.602v20.399h.662v-20.4ZM48.796 93.456v17.075h.662V93.456Zm36.612-6.62v22.069h.662V86.837Zm36.61 3.31v20.399h.662V90.146Zm350.85-69.496v20.399h.662v-20.4Zm70.618 55.147v22.106h.662V75.797ZM443.179 17.34v22.072h.662V17.34ZM141.15 9.592v18.815h.662V9.592Zm50.484 83.864v20.372h.662V93.456ZM413.49 23.959V41.03h.663V23.96ZM227.293 6.353v22.054h.662V6.353Zm-115.832 1.62v17.125h.662V7.973ZM170.84 9.61v22.107h.662V9.61Zm211.439-4.911v20.399h.662v-20.4ZM237.712 90.146v20.43h.662v-20.43Zm366.723-11.04v22.107h.662V79.106Zm-332.4 17.66v17.057h.661V96.765Zm53.79-87.156v22.107h.662V9.61ZM314.3 79.106v22.107h.662V79.106ZM296.136 9.592v18.815h.662V9.592ZM492 74.142v20.452h.662V74.142ZM371.624 90.146v20.373h.662V90.146ZM266.447 7.973v17.125h.662V7.973Zm148.965 78.864v18.729h.662v-18.73ZM643.218 4.646v20.452h.662V4.646Zm-66.8 1.655v22.106h.662V6.301ZM404.025 9.246v27.203h1.191V9.246Zm154.985 0v27.203h1.191V9.246Zm-464.955 0v27.203h1.19V9.246ZM677.36 78.742v27.203H681V78.742Zm-3.64 0v27.203h1.191V78.742Zm6.089-69.496v27.203H681V9.246ZM228.247 78.742v27.203h1.191V78.742Zm177.7 0v27.203h1.191V78.742Zm181.08 0v27.203h1.192V78.742ZM249.04 9.246v27.203h1.191V9.246ZM0 105.216v.729h681v-.728zM0 98.6v.727h681V98.6zm0-6.62v.729h681v-.728zm0-6.618v.728h681v-.728zm0-6.619v.728h681v-.728Zm0-43.021v.727h681v-.727zm0-6.619v.728h681v-.728zm0-6.619v.728h681v-.728zm0-6.618v.727h681v-.727Zm0-6.619v.728h681v-.728Z"/>
</svg>
