<?xml version="1.0" encoding="utf-8"?>
<svg xmlns="http://www.w3.org/2000/svg" xmlns:svg="http://www.w3.org/2000/svg" version="1.1" viewBox="0 0 681 187">
	<title>A score 3 staves long in 4/4 time, in the key of A Major.</title>
	<path d="M620.786 165.15c0 .742.584 1.324 1.325 1.324.742 0 1.325-.582 1.325-1.325 0-.742-.583-1.324-1.325-1.324-.741 0-1.325.582-1.325 1.324M273.725 95.653c0 .741.583 1.325 1.325 1.325.741 0 1.325-.584 1.325-1.325 0-.742-.584-1.325-1.325-1.325-.742 0-1.325.583-1.325 1.325M69.05 171.768c0 .742.583 1.325 1.325 1.325s1.325-.583 1.325-1.325-.583-1.325-1.325-1.325-1.325.583-1.325 1.325m247.794-95.979 17.172 1.655v3.325l-17.172-1.655zM79.72 9.603l18.384-1.655v3.323l-18.384 1.655zm227.985-1.655 18.385-1.654v3.322l-18.385 1.655zm220.044 28.13 18.384-1.655v3.323L527.75 39.4zm16.43 41.366 17.172 1.655v3.324l-17.173-1.654zm-414.253 71.154 23.398-1.655v3.319l-23.398 1.654zm303.125-1.655 23.398 1.655v3.318l-23.398-1.654zM52.35 32.793v1.96H50.15a.38.38 0 0 0-.371.37v.504a.38.38 0 0 0 .371.372h8.029c.212 0 .37-.16.37-.372v-.503a.36.36 0 0 0-.37-.37h-2.385v-1.961h2.385c.212 0 .37-.186.37-.398v-.504a.38.38 0 0 0-.37-.37h-2.385v-4.214c0-.16-.08-.291-.186-.344l-.317-.16c-.053-.026-.08-.026-.133-.026-.106 0-.212 0-.292.08l-2.41 2.2a.4.4 0 0 0-.107.29v2.174h-3.074s2.968-3.18 6.095-7.367a.58.58 0 0 0 .133-.37.43.43 0 0 0-.08-.266l-.583-.583c-.08-.053-.159-.106-.265-.106h-3.948c-.185 0-.318.159-.345.318 0 0-.132 1.961-.821 4.107-.69 2.147-1.484 3.472-2.173 4.452 0 0-.08.132-.08.292 0 .052 0 .105.027.158.08.186.265.477.265.477s.053.16.292.16zm0-13.16v1.96H50.15a.38.38 0 0 0-.371.372v.503a.38.38 0 0 0 .371.371h8.029c.212 0 .37-.159.37-.371v-.503a.36.36 0 0 0-.37-.371h-2.385v-1.961h2.385c.212 0 .37-.186.37-.398v-.503a.38.38 0 0 0-.37-.371h-2.385v-4.213c0-.16-.08-.292-.186-.345l-.317-.159c-.053-.026-.08-.026-.133-.026-.106 0-.212 0-.292.08l-2.41 2.198a.4.4 0 0 0-.107.292v2.173h-3.074s2.968-3.18 6.095-7.367a.58.58 0 0 0 .133-.37.43.43 0 0 0-.08-.266l-.583-.583c-.08-.053-.159-.106-.265-.106h-3.948c-.185 0-.318.16-.345.318 0 0-.132 1.961-.821 4.108-.69 2.146-1.484 3.47-2.173 4.451 0 0-.08.133-.08.292 0 .053 0 .106.027.159.08.185.265.477.265.477s.053.159.292.159zm-16.155 67.44 2.359-.476v4.371l-2.359.504zm4.108-.822c.16-.027.291-.212.291-.371v-1.564c0-.212-.159-.37-.37-.37h-.054l-.874.185v-3.948h-.742v4.107l-2.359.477v-3.736h-.741v3.895l-1.033.212c-.16.026-.292.212-.292.371v1.536c0 .213.159.372.37.372h.08l.875-.186v4.373l-1.033.211c-.16.027-.292.212-.292.372v1.537c0 .211.159.37.37.37h.08l.875-.185v3.948h.741V93.75l2.359-.477v3.736h.742v-3.895l1.007-.185c.16-.027.291-.212.291-.372v-1.563c0-.212-.159-.37-.37-.37h-.054l-.874.185v-4.373zM28.94 77.145l2.358-.477v4.373l-2.358.503zm4.107-.821c.16-.026.292-.212.292-.372V74.39a.363.363 0 0 0-.371-.372h-.054l-.874.186v-3.948H31.3v4.107l-2.358.477v-3.736h-.742v3.895l-1.033.212c-.16.027-.292.212-.292.37v1.538c0 .212.159.37.371.37h.08l.874-.184v4.371l-1.033.213c-.16.026-.292.212-.292.37v1.537c0 .212.159.37.371.37h.08l.874-.184v3.948h.742v-4.107l2.358-.477v3.736h.742v-3.895l1.007-.186c.16-.026.292-.212.292-.37v-1.564a.363.363 0 0 0-.371-.371h-.054l-.874.185V76.51zm3.146-58.747 2.359-.477v4.372l-2.359.504zm4.108-.821c.16-.027.291-.212.291-.371V14.82a.36.36 0 0 0-.37-.37h-.054l-.874.185v-3.949h-.742v4.108l-2.359.477v-3.737h-.741v3.896l-1.034.212c-.159.026-.29.212-.29.37v1.537c0 .212.158.371.37.371h.079l.875-.185v4.372l-1.034.212c-.159.027-.29.212-.29.371v1.537c0 .212.158.371.37.371h.079l.875-.186v3.949h.741v-4.107l2.359-.477v3.736h.742v-3.896l1.007-.185c.16-.026.291-.212.291-.37v-1.564a.36.36 0 0 0-.37-.371h-.054l-.874.185v-4.372zM28.94 7.649l2.358-.477v4.372l-2.358.504zm4.107-.821c.16-.027.292-.212.292-.371V4.893a.36.36 0 0 0-.371-.37h-.054l-.874.185V.759H31.3v4.108l-2.358.477V1.607h-.742v3.896l-1.033.212c-.16.026-.292.212-.292.37v1.537c0 .212.159.371.371.371h.08l.874-.185v4.372l-1.033.212c-.16.027-.292.212-.292.371V14.3c0 .212.159.371.371.371h.08l.874-.185v3.948h.742v-4.107l2.358-.477v3.736h.742V13.69l1.007-.186c.16-.026.292-.212.292-.37V11.57a.36.36 0 0 0-.371-.371h-.054l-.874.185V7.013zm3.146 149.742 2.359-.477v4.372l-2.359.503zm4.108-.822c.16-.027.291-.211.291-.37v-1.564c0-.212-.159-.37-.37-.37h-.054l-.874.184v-3.947h-.742v4.106l-2.359.477v-3.736h-.741v3.895l-1.033.212c-.16.026-.292.212-.292.372v1.536c0 .212.159.371.37.371h.08l.875-.185v4.372l-1.033.211c-.16.028-.292.213-.292.372v1.537c0 .211.159.37.37.37h.08l.875-.185v3.948h.741v-4.107l2.359-.477v3.736h.742v-3.895l1.007-.185c.16-.026.291-.212.291-.371v-1.564c0-.211-.159-.37-.37-.37h-.054l-.874.185v-4.372zm-11.361-9.106 2.358-.478v4.373l-2.358.504zm4.107-.82c.16-.027.292-.213.292-.371v-1.564a.363.363 0 0 0-.371-.371h-.054l-.874.185v-3.948H31.3v4.108l-2.358.476V140.6h-.742v3.895l-1.033.212c-.16.027-.292.213-.292.371v1.537c0 .212.159.37.371.37h.08l.874-.184v4.372l-1.033.212c-.16.026-.292.212-.292.37v1.538c0 .212.159.371.371.371h.08l.874-.186v3.949h.742v-4.108l2.358-.477v3.737h.742v-3.896l1.007-.185c.16-.027.292-.213.292-.371v-1.563a.363.363 0 0 0-.371-.372h-.054l-.874.186v-4.372zm-16.955-41.4a7.7 7.7 0 0 1-1.537.16c-3.789 0-7.022-2.65-7.022-6.65 0-3.234 2.28-6.122 4.611-8.136.45-.398.874-.769 1.272-1.166.238 1.43.424 2.677.61 3.763-2.412.715-4.055 3.259-4.055 5.75 0 1.854 1.458 4.398 3.577 4.398.212 0 .45-.105.45-.344 0-.238-.264-.371-.582-.583-1.033-.636-1.616-1.324-1.616-2.623 0-1.616 1.192-2.915 2.755-3.286zm-2.332-27.24c.239-1.06 1.458-3.842 2.836-3.842.397 0 1.033 1.298 1.033 3.127 0 2.755-2.04 4.822-3.869 6.624-.159-1.06-.291-2.093-.291-3.206 0-.98.08-1.882.291-2.703m6.095 22.338c0 1.881-.768 3.815-2.65 4.584a882 882 0 0 1-1.457-8.559c2.385 0 4.107 1.617 4.107 3.975m-11.66 13.037c0 1.748 1.352 4.054 4.93 4.054 1.245 0 2.331-.318 3.285-.9 1.431-1.008 1.802-2.757 1.802-4.426 0-1.034-.159-2.226-.424-3.736-.08-.53-.238-1.325-.397-2.359 2.597-.847 4.53-3.55 4.53-6.28 0-4.001-2.834-6.704-6.703-6.704-.265-1.59-.53-3.153-.769-4.637 2.81-2.942 4.744-6.253 4.744-10.467 0-2.411-.742-4.372-1.166-5.326-.636-1.351-1.405-2.279-1.882-2.279-.185 0-1.007.319-1.881 1.351-1.696 2.015-2.173 5.406-2.173 7.632 0 1.431.133 2.73.583 5.698-.026.026-1.404 1.43-1.96 1.88-2.412 2.253-5.75 5.459-5.75 10.759 0 4.955 4.318 8.85 9.247 8.85.768 0 1.484-.079 2.093-.185.504 2.544.795 4.399.795 5.803 0 2.755-1.404 4.213-4.08 4.213-.636 0-1.193-.133-1.246-.133-.026-.026-.08-.053-.08-.08 0-.052.054-.078.133-.105 1.246-.185 2.49-1.245 2.49-2.941 0-1.431-1.085-2.941-3.073-2.941-1.855 0-3.047 1.51-3.047 3.259m7.896 61.361a7.7 7.7 0 0 1-1.537.16c-3.789 0-7.022-2.65-7.022-6.652 0-3.233 2.28-6.12 4.611-8.135.45-.398.875-.768 1.272-1.165.238 1.43.424 2.676.61 3.762-2.412.715-4.055 3.26-4.055 5.75 0 1.855 1.458 4.399 3.577 4.399.212 0 .451-.106.451-.344 0-.24-.265-.372-.583-.583-1.033-.637-1.616-1.325-1.616-2.624 0-1.616 1.192-2.914 2.755-3.286zm-2.332-27.24c.239-1.06 1.458-3.842 2.836-3.842.397 0 1.033 1.298 1.033 3.127 0 2.755-2.04 4.822-3.869 6.624-.159-1.06-.291-2.093-.291-3.206 0-.98.08-1.882.291-2.703m6.095 22.338c0 1.882-.768 3.816-2.65 4.584a882 882 0 0 1-1.457-8.558c2.385 0 4.107 1.616 4.107 3.974m-11.66 13.037c0 1.749 1.352 4.054 4.93 4.054 1.245 0 2.331-.318 3.285-.9 1.431-1.007 1.802-2.757 1.802-4.426 0-1.033-.159-2.225-.424-3.736-.08-.53-.238-1.325-.397-2.358 2.597-.848 4.53-3.55 4.53-6.28 0-4.002-2.834-6.704-6.703-6.704-.265-1.59-.53-3.154-.769-4.637 2.81-2.942 4.744-6.254 4.744-10.467 0-2.412-.742-4.372-1.166-5.326-.636-1.352-1.405-2.28-1.882-2.28-.185 0-1.007.319-1.881 1.352-1.696 2.014-2.173 5.406-2.173 7.631 0 1.432.133 2.73.583 5.698-.026.026-1.404 1.43-1.96 1.881-2.412 2.252-5.75 5.458-5.75 10.758 0 4.955 4.318 8.85 9.247 8.85.768 0 1.484-.079 2.093-.185.504 2.544.795 4.399.795 5.803 0 2.756-1.404 4.213-4.08 4.213-.636 0-1.193-.132-1.246-.132-.026-.027-.08-.053-.08-.08 0-.053.054-.079.133-.105 1.246-.186 2.49-1.246 2.49-2.942 0-1.431-1.085-2.94-3.073-2.94-1.855 0-3.047 1.509-3.047 3.258m7.896-147.128a7.7 7.7 0 0 1-1.537.16c-3.789 0-7.022-2.65-7.022-6.651 0-3.234 2.28-6.122 4.611-8.135.45-.398.875-.769 1.272-1.166.238 1.43.424 2.676.61 3.762-2.412.716-4.055 3.26-4.055 5.75 0 1.855 1.458 4.4 3.577 4.4.212 0 .451-.107.451-.345 0-.239-.265-.372-.583-.583-1.033-.636-1.616-1.325-1.616-2.623 0-1.617 1.192-2.915 2.755-3.287zm-2.332-27.24c.239-1.06 1.458-3.842 2.836-3.842.397 0 1.033 1.299 1.033 3.127 0 2.756-2.04 4.823-3.869 6.625-.159-1.06-.291-2.094-.291-3.207 0-.98.08-1.881.291-2.703m6.095 22.339c0 1.881-.768 3.815-2.65 4.584a882 882 0 0 1-1.457-8.559c2.385 0 4.107 1.616 4.107 3.975M8.196 43.06c0 1.748 1.352 4.054 4.93 4.054 1.245 0 2.331-.318 3.285-.901 1.431-1.007 1.802-2.756 1.802-4.425 0-1.034-.159-2.226-.424-3.737-.08-.53-.238-1.325-.397-2.358 2.597-.848 4.53-3.55 4.53-6.28 0-4.001-2.834-6.704-6.703-6.704-.265-1.59-.53-3.153-.769-4.637 2.81-2.942 4.744-6.254 4.744-10.467 0-2.411-.742-4.372-1.166-5.326C17.392.927 16.623 0 16.146 0c-.185 0-1.007.318-1.881 1.351-1.696 2.014-2.173 5.406-2.173 7.632 0 1.43.133 2.73.583 5.697-.026.026-1.404 1.43-1.96 1.881-2.412 2.253-5.75 5.459-5.75 10.758 0 4.956 4.318 8.851 9.247 8.851.768 0 1.484-.08 2.093-.186.504 2.545.795 4.4.795 5.804 0 2.755-1.404 4.213-4.08 4.213-.636 0-1.193-.133-1.246-.133-.026-.026-.08-.053-.08-.08 0-.052.054-.079.133-.105 1.246-.186 2.49-1.246 2.49-2.941 0-1.432-1.085-2.941-3.073-2.941-1.855 0-3.047 1.51-3.047 3.259m394.746 66.943c0 1.14.821 2.411 2.967 2.411 2.757 0 5.644-2.252 5.644-4.584 0-1.563-1.325-2.437-2.967-2.437-2.57 0-5.644 2.172-5.644 4.61m22.166 59.569c0 1.139.821 2.411 2.968 2.411 2.755 0 5.644-2.253 5.644-4.584 0-1.563-1.325-2.438-2.968-2.438-2.57 0-5.644 2.173-5.644 4.61m-197.53-66.186c0 1.139.822 2.411 2.968 2.411 2.756 0 5.644-2.253 5.644-4.585 0-1.562-1.325-2.437-2.968-2.437-2.57 0-5.644 2.172-5.644 4.61m163.427 62.878c0 1.14.821 2.411 2.967 2.411 2.756 0 5.644-2.251 5.644-4.583 0-1.564-1.325-2.438-2.967-2.438-2.571 0-5.644 2.173-5.644 4.61m-82.104-69.496c0 1.14.822 2.411 2.968 2.411 2.756 0 5.644-2.253 5.644-4.584 0-1.563-1.325-2.438-2.968-2.438-2.57 0-5.644 2.173-5.644 4.61m48 72.807c0 1.139.822 2.411 2.968 2.411 2.756 0 5.644-2.253 5.644-4.584 0-1.563-1.325-2.438-2.968-2.438-2.57 0-5.644 2.173-5.644 4.61M71.78 33.89c0 1.139.821 2.41 2.967 2.41 2.756 0 5.644-2.252 5.644-4.584 0-1.563-1.325-2.438-2.967-2.438-2.571 0-5.644 2.173-5.644 4.612m251.02 138.992c0 1.14.821 2.411 2.968 2.411 2.755 0 5.644-2.252 5.644-4.584 0-1.563-1.325-2.438-2.968-2.438-2.57 0-5.644 2.173-5.644 4.611M89.501 30.58c0 1.14.822 2.411 2.969 2.411 2.755 0 5.643-2.252 5.643-4.584 0-1.563-1.324-2.438-2.967-2.438-2.57 0-5.645 2.173-5.645 4.611m27.999-3.31c0 1.14.82 2.412 2.967 2.412 2.756 0 5.645-2.253 5.645-4.584 0-1.564-1.325-2.438-2.969-2.438-2.57 0-5.643 2.173-5.643 4.61m26.584 0c0 1.14.821 2.412 2.968 2.412 2.756 0 5.644-2.253 5.644-4.584 0-1.564-1.325-2.438-2.968-2.438-2.57 0-5.644 2.173-5.644 4.61m135.147 148.92c0 1.14.821 2.413 2.968 2.413 2.755 0 5.643-2.253 5.643-4.585 0-1.563-1.325-2.438-2.967-2.438-2.57 0-5.644 2.173-5.644 4.61M170.669 27.27c0 1.14.821 2.412 2.967 2.412 2.757 0 5.645-2.253 5.645-4.584 0-1.564-1.325-2.438-2.968-2.438-2.57 0-5.644 2.173-5.644 4.61m74.458 152.23c0 1.14.822 2.412 2.968 2.412 2.756 0 5.644-2.252 5.644-4.584 0-1.564-1.325-2.438-2.968-2.438-2.57 0-5.644 2.173-5.644 4.61M197.253 27.27c0 1.14.822 2.412 2.968 2.412 2.756 0 5.644-2.253 5.644-4.584 0-1.564-1.325-2.438-2.968-2.438-2.57 0-5.644 2.173-5.644 4.61m13.77 152.23c0 1.14.822 2.412 2.969 2.412 2.755 0 5.644-2.252 5.644-4.584 0-1.564-1.325-2.438-2.968-2.438-2.57 0-5.645 2.173-5.645 4.61M235.29 28.435a.99.99 0 0 1-1.06-.953c0-1.299 4.452-3.578 5.697-3.578.636 0 1.06.372 1.06.954 0 1.325-4.478 3.577-5.697 3.577m3.657-5.776c-2.571 0-5.644 2.147-5.644 4.61 0 1.14.821 2.412 2.967 2.412 2.756 0 5.644-2.253 5.644-4.584 0-1.564-1.325-2.438-2.967-2.438M176.92 172.88c0 1.14.822 2.411 2.968 2.411 2.756 0 5.644-2.252 5.644-4.584 0-1.563-1.324-2.438-2.968-2.438-2.57 0-5.644 2.173-5.644 4.611M273.18 27.27c0 1.139.82 2.41 2.967 2.41 2.756 0 5.644-2.252 5.644-4.583 0-1.564-1.325-2.438-2.968-2.438-2.57 0-5.643 2.173-5.643 4.61m26.584 3.31c0 1.14.822 2.411 2.968 2.411 2.755 0 5.644-2.252 5.644-4.584 0-1.563-1.325-2.438-2.968-2.438-2.57 0-5.644 2.173-5.644 4.611m17.723-3.31c0 1.14.821 2.412 2.968 2.412 2.756 0 5.644-2.253 5.644-4.584 0-1.564-1.325-2.438-2.968-2.438-2.57 0-5.644 2.173-5.644 4.61M144.72 169.573c0 1.139.821 2.41 2.967 2.41 2.757 0 5.645-2.252 5.645-4.583 0-1.563-1.325-2.438-2.968-2.438-2.57 0-5.644 2.173-5.644 4.61m200.765-145.61c0 1.138.821 2.41 2.968 2.41 2.756 0 5.644-2.252 5.644-4.584 0-1.563-1.325-2.438-2.968-2.438-2.57 0-5.644 2.173-5.644 4.611m26.585 3.31c0 1.139.82 2.41 2.967 2.41 2.756 0 5.645-2.252 5.645-4.583 0-1.564-1.325-2.438-2.969-2.438-2.57 0-5.643 2.173-5.643 4.61M121.984 172.882c0 1.14.822 2.411 2.968 2.411 2.756 0 5.644-2.252 5.644-4.584 0-1.563-1.324-2.438-2.968-2.438-2.57 0-5.644 2.173-5.644 4.611M398.654 30.58c0 1.14.822 2.411 2.968 2.411 2.756 0 5.644-2.252 5.644-4.584 0-1.563-1.324-2.438-2.968-2.438-2.57 0-5.644 2.173-5.644 4.611m26.585-3.31c0 1.14.821 2.412 2.967 2.412 2.757 0 5.644-2.253 5.644-4.584 0-1.564-1.325-2.438-2.967-2.438-2.57 0-5.644 2.173-5.644 4.61M59.124 177.357a.99.99 0 0 1-1.06-.954c0-1.299 4.452-3.577 5.697-3.577.636 0 1.06.37 1.06.954 0 1.324-4.478 3.577-5.697 3.577m3.657-5.777c-2.571 0-5.644 2.147-5.644 4.61 0 1.14.821 2.413 2.967 2.413 2.756 0 5.644-2.253 5.644-4.585 0-1.563-1.325-2.438-2.967-2.438M463.275 25.126a.99.99 0 0 1-1.06-.954c0-1.298 4.452-3.577 5.698-3.577.635 0 1.06.37 1.06.954 0 1.325-4.479 3.577-5.698 3.577m3.657-5.777c-2.57 0-5.644 2.147-5.644 4.611 0 1.14.822 2.411 2.968 2.411 2.755 0 5.644-2.252 5.644-4.584 0-1.563-1.325-2.438-2.968-2.438m34.233 4.611c0 1.14.821 2.411 2.968 2.411 2.755 0 5.644-2.252 5.644-4.584 0-1.563-1.325-2.438-2.968-2.438-2.57 0-5.644 2.173-5.644 4.611m-21.12 138.993c0 1.139.821 2.411 2.968 2.411 2.755 0 5.643-2.252 5.643-4.584 0-1.563-1.324-2.438-2.967-2.438-2.57 0-5.644 2.173-5.644 4.61M527.75 20.652c0 1.14.821 2.411 2.967 2.411 2.756 0 5.644-2.252 5.644-4.584 0-1.563-1.325-2.438-2.968-2.438-2.57 0-5.643 2.173-5.643 4.61m17.722-3.309c0 1.14.822 2.412 2.969 2.412 2.755 0 5.643-2.253 5.643-4.584 0-1.564-1.324-2.438-2.967-2.438-2.57 0-5.645 2.173-5.645 4.61m109.571 92.662c0 1.14.821 2.411 2.968 2.411 2.755 0 5.644-2.252 5.644-4.584 0-1.563-1.325-2.437-2.968-2.437-2.57 0-5.644 2.172-5.644 4.61M573.47 20.651c0 1.14.822 2.411 2.968 2.411 2.756 0 5.645-2.252 5.645-4.584 0-1.563-1.325-2.438-2.969-2.438-2.57 0-5.644 2.173-5.644 4.61m56.807 92.662c0 1.14.822 2.412 2.968 2.412 2.755 0 5.644-2.252 5.644-4.584 0-1.564-1.325-2.438-2.968-2.438-2.57 0-5.644 2.173-5.644 4.61M600.055 27.27c0 1.139.821 2.41 2.968 2.41 2.756 0 5.644-2.252 5.644-4.583 0-1.564-1.325-2.438-2.968-2.438-2.57 0-5.644 2.173-5.644 4.61m26.585 0c0 1.14.821 2.412 2.967 2.412 2.757 0 5.645-2.253 5.645-4.584 0-1.564-1.325-2.438-2.968-2.438-2.57 0-5.644 2.173-5.644 4.61m-21.128 82.734c0 1.14.821 2.411 2.967 2.411 2.756 0 5.644-2.252 5.644-4.584 0-1.563-1.325-2.437-2.968-2.437-2.57 0-5.643 2.172-5.643 4.61m47.712-82.733c0 1.139.822 2.41 2.968 2.41 2.756 0 5.644-2.252 5.644-4.583 0-1.564-1.325-2.438-2.968-2.438-2.57 0-5.644 2.173-5.644 4.61m-72.479 79.425c0 1.14.821 2.412 2.969 2.412 2.755 0 5.643-2.253 5.643-4.585 0-1.564-1.325-2.438-2.967-2.438-2.57 0-5.645 2.173-5.645 4.61m-30.506 64.044a.99.99 0 0 1-1.06-.953c0-1.299 4.452-3.578 5.697-3.578.637 0 1.06.37 1.06.954 0 1.325-4.478 3.577-5.697 3.577m3.657-5.776c-2.57 0-5.644 2.146-5.644 4.61 0 1.14.821 2.412 2.967 2.412 2.757 0 5.645-2.253 5.645-4.584 0-1.563-1.325-2.438-2.968-2.438M59.124 97.93a.99.99 0 0 1-1.06-.953c0-1.298 4.452-3.578 5.697-3.578.636 0 1.06.372 1.06.955 0 1.325-4.478 3.577-5.697 3.577m3.657-5.777c-2.571 0-5.644 2.147-5.644 4.61 0 1.14.821 2.412 2.967 2.412 2.756 0 5.644-2.253 5.644-4.584 0-1.563-1.325-2.438-2.967-2.438m31.504 4.61c0 1.14.822 2.412 2.968 2.412 2.756 0 5.644-2.253 5.644-4.584 0-1.563-1.325-2.438-2.968-2.438-2.57 0-5.644 2.173-5.644 4.61m458.463 6.62c0 1.139.82 2.411 2.967 2.411 2.756 0 5.644-2.253 5.644-4.585 0-1.562-1.325-2.437-2.968-2.437-2.57 0-5.643 2.172-5.643 4.61M119.05 96.767c0 1.14.821 2.411 2.968 2.411 2.756 0 5.644-2.253 5.644-4.584 0-1.563-1.325-2.438-2.968-2.438-2.57 0-5.644 2.173-5.644 4.61m34.23 3.31c0 1.14.822 2.412 2.968 2.412 2.757 0 5.645-2.253 5.645-4.584 0-1.564-1.325-2.439-2.969-2.439-2.57 0-5.643 2.174-5.643 4.611m382.954 0c0 1.14.822 2.412 2.969 2.412 2.755 0 5.644-2.253 5.644-4.584 0-1.564-1.325-2.439-2.968-2.439-2.57 0-5.645 2.174-5.645 4.611m-358.189 6.619c0 1.14.822 2.412 2.968 2.412 2.756 0 5.645-2.253 5.645-4.585 0-1.564-1.325-2.438-2.969-2.438-2.57 0-5.644 2.173-5.644 4.61m333.424-9.927c0 1.14.82 2.411 2.968 2.411 2.755 0 5.644-2.253 5.644-4.584 0-1.563-1.325-2.438-2.968-2.438-2.57 0-5.644 2.173-5.644 4.61m99.388 70.663a.99.99 0 0 1-1.06-.954c0-1.298 4.451-3.577 5.697-3.577.636 0 1.06.371 1.06.954 0 1.325-4.478 3.577-5.697 3.577m3.656-5.776c-2.57 0-5.643 2.146-5.643 4.61 0 1.14.82 2.411 2.967 2.411 2.756 0 5.645-2.251 5.645-4.583 0-1.564-1.325-2.438-2.969-2.438m-127.81-61.577c0 1.14.821 2.412 2.967 2.412 2.757 0 5.645-2.253 5.645-4.584 0-1.564-1.325-2.439-2.968-2.439-2.57 0-5.644 2.174-5.644 4.611m-222.908 1.166a.99.99 0 0 1-1.06-.953c0-1.299 4.452-3.578 5.697-3.578.636 0 1.06.37 1.06.954 0 1.325-4.478 3.577-5.697 3.577m3.657-5.777c-2.57 0-5.645 2.147-5.645 4.611 0 1.14.823 2.412 2.969 2.412 2.755 0 5.644-2.253 5.644-4.584 0-1.564-1.325-2.439-2.968-2.439m194.485 7.92c0 1.14.821 2.412 2.968 2.412 2.756 0 5.644-2.253 5.644-4.585 0-1.562-1.325-2.437-2.968-2.437-2.57 0-5.644 2.172-5.644 4.61m52.21 62.878c0 1.14.82 2.411 2.967 2.411 2.756 0 5.645-2.251 5.645-4.583 0-1.564-1.325-2.438-2.969-2.438-2.57 0-5.644 2.173-5.644 4.61m-188.735-66.187c0 1.14.821 2.412 2.968 2.412 2.755 0 5.643-2.253 5.643-4.584 0-1.564-1.325-2.439-2.967-2.439-2.57 0-5.644 2.174-5.644 4.611m27.998 3.31c0 1.139.822 2.411 2.968 2.411 2.755 0 5.644-2.253 5.644-4.585 0-1.562-1.325-2.437-2.968-2.437-2.57 0-5.644 2.172-5.644 4.61m74.297 3.31c0 1.14.822 2.412 2.968 2.412 2.756 0 5.645-2.253 5.645-4.585 0-1.564-1.325-2.438-2.969-2.438-2.57 0-5.644 2.173-5.644 4.61m-49.531 3.31c0 1.14.821 2.411 2.968 2.411 2.755 0 5.643-2.252 5.643-4.584 0-1.563-1.324-2.437-2.967-2.437-2.57 0-5.644 2.172-5.644 4.61m69.668 62.878c0 1.14.821 2.411 2.967 2.411 2.757 0 5.644-2.252 5.644-4.584 0-1.563-1.325-2.438-2.968-2.438-2.57 0-5.643 2.173-5.643 4.611m-245.032-66.187c0 1.14.821 2.412 2.968 2.412 2.756 0 5.644-2.253 5.644-4.585 0-1.564-1.325-2.438-2.967-2.438-2.57 0-5.645 2.173-5.645 4.61m-72.886 43.54v20.476h.662v-20.475Zm256.192-64.508v22.106h.662V85.725Zm-69.275-8.242v17.111h.662v-17.11Zm44.509 1.623v22.107h.662V79.106Zm71.699 69.52V167.4h.662v-18.774zm-34.104-4.987v20.451h.662V143.64ZM79.72 11.235v20.482h.663V11.235Zm253.636 67.84v18.828h.662V79.075zm136.526.03v22.108h.662V79.106Zm-105.038 66.189V167.4h.662v-22.106zm251.97-1.655v20.451h.662V143.64zm-60.62 1.655V167.4h.662v-22.106Zm-61.547-69.497v22.106h.662V75.797Zm-224.895 0v22.106h.662V75.797ZM97.444 9.64v18.767h.662V9.64ZM330.74 148.602v22.107h.662v-22.107zm188.672-74.46v20.452h.662V74.142Zm-63.626 76.092v20.475h.662v-20.475ZM235.521 79.106v22.107h.663V79.106Zm-24.765 3.31v22.106h.662V82.415Zm333.423-3.278v18.765h.662V79.138ZM185.99 82.415v22.107h.662V82.415Zm336.101 61.224v20.451h.662V143.64ZM161.224 75.797v22.106h.662V75.797ZM125.442 4.646v20.452h.662V4.646Zm26.585 0v20.452h.662V4.646Zm408.662 76.083v20.484h.662V80.729Zm-433.695-6.587v20.452h.662V74.142ZM178.61 4.646v20.452h.662V4.646Zm-76.383 69.496v20.452h.662V74.142Zm184.945 77.77v22.106h.662v-22.106zM65.079 74.142v20.452h.662V74.142Zm523.609 8.273v22.107h.662V82.415ZM205.196 4.645v20.453h.662V4.646Zm47.873 150.576v22.106h.662v-22.106ZM241.244 4.646v20.452h.663V4.646Zm372.21 81.079v22.106h.662V85.725Zm47.713-81.08v20.453h.662V4.646Zm-22.948 84.39v22.106h.662V89.034Zm-3.637-84.39v20.453h.662V4.646ZM218.966 155.222v22.106h.662v-22.106ZM607.998 4.646v20.452h.662V4.646Zm54.987 81.079v22.106h.662V85.725ZM573.47 20.65v20.399h.662v-20.4ZM281.121 4.646v20.452h.662V4.646Zm-96.258 143.956v22.107h.662v-22.107zM307.706 9.58v18.827h.662V9.58Zm237.766 7.76v18.774h.663V17.34ZM325.43 7.985v17.113h.662V7.985Zm20.056 15.974v18.744h.662V23.96Zm182.264-3.31v17.06h.662V20.65Zm-47.704 142.303v18.744h.662v-18.744Zm21.12-138.993v18.744h.662V23.96ZM65.079 151.912v22.106h.662v-22.106zM461.288 23.959v18.744h.662V23.96ZM152.662 148.626V167.4h.662v-18.774Zm227.35-143.98v20.452h.662V4.646ZM406.597 6.3v22.106h.662V6.301Zm26.584-1.655v20.452h.662V4.646Zm2.47 77.77v22.106h.662V82.415Zm-24.766 3.309v22.106h.662V85.725Zm217.208 25.945v1.06h12.973v-1.06zm-85.89 54.828 2.359-.478v4.373l-2.358.504zm4.106-.82c.16-.027.292-.213.292-.371v-1.564a.36.36 0 0 0-.37-.371h-.054l-.875.185v-3.948h-.741v4.108l-2.358.476v-3.736h-.743v3.895l-1.033.212c-.16.027-.291.213-.291.371v1.537c0 .212.159.37.37.37h.08l.874-.184v4.372l-1.033.212c-.16.026-.291.212-.291.37v1.538c0 .212.159.371.37.371h.08l.875-.186v3.949h.742v-4.108l2.358-.476v3.736h.741v-3.896l1.007-.185c.16-.027.292-.213.292-.371v-1.564a.36.36 0 0 0-.37-.37h-.054l-.875.185v-4.372zM223.838 9.246v27.203h1.191V9.246ZM571.28 78.742v27.203h1.191V78.742ZM313.334 148.24v27.202h1.191V148.24ZM143.817 78.742v27.203h1.19V78.742ZM679.809 9.246v27.203H681V9.246Zm-115.803 0v27.203h1.19V9.246Zm115.803 69.496v27.203H681V78.742ZM108.035 9.246v27.203h1.19V9.246Zm144.31 69.496v27.203h1.191V78.742Zm347.062 69.497v27.202h1.19V148.24zm-431.952 0v27.202h1.192V148.24zm509.905 0v27.202H681V148.24zm-3.64 0v27.202h1.191V148.24ZM336.02 9.246v27.203h1.191V9.246Zm7.926 69.496v27.203h1.192V78.742ZM451.823 9.246v27.203h1.192V9.246Zm.651 69.496v27.203h1.191V78.742Zm18.106 69.497v27.202h1.191V148.24ZM0 174.713v.728h681v-.728zm0-6.618v.728h681v-.728zm0-6.619v.728h681v-.728zm0-6.619v.728h681v-.728zm0-6.619v.728h681v-.728zm0-43.021v.728h681v-.728zm0-6.618v.727h681V98.6zm0-6.62v.729h681v-.728zm0-6.618v.728h681v-.728zm0-6.619v.728h681v-.728Zm0-43.021v.727h681v-.727zm0-6.619v.728h681v-.728zm0-6.619v.728h681v-.728zm0-6.618v.727h681v-.727Zm0-6.619v.728h681v-.728Z"/>
</svg>
