<?xml version="1.0" encoding="utf-8"?>
<svg xmlns="http://www.w3.org/2000/svg" xmlns:svg="http://www.w3.org/2000/svg" version="1.1" viewBox="0 0 681 187">
	<title>The musical score for Air II</title>
	<path d="M283.894 165.15c0 .742.582 1.324 1.325 1.324.741 0 1.325-.582 1.325-1.325 0-.742-.584-1.324-1.325-1.324-.742 0-1.325.582-1.325 1.324m325.921-6.618c0 .742.584 1.324 1.325 1.324.743 0 1.325-.582 1.325-1.324s-.582-1.325-1.325-1.325c-.74 0-1.325.582-1.325 1.325M257.843 6.3c0 .741.583 1.324 1.325 1.324s1.325-.583 1.325-1.325c0-.741-.583-1.324-1.325-1.324s-1.325.583-1.325 1.324M143.79 151.912c0 .742.582 1.325 1.325 1.325.742 0 1.324-.583 1.324-1.325 0-.743-.582-1.325-1.324-1.325s-1.325.582-1.325 1.325m90.594-49.64c0 .741.582 1.324 1.325 1.324.742 0 1.324-.583 1.324-1.325 0-.741-.582-1.325-1.324-1.325s-1.325.584-1.325 1.325m220.172-82.733c0 .742.582 1.325 1.325 1.325.742 0 1.325-.583 1.325-1.325s-.583-1.325-1.325-1.325c-.743 0-1.325.583-1.325 1.325M335.609 102.27c0 .742.582 1.325 1.325 1.325.742 0 1.324-.583 1.324-1.325 0-.741-.582-1.325-1.324-1.325s-1.325.584-1.325 1.325m310.307-6.618c0 .741.582 1.325 1.325 1.325.741 0 1.325-.584 1.325-1.325 0-.742-.584-1.325-1.325-1.325-.742 0-1.325.583-1.325 1.325m-101.226 6.618c0 .742.582 1.325 1.325 1.325.741 0 1.325-.583 1.325-1.325 0-.741-.584-1.325-1.325-1.325-.742 0-1.325.584-1.325 1.325m104.246-69.496c0 .742.583 1.325 1.325 1.325.743 0 1.325-.583 1.325-1.325 0-.741-.582-1.325-1.325-1.325-.742 0-1.325.584-1.325 1.325m-212.101 56.26c0 .741.582 1.324 1.325 1.324.742 0 1.324-.583 1.324-1.325s-.582-1.325-1.324-1.325-1.325.583-1.325 1.325m109.98-62.877c0 .741.582 1.325 1.325 1.325.74 0 1.324-.584 1.324-1.325 0-.742-.583-1.325-1.324-1.325-.743 0-1.325.583-1.325 1.325M500.55 173.419l73.675 4.964v3.317l-73.675-4.964zM294.5 32.773l33.428 1.655v3.314l-33.427-1.655zm-98.239 150.578h57.45v3.31h-57.45zM103.403 42.703h33.428v3.31h-33.428zm373.11 71.151H514.4v3.31h-37.887zM595.094 2.99l33.428 1.655v3.313l-33.428-1.655zM375.287 103.926h37.887v3.31h-37.887zm-37.099-66.188 33.428 1.654v3.313l-33.428-1.654zm-174.868-.016 11.584 1.655v3.343l-11.584-1.655zm252.049 135.7 57.45-1.654v3.31l-57.45 1.655zm176.94-104.258 37.888 4.964v3.338L592.31 72.5zM491.212 37.738l33.428 1.654v3.313l-33.428-1.654zm-383.6 74.455 37.887-3.31v3.323l-37.887 3.31zm73.165-39.72 37.887 4.965v3.337l-37.887-4.964zm93.284 39.727h37.887v3.31H274.06zm-71.82-77.772 33.427-1.655v3.314l-33.427 1.655zm196.711 8.267 33.428-3.31v3.326l-33.428 3.31zM64.099 141.984h57.45v3.31h-57.45zm275.552 36.396 57.45-4.963v3.321l-57.45 4.964zM64.1 77.438l37.887-4.965v3.338l-37.887 4.964zm-9.258-59.334c-.663.424-1.14 1.192-1.14 2.04 0 .106 0 .212.026.318.133 1.087 1.007 1.935 2.094 2.067h.29a2.375 2.375 0 0 0 2.386-2.385v-.159c0-.106-.027-.291-.053-.397-.239-1.14-1.272-3.577-5.777-3.577-5.776 0-6.439 4.796-6.439 6.518 0 3.154.398 7.101 7.023 7.101 2.623 0 4.663-1.536 4.77-4.371 0-.133-.08-.212-.213-.212h-.344a.23.23 0 0 0-.212.212c-.107 2.199-1.67 3.524-4.001 3.524-2.306 0-3.419-1.245-3.419-3.577v-5.062c0-1.483.583-3.18 2.942-3.18 1.245 0 1.802.451 2.093.902.026.053.026.08.026.132 0 .027 0 .08-.052.106M37.732 11.86c0 2.094-1.086 3.207-2.623 4.425l.079-5.167c.053-.238.45-1.007 1.51-1.007.954 0 1.034.901 1.034 1.458zm-.318-3.047a2.98 2.98 0 0 0-2.226.98l.106-8.506a.36.36 0 0 0-.37-.37h-.319a.363.363 0 0 0-.371.37l.133 15.926c0 .212.16.37.37.37a.6.6 0 0 0 .213-.052c2.279-1.14 4.664-3.312 4.664-6.042 0-1.378-.637-2.676-2.2-2.676m-7.042 12.975c0 2.094-1.086 3.207-2.623 4.426l.079-5.168c.053-.238.45-1.007 1.51-1.007.955 0 1.034.901 1.034 1.458zm-.318-3.047a2.98 2.98 0 0 0-2.226.98l.106-8.506a.363.363 0 0 0-.371-.37h-.318a.36.36 0 0 0-.37.37l.131 15.926c0 .212.16.37.372.37a.6.6 0 0 0 .211-.052c2.28-1.14 4.664-3.312 4.664-6.042 0-1.378-.635-2.676-2.199-2.676m7.678 62.615c0 2.094-1.086 3.206-2.623 4.426l.08-5.168c.052-.238.45-1.006 1.51-1.006.953 0 1.033.9 1.033 1.457zm-.318-3.047a2.98 2.98 0 0 0-2.226.98l.106-8.506a.36.36 0 0 0-.37-.37h-.319a.363.363 0 0 0-.371.37l.133 15.926c0 .212.16.371.37.371.054 0 .16-.026.213-.053 2.279-1.14 4.664-3.312 4.664-6.041 0-1.378-.637-2.677-2.2-2.677m-7.042 12.976c0 2.093-1.086 3.206-2.623 4.425l.079-5.167c.053-.239.45-1.008 1.51-1.008.955 0 1.034.902 1.034 1.458zm-.318-3.048a2.98 2.98 0 0 0-2.226.98l.106-8.505c0-.212-.159-.37-.371-.37h-.318a.36.36 0 0 0-.37.37l.132 15.925c0 .212.159.37.371.37a.6.6 0 0 0 .211-.052c2.28-1.14 4.664-3.312 4.664-6.042 0-1.378-.635-2.676-2.199-2.676m7.678 62.616c0 2.093-1.086 3.206-2.623 4.425l.08-5.168c.052-.237.45-1.006 1.51-1.006.953 0 1.033.9 1.033 1.457zm-.318-3.047a2.98 2.98 0 0 0-2.226.98l.106-8.506a.363.363 0 0 0-.37-.371h-.319a.363.363 0 0 0-.371.371l.133 15.925c0 .213.16.372.37.372.054 0 .16-.027.213-.053 2.279-1.14 4.664-3.313 4.664-6.042 0-1.378-.637-2.676-2.2-2.676m-7.042 12.975c0 2.093-1.086 3.206-2.623 4.426l.079-5.168c.053-.238.45-1.007 1.51-1.007.955 0 1.034.901 1.034 1.458zm-.318-3.048a2.98 2.98 0 0 0-2.226.98l.106-8.505a.363.363 0 0 0-.371-.371h-.318a.36.36 0 0 0-.37.37l.132 15.926c0 .212.159.371.371.371a.6.6 0 0 0 .211-.052c2.28-1.14 4.664-3.312 4.664-6.042 0-1.378-.635-2.676-2.199-2.676m-13.96 16.184a7.7 7.7 0 0 1-1.538.159c-3.789 0-7.022-2.65-7.022-6.65 0-3.234 2.28-6.122 4.611-8.136.45-.399.874-.769 1.272-1.166.238 1.43.424 2.677.61 3.763-2.412.715-4.055 3.259-4.055 5.75 0 1.854 1.458 4.398 3.578 4.398.212 0 .45-.105.45-.343s-.265-.372-.583-.583c-1.033-.636-1.616-1.325-1.616-2.623 0-1.617 1.192-2.915 2.755-3.286zm-2.332-27.24c.239-1.06 1.458-3.842 2.836-3.842.397 0 1.033 1.298 1.033 3.127 0 2.755-2.04 4.822-3.869 6.625-.159-1.06-.291-2.094-.291-3.207 0-.98.08-1.882.291-2.703m6.095 22.338c0 1.882-.768 3.816-2.65 4.584a881 881 0 0 1-1.457-8.558c2.385 0 4.107 1.616 4.107 3.974m-11.66 13.037c0 1.749 1.352 4.054 4.93 4.054 1.245 0 2.331-.318 3.285-.901 1.431-1.007 1.802-2.756 1.802-4.425 0-1.034-.159-2.226-.424-3.737-.08-.53-.238-1.324-.397-2.358 2.597-.848 4.53-3.55 4.53-6.28 0-4.001-2.834-6.704-6.703-6.704-.265-1.59-.53-3.153-.768-4.637 2.808-2.942 4.743-6.254 4.743-10.467 0-2.411-.742-4.372-1.166-5.326-.636-1.351-1.405-2.28-1.882-2.28-.185 0-1.007.32-1.881 1.352-1.696 2.014-2.173 5.406-2.173 7.632 0 1.431.133 2.73.583 5.697-.026.027-1.404 1.43-1.96 1.882-2.412 2.251-5.75 5.458-5.75 10.757 0 4.956 4.318 8.851 9.247 8.851.768 0 1.484-.08 2.093-.186.504 2.544.795 4.399.795 5.803 0 2.756-1.404 4.213-4.08 4.213-.636 0-1.193-.132-1.246-.132-.026-.027-.08-.053-.08-.08 0-.053.054-.079.133-.105 1.246-.187 2.491-1.246 2.491-2.942 0-1.431-1.086-2.94-3.074-2.94-1.855 0-3.047 1.509-3.047 3.258m7.896-147.127a7.7 7.7 0 0 1-1.537.16c-3.789 0-7.022-2.65-7.022-6.651 0-3.234 2.28-6.122 4.611-8.135.45-.398.874-.769 1.272-1.166.238 1.43.424 2.676.61 3.762-2.412.716-4.055 3.26-4.055 5.75 0 1.855 1.458 4.4 3.578 4.4.212 0 .45-.106.45-.345s-.265-.372-.583-.583c-1.033-.636-1.616-1.325-1.616-2.623 0-1.617 1.192-2.915 2.755-3.287zm-2.332-27.24c.239-1.06 1.458-3.842 2.836-3.842.397 0 1.033 1.299 1.033 3.127 0 2.756-2.04 4.823-3.869 6.625-.159-1.06-.291-2.094-.291-3.207 0-.98.08-1.881.291-2.703m6.095 22.339c0 1.881-.768 3.815-2.65 4.584a881 881 0 0 1-1.457-8.559c2.385 0 4.107 1.616 4.107 3.975M8.196 43.06c0 1.748 1.352 4.054 4.93 4.054 1.245 0 2.331-.318 3.285-.901 1.431-1.007 1.802-2.756 1.802-4.425 0-1.034-.159-2.226-.424-3.737-.08-.53-.238-1.325-.397-2.358 2.597-.848 4.53-3.55 4.53-6.28 0-4.001-2.834-6.704-6.703-6.704-.265-1.59-.53-3.153-.768-4.637 2.808-2.942 4.743-6.254 4.743-10.467 0-2.411-.742-4.372-1.166-5.326C17.392.927 16.623 0 16.146 0c-.185 0-1.007.318-1.881 1.351-1.696 2.014-2.173 5.406-2.173 7.632 0 1.43.133 2.73.583 5.697-.026.026-1.404 1.43-1.96 1.881-2.412 2.253-5.75 5.459-5.75 10.758 0 4.956 4.318 8.851 9.247 8.851.768 0 1.484-.08 2.093-.186.504 2.545.795 4.4.795 5.804 0 2.755-1.404 4.213-4.08 4.213-.636 0-1.193-.133-1.246-.133-.026-.026-.08-.053-.08-.08 0-.052.054-.079.133-.105 1.245-.186 2.49-1.246 2.49-2.941 0-1.432-1.086-2.941-3.073-2.941-1.855 0-3.047 1.51-3.047 3.259m7.896 61.36a7.7 7.7 0 0 1-1.537.16c-3.789 0-7.022-2.65-7.022-6.65 0-3.234 2.28-6.122 4.611-8.136.45-.398.874-.768 1.272-1.166.238 1.431.424 2.677.61 3.763-2.412.715-4.055 3.259-4.055 5.75 0 1.854 1.458 4.399 3.577 4.399.213 0 .451-.106.451-.345 0-.238-.265-.371-.583-.583-1.033-.636-1.616-1.324-1.616-2.623 0-1.616 1.192-2.915 2.755-3.286zm-2.332-27.24c.239-1.06 1.458-3.842 2.836-3.842.397 0 1.033 1.298 1.033 3.127 0 2.755-2.04 4.822-3.869 6.624-.159-1.06-.291-2.093-.291-3.206 0-.98.08-1.882.291-2.703m6.095 22.338c0 1.881-.768 3.815-2.65 4.584a881 881 0 0 1-1.457-8.559c2.385 0 4.107 1.617 4.107 3.975m-11.66 13.037c0 1.748 1.352 4.054 4.93 4.054 1.245 0 2.331-.318 3.285-.9 1.431-1.007 1.802-2.756 1.802-4.426 0-1.033-.159-2.225-.424-3.736-.08-.53-.238-1.325-.397-2.358 2.597-.848 4.53-3.55 4.53-6.28 0-4.002-2.834-6.704-6.703-6.704-.265-1.59-.53-3.154-.768-4.637 2.808-2.942 4.743-6.254 4.743-10.467 0-2.411-.742-4.372-1.166-5.326-.636-1.352-1.405-2.28-1.882-2.28-.185 0-1.007.32-1.881 1.352-1.696 2.014-2.173 5.406-2.173 7.632 0 1.43.133 2.73.583 5.697-.026.026-1.404 1.43-1.96 1.881-2.412 2.252-5.75 5.458-5.75 10.758 0 4.955 4.318 8.851 9.247 8.851.768 0 1.484-.08 2.093-.186.504 2.544.795 4.4.795 5.803 0 2.756-1.404 4.214-4.08 4.214-.636 0-1.193-.133-1.246-.133-.026-.026-.08-.053-.08-.08 0-.052.054-.079.133-.105 1.246-.186 2.491-1.246 2.491-2.941 0-1.432-1.086-2.941-3.074-2.941-1.855 0-3.047 1.51-3.047 3.259m423.52-95.216c0 1.14.822 2.412 2.97 2.412 2.754 0 5.643-2.253 5.643-4.584 0-1.564-1.325-2.438-2.968-2.438-2.57 0-5.644 2.173-5.644 4.61M294.5 10.723c0 1.14.821 2.411 2.967 2.411 2.756 0 5.644-2.252 5.644-4.584 0-1.563-1.325-2.438-2.968-2.438-2.57 0-5.644 2.173-5.644 4.61m-41.45 152.23c0 1.14.822 2.412 2.967 2.412 2.757 0 5.645-2.252 5.645-4.584 0-1.563-1.325-2.438-2.968-2.438-2.57 0-5.644 2.173-5.644 4.61M266.502 7.414c0 1.14.822 2.412 2.968 2.412 2.756 0 5.645-2.253 5.645-4.584 0-1.564-1.325-2.438-2.969-2.438-2.57 0-5.644 2.173-5.644 4.61m-32.381 152.23c0 1.14.822 2.412 2.968 2.412 2.755 0 5.643-2.252 5.643-4.584 0-1.564-1.324-2.438-2.967-2.438-2.57 0-5.644 2.173-5.644 4.61m71.301-152.23c0 1.14.822 2.412 2.968 2.412 2.756 0 5.645-2.253 5.645-4.584 0-1.564-1.325-2.438-2.969-2.438-2.57 0-5.644 2.173-5.644 4.61m-90.23 162.159c0 1.139.82 2.411 2.967 2.411 2.756 0 5.645-2.253 5.645-4.584 0-1.563-1.325-2.438-2.969-2.438-2.57 0-5.644 2.173-5.644 4.61M316.344 10.724c0 1.14.822 2.411 2.968 2.411 2.756 0 5.645-2.252 5.645-4.584 0-1.563-1.325-2.438-2.969-2.438-2.57 0-5.644 2.173-5.644 4.61m-8.371 162.16c0 1.138.822 2.41 2.968 2.41 2.756 0 5.644-2.252 5.644-4.584 0-1.563-1.325-2.438-2.967-2.438-2.57 0-5.645 2.173-5.645 4.611m-111.71-16.547c0 1.14.82 2.411 2.967 2.411 2.755 0 5.644-2.252 5.644-4.584 0-1.563-1.325-2.437-2.968-2.437-2.57 0-5.644 2.172-5.644 4.61M327.266 17.342c0 1.139.822 2.41 2.968 2.41 2.756 0 5.645-2.251 5.645-4.583 0-1.564-1.325-2.438-2.969-2.438-2.57 0-5.644 2.173-5.644 4.61m10.922-3.309c0 1.14.822 2.412 2.968 2.412 2.756 0 5.644-2.253 5.644-4.585 0-1.563-1.324-2.437-2.967-2.437-2.57 0-5.645 2.172-5.645 4.61m-92.26-3.31c0 1.14.822 2.412 2.969 2.412 2.755 0 5.644-2.252 5.644-4.584 0-1.563-1.325-2.438-2.968-2.438-2.57 0-5.645 2.173-5.645 4.61m-78.06 145.612c0 1.14.821 2.411 2.968 2.411 2.755 0 5.644-2.252 5.644-4.584 0-1.563-1.325-2.437-2.968-2.437-2.57 0-5.645 2.172-5.645 4.61M349.11 17.341c0 1.14.822 2.412 2.968 2.412 2.756 0 5.644-2.253 5.644-4.584 0-1.564-1.325-2.438-2.967-2.438-2.57 0-5.645 2.173-5.645 4.61m10.922 3.31c0 1.14.822 2.411 2.968 2.411 2.756 0 5.644-2.252 5.644-4.584 0-1.563-1.325-2.438-2.967-2.438-2.57 0-5.645 2.173-5.645 4.61M235.006 7.414c0 1.14.822 2.412 2.969 2.412 2.755 0 5.644-2.253 5.644-4.584 0-1.564-1.325-2.438-2.968-2.438-2.57 0-5.645 2.173-5.645 4.61M131.873 153.024c0 1.14.822 2.412 2.969 2.412 2.755 0 5.644-2.252 5.644-4.584 0-1.564-1.325-2.438-2.968-2.438-2.57 0-5.645 2.173-5.645 4.61M370.953 23.96c0 1.14.822 2.411 2.969 2.411 2.755 0 5.644-2.252 5.644-4.584 0-1.563-1.325-2.438-2.968-2.438-2.57 0-5.644 2.173-5.644 4.611m-258.01 145.612c0 1.139.822 2.411 2.968 2.411 2.756 0 5.645-2.253 5.645-4.584 0-1.563-1.325-2.438-2.969-2.438-2.57 0-5.643 2.173-5.643 4.61M398.952 27.27c0 1.139.822 2.41 2.968 2.41 2.756 0 5.644-2.252 5.644-4.583 0-1.564-1.325-2.438-2.967-2.438-2.57 0-5.645 2.173-5.645 4.61M94.015 162.954c0 1.139.822 2.411 2.968 2.411 2.756 0 5.644-2.252 5.644-4.584 0-1.563-1.325-2.438-2.968-2.438-2.57 0-5.644 2.173-5.644 4.61m130.07-152.23c0 1.14.821 2.412 2.967 2.412 2.756 0 5.645-2.252 5.645-4.584 0-1.563-1.325-2.438-2.968-2.438-2.57 0-5.645 2.173-5.645 4.61M75.086 166.263c0 1.14.821 2.411 2.967 2.411 2.757 0 5.645-2.252 5.645-4.583 0-1.564-1.325-2.438-2.968-2.438-2.57 0-5.644 2.173-5.644 4.61M409.874 23.96c0 1.14.822 2.411 2.968 2.411 2.756 0 5.644-2.252 5.644-4.584 0-1.563-1.325-2.438-2.967-2.438-2.571 0-5.645 2.173-5.645 4.611M339.65 162.953c0 1.139.822 2.411 2.968 2.411 2.756 0 5.644-2.252 5.644-4.584 0-1.563-1.325-2.438-2.968-2.438-2.57 0-5.643 2.173-5.643 4.61m-283.495 6.62c0 1.139.821 2.41 2.968 2.41 2.755 0 5.643-2.252 5.643-4.583 0-1.563-1.325-2.438-2.967-2.438-2.57 0-5.644 2.173-5.644 4.61m364.639-148.92c0 1.14.821 2.411 2.968 2.411 2.756 0 5.644-2.252 5.644-4.584 0-1.563-1.325-2.438-2.967-2.438-2.571 0-5.645 2.173-5.645 4.61m-207.633-6.618c0 1.14.821 2.411 2.967 2.411 2.756 0 5.645-2.252 5.645-4.584 0-1.563-1.325-2.438-2.968-2.438-2.57 0-5.645 2.173-5.645 4.611M358.58 156.334c0 1.14.822 2.411 2.969 2.411 2.755 0 5.644-2.252 5.644-4.584 0-1.563-1.325-2.437-2.968-2.437-2.57 0-5.645 2.172-5.645 4.61m18.93 3.31c0 1.139.822 2.41 2.968 2.41 2.755 0 5.644-2.251 5.644-4.583 0-1.564-1.325-2.438-2.968-2.438-2.57 0-5.644 2.173-5.644 4.61M246.063 90.147c0 1.14.821 2.411 2.967 2.411 2.757 0 5.645-2.252 5.645-4.584 0-1.563-1.325-2.437-2.968-2.437-2.57 0-5.644 2.172-5.644 4.61M442.64 20.651c0 1.14.822 2.411 2.968 2.411 2.755 0 5.644-2.252 5.644-4.584 0-1.563-1.325-2.438-2.968-2.438-2.57 0-5.644 2.173-5.644 4.61m-240.4-3.309c0 1.14.822 2.412 2.968 2.412 2.757 0 5.645-2.253 5.645-4.584 0-1.564-1.325-2.438-2.968-2.438-2.57 0-5.644 2.173-5.644 4.61m260.973 0c0 1.14.821 2.412 2.967 2.412 2.756 0 5.645-2.253 5.645-4.584 0-1.564-1.325-2.438-2.968-2.438-2.57 0-5.644 2.173-5.644 4.61m-66.775 135.683c0 1.14.822 2.412 2.968 2.412 2.756 0 5.644-2.252 5.644-4.584 0-1.564-1.324-2.438-2.968-2.438-2.57 0-5.644 2.173-5.644 4.61m237.562-52.949c0 1.14.821 2.412 2.968 2.412 2.755 0 5.644-2.253 5.644-4.584 0-1.564-1.325-2.439-2.968-2.439-2.57 0-5.644 2.174-5.644 4.611M491.21 14.032c0 1.14.823 2.411 2.969 2.411 2.756 0 5.644-2.252 5.644-4.584 0-1.563-1.325-2.438-2.968-2.438-2.57 0-5.644 2.173-5.644 4.611m130.381 86.043c0 1.14.822 2.412 2.968 2.412 2.755 0 5.644-2.253 5.644-4.584 0-1.564-1.325-2.439-2.968-2.439-2.57 0-5.644 2.174-5.644 4.611M174.243 23.96c0 1.14.821 2.411 2.968 2.411 2.755 0 5.644-2.252 5.644-4.584 0-1.563-1.325-2.438-2.968-2.438-2.57 0-5.645 2.173-5.645 4.611m434.943 72.806c0 1.14.821 2.411 2.967 2.411 2.756 0 5.644-2.253 5.644-4.584 0-1.563-1.325-2.438-2.968-2.438-2.57 0-5.643 2.173-5.643 4.61M502.134 17.342c0 1.14.821 2.412 2.967 2.412 2.757 0 5.645-2.253 5.645-4.584 0-1.564-1.325-2.438-2.968-2.438-2.57 0-5.644 2.173-5.644 4.61m94.642 76.115c0 1.14.822 2.412 2.968 2.412 2.756 0 5.644-2.252 5.644-4.584 0-1.564-1.325-2.438-2.968-2.438-2.57 0-5.644 2.173-5.644 4.61m-83.72-72.805c0 1.14.821 2.411 2.967 2.411 2.756 0 5.645-2.252 5.645-4.584 0-1.563-1.325-2.438-2.969-2.438-2.57 0-5.644 2.173-5.644 4.61M415.37 156.335c0 1.14.822 2.411 2.967 2.411 2.756 0 5.644-2.252 5.644-4.584 0-1.563-1.325-2.437-2.967-2.437-2.57 0-5.644 2.172-5.644 4.61m168.999-66.187c0 1.14.821 2.411 2.967 2.411 2.756 0 5.645-2.252 5.645-4.584 0-1.563-1.325-2.437-2.969-2.437-2.57 0-5.644 2.172-5.644 4.61m-60.39-66.187c0 1.14.822 2.411 2.968 2.411 2.756 0 5.645-2.252 5.645-4.584 0-1.563-1.325-2.438-2.968-2.438-2.57 0-5.645 2.173-5.645 4.611m10.922 3.31c0 1.139.822 2.41 2.969 2.41 2.755 0 5.644-2.252 5.644-4.583 0-1.564-1.325-2.438-2.968-2.438-2.57 0-5.645 2.173-5.645 4.61M434.298 149.717c0 1.139.821 2.411 2.967 2.411 2.757 0 5.645-2.253 5.645-4.585 0-1.562-1.325-2.437-2.968-2.437-2.57 0-5.644 2.172-5.644 4.61m122.071-62.877c0 1.14.822 2.41 2.969 2.41 2.755 0 5.643-2.251 5.643-4.583 0-1.564-1.324-2.438-2.967-2.438-2.57 0-5.645 2.173-5.645 4.61m-.895-59.567c0 1.139.821 2.41 2.967 2.41 2.756 0 5.645-2.252 5.645-4.583 0-1.564-1.325-2.438-2.969-2.438-2.57 0-5.644 2.173-5.644 4.61m31.679-3.309c0 1.14.822 2.411 2.968 2.411 2.755 0 5.643-2.252 5.643-4.584 0-1.563-1.324-2.438-2.967-2.438-2.57 0-5.644 2.173-5.644 4.611M163.32 20.65c0 1.14.822 2.412 2.968 2.412 2.756 0 5.645-2.252 5.645-4.584 0-1.563-1.325-2.438-2.968-2.438-2.57 0-5.644 2.173-5.644 4.61m289.906 125.756c0 1.14.821 2.412 2.968 2.412 2.755 0 5.644-2.253 5.644-4.584 0-1.564-1.325-2.439-2.968-2.439-2.57 0-5.644 2.174-5.644 4.611m79.548-43.021c0 1.139.821 2.411 2.968 2.411 2.756 0 5.644-2.253 5.644-4.585 0-1.562-1.325-2.437-2.968-2.437-2.57 0-5.644 2.172-5.644 4.61m65.299-76.114c0 1.139.822 2.41 2.968 2.41 2.755 0 5.643-2.252 5.643-4.583 0-1.564-1.324-2.438-2.967-2.438-2.57 0-5.644 2.173-5.644 4.61m-84.336 69.497c0 1.14.821 2.411 2.967 2.411 2.757 0 5.645-2.253 5.645-4.584 0-1.563-1.325-2.438-2.969-2.438-2.57 0-5.643 2.173-5.643 4.61m95.257-66.186c0 1.14.822 2.411 2.968 2.411 2.755 0 5.644-2.252 5.644-4.584 0-1.563-1.325-2.438-2.968-2.438-2.57 0-5.644 2.173-5.644 4.611M501.33 90.147c0 1.14.822 2.411 2.968 2.411 2.756 0 5.645-2.252 5.645-4.584 0-1.563-1.325-2.437-2.968-2.437-2.57 0-5.645 2.172-5.645 4.61m118.588-56.258c0 1.139.822 2.41 2.968 2.41 2.756 0 5.644-2.252 5.644-4.584 0-1.563-1.325-2.438-2.968-2.438-2.57 0-5.643 2.173-5.643 4.612M488.92 100.075c0 1.14.822 2.412 2.968 2.412 2.756 0 5.644-2.253 5.644-4.584 0-1.564-1.325-2.439-2.967-2.439-2.57 0-5.645 2.174-5.645 4.611m148.101-62.878c0 1.14.822 2.412 2.968 2.412 2.755 0 5.644-2.252 5.644-4.584 0-1.564-1.325-2.438-2.968-2.438-2.57 0-5.644 2.173-5.644 4.61M147.091 17.341c0 1.14.822 2.412 2.968 2.412 2.756 0 5.644-2.253 5.644-4.584 0-1.564-1.325-2.438-2.968-2.438-2.57 0-5.644 2.173-5.644 4.61m329.422 66.187c0 1.14.822 2.412 2.968 2.412 2.755 0 5.643-2.253 5.643-4.585 0-1.563-1.324-2.437-2.967-2.437-2.57 0-5.644 2.172-5.644 4.61m-4.357 66.188c0 1.139.822 2.411 2.968 2.411 2.756 0 5.644-2.253 5.644-4.585 0-1.562-1.325-2.437-2.968-2.437-2.57 0-5.644 2.172-5.644 4.61m185.44-105.899c0 1.14.82 2.411 2.967 2.411 2.756 0 5.645-2.252 5.645-4.584 0-1.563-1.325-2.437-2.968-2.437-2.57 0-5.645 2.172-5.645 4.61M136.17 20.651c0 1.14.822 2.411 2.968 2.411 2.756 0 5.644-2.252 5.644-4.584 0-1.563-1.324-2.438-2.968-2.438-2.57 0-5.644 2.173-5.644 4.61m312.346 66.188c0 1.14.821 2.41 2.967 2.41 2.756 0 5.644-2.251 5.644-4.583 0-1.564-1.325-2.438-2.968-2.438-2.57 0-5.643 2.173-5.643 4.61M125.247 23.96c0 1.14.822 2.411 2.968 2.411 2.756 0 5.644-2.252 5.644-4.584 0-1.563-1.325-2.438-2.968-2.438-2.57 0-5.644 2.173-5.644 4.611m-69.09 79.425c0 1.139.821 2.411 2.967 2.411 2.756 0 5.644-2.253 5.644-4.585 0-1.562-1.325-2.437-2.967-2.437-2.57 0-5.644 2.172-5.644 4.61m58.168-76.114c0 1.139.822 2.41 2.968 2.41 2.755 0 5.644-2.252 5.644-4.583 0-1.564-1.325-2.438-2.968-2.438-2.57 0-5.644 2.173-5.644 4.61M424.92 93.457c0 1.14.822 2.412 2.968 2.412 2.756 0 5.644-2.252 5.644-4.584 0-1.564-1.325-2.438-2.968-2.438-2.57 0-5.644 2.173-5.644 4.61m75.63 59.568c0 1.14.822 2.412 2.968 2.412 2.756 0 5.645-2.252 5.645-4.584 0-1.564-1.325-2.438-2.969-2.438-2.57 0-5.644 2.173-5.644 4.61m-88.038-66.186c0 1.14.821 2.41 2.967 2.41 2.757 0 5.645-2.251 5.645-4.583 0-1.564-1.325-2.438-2.968-2.438-2.57 0-5.644 2.173-5.644 4.61M68.565 96.767c0 1.14.822 2.411 2.968 2.411 2.755 0 5.644-2.253 5.644-4.584 0-1.563-1.325-2.438-2.968-2.438-2.57 0-5.644 2.173-5.644 4.61M400.103 80.22c0 1.14.822 2.412 2.969 2.412 2.755 0 5.644-2.253 5.644-4.585 0-1.564-1.325-2.438-2.968-2.438-2.57 0-5.645 2.173-5.645 4.611m-319.13 19.856c0 1.14.821 2.412 2.968 2.412 2.756 0 5.644-2.253 5.644-4.584 0-1.564-1.325-2.439-2.967-2.439-2.57 0-5.645 2.174-5.645 4.611m306.722-13.237c0 1.14.822 2.41 2.968 2.41 2.755 0 5.644-2.251 5.644-4.583 0-1.564-1.325-2.438-2.968-2.438-2.57 0-5.644 2.173-5.644 4.61m-294.314 6.62c0 1.139.822 2.41 2.968 2.41 2.756 0 5.645-2.251 5.645-4.583 0-1.564-1.325-2.438-2.969-2.438-2.57 0-5.644 2.173-5.644 4.61m431.507 62.878c0 1.14.821 2.411 2.968 2.411 2.756 0 5.644-2.252 5.644-4.584 0-1.563-1.325-2.437-2.968-2.437-2.57 0-5.644 2.172-5.644 4.61M375.287 80.219c0 1.14.822 2.412 2.968 2.412 2.755 0 5.643-2.253 5.643-4.585 0-1.564-1.324-2.438-2.967-2.438-2.57 0-5.644 2.173-5.644 4.611M107.612 96.766c0 1.14.821 2.411 2.968 2.411 2.755 0 5.643-2.253 5.643-4.584 0-1.563-1.324-2.438-2.967-2.438-2.57 0-5.644 2.173-5.644 4.61m-4.209-72.805c0 1.14.822 2.411 2.968 2.411 2.756 0 5.644-2.252 5.644-4.584 0-1.563-1.325-2.438-2.968-2.438-2.57 0-5.644 2.173-5.644 4.611m16.617 66.187c0 1.14.822 2.411 2.968 2.411 2.756 0 5.644-2.252 5.644-4.584 0-1.563-1.325-2.437-2.968-2.437-2.57 0-5.644 2.172-5.644 4.61m227.269-9.928c0 1.14.821 2.412 2.967 2.412 2.757 0 5.644-2.253 5.644-4.585 0-1.564-1.325-2.438-2.967-2.438-2.57 0-5.644 2.173-5.644 4.611m-214.86 3.31c0 1.14.821 2.411 2.968 2.411 2.755 0 5.644-2.253 5.644-4.585 0-1.563-1.325-2.437-2.968-2.437-2.57 0-5.645 2.172-5.645 4.61m12.409 6.619c0 1.14.821 2.411 2.967 2.411 2.757 0 5.645-2.252 5.645-4.584 0-1.563-1.325-2.437-2.968-2.437-2.57 0-5.644 2.172-5.644 4.61m404.389 69.496c0 1.14.822 2.412 2.967 2.412 2.756 0 5.644-2.252 5.644-4.584 0-1.564-1.324-2.438-2.967-2.438-2.57 0-5.644 2.173-5.644 4.61m-225.532-56.258c0 1.139.822 2.411 2.968 2.411 2.756 0 5.644-2.253 5.644-4.585 0-1.562-1.325-2.437-2.968-2.437-2.57 0-5.644 2.172-5.644 4.61m-150.859-9.928c0 1.14.822 2.412 2.968 2.412 2.755 0 5.644-2.252 5.644-4.584 0-1.564-1.325-2.438-2.968-2.438-2.57 0-5.644 2.173-5.644 4.61m138.45 3.31c0 1.14.822 2.411 2.968 2.411 2.757 0 5.645-2.253 5.645-4.584 0-1.563-1.325-2.438-2.968-2.438-2.57 0-5.644 2.173-5.644 4.61M71.725 33.89c0 1.139.821 2.41 2.968 2.41 2.756 0 5.644-2.252 5.644-4.584 0-1.563-1.325-2.438-2.967-2.438-2.57 0-5.645 2.173-5.645 4.612m227.152 56.258c0 1.14.822 2.411 2.969 2.411 2.755 0 5.644-2.252 5.644-4.584 0-1.563-1.325-2.437-2.968-2.437-2.57 0-5.645 2.172-5.645 4.61m-113.633 6.619c0 1.14.821 2.411 2.967 2.411 2.756 0 5.644-2.253 5.644-4.584 0-1.563-1.325-2.438-2.968-2.438-2.57 0-5.643 2.173-5.643 4.61m101.226 0c0 1.14.821 2.412 2.967 2.412 2.756 0 5.644-2.253 5.644-4.584 0-1.563-1.325-2.438-2.968-2.438-2.57 0-5.643 2.173-5.643 4.61m-88.819 3.31c0 1.14.822 2.412 2.969 2.412 2.755 0 5.644-2.253 5.644-4.584 0-1.564-1.325-2.439-2.968-2.439-2.57 0-5.645 2.174-5.645 4.611m375.912 62.878c0 1.139.822 2.411 2.968 2.411 2.756 0 5.644-2.252 5.644-4.584 0-1.563-1.325-2.438-2.968-2.438-2.57 0-5.644 2.173-5.644 4.61M274.061 90.148c0 1.14.822 2.411 2.968 2.411 2.755 0 5.644-2.252 5.644-4.584 0-1.563-1.325-2.437-2.968-2.437-2.57 0-5.644 2.172-5.644 4.61m-64.001 13.238c0 1.139.821 2.411 2.967 2.411 2.757 0 5.645-2.253 5.645-4.585 0-1.562-1.325-2.437-2.968-2.437-2.57 0-5.644 2.172-5.644 4.61m12.408 0c0 1.14.822 2.412 2.968 2.412 2.756 0 5.644-2.253 5.644-4.585 0-1.562-1.325-2.437-2.968-2.437-2.57 0-5.644 2.172-5.644 4.61m435.127 6.619c0 1.14.822 2.411 2.968 2.411 2.756 0 5.644-2.252 5.644-4.584 0-1.563-1.324-2.437-2.967-2.437-2.57 0-5.645 2.172-5.645 4.61m-385.616 56.26c0 1.138.821 2.41 2.968 2.41 2.756 0 5.644-2.252 5.644-4.583 0-1.564-1.325-2.438-2.967-2.438-2.571 0-5.645 2.173-5.645 4.61m325.922-3.31c0 1.14.822 2.412 2.968 2.412 2.756 0 5.644-2.252 5.644-4.584 0-1.563-1.325-2.438-2.967-2.438-2.57 0-5.645 2.173-5.645 4.61M246.063 110.52a.35.35 0 0 0 .344.344c.132 0 .291-.106.318-.212 0-.027.238-.954.265-1.033.026-.107.264-1.114 1.218-2.677 1.034-1.722 2.624-2.968 3.949-4.823 1.298-1.855 2.093-3.603 2.093-5.935 0-2.411-.556-4.425-1.96-6.996-.08-.185-.239-.291-.399-.291-.053 0-.105 0-.131.026-.133.054-.187.16-.187.319 0 .079.027.211.08.318 1.06 2.464 1.484 3.868 1.484 5.776 0 2.2-.768 3.339-1.246 4.16-1.722 2.941-4.504 4.373-5.617 4.743-.186.08-.212.212-.212.292v5.988m20.44-81.079a.35.35 0 0 0 .344.345c.133 0 .292-.106.319-.212 0-.026.238-.954.264-1.034.027-.105.265-1.112 1.219-2.676 1.034-1.723 2.623-2.968 3.948-4.823 1.299-1.854 2.094-3.603 2.094-5.935 0-2.411-.557-4.425-1.96-6.996-.08-.185-.24-.291-.4-.291-.052 0-.105 0-.13.026-.134.053-.187.16-.187.318a.8.8 0 0 0 .08.318c1.06 2.465 1.484 3.87 1.484 5.777 0 2.2-.769 3.339-1.246 4.16-1.722 2.941-4.505 4.372-5.618 4.743-.186.08-.212.213-.212.292zm49.415 125.178c0 .08.026.213.211.292 1.14.371 3.418 1.802 5.141 4.743.477.822 1.246 1.962 1.246 4.16 0 1.909-.504 3.87-1.193 5.778-.053.158-.106.291-.08.397 0 .159.107.264.265.264.185 0 .318-.105.424-.291 1.192-2.12 1.643-4.584 1.643-6.996-.133-3.418-2.093-5.936-2.093-5.936.079 0-2.439-3.259-3.154-4.371-.98-1.511-1.431-3.022-1.484-3.127-.026-.08-.264-1.034-.264-1.034-.027-.106-.16-.213-.318-.213a.35.35 0 0 0-.344.345zM167.868 178.36a.35.35 0 0 0 .345.344c.131 0 .291-.106.317-.211 0-.027.239-.955.265-1.034.026-.107.264-1.114 1.22-2.676 1.032-1.723 2.622-2.969 3.947-4.824 1.298-1.854 2.093-3.603 2.093-5.935 0-2.411-.556-4.425-1.96-6.995-.08-.186-.239-.292-.399-.292-.053 0-.106 0-.132.027-.132.053-.186.16-.186.318 0 .08.027.212.08.318 1.06 2.464 1.484 3.87 1.484 5.777 0 2.199-.769 3.338-1.246 4.16-1.722 2.942-4.505 4.372-5.617 4.743-.185.08-.213.212-.213.291v5.99M463.214 39.366a.35.35 0 0 0 .345.345c.131 0 .291-.106.317-.212 0-.027.239-.954.265-1.033.026-.107.264-1.114 1.218-2.677 1.034-1.722 2.624-2.968 3.949-4.823 1.298-1.855 2.093-3.603 2.093-5.935 0-2.411-.556-4.425-1.96-6.996-.08-.185-.239-.291-.399-.291-.053 0-.106 0-.132.027-.132.053-.186.159-.186.318a.8.8 0 0 0 .08.318c1.06 2.464 1.484 3.868 1.484 5.776 0 2.2-.769 3.339-1.246 4.16-1.722 2.941-4.505 4.373-5.617 4.743-.186.08-.213.212-.213.292v5.989M79.668 15.625c0 .08.026.212.211.291 1.14.371 3.419 1.802 5.142 4.744.477.821 1.244 1.96 1.244 4.16 0 1.908-.502 3.868-1.192 5.777-.052.158-.105.291-.079.397 0 .16.106.265.265.265.185 0 .318-.106.424-.292 1.192-2.12 1.642-4.584 1.642-6.995-.132-3.418-2.092-5.936-2.092-5.936.079 0-2.439-3.259-3.154-4.372-.98-1.51-1.431-3.02-1.484-3.127-.026-.08-.265-1.033-.265-1.033-.026-.106-.16-.212-.318-.212a.35.35 0 0 0-.344.344zm585.87 76.115c0 .08.027.212.211.291 1.14.371 3.419 1.802 5.141 4.744.477.821 1.245 1.96 1.245 4.16 0 1.908-.502 3.868-1.192 5.776-.052.16-.105.291-.079.398 0 .158.106.265.265.265.185 0 .317-.107.423-.291 1.193-2.12 1.643-4.585 1.643-6.996-.132-3.419-2.093-5.936-2.093-5.936.08 0-2.438-3.259-3.153-4.372-.981-1.51-1.432-3.02-1.485-3.126-.026-.08-.264-1.034-.264-1.034-.026-.106-.159-.212-.318-.212a.35.35 0 0 0-.344.344zM563.416 10.66c0 .08.026.212.212.291 1.14.371 3.418 1.802 5.14 4.744.477.82 1.246 1.96 1.246 4.16 0 1.908-.504 3.869-1.192 5.776-.054.159-.107.292-.08.398 0 .159.106.265.264.265.186 0 .32-.106.425-.292 1.192-2.12 1.642-4.584 1.642-6.995-.131-3.418-2.093-5.936-2.093-5.936.08 0-2.438-3.259-3.153-4.372-.98-1.51-1.43-3.02-1.484-3.127a64 64 0 0 1-.264-1.033c-.027-.106-.16-.212-.318-.212a.35.35 0 0 0-.345.344zm-7.047 98.203a.35.35 0 0 0 .346.344c.131 0 .291-.106.317-.211 0-.027.239-.955.265-1.034.026-.106.264-1.113 1.218-2.676 1.034-1.723 2.624-2.968 3.949-4.823 1.298-1.855 2.093-3.604 2.093-5.936 0-2.41-.556-4.425-1.96-6.995-.08-.185-.239-.292-.399-.292-.053 0-.106 0-.132.027-.132.053-.186.159-.186.318 0 .08.027.212.08.318 1.06 2.464 1.484 3.869 1.484 5.777 0 2.199-.769 3.338-1.246 4.16-1.722 2.941-4.505 4.372-5.617 4.743-.186.08-.213.212-.213.29zm109.17-83.31c0 .078.027.21.211.29 1.14.371 3.419 1.803 5.141 4.744.477.821 1.245 1.96 1.245 4.16 0 1.908-.502 3.869-1.192 5.776-.052.16-.105.292-.079.398 0 .159.106.265.265.265.185 0 .317-.106.423-.291 1.193-2.12 1.643-4.585 1.643-6.996-.132-3.419-2.093-5.936-2.093-5.936.08 0-2.438-3.26-3.153-4.372-.981-1.51-1.432-3.02-1.485-3.127-.026-.08-.264-1.033-.264-1.033-.026-.106-.159-.212-.318-.212a.35.35 0 0 0-.344.344zm-217.023 83.31a.35.35 0 0 0 .344.344c.132 0 .291-.106.317-.211 0-.028.239-.955.265-1.034.027-.106.264-1.113 1.219-2.676 1.034-1.723 2.623-2.968 3.948-4.823 1.299-1.855 2.094-3.604 2.094-5.936 0-2.41-.556-4.425-1.962-6.995-.079-.185-.237-.292-.397-.292-.053 0-.106 0-.133.027-.131.053-.185.159-.185.318 0 .08.027.212.08.318 1.06 2.464 1.484 3.869 1.484 5.777 0 2.199-.769 3.338-1.246 4.16-1.723 2.941-4.505 4.372-5.617 4.743-.186.08-.213.212-.213.29v5.99m-101.224-6.62a.35.35 0 0 0 .344.346c.132 0 .291-.107.317-.212 0-.027.239-.955.265-1.034.027-.105.264-1.113 1.22-2.676 1.033-1.723 2.622-2.968 3.947-4.822 1.299-1.855 2.094-3.605 2.094-5.937 0-2.41-.556-4.424-1.962-6.995-.079-.185-.237-.291-.397-.291-.053 0-.106 0-.133.026-.131.053-.185.159-.185.318 0 .08.027.212.08.318 1.06 2.465 1.484 3.869 1.484 5.777 0 2.199-.769 3.339-1.246 4.16-1.723 2.941-4.505 4.372-5.617 4.743-.186.08-.213.212-.213.292v5.988m-31.371 46.41v22.054h.661v-22.053ZM79.668 9.664v22.054h.662V9.663Zm493.895 153.289v17.067h.662v-17.067ZM331.637 79.106v22.107h.661V79.106Zm-186.8 11.04v20.428h.66V90.146Zm202.451-9.928v22.027h.662V80.218Zm-214.86 3.31v28.13h.662v-28.13Zm-29.025-59.569v20.4h.662v-20.4Zm16.617 66.187v22.596h.662V90.146Zm429.206 69.497v18.736h.661v-18.736Zm-173.94-79.425v25.363h.662V80.218ZM107.613 96.765v17.06h.662v-17.06Zm280.083-9.928v18.744h.662V86.837Zm-286.37-12.651v17.099h.661v-17.1Zm298.779 6.032v25.363h.661V80.218ZM88.916 75.812v22.091h.662V75.812Zm323.596 11.025v18.744h.662V86.837Zm-336.005-9.4v17.157h.662V77.437ZM424.92 93.456V112.2h.661V93.456Zm-113.634 3.309v17.09h.662v-17.09ZM64.099 79.063v22.15h.662v-22.15Zm384.415 7.774v22.027h.662V86.837Zm76.374 69.496v20.406h.662v-20.406ZM114.325 27.27v17.09h.662v-17.09ZM500.55 153.024V175.1h.661v-22.076ZM125.247 23.959v20.4h.662v-20.4Zm10.922-3.31v23.71h.661v-23.71Zm529.369-1.058v22.053h.662V19.591ZM193.185 75.81v18.783h.662V75.812zm283.328 7.716v31.982h.661V83.527ZM147.09 17.34v22.054h.662V17.34Zm341.83 82.735v15.434h.662v-15.434Zm156.043-87.156v22.106h.661V12.92ZM501.329 90.146v25.363h.662V90.146ZM627.86 6.284v25.433h.662V6.284ZM513.737 96.765v18.744h.662V96.765Zm103.2-91.022v22.664h.662V5.743Zm-76.22 73.363v22.107h.662V79.106Zm65.299-73.903v19.895h.661V5.203Zm-133.86 144.511v23.718h.662v-23.718ZM298.877 90.146v23.708h.662V90.146ZM595.094 4.662v17.126h.661V4.662ZM163.32 20.65V39.44h.662V20.65Zm289.906 125.755v27.572h.662v-27.572ZM556.37 86.837v22.027h.661V86.837Zm7.046-82.138v20.399h.662v-20.4ZM205.594 77.437v20.466h.661V77.437Zm228.703 72.277v24.808h.662v-24.808ZM174.243 23.96v17.042h.661V23.96ZM542.842 4.646v20.452h.662V4.646Zm49.468 66.23v17.1h.662v-17.1ZM523.978 23.96v17.074h.662V23.959Zm80.74 48.543v18.783h.662V72.502ZM513.057 20.65V40.49h.662V20.65Zm104.07 53.478v20.466h.662V74.128ZM502.133 17.34v22.611h.662v-22.61Zm127.402 58.413v22.15h.662v-22.15Zm12.408.044v22.106h.662V75.797ZM491.211 14.031v25.38h.662V14.03Zm-75.843 142.302v18.735h.662v-18.735ZM202.241 17.34v18.728h.662V17.34Zm84.228 79.425v17.09h.662v-17.09Zm311.432 66.187v18.744h.662v-18.744ZM246.062 90.146v20.373h.662V90.146Zm-28.06-11.083v22.15h.662v-22.15Zm178.438 73.96v22.083h.661v-22.082Zm46.2-132.373v20.399h.662v-20.4Zm-65.13 138.993v17.098h.661v-17.098ZM431.718 17.34v23.742h.662V17.34ZM64.098 143.64v23.76h.663v-23.76Zm356.698-122.99v21.514h.662V20.65zM83.028 143.64v20.451h.662V143.64Zm326.846-119.68v19.285h.662V23.959ZM101.957 143.64v17.142h.662v-17.142zm18.93 0v23.76h.662v-23.76Zm278.065-116.37v17.056h.662V27.27ZM213.162 14.03v21.496h.663V14.031Zm145.419 142.302v22.044h.661v-22.044zm-226.707-3.31v22.054h.661v-22.053ZM370.954 23.96v17.074h.662V23.959ZM274.06 90.146v23.708h.662V90.146Zm85.972-69.496V40.49h.662V20.65ZM167.868 156.333v22.027h.662v-22.027ZM349.11 17.34v22.611h.662v-22.61Zm-125.025-6.618v24.265h.661V10.722Zm115.566 152.23v17.06h.662v-17.06Zm-1.463-148.92V39.41h.662V14.03ZM196.262 156.332v28.672h.662v-28.672ZM327.267 17.34v18.728h.661V17.34ZM215.192 169.57v15.435h.661v-15.434ZM316.344 10.723v24.805h.662V10.722Zm-82.224 148.92v25.363h.662v-25.362Zm71.302-152.23v27.575h.662V7.412Zm-52.373 155.54v22.053h.662v-22.053zm26.872-19.313v20.451h.662V143.64Zm14.58-132.917v23.725h.66V10.722Zm-59.494-3.31v27.035h.661V7.412Zm10.921 3.31v22.053h.662V10.722Zm217.286 6.618v22.028h.662V17.34ZM266.503 7.412V29.44h.661V7.412Zm399.035 78.366v22.053h.662V85.778Zm-484.76-11.592v17.099h.661v-17.1Zm49.633 4.92v22.107h.661V79.106Zm425-36.932v1.059h12.974v-1.06ZM526.727 100.31l2.358-.477v4.372l-2.358.504zm4.106-.82c.16-.027.292-.213.292-.371v-1.564a.363.363 0 0 0-.371-.371h-.053l-.874.185v-3.948h-.742v4.108l-2.359.476V94.27h-.742v3.895l-1.034.213c-.159.026-.292.212-.292.37v1.537c0 .212.16.37.372.37h.079l.874-.184v4.372l-1.034.212c-.16.026-.292.212-.292.37v1.538c0 .212.159.371.371.371h.08l.874-.185v3.948h.742v-4.108l2.358-.477v3.737h.743v-3.895l1.006-.186c.16-.027.292-.212.292-.37v-1.564a.363.363 0 0 0-.371-.372h-.053l-.874.186v-4.372l1.007-.186m100.75-60.834V34.31l3.073-.875v4.372zm3.656-7.42a.3.3 0 0 0-.21-.079c-.027 0-.08.027-.107.027l-3.338.927v-4.637h-.743v13.116c0 .212.16.345.372.345h.106l3.338-.928v4.638h.716V31.527c0-.106-.052-.239-.132-.291m-57.552-21.99v27.203h1.191V9.246Zm-2.784 69.496v27.203h1.19V78.742ZM192.776 9.246v27.203h1.191V9.246Zm288.971 0v27.203h1.191V9.246ZM679.81 78.742v27.203H681V78.742ZM389.488 9.246v27.203h1.191V9.246Zm-202.69 138.993v27.202h1.19V148.24zm143.389 0v27.202h1.19V148.24zm160.898 0v27.202h1.192V148.24ZM679.81 9.246v27.203H681V9.246Zm-212.76 69.496v27.203h1.19V78.742Zm-101.227 0v27.203h1.191V78.742ZM93.94 9.246v27.203h1.19V9.246Zm69.431 69.496v27.203h1.191V78.742Zm513.99 69.497v27.202H681V148.24zm-3.64 0v27.202h1.191V148.24zm-2.447 16.91c0-.768-.61-1.405-1.378-1.405-.769 0-1.378.637-1.378 1.405 0 .769.61 1.405 1.378 1.405s1.378-.636 1.378-1.405m0-6.619c0-.768-.61-1.404-1.378-1.404-.769 0-1.378.636-1.378 1.404 0 .769.61 1.405 1.378 1.405s1.378-.636 1.378-1.405M264.596 78.742v27.203h1.191V78.742Zm20.44-69.496v27.203h1.191V9.246ZM0 174.713v.728h681v-.728zm0-6.618v.728h681v-.728zm0-6.619v.728h681v-.728zm0-6.619v.728h681v-.728zm0-6.619v.728h681v-.728zm0-43.021v.728h681v-.728zm0-6.618v.727h681V98.6zm0-6.62v.729h681v-.728zm0-6.618v.728h681v-.728zm0-6.619v.728h681v-.728Zm0-43.021v.727h681v-.727zm0-6.619v.728h681v-.728zm0-6.619v.728h681v-.728zm0-6.618v.727h681v-.727Zm0-6.619v.728h681v-.728Z"/>
</svg>
