<?xml version="1.0" encoding="utf-8"?>
<svg xmlns="http://www.w3.org/2000/svg" xmlns:svg="http://www.w3.org/2000/svg" version="1.1" viewBox="0 0 681 186">
	<title>A score 3 staves long in 3/2 time, in the key of G Minor.</title>
	<path d="M583.478 165.038c0 .741.583 1.323 1.324 1.323a1.31 1.31 0 0 0 1.324-1.323c0-.742-.583-1.325-1.324-1.325s-1.324.583-1.324 1.325M482.436 88.974a1.31 1.31 0 0 0 1.324 1.324c.741 0 1.324-.583 1.324-1.324s-.583-1.324-1.324-1.324a1.31 1.31 0 0 0-1.324 1.324m-365.9-69.45c0 .742.581 1.325 1.323 1.325s1.324-.583 1.324-1.324-.582-1.324-1.324-1.324-1.324.582-1.324 1.324m147.624 76.063c0 .741.582 1.324 1.324 1.324s1.324-.583 1.324-1.324-.582-1.324-1.324-1.324a1.31 1.31 0 0 0-1.324 1.324m-162.098-6.614c0 .741.584 1.324 1.324 1.324a1.31 1.31 0 0 0 1.324-1.324 1.31 1.31 0 0 0-1.324-1.324c-.74 0-1.324.582-1.324 1.324m-34.036 6.614c0 .741.583 1.324 1.324 1.324s1.324-.583 1.324-1.324a1.31 1.31 0 0 0-1.324-1.324 1.31 1.31 0 0 0-1.324 1.324m0 56.22c0 .742.583 1.325 1.324 1.325s1.324-.583 1.324-1.324-.582-1.324-1.324-1.324c-.741 0-1.324.582-1.324 1.324m418.612-125.67c0 .74.583 1.324 1.324 1.324s1.324-.583 1.324-1.324a1.31 1.31 0 0 0-1.324-1.324 1.31 1.31 0 0 0-1.324 1.324M338.075 158.423c0 .742.583 1.324 1.325 1.324.74 0 1.324-.582 1.324-1.324s-.584-1.324-1.324-1.324c-.742 0-1.324.582-1.324 1.324m43.931 0c0 .742.582 1.324 1.324 1.324a1.31 1.31 0 0 0 1.324-1.324 1.31 1.31 0 0 0-1.324-1.324c-.742 0-1.324.582-1.324 1.324M283.774 26.14c0 .74.583 1.324 1.324 1.324s1.324-.583 1.324-1.324-.583-1.324-1.324-1.324-1.324.583-1.324 1.324m35.624-6.614c0 .741.583 1.324 1.324 1.324s1.324-.583 1.324-1.324-.583-1.324-1.324-1.324-1.324.582-1.324 1.324m1.678 54.553 12.595-1.654v3.335l-12.595 1.654zm218.277-1.654 12.594 1.654v3.335l-12.594-1.654zm-396.71 71.109 16.064-1.654v3.324l-16.064 1.654zM54.856 30.32c-.212.582-.741 2.489-2.038 2.489-1.722 0-2.092-1.06-3.523-1.06-.212 0-.423.028-.688.08 0 0 .662-1.006 3.47-1.88 2.806-.874 3.52-2.25 3.52-3.84 0-1.112-.502-3.31-4.5-3.31-4 0-4.74 2.41-4.74 3.628 0 1.086.9 1.96 1.986 1.96s1.959-.874 1.959-1.96c0-.74-.53-1.562-1.219-1.827-.079-.027-.184-.159-.184-.291 0-.159.132-.345.608-.477.133-.053.504-.132.9-.132 1.51 0 1.801.927 1.801 2.277 0 3.098-3.68 3.76-5.216 6.064 0 0-.794 1.112-.794 2.356 0 1.245.635 1.324.953 1.324.424 0 .873-.344.873-.82a.9.9 0 0 0-.079-.344c-.158-.37-.212-.662-.212-.874 0-.08 0-.16.026-.238.028-.16.239-.424.875-.424.768 0 1.06.9 1.536 1.588.476.69 1.217 1.112 2.065 1.112s1.986-.608 2.463-1.588c.476-.98 1.085-2.966 1.085-3.68 0-.345-.212-.504-.45-.504-.186 0-.37.106-.477.37m-1.682-14.368c2.118-.821 2.251-2.198 2.251-2.675v-.132c0-.238-.08-3.23-4.634-3.23s-4.422 3.23-4.422 3.23h.026l-.026.053c0 .953.768 1.695 1.72 1.695.954 0 1.696-.742 1.696-1.695 0-.768-.583-1.51-1.324-1.668l.08-.08c.37-.265.873-.397 1.376-.397 1.112 0 2.304.662 2.304 2.092 0 1.668-1.245 1.906-1.562 1.96-.318.052-1.801.158-2.119.158-.317 0-.344.371-.344.371v.53s.053.29.344.317c.45.027 1.06.027 1.907.16 1.164.158 1.774.953 1.774 2.806 0 1.774-1.192 2.251-2.304 2.251-.742 0-1.43-.212-1.72-.424.873-.053 1.588-.82 1.588-1.694 0-.954-.742-1.722-1.695-1.722s-1.72.768-1.72 1.722c0 2.17 1.985 3.257 3.945 3.257 2.541 0 5.296-.874 5.296-3.76 0-1.934-1.324-2.755-2.49-3.125zm-15.467-4.1c0 2.091-1.086 3.203-2.622 4.421l.08-5.163c.052-.239.45-1.007 1.509-1.007.953 0 1.033.9 1.033 1.457zm-.319-3.045c-1.324 0-2.091.82-2.224.98l.106-8.5a.36.36 0 0 0-.37-.371h-.318a.36.36 0 0 0-.371.37l.132 15.915c0 .212.16.37.37.37a.6.6 0 0 0 .213-.052c2.277-1.139 4.66-3.31 4.66-6.038 0-1.377-.635-2.674-2.198-2.674m-7.037 12.967c0 2.092-1.085 3.204-2.621 4.422l.079-5.164c.053-.238.45-1.006 1.51-1.006.953 0 1.032.9 1.032 1.456zm-.317-3.046c-1.324 0-2.092.821-2.225.98l.106-8.5c0-.212-.159-.37-.37-.37h-.318a.36.36 0 0 0-.37.37l.131 15.915c0 .212.16.37.371.37a.6.6 0 0 0 .212-.053c2.277-1.138 4.66-3.31 4.66-6.037 0-1.377-.635-2.675-2.197-2.675M37.707 81.3c0 2.092-1.086 3.204-2.622 4.423l.08-5.164c.052-.238.45-1.006 1.509-1.006.953 0 1.033.9 1.033 1.456zm-.319-3.045c-1.324 0-2.091.821-2.224.98l.106-8.5a.36.36 0 0 0-.37-.37h-.318a.36.36 0 0 0-.371.37l.132 15.914c0 .212.16.371.37.371.054 0 .16-.026.213-.053 2.277-1.139 4.66-3.31 4.66-6.037 0-1.377-.635-2.675-2.198-2.675m-7.037 12.967c0 2.092-1.085 3.204-2.621 4.422l.079-5.164c.053-.238.45-1.006 1.51-1.006.953 0 1.032.9 1.032 1.457zm-.317-3.045c-1.324 0-2.092.821-2.225.98l.106-8.5c0-.212-.159-.37-.37-.37h-.318a.36.36 0 0 0-.37.37l.131 15.915c0 .212.16.37.371.37a.6.6 0 0 0 .212-.053c2.277-1.138 4.66-3.31 4.66-6.037 0-1.377-.635-2.675-2.197-2.675m7.673 62.573c0 2.092-1.086 3.204-2.622 4.423l.08-5.164c.052-.238.45-1.006 1.509-1.006.953 0 1.033.9 1.033 1.456zm-.319-3.044c-1.324 0-2.091.82-2.224.979l.106-8.5a.36.36 0 0 0-.37-.37h-.318a.36.36 0 0 0-.371.37l.132 15.914c0 .212.16.371.37.371.054 0 .16-.026.213-.052 2.277-1.14 4.66-3.31 4.66-6.038 0-1.377-.635-2.674-2.198-2.674m-7.037 12.966c0 2.092-1.085 3.204-2.621 4.423l.079-5.164c.053-.239.45-1.007 1.51-1.007.953 0 1.032.901 1.032 1.457zm-.317-3.045c-1.324 0-2.092.82-2.225.98l.106-8.5c0-.212-.159-.37-.37-.37h-.318a.36.36 0 0 0-.37.37l.131 15.914c0 .212.16.37.371.37a.6.6 0 0 0 .212-.052c2.277-1.139 4.66-3.31 4.66-6.038 0-1.377-.635-2.674-2.197-2.674M16.082 34.9c-.53.106-1.032.159-1.535.159-3.787 0-7.018-2.648-7.018-6.646 0-3.232 2.278-6.118 4.608-8.13.45-.397.874-.768 1.27-1.165.24 1.43.425 2.674.61 3.76-2.41.714-4.052 3.257-4.052 5.746 0 1.853 1.457 4.396 3.575 4.396.212 0 .45-.106.45-.344 0-.239-.264-.371-.582-.583-1.033-.636-1.615-1.324-1.615-2.621 0-1.615 1.191-2.913 2.754-3.284zm-2.33-27.222c.238-1.059 1.457-3.84 2.834-3.84.397 0 1.032 1.298 1.032 3.125 0 2.754-2.039 4.82-3.866 6.62-.159-1.059-.291-2.092-.291-3.204 0-.98.08-1.88.291-2.7m6.09 22.322c0 1.88-.767 3.813-2.647 4.581a881 881 0 0 1-1.457-8.553c2.383 0 4.105 1.616 4.105 3.972M8.19 43.03c0 1.748 1.35 4.052 4.926 4.052 1.244 0 2.33-.318 3.283-.9 1.43-1.007 1.8-2.755 1.8-4.423 0-1.033-.158-2.224-.423-3.733-.08-.53-.238-1.324-.397-2.357 2.595-.847 4.528-3.548 4.528-6.276 0-3.999-2.833-6.7-6.7-6.7-.264-1.588-.529-3.15-.767-4.634 2.807-2.939 4.74-6.249 4.74-10.46 0-2.409-.742-4.368-1.166-5.322C17.38.927 16.612 0 16.135 0c-.185 0-1.006.318-1.88 1.35-1.694 2.013-2.171 5.402-2.171 7.627 0 1.43.132 2.727.582 5.693-.026.026-1.403 1.43-1.96 1.88-2.409 2.25-5.745 5.455-5.745 10.75 0 4.953 4.316 8.846 9.241 8.846.768 0 1.483-.08 2.092-.186.503 2.542.795 4.396.795 5.8 0 2.753-1.404 4.21-4.078 4.21-.636 0-1.192-.133-1.245-.133-.026-.027-.08-.053-.08-.08 0-.052.054-.079.133-.105 1.245-.186 2.49-1.245 2.49-2.94 0-1.43-1.086-2.938-3.072-2.938-1.854 0-3.046 1.508-3.046 3.256m7.891 61.32c-.53.106-1.032.16-1.535.16-3.787 0-7.018-2.649-7.018-6.647 0-3.231 2.278-6.117 4.608-8.13.45-.398.874-.768 1.27-1.165.24 1.43.425 2.675.61 3.76-2.41.715-4.052 3.257-4.052 5.746 0 1.854 1.457 4.396 3.575 4.396.212 0 .45-.106.45-.344s-.264-.371-.582-.582c-1.033-.636-1.615-1.324-1.615-2.622 0-1.615 1.191-2.913 2.754-3.284zm-2.33-27.222c.238-1.059 1.457-3.839 2.834-3.839.397 0 1.032 1.298 1.032 3.125 0 2.753-2.039 4.819-3.866 6.62-.159-1.06-.291-2.092-.291-3.204 0-.98.08-1.881.291-2.702m6.09 22.324c0 1.88-.767 3.812-2.647 4.58a881 881 0 0 1-1.457-8.552c2.383 0 4.105 1.615 4.105 3.972M8.19 112.48c0 1.747 1.35 4.05 4.926 4.05 1.244 0 2.33-.317 3.283-.9 1.43-1.006 1.8-2.754 1.8-4.422 0-1.032-.158-2.224-.423-3.733-.08-.53-.238-1.324-.397-2.357 2.595-.847 4.528-3.548 4.528-6.276 0-3.998-2.833-6.7-6.7-6.7-.264-1.588-.529-3.15-.767-4.633 2.807-2.94 4.74-6.25 4.74-10.46 0-2.41-.742-4.369-1.166-5.322-.635-1.35-1.403-2.278-1.88-2.278-.185 0-1.006.318-1.88 1.35-1.694 2.013-2.171 5.403-2.171 7.627 0 1.43.132 2.728.582 5.693-.026.027-1.403 1.43-1.96 1.88-2.409 2.25-5.745 5.455-5.745 10.75 0 4.953 4.316 8.846 9.241 8.846.768 0 1.483-.08 2.092-.186.503 2.543.795 4.396.795 5.8 0 2.753-1.404 4.21-4.078 4.21-.636 0-1.192-.133-1.245-.133-.026-.026-.08-.053-.08-.08 0-.052.054-.078.133-.105 1.245-.185 2.49-1.245 2.49-2.939 0-1.43-1.086-2.94-3.072-2.94-1.854 0-3.046 1.51-3.046 3.258m7.891 61.32c-.53.106-1.032.158-1.535.158-3.787 0-7.018-2.648-7.018-6.646 0-3.231 2.278-6.117 4.608-8.13.45-.397.874-.768 1.27-1.165.24 1.43.425 2.675.61 3.76-2.41.715-4.052 3.257-4.052 5.746 0 1.854 1.457 4.396 3.575 4.396.212 0 .45-.105.45-.344 0-.238-.264-.371-.582-.582-1.033-.636-1.615-1.324-1.615-2.622 0-1.615 1.191-2.913 2.754-3.284zm-2.33-27.222c.238-1.059 1.457-3.839 2.834-3.839.397 0 1.032 1.298 1.032 3.125 0 2.754-2.039 4.82-3.866 6.62-.159-1.06-.291-2.092-.291-3.204 0-.98.08-1.88.291-2.702m6.09 22.324c0 1.88-.767 3.813-2.647 4.58a881 881 0 0 1-1.457-8.552c2.383 0 4.105 1.615 4.105 3.972M8.19 181.929c0 1.747 1.35 4.051 4.926 4.051 1.244 0 2.33-.318 3.283-.9 1.43-1.006 1.8-2.754 1.8-4.422 0-1.033-.158-2.224-.423-3.734-.08-.53-.238-1.324-.397-2.357 2.595-.847 4.528-3.548 4.528-6.276 0-3.998-2.833-6.7-6.7-6.7-.264-1.588-.529-3.15-.767-4.633 2.807-2.94 4.74-6.25 4.74-10.46 0-2.41-.742-4.369-1.166-5.322-.635-1.35-1.403-2.278-1.88-2.278-.185 0-1.006.319-1.88 1.35-1.694 2.013-2.171 5.403-2.171 7.627 0 1.43.132 2.728.582 5.694-.026.026-1.403 1.43-1.96 1.88-2.409 2.25-5.745 5.454-5.745 10.75 0 4.952 4.316 8.845 9.241 8.845.768 0 1.483-.08 2.092-.186.503 2.543.795 4.396.795 5.8 0 2.753-1.404 4.21-4.078 4.21-.636 0-1.192-.133-1.245-.133-.026-.026-.08-.053-.08-.079 0-.053.054-.08.133-.106 1.245-.185 2.49-1.244 2.49-2.939 0-1.43-1.086-2.939-3.072-2.939-1.854 0-3.046 1.509-3.046 3.257m398.56-91.843c0 1.138.82 2.41 2.966 2.41 2.753 0 5.64-2.25 5.64-4.581 0-1.563-1.324-2.436-2.966-2.436-2.569 0-5.64 2.17-5.64 4.607m16.74 76.064c0 1.138.82 2.41 2.966 2.41 2.753 0 5.64-2.251 5.64-4.582 0-1.562-1.324-2.436-2.966-2.436-2.569 0-5.64 2.171-5.64 4.607m-51.405-2.142a.99.99 0 0 1-1.06-.953c0-1.297 4.45-3.575 5.695-3.575.635 0 1.059.371 1.059.954 0 1.324-4.475 3.574-5.694 3.574m3.655-5.772c-2.568 0-5.64 2.145-5.64 4.607 0 1.139.82 2.41 2.965 2.41 2.755 0 5.64-2.25 5.64-4.58 0-1.563-1.324-2.437-2.965-2.437M352.574 27.251c0 1.139.82 2.41 2.966 2.41 2.754 0 5.64-2.251 5.64-4.581 0-1.563-1.324-2.437-2.966-2.437-2.568 0-5.64 2.172-5.64 4.608m-78.72 4.472a.99.99 0 0 1-1.06-.953c0-1.297 4.45-3.575 5.693-3.575.636 0 1.06.37 1.06.954 0 1.324-4.476 3.574-5.693 3.574m3.654-5.773c-2.569 0-5.64 2.145-5.64 4.608 0 1.139.82 2.41 2.965 2.41 2.754 0 5.64-2.251 5.64-4.58 0-1.563-1.323-2.438-2.965-2.438m50.647 134.75a.99.99 0 0 1-1.06-.953c0-1.298 4.45-3.575 5.693-3.575.636 0 1.06.371 1.06.953 0 1.324-4.476 3.576-5.693 3.576m3.654-5.773c-2.569 0-5.64 2.145-5.64 4.607 0 1.138.82 2.41 2.966 2.41 2.753 0 5.64-2.25 5.64-4.581 0-1.563-1.324-2.436-2.966-2.436m39.5-130.984c0 1.138.82 2.41 2.966 2.41 2.754 0 5.64-2.25 5.64-4.581 0-1.563-1.324-2.437-2.966-2.437-2.568 0-5.64 2.172-5.64 4.608m18.735 6.614c0 1.139.82 2.41 2.965 2.41 2.754 0 5.64-2.251 5.64-4.58 0-1.563-1.324-2.438-2.965-2.438-2.569 0-5.64 2.172-5.64 4.608m19.024 3.308c0 1.138.82 2.41 2.966 2.41 2.754 0 5.64-2.252 5.64-4.582 0-1.563-1.324-2.436-2.966-2.436-2.568 0-5.64 2.17-5.64 4.608M293.606 166.15c0 1.138.821 2.41 2.966 2.41 2.754 0 5.64-2.251 5.64-4.582 0-1.562-1.324-2.436-2.966-2.436-2.568 0-5.64 2.171-5.64 4.607M427.802 37.172c0 1.14.821 2.41 2.966 2.41 2.754 0 5.64-2.25 5.64-4.581 0-1.563-1.323-2.436-2.965-2.436-2.569 0-5.64 2.171-5.64 4.607m-157.3 125.67c0 1.139.82 2.41 2.966 2.41 2.753 0 5.64-2.25 5.64-4.58 0-1.563-1.324-2.437-2.966-2.437-2.569 0-5.64 2.171-5.64 4.607M446.537 33.866c0 1.138.82 2.41 2.965 2.41 2.754 0 5.64-2.252 5.64-4.582 0-1.563-1.324-2.436-2.965-2.436-2.57 0-5.64 2.17-5.64 4.608m-199.139 125.67c0 1.137.82 2.409 2.966 2.409 2.754 0 5.64-2.25 5.64-4.581 0-1.563-1.324-2.436-2.966-2.436-2.568 0-5.64 2.171-5.64 4.607M476.716 31.723a.99.99 0 0 1-1.059-.953c0-1.297 4.449-3.575 5.694-3.575.635 0 1.059.37 1.059.954 0 1.324-4.475 3.574-5.694 3.574m3.655-5.773c-2.57 0-5.64 2.145-5.64 4.608 0 1.139.82 2.41 2.965 2.41 2.754 0 5.64-2.251 5.64-4.58 0-1.563-1.324-2.438-2.965-2.438m-256.076 140.2c0 1.138.821 2.41 2.966 2.41 2.754 0 5.64-2.251 5.64-4.582 0-1.562-1.324-2.436-2.965-2.436-2.57 0-5.641 2.171-5.641 4.607m222.3-3.307c0 1.139.82 2.41 2.965 2.41 2.754 0 5.64-2.25 5.64-4.58 0-1.563-1.324-2.437-2.965-2.437-2.57 0-5.64 2.171-5.64 4.607m-245.403 0c0 1.139.82 2.41 2.965 2.41 2.755 0 5.64-2.25 5.64-4.58 0-1.563-1.324-2.437-2.965-2.437-2.568 0-5.64 2.171-5.64 4.607M512.34 25.11a.99.99 0 0 1-1.06-.953c0-1.298 4.45-3.575 5.694-3.575.635 0 1.06.37 1.06.953 0 1.324-4.476 3.575-5.694 3.575m3.654-5.773c-2.569 0-5.64 2.145-5.64 4.608 0 1.138.82 2.41 2.966 2.41 2.753 0 5.64-2.25 5.64-4.581 0-1.563-1.324-2.437-2.966-2.437m-337.908 140.2c0 1.137.822 2.409 2.967 2.409 2.753 0 5.64-2.25 5.64-4.581 0-1.563-1.324-2.436-2.966-2.436-2.569 0-5.64 2.171-5.64 4.607M538.456 23.944c0 1.138.82 2.41 2.965 2.41 2.755 0 5.641-2.25 5.641-4.581 0-1.563-1.324-2.437-2.966-2.437-2.568 0-5.64 2.172-5.64 4.608m28.193 3.307c0 1.139.82 2.41 2.965 2.41 2.755 0 5.641-2.251 5.641-4.581 0-1.563-1.324-2.437-2.966-2.437-2.568 0-5.64 2.172-5.64 4.608m18.735-3.307c0 1.138.82 2.41 2.966 2.41 2.753 0 5.64-2.25 5.64-4.581 0-1.563-1.324-2.437-2.966-2.437-2.569 0-5.64 2.172-5.64 4.608M150.109 162.842c0 1.139.82 2.41 2.965 2.41 2.754 0 5.64-2.25 5.64-4.58 0-1.563-1.324-2.437-2.965-2.437-2.569 0-5.64 2.171-5.64 4.607m454.01-132.284c0 1.139.821 2.41 2.966 2.41 2.754 0 5.64-2.251 5.64-4.58 0-1.563-1.324-2.438-2.966-2.438-2.568 0-5.64 2.172-5.64 4.608m-360.445 3.308c0 1.138.821 2.41 2.966 2.41 2.754 0 5.64-2.252 5.64-4.582 0-1.563-1.323-2.436-2.966-2.436-2.568 0-5.64 2.17-5.64 4.608M134.706 166.149c0 1.139.821 2.41 2.966 2.41 2.754 0 5.64-2.25 5.64-4.58 0-1.563-1.324-2.437-2.966-2.437-2.568 0-5.64 2.171-5.64 4.607M623.144 33.867c0 1.138.82 2.41 2.965 2.41 2.755 0 5.641-2.252 5.641-4.582 0-1.563-1.324-2.436-2.966-2.436-2.568 0-5.64 2.17-5.64 4.608M102.037 157.393a.99.99 0 0 1-1.06-.953c0-1.298 4.45-3.575 5.693-3.575.636 0 1.06.37 1.06.953 0 1.324-4.476 3.575-5.693 3.575m3.654-5.772c-2.569 0-5.64 2.144-5.64 4.607 0 1.14.82 2.41 2.966 2.41 2.753 0 5.64-2.25 5.64-4.581 0-1.563-1.324-2.436-2.966-2.436M641.878 37.172c0 1.14.82 2.41 2.966 2.41 2.754 0 5.64-2.25 5.64-4.581 0-1.563-1.323-2.436-2.965-2.436-2.569 0-5.64 2.171-5.64 4.607M469.697 169.457c0 1.138.82 2.41 2.966 2.41 2.754 0 5.64-2.252 5.64-4.581 0-1.563-1.324-2.437-2.965-2.437-2.57 0-5.641 2.172-5.641 4.608M58.104 157.393a.99.99 0 0 1-1.059-.953c0-1.298 4.449-3.575 5.694-3.575.635 0 1.059.37 1.059.953 0 1.324-4.475 3.575-5.694 3.575m3.655-5.772c-2.57 0-5.64 2.144-5.64 4.607 0 1.14.82 2.41 2.965 2.41 2.754 0 5.64-2.25 5.64-4.581 0-1.563-1.324-2.436-2.965-2.436M660.613 33.866c0 1.138.821 2.41 2.966 2.41 2.754 0 5.64-2.252 5.64-4.582 0-1.563-1.324-2.436-2.966-2.436-2.568 0-5.64 2.17-5.64 4.608M224.94 37.172c0 1.14.82 2.41 2.965 2.41 2.754 0 5.64-2.25 5.64-4.581 0-1.563-1.324-2.436-2.965-2.436-2.57 0-5.64 2.171-5.64 4.607m267.862 135.592c0 1.138.82 2.41 2.966 2.41 2.753 0 5.64-2.252 5.64-4.582 0-1.562-1.324-2.436-2.966-2.436-2.569 0-5.64 2.171-5.64 4.608M206.205 33.866c0 1.138.821 2.41 2.966 2.41 2.753 0 5.64-2.252 5.64-4.582 0-1.563-1.324-2.436-2.966-2.436-2.569 0-5.64 2.17-5.64 4.608m-19.025-3.308c0 1.139.821 2.41 2.966 2.41 2.754 0 5.64-2.251 5.64-4.58 0-1.563-1.323-2.438-2.965-2.438-2.569 0-5.64 2.172-5.64 4.608M58.103 101.172a.99.99 0 0 1-1.059-.952c0-1.298 4.449-3.576 5.694-3.576.635 0 1.059.37 1.059.954 0 1.324-4.475 3.574-5.694 3.574M61.76 95.4c-2.57 0-5.64 2.144-5.64 4.608 0 1.138.82 2.41 2.965 2.41 2.754 0 5.64-2.252 5.64-4.582 0-1.562-1.324-2.436-2.965-2.436m454.146 80.67c0 1.14.821 2.41 2.967 2.41 2.753 0 5.64-2.25 5.64-4.58 0-1.563-1.324-2.437-2.966-2.437-2.569 0-5.64 2.171-5.64 4.607m144.921-85.984c0 1.138.82 2.41 2.966 2.41 2.754 0 5.64-2.25 5.64-4.581 0-1.563-1.324-2.436-2.966-2.436-2.568 0-5.64 2.17-5.64 4.607M92.141 94.558a.99.99 0 0 1-1.059-.953c0-1.298 4.449-3.575 5.693-3.575.636 0 1.06.371 1.06.953 0 1.324-4.476 3.575-5.694 3.575m3.655-5.772c-2.57 0-5.641 2.145-5.641 4.607 0 1.138.82 2.41 2.966 2.41 2.754 0 5.64-2.25 5.64-4.581 0-1.563-1.324-2.436-2.965-2.436m547.13-2.007c0 1.139.822 2.41 2.967 2.41 2.754 0 5.64-2.251 5.64-4.582 0-1.562-1.324-2.436-2.965-2.436-2.57 0-5.641 2.172-5.641 4.608M168.446 23.944c0 1.138.82 2.41 2.965 2.41 2.755 0 5.64-2.25 5.64-4.581 0-1.563-1.324-2.437-2.965-2.437-2.568 0-5.64 2.172-5.64 4.608M625.028 83.47c0 1.14.82 2.41 2.965 2.41 2.754 0 5.64-2.25 5.64-4.58 0-1.563-1.324-2.437-2.965-2.437-2.57 0-5.64 2.171-5.64 4.607M133.65 96.701c0 1.138.821 2.409 2.966 2.409 2.754 0 5.64-2.251 5.64-4.58 0-1.563-1.324-2.438-2.966-2.438-2.568 0-5.64 2.172-5.64 4.608m473.477-9.921c0 1.139.821 2.41 2.966 2.41 2.754 0 5.64-2.251 5.64-4.582 0-1.562-1.323-2.436-2.966-2.436-2.568 0-5.64 2.172-5.64 4.608M151.55 93.393c0 1.138.82 2.41 2.965 2.41 2.755 0 5.641-2.25 5.641-4.581 0-1.563-1.324-2.436-2.966-2.436-2.568 0-5.64 2.171-5.64 4.607m437.678-3.307c0 1.138.82 2.41 2.966 2.41 2.753 0 5.64-2.25 5.64-4.581 0-1.563-1.324-2.436-2.966-2.436-2.569 0-5.64 2.17-5.64 4.607m-419.778 9.922c0 1.138.82 2.41 2.965 2.41 2.754 0 5.64-2.252 5.64-4.582 0-1.562-1.324-2.436-2.965-2.436-2.569 0-5.64 2.172-5.64 4.608m401.878-6.615c0 1.138.82 2.41 2.966 2.41 2.754 0 5.64-2.25 5.64-4.581 0-1.563-1.324-2.436-2.966-2.436-2.568 0-5.64 2.171-5.64 4.607m-382.854 9.922c0 1.138.82 2.41 2.965 2.41 2.755 0 5.641-2.252 5.641-4.582 0-1.562-1.324-2.436-2.966-2.436-2.568 0-5.64 2.17-5.64 4.608m17.9 3.306c0 1.14.82 2.41 2.966 2.41 2.753 0 5.64-2.25 5.64-4.581 0-1.562-1.324-2.436-2.966-2.436-2.569 0-5.64 2.171-5.64 4.607m17.9-3.306c0 1.138.82 2.41 2.965 2.41 2.754 0 5.64-2.252 5.64-4.582 0-1.562-1.323-2.436-2.965-2.436-2.569 0-5.64 2.17-5.64 4.608M543.348 96.7c0 1.139.82 2.41 2.965 2.41 2.755 0 5.641-2.251 5.641-4.58 0-1.563-1.324-2.438-2.966-2.438-2.568 0-5.64 2.172-5.64 4.608m-289.11 4.472a.99.99 0 0 1-1.06-.952c0-1.298 4.449-3.576 5.694-3.576.635 0 1.059.37 1.059.954 0 1.324-4.475 3.574-5.693 3.574m3.654-5.772c-2.568 0-5.64 2.144-5.64 4.608 0 1.138.82 2.41 2.965 2.41 2.755 0 5.641-2.252 5.641-4.582 0-1.562-1.324-2.436-2.966-2.436M149.71 27.25c0 1.139.821 2.41 2.966 2.41 2.753 0 5.64-2.251 5.64-4.581 0-1.563-1.324-2.437-2.966-2.437-2.569 0-5.64 2.172-5.64 4.608m381.705 66.142c0 1.138.82 2.41 2.965 2.41 2.754 0 5.64-2.25 5.64-4.581 0-1.563-1.324-2.436-2.965-2.436-2.569 0-5.64 2.171-5.64 4.607m7.593 79.37c0 1.14.821 2.41 2.966 2.41 2.754 0 5.64-2.25 5.64-4.581 0-1.562-1.324-2.436-2.966-2.436-2.568 0-5.64 2.171-5.64 4.608M506.552 91.25a.99.99 0 0 1-1.06-.953c0-1.298 4.45-3.575 5.694-3.575.635 0 1.06.37 1.06.953 0 1.324-4.476 3.575-5.694 3.575m3.654-5.772c-2.569 0-5.64 2.144-5.64 4.607 0 1.138.82 2.41 2.966 2.41 2.753 0 5.64-2.25 5.64-4.581 0-1.563-1.324-2.436-2.966-2.436m-403.592-60.37a.99.99 0 0 1-1.059-.953c0-1.298 4.449-3.575 5.694-3.575.635 0 1.059.37 1.059.953 0 1.324-4.475 3.575-5.694 3.575m3.655-5.773c-2.57 0-5.64 2.145-5.64 4.608 0 1.138.82 2.41 2.965 2.41 2.754 0 5.64-2.25 5.64-4.581 0-1.563-1.324-2.437-2.965-2.437m463.289 151.286a.99.99 0 0 1-1.06-.953c0-1.298 4.45-3.575 5.693-3.575.636 0 1.06.37 1.06.953 0 1.324-4.476 3.575-5.693 3.575m3.654-5.773c-2.569 0-5.64 2.145-5.64 4.608 0 1.138.82 2.41 2.965 2.41 2.754 0 5.64-2.252 5.64-4.581 0-1.563-1.323-2.437-2.965-2.437M472.515 91.25a.99.99 0 0 1-1.059-.953c0-1.298 4.45-3.575 5.693-3.575.636 0 1.06.37 1.06.953 0 1.324-4.475 3.575-5.694 3.575m3.655-5.772c-2.569 0-5.64 2.144-5.64 4.607 0 1.138.82 2.41 2.965 2.41 2.754 0 5.64-2.25 5.64-4.581 0-1.563-1.324-2.436-2.965-2.436M313.139 96.7c0 1.139.821 2.41 2.966 2.41 2.754 0 5.64-2.251 5.64-4.58 0-1.563-1.324-2.438-2.966-2.438-2.568 0-5.64 2.172-5.64 4.608m11.933-3.307c0 1.138.821 2.41 2.966 2.41 2.753 0 5.64-2.25 5.64-4.581 0-1.563-1.324-2.436-2.966-2.436-2.569 0-5.64 2.171-5.64 4.607m27.98-3.307c0 1.138.82 2.41 2.965 2.41 2.754 0 5.64-2.25 5.64-4.581 0-1.563-1.324-2.436-2.965-2.436-2.57 0-5.64 2.17-5.64 4.607M442.55 96.7c0 1.139.821 2.41 2.966 2.41 2.754 0 5.64-2.251 5.64-4.58 0-1.563-1.324-2.438-2.965-2.438-2.57 0-5.64 2.172-5.64 4.608m-71.6-3.307c0 1.138.82 2.41 2.966 2.41 2.754 0 5.64-2.25 5.64-4.581 0-1.563-1.324-2.436-2.965-2.436-2.57 0-5.641 2.171-5.641 4.607m53.7 0c0 1.138.82 2.41 2.965 2.41 2.754 0 5.64-2.25 5.64-4.581 0-1.563-1.323-2.436-2.966-2.436-2.568 0-5.64 2.171-5.64 4.607M388.851 96.7c0 1.139.82 2.41 2.966 2.41 2.753 0 5.64-2.251 5.64-4.58 0-1.563-1.324-2.438-2.966-2.438-2.569 0-5.64 2.172-5.64 4.608M309.478 25.11a.99.99 0 0 1-1.06-.953c0-1.298 4.45-3.575 5.693-3.575.636 0 1.06.37 1.06.953 0 1.324-4.476 3.575-5.693 3.575m3.654-5.773c-2.569 0-5.64 2.145-5.64 4.608 0 1.138.82 2.41 2.965 2.41 2.754 0 5.64-2.25 5.64-4.581 0-1.563-1.323-2.437-2.965-2.437m-24.857 81.836a.99.99 0 0 1-1.059-.952c0-1.298 4.449-3.576 5.694-3.576.635 0 1.059.37 1.059.954 0 1.324-4.475 3.574-5.694 3.574m3.655-5.772c-2.57 0-5.64 2.144-5.64 4.608 0 1.138.82 2.41 2.965 2.41 2.754 0 5.64-2.252 5.64-4.582 0-1.562-1.324-2.436-2.965-2.436m-21.427 67.442v18.73h.661v-18.73zm126.284-88.75V94.53h.662V74.092Zm53.7 0V94.53h.662V74.092Zm-79.536 19.3v18.732h.662V93.392Zm-49.875-17.69V94.53h.661V75.702Zm31.975 14.383v20.385h.662V90.085Zm226.457 55.11v22.091h.662v-22.091ZM104.628 23.943v18.731h.662v-18.73Zm53.02-19.3V25.08h.661V4.643Zm175.36 69.492v17.088h.662V74.135Zm137.521 15.95v20.385h.662V90.085Zm34.037 0v20.385h.661V90.085Zm42.38 58.416v22.092h.662v-22.092Zm-378.5-124.558v18.731h.66v-18.73Zm125.78 51.803v22.091h.662V75.746Zm245.126-1.61v17.087h.662V74.135Zm11.934 1.566V94.53h.662V75.702Zm-291.096.044v22.091h.661V75.746Zm-65.072-69.45v22.092h.661V6.296ZM523.843 151.81v22.09h.661v-22.09zM214.142 9.603v22.092h.661V9.603Zm18.069 69.45v22.091h.661V79.052Zm.665-66.143v22.092h.662V12.91ZM500.74 148.501v22.092h.662v-22.092ZM214.31 82.36v22.092h.662V82.359Zm37.301-72.756v22.092h.662V9.603Zm319.717 83.79v18.73h.661v-18.73ZM196.41 79.052v22.091h.662V79.052Zm392.817 11.032v20.385h.661V90.085Zm-411.842-14.34v22.092h.662V75.746Zm429.742 11.033v22.038h.661V86.778ZM151.55 93.392v18.732h.662V93.392Zm473.477-9.921v22.038h.662V83.471Zm-483.44-9.379V94.53h.661V74.092Zm336.048 71.103v22.091h.662v-22.091ZM279.805 6.296v22.092h.661V6.296Zm363.122 80.482v22.038h.662V86.778Zm17.9 3.307v20.385h.661V90.085ZM90.155 93.392v18.732h.662V93.392Zm356.44 69.45v18.73h.66v-18.73zm-15.167-19.3v20.437h.661v-20.438ZM64.055 75.745v22.091h.662V75.746Zm243.437-51.803v18.731h.661v-18.73Zm53.02-19.3V25.08h.66V4.643Zm9.588 158.199v18.73h.662v-18.73zm1.209-138.899v18.731h.662v-18.73ZM56.119 156.227v22.039h.66v-22.039ZM668.548 9.603v22.092h.662V9.603ZM326.17 159.534v20.385h.661v-20.385zm-226.118-3.307v22.039h.661v-22.039ZM649.815 12.91v22.092h.662V12.91ZM397.98 6.296v22.092h.662V6.296ZM142.643 145.161v18.818h.661v-18.818ZM631.08 9.603v22.092h.661V9.603ZM158.045 143.575v17.097h.662v-17.097ZM612.055 6.296v22.092h.663V6.296Zm-195.05 3.307v22.092h.662V9.603Zm168.38 14.34v18.731h.661v-18.73ZM435.74 12.91v22.092h.661V12.91Zm138.847-8.267V25.08h.661V4.643ZM301.544 143.54v20.438h.661v-20.438ZM454.474 9.603v22.092h.662V9.603ZM178.088 159.534v20.385h.661v-20.385Zm360.368-135.59v18.73h.662v-18.73ZM201.191 162.841v18.73h.662v-18.73zM510.354 23.943v18.731h.662v-18.73ZM232.232 143.541v20.438h.662v-20.438zm15.167 15.993v20.385h.661v-20.385ZM482.667 6.296v22.092h.662V6.296ZM424.65 93.392v18.732h.662V93.392Zm-17.9-3.307v20.385h.662V90.085Zm80.007 79.607 2.357-.477v4.37l-2.357.503zm4.105-.82c.16-.027.291-.213.291-.371v-1.563a.36.36 0 0 0-.37-.37h-.054l-.873.185v-3.946h-.742v4.105l-2.357.476v-3.734h-.74v3.893l-1.033.212c-.16.027-.292.212-.292.37v1.537c0 .212.159.37.37.37h.08l.875-.185v4.369l-1.033.212c-.16.026-.291.212-.291.37v1.536c0 .212.158.372.37.372h.08l.874-.186v3.946h.74v-4.105l2.357-.477v3.734h.742v-3.892l1.006-.186c.16-.026.291-.212.291-.37v-1.563a.36.36 0 0 0-.37-.371h-.053l-.874.186v-4.37zM200.16 30.794l2.357-.477v4.37l-2.357.503zm4.105-.821c.159-.027.291-.212.291-.371V28.04a.363.363 0 0 0-.37-.371h-.054l-.873.185V23.91h-.742v4.104l-2.357.477v-3.734h-.741v3.893l-1.033.212c-.158.026-.291.21-.291.37v1.536c0 .212.159.37.371.37h.08l.873-.184v4.369l-1.033.212c-.158.026-.291.212-.291.37v1.536c0 .212.159.37.371.37h.08l.873-.184v3.945h.741v-4.105l2.357-.476v3.733h.742v-3.892l1.006-.185c.159-.027.291-.212.291-.37v-1.563a.363.363 0 0 0-.37-.371h-.054l-.873.185v-4.369zm218.1 8.656v-4.343l3.073-.874v4.37zm3.654-7.415a.3.3 0 0 0-.212-.079c-.026 0-.08.027-.106.027l-3.336.926v-4.634h-.741v13.108c0 .212.158.344.37.344h.106l3.337-.927v4.635h.715V31.506c0-.106-.054-.239-.133-.292m-225.083 76.864v-4.342l3.071-.875v4.37zm3.653-7.414a.3.3 0 0 0-.211-.08c-.027 0-.08.027-.107.027l-3.336.926v-4.633h-.741v13.107c0 .212.158.345.37.345h.106l3.336-.928v4.635h.716v-13.108c0-.106-.053-.239-.133-.291m14.912-62.035v-4.343l3.071-.874v4.37zm3.654-7.415a.3.3 0 0 0-.212-.079c-.026 0-.079.026-.106.026l-3.336.927v-4.634h-.742v13.108c0 .212.16.344.37.344h.107l3.336-.927v4.635h.715V31.506c0-.106-.052-.239-.132-.292m179.867-.42 2.356-.477v4.37l-2.356.503zm4.104-.821c.16-.027.291-.212.291-.371V28.04a.36.36 0 0 0-.37-.371h-.053l-.875.185V23.91h-.741v4.104l-2.356.477v-3.734h-.742v3.893l-1.033.212c-.159.026-.29.21-.29.37v1.536c0 .212.158.37.37.37h.079l.874-.184v4.369l-1.032.212c-.16.026-.292.212-.292.37v1.536c0 .212.159.37.37.37h.08l.874-.184v3.945h.742v-4.105l2.356-.476v3.733h.742v-3.892l1.006-.185c.16-.027.291-.212.291-.37v-1.563a.36.36 0 0 0-.37-.371h-.053l-.874.185v-4.369zm-224.698 70.27 2.357-.477v4.37l-2.357.503zm4.104-.821c.16-.026.291-.212.291-.37v-1.563a.36.36 0 0 0-.37-.371h-.053l-.874.186v-3.946h-.741v4.105l-2.357.476v-3.734h-.742v3.893l-1.032.212c-.16.026-.292.212-.292.37v1.536c0 .212.159.37.37.37h.08l.874-.184v4.369l-1.032.212c-.16.026-.292.212-.292.37v1.536c0 .212.159.371.37.371h.08l.874-.185v3.945h.742v-4.104l2.357-.477v3.734h.74v-3.893l1.007-.185c.16-.027.291-.212.291-.37v-1.563a.36.36 0 0 0-.37-.371h-.053l-.874.185v-4.368zm323.935 78.105v-4.342l3.072-.875v4.37zm3.654-7.414a.3.3 0 0 0-.212-.08c-.026 0-.08.027-.106.027l-3.336.926v-4.633h-.741v13.107c0 .212.158.345.37.345h.106l3.337-.927v4.634h.715v-13.108c0-.106-.053-.239-.133-.291M617.1 30.793l2.357-.476v4.37l-2.357.503zm4.104-.82c.159-.027.291-.212.291-.372V28.04a.36.36 0 0 0-.37-.371h-.053l-.875.185V23.91h-.74v4.104l-2.357.477v-3.734h-.742v3.893l-1.033.212c-.159.026-.29.21-.29.37v1.536c0 .212.158.37.37.37h.08l.873-.184v4.369l-1.033.212c-.159.026-.29.212-.29.37v1.536c0 .212.158.37.37.37h.08l.873-.184v3.945h.742v-4.105l2.357-.476v3.733h.74v-3.892l1.007-.185c.159-.027.291-.212.291-.37v-1.563a.36.36 0 0 0-.37-.371h-.053l-.875.185v-4.369zm15.237 8.656v-4.343l3.072-.874v4.37zm3.655-7.415a.3.3 0 0 0-.212-.079c-.027 0-.08.027-.106.027l-3.337.926v-4.634h-.74v13.108c0 .212.158.344.37.344h.106l3.336-.927v4.635h.716V31.506c0-.106-.053-.239-.133-.292M82.9 144.368c-8.547 0-17.094 1.906-21.416 5.796a.165.165 0 0 0-.025.198l-.003.015.01.002.006.019a.165.165 0 0 0 .198.024l.015.003c4.198-2.736 12.71-4.139 21.215-4.139 8.503 0 17.016 1.403 21.214 4.14a.165.165 0 0 0 .2-.262c-4.322-3.89-12.868-5.796-21.414-5.796zm0 .33c7.462 0 14.922 1.49 19.473 4.414-4.653-2.118-12.058-3.156-19.473-3.156-7.416 0-14.82 1.038-19.475 3.156 4.552-2.923 12.012-4.413 19.475-4.413m-21.305 5.589c8.522-7.671 34.087-7.671 42.609 0-8.522-5.554-34.087-5.554-42.61 0m195.386-46.728-.014.005a.2.2 0 0 0-.058.022.2.2 0 0 0-.046.017v.01l-.02.012a.17.17 0 0 0 .016.105.17.17 0 0 0-.003.107c3.328 3.552 9.906 5.29 16.478 5.29s13.15-1.738 16.477-5.29a.165.165 0 0 0-.219-.246c-3.208 2.387-9.736 3.618-16.258 3.618s-13.05-1.231-16.258-3.618a.2.2 0 0 0-.048-.012.2.2 0 0 0-.046-.02zm1.453 1.247c3.588 1.837 9.24 2.734 14.9 2.734s11.31-.897 14.898-2.734c-3.487 2.644-9.19 3.991-14.899 3.991s-11.412-1.347-14.9-3.99m-1.458-1.082c6.543 4.868 26.171 4.868 32.714 0-6.543 6.984-26.17 6.984-32.714 0m235.388-23.721c-6.565 0-13.127 1.312-16.461 4.014a.2.2 0 0 0-.022.04.2.2 0 0 0-.029.053.2.2 0 0 0 .004.062.2.2 0 0 0 .003.045l.012.005.008.027a.17.17 0 0 0 .103.01.17.17 0 0 0 .098.035c3.212-1.565 9.755-2.373 16.284-2.373 6.53 0 13.072.808 16.285 2.373a.165.165 0 0 0 .176-.277c-3.334-2.702-9.896-4.014-16.46-4.014zm0 .33c5.758 0 11.515 1.047 14.993 3.082-3.576-1.227-9.278-1.824-14.993-1.824-5.716 0-11.418.597-14.993 1.824 3.478-2.035 9.235-3.082 14.993-3.082m-16.357 3.812c6.542-5.302 26.171-5.302 32.714 0-6.543-3.186-26.172-3.186-32.714 0M676.9 148.138v27.184h3.638v-27.184zm-3.637 0v27.184h1.19v-27.184ZM124.192 78.69v27.184h1.19V78.69Zm555.156 0v27.184h1.19V78.69Zm-265.315 69.45v27.183h1.19v-27.184Zm-70.917-138.9v27.185h1.19V9.24Zm336.232 0v27.185h1.19V9.24ZM168.63 148.14v27.183h1.19v-27.184zm148.08 0v27.183h1.191v-27.184Zm240.481-138.9v27.185h1.19V9.24Zm4.679 69.45v27.184h1.19V78.69Zm-319.076 0v27.184h1.19V78.69ZM140.253 9.239v27.185h1.19V9.24Zm421.86 138.9v27.183h1.191v-27.184Zm-218.52-69.45v27.184h1.19V78.69Zm117.478 0v27.184h1.19V78.69ZM262.41 9.239v27.185h1.19V9.24Zm202.863 0v27.185h1.19V9.24ZM0 174.596v.727h680.538v-.727zm0-6.614v.727h680.538v-.727zm0-6.614v.727h680.538v-.727zm0-6.615v.727h680.538v-.727zm0-6.614v.727h680.538v-.727zm0-42.992v.727h680.538v-.727zm0-6.614v.727h680.538v-.727zm0-6.614v.727h680.538v-.727zm0-6.615v.727h680.538v-.727Zm0-6.614v.727h680.538v-.727Zm0-42.993v.728h680.538v-.728zm0-6.613v.727h680.538v-.727zm0-6.615v.727h680.538v-.727zm0-6.614v.727h680.538v-.727ZM0 9.24v.727h680.538V9.24Z" style="stroke-width:.0800004"/>
</svg>
