<?xml version="1.0" encoding="utf-8"?>
<svg xmlns="http://www.w3.org/2000/svg" xmlns:svg="http://www.w3.org/2000/svg" version="1.1" viewBox="0 0 681 117">
	<title>A score 2 staves long in 6/4 time, in the key of G Major.</title>
	<path d="M45.094 32.793v1.96h-2.2c-.185 0-.37.16-.37.37v.504c0 .212.185.372.37.372h8.03c.212 0 .371-.16.371-.372v-.503c0-.212-.16-.37-.371-.37h-2.385v-1.961h2.385c.212 0 .371-.186.371-.398v-.504a.38.38 0 0 0-.371-.37h-2.385v-4.214c0-.16-.08-.291-.185-.344l-.318-.16c-.054-.026-.08-.026-.133-.026-.106 0-.212 0-.291.08l-2.412 2.2a.4.4 0 0 0-.106.29v2.174h-3.073s2.967-3.18 6.094-7.367a.58.58 0 0 0 .132-.37.44.44 0 0 0-.079-.266l-.583-.583c-.079-.053-.159-.106-.265-.106h-3.948c-.186 0-.318.159-.344.318 0 0-.133 1.961-.822 4.107s-1.484 3.472-2.173 4.452c0 0-.08.132-.08.292 0 .052 0 .105.027.158.08.186.265.477.265.477s.053.16.292.16zm.794-11.067c-.875 0-1.59-1.192-1.59-2.676s.715-2.703 1.59-2.703c.874 0 1.616 1.219 1.616 2.703s-.742 2.676-1.616 2.676m.98-6.625c-1.616 0-2.2.477-2.57.875-.08-.557-.133-.98-.133-1.405 0-1.51.53-3.47 2.385-3.47.663 0 1.06.211 1.325.503-.556.238-1.007.954-1.007 1.563 0 .954.742 1.696 1.696 1.696s1.722-.742 1.722-1.696v-.08c0-.238-.052-.635-.158-.847-.345-.954-1.458-2.359-4.108-2.359-2.385 0-4.107 2.28-4.637 3.498a9.4 9.4 0 0 0-.662 3.418c0 1.617.45 3.445 2.014 4.823 1.537 1.166 2.517 1.219 3.445 1.219s4.398-1.087 4.398-4.16c0-2.597-2.04-3.578-3.71-3.578M28.941 77.145l2.358-.477v4.373l-2.358.503zm4.107-.821c.16-.026.292-.212.292-.372V74.39a.363.363 0 0 0-.371-.372h-.054l-.874.186v-3.948H31.3v4.107l-2.358.477v-3.736h-.742v3.895l-1.033.212c-.16.027-.292.212-.292.37v1.538c0 .212.159.37.371.37h.08l.874-.184v4.371l-1.033.213c-.16.026-.292.212-.292.37v1.537c0 .212.159.37.371.37h.08l.874-.184v3.948h.742v-4.107l2.358-.477v3.736h.742v-3.895l1.007-.186c.16-.026.292-.212.292-.37v-1.564a.363.363 0 0 0-.371-.371h-.054l-.874.185V76.51zM28.941 7.649l2.358-.477v4.372l-2.358.504zm4.107-.821c.16-.027.292-.212.292-.371V4.893a.36.36 0 0 0-.371-.37h-.054l-.874.185V.759H31.3v4.108l-2.358.477V1.607h-.742v3.896l-1.033.212c-.16.026-.292.212-.292.37v1.537c0 .212.159.371.371.371h.08l.874-.185v4.372l-1.033.212c-.16.027-.292.212-.292.371V14.3c0 .212.159.371.371.371h.08l.874-.185v3.948h.742v-4.107l2.358-.477v3.736h.742V13.69l1.007-.186c.16-.026.292-.212.292-.37V11.57a.36.36 0 0 0-.371-.371h-.054l-.874.185V7.013zM16.093 104.42a7.7 7.7 0 0 1-1.537.16c-3.789 0-7.022-2.65-7.022-6.652 0-3.233 2.28-6.12 4.611-8.135.45-.398.875-.769 1.272-1.166.238 1.43.424 2.677.61 3.763-2.412.715-4.055 3.259-4.055 5.75 0 1.854 1.458 4.398 3.577 4.398.212 0 .451-.105.451-.344 0-.238-.265-.371-.583-.583-1.033-.636-1.616-1.324-1.616-2.623 0-1.616 1.192-2.915 2.755-3.286zm-2.332-27.24c.239-1.06 1.458-3.842 2.836-3.842.397 0 1.033 1.298 1.033 3.127 0 2.755-2.04 4.822-3.869 6.624-.159-1.06-.291-2.093-.291-3.206 0-.98.08-1.882.291-2.703m6.095 22.338c0 1.881-.768 3.815-2.65 4.584a882 882 0 0 1-1.457-8.559c2.385 0 4.107 1.617 4.107 3.975m-11.66 13.037c0 1.748 1.352 4.054 4.93 4.054 1.245 0 2.331-.318 3.285-.9 1.431-1.008 1.802-2.757 1.802-4.426 0-1.034-.159-2.226-.424-3.736-.08-.53-.238-1.325-.397-2.359 2.597-.847 4.53-3.55 4.53-6.28 0-4.001-2.834-6.704-6.703-6.704-.265-1.59-.53-3.153-.769-4.637 2.81-2.942 4.744-6.253 4.744-10.467 0-2.411-.742-4.372-1.166-5.326-.636-1.351-1.405-2.279-1.882-2.279-.185 0-1.007.319-1.881 1.351-1.696 2.015-2.173 5.406-2.173 7.632 0 1.431.133 2.73.583 5.698-.026.026-1.404 1.43-1.96 1.88-2.412 2.253-5.75 5.459-5.75 10.759 0 4.955 4.318 8.85 9.247 8.85.768 0 1.484-.079 2.093-.185.504 2.544.795 4.399.795 5.803 0 2.755-1.404 4.213-4.08 4.213-.636 0-1.193-.133-1.246-.133-.026-.026-.08-.053-.08-.08 0-.052.054-.078.133-.105 1.246-.185 2.49-1.245 2.49-2.941 0-1.431-1.085-2.941-3.073-2.941-1.855 0-3.047 1.51-3.047 3.259m7.896-77.632a7.7 7.7 0 0 1-1.537.16c-3.789 0-7.022-2.65-7.022-6.651 0-3.234 2.28-6.122 4.611-8.135.45-.398.875-.769 1.272-1.166.238 1.43.424 2.676.61 3.762-2.412.716-4.055 3.26-4.055 5.75 0 1.855 1.458 4.4 3.577 4.4.212 0 .451-.107.451-.345 0-.239-.265-.372-.583-.583-1.033-.636-1.616-1.325-1.616-2.623 0-1.617 1.192-2.915 2.755-3.287zm-2.332-27.24c.239-1.06 1.458-3.842 2.836-3.842.397 0 1.033 1.299 1.033 3.127 0 2.756-2.04 4.823-3.869 6.625-.159-1.06-.291-2.094-.291-3.207 0-.98.08-1.881.291-2.703m6.095 22.339c0 1.881-.768 3.815-2.65 4.584a882 882 0 0 1-1.457-8.559c2.385 0 4.107 1.616 4.107 3.975M8.196 43.06c0 1.748 1.352 4.054 4.93 4.054 1.245 0 2.331-.318 3.285-.901 1.431-1.007 1.802-2.756 1.802-4.425 0-1.034-.159-2.226-.424-3.737-.08-.53-.238-1.325-.397-2.358 2.597-.848 4.53-3.55 4.53-6.28 0-4.001-2.834-6.704-6.703-6.704-.265-1.59-.53-3.153-.769-4.637 2.81-2.942 4.744-6.254 4.744-10.467 0-2.411-.742-4.372-1.166-5.326C17.392.927 16.623 0 16.146 0c-.185 0-1.007.318-1.881 1.351-1.696 2.014-2.173 5.406-2.173 7.632 0 1.43.133 2.73.583 5.697-.026.026-1.404 1.43-1.96 1.881-2.412 2.253-5.75 5.459-5.75 10.758 0 4.956 4.318 8.851 9.247 8.851.768 0 1.484-.08 2.093-.186.504 2.545.795 4.4.795 5.804 0 2.755-1.404 4.213-4.08 4.213-.636 0-1.193-.133-1.246-.133-.026-.026-.08-.053-.08-.08 0-.052.054-.079.133-.105 1.246-.186 2.49-1.246 2.49-2.941 0-1.432-1.085-2.941-3.073-2.941-1.855 0-3.047 1.51-3.047 3.259M49.88 96.766c0 1.14.822 2.411 2.968 2.411 2.756 0 5.645-2.253 5.645-4.584 0-1.563-1.325-2.438-2.968-2.438-2.57 0-5.645 2.173-5.645 4.61M273.756 23.96c0 1.14.821 2.411 2.968 2.411 2.756 0 5.644-2.252 5.644-4.584 0-1.563-1.325-2.438-2.968-2.438-2.57 0-5.644 2.173-5.644 4.611m285.943 72.806c0 1.14.821 2.411 2.967 2.411 2.756 0 5.644-2.253 5.644-4.584 0-1.563-1.325-2.438-2.967-2.438-2.571 0-5.644 2.173-5.644 4.61m-262.48-76.114c0 1.14.82 2.411 2.967 2.411 2.756 0 5.644-2.252 5.644-4.584 0-1.563-1.325-2.438-2.968-2.438-2.57 0-5.644 2.173-5.644 4.61m237.143 79.425c0 1.14.82 2.412 2.967 2.412 2.756 0 5.644-2.253 5.644-4.584 0-1.564-1.325-2.439-2.968-2.439-2.57 0-5.643 2.174-5.643 4.611M320.68 20.651c0 1.14.82 2.411 2.967 2.411 2.756 0 5.644-2.252 5.644-4.584 0-1.563-1.325-2.438-2.968-2.438-2.57 0-5.644 2.173-5.644 4.61m-197.161 3.31c0 1.14.822 2.411 2.968 2.411 2.756 0 5.644-2.252 5.644-4.584 0-1.563-1.325-2.438-2.968-2.438-2.57 0-5.644 2.173-5.644 4.611m126.775 3.31c0 1.139.822 2.41 2.968 2.41 2.755 0 5.644-2.252 5.644-4.583 0-1.564-1.325-2.438-2.968-2.438-2.57 0-5.644 2.173-5.644 4.61m249.264 76.116c0 1.139.82 2.411 2.967 2.411 2.756 0 5.645-2.253 5.645-4.585 0-1.562-1.325-2.437-2.969-2.437-2.57 0-5.643 2.172-5.643 4.61M344.142 17.342c0 1.14.822 2.412 2.968 2.412 2.756 0 5.644-2.253 5.644-4.584 0-1.564-1.325-2.438-2.968-2.438-2.57 0-5.644 2.173-5.644 4.61m130.077 82.734c0 1.14.822 2.412 2.968 2.412 2.756 0 5.645-2.253 5.645-4.584 0-1.564-1.325-2.439-2.969-2.439-2.57 0-5.644 2.174-5.644 4.611M367.604 20.651c0 1.14.821 2.411 2.968 2.411 2.756 0 5.644-2.252 5.644-4.584 0-1.563-1.325-2.438-2.968-2.438-2.57 0-5.644 2.173-5.644 4.61m81.277 76.116c0 1.14.822 2.411 2.968 2.411 2.756 0 5.645-2.253 5.645-4.584 0-1.563-1.325-2.438-2.968-2.438-2.57 0-5.645 2.173-5.645 4.61M193.905 17.342c0 1.14.822 2.412 2.968 2.412 2.755 0 5.644-2.253 5.644-4.584 0-1.564-1.325-2.438-2.968-2.438-2.57 0-5.644 2.173-5.644 4.61m229.638 76.115c0 1.14.822 2.412 2.969 2.412 2.755 0 5.643-2.252 5.643-4.584 0-1.564-1.324-2.438-2.967-2.438-2.57 0-5.645 2.173-5.645 4.61M400.531 23.96c0 1.14.821 2.411 2.967 2.411 2.757 0 5.645-2.252 5.645-4.584 0-1.563-1.325-2.438-2.968-2.438-2.57 0-5.644 2.173-5.644 4.611m-2.326 66.187c0 1.14.822 2.411 2.968 2.411 2.756 0 5.644-2.252 5.644-4.584 0-1.563-1.325-2.437-2.967-2.437-2.57 0-5.645 2.172-5.645 4.61m25.788-69.496c0 1.14.821 2.411 2.968 2.411 2.755 0 5.644-2.252 5.644-4.584 0-1.563-1.325-2.438-2.968-2.438-2.57 0-5.644 2.173-5.644 4.61m-51.125 72.806c0 1.14.821 2.412 2.967 2.412 2.756 0 5.644-2.252 5.644-4.584 0-1.564-1.325-2.438-2.967-2.438-2.571 0-5.644 2.173-5.644 4.61m74.587-69.496c0 1.14.821 2.411 2.967 2.411 2.757 0 5.645-2.252 5.645-4.584 0-1.563-1.325-2.438-2.968-2.438-2.57 0-5.644 2.173-5.644 4.611m23.462 3.31c0 1.139.822 2.41 2.968 2.41 2.755 0 5.644-2.252 5.644-4.583 0-1.564-1.325-2.438-2.968-2.438-2.57 0-5.644 2.173-5.644 4.61m141.445 67.353a.99.99 0 0 1-1.06-.953c0-1.299 4.452-3.578 5.697-3.578.636 0 1.06.371 1.06.954 0 1.325-4.478 3.577-5.697 3.577m3.657-5.776c-2.57 0-5.645 2.146-5.645 4.61 0 1.14.822 2.412 2.969 2.412 2.755 0 5.643-2.252 5.643-4.584 0-1.564-1.324-2.438-2.967-2.438m-277.954 7.92c0 1.14.821 2.411 2.967 2.411 2.756 0 5.644-2.253 5.644-4.584 0-1.563-1.325-2.438-2.967-2.438-2.571 0-5.644 2.173-5.644 4.61M494.379 30.58c0 1.14.821 2.411 2.967 2.411 2.757 0 5.645-2.252 5.645-4.584 0-1.563-1.325-2.438-2.968-2.438-2.57 0-5.644 2.173-5.644 4.611m-181.652 72.806c0 1.139.821 2.411 2.967 2.411 2.757 0 5.644-2.253 5.644-4.585 0-1.562-1.325-2.437-2.968-2.437-2.57 0-5.643 2.172-5.643 4.61M517.84 33.89c0 1.139.822 2.41 2.968 2.41 2.755 0 5.644-2.252 5.644-4.584 0-1.563-1.325-2.438-2.968-2.438-2.57 0-5.644 2.173-5.644 4.612M287.388 96.766c0 1.14.822 2.411 2.968 2.411 2.756 0 5.645-2.253 5.645-4.584 0-1.563-1.325-2.438-2.969-2.438-2.57 0-5.644 2.173-5.644 4.61M170.443 20.652c0 1.14.821 2.411 2.968 2.411 2.756 0 5.644-2.252 5.644-4.584 0-1.563-1.325-2.438-2.967-2.438-2.571 0-5.645 2.173-5.645 4.61m91.607 76.116c0 1.14.822 2.411 2.968 2.411 2.756 0 5.645-2.253 5.645-4.584 0-1.563-1.325-2.438-2.968-2.438-2.57 0-5.645 2.173-5.645 4.61M550.768 30.58c0 1.14.821 2.411 2.967 2.411 2.756 0 5.644-2.252 5.644-4.584 0-1.563-1.325-2.438-2.967-2.438-2.57 0-5.644 2.173-5.644 4.611m-314.056 72.806c0 1.139.822 2.411 2.969 2.411 2.755 0 5.644-2.253 5.644-4.585 0-1.562-1.325-2.437-2.968-2.437-2.57 0-5.645 2.172-5.645 4.61M574.23 27.27c0 1.139.822 2.41 2.969 2.41 2.755 0 5.644-2.252 5.644-4.583 0-1.564-1.325-2.438-2.968-2.438-2.57 0-5.645 2.173-5.645 4.61M211.374 96.767c0 1.14.822 2.411 2.969 2.411 2.755 0 5.643-2.253 5.643-4.584 0-1.563-1.325-2.438-2.967-2.438-2.57 0-5.645 2.173-5.645 4.61M597.692 30.58c0 1.14.821 2.411 2.967 2.411 2.756 0 5.644-2.252 5.644-4.584 0-1.563-1.325-2.438-2.967-2.438-2.57 0-5.644 2.173-5.644 4.611m-450.71-9.928c0 1.14.82 2.411 2.967 2.411 2.755 0 5.644-2.252 5.644-4.584 0-1.563-1.325-2.438-2.968-2.438-2.57 0-5.644 2.173-5.644 4.61m-46.924 6.62c0 1.139.822 2.41 2.968 2.41 2.756 0 5.644-2.252 5.644-4.583 0-1.564-1.325-2.438-2.968-2.438-2.57 0-5.644 2.173-5.644 4.61m76.515 69.497c0 1.14.821 2.411 2.968 2.411 2.755 0 5.643-2.253 5.643-4.584 0-1.563-1.325-2.438-2.967-2.438-2.57 0-5.644 2.173-5.644 4.61m446.57-71.64a.99.99 0 0 1-1.06-.953c0-1.298 4.451-3.577 5.696-3.577.636 0 1.06.37 1.06.954 0 1.325-4.478 3.577-5.697 3.577m3.657-5.777c-2.57 0-5.645 2.147-5.645 4.611 0 1.14.822 2.411 2.968 2.411 2.756 0 5.645-2.252 5.645-4.584 0-1.563-1.325-2.438-2.968-2.438m-475.564 84.036c0 1.139.821 2.411 2.967 2.411 2.756 0 5.644-2.253 5.644-4.585 0-1.562-1.325-2.437-2.967-2.437-2.57 0-5.644 2.172-5.644 4.61M64.524 30.58c0 1.14.82 2.411 2.967 2.411 2.756 0 5.645-2.252 5.645-4.584 0-1.563-1.325-2.438-2.968-2.438-2.57 0-5.645 2.173-5.645 4.611m61.373 66.187c0 1.14.821 2.411 2.967 2.411 2.757 0 5.644-2.253 5.644-4.584 0-1.563-1.325-2.438-2.967-2.438-2.57 0-5.644 2.173-5.644 4.61m530.45-66.186c0 1.14.823 2.411 2.969 2.411 2.755 0 5.644-2.252 5.644-4.584 0-1.563-1.325-2.438-2.968-2.438-2.57 0-5.645 2.173-5.645 4.611M100.558 96.766c0 1.14.82 2.411 2.967 2.411 2.756 0 5.645-2.253 5.645-4.584 0-1.563-1.325-2.438-2.969-2.438-2.57 0-5.643 2.173-5.643 4.61m547.824 3.31c0 1.14.821 2.412 2.967 2.412 2.756 0 5.644-2.253 5.644-4.584 0-1.564-1.325-2.439-2.967-2.439-2.571 0-5.644 2.174-5.644 4.611m-573.163 3.31c0 1.139.822 2.411 2.968 2.411 2.756 0 5.645-2.253 5.645-4.585 0-1.562-1.325-2.437-2.969-2.437-2.57 0-5.644 2.172-5.644 4.61m509.818-3.309c0 1.14.821 2.412 2.967 2.412 2.756 0 5.644-2.253 5.644-4.584 0-1.564-1.325-2.439-2.967-2.439-2.57 0-5.644 2.174-5.644 4.611m-367.67-79.424c0 1.14.821 2.411 2.968 2.411 2.756 0 5.644-2.252 5.644-4.584 0-1.563-1.325-2.438-2.967-2.438-2.57 0-5.645 2.173-5.645 4.61M83.162 79.107v22.107h.662V79.106Zm40.357-55.147v18.744h.662V23.96ZM108.5 74.142v20.452h.662V74.142Zm61.943-53.492v20.399h.662v-20.4ZM72.466 6.3v22.107h.662V6.301Zm61.372 67.842v20.452h.662V74.142Zm25.338 4.964v22.107h.662V79.106Zm25.338-4.964v20.452h.662V74.142Zm436.64-50.183v18.744h.662V23.96ZM219.317 74.142v20.452h.662V74.142ZM605.634 6.301v22.106h.662V6.301Zm-360.98 72.805v22.107h.663V79.106Zm337.518-74.46v20.452h.662V4.646ZM269.993 74.142v20.452h.662V74.142ZM558.71 6.301v22.106h.662V6.301ZM295.331 74.142v20.452h.662V74.142ZM193.905 17.34v22.054h.662V17.34Zm126.764 61.766v22.107h.662V79.106ZM525.783 9.61v22.107h.662V9.61ZM346.007 74.142v20.452h.662V74.142ZM502.321 6.301v22.106h.662V6.301ZM146.981 20.65v20.399h.662v-20.4ZM478.859 4.646v20.452h.662V4.646Zm-105.992 88.81V112.2h.662V93.456Zm74.588-69.497v18.744h.662V23.96Zm-49.25 66.187v20.399h.663V90.146Zm25.788-69.496v20.399h.662v-20.4Zm-.45 72.806V112.2h.663V93.456Zm-23.012-69.497v18.744h.662V23.96Zm56.293 50.183v20.452h.662V74.142ZM108 4.646v20.452h.662V4.646Zm374.162 71.151v22.106h.662V75.797ZM367.604 20.65v20.399h.662v-20.4ZM507.5 79.106v22.107h.662V79.106ZM344.142 17.34v22.054h.662V17.34Zm198.16 58.457v22.106h.662V75.797ZM320.68 20.65v20.399h.662v-20.4Zm246.96 53.492v20.452h.663V74.142ZM297.218 20.65v20.399h.662v-20.4Zm295.76 55.147v22.106h.663V75.797ZM273.757 23.96v18.744h.662V23.96Zm336.619 69.497V112.2h.662V93.456ZM258.236 4.646v20.452h.662V4.646ZM217.367 20.65v20.399h.662v-20.4Zm438.957 55.147v22.106h.662V75.797Zm-598.5-1.655v20.452h.662V74.142ZM664.289 6.301v22.106h.662V6.301ZM391.066 9.246v27.203h1.19V9.246Zm150.237 0v27.203h1.191V9.246Zm-450.71 0v27.203h1.19V9.246ZM677.36 78.742v27.203H681V78.742Zm-3.64 0v27.203h1.191V78.742Zm6.089-69.496v27.203H681V9.246ZM201.91 78.742v27.203h1.191V78.742Zm161.493 0v27.203h1.191V78.742Zm161.493 0v27.203h1.19V78.742ZM240.83 9.246v27.203h1.19V9.246ZM0 105.216v.729h681v-.728zM0 98.6v.727h681V98.6zm0-6.62v.729h681v-.728zm0-6.618v.728h681v-.728zm0-6.619v.728h681v-.728Zm0-43.021v.727h681v-.727zm0-6.619v.728h681v-.728zm0-6.619v.728h681v-.728zm0-6.618v.727h681v-.727Zm0-6.619v.728h681v-.728Z"/>
</svg>
