<?xml version="1.0" encoding="UTF-8" standalone="no"?>
<svg width="210.058mm" height="296.926mm" viewBox="0 0 9924 14028"
 xmlns="http://www.w3.org/2000/svg" xmlns:xlink="http://www.w3.org/1999/xlink" version="1.2" baseProfile="full">
<title>air_VIII</title>
<desc>Generated by MuseScore Studio 4.7.3</desc>
<polyline class="StaffLines" fill="none" stroke="#000000" stroke-width="9.09" stroke-linejoin="bevel" points="708.661,828.424 9215.34,828.424" />
<polyline class="StaffLines" fill="none" stroke="#000000" stroke-width="9.09" stroke-linejoin="bevel" points="708.661,911.101 9215.34,911.101" />
<polyline class="StaffLines" fill="none" stroke="#000000" stroke-width="9.09" stroke-linejoin="bevel" points="708.661,993.778 9215.34,993.778" />
<polyline class="StaffLines" fill="none" stroke="#000000" stroke-width="9.09" stroke-linejoin="bevel" points="708.661,1076.46 9215.34,1076.46" />
<polyline class="StaffLines" fill="none" stroke="#000000" stroke-width="9.09" stroke-linejoin="bevel" points="708.661,1159.13 9215.34,1159.13" />
<polyline class="StaffLines" fill="none" stroke="#000000" stroke-width="9.09" stroke-linejoin="bevel" points="708.661,1696.53 9215.34,1696.53" />
<polyline class="StaffLines" fill="none" stroke="#000000" stroke-width="9.09" stroke-linejoin="bevel" points="708.661,1779.21 9215.34,1779.21" />
<polyline class="StaffLines" fill="none" stroke="#000000" stroke-width="9.09" stroke-linejoin="bevel" points="708.661,1861.89 9215.34,1861.89" />
<polyline class="StaffLines" fill="none" stroke="#000000" stroke-width="9.09" stroke-linejoin="bevel" points="708.661,1944.57 9215.34,1944.57" />
<polyline class="StaffLines" fill="none" stroke="#000000" stroke-width="9.09" stroke-linejoin="bevel" points="708.661,2027.24 9215.34,2027.24" />
<polyline class="StaffLines" fill="none" stroke="#000000" stroke-width="9.09" stroke-linejoin="bevel" points="708.661,2564.64 9215.34,2564.64" />
<polyline class="StaffLines" fill="none" stroke="#000000" stroke-width="9.09" stroke-linejoin="bevel" points="708.661,2647.32 9215.34,2647.32" />
<polyline class="StaffLines" fill="none" stroke="#000000" stroke-width="9.09" stroke-linejoin="bevel" points="708.661,2730 9215.34,2730" />
<polyline class="StaffLines" fill="none" stroke="#000000" stroke-width="9.09" stroke-linejoin="bevel" points="708.661,2812.68 9215.34,2812.68" />
<polyline class="StaffLines" fill="none" stroke="#000000" stroke-width="9.09" stroke-linejoin="bevel" points="708.661,2895.35 9215.34,2895.35" />
<polyline class="BarLine" fill="none" stroke="#000000" stroke-width="14.88" stroke-linejoin="bevel" points="4301.45,823.876 4301.45,1163.68" />
<polyline class="BarLine" fill="none" stroke="#000000" stroke-width="14.88" stroke-linejoin="bevel" points="4068.85,1691.99 4068.85,2031.79" />
<polyline class="BarLine" fill="none" stroke="#000000" stroke-width="14.88" stroke-linejoin="bevel" points="5320.28,1691.99 5320.28,2031.79" />
<polyline class="BarLine" fill="none" stroke="#000000" stroke-width="14.88" stroke-linejoin="bevel" points="7956.47,1691.99 7956.47,2031.79" />
<polyline class="BarLine" fill="none" stroke="#000000" stroke-width="14.88" stroke-linejoin="bevel" points="9131.84,2560.1 9131.84,2899.9" />
<polyline class="BarLine" fill="none" stroke="#000000" stroke-width="45.47" stroke-linejoin="bevel" points="9192.6,2560.1 9192.6,2899.9" />
<polyline class="BarLine" fill="none" stroke="#000000" stroke-width="14.88" stroke-linejoin="bevel" points="9207.9,1691.99 9207.9,2031.79" />
<polyline class="BarLine" fill="none" stroke="#000000" stroke-width="14.88" stroke-linejoin="bevel" points="1901.03,823.876 1901.03,1163.68" />
<polyline class="BarLine" fill="none" stroke="#000000" stroke-width="14.88" stroke-linejoin="bevel" points="2617.44,1691.99 2617.44,2031.79" />
<polyline class="BarLine" fill="none" stroke="#000000" stroke-width="14.88" stroke-linejoin="bevel" points="2725.7,2560.1 2725.7,2899.9" />
<polyline class="BarLine" fill="none" stroke="#000000" stroke-width="14.88" stroke-linejoin="bevel" points="9207.9,823.876 9207.9,1163.68" />
<polyline class="BarLine" fill="none" stroke="#000000" stroke-width="14.88" stroke-linejoin="bevel" points="4152.06,2560.1 4152.06,2899.9" />
<polyline class="BarLine" fill="none" stroke="#000000" stroke-width="14.88" stroke-linejoin="bevel" points="8184.47,2560.1 8184.47,2899.9" />
<polyline class="BarLine" fill="none" stroke="#000000" stroke-width="45.47" stroke-linejoin="bevel" points="8483.04,823.876 8483.04,1163.68" />
<polyline class="BarLine" fill="none" stroke="#000000" stroke-width="14.88" stroke-linejoin="bevel" points="8543.8,823.876 8543.8,1163.68" />
<path class="BarLine" d="M8616.25,952.439 C8616.25,942.84 8608.64,934.896 8599.04,934.896 C8589.44,934.896 8581.83,942.84 8581.83,952.439 C8581.83,962.038 8589.44,969.982 8599.04,969.982 C8608.64,969.982 8616.25,962.038 8616.25,952.439"/>
<path class="BarLine" d="M8616.25,1035.12 C8616.25,1025.52 8608.64,1017.57 8599.04,1017.57 C8589.44,1017.57 8581.83,1025.52 8581.83,1035.12 C8581.83,1044.72 8589.44,1052.66 8599.04,1052.66 C8608.64,1052.66 8616.25,1044.72 8616.25,1035.12"/>
<path class="BarLine" d="M8384.26,952.439 C8384.26,942.84 8376.65,934.896 8367.05,934.896 C8357.45,934.896 8349.84,942.84 8349.84,952.439 C8349.84,962.038 8357.45,969.982 8367.05,969.982 C8376.65,969.982 8384.26,962.038 8384.26,952.439"/>
<path class="BarLine" d="M8384.26,1035.12 C8384.26,1025.52 8376.65,1017.57 8367.05,1017.57 C8357.45,1017.57 8349.84,1025.52 8349.84,1035.12 C8349.84,1044.72 8357.45,1052.66 8367.05,1052.66 C8376.65,1052.66 8384.26,1044.72 8384.26,1035.12"/>
<polyline class="BarLine" fill="none" stroke="#000000" stroke-width="14.88" stroke-linejoin="bevel" points="8422.27,823.876 8422.27,1163.68" />
<polyline class="BarLine" fill="none" stroke="#000000" stroke-width="45.47" stroke-linejoin="bevel" points="8483.04,823.876 8483.04,1163.68" />
<polyline class="BarLine" fill="none" stroke="#000000" stroke-width="14.88" stroke-linejoin="bevel" points="6638.38,1691.99 6638.38,2031.79" />
<polyline class="BarLine" fill="none" stroke="#000000" stroke-width="14.88" stroke-linejoin="bevel" points="3101.24,823.876 3101.24,1163.68" />
<polyline class="BarLine" fill="none" stroke="#000000" stroke-width="14.88" stroke-linejoin="bevel" points="7698.06,823.876 7698.06,1163.68" />
<polyline class="BarLine" fill="none" stroke="#000000" stroke-width="14.88" stroke-linejoin="bevel" points="5360.39,2560.1 5360.39,2899.9" />
<polyline class="BarLine" fill="none" stroke="#000000" stroke-width="14.88" stroke-linejoin="bevel" points="6521.53,823.876 6521.53,1163.68" />
<polyline class="BarLine" fill="none" stroke="#000000" stroke-width="14.88" stroke-linejoin="bevel" points="5321.32,823.876 5321.32,1163.68" />
<polyline class="BarLine" fill="none" stroke="#000000" stroke-width="14.88" stroke-linejoin="bevel" points="6786.75,2560.1 6786.75,2899.9" />
<path class="Accidental" d="M2296.92,1093.3 L2326.38,1087.34 L2326.38,1141.96 L2296.92,1148.25 L2296.92,1093.3 M2348.23,1083.04 C2350.21,1082.71 2351.87,1080.39 2351.87,1078.4 L2351.87,1058.88 C2351.87,1056.23 2349.88,1054.24 2347.23,1054.24 L2346.57,1054.24 L2335.65,1056.56 L2335.65,1007.24 L2326.38,1007.24 L2326.38,1058.54 L2296.92,1064.5 L2296.92,1017.83 L2287.65,1017.83 L2287.65,1066.49 L2274.74,1069.14 C2272.76,1069.47 2271.1,1071.78 2271.1,1073.77 L2271.1,1092.97 C2271.1,1095.62 2273.09,1097.6 2275.74,1097.6 L2276.73,1097.6 L2287.65,1095.29 L2287.65,1149.9 L2274.74,1152.55 C2272.76,1152.88 2271.1,1155.2 2271.1,1157.18 L2271.1,1176.38 C2271.1,1179.03 2273.09,1181.01 2275.74,1181.01 L2276.73,1181.01 L2287.65,1178.7 L2287.65,1228.02 L2296.92,1228.02 L2296.92,1176.71 L2326.38,1170.75 L2326.38,1217.42 L2335.65,1217.42 L2335.65,1168.77 L2348.23,1166.45 C2350.21,1166.12 2351.87,1163.8 2351.87,1161.82 L2351.87,1142.29 C2351.87,1139.64 2349.88,1137.65 2347.23,1137.65 L2346.57,1137.65 L2335.65,1139.97 L2335.65,1085.36 L2348.23,1083.04 "/>
<path class="Accidental" d="M1770.63,2829.52 L1800.08,2823.56 L1800.08,2878.18 L1770.63,2884.47 L1770.63,2829.52 M1821.93,2819.26 C1823.92,2818.93 1825.57,2816.61 1825.57,2814.63 L1825.57,2795.1 C1825.57,2792.45 1823.59,2790.46 1820.94,2790.46 L1820.28,2790.46 L1809.35,2792.78 L1809.35,2743.46 L1800.08,2743.46 L1800.08,2794.77 L1770.63,2800.72 L1770.63,2754.05 L1761.36,2754.05 L1761.36,2802.71 L1748.45,2805.36 C1746.46,2805.69 1744.81,2808.01 1744.81,2809.99 L1744.81,2829.19 C1744.81,2831.84 1746.79,2833.82 1749.44,2833.82 L1750.43,2833.82 L1761.36,2831.51 L1761.36,2886.12 L1748.45,2888.77 C1746.46,2889.1 1744.81,2891.42 1744.81,2893.4 L1744.81,2912.6 C1744.81,2915.25 1746.79,2917.24 1749.44,2917.24 L1750.43,2917.24 L1761.36,2914.92 L1761.36,2964.24 L1770.63,2964.24 L1770.63,2912.93 L1800.08,2906.97 L1800.08,2953.65 L1809.35,2953.65 L1809.35,2904.99 L1821.93,2902.67 C1823.92,2902.34 1825.57,2900.02 1825.57,2898.04 L1825.57,2878.51 C1825.57,2875.86 1823.59,2873.87 1820.94,2873.87 L1820.28,2873.87 L1809.35,2876.19 L1809.35,2821.58 L1821.93,2819.26 "/>
<polyline class="Stem" fill="none" stroke="#000000" stroke-width="8.27" stroke-linejoin="bevel" points="3216.16,1007.67 3216.16,1241.81" />
<polyline class="Stem" fill="none" stroke="#000000" stroke-width="8.27" stroke-linejoin="bevel" points="6852.51,1931.34 6852.51,1655.2" />
<polyline class="Stem" fill="none" stroke="#000000" stroke-width="8.27" stroke-linejoin="bevel" points="7433.31,1063.23 7433.31,787.085" />
<polyline class="Stem" fill="none" stroke="#000000" stroke-width="8.27" stroke-linejoin="bevel" points="4366.19,2758.11 4366.19,2502.64" />
<polyline class="Stem" fill="none" stroke="#000000" stroke-width="8.27" stroke-linejoin="bevel" points="6636.45,1007.67 6636.45,1241.81" />
<polyline class="Stem" fill="none" stroke="#000000" stroke-width="8.27" stroke-linejoin="bevel" points="7844.33,2799.45 7844.33,2523.31" />
<polyline class="Stem" fill="none" stroke="#000000" stroke-width="8.27" stroke-linejoin="bevel" points="7912.19,1063.23 7912.19,787.085" />
<polyline class="Stem" fill="none" stroke="#000000" stroke-width="8.27" stroke-linejoin="bevel" points="7553.64,2758.11 7553.64,2503.3" />
<polyline class="Stem" fill="none" stroke="#000000" stroke-width="8.27" stroke-linejoin="bevel" points="2836.48,1063.23 2836.48,787.085" />
<polyline class="Stem" fill="none" stroke="#000000" stroke-width="8.27" stroke-linejoin="bevel" points="5475.31,2743.89 5475.31,2978.03" />
<polyline class="Stem" fill="none" stroke="#000000" stroke-width="8.27" stroke-linejoin="bevel" points="7192.87,1021.89 7192.87,767.077" />
<polyline class="Stem" fill="none" stroke="#000000" stroke-width="8.27" stroke-linejoin="bevel" points="8723.71,1007.67 8723.71,1220.8" />
<polyline class="Stem" fill="none" stroke="#000000" stroke-width="8.27" stroke-linejoin="bevel" points="2475.82,1104.57 2475.82,828.424" />
<polyline class="Stem" fill="none" stroke="#000000" stroke-width="8.27" stroke-linejoin="bevel" points="3811.92,2799.45 3811.92,2523.31" />
<polyline class="Stem" fill="none" stroke="#000000" stroke-width="8.27" stroke-linejoin="bevel" points="8964.15,966.329 8964.15,1200.81" />
<polyline class="Stem" fill="none" stroke="#000000" stroke-width="8.27" stroke-linejoin="bevel" points="3375.88,2758.11 3375.88,2502.64" />
<polyline class="Stem" fill="none" stroke="#000000" stroke-width="8.27" stroke-linejoin="bevel" points="6157.57,924.991 6157.57,1200.47" />
<polyline class="Stem" fill="none" stroke="#000000" stroke-width="8.27" stroke-linejoin="bevel" points="6010.57,2758.11 6010.57,2502.64" />
<polyline class="Stem" fill="none" stroke="#000000" stroke-width="8.27" stroke-linejoin="bevel" points="2840.63,2743.89 2840.63,2978.03" />
<polyline class="Stem" fill="none" stroke="#000000" stroke-width="8.27" stroke-linejoin="bevel" points="5896.12,1021.89 5896.12,766.416" />
<polyline class="Stem" fill="none" stroke="#000000" stroke-width="8.27" stroke-linejoin="bevel" points="1414.27,1793.1 1414.27,2068.58" />
<polyline class="Stem" fill="none" stroke="#000000" stroke-width="8.27" stroke-linejoin="bevel" points="2115.16,1063.23 2115.16,787.085" />
<polyline class="Stem" fill="none" stroke="#000000" stroke-width="8.27" stroke-linejoin="bevel" points="1814.23,1793.1 1814.23,2068.58" />
<polyline class="Stem" fill="none" stroke="#000000" stroke-width="8.27" stroke-linejoin="bevel" points="2385.57,2799.45 2385.57,2523.31" />
<polyline class="Stem" fill="none" stroke="#000000" stroke-width="8.27" stroke-linejoin="bevel" points="2313.39,1931.34 2313.39,1655.2" />
<polyline class="Stem" fill="none" stroke="#000000" stroke-width="8.27" stroke-linejoin="bevel" points="6901.67,2743.89 6901.67,2978.03" />
<polyline class="Stem" fill="none" stroke="#000000" stroke-width="8.27" stroke-linejoin="bevel" points="6347.4,2661.21 6347.4,2936.69" />
<polyline class="Stem" fill="none" stroke="#000000" stroke-width="8.27" stroke-linejoin="bevel" points="5436.25,1007.67 5436.25,1241.81" />
<polyline class="Stem" fill="none" stroke="#000000" stroke-width="8.27" stroke-linejoin="bevel" points="2732.36,1751.76 2732.36,2027.24" />
<polyline class="Stem" fill="none" stroke="#000000" stroke-width="8.27" stroke-linejoin="bevel" points="1949.53,2840.79 1949.53,2564.64" />
<polyline class="Stem" fill="none" stroke="#000000" stroke-width="8.27" stroke-linejoin="bevel" points="3132.32,1793.1 3132.32,2068.58" />
<polyline class="Stem" fill="none" stroke="#000000" stroke-width="8.27" stroke-linejoin="bevel" points="1513.48,2799.45 1513.48,2523.31" />
<polyline class="Stem" fill="none" stroke="#000000" stroke-width="8.27" stroke-linejoin="bevel" points="3532.27,1834.44 3532.27,2068.89" />
<polyline class="Stem" fill="none" stroke="#000000" stroke-width="8.27" stroke-linejoin="bevel" points="3676.03,1021.89 3676.03,766.416" />
<polyline class="Stem" fill="none" stroke="#000000" stroke-width="8.27" stroke-linejoin="bevel" points="8398.61,2799.45 8398.61,2523.31" />
<polyline class="Stem" fill="none" stroke="#000000" stroke-width="8.27" stroke-linejoin="bevel" points="3798.91,1875.78 3798.91,2088.94" />
<polyline class="Stem" fill="none" stroke="#000000" stroke-width="8.27" stroke-linejoin="bevel" points="9037.17,2055.35 9037.17,1799.88" />
<polyline class="Stem" fill="none" stroke="#000000" stroke-width="8.27" stroke-linejoin="bevel" points="6235.11,1875.78 6235.11,2109.92" />
<polyline class="Stem" fill="none" stroke="#000000" stroke-width="8.27" stroke-linejoin="bevel" points="1696.38,1187.24 1696.38,911.101" />
<polyline class="Stem" fill="none" stroke="#000000" stroke-width="8.27" stroke-linejoin="bevel" points="8770.53,2055.35 8770.53,1799.88" />
<polyline class="Stem" fill="none" stroke="#000000" stroke-width="8.27" stroke-linejoin="bevel" points="8170.6,1890 8170.6,1634.53" />
<polyline class="Stem" fill="none" stroke="#000000" stroke-width="8.27" stroke-linejoin="bevel" points="4783.7,1793.1 4783.7,2027.55" />
<polyline class="Stem" fill="none" stroke="#000000" stroke-width="8.27" stroke-linejoin="bevel" points="5056.57,1187.24 5056.57,911.101" />
<polyline class="Stem" fill="none" stroke="#000000" stroke-width="8.27" stroke-linejoin="bevel" points="4515.58,1021.89 4515.58,766.416" />
<polyline class="Stem" fill="none" stroke="#000000" stroke-width="8.27" stroke-linejoin="bevel" points="5050.34,1834.44 5050.34,2047.6" />
<polyline class="Stem" fill="none" stroke="#000000" stroke-width="8.27" stroke-linejoin="bevel" points="7553.21,1875.78 7553.21,2109.92" />
<polyline class="Stem" fill="none" stroke="#000000" stroke-width="8.27" stroke-linejoin="bevel" points="4183.77,1834.44 4183.77,2089.25" />
<polyline class="Stem" fill="none" stroke="#000000" stroke-width="8.27" stroke-linejoin="bevel" points="4036.69,1063.23 4036.69,787.085" />
<polyline class="Stem" fill="none" stroke="#000000" stroke-width="8.27" stroke-linejoin="bevel" points="5435.21,1875.78 5435.21,2109.92" />
<polyline class="Stem" fill="none" stroke="#000000" stroke-width="8.27" stroke-linejoin="bevel" points="7153.25,1834.44 7153.25,2089.25" />
<polyline class="Stem" fill="none" stroke="#000000" stroke-width="8.27" stroke-linejoin="bevel" points="5934.37,1890 5934.37,1634.53" />
<polyline class="Stem" fill="none" stroke="#000000" stroke-width="8.27" stroke-linejoin="bevel" points="5020.26,2923.46 5020.26,2647.32" />
<path class="Hook" d="M7549.51,2577.77 C7549.51,2578.77 7549.84,2580.42 7552.15,2581.41 C7566.39,2586.05 7594.85,2603.92 7616.37,2640.66 C7622.33,2650.92 7631.93,2665.16 7631.93,2692.63 C7631.93,2716.46 7625.64,2740.96 7617.03,2764.79 C7616.37,2766.77 7615.71,2768.43 7616.04,2769.75 C7616.04,2771.74 7617.36,2773.06 7619.35,2773.06 C7621.66,2773.06 7623.32,2771.74 7624.64,2769.42 C7639.54,2742.94 7645.17,2712.16 7645.17,2682.04 C7643.51,2639.34 7619.02,2607.89 7619.02,2607.89 C7620.01,2607.89 7588.56,2567.18 7579.63,2553.28 C7567.38,2534.41 7561.75,2515.55 7561.09,2514.22 C7560.76,2513.23 7557.78,2501.31 7557.78,2501.31 C7557.45,2499.99 7555.8,2498.66 7553.81,2498.66 C7551.49,2498.66 7549.51,2500.65 7549.51,2502.97 L7549.51,2577.77 "/>
<path class="Hook" d="M7188.73,841.553 C7188.73,842.546 7189.06,844.201 7191.38,845.194 C7205.61,849.828 7234.08,867.702 7255.59,904.443 C7261.55,914.704 7271.15,928.937 7271.15,956.41 C7271.15,980.242 7264.86,1004.74 7256.26,1028.57 C7255.59,1030.55 7254.93,1032.21 7255.26,1033.53 C7255.26,1035.52 7256.59,1036.84 7258.57,1036.84 C7260.89,1036.84 7262.54,1035.52 7263.87,1033.2 C7278.76,1006.72 7284.39,975.939 7284.39,945.818 C7282.74,903.119 7258.24,871.674 7258.24,871.674 C7259.23,871.674 7227.79,830.961 7218.85,817.059 C7206.61,798.192 7200.98,779.325 7200.32,778.001 C7199.99,777.008 7197.01,765.092 7197.01,765.092 C7196.68,763.768 7195.02,762.444 7193.03,762.444 C7190.72,762.444 7188.73,764.43 7188.73,766.747 L7188.73,841.553 "/>
<path class="Note" d="M8320.08,2841.14 C8309.16,2841.14 8306.84,2832.2 8306.84,2829.23 C8306.84,2813.01 8362.45,2784.54 8378.01,2784.54 C8385.95,2784.54 8391.25,2789.17 8391.25,2796.46 C8391.25,2813.01 8335.31,2841.14 8320.08,2841.14 M8365.76,2768.98 C8333.65,2768.98 8295.26,2795.79 8295.26,2826.58 C8295.26,2840.81 8305.52,2856.7 8332.33,2856.7 C8366.75,2856.7 8402.83,2828.56 8402.83,2799.44 C8402.83,2779.91 8386.28,2768.98 8365.76,2768.98"/>
<path class="Note" d="M4437.06,1063.58 C4426.14,1063.58 4423.82,1054.65 4423.82,1051.67 C4423.82,1035.45 4479.43,1006.98 4494.98,1006.98 C4502.93,1006.98 4508.22,1011.62 4508.22,1018.9 C4508.22,1035.45 4452.28,1063.58 4437.06,1063.58 M4482.74,991.425 C4450.63,991.425 4412.23,1018.24 4412.23,1049.02 C4412.23,1063.25 4422.49,1079.14 4449.31,1079.14 C4483.73,1079.14 4519.81,1051 4519.81,1021.88 C4519.81,1002.35 4503.26,991.425 4482.74,991.425"/>
<path class="Note" d="M5831.03,1917.13 C5831.03,1931.36 5841.29,1947.25 5868.1,1947.25 C5902.52,1947.25 5938.6,1919.11 5938.6,1889.99 C5938.6,1870.46 5922.05,1859.53 5901.53,1859.53 C5869.42,1859.53 5831.03,1886.68 5831.03,1917.13"/>
<path class="Note" d="M6749.16,1958.47 C6749.16,1972.7 6759.42,1988.59 6786.24,1988.59 C6820.66,1988.59 6856.74,1960.45 6856.74,1931.33 C6856.74,1911.8 6840.19,1900.87 6819.67,1900.87 C6787.56,1900.87 6749.16,1928.02 6749.16,1958.47"/>
<path class="Note" d="M5431.07,1875.79 C5431.07,1890.02 5441.33,1905.91 5468.14,1905.91 C5502.57,1905.91 5538.65,1877.78 5538.65,1848.65 C5538.65,1829.12 5522.1,1818.2 5501.57,1818.2 C5469.47,1818.2 5431.07,1845.34 5431.07,1875.79"/>
<path class="Note" d="M7149.12,1834.45 C7149.12,1848.68 7159.38,1864.57 7186.19,1864.57 C7220.61,1864.57 7256.69,1836.44 7256.69,1807.31 C7256.69,1787.78 7240.14,1776.86 7219.62,1776.86 C7187.51,1776.86 7149.12,1804 7149.12,1834.45"/>
<path class="Note" d="M5046.21,1834.45 C5046.21,1848.68 5056.47,1864.57 5083.28,1864.57 C5117.7,1864.57 5153.78,1836.44 5153.78,1807.31 C5153.78,1787.78 5137.23,1776.86 5116.71,1776.86 C5084.6,1776.86 5046.21,1804 5046.21,1834.45"/>
<path class="Note" d="M7549.07,1875.79 C7549.07,1890.02 7559.33,1905.91 7586.14,1905.91 C7620.57,1905.91 7656.65,1877.78 7656.65,1848.65 C7656.65,1829.12 7640.1,1818.2 7619.58,1818.2 C7587.47,1818.2 7549.07,1845.34 7549.07,1875.79"/>
<path class="Note" d="M1593.04,1214.37 C1593.04,1228.61 1603.3,1244.49 1630.11,1244.49 C1664.53,1244.49 1700.61,1216.36 1700.61,1187.23 C1700.61,1167.7 1684.06,1156.78 1663.54,1156.78 C1631.43,1156.78 1593.04,1183.92 1593.04,1214.37"/>
<path class="Note" d="M4779.57,1793.11 C4779.57,1807.35 4789.83,1823.23 4816.64,1823.23 C4851.07,1823.23 4887.15,1795.1 4887.15,1765.97 C4887.15,1746.44 4870.6,1735.52 4850.07,1735.52 C4817.97,1735.52 4779.57,1762.66 4779.57,1793.11"/>
<path class="Note" d="M4204.46,1849.02 C4193.54,1849.02 4191.22,1840.08 4191.22,1837.1 C4191.22,1820.88 4246.83,1792.41 4262.39,1792.41 C4270.33,1792.41 4275.63,1797.05 4275.63,1804.33 C4275.63,1820.88 4219.69,1849.02 4204.46,1849.02 M4250.14,1776.86 C4218.04,1776.86 4179.64,1803.67 4179.64,1834.45 C4179.64,1848.68 4189.9,1864.57 4216.71,1864.57 C4251.14,1864.57 4287.21,1836.44 4287.21,1807.31 C4287.21,1787.78 4270.66,1776.86 4250.14,1776.86"/>
<path class="Note" d="M8092.08,1931.69 C8081.16,1931.69 8078.84,1922.76 8078.84,1919.78 C8078.84,1903.56 8134.45,1875.09 8150.01,1875.09 C8157.95,1875.09 8163.25,1879.73 8163.25,1887.01 C8163.25,1903.56 8107.31,1931.69 8092.08,1931.69 M8137.76,1859.53 C8105.65,1859.53 8067.26,1886.35 8067.26,1917.13 C8067.26,1931.36 8077.52,1947.25 8104.33,1947.25 C8138.75,1947.25 8174.83,1919.11 8174.83,1889.99 C8174.83,1870.46 8158.28,1859.53 8137.76,1859.53"/>
<path class="Note" d="M2011.82,1090.36 C2011.82,1104.59 2022.08,1120.48 2048.89,1120.48 C2083.31,1120.48 2119.39,1092.34 2119.39,1063.22 C2119.39,1043.69 2102.84,1032.76 2082.32,1032.76 C2050.21,1032.76 2011.82,1059.91 2011.82,1090.36"/>
<path class="Note" d="M8667.19,2082.48 C8667.19,2096.72 8677.45,2112.6 8704.26,2112.6 C8738.68,2112.6 8774.76,2084.47 8774.76,2055.34 C8774.76,2035.81 8758.21,2024.89 8737.69,2024.89 C8705.58,2024.89 8667.19,2052.03 8667.19,2082.48"/>
<path class="Note" d="M2372.48,1131.7 C2372.48,1145.93 2382.74,1161.82 2409.55,1161.82 C2443.97,1161.82 2480.05,1133.68 2480.05,1104.55 C2480.05,1085.02 2463.5,1074.1 2442.98,1074.1 C2410.87,1074.1 2372.48,1101.24 2372.48,1131.7"/>
<path class="Note" d="M3794.77,1875.79 C3794.77,1890.02 3805.04,1905.91 3831.85,1905.91 C3866.27,1905.91 3902.35,1877.78 3902.35,1848.65 C3902.35,1829.12 3885.8,1818.2 3865.28,1818.2 C3833.17,1818.2 3794.77,1845.34 3794.77,1875.79"/>
<path class="Note" d="M8933.82,2082.48 C8933.82,2096.72 8944.08,2112.6 8970.9,2112.6 C9005.32,2112.6 9041.4,2084.47 9041.4,2055.34 C9041.4,2035.81 9024.85,2024.89 9004.33,2024.89 C8972.22,2024.89 8933.82,2052.03 8933.82,2082.48"/>
<path class="Note" d="M7740.99,2826.58 C7740.99,2840.81 7751.25,2856.7 7778.06,2856.7 C7812.48,2856.7 7848.56,2828.56 7848.56,2799.44 C7848.56,2779.91 7832.01,2768.98 7811.49,2768.98 C7779.38,2768.98 7740.99,2796.13 7740.99,2826.58"/>
<path class="Note" d="M3528.14,1834.45 C3528.14,1848.68 3538.4,1864.57 3565.21,1864.57 C3599.63,1864.57 3635.71,1836.44 3635.71,1807.31 C3635.71,1787.78 3619.16,1776.86 3598.64,1776.86 C3566.53,1776.86 3528.14,1804 3528.14,1834.45"/>
<path class="Note" d="M2733.14,1090.36 C2733.14,1104.59 2743.4,1120.48 2770.21,1120.48 C2804.63,1120.48 2840.71,1092.34 2840.71,1063.22 C2840.71,1043.69 2824.16,1032.76 2803.64,1032.76 C2771.53,1032.76 2733.14,1059.91 2733.14,1090.36"/>
<path class="Note" d="M7450.29,2785.24 C7450.29,2799.47 7460.55,2815.36 7487.37,2815.36 C7521.79,2815.36 7557.87,2787.23 7557.87,2758.1 C7557.87,2738.57 7541.32,2727.65 7520.8,2727.65 C7488.69,2727.65 7450.29,2754.79 7450.29,2785.24"/>
<path class="Note" d="M3128.18,1793.11 C3128.18,1807.35 3138.44,1823.23 3165.26,1823.23 C3199.68,1823.23 3235.76,1795.1 3235.76,1765.97 C3235.76,1746.44 3219.21,1735.52 3198.69,1735.52 C3166.58,1735.52 3128.18,1762.66 3128.18,1793.11"/>
<path class="Note" d="M1410.14,2826.58 C1410.14,2840.81 1420.4,2856.7 1447.21,2856.7 C1481.63,2856.7 1517.71,2828.56 1517.71,2799.44 C1517.71,2779.91 1501.16,2768.98 1480.64,2768.98 C1448.53,2768.98 1410.14,2796.13 1410.14,2826.58"/>
<path class="Note" d="M2728.23,1751.77 C2728.23,1766.01 2738.49,1781.9 2765.3,1781.9 C2799.73,1781.9 2835.8,1753.76 2835.8,1724.63 C2835.8,1705.1 2819.25,1694.18 2798.73,1694.18 C2766.63,1694.18 2728.23,1721.32 2728.23,1751.77"/>
<path class="Note" d="M1846.18,2867.92 C1846.18,2882.15 1856.44,2898.04 1883.25,2898.04 C1917.68,2898.04 1953.75,2869.9 1953.75,2840.77 C1953.75,2821.25 1937.2,2810.32 1916.68,2810.32 C1884.58,2810.32 1846.18,2837.46 1846.18,2867.92"/>
<path class="Note" d="M2210.05,1958.47 C2210.05,1972.7 2220.31,1988.59 2247.12,1988.59 C2281.54,1988.59 2317.62,1960.45 2317.62,1931.33 C2317.62,1911.8 2301.07,1900.87 2280.55,1900.87 C2248.44,1900.87 2210.05,1928.02 2210.05,1958.47"/>
<path class="Note" d="M1810.09,1793.11 C1810.09,1807.35 1820.35,1823.23 1847.16,1823.23 C1881.59,1823.23 1917.67,1795.1 1917.67,1765.97 C1917.67,1746.44 1901.12,1735.52 1880.59,1735.52 C1848.49,1735.52 1810.09,1762.66 1810.09,1793.11"/>
<path class="Note" d="M2282.22,2826.58 C2282.22,2840.81 2292.48,2856.7 2319.29,2856.7 C2353.72,2856.7 2389.8,2828.56 2389.8,2799.44 C2389.8,2779.91 2373.25,2768.98 2352.72,2768.98 C2320.62,2768.98 2282.22,2796.13 2282.22,2826.58"/>
<path class="Note" d="M1410.14,1793.11 C1410.14,1807.35 1420.4,1823.23 1447.21,1823.23 C1481.63,1823.23 1517.71,1795.1 1517.71,1765.97 C1517.71,1746.44 1501.16,1735.52 1480.64,1735.52 C1448.53,1735.52 1410.14,1762.66 1410.14,1793.11"/>
<path class="Note" d="M3212.02,1007.68 C3212.02,1021.91 3222.29,1037.8 3249.1,1037.8 C3283.52,1037.8 3319.6,1009.67 3319.6,980.538 C3319.6,961.009 3303.05,950.086 3282.53,950.086 C3250.42,950.086 3212.02,977.228 3212.02,1007.68"/>
<path class="Note" d="M3572.68,1049.02 C3572.68,1063.25 3582.95,1079.14 3609.76,1079.14 C3644.18,1079.14 3680.26,1051 3680.26,1021.88 C3680.26,1002.35 3663.71,991.425 3643.19,991.425 C3611.08,991.425 3572.68,1018.57 3572.68,1049.02"/>
<path class="Note" d="M2836.49,2743.9 C2836.49,2758.13 2846.75,2774.02 2873.56,2774.02 C2907.99,2774.02 2944.07,2745.89 2944.07,2716.76 C2944.07,2697.23 2927.52,2686.31 2907,2686.31 C2874.89,2686.31 2836.49,2713.45 2836.49,2743.9"/>
<path class="Note" d="M8960.02,966.341 C8960.02,980.574 8970.28,996.462 8997.09,996.462 C9031.52,996.462 9067.59,968.327 9067.59,939.199 C9067.59,919.67 9051.04,908.747 9030.52,908.747 C8998.42,908.747 8960.02,935.889 8960.02,966.341"/>
<path class="Note" d="M3272.53,2785.24 C3272.53,2799.47 3282.8,2815.36 3309.61,2815.36 C3344.03,2815.36 3380.11,2787.23 3380.11,2758.1 C3380.11,2738.57 3363.56,2727.65 3343.04,2727.65 C3310.93,2727.65 3272.53,2754.79 3272.53,2785.24"/>
<path class="Note" d="M6897.54,2743.9 C6897.54,2758.13 6907.8,2774.02 6934.61,2774.02 C6969.03,2774.02 7005.11,2745.89 7005.11,2716.76 C7005.11,2697.23 6988.56,2686.31 6968.04,2686.31 C6935.93,2686.31 6897.54,2713.45 6897.54,2743.9"/>
<path class="Note" d="M3708.58,2826.58 C3708.58,2840.81 3718.84,2856.7 3745.65,2856.7 C3780.07,2856.7 3816.15,2828.56 3816.15,2799.44 C3816.15,2779.91 3799.6,2768.98 3779.08,2768.98 C3746.97,2768.98 3708.58,2796.13 3708.58,2826.58"/>
<path class="Note" d="M8719.58,1007.68 C8719.58,1021.91 8729.84,1037.8 8756.65,1037.8 C8791.08,1037.8 8827.15,1009.67 8827.15,980.538 C8827.15,961.009 8810.6,950.086 8790.08,950.086 C8757.98,950.086 8719.58,977.228 8719.58,1007.68"/>
<path class="Note" d="M7833.67,1104.92 C7822.75,1104.92 7820.43,1095.98 7820.43,1093.01 C7820.43,1076.79 7876.04,1048.32 7891.6,1048.32 C7899.54,1048.32 7904.84,1052.95 7904.84,1060.24 C7904.84,1076.79 7848.9,1104.92 7833.67,1104.92 M7879.35,1032.76 C7847.24,1032.76 7808.85,1059.57 7808.85,1090.36 C7808.85,1104.59 7819.11,1120.48 7845.92,1120.48 C7880.34,1120.48 7916.42,1092.34 7916.42,1063.22 C7916.42,1043.69 7899.87,1032.76 7879.35,1032.76"/>
<path class="Note" d="M7329.96,1090.36 C7329.96,1104.59 7340.22,1120.48 7367.03,1120.48 C7401.46,1120.48 7437.53,1092.34 7437.53,1063.22 C7437.53,1043.69 7420.98,1032.76 7400.46,1032.76 C7368.36,1032.76 7329.96,1059.91 7329.96,1090.36"/>
<path class="Note" d="M4287.67,2799.8 C4276.75,2799.8 4274.43,2790.87 4274.43,2787.89 C4274.43,2771.67 4330.04,2743.2 4345.6,2743.2 C4353.54,2743.2 4358.84,2747.84 4358.84,2755.12 C4358.84,2771.67 4302.9,2799.8 4287.67,2799.8 M4333.35,2727.65 C4301.24,2727.65 4262.85,2754.46 4262.85,2785.24 C4262.85,2799.47 4273.11,2815.36 4299.92,2815.36 C4334.34,2815.36 4370.42,2787.23 4370.42,2758.1 C4370.42,2738.57 4353.87,2727.65 4333.35,2727.65"/>
<path class="Note" d="M7089.52,1049.02 C7089.52,1063.25 7099.78,1079.14 7126.59,1079.14 C7161.02,1079.14 7197.09,1051 7197.09,1021.88 C7197.09,1002.35 7180.54,991.425 7160.02,991.425 C7127.92,991.425 7089.52,1018.57 7089.52,1049.02"/>
<path class="Note" d="M4916.91,2950.59 C4916.91,2964.83 4927.17,2980.71 4953.98,2980.71 C4988.41,2980.71 5024.49,2952.58 5024.49,2923.45 C5024.49,2903.92 5007.94,2893 4987.41,2893 C4955.31,2893 4916.91,2920.14 4916.91,2950.59"/>
<path class="Note" d="M3933.34,1090.36 C3933.34,1104.59 3943.61,1120.48 3970.42,1120.48 C4004.84,1120.48 4040.92,1092.34 4040.92,1063.22 C4040.92,1043.69 4024.37,1032.76 4003.85,1032.76 C3971.74,1032.76 3933.34,1059.91 3933.34,1090.36"/>
<path class="Note" d="M6632.32,1007.68 C6632.32,1021.91 6642.58,1037.8 6669.39,1037.8 C6703.82,1037.8 6739.9,1009.67 6739.9,980.538 C6739.9,961.009 6723.35,950.086 6702.82,950.086 C6670.72,950.086 6632.32,977.228 6632.32,1007.68"/>
<path class="Note" d="M6153.43,925.003 C6153.43,939.236 6163.69,955.124 6190.5,955.124 C6224.93,955.124 6261.01,926.989 6261.01,897.861 C6261.01,878.332 6244.46,867.409 6223.94,867.409 C6191.83,867.409 6153.43,894.551 6153.43,925.003"/>
<path class="Note" d="M5471.18,2743.9 C5471.18,2758.13 5481.44,2774.02 5508.25,2774.02 C5542.68,2774.02 5578.76,2745.89 5578.76,2716.76 C5578.76,2697.23 5562.21,2686.31 5541.68,2686.31 C5509.58,2686.31 5471.18,2713.45 5471.18,2743.9"/>
<path class="Note" d="M5792.77,1049.02 C5792.77,1063.25 5803.03,1079.14 5829.84,1079.14 C5864.27,1079.14 5900.35,1051 5900.35,1021.88 C5900.35,1002.35 5883.8,991.425 5863.28,991.425 C5831.17,991.425 5792.77,1018.57 5792.77,1049.02"/>
<path class="Note" d="M5907.22,2785.24 C5907.22,2799.47 5917.48,2815.36 5944.29,2815.36 C5978.72,2815.36 6014.8,2787.23 6014.8,2758.1 C6014.8,2738.57 5998.25,2727.65 5977.73,2727.65 C5945.62,2727.65 5907.22,2754.79 5907.22,2785.24"/>
<path class="Note" d="M5432.11,1007.68 C5432.11,1021.91 5442.37,1037.8 5469.18,1037.8 C5503.61,1037.8 5539.69,1009.67 5539.69,980.538 C5539.69,961.009 5523.14,950.086 5502.61,950.086 C5470.51,950.086 5432.11,977.228 5432.11,1007.68"/>
<path class="Note" d="M6343.26,2661.22 C6343.26,2675.46 6353.53,2691.34 6380.34,2691.34 C6414.76,2691.34 6450.84,2663.21 6450.84,2634.08 C6450.84,2614.55 6434.29,2603.63 6413.77,2603.63 C6381.66,2603.63 6343.26,2630.77 6343.26,2661.22"/>
<path class="Note" d="M4953.22,1214.37 C4953.22,1228.61 4963.48,1244.49 4990.3,1244.49 C5024.72,1244.49 5060.8,1216.36 5060.8,1187.23 C5060.8,1167.7 5044.25,1156.78 5023.73,1156.78 C4991.62,1156.78 4953.22,1183.92 4953.22,1214.37"/>
<path class="Note" d="M6230.98,1875.79 C6230.98,1890.02 6241.24,1905.91 6268.05,1905.91 C6302.48,1905.91 6338.56,1877.78 6338.56,1848.65 C6338.56,1829.12 6322.01,1818.2 6301.48,1818.2 C6269.38,1818.2 6230.98,1845.34 6230.98,1875.79"/>
<path class="Clef" d="M909.689,2012.75 C903.069,2014.08 896.78,2014.74 890.491,2014.74 C843.158,2014.74 802.776,1981.64 802.776,1931.66 C802.776,1891.27 831.242,1855.2 860.37,1830.04 C865.997,1825.07 871.293,1820.44 876.258,1815.48 C879.237,1833.35 881.554,1848.91 883.871,1862.48 C853.75,1871.41 833.228,1903.19 833.228,1934.3 C833.228,1957.47 851.433,1989.25 877.913,1989.25 C880.561,1989.25 883.54,1987.93 883.54,1984.95 C883.54,1981.97 880.23,1980.31 876.258,1977.67 C863.349,1969.72 856.067,1961.12 856.067,1944.9 C856.067,1924.71 870.962,1908.49 890.491,1903.85 L909.689,2012.75 M880.561,1672.48 C883.54,1659.24 898.766,1624.49 915.978,1624.49 C920.943,1624.49 928.887,1640.71 928.887,1663.55 C928.887,1697.97 903.4,1723.79 880.561,1746.3 C878.575,1733.06 876.92,1720.15 876.92,1706.25 C876.92,1694 877.913,1682.74 880.561,1672.48 M956.691,1951.52 C956.691,1975.02 947.092,1999.18 923.591,2008.78 C916.64,1969.06 907.703,1916.43 905.386,1901.87 C935.176,1901.87 956.691,1922.06 956.691,1951.52 M811.051,2114.37 C811.051,2136.21 827.932,2165.01 872.617,2165.01 C888.174,2165.01 901.745,2161.04 913.661,2153.76 C931.535,2141.18 936.169,2119.33 936.169,2098.48 C936.169,2085.57 934.183,2070.68 930.873,2051.81 C929.88,2045.19 927.894,2035.26 925.908,2022.35 C958.346,2011.76 982.509,1978 982.509,1943.9 C982.509,1893.92 947.092,1860.16 898.766,1860.16 C895.456,1840.3 892.146,1820.77 889.167,1802.24 C924.253,1765.49 948.416,1724.12 948.416,1671.49 C948.416,1641.37 939.148,1616.88 933.852,1604.96 C925.908,1588.08 916.309,1576.49 910.351,1576.49 C908.034,1576.49 897.773,1580.47 886.85,1593.37 C865.666,1618.53 859.708,1660.9 859.708,1688.7 C859.708,1706.58 861.363,1722.8 866.99,1759.87 C866.659,1760.2 849.447,1777.74 842.496,1783.37 C812.375,1811.5 770.669,1851.55 770.669,1917.75 C770.669,1979.65 824.622,2028.31 886.188,2028.31 C895.787,2028.31 904.724,2027.32 912.337,2025.99 C918.626,2057.77 922.267,2080.94 922.267,2098.48 C922.267,2132.9 904.724,2151.11 871.293,2151.11 C863.349,2151.11 856.398,2149.45 855.736,2149.45 C855.405,2149.12 854.743,2148.79 854.743,2148.46 C854.743,2147.8 855.405,2147.47 856.398,2147.14 C871.955,2144.82 887.512,2131.58 887.512,2110.4 C887.512,2092.52 873.941,2073.66 849.116,2073.66 C825.946,2073.66 811.051,2092.52 811.051,2114.37"/>
<path class="Clef" d="M909.689,2880.86 C903.069,2882.19 896.78,2882.85 890.491,2882.85 C843.158,2882.85 802.776,2849.75 802.776,2799.77 C802.776,2759.38 831.242,2723.31 860.37,2698.15 C865.997,2693.18 871.293,2688.55 876.258,2683.59 C879.237,2701.46 881.554,2717.02 883.871,2730.59 C853.75,2739.52 833.228,2771.3 833.228,2802.41 C833.228,2825.58 851.433,2857.36 877.913,2857.36 C880.561,2857.36 883.54,2856.04 883.54,2853.06 C883.54,2850.08 880.23,2848.42 876.258,2845.78 C863.349,2837.83 856.067,2829.23 856.067,2813.01 C856.067,2792.82 870.962,2776.6 890.491,2771.96 L909.689,2880.86 M880.561,2540.59 C883.54,2527.35 898.766,2492.6 915.978,2492.6 C920.943,2492.6 928.887,2508.82 928.887,2531.66 C928.887,2566.08 903.4,2591.9 880.561,2614.41 C878.575,2601.17 876.92,2588.26 876.92,2574.36 C876.92,2562.11 877.913,2550.85 880.561,2540.59 M956.691,2819.63 C956.691,2843.13 947.092,2867.29 923.591,2876.89 C916.64,2837.17 907.703,2784.54 905.386,2769.98 C935.176,2769.98 956.691,2790.17 956.691,2819.63 M811.051,2982.48 C811.051,3004.32 827.932,3033.12 872.617,3033.12 C888.174,3033.12 901.745,3029.15 913.661,3021.87 C931.535,3009.29 936.169,2987.44 936.169,2966.59 C936.169,2953.68 934.183,2938.79 930.873,2919.92 C929.88,2913.3 927.894,2903.37 925.908,2890.46 C958.346,2879.87 982.509,2846.11 982.509,2812.01 C982.509,2762.03 947.092,2728.27 898.766,2728.27 C895.456,2708.41 892.146,2688.88 889.167,2670.35 C924.253,2633.6 948.416,2592.23 948.416,2539.6 C948.416,2509.48 939.148,2484.99 933.852,2473.07 C925.908,2456.19 916.309,2444.6 910.351,2444.6 C908.034,2444.6 897.773,2448.58 886.85,2461.48 C865.666,2486.64 859.708,2529.01 859.708,2556.81 C859.708,2574.69 861.363,2590.91 866.99,2627.98 C866.659,2628.31 849.447,2645.85 842.496,2651.48 C812.375,2679.61 770.669,2719.66 770.669,2785.86 C770.669,2847.76 824.622,2896.42 886.188,2896.42 C895.787,2896.42 904.724,2895.43 912.337,2894.1 C918.626,2925.88 922.267,2949.05 922.267,2966.59 C922.267,3001.01 904.724,3019.22 871.293,3019.22 C863.349,3019.22 856.398,3017.56 855.736,3017.56 C855.405,3017.23 854.743,3016.9 854.743,3016.57 C854.743,3015.91 855.405,3015.58 856.398,3015.25 C871.955,3012.93 887.512,2999.69 887.512,2978.51 C887.512,2960.63 873.941,2941.77 849.116,2941.77 C825.946,2941.77 811.051,2960.63 811.051,2982.48"/>
<path class="Clef" d="M909.689,1144.64 C903.069,1145.97 896.78,1146.63 890.491,1146.63 C843.158,1146.63 802.776,1113.53 802.776,1063.55 C802.776,1023.16 831.242,987.085 860.37,961.929 C865.997,956.964 871.293,952.33 876.258,947.365 C879.237,965.239 881.554,980.796 883.871,994.367 C853.75,1003.3 833.228,1035.08 833.228,1066.19 C833.228,1089.36 851.433,1121.14 877.913,1121.14 C880.561,1121.14 883.54,1119.82 883.54,1116.84 C883.54,1113.86 880.23,1112.2 876.258,1109.56 C863.349,1101.61 856.067,1093.01 856.067,1076.79 C856.067,1056.6 870.962,1040.38 890.491,1035.74 L909.689,1144.64 M880.561,804.373 C883.54,791.133 898.766,756.378 915.978,756.378 C920.943,756.378 928.887,772.597 928.887,795.436 C928.887,829.86 903.4,855.678 880.561,878.186 C878.575,864.946 876.92,852.037 876.92,838.135 C876.92,825.888 877.913,814.634 880.561,804.373 M956.691,1083.41 C956.691,1106.91 947.092,1131.07 923.591,1140.67 C916.64,1100.95 907.703,1048.32 905.386,1033.76 C935.176,1033.76 956.691,1053.95 956.691,1083.41 M811.051,1246.26 C811.051,1268.1 827.932,1296.9 872.617,1296.9 C888.174,1296.9 901.745,1292.93 913.661,1285.65 C931.535,1273.07 936.169,1251.22 936.169,1230.37 C936.169,1217.46 934.183,1202.57 930.873,1183.7 C929.88,1177.08 927.894,1167.15 925.908,1154.24 C958.346,1143.65 982.509,1109.89 982.509,1075.79 C982.509,1025.81 947.092,992.05 898.766,992.05 C895.456,972.19 892.146,952.661 889.167,934.125 C924.253,897.384 948.416,856.009 948.416,803.38 C948.416,773.259 939.148,748.765 933.852,736.849 C925.908,719.968 916.309,708.383 910.351,708.383 C908.034,708.383 897.773,712.355 886.85,725.264 C865.666,750.42 859.708,792.788 859.708,820.592 C859.708,838.466 861.363,854.685 866.99,891.757 C866.659,892.088 849.447,909.631 842.496,915.258 C812.375,943.393 770.669,983.444 770.669,1049.64 C770.669,1111.54 824.622,1160.2 886.188,1160.2 C895.787,1160.2 904.724,1159.21 912.337,1157.88 C918.626,1189.66 922.267,1212.83 922.267,1230.37 C922.267,1264.79 904.724,1283 871.293,1283 C863.349,1283 856.398,1281.34 855.736,1281.34 C855.405,1281.01 854.743,1280.68 854.743,1280.35 C854.743,1279.69 855.405,1279.36 856.398,1279.03 C871.955,1276.71 887.512,1263.47 887.512,1242.29 C887.512,1224.41 873.941,1205.55 849.116,1205.55 C825.946,1205.55 811.051,1224.41 811.051,1246.26"/>
<path class="KeySig" d="M1088.05,1848.65 C1088.05,1874.8 1074.48,1888.7 1055.28,1903.93 L1056.27,1839.38 C1056.93,1836.4 1061.9,1826.8 1075.14,1826.8 C1087.06,1826.8 1088.05,1838.06 1088.05,1845.01 L1088.05,1848.65 M1084.08,1810.58 C1067.53,1810.58 1057.93,1820.84 1056.27,1822.83 L1057.6,1716.58 C1057.6,1713.93 1055.61,1711.95 1052.96,1711.95 L1048.99,1711.95 C1046.34,1711.95 1044.36,1713.93 1044.36,1716.58 L1046.01,1915.51 C1046.01,1918.16 1048,1920.14 1050.65,1920.14 C1051.31,1920.14 1052.63,1919.81 1053.29,1919.48 C1081.76,1905.25 1111.55,1878.11 1111.55,1844.01 C1111.55,1826.8 1103.61,1810.58 1084.08,1810.58"/>
<path class="KeySig" d="M1179.99,1724.63 C1179.99,1750.78 1166.42,1764.68 1147.22,1779.91 L1148.21,1715.36 C1148.87,1712.39 1153.84,1702.79 1167.08,1702.79 C1178.99,1702.79 1179.99,1714.04 1179.99,1720.99 L1179.99,1724.63 M1176.01,1686.57 C1159.46,1686.57 1149.87,1696.83 1148.21,1698.81 L1149.53,1592.56 C1149.53,1589.92 1147.55,1587.93 1144.9,1587.93 L1140.93,1587.93 C1138.28,1587.93 1136.29,1589.92 1136.29,1592.56 L1137.95,1791.49 C1137.95,1794.14 1139.94,1796.13 1142.58,1796.13 C1143.25,1796.13 1144.57,1795.8 1145.23,1795.47 C1173.7,1781.23 1203.49,1754.09 1203.49,1720 C1203.49,1702.79 1195.54,1686.57 1176.01,1686.57"/>
<path class="KeySig" d="M1088.05,2716.76 C1088.05,2742.91 1074.48,2756.81 1055.28,2772.04 L1056.27,2707.49 C1056.93,2704.51 1061.9,2694.91 1075.14,2694.91 C1087.06,2694.91 1088.05,2706.17 1088.05,2713.12 L1088.05,2716.76 M1084.08,2678.69 C1067.53,2678.69 1057.93,2688.95 1056.27,2690.94 L1057.6,2584.69 C1057.6,2582.04 1055.61,2580.06 1052.96,2580.06 L1048.99,2580.06 C1046.34,2580.06 1044.36,2582.04 1044.36,2584.69 L1046.01,2783.62 C1046.01,2786.27 1048,2788.25 1050.65,2788.25 C1051.31,2788.25 1052.63,2787.92 1053.29,2787.59 C1081.76,2773.36 1111.55,2746.22 1111.55,2712.12 C1111.55,2694.91 1103.61,2678.69 1084.08,2678.69"/>
<path class="KeySig" d="M1179.99,2592.74 C1179.99,2618.89 1166.42,2632.79 1147.22,2648.02 L1148.21,2583.47 C1148.87,2580.5 1153.84,2570.9 1167.08,2570.9 C1178.99,2570.9 1179.99,2582.15 1179.99,2589.1 L1179.99,2592.74 M1176.01,2554.68 C1159.46,2554.68 1149.87,2564.94 1148.21,2566.92 L1149.53,2460.67 C1149.53,2458.03 1147.55,2456.04 1144.9,2456.04 L1140.93,2456.04 C1138.28,2456.04 1136.29,2458.03 1136.29,2460.67 L1137.95,2659.6 C1137.95,2662.25 1139.94,2664.24 1142.58,2664.24 C1143.25,2664.24 1144.57,2663.91 1145.23,2663.58 C1173.7,2649.34 1203.49,2622.2 1203.49,2588.11 C1203.49,2570.9 1195.54,2554.68 1176.01,2554.68"/>
<path class="KeySig" d="M1088.05,980.538 C1088.05,1006.69 1074.48,1020.59 1055.28,1035.82 L1056.27,971.27 C1056.93,968.291 1061.9,958.692 1075.14,958.692 C1087.06,958.692 1088.05,969.946 1088.05,976.897 L1088.05,980.538 M1084.08,942.473 C1067.53,942.473 1057.93,952.734 1056.27,954.72 L1057.6,848.469 C1057.6,845.821 1055.61,843.835 1052.96,843.835 L1048.99,843.835 C1046.34,843.835 1044.36,845.821 1044.36,848.469 L1046.01,1047.4 C1046.01,1050.05 1048,1052.03 1050.65,1052.03 C1051.31,1052.03 1052.63,1051.7 1053.29,1051.37 C1081.76,1037.14 1111.55,1010 1111.55,975.904 C1111.55,958.692 1103.61,942.473 1084.08,942.473"/>
<path class="KeySig" d="M1179.99,856.522 C1179.99,882.671 1166.42,896.573 1147.22,911.799 L1148.21,847.254 C1148.87,844.275 1153.84,834.676 1167.08,834.676 C1178.99,834.676 1179.99,845.93 1179.99,852.881 L1179.99,856.522 M1176.01,818.457 C1159.46,818.457 1149.87,828.718 1148.21,830.704 L1149.53,724.453 C1149.53,721.805 1147.55,719.819 1144.9,719.819 L1140.93,719.819 C1138.28,719.819 1136.29,721.805 1136.29,724.453 L1137.95,923.384 C1137.95,926.032 1139.94,928.018 1142.58,928.018 C1143.25,928.018 1144.57,927.687 1145.23,927.356 C1173.7,913.123 1203.49,885.981 1203.49,851.888 C1203.49,834.676 1195.54,818.457 1176.01,818.457"/>
<path class="TimeSig" d="M1384.57,907.779 C1411.05,897.518 1412.71,880.306 1412.71,874.348 L1412.71,872.693 C1412.71,869.714 1411.71,832.311 1354.78,832.311 C1297.85,832.311 1299.5,872.693 1299.5,872.693 L1299.83,872.693 L1299.5,873.355 C1299.5,885.271 1309.1,894.539 1321.02,894.539 C1332.93,894.539 1342.2,885.271 1342.2,873.355 C1342.2,863.756 1334.92,854.488 1325.65,852.502 L1326.65,851.509 C1331.28,848.199 1337.57,846.544 1343.86,846.544 C1357.76,846.544 1372.65,854.819 1372.65,872.693 C1372.65,893.546 1357.1,896.525 1353.13,897.187 C1349.15,897.849 1330.62,899.173 1326.65,899.173 C1322.67,899.173 1322.34,903.807 1322.34,903.807 L1322.34,910.427 C1322.34,910.427 1323,914.068 1326.65,914.399 C1332.27,914.73 1339.89,914.73 1350.48,916.385 C1365.04,918.371 1372.65,928.301 1372.65,951.471 C1372.65,973.648 1357.76,979.606 1343.86,979.606 C1334.59,979.606 1325.98,976.958 1322.34,974.31 C1333.27,973.648 1342.2,964.049 1342.2,953.126 C1342.2,941.21 1332.93,931.611 1321.02,931.611 C1309.1,931.611 1299.5,941.21 1299.5,953.126 C1299.5,980.268 1324.33,993.839 1348.82,993.839 C1380.6,993.839 1415.02,982.916 1415.02,946.837 C1415.02,922.674 1398.47,912.413 1383.91,907.779 L1384.57,907.779 "/>
<path class="TimeSig" d="M1350.34,1118.01 L1350.34,1142.5 L1322.87,1142.5 C1320.55,1142.5 1318.23,1144.49 1318.23,1147.13 L1318.23,1153.42 C1318.23,1156.07 1320.55,1158.06 1322.87,1158.06 L1423.16,1158.06 C1425.81,1158.06 1427.79,1156.07 1427.79,1153.42 L1427.79,1147.13 C1427.79,1144.49 1425.81,1142.5 1423.16,1142.5 L1393.37,1142.5 L1393.37,1118.01 L1423.16,1118.01 C1425.81,1118.01 1427.79,1115.69 1427.79,1113.04 L1427.79,1106.75 C1427.79,1104.44 1425.81,1102.12 1423.16,1102.12 L1393.37,1102.12 L1393.37,1049.49 C1393.37,1047.5 1392.38,1045.85 1391.05,1045.19 L1387.08,1043.2 C1386.42,1042.87 1386.09,1042.87 1385.43,1042.87 C1384.1,1042.87 1382.78,1042.87 1381.78,1043.86 L1351.66,1071.34 C1350.67,1072.33 1350.34,1073.65 1350.34,1074.98 L1350.34,1102.12 L1311.94,1102.12 C1311.94,1102.12 1349.02,1062.4 1388.07,1010.1 C1389.4,1008.45 1389.73,1006.79 1389.73,1005.47 C1389.73,1003.81 1389.07,1002.49 1388.74,1002.16 L1381.45,994.874 C1380.46,994.212 1379.47,993.55 1378.14,993.55 C1376.16,993.55 1331.47,993.55 1328.82,993.55 C1326.51,993.55 1324.85,995.536 1324.52,997.522 C1324.52,997.522 1322.87,1022.02 1314.26,1048.83 C1305.65,1075.64 1295.72,1092.19 1287.12,1104.44 C1287.12,1104.44 1286.13,1106.09 1286.13,1108.08 C1286.13,1108.74 1286.13,1109.4 1286.46,1110.06 C1287.45,1112.38 1289.77,1116.02 1289.77,1116.02 C1289.77,1116.02 1290.43,1118.01 1293.41,1118.01 L1350.34,1118.01 "/>
<path class="Beam" fill-rule="evenodd" d="M8719.58,1200.4 L8968.29,1179.73 L8968.29,1221.21 L8719.58,1241.88 L8719.58,1200.4 "/>
<path class="Beam" fill-rule="evenodd" d="M3528.14,2047.85 L3803.04,2068.52 L3803.04,2109.98 L3528.14,2089.31 L3528.14,2047.85 "/>
<path class="Beam" fill-rule="evenodd" d="M8766.4,1779.21 L9041.3,1779.21 L9041.3,1820.55 L8766.4,1820.55 L8766.4,1779.21 "/>
<path class="Beam" fill-rule="evenodd" d="M4779.57,2006.51 L5054.47,2027.18 L5054.47,2068.64 L4779.57,2047.97 L4779.57,2006.51 "/>
<path class="NoteDot" d="M6781.15,952.439 C6781.15,961.707 6788.44,968.989 6797.7,968.989 C6806.97,968.989 6814.25,961.707 6814.25,952.439 C6814.25,943.171 6806.97,935.889 6797.7,935.889 C6788.44,935.889 6781.15,943.171 6781.15,952.439"/>
<path class="NoteDot" d="M7046.37,2688.66 C7046.37,2697.93 7053.65,2705.21 7062.92,2705.21 C7072.19,2705.21 7079.47,2697.93 7079.47,2688.66 C7079.47,2679.39 7072.19,2672.11 7062.92,2672.11 C7053.65,2672.11 7046.37,2679.39 7046.37,2688.66"/>
<path class="NoteDot" d="M8444.09,2771.34 C8444.09,2780.61 8451.37,2787.89 8460.64,2787.89 C8469.91,2787.89 8477.19,2780.61 8477.19,2771.34 C8477.19,2762.07 8469.91,2754.79 8460.64,2754.79 C8451.37,2754.79 8444.09,2762.07 8444.09,2771.34"/>
</svg>
