<?xml version="1.0" encoding="utf-8"?>
<svg xmlns="http://www.w3.org/2000/svg" xmlns:svg="http://www.w3.org/2000/svg" version="1.1" viewBox="0 0 681 122">
	<title>A score 2 staves long in 4/4 time, in the key of E Major.</title>
	<path d="M162.19 91.584c0 .742.583 1.325 1.324 1.325s1.325-.583 1.325-1.325-.583-1.325-1.325-1.325c-.741 0-1.325.583-1.325 1.325m151.456 0c0 .742.583 1.325 1.325 1.325s1.325-.583 1.325-1.325-.583-1.325-1.325-1.325-1.325.583-1.325 1.325M160.932 28.706c0 .742.583 1.325 1.325 1.325s1.325-.583 1.325-1.325c0-.741-.583-1.325-1.325-1.325s-1.325.584-1.325 1.325m314.002 0c0 .742.584 1.325 1.325 1.325.742 0 1.325-.583 1.325-1.325 0-.741-.583-1.325-1.325-1.325-.741 0-1.325.584-1.325 1.325M63.075 20.654c-.662.424-1.14 1.192-1.14 2.04 0 .106 0 .212.027.318.132 1.087 1.007 1.935 2.094 2.067h.291a2.375 2.375 0 0 0 2.385-2.385v-.159c0-.106-.026-.291-.053-.397-.238-1.14-1.272-3.577-5.777-3.577-5.776 0-6.438 4.796-6.438 6.518 0 3.153.397 7.102 7.021 7.102 2.624 0 4.664-1.537 4.77-4.372 0-.133-.08-.212-.212-.212h-.344a.23.23 0 0 0-.213.212c-.105 2.199-1.669 3.524-4 3.524-2.306 0-3.42-1.246-3.42-3.578v-5.06c0-1.485.584-3.18 2.942-3.18 1.246 0 1.802.45 2.094.9.026.053.026.08.026.133 0 .026 0 .08-.053.106M43.45 76.386l2.358-.477v4.372l-2.358.503zm4.106-.821c.16-.027.293-.213.293-.372V73.63c0-.212-.16-.37-.372-.37h-.053l-.874.185v-3.949h-.742v4.107l-2.358.477v-3.736h-.742v3.896l-1.034.211c-.158.027-.291.212-.291.372v1.537c0 .21.159.37.371.37h.08l.874-.186v4.373l-1.034.212c-.158.027-.291.212-.291.37v1.538c0 .212.159.37.371.37h.08l.874-.184v3.947h.742v-4.107l2.358-.477v3.736h.742v-3.894l1.006-.186c.16-.026.293-.212.293-.371v-1.563a.363.363 0 0 0-.372-.372h-.053l-.874.186V75.75zM36.194 89.623l2.359-.477v4.373l-2.359.503zm4.108-.821c.16-.027.291-.212.291-.371v-1.563a.363.363 0 0 0-.37-.372h-.054l-.874.186v-3.948h-.742v4.107l-2.359.477v-3.737h-.741v3.896l-1.033.212c-.16.026-.292.212-.292.37v1.538c0 .212.159.371.37.371h.08l.875-.186v4.372l-1.033.212c-.16.027-.292.212-.292.372v1.536c0 .212.159.371.37.371h.08l.875-.185v3.948h.741V96.3l2.359-.476v3.736h.742v-3.895l1.007-.186c.16-.026.291-.211.291-.37v-1.564c0-.212-.159-.37-.37-.37h-.054l-.874.184v-4.372zM28.94 79.695l2.358-.477v4.372l-2.358.504zm4.107-.82c.16-.028.292-.213.292-.372v-1.564c0-.212-.16-.37-.371-.37h-.054l-.874.185v-3.948H31.3v4.107l-2.358.477v-3.736h-.742v3.895l-1.033.212c-.16.026-.292.212-.292.371v1.537c0 .211.159.37.371.37h.08l.874-.185v4.373l-1.033.212c-.16.026-.292.211-.292.37v1.537c0 .213.159.371.371.371h.08l.874-.186v3.949h.742v-4.107l2.358-.477v3.736h.742v-3.896l1.007-.185c.16-.026.292-.212.292-.371v-1.563c0-.212-.16-.371-.371-.371h-.054l-.874.186v-4.373zM43.45 6.89l2.358-.477v4.372l-2.358.503zm4.107-.822c.159-.026.292-.212.292-.37V4.133a.363.363 0 0 0-.372-.371h-.053l-.874.185V0h-.742v4.107l-2.358.477V.848h-.742v3.895l-1.034.212c-.158.027-.291.212-.291.371v1.537c0 .212.159.371.371.371h.08l.874-.186v4.373l-1.034.212c-.158.026-.291.212-.291.37v1.538c0 .212.159.37.371.37h.08l.874-.185v3.948h.742v-4.107l2.358-.477v3.736h.742v-3.895l1.006-.185c.16-.027.293-.212.293-.371V10.81a.363.363 0 0 0-.372-.37h-.053l-.874.185V6.254zM36.194 20.127l2.359-.477v4.372l-2.359.504zm4.108-.82c.16-.027.291-.213.291-.372v-1.563a.36.36 0 0 0-.37-.37h-.054l-.874.185v-3.949h-.742v4.108l-2.359.477v-3.737h-.741v3.896l-1.033.212c-.16.026-.292.212-.292.37V20.1c0 .212.159.371.37.371h.08l.875-.185v4.372l-1.033.212c-.16.026-.292.212-.292.371v1.537c0 .212.159.371.37.371h.08l.875-.186v3.949h.741v-4.108l2.359-.476v3.736h.742v-3.896l1.007-.185c.16-.027.291-.212.291-.37v-1.564c0-.213-.159-.371-.37-.371h-.054l-.874.185V19.49zM28.94 10.2l2.358-.477v4.372l-2.358.504zm4.107-.82c.16-.027.292-.213.292-.372V7.443a.36.36 0 0 0-.371-.371h-.054l-.874.186V3.309H31.3v4.108l-2.358.476V4.157h-.742v3.895l-1.033.212c-.16.027-.292.212-.292.371v1.537c0 .212.159.371.371.371h.08l.874-.185v4.372l-1.033.212c-.16.026-.292.212-.292.37v1.538c0 .212.159.37.371.37h.08l.874-.185v3.949h.742v-4.108l2.358-.477v3.737h.742V16.24l1.007-.185c.16-.027.292-.212.292-.371V14.12a.36.36 0 0 0-.371-.371h-.054l-.874.185V9.563zm-16.955 97.594a7.8 7.8 0 0 1-1.537.158c-3.789 0-7.022-2.65-7.022-6.65 0-3.233 2.28-6.122 4.611-8.135.45-.398.875-.768 1.272-1.166.238 1.431.424 2.676.61 3.762-2.412.716-4.055 3.26-4.055 5.75 0 1.855 1.458 4.4 3.577 4.4.212 0 .451-.107.451-.345s-.265-.371-.583-.583c-1.033-.636-1.616-1.325-1.616-2.624 0-1.616 1.192-2.914 2.755-3.285zm-2.332-27.24c.239-1.06 1.458-3.842 2.836-3.842.397 0 1.033 1.298 1.033 3.126 0 2.756-2.04 4.823-3.869 6.625-.159-1.06-.291-2.094-.291-3.207 0-.98.08-1.881.291-2.702m6.095 22.337c0 1.882-.768 3.817-2.65 4.585a877 877 0 0 1-1.457-8.56c2.385 0 4.107 1.617 4.107 3.975m-11.66 13.038c0 1.748 1.352 4.054 4.93 4.054 1.245 0 2.331-.318 3.285-.901 1.431-1.007 1.802-2.756 1.802-4.425 0-1.034-.159-2.226-.424-3.736-.08-.53-.238-1.325-.397-2.359 2.597-.847 4.53-3.55 4.53-6.28 0-4.001-2.834-6.704-6.703-6.704-.265-1.59-.53-3.153-.769-4.637 2.81-2.941 4.744-6.253 4.744-10.467 0-2.41-.742-4.372-1.166-5.326-.636-1.35-1.405-2.279-1.882-2.279-.185 0-1.007.318-1.881 1.352-1.696 2.014-2.173 5.406-2.173 7.631 0 1.43.133 2.73.583 5.697-.026.027-1.404 1.431-1.96 1.882-2.412 2.252-5.75 5.458-5.75 10.758 0 4.955 4.318 8.85 9.247 8.85.768 0 1.484-.08 2.093-.185.504 2.543.795 4.398.795 5.803 0 2.755-1.404 4.213-4.08 4.213-.636 0-1.193-.133-1.246-.133-.026-.026-.08-.052-.08-.079 0-.053.054-.08.133-.106 1.246-.185 2.49-1.245 2.49-2.941 0-1.431-1.085-2.942-3.073-2.942-1.855 0-3.047 1.51-3.047 3.26m7.896-77.631a7.8 7.8 0 0 1-1.537.158c-3.789 0-7.022-2.65-7.022-6.65 0-3.233 2.28-6.122 4.611-8.136.45-.397.875-.768 1.272-1.165.238 1.43.424 2.676.61 3.762-2.412.716-4.055 3.26-4.055 5.75 0 1.855 1.458 4.4 3.577 4.4.212 0 .451-.107.451-.346 0-.238-.265-.37-.583-.583-1.033-.635-1.616-1.324-1.616-2.623 0-1.616 1.192-2.915 2.755-3.285zm-2.332-27.24c.239-1.06 1.458-3.843 2.836-3.843.397 0 1.033 1.299 1.033 3.127 0 2.756-2.04 4.823-3.869 6.624-.159-1.06-.291-2.093-.291-3.206 0-.98.08-1.881.291-2.703m6.095 22.338c0 1.881-.768 3.816-2.65 4.585a877 877 0 0 1-1.457-8.56c2.385 0 4.107 1.617 4.107 3.975M8.196 45.609c0 1.75 1.352 4.055 4.93 4.055 1.245 0 2.331-.318 3.285-.902 1.431-1.006 1.802-2.755 1.802-4.424 0-1.034-.159-2.227-.424-3.736-.08-.53-.238-1.325-.397-2.359 2.597-.848 4.53-3.551 4.53-6.28 0-4.001-2.834-6.704-6.703-6.704-.265-1.59-.53-3.153-.769-4.637 2.81-2.942 4.744-6.254 4.744-10.467 0-2.411-.742-4.372-1.166-5.326-.636-1.352-1.405-2.28-1.882-2.28-.185 0-1.007.319-1.881 1.352-1.696 2.014-2.173 5.406-2.173 7.632 0 1.43.133 2.73.583 5.697-.026.026-1.404 1.43-1.96 1.881-2.412 2.253-5.75 5.459-5.75 10.758 0 4.956 4.318 8.85 9.247 8.85.768 0 1.484-.079 2.093-.184.504 2.543.795 4.398.795 5.803 0 2.755-1.404 4.213-4.08 4.213-.636 0-1.193-.133-1.246-.133-.026-.026-.08-.053-.08-.08 0-.052.054-.08.133-.106 1.246-.185 2.49-1.245 2.49-2.94 0-1.431-1.085-2.942-3.073-2.942-1.855 0-3.047 1.51-3.047 3.259m103.547-17.933a.99.99 0 0 1-1.06-.954c0-1.298 4.452-3.577 5.697-3.577.636 0 1.06.37 1.06.954 0 1.325-4.478 3.577-5.697 3.577m3.656-5.777c-2.57 0-5.643 2.146-5.643 4.611 0 1.14.821 2.412 2.967 2.412 2.756 0 5.644-2.253 5.644-4.585 0-1.563-1.325-2.438-2.968-2.438m428.204 77.417c0 1.14.822 2.411 2.968 2.411 2.756 0 5.644-2.252 5.644-4.584 0-1.564-1.325-2.438-2.968-2.438-2.57 0-5.644 2.173-5.644 4.611M305.04 36.438c0 1.14.82 2.411 2.967 2.411 2.756 0 5.644-2.252 5.644-4.584 0-1.563-1.325-2.437-2.968-2.437-2.57 0-5.643 2.172-5.643 4.61m19.864 6.619c0 1.139.82 2.411 2.967 2.411 2.756 0 5.645-2.252 5.645-4.584 0-1.563-1.325-2.438-2.968-2.438-2.57 0-5.644 2.173-5.644 4.61m237.901 59.569c0 1.14.822 2.412 2.968 2.412 2.756 0 5.645-2.253 5.645-4.585 0-1.563-1.325-2.438-2.969-2.438-2.57 0-5.644 2.173-5.644 4.61m-47.87-6.617c0 1.139.822 2.41 2.968 2.41 2.757 0 5.645-2.252 5.645-4.584 0-1.563-1.325-2.438-2.968-2.438-2.57 0-5.644 2.173-5.644 4.612m-170.168-49.64c0 1.138.822 2.41 2.968 2.41 2.755 0 5.644-2.252 5.644-4.583 0-1.564-1.325-2.439-2.968-2.439-2.57 0-5.644 2.174-5.644 4.611m150.965 72.806c0 1.14.822 2.411 2.969 2.411 2.755 0 5.643-2.252 5.643-4.584 0-1.563-1.324-2.438-2.967-2.438-2.57 0-5.645 2.173-5.645 4.611m-131.1-69.496c0 1.139.82 2.411 2.967 2.411 2.756 0 5.644-2.253 5.644-4.585 0-1.562-1.325-2.437-2.968-2.437-2.57 0-5.644 2.172-5.644 4.61m31.317-8.762a.99.99 0 0 1-1.06-.954c0-1.298 4.451-3.577 5.697-3.577.636 0 1.06.371 1.06.954 0 1.325-4.479 3.577-5.697 3.577m3.656-5.776c-2.57 0-5.644 2.146-5.644 4.61 0 1.14.822 2.412 2.968 2.412 2.756 0 5.644-2.252 5.644-4.584 0-1.564-1.324-2.438-2.968-2.438m76.926 70.797c0 1.14.822 2.411 2.968 2.411 2.755 0 5.644-2.251 5.644-4.583 0-1.564-1.325-2.438-2.968-2.438-2.57 0-5.644 2.173-5.644 4.61m-50.786-78.258a.99.99 0 0 1-1.06-.954c0-1.298 4.451-3.577 5.697-3.577.636 0 1.06.37 1.06.954 0 1.325-4.478 3.577-5.697 3.577m3.656-5.777c-2.57 0-5.643 2.146-5.643 4.611 0 1.14.82 2.412 2.967 2.412 2.756 0 5.645-2.253 5.645-4.585 0-1.563-1.325-2.438-2.969-2.438M186.79 23.201c0 1.139.822 2.411 2.969 2.411 2.755 0 5.644-2.253 5.644-4.584 0-1.564-1.325-2.438-2.968-2.438-2.57 0-5.645 2.173-5.645 4.61m270.54 89.353c0 1.14.822 2.411 2.968 2.411 2.756 0 5.645-2.252 5.645-4.584 0-1.563-1.325-2.437-2.969-2.437-2.57 0-5.644 2.172-5.644 4.61m7.679-78.258a.99.99 0 0 1-1.06-.954c0-1.299 4.45-3.577 5.696-3.577.636 0 1.06.37 1.06.953 0 1.325-4.478 3.578-5.696 3.578m3.656-5.777c-2.57 0-5.644 2.146-5.644 4.61 0 1.14.821 2.412 2.967 2.412 2.757 0 5.645-2.252 5.645-4.584 0-1.564-1.325-2.438-2.968-2.438m-212.817 7.92c0 1.14.821 2.411 2.968 2.411 2.756 0 5.644-2.252 5.644-4.584 0-1.563-1.325-2.437-2.967-2.437-2.571 0-5.645 2.172-5.645 4.61M500.792 23.2c0 1.139.821 2.411 2.968 2.411 2.755 0 5.643-2.253 5.643-4.584 0-1.564-1.324-2.438-2.967-2.438-2.57 0-5.644 2.173-5.644 4.61m-76.274 82.734c0 1.14.822 2.411 2.968 2.411 2.756 0 5.645-2.252 5.645-4.583 0-1.564-1.325-2.438-2.969-2.438-2.57 0-5.644 2.173-5.644 4.61M530.121 26.51c0 1.14.821 2.412 2.967 2.412 2.757 0 5.645-2.253 5.645-4.585 0-1.563-1.325-2.438-2.968-2.438-2.57 0-5.644 2.173-5.644 4.611M405.316 99.316c0 1.14.82 2.411 2.968 2.411 2.755 0 5.644-2.252 5.644-4.584 0-1.564-1.325-2.438-2.968-2.438-2.57 0-5.644 2.173-5.644 4.611m144.669-82.734c0 1.14.822 2.411 2.968 2.411 2.756 0 5.644-2.252 5.644-4.584 0-1.563-1.325-2.438-2.968-2.438-2.57 0-5.644 2.173-5.644 4.611M386.114 99.316c0 1.14.821 2.411 2.967 2.411 2.756 0 5.644-2.252 5.644-4.584 0-1.564-1.325-2.438-2.968-2.438-2.57 0-5.643 2.173-5.643 4.611M569.85 23.201c0 1.139.821 2.411 2.967 2.411 2.756 0 5.644-2.253 5.644-4.584 0-1.564-1.325-2.438-2.968-2.438-2.57 0-5.643 2.173-5.643 4.61M366.91 92.698c0 1.14.822 2.411 2.968 2.411 2.757 0 5.645-2.252 5.645-4.584 0-1.563-1.325-2.438-2.968-2.438-2.57 0-5.644 2.173-5.644 4.611m222.803-79.424c0 1.139.821 2.41 2.967 2.41 2.757 0 5.645-2.251 5.645-4.583 0-1.564-1.325-2.438-2.969-2.438-2.57 0-5.643 2.173-5.643 4.61m-7.705 92.662c0 1.14.821 2.411 2.968 2.411 2.755 0 5.644-2.252 5.644-4.583 0-1.564-1.325-2.438-2.968-2.438-2.57 0-5.644 2.173-5.644 4.61M81.947 40.913a.99.99 0 0 1-1.06-.954c0-1.298 4.452-3.577 5.698-3.577.635 0 1.06.371 1.06.954 0 1.325-4.479 3.577-5.698 3.577m3.657-5.776c-2.57 0-5.644 2.146-5.644 4.61 0 1.14.822 2.412 2.968 2.412 2.755 0 5.644-2.252 5.644-4.584 0-1.564-1.325-2.438-2.968-2.438m252.64 60.87c0 1.139.821 2.41 2.968 2.41 2.755 0 5.644-2.252 5.644-4.584 0-1.563-1.325-2.438-2.968-2.438-2.57 0-5.644 2.173-5.644 4.612m290.11-74.526c-.742 0-1.245-.212-1.59-.874-.345-.663-.822-2.359-.848-3.074-.053-.716.212-1.14.848-1.351.318-.106.742-.16 1.14-.16.742 0 1.218.16 1.59.875.37.715.847 2.411.847 3.074 0 1.298-.9 1.51-1.987 1.51m-.212-6.306c-3.657 0-4.955 1.854-4.955 3.577s1.298 3.577 4.955 3.577 4.928-1.855 4.928-3.577c0-1.723-1.272-3.577-4.928-3.577m-392.16 17.953c0 1.14.822 2.412 2.969 2.412 2.756 0 5.643-2.252 5.643-4.584 0-1.564-1.324-2.438-2.967-2.438-2.57 0-5.644 2.173-5.644 4.61m67.734 60.735a.99.99 0 0 1-1.06-.954c0-1.298 4.452-3.577 5.698-3.577.635 0 1.06.371 1.06.954 0 1.325-4.479 3.577-5.698 3.577m3.657-5.777c-2.57 0-5.644 2.147-5.644 4.611 0 1.14.822 2.411 2.968 2.411 2.755 0 5.644-2.252 5.644-4.584 0-1.563-1.325-2.438-2.968-2.438m-156.37-53.791a.99.99 0 0 1-1.06-.954c0-1.299 4.453-3.577 5.698-3.577.636 0 1.06.37 1.06.953 0 1.325-4.478 3.578-5.697 3.578m3.657-5.777c-2.57 0-5.644 2.146-5.644 4.61 0 1.14.821 2.412 2.968 2.412 2.755 0 5.643-2.252 5.643-4.584 0-1.564-1.325-2.438-2.967-2.438m446.55 80.726c0 1.139.821 2.41 2.967 2.41 2.756 0 5.644-2.251 5.644-4.583 0-1.563-1.325-2.438-2.967-2.438-2.57 0-5.645 2.173-5.645 4.61m-516.02-18.69a.99.99 0 0 1-1.06-.953c0-1.299 4.451-3.578 5.696-3.578.636 0 1.06.372 1.06.954 0 1.325-4.478 3.577-5.697 3.577m3.657-5.776c-2.57 0-5.645 2.147-5.645 4.61 0 1.14.823 2.412 2.969 2.412 2.755 0 5.644-2.252 5.644-4.584 0-1.563-1.325-2.438-2.968-2.438m184.216 17.848c0 1.14.821 2.412 2.968 2.412 2.756 0 5.644-2.253 5.644-4.585 0-1.563-1.325-2.438-2.968-2.438-2.57 0-5.644 2.173-5.644 4.61m-159.07-18.689a.99.99 0 0 1-1.059-.954c0-1.299 4.452-3.577 5.697-3.577.636 0 1.06.37 1.06.954 0 1.324-4.479 3.577-5.697 3.577m3.657-5.777c-2.57 0-5.645 2.147-5.645 4.61 0 1.14.822 2.412 2.969 2.412 2.755 0 5.643-2.252 5.643-4.584 0-1.563-1.324-2.438-2.967-2.438m136.21 17.849c0 1.139.821 2.41 2.967 2.41 2.756 0 5.644-2.252 5.644-4.584 0-1.563-1.325-2.438-2.967-2.438-2.57 0-5.644 2.173-5.644 4.612m-101.599 1.165a.99.99 0 0 1-1.06-.954c0-1.298 4.452-3.577 5.697-3.577.637 0 1.06.37 1.06.954 0 1.325-4.478 3.577-5.697 3.577m3.657-5.777c-2.57 0-5.644 2.147-5.644 4.612 0 1.139.821 2.41 2.967 2.41 2.757 0 5.645-2.252 5.645-4.584 0-1.563-1.325-2.438-2.968-2.438m78.739 4.612c0 1.139.821 2.41 2.968 2.41 2.756 0 5.644-2.252 5.644-4.584 0-1.563-1.325-2.438-2.968-2.438-2.57 0-5.644 2.173-5.644 4.612m400.387 14.827c-.74 0-1.244-.213-1.59-.875-.344-.663-.82-2.358-.847-3.074-.053-.715.212-1.139.848-1.351.318-.106.742-.159 1.14-.159.74 0 1.218.159 1.59.875.37.715.847 2.41.847 3.073 0 1.298-.901 1.51-1.988 1.51m-.21-6.306c-3.658 0-4.956 1.855-4.956 3.577s1.298 3.577 4.955 3.577 4.928-1.855 4.928-3.577-1.272-3.577-4.928-3.577M215.455 86.078c0 1.14.822 2.411 2.969 2.411 2.755 0 5.644-2.251 5.644-4.583 0-1.564-1.325-2.438-2.968-2.438-2.57 0-5.645 2.173-5.645 4.61m-28.667 3.31c0 1.139.822 2.41 2.968 2.41 2.756 0 5.644-2.251 5.644-4.583 0-1.563-1.325-2.438-2.968-2.438-2.57 0-5.644 2.173-5.644 4.61m88.924-49.64c0 1.14.821 2.412 2.967 2.412 2.756 0 5.644-2.252 5.644-4.584 0-1.564-1.325-2.438-2.967-2.438-2.571 0-5.644 2.173-5.644 4.61M216.119 26.51c0 1.14.821 2.412 2.968 2.412 2.755 0 5.643-2.253 5.643-4.585 0-1.563-1.324-2.438-2.967-2.438-2.57 0-5.644 2.173-5.644 4.611m207.64-.001v18.744h.662V26.51ZM215.456 86.077v22.054h.662V86.077Zm-28.668 3.31v22.053h.662V89.387Zm47.87 6.618v18.745h.662V96.005Zm19.202 0v18.745h.662V96.005Zm-103.585 0v18.745h.662V96.005Zm93.65-87.155v22.106h.663V8.85Zm365.229 76.115v22.107h.662V84.965Zm-328.149-6.618v22.106h.662V78.347Zm-168.998 4.421v22.053h.662V82.768Zm260.569-57.371v22.107h.662V25.397Zm-262.82 1.112v18.744h.662V26.51ZM83.203 89.387v22.053h.662V89.387ZM263.79 12.16v22.106h.662V12.16ZM156.96 8.85v22.106h.662V8.85ZM589.95 81.656v22.106h.662V81.656ZM283.653 15.469v22.106h.663V15.47Zm18.077 77.227v20.4h.662v-20.4Zm50.981-70.608v22.106h.662V22.088Zm-14.467 73.917v18.745h.662V96.005Zm232.505-17.658v22.106h.662V78.347Zm-354.63-51.838v18.744h.662V26.51ZM366.91 92.696v20.4h.663v-20.4Zm222.804-79.424v22.053h.662V13.272Zm-195.659 63.42v20.452h.663V76.692ZM569.85 23.2v20.399h.662v-20.4ZM413.26 76.692v20.452h.661V76.692ZM549.984 16.58v22.054h.662V16.58ZM432.461 81.656v22.106h.662V81.656Zm97.66-55.147v18.744h.661V26.51Zm-217.138-14.35v22.107h.662V12.16ZM186.79 23.2v20.4h.662v-20.4Zm364.756 53.493v20.452h.662V76.692ZM500.792 23.2v20.399h.662v-20.4Zm-167.945-4.422v22.107h.662V18.778Zm132.425 69.497v22.106h.662V88.275Zm5.69-79.425v22.106h.663V8.85Zm-69.057 6.619v22.106h.662V15.47Zm101.772 79.424V117h.662V94.893Zm-19.203-13.237v22.106h.662V81.656ZM87.902 15.469v22.106h.662V15.47Zm427.034 80.536v18.745h.662V96.005ZM342.585 44.724v1.059h12.973v-1.06ZM493.55 114.22v1.06h12.974v-1.06Zm-131.1-69.496v1.059h12.973v-1.06zm-43.594-4.741 2.359-.477v4.372l-2.359.504zm4.107-.82c.16-.027.292-.213.292-.371v-1.564a.36.36 0 0 0-.371-.37h-.053l-.874.184v-3.948h-.742v4.108l-2.359.477v-3.736h-.742v3.894l-1.033.213c-.159.026-.292.212-.292.37v1.537c0 .212.16.372.371.372h.08l.874-.186v4.372l-1.033.212c-.159.026-.292.212-.292.371v1.537c0 .212.16.371.371.371h.08l.874-.186v3.949h.743V46.66l2.358-.477v3.736h.742v-3.896l1.006-.185c.16-.027.292-.212.292-.371v-1.563a.36.36 0 0 0-.37-.371h-.054l-.874.185v-4.372zm294.175-22.344 2.359-.476v4.372l-2.359.503zm4.108-.82c.159-.027.291-.213.291-.372v-1.563a.36.36 0 0 0-.37-.371h-.054l-.874.185V9.928h-.742v4.107l-2.359.477v-3.736h-.741v3.895l-1.034.212c-.159.027-.291.212-.291.371v1.537c0 .212.158.371.37.371h.08l.875-.186v4.373l-1.034.212c-.159.026-.291.212-.291.37v1.537c0 .212.158.372.37.372h.08l.875-.186v3.948h.741v-4.107l2.359-.477v3.736h.742V22.86l1.007-.185c.16-.027.291-.212.291-.371v-1.564a.36.36 0 0 0-.37-.37h-.054l-.874.185v-4.372zM77.155 86.314l2.358-.477v4.372l-2.358.504zm4.106-.82c.16-.027.293-.213.293-.371v-1.564c0-.212-.16-.37-.372-.37h-.053l-.874.184v-3.948h-.742v4.108l-2.358.477v-3.736h-.742v3.894l-1.034.212c-.158.027-.291.213-.291.371v1.537c0 .212.159.372.371.372h.08l.874-.186v4.372l-1.034.212c-.158.026-.291.212-.291.371v1.537c0 .212.159.371.371.371h.08l.874-.186V97.1h.742v-4.107l2.358-.477v3.736h.742v-3.896l1.006-.185c.16-.027.293-.212.293-.371v-1.564c0-.212-.16-.37-.372-.37h-.053l-.874.185v-4.372zm370.02 23.987 2.359-.476v4.371l-2.358.504zm4.106-.821c.16-.027.292-.212.292-.371v-1.563a.36.36 0 0 0-.37-.371h-.054l-.875.185v-3.948h-.74v4.107l-2.36.477v-3.736h-.741v3.895l-1.034.212c-.16.026-.291.212-.291.37v1.538c0 .212.158.371.37.371h.08l.875-.186v4.372l-1.034.212c-.16.027-.291.212-.291.372v1.536c0 .212.158.371.37.371h.08l.874-.185v3.948h.743v-4.107l2.358-.477v3.736h.741v-3.895l1.007-.186c.16-.026.292-.211.292-.37V113.4a.36.36 0 0 0-.37-.37h-.054l-.875.184v-4.372zM180.741 86.314l2.357-.477v4.372l-2.357.504zm4.106-.82c.16-.027.292-.213.292-.371v-1.564a.36.36 0 0 0-.37-.37h-.054l-.875.184v-3.948h-.742v4.108l-2.357.477v-3.736h-.742v3.894l-1.034.212c-.16.027-.291.213-.291.371v1.537c0 .212.158.372.37.372h.08l.875-.186v4.372l-1.034.212c-.16.026-.291.212-.291.371v1.537c0 .212.158.371.37.371h.08l.875-.186V97.1h.742v-4.107l2.357-.477v3.736h.742v-3.896l1.008-.185c.159-.027.29-.212.29-.371v-1.564a.36.36 0 0 0-.37-.37h-.053l-.875.185v-4.372zm199.65-73.696v27.203h1.191V11.796Zm-177.843 0v27.203h1.19V11.796Zm246.9 0v27.203h1.191V11.796Zm67.101 0v27.203h1.192V11.796Zm88.923 0v27.203h1.191V11.796Zm67.781 0v27.203H681V11.796Zm-3.64 0v27.203h1.191V11.796Zm-2.447 16.91c0-.768-.61-1.404-1.378-1.404s-1.378.636-1.378 1.404c0 .769.61 1.405 1.378 1.405.769 0 1.378-.636 1.378-1.405m0-6.618c0-.769-.61-1.405-1.378-1.405s-1.378.636-1.378 1.405c0 .768.61 1.404 1.378 1.404.769 0 1.378-.636 1.378-1.404m6.087 59.204v27.203H681V81.292Zm-3.64 0v27.203h1.191V81.292Zm-532.91 0v27.203h1.192V81.292Zm-1.256-69.496v27.203h1.19V11.796Zm66.438 69.496v27.203h1.19V81.292Zm86.274 0v27.203h1.191V81.292Zm65.18 0v27.203h1.192V81.292Zm86.275 0v27.203h1.192V81.292Zm90.419 0v27.203h1.191V81.292ZM70.787 98.202c0-.768-.61-1.404-1.378-1.404s-1.378.636-1.378 1.405c0 .768.61 1.404 1.378 1.404.769 0 1.378-.636 1.378-1.404m0-6.619c0-.768-.61-1.405-1.378-1.405s-1.378.637-1.378 1.405c0 .769.61 1.405 1.378 1.405.769 0 1.378-.636 1.378-1.405M64.39 81.292v27.203h1.192V81.292Zm-6.09 0v27.203h3.64V81.292Zm562.113 0v27.203h1.191V81.292ZM295.576 11.796v27.203h1.191V11.796ZM0 107.767v.728h681v-.728zm0-6.619v.728h681v-.728zm0-6.619v.728h681v-.728zm0-6.618v.728h681v-.728zm0-6.619v.728h681v-.728Zm0-43.021v.727h681v-.727Zm0-6.62v.728h681v-.727Zm0-6.618v.728h681v-.728zm0-6.619v.728h681v-.728zm0-6.618v.728h681v-.728z"/>
</svg>
